v 0.43411872 -0.22602017 0.00098470
v 0.00019827 -0.25312600 0.00098470
v 0.43411872 -0.46085411 0.00098470
v 0.43411872 -0.09896836 -0.47835469
v 0.00019827 -0.39560068 0.00098470
v 0.00019827 -0.21180832 -0.47835469
v 0.42944652 -0.46174458 0.00098470
v 0.43411872 -0.46085411 -0.01004161
v 0.43411872 -0.30858427 -0.47835469
v 0.40999314 -0.46185142 0.00098470
v 0.00019827 -0.46238571 -0.40994465
v 0.00019827 -0.39385539 -0.47835469
v 0.40999314 -0.46249259 -0.07000595
v 0.40999314 -0.46263504 -0.09004100
v 0.42936155 -0.46174458 -0.01004161
v 0.42851207 -0.46174458 -0.03002973
v 0.42719537 -0.46174458 -0.05001783
v 0.43411872 -0.46053353 -0.03002973
v 0.42948899 -0.31032959 -0.47835469
v 0.43411872 -0.31232423 -0.46915829
v 0.42333019 -0.44439828 -0.17004037
v 0.40922862 -0.44995481 -0.18852703
v 0.39669859 -0.45853889 -0.19495514
v 0.38038835 -0.46017736 -0.22080830
v 0.37563121 -0.45761281 -0.23413371
v 0.35745209 -0.45914441 -0.25707781
v 0.33927295 -0.45982116 -0.27927119
v 0.32032928 -0.46014172 -0.30043232
v 0.30062106 -0.46024859 -0.32070196
v 0.28019080 -0.46007049 -0.34017396
v 0.25797659 -0.45946497 -0.35833216
v 0.23414834 -0.45789775 -0.37597424
v 0.22085379 -0.46017736 -0.38043171
v 0.00019827 -0.46213639 -0.41876572
v 0.07002650 -0.46281314 -0.40994465
v 0.00835340 -0.39396223 -0.47835469
v 0.00019827 -0.43574294 -0.45803815
v 0.34993407 -0.46267065 -0.23000471
v 0.36993963 -0.46249259 -0.21001659
v 0.38998762 -0.46238571 -0.17004037
v 0.40999314 -0.46245694 -0.11002910
v 0.09003204 -0.46284875 -0.40994465
v 0.42558134 -0.46167332 -0.07000595
v 0.43411872 -0.45982116 -0.05001783
v 0.41194698 -0.31666970 -0.47835469
v 0.19409479 -0.45821834 -0.39643157
v 0.43411872 -0.31777388 -0.45545751
v 0.42689803 -0.44803137 -0.15000534
v 0.41245669 -0.45440713 -0.17004037
v 0.40060627 -0.46031982 -0.18162972
v 0.38285190 -0.46092534 -0.21001659
v 0.36930248 -0.46131715 -0.22850326
v 0.36229420 -0.46081847 -0.24375241
v 0.34411505 -0.46103221 -0.26589885
v 0.32474664 -0.46092534 -0.28996906
v 0.30839393 -0.46092534 -0.30826804
v 0.28809106 -0.46088973 -0.32839692
v 0.27670789 -0.46035546 -0.34148771
v 0.24463956 -0.46088973 -0.36260194
v 0.22849922 -0.46138838 -0.36959308
v 0.21002276 -0.46092534 -0.38263696
v 0.18071529 -0.46010610 -0.40023214
v 0.00019827 -0.46185142 -0.42800903
v 0.01005238 -0.39396223 -0.47835469
v 0.01005238 -0.43581417 -0.45803815
v 0.00019827 -0.44934928 -0.44804406
v 0.28995994 -0.46256381 -0.30995718
v 0.31000796 -0.46242133 -0.28996906
v 0.22994335 -0.46274191 -0.34998032
v 0.38998762 -0.46145964 -0.18894932
v 0.35044378 -0.46174458 -0.25022742
v 0.40247515 -0.46096095 -0.17004037
v 0.40587312 -0.46153086 -0.15000534
v 0.42214090 -0.46099657 -0.11002910
v 0.42388234 -0.46145964 -0.09004100
v 0.01005238 -0.46185142 -0.42810288
v 0.03005792 -0.46188706 -0.42758676
v 0.05002098 -0.46185142 -0.42650759
v 0.07002650 -0.46174458 -0.42509997
v 0.11003757 -0.46256381 -0.40994465
v 0.21002276 -0.46249259 -0.37001535
v 0.43411872 -0.45846766 -0.07000595
v 0.40145576 -0.32030281 -0.47835469
v 0.43411872 -0.44696283 -0.12757736
v 0.43411872 -0.44813824 -0.12349527
v 0.42991373 -0.45045346 -0.13025182
v 0.41848809 -0.45957184 -0.13728988
v 0.41589713 -0.45804024 -0.15000534
v 0.42082417 -0.46042669 -0.12396448
v 0.33158505 -0.46185142 -0.27152932
v 0.32733759 -0.46128154 -0.28307176
v 0.26995441 -0.46249259 -0.32999220
v 0.27670789 -0.46088973 -0.33815637
v 0.26995441 -0.46088973 -0.34392759
v 0.25079837 -0.46188706 -0.35101259
v 0.18840319 -0.46138838 -0.38981581
v 0.17001170 -0.46078289 -0.40192127
v 0.12290738 -0.46035546 -0.42064252
v 0.13628687 -0.45925128 -0.41796806
v 0.15004864 -0.45750594 -0.41519976
v 0.00019827 -0.45939374 -0.43800309
v 0.03005792 -0.39314300 -0.47835469
v 0.03005792 -0.43495932 -0.45770967
v 0.03005792 -0.44917119 -0.44766873
v 0.01005238 -0.44942051 -0.44804406
v 0.00019827 -0.45447838 -0.44292974
v 0.01005238 -0.45939374 -0.43809694
v 0.03005792 -0.45914441 -0.43758082
v 0.09003204 -0.46145964 -0.42359853
v 0.15004864 -0.46153086 -0.40520570
v 0.17001170 -0.46231449 -0.38995653
v 0.11003757 -0.46092534 -0.42190939
v 0.43411872 -0.45640177 -0.08755420
v 0.38255456 -0.32607305 -0.47835469
v 0.15004864 -0.44753271 -0.42627299
v 0.43411872 -0.45166451 -0.11002910
v 0.43216488 -0.45355228 -0.11002910
v 0.43390635 -0.45618805 -0.09004100
v 0.07002650 -0.45743471 -0.43509403
v 0.09003204 -0.45558256 -0.43359256
v 0.11003757 -0.45287552 -0.43190342
v 0.12910867 -0.45009726 -0.42965126
v 0.05002098 -0.39143330 -0.47835469
v 0.05002098 -0.43314278 -0.45691204
v 0.05002098 -0.44853005 -0.44691798
v 0.07002650 -0.38883314 -0.47835469
v 0.10974025 -0.38316977 -0.47835469
v 0.05002098 -0.45853889 -0.43650162
v 0.43411872 -0.45604557 -0.08966562
v 0.37036437 -0.32967052 -0.47835469
v 0.36161458 -0.33223507 -0.47835469
v 0.43411872 -0.45241249 -0.10688543
v 0.07002650 -0.44739026 -0.44565111
v 0.09003204 -0.44560933 -0.44396198
v 0.11003757 -0.44286668 -0.44189751
v 0.24994889 -0.35773805 -0.47835469
v 0.27008185 -0.35385561 -0.47835469
v 0.35091099 -0.33526266 -0.47835469
v 0.27670789 -0.35250211 -0.47835469
v 0.28995994 -0.34975946 -0.47835469
v 0.30915847 -0.34559208 -0.47835469
v 0.32593593 -0.34178087 -0.47835469
v 0.33676696 -0.33914509 -0.47835469
f 1 2 5
f 1 5 10
f 1 10 7
f 1 7 3
f 1 3 8
f 1 8 18
f 1 18 44
f 1 44 82
f 1 82 113
f 1 113 129
f 1 129 132
f 1 132 116
f 1 116 85
f 1 85 84
f 1 84 47
f 1 47 20
f 1 20 9
f 1 9 4
f 1 4 2
f 2 4 6
f 2 6 12
f 2 12 37
f 2 37 66
f 2 66 106
f 2 106 101
f 2 101 63
f 2 63 34
f 2 34 11
f 2 11 5
f 3 7 8
f 4 9 19
f 4 19 45
f 4 45 83
f 4 83 114
f 4 114 130
f 4 130 131
f 4 131 138
f 4 138 143
f 4 143 142
f 4 142 141
f 4 141 140
f 4 140 139
f 4 139 137
f 4 137 136
f 4 136 127
f 4 127 126
f 4 126 123
f 4 123 102
f 4 102 64
f 4 64 36
f 4 36 12
f 4 12 6
f 5 11 10
f 7 10 13
f 7 13 14
f 7 14 15
f 7 15 8
f 8 15 16
f 8 16 17
f 8 17 18
f 9 20 21
f 9 21 22
f 9 22 23
f 9 23 24
f 9 24 25
f 9 25 26
f 9 26 27
f 9 27 28
f 9 28 29
f 9 29 30
f 9 30 31
f 9 31 32
f 9 32 33
f 9 33 19
f 10 11 13
f 11 34 35
f 11 35 14
f 11 14 13
f 12 36 37
f 14 38 39
f 14 39 40
f 14 40 41
f 14 41 17
f 14 17 16
f 14 16 15
f 14 35 42
f 14 42 38
f 17 41 43
f 17 43 18
f 18 43 44
f 19 33 46
f 19 46 45
f 20 47 21
f 21 48 49
f 21 49 22
f 21 47 48
f 22 49 23
f 23 49 50
f 23 50 24
f 24 50 51
f 24 51 52
f 24 52 53
f 24 53 26
f 24 26 25
f 26 53 27
f 27 53 54
f 27 54 28
f 28 54 55
f 28 55 56
f 28 56 29
f 29 57 30
f 29 56 57
f 30 57 58
f 30 58 59
f 30 59 31
f 31 59 33
f 31 33 32
f 33 59 60
f 33 60 61
f 33 61 62
f 33 62 46
f 34 63 35
f 35 63 42
f 36 64 65
f 36 65 37
f 37 65 105
f 37 105 66
f 38 67 68
f 38 68 39
f 38 42 69
f 38 69 67
f 39 51 70
f 39 70 40
f 39 68 71
f 39 71 52
f 39 52 51
f 40 70 72
f 40 72 73
f 40 73 41
f 41 73 74
f 41 74 75
f 41 75 43
f 42 63 76
f 42 76 77
f 42 77 78
f 42 78 79
f 42 79 80
f 42 80 81
f 42 81 69
f 43 75 44
f 44 75 74
f 44 74 82
f 45 46 62
f 45 62 83
f 47 84 48
f 48 84 85
f 48 85 86
f 48 86 87
f 48 87 88
f 48 88 49
f 49 88 50
f 50 72 51
f 50 88 87
f 50 87 89
f 50 89 72
f 51 72 70
f 52 71 53
f 53 71 54
f 54 71 90
f 54 90 91
f 54 91 55
f 55 91 68
f 55 68 56
f 56 68 67
f 56 67 57
f 57 67 92
f 57 92 93
f 57 93 58
f 58 93 94
f 58 94 59
f 59 94 95
f 59 95 60
f 60 95 81
f 60 81 96
f 60 96 61
f 61 96 97
f 61 97 62
f 62 97 98
f 62 98 99
f 62 99 100
f 62 100 83
f 63 101 107
f 63 107 76
f 64 102 65
f 65 103 104
f 65 104 105
f 65 102 103
f 66 105 106
f 67 69 92
f 68 91 90
f 68 90 71
f 69 81 92
f 72 89 73
f 73 89 74
f 74 89 82
f 76 107 77
f 77 107 78
f 78 107 108
f 78 108 79
f 79 109 80
f 79 108 109
f 80 110 111
f 80 111 81
f 80 109 112
f 80 112 110
f 81 111 96
f 81 95 92
f 82 89 113
f 83 100 115
f 83 115 114
f 85 116 86
f 86 116 117
f 86 117 87
f 87 117 89
f 89 117 118
f 89 118 113
f 92 95 94
f 92 94 93
f 96 111 110
f 96 110 97
f 97 110 98
f 98 112 119
f 98 119 120
f 98 120 121
f 98 121 122
f 98 122 99
f 98 110 112
f 99 122 115
f 99 115 100
f 101 106 107
f 102 123 103
f 103 124 125
f 103 125 104
f 103 123 126
f 103 126 127
f 103 127 124
f 104 125 108
f 104 108 107
f 104 107 105
f 105 107 106
f 108 125 128
f 108 128 109
f 109 128 112
f 112 128 119
f 113 118 129
f 114 115 130
f 115 122 131
f 115 131 130
f 116 132 117
f 117 132 118
f 118 132 129
f 119 128 133
f 119 133 120
f 120 133 134
f 120 134 121
f 121 134 135
f 121 135 122
f 122 135 131
f 124 133 125
f 124 127 136
f 124 136 137
f 124 137 133
f 125 133 128
f 131 135 138
f 133 137 139
f 133 139 140
f 133 140 141
f 133 141 134
f 134 141 142
f 134 142 143
f 134 143 135
f 135 143 138
