v -0.00012153 0.40998375 1.00894833
v 0.01002327 0.40998375 1.00890446
v 0.01002327 0.42996338 1.00785208
v -0.00012153 0.42996338 1.00785208
v -0.00012153 0.38994849 1.00785208
v 0.01002327 0.38994849 1.00785208
v 0.03001711 0.40998375 1.00846601
v 0.03001711 0.42996338 1.00736976
v 0.03001711 0.44476724 1.00298464
v 0.01002327 0.44510114 1.00324774
v -0.00012153 0.44510114 1.00324774
v -0.00012153 0.37987518 1.00693119
v 0.01002327 0.36996889 1.00601029
v 0.03001711 0.38994849 1.00741351
v 0.05001095 0.40998375 1.00758898
v 0.05001095 0.42996338 1.00649273
v 0.07000479 0.44326457 1.00193226
v 0.05001095 0.44415504 1.00254619
v 0.05001095 0.45417267 0.99246055
v 0.03001711 0.45478487 0.99276751
v 0.01002327 0.45511878 0.99294293
v -0.00012153 0.45005432 0.99816108
v -0.00012153 0.36996889 1.00601029
v 0.01002327 0.34998924 1.00377393
v 0.03001711 0.36996889 1.00557184
v 0.05001095 0.36996889 1.00473869
v 0.05001095 0.38994849 1.00653648
v 0.07000479 0.38994849 1.00522101
v 0.07000479 0.40998375 1.00622964
v 0.07000479 0.42996338 1.00517714
v 0.09002821 0.44192889 1.00109911
v 0.12303579 0.46012759 0.98027015
v 0.09002821 0.45194653 0.99145198
v 0.07000479 0.45322657 0.99202204
v 0.11002205 0.46040589 0.98079634
v 0.09002821 0.46073979 0.98145413
v 0.07000479 0.46096241 0.98202413
v 0.05001095 0.46112937 0.98246264
v -0.00012153 0.45511878 0.99294293
v 0.03001711 0.46118501 0.98276961
v 0.01002327 0.46124068 0.98294502
v -0.00012153 0.34998924 1.00377393
v 0.01002327 0.33051050 1.00127447
v 0.03001711 0.33201316 1.00105524
v 0.03001711 0.34998924 1.00333548
v 0.05001095 0.34998924 1.00250232
v 0.07050759 0.34887618 1.00114298
v 0.07000479 0.36996889 1.00346696
v 0.09180281 0.36818796 1.00144994
v 0.09002821 0.38994849 1.00351083
v 0.09002821 0.40998375 1.00451946
v 0.09002821 0.42996338 1.00351083
v 0.10404755 0.44076017 1.00044131
v 0.15000974 0.44910821 0.98746163
v 0.13634530 0.45973802 0.97886693
v 0.22998509 0.46040589 0.96075672
v 0.20999125 0.46101806 0.96224761
v 0.18999740 0.46135199 0.96365082
v 0.11002205 0.46185288 0.96996528
v 0.09002821 0.46207547 0.96996528
v 0.07000479 0.46218678 0.96996528
v -0.00012153 0.46124068 0.98294502
v 0.03001711 0.46229810 0.96996528
v -0.00012153 0.33056617 1.00127447
v 0.01002327 0.32049286 0.99991512
v 0.05001095 0.33496279 1.00066054
v 0.03001711 0.32199553 0.99969590
v 0.06417818 0.33785677 1.00026596
v 0.07751727 0.34147426 0.99978358
v 0.08630154 0.35477546 1.00057292
v 0.09964063 0.36034083 0.99995899
v 0.10570385 0.37364203 1.00061679
v 0.11144173 0.38889107 1.00123060
v 0.11002205 0.40998375 1.00245845
v 0.12418928 0.42434239 1.00052905
v 0.11043613 0.43057558 1.00136220
v 0.11735707 0.43764359 0.99965203
v 0.20999125 0.44359851 0.98224342
v 0.18999740 0.44604725 0.98412895
v 0.16997400 0.44782817 0.98588300
v 0.18999740 0.45606491 0.97364873
v 0.16997400 0.45784581 0.97513962
v 0.24007075 0.45996064 0.96001124
v 0.28999621 0.46085110 0.94194484
v 0.26997277 0.46140763 0.94431281
v 0.22998509 0.46179721 0.94996947
v 0.20999125 0.46218678 0.94996947
v -0.00012153 0.46174157 0.97654283
v -0.00012153 0.46224245 0.96996528
v 0.26997277 0.46213114 0.92997372
v -0.00012153 0.32054853 0.99991512
v 0.01002327 0.30997437 0.99833649
v 0.03001711 0.30997437 0.99789798
v 0.05001095 0.32494515 0.99930120
v 0.05001095 0.30997437 0.99710870
v 0.07000479 0.30997437 0.99596858
v 0.07050759 0.33067748 0.99886274
v 0.09002821 0.32995397 0.99719644
v 0.09180281 0.34887618 0.99938893
v 0.11144173 0.36818796 0.99943280
v 0.11002205 0.34998924 0.99763489
v 0.11904293 0.38154483 0.99987125
v 0.12268087 0.39484602 1.00030982
v 0.12513573 0.40998375 1.00066054
v 0.15000974 0.42996338 0.99623168
v 0.13051869 0.43057558 0.99886274
v 0.13516223 0.40998375 0.99934506
v 0.15000974 0.40998375 0.99719644
v 0.16997400 0.42996338 0.99303061
v 0.22383314 0.44142801 0.98079634
v 0.26997277 0.44682640 0.96505404
v 0.24802688 0.45127869 0.96619415
v 0.26997277 0.45684403 0.95431066
v 0.30203390 0.46018326 0.94080472
v 0.30203390 0.46029457 0.94062936
v 0.30203390 0.46112937 0.93479723
v 0.30203390 0.46157458 0.93028069
v 0.28999621 0.46201983 0.92997372
v 0.30203390 0.46124068 0.91124958
v -0.00012153 0.46101806 0.95663476
v 0.30203390 0.46157458 0.91752017
v -0.00012153 0.30997437 0.99829268
v -0.00012153 0.29984540 0.99671406
v 0.01002327 0.28999475 0.99513543
v 0.03001711 0.28999475 0.99474078
v 0.05001095 0.28999475 0.99395144
v 0.07000479 0.28999475 0.99276751
v 0.09002821 0.28999475 0.99123275
v 0.09002821 0.30997437 0.99434614
v 0.11002205 0.32995397 0.99513543
v 0.11002205 0.30997437 0.99232900
v 0.13001589 0.34998924 0.99517930
v 0.13001589 0.36996889 0.99732792
v 0.13001589 0.32995397 0.99272364
v 0.12963140 0.38889107 0.99899429
v 0.15000974 0.38994849 0.99618787
v 0.16997400 0.40998375 0.99399531
v 0.18999740 0.42996338 0.98952258
v 0.23714265 0.43436003 0.97930545
v 0.30156067 0.44081584 0.96049356
v 0.28999621 0.44337589 0.96220374
v 0.20999125 0.42996338 0.98566377
v 0.28999621 0.45333788 0.95194274
v 0.30203390 0.45116737 0.95032030
v 0.30203390 0.45979369 0.90331262
v 0.30203390 0.45951542 0.90212870
v -0.00012153 0.45940411 0.95167965
v -0.00012153 0.28999475 0.99513543
v 0.01002327 0.26995945 0.99167126
v 0.03001711 0.26995945 0.99127662
v 0.05001095 0.26995945 0.99048728
v 0.07000479 0.26995945 0.98934716
v 0.11002205 0.28999475 0.98921561
v 0.09002821 0.26995945 0.98776853
v 0.11002205 0.26995945 0.98579526
v 0.13001589 0.30997437 0.98991722
v 0.15000974 0.34998924 0.99228513
v 0.15000974 0.36996889 0.99443382
v 0.15000974 0.32995397 0.98982954
v 0.15000974 0.30997437 0.98706698
v 0.16997400 0.38994849 0.99294293
v 0.18999740 0.40998375 0.99039960
v 0.23028086 0.42862770 0.98149794
v 0.24042566 0.42105883 0.98009473
v 0.24826348 0.42862770 0.97724444
v 0.26997277 0.42996338 0.97128081
v 0.30203390 0.44142801 0.95979202
v 0.28999621 0.42996338 0.96553642
v 0.30203390 0.42996338 0.96185297
v 0.30203390 0.43881229 0.96062517
v 0.30203390 0.44766122 0.95391601
v 0.30203390 0.45740059 0.89669120
v -0.00012153 0.45773450 0.94663686
v -0.00012153 0.26995945 0.99167126
v -0.00012153 0.25983053 0.98978567
v 0.01002327 0.24997985 0.98790014
v 0.03001711 0.24997985 0.98750544
v 0.05001095 0.24997985 0.98671615
v 0.07000479 0.24997985 0.98557603
v 0.09002821 0.24997985 0.98404127
v 0.13001589 0.28999475 0.98680383
v 0.11025866 0.24897808 0.98184872
v 0.13001589 0.25576782 0.98079634
v 0.13001589 0.26995945 0.98338354
v 0.15000974 0.28999475 0.98399740
v 0.16997400 0.34998924 0.98904026
v 0.16997400 0.36996889 0.99118888
v 0.16997400 0.32995397 0.98658460
v 0.16896838 0.29116347 0.98110330
v 0.16997400 0.30997437 0.98382199
v 0.18999740 0.38994849 0.98934716
v 0.20999125 0.40998375 0.98649693
v 0.24042566 0.41688481 0.98009473
v 0.26997277 0.40998375 0.97207010
v 0.30203390 0.42718071 0.96198452
v 0.28999621 0.40998375 0.96623802
v 0.30203390 0.45484051 0.89085913
v 0.30203390 0.44821775 0.87844944
v -0.00012153 0.44877428 0.92997372
v -0.00012153 0.24997985 0.98790014
v -0.00012153 0.23985091 0.98583913
v 0.01002327 0.22994457 0.98382199
v 0.03001711 0.22994457 0.98342741
v 0.05001095 0.22994457 0.98263806
v 0.06042194 0.21987128 0.98000705
v 0.06825977 0.22916542 0.98145413
v 0.09002821 0.23495339 0.98101556
v 0.07376103 0.22193046 0.97956854
v 0.10375179 0.23801434 0.98040169
v 0.14075223 0.25938529 0.98009473
v 0.11709088 0.24163181 0.97965622
v 0.13001589 0.24575017 0.97886693
v 0.14847174 0.27101690 0.98097175
v 0.16163337 0.27836317 0.98027015
v 0.19180159 0.32822871 0.98241878
v 0.18999740 0.34998924 0.98540062
v 0.18999740 0.36996889 0.98759317
v 0.18562007 0.30997437 0.98101556
v 0.17497246 0.28531983 0.97913003
v 0.18115398 0.29862103 0.98018241
v 0.20999125 0.38994849 0.98540062
v 0.22747108 0.38994849 0.98167336
v 0.23942006 0.40352798 0.97983164
v 0.23164138 0.41009510 0.98184872
v 0.24826348 0.41009510 0.97785836
v 0.24997893 0.38994849 0.97632360
v 0.26997277 0.38994849 0.97097385
v 0.30203390 0.40998375 0.96251070
v 0.28999621 0.38994849 0.96514177
v 0.30203390 0.44432199 0.87195957
v -0.00012153 0.44103843 0.91883570
v -0.00012153 0.22994457 0.98382199
v 0.01002327 0.21614249 0.98084021
v 0.03001711 0.21697730 0.98062092
v 0.05001095 0.21870255 0.98027015
v 0.05001095 0.20868492 0.97803378
v 0.07000479 0.18998533 0.97259629
v 0.06825977 0.21191283 0.97772682
v 0.09002821 0.22493576 0.97895461
v 0.09002821 0.20996496 0.97566581
v 0.11002205 0.20996496 0.97373641
v 0.11025866 0.23077938 0.97816533
v 0.15000974 0.22994457 0.97281557
v 0.14847174 0.25164944 0.97741985
v 0.15406173 0.26500630 0.97908616
v 0.13001589 0.22994457 0.97562200
v 0.16896838 0.27101690 0.97772682
v 0.20395762 0.33373842 0.98079634
v 0.19966899 0.32038158 0.97991931
v 0.21037576 0.35087973 0.98154181
v 0.20999125 0.36996889 0.98364663
v 0.19561699 0.30997437 0.97917390
v 0.18866646 0.29116347 0.97759527
v 0.18999740 0.26995945 0.97378027
v 0.22359653 0.36996889 0.98079634
v 0.23362303 0.36996889 0.97851610
v 0.23746800 0.38994849 0.97939312
v 0.24997893 0.36996889 0.97456956
v 0.26997277 0.36996889 0.96926367
v 0.30203390 0.38994849 0.96141446
v 0.29165250 0.36902276 0.96281767
v 0.30141279 0.37508899 0.96044976
v 0.30203390 0.37581250 0.96031821
v 0.30203390 0.43914622 0.86542588
v 0.30203390 0.43697575 0.86301410
v 0.30203390 0.42795986 0.85485792
v -0.00012153 0.43558440 0.91409981
v -0.00012153 0.21614249 0.98084021
v 0.01002327 0.20612486 0.97860384
v 0.03001711 0.20701532 0.97842842
v 0.05001095 0.18998533 0.97369260
v 0.07000479 0.17000571 0.96772891
v 0.09002821 0.18998533 0.97110540
v 0.11002205 0.18998533 0.96917599
v 0.13001589 0.20996496 0.97136849
v 0.16997400 0.22994457 0.96961451
v 0.16997400 0.24997985 0.97364873
v 0.15000974 0.20996496 0.96851826
v 0.21037576 0.32822871 0.97877920
v 0.21729669 0.34481347 0.97943699
v 0.20999125 0.30997437 0.97632360
v 0.22090505 0.35811466 0.98018241
v 0.20999125 0.28999475 0.97325408
v 0.20999125 0.26995945 0.96987760
v 0.18999740 0.24997985 0.97005296
v 0.22853583 0.35087973 0.97763908
v 0.24997893 0.34998924 0.97242093
v 0.26997277 0.34998924 0.96707118
v 0.28721598 0.34998924 0.96211606
v 0.29943115 0.36173216 0.95979202
v 0.30203390 0.36373568 0.95917809
v 0.30203390 0.41933358 0.84797341
v -0.00012153 0.41933358 0.90037465
v -0.00012153 0.42473197 0.90489125
v -0.00012153 0.42996338 0.90927631
v -0.00012153 0.20612486 0.97860384
v 0.01002327 0.18998533 0.97483265
v 0.03001711 0.18998533 0.97443801
v 0.05001095 0.17000571 0.96882516
v 0.05001095 0.15002610 0.96373856
v 0.07006394 0.14852345 0.96220374
v 0.09002821 0.15275311 0.96189678
v 0.09002821 0.17000571 0.96623802
v 0.11002205 0.17000571 0.96430856
v 0.12200060 0.15904197 0.96023047
v 0.12921731 0.16950484 0.96189678
v 0.13001589 0.18998533 0.96676421
v 0.15000974 0.18998533 0.96395779
v 0.18999740 0.22994457 0.96601874
v 0.16997400 0.20996496 0.96527326
v 0.18946503 0.21007626 0.96180910
v 0.16808109 0.19082013 0.96123904
v 0.22998509 0.32995397 0.97474498
v 0.22998509 0.30997437 0.97198242
v 0.22998509 0.28999475 0.96886903
v 0.20999125 0.24997985 0.96610641
v 0.22977805 0.25053638 0.96189678
v 0.22998509 0.26995945 0.96549255
v 0.24997893 0.32995397 0.96992147
v 0.26997277 0.32995397 0.96457171
v 0.28307524 0.32995397 0.96088827
v 0.29721290 0.34998924 0.95917809
v 0.30203390 0.34998924 0.95764333
v 0.30203390 0.41315603 0.84380758
v 0.30203390 0.40720111 0.84021187
v 0.30203390 0.40341663 0.83797550
v -0.00012153 0.40931594 0.89449871
v -0.00012153 0.18998533 0.97483265
v 0.01002327 0.17000571 0.96996528
v 0.03001711 0.17000571 0.96957064
v 0.03001711 0.15002610 0.96444011
v 0.05001095 0.13794927 0.96053743
v 0.06340919 0.13922930 0.96018666
v 0.07674827 0.14084326 0.95974815
v 0.11002205 0.15642625 0.96093214
v 0.09002821 0.14279114 0.95926577
v 0.11002205 0.14646426 0.95830107
v 0.13001589 0.13004647 0.95146042
v 0.12921731 0.15141743 0.95729250
v 0.13533969 0.16249248 0.95935345
v 0.15000974 0.17679544 0.96075672
v 0.16012496 0.17985639 0.96001124
v 0.20327735 0.21686599 0.96066898
v 0.20996168 0.23000023 0.96207219
v 0.18242578 0.19805509 0.96044976
v 0.19576487 0.20350914 0.95917809
v 0.17346404 0.18469825 0.95887113
v 0.24997893 0.30997437 0.96715885
v 0.25187182 0.28815818 0.96325618
v 0.24622270 0.26995945 0.96158987
v 0.22297542 0.23667865 0.96066898
v 0.24181578 0.25760439 0.96044976
v 0.23631451 0.24430318 0.95913422
v 0.27026856 0.31125438 0.96194065
v 0.28056121 0.31882328 0.96014279
v 0.29307216 0.32995397 0.95795023
v 0.30203390 0.32995397 0.95518768
v 0.30203390 -0.10625845 0.56097233
v -0.00012153 0.39028242 0.88450080
v -0.00012153 0.17000571 0.96992147
v -0.00012153 0.15002610 0.96483481
v 0.01002327 0.15002610 0.96483481
v 0.01002327 0.13594575 0.96110749
v 0.03001711 0.13666925 0.96088827
v 0.03001711 0.12665161 0.95812565
v 0.05001095 0.12798730 0.95777488
v 0.07006394 0.13154912 0.95764333
v 0.09002821 0.13004647 0.95575774
v 0.11002205 0.13004647 0.95387220
v 0.15000974 0.13004647 0.94861013
v 0.15000974 0.15002610 0.95400375
v 0.13001589 0.11001120 0.94567215
v 0.15000974 0.16677780 0.95830107
v 0.16808109 0.17195359 0.95667863
v 0.20996168 0.21007626 0.95777488
v 0.21661642 0.22337745 0.95926577
v 0.18946503 0.19082013 0.95742404
v 0.20999125 0.18998533 0.95312673
v 0.18999740 0.17000571 0.95224971
v 0.26379126 0.29355657 0.96101981
v 0.25979841 0.28025538 0.95992351
v 0.25624919 0.26995945 0.95900267
v 0.22977805 0.23000023 0.95768714
v 0.24909163 0.25053638 0.95716095
v 0.24997893 0.22994457 0.95268822
v 0.27713034 0.30546641 0.95917809
v 0.28833991 0.31125438 0.95681018
v 0.30203390 0.31047523 0.95246899
v 0.30203390 -0.10625845 0.80250049
v -0.00012153 -0.10625845 0.63236082
v -0.00012153 0.14290243 0.96294922
v -0.00012153 0.13594575 0.96110749
v -0.00012153 0.13088128 0.95970428
v 0.01002327 0.12598376 0.95834494
v 0.03001711 0.11001120 0.95334595
v 0.05001095 0.11001120 0.95264435
v 0.07000479 0.11001120 0.95150423
v 0.09002821 0.11001120 0.95005721
v 0.11002205 0.11001120 0.94808394
v 0.14983226 0.10917640 0.94260263
v 0.16997400 0.11585481 0.94124329
v 0.16997400 0.13004647 0.94527751
v 0.16997400 0.15002610 0.95071495
v 0.13001589 0.09587520 0.94133097
v 0.14305921 0.09860222 0.94045395
v 0.22998509 0.20996496 0.95325828
v 0.22998509 0.18998533 0.94861013
v 0.20999125 0.17000571 0.94821548
v 0.18999740 0.15002610 0.94707537
v 0.27026856 0.28815818 0.95834494
v 0.26997277 0.26995945 0.95527542
v 0.26997277 0.24997985 0.95146042
v 0.24997893 0.20996496 0.94825935
v 0.26997277 0.22994457 0.94725078
v 0.28999621 0.28999475 0.95299518
v 0.30203390 0.30201590 0.95115346
v 0.30017057 -0.10625845 0.80320209
v 0.30203390 -0.10214010 0.80521923
v -0.00012153 -0.10625845 0.85582262
v -0.00012153 0.12598376 0.95834494
v -0.00012153 0.11791401 0.95602083
v 0.01002327 0.11001120 0.95374060
v 0.03001711 0.09003158 0.94720691
v 0.05001095 0.09003158 0.94650531
v 0.07000479 0.09003158 0.94532132
v 0.09153662 0.08813936 0.94308496
v 0.09922656 0.08023655 0.93992776
v 0.11002205 0.09209076 0.94255877
v 0.15633914 0.10188578 0.93940151
v 0.18121314 0.11924969 0.94019085
v 0.16997400 0.10583718 0.93821758
v 0.18872562 0.13021344 0.94190103
v 0.13001589 0.08585756 0.93808603
v 0.14983226 0.09114465 0.93694592
v 0.23090197 0.16905960 0.94317269
v 0.24474385 0.17501453 0.94124329
v 0.25083667 0.18920618 0.94317269
v 0.21031660 0.14941390 0.94277799
v 0.22486833 0.15564710 0.94115555
v 0.20386888 0.13700317 0.94084859
v 0.28999621 0.26995945 0.94953096
v 0.28999621 0.24997985 0.94567215
v 0.26390955 0.19538373 0.94111168
v 0.27032769 0.21002060 0.94269031
v 0.28248370 0.21675467 0.94071704
v 0.28946382 0.23139156 0.94190103
v 0.30203390 0.28198063 0.94790852
v 0.30203390 0.28999475 0.94926786
v 0.28890187 -0.10625845 0.80719250
v 0.30203390 -0.08984065 0.81333154
v 0.28999621 -0.09312421 0.81556791
v 0.00694729 -0.10625845 0.85586649
v -0.00012153 -0.10097137 0.85933065
v -0.00012153 0.11001120 0.95374060
v -0.00012153 0.09988225 0.95067108
v 0.01002327 0.09003158 0.94760156
v 0.01002327 0.07355813 0.94220793
v 0.03001711 0.07411467 0.94198871
v 0.05001095 0.07522774 0.94163787
v 0.07000479 0.07689735 0.94106787
v 0.08591705 0.07862260 0.94045395
v 0.09153662 0.07116503 0.93738443
v 0.09002821 0.05001669 0.92984211
v 0.11002205 0.05001669 0.92782503
v 0.11002205 0.07005196 0.93510419
v 0.11002205 0.08207312 0.93931383
v 0.16997400 0.09003158 0.93317479
v 0.18872562 0.11156949 0.93646359
v 0.19455221 0.12364632 0.93896306
v 0.18999740 0.09003158 0.92944747
v 0.13001589 0.07005196 0.93264854
v 0.15000974 0.07005196 0.92975444
v 0.23820741 0.16171333 0.93953311
v 0.25808296 0.18202688 0.93944538
v 0.25083667 0.16905960 0.93808603
v 0.21720797 0.14234591 0.93935770
v 0.23090197 0.14941390 0.93799829
v 0.21031660 0.13021344 0.93747211
v 0.30203390 0.24997985 0.94198871
v 0.30203390 0.26995945 0.94575983
v 0.30064380 0.23896044 0.94019085
v 0.27721906 0.20345348 0.93918228
v 0.27032769 0.18920618 0.93769139
v 0.28946382 0.21002060 0.93703359
v 0.29579324 0.22565925 0.93869996
v 0.26668978 -0.10625845 0.81477863
v 0.27458674 -0.09718692 0.81819898
v 0.30203390 -0.08182654 0.81859362
v 0.30046636 -0.08026823 0.82017225
v 0.28999621 -0.08310658 0.82197011
v 0.00984581 -0.10625845 0.85582262
v 0.01434146 -0.09991395 0.85994458
v -0.00012153 -0.09958002 0.86025155
v -0.00012153 0.09003158 0.94760156
v -0.00012153 0.08168355 0.94488287
v -0.00012153 0.07355813 0.94220793
v 0.01002327 0.06354050 0.93874377
v 0.03001711 0.06415268 0.93856835
v 0.05001095 0.06521010 0.93817371
v 0.07000479 0.06693536 0.93755984
v 0.07000479 0.05001669 0.93142074
v 0.09002821 0.03243017 0.92304534
v 0.11002205 0.03499024 0.92199290
v 0.13001589 0.03810683 0.92076510
v 0.13001589 0.05001669 0.92532557
v 0.16997400 0.07005196 0.92637795
v 0.20999125 0.11001120 0.93159616
v 0.21176586 0.08819501 0.92427313
v 0.18905096 0.06960673 0.92265069
v 0.20626459 0.07606254 0.92137903
v 0.14829428 0.04957145 0.92251909
v 0.16997400 0.05630554 0.92142284
v 0.24997893 0.15002610 0.93330634
v 0.26997277 0.17000571 0.93291169
v 0.22998509 0.13004647 0.93286783
v 0.30203390 0.24324577 0.94062936
v 0.30203390 0.23762476 0.93944538
v 0.30203390 0.24007352 0.93997157
v 0.28999621 0.18998533 0.93199080
v 0.30203390 0.21002060 0.93304324
v 0.30203390 0.22849758 0.93734056
v 0.25621963 -0.10625845 0.81815511
v 0.26127723 -0.10058179 0.82039148
v 0.26876014 -0.09028590 0.82451344
v 0.30203390 -0.07976738 0.81986529
v 0.30203390 -0.07815340 0.82082999
v 0.30203390 -0.06974973 0.82574123
v 0.28999621 -0.05628157 0.83788782
v 0.28999621 -0.06997234 0.82986319
v 0.27148119 -0.06997234 0.83608991
v 0.25332111 -0.07659513 0.83797550
v 0.03001711 -0.10625845 0.85542798
v 0.03001711 -0.09958002 0.85972530
v 0.03001711 -0.08961803 0.86582053
v 0.01002327 -0.07308894 0.87599385
v 0.00860359 -0.09189984 0.86481196
v -0.00012153 -0.07308894 0.87599385
v -0.00012153 0.06354050 0.93874377
v -0.00012153 0.05669511 0.93624431
v 0.01002327 0.05001669 0.93378866
v 0.03001711 0.05001669 0.93339401
v 0.05001095 0.05001669 0.93260473
v 0.05001095 0.03003706 0.92484319
v 0.06902876 0.02853441 0.92313302
v 0.07503282 0.02090989 0.91962498
v 0.09002821 0.02246818 0.91896725
v 0.11002205 0.02502824 0.91795868
v 0.14045645 0.03983209 0.92006350
v 0.13001589 0.02808920 0.91668701
v 0.18174551 0.05914386 0.92032659
v 0.22998509 0.11001120 0.92694801
v 0.22998509 0.09409428 0.92194909
v 0.21960367 0.08029221 0.91988808
v 0.19508460 0.06270569 0.91901112
v 0.21176586 0.06960673 0.91787100
v 0.15376598 0.04261476 0.91896725
v 0.16997400 0.04628789 0.91756403
v 0.24997893 0.13004647 0.92769349
v 0.26935166 0.13076997 0.92234373
v 0.26997277 0.15002610 0.92756194
v 0.28999621 0.17000571 0.92686033
v 0.24906206 0.11067904 0.92221218
v 0.30203390 0.20200649 0.93106997
v 0.30203390 0.17000571 0.92300147
v 0.30203390 0.18903922 0.92786884
v 0.24997893 -0.10625845 0.82008451
v 0.24997893 -0.10319752 0.82214546
v 0.24799730 -0.08794844 0.83249420
v 0.30203390 -0.05205190 0.83595836
v 0.27917111 -0.05950947 0.83968568
v 0.30203390 -0.04353692 0.84086961
v 0.30203390 -0.04259080 0.84139585
v 0.28999621 -0.04626393 0.84345680
v 0.26583204 -0.06329392 0.84187818
v 0.24799730 -0.06997234 0.84345680
v 0.23998201 -0.07998997 0.83999264
v 0.05001095 -0.10625845 0.85459483
v 0.05001095 -0.09891218 0.85933065
v 0.05001095 -0.08895019 0.86538202
v 0.03001711 -0.07275501 0.87581843
v 0.01002327 -0.06307131 0.88173825
v -0.00012153 -0.06813578 0.87884408
v -0.00012153 0.05001669 0.93378866
v -0.00012153 0.03988774 0.92988598
v 0.01002327 0.03003706 0.92607099
v 0.03001711 0.03003706 0.92563248
v 0.05001095 0.01901767 0.92041433
v 0.06169374 0.01974116 0.92010736
v 0.06902876 0.01183836 0.91616082
v 0.09002821 0.01000179 0.91366136
v 0.11002205 0.01000179 0.91155648
v 0.13001589 0.01000179 0.90901321
v 0.14829428 0.03192928 0.91554689
v 0.15000974 0.01000179 0.90598750
v 0.18905096 0.05146368 0.91594160
v 0.24178618 0.09854657 0.92045814
v 0.22998509 0.08407665 0.91861641
v 0.22998509 0.07005196 0.91366136
v 0.20999125 0.05001669 0.91094261
v 0.16997400 0.03003706 0.91103029
v 0.18999740 0.03003706 0.90721536
v 0.26228285 0.11774704 0.92067742
v 0.28192174 0.13794927 0.92058969
v 0.27562192 0.12459242 0.91866028
v 0.28913847 0.15119481 0.92203677
v 0.30111703 0.15865240 0.92037046
v 0.25512528 0.10444584 0.91861641
v 0.30203390 0.16098984 0.92067742
v 0.24574947 -0.10625845 0.82131231
v 0.22998509 -0.09212247 0.83499366
v 0.22998509 -0.10625845 0.82582891
v 0.23581171 -0.10625845 0.82416260
v 0.27148119 -0.05166233 0.84652632
v 0.30203390 -0.02973484 0.84810495
v 0.28842863 -0.02823219 0.85358626
v 0.26997277 -0.03374189 0.85674345
v 0.25627875 -0.03791590 0.85889214
v 0.24977189 -0.04893531 0.85481405
v 0.22998509 -0.05477893 0.85713816
v 0.22998509 -0.06997234 0.84845573
v 0.22998509 -0.08210480 0.84130812
v 0.05622205 -0.10625845 0.85420012
v 0.07000479 -0.09791040 0.85871673
v 0.07000479 -0.08794844 0.86476809
v 0.05001095 -0.07203153 0.87537992
v 0.03001711 -0.06273739 0.88156283
v 0.01002327 -0.04999273 0.88884199
v -0.00012153 -0.05661549 0.88524628
v -0.00012153 -0.06307131 0.88173825
v -0.00012153 0.03003706 0.92602718
v -0.00012153 0.02374822 0.92348385
v -0.00012153 0.01762633 0.92098439
v 0.01002327 0.01762633 0.92098439
v 0.03001711 0.01807155 0.92080897
v 0.05001095 0.00900003 0.91611695
v 0.07000479 -0.00997783 0.90638214
v 0.09029440 -0.01164743 0.90392655
v 0.11002205 -0.00780734 0.90361959
v 0.13001589 -0.00502467 0.90230405
v 0.15000974 -0.00174111 0.90081316
v 0.16000664 0.00003980 0.89998001
v 0.16799235 0.00972353 0.90274256
v 0.24906206 0.09114465 0.91598541
v 0.24997893 0.07005196 0.90835541
v 0.23181885 0.04812446 0.90497893
v 0.24997893 0.05391243 0.90234792
v 0.20892650 0.02970314 0.90304953
v 0.22634716 0.03615895 0.90160245
v 0.18999740 0.01651326 0.90151477
v 0.20153232 0.01918462 0.90033078
v 0.26935166 0.11067904 0.91629237
v 0.28913847 0.13076997 0.91620469
v 0.29526085 0.14529555 0.91848487
v 0.28999621 0.11001120 0.90967095
v 0.30203390 0.14824519 0.91708165
v 0.30203390 0.15776193 0.91980040
v 0.30203390 0.15932024 0.92023891
v 0.26997277 0.09003158 0.90945172
v 0.20999125 -0.09618515 0.83758086
v 0.21093771 -0.10625845 0.83069634
v 0.30203390 -0.01276051 0.85674345
v 0.29404819 -0.01593275 0.85801512
v 0.28073871 -0.02044070 0.86020768
v 0.26997277 -0.02377991 0.86191785
v 0.24977189 -0.03073660 0.86446118
v 0.24293968 -0.04158904 0.86082155
v 0.21572913 -0.05811813 0.85897982
v 0.22998509 -0.04476129 0.86257559
v 0.20942929 -0.06858100 0.85441941
v 0.20999125 -0.08616751 0.84380758
v 0.07000479 -0.10625845 0.85332316
v 0.09002821 -0.10625845 0.85161299
v 0.09002821 -0.09651908 0.85783976
v 0.09002821 -0.08655709 0.86393493
v 0.07000479 -0.07097411 0.87476599
v 0.07000479 -0.06095646 0.88055426
v 0.05001095 -0.06201389 0.88112432
v 0.03001711 -0.04999273 0.88844734
v -0.00012153 -0.04999273 0.88884199
v 0.01002327 -0.03418712 0.89708591
v -0.00012153 0.01256186 0.91883570
v 0.01002327 0.00760868 0.91668701
v 0.03001711 0.00810957 0.91651160
v 0.05001095 -0.00997783 0.90761000
v 0.07000479 -0.02177638 0.90085703
v 0.08381710 -0.02066331 0.90033078
v 0.09715619 -0.01938328 0.89971691
v 0.11002205 -0.01782498 0.89897144
v 0.13001589 -0.01504230 0.89765596
v 0.15000974 -0.01175874 0.89612114
v 0.16799235 -0.00797430 0.89471793
v 0.17334574 0.00282249 0.89875221
v 0.26926294 0.07038588 0.90283030
v 0.26210538 0.05836471 0.90063775
v 0.23968625 0.04022166 0.89989233
v 0.24997893 0.04389480 0.89844525
v 0.21487141 0.02285776 0.89879602
v 0.23181885 0.02970314 0.89748055
v 0.18999740 0.00649562 0.89708591
v 0.20892650 0.01156010 0.89524418
v 0.30203390 0.13032474 0.91181964
v 0.30203390 0.11023381 0.90572441
v 0.28987789 0.09003158 0.90322495
v 0.30203390 0.09431690 0.90072548
v 0.30203390 0.09609781 0.90129554
v 0.28313440 0.07723127 0.90098858
v 0.19629724 -0.09874523 0.83920330
v 0.19132836 -0.10625845 0.83525676
v 0.30203390 -0.00474639 0.86073387
v 0.30203390 -0.00329940 0.86143547
v 0.28842863 -0.00953260 0.86297023
v 0.26997277 -0.00997783 0.86871463
v 0.24971274 -0.00903171 0.87529218
v 0.22998509 -0.02995744 0.87029326
v 0.22998509 -0.01526491 0.87770396
v 0.20942929 -0.05088317 0.86437345
v 0.20239004 -0.06095646 0.86055845
v 0.21034618 -0.02906699 0.87564301
v 0.18999740 -0.07331157 0.85608572
v 0.11046570 -0.10625845 0.84928894
v 0.11002205 -0.09473816 0.85674345
v 0.11002205 -0.08477619 0.86283869
v 0.11002205 -0.06997234 0.87152106
v 0.08887471 -0.06813578 0.87485373
v 0.08145097 -0.06023297 0.88011575
v 0.07000479 -0.04999273 0.88643020
v 0.05001095 -0.04999273 0.88761419
v 0.05001095 -0.03296274 0.89647198
v 0.03001711 -0.03379755 0.89686662
v -0.00012153 -0.03413147 0.89708591
v 0.03001711 -0.02377991 0.90186560
v 0.01002327 -0.02416947 0.90204096
v -0.00012153 -0.02923395 0.89954150
v -0.00012153 0.00760868 0.91668701
v -0.00012153 -0.00129588 0.91269660
v 0.01002327 -0.00997783 0.90879393
v 0.03001711 -0.00997783 0.90839928
v 0.05001095 -0.02300076 0.90147090
v 0.07000479 -0.03173836 0.89585805
v 0.09029440 -0.02839915 0.89585805
v 0.11002205 -0.02995744 0.89296395
v 0.13001589 -0.02995744 0.89033294
v 0.15000974 -0.02995744 0.88726336
v 0.16861346 -0.03068094 0.88357997
v 0.18999740 -0.00997783 0.88949978
v 0.18999740 -0.02472602 0.88239598
v 0.27544445 0.06393007 0.89857680
v 0.26926294 0.05101845 0.89550728
v 0.28999621 0.05001669 0.88862276
v 0.24971274 0.00944525 0.88388687
v 0.24997893 0.03003706 0.89270085
v 0.27171779 0.02825615 0.88550937
v 0.22998509 0.01000179 0.88945591
v 0.21034618 -0.01114656 0.88450080
v 0.22998509 -0.00524728 0.88248366
v 0.29647350 0.08329750 0.89883989
v 0.30203390 0.08608018 0.89787519
v 0.28987789 0.07038588 0.89634043
v 0.18979037 -0.09123200 0.84521079
v 0.18298773 -0.10097137 0.84060651
v 0.18769044 -0.10625845 0.83604610
v 0.30203390 0.00972353 0.86739916
v 0.28999621 0.01000179 0.87169647
v 0.27171779 0.00944525 0.87730932
v 0.25619003 0.00243291 0.87888795
v 0.24285096 -0.00168546 0.88077354
v 0.21723753 -0.01865979 0.87932646
v 0.18999740 -0.04999273 0.86919701
v 0.18999740 -0.03474365 0.87730932
v 0.18999740 -0.06329392 0.86187398
v 0.20389846 -0.02177638 0.88090509
v 0.16997400 -0.06680009 0.86389112
v 0.16997400 -0.07676208 0.85810286
v 0.13001589 -0.10625845 0.84665787
v 0.13001589 -0.09256768 0.85538411
v 0.13001589 -0.08255005 0.86152315
v 0.13001589 -0.06997234 0.86884618
v 0.11002205 -0.05750595 0.87862486
v 0.09479006 -0.05906425 0.87945801
v 0.08887471 -0.05143972 0.88410616
v -0.00012153 -0.02416947 0.90204096
v -0.00012153 -0.00997783 0.90875006
v -0.00012153 -0.01715714 0.90537357
v 0.11002205 -0.04748832 0.88397461
v 0.13001589 -0.04503956 0.88265908
v 0.15000974 -0.04208992 0.88112432
v 0.16101226 -0.04036467 0.88015962
v 0.17435135 -0.03786024 0.87888795
v 0.28999621 0.03437804 0.88230830
v 0.30203390 0.05057321 0.88476390
v 0.30203390 0.06203785 0.88910508
v 0.30203390 0.07016326 0.89217460
v 0.30138320 0.03883033 0.88046658
v 0.26618695 0.01573411 0.88186979
v 0.27952605 0.02035335 0.87985265
v 0.16997400 -0.08995196 0.85003436
v 0.16997400 -0.10291925 0.84192204
v 0.16997400 -0.10625845 0.83972949
v 0.17724986 -0.10625845 0.83823860
v 0.28999621 0.02441606 0.87814248
v 0.30203390 0.02881269 0.87586224
v 0.16861346 -0.04821181 0.87445903
v 0.15000974 -0.05210756 0.87573069
v 0.14992100 -0.07136369 0.86489964
v 0.15648702 -0.07893255 0.85937452
v 0.13202710 -0.10625845 0.84635091
v 0.14992100 -0.08850497 0.85468251
v 0.14320709 -0.08088043 0.86051464
v 0.14628306 -0.10625845 0.84407073
v 0.14927031 -0.10625845 0.84358835
v 0.13001589 -0.05500154 0.87730932
v 0.30203390 0.03988774 0.88064194
v 0.30203390 0.03821814 0.87998420
v 0.15000974 -0.10625845 0.84345680
v 0.16485722 -0.10625845 0.84069425
f 1 2 3
f 1 3 4
f 1 4 11
f 1 11 22
f 1 22 39
f 1 39 62
f 1 62 88
f 1 88 89
f 1 89 120
f 1 120 147
f 1 147 173
f 1 173 199
f 1 199 231
f 1 231 267
f 1 267 295
f 1 295 294
f 1 294 293
f 1 293 327
f 1 327 359
f 1 359 390
f 1 390 419
f 1 419 453
f 1 453 493
f 1 493 537
f 1 537 582
f 1 582 629
f 1 629 628
f 1 628 679
f 1 679 730
f 1 730 733
f 1 733 781
f 1 781 783
f 1 783 782
f 1 782 735
f 1 735 734
f 1 734 681
f 1 681 632
f 1 632 631
f 1 631 630
f 1 630 584
f 1 584 583
f 1 583 539
f 1 539 538
f 1 538 496
f 1 496 495
f 1 495 494
f 1 494 455
f 1 455 454
f 1 454 421
f 1 421 420
f 1 420 393
f 1 393 392
f 1 392 391
f 1 391 361
f 1 361 360
f 1 360 328
f 1 328 296
f 1 296 268
f 1 268 232
f 1 232 201
f 1 201 200
f 1 200 175
f 1 175 174
f 1 174 148
f 1 148 123
f 1 123 122
f 1 122 91
f 1 91 64
f 1 64 42
f 1 42 23
f 1 23 12
f 1 12 5
f 1 5 6
f 1 6 2
f 2 6 14
f 2 14 7
f 2 7 3
f 3 7 8
f 3 8 9
f 3 9 10
f 3 10 11
f 3 11 4
f 5 12 6
f 6 12 13
f 6 13 25
f 6 25 14
f 7 14 27
f 7 27 15
f 7 15 16
f 7 16 8
f 8 16 17
f 8 17 18
f 8 18 9
f 9 18 19
f 9 19 20
f 9 20 10
f 10 20 21
f 10 21 22
f 10 22 11
f 12 23 13
f 13 23 42
f 13 42 24
f 13 24 45
f 13 45 25
f 14 25 26
f 14 26 27
f 15 27 28
f 15 28 29
f 15 29 30
f 15 30 16
f 16 31 17
f 16 30 31
f 17 31 32
f 17 32 33
f 17 33 34
f 17 34 18
f 18 34 19
f 19 34 32
f 19 32 35
f 19 35 20
f 20 35 36
f 20 36 37
f 20 37 38
f 20 38 21
f 21 39 22
f 21 38 40
f 21 40 41
f 21 41 62
f 21 62 39
f 24 42 43
f 24 43 44
f 24 44 45
f 25 45 46
f 25 46 26
f 26 46 47
f 26 47 48
f 26 48 27
f 27 48 28
f 28 48 49
f 28 49 50
f 28 50 51
f 28 51 29
f 29 51 52
f 29 52 30
f 30 52 53
f 30 53 31
f 31 53 54
f 31 54 32
f 32 54 55
f 32 55 56
f 32 56 57
f 32 57 58
f 32 58 35
f 32 34 33
f 35 58 36
f 36 58 59
f 36 59 37
f 37 59 60
f 37 60 38
f 38 60 61
f 38 61 40
f 40 61 41
f 41 61 63
f 41 63 62
f 42 64 43
f 43 64 91
f 43 91 65
f 43 65 67
f 43 67 44
f 44 66 45
f 44 67 94
f 44 94 66
f 45 66 46
f 46 66 68
f 46 68 47
f 47 68 69
f 47 69 70
f 47 70 48
f 48 70 49
f 49 70 71
f 49 71 72
f 49 72 50
f 50 72 73
f 50 73 74
f 50 74 51
f 51 74 75
f 51 75 52
f 52 75 76
f 52 76 77
f 52 77 53
f 53 77 78
f 53 78 79
f 53 79 80
f 53 80 54
f 54 80 55
f 55 80 81
f 55 81 82
f 55 82 83
f 55 83 56
f 56 83 84
f 56 84 85
f 56 85 57
f 57 85 86
f 57 86 58
f 58 86 87
f 58 87 59
f 59 87 60
f 60 87 61
f 61 87 63
f 62 63 88
f 63 89 88
f 63 87 90
f 63 90 89
f 65 91 92
f 65 92 93
f 65 93 67
f 66 94 68
f 67 93 95
f 67 95 94
f 68 94 96
f 68 96 97
f 68 97 69
f 69 97 98
f 69 98 99
f 69 99 70
f 70 99 71
f 71 100 72
f 71 99 101
f 71 101 100
f 72 102 73
f 72 100 102
f 73 102 103
f 73 103 74
f 74 103 104
f 74 104 75
f 75 105 106
f 75 106 77
f 75 77 76
f 75 104 107
f 75 107 108
f 75 108 105
f 77 106 105
f 77 105 109
f 77 109 110
f 77 110 78
f 78 110 111
f 78 111 112
f 78 112 83
f 78 83 79
f 79 83 81
f 79 81 80
f 81 83 82
f 83 112 111
f 83 111 113
f 83 113 114
f 83 114 115
f 83 115 84
f 84 115 116
f 84 116 85
f 85 117 118
f 85 118 86
f 85 116 117
f 86 118 87
f 87 118 90
f 89 90 119
f 89 119 120
f 90 118 121
f 90 121 119
f 91 122 92
f 92 122 123
f 92 123 124
f 92 124 125
f 92 125 93
f 93 125 126
f 93 126 95
f 94 95 96
f 95 126 96
f 96 126 127
f 96 127 128
f 96 128 129
f 96 129 98
f 96 98 97
f 98 130 99
f 98 129 131
f 98 131 130
f 99 130 101
f 100 101 132
f 100 132 133
f 100 133 102
f 101 130 134
f 101 134 132
f 102 135 103
f 102 133 135
f 103 135 136
f 103 136 107
f 103 107 104
f 105 108 137
f 105 137 109
f 107 136 108
f 108 136 137
f 109 138 110
f 109 137 138
f 110 139 140
f 110 140 141
f 110 141 111
f 110 138 142
f 110 142 139
f 111 143 113
f 111 141 143
f 113 143 114
f 114 143 144
f 114 144 171
f 114 171 167
f 114 167 170
f 114 170 169
f 114 169 195
f 114 195 228
f 114 228 260
f 114 260 263
f 114 263 291
f 114 291 323
f 114 323 357
f 114 357 388
f 114 388 416
f 114 416 448
f 114 448 447
f 114 447 480
f 114 480 479
f 114 479 516
f 114 516 518
f 114 518 517
f 114 517 521
f 114 521 520
f 114 520 563
f 114 563 565
f 114 565 564
f 114 564 608
f 114 608 657
f 114 657 656
f 114 656 655
f 114 655 701
f 114 701 702
f 114 702 705
f 114 705 704
f 114 704 757
f 114 757 792
f 114 792 791
f 114 791 790
f 114 790 812
f 114 812 813
f 114 813 801
f 114 801 762
f 114 762 710
f 114 710 709
f 114 709 661
f 114 661 614
f 114 614 572
f 114 572 571
f 114 571 569
f 114 569 527
f 114 527 526
f 114 526 525
f 114 525 488
f 114 488 450
f 114 450 418
f 114 418 389
f 114 389 358
f 114 358 326
f 114 326 325
f 114 325 324
f 114 324 292
f 114 292 266
f 114 266 265
f 114 265 264
f 114 264 230
f 114 230 198
f 114 198 197
f 114 197 172
f 114 172 146
f 114 146 145
f 114 145 119
f 114 119 121
f 114 121 117
f 114 117 116
f 114 116 115
f 117 121 118
f 119 145 120
f 120 145 146
f 120 146 147
f 123 148 124
f 124 148 174
f 124 174 149
f 124 149 150
f 124 150 125
f 125 150 151
f 125 151 126
f 126 151 152
f 126 152 127
f 127 152 128
f 128 153 131
f 128 131 129
f 128 152 154
f 128 154 155
f 128 155 153
f 130 131 156
f 130 156 134
f 131 153 181
f 131 181 156
f 132 157 158
f 132 158 133
f 132 134 159
f 132 159 157
f 133 158 136
f 133 136 135
f 134 156 160
f 134 160 159
f 136 161 137
f 136 158 187
f 136 187 161
f 137 162 138
f 137 161 191
f 137 191 162
f 138 162 142
f 139 142 163
f 139 163 164
f 139 164 165
f 139 165 166
f 139 166 140
f 140 167 141
f 140 166 168
f 140 168 169
f 140 169 170
f 140 170 167
f 141 167 171
f 141 171 144
f 141 144 143
f 142 162 164
f 142 164 163
f 146 172 173
f 146 173 147
f 149 174 175
f 149 175 176
f 149 176 177
f 149 177 150
f 150 177 178
f 150 178 151
f 151 178 179
f 151 179 152
f 152 179 180
f 152 180 154
f 153 155 184
f 153 184 181
f 154 180 155
f 155 180 182
f 155 182 183
f 155 183 184
f 156 181 185
f 156 185 160
f 157 159 188
f 157 188 186
f 157 186 187
f 157 187 158
f 159 160 190
f 159 190 188
f 160 185 189
f 160 189 190
f 161 187 217
f 161 217 191
f 162 192 164
f 162 191 192
f 164 193 194
f 164 194 166
f 164 166 165
f 164 192 193
f 166 194 168
f 168 195 169
f 168 194 196
f 168 196 195
f 172 197 173
f 173 197 198
f 173 198 199
f 175 200 176
f 176 200 201
f 176 201 202
f 176 202 203
f 176 203 177
f 177 203 204
f 177 204 178
f 178 204 205
f 178 205 206
f 178 206 179
f 179 207 180
f 179 206 208
f 179 208 207
f 180 207 209
f 180 209 182
f 181 184 210
f 181 210 185
f 182 209 211
f 182 211 183
f 183 210 184
f 183 211 212
f 183 212 210
f 185 210 213
f 185 213 214
f 185 214 189
f 186 188 215
f 186 215 216
f 186 216 217
f 186 217 187
f 188 190 218
f 188 218 215
f 189 214 219
f 189 219 220
f 189 220 190
f 190 220 218
f 191 217 251
f 191 251 221
f 191 221 192
f 192 221 222
f 192 222 223
f 192 223 224
f 192 224 193
f 193 224 223
f 193 223 225
f 193 225 194
f 194 226 227
f 194 227 229
f 194 229 196
f 194 225 226
f 195 196 228
f 196 229 260
f 196 260 228
f 198 230 199
f 199 230 231
f 201 232 202
f 202 232 268
f 202 268 233
f 202 233 203
f 203 233 234
f 203 234 235
f 203 235 204
f 204 235 205
f 205 235 236
f 205 236 237
f 205 237 238
f 205 238 208
f 205 208 206
f 207 208 239
f 207 239 209
f 208 238 240
f 208 240 239
f 209 239 241
f 209 241 242
f 209 242 211
f 210 212 243
f 210 243 244
f 210 244 245
f 210 245 213
f 211 242 246
f 211 246 212
f 212 246 243
f 213 245 214
f 214 245 247
f 214 247 219
f 215 248 216
f 215 218 249
f 215 249 248
f 216 248 250
f 216 250 217
f 217 250 251
f 218 252 249
f 218 220 252
f 219 253 220
f 219 247 254
f 219 254 253
f 220 253 252
f 221 251 255
f 221 255 222
f 222 255 256
f 222 256 257
f 222 257 223
f 223 257 226
f 223 226 225
f 226 257 258
f 226 258 259
f 226 259 227
f 227 259 229
f 229 259 261
f 229 261 262
f 229 262 263
f 229 263 260
f 230 264 231
f 231 264 265
f 231 265 266
f 231 266 267
f 233 268 296
f 233 296 269
f 233 269 270
f 233 270 234
f 234 270 235
f 235 270 236
f 236 270 271
f 236 271 237
f 237 271 299
f 237 299 272
f 237 272 303
f 237 303 273
f 237 273 240
f 237 240 238
f 239 240 241
f 240 273 274
f 240 274 241
f 241 274 275
f 241 275 242
f 242 275 246
f 243 276 277
f 243 277 244
f 243 246 275
f 243 275 278
f 243 278 276
f 244 277 245
f 245 277 247
f 247 277 254
f 248 249 279
f 248 279 280
f 248 280 250
f 249 252 281
f 249 281 279
f 250 282 251
f 250 280 282
f 251 282 255
f 252 253 283
f 252 283 281
f 253 254 283
f 254 284 283
f 254 277 285
f 254 285 284
f 255 282 256
f 256 282 286
f 256 286 287
f 256 287 258
f 256 258 257
f 258 287 259
f 259 287 288
f 259 288 289
f 259 289 290
f 259 290 261
f 261 290 262
f 262 290 291
f 262 291 263
f 266 292 293
f 266 293 294
f 266 294 295
f 266 295 267
f 269 296 328
f 269 328 297
f 269 297 270
f 270 297 298
f 270 298 271
f 271 298 330
f 271 330 299
f 272 299 300
f 272 300 301
f 272 301 302
f 272 302 303
f 273 303 304
f 273 304 274
f 274 304 305
f 274 305 306
f 274 306 307
f 274 307 275
f 275 307 308
f 275 308 278
f 276 309 285
f 276 285 277
f 276 278 310
f 276 310 311
f 276 311 309
f 278 308 312
f 278 312 310
f 279 313 280
f 279 281 314
f 279 314 313
f 280 313 286
f 280 286 282
f 281 283 314
f 283 315 314
f 283 284 318
f 283 318 315
f 284 285 316
f 284 316 317
f 284 317 318
f 285 309 316
f 286 313 287
f 287 313 319
f 287 319 320
f 287 320 288
f 288 320 321
f 288 321 289
f 289 321 356
f 289 356 322
f 289 322 290
f 290 322 323
f 290 323 291
f 292 324 293
f 293 324 325
f 293 325 326
f 293 326 327
f 297 328 329
f 297 329 330
f 297 330 298
f 299 330 300
f 300 330 331
f 300 331 332
f 300 332 333
f 300 333 301
f 301 333 334
f 301 334 302
f 302 335 303
f 302 334 336
f 302 336 337
f 302 337 335
f 303 335 304
f 304 335 305
f 305 335 337
f 305 337 338
f 305 338 339
f 305 339 340
f 305 340 306
f 306 340 307
f 307 340 308
f 308 340 341
f 308 341 342
f 308 342 312
f 309 311 343
f 309 343 344
f 309 344 316
f 310 312 345
f 310 345 311
f 311 345 346
f 311 346 343
f 312 342 347
f 312 347 345
f 313 314 348
f 313 348 319
f 314 315 348
f 315 349 348
f 315 318 350
f 315 350 349
f 316 344 351
f 316 351 317
f 317 352 318
f 317 351 353
f 317 353 352
f 318 352 350
f 319 348 354
f 319 354 320
f 320 354 355
f 320 355 321
f 321 355 356
f 322 356 357
f 322 357 323
f 326 358 327
f 327 358 359
f 328 360 329
f 329 360 361
f 329 361 362
f 329 362 331
f 329 331 330
f 331 362 363
f 331 363 364
f 331 364 332
f 332 364 365
f 332 365 366
f 332 366 333
f 333 366 367
f 333 367 334
f 334 367 368
f 334 368 336
f 336 368 369
f 336 369 337
f 337 369 338
f 338 370 371
f 338 371 339
f 338 369 399
f 338 399 372
f 338 372 370
f 339 371 340
f 340 371 373
f 340 373 341
f 341 373 342
f 342 373 371
f 342 371 374
f 342 374 347
f 343 346 375
f 343 375 376
f 343 376 344
f 344 376 351
f 345 347 377
f 345 377 346
f 346 377 378
f 346 378 375
f 347 374 379
f 347 379 377
f 348 349 380
f 348 380 354
f 349 381 380
f 349 350 381
f 350 352 382
f 350 382 381
f 351 376 383
f 351 383 353
f 352 353 384
f 352 384 382
f 353 383 385
f 353 385 384
f 354 380 386
f 354 386 355
f 355 386 387
f 355 387 356
f 356 387 357
f 357 387 388
f 358 389 417
f 358 417 449
f 358 449 486
f 358 486 522
f 358 522 566
f 358 566 609
f 358 609 612
f 358 612 611
f 358 611 660
f 358 660 708
f 358 708 761
f 358 761 799
f 358 799 798
f 358 798 815
f 358 815 814
f 358 814 810
f 358 810 809
f 358 809 806
f 358 806 774
f 358 774 720
f 358 720 672
f 358 672 671
f 358 671 622
f 358 622 577
f 358 577 532
f 358 532 491
f 358 491 452
f 358 452 419
f 358 419 390
f 358 390 359
f 361 391 362
f 362 391 363
f 363 391 392
f 363 392 393
f 363 393 394
f 363 394 365
f 363 365 364
f 365 394 395
f 365 395 396
f 365 396 366
f 366 396 397
f 366 397 367
f 367 397 398
f 367 398 368
f 368 398 369
f 369 398 399
f 370 372 400
f 370 400 401
f 370 401 402
f 370 402 403
f 370 403 371
f 371 403 374
f 372 399 404
f 372 404 405
f 372 405 400
f 374 403 379
f 375 378 406
f 375 406 376
f 376 406 383
f 377 379 378
f 378 407 406
f 378 379 408
f 378 408 407
f 379 403 409
f 379 409 408
f 380 381 410
f 380 410 386
f 381 382 411
f 381 411 410
f 382 384 412
f 382 412 411
f 383 406 385
f 384 385 412
f 385 406 413
f 385 413 414
f 385 414 412
f 386 410 415
f 386 415 387
f 387 415 388
f 388 415 416
f 389 418 417
f 393 420 394
f 394 420 421
f 394 421 422
f 394 422 395
f 395 422 456
f 395 456 423
f 395 423 424
f 395 424 396
f 396 424 397
f 397 424 425
f 397 425 398
f 398 425 426
f 398 426 427
f 398 427 428
f 398 428 399
f 399 428 404
f 400 405 429
f 400 429 401
f 401 430 402
f 401 429 431
f 401 431 430
f 402 430 432
f 402 432 409
f 402 409 403
f 404 428 466
f 404 466 433
f 404 433 405
f 405 433 434
f 405 434 429
f 406 407 413
f 407 408 435
f 407 435 436
f 407 436 437
f 407 437 413
f 408 409 438
f 408 438 439
f 408 439 435
f 409 432 440
f 409 440 438
f 410 411 441
f 410 441 415
f 411 412 441
f 412 442 441
f 412 414 442
f 413 437 443
f 413 443 444
f 413 444 414
f 414 444 445
f 414 445 446
f 414 446 442
f 415 447 448
f 415 448 416
f 415 441 447
f 417 418 450
f 417 450 451
f 417 451 449
f 419 452 453
f 421 454 422
f 422 454 455
f 422 455 456
f 423 456 457
f 423 457 458
f 423 458 424
f 424 458 459
f 424 459 460
f 424 460 425
f 425 460 461
f 425 461 426
f 426 461 427
f 427 461 462
f 427 462 463
f 427 463 464
f 427 464 465
f 427 465 466
f 427 466 428
f 429 434 467
f 429 467 431
f 430 431 468
f 430 468 469
f 430 469 432
f 431 467 470
f 431 470 468
f 432 469 440
f 433 466 471
f 433 471 472
f 433 472 434
f 434 472 467
f 435 439 473
f 435 473 436
f 436 474 437
f 436 473 475
f 436 475 474
f 437 474 443
f 438 440 476
f 438 476 439
f 439 476 477
f 439 477 473
f 440 469 478
f 440 478 476
f 441 442 479
f 441 479 480
f 441 480 447
f 442 446 481
f 442 481 479
f 443 482 444
f 443 474 483
f 443 483 482
f 444 482 445
f 445 482 484
f 445 484 485
f 445 485 446
f 446 485 481
f 449 451 487
f 449 487 486
f 450 488 451
f 451 488 489
f 451 489 490
f 451 490 487
f 452 491 492
f 452 492 493
f 452 493 453
f 455 494 456
f 456 494 495
f 456 495 457
f 457 495 496
f 457 496 538
f 457 538 497
f 457 497 498
f 457 498 458
f 458 498 459
f 459 498 499
f 459 499 460
f 460 499 500
f 460 500 461
f 461 500 462
f 462 500 463
f 463 500 501
f 463 501 502
f 463 502 464
f 464 502 503
f 464 503 504
f 464 504 505
f 464 505 471
f 464 471 465
f 465 471 466
f 467 472 506
f 467 506 470
f 468 507 469
f 468 470 507
f 469 507 478
f 470 508 507
f 470 506 509
f 470 509 510
f 470 510 508
f 471 505 511
f 471 511 472
f 472 511 512
f 472 512 506
f 473 477 513
f 473 513 475
f 474 475 514
f 474 514 483
f 475 513 514
f 476 478 515
f 476 515 477
f 477 515 513
f 478 507 515
f 479 481 516
f 481 485 517
f 481 517 518
f 481 518 516
f 482 483 519
f 482 519 484
f 483 514 519
f 484 520 485
f 484 519 520
f 485 520 521
f 485 521 517
f 486 487 523
f 486 523 522
f 487 490 524
f 487 524 523
f 488 525 489
f 489 525 526
f 489 526 527
f 489 527 528
f 489 528 529
f 489 529 530
f 489 530 490
f 490 530 531
f 490 531 524
f 491 532 492
f 492 533 534
f 492 534 535
f 492 535 536
f 492 536 493
f 492 532 533
f 493 536 535
f 493 535 537
f 497 538 539
f 497 539 540
f 497 540 541
f 497 541 498
f 498 541 499
f 499 541 542
f 499 542 501
f 499 501 500
f 501 542 543
f 501 543 544
f 501 544 502
f 502 544 545
f 502 545 546
f 502 546 547
f 502 547 503
f 503 547 504
f 504 548 505
f 504 547 549
f 504 549 548
f 505 548 511
f 506 512 550
f 506 550 509
f 507 551 515
f 507 508 552
f 507 552 551
f 508 510 553
f 508 553 552
f 509 550 554
f 509 554 510
f 510 554 555
f 510 555 553
f 511 548 556
f 511 556 512
f 512 556 557
f 512 557 550
f 513 515 558
f 513 558 559
f 513 559 560
f 513 560 514
f 514 561 519
f 514 560 561
f 515 551 562
f 515 562 558
f 519 563 520
f 519 561 564
f 519 564 565
f 519 565 563
f 522 523 567
f 522 567 566
f 523 524 531
f 523 531 568
f 523 568 567
f 527 569 528
f 528 570 529
f 528 569 571
f 528 571 572
f 528 572 573
f 528 573 570
f 529 570 530
f 530 570 574
f 530 574 531
f 531 574 575
f 531 575 576
f 531 576 568
f 532 577 578
f 532 578 533
f 533 578 534
f 534 578 579
f 534 579 580
f 534 580 535
f 535 580 626
f 535 626 581
f 535 581 582
f 535 582 537
f 539 583 540
f 540 583 584
f 540 584 585
f 540 585 541
f 541 585 586
f 541 586 543
f 541 543 542
f 543 586 587
f 543 587 588
f 543 588 544
f 544 588 545
f 545 588 589
f 545 589 590
f 545 590 546
f 546 590 547
f 547 590 591
f 547 591 592
f 547 592 549
f 548 549 593
f 548 593 556
f 549 592 594
f 549 594 593
f 550 557 595
f 550 595 554
f 551 552 596
f 551 596 562
f 552 553 597
f 552 597 596
f 553 555 598
f 553 598 597
f 554 595 599
f 554 599 555
f 555 599 598
f 556 593 600
f 556 600 557
f 557 600 601
f 557 601 595
f 558 562 602
f 558 602 559
f 559 603 560
f 559 602 604
f 559 604 603
f 560 605 561
f 560 603 605
f 561 605 606
f 561 606 564
f 562 596 607
f 562 607 602
f 564 606 608
f 566 567 609
f 567 568 576
f 567 576 610
f 567 610 611
f 567 611 612
f 567 612 609
f 570 573 613
f 570 613 574
f 572 614 615
f 572 615 573
f 573 615 616
f 573 616 613
f 574 613 617
f 574 617 618
f 574 618 575
f 575 618 619
f 575 619 576
f 576 619 620
f 576 620 621
f 576 621 610
f 577 622 623
f 577 623 578
f 578 623 624
f 578 624 579
f 579 624 625
f 579 625 580
f 580 625 677
f 580 677 626
f 581 626 627
f 581 627 628
f 581 628 629
f 581 629 582
f 584 630 585
f 585 630 631
f 585 631 632
f 585 632 633
f 585 633 634
f 585 634 586
f 586 634 587
f 587 634 635
f 587 635 588
f 588 635 589
f 589 635 636
f 589 636 590
f 590 636 637
f 590 637 638
f 590 638 591
f 591 638 592
f 592 638 639
f 592 639 640
f 592 640 594
f 593 594 600
f 594 640 641
f 594 641 642
f 594 642 600
f 595 601 599
f 596 597 643
f 596 643 607
f 597 598 644
f 597 644 643
f 598 599 645
f 598 645 646
f 598 646 644
f 599 601 647
f 599 647 648
f 599 648 645
f 600 642 649
f 600 649 601
f 601 649 650
f 601 650 647
f 602 607 651
f 602 651 604
f 603 604 652
f 603 652 653
f 603 653 605
f 604 651 654
f 604 654 652
f 605 653 606
f 606 653 655
f 606 655 656
f 606 656 657
f 606 657 608
f 607 643 658
f 607 658 651
f 610 621 659
f 610 659 611
f 611 659 660
f 613 616 617
f 614 661 662
f 614 662 615
f 615 662 663
f 615 663 616
f 616 663 664
f 616 664 617
f 617 664 665
f 617 665 666
f 617 666 618
f 618 666 619
f 619 667 620
f 619 666 668
f 619 668 667
f 620 669 621
f 620 667 669
f 621 670 659
f 621 669 670
f 622 671 623
f 623 671 672
f 623 672 673
f 623 673 674
f 623 674 624
f 624 674 675
f 624 675 625
f 625 675 676
f 625 676 677
f 626 677 678
f 626 678 627
f 627 679 628
f 627 678 680
f 627 680 679
f 632 681 633
f 633 681 682
f 633 682 634
f 634 682 683
f 634 683 635
f 635 683 684
f 635 684 636
f 636 684 685
f 636 685 686
f 636 686 637
f 637 686 687
f 637 687 638
f 638 687 688
f 638 688 689
f 638 689 639
f 639 689 640
f 640 689 690
f 640 690 641
f 641 690 691
f 641 691 692
f 641 692 642
f 642 692 649
f 643 644 693
f 643 693 658
f 644 646 694
f 644 694 693
f 645 648 695
f 645 695 646
f 646 695 696
f 646 696 694
f 647 650 697
f 647 697 648
f 648 697 698
f 648 698 695
f 649 692 699
f 649 699 650
f 650 699 700
f 650 700 697
f 651 658 654
f 652 701 653
f 652 654 701
f 653 701 655
f 654 702 701
f 654 658 703
f 654 703 704
f 654 704 705
f 654 705 702
f 658 693 706
f 658 706 703
f 659 670 707
f 659 707 660
f 660 707 708
f 661 709 662
f 662 709 710
f 662 710 711
f 662 711 663
f 663 711 712
f 663 712 664
f 664 712 713
f 664 713 665
f 665 714 666
f 665 713 715
f 665 715 714
f 666 714 668
f 667 668 716
f 667 716 717
f 667 717 669
f 668 714 718
f 668 718 716
f 669 717 719
f 669 719 670
f 670 719 707
f 672 720 721
f 672 721 673
f 673 721 722
f 673 722 674
f 674 722 723
f 674 723 724
f 674 724 675
f 675 724 725
f 675 725 676
f 676 725 726
f 676 726 727
f 676 727 677
f 677 727 678
f 678 727 728
f 678 728 729
f 678 729 680
f 679 680 730
f 680 729 731
f 680 731 732
f 680 732 733
f 680 733 730
f 681 734 682
f 682 734 735
f 682 735 736
f 682 736 737
f 682 737 683
f 683 737 684
f 684 737 738
f 684 738 685
f 685 738 728
f 685 728 739
f 685 739 686
f 686 739 740
f 686 740 687
f 687 740 741
f 687 741 688
f 688 741 742
f 688 742 689
f 689 742 743
f 689 743 690
f 690 743 744
f 690 744 691
f 691 745 692
f 691 744 746
f 691 746 745
f 692 745 699
f 693 694 747
f 693 747 706
f 694 696 748
f 694 748 749
f 694 749 747
f 695 698 750
f 695 750 751
f 695 751 696
f 696 751 752
f 696 752 748
f 697 700 753
f 697 753 698
f 698 753 750
f 699 745 754
f 699 754 700
f 700 755 753
f 700 754 755
f 703 706 756
f 703 756 704
f 704 756 757
f 706 747 758
f 706 758 756
f 707 719 759
f 707 759 760
f 707 760 708
f 708 760 761
f 710 762 763
f 710 763 711
f 711 763 712
f 712 763 764
f 712 764 765
f 712 765 713
f 713 765 766
f 713 766 715
f 714 715 767
f 714 767 718
f 715 766 755
f 715 755 767
f 716 768 717
f 716 718 769
f 716 769 768
f 717 768 770
f 717 770 719
f 718 767 771
f 718 771 769
f 719 770 772
f 719 772 773
f 719 773 759
f 720 774 721
f 721 775 776
f 721 776 722
f 721 774 775
f 722 776 723
f 723 777 778
f 723 778 779
f 723 779 724
f 723 776 777
f 724 779 725
f 725 779 780
f 725 780 726
f 726 780 739
f 726 739 728
f 726 728 727
f 728 738 729
f 729 738 731
f 731 738 737
f 731 737 736
f 731 736 732
f 732 781 733
f 732 736 781
f 735 782 736
f 736 782 783
f 736 783 781
f 739 780 740
f 740 780 784
f 740 784 741
f 741 784 785
f 741 785 742
f 742 785 786
f 742 786 743
f 743 786 787
f 743 787 744
f 744 787 788
f 744 788 746
f 745 746 771
f 745 771 754
f 746 788 769
f 746 769 771
f 747 749 758
f 748 752 789
f 748 789 749
f 749 790 791
f 749 791 792
f 749 792 758
f 749 789 793
f 749 793 790
f 750 753 766
f 750 766 765
f 750 765 794
f 750 794 751
f 751 794 752
f 752 794 795
f 752 795 789
f 753 755 766
f 754 771 767
f 754 767 755
f 756 758 792
f 756 792 757
f 759 796 760
f 759 773 796
f 760 797 798
f 760 798 799
f 760 799 761
f 760 796 797
f 762 800 763
f 762 801 800
f 763 800 795
f 763 795 764
f 764 795 794
f 764 794 765
f 768 769 788
f 768 788 802
f 768 802 770
f 770 802 772
f 772 803 804
f 772 804 805
f 772 805 773
f 772 802 803
f 773 805 796
f 774 806 775
f 775 807 808
f 775 808 776
f 775 806 809
f 775 809 810
f 775 810 807
f 776 808 777
f 777 808 804
f 777 804 811
f 777 811 778
f 778 811 785
f 778 785 784
f 778 784 779
f 779 784 780
f 785 811 786
f 786 811 803
f 786 803 787
f 787 803 802
f 787 802 788
f 789 795 793
f 790 793 812
f 793 795 800
f 793 800 813
f 793 813 812
f 796 807 797
f 796 805 807
f 797 814 815
f 797 815 798
f 797 807 814
f 800 801 813
f 803 811 804
f 804 808 805
f 805 808 807
f 807 810 814
