v 0.40999895 -0.46261054 0.09004825
v 0.40999895 -0.46184313 0.00098473
v 0.42071894 -0.46177340 0.00098473
v 0.42945915 -0.46170360 0.00098473
v 0.42953157 -0.46170360 0.01003182
v 0.42873481 -0.46170360 0.03003593
v 0.42728618 -0.46170360 0.05004004
v 0.40999895 -0.46243614 0.11005236
v 0.37001619 -0.46243614 0.21002264
v 0.35002482 -0.46254078 0.23002675
v 0.29000241 -0.46247101 0.30999294
v 0.39964110 -0.46009904 0.00098473
v 0.28188998 -0.46212220 0.30969137
v 0.43397409 -0.46086645 0.00098473
v 0.43950310 -0.45985490 0.01003182
v 0.43873051 -0.45964560 0.03003593
v 0.42552364 -0.46163386 0.07004414
v 0.42211932 -0.46093622 0.11005236
v 0.40574956 -0.46152920 0.15006058
v 0.39003170 -0.46233147 0.17001444
v 0.42383355 -0.46142456 0.09004825
v 0.39017656 -0.46145946 0.18901330
v 0.36975062 -0.46138966 0.22887073
v 0.35113546 -0.46177340 0.25098583
v 0.33000931 -0.46243614 0.26998472
v 0.28188998 -0.46152920 0.32914260
v 0.30902803 -0.46142456 0.30506730
v 0.32068965 -0.43578649 0.00098473
v 0.28188998 -0.46170360 0.30506730
v 0.43947896 -0.45982000 0.00098473
v 0.44879863 -0.44984382 0.01003182
v 0.44843647 -0.44963452 0.03003593
v 0.44877449 -0.44984382 0.00098473
v 0.44761556 -0.44904155 0.05004004
v 0.43728185 -0.45905262 0.05004004
v 0.42081553 -0.46037811 0.12367326
v 0.40239352 -0.46090132 0.17001444
v 0.38324720 -0.46100599 0.21002264
v 0.38073620 -0.46030834 0.22138177
v 0.36286953 -0.46086645 0.24495445
v 0.34425437 -0.46093622 0.26998472
v 0.32870552 -0.46104085 0.28827992
v 0.30876243 -0.46114552 0.30873638
v 0.28843305 -0.46104085 0.32869023
v 0.28188998 -0.46034324 0.33869231
v 0.32068965 -0.24655290 0.00098473
v 0.28188998 -0.23127469 0.30506730
v 0.52854681 -0.36103484 0.01003182
v 0.52854681 -0.36079067 0.03003593
v 0.52854681 -0.36026746 0.05004004
v 0.52854681 -0.35936052 0.07004414
v 0.52854681 -0.35820943 0.09004825
v 0.52854681 -0.35789549 0.09432049
v 0.52854681 -0.35663974 0.11125864
v 0.52854681 -0.36099997 0.00098473
v 0.52854681 -0.35513982 0.12824705
v 0.52854681 -0.35290739 0.15006058
v 0.52854681 -0.35074472 0.16805422
v 0.44631177 -0.44796020 0.07004414
v 0.43554348 -0.45793641 0.07004414
v 0.43209085 -0.45361105 0.11005236
v 0.41842526 -0.45950606 0.13699257
v 0.40063101 -0.46027344 0.18167511
v 0.43380508 -0.45622718 0.09004825
v 0.37622124 -0.45825034 0.23475134
v 0.35854772 -0.45957583 0.25822350
v 0.39693695 -0.45873868 0.19504470
v 0.52854681 -0.29939878 0.39835280
v 0.52854681 -0.29552689 0.40900826
v 0.52854681 -0.29514319 0.41006374
v 0.34048787 -0.46016884 0.28053963
v 0.32068965 -0.46044788 0.30134794
v 0.31482261 -0.46079668 0.30506730
v 0.30125359 -0.46037811 0.32115102
v 0.28188998 -0.45988977 0.33999908
v 0.52854681 -0.18564934 0.00098473
v 0.28188998 -0.15156986 0.51445705
v 0.37547278 -0.10629334 0.51445705
v 0.52854681 -0.34784955 0.18991801
v 0.44459754 -0.44621611 0.09004825
v 0.52854681 -0.34477994 0.21052526
v 0.52854681 -0.34195453 0.22791576
v 0.52854681 -0.34160572 0.23002675
v 0.52854681 -0.33393171 0.26998472
v 0.52854681 -0.33005986 0.28777730
v 0.52854681 -0.32957149 0.28998882
v 0.52854681 -0.32604843 0.30506730
v 0.52854681 -0.32486245 0.31009346
v 0.52854681 -0.32315326 0.31718034
v 0.52854681 -0.32099059 0.32592586
v 0.52854681 -0.31865349 0.33477190
v 0.52854681 -0.31488627 0.34859383
v 0.41574526 -0.45797127 0.15006058
v 0.52854681 -0.30857268 0.37000525
v 0.52854681 -0.33766407 0.25138792
v 0.52854681 -0.33424565 0.26842660
v 0.52854681 -0.28719017 0.43077153
v 0.52854681 -0.28181836 0.44424161
v 0.52854681 -0.27777207 0.45359027
v 0.52854681 -0.30281720 0.38814968
v 0.52854681 -0.30236372 0.38955700
v 0.32119668 -0.46037811 0.30119717
v 0.51980662 -0.27993476 0.45972216
v 0.51529169 -0.27752790 0.46997553
v 0.50056374 -0.28031844 0.48058075
v 0.31460533 -0.45720387 0.31456673
v 0.47323251 -0.27717909 0.51445705
v 0.46449232 -0.28143466 0.51445705
v 0.45447251 -0.28589952 0.51445705
v 0.44998169 -0.28788778 0.51445705
v 0.43155968 -0.29559666 0.51445705
v 0.42518562 -0.29817790 0.51445705
v 0.41412759 -0.30229396 0.51445705
v 0.40908146 -0.30407292 0.51445705
v 0.39483640 -0.30892149 0.51445705
v 0.38993514 -0.31056094 0.51445705
v 0.37158555 -0.31642106 0.51445705
v 0.36482519 -0.31851399 0.51445705
v 0.35386375 -0.32165334 0.51445705
v 0.34850374 -0.32311839 0.51445705
v 0.33495885 -0.32667631 0.51445705
v 0.32959884 -0.32807159 0.51445705
v 0.30897972 -0.33302480 0.51445705
v 0.29101646 -0.33703619 0.51445705
v 0.28188998 -0.33895469 0.51445705
v 0.52854681 -0.10629334 0.35341895
v 0.52854681 -0.10629334 0.51445705
v 0.52854681 -0.33996627 0.23902358
v 0.52854681 -0.27083060 0.46846771
v 0.52854681 -0.26953998 0.47113156
v 0.52854681 -0.26556346 0.47927392
v 0.52444232 -0.26263338 0.48997965
v 0.50833815 -0.27233052 0.48832101
v 0.49414137 -0.27703956 0.49390006
v 0.48078966 -0.28042310 0.50078589
v 0.49445525 -0.26615646 0.51445705
v 0.48844334 -0.27247006 0.50842565
v 0.52854681 -0.24648315 0.51445705
v 0.52854681 -0.26176134 0.48696396
v 0.52854681 -0.26019168 0.48997965
v 0.52002394 -0.26005214 0.49998170
v 0.50809669 -0.26228458 0.50797331
v 0.50389564 -0.26113349 0.51445705
v 0.52743620 -0.24718077 0.51445705
v 0.52854681 -0.24882022 0.51043612
v 0.52854681 -0.25802901 0.49410111
v 0.52854681 -0.24997132 0.50842565
v 0.52854681 -0.24965738 0.50897849
v 0.51345670 -0.25625002 0.51335132
v 0.51138031 -0.25684303 0.51445705
v 0.51451904 -0.25495940 0.51445705
f 1 2 3
f 1 3 4
f 1 4 5
f 1 5 6
f 1 6 7
f 1 7 8
f 1 8 9
f 1 9 10
f 1 10 11
f 1 11 2
f 2 12 28
f 2 28 46
f 2 46 76
f 2 76 55
f 2 55 33
f 2 33 30
f 2 30 14
f 2 14 4
f 2 4 3
f 2 11 13
f 2 13 12
f 4 14 15
f 4 15 5
f 5 15 6
f 6 15 7
f 7 15 16
f 7 16 17
f 7 17 8
f 8 18 19
f 8 19 20
f 8 20 9
f 8 17 21
f 8 21 18
f 9 20 22
f 9 22 23
f 9 23 24
f 9 24 25
f 9 25 10
f 10 25 11
f 11 26 13
f 11 25 27
f 11 27 26
f 12 13 29
f 12 29 28
f 13 26 45
f 13 45 75
f 13 75 125
f 13 125 77
f 13 77 47
f 13 47 29
f 14 30 15
f 15 31 32
f 15 32 16
f 15 30 33
f 15 33 31
f 16 32 34
f 16 34 35
f 16 35 18
f 16 18 21
f 16 21 17
f 18 36 19
f 18 35 36
f 19 36 37
f 19 37 22
f 19 22 20
f 22 37 38
f 22 38 23
f 23 38 39
f 23 39 40
f 23 40 24
f 24 40 41
f 24 41 25
f 25 41 42
f 25 42 43
f 25 43 27
f 26 27 43
f 26 43 44
f 26 44 45
f 28 29 47
f 28 47 46
f 31 48 49
f 31 49 50
f 31 50 32
f 31 33 48
f 32 50 51
f 32 51 52
f 32 52 53
f 32 53 54
f 32 54 34
f 33 55 48
f 34 54 56
f 34 56 57
f 34 57 58
f 34 58 59
f 34 59 35
f 35 59 60
f 35 60 36
f 36 61 62
f 36 62 63
f 36 63 37
f 36 60 64
f 36 64 61
f 37 63 38
f 38 63 39
f 39 65 66
f 39 66 40
f 39 63 67
f 39 67 68
f 39 68 69
f 39 69 70
f 39 70 65
f 40 66 71
f 40 71 41
f 41 71 42
f 42 71 72
f 42 72 73
f 42 73 43
f 43 74 44
f 43 73 74
f 44 74 45
f 45 74 75
f 46 47 77
f 46 77 78
f 46 78 76
f 48 55 76
f 48 76 126
f 48 126 127
f 48 127 138
f 48 138 145
f 48 145 148
f 48 148 147
f 48 147 146
f 48 146 140
f 48 140 139
f 48 139 131
f 48 131 130
f 48 130 129
f 48 129 99
f 48 99 98
f 48 98 97
f 48 97 70
f 48 70 69
f 48 69 68
f 48 68 101
f 48 101 100
f 48 100 94
f 48 94 92
f 48 92 91
f 48 91 90
f 48 90 89
f 48 89 88
f 48 88 87
f 48 87 86
f 48 86 85
f 48 85 84
f 48 84 96
f 48 96 95
f 48 95 128
f 48 128 83
f 48 83 82
f 48 82 81
f 48 81 79
f 48 79 58
f 48 58 57
f 48 57 56
f 48 56 54
f 48 54 53
f 48 53 52
f 48 52 51
f 48 51 50
f 48 50 49
f 58 79 59
f 59 80 64
f 59 64 60
f 59 79 81
f 59 81 82
f 59 82 83
f 59 83 80
f 61 64 84
f 61 84 85
f 61 85 86
f 61 86 62
f 62 86 87
f 62 87 88
f 62 88 89
f 62 89 90
f 62 90 91
f 62 91 92
f 62 92 93
f 62 93 63
f 63 93 92
f 63 92 94
f 63 94 67
f 64 80 95
f 64 95 96
f 64 96 84
f 65 70 97
f 65 97 98
f 65 98 66
f 66 98 99
f 66 99 71
f 67 94 100
f 67 100 101
f 67 101 68
f 71 102 72
f 71 99 103
f 71 103 104
f 71 104 105
f 71 105 102
f 72 102 74
f 72 74 73
f 74 106 107
f 74 107 108
f 74 108 75
f 74 102 106
f 75 108 109
f 75 109 110
f 75 110 111
f 75 111 112
f 75 112 113
f 75 113 114
f 75 114 115
f 75 115 116
f 75 116 117
f 75 117 118
f 75 118 119
f 75 119 120
f 75 120 121
f 75 121 122
f 75 122 123
f 75 123 124
f 75 124 125
f 76 78 126
f 77 125 124
f 77 124 123
f 77 123 122
f 77 122 121
f 77 121 120
f 77 120 119
f 77 119 118
f 77 118 117
f 77 117 116
f 77 116 115
f 77 115 114
f 77 114 113
f 77 113 112
f 77 112 111
f 77 111 110
f 77 110 109
f 77 109 108
f 77 108 107
f 77 107 136
f 77 136 143
f 77 143 150
f 77 150 151
f 77 151 144
f 77 144 138
f 77 138 127
f 77 127 78
f 78 127 126
f 80 83 128
f 80 128 95
f 99 129 103
f 102 105 106
f 103 129 104
f 104 129 130
f 104 130 131
f 104 131 132
f 104 132 133
f 104 133 105
f 105 133 134
f 105 134 106
f 106 134 135
f 106 135 107
f 107 135 137
f 107 137 136
f 131 139 132
f 132 139 140
f 132 140 141
f 132 141 133
f 133 141 134
f 134 141 142
f 134 142 136
f 134 136 137
f 134 137 135
f 136 142 143
f 138 144 145
f 140 146 141
f 141 147 148
f 141 148 145
f 141 145 144
f 141 144 149
f 141 149 150
f 141 150 143
f 141 143 142
f 141 146 147
f 144 151 149
f 149 151 150
