v -0.64085019 0.01552615 0.33861640
v -0.48216796 -0.14791289 0.33861640
v -0.48216796 -0.20872740 0.00098470
v -0.72306627 0.01552615 0.00098470
v -0.85428590 0.01552615 0.33861640
v -0.48216796 -0.33649334 0.33861640
v -0.48216796 -0.38883501 0.00098470
v -0.92053938 0.01552615 0.00098470
v -0.85668886 0.01552615 0.33276668
v -0.85153961 0.00974560 0.33861640
v -0.48281163 -0.33625579 0.33861640
v -0.48216796 -0.33787906 0.33332852
v -0.48216796 -0.38895378 0.01000716
v -0.62265623 -0.32128972 0.00098470
v -0.91873711 0.01164606 0.00098470
v -0.91659164 0.00717208 0.01000716
v -0.92045355 0.01552615 0.01000716
v -0.85964966 0.01552615 0.32513228
v -0.85527283 0.01041868 0.32999054
v -0.84321505 -0.00680418 0.33861640
v -0.48946273 -0.33376145 0.33861640
v -0.48903364 -0.33621618 0.32956088
v -0.48216796 -0.34033382 0.32305020
v -0.48216796 -0.38820153 0.03000198
v -0.62166929 -0.32081461 0.05002987
v -0.62231296 -0.32113135 0.03000198
v -0.62265623 -0.32128972 0.01000716
v -0.63265431 -0.31618226 0.00098470
v -0.91663456 0.00713249 0.00098470
v -0.91633415 0.00780556 0.03000198
v -0.92036772 0.01552615 0.01360953
v -0.90826702 -0.01001120 0.00098470
v -0.90818119 -0.01001120 0.01000716
v -0.90762335 -0.01001120 0.03000198
v -0.86175227 0.01552615 0.31941473
v -0.85797620 0.00404425 0.31439126
v -0.84475982 -0.01044671 0.32985833
v -0.83858073 -0.01741505 0.33643514
v -0.83823746 -0.01638563 0.33861640
v -0.50139177 -0.32916868 0.33861640
v -0.51001674 -0.32802048 0.32999054
v -0.51001674 -0.33285081 0.30999571
v -0.49564180 -0.33835420 0.30999571
v -0.48564371 -0.34203631 0.30999571
v -0.48216796 -0.34076935 0.32113332
v -0.48216796 -0.38768682 0.03611611
v -0.60755181 -0.32354650 0.11001436
v -0.61141372 -0.32350689 0.08823486
v -0.62008160 -0.32002273 0.08036913
v -0.62068236 -0.32029986 0.07002470
v -0.63166738 -0.31562793 0.05002987
v -0.63231105 -0.31598425 0.03000198
v -0.63265431 -0.31618226 0.01000716
v -0.65003300 -0.30671954 0.00098470
v -0.91581923 0.00887457 0.05002987
v -0.91890877 0.01552615 0.05002987
v -0.91989571 0.01552615 0.03000198
v -0.90659350 -0.01001120 0.05002987
v -0.90157300 -0.02299763 0.00098470
v -0.90157300 -0.02295804 0.01000716
v -0.90127265 -0.02244334 0.03000198
v -0.90075773 -0.02149311 0.05002987
v -0.86539966 0.01552615 0.30897117
v -0.86312544 0.01041868 0.30864069
v -0.86037916 -0.00078608 0.30107239
v -0.85368514 -0.00846708 0.30864069
v -0.84119827 -0.02220577 0.32311627
v -0.83459008 -0.02933247 0.32985833
v -0.83077109 -0.02992637 0.33861640
v -0.51005965 -0.32576370 0.33861640
v -0.52211744 -0.32089376 0.33861640
v -0.52469206 -0.32200238 0.32999054
v -0.53108567 -0.32414037 0.31035924
v -0.50975931 -0.33716643 0.29109150
v -0.49916044 -0.33966076 0.29849455
v -0.53001297 -0.32928747 0.28996783
v -0.49152243 -0.34401596 0.29109150
v -0.48216796 -0.34559968 0.29928774
v -0.48216796 -0.34326369 0.30999571
v -0.48216796 -0.38649905 0.05002987
v -0.59000152 -0.32968336 0.13000919
v -0.60549212 -0.32259625 0.13000919
v -0.61754990 -0.31875575 0.11001436
v -0.61900884 -0.31946844 0.09368800
v -0.62806290 -0.31515282 0.08823486
v -0.63068044 -0.31507364 0.07002470
v -0.64891732 -0.30509627 0.07002470
v -0.65183520 -0.30458155 0.04950108
v -0.65003300 -0.30628404 0.03000198
v -0.65003300 -0.30667996 0.01000716
v -0.66084635 -0.30050349 0.01000716
v -0.66088927 -0.30050349 0.00098470
v -0.91581923 0.01180443 0.06890102
v -0.90423346 -0.01171368 0.07022299
v -0.91779310 0.01552615 0.06543084
v -0.90028572 -0.02058247 0.06371228
v -0.89861220 -0.02850103 0.00098470
v -0.89616632 -0.03301461 0.00098470
v -0.89612341 -0.03297502 0.01000716
v -0.89586592 -0.03246030 0.03000198
v -0.89535105 -0.03147049 0.05002987
v -0.87170744 0.01552615 0.29056272
v -0.86930448 0.00998317 0.28996783
v -0.85711795 -0.01444559 0.28996783
v -0.86222428 -0.00446820 0.28996783
v -0.84360123 -0.02656098 0.30999571
v -0.83806580 -0.03657795 0.30999571
v -0.82360506 -0.04964358 0.32840419
v -0.82223189 -0.04509041 0.33861640
v -0.53198683 -0.31641978 0.33861640
v -0.53469014 -0.31760758 0.32999054
v -0.53846627 -0.31931007 0.31726655
v -0.54219943 -0.32093337 0.30394769
v -0.53001297 -0.33356348 0.26997298
v -0.51696819 -0.33878970 0.26997298
v -0.50289363 -0.34108609 0.28517568
v -0.54593265 -0.32255667 0.28996783
v -0.55142516 -0.32441753 0.27079922
v -0.49002057 -0.34888589 0.26997298
v -0.48216796 -0.35173655 0.26990688
v -0.48216796 -0.35011327 0.27780569
v -0.48216796 -0.34746054 0.29059577
v -0.48216796 -0.38590515 0.05442543
v -0.55773294 -0.33906686 0.16999884
v -0.55953521 -0.33977956 0.15829939
v -0.56880385 -0.33665171 0.15099549
v -0.59000152 -0.32750577 0.15000401
v -0.60308915 -0.32148767 0.15000401
v -0.61549020 -0.31772637 0.13000919
v -0.63003677 -0.31218338 0.11001436
v -0.64754421 -0.30434400 0.09001952
v -0.65891540 -0.29931569 0.07002470
v -0.65968782 -0.29979083 0.05581349
v -0.66020274 -0.30010757 0.04249462
v -0.66050309 -0.30030552 0.03000198
v -0.67084444 -0.29397067 0.01000716
v -0.66638178 -0.29694015 0.00098470
v -0.90414762 -0.00822952 0.09001952
v -0.91294426 0.00998317 0.09001952
v -0.91732109 0.01552615 0.07128057
v -0.89972788 -0.01951347 0.07703115
v -0.89552265 -0.02838226 0.07022299
v -0.88664025 -0.05003950 0.00098470
v -0.88659734 -0.05003950 0.01000716
v -0.88483799 -0.05201915 0.03191884
v -0.87998915 -0.06001689 0.03985068
v -0.88535297 -0.04944561 0.05002987
v -0.88458055 -0.04817864 0.07002470
v -0.87732869 0.01552615 0.27344316
v -0.85917765 -0.01848406 0.27750823
v -0.84699118 -0.03194560 0.29188469
v -0.87582684 0.01045828 0.27036959
v -0.86514223 -0.01111980 0.27050179
v -0.83991098 -0.03990376 0.29978347
v -0.83029902 -0.05003950 0.30999571
v -0.82025802 -0.06045242 0.32070369
v -0.81764054 -0.05605762 0.33402255
v -0.81682521 -0.05427593 0.33861640
v -0.54039723 -0.31250012 0.33861640
v -0.55000913 -0.31048086 0.32999054
v -0.54932255 -0.31606346 0.31035924
v -0.55593073 -0.31812227 0.28996783
v -0.55906320 -0.31954762 0.27800399
v -0.52971256 -0.33732480 0.25159758
v -0.51971447 -0.33985871 0.25936416
v -0.55000913 -0.32924786 0.24997815
v -0.50697011 -0.34259063 0.26997298
v -0.56219566 -0.32101256 0.26468509
v -0.49002057 -0.35272640 0.24997815
v -0.48216796 -0.35561666 0.24997815
v -0.48216796 -0.38372755 0.07002470
v -0.55434304 -0.33768111 0.18999368
v -0.57000530 -0.33098996 0.18999368
v -0.57000530 -0.33380103 0.16999884
v -0.59158921 -0.32414037 0.17052764
v -0.60124397 -0.32057703 0.16424827
v -0.61308724 -0.31649899 0.15000401
v -0.63003677 -0.31000575 0.13000919
v -0.64587069 -0.30339378 0.11001436
v -0.65754229 -0.29848427 0.09001952
v -0.67002916 -0.29032815 0.09001952
v -0.67002916 -0.29203063 0.07002470
v -0.66814113 -0.29452497 0.04950108
v -0.67054409 -0.29373312 0.03000198
v -0.67088735 -0.29397067 0.00098470
v -0.68560559 -0.28395370 0.01000716
v -0.68564850 -0.28399330 0.00098470
v -0.90294611 -0.00593314 0.11001436
v -0.89908421 -0.01824650 0.09001952
v -0.91062707 0.00998317 0.11001436
v -0.91547596 0.01552615 0.09001952
v -0.89273351 -0.03000556 0.09001952
v -0.88363653 -0.04655534 0.09001952
v -0.88385105 -0.05490942 0.00098470
v -0.88046116 -0.06080875 0.00098470
v -0.88041824 -0.06076916 0.01000716
v -0.88020372 -0.06045242 0.02653182
v -0.87531191 -0.06825219 0.03191884
v -0.87338096 -0.07003386 0.05002987
v -0.87964588 -0.05946259 0.05002987
v -0.87891638 -0.05819562 0.07002470
v -0.87973166 0.01552615 0.26570964
v -0.86128026 -0.02244334 0.26415631
v -0.85544449 -0.02945125 0.27050179
v -0.84218520 -0.04382344 0.28646460
v -0.87844437 0.00317320 0.24997815
v -0.87179327 -0.01001120 0.24997815
v -0.83656394 -0.05031666 0.29188469
v -0.82223189 -0.06369902 0.30999571
v -0.81605285 -0.07367640 0.30999571
v -0.80223572 -0.08345582 0.32999054
v -0.81236255 -0.06829178 0.32840419
v -0.80051935 -0.08084270 0.33861640
v -0.55030948 -0.30782816 0.33861640
v -0.56301093 -0.30157250 0.33861640
v -0.56545681 -0.30283946 0.32999054
v -0.57133555 -0.30525464 0.31065670
v -0.57000530 -0.31131232 0.28996783
v -0.56931877 -0.31622183 0.27079922
v -0.52284694 -0.34108609 0.24601224
v -0.55000913 -0.33300918 0.22998333
v -0.53644949 -0.33855218 0.22998333
v -0.51181901 -0.34425354 0.25159758
v -0.56549972 -0.32251710 0.24997815
v -0.57549781 -0.31784514 0.24997815
v -0.48216796 -0.35846734 0.23444499
v -0.48216796 -0.37240398 0.15000401
v -0.54434496 -0.34171957 0.18999368
v -0.54172742 -0.34065056 0.20437013
v -0.54906511 -0.33669132 0.21061644
v -0.57000530 -0.32782251 0.20998850
v -0.58721232 -0.32330894 0.18999368
v -0.59927011 -0.31962681 0.17753409
v -0.60875332 -0.31582588 0.17052764
v -0.63003677 -0.30747181 0.15000401
v -0.64393973 -0.30228516 0.13000919
v -0.65591168 -0.29749444 0.11001436
v -0.67002916 -0.28826931 0.11001436
v -0.68114293 -0.28078628 0.11001436
v -0.68260187 -0.28185529 0.09001952
v -0.68380338 -0.28268674 0.07002470
v -0.68470448 -0.28332022 0.05002987
v -0.68530524 -0.28371614 0.03000198
v -0.69560367 -0.27674782 0.01000716
v -0.69564658 -0.27674782 0.00098470
v -0.90157300 -0.00316164 0.13000919
v -0.89788270 -0.01595011 0.11001436
v -0.89041638 -0.03000556 0.11001436
v -0.91311586 0.01552615 0.11001436
v -0.90783793 0.00998317 0.13000919
v -0.88247794 -0.04449652 0.11001436
v -0.87797236 -0.05653273 0.09001952
v -0.87681377 -0.05451350 0.11001436
v -0.87445372 -0.07082572 0.00098470
v -0.87445372 -0.07078613 0.01000716
v -0.86415529 -0.08658365 0.03000198
v -0.86368322 -0.08583139 0.05002987
v -0.86295378 -0.08472279 0.07002470
v -0.87192202 -0.07003386 0.07002470
v -0.87003398 -0.07003386 0.09001952
v -0.88213468 0.01552615 0.25761256
v -0.85793328 -0.03630081 0.24997815
v -0.86333996 -0.02628383 0.24997815
v -0.84415907 -0.05031666 0.26881626
v -0.83828038 -0.05716620 0.27469903
v -0.88320744 0.01319018 0.24997815
v -0.87990332 0.00012456 0.23969984
v -0.87685668 -0.01005079 0.23180105
v -0.82514983 -0.07066735 0.28957123
v -0.81858456 -0.07779405 0.29598278
v -0.80541110 -0.09062211 0.30949998
v -0.79837382 -0.09766963 0.31581238
v -0.79558462 -0.09343320 0.32999054
v -0.78331232 -0.10614249 0.33861640
v -0.57266575 -0.29626706 0.33861640
v -0.57545495 -0.29749444 0.32999054
v -0.57884485 -0.29935530 0.31779534
v -0.58236349 -0.30125576 0.30447647
v -0.58605373 -0.30315620 0.28996783
v -0.59141755 -0.30517542 0.27073312
v -0.59000152 -0.31067884 0.24997815
v -0.52645135 -0.34247184 0.22998333
v -0.51001674 -0.34876710 0.22998333
v -0.48899072 -0.35668564 0.23008248
v -0.53910995 -0.33962119 0.21772204
v -0.57107806 -0.32386324 0.22971894
v -0.57845867 -0.31927049 0.23619661
v -0.48216796 -0.36032820 0.22393531
v -0.48216796 -0.36943454 0.17016409
v -0.58120489 -0.32053745 0.22287774
v -0.58360785 -0.32168561 0.20998850
v -0.59721041 -0.31863698 0.18999368
v -0.61004061 -0.31206459 0.18999368
v -0.63106662 -0.30414602 0.16864382
v -0.64029235 -0.30014715 0.16107553
v -0.64166546 -0.30093902 0.15000401
v -0.65393782 -0.29626706 0.13000919
v -0.67135936 -0.28510189 0.12868722
v -0.68024182 -0.28011322 0.12115197
v -0.69114101 -0.27338243 0.11001436
v -0.69264287 -0.27449101 0.09001952
v -0.69380146 -0.27540165 0.07002470
v -0.69470257 -0.27607474 0.05002987
v -0.69530332 -0.27647066 0.03000198
v -0.70804769 -0.26649329 0.03000198
v -0.70834804 -0.26673084 0.01000716
v -0.70839095 -0.26673084 0.00098470
v -0.90050030 -0.00110282 0.14309672
v -0.89646673 -0.01317862 0.13000919
v -0.88762718 -0.03000556 0.13000919
v -0.88110483 -0.04204176 0.13000919
v -0.91024089 0.01552615 0.13043883
v -0.90401888 0.00875579 0.14987183
v -0.90706551 0.01552615 0.14990486
v -0.90942562 0.01552615 0.13552842
v -0.86771679 -0.07003386 0.11001436
v -0.86445564 -0.07118206 0.12865417
v -0.87544066 -0.05205874 0.13000919
v -0.86994815 -0.07815038 0.00098470
v -0.86445564 -0.08701918 0.01000716
v -0.85771871 -0.09660063 0.03000198
v -0.85724670 -0.09584837 0.05002987
v -0.85651720 -0.09470017 0.07002470
v -0.86200976 -0.08321826 0.09001952
v -0.86085117 -0.08139700 0.11001436
v -0.88428020 0.01552615 0.24997815
v -0.85960674 -0.03930986 0.23857614
v -0.85008067 -0.05003950 0.24997815
v -0.86574292 -0.03158927 0.23114006
v -0.84042585 -0.06072956 0.26134712
v -0.83330274 -0.06845015 0.26881626
v -0.82090169 -0.08143659 0.28263089
v -0.88934362 0.01552615 0.23143750
v -0.88578200 0.00808270 0.23180105
v -0.88166267 -0.00339921 0.22634791
v -0.87865895 -0.01741505 0.20998850
v -0.81364989 -0.08888003 0.28957123
v -0.80090553 -0.10139135 0.30249351
v -0.79305291 -0.10883480 0.30949998
v -0.78039438 -0.12059385 0.32100111
v -0.78468543 -0.11006217 0.32860246
v -0.77764815 -0.11675335 0.33435303
v -0.77704740 -0.11509046 0.33861640
v -0.58090454 -0.29159510 0.33861640
v -0.59000152 -0.28925914 0.32999054
v -0.58944368 -0.29555440 0.31065670
v -0.59605187 -0.29781118 0.28996783
v -0.59905559 -0.29943448 0.27790484
v -0.60205930 -0.30113697 0.26458597
v -0.58871418 -0.31554875 0.22971894
v -0.60514885 -0.30283946 0.24997815
v -0.48216796 -0.36630672 0.18906829
v -0.48216796 -0.36274335 0.20998850
v -0.59360600 -0.31689489 0.20998850
v -0.61004061 -0.30846164 0.20998850
v -0.62604612 -0.30343336 0.18999368
v -0.63840431 -0.29903856 0.17436135
v -0.64818782 -0.29401028 0.16864382
v -0.65166354 -0.29484171 0.15000401
v -0.66724002 -0.28486434 0.15000401
v -0.67895448 -0.27920258 0.13447085
v -0.68813729 -0.27318448 0.12868722
v -0.70255518 -0.26205888 0.13000919
v -0.70418572 -0.26336545 0.11001436
v -0.70555890 -0.26447403 0.09001952
v -0.70667452 -0.26538467 0.07002470
v -0.70753276 -0.26605776 0.05002987
v -0.71804577 -0.25837678 0.03000198
v -0.71834612 -0.25861430 0.01000716
v -0.71838903 -0.25865391 0.00098470
v -0.71388346 -0.26229644 0.00098470
v -0.89547974 -0.00866504 0.14987183
v -0.89934170 0.00131235 0.15644863
v -0.88024664 -0.04049765 0.14151034
v -0.88402271 -0.03099537 0.14891338
v -0.90281743 0.01402162 0.16999884
v -0.90346110 0.01552615 0.16999884
v -0.86012173 -0.08028840 0.12108587
v -0.86381197 -0.06643092 0.15000401
v -0.85913473 -0.07862550 0.13440475
v -0.86445564 -0.08705877 0.00098470
v -0.86093700 -0.09252257 0.00098470
v -0.85801911 -0.09699655 0.01000716
v -0.84862173 -0.11002258 0.03000198
v -0.84763479 -0.11002258 0.05002987
v -0.84003967 -0.12007915 0.06057259
v -0.84523183 -0.11156670 0.06833918
v -0.84553218 -0.10816172 0.09001952
v -0.85553026 -0.09323524 0.09001952
v -0.83948183 -0.11928730 0.07389146
v -0.85437173 -0.09141397 0.11001436
v -0.86136609 -0.04247728 0.22525728
v -0.85570192 -0.04948521 0.23114006
v -0.84209937 -0.06350105 0.24997815
v -0.87196493 -0.03000556 0.20998850
v -0.83596319 -0.07351803 0.24997815
v -0.82291847 -0.08456442 0.26997298
v -0.81639612 -0.09454180 0.26997298
v -0.89479321 0.01552615 0.20998850
v -0.89217567 0.00998317 0.20998850
v -0.88367945 -0.00743766 0.20998850
v -0.87990332 -0.01986980 0.19961102
v -0.80309391 -0.10455878 0.28996783
v -0.79614246 -0.11457575 0.28996783
v -0.78249699 -0.12340494 0.30999571
v -0.77498770 -0.13342193 0.30999571
v -0.76202881 -0.14252827 0.32483482
v -0.76983845 -0.12981898 0.32959396
v -0.76739258 -0.12795812 0.33861640
v -0.58987278 -0.28648764 0.33861640
v -0.60060036 -0.28035074 0.33861640
v -0.60291749 -0.28177610 0.32999054
v -0.61025512 -0.28407249 0.30847543
v -0.61004061 -0.28961548 0.28996783
v -0.60922527 -0.29535642 0.27073312
v -0.61514693 -0.29713809 0.24997815
v -0.61089879 -0.30418563 0.22905795
v -0.61810774 -0.29888019 0.23510598
v -0.62068236 -0.30038470 0.22175406
v -0.62274206 -0.30157250 0.20998850
v -0.63604420 -0.29765281 0.18999368
v -0.65003300 -0.28898197 0.18999368
v -0.66479409 -0.28320146 0.16999884
v -0.67723811 -0.27801478 0.15000401
v -0.69182760 -0.26696840 0.15122683
v -0.70113909 -0.26087111 0.14537711
v -0.71255326 -0.25370482 0.13000919
v -0.71418387 -0.25509056 0.11001436
v -0.71555698 -0.25623876 0.09001952
v -0.71671557 -0.25718898 0.07002470
v -0.71753085 -0.25790164 0.05002987
v -0.72890204 -0.24792427 0.05002987
v -0.72945988 -0.24835978 0.03000198
v -0.72971737 -0.24859734 0.01000716
v -0.72976029 -0.24863693 0.00098470
v -0.89105999 -0.01001120 0.16999884
v -0.88299286 -0.02568994 0.16999884
v -0.89805436 0.00400466 0.16999884
v -0.87449664 -0.04829742 0.14891338
v -0.87908804 -0.03832003 0.15486227
v -0.90208793 0.01552615 0.17703834
v -0.90303195 0.01552615 0.17224620
v -0.85385680 -0.08816736 0.12865417
v -0.85780454 -0.07644790 0.15000401
v -0.86196685 -0.06334268 0.16999884
v -0.84128410 -0.10198525 0.15000401
v -0.84909374 -0.09002823 0.15000401
v -0.85801911 -0.09703615 0.00098470
v -0.84922248 -0.11002258 0.00098470
v -0.84917957 -0.11002258 0.01000716
v -0.84089792 -0.12126693 0.03000198
v -0.84038293 -0.12055426 0.05002987
v -0.83313113 -0.13057125 0.05002987
v -0.82240355 -0.14324093 0.07002470
v -0.83360314 -0.12807690 0.06833918
v -0.83866656 -0.11813910 0.09001952
v -0.84437358 -0.10645923 0.11001436
v -0.82145953 -0.14201355 0.09001952
v -0.83017033 -0.13001694 0.09001952
v -0.84295762 -0.10440040 0.13000919
v -0.85754704 -0.05582005 0.20998850
v -0.86329705 -0.04580308 0.20998850
v -0.84403032 -0.07039020 0.22826478
v -0.83828038 -0.07727934 0.23381706
v -0.87642759 -0.02957003 0.19177833
v -0.82514983 -0.09082008 0.24928413
v -0.81862748 -0.09798638 0.25549740
v -0.80558276 -0.11081444 0.26941115
v -0.89822602 0.01552615 0.19528157
v -0.89663833 0.01041868 0.19141480
v -0.88561040 -0.01191165 0.19177833
v -0.88131940 -0.02256212 0.18629216
v -0.79858834 -0.11805992 0.27569053
v -0.78511453 -0.13041288 0.28854671
v -0.77794850 -0.13734160 0.29423118
v -0.76498961 -0.14617079 0.30999571
v -0.75670791 -0.15618777 0.30999571
v -0.75353259 -0.14953619 0.33091593
v -0.75919670 -0.13904409 0.33818674
v -0.75911093 -0.13892531 0.33861640
v -0.61167121 -0.27310526 0.33861640
v -0.61291558 -0.27540165 0.32999054
v -0.61707789 -0.27809396 0.31412685
v -0.62042487 -0.28023198 0.30077493
v -0.62287080 -0.28181571 0.28996783
v -0.62737638 -0.28458720 0.26997298
v -0.63183904 -0.28660643 0.25149843
v -0.62840617 -0.29404986 0.22905795
v -0.63274014 -0.29563358 0.20998850
v -0.65089118 -0.28466636 0.20863348
v -0.66037434 -0.28023198 0.20106520
v -0.66200495 -0.28134060 0.18999368
v -0.67479223 -0.27627271 0.16999884
v -0.68830895 -0.26625574 0.16999884
v -0.69972306 -0.25976253 0.15869598
v -0.70864844 -0.25346726 0.15122683
v -0.72225100 -0.24202494 0.15000401
v -0.72413903 -0.24368784 0.13000919
v -0.72568381 -0.24507359 0.11001436
v -0.72701401 -0.24626137 0.09001952
v -0.72808677 -0.24721161 0.07002470
v -0.73890018 -0.23901589 0.05002987
v -0.73945796 -0.23949100 0.03000198
v -0.73525280 -0.24376702 0.00098470
v -0.73971546 -0.23972856 0.01000716
v -0.87762910 -0.03566733 0.16999884
v -0.89998531 0.01552615 0.18721753
v -0.86960489 -0.05003950 0.16999884
v -0.84488857 -0.09105764 0.16887517
v -0.85587358 -0.07332007 0.16999884
v -0.86063659 -0.06112549 0.18302028
v -0.83446133 -0.11196263 0.15000401
v -0.84025425 -0.10044113 0.16143908
v -0.84561801 -0.11532801 0.00098470
v -0.84115535 -0.12166286 0.01000716
v -0.83394641 -0.13167983 0.01000716
v -0.83364606 -0.13128391 0.03000198
v -0.82313305 -0.14419116 0.05002987
v -0.81472260 -0.15321831 0.07002470
v -0.82639420 -0.13183820 0.11103888
v -0.83750796 -0.11643662 0.11001436
v -0.83609194 -0.11441738 0.13000919
v -0.82060134 -0.14086536 0.10505696
v -0.81377858 -0.15199094 0.09001952
v -0.85917765 -0.05863114 0.19637220
v -0.84896505 -0.07003386 0.20998850
v -0.84012550 -0.08020921 0.22046514
v -0.86484182 -0.05118769 0.18979537
v -0.82064426 -0.10099543 0.24217853
v -0.80073386 -0.12106897 0.26233861
v -0.79283839 -0.12863119 0.26941115
v -0.78030860 -0.14042984 0.28091231
v -0.76979554 -0.14973415 0.28933990
v -0.75915384 -0.15903845 0.29780051
v -0.74670982 -0.16759050 0.30999571
v -0.74250460 -0.16287896 0.32999054
v -0.74065948 -0.16078053 0.33861640
v -0.62638938 -0.26328626 0.33861640
v -0.63012260 -0.26443446 0.32837111
v -0.64033526 -0.26023763 0.32063758
v -0.62827748 -0.27247179 0.30847543
v -0.63286889 -0.27528289 0.28996783
v -0.63737446 -0.27825233 0.26997298
v -0.63969159 -0.27975687 0.25919890
v -0.64235204 -0.28145936 0.24584700
v -0.64531285 -0.28339940 0.22998333
v -0.65810013 -0.27868786 0.21441711
v -0.66822696 -0.27282813 0.20863348
v -0.68268770 -0.26201931 0.20998850
v -0.67200303 -0.27425349 0.18999368
v -0.68564850 -0.26427609 0.18999368
v -0.69830704 -0.25865391 0.16999884
v -0.71156633 -0.24736997 0.17019714
v -0.72083491 -0.24075797 0.16368642
v -0.73224908 -0.23276022 0.15000401
v -0.73413712 -0.23450232 0.13000919
v -0.73568189 -0.23596725 0.11001436
v -0.73701209 -0.23723421 0.09001952
v -0.73808485 -0.23822403 0.07002470
v -0.74846917 -0.22824666 0.07002470
v -0.74928445 -0.22899891 0.05002987
v -0.75975454 -0.21977380 0.03000198
v -0.75996912 -0.21997176 0.01906267
v -0.73975837 -0.23976815 0.00098470
v -0.75198781 -0.22785072 0.01146133
v -0.76009786 -0.22009054 0.00574380
v -0.83892405 -0.09842189 0.17475794
v -0.84377289 -0.08591057 0.18999368
v -0.85454333 -0.06868771 0.18979537
v -0.83343148 -0.10828050 0.16887517
v -0.82446325 -0.12629522 0.15000401
v -0.82257521 -0.12368210 0.16999884
v -0.84119827 -0.12170245 0.00098470
v -0.83394641 -0.13171943 0.00098470
v -0.82944083 -0.13785630 0.00098470
v -0.82394832 -0.14529976 0.00098470
v -0.82390541 -0.14526017 0.01000716
v -0.82364798 -0.14486423 0.03000198
v -0.81545210 -0.15416855 0.05002987
v -0.80472451 -0.16584842 0.07002470
v -0.81978601 -0.13971718 0.11837583
v -0.82609385 -0.12855200 0.13000919
v -0.81395024 -0.14854637 0.11103888
v -0.80373758 -0.16466063 0.09001952
v -0.80257899 -0.16323529 0.11001436
v -0.84141278 -0.08226804 0.20998850
v -0.83493334 -0.09224542 0.20998850
v -0.82231772 -0.10348977 0.22998333
v -0.81545210 -0.11346716 0.22998333
v -0.80257899 -0.12364250 0.24997815
v -0.81326365 -0.10859724 0.24928413
v -0.79524136 -0.13361989 0.24997815
v -0.78206789 -0.14272623 0.26997298
v -0.77412951 -0.15274321 0.26997298
v -0.76159972 -0.16192873 0.28444859
v -0.75078630 -0.17091629 0.29208297
v -0.73988712 -0.17990385 0.29971737
v -0.73774159 -0.17756788 0.30999571
v -0.73345053 -0.17289594 0.32999054
v -0.72152150 -0.18164594 0.33861640
v -0.63514310 -0.25718898 0.33861640
v -0.63685954 -0.25774327 0.33395645
v -0.64818782 -0.24752834 0.33861640
v -0.64977551 -0.24982472 0.32949477
v -0.66247696 -0.24194576 0.32506621
v -0.65290797 -0.25469464 0.30999571
v -0.64290988 -0.26201931 0.30999571
v -0.64754421 -0.26526591 0.28996783
v -0.65192103 -0.26772067 0.27175766
v -0.64938933 -0.27524328 0.25149843
v -0.65531093 -0.27682701 0.22998333
v -0.67105901 -0.26578063 0.22925624
v -0.68075675 -0.26055437 0.22211760
v -0.69268578 -0.25410074 0.20998850
v -0.69564658 -0.25651592 0.18999368
v -0.70757568 -0.24649893 0.18999368
v -0.71924728 -0.23933263 0.17700529
v -0.73975837 -0.21973419 0.17895521
v -0.74121732 -0.22119913 0.16566938
v -0.74284792 -0.22278285 0.15000401
v -0.74460721 -0.22452493 0.13000919
v -0.74615198 -0.22598986 0.11001436
v -0.74743932 -0.22721724 0.09001952
v -0.75846726 -0.21846724 0.07002470
v -0.75928253 -0.21925908 0.05002987
v -0.76910901 -0.20975682 0.03000198
v -0.77940744 -0.19934392 0.01000716
v -0.76009786 -0.22009054 0.00098470
v -0.77945036 -0.19938351 0.00098470
v -0.82107335 -0.12154409 0.18483798
v -0.82648003 -0.11168548 0.19088601
v -0.83729345 -0.09592755 0.18999368
v -0.81888491 -0.13856898 0.13000919
v -0.81725430 -0.13627261 0.15000401
v -0.81536627 -0.13369907 0.16999884
v -0.81631029 -0.15527713 0.00098470
v -0.81626737 -0.15523756 0.01000716
v -0.81596702 -0.15484162 0.03000198
v -0.80545402 -0.16675904 0.05002987
v -0.79725814 -0.17677602 0.05002987
v -0.79648578 -0.17582580 0.07002470
v -0.79554170 -0.17467761 0.09001952
v -0.80116296 -0.16149321 0.13000919
v -0.81008828 -0.15001130 0.13000919
v -0.79434025 -0.17325227 0.11001436
v -0.82493526 -0.10733027 0.20998850
v -0.81811255 -0.11730766 0.20998850
v -0.80545402 -0.12752259 0.22998333
v -0.79811633 -0.13753957 0.22998333
v -0.78524327 -0.14672510 0.24997815
v -0.77734774 -0.15674207 0.24997815
v -0.76413143 -0.16485859 0.26997298
v -0.75537771 -0.17487557 0.26997298
v -0.74241883 -0.18263575 0.28636545
v -0.73366511 -0.18956450 0.29181859
v -0.72010547 -0.20013577 0.30034530
v -0.72628456 -0.19035634 0.30817801
v -0.72345245 -0.18366517 0.32999054
v -0.71371186 -0.19360296 0.32999054
v -0.70173985 -0.20167989 0.33861640
v -0.65917289 -0.23929304 0.33861640
v -0.66947132 -0.23371045 0.33101505
v -0.67595077 -0.23660073 0.30999571
v -0.67882580 -0.23901589 0.29723868
v -0.66595268 -0.24471726 0.30999571
v -0.65754229 -0.25817880 0.28996783
v -0.65985942 -0.25988129 0.27962339
v -0.66256279 -0.26186094 0.26630452
v -0.66573817 -0.26419690 0.24997815
v -0.67843956 -0.25877270 0.23543647
v -0.68843770 -0.25243783 0.22925624
v -0.70169693 -0.24143106 0.22998333
v -0.70478648 -0.24412335 0.20998850
v -0.71757376 -0.23782811 0.18999368
v -0.72834426 -0.22781113 0.18999368
v -0.74812585 -0.20837107 0.18999368
v -0.75958294 -0.19954188 0.17812897
v -0.75040013 -0.21042989 0.17188266
v -0.73834234 -0.21838805 0.18999368
v -0.76099896 -0.20108600 0.16484316
v -0.75284600 -0.21264710 0.15000401
v -0.75460529 -0.21450795 0.13000919
v -0.75615007 -0.21605207 0.11001436
v -0.75743741 -0.21739823 0.09001952
v -0.76786458 -0.20845026 0.07002470
v -0.76859409 -0.20924211 0.05002987
v -0.77910709 -0.19898757 0.03000198
v -0.78811824 -0.18932694 0.01000716
v -0.79361075 -0.18303168 0.00098470
v -0.81957150 -0.11944567 0.19818990
v -0.81433642 -0.12894794 0.19088601
v -0.80026186 -0.16034502 0.14151034
v -0.80592602 -0.15131786 0.14891338
v -0.80536819 -0.14696266 0.16999884
v -0.80322266 -0.14423075 0.18999368
v -0.81180471 -0.16093890 0.00098470
v -0.80631220 -0.16782805 0.00098470
v -0.80626929 -0.16774887 0.01000716
v -0.80596894 -0.16739254 0.03000198
v -0.78726006 -0.18841630 0.05002987
v -0.78648764 -0.18754527 0.07002470
v -0.79777306 -0.17740951 0.03000198
v -0.78554362 -0.18647626 0.09001952
v -0.78434217 -0.18509051 0.11001436
v -0.79292423 -0.17147060 0.13000919
v -0.78288317 -0.18342762 0.13000919
v -0.80729914 -0.13175902 0.21127743
v -0.79966110 -0.13959840 0.21881267
v -0.78717422 -0.15147623 0.23044603
v -0.77923584 -0.15911764 0.23738638
v -0.76606238 -0.17075792 0.24849094
v -0.75808108 -0.17788462 0.25417542
v -0.74537963 -0.18584277 0.26997298
v -0.73593938 -0.19582015 0.26997298
v -0.72216517 -0.20215501 0.28996783
v -0.71036482 -0.20631224 0.30817801
v -0.71731627 -0.19728509 0.31366420
v -0.69993764 -0.21989258 0.29975042
v -0.70371372 -0.20358035 0.32999054
v -0.69302905 -0.21359731 0.32999054
v -0.68101418 -0.22084279 0.33861640
v -0.68303096 -0.22262448 0.32999054
v -0.68762237 -0.22658375 0.30999571
v -0.68165785 -0.24135187 0.28388676
v -0.67131650 -0.24733037 0.29033136
v -0.69079775 -0.23066181 0.29181859
v -0.66955715 -0.25481340 0.27175766
v -0.67573625 -0.25667429 0.24997815
v -0.69058317 -0.24535073 0.24809435
v -0.70006639 -0.24004531 0.24016252
v -0.71478456 -0.23529416 0.20998850
v -0.72559798 -0.22527719 0.20998850
v -0.74550831 -0.20567876 0.20998850
v -0.75812399 -0.19799776 0.18999368
v -0.76709223 -0.18798079 0.18999368
v -0.77884960 -0.17867649 0.17449355
v -0.76992428 -0.18992083 0.16966835
v -0.73559606 -0.21569574 0.20998850
v -0.78022277 -0.18029979 0.16120774
v -0.77245599 -0.19146495 0.15000401
v -0.76245791 -0.20263012 0.15000401
v -0.76417434 -0.20449097 0.13000919
v -0.76563329 -0.20607468 0.11001436
v -0.76683474 -0.20738125 0.09001952
v -0.77786267 -0.19756223 0.07002470
v -0.77859217 -0.19843328 0.05002987
v -0.78777498 -0.18901020 0.03000198
v -0.79811633 -0.17776585 0.01000716
v -0.79811633 -0.17780544 0.00098470
v -0.80137753 -0.14185518 0.20546076
v -0.79906034 -0.15884049 0.15486227
v -0.78125262 -0.18148756 0.15000401
v -0.79755849 -0.15697964 0.16999884
v -0.79541302 -0.15420814 0.18999368
v -0.77683282 -0.19641405 0.09001952
v -0.77563137 -0.19502831 0.11001436
v -0.77417243 -0.19340500 0.13000919
v -0.79416859 -0.14910066 0.21127743
v -0.78112388 -0.16141403 0.22406751
v -0.77301383 -0.16885747 0.23044603
v -0.76026946 -0.18033938 0.24085656
v -0.73851395 -0.19847287 0.25569570
v -0.72594124 -0.20587672 0.26997298
v -0.71568573 -0.21589370 0.26997298
v -0.69762045 -0.21779415 0.30999571
v -0.70255518 -0.22234732 0.28643155
v -0.68444705 -0.24360865 0.26997298
v -0.69444513 -0.23521498 0.26997298
v -0.69762045 -0.23794688 0.25348139
v -0.70920622 -0.22927606 0.24776387
v -0.72070622 -0.22064483 0.24204633
v -0.71169508 -0.23244348 0.22998333
v -0.72259426 -0.22246611 0.22998333
v -0.74263334 -0.20274889 0.22998333
v -0.75550646 -0.19518667 0.20998850
v -0.76460344 -0.18520929 0.20998850
v -0.77709031 -0.17661765 0.18999368
v -0.78541493 -0.16660067 0.18999368
v -0.78618729 -0.17119344 0.16874297
v -0.73259234 -0.21272628 0.22998333
v -0.78296900 -0.16367081 0.20998850
v -0.77460152 -0.17364819 0.20998850
v -0.76185715 -0.18212105 0.22998333
v -0.75263143 -0.19205885 0.22998333
v -0.74074531 -0.20076926 0.24234378
v -0.72958863 -0.20959845 0.24885449
v -0.71838903 -0.21842764 0.25536519
v -0.70568758 -0.22519800 0.26997298
f 1 2 3
f 1 3 4
f 1 4 8
f 1 8 17
f 1 17 31
f 1 31 57
f 1 57 56
f 1 56 95
f 1 95 140
f 1 140 191
f 1 191 249
f 1 249 312
f 1 312 315
f 1 315 314
f 1 314 377
f 1 377 442
f 1 442 441
f 1 441 507
f 1 507 469
f 1 469 399
f 1 399 333
f 1 333 326
f 1 326 261
f 1 261 202
f 1 202 149
f 1 149 102
f 1 102 63
f 1 63 35
f 1 35 18
f 1 18 9
f 1 9 5
f 1 5 10
f 1 10 20
f 1 20 39
f 1 39 69
f 1 69 109
f 1 109 158
f 1 158 213
f 1 213 274
f 1 274 343
f 1 343 409
f 1 409 480
f 1 480 537
f 1 537 600
f 1 600 660
f 1 660 721
f 1 721 661
f 1 661 603
f 1 603 601
f 1 601 538
f 1 538 481
f 1 481 411
f 1 411 410
f 1 410 344
f 1 344 275
f 1 275 215
f 1 215 214
f 1 214 159
f 1 159 110
f 1 110 71
f 1 71 70
f 1 70 40
f 1 40 21
f 1 21 11
f 1 11 6
f 1 6 2
f 2 6 12
f 2 12 23
f 2 23 45
f 2 45 79
f 2 79 78
f 2 78 122
f 2 122 121
f 2 121 120
f 2 120 170
f 2 170 226
f 2 226 288
f 2 288 353
f 2 353 352
f 2 352 289
f 2 289 227
f 2 227 171
f 2 171 123
f 2 123 80
f 2 80 46
f 2 46 24
f 2 24 13
f 2 13 7
f 2 7 3
f 3 7 14
f 3 14 28
f 3 28 54
f 3 54 92
f 3 92 137
f 3 137 185
f 3 185 187
f 3 187 245
f 3 245 307
f 3 307 371
f 3 371 370
f 3 370 435
f 3 435 504
f 3 504 564
f 3 564 628
f 3 628 629
f 3 629 689
f 3 689 749
f 3 749 697
f 3 697 696
f 3 696 636
f 3 636 576
f 3 576 575
f 3 575 574
f 3 574 573
f 3 573 514
f 3 514 449
f 3 449 448
f 3 448 382
f 3 382 381
f 3 381 319
f 3 319 254
f 3 254 195
f 3 195 194
f 3 194 143
f 3 143 98
f 3 98 97
f 3 97 59
f 3 59 32
f 3 32 29
f 3 29 15
f 3 15 8
f 3 8 4
f 5 9 10
f 6 11 12
f 7 13 14
f 8 15 16
f 8 16 17
f 9 18 19
f 9 19 10
f 10 19 20
f 11 21 12
f 12 21 22
f 12 22 23
f 13 24 25
f 13 25 26
f 13 26 27
f 13 27 14
f 14 27 53
f 14 53 28
f 15 29 16
f 16 30 31
f 16 31 17
f 16 29 32
f 16 32 33
f 16 33 34
f 16 34 30
f 18 35 36
f 18 36 19
f 19 36 37
f 19 37 20
f 20 37 38
f 20 38 39
f 21 40 22
f 22 40 41
f 22 41 42
f 22 42 43
f 22 43 23
f 23 43 44
f 23 44 45
f 24 46 47
f 24 47 48
f 24 48 49
f 24 49 50
f 24 50 25
f 25 50 51
f 25 51 52
f 25 52 26
f 26 52 53
f 26 53 27
f 28 53 54
f 30 55 56
f 30 56 57
f 30 57 31
f 30 34 58
f 30 58 55
f 32 59 60
f 32 60 33
f 33 60 34
f 34 60 61
f 34 61 62
f 34 62 58
f 35 63 64
f 35 64 36
f 36 64 65
f 36 65 66
f 36 66 37
f 37 67 38
f 37 66 67
f 38 67 68
f 38 68 69
f 38 69 39
f 40 70 41
f 41 70 71
f 41 71 72
f 41 72 73
f 41 73 42
f 42 74 75
f 42 75 43
f 42 73 76
f 42 76 74
f 43 75 44
f 44 75 77
f 44 77 78
f 44 78 79
f 44 79 45
f 46 80 47
f 47 81 82
f 47 82 83
f 47 83 84
f 47 84 48
f 47 80 81
f 48 84 49
f 49 84 85
f 49 85 86
f 49 86 50
f 50 86 51
f 51 86 87
f 51 87 88
f 51 88 89
f 51 89 52
f 52 89 90
f 52 90 53
f 53 90 54
f 54 90 91
f 54 91 92
f 55 93 56
f 55 58 94
f 55 94 93
f 56 93 95
f 58 62 96
f 58 96 94
f 59 97 60
f 60 97 98
f 60 98 99
f 60 99 100
f 60 100 61
f 61 100 62
f 62 100 101
f 62 101 96
f 63 102 64
f 64 102 103
f 64 103 65
f 65 104 66
f 65 103 105
f 65 105 104
f 66 104 106
f 66 106 67
f 67 106 107
f 67 107 68
f 68 107 108
f 68 108 109
f 68 109 69
f 71 110 111
f 71 111 112
f 71 112 72
f 72 112 73
f 73 112 113
f 73 113 76
f 74 76 114
f 74 114 115
f 74 115 116
f 74 116 75
f 75 116 77
f 76 113 117
f 76 117 118
f 76 118 114
f 77 116 119
f 77 119 120
f 77 120 121
f 77 121 122
f 77 122 78
f 80 123 124
f 80 124 125
f 80 125 126
f 80 126 127
f 80 127 81
f 81 127 82
f 82 128 129
f 82 129 83
f 82 127 128
f 83 129 130
f 83 130 84
f 84 130 85
f 85 130 131
f 85 131 87
f 85 87 86
f 87 131 132
f 87 132 133
f 87 133 88
f 88 133 134
f 88 134 89
f 89 134 135
f 89 135 90
f 90 135 91
f 91 135 136
f 91 136 137
f 91 137 92
f 93 94 138
f 93 138 139
f 93 139 140
f 93 140 95
f 94 96 141
f 94 141 138
f 96 101 142
f 96 142 141
f 98 143 144
f 98 144 99
f 99 144 100
f 100 144 145
f 100 145 146
f 100 146 147
f 100 147 101
f 101 147 148
f 101 148 142
f 102 149 103
f 103 149 105
f 104 105 150
f 104 150 151
f 104 151 106
f 105 149 152
f 105 152 153
f 105 153 150
f 106 154 107
f 106 151 154
f 107 154 155
f 107 155 108
f 108 155 156
f 108 156 157
f 108 157 109
f 109 157 158
f 110 159 160
f 110 160 111
f 111 160 112
f 112 160 161
f 112 161 113
f 113 161 162
f 113 162 163
f 113 163 117
f 114 164 165
f 114 165 115
f 114 118 166
f 114 166 164
f 115 165 167
f 115 167 116
f 116 167 119
f 117 163 118
f 118 163 168
f 118 168 166
f 119 167 169
f 119 169 170
f 119 170 120
f 123 171 172
f 123 172 124
f 124 172 173
f 124 173 174
f 124 174 125
f 125 174 126
f 126 174 127
f 127 174 175
f 127 175 176
f 127 176 128
f 128 176 177
f 128 177 129
f 129 177 178
f 129 178 130
f 130 178 179
f 130 179 131
f 131 179 180
f 131 180 132
f 132 180 181
f 132 181 182
f 132 182 133
f 133 182 183
f 133 183 134
f 134 183 184
f 134 184 135
f 135 184 136
f 136 185 137
f 136 184 243
f 136 243 186
f 136 186 187
f 136 187 185
f 138 188 139
f 138 141 189
f 138 189 247
f 138 247 188
f 139 190 191
f 139 191 140
f 139 188 190
f 141 142 192
f 141 192 189
f 142 148 193
f 142 193 192
f 143 194 144
f 144 194 195
f 144 195 196
f 144 196 197
f 144 197 145
f 145 197 146
f 146 198 199
f 146 199 200
f 146 200 147
f 146 197 198
f 147 200 201
f 147 201 148
f 148 201 193
f 149 202 152
f 150 203 204
f 150 204 151
f 150 153 203
f 151 204 205
f 151 205 154
f 152 202 206
f 152 206 153
f 153 206 207
f 153 207 203
f 154 208 209
f 154 209 155
f 154 205 208
f 155 209 156
f 156 210 211
f 156 211 212
f 156 212 157
f 156 209 210
f 157 212 213
f 157 213 158
f 159 214 160
f 160 214 215
f 160 215 216
f 160 216 217
f 160 217 161
f 161 217 218
f 161 218 162
f 162 218 163
f 163 218 219
f 163 219 168
f 164 220 165
f 164 166 221
f 164 221 222
f 164 222 220
f 165 223 169
f 165 169 167
f 165 220 223
f 166 168 224
f 166 224 221
f 168 219 225
f 168 225 224
f 169 226 170
f 169 223 226
f 171 227 228
f 171 228 172
f 172 228 229
f 172 229 230
f 172 230 173
f 173 231 232
f 173 232 175
f 173 175 174
f 173 230 231
f 175 233 176
f 175 232 233
f 176 233 234
f 176 234 177
f 177 234 235
f 177 235 178
f 178 235 236
f 178 236 179
f 179 236 237
f 179 237 180
f 180 237 181
f 181 238 239
f 181 239 240
f 181 240 182
f 181 237 238
f 182 240 241
f 182 241 242
f 182 242 183
f 183 242 184
f 184 242 243
f 186 243 244
f 186 244 187
f 187 244 245
f 188 246 190
f 188 247 246
f 189 192 248
f 189 248 247
f 190 249 191
f 190 246 250
f 190 250 249
f 192 193 251
f 192 251 248
f 193 201 252
f 193 252 253
f 193 253 251
f 195 254 255
f 195 255 196
f 196 255 197
f 197 255 198
f 198 255 256
f 198 256 199
f 199 256 257
f 199 257 258
f 199 258 259
f 199 259 200
f 200 259 201
f 201 259 260
f 201 260 252
f 202 261 206
f 203 262 204
f 203 207 263
f 203 263 262
f 204 262 264
f 204 264 205
f 205 264 265
f 205 265 208
f 206 261 266
f 206 266 267
f 206 267 207
f 207 267 268
f 207 268 263
f 208 265 269
f 208 269 209
f 209 269 270
f 209 270 210
f 210 270 271
f 210 271 211
f 211 272 273
f 211 273 213
f 211 213 212
f 211 271 272
f 213 273 274
f 215 275 276
f 215 276 277
f 215 277 216
f 216 277 217
f 217 277 278
f 217 278 279
f 217 279 218
f 218 279 280
f 218 280 219
f 219 280 281
f 219 281 225
f 220 222 282
f 220 282 283
f 220 283 284
f 220 284 223
f 221 230 285
f 221 285 222
f 221 224 286
f 221 286 231
f 221 231 230
f 222 285 282
f 223 284 226
f 224 225 287
f 224 287 286
f 225 281 287
f 226 284 288
f 227 289 229
f 227 229 228
f 229 285 230
f 229 289 285
f 231 286 290
f 231 290 291
f 231 291 232
f 232 291 292
f 232 292 233
f 233 292 293
f 233 293 234
f 234 293 294
f 234 294 235
f 235 294 295
f 235 295 296
f 235 296 236
f 236 296 297
f 236 297 237
f 237 297 298
f 237 298 238
f 238 298 299
f 238 299 239
f 239 299 300
f 239 300 301
f 239 301 240
f 240 301 302
f 240 302 241
f 241 302 303
f 241 303 242
f 242 303 304
f 242 304 243
f 243 304 244
f 244 304 305
f 244 305 306
f 244 306 307
f 244 307 245
f 246 308 250
f 246 247 309
f 246 309 308
f 247 248 310
f 247 310 309
f 248 251 311
f 248 311 310
f 249 250 312
f 250 308 313
f 250 313 314
f 250 314 315
f 250 315 312
f 251 253 318
f 251 318 311
f 252 260 316
f 252 316 253
f 253 316 317
f 253 317 318
f 254 319 255
f 255 319 320
f 255 320 256
f 256 320 321
f 256 321 322
f 256 322 257
f 257 322 258
f 258 322 323
f 258 323 324
f 258 324 259
f 259 324 260
f 260 324 325
f 260 325 316
f 261 326 266
f 262 263 327
f 262 327 328
f 262 328 264
f 263 268 329
f 263 329 327
f 264 330 265
f 264 328 330
f 265 331 332
f 265 332 269
f 265 330 331
f 266 326 333
f 266 333 334
f 266 334 267
f 267 334 335
f 267 335 268
f 268 335 336
f 268 336 329
f 269 332 270
f 270 332 337
f 270 337 338
f 270 338 271
f 271 338 272
f 272 338 339
f 272 339 340
f 272 340 341
f 272 341 273
f 273 341 274
f 274 341 342
f 274 342 343
f 275 344 345
f 275 345 276
f 276 345 277
f 277 345 346
f 277 346 278
f 278 346 347
f 278 347 348
f 278 348 279
f 279 348 280
f 280 348 349
f 280 349 281
f 281 350 287
f 281 349 351
f 281 351 350
f 282 285 289
f 282 289 352
f 282 352 283
f 283 352 353
f 283 353 288
f 283 288 284
f 286 287 290
f 287 350 290
f 290 350 354
f 290 354 291
f 291 354 292
f 292 354 293
f 293 354 355
f 293 355 356
f 293 356 294
f 294 357 295
f 294 356 357
f 295 357 358
f 295 358 359
f 295 359 296
f 296 359 297
f 297 359 360
f 297 360 298
f 298 360 361
f 298 361 299
f 299 361 362
f 299 362 300
f 300 362 363
f 300 363 364
f 300 364 301
f 301 364 365
f 301 365 302
f 302 365 366
f 302 366 303
f 303 366 367
f 303 367 304
f 304 367 305
f 305 367 368
f 305 368 369
f 305 369 306
f 306 369 370
f 306 370 371
f 306 371 307
f 308 309 372
f 308 372 373
f 308 373 313
f 309 310 374
f 309 374 375
f 309 375 372
f 310 311 374
f 311 318 374
f 313 373 376
f 313 376 314
f 314 376 377
f 316 325 378
f 316 378 317
f 317 379 318
f 317 378 380
f 317 380 379
f 318 379 374
f 319 381 320
f 320 381 382
f 320 382 383
f 320 383 321
f 321 383 384
f 321 384 322
f 322 384 385
f 322 385 386
f 322 386 387
f 322 387 323
f 323 388 389
f 323 389 324
f 323 387 390
f 323 390 388
f 324 389 391
f 324 391 325
f 325 391 378
f 327 392 393
f 327 393 328
f 327 329 392
f 328 393 394
f 328 394 330
f 329 336 395
f 329 395 392
f 330 394 396
f 330 396 397
f 330 397 331
f 331 397 332
f 332 398 337
f 332 397 398
f 333 399 334
f 334 399 400
f 334 400 335
f 335 400 401
f 335 401 336
f 336 402 395
f 336 401 402
f 337 403 338
f 337 398 403
f 338 403 404
f 338 404 339
f 339 404 405
f 339 405 340
f 340 405 406
f 340 406 407
f 340 407 408
f 340 408 342
f 340 342 341
f 342 408 409
f 342 409 343
f 344 410 345
f 345 410 411
f 345 411 412
f 345 412 346
f 346 412 413
f 346 413 347
f 347 413 414
f 347 414 348
f 348 414 415
f 348 415 349
f 349 415 416
f 349 416 351
f 350 351 417
f 350 417 355
f 350 355 354
f 351 416 418
f 351 418 419
f 351 419 417
f 355 417 419
f 355 419 420
f 355 420 356
f 356 420 421
f 356 421 357
f 357 421 422
f 357 422 358
f 358 422 423
f 358 423 359
f 359 423 360
f 360 423 424
f 360 424 361
f 361 424 425
f 361 425 426
f 361 426 362
f 362 426 363
f 363 426 427
f 363 427 428
f 363 428 364
f 364 428 429
f 364 429 365
f 365 429 430
f 365 430 366
f 366 430 431
f 366 431 367
f 367 431 368
f 368 431 432
f 368 432 433
f 368 433 369
f 369 433 434
f 369 434 435
f 369 435 370
f 372 436 373
f 372 375 437
f 372 437 436
f 373 436 438
f 373 438 376
f 374 379 439
f 374 439 440
f 374 440 375
f 375 440 437
f 376 441 442
f 376 442 377
f 376 438 441
f 378 391 443
f 378 443 380
f 379 380 444
f 379 444 445
f 379 445 439
f 380 443 446
f 380 446 447
f 380 447 444
f 382 448 383
f 383 448 449
f 383 449 450
f 383 450 384
f 384 450 451
f 384 451 385
f 385 451 452
f 385 452 386
f 386 452 453
f 386 453 454
f 386 454 455
f 386 455 390
f 386 390 387
f 388 390 456
f 388 456 521
f 388 521 457
f 388 457 389
f 389 457 391
f 390 455 458
f 390 458 459
f 390 459 456
f 391 457 460
f 391 460 443
f 392 461 393
f 392 395 462
f 392 462 461
f 393 461 463
f 393 463 394
f 394 463 464
f 394 464 396
f 395 402 465
f 395 465 462
f 396 464 466
f 396 466 397
f 397 466 467
f 397 467 398
f 398 467 468
f 398 468 403
f 399 469 400
f 400 469 470
f 400 470 401
f 401 470 471
f 401 471 402
f 402 471 472
f 402 472 465
f 403 473 404
f 403 468 473
f 404 474 405
f 404 473 474
f 405 474 475
f 405 475 406
f 406 475 476
f 406 476 407
f 407 476 477
f 407 477 478
f 407 478 479
f 407 479 480
f 407 480 408
f 408 480 409
f 411 481 482
f 411 482 483
f 411 483 412
f 412 483 413
f 413 483 484
f 413 484 414
f 414 484 485
f 414 485 486
f 414 486 415
f 415 486 416
f 416 486 487
f 416 487 488
f 416 488 418
f 418 488 419
f 419 488 489
f 419 489 420
f 420 489 421
f 421 489 490
f 421 490 422
f 422 490 491
f 422 491 492
f 422 492 423
f 423 493 424
f 423 492 493
f 424 493 494
f 424 494 425
f 425 494 495
f 425 495 426
f 426 495 496
f 426 496 427
f 427 496 497
f 427 497 498
f 427 498 428
f 428 498 499
f 428 499 500
f 428 500 429
f 429 500 430
f 430 500 501
f 430 501 432
f 430 432 431
f 432 501 502
f 432 502 503
f 432 503 433
f 433 503 505
f 433 505 434
f 434 504 435
f 434 505 504
f 436 437 472
f 436 472 471
f 436 471 438
f 437 440 506
f 437 506 465
f 437 465 472
f 438 471 470
f 438 470 507
f 438 507 441
f 439 445 508
f 439 508 440
f 440 508 506
f 443 460 446
f 444 447 509
f 444 509 510
f 444 510 445
f 445 510 511
f 445 511 508
f 446 460 512
f 446 512 513
f 446 513 447
f 447 513 509
f 449 514 450
f 450 514 515
f 450 515 451
f 451 515 516
f 451 516 517
f 451 517 453
f 451 453 452
f 453 518 454
f 453 517 518
f 454 458 455
f 454 518 579
f 454 579 519
f 454 519 524
f 454 524 458
f 456 459 520
f 456 520 521
f 457 521 522
f 457 522 460
f 458 523 459
f 458 524 523
f 459 523 520
f 460 522 512
f 461 462 525
f 461 525 526
f 461 526 527
f 461 527 463
f 462 465 528
f 462 528 525
f 463 527 464
f 464 527 529
f 464 529 466
f 465 506 528
f 466 529 467
f 467 529 530
f 467 530 468
f 468 530 473
f 469 507 470
f 473 530 531
f 473 531 532
f 473 532 474
f 474 532 475
f 475 533 476
f 475 532 533
f 476 533 534
f 476 534 477
f 477 534 535
f 477 535 536
f 477 536 537
f 477 537 478
f 478 480 479
f 478 537 480
f 481 538 482
f 482 538 539
f 482 539 483
f 483 539 540
f 483 540 541
f 483 541 484
f 484 541 542
f 484 542 543
f 484 543 485
f 485 543 486
f 486 543 544
f 486 544 487
f 487 544 545
f 487 545 546
f 487 546 488
f 488 546 489
f 489 546 490
f 490 546 547
f 490 547 491
f 491 547 548
f 491 548 549
f 491 549 550
f 491 550 492
f 492 550 493
f 493 550 551
f 493 551 494
f 494 551 552
f 494 552 495
f 495 552 553
f 495 553 554
f 495 554 496
f 496 554 497
f 497 555 556
f 497 556 498
f 497 554 555
f 498 556 557
f 498 557 499
f 499 557 558
f 499 558 500
f 500 558 559
f 500 559 501
f 501 559 502
f 502 559 560
f 502 560 561
f 502 561 503
f 503 561 562
f 503 562 563
f 503 563 505
f 504 505 564
f 505 563 565
f 505 565 566
f 505 566 564
f 506 508 528
f 508 511 528
f 509 513 567
f 509 567 568
f 509 568 510
f 510 569 511
f 510 568 569
f 511 569 525
f 511 525 528
f 512 570 513
f 512 522 571
f 512 571 572
f 512 572 570
f 513 570 567
f 514 573 515
f 515 573 516
f 516 574 575
f 516 575 576
f 516 576 577
f 516 577 578
f 516 578 517
f 516 573 574
f 517 578 518
f 518 578 638
f 518 638 579
f 519 580 524
f 519 579 580
f 520 523 581
f 520 581 521
f 521 581 582
f 521 582 522
f 522 582 571
f 523 524 583
f 523 583 581
f 524 580 584
f 524 584 585
f 524 585 583
f 525 569 526
f 526 569 586
f 526 586 527
f 527 586 587
f 527 587 588
f 527 588 529
f 529 588 589
f 529 589 590
f 529 590 591
f 529 591 530
f 530 591 590
f 530 590 592
f 530 592 531
f 531 592 593
f 531 593 532
f 532 593 594
f 532 594 595
f 532 595 533
f 533 595 534
f 534 596 597
f 534 597 535
f 534 595 596
f 535 597 598
f 535 598 536
f 536 598 599
f 536 599 537
f 537 599 600
f 538 601 602
f 538 602 540
f 538 540 539
f 540 602 603
f 540 603 604
f 540 604 605
f 540 605 606
f 540 606 607
f 540 607 541
f 541 607 542
f 542 607 608
f 542 608 543
f 543 608 609
f 543 609 544
f 544 609 610
f 544 610 545
f 545 610 611
f 545 611 546
f 546 611 547
f 547 611 612
f 547 612 548
f 548 612 613
f 548 613 549
f 549 613 614
f 549 614 615
f 549 615 551
f 549 551 550
f 551 615 552
f 552 616 553
f 552 615 616
f 553 617 554
f 553 616 617
f 554 617 618
f 554 618 619
f 554 619 555
f 555 619 620
f 555 620 556
f 556 620 621
f 556 621 622
f 556 622 557
f 557 622 558
f 558 622 623
f 558 623 559
f 559 623 560
f 560 623 624
f 560 624 625
f 560 625 561
f 561 625 562
f 562 625 626
f 562 626 563
f 563 566 565
f 563 626 627
f 563 627 566
f 564 566 628
f 566 627 629
f 566 629 628
f 567 570 630
f 567 630 631
f 567 631 632
f 567 632 568
f 568 632 586
f 568 586 569
f 570 572 630
f 571 582 633
f 571 633 634
f 571 634 635
f 571 635 572
f 572 635 630
f 576 636 637
f 576 637 577
f 577 637 578
f 578 637 638
f 579 638 639
f 579 639 580
f 580 639 640
f 580 640 641
f 580 641 642
f 580 642 584
f 581 633 582
f 581 583 643
f 581 643 644
f 581 644 633
f 583 585 643
f 584 642 585
f 585 642 645
f 585 645 643
f 586 632 587
f 587 632 646
f 587 646 588
f 588 646 647
f 588 647 589
f 589 647 648
f 589 648 590
f 590 649 592
f 590 648 649
f 592 650 593
f 592 649 650
f 593 650 651
f 593 651 594
f 594 651 652
f 594 652 595
f 595 652 653
f 595 653 596
f 596 653 654
f 596 654 597
f 597 654 655
f 597 655 656
f 597 656 657
f 597 657 658
f 597 658 598
f 598 658 599
f 599 658 600
f 600 658 659
f 600 659 660
f 601 603 602
f 603 661 604
f 604 661 605
f 605 662 663
f 605 663 664
f 605 664 665
f 605 665 606
f 605 661 662
f 606 666 607
f 606 665 666
f 607 666 608
f 608 666 667
f 608 667 609
f 609 667 668
f 609 668 610
f 610 668 669
f 610 669 611
f 611 669 612
f 612 669 670
f 612 670 613
f 613 670 671
f 613 671 614
f 614 671 672
f 614 672 673
f 614 673 615
f 615 673 616
f 616 673 674
f 616 674 617
f 617 674 675
f 617 675 618
f 618 676 677
f 618 677 678
f 618 678 619
f 618 675 679
f 618 679 676
f 619 678 680
f 619 680 681
f 619 681 620
f 620 681 682
f 620 682 621
f 621 682 683
f 621 683 622
f 622 683 684
f 622 684 623
f 623 684 624
f 624 684 744
f 624 744 685
f 624 685 625
f 625 685 686
f 625 686 626
f 626 687 627
f 626 686 687
f 627 688 629
f 627 687 688
f 629 688 689
f 630 690 631
f 630 635 691
f 630 691 690
f 631 690 632
f 632 690 646
f 633 644 692
f 633 692 693
f 633 693 634
f 634 693 694
f 634 694 635
f 635 694 695
f 635 695 691
f 636 696 637
f 637 696 697
f 637 697 698
f 637 698 699
f 637 699 638
f 638 699 639
f 639 699 702
f 639 702 640
f 640 700 701
f 640 701 641
f 640 702 700
f 641 701 703
f 641 703 642
f 642 703 704
f 642 704 645
f 643 692 644
f 643 645 705
f 643 705 692
f 645 704 706
f 645 706 705
f 646 690 647
f 647 690 707
f 647 707 708
f 647 708 648
f 648 708 649
f 649 708 709
f 649 709 650
f 650 710 651
f 650 709 710
f 651 711 652
f 651 710 711
f 652 711 712
f 652 712 653
f 653 712 713
f 653 713 654
f 654 713 714
f 654 714 655
f 655 714 715
f 655 715 656
f 656 716 717
f 656 717 657
f 656 715 718
f 656 718 716
f 657 717 658
f 658 717 659
f 659 717 719
f 659 719 660
f 660 719 720
f 660 720 721
f 661 721 662
f 662 721 722
f 662 722 663
f 663 722 723
f 663 723 664
f 664 724 725
f 664 725 665
f 664 723 718
f 664 718 726
f 664 726 724
f 665 725 666
f 666 725 667
f 667 725 724
f 667 724 727
f 667 727 668
f 668 727 728
f 668 728 669
f 669 728 670
f 670 728 729
f 670 729 730
f 670 730 671
f 671 730 672
f 672 730 731
f 672 731 673
f 673 731 674
f 674 731 732
f 674 732 675
f 675 732 679
f 676 679 733
f 676 733 734
f 676 734 677
f 677 734 735
f 677 735 736
f 677 736 737
f 677 737 680
f 677 680 678
f 679 732 738
f 679 738 733
f 680 737 739
f 680 739 740
f 680 740 741
f 680 741 681
f 681 741 682
f 682 741 742
f 682 742 683
f 683 742 743
f 683 743 684
f 684 743 744
f 685 744 745
f 685 745 746
f 685 746 686
f 686 746 687
f 687 746 747
f 687 747 688
f 688 747 748
f 688 748 689
f 689 748 749
f 690 691 750
f 690 750 707
f 691 695 750
f 692 751 693
f 692 705 752
f 692 752 739
f 692 739 751
f 693 751 694
f 694 751 753
f 694 753 695
f 695 753 754
f 695 754 750
f 697 749 748
f 697 748 698
f 698 748 699
f 699 748 702
f 700 702 747
f 700 747 746
f 700 746 745
f 700 745 701
f 701 745 703
f 702 748 747
f 703 745 755
f 703 755 756
f 703 756 704
f 704 756 757
f 704 757 706
f 705 706 752
f 706 757 752
f 707 750 708
f 708 750 758
f 708 758 759
f 708 759 709
f 709 759 710
f 710 759 760
f 710 760 761
f 710 761 711
f 711 761 712
f 712 761 762
f 712 762 713
f 713 762 714
f 714 762 763
f 714 763 715
f 715 763 764
f 715 764 718
f 716 718 719
f 716 719 717
f 718 765 719
f 718 764 766
f 718 766 726
f 718 723 722
f 718 722 765
f 719 765 720
f 720 765 722
f 720 722 721
f 724 767 727
f 724 726 768
f 724 768 767
f 726 766 768
f 727 767 728
f 728 767 729
f 729 769 730
f 729 767 769
f 730 769 770
f 730 770 771
f 730 771 772
f 730 772 731
f 731 772 773
f 731 773 732
f 732 773 738
f 733 774 775
f 733 775 734
f 733 738 774
f 734 775 776
f 734 776 735
f 735 776 777
f 735 777 736
f 736 777 778
f 736 778 753
f 736 753 779
f 736 779 739
f 736 739 737
f 738 773 780
f 738 780 774
f 739 779 751
f 739 752 740
f 740 757 741
f 740 752 757
f 741 757 742
f 742 757 756
f 742 756 743
f 743 756 755
f 743 755 744
f 744 755 745
f 750 754 781
f 750 781 758
f 751 779 753
f 753 778 754
f 754 778 781
f 758 781 759
f 759 781 782
f 759 782 783
f 759 783 760
f 760 783 761
f 761 783 784
f 761 784 785
f 761 785 762
f 762 786 787
f 762 787 763
f 762 785 786
f 763 787 764
f 764 787 788
f 764 788 766
f 766 788 768
f 767 768 769
f 768 788 769
f 769 788 787
f 769 787 770
f 770 787 771
f 771 787 786
f 771 786 785
f 771 785 780
f 771 780 773
f 771 773 772
f 774 785 784
f 774 784 775
f 774 780 785
f 775 784 783
f 775 783 776
f 776 783 782
f 776 782 777
f 777 782 781
f 777 781 778
