v -0.48216796 -0.38881794 0.00098470
v -0.48216796 -0.20877497 0.00098470
v -0.45812064 -0.43576273 0.00098470
v -0.45819920 -0.43585065 0.01003395
v -0.48216796 -0.38893515 0.01003395
v -0.48216796 -0.16350049 0.30086008
v 0.32066774 -0.24654765 0.00098470
v -0.45364124 -0.44197515 0.00098470
v -0.44814020 -0.44953555 0.00098470
v -0.44821876 -0.44956487 0.01003395
v -0.44790447 -0.44938904 0.03003754
v -0.45788485 -0.43503013 0.03003754
v -0.48216796 -0.38820255 0.03003754
v -0.48216796 -0.34524310 0.30086008
v -0.00019936 -0.24622531 0.30508703
v 0.32066774 -0.22424741 0.30508703
v 0.32066774 -0.43579203 0.00098470
v -0.44279635 -0.45504469 0.00098470
v -0.43847412 -0.45958677 0.01003395
v -0.43808115 -0.45935234 0.03003754
v -0.44711858 -0.44883227 0.05001138
v -0.45709902 -0.43318400 0.05001138
v -0.48216796 -0.36941877 0.17015204
v -0.48216796 -0.37237847 0.15002938
v -0.48216796 -0.38371906 0.07001498
v -0.48216796 -0.38591686 0.05441693
v -0.48216796 -0.38647363 0.05001138
v -0.44586122 -0.44774801 0.07001498
v -0.48216796 -0.34559473 0.29925263
v -0.44428951 -0.44601908 0.09004834
v -0.44232482 -0.44349897 0.11002217
v -0.44083166 -0.44133046 0.12332814
v -0.42700052 -0.44818759 0.15002938
v -0.42354274 -0.44478834 0.16997343
v -0.41269785 -0.45478094 0.16997343
v -0.39713782 -0.45885420 0.19560304
v -0.39352286 -0.45595309 0.20995086
v -0.37646967 -0.45847324 0.23519349
v -0.35918069 -0.45982122 0.25918591
v -0.35501564 -0.45700803 0.26996166
v -0.33458328 -0.45721316 0.29431129
v -0.33238286 -0.45440000 0.30086008
v -0.00019936 -0.43016571 0.30508703
v 0.32066774 -0.45776993 0.30508703
v 0.32066774 -0.46116918 0.25132737
v -0.40994734 -0.46210691 0.00098470
v -0.43839550 -0.45955747 0.00098470
v -0.42841506 -0.46181387 0.00098470
v -0.42849368 -0.46181387 0.01003395
v -0.42802215 -0.46184319 0.03003754
v -0.42700052 -0.46184319 0.05001138
v -0.43698096 -0.45882487 0.05001138
v -0.42542881 -0.46178457 0.07001498
v -0.42393565 -0.46157944 0.09004834
v -0.48216796 -0.35561666 0.24995807
v -0.48216796 -0.35842982 0.23444933
v -0.48216796 -0.36033458 0.22394148
v -0.48216796 -0.36083275 0.22105405
v -0.48216796 -0.36631256 0.18905425
v -0.43548781 -0.45776993 0.07001498
v -0.43391609 -0.45607030 0.09004834
v -0.48216796 -0.35171923 0.26990211
v -0.48216796 -0.34744087 0.29059038
v -0.43226582 -0.45352089 0.11002217
v -0.41882759 -0.45967469 0.13788433
v -0.42990822 -0.45050257 0.13062112
v -0.41623425 -0.45820951 0.15002938
v -0.40075278 -0.46043658 0.18226731
v -0.38087046 -0.46043658 0.22188753
v -0.36311001 -0.46096405 0.24585018
v -0.34503520 -0.46111059 0.26996166
v -0.34079158 -0.46031937 0.28100532
v -0.32153797 -0.46046591 0.30086008
v -0.31658703 -0.46116918 0.30086008
v 0.27147281 -0.46125710 0.30508703
v 0.31477380 -0.46081752 0.30508703
v 0.32066774 -0.46043658 0.30154473
v 0.32066774 -0.46204829 0.26969376
v 0.30998003 -0.46251714 0.28999501
v -0.40994734 -0.46272230 0.07001498
v -0.40994734 -0.46286881 0.09004834
v -0.42228538 -0.46111059 0.11002217
v -0.42094940 -0.46052450 0.12454860
v -0.40994734 -0.46266368 0.11002217
v -0.38354242 -0.46111059 0.20995086
v -0.40271741 -0.46111059 0.16997343
v -0.36986846 -0.46152085 0.22909121
v -0.35155785 -0.46184319 0.25150597
v -0.32994670 -0.46245855 0.26996166
v -0.32876790 -0.46111059 0.28856620
v -0.30927855 -0.46169665 0.30086008
v -0.29906234 -0.46239996 0.30086008
v 0.28986198 -0.46225342 0.30508703
v 0.30895841 -0.46143293 0.30508703
v 0.32066774 -0.46166736 0.28904247
v 0.32066774 -0.46046591 0.30139589
v -0.36994702 -0.46257576 0.20995086
v -0.38990790 -0.46263438 0.16997343
v -0.40625381 -0.46169665 0.15002938
v -0.39022225 -0.46160874 0.18935192
f 1 2 7
f 1 7 17
f 1 17 46
f 1 46 48
f 1 48 47
f 1 47 18
f 1 18 9
f 1 9 8
f 1 8 3
f 1 3 4
f 1 4 5
f 1 5 13
f 1 13 27
f 1 27 26
f 1 26 25
f 1 25 24
f 1 24 23
f 1 23 59
f 1 59 58
f 1 58 57
f 1 57 56
f 1 56 55
f 1 55 62
f 1 62 63
f 1 63 29
f 1 29 14
f 1 14 6
f 1 6 2
f 2 6 7
f 3 8 4
f 4 8 9
f 4 9 10
f 4 10 11
f 4 11 12
f 4 12 13
f 4 13 5
f 6 14 43
f 6 43 15
f 6 15 16
f 6 16 7
f 7 16 44
f 7 44 77
f 7 77 96
f 7 96 95
f 7 95 78
f 7 78 45
f 7 45 17
f 9 18 10
f 10 18 19
f 10 19 11
f 11 19 20
f 11 20 21
f 11 21 12
f 12 22 23
f 12 23 24
f 12 24 25
f 12 25 26
f 12 26 27
f 12 27 13
f 12 21 28
f 12 28 22
f 14 29 30
f 14 30 31
f 14 31 32
f 14 32 33
f 14 33 34
f 14 34 35
f 14 35 36
f 14 36 37
f 14 37 38
f 14 38 39
f 14 39 40
f 14 40 41
f 14 41 42
f 14 42 43
f 15 43 75
f 15 75 93
f 15 93 94
f 15 94 76
f 15 76 44
f 15 44 16
f 17 45 46
f 18 47 19
f 19 47 48
f 19 48 49
f 19 49 50
f 19 50 51
f 19 51 20
f 20 52 21
f 20 51 53
f 20 53 54
f 20 54 52
f 21 52 28
f 22 55 56
f 22 56 57
f 22 57 58
f 22 58 59
f 22 59 23
f 22 28 55
f 28 52 60
f 28 60 61
f 28 61 30
f 28 30 62
f 28 62 55
f 29 63 30
f 30 61 64
f 30 64 31
f 30 63 62
f 31 64 65
f 31 65 66
f 31 66 33
f 31 33 32
f 33 66 65
f 33 65 67
f 33 67 34
f 34 67 35
f 35 68 36
f 35 67 68
f 36 68 69
f 36 69 37
f 37 69 38
f 38 69 39
f 39 69 70
f 39 70 71
f 39 71 72
f 39 72 40
f 40 72 41
f 41 72 73
f 41 73 42
f 42 73 43
f 43 74 75
f 43 73 74
f 44 76 77
f 45 78 46
f 46 78 79
f 46 79 80
f 46 80 48
f 48 80 81
f 48 81 49
f 49 81 50
f 50 81 51
f 51 81 53
f 52 54 82
f 52 82 83
f 52 83 60
f 53 81 84
f 53 84 54
f 54 84 82
f 60 83 61
f 61 83 64
f 64 83 65
f 65 83 68
f 65 68 67
f 68 85 69
f 68 83 86
f 68 86 85
f 69 85 87
f 69 87 70
f 70 87 88
f 70 88 71
f 71 89 90
f 71 90 72
f 71 88 89
f 72 90 73
f 73 90 74
f 74 91 75
f 74 90 89
f 74 89 91
f 75 91 92
f 75 92 93
f 76 94 95
f 76 95 96
f 76 96 77
f 78 95 79
f 79 95 94
f 79 94 93
f 79 93 92
f 79 92 81
f 79 81 80
f 81 92 89
f 81 89 97
f 81 97 98
f 81 98 84
f 82 84 99
f 82 99 83
f 83 99 86
f 84 98 99
f 85 86 100
f 85 100 87
f 86 99 98
f 86 98 100
f 87 97 88
f 87 100 97
f 88 97 89
f 89 92 91
f 97 100 98
