v 0.52854681 -0.36106312 0.01005296
v 0.52854681 -0.36082149 0.03004801
v 0.52854681 -0.36098260 0.00104877
v 0.57593620 -0.34221345 0.00104877
v 0.58079785 -0.34028012 0.01005296
v 0.57003611 -0.34438837 0.03004801
v 0.52854681 -0.36025757 0.05004308
v 0.57182974 -0.34318006 0.04927403
v 0.52854681 -0.18553527 0.00104877
v 0.59075719 -0.33609128 0.00104877
v 0.59080440 -0.33609128 0.01005296
v 0.59052122 -0.33601075 0.03004801
v 0.58056188 -0.34011900 0.03004801
v 0.58023143 -0.34003848 0.04206428
v 0.55002308 -0.35091329 0.07003813
v 0.52854681 -0.35977429 0.06100190
v 0.56880891 -0.34350228 0.07003813
v 0.57966506 -0.33979678 0.05539432
v 0.52854681 -0.11964183 0.32833970
v 0.82284248 0.39445585 0.32833970
v 0.83322662 0.41193616 0.32833970
v 0.90048742 0.41910547 0.00104877
v 0.60133010 -0.33149970 0.00104877
v 0.61001503 -0.32763308 0.01005296
v 0.58816117 -0.33641350 0.04927403
v 0.61001503 -0.32739145 0.03004801
v 0.61001503 -0.32682753 0.05004308
v 0.55002308 -0.34978551 0.09003320
v 0.52854681 -0.35937148 0.07003813
v 0.57881546 -0.33939403 0.07003813
v 0.56734568 -0.34293842 0.09003320
v 0.59004915 -0.33472186 0.07003813
v 0.52854681 -0.32030267 0.32833970
v 0.83917391 0.42079711 0.32833970
v 0.90534914 0.42506653 0.00104877
v 0.61001503 -0.32763308 0.00104877
v 0.62313676 -0.32151097 0.01005296
v 0.62285358 -0.32134986 0.03004801
v 0.62223995 -0.32102764 0.05004308
v 0.62124878 -0.32054430 0.07003813
v 0.61001503 -0.32586092 0.07003813
v 0.56555206 -0.34221345 0.11002825
v 0.55002308 -0.34833556 0.11002825
v 0.52854681 -0.35792154 0.09429497
v 0.53208685 -0.35679376 0.09003320
v 0.57735223 -0.33883017 0.09003320
v 0.59004915 -0.33351356 0.09003320
v 0.52854681 -0.32094711 0.32590440
v 0.52977401 -0.31981933 0.32833970
v 0.84700918 0.42941642 0.32833970
v 0.91889566 0.44093573 0.00104877
v 0.90936118 0.42989975 0.00104877
v 0.62313676 -0.32151097 0.00104877
v 0.63314331 -0.31635547 0.01005296
v 0.63286012 -0.31619436 0.03004801
v 0.63224649 -0.31587219 0.05004308
v 0.63125527 -0.31530827 0.07003813
v 0.62044632 -0.32014155 0.08288752
v 0.61171424 -0.32376647 0.08974481
v 0.56338084 -0.34132731 0.13002332
v 0.57555860 -0.33810514 0.11002825
v 0.52854681 -0.35663265 0.11121386
v 0.55002308 -0.34656334 0.13002332
v 0.59004915 -0.33198303 0.11002825
v 0.52854681 -0.32312202 0.31715655
v 0.53822291 -0.31917489 0.31686819
v 0.53477728 -0.31764436 0.32833970
v 0.85843170 0.44117737 0.32833970
v 0.85909253 0.44166070 0.32833970
v 0.92994058 0.44834673 0.00104877
v 0.63314331 -0.31635547 0.00104877
v 0.64244187 -0.31136113 0.00104877
v 0.65004110 -0.30725282 0.01005296
v 0.65004110 -0.30685008 0.03004801
v 0.65004110 -0.30612510 0.05004308
v 0.65159875 -0.30427235 0.06824370
v 0.64815313 -0.30459458 0.09003320
v 0.62828165 -0.31546938 0.08974481
v 0.61945516 -0.31965822 0.09621757
v 0.60822141 -0.32376647 0.11002825
v 0.56149280 -0.34052181 0.14527595
v 0.55181670 -0.34374398 0.15117194
v 0.57338738 -0.33721906 0.13002332
v 0.52854681 -0.35510212 0.12826093
v 0.52854681 -0.35316879 0.14761512
v 0.59004915 -0.33013028 0.13002332
v 0.60619175 -0.32288039 0.13002332
v 0.53095406 -0.32384706 0.31010702
v 0.52854681 -0.32481366 0.31007499
v 0.54926789 -0.31595272 0.31010702
v 0.54997587 -0.31071669 0.32833970
v 0.54209340 -0.32078600 0.30353814
v 0.86994869 0.44826615 0.32833970
v 0.87155348 0.44915223 0.32833970
v 0.94787681 0.45728827 0.00104877
v 0.65004110 -0.30725282 0.00104877
v 0.66141647 -0.30080849 0.00104877
v 0.66136926 -0.30080849 0.01005296
v 0.66108608 -0.30056685 0.03004801
v 0.66051966 -0.30024463 0.05004308
v 0.66009486 -0.29992241 0.06039308
v 0.65924525 -0.29951966 0.07372312
v 0.65815961 -0.29879463 0.09003320
v 0.64650106 -0.30370843 0.11002825
v 0.63002807 -0.31281108 0.11002825
v 0.61822796 -0.31909436 0.11002825
v 0.56890333 -0.33681631 0.15117194
v 0.55965197 -0.33979678 0.15860599
v 0.54785186 -0.34301895 0.16998139
v 0.52854681 -0.35051054 0.16998139
v 0.59004915 -0.32787478 0.15001838
v 0.60373735 -0.32175261 0.15001838
v 0.61619830 -0.31804711 0.13002332
v 0.53005725 -0.32900250 0.28995174
v 0.52854681 -0.32956642 0.29001582
v 0.55582875 -0.31804711 0.28995174
v 0.57003611 -0.31144166 0.28995174
v 0.57145214 -0.30523902 0.31090811
v 0.56621289 -0.30298346 0.32833970
v 0.54582226 -0.32239705 0.28995174
v 0.55903840 -0.31949711 0.27799958
v 0.89090574 0.45769101 0.32833970
v 0.95788336 0.46059096 0.00104877
v 0.67142302 -0.29436415 0.00104877
v 0.67137581 -0.29428363 0.01005296
v 0.67109257 -0.29412252 0.03004801
v 0.67047900 -0.29371971 0.05004308
v 0.66807175 -0.29420304 0.06824370
v 0.67005420 -0.29106146 0.09003320
v 0.67005420 -0.28904760 0.11002825
v 0.65650761 -0.29782802 0.11002825
v 0.64461303 -0.30258071 0.13002332
v 0.63002807 -0.31063610 0.13002332
v 0.57003611 -0.33399689 0.16998139
v 0.55785835 -0.33907181 0.16998139
v 0.54440618 -0.34164953 0.18997645
v 0.53005725 -0.34728837 0.18997645
v 0.52854681 -0.34785223 0.18988031
v 0.59179562 -0.32433039 0.17129517
v 0.60166049 -0.32070541 0.16549532
v 0.61374390 -0.31675828 0.15001838
v 0.63002807 -0.30813897 0.15001838
v 0.55143911 -0.32433039 0.27078980
v 0.52854681 -0.33004975 0.28780484
v 0.52854681 -0.33391631 0.26995668
v 0.59165400 -0.30540007 0.27117434
v 0.58655632 -0.30330569 0.28995174
v 0.58268589 -0.30129182 0.30488396
v 0.56942254 -0.31627494 0.27078980
v 0.57905143 -0.29943907 0.31821400
v 0.56753451 -0.30233902 0.32833970
v 0.56229520 -0.32094711 0.26466954
v 0.89911866 0.46018821 0.32833970
v 0.90813398 0.46107429 0.32833970
v 0.96996671 0.46171874 0.00104877
v 0.68624401 -0.28429484 0.00104877
v 0.68624401 -0.28429484 0.01005296
v 0.68596077 -0.28405321 0.03004801
v 0.68534720 -0.28373098 0.05004308
v 0.68445039 -0.28308654 0.07003813
v 0.68322313 -0.28220046 0.09003320
v 0.68171275 -0.28115326 0.11002825
v 0.68067431 -0.28034770 0.12326217
v 0.67165899 -0.28558373 0.12995923
v 0.65457237 -0.29661965 0.13002332
v 0.64230025 -0.30121130 0.15001838
v 0.65230674 -0.29525024 0.15001838
v 0.57003611 -0.33117747 0.18997645
v 0.55441272 -0.33770239 0.18997645
v 0.54176295 -0.34060234 0.20433187
v 0.53147328 -0.34366339 0.21058033
v 0.52854681 -0.34519392 0.20782460
v 0.59967810 -0.31981933 0.17882536
v 0.60897660 -0.31619436 0.17129517
v 0.64074260 -0.30032516 0.16245119
v 0.63130248 -0.30451399 0.16943665
v 0.52854681 -0.33423853 0.26845065
v 0.55002308 -0.32916361 0.24996163
v 0.59004915 -0.31103891 0.24996163
v 0.60241574 -0.30129182 0.26531041
v 0.59944212 -0.29960018 0.27864045
v 0.59656286 -0.29806966 0.28995174
v 0.58967161 -0.29581416 0.31090811
v 0.57570016 -0.31796658 0.24996163
v 0.58858597 -0.29114199 0.32833970
v 0.57617223 -0.29790854 0.32833970
v 0.56569368 -0.32247764 0.24996163
v 0.92432374 0.46107429 0.32833970
v 0.92994058 0.46147704 0.28995174
v 0.92994058 0.46147704 0.26995668
v 0.91257083 0.46115482 0.30994681
v 0.96996671 0.46187985 0.05004308
v 0.97572517 0.46147704 0.00104877
v 0.69077522 -0.28107268 0.00104877
v 0.69625050 -0.27712554 0.01005296
v 0.69592011 -0.27688384 0.03004801
v 0.69530648 -0.27648109 0.05004308
v 0.69445688 -0.27575612 0.07003813
v 0.69318247 -0.27487004 0.09003320
v 0.69171923 -0.27382278 0.11002825
v 0.68841523 -0.27366167 0.12995923
v 0.67939991 -0.27946162 0.13659221
v 0.66788292 -0.28526151 0.15001838
v 0.66542852 -0.28356987 0.16998139
v 0.64843631 -0.29444474 0.16943665
v 0.58773637 -0.32344425 0.18997645
v 0.57003611 -0.32803589 0.20997152
v 0.54907906 -0.33665520 0.21058033
v 0.53911972 -0.33955514 0.21766192
v 0.52854681 -0.34156901 0.22996657
v 0.52854681 -0.34293842 0.22160324
v 0.61001503 -0.31264997 0.18997645
v 0.59774286 -0.31885266 0.18997645
v 0.58414912 -0.32183319 0.20997152
v 0.63885462 -0.29927796 0.17574920
v 0.62667686 -0.30370843 0.18997645
v 0.52854681 -0.33746070 0.25220466
v 0.52967966 -0.33721906 0.25137153
v 0.55002308 -0.33294970 0.22996657
v 0.57121617 -0.32392758 0.23006269
v 0.60576701 -0.30306405 0.24996163
v 0.57867384 -0.31933600 0.23679180
v 0.58891636 -0.31579161 0.23006269
v 0.61577350 -0.29742521 0.24996163
v 0.60949582 -0.29573357 0.27117434
v 0.61001503 -0.29033643 0.28995174
v 0.61053425 -0.28445596 0.30898550
v 0.60510617 -0.28171712 0.32833970
v 0.59000200 -0.29033643 0.32833970
v 0.94348717 0.46107429 0.26995668
v 0.93414146 0.45712715 0.32833970
v 0.93683189 0.45897990 0.31440085
v 0.94023037 0.46010762 0.30107081
v 0.94141036 0.46051043 0.28995174
v 0.94995368 0.46163815 0.20997152
v 0.94995368 0.46171874 0.18997645
v 0.96996671 0.46171874 0.09003320
v 0.98266369 0.46107429 0.03004801
v 0.98280525 0.46107429 0.01005296
v 0.98275805 0.46107429 0.00104877
v 0.69625050 -0.27712554 0.00104877
v 0.70899469 -0.26713681 0.01005296
v 0.70871145 -0.26689512 0.03004801
v 0.70819223 -0.26649237 0.05004308
v 0.70734262 -0.26576740 0.07003813
v 0.70620984 -0.26488125 0.09003320
v 0.70484102 -0.26383406 0.11002825
v 0.70318902 -0.26246464 0.13002332
v 0.70125377 -0.26093411 0.15001838
v 0.69002002 -0.26939231 0.15001838
v 0.67788947 -0.27841443 0.15001838
v 0.66269088 -0.28171712 0.18997645
v 0.65004110 -0.28977257 0.18997645
v 0.67543507 -0.27672279 0.16998139
v 0.58150589 -0.32062489 0.22346176
v 0.53642929 -0.33850795 0.22996657
v 0.52854681 -0.33995789 0.23897076
v 0.61001503 -0.30910558 0.20997152
v 0.59410846 -0.31716102 0.20997152
v 0.63668334 -0.29798913 0.18997645
v 0.62337279 -0.30185568 0.20997152
v 0.61855835 -0.29911685 0.23621503
v 0.61114782 -0.30451399 0.22971022
v 0.63002807 -0.28880590 0.24996163
v 0.63035846 -0.28397268 0.26809818
v 0.62356162 -0.28220046 0.28995174
v 0.62087119 -0.28042829 0.30167961
v 0.61751992 -0.27833384 0.31500965
v 0.61402708 -0.27615887 0.32833970
v 0.96326423 0.46115482 0.18997645
v 0.96071541 0.46034932 0.22429490
v 0.96180105 0.46075207 0.20997152
v 0.94589442 0.44705784 0.32833970
v 0.95136970 0.45326054 0.28995174
v 0.96510506 0.44657451 0.26995668
v 0.95349371 0.45656323 0.26995668
v 0.95868576 0.45970488 0.23762494
v 0.96482188 0.46131593 0.16998139
v 0.96996671 0.46155763 0.11002825
v 0.98238051 0.46099377 0.05004308
v 0.99281180 0.45543551 0.01005296
v 0.98828053 0.45801324 0.00104877
v 0.70899469 -0.26713681 0.00104877
v 0.71352589 -0.26351184 0.00104877
v 0.71900117 -0.25908136 0.01005296
v 0.71871799 -0.25883973 0.03004801
v 0.71819878 -0.25835639 0.05004308
v 0.71734917 -0.25763136 0.07003813
v 0.71621633 -0.25674528 0.09003320
v 0.71480036 -0.25553697 0.11002825
v 0.71319550 -0.25416756 0.13002332
v 0.71126032 -0.25255644 0.15001838
v 0.70016813 -0.26004803 0.16056064
v 0.69110566 -0.26544517 0.16831514
v 0.66085005 -0.28050882 0.20253745
v 0.67269742 -0.27478945 0.18997645
v 0.63337934 -0.29597527 0.20997152
v 0.65117395 -0.28510040 0.20952290
v 0.68638557 -0.26472014 0.18997645
v 0.62110716 -0.30056685 0.22288498
v 0.62870646 -0.29452527 0.22971022
v 0.64607626 -0.28381157 0.22996657
v 0.64220583 -0.28131437 0.24996163
v 0.64012897 -0.28002548 0.26018345
v 0.63720256 -0.27809221 0.27351350
v 0.63356811 -0.27567554 0.28995174
v 0.62851763 -0.27301729 0.30898550
v 0.63040566 -0.26528406 0.32833970
v 0.98020923 0.46002710 0.12255721
v 0.98068124 0.46034932 0.11002825
v 0.98134208 0.46067154 0.09003320
v 0.97322357 0.45607990 0.18997645
v 0.97487557 0.45785213 0.16998139
v 0.97690523 0.45906043 0.15001838
v 0.97865164 0.45962429 0.13588725
v 0.96047938 0.44077462 0.30161554
v 0.96227300 0.44327182 0.28995174
v 0.95330489 0.42989975 0.32833970
v 0.96779549 0.44874948 0.24996163
v 0.98091727 0.44149959 0.22419876
v 0.98242766 0.44367456 0.20997152
v 0.97180754 0.45366329 0.20997152
v 0.98190844 0.46083266 0.07003813
v 0.99267018 0.45519382 0.03004801
v 0.99281180 0.45543551 0.00104877
v 1.00376236 0.44544673 0.01005296
v 0.71900117 -0.25908136 0.00104877
v 0.72509009 -0.25368422 0.00104877
v 0.74024147 -0.24015109 0.01005296
v 0.74009985 -0.23998998 0.02290234
v 0.73193413 -0.24707876 0.02975963
v 0.73986387 -0.23982887 0.03623238
v 0.72947973 -0.24836765 0.05004308
v 0.72867733 -0.24764265 0.07003813
v 0.72763890 -0.24675654 0.09003320
v 0.72636449 -0.24554823 0.11002825
v 0.72480685 -0.24417882 0.13002332
v 0.72296602 -0.24256773 0.15001838
v 0.72136122 -0.24111776 0.16562349
v 0.71980357 -0.23974831 0.17895353
v 0.69851613 -0.25875914 0.17385864
v 0.66854376 -0.27350056 0.20952290
v 0.65863162 -0.27905881 0.21586749
v 0.68345916 -0.26254523 0.20997152
v 0.69634491 -0.25698698 0.18997645
v 0.65608281 -0.27728665 0.22996657
v 0.65221238 -0.27470893 0.24996163
v 0.64810592 -0.27237284 0.26809818
v 0.65046597 -0.26472014 0.28847775
v 0.64371622 -0.26246464 0.30994681
v 0.64088422 -0.26053137 0.32157856
v 0.64801151 -0.25271755 0.32833970
v 0.98790294 0.44907171 0.15001838
v 1.00163829 0.44262737 0.09003320
v 0.99134856 0.45269662 0.09003320
v 0.99191499 0.45382440 0.07003813
v 0.99238700 0.45471048 0.05004308
v 0.98441011 0.44609118 0.18997645
v 0.98625094 0.44778281 0.16998139
v 0.95811939 0.42989975 0.31456107
v 0.96147060 0.42989975 0.30456352
v 0.96600187 0.42989975 0.28995174
v 0.97176033 0.42989975 0.26995668
v 0.97935963 0.43610245 0.23752880
v 0.95462656 0.40992230 0.32833970
v 0.98639250 0.42989975 0.20997152
v 0.99045175 0.42989975 0.18997645
v 0.99408621 0.42989975 0.16998139
v 1.00003350 0.44004959 0.12057053
v 1.00352633 0.44520509 0.03004801
v 1.00371516 0.44544673 0.00104877
v 1.00914323 0.42989975 0.01005296
v 1.00914323 0.42989975 0.00104877
v 0.74024147 -0.24015109 0.00104877
v 0.74472553 -0.23572062 0.00104877
v 0.75024796 -0.23024292 0.01005296
v 0.76016009 -0.22009309 0.02402386
v 0.75992411 -0.21985142 0.03735390
v 0.75959367 -0.21952920 0.05004308
v 0.74958718 -0.22943737 0.05004308
v 0.73948622 -0.23942612 0.05004308
v 0.73868382 -0.23870112 0.07003813
v 0.73764545 -0.23773448 0.09003320
v 0.73637098 -0.23652615 0.11002825
v 0.73476619 -0.23507617 0.13002332
v 0.73292536 -0.23330398 0.15001838
v 0.74137425 -0.22130139 0.16998139
v 0.74019426 -0.22017361 0.18078001
v 0.73113173 -0.22685964 0.18847041
v 0.71838760 -0.23845945 0.18997645
v 0.70838106 -0.24699821 0.18997645
v 0.68128788 -0.26085359 0.22368607
v 0.67142302 -0.26641178 0.23022291
v 0.69346565 -0.25465089 0.20997152
v 0.70564342 -0.24466215 0.20997152
v 0.66660851 -0.26472014 0.24996163
v 0.66264367 -0.26182020 0.26995668
v 0.66042525 -0.26020914 0.28081939
v 0.65740442 -0.25803417 0.29414943
v 0.65372276 -0.25529534 0.30994681
v 0.65074915 -0.25070369 0.32833970
v 1.00064707 0.44101626 0.11002825
v 1.00253510 0.44391620 0.07003813
v 1.00664163 0.42989975 0.07003813
v 1.00314879 0.44472176 0.05004308
v 0.95878017 0.40992230 0.31645161
v 0.96208423 0.40992230 0.30645406
v 0.96727628 0.40992230 0.28995174
v 0.97312915 0.40992230 0.26995668
v 0.98035085 0.42281097 0.24153423
v 0.97742438 0.42965811 0.24890420
v 0.98190844 0.42965811 0.23051131
v 0.95391852 0.38994485 0.32833970
v 0.95844978 0.38994485 0.31539416
v 0.98780853 0.40992230 0.20997152
v 0.99191499 0.40992230 0.18997645
v 1.00012791 0.42119992 0.14120644
v 0.99908948 0.43457192 0.13390055
v 0.99776787 0.42869145 0.14873664
v 1.00078869 0.42869145 0.12835705
v 1.00286555 0.42989975 0.11002825
v 1.00494242 0.42989975 0.09003320
v 1.00876558 0.42989975 0.03004801
v 1.01074803 0.40992230 0.01005296
v 1.01070082 0.40992230 0.00104877
v 0.75577044 -0.22476523 0.00104877
v 0.76025450 -0.22025417 0.01005296
v 0.77937073 -0.19931005 0.01005296
v 0.77918196 -0.19906840 0.03004801
v 0.77875715 -0.19858506 0.05004308
v 0.76804262 -0.20873491 0.07003813
v 0.75883847 -0.21872364 0.07003813
v 0.74883199 -0.22871239 0.07003813
v 0.74788797 -0.22774573 0.09003320
v 0.74661350 -0.22653742 0.11002825
v 0.74515033 -0.22500689 0.13002332
v 0.74340391 -0.22331525 0.15001838
v 0.75341040 -0.21308483 0.15001838
v 0.73854226 -0.21848197 0.19411004
v 0.76129293 -0.20132391 0.16610414
v 0.75987691 -0.19979338 0.17943418
v 0.74703836 -0.21107100 0.18847041
v 0.72641170 -0.22597353 0.20997152
v 0.71564996 -0.23596229 0.20997152
v 0.68879282 -0.25320089 0.23022291
v 0.67902231 -0.25916189 0.23701611
v 0.70257539 -0.24208440 0.22996657
v 0.67661506 -0.25730920 0.24996163
v 0.67260301 -0.25424808 0.26995668
v 0.68223190 -0.24176218 0.28524137
v 0.66991258 -0.24989818 0.28969538
v 0.66689175 -0.24530657 0.30994681
v 0.66306847 -0.24232607 0.32622483
v 0.65679079 -0.24619268 0.32833970
v 1.00791597 0.42989975 0.05004308
v 1.00815201 0.40992230 0.07003813
v 1.00947356 0.40992230 0.05004308
v 0.96175385 0.38994485 0.30539665
v 0.96656829 0.38994485 0.28995174
v 0.97794360 0.40992230 0.25201240
v 0.97242117 0.38994485 0.26995668
v 0.97808522 0.38825321 0.24867989
v 0.98049247 0.40992230 0.24201487
v 0.98332447 0.40992230 0.22996657
v 0.95259690 0.36988682 0.32833970
v 0.95778894 0.36988682 0.31340748
v 0.98719490 0.38994485 0.20997152
v 0.99130142 0.38994485 0.18997645
v 0.99498302 0.38994485 0.16998139
v 0.99554944 0.40992230 0.16998139
v 0.99861747 0.40992230 0.15152441
v 1.00017512 0.40992230 0.14152688
v 1.00177991 0.40992230 0.13002332
v 1.00432873 0.40992230 0.11002825
v 1.00645280 0.40992230 0.09003320
v 1.01032329 0.40992230 0.03004801
v 1.01018167 0.38994485 0.01005296
v 1.01018167 0.38994485 0.00104877
v 1.01041758 0.39896691 0.00104877
v 0.76025450 -0.22025417 0.00104877
v 0.77937073 -0.19931005 0.00104877
v 0.78791404 -0.18924077 0.01005296
v 0.78772527 -0.18907966 0.03004801
v 0.78730047 -0.18851578 0.05004308
v 0.78659242 -0.18771024 0.07003813
v 0.77800190 -0.19777952 0.07003813
v 0.76714581 -0.20768772 0.09003320
v 0.75789446 -0.21767645 0.09003320
v 0.75662005 -0.21646814 0.11002825
v 0.75510967 -0.21485703 0.13002332
v 0.76450253 -0.20486830 0.13002332
v 0.76285052 -0.20301555 0.15001838
v 0.74614155 -0.20639883 0.20997152
v 0.73641819 -0.21638758 0.20997152
v 0.77280986 -0.19181851 0.15001838
v 0.78045636 -0.18054090 0.16238712
v 0.77904034 -0.17892981 0.17568511
v 0.76747620 -0.18843523 0.18997645
v 0.75864971 -0.19842395 0.18997645
v 0.72353244 -0.22323470 0.22996657
v 0.71258193 -0.23322342 0.22996657
v 0.70064014 -0.24047332 0.24172649
v 0.69096404 -0.24611212 0.24903238
v 0.68534720 -0.24425937 0.26995668
v 0.69530648 -0.23596229 0.26995668
v 0.68935919 -0.23362620 0.29113734
v 0.67944711 -0.23942612 0.29857141
v 0.67685103 -0.23733170 0.30994681
v 0.66571170 -0.23934557 0.32833970
v 1.00758553 0.38994485 0.07003813
v 1.00885999 0.38994485 0.05004308
v 1.00975680 0.38994485 0.03004801
v 0.96109301 0.36988682 0.30340996
v 0.96524668 0.36988682 0.28995174
v 0.97114670 0.36988682 0.26995668
v 0.98025644 0.39381140 0.24114969
v 0.97992605 0.38043940 0.23986797
v 0.98219168 0.38825321 0.23192121
v 0.95094490 0.35184264 0.32833970
v 0.95736414 0.34910381 0.30885732
v 0.96043217 0.35522592 0.30145532
v 0.98596770 0.36988682 0.20997152
v 0.99007416 0.36988682 0.18997645
v 0.99375582 0.36988682 0.16998139
v 0.99857026 0.39026701 0.14851233
v 1.00008070 0.39719474 0.14085397
v 1.00376236 0.38994485 0.11002825
v 1.00588632 0.38994485 0.09003320
v 1.00885999 0.36988682 0.01005296
v 1.00885999 0.36988682 0.00104877
v 0.78791404 -0.18924077 0.00104877
v 0.79792058 -0.17739928 0.01005296
v 0.79773176 -0.17715761 0.03004801
v 0.79730695 -0.17667429 0.05004308
v 0.79659897 -0.17586875 0.07003813
v 0.78569561 -0.18666303 0.09003320
v 0.77710509 -0.19665176 0.09003320
v 0.76591855 -0.20639883 0.11002825
v 0.77587789 -0.19536290 0.11002825
v 0.77446187 -0.19375181 0.13002332
v 0.75614804 -0.19568512 0.20997152
v 0.74335670 -0.20341833 0.22996657
v 0.73349178 -0.21340705 0.22996657
v 0.78158915 -0.18182977 0.15001838
v 0.80042219 -0.16048287 0.14258431
v 0.79924220 -0.15903290 0.15591435
v 0.78659242 -0.17135771 0.16940461
v 0.78574282 -0.16700777 0.18997645
v 0.77743554 -0.17699651 0.18997645
v 0.76506895 -0.18569638 0.20997152
v 0.72131401 -0.22114028 0.24374521
v 0.70984429 -0.22975959 0.24938485
v 0.69823295 -0.23837890 0.25505653
v 0.70668185 -0.22589298 0.26995668
v 0.70281136 -0.22242914 0.28995174
v 0.70054579 -0.22041528 0.30113488
v 0.69058645 -0.22613464 0.30866507
v 0.67090380 -0.23507617 0.32833970
v 0.68454474 -0.22363748 0.32833970
v 1.00631118 0.36988682 0.07003813
v 1.00758553 0.36988682 0.05004308
v 1.00843525 0.36988682 0.03004801
v 0.96288663 0.34910381 0.29155391
v 0.97648036 0.36988682 0.24996163
v 0.96930587 0.34990931 0.26995668
v 0.97468674 0.34990931 0.24996163
v 0.97950125 0.36988682 0.23810558
v 0.98190844 0.36988682 0.22810805
v 0.95075607 0.34990931 0.32833970
v 0.94849044 0.32993186 0.32833970
v 0.95977139 0.34193444 0.29927635
v 0.98096442 0.34990931 0.22426285
v 0.98412693 0.34990931 0.20997152
v 0.98823333 0.34990931 0.18997645
v 0.99701267 0.36988682 0.15001838
v 0.99191499 0.34990931 0.16998139
v 0.99521905 0.34990931 0.15001838
v 0.99975026 0.38382268 0.13864298
v 1.00107193 0.39026701 0.13120893
v 1.00064707 0.36988682 0.12499250
v 1.00244069 0.36988682 0.11002825
v 1.00461197 0.36988682 0.09003320
v 1.00701916 0.34990931 0.01005296
v 1.00786877 0.35901195 0.00104877
v 0.79792058 -0.17739928 0.00104877
v 0.80231023 -0.17192158 0.00104877
v 0.80589747 -0.16741054 0.01005296
v 0.80575585 -0.16716889 0.03004801
v 0.80533105 -0.16668555 0.05004308
v 0.80467027 -0.16588001 0.07003813
v 0.79570216 -0.17474099 0.09003320
v 0.78456283 -0.18537416 0.11002825
v 0.78319401 -0.18376307 0.13002332
v 0.76233131 -0.18263531 0.22996657
v 0.75336319 -0.19262405 0.22996657
v 0.74127984 -0.20124336 0.24390543
v 0.79320049 -0.17167993 0.13002332
v 0.80131900 -0.16169119 0.13002332
v 0.81023991 -0.15001081 0.13002332
v 0.80608630 -0.15138023 0.14953773
v 0.80547267 -0.14727196 0.16998139
v 0.79787338 -0.15734126 0.16998139
v 0.79574937 -0.15452185 0.18997645
v 0.78333557 -0.16410781 0.20997152
v 0.77502829 -0.17409655 0.20997152
v 0.71904838 -0.21896531 0.25707525
v 0.73018771 -0.21010433 0.25047433
v 0.71668833 -0.21670978 0.26995668
v 0.71281791 -0.21300431 0.28995174
v 0.72079480 -0.20067947 0.30177575
v 0.70927787 -0.20921825 0.30812034
v 0.69761932 -0.21775700 0.31446493
v 0.69445688 -0.21477650 0.32833970
v 1.00447035 0.34990931 0.07003813
v 1.00574481 0.34990931 0.05004308
v 1.00659442 0.34990931 0.03004801
v 0.96203703 0.32993186 0.28684354
v 0.96694589 0.32993186 0.26995668
v 0.97237396 0.32993186 0.24996163
v 0.97860444 0.34990931 0.23426038
v 0.95472091 0.32993186 0.30994681
v 0.94598883 0.31148493 0.32833970
v 0.95203048 0.30995440 0.30994681
v 0.95901620 0.32993186 0.29684108
v 0.98030365 0.33734286 0.22137895
v 0.98176688 0.33033460 0.21058033
v 0.98601490 0.32993186 0.18997645
v 0.99927831 0.36988682 0.13499004
v 0.98964936 0.32993186 0.16998139
v 0.99300063 0.32993186 0.15001838
v 0.99838150 0.35087597 0.12883770
v 0.99592704 0.32993186 0.13002332
v 1.00012791 0.35812587 0.12137160
v 1.00078869 0.35087597 0.10945147
v 1.00277114 0.34990931 0.09003320
v 1.00475359 0.32993186 0.01005296
v 1.00701916 0.34990931 0.00104877
v 0.80589747 -0.16741054 0.00104877
v 0.81042874 -0.16169119 0.00104877
v 0.81590402 -0.15460241 0.01005296
v 0.81576240 -0.15436074 0.03004801
v 0.81533760 -0.15379687 0.05004308
v 0.81467676 -0.15291077 0.07003813
v 0.80377346 -0.16475224 0.09003320
v 0.79452211 -0.17337157 0.11002825
v 0.80264062 -0.16338283 0.11002825
v 0.76063210 -0.18070200 0.24201487
v 0.78140038 -0.16169119 0.22506393
v 0.77356505 -0.16902164 0.23102400
v 0.73910862 -0.19898784 0.25723547
v 0.74991757 -0.18980464 0.24960914
v 0.81396878 -0.14839973 0.11070117
v 0.81968004 -0.13961931 0.11778275
v 0.81883043 -0.13841099 0.13002332
v 0.81727278 -0.13615547 0.15001838
v 0.80339587 -0.14453311 0.18997645
v 0.81547916 -0.13357773 0.16998139
v 0.80150783 -0.14203593 0.20615834
v 0.79456931 -0.14920527 0.21170186
v 0.72683650 -0.20672105 0.26995668
v 0.72310764 -0.20301555 0.28995174
v 0.71800995 -0.19786008 0.31510580
v 0.73306698 -0.19270460 0.28995174
v 0.74047744 -0.18046035 0.30113488
v 0.70616263 -0.20374055 0.32833970
v 0.70399141 -0.20583497 0.32833970
v 1.00074148 0.33065683 0.08868738
v 1.00008070 0.31921810 0.08112514
v 1.00220466 0.32993186 0.07003813
v 1.00347912 0.32993186 0.05004308
v 1.00432873 0.32993186 0.03004801
v 0.96090424 0.31333768 0.28315854
v 0.96335864 0.30802107 0.27194339
v 0.97766042 0.33033460 0.22881301
v 0.96958911 0.30995440 0.24996163
v 0.97459239 0.30995440 0.22996657
v 0.94287360 0.29150742 0.32833970
v 0.94891524 0.28989637 0.30994681
v 0.95811939 0.30802107 0.28988767
v 0.97945404 0.32397085 0.21762988
v 0.98087007 0.31349880 0.20429984
v 0.98261648 0.30810165 0.19186701
v 0.98700613 0.30995440 0.16998139
v 0.99031019 0.30995440 0.15001838
v 0.99946707 0.34483439 0.11573197
v 0.99857026 0.33065683 0.10945147
v 0.99323660 0.30995440 0.13002332
v 0.99578547 0.30995440 0.11002825
v 1.00022233 0.33774561 0.10240193
v 1.00475359 0.32993186 0.00104877
v 1.00211036 0.30995440 0.01005296
v 0.81590402 -0.15460241 0.00104877
v 0.82336169 -0.14461367 0.01005296
v 0.82317287 -0.14437200 0.03004801
v 0.82274806 -0.14380813 0.05004308
v 0.81377995 -0.15178300 0.09003320
v 0.82208729 -0.14292203 0.07003813
v 0.82123768 -0.14179426 0.09003320
v 0.77951235 -0.15943566 0.23839396
v 0.76662660 -0.17095493 0.24919260
v 0.75855529 -0.17828538 0.25534493
v 0.79980862 -0.13978042 0.21948838
v 0.73684299 -0.19665176 0.26995668
v 0.74614155 -0.18666303 0.26995668
v 0.82048243 -0.14066651 0.10445271
v 0.82595772 -0.13172498 0.11070117
v 0.83709705 -0.11561412 0.11002825
v 0.82576895 -0.12842225 0.13002332
v 0.82421130 -0.12616673 0.15001838
v 0.81444079 -0.12882502 0.19077754
v 0.82241768 -0.12358899 0.16998139
v 0.82095444 -0.12149458 0.18465725
v 0.81953841 -0.11931962 0.19798729
v 0.80740792 -0.13188608 0.21170186
v 0.71508354 -0.19487956 0.32833970
v 0.73773980 -0.17747983 0.31446493
v 0.72480685 -0.18489084 0.32833970
v 0.74255431 -0.18271586 0.28995174
v 0.75383520 -0.16934384 0.29132962
v 0.75959367 -0.15951622 0.29892391
v 0.74623591 -0.17047161 0.30866507
v 0.99941987 0.32437360 0.09445518
v 0.99823987 0.31148493 0.08868738
v 0.99904227 0.30632943 0.07003813
v 1.00050545 0.31631815 0.07003813
v 1.00107193 0.31188768 0.05004308
v 0.99998629 0.29996565 0.03991737
v 1.00135517 0.30794054 0.03197062
v 0.95991302 0.30004621 0.27992219
v 0.96194261 0.28989637 0.26694462
v 0.96642667 0.28989637 0.24996163
v 0.97142994 0.28989637 0.22996657
v 0.97874606 0.30810165 0.21058033
v 0.94197679 0.28611028 0.32833970
v 0.94103277 0.26991889 0.32292438
v 0.94532800 0.26991889 0.30994681
v 0.95165288 0.26991889 0.28995174
v 0.95519292 0.28989637 0.28995174
v 0.97992605 0.30020732 0.19978172
v 0.98105884 0.28989637 0.18549038
v 0.98384368 0.28989637 0.16998139
v 0.98719490 0.28989637 0.15001838
v 0.99016857 0.28989637 0.13002332
v 0.99267018 0.28989637 0.11002825
v 0.99479425 0.28989637 0.09003320
v 1.00211036 0.30995440 0.00104877
v 1.00017512 0.29867679 0.02658734
v 1.00031674 0.29762957 0.01005296
v 0.82336169 -0.14461367 0.00104877
v 0.83336818 -0.13051666 0.01005296
v 0.83317941 -0.13027500 0.03004801
v 0.83997631 -0.12004460 0.04059029
v 0.83398181 -0.12801948 0.04837682
v 0.83124417 -0.12995279 0.07003813
v 0.82945055 -0.12995279 0.09003320
v 0.79839259 -0.13784711 0.22996657
v 0.78555399 -0.14727196 0.24996163
v 0.77776593 -0.15726070 0.24996163
v 0.76464415 -0.16547725 0.26995668
v 0.75614804 -0.17546597 0.26995668
v 0.80556709 -0.12785837 0.22996657
v 0.83818269 -0.11730576 0.09003320
v 0.84361076 -0.10562538 0.11002825
v 0.83577543 -0.11360025 0.13002332
v 0.83530343 -0.10900865 0.15187690
v 0.83992910 -0.09990603 0.15979160
v 0.83138579 -0.10997531 0.16998139
v 0.83893788 -0.09837548 0.16998139
v 0.82614654 -0.11158639 0.19077754
v 0.83690828 -0.09515332 0.18997645
v 0.82463610 -0.10715590 0.20997152
v 0.81807524 -0.11714464 0.20997152
v 0.74453670 -0.16330227 0.32833970
v 0.74283749 -0.16523558 0.32833970
v 0.73476619 -0.17417711 0.32833970
v 0.76200092 -0.16233562 0.28559387
v 0.77011943 -0.15017192 0.29033625
v 0.77823794 -0.13776655 0.29511073
v 0.76554096 -0.14694974 0.30994681
v 0.75746965 -0.15693848 0.30994681
v 0.99970311 0.30189896 0.05004308
v 0.99644625 0.28989637 0.07003813
v 0.99776787 0.28989637 0.05004308
v 0.99512464 0.26991889 0.03004801
v 0.99875909 0.29118523 0.03197062
v 0.95911062 0.28989637 0.27694213
v 0.96071541 0.27596045 0.26261875
v 0.96260345 0.26951611 0.25082681
v 0.96793711 0.26991889 0.22996657
v 0.97600842 0.28989637 0.20997152
v 0.93909752 0.26991889 0.32833970
v 0.94004154 0.25960791 0.32013661
v 0.94768804 0.24994141 0.28995174
v 0.95755297 0.26951611 0.26957217
v 0.97907645 0.28989637 0.19548792
v 0.98016202 0.27902150 0.18084410
v 0.98091727 0.27136886 0.16825105
v 0.98365486 0.26991889 0.15001838
v 0.98658133 0.26991889 0.13002332
v 0.98913014 0.26991889 0.11002825
v 0.99125421 0.26991889 0.09003320
v 0.99295342 0.26991889 0.07003813
v 1.00031674 0.29762957 0.00104877
v 0.99871188 0.28764084 0.01005296
v 0.99960870 0.29311854 0.00104877
v 0.83336818 -0.13051666 0.00104877
v 0.84035391 -0.12052792 0.01005296
v 0.84011793 -0.12020572 0.03004801
v 0.83959872 -0.11948071 0.05392032
v 0.84691477 -0.10997531 0.03004801
v 0.85668528 -0.09483109 0.03004801
v 0.84502673 -0.11166695 0.04837682
v 0.83907950 -0.11859462 0.07003813
v 0.80278224 -0.12399176 0.24996163
v 0.79556054 -0.13398050 0.24996163
v 0.78248596 -0.14324425 0.26995668
v 0.77460349 -0.15323298 0.26995668
v 0.81552637 -0.11335859 0.22996657
v 0.84469634 -0.10731702 0.09003320
v 0.85470289 -0.09152837 0.09003320
v 0.86027253 -0.08049242 0.10269032
v 0.85456127 -0.08830620 0.10964373
v 0.85087961 -0.08999784 0.13002332
v 0.84228915 -0.10361151 0.13002332
v 0.84101474 -0.10167822 0.14646156
v 0.84620678 -0.09193115 0.15187690
v 0.85696852 -0.07493418 0.15001838
v 0.84516835 -0.08838676 0.16998139
v 0.84313875 -0.08508402 0.18997645
v 0.84139234 -0.08226462 0.20593405
v 0.83558667 -0.08935340 0.21154164
v 0.82213449 -0.10336986 0.22996657
v 0.75496805 -0.15089691 0.32833970
v 0.78055078 -0.14082761 0.28178069
v 0.78555399 -0.13059722 0.28905454
v 0.78291076 -0.12407231 0.30994681
v 0.77554750 -0.13406105 0.30994681
v 0.76247293 -0.14308314 0.32600051
v 0.99422783 0.26991889 0.05004308
v 0.99559665 0.26991889 0.01005296
v 0.99115980 0.24994141 0.03004801
v 0.95948815 0.26258844 0.25803655
v 0.96118742 0.25404966 0.24470651
v 0.96326423 0.24841088 0.23153669
v 0.96850348 0.24994141 0.20997152
v 0.97246838 0.26991889 0.20997152
v 0.93565190 0.25284135 0.32833970
v 0.93555748 0.25179416 0.32808334
v 0.93857831 0.24623591 0.31584281
v 0.94183517 0.25179416 0.30949819
v 0.94079673 0.23640828 0.30251276
v 0.94296801 0.22980283 0.29056057
v 0.94905686 0.22996394 0.26995668
v 0.95354092 0.24994141 0.26995668
v 0.97718841 0.27136886 0.18850246
v 0.97888762 0.26573005 0.17376250
v 0.98002046 0.25960791 0.16046451
v 0.98087007 0.25566077 0.15001838
v 0.98223889 0.24873309 0.13079235
v 0.98511809 0.24994141 0.11002825
v 0.98724210 0.24994141 0.09003320
v 0.98894137 0.24994141 0.07003813
v 0.99564385 0.26991889 0.00104877
v 0.99871188 0.28756028 0.00104877
v 0.84035391 -0.12052792 0.00104877
v 0.84729236 -0.10997531 0.01005296
v 0.84559315 -0.10860589 0.07003813
v 0.85687411 -0.09515332 0.01005296
v 0.86315179 -0.08508402 0.01005296
v 0.86291575 -0.08476181 0.03004801
v 0.86249095 -0.08411737 0.05004308
v 0.85626048 -0.09410611 0.05004308
v 0.80089420 -0.12125291 0.26290715
v 0.81340235 -0.10852534 0.24922463
v 0.79324770 -0.12874447 0.26973239
v 0.82052964 -0.10087267 0.24204692
v 0.85559970 -0.09297834 0.07003813
v 0.86093336 -0.08153963 0.09003320
v 0.85947013 -0.07920356 0.11602037
v 0.86773026 -0.06993981 0.09003320
v 0.86475658 -0.07147034 0.10964373
v 0.85852611 -0.07759248 0.13002332
v 0.86282140 -0.06494544 0.15001838
v 0.86107498 -0.06188438 0.16998139
v 0.85517490 -0.07187311 0.16998139
v 0.86008376 -0.06019274 0.18052366
v 0.85371166 -0.06808706 0.18831019
v 0.83978748 -0.07968688 0.21926409
v 0.84630120 -0.07179256 0.21154164
v 0.83058339 -0.08999784 0.22996657
v 0.75912172 -0.14590254 0.32833970
v 0.79877019 -0.11827241 0.27623719
v 0.79645735 -0.11488913 0.28995174
v 0.78073955 -0.12101126 0.32186693
v 0.80103582 -0.10159767 0.30292931
v 0.77290428 -0.12793893 0.32833970
v 0.76648498 -0.13647768 0.32833970
v 0.99021578 0.24994141 0.05004308
v 0.99163181 0.24994141 0.01005296
v 0.99347258 0.25896350 0.00104877
v 0.98587334 0.22996394 0.05004308
v 0.98677015 0.22996394 0.03004801
v 0.95840257 0.24841088 0.25082681
v 0.95977139 0.24075821 0.23925915
v 0.96137619 0.23383054 0.22592911
v 0.97265714 0.24994141 0.18997645
v 0.96331143 0.22827229 0.21163777
v 0.93536866 0.25147194 0.32833970
v 0.93470788 0.24849144 0.32833970
v 0.93097901 0.23181668 0.32833970
v 0.93055421 0.22996394 0.32833970
v 0.93692631 0.22980283 0.30949819
v 0.93923914 0.22303626 0.29764217
v 0.94126874 0.21473917 0.28431213
v 0.94358158 0.20885870 0.27120638
v 0.94967043 0.20998646 0.24996163
v 0.95448494 0.22996394 0.24996163
v 0.97704679 0.25171360 0.16825105
v 0.97874606 0.24567203 0.15001838
v 0.97969007 0.24132210 0.13797008
v 0.98058689 0.23721382 0.12464003
v 0.98148370 0.23334722 0.11002825
v 0.98233330 0.22827229 0.09121880
v 0.98450452 0.22996394 0.07003813
v 0.84729236 -0.10997531 0.00104877
v 0.85687411 -0.09515332 0.00104877
v 0.86031973 -0.08967562 0.00104877
v 0.86315179 -0.08508402 0.00104877
v 0.86721104 -0.07831746 0.00104877
v 0.87216711 -0.06993981 0.01005296
v 0.87174231 -0.06993981 0.03004801
v 0.87089270 -0.06993981 0.05004308
v 0.86952388 -0.06993981 0.07003813
v 0.86178297 -0.08298962 0.07003813
v 0.81868881 -0.09789217 0.25537696
v 0.80570865 -0.11094196 0.26973239
v 0.82487214 -0.09072283 0.24922463
v 0.86437899 -0.06760374 0.13002332
v 0.87768960 -0.05584280 0.07003813
v 0.87679279 -0.05423172 0.09003320
v 0.87570715 -0.05229841 0.11002825
v 0.87523514 -0.04851236 0.12995923
v 0.87131751 -0.04996234 0.15001838
v 0.86773026 -0.04996234 0.16998139
v 0.87660396 -0.03369036 0.16998139
v 0.86376542 -0.05060677 0.18831019
v 0.85862052 -0.05761500 0.19385369
v 0.84431875 -0.06736207 0.22996657
v 0.83841866 -0.07735081 0.22996657
v 0.85677969 -0.05439283 0.20997152
v 0.80325425 -0.10490039 0.28995174
v 0.79858136 -0.09789217 0.31625935
v 0.78475159 -0.11150584 0.32833970
v 0.81377995 -0.08878952 0.28947109
v 0.81859446 -0.07767303 0.29581568
v 0.80551988 -0.09072283 0.30972248
v 0.98724210 0.22996394 0.01005296
v 0.99167895 0.24994141 0.00104877
v 0.98110604 0.21530305 0.07003813
v 0.98176688 0.21264476 0.05004308
v 0.98219168 0.21079201 0.03004801
v 0.97992605 0.20007828 0.01857649
v 0.98200285 0.20805316 0.01117447
v 0.95873296 0.22827229 0.23153669
v 0.95981860 0.22045852 0.21942431
v 0.96817309 0.22996394 0.18997645
v 0.97190195 0.22996394 0.16998139
v 0.96128178 0.21465862 0.20609426
v 0.92607015 0.21167810 0.32833970
v 0.93192303 0.20998646 0.30994681
v 0.93787032 0.20885870 0.29056057
v 0.93961674 0.20136715 0.27870452
v 0.94150478 0.19435893 0.26537448
v 0.94372320 0.18855901 0.25133950
v 0.94948167 0.19000900 0.22996657
v 0.95467371 0.20998646 0.22996657
v 0.97525316 0.22996394 0.15001838
v 0.97817963 0.23036671 0.13079235
v 0.97921801 0.22335848 0.11002825
v 0.97983164 0.22053908 0.09868491
v 0.98044527 0.21788079 0.08535486
v 0.87216711 -0.06993981 0.00104877
v 0.87523514 -0.06470378 0.00104877
v 0.87896401 -0.05825943 0.01005296
v 0.87872797 -0.05785666 0.03004801
v 0.87830317 -0.05705112 0.05004308
v 0.82274806 -0.08443959 0.26995668
v 0.81647038 -0.09442833 0.26995668
v 0.83568102 -0.07275921 0.24996163
v 0.88382566 -0.04706238 0.05004308
v 0.88316482 -0.04585407 0.07003813
v 0.88231522 -0.04424299 0.09003320
v 0.88122964 -0.04230968 0.11002825
v 0.88042718 -0.04085970 0.12326217
v 0.87948316 -0.03908750 0.13659221
v 0.87839758 -0.03699309 0.15001838
v 0.88189042 -0.02370163 0.16998139
v 0.88061601 -0.02120445 0.18308713
v 0.87523514 -0.02869600 0.18984827
v 0.86239660 -0.04440409 0.20997152
v 0.85493886 -0.04891513 0.22993453
v 0.84158111 -0.06277048 0.24996163
v 0.86079174 -0.04150414 0.22326951
v 0.80259341 -0.08435903 0.32833970
v 0.79626852 -0.09426722 0.32833970
v 0.82081288 -0.08129798 0.28248563
v 0.82482493 -0.07058425 0.28947109
v 0.83610582 -0.04996234 0.29132962
v 0.82199287 -0.06349546 0.30994681
v 0.81609279 -0.07348420 0.30994681
v 0.98724210 0.22996394 0.00104877
v 0.98927176 0.23898602 0.00104877
v 0.98228610 0.20901981 0.00104877
v 0.97865164 0.20531431 0.07003813
v 0.97931242 0.20257546 0.05004308
v 0.97973722 0.20080326 0.03004801
v 0.98002046 0.19967552 0.00524645
v 0.97695243 0.19000900 0.03004801
v 0.97161877 0.16995096 0.03004801
v 0.97789645 0.19178119 0.01117447
v 0.95859134 0.20885870 0.21163777
v 0.95962977 0.20136715 0.19824363
v 0.96288663 0.20885870 0.19093776
v 0.96713471 0.20998646 0.16998139
v 0.92536217 0.20885870 0.32833970
v 0.92304933 0.19975607 0.32833970
v 0.92172772 0.19000900 0.32491106
v 0.92673099 0.19000900 0.30994681
v 0.93310308 0.19000900 0.28995174
v 0.92758060 0.16995096 0.28995174
v 0.93829513 0.18855901 0.27120638
v 0.93966395 0.18098691 0.25893378
v 0.94141036 0.17478423 0.24560374
v 0.95406014 0.19000900 0.20997152
v 0.94343996 0.16882321 0.23099196
v 0.94863206 0.16995096 0.20997152
v 0.97048593 0.20998646 0.15001838
v 0.97341239 0.20998646 0.13002332
v 0.97596121 0.20998646 0.11002825
v 0.97091073 0.19000900 0.11002825
v 0.97813243 0.21071145 0.09121880
v 0.87896401 -0.05817888 0.00104877
v 0.88448644 -0.04819015 0.00104877
v 0.88448644 -0.04819015 0.01005296
v 0.88425046 -0.04786792 0.03004801
v 0.84011793 -0.06019274 0.26040778
v 0.89293534 -0.02998487 0.05004308
v 0.89156651 -0.02998487 0.07003813
v 0.88982010 -0.02998487 0.09003320
v 0.88769609 -0.02998487 0.11002825
v 0.88439202 -0.03143484 0.12995923
v 0.88363683 -0.02700435 0.15001838
v 0.89222735 -0.01000740 0.15001838
v 0.88873452 -0.01000740 0.16998139
v 0.88425046 -0.01105460 0.18984827
v 0.87919998 -0.01846560 0.19641717
v 0.87009025 -0.02998487 0.20997152
v 0.85909253 -0.03836252 0.23659953
v 0.84885001 -0.04996234 0.24996163
v 0.86470938 -0.03103207 0.22993453
v 0.81245834 -0.06816762 0.32824355
v 0.81236398 -0.06824817 0.32833970
v 0.83804107 -0.05656780 0.27373779
v 0.84181714 -0.04327633 0.28556180
v 0.83959872 -0.03932917 0.29889184
v 0.82968658 -0.04996234 0.30994681
v 0.82015204 -0.06027329 0.32042497
v 0.98072845 0.20257546 0.00104877
v 0.97298753 0.19000900 0.09003320
v 0.97473395 0.19000900 0.07003813
v 0.97605562 0.19000900 0.05004308
v 0.98002046 0.19967552 0.00104877
v 0.97770762 0.19073398 0.00104877
v 0.97076911 0.16995096 0.05004308
v 0.96595466 0.14997348 0.03004801
v 0.97209072 0.16995096 0.01005296
v 0.96095139 0.19629224 0.18491361
v 0.95802498 0.18976733 0.19093776
v 0.96208423 0.18976733 0.16934052
v 0.92050052 0.19000900 0.32833970
v 0.91549724 0.17172316 0.32833970
v 0.92021728 0.17905360 0.32074541
v 0.92191648 0.17140093 0.30901754
v 0.92050052 0.15802893 0.30171168
v 0.92224693 0.15085959 0.28915066
v 0.93348068 0.16995096 0.26995668
v 0.93824792 0.16882321 0.25133950
v 0.93952233 0.16141221 0.23832989
v 0.94117439 0.15585396 0.22499985
v 0.94273198 0.14949018 0.20990743
v 0.94707441 0.14997348 0.18997645
v 0.95283294 0.16995096 0.18997645
v 0.96538824 0.19000900 0.15001838
v 0.96831471 0.19000900 0.13002332
v 0.96260345 0.16882321 0.13040784
v 0.96552986 0.16995096 0.11002825
v 0.96765387 0.16995096 0.09003320
v 0.89420974 -0.02998487 0.00104877
v 0.89420974 -0.02998487 0.01005296
v 0.89378500 -0.02998487 0.03004801
v 0.85725170 -0.03489868 0.24996163
v 0.84351635 -0.04996234 0.26822636
v 0.89949626 -0.01902948 0.03004801
v 0.89907146 -0.01814338 0.05004308
v 0.89836341 -0.01677396 0.07003813
v 0.89751381 -0.01508231 0.09003320
v 0.89642823 -0.01282679 0.11002825
v 0.89590901 -0.00863797 0.13034375
v 0.89954340 0.00086744 0.13726512
v 0.89855224 0.00296185 0.15001838
v 0.89680582 0.00674791 0.16998139
v 0.89529538 0.01150061 0.18917537
v 0.88264561 -0.00541580 0.20997152
v 0.87768960 -0.01540454 0.20997152
v 0.86253816 -0.02490994 0.24996163
v 0.87575436 -0.00920185 0.23038313
v 0.81255275 -0.06792595 0.32833970
v 0.82326728 -0.04947902 0.32824355
v 0.85465568 -0.02885710 0.26957217
v 0.84630120 -0.03159595 0.29132962
v 0.83761626 -0.03570423 0.30994681
v 0.84309155 -0.02571549 0.30994681
v 0.82444727 -0.04730405 0.32833970
v 0.96940029 0.16995096 0.07003813
v 0.97213793 0.16995096 0.00104877
v 0.96373624 0.14997348 0.07003813
v 0.96505785 0.14997348 0.05004308
v 0.96642667 0.14997348 0.01005296
v 0.96104580 0.13644037 0.05004308
v 0.96147060 0.13507095 0.03004801
v 0.95915776 0.18292022 0.17558898
v 0.96033782 0.17848973 0.16229098
v 0.90964437 0.15166514 0.32833970
v 0.91832924 0.16568159 0.31504172
v 0.91596925 0.15085959 0.30901754
v 0.91851807 0.14473745 0.29530299
v 0.92762780 0.14997348 0.26995668
v 0.92059493 0.13805145 0.28197294
v 0.93315029 0.14997348 0.24996163
v 0.93782312 0.14949018 0.23099196
v 0.93919194 0.14256249 0.21654040
v 0.94070232 0.13772923 0.20321035
v 0.94207120 0.13337931 0.18997645
v 0.95089769 0.14997348 0.16998139
v 0.95703375 0.17115928 0.16934052
v 0.96137619 0.17486477 0.15001838
v 0.95958257 0.16133165 0.13736124
v 0.96052659 0.15802893 0.12403120
v 0.96137619 0.15512897 0.11002825
v 0.95934659 0.14207917 0.09371818
v 0.96194261 0.14924851 0.08823877
v 0.96000743 0.13982365 0.08038814
v 0.89968503 -0.01935170 0.00104877
v 0.89968503 -0.01943225 0.01005296
v 0.86074454 -0.02144611 0.26261875
v 0.90440512 -0.00896019 0.03004801
v 0.90398031 -0.00815465 0.05004308
v 0.90331948 -0.00678522 0.07003813
v 0.90242267 -0.00501303 0.09003320
v 0.90133703 -0.00283806 0.11002825
v 0.90048742 -0.00106587 0.12390304
v 0.90407467 0.00852010 0.13034375
v 0.90322506 0.01303114 0.15001838
v 0.90147865 0.01673664 0.16998139
v 0.90039307 0.01915327 0.18196560
v 0.89897704 0.02221433 0.19529565
v 0.89000893 0.01005063 0.20997152
v 0.88099360 -0.00203252 0.22400650
v 0.87013745 -0.01000740 0.24996163
v 0.87929440 0.00143132 0.23733655
v 0.82326728 -0.04939846 0.32833970
v 0.85871494 -0.01757950 0.27594879
v 0.85715729 -0.01049072 0.29190639
v 0.84087312 -0.02160722 0.32231554
v 0.85130441 -0.01000740 0.30994681
v 0.83516181 -0.02789045 0.32833970
v 0.96902269 0.15899557 0.00104877
v 0.96038496 0.13861534 0.07003813
v 0.96642667 0.14997348 0.00104877
v 0.96170664 0.13434595 0.01005296
v 0.95726979 0.12854604 0.07003813
v 0.95793056 0.12645164 0.05004308
v 0.95835537 0.12508221 0.03004801
v 0.95859134 0.16487604 0.15001838
v 0.90242267 0.12862660 0.32833970
v 0.90912515 0.12999603 0.30994681
v 0.91601646 0.13080156 0.28915066
v 0.92205811 0.13080156 0.26880312
v 0.91847086 0.12467944 0.27469909
v 0.92696697 0.12999603 0.24996163
v 0.93201745 0.12999603 0.22996657
v 0.93692631 0.13055989 0.20990743
v 0.93886155 0.12339056 0.18997645
v 0.93994713 0.12008784 0.17972258
v 0.94386482 0.12806273 0.17183991
v 0.95429611 0.14997348 0.15001838
v 0.94820726 0.12999603 0.15001838
v 0.95750576 0.15085959 0.13040784
v 0.95122808 0.12999603 0.13002332
v 0.95844978 0.14514023 0.11002825
v 0.95377690 0.12999603 0.11002825
v 0.95675057 0.13192932 0.08823877
v 0.94948167 0.10993800 0.09003320
v 0.90459388 -0.00936296 0.00104877
v 0.90459388 -0.00936296 0.01005296
v 0.86419022 -0.01049072 0.26957217
v 0.91384518 0.01005063 0.01005296
v 0.91342044 0.01005063 0.03004801
v 0.91257083 0.01005063 0.05004308
v 0.91124916 0.01005063 0.07003813
v 0.90950274 0.01005063 0.09003320
v 0.90737873 0.01005063 0.11002825
v 0.91393960 0.03018921 0.13002332
v 0.91087157 0.03002810 0.15001838
v 0.90752035 0.03018921 0.16982117
v 0.90374428 0.03018921 0.18920740
v 0.90336668 0.02930311 0.18917537
v 0.89737225 0.02591983 0.20997152
v 0.90176189 0.03590857 0.20997152
v 0.88453364 0.00892287 0.23038313
v 0.87754798 0.00505627 0.24996163
v 0.89425695 0.03018921 0.23067153
v 0.88231522 0.01504500 0.24996163
v 0.86211336 -0.00428804 0.28655514
v 0.85994214 0.00006190 0.29988518
v 0.84460193 -0.01008795 0.32833970
v 0.84370512 -0.01177959 0.32833970
v 0.85819572 0.00360629 0.30994681
v 0.96170664 0.13434595 0.00104877
v 0.95859134 0.12435722 0.01005296
v 0.95122808 0.10993800 0.07003813
v 0.95254970 0.10993800 0.05004308
v 0.95339930 0.10993800 0.03004801
v 0.89671141 0.11146852 0.32833970
v 0.90081787 0.11734899 0.32244372
v 0.90284747 0.11042131 0.30943412
v 0.90893638 0.10993800 0.28995174
v 0.92035890 0.11879897 0.26136905
v 0.91563880 0.11130741 0.26880312
v 0.92186934 0.11428793 0.24996163
v 0.92446536 0.10816580 0.23172896
v 0.93012941 0.10993800 0.20997152
v 0.93442464 0.10993800 0.18997645
v 0.94112718 0.11654345 0.16639253
v 0.93791753 0.10985744 0.17183991
v 0.94197679 0.10985744 0.14803168
v 0.94471443 0.10993800 0.13002332
v 0.94731045 0.10993800 0.11002825
v 0.94197679 0.09439101 0.11002825
v 0.94306237 0.09141050 0.09003320
v 0.90874755 -0.00066309 0.00104877
v 0.87490475 0.01117839 0.26928377
v 0.91384518 0.01005063 0.00104877
v 0.91629964 0.01528666 0.00104877
v 0.91922605 0.02165045 0.01005296
v 0.91903728 0.02213378 0.03004801
v 0.91861248 0.02310043 0.05004308
v 0.91795170 0.02463096 0.07003813
v 0.91705489 0.02664482 0.09003320
v 0.91681886 0.03018921 0.10695209
v 0.91620523 0.03018921 0.11223924
v 0.91983968 0.04033906 0.11906448
v 0.91913170 0.04211126 0.13002332
v 0.91762125 0.04581675 0.15001838
v 0.91634685 0.05105278 0.17004548
v 0.91205156 0.05008613 0.18997645
v 0.89572018 0.03018921 0.22477554
v 0.90039307 0.03896964 0.22182755
v 0.90770912 0.05008613 0.20997152
v 0.88061601 0.01866994 0.26213810
v 0.89524817 0.03147808 0.22906935
v 0.89874101 0.04291680 0.23515759
v 0.88925374 0.03018921 0.24980141
v 0.87858635 0.02293932 0.27546814
v 0.86631423 0.00803677 0.29190639
v 0.86301017 0.01359502 0.30994681
v 0.85489166 0.01045340 0.32833970
v 0.86088616 0.01818662 0.32237965
v 0.95859134 0.12435722 0.00104877
v 0.95387131 0.10993800 0.01005296
v 0.94343996 0.08802722 0.07186460
v 0.94561124 0.08996052 0.05004308
v 0.94646084 0.08996052 0.03004801
v 0.88948971 0.09157161 0.32833970
v 0.89855224 0.10405753 0.31574667
v 0.90077066 0.09777429 0.30241662
v 0.90242267 0.09068551 0.28883022
v 0.90785074 0.08996052 0.26995668
v 0.91847086 0.10429919 0.24996163
v 0.91983968 0.10027148 0.23957959
v 0.92149174 0.09576043 0.22624955
v 0.92309654 0.08939664 0.20961903
v 0.92743897 0.08996052 0.18997645
v 0.93886155 0.10317143 0.15338293
v 0.93126225 0.08996052 0.16998139
v 0.93994713 0.09994926 0.14005288
v 0.94065517 0.09801595 0.13002332
v 0.93706793 0.08802722 0.13002332
v 0.93834233 0.08448283 0.11002825
v 0.93942797 0.08142176 0.09003320
v 0.93994713 0.08005234 0.07971523
v 0.91922605 0.02173101 0.00104877
v 0.92295492 0.03018921 0.00104877
v 0.92295492 0.03018921 0.01005296
v 0.92262453 0.03018921 0.02623485
v 0.92253011 0.03018921 0.03004801
v 0.92191648 0.03018921 0.04465979
v 0.92168051 0.03018921 0.05004308
v 0.92229414 0.03461970 0.07003813
v 0.92144454 0.03663356 0.09003320
v 0.91814047 0.03018921 0.09471153
v 0.92064214 0.03856687 0.10573445
v 0.92394614 0.04823338 0.11143816
v 0.93286705 0.06998305 0.11002825
v 0.92319095 0.05209999 0.13002332
v 0.92168051 0.05572493 0.15001838
v 0.92059493 0.05846378 0.16344455
v 0.91936767 0.06152485 0.17674254
v 0.91804606 0.06490812 0.18997645
v 0.90313065 0.04976391 0.22906935
v 0.91615808 0.07103026 0.20961903
v 0.91101319 0.06998305 0.22996657
v 0.88354242 0.02978644 0.26928377
v 0.90152586 0.05620826 0.24579599
v 0.89727783 0.04976391 0.25146767
v 0.87679279 0.02978644 0.29110533
v 0.88165444 0.03631134 0.28520933
v 0.87075108 0.03018921 0.30981863
v 0.86329341 0.02833646 0.32833970
v 0.86414301 0.03018921 0.32833970
v 0.95387131 0.10993800 0.00104877
v 0.94688565 0.08996052 0.01005296
v 0.95004809 0.09898260 0.00104877
v 0.94046634 0.07868291 0.06638519
v 0.94098556 0.07731349 0.05004308
v 0.94141036 0.07626629 0.03004801
v 0.94164634 0.07562185 0.01005296
v 0.88892329 0.09004107 0.32833970
v 0.89576739 0.09068551 0.30943412
v 0.89831620 0.08440228 0.29472619
v 0.90039307 0.07884403 0.28139615
v 0.91337323 0.08996052 0.24996163
v 0.90209228 0.07449409 0.26995668
v 0.91785729 0.08939664 0.23172896
v 0.91908449 0.08238842 0.21605974
v 0.92059493 0.07836070 0.20272970
v 0.92186934 0.07489686 0.18997645
v 0.93574631 0.09197438 0.14803168
v 0.92342693 0.06885529 0.17004548
v 0.92725021 0.06998305 0.15001838
v 0.93027103 0.06998305 0.13002332
v 0.93503827 0.06998305 0.09003320
v 0.93711507 0.07119136 0.07186460
v 0.92361575 0.03171974 0.00104877
v 0.92361575 0.03171974 0.01005296
v 0.93097901 0.05008613 0.03004801
v 0.92295492 0.03316972 0.05004308
v 0.93008220 0.05008613 0.05004308
v 0.92880780 0.05008613 0.07003813
v 0.92701417 0.05008613 0.09003320
v 0.90482992 0.06829141 0.25146767
v 0.89213294 0.05008613 0.26995668
v 0.89973223 0.06055819 0.25915807
v 0.87948316 0.04114460 0.29853937
v 0.88505286 0.04871671 0.29110533
v 0.87754798 0.04565564 0.30994681
v 0.87363029 0.05161666 0.32833970
v 0.94688565 0.08996052 0.00104877
v 0.93706793 0.06732476 0.05004308
v 0.93749273 0.06619699 0.03004801
v 0.93777591 0.06563312 0.01005296
v 0.93989992 0.07111081 0.00104877
v 0.94164634 0.07562185 0.00104877
v 0.88170159 0.07127192 0.32833970
v 0.88764888 0.06998305 0.30994681
v 0.89510655 0.07127192 0.28883022
v 0.89817464 0.06450535 0.26995668
v 0.93135667 0.05008613 0.00104877
v 0.93135667 0.05008613 0.01005296
v 0.88179600 0.05556383 0.30994681
v 0.88004959 0.05975265 0.32023272
v 0.93777591 0.06563312 0.00104877
f 1 2 7
f 1 7 16
f 1 16 29
f 1 29 44
f 1 44 62
f 1 62 84
f 1 84 85
f 1 85 110
f 1 110 138
f 1 138 172
f 1 172 211
f 1 211 210
f 1 210 257
f 1 257 217
f 1 217 177
f 1 177 145
f 1 145 144
f 1 144 115
f 1 115 89
f 1 89 65
f 1 65 48
f 1 48 33
f 1 33 19
f 1 19 9
f 1 9 3
f 1 3 4
f 1 4 5
f 1 5 6
f 1 6 2
f 2 6 8
f 2 8 7
f 3 9 22
f 3 22 35
f 3 35 52
f 3 52 51
f 3 51 70
f 3 70 95
f 3 95 123
f 3 123 155
f 3 155 193
f 3 193 240
f 3 240 282
f 3 282 325
f 3 325 371
f 3 371 373
f 3 373 425
f 3 425 479
f 3 479 478
f 3 478 530
f 3 530 584
f 3 584 637
f 3 637 690
f 3 690 746
f 3 746 803
f 3 803 805
f 3 805 864
f 3 864 863
f 3 863 900
f 3 900 958
f 3 958 1012
f 3 1012 1011
f 3 1011 1013
f 3 1013 1068
f 3 1068 1072
f 3 1072 1073
f 3 1073 1125
f 3 1125 1177
f 3 1177 1179
f 3 1179 1229
f 3 1229 1279
f 3 1279 1331
f 3 1331 1333
f 3 1333 1368
f 3 1368 1373
f 3 1373 1372
f 3 1372 1382
f 3 1382 1378
f 3 1378 1354
f 3 1354 1303
f 3 1303 1302
f 3 1302 1254
f 3 1254 1253
f 3 1253 1251
f 3 1251 1204
f 3 1204 1153
f 3 1153 1098
f 3 1098 1043
f 3 1043 1042
f 3 1042 983
f 3 983 982
f 3 982 929
f 3 929 928
f 3 928 927
f 3 927 926
f 3 926 925
f 3 925 865
f 3 865 806
f 3 806 749
f 3 749 692
f 3 692 639
f 3 639 638
f 3 638 586
f 3 586 585
f 3 585 531
f 3 531 481
f 3 481 480
f 3 480 426
f 3 426 375
f 3 375 374
f 3 374 328
f 3 328 327
f 3 327 284
f 3 284 283
f 3 283 241
f 3 241 194
f 3 194 156
f 3 156 124
f 3 124 97
f 3 97 96
f 3 96 72
f 3 72 71
f 3 71 53
f 3 53 36
f 3 36 23
f 3 23 10
f 3 10 4
f 4 10 5
f 5 10 11
f 5 11 12
f 5 12 13
f 5 13 6
f 6 13 14
f 6 14 8
f 7 15 16
f 7 8 17
f 7 17 15
f 8 14 18
f 8 18 17
f 9 19 20
f 9 20 21
f 9 21 22
f 10 23 11
f 11 23 24
f 11 24 12
f 12 25 14
f 12 14 13
f 12 24 26
f 12 26 27
f 12 27 25
f 14 25 18
f 15 28 29
f 15 29 16
f 15 17 28
f 17 18 30
f 17 30 46
f 17 46 31
f 17 31 28
f 18 25 32
f 18 32 30
f 19 33 49
f 19 49 67
f 19 67 91
f 19 91 119
f 19 119 151
f 19 151 186
f 19 186 185
f 19 185 229
f 19 229 228
f 19 228 269
f 19 269 308
f 19 308 352
f 19 352 401
f 19 401 454
f 19 454 509
f 19 509 558
f 19 558 559
f 19 559 613
f 19 613 666
f 19 666 665
f 19 665 715
f 19 715 717
f 19 717 775
f 19 775 774
f 19 774 773
f 19 773 833
f 19 833 891
f 19 891 897
f 19 897 896
f 19 896 953
f 19 953 1005
f 19 1005 1004
f 19 1004 1062
f 19 1062 1117
f 19 1117 1171
f 19 1171 1123
f 19 1123 1176
f 19 1176 1227
f 19 1227 1226
f 19 1226 1277
f 19 1277 1329
f 19 1329 1330
f 19 1330 1367
f 19 1367 1374
f 19 1374 1338
f 19 1338 1284
f 19 1284 1234
f 19 1234 1185
f 19 1185 1133
f 19 1133 1081
f 19 1081 1080
f 19 1080 1026
f 19 1026 1025
f 19 1025 969
f 19 969 911
f 19 911 910
f 19 910 909
f 19 909 908
f 19 908 847
f 19 847 791
f 19 791 734
f 19 734 677
f 19 677 622
f 19 622 570
f 19 570 569
f 19 569 519
f 19 519 465
f 19 465 413
f 19 413 365
f 19 365 318
f 19 318 273
f 19 273 231
f 19 231 188
f 19 188 154
f 19 154 153
f 19 153 122
f 19 122 94
f 19 94 93
f 19 93 69
f 19 69 68
f 19 68 50
f 19 50 34
f 19 34 21
f 19 21 20
f 21 34 22
f 22 34 35
f 23 36 24
f 24 36 53
f 24 53 37
f 24 37 26
f 25 27 32
f 26 37 38
f 26 38 27
f 27 38 39
f 27 39 40
f 27 40 41
f 27 41 32
f 28 31 42
f 28 42 43
f 28 43 44
f 28 44 45
f 28 45 29
f 29 45 44
f 30 32 46
f 31 46 61
f 31 61 42
f 32 41 47
f 32 47 46
f 33 48 49
f 34 50 51
f 34 51 52
f 34 52 35
f 37 53 71
f 37 71 54
f 37 54 55
f 37 55 38
f 38 55 56
f 38 56 39
f 39 56 40
f 40 56 57
f 40 57 58
f 40 58 41
f 41 58 59
f 41 59 47
f 42 60 43
f 42 61 83
f 42 83 60
f 43 62 44
f 43 60 63
f 43 63 62
f 46 47 61
f 47 59 64
f 47 64 61
f 48 65 66
f 48 66 49
f 49 66 67
f 50 68 51
f 51 68 69
f 51 69 70
f 54 71 72
f 54 72 73
f 54 73 55
f 55 73 74
f 55 74 56
f 56 74 75
f 56 75 76
f 56 76 57
f 57 76 77
f 57 77 78
f 57 78 58
f 58 79 59
f 58 78 79
f 59 79 80
f 59 80 64
f 60 81 82
f 60 82 63
f 60 83 81
f 61 64 83
f 62 63 84
f 63 82 85
f 63 85 84
f 64 86 83
f 64 80 87
f 64 87 86
f 65 88 66
f 65 89 88
f 66 90 91
f 66 91 67
f 66 88 92
f 66 92 90
f 69 93 70
f 70 93 94
f 70 94 95
f 72 96 73
f 73 96 97
f 73 97 98
f 73 98 99
f 73 99 74
f 74 99 100
f 74 100 75
f 75 100 76
f 76 100 101
f 76 101 102
f 76 102 77
f 77 102 103
f 77 103 104
f 77 104 105
f 77 105 78
f 78 105 79
f 79 106 80
f 79 105 106
f 80 106 87
f 81 83 107
f 81 107 108
f 81 108 82
f 82 108 109
f 82 109 110
f 82 110 85
f 83 86 107
f 86 111 107
f 86 87 112
f 86 112 111
f 87 106 113
f 87 113 112
f 88 89 114
f 88 114 92
f 89 115 114
f 90 92 116
f 90 116 117
f 90 117 118
f 90 118 91
f 91 118 119
f 92 114 120
f 92 120 121
f 92 121 116
f 94 122 95
f 95 122 123
f 97 124 98
f 98 124 125
f 98 125 126
f 98 126 99
f 99 126 100
f 100 126 127
f 100 127 101
f 101 127 128
f 101 128 102
f 102 128 129
f 102 129 103
f 103 129 130
f 103 130 131
f 103 131 104
f 104 131 132
f 104 132 105
f 105 132 133
f 105 133 113
f 105 113 106
f 107 111 134
f 107 134 108
f 108 134 135
f 108 135 109
f 109 136 137
f 109 137 110
f 109 135 169
f 109 169 136
f 110 137 138
f 111 139 134
f 111 112 140
f 111 140 139
f 112 113 141
f 112 141 140
f 113 133 142
f 113 142 141
f 114 143 120
f 114 115 144
f 114 144 145
f 114 145 143
f 116 121 117
f 117 146 147
f 117 147 148
f 117 148 118
f 117 121 149
f 117 149 146
f 118 148 150
f 118 150 151
f 118 151 119
f 120 143 121
f 121 143 152
f 121 152 149
f 122 153 123
f 123 153 154
f 123 154 155
f 124 156 157
f 124 157 125
f 125 157 126
f 126 157 158
f 126 158 159
f 126 159 127
f 127 159 128
f 128 159 160
f 128 160 129
f 129 160 161
f 129 161 130
f 130 161 162
f 130 162 163
f 130 163 164
f 130 164 131
f 131 164 165
f 131 165 132
f 132 166 142
f 132 142 133
f 132 165 167
f 132 167 166
f 134 139 168
f 134 168 169
f 134 169 135
f 136 170 137
f 136 169 170
f 137 170 171
f 137 171 172
f 137 172 138
f 139 140 173
f 139 173 168
f 140 141 174
f 140 174 173
f 141 142 174
f 142 166 175
f 142 175 176
f 142 176 174
f 143 145 177
f 143 177 178
f 143 178 152
f 146 149 179
f 146 179 180
f 146 180 181
f 146 181 147
f 147 181 182
f 147 182 148
f 148 182 183
f 148 183 150
f 149 152 184
f 149 184 179
f 150 183 185
f 150 185 186
f 150 186 151
f 152 187 184
f 152 178 187
f 154 188 189
f 154 189 190
f 154 190 191
f 154 191 155
f 155 191 192
f 155 192 193
f 156 194 157
f 157 194 195
f 157 195 158
f 158 195 196
f 158 196 159
f 159 196 197
f 159 197 160
f 160 197 198
f 160 198 161
f 161 198 199
f 161 199 200
f 161 200 162
f 162 200 163
f 163 200 201
f 163 201 202
f 163 202 164
f 164 202 203
f 164 203 165
f 165 203 167
f 166 167 175
f 167 203 204
f 167 204 205
f 167 205 175
f 168 173 206
f 168 206 207
f 168 207 169
f 169 207 208
f 169 208 170
f 170 208 209
f 170 209 171
f 171 209 210
f 171 210 211
f 171 211 172
f 173 174 212
f 173 212 213
f 173 213 214
f 173 214 206
f 174 176 212
f 175 215 176
f 175 205 215
f 176 216 212
f 176 215 216
f 177 217 218
f 177 218 178
f 178 218 219
f 178 219 220
f 178 220 187
f 179 221 180
f 179 184 222
f 179 222 223
f 179 223 221
f 180 221 224
f 180 224 225
f 180 225 181
f 181 225 226
f 181 226 182
f 182 226 227
f 182 227 183
f 183 227 228
f 183 228 229
f 183 229 185
f 184 187 222
f 187 220 222
f 188 230 189
f 188 231 232
f 188 232 233
f 188 233 234
f 188 234 230
f 189 235 236
f 189 236 190
f 189 230 235
f 190 236 192
f 190 192 191
f 192 237 238
f 192 238 239
f 192 239 240
f 192 240 193
f 192 236 235
f 192 235 237
f 194 241 195
f 195 241 283
f 195 283 242
f 195 242 243
f 195 243 196
f 196 243 244
f 196 244 197
f 197 244 245
f 197 245 198
f 198 245 246
f 198 246 199
f 199 246 247
f 199 247 200
f 200 247 248
f 200 248 201
f 201 248 249
f 201 249 202
f 202 249 250
f 202 250 251
f 202 251 203
f 203 251 254
f 203 254 204
f 204 252 253
f 204 253 205
f 204 254 252
f 205 253 215
f 206 214 207
f 207 219 208
f 207 214 255
f 207 255 220
f 207 220 219
f 208 219 209
f 209 219 256
f 209 256 210
f 210 256 257
f 212 216 258
f 212 258 259
f 212 259 213
f 213 259 214
f 214 259 255
f 215 253 260
f 215 260 216
f 216 260 261
f 216 261 258
f 217 257 218
f 218 257 256
f 218 256 219
f 220 255 222
f 221 262 224
f 221 223 263
f 221 263 262
f 222 255 223
f 223 255 259
f 223 259 258
f 223 258 263
f 224 264 265
f 224 265 225
f 224 262 264
f 225 265 266
f 225 266 226
f 226 266 267
f 226 267 227
f 227 267 268
f 227 268 228
f 228 268 269
f 230 270 235
f 230 234 271
f 230 271 272
f 230 272 270
f 231 233 232
f 231 273 233
f 233 273 274
f 233 274 275
f 233 275 276
f 233 276 277
f 233 277 271
f 233 271 234
f 235 270 278
f 235 278 237
f 237 278 279
f 237 279 280
f 237 280 238
f 238 280 281
f 238 281 239
f 239 282 240
f 239 281 282
f 242 283 284
f 242 284 285
f 242 285 286
f 242 286 243
f 243 286 244
f 244 286 287
f 244 287 288
f 244 288 245
f 245 288 289
f 245 289 246
f 246 289 247
f 247 289 290
f 247 290 291
f 247 291 248
f 248 291 249
f 249 291 292
f 249 292 293
f 249 293 250
f 250 293 251
f 251 293 294
f 251 294 254
f 252 295 253
f 252 254 296
f 252 296 295
f 253 297 260
f 253 295 298
f 253 298 297
f 254 294 299
f 254 299 296
f 258 261 300
f 258 300 263
f 260 297 261
f 261 297 300
f 262 263 300
f 262 300 301
f 262 301 264
f 264 301 302
f 264 302 303
f 264 303 304
f 264 304 265
f 265 304 266
f 266 304 305
f 266 305 306
f 266 306 267
f 267 306 307
f 267 307 268
f 268 307 308
f 268 308 269
f 270 272 309
f 270 309 310
f 270 310 311
f 270 311 278
f 271 277 312
f 271 312 313
f 271 313 314
f 271 314 315
f 271 315 309
f 271 309 272
f 273 316 317
f 273 317 275
f 273 275 274
f 273 318 316
f 275 319 277
f 275 277 276
f 275 317 320
f 275 320 321
f 275 321 319
f 277 319 322
f 277 322 312
f 278 311 279
f 279 311 323
f 279 323 280
f 280 323 324
f 280 324 281
f 281 325 282
f 281 324 326
f 281 326 325
f 284 327 285
f 285 327 328
f 285 328 329
f 285 329 330
f 285 330 286
f 286 330 331
f 286 331 332
f 286 332 287
f 287 332 333
f 287 333 334
f 287 334 288
f 288 334 335
f 288 335 289
f 289 335 336
f 289 336 290
f 290 336 337
f 290 337 291
f 291 337 338
f 291 338 292
f 292 338 339
f 292 339 293
f 293 339 340
f 293 340 341
f 293 341 294
f 294 341 299
f 295 296 342
f 295 342 343
f 295 343 298
f 296 299 344
f 296 344 342
f 297 298 302
f 297 302 301
f 297 301 300
f 298 343 302
f 299 341 345
f 299 345 344
f 302 343 346
f 302 346 303
f 303 346 347
f 303 347 304
f 304 347 348
f 304 348 305
f 305 348 306
f 306 348 349
f 306 349 350
f 306 350 307
f 307 350 351
f 307 351 308
f 308 351 352
f 309 315 353
f 309 353 354
f 309 354 355
f 309 355 356
f 309 356 357
f 309 357 310
f 310 357 311
f 311 357 324
f 311 324 323
f 312 322 358
f 312 358 359
f 312 359 313
f 313 359 314
f 314 359 315
f 315 359 353
f 316 360 361
f 316 361 362
f 316 362 363
f 316 363 364
f 316 364 320
f 316 320 317
f 316 318 360
f 318 365 360
f 319 321 322
f 320 364 366
f 320 366 367
f 320 367 368
f 320 368 369
f 320 369 321
f 321 358 322
f 321 369 358
f 324 357 370
f 324 370 326
f 325 326 371
f 326 370 372
f 326 372 373
f 326 373 371
f 328 374 329
f 329 374 375
f 329 375 376
f 329 376 330
f 330 332 331
f 330 376 377
f 330 377 332
f 332 377 378
f 332 378 379
f 332 379 380
f 332 380 381
f 332 381 333
f 333 381 382
f 333 382 334
f 334 382 335
f 335 382 383
f 335 383 384
f 335 384 336
f 336 384 337
f 337 384 385
f 337 385 338
f 338 385 386
f 338 386 339
f 339 386 387
f 339 387 388
f 339 388 340
f 340 388 389
f 340 389 390
f 340 390 391
f 340 391 341
f 341 391 345
f 342 344 392
f 342 392 393
f 342 393 343
f 343 393 346
f 344 345 394
f 344 394 392
f 345 391 395
f 345 395 394
f 346 393 396
f 346 396 347
f 347 396 397
f 347 397 348
f 348 397 398
f 348 398 349
f 349 398 399
f 349 399 350
f 350 399 400
f 350 400 351
f 351 400 401
f 351 401 352
f 353 359 369
f 353 369 402
f 353 402 354
f 354 403 355
f 354 402 404
f 354 404 455
f 354 455 403
f 355 403 356
f 356 403 405
f 356 405 357
f 357 405 370
f 358 369 359
f 360 365 406
f 360 406 361
f 361 406 407
f 361 407 408
f 361 408 362
f 362 408 409
f 362 409 363
f 363 409 410
f 363 410 411
f 363 411 364
f 364 411 410
f 364 410 412
f 364 412 366
f 365 413 414
f 365 414 406
f 366 412 410
f 366 410 415
f 366 415 416
f 366 416 367
f 367 416 417
f 367 417 368
f 368 418 369
f 368 417 419
f 368 419 418
f 369 418 420
f 369 420 421
f 369 421 422
f 369 422 404
f 369 404 402
f 370 405 423
f 370 423 372
f 372 423 424
f 372 424 373
f 373 424 425
f 375 426 376
f 376 426 427
f 376 427 377
f 377 427 428
f 377 428 429
f 377 429 378
f 378 429 430
f 378 430 379
f 379 430 431
f 379 431 432
f 379 432 433
f 379 433 380
f 380 433 381
f 381 433 382
f 382 433 434
f 382 434 383
f 383 434 435
f 383 435 384
f 384 435 436
f 384 436 385
f 385 436 437
f 385 437 386
f 386 437 387
f 387 437 438
f 387 438 388
f 388 439 389
f 388 438 440
f 388 440 441
f 388 441 442
f 388 442 439
f 389 439 443
f 389 443 390
f 390 443 444
f 390 444 395
f 390 395 391
f 392 394 445
f 392 445 446
f 392 446 393
f 393 446 396
f 394 395 447
f 394 447 445
f 395 444 447
f 396 446 448
f 396 448 397
f 397 448 398
f 398 448 449
f 398 449 450
f 398 450 451
f 398 451 399
f 399 451 452
f 399 452 400
f 400 452 453
f 400 453 401
f 401 453 454
f 403 455 405
f 404 422 475
f 404 475 456
f 404 456 457
f 404 457 455
f 405 455 423
f 406 414 458
f 406 458 407
f 407 458 408
f 408 458 459
f 408 459 461
f 408 461 409
f 409 460 410
f 409 461 462
f 409 462 460
f 410 460 463
f 410 463 464
f 410 464 415
f 413 465 414
f 414 465 466
f 414 466 513
f 414 513 458
f 415 464 467
f 415 467 468
f 415 468 416
f 416 468 469
f 416 469 470
f 416 470 417
f 417 420 418
f 417 418 419
f 417 470 471
f 417 471 472
f 417 472 473
f 417 473 474
f 417 474 421
f 417 421 420
f 421 474 475
f 421 475 422
f 423 455 457
f 423 457 476
f 423 476 424
f 424 476 512
f 424 512 477
f 424 477 478
f 424 478 479
f 424 479 425
f 426 480 427
f 427 480 481
f 427 481 428
f 428 481 531
f 428 531 482
f 428 482 483
f 428 483 429
f 429 483 430
f 430 483 484
f 430 484 485
f 430 485 486
f 430 486 431
f 431 486 487
f 431 487 432
f 432 434 433
f 432 487 488
f 432 488 434
f 434 488 489
f 434 489 435
f 435 489 436
f 436 489 490
f 436 490 437
f 437 490 438
f 438 490 491
f 438 491 492
f 438 492 440
f 439 442 493
f 439 493 494
f 439 494 443
f 440 492 495
f 440 495 496
f 440 496 441
f 441 496 497
f 441 497 498
f 441 498 499
f 441 499 442
f 442 499 493
f 443 494 500
f 443 500 444
f 444 500 501
f 444 501 447
f 445 447 502
f 445 502 446
f 446 502 503
f 446 503 448
f 447 501 502
f 448 503 504
f 448 504 449
f 449 504 450
f 450 504 505
f 450 505 506
f 450 506 507
f 450 507 451
f 451 507 452
f 452 507 508
f 452 508 453
f 453 508 509
f 453 509 454
f 456 475 528
f 456 528 510
f 456 510 457
f 457 510 511
f 457 511 512
f 457 512 476
f 458 513 459
f 459 513 514
f 459 514 515
f 459 515 461
f 460 462 516
f 460 516 463
f 461 515 462
f 462 515 517
f 462 517 516
f 463 516 464
f 464 516 518
f 464 518 467
f 465 519 466
f 466 519 520
f 466 520 521
f 466 521 513
f 467 518 522
f 467 522 523
f 467 523 468
f 468 523 524
f 468 524 469
f 469 524 525
f 469 525 526
f 469 526 470
f 470 526 471
f 471 526 472
f 472 526 473
f 473 526 474
f 474 526 527
f 474 527 528
f 474 528 475
f 477 512 562
f 477 562 529
f 477 529 530
f 477 530 478
f 482 531 585
f 482 585 532
f 482 532 483
f 483 532 533
f 483 533 534
f 483 534 484
f 484 534 535
f 484 535 485
f 485 535 536
f 485 536 486
f 486 536 537
f 486 537 487
f 487 538 489
f 487 489 488
f 487 537 539
f 487 539 538
f 489 538 491
f 489 491 490
f 491 539 540
f 491 540 492
f 491 538 539
f 492 540 495
f 493 499 541
f 493 541 542
f 493 542 494
f 494 542 543
f 494 543 500
f 495 540 544
f 495 544 496
f 496 544 545
f 496 545 546
f 496 546 547
f 496 547 497
f 497 547 548
f 497 548 549
f 497 549 498
f 498 549 550
f 498 550 499
f 499 550 541
f 500 551 501
f 500 543 551
f 501 551 502
f 502 551 552
f 502 552 553
f 502 553 503
f 503 553 504
f 504 553 505
f 505 553 554
f 505 554 555
f 505 555 506
f 506 555 556
f 506 556 507
f 507 556 557
f 507 557 508
f 508 558 509
f 508 557 559
f 508 559 558
f 510 528 582
f 510 582 560
f 510 560 561
f 510 561 511
f 511 561 512
f 512 561 562
f 513 521 514
f 514 521 563
f 514 563 515
f 515 564 517
f 515 563 565
f 515 565 566
f 515 566 564
f 516 517 518
f 517 564 567
f 517 567 568
f 517 568 518
f 518 568 522
f 519 569 520
f 520 569 570
f 520 570 571
f 520 571 521
f 521 571 563
f 522 568 572
f 522 572 573
f 522 573 574
f 522 574 523
f 523 574 576
f 523 576 524
f 524 575 525
f 524 576 577
f 524 577 575
f 525 575 578
f 525 578 526
f 526 578 579
f 526 579 527
f 527 578 580
f 527 580 581
f 527 581 582
f 527 582 528
f 527 579 578
f 529 562 616
f 529 616 583
f 529 583 584
f 529 584 530
f 532 585 586
f 532 586 587
f 532 587 588
f 532 588 533
f 533 588 589
f 533 589 534
f 534 589 590
f 534 590 535
f 535 591 536
f 535 590 644
f 535 644 591
f 536 591 592
f 536 592 537
f 537 592 539
f 539 592 593
f 539 593 540
f 540 593 544
f 541 550 594
f 541 594 595
f 541 595 542
f 542 595 596
f 542 596 543
f 543 596 551
f 544 593 597
f 544 597 545
f 545 598 599
f 545 599 600
f 545 600 546
f 545 597 598
f 546 600 601
f 546 601 602
f 546 602 547
f 547 602 548
f 548 602 603
f 548 603 604
f 548 604 605
f 548 605 549
f 549 605 550
f 550 605 594
f 551 606 552
f 551 596 607
f 551 607 606
f 552 606 553
f 553 606 554
f 554 606 608
f 554 608 555
f 555 608 609
f 555 609 556
f 556 609 610
f 556 610 611
f 556 611 612
f 556 612 557
f 557 612 559
f 559 612 613
f 560 582 635
f 560 635 614
f 560 614 615
f 560 615 561
f 561 615 616
f 561 616 562
f 563 571 617
f 563 617 565
f 564 566 567
f 565 617 618
f 565 618 619
f 565 619 566
f 566 619 620
f 566 620 567
f 567 620 568
f 568 620 572
f 570 621 571
f 570 622 623
f 570 623 621
f 571 621 624
f 571 624 617
f 572 620 625
f 572 625 573
f 573 625 626
f 573 626 627
f 573 627 574
f 574 627 576
f 575 628 578
f 575 577 628
f 576 627 629
f 576 629 630
f 576 630 577
f 577 631 628
f 577 630 632
f 577 632 631
f 578 628 580
f 580 628 633
f 580 633 581
f 581 633 634
f 581 634 582
f 582 634 635
f 583 616 671
f 583 671 636
f 583 636 690
f 583 690 637
f 583 637 584
f 586 638 587
f 587 639 640
f 587 640 641
f 587 641 588
f 587 638 639
f 588 641 589
f 589 641 642
f 589 642 590
f 590 642 643
f 590 643 696
f 590 696 644
f 591 645 592
f 591 644 646
f 591 646 645
f 592 645 593
f 593 645 597
f 594 647 595
f 594 605 648
f 594 648 649
f 594 649 647
f 595 647 596
f 596 650 607
f 596 647 651
f 596 651 650
f 597 645 646
f 597 646 598
f 598 646 599
f 599 646 652
f 599 652 653
f 599 653 654
f 599 654 600
f 600 654 655
f 600 655 601
f 601 656 602
f 601 655 657
f 601 657 656
f 602 656 603
f 603 656 658
f 603 658 659
f 603 659 604
f 604 659 648
f 604 648 605
f 606 607 650
f 606 650 660
f 606 660 608
f 608 660 661
f 608 661 609
f 609 661 610
f 610 662 611
f 610 661 663
f 610 663 664
f 610 664 662
f 611 662 665
f 611 665 666
f 611 666 612
f 612 666 613
f 614 635 667
f 614 667 668
f 614 668 669
f 614 669 670
f 614 670 615
f 615 670 671
f 615 671 616
f 617 624 672
f 617 672 618
f 618 672 673
f 618 673 619
f 619 674 620
f 619 673 675
f 619 675 676
f 619 676 674
f 620 674 625
f 621 623 624
f 622 677 678
f 622 678 623
f 623 679 624
f 623 678 679
f 624 679 672
f 625 674 680
f 625 680 626
f 626 680 681
f 626 681 627
f 627 681 682
f 627 682 683
f 627 683 629
f 628 631 633
f 629 683 630
f 630 683 684
f 630 684 687
f 630 687 632
f 631 632 685
f 631 685 633
f 632 686 685
f 632 687 688
f 632 688 686
f 633 685 634
f 634 685 689
f 634 689 635
f 635 689 667
f 636 671 691
f 636 691 746
f 636 746 690
f 639 692 640
f 640 693 641
f 640 692 749
f 640 749 693
f 641 693 694
f 641 694 695
f 641 695 642
f 642 695 697
f 642 697 643
f 643 697 698
f 643 698 696
f 644 696 646
f 646 696 652
f 647 649 699
f 647 699 700
f 647 700 701
f 647 701 651
f 648 659 702
f 648 702 699
f 648 699 649
f 650 703 660
f 650 651 701
f 650 701 704
f 650 704 703
f 652 696 705
f 652 705 653
f 653 705 706
f 653 706 707
f 653 707 708
f 653 708 654
f 654 708 709
f 654 709 655
f 655 709 711
f 655 711 657
f 656 657 710
f 656 710 658
f 657 711 712
f 657 712 710
f 658 710 713
f 658 713 714
f 658 714 702
f 658 702 659
f 660 703 661
f 661 703 663
f 662 715 665
f 662 664 716
f 662 716 717
f 662 717 715
f 663 718 664
f 663 703 718
f 664 718 719
f 664 719 720
f 664 720 721
f 664 721 716
f 667 722 668
f 667 689 722
f 668 722 723
f 668 723 724
f 668 724 725
f 668 725 669
f 669 725 670
f 670 725 726
f 670 726 727
f 670 727 671
f 671 727 728
f 671 728 691
f 672 679 729
f 672 729 673
f 673 729 730
f 673 730 675
f 674 676 680
f 675 730 731
f 675 731 732
f 675 732 676
f 676 732 733
f 676 733 680
f 677 734 678
f 678 734 735
f 678 735 736
f 678 736 737
f 678 737 738
f 678 738 679
f 679 738 729
f 680 733 681
f 681 733 739
f 681 739 682
f 682 739 740
f 682 740 683
f 683 740 741
f 683 741 742
f 683 742 684
f 684 742 743
f 684 743 687
f 685 686 689
f 686 688 722
f 686 722 689
f 687 743 688
f 688 743 744
f 688 744 745
f 688 745 723
f 688 723 722
f 691 728 747
f 691 747 748
f 691 748 803
f 691 803 746
f 693 749 806
f 693 806 750
f 693 750 751
f 693 751 694
f 694 751 695
f 695 751 752
f 695 752 753
f 695 753 754
f 695 754 697
f 696 698 705
f 697 754 698
f 698 754 755
f 698 755 705
f 699 702 756
f 699 756 757
f 699 757 758
f 699 758 700
f 700 758 759
f 700 759 701
f 701 759 760
f 701 760 704
f 702 714 761
f 702 761 756
f 703 704 718
f 704 760 718
f 705 755 762
f 705 762 706
f 706 762 707
f 707 762 819
f 707 819 763
f 707 763 824
f 707 824 764
f 707 764 708
f 708 764 709
f 709 764 765
f 709 765 711
f 710 712 713
f 711 765 766
f 711 766 767
f 711 767 712
f 712 767 768
f 712 768 769
f 712 769 713
f 713 769 770
f 713 770 771
f 713 771 772
f 713 772 714
f 714 772 761
f 716 721 773
f 716 773 774
f 716 774 775
f 716 775 717
f 718 760 719
f 719 760 776
f 719 776 720
f 720 776 777
f 720 777 778
f 720 778 779
f 720 779 780
f 720 780 721
f 721 780 773
f 723 745 724
f 724 781 725
f 724 745 782
f 724 782 781
f 725 781 726
f 726 781 727
f 727 783 784
f 727 784 785
f 727 785 747
f 727 747 728
f 727 781 783
f 729 738 786
f 729 786 730
f 730 786 787
f 730 787 731
f 731 787 788
f 731 788 789
f 731 789 732
f 732 789 790
f 732 790 733
f 733 790 739
f 734 791 735
f 735 791 792
f 735 792 736
f 736 792 793
f 736 793 737
f 737 793 794
f 737 794 786
f 737 786 738
f 739 790 795
f 739 795 740
f 740 795 796
f 740 796 741
f 741 796 742
f 742 796 797
f 742 797 798
f 742 798 743
f 743 798 799
f 743 799 800
f 743 800 744
f 744 800 801
f 744 801 745
f 745 801 802
f 745 802 782
f 747 785 804
f 747 804 748
f 748 805 803
f 748 804 805
f 750 806 865
f 750 865 807
f 750 807 751
f 751 807 808
f 751 808 752
f 752 809 753
f 752 808 810
f 752 810 811
f 752 811 812
f 752 812 809
f 753 809 754
f 754 809 813
f 754 813 762
f 754 762 755
f 756 761 814
f 756 814 815
f 756 815 757
f 757 815 816
f 757 816 758
f 758 816 817
f 758 817 759
f 759 817 776
f 759 776 760
f 761 772 818
f 761 818 814
f 762 813 867
f 762 867 819
f 763 820 821
f 763 821 822
f 763 822 823
f 763 823 824
f 763 819 820
f 764 824 825
f 764 825 765
f 765 825 766
f 766 825 826
f 766 826 827
f 766 827 828
f 766 828 768
f 766 768 767
f 768 770 769
f 768 828 770
f 770 828 829
f 770 829 830
f 770 830 831
f 770 831 771
f 771 831 832
f 771 832 772
f 772 832 818
f 773 780 833
f 776 817 834
f 776 834 777
f 777 834 778
f 778 834 835
f 778 835 836
f 778 836 837
f 778 837 779
f 779 837 838
f 779 838 780
f 780 838 833
f 781 782 783
f 782 802 783
f 783 802 839
f 783 839 784
f 784 840 804
f 784 804 785
f 784 839 841
f 784 841 899
f 784 899 840
f 786 794 787
f 787 794 842
f 787 842 788
f 788 842 789
f 789 842 843
f 789 843 844
f 789 844 845
f 789 845 846
f 789 846 790
f 790 846 795
f 791 847 848
f 791 848 792
f 792 848 849
f 792 849 850
f 792 850 793
f 793 851 852
f 793 852 853
f 793 853 854
f 793 854 794
f 793 850 851
f 794 854 842
f 795 846 796
f 796 846 855
f 796 855 856
f 796 856 797
f 797 856 857
f 797 857 798
f 798 857 858
f 798 858 799
f 799 858 859
f 799 859 800
f 800 859 860
f 800 860 861
f 800 861 801
f 801 861 862
f 801 862 802
f 802 862 898
f 802 898 839
f 804 840 863
f 804 863 864
f 804 864 805
f 807 865 925
f 807 925 866
f 807 866 810
f 807 810 808
f 809 812 867
f 809 867 813
f 810 866 868
f 810 868 811
f 811 868 869
f 811 869 870
f 811 870 871
f 811 871 872
f 811 872 812
f 812 872 867
f 814 873 815
f 814 818 874
f 814 874 873
f 815 873 875
f 815 875 816
f 816 875 834
f 816 834 817
f 818 832 876
f 818 876 874
f 819 867 877
f 819 877 820
f 820 877 878
f 820 878 821
f 821 879 822
f 821 878 880
f 821 880 881
f 821 881 879
f 822 879 823
f 823 879 882
f 823 882 826
f 823 826 825
f 823 825 824
f 826 882 827
f 827 882 938
f 827 938 883
f 827 883 884
f 827 884 885
f 827 885 828
f 828 885 829
f 829 885 886
f 829 886 887
f 829 887 830
f 830 888 831
f 830 887 889
f 830 889 888
f 831 888 832
f 832 888 890
f 832 890 876
f 833 838 891
f 834 875 892
f 834 892 835
f 835 892 893
f 835 893 836
f 836 894 837
f 836 893 895
f 836 895 894
f 837 894 838
f 838 894 896
f 838 896 897
f 838 897 891
f 839 898 841
f 840 899 900
f 840 900 863
f 841 898 901
f 841 901 902
f 841 902 957
f 841 957 899
f 842 854 903
f 842 903 843
f 843 903 904
f 843 904 844
f 844 904 905
f 844 905 845
f 845 906 846
f 845 905 907
f 845 907 906
f 846 906 855
f 847 908 848
f 848 908 909
f 848 909 910
f 848 910 849
f 849 910 911
f 849 911 912
f 849 912 851
f 849 851 850
f 851 912 913
f 851 913 852
f 852 913 914
f 852 914 853
f 853 914 915
f 853 915 916
f 853 916 917
f 853 917 903
f 853 903 854
f 855 906 856
f 856 906 918
f 856 918 857
f 857 918 919
f 857 919 858
f 858 919 920
f 858 920 859
f 859 920 921
f 859 921 860
f 860 921 922
f 860 922 861
f 861 922 923
f 861 923 862
f 862 923 924
f 862 924 901
f 862 901 898
f 866 925 926
f 866 926 868
f 867 872 877
f 868 926 927
f 868 927 869
f 869 928 929
f 869 929 930
f 869 930 931
f 869 931 870
f 869 927 928
f 870 931 871
f 871 931 932
f 871 932 933
f 871 933 934
f 871 934 877
f 871 877 872
f 873 874 935
f 873 935 936
f 873 936 892
f 873 892 875
f 874 876 935
f 876 890 937
f 876 937 935
f 877 934 878
f 878 934 933
f 878 933 880
f 879 881 938
f 879 938 882
f 880 933 939
f 880 939 940
f 880 940 881
f 881 940 941
f 881 941 938
f 883 938 942
f 883 942 943
f 883 943 884
f 884 943 944
f 884 944 886
f 884 886 885
f 886 944 945
f 886 945 946
f 886 946 947
f 886 947 887
f 887 947 889
f 888 889 948
f 888 948 949
f 888 949 890
f 889 947 950
f 889 950 948
f 890 949 937
f 892 936 951
f 892 951 893
f 893 951 895
f 894 895 952
f 894 952 953
f 894 953 896
f 895 951 954
f 895 954 955
f 895 955 956
f 895 956 952
f 899 957 1012
f 899 1012 958
f 899 958 900
f 901 924 959
f 901 959 960
f 901 960 902
f 902 960 961
f 902 961 962
f 902 962 963
f 902 963 957
f 903 917 904
f 904 917 964
f 904 964 905
f 905 964 965
f 905 965 907
f 906 907 966
f 906 966 967
f 906 967 918
f 907 965 968
f 907 968 966
f 911 969 970
f 911 970 912
f 912 970 913
f 913 970 971
f 913 971 914
f 914 971 972
f 914 972 915
f 915 972 973
f 915 973 916
f 916 973 974
f 916 974 975
f 916 975 976
f 916 976 964
f 916 964 917
f 918 967 977
f 918 977 919
f 919 977 920
f 920 977 978
f 920 978 921
f 921 978 979
f 921 979 922
f 922 979 980
f 922 980 923
f 923 980 981
f 923 981 924
f 924 981 959
f 929 982 930
f 930 982 983
f 930 983 984
f 930 984 931
f 931 984 985
f 931 985 932
f 932 985 986
f 932 986 939
f 932 939 933
f 935 937 987
f 935 987 988
f 935 988 936
f 936 988 951
f 937 949 989
f 937 989 987
f 938 941 942
f 939 986 990
f 939 990 991
f 939 991 992
f 939 992 940
f 940 992 993
f 940 993 941
f 941 993 994
f 941 994 942
f 942 994 995
f 942 995 943
f 943 995 996
f 943 996 944
f 944 996 945
f 945 996 997
f 945 997 998
f 945 998 999
f 945 999 946
f 946 999 1000
f 946 1000 947
f 947 1000 950
f 948 950 1001
f 948 1001 1002
f 948 1002 989
f 948 989 949
f 950 1000 1003
f 950 1003 1001
f 951 988 954
f 952 956 1004
f 952 1004 1005
f 952 1005 953
f 954 1006 955
f 954 988 1006
f 955 1006 1007
f 955 1007 1008
f 955 1008 1009
f 955 1009 1010
f 955 1010 956
f 956 1010 1004
f 957 1011 1012
f 957 963 1013
f 957 1013 1011
f 959 981 1014
f 959 1014 1015
f 959 1015 960
f 960 1015 961
f 961 1015 1016
f 961 1016 962
f 962 1017 963
f 962 1016 1018
f 962 1018 1019
f 962 1019 1020
f 962 1020 1017
f 963 1017 1013
f 964 976 965
f 965 976 975
f 965 975 1021
f 965 1021 968
f 966 968 1022
f 966 1022 1023
f 966 1023 1024
f 966 1024 967
f 967 1024 1037
f 967 1037 977
f 968 1021 1022
f 969 1025 970
f 970 1025 1026
f 970 1026 1027
f 970 1027 1028
f 970 1028 971
f 971 1028 1029
f 971 1029 972
f 972 1029 1030
f 972 1030 1031
f 972 1031 973
f 973 1031 1032
f 973 1032 974
f 974 1032 1033
f 974 1033 975
f 975 1034 1021
f 975 1033 1035
f 975 1035 1036
f 975 1036 1034
f 977 1037 978
f 978 1037 1038
f 978 1038 979
f 979 1039 980
f 979 1038 1039
f 980 1039 1040
f 980 1040 1041
f 980 1041 981
f 981 1041 1014
f 983 1042 984
f 984 1042 1043
f 984 1043 1044
f 984 1044 1045
f 984 1045 985
f 985 1045 990
f 985 990 986
f 987 989 1046
f 987 1046 1006
f 987 1006 988
f 989 1002 1046
f 990 1045 1047
f 990 1047 991
f 991 1047 1048
f 991 1048 992
f 992 1048 1049
f 992 1049 993
f 993 1049 1050
f 993 1050 994
f 994 1050 1051
f 994 1051 995
f 995 1051 1052
f 995 1052 996
f 996 1052 997
f 997 1052 1053
f 997 1053 1054
f 997 1054 998
f 998 1054 1055
f 998 1055 1056
f 998 1056 999
f 999 1056 1057
f 999 1057 1000
f 1000 1057 1003
f 1001 1003 1058
f 1001 1058 1059
f 1001 1059 1002
f 1002 1059 1046
f 1003 1057 1060
f 1003 1060 1058
f 1004 1010 1061
f 1004 1061 1062
f 1006 1046 1063
f 1006 1063 1007
f 1007 1063 1008
f 1008 1063 1064
f 1008 1064 1065
f 1008 1065 1009
f 1009 1065 1066
f 1009 1066 1067
f 1009 1067 1010
f 1010 1067 1061
f 1013 1017 1068
f 1014 1069 1070
f 1014 1070 1015
f 1014 1041 1069
f 1015 1070 1071
f 1015 1071 1018
f 1015 1018 1016
f 1017 1072 1068
f 1017 1020 1073
f 1017 1073 1072
f 1018 1071 1074
f 1018 1074 1019
f 1019 1074 1075
f 1019 1075 1128
f 1019 1128 1076
f 1019 1076 1020
f 1020 1076 1073
f 1021 1034 1022
f 1022 1077 1023
f 1022 1034 1036
f 1022 1036 1078
f 1022 1078 1077
f 1023 1077 1024
f 1024 1077 1079
f 1024 1079 1037
f 1026 1080 1027
f 1027 1080 1081
f 1027 1081 1082
f 1027 1082 1028
f 1028 1082 1083
f 1028 1083 1029
f 1029 1083 1030
f 1030 1083 1084
f 1030 1084 1085
f 1030 1085 1086
f 1030 1086 1031
f 1031 1086 1032
f 1032 1086 1087
f 1032 1087 1033
f 1033 1087 1088
f 1033 1088 1035
f 1035 1088 1089
f 1035 1089 1036
f 1036 1089 1090
f 1036 1090 1091
f 1036 1091 1092
f 1036 1092 1078
f 1037 1079 1093
f 1037 1093 1094
f 1037 1094 1038
f 1038 1094 1040
f 1038 1040 1039
f 1040 1094 1095
f 1040 1095 1096
f 1040 1096 1097
f 1040 1097 1069
f 1040 1069 1041
f 1043 1098 1099
f 1043 1099 1044
f 1044 1099 1045
f 1045 1099 1100
f 1045 1100 1047
f 1046 1059 1101
f 1046 1101 1102
f 1046 1102 1063
f 1047 1100 1103
f 1047 1103 1104
f 1047 1104 1048
f 1048 1104 1105
f 1048 1105 1106
f 1048 1106 1049
f 1049 1106 1050
f 1050 1106 1107
f 1050 1107 1051
f 1051 1107 1108
f 1051 1108 1052
f 1052 1108 1053
f 1053 1108 1109
f 1053 1109 1110
f 1053 1110 1054
f 1054 1110 1111
f 1054 1111 1112
f 1054 1112 1055
f 1055 1112 1113
f 1055 1113 1056
f 1056 1113 1114
f 1056 1114 1057
f 1057 1114 1060
f 1058 1101 1059
f 1058 1060 1115
f 1058 1115 1101
f 1060 1114 1116
f 1060 1116 1115
f 1061 1117 1062
f 1061 1067 1118
f 1061 1118 1117
f 1063 1102 1064
f 1064 1102 1119
f 1064 1119 1120
f 1064 1120 1065
f 1065 1121 1066
f 1065 1120 1122
f 1065 1122 1121
f 1066 1121 1067
f 1067 1121 1123
f 1067 1123 1118
f 1069 1097 1124
f 1069 1124 1070
f 1070 1124 1074
f 1070 1074 1071
f 1073 1076 1125
f 1074 1124 1126
f 1074 1126 1127
f 1074 1127 1075
f 1075 1127 1129
f 1075 1129 1130
f 1075 1130 1128
f 1076 1128 1125
f 1077 1078 1131
f 1077 1131 1079
f 1078 1092 1131
f 1079 1131 1132
f 1079 1132 1093
f 1081 1133 1134
f 1081 1134 1082
f 1082 1134 1083
f 1083 1134 1084
f 1084 1135 1136
f 1084 1136 1085
f 1084 1134 1135
f 1085 1137 1086
f 1085 1136 1138
f 1085 1138 1137
f 1086 1137 1139
f 1086 1139 1087
f 1087 1139 1088
f 1088 1139 1140
f 1088 1140 1089
f 1089 1140 1141
f 1089 1141 1090
f 1090 1141 1142
f 1090 1142 1091
f 1091 1142 1143
f 1091 1143 1144
f 1091 1144 1092
f 1092 1144 1145
f 1092 1145 1131
f 1093 1132 1146
f 1093 1146 1094
f 1094 1146 1095
f 1095 1146 1147
f 1095 1147 1148
f 1095 1148 1096
f 1096 1148 1149
f 1096 1149 1097
f 1097 1149 1150
f 1097 1150 1151
f 1097 1151 1152
f 1097 1152 1124
f 1098 1153 1154
f 1098 1154 1099
f 1099 1154 1103
f 1099 1103 1100
f 1101 1115 1155
f 1101 1155 1119
f 1101 1119 1102
f 1103 1156 1157
f 1103 1157 1104
f 1103 1154 1205
f 1103 1205 1156
f 1104 1157 1158
f 1104 1158 1105
f 1105 1158 1106
f 1106 1158 1159
f 1106 1159 1160
f 1106 1160 1107
f 1107 1160 1161
f 1107 1161 1108
f 1108 1161 1109
f 1109 1161 1162
f 1109 1162 1163
f 1109 1163 1110
f 1110 1163 1164
f 1110 1164 1111
f 1111 1164 1165
f 1111 1165 1112
f 1112 1165 1166
f 1112 1166 1167
f 1112 1167 1113
f 1113 1167 1168
f 1113 1168 1114
f 1114 1168 1116
f 1115 1116 1169
f 1115 1169 1155
f 1116 1168 1170
f 1116 1170 1169
f 1117 1118 1171
f 1118 1123 1171
f 1119 1155 1172
f 1119 1172 1120
f 1120 1172 1173
f 1120 1173 1122
f 1121 1122 1174
f 1121 1174 1123
f 1122 1173 1175
f 1122 1175 1174
f 1123 1174 1176
f 1124 1152 1126
f 1125 1128 1177
f 1126 1152 1178
f 1126 1178 1127
f 1127 1178 1129
f 1128 1179 1177
f 1128 1130 1180
f 1128 1180 1229
f 1128 1229 1179
f 1129 1178 1181
f 1129 1181 1182
f 1129 1182 1183
f 1129 1183 1130
f 1130 1183 1230
f 1130 1230 1180
f 1131 1145 1132
f 1132 1145 1184
f 1132 1184 1146
f 1133 1135 1134
f 1133 1185 1186
f 1133 1186 1135
f 1135 1186 1136
f 1136 1186 1187
f 1136 1187 1138
f 1137 1138 1188
f 1137 1188 1139
f 1138 1187 1189
f 1138 1189 1188
f 1139 1188 1190
f 1139 1190 1140
f 1140 1190 1191
f 1140 1191 1141
f 1141 1191 1192
f 1141 1192 1142
f 1142 1192 1193
f 1142 1193 1194
f 1142 1194 1143
f 1143 1194 1195
f 1143 1195 1144
f 1144 1196 1184
f 1144 1184 1145
f 1144 1195 1197
f 1144 1197 1196
f 1146 1184 1147
f 1147 1196 1198
f 1147 1198 1148
f 1147 1184 1196
f 1148 1198 1199
f 1148 1199 1200
f 1148 1200 1149
f 1149 1200 1150
f 1150 1152 1151
f 1150 1200 1201
f 1150 1201 1202
f 1150 1202 1152
f 1152 1202 1203
f 1152 1203 1181
f 1152 1181 1178
f 1153 1204 1154
f 1154 1204 1205
f 1155 1169 1206
f 1155 1206 1172
f 1156 1205 1207
f 1156 1207 1208
f 1156 1208 1157
f 1157 1208 1209
f 1157 1209 1158
f 1158 1209 1210
f 1158 1210 1159
f 1159 1210 1211
f 1159 1211 1160
f 1160 1211 1212
f 1160 1212 1161
f 1161 1212 1162
f 1162 1212 1213
f 1162 1213 1163
f 1163 1213 1214
f 1163 1214 1164
f 1164 1214 1215
f 1164 1215 1165
f 1165 1215 1216
f 1165 1216 1217
f 1165 1217 1166
f 1166 1218 1167
f 1166 1217 1216
f 1166 1216 1219
f 1166 1219 1218
f 1167 1220 1168
f 1167 1218 1220
f 1168 1220 1170
f 1169 1170 1221
f 1169 1221 1206
f 1170 1220 1222
f 1170 1222 1223
f 1170 1223 1221
f 1172 1206 1224
f 1172 1224 1173
f 1173 1224 1225
f 1173 1225 1175
f 1174 1175 1226
f 1174 1226 1227
f 1174 1227 1176
f 1175 1225 1228
f 1175 1228 1226
f 1180 1230 1279
f 1180 1279 1229
f 1181 1203 1231
f 1181 1231 1182
f 1182 1231 1232
f 1182 1232 1183
f 1183 1232 1233
f 1183 1233 1230
f 1185 1234 1235
f 1185 1235 1186
f 1186 1235 1236
f 1186 1236 1237
f 1186 1237 1187
f 1187 1237 1189
f 1188 1189 1238
f 1188 1238 1190
f 1189 1239 1238
f 1189 1237 1239
f 1190 1238 1240
f 1190 1240 1191
f 1191 1240 1241
f 1191 1241 1192
f 1192 1241 1242
f 1192 1242 1193
f 1193 1242 1243
f 1193 1243 1194
f 1194 1244 1195
f 1194 1243 1245
f 1194 1245 1244
f 1195 1244 1197
f 1196 1197 1199
f 1196 1199 1198
f 1197 1244 1246
f 1197 1246 1199
f 1199 1201 1200
f 1199 1246 1247
f 1199 1247 1248
f 1199 1248 1201
f 1201 1248 1203
f 1201 1203 1202
f 1203 1248 1249
f 1203 1249 1250
f 1203 1250 1231
f 1204 1251 1205
f 1205 1251 1207
f 1206 1221 1252
f 1206 1252 1224
f 1207 1251 1253
f 1207 1253 1254
f 1207 1254 1255
f 1207 1255 1256
f 1207 1256 1208
f 1208 1256 1209
f 1209 1256 1257
f 1209 1257 1210
f 1210 1257 1258
f 1210 1258 1211
f 1211 1258 1259
f 1211 1259 1212
f 1212 1259 1260
f 1212 1260 1261
f 1212 1261 1213
f 1213 1261 1262
f 1213 1262 1263
f 1213 1263 1214
f 1214 1263 1264
f 1214 1264 1215
f 1215 1264 1265
f 1215 1265 1216
f 1216 1265 1266
f 1216 1266 1219
f 1218 1267 1220
f 1218 1219 1268
f 1218 1268 1267
f 1219 1266 1269
f 1219 1269 1268
f 1220 1267 1222
f 1221 1223 1270
f 1221 1270 1252
f 1222 1267 1271
f 1222 1271 1272
f 1222 1272 1273
f 1222 1273 1223
f 1223 1273 1270
f 1224 1252 1274
f 1224 1274 1275
f 1224 1275 1225
f 1225 1275 1276
f 1225 1276 1228
f 1226 1228 1277
f 1228 1276 1278
f 1228 1278 1277
f 1230 1233 1280
f 1230 1280 1331
f 1230 1331 1279
f 1231 1250 1281
f 1231 1281 1282
f 1231 1282 1232
f 1232 1282 1283
f 1232 1283 1233
f 1233 1283 1280
f 1234 1284 1285
f 1234 1285 1235
f 1235 1285 1236
f 1236 1285 1286
f 1236 1286 1237
f 1237 1286 1287
f 1237 1287 1288
f 1237 1288 1239
f 1238 1239 1288
f 1238 1288 1289
f 1238 1289 1240
f 1240 1289 1290
f 1240 1290 1241
f 1241 1290 1291
f 1241 1291 1242
f 1242 1291 1292
f 1242 1292 1243
f 1243 1292 1293
f 1243 1293 1245
f 1244 1245 1294
f 1244 1294 1246
f 1245 1293 1295
f 1245 1295 1294
f 1246 1294 1296
f 1246 1296 1247
f 1247 1296 1297
f 1247 1297 1248
f 1248 1297 1249
f 1249 1297 1298
f 1249 1298 1299
f 1249 1299 1300
f 1249 1300 1250
f 1250 1300 1301
f 1250 1301 1281
f 1252 1270 1274
f 1254 1302 1255
f 1255 1302 1303
f 1255 1303 1304
f 1255 1304 1256
f 1256 1304 1305
f 1256 1305 1306
f 1256 1306 1307
f 1256 1307 1257
f 1257 1307 1308
f 1257 1308 1309
f 1257 1309 1258
f 1258 1309 1310
f 1258 1310 1259
f 1259 1310 1311
f 1259 1311 1260
f 1260 1311 1312
f 1260 1312 1261
f 1261 1312 1262
f 1262 1312 1313
f 1262 1313 1314
f 1262 1314 1315
f 1262 1315 1263
f 1263 1315 1316
f 1263 1316 1264
f 1264 1316 1317
f 1264 1317 1265
f 1265 1317 1318
f 1265 1318 1266
f 1266 1318 1319
f 1266 1319 1269
f 1267 1268 1271
f 1268 1269 1320
f 1268 1320 1272
f 1268 1272 1271
f 1269 1319 1321
f 1269 1321 1322
f 1269 1322 1320
f 1270 1273 1323
f 1270 1323 1274
f 1272 1320 1324
f 1272 1324 1325
f 1272 1325 1273
f 1273 1325 1323
f 1274 1326 1275
f 1274 1323 1327
f 1274 1327 1326
f 1275 1326 1276
f 1276 1326 1328
f 1276 1328 1278
f 1277 1278 1329
f 1278 1328 1330
f 1278 1330 1329
f 1280 1283 1332
f 1280 1332 1333
f 1280 1333 1331
f 1281 1301 1334
f 1281 1334 1282
f 1282 1334 1335
f 1282 1335 1283
f 1283 1335 1336
f 1283 1336 1337
f 1283 1337 1332
f 1284 1338 1285
f 1285 1338 1339
f 1285 1339 1286
f 1286 1339 1340
f 1286 1340 1287
f 1287 1340 1341
f 1287 1341 1288
f 1288 1342 1289
f 1288 1341 1343
f 1288 1343 1342
f 1289 1342 1290
f 1290 1342 1344
f 1290 1344 1291
f 1291 1344 1345
f 1291 1345 1292
f 1292 1345 1346
f 1292 1346 1293
f 1293 1346 1347
f 1293 1347 1295
f 1294 1348 1296
f 1294 1295 1348
f 1295 1347 1349
f 1295 1349 1348
f 1296 1348 1298
f 1296 1298 1297
f 1298 1348 1350
f 1298 1350 1351
f 1298 1351 1299
f 1299 1351 1314
f 1299 1314 1300
f 1300 1314 1352
f 1300 1352 1301
f 1301 1352 1353
f 1301 1353 1334
f 1303 1354 1355
f 1303 1355 1304
f 1304 1355 1305
f 1305 1355 1356
f 1305 1356 1306
f 1306 1356 1307
f 1307 1356 1357
f 1307 1357 1308
f 1308 1357 1309
f 1309 1357 1358
f 1309 1358 1359
f 1309 1359 1310
f 1310 1359 1360
f 1310 1360 1312
f 1310 1312 1311
f 1312 1360 1313
f 1313 1360 1352
f 1313 1352 1314
f 1314 1351 1315
f 1315 1351 1316
f 1316 1351 1350
f 1316 1350 1317
f 1317 1350 1349
f 1317 1349 1318
f 1318 1349 1347
f 1318 1347 1319
f 1319 1347 1346
f 1319 1346 1321
f 1320 1322 1324
f 1321 1346 1345
f 1321 1345 1322
f 1322 1361 1324
f 1322 1345 1344
f 1322 1344 1342
f 1322 1342 1361
f 1323 1325 1362
f 1323 1362 1327
f 1324 1361 1363
f 1324 1363 1325
f 1325 1363 1362
f 1326 1327 1364
f 1326 1364 1328
f 1327 1362 1365
f 1327 1365 1364
f 1328 1364 1366
f 1328 1366 1367
f 1328 1367 1330
f 1332 1368 1333
f 1332 1337 1373
f 1332 1373 1368
f 1334 1353 1369
f 1334 1369 1335
f 1335 1369 1370
f 1335 1370 1336
f 1336 1370 1371
f 1336 1371 1337
f 1337 1372 1373
f 1337 1371 1372
f 1338 1374 1375
f 1338 1375 1339
f 1339 1375 1340
f 1340 1375 1376
f 1340 1376 1341
f 1341 1376 1377
f 1341 1377 1343
f 1342 1343 1361
f 1343 1377 1363
f 1343 1363 1361
f 1348 1349 1350
f 1352 1360 1359
f 1352 1359 1353
f 1353 1359 1369
f 1354 1378 1379
f 1354 1379 1355
f 1355 1379 1356
f 1356 1358 1357
f 1356 1379 1371
f 1356 1371 1370
f 1356 1370 1369
f 1356 1369 1358
f 1358 1369 1359
f 1362 1363 1377
f 1362 1377 1365
f 1364 1365 1380
f 1364 1380 1366
f 1365 1377 1376
f 1365 1376 1380
f 1366 1380 1381
f 1366 1381 1367
f 1367 1381 1374
f 1371 1379 1378
f 1371 1378 1382
f 1371 1382 1372
f 1374 1381 1375
f 1375 1381 1380
f 1375 1380 1376
