v -0.00006980 -0.36763743 0.51445711
v -0.00006980 -0.19202024 0.51445711
v 0.01002127 -0.36761183 0.51445711
v 0.01002127 -0.34069616 0.58173186
v -0.00006980 -0.34307557 0.57581645
v -0.00006980 -0.10625845 0.63236338
v 0.37542135 -0.10625845 0.51445711
v 0.03004816 -0.36730480 0.51445711
v 0.03004816 -0.34512240 0.57000136
v 0.03004816 -0.34056821 0.58139765
v 0.01002127 -0.33644900 0.59172446
v -0.00006980 -0.33859816 0.58667803
v -0.00006980 -0.34069616 0.58173186
v -0.00006980 -0.10625845 0.85584390
v 0.52849507 -0.10625845 0.51445711
v 0.05002330 -0.36671636 0.51445711
v 0.05002330 -0.34458512 0.57000136
v 0.05002330 -0.34028679 0.58076262
v 0.03004816 -0.33632106 0.59139025
v 0.01002127 -0.32836407 0.61000526
v -0.00006980 -0.33644900 0.59172446
v -0.00006980 -0.10802384 0.85467416
v 0.00862405 -0.10802384 0.85470760
v 0.00986603 -0.10625845 0.85584390
v 0.52849507 -0.10625845 0.67524141
v 0.52849507 -0.24641448 0.51445711
v 0.05628493 -0.36646050 0.51445711
v 0.06228782 -0.34008211 0.58026135
v 0.05002330 -0.33601403 0.59075528
v 0.05002330 -0.32746857 0.61000526
v 0.03004816 -0.32805705 0.61000526
v 0.01002127 -0.32189098 0.62384123
v -0.00006980 -0.32516590 0.61685640
v -0.00006980 -0.32836407 0.61000526
v -0.00006980 -0.12493569 0.84341156
v 0.01002127 -0.12493569 0.84341156
v 0.03004816 -0.11001949 0.85296977
v 0.03004816 -0.10625845 0.85540944
v 0.52849507 -0.10856113 0.67343670
v 0.52518308 -0.10625845 0.67788160
v 0.52740836 -0.24710529 0.51445711
v 0.52849507 -0.24160446 0.52267843
v 0.07005018 -0.36584646 0.51445711
v 0.07563908 -0.33980066 0.57952613
v 0.06937745 -0.34317791 0.57170582
v 0.06937745 -0.33637226 0.58814847
v 0.07005018 -0.32662427 0.61000526
v 0.07005018 -0.32099551 0.62203652
v 0.05002330 -0.32143044 0.62287205
v 0.03004816 -0.32171190 0.62350702
v 0.01002127 -0.31682509 0.63383383
v -0.00006980 -0.32189098 0.62384123
v -0.00006980 -0.12997597 0.83983564
v 0.01002127 -0.13493952 0.83635992
v 0.03004816 -0.12465426 0.84321105
v 0.05002330 -0.12406579 0.84281003
v 0.05002330 -0.11001949 0.85216767
v 0.03682730 -0.10625845 0.85514206
v 0.52849507 -0.11127317 0.67129785
v 0.52119845 -0.10625845 0.68098968
v 0.51602352 -0.11628787 0.67704612
v 0.52456212 -0.24288371 0.52471709
v 0.51317734 -0.25575310 0.51445711
v 0.52849507 -0.23569426 0.53210294
v 0.07698455 -0.36543709 0.51445711
v 0.09002532 -0.34338260 0.56849748
v 0.09002532 -0.33936572 0.57849008
v 0.09002532 -0.33440217 0.59002006
v 0.09002532 -0.32542175 0.61000526
v 0.09002532 -0.32038146 0.62080002
v 0.07005018 -0.31585288 0.63202918
v 0.05002330 -0.31633899 0.63289809
v 0.03004816 -0.31664601 0.63349962
v 0.01002127 -0.30812612 0.65000921
v -0.00006980 -0.31682509 0.63383383
v -0.00006980 -0.13491394 0.83632654
v -0.00006980 -0.14179638 0.83128011
v 0.01002127 -0.14852530 0.82636732
v 0.03004816 -0.13465808 0.83615941
v 0.05002330 -0.13406962 0.83572495
v 0.07005018 -0.12317031 0.84217501
v 0.05002330 -0.10625845 0.85457391
v 0.07005018 -0.11001949 0.85089767
v 0.07005018 -0.10625845 0.85333741
v 0.05623318 -0.10625845 0.85420632
v 0.52849507 -0.12250509 0.66214073
v 0.50619125 -0.10625845 0.69205177
v 0.51002061 -0.13005275 0.67006129
v 0.52461386 -0.12432165 0.66371143
v 0.50272405 -0.12245392 0.68202567
v 0.51798999 -0.23873891 0.53805172
v 0.50903744 -0.24951030 0.52912855
v 0.51136613 -0.25682768 0.51445711
v 0.52849507 -0.22474377 0.54861248
v 0.09002532 -0.36461836 0.51445711
v 0.11000045 -0.34269181 0.56675959
v 0.11000045 -0.33864933 0.57675225
v 0.11000045 -0.33294383 0.59002006
v 0.10824099 -0.32345170 0.61134207
v 0.10037513 -0.32002327 0.62006474
v 0.09002532 -0.31521323 0.63082606
v 0.07165441 -0.30490237 0.65198100
v 0.05002330 -0.30707711 0.65000921
v 0.09002532 -0.30520940 0.64924055
v 0.03004816 -0.30774236 0.65000921
v 0.03004816 -0.30109018 0.66183990
v 0.01002127 -0.30126926 0.66214073
v -0.00006980 -0.30126926 0.66214073
v -0.00006980 -0.30472326 0.65602481
v -0.00006980 -0.30810052 0.65000921
v -0.00006980 -0.31252679 0.64182127
v -0.00006980 -0.14849971 0.82633388
v -0.00006980 -0.15850355 0.81881440
v 0.01002127 -0.15850355 0.81881440
v 0.03004816 -0.15824769 0.81861383
v 0.03004816 -0.14824386 0.82613337
v 0.05002330 -0.14768098 0.82573235
v 0.07005018 -0.14683667 0.82506394
v 0.07005018 -0.13314855 0.83508998
v 0.09002532 -0.12191663 0.84130609
v 0.09002532 -0.11001949 0.84919327
v 0.09002532 -0.10625845 0.85159951
v 0.52849507 -0.12833853 0.65702742
v 0.49656588 -0.10625845 0.69890285
v 0.51731730 -0.13767715 0.65792978
v 0.49490994 -0.13578384 0.67641109
v 0.50401777 -0.14338267 0.66307646
v 0.48999375 -0.11541797 0.69642979
v 0.47985095 -0.11992098 0.69990546
v 0.48895878 -0.12946428 0.68583560
v 0.48161042 -0.14131024 0.68115675
v 0.51079690 -0.23490112 0.55065107
v 0.50463873 -0.24278137 0.54440153
v 0.52130198 -0.22093157 0.56127870
v 0.48999375 -0.25700676 0.53501046
v 0.50013661 -0.26007700 0.52017194
v 0.50386250 -0.26110041 0.51445711
v 0.52849507 -0.22428323 0.54928088
v 0.09809817 -0.36402988 0.51445711
v 0.11000045 -0.34926721 0.55001611
v 0.13002734 -0.34184748 0.56462073
v 0.13002734 -0.33775383 0.57464677
v 0.13002734 -0.33112726 0.59002006
v 0.13002734 -0.32334936 0.60716456
v 0.11367464 -0.31943479 0.61886162
v 0.10824099 -0.31516206 0.62805218
v 0.11000045 -0.30436510 0.64766979
v 0.07941677 -0.29993883 0.65996838
v 0.06606551 -0.30034819 0.66060340
v 0.05002330 -0.30073199 0.66123837
v 0.09002532 -0.29952946 0.65923315
v 0.05002330 -0.29451478 0.67126441
v 0.03004816 -0.29487297 0.67183256
v 0.01002127 -0.29507765 0.67213333
v -0.00006980 -0.29507765 0.67213333
v -0.00006980 -0.17001691 0.80952358
v 0.01002127 -0.17001691 0.80952358
v 0.03004816 -0.17001691 0.80912250
v 0.05002330 -0.15768482 0.81817937
v 0.07005018 -0.15684050 0.81754440
v 0.09002532 -0.14565974 0.82419503
v 0.09002532 -0.13192046 0.83418763
v 0.10451506 -0.12081646 0.84053743
v 0.11072494 -0.11175929 0.84575099
v 0.09494148 -0.10625845 0.85106480
v 0.52849507 -0.13302064 0.65291673
v 0.48999375 -0.10625845 0.70338118
v 0.51090038 -0.15080237 0.65074444
v 0.52554536 -0.14489219 0.64459515
v 0.52849507 -0.14358735 0.64335859
v 0.48870003 -0.14901142 0.66909212
v 0.49578965 -0.15671258 0.65689373
v 0.48756155 -0.10625845 0.70501876
v 0.47198510 -0.11178488 0.71130174
v 0.45635688 -0.11697868 0.71768498
v 0.46655142 -0.12554973 0.70435035
v 0.45853034 -0.13887966 0.69903654
v 0.47193336 -0.13133201 0.69606215
v 0.46996689 -0.14586443 0.68516719
v 0.45977232 -0.15985957 0.67988682
v 0.46996689 -0.15586826 0.67624402
v 0.49744564 -0.23845747 0.55773616
v 0.49045950 -0.24702853 0.55065107
v 0.52363062 -0.20266369 0.58340287
v 0.51400530 -0.21599361 0.57461333
v 0.50065410 -0.22044545 0.58059555
v 0.50836468 -0.22389945 0.56876481
v 0.52849507 -0.21839863 0.55776960
v 0.52849507 -0.20972523 0.56946665
v 0.47974747 -0.25987232 0.53982300
v 0.48999375 -0.26278904 0.52498442
v 0.48901051 -0.26895508 0.51445711
v 0.49444419 -0.26611513 0.51445711
v 0.11000045 -0.36310881 0.51445711
v 0.11450262 -0.36275065 0.51445711
v 0.13002734 -0.34757859 0.55001611
v 0.15000248 -0.34084967 0.56211424
v 0.15000248 -0.33670485 0.57214028
v 0.15000248 -0.32895252 0.59002006
v 0.13002734 -0.31859049 0.61715722
v 0.15000248 -0.32222360 0.60472488
v 0.13002734 -0.31191275 0.63002396
v 0.11000045 -0.29860839 0.65769583
v 0.13002734 -0.30329052 0.64576483
v 0.07165441 -0.29515439 0.66839027
v 0.09002532 -0.29274938 0.67002785
v 0.05002330 -0.28451094 0.68667108
v 0.07005018 -0.28397363 0.68586904
v 0.03004816 -0.28486913 0.68723923
v 0.01002127 -0.28509939 0.68753999
v -0.00006980 -0.29013968 0.67975312
v -0.00006980 -0.17549215 0.80504525
v 0.01002127 -0.18083948 0.80070066
v 0.03004816 -0.18060921 0.80050009
v 0.04427916 -0.18027660 0.80019933
v 0.05054079 -0.17191023 0.80668283
v 0.05757865 -0.17986724 0.79986513
v 0.07005018 -0.16932611 0.80755174
v 0.09002532 -0.16822594 0.80664945
v 0.09002532 -0.15566358 0.81664205
v 0.11000045 -0.14415023 0.82305872
v 0.11072494 -0.12849204 0.83428788
v 0.11781456 -0.11961396 0.83970195
v 0.13002734 -0.10825410 0.84541678
v 0.11626209 -0.10625845 0.84852487
v 0.11046620 -0.10625845 0.84929353
v 0.51783478 -0.15822211 0.63824528
v 0.52849507 -0.14803918 0.63908082
v 0.48243839 -0.16185522 0.66180652
v 0.50448352 -0.16354385 0.64355910
v 0.48906228 -0.16937728 0.64937425
v 0.46660319 -0.10625845 0.71898836
v 0.46251500 -0.10625845 0.72169542
v 0.44833577 -0.10861230 0.72894758
v 0.44305736 -0.12245392 0.72186249
v 0.45076799 -0.13066679 0.71046627
v 0.44517910 -0.14391994 0.70328093
v 0.45247570 -0.15190256 0.69161731
v 0.43591601 -0.15724987 0.69753265
v 0.44642106 -0.16449049 0.68423140
v 0.45185471 -0.17070770 0.67467326
v 0.46008283 -0.18007192 0.66006869
v 0.46805215 -0.16912143 0.66504824
v 0.49045950 -0.23408239 0.57016850
v 0.48409438 -0.24239759 0.56361812
v 0.47182983 -0.25700676 0.55145317
v 0.51623052 -0.19731638 0.59673750
v 0.50841641 -0.20900884 0.58864981
v 0.52849507 -0.20087272 0.58113027
v 0.50287926 -0.20199847 0.60245234
v 0.48999375 -0.21624947 0.59509993
v 0.47943696 -0.21967790 0.59954476
v 0.48999375 -0.22374594 0.58510727
v 0.45889258 -0.25941178 0.55910641
v 0.46644795 -0.26335192 0.54577178
v 0.47017390 -0.27015761 0.53019798
v 0.47384804 -0.27683535 0.51445711
v 0.12505943 -0.36177841 0.51445711
v 0.13054483 -0.36124110 0.51445711
v 0.15000248 -0.34558293 0.55001611
v 0.16180125 -0.34021002 0.56054348
v 0.16909787 -0.33603963 0.56833035
v 0.17002936 -0.32647073 0.59002006
v 0.17002936 -0.32096991 0.60208470
v 0.15000248 -0.31741357 0.61475092
v 0.15000248 -0.30945656 0.63002396
v 0.11000045 -0.29085606 0.67002785
v 0.13002734 -0.29745707 0.65575749
v 0.15000248 -0.30203682 0.64352572
v 0.09002532 -0.28320608 0.68476617
v 0.05002330 -0.27765408 0.69666374
v 0.03004816 -0.27806345 0.69723189
v 0.07005018 -0.27709121 0.69586164
v 0.01002127 -0.27826813 0.69753265
v -0.00006980 -0.27826813 0.69753265
v -0.00006980 -0.28172213 0.69245279
v -0.00006980 -0.28507382 0.68750662
v -0.00006980 -0.18083948 0.80066723
v -0.00006980 -0.18590535 0.79625577
v -0.00006980 -0.19084331 0.79194456
v 0.01002127 -0.19084331 0.79194456
v 0.03004816 -0.19061305 0.79174405
v 0.05054079 -0.18818244 0.79294717
v 0.05002330 -0.20143560 0.78128356
v 0.07005018 -0.20071922 0.78061515
v 0.07005018 -0.19002458 0.79003960
v 0.07005018 -0.17932995 0.79939723
v 0.09002532 -0.17822978 0.79849494
v 0.11000045 -0.16684434 0.80551314
v 0.11000045 -0.15415406 0.81550574
v 0.13002734 -0.14230809 0.82168847
v 0.13002734 -0.13000157 0.83051139
v 0.13002734 -0.11825794 0.83879960
v 0.13002734 -0.10625845 0.84668678
v 0.14927799 -0.10625845 0.84361207
v 0.51095212 -0.17081004 0.63079262
v 0.51747251 -0.17807627 0.61789244
v 0.52575237 -0.16474634 0.62491065
v 0.52849507 -0.16359502 0.62374097
v 0.52849507 -0.15366793 0.63363332
v 0.47338232 -0.17521071 0.65518934
v 0.49573791 -0.17687376 0.63670796
v 0.48238665 -0.18173495 0.64185470
v 0.44605881 -0.10625845 0.73208910
v 0.43581250 -0.10625845 0.73823839
v 0.42996484 -0.11426664 0.73569846
v 0.41832131 -0.11876965 0.73907387
v 0.42846414 -0.12946428 0.72487032
v 0.43415654 -0.13578384 0.71661556
v 0.42836064 -0.14893466 0.70906258
v 0.42949912 -0.16976106 0.68971235
v 0.43643349 -0.17782041 0.67784816
v 0.42256474 -0.16167611 0.70147622
v 0.45930660 -0.19959347 0.63954872
v 0.46805215 -0.18483077 0.64910686
v 0.44999176 -0.18332124 0.66344410
v 0.45159596 -0.19442524 0.65051049
v 0.47633201 -0.23784342 0.57695276
v 0.46298075 -0.24170680 0.58250052
v 0.46981162 -0.24610746 0.57016850
v 0.52849507 -0.19196907 0.59199184
v 0.52513134 -0.18398646 0.60455781
v 0.51017588 -0.19017810 0.61017239
v 0.49475467 -0.19636972 0.61578697
v 0.48140341 -0.20097506 0.62113416
v 0.48885530 -0.20558041 0.60947055
v 0.47162285 -0.21550749 0.61090761
v 0.45754713 -0.21855214 0.61819321
v 0.46608570 -0.22369477 0.60485858
v 0.47120887 -0.23078190 0.59102261
v 0.45133722 -0.25582987 0.57070321
v 0.44554132 -0.26278904 0.56448704
v 0.45133722 -0.26759908 0.55145317
v 0.44999176 -0.27742380 0.53527784
v 0.46060032 -0.28028935 0.52057296
v 0.47322708 -0.27714238 0.51445711
v 0.14255062 -0.35998744 0.51445711
v 0.15000248 -0.35325852 0.53003085
v 0.17002936 -0.35098141 0.53003085
v 0.16909787 -0.34299883 0.55108559
v 0.17510077 -0.33939129 0.55847144
v 0.19000450 -0.33253446 0.57000136
v 0.18886602 -0.32342610 0.59098923
v 0.18146589 -0.32020235 0.60044712
v 0.17002936 -0.31605756 0.61207736
v 0.17163357 -0.30538851 0.63189548
v 0.16604468 -0.30091107 0.64158732
v 0.11000045 -0.28223383 0.68329567
v 0.13002734 -0.28847665 0.67002785
v 0.15000248 -0.29607546 0.65355176
v 0.09002532 -0.27629805 0.69472533
v 0.07005018 -0.26708737 0.70929652
v 0.05059254 -0.26624307 0.71190333
v 0.03004816 -0.26852015 0.70999837
v 0.01002127 -0.26895508 0.70999837
v 0.09002532 -0.26629424 0.70826054
v -0.00006980 -0.27366278 0.70368195
v -0.00006980 -0.19657440 0.78689814
v 0.01002127 -0.20217758 0.78195196
v 0.03004816 -0.20192173 0.78171802
v 0.05002330 -0.21143943 0.77185905
v 0.07005018 -0.21072306 0.77119064
v 0.08164197 -0.20020752 0.78014725
v 0.09499323 -0.19941437 0.77944541
v 0.11000045 -0.18838713 0.78733259
v 0.11000045 -0.17684817 0.79732519
v 0.08899033 -0.19166204 0.78689814
v 0.13002734 -0.16510454 0.80410951
v 0.13002734 -0.15228632 0.81410211
v 0.14348209 -0.14084971 0.82058561
v 0.15010597 -0.13153669 0.82609993
v 0.15000248 -0.11580175 0.83716202
v 0.15000248 -0.10625845 0.84347844
v 0.50412124 -0.18303981 0.62337333
v 0.52849507 -0.18265602 0.60305387
v 0.52849507 -0.17331740 0.61338073
v 0.48854479 -0.18905234 0.62892109
v 0.46996689 -0.19598594 0.63550484
v 0.42836064 -0.10625845 0.74251616
v 0.42080528 -0.14059386 0.72045887
v 0.41133520 -0.10625845 0.75197405
v 0.40998971 -0.11001949 0.75000226
v 0.40502182 -0.12360526 0.74275011
v 0.41097295 -0.13018066 0.73426139
v 0.40998971 -0.15423080 0.71507823
v 0.40998971 -0.17556891 0.69572794
v 0.42313397 -0.18188846 0.68192542
v 0.42955089 -0.18979432 0.66976053
v 0.43601948 -0.19770016 0.65749532
v 0.39741468 -0.15840121 0.71858734
v 0.40998971 -0.16556507 0.70508558
v 0.46996689 -0.20463376 0.62551224
v 0.44600707 -0.20368710 0.64416069
v 0.45175123 -0.21110684 0.63129389
v 0.45459741 -0.23699911 0.59583515
v 0.44129789 -0.24068339 0.60098183
v 0.44874978 -0.24457234 0.58951873
v 0.52849507 -0.18790101 0.59683776
v 0.44419587 -0.22241551 0.62307256
v 0.44942251 -0.22973290 0.60960424
v 0.43700272 -0.25856748 0.57782167
v 0.43017185 -0.26614073 0.57070321
v 0.43182784 -0.27704003 0.55101871
v 0.43969369 -0.27987999 0.53978956
v 0.45444214 -0.28594369 0.51445711
v 0.46448147 -0.28141510 0.51445711
v 0.44999176 -0.28266880 0.52528524
v 0.44999176 -0.28791377 0.51445711
v 0.15000248 -0.35919428 0.51445711
v 0.17002936 -0.35689163 0.51445711
v 0.19000450 -0.34844849 0.53003085
v 0.19000450 -0.34233361 0.54597229
v 0.19000450 -0.33839348 0.55599833
v 0.21003138 -0.33693510 0.55242240
v 0.21003138 -0.32956657 0.57000136
v 0.21003138 -0.32263297 0.58574224
v 0.19476540 -0.31920454 0.59830821
v 0.18886602 -0.31516206 0.60826743
v 0.19000450 -0.30454418 0.62825269
v 0.17939594 -0.29988766 0.63984948
v 0.17163357 -0.29556376 0.64893973
v 0.11000045 -0.27524906 0.69325489
v 0.13002734 -0.28100574 0.68149096
v 0.14886400 -0.28499705 0.67129785
v 0.14146388 -0.28021261 0.68035471
v 0.17002936 -0.28451094 0.66688639
v 0.11000045 -0.26524523 0.70685685
v 0.07005018 -0.25943738 0.71932256
v 0.05757865 -0.25987232 0.71982390
v 0.04427916 -0.26020494 0.72022492
v 0.03004816 -0.26046079 0.72055912
v 0.01002127 -0.26066548 0.72082651
v -0.00006980 -0.26892951 0.70999837
v 0.09002532 -0.25859305 0.71825314
v -0.00006980 -0.20215198 0.78195196
v 0.01002127 -0.21218142 0.77252746
v 0.03004816 -0.21192557 0.77229351
v 0.05002330 -0.22190380 0.76186645
v 0.07005018 -0.22123860 0.76119804
v 0.08516091 -0.22057338 0.76052964
v 0.09007707 -0.21003225 0.76998752
v 0.09851216 -0.21983141 0.75982779
v 0.11000045 -0.20906001 0.76851702
v 0.11000045 -0.19836538 0.77850968
v 0.13002734 -0.18672408 0.78586209
v 0.13002734 -0.17510837 0.79585469
v 0.15000248 -0.16300654 0.80240506
v 0.15010597 -0.14852530 0.81356740
v 0.15683335 -0.13923785 0.81941593
v 0.17002936 -0.12744305 0.82526445
v 0.17002936 -0.11298738 0.83525705
v 0.16490620 -0.10625845 0.84070456
v 0.39539647 -0.13693517 0.73753655
v 0.40998971 -0.14425257 0.72350013
v 0.40641904 -0.10625845 0.75468111
v 0.38996285 -0.11554590 0.75675315
v 0.37914729 -0.11943486 0.75956047
v 0.38923836 -0.13018066 0.74602526
v 0.39839792 -0.17909968 0.69910342
v 0.40998971 -0.18567508 0.68573534
v 0.40998971 -0.19567892 0.67547536
v 0.42266825 -0.20153794 0.66167283
v 0.42861938 -0.20926470 0.64914030
v 0.38970411 -0.14985573 0.72984993
v 0.36998770 -0.15504953 0.73579872
v 0.38406345 -0.16244367 0.72216332
v 0.39120483 -0.17075887 0.71066678
v 0.43451878 -0.21701702 0.63640720
v 0.42996484 -0.23623155 0.61495149
v 0.41832131 -0.23919944 0.61892843
v 0.42996484 -0.24349776 0.60492539
v 0.43017185 -0.25393656 0.58961898
v 0.42872289 -0.22535782 0.62985682
v 0.42365146 -0.26171446 0.58266759
v 0.41061074 -0.27519789 0.56983429
v 0.41770035 -0.27906126 0.55833775
v 0.42634243 -0.28264320 0.54500312
v 0.43182784 -0.28709504 0.53186899
v 0.43156910 -0.29564053 0.51445711
v 0.18974575 -0.35433310 0.51445711
v 0.19523114 -0.35359111 0.51445711
v 0.21003138 -0.34568527 0.53003085
v 0.21003138 -0.34095201 0.54242975
v 0.22095042 -0.34013328 0.54039109
v 0.22860929 -0.33568144 0.54824483
v 0.23000652 -0.32629165 0.57000136
v 0.23000652 -0.32094434 0.58206606
v 0.21003138 -0.31795084 0.59573489
v 0.21003138 -0.31081256 0.61000526
v 0.19000450 -0.29896659 0.63824528
v 0.21003138 -0.30285555 0.62511116
v 0.19000450 -0.29175156 0.65000921
v 0.13002734 -0.27394423 0.69145018
v 0.13002734 -0.26394039 0.70515245
v 0.15476339 -0.27916360 0.67878395
v 0.14886400 -0.27340692 0.68817502
v 0.17002936 -0.27785876 0.67691243
v 0.19000450 -0.28277114 0.66421276
v 0.11000045 -0.25746733 0.71688294
v 0.08314270 -0.24029961 0.74034387
v 0.07005018 -0.25030345 0.72998363
v 0.05059254 -0.25309223 0.72814548
v 0.07005018 -0.24083690 0.74091202
v 0.03004816 -0.25188974 0.73055178
v 0.01002127 -0.25211999 0.73081911
v -0.00006980 -0.25644392 0.72573924
v -0.00006980 -0.26066548 0.72079307
v 0.11000045 -0.24746348 0.72861338
v 0.08987007 -0.24707970 0.73172146
v -0.00006980 -0.21215582 0.77252746
v 0.01002127 -0.22259460 0.76253486
v 0.03004816 -0.22236434 0.76230091
v 0.05002330 -0.23190764 0.75160646
v 0.07005018 -0.23124243 0.75090462
v 0.09080155 -0.23011668 0.75006914
v 0.09644221 -0.23960881 0.73957521
v 0.11000045 -0.22876066 0.74903309
v 0.11000045 -0.21906385 0.75902569
v 0.13002734 -0.20747373 0.76701313
v 0.13002734 -0.19672792 0.77700573
v 0.15000248 -0.18472843 0.78412426
v 0.15000248 -0.17301038 0.79411685
v 0.16485445 -0.16124117 0.80096799
v 0.17090909 -0.15172344 0.80708390
v 0.17002936 -0.13744688 0.81811255
v 0.19000450 -0.12452633 0.82315898
v 0.18979749 -0.10858671 0.83405393
v 0.17727423 -0.10625845 0.83826488
v 0.17002936 -0.10625845 0.83973539
v 0.38204524 -0.14133584 0.74104565
v 0.39756995 -0.10625845 0.75942677
v 0.38939360 -0.10625845 0.76370454
v 0.37195417 -0.10625845 0.77246064
v 0.37050521 -0.11040327 0.77025491
v 0.36579603 -0.12380994 0.76283562
v 0.37148842 -0.13028300 0.75501531
v 0.36998770 -0.17651556 0.71674925
v 0.38504669 -0.18283513 0.70274621
v 0.39156705 -0.19092005 0.69088203
v 0.39813918 -0.19900501 0.67895103
v 0.40998971 -0.20499195 0.66544932
v 0.40998971 -0.21499579 0.65425354
v 0.42116752 -0.22065014 0.64078522
v 0.36998770 -0.14504570 0.74412036
v 0.35772318 -0.15873381 0.73890680
v 0.36998770 -0.16651173 0.72580612
v 0.41097295 -0.23431265 0.62995708
v 0.40502182 -0.24237201 0.62323964
v 0.40957573 -0.24984291 0.60973793
v 0.41412964 -0.25731379 0.59600222
v 0.40077841 -0.26033285 0.60054737
v 0.40843725 -0.26396596 0.58961898
v 0.39451677 -0.27788436 0.57638460
v 0.40434909 -0.28172213 0.56308341
v 0.41061074 -0.28573900 0.55101871
v 0.41076595 -0.29625458 0.53016454
v 0.41795909 -0.29924804 0.51840067
v 0.42515218 -0.29822463 0.51445711
v 0.21003138 -0.35151872 0.51445711
v 0.21406780 -0.35090467 0.51445711
v 0.22969602 -0.34852523 0.51445711
v 0.22860929 -0.34266621 0.53053218
v 0.23430169 -0.33903313 0.53755039
v 0.25003341 -0.33117843 0.55001611
v 0.24817044 -0.32283765 0.57033557
v 0.24020107 -0.32002327 0.58009428
v 0.23000652 -0.31618547 0.59205866
v 0.23186947 -0.30572110 0.61194366
v 0.22643583 -0.30129486 0.62233734
v 0.21003138 -0.29712445 0.63513726
v 0.21163559 -0.28645539 0.65191412
v 0.20609845 -0.28123602 0.66187334
v 0.15000248 -0.26237968 0.70308042
v 0.13002734 -0.25606012 0.71514505
v 0.17137483 -0.26690829 0.69181782
v 0.16563070 -0.26102367 0.70134252
v 0.19000450 -0.27601662 0.67420536
v 0.19000450 -0.26601279 0.68820840
v 0.13002734 -0.24605629 0.72697580
v 0.05002330 -0.24147654 0.74158043
v 0.03004816 -0.24188590 0.74204826
v 0.01002127 -0.24211615 0.74228221
v -0.00006980 -0.24211615 0.74228221
v -0.00006980 -0.25209442 0.73081911
v 0.11000045 -0.23873891 0.73863941
v -0.00006980 -0.22256902 0.76253486
v -0.00006980 -0.22763491 0.75735474
v 0.01002127 -0.23257285 0.75230825
v 0.03004816 -0.23236817 0.75204092
v 0.13002734 -0.22727671 0.74749577
v 0.13002734 -0.21747756 0.75748837
v 0.15000248 -0.20560600 0.76524186
v 0.15000248 -0.19473226 0.77523446
v 0.17002936 -0.18245134 0.78211904
v 0.17090909 -0.16876324 0.79344845
v 0.17820570 -0.15952696 0.79959780
v 0.19000450 -0.14783449 0.80601442
v 0.19000450 -0.13453016 0.81600708
v 0.20578796 -0.12199339 0.82138771
v 0.18772754 -0.10625845 0.83605915
v 0.19134997 -0.10625845 0.83525705
v 0.35513574 -0.13713986 0.75775576
v 0.36657226 -0.10625845 0.77513421
v 0.35767144 -0.10625845 0.77937859
v 0.34996083 -0.11521329 0.77657127
v 0.34908110 -0.13028300 0.76574314
v 0.35912040 -0.17956021 0.71955651
v 0.36998770 -0.18687759 0.70675659
v 0.36998770 -0.19685584 0.69673055
v 0.38478795 -0.20253578 0.68272752
v 0.39084256 -0.21049279 0.67052919
v 0.39689720 -0.21844980 0.65819716
v 0.40998971 -0.22349009 0.64422750
v 0.34975383 -0.14990690 0.74986857
v 0.34437191 -0.16236693 0.74201488
v 0.35177204 -0.17096356 0.73081911
v 0.39425802 -0.23730613 0.63654089
v 0.38095850 -0.24042754 0.64058471
v 0.38856560 -0.24487936 0.62995708
v 0.38996285 -0.25575310 0.61394888
v 0.37671509 -0.25864422 0.61805952
v 0.38996285 -0.26258436 0.60395622
v 0.38872087 -0.27279288 0.58848274
v 0.38121724 -0.28046846 0.58082950
v 0.38872087 -0.28382012 0.56983429
v 0.38949710 -0.29464269 0.54908037
v 0.39581048 -0.29850605 0.53694886
v 0.40465957 -0.30167863 0.52361417
v 0.40911001 -0.30410925 0.51445711
v 0.41412964 -0.30231827 0.51445711
v 0.25003341 -0.34509683 0.51445711
v 0.25003341 -0.34154046 0.52401525
v 0.25003341 -0.33765149 0.53400785
v 0.26928404 -0.33603963 0.52869403
v 0.26995680 -0.32723832 0.55001611
v 0.26995680 -0.32150722 0.56341761
v 0.25355232 -0.31869283 0.57718670
v 0.24817044 -0.31454802 0.58808166
v 0.25003341 -0.30416042 0.60779953
v 0.23978709 -0.29993883 0.61993104
v 0.23186947 -0.29602429 0.62942237
v 0.23000652 -0.28507382 0.64797056
v 0.21939796 -0.27985442 0.65983474
v 0.21163559 -0.27504438 0.66912550
v 0.15000248 -0.25439709 0.71310645
v 0.15000248 -0.24439324 0.72503746
v 0.17893019 -0.25976998 0.69970495
v 0.17137483 -0.25385979 0.70879525
v 0.21003138 -0.26388922 0.68526745
v 0.19000450 -0.25861865 0.69820106
v 0.13002734 -0.23725496 0.73700184
v -0.00006980 -0.23257285 0.75227487
v 0.15000248 -0.22551133 0.74565768
v 0.15000248 -0.21560983 0.75565028
v 0.17002936 -0.20345683 0.76320326
v 0.17002936 -0.19245517 0.77322930
v 0.18312186 -0.18083948 0.78068197
v 0.18984924 -0.17142409 0.78703177
v 0.19000450 -0.15783833 0.79826099
v 0.21003138 -0.14476426 0.80364162
v 0.21148035 -0.12920843 0.81477052
v 0.21913922 -0.11969071 0.81975013
v 0.21148035 -0.11181046 0.82690203
v 0.21096286 -0.10625845 0.83071196
v 0.34178448 -0.14105439 0.76083040
v 0.34908110 -0.10625845 0.78328872
v 0.33816203 -0.11894874 0.77921146
v 0.35927564 -0.19967023 0.69963813
v 0.34582090 -0.18293747 0.72276485
v 0.35254827 -0.19130385 0.71123493
v 0.36998770 -0.20624563 0.68673795
v 0.36998770 -0.21624947 0.67580956
v 0.38359770 -0.22177589 0.66207385
v 0.38892788 -0.22955380 0.64940763
v 0.32998568 -0.15417963 0.75518239
v 0.32998568 -0.16602561 0.74518979
v 0.32998568 -0.17602944 0.73636687
v 0.36998770 -0.23495229 0.65368539
v 0.35560146 -0.23812486 0.65769583
v 0.36998770 -0.24280696 0.64369279
v 0.37003946 -0.25342485 0.62922186
v 0.36341557 -0.26135626 0.62200314
v 0.37003946 -0.26606396 0.61084080
v 0.36998770 -0.27655393 0.59429783
v 0.35705045 -0.27895892 0.59827483
v 0.36998770 -0.28246412 0.58430517
v 0.36998770 -0.29044670 0.57000136
v 0.36998770 -0.29796878 0.55599833
v 0.38245922 -0.30085990 0.54176134
v 0.38949710 -0.30385339 0.53016454
v 0.38985935 -0.31060788 0.51445711
v 0.39477551 -0.30897045 0.51445711
v 0.25489780 -0.34422693 0.51445711
v 0.26224616 -0.34041470 0.52114111
v 0.27549392 -0.33910987 0.51763201
v 0.28998366 -0.33120403 0.53003085
v 0.28879344 -0.32306790 0.55035031
v 0.28139332 -0.32030469 0.56071055
v 0.26995680 -0.31692743 0.57341021
v 0.26995680 -0.30881691 0.59002006
v 0.25003341 -0.29876190 0.61782563
v 0.26995680 -0.30188331 0.60352176
v 0.25003341 -0.29154688 0.63002396
v 0.23000652 -0.27862632 0.65796322
v 0.25003341 -0.28277114 0.64432776
v 0.23000652 -0.27015761 0.67002785
v 0.17002936 -0.24249993 0.72286510
v 0.15000248 -0.23551516 0.73506349
v 0.18451908 -0.24099042 0.72112727
v 0.19072898 -0.24748906 0.71163595
v 0.21003138 -0.25634158 0.69526005
v 0.23000652 -0.26150978 0.68205911
v 0.21003138 -0.24633773 0.70762551
v 0.17002936 -0.22349009 0.74355221
v 0.17002936 -0.21346067 0.75357825
v 0.18617506 -0.20153794 0.76143199
v 0.19129822 -0.19035719 0.77028829
v 0.19642138 -0.17902292 0.77914464
v 0.21003138 -0.16699785 0.78582865
v 0.21003138 -0.15476809 0.79582131
v 0.22571135 -0.14210340 0.80160296
v 0.23145549 -0.13179255 0.80758518
v 0.23000652 -0.11751597 0.81827962
v 0.23000652 -0.10751213 0.82503051
v 0.23000652 -0.10625845 0.82583261
v 0.33086541 -0.12964338 0.77423191
v 0.32998568 -0.14417580 0.76333690
v 0.33014095 -0.10625845 0.79144323
v 0.32600102 -0.10625845 0.79318112
v 0.32481077 -0.12273536 0.78198534
v 0.34592441 -0.20281720 0.70291328
v 0.35197902 -0.21097891 0.69101572
v 0.35808542 -0.21914060 0.67901790
v 0.32998568 -0.18669850 0.72637421
v 0.32998568 -0.19667675 0.71664900
v 0.36998770 -0.22494845 0.66581690
v 0.31554770 -0.15786391 0.75819021
v 0.31777292 -0.17899734 0.73907387
v 0.35016781 -0.23014227 0.67012811
v 0.34225023 -0.24091366 0.66120493
v 0.34933984 -0.24610746 0.65061074
v 0.34996083 -0.25693002 0.63577223
v 0.33805853 -0.25928387 0.63901395
v 0.34996083 -0.26391479 0.62577957
v 0.35021958 -0.27450711 0.60930347
v 0.34369919 -0.28126159 0.60215157
v 0.35021958 -0.28548318 0.59098923
v 0.35156503 -0.29658717 0.57016850
v 0.35927564 -0.29975975 0.55957425
v 0.36998770 -0.30288115 0.54600573
v 0.36998770 -0.31024969 0.53003085
v 0.37154019 -0.31644133 0.51445711
v 0.26669660 -0.34200099 0.51445711
v 0.27269948 -0.34082407 0.51445711
v 0.28698224 -0.33790737 0.51445711
v 0.29096690 -0.33706304 0.51445711
v 0.30892381 -0.33304617 0.51445711
v 0.30995882 -0.32672662 0.53003085
v 0.30995882 -0.32132810 0.54313159
v 0.29469284 -0.31876957 0.55726826
v 0.28879344 -0.31490621 0.56843060
v 0.28905219 -0.30393013 0.59055477
v 0.28175557 -0.30045053 0.60084814
v 0.26995680 -0.29633132 0.61351442
v 0.27026728 -0.28568786 0.63126051
v 0.26385039 -0.28103134 0.64162076
v 0.25003341 -0.27614456 0.65432042
v 0.24842918 -0.26504055 0.67066288
v 0.24071857 -0.26017934 0.68025446
v 0.17002936 -0.23349392 0.73285776
v 0.19781861 -0.23948088 0.71942282
v 0.19072898 -0.23270078 0.72868025
v 0.23000652 -0.25375745 0.69201833
v 0.23000652 -0.24375361 0.70451748
v 0.21003138 -0.23794577 0.71765161
v 0.19000450 -0.22123860 0.74124622
v 0.19171220 -0.20893209 0.75290984
v 0.19947457 -0.19987491 0.75986123
v 0.21003138 -0.18836154 0.76741415
v 0.21003138 -0.17700168 0.77740681
v 0.23000652 -0.16374853 0.78308821
v 0.23145549 -0.14926727 0.79428399
v 0.23906259 -0.13964722 0.79969805
v 0.25003341 -0.12736629 0.80534601
v 0.25003341 -0.11324323 0.81537211
v 0.24578997 -0.10625845 0.82132089
v 0.23585415 -0.10625845 0.82419503
v 0.30995882 -0.13670491 0.77744019
v 0.30928606 -0.15072563 0.76647842
v 0.31518546 -0.10625845 0.79755914
v 0.30995882 -0.11288504 0.79495239
v 0.30995882 -0.12670107 0.78495973
v 0.32998568 -0.20639914 0.70665634
v 0.32998568 -0.21640298 0.69599533
v 0.34473416 -0.22210848 0.68242675
v 0.31834215 -0.19931203 0.71928918
v 0.30219644 -0.16106206 0.76086384
v 0.30995882 -0.17001691 0.75000226
v 0.30442166 -0.18196523 0.74178094
v 0.31140777 -0.19063863 0.73058516
v 0.32998568 -0.23520814 0.67420536
v 0.32998568 -0.24331866 0.66421276
v 0.33081368 -0.25421798 0.64947450
v 0.32475904 -0.26171446 0.64242280
v 0.33081368 -0.26701063 0.63142759
v 0.32998568 -0.27747500 0.61598748
v 0.31829041 -0.27947062 0.61916238
v 0.32998568 -0.28351310 0.60596144
v 0.32884720 -0.29384956 0.58848274
v 0.33474660 -0.29835254 0.57695276
v 0.34597614 -0.30183214 0.56361812
v 0.35156503 -0.30587462 0.55175400
v 0.35037482 -0.31631339 0.52962983
v 0.35736093 -0.31925571 0.51820016
v 0.36476105 -0.31853932 0.51445711
v 0.32957169 -0.32808262 0.51445711
v 0.32817447 -0.32242829 0.52962983
v 0.32036036 -0.32007444 0.54022402
v 0.30995882 -0.31690186 0.55312419
v 0.30995882 -0.30889368 0.57000136
v 0.29510683 -0.29868516 0.59760642
v 0.30995882 -0.30198565 0.58380389
v 0.28905219 -0.29413098 0.60853481
v 0.28998366 -0.28364104 0.62591326
v 0.27714992 -0.27918920 0.63878006
v 0.27026728 -0.27420008 0.64897317
v 0.26995680 -0.26335192 0.66461378
v 0.25401807 -0.25828603 0.67778134
v 0.24972290 -0.24994525 0.68987942
v 0.24547948 -0.24160446 0.70194411
v 0.20811667 -0.22640681 0.73085254
v 0.20014730 -0.22003609 0.74000967
v 0.23000652 -0.23523372 0.71451008
v 0.23000652 -0.22522989 0.72563899
v 0.20811667 -0.21092774 0.74676055
v 0.21003138 -0.19836538 0.75842416
v 0.23000652 -0.18526572 0.76464033
v 0.23000652 -0.17375237 0.77466637
v 0.24351302 -0.16134351 0.78108299
v 0.25013688 -0.15126291 0.78703177
v 0.25003341 -0.13737012 0.79799360
v 0.26995680 -0.12299121 0.80213773
v 0.26876655 -0.10838203 0.81263161
v 0.26669660 -0.10625845 0.81477052
v 0.25624329 -0.10625845 0.81814599
v 0.25003341 -0.10625845 0.82008433
v 0.29893625 -0.13951929 0.77961254
v 0.30995882 -0.10625845 0.79959780
v 0.29427883 -0.11713219 0.79796016
v 0.31756592 -0.21903826 0.69890285
v 0.32998568 -0.22520430 0.68600267
v 0.30504265 -0.20210081 0.72209644
v 0.31130427 -0.21056955 0.71056652
v 0.29138088 -0.14952312 0.77426529
v 0.28998366 -0.16374853 0.76310301
v 0.28998366 -0.17375237 0.75454742
v 0.28998366 -0.18493311 0.74452138
v 0.28998366 -0.19493695 0.73509687
v 0.31503022 -0.23812486 0.67774791
v 0.30897558 -0.24595395 0.67066288
v 0.30995882 -0.25698119 0.65595800
v 0.30995882 -0.26419625 0.64596534
v 0.31094202 -0.27504438 0.62945580
v 0.30493915 -0.28149188 0.62243760
v 0.31094202 -0.28617397 0.61150920
v 0.32139534 -0.30042496 0.58082950
v 0.30995882 -0.29658717 0.59379649
v 0.32884720 -0.30359754 0.57016850
v 0.32817447 -0.31431776 0.54814458
v 0.33365989 -0.31828347 0.53601307
v 0.34400970 -0.32109785 0.52267843
v 0.34846011 -0.32314467 0.51445711
v 0.35379025 -0.32168630 0.51445711
v 0.33490184 -0.32670102 0.51445711
v 0.28998366 -0.27732146 0.63590592
v 0.29039767 -0.26660126 0.65134603
v 0.28403252 -0.26125392 0.66173965
v 0.26995680 -0.25585544 0.67460644
v 0.25877899 -0.23960881 0.69953787
v 0.26995680 -0.24585161 0.68727267
v 0.25127536 -0.23354509 0.70916283
v 0.21349856 -0.21819395 0.73810470
v 0.25003341 -0.22221082 0.72233039
v 0.23000652 -0.21576335 0.73563159
v 0.23000652 -0.20575951 0.74559081
v 0.23000652 -0.19526955 0.75558347
v 0.25003341 -0.18183729 0.76159906
v 0.25013688 -0.16881441 0.77266115
v 0.25686428 -0.15875940 0.77894413
v 0.26995680 -0.14596677 0.78469241
v 0.26995680 -0.13299504 0.79468501
v 0.28092760 -0.12045827 0.80029958
v 0.28853470 -0.11027534 0.80464423
v 0.26985329 -0.10625845 0.81370109
v 0.28993192 -0.13000157 0.78997278
v 0.28563675 -0.14253834 0.78198534
v 0.30623287 -0.10625845 0.80100143
v 0.30421466 -0.22167355 0.70181042
v 0.30959657 -0.22991200 0.68981260
v 0.28998366 -0.20506871 0.72510427
v 0.28998366 -0.21507254 0.71474403
v 0.26995680 -0.15597060 0.77670497
v 0.26799032 -0.17037511 0.76534212
v 0.27332047 -0.17728312 0.75758862
v 0.26007271 -0.18002075 0.75999492
v 0.26736933 -0.18900117 0.74903309
v 0.27471769 -0.19798160 0.73800445
v 0.30167896 -0.24060664 0.68078917
v 0.29738379 -0.25915593 0.65886551
v 0.29039767 -0.25355276 0.66905868
v 0.28998366 -0.24257669 0.68322885
v 0.26115945 -0.22041987 0.72039205
v 0.26995680 -0.23771550 0.69729871
v 0.26866305 -0.22643240 0.71070021
v 0.25003341 -0.21251401 0.73235643
v 0.25003341 -0.20251018 0.74241590
v 0.25003341 -0.19184113 0.75240850
v 0.30017823 -0.10625845 0.80317372
v 0.28889695 -0.10625845 0.80721760
v 0.28998366 -0.22428323 0.70475137
v 0.28998366 -0.23426148 0.69318801
v 0.26141819 -0.20054013 0.74047756
v 0.26788682 -0.20926470 0.72921497
v 0.27440721 -0.21798927 0.71781868
f 1 2 7
f 1 7 15
f 1 15 26
f 1 26 41
f 1 41 63
f 1 63 93
f 1 93 137
f 1 137 193
f 1 193 192
f 1 192 257
f 1 257 336
f 1 336 406
f 1 406 405
f 1 405 408
f 1 408 479
f 1 479 558
f 1 558 630
f 1 630 629
f 1 629 692
f 1 692 691
f 1 691 752
f 1 752 815
f 1 815 873
f 1 873 872
f 1 872 874
f 1 874 816
f 1 816 757
f 1 757 756
f 1 756 755
f 1 755 754
f 1 754 753
f 1 753 693
f 1 693 631
f 1 631 561
f 1 561 560
f 1 560 559
f 1 559 481
f 1 481 480
f 1 480 410
f 1 410 409
f 1 409 337
f 1 337 259
f 1 259 258
f 1 258 195
f 1 195 194
f 1 194 139
f 1 139 95
f 1 95 65
f 1 65 43
f 1 43 27
f 1 27 16
f 1 16 8
f 1 8 3
f 1 3 4
f 1 4 5
f 1 5 13
f 1 13 12
f 1 12 21
f 1 21 34
f 1 34 33
f 1 33 52
f 1 52 75
f 1 75 111
f 1 111 110
f 1 110 109
f 1 109 108
f 1 108 155
f 1 155 211
f 1 211 277
f 1 277 276
f 1 276 275
f 1 275 357
f 1 357 433
f 1 433 507
f 1 507 506
f 1 506 584
f 1 584 583
f 1 583 652
f 1 652 587
f 1 587 586
f 1 586 510
f 1 510 435
f 1 435 358
f 1 358 280
f 1 280 279
f 1 279 278
f 1 278 212
f 1 212 156
f 1 156 113
f 1 113 112
f 1 112 77
f 1 77 76
f 1 76 53
f 1 53 35
f 1 35 22
f 1 22 14
f 1 14 6
f 1 6 2
f 2 6 7
f 3 8 9
f 3 9 10
f 3 10 4
f 4 10 19
f 4 19 11
f 4 11 12
f 4 12 13
f 4 13 5
f 6 14 24
f 6 24 38
f 6 38 58
f 6 58 82
f 6 82 85
f 6 85 84
f 6 84 122
f 6 122 165
f 6 165 226
f 6 226 225
f 6 225 294
f 6 294 295
f 6 295 373
f 6 373 452
f 6 452 529
f 6 529 528
f 6 528 600
f 6 600 601
f 6 601 664
f 6 664 725
f 6 725 787
f 6 787 786
f 6 786 846
f 6 846 845
f 6 845 844
f 6 844 894
f 6 894 919
f 6 919 918
f 6 918 897
f 6 897 848
f 6 848 790
f 6 790 729
f 6 729 728
f 6 728 666
f 6 666 604
f 6 604 603
f 6 603 533
f 6 533 532
f 6 532 531
f 6 531 455
f 6 455 381
f 6 381 379
f 6 379 305
f 6 305 304
f 6 304 233
f 6 233 232
f 6 232 173
f 6 173 167
f 6 167 124
f 6 124 87
f 6 87 60
f 6 60 40
f 6 40 25
f 6 25 15
f 6 15 7
f 8 16 17
f 8 17 9
f 9 17 18
f 9 18 10
f 10 18 19
f 11 19 20
f 11 20 34
f 11 34 21
f 11 21 12
f 14 22 23
f 14 23 24
f 15 25 39
f 15 39 59
f 15 59 86
f 15 86 123
f 15 123 166
f 15 166 170
f 15 170 228
f 15 228 300
f 15 300 299
f 15 299 376
f 15 376 375
f 15 375 398
f 15 398 321
f 15 321 249
f 15 249 189
f 15 189 188
f 15 188 138
f 15 138 94
f 15 94 64
f 15 64 42
f 15 42 26
f 16 27 28
f 16 28 17
f 17 28 18
f 18 28 29
f 18 29 19
f 19 29 30
f 19 30 31
f 19 31 20
f 20 31 32
f 20 32 33
f 20 33 34
f 22 35 23
f 23 35 36
f 23 36 37
f 23 37 24
f 24 37 38
f 25 40 39
f 26 42 41
f 27 43 44
f 27 44 45
f 27 45 28
f 28 45 44
f 28 44 46
f 28 46 29
f 29 46 30
f 30 46 47
f 30 47 48
f 30 48 49
f 30 49 31
f 31 49 50
f 31 50 32
f 32 50 73
f 32 73 51
f 32 51 75
f 32 75 52
f 32 52 33
f 35 53 54
f 35 54 36
f 36 54 79
f 36 79 55
f 36 55 37
f 37 55 56
f 37 56 57
f 37 57 58
f 37 58 38
f 39 40 59
f 40 60 61
f 40 61 59
f 41 42 62
f 41 62 63
f 42 64 62
f 43 65 66
f 43 66 44
f 44 66 67
f 44 67 68
f 44 68 46
f 46 68 47
f 47 68 69
f 47 69 70
f 47 70 48
f 48 71 72
f 48 72 49
f 48 70 71
f 49 72 73
f 49 73 50
f 51 73 74
f 51 74 75
f 53 76 54
f 54 76 77
f 54 77 78
f 54 78 79
f 55 79 56
f 56 79 80
f 56 80 81
f 56 81 57
f 57 82 58
f 57 81 83
f 57 83 84
f 57 84 85
f 57 85 82
f 59 61 86
f 60 87 61
f 61 88 89
f 61 89 86
f 61 87 90
f 61 90 88
f 62 91 92
f 62 92 63
f 62 64 91
f 63 92 93
f 64 94 91
f 65 95 66
f 66 95 96
f 66 96 67
f 67 96 97
f 67 97 98
f 67 98 68
f 68 98 69
f 69 98 99
f 69 99 100
f 69 100 70
f 70 100 101
f 70 101 71
f 71 102 103
f 71 103 72
f 71 101 104
f 71 104 102
f 72 103 105
f 72 105 73
f 73 105 74
f 74 105 106
f 74 106 107
f 74 107 108
f 74 108 109
f 74 109 110
f 74 110 111
f 74 111 75
f 77 112 78
f 78 112 113
f 78 113 114
f 78 114 115
f 78 115 116
f 78 116 79
f 79 116 117
f 79 117 80
f 80 117 118
f 80 118 119
f 80 119 81
f 81 119 120
f 81 120 83
f 83 120 121
f 83 121 84
f 84 121 122
f 86 89 123
f 87 124 90
f 88 125 89
f 88 90 126
f 88 126 127
f 88 127 125
f 89 125 123
f 90 124 128
f 90 128 129
f 90 129 130
f 90 130 131
f 90 131 126
f 91 132 133
f 91 133 92
f 91 94 134
f 91 134 132
f 92 133 135
f 92 135 136
f 92 136 93
f 93 136 137
f 94 138 134
f 95 139 140
f 95 140 96
f 96 140 141
f 96 141 97
f 97 141 142
f 97 142 98
f 98 142 143
f 98 143 99
f 99 143 144
f 99 144 145
f 99 145 100
f 100 145 146
f 100 146 101
f 101 146 147
f 101 147 104
f 102 104 148
f 102 148 149
f 102 149 103
f 103 106 105
f 103 149 150
f 103 150 106
f 104 151 148
f 104 147 151
f 106 150 152
f 106 152 153
f 106 153 154
f 106 154 107
f 107 154 155
f 107 155 108
f 113 156 157
f 113 157 114
f 114 157 158
f 114 158 115
f 115 158 159
f 115 159 117
f 115 117 116
f 117 159 160
f 117 160 118
f 118 160 161
f 118 161 119
f 119 161 162
f 119 162 120
f 120 162 163
f 120 163 121
f 121 163 164
f 121 164 165
f 121 165 122
f 123 125 166
f 124 167 128
f 125 127 168
f 125 168 169
f 125 169 170
f 125 170 166
f 126 131 127
f 127 131 171
f 127 171 172
f 127 172 168
f 128 167 129
f 129 167 173
f 129 173 174
f 129 174 175
f 129 175 176
f 129 176 177
f 129 177 178
f 129 178 130
f 130 178 131
f 131 178 177
f 131 177 179
f 131 179 180
f 131 180 181
f 131 181 171
f 132 134 182
f 132 182 133
f 133 182 183
f 133 183 135
f 134 184 185
f 134 185 186
f 134 186 187
f 134 187 182
f 134 138 188
f 134 188 189
f 134 189 184
f 135 183 190
f 135 190 136
f 136 190 191
f 136 191 192
f 136 192 193
f 136 193 137
f 139 194 140
f 140 194 195
f 140 195 196
f 140 196 141
f 141 196 197
f 141 197 142
f 142 197 198
f 142 198 143
f 143 198 199
f 143 199 144
f 144 200 145
f 144 199 201
f 144 201 200
f 145 200 202
f 145 202 146
f 146 202 147
f 147 203 151
f 147 202 204
f 147 204 203
f 148 205 149
f 148 151 206
f 148 206 205
f 149 152 150
f 149 205 152
f 151 203 206
f 152 207 209
f 152 209 153
f 152 205 208
f 152 208 207
f 153 209 210
f 153 210 154
f 154 210 155
f 155 210 211
f 156 212 213
f 156 213 157
f 157 213 214
f 157 214 158
f 158 214 215
f 158 215 216
f 158 216 159
f 159 216 217
f 159 217 218
f 159 218 160
f 160 218 219
f 160 219 220
f 160 220 161
f 161 220 290
f 161 290 221
f 161 221 162
f 162 221 222
f 162 222 163
f 163 222 223
f 163 223 164
f 164 223 224
f 164 224 225
f 164 225 226
f 164 226 165
f 168 227 169
f 168 172 227
f 169 227 228
f 169 228 170
f 171 181 229
f 171 229 172
f 172 230 227
f 172 229 231
f 172 231 230
f 173 232 174
f 174 232 233
f 174 233 175
f 175 177 176
f 175 233 234
f 175 234 235
f 175 235 236
f 175 236 177
f 177 236 237
f 177 237 238
f 177 238 180
f 177 180 179
f 180 238 239
f 180 239 240
f 180 240 241
f 180 241 242
f 180 242 243
f 180 243 229
f 180 229 181
f 182 186 244
f 182 244 245
f 182 245 183
f 182 187 186
f 183 245 246
f 183 246 190
f 184 247 248
f 184 248 185
f 184 189 249
f 184 249 247
f 185 248 186
f 186 248 250
f 186 250 251
f 186 251 252
f 186 252 253
f 186 253 244
f 190 246 254
f 190 254 255
f 190 255 256
f 190 256 191
f 191 256 257
f 191 257 192
f 195 258 196
f 196 259 260
f 196 260 197
f 196 258 259
f 197 260 261
f 197 261 198
f 198 261 262
f 198 262 199
f 199 262 263
f 199 263 264
f 199 264 201
f 200 201 265
f 200 265 202
f 201 264 265
f 202 265 266
f 202 266 204
f 203 267 206
f 203 204 268
f 203 268 267
f 204 266 269
f 204 269 268
f 205 206 208
f 206 270 208
f 206 267 270
f 207 271 272
f 207 272 209
f 207 208 271
f 208 273 271
f 208 270 273
f 209 272 210
f 210 272 274
f 210 274 275
f 210 275 276
f 210 276 277
f 210 277 211
f 212 278 213
f 213 278 279
f 213 279 280
f 213 280 281
f 213 281 282
f 213 282 214
f 214 282 215
f 215 282 283
f 215 283 217
f 215 217 216
f 217 283 284
f 217 284 285
f 217 285 286
f 217 286 287
f 217 287 218
f 218 287 288
f 218 288 219
f 219 288 289
f 219 289 220
f 220 289 290
f 221 290 291
f 221 291 222
f 222 291 223
f 223 291 292
f 223 292 293
f 223 293 224
f 224 294 225
f 224 293 295
f 224 295 294
f 227 230 296
f 227 296 297
f 227 297 298
f 227 298 299
f 227 299 300
f 227 300 228
f 229 243 242
f 229 242 301
f 229 301 231
f 230 231 302
f 230 302 296
f 231 301 303
f 231 303 302
f 233 304 234
f 234 304 235
f 235 237 236
f 235 304 305
f 235 305 306
f 235 306 307
f 235 307 308
f 235 308 309
f 235 309 237
f 237 309 310
f 237 310 239
f 237 239 238
f 239 311 312
f 239 312 240
f 239 310 313
f 239 313 311
f 240 312 241
f 241 312 242
f 242 314 315
f 242 315 303
f 242 303 301
f 242 312 316
f 242 316 317
f 242 317 314
f 244 253 318
f 244 318 245
f 245 318 319
f 245 319 320
f 245 320 254
f 245 254 246
f 247 249 321
f 247 321 322
f 247 322 323
f 247 323 250
f 247 250 248
f 250 324 325
f 250 325 326
f 250 326 252
f 250 252 251
f 250 323 324
f 252 327 328
f 252 328 329
f 252 329 330
f 252 330 253
f 252 326 325
f 252 325 327
f 253 330 318
f 254 320 319
f 254 319 331
f 254 331 332
f 254 332 333
f 254 333 255
f 255 333 334
f 255 334 256
f 256 334 335
f 256 335 257
f 257 335 336
f 259 337 338
f 259 338 260
f 260 338 261
f 261 339 340
f 261 340 341
f 261 341 262
f 261 338 339
f 262 341 342
f 262 342 263
f 263 342 343
f 263 343 344
f 263 344 264
f 264 344 345
f 264 345 265
f 265 345 266
f 266 345 346
f 266 346 347
f 266 347 269
f 267 348 270
f 267 268 349
f 267 349 348
f 268 269 350
f 268 350 349
f 269 347 350
f 270 351 273
f 270 348 351
f 271 273 352
f 271 352 353
f 271 353 272
f 272 353 354
f 272 354 355
f 272 355 274
f 273 351 356
f 273 356 352
f 274 355 275
f 275 355 357
f 280 358 281
f 281 358 359
f 281 359 282
f 282 360 284
f 282 284 283
f 282 359 360
f 284 361 362
f 284 362 285
f 284 360 437
f 284 437 361
f 285 362 363
f 285 363 286
f 286 363 287
f 287 363 288
f 288 364 365
f 288 365 366
f 288 366 289
f 288 363 367
f 288 367 364
f 289 366 368
f 289 368 290
f 290 368 369
f 290 369 291
f 291 369 370
f 291 370 292
f 292 370 371
f 292 371 293
f 293 371 372
f 293 372 295
f 295 372 373
f 296 302 297
f 297 302 374
f 297 374 323
f 297 323 322
f 297 322 375
f 297 375 376
f 297 376 298
f 298 376 299
f 302 303 374
f 303 325 377
f 303 377 374
f 303 315 314
f 303 314 378
f 303 378 325
f 305 379 307
f 305 307 306
f 307 380 308
f 307 379 381
f 307 381 382
f 307 382 383
f 307 383 384
f 307 384 380
f 308 380 309
f 309 380 310
f 310 380 385
f 310 385 313
f 311 313 386
f 311 386 387
f 311 387 312
f 312 387 388
f 312 388 389
f 312 389 316
f 313 385 390
f 313 390 391
f 313 391 386
f 314 328 392
f 314 392 325
f 314 325 378
f 314 317 393
f 314 393 394
f 314 394 328
f 316 389 317
f 317 389 393
f 318 330 319
f 319 395 396
f 319 396 397
f 319 397 331
f 319 330 395
f 321 398 322
f 322 398 375
f 323 374 324
f 324 374 377
f 324 377 325
f 325 392 328
f 325 328 327
f 328 394 399
f 328 399 400
f 328 400 329
f 329 400 395
f 329 395 330
f 331 397 401
f 331 401 332
f 332 401 402
f 332 402 403
f 332 403 404
f 332 404 333
f 333 404 334
f 334 404 335
f 335 405 406
f 335 406 336
f 335 404 407
f 335 407 408
f 335 408 405
f 337 409 338
f 338 409 339
f 339 410 411
f 339 411 412
f 339 412 340
f 339 409 410
f 340 412 341
f 341 412 413
f 341 413 342
f 342 413 414
f 342 414 415
f 342 415 416
f 342 416 343
f 343 416 417
f 343 417 344
f 344 417 418
f 344 418 345
f 345 418 419
f 345 419 346
f 346 419 420
f 346 420 347
f 347 420 421
f 347 421 350
f 348 422 351
f 348 349 423
f 348 423 422
f 349 350 424
f 349 424 425
f 349 425 423
f 350 421 426
f 350 426 424
f 351 422 427
f 351 427 356
f 352 428 429
f 352 429 353
f 352 356 428
f 353 429 430
f 353 430 354
f 354 430 431
f 354 431 355
f 355 431 432
f 355 432 507
f 355 507 433
f 355 433 357
f 356 434 428
f 356 427 434
f 358 435 359
f 359 435 510
f 359 510 436
f 359 436 437
f 359 437 360
f 361 437 438
f 361 438 439
f 361 439 362
f 362 439 440
f 362 440 363
f 363 440 441
f 363 441 364
f 363 364 367
f 364 441 442
f 364 442 443
f 364 443 444
f 364 444 365
f 365 444 445
f 365 445 366
f 366 445 446
f 366 446 368
f 368 446 447
f 368 447 369
f 369 447 448
f 369 448 370
f 370 448 449
f 370 449 371
f 371 449 450
f 371 450 372
f 372 450 451
f 372 451 452
f 372 452 373
f 380 384 453
f 380 453 454
f 380 454 385
f 381 455 382
f 382 455 383
f 383 456 457
f 383 457 458
f 383 458 453
f 383 453 384
f 383 455 456
f 385 454 390
f 386 391 459
f 386 459 387
f 387 459 460
f 387 460 461
f 387 461 462
f 387 462 388
f 388 462 389
f 389 462 463
f 389 463 393
f 390 453 464
f 390 464 465
f 390 465 466
f 390 466 467
f 390 467 459
f 390 459 391
f 390 454 453
f 393 463 468
f 393 468 394
f 394 468 399
f 395 400 396
f 396 469 470
f 396 470 471
f 396 471 472
f 396 472 401
f 396 401 397
f 396 400 399
f 396 399 469
f 399 468 473
f 399 473 469
f 401 472 474
f 401 474 402
f 402 474 475
f 402 475 476
f 402 476 403
f 403 476 404
f 404 476 477
f 404 477 478
f 404 478 407
f 407 478 479
f 407 479 408
f 410 480 411
f 411 480 481
f 411 481 482
f 411 482 483
f 411 483 412
f 412 483 413
f 413 483 414
f 414 483 484
f 414 484 485
f 414 485 415
f 415 485 486
f 415 486 416
f 416 486 487
f 416 487 488
f 416 488 417
f 417 488 489
f 417 489 418
f 418 489 419
f 419 490 420
f 419 489 491
f 419 491 490
f 420 490 492
f 420 492 421
f 421 492 426
f 422 423 493
f 422 493 494
f 422 494 427
f 423 425 493
f 424 426 495
f 424 495 425
f 425 495 496
f 425 496 493
f 426 497 495
f 426 492 498
f 426 498 497
f 427 499 434
f 427 494 499
f 428 500 501
f 428 501 429
f 428 434 500
f 429 502 430
f 429 501 503
f 429 503 502
f 430 504 431
f 430 502 504
f 431 504 505
f 431 505 432
f 432 506 507
f 432 505 506
f 434 499 508
f 434 508 509
f 434 509 500
f 436 510 586
f 436 586 511
f 436 511 512
f 436 512 437
f 437 512 438
f 438 512 589
f 438 589 513
f 438 513 439
f 439 514 440
f 439 513 514
f 440 514 500
f 440 500 515
f 440 515 442
f 440 442 441
f 442 515 516
f 442 516 517
f 442 517 518
f 442 518 443
f 443 518 519
f 443 519 444
f 444 519 520
f 444 520 445
f 445 520 521
f 445 521 446
f 446 521 522
f 446 522 447
f 447 522 523
f 447 523 448
f 448 523 449
f 449 523 524
f 449 524 525
f 449 525 450
f 450 525 598
f 450 598 526
f 450 526 451
f 451 526 527
f 451 527 528
f 451 528 529
f 451 529 452
f 453 458 530
f 453 530 464
f 455 531 456
f 456 531 532
f 456 532 457
f 457 530 458
f 457 532 533
f 457 533 534
f 457 534 535
f 457 535 536
f 457 536 530
f 459 467 537
f 459 537 538
f 459 538 539
f 459 539 540
f 459 540 460
f 460 540 461
f 461 540 462
f 462 540 541
f 462 541 542
f 462 542 463
f 463 542 543
f 463 543 468
f 464 530 465
f 465 544 545
f 465 545 466
f 465 530 544
f 466 545 546
f 466 546 537
f 466 537 467
f 468 543 473
f 469 473 470
f 470 547 548
f 470 548 549
f 470 549 471
f 470 473 547
f 471 549 550
f 471 550 472
f 472 550 474
f 473 543 547
f 474 550 551
f 474 551 552
f 474 552 475
f 475 552 553
f 475 553 554
f 475 554 476
f 476 554 555
f 476 555 477
f 477 555 556
f 477 556 478
f 478 556 557
f 478 557 479
f 479 557 558
f 481 559 482
f 482 559 560
f 482 560 561
f 482 561 562
f 482 562 484
f 482 484 483
f 484 562 563
f 484 563 485
f 485 563 564
f 485 564 486
f 486 564 565
f 486 565 566
f 486 566 487
f 487 566 567
f 487 567 488
f 488 567 489
f 489 567 568
f 489 568 569
f 489 569 491
f 490 491 570
f 490 570 492
f 491 569 570
f 492 570 571
f 492 571 572
f 492 572 498
f 493 496 573
f 493 573 494
f 494 574 499
f 494 573 574
f 495 497 575
f 495 575 496
f 496 575 576
f 496 576 573
f 497 498 577
f 497 577 578
f 497 578 575
f 498 572 577
f 499 574 579
f 499 579 508
f 500 509 516
f 500 516 515
f 500 514 503
f 500 503 501
f 502 503 580
f 502 580 504
f 503 514 513
f 503 513 580
f 504 580 581
f 504 581 505
f 505 581 582
f 505 582 583
f 505 583 584
f 505 584 506
f 508 585 516
f 508 516 509
f 508 579 585
f 511 586 587
f 511 587 588
f 511 588 512
f 512 588 589
f 513 589 580
f 516 585 517
f 517 585 590
f 517 590 518
f 518 590 591
f 518 591 519
f 519 591 592
f 519 592 520
f 520 592 593
f 520 593 521
f 521 593 656
f 521 656 594
f 521 594 522
f 522 594 595
f 522 595 523
f 523 595 596
f 523 596 524
f 524 596 597
f 524 597 525
f 525 597 598
f 526 598 599
f 526 599 527
f 527 600 528
f 527 599 601
f 527 601 600
f 530 536 602
f 530 602 544
f 533 603 534
f 534 603 535
f 535 603 604
f 535 604 605
f 535 605 606
f 535 606 602
f 535 602 536
f 537 546 607
f 537 607 538
f 538 607 608
f 538 608 609
f 538 609 539
f 539 609 610
f 539 610 540
f 540 610 611
f 540 611 541
f 541 611 612
f 541 612 542
f 542 612 543
f 543 612 613
f 543 613 547
f 544 602 545
f 545 607 546
f 545 602 614
f 545 614 615
f 545 615 616
f 545 616 607
f 547 613 617
f 547 617 548
f 548 617 618
f 548 618 619
f 548 619 620
f 548 620 551
f 548 551 549
f 549 551 550
f 551 620 621
f 551 621 622
f 551 622 623
f 551 623 552
f 552 623 553
f 553 623 624
f 553 624 554
f 554 624 625
f 554 625 626
f 554 626 555
f 555 626 627
f 555 627 556
f 556 627 628
f 556 628 557
f 557 628 629
f 557 629 630
f 557 630 558
f 561 631 632
f 561 632 562
f 562 632 563
f 563 632 633
f 563 633 564
f 564 633 634
f 564 634 635
f 564 635 636
f 564 636 565
f 565 636 637
f 565 637 566
f 566 637 638
f 566 638 567
f 567 638 568
f 568 638 639
f 568 639 640
f 568 640 569
f 569 640 641
f 569 641 570
f 570 641 642
f 570 642 571
f 571 642 643
f 571 643 572
f 572 643 644
f 572 644 577
f 573 645 574
f 573 576 645
f 574 645 646
f 574 646 579
f 575 647 576
f 575 578 647
f 576 647 648
f 576 648 645
f 577 644 649
f 577 649 578
f 578 649 650
f 578 650 647
f 579 651 585
f 579 646 651
f 580 589 581
f 581 589 588
f 581 588 582
f 582 588 583
f 583 588 652
f 585 651 590
f 587 652 588
f 590 651 653
f 590 653 591
f 591 653 654
f 591 654 592
f 592 654 655
f 592 655 593
f 593 655 656
f 594 656 657
f 594 657 595
f 595 657 596
f 596 657 658
f 596 658 659
f 596 659 597
f 597 659 660
f 597 660 598
f 598 660 661
f 598 661 599
f 599 661 662
f 599 662 663
f 599 663 601
f 601 663 664
f 602 606 665
f 602 665 614
f 604 666 605
f 605 666 667
f 605 667 606
f 606 667 665
f 607 668 608
f 607 616 669
f 607 669 670
f 607 670 668
f 608 668 609
f 609 668 610
f 610 668 671
f 610 671 672
f 610 672 611
f 611 672 673
f 611 673 612
f 612 673 674
f 612 674 613
f 613 674 617
f 614 665 615
f 615 665 675
f 615 675 676
f 615 676 677
f 615 677 616
f 616 677 669
f 617 674 618
f 618 674 678
f 618 678 679
f 618 679 680
f 618 680 681
f 618 681 619
f 619 681 621
f 619 621 620
f 621 681 682
f 621 682 683
f 621 683 622
f 622 683 684
f 622 684 623
f 623 684 624
f 624 684 685
f 624 685 686
f 624 686 687
f 624 687 625
f 625 687 688
f 625 688 626
f 626 689 627
f 626 688 689
f 627 689 690
f 627 690 628
f 628 690 691
f 628 691 692
f 628 692 629
f 631 693 632
f 632 693 694
f 632 694 633
f 633 694 634
f 634 695 696
f 634 696 635
f 634 694 695
f 635 696 697
f 635 697 698
f 635 698 636
f 636 698 699
f 636 699 637
f 637 699 700
f 637 700 638
f 638 700 639
f 639 701 640
f 639 700 702
f 639 702 701
f 640 701 703
f 640 703 641
f 641 703 642
f 642 704 643
f 642 703 705
f 642 705 704
f 643 704 706
f 643 706 644
f 644 706 649
f 645 648 707
f 645 707 646
f 646 708 651
f 646 707 708
f 647 709 648
f 647 650 710
f 647 710 709
f 648 709 707
f 649 711 650
f 649 706 712
f 649 712 711
f 650 711 713
f 650 713 710
f 651 708 653
f 653 708 714
f 653 714 654
f 654 714 715
f 654 715 655
f 655 715 716
f 655 716 656
f 656 716 657
f 657 716 717
f 657 717 718
f 657 718 658
f 658 718 659
f 659 718 719
f 659 719 720
f 659 720 660
f 660 720 721
f 660 721 661
f 661 721 662
f 662 664 663
f 662 721 722
f 662 722 723
f 662 723 724
f 662 724 664
f 664 724 725
f 665 667 726
f 665 726 727
f 665 727 675
f 666 728 667
f 667 728 729
f 667 729 730
f 667 730 726
f 668 670 731
f 668 731 732
f 668 732 733
f 668 733 671
f 669 677 734
f 669 734 735
f 669 735 670
f 670 735 731
f 671 733 672
f 672 733 673
f 673 733 736
f 673 736 678
f 673 678 674
f 675 727 737
f 675 737 676
f 676 737 738
f 676 738 677
f 677 738 734
f 678 736 679
f 679 739 740
f 679 740 741
f 679 741 680
f 679 736 739
f 680 741 742
f 680 742 681
f 681 742 682
f 682 742 743
f 682 743 744
f 682 744 745
f 682 745 683
f 683 745 685
f 683 685 684
f 685 745 746
f 685 746 747
f 685 747 686
f 686 747 687
f 687 747 748
f 687 748 749
f 687 749 688
f 688 749 689
f 689 749 750
f 689 750 751
f 689 751 690
f 690 751 691
f 691 751 752
f 693 753 694
f 694 753 695
f 695 753 754
f 695 754 755
f 695 755 756
f 695 756 696
f 696 756 757
f 696 757 758
f 696 758 759
f 696 759 697
f 697 759 760
f 697 760 698
f 698 760 761
f 698 761 699
f 699 761 700
f 700 761 762
f 700 762 763
f 700 763 702
f 701 702 764
f 701 764 703
f 702 763 764
f 703 764 765
f 703 765 766
f 703 766 705
f 704 705 767
f 704 767 706
f 705 766 767
f 706 767 768
f 706 768 769
f 706 769 712
f 707 709 770
f 707 770 708
f 708 770 714
f 709 710 771
f 709 771 772
f 709 772 770
f 710 713 771
f 711 712 769
f 711 769 773
f 711 773 774
f 711 774 713
f 713 775 771
f 713 774 775
f 714 770 776
f 714 776 715
f 715 776 777
f 715 777 716
f 716 777 778
f 716 778 717
f 717 778 718
f 718 778 779
f 718 779 780
f 718 780 719
f 719 780 838
f 719 838 781
f 719 781 720
f 720 781 782
f 720 782 721
f 721 782 783
f 721 783 722
f 722 783 784
f 722 784 723
f 723 784 785
f 723 785 786
f 723 786 787
f 723 787 724
f 724 787 725
f 726 730 788
f 726 788 727
f 727 788 789
f 727 789 737
f 729 790 730
f 730 790 791
f 730 791 792
f 730 792 788
f 731 735 793
f 731 793 794
f 731 794 732
f 732 794 795
f 732 795 733
f 733 795 739
f 733 739 736
f 734 738 796
f 734 796 735
f 735 796 793
f 737 789 797
f 737 797 798
f 737 798 738
f 738 798 799
f 738 799 800
f 738 800 796
f 739 795 801
f 739 801 740
f 740 801 802
f 740 802 803
f 740 803 743
f 740 743 741
f 741 743 742
f 743 803 804
f 743 804 805
f 743 805 744
f 744 805 806
f 744 806 745
f 745 806 746
f 746 806 807
f 746 807 808
f 746 808 809
f 746 809 747
f 747 809 810
f 747 810 748
f 748 810 749
f 749 810 811
f 749 811 812
f 749 812 750
f 750 812 751
f 751 812 813
f 751 813 814
f 751 814 752
f 752 814 815
f 757 816 758
f 758 816 817
f 758 817 818
f 758 818 759
f 759 818 819
f 759 819 760
f 760 819 820
f 760 820 761
f 761 820 762
f 762 821 763
f 762 820 822
f 762 822 821
f 763 821 823
f 763 823 764
f 764 823 824
f 764 824 765
f 765 824 825
f 765 825 766
f 766 825 826
f 766 826 767
f 767 826 827
f 767 827 768
f 768 828 769
f 768 827 828
f 769 828 829
f 769 829 830
f 769 830 773
f 770 772 776
f 771 831 832
f 771 832 772
f 771 775 831
f 772 832 776
f 773 830 774
f 774 833 775
f 774 830 833
f 775 833 834
f 775 834 831
f 776 832 777
f 777 832 778
f 778 832 835
f 778 835 836
f 778 836 779
f 779 836 837
f 779 837 780
f 780 837 838
f 781 838 839
f 781 839 782
f 782 839 783
f 783 839 840
f 783 840 841
f 783 841 784
f 784 841 842
f 784 842 785
f 785 842 843
f 785 843 844
f 785 844 845
f 785 845 846
f 785 846 786
f 788 792 847
f 788 847 789
f 789 847 797
f 790 848 791
f 791 848 849
f 791 849 792
f 792 849 847
f 793 796 850
f 793 850 794
f 794 850 851
f 794 851 795
f 795 851 801
f 796 800 852
f 796 852 853
f 796 853 850
f 797 799 798
f 797 847 854
f 797 854 855
f 797 855 856
f 797 856 799
f 799 852 800
f 799 856 857
f 799 857 858
f 799 858 852
f 801 851 859
f 801 859 802
f 802 859 860
f 802 860 861
f 802 861 803
f 803 861 804
f 804 807 805
f 804 861 862
f 804 862 863
f 804 863 807
f 805 807 806
f 807 863 864
f 807 864 865
f 807 865 808
f 808 865 809
f 809 866 810
f 809 865 867
f 809 867 866
f 810 866 811
f 811 866 868
f 811 868 869
f 811 869 812
f 812 869 870
f 812 870 813
f 813 870 871
f 813 871 814
f 814 871 872
f 814 872 873
f 814 873 815
f 816 874 871
f 816 871 817
f 817 870 818
f 817 871 870
f 818 870 869
f 818 869 819
f 819 869 820
f 820 869 868
f 820 868 866
f 820 866 822
f 821 822 866
f 821 866 867
f 821 867 865
f 821 865 823
f 823 865 864
f 823 864 824
f 824 875 825
f 824 864 875
f 825 875 876
f 825 876 826
f 826 876 877
f 826 877 827
f 827 877 878
f 827 878 828
f 828 879 829
f 828 878 880
f 828 880 879
f 829 879 830
f 830 879 881
f 830 881 833
f 831 834 882
f 831 882 832
f 832 882 835
f 833 881 883
f 833 883 834
f 834 884 882
f 834 883 884
f 835 882 885
f 835 885 836
f 836 885 886
f 836 886 837
f 837 886 887
f 837 887 838
f 838 887 839
f 839 887 888
f 839 888 889
f 839 889 840
f 840 889 841
f 841 889 890
f 841 890 891
f 841 891 842
f 842 891 892
f 842 892 843
f 843 892 893
f 843 893 894
f 843 894 844
f 847 849 895
f 847 895 896
f 847 896 854
f 848 897 849
f 849 893 892
f 849 892 895
f 849 897 893
f 850 853 898
f 850 898 899
f 850 899 859
f 850 859 851
f 852 858 900
f 852 900 901
f 852 901 853
f 853 901 898
f 854 896 902
f 854 902 855
f 855 902 903
f 855 903 904
f 855 904 856
f 856 904 857
f 857 904 905
f 857 905 906
f 857 906 907
f 857 907 858
f 858 907 900
f 859 899 908
f 859 908 860
f 860 908 909
f 860 909 861
f 861 909 862
f 862 909 876
f 862 876 875
f 862 875 863
f 863 875 864
f 871 874 872
f 876 909 877
f 877 909 910
f 877 910 878
f 878 910 911
f 878 911 880
f 879 912 881
f 879 880 911
f 879 911 913
f 879 913 914
f 879 914 912
f 881 912 883
f 882 884 885
f 883 912 915
f 883 915 884
f 884 915 916
f 884 916 885
f 885 916 886
f 886 916 917
f 886 917 887
f 887 917 905
f 887 905 888
f 888 905 889
f 889 905 903
f 889 903 902
f 889 902 890
f 890 902 896
f 890 896 891
f 891 896 895
f 891 895 892
f 893 897 918
f 893 918 919
f 893 919 894
f 898 901 920
f 898 920 921
f 898 921 908
f 898 908 899
f 900 907 922
f 900 922 923
f 900 923 912
f 900 912 924
f 900 924 901
f 901 924 920
f 903 905 904
f 905 917 922
f 905 922 906
f 906 922 907
f 908 921 913
f 908 913 911
f 908 911 910
f 908 910 909
f 912 922 915
f 912 914 920
f 912 920 924
f 912 923 922
f 913 921 920
f 913 920 914
f 915 922 916
f 916 922 917
