v -1.01063037 0.40997446 0.00098470
v -1.01034081 0.40097299 0.00098470
v -1.01063037 0.40997446 0.01000716
v -1.00918233 0.42998749 0.00098470
v -1.00994253 0.38996148 0.00098470
v -1.00994253 0.38996148 0.01000716
v -1.01023221 0.40997446 0.03000198
v -1.00882030 0.42998749 0.03000198
v -1.00918233 0.42998749 0.01000716
v -1.00378799 0.44549972 0.00098470
v -1.00860310 0.36999220 0.00098470
v -1.00856686 0.36999220 0.01000716
v -1.00950813 0.38996148 0.03000198
v -1.00939953 0.40997446 0.05002987
v -1.00802374 0.42998749 0.05002987
v -1.00320876 0.44480059 0.05002987
v -1.00360703 0.44532496 0.03000198
v -1.00378799 0.44549972 0.01000716
v -0.99270976 0.45550624 0.01000716
v -0.99267358 0.45546252 0.00098470
v -1.00679290 0.34997916 0.00098470
v -1.00679290 0.34997916 0.01000716
v -1.00809622 0.36999220 0.03000198
v -1.00863922 0.38996148 0.05002987
v -1.00805998 0.40997446 0.07002470
v -1.00733590 0.38996148 0.07002470
v -1.00668430 0.42998749 0.07002470
v -1.00165200 0.44270316 0.09001952
v -1.00255704 0.44392666 0.07002470
v -0.99187708 0.45393315 0.07002470
v -0.99234772 0.45480710 0.05002987
v -0.99260116 0.45528775 0.03000198
v -0.98235559 0.46101201 0.05002987
v -0.98260903 0.46105570 0.03000198
v -0.98268145 0.46105570 0.01000716
v -0.98268145 0.46105570 0.00098470
v -1.00585163 0.34097770 0.00098470
v -1.00465691 0.32996619 0.00098470
v -1.00462067 0.32996619 0.01000716
v -1.00415003 0.32996619 0.03000198
v -1.00628603 0.34997916 0.03000198
v -1.00722730 0.36999220 0.05002987
v -1.00628603 0.40997446 0.09001952
v -1.00592399 0.36999220 0.07002470
v -1.00422239 0.36999220 0.09001952
v -1.00556195 0.38996148 0.09001952
v -1.00487411 0.42998749 0.09001952
v -1.00002289 0.44003767 0.12022659
v -1.00060213 0.44099897 0.11001436
v -0.98785853 0.44912654 0.15000401
v -0.98025584 0.46013805 0.12277138
v -0.98069024 0.46035653 0.11001436
v -0.98134196 0.46066242 0.09001952
v -0.98188496 0.46088091 0.07002470
v -0.96997410 0.46153635 0.11001436
v -0.96997410 0.46166742 0.09001952
v -0.96997410 0.46175483 0.05002987
v -0.97696131 0.46131787 0.00098470
v -1.00353456 0.32096469 0.00098470
v -1.00212264 0.30999687 0.01000716
v -1.00103652 0.31226909 0.05002987
v -1.00320876 0.32996619 0.05002987
v -1.00538099 0.34997916 0.05002987
v -1.00132620 0.30807424 0.03165445
v -1.00338972 0.38996148 0.11001436
v -1.00404143 0.40997446 0.11001436
v -1.00005901 0.42059273 0.14055191
v -1.00407767 0.34997916 0.07002470
v -1.00201404 0.36999220 0.11001436
v -1.00237608 0.34997916 0.09001952
v -1.00056589 0.35190183 0.10869238
v -1.00270188 0.42998749 0.11001436
v -0.98097992 0.44161075 0.22449715
v -0.98246425 0.44379556 0.20998850
v -0.98441923 0.44619888 0.18999368
v -0.98619318 0.44790304 0.16999884
v -1.00063825 0.42832702 0.12815842
v -0.99908155 0.43392015 0.13357851
v -0.99394071 0.42998749 0.16999884
v -0.97873527 0.45974481 0.13612330
v -0.96092325 0.46044391 0.22595131
v -0.96204555 0.46092460 0.20998850
v -0.96342129 0.46123046 0.18999368
v -0.96490562 0.46131787 0.16999884
v -0.94998986 0.46192962 0.20998850
v -0.96997410 0.46162373 0.00098470
v -1.00215888 0.30999687 0.00098470
v -1.00136232 0.30418524 0.00098470
v -1.00038493 0.29732490 0.01000716
v -1.00020385 0.29854840 0.02606912
v -1.00034869 0.31716311 0.07002470
v -0.99995041 0.30012146 0.03942104
v -0.99966085 0.30230629 0.05002987
v -0.99900913 0.30715662 0.07002470
v -1.00190544 0.32996619 0.07002470
v -1.00042105 0.36999220 0.12306883
v -1.00107276 0.38996148 0.12786098
v -0.99995041 0.40145367 0.13985787
v -1.00118136 0.40883836 0.13192604
v -1.00005901 0.41478109 0.14055191
v -0.99770582 0.42832702 0.14835155
v -0.99524403 0.40997446 0.16999884
v -0.99162370 0.40997446 0.18999368
v -0.99032032 0.42998749 0.18999368
v -0.99998665 0.31995967 0.08007169
v -1.00052977 0.33127707 0.08803657
v -0.99998665 0.35985458 0.12009439
v -1.00013149 0.33883655 0.10115714
v -0.99933499 0.34652716 0.11450906
v -0.98641038 0.42998749 0.20998850
v -0.97949553 0.43654194 0.23784907
v -0.96085083 0.44139224 0.30265874
v -0.96269721 0.44397035 0.28996783
v -0.96548486 0.44711649 0.26997298
v -0.96801913 0.44912654 0.24997815
v -0.95961994 0.45991957 0.23927018
v -0.97341341 0.45620537 0.18999368
v -0.97489774 0.45790952 0.16999884
v -0.94202513 0.46083719 0.28996783
v -0.94423354 0.46127415 0.26997298
v -0.92996937 0.46184224 0.28996783
v -0.90998513 0.46175483 0.33861640
v -0.90998513 0.46171114 0.32999054
v -0.89680713 0.46066242 0.33861640
v -0.96468842 0.46114308 0.00098470
v -1.00038493 0.29723749 0.00098470
v -0.99955219 0.29173175 0.00098470
v -0.99886435 0.28736210 0.01000716
v -0.99886435 0.29111999 0.03165445
v -0.99781442 0.28998387 0.05002987
v -0.99651110 0.28998387 0.07002470
v -0.99814028 0.31196323 0.08803657
v -0.99477339 0.28998387 0.09001952
v -0.99900913 0.36999220 0.13304973
v -0.99969703 0.38996148 0.13787492
v -0.99875575 0.40883836 0.14835155
v -0.99781442 0.38996148 0.15000401
v -0.99451995 0.38996148 0.16999884
v -0.99086344 0.38996148 0.18999368
v -0.98760509 0.40997446 0.20998850
v -0.99933499 0.32546544 0.09339055
v -0.99810410 0.35190183 0.12805927
v -0.99835753 0.33127707 0.10869238
v -0.99549747 0.32996619 0.13000919
v -0.98040062 0.42321450 0.24174890
v -0.98199356 0.42990008 0.23071042
v -0.97768539 0.42990008 0.24901974
v -0.97236347 0.42998749 0.26997298
v -0.96682441 0.42998749 0.28996783
v -0.96193695 0.42998749 0.30609590
v -0.95867860 0.42998749 0.31610984
v -0.95389980 0.42998749 0.32999054
v -0.95078629 0.42998749 0.33861640
v -0.94904852 0.43588650 0.33861640
v -0.94466794 0.44593668 0.33861640
v -0.94622469 0.44764084 0.32999054
v -0.95201725 0.45397687 0.28996783
v -0.95422566 0.45712298 0.26997298
v -0.94064939 0.46031284 0.30279094
v -0.92370623 0.46105570 0.33861640
v -0.92500955 0.46131787 0.32999054
v -0.89249897 0.45970109 0.33861640
v -0.95817178 0.46053132 0.00098470
v -0.99886435 0.28723100 0.00098470
v -0.99759722 0.27949673 0.00098470
v -0.99600428 0.26997089 0.01000716
v -0.99546123 0.26997089 0.03000198
v -0.99455613 0.26997089 0.05002987
v -0.99321663 0.26997089 0.07002470
v -0.99553365 0.30999687 0.11001436
v -0.99263740 0.28998387 0.11001436
v -0.99147886 0.26997089 0.09001952
v -0.99643874 0.36999220 0.15000401
v -0.99466479 0.34997916 0.15000401
v -0.99314421 0.36999220 0.16999884
v -0.98948765 0.36999220 0.18999368
v -0.98684484 0.38996148 0.20998850
v -0.98326069 0.40997446 0.22998333
v -0.99249256 0.32996619 0.15000401
v -0.99299943 0.30999687 0.13000919
v -0.98047304 0.40997446 0.24207938
v -0.97804743 0.40997446 0.25206026
v -0.97348583 0.40997446 0.26997298
v -0.96791053 0.40997446 0.28996783
v -0.96248001 0.40997446 0.30771530
v -0.95922172 0.40997446 0.31769621
v -0.95498592 0.40997446 0.32999054
v -0.95187241 0.40997446 0.33861640
v -0.93369836 0.45594320 0.33861640
v -0.93500167 0.45764735 0.32999054
v -0.93782550 0.45939523 0.31614286
v -0.92939013 0.45895827 0.33861640
v -0.88681501 0.45786583 0.33861640
v -0.94817966 0.45721039 0.00098470
v -0.99600428 0.26997089 0.00098470
v -0.99231154 0.24995789 0.00098470
v -0.99227536 0.24995789 0.01000716
v -0.99176848 0.24995789 0.03000198
v -0.99086344 0.24995789 0.05002987
v -0.98952389 0.24995789 0.07002470
v -0.99006695 0.28998387 0.13000919
v -0.98930669 0.26997089 0.11001436
v -0.98774993 0.24995789 0.09001952
v -0.99133408 0.34997916 0.16999884
v -0.98543292 0.36999220 0.20998850
v -0.98767751 0.34997916 0.18999368
v -0.98202980 0.38943714 0.23160276
v -0.98021960 0.39577311 0.24102181
v -0.98999453 0.30999687 0.15000401
v -0.98916185 0.32996619 0.16999884
v -0.97801125 0.38943714 0.24859010
v -0.97254455 0.38996148 0.26997298
v -0.96689677 0.38996148 0.28996783
v -0.96197313 0.38996148 0.30616200
v -0.95875108 0.38996148 0.31617594
v -0.95400840 0.38996148 0.32999054
v -0.95132935 0.39861339 0.33861640
v -0.86900294 0.44973829 0.33861640
v -0.92996937 0.44772825 0.00098470
v -0.99046516 0.24095641 0.00098470
v -0.98818433 0.23003228 0.01000716
v -0.98767751 0.23003228 0.03000198
v -0.98677242 0.23003228 0.05002987
v -0.98543292 0.23003228 0.07002470
v -0.98706204 0.28998387 0.15000401
v -0.98673624 0.26997089 0.13000919
v -0.98376757 0.26997089 0.15000401
v -0.98557770 0.24995789 0.11001436
v -0.98365891 0.23003228 0.09001952
v -0.98163158 0.36999220 0.22717415
v -0.98358655 0.34997916 0.20998850
v -0.98072648 0.34997916 0.22317518
v -0.98550534 0.32996619 0.18999368
v -0.98152292 0.33118969 0.21021985
v -0.97982138 0.38244569 0.23933628
v -0.98666382 0.30999687 0.16999884
v -0.97620106 0.36999220 0.24997815
v -0.97102398 0.36999220 0.26997298
v -0.96534002 0.36999220 0.28996783
v -0.96117663 0.36999220 0.30368328
v -0.95795459 0.36999220 0.31369722
v -0.95241547 0.36999220 0.32999054
v -0.94998986 0.37860039 0.33861640
v -0.95089495 0.38996148 0.33861640
v -0.85662144 0.44252837 0.33861640
v -0.91943419 0.44047463 0.00098470
v -0.98822057 0.23003228 0.00098470
v -0.98619318 0.22098710 0.00098470
v -0.98369515 0.21001928 0.01000716
v -0.98322451 0.21001928 0.03000198
v -0.98195738 0.20848989 0.05002987
v -0.98163158 0.21285956 0.07002470
v -0.98076266 0.21670485 0.09001952
v -0.98373133 0.28998387 0.16999884
v -0.98094368 0.27145657 0.16851163
v -0.98246425 0.24829742 0.13152945
v -0.98097992 0.25485188 0.15000401
v -0.98011100 0.25926524 0.16084419
v -0.98152292 0.22972640 0.10892373
v -0.97938693 0.22286606 0.11487260
v -0.98079890 0.23619348 0.12587802
v -0.98014724 0.21923923 0.10152069
v -0.97931457 0.36999220 0.23718809
v -0.98014724 0.33861810 0.22066343
v -0.97837329 0.34997916 0.23315607
v -0.98242801 0.30842382 0.19167919
v -0.98079890 0.31406066 0.20374219
v -0.97935075 0.32529065 0.21706106
v -0.98097992 0.28998387 0.18516847
v -0.97989380 0.30073321 0.19944578
v -0.97428226 0.34997916 0.24997815
v -0.96903276 0.34997916 0.26997298
v -0.96280581 0.34941113 0.29145503
v -0.96045262 0.35565972 0.30150205
v -0.95737529 0.34941113 0.30887204
v -0.95035189 0.34997916 0.32999054
v -0.94930196 0.36999220 0.33861640
v -0.85361654 0.43999398 0.33861640
v -0.84681034 0.43326470 0.33861640
v -0.83953345 0.42526823 0.33861640
v -0.83746988 0.42299604 0.33861640
v -0.91067302 0.42998749 0.00098470
v -0.98373133 0.21001928 0.00098470
v -0.98235559 0.20416395 0.00098470
v -0.98069024 0.19712882 0.00098470
v -0.98065406 0.19721621 0.01000716
v -0.98043686 0.19822122 0.03000198
v -0.98018342 0.19926995 0.04338695
v -0.97978520 0.20079932 0.05673888
v -0.97931457 0.20285305 0.07002470
v -0.97844565 0.20669834 0.09001952
v -0.98014724 0.27910346 0.18073986
v -0.97895253 0.26577601 0.17413001
v -0.97985756 0.24056314 0.13919689
v -0.97902489 0.24484539 0.15000401
v -0.97725093 0.25153095 0.16851163
v -0.97750437 0.21154866 0.10892373
v -0.97446328 0.21001928 0.13000919
v -0.97862667 0.22972640 0.13152945
v -0.97229111 0.19000629 0.11001436
v -0.97743195 0.33118969 0.22839697
v -0.97862667 0.30842382 0.21021985
v -0.97435468 0.30999687 0.22998333
v -0.97906113 0.28998387 0.19514936
v -0.97594762 0.28998387 0.20998850
v -0.97200143 0.32996619 0.24997815
v -0.96667957 0.32996619 0.26997298
v -0.96193695 0.32996619 0.28653070
v -0.95972854 0.34233230 0.29912248
v -0.95466006 0.32996619 0.30999571
v -0.94789004 0.32996619 0.32999054
v -0.94477654 0.32996619 0.33861640
v -0.94727457 0.35041612 0.33861640
v -0.83482701 0.41928184 0.33861640
v -0.90118772 0.41805834 0.00098470
v -0.97935075 0.19166675 0.00098470
v -0.97819221 0.18720971 0.01000716
v -0.97797501 0.18821472 0.03000198
v -0.97243589 0.17003697 0.05002987
v -0.97790259 0.19157936 0.05002987
v -0.97620106 0.19000629 0.07002470
v -0.97442710 0.19000629 0.09001952
v -0.97728717 0.27145657 0.18844035
v -0.97297895 0.24995789 0.18999368
v -0.97591144 0.23003228 0.15000401
v -0.97258073 0.23003228 0.16999884
v -0.97149462 0.21001928 0.15000401
v -0.96968448 0.19000629 0.13000919
v -0.96935862 0.17003697 0.09001952
v -0.96718645 0.17003697 0.11001436
v -0.96935862 0.30999687 0.24997815
v -0.97134984 0.28998387 0.22998333
v -0.97258073 0.26997089 0.20998850
v -0.96324027 0.30833641 0.27179071
v -0.96088707 0.31392956 0.28292832
v -0.95893204 0.32996619 0.29654464
v -0.95183623 0.30999687 0.30999571
v -0.94502997 0.30999687 0.32999054
v -0.94195271 0.30999687 0.33861640
v -0.82907069 0.41071731 0.33861640
v -0.82367641 0.40167212 0.33861640
v -0.89854491 0.41355759 0.00098470
v -0.97822845 0.18712232 0.00098470
v -0.97381163 0.17003697 0.01000716
v -0.97330481 0.17003697 0.03000198
v -0.97109640 0.17003697 0.07002470
v -0.96700537 0.15002398 0.05002987
v -0.96570206 0.15002398 0.07002470
v -0.96885180 0.23003228 0.18999368
v -0.96881557 0.24995789 0.20998850
v -0.96812773 0.21001928 0.16999884
v -0.96671581 0.19000629 0.15000401
v -0.96457982 0.17003697 0.13000919
v -0.96392810 0.15002398 0.09001952
v -0.96005440 0.13984269 0.10046311
v -0.96182835 0.14963073 0.10829579
v -0.96095943 0.15653476 0.13000919
v -0.96631753 0.28998387 0.24997815
v -0.96798289 0.26997089 0.22998333
v -0.95990956 0.30060214 0.27965644
v -0.96182835 0.28998387 0.26660198
v -0.95799077 0.30833641 0.28973648
v -0.94865030 0.28998387 0.30999571
v -0.94213372 0.29195023 0.33005664
v -0.94028735 0.29885426 0.33861640
v -0.82125074 0.39752096 0.33861640
v -0.89532280 0.40805185 0.00098470
v -0.97381163 0.17003697 0.00098470
v -0.97138602 0.16099180 0.00098470
v -0.96834493 0.15002398 0.01000716
v -0.96787429 0.15002398 0.03000198
v -0.96208179 0.13289496 0.05002987
v -0.96143007 0.13512348 0.07002470
v -0.96056122 0.13809484 0.09001952
v -0.96465218 0.23003228 0.20998850
v -0.96436256 0.21001928 0.18999368
v -0.96099567 0.21176714 0.20800555
v -0.96121287 0.23003228 0.22499289
v -0.96338511 0.24825372 0.23176800
v -0.96284199 0.18878278 0.17092423
v -0.96099567 0.19594900 0.18999368
v -0.96179211 0.17003697 0.14871509
v -0.96085083 0.17672254 0.16490926
v -0.96016300 0.15937504 0.14114681
v -0.95755637 0.12808834 0.09001952
v -0.95672369 0.13188994 0.10829579
v -0.95922172 0.14268297 0.11381502
v -0.95813560 0.14652827 0.13000919
v -0.96262479 0.26966500 0.25083745
v -0.96066982 0.27613208 0.26243776
v -0.96124911 0.25375947 0.24472332
v -0.95900446 0.28998387 0.27658287
v -0.95498592 0.28998387 0.28996783
v -0.95147419 0.26997089 0.28996783
v -0.94408870 0.26804823 0.31194562
v -0.94119245 0.27342290 0.32341373
v -0.93883920 0.28661925 0.33676565
v -0.93829614 0.28749317 0.33861640
v -0.81603748 0.38729599 0.33861640
v -0.88576514 0.38996148 0.00098470
v -0.89003712 0.39808902 0.00098470
v -0.96838117 0.15002398 0.00098470
v -0.96276963 0.13062274 0.01000716
v -0.96251619 0.13140927 0.03000198
v -0.95958376 0.12140278 0.03000198
v -0.95911306 0.12288845 0.05002987
v -0.95846140 0.12511697 0.07002470
v -0.96009058 0.21963251 0.22036599
v -0.95998198 0.19996908 0.20004067
v -0.95849764 0.20626138 0.21335953
v -0.95875108 0.23003228 0.23500684
v -0.95987332 0.24043204 0.23960069
v -0.95965612 0.18126698 0.17822812
v -0.95849764 0.18594250 0.18999368
v -0.95907688 0.16339511 0.15449873
v -0.95799077 0.17003697 0.17092423
v -0.95675987 0.15164074 0.14871509
v -0.95194483 0.11004168 0.09001952
v -0.95328432 0.13001099 0.13000919
v -0.94970024 0.11004168 0.11001436
v -0.95947510 0.26280466 0.25804219
v -0.95752013 0.26966500 0.26944420
v -0.95849764 0.24825372 0.25083745
v -0.95353776 0.24995789 0.26997298
v -0.94756424 0.24995789 0.28996783
v -0.94220614 0.24995789 0.30672383
v -0.93996149 0.26009548 0.31991050
v -0.93782550 0.26804823 0.33005664
v -0.93482065 0.26887846 0.33861640
v -0.81147587 0.37803233 0.33861640
v -0.88283265 0.38397506 0.00098470
v -0.96584690 0.14124098 0.00098470
v -0.96276963 0.13057904 0.00098470
v -0.96114045 0.12507328 0.00098470
v -0.95980096 0.12061623 0.01000716
v -0.95647025 0.11004168 0.01000716
v -0.95596337 0.11004168 0.03000198
v -0.95509452 0.11004168 0.05002987
v -0.95375502 0.11004168 0.07002470
v -0.95049667 0.19000629 0.22998333
v -0.95625305 0.21176714 0.22823173
v -0.95618057 0.19201632 0.20800555
v -0.95484108 0.23003228 0.24997815
v -0.95024323 0.21001928 0.24997815
v -0.95429802 0.17003697 0.18999368
v -0.94998986 0.17003697 0.20998850
v -0.95263267 0.15002398 0.16999884
v -0.95020705 0.13001099 0.15000401
v -0.94528341 0.09002869 0.09001952
v -0.94702119 0.11004168 0.13000919
v -0.94274914 0.08902366 0.10925423
v -0.94188029 0.09457313 0.13000919
v -0.94926578 0.23003228 0.26997298
v -0.94300258 0.22990119 0.29062882
v -0.94079417 0.23649935 0.30236131
v -0.93887544 0.24995789 0.31673777
v -0.93416899 0.24995789 0.32999054
v -0.93098307 0.24995789 0.33861640
v -0.80781931 0.37029803 0.33861640
v -0.88040704 0.37899366 0.00098470
v -0.95980096 0.12057254 0.00098470
v -0.95831662 0.11585332 0.00098470
v -0.95647025 0.11004168 0.00098470
v -0.95353776 0.10099651 0.00098470
v -0.94991744 0.09002869 0.01000716
v -0.94941056 0.09002869 0.03000198
v -0.94846928 0.09002869 0.05002987
v -0.94709355 0.09002869 0.07002470
v -0.94416112 0.16802694 0.23196629
v -0.94133723 0.17501839 0.24997815
v -0.94528341 0.19000629 0.24997815
v -0.94126481 0.19000629 0.26442072
v -0.94383526 0.20857729 0.27152631
v -0.94872272 0.15002398 0.18999368
v -0.94365424 0.14858200 0.21127743
v -0.94166309 0.15430623 0.22661230
v -0.94669533 0.13001099 0.16999884
v -0.94271296 0.12957403 0.18972927
v -0.94332844 0.10864340 0.15079720
v -0.94180787 0.11436764 0.16999884
v -0.94090283 0.07757518 0.09001952
v -0.94025111 0.07932304 0.10211557
v -0.94075799 0.09780666 0.14468308
v -0.93941844 0.08163896 0.11543444
v -0.93836856 0.08456662 0.13000919
v -0.94137347 0.21430154 0.28438249
v -0.93927366 0.22317193 0.29773441
v -0.93692040 0.22990119 0.30940080
v -0.92978835 0.23003228 0.32999054
v -0.92671108 0.23055664 0.33861640
v -0.64081335 0.01552615 0.33861640
v -0.87841582 0.37449291 0.00098470
v -0.94991744 0.09002869 0.00098470
v -0.94691253 0.08150786 0.00098470
v -0.94325602 0.07115179 0.00098470
v -0.94325602 0.07119550 0.01000716
v -0.94300258 0.07189463 0.03000198
v -0.94253194 0.07320553 0.05002987
v -0.94180787 0.07508448 0.07002470
v -0.93996149 0.16007417 0.23996422
v -0.93999773 0.17999978 0.25999212
v -0.93974429 0.20097411 0.27922681
v -0.94122863 0.13591000 0.20546076
v -0.93970811 0.14097881 0.21877962
v -0.93862200 0.14858200 0.23196629
v -0.94057697 0.11816923 0.18288808
v -0.93920124 0.12258258 0.19623999
v -0.93963569 0.10104020 0.15800194
v -0.93854958 0.10440484 0.16999884
v -0.93807894 0.06507799 0.07002470
v -0.93713766 0.06756869 0.09001952
v -0.93641359 0.07158877 0.10925423
v -0.93721008 0.09068413 0.15079720
v -0.93297428 0.07001568 0.13000919
v -0.92982459 0.07001568 0.15000401
v -0.93800652 0.20857729 0.29062882
v -0.93199676 0.21001928 0.30999571
v -0.92421305 0.20883948 0.33141166
v -0.92247528 0.21237889 0.33861640
v -0.85430443 0.01552615 0.33861640
v -0.72310352 0.01552615 0.00098470
v -0.87602639 0.36898714 0.00098470
v -0.94122863 0.06564604 0.00098470
v -0.93956327 0.06118900 0.01000716
v -0.93927366 0.06188814 0.03000198
v -0.93880302 0.06319903 0.05002987
v -0.93858576 0.16501188 0.24997815
v -0.93424141 0.15002398 0.24997815
v -0.93833238 0.19000629 0.27443466
v -0.92848504 0.15002398 0.26997298
v -0.93536371 0.17200333 0.26799005
v -0.93348110 0.19000629 0.28996783
v -0.93793416 0.12957403 0.21127743
v -0.93348110 0.13001099 0.22998333
v -0.92815924 0.13001099 0.24997815
v -0.93673944 0.11091562 0.18972927
v -0.93196058 0.11004168 0.20998850
v -0.93355352 0.09002869 0.16999884
v -0.92957115 0.09002869 0.18999368
v -0.93214160 0.05000269 0.07002470
v -0.93025899 0.05000269 0.09001952
v -0.92794204 0.05000269 0.11001436
v -0.92421305 0.04816744 0.13162860
v -0.92301834 0.05244969 0.15000401
v -0.92624044 0.07001568 0.16999884
v -0.92124438 0.05690674 0.16999884
v -0.92689210 0.19000629 0.30999571
v -0.92175126 0.19000629 0.32490093
v -0.91972387 0.20101780 0.33861640
v -0.85669386 0.01552615 0.33276668
v -0.85839540 0.02374110 0.33861640
v -0.85872120 0.02277976 0.33666649
v -0.92052031 0.01552615 0.00098470
v -0.93956327 0.06114531 0.00098470
v -0.93514645 0.05000269 0.00098470
v -0.93511027 0.05000269 0.01000716
v -0.93456721 0.05000269 0.03000198
v -0.93358970 0.05000269 0.05002987
v -0.92265630 0.13036056 0.26954335
v -0.92805064 0.17003697 0.28996783
v -0.92084616 0.13726461 0.28269696
v -0.92262012 0.15059203 0.28960428
v -0.92211330 0.17139158 0.30920252
v -0.92707312 0.11004168 0.22998333
v -0.92225808 0.11060974 0.24888754
v -0.92073756 0.11768857 0.26260298
v -0.92185986 0.09466052 0.22998333
v -0.92421305 0.08841191 0.21137658
v -0.91976005 0.08067763 0.21897791
v -0.92251152 0.06992829 0.18857256
v -0.92128062 0.07652646 0.20562600
v -0.92526293 0.03003339 0.05002987
v -0.92330796 0.02863510 0.06890102
v -0.92309076 0.03274257 0.09001952
v -0.92196846 0.03540806 0.11001436
v -0.92088234 0.03794245 0.12604326
v -0.91990489 0.04025838 0.13939519
v -0.91899979 0.04244320 0.15000401
v -0.92019451 0.05948482 0.18097122
v -0.91718960 0.04690024 0.16999884
v -0.92026687 0.17895107 0.32080281
v -0.91813087 0.19000629 0.33488184
v -0.91671896 0.19000629 0.33861640
v -0.85966253 0.01552615 0.32513228
v -0.86281222 0.03352910 0.33861640
v -0.86436892 0.02968381 0.32999054
v -0.86125547 0.01740509 0.32334763
v -0.92052031 0.01552615 0.00247191
v -0.92128062 0.01718661 0.00098470
v -0.93141752 0.04100122 0.00098470
v -0.92681968 0.03003339 0.01000716
v -0.92627668 0.03003339 0.03000198
v -0.91878259 0.12389348 0.27592188
v -0.92066514 0.15767087 0.30203080
v -0.91646552 0.13036056 0.28960428
v -0.91871017 0.14434344 0.29601586
v -0.91842055 0.16562364 0.31538275
v -0.92037553 0.09885538 0.24148449
v -0.91856533 0.10431744 0.25480336
v -0.91635692 0.11060974 0.26954335
v -0.91834813 0.08465402 0.22998333
v -0.91747922 0.06992829 0.21137658
v -0.91291761 0.07001568 0.22998333
v -0.91878259 0.06319903 0.19432314
v -0.92048413 0.01893447 0.05002987
v -0.92008591 0.01976471 0.06146493
v -0.91954285 0.02103192 0.07481685
v -0.91878259 0.02273607 0.09001952
v -0.91762406 0.02544525 0.11001436
v -0.91693616 0.03077623 0.13162860
v -0.91364169 0.03003339 0.15000401
v -0.91002136 0.03003339 0.16999884
v -0.91541564 0.05170685 0.18857256
v -0.90488046 0.02828553 0.19141480
v -0.91537946 0.17139158 0.32847026
v -0.91139710 0.17073613 0.33861640
v -0.86176229 0.01552615 0.31941473
v -0.87012529 0.05043966 0.33861640
v -0.87436104 0.05140097 0.32870162
v -0.87182683 0.03003339 0.30999571
v -0.87816238 0.04427844 0.30999571
v -0.92048413 0.01552615 0.01000716
v -0.92124438 0.01723032 0.01000716
v -0.92435789 0.02422175 0.00098470
v -0.92685592 0.03003339 0.00098470
v -0.92099094 0.01784207 0.03000198
v -0.90984035 0.11004168 0.28996783
v -0.91613972 0.15059203 0.30920252
v -0.90962315 0.13001099 0.30999571
v -0.90864563 0.15002398 0.32999054
v -0.91570526 0.09133959 0.24888754
v -0.90918869 0.09002869 0.26997298
v -0.90759575 0.07001568 0.24997815
v -0.90994895 0.05000269 0.20998850
v -0.90433741 0.04882288 0.23071042
v -0.90187562 0.05542105 0.24997815
v -0.91965145 0.01552615 0.03515768
v -0.91889119 0.01552615 0.05002987
v -0.91780508 0.01552615 0.06543084
v -0.91729820 0.01552615 0.07128057
v -0.91548806 0.01552615 0.09001952
v -0.91313481 0.01552615 0.11001436
v -0.91023856 0.01552615 0.13043883
v -0.90944207 0.01552615 0.13552842
v -0.90708888 0.01552615 0.14990486
v -0.90346855 0.01552615 0.16999884
v -0.90303409 0.01552615 0.17224620
v -0.90209281 0.01552615 0.17703834
v -0.90122396 0.01740509 0.18569726
v -0.90292549 0.03335433 0.20998850
v -0.89977580 0.02046385 0.19904919
v -0.90792155 0.15863219 0.33861640
v -0.86541885 0.01552615 0.30897117
v -0.87696773 0.06704433 0.33861640
v -0.87790900 0.06534016 0.33448523
v -0.88040704 0.05896047 0.32116637
v -0.87761939 0.02911577 0.29195079
v -0.87997258 0.04008359 0.29991567
v -0.91990489 0.01552615 0.03000198
v -0.90107912 0.09693274 0.30318755
v -0.90325135 0.11017278 0.30989656
v -0.90314269 0.09015977 0.28963733
v -0.90285307 0.13075382 0.32962698
v -0.90100670 0.11694573 0.32275274
v -0.90122396 0.13608479 0.33861640
v -0.90564072 0.15085422 0.33861640
v -0.90245485 0.07062744 0.26865101
v -0.90086192 0.07770628 0.28273004
v -0.90031886 0.05922265 0.26111579
v -0.90115154 0.03737441 0.22453021
v -0.89941376 0.04135078 0.23784907
v -0.89771223 0.04541455 0.24997815
v -0.89999300 0.01552615 0.18721753
v -0.89825529 0.01552615 0.19528157
v -0.89847249 0.02334782 0.20998850
v -0.89481592 0.01552615 0.20998850
v -0.87171823 0.01552615 0.29056272
v -0.88091385 0.07705082 0.33861640
v -0.88239819 0.07119550 0.32870162
v -0.88239819 0.05428495 0.30999571
v -0.88869756 0.07001568 0.30999571
v -0.87913990 0.02186215 0.27727687
v -0.88214481 0.03518957 0.28656375
v -0.88594615 0.04803635 0.29195079
v -0.89876211 0.10361829 0.31650642
v -0.89868969 0.08360530 0.29604888
v -0.89630032 0.09015977 0.30989656
v -0.89615548 0.11017278 0.32962698
v -0.89850867 0.12459262 0.33607161
v -0.89792943 0.12581612 0.33861640
v -0.89829147 0.06437884 0.27443466
v -0.89586586 0.07062744 0.28963733
v -0.89481592 0.05153207 0.26865101
v -0.89644510 0.03042665 0.23071042
v -0.89097840 0.03003339 0.24997815
v -0.88453418 0.02911577 0.27036959
v -0.88934922 0.01552615 0.23143750
v -0.87732971 0.01552615 0.27344316
v -0.88587373 0.09072784 0.33861640
v -0.88895100 0.09002869 0.32999054
v -0.88120347 0.01749249 0.26395804
v -0.89267993 0.11012907 0.33861640
v -0.88866138 0.09863690 0.33861640
v -0.88428080 0.01552615 0.24997815
v -0.88210857 0.01552615 0.25761256
v -0.87971914 0.01552615 0.26570964
f 1 2 3
f 1 3 9
f 1 9 4
f 1 4 10
f 1 10 20
f 1 20 36
f 1 36 58
f 1 58 86
f 1 86 125
f 1 125 163
f 1 163 194
f 1 194 219
f 1 219 246
f 1 246 282
f 1 282 315
f 1 315 342
f 1 342 367
f 1 367 401
f 1 401 400
f 1 400 431
f 1 431 460
f 1 460 492
f 1 492 522
f 1 522 521
f 1 521 553
f 1 553 589
f 1 589 624
f 1 624 625
f 1 625 590
f 1 590 555
f 1 555 554
f 1 554 523
f 1 523 495
f 1 495 494
f 1 494 493
f 1 493 464
f 1 464 463
f 1 463 462
f 1 462 461
f 1 461 434
f 1 434 433
f 1 433 432
f 1 432 402
f 1 402 369
f 1 369 368
f 1 368 343
f 1 343 316
f 1 316 285
f 1 285 284
f 1 284 283
f 1 283 248
f 1 248 247
f 1 247 220
f 1 220 196
f 1 196 195
f 1 195 165
f 1 165 164
f 1 164 127
f 1 127 126
f 1 126 88
f 1 88 87
f 1 87 59
f 1 59 38
f 1 38 37
f 1 37 21
f 1 21 11
f 1 11 5
f 1 5 2
f 2 5 6
f 2 6 3
f 3 7 8
f 3 8 9
f 3 6 7
f 4 9 18
f 4 18 10
f 5 11 6
f 6 11 12
f 6 12 13
f 6 13 7
f 7 14 15
f 7 15 8
f 7 13 14
f 8 15 16
f 8 16 17
f 8 17 9
f 9 17 18
f 10 18 19
f 10 19 20
f 11 21 22
f 11 22 12
f 12 23 13
f 12 22 23
f 13 23 42
f 13 42 24
f 13 24 14
f 14 25 27
f 14 27 15
f 14 24 26
f 14 26 25
f 15 27 28
f 15 28 29
f 15 29 16
f 16 29 30
f 16 30 31
f 16 31 17
f 17 31 32
f 17 32 18
f 18 32 19
f 19 32 33
f 19 33 34
f 19 34 35
f 19 35 36
f 19 36 20
f 21 37 22
f 22 37 38
f 22 38 39
f 22 39 40
f 22 40 41
f 22 41 23
f 23 41 42
f 24 42 44
f 24 44 26
f 25 26 46
f 25 46 43
f 25 43 27
f 26 44 45
f 26 45 46
f 27 47 48
f 27 48 49
f 27 49 28
f 27 43 47
f 28 49 50
f 28 50 51
f 28 51 29
f 29 51 30
f 30 51 31
f 31 51 52
f 31 52 53
f 31 53 32
f 32 53 54
f 32 54 33
f 33 54 55
f 33 55 56
f 33 56 34
f 34 56 57
f 34 57 35
f 35 57 36
f 36 57 58
f 38 59 39
f 39 59 60
f 39 60 40
f 40 61 62
f 40 62 63
f 40 63 41
f 40 60 64
f 40 64 61
f 41 63 42
f 42 63 68
f 42 68 44
f 43 46 65
f 43 65 66
f 43 66 67
f 43 67 47
f 44 68 70
f 44 70 45
f 45 69 65
f 45 65 46
f 45 70 71
f 45 71 69
f 47 67 72
f 47 72 48
f 48 73 74
f 48 74 75
f 48 75 76
f 48 76 49
f 48 72 77
f 48 77 78
f 48 78 79
f 48 79 73
f 49 76 50
f 50 76 80
f 50 80 51
f 51 80 81
f 51 81 82
f 51 82 83
f 51 83 52
f 52 83 53
f 53 83 54
f 54 83 55
f 55 83 84
f 55 84 85
f 55 85 56
f 56 85 57
f 57 85 86
f 57 86 58
f 59 87 60
f 60 87 88
f 60 88 89
f 60 89 90
f 60 90 64
f 61 91 62
f 61 64 92
f 61 92 93
f 61 93 94
f 61 94 91
f 62 91 95
f 62 95 68
f 62 68 63
f 64 90 92
f 65 69 96
f 65 96 97
f 65 97 98
f 65 98 66
f 66 98 99
f 66 99 100
f 66 100 67
f 67 101 78
f 67 78 77
f 67 77 72
f 67 100 102
f 67 102 103
f 67 103 104
f 67 104 79
f 67 79 101
f 68 95 105
f 68 105 106
f 68 106 70
f 69 71 107
f 69 107 96
f 70 106 108
f 70 108 71
f 71 108 109
f 71 109 107
f 73 79 104
f 73 104 110
f 73 110 111
f 73 111 112
f 73 112 113
f 73 113 114
f 73 114 74
f 74 114 115
f 74 115 116
f 74 116 75
f 75 116 117
f 75 117 76
f 76 117 80
f 78 101 79
f 80 117 118
f 80 118 116
f 80 116 81
f 81 116 119
f 81 119 82
f 82 119 120
f 82 120 83
f 83 120 85
f 83 85 84
f 85 121 122
f 85 122 86
f 85 120 121
f 86 122 123
f 86 123 124
f 86 124 125
f 88 126 89
f 89 126 127
f 89 127 128
f 89 128 90
f 90 128 129
f 90 129 92
f 91 105 95
f 91 94 105
f 92 129 130
f 92 130 93
f 93 130 131
f 93 131 94
f 94 132 105
f 94 131 133
f 94 133 132
f 96 134 135
f 96 135 97
f 96 107 134
f 97 135 98
f 98 102 136
f 98 136 100
f 98 100 99
f 98 135 137
f 98 137 138
f 98 138 102
f 100 136 102
f 102 138 103
f 103 138 139
f 103 139 177
f 103 177 140
f 103 140 110
f 103 110 104
f 105 132 141
f 105 141 106
f 106 141 108
f 107 109 142
f 107 142 134
f 108 141 143
f 108 143 109
f 109 143 144
f 109 144 142
f 110 140 145
f 110 145 146
f 110 146 111
f 111 146 145
f 111 145 147
f 111 147 148
f 111 148 112
f 112 148 149
f 112 149 150
f 112 150 151
f 112 151 152
f 112 152 153
f 112 153 154
f 112 154 155
f 112 155 156
f 112 156 113
f 113 156 157
f 113 157 114
f 114 157 158
f 114 158 116
f 114 116 115
f 116 158 159
f 116 159 119
f 116 118 117
f 119 160 161
f 119 161 120
f 119 159 160
f 120 161 121
f 121 161 122
f 122 124 123
f 122 161 160
f 122 160 192
f 122 192 189
f 122 189 155
f 122 155 154
f 122 154 153
f 122 153 188
f 122 188 217
f 122 217 244
f 122 244 243
f 122 243 277
f 122 277 313
f 122 313 312
f 122 312 339
f 122 339 365
f 122 365 398
f 122 398 429
f 122 429 458
f 122 458 490
f 122 490 519
f 122 519 549
f 122 549 583
f 122 583 616
f 122 616 652
f 122 652 666
f 122 666 665
f 122 665 690
f 122 690 702
f 122 702 703
f 122 703 699
f 122 699 678
f 122 678 654
f 122 654 618
f 122 618 585
f 122 585 551
f 122 551 520
f 122 520 491
f 122 491 459
f 122 459 430
f 122 430 399
f 122 399 366
f 122 366 341
f 122 341 340
f 122 340 314
f 122 314 281
f 122 281 280
f 122 280 279
f 122 279 278
f 122 278 245
f 122 245 218
f 122 218 193
f 122 193 162
f 122 162 124
f 124 162 163
f 124 163 125
f 127 164 128
f 128 164 165
f 128 165 166
f 128 166 167
f 128 167 129
f 129 167 168
f 129 168 130
f 130 168 131
f 131 168 169
f 131 169 172
f 131 172 133
f 132 133 170
f 132 170 141
f 133 171 170
f 133 172 171
f 134 173 135
f 134 142 174
f 134 174 173
f 135 173 137
f 137 173 175
f 137 175 138
f 138 175 176
f 138 176 139
f 139 176 177
f 140 178 145
f 140 177 178
f 141 170 143
f 142 144 174
f 143 170 144
f 144 179 174
f 144 170 180
f 144 180 209
f 144 209 179
f 145 178 181
f 145 181 182
f 145 182 183
f 145 183 148
f 145 148 147
f 148 183 149
f 149 183 184
f 149 184 150
f 150 184 185
f 150 185 151
f 151 185 186
f 151 186 152
f 152 186 187
f 152 187 188
f 152 188 153
f 155 189 156
f 156 189 190
f 156 190 191
f 156 191 157
f 157 191 158
f 158 191 159
f 159 191 160
f 160 191 192
f 162 193 163
f 163 193 194
f 165 195 166
f 166 195 196
f 166 196 197
f 166 197 198
f 166 198 167
f 167 198 199
f 167 199 168
f 168 199 200
f 168 200 169
f 169 200 172
f 170 171 180
f 171 201 180
f 171 172 202
f 171 202 226
f 171 226 201
f 172 200 203
f 172 203 228
f 172 228 202
f 173 174 175
f 174 179 210
f 174 210 204
f 174 204 175
f 175 204 206
f 175 206 176
f 176 205 177
f 176 206 205
f 177 205 207
f 177 207 208
f 177 208 178
f 178 208 181
f 179 209 236
f 179 236 210
f 180 201 225
f 180 225 209
f 181 208 182
f 182 208 211
f 182 211 183
f 183 211 212
f 183 212 184
f 184 212 213
f 184 213 214
f 184 214 185
f 185 214 215
f 185 215 186
f 186 215 216
f 186 216 187
f 187 216 217
f 187 217 188
f 189 192 190
f 190 192 191
f 193 218 194
f 194 218 219
f 196 220 197
f 197 220 221
f 197 221 222
f 197 222 198
f 198 222 223
f 198 223 199
f 199 223 224
f 199 224 200
f 200 224 229
f 200 229 203
f 201 226 227
f 201 227 225
f 202 228 226
f 203 229 228
f 204 210 233
f 204 233 206
f 205 230 207
f 205 206 231
f 205 231 232
f 205 232 230
f 206 233 234
f 206 234 231
f 207 230 235
f 207 235 208
f 208 235 211
f 209 225 254
f 209 254 236
f 210 236 233
f 211 235 237
f 211 237 212
f 212 237 238
f 212 238 213
f 213 238 239
f 213 239 240
f 213 240 214
f 214 240 241
f 214 241 215
f 215 241 242
f 215 242 216
f 216 242 243
f 216 243 244
f 216 244 217
f 218 245 219
f 219 245 246
f 220 247 221
f 221 247 248
f 221 248 249
f 221 249 250
f 221 250 222
f 222 250 223
f 223 250 251
f 223 251 252
f 223 252 224
f 224 252 253
f 224 253 229
f 225 227 255
f 225 255 254
f 226 228 256
f 226 256 257
f 226 257 227
f 227 257 258
f 227 258 255
f 228 229 259
f 228 259 260
f 228 260 261
f 228 261 256
f 229 253 262
f 229 262 259
f 230 263 235
f 230 232 263
f 231 234 264
f 231 264 232
f 232 264 265
f 232 265 263
f 233 236 266
f 233 266 267
f 233 267 234
f 234 267 268
f 234 268 264
f 235 263 237
f 236 254 269
f 236 269 270
f 236 270 266
f 237 263 271
f 237 271 238
f 238 271 272
f 238 272 239
f 239 272 273
f 239 273 274
f 239 274 240
f 240 274 241
f 241 274 275
f 241 275 276
f 241 276 242
f 242 277 243
f 242 276 277
f 245 278 246
f 246 278 279
f 246 279 280
f 246 280 281
f 246 281 282
f 248 283 249
f 249 283 284
f 249 284 285
f 249 285 286
f 249 286 287
f 249 287 250
f 250 287 288
f 250 288 251
f 251 288 289
f 251 289 252
f 252 289 290
f 252 290 291
f 252 291 253
f 253 291 262
f 254 255 292
f 254 292 269
f 255 258 293
f 255 293 292
f 256 261 294
f 256 294 257
f 257 294 295
f 257 295 258
f 258 295 296
f 258 296 293
f 259 262 260
f 260 262 297
f 260 297 298
f 260 298 299
f 260 299 261
f 261 299 294
f 262 291 300
f 262 300 297
f 263 265 271
f 264 268 301
f 264 301 271
f 264 271 265
f 266 270 267
f 267 270 302
f 267 302 268
f 268 302 303
f 268 303 301
f 269 304 270
f 269 292 304
f 270 304 305
f 270 305 302
f 271 301 306
f 271 306 272
f 272 306 307
f 272 307 308
f 272 308 273
f 273 308 309
f 273 309 274
f 274 309 275
f 275 309 310
f 275 310 276
f 276 310 311
f 276 311 312
f 276 312 313
f 276 313 277
f 281 314 315
f 281 315 282
f 285 316 286
f 286 316 317
f 286 317 318
f 286 318 287
f 287 318 288
f 288 318 319
f 288 319 320
f 288 320 289
f 289 320 321
f 289 321 290
f 290 321 322
f 290 322 291
f 291 322 300
f 292 293 323
f 292 323 304
f 293 296 324
f 293 324 323
f 294 299 325
f 294 325 295
f 295 325 326
f 295 326 296
f 296 326 324
f 297 300 298
f 298 327 299
f 298 300 328
f 298 328 352
f 298 352 327
f 299 327 325
f 300 322 329
f 300 329 330
f 300 330 353
f 300 353 328
f 301 303 306
f 302 305 303
f 303 331 306
f 303 305 332
f 303 332 331
f 304 323 333
f 304 333 305
f 305 333 359
f 305 359 332
f 306 331 307
f 307 331 334
f 307 334 335
f 307 335 308
f 308 335 336
f 308 336 309
f 309 336 310
f 310 336 337
f 310 337 311
f 311 337 338
f 311 338 339
f 311 339 312
f 314 340 315
f 315 340 341
f 315 341 342
f 316 343 317
f 317 343 344
f 317 344 318
f 318 344 345
f 318 345 319
f 319 346 321
f 319 321 320
f 319 345 371
f 319 371 347
f 319 347 348
f 319 348 346
f 321 346 329
f 321 329 322
f 323 324 333
f 324 326 349
f 324 349 350
f 324 350 333
f 325 327 326
f 326 327 351
f 326 351 349
f 327 352 351
f 328 353 352
f 329 346 348
f 329 348 354
f 329 354 355
f 329 355 330
f 330 355 356
f 330 356 357
f 330 357 353
f 331 332 358
f 331 358 334
f 332 359 358
f 333 350 359
f 334 360 335
f 334 358 361
f 334 361 360
f 335 360 362
f 335 362 336
f 336 362 337
f 337 362 363
f 337 363 338
f 338 363 364
f 338 364 365
f 338 365 339
f 341 366 367
f 341 367 342
f 343 368 344
f 344 368 369
f 344 369 370
f 344 370 371
f 344 371 345
f 347 371 372
f 347 372 373
f 347 373 348
f 348 373 374
f 348 374 354
f 349 375 350
f 349 351 376
f 349 376 377
f 349 377 375
f 350 375 378
f 350 378 379
f 350 379 359
f 351 352 380
f 351 380 381
f 351 381 376
f 352 353 382
f 352 382 383
f 352 383 380
f 353 357 384
f 353 384 382
f 354 374 355
f 355 374 385
f 355 385 386
f 355 386 387
f 355 387 356
f 356 387 357
f 357 387 388
f 357 388 384
f 358 359 389
f 358 389 390
f 358 390 361
f 359 379 391
f 359 391 389
f 360 361 392
f 360 392 393
f 360 393 362
f 361 390 392
f 362 393 363
f 363 393 394
f 363 394 395
f 363 395 396
f 363 396 364
f 364 396 397
f 364 397 365
f 365 397 398
f 366 399 400
f 366 400 401
f 366 401 367
f 369 402 370
f 370 402 403
f 370 403 371
f 371 403 404
f 371 404 372
f 372 404 405
f 372 405 406
f 372 406 407
f 372 407 373
f 373 407 374
f 374 407 385
f 375 377 408
f 375 408 378
f 376 381 409
f 376 409 377
f 377 409 410
f 377 410 408
f 378 411 412
f 378 412 379
f 378 408 411
f 379 412 391
f 380 383 413
f 380 413 381
f 381 413 414
f 381 414 409
f 382 384 415
f 382 415 383
f 383 415 416
f 383 416 413
f 384 388 417
f 384 417 415
f 385 407 418
f 385 418 386
f 386 419 387
f 386 418 420
f 386 420 419
f 387 419 388
f 388 419 417
f 389 391 421
f 389 421 390
f 390 421 422
f 390 422 392
f 391 412 423
f 391 423 421
f 392 422 394
f 392 394 393
f 394 422 424
f 394 424 425
f 394 425 395
f 395 425 426
f 395 426 427
f 395 427 396
f 396 427 428
f 396 428 397
f 397 428 429
f 397 429 398
f 399 430 400
f 400 430 431
f 402 432 403
f 403 432 433
f 403 433 434
f 403 434 435
f 403 435 405
f 403 405 404
f 405 435 436
f 405 436 437
f 405 437 438
f 405 438 406
f 406 438 439
f 406 439 407
f 407 439 418
f 408 410 440
f 408 440 441
f 408 441 411
f 409 414 442
f 409 442 410
f 410 442 440
f 411 443 412
f 411 441 444
f 411 444 443
f 412 443 423
f 413 416 445
f 413 445 414
f 414 445 446
f 414 446 442
f 415 417 447
f 415 447 416
f 416 447 445
f 417 419 448
f 417 448 447
f 418 439 468
f 418 468 449
f 418 449 420
f 419 420 450
f 419 450 448
f 420 449 451
f 420 451 452
f 420 452 450
f 421 423 424
f 421 424 422
f 423 443 424
f 424 443 453
f 424 453 425
f 425 453 454
f 425 454 455
f 425 455 426
f 426 455 456
f 426 456 427
f 427 456 457
f 427 457 458
f 427 458 428
f 428 458 429
f 430 459 460
f 430 460 431
f 434 461 435
f 435 461 462
f 435 462 436
f 436 462 463
f 436 463 464
f 436 464 465
f 436 465 466
f 436 466 437
f 437 466 438
f 438 466 467
f 438 467 439
f 439 467 468
f 440 446 469
f 440 469 470
f 440 470 471
f 440 471 444
f 440 444 441
f 440 442 446
f 443 444 453
f 444 471 472
f 444 472 473
f 444 473 453
f 445 447 474
f 445 474 446
f 446 474 475
f 446 475 476
f 446 476 469
f 447 448 477
f 447 477 478
f 447 478 474
f 448 450 479
f 448 479 480
f 448 480 477
f 449 468 481
f 449 481 482
f 449 482 451
f 450 452 483
f 450 483 479
f 451 482 484
f 451 484 452
f 452 484 485
f 452 485 483
f 453 473 486
f 453 486 454
f 454 486 487
f 454 487 455
f 455 487 488
f 455 488 456
f 456 488 489
f 456 489 457
f 457 489 458
f 458 489 490
f 459 491 460
f 460 491 492
f 464 493 465
f 465 493 494
f 465 494 495
f 465 495 496
f 465 496 497
f 465 497 466
f 466 497 498
f 466 498 467
f 467 498 468
f 468 498 499
f 468 499 481
f 469 476 500
f 469 500 470
f 470 501 471
f 470 500 501
f 471 501 472
f 472 501 502
f 472 502 473
f 473 502 486
f 474 478 503
f 474 503 475
f 475 503 504
f 475 504 476
f 476 504 505
f 476 505 500
f 477 480 506
f 477 506 478
f 478 506 507
f 478 507 503
f 479 483 508
f 479 508 480
f 480 508 509
f 480 509 506
f 481 499 510
f 481 510 511
f 481 511 482
f 482 511 512
f 482 512 484
f 483 485 513
f 483 513 508
f 484 512 514
f 484 514 485
f 485 514 515
f 485 515 513
f 486 502 516
f 486 516 487
f 487 516 517
f 487 517 488
f 488 517 489
f 489 517 518
f 489 518 519
f 489 519 490
f 491 520 550
f 491 550 584
f 491 584 617
f 491 617 653
f 491 653 677
f 491 677 698
f 491 698 706
f 491 706 705
f 491 705 704
f 491 704 697
f 491 697 676
f 491 676 674
f 491 674 673
f 491 673 648
f 491 648 647
f 491 647 646
f 491 646 645
f 491 645 644
f 491 644 643
f 491 643 642
f 491 642 641
f 491 641 640
f 491 640 639
f 491 639 638
f 491 638 637
f 491 637 659
f 491 659 622
f 491 622 588
f 491 588 553
f 491 553 521
f 491 521 522
f 491 522 492
f 495 523 496
f 496 523 524
f 496 524 497
f 497 524 525
f 497 525 526
f 497 526 498
f 498 526 510
f 498 510 499
f 500 527 501
f 500 505 528
f 500 528 527
f 501 529 502
f 501 527 530
f 501 530 531
f 501 531 529
f 502 529 532
f 502 532 516
f 503 507 533
f 503 533 504
f 504 533 534
f 504 534 505
f 505 534 535
f 505 535 528
f 506 509 536
f 506 536 507
f 507 536 537
f 507 537 533
f 508 513 538
f 508 538 509
f 509 538 539
f 509 539 536
f 510 526 540
f 510 540 541
f 510 541 511
f 511 541 542
f 511 542 512
f 512 542 514
f 513 515 538
f 514 542 543
f 514 543 544
f 514 544 515
f 515 545 538
f 515 544 546
f 515 546 545
f 516 532 547
f 516 547 517
f 517 547 548
f 517 548 518
f 518 548 549
f 518 549 519
f 520 551 552
f 520 552 550
f 523 554 524
f 524 554 555
f 524 555 556
f 524 556 557
f 524 557 525
f 525 557 558
f 525 558 526
f 526 558 540
f 527 528 530
f 528 535 559
f 528 559 530
f 529 531 560
f 529 560 532
f 530 559 561
f 530 561 562
f 530 562 531
f 531 562 560
f 532 560 563
f 532 563 547
f 533 537 564
f 533 564 534
f 534 564 565
f 534 565 535
f 535 565 566
f 535 566 559
f 536 539 537
f 537 567 564
f 537 539 568
f 537 568 569
f 537 569 567
f 538 545 570
f 538 570 539
f 539 570 571
f 539 571 568
f 540 558 572
f 540 572 573
f 540 573 574
f 540 574 541
f 541 574 575
f 541 575 542
f 542 575 576
f 542 576 543
f 543 576 577
f 543 577 544
f 544 577 578
f 544 578 546
f 545 546 579
f 545 579 570
f 546 578 580
f 546 580 579
f 547 563 581
f 547 581 548
f 548 582 549
f 548 581 582
f 549 582 583
f 550 552 584
f 551 585 552
f 552 585 586
f 552 586 587
f 552 587 584
f 553 588 589
f 555 590 556
f 556 590 591
f 556 591 592
f 556 592 557
f 557 592 558
f 558 592 572
f 559 566 593
f 559 593 561
f 560 562 594
f 560 594 563
f 561 593 595
f 561 595 596
f 561 596 562
f 562 596 594
f 563 594 597
f 563 597 581
f 564 567 598
f 564 598 565
f 565 598 599
f 565 599 566
f 566 599 600
f 566 600 593
f 567 569 601
f 567 601 598
f 568 571 569
f 569 571 602
f 569 602 603
f 569 603 601
f 570 579 604
f 570 604 571
f 571 604 602
f 572 592 605
f 572 605 606
f 572 606 573
f 573 606 607
f 573 607 574
f 574 607 608
f 574 608 575
f 575 608 609
f 575 609 576
f 576 609 610
f 576 610 577
f 577 610 611
f 577 611 578
f 578 611 612
f 578 612 580
f 579 580 613
f 579 613 604
f 580 612 614
f 580 614 613
f 581 597 615
f 581 615 582
f 582 615 616
f 582 616 583
f 584 587 617
f 585 618 619
f 585 619 586
f 586 620 587
f 586 619 621
f 586 621 620
f 587 620 617
f 588 622 589
f 589 623 624
f 589 622 623
f 590 625 591
f 591 625 624
f 591 624 623
f 591 623 626
f 591 626 592
f 592 626 605
f 593 600 627
f 593 627 595
f 594 596 628
f 594 628 597
f 595 629 596
f 595 627 629
f 596 629 628
f 597 628 630
f 597 630 615
f 598 601 631
f 598 631 599
f 599 631 632
f 599 632 600
f 600 632 627
f 601 603 633
f 601 633 631
f 602 604 634
f 602 634 603
f 603 634 635
f 603 635 636
f 603 636 633
f 604 613 634
f 605 626 637
f 605 637 638
f 605 638 606
f 606 638 639
f 606 639 607
f 607 639 640
f 607 640 641
f 607 641 608
f 608 641 642
f 608 642 609
f 609 642 643
f 609 643 610
f 610 643 644
f 610 644 611
f 611 644 645
f 611 645 646
f 611 646 612
f 612 646 647
f 612 647 648
f 612 648 649
f 612 649 614
f 613 614 650
f 613 650 634
f 614 649 651
f 614 651 650
f 615 630 652
f 615 652 616
f 617 620 653
f 618 654 655
f 618 655 619
f 619 655 656
f 619 656 621
f 620 657 653
f 620 621 658
f 620 658 657
f 621 656 658
f 622 659 626
f 622 626 623
f 626 659 637
f 627 660 661
f 627 661 629
f 627 632 662
f 627 662 660
f 628 629 630
f 629 663 630
f 629 661 664
f 629 664 663
f 630 663 665
f 630 665 666
f 630 666 652
f 631 633 632
f 632 633 667
f 632 667 668
f 632 668 662
f 633 636 669
f 633 669 667
f 634 650 670
f 634 670 635
f 635 670 671
f 635 671 636
f 636 671 672
f 636 672 669
f 648 673 649
f 649 673 674
f 649 674 651
f 650 651 675
f 650 675 670
f 651 674 676
f 651 676 675
f 653 657 677
f 654 678 655
f 655 678 679
f 655 679 656
f 656 680 658
f 656 679 681
f 656 681 680
f 657 682 677
f 657 658 683
f 657 683 682
f 658 680 684
f 658 684 683
f 660 685 661
f 660 662 686
f 660 686 687
f 660 687 685
f 661 685 664
f 662 668 686
f 663 664 665
f 664 685 688
f 664 688 689
f 664 689 665
f 665 689 690
f 667 669 691
f 667 691 668
f 668 691 692
f 668 692 686
f 669 672 693
f 669 693 691
f 670 675 694
f 670 694 671
f 671 694 695
f 671 695 672
f 672 695 696
f 672 696 693
f 675 676 697
f 675 697 694
f 677 682 698
f 678 699 700
f 678 700 679
f 679 700 687
f 679 687 681
f 680 681 692
f 680 692 684
f 681 687 686
f 681 686 692
f 682 683 696
f 682 696 701
f 682 701 698
f 683 684 693
f 683 693 696
f 684 692 691
f 684 691 693
f 685 687 700
f 685 700 688
f 688 702 689
f 688 700 703
f 688 703 702
f 689 702 690
f 694 697 704
f 694 704 695
f 695 704 705
f 695 705 701
f 695 701 696
f 698 701 706
f 699 703 700
f 701 705 706
