v -0.00999232 -0.10791023 -0.90996730
v -0.02974692 -0.10353655 -0.90996730
v -0.02762290 -0.10271782 -0.92992258
v -0.00999232 -0.10627279 -0.92992258
v 0.00999555 -0.10625125 -0.92992258
v 0.00999555 -0.10786714 -0.90996730
v -0.01103592 -0.06887023 0.12971389
v -0.03975313 -0.09985230 -0.90996730
v -0.03762912 -0.09881813 -0.92992258
v -0.02368180 -0.10127429 -0.94330043
v -0.00999232 -0.10235155 -0.94608748
v 0.00999555 -0.10233001 -0.94608748
v 0.02358681 -0.10125275 -0.94330043
v 0.02745424 -0.10267473 -0.92992258
v 0.02955370 -0.10351500 -0.90996730
v 0.01016743 -0.06757752 0.12971389
v -0.01246011 -0.06725434 0.12971389
v -0.04536398 -0.06563845 -0.43003726
v -0.04709512 -0.08985531 -0.90996730
v -0.04645668 -0.08882114 -0.92992258
v -0.04581825 -0.06632789 -0.44999254
v -0.04440633 -0.08558935 -0.94998932
v -0.04195081 -0.08224984 -0.96292126
v -0.03021347 -0.09562944 -0.94998932
v -0.00999232 -0.09832259 -0.95612085
v 0.00999555 -0.09832259 -0.95612085
v 0.03746045 -0.09871040 -0.92992258
v 0.03015530 -0.09554326 -0.94998932
v 0.03954764 -0.09974458 -0.90996730
v 0.04531809 -0.06557381 -0.43003726
v 0.01110053 -0.06658643 0.12971389
v -0.02031775 -0.05042750 0.12971389
v -0.06114065 0.01595342 0.06237876
v -0.04155793 -0.02134141 0.06505436
v -0.05398283 -0.04999659 -0.41008198
v -0.05495276 -0.04999659 -0.43003726
v -0.05740827 -0.06805152 -0.89112681
v -0.05759243 -0.06805152 -0.90862954
v -0.05581218 -0.06999059 -0.92992258
v -0.05557891 -0.04999659 -0.44999254
v -0.05231308 -0.06999059 -0.94998932
v -0.04505704 -0.06973204 -0.96972162
v -0.04185260 -0.06288065 -0.98209614
v -0.02999247 -0.07710052 -0.97707945
v -0.02999247 -0.08563244 -0.96715754
v -0.01931099 -0.07992294 -0.97986650
v -0.01158841 -0.08701134 -0.97195125
v 0.01170213 -0.08698979 -0.97195125
v 0.01949838 -0.07994449 -0.97986650
v 0.02999570 -0.08558935 -0.96715754
v 0.04191721 -0.08222829 -0.96292126
v 0.04433589 -0.08550317 -0.94998932
v 0.04636168 -0.08871341 -0.92992258
v 0.04697556 -0.08974759 -0.90996730
v 0.04577236 -0.06626326 -0.44999254
v 0.05484548 -0.04999659 -0.43003726
v 0.05386328 -0.04999659 -0.41008198
v 0.01803735 -0.05566299 0.12971389
v 0.01317544 -0.06341928 0.12971389
v -0.02079658 -0.04902706 0.12971389
v -0.06215968 0.02997938 0.06427395
v -0.06215968 -0.00998706 -0.41008198
v -0.06101787 -0.02817125 -0.44999254
v -0.06095648 -0.02709399 -0.43003726
v -0.05975328 -0.03816825 -0.44999254
v -0.05958140 -0.03709099 -0.43003726
v -0.06002339 -0.06010132 -0.89848465
v -0.06002339 -0.06010132 -0.90116024
v -0.05986378 -0.05867933 -0.91442657
v -0.05945862 -0.05120313 -0.93181777
v -0.05707677 -0.04999659 -0.94998932
v -0.05183425 -0.04999659 -0.96994460
v -0.04418533 -0.04999659 -0.98566353
v -0.03737129 -0.03513037 -0.99870694
v -0.03042219 -0.04993196 -0.99558544
v -0.02999247 -0.06710352 -0.98544061
v -0.00597756 -0.08056930 -0.98053539
v -0.00999232 -0.05570608 -0.99803805
v -0.01158841 -0.07195120 -0.98666692
v 0.00616495 -0.08056930 -0.98053539
v 0.02999570 -0.07714361 -0.97707945
v 0.01170213 -0.07195120 -0.98677838
v 0.00999555 -0.05574917 -0.99803805
v 0.02999570 -0.06714661 -0.98544061
v 0.05219353 -0.06999059 -0.94998932
v 0.04185582 -0.06290220 -0.98220760
v 0.04502343 -0.06975359 -0.96972162
v 0.05564352 -0.06999059 -0.92992258
v 0.05682217 -0.06999059 -0.90996730
v 0.05655206 -0.06999059 -0.88990057
v 0.05549619 -0.04999659 -0.44999254
v 0.05952323 -0.03666008 -0.43003726
v 0.06113159 0.01603960 0.06237876
v 0.04153660 -0.02131986 0.06494284
v 0.02019820 -0.04723880 0.12971389
v -0.02142273 -0.02998105 0.12971389
v -0.02147184 -0.00998706 0.12971389
v -0.02150868 0.00998539 0.12971389
v -0.06212285 0.04999492 0.06427395
v -0.06269990 0.00998539 -0.46994781
v -0.06267534 0.00998539 -0.44999254
v -0.06236840 -0.00998706 -0.44999254
v -0.06227018 -0.00998706 -0.43003726
v -0.06239296 -0.02998105 -0.86994523
v -0.06085826 -0.05148322 -0.89112681
v -0.05982695 -0.03866379 -0.46994781
v -0.06074777 -0.05120313 -0.90862954
v -0.06051449 -0.04534282 -0.92635512
v -0.05997428 -0.03935324 -0.93973297
v -0.05465809 -0.02998105 -0.96994460
v -0.05886929 -0.03159695 -0.94876301
v -0.04508159 -0.02907616 -0.99112618
v -0.04040384 -0.02181541 -1.00026774
v -0.03042219 -0.02907616 -1.00249732
v -0.02403785 -0.04325293 -1.00127101
v -0.00999232 -0.04570909 -1.00227439
v 0.03044997 -0.04997505 -0.99558544
v 0.00999555 -0.04575218 -1.00227439
v 0.02407791 -0.04329602 -1.00127101
v 0.05699405 -0.04999659 -0.94998932
v 0.05180065 -0.04999659 -0.96994460
v 0.03741134 -0.03510883 -0.99870694
v 0.04417628 -0.04999659 -0.98566353
v 0.05938818 -0.05090149 -0.93148327
v 0.05984245 -0.05842079 -0.90996730
v 0.05984245 -0.05876551 -0.88990057
v 0.05970740 -0.03775889 -0.44999254
v 0.06215063 0.02997938 0.06427395
v 0.02030870 -0.04672172 0.12971389
v 0.06088604 -0.02666309 -0.43003726
v 0.06094743 -0.02776190 -0.44999254
v -0.02144729 0.02997938 0.12971389
v -0.02110352 0.08998290 0.12971389
v -0.02056330 0.10094944 0.12971389
v -0.06109153 0.06380542 0.06237876
v -0.06109153 0.06380542 0.05524391
v -0.06206146 0.02997938 -0.50996983
v -0.06242979 0.00998539 -0.84998995
v -0.06281039 -0.00998706 -0.86994523
v -0.06239296 -0.00998706 -0.46994781
v -0.06244207 -0.02998105 -0.88990057
v -0.06212285 -0.02998105 -0.90996730
v -0.06084598 -0.03159695 -0.93181777
v -0.06018300 -0.02601673 -0.94129372
v -0.05533336 -0.00998706 -0.96994460
v -0.04740205 -0.00998706 -0.98989987
v -0.05879563 -0.00998706 -0.95155007
v -0.04087039 -0.00998706 -1.00071359
v -0.02999247 -0.00998706 -1.00494993
v -0.00999232 -0.00998706 -1.00907481
v -0.00999232 -0.02998105 -1.00651073
v 0.00999555 -0.02998105 -1.00651073
v 0.03044997 -0.02907616 -1.00249732
v 0.05456310 -0.02998105 -0.96994460
v 0.05882341 -0.03082132 -0.94854003
v 0.05994067 -0.03803898 -0.93917561
v 0.04503571 -0.02907616 -0.99112618
v 0.04039479 -0.02179386 -1.00026774
v 0.06046860 -0.04484728 -0.92590922
v 0.06084921 -0.04842379 -0.90996730
v 0.06098426 -0.04876851 -0.88990057
v 0.05979334 -0.03831907 -0.46994781
v 0.06207696 0.04999492 0.06416249
v 0.02084891 0.05027501 0.12971389
v 0.02095941 0.03028101 0.12971389
v 0.02095941 0.02997938 0.12971389
v 0.02094713 0.00998539 0.12971389
v 0.02079980 -0.00970697 0.12971389
v 0.02057881 -0.02970097 0.12971389
v 0.06210152 -0.00998706 -0.43003726
v 0.06219974 -0.00998706 -0.44999254
v 0.06223657 -0.00998706 -0.46994781
v 0.06245757 0.00998539 -0.46994781
v -0.02052647 0.10112180 0.12971389
v -0.04558497 0.09095244 0.07040548
v -0.04118961 0.10099252 0.06405097
v -0.04914547 0.08998290 -0.43003726
v -0.04917002 0.08998290 -0.44999254
v -0.04910864 0.08998290 -0.46994781
v -0.05695400 0.06998891 -0.46994781
v -0.05686805 0.06998891 -0.48990309
v -0.05676983 0.06998891 -0.50996983
v -0.05954456 0.05624304 -0.50996983
v -0.06009705 0.04062273 -0.84998995
v -0.06117748 0.02997938 -0.82992321
v -0.06236840 0.00998539 -0.86994523
v -0.06272446 -0.00998706 -0.88990057
v -0.06233157 -0.00998706 -0.90996730
v -0.06122659 -0.00998706 -0.92992258
v -0.06021983 -0.00998706 -0.94151670
v -0.05462126 0.00998539 -0.96994460
v -0.04540081 0.01099801 -0.99179506
v -0.04074762 0.00500843 -1.00060213
v -0.06009705 0.00179819 -0.94073629
v -0.05857464 0.00905894 -0.94842857
v -0.00999232 0.00998539 -1.00840592
v -0.03164994 0.01099801 -1.00350070
v 0.00999555 -0.00998706 -1.00918627
v 0.02999570 -0.00998706 -1.00494993
v 0.04727023 -0.00998706 -0.98989987
v 0.05518925 -0.00998706 -0.96994460
v 0.06013711 -0.02470247 -0.94095927
v 0.05873747 -0.00998706 -0.95099264
v 0.06075099 -0.03082132 -0.93148327
v 0.04081223 -0.00998706 -1.00071359
v 0.06197875 -0.02998105 -0.90996730
v 0.06229796 -0.02998105 -0.88990057
v 0.06103337 0.06356843 0.05535540
v 0.06103337 0.06356843 0.06226730
v 0.02016137 0.10032462 0.12971389
v 0.02046831 0.08998290 0.12971389
v 0.02068930 0.06998891 0.12971389
v 0.06245757 0.00998539 -0.48990309
v 0.06261718 -0.00998706 -0.86994523
v 0.06218746 0.00998539 -0.84998995
v 0.06215063 0.00998539 -0.86994523
v 0.06170864 0.02997938 -0.54999191
v 0.06093515 0.02997938 -0.82992321
v -0.00999232 0.11010616 0.12971389
v -0.03912698 0.09823474 0.07742882
v -0.00999232 0.11210988 0.08991480
v -0.02999247 0.10739146 -0.43003726
v -0.02999247 0.10747764 -0.44999254
v -0.04175438 0.10166043 -0.43003726
v -0.04177893 0.10168197 -0.44999254
v -0.04175438 0.10166043 -0.46994781
v -0.04166843 0.10159579 -0.48990309
v -0.04897358 0.08998290 -0.48990309
v -0.05944634 0.05553205 -0.54999191
v -0.05949545 0.05589832 -0.52992511
v -0.05662250 0.06998891 -0.52992511
v -0.05847641 0.05061973 -0.84998995
v -0.06004794 0.04032110 -0.86492854
v -0.06110381 0.02997938 -0.84998995
v -0.06079688 0.03187536 -0.87094855
v -0.06219652 0.00998539 -0.88990057
v -0.06169314 0.00998539 -0.90996730
v -0.06058815 0.00905894 -0.92981112
v -0.05645062 0.02997938 -0.94998932
v -0.05230080 0.02997938 -0.96994460
v -0.04481149 0.02997938 -0.98722428
v -0.03942164 0.01834494 -0.99959880
v -0.05969189 0.01511315 -0.93627703
v -0.02608821 0.02534715 -1.00205135
v -0.00999232 0.02879439 -1.00350070
v 0.00999555 0.00998539 -1.00840592
v 0.03157950 0.01080410 -1.00338912
v 0.04070173 0.00466371 -1.00060213
v 0.04528126 0.01080410 -0.99168360
v 0.05445260 0.00998539 -0.96994460
v 0.06013711 -0.00998706 -0.94095927
v 0.06105793 -0.00998706 -0.92992258
v 0.05847964 0.00852031 -0.94820559
v 0.06005117 0.00091483 -0.94029039
v 0.06216291 -0.00998706 -0.90996730
v 0.06255579 -0.00998706 -0.88990057
v 0.04865759 0.08998290 -0.44999254
v 0.06071416 0.03187536 -0.84965551
v 0.06000206 0.04006255 -0.84285510
v 0.05997750 0.03980401 -0.85623294
v 0.05931452 0.05458406 -0.54999191
v 0.05645384 0.06998891 -0.50996983
v 0.05655206 0.06998891 -0.48990309
v 0.04862076 0.08998290 -0.46994781
v 0.04860848 0.08998290 -0.43003726
v 0.04111917 0.10092789 0.06371653
v 0.04545315 0.09080162 0.07018250
v 0.03899515 0.09801928 0.07709438
v 0.01015516 0.10917972 0.12971389
v 0.06199102 0.00998539 -0.88990057
v 0.06084921 0.02920375 -0.86994523
v -0.00970994 0.11010616 0.12971389
v -0.00999232 0.11219606 -0.44999254
v 0.00999555 0.11178669 0.08991480
v 0.00999555 0.11198060 -0.44999254
v -0.02999247 0.10743456 -0.46994781
v -0.02999247 0.10728374 -0.48990309
v -0.04153338 0.10144497 -0.50996983
v -0.04876486 0.08998290 -0.50996983
v -0.05368816 0.06998891 -0.84998995
v -0.05343034 0.06998891 -0.86994523
v -0.05799759 0.04999492 -0.88990057
v -0.05868513 0.04818511 -0.87094855
v -0.05997428 0.03980401 -0.87830639
v -0.06084598 0.02868666 -0.88990057
v -0.06056360 0.02556260 -0.90996730
v -0.06024439 0.02230927 -0.92301071
v -0.05274279 0.04999492 -0.94998932
v -0.05889385 0.02937611 -0.92981112
v -0.05560346 0.04999492 -0.92992258
v -0.04589191 0.05105063 -0.97105944
v -0.04254014 0.04508260 -0.98321098
v -0.03164994 0.03120746 -0.99736917
v -0.00999232 0.03879138 -0.99948734
v 0.00999555 0.02875130 -1.00350070
v 0.02596866 0.02530406 -1.00205135
v 0.03930209 0.01800022 -0.99948734
v 0.04469194 0.02997938 -0.98700136
v 0.05209531 0.02997938 -0.96994460
v 0.05629423 0.02997938 -0.94998932
v 0.06048088 0.00852031 -0.92936516
v 0.05964601 0.01422980 -0.93560815
v 0.06149992 0.00998539 -0.90996730
v 0.04145066 0.10138034 -0.46994781
v 0.04147522 0.10138034 -0.44999254
v 0.05991611 0.03920075 -0.86994523
v 0.05817270 0.04999492 -0.86994523
v 0.05867608 0.04803430 -0.84965551
v 0.05841825 0.05021037 -0.82992321
v 0.05631879 0.06998891 -0.52992511
v 0.04849798 0.08998290 -0.48990309
v 0.03139534 0.10433204 0.07018250
v 0.00999555 0.10930900 0.12971389
v 0.02999570 0.10696056 -0.44999254
v 0.06046860 0.02459306 -0.90996730
v 0.06073871 0.02765249 -0.88990057
v 0.00999555 0.11195906 -0.46994781
v -0.00999232 0.11213142 -0.46994781
v 0.02999570 0.10696056 -0.46994781
v -0.00999232 0.11200215 -0.48990309
v -0.02999247 0.10700365 -0.50996983
v -0.04130011 0.10120798 -0.52992511
v -0.04505704 0.08660030 -0.86994523
v -0.05276735 0.06998891 -0.88990057
v -0.05718727 0.04999492 -0.90996730
v -0.05986378 0.03868366 -0.88990057
v -0.05952001 0.03555960 -0.90996730
v -0.04271203 0.06397779 -0.96515089
v -0.04875259 0.06998891 -0.92992258
v -0.04441861 0.07039827 -0.94876301
v -0.05141682 0.06998891 -0.90996730
v -0.03080279 0.05105063 -0.98688984
v -0.03799744 0.05841911 -0.97841722
v 0.00999555 0.03874829 -0.99937582
v -0.00999232 0.04999492 -0.99313283
v 0.00999555 0.04999492 -0.99313283
v 0.03157950 0.03118591 -0.99725771
v 0.04245742 0.04497487 -0.98321098
v 0.04577236 0.05096445 -0.97094792
v 0.05254958 0.04999492 -0.94998932
v 0.05539797 0.04999492 -0.92992258
v 0.05878658 0.02900984 -0.92936516
v 0.06017394 0.02168446 -0.92223030
v 0.04137700 0.10129416 -0.48990309
v 0.05975651 0.03764949 -0.88990057
v 0.05777982 0.04999492 -0.88990057
v 0.05315118 0.06998891 -0.86994523
v 0.05340901 0.06998891 -0.84998995
v 0.05614690 0.06998891 -0.54999191
v 0.04828926 0.08998290 -0.50996983
v 0.05942501 0.03459006 -0.90996730
v 0.00999555 0.11180824 -0.48990309
v 0.02999570 0.10680974 -0.48990309
v -0.00999232 0.11172206 -0.50996983
v -0.02999247 0.10652965 -0.52992511
v -0.02325209 0.10114335 -0.86994523
v -0.02386597 0.10138034 -0.84998995
v -0.04095633 0.10088480 -0.54999191
v -0.03387218 0.09681275 -0.84998995
v -0.03324603 0.09659729 -0.86994523
v -0.04462732 0.08582467 -0.88990057
v -0.04053890 0.08052453 -0.94129372
v -0.03523499 0.07731429 -0.95467156
v -0.04198765 0.08216198 -0.92992258
v -0.04375562 0.08438113 -0.90996730
v -0.02466401 0.06234035 -0.98209614
v -0.02994336 0.06981654 -0.96983314
v 0.03073235 0.05096445 -0.98677838
v -0.00999232 0.06404242 -0.98365688
v 0.00999555 0.06402087 -0.98365688
v 0.02455674 0.06229725 -0.98209614
v 0.03789017 0.05828984 -0.97841722
v 0.04264158 0.06391315 -0.96503937
v 0.04427450 0.07033363 -0.94865155
v 0.04846115 0.06998891 -0.92992258
v 0.05111310 0.06998891 -0.90996730
v 0.05695722 0.04999492 -0.90996730
v 0.04124194 0.10116488 -0.50996983
v 0.05247591 0.06998891 -0.88990057
v 0.04488838 0.08636330 -0.86994523
v 0.00999555 0.11152815 -0.50996983
v 0.02999570 0.10650811 -0.50996983
v -0.00999232 0.11126961 -0.52992511
v -0.00999232 0.10303932 -0.86994523
v -0.02177878 0.10060471 -0.88544124
v -0.02905938 0.09657575 -0.89123833
v -0.02913304 0.08276524 -0.94876301
v -0.02999247 0.09325778 -0.90996730
v -0.02999247 0.08864710 -0.92992258
v -0.02190156 0.08069690 -0.96113753
v -0.00999232 0.07403941 -0.97239721
v 0.00999555 0.07401787 -0.97239721
v 0.02179429 0.08067536 -0.96102601
v 0.02983609 0.06977346 -0.96972162
v 0.03512772 0.07722811 -0.95444858
v 0.04043162 0.08041681 -0.94107074
v 0.04181899 0.08198962 -0.92992258
v 0.04357468 0.08418723 -0.90996730
v 0.04445866 0.08558767 -0.88990057
v 0.04102095 0.10094944 -0.52992511
v 0.03284409 0.09636030 -0.86994523
v 0.03343341 0.09659729 -0.84998995
v 0.04068945 0.10062625 -0.54999191
v 0.00999555 0.11107570 -0.52992511
v 0.02285016 0.10101407 -0.86994523
v 0.02999570 0.10607720 -0.52992511
v 0.00999555 0.10291005 -0.86994523
v 0.00453203 0.10038926 -0.90205204
v -0.00505674 0.10038926 -0.90205204
v -0.01102364 0.10127261 -0.89123833
v -0.01839017 0.09985062 -0.89881909
v -0.00999232 0.09375332 -0.92992258
v -0.00999232 0.08692348 -0.94998932
v -0.00999232 0.08147253 -0.96236384
v 0.00999555 0.08145098 -0.96236384
v 0.00999555 0.08685884 -0.94998932
v 0.00999555 0.09368868 -0.92992258
v 0.02999570 0.08841010 -0.92992258
v 0.02907488 0.08265752 -0.94865155
v 0.02999570 0.09297770 -0.90996730
v 0.02890299 0.09636030 -0.89090383
v 0.02151190 0.10051853 -0.88488382
v 0.01071992 0.10122953 -0.89090383
v 0.01786546 0.09980754 -0.89826167
v 0.01071992 0.09851482 -0.90918690
v -0.01102364 0.09857946 -0.90918690
f 1 2 3
f 1 3 4
f 1 4 5
f 1 5 6
f 1 6 7
f 1 7 2
f 2 8 3
f 2 7 8
f 3 9 10
f 3 10 4
f 3 8 9
f 4 10 11
f 4 11 12
f 4 12 5
f 5 12 13
f 5 13 14
f 5 14 6
f 6 14 15
f 6 15 16
f 6 16 7
f 7 16 31
f 7 31 59
f 7 59 58
f 7 58 95
f 7 95 129
f 7 129 169
f 7 169 168
f 7 168 167
f 7 167 166
f 7 166 165
f 7 165 164
f 7 164 212
f 7 212 211
f 7 211 210
f 7 210 269
f 7 269 313
f 7 313 272
f 7 272 219
f 7 219 174
f 7 174 134
f 7 134 133
f 7 133 132
f 7 132 98
f 7 98 97
f 7 97 96
f 7 96 60
f 7 60 32
f 7 32 17
f 7 17 18
f 7 18 8
f 8 19 20
f 8 20 9
f 8 18 21
f 8 21 19
f 9 20 22
f 9 22 23
f 9 23 24
f 9 24 10
f 10 24 25
f 10 25 11
f 11 25 26
f 11 26 12
f 12 26 13
f 13 27 14
f 13 26 28
f 13 28 27
f 14 27 29
f 14 29 15
f 15 29 16
f 16 30 31
f 16 29 30
f 17 32 33
f 17 33 34
f 17 34 35
f 17 35 18
f 18 35 36
f 18 36 21
f 19 37 38
f 19 38 39
f 19 39 20
f 19 21 36
f 19 36 40
f 19 40 37
f 20 39 41
f 20 41 22
f 22 41 23
f 23 42 43
f 23 43 44
f 23 44 45
f 23 45 24
f 23 41 42
f 24 45 25
f 25 45 46
f 25 46 47
f 25 47 26
f 26 47 48
f 26 48 49
f 26 49 50
f 26 50 28
f 27 28 51
f 27 51 52
f 27 52 53
f 27 53 29
f 28 50 51
f 29 53 54
f 29 54 55
f 29 55 30
f 30 55 56
f 30 56 57
f 30 57 58
f 30 58 59
f 30 59 31
f 32 60 33
f 33 60 61
f 33 61 62
f 33 62 63
f 33 63 64
f 33 64 65
f 33 65 66
f 33 66 36
f 33 36 35
f 33 35 34
f 36 66 40
f 37 67 38
f 37 40 65
f 37 65 67
f 38 67 68
f 38 68 69
f 38 69 39
f 39 69 70
f 39 70 71
f 39 71 41
f 40 66 65
f 41 71 72
f 41 72 42
f 42 72 43
f 43 72 73
f 43 73 74
f 43 74 75
f 43 75 76
f 43 76 44
f 44 76 46
f 44 46 45
f 46 77 47
f 46 76 78
f 46 78 79
f 46 79 77
f 47 77 80
f 47 80 48
f 48 80 49
f 49 81 50
f 49 80 82
f 49 82 83
f 49 83 84
f 49 84 81
f 50 81 51
f 51 85 52
f 51 81 86
f 51 86 87
f 51 87 85
f 52 85 53
f 53 88 89
f 53 89 54
f 53 85 88
f 54 89 90
f 54 90 91
f 54 91 56
f 54 56 55
f 56 91 92
f 56 92 93
f 56 93 57
f 57 93 94
f 57 94 58
f 58 94 93
f 58 93 95
f 60 96 61
f 61 96 97
f 61 97 98
f 61 98 99
f 61 99 100
f 61 100 101
f 61 101 102
f 61 102 103
f 61 103 62
f 62 103 63
f 63 65 64
f 63 103 102
f 63 102 104
f 63 104 105
f 63 105 67
f 63 67 106
f 63 106 65
f 65 106 67
f 67 105 68
f 68 107 69
f 68 105 107
f 69 107 108
f 69 108 70
f 70 109 71
f 70 108 109
f 71 110 72
f 71 109 111
f 71 111 110
f 72 110 112
f 72 112 73
f 73 112 113
f 73 113 74
f 74 113 114
f 74 114 115
f 74 115 75
f 75 115 78
f 75 78 76
f 77 79 82
f 77 82 80
f 78 83 82
f 78 82 79
f 78 115 116
f 78 116 118
f 78 118 83
f 81 84 86
f 83 117 84
f 83 118 119
f 83 119 117
f 84 117 86
f 85 120 88
f 85 87 121
f 85 121 120
f 86 121 87
f 86 117 122
f 86 122 123
f 86 123 121
f 88 124 125
f 88 125 89
f 88 120 124
f 89 125 126
f 89 126 90
f 90 126 127
f 90 127 91
f 91 127 92
f 92 127 93
f 93 128 129
f 93 129 95
f 93 127 130
f 93 130 131
f 93 131 128
f 98 132 99
f 99 132 133
f 99 133 134
f 99 134 135
f 99 135 136
f 99 136 137
f 99 137 138
f 99 138 100
f 100 138 139
f 100 139 140
f 100 140 102
f 100 102 101
f 102 140 141
f 102 141 104
f 104 141 105
f 105 141 107
f 107 141 142
f 107 142 108
f 108 143 109
f 108 142 143
f 109 143 144
f 109 144 111
f 110 145 146
f 110 146 112
f 110 111 145
f 111 144 147
f 111 147 145
f 112 146 113
f 113 148 149
f 113 149 114
f 113 146 148
f 114 149 150
f 114 150 151
f 114 151 115
f 115 151 116
f 116 151 118
f 117 119 122
f 118 151 152
f 118 152 119
f 119 152 153
f 119 153 122
f 120 121 154
f 120 154 155
f 120 155 156
f 120 156 124
f 121 123 157
f 121 157 154
f 122 153 158
f 122 158 123
f 123 158 157
f 124 156 159
f 124 159 125
f 125 160 161
f 125 161 126
f 125 159 160
f 126 162 127
f 126 161 131
f 126 131 162
f 127 131 130
f 127 162 131
f 128 163 164
f 128 164 165
f 128 165 166
f 128 166 167
f 128 167 168
f 128 168 169
f 128 169 129
f 128 131 170
f 128 170 171
f 128 171 172
f 128 172 173
f 128 173 163
f 131 171 170
f 131 161 171
f 134 174 135
f 135 175 176
f 135 176 177
f 135 177 178
f 135 178 136
f 135 174 175
f 136 178 179
f 136 179 180
f 136 180 181
f 136 181 182
f 136 182 183
f 136 183 184
f 136 184 185
f 136 185 137
f 137 185 138
f 138 185 186
f 138 186 139
f 139 186 187
f 139 187 141
f 139 141 140
f 141 187 142
f 142 187 188
f 142 188 189
f 142 189 143
f 143 189 144
f 144 189 190
f 144 190 147
f 145 147 191
f 145 191 146
f 146 192 193
f 146 193 148
f 146 191 192
f 147 190 194
f 147 194 195
f 147 195 191
f 148 193 149
f 149 196 150
f 149 193 197
f 149 197 196
f 150 196 198
f 150 198 151
f 151 198 152
f 152 198 153
f 153 198 199
f 153 199 158
f 154 157 200
f 154 200 201
f 154 201 155
f 155 202 156
f 155 201 203
f 155 203 202
f 156 202 204
f 156 204 159
f 157 158 200
f 158 199 205
f 158 205 200
f 159 204 206
f 159 206 160
f 160 206 207
f 160 207 161
f 161 207 171
f 163 208 209
f 163 209 210
f 163 210 211
f 163 211 212
f 163 212 164
f 163 173 213
f 163 213 214
f 163 214 215
f 163 215 216
f 163 216 217
f 163 217 218
f 163 218 208
f 171 207 172
f 172 207 214
f 172 214 173
f 173 214 213
f 174 219 176
f 174 176 220
f 174 220 175
f 175 220 176
f 176 219 221
f 176 221 222
f 176 222 223
f 176 223 224
f 176 224 177
f 177 224 225
f 177 225 178
f 178 225 226
f 178 226 179
f 179 227 228
f 179 228 182
f 179 182 181
f 179 181 180
f 179 226 227
f 182 229 230
f 182 230 183
f 182 228 231
f 182 231 232
f 182 232 229
f 183 230 184
f 184 230 229
f 184 229 232
f 184 232 233
f 184 233 234
f 184 234 185
f 185 234 186
f 186 235 236
f 186 236 187
f 186 234 235
f 187 236 188
f 188 236 237
f 188 237 189
f 189 238 194
f 189 194 190
f 189 237 238
f 191 195 239
f 191 239 240
f 191 240 192
f 192 240 241
f 192 241 242
f 192 242 193
f 193 242 197
f 194 243 195
f 194 238 243
f 195 243 239
f 196 197 244
f 196 244 245
f 196 245 246
f 196 246 198
f 197 242 244
f 198 246 199
f 199 247 248
f 199 248 205
f 199 246 247
f 200 205 248
f 200 248 249
f 200 249 250
f 200 250 201
f 201 250 203
f 202 251 252
f 202 252 204
f 202 203 251
f 203 250 253
f 203 253 254
f 203 254 251
f 204 252 206
f 206 255 256
f 206 256 207
f 206 252 255
f 207 256 214
f 208 257 209
f 208 218 258
f 208 258 259
f 208 259 260
f 208 260 261
f 208 261 262
f 208 262 263
f 208 263 264
f 208 264 257
f 209 257 265
f 209 265 266
f 209 266 267
f 209 267 210
f 210 268 266
f 210 266 269
f 210 267 268
f 214 256 216
f 214 216 215
f 216 256 270
f 216 270 271
f 216 271 218
f 216 218 217
f 218 271 258
f 219 272 221
f 221 273 223
f 221 223 222
f 221 272 274
f 221 274 275
f 221 275 273
f 223 273 276
f 223 276 226
f 223 226 225
f 223 225 224
f 226 276 227
f 227 276 277
f 227 277 278
f 227 278 279
f 227 279 228
f 228 279 280
f 228 280 231
f 231 280 232
f 232 280 281
f 232 281 282
f 232 282 283
f 232 283 233
f 233 283 284
f 233 284 235
f 233 235 234
f 235 284 285
f 235 285 236
f 236 285 237
f 237 286 287
f 237 287 238
f 237 285 286
f 238 287 243
f 239 288 240
f 239 243 289
f 239 289 290
f 239 290 288
f 240 288 291
f 240 291 292
f 240 292 241
f 241 292 242
f 242 292 293
f 242 293 244
f 243 287 289
f 244 293 294
f 244 294 245
f 245 295 246
f 245 294 295
f 246 295 296
f 246 296 247
f 247 296 297
f 247 297 248
f 248 297 249
f 249 298 299
f 249 299 250
f 249 297 298
f 250 299 300
f 250 300 253
f 251 254 252
f 252 254 301
f 252 301 255
f 253 302 254
f 253 300 302
f 254 302 301
f 255 301 303
f 255 303 270
f 255 270 256
f 257 304 305
f 257 305 266
f 257 266 265
f 257 264 304
f 258 271 260
f 258 260 259
f 260 271 306
f 260 306 307
f 260 307 308
f 260 308 261
f 261 308 309
f 261 309 262
f 262 309 310
f 262 310 311
f 262 311 264
f 262 264 263
f 264 311 304
f 266 312 274
f 266 274 313
f 266 313 269
f 266 268 267
f 266 305 314
f 266 314 312
f 270 303 315
f 270 315 316
f 270 316 271
f 271 316 306
f 272 313 274
f 273 275 317
f 273 317 318
f 273 318 276
f 274 312 314
f 274 314 275
f 275 314 319
f 275 319 317
f 276 318 320
f 276 320 277
f 277 320 354
f 277 354 321
f 277 321 278
f 278 321 322
f 278 322 323
f 278 323 279
f 279 323 281
f 279 281 280
f 281 323 324
f 281 324 282
f 282 324 325
f 282 325 326
f 282 326 284
f 282 284 283
f 284 326 285
f 285 326 286
f 286 327 287
f 286 326 327
f 287 327 289
f 288 328 291
f 288 290 329
f 288 329 330
f 288 330 328
f 289 327 290
f 290 327 325
f 290 325 331
f 290 331 329
f 291 328 292
f 292 332 293
f 292 328 333
f 292 333 332
f 293 332 294
f 294 334 295
f 294 332 335
f 294 335 336
f 294 336 334
f 295 334 296
f 296 334 337
f 296 337 297
f 297 337 338
f 297 338 298
f 298 338 299
f 299 339 340
f 299 340 300
f 299 338 339
f 300 340 341
f 300 341 342
f 300 342 302
f 301 343 303
f 301 302 343
f 302 342 343
f 303 343 315
f 304 319 305
f 304 311 344
f 304 344 319
f 305 319 314
f 306 316 345
f 306 345 346
f 306 346 307
f 307 347 348
f 307 348 349
f 307 349 310
f 307 310 309
f 307 309 308
f 307 346 347
f 310 349 311
f 311 349 348
f 311 348 350
f 311 350 344
f 315 343 351
f 315 351 345
f 315 345 316
f 317 319 353
f 317 353 352
f 317 352 320
f 317 320 318
f 319 344 353
f 320 352 381
f 320 381 354
f 321 355 322
f 321 354 356
f 321 356 357
f 321 357 355
f 322 355 358
f 322 358 323
f 323 359 360
f 323 360 361
f 323 361 324
f 323 358 359
f 324 361 331
f 324 331 325
f 325 327 326
f 328 330 362
f 328 362 363
f 328 363 333
f 329 364 362
f 329 362 330
f 329 331 365
f 329 365 364
f 331 361 365
f 332 333 366
f 332 366 335
f 333 363 367
f 333 367 366
f 334 336 368
f 334 368 337
f 335 366 369
f 335 369 336
f 336 369 370
f 336 370 371
f 336 371 368
f 337 368 338
f 338 368 372
f 338 372 373
f 338 373 339
f 339 373 340
f 340 373 374
f 340 374 375
f 340 375 341
f 341 375 376
f 341 376 377
f 341 377 351
f 341 351 342
f 342 351 343
f 344 350 378
f 344 378 353
f 345 351 346
f 346 351 377
f 346 377 379
f 346 379 347
f 347 379 380
f 347 380 350
f 347 350 348
f 350 380 378
f 352 353 381
f 353 378 382
f 353 382 381
f 354 381 404
f 354 404 383
f 354 383 356
f 355 357 359
f 355 359 358
f 356 384 385
f 356 385 360
f 356 360 357
f 356 383 384
f 357 360 359
f 360 385 386
f 360 386 365
f 360 365 361
f 362 387 363
f 362 364 388
f 362 388 389
f 362 389 387
f 363 390 367
f 363 387 390
f 364 365 388
f 365 386 388
f 366 367 390
f 366 390 391
f 366 391 369
f 368 371 372
f 369 391 392
f 369 392 370
f 370 392 371
f 371 392 393
f 371 393 394
f 371 394 372
f 372 394 395
f 372 395 373
f 373 395 396
f 373 396 374
f 374 396 375
f 375 396 397
f 375 397 398
f 375 398 376
f 376 398 399
f 376 399 379
f 376 379 377
f 378 400 382
f 378 380 400
f 379 399 380
f 380 399 401
f 380 401 402
f 380 402 403
f 380 403 400
f 381 382 405
f 381 405 404
f 382 400 406
f 382 406 405
f 383 404 407
f 383 407 384
f 384 407 408
f 384 408 409
f 384 409 410
f 384 410 385
f 385 410 411
f 385 411 388
f 385 388 386
f 387 389 390
f 388 411 389
f 389 412 390
f 389 411 412
f 390 412 413
f 390 413 414
f 390 414 391
f 391 414 415
f 391 415 392
f 392 415 393
f 393 415 416
f 393 416 417
f 393 417 418
f 393 418 419
f 393 419 395
f 393 395 394
f 395 419 396
f 396 419 418
f 396 418 420
f 396 420 397
f 397 420 398
f 398 420 421
f 398 421 401
f 398 401 399
f 400 403 406
f 401 421 422
f 401 422 405
f 401 405 402
f 402 405 403
f 403 405 406
f 404 405 407
f 405 422 407
f 407 422 423
f 407 423 408
f 408 423 424
f 408 424 425
f 408 425 417
f 408 417 412
f 408 412 409
f 409 412 426
f 409 426 411
f 409 411 410
f 411 426 412
f 412 417 416
f 412 416 413
f 413 416 415
f 413 415 414
f 417 425 424
f 417 424 418
f 418 424 420
f 420 424 422
f 420 422 421
f 422 424 423
