v -0.00959378 -0.10946245 0.19002396
v 0.00892395 -0.10946245 0.19002396
v -0.00959378 -0.10937621 0.21004179
v -0.01959268 -0.09497451 0.21004179
v -0.01959268 -0.09493139 0.19002396
v -0.00926117 -0.10877255 0.17000616
v 0.01887712 -0.08999428 0.19002396
v 0.01891038 -0.08999428 0.21004179
v 0.00894474 -0.10937621 0.21004179
v 0.00852898 -0.10877255 0.17000616
v 0.01843642 -0.08999428 0.17000616
v -0.00936927 -0.10842759 0.27000970
v -0.00954804 -0.10905281 0.23005959
v -0.01955111 -0.09471580 0.23005959
v -0.02034936 -0.08471222 0.23005959
v -0.02035351 -0.08497094 0.21004179
v -0.02026621 -0.08195262 0.37001324
v -0.02028699 -0.08240537 0.35008097
v -0.02035351 -0.08492781 0.19002396
v -0.02037430 -0.08413012 0.17000616
v -0.01926008 -0.09413369 0.17000616
v -0.00595592 -0.10538772 0.15486446
v 0.01995393 -0.07871870 0.19002396
v 0.01996640 -0.07902053 0.21004179
v 0.01990819 -0.07733890 0.17000616
v 0.01885633 -0.08999428 0.23005959
v 0.01876071 -0.08999428 0.25007743
v 0.01865261 -0.08999428 0.27000970
v 0.01849878 -0.08999428 0.29002750
v 0.01832001 -0.08999428 0.31004533
v 0.00890732 -0.10905281 0.23005959
v 0.00876596 -0.10842759 0.27000970
v 0.00543576 -0.10538772 0.15486446
v 0.01007559 -0.09068418 0.14896178
v 0.01851542 -0.07352288 0.15007389
v 0.02007450 -0.06045786 0.13963723
v -0.00926949 -0.10808264 0.29002750
v -0.01901063 -0.09277545 0.33006316
v -0.01915614 -0.09301260 0.31004533
v -0.02000012 -0.07999071 0.46017897
v -0.02004170 -0.08016318 0.45008451
v -0.02011654 -0.08052969 0.43006667
v -0.02022879 -0.08145675 0.39003104
v -0.02093973 -0.06998713 0.17000616
v -0.02076511 -0.06998713 0.37001324
v -0.02066949 -0.06998713 0.41004887
v -0.02072770 -0.06998713 0.39003104
v -0.02026621 -0.08227601 0.15820077
v -0.01859071 -0.07587285 0.14485556
v -0.01246249 -0.06727064 0.12979943
v -0.00525745 -0.08449662 0.13672867
v 0.02030316 -0.06871513 0.19002396
v 0.02030732 -0.06901696 0.21004179
v 0.01994561 -0.07839531 0.23005959
v 0.02016596 -0.06351930 0.15007389
v 0.02025327 -0.06733532 0.17000616
v 0.01981257 -0.07509672 0.31004533
v 0.01955896 -0.07186280 0.41004887
v 0.01948412 -0.07138849 0.43006667
v 0.01940513 -0.07091419 0.45008451
v 0.01931782 -0.07046144 0.47001678
v 0.01896859 -0.06998713 0.51005238
v 0.01807887 -0.08999428 0.33006316
v 0.00864955 -0.10808264 0.29002750
v 0.01777537 -0.08999428 0.35008097
v 0.00477056 -0.08449662 0.13672867
v 0.01109835 -0.06658074 0.12979943
v 0.01318128 -0.06341150 0.12979943
v 0.01803730 -0.05567167 0.12979943
v 0.02020338 -0.04724193 0.12979943
v 0.02031563 -0.04672451 0.12979943
v -0.00900756 -0.10730650 0.33006316
v -0.00915723 -0.10767301 0.31004533
v -0.01877365 -0.09240894 0.35008097
v -0.01845352 -0.09193463 0.37001324
v -0.01801697 -0.09146032 0.39003104
v -0.01972988 -0.07645496 0.51005238
v -0.01985877 -0.07777008 0.49003458
v -0.02000844 -0.06002668 0.62066370
v -0.02007912 -0.06035006 0.60997039
v -0.02035351 -0.06364866 0.55000252
v -0.02039509 -0.06509314 0.53007025
v -0.02042419 -0.06645139 0.51005238
v -0.02059465 -0.06998713 0.43006667
v -0.02123492 -0.04997998 0.15007389
v -0.02064870 -0.06953438 0.15092933
v -0.02100209 -0.04997998 0.51005238
v -0.02097715 -0.04997998 0.53007025
v -0.02092726 -0.04997998 0.55000252
v -0.02042419 -0.06254913 0.13792631
v -0.02032026 -0.05041117 0.12979943
v -0.01104060 -0.06886604 0.12979943
v 0.02067318 -0.04997998 0.19002396
v 0.02059835 -0.04997998 0.17000616
v 0.02005787 -0.06091061 0.45008451
v 0.02066902 -0.04997998 0.21004179
v 0.02054014 -0.02999439 0.56993479
v 0.02026990 -0.04831990 0.51005238
v 0.01988325 -0.07669211 0.27000970
v 0.02002876 -0.06045786 0.47001678
v 0.02000798 -0.06011291 0.48216432
v 0.02043205 -0.04997998 0.15007389
v 0.01977515 -0.07427746 0.33006316
v 0.01997471 -0.05929365 0.49550956
v 0.01994145 -0.05832348 0.51005238
v 0.01988325 -0.05698679 0.53007025
v 0.01934277 -0.06806834 0.48935020
v 0.01963380 -0.05349417 0.58995259
v 0.01951323 -0.05245931 0.60997039
v 0.01935940 -0.05133823 0.62998819
v 0.01864014 -0.06998713 0.53007025
v 0.00850403 -0.10767301 0.31004533
v 0.00830032 -0.10730650 0.33006316
v 0.01738872 -0.08999428 0.37001324
v 0.01017121 -0.06757247 0.12979943
v 0.02058172 -0.02969256 0.12979943
v -0.00877474 -0.10683220 0.35008097
v -0.00845461 -0.10620698 0.37001324
v -0.00801391 -0.10560331 0.39003104
v -0.01737255 -0.09094290 0.41004887
v -0.01953448 -0.07509672 0.53007025
v -0.01990450 -0.05847440 0.63400888
v -0.01993776 -0.03902779 0.73692101
v -0.02006249 -0.04025668 0.72357577
v -0.02015811 -0.04090346 0.70997393
v -0.02061128 -0.04997998 0.60997039
v -0.01916446 -0.07363068 0.55000252
v -0.02075264 -0.04997998 0.58995259
v -0.02085242 -0.04997998 0.56993479
v -0.02142616 -0.02999439 0.12979943
v -0.02117671 -0.02999439 0.58995259
v -0.02081500 -0.04939787 0.13074043
v -0.02079422 -0.04900980 0.12979943
v -0.02114345 -0.02999439 0.60997039
v -0.02108109 -0.00998724 0.74992406
v 0.02080623 -0.00970696 0.12979943
v 0.02094758 0.00999836 0.12979943
v 0.02056924 -0.02999439 0.53007025
v 0.02055677 -0.02999439 0.55000252
v 0.02050688 -0.02999439 0.58995259
v 0.02059003 -0.00998724 0.60997039
v 0.02056924 -0.00998724 0.62998819
v 0.02026159 -0.04698322 0.53007025
v 0.02022001 -0.04454700 0.56993479
v 0.02019091 -0.04349059 0.58995259
v 0.02015349 -0.04245574 0.60997039
v 0.02009113 -0.04133465 0.62998819
v 0.02003708 -0.04049383 0.64410335
v 0.01981257 -0.05569323 0.55000252
v 0.01972942 -0.05455058 0.56993479
v 0.01997471 -0.03913559 0.65744853
v 0.01929703 -0.04827679 0.65043378
v 0.01862351 -0.04997998 0.66993833
v 0.01815787 -0.06998713 0.55000252
v 0.01692307 -0.08999428 0.39003104
v 0.00804255 -0.10683220 0.35008097
v 0.00729419 -0.10560331 0.39003104
v -0.00737365 -0.10487029 0.41004887
v -0.01647037 -0.09053326 0.43006667
v -0.01973820 -0.05646937 0.64992046
v -0.01973820 -0.03689341 0.74992406
v -0.01987956 -0.01826606 0.81588018
v -0.02007080 -0.02029265 0.80253494
v -0.01937649 -0.05409783 0.66993833
v -0.01861982 -0.05217904 0.68995613
v -0.02045330 -0.02691139 0.74992406
v -0.02044082 -0.03141731 0.73016286
v -0.02069443 -0.02999439 0.70997393
v -0.01530625 -0.09016676 0.45008451
v -0.00916139 -0.08760118 0.55000252
v -0.00847540 -0.08632918 0.56993479
v -0.01847430 -0.07216463 0.56993479
v -0.02148021 -0.00998724 0.12979943
v -0.02129312 0.00999836 0.76994187
v -0.02135549 0.02998395 0.78995967
v -0.02126818 0.00999836 0.78995967
v -0.02113098 -0.00998724 0.72999173
v -0.02096883 -0.00998724 0.76994187
v -0.02118087 0.00999836 0.80997747
v 0.02096421 0.03028578 0.12979943
v 0.02052351 -0.00998724 0.64992046
v 0.02045699 -0.02999439 0.60997039
v 0.02032811 0.04999110 0.84992754
v 0.02028653 0.04999110 0.86994541
v 0.02029485 0.02998395 0.82999527
v 0.02037800 -0.02999439 0.62998819
v 0.02022417 -0.03148199 0.65043378
v 0.02003708 -0.02068071 0.72477341
v 0.01998303 -0.01919311 0.73811865
v 0.01949660 -0.02839899 0.73084724
v 0.01901432 -0.02999439 0.74992406
v 0.01773380 -0.04997998 0.68995613
v 0.01742198 -0.06998713 0.56993479
v 0.01822439 -0.02999439 0.76994187
v 0.01625371 -0.08999428 0.41004887
v 0.00770579 -0.10620698 0.37001324
v 0.01531410 -0.08999428 0.43006667
v 0.00669134 -0.10487029 0.41004887
v -0.00646730 -0.10396479 0.43006667
v -0.01910625 -0.03370261 0.76994187
v -0.01719378 -0.05090703 0.70997393
v -0.01948043 -0.01531242 0.82999527
v -0.01983798 0.00232320 0.87559140
v -0.02007496 -0.00037173 0.86224622
v -0.02039925 -0.00533040 0.82999527
v -0.02046161 -0.01095741 0.80954975
v -0.02078590 -0.00998724 0.78995967
v -0.02034520 -0.02369903 0.76994187
v -0.01736839 -0.07106511 0.58995259
v -0.01574279 -0.07033208 0.60997039
v -0.00736949 -0.08492781 0.58995259
v -0.00530319 -0.10303774 0.45008451
v -0.00385636 -0.10206756 0.47001678
v -0.02150931 0.00999836 0.12979943
v -0.02133470 0.02998395 0.80997747
v -0.02132222 0.04999110 0.80997747
v -0.02126402 0.02998395 0.82999527
v -0.02101041 0.00999836 0.82999527
v -0.02100209 0.02998395 0.86994541
v -0.02115592 0.02998395 0.84992754
v 0.02085611 0.05027137 0.12979943
v 0.02026574 0.06999825 0.86994541
v 0.02045699 -0.00998724 0.66993833
v 0.02024911 0.00999836 0.78995967
v 0.02020338 0.06999825 0.88996321
v 0.02019091 0.04999110 0.88996321
v 0.02022417 0.02998395 0.84992754
v 0.02007865 -0.00179465 0.78995967
v 0.02003292 -0.00060888 0.80356151
v 0.01992067 -0.01710185 0.74992406
v 0.01996640 0.00161174 0.81682122
v 0.01978347 -0.01401885 0.76994187
v 0.01958391 -0.01179823 0.78995967
v 0.01943839 -0.00834872 0.81006300
v 0.01868587 -0.00998724 0.82999527
v 0.01622460 -0.04997998 0.70997393
v 0.01632023 -0.06998713 0.58995259
v 0.01709769 -0.00998724 0.84992754
v 0.01649900 -0.02999439 0.78995967
v 0.01418325 -0.08999428 0.45008451
v 0.01279047 -0.08999428 0.47001678
v 0.00582657 -0.10396479 0.43006667
v -0.01583010 -0.04814743 0.73016286
v -0.01752223 -0.03128795 0.78995967
v -0.00862091 -0.06681789 0.68995613
v -0.00719487 -0.06489910 0.70997393
v -0.01806271 -0.01188447 0.84992754
v -0.01912288 0.00596674 0.88996321
v -0.01988787 0.02213631 0.91716689
v -0.02013732 0.01894552 0.90382171
v -0.02030363 0.01597032 0.88996321
v -0.02041172 0.00939469 0.86934656
v -0.02022047 -0.00188089 0.84992754
v -0.02076927 0.00999836 0.84992754
v -0.00574389 -0.08344021 0.60997039
v -0.00210187 -0.10105427 0.49003458
v -0.00076730 -0.10036436 0.50346535
v 0.00477471 -0.10303774 0.45008451
v 0.00347340 -0.10206756 0.47001678
v -0.02145111 0.02998395 0.12979943
v -0.02128481 0.06999825 0.80997747
v -0.02116840 0.06999825 0.86994541
v -0.02128065 0.04999110 0.82999527
v -0.02125986 0.06999825 0.82999527
v -0.02109356 0.06999825 0.88996321
v -0.02077758 0.02998395 0.88996321
v -0.02081500 0.04999110 0.90998101
v -0.02097299 0.06999825 0.90998101
v 0.02069813 0.06999825 0.12979943
v 0.02020338 0.08998384 0.74992406
v 0.02027822 0.06999825 0.84992754
v 0.02010776 0.08174814 0.86994541
v 0.02007865 0.08079952 0.88996321
v 0.02003708 0.08026054 0.90613145
v 0.02018259 0.08998384 0.76994187
v 0.02014517 0.00896350 0.81006300
v 0.01999550 0.07939816 0.91939110
v 0.02008697 0.07163677 0.91160643
v 0.02003292 0.06607443 0.92366838
v 0.02003292 0.05762314 0.92366838
v 0.02007450 0.05057320 0.90903997
v 0.02002045 0.03942697 0.90168303
v 0.02007034 0.03714168 0.88996321
v 0.02011607 0.03004862 0.86874771
v 0.02006202 0.01810470 0.84992754
v 0.02012023 0.01461207 0.82999527
v 0.02001629 0.01959230 0.86130524
v 0.01987077 0.00460850 0.82999527
v 0.01966290 0.00810112 0.84992754
v 0.01940929 0.01176623 0.86874771
v 0.01821607 0.00999836 0.88996321
v 0.00797187 -0.06681789 0.68995613
v 0.01255765 -0.06998713 0.62998819
v 0.01473204 -0.06998713 0.60997039
v 0.01380075 -0.04997998 0.72999173
v 0.00768916 -0.08632918 0.56993479
v 0.01524758 0.00999836 0.90998101
v 0.01346815 -0.00998724 0.86994541
v 0.01340163 -0.02999439 0.80997747
v 0.00834605 -0.08760118 0.55000252
v -0.00910734 -0.04823367 0.76994187
v -0.00752332 -0.04549562 0.78995967
v -0.01550997 -0.02818340 0.80954975
v -0.00352791 -0.08193105 0.62998819
v -0.00151150 -0.08074529 0.64478773
v -0.00483338 -0.06287252 0.72999173
v -0.00806380 -0.02645864 0.84992754
v -0.01552660 -0.00821936 0.86934656
v -0.01703995 0.01135660 0.91023767
v -0.01923098 0.02631884 0.92999887
v -0.02004170 0.03962101 0.94069213
v -0.02019137 0.03632242 0.92999887
v -0.02038678 0.02927249 0.91023767
v 0.00189353 -0.10105427 0.49003458
v 0.00069200 -0.10036436 0.50346535
v 0.00668303 -0.08492781 0.58995259
v -0.02111435 0.08970357 0.12979943
v -0.02112682 0.08998384 0.80997747
v -0.02114345 0.08998384 0.78995967
v -0.02105614 0.08998384 0.82999527
v -0.02121828 0.06999825 0.84992754
v -0.02051982 0.04999110 0.92999887
v -0.02077343 0.06999825 0.92999887
v -0.02044498 0.08159722 0.92999887
v -0.02090231 0.08998384 0.84992754
v 0.02046946 0.08998384 0.12979943
v 0.02005371 0.10011677 0.74992406
v 0.02001213 0.10000897 0.78354371
v 0.01998719 0.09927595 0.79688889
v 0.02003292 0.10007365 0.76994187
v 0.01991651 0.07163677 0.93016994
v 0.01994145 0.09752964 0.80997747
v 0.01983752 0.09496407 0.82999527
v 0.01960885 0.09306684 0.84992754
v 0.01911410 0.09175172 0.86994541
v 0.01810797 0.09078154 0.88996321
v 0.01686487 0.08815129 0.91160643
v 0.01664036 0.06999825 0.96994889
v 0.01930535 0.06999825 0.94993114
v 0.01980010 0.05057320 0.93016994
v 0.01993314 0.04429941 0.91502821
v 0.01975437 0.02713810 0.88996321
v 0.01992067 0.02340832 0.87465042
v 0.01948412 0.03164402 0.90903997
v 0.01836990 0.02998395 0.92999887
v 0.00663314 -0.06489910 0.70997393
v 0.00521541 -0.08344021 0.60997039
v 0.00843751 -0.04823367 0.76994187
v 0.01522264 0.02998395 0.94993114
v 0.00842088 0.00887726 0.93016994
v 0.00583905 -0.00483453 0.90998101
v 0.00751870 -0.01082805 0.88910770
v 0.00743139 -0.02645864 0.84992754
v 0.00691169 -0.04549562 0.78995967
v -0.00225986 -0.06121244 0.74547565
v -0.00447583 -0.04273601 0.80997747
v 0.00136137 -0.08074529 0.64478773
v -0.00452988 -0.02294445 0.86994541
v -0.00638415 -0.00483453 0.90998101
v -0.00812616 -0.01082805 0.88910770
v -0.00170275 -0.04090346 0.82289493
v -0.00909903 0.00887726 0.93016994
v -0.00632179 0.01478455 0.94993114
v -0.01683207 0.03177338 0.94839132
v -0.01817912 0.05169429 0.96815246
v -0.01962595 0.04617508 0.95403731
v -0.02002507 0.05949881 0.96036774
v -0.02014564 0.05169429 0.94839132
v 0.00319484 -0.08193105 0.62998819
v -0.02110188 0.08998384 0.12979943
v -0.02048656 0.10102227 0.80997747
v -0.02050734 0.10113007 0.78995967
v -0.02056971 0.10095759 0.12979943
v -0.02042004 0.10080668 0.82999527
v -0.02025373 0.08067016 0.94454169
v -0.02027452 0.06876936 0.95070100
v -0.02011654 0.10018145 0.86318719
v -0.02027452 0.10048328 0.84992754
v 0.02016180 0.10033236 0.12979943
v 0.02006618 0.10015989 0.68995613
v 0.02005787 0.10013833 0.72999173
v 0.00999660 0.10964604 0.72999173
v 0.00999660 0.10958136 0.74992406
v 0.00999660 0.10943045 0.76994187
v 0.01199222 0.10733918 0.79013073
v 0.00994255 0.10878366 0.80997747
v 0.00983861 0.10815844 0.82999527
v 0.00960994 0.10725294 0.84992754
v 0.00911519 0.10613185 0.86994541
v 0.01920557 0.04999110 0.94993114
v 0.00810907 0.10477361 0.88996321
v 0.00608850 0.10311353 0.90998101
v 0.00945196 0.08858248 0.94993114
v 0.00729003 0.08528388 0.96994889
v 0.00826290 0.07118402 0.99073666
v 0.00412198 0.06531985 1.00356865
v 0.01708522 0.04999110 0.96994889
v 0.00441301 -0.06287252 0.72999173
v 0.00768084 0.02959588 0.96960676
v 0.00586815 0.01478455 0.94993114
v 0.00257537 -0.00172998 0.92358291
v 0.00125327 -0.02074539 0.88183630
v 0.00414692 -0.02294445 0.86994541
v 0.00153598 -0.04090346 0.82289493
v 0.00408040 -0.04273601 0.80997747
v 0.00204736 -0.06121244 0.74547565
v -0.00137846 -0.02074539 0.88183630
v -0.00285439 -0.00172998 0.92358291
v -0.00267562 0.01823406 0.96276307
v -0.00807211 0.02959588 0.96960676
v -0.00899925 0.04878377 0.99107885
v -0.01797540 0.06876936 0.96815246
v -0.02002507 0.06128824 0.96036774
v -0.00432616 0.05464793 1.00356865
v -0.00432616 0.06531985 1.00356865
v -0.00999706 0.11031438 0.78995967
v -0.00999706 0.11052997 0.76994187
v -0.00999706 0.11061621 0.74992406
v -0.02050319 0.10117318 0.76994187
v -0.02051982 0.10121630 0.43006667
v -0.02053645 0.10113007 0.12979943
v -0.00684979 0.10311353 0.90998101
v -0.01684870 0.09310996 0.90998101
v -0.01977562 0.09841358 0.87653244
v -0.01983382 0.07461197 0.95788693
v -0.00783098 0.08528388 0.96994889
v -0.01190122 0.08726735 0.95070100
v -0.00896183 0.10477361 0.88996321
v -0.01186380 0.10501076 0.86985981
v -0.00999706 0.10774881 0.84992754
v -0.00999706 0.10897770 0.82999527
v -0.00999706 0.10981852 0.80997747
v 0.01015874 0.10919330 0.12979943
v 0.00999660 0.10936577 0.15007389
v 0.00999660 0.10938733 0.17000616
v 0.00999660 0.10951668 0.33006316
v 0.00999660 0.10966760 0.70997393
v -0.00999706 0.11063778 0.72999173
v 0.00315327 0.10147502 0.92666256
v 0.00367712 0.08228713 0.98457730
v 0.00412198 0.05464793 1.00356865
v 0.00861629 0.04878377 0.99107885
v 0.00427165 0.03599903 0.98509061
v 0.00248806 0.01823406 0.96276307
v -0.00448415 0.03599903 0.98509061
v -0.00867080 0.07118402 0.99073666
v -0.00393951 0.08228713 0.98457730
v -0.00999706 0.11074557 0.43006667
v -0.02051982 0.10121630 0.41004887
v -0.00999706 0.11012035 0.12979943
v -0.00999706 0.11074557 0.41004887
v -0.00999706 0.11070246 0.39003104
v -0.00362769 0.10147502 0.92666256
v 0.00999660 0.10932265 0.12979943
f 1 2 9
f 1 9 3
f 1 3 4
f 1 4 5
f 1 5 6
f 1 6 10
f 1 10 2
f 2 7 8
f 2 8 9
f 2 10 11
f 2 11 7
f 3 9 32
f 3 32 12
f 3 12 13
f 3 13 14
f 3 14 4
f 4 15 16
f 4 16 19
f 4 19 5
f 4 14 17
f 4 17 18
f 4 18 15
f 5 19 20
f 5 20 21
f 5 21 6
f 6 21 22
f 6 22 33
f 6 33 10
f 7 23 24
f 7 24 8
f 7 11 25
f 7 25 23
f 8 24 26
f 8 26 9
f 9 26 27
f 9 27 28
f 9 28 29
f 9 29 30
f 9 30 31
f 9 31 32
f 10 33 11
f 11 33 34
f 11 34 35
f 11 35 36
f 11 36 25
f 12 32 64
f 12 64 37
f 12 37 14
f 12 14 13
f 14 37 38
f 14 38 39
f 14 39 40
f 14 40 41
f 14 41 42
f 14 42 43
f 14 43 17
f 15 44 16
f 15 18 45
f 15 45 44
f 16 44 19
f 17 43 46
f 17 46 47
f 17 47 18
f 18 47 45
f 19 44 20
f 20 44 48
f 20 48 21
f 21 48 49
f 21 49 22
f 22 49 50
f 22 50 51
f 22 51 66
f 22 66 33
f 23 52 24
f 23 25 52
f 24 53 54
f 24 54 26
f 24 52 53
f 25 36 55
f 25 55 56
f 25 56 52
f 26 54 27
f 27 54 28
f 28 54 57
f 28 57 58
f 28 58 59
f 28 59 60
f 28 60 61
f 28 61 29
f 29 61 30
f 30 61 62
f 30 62 63
f 30 63 31
f 31 63 32
f 32 63 65
f 32 65 64
f 33 66 67
f 33 67 68
f 33 68 69
f 33 69 34
f 34 36 35
f 34 69 36
f 36 69 70
f 36 70 71
f 36 71 55
f 37 64 113
f 37 113 72
f 37 72 73
f 37 73 38
f 38 73 72
f 38 72 74
f 38 74 40
f 38 40 39
f 40 74 75
f 40 75 76
f 40 76 77
f 40 77 78
f 40 78 79
f 40 79 80
f 40 80 81
f 40 81 82
f 40 82 41
f 41 82 83
f 41 83 42
f 42 84 43
f 42 83 84
f 43 84 46
f 44 85 86
f 44 86 48
f 44 45 87
f 44 87 85
f 45 47 88
f 45 88 87
f 46 84 89
f 46 89 47
f 47 89 88
f 48 86 90
f 48 90 49
f 49 90 50
f 50 91 133
f 50 133 130
f 50 130 173
f 50 173 214
f 50 214 260
f 50 260 317
f 50 317 370
f 50 370 373
f 50 373 421
f 50 421 450
f 50 450 454
f 50 454 433
f 50 433 379
f 50 379 326
f 50 326 269
f 50 269 221
f 50 221 180
f 50 180 137
f 50 137 136
f 50 136 116
f 50 116 71
f 50 71 70
f 50 70 69
f 50 69 68
f 50 68 67
f 50 67 115
f 50 115 92
f 50 92 51
f 50 90 91
f 51 92 66
f 52 93 53
f 52 56 94
f 52 94 93
f 53 95 54
f 53 93 96
f 53 96 97
f 53 97 98
f 53 98 95
f 54 99 57
f 54 95 100
f 54 100 101
f 54 101 99
f 55 71 102
f 55 102 94
f 55 94 56
f 57 101 103
f 57 103 58
f 57 99 101
f 58 103 101
f 58 101 59
f 59 101 60
f 60 101 61
f 61 101 104
f 61 104 105
f 61 105 106
f 61 106 107
f 61 107 62
f 62 108 109
f 62 109 110
f 62 110 111
f 62 111 65
f 62 65 63
f 62 107 108
f 64 65 112
f 64 112 113
f 65 114 112
f 65 111 114
f 66 92 115
f 66 115 67
f 71 116 94
f 71 94 102
f 72 113 156
f 72 156 117
f 72 117 74
f 74 117 75
f 75 117 118
f 75 118 76
f 76 118 119
f 76 119 120
f 76 120 121
f 76 121 77
f 77 121 79
f 77 79 78
f 79 122 123
f 79 123 124
f 79 124 125
f 79 125 126
f 79 126 80
f 79 121 127
f 79 127 122
f 80 126 81
f 81 126 128
f 81 128 82
f 82 128 129
f 82 129 83
f 83 129 84
f 84 129 89
f 85 130 86
f 85 87 131
f 85 131 130
f 86 130 132
f 86 132 133
f 86 133 90
f 87 88 131
f 88 89 134
f 88 134 131
f 89 129 135
f 89 135 134
f 90 133 91
f 93 94 136
f 93 136 137
f 93 137 96
f 94 116 136
f 95 98 100
f 96 137 138
f 96 138 139
f 96 139 97
f 97 140 98
f 97 139 141
f 97 141 142
f 97 142 140
f 98 140 143
f 98 143 100
f 100 143 101
f 101 143 144
f 101 144 145
f 101 145 146
f 101 146 104
f 104 146 105
f 105 146 147
f 105 147 106
f 106 147 148
f 106 148 149
f 106 149 107
f 107 149 150
f 107 150 108
f 108 150 148
f 108 148 109
f 109 148 110
f 110 148 151
f 110 151 152
f 110 152 153
f 110 153 111
f 111 153 154
f 111 154 155
f 111 155 114
f 112 114 113
f 113 114 155
f 113 155 156
f 117 156 157
f 117 157 119
f 117 119 118
f 119 157 198
f 119 198 158
f 119 158 120
f 120 158 159
f 120 159 121
f 121 159 127
f 122 127 160
f 122 160 123
f 123 161 162
f 123 162 163
f 123 163 124
f 123 160 164
f 123 164 165
f 123 165 161
f 124 163 166
f 124 166 167
f 124 167 125
f 125 168 126
f 125 167 168
f 126 168 128
f 127 159 169
f 127 169 170
f 127 170 171
f 127 171 172
f 127 172 160
f 128 168 135
f 128 135 129
f 130 133 132
f 130 131 174
f 130 174 175
f 130 175 173
f 131 134 176
f 131 176 174
f 134 135 177
f 134 177 176
f 135 178 179
f 135 179 176
f 135 176 177
f 135 168 178
f 137 180 141
f 137 141 138
f 138 141 139
f 140 144 143
f 140 142 181
f 140 181 182
f 140 182 144
f 141 183 142
f 141 180 183
f 142 183 184
f 142 184 185
f 142 185 181
f 144 182 145
f 145 182 146
f 146 182 186
f 146 186 147
f 147 186 148
f 148 150 149
f 148 186 187
f 148 187 188
f 148 188 189
f 148 189 151
f 151 189 190
f 151 190 191
f 151 191 152
f 152 191 153
f 153 192 193
f 153 193 154
f 153 191 194
f 153 194 192
f 154 193 195
f 154 195 155
f 155 195 156
f 156 195 196
f 156 196 157
f 157 196 195
f 157 195 197
f 157 197 198
f 158 198 242
f 158 242 199
f 158 199 169
f 158 169 159
f 160 172 164
f 161 200 162
f 161 165 201
f 161 201 200
f 162 200 202
f 162 202 203
f 162 203 204
f 162 204 163
f 163 204 205
f 163 205 206
f 163 206 207
f 163 207 208
f 163 208 166
f 164 172 209
f 164 209 165
f 165 209 210
f 165 210 201
f 166 208 207
f 166 207 168
f 166 168 167
f 168 207 178
f 169 199 170
f 170 199 171
f 171 211 209
f 171 209 172
f 171 199 212
f 171 212 213
f 171 213 211
f 173 175 214
f 174 176 215
f 174 215 175
f 175 215 216
f 175 216 214
f 176 179 217
f 176 217 215
f 178 207 218
f 178 218 179
f 179 218 219
f 179 219 220
f 179 220 217
f 180 221 222
f 180 222 183
f 181 223 182
f 181 185 224
f 181 224 223
f 182 223 224
f 182 224 186
f 183 222 184
f 184 222 225
f 184 225 226
f 184 226 227
f 184 227 185
f 185 227 224
f 186 224 228
f 186 228 229
f 186 229 188
f 186 188 187
f 188 229 189
f 189 230 190
f 189 229 231
f 189 231 230
f 190 230 232
f 190 232 233
f 190 233 191
f 191 233 234
f 191 234 235
f 191 235 194
f 192 236 237
f 192 237 193
f 192 194 236
f 193 237 197
f 193 197 195
f 194 235 238
f 194 238 239
f 194 239 236
f 197 240 198
f 197 237 240
f 198 240 241
f 198 241 242
f 199 242 258
f 199 258 212
f 200 201 243
f 200 243 244
f 200 244 202
f 201 210 245
f 201 245 246
f 201 246 243
f 202 244 247
f 202 247 203
f 203 248 249
f 203 249 250
f 203 250 204
f 203 247 248
f 204 250 251
f 204 251 252
f 204 252 253
f 204 253 205
f 205 253 254
f 205 254 206
f 206 254 207
f 207 254 218
f 209 211 210
f 210 211 245
f 211 255 245
f 211 213 256
f 211 256 257
f 211 257 255
f 212 258 259
f 212 259 213
f 213 259 314
f 213 314 256
f 214 216 261
f 214 261 260
f 215 217 262
f 215 262 263
f 215 263 216
f 216 263 264
f 216 264 261
f 217 220 265
f 217 265 262
f 218 254 266
f 218 266 219
f 219 266 267
f 219 267 268
f 219 268 220
f 220 268 265
f 221 269 270
f 221 270 271
f 221 271 222
f 222 272 273
f 222 273 274
f 222 274 225
f 222 271 270
f 222 270 275
f 222 275 272
f 224 227 276
f 224 276 228
f 225 274 277
f 225 277 278
f 225 278 279
f 225 279 280
f 225 280 226
f 226 280 281
f 226 281 282
f 226 282 283
f 226 283 227
f 227 283 284
f 227 284 285
f 227 285 286
f 227 286 276
f 228 276 229
f 229 276 285
f 229 285 287
f 229 287 231
f 230 231 232
f 231 288 289
f 231 289 234
f 231 234 233
f 231 233 232
f 231 287 288
f 234 289 235
f 235 289 290
f 235 290 291
f 235 291 238
f 236 292 293
f 236 293 294
f 236 294 237
f 236 239 295
f 236 295 292
f 237 294 296
f 237 296 241
f 237 241 240
f 238 291 297
f 238 297 298
f 238 298 299
f 238 299 239
f 239 299 295
f 241 296 300
f 241 300 242
f 242 300 296
f 242 296 258
f 243 301 244
f 243 246 301
f 244 302 303
f 244 303 247
f 244 301 302
f 245 255 246
f 246 255 304
f 246 304 305
f 246 305 306
f 246 306 302
f 246 302 301
f 247 307 308
f 247 308 248
f 247 303 307
f 248 308 309
f 248 309 310
f 248 310 249
f 249 310 311
f 249 311 250
f 250 311 312
f 250 312 313
f 250 313 251
f 251 313 266
f 251 266 254
f 251 254 252
f 252 254 253
f 255 257 304
f 256 314 315
f 256 315 257
f 257 315 357
f 257 357 305
f 257 305 304
f 258 296 259
f 259 296 316
f 259 316 314
f 260 261 317
f 261 264 318
f 261 318 319
f 261 319 317
f 262 265 320
f 262 320 318
f 262 318 321
f 262 321 263
f 263 321 264
f 264 321 318
f 265 268 320
f 266 313 322
f 266 322 267
f 267 322 323
f 267 323 268
f 268 323 324
f 268 324 325
f 268 325 320
f 269 326 270
f 270 327 275
f 270 326 327
f 272 275 328
f 272 328 273
f 273 328 329
f 273 329 274
f 274 329 277
f 275 327 330
f 275 330 328
f 276 286 285
f 277 331 279
f 277 279 278
f 277 329 332
f 277 332 333
f 277 333 334
f 277 334 335
f 277 335 336
f 277 336 337
f 277 337 338
f 277 338 339
f 277 339 331
f 279 331 280
f 280 331 340
f 280 340 341
f 280 341 282
f 280 282 281
f 282 342 343
f 282 343 287
f 282 287 283
f 282 341 342
f 283 287 284
f 284 287 285
f 287 289 288
f 287 343 289
f 289 343 290
f 290 343 342
f 290 342 344
f 290 344 345
f 290 345 291
f 291 345 297
f 292 295 346
f 292 346 347
f 292 347 316
f 292 316 293
f 293 316 294
f 294 316 296
f 295 299 348
f 295 348 346
f 297 345 349
f 297 349 350
f 297 350 351
f 297 351 298
f 298 352 353
f 298 353 299
f 298 351 352
f 299 354 348
f 299 353 354
f 302 306 355
f 302 355 356
f 302 356 307
f 302 307 303
f 305 357 406
f 305 406 355
f 305 355 306
f 307 358 359
f 307 359 360
f 307 360 308
f 307 356 361
f 307 361 358
f 308 360 359
f 308 359 309
f 309 359 362
f 309 362 363
f 309 363 364
f 309 364 310
f 310 364 365
f 310 365 366
f 310 366 311
f 311 322 312
f 311 366 367
f 311 367 368
f 311 368 322
f 312 322 313
f 314 316 315
f 315 316 347
f 315 347 369
f 315 369 357
f 317 319 370
f 318 371 372
f 318 372 319
f 318 320 371
f 319 372 373
f 319 373 370
f 320 325 374
f 320 374 371
f 322 368 367
f 322 367 323
f 323 375 324
f 323 367 376
f 323 376 375
f 324 375 377
f 324 377 378
f 324 378 325
f 325 378 374
f 326 379 380
f 326 380 381
f 326 381 327
f 327 381 382
f 327 382 330
f 328 330 383
f 328 383 384
f 328 384 385
f 328 385 386
f 328 386 387
f 328 387 329
f 329 387 388
f 329 388 389
f 329 389 335
f 329 335 334
f 329 334 332
f 330 382 383
f 331 339 390
f 331 390 340
f 332 334 333
f 335 389 336
f 336 389 391
f 336 391 337
f 337 392 393
f 337 393 338
f 337 391 392
f 338 394 395
f 338 395 396
f 338 396 397
f 338 397 339
f 338 393 394
f 339 397 390
f 340 390 341
f 341 390 344
f 341 344 342
f 344 390 345
f 345 390 397
f 345 397 349
f 346 357 369
f 346 369 347
f 346 348 354
f 346 354 398
f 346 398 357
f 349 397 399
f 349 399 400
f 349 400 350
f 350 400 351
f 351 400 401
f 351 401 402
f 351 402 403
f 351 403 353
f 351 353 352
f 353 403 404
f 353 404 405
f 353 405 354
f 354 405 406
f 354 406 398
f 355 406 404
f 355 404 361
f 355 361 356
f 357 398 406
f 358 407 359
f 358 361 407
f 359 408 363
f 359 363 362
f 359 407 408
f 361 404 402
f 361 402 407
f 363 409 410
f 363 410 364
f 363 408 409
f 364 410 411
f 364 411 365
f 365 412 413
f 365 413 367
f 365 367 366
f 365 411 414
f 365 414 415
f 365 415 412
f 367 413 376
f 371 416 417
f 371 417 372
f 371 374 416
f 372 417 418
f 372 418 419
f 372 419 420
f 372 420 373
f 373 420 449
f 373 449 421
f 374 378 416
f 375 422 423
f 375 423 424
f 375 424 377
f 375 376 425
f 375 425 426
f 375 426 427
f 375 427 422
f 376 413 425
f 377 424 428
f 377 428 429
f 377 429 430
f 377 430 431
f 377 431 432
f 377 432 378
f 378 432 416
f 379 433 434
f 379 434 435
f 379 435 436
f 379 436 437
f 379 437 380
f 380 437 381
f 381 437 382
f 382 437 438
f 382 438 418
f 382 418 383
f 383 418 417
f 383 417 384
f 384 417 416
f 384 416 386
f 384 386 385
f 386 416 432
f 386 432 387
f 387 431 388
f 387 432 431
f 388 431 389
f 389 431 430
f 389 430 391
f 391 430 428
f 391 428 422
f 391 422 392
f 392 422 453
f 392 453 439
f 392 439 394
f 392 394 393
f 394 440 395
f 394 439 440
f 395 440 396
f 396 440 447
f 396 447 415
f 396 415 414
f 396 414 441
f 396 441 397
f 397 441 442
f 397 442 399
f 399 442 443
f 399 443 444
f 399 444 400
f 400 444 401
f 401 408 407
f 401 407 402
f 401 444 409
f 401 409 408
f 402 404 403
f 404 406 405
f 409 444 443
f 409 443 445
f 409 445 410
f 410 445 411
f 411 445 414
f 412 425 413
f 412 415 446
f 412 446 425
f 414 445 443
f 414 443 441
f 415 447 446
f 418 438 419
f 419 438 448
f 419 448 420
f 420 448 451
f 420 451 449
f 421 449 451
f 421 451 452
f 421 452 450
f 422 428 424
f 422 424 423
f 422 427 453
f 425 446 447
f 425 447 426
f 426 447 453
f 426 453 427
f 428 430 429
f 433 454 434
f 434 454 451
f 434 451 435
f 435 451 436
f 436 451 437
f 437 451 448
f 437 448 438
f 439 453 447
f 439 447 440
f 441 443 442
f 450 452 454
f 451 454 452
