v 0.01000991 -0.39400336 -0.47835469
v 0.03001544 -0.39313602 -0.47835469
v 0.00019827 -0.39391661 -0.47835469
v 0.00019827 -0.31685323 -0.63386339
v 0.01000991 -0.31685323 -0.63386339
v 0.03001544 -0.31672311 -0.63359612
v 0.03001544 -0.32166696 -0.62361789
v 0.05002098 -0.31646290 -0.63297248
v 0.07002650 -0.32097310 -0.62219244
v 0.05002098 -0.39140132 -0.47835469
v 0.09003204 -0.32040930 -0.62103426
v 0.10107543 -0.32001901 -0.62018788
v 0.11441246 -0.31945524 -0.61902970
v 0.00019827 -0.21168788 -0.47835469
v 0.00019827 -0.31268996 -0.64183706
v 0.01000991 -0.30835325 -0.65007800
v 0.03001544 -0.30809304 -0.65007800
v 0.05002098 -0.30748591 -0.65007800
v 0.07002650 -0.30666193 -0.65007800
v 0.07002650 -0.31602925 -0.63221520
v 0.06263593 -0.38975337 -0.47835469
v 0.13000064 -0.31871799 -0.61738151
v 0.15000618 -0.32223073 -0.60504240
v 0.17001170 -0.32656744 -0.59007508
v 0.09003204 -0.31542209 -0.63096792
v 0.10863591 -0.31542209 -0.62816155
v 0.13000064 -0.31238639 -0.63007700
v 0.43411872 -0.09902003 -0.47835469
v 0.43411872 0.04903540 -0.60165691
v 0.00019827 0.04899202 -0.74228740
v 0.00019827 -0.30835325 -0.65007800
v 0.00019827 -0.30497062 -0.65618074
v 0.01000991 -0.30141449 -0.66255075
v 0.03001544 -0.30128440 -0.66232800
v 0.05002098 -0.30098084 -0.66179347
v 0.07002650 -0.30054715 -0.66103619
v 0.08298126 -0.30015686 -0.66041255
v 0.08981967 -0.30445021 -0.65177071
v 0.07002650 -0.38875592 -0.47835469
v 0.15000618 -0.31754708 -0.61497605
v 0.17001170 -0.32101643 -0.60232508
v 0.18211696 -0.32023585 -0.60067689
v 0.18929516 -0.32348838 -0.59114414
v 0.11003757 -0.30462366 -0.64847434
v 0.15000618 -0.30995783 -0.63007700
v 0.13000064 -0.30362624 -0.64655888
v 0.43411872 -0.30861345 -0.47835469
v 0.23062295 0.04903540 -0.70584911
v 0.43411872 0.04903540 -0.82353854
v 0.22900891 0.04903540 -0.70798731
v 0.00019827 0.04899202 -0.93334347
v 0.00019827 -0.30141449 -0.66255075
v 0.01000991 -0.29542983 -0.67257351
v 0.03001544 -0.29529974 -0.67230624
v 0.05002098 -0.29495281 -0.67181623
v 0.07002650 -0.29447576 -0.67105895
v 0.08981967 -0.29482269 -0.66825259
v 0.09631828 -0.29967982 -0.65952164
v 0.10969778 -0.38311821 -0.47835469
v 0.19001724 -0.33255211 -0.57007408
v 0.21002276 -0.32973325 -0.57007408
v 0.17001170 -0.31624606 -0.61234784
v 0.19545397 -0.31928176 -0.59858328
v 0.18929516 -0.31537873 -0.60838330
v 0.21002276 -0.32270777 -0.58615506
v 0.11003757 -0.29902929 -0.65849710
v 0.15000618 -0.30236858 -0.64428705
v 0.17001170 -0.30726907 -0.63007700
v 0.13000064 -0.29794514 -0.65658164
v 0.42948899 -0.31034815 -0.47835469
v 0.43411872 -0.30414665 -0.48926836
v 0.43411872 0.04625989 -0.82242495
v 0.43050838 0.04903540 -0.82549858
v 0.22900891 0.04903540 -0.90532428
v 0.01000991 0.04899202 -0.93343258
v 0.00019827 0.02995385 -0.92608255
v 0.00019827 -0.29542983 -0.67257351
v 0.01000991 -0.28545541 -0.68838722
v 0.03001544 -0.28528193 -0.68803084
v 0.05002098 -0.28497836 -0.68754083
v 0.07002650 -0.28445795 -0.68678355
v 0.09003204 -0.28376406 -0.68571448
v 0.11003757 -0.29191709 -0.67003441
v 0.23814094 -0.35965657 -0.47915652
v 0.23741888 -0.36004686 -0.47835469
v 0.21002276 -0.33693218 -0.55256766
v 0.22115111 -0.34014136 -0.54049581
v 0.23448813 -0.33905718 -0.53760034
v 0.24999136 -0.34139901 -0.52396941
v 0.24999136 -0.34647298 -0.51007116
v 0.22900891 -0.32665420 -0.57002956
v 0.22900891 -0.33576128 -0.54815769
v 0.21002276 -0.31811085 -0.59617782
v 0.21002276 -0.31125885 -0.61003149
v 0.18861558 -0.30388641 -0.63096792
v 0.22900891 -0.32114655 -0.58263594
v 0.17001170 -0.30093747 -0.64183706
v 0.15000618 -0.29660076 -0.65430981
v 0.18105510 -0.30011350 -0.64032251
v 0.13000064 -0.28961864 -0.67003441
v 0.41194698 -0.31667972 -0.47835469
v 0.40808177 -0.31407771 -0.48815471
v 0.43055084 -0.30484051 -0.49078292
v 0.42426461 -0.30163133 -0.50374568
v 0.43411872 -0.30193490 -0.49439111
v 0.42456192 0.03468087 -0.82238036
v 0.41033295 0.04903540 -0.83601135
v 0.43411872 0.03528801 -0.81756949
v 0.23070788 0.04903540 -0.90492338
v 0.21108463 0.04899202 -0.90973431
v 0.18882795 0.04899202 -0.91463435
v 0.17914374 0.04899202 -0.91654980
v 0.17001170 0.04899202 -0.91833162
v 0.14779750 0.04899202 -0.92234075
v 0.13093507 0.04899202 -0.92479074
v 0.13000064 0.04899202 -0.92492437
v 0.11003757 0.04899202 -0.92746347
v 0.09003204 0.04899202 -0.92951256
v 0.07002650 0.04899202 -0.93111622
v 0.05087046 0.04899202 -0.93222988
v 0.05002098 0.04899202 -0.93227440
v 0.03094989 0.04899202 -0.93294257
v 0.03001544 0.02995385 -0.92568165
v 0.01000991 0.02995385 -0.92608255
v 0.01000991 0.01733401 -0.92100435
v 0.00019827 0.01737738 -0.92100435
v 0.00019827 -0.29052934 -0.68027991
v 0.00019827 -0.28541201 -0.68829811
v 0.00019827 -0.28215951 -0.69324267
v 0.01000991 -0.27877685 -0.69832087
v 0.03001544 -0.27856001 -0.69805360
v 0.05002098 -0.27821308 -0.69756359
v 0.07002650 -0.27764931 -0.69676179
v 0.09003204 -0.27686870 -0.69564813
v 0.11003757 -0.27587125 -0.69426721
v 0.11003757 -0.28281000 -0.68424445
v 0.24999136 -0.35774842 -0.47835469
v 0.24999136 -0.35362855 -0.49002564
v 0.24999136 -0.33125108 -0.55007315
v 0.24999136 -0.33766943 -0.53394759
v 0.26184177 -0.34031484 -0.52107394
v 0.22998582 -0.32105982 -0.58245778
v 0.24068943 -0.32010573 -0.58031958
v 0.22998582 -0.32648072 -0.57002956
v 0.22900891 -0.31646290 -0.59265870
v 0.22900891 -0.30731243 -0.61083329
v 0.21002276 -0.30306244 -0.62575608
v 0.19439211 -0.29898596 -0.63831794
v 0.17001170 -0.29503953 -0.65185982
v 0.15068576 -0.28567222 -0.67177171
v 0.17001170 -0.28506508 -0.66798532
v 0.18861558 -0.29404208 -0.64820707
v 0.13000064 -0.28163910 -0.68246263
v 0.14439952 -0.28064165 -0.68103719
v 0.40141326 -0.32032257 -0.47835469
v 0.40018153 -0.32001901 -0.48022562
v 0.38998762 -0.31763381 -0.49430203
v 0.38998762 -0.31108537 -0.51007116
v 0.40982324 -0.30410326 -0.51024938
v 0.43411872 -0.29755482 -0.50410205
v 0.41640681 -0.29859564 -0.51706481
v 0.41122490 0.02878293 -0.82656765
v 0.39827016 0.04187982 -0.83912957
v 0.41874290 0.02132379 -0.81930673
v 0.39087957 0.04903540 -0.84567773
v 0.43411872 0.02531357 -0.81293672
v 0.43072075 0.02878293 -0.81636673
v 0.23121759 0.04903540 -0.90478975
v 0.23873559 0.04075228 -0.89966702
v 0.22539857 0.03658903 -0.90135974
v 0.20857863 0.02991049 -0.90274066
v 0.17001170 0.02995385 -0.91084796
v 0.17001170 0.04656346 -0.91744071
v 0.19001724 0.02995385 -0.90679431
v 0.15374392 0.04266043 -0.91891074
v 0.14040691 0.03975482 -0.91997981
v 0.13000064 0.03793341 -0.92073709
v 0.11003757 0.03472424 -0.92202890
v 0.09003204 0.03212221 -0.92300892
v 0.07610038 0.02062991 -0.91971254
v 0.06964424 0.02834927 -0.92314255
v 0.05002098 0.02995385 -0.92492437
v 0.03001544 0.01781105 -0.92087072
v 0.01000991 0.00735956 -0.91681707
v 0.00019827 0.01226005 -0.91891074
v 0.00019827 -0.27873349 -0.69832087
v 0.00019827 -0.27448350 -0.70411181
v 0.01000991 -0.27006006 -0.70994729
v 0.03001544 -0.26966974 -0.70994729
v 0.05002098 -0.26893252 -0.70994729
v 0.07079105 -0.26628712 -0.71181822
v 0.07796925 -0.25978205 -0.71979189
v 0.09003204 -0.26689425 -0.70905638
v 0.13000064 -0.27457023 -0.69248539
v 0.11003757 -0.26585343 -0.70767546
v 0.13000064 -0.26455241 -0.70598274
v 0.26999688 -0.34981224 -0.49002564
v 0.27012432 -0.35384539 -0.47835469
v 0.26910493 -0.34274340 -0.51042753
v 0.26999688 -0.32721794 -0.55007315
v 0.26910493 -0.33593476 -0.52864671
v 0.24841979 -0.32292461 -0.57043046
v 0.26999688 -0.32149351 -0.56357044
v 0.27517879 -0.33897045 -0.51737666
v 0.25402644 -0.31871799 -0.57733500
v 0.24841979 -0.31472820 -0.58820415
v 0.22998582 -0.30752927 -0.61003149
v 0.22998582 -0.30115432 -0.62219244
v 0.24043457 -0.30002677 -0.62023246
v 0.21002276 -0.29751146 -0.63577884
v 0.22900891 -0.30098084 -0.62286061
v 0.21002276 -0.28888139 -0.65007800
v 0.19001724 -0.28333041 -0.66517895
v 0.15777901 -0.27960083 -0.67952263
v 0.17001170 -0.27851665 -0.67791897
v 0.15068576 -0.27417994 -0.68865448
v 0.38998762 -0.32383531 -0.47835469
v 0.38998762 -0.32162359 -0.48432380
v 0.37847698 -0.31949860 -0.49884570
v 0.37108642 -0.31711340 -0.51042753
v 0.40306979 -0.30111092 -0.52254391
v 0.36998206 -0.30917722 -0.53002763
v 0.38875586 -0.30301911 -0.52953756
v 0.43055084 -0.29612371 -0.51024938
v 0.43411872 -0.29451913 -0.51042753
v 0.39461735 -0.29798850 -0.53590763
v 0.40982324 -0.29512626 -0.52953756
v 0.43076321 -0.28584570 -0.53105211
v 0.40544838 0.01403812 -0.82273674
v 0.37868935 0.02128042 -0.83939683
v 0.38489068 0.03463750 -0.84233683
v 0.39092207 0.02873957 -0.83676863
v 0.43114549 0.00887743 -0.80678940
v 0.41122490 0.00840038 -0.81703490
v 0.39920461 0.00072439 -0.81961858
v 0.36870784 0.04903540 -0.85605687
v 0.43411872 0.00597182 -0.80376035
v 0.24999136 0.04903540 -0.89971155
v 0.24999136 0.04478541 -0.89801884
v 0.24999136 0.02995385 -0.89182699
v 0.22900891 0.01078558 -0.88937700
v 0.22900891 0.02904314 -0.89726156
v 0.21431270 0.02323194 -0.89855337
v 0.20097567 0.01941563 -0.90020156
v 0.19001724 0.01672687 -0.90135974
v 0.16814283 0.00965802 -0.90274066
v 0.15000618 0.00996161 -0.90612614
v 0.14826471 0.03186201 -0.91552526
v 0.13000064 0.02795896 -0.91672796
v 0.11003757 0.02474980 -0.91806436
v 0.09003204 0.02210440 -0.91908890
v 0.06272088 0.01950237 -0.92011344
v 0.09003204 0.00996161 -0.91401070
v 0.06964424 0.01169628 -0.91632706
v 0.05002098 0.01872176 -0.92046982
v 0.05002098 0.00874732 -0.91628253
v 0.03001544 0.00783661 -0.91659433
v 0.03001544 -0.01007402 -0.90879887
v 0.01000991 -0.01007402 -0.90915525
v 0.00019827 0.00735956 -0.91681707
v 0.00019827 -0.26572335 -0.71564913
v 0.01000991 -0.26125652 -0.72157371
v 0.03001544 -0.26103967 -0.72135097
v 0.05002098 -0.26064938 -0.72086096
v 0.06463224 -0.26025909 -0.72032642
v 0.09003204 -0.25926164 -0.71907914
v 0.07079105 -0.25314689 -0.72821099
v 0.09003204 -0.24074388 -0.74086195
v 0.09003204 -0.25002444 -0.72999281
v 0.15000618 -0.26299122 -0.70397818
v 0.11003757 -0.25813410 -0.71765369
v 0.13000064 -0.25674635 -0.71591640
v 0.29000241 -0.34109545 -0.50312203
v 0.29000241 -0.34573573 -0.49002564
v 0.29000241 -0.34976888 -0.47835469
v 0.28133762 -0.32027921 -0.56076407
v 0.28881314 -0.32301134 -0.55029583
v 0.29000241 -0.33090416 -0.53002763
v 0.26999688 -0.31698331 -0.57354867
v 0.29000241 -0.33740923 -0.51310027
v 0.24824990 -0.30349612 -0.61047697
v 0.26999688 -0.30900377 -0.59007508
v 0.22900891 -0.29555994 -0.63234884
v 0.25377160 -0.29846555 -0.61738151
v 0.24824990 -0.29352167 -0.62811702
v 0.22900891 -0.28406763 -0.65132529
v 0.22900891 -0.28779721 -0.64517796
v 0.21002276 -0.28133553 -0.66214985
v 0.22093874 -0.28016460 -0.66036803
v 0.19001724 -0.27665186 -0.67520171
v 0.17001170 -0.26979986 -0.69007993
v 0.37040681 -0.32968986 -0.47835469
v 0.37108642 -0.32465929 -0.49131745
v 0.36513996 -0.32153684 -0.50405753
v 0.35634774 -0.31889147 -0.51737666
v 0.34980667 -0.31585574 -0.52931488
v 0.35116583 -0.30549103 -0.55149859
v 0.36998206 -0.30236858 -0.54508400
v 0.38128030 -0.30041707 -0.54098582
v 0.43411872 -0.28510845 -0.52967125
v 0.38875586 -0.29373851 -0.54860312
v 0.40965337 -0.28467479 -0.55025131
v 0.42460442 -0.28194267 -0.54374766
v 0.43411872 -0.28272325 -0.53443760
v 0.39151669 0.00840038 -0.82705766
v 0.37121385 0.00874732 -0.83699131
v 0.35855642 0.00124480 -0.83935225
v 0.36535233 0.01460189 -0.84242594
v 0.37121385 0.02873957 -0.84616774
v 0.42524153 -0.00547710 -0.80282485
v 0.41126740 -0.01133168 -0.80714577
v 0.40544838 -0.02538262 -0.80282485
v 0.39151669 -0.01150514 -0.81716853
v 0.37902915 -0.01918112 -0.81952947
v 0.38591003 -0.00586741 -0.82291496
v 0.35706979 0.04292063 -0.85872960
v 0.35095346 0.04903540 -0.86385232
v 0.43411872 -0.00625771 -0.79756850
v 0.26218158 0.04903540 -0.89605880
v 0.27088886 0.02878293 -0.88487786
v 0.26481497 0.01646666 -0.88149238
v 0.24909939 0.00987487 -0.88331878
v 0.20857863 0.01160955 -0.89490062
v 0.24183623 -0.00118376 -0.88051242
v 0.22900891 -0.00391589 -0.88273966
v 0.21010771 -0.01107147 -0.88429880
v 0.19001724 0.00670907 -0.89703882
v 0.17357957 0.00284939 -0.89868701
v 0.16028503 -0.00018631 -0.89997882
v 0.13000064 0.00996161 -0.90928888
v 0.15000618 -0.00213784 -0.90091431
v 0.11003757 0.00996161 -0.91187251
v 0.11003757 -0.00851281 -0.90376520
v 0.09147617 -0.01193881 -0.90421069
v 0.07002650 -0.01007402 -0.90683883
v 0.05002098 -0.01007402 -0.90795249
v 0.05002098 -0.02369131 -0.90171611
v 0.03001544 -0.02451529 -0.90211701
v 0.01000991 -0.02486221 -0.90229523
v 0.00019827 -0.01761991 -0.90563613
v 0.00019827 -0.01007402 -0.90906614
v 0.00019827 -0.26121315 -0.72157371
v 0.01000991 -0.25275657 -0.73159647
v 0.03001544 -0.25258309 -0.73132920
v 0.05002098 -0.25214943 -0.73083919
v 0.10897571 -0.24664180 -0.73150736
v 0.07002650 -0.24156785 -0.74175286
v 0.10158513 -0.24013673 -0.74014920
v 0.07002650 -0.23228727 -0.75177562
v 0.09003204 -0.22135875 -0.76144201
v 0.17001170 -0.26121315 -0.70170635
v 0.15000618 -0.25505501 -0.71386731
v 0.13000064 -0.24677190 -0.72794372
v 0.30015385 -0.34001124 -0.50013751
v 0.30809659 -0.34196278 -0.48958018
v 0.30164045 -0.34725356 -0.47835469
v 0.28881314 -0.31485832 -0.56847048
v 0.29467463 -0.31871799 -0.55715585
v 0.30656752 -0.32153684 -0.54383671
v 0.31191930 -0.32504958 -0.53198761
v 0.30809659 -0.33519751 -0.50811118
v 0.26999688 -0.30197829 -0.60375059
v 0.28193223 -0.30050379 -0.60098875
v 0.28915292 -0.30392981 -0.59060961
v 0.24999136 -0.28302681 -0.64491069
v 0.26999688 -0.29642728 -0.61377335
v 0.27063400 -0.28584570 -0.63145792
v 0.26439023 -0.28120542 -0.64197069
v 0.23427576 -0.27856001 -0.65791804
v 0.21002276 -0.27452686 -0.67217261
v 0.22900891 -0.27326924 -0.66749531
v 0.18865804 -0.26546314 -0.69110447
v 0.21002276 -0.26450905 -0.68611538
v 0.18109757 -0.26017234 -0.70032543
v 0.36161458 -0.33220518 -0.47835469
v 0.34997654 -0.33125108 -0.49002564
v 0.34980667 -0.32353175 -0.51042753
v 0.34301072 -0.32084298 -0.52218759
v 0.33001348 -0.31854451 -0.53662038
v 0.33001348 -0.31260324 -0.55007315
v 0.34530434 -0.30167472 -0.56343681
v 0.35864136 -0.29950637 -0.55911589
v 0.36998206 -0.29746810 -0.55506223
v 0.36998206 -0.28953189 -0.57002956
v 0.38811874 -0.28298348 -0.56931680
v 0.40277249 -0.28116205 -0.56214499
v 0.43411872 -0.27717227 -0.54472762
v 0.41610950 -0.27829981 -0.55706680
v 0.34521937 -0.00469650 -0.84220320
v 0.35112336 0.00874732 -0.84603411
v 0.37142622 -0.01150514 -0.82696855
v 0.36573464 -0.02520916 -0.82269222
v 0.35112336 -0.01085463 -0.83663499
v 0.35023141 0.02978039 -0.85587871
v 0.43114549 -0.01133168 -0.79654396
v 0.41874290 -0.01883419 -0.79930580
v 0.41126740 -0.03123719 -0.79654396
v 0.39852500 -0.03869633 -0.79921669
v 0.38523045 -0.04468100 -0.80260217
v 0.37142622 -0.03115046 -0.81681216
v 0.34373277 0.03632882 -0.86158049
v 0.32861182 0.04903540 -0.87293965
v 0.43411872 -0.01428063 -0.79329211
v 0.26897749 0.04903540 -0.89392066
v 0.29000241 0.03589515 -0.88167059
v 0.27815202 0.02132379 -0.87935424
v 0.27088886 0.00987487 -0.87659240
v 0.25517327 0.00315295 -0.87855238
v 0.22900891 -0.00500007 -0.88224971
v 0.24909939 -0.00872964 -0.87476599
v 0.24952413 -0.03054331 -0.86411965
v 0.22900891 -0.01497450 -0.87757242
v 0.21681871 -0.01840052 -0.87913150
v 0.20348167 -0.02182652 -0.88077968
v 0.19001724 -0.01007402 -0.88937700
v 0.16814283 -0.00812250 -0.89476699
v 0.15000618 -0.01211227 -0.89628154
v 0.13000064 -0.00560720 -0.90247339
v 0.13000064 -0.01562501 -0.89792973
v 0.11003757 -0.01848724 -0.89926612
v 0.09912161 -0.01987500 -0.89984518
v 0.08578458 -0.02121937 -0.90051341
v 0.07002650 -0.02252039 -0.90109247
v 0.05002098 -0.03370912 -0.89690518
v 0.03001544 -0.03448972 -0.89726156
v 0.01000991 -0.03488003 -0.89739519
v 0.00019827 -0.02993618 -0.89980066
v 0.00019827 -0.02481885 -0.90225065
v 0.00019827 -0.25275657 -0.73150736
v 0.00019827 -0.24785608 -0.73720920
v 0.01000991 -0.24278212 -0.74304467
v 0.03001544 -0.24256529 -0.74286652
v 0.05002098 -0.24217498 -0.74242103
v 0.11487968 -0.23926938 -0.73921376
v 0.10965531 -0.22990209 -0.74990469
v 0.10443093 -0.22053477 -0.76055110
v 0.05002098 -0.23289442 -0.75244379
v 0.05002098 -0.22291997 -0.76295656
v 0.07002650 -0.22226946 -0.76233292
v 0.07002650 -0.21199144 -0.77235568
v 0.09003204 -0.21103737 -0.77142024
v 0.17001170 -0.25314689 -0.71159548
v 0.15000618 -0.24508059 -0.72589463
v 0.13000064 -0.23809847 -0.73792195
v 0.31349087 -0.33845004 -0.49590567
v 0.32368478 -0.34087861 -0.48254198
v 0.30915847 -0.34560561 -0.47835469
v 0.30996549 -0.30874354 -0.57002956
v 0.31191930 -0.31741697 -0.55029583
v 0.31986207 -0.31993228 -0.54000580
v 0.33001348 -0.32903939 -0.51007116
v 0.29526928 -0.29868239 -0.59764785
v 0.30996549 -0.30193490 -0.58379412
v 0.28915292 -0.29417220 -0.60860604
v 0.24999136 -0.27656513 -0.65493345
v 0.29000241 -0.28367734 -0.62611246
v 0.27772728 -0.27929726 -0.63903069
v 0.27063400 -0.27461362 -0.64918709
v 0.22900891 -0.26221061 -0.68304175
v 0.24192119 -0.26047593 -0.68076992
v 0.24914187 -0.26559323 -0.67092532
v 0.19439211 -0.25874123 -0.69845450
v 0.21002276 -0.25687644 -0.69613814
v 0.18636441 -0.24139437 -0.72161824
v 0.35091099 -0.33524087 -0.47835469
v 0.33672446 -0.33910054 -0.47835469
v 0.33022586 -0.33667201 -0.48958018
v 0.33001348 -0.32257766 -0.52659762
v 0.32873926 -0.30340940 -0.57007408
v 0.32126373 -0.30033034 -0.58076501
v 0.33455828 -0.29824871 -0.57675594
v 0.35116583 -0.29625380 -0.57007408
v 0.34993407 -0.28519517 -0.59078777
v 0.36998206 -0.28198603 -0.58357143
v 0.38017598 -0.28003448 -0.58018595
v 0.39351302 -0.27734575 -0.57546413
v 0.40965337 -0.27404982 -0.56931680
v 0.43076321 -0.27556768 -0.55025131
v 0.43411872 -0.27396309 -0.55029583
v 0.42927662 -0.26476926 -0.56994045
v 0.33748901 -0.01805358 -0.83895135
v 0.33048069 -0.01085463 -0.84532136
v 0.32997102 0.01022179 -0.85552233
v 0.33663952 0.02297173 -0.85859597
v 0.35091099 -0.03115046 -0.82630038
v 0.35817415 -0.03852287 -0.81912857
v 0.43411872 -0.03418615 -0.78255659
v 0.42430708 -0.04411723 -0.78233391
v 0.41029048 -0.05049220 -0.78616482
v 0.40383434 -0.06350235 -0.78206658
v 0.39109194 -0.05083914 -0.79605395
v 0.37053424 -0.05083914 -0.80629945
v 0.37758502 -0.05803809 -0.79877120
v 0.32997102 0.02978039 -0.86425328
v 0.31344840 0.04595633 -0.87752783
v 0.32168847 0.04903540 -0.87561238
v 0.29089439 0.04903540 -0.88683784
v 0.30011138 0.03984156 -0.88002241
v 0.29000241 0.02592070 -0.87734967
v 0.29000241 0.00996161 -0.87026691
v 0.29000241 -0.00608425 -0.86287236
v 0.27173835 -0.01189545 -0.86621326
v 0.26625913 -0.02421172 -0.86202598
v 0.25585285 -0.03752543 -0.85868502
v 0.24251583 -0.04147184 -0.86073416
v 0.22998582 -0.03006628 -0.86991054
v 0.21010771 -0.02911220 -0.87556785
v 0.19001724 -0.02486221 -0.88229424
v 0.19001724 -0.03488003 -0.87734967
v 0.16907726 -0.03084688 -0.88371968
v 0.15000618 -0.03006628 -0.88772881
v 0.13000064 -0.03006628 -0.89093608
v 0.11003757 -0.03006628 -0.89360881
v 0.09147617 -0.02876526 -0.89628154
v 0.07002650 -0.03249484 -0.89628154
v 0.07002650 -0.05005853 -0.88737243
v 0.05002098 -0.05005853 -0.88853061
v 0.03001544 -0.05005853 -0.88928789
v 0.01000991 -0.05005853 -0.88968879
v 0.00019827 -0.03483666 -0.89739519
v 0.00019827 -0.24273875 -0.74304467
v 0.00019827 -0.23822857 -0.74798924
v 0.01000991 -0.23354492 -0.75306743
v 0.03001544 -0.23332809 -0.75288928
v 0.11772548 -0.21962407 -0.75966018
v 0.13000064 -0.22812402 -0.74861288
v 0.10239215 -0.20028232 -0.78024024
v 0.11568669 -0.19932824 -0.77939391
v 0.03001544 -0.22331028 -0.76335746
v 0.05002098 -0.21268532 -0.77297932
v 0.07002650 -0.20197365 -0.78184390
v 0.09003204 -0.20101956 -0.78095299
v 0.17001170 -0.24312906 -0.72362280
v 0.15000618 -0.23632042 -0.73591739
v 0.32602087 -0.34174594 -0.47835469
v 0.30996549 -0.29655737 -0.59377235
v 0.31089991 -0.28614926 -0.61145699
v 0.30482605 -0.28146562 -0.62254882
v 0.26999688 -0.26372844 -0.66526806
v 0.29000241 -0.27747583 -0.63613522
v 0.29080945 -0.26689425 -0.65150344
v 0.28469309 -0.26147336 -0.66210532
v 0.22900891 -0.25436115 -0.69297540
v 0.25525820 -0.25856775 -0.67823082
v 0.22998582 -0.25423104 -0.69279724
v 0.25071341 -0.25019789 -0.69030267
v 0.19965896 -0.23987652 -0.71983641
v 0.21002276 -0.24685863 -0.70829910
v 0.22900891 -0.24438670 -0.70522547
v 0.17001170 -0.23423880 -0.73364556
v 0.19180116 -0.23350155 -0.72896826
v 0.32873926 -0.29369515 -0.58847141
v 0.34322309 -0.28116205 -0.60196877
v 0.35656011 -0.27869010 -0.59791511
v 0.36998206 -0.27604473 -0.59354961
v 0.38990265 -0.27001670 -0.59003055
v 0.40995067 -0.26377183 -0.58606595
v 0.42214090 -0.26099634 -0.58165598
v 0.43411872 -0.26377183 -0.56771314
v 0.43411872 -0.25934836 -0.57506323
v 0.32419446 -0.02334437 -0.84162408
v 0.34483713 -0.04394376 -0.82215768
v 0.33048069 -0.03002290 -0.83561045
v 0.30924341 -0.00903322 -0.85449779
v 0.31544471 0.00371672 -0.85823959
v 0.32330251 0.01707381 -0.86126870
v 0.36424801 -0.06354571 -0.80206758
v 0.35091099 -0.05040547 -0.81574309
v 0.43411872 -0.04411723 -0.77694386
v 0.41717136 -0.05743095 -0.77841389
v 0.43055084 -0.05049220 -0.77516204
v 0.38964781 -0.07013752 -0.78536296
v 0.43411872 -0.06684162 -0.76340199
v 0.42906424 -0.06948701 -0.76456022
v 0.41029048 -0.07013752 -0.77444935
v 0.39614642 -0.07685943 -0.77796841
v 0.37053424 -0.07013752 -0.79494029
v 0.30805412 0.03190537 -0.87356329
v 0.31047517 0.04903540 -0.87988877
v 0.30635515 0.04903540 -0.88140333
v 0.30924341 0.01022179 -0.86354053
v 0.30210769 -0.00170417 -0.86073416
v 0.29000241 -0.01610206 -0.85806143
v 0.27959615 -0.01978827 -0.85979867
v 0.27173835 -0.03054331 -0.85699230
v 0.27122864 -0.05157638 -0.84616774
v 0.26536715 -0.06324214 -0.84180224
v 0.24952413 -0.04888762 -0.85463142
v 0.22900891 -0.04398713 -0.86313963
v 0.22998582 -0.05478555 -0.85712594
v 0.20972544 -0.05096924 -0.86443144
v 0.17510864 -0.03804584 -0.87899786
v 0.20284456 -0.06133399 -0.86068964
v 0.19001724 -0.05005853 -0.86950964
v 0.16177163 -0.04073459 -0.88028967
v 0.15000618 -0.04277284 -0.88140333
v 0.13000064 -0.04589528 -0.88305151
v 0.11003757 -0.04849731 -0.88434333
v 0.09113638 -0.05187995 -0.88469970
v 0.08518994 -0.06098705 -0.88042331
v 0.07002650 -0.06207123 -0.88104695
v 0.05002098 -0.06315541 -0.88167059
v 0.03001544 -0.06384929 -0.88202697
v 0.00019827 -0.05005853 -0.88964427
v 0.01000991 -0.06415285 -0.88216060
v 0.00019827 -0.06410949 -0.88216060
v 0.00019827 -0.23350155 -0.75306743
v 0.00019827 -0.22860107 -0.75823474
v 0.01000991 -0.22352710 -0.76358020
v 0.13000064 -0.20860881 -0.76825750
v 0.13000064 -0.21858326 -0.75854653
v 0.15000618 -0.22630261 -0.74660832
v 0.08922502 -0.18809615 -0.79249030
v 0.09538384 -0.17937936 -0.79948395
v 0.10944293 -0.19156553 -0.78705573
v 0.13000064 -0.19807060 -0.77828026
v 0.11003757 -0.17829518 -0.79859304
v 0.13000064 -0.18809615 -0.78705573
v 0.01000991 -0.21333583 -0.77360296
v 0.03001544 -0.21311900 -0.77333570
v 0.03001544 -0.20314455 -0.78286844
v 0.05002098 -0.20266752 -0.78246754
v 0.05002098 -0.19147879 -0.79249030
v 0.07002650 -0.19074155 -0.79186666
v 0.08204682 -0.18020333 -0.80015212
v 0.17001170 -0.22426435 -0.74442559
v 0.33001348 -0.28341714 -0.60575509
v 0.31816307 -0.27934062 -0.61907423
v 0.31089991 -0.27504727 -0.62949795
v 0.26999688 -0.25626931 -0.67524624
v 0.30996549 -0.26424885 -0.64620250
v 0.29803014 -0.25930500 -0.65916532
v 0.25946319 -0.23978978 -0.69979089
v 0.26999688 -0.24625149 -0.68771905
v 0.24612617 -0.24187142 -0.70224088
v 0.20182517 -0.22044805 -0.74050558
v 0.20908833 -0.22708322 -0.73110646
v 0.21002276 -0.23848878 -0.71827734
v 0.22900891 -0.23575664 -0.71515912
v 0.22998582 -0.23562655 -0.71498096
v 0.19001724 -0.22192252 -0.74202013
v 0.33001348 -0.27730238 -0.61577785
v 0.34993407 -0.27409321 -0.60918510
v 0.36259151 -0.26103967 -0.62170243
v 0.36955732 -0.26546314 -0.61047697
v 0.38629234 -0.26264429 -0.60415149
v 0.39962935 -0.25982541 -0.59978604
v 0.43411872 -0.25548869 -0.58094323
v 0.40995067 -0.25731012 -0.59608871
v 0.43097559 -0.25050148 -0.59083235
v 0.30928588 -0.03002290 -0.84402955
v 0.31548718 -0.03670146 -0.83819407
v 0.32975864 -0.05040547 -0.82496405
v 0.33625725 -0.05730084 -0.81841582
v 0.34942436 -0.07013752 -0.80491853
v 0.35575309 -0.07685943 -0.79801393
v 0.43411872 -0.05400494 -0.77106386
v 0.38280940 -0.08228032 -0.78139842
v 0.43411872 -0.07469107 -0.75854653
v 0.42184356 -0.08158644 -0.76095200
v 0.40825170 -0.08895886 -0.76353562
v 0.40039390 -0.10040779 -0.76019472
v 0.38964781 -0.08939253 -0.77311295
v 0.29000241 -0.03006628 -0.85102320
v 0.29000241 -0.04559171 -0.84296048
v 0.27870417 -0.05925237 -0.83948588
v 0.24816495 -0.06996405 -0.84345043
v 0.27122864 -0.06996405 -0.83592224
v 0.25368664 -0.07659923 -0.83797133
v 0.21613911 -0.05825492 -0.85895234
v 0.24034962 -0.08019870 -0.84006500
v 0.22900891 -0.06922681 -0.84941959
v 0.16907726 -0.04845395 -0.87481058
v 0.19001724 -0.06393602 -0.86211509
v 0.20972544 -0.06879314 -0.85467595
v 0.21002276 -0.08692060 -0.84411865
v 0.19001724 -0.07391046 -0.85645777
v 0.15000618 -0.05279066 -0.87610239
v 0.13000064 -0.05591310 -0.87775058
v 0.11003757 -0.05847175 -0.87913150
v 0.09852696 -0.05977277 -0.87979966
v 0.09113638 -0.06861967 -0.87570149
v 0.07002650 -0.07208904 -0.87556785
v 0.05002098 -0.07317322 -0.87610239
v 0.03001544 -0.07382373 -0.87650329
v 0.01000991 -0.07417066 -0.87672603
v 0.00019827 -0.06918344 -0.87939876
v 0.00019827 -0.22348374 -0.76358020
v 0.15000618 -0.20665729 -0.76638657
v 0.15000618 -0.21667510 -0.75663108
v 0.08922502 -0.17170337 -0.80643308
v 0.11003757 -0.16836411 -0.80670035
v 0.15000618 -0.18605790 -0.78527391
v 0.15000618 -0.19603235 -0.77640933
v 0.13000064 -0.17647375 -0.79707849
v 0.13000064 -0.16658604 -0.80518579
v 0.00019827 -0.21329246 -0.77351385
v 0.00019827 -0.20331801 -0.78309119
v 0.01000991 -0.20336139 -0.78313571
v 0.03001544 -0.19195583 -0.79289120
v 0.05002098 -0.18146098 -0.80126578
v 0.07002650 -0.18076710 -0.80064213
v 0.07002650 -0.17005542 -0.80946219
v 0.17001170 -0.21446338 -0.75444835
v 0.33077803 -0.26685089 -0.63136888
v 0.32461920 -0.26164684 -0.64246070
v 0.29080945 -0.25392747 -0.66927713
v 0.29000241 -0.24291223 -0.68362081
v 0.30215016 -0.24078724 -0.68103719
v 0.30928588 -0.24616477 -0.67074716
v 0.30996549 -0.25713664 -0.65618074
v 0.26999688 -0.23796837 -0.69769722
v 0.25164786 -0.23384848 -0.70932364
v 0.26150197 -0.22049141 -0.72054917
v 0.19001724 -0.21199144 -0.75204289
v 0.20157032 -0.20041242 -0.76041746
v 0.20836626 -0.20947616 -0.74950379
v 0.21516219 -0.21853989 -0.73845649
v 0.22900891 -0.22517505 -0.72696370
v 0.22900891 -0.22569546 -0.72638464
v 0.24999136 -0.22244292 -0.72264278
v 0.34997654 -0.26359835 -0.62539971
v 0.37597099 -0.25822082 -0.61747062
v 0.34997654 -0.25670296 -0.63546705
v 0.36955732 -0.25279993 -0.62900794
v 0.39177155 -0.25596574 -0.61047697
v 0.40370691 -0.24182805 -0.62259334
v 0.41020551 -0.24698874 -0.61083329
v 0.43411872 -0.24672854 -0.59403962
v 0.42643082 -0.24325916 -0.60464150
v 0.30215016 -0.04160194 -0.84077775
v 0.30928588 -0.04893099 -0.83396226
v 0.32292023 -0.06211460 -0.82117766
v 0.34241605 -0.08180328 -0.80104303
v 0.32975864 -0.06927018 -0.81405038
v 0.36841053 -0.08939253 -0.78384846
v 0.36072260 -0.10058125 -0.78032935
v 0.34942436 -0.08908896 -0.79311395
v 0.37405965 -0.09559403 -0.77703297
v 0.43411872 -0.07907115 -0.75565106
v 0.43411872 -0.09420628 -0.74553925
v 0.41377339 -0.09494352 -0.75649744
v 0.38998762 -0.10431083 -0.76291203
v 0.42566627 -0.10448430 -0.74317831
v 0.40876138 -0.10912458 -0.74928105
v 0.40374938 -0.12282860 -0.74210918
v 0.38998762 -0.11428528 -0.75582927
v 0.29000241 -0.05556616 -0.83748138
v 0.29191378 -0.07195894 -0.82741404
v 0.28647703 -0.08379817 -0.82233584
v 0.26876512 -0.09030324 -0.82447404
v 0.24816495 -0.08813488 -0.83262587
v 0.22998582 -0.08258389 -0.84149045
v 0.24999136 -0.10348685 -0.82229131
v 0.22998582 -0.09255833 -0.83529860
v 0.22900891 -0.09229813 -0.83574408
v 0.22900891 -0.08280072 -0.84162408
v 0.17001170 -0.06775232 -0.86425328
v 0.17001170 -0.07772677 -0.85864049
v 0.21002276 -0.09693842 -0.83801591
v 0.19804493 -0.09932361 -0.83953047
v 0.19086672 -0.09160426 -0.84585595
v 0.15140784 -0.07187220 -0.86554509
v 0.13000064 -0.07005078 -0.87004417
v 0.11003757 -0.07005078 -0.87280601
v 0.11003757 -0.08622673 -0.86358505
v 0.09003204 -0.08804815 -0.86469871
v 0.07002650 -0.08943590 -0.86554509
v 0.06000251 -0.10006085 -0.85997689
v 0.05201729 -0.09203792 -0.86505508
v 0.03001544 -0.09004304 -0.86710417
v 0.01000991 -0.09004304 -0.86746055
v 0.00019827 -0.09004304 -0.86746055
v 0.00019827 -0.07408393 -0.87663692
v 0.17001170 -0.20444557 -0.76424837
v 0.07002650 -0.15851976 -0.81877220
v 0.09003204 -0.15734884 -0.81788129
v 0.11003757 -0.15583099 -0.81663400
v 0.17001170 -0.18367270 -0.78322482
v 0.15000618 -0.17430539 -0.79529667
v 0.17001170 -0.19369051 -0.77431571
v 0.13000064 -0.15392284 -0.81520855
v 0.15000618 -0.16437432 -0.80340397
v 0.00019827 -0.19212930 -0.79302484
v 0.01000991 -0.19217266 -0.79311395
v 0.03001544 -0.18193802 -0.80162215
v 0.02806161 -0.16806053 -0.81320399
v 0.05002098 -0.17005542 -0.81066489
v 0.05002098 -0.15930037 -0.81939584
v 0.19001724 -0.20197365 -0.76193202
v 0.33791375 -0.25917491 -0.63894159
v 0.33077803 -0.25418767 -0.64949888
v 0.29000241 -0.23436889 -0.69359905
v 0.31548718 -0.23818520 -0.67787445
v 0.33001348 -0.24334589 -0.66428804
v 0.30418894 -0.22166233 -0.70188451
v 0.30983806 -0.22990209 -0.68994629
v 0.26889256 -0.22669291 -0.71070457
v 0.29000241 -0.22439446 -0.70486909
v 0.27483898 -0.21806285 -0.71792096
v 0.24999136 -0.21281543 -0.73266554
v 0.26184177 -0.20067263 -0.74063921
v 0.26838285 -0.20934606 -0.72932464
v 0.19146137 -0.18892013 -0.77333570
v 0.19914927 -0.17968293 -0.77970570
v 0.20896091 -0.19100176 -0.76678747
v 0.21490735 -0.19837417 -0.75841290
v 0.22900891 -0.20635372 -0.74629653
v 0.22998582 -0.21624143 -0.73614007
v 0.38013351 -0.24004999 -0.64018887
v 0.38807625 -0.24408314 -0.62954247
v 0.34921199 -0.24590456 -0.65047890
v 0.36998206 -0.24234845 -0.64317346
v 0.41704392 -0.23844540 -0.61796063
v 0.39347053 -0.23679745 -0.63591248
v 0.41181955 -0.23094289 -0.63127977
v 0.43411872 -0.23705766 -0.60775965
v 0.30996549 -0.06653804 -0.82376128
v 0.30996549 -0.07655586 -0.81783676
v 0.33001348 -0.08592316 -0.80371577
v 0.33001348 -0.09594097 -0.79730123
v 0.34997654 -0.10422409 -0.78282392
v 0.36938745 -0.10964499 -0.76963842
v 0.36471522 -0.12321891 -0.76233292
v 0.34997654 -0.11424191 -0.77583021
v 0.43411872 -0.10660928 -0.73680830
v 0.37805223 -0.11866535 -0.75894743
v 0.41708642 -0.11784138 -0.73832285
v 0.43411872 -0.12447655 -0.72344458
v 0.42995620 -0.12599440 -0.72464734
v 0.41169214 -0.13128519 -0.73097283
v 0.39436251 -0.13618568 -0.73694193
v 0.38858595 -0.12972398 -0.74500465
v 0.29981405 -0.07993849 -0.81988585
v 0.29191378 -0.09030324 -0.81618857
v 0.27462661 -0.09711188 -0.81805944
v 0.26133206 -0.10075472 -0.82042038
v 0.22900891 -0.11012203 -0.82420677
v 0.24999136 -0.11350466 -0.81547582
v 0.23355369 -0.11727761 -0.81805944
v 0.22811694 -0.11038223 -0.82429588
v 0.15896830 -0.07972166 -0.85975415
v 0.17001170 -0.09004304 -0.85124594
v 0.21002276 -0.11003529 -0.82941860
v 0.18475038 -0.10170880 -0.84104502
v 0.21002276 -0.12209135 -0.82140040
v 0.19086672 -0.10903785 -0.83485317
v 0.14563128 -0.08175991 -0.86100143
v 0.13000064 -0.08392827 -0.86224872
v 0.11003757 -0.09620117 -0.85766053
v 0.09003204 -0.09806596 -0.85872960
v 0.07002650 -0.09945371 -0.85962051
v 0.04670796 -0.10058125 -0.86024415
v 0.07002650 -0.11003529 -0.85289413
v 0.05002098 -0.12577757 -0.84385139
v 0.05201729 -0.10834397 -0.85503232
v 0.03001544 -0.10105829 -0.86060053
v 0.01000991 -0.10131849 -0.86073416
v 0.00019827 -0.09581087 -0.86403054
v 0.05002098 -0.14932592 -0.82701313
v 0.07002650 -0.14850195 -0.82638949
v 0.09003204 -0.14733103 -0.82549858
v 0.11003757 -0.14581318 -0.82434040
v 0.17001170 -0.17183347 -0.79315847
v 0.18581225 -0.18159108 -0.78135389
v 0.17001170 -0.16185904 -0.80139941
v 0.15000618 -0.15158102 -0.81342673
v 0.13000064 -0.14390503 -0.82282585
v 0.15000618 -0.14160657 -0.82113314
v 0.00019827 -0.18722881 -0.79734576
v 0.00019827 -0.18211149 -0.80180031
v 0.01000991 -0.18215485 -0.80180031
v 0.01000991 -0.17009878 -0.81182307
v 0.02007639 -0.16003761 -0.81993037
v 0.03341341 -0.15977740 -0.81975222
v 0.34203380 -0.24087396 -0.66121441
v 0.33001348 -0.23514950 -0.67426628
v 0.31752595 -0.21893018 -0.69885546
v 0.33001348 -0.22517505 -0.68589264
v 0.29000241 -0.21511388 -0.71480274
v 0.30486852 -0.20210373 -0.72210824
v 0.29000241 -0.20509607 -0.72518188
v 0.24999136 -0.20279762 -0.74277741
v 0.24999136 -0.19225940 -0.75275558
v 0.26069495 -0.18024670 -0.76019472
v 0.26795810 -0.18913697 -0.74919194
v 0.27517879 -0.19807060 -0.73810011
v 0.19005971 -0.17005542 -0.78995121
v 0.19434965 -0.15825956 -0.79859304
v 0.21002276 -0.16797380 -0.78652120
v 0.21002276 -0.17786151 -0.77819115
v 0.22900891 -0.18610126 -0.76531744
v 0.22900891 -0.19564204 -0.75663108
v 0.22900891 -0.19603235 -0.75627470
v 0.22998582 -0.20622362 -0.74611831
v 0.35541329 -0.23788163 -0.65742803
v 0.36998206 -0.23445563 -0.65315163
v 0.38268197 -0.22135875 -0.66165984
v 0.38807625 -0.22907810 -0.64891982
v 0.43186754 -0.23597348 -0.61083329
v 0.42995620 -0.22504497 -0.62655795
v 0.43411872 -0.22391741 -0.62513244
v 0.40655270 -0.22344038 -0.64433163
v 0.41993219 -0.21992764 -0.64001071
v 0.31909752 -0.09945371 -0.79957306
v 0.31145209 -0.09173436 -0.80763578
v 0.33727664 -0.11840515 -0.77877021
v 0.33035329 -0.11103274 -0.78683299
v 0.37083155 -0.12994081 -0.75404745
v 0.35435143 -0.13657598 -0.75729924
v 0.34861737 -0.12994081 -0.76496112
v 0.43411872 -0.11354803 -0.73168552
v 0.43411872 -0.13466783 -0.71524823
v 0.42995620 -0.13601221 -0.71671820
v 0.41959238 -0.13978516 -0.71974730
v 0.38102549 -0.14069587 -0.74050558
v 0.40625536 -0.14438207 -0.72357821
v 0.38867092 -0.14923920 -0.72928005
v 0.30576050 -0.10348685 -0.80224580
v 0.28834590 -0.11012203 -0.80433941
v 0.26876512 -0.10847408 -0.81249124
v 0.26999688 -0.12300207 -0.80206758
v 0.24999136 -0.12768573 -0.80545306
v 0.23975497 -0.13995862 -0.79988486
v 0.22900891 -0.12903011 -0.81102127
v 0.22021666 -0.12013984 -0.82001948
v 0.17001170 -0.10418073 -0.84260410
v 0.15140784 -0.08908896 -0.85552233
v 0.17001170 -0.11415517 -0.83614498
v 0.19001724 -0.12564746 -0.82385039
v 0.21002276 -0.13206580 -0.81418401
v 0.19001724 -0.13566527 -0.81672311
v 0.13000064 -0.09390271 -0.85627961
v 0.12961836 -0.11146641 -0.84527683
v 0.11003757 -0.11003529 -0.84892958
v 0.09003204 -0.11003529 -0.85111231
v 0.03001544 -0.11107610 -0.85427505
v 0.09003204 -0.12356584 -0.84233683
v 0.07002650 -0.12486686 -0.84322774
v 0.03001544 -0.12634134 -0.84425229
v 0.07002650 -0.13488467 -0.83636773
v 0.05002098 -0.13579538 -0.83694679
v 0.03001544 -0.13635916 -0.83739227
v 0.00019827 -0.10127513 -0.86073416
v 0.01000991 -0.11133631 -0.85440868
v 0.00019827 -0.10639245 -0.85752690
v 0.02806161 -0.15188459 -0.82585496
v 0.09003204 -0.13358365 -0.83547682
v 0.11003757 -0.13189234 -0.83431864
v 0.18101262 -0.16034117 -0.80015212
v 0.16066729 -0.14021882 -0.82006401
v 0.12961836 -0.12842296 -0.83387315
v 0.15000618 -0.13002755 -0.82928497
v 0.00019827 -0.16008097 -0.82001948
v 0.01000991 -0.16008097 -0.82001948
v 0.01000991 -0.15006317 -0.82759225
v 0.34989160 -0.22994545 -0.67003441
v 0.34436989 -0.22196589 -0.68232900
v 0.31820554 -0.19915478 -0.71916825
v 0.33001348 -0.20613688 -0.70638365
v 0.33001348 -0.21615469 -0.69587088
v 0.29000241 -0.19503489 -0.73516011
v 0.31123972 -0.19056807 -0.73048282
v 0.24999136 -0.18228495 -0.76202106
v 0.25050104 -0.16901460 -0.77311295
v 0.25750935 -0.15895343 -0.77912658
v 0.26842535 -0.17044573 -0.76567382
v 0.27403197 -0.17742783 -0.75770015
v 0.29000241 -0.18501708 -0.74460375
v 0.21002276 -0.15561417 -0.79645485
v 0.18861558 -0.15097387 -0.80558670
v 0.21002276 -0.14559636 -0.80416125
v 0.22900891 -0.16394065 -0.78420478
v 0.22900891 -0.16459116 -0.78367025
v 0.22900891 -0.17404521 -0.77578568
v 0.22900891 -0.17452224 -0.77538478
v 0.22900891 -0.18549412 -0.76585203
v 0.36998206 -0.22443782 -0.66535711
v 0.39601898 -0.21788938 -0.65765077
v 0.35766447 -0.21884346 -0.67880988
v 0.36998206 -0.21572103 -0.67533535
v 0.38998762 -0.20999657 -0.67007899
v 0.43411872 -0.21853989 -0.63190341
v 0.41194698 -0.21524398 -0.65056801
v 0.42150375 -0.20084609 -0.66103619
v 0.42889434 -0.20618024 -0.64998889
v 0.43411872 -0.20505270 -0.64776164
v 0.42995620 -0.21706541 -0.63653612
v 0.32393962 -0.12239493 -0.78166568
v 0.31145209 -0.11012203 -0.79538572
v 0.34105688 -0.14065249 -0.76046199
v 0.33035329 -0.12942040 -0.77360296
v 0.36998206 -0.14425197 -0.74335647
v 0.34899962 -0.14945602 -0.74950379
v 0.43411872 -0.13805047 -0.71248639
v 0.43411872 -0.14741777 -0.70464635
v 0.42872444 -0.14984633 -0.70584911
v 0.41173458 -0.15062694 -0.71507001
v 0.36998206 -0.15426978 -0.73511553
v 0.39635879 -0.15769579 -0.71796548
v 0.38302177 -0.16190240 -0.72161824
v 0.29391009 -0.11680056 -0.79770213
v 0.28057307 -0.12031330 -0.80015212
v 0.28966263 -0.12985408 -0.78986210
v 0.26999688 -0.13293314 -0.79476213
v 0.24999136 -0.13766016 -0.79819214
v 0.22641796 -0.14256065 -0.80188942
v 0.25050104 -0.15140755 -0.78736752
v 0.24417233 -0.16168556 -0.78130937
v 0.23185471 -0.14954276 -0.79476213
v 0.22900891 -0.15032338 -0.79502940
v 0.22900891 -0.14585656 -0.79854846
v 0.15000618 -0.10721643 -0.84451956
v 0.16839767 -0.13093826 -0.82496405
v 0.15000618 -0.11719087 -0.83806044
v 0.17396183 -0.13822393 -0.81863856
v 0.13603202 -0.11909902 -0.83930773
v 0.12269501 -0.12066025 -0.84033227
v 0.11003757 -0.12191789 -0.84122318
v 0.01000991 -0.12660155 -0.84438592
v 0.01000991 -0.13657598 -0.83752590
v 0.00019827 -0.11129294 -0.85440868
v 0.00019827 -0.14338462 -0.83244771
v 0.00019827 -0.13653262 -0.83752590
v 0.35146314 -0.21073380 -0.69083720
v 0.33001348 -0.18636146 -0.72611731
v 0.33001348 -0.19637927 -0.71636188
v 0.34526187 -0.20258078 -0.70268637
v 0.30423141 -0.18189465 -0.74175286
v 0.31756842 -0.17877221 -0.73890191
v 0.26999688 -0.14620349 -0.78478390
v 0.26999688 -0.15622130 -0.77689934
v 0.29000241 -0.16389729 -0.76322383
v 0.29000241 -0.17382836 -0.75462651
v 0.40995067 -0.20409863 -0.66459984
v 0.36998206 -0.20574658 -0.68620449
v 0.38395622 -0.20210373 -0.68228447
v 0.39729324 -0.19846091 -0.67845356
v 0.43411872 -0.21567765 -0.63528883
v 0.43411872 -0.19598897 -0.65805167
v 0.43411872 -0.19802722 -0.65586895
v 0.40995067 -0.19473132 -0.67462260
v 0.42838466 -0.18900687 -0.66905445
v 0.30996549 -0.12629798 -0.78451663
v 0.30996549 -0.13627242 -0.77712208
v 0.33001348 -0.14377493 -0.76286745
v 0.34364784 -0.16207586 -0.74175286
v 0.33001348 -0.15379274 -0.75480473
v 0.35698485 -0.15821619 -0.73845649
v 0.43411872 -0.15578763 -0.69747454
v 0.42124891 -0.16086158 -0.70072633
v 0.36998206 -0.16580544 -0.72509277
v 0.40995067 -0.16446106 -0.70402271
v 0.39737821 -0.17842528 -0.69854361
v 0.39019999 -0.17018552 -0.71008092
v 0.36998206 -0.17577988 -0.71609455
v 0.29866725 -0.13939485 -0.77943844
v 0.28533021 -0.14264739 -0.78197753
v 0.00019827 -0.13163213 -0.84091139
v 0.00019827 -0.12655817 -0.84438592
v 0.35859889 -0.19928488 -0.69925636
v 0.34513444 -0.18267526 -0.72250915
v 0.33001348 -0.17560641 -0.73609555
v 0.35188788 -0.19095838 -0.71092731
v 0.30215016 -0.16107842 -0.76081836
v 0.30988052 -0.16992532 -0.74990469
v 0.31548718 -0.15769579 -0.75805652
v 0.33001348 -0.16567534 -0.74482650
v 0.29119170 -0.14958613 -0.77427113
v 0.36998206 -0.19616245 -0.69613814
v 0.38404119 -0.18232833 -0.70228547
v 0.39066720 -0.19039461 -0.69039178
v 0.40995067 -0.18471351 -0.68482357
v 0.43411872 -0.18718544 -0.66727257
v 0.42192852 -0.18115741 -0.68121535
v 0.43411872 -0.17898905 -0.67569172
v 0.30928588 -0.15062694 -0.76625293
v 0.35103840 -0.17061919 -0.73048282
v 0.35847145 -0.17911915 -0.71921277
v 0.43411872 -0.15726212 -0.69613814
v 0.42821473 -0.16888450 -0.68901086
v 0.36998206 -0.18618800 -0.70607179
v 0.43411872 -0.17560641 -0.67903262
v 0.43411872 -0.16706309 -0.68705082
f 1 2 10
f 1 10 21
f 1 21 39
f 1 39 59
f 1 59 85
f 1 85 137
f 1 137 198
f 1 198 275
f 1 275 356
f 1 356 447
f 1 447 535
f 1 535 466
f 1 466 465
f 1 465 375
f 1 375 292
f 1 292 217
f 1 217 155
f 1 155 101
f 1 101 70
f 1 70 47
f 1 47 28
f 1 28 14
f 1 14 3
f 1 3 4
f 1 4 5
f 1 5 6
f 1 6 7
f 1 7 8
f 1 8 9
f 1 9 2
f 2 9 11
f 2 11 12
f 2 12 13
f 2 13 10
f 3 14 30
f 3 30 51
f 3 51 76
f 3 76 126
f 3 126 185
f 3 185 260
f 3 260 341
f 3 341 340
f 3 340 428
f 3 428 427
f 3 427 520
f 3 520 604
f 3 604 606
f 3 606 687
f 3 687 774
f 3 774 773
f 3 773 859
f 3 859 944
f 3 944 946
f 3 946 1022
f 3 1022 1060
f 3 1060 1059
f 3 1059 1024
f 3 1024 1023
f 3 1023 954
f 3 954 871
f 3 871 870
f 3 870 784
f 3 784 698
f 3 698 697
f 3 697 688
f 3 688 608
f 3 608 607
f 3 607 522
f 3 522 521
f 3 521 430
f 3 430 429
f 3 429 342
f 3 342 261
f 3 261 187
f 3 187 186
f 3 186 129
f 3 129 128
f 3 128 127
f 3 127 77
f 3 77 52
f 3 52 32
f 3 32 31
f 3 31 15
f 3 15 4
f 4 15 5
f 5 15 16
f 5 16 17
f 5 17 6
f 6 8 7
f 6 17 8
f 8 17 18
f 8 18 19
f 8 19 20
f 8 20 9
f 9 20 11
f 10 13 22
f 10 22 23
f 10 23 24
f 10 24 21
f 11 20 25
f 11 25 12
f 12 25 26
f 12 26 13
f 13 26 27
f 13 27 22
f 14 28 29
f 14 29 30
f 15 31 16
f 16 31 32
f 16 32 33
f 16 33 34
f 16 34 17
f 17 34 35
f 17 35 18
f 18 35 19
f 19 35 36
f 19 36 37
f 19 37 38
f 19 38 25
f 19 25 20
f 21 24 39
f 22 40 23
f 22 27 40
f 23 40 41
f 23 41 24
f 24 41 42
f 24 42 43
f 24 43 39
f 25 38 44
f 25 44 26
f 26 44 27
f 27 45 40
f 27 44 46
f 27 46 45
f 28 47 71
f 28 71 105
f 28 105 160
f 28 160 225
f 28 225 300
f 28 300 304
f 28 304 387
f 28 387 479
f 28 479 559
f 28 559 560
f 28 560 648
f 28 648 729
f 28 729 817
f 28 817 902
f 28 902 983
f 28 983 1039
f 28 1039 987
f 28 987 1041
f 28 1041 1040
f 28 1040 1074
f 28 1074 1076
f 28 1076 1083
f 28 1083 1084
f 28 1084 1080
f 28 1080 1050
f 28 1050 996
f 28 996 995
f 28 995 913
f 28 913 829
f 28 829 912
f 28 912 826
f 28 826 741
f 28 741 740
f 28 740 659
f 28 659 573
f 28 573 657
f 28 657 569
f 28 569 487
f 28 487 403
f 28 403 318
f 28 318 237
f 28 237 166
f 28 166 108
f 28 108 72
f 28 72 49
f 28 49 29
f 29 48 30
f 29 49 73
f 29 73 107
f 29 107 165
f 29 165 236
f 29 236 317
f 29 317 402
f 29 402 496
f 29 496 579
f 29 579 580
f 29 580 497
f 29 497 404
f 29 404 319
f 29 319 238
f 29 238 168
f 29 168 109
f 29 109 74
f 29 74 50
f 29 50 48
f 30 48 50
f 30 50 74
f 30 74 51
f 32 52 33
f 33 52 77
f 33 77 53
f 33 53 34
f 34 53 54
f 34 54 35
f 35 54 55
f 35 55 36
f 36 55 56
f 36 56 37
f 37 56 57
f 37 57 58
f 37 58 38
f 38 58 44
f 39 43 60
f 39 60 61
f 39 61 59
f 40 62 41
f 40 45 62
f 41 62 42
f 42 63 43
f 42 62 64
f 42 64 63
f 43 65 61
f 43 61 60
f 43 63 65
f 44 58 66
f 44 66 46
f 45 46 67
f 45 67 68
f 45 68 62
f 46 66 69
f 46 69 67
f 47 70 71
f 49 72 73
f 51 74 75
f 51 75 76
f 53 77 78
f 53 78 54
f 54 78 79
f 54 79 80
f 54 80 55
f 55 80 56
f 56 80 81
f 56 81 82
f 56 82 57
f 57 83 58
f 57 82 83
f 58 83 66
f 59 84 85
f 59 61 86
f 59 86 87
f 59 87 88
f 59 88 89
f 59 89 90
f 59 90 84
f 61 91 92
f 61 92 86
f 61 65 91
f 62 68 64
f 63 93 65
f 63 64 94
f 63 94 93
f 64 68 95
f 64 95 94
f 65 93 96
f 65 96 91
f 66 83 69
f 67 97 68
f 67 69 98
f 67 98 97
f 68 97 99
f 68 99 95
f 69 83 100
f 69 100 98
f 70 101 102
f 70 102 103
f 70 103 71
f 71 103 104
f 71 104 105
f 72 106 107
f 72 107 73
f 72 108 106
f 74 109 110
f 74 110 111
f 74 111 112
f 74 112 113
f 74 113 114
f 74 114 115
f 74 115 116
f 74 116 117
f 74 117 118
f 74 118 119
f 74 119 120
f 74 120 121
f 74 121 122
f 74 122 75
f 75 122 123
f 75 123 124
f 75 124 76
f 76 124 125
f 76 125 126
f 77 127 78
f 78 127 128
f 78 128 129
f 78 129 130
f 78 130 131
f 78 131 79
f 79 131 80
f 80 131 132
f 80 132 81
f 81 132 133
f 81 133 82
f 82 133 134
f 82 134 135
f 82 135 136
f 82 136 83
f 83 136 100
f 84 137 85
f 84 90 138
f 84 138 137
f 86 92 87
f 87 92 88
f 88 92 139
f 88 139 140
f 88 140 89
f 89 141 90
f 89 140 141
f 90 141 138
f 91 96 142
f 91 142 143
f 91 143 144
f 91 144 139
f 91 139 92
f 93 145 96
f 93 94 145
f 94 146 145
f 94 95 147
f 94 147 146
f 95 99 148
f 95 148 147
f 96 145 142
f 97 98 149
f 97 149 99
f 98 100 150
f 98 150 151
f 98 151 149
f 99 149 152
f 99 152 148
f 100 136 153
f 100 153 154
f 100 154 150
f 101 155 156
f 101 156 102
f 102 156 157
f 102 157 158
f 102 158 159
f 102 159 103
f 103 159 104
f 104 160 105
f 104 159 161
f 104 161 160
f 106 162 163
f 106 163 107
f 106 108 164
f 106 164 162
f 107 163 165
f 108 166 167
f 108 167 164
f 109 168 169
f 109 169 170
f 109 170 110
f 110 170 171
f 110 171 111
f 111 172 173
f 111 173 112
f 111 171 174
f 111 174 172
f 112 173 113
f 113 173 114
f 114 173 175
f 114 175 176
f 114 176 115
f 115 176 116
f 116 176 177
f 116 177 117
f 117 177 178
f 117 178 118
f 118 178 179
f 118 179 180
f 118 180 119
f 119 181 182
f 119 182 120
f 119 180 181
f 120 182 121
f 121 182 123
f 121 123 122
f 123 182 183
f 123 183 124
f 124 183 125
f 125 183 184
f 125 184 185
f 125 185 126
f 129 186 130
f 130 186 187
f 130 187 188
f 130 188 189
f 130 189 131
f 131 189 132
f 132 189 190
f 132 190 133
f 133 190 191
f 133 191 192
f 133 192 193
f 133 193 134
f 134 193 135
f 135 194 153
f 135 153 136
f 135 193 195
f 135 195 196
f 135 196 194
f 137 138 197
f 137 197 198
f 138 141 199
f 138 199 197
f 139 200 201
f 139 201 140
f 139 144 202
f 139 202 203
f 139 203 200
f 140 201 141
f 141 204 199
f 141 201 204
f 142 145 143
f 143 205 202
f 143 202 144
f 143 145 206
f 143 206 205
f 145 146 207
f 145 207 206
f 146 147 208
f 146 208 209
f 146 209 207
f 147 148 210
f 147 210 211
f 147 211 208
f 148 152 212
f 148 212 210
f 149 151 213
f 149 213 152
f 150 154 214
f 150 214 151
f 151 214 215
f 151 215 213
f 152 213 212
f 153 194 154
f 154 194 216
f 154 216 214
f 155 217 156
f 156 218 219
f 156 219 157
f 156 217 218
f 157 219 220
f 157 220 158
f 158 221 159
f 158 220 222
f 158 222 223
f 158 223 221
f 159 221 161
f 160 161 224
f 160 224 225
f 161 221 226
f 161 226 227
f 161 227 228
f 161 228 224
f 162 164 229
f 162 229 163
f 163 230 231
f 163 231 165
f 163 229 232
f 163 232 230
f 164 167 166
f 164 166 233
f 164 233 234
f 164 234 235
f 164 235 229
f 165 231 236
f 166 237 233
f 168 238 169
f 169 238 239
f 169 239 240
f 169 240 241
f 169 241 242
f 169 242 170
f 170 242 243
f 170 243 171
f 171 243 244
f 171 244 174
f 172 174 245
f 172 245 246
f 172 246 247
f 172 247 248
f 172 248 175
f 172 175 173
f 174 244 245
f 175 248 176
f 176 248 249
f 176 249 177
f 177 249 250
f 177 250 178
f 178 250 251
f 178 251 179
f 179 251 180
f 180 252 181
f 180 251 253
f 180 253 254
f 180 254 252
f 181 252 182
f 182 252 255
f 182 255 183
f 183 255 256
f 183 256 257
f 183 257 184
f 184 257 258
f 184 258 259
f 184 259 260
f 184 260 185
f 187 261 262
f 187 262 188
f 188 262 263
f 188 263 189
f 189 263 190
f 190 263 264
f 190 264 265
f 190 265 191
f 191 265 192
f 192 266 193
f 192 265 267
f 192 267 268
f 192 268 269
f 192 269 266
f 193 266 195
f 194 196 270
f 194 270 216
f 195 266 271
f 195 271 196
f 196 271 272
f 196 272 270
f 197 199 273
f 197 273 274
f 197 274 198
f 198 274 275
f 199 204 273
f 200 203 276
f 200 276 277
f 200 277 278
f 200 278 201
f 201 278 204
f 202 205 203
f 203 205 279
f 203 279 276
f 204 280 273
f 204 278 280
f 205 206 279
f 206 207 281
f 206 281 282
f 206 282 279
f 207 209 281
f 208 211 283
f 208 283 209
f 209 284 281
f 209 283 285
f 209 285 284
f 210 283 211
f 210 212 283
f 212 286 287
f 212 287 283
f 212 213 288
f 212 288 289
f 212 289 286
f 213 215 290
f 213 290 288
f 214 216 291
f 214 291 215
f 215 291 290
f 216 270 291
f 217 292 218
f 218 292 293
f 218 293 294
f 218 294 219
f 219 294 295
f 219 295 220
f 220 295 222
f 221 223 226
f 222 296 297
f 222 297 298
f 222 298 299
f 222 299 223
f 222 295 296
f 223 299 226
f 224 228 300
f 224 300 225
f 226 299 301
f 226 301 302
f 226 302 227
f 227 302 303
f 227 303 228
f 228 303 304
f 228 304 300
f 229 305 232
f 229 235 305
f 230 232 305
f 230 305 306
f 230 306 307
f 230 307 308
f 230 308 309
f 230 309 231
f 231 309 236
f 233 237 310
f 233 310 235
f 233 235 234
f 235 310 311
f 235 311 312
f 235 312 313
f 235 313 314
f 235 314 315
f 235 315 305
f 236 309 316
f 236 316 317
f 237 318 310
f 238 319 239
f 239 319 240
f 240 319 320
f 240 320 321
f 240 321 322
f 240 322 241
f 241 323 243
f 241 243 242
f 241 322 324
f 241 324 325
f 241 325 326
f 241 326 323
f 243 323 244
f 244 323 327
f 244 327 245
f 245 327 246
f 246 327 328
f 246 328 329
f 246 329 247
f 247 330 248
f 247 329 331
f 247 331 330
f 248 330 249
f 249 330 250
f 250 330 332
f 250 332 253
f 250 253 251
f 252 254 256
f 252 256 255
f 253 332 333
f 253 333 334
f 253 334 335
f 253 335 254
f 254 335 256
f 256 335 336
f 256 336 258
f 256 258 257
f 258 336 337
f 258 337 338
f 258 338 259
f 259 338 339
f 259 339 340
f 259 340 341
f 259 341 260
f 261 342 262
f 262 342 343
f 262 343 344
f 262 344 263
f 263 344 264
f 264 344 345
f 264 345 265
f 265 345 267
f 266 269 346
f 266 346 271
f 267 345 347
f 267 347 268
f 268 348 269
f 268 347 349
f 268 349 350
f 268 350 348
f 269 348 346
f 270 351 291
f 270 272 352
f 270 352 351
f 271 346 353
f 271 353 272
f 272 353 443
f 272 443 352
f 273 354 274
f 273 280 354
f 274 355 356
f 274 356 275
f 274 354 355
f 276 279 357
f 276 357 358
f 276 358 277
f 277 359 278
f 277 358 359
f 278 359 360
f 278 360 361
f 278 361 280
f 279 282 357
f 280 361 354
f 281 284 362
f 281 362 282
f 282 362 363
f 282 363 364
f 282 364 357
f 283 287 365
f 283 365 285
f 284 366 362
f 284 285 367
f 284 367 366
f 285 365 368
f 285 368 367
f 286 365 287
f 286 289 369
f 286 369 365
f 288 290 370
f 288 370 289
f 289 370 371
f 289 371 369
f 290 291 372
f 290 372 373
f 290 373 370
f 291 351 374
f 291 374 372
f 292 375 376
f 292 376 293
f 293 376 294
f 294 376 377
f 294 377 295
f 295 377 378
f 295 378 296
f 296 379 380
f 296 380 297
f 296 378 379
f 297 381 382
f 297 382 298
f 297 380 381
f 298 382 299
f 299 382 383
f 299 383 301
f 301 383 384
f 301 384 385
f 301 385 386
f 301 386 302
f 302 386 303
f 303 387 304
f 303 386 388
f 303 388 387
f 305 315 306
f 306 315 307
f 307 389 390
f 307 390 308
f 307 315 391
f 307 391 392
f 307 392 393
f 307 393 389
f 308 390 394
f 308 394 309
f 309 394 316
f 310 318 395
f 310 395 396
f 310 396 311
f 311 396 312
f 312 314 313
f 312 396 397
f 312 397 398
f 312 398 314
f 314 399 400
f 314 400 392
f 314 392 391
f 314 391 315
f 314 398 399
f 316 401 317
f 316 394 401
f 317 401 402
f 318 403 395
f 319 404 320
f 320 405 406
f 320 406 321
f 320 404 405
f 321 406 407
f 321 407 408
f 321 408 322
f 322 408 324
f 323 326 327
f 324 409 325
f 324 408 410
f 324 410 411
f 324 411 412
f 324 412 409
f 325 409 326
f 326 409 413
f 326 413 414
f 326 414 415
f 326 415 327
f 327 415 328
f 328 415 416
f 328 416 329
f 329 416 417
f 329 417 331
f 330 331 418
f 330 418 332
f 331 417 419
f 331 419 418
f 332 418 333
f 333 418 420
f 333 420 421
f 333 421 334
f 334 421 422
f 334 422 335
f 335 422 423
f 335 423 337
f 335 337 336
f 337 423 424
f 337 424 338
f 338 424 425
f 338 425 339
f 339 425 426
f 339 426 427
f 339 427 428
f 339 428 340
f 342 429 343
f 343 429 430
f 343 430 431
f 343 431 432
f 343 432 344
f 344 432 433
f 344 433 345
f 345 433 347
f 346 348 434
f 346 434 353
f 347 433 437
f 347 437 349
f 348 435 434
f 348 350 436
f 348 436 435
f 349 437 438
f 349 438 439
f 349 439 350
f 350 439 440
f 350 440 441
f 350 441 436
f 351 352 442
f 351 442 374
f 352 443 442
f 353 434 444
f 353 444 443
f 354 361 445
f 354 445 355
f 355 445 446
f 355 446 447
f 355 447 356
f 357 448 358
f 357 364 448
f 358 448 449
f 358 449 450
f 358 450 359
f 359 450 360
f 360 450 451
f 360 451 361
f 361 451 445
f 362 366 363
f 363 452 453
f 363 453 364
f 363 366 454
f 363 454 452
f 364 453 448
f 365 369 455
f 365 455 368
f 366 367 456
f 366 456 454
f 367 457 456
f 367 368 457
f 368 455 458
f 368 458 457
f 369 371 455
f 370 373 459
f 370 459 371
f 371 459 460
f 371 460 461
f 371 461 455
f 372 374 462
f 372 462 373
f 373 462 463
f 373 463 459
f 374 442 464
f 374 464 462
f 375 465 376
f 376 451 377
f 376 465 466
f 376 466 467
f 376 467 451
f 377 451 378
f 378 451 468
f 378 468 450
f 378 450 379
f 379 450 380
f 380 450 449
f 380 449 448
f 380 448 469
f 380 469 381
f 381 469 470
f 381 470 471
f 381 471 472
f 381 472 382
f 382 472 384
f 382 384 383
f 384 472 473
f 384 473 474
f 384 474 475
f 384 475 385
f 385 475 386
f 386 475 476
f 386 476 477
f 386 477 388
f 387 388 478
f 387 478 479
f 388 477 480
f 388 480 478
f 389 393 481
f 389 481 482
f 389 482 483
f 389 483 390
f 390 483 484
f 390 484 394
f 392 485 393
f 392 400 486
f 392 486 485
f 393 485 481
f 394 484 401
f 395 403 487
f 395 487 396
f 396 487 397
f 397 487 488
f 397 488 398
f 398 488 489
f 398 489 490
f 398 490 491
f 398 491 399
f 399 492 400
f 399 491 493
f 399 493 492
f 400 492 486
f 401 494 402
f 401 484 494
f 402 495 496
f 402 494 495
f 404 497 405
f 405 498 406
f 405 497 498
f 406 498 499
f 406 499 500
f 406 500 407
f 407 500 501
f 407 501 502
f 407 502 408
f 408 502 410
f 409 412 413
f 410 502 503
f 410 503 411
f 411 503 504
f 411 504 505
f 411 505 506
f 411 506 412
f 412 506 413
f 413 506 507
f 413 507 414
f 414 508 415
f 414 507 509
f 414 509 508
f 415 508 510
f 415 510 416
f 416 510 511
f 416 511 417
f 417 511 419
f 418 419 420
f 419 511 512
f 419 512 420
f 420 512 513
f 420 513 421
f 421 513 514
f 421 514 422
f 422 514 515
f 422 515 423
f 423 515 424
f 424 515 516
f 424 516 517
f 424 517 518
f 424 518 425
f 425 518 519
f 425 519 426
f 426 519 520
f 426 520 427
f 430 521 431
f 431 521 522
f 431 522 523
f 431 523 524
f 431 524 432
f 432 524 433
f 433 524 437
f 434 435 525
f 434 525 526
f 434 526 444
f 435 436 525
f 436 441 527
f 436 527 528
f 436 528 525
f 437 524 438
f 438 529 530
f 438 530 439
f 438 524 529
f 439 530 440
f 440 530 622
f 440 622 531
f 440 531 532
f 440 532 441
f 441 532 527
f 442 443 533
f 442 533 464
f 443 444 534
f 443 534 533
f 444 526 534
f 445 451 467
f 445 467 446
f 446 467 466
f 446 466 535
f 446 535 447
f 448 470 469
f 448 453 470
f 450 468 451
f 452 536 470
f 452 470 453
f 452 454 537
f 452 537 536
f 454 456 538
f 454 538 537
f 455 461 539
f 455 539 458
f 456 457 540
f 456 540 538
f 457 458 541
f 457 541 540
f 458 539 542
f 458 542 541
f 459 463 543
f 459 543 460
f 460 544 461
f 460 543 545
f 460 545 546
f 460 546 544
f 461 544 539
f 462 464 547
f 462 547 463
f 463 547 548
f 463 548 549
f 463 549 543
f 464 533 550
f 464 550 551
f 464 551 547
f 470 536 552
f 470 552 471
f 471 552 473
f 471 473 472
f 473 552 553
f 473 553 554
f 473 554 474
f 474 554 475
f 475 554 555
f 475 555 556
f 475 556 476
f 476 556 557
f 476 557 477
f 477 557 558
f 477 558 480
f 478 480 479
f 479 480 559
f 480 558 560
f 480 560 559
f 481 561 482
f 481 485 562
f 481 562 563
f 481 563 561
f 482 561 564
f 482 564 565
f 482 565 483
f 483 565 566
f 483 566 484
f 484 566 494
f 485 486 562
f 486 492 567
f 486 567 568
f 486 568 562
f 487 569 488
f 488 570 490
f 488 490 489
f 488 569 571
f 488 571 570
f 490 572 493
f 490 493 491
f 490 570 573
f 490 573 574
f 490 574 575
f 490 575 576
f 490 576 572
f 492 493 567
f 493 572 577
f 493 577 567
f 494 566 578
f 494 578 498
f 494 498 495
f 495 498 579
f 495 579 496
f 497 580 498
f 498 578 581
f 498 581 500
f 498 500 499
f 498 580 579
f 500 581 582
f 500 582 501
f 501 582 583
f 501 583 584
f 501 584 502
f 502 584 503
f 503 584 585
f 503 585 504
f 504 585 586
f 504 586 587
f 504 587 588
f 504 588 505
f 505 589 506
f 505 588 590
f 505 590 589
f 506 589 507
f 507 589 591
f 507 591 509
f 508 509 592
f 508 592 510
f 509 591 593
f 509 593 594
f 509 594 592
f 510 592 595
f 510 595 511
f 511 595 596
f 511 596 512
f 512 596 597
f 512 597 513
f 513 597 598
f 513 598 599
f 513 599 514
f 514 599 515
f 515 599 516
f 516 599 600
f 516 600 601
f 516 601 602
f 516 602 517
f 517 602 518
f 518 602 603
f 518 603 519
f 519 604 520
f 519 603 605
f 519 605 606
f 519 606 604
f 522 607 523
f 523 607 608
f 523 608 609
f 523 609 524
f 524 609 529
f 525 528 610
f 525 610 611
f 525 611 526
f 526 612 534
f 526 611 612
f 527 532 613
f 527 613 614
f 527 614 615
f 527 615 528
f 528 616 610
f 528 615 617
f 528 617 618
f 528 618 616
f 529 609 619
f 529 619 620
f 529 620 530
f 530 620 621
f 530 621 622
f 531 622 623
f 531 623 624
f 531 624 532
f 532 624 625
f 532 625 613
f 533 534 550
f 534 612 626
f 534 626 550
f 536 537 627
f 536 627 552
f 537 538 628
f 537 628 627
f 538 540 629
f 538 629 628
f 539 544 630
f 539 630 542
f 540 541 631
f 540 631 629
f 541 542 632
f 541 632 631
f 542 630 632
f 543 549 545
f 544 546 633
f 544 633 634
f 544 634 630
f 545 549 635
f 545 635 546
f 546 635 633
f 547 551 636
f 547 636 637
f 547 637 638
f 547 638 548
f 548 638 549
f 549 638 639
f 549 639 640
f 549 640 635
f 550 626 641
f 550 641 551
f 551 641 636
f 552 627 553
f 553 627 642
f 553 642 643
f 553 643 554
f 554 643 644
f 554 644 645
f 554 645 555
f 555 645 646
f 555 646 556
f 556 646 647
f 556 647 557
f 557 647 558
f 558 648 560
f 558 647 649
f 558 649 650
f 558 650 648
f 561 651 564
f 561 563 652
f 561 652 651
f 562 653 563
f 562 568 654
f 562 654 653
f 563 653 652
f 564 583 582
f 564 582 565
f 564 651 583
f 565 582 581
f 565 581 566
f 566 581 578
f 567 655 654
f 567 654 568
f 567 577 656
f 567 656 655
f 569 657 571
f 570 571 573
f 571 657 573
f 572 576 658
f 572 658 577
f 573 659 574
f 574 659 575
f 575 659 660
f 575 660 576
f 576 660 661
f 576 661 662
f 576 662 663
f 576 663 658
f 577 658 656
f 583 651 664
f 583 664 584
f 584 664 585
f 585 664 665
f 585 665 586
f 586 665 666
f 586 666 587
f 587 667 588
f 587 666 668
f 587 668 669
f 587 669 667
f 588 667 590
f 589 590 670
f 589 670 591
f 590 667 671
f 590 671 672
f 590 672 670
f 591 670 593
f 592 594 673
f 592 673 595
f 593 674 594
f 593 670 672
f 593 672 675
f 593 675 676
f 593 676 677
f 593 677 674
f 594 674 673
f 595 673 678
f 595 678 596
f 596 678 679
f 596 679 597
f 597 679 680
f 597 680 598
f 598 680 681
f 598 681 599
f 599 681 600
f 600 681 682
f 600 682 683
f 600 683 601
f 601 683 602
f 602 683 684
f 602 684 685
f 602 685 603
f 603 685 686
f 603 686 605
f 605 686 606
f 606 686 687
f 608 688 609
f 609 688 619
f 610 689 611
f 610 616 689
f 611 689 690
f 611 690 612
f 612 690 626
f 613 625 614
f 614 625 691
f 614 691 692
f 614 692 617
f 614 617 615
f 616 618 693
f 616 693 694
f 616 694 689
f 617 695 618
f 617 692 696
f 617 696 695
f 618 695 693
f 619 688 697
f 619 697 698
f 619 698 699
f 619 699 621
f 619 621 620
f 621 699 700
f 621 700 623
f 621 623 622
f 623 700 701
f 623 701 702
f 623 702 624
f 624 702 625
f 625 702 703
f 625 703 691
f 626 690 704
f 626 704 641
f 627 628 642
f 628 629 705
f 628 705 642
f 629 631 706
f 629 706 705
f 630 707 632
f 630 634 708
f 630 708 707
f 631 632 706
f 632 707 709
f 632 709 710
f 632 710 711
f 632 711 706
f 633 712 708
f 633 708 634
f 633 635 713
f 633 713 714
f 633 714 712
f 635 640 713
f 636 641 715
f 636 715 716
f 636 716 717
f 636 717 718
f 636 718 637
f 637 719 638
f 637 718 719
f 638 719 720
f 638 720 639
f 639 720 640
f 640 720 721
f 640 721 713
f 641 704 715
f 642 705 722
f 642 722 643
f 643 722 644
f 644 723 646
f 644 646 645
f 644 722 724
f 644 724 725
f 644 725 723
f 646 723 647
f 647 723 726
f 647 726 727
f 647 727 728
f 647 728 649
f 648 650 729
f 649 728 730
f 649 730 650
f 650 730 729
f 651 652 731
f 651 731 664
f 652 653 732
f 652 732 731
f 653 654 733
f 653 733 732
f 654 655 734
f 654 734 735
f 654 735 733
f 655 656 734
f 656 658 736
f 656 736 737
f 656 737 738
f 656 738 734
f 658 663 739
f 658 739 736
f 659 740 660
f 660 740 741
f 660 741 742
f 660 742 661
f 661 742 662
f 662 743 739
f 662 739 663
f 662 742 744
f 662 744 745
f 662 745 746
f 662 746 747
f 662 747 743
f 664 731 665
f 665 731 748
f 665 748 666
f 666 748 749
f 666 749 668
f 667 669 671
f 668 749 750
f 668 750 669
f 669 750 751
f 669 751 752
f 669 752 671
f 671 753 672
f 671 752 754
f 671 754 755
f 671 755 756
f 671 756 753
f 672 753 757
f 672 757 675
f 673 674 758
f 673 758 678
f 674 677 759
f 674 759 758
f 675 757 676
f 676 757 760
f 676 760 761
f 676 761 762
f 676 762 677
f 677 762 759
f 678 758 763
f 678 763 679
f 679 763 764
f 679 764 680
f 680 764 765
f 680 765 681
f 681 765 682
f 682 765 766
f 682 766 767
f 682 767 683
f 683 767 768
f 683 768 684
f 684 768 769
f 684 769 770
f 684 770 771
f 684 771 685
f 685 771 686
f 686 771 772
f 686 772 773
f 686 773 774
f 686 774 687
f 689 694 775
f 689 775 690
f 690 775 704
f 691 703 776
f 691 776 777
f 691 777 692
f 692 777 778
f 692 778 696
f 693 779 694
f 693 695 780
f 693 780 779
f 694 781 775
f 694 779 781
f 695 696 780
f 696 778 782
f 696 782 783
f 696 783 780
f 698 784 785
f 698 785 699
f 699 785 700
f 700 785 786
f 700 786 701
f 701 786 787
f 701 787 788
f 701 788 702
f 702 788 703
f 703 788 789
f 703 789 776
f 704 775 790
f 704 790 715
f 705 706 791
f 705 791 722
f 706 711 792
f 706 792 791
f 707 708 709
f 708 712 793
f 708 793 709
f 709 794 795
f 709 795 710
f 709 793 796
f 709 796 797
f 709 797 794
f 710 795 711
f 711 795 792
f 712 714 798
f 712 798 799
f 712 799 793
f 713 721 714
f 714 800 799
f 714 799 798
f 714 721 801
f 714 801 802
f 714 802 803
f 714 803 800
f 715 790 716
f 716 790 804
f 716 804 805
f 716 805 806
f 716 806 807
f 716 807 717
f 717 808 718
f 717 807 808
f 718 808 809
f 718 809 719
f 719 721 720
f 719 809 721
f 721 809 801
f 722 791 724
f 723 725 810
f 723 810 811
f 723 811 726
f 724 791 812
f 724 812 813
f 724 813 725
f 725 813 810
f 726 811 727
f 727 814 728
f 727 811 810
f 727 810 815
f 727 815 816
f 727 816 814
f 728 814 730
f 729 730 817
f 730 814 817
f 731 732 748
f 732 733 818
f 732 818 748
f 733 735 819
f 733 819 818
f 734 820 735
f 734 738 821
f 734 821 820
f 735 820 819
f 736 739 737
f 737 822 738
f 737 739 743
f 737 743 823
f 737 823 824
f 737 824 825
f 737 825 822
f 738 822 821
f 741 826 744
f 741 744 742
f 743 747 827
f 743 827 823
f 744 826 828
f 744 828 745
f 745 828 746
f 746 828 829
f 746 829 830
f 746 830 831
f 746 831 832
f 746 832 833
f 746 833 827
f 746 827 747
f 748 818 749
f 749 818 834
f 749 834 750
f 750 834 835
f 750 835 836
f 750 836 751
f 751 836 837
f 751 837 752
f 752 837 754
f 753 756 757
f 754 838 755
f 754 837 839
f 754 839 840
f 754 840 838
f 755 838 841
f 755 841 756
f 756 841 760
f 756 760 757
f 758 759 842
f 758 842 763
f 759 762 843
f 759 843 842
f 760 841 844
f 760 844 761
f 761 845 762
f 761 844 846
f 761 846 847
f 761 847 845
f 762 845 843
f 763 842 848
f 763 848 764
f 764 848 849
f 764 849 765
f 765 849 766
f 766 849 850
f 766 850 767
f 767 850 851
f 767 851 852
f 767 852 768
f 768 852 769
f 769 853 770
f 769 852 854
f 769 854 855
f 769 855 856
f 769 856 853
f 770 853 771
f 771 853 857
f 771 857 772
f 772 857 858
f 772 858 859
f 772 859 773
f 775 781 790
f 776 789 860
f 776 860 861
f 776 861 862
f 776 862 777
f 777 862 863
f 777 863 778
f 778 863 782
f 779 780 864
f 779 864 865
f 779 865 781
f 780 783 866
f 780 866 864
f 781 865 790
f 782 867 783
f 782 863 868
f 782 868 869
f 782 869 867
f 783 867 866
f 784 870 785
f 785 870 871
f 785 871 872
f 785 872 786
f 786 872 787
f 787 872 873
f 787 873 874
f 787 874 875
f 787 875 788
f 788 875 789
f 789 875 860
f 790 865 804
f 791 792 876
f 791 876 812
f 792 795 876
f 793 799 796
f 794 877 795
f 794 797 878
f 794 878 879
f 794 879 877
f 795 877 876
f 796 878 797
f 796 799 880
f 796 880 881
f 796 881 878
f 799 800 880
f 800 803 882
f 800 882 880
f 801 809 883
f 801 883 802
f 802 883 884
f 802 884 885
f 802 885 886
f 802 886 887
f 802 887 803
f 803 887 882
f 804 865 805
f 805 865 888
f 805 888 889
f 805 889 890
f 805 890 891
f 805 891 806
f 806 891 892
f 806 892 807
f 807 892 893
f 807 893 894
f 807 894 895
f 807 895 808
f 808 895 809
f 809 895 883
f 810 813 896
f 810 896 897
f 810 897 898
f 810 898 899
f 810 899 815
f 812 876 813
f 813 876 896
f 814 900 817
f 814 816 901
f 814 901 902
f 814 902 900
f 815 899 903
f 815 903 904
f 815 904 816
f 816 904 901
f 817 900 902
f 818 819 834
f 819 820 834
f 820 821 905
f 820 905 906
f 820 906 834
f 821 822 907
f 821 907 908
f 821 908 905
f 822 825 907
f 823 827 824
f 824 827 909
f 824 909 910
f 824 910 911
f 824 911 907
f 824 907 825
f 826 912 828
f 827 833 909
f 828 912 829
f 829 913 914
f 829 914 915
f 829 915 830
f 830 915 831
f 831 915 832
f 832 916 833
f 832 915 917
f 832 917 918
f 832 918 916
f 833 916 909
f 834 906 919
f 834 919 835
f 835 919 920
f 835 920 836
f 836 920 837
f 837 920 921
f 837 921 922
f 837 922 839
f 838 840 841
f 839 922 923
f 839 923 840
f 840 923 924
f 840 924 925
f 840 925 926
f 840 926 841
f 841 926 844
f 842 843 927
f 842 927 928
f 842 928 848
f 843 845 927
f 844 926 846
f 845 847 929
f 845 929 927
f 846 930 847
f 846 926 931
f 846 931 932
f 846 932 930
f 847 930 929
f 848 928 933
f 848 933 849
f 849 933 850
f 850 933 934
f 850 934 935
f 850 935 851
f 851 935 936
f 851 936 854
f 851 854 852
f 853 856 937
f 853 937 857
f 854 936 938
f 854 938 939
f 854 939 855
f 855 940 937
f 855 937 856
f 855 939 941
f 855 941 942
f 855 942 943
f 855 943 940
f 857 937 945
f 857 945 858
f 858 944 859
f 858 945 946
f 858 946 944
f 860 947 943
f 860 943 942
f 860 942 861
f 860 875 947
f 861 942 941
f 861 941 862
f 862 941 948
f 862 948 863
f 863 948 949
f 863 949 868
f 864 866 950
f 864 950 865
f 865 950 888
f 866 867 951
f 866 951 950
f 867 869 951
f 868 949 952
f 868 952 869
f 869 952 953
f 869 953 951
f 871 954 873
f 871 873 872
f 873 954 955
f 873 955 874
f 874 955 956
f 874 956 947
f 874 947 875
f 876 877 957
f 876 957 896
f 877 879 958
f 877 958 957
f 878 881 959
f 878 959 960
f 878 960 961
f 878 961 879
f 879 961 958
f 880 882 881
f 881 882 962
f 881 962 963
f 881 963 959
f 882 887 962
f 883 895 894
f 883 894 884
f 884 894 964
f 884 964 885
f 885 964 965
f 885 965 966
f 885 966 967
f 885 967 968
f 885 968 969
f 885 969 886
f 886 969 887
f 887 969 962
f 888 950 889
f 889 970 890
f 889 950 971
f 889 971 972
f 889 972 970
f 890 973 974
f 890 974 975
f 890 975 976
f 890 976 891
f 890 970 973
f 891 976 977
f 891 977 892
f 892 964 893
f 892 977 964
f 893 964 894
f 896 957 978
f 896 978 897
f 897 978 898
f 898 979 899
f 898 978 980
f 898 980 981
f 898 981 982
f 898 982 979
f 899 979 903
f 901 904 902
f 902 904 983
f 903 979 904
f 904 979 984
f 904 984 985
f 904 985 986
f 904 986 987
f 904 987 988
f 904 988 983
f 905 919 906
f 905 908 989
f 905 989 990
f 905 990 919
f 907 989 908
f 907 911 991
f 907 991 992
f 907 992 989
f 909 916 910
f 910 991 911
f 910 916 993
f 910 993 994
f 910 994 991
f 913 995 914
f 914 995 996
f 914 996 997
f 914 997 915
f 915 998 917
f 915 997 998
f 916 918 999
f 916 999 993
f 917 998 1000
f 917 1000 918
f 918 1000 1001
f 918 1001 999
f 919 990 1002
f 919 1002 920
f 920 1002 1003
f 920 1003 921
f 921 1003 922
f 922 1003 1004
f 922 1004 1005
f 922 1005 1006
f 922 1006 923
f 923 1006 924
f 924 1007 925
f 924 1006 1008
f 924 1008 1009
f 924 1009 1010
f 924 1010 1011
f 924 1011 1012
f 924 1012 1007
f 925 1007 926
f 926 1007 931
f 927 1013 928
f 927 929 1015
f 927 1015 1013
f 928 1013 933
f 929 930 1014
f 929 1014 953
f 929 953 1015
f 930 932 1016
f 930 1016 1014
f 931 1007 972
f 931 972 932
f 932 972 971
f 932 971 1016
f 933 1013 934
f 934 1013 1017
f 934 1017 1018
f 934 1018 935
f 935 1018 1019
f 935 1019 936
f 936 1019 938
f 937 940 1020
f 937 1020 945
f 938 1019 948
f 938 948 941
f 938 941 939
f 940 943 1020
f 943 947 956
f 943 956 1021
f 943 1021 1020
f 945 1022 946
f 945 1020 1060
f 945 1060 1022
f 948 1019 949
f 949 1019 1018
f 949 1018 952
f 950 951 1016
f 950 1016 971
f 951 953 1014
f 951 1014 1016
f 952 1018 1017
f 952 1017 953
f 953 1017 1015
f 954 1023 956
f 954 956 955
f 956 1023 1024
f 956 1024 1021
f 957 958 980
f 957 980 978
f 958 961 1025
f 958 1025 980
f 959 963 1026
f 959 1026 1027
f 959 1027 960
f 960 1028 961
f 960 1027 1028
f 961 1028 1025
f 962 969 1029
f 962 1029 963
f 963 1029 1030
f 963 1030 1026
f 964 977 976
f 964 976 965
f 965 976 1009
f 965 1009 966
f 966 1009 1008
f 966 1008 1031
f 966 1031 1032
f 966 1032 967
f 967 1032 1033
f 967 1033 968
f 968 1033 1034
f 968 1034 969
f 969 1034 1029
f 970 972 1007
f 970 1007 1012
f 970 1012 1011
f 970 1011 973
f 973 1009 974
f 973 1011 1009
f 974 1009 975
f 975 1009 976
f 979 982 1035
f 979 1035 985
f 979 985 984
f 980 1025 1036
f 980 1036 981
f 981 1036 1037
f 981 1037 982
f 982 1037 1038
f 982 1038 1035
f 983 988 1039
f 985 1040 1041
f 985 1041 986
f 985 1035 1038
f 985 1038 1042
f 985 1042 1043
f 985 1043 1040
f 986 1041 987
f 987 1039 988
f 989 1044 990
f 989 992 1045
f 989 1045 1044
f 990 1044 1002
f 991 1046 992
f 991 994 1047
f 991 1047 1048
f 991 1048 1046
f 992 1046 1045
f 993 999 1049
f 993 1049 994
f 994 1049 1047
f 996 1050 997
f 997 1050 1051
f 997 1051 1000
f 997 1000 998
f 999 1001 1052
f 999 1052 1049
f 1000 1051 1053
f 1000 1053 1054
f 1000 1054 1055
f 1000 1055 1001
f 1001 1055 1056
f 1001 1056 1052
f 1002 1044 1057
f 1002 1057 1004
f 1002 1004 1003
f 1004 1057 1058
f 1004 1058 1005
f 1005 1058 1031
f 1005 1031 1006
f 1006 1031 1008
f 1009 1011 1010
f 1013 1015 1017
f 1020 1021 1059
f 1020 1059 1060
f 1021 1024 1059
f 1025 1028 1061
f 1025 1061 1036
f 1026 1062 1027
f 1026 1030 1063
f 1026 1063 1062
f 1027 1062 1028
f 1028 1062 1064
f 1028 1064 1061
f 1029 1034 1065
f 1029 1065 1066
f 1029 1066 1030
f 1030 1066 1067
f 1030 1067 1068
f 1030 1068 1063
f 1031 1058 1032
f 1032 1069 1033
f 1032 1058 1069
f 1033 1065 1034
f 1033 1069 1065
f 1036 1061 1037
f 1037 1061 1070
f 1037 1070 1071
f 1037 1071 1072
f 1037 1072 1038
f 1038 1072 1054
f 1038 1054 1073
f 1038 1073 1042
f 1040 1043 1074
f 1042 1073 1075
f 1042 1075 1043
f 1043 1075 1076
f 1043 1076 1074
f 1044 1045 1057
f 1045 1046 1077
f 1045 1077 1057
f 1046 1048 1067
f 1046 1067 1077
f 1047 1049 1078
f 1047 1078 1062
f 1047 1062 1063
f 1047 1063 1068
f 1047 1068 1067
f 1047 1067 1048
f 1049 1052 1079
f 1049 1079 1078
f 1050 1080 1051
f 1051 1054 1053
f 1051 1080 1081
f 1051 1081 1054
f 1052 1056 1079
f 1054 1071 1056
f 1054 1056 1055
f 1054 1081 1075
f 1054 1075 1073
f 1054 1072 1071
f 1056 1071 1079
f 1057 1077 1065
f 1057 1065 1069
f 1057 1069 1058
f 1061 1064 1079
f 1061 1079 1082
f 1061 1082 1071
f 1061 1071 1070
f 1062 1078 1079
f 1062 1079 1064
f 1065 1077 1067
f 1065 1067 1066
f 1071 1082 1079
f 1075 1083 1076
f 1075 1081 1083
f 1080 1084 1081
f 1081 1084 1083
