v 0.28188998 -0.15154672 0.51445705
v -0.00015481 -0.19202709 0.51445705
v 0.28188998 -0.33893216 0.51445705
v 0.28188998 -0.23125863 0.30508918
v -0.29611796 -0.22790812 0.30088717
v -0.29611796 -0.15160763 0.50404614
v -0.00015481 -0.36759436 0.51445705
v 0.28188998 -0.45988595 0.34004304
v 0.27272424 -0.34079018 0.51445705
v 0.08997504 -0.44678846 0.44509283
v 0.11000390 -0.44444311 0.44306499
v 0.11000390 -0.45443374 0.43263319
v 0.13902877 -0.45982504 0.41948366
v 0.14994846 -0.45863712 0.41705865
v 0.16997732 -0.45537800 0.41325384
v 0.19628641 -0.45912448 0.39765841
v 0.20997846 -0.45632219 0.39412540
v 0.23560861 -0.45860666 0.37679479
v 0.25908875 -0.45976412 0.35925514
v 0.26995188 -0.45677912 0.35488591
v 0.28188998 -0.46168303 0.30508918
v -0.00015481 -0.24654919 0.30088717
v -0.29611796 -0.46223131 0.30088717
v -0.29611796 -0.33957183 0.50404614
v 0.00261754 -0.36759436 0.51445705
v -0.28910220 -0.34106433 0.50404614
v -0.26929966 -0.34508494 0.50404614
v -0.24994975 -0.34883144 0.50404614
v -0.23591824 -0.35132909 0.50404614
v -0.23043010 -0.35230380 0.50404614
v -0.20994861 -0.35565430 0.50404614
v -0.19031580 -0.35863933 0.50404614
v -0.16994748 -0.36144158 0.50404614
v -0.16972116 -0.36147204 0.50404614
v -0.14991862 -0.36403060 0.50404614
v -0.12949371 -0.36643690 0.50404614
v -0.02997179 -0.43765068 0.45893222
v -0.00999951 -0.43853402 0.45932943
v 0.28188998 -0.46031237 0.33874691
v 0.28064525 -0.46019053 0.34056568
v 0.26667032 -0.34197810 0.51445705
v 0.07000276 -0.44828096 0.44670254
v 0.07000276 -0.45827162 0.43591535
v 0.08997504 -0.45677912 0.43428472
v 0.25484535 -0.34420162 0.51445705
v 0.24992302 -0.34508494 0.51445705
v 0.23628755 -0.34739986 0.51445705
v 0.22961126 -0.34849638 0.51445705
v 0.12567620 -0.46055606 0.42117703
v 0.16997732 -0.46116525 0.40328196
v 0.18293384 -0.46049511 0.40110779
v 0.22231261 -0.46049511 0.38118494
v 0.24579278 -0.46098250 0.36343622
v 0.26995188 -0.46098250 0.34487218
v -0.00015481 -0.42906117 0.30088717
v 0.28188998 -0.46210948 0.30975106
v -0.27857858 -0.46137846 0.30088717
v -0.27393910 -0.46086067 0.30088717
v -0.29611796 -0.46238363 0.30389756
v -0.29611796 -0.45635268 0.33400136
v -0.29425088 -0.45714462 0.33462852
v -0.26997861 -0.45708370 0.35530400
v -0.25956813 -0.45988595 0.35967323
v -0.23597480 -0.45875895 0.37704566
v -0.20994861 -0.45662680 0.39427173
v -0.19619998 -0.45918539 0.39767930
v -0.16994748 -0.45556074 0.41300300
v -0.14991862 -0.45857620 0.41670325
v -0.13865946 -0.45979458 0.41925371
v -0.10997406 -0.44450402 0.44321135
v -0.09000178 -0.44681892 0.44526008
v -0.00015481 -0.43850353 0.45932943
v 0.00997277 -0.36756390 0.51445705
v -0.06997292 -0.44831145 0.44689068
v -0.05000064 -0.44922519 0.44812411
v -0.02997179 -0.44974303 0.44891852
v -0.00830215 -0.45193607 0.44747606
v 0.00827541 -0.45193607 0.44743425
v 0.28188998 -0.46153075 0.32917222
v 0.04997391 -0.44919473 0.44795686
v 0.04997391 -0.45918539 0.43752506
v 0.21399555 -0.35090268 0.51445705
v 0.20997846 -0.35151187 0.51445705
v 0.18966670 -0.35431412 0.51445705
v 0.17150494 -0.35665947 0.51445705
v 0.14994846 -0.46168303 0.40710765
v 0.11000390 -0.46110433 0.42264038
v 0.16997732 -0.46265775 0.39002791
v 0.18977986 -0.46162212 0.39059237
v 0.20997846 -0.46119571 0.38413259
v 0.22938494 -0.46162212 0.37008414
v 0.25145063 -0.46189624 0.35158283
v 0.26995188 -0.46244454 0.33000845
v -0.28995088 -0.46241409 0.31002283
v -0.26997861 -0.46250546 0.33000845
v -0.29611796 -0.46217039 0.30713791
v 0.22995074 -0.46268821 0.35001493
v -0.29611796 -0.45799747 0.33113733
v -0.28089830 -0.46028191 0.34079564
v -0.26997861 -0.46110433 0.34533212
v -0.24621555 -0.46107388 0.36372888
v -0.22262225 -0.46058652 0.38137308
v -0.18284741 -0.46043420 0.40102419
v -0.12530687 -0.46055606 0.42109340
v -0.09000178 -0.45684004 0.43428472
v -0.10997406 -0.45449466 0.43254957
v -0.06997292 -0.45833254 0.43597806
v 0.00997277 -0.43844262 0.45928761
v 0.01557406 -0.36750299 0.51445705
v -0.05000064 -0.45924631 0.43765050
v -0.02997179 -0.45973366 0.43903026
v -0.01384686 -0.45991641 0.43976194
v -0.00060744 -0.45997733 0.43999189
v -0.00015481 -0.45997733 0.43999189
v 0.01382012 -0.45991641 0.43974105
v 0.03000163 -0.44968209 0.44881400
v 0.14994846 -0.35918760 0.51445705
v 0.14253666 -0.35997954 0.51445705
v 0.13048539 -0.36122835 0.51445705
v 0.12499726 -0.36174616 0.51445705
v 0.11447362 -0.36272088 0.51445705
v 0.11000390 -0.36308637 0.51445705
v 0.03000163 -0.45970321 0.43896753
v 0.11000390 -0.46268821 0.40999261
v 0.08997504 -0.46150029 0.42429191
v 0.20997846 -0.46271867 0.37002143
v -0.20994861 -0.46262729 0.37002143
v -0.25170368 -0.46192673 0.35181281
v -0.28853643 -0.46110433 0.32877502
v -0.29611796 -0.46113479 0.32135358
v -0.29611796 -0.46070835 0.32436398
v -0.22958142 -0.46168303 0.37025139
v -0.20994861 -0.46125662 0.38425803
v -0.16994748 -0.46107388 0.40303111
v -0.10997406 -0.46110433 0.42255679
v -0.14991862 -0.46156120 0.40671045
v 0.09806580 -0.36400014 0.51445705
v 0.08997504 -0.36460933 0.51445705
v 0.07000276 -0.36582771 0.51445705
v 0.05625414 -0.36643690 0.51445705
v 0.04997391 -0.36668056 0.51445705
v 0.03582923 -0.36710700 0.51445705
v 0.03000163 -0.36725929 0.51445705
v -0.09000178 -0.46150029 0.42427102
v -0.06997292 -0.46168303 0.42596436
v -0.05000064 -0.46171349 0.42763680
v -0.02997179 -0.46168303 0.42905837
v -0.00830215 -0.46131754 0.43183878
v -0.00015481 -0.46131754 0.43183878
v 0.00827541 -0.46128708 0.43183878
v 0.03000163 -0.46165258 0.42897475
v 0.04997391 -0.46168303 0.42753226
v 0.07000276 -0.46165258 0.42592254
v 0.08997504 -0.46271867 0.40999261
v -0.09000178 -0.46259683 0.40997171
v -0.10997406 -0.46247500 0.40997171
v -0.16994748 -0.46241409 0.39000702
v -0.18969344 -0.46156120 0.39061329
f 1 2 7
f 1 7 25
f 1 25 73
f 1 73 109
f 1 109 143
f 1 143 142
f 1 142 141
f 1 141 140
f 1 140 139
f 1 139 138
f 1 138 137
f 1 137 122
f 1 122 121
f 1 121 120
f 1 120 119
f 1 119 118
f 1 118 117
f 1 117 85
f 1 85 84
f 1 84 83
f 1 83 82
f 1 82 48
f 1 48 47
f 1 47 46
f 1 46 45
f 1 45 41
f 1 41 9
f 1 9 3
f 1 3 8
f 1 8 39
f 1 39 79
f 1 79 56
f 1 56 21
f 1 21 4
f 1 4 5
f 1 5 6
f 1 6 2
f 2 6 24
f 2 24 7
f 3 9 10
f 3 10 11
f 3 11 12
f 3 12 13
f 3 13 14
f 3 14 15
f 3 15 16
f 3 16 17
f 3 17 18
f 3 18 19
f 3 19 20
f 3 20 8
f 4 21 55
f 4 55 22
f 4 22 5
f 5 23 59
f 5 59 96
f 5 96 130
f 5 130 131
f 5 131 98
f 5 98 60
f 5 60 24
f 5 24 6
f 5 22 55
f 5 55 58
f 5 58 57
f 5 57 23
f 7 24 26
f 7 26 27
f 7 27 28
f 7 28 29
f 7 29 30
f 7 30 31
f 7 31 32
f 7 32 33
f 7 33 34
f 7 34 35
f 7 35 36
f 7 36 37
f 7 37 38
f 7 38 25
f 8 20 19
f 8 19 40
f 8 40 39
f 9 41 10
f 10 42 43
f 10 43 44
f 10 44 12
f 10 12 11
f 10 41 45
f 10 45 46
f 10 46 47
f 10 47 48
f 10 48 42
f 12 44 13
f 13 49 50
f 13 50 51
f 13 51 14
f 13 44 49
f 14 51 16
f 14 16 15
f 16 51 52
f 16 52 18
f 16 18 17
f 18 52 19
f 19 52 53
f 19 53 54
f 19 54 40
f 21 56 23
f 21 23 57
f 21 57 58
f 21 58 55
f 23 56 59
f 24 60 61
f 24 61 62
f 24 62 63
f 24 63 64
f 24 64 65
f 24 65 66
f 24 66 67
f 24 67 68
f 24 68 69
f 24 69 70
f 24 70 71
f 24 71 26
f 25 38 72
f 25 72 73
f 26 71 27
f 27 71 28
f 28 71 29
f 29 71 30
f 30 71 74
f 30 74 31
f 31 74 32
f 32 74 33
f 33 74 34
f 34 74 35
f 35 74 75
f 35 75 37
f 35 37 36
f 37 75 76
f 37 76 38
f 38 76 77
f 38 77 78
f 38 78 72
f 39 40 54
f 39 54 79
f 42 80 81
f 42 81 43
f 42 48 82
f 42 82 83
f 42 83 84
f 42 84 85
f 42 85 80
f 43 81 49
f 43 49 44
f 49 86 50
f 49 81 87
f 49 87 86
f 50 86 88
f 50 88 89
f 50 89 90
f 50 90 51
f 51 90 52
f 52 90 91
f 52 91 53
f 53 92 54
f 53 91 92
f 54 92 79
f 56 79 93
f 56 93 59
f 59 94 95
f 59 95 96
f 59 93 97
f 59 97 94
f 60 98 61
f 61 98 99
f 61 99 63
f 61 63 62
f 63 99 100
f 63 100 101
f 63 101 102
f 63 102 64
f 64 102 65
f 65 102 66
f 66 102 103
f 66 103 68
f 66 68 67
f 68 103 69
f 69 104 105
f 69 105 106
f 69 106 70
f 69 103 104
f 70 106 71
f 71 106 105
f 71 105 107
f 71 107 74
f 72 78 108
f 72 108 109
f 72 109 73
f 74 107 110
f 74 110 75
f 75 110 111
f 75 111 76
f 76 111 112
f 76 112 77
f 77 112 113
f 77 113 114
f 77 114 78
f 78 115 116
f 78 116 108
f 78 114 115
f 79 92 93
f 80 85 117
f 80 117 118
f 80 118 119
f 80 119 120
f 80 120 121
f 80 121 122
f 80 122 108
f 80 108 116
f 80 116 123
f 80 123 81
f 81 123 87
f 86 87 124
f 86 124 88
f 87 123 125
f 87 125 124
f 88 126 89
f 88 124 126
f 89 126 90
f 90 126 91
f 91 126 92
f 92 126 93
f 93 126 97
f 94 97 95
f 95 127 128
f 95 128 100
f 95 100 129
f 95 129 130
f 95 130 96
f 95 97 127
f 97 126 127
f 98 131 99
f 99 129 100
f 99 131 129
f 100 128 101
f 101 132 102
f 101 128 132
f 102 133 103
f 102 132 133
f 103 134 104
f 103 133 134
f 104 135 110
f 104 110 107
f 104 107 105
f 104 134 136
f 104 136 135
f 108 122 137
f 108 137 138
f 108 138 139
f 108 139 140
f 108 140 141
f 108 141 142
f 108 142 143
f 108 143 109
f 110 135 144
f 110 144 111
f 111 144 145
f 111 145 112
f 112 145 146
f 112 146 147
f 112 147 113
f 113 147 148
f 113 148 149
f 113 149 114
f 114 149 150
f 114 150 151
f 114 151 115
f 115 151 152
f 115 152 153
f 115 153 123
f 115 123 116
f 123 153 125
f 124 125 153
f 124 153 152
f 124 152 151
f 124 151 154
f 124 154 126
f 126 154 127
f 127 154 155
f 127 155 156
f 127 156 157
f 127 157 158
f 127 158 133
f 127 133 132
f 127 132 128
f 129 131 130
f 133 158 134
f 134 158 136
f 135 136 156
f 135 156 144
f 136 158 157
f 136 157 156
f 144 156 145
f 145 156 146
f 146 156 155
f 146 155 147
f 147 149 148
f 147 155 154
f 147 154 151
f 147 151 149
f 149 151 150
