v 0.52854681 -0.10625845 0.35343623
v 0.52854681 -0.10625845 0.67514092
v 0.30203390 -0.10625845 0.56102997
v 0.30203390 0.40339926 0.83796066
v 0.30203390 0.40712750 0.84016657
v 0.30203390 0.41313723 0.84380335
v 0.30203390 0.41931391 0.84797668
v 0.52854681 0.40829605 0.71860325
v 0.52854681 -0.10008180 0.68002969
v 0.52122992 -0.10625845 0.68092394
v 0.30203390 -0.10625845 0.80248731
v 0.30203390 0.42793894 0.85483289
v 0.52854681 0.41118965 0.72074950
v 0.52854681 -0.08834058 0.68879366
v 0.52291501 -0.10291973 0.68217593
v 0.51395738 -0.09396079 0.69553065
v 0.50065398 -0.10058260 0.70041943
v 0.51413476 -0.10625845 0.68617046
v 0.31001595 -0.10625845 0.79956597
v 0.31001595 -0.10286409 0.80189109
v 0.30203390 -0.08183005 0.81858444
v 0.52854681 0.42660347 0.73356760
v 0.52854681 0.41909131 0.72724801
v 0.30203390 0.43695354 0.86300069
v 0.52854681 -0.07637680 0.69743848
v 0.52063125 -0.08066151 0.70041943
v 0.50836992 -0.08839622 0.70369846
v 0.49788243 -0.07787922 0.71854359
v 0.49072075 -0.09051076 0.71437025
v 0.47737297 -0.09757775 0.71824551
v 0.47406930 -0.10625845 0.71401256
v 0.48936823 -0.10625845 0.70375806
v 0.49657425 -0.10625845 0.69886929
v 0.50619709 -0.10625845 0.69195348
v 0.32012656 -0.10002616 0.79998332
v 0.31520429 -0.10625845 0.79753894
v 0.31382960 -0.07609856 0.81763053
v 0.30203390 -0.07977116 0.81983650
v 0.52854681 0.42849541 0.73547542
v 0.30203390 0.43906808 0.86538547
v 0.52854681 0.43322527 0.74036419
v 0.52854681 -0.06814125 0.70310229
v 0.51058722 -0.07070094 0.71442991
v 0.48451248 -0.08422282 0.72295541
v 0.50431240 -0.06452428 0.72301507
v 0.49460092 -0.05428550 0.73636973
v 0.48127532 -0.06124119 0.74078155
v 0.47444624 -0.07459614 0.73631012
v 0.46109846 -0.08099538 0.74072194
v 0.46406958 -0.10358748 0.72259772
v 0.46256185 -0.10625845 0.72164381
v 0.32606876 -0.10625845 0.79318672
v 0.33345217 -0.09585273 0.79718119
v 0.32806426 -0.08950913 0.80356044
v 0.34380662 -0.08249781 0.80159301
v 0.33050323 -0.06964368 0.81488812
v 0.32418409 -0.06274362 0.82156539
v 0.30833086 -0.06964368 0.82353282
v 0.30203390 -0.07815745 0.82079041
v 0.30203390 0.44429874 0.87194359
v 0.52854681 0.43878984 0.74710119
v 0.52854681 -0.04888788 0.71580112
v 0.51766020 -0.05740166 0.71824551
v 0.50089788 -0.04098621 0.74060267
v 0.48876959 -0.04855400 0.74382210
v 0.47041085 -0.05050160 0.75455356
v 0.45748436 -0.05751294 0.75842881
v 0.46865925 -0.06875335 0.74400097
v 0.45360422 -0.09435031 0.73595238
v 0.45047790 -0.07031143 0.75437468
v 0.43675321 -0.07721147 0.75807106
v 0.44812763 -0.08861881 0.74340481
v 0.44025645 -0.10019308 0.74012572
v 0.45575494 -0.10625845 0.72593641
v 0.34910583 -0.10625845 0.78328997
v 0.35025880 -0.08950913 0.79408103
v 0.35711005 -0.07787922 0.79867172
v 0.35025880 -0.07070094 0.80600482
v 0.33750969 -0.05823633 0.81894219
v 0.33050323 -0.05094677 0.82585800
v 0.30999377 -0.04927740 0.83468163
v 0.30203390 -0.06975497 0.82567912
v 0.30203390 -0.05205968 0.83593363
v 0.30203390 0.44813830 0.87838244
v 0.52854681 0.44290760 0.75228804
v 0.52854681 -0.04115315 0.72068989
v 0.52355802 -0.04404671 0.72253811
v 0.51557600 -0.02996840 0.73684669
v 0.51987743 -0.01984090 0.73982763
v 0.50557625 -0.02996840 0.74382210
v 0.49679598 -0.01611264 0.75783259
v 0.49005556 -0.03030226 0.75407660
v 0.47737297 -0.03714667 0.75824994
v 0.46406958 -0.04421365 0.76254249
v 0.45047790 -0.05050160 0.76695430
v 0.44418097 -0.06385654 0.76242328
v 0.43003500 -0.07031143 0.76623893
v 0.42338327 -0.08272037 0.76182711
v 0.43584415 -0.10625845 0.73821795
v 0.44606560 -0.10625845 0.73201752
v 0.41502428 -0.09607533 0.75717682
v 0.42999065 -0.10419956 0.74304706
v 0.42999065 -0.10625845 0.74155658
v 0.35773090 -0.10625845 0.77935511
v 0.36194363 -0.10130599 0.78090519
v 0.37928241 -0.05940489 0.79962558
v 0.36595684 -0.06452428 0.80272579
v 0.36917183 -0.08989865 0.78501892
v 0.38431555 -0.08322120 0.78209758
v 0.37156644 -0.07070094 0.79622734
v 0.35198826 -0.05094677 0.81703436
v 0.34662253 -0.04493704 0.82275784
v 0.31668985 -0.03759183 0.83873570
v 0.30331990 -0.04215477 0.84112048
v 0.30203390 -0.04349026 0.84082240
v 0.30203390 0.45481575 0.89084280
v 0.52854681 0.44363099 0.75354004
v 0.52854681 -0.02974580 0.72760570
v 0.52854681 -0.01366425 0.73702556
v 0.52854681 -0.00965776 0.73935068
v 0.52854681 -0.00426014 0.74233162
v 0.52508795 -0.00648595 0.74352401
v 0.51103061 -0.01132712 0.75067830
v 0.50220603 -0.00281335 0.76140976
v 0.49005556 -0.00965776 0.76564270
v 0.47116473 -0.01177229 0.77661264
v 0.48342603 -0.02379173 0.76218480
v 0.47041085 -0.03030226 0.76671582
v 0.45963508 -0.01956266 0.77971280
v 0.45178607 -0.03191598 0.77732807
v 0.43981299 -0.03981765 0.77983207
v 0.43189746 -0.05144757 0.77708960
v 0.41903749 -0.05912666 0.77941471
v 0.41143236 -0.07081223 0.77601641
v 0.39766333 -0.07810181 0.77869928
v 0.40901557 -0.08962044 0.76492727
v 0.40172088 -0.10125035 0.76087320
v 0.40646574 -0.10625845 0.75467277
v 0.36662200 -0.10625845 0.77506250
v 0.37198773 -0.10625845 0.77243930
v 0.37531358 -0.09652048 0.77762616
v 0.40571189 -0.06474687 0.78293222
v 0.39001384 -0.05495325 0.79694271
v 0.40063441 -0.04054105 0.80028141
v 0.39001384 -0.04493704 0.80284500
v 0.35994813 -0.03992894 0.81995571
v 0.39059034 -0.08989865 0.77440673
v 0.33923912 -0.01939574 0.83968961
v 0.33154532 -0.03052485 0.83670866
v 0.32593572 -0.02429254 0.84219360
v 0.30999377 -0.03052485 0.84481686
v 0.30203390 -0.02969016 0.84809589
v 0.30203390 -0.04254429 0.84135896
v 0.30203390 0.45737547 0.89668548
v 0.52854681 0.45275688 0.77160460
v 0.52854681 0.45192218 0.76993525
v 0.52854681 0.00692461 0.74829352
v 0.51555383 0.00586735 0.75687867
v 0.50930119 0.01154320 0.76409262
v 0.49034381 0.00903915 0.77530098
v 0.47857028 0.00174958 0.77905703
v 0.46526688 -0.00626338 0.78323030
v 0.44085509 -0.00097705 0.80046028
v 0.43444729 -0.01427634 0.79700238
v 0.44630951 -0.02646272 0.78364766
v 0.43045625 -0.03041355 0.79020578
v 0.41398218 -0.03436439 0.79682350
v 0.42648739 -0.04577173 0.78346884
v 0.40988031 -0.04983385 0.78990769
v 0.38945955 -0.10625845 0.76367527
v 0.39761898 -0.10625845 0.75944233
v 0.40841693 -0.02863289 0.80290467
v 0.38866135 -0.02852160 0.81268215
v 0.37001437 -0.03558859 0.81763053
v 0.38105622 -0.02089816 0.82043266
v 0.37001437 -0.02562803 0.82299626
v 0.35001490 -0.01488844 0.83736449
v 0.36054677 -0.00047624 0.84016657
v 0.35001490 -0.00492789 0.84237248
v 0.33112404 0.00948432 0.85674071
v 0.33154532 -0.01160535 0.84642661
v 0.31012681 -0.00954647 0.85542905
v 0.30203390 -0.01277392 0.85668111
v 0.30203390 0.45949000 0.90211082
v 0.52854681 0.45821014 0.78627092
v 0.52854681 0.01037465 0.75008214
v 0.52056473 0.01922229 0.76039624
v 0.49723941 0.02361830 0.77822232
v 0.48393601 0.01510452 0.78245533
v 0.47116473 0.00903915 0.78728443
v 0.45548886 0.01004077 0.79730046
v 0.45974594 0.02027956 0.79980445
v 0.44546694 0.01004077 0.80308354
v 0.43435860 0.02662314 0.81697476
v 0.42861596 0.01132062 0.81292069
v 0.41475821 0.00553349 0.81727284
v 0.42866030 -0.00854485 0.80302387
v 0.42109951 -0.02106510 0.80051988
v 0.39440399 -0.01472150 0.81727284
v 0.38866135 -0.00882308 0.82299626
v 0.36835146 -0.00826661 0.83265460
v 0.40145481 -0.00142221 0.82067114
v 0.37387237 0.00597864 0.83712602
v 0.36835146 0.01159884 0.84231287
v 0.35001490 0.01004077 0.84946716
v 0.33848527 0.02133682 0.85936391
v 0.32515967 0.01582791 0.86186790
v 0.31688941 0.00247298 0.85882735
v 0.30354163 -0.00264642 0.86121213
v 0.30203390 -0.00470531 0.86073518
v 0.30203390 0.45976821 0.90330321
v 0.52854681 0.45859966 0.78758252
v 0.52854681 0.02545460 0.75783259
v 0.52854681 0.03001752 0.76009810
v 0.52437842 0.03001752 0.76301944
v 0.50927901 0.03018446 0.77333355
v 0.50216168 0.03697322 0.78138214
v 0.49034381 0.03018446 0.78561509
v 0.47089866 0.02818123 0.79670429
v 0.46484560 0.03363448 0.80284500
v 0.44990143 0.03012882 0.80993968
v 0.44001254 0.03997809 0.81995571
v 0.42861596 0.03202076 0.82234049
v 0.42101082 0.01888841 0.82043266
v 0.40886036 0.01132062 0.82299626
v 0.40886036 -0.00882308 0.81309950
v 0.39404923 0.02623363 0.83718562
v 0.38846180 0.01159884 0.83301228
v 0.38072363 0.01933359 0.84028584
v 0.37001437 0.03001752 0.84982491
v 0.35136741 0.02884898 0.85733688
v 0.34560260 0.03469175 0.86222565
v 0.33112404 0.02884898 0.86538547
v 0.30884081 0.03129737 0.87456679
v 0.31012681 0.00948432 0.86449116
v 0.30203390 -0.00331417 0.86139095
v 0.30203390 0.00970690 0.86735290
v 0.30203390 0.46121499 0.91123259
v 0.52854681 0.46060291 0.79622734
v 0.52854681 0.03357884 0.76182711
v 0.51550949 0.04665555 0.77691072
v 0.52001047 0.05995484 0.77995127
v 0.50927901 0.05199753 0.78340918
v 0.49624166 0.06557504 0.79765815
v 0.48974517 0.04954912 0.79473686
v 0.47817120 0.04253778 0.79885054
v 0.47089866 0.04954912 0.80618370
v 0.45375940 0.04999429 0.81643820
v 0.45834911 0.06234760 0.81906140
v 0.44378185 0.04999429 0.82204235
v 0.42999065 0.04999429 0.82937551
v 0.40043488 0.03958857 0.84016657
v 0.38846180 0.03174254 0.84219360
v 0.37107867 0.04865879 0.85721767
v 0.35895038 0.04109100 0.85948318
v 0.35136741 0.04865879 0.86562395
v 0.32921723 0.05088462 0.87516296
v 0.31473866 0.04476361 0.87808430
v 0.30203390 0.02879332 0.87581879
v 0.30203390 0.03914340 0.88034987
v 0.30203390 0.46160451 0.91749257
v 0.33001542 0.46204969 0.90992093
v 0.52854681 0.46193838 0.81143016
v 0.52854681 0.46182710 0.80993968
v 0.52854681 0.46071419 0.79694271
v 0.52854681 0.05177495 0.77035260
v 0.52484405 0.07475656 0.78287262
v 0.50841427 0.07130653 0.79229248
v 0.52854681 0.07002669 0.77840120
v 0.48291609 0.05589271 0.80171227
v 0.50493324 0.07475656 0.79598880
v 0.49934581 0.07475656 0.79956597
v 0.48974517 0.07130653 0.80397779
v 0.46391436 0.07475656 0.82067114
v 0.46289444 0.07570253 0.82162505
v 0.45101005 0.06941459 0.82585800
v 0.46972352 0.06941459 0.81512654
v 0.43045625 0.06869119 0.83658946
v 0.41914836 0.06112340 0.83951080
v 0.41469172 0.04999429 0.83724523
v 0.40466979 0.04999429 0.84225327
v 0.39001384 0.04999429 0.84922868
v 0.37843987 0.06184679 0.85924470
v 0.36511427 0.05444593 0.86216605
v 0.34910583 0.07080573 0.87510335
v 0.33538115 0.06468471 0.87820357
v 0.32203338 0.05811854 0.88070756
v 0.30884081 0.05088462 0.88255578
v 0.30203390 0.05055074 0.88470209
v 0.30203390 0.46160451 0.93025100
v 0.39001384 0.46216097 0.88994855
v 0.42999065 0.46221662 0.86991650
v 0.35001490 0.46193838 0.90992093
v 0.50998855 0.46182710 0.82991207
v 0.52854681 0.46099243 0.82860047
v 0.52854681 0.07475656 0.78036863
v 0.52854681 0.08510663 0.78460157
v 0.52854681 0.09055990 0.78680748
v 0.51411259 0.09005909 0.79616767
v 0.50072050 0.07892998 0.80040061
v 0.49473396 0.07475656 0.80236804
v 0.47619784 0.08594132 0.81774980
v 0.46972352 0.09156152 0.82365209
v 0.44919190 0.09022603 0.83468163
v 0.43744054 0.08365985 0.83867610
v 0.43331650 0.07475656 0.83742410
v 0.42455840 0.07475656 0.84195518
v 0.42411497 0.07447834 0.84207439
v 0.41149887 0.06869119 0.84624773
v 0.39041296 0.06913636 0.85656184
v 0.38384995 0.07475656 0.86168909
v 0.37107867 0.06913636 0.86520660
v 0.35515890 0.08583003 0.87796509
v 0.34515917 0.07475656 0.87814397
v 0.34183329 0.07809529 0.88070756
v 0.32921723 0.07080573 0.88273466
v 0.30999377 0.07475656 0.89108133
v 0.31001595 0.07002669 0.88935232
v 0.30203390 0.07013798 0.89215446
v 0.30203390 0.46110371 0.93478209
v 0.33001542 0.46127063 0.92452765
v 0.40961424 0.46143758 0.89030623
v 0.44963536 0.46143758 0.87015498
v 0.39001384 0.46104807 0.90306473
v 0.48896915 0.46127063 0.84976524
v 0.52803683 0.46099243 0.82901782
v 0.52012134 0.45999080 0.84004736
v 0.52854681 0.46093678 0.82877934
v 0.52854681 0.11059231 0.79443872
v 0.51805925 0.10335838 0.79873133
v 0.50409067 0.09005909 0.80254692
v 0.48828179 0.09156152 0.81268215
v 0.48047712 0.09929626 0.82019418
v 0.46998960 0.11003585 0.83003134
v 0.45615402 0.11003585 0.83784145
v 0.44200805 0.09701478 0.84100127
v 0.43045625 0.09022603 0.84457839
v 0.40932599 0.09017038 0.85513097
v 0.41092241 0.07475656 0.84875172
v 0.39733073 0.08354856 0.85870814
v 0.39314017 0.07475656 0.85739648
v 0.39041296 0.09017038 0.86413348
v 0.36844015 0.09150588 0.87426871
v 0.36070198 0.09918497 0.88023061
v 0.34910583 0.09150588 0.88237691
v 0.33001542 0.09005909 0.88917351
v 0.30992725 0.09000345 0.89644700
v 0.32941678 0.07475656 0.88404626
v 0.30203390 0.09434380 0.90073961
v 0.30203390 0.46026903 0.94056511
v 0.30229998 0.46026903 0.94056511
v 0.35001490 0.46065855 0.92166591
v 0.42999065 0.46110371 0.88380778
v 0.46998960 0.46099243 0.86335838
v 0.36081284 0.46010208 0.92023504
v 0.40265211 0.46038032 0.90091848
v 0.44271758 0.46054724 0.88112491
v 0.50998855 0.46065855 0.84225327
v 0.49491131 0.45837706 0.85632336
v 0.50998855 0.45431495 0.85226929
v 0.50998855 0.44429874 0.86353725
v 0.52712780 0.44891733 0.84815556
v 0.52854681 0.45075363 0.84523422
v 0.52854681 0.46065855 0.82955438
v 0.48160791 0.46032467 0.86073518
v 0.45604318 0.45887789 0.87701118
v 0.52854681 0.12327950 0.79902941
v 0.52185076 0.11665767 0.80117571
v 0.51085329 0.11003585 0.80570674
v 0.49373621 0.11003585 0.81625932
v 0.48373646 0.11003585 0.82210201
v 0.49783808 0.12389159 0.81870371
v 0.45950204 0.12083109 0.83968961
v 0.44617647 0.11003585 0.84320712
v 0.42999065 0.11003585 0.85155380
v 0.41659853 0.11003585 0.85829079
v 0.40223083 0.09690350 0.86103326
v 0.39001384 0.11003585 0.87093008
v 0.37480360 0.11003585 0.87772661
v 0.36482605 0.11003585 0.88195956
v 0.35001490 0.11003585 0.88804072
v 0.32946113 0.11036972 0.89602971
v 0.31655681 0.10397048 0.89871252
v 0.30320904 0.09668092 0.90109730
v 0.30203390 0.11025843 0.90568799
v 0.30203390 0.46015772 0.94080365
v 0.37416062 0.45843273 0.91647899
v 0.41591117 0.45898917 0.89722204
v 0.31562555 0.45910046 0.93740535
v 0.33001542 0.45715287 0.93454361
v 0.33001542 0.44713667 0.94563282
v 0.39001384 0.44530037 0.92399108
v 0.46998960 0.45565045 0.87331480
v 0.48870307 0.45014152 0.86914146
v 0.46998960 0.44563425 0.88464242
v 0.48245046 0.44196165 0.88130379
v 0.52080864 0.44073743 0.86043710
v 0.52854681 0.44847217 0.84773821
v 0.42999065 0.45609561 0.89382374
v 0.44972405 0.45069799 0.88965046
v 0.52854681 0.13001260 0.80141413
v 0.52535397 0.13001260 0.80350083
v 0.50887990 0.13034648 0.81399381
v 0.50151873 0.13719088 0.82090962
v 0.49069858 0.13034648 0.82496369
v 0.46998960 0.12851018 0.83623171
v 0.46329352 0.13418603 0.84183592
v 0.45169738 0.12851018 0.84624773
v 0.43043408 0.12812066 0.85715801
v 0.41992438 0.12010770 0.85990047
v 0.40662095 0.11003585 0.86317956
v 0.39016905 0.12889969 0.87683237
v 0.37906072 0.12144319 0.87951517
v 0.37143341 0.12889969 0.88505977
v 0.34866238 0.13118117 0.89513540
v 0.33573592 0.12528273 0.89841443
v 0.32238814 0.11726977 0.90085882
v 0.30992725 0.11036972 0.90306473
v 0.30203390 0.12205529 0.90932477
v 0.30203390 0.45114315 0.95028305
v 0.39001384 0.45526093 0.91302109
v 0.40945902 0.45047539 0.90956318
v 0.42999065 0.44613504 0.90491295
v 0.30203390 0.44763747 0.95391983
v 0.30203390 0.44140518 0.95976251
v 0.35001490 0.44296324 0.94205564
v 0.36043590 0.44023663 0.94014782
v 0.40289599 0.44196165 0.92124856
v 0.44336057 0.44251809 0.90169346
v 0.45628706 0.42994219 0.89799714
v 0.46998960 0.42994219 0.89066398
v 0.48486724 0.42994219 0.88261539
v 0.49484479 0.42994219 0.87707078
v 0.50998855 0.42994219 0.86848569
v 0.52231640 0.42994219 0.86133134
v 0.52854681 0.42994219 0.85751575
v 0.52854681 0.13307312 0.80242771
v 0.52854681 0.14971113 0.80791265
v 0.51486647 0.15004501 0.81679589
v 0.50486672 0.15004501 0.82293665
v 0.49307102 0.17002177 0.83599323
v 0.48814875 0.15171437 0.83319116
v 0.47664130 0.14614981 0.83807993
v 0.46998960 0.15171437 0.84350526
v 0.44874847 0.15071276 0.85459441
v 0.43741837 0.14442481 0.85870814
v 0.42409280 0.13346264 0.86198717
v 0.41200885 0.12812066 0.86633939
v 0.39697599 0.14475867 0.87856126
v 0.38362822 0.13479812 0.88154221
v 0.37001437 0.15004501 0.89191598
v 0.35526976 0.15004501 0.89805675
v 0.34110162 0.13858202 0.90038186
v 0.32946113 0.13118117 0.90246856
v 0.31001595 0.13001260 0.90908623
v 0.30203390 0.13034648 0.91182876
v 0.30203390 0.43878984 0.96059716
v 0.37207642 0.42994219 0.93674952
v 0.39001384 0.42994219 0.92923748
v 0.40568972 0.42994219 0.92250055
v 0.31400698 0.42994219 0.95797396
v 0.33001542 0.42994219 0.95242935
v 0.35001490 0.42994219 0.94527507
v 0.36205450 0.42994219 0.94074404
v 0.41566730 0.42994219 0.91796952
v 0.42999065 0.42994219 0.91117293
v 0.44630951 0.42994219 0.90318394
v 0.45715177 0.40996546 0.89847410
v 0.46998960 0.40996546 0.89167750
v 0.48570979 0.40996546 0.88309234
v 0.49573171 0.40996546 0.87754774
v 0.50998855 0.40996546 0.86949921
v 0.52311456 0.40996546 0.86180830
v 0.52854681 0.40996546 0.85852927
v 0.52854681 0.16957660 0.81417263
v 0.51825881 0.16351123 0.81888258
v 0.51096416 0.17013305 0.82538104
v 0.49710640 0.18576945 0.83831841
v 0.48304909 0.17002177 0.84171665
v 0.48029974 0.15944912 0.84010696
v 0.46998960 0.17002177 0.84887099
v 0.45464632 0.17002177 0.85715801
v 0.44127637 0.15777974 0.86061597
v 0.43043408 0.15071276 0.86401421
v 0.40872735 0.15087970 0.87474567
v 0.40116656 0.15811361 0.88052869
v 0.39016905 0.15087970 0.88333082
v 0.39001384 0.17002177 0.88881576
v 0.37014741 0.16874191 0.89710283
v 0.35928297 0.16117412 0.89960682
v 0.34527001 0.15004501 0.90199161
v 0.33001542 0.15004501 0.90771502
v 0.30868560 0.15121357 0.91564441
v 0.30203390 0.15933782 0.92023504
v 0.30203390 0.42994219 0.96184921
v 0.30400723 0.42994219 0.96125299
v 0.37309635 0.40996546 0.93716687
v 0.39001384 0.40996546 0.93013179
v 0.40664312 0.40996546 0.92291790
v 0.33001542 0.40996546 0.95320439
v 0.30502719 0.40996546 0.96161067
v 0.31500474 0.40996546 0.95833164
v 0.35001490 0.40996546 0.94605011
v 0.36307442 0.40996546 0.94116133
v 0.41662070 0.40996546 0.91838682
v 0.42999065 0.40996546 0.91206723
v 0.44717422 0.40996546 0.90360129
v 0.45610967 0.38993305 0.89799714
v 0.46998960 0.38993305 0.89060438
v 0.48477855 0.38993305 0.88255578
v 0.49475610 0.38993305 0.87707078
v 0.50998855 0.38993305 0.86842602
v 0.52229422 0.38993305 0.86133134
v 0.52854681 0.38993305 0.85757536
v 0.52854681 0.18393315 0.81852484
v 0.52151817 0.17686617 0.82090962
v 0.50823694 0.19144531 0.83325076
v 0.50038791 0.19912440 0.84016657
v 0.49025512 0.19144531 0.84374374
v 0.46899182 0.18999852 0.85507137
v 0.45823824 0.18326542 0.85906583
v 0.44462439 0.17002177 0.86234486
v 0.42999065 0.17002177 0.86973763
v 0.41466954 0.17002177 0.87730926
v 0.40464762 0.17002177 0.88219804
v 0.38868353 0.19094449 0.89513540
v 0.37690997 0.18487912 0.89865291
v 0.36360657 0.17447340 0.90145504
v 0.35001490 0.18999852 0.91099405
v 0.35156697 0.16874191 0.90467447
v 0.33001542 0.17002177 0.91320002
v 0.31551468 0.17002177 0.91838682
v 0.30551496 0.17002177 0.92184472
v 0.30203390 0.17002177 0.92297751
v 0.30203390 0.40996546 0.96250498
v 0.37185469 0.38993305 0.93668991
v 0.39001384 0.38993305 0.92917788
v 0.40551233 0.38993305 0.92244095
v 0.33001542 0.38993305 0.95213127
v 0.35001490 0.38993305 0.94509619
v 0.30327556 0.38993305 0.96101451
v 0.31327528 0.38993305 0.95773542
v 0.36183277 0.38993305 0.94068438
v 0.41548991 0.38993305 0.91790986
v 0.42999065 0.38993305 0.91099405
v 0.44613212 0.38993305 0.90306473
v 0.45444676 0.36995625 0.89710283
v 0.46998960 0.36995625 0.88887537
v 0.44442484 0.36995625 0.90223008
v 0.48324865 0.36995625 0.88172108
v 0.49327058 0.36995625 0.87623614
v 0.50998855 0.36995625 0.86675668
v 0.52087516 0.36995625 0.86049670
v 0.52854681 0.36773044 0.85566753
v 0.52854681 0.19450581 0.82156539
v 0.52453363 0.18999852 0.82281744
v 0.51282662 0.21003093 0.83557594
v 0.50282687 0.21003093 0.84165704
v 0.48998907 0.21003093 0.84893060
v 0.47495618 0.21003093 0.85721767
v 0.46171930 0.19662035 0.86085439
v 0.45094353 0.18999852 0.86461043
v 0.42917025 0.18977594 0.87558031
v 0.41832796 0.18298718 0.87915748
v 0.41105545 0.18977594 0.88452321
v 0.39458138 0.21003093 0.89757979
v 0.38110057 0.19823407 0.90044153
v 0.37014741 0.19094449 0.90306473
v 0.37001437 0.21003093 0.90801311
v 0.34926105 0.21003093 0.91630018
v 0.33773142 0.20340911 0.91910231
v 0.33065844 0.18832916 0.91785026
v 0.31955007 0.18059443 0.91975808
v 0.31174541 0.18832916 0.92446798
v 0.30203390 0.18905255 0.92780668
v 0.30203390 0.38993305 0.96137226
v 0.36063546 0.37730148 0.94020742
v 0.36839581 0.37034580 0.93645144
v 0.39001384 0.36995625 0.92750859
v 0.40371639 0.36995625 0.92160630
v 0.33001542 0.36995625 0.95046192
v 0.35138959 0.37034580 0.94294989
v 0.30203390 0.37579906 0.96029907
v 0.41369393 0.36995625 0.91701561
v 0.42999065 0.36995625 0.90932477
v 0.45231822 0.34997952 0.89602971
v 0.46998960 0.34997952 0.88672912
v 0.48134184 0.34997952 0.88070756
v 0.44229630 0.34997952 0.90115690
v 0.49134159 0.34997952 0.87522262
v 0.52005482 0.35960621 0.86001974
v 0.52854681 0.35226101 0.85393858
v 0.52854681 0.21086562 0.82609648
v 0.51712805 0.23000768 0.83819914
v 0.50712830 0.23000768 0.84416103
v 0.48876959 0.23028591 0.85477328
v 0.47823772 0.22377539 0.85900623
v 0.46497864 0.21003093 0.86264300
v 0.44999012 0.21003093 0.87039346
v 0.43557808 0.21003093 0.87772661
v 0.42196423 0.19628647 0.88094604
v 0.41001332 0.21003093 0.89030623
v 0.39832848 0.22310764 0.89918947
v 0.38455945 0.21003093 0.90193200
v 0.37001437 0.23000768 0.91284227
v 0.35615665 0.23000768 0.91844642
v 0.34209937 0.21670839 0.92071199
v 0.33065844 0.21003093 0.92327559
v 0.32436147 0.19394936 0.92154670
v 0.31001595 0.21003093 0.93042994
v 0.30203390 0.20201796 0.93102610
v 0.35901690 0.36400220 0.93961126
v 0.37001437 0.34997952 0.93370897
v 0.39001384 0.34997952 0.92542189
v 0.40138829 0.34997952 0.92059278
v 0.33001542 0.34997952 0.94843483
v 0.34693295 0.34997952 0.94247293
v 0.30886298 0.36901030 0.95743740
v 0.30203390 0.36372399 0.95916629
v 0.41136584 0.34997952 0.91594243
v 0.42999065 0.34997952 0.90717846
v 0.44843805 0.33028099 0.89543349
v 0.47107604 0.33144954 0.88380778
v 0.48018888 0.33912861 0.88005173
v 0.44072205 0.33712539 0.90032226
v 0.48808223 0.33144954 0.87462640
v 0.50684005 0.32994711 0.86389500
v 0.51868010 0.34630692 0.85918510
v 0.51118582 0.35176018 0.86413348
v 0.52854681 0.34613997 0.85316354
v 0.52854681 0.22828268 0.83062756
v 0.51945615 0.24135938 0.83963001
v 0.51165146 0.24881589 0.84600925
v 0.49395791 0.24998444 0.85662144
v 0.48127532 0.23713031 0.86067557
v 0.47094300 0.23028591 0.86455083
v 0.44921407 0.22945122 0.87575918
v 0.43877089 0.22238424 0.87933636
v 0.42555615 0.21003093 0.88273466
v 0.43123227 0.22945122 0.88482130
v 0.40905991 0.22989640 0.89573157
v 0.40176520 0.23646256 0.90079921
v 0.39101163 0.22989640 0.90395904
v 0.36981481 0.24859330 0.91713488
v 0.35943815 0.24096987 0.91975808
v 0.34615690 0.23000768 0.92232168
v 0.33001542 0.23000768 0.92816436
v 0.30203390 0.21003093 0.93299353
v 0.30841953 0.23139882 0.93591487
v 0.30203390 0.23763113 0.93943238
v 0.35695487 0.34997952 0.93877661
v 0.37001437 0.32994711 0.93120492
v 0.39081207 0.33189470 0.92285824
v 0.40008011 0.33979636 0.91999656
v 0.33001542 0.32994711 0.94599050
v 0.34358492 0.32994711 0.94128060
v 0.31001595 0.34997952 0.95505261
v 0.31001595 0.32994711 0.95266783
v 0.30203390 0.34997952 0.95761621
v 0.43132097 0.33028099 0.90401864
v 0.40803999 0.33189470 0.91522706
v 0.44999012 0.30997038 0.89167750
v 0.47843724 0.32577372 0.87915748
v 0.43890393 0.32382610 0.89942795
v 0.48998907 0.30997038 0.87045312
v 0.50426805 0.30997038 0.86240453
v 0.51686198 0.32994711 0.85811192
v 0.52854681 0.32994711 0.85101724
v 0.52854681 0.24931669 0.83581436
v 0.52196163 0.25471431 0.84118009
v 0.50998855 0.26996121 0.85161346
v 0.49786025 0.26996121 0.85876775
v 0.48398036 0.24998444 0.86216605
v 0.46998960 0.24998444 0.86973763
v 0.45533365 0.24998444 0.87754774
v 0.44205239 0.23573917 0.88100564
v 0.42999065 0.24998444 0.89030623
v 0.41497993 0.24998444 0.89757979
v 0.40500239 0.24998444 0.90228969
v 0.39001384 0.24998444 0.90890741
v 0.37688780 0.26996121 0.91868496
v 0.36300790 0.25432479 0.92118895
v 0.35167783 0.24859330 0.92428911
v 0.33001542 0.24998444 0.93257618
v 0.31418437 0.24998444 0.93800151
v 0.30203390 0.24013518 0.93996894
v 0.35356247 0.32994711 0.93758416
v 0.37001437 0.30997038 0.92840284
v 0.38518029 0.30997038 0.92214286
v 0.39797375 0.32644147 0.91904265
v 0.33105755 0.31024858 0.94289029
v 0.34119031 0.31709298 0.94038630
v 0.30203390 0.32994711 0.95517182
v 0.31001595 0.30997038 0.94986570
v 0.42673129 0.30997038 0.90324360
v 0.41001332 0.30997038 0.91111332
v 0.43675321 0.30997038 0.89835483
v 0.44999012 0.28993797 0.88827920
v 0.46302748 0.28993797 0.88154221
v 0.46622029 0.30997038 0.88321155
v 0.47619784 0.30997038 0.87796509
v 0.47302720 0.28993797 0.87623614
v 0.49187371 0.28832424 0.86568356
v 0.50191778 0.29388881 0.86109293
v 0.51428998 0.30997038 0.85656184
v 0.52854681 0.30908003 0.84773821
v 0.52854681 0.26267162 0.83879536
v 0.52854681 0.26996121 0.84040505
v 0.52464449 0.26996121 0.84278983
v 0.50914598 0.28832424 0.85578680
v 0.49976707 0.28053385 0.85984087
v 0.48783833 0.26996121 0.86431229
v 0.46852621 0.27051765 0.87492454
v 0.45837128 0.26422971 0.87909788
v 0.44531175 0.24998444 0.88267499
v 0.42859378 0.27051765 0.89531422
v 0.41819495 0.26422971 0.89907026
v 0.41096675 0.27051765 0.90372056
v 0.39001384 0.26996121 0.91302109
v 0.37948197 0.28120160 0.91975808
v 0.36686590 0.26996121 0.92273903
v 0.35001490 0.26996121 0.92923748
v 0.32908419 0.26990557 0.93680918
v 0.31821972 0.26322809 0.93931317
v 0.30416244 0.24998444 0.94128060
v 0.30203390 0.24330696 0.94062477
v 0.34870672 0.31024858 0.93657064
v 0.35001490 0.28993797 0.93281466
v 0.37169948 0.28871375 0.92416990
v 0.38225353 0.29450089 0.92089081
v 0.39515784 0.30997038 0.91785026
v 0.31001595 0.28993797 0.94676554
v 0.32513750 0.28993797 0.94169796
v 0.33837441 0.30379370 0.93937278
v 0.30203390 0.31041551 0.95242935
v 0.30203390 0.28993797 0.94926953
v 0.41001332 0.28993797 0.90783429
v 0.42329457 0.28993797 0.90151465
v 0.43331650 0.28993797 0.89668548
v 0.46085456 0.27752900 0.88046908
v 0.52854681 0.28993797 0.84439957
v 0.52854681 0.30590823 0.84720165
v 0.45101005 0.27051765 0.88410586
v 0.42096648 0.27752900 0.90044153
v 0.38934869 0.28871375 0.91683674
v 0.33513725 0.28993797 0.93823999
v 0.32181165 0.27652737 0.94056511
v 0.31092501 0.26990557 0.94294989
v 0.30203390 0.26990557 0.94575202
v 0.30203390 0.24998444 0.94193637
f 1 2 10
f 1 10 18
f 1 18 34
f 1 34 33
f 1 33 32
f 1 32 31
f 1 31 51
f 1 51 74
f 1 74 100
f 1 100 99
f 1 99 103
f 1 103 138
f 1 138 171
f 1 171 170
f 1 170 140
f 1 140 139
f 1 139 104
f 1 104 75
f 1 75 52
f 1 52 36
f 1 36 19
f 1 19 11
f 1 11 3
f 1 3 4
f 1 4 5
f 1 5 6
f 1 6 7
f 1 7 8
f 1 8 13
f 1 13 23
f 1 23 22
f 1 22 39
f 1 39 41
f 1 41 61
f 1 61 85
f 1 85 117
f 1 117 156
f 1 156 155
f 1 155 185
f 1 185 212
f 1 212 239
f 1 239 265
f 1 265 264
f 1 264 263
f 1 263 295
f 1 295 328
f 1 328 364
f 1 364 363
f 1 363 398
f 1 398 436
f 1 436 474
f 1 474 514
f 1 514 554
f 1 554 592
f 1 592 630
f 1 630 668
f 1 668 706
f 1 706 742
f 1 742 741
f 1 741 708
f 1 708 707
f 1 707 669
f 1 669 631
f 1 631 593
f 1 593 555
f 1 555 515
f 1 515 475
f 1 475 438
f 1 438 437
f 1 437 401
f 1 401 367
f 1 367 329
f 1 329 298
f 1 298 297
f 1 297 296
f 1 296 269
f 1 269 266
f 1 266 240
f 1 240 214
f 1 214 213
f 1 213 186
f 1 186 157
f 1 157 121
f 1 121 120
f 1 120 119
f 1 119 118
f 1 118 86
f 1 86 62
f 1 62 42
f 1 42 25
f 1 25 14
f 1 14 9
f 1 9 2
f 2 9 10
f 3 11 21
f 3 21 38
f 3 38 59
f 3 59 82
f 3 82 83
f 3 83 115
f 3 115 153
f 3 153 152
f 3 152 183
f 3 183 210
f 3 210 236
f 3 236 237
f 3 237 259
f 3 259 260
f 3 260 289
f 3 289 319
f 3 319 349
f 3 349 385
f 3 385 419
f 3 419 456
f 3 456 494
f 3 494 534
f 3 534 575
f 3 575 611
f 3 611 648
f 3 648 650
f 3 650 686
f 3 686 726
f 3 726 750
f 3 750 749
f 3 749 736
f 3 736 735
f 3 735 693
f 3 693 659
f 3 659 619
f 3 619 583
f 3 583 576
f 3 576 535
f 3 535 495
f 3 495 457
f 3 457 425
f 3 425 424
f 3 424 420
f 3 420 386
f 3 386 350
f 3 350 320
f 3 320 290
f 3 290 261
f 3 261 238
f 3 238 211
f 3 211 184
f 3 184 154
f 3 154 116
f 3 116 84
f 3 84 60
f 3 60 40
f 3 40 24
f 3 24 12
f 3 12 7
f 3 7 6
f 3 6 5
f 3 5 4
f 7 12 13
f 7 13 8
f 9 14 15
f 9 15 10
f 10 15 16
f 10 16 17
f 10 17 18
f 11 19 20
f 11 20 21
f 12 22 23
f 12 23 13
f 12 24 22
f 14 25 26
f 14 26 15
f 15 26 16
f 16 26 17
f 17 26 27
f 17 27 28
f 17 28 29
f 17 29 30
f 17 30 31
f 17 31 32
f 17 32 33
f 17 33 34
f 17 34 18
f 19 35 20
f 19 36 35
f 20 35 21
f 21 37 38
f 21 35 37
f 22 24 39
f 24 40 41
f 24 41 39
f 25 42 26
f 26 42 43
f 26 43 28
f 26 28 27
f 28 44 29
f 28 43 45
f 28 45 46
f 28 46 47
f 28 47 48
f 28 48 49
f 28 49 44
f 29 44 30
f 30 50 51
f 30 51 31
f 30 44 49
f 30 49 50
f 35 36 52
f 35 52 53
f 35 53 54
f 35 54 37
f 37 54 55
f 37 55 56
f 37 56 57
f 37 57 58
f 37 58 38
f 38 58 59
f 40 60 61
f 40 61 41
f 42 62 63
f 42 63 43
f 43 63 45
f 45 63 64
f 45 64 46
f 46 64 47
f 47 64 65
f 47 65 66
f 47 66 67
f 47 67 68
f 47 68 48
f 48 68 49
f 49 69 50
f 49 68 67
f 49 67 70
f 49 70 71
f 49 71 72
f 49 72 69
f 50 69 51
f 51 69 73
f 51 73 74
f 52 75 53
f 53 75 76
f 53 76 55
f 53 55 54
f 55 76 77
f 55 77 78
f 55 78 79
f 55 79 56
f 56 79 57
f 57 80 81
f 57 81 58
f 57 79 80
f 58 82 59
f 58 81 83
f 58 83 82
f 60 84 85
f 60 85 61
f 62 86 87
f 62 87 63
f 63 87 64
f 64 87 88
f 64 88 89
f 64 89 90
f 64 90 91
f 64 91 92
f 64 92 93
f 64 93 66
f 64 66 65
f 66 93 94
f 66 94 67
f 67 94 95
f 67 95 96
f 67 96 70
f 69 72 73
f 70 96 71
f 71 96 97
f 71 97 98
f 71 98 73
f 71 73 72
f 73 99 100
f 73 100 74
f 73 98 101
f 73 101 102
f 73 102 103
f 73 103 99
f 75 104 105
f 75 105 76
f 76 105 77
f 77 106 107
f 77 107 78
f 77 105 108
f 77 108 109
f 77 109 110
f 77 110 106
f 78 107 111
f 78 111 79
f 79 111 112
f 79 112 80
f 80 112 113
f 80 113 81
f 81 113 114
f 81 114 115
f 81 115 83
f 84 116 117
f 84 117 85
f 86 118 88
f 86 88 87
f 88 118 89
f 89 118 119
f 89 119 120
f 89 120 121
f 89 121 122
f 89 122 123
f 89 123 91
f 89 91 90
f 91 124 125
f 91 125 126
f 91 126 127
f 91 127 92
f 91 123 124
f 92 127 93
f 93 127 128
f 93 128 94
f 94 128 129
f 94 129 130
f 94 130 131
f 94 131 95
f 95 131 96
f 96 131 132
f 96 132 97
f 97 132 133
f 97 133 134
f 97 134 98
f 98 134 135
f 98 135 136
f 98 136 101
f 101 136 137
f 101 137 138
f 101 138 102
f 102 138 103
f 104 139 105
f 105 139 140
f 105 140 141
f 105 141 108
f 106 110 109
f 106 109 135
f 106 135 142
f 106 142 143
f 106 143 144
f 106 144 145
f 106 145 146
f 106 146 107
f 107 146 111
f 108 141 109
f 109 141 147
f 109 147 135
f 111 146 112
f 112 146 148
f 112 148 149
f 112 149 113
f 113 149 148
f 113 148 150
f 113 150 151
f 113 151 152
f 113 152 114
f 114 152 153
f 114 153 115
f 116 154 155
f 116 155 156
f 116 156 117
f 121 157 158
f 121 158 123
f 121 123 122
f 123 158 124
f 124 158 159
f 124 159 160
f 124 160 161
f 124 161 125
f 125 161 126
f 126 161 162
f 126 162 129
f 126 129 127
f 127 129 128
f 129 162 163
f 129 163 164
f 129 164 165
f 129 165 130
f 130 165 131
f 131 165 164
f 131 164 166
f 131 166 167
f 131 167 168
f 131 168 132
f 132 168 133
f 133 168 169
f 133 169 142
f 133 142 134
f 134 142 135
f 135 147 137
f 135 137 136
f 137 170 171
f 137 171 138
f 137 147 170
f 140 170 141
f 141 170 147
f 142 169 143
f 143 169 144
f 144 169 167
f 144 167 172
f 144 172 173
f 144 173 174
f 144 174 145
f 145 174 146
f 146 174 175
f 146 175 176
f 146 176 177
f 146 177 148
f 148 177 178
f 148 178 179
f 148 179 180
f 148 180 181
f 148 181 182
f 148 182 150
f 150 182 151
f 151 182 152
f 152 182 183
f 154 184 155
f 155 184 185
f 157 186 187
f 157 187 158
f 158 187 159
f 159 187 188
f 159 188 160
f 160 188 189
f 160 189 161
f 161 189 190
f 161 190 162
f 162 190 191
f 162 191 163
f 163 191 192
f 163 192 193
f 163 193 194
f 163 194 195
f 163 195 196
f 163 196 197
f 163 197 164
f 164 197 198
f 164 198 166
f 166 198 167
f 167 169 168
f 167 198 172
f 172 199 173
f 172 198 199
f 173 199 175
f 173 175 174
f 175 199 200
f 175 200 201
f 175 201 176
f 176 201 178
f 176 178 177
f 178 201 200
f 178 200 202
f 178 202 203
f 178 203 204
f 178 204 205
f 178 205 179
f 179 205 180
f 180 205 206
f 180 206 207
f 180 207 208
f 180 208 181
f 181 208 182
f 182 208 209
f 182 209 210
f 182 210 183
f 184 211 212
f 184 212 185
f 186 213 187
f 187 214 215
f 187 215 216
f 187 216 188
f 187 213 214
f 188 216 217
f 188 217 218
f 188 218 189
f 189 218 219
f 189 219 192
f 189 192 190
f 190 192 191
f 192 219 220
f 192 220 221
f 192 221 193
f 193 221 194
f 194 222 223
f 194 223 224
f 194 224 195
f 194 221 222
f 195 224 196
f 196 224 225
f 196 225 202
f 196 202 197
f 197 202 226
f 197 226 198
f 198 226 199
f 199 202 200
f 199 226 202
f 202 225 227
f 202 227 228
f 202 228 203
f 203 229 204
f 203 228 229
f 204 229 230
f 204 230 231
f 204 231 205
f 205 231 206
f 206 231 232
f 206 232 233
f 206 233 207
f 207 233 234
f 207 234 235
f 207 235 208
f 208 235 209
f 209 236 210
f 209 235 237
f 209 237 236
f 211 238 239
f 211 239 212
f 214 240 215
f 215 240 241
f 215 241 217
f 215 217 216
f 217 242 243
f 217 243 244
f 217 244 245
f 217 245 246
f 217 246 218
f 217 241 242
f 218 246 219
f 219 246 220
f 220 247 248
f 220 248 221
f 220 246 247
f 221 248 222
f 222 248 249
f 222 249 250
f 222 250 251
f 222 251 252
f 222 252 223
f 223 252 224
f 224 252 225
f 225 252 227
f 227 252 229
f 227 229 228
f 229 252 253
f 229 253 230
f 230 253 252
f 230 252 254
f 230 254 255
f 230 255 231
f 231 255 232
f 232 255 256
f 232 256 257
f 232 257 233
f 233 257 258
f 233 258 234
f 234 259 235
f 234 258 260
f 234 260 259
f 235 259 237
f 238 261 262
f 238 262 263
f 238 263 264
f 238 264 265
f 238 265 239
f 240 266 241
f 241 266 242
f 242 267 268
f 242 268 244
f 242 244 243
f 242 266 269
f 242 269 267
f 244 270 245
f 244 268 271
f 244 271 272
f 244 272 273
f 244 273 270
f 245 270 246
f 246 270 247
f 247 249 248
f 247 270 249
f 249 274 275
f 249 275 276
f 249 276 250
f 249 270 273
f 249 273 277
f 249 277 274
f 250 276 278
f 250 278 251
f 251 278 279
f 251 279 280
f 251 280 252
f 252 281 282
f 252 282 254
f 252 280 281
f 254 283 284
f 254 284 255
f 254 282 283
f 255 284 256
f 256 285 286
f 256 286 257
f 256 284 285
f 257 286 287
f 257 287 258
f 258 287 288
f 258 288 260
f 260 288 289
f 261 290 262
f 262 291 292
f 262 292 263
f 262 290 293
f 262 293 291
f 263 292 294
f 263 294 295
f 267 269 296
f 267 296 297
f 267 297 298
f 267 298 299
f 267 299 268
f 268 299 271
f 271 299 300
f 271 300 272
f 272 300 301
f 272 301 273
f 273 301 277
f 274 302 275
f 274 277 301
f 274 301 302
f 275 303 304
f 275 304 276
f 275 302 303
f 276 304 305
f 276 305 306
f 276 306 278
f 278 306 307
f 278 307 279
f 279 307 308
f 279 308 309
f 279 309 281
f 279 281 280
f 281 309 310
f 281 310 282
f 282 310 283
f 283 311 312
f 283 312 284
f 283 310 311
f 284 312 285
f 285 312 313
f 285 313 314
f 285 314 286
f 286 314 315
f 286 315 316
f 286 316 287
f 287 316 317
f 287 317 318
f 287 318 288
f 288 318 319
f 288 319 289
f 290 320 321
f 290 321 293
f 291 322 292
f 291 293 322
f 292 322 323
f 292 323 294
f 293 324 322
f 293 321 324
f 294 325 326
f 294 326 295
f 294 323 325
f 295 326 327
f 295 327 328
f 298 329 330
f 298 330 299
f 299 330 331
f 299 331 300
f 300 331 332
f 300 332 302
f 300 302 301
f 302 332 333
f 302 333 303
f 303 334 335
f 303 335 304
f 303 333 334
f 304 335 336
f 304 336 305
f 305 336 337
f 305 337 307
f 305 307 306
f 307 337 338
f 307 338 339
f 307 339 309
f 307 309 308
f 309 339 340
f 309 340 341
f 309 341 310
f 310 341 311
f 311 341 340
f 311 340 342
f 311 342 343
f 311 343 312
f 312 343 313
f 313 344 345
f 313 345 315
f 313 315 314
f 313 343 344
f 315 345 346
f 315 346 347
f 315 347 348
f 315 348 316
f 316 348 347
f 316 347 317
f 317 319 318
f 317 347 349
f 317 349 319
f 320 350 351
f 320 351 321
f 321 351 352
f 321 352 324
f 322 353 323
f 322 324 353
f 323 354 325
f 323 353 354
f 324 352 355
f 324 355 356
f 324 356 357
f 324 357 353
f 325 354 326
f 326 354 358
f 326 358 327
f 327 359 360
f 327 360 361
f 327 361 362
f 327 362 363
f 327 363 364
f 327 364 328
f 327 358 365
f 327 365 366
f 327 366 359
f 329 367 368
f 329 368 330
f 330 368 369
f 330 369 331
f 331 369 370
f 331 370 332
f 332 370 333
f 333 370 371
f 333 371 334
f 334 371 372
f 334 372 373
f 334 373 335
f 335 373 374
f 335 374 336
f 336 374 375
f 336 375 337
f 337 375 376
f 337 376 377
f 337 377 338
f 338 377 340
f 338 340 339
f 340 377 342
f 342 378 379
f 342 379 343
f 342 377 378
f 343 379 344
f 344 379 380
f 344 380 381
f 344 381 345
f 345 381 382
f 345 382 346
f 346 382 383
f 346 383 347
f 347 383 384
f 347 384 349
f 349 384 385
f 350 386 351
f 351 386 355
f 351 355 352
f 353 357 354
f 354 357 365
f 354 365 358
f 355 387 388
f 355 388 356
f 355 386 389
f 355 389 390
f 355 390 391
f 355 391 392
f 355 392 387
f 356 388 357
f 357 388 366
f 357 366 365
f 359 366 393
f 359 393 394
f 359 394 360
f 360 394 361
f 361 394 395
f 361 395 396
f 361 396 397
f 361 397 398
f 361 398 362
f 362 398 363
f 366 388 399
f 366 399 400
f 366 400 393
f 367 401 368
f 368 401 402
f 368 402 403
f 368 403 372
f 368 372 369
f 369 372 370
f 370 372 371
f 372 403 404
f 372 404 405
f 372 405 373
f 373 405 406
f 373 406 407
f 373 407 408
f 373 408 374
f 374 408 409
f 374 409 375
f 375 409 410
f 375 410 376
f 376 410 411
f 376 411 377
f 377 411 378
f 378 411 412
f 378 412 413
f 378 413 379
f 379 413 380
f 380 413 414
f 380 414 415
f 380 415 381
f 381 415 416
f 381 416 382
f 382 416 417
f 382 417 383
f 383 417 418
f 383 418 384
f 384 418 385
f 385 418 419
f 386 420 391
f 386 391 389
f 387 392 421
f 387 421 388
f 388 421 422
f 388 422 423
f 388 423 399
f 389 391 390
f 391 420 424
f 391 424 425
f 391 425 426
f 391 426 392
f 392 426 427
f 392 427 428
f 392 428 423
f 392 423 422
f 392 422 421
f 393 400 395
f 393 395 394
f 395 400 423
f 395 423 429
f 395 429 396
f 396 429 430
f 396 430 431
f 396 431 432
f 396 432 397
f 397 432 433
f 397 433 434
f 397 434 435
f 397 435 436
f 397 436 398
f 399 423 400
f 401 437 402
f 402 438 439
f 402 439 403
f 402 437 438
f 403 439 404
f 404 440 441
f 404 441 442
f 404 442 443
f 404 443 405
f 404 439 440
f 405 443 406
f 406 443 407
f 407 443 444
f 407 444 445
f 407 445 446
f 407 446 408
f 408 446 409
f 409 446 447
f 409 447 410
f 410 447 448
f 410 448 411
f 411 448 412
f 412 448 449
f 412 449 450
f 412 450 413
f 413 450 414
f 414 451 452
f 414 452 415
f 414 450 451
f 415 452 453
f 415 453 416
f 416 453 454
f 416 454 417
f 417 454 455
f 417 455 418
f 418 455 419
f 419 455 456
f 423 428 429
f 425 457 427
f 425 427 426
f 427 458 459
f 427 459 460
f 427 460 428
f 427 457 461
f 427 461 462
f 427 462 463
f 427 463 464
f 427 464 458
f 428 460 465
f 428 465 466
f 428 466 429
f 429 466 467
f 429 467 430
f 430 468 469
f 430 469 431
f 430 467 468
f 431 469 432
f 432 470 471
f 432 471 433
f 432 469 470
f 433 472 434
f 433 471 472
f 434 472 435
f 435 473 474
f 435 474 436
f 435 472 473
f 438 475 476
f 438 476 439
f 439 476 440
f 440 476 477
f 440 477 441
f 441 478 479
f 441 479 480
f 441 480 442
f 441 477 478
f 442 480 443
f 443 480 444
f 444 480 479
f 444 479 481
f 444 481 482
f 444 482 445
f 445 482 483
f 445 483 446
f 446 483 484
f 446 484 485
f 446 485 448
f 446 448 447
f 448 485 449
f 449 486 487
f 449 487 450
f 449 485 486
f 450 487 451
f 451 487 488
f 451 488 489
f 451 489 490
f 451 490 452
f 452 490 491
f 452 491 453
f 453 491 492
f 453 492 454
f 454 492 455
f 455 492 493
f 455 493 494
f 455 494 456
f 457 495 496
f 457 496 461
f 458 464 504
f 458 504 497
f 458 497 498
f 458 498 459
f 459 498 460
f 460 498 499
f 460 499 505
f 460 505 465
f 461 500 462
f 461 496 501
f 461 501 502
f 461 502 500
f 462 500 503
f 462 503 463
f 463 503 504
f 463 504 464
f 465 505 506
f 465 506 466
f 466 506 467
f 467 507 468
f 467 506 507
f 468 508 469
f 468 507 508
f 469 509 510
f 469 510 470
f 469 508 509
f 470 510 511
f 470 511 471
f 471 511 472
f 472 511 512
f 472 512 513
f 472 513 473
f 473 513 514
f 473 514 474
f 475 515 516
f 475 516 476
f 476 516 477
f 477 516 517
f 477 517 478
f 478 518 519
f 478 519 479
f 478 517 518
f 479 519 520
f 479 520 521
f 479 521 481
f 481 521 482
f 482 521 483
f 483 521 522
f 483 522 523
f 483 523 484
f 484 523 524
f 484 524 485
f 485 524 486
f 486 524 525
f 486 525 526
f 486 526 488
f 486 488 487
f 488 526 527
f 488 527 489
f 489 527 528
f 489 528 490
f 490 528 529
f 490 529 530
f 490 530 491
f 491 530 531
f 491 531 492
f 492 531 532
f 492 532 493
f 493 532 494
f 494 532 533
f 494 533 534
f 495 535 501
f 495 501 496
f 497 536 537
f 497 537 498
f 497 504 543
f 497 543 536
f 498 537 499
f 499 537 538
f 499 538 544
f 499 544 505
f 500 539 540
f 500 540 503
f 500 502 539
f 501 535 541
f 501 541 542
f 501 542 502
f 502 542 539
f 503 540 543
f 503 543 504
f 505 544 506
f 506 545 546
f 506 546 507
f 506 544 545
f 507 546 508
f 508 547 548
f 508 548 509
f 508 546 549
f 508 549 547
f 509 548 550
f 509 550 510
f 510 550 551
f 510 551 511
f 511 551 552
f 511 552 512
f 512 552 553
f 512 553 513
f 513 553 514
f 514 553 554
f 515 555 556
f 515 556 516
f 516 556 517
f 517 556 557
f 517 557 518
f 518 558 559
f 518 559 519
f 518 557 558
f 519 559 560
f 519 560 520
f 520 560 561
f 520 561 521
f 521 561 562
f 521 562 522
f 522 562 563
f 522 563 523
f 523 563 564
f 523 564 524
f 524 564 525
f 525 564 565
f 525 565 566
f 525 566 526
f 526 566 567
f 526 567 527
f 527 567 528
f 528 567 568
f 528 568 529
f 529 568 569
f 529 569 570
f 529 570 571
f 529 571 572
f 529 572 531
f 529 531 530
f 531 572 532
f 532 572 573
f 532 573 533
f 533 573 574
f 533 574 534
f 534 574 575
f 535 576 541
f 536 543 577
f 536 577 578
f 536 578 579
f 536 579 537
f 537 579 580
f 537 580 538
f 538 580 544
f 539 542 581
f 539 581 540
f 540 582 577
f 540 577 543
f 540 581 582
f 541 576 583
f 541 583 542
f 542 583 581
f 544 584 585
f 544 585 545
f 544 580 584
f 545 585 546
f 546 585 549
f 547 586 587
f 547 587 548
f 547 549 589
f 547 589 586
f 548 587 588
f 548 588 550
f 549 585 589
f 550 588 551
f 551 590 591
f 551 591 552
f 551 588 590
f 552 591 553
f 553 591 554
f 554 591 592
f 555 593 556
f 556 593 557
f 557 593 594
f 557 594 558
f 558 594 595
f 558 595 596
f 558 596 559
f 559 596 597
f 559 597 560
f 560 597 598
f 560 598 561
f 561 598 599
f 561 599 562
f 562 599 600
f 562 600 563
f 563 600 601
f 563 601 564
f 564 601 565
f 565 602 566
f 565 601 602
f 566 602 603
f 566 603 604
f 566 604 567
f 567 604 569
f 567 569 568
f 569 604 605
f 569 605 606
f 569 606 570
f 570 606 607
f 570 607 571
f 571 607 608
f 571 608 609
f 571 609 572
f 572 609 573
f 573 609 574
f 574 610 575
f 574 609 610
f 575 610 611
f 577 612 578
f 577 582 612
f 578 612 613
f 578 613 579
f 579 613 614
f 579 614 615
f 579 615 580
f 580 615 584
f 581 616 617
f 581 617 582
f 581 583 618
f 581 618 616
f 582 617 612
f 583 619 618
f 584 615 620
f 584 620 621
f 584 621 585
f 585 621 589
f 586 622 623
f 586 623 624
f 586 624 587
f 586 589 625
f 586 625 622
f 587 624 588
f 588 624 590
f 589 621 625
f 590 626 627
f 590 627 628
f 590 628 629
f 590 629 591
f 590 624 626
f 591 629 628
f 591 628 592
f 592 628 630
f 593 631 594
f 594 632 595
f 594 631 632
f 595 633 634
f 595 634 596
f 595 632 633
f 596 634 635
f 596 635 597
f 597 635 636
f 597 636 598
f 598 636 637
f 598 637 599
f 599 637 638
f 599 638 600
f 600 638 639
f 600 639 601
f 601 639 602
f 602 639 640
f 602 640 641
f 602 641 603
f 603 642 643
f 603 643 604
f 603 641 642
f 604 643 605
f 605 644 645
f 605 645 606
f 605 643 644
f 606 645 646
f 606 646 607
f 607 646 647
f 607 647 608
f 608 647 610
f 608 610 609
f 610 648 611
f 610 647 649
f 610 649 650
f 610 650 648
f 612 651 613
f 612 617 651
f 613 652 653
f 613 653 654
f 613 654 614
f 613 651 652
f 614 654 615
f 615 654 620
f 616 655 656
f 616 656 617
f 616 618 619
f 616 619 657
f 616 657 658
f 616 658 655
f 617 656 651
f 619 659 657
f 620 654 621
f 621 660 625
f 621 654 661
f 621 661 660
f 622 662 663
f 622 663 623
f 622 625 664
f 622 664 662
f 623 663 624
f 624 663 626
f 625 660 664
f 626 665 627
f 626 663 665
f 627 665 666
f 627 666 667
f 627 667 628
f 628 667 668
f 628 668 630
f 631 669 632
f 632 670 633
f 632 669 670
f 633 671 672
f 633 672 634
f 633 670 671
f 634 672 673
f 634 673 635
f 635 673 674
f 635 674 675
f 635 675 636
f 636 675 637
f 637 675 676
f 637 676 638
f 638 676 640
f 638 640 639
f 640 677 641
f 640 676 677
f 641 677 678
f 641 678 642
f 642 679 680
f 642 680 643
f 642 678 679
f 643 680 644
f 644 681 682
f 644 682 645
f 644 680 681
f 645 682 683
f 645 683 646
f 646 683 684
f 646 684 647
f 647 684 649
f 649 685 650
f 649 684 685
f 650 685 686
f 651 687 652
f 651 656 687
f 652 687 688
f 652 688 689
f 652 689 653
f 653 689 690
f 653 690 654
f 654 690 661
f 655 691 692
f 655 692 656
f 655 658 691
f 656 692 687
f 657 659 658
f 658 659 693
f 658 693 694
f 658 694 691
f 660 695 664
f 660 661 695
f 661 690 696
f 661 696 695
f 662 664 697
f 662 697 698
f 662 698 699
f 662 699 700
f 662 700 663
f 663 700 701
f 663 701 665
f 664 695 697
f 665 701 702
f 665 702 703
f 665 703 704
f 665 704 666
f 666 704 705
f 666 705 667
f 667 705 668
f 668 705 706
f 669 707 670
f 670 707 708
f 670 708 709
f 670 709 671
f 671 709 710
f 671 710 711
f 671 711 672
f 672 711 712
f 672 712 673
f 673 712 713
f 673 713 714
f 673 714 674
f 674 714 675
f 675 714 715
f 675 715 676
f 676 715 677
f 677 716 717
f 677 717 678
f 677 715 716
f 678 717 679
f 679 717 718
f 679 718 719
f 679 719 680
f 680 719 681
f 681 720 721
f 681 721 682
f 681 719 720
f 682 721 722
f 682 722 683
f 683 722 684
f 684 722 723
f 684 723 724
f 684 724 685
f 685 724 725
f 685 725 726
f 685 726 686
f 687 692 727
f 687 727 688
f 688 727 728
f 688 728 729
f 688 729 730
f 688 730 689
f 689 730 731
f 689 731 690
f 690 731 696
f 691 694 732
f 691 732 733
f 691 733 734
f 691 734 692
f 692 734 727
f 693 735 694
f 694 736 732
f 694 735 736
f 695 696 737
f 695 737 738
f 695 738 739
f 695 739 697
f 696 731 737
f 697 739 698
f 698 739 740
f 698 740 699
f 699 740 702
f 699 702 701
f 699 701 700
f 702 740 703
f 703 712 711
f 703 711 704
f 703 740 712
f 704 711 710
f 704 710 705
f 705 710 741
f 705 741 742
f 705 742 706
f 708 741 709
f 709 741 710
f 712 740 713
f 713 740 714
f 714 740 743
f 714 743 715
f 715 743 716
f 716 743 739
f 716 739 744
f 716 744 717
f 717 744 718
f 718 744 737
f 718 737 719
f 719 745 720
f 719 737 745
f 720 730 729
f 720 729 721
f 720 745 730
f 721 729 728
f 721 728 722
f 722 728 746
f 722 746 723
f 723 746 747
f 723 747 724
f 724 747 748
f 724 748 725
f 725 748 749
f 725 749 750
f 725 750 726
f 727 734 728
f 728 734 746
f 730 745 731
f 731 745 737
f 732 736 749
f 732 749 748
f 732 748 747
f 732 747 733
f 733 747 746
f 733 746 734
f 737 744 738
f 738 744 739
f 739 743 740
