v -0.48214978 -0.02884084 0.50406057
v -0.29611796 -0.15163684 0.50406057
v -0.29611796 -0.22791214 0.30088717
v -0.48214978 -0.16352171 0.30088717
v -0.48214978 -0.27617314 0.50406057
v -0.29611796 -0.33958733 0.50406057
v -0.29611796 -0.46225601 0.30088717
v -0.48214978 -0.34523264 0.30088717
v -0.48214978 -0.27939904 0.49813402
v -0.47972763 -0.27986592 0.49972504
v -0.47686842 -0.27901700 0.50406057
v -0.30422217 -0.33776215 0.50406057
v -0.29611796 -0.45635602 0.33400029
v -0.29611796 -0.46242577 0.30389023
v -0.29912290 -0.46238333 0.30088717
v -0.33243197 -0.45436105 0.30088717
v -0.48214978 -0.34328011 0.31001565
v -0.48214978 -0.28105441 0.49475309
v -0.31471205 -0.45745960 0.31474894
v -0.29611796 -0.45801139 0.33113647
v -0.46716163 -0.28364360 0.50406057
v -0.31015915 -0.33636144 0.50406057
v -0.33011910 -0.33139527 0.50406057
v -0.33594683 -0.32982475 0.50406057
v -0.34987873 -0.32600462 0.50406057
v -0.36554071 -0.32159024 0.50406057
v -0.37559354 -0.31861904 0.50406057
v -0.38999894 -0.31390756 0.50406057
v -0.39498892 -0.31220973 0.50406057
v -0.40952182 -0.30720109 0.50406057
v -0.42481959 -0.30176800 0.50406057
v -0.43469027 -0.29790545 0.50406057
v -0.45146319 -0.29068965 0.50406057
v -0.30932140 -0.46170419 0.30088717
v -0.29611796 -0.46115240 0.32135168
v -0.30882969 -0.46119484 0.30884227
v -0.32163247 -0.46047327 0.30088717
v -0.32134110 -0.46043080 0.30140424
v -0.48214978 -0.29179323 0.47150430
v -0.48214978 -0.29858458 0.45623049
v -0.48214978 -0.30096155 0.45038348
v -0.48214978 -0.30261695 0.44614738
v -0.48214978 -0.30868670 0.42981955
v -0.48214978 -0.31564784 0.41038918
v -0.48214978 -0.31844926 0.40219542
v -0.48214978 -0.32082623 0.39477730
v -0.48214978 -0.32226938 0.39000425
v -0.48214978 -0.32799959 0.37051421
v -0.48214978 -0.33152258 0.35784572
v -0.48214978 -0.33347511 0.35056680
v -0.48214978 -0.33784705 0.33334398
v -0.48214978 -0.34077582 0.32117268
v -0.48214978 -0.28428030 0.48793158
v -0.30138114 -0.46043080 0.32129201
v -0.29611796 -0.46072793 0.32435474
v -0.31667891 -0.46115240 0.30088717
f 1 2 3
f 1 3 4
f 1 4 8
f 1 8 17
f 1 17 52
f 1 52 51
f 1 51 50
f 1 50 49
f 1 49 48
f 1 48 47
f 1 47 46
f 1 46 45
f 1 45 44
f 1 44 43
f 1 43 42
f 1 42 41
f 1 41 40
f 1 40 39
f 1 39 53
f 1 53 18
f 1 18 9
f 1 9 5
f 1 5 11
f 1 11 21
f 1 21 33
f 1 33 32
f 1 32 31
f 1 31 30
f 1 30 29
f 1 29 28
f 1 28 27
f 1 27 26
f 1 26 25
f 1 25 24
f 1 24 23
f 1 23 22
f 1 22 12
f 1 12 6
f 1 6 2
f 2 6 13
f 2 13 20
f 2 20 55
f 2 55 35
f 2 35 14
f 2 14 7
f 2 7 3
f 3 7 15
f 3 15 34
f 3 34 56
f 3 56 37
f 3 37 16
f 3 16 8
f 3 8 4
f 5 9 10
f 5 10 11
f 6 12 13
f 7 14 15
f 8 16 17
f 9 18 19
f 9 19 10
f 10 19 11
f 11 19 20
f 11 20 21
f 12 22 13
f 13 22 23
f 13 23 24
f 13 24 25
f 13 25 26
f 13 26 27
f 13 27 28
f 13 28 29
f 13 29 30
f 13 30 31
f 13 31 32
f 13 32 33
f 13 33 20
f 14 34 15
f 14 35 36
f 14 36 34
f 16 37 38
f 16 38 39
f 16 39 40
f 16 40 41
f 16 41 42
f 16 42 43
f 16 43 44
f 16 44 45
f 16 45 46
f 16 46 47
f 16 47 48
f 16 48 49
f 16 49 50
f 16 50 51
f 16 51 52
f 16 52 17
f 18 53 38
f 18 38 19
f 19 38 54
f 19 54 20
f 20 33 21
f 20 54 55
f 34 36 56
f 35 55 36
f 36 55 54
f 36 54 37
f 36 37 56
f 37 54 38
f 38 53 39
