v -0.28590110 -0.36568230 -0.43273267
v -0.28590110 -0.19604030 -0.43273267
v -0.15022171 -0.43502557 -0.43273267
v -0.48091960 -0.30716267 -0.43269020
v 0.00019827 -0.22804210 -0.43273267
v -0.48091960 -0.09419014 -0.43269020
v -0.12540287 -0.44667900 -0.43273267
v -0.46858084 -0.31221369 -0.43269020
v -0.19001660 -0.44815820 -0.40768439
v -0.19001660 -0.45815200 -0.39626408
v -0.21954487 -0.45988381 -0.37957937
v -0.22999987 -0.45782730 -0.37614053
v -0.25665537 -0.45901790 -0.35724819
v -0.27911946 -0.45977557 -0.33912003
v -0.30021784 -0.46006417 -0.32014278
v -0.32028010 -0.46006417 -0.30023152
v -0.33940050 -0.45984769 -0.27925888
v -0.35757899 -0.45923436 -0.25713998
v -0.37561619 -0.45782730 -0.23404461
v -0.38037276 -0.46013635 -0.22067137
v -0.39647907 -0.45851278 -0.19456172
v -0.48091960 -0.30846152 -0.42925137
v 0.00019827 -0.25311679 0.00098470
v 0.00019827 -0.46067750 -0.43273267
v -0.48091960 -0.20931725 0.00085732
v -0.11005005 -0.45086414 -0.43273267
v -0.12756923 -0.44960135 -0.42920893
v -0.15003332 -0.44682330 -0.42564273
v -0.45619497 -0.31712040 -0.43269020
v -0.16661060 -0.44346797 -0.42258599
v -0.17899647 -0.45981163 -0.39932081
v -0.20621711 -0.46085793 -0.38238138
v -0.22999987 -0.46136302 -0.36612123
v -0.24332762 -0.46067750 -0.36183327
v -0.26579171 -0.46100223 -0.34387493
v -0.28999832 -0.46085793 -0.32451561
v -0.30812973 -0.46074969 -0.30812809
v -0.32470700 -0.46085793 -0.28995746
v -0.34425122 -0.46089399 -0.26588565
v -0.36228845 -0.46074969 -0.24380919
v -0.36939973 -0.46114653 -0.22835568
v -0.38268036 -0.46082184 -0.21001524
v -0.40043503 -0.46020848 -0.18123093
v -0.48091960 -0.31542468 -0.40993449
v -0.28590110 -0.24936461 0.00098470
v 0.00019827 -0.39562762 0.00098470
v -0.46994656 -0.21379101 0.00094225
v -0.01006834 -0.46067750 -0.43273267
v 0.00019827 -0.46186811 -0.42806265
v -0.48091960 -0.23792766 0.00094225
v -0.11005005 -0.45223510 -0.43133166
v -0.09460305 -0.45450807 -0.43273267
v -0.12107018 -0.46010026 -0.42016608
v -0.13439794 -0.45894575 -0.41719425
v -0.15003332 -0.45681709 -0.41417995
v -0.16566871 -0.46067750 -0.40169829
v -0.19001660 -0.46143517 -0.38628721
v -0.22999987 -0.46262577 -0.34998843
v -0.24996795 -0.46168774 -0.35037053
v -0.21172717 -0.46172380 -0.37176770
v -0.27144307 -0.46179596 -0.33147818
v -0.28999832 -0.46222889 -0.30995363
v -0.31001350 -0.46222889 -0.28995746
v -0.33068800 -0.46157950 -0.27399451
v -0.35051480 -0.46154341 -0.25021985
v -0.37001193 -0.46219283 -0.21001524
v -0.38988584 -0.46132696 -0.18874542
v -0.40208334 -0.46082184 -0.17002289
v -0.42045021 -0.46024460 -0.12238871
v -0.41790712 -0.45934260 -0.13576195
v -0.41522270 -0.45768297 -0.15002672
v -0.41206735 -0.45411122 -0.17002289
v -0.48091960 -0.31946552 -0.39821696
v -0.48091960 -0.31859961 -0.40076429
v -0.28590110 -0.42708826 0.00098470
v -0.40994811 -0.46208459 0.00094225
v 0.00019827 -0.46143517 -0.40394837
v -0.03003642 -0.46183205 -0.42734092
v -0.03003642 -0.46031672 -0.43273267
v -0.01006834 -0.46183205 -0.42797774
v 0.00019827 -0.46237320 -0.40997696
v -0.05005160 -0.46266186 -0.40997696
v -0.07001969 -0.46277010 -0.40997696
v -0.48091960 -0.39021581 0.00094225
v -0.09003487 -0.45541003 -0.43273267
v -0.15003332 -0.46129084 -0.40416065
v -0.07001969 -0.45800769 -0.43273267
v -0.11005005 -0.46064144 -0.42126989
v -0.11005005 -0.46219283 -0.40997696
v -0.15003332 -0.46237320 -0.38998076
v -0.09003487 -0.46269792 -0.40997696
v -0.40994811 -0.46248144 -0.09003821
v -0.34999675 -0.46233714 -0.22992650
v -0.33162987 -0.46168774 -0.27148965
v -0.38993293 -0.46219283 -0.17002289
v -0.40519157 -0.46143517 -0.15002672
v -0.42153338 -0.46074969 -0.11003438
v -0.43627399 -0.45847672 -0.05008833
v -0.43476695 -0.45725006 -0.07004204
v -0.43316573 -0.45537394 -0.09003821
v -0.43151742 -0.45266807 -0.11003438
v -0.42953944 -0.45003432 -0.12879936
v -0.42647833 -0.44768918 -0.15002672
v -0.48091960 -0.32282084 -0.38760331
v -0.45817292 -0.43571106 0.00094225
v -0.44818890 -0.44952920 0.00094225
v -0.44286722 -0.45501316 0.00094225
v -0.43844032 -0.45952302 0.00094225
v -0.42840916 -0.46179596 0.00094225
v -0.40994811 -0.46248144 -0.07004204
v -0.05005160 -0.46179596 -0.42610973
v -0.07001969 -0.46161556 -0.42466629
v -0.05005160 -0.45952302 -0.43273267
v -0.48091960 -0.39021581 -0.00011913
v -0.09003487 -0.46132696 -0.42313790
v -0.42831498 -0.46179596 -0.01005353
v -0.42751437 -0.46175987 -0.03000724
v -0.42628992 -0.46172380 -0.05008833
v -0.42478290 -0.46161556 -0.07004204
v -0.40994811 -0.46215674 -0.11003438
v -0.42318168 -0.46129084 -0.09003821
v -0.43749845 -0.45916224 -0.03000724
v -0.44682315 -0.44848293 -0.05008833
v -0.44555157 -0.44725627 -0.07004204
v -0.44380909 -0.44534409 -0.09003821
v -0.44178402 -0.44263816 -0.11003438
v -0.48091960 -0.32801616 -0.37028179
v -0.48091960 -0.32462478 -0.38161719
v -0.48091960 -0.39014366 -0.01005353
v -0.45812583 -0.43563890 -0.01005353
v -0.44814181 -0.44945705 -0.01005353
v -0.43829903 -0.45948690 -0.01005353
v -0.44767085 -0.44913232 -0.03000724
v -0.45765489 -0.43452048 -0.03000724
v -0.45680720 -0.43246397 -0.05008833
v -0.48091960 -0.35388458 -0.25854099
v -0.48091960 -0.35182810 -0.26953673
v -0.48091960 -0.35096222 -0.27399451
v -0.48091960 -0.34760690 -0.29055184
v -0.48091960 -0.34345785 -0.30995363
v -0.48091960 -0.34086019 -0.32158622
v -0.48091960 -0.33797389 -0.33347356
v -0.48091960 -0.33631426 -0.33996910
v -0.48091960 -0.33357227 -0.35037053
v -0.48091960 -0.38906130 -0.03000724
v -0.48091960 -0.38714916 -0.05008833
v -0.48091960 -0.38220635 -0.09084485
v -0.48091960 -0.36708939 -0.18292913
v -0.48091960 -0.35911599 -0.22903495
v -0.48091960 -0.35543597 -0.24992266
f 1 2 5
f 1 5 24
f 1 24 48
f 1 48 79
f 1 79 113
f 1 113 87
f 1 87 85
f 1 85 52
f 1 52 26
f 1 26 7
f 1 7 3
f 1 3 4
f 1 4 6
f 1 6 2
f 2 6 5
f 3 7 4
f 4 7 8
f 4 8 9
f 4 9 10
f 4 10 11
f 4 11 12
f 4 12 13
f 4 13 14
f 4 14 15
f 4 15 16
f 4 16 17
f 4 17 18
f 4 18 19
f 4 19 20
f 4 20 21
f 4 21 22
f 4 22 44
f 4 44 74
f 4 74 73
f 4 73 104
f 4 104 128
f 4 128 127
f 4 127 144
f 4 144 143
f 4 143 142
f 4 142 141
f 4 141 140
f 4 140 139
f 4 139 138
f 4 138 137
f 4 137 136
f 4 136 150
f 4 150 149
f 4 149 148
f 4 148 147
f 4 147 146
f 4 146 145
f 4 145 129
f 4 129 114
f 4 114 84
f 4 84 50
f 4 50 25
f 4 25 6
f 5 23 46
f 5 46 77
f 5 77 81
f 5 81 49
f 5 49 24
f 5 6 23
f 6 25 23
f 7 26 27
f 7 27 28
f 7 28 29
f 7 29 8
f 8 29 28
f 8 28 30
f 8 30 9
f 9 30 31
f 9 31 10
f 10 31 11
f 11 31 32
f 11 32 33
f 11 33 34
f 11 34 13
f 11 13 12
f 13 34 14
f 14 34 35
f 14 35 15
f 15 35 36
f 15 36 37
f 15 37 16
f 16 37 38
f 16 38 17
f 17 39 40
f 17 40 18
f 17 38 39
f 18 40 20
f 18 20 19
f 20 40 41
f 20 41 42
f 20 42 43
f 20 43 21
f 21 43 44
f 21 44 22
f 23 45 75
f 23 75 46
f 23 25 47
f 23 47 45
f 24 49 48
f 25 50 47
f 26 51 27
f 26 52 51
f 27 51 53
f 27 53 28
f 28 53 54
f 28 54 55
f 28 55 31
f 28 31 30
f 31 55 54
f 31 54 53
f 31 53 56
f 31 56 32
f 32 56 57
f 32 57 33
f 33 58 59
f 33 59 34
f 33 57 60
f 33 60 58
f 34 59 35
f 35 59 61
f 35 61 36
f 36 62 37
f 36 61 62
f 37 62 63
f 37 63 38
f 38 63 64
f 38 64 39
f 39 65 40
f 39 64 65
f 40 65 41
f 41 65 66
f 41 66 42
f 42 67 43
f 42 66 67
f 43 67 68
f 43 68 69
f 43 69 70
f 43 70 71
f 43 71 72
f 43 72 73
f 43 73 74
f 43 74 44
f 45 47 50
f 45 50 84
f 45 84 75
f 46 75 76
f 46 76 77
f 48 78 79
f 48 49 80
f 48 80 78
f 49 81 82
f 49 82 83
f 49 83 78
f 49 78 80
f 51 52 53
f 52 85 53
f 53 86 56
f 53 85 87
f 53 87 88
f 53 88 86
f 56 86 57
f 57 86 89
f 57 89 90
f 57 90 58
f 57 58 60
f 58 63 62
f 58 62 59
f 58 90 91
f 58 91 83
f 58 83 92
f 58 92 93
f 58 93 63
f 59 62 61
f 63 94 64
f 63 93 66
f 63 66 65
f 63 65 94
f 64 94 65
f 66 93 92
f 66 92 95
f 66 95 67
f 67 95 96
f 67 96 68
f 68 96 69
f 69 97 98
f 69 98 99
f 69 99 100
f 69 100 101
f 69 101 102
f 69 102 103
f 69 103 70
f 69 96 97
f 70 103 71
f 71 103 72
f 72 103 73
f 73 103 104
f 75 84 105
f 75 105 106
f 75 106 107
f 75 107 108
f 75 108 109
f 75 109 76
f 76 109 110
f 76 110 83
f 76 83 82
f 76 82 81
f 76 81 77
f 78 83 91
f 78 91 111
f 78 111 79
f 79 111 112
f 79 112 113
f 83 110 92
f 84 114 105
f 86 88 115
f 86 115 89
f 87 113 115
f 87 115 88
f 89 115 91
f 89 91 90
f 91 115 112
f 91 112 111
f 92 110 109
f 92 109 116
f 92 116 117
f 92 117 118
f 92 118 119
f 92 119 120
f 92 120 95
f 95 120 96
f 96 120 121
f 96 121 97
f 97 121 98
f 98 121 122
f 98 122 123
f 98 123 124
f 98 124 99
f 99 124 100
f 100 124 125
f 100 125 101
f 101 125 126
f 101 126 102
f 102 126 103
f 103 126 127
f 103 127 128
f 103 128 104
f 105 114 129
f 105 129 130
f 105 130 131
f 105 131 106
f 106 131 107
f 107 131 132
f 107 132 108
f 108 132 116
f 108 116 109
f 112 115 113
f 116 132 117
f 117 132 118
f 118 132 119
f 119 121 120
f 119 132 122
f 119 122 121
f 122 132 133
f 122 133 123
f 123 133 134
f 123 134 124
f 124 134 135
f 124 135 136
f 124 136 137
f 124 137 138
f 124 138 139
f 124 139 140
f 124 140 125
f 125 140 141
f 125 141 142
f 125 142 143
f 125 143 126
f 126 143 144
f 126 144 127
f 129 145 130
f 130 145 146
f 130 146 134
f 130 134 133
f 130 133 131
f 131 133 132
f 134 146 147
f 134 147 148
f 134 148 149
f 134 149 135
f 135 149 150
f 135 150 136
