v 0.58217680 -0.02219449 -0.38941503
v 0.81017196 -0.02219449 -0.38941503
v 0.69732797 -0.02219449 0.00098470
v 0.87989187 0.38010949 0.00098470
v 0.88207328 0.38465905 0.00098470
v 0.88471609 0.39010900 0.00098470
v 0.79305661 0.39067772 -0.38941503
v 0.81579316 -0.01167363 -0.38941503
v 0.81864572 -0.01745537 -0.37707174
v 0.81730336 -0.02219449 -0.37447315
v 0.89826572 -0.02219449 0.00098470
v 0.89470005 0.40916029 0.00098470
v 0.89730090 0.41366243 0.00098470
v 0.90048909 0.41915983 0.00098470
v 0.79364389 0.39167294 -0.38941503
v 0.81709361 -0.00916190 -0.38941503
v 0.82208562 -0.00409104 -0.38444713
v 0.82527375 -0.01044147 -0.37023133
v 0.82191777 -0.02219449 -0.36423165
v 0.82116270 -0.02219449 -0.36591309
v 0.89822382 -0.02219449 -0.01002109
v 0.89969206 -0.01939841 -0.01002109
v 0.89969206 -0.01939841 0.00098470
v 0.80492830 0.41034508 -0.38941503
v 0.80459267 0.40982378 -0.38941503
v 0.90938234 0.42996502 0.00098470
v 0.81570929 0.42465723 -0.38941503
v 0.82091099 -0.00176887 -0.38941503
v 0.82498008 0.00657198 -0.38941503
v 0.83546746 0.01003154 -0.37015489
v 0.83836198 0.00334938 -0.35616839
v 0.83467042 -0.00939886 -0.34971011
v 0.82812631 -0.02219449 -0.34940439
v 0.89793015 -0.02219449 -0.02416047
v 0.89780432 -0.02219449 -0.03000730
v 0.89944035 -0.01892449 -0.03000730
v 0.90439034 -0.00892495 -0.03000730
v 0.90460014 -0.00939886 -0.01002109
v 0.90460014 -0.00939886 0.00098470
v 0.91886294 0.44095981 0.00098470
v 0.82510597 0.43423024 -0.38941503
v 0.82632250 0.00936806 -0.38941503
v 0.83861369 0.02296934 -0.37691885
v 0.84159207 0.01666631 -0.36358199
v 0.84427685 0.01003154 -0.34971011
v 0.84117258 -0.00233756 -0.34283149
v 0.83777469 -0.01565449 -0.33430964
v 0.83546746 -0.02219449 -0.33140534
v 0.89692336 -0.02219449 -0.05003172
v 0.89902085 -0.01807144 -0.05003172
v 0.90392894 -0.00807190 -0.05003172
v 0.91340947 0.01003154 -0.03000730
v 0.91387093 0.01003154 -0.01002109
v 0.91387093 0.01003154 0.00098470
v 0.92997950 0.44835281 0.00098470
v 0.83550942 0.44313979 -0.38941503
v 0.82594496 0.43508327 -0.38941503
v 0.83563524 0.02903542 -0.38941503
v 0.84469634 0.02979366 -0.37015489
v 0.83634841 0.03055193 -0.38941503
v 0.84167600 0.03628626 -0.38364464
v 0.85434473 0.03107323 -0.34902227
v 0.85358959 0.01159544 -0.32850105
v 0.85770065 0.02510194 -0.33415681
v 0.84318614 -0.00939886 -0.32857746
v 0.84037554 -0.02072535 -0.32097280
v 0.83903319 -0.02219449 -0.32242495
v 0.89553905 -0.02219449 -0.07001792
v 0.89834964 -0.01669711 -0.07001792
v 0.90325773 -0.00669757 -0.07001792
v 0.91252857 0.01003154 -0.05003172
v 0.91903073 0.02221107 -0.03000730
v 0.91924047 0.02168977 -0.01002109
v 0.91630399 0.01529196 0.00098470
v 0.93807578 0.45242846 0.00098470
v 0.84994000 0.45133847 -0.38941503
v 0.85791039 0.04491147 -0.35502195
v 0.84033358 0.03931931 -0.38941503
v 0.84457046 0.04922406 -0.38941503
v 0.85447055 0.05097754 -0.36900845
v 0.86067903 0.03841887 -0.34168506
v 0.86030149 0.01936761 -0.32081991
v 0.85744894 0.00524503 -0.30996698
v 0.86252487 0.03107323 -0.32850105
v 0.84985614 -0.00996755 -0.30996698
v 0.84356368 -0.02219449 -0.30996698
v 0.84113061 -0.02219449 -0.31669277
v 0.89369327 -0.02219449 -0.09000412
v 0.89746869 -0.01489624 -0.09000412
v 0.90237677 -0.00489669 -0.09000412
v 0.91118616 0.01003154 -0.07001792
v 0.91856927 0.02320629 -0.05003172
v 0.92339349 0.03221062 -0.03000730
v 0.92364514 0.03168932 -0.01002109
v 0.91924047 0.02168977 0.00098470
v 0.94789195 0.45735717 0.00098470
v 0.86630028 0.45821017 -0.38941503
v 0.86072099 0.05827579 -0.36167127
v 0.86290240 0.05097754 -0.34902227
v 0.84490609 0.05002972 -0.38941503
v 0.85782647 0.06552665 -0.37500814
v 0.86999184 0.05002972 -0.32999140
v 0.86223119 0.01524457 -0.30996698
v 0.86890113 0.03003062 -0.30996698
v 0.85950446 0.00102721 -0.29857907
v 0.87691349 0.04950841 -0.31088415
v 0.85640025 -0.01006234 -0.29112723
v 0.84742302 -0.02219449 -0.29884657
v 0.89268649 -0.02219449 -0.09898454
v 0.89633608 -0.01262146 -0.11002854
v 0.89142799 -0.02219449 -0.11002854
v 0.90124416 -0.00262192 -0.11002854
v 0.90938234 0.01003154 -0.09000412
v 0.91789806 0.02477020 -0.07001792
v 0.92293203 0.03320584 -0.05003172
v 0.93006343 0.05002972 -0.05003172
v 0.93094432 0.05002972 -0.03000730
v 0.93140578 0.05002972 -0.01002109
v 0.92364514 0.03168932 0.00098470
v 0.95338732 0.45915800 0.00098470
v 0.86667782 0.45835236 -0.38941503
v 0.86269265 0.07130837 -0.36900845
v 0.87011766 0.07002881 -0.34997761
v 0.87724906 0.06903359 -0.33102322
v 0.85388327 0.07201923 -0.38941503
v 0.86042738 0.07884358 -0.38096961
v 0.87930459 0.06173535 -0.31810671
v 0.86558712 0.00860980 -0.29112723
v 0.87594867 0.03036237 -0.29013366
v 0.87896901 0.04249452 -0.29693586
v 0.86172777 -0.00347495 -0.28524220
v 0.88169575 0.05585884 -0.30480802
v 0.85837185 -0.01679188 -0.27480963
v 0.85019171 -0.02219449 -0.29085973
v 0.89566487 -0.00849843 -0.12990010
v 0.90040517 -0.00086844 -0.12313613
v 0.89046317 -0.02219449 -0.11725108
v 0.88878518 -0.02219449 -0.12959439
v 0.90715903 0.01003154 -0.11002854
v 0.91697520 0.02685542 -0.09000412
v 0.92137986 0.03685497 -0.09000412
v 0.92226082 0.03476974 -0.07001792
v 0.92867911 0.05002972 -0.07001792
v 0.93706894 0.06742229 -0.05003172
v 0.93753040 0.06628489 -0.03000730
v 0.93774015 0.06571621 -0.01002109
v 0.93425834 0.05709101 0.00098470
v 0.93140578 0.05002972 0.00098470
v 0.95787591 0.46062714 0.00098470
v 0.87624228 0.46081671 -0.38941503
v 0.86940455 0.09002790 -0.36996382
v 0.87708127 0.08903268 -0.35074192
v 0.87934655 0.08168705 -0.33836040
v 0.88190550 0.07505228 -0.32502353
v 0.85904306 0.08528878 -0.38941503
v 0.86185366 0.09272920 -0.38941503
v 0.86252487 0.09002790 -0.38563180
v 0.88479996 0.06903359 -0.31088415
v 0.87427068 0.01164284 -0.26858065
v 0.87821394 0.02396455 -0.27431282
v 0.88119233 0.03728148 -0.28359896
v 0.88412881 0.04950841 -0.29013366
v 0.86361551 -0.01006234 -0.26888639
v 0.89243478 0.07002881 -0.28998080
v 0.85937864 -0.02219449 -0.26273382
v 0.85640025 -0.02219449 -0.27209640
v 0.88568091 -0.02219449 -0.15000094
v 0.89184749 -0.00996755 -0.15000094
v 0.89948231 0.00112200 -0.13647300
v 0.90388697 0.00865719 -0.12990010
v 0.91349339 0.03003062 -0.13001475
v 0.91655570 0.03121541 -0.11090747
v 0.92058283 0.03865583 -0.10483136
v 0.92687523 0.05002972 -0.09000412
v 0.93706894 0.07126097 -0.07158472
v 0.94046688 0.07879618 -0.06600539
v 0.94097030 0.07742183 -0.05003172
v 0.94143170 0.07628445 -0.03000730
v 0.94164145 0.07571575 -0.01002109
v 0.93987960 0.07116620 0.00098470
v 0.93774015 0.06571621 0.00098470
v 0.96999925 0.46176451 0.00098470
v 0.88995975 0.46171713 -0.38941503
v 0.87641013 0.10945829 -0.37007844
v 0.87913680 0.10239700 -0.35792625
v 0.88186353 0.09505136 -0.34458935
v 0.88492584 0.08903268 -0.33102322
v 0.89440638 0.09182876 -0.30820912
v 0.86743295 0.10827351 -0.38941503
v 0.89818186 0.08495703 -0.28998080
v 0.88026947 0.01936761 -0.26097596
v 0.87712324 0.00600329 -0.24997017
v 0.88287032 0.03036237 -0.26858065
v 0.89084071 0.05002972 -0.26999459
v 0.89793015 0.06903359 -0.27179068
v 0.86927867 -0.00996755 -0.24997017
v 0.86042738 -0.02086753 -0.26147276
v 0.89985985 0.08031270 -0.27966288
v 0.86114049 -0.02219449 -0.25677237
v 0.88215715 -0.02219449 -0.17002536
v 0.88828176 -0.00996755 -0.17002536
v 0.89839160 0.00339676 -0.15000094
v 0.90300602 0.01339631 -0.15000094
v 0.91043109 0.03003062 -0.15000094
v 0.91890490 0.04258929 -0.13001475
v 0.91974384 0.04059887 -0.11816823
v 0.92385489 0.04837103 -0.11090747
v 0.93488759 0.07002881 -0.09000412
v 0.93992150 0.08017053 -0.07930405
v 0.94340336 0.08813225 -0.07158472
v 0.94558471 0.09002790 -0.05003172
v 0.94646561 0.09002790 -0.03000730
v 0.94692707 0.09002790 -0.01002109
v 0.94403255 0.08216095 0.00098470
v 0.94164145 0.07571575 0.00098470
v 0.98279387 0.46114844 0.00098470
v 0.96999925 0.46176451 -0.07001792
v 0.92997950 0.46195412 -0.26999459
v 0.90996963 0.46185932 -0.32999140
v 0.92997950 0.46190670 -0.28998080
v 0.90996963 0.46171713 -0.34997761
v 0.90279627 0.46086410 -0.38941503
v 0.87859148 0.12405478 -0.37680423
v 0.88148600 0.11576132 -0.36346734
v 0.88450634 0.10945829 -0.35074192
v 0.89428055 0.11192264 -0.32808068
v 0.89772040 0.10652003 -0.31367379
v 0.90011156 0.09964831 -0.30033693
v 0.87523550 0.13073695 -0.38941503
v 0.90178949 0.09495658 -0.28998080
v 0.88186353 0.01600283 -0.24997017
v 0.88819790 0.03003062 -0.24997017
v 0.87905294 0.00197503 -0.23636580
v 0.89667165 0.05021928 -0.25061983
v 0.89931446 0.06168796 -0.25768951
v 0.90187341 0.07500489 -0.26632601
v 0.87531942 -0.00892495 -0.22983111
v 0.86307019 -0.02219449 -0.24997017
v 0.90506154 0.08817963 -0.27179068
v 0.88110840 -0.02219449 -0.17541361
v 0.88043725 -0.02091493 -0.18225402
v 0.88396102 -0.01086798 -0.18936191
v 0.89662969 0.00723545 -0.17002536
v 0.90124416 0.01723500 -0.17002536
v 0.90690732 0.03003062 -0.17002536
v 0.91739470 0.04633321 -0.15000094
v 0.92301589 0.05258884 -0.13001475
v 0.93262231 0.07002881 -0.11002854
v 0.93937618 0.08163965 -0.09000412
v 0.94302583 0.09163919 -0.09000412
v 0.95120591 0.11002699 -0.07001792
v 0.95254833 0.11002699 -0.05003172
v 0.95342922 0.11002699 -0.03000730
v 0.94692707 0.09002790 0.00098470
v 0.95389068 0.11002699 -0.01002109
v 0.95007330 0.09903222 0.00098470
v 0.99281979 0.45546150 0.00098470
v 0.99277782 0.45546150 -0.01002109
v 0.98266798 0.46110106 -0.03000730
v 0.96999925 0.46166974 -0.09000412
v 0.94998938 0.46171713 -0.20999777
v 0.96475559 0.46133801 -0.17002536
v 0.96320343 0.46114844 -0.19001156
v 0.94642371 0.46138540 -0.24997017
v 0.94378090 0.46124321 -0.26999459
v 0.92423248 0.46124321 -0.32999140
v 0.92137986 0.46053237 -0.34997761
v 0.92003751 0.46001107 -0.36018091
v 0.90308994 0.46076930 -0.38941503
v 0.88085675 0.13741910 -0.38192499
v 0.88362539 0.13045260 -0.37007844
v 0.89184749 0.13002607 -0.34997761
v 0.89793015 0.13002607 -0.33457714
v 0.90002763 0.11983696 -0.32017028
v 0.90153778 0.11192264 -0.30820912
v 0.90699124 0.11002699 -0.28998080
v 0.87917876 0.14258474 -0.38941503
v 0.91324168 0.11002699 -0.26999459
v 0.88412881 0.00922589 -0.22983111
v 0.89474201 0.03173672 -0.22849360
v 0.89847553 0.04367930 -0.23414935
v 0.88077283 -0.00157931 -0.22302893
v 0.90120220 0.05699623 -0.24435264
v 0.90413868 0.06903359 -0.25061983
v 0.91210908 0.09002790 -0.24997017
v 0.87737495 -0.01475406 -0.20999777
v 0.86856556 -0.02219449 -0.22956361
v 0.87951434 -0.02219449 -0.18343866
v 0.87741691 -0.02219449 -0.19314516
v 0.87901098 -0.01807144 -0.19555268
v 0.88236690 -0.00475451 -0.20999777
v 0.89495176 0.01173761 -0.18867406
v 0.90019542 0.01950978 -0.18114579
v 0.91143787 0.05002972 -0.19001156
v 0.91601038 0.05135667 -0.16949035
v 0.90304798 0.02960411 -0.18867406
v 0.92045701 0.05889188 -0.16245888
v 0.92150575 0.05633275 -0.15000094
v 0.92993760 0.07002881 -0.13001475
v 0.93824357 0.08476748 -0.11002854
v 0.94189316 0.09476702 -0.11002854
v 0.94944406 0.11002699 -0.09000412
v 0.95728862 0.12855695 -0.07001792
v 0.95795977 0.12642434 -0.05003172
v 0.95837927 0.12505001 -0.03000730
v 0.95863098 0.12433913 -0.01002109
v 0.95389068 0.11002699 0.00098470
v 0.95603013 0.11647219 0.00098470
v 1.00376856 0.44546196 -0.01002109
v 1.00376856 0.44546196 0.00098470
v 0.99265194 0.45522454 -0.03000730
v 0.98237437 0.46100628 -0.05003172
v 0.98195487 0.46091148 -0.07001792
v 0.98136759 0.46067452 -0.09000412
v 0.98069638 0.46034279 -0.11002854
v 0.98019302 0.46010584 -0.12202790
v 0.96173525 0.46076930 -0.20999777
v 0.96064454 0.46034279 -0.22394608
v 0.94168341 0.46072191 -0.28998080
v 0.94042492 0.46020061 -0.30163622
v 0.91617817 0.45825759 -0.37351775
v 0.93719482 0.45901585 -0.31497312
v 0.93425834 0.45688325 -0.32999140
v 0.94537497 0.44688368 -0.32999140
v 0.92632991 0.45095932 -0.36809132
v 0.92377102 0.44513023 -0.38941503
v 0.91273832 0.45508236 -0.38941503
v 0.88232499 0.15201560 -0.38914752
v 0.89004368 0.15002516 -0.36996382
v 0.89755261 0.14850864 -0.35074192
v 0.89973396 0.14083126 -0.33927757
v 0.90170562 0.13002607 -0.32460317
v 0.90686536 0.13002607 -0.30996698
v 0.91353536 0.13002607 -0.28998080
v 0.91861123 0.12827259 -0.27194354
v 0.88219911 0.15201560 -0.38941503
v 0.91986972 0.12040566 -0.25952381
v 0.91819173 0.10888959 -0.25172806
v 0.88941443 0.01003154 -0.20999777
v 0.89704919 0.02666585 -0.20999777
v 0.90019542 0.03955626 -0.22081248
v 0.90258652 0.05021928 -0.22849360
v 0.91005355 0.07002881 -0.22998397
v 0.91722691 0.08998051 -0.23082469
v 0.91949219 0.10144918 -0.23808545
v 0.87351561 -0.02219449 -0.20999777
v 0.89881110 0.02268499 -0.19440624
v 0.90145391 0.03666539 -0.20999777
v 0.90699124 0.05002972 -0.20999777
v 0.91773027 0.06581099 -0.19001156
v 0.91919851 0.06206709 -0.17579576
v 0.92314178 0.06927055 -0.16949035
v 0.92687523 0.07002881 -0.15000094
v 0.93744653 0.09059659 -0.13158154
v 0.94084442 0.09765788 -0.12600222
v 0.94717878 0.11002699 -0.11002854
v 0.95376486 0.13002607 -0.11002854
v 0.95674324 0.13192172 -0.08832268
v 0.96001530 0.13983606 -0.08056513
v 0.96043479 0.13855650 -0.07001792
v 0.96110600 0.13642389 -0.05003172
v 0.96156740 0.13504955 -0.03000730
v 0.95863098 0.12438652 0.00098470
v 0.96173525 0.13433868 -0.01002109
v 1.00913811 0.42996502 -0.01002109
v 1.00355887 0.44522500 -0.03000730
v 1.00913811 0.42996502 0.00098470
v 0.99240029 0.45470324 -0.05003172
v 0.97473955 0.45778367 -0.17002536
v 0.97843111 0.45963192 -0.13536477
v 0.99193883 0.45385021 -0.07001792
v 0.99139345 0.45261803 -0.09000412
v 1.00162911 0.44261849 -0.09000412
v 0.98778582 0.44901630 -0.15000094
v 0.98614979 0.44778413 -0.17002536
v 0.97662729 0.45901585 -0.15000094
v 0.97322941 0.45603019 -0.19001156
v 0.95863098 0.45967931 -0.23728295
v 0.95644963 0.45873147 -0.24997017
v 0.95380676 0.45650411 -0.26999459
v 0.96483946 0.44650456 -0.26999459
v 0.96194500 0.44295022 -0.28998080
v 0.96030897 0.44053328 -0.30098659
v 0.94239652 0.44347152 -0.34653831
v 0.93992150 0.43972760 -0.35987520
v 0.92406464 0.44456154 -0.38941503
v 0.88383514 0.15727602 -0.38941503
v 0.88761061 0.16945556 -0.38941503
v 0.89629412 0.16969252 -0.36965811
v 0.89914668 0.16282079 -0.35788804
v 0.90178949 0.15419559 -0.34455115
v 0.90493572 0.14850864 -0.33155823
v 0.91311586 0.15002516 -0.30996698
v 0.91861123 0.14803474 -0.29170045
v 0.91995358 0.14007300 -0.27993035
v 0.92196715 0.13376999 -0.26659349
v 0.93174142 0.15002516 -0.24997017
v 0.92452610 0.12827259 -0.25172806
v 0.92171550 0.11481350 -0.24622515
v 0.91571671 0.07140315 -0.20896597
v 0.91877902 0.08329834 -0.21492743
v 0.92117012 0.09666266 -0.22474858
v 0.93094432 0.13002607 -0.22998397
v 0.92381299 0.10888959 -0.23082469
v 0.92037308 0.07903314 -0.20162879
v 0.92158961 0.07581054 -0.19001156
v 0.93077654 0.09002790 -0.17002536
v 0.93434227 0.09002790 -0.15000094
v 0.93987960 0.10031179 -0.13930088
v 0.94365501 0.10817873 -0.13158154
v 0.95103812 0.13002607 -0.13001475
v 0.95846319 0.14514387 -0.11002854
v 0.95938605 0.14206344 -0.09386379
v 0.96207082 0.14926690 -0.08832268
v 0.96387464 0.15002516 -0.07001792
v 0.96521705 0.15002516 -0.05003172
v 0.96605605 0.15002516 -0.03000730
v 0.96647549 0.15002516 -0.01002109
v 0.96173525 0.13438606 0.00098470
v 0.96387464 0.14144737 0.00098470
v 1.01001906 0.41897029 0.00098470
v 1.01073217 0.40996593 0.00098470
v 1.01069021 0.40996593 -0.01002109
v 1.00871861 0.42996502 -0.03000730
v 1.00309741 0.44470370 -0.05003172
v 1.00246811 0.44385064 -0.07001792
v 1.00783765 0.42996502 -0.05003172
v 1.00653720 0.42996502 -0.07001792
v 1.00058043 0.44095981 -0.11002854
v 0.99999309 0.44001198 -0.12011717
v 0.98430401 0.44603065 -0.19001156
v 0.97171921 0.45351845 -0.20999777
v 0.96752429 0.44873196 -0.24997017
v 0.98229045 0.44351894 -0.20999777
v 0.98082221 0.44133893 -0.22348750
v 0.97918618 0.43484634 -0.23682436
v 0.97117388 0.42996502 -0.26999459
v 0.96538484 0.42996502 -0.28998080
v 0.96118987 0.42996502 -0.30369982
v 0.95787591 0.42996502 -0.31367379
v 0.95225465 0.42996502 -0.32999140
v 0.94407451 0.43181330 -0.35192657
v 0.94092834 0.42641068 -0.36235911
v 0.93723679 0.43181330 -0.36939061
v 0.92918247 0.43001240 -0.38941503
v 0.89008564 0.17774902 -0.38941503
v 0.89834964 0.18571074 -0.37611637
v 0.90111834 0.17613772 -0.36277950
v 0.90401280 0.16969252 -0.35074192
v 0.91189933 0.17002426 -0.32999140
v 0.91810781 0.16831817 -0.31107521
v 0.91982776 0.16049862 -0.29953444
v 0.92196715 0.15343733 -0.28619754
v 0.92473584 0.14803474 -0.27194354
v 0.93916643 0.16291557 -0.23682436
v 0.93715286 0.15021473 -0.23009861
v 0.93740457 0.16973990 -0.25023767
v 0.92259645 0.08998051 -0.20896597
v 0.92935026 0.11002699 -0.20999777
v 0.93887281 0.14367475 -0.21542424
v 0.93643975 0.13106868 -0.20923348
v 0.92679137 0.09002790 -0.19001156
v 0.93761432 0.11016916 -0.17132466
v 0.93899864 0.10291830 -0.15000094
v 0.94235462 0.11291785 -0.15000094
v 0.94793385 0.13002607 -0.15000094
v 0.95741445 0.15092561 -0.13028225
v 0.96051872 0.15817645 -0.12378577
v 0.96139967 0.15514341 -0.11002854
v 0.96781790 0.17002426 -0.09000412
v 0.96962172 0.17002426 -0.07001792
v 0.97092217 0.17002426 -0.05003172
v 0.97176117 0.17002426 -0.03000730
v 0.97218066 0.17002426 -0.01002109
v 0.96903443 0.15902950 0.00098470
v 0.96643358 0.15002516 0.00098470
v 1.01018679 0.38996685 0.00098470
v 1.01014483 0.38996685 -0.01002109
v 1.01022875 0.40996593 -0.03000730
v 1.00930595 0.40996593 -0.05003172
v 1.00481725 0.42996502 -0.09000412
v 1.00796354 0.40996593 -0.07001792
v 1.00267792 0.42996502 -0.11002854
v 1.00066435 0.42844850 -0.12806579
v 1.00007701 0.42077112 -0.14079124
v 0.99902827 0.43413544 -0.13341583
v 0.99391043 0.42996502 -0.17002536
v 0.99026084 0.42996502 -0.19001156
v 0.98614979 0.42996502 -0.20999777
v 0.98170316 0.42892241 -0.23009861
v 0.98019302 0.42152941 -0.24083690
v 0.97708869 0.42892241 -0.24847981
v 0.96668530 0.40996593 -0.28998080
v 0.96181917 0.40996593 -0.30557233
v 0.95850515 0.40996593 -0.31558454
v 0.95355511 0.40996593 -0.32999140
v 0.94633979 0.40996593 -0.34997761
v 0.94130588 0.40996593 -0.36327627
v 0.93727875 0.40996593 -0.37328848
v 0.93052483 0.40996593 -0.38941503
v 0.89411277 0.19139770 -0.38941503
v 0.90262848 0.19144508 -0.36965811
v 0.90023738 0.19907507 -0.38058746
v 0.91009551 0.19002335 -0.34997761
v 0.91726887 0.18917030 -0.33014429
v 0.91945022 0.18191946 -0.31845063
v 0.92171550 0.17386293 -0.30511373
v 0.92452610 0.16831817 -0.29170045
v 0.93169945 0.17002426 -0.26999459
v 0.94088638 0.15699168 -0.22348750
v 0.94105417 0.17623250 -0.24374120
v 0.94281602 0.16973990 -0.23009861
v 0.93916643 0.18305683 -0.25707808
v 0.93379688 0.11002699 -0.19001156
v 0.93857914 0.12438652 -0.19001156
v 0.94046688 0.13846171 -0.20208736
v 0.94231266 0.15021473 -0.20923348
v 0.93975377 0.12073740 -0.17885292
v 0.94101220 0.11694610 -0.16551605
v 0.95049280 0.15002516 -0.17002536
v 0.95405847 0.15002516 -0.15000094
v 0.94361305 0.12846217 -0.17132466
v 0.95955384 0.16154122 -0.13712265
v 0.96257424 0.16893426 -0.13028225
v 0.96559459 0.17002426 -0.11002854
v 0.97318745 0.19002335 -0.09000412
v 0.97494930 0.19002335 -0.07001792
v 0.97629166 0.19002335 -0.05003172
v 0.97981542 0.20078115 -0.03405803
v 0.97767603 0.19196638 -0.02844051
v 0.97998321 0.19992810 -0.02072117
v 0.97746629 0.18973900 -0.01002109
v 0.97452980 0.17893380 0.00098470
v 0.97213870 0.17002426 0.00098470
v 1.00947368 0.37897208 0.00098470
v 1.00964153 0.38996685 -0.03000730
v 1.00884449 0.36996776 -0.01002109
v 1.00871861 0.38996685 -0.05003172
v 1.00624359 0.40996593 -0.09000412
v 1.00737619 0.38996685 -0.07001792
v 1.00410414 0.40996593 -0.11002854
v 1.00154519 0.40996593 -0.13001475
v 1.00007701 0.40996593 -0.14067659
v 0.99852490 0.40996593 -0.15068880
v 0.99537867 0.40996593 -0.17002536
v 0.99168712 0.40996593 -0.19001156
v 0.99768591 0.42844850 -0.14847237
v 0.98753417 0.40996593 -0.20999777
v 0.98287773 0.40996593 -0.22998397
v 0.98023492 0.40996593 -0.24091333
v 0.97763407 0.40996593 -0.25092554
v 0.97247428 0.40996593 -0.26999459
v 0.97171921 0.38996685 -0.26999459
v 0.96588826 0.38996685 -0.28998080
v 0.96139967 0.38996685 -0.30427304
v 0.95808566 0.38996685 -0.31428525
v 0.95267415 0.38996685 -0.32999140
v 0.94545889 0.38996685 -0.34997761
v 0.94084442 0.38996685 -0.36220628
v 0.93685925 0.38996685 -0.37218028
v 0.92968589 0.38996685 -0.38941503
v 0.89826572 0.20627853 -0.38941503
v 0.90753657 0.21002243 -0.36996382
v 0.89927256 0.21002243 -0.38941503
v 0.90069884 0.21533024 -0.38941503
v 0.90170562 0.21002243 -0.38391215
v 0.91596842 0.21054374 -0.34898403
v 0.91890490 0.20424071 -0.33694646
v 0.92125404 0.19528377 -0.32360959
v 0.92393881 0.18917030 -0.31107521
v 0.93107021 0.19002335 -0.28998080
v 0.93719482 0.18983378 -0.26995638
v 0.94780803 0.17002426 -0.20999777
v 0.94285798 0.18983378 -0.25023767
v 0.94831145 0.19002335 -0.22998397
v 0.94092834 0.19637376 -0.26323062
v 0.94176733 0.13438606 -0.19001156
v 0.94650757 0.15002516 -0.19001156
v 0.95225465 0.17002426 -0.19001156
v 0.95678520 0.17135121 -0.16899356
v 0.95850515 0.16533253 -0.15000094
v 0.96127379 0.17533207 -0.15000094
v 0.96827936 0.19002335 -0.13001475
v 0.97096407 0.19002335 -0.11002854
v 0.97989935 0.22040111 -0.09902275
v 0.97826332 0.21063852 -0.09141806
v 0.97876668 0.20495157 -0.07001792
v 0.97943789 0.20225027 -0.05003172
v 0.98187095 0.21224982 -0.05003172
v 0.98694682 0.22997414 -0.03000730
v 0.98187095 0.20845853 -0.02844051
v 0.98258412 0.21002243 -0.01002109
v 0.98006713 0.19973855 -0.01002109
v 0.97771800 0.19082899 0.00098470
v 0.98006713 0.19973855 0.00098470
v 1.00888634 0.36996776 0.00098470
v 1.00834107 0.36996776 -0.03000730
v 1.00699866 0.34996867 -0.01002109
v 1.00653720 0.34996867 -0.03000730
v 1.00741816 0.36996776 -0.05003172
v 1.00557244 0.38996685 -0.09000412
v 1.00603390 0.36996776 -0.07001792
v 1.00343299 0.38996685 -0.11002854
v 0.99999309 0.39968204 -0.14014159
v 0.99462360 0.38996685 -0.17002536
v 0.99093205 0.38996685 -0.19001156
v 0.98677903 0.38996685 -0.20999777
v 0.98010910 0.39811814 -0.24041654
v 0.97763407 0.39086729 -0.24825051
v 0.97557855 0.36996776 -0.24997017
v 0.97016704 0.36996776 -0.26999459
v 0.96429414 0.36996776 -0.28998080
v 0.96060258 0.36996776 -0.30182731
v 0.95728862 0.36996776 -0.31183952
v 0.95103812 0.36996776 -0.32999140
v 0.94323552 0.36968341 -0.35154441
v 0.94034100 0.37612861 -0.36090696
v 0.92809176 0.36996776 -0.38941503
v 0.91265440 0.22997414 -0.36996382
v 0.91835952 0.22997414 -0.35567158
v 0.90443230 0.23011631 -0.38941503
v 0.92062479 0.21760502 -0.34164685
v 0.92293203 0.21054374 -0.33014429
v 0.92981172 0.21002243 -0.30996698
v 0.93664944 0.21040156 -0.28929293
v 0.93895668 0.20400375 -0.27656749
v 0.95317757 0.19002335 -0.20999777
v 0.95762420 0.19021291 -0.19027907
v 0.94810164 0.21002243 -0.24997017
v 0.95342922 0.21002243 -0.22998397
v 0.94252241 0.21040156 -0.26995638
v 0.95900851 0.18367292 -0.17495504
v 0.96026701 0.17893380 -0.16161816
v 0.96517509 0.19002335 -0.15000094
v 0.97331327 0.21002243 -0.13001475
v 0.97599804 0.21002243 -0.11002854
v 0.97922814 0.22338675 -0.11002854
v 0.98145145 0.23338631 -0.11002854
v 0.98505914 0.24997322 -0.11002854
v 0.98728245 0.24997322 -0.09000412
v 0.98241627 0.22822066 -0.09141806
v 0.98052859 0.21769981 -0.08568588
v 0.98119974 0.21495113 -0.07001792
v 0.98606592 0.22997414 -0.05003172
v 0.98732436 0.22997414 -0.01002109
v 0.99130958 0.24997322 -0.03000730
v 0.99172908 0.24997322 -0.01002109
v 0.98229045 0.20902722 0.00098470
v 0.98728245 0.22997414 0.00098470
v 1.00704062 0.34996867 0.00098470
v 1.00477529 0.32996958 -0.01002109
v 1.00431395 0.32996958 -0.03000730
v 1.00561428 0.34996867 -0.05003172
v 1.00423002 0.36996776 -0.09000412
v 1.00423002 0.34996867 -0.07001792
v 1.00091600 0.39176771 -0.13058797
v 1.00209057 0.36996776 -0.11002854
v 1.00045455 0.36996776 -0.12344184
v 0.99965751 0.38631773 -0.13765764
v 0.99835706 0.39176771 -0.14809021
v 0.99659520 0.36996776 -0.15000094
v 0.99323928 0.36996776 -0.17002536
v 0.98946381 0.36996776 -0.19001156
v 0.98187095 0.39086729 -0.23128326
v 0.98526883 0.36996776 -0.20999777
v 0.98153538 0.36996776 -0.22635359
v 0.97968960 0.38480121 -0.23881152
v 0.97910231 0.36996776 -0.23636580
v 0.97356498 0.34996867 -0.24997017
v 0.96806961 0.34996867 -0.26999459
v 0.96215475 0.35153258 -0.29066867
v 0.96005726 0.35920995 -0.30026051
v 0.95653349 0.35153258 -0.30813271
v 0.94889873 0.34996867 -0.32999140
v 0.94269019 0.34996867 -0.34730262
v 0.93971181 0.36281168 -0.35926375
v 0.93664944 0.36968341 -0.36854988
v 0.92599434 0.34996867 -0.38941503
v 0.90917259 0.24992584 -0.38941503
v 0.91714299 0.24874105 -0.36981097
v 0.91970193 0.24120584 -0.35926375
v 0.92213500 0.22997414 -0.34569758
v 0.92784011 0.22997414 -0.32999140
v 0.93568462 0.23153804 -0.30828556
v 0.93857914 0.22589849 -0.29548368
v 0.94067663 0.21732068 -0.28214681
v 0.95800173 0.20950113 -0.21060920
v 0.95938605 0.20253462 -0.19708125
v 0.96077037 0.19698985 -0.18378259
v 0.94726270 0.22997414 -0.26999459
v 0.95292586 0.22997414 -0.24997017
v 0.95791781 0.22935805 -0.23036611
v 0.95946997 0.22229676 -0.21771711
v 0.96186107 0.19021291 -0.16899356
v 0.97020900 0.21002243 -0.15000094
v 0.97805357 0.23044805 -0.13039689
v 0.98057055 0.23741455 -0.12397684
v 0.98627567 0.26997232 -0.13001475
v 0.98896039 0.26997232 -0.11002854
v 0.99122572 0.26997232 -0.09000412
v 0.98212266 0.24912018 -0.13039689
v 0.98908627 0.24997322 -0.07001792
v 0.98472351 0.22997414 -0.07001792
v 0.99042863 0.24997322 -0.05003172
v 0.99525285 0.26997232 -0.03000730
v 0.99168712 0.24997322 0.00098470
v 0.99567235 0.26997232 -0.01002109
v 1.00477529 0.32996958 0.00098470
v 1.00334907 0.31897482 0.00098470
v 1.00213253 0.30997050 -0.01002109
v 1.00137746 0.30798006 -0.03191802
v 0.99999309 0.30001834 -0.03986664
v 1.00108385 0.31205571 -0.05003172
v 1.00339103 0.32996958 -0.05003172
v 1.00242615 0.34996867 -0.09000412
v 1.00058043 0.35172215 -0.10880567
v 1.00200665 0.32996958 -0.07001792
v 1.00058043 0.33120176 -0.08813161
v 1.00003505 0.35958910 -0.12030825
v 0.99907023 0.36996776 -0.13345405
v 0.99814737 0.35172215 -0.12818044
v 0.99470747 0.34996867 -0.15000094
v 0.99130958 0.34996867 -0.17002536
v 0.98749220 0.34996867 -0.19001156
v 0.98329723 0.34996867 -0.20999777
v 0.98052859 0.34996867 -0.22226463
v 0.97809553 0.34996867 -0.23223862
v 0.97113192 0.32996958 -0.24997017
v 0.96559459 0.32996958 -0.26999459
v 0.96135771 0.32996958 -0.28451613
v 0.95930219 0.34584564 -0.29777655
v 0.95326144 0.32996958 -0.30996698
v 0.94642371 0.32996958 -0.32999140
v 0.94143170 0.32996958 -0.34390152
v 0.93895668 0.34996867 -0.35731483
v 0.93396473 0.34996867 -0.36996382
v 0.92364514 0.33129653 -0.38941503
v 0.91332561 0.26935622 -0.38941503
v 0.91877902 0.26997232 -0.37699530
v 0.92117012 0.25457019 -0.36300877
v 0.92427438 0.24874105 -0.35154441
v 0.93245453 0.24997322 -0.32999140
v 0.93799186 0.24997322 -0.31405595
v 0.94017321 0.23921542 -0.30048978
v 0.94185120 0.23153804 -0.28929293
v 0.96098018 0.21585156 -0.20438023
v 0.96249032 0.20950113 -0.19027907
v 0.96664333 0.21002243 -0.17002536
v 0.94579446 0.24997322 -0.28998080
v 0.95175129 0.24997322 -0.26999459
v 0.95745641 0.24987844 -0.24962625
v 0.95930219 0.24314889 -0.23728295
v 0.96098018 0.23561369 -0.22394608
v 0.96270007 0.22935805 -0.21060920
v 0.97134167 0.22997414 -0.17002536
v 0.97486544 0.22997414 -0.15000094
v 0.97960567 0.24186933 -0.13731372
v 0.98099005 0.25518626 -0.14602664
v 0.98258412 0.26831362 -0.15164417
v 0.98669517 0.28997141 -0.15000094
v 0.98975742 0.28997141 -0.13001475
v 0.99244225 0.28997141 -0.11002854
v 0.99466550 0.28997141 -0.09000412
v 0.99302948 0.26997232 -0.07001792
v 0.99437189 0.26997232 -0.05003172
v 0.99881852 0.29115617 -0.03191802
v 0.99873465 0.28760183 -0.01002109
v 0.99563038 0.26997232 0.00098470
v 0.99873465 0.28764924 0.00098470
v 1.00213253 0.30997050 0.00098470
v 1.00037062 0.29760140 -0.01002109
v 1.00020289 0.29859662 -0.02652977
v 0.99781173 0.28997141 -0.05003172
v 0.99969947 0.30205616 -0.05003172
v 1.00041258 0.31693700 -0.07001792
v 1.00011897 0.33864218 -0.10135384
v 0.99936390 0.34627217 -0.11469071
v 0.99999309 0.31982785 -0.08022120
v 0.99932194 0.32532525 -0.09355807
v 0.99550450 0.32996958 -0.13001475
v 0.99248415 0.32996958 -0.15000094
v 0.98900235 0.32996958 -0.17002536
v 0.98514301 0.32996958 -0.19001156
v 0.98124170 0.33196002 -0.20965384
v 0.97998321 0.33996913 -0.21997176
v 0.97696286 0.33196002 -0.22799681
v 0.97339720 0.30997050 -0.22998397
v 0.96827936 0.30997050 -0.24997017
v 0.96253228 0.31006527 -0.27087352
v 0.96047676 0.31679481 -0.28153539
v 0.95829540 0.32996958 -0.29452831
v 0.95045084 0.30997050 -0.30996698
v 0.94315165 0.30987573 -0.33117604
v 0.94050884 0.31646308 -0.34137934
v 0.93769825 0.32996958 -0.35391372
v 0.93144774 0.32996958 -0.36996382
v 0.92284811 0.32551479 -0.38941503
v 0.91345143 0.26997232 -0.38941503
v 0.91982776 0.28077751 -0.37963212
v 0.92276418 0.26997232 -0.36698309
v 0.92930830 0.26997232 -0.34997761
v 0.93685925 0.26973537 -0.32918891
v 0.93937618 0.26295841 -0.31825954
v 0.94134784 0.24997322 -0.30408198
v 0.96735644 0.22997414 -0.19001156
v 0.94990551 0.26997232 -0.28998080
v 0.95653349 0.27129927 -0.26842779
v 0.95892465 0.26551753 -0.25604630
v 0.96072847 0.25646582 -0.24270941
v 0.96244836 0.24987844 -0.23036611
v 0.96735644 0.24997322 -0.20999777
v 0.97570443 0.24997322 -0.17002536
v 0.97876668 0.24912018 -0.15164417
v 0.97985739 0.26054147 -0.15936351
v 0.98111588 0.27390578 -0.16612747
v 0.98262608 0.28836012 -0.17166859
v 0.98631763 0.30997050 -0.17002536
v 0.98979938 0.30997050 -0.15000094
v 0.99286175 0.30997050 -0.13001475
v 0.99546260 0.30997050 -0.11002854
v 0.99642742 0.28997141 -0.07001792
v 0.99810541 0.31191355 -0.08813161
v 0.99902827 0.30693746 -0.07001792
v 1.00037062 0.29764879 0.00098470
v 0.99835706 0.33120176 -0.10880567
v 0.98216462 0.30940181 -0.19100514
v 0.98061246 0.31570482 -0.20277523
v 0.97910231 0.32665220 -0.21611209
v 0.97813749 0.30940181 -0.20965384
v 0.97020900 0.28997141 -0.22998397
v 0.96504927 0.28997141 -0.24997017
v 0.96114796 0.28997141 -0.26414776
v 0.95946997 0.30347788 -0.27813429
v 0.95716274 0.31006527 -0.28891078
v 0.95359707 0.28997141 -0.28998080
v 0.94722074 0.28997141 -0.30996698
v 0.94193512 0.28997141 -0.32548210
v 0.93950206 0.30314615 -0.33862790
v 0.93669140 0.30987573 -0.34883118
v 0.92855322 0.30997050 -0.36996382
v 0.92230278 0.30997050 -0.38544071
v 0.92133796 0.31485179 -0.38941503
v 0.91701716 0.28850228 -0.38941503
v 0.92100233 0.29409444 -0.38242176
v 0.92431635 0.28845489 -0.37175989
v 0.93304181 0.28997141 -0.34997761
v 0.93836939 0.28997141 -0.33549431
v 0.94071859 0.27627534 -0.32200456
v 0.94315165 0.26973537 -0.31092235
v 0.97171921 0.24997322 -0.19001156
v 0.95833731 0.28997141 -0.27415997
v 0.96018314 0.27883446 -0.26074666
v 0.96177721 0.27129927 -0.24962625
v 0.96655941 0.26997232 -0.22998397
v 0.97134167 0.26997232 -0.20999777
v 0.97570443 0.26997232 -0.19001156
v 0.97901839 0.26831362 -0.17166859
v 0.97985739 0.28058794 -0.17946436
v 0.98099005 0.29395226 -0.18496725
v 0.97960567 0.30238789 -0.19826591
v 0.97494930 0.28997141 -0.20999777
v 0.91940826 0.30262485 -0.38941503
v 0.92058283 0.30997050 -0.38941503
v 0.97880864 0.28836012 -0.19100514
f 1 2 10
f 1 10 20
f 1 20 19
f 1 19 33
f 1 33 48
f 1 48 67
f 1 67 87
f 1 87 86
f 1 86 108
f 1 108 134
f 1 134 166
f 1 166 165
f 1 165 199
f 1 199 238
f 1 238 287
f 1 287 346
f 1 346 289
f 1 289 288
f 1 288 240
f 1 240 200
f 1 200 167
f 1 167 138
f 1 138 137
f 1 137 111
f 1 111 109
f 1 109 88
f 1 88 68
f 1 68 49
f 1 49 35
f 1 35 34
f 1 34 21
f 1 21 11
f 1 11 3
f 1 3 4
f 1 4 5
f 1 5 6
f 1 6 7
f 1 7 15
f 1 15 25
f 1 25 24
f 1 24 27
f 1 27 41
f 1 41 57
f 1 57 56
f 1 56 76
f 1 76 97
f 1 97 121
f 1 121 150
f 1 150 183
f 1 183 222
f 1 222 269
f 1 269 327
f 1 327 326
f 1 326 386
f 1 386 445
f 1 445 500
f 1 500 561
f 1 561 618
f 1 618 678
f 1 678 737
f 1 737 797
f 1 797 842
f 1 842 863
f 1 863 862
f 1 862 843
f 1 843 798
f 1 798 738
f 1 738 679
f 1 679 621
f 1 621 565
f 1 565 564
f 1 564 562
f 1 562 501
f 1 501 446
f 1 446 388
f 1 388 387
f 1 387 336
f 1 336 277
f 1 277 229
f 1 229 189
f 1 189 156
f 1 156 155
f 1 155 125
f 1 125 100
f 1 100 79
f 1 79 78
f 1 78 60
f 1 60 58
f 1 58 42
f 1 42 29
f 1 29 28
f 1 28 16
f 1 16 8
f 1 8 2
f 2 8 9
f 2 9 10
f 3 11 23
f 3 23 39
f 3 39 54
f 3 54 74
f 3 74 95
f 3 95 119
f 3 119 148
f 3 148 147
f 3 147 181
f 3 181 180
f 3 180 215
f 3 215 214
f 3 214 254
f 3 254 256
f 3 256 307
f 3 307 308
f 3 308 363
f 3 363 419
f 3 419 420
f 3 420 476
f 3 476 475
f 3 475 534
f 3 534 533
f 3 533 594
f 3 594 595
f 3 595 648
f 3 648 649
f 3 649 706
f 3 706 768
f 3 768 769
f 3 769 824
f 3 824 770
f 3 770 709
f 3 709 708
f 3 708 650
f 3 650 596
f 3 596 535
f 3 535 477
f 3 477 422
f 3 422 421
f 3 421 367
f 3 367 310
f 3 310 257
f 3 257 216
f 3 216 182
f 3 182 149
f 3 149 120
f 3 120 96
f 3 96 75
f 3 75 55
f 3 55 40
f 3 40 26
f 3 26 14
f 3 14 13
f 3 13 12
f 3 12 6
f 3 6 5
f 3 5 4
f 6 12 7
f 7 12 13
f 7 13 14
f 7 14 15
f 8 16 17
f 8 17 9
f 9 17 18
f 9 18 19
f 9 19 20
f 9 20 10
f 11 21 22
f 11 22 23
f 14 24 25
f 14 25 15
f 14 26 27
f 14 27 24
f 16 28 17
f 17 28 29
f 17 29 30
f 17 30 18
f 18 30 31
f 18 31 19
f 19 31 32
f 19 32 33
f 21 34 22
f 22 34 35
f 22 35 36
f 22 36 37
f 22 37 38
f 22 38 39
f 22 39 23
f 26 40 27
f 27 40 41
f 29 42 43
f 29 43 30
f 30 43 44
f 30 44 31
f 31 44 45
f 31 45 46
f 31 46 32
f 32 46 47
f 32 47 33
f 33 47 48
f 35 49 50
f 35 50 36
f 36 50 37
f 37 50 51
f 37 51 52
f 37 52 53
f 37 53 38
f 38 53 54
f 38 54 39
f 40 55 56
f 40 56 57
f 40 57 41
f 42 58 43
f 43 59 44
f 43 58 60
f 43 60 61
f 43 61 59
f 44 59 62
f 44 62 45
f 45 63 46
f 45 62 64
f 45 64 63
f 46 65 47
f 46 63 65
f 47 65 66
f 47 66 67
f 47 67 48
f 49 68 69
f 49 69 50
f 50 69 70
f 50 70 51
f 51 70 71
f 51 71 52
f 52 71 72
f 52 72 53
f 53 72 73
f 53 73 74
f 53 74 54
f 55 75 76
f 55 76 56
f 59 61 77
f 59 77 62
f 60 78 61
f 61 78 79
f 61 79 80
f 61 80 77
f 62 77 81
f 62 81 64
f 63 64 82
f 63 82 83
f 63 83 65
f 64 81 84
f 64 84 82
f 65 83 66
f 66 83 85
f 66 85 86
f 66 86 87
f 66 87 67
f 68 88 89
f 68 89 69
f 69 89 90
f 69 90 70
f 70 90 91
f 70 91 71
f 71 91 92
f 71 92 72
f 72 92 115
f 72 115 93
f 72 93 94
f 72 94 73
f 73 95 74
f 73 94 119
f 73 119 95
f 75 96 76
f 76 96 97
f 77 80 98
f 77 98 99
f 77 99 81
f 79 100 80
f 80 100 101
f 80 101 98
f 81 99 102
f 81 102 84
f 82 103 83
f 82 84 104
f 82 104 103
f 83 103 105
f 83 105 85
f 84 102 106
f 84 106 104
f 85 105 86
f 86 105 107
f 86 107 108
f 88 109 89
f 89 110 112
f 89 112 90
f 89 109 111
f 89 111 110
f 90 112 113
f 90 113 91
f 91 113 114
f 91 114 92
f 92 114 142
f 92 142 115
f 93 115 116
f 93 116 117
f 93 117 94
f 94 117 118
f 94 118 148
f 94 148 119
f 96 120 121
f 96 121 97
f 98 101 122
f 98 122 123
f 98 123 99
f 99 123 124
f 99 124 102
f 100 125 101
f 101 125 126
f 101 126 122
f 102 124 127
f 102 127 106
f 103 128 105
f 103 104 129
f 103 129 128
f 104 106 130
f 104 130 129
f 105 128 131
f 105 131 107
f 106 127 132
f 106 132 130
f 107 131 133
f 107 133 134
f 107 134 108
f 110 135 136
f 110 136 112
f 110 111 137
f 110 137 138
f 110 138 135
f 112 136 139
f 112 139 113
f 113 139 140
f 113 140 114
f 114 140 141
f 114 141 142
f 115 142 116
f 116 142 143
f 116 143 144
f 116 144 145
f 116 145 117
f 117 145 118
f 118 145 146
f 118 146 147
f 118 147 148
f 120 149 121
f 121 149 150
f 122 126 151
f 122 151 152
f 122 152 123
f 123 152 153
f 123 153 124
f 124 153 154
f 124 154 127
f 125 155 126
f 126 155 156
f 126 156 157
f 126 157 151
f 127 154 158
f 127 158 132
f 128 159 131
f 128 129 160
f 128 160 159
f 129 130 161
f 129 161 160
f 130 132 162
f 130 162 161
f 131 163 133
f 131 159 163
f 132 158 164
f 132 164 162
f 133 163 165
f 133 165 166
f 133 166 134
f 135 138 167
f 135 167 168
f 135 168 169
f 135 169 136
f 136 169 170
f 136 170 139
f 139 170 171
f 139 171 172
f 139 172 173
f 139 173 140
f 140 173 141
f 141 173 174
f 141 174 143
f 141 143 142
f 143 174 175
f 143 175 144
f 144 175 176
f 144 176 177
f 144 177 178
f 144 178 145
f 145 178 179
f 145 179 146
f 146 179 180
f 146 180 181
f 146 181 147
f 149 182 150
f 150 182 183
f 151 157 156
f 151 156 184
f 151 184 185
f 151 185 152
f 152 185 186
f 152 186 153
f 153 186 187
f 153 187 154
f 154 187 188
f 154 188 158
f 156 189 184
f 158 188 190
f 158 190 164
f 159 160 191
f 159 191 192
f 159 192 163
f 160 161 193
f 160 193 191
f 161 162 194
f 161 194 193
f 162 164 195
f 162 195 194
f 163 192 196
f 163 196 197
f 163 197 165
f 164 190 198
f 164 198 195
f 165 197 199
f 167 200 168
f 168 200 201
f 168 201 202
f 168 202 169
f 169 202 203
f 169 203 170
f 170 203 171
f 171 204 205
f 171 205 206
f 171 206 172
f 171 203 204
f 172 206 173
f 173 206 207
f 173 207 174
f 174 207 208
f 174 208 175
f 175 208 209
f 175 209 176
f 176 209 210
f 176 210 211
f 176 211 177
f 177 211 212
f 177 212 178
f 178 212 213
f 178 213 179
f 179 213 214
f 179 214 215
f 179 215 180
f 182 216 217
f 182 217 218
f 182 218 219
f 182 219 183
f 183 219 220
f 183 220 221
f 183 221 222
f 184 189 223
f 184 223 224
f 184 224 185
f 185 224 225
f 185 225 186
f 186 225 226
f 186 226 187
f 187 226 227
f 187 227 188
f 188 227 228
f 188 228 190
f 189 229 223
f 190 228 230
f 190 230 198
f 191 231 192
f 191 193 232
f 191 232 231
f 192 231 233
f 192 233 196
f 193 194 234
f 193 234 232
f 194 195 235
f 194 235 234
f 195 198 236
f 195 236 235
f 196 237 238
f 196 238 199
f 196 199 197
f 196 233 237
f 198 230 239
f 198 239 236
f 200 240 241
f 200 241 201
f 201 241 242
f 201 242 243
f 201 243 202
f 202 243 244
f 202 244 203
f 203 244 204
f 204 244 245
f 204 245 246
f 204 246 205
f 205 246 298
f 205 298 247
f 205 247 206
f 206 247 207
f 207 247 248
f 207 248 208
f 208 248 249
f 208 249 209
f 209 249 250
f 209 250 210
f 210 250 251
f 210 251 211
f 211 251 252
f 211 252 253
f 211 253 212
f 212 253 255
f 212 255 213
f 213 254 214
f 213 255 256
f 213 256 254
f 216 257 258
f 216 258 259
f 216 259 217
f 217 259 260
f 217 260 261
f 217 261 220
f 217 220 218
f 218 220 219
f 220 261 262
f 220 262 263
f 220 263 264
f 220 264 265
f 220 265 266
f 220 266 221
f 221 266 222
f 222 267 268
f 222 268 269
f 222 266 267
f 223 229 270
f 223 270 271
f 223 271 224
f 224 271 272
f 224 272 225
f 225 272 273
f 225 273 226
f 226 273 274
f 226 274 227
f 227 274 228
f 228 274 275
f 228 275 276
f 228 276 230
f 229 277 270
f 230 276 278
f 230 278 239
f 231 279 233
f 231 232 280
f 231 280 279
f 232 234 281
f 232 281 280
f 233 279 282
f 233 282 237
f 234 235 283
f 234 283 281
f 235 236 284
f 235 284 283
f 236 239 285
f 236 285 284
f 237 286 287
f 237 287 238
f 237 282 286
f 239 278 285
f 240 288 241
f 241 288 289
f 241 289 290
f 241 290 242
f 242 291 292
f 242 292 243
f 242 290 291
f 243 292 293
f 243 293 244
f 244 293 245
f 245 294 295
f 245 295 246
f 245 293 296
f 245 296 294
f 246 295 297
f 246 297 298
f 247 298 299
f 247 299 248
f 248 299 300
f 248 300 249
f 249 300 301
f 249 301 250
f 250 301 302
f 250 302 251
f 251 302 303
f 251 303 304
f 251 304 252
f 252 304 253
f 253 304 305
f 253 305 306
f 253 306 255
f 255 307 256
f 255 306 308
f 255 308 307
f 257 309 258
f 257 310 309
f 258 311 312
f 258 312 259
f 258 309 311
f 259 312 260
f 260 262 261
f 260 312 313
f 260 313 262
f 262 313 314
f 262 314 263
f 263 265 264
f 263 314 315
f 263 315 316
f 263 316 317
f 263 317 265
f 265 317 318
f 265 318 319
f 265 319 266
f 266 319 267
f 267 319 320
f 267 320 268
f 268 321 269
f 268 320 322
f 268 322 323
f 268 323 324
f 268 324 325
f 268 325 326
f 268 326 321
f 269 321 327
f 270 277 328
f 270 328 329
f 270 329 271
f 271 329 330
f 271 330 272
f 272 330 331
f 272 331 273
f 273 331 274
f 274 331 332
f 274 332 333
f 274 333 275
f 275 333 334
f 275 334 276
f 276 334 335
f 276 335 278
f 277 336 328
f 278 335 337
f 278 337 338
f 278 338 285
f 279 339 282
f 279 280 340
f 279 340 339
f 280 281 341
f 280 341 340
f 281 283 342
f 281 342 341
f 282 339 291
f 282 291 286
f 283 284 343
f 283 343 342
f 284 285 343
f 285 344 343
f 285 338 345
f 285 345 344
f 286 291 290
f 286 290 346
f 286 346 287
f 289 346 290
f 291 339 292
f 292 339 347
f 292 347 293
f 293 347 296
f 294 296 348
f 294 348 349
f 294 349 350
f 294 350 351
f 294 351 295
f 295 351 297
f 296 347 348
f 297 351 352
f 297 352 353
f 297 353 298
f 298 353 299
f 299 353 354
f 299 354 300
f 300 354 355
f 300 355 301
f 301 355 356
f 301 356 302
f 302 356 357
f 302 357 358
f 302 358 303
f 303 358 359
f 303 359 360
f 303 360 361
f 303 361 304
f 304 361 362
f 304 362 305
f 305 362 306
f 306 363 308
f 306 362 364
f 306 364 419
f 306 419 363
f 309 310 367
f 309 367 365
f 309 365 366
f 309 366 311
f 311 368 314
f 311 314 313
f 311 313 312
f 311 366 368
f 314 368 315
f 315 368 316
f 316 369 370
f 316 370 318
f 316 318 317
f 316 368 371
f 316 371 372
f 316 372 373
f 316 373 374
f 316 374 375
f 316 375 369
f 318 320 319
f 318 370 376
f 318 376 369
f 318 369 377
f 318 377 378
f 318 378 320
f 320 378 379
f 320 379 380
f 320 380 381
f 320 381 324
f 320 324 322
f 321 326 327
f 322 324 323
f 324 381 382
f 324 382 383
f 324 383 384
f 324 384 325
f 325 384 326
f 326 384 385
f 326 385 386
f 328 336 387
f 328 387 388
f 328 388 389
f 328 389 329
f 329 390 330
f 329 389 390
f 330 390 391
f 330 391 331
f 331 391 392
f 331 392 332
f 332 392 393
f 332 393 333
f 333 393 394
f 333 394 334
f 334 394 395
f 334 395 335
f 335 395 337
f 337 395 396
f 337 396 397
f 337 397 398
f 337 398 399
f 337 399 338
f 338 399 345
f 339 340 347
f 340 341 348
f 340 348 347
f 341 342 349
f 341 349 348
f 342 343 400
f 342 400 349
f 343 344 401
f 343 401 400
f 344 345 402
f 344 402 401
f 345 399 403
f 345 403 404
f 345 404 402
f 349 400 350
f 350 400 405
f 350 405 406
f 350 406 351
f 351 406 352
f 352 406 407
f 352 407 408
f 352 408 353
f 353 408 409
f 353 409 354
f 354 409 355
f 355 409 410
f 355 410 356
f 356 410 357
f 357 411 412
f 357 412 413
f 357 413 358
f 357 410 411
f 358 413 359
f 359 413 414
f 359 414 415
f 359 415 360
f 360 415 416
f 360 416 361
f 361 416 362
f 362 416 417
f 362 417 418
f 362 418 364
f 364 418 420
f 364 420 419
f 365 421 422
f 365 422 423
f 365 423 424
f 365 424 366
f 365 367 421
f 366 424 425
f 366 425 368
f 368 425 371
f 369 376 370
f 369 375 377
f 371 425 426
f 371 426 372
f 372 426 373
f 373 426 427
f 373 427 428
f 373 428 429
f 373 429 374
f 374 429 375
f 375 429 430
f 375 430 431
f 375 431 377
f 377 432 378
f 377 431 432
f 378 432 433
f 378 433 379
f 379 433 380
f 380 433 381
f 381 433 434
f 381 434 435
f 381 435 382
f 382 435 383
f 383 385 384
f 383 435 436
f 383 436 437
f 383 437 438
f 383 438 439
f 383 439 440
f 383 440 441
f 383 441 385
f 385 441 442
f 385 442 443
f 385 443 444
f 385 444 445
f 385 445 386
f 388 446 447
f 388 447 389
f 389 447 448
f 389 448 390
f 390 448 449
f 390 449 391
f 391 449 450
f 391 450 392
f 392 450 393
f 393 450 451
f 393 451 452
f 393 452 394
f 394 452 453
f 394 453 395
f 395 453 454
f 395 454 396
f 396 454 397
f 397 455 456
f 397 456 403
f 397 403 398
f 397 454 457
f 397 457 455
f 398 403 399
f 400 401 405
f 401 402 458
f 401 458 405
f 402 404 459
f 402 459 458
f 403 456 460
f 403 460 461
f 403 461 404
f 404 461 459
f 405 458 462
f 405 462 406
f 406 462 407
f 407 462 463
f 407 463 464
f 407 464 408
f 408 464 409
f 409 464 465
f 409 465 410
f 410 465 411
f 411 465 466
f 411 466 467
f 411 467 412
f 412 467 468
f 412 468 469
f 412 469 413
f 413 469 414
f 414 469 470
f 414 470 471
f 414 471 415
f 415 471 416
f 416 471 472
f 416 472 473
f 416 473 417
f 417 473 474
f 417 474 418
f 418 474 475
f 418 475 476
f 418 476 420
f 422 477 478
f 422 478 423
f 423 478 479
f 423 479 424
f 424 427 425
f 424 479 427
f 425 427 426
f 427 479 480
f 427 480 428
f 428 481 430
f 428 430 429
f 428 480 482
f 428 482 539
f 428 539 481
f 430 435 434
f 430 434 431
f 430 481 483
f 430 483 484
f 430 484 485
f 430 485 486
f 430 486 487
f 430 487 435
f 431 434 433
f 431 433 432
f 435 487 488
f 435 488 489
f 435 489 436
f 436 489 490
f 436 490 491
f 436 491 492
f 436 492 437
f 437 492 491
f 437 491 438
f 438 491 493
f 438 493 439
f 439 493 494
f 439 494 495
f 439 495 440
f 440 495 496
f 440 496 441
f 441 496 443
f 441 443 442
f 443 445 444
f 443 496 497
f 443 497 498
f 443 498 499
f 443 499 500
f 443 500 445
f 446 501 447
f 447 502 448
f 447 501 503
f 447 503 502
f 448 502 504
f 448 504 449
f 449 504 450
f 450 504 505
f 450 505 506
f 450 506 451
f 451 506 452
f 452 506 507
f 452 507 508
f 452 508 453
f 453 508 509
f 453 509 454
f 454 509 457
f 455 510 456
f 455 457 511
f 455 511 512
f 455 512 510
f 456 510 460
f 457 509 513
f 457 513 511
f 458 459 514
f 458 514 462
f 459 515 514
f 459 461 515
f 460 516 461
f 460 510 517
f 460 517 516
f 461 516 515
f 462 514 463
f 463 518 519
f 463 519 464
f 463 514 518
f 464 519 465
f 465 519 466
f 466 520 521
f 466 521 467
f 466 519 522
f 466 522 520
f 467 521 523
f 467 523 468
f 468 523 524
f 468 524 525
f 468 525 469
f 469 525 470
f 470 525 584
f 470 584 526
f 470 526 471
f 471 526 527
f 471 527 528
f 471 528 472
f 472 528 473
f 473 528 529
f 473 529 530
f 473 530 531
f 473 531 474
f 474 531 532
f 474 532 533
f 474 533 534
f 474 534 475
f 477 535 478
f 478 536 479
f 478 535 537
f 478 537 597
f 478 597 536
f 479 536 538
f 479 538 480
f 480 538 540
f 480 540 482
f 481 539 485
f 481 485 483
f 482 540 539
f 483 485 484
f 485 539 541
f 485 541 542
f 485 542 543
f 485 543 544
f 485 544 545
f 485 545 546
f 485 546 488
f 485 488 487
f 485 487 547
f 485 547 486
f 486 547 487
f 488 546 489
f 489 546 548
f 489 548 491
f 489 491 490
f 491 548 549
f 491 549 550
f 491 550 551
f 491 551 552
f 491 552 493
f 493 552 553
f 493 553 554
f 493 554 494
f 494 554 555
f 494 555 556
f 494 556 495
f 495 556 496
f 496 556 557
f 496 557 558
f 496 558 497
f 497 558 559
f 497 559 498
f 498 559 560
f 498 560 499
f 499 560 561
f 499 561 500
f 501 562 503
f 502 503 563
f 502 563 504
f 503 562 564
f 503 564 565
f 503 565 566
f 503 566 563
f 504 563 567
f 504 567 568
f 504 568 505
f 505 568 569
f 505 569 506
f 506 569 570
f 506 570 507
f 507 570 571
f 507 571 508
f 508 571 509
f 509 571 572
f 509 572 513
f 510 512 573
f 510 573 517
f 511 513 574
f 511 574 575
f 511 575 512
f 512 575 573
f 513 572 576
f 513 576 574
f 514 515 518
f 515 516 577
f 515 577 518
f 516 517 578
f 516 578 577
f 517 573 579
f 517 579 578
f 518 577 522
f 518 522 519
f 520 522 577
f 520 577 578
f 520 578 579
f 520 579 580
f 520 580 581
f 520 581 521
f 521 581 523
f 523 581 582
f 523 582 583
f 523 583 524
f 524 583 525
f 525 583 584
f 526 584 585
f 526 585 586
f 526 586 587
f 526 587 527
f 527 587 588
f 527 588 528
f 528 588 529
f 529 588 589
f 529 589 590
f 529 590 591
f 529 591 531
f 529 531 530
f 531 591 592
f 531 592 593
f 531 593 532
f 532 594 533
f 532 593 595
f 532 595 594
f 535 596 537
f 536 597 600
f 536 600 538
f 537 596 650
f 537 650 598
f 537 598 599
f 537 599 597
f 538 600 540
f 539 540 601
f 539 601 603
f 539 603 541
f 540 600 602
f 540 602 654
f 540 654 601
f 541 603 604
f 541 604 542
f 542 604 543
f 543 604 544
f 544 604 545
f 545 604 605
f 545 605 606
f 545 606 546
f 546 606 607
f 546 607 548
f 548 607 608
f 548 608 549
f 549 608 550
f 550 608 551
f 551 608 552
f 552 608 553
f 553 608 609
f 553 609 610
f 553 610 611
f 553 611 554
f 554 611 612
f 554 612 613
f 554 613 555
f 555 613 614
f 555 614 556
f 556 614 615
f 556 615 557
f 557 615 616
f 557 616 558
f 558 616 617
f 558 617 559
f 559 617 560
f 560 617 618
f 560 618 561
f 563 566 619
f 563 619 620
f 563 620 567
f 565 621 566
f 566 621 619
f 567 620 622
f 567 622 568
f 568 622 623
f 568 623 569
f 569 623 624
f 569 624 570
f 570 624 571
f 571 624 625
f 571 625 626
f 571 626 572
f 572 626 576
f 573 575 627
f 573 627 628
f 573 628 579
f 574 576 629
f 574 629 575
f 575 629 630
f 575 630 627
f 576 626 631
f 576 631 629
f 579 628 632
f 579 632 580
f 580 633 581
f 580 632 633
f 581 633 582
f 582 633 634
f 582 634 583
f 583 634 695
f 583 695 635
f 583 635 636
f 583 636 584
f 584 636 585
f 585 637 638
f 585 638 639
f 585 639 640
f 585 640 641
f 585 641 642
f 585 642 586
f 585 636 637
f 586 642 587
f 587 642 643
f 587 643 589
f 587 589 588
f 589 643 644
f 589 644 590
f 590 645 591
f 590 644 704
f 590 704 646
f 590 646 647
f 590 647 645
f 591 645 592
f 592 648 595
f 592 595 593
f 592 645 649
f 592 649 648
f 597 599 653
f 597 653 600
f 598 650 651
f 598 651 652
f 598 652 599
f 599 652 714
f 599 714 653
f 600 653 655
f 600 655 602
f 601 654 657
f 601 657 603
f 602 655 715
f 602 715 654
f 603 656 604
f 603 657 658
f 603 658 656
f 604 656 659
f 604 659 660
f 604 660 605
f 605 660 661
f 605 661 662
f 605 662 606
f 606 662 663
f 606 663 607
f 607 664 608
f 607 663 665
f 607 665 666
f 607 666 667
f 607 667 664
f 608 664 667
f 608 667 609
f 609 667 610
f 610 668 669
f 610 669 611
f 610 667 668
f 611 669 670
f 611 670 612
f 612 670 671
f 612 671 672
f 612 672 613
f 613 672 614
f 614 672 673
f 614 673 674
f 614 674 615
f 615 674 675
f 615 675 616
f 616 675 676
f 616 676 617
f 617 676 677
f 617 677 618
f 618 677 678
f 619 621 679
f 619 679 680
f 619 680 681
f 619 681 620
f 620 682 622
f 620 681 682
f 622 682 683
f 622 683 623
f 623 683 624
f 624 683 684
f 624 684 685
f 624 685 625
f 625 685 686
f 625 686 626
f 626 686 631
f 627 630 687
f 627 687 688
f 627 688 628
f 628 689 632
f 628 688 689
f 629 631 690
f 629 690 691
f 629 691 630
f 630 691 692
f 630 692 693
f 630 693 687
f 631 686 690
f 632 689 694
f 632 694 633
f 633 694 634
f 634 694 695
f 635 695 696
f 635 696 637
f 635 637 636
f 637 696 697
f 637 697 638
f 638 697 639
f 639 698 699
f 639 699 700
f 639 700 640
f 639 697 701
f 639 701 698
f 640 700 764
f 640 764 702
f 640 702 641
f 641 703 642
f 641 702 703
f 642 703 643
f 643 703 644
f 644 703 702
f 644 702 704
f 645 647 706
f 645 706 649
f 646 704 765
f 646 765 705
f 646 705 707
f 646 707 647
f 647 707 768
f 647 768 706
f 650 708 651
f 651 708 709
f 651 709 710
f 651 710 711
f 651 711 652
f 652 711 712
f 652 712 713
f 652 713 714
f 653 714 717
f 653 717 655
f 654 715 716
f 654 716 657
f 655 717 718
f 655 718 715
f 656 658 659
f 657 716 719
f 657 719 658
f 658 719 720
f 658 720 659
f 659 720 661
f 659 661 660
f 661 720 721
f 661 721 722
f 661 722 662
f 662 722 723
f 662 723 663
f 663 723 724
f 663 724 725
f 663 725 665
f 665 725 726
f 665 726 666
f 666 726 668
f 666 668 667
f 668 726 727
f 668 727 669
f 669 727 728
f 669 728 670
f 670 728 729
f 670 729 730
f 670 730 671
f 671 730 731
f 671 731 672
f 672 731 673
f 673 731 732
f 673 732 674
f 674 732 733
f 674 733 675
f 675 733 734
f 675 734 795
f 675 795 735
f 675 735 676
f 676 735 736
f 676 736 677
f 677 736 678
f 678 736 737
f 679 738 739
f 679 739 680
f 680 739 740
f 680 740 681
f 681 740 741
f 681 741 682
f 682 741 742
f 682 742 683
f 683 742 743
f 683 743 744
f 683 744 684
f 684 744 685
f 685 744 745
f 685 745 686
f 686 745 690
f 687 693 746
f 687 746 688
f 688 746 747
f 688 747 689
f 689 747 748
f 689 748 694
f 690 745 749
f 690 749 750
f 690 750 691
f 691 750 751
f 691 751 752
f 691 752 692
f 692 752 753
f 692 753 693
f 693 753 754
f 693 754 746
f 694 748 695
f 695 748 755
f 695 755 756
f 695 756 696
f 696 756 757
f 696 757 697
f 697 757 701
f 698 701 758
f 698 758 759
f 698 759 760
f 698 760 761
f 698 761 762
f 698 762 699
f 699 762 700
f 700 762 763
f 700 763 764
f 701 757 758
f 702 764 765
f 702 765 704
f 705 765 766
f 705 766 767
f 705 767 707
f 707 767 769
f 707 769 768
f 709 770 710
f 710 771 772
f 710 772 711
f 710 770 771
f 711 772 712
f 712 772 766
f 712 766 765
f 712 765 773
f 712 773 774
f 712 774 713
f 713 775 714
f 713 774 823
f 713 823 775
f 714 775 717
f 715 718 776
f 715 776 716
f 716 776 777
f 716 777 719
f 717 775 778
f 717 778 718
f 718 778 779
f 718 779 776
f 719 777 721
f 719 721 720
f 721 777 780
f 721 780 722
f 722 780 781
f 722 781 723
f 723 781 782
f 723 782 724
f 724 782 783
f 724 783 725
f 725 783 784
f 725 784 785
f 725 785 726
f 726 785 727
f 727 785 786
f 727 786 728
f 728 786 787
f 728 787 788
f 728 788 789
f 728 789 729
f 729 789 790
f 729 790 730
f 730 790 791
f 730 791 731
f 731 791 732
f 732 791 792
f 732 792 733
f 733 792 793
f 733 793 794
f 733 794 734
f 734 794 795
f 735 795 796
f 735 796 736
f 736 796 737
f 737 796 797
f 738 798 739
f 739 798 799
f 739 799 800
f 739 800 740
f 740 800 801
f 740 801 741
f 741 801 742
f 742 801 802
f 742 802 803
f 742 803 743
f 743 803 804
f 743 804 744
f 744 804 749
f 744 749 745
f 746 754 805
f 746 805 747
f 747 805 755
f 747 755 748
f 749 804 806
f 749 806 750
f 750 806 807
f 750 807 808
f 750 808 751
f 751 808 809
f 751 809 752
f 752 809 810
f 752 810 753
f 753 810 811
f 753 811 754
f 754 811 805
f 755 805 850
f 755 850 812
f 755 812 813
f 755 813 756
f 756 813 757
f 757 813 758
f 758 814 759
f 758 813 814
f 759 814 815
f 759 815 760
f 760 815 816
f 760 816 817
f 760 817 818
f 760 818 819
f 760 819 761
f 761 819 762
f 762 819 820
f 762 820 763
f 763 821 764
f 763 820 822
f 763 822 823
f 763 823 821
f 764 821 773
f 764 773 765
f 766 772 767
f 767 772 771
f 767 771 824
f 767 824 769
f 770 824 771
f 773 821 774
f 774 821 823
f 775 823 778
f 776 779 825
f 776 825 777
f 777 825 780
f 778 823 822
f 778 822 779
f 779 822 820
f 779 820 825
f 780 825 820
f 780 820 819
f 780 819 781
f 781 819 818
f 781 818 817
f 781 817 782
f 782 817 783
f 783 817 826
f 783 826 827
f 783 827 784
f 784 827 828
f 784 828 785
f 785 828 786
f 786 828 787
f 787 828 829
f 787 829 830
f 787 830 788
f 788 830 831
f 788 831 832
f 788 832 833
f 788 833 789
f 789 833 790
f 790 833 834
f 790 834 791
f 791 834 792
f 792 834 835
f 792 835 836
f 792 836 837
f 792 837 793
f 793 837 838
f 793 838 794
f 794 838 839
f 794 839 795
f 795 839 840
f 795 840 796
f 796 840 841
f 796 841 797
f 797 841 842
f 798 843 799
f 799 843 844
f 799 844 845
f 799 845 800
f 800 845 846
f 800 846 801
f 801 846 847
f 801 847 848
f 801 848 802
f 802 848 803
f 803 848 849
f 803 849 804
f 804 849 806
f 805 811 850
f 806 849 836
f 806 836 835
f 806 835 851
f 806 851 807
f 807 851 852
f 807 852 808
f 808 852 853
f 808 853 809
f 809 853 854
f 809 854 810
f 810 854 811
f 811 854 855
f 811 855 856
f 811 856 850
f 812 850 856
f 812 856 857
f 812 857 814
f 812 814 813
f 814 857 815
f 815 858 816
f 815 857 858
f 816 858 859
f 816 859 817
f 817 859 826
f 826 859 860
f 826 860 827
f 827 860 829
f 827 829 828
f 829 860 861
f 829 861 830
f 830 853 831
f 830 861 855
f 830 855 854
f 830 854 853
f 831 853 852
f 831 852 832
f 832 851 833
f 832 852 851
f 833 851 835
f 833 835 834
f 836 849 848
f 836 848 837
f 837 847 838
f 837 848 847
f 838 847 846
f 838 846 839
f 839 846 840
f 840 846 845
f 840 845 844
f 840 844 841
f 841 844 862
f 841 862 863
f 841 863 842
f 843 862 844
f 855 861 864
f 855 864 856
f 856 864 858
f 856 858 857
f 858 864 859
f 859 864 860
f 860 864 861
