v 0.89822114 -0.02219447 0.00098470
v 0.89667642 -0.02524325 0.00098470
v 0.89822114 -0.02219447 -0.01002109
v 0.69726908 -0.02219447 0.00098470
v 0.89417756 -0.03000966 0.00098470
v 0.89417756 -0.03000966 -0.01002109
v 0.89790308 -0.02219447 -0.02416047
v 0.58218622 -0.02219447 -0.38941503
v 0.43411875 -0.22599012 0.00098470
v 0.88886184 -0.04005773 0.00098470
v 0.88450027 -0.04825936 -0.01002109
v 0.89372325 -0.03000966 -0.03000730
v 0.89776683 -0.02219447 -0.03000730
v 0.43411875 -0.15707061 -0.38941503
v 0.81017119 -0.02219447 -0.38941503
v 0.43411875 -0.46087468 0.00098470
v 0.88450027 -0.04825936 0.00098470
v 0.87900281 -0.05826451 -0.01002109
v 0.88427305 -0.04782996 -0.03000730
v 0.89286000 -0.03000966 -0.05003172
v 0.89722162 -0.02219447 -0.04311489
v 0.43411875 -0.32617033 -0.38941503
v 0.81730419 -0.02219447 -0.37447315
v 0.80585498 -0.03035317 -0.38941503
v 0.43411875 -0.46083173 -0.01002109
v 0.43943444 -0.45984411 -0.01002109
v 0.43952531 -0.45984411 0.00098470
v 0.87900281 -0.05826451 0.00098470
v 0.87218779 -0.07003020 0.00098470
v 0.87214237 -0.07003020 -0.01002109
v 0.87168801 -0.07003020 -0.03000730
v 0.87873018 -0.05783510 -0.03000730
v 0.87832129 -0.05701923 -0.05003172
v 0.88381875 -0.04701409 -0.05003172
v 0.89154243 -0.03000966 -0.07001792
v 0.89690357 -0.02219447 -0.05003172
v 0.43411875 -0.34081304 -0.38440892
v 0.43416417 -0.33935305 -0.38941503
v 0.82116604 -0.02219447 -0.36591309
v 0.82166582 -0.02313916 -0.36373484
v 0.81503254 -0.02988082 -0.37023133
v 0.80167508 -0.04297768 -0.38352996
v 0.80026668 -0.04044420 -0.38941503
v 0.43411875 -0.46053115 -0.03000730
v 0.43857121 -0.45958644 -0.03000730
v 0.68541098 -0.28383097 -0.05003172
v 0.68595618 -0.28421745 -0.03000730
v 0.68622881 -0.28438920 -0.01002109
v 0.68618333 -0.28438920 0.00098470
v 0.86723554 -0.07836066 0.00098470
v 0.86314654 -0.08514526 -0.01002109
v 0.86291939 -0.08475879 -0.03000730
v 0.86246502 -0.08402881 -0.05003172
v 0.87077934 -0.07003020 -0.05003172
v 0.87763977 -0.05581689 -0.07001792
v 0.88313723 -0.04581176 -0.07001792
v 0.88972509 -0.03000966 -0.09000412
v 0.89554060 -0.02219447 -0.07001792
v 0.88222855 -0.04413708 -0.09000412
v 0.43411875 -0.44696194 -0.12753080
v 0.43611780 -0.33875188 -0.38941503
v 0.82189298 -0.02219447 -0.36423165
v 0.81803113 -0.03645073 -0.35540408
v 0.82811737 -0.02219447 -0.34940439
v 0.82416463 -0.02988082 -0.34921333
v 0.80435568 -0.04980522 -0.36916131
v 0.79781330 -0.05633219 -0.37527564
v 0.79481471 -0.04980522 -0.38941503
v 0.43411875 -0.45984411 -0.05003172
v 0.43725365 -0.45898527 -0.05003172
v 0.68454778 -0.28322980 -0.07001792
v 0.69540632 -0.27661696 -0.05003172
v 0.69595152 -0.27704638 -0.03000730
v 0.69622415 -0.27721813 -0.01002109
v 0.69072670 -0.28112572 0.00098470
v 0.86314654 -0.08514526 0.00098470
v 0.85692215 -0.09515040 -0.01002109
v 0.85664958 -0.09476393 -0.03000730
v 0.85619521 -0.09403394 -0.05003172
v 0.85551369 -0.09287454 -0.07001792
v 0.86173809 -0.08291236 -0.07001792
v 0.86937094 -0.07003020 -0.07001792
v 0.87668568 -0.05414221 -0.09000412
v 0.86755359 -0.07003020 -0.09000412
v 0.88745344 -0.03000966 -0.11002854
v 0.89372325 -0.02219447 -0.09000412
v 0.88109273 -0.04207593 -0.11002854
v 0.43411875 -0.44816428 -0.12348005
v 0.44738531 -0.33497310 -0.38941503
v 0.45583591 -0.33196729 -0.38941503
v 0.47178304 -0.32625619 -0.38941503
v 0.47850719 -0.32380858 -0.38941503
v 0.48436809 -0.32161862 -0.38941503
v 0.48850253 -0.32002982 -0.38941503
v 0.49272785 -0.31835514 -0.38941503
v 0.51003796 -0.31118408 -0.38941503
v 0.51062858 -0.31092644 -0.38941503
v 0.52893829 -0.30272478 -0.38941503
v 0.53738892 -0.29864544 -0.38941503
v 0.54056925 -0.30027717 -0.38074031
v 0.55429012 -0.29705665 -0.36996382
v 0.55847001 -0.29920366 -0.35762054
v 0.56960118 -0.29559666 -0.35055083
v 0.59036428 -0.28456095 -0.34928977
v 0.60131371 -0.28078219 -0.34218186
v 0.60463035 -0.28280041 -0.32999140
v 0.61094558 -0.28533390 -0.30985236
v 0.62153161 -0.28095394 -0.30308837
v 0.82084799 -0.04156065 -0.34206721
v 0.81357867 -0.04894641 -0.34921333
v 0.80085731 -0.06148504 -0.36193877
v 0.83543217 -0.02219447 -0.33140534
v 0.83325136 -0.02846380 -0.32857746
v 0.79295188 -0.06891374 -0.36916131
v 0.78032142 -0.08055063 -0.38070211
v 0.78345633 -0.06865610 -0.38941503
v 0.43411875 -0.45846999 -0.07001792
v 0.43561804 -0.45791179 -0.07001792
v 0.68195802 -0.28138337 -0.11002854
v 0.68341190 -0.28241393 -0.09000412
v 0.69454312 -0.27597287 -0.07001792
v 0.70740074 -0.26596773 -0.07001792
v 0.70821857 -0.26661184 -0.05003172
v 0.70871836 -0.26704124 -0.03000730
v 0.70322090 -0.27172175 0.00098470
v 0.69617873 -0.27717519 0.00098470
v 0.70894551 -0.26721299 -0.01002109
v 0.85692215 -0.09515040 0.00098470
v 0.85165191 -0.10330909 0.00098470
v 0.84729028 -0.11000781 -0.01002109
v 0.84542751 -0.11198308 -0.03123017
v 0.83993006 -0.11997001 -0.03868200
v 0.84619987 -0.10944958 -0.05003172
v 0.84547293 -0.10837607 -0.07001792
v 0.84456426 -0.10695903 -0.09000412
v 0.85455960 -0.09141457 -0.09000412
v 0.86082941 -0.08140944 -0.09000412
v 0.87554985 -0.05208106 -0.11002854
v 0.86460042 -0.07140429 -0.10907318
v 0.86019337 -0.08037886 -0.10177420
v 0.89145154 -0.02219447 -0.11002854
v 0.88032037 -0.04065889 -0.12237183
v 0.88418221 -0.03129786 -0.12944153
v 0.43411875 -0.45168540 -0.11002854
v 0.62462109 -0.28288627 -0.28998080
v 0.63793308 -0.27863517 -0.27503890
v 0.64074993 -0.28043866 -0.26170203
v 0.54620296 -0.29409376 -0.38941503
v 0.54838377 -0.29336375 -0.38845965
v 0.57182741 -0.28700858 -0.37164527
v 0.58395815 -0.28224218 -0.36610416
v 0.59727013 -0.27833459 -0.35551873
v 0.60881025 -0.27326760 -0.34928977
v 0.61462569 -0.27653110 -0.32999140
v 0.61821496 -0.27884987 -0.31642526
v 0.62893724 -0.27386877 -0.30985236
v 0.63461643 -0.27640226 -0.28998080
v 0.81753135 -0.05577396 -0.32999140
v 0.82321054 -0.04576881 -0.32999140
v 0.80344701 -0.06573614 -0.34997761
v 0.79731351 -0.07574129 -0.34997761
v 0.83902138 -0.02219447 -0.32242495
v 0.83702230 -0.03451841 -0.30996698
v 0.78282022 -0.08437233 -0.36996382
v 0.77618694 -0.09437747 -0.36996382
v 0.76255691 -0.10369556 -0.38513499
v 0.77000803 -0.08952519 -0.38941503
v 0.77814060 -0.07711539 -0.38941503
v 0.43411875 -0.45640886 -0.08755839
v 0.67950463 -0.27966574 -0.13765764
v 0.68077677 -0.28052455 -0.12432078
v 0.69195342 -0.27404055 -0.11002854
v 0.69340730 -0.27511406 -0.09000412
v 0.70631039 -0.26510891 -0.09000412
v 0.71739614 -0.25780901 -0.07001792
v 0.71821392 -0.25849608 -0.05003172
v 0.71871370 -0.25892547 -0.03000730
v 0.71894085 -0.25914019 -0.01002109
v 0.70894551 -0.26721299 0.00098470
v 0.84729028 -0.11000781 0.00098470
v 0.84033895 -0.12057117 0.00098470
v 0.84033895 -0.12052824 -0.01002109
v 0.84015721 -0.12031353 -0.02534512
v 0.83443260 -0.12817165 -0.03123017
v 0.82311970 -0.14427432 -0.03000730
v 0.82261992 -0.14363024 -0.05003172
v 0.83225179 -0.13001809 -0.05003172
v 0.83961201 -0.11945472 -0.05003172
v 0.83888507 -0.11838121 -0.07001792
v 0.83793098 -0.11696417 -0.09000412
v 0.84338301 -0.10519847 -0.11002854
v 0.85433245 -0.08823697 -0.10907318
v 0.86419153 -0.06723906 -0.13001475
v 0.87500465 -0.04838818 -0.12944153
v 0.85937560 -0.07900476 -0.11511107
v 0.88877100 -0.02219447 -0.12959439
v 0.87936628 -0.03881246 -0.13570870
v 0.88340986 -0.02666029 -0.15000094
v 0.88568151 -0.02219447 -0.15000094
v 0.43411875 -0.45241541 -0.10689495
v 0.64302158 -0.28189865 -0.24997017
v 0.65674251 -0.27777636 -0.22998397
v 0.65083617 -0.26553831 -0.28929293
v 0.64842820 -0.27318174 -0.26900101
v 0.65301698 -0.27528581 -0.24997017
v 0.54842925 -0.29293436 -0.38941503
v 0.56614828 -0.28344452 -0.38941503
v 0.57968742 -0.27975163 -0.37944102
v 0.61012781 -0.26476538 -0.36889380
v 0.59036428 -0.27627343 -0.37164527
v 0.62089550 -0.26060015 -0.36148018
v 0.62412131 -0.26283306 -0.34997761
v 0.63080001 -0.26579595 -0.32964748
v 0.64143145 -0.26098663 -0.32273066
v 0.64461178 -0.26321954 -0.30996698
v 0.81966674 -0.05946684 -0.31913847
v 0.80744517 -0.07170488 -0.33151999
v 0.79967606 -0.07952005 -0.33920112
v 0.78704554 -0.09115693 -0.35066548
v 0.84115678 -0.02219447 -0.31669277
v 0.84238344 -0.02451326 -0.30996698
v 0.83920312 -0.03864069 -0.29777655
v 0.82689065 -0.05169460 -0.31145737
v 0.77900386 -0.09858564 -0.35781160
v 0.76555556 -0.11022252 -0.36927596
v 0.76146656 -0.10214970 -0.38941503
v 0.75783187 -0.11700711 -0.37546670
v 0.75519675 -0.11095250 -0.38941503
v 0.43411875 -0.45606536 -0.08969840
v 0.67814165 -0.27872106 -0.15000094
v 0.68999976 -0.26991826 -0.15000094
v 0.68845505 -0.27399760 -0.13058797
v 0.70340264 -0.26274720 -0.13001475
v 0.70499277 -0.26403540 -0.11002854
v 0.71630573 -0.25686434 -0.09000412
v 0.72761863 -0.24685919 -0.09000412
v 0.72866362 -0.24780390 -0.07001792
v 0.72948140 -0.24849094 -0.05003172
v 0.73984021 -0.23990284 -0.03650376
v 0.73188937 -0.24720272 -0.02989265
v 0.74006736 -0.24011753 -0.02316689
v 0.72998118 -0.24934974 -0.01002109
v 0.72502893 -0.25372967 0.00098470
v 0.71894085 -0.25909725 0.00098470
v 0.71344340 -0.26356307 0.00098470
v 0.83338761 -0.13057631 0.00098470
v 0.83334219 -0.13053337 -0.01002109
v 0.82334685 -0.14461786 -0.01002109
v 0.81589580 -0.15462300 -0.01002109
v 0.81562316 -0.15427947 -0.03000730
v 0.81516886 -0.15363535 -0.05003172
v 0.82189298 -0.14264259 -0.07001792
v 0.83084339 -0.13001809 -0.07001792
v 0.83674973 -0.11520362 -0.11002854
v 0.82888973 -0.13001809 -0.09000412
v 0.82557309 -0.13156395 -0.10941710
v 0.84201998 -0.10313733 -0.13001475
v 0.85833061 -0.07724421 -0.13001475
v 0.86264676 -0.06457676 -0.15000094
v 0.87087023 -0.05001992 -0.15000094
v 0.85033429 -0.09004048 -0.13001475
v 0.87818503 -0.03666542 -0.15000094
v 0.88163793 -0.02322505 -0.17002536
v 0.88213772 -0.02219447 -0.17002536
v 0.65901417 -0.27932221 -0.21695282
v 0.66114956 -0.28073925 -0.20361593
v 0.66710132 -0.26528066 -0.24997017
v 0.67155379 -0.26691240 -0.23074827
v 0.65801466 -0.25849608 -0.29548368
v 0.66092235 -0.26068604 -0.28214681
v 0.66337579 -0.26248956 -0.26999459
v 0.57618904 -0.27769047 -0.38941503
v 0.59136379 -0.26828650 -0.38941503
v 0.59522563 -0.26588184 -0.38941503
v 0.61685193 -0.25776610 -0.37481707
v 0.60353994 -0.26231778 -0.38536429
v 0.63011849 -0.25007975 -0.37011668
v 0.64320332 -0.24243632 -0.36541629
v 0.63411665 -0.25570494 -0.34997761
v 0.63797849 -0.25849608 -0.33606753
v 0.64888251 -0.25282794 -0.32964748
v 0.65460712 -0.25596258 -0.30996698
v 0.81612295 -0.07020196 -0.31145737
v 0.82212019 -0.06367500 -0.30580163
v 0.80235660 -0.08368528 -0.32586426
v 0.79576874 -0.09021224 -0.33151999
v 0.78195703 -0.10287969 -0.34447473
v 0.84356475 -0.02219447 -0.30996698
v 0.84742659 -0.02219447 -0.29884657
v 0.85019803 -0.02219447 -0.29085973
v 0.84560925 -0.03116904 -0.29066867
v 0.83543217 -0.04963346 -0.29066867
v 0.84147477 -0.04272003 -0.28443968
v 0.77441508 -0.10975017 -0.35066548
v 0.76096678 -0.12138704 -0.36212984
v 0.75019908 -0.13031867 -0.37042239
v 0.73938590 -0.13925029 -0.37875319
v 0.74433815 -0.12568110 -0.38941503
v 0.66310316 -0.28207040 -0.19001156
v 0.66578376 -0.28387392 -0.17002536
v 0.67573369 -0.27700344 -0.17002536
v 0.69118106 -0.26571009 -0.16876428
v 0.70026773 -0.26021370 -0.16127422
v 0.70144898 -0.26120132 -0.15000094
v 0.71339798 -0.25433084 -0.13001475
v 0.71498817 -0.25574788 -0.11002854
v 0.72634649 -0.24574274 -0.11002854
v 0.73761398 -0.23779875 -0.09000412
v 0.73865896 -0.23878638 -0.07001792
v 0.73947674 -0.23951638 -0.05003172
v 0.74951756 -0.22955418 -0.05003172
v 0.75987637 -0.21993551 -0.03742091
v 0.74997187 -0.23002651 -0.03031301
v 0.74020368 -0.24024636 -0.01002109
v 0.76010352 -0.22015020 -0.02408405
v 0.75019908 -0.23032710 -0.01002109
v 0.74020368 -0.24024636 0.00098470
v 0.82339227 -0.14466080 0.00098470
v 0.81594121 -0.15466593 0.00098470
v 0.80590045 -0.16746220 -0.01002109
v 0.80562782 -0.16716161 -0.03000730
v 0.80517352 -0.16656046 -0.05003172
v 0.80440110 -0.16561577 -0.07001792
v 0.81439650 -0.15264773 -0.07001792
v 0.82093889 -0.14135438 -0.09000412
v 0.83538669 -0.11309953 -0.13001475
v 0.82539135 -0.12778518 -0.13001475
v 0.82025737 -0.14040968 -0.10230920
v 0.81939417 -0.13925029 -0.11564607
v 0.84083873 -0.10133383 -0.14518592
v 0.85674042 -0.07458189 -0.15000094
v 0.84592724 -0.09180103 -0.15110916
v 0.86119288 -0.06208621 -0.16631855
v 0.86582708 -0.05195224 -0.17182145
v 0.87641311 -0.03323019 -0.17002536
v 0.88113821 -0.02219447 -0.17541361
v 0.68145829 -0.26115838 -0.22459573
v 0.66864604 -0.27391171 -0.21015063
v 0.67309850 -0.27507111 -0.19001156
v 0.67709666 -0.25772315 -0.24997017
v 0.67927748 -0.25944078 -0.23793259
v 0.66732848 -0.24595745 -0.30996698
v 0.67973179 -0.23981695 -0.29941979
v 0.67032707 -0.25029445 -0.29078329
v 0.68250322 -0.24209280 -0.28608292
v 0.67332572 -0.25471732 -0.26999459
v 0.60217696 -0.26145896 -0.38941503
v 0.61085474 -0.25536141 -0.38941503
v 0.62589324 -0.24445453 -0.38941503
v 0.63929605 -0.23947343 -0.37875319
v 0.65651536 -0.23719758 -0.35360801
v 0.66014999 -0.24016048 -0.34027112
v 0.64992750 -0.24462630 -0.34814334
v 0.66264886 -0.24213575 -0.32999140
v 0.81816745 -0.07698657 -0.29471940
v 0.80467373 -0.09021224 -0.30893520
v 0.82416463 -0.07020196 -0.28883436
v 0.79799503 -0.09703977 -0.31489667
v 0.78404695 -0.10975017 -0.32811892
v 0.77727735 -0.11619124 -0.33354539
v 0.85637695 -0.02219447 -0.27209640
v 0.85405982 -0.02854967 -0.26888639
v 0.83815813 -0.05684747 -0.26999459
v 0.84379190 -0.04684232 -0.26999459
v 0.76373821 -0.12507993 -0.34997761
v 0.75619626 -0.13508508 -0.34997761
v 0.73416102 -0.14994249 -0.37122488
v 0.72044015 -0.16054878 -0.38081676
v 0.72525609 -0.14947014 -0.38941503
v 0.73656905 -0.13572916 -0.38941503
v 0.73684162 -0.13538565 -0.38941503
v 0.74261165 -0.14324376 -0.36541629
v 0.68663770 -0.26506597 -0.19001156
v 0.69863212 -0.25892547 -0.17461111
v 0.71003592 -0.25003681 -0.17025465
v 0.72130340 -0.24123399 -0.16585998
v 0.71148980 -0.25269911 -0.15000094
v 0.72480178 -0.24436864 -0.13001475
v 0.73634183 -0.23655348 -0.11002854
v 0.74774563 -0.22779362 -0.09000412
v 0.74874520 -0.22878125 -0.07001792
v 0.75951290 -0.21954903 -0.05003172
v 0.76864505 -0.20954390 -0.05003172
v 0.77868581 -0.19850819 -0.05003172
v 0.77914011 -0.19906642 -0.03000730
v 0.76741832 -0.21194857 -0.03046587
v 0.76023984 -0.22032197 -0.01002109
v 0.77941275 -0.19936700 -0.01002109
v 0.76023984 -0.22032197 0.00098470
v 0.81044376 -0.16170818 0.00098470
v 0.80590045 -0.16750515 0.00098470
v 0.80231118 -0.17201391 0.00098470
v 0.79790413 -0.17746735 -0.01002109
v 0.79763156 -0.17716676 -0.03000730
v 0.79713178 -0.17652264 -0.05003172
v 0.79640484 -0.17562090 -0.07001792
v 0.80344701 -0.16437049 -0.09000412
v 0.81344235 -0.15135951 -0.09000412
v 0.83488697 -0.10880548 -0.15110916
v 0.82380116 -0.12555227 -0.15000094
v 0.81839460 -0.13779032 -0.13001475
v 0.81344235 -0.14826781 -0.10941710
v 0.80926251 -0.15002836 -0.13001475
v 0.83970290 -0.09961621 -0.15848458
v 0.85587716 -0.06925727 -0.17182145
v 0.84492773 -0.08789346 -0.17002536
v 0.85992074 -0.05989625 -0.17965543
v 0.87950253 -0.02219447 -0.18343866
v 0.86437321 -0.04791585 -0.19001156
v 0.87491381 -0.02854967 -0.18936191
v 0.68886393 -0.25355792 -0.23074827
v 0.69377077 -0.25497496 -0.20999777
v 0.68372995 -0.26287600 -0.20999777
v 0.68568361 -0.24475512 -0.26999459
v 0.69104475 -0.24660155 -0.24935874
v 0.70076746 -0.24071871 -0.24225083
v 0.67732382 -0.23775581 -0.30996698
v 0.69054496 -0.22650540 -0.30874413
v 0.70049489 -0.22053666 -0.30121586
v 0.68949997 -0.23401999 -0.29162401
v 0.69567895 -0.23620996 -0.26999459
v 0.63593400 -0.23681112 -0.38941503
v 0.63620657 -0.23659642 -0.38941503
v 0.65001833 -0.22573248 -0.38872716
v 0.66074061 -0.22066548 -0.38119888
v 0.64992750 -0.23436351 -0.37126312
v 0.66383010 -0.22337075 -0.36996382
v 0.66891867 -0.22912477 -0.34791404
v 0.68109483 -0.22105196 -0.34218186
v 0.67264420 -0.23367646 -0.32999140
v 0.82043910 -0.08076532 -0.28138253
v 0.81298804 -0.08849461 -0.28883436
v 0.80058473 -0.10090442 -0.30155981
v 0.79245210 -0.10854784 -0.30893520
v 0.78004879 -0.12014177 -0.32020849
v 0.76955366 -0.12941691 -0.32892141
v 0.85937560 -0.02219447 -0.26273382
v 0.85683131 -0.03408900 -0.24997017
v 0.83983922 -0.05976743 -0.25944740
v 0.83043444 -0.07003020 -0.26999459
v 0.75896770 -0.13873501 -0.33763433
v 0.73711419 -0.15659826 -0.35383728
v 0.71426123 -0.17364565 -0.36996382
v 0.70113093 -0.18120317 -0.38203961
v 0.70899093 -0.16892219 -0.38811570
v 0.71812308 -0.15788648 -0.38941503
v 0.72316617 -0.16364050 -0.36996382
v 0.74511051 -0.14994249 -0.34829617
v 0.69663304 -0.25729373 -0.19001156
v 0.70840031 -0.24728860 -0.19001156
v 0.71980411 -0.23985989 -0.17919685
v 0.72293901 -0.24269398 -0.15000094
v 0.74006736 -0.22010726 -0.18034329
v 0.74115777 -0.22122371 -0.17002536
v 0.73293436 -0.23329000 -0.15000094
v 0.73479712 -0.23505056 -0.13001475
v 0.74497420 -0.22504543 -0.13001475
v 0.74647349 -0.22654834 -0.11002854
v 0.75774097 -0.21765965 -0.09000412
v 0.75874054 -0.21869023 -0.07001792
v 0.76791811 -0.20868509 -0.07001792
v 0.77791345 -0.19764939 -0.07001792
v 0.78640950 -0.18764424 -0.07001792
v 0.78713644 -0.18850306 -0.05003172
v 0.78763616 -0.18906128 -0.03000730
v 0.76451057 -0.21568438 0.00098470
v 0.77941275 -0.19936700 0.00098470
v 0.78790879 -0.18936187 -0.01002109
v 0.78409237 -0.19387062 0.00098470
v 0.79790413 -0.17751029 0.00098470
v 0.78540993 -0.18648484 -0.09000412
v 0.79540527 -0.17437562 -0.09000412
v 0.80226576 -0.16291052 -0.11002854
v 0.82198387 -0.12293290 -0.17002536
v 0.81680441 -0.13555741 -0.15000094
v 0.80008495 -0.16011938 -0.14056195
v 0.80549151 -0.15118775 -0.14831951
v 0.80085731 -0.16114995 -0.13001475
v 0.83061624 -0.11000781 -0.17002536
v 0.83861250 -0.09789859 -0.17002536
v 0.84288323 -0.08462997 -0.19001156
v 0.85169733 -0.07003020 -0.19001156
v 0.85878491 -0.05792098 -0.19001156
v 0.87741262 -0.02219447 -0.19314516
v 0.86210155 -0.04383649 -0.20999777
v 0.86946177 -0.03000966 -0.20999777
v 0.70272112 -0.24235044 -0.22998397
v 0.70567429 -0.24496982 -0.20999777
v 0.69840497 -0.23865756 -0.25558770
v 0.70985419 -0.22989769 -0.24958803
v 0.72116709 -0.22118078 -0.24358834
v 0.71271646 -0.23324706 -0.22998397
v 0.68400258 -0.22367133 -0.32999140
v 0.69754171 -0.21774554 -0.31455272
v 0.70276654 -0.22264075 -0.28998080
v 0.70912725 -0.20915744 -0.30794162
v 0.72053105 -0.20056933 -0.30129230
v 0.71276188 -0.21285032 -0.28998080
v 0.70658296 -0.22624776 -0.26999459
v 0.64974576 -0.22560365 -0.38941503
v 0.65824181 -0.21847552 -0.38941503
v 0.66873693 -0.20885685 -0.38941503
v 0.68118566 -0.20117050 -0.38211605
v 0.67378002 -0.21431029 -0.36996382
v 0.67768729 -0.21791729 -0.35551873
v 0.68959087 -0.20967272 -0.34921333
v 0.70140356 -0.20142815 -0.34290791
v 0.69399792 -0.21439618 -0.32999140
v 0.81594121 -0.09364748 -0.26999459
v 0.82225645 -0.08364233 -0.26999459
v 0.80262923 -0.10395320 -0.28998080
v 0.79576874 -0.11395834 -0.28998080
v 0.78204787 -0.12284702 -0.30996698
v 0.77464223 -0.13285217 -0.30996698
v 0.76178455 -0.14229907 -0.32429743
v 0.86114746 -0.02219447 -0.25677237
v 0.86210155 -0.02408387 -0.24997017
v 0.85883033 -0.03786777 -0.23563972
v 0.84651792 -0.05186637 -0.25168982
v 0.83611363 -0.06985843 -0.25168982
v 0.84174740 -0.06307384 -0.24614872
v 0.75337940 -0.14938426 -0.33056462
v 0.74020368 -0.16029114 -0.34050041
v 0.72907251 -0.16900806 -0.34802866
v 0.71785045 -0.17768204 -0.35551873
v 0.70422041 -0.18450959 -0.36996382
v 0.69445223 -0.19451472 -0.36996382
v 0.68813699 -0.19013479 -0.38941503
v 0.69904101 -0.17905614 -0.38941503
v 0.70694643 -0.17038216 -0.38941503
v 0.71839565 -0.23857167 -0.19001156
v 0.73102617 -0.22689186 -0.18821548
v 0.73838633 -0.21843259 -0.19368017
v 0.74670064 -0.21104681 -0.18821548
v 0.75964922 -0.19966759 -0.17858541
v 0.75274330 -0.20877098 -0.17117180
v 0.75319767 -0.21289326 -0.15000094
v 0.74320233 -0.22328486 -0.15000094
v 0.75496954 -0.21473970 -0.13001475
v 0.75646889 -0.21632850 -0.11002854
v 0.76573730 -0.20632336 -0.11002854
v 0.76691854 -0.20765452 -0.09000412
v 0.77691388 -0.19648999 -0.09000412
v 0.78790879 -0.18936187 0.00098470
v 0.78418326 -0.18506782 -0.11002854
v 0.77573264 -0.19507295 -0.11002854
v 0.79417861 -0.17291565 -0.11002854
v 0.81494164 -0.13293804 -0.17002536
v 0.82066631 -0.12104352 -0.18324760
v 0.80494630 -0.14663607 -0.17002536
v 0.79890370 -0.15861645 -0.15389884
v 0.79277015 -0.17115510 -0.13001475
v 0.78277481 -0.18335019 -0.13001475
v 0.78109378 -0.18137494 -0.15000094
v 0.79222494 -0.16810632 -0.14831951
v 0.83656800 -0.09463511 -0.19001156
v 0.82566398 -0.11133897 -0.18997335
v 0.84120220 -0.08196767 -0.20495345
v 0.84592724 -0.07161900 -0.21095313
v 0.85651326 -0.05384164 -0.20999777
v 0.87350535 -0.02219447 -0.20999777
v 0.86060226 -0.04113124 -0.22230285
v 0.86423695 -0.03073964 -0.22937253
v 0.71566963 -0.23603819 -0.20999777
v 0.71894085 -0.21899080 -0.25692523
v 0.74106693 -0.20117050 -0.24328263
v 0.73329782 -0.21327972 -0.22998397
v 0.72330248 -0.22324193 -0.22998397
v 0.70435673 -0.20439103 -0.32999140
v 0.71657830 -0.21667202 -0.26999459
v 0.71771413 -0.19764939 -0.31462917
v 0.72275728 -0.20284519 -0.28998080
v 0.72889078 -0.18888952 -0.30744484
v 0.74006736 -0.18012965 -0.30022228
v 0.73275262 -0.19228181 -0.28998080
v 0.67909575 -0.19915229 -0.38941503
v 0.69808692 -0.19812173 -0.35624480
v 0.68445688 -0.20430516 -0.36996382
v 0.70962703 -0.18966244 -0.34921333
v 0.72103077 -0.18116023 -0.34218186
v 0.71435207 -0.19408531 -0.32999140
v 0.81834918 -0.09746918 -0.25436485
v 0.80508262 -0.11065193 -0.26903921
v 0.82439184 -0.09046988 -0.24863267
v 0.79835844 -0.11769416 -0.27511534
v 0.78472847 -0.13023278 -0.28829935
v 0.77773172 -0.13701738 -0.29384047
v 0.76464689 -0.14590608 -0.30996698
v 0.75665057 -0.15591121 -0.30996698
v 0.86305571 -0.02219447 -0.24997017
v 0.86859858 -0.02219447 -0.22956361
v 0.85451418 -0.04868877 -0.22937253
v 0.83802187 -0.07677186 -0.22998397
v 0.84397364 -0.06676672 -0.22998397
v 0.74247539 -0.16295345 -0.32999140
v 0.73375213 -0.17295858 -0.32999140
v 0.72621018 -0.22603305 -0.20999777
v 0.73620558 -0.21624261 -0.20999777
v 0.74583745 -0.20623748 -0.20999777
v 0.75833166 -0.19816467 -0.19001156
v 0.76700944 -0.18815953 -0.19001156
v 0.77877665 -0.17858380 -0.17419074
v 0.76991713 -0.18996303 -0.16971965
v 0.76105762 -0.20125638 -0.16524854
v 0.76255691 -0.20288812 -0.15000094
v 0.76428342 -0.20473456 -0.13001475
v 0.77427876 -0.19335532 -0.13001475
v 0.80285639 -0.14388788 -0.19001156
v 0.81385124 -0.12864399 -0.18997335
v 0.81921244 -0.11889649 -0.19654626
v 0.79735893 -0.15664120 -0.17002536
v 0.78013968 -0.18021554 -0.16085388
v 0.78600061 -0.17115510 -0.16853499
v 0.77255231 -0.19138007 -0.15000094
v 0.82425553 -0.10652962 -0.20999777
v 0.83515954 -0.08918166 -0.21095313
v 0.83956659 -0.07934830 -0.21829033
v 0.72648281 -0.20666689 -0.26999459
v 0.73884070 -0.19880877 -0.25661951
v 0.74965382 -0.18961951 -0.24890018
v 0.76033068 -0.18043023 -0.24114262
v 0.75306135 -0.19228181 -0.22998397
v 0.74306601 -0.20327458 -0.22998397
v 0.72375679 -0.18408018 -0.32999140
v 0.73647815 -0.19631822 -0.26999459
v 0.74202102 -0.18227668 -0.28998080
v 0.73729599 -0.17699499 -0.31355917
v 0.74538308 -0.17021039 -0.30813271
v 0.75910401 -0.15895998 -0.29762369
v 0.75306135 -0.16917983 -0.29059222
v 0.82030284 -0.10047501 -0.24102797
v 0.81285173 -0.10829020 -0.24863267
v 0.80053926 -0.12082881 -0.26177847
v 0.79258841 -0.12851517 -0.26903921
v 0.78018510 -0.14028087 -0.28050357
v 0.82979840 -0.09004048 -0.22998397
v 0.75583279 -0.19537354 -0.20999777
v 0.76460147 -0.18536839 -0.20999777
v 0.77700478 -0.17647971 -0.19001156
v 0.78522819 -0.16647458 -0.19001156
v 0.79522359 -0.15389301 -0.19001156
v 0.80117536 -0.14161202 -0.20487702
v 0.81762224 -0.11653477 -0.20999777
v 0.80680907 -0.13164982 -0.21091491
v 0.82175672 -0.10270792 -0.22998397
v 0.74561030 -0.18631309 -0.26999459
v 0.75824076 -0.17798263 -0.25447950
v 0.76605535 -0.17081156 -0.24867088
v 0.77923101 -0.15904588 -0.23724473
v 0.77305204 -0.16883630 -0.23032790
v 0.76192087 -0.18227668 -0.22998397
v 0.75565106 -0.17493385 -0.26999459
v 0.76155740 -0.16196582 -0.28432503
v 0.81507796 -0.11271307 -0.22998397
v 0.80231118 -0.12331937 -0.24997017
v 0.79508728 -0.13332450 -0.24997017
v 0.78191155 -0.14251378 -0.26999459
v 0.77405161 -0.15251891 -0.26999459
v 0.77459681 -0.17355976 -0.20999777
v 0.78286570 -0.16355461 -0.20999777
v 0.79399687 -0.14899778 -0.21091491
v 0.79953974 -0.13942206 -0.21821389
v 0.80508262 -0.12726989 -0.22998397
v 0.76405627 -0.16492872 -0.26999459
v 0.77727735 -0.15664120 -0.24997017
v 0.78509194 -0.14663607 -0.24997017
v 0.78700012 -0.15144539 -0.23032790
v 0.78104836 -0.16136464 -0.22390786
v 0.79794955 -0.13723210 -0.22998397
f 1 2 3
f 1 3 7
f 1 7 13
f 1 13 21
f 1 21 36
f 1 36 58
f 1 58 86
f 1 86 141
f 1 141 196
f 1 196 199
f 1 199 264
f 1 264 336
f 1 336 408
f 1 408 484
f 1 484 561
f 1 561 591
f 1 591 590
f 1 590 516
f 1 516 437
f 1 437 361
f 1 361 290
f 1 290 289
f 1 289 288
f 1 288 220
f 1 220 162
f 1 162 112
f 1 112 64
f 1 64 62
f 1 62 39
f 1 39 23
f 1 23 15
f 1 15 8
f 1 8 4
f 1 4 9
f 1 9 16
f 1 16 27
f 1 27 49
f 1 49 75
f 1 75 126
f 1 126 125
f 1 125 179
f 1 179 245
f 1 245 244
f 1 244 243
f 1 243 317
f 1 317 389
f 1 389 466
f 1 466 467
f 1 467 469
f 1 469 544
f 1 544 470
f 1 470 392
f 1 392 391
f 1 391 390
f 1 390 319
f 1 319 318
f 1 318 246
f 1 246 181
f 1 181 180
f 1 180 129
f 1 129 128
f 1 128 76
f 1 76 50
f 1 50 29
f 1 29 28
f 1 28 17
f 1 17 10
f 1 10 5
f 1 5 2
f 2 5 6
f 2 6 3
f 3 6 7
f 4 8 9
f 5 10 6
f 6 10 11
f 6 11 12
f 6 12 7
f 7 12 13
f 8 14 9
f 8 15 24
f 8 24 43
f 8 43 68
f 8 68 116
f 8 116 168
f 8 168 167
f 8 167 226
f 8 226 228
f 8 228 298
f 8 298 371
f 8 371 370
f 8 370 369
f 8 369 446
f 8 446 530
f 8 530 529
f 8 529 528
f 8 528 576
f 8 576 502
f 8 502 501
f 8 501 500
f 8 500 423
f 8 423 422
f 8 422 349
f 8 349 348
f 8 348 347
f 8 347 274
f 8 274 273
f 8 273 272
f 8 272 207
f 8 207 206
f 8 206 148
f 8 148 99
f 8 99 98
f 8 98 97
f 8 97 96
f 8 96 95
f 8 95 94
f 8 94 93
f 8 93 92
f 8 92 91
f 8 91 90
f 8 90 89
f 8 89 61
f 8 61 38
f 8 38 22
f 8 22 14
f 9 14 22
f 9 22 37
f 9 37 60
f 9 60 88
f 9 88 144
f 9 144 200
f 9 200 229
f 9 229 169
f 9 169 117
f 9 117 69
f 9 69 44
f 9 44 25
f 9 25 16
f 10 17 11
f 11 17 28
f 11 28 18
f 11 18 19
f 11 19 12
f 12 20 21
f 12 21 13
f 12 19 20
f 15 23 24
f 16 25 26
f 16 26 27
f 18 28 29
f 18 29 30
f 18 30 31
f 18 31 32
f 18 32 19
f 19 32 33
f 19 33 34
f 19 34 20
f 20 35 36
f 20 36 21
f 20 34 35
f 22 38 37
f 23 39 40
f 23 40 41
f 23 41 42
f 23 42 24
f 24 42 43
f 25 44 26
f 26 44 45
f 26 45 46
f 26 46 47
f 26 47 48
f 26 48 27
f 27 48 49
f 29 50 30
f 30 50 51
f 30 51 31
f 31 51 52
f 31 52 53
f 31 53 54
f 31 54 33
f 31 33 32
f 33 54 55
f 33 55 56
f 33 56 34
f 34 56 35
f 35 57 86
f 35 86 58
f 35 58 36
f 35 56 59
f 35 59 57
f 37 38 60
f 38 61 60
f 39 62 40
f 40 63 41
f 40 62 64
f 40 64 65
f 40 65 63
f 41 66 42
f 41 63 66
f 42 66 67
f 42 67 68
f 42 68 43
f 44 69 45
f 45 69 70
f 45 70 71
f 45 71 46
f 46 71 72
f 46 72 73
f 46 73 47
f 47 73 74
f 47 74 48
f 48 74 49
f 49 74 75
f 50 76 51
f 51 76 128
f 51 128 77
f 51 77 52
f 52 77 78
f 52 78 79
f 52 79 53
f 53 79 80
f 53 80 81
f 53 81 54
f 54 81 82
f 54 82 55
f 55 83 59
f 55 59 56
f 55 82 84
f 55 84 83
f 57 85 141
f 57 141 86
f 57 59 87
f 57 87 85
f 59 83 138
f 59 138 87
f 60 61 89
f 60 89 90
f 60 90 91
f 60 91 92
f 60 92 93
f 60 93 94
f 60 94 95
f 60 95 96
f 60 96 97
f 60 97 98
f 60 98 99
f 60 99 100
f 60 100 101
f 60 101 102
f 60 102 103
f 60 103 104
f 60 104 105
f 60 105 106
f 60 106 107
f 60 107 108
f 60 108 88
f 63 65 109
f 63 109 110
f 63 110 111
f 63 111 66
f 64 112 65
f 65 112 113
f 65 113 109
f 66 111 67
f 67 111 114
f 67 114 115
f 67 115 116
f 67 116 68
f 69 117 70
f 70 117 118
f 70 118 119
f 70 119 120
f 70 120 71
f 71 120 121
f 71 121 72
f 72 121 122
f 72 122 123
f 72 123 73
f 73 123 124
f 73 124 74
f 74 125 126
f 74 126 75
f 74 124 127
f 74 127 125
f 77 128 129
f 77 129 130
f 77 130 78
f 78 130 131
f 78 131 132
f 78 132 79
f 79 132 133
f 79 133 134
f 79 134 80
f 80 134 135
f 80 135 136
f 80 136 137
f 80 137 81
f 81 137 82
f 82 137 84
f 83 84 139
f 83 139 138
f 84 137 140
f 84 140 139
f 85 87 142
f 85 142 143
f 85 143 141
f 87 138 142
f 88 108 145
f 88 145 146
f 88 146 147
f 88 147 144
f 99 148 149
f 99 149 100
f 100 149 101
f 101 149 150
f 101 150 102
f 102 150 103
f 103 150 151
f 103 151 104
f 104 151 105
f 105 151 152
f 105 152 153
f 105 153 154
f 105 154 155
f 105 155 106
f 106 155 107
f 107 155 108
f 108 155 156
f 108 156 157
f 108 157 145
f 109 158 110
f 109 113 159
f 109 159 158
f 110 160 111
f 110 158 160
f 111 160 161
f 111 161 114
f 112 162 113
f 113 162 163
f 113 163 159
f 114 161 164
f 114 164 115
f 115 164 165
f 115 165 166
f 115 166 167
f 115 167 168
f 115 168 116
f 117 169 118
f 118 169 170
f 118 170 171
f 118 171 119
f 119 171 172
f 119 172 173
f 119 173 120
f 120 173 121
f 121 173 174
f 121 174 122
f 122 174 175
f 122 175 176
f 122 176 123
f 123 176 177
f 123 177 124
f 124 177 178
f 124 178 127
f 125 127 179
f 127 178 179
f 129 180 130
f 130 180 181
f 130 181 182
f 130 182 183
f 130 183 131
f 131 183 132
f 132 183 184
f 132 184 185
f 132 185 186
f 132 186 187
f 132 187 188
f 132 188 133
f 133 188 189
f 133 189 134
f 134 189 135
f 135 189 190
f 135 190 254
f 135 254 191
f 135 191 136
f 136 192 140
f 136 140 137
f 136 191 192
f 138 139 193
f 138 193 194
f 138 194 142
f 139 140 195
f 139 195 193
f 140 192 195
f 141 143 196
f 142 194 197
f 142 197 143
f 143 197 198
f 143 198 199
f 143 199 196
f 144 147 201
f 144 201 202
f 144 202 200
f 145 157 146
f 146 157 203
f 146 203 204
f 146 204 147
f 147 204 205
f 147 205 201
f 148 206 149
f 149 206 207
f 149 207 150
f 150 208 151
f 150 207 208
f 151 208 152
f 152 209 153
f 152 208 210
f 152 210 209
f 153 209 211
f 153 211 212
f 153 212 154
f 154 212 213
f 154 213 155
f 155 213 156
f 156 213 214
f 156 214 215
f 156 215 157
f 157 215 203
f 158 159 216
f 158 216 217
f 158 217 218
f 158 218 160
f 159 163 216
f 160 218 161
f 161 219 164
f 161 218 219
f 162 220 163
f 163 220 221
f 163 221 222
f 163 222 223
f 163 223 216
f 164 219 224
f 164 224 165
f 165 224 225
f 165 225 166
f 166 226 167
f 166 225 227
f 166 227 228
f 166 228 226
f 169 229 230
f 169 230 170
f 170 230 231
f 170 231 232
f 170 232 171
f 171 232 172
f 172 232 233
f 172 233 234
f 172 234 173
f 173 234 174
f 174 234 235
f 174 235 175
f 175 235 236
f 175 236 237
f 175 237 238
f 175 238 176
f 176 238 239
f 176 239 177
f 177 239 240
f 177 240 241
f 177 241 242
f 177 242 178
f 178 242 243
f 178 243 244
f 178 244 245
f 178 245 179
f 181 246 182
f 182 246 247
f 182 247 183
f 183 247 185
f 183 185 184
f 185 247 248
f 185 248 249
f 185 249 250
f 185 250 251
f 185 251 186
f 186 252 253
f 186 253 187
f 186 251 252
f 187 253 188
f 188 253 189
f 189 253 190
f 190 253 255
f 190 255 256
f 190 256 254
f 191 254 257
f 191 257 192
f 192 257 195
f 193 195 258
f 193 258 259
f 193 259 194
f 194 259 260
f 194 260 197
f 195 257 261
f 195 261 258
f 197 262 198
f 197 260 262
f 198 262 335
f 198 335 263
f 198 263 199
f 199 263 264
f 200 202 265
f 200 265 266
f 200 266 229
f 201 205 202
f 202 205 267
f 202 267 268
f 202 268 265
f 203 269 270
f 203 270 204
f 203 215 269
f 204 270 271
f 204 271 205
f 205 271 267
f 207 272 208
f 208 272 273
f 208 273 274
f 208 274 210
f 209 275 211
f 209 210 276
f 209 276 275
f 210 274 276
f 211 275 277
f 211 277 278
f 211 278 279
f 211 279 280
f 211 280 212
f 212 280 213
f 213 280 214
f 214 280 281
f 214 281 282
f 214 282 215
f 215 282 269
f 216 283 217
f 216 223 284
f 216 284 283
f 217 285 218
f 217 283 285
f 218 285 286
f 218 286 287
f 218 287 219
f 219 287 224
f 220 288 221
f 221 288 289
f 221 289 290
f 221 290 291
f 221 291 222
f 222 292 284
f 222 284 223
f 222 291 293
f 222 293 292
f 224 294 295
f 224 295 225
f 224 287 294
f 225 295 227
f 227 295 296
f 227 296 297
f 227 297 298
f 227 298 228
f 229 266 299
f 229 299 300
f 229 300 230
f 230 300 301
f 230 301 231
f 231 302 303
f 231 303 304
f 231 304 233
f 231 233 232
f 231 301 302
f 233 305 306
f 233 306 234
f 233 304 305
f 234 306 235
f 235 306 307
f 235 307 236
f 236 307 308
f 236 308 309
f 236 309 237
f 237 309 310
f 237 310 238
f 238 310 239
f 239 241 240
f 239 310 311
f 239 311 312
f 239 312 313
f 239 313 241
f 241 314 242
f 241 313 315
f 241 315 316
f 241 316 314
f 242 314 317
f 242 317 243
f 246 318 248
f 246 248 247
f 248 318 319
f 248 319 249
f 249 319 320
f 249 320 321
f 249 321 250
f 250 321 322
f 250 322 251
f 251 322 323
f 251 323 324
f 251 324 252
f 252 325 253
f 252 324 398
f 252 398 325
f 253 325 255
f 254 326 257
f 254 256 327
f 254 327 326
f 255 325 328
f 255 328 256
f 256 328 329
f 256 329 327
f 257 326 330
f 257 330 261
f 258 331 259
f 258 261 332
f 258 332 331
f 259 331 333
f 259 333 260
f 260 333 334
f 260 334 335
f 260 335 262
f 261 330 332
f 263 336 264
f 263 335 336
f 265 268 337
f 265 337 338
f 265 338 266
f 266 338 339
f 266 339 299
f 267 271 340
f 267 340 341
f 267 341 268
f 268 341 337
f 269 282 342
f 269 342 343
f 269 343 344
f 269 344 270
f 270 344 345
f 270 345 346
f 270 346 271
f 271 346 340
f 274 347 276
f 275 276 347
f 275 347 348
f 275 348 349
f 275 349 350
f 275 350 277
f 277 350 278
f 278 350 351
f 278 351 352
f 278 352 353
f 278 353 279
f 279 353 280
f 280 353 352
f 280 352 281
f 281 352 282
f 282 352 354
f 282 354 342
f 283 284 355
f 283 355 356
f 283 356 285
f 284 292 357
f 284 357 355
f 285 358 286
f 285 356 358
f 286 359 287
f 286 358 359
f 287 359 360
f 287 360 294
f 290 361 291
f 291 361 362
f 291 362 293
f 292 293 363
f 292 363 357
f 293 362 364
f 293 364 363
f 294 360 365
f 294 365 295
f 295 366 296
f 295 365 366
f 296 366 297
f 297 367 368
f 297 368 369
f 297 369 370
f 297 370 371
f 297 371 298
f 297 366 372
f 297 372 367
f 299 339 301
f 299 301 300
f 301 373 302
f 301 339 373
f 302 374 303
f 302 373 374
f 303 374 375
f 303 375 376
f 303 376 377
f 303 377 304
f 304 377 305
f 305 377 378
f 305 378 306
f 306 378 307
f 307 378 379
f 307 379 308
f 308 379 458
f 308 458 380
f 308 380 309
f 309 380 381
f 309 381 310
f 310 381 311
f 311 381 382
f 311 382 312
f 312 315 313
f 312 382 383
f 312 383 384
f 312 384 385
f 312 385 386
f 312 386 315
f 314 316 317
f 315 387 316
f 315 386 388
f 315 388 387
f 316 387 389
f 316 389 317
f 319 390 320
f 320 391 392
f 320 392 393
f 320 393 394
f 320 394 321
f 320 390 391
f 321 394 322
f 322 394 395
f 322 395 396
f 322 396 323
f 323 397 324
f 323 396 397
f 324 397 398
f 325 398 328
f 326 399 330
f 326 327 400
f 326 400 399
f 327 329 401
f 327 401 475
f 327 475 400
f 328 398 402
f 328 402 329
f 329 402 403
f 329 403 401
f 330 399 404
f 330 404 332
f 331 405 333
f 331 332 406
f 331 406 405
f 332 404 406
f 333 405 407
f 333 407 334
f 334 407 335
f 335 408 336
f 335 407 409
f 335 409 410
f 335 410 408
f 337 341 411
f 337 411 412
f 337 412 413
f 337 413 338
f 338 413 339
f 339 413 373
f 340 414 415
f 340 415 341
f 340 346 414
f 341 415 416
f 341 416 411
f 342 354 343
f 343 417 418
f 343 418 419
f 343 419 420
f 343 420 345
f 343 345 344
f 343 354 417
f 345 420 421
f 345 421 414
f 345 414 346
f 349 422 350
f 350 422 423
f 350 423 424
f 350 424 425
f 350 425 426
f 350 426 351
f 351 426 425
f 351 425 427
f 351 427 428
f 351 428 352
f 352 428 429
f 352 429 430
f 352 430 417
f 352 417 354
f 355 357 431
f 355 431 432
f 355 432 433
f 355 433 356
f 356 433 358
f 357 363 431
f 358 433 434
f 358 434 435
f 358 435 359
f 359 435 360
f 360 435 436
f 360 436 365
f 361 437 362
f 362 437 438
f 362 438 364
f 363 364 439
f 363 439 440
f 363 440 431
f 364 438 439
f 365 436 441
f 365 441 366
f 366 441 372
f 367 372 442
f 367 442 368
f 368 443 444
f 368 444 445
f 368 445 446
f 368 446 369
f 368 442 447
f 368 447 443
f 372 441 448
f 372 448 442
f 373 413 449
f 373 449 374
f 374 449 450
f 374 450 451
f 374 451 375
f 375 451 376
f 376 452 377
f 376 451 453
f 376 453 454
f 376 454 455
f 376 455 452
f 377 452 378
f 378 456 379
f 378 452 456
f 379 456 457
f 379 457 458
f 380 458 459
f 380 459 460
f 380 460 381
f 381 460 382
f 382 460 461
f 382 461 383
f 383 461 384
f 384 461 462
f 384 462 463
f 384 463 464
f 384 464 465
f 384 465 385
f 385 388 386
f 385 465 468
f 385 468 388
f 387 388 466
f 387 466 389
f 388 467 466
f 388 468 469
f 388 469 467
f 392 470 393
f 393 470 468
f 393 468 465
f 393 465 394
f 394 465 464
f 394 464 395
f 395 464 463
f 395 463 396
f 396 463 471
f 396 471 472
f 396 472 397
f 397 473 398
f 397 472 473
f 398 473 402
f 399 400 474
f 399 474 404
f 400 475 474
f 401 403 476
f 401 476 477
f 401 477 475
f 402 473 478
f 402 478 403
f 403 478 476
f 404 474 479
f 404 479 480
f 404 480 406
f 405 406 481
f 405 481 482
f 405 482 407
f 406 480 556
f 406 556 481
f 407 482 483
f 407 483 409
f 408 410 484
f 409 483 560
f 409 560 485
f 409 485 410
f 410 485 486
f 410 486 484
f 411 416 487
f 411 487 412
f 412 487 488
f 412 488 449
f 412 449 413
f 414 421 489
f 414 489 415
f 415 489 416
f 416 489 490
f 416 490 491
f 416 491 492
f 416 492 487
f 417 493 418
f 417 430 493
f 418 494 419
f 418 493 494
f 419 495 420
f 419 494 496
f 419 496 497
f 419 497 498
f 419 498 495
f 420 495 421
f 421 495 499
f 421 499 489
f 423 500 424
f 424 500 425
f 425 500 501
f 425 501 502
f 425 502 503
f 425 503 504
f 425 504 505
f 425 505 427
f 427 505 428
f 428 505 429
f 429 505 506
f 429 506 507
f 429 507 508
f 429 508 493
f 429 493 430
f 431 509 432
f 431 440 510
f 431 510 509
f 432 511 433
f 432 509 511
f 433 511 512
f 433 512 513
f 433 513 434
f 434 513 435
f 435 514 515
f 435 515 436
f 435 513 514
f 436 515 441
f 437 516 438
f 438 516 517
f 438 517 518
f 438 518 519
f 438 519 439
f 439 520 510
f 439 510 440
f 439 519 521
f 439 521 520
f 441 522 523
f 441 523 448
f 441 515 522
f 442 523 524
f 442 524 447
f 442 448 523
f 443 447 525
f 443 525 526
f 443 526 444
f 444 527 503
f 444 503 528
f 444 528 529
f 444 529 445
f 444 526 527
f 445 530 446
f 445 529 530
f 447 524 525
f 449 488 450
f 450 488 531
f 450 531 451
f 451 531 532
f 451 532 453
f 452 455 456
f 453 532 533
f 453 533 534
f 453 534 535
f 453 535 536
f 453 536 454
f 454 536 537
f 454 537 538
f 454 538 455
f 455 538 456
f 456 538 457
f 457 538 539
f 457 539 540
f 457 540 458
f 458 540 459
f 459 540 541
f 459 541 542
f 459 542 461
f 459 461 460
f 461 542 462
f 462 542 543
f 462 543 471
f 462 471 463
f 468 544 469
f 468 470 544
f 471 545 472
f 471 543 546
f 471 546 545
f 472 545 547
f 472 547 473
f 473 547 552
f 473 552 478
f 474 475 548
f 474 548 549
f 474 549 479
f 475 477 550
f 475 550 548
f 476 551 477
f 476 478 552
f 476 552 553
f 476 553 554
f 476 554 555
f 476 555 551
f 477 551 550
f 479 549 480
f 480 549 557
f 480 557 556
f 481 558 482
f 481 556 558
f 482 558 559
f 482 559 483
f 483 559 560
f 484 486 561
f 485 560 562
f 485 562 486
f 486 562 563
f 486 563 561
f 487 492 564
f 487 564 488
f 488 564 531
f 489 499 565
f 489 565 490
f 490 565 491
f 491 565 566
f 491 566 567
f 491 567 568
f 491 568 492
f 492 568 564
f 493 508 494
f 494 508 569
f 494 569 496
f 495 498 570
f 495 570 499
f 496 569 571
f 496 571 497
f 497 572 498
f 497 571 573
f 497 573 574
f 497 574 575
f 497 575 572
f 498 572 570
f 499 570 565
f 502 576 503
f 503 527 577
f 503 577 578
f 503 578 504
f 503 576 528
f 504 578 505
f 505 578 577
f 505 577 506
f 506 577 507
f 507 577 579
f 507 579 580
f 507 580 581
f 507 581 569
f 507 569 508
f 509 510 582
f 509 582 583
f 509 583 511
f 510 520 584
f 510 584 582
f 511 585 512
f 511 583 585
f 512 586 513
f 512 585 586
f 513 586 587
f 513 587 514
f 514 587 588
f 514 588 515
f 515 588 589
f 515 589 522
f 516 590 517
f 517 590 591
f 517 591 563
f 517 563 518
f 518 562 592
f 518 592 519
f 518 563 562
f 519 592 521
f 520 521 593
f 520 593 584
f 521 592 594
f 521 594 593
f 522 589 595
f 522 595 523
f 523 596 580
f 523 580 524
f 523 595 596
f 524 580 525
f 525 580 579
f 525 579 526
f 526 579 577
f 526 577 527
f 531 564 597
f 531 597 532
f 532 597 533
f 533 597 598
f 533 598 599
f 533 599 534
f 534 599 600
f 534 600 535
f 535 600 601
f 535 601 602
f 535 602 603
f 535 603 604
f 535 604 536
f 536 604 537
f 537 539 538
f 537 604 605
f 537 605 539
f 539 605 606
f 539 606 540
f 540 606 541
f 541 606 546
f 541 546 543
f 541 543 542
f 545 553 547
f 545 546 553
f 546 606 607
f 546 607 553
f 547 553 552
f 548 550 608
f 548 608 609
f 548 609 549
f 549 610 557
f 549 609 610
f 550 551 611
f 550 611 608
f 551 555 612
f 551 612 613
f 551 613 611
f 553 607 554
f 554 612 555
f 554 607 614
f 554 614 612
f 556 557 615
f 556 615 558
f 557 610 615
f 558 615 616
f 558 616 617
f 558 617 559
f 559 617 594
f 559 594 560
f 560 592 562
f 560 594 592
f 561 563 591
f 564 568 597
f 565 570 618
f 565 618 619
f 565 619 566
f 566 619 620
f 566 620 621
f 566 621 622
f 566 622 623
f 566 623 567
f 567 623 598
f 567 598 568
f 568 598 597
f 569 581 571
f 570 572 618
f 571 581 624
f 571 624 573
f 572 575 625
f 572 625 618
f 573 624 574
f 574 626 575
f 574 624 627
f 574 627 628
f 574 628 629
f 574 629 630
f 574 630 626
f 575 626 625
f 580 596 624
f 580 624 581
f 582 584 631
f 582 631 632
f 582 632 633
f 582 633 583
f 583 633 585
f 584 593 631
f 585 633 634
f 585 634 635
f 585 635 586
f 586 635 587
f 587 629 588
f 587 635 629
f 588 629 589
f 589 629 628
f 589 628 595
f 593 594 617
f 593 617 636
f 593 636 631
f 595 628 627
f 595 627 596
f 596 627 624
f 598 623 599
f 599 623 637
f 599 637 600
f 600 637 638
f 600 638 601
f 601 638 639
f 601 639 602
f 602 639 640
f 602 640 613
f 602 613 612
f 602 612 603
f 603 612 604
f 604 612 614
f 604 614 605
f 605 614 607
f 605 607 606
f 608 611 641
f 608 641 642
f 608 642 609
f 609 642 610
f 610 643 615
f 610 642 644
f 610 644 643
f 611 613 640
f 611 640 641
f 615 643 645
f 615 645 616
f 616 645 617
f 617 645 636
f 618 625 619
f 619 625 646
f 619 646 620
f 620 646 647
f 620 647 621
f 621 647 648
f 621 648 649
f 621 649 650
f 621 650 651
f 621 651 622
f 622 651 637
f 622 637 623
f 625 626 646
f 626 630 652
f 626 652 646
f 629 653 630
f 629 635 653
f 630 653 652
f 631 636 645
f 631 645 654
f 631 654 655
f 631 655 632
f 632 655 633
f 633 655 656
f 633 656 634
f 634 656 657
f 634 657 635
f 635 657 658
f 635 658 653
f 637 651 638
f 638 651 659
f 638 659 639
f 639 659 660
f 639 660 640
f 640 660 641
f 641 660 661
f 641 661 642
f 642 662 644
f 642 661 662
f 643 644 662
f 643 662 663
f 643 663 654
f 643 654 645
f 646 652 647
f 647 652 664
f 647 664 648
f 648 664 665
f 648 665 649
f 649 665 666
f 649 666 667
f 649 667 668
f 649 668 650
f 650 668 651
f 651 668 659
f 652 653 664
f 653 658 664
f 654 663 655
f 655 669 656
f 655 663 669
f 656 666 657
f 656 669 666
f 657 666 665
f 657 665 658
f 658 665 664
f 659 668 660
f 660 668 661
f 661 668 662
f 662 669 663
f 662 668 667
f 662 667 669
f 666 669 667
