v -0.34814277 -0.02722549 -0.60460675
v -0.34814277 -0.02722549 -0.82968599
v 0.00019827 -0.02722549 -0.69606376
v 0.00019827 0.38193601 -0.87905693
v 0.00019827 0.39193889 -0.88384753
v -0.34814277 0.39184320 -0.81222606
v -0.33225328 -0.02722549 -0.83649582
v -0.34814277 -0.01262796 -0.83736682
v -0.33767480 -0.01813194 -0.83902967
v 0.00019827 -0.02722549 -0.90107000
v 0.00019827 0.40998238 -0.89378512
v -0.34814277 0.39208248 -0.81234479
v -0.32434267 -0.02334876 -0.84172189
v -0.32175124 -0.02722549 -0.84069252
v -0.34814277 -0.00372587 -0.84188026
v -0.34565365 -0.00482666 -0.84239495
v -0.33061659 -0.01085712 -0.84548312
v -0.00505276 -0.02722549 -0.90107000
v 0.00019827 -0.02473673 -0.90225774
v 0.00019827 0.41515136 -0.89691281
v -0.34814277 0.41079605 -0.82343048
v -0.30940789 -0.00908627 -0.85462880
v -0.30927151 -0.02722549 -0.84544355
v -0.31554547 -0.02722549 -0.84306800
v -0.34814277 0.00096449 -0.84409744
v -0.33020744 0.01010589 -0.85573739
v -0.31568187 0.00350110 -0.85835046
v -0.01003100 -0.02722549 -0.90103042
v -0.01003100 -0.02468887 -0.90225774
v -0.01003100 -0.00999562 -0.90910709
v 0.00019827 -0.01750976 -0.90562302
v 0.00019827 0.42008102 -0.89992183
v -0.34814277 0.42592001 -0.83467460
v -0.28997228 -0.01616965 -0.85811293
v -0.30234969 -0.00181143 -0.86084473
v -0.28997228 -0.02722549 -0.85245126
v -0.34814277 0.00881365 -0.84777945
v -0.33702695 0.02269326 -0.85882556
v -0.32369480 0.01685426 -0.86143863
v -0.30940789 0.01010589 -0.86377454
v -0.02428380 -0.02722549 -0.90071368
v -0.03001219 -0.02421026 -0.90202022
v 0.00019827 -0.00999562 -0.90910709
v -0.03001219 -0.00999562 -0.90863204
v -0.03001219 0.00800002 -0.91658998
v -0.01003100 0.00747354 -0.91682750
v 0.00019827 -0.00142854 -0.91290796
v 0.00019827 0.42515427 -0.90439570
v 0.00019827 0.43008393 -0.90875077
v 0.00019827 0.44104403 -0.91872793
v -0.34814277 0.42663795 -0.83534765
v -0.27964070 -0.01975921 -0.85985494
v -0.28997228 -0.00616676 -0.86298269
v -0.28997228 0.01001017 -0.87062389
v -0.27415100 -0.02722549 -0.85783577
v -0.34814277 0.02733576 -0.85621250
v -0.34814277 0.02838869 -0.85668761
v -0.34418744 0.03599855 -0.86175537
v -0.33020744 0.02963307 -0.86452675
v -0.30831677 0.03173895 -0.87383085
v -0.30050844 0.03958811 -0.88016552
v -0.28997228 0.02542132 -0.87763166
v -0.03001219 -0.02722549 -0.90055531
v -0.05002748 -0.02339663 -0.90162426
v -0.05002748 -0.00999562 -0.90784019
v -0.05002748 0.00895724 -0.91619402
v -0.03001219 0.01800291 -0.92082626
v 0.00019827 0.00747354 -0.91682750
v -0.01003100 0.01747644 -0.92106384
v 0.00019827 0.44846243 -0.92997199
v -0.34814277 0.44405925 -0.85411412
v -0.34814277 0.43688014 -0.84504759
v -0.34814277 0.43577933 -0.84397864
v -0.27176416 -0.01186219 -0.86630839
v -0.26630855 -0.02401882 -0.86203247
v -0.27118450 0.00977087 -0.87680024
v -0.27865186 0.02101813 -0.87953204
v -0.26368302 -0.02722549 -0.86124063
v -0.34814277 0.03202611 -0.85831088
v -0.34814277 0.03796084 -0.86092395
v -0.34814277 0.04973459 -0.86579370
v -0.32867306 0.05136184 -0.87434554
v -0.31384060 0.04557070 -0.87767124
v -0.28997228 0.03542422 -0.88198674
v -0.32117158 0.05892386 -0.88044268
v -0.30831677 0.05136184 -0.88210553
v -0.28997228 0.05002175 -0.88804430
v -0.05002748 -0.02722549 -0.89976346
v -0.07000868 -0.02210440 -0.90099078
v -0.07000868 -0.02722549 -0.89853609
v -0.07000868 -0.00999562 -0.90657324
v -0.06908804 0.01182887 -0.91623366
v -0.06179116 0.01972590 -0.92011362
v -0.05002748 0.01896013 -0.92043036
v -0.03001219 0.03001596 -0.92561686
v 0.00019827 0.01747644 -0.92106384
v -0.01003100 0.03001596 -0.92605239
v 0.00019827 0.03001596 -0.92609197
v -0.34814277 0.44477716 -0.85526228
v 0.00019827 0.45300922 -0.93919688
v -0.34814277 0.45276991 -0.86999047
v -0.24919155 -0.00870338 -0.87482065
v -0.25532913 0.00297464 -0.87862146
v -0.26528561 0.01627992 -0.88167000
v -0.27118450 0.02862799 -0.88519371
v -0.24922565 -0.02722549 -0.86559576
v -0.34814277 0.07122406 -0.87438512
v -0.33450374 0.06567222 -0.87782961
v -0.26910454 0.05117041 -0.89528960
v -0.32867306 0.07141550 -0.88226390
v -0.30998755 0.07002755 -0.88879651
v -0.28973359 0.07045829 -0.89608145
v -0.27517390 0.06404495 -0.89849651
v -0.08439786 -0.02086002 -0.90039694
v -0.07628264 -0.02722549 -0.89802140
v -0.09063772 -0.01167075 -0.90403938
v -0.09002396 0.01001017 -0.91369975
v -0.07512332 0.02092242 -0.91963851
v -0.06908804 0.02858014 -0.92308301
v -0.05002748 0.03001596 -0.92482507
v -0.03001219 0.05002175 -0.93329769
v -0.01003100 0.05002175 -0.93373322
v 0.00019827 0.05002175 -0.93377280
v 0.00019827 0.45736456 -0.94806540
v -0.34814277 0.45353568 -0.87165332
v -0.22999460 -0.01454239 -0.87735450
v -0.24199694 -0.00118925 -0.88056147
v -0.24919155 0.00977087 -0.88349122
v -0.24997580 0.03001596 -0.89216185
v -0.24997580 0.04442205 -0.89821935
v -0.22999460 -0.02722549 -0.87101984
v -0.34814277 0.07184625 -0.87462270
v -0.34091407 0.07897750 -0.88036346
v -0.26184177 0.05858882 -0.90055531
v -0.32996875 0.09003334 -0.88855898
v -0.30971479 0.09022477 -0.89620018
v -0.29624623 0.08371571 -0.89873409
v -0.28291407 0.07739809 -0.90095121
v -0.26910454 0.07045829 -0.90273285
v -0.09773003 -0.01947205 -0.89976346
v -0.08958070 -0.02722549 -0.89683366
v -0.11000516 -0.00793761 -0.90360385
v -0.11000516 0.01001017 -0.91152221
v -0.09002396 0.02254969 -0.91896546
v -0.09002396 0.03255259 -0.92292464
v -0.07000868 0.05002175 -0.93127853
v -0.05002748 0.05002175 -0.93250585
v -0.03001219 0.06418853 -0.93852377
v -0.01003100 0.06356634 -0.93872178
v 0.00019827 0.06356634 -0.93872178
v -0.34814277 0.45870465 -0.88499570
v 0.00019827 0.46057123 -0.95804256
v -0.21635556 -0.01817980 -0.87909657
v -0.22999460 -0.00453950 -0.88214511
v -0.22999460 0.01001017 -0.88879651
v -0.23139261 0.03001596 -0.89715040
v -0.23896226 0.04064104 -0.89972389
v -0.24997580 0.05442494 -0.90221816
v -0.21083175 -0.02722549 -0.87588960
v -0.34814277 0.08314139 -0.87885898
v -0.34814277 0.09156488 -0.88190758
v -0.24997580 0.07002755 -0.90807772
v -0.34814277 0.10817255 -0.88760877
v -0.32925272 0.11051773 -0.89580429
v -0.31619334 0.10420011 -0.89861530
v -0.30286115 0.09702100 -0.90099078
v -0.28973359 0.09022477 -0.90308917
v -0.26999110 0.09003334 -0.90930510
v -0.11000516 -0.01794051 -0.89901119
v -0.09169475 -0.02722549 -0.89659613
v -0.11000516 -0.02722549 -0.89449775
v -0.13002044 -0.00501810 -0.90229732
v -0.13002044 0.01001017 -0.90890914
v -0.11000516 0.02522989 -0.91789651
v -0.11000516 0.03523278 -0.92189527
v -0.09002396 0.05002175 -0.92961568
v -0.07000868 0.06710804 -0.93749440
v -0.05002748 0.06533718 -0.93812788
v -0.03001219 0.07419142 -0.94200790
v -0.01003100 0.07356924 -0.94224542
v 0.00019827 0.06844814 -0.94046378
v -0.34814277 0.45894396 -0.88594592
v 0.00019827 0.46104980 -0.96413970
v -0.34814277 0.46109766 -0.89612103
v -0.34814277 0.46100193 -0.89501244
v -0.20980883 -0.01090498 -0.88412470
v -0.20302340 -0.02143434 -0.88071978
v -0.20830853 -0.02722549 -0.87652308
v -0.21396872 0.02331546 -0.89861530
v -0.20837672 0.01182887 -0.89485407
v -0.22563010 0.03666860 -0.90138674
v -0.23139261 0.04839449 -0.90467286
v -0.22999460 0.07002755 -0.91322464
v -0.24881648 0.09137343 -0.91583771
v -0.22999460 0.08476865 -0.91841120
v -0.34814277 0.11008698 -0.88824224
v -0.33545846 0.12545028 -0.89829856
v -0.32212630 0.11755326 -0.90079284
v -0.30971479 0.11051773 -0.90293080
v -0.28997228 0.11003912 -0.90942383
v -0.26920682 0.11080489 -0.91619402
v -0.25468126 0.10467872 -0.91852999
v -0.11372180 -0.02722549 -0.89402264
v -0.13002044 -0.01502100 -0.89766508
v -0.14614861 -0.00229004 -0.90103042
v -0.15170652 0.00814360 -0.90467286
v -0.15000165 0.03001596 -0.91417485
v -0.13189581 0.03068601 -0.91726303
v -0.12647429 0.03781725 -0.92086589
v -0.11000516 0.05002175 -0.92755687
v -0.09094460 0.07127193 -0.93725687
v -0.08490933 0.07878606 -0.94042420
v -0.07000868 0.07711093 -0.94101810
v -0.05002748 0.07534008 -0.94161195
v -0.03001219 0.09003334 -0.94735277
v -0.01003100 0.09003334 -0.94778830
v 0.00019827 0.08160985 -0.94497728
v 0.00019827 0.07356924 -0.94224542
v 0.00019827 0.46148056 -0.96999925
v -0.32996875 0.46157628 -0.90997815
v -0.34814277 0.46128911 -0.91144305
v -0.18999812 -0.00999562 -0.88899451
v -0.18999812 0.00713852 -0.89687324
v -0.18999812 -0.02425812 -0.88210553
v -0.18999812 -0.02722549 -0.88064063
v -0.19715862 -0.02722549 -0.87909657
v -0.20063657 0.01967804 -0.90011978
v -0.20837672 0.03001596 -0.90265363
v -0.20997931 0.05002175 -0.91033447
v -0.21881059 0.08079621 -0.91971773
v -0.21127501 0.06997968 -0.91754019
v -0.24134910 0.09888757 -0.92035115
v -0.22999460 0.09477155 -0.92169732
v -0.34814277 0.13081068 -0.89497286
v -0.34094816 0.13880342 -0.90035731
v -0.32925272 0.13128930 -0.90237653
v -0.30998755 0.13004491 -0.90890914
v -0.28911984 0.13081068 -0.91611487
v -0.27534440 0.12468451 -0.91856956
v -0.26201224 0.11803187 -0.92058873
v -0.24881648 0.11080489 -0.92201406
v -0.13002044 -0.02722549 -0.89176589
v -0.13291875 -0.02722549 -0.89129078
v -0.15024032 -0.02722549 -0.88844019
v -0.15170652 -0.00937343 -0.89675450
v -0.15948077 0.00024658 -0.89988220
v -0.17001693 0.01254679 -0.90320796
v -0.17001693 0.03001596 -0.91057199
v -0.15000165 0.04231617 -0.91908425
v -0.13980645 0.04011458 -0.91995525
v -0.13189581 0.04805946 -0.92403322
v -0.13002044 0.07002755 -0.93230790
v -0.11000516 0.07002755 -0.93480217
v -0.09824149 0.08050904 -0.93983030
v -0.09094460 0.08831035 -0.94307685
v -0.07000868 0.09003334 -0.94533360
v -0.05002748 0.09003334 -0.94656092
v -0.03001219 0.11003912 -0.95376664
v -0.01003100 0.11003912 -0.95416254
v 0.00019827 0.09984478 -0.95091605
v 0.00019827 0.09003334 -0.94778830
v -0.03001219 0.46152842 -0.96999925
v -0.26999110 0.46171987 -0.92997199
v 0.00019827 0.46119338 -0.97617561
v -0.28997228 0.46152842 -0.92997199
v -0.32996875 0.46109766 -0.92351854
v -0.34814277 0.46119338 -0.91362059
v -0.17001693 -0.00999562 -0.89303285
v -0.18645197 -0.02722549 -0.88139284
v -0.17001693 0.00254390 -0.89885283
v -0.18999812 0.01714142 -0.90122837
v -0.18999812 0.03001596 -0.90661281
v -0.18846373 0.05179259 -0.91556060
v -0.19412392 0.06327918 -0.91880709
v -0.21127501 0.08850178 -0.92395401
v -0.20547843 0.07658446 -0.92118263
v -0.22999460 0.13004491 -0.93258506
v -0.22999460 0.11003912 -0.92652750
v -0.20997931 0.11003912 -0.93119931
v -0.34814277 0.14449885 -0.89920914
v -0.34514219 0.15000284 -0.90202022
v -0.32996875 0.15000284 -0.90772140
v -0.30869186 0.15119937 -0.91563976
v -0.29522330 0.14526463 -0.91849035
v -0.28189114 0.13803765 -0.92058873
v -0.26920682 0.13081068 -0.92225158
v -0.24997580 0.15000284 -0.93325812
v -0.24997580 0.13004491 -0.92747772
v -0.15279764 -0.02722549 -0.88796508
v -0.17001693 0.04695867 -0.91730261
v -0.17001693 0.05696155 -0.92114300
v -0.15000165 0.05231906 -0.92288506
v -0.15000165 0.07002755 -0.92933851
v -0.14949018 0.09127772 -0.93674219
v -0.14250016 0.09883971 -0.94038463
v -0.13002044 0.08625233 -0.93789035
v -0.11000516 0.08247134 -0.93915725
v -0.11000516 0.09247423 -0.94248295
v -0.11000516 0.11003912 -0.94810504
v -0.09002396 0.11003912 -0.95012420
v -0.07000868 0.11003912 -0.95174748
v -0.05002748 0.11003912 -0.95297480
v -0.05002748 0.12669466 -0.95804256
v -0.03001219 0.12540242 -0.95839888
v -0.01003100 0.12473237 -0.95859683
v 0.00019827 0.11721823 -0.95634007
v 0.00019827 0.11003912 -0.95416254
v -0.05002748 0.46152842 -0.96999925
v 0.00019827 0.46090624 -0.98215395
v -0.18999812 0.46157628 -0.94996583
v -0.20997931 0.46152842 -0.94996583
v -0.24997580 0.46128911 -0.94576907
v -0.26999110 0.46114552 -0.94327486
v -0.28997228 0.46052337 -0.94117647
v -0.34609693 0.46061906 -0.92145973
v -0.34814277 0.46081051 -0.91789651
v -0.16865303 -0.02722549 -0.88495612
v -0.17189230 -0.02722549 -0.88432264
v -0.18079177 0.05959390 -0.92015320
v -0.18846373 0.06997968 -0.92233074
v -0.18999812 0.09003334 -0.92894262
v -0.23101753 0.14942852 -0.93796951
v -0.21707161 0.14239299 -0.93931568
v -0.21021800 0.13028422 -0.93729645
v -0.20373945 0.13717616 -0.94082010
v -0.19415803 0.12382302 -0.93884051
v -0.18849783 0.11171425 -0.93622750
v -0.34814277 0.15000284 -0.90083241
v -0.34814277 0.15234801 -0.90150547
v -0.34814277 0.15871349 -0.90332669
v -0.34814277 0.16885997 -0.90621692
v -0.32996875 0.17000863 -0.91346222
v -0.31578416 0.17000863 -0.91852999
v -0.30115628 0.15861778 -0.92039078
v -0.28911984 0.15119937 -0.92205364
v -0.26999110 0.15000284 -0.92755687
v -0.25106692 0.16890784 -0.93816745
v -0.23834851 0.16148943 -0.93959278
v -0.17001693 0.07002755 -0.92585444
v -0.17001693 0.09003334 -0.93274343
v -0.15583232 0.10218996 -0.93931568
v -0.13002044 0.09625523 -0.94121605
v -0.14949018 0.10932121 -0.94256216
v -0.13002044 0.13004491 -0.95170784
v -0.13002044 0.11003912 -0.94561076
v -0.11000516 0.13004491 -0.95416254
v -0.08804630 0.13200721 -0.95693398
v -0.07000868 0.12875268 -0.95740908
v -0.07000868 0.13875556 -0.96033889
v -0.05002748 0.13669756 -0.96093273
v -0.03001219 0.13540532 -0.96132869
v 0.00019827 0.12473237 -0.95859683
v -0.01003100 0.13473526 -0.96152663
v -0.07000868 0.46148056 -0.96999925
v -0.01003100 0.46090624 -0.98215395
v -0.03001219 0.46090624 -0.98203516
v 0.00019827 0.45760384 -0.98726130
v -0.01003100 0.45449290 -0.99217069
v -0.09002396 0.46138483 -0.96999925
v -0.17001693 0.46119338 -0.96394169
v -0.18999812 0.46100193 -0.96259558
v -0.20997931 0.46061906 -0.96128905
v -0.22273181 0.46023619 -0.96041805
v -0.30040616 0.46004474 -0.94010746
v -0.32996875 0.45631158 -0.93349564
v -0.34814277 0.45248276 -0.93115973
v -0.34814277 0.45779529 -0.92427075
v -0.17001693 0.10625812 -0.93804872
v -0.22501636 0.15569827 -0.94121605
v -0.21021800 0.14942852 -0.94287890
v -0.18849783 0.13028422 -0.94188911
v -0.18999812 0.15000284 -0.94731319
v -0.18082586 0.11946769 -0.94014704
v -0.34814277 0.18982299 -0.91203690
v -0.33088940 0.18810000 -0.91809446
v -0.31987587 0.18015511 -0.91995525
v -0.30579355 0.17000863 -0.92193484
v -0.28997228 0.19001442 -0.93234748
v -0.28997228 0.17000863 -0.92700261
v -0.26999110 0.17000863 -0.93306017
v -0.25846609 0.18159093 -0.93955320
v -0.24513394 0.17484257 -0.94137442
v -0.22999460 0.19001442 -0.94913441
v -0.23101753 0.16890784 -0.94335401
v -0.17001693 0.11626102 -0.94113684
v -0.17001693 0.13004491 -0.94533360
v -0.15000165 0.13004491 -0.94877809
v -0.15000165 0.15000284 -0.95455849
v -0.13046372 0.15091220 -0.95764661
v -0.11000516 0.14512104 -0.95855725
v -0.09339963 0.14205796 -0.95938867
v -0.08006747 0.13999996 -0.95998251
v -0.07000868 0.15000284 -0.96350622
v -0.05002748 0.15000284 -0.96469396
v -0.03001219 0.15000284 -0.96544623
v -0.01003100 0.15000284 -0.96584213
v 0.00019827 0.13473526 -0.96152663
v -0.05002748 0.46081051 -0.98175800
v 0.00019827 0.45444503 -0.99213105
v -0.03001219 0.45420575 -0.99201226
v 0.00019827 0.44937181 -0.99759471
v -0.01003100 0.44449002 -1.00290000
v -0.07000868 0.46066692 -0.98136210
v -0.09002396 0.46042764 -0.98084742
v -0.10475413 0.46018833 -0.98037231
v -0.11808629 0.45985329 -0.97930336
v -0.23606397 0.45951825 -0.95808214
v -0.17001693 0.45707738 -0.97391886
v -0.18999812 0.45511508 -0.97257274
v -0.18999812 0.44516003 -0.98350006
v -0.24997580 0.44841456 -0.96706951
v -0.24997580 0.45841748 -0.95574623
v -0.26999110 0.45602444 -0.95329154
v -0.26999110 0.44602156 -0.96445644
v -0.32996875 0.44630870 -0.94489807
v -0.34814277 0.45047259 -0.93345606
v -0.20997931 0.17000863 -0.94858015
v -0.18999812 0.17000863 -0.95281643
v -0.17001693 0.15000284 -0.95111400
v -0.34814277 0.20872797 -0.91702545
v -0.33815217 0.20264967 -0.91932178
v -0.32482001 0.19346040 -0.92169732
v -0.31193113 0.18810000 -0.92474586
v -0.27067304 0.18896149 -0.93792993
v -0.30998755 0.21002021 -0.93104094
v -0.28993818 0.20958947 -0.93737566
v -0.27779943 0.20264967 -0.93935525
v -0.26446727 0.19494408 -0.94129527
v -0.25106692 0.18896149 -0.94347274
v -0.20997931 0.19001442 -0.95380622
v -0.24997580 0.21002021 -0.94901562
v -0.22999460 0.21002021 -0.95408338
v -0.15000165 0.16498326 -0.95867604
v -0.13741963 0.16129798 -0.95962620
v -0.12408747 0.15813917 -0.96049726
v -0.11000516 0.15512395 -0.96132869
v -0.08804630 0.14923707 -0.96188295
v -0.07000868 0.17000863 -0.96893030
v -0.05002748 0.17000863 -0.97011805
v -0.03001219 0.17000863 -0.97087026
v 0.00019827 0.15000284 -0.96584213
v -0.01003100 0.17000863 -0.97126621
v -0.03001219 0.44420284 -1.00266242
v -0.05002748 0.45358354 -0.99177474
v 0.00019827 0.44444215 -1.00286043
v 0.00019827 0.42998821 -1.00741351
v -0.01003100 0.42998821 -1.00741351
v -0.07000868 0.45262632 -0.99137884
v -0.07000868 0.44262344 -1.00159347
v -0.13002044 0.44941965 -0.98829067
v -0.15000165 0.44846243 -0.98686540
v -0.17001693 0.44707447 -0.98528171
v -0.10137846 0.44023040 -1.00012863
v -0.20997931 0.44252771 -0.98159969
v -0.22181118 0.44066113 -0.98037231
v -0.28997228 0.44238412 -0.96160579
v -0.30026975 0.44013467 -0.96006173
v -0.34592643 0.44305417 -0.94212663
v -0.34814277 0.44583011 -0.93836546
v -0.19756779 0.20202747 -0.95950747
v -0.19054368 0.19006228 -0.95788419
v -0.17530206 0.18340965 -0.95911151
v -0.16919859 0.17120515 -0.95705277
v -0.34814277 0.21092957 -0.91757977
v -0.34261894 0.21600281 -0.92098463
v -0.33088940 0.20958947 -0.92367691
v -0.32996875 0.22997814 -0.92894262
v -0.30889642 0.23064819 -0.93634629
v -0.29658720 0.22442630 -0.93895930
v -0.28325504 0.21595494 -0.94097853
v -0.27067304 0.20958947 -0.94311643
v -0.21096814 0.20920658 -0.95828009
v -0.26999110 0.22997814 -0.94818419
v -0.24997580 0.22997814 -0.95372707
v -0.23081294 0.22902092 -0.95828009
v -0.21826503 0.22169824 -0.95958662
v -0.16200399 0.17867142 -0.96033889
v -0.15000165 0.17498615 -0.96132869
v -0.13002044 0.19001442 -0.96805930
v -0.13046372 0.16881211 -0.96251643
v -0.11000516 0.17000863 -0.96532744
v -0.09002396 0.17000863 -0.96734661
v -0.07000868 0.19001442 -0.97411680
v -0.05002748 0.19001442 -0.97530460
v -0.03001219 0.19001442 -0.97605681
v 0.00019827 0.17000863 -0.97126621
v -0.01003100 0.19001442 -0.97641313
v 0.00019827 0.17982009 -0.97380006
v -0.03001219 0.42998821 -1.00701761
v -0.05002748 0.44358063 -1.00226653
v 0.00019827 0.41979384 -1.00824499
v -0.01003100 0.40998238 -1.00907636
v -0.05002748 0.42998821 -1.00610697
v -0.09002396 0.44123548 -1.00072253
v -0.07000868 0.42998821 -1.00476086
v -0.09002396 0.42998821 -1.00293958
v -0.10881174 0.42946172 -1.00095999
v -0.11471063 0.43573147 -0.99933678
v -0.17001693 0.42998821 -0.99205190
v -0.18999812 0.42998821 -0.98848861
v -0.20997931 0.42998821 -0.98460865
v -0.22573240 0.42998821 -0.98128295
v -0.23572299 0.42998821 -0.97898662
v -0.24997580 0.42998821 -0.97554213
v -0.26999110 0.42998821 -0.97027642
v -0.28997228 0.42998821 -0.96457517
v -0.30245200 0.42998821 -0.96077436
v -0.31244260 0.42998821 -0.95736951
v -0.32996875 0.42998821 -0.95131195
v -0.34814277 0.43070608 -0.94473970
v -0.34814277 0.43831596 -0.94264138
v -0.20493287 0.21533276 -0.96109110
v -0.19054368 0.20920658 -0.96259558
v -0.18423563 0.19676279 -0.96081400
v -0.16919859 0.19006228 -0.96192253
v -0.34814277 0.22031027 -0.91991568
v -0.34814277 0.23174900 -0.92264748
v -0.34814277 0.24998394 -0.92676502
v -0.32996875 0.24998394 -0.93345606
v -0.31554547 0.24998394 -0.93848419
v -0.30153137 0.23777945 -0.94050336
v -0.28993818 0.23064819 -0.94240379
v -0.28997228 0.24998394 -0.94671929
v -0.26999110 0.24998394 -0.95261848
v -0.25014627 0.24931389 -0.95788419
v -0.23800755 0.24218264 -0.95950747
v -0.22467537 0.23500353 -0.96109110
v -0.21096814 0.22902092 -0.96287274
v -0.15000165 0.19001442 -0.96516907
v -0.11000516 0.19001442 -0.97051394
v -0.13002044 0.21002021 -0.97292906
v -0.09002396 0.19001442 -0.97253311
v -0.07000868 0.20714857 -0.97831357
v -0.05002748 0.20465982 -0.97890741
v -0.03001219 0.20303255 -0.97926372
v -0.01003100 0.20221892 -0.97946167
v 0.00019827 0.19001442 -0.97641313
v 0.00019827 0.19599701 -0.97791761
v -0.03001219 0.40998238 -1.00860119
v 0.00019827 0.40998238 -1.00903678
v 0.00019827 0.39978808 -1.00875962
v 0.00019827 0.38997662 -1.00848246
v -0.01003100 0.38997662 -1.00848246
v -0.03001219 0.38997662 -1.00804698
v -0.05002748 0.40998238 -1.00769067
v -0.07000868 0.40998238 -1.00630498
v -0.09002396 0.40998238 -1.00444412
v -0.12251897 0.42242619 -1.00032663
v -0.12950899 0.42946172 -0.99830741
v -0.15000165 0.42998821 -0.99525881
v -0.17001693 0.40998238 -0.99347723
v -0.18999812 0.40998238 -0.98987436
v -0.20997931 0.40998238 -0.98591518
v -0.22852841 0.40998238 -0.98191643
v -0.23851900 0.40998238 -0.97965968
v -0.24997580 0.40998238 -0.97680902
v -0.26999110 0.40998238 -0.97154331
v -0.28997228 0.40998238 -0.96580255
v -0.30425918 0.40998238 -0.96140784
v -0.31424975 0.40998238 -0.95808214
v -0.32996875 0.40998238 -0.95261848
v -0.34814277 0.40998238 -0.94604623
v -0.18999812 0.22997814 -0.96746540
v -0.17001693 0.21002021 -0.96663398
v -0.15000165 0.21002021 -0.97003889
v -0.34814277 0.26984614 -0.93084300
v -0.32969597 0.26879323 -0.93741524
v -0.31919390 0.26137480 -0.93971157
v -0.30555487 0.24998394 -0.94180989
v -0.28997228 0.26998973 -0.95071805
v -0.26889995 0.27056405 -0.95701313
v -0.25689760 0.26429430 -0.95919073
v -0.24356544 0.25553578 -0.96089315
v -0.23081294 0.24931389 -0.96271437
v -0.20997931 0.24998394 -0.96758413
v -0.11000516 0.21002021 -0.97534418
v -0.15000165 0.22997814 -0.97459191
v -0.12957717 0.23103109 -0.97775924
v -0.12262127 0.23840164 -0.98033273
v -0.11000516 0.22514421 -0.97882825
v -0.08944431 0.21145603 -0.97775924
v -0.08242020 0.21901804 -0.98021394
v -0.07000868 0.21715146 -0.98064947
v -0.05002748 0.21466270 -0.98124331
v -0.03001219 0.21298759 -0.98163927
v 0.00019827 0.20221892 -0.97946167
v -0.01003100 0.21222182 -0.98179764
v 0.00019827 0.20710070 -0.98060989
v -0.05002748 0.38997662 -1.00717592
v 0.00019827 0.37978226 -1.00780940
v -0.01003100 0.36997080 -1.00709677
v -0.03001219 0.36997080 -1.00670087
v -0.05002748 0.36997080 -1.00586939
v -0.07000868 0.38997662 -1.00582981
v -0.09002396 0.38997662 -1.00400865
v -0.11000516 0.40998238 -1.00218737
v -0.11000516 0.38997662 -1.00179148
v -0.12378059 0.40998238 -1.00048494
v -0.13380527 0.40998238 -0.99913883
v -0.15000165 0.40998238 -0.99672371
v -0.17001693 0.38997662 -0.99304169
v -0.18999812 0.38997662 -0.98939925
v -0.20997931 0.38997662 -0.98540044
v -0.22723269 0.38997662 -0.98163927
v -0.23725739 0.38997662 -0.97934294
v -0.24997580 0.38997662 -0.97621518
v -0.26999110 0.38997662 -0.97090989
v -0.28997228 0.38997662 -0.96512949
v -0.30327034 0.38997662 -0.96105152
v -0.31326091 0.38997662 -0.95776540
v -0.32996875 0.38997662 -0.95198500
v -0.34814277 0.40811583 -0.94600666
v -0.17001693 0.22997814 -0.97118700
v -0.18999812 0.24998394 -0.97170174
v -0.17001693 0.24998394 -0.97546291
v -0.34814277 0.28999552 -0.93452501
v -0.33668599 0.28999552 -0.93880093
v -0.32280827 0.27468008 -0.94097853
v -0.31152195 0.26879323 -0.94367075
v -0.30998755 0.28999552 -0.94798625
v -0.28997228 0.28999552 -0.95428133
v -0.27520800 0.28999552 -0.95863640
v -0.26150078 0.27764744 -0.96041805
v -0.25014627 0.27056405 -0.96208090
v -0.22999460 0.26998973 -0.96695071
v -0.20997931 0.26998973 -0.97146416
v -0.09575237 0.22174610 -0.97958046
v -0.15112686 0.24955319 -0.97855109
v -0.13595343 0.24261338 -0.97942209
v -0.11000516 0.23514710 -0.98104537
v -0.12957717 0.24955319 -0.98167884
v -0.11000516 0.24998394 -0.98417312
v -0.08944431 0.22902092 -0.98175800
v -0.09002396 0.24998394 -0.98619229
v -0.07000868 0.22997814 -0.98353964
v -0.05002748 0.22997814 -0.98472738
v -0.03001219 0.22997814 -0.98547965
v -0.01003100 0.22997814 -0.98583597
v 0.00019827 0.22088461 -0.98377723
v 0.00019827 0.21222182 -0.98179764
v -0.07000868 0.36997080 -1.00456285
v 0.00019827 0.36997080 -1.00709677
v -0.01003100 0.34996504 -1.00523591
v -0.03001219 0.34996504 -1.00484002
v -0.05002748 0.34996504 -1.00404823
v -0.07000868 0.34996504 -1.00278127
v -0.09002396 0.36997080 -1.00278127
v -0.10986876 0.37135878 -1.00076210
v -0.12054132 0.37896866 -1.00004947
v -0.12231439 0.38997662 -1.00028694
v -0.13230498 0.38997662 -0.99890125
v -0.15000165 0.38997662 -0.99628818
v -0.15000165 0.36997080 -0.99514008
v -0.17001693 0.36997080 -0.99185395
v -0.18999812 0.36997080 -0.98821151
v -0.20997931 0.36997080 -0.98417312
v -0.22453898 0.36997080 -0.98104537
v -0.23456368 0.36997080 -0.97870946
v -0.24997580 0.36997080 -0.97490865
v -0.26999110 0.36997080 -0.96960336
v -0.28997228 0.36997080 -0.96386254
v -0.30136088 0.36997080 -0.96041805
v -0.31135148 0.36997080 -0.95713192
v -0.32996875 0.36997080 -0.95079726
v -0.34814277 0.38997662 -0.94541276
v -0.18999812 0.26998973 -0.97558171
v -0.17127854 0.26874536 -0.97886783
v -0.15852603 0.26127908 -0.97973883
v -0.34814277 0.30727324 -0.93729645
v -0.33937967 0.30143422 -0.93979073
v -0.32666129 0.28999552 -0.94232464
v -0.30998755 0.30995345 -0.95111400
v -0.28915393 0.30947483 -0.95752788
v -0.27875417 0.30248716 -0.95962620
v -0.26521742 0.28999552 -0.96144748
v -0.24997580 0.28999552 -0.96552539
v -0.22999460 0.28999552 -0.97039521
v -0.20997931 0.28999552 -0.97490865
v -0.14519387 0.25596654 -0.98080784
v -0.13002044 0.26998973 -0.98555887
v -0.11000516 0.26998973 -0.98801351
v -0.09002396 0.26998973 -0.99003267
v -0.07000868 0.24998394 -0.98777598
v -0.05002748 0.24998394 -0.98896372
v -0.03001219 0.24998394 -0.98971599
v 0.00019827 0.22997814 -0.98583597
v -0.01003100 0.24998394 -0.99007231
v 0.00019827 0.23978961 -0.98793435
v -0.09033085 0.34967786 -1.00103927
v 0.00019827 0.34996504 -1.00523591
v -0.01003100 0.32995924 -1.00301886
v -0.03001219 0.32995924 -1.00262284
v -0.05002748 0.32995924 -1.00183105
v -0.06076823 0.31957346 -1.00004947
v -0.06847429 0.33010283 -1.00072253
v -0.08388640 0.33685118 -1.00032663
v -0.10311744 0.35613906 -1.00032663
v -0.11644960 0.36561549 -0.99957430
v -0.12834966 0.37135878 -0.99842620
v -0.15000165 0.34996504 -0.99355638
v -0.17001693 0.34996504 -0.99023068
v -0.18999812 0.34996504 -0.98654866
v -0.21147960 0.34910354 -0.98211437
v -0.22191347 0.35522971 -0.98041189
v -0.22914216 0.34910354 -0.97815520
v -0.24997580 0.34996504 -0.97320622
v -0.26999110 0.34996504 -0.96786129
v -0.29079062 0.35168803 -0.96204132
v -0.30013335 0.35948932 -0.96002215
v -0.30807811 0.35168803 -0.95665681
v -0.32996875 0.34996504 -0.94909483
v -0.34814277 0.34996504 -0.94256216
v -0.34814277 0.35331529 -0.94283932
v -0.34814277 0.37044942 -0.94422501
v -0.19061187 0.28879899 -0.97866988
v -0.17874591 0.28133273 -0.97977841
v -0.16544785 0.27458435 -0.98096621
v -0.15112686 0.26874536 -0.98227274
v -0.34814277 0.30803901 -0.93741524
v -0.34197110 0.31473953 -0.94074094
v -0.33163953 0.30885264 -0.94355196
v -0.32996875 0.32995924 -0.94695687
v -0.30998755 0.32995924 -0.95372707
v -0.29495052 0.32995924 -0.95847809
v -0.28195935 0.31579244 -0.96057642
v -0.27125269 0.30947483 -0.96271437
v -0.24997580 0.30995345 -0.96853435
v -0.22999460 0.30995345 -0.97340417
v -0.20929736 0.30990559 -0.97803640
v -0.19770418 0.30320507 -0.97954088
v -0.15000165 0.28999552 -0.98607349
v -0.13002044 0.28999552 -0.98896372
v -0.11000516 0.28999552 -0.99141842
v -0.09002396 0.28999552 -0.99347723
v -0.07000868 0.26998973 -0.99161637
v -0.05002748 0.26998973 -0.99280411
v -0.03001219 0.26998973 -0.99355638
v -0.01003100 0.26998973 -0.99395227
v 0.00019827 0.24998394 -0.99007231
v -0.09721856 0.34283376 -0.99973267
v 0.00019827 0.32995924 -1.00301886
v 0.00019827 0.32153577 -1.00194979
v -0.01003100 0.31344730 -1.00088084
v -0.03001219 0.31483525 -1.00068283
v -0.05002748 0.31756330 -1.00032663
v -0.07410039 0.32354590 -0.99957430
v -0.05002748 0.30756041 -0.99894083
v -0.06847429 0.31172431 -0.99842620
v -0.09033085 0.33010283 -0.99894083
v -0.10986876 0.34967786 -0.99894083
v -0.13002044 0.34996504 -0.99644661
v -0.15000165 0.32995924 -0.99153721
v -0.17001693 0.32995924 -0.98817188
v -0.18999812 0.32995924 -0.98445028
v -0.20598990 0.32995924 -0.98124331
v -0.21911746 0.34187657 -0.97981805
v -0.22999460 0.32995924 -0.97593802
v -0.24997580 0.32995924 -0.97106826
v -0.26999110 0.32995924 -0.96572334
v -0.28495991 0.32995924 -0.96144748
v -0.29798520 0.34618402 -0.95938867
v -0.34456253 0.32995924 -0.94169116
v -0.34814277 0.33551109 -0.94097853
v -0.18437202 0.29468587 -0.98084742
v -0.17127854 0.28879899 -0.98231232
v -0.34814277 0.30971414 -0.93765277
v -0.34814277 0.32220578 -0.93935525
v -0.34814277 0.32995924 -0.94034505
v -0.21598049 0.32995924 -0.97910535
v -0.20217097 0.31655824 -0.98045146
v -0.19061187 0.30990559 -0.98183721
v -0.17001693 0.30995345 -0.98567760
v -0.15000165 0.30995345 -0.98904288
v -0.13002044 0.30995345 -0.99193311
v -0.11000516 0.30995345 -0.99438781
v -0.09002396 0.30995345 -0.99644661
v -0.07000868 0.28999552 -0.99506086
v -0.05002748 0.28999552 -0.99624860
v -0.03001219 0.28999552 -0.99700087
v -0.01003100 0.28999552 -0.99739677
v 0.00019827 0.27980119 -0.99565476
v 0.00019827 0.26998973 -0.99395227
v -0.11000516 0.32995924 -0.99688208
v 0.00019827 0.31339943 -1.00088084
v -0.01003100 0.30344439 -0.99949515
v -0.03001219 0.30483234 -0.99929720
v -0.13002044 0.32995924 -0.99442738
v 0.00019827 0.29655245 -0.99842620
v 0.00019827 0.28999552 -0.99739677
v 0.00019827 0.30344439 -0.99949515
f 1 2 7
f 1 7 14
f 1 14 24
f 1 24 23
f 1 23 36
f 1 36 55
f 1 55 78
f 1 78 106
f 1 106 131
f 1 131 159
f 1 159 188
f 1 188 226
f 1 226 225
f 1 225 269
f 1 269 318
f 1 318 317
f 1 317 289
f 1 289 244
f 1 244 243
f 1 243 242
f 1 242 203
f 1 203 171
f 1 171 170
f 1 170 141
f 1 141 115
f 1 115 90
f 1 90 88
f 1 88 63
f 1 63 41
f 1 41 28
f 1 28 18
f 1 18 10
f 1 10 3
f 1 3 4
f 1 4 5
f 1 5 6
f 1 6 12
f 1 12 21
f 1 21 33
f 1 33 51
f 1 51 73
f 1 73 72
f 1 72 71
f 1 71 99
f 1 99 101
f 1 101 125
f 1 125 151
f 1 151 182
f 1 182 185
f 1 185 184
f 1 184 221
f 1 221 267
f 1 267 316
f 1 316 367
f 1 367 366
f 1 366 416
f 1 416 459
f 1 459 511
f 1 511 510
f 1 510 562
f 1 562 612
f 1 612 665
f 1 665 714
f 1 714 713
f 1 713 712
f 1 712 763
f 1 763 768
f 1 768 767
f 1 767 766
f 1 766 719
f 1 719 669
f 1 669 616
f 1 616 566
f 1 566 518
f 1 518 517
f 1 517 516
f 1 516 464
f 1 464 420
f 1 420 374
f 1 374 331
f 1 331 330
f 1 330 329
f 1 329 328
f 1 328 280
f 1 280 234
f 1 234 196
f 1 196 163
f 1 163 161
f 1 161 160
f 1 160 132
f 1 132 107
f 1 107 81
f 1 81 80
f 1 80 79
f 1 79 57
f 1 57 56
f 1 56 37
f 1 37 25
f 1 25 15
f 1 15 8
f 1 8 2
f 2 8 9
f 2 9 7
f 3 10 19
f 3 19 31
f 3 31 43
f 3 43 47
f 3 47 68
f 3 68 96
f 3 96 98
f 3 98 123
f 3 123 150
f 3 150 181
f 3 181 218
f 3 218 217
f 3 217 261
f 3 261 260
f 3 260 307
f 3 307 306
f 3 306 352
f 3 352 397
f 3 397 441
f 3 441 486
f 3 486 488
f 3 488 537
f 3 537 538
f 3 538 586
f 3 586 588
f 3 588 640
f 3 640 639
f 3 639 686
f 3 686 688
f 3 688 739
f 3 739 782
f 3 782 781
f 3 781 789
f 3 789 788
f 3 788 790
f 3 790 784
f 3 784 742
f 3 742 741
f 3 741 690
f 3 690 642
f 3 642 590
f 3 590 542
f 3 542 541
f 3 541 540
f 3 540 491
f 3 491 446
f 3 446 445
f 3 445 401
f 3 401 399
f 3 399 357
f 3 357 309
f 3 309 264
f 3 264 219
f 3 219 183
f 3 183 152
f 3 152 124
f 3 124 100
f 3 100 70
f 3 70 50
f 3 50 49
f 3 49 48
f 3 48 32
f 3 32 20
f 3 20 11
f 3 11 5
f 3 5 4
f 5 11 12
f 5 12 6
f 7 9 13
f 7 13 14
f 8 15 16
f 8 16 9
f 9 16 17
f 9 17 13
f 10 18 19
f 11 20 21
f 11 21 12
f 13 17 22
f 13 22 23
f 13 23 24
f 13 24 14
f 15 25 16
f 16 25 26
f 16 26 27
f 16 27 17
f 17 27 22
f 18 28 29
f 18 29 19
f 19 29 30
f 19 30 31
f 20 32 21
f 21 32 33
f 22 34 23
f 22 27 35
f 22 35 34
f 23 34 36
f 25 37 26
f 26 38 39
f 26 39 27
f 26 37 38
f 27 39 40
f 27 40 35
f 28 41 29
f 29 42 30
f 29 41 42
f 30 43 31
f 30 42 44
f 30 44 45
f 30 45 46
f 30 46 47
f 30 47 43
f 32 48 33
f 33 48 49
f 33 49 50
f 33 50 51
f 34 52 36
f 34 35 53
f 34 53 52
f 35 40 54
f 35 54 53
f 36 52 55
f 37 56 38
f 38 56 57
f 38 57 58
f 38 58 59
f 38 59 39
f 39 59 60
f 39 60 40
f 40 60 61
f 40 61 62
f 40 62 54
f 41 63 42
f 42 64 44
f 42 63 64
f 44 64 65
f 44 65 45
f 45 66 94
f 45 94 67
f 45 67 69
f 45 69 46
f 45 65 66
f 46 68 47
f 46 69 96
f 46 96 68
f 50 70 71
f 50 71 72
f 50 72 73
f 50 73 51
f 52 53 74
f 52 74 75
f 52 75 55
f 53 54 76
f 53 76 74
f 54 62 77
f 54 77 76
f 55 75 78
f 57 79 58
f 58 79 80
f 58 80 81
f 58 81 82
f 58 82 59
f 59 82 83
f 59 83 60
f 60 83 61
f 61 84 62
f 61 83 85
f 61 85 86
f 61 86 87
f 61 87 84
f 62 84 77
f 63 88 64
f 64 89 65
f 64 88 90
f 64 90 89
f 65 89 91
f 65 91 66
f 66 92 93
f 66 93 94
f 66 91 92
f 67 94 95
f 67 95 69
f 69 95 97
f 69 97 98
f 69 98 96
f 70 99 71
f 70 100 101
f 70 101 99
f 74 102 75
f 74 76 103
f 74 103 102
f 75 102 78
f 76 77 104
f 76 104 103
f 77 84 105
f 77 105 104
f 78 102 106
f 81 107 108
f 81 108 82
f 82 108 85
f 82 85 83
f 84 87 109
f 84 109 105
f 85 108 110
f 85 110 111
f 85 111 86
f 86 111 87
f 87 111 112
f 87 112 113
f 87 113 109
f 89 114 91
f 89 90 115
f 89 115 114
f 91 114 116
f 91 116 117
f 91 117 92
f 92 117 118
f 92 118 93
f 93 118 119
f 93 119 120
f 93 120 94
f 94 120 95
f 95 120 147
f 95 147 121
f 95 121 122
f 95 122 97
f 97 122 123
f 97 123 98
f 100 124 101
f 101 124 125
f 102 126 106
f 102 103 127
f 102 127 126
f 103 104 128
f 103 128 127
f 104 105 129
f 104 129 128
f 105 109 130
f 105 130 129
f 106 126 131
f 107 132 133
f 107 133 108
f 108 133 110
f 109 113 134
f 109 134 130
f 110 133 135
f 110 135 111
f 111 135 136
f 111 136 137
f 111 137 112
f 112 137 138
f 112 138 113
f 113 138 139
f 113 139 134
f 114 140 116
f 114 115 141
f 114 141 140
f 116 140 142
f 116 142 117
f 117 142 143
f 117 143 144
f 117 144 118
f 118 144 145
f 118 145 119
f 119 145 146
f 119 146 120
f 120 146 147
f 121 147 148
f 121 148 122
f 122 148 149
f 122 149 123
f 123 149 150
f 124 151 125
f 124 152 151
f 126 153 131
f 126 127 154
f 126 154 153
f 127 128 155
f 127 155 154
f 128 129 155
f 129 156 155
f 129 130 157
f 129 157 156
f 130 134 158
f 130 158 157
f 131 153 159
f 132 160 133
f 133 160 161
f 133 161 135
f 134 139 162
f 134 162 158
f 135 161 163
f 135 163 164
f 135 164 165
f 135 165 136
f 136 165 166
f 136 166 137
f 137 166 167
f 137 167 138
f 138 167 168
f 138 168 139
f 139 168 162
f 140 169 142
f 140 141 170
f 140 170 171
f 140 171 169
f 142 172 143
f 142 169 172
f 143 172 173
f 143 173 174
f 143 174 144
f 144 174 175
f 144 175 145
f 145 175 176
f 145 176 146
f 146 176 177
f 146 177 178
f 146 178 147
f 147 178 148
f 148 178 214
f 148 214 179
f 148 179 180
f 148 180 149
f 149 180 181
f 149 181 150
f 151 152 182
f 152 183 184
f 152 184 185
f 152 185 182
f 153 154 186
f 153 186 187
f 153 187 188
f 153 188 159
f 154 155 186
f 155 189 190
f 155 190 186
f 155 156 189
f 156 157 191
f 156 191 189
f 157 158 192
f 157 192 191
f 158 162 193
f 158 193 192
f 162 168 194
f 162 194 195
f 162 195 193
f 163 196 164
f 164 196 197
f 164 197 198
f 164 198 165
f 165 198 199
f 165 199 166
f 166 199 200
f 166 200 167
f 167 200 168
f 168 200 201
f 168 201 202
f 168 202 194
f 169 171 203
f 169 203 204
f 169 204 172
f 172 205 173
f 172 204 205
f 173 205 206
f 173 206 207
f 173 207 208
f 173 208 174
f 174 208 209
f 174 209 175
f 175 209 210
f 175 210 176
f 176 210 211
f 176 211 177
f 177 211 212
f 177 212 213
f 177 213 178
f 178 213 214
f 179 214 215
f 179 215 180
f 180 215 216
f 180 216 217
f 180 217 218
f 180 218 181
f 183 219 184
f 184 219 220
f 184 220 221
f 186 222 187
f 186 190 223
f 186 223 222
f 187 222 224
f 187 224 225
f 187 225 226
f 187 226 188
f 189 227 190
f 189 191 228
f 189 228 227
f 190 227 223
f 191 192 229
f 191 229 228
f 192 193 229
f 193 195 230
f 193 230 231
f 193 231 229
f 194 202 232
f 194 232 195
f 195 232 233
f 195 233 230
f 196 234 197
f 197 234 235
f 197 235 236
f 197 236 198
f 198 236 237
f 198 237 199
f 199 237 200
f 200 237 238
f 200 238 239
f 200 239 201
f 201 239 240
f 201 240 202
f 202 240 241
f 202 241 232
f 203 242 204
f 204 242 243
f 204 243 244
f 204 244 245
f 204 245 205
f 205 246 206
f 205 245 246
f 206 246 247
f 206 247 248
f 206 248 207
f 207 248 249
f 207 249 250
f 207 250 208
f 208 250 209
f 209 250 251
f 209 251 210
f 210 251 252
f 210 252 253
f 210 253 211
f 211 253 254
f 211 254 212
f 212 254 255
f 212 255 256
f 212 256 213
f 213 256 257
f 213 257 214
f 214 257 215
f 215 257 302
f 215 302 258
f 215 258 216
f 216 258 259
f 216 259 260
f 216 260 261
f 216 261 217
f 219 262 263
f 219 263 220
f 219 264 262
f 220 263 265
f 220 265 221
f 221 265 266
f 221 266 267
f 222 268 269
f 222 269 224
f 222 223 270
f 222 270 268
f 223 227 271
f 223 271 247
f 223 247 270
f 224 269 225
f 227 228 272
f 227 272 271
f 228 229 272
f 229 273 272
f 229 231 274
f 229 274 273
f 230 233 275
f 230 275 276
f 230 276 231
f 231 276 274
f 232 241 277
f 232 277 278
f 232 278 279
f 232 279 233
f 233 279 275
f 234 280 235
f 235 280 281
f 235 281 282
f 235 282 236
f 236 282 237
f 237 282 283
f 237 283 284
f 237 284 238
f 238 284 285
f 238 285 239
f 239 285 286
f 239 286 240
f 240 286 287
f 240 287 288
f 240 288 241
f 241 288 277
f 244 289 245
f 245 289 268
f 245 268 246
f 246 270 247
f 246 268 270
f 247 271 248
f 248 272 290
f 248 290 249
f 248 271 272
f 249 290 291
f 249 291 292
f 249 292 250
f 250 292 251
f 251 292 293
f 251 293 252
f 252 293 294
f 252 294 295
f 252 295 296
f 252 296 297
f 252 297 253
f 253 297 254
f 254 297 298
f 254 298 255
f 255 298 299
f 255 299 300
f 255 300 256
f 256 300 301
f 256 301 302
f 256 302 257
f 258 302 303
f 258 303 304
f 258 304 305
f 258 305 259
f 259 305 306
f 259 306 307
f 259 307 260
f 262 308 263
f 262 264 309
f 262 309 355
f 262 355 308
f 263 308 310
f 263 310 311
f 263 311 265
f 265 311 312
f 265 312 313
f 265 313 266
f 266 313 314
f 266 314 315
f 266 315 267
f 267 315 316
f 268 289 317
f 268 317 318
f 268 318 269
f 272 273 290
f 273 274 319
f 273 319 290
f 274 276 320
f 274 320 319
f 275 321 276
f 275 279 321
f 276 321 320
f 277 288 322
f 277 322 323
f 277 323 324
f 277 324 278
f 278 324 279
f 279 324 325
f 279 325 326
f 279 326 327
f 279 327 321
f 280 328 281
f 281 328 329
f 281 329 330
f 281 330 331
f 281 331 332
f 281 332 282
f 282 332 333
f 282 333 283
f 283 334 284
f 283 333 334
f 284 334 335
f 284 335 285
f 285 335 336
f 285 336 286
f 286 336 287
f 287 336 337
f 287 337 338
f 287 338 288
f 288 338 322
f 290 319 291
f 291 319 339
f 291 339 293
f 291 293 292
f 293 339 340
f 293 340 294
f 294 341 295
f 294 340 341
f 295 342 296
f 295 341 343
f 295 343 344
f 295 344 345
f 295 345 342
f 296 342 298
f 296 298 297
f 298 342 299
f 299 342 345
f 299 345 344
f 299 344 346
f 299 346 300
f 300 346 347
f 300 347 301
f 301 347 348
f 301 348 303
f 301 303 302
f 303 348 349
f 303 349 350
f 303 350 351
f 303 351 304
f 304 351 353
f 304 353 305
f 305 352 306
f 305 353 397
f 305 397 352
f 308 354 311
f 308 311 310
f 308 355 356
f 308 356 354
f 309 357 358
f 309 358 355
f 311 354 359
f 311 359 360
f 311 360 312
f 312 360 361
f 312 361 313
f 313 361 362
f 313 362 363
f 313 363 314
f 314 363 364
f 314 364 315
f 315 364 365
f 315 365 366
f 315 366 367
f 315 367 316
f 319 320 339
f 320 321 340
f 320 340 339
f 321 327 368
f 321 368 340
f 322 369 323
f 322 338 369
f 323 325 324
f 323 369 370
f 323 370 325
f 325 371 326
f 325 370 372
f 325 372 371
f 326 373 327
f 326 371 373
f 327 373 368
f 331 374 332
f 332 374 375
f 332 375 376
f 332 376 333
f 333 376 334
f 334 376 377
f 334 377 378
f 334 378 379
f 334 379 335
f 335 379 336
f 336 379 380
f 336 380 381
f 336 381 337
f 337 381 382
f 337 382 338
f 338 382 383
f 338 383 384
f 338 384 369
f 340 368 341
f 341 368 385
f 341 385 386
f 341 386 387
f 341 387 343
f 343 387 344
f 344 387 388
f 344 388 389
f 344 389 390
f 344 390 346
f 346 390 391
f 346 391 347
f 347 391 392
f 347 392 348
f 348 392 349
f 349 392 393
f 349 393 394
f 349 394 350
f 350 394 351
f 351 394 395
f 351 395 396
f 351 396 353
f 353 396 441
f 353 441 397
f 354 356 359
f 355 358 356
f 356 358 398
f 356 398 359
f 357 399 358
f 358 400 398
f 358 399 401
f 358 401 402
f 358 402 400
f 359 398 360
f 360 398 403
f 360 403 404
f 360 404 361
f 361 404 405
f 361 405 362
f 362 405 406
f 362 406 363
f 363 407 364
f 363 406 408
f 363 408 409
f 363 409 410
f 363 410 411
f 363 411 407
f 364 407 412
f 364 412 413
f 364 413 414
f 364 414 415
f 364 415 365
f 365 415 416
f 365 416 366
f 368 373 385
f 369 384 417
f 369 417 370
f 370 417 418
f 370 418 372
f 371 372 419
f 371 419 386
f 371 386 373
f 372 418 419
f 373 386 385
f 374 420 421
f 374 421 375
f 375 421 422
f 375 422 376
f 376 422 423
f 376 423 377
f 377 423 378
f 378 424 379
f 378 423 425
f 378 425 426
f 378 426 427
f 378 427 424
f 379 424 380
f 380 424 381
f 381 424 428
f 381 428 429
f 381 429 382
f 382 429 383
f 383 430 417
f 383 417 384
f 383 429 431
f 383 431 432
f 383 432 430
f 386 419 388
f 386 388 387
f 388 419 433
f 388 433 434
f 388 434 389
f 389 434 435
f 389 435 390
f 390 435 436
f 390 436 391
f 391 436 437
f 391 437 392
f 392 437 393
f 393 437 438
f 393 438 439
f 393 439 394
f 394 439 440
f 394 440 395
f 395 440 442
f 395 442 396
f 396 442 486
f 396 486 441
f 398 400 403
f 400 402 443
f 400 443 444
f 400 444 404
f 400 404 403
f 401 445 402
f 402 445 446
f 402 446 447
f 402 447 443
f 404 444 405
f 405 444 448
f 405 448 449
f 405 449 406
f 406 449 450
f 406 450 451
f 406 451 452
f 406 452 408
f 407 411 412
f 408 452 409
f 409 452 410
f 410 452 453
f 410 453 454
f 410 454 411
f 411 454 414
f 411 414 413
f 411 413 412
f 414 454 455
f 414 455 456
f 414 456 415
f 415 456 457
f 415 457 458
f 415 458 459
f 415 459 416
f 417 430 418
f 418 430 460
f 418 460 461
f 418 461 462
f 418 462 463
f 418 463 419
f 419 463 433
f 420 464 465
f 420 465 421
f 421 465 466
f 421 466 422
f 422 466 425
f 422 425 423
f 424 427 428
f 425 466 467
f 425 467 468
f 425 468 469
f 425 469 426
f 426 469 470
f 426 470 427
f 427 470 471
f 427 471 428
f 428 471 431
f 428 431 429
f 430 432 472
f 430 472 460
f 431 471 473
f 431 473 474
f 431 474 432
f 432 474 475
f 432 475 476
f 432 476 472
f 433 463 477
f 433 477 478
f 433 478 434
f 434 478 479
f 434 479 480
f 434 480 435
f 435 480 481
f 435 481 436
f 436 481 482
f 436 482 437
f 437 482 438
f 438 482 532
f 438 532 483
f 438 483 484
f 438 484 439
f 439 484 485
f 439 485 440
f 440 485 442
f 442 485 487
f 442 487 488
f 442 488 486
f 443 447 489
f 443 489 490
f 443 490 444
f 444 490 448
f 446 491 492
f 446 492 447
f 447 492 489
f 448 490 449
f 449 490 493
f 449 493 494
f 449 494 450
f 450 494 451
f 451 494 453
f 451 453 452
f 453 455 454
f 453 494 495
f 453 495 496
f 453 496 497
f 453 497 498
f 453 498 455
f 455 498 499
f 455 499 500
f 455 500 501
f 455 501 502
f 455 502 503
f 455 503 504
f 455 504 457
f 455 457 456
f 457 504 505
f 457 505 506
f 457 506 507
f 457 507 508
f 457 508 509
f 457 509 510
f 457 510 511
f 457 511 458
f 458 511 459
f 460 472 512
f 460 512 513
f 460 513 514
f 460 514 461
f 461 514 462
f 462 514 515
f 462 515 477
f 462 477 463
f 464 516 465
f 465 467 466
f 465 516 517
f 465 517 467
f 467 517 518
f 467 518 519
f 467 519 520
f 467 520 468
f 468 520 521
f 468 521 469
f 469 521 522
f 469 522 470
f 470 522 473
f 470 473 471
f 472 476 512
f 473 522 523
f 473 523 524
f 473 524 474
f 474 524 525
f 474 525 526
f 474 526 475
f 475 526 527
f 475 527 476
f 476 527 528
f 476 528 512
f 477 515 529
f 477 529 478
f 478 529 479
f 479 530 480
f 479 529 565
f 479 565 531
f 479 531 530
f 480 530 481
f 481 530 532
f 481 532 482
f 483 532 533
f 483 533 534
f 483 534 484
f 484 534 535
f 484 535 485
f 485 535 536
f 485 536 487
f 487 537 488
f 487 536 538
f 487 538 537
f 489 493 490
f 489 492 539
f 489 539 545
f 489 545 493
f 491 540 492
f 492 540 541
f 492 541 542
f 492 542 543
f 492 543 544
f 492 544 539
f 493 495 494
f 493 545 495
f 495 545 546
f 495 546 496
f 496 546 547
f 496 547 548
f 496 548 497
f 497 548 498
f 498 548 549
f 498 549 550
f 498 550 499
f 499 550 548
f 499 548 551
f 499 551 500
f 500 551 552
f 500 552 501
f 501 552 553
f 501 553 502
f 502 553 554
f 502 554 555
f 502 555 503
f 503 555 504
f 504 555 556
f 504 556 557
f 504 557 505
f 505 557 506
f 506 557 558
f 506 558 507
f 507 558 559
f 507 559 560
f 507 560 508
f 508 560 509
f 509 560 561
f 509 561 510
f 510 561 562
f 512 528 563
f 512 563 513
f 513 564 514
f 513 563 564
f 514 564 515
f 515 564 565
f 515 565 529
f 518 566 519
f 519 566 567
f 519 567 568
f 519 568 520
f 520 568 569
f 520 569 521
f 521 569 523
f 521 523 522
f 523 569 570
f 523 570 524
f 524 570 571
f 524 571 572
f 524 572 525
f 525 572 573
f 525 573 526
f 526 573 574
f 526 574 527
f 527 574 575
f 527 575 528
f 528 575 563
f 530 531 576
f 530 576 532
f 531 565 577
f 531 577 578
f 531 578 579
f 531 579 580
f 531 580 576
f 532 576 581
f 532 581 582
f 532 582 533
f 533 582 583
f 533 583 584
f 533 584 534
f 534 584 585
f 534 585 535
f 535 585 536
f 536 586 538
f 536 585 587
f 536 587 588
f 536 588 586
f 539 544 589
f 539 589 545
f 542 590 543
f 543 590 591
f 543 591 592
f 543 592 544
f 544 592 593
f 544 593 589
f 545 589 594
f 545 594 546
f 546 594 595
f 546 595 547
f 547 596 548
f 547 595 597
f 547 597 596
f 548 596 598
f 548 598 599
f 548 599 600
f 548 600 551
f 548 550 549
f 551 600 652
f 551 652 601
f 551 601 552
f 552 601 602
f 552 602 553
f 553 602 603
f 553 603 554
f 554 603 604
f 554 604 555
f 555 604 605
f 555 605 606
f 555 606 556
f 556 606 557
f 557 606 607
f 557 607 558
f 558 607 608
f 558 608 609
f 558 609 559
f 559 609 610
f 559 610 560
f 560 610 611
f 560 611 561
f 561 611 612
f 561 612 562
f 563 613 564
f 563 575 614
f 563 614 615
f 563 615 613
f 564 613 577
f 564 577 565
f 566 616 617
f 566 617 567
f 567 617 618
f 567 618 568
f 568 618 619
f 568 619 569
f 569 619 570
f 570 619 620
f 570 620 621
f 570 621 622
f 570 622 571
f 571 622 623
f 571 623 572
f 572 623 624
f 572 624 573
f 573 624 625
f 573 625 574
f 574 625 575
f 575 625 626
f 575 626 666
f 575 666 614
f 576 580 627
f 576 627 581
f 577 613 615
f 577 615 628
f 577 628 629
f 577 629 578
f 578 629 579
f 579 630 580
f 579 629 631
f 579 631 632
f 579 632 630
f 580 630 627
f 581 627 582
f 582 627 633
f 582 633 634
f 582 634 635
f 582 635 583
f 583 635 636
f 583 636 584
f 584 636 585
f 585 636 637
f 585 637 638
f 585 638 587
f 587 638 639
f 587 639 640
f 587 640 588
f 589 593 641
f 589 641 594
f 590 642 591
f 591 642 690
f 591 690 643
f 591 643 644
f 591 644 592
f 592 644 645
f 592 645 593
f 593 645 646
f 593 646 641
f 594 641 647
f 594 647 595
f 595 647 648
f 595 648 649
f 595 649 597
f 596 597 650
f 596 650 598
f 597 649 650
f 598 650 599
f 599 650 651
f 599 651 652
f 599 652 600
f 601 652 653
f 601 653 654
f 601 654 655
f 601 655 602
f 602 655 603
f 603 655 656
f 603 656 657
f 603 657 604
f 604 657 605
f 605 657 658
f 605 658 606
f 606 658 659
f 606 659 660
f 606 660 607
f 607 660 661
f 607 661 608
f 608 661 662
f 608 662 609
f 609 662 663
f 609 663 610
f 610 663 664
f 610 664 611
f 611 665 612
f 611 664 665
f 614 666 667
f 614 667 615
f 615 667 668
f 615 668 628
f 616 669 670
f 616 670 617
f 617 671 618
f 617 670 671
f 618 671 620
f 618 620 619
f 620 671 672
f 620 672 621
f 621 672 673
f 621 673 674
f 621 674 622
f 622 674 675
f 622 675 623
f 623 675 676
f 623 676 624
f 624 676 625
f 625 676 677
f 625 677 678
f 625 678 626
f 626 678 666
f 627 630 634
f 627 634 633
f 628 668 679
f 628 679 629
f 629 679 631
f 630 632 634
f 631 679 680
f 631 680 632
f 632 680 681
f 632 681 682
f 632 682 634
f 634 682 735
f 634 735 683
f 634 683 635
f 635 683 684
f 635 684 636
f 636 684 685
f 636 685 637
f 637 685 687
f 637 687 638
f 638 686 639
f 638 687 688
f 638 688 686
f 641 646 689
f 641 689 647
f 643 690 741
f 643 741 691
f 643 691 692
f 643 692 644
f 644 692 693
f 644 693 645
f 645 693 694
f 645 694 695
f 645 695 646
f 646 695 696
f 646 696 689
f 647 697 648
f 647 689 697
f 648 697 698
f 648 698 649
f 649 698 699
f 649 699 653
f 649 653 652
f 649 652 651
f 649 651 650
f 653 699 700
f 653 700 654
f 654 700 701
f 654 701 655
f 655 701 702
f 655 702 656
f 656 702 703
f 656 703 704
f 656 704 657
f 657 704 658
f 658 704 705
f 658 705 706
f 658 706 659
f 659 706 660
f 660 706 707
f 660 707 708
f 660 708 661
f 661 708 709
f 661 709 662
f 662 709 663
f 663 709 710
f 663 710 711
f 663 711 664
f 664 711 712
f 664 712 713
f 664 713 714
f 664 714 665
f 666 678 715
f 666 715 716
f 666 716 667
f 667 716 717
f 667 717 668
f 668 717 718
f 668 718 679
f 669 719 670
f 670 719 720
f 670 720 721
f 670 721 672
f 670 672 671
f 672 722 723
f 672 723 724
f 672 724 673
f 672 721 722
f 673 724 725
f 673 725 674
f 674 725 726
f 674 726 675
f 675 726 727
f 675 727 676
f 676 727 728
f 676 728 677
f 677 728 678
f 678 728 729
f 678 729 730
f 678 730 715
f 679 718 680
f 680 718 731
f 680 731 732
f 680 732 733
f 680 733 681
f 681 733 734
f 681 734 682
f 682 734 777
f 682 777 735
f 683 735 736
f 683 736 684
f 684 736 737
f 684 737 685
f 685 737 738
f 685 738 687
f 687 738 782
f 687 782 739
f 687 739 688
f 689 696 740
f 689 740 697
f 691 741 742
f 691 742 743
f 691 743 744
f 691 744 692
f 692 744 745
f 692 745 693
f 693 745 694
f 694 746 695
f 694 745 747
f 694 747 748
f 694 748 746
f 695 746 696
f 696 746 749
f 696 749 740
f 697 740 750
f 697 750 698
f 698 750 751
f 698 751 699
f 699 751 700
f 700 751 787
f 700 787 752
f 700 752 701
f 701 752 753
f 701 753 702
f 702 753 754
f 702 754 755
f 702 755 703
f 703 755 756
f 703 756 704
f 704 756 705
f 705 756 757
f 705 757 706
f 706 757 758
f 706 758 759
f 706 759 707
f 707 759 760
f 707 760 708
f 708 760 761
f 708 761 709
f 709 761 710
f 710 761 723
f 710 723 711
f 711 723 722
f 711 722 712
f 712 722 762
f 712 762 763
f 715 730 764
f 715 764 716
f 716 764 765
f 716 765 717
f 717 765 731
f 717 731 718
f 719 766 720
f 720 767 768
f 720 768 762
f 720 762 722
f 720 722 721
f 720 766 767
f 723 761 724
f 724 760 725
f 724 761 760
f 725 760 759
f 725 759 726
f 726 759 727
f 727 759 758
f 727 758 757
f 727 757 728
f 728 757 769
f 728 769 729
f 729 769 770
f 729 770 730
f 730 770 771
f 730 771 764
f 731 765 772
f 731 772 773
f 731 773 774
f 731 774 732
f 732 774 775
f 732 775 733
f 733 775 776
f 733 776 734
f 734 776 748
f 734 748 777
f 735 777 778
f 735 778 736
f 736 778 779
f 736 779 737
f 737 779 780
f 737 780 738
f 738 780 781
f 738 781 782
f 740 749 783
f 740 783 750
f 742 784 743
f 743 784 785
f 743 785 786
f 743 786 744
f 744 786 747
f 744 747 745
f 746 748 776
f 746 776 749
f 747 786 778
f 747 778 777
f 747 777 748
f 749 776 775
f 749 775 783
f 750 783 787
f 750 787 751
f 752 787 774
f 752 774 773
f 752 773 772
f 752 772 753
f 753 772 771
f 753 771 754
f 754 771 770
f 754 770 755
f 755 769 756
f 755 770 769
f 756 769 757
f 762 768 763
f 764 771 772
f 764 772 765
f 774 787 783
f 774 783 775
f 778 786 779
f 779 786 785
f 779 785 780
f 780 785 788
f 780 788 789
f 780 789 781
f 784 790 785
f 785 790 788
