v 0.43749452 -0.48575050 0.46484211
v 0.43749452 -0.35001296 0.53323686
v 0.43749452 -0.48576379 0.48698106
v 0.42993924 -0.48576379 0.46711218
v 0.19246405 -0.48576379 0.47614759
v 0.19246405 -0.34998637 0.54373324
v 0.42996323 -0.34998637 0.53543955
v 0.43749452 -0.34998637 0.56097239
v 0.43749452 -0.48576379 0.63094050
v 0.19246405 -0.48576379 0.64177400
v 0.19246405 -0.34998637 0.68776011
v 0.43749452 -0.34998637 0.67921919
v 0.43749452 -0.47418761 0.63761592
v 0.42998722 -0.47648692 0.63815534
v 0.42998722 -0.48576379 0.63276106
v 0.20476834 -0.48576379 0.64327991
v 0.19246405 -0.48446131 0.64253819
v 0.19246405 -0.35001296 0.68776011
v 0.21002105 -0.34998637 0.68989533
v 0.43749452 -0.35332233 0.67854488
v 0.43675098 -0.34998637 0.67937648
v 0.43456835 -0.35453176 0.67894948
v 0.43749452 -0.47026688 0.63968372
v 0.42998722 -0.46649233 0.64325744
v 0.41715527 -0.47898555 0.63945895
v 0.43749452 -0.46488416 0.64244831
v 0.41238225 -0.48576379 0.63635725
v 0.21002105 -0.48576379 0.64388674
v 0.19246405 -0.48245442 0.64359456
v 0.19246405 -0.37143749 0.68328738
v 0.21002105 -0.37000212 0.68578219
v 0.21002105 -0.35001296 0.68989533
v 0.23000053 -0.34998637 0.69182825
v 0.43749452 -0.36920467 0.67503864
v 0.42797250 -0.34998637 0.68108469
v 0.42123270 -0.36105749 0.68023062
v 0.42873999 -0.36863318 0.67703903
v 0.42998722 -0.44999862 0.65085435
v 0.40878451 -0.44833729 0.65557432
v 0.41029555 -0.47138330 0.64458352
v 0.40381962 -0.48123169 0.64069515
v 0.40772915 -0.48576379 0.63725626
v 0.43749452 -0.45063657 0.64892137
v 0.21069264 -0.48576379 0.64395416
v 0.21002105 -0.46998778 0.65209055
v 0.19246405 -0.46998778 0.64997774
v 0.19246405 -0.38012961 0.68133193
v 0.19399910 -0.38323963 0.68081498
v 0.21002105 -0.38693443 0.68175900
v 0.23000053 -0.37000212 0.68769264
v 0.23000053 -0.35001296 0.69182825
v 0.25000399 -0.34998637 0.69326675
v 0.43749452 -0.38250864 0.67175710
v 0.40998375 -0.35001296 0.68434376
v 0.40998375 -0.34998637 0.68434376
v 0.40998375 -0.36535037 0.68121958
v 0.40998375 -0.37534496 0.67892700
v 0.42998722 -0.39000458 0.67148739
v 0.42998722 -0.43347833 0.65757471
v 0.41466081 -0.43743894 0.65903562
v 0.40132517 -0.44056225 0.66022688
v 0.38998029 -0.45257699 0.65683299
v 0.38998029 -0.46998778 0.64865166
v 0.38998029 -0.48317212 0.64179647
v 0.38998029 -0.48576379 0.64026809
v 0.39856690 -0.48576379 0.63887459
v 0.43749452 -0.43139169 0.65674305
v 0.23000053 -0.48576379 0.64563990
v 0.23000053 -0.46998778 0.65395606
v 0.21002105 -0.45643130 0.65849620
v 0.19246405 -0.46832645 0.65076447
v 0.23000053 -0.45863754 0.65941775
v 0.19246405 -0.38504714 0.68014067
v 0.21002105 -0.39692900 0.67919672
v 0.22208549 -0.39933461 0.67982602
v 0.22925700 -0.39161274 0.68241078
v 0.25000399 -0.39000458 0.68429875
v 0.25000399 -0.37000212 0.68913114
v 0.25000399 -0.35001296 0.69326675
v 0.27000746 -0.34998637 0.69414330
v 0.43749452 -0.39000458 0.66989160
v 0.38998029 -0.35001296 0.68744540
v 0.38998029 -0.34998637 0.68744540
v 0.39141938 -0.37165016 0.68270296
v 0.39902264 -0.37941191 0.67984849
v 0.40998375 -0.39000458 0.67517346
v 0.40998375 -0.41000700 0.66937464
v 0.42998722 -0.41000700 0.66566610
v 0.42998722 -0.42348373 0.66126078
v 0.43749452 -0.42452040 0.65937281
v 0.43749452 -0.42143697 0.66051906
v 0.40878451 -0.43046135 0.66263181
v 0.38998029 -0.42999616 0.66577846
v 0.38998029 -0.44256914 0.66105849
v 0.36997682 -0.45568702 0.65813661
v 0.36997682 -0.46998778 0.65132636
v 0.36997682 -0.48555115 0.64316750
v 0.36997682 -0.48576379 0.64305514
v 0.38580692 -0.48576379 0.64087492
v 0.23211122 -0.48576379 0.64577472
v 0.24990806 -0.48576379 0.64689857
v 0.24940437 -0.46827328 0.65606880
v 0.24232881 -0.45971408 0.65986729
v 0.21002105 -0.44643670 0.66263181
v 0.19246405 -0.45265675 0.65795678
v 0.19246405 -0.45387948 0.65743983
v 0.23000053 -0.44864297 0.66355336
v 0.19246405 -0.39126718 0.67847747
v 0.21002105 -0.41000700 0.67535329
v 0.19246405 -0.40839884 0.67366755
v 0.19246405 -0.41000700 0.67319560
v 0.22925700 -0.40877098 0.67755592
v 0.23542114 -0.40127504 0.68036544
v 0.25000399 -0.40284336 0.68083745
v 0.27000746 -0.39000458 0.68515289
v 0.27000746 -0.37000212 0.68998522
v 0.27000746 -0.35001296 0.69414330
v 0.29001093 -0.34998637 0.69443548
v 0.43749452 -0.40251106 0.66625047
v 0.36997682 -0.35001296 0.68996274
v 0.36997682 -0.37000212 0.68580467
v 0.36997682 -0.34998637 0.68996274
v 0.38568699 -0.38309342 0.68079251
v 0.39141938 -0.38985837 0.67818528
v 0.38998029 -0.41000700 0.67256624
v 0.43749452 -0.40976778 0.66413772
v 0.36997682 -0.42999616 0.66838568
v 0.36997682 -0.44567916 0.66236210
v 0.34999734 -0.45809263 0.65917051
v 0.34999734 -0.46998778 0.65339416
v 0.36777020 -0.48576379 0.64327991
v 0.25362572 -0.48576379 0.64705586
v 0.27000746 -0.47094470 0.65555185
v 0.25564048 -0.46045837 0.66020441
v 0.24940437 -0.45183271 0.66350842
v 0.21002105 -0.42999616 0.66879028
v 0.19246405 -0.44186473 0.66233963
v 0.19246405 -0.44388491 0.66157544
v 0.23000053 -0.42999616 0.67065579
v 0.25000399 -0.42999616 0.67202681
v 0.19246405 -0.42999616 0.66667753
v 0.25000399 -0.41283792 0.67778069
v 0.27000746 -0.41423345 0.67820776
v 0.27000746 -0.40422556 0.68126452
v 0.29001093 -0.39000458 0.68542260
v 0.29001093 -0.37000212 0.69027740
v 0.29001093 -0.35001296 0.69443548
v 0.31001440 -0.34998637 0.69414330
v 0.34999734 -0.34998637 0.69191819
v 0.36997682 -0.38676164 0.68175900
v 0.34999734 -0.37000212 0.68773764
v 0.36997682 -0.39676949 0.67912924
v 0.36997682 -0.41000700 0.67515099
v 0.34999734 -0.42999616 0.67038608
v 0.34999734 -0.44808477 0.66337353
v 0.33582222 -0.45940840 0.65973240
v 0.32949018 -0.46818024 0.65582156
v 0.33313590 -0.48576379 0.64631414
v 0.34999734 -0.48576379 0.64507800
v 0.27000746 -0.48576379 0.64764023
v 0.29001093 -0.47115734 0.65566421
v 0.27000746 -0.46093684 0.66042918
v 0.27000746 -0.44999862 0.66505921
v 0.27000746 -0.42999616 0.67283595
v 0.29001093 -0.41464546 0.67832011
v 0.29001093 -0.40465087 0.68139935
v 0.31001440 -0.40411925 0.68124205
v 0.31001440 -0.39000458 0.68510795
v 0.31001440 -0.37000212 0.68996274
v 0.31001440 -0.35001296 0.69414330
v 0.32999387 -0.34998637 0.69328922
v 0.32999387 -0.35001296 0.69328922
v 0.35054898 -0.39155957 0.68241078
v 0.35760057 -0.39925486 0.67978108
v 0.32999387 -0.37000212 0.68910867
v 0.32999387 -0.39000458 0.68425381
v 0.35054898 -0.40870452 0.67748851
v 0.32999387 -0.41269171 0.67771327
v 0.32999387 -0.42999616 0.67182451
v 0.32949018 -0.45164666 0.66337353
v 0.32248658 -0.46031216 0.66013694
v 0.32992193 -0.48576379 0.64653891
v 0.31001440 -0.47079849 0.65546191
v 0.27425280 -0.48576379 0.64768523
v 0.29001093 -0.46114948 0.66054153
v 0.29001093 -0.48576379 0.64784253
v 0.29432821 -0.48576379 0.64777511
v 0.31001440 -0.48576379 0.64748293
v 0.31001440 -0.46079063 0.66036171
v 0.29001093 -0.44999862 0.66528398
v 0.29001093 -0.42999616 0.67306072
v 0.31001440 -0.42999616 0.67272359
v 0.31001440 -0.41411382 0.67816281
v 0.32999387 -0.40269715 0.68081498
v 0.34426492 -0.40116870 0.68034297
v 0.31001440 -0.44999862 0.66492438
f 1 2 8
f 1 8 12
f 1 12 20
f 1 20 34
f 1 34 53
f 1 53 81
f 1 81 119
f 1 119 126
f 1 126 91
f 1 91 90
f 1 90 67
f 1 67 43
f 1 43 26
f 1 26 23
f 1 23 13
f 1 13 9
f 1 9 3
f 1 3 4
f 1 4 5
f 1 5 6
f 1 6 2
f 2 7 8
f 2 6 7
f 3 9 15
f 3 15 27
f 3 27 42
f 3 42 66
f 3 66 65
f 3 65 99
f 3 99 98
f 3 98 131
f 3 131 159
f 3 159 158
f 3 158 182
f 3 182 188
f 3 188 187
f 3 187 186
f 3 186 184
f 3 184 160
f 3 160 132
f 3 132 101
f 3 101 100
f 3 100 68
f 3 68 44
f 3 44 28
f 3 28 16
f 3 16 10
f 3 10 5
f 3 5 4
f 5 10 17
f 5 17 29
f 5 29 46
f 5 46 71
f 5 71 106
f 5 106 105
f 5 105 138
f 5 138 137
f 5 137 141
f 5 141 111
f 5 111 110
f 5 110 108
f 5 108 73
f 5 73 47
f 5 47 30
f 5 30 18
f 5 18 11
f 5 11 6
f 6 11 19
f 6 19 33
f 6 33 52
f 6 52 80
f 6 80 118
f 6 118 148
f 6 148 171
f 6 171 149
f 6 149 122
f 6 122 83
f 6 83 55
f 6 55 35
f 6 35 21
f 6 21 12
f 6 12 8
f 6 8 7
f 9 13 14
f 9 14 15
f 10 16 17
f 11 18 32
f 11 32 19
f 12 21 22
f 12 22 20
f 13 23 14
f 14 24 25
f 14 25 15
f 14 23 26
f 14 26 24
f 15 25 27
f 16 28 29
f 16 29 17
f 18 30 31
f 18 31 32
f 19 32 51
f 19 51 33
f 20 22 34
f 21 35 22
f 22 35 36
f 22 36 37
f 22 37 34
f 24 38 39
f 24 39 40
f 24 40 25
f 24 26 38
f 25 40 41
f 25 41 42
f 25 42 27
f 26 43 38
f 28 44 45
f 28 45 29
f 29 45 46
f 30 47 31
f 31 47 48
f 31 48 49
f 31 49 50
f 31 50 51
f 31 51 32
f 33 51 79
f 33 79 52
f 34 37 53
f 35 54 36
f 35 55 54
f 36 54 56
f 36 56 57
f 36 57 37
f 37 57 58
f 37 58 53
f 38 59 60
f 38 60 39
f 38 43 59
f 39 60 61
f 39 61 62
f 39 62 40
f 40 62 63
f 40 63 41
f 41 63 64
f 41 64 65
f 41 65 66
f 41 66 42
f 43 67 59
f 44 68 69
f 44 69 45
f 45 70 71
f 45 71 46
f 45 69 72
f 45 72 70
f 47 73 48
f 48 73 74
f 48 74 49
f 49 74 75
f 49 75 76
f 49 76 50
f 50 77 78
f 50 78 79
f 50 79 51
f 50 76 77
f 52 79 117
f 52 117 80
f 53 58 81
f 54 82 56
f 54 55 83
f 54 83 82
f 56 82 84
f 56 84 85
f 56 85 57
f 57 86 58
f 57 85 86
f 58 86 87
f 58 87 88
f 58 88 81
f 59 89 60
f 59 67 90
f 59 90 91
f 59 91 89
f 60 92 61
f 60 89 92
f 61 93 94
f 61 94 62
f 61 92 93
f 62 94 128
f 62 128 95
f 62 95 63
f 63 95 96
f 63 96 64
f 64 96 97
f 64 97 98
f 64 98 99
f 64 99 65
f 68 100 69
f 69 100 101
f 69 101 102
f 69 102 103
f 69 103 72
f 70 104 105
f 70 105 106
f 70 106 71
f 70 72 107
f 70 107 104
f 72 103 107
f 73 108 74
f 74 109 75
f 74 108 110
f 74 110 111
f 74 111 109
f 75 112 113
f 75 113 76
f 75 109 112
f 76 113 77
f 77 113 114
f 77 114 115
f 77 115 116
f 77 116 78
f 78 116 117
f 78 117 79
f 80 117 147
f 80 147 118
f 81 88 119
f 82 83 122
f 82 122 120
f 82 120 121
f 82 121 84
f 84 121 123
f 84 123 85
f 85 123 124
f 85 124 86
f 86 124 87
f 87 124 125
f 87 125 92
f 87 92 89
f 87 89 88
f 88 89 91
f 88 91 126
f 88 126 119
f 92 125 93
f 93 125 127
f 93 127 94
f 94 127 128
f 95 128 129
f 95 129 96
f 96 129 130
f 96 130 97
f 97 130 131
f 97 131 98
f 101 132 133
f 101 133 102
f 102 133 134
f 102 134 103
f 103 134 135
f 103 135 107
f 104 136 137
f 104 137 138
f 104 138 105
f 104 107 139
f 104 139 136
f 107 135 140
f 107 140 139
f 109 111 141
f 109 141 136
f 109 136 112
f 112 136 139
f 112 139 142
f 112 142 113
f 113 142 114
f 114 142 143
f 114 143 144
f 114 144 115
f 115 144 145
f 115 145 146
f 115 146 116
f 116 146 147
f 116 147 117
f 118 147 170
f 118 170 148
f 120 122 149
f 120 149 121
f 121 150 123
f 121 149 151
f 121 151 150
f 123 150 152
f 123 152 124
f 124 152 125
f 125 152 153
f 125 153 127
f 127 153 154
f 127 154 128
f 128 154 155
f 128 155 129
f 129 155 156
f 129 156 130
f 130 156 157
f 130 157 158
f 130 158 159
f 130 159 131
f 132 160 133
f 133 160 161
f 133 161 185
f 133 185 162
f 133 162 134
f 134 162 163
f 134 163 135
f 135 163 140
f 136 141 137
f 139 140 142
f 140 163 164
f 140 164 143
f 140 143 142
f 143 164 165
f 143 165 166
f 143 166 144
f 144 166 145
f 145 167 168
f 145 168 169
f 145 169 146
f 145 166 167
f 146 169 170
f 146 170 147
f 148 170 172
f 148 172 171
f 149 171 172
f 149 172 151
f 150 151 173
f 150 173 174
f 150 174 152
f 151 172 175
f 151 175 176
f 151 176 173
f 152 174 153
f 153 174 177
f 153 177 154
f 154 177 178
f 154 178 179
f 154 179 155
f 155 179 180
f 155 180 156
f 156 180 181
f 156 181 157
f 157 182 158
f 157 181 183
f 157 183 182
f 160 184 161
f 161 184 186
f 161 186 187
f 161 187 188
f 161 188 183
f 161 183 189
f 161 189 185
f 162 185 190
f 162 190 163
f 163 190 191
f 163 191 164
f 164 191 165
f 165 191 192
f 165 192 193
f 165 193 167
f 165 167 166
f 167 193 194
f 167 194 168
f 168 194 176
f 168 176 175
f 168 175 169
f 169 175 172
f 169 172 170
f 173 176 195
f 173 195 174
f 174 195 177
f 176 194 195
f 177 195 178
f 178 195 194
f 178 194 193
f 178 193 179
f 179 193 192
f 179 192 196
f 179 196 180
f 180 196 181
f 181 196 189
f 181 189 183
f 182 183 188
f 185 189 190
f 189 196 190
f 190 196 192
f 190 192 191
