v 0.19246407 -0.30869216 -0.69600546
v 0.19246407 -0.30869216 -0.55155790
v 0.19246407 -0.28913337 -0.69837350
v 0.20557088 -0.29445881 -0.69939601
v 0.21134073 -0.30849850 -0.69830173
v 0.20901379 -0.30869216 -0.69799674
v 0.43501142 -0.30869216 -0.54117095
v 0.43501142 0.18995921 -0.54579931
v 0.43501142 0.19547826 -0.54585314
v 0.43501142 0.21542431 -0.54606843
v 0.43501142 0.22994813 -0.54622990
v 0.19246407 0.17001316 -0.55744195
v 0.19246407 -0.28768098 -0.69853497
v 0.19904122 -0.28119367 -0.70011359
v 0.21134073 -0.28864926 -0.70063382
v 0.21889141 -0.30084926 -0.70011359
v 0.22537357 -0.30869216 -0.69959337
v 0.21186310 -0.30869216 -0.69831967
v 0.21148321 -0.30869216 -0.69828379
v 0.43501142 -0.30869216 -0.68707168
v 0.43501142 0.23527354 -0.54630166
v 0.19246407 0.18995921 -0.55769312
v 0.19246407 -0.27577144 -0.69971895
v 0.19536087 -0.26996195 -0.70061588
v 0.21001107 -0.26996195 -0.70228428
v 0.23000370 -0.28990799 -0.70219457
v 0.23000370 -0.26996195 -0.70411408
v 0.23000370 -0.30423814 -0.70056206
v 0.23000370 -0.30869216 -0.69997007
v 0.43470272 -0.30869216 -0.68714345
v 0.43501142 -0.28990799 -0.68918854
v 0.43501142 0.24999103 -0.54651690
v 0.19246407 0.20990527 -0.55799806
v 0.19246407 -0.26996195 -0.70022124
v 0.19246407 -0.26725084 -0.70045447
v 0.19246407 -0.26115084 -0.70090294
v 0.21001107 -0.24991907 -0.70382702
v 0.25002009 -0.28990799 -0.70350415
v 0.23000370 -0.24991907 -0.70565689
v 0.25002009 -0.26996195 -0.70542365
v 0.25063744 -0.30869216 -0.70129758
v 0.23458633 -0.30869216 -0.70031095
v 0.42997763 -0.30869216 -0.68814802
v 0.42997763 -0.28990799 -0.69026488
v 0.42997763 -0.26996195 -0.69207674
v 0.43501142 -0.27499688 -0.69053400
v 0.43501142 0.25512278 -0.54660660
v 0.19246407 0.22994813 -0.55833894
v 0.19246407 -0.25020951 -0.70169228
v 0.19246407 -0.22997300 -0.70296597
v 0.21001107 -0.22997300 -0.70506483
v 0.27001274 -0.28990799 -0.70427555
v 0.27001274 -0.30869216 -0.70205104
v 0.23000370 -0.22997300 -0.70689464
v 0.25002009 -0.24991907 -0.70694852
v 0.27001274 -0.24991907 -0.70771986
v 0.27001274 -0.26996195 -0.70617712
v 0.42867169 -0.30869216 -0.68839920
v 0.40998498 -0.28990799 -0.69399625
v 0.43501142 -0.25495398 -0.69207674
v 0.43501142 -0.26996195 -0.69098246
v 0.40998498 -0.26996195 -0.69580817
v 0.40998498 -0.24991907 -0.69727916
v 0.42997763 -0.24991907 -0.69352984
v 0.43501142 0.27429423 -0.54694748
v 0.19246407 0.23294973 -0.55839276
v 0.19246407 -0.21244760 -0.70389879
v 0.21001107 -0.20993014 -0.70612329
v 0.29000539 -0.28990799 -0.70447284
v 0.29000539 -0.30869216 -0.70226634
v 0.23000370 -0.20993014 -0.70795310
v 0.25002009 -0.20993014 -0.70926267
v 0.25002009 -0.22997300 -0.70818627
v 0.27001274 -0.22997300 -0.70893973
v 0.29000539 -0.22997300 -0.70911914
v 0.29000539 -0.24991907 -0.70788133
v 0.29000539 -0.26996195 -0.70637441
v 0.40998498 -0.30869216 -0.69186151
v 0.40867907 -0.30869216 -0.69207674
v 0.38999236 -0.30869216 -0.69503677
v 0.38999236 -0.28990799 -0.69715363
v 0.38973117 -0.27102703 -0.69892961
v 0.43501142 -0.24991907 -0.69243556
v 0.39664072 -0.24991907 -0.69950366
v 0.39927635 -0.23820318 -0.69988036
v 0.40898773 -0.23094125 -0.69864255
v 0.42997763 -0.22997300 -0.69476765
v 0.43501142 0.28978631 -0.54727036
v 0.19246407 0.24970055 -0.55871564
v 0.19246407 -0.20993014 -0.70402437
v 0.21001107 -0.18998407 -0.70710993
v 0.31002176 -0.28990799 -0.70409614
v 0.31002176 -0.30869216 -0.70190752
v 0.23000370 -0.18998407 -0.70893973
v 0.25002009 -0.18998407 -0.71024930
v 0.27001274 -0.18998407 -0.71100277
v 0.27001274 -0.20993014 -0.70999819
v 0.31002176 -0.22997300 -0.70872450
v 0.29000539 -0.20993014 -0.71017754
v 0.31002176 -0.20993014 -0.70980084
v 0.31002176 -0.24991907 -0.70748669
v 0.31002176 -0.26996195 -0.70597976
v 0.38866267 -0.30869216 -0.69521618
v 0.37130564 -0.29165083 -0.69939601
v 0.37885630 -0.27838576 -0.69986242
v 0.38289282 -0.26502383 -0.70041859
v 0.43501142 -0.23500793 -0.69335043
v 0.38664442 -0.24991907 -0.70095676
v 0.39155945 -0.23094125 -0.70144111
v 0.38999236 -0.20993014 -0.70285833
v 0.40165076 -0.22484125 -0.70027506
v 0.40402520 -0.20993014 -0.70070559
v 0.41402149 -0.20993014 -0.69894755
v 0.43501142 -0.21496506 -0.69449860
v 0.43501142 -0.22997300 -0.69365543
v 0.41708452 -0.18998407 -0.69948572
v 0.42997763 -0.20993014 -0.69587994
v 0.19246407 0.28997996 -0.55963057
v 0.19246407 0.27865136 -0.55936146
v 0.19246407 0.26993707 -0.55916417
v 0.43501142 0.30992600 -0.54777265
v 0.19246407 -0.18998407 -0.70501101
v 0.19246407 -0.17245866 -0.70583624
v 0.21001107 -0.16994120 -0.70804280
v 0.32999066 -0.28990799 -0.70316327
v 0.32692766 -0.30869216 -0.70115405
v 0.23000370 -0.16994120 -0.70987260
v 0.25002009 -0.16994120 -0.71120012
v 0.27001274 -0.16994120 -0.71197152
v 0.29000539 -0.18998407 -0.71118218
v 0.29000539 -0.16994120 -0.71216881
v 0.32999066 -0.22997300 -0.70779163
v 0.32999066 -0.20993014 -0.70888591
v 0.31002176 -0.18998407 -0.71082342
v 0.32999066 -0.18998407 -0.70992643
v 0.32999066 -0.24991907 -0.70655382
v 0.32999066 -0.26996195 -0.70504689
v 0.36867002 -0.30869216 -0.69776356
v 0.35940978 -0.29949373 -0.69993418
v 0.36551204 -0.28613180 -0.70061588
v 0.37130564 -0.27102703 -0.70133346
v 0.36999971 -0.24991907 -0.70307356
v 0.36999971 -0.22997300 -0.70432937
v 0.36999971 -0.20993014 -0.70545954
v 0.38999236 -0.18998407 -0.70393467
v 0.38999236 -0.16994120 -0.70497513
v 0.40708819 -0.18998407 -0.70124376
v 0.43501142 -0.20993014 -0.69476765
v 0.41905528 -0.17671897 -0.69982660
v 0.42997763 -0.18998407 -0.69693834
v 0.43501142 0.32996887 -0.54832876
v 0.19246407 0.30992600 -0.56018668
v 0.19246407 -0.15241577 -0.70673323
v 0.21001107 -0.14999513 -0.70893973
v 0.23000370 -0.14999513 -0.71078753
v 0.35164541 -0.29165083 -0.70140523
v 0.34606552 -0.30404454 -0.70050824
v 0.33333862 -0.30869216 -0.70077735
v 0.32863724 -0.30869216 -0.70106435
v 0.34998330 -0.26996195 -0.70359385
v 0.25002009 -0.14999513 -0.71211505
v 0.27001274 -0.14999513 -0.71290433
v 0.29000539 -0.14999513 -0.71311963
v 0.31002176 -0.14999513 -0.71277881
v 0.31002176 -0.16994120 -0.71181005
v 0.34998330 -0.22997300 -0.70633852
v 0.34998330 -0.20993014 -0.70745081
v 0.34998330 -0.18998407 -0.70850921
v 0.32999066 -0.14999513 -0.71191770
v 0.32999066 -0.16994120 -0.71093100
v 0.34998330 -0.24991907 -0.70510072
v 0.35288012 -0.30869216 -0.69934219
v 0.36999971 -0.18998407 -0.70651793
v 0.36999971 -0.16994120 -0.70755839
v 0.38999236 -0.14999513 -0.70596182
v 0.40998498 -0.14999513 -0.70276862
v 0.41143340 -0.17003803 -0.70151287
v 0.43501142 -0.18998407 -0.69582611
v 0.42085984 -0.16335706 -0.70016742
v 0.42850548 -0.17003803 -0.69826585
v 0.43249452 -0.14999513 -0.69846320
v 0.43501142 0.33500379 -0.54849023
v 0.19246407 0.32996887 -0.56077868
v 0.19246407 0.32638633 -0.56067103
v 0.19246407 -0.14999513 -0.70684087
v 0.19246407 -0.11242683 -0.70845538
v 0.21001107 -0.12995227 -0.70980084
v 0.23000370 -0.12995227 -0.71166652
v 0.25002009 -0.12995227 -0.71301198
v 0.35010204 -0.30869216 -0.69957542
v 0.27001274 -0.12995227 -0.71380132
v 0.29000539 -0.12995227 -0.71403456
v 0.31002176 -0.12995227 -0.71369368
v 0.34998330 -0.16994120 -0.70951378
v 0.32999066 -0.12995227 -0.71283257
v 0.34998330 -0.12995227 -0.71143329
v 0.34998330 -0.14999513 -0.71050048
v 0.36999971 -0.14999513 -0.70852715
v 0.36999971 -0.12995227 -0.70946002
v 0.38999236 -0.12995227 -0.70687675
v 0.40998498 -0.12995227 -0.70370150
v 0.43501142 -0.15280308 -0.69774562
v 0.42249820 -0.14999513 -0.70049030
v 0.43482146 -0.12995227 -0.69894755
v 0.43501142 -0.13024272 -0.69889373
v 0.43501142 -0.14999513 -0.69788909
v 0.43501142 0.34991494 -0.54899251
v 0.19246407 0.35059273 -0.56147832
v 0.19246407 -0.09238397 -0.70928061
v 0.21001107 -0.10990937 -0.71064401
v 0.23000370 -0.10990937 -0.71250969
v 0.25002009 -0.10990937 -0.71385515
v 0.27001274 -0.10990937 -0.71468031
v 0.29000539 -0.10990937 -0.71489561
v 0.31002176 -0.10990937 -0.71457273
v 0.32999066 -0.10990937 -0.71369368
v 0.34998330 -0.10990937 -0.71229440
v 0.36999971 -0.10990937 -0.71032107
v 0.38999236 -0.10990937 -0.70775574
v 0.42482513 -0.12995227 -0.70097470
v 0.40998498 -0.10990937 -0.70458049
v 0.43501142 -0.10990937 -0.69982660
v 0.43501142 -0.12830622 -0.69898343
v 0.43501142 0.35494986 -0.54917192
v 0.19246407 0.36928004 -0.56216002
v 0.19246407 -0.07243790 -0.71006995
v 0.21001107 -0.08996333 -0.71145129
v 0.23000370 -0.08996333 -0.71331698
v 0.25002009 -0.08996333 -0.71466243
v 0.27001274 -0.08996333 -0.71548760
v 0.29000539 -0.08996333 -0.71570289
v 0.31002176 -0.08996333 -0.71537995
v 0.32999066 -0.08996333 -0.71450096
v 0.34998330 -0.08996333 -0.71310169
v 0.36999971 -0.08996333 -0.71114630
v 0.38999236 -0.08996333 -0.70859891
v 0.40998498 -0.08996333 -0.70544159
v 0.42708084 -0.10990937 -0.70142317
v 0.43501142 -0.09131889 -0.70063382
v 0.43501142 0.36995780 -0.54974598
v 0.43501142 0.38990387 -0.55064297
v 0.19246407 0.37315306 -0.56233943
v 0.21001107 -0.06992044 -0.71222264
v 0.19246407 -0.04997440 -0.71087718
v 0.21001107 -0.04997440 -0.71294022
v 0.23000370 -0.06992044 -0.71407044
v 0.25002009 -0.06992044 -0.71541584
v 0.27001274 -0.06992044 -0.71622312
v 0.29000539 -0.06992044 -0.71645635
v 0.31002176 -0.06992044 -0.71611547
v 0.32999066 -0.06992044 -0.71525443
v 0.34998330 -0.06992044 -0.71385515
v 0.36999971 -0.06992044 -0.71189976
v 0.38999236 -0.06992044 -0.70935237
v 0.40998498 -0.06992044 -0.70621300
v 0.43125981 -0.08851095 -0.70149493
v 0.42997763 -0.06992044 -0.70248157
v 0.43501142 -0.08531569 -0.70088500
v 0.43501142 0.39493880 -0.55089414
v 0.19246407 0.38990387 -0.56314671
v 0.19246407 -0.02993152 -0.71157682
v 0.21001107 -0.02993152 -0.71362191
v 0.23000370 -0.04997440 -0.71477002
v 0.25002009 -0.04997440 -0.71611547
v 0.27001274 -0.04997440 -0.71690482
v 0.29000539 -0.04997440 -0.71712011
v 0.31002176 -0.04997440 -0.71677923
v 0.32999066 -0.04997440 -0.71591818
v 0.34998330 -0.04997440 -0.71451890
v 0.36999971 -0.04997440 -0.71258146
v 0.38999236 -0.04997440 -0.71005201
v 0.40998498 -0.04997440 -0.70691264
v 0.42997763 -0.04997440 -0.70319915
v 0.43501142 -0.07534267 -0.70127964
v 0.19246407 0.39242133 -0.56327224
v 0.43501142 0.40994674 -0.55166548
v 0.19246407 -0.01240610 -0.71215087
v 0.21001107 -0.00998546 -0.71426773
v 0.23000370 -0.02993152 -0.71543378
v 0.25002009 -0.02993152 -0.71676129
v 0.27001274 -0.02993152 -0.71753269
v 0.29000539 -0.02993152 -0.71774799
v 0.31002176 -0.02993152 -0.71740711
v 0.32999066 -0.00998546 -0.71713805
v 0.34998330 -0.00998546 -0.71575671
v 0.34998330 -0.02993152 -0.71514678
v 0.36999971 -0.02993152 -0.71322727
v 0.38999236 -0.02993152 -0.71069783
v 0.40998498 -0.02993152 -0.70757639
v 0.42997763 -0.00998546 -0.70452666
v 0.43501142 -0.04997440 -0.70215869
v 0.43501142 -0.05907600 -0.70185369
v 0.19246407 0.40994674 -0.56425893
v 0.43501142 0.42998964 -0.55283153
v 0.19246407 0.00753996 -0.71277881
v 0.23000370 -0.00998546 -0.71606165
v 0.21001107 0.01005742 -0.71487767
v 0.25002009 -0.00998546 -0.71737123
v 0.27001274 -0.00998546 -0.71814263
v 0.29000539 -0.00998546 -0.71833998
v 0.31002176 -0.00998546 -0.71799910
v 0.32999066 0.03000347 -0.71828616
v 0.33497697 0.09003529 -0.71972132
v 0.33837238 0.10330039 -0.71990073
v 0.34998330 0.01005742 -0.71634871
v 0.32158521 0.07706067 -0.72008008
v 0.36999971 0.03000347 -0.71503913
v 0.36999971 0.01005742 -0.71444714
v 0.36999971 -0.00998546 -0.71383721
v 0.38999236 -0.00998546 -0.71132571
v 0.40998498 -0.00998546 -0.70820427
v 0.43501142 -0.01715055 -0.70323503
v 0.43501142 -0.02993152 -0.70282245
v 0.40998498 0.01005742 -0.70883214
v 0.42997763 0.03000347 -0.70574653
v 0.43501142 0.02400029 -0.70449078
v 0.19246407 0.41236740 -0.56440246
v 0.43501142 0.43502456 -0.55315447
v 0.19246407 0.42998964 -0.56549674
v 0.19246407 0.02758284 -0.71338868
v 0.23000370 0.01005742 -0.71667159
v 0.21001107 0.03000347 -0.71546966
v 0.25002009 0.01005742 -0.71796322
v 0.26160729 0.06127811 -0.71995449
v 0.23997629 0.10000832 -0.71999037
v 0.27001274 0.01005742 -0.71871668
v 0.27492779 0.05575906 -0.72009802
v 0.29000539 0.03000347 -0.71948808
v 0.30306470 0.05672732 -0.72008008
v 0.31002176 0.03000347 -0.71914726
v 0.33101165 0.10998134 -0.72049272
v 0.32999066 0.13002422 -0.72106677
v 0.34119794 0.11656547 -0.72008008
v 0.34998330 0.03000347 -0.71692276
v 0.35344997 0.13002422 -0.71948808
v 0.36999971 0.09003529 -0.71679717
v 0.31002176 0.09003529 -0.72083354
v 0.31002176 0.11007817 -0.72138965
v 0.31002176 0.13002422 -0.72190988
v 0.32498065 0.09003529 -0.72025949
v 0.31638521 0.06369875 -0.71988273
v 0.38999236 0.03000347 -0.71254557
v 0.38999236 0.11007817 -0.71491355
v 0.38999236 0.09003529 -0.71432155
v 0.40998498 0.11007817 -0.71184593
v 0.42997763 0.11007817 -0.70818627
v 0.42997763 0.09003529 -0.70757639
v 0.43501142 0.11007817 -0.70710993
v 0.43501142 0.44993567 -0.55415905
v 0.19246407 0.45245314 -0.56711125
v 0.19246407 0.03000347 -0.71346045
v 0.23000370 0.03000347 -0.71726358
v 0.21001107 0.07008924 -0.71661782
v 0.25002009 0.03000347 -0.71853733
v 0.25692967 0.07464004 -0.72015184
v 0.24358541 0.08664639 -0.71981102
v 0.27001274 0.11007817 -0.72151524
v 0.27001274 0.09003529 -0.72097707
v 0.25016254 0.09197180 -0.72029537
v 0.23000370 0.05004635 -0.71783769
v 0.23199822 0.09197180 -0.71916521
v 0.22827038 0.11007817 -0.71936250
v 0.23829043 0.11007817 -0.72011596
v 0.25002009 0.13002422 -0.72126406
v 0.25002009 0.11007817 -0.72076178
v 0.29000539 0.09003529 -0.72117436
v 0.29000539 0.11007817 -0.72171259
v 0.32999066 0.15006711 -0.72155112
v 0.34342989 0.13002422 -0.72025949
v 0.34872487 0.10998134 -0.71930867
v 0.34998330 0.09003529 -0.71864492
v 0.34658790 0.15006711 -0.72049272
v 0.35658419 0.15006711 -0.71972132
v 0.36999971 0.13002422 -0.71792734
v 0.36999971 0.11007817 -0.71737123
v 0.38999236 0.13002422 -0.71548760
v 0.29000539 0.13002422 -0.72223282
v 0.31002176 0.15006711 -0.72237635
v 0.40998498 0.13002422 -0.71241999
v 0.42997763 0.13002422 -0.70877832
v 0.43501142 0.13002422 -0.70770192
v 0.43501142 0.45497060 -0.55453581
v 0.43501142 0.47046268 -0.55570185
v 0.19246407 0.46997857 -0.56851053
v 0.19246407 0.07008924 -0.71459067
v 0.21001107 0.09003529 -0.71717393
v 0.27001274 0.13002422 -0.72201753
v 0.22508866 0.13002422 -0.71959573
v 0.23508497 0.13002422 -0.72036713
v 0.25002009 0.15006711 -0.72171259
v 0.32999066 0.17001316 -0.72198164
v 0.34998330 0.18995921 -0.72106677
v 0.35124177 0.17088458 -0.72060031
v 0.35872120 0.16478458 -0.71990073
v 0.36999971 0.15006711 -0.71841174
v 0.38999236 0.15006711 -0.71600783
v 0.40998498 0.15006711 -0.71295816
v 0.29000539 0.15006711 -0.72269922
v 0.31002176 0.17001316 -0.72280687
v 0.42997763 0.15006711 -0.70933443
v 0.43501142 0.15006711 -0.70824015
v 0.43501142 0.47656268 -0.55622208
v 0.19246407 0.48992461 -0.57030451
v 0.19246407 0.09003529 -0.71512884
v 0.21001107 0.11007817 -0.71769416
v 0.27001274 0.15006711 -0.72246599
v 0.21001107 0.13002422 -0.71817851
v 0.22228682 0.15006711 -0.71981102
v 0.23228315 0.15006711 -0.72058237
v 0.25002009 0.17001316 -0.72210723
v 0.27001274 0.17001316 -0.72287863
v 0.32999066 0.18995921 -0.72237635
v 0.36147553 0.18995921 -0.72015184
v 0.36038327 0.17814650 -0.72002625
v 0.34998330 0.20990527 -0.72138965
v 0.36821887 0.17088458 -0.71905756
v 0.37147185 0.18995921 -0.71911138
v 0.38999236 0.17001316 -0.71645635
v 0.40998498 0.17001316 -0.71344250
v 0.42997763 0.17001316 -0.70983672
v 0.29000539 0.17001316 -0.72311187
v 0.31002176 0.18995921 -0.72318357
v 0.43501142 0.16497824 -0.70861685
v 0.43501142 0.48992461 -0.55745989
v 0.43501142 0.49253893 -0.55771106
v 0.19246407 0.49244207 -0.57055563
v 0.19246407 0.11007817 -0.71564907
v 0.19246407 0.13002422 -0.71613342
v 0.19246407 0.14754963 -0.71651018
v 0.21001107 0.15006711 -0.71860904
v 0.22067222 0.16284807 -0.71993655
v 0.22841284 0.16972268 -0.72067207
v 0.23000370 0.18995921 -0.72115648
v 0.25002009 0.18995921 -0.72246599
v 0.27001274 0.18995921 -0.72325534
v 0.32999066 0.20990527 -0.72268128
v 0.36311388 0.20990527 -0.72031331
v 0.37311020 0.20990527 -0.71929073
v 0.34998330 0.22994813 -0.72165877
v 0.38999236 0.18995921 -0.71686894
v 0.40998498 0.18995921 -0.71387309
v 0.42997763 0.18995921 -0.71028519
v 0.43501142 0.17001316 -0.70874244
v 0.43501142 0.18995921 -0.70920885
v 0.29000539 0.18995921 -0.72348857
v 0.31002176 0.20990527 -0.72348857
v 0.19246407 0.50996751 -0.57234955
v 0.43501142 0.50996751 -0.55950499
v 0.19246407 0.15006711 -0.71656400
v 0.19246407 0.16759251 -0.71690482
v 0.20813526 0.18995921 -0.71914726
v 0.21160191 0.16972268 -0.71914726
v 0.21931881 0.17611316 -0.72006214
v 0.21815532 0.18995921 -0.72018772
v 0.23000370 0.20990527 -0.72146142
v 0.25002009 0.20990527 -0.72275305
v 0.27001274 0.20990527 -0.72354239
v 0.29000539 0.20990527 -0.72379351
v 0.32999066 0.22994813 -0.72293246
v 0.36441982 0.22994813 -0.72043890
v 0.37441611 0.22994813 -0.71941632
v 0.38999236 0.20990527 -0.71722776
v 0.34998330 0.24999103 -0.72183812
v 0.40998498 0.20990527 -0.71424979
v 0.42997763 0.20990527 -0.71067989
v 0.43501142 0.20990527 -0.70960349
v 0.31002176 0.22994813 -0.72373974
v 0.43501142 0.51810086 -0.56040198
v 0.43501142 0.52575004 -0.56128097
v 0.19246407 0.52991354 -0.57466376
v 0.19246407 0.18995921 -0.71729946
v 0.20666313 0.20990527 -0.71930867
v 0.21665944 0.20990527 -0.72033125
v 0.23000370 0.22994813 -0.72169465
v 0.25002009 0.22994813 -0.72300422
v 0.27001274 0.22994813 -0.72379351
v 0.29000539 0.22994813 -0.72402674
v 0.32999066 0.24999103 -0.72311187
v 0.36529833 0.24999103 -0.72052860
v 0.37531841 0.24999103 -0.71950603
v 0.38999236 0.22994813 -0.71749681
v 0.40998498 0.22994813 -0.71453685
v 0.34998330 0.26993707 -0.72196370
v 0.36593944 0.26993707 -0.72060031
v 0.42997763 0.22994813 -0.71098483
v 0.43501142 0.22994813 -0.70992643
v 0.31002176 0.24999103 -0.72390115
v 0.43501142 0.53126913 -0.56194472
v 0.19246407 0.53252786 -0.57498664
v 0.19246407 0.20719415 -0.71756858
v 0.20542842 0.22994813 -0.71943426
v 0.21542475 0.22994813 -0.72045684
v 0.23000370 0.24999103 -0.72189194
v 0.25002009 0.24999103 -0.72318357
v 0.27001274 0.24999103 -0.72395498
v 0.29000539 0.24999103 -0.72418821
v 0.32999066 0.26993707 -0.72323740
v 0.38999236 0.24999103 -0.71769416
v 0.37595952 0.26993707 -0.71957779
v 0.40998498 0.24999103 -0.71475208
v 0.42997763 0.24999103 -0.71121806
v 0.34998330 0.28997996 -0.72203547
v 0.36631936 0.28997996 -0.72063619
v 0.43501142 0.24495609 -0.71010584
v 0.31002176 0.26993707 -0.72402674
v 0.43501142 0.54995644 -0.56443834
v 0.19246407 0.54976279 -0.57730085
v 0.19246407 0.22694655 -0.71783769
v 0.19246407 0.22994813 -0.71787357
v 0.20447865 0.24999103 -0.71954191
v 0.21447498 0.24999103 -0.72056442
v 0.23000370 0.26993707 -0.72203547
v 0.25002009 0.26993707 -0.72330916
v 0.27001274 0.26993707 -0.72408056
v 0.29000539 0.26993707 -0.72431380
v 0.31002176 0.28997996 -0.72409850
v 0.32999066 0.28997996 -0.72329122
v 0.38999236 0.26993707 -0.71783769
v 0.37631565 0.28997996 -0.71961367
v 0.38999236 0.28997996 -0.71792734
v 0.40998498 0.26993707 -0.71489561
v 0.42997763 0.26993707 -0.71137953
v 0.43501142 0.24999103 -0.71015966
v 0.43501142 0.26490214 -0.71028519
v 0.34998330 0.30992600 -0.72205341
v 0.36639059 0.30992600 -0.72063619
v 0.37638688 0.30992600 -0.71963161
v 0.43501142 0.55460405 -0.56513798
v 0.19246407 0.56535167 -0.57961500
v 0.19246407 0.24679577 -0.71805292
v 0.19246407 0.26993707 -0.71825027
v 0.20367135 0.26993707 -0.71961367
v 0.21369141 0.26993707 -0.72063619
v 0.23000370 0.28997996 -0.72214311
v 0.25002009 0.28997996 -0.72339886
v 0.27001274 0.28997996 -0.72415233
v 0.29000539 0.28997996 -0.72438550
v 0.29000539 0.30992600 -0.72442138
v 0.31002176 0.30992600 -0.72411644
v 0.32999066 0.30992600 -0.72330916
v 0.40998498 0.28997996 -0.71498531
v 0.38999236 0.30992600 -0.71792734
v 0.40998498 0.30992600 -0.71500325
v 0.42997763 0.28997996 -0.71146917
v 0.43501142 0.28494501 -0.71039283
v 0.43501142 0.26993707 -0.71032107
v 0.32999066 0.32996887 -0.72329122
v 0.34998330 0.32996887 -0.72199959
v 0.36612940 0.32996887 -0.72061825
v 0.37612572 0.32996887 -0.71959573
v 0.38999236 0.32996887 -0.71787357
v 0.43501142 0.56980568 -0.56752390
v 0.19246407 0.57396919 -0.58101428
v 0.19246407 0.28630060 -0.71835792
v 0.20310149 0.28997996 -0.71968544
v 0.21309781 0.28997996 -0.72069001
v 0.21271789 0.30992600 -0.72072589
v 0.23000370 0.30992600 -0.72219694
v 0.25002009 0.30992600 -0.72345269
v 0.27001274 0.30992600 -0.72418821
v 0.27001274 0.32996887 -0.72417027
v 0.29000539 0.32996887 -0.72438550
v 0.31002176 0.32996887 -0.72408056
v 0.42997763 0.30992600 -0.71148711
v 0.40998498 0.32996887 -0.71493149
v 0.43501142 0.30489108 -0.71042871
v 0.43501142 0.28997996 -0.71041077
v 0.31002176 0.34991494 -0.72399086
v 0.32999066 0.34991494 -0.72318357
v 0.34998330 0.34991494 -0.72189194
v 0.36546454 0.34991494 -0.72056442
v 0.37546086 0.34991494 -0.71952397
v 0.38999236 0.34991494 -0.71773005
v 0.43501142 0.58994538 -0.57134497
v 0.19246407 0.58994538 -0.58393836
v 0.19246407 0.57677710 -0.58149862
v 0.19246407 0.28997996 -0.71837586
v 0.19246407 0.30992600 -0.71846557
v 0.20272158 0.30992600 -0.71972132
v 0.20253164 0.32996887 -0.71973926
v 0.21255168 0.32996887 -0.72072589
v 0.23000370 0.32996887 -0.72221488
v 0.25002009 0.32996887 -0.72345269
v 0.27001274 0.34991494 -0.72409850
v 0.29000539 0.34991494 -0.72431380
v 0.43501142 0.30992600 -0.71042871
v 0.42997763 0.32996887 -0.71141541
v 0.40998498 0.34991494 -0.71478796
v 0.31002176 0.36995780 -0.72386527
v 0.32999066 0.36995780 -0.72304010
v 0.34998330 0.36995780 -0.72173053
v 0.36460975 0.36995780 -0.72047472
v 0.37462983 0.36995780 -0.71943426
v 0.38999236 0.36995780 -0.71753269
v 0.19246407 0.59246284 -0.58447659
v 0.43501142 0.60998827 -0.57608098
v 0.19246407 0.60998827 -0.58827972
v 0.19246407 0.32609588 -0.71850145
v 0.19246407 0.32996887 -0.71850145
v 0.19246407 0.34991494 -0.71848351
v 0.20272158 0.34991494 -0.71972132
v 0.21271789 0.34991494 -0.72070795
v 0.23000370 0.34991494 -0.72216105
v 0.23000370 0.36995780 -0.72208929
v 0.25002009 0.34991494 -0.72338092
v 0.27001274 0.36995780 -0.72400880
v 0.29000539 0.36995780 -0.72418821
v 0.43501142 0.32996887 -0.71035695
v 0.42997763 0.34991494 -0.71125394
v 0.40998498 0.36995780 -0.71459067
v 0.29000539 0.38990387 -0.72404468
v 0.31002176 0.38990387 -0.72370386
v 0.32999066 0.38990387 -0.72286069
v 0.34998330 0.38990387 -0.72151524
v 0.36351752 0.38990387 -0.72036713
v 0.37353760 0.38990387 -0.71930867
v 0.38999236 0.38990387 -0.71728158
v 0.43501142 0.62160730 -0.57941765
v 0.19246407 0.63012797 -0.59391266
v 0.19246407 0.36608481 -0.71842968
v 0.20307773 0.36995780 -0.71968544
v 0.21307406 0.36995780 -0.72067207
v 0.21366766 0.38990387 -0.72061825
v 0.23000370 0.38990387 -0.72196370
v 0.25002009 0.36995780 -0.72329122
v 0.25002009 0.38990387 -0.72316563
v 0.27001274 0.38990387 -0.72386527
v 0.43501142 0.34488001 -0.71023136
v 0.43501142 0.34991494 -0.71017754
v 0.42997763 0.36995780 -0.71103865
v 0.40998498 0.38990387 -0.71432155
v 0.29000539 0.40994674 -0.72386527
v 0.31002176 0.40994674 -0.72350651
v 0.32999066 0.40994674 -0.72262746
v 0.34998330 0.40994674 -0.72126406
v 0.36223534 0.40994674 -0.72022361
v 0.37223166 0.40994674 -0.71916521
v 0.38999236 0.40994674 -0.71697658
v 0.43501142 0.62412477 -0.58024287
v 0.43501142 0.63138670 -0.58277231
v 0.19246407 0.63177401 -0.59448671
v 0.19246407 0.36995780 -0.71841174
v 0.19246407 0.38990387 -0.71830410
v 0.20367135 0.38990387 -0.71963161
v 0.20445490 0.40994674 -0.71955985
v 0.21445122 0.40994674 -0.72052860
v 0.23000370 0.40994674 -0.72180223
v 0.25002009 0.40994674 -0.72300422
v 0.27001274 0.40994674 -0.72368592
v 0.43501142 0.36995780 -0.70996231
v 0.42997763 0.38990387 -0.71075165
v 0.40998498 0.40994674 -0.71399868
v 0.27001274 0.42998964 -0.72348857
v 0.29000539 0.42998964 -0.72363210
v 0.31002176 0.42998964 -0.72325534
v 0.32999066 0.42998964 -0.72237635
v 0.34347740 0.50996751 -0.72029537
v 0.34998330 0.42998964 -0.72097707
v 0.36081070 0.42998964 -0.72008008
v 0.37080699 0.42998964 -0.71900374
v 0.36999971 0.50996751 -0.71776593
v 0.38999236 0.42998964 -0.71665370
v 0.43501142 0.65075177 -0.59183168
v 0.19246407 0.64310259 -0.59852308
v 0.19246407 0.40636420 -0.71817851
v 0.19246407 0.42650390 -0.71799910
v 0.20542842 0.42998964 -0.71947014
v 0.21542475 0.42998964 -0.72043890
v 0.23000370 0.42998964 -0.72160494
v 0.25002009 0.42998964 -0.72280687
v 0.43501142 0.38990387 -0.70967525
v 0.42997763 0.40994674 -0.71041077
v 0.43501142 0.40491182 -0.70942414
v 0.38999236 0.50996751 -0.71525443
v 0.40998498 0.42998964 -0.71363986
v 0.25002009 0.46997857 -0.72234046
v 0.25002009 0.48992461 -0.72210723
v 0.27001274 0.48992461 -0.72275305
v 0.29000539 0.44993567 -0.72338092
v 0.31002176 0.44993567 -0.72298628
v 0.29000539 0.48992461 -0.72286069
v 0.32999066 0.46997857 -0.72178435
v 0.31002176 0.48992461 -0.72243011
v 0.31002176 0.50996751 -0.72214311
v 0.34034315 0.54172629 -0.72002625
v 0.35155043 0.52991354 -0.71927279
v 0.35347372 0.50996751 -0.71943426
v 0.35537326 0.48992461 -0.71959573
v 0.36002713 0.44015634 -0.71999037
v 0.35121801 0.44809598 -0.72060031
v 0.34718150 0.46997857 -0.72060031
v 0.36999971 0.52991354 -0.71740711
v 0.19246407 0.65288192 -0.60358196
v 0.43501142 0.66149944 -0.59857690
v 0.19246407 0.42998964 -0.71796322
v 0.19246407 0.46697700 -0.71755064
v 0.19246407 0.46997857 -0.71751475
v 0.20775536 0.46997857 -0.71923697
v 0.21893889 0.48992461 -0.72009802
v 0.23000370 0.46997857 -0.72115648
v 0.43501142 0.40994674 -0.70933443
v 0.42997763 0.42998964 -0.71005201
v 0.36999971 0.56999934 -0.71667159
v 0.38999236 0.54995644 -0.71450096
v 0.40998498 0.50996751 -0.71218675
v 0.23000370 0.48992461 -0.72092324
v 0.25002009 0.50996751 -0.72183812
v 0.27001274 0.50996751 -0.72248399
v 0.29000539 0.50996751 -0.72257364
v 0.32999066 0.50996751 -0.72117436
v 0.29000539 0.52991354 -0.72226870
v 0.29000539 0.54995644 -0.72194576
v 0.31002176 0.52991354 -0.72182024
v 0.32999066 0.52991354 -0.72085148
v 0.33113039 0.54898816 -0.72045684
v 0.33853859 0.55499136 -0.71990073
v 0.34998330 0.56999934 -0.71866286
v 0.34820250 0.54898816 -0.71921897
v 0.19246407 0.65491527 -0.60492742
v 0.43501142 0.66905183 -0.60871261
v 0.19246407 0.66624385 -0.61369973
v 0.19246407 0.50735319 -0.71704835
v 0.20894256 0.48992461 -0.71911138
v 0.21186310 0.50909609 -0.71914726
v 0.21974620 0.50183415 -0.72000831
v 0.43501142 0.42998964 -0.70897561
v 0.42997763 0.48992461 -0.70893973
v 0.43501142 0.50996751 -0.70750463
v 0.34998330 0.58994538 -0.71821439
v 0.36999971 0.58994538 -0.71620518
v 0.38999236 0.56999934 -0.71410626
v 0.40998498 0.52991354 -0.71181005
v 0.42997763 0.50996751 -0.70856303
v 0.22855531 0.50909609 -0.72056442
v 0.23252058 0.52991354 -0.72052860
v 0.23496625 0.54995644 -0.72036713
v 0.25002009 0.52991354 -0.72153318
v 0.27001274 0.52991354 -0.72217900
v 0.27001274 0.54995644 -0.72185606
v 0.29000539 0.56999934 -0.72156906
v 0.31002176 0.54995644 -0.72147936
v 0.32621533 0.56999934 -0.72036713
v 0.33621165 0.56999934 -0.71975720
v 0.19246407 0.67631370 -0.62998867
v 0.43501142 0.67854071 -0.62758482
v 0.19246407 0.52991354 -0.71668953
v 0.21001107 0.52991354 -0.71864492
v 0.22090966 0.51519608 -0.71991861
v 0.42997763 0.52991354 -0.70818627
v 0.43501142 0.52991354 -0.70710993
v 0.32984820 0.59188187 -0.71961367
v 0.34998330 0.60998827 -0.71740711
v 0.36999971 0.60998827 -0.71541584
v 0.38999236 0.58994538 -0.71362191
v 0.40998498 0.56999934 -0.71100277
v 0.40998498 0.54995644 -0.71141541
v 0.22252427 0.52991354 -0.71981102
v 0.22496992 0.54995644 -0.71963161
v 0.23772058 0.56999934 -0.72015184
v 0.25002009 0.54995644 -0.72119236
v 0.27001274 0.56999934 -0.72147936
v 0.29000539 0.58994538 -0.72108471
v 0.31002176 0.56999934 -0.72110265
v 0.32308111 0.58645964 -0.72016978
v 0.19246407 0.67718512 -0.63197994
v 0.43501142 0.68028355 -0.63757706
v 0.19246407 0.67999309 -0.63972974
v 0.19246407 0.54753578 -0.71636665
v 0.21001107 0.54995644 -0.71828616
v 0.42997763 0.54995644 -0.70777369
v 0.43501142 0.54492152 -0.70680499
v 0.31987563 0.59982157 -0.71999037
v 0.32999066 0.60998827 -0.71886021
v 0.34998330 0.62993431 -0.71529031
v 0.36999971 0.62993431 -0.71331698
v 0.38999236 0.60998827 -0.71281463
v 0.40998498 0.58994538 -0.71048254
v 0.42997763 0.56999934 -0.70734316
v 0.21001107 0.56999934 -0.71787357
v 0.22772425 0.56999934 -0.71941632
v 0.23945391 0.58132792 -0.72002625
v 0.25002009 0.56999934 -0.72079766
v 0.24994886 0.58878344 -0.72033125
v 0.27001274 0.58994538 -0.72097707
v 0.27001274 0.60630888 -0.72033125
v 0.29000539 0.60737395 -0.72038507
v 0.30655512 0.60446918 -0.72022361
v 0.31194505 0.59188187 -0.72051060
v 0.43501142 0.68038040 -0.65008074
v 0.42997763 0.68047720 -0.64999104
v 0.19246407 0.68028355 -0.64986551
v 0.19246407 0.68008989 -0.64091372
v 0.19246407 0.56999934 -0.71590024
v 0.43501142 0.54995644 -0.70669734
v 0.31194505 0.61066604 -0.71970338
v 0.32999066 0.62993431 -0.71672541
v 0.34998330 0.64997721 -0.70913708
v 0.36999971 0.64997721 -0.70723552
v 0.38999236 0.62993431 -0.71071577
v 0.40998498 0.64697558 -0.70298392
v 0.40998498 0.60998827 -0.70962143
v 0.40998498 0.62993431 -0.70754051
v 0.42997763 0.58994538 -0.70678705
v 0.43501142 0.56999934 -0.70626676
v 0.43501142 0.58491045 -0.70585418
v 0.21001107 0.58994538 -0.71735328
v 0.23168954 0.58878344 -0.71923697
v 0.24322924 0.59468985 -0.71984684
v 0.25654975 0.60292000 -0.72015184
v 0.27001274 0.61628193 -0.71979308
v 0.29000539 0.61744380 -0.71984684
v 0.43501142 0.68028355 -0.65454763
v 0.40998498 0.68028355 -0.66140050
v 0.36999971 0.68038040 -0.66310471
v 0.31002176 0.68038040 -0.66584945
v 0.29000539 0.68038040 -0.66665673
v 0.27001274 0.68038040 -0.66694373
v 0.25002009 0.68038040 -0.66610062
v 0.25002009 0.68038040 -0.65485263
v 0.19246407 0.68028355 -0.65164149
v 0.19246407 0.58752471 -0.71543378
v 0.31002176 0.62993431 -0.71767622
v 0.32999066 0.64997721 -0.71051842
v 0.34998330 0.66266131 -0.70228428
v 0.36999971 0.66159624 -0.70136935
v 0.38403255 0.66062796 -0.70054412
v 0.39735305 0.65917557 -0.69957542
v 0.39041972 0.65152639 -0.70398849
v 0.42997763 0.64281207 -0.70115405
v 0.43501142 0.64165020 -0.70066971
v 0.40998498 0.65694863 -0.69846320
v 0.42997763 0.60998827 -0.70592594
v 0.42997763 0.62993431 -0.70384496
v 0.43501142 0.59033269 -0.70569271
v 0.43501142 0.60998827 -0.70484960
v 0.19246407 0.58994538 -0.71536207
v 0.21001107 0.60998827 -0.71654606
v 0.23000370 0.60998827 -0.71825027
v 0.24994886 0.60979462 -0.71947014
v 0.25002009 0.62993431 -0.71735328
v 0.27001274 0.62993431 -0.71801704
v 0.29000539 0.62993431 -0.71812469
v 0.43501142 0.68008989 -0.66039586
v 0.32999066 0.67950898 -0.67492676
v 0.31002176 0.67960578 -0.67584169
v 0.29000539 0.67970264 -0.67664891
v 0.27001274 0.67970264 -0.67695391
v 0.21001107 0.68028355 -0.66337383
v 0.25002009 0.67970264 -0.67611074
v 0.19246407 0.68018675 -0.66227949
v 0.29000539 0.64997721 -0.71191770
v 0.31002176 0.64997721 -0.71143329
v 0.32999066 0.66343594 -0.70294803
v 0.34998330 0.67205340 -0.68999583
v 0.36999971 0.67069781 -0.68999583
v 0.39041972 0.66721213 -0.69173592
v 0.40998498 0.66769624 -0.68845302
v 0.42997763 0.66653436 -0.68658733
v 0.43501142 0.66605020 -0.68606710
v 0.42997763 0.65278512 -0.69657958
v 0.43501142 0.62993431 -0.70282245
v 0.43501142 0.64687878 -0.69826585
v 0.19246407 0.60747081 -0.71464443
v 0.19246407 0.60998827 -0.71453685
v 0.19246407 0.62751365 -0.71274292
v 0.21001107 0.62993431 -0.71450096
v 0.23000370 0.62993431 -0.71618724
v 0.23000370 0.64997721 -0.71017754
v 0.25002009 0.64997721 -0.71127188
v 0.27001274 0.64997721 -0.71188182
v 0.43501142 0.67631370 -0.66992170
v 0.42997763 0.67650735 -0.67060339
v 0.40998498 0.67766929 -0.67141062
v 0.38999236 0.67844385 -0.67227173
v 0.36999971 0.67902482 -0.67309695
v 0.34998330 0.67931533 -0.67394006
v 0.32999066 0.67292482 -0.68999583
v 0.31002176 0.67350578 -0.68999583
v 0.29000539 0.67389309 -0.68999583
v 0.27001274 0.67398989 -0.68999583
v 0.19246407 0.68008989 -0.66351736
v 0.23000370 0.67950898 -0.67469352
v 0.25002009 0.67360258 -0.68999583
v 0.23000370 0.67292482 -0.68999583
v 0.27001274 0.66411370 -0.70364761
v 0.29000539 0.66411370 -0.70364761
v 0.31002176 0.66382325 -0.70339650
v 0.43501142 0.65152639 -0.69609517
v 0.19246407 0.62993431 -0.71249175
v 0.19246407 0.64997721 -0.70671529
v 0.21001107 0.64997721 -0.70861685
v 0.21001107 0.66256452 -0.70212281
v 0.23000370 0.66333908 -0.70285833
v 0.25002009 0.66392004 -0.70336062
v 0.21001107 0.67921847 -0.67336601
v 0.19246407 0.67892802 -0.67228967
v 0.19246407 0.67805660 -0.67433476
v 0.21001107 0.67185974 -0.68999583
v 0.19246407 0.65995020 -0.70201516
v 0.19246407 0.66934228 -0.69148475
v 0.19246407 0.66149944 -0.70120788
v 0.19246407 0.67040735 -0.68999583
f 1 2 12
f 1 12 22
f 1 22 33
f 1 33 48
f 1 48 66
f 1 66 89
f 1 89 120
f 1 120 119
f 1 119 118
f 1 118 152
f 1 152 184
f 1 184 183
f 1 183 208
f 1 208 225
f 1 225 242
f 1 242 260
f 1 260 275
f 1 275 293
f 1 293 317
f 1 317 319
f 1 319 350
f 1 350 384
f 1 384 403
f 1 403 426
f 1 426 447
f 1 447 470
f 1 470 489
f 1 489 507
f 1 507 529
f 1 529 553
f 1 553 576
f 1 576 575
f 1 575 595
f 1 595 597
f 1 597 619
f 1 619 641
f 1 641 664
f 1 664 693
f 1 693 719
f 1 719 721
f 1 721 744
f 1 744 765
f 1 765 767
f 1 767 792
f 1 792 791
f 1 791 820
f 1 820 850
f 1 850 881
f 1 881 896
f 1 896 897
f 1 897 902
f 1 902 900
f 1 900 901
f 1 901 899
f 1 899 890
f 1 890 889
f 1 889 865
f 1 865 864
f 1 864 863
f 1 863 836
f 1 836 821
f 1 821 793
f 1 793 768
f 1 768 746
f 1 746 722
f 1 722 697
f 1 697 696
f 1 696 695
f 1 695 666
f 1 666 665
f 1 665 643
f 1 643 642
f 1 642 620
f 1 620 600
f 1 600 599
f 1 599 598
f 1 598 578
f 1 578 577
f 1 577 554
f 1 554 531
f 1 531 530
f 1 530 509
f 1 509 508
f 1 508 490
f 1 490 471
f 1 471 450
f 1 450 449
f 1 449 429
f 1 429 428
f 1 428 427
f 1 427 404
f 1 404 385
f 1 385 351
f 1 351 320
f 1 320 295
f 1 295 277
f 1 277 261
f 1 261 244
f 1 244 226
f 1 226 209
f 1 209 186
f 1 186 185
f 1 185 153
f 1 153 123
f 1 123 122
f 1 122 90
f 1 90 67
f 1 67 50
f 1 50 49
f 1 49 36
f 1 36 35
f 1 35 34
f 1 34 23
f 1 23 13
f 1 13 3
f 1 3 4
f 1 4 5
f 1 5 6
f 1 6 19
f 1 19 18
f 1 18 17
f 1 17 29
f 1 29 42
f 1 42 41
f 1 41 53
f 1 53 70
f 1 70 93
f 1 93 126
f 1 126 159
f 1 159 158
f 1 158 190
f 1 190 172
f 1 172 138
f 1 138 103
f 1 103 80
f 1 80 79
f 1 79 78
f 1 78 58
f 1 58 43
f 1 43 30
f 1 30 20
f 1 20 7
f 1 7 2
f 2 7 8
f 2 8 9
f 2 9 10
f 2 10 11
f 2 11 12
f 3 13 14
f 3 14 4
f 4 15 16
f 4 16 5
f 4 14 15
f 5 16 17
f 5 17 18
f 5 18 19
f 5 19 6
f 7 20 31
f 7 31 46
f 7 46 61
f 7 61 60
f 7 60 83
f 7 83 107
f 7 107 115
f 7 115 114
f 7 114 148
f 7 148 178
f 7 178 202
f 7 202 206
f 7 206 205
f 7 205 223
f 7 223 222
f 7 222 239
f 7 239 258
f 7 258 274
f 7 274 292
f 7 292 291
f 7 291 313
f 7 313 312
f 7 312 316
f 7 316 348
f 7 348 381
f 7 381 401
f 7 401 423
f 7 423 443
f 7 443 444
f 7 444 466
f 7 466 486
f 7 486 504
f 7 504 523
f 7 523 524
f 7 524 546
f 7 546 545
f 7 545 567
f 7 567 566
f 7 566 586
f 7 586 608
f 7 608 628
f 7 628 629
f 7 629 650
f 7 650 671
f 7 671 673
f 7 673 701
f 7 701 726
f 7 726 728
f 7 728 750
f 7 750 771
f 7 771 794
f 7 794 804
f 7 804 805
f 7 805 834
f 7 834 835
f 7 835 861
f 7 861 830
f 7 830 862
f 7 862 888
f 7 888 859
f 7 859 871
f 7 871 843
f 7 843 812
f 7 812 789
f 7 789 766
f 7 766 745
f 7 745 720
f 7 720 694
f 7 694 663
f 7 663 640
f 7 640 639
f 7 639 618
f 7 618 596
f 7 596 574
f 7 574 552
f 7 552 528
f 7 528 506
f 7 506 488
f 7 488 469
f 7 469 468
f 7 468 448
f 7 448 425
f 7 425 424
f 7 424 402
f 7 402 383
f 7 383 382
f 7 382 349
f 7 349 318
f 7 318 294
f 7 294 276
f 7 276 259
f 7 259 241
f 7 241 240
f 7 240 224
f 7 224 207
f 7 207 182
f 7 182 151
f 7 151 121
f 7 121 88
f 7 88 65
f 7 65 47
f 7 47 32
f 7 32 21
f 7 21 11
f 7 11 10
f 7 10 9
f 7 9 8
f 11 21 22
f 11 22 12
f 13 23 14
f 14 23 24
f 14 24 25
f 14 25 15
f 15 26 16
f 15 25 27
f 15 27 26
f 16 26 28
f 16 28 29
f 16 29 17
f 20 30 31
f 21 32 22
f 22 32 33
f 23 34 24
f 24 34 35
f 24 35 36
f 24 36 37
f 24 37 25
f 25 37 39
f 25 39 27
f 26 27 40
f 26 40 38
f 26 38 28
f 27 39 40
f 28 38 41
f 28 41 42
f 28 42 29
f 30 43 44
f 30 44 31
f 31 44 45
f 31 45 46
f 32 47 48
f 32 48 33
f 36 49 37
f 37 49 50
f 37 50 51
f 37 51 54
f 37 54 39
f 38 52 53
f 38 53 41
f 38 40 52
f 39 54 73
f 39 73 55
f 39 55 40
f 40 55 56
f 40 56 57
f 40 57 52
f 43 58 44
f 44 58 59
f 44 59 62
f 44 62 45
f 45 60 61
f 45 61 46
f 45 62 63
f 45 63 64
f 45 64 60
f 47 65 48
f 48 65 66
f 50 67 51
f 51 67 68
f 51 68 71
f 51 71 54
f 52 69 70
f 52 70 53
f 52 57 77
f 52 77 69
f 54 71 72
f 54 72 73
f 55 73 56
f 56 73 74
f 56 74 75
f 56 75 76
f 56 76 77
f 56 77 57
f 58 78 59
f 59 78 79
f 59 79 80
f 59 80 81
f 59 81 82
f 59 82 62
f 60 64 83
f 62 82 84
f 62 84 63
f 63 84 85
f 63 85 86
f 63 86 87
f 63 87 64
f 64 87 83
f 65 88 89
f 65 89 66
f 67 90 68
f 68 90 122
f 68 122 91
f 68 91 94
f 68 94 71
f 69 92 93
f 69 93 70
f 69 77 92
f 71 94 95
f 71 95 72
f 72 74 73
f 72 95 96
f 72 96 97
f 72 97 74
f 74 97 99
f 74 99 75
f 75 98 101
f 75 101 76
f 75 99 100
f 75 100 98
f 76 101 102
f 76 102 77
f 77 102 92
f 80 103 81
f 81 103 104
f 81 104 105
f 81 105 82
f 82 105 106
f 82 106 84
f 83 87 107
f 84 106 108
f 84 108 85
f 85 109 110
f 85 110 111
f 85 111 86
f 85 108 109
f 86 111 112
f 86 112 113
f 86 113 87
f 87 114 115
f 87 115 107
f 87 113 116
f 87 116 117
f 87 117 114
f 88 118 119
f 88 119 120
f 88 120 89
f 88 121 118
f 91 122 123
f 91 123 124
f 91 124 127
f 91 127 94
f 92 125 126
f 92 126 93
f 92 102 137
f 92 137 125
f 94 127 128
f 94 128 95
f 95 128 129
f 95 129 96
f 96 130 99
f 96 99 97
f 96 129 131
f 96 131 130
f 98 132 136
f 98 136 101
f 98 100 133
f 98 133 132
f 99 130 134
f 99 134 100
f 100 134 135
f 100 135 133
f 101 136 137
f 101 137 102
f 103 138 104
f 104 139 140
f 104 140 105
f 104 138 139
f 105 141 106
f 105 140 141
f 106 141 142
f 106 142 108
f 108 142 143
f 108 143 109
f 109 143 110
f 110 144 145
f 110 145 111
f 110 143 144
f 111 145 112
f 112 145 146
f 112 146 147
f 112 147 116
f 112 116 113
f 114 117 148
f 116 147 149
f 116 149 117
f 117 149 150
f 117 150 178
f 117 178 148
f 118 121 151
f 118 151 152
f 123 153 154
f 123 154 124
f 124 154 155
f 124 155 127
f 125 156 157
f 125 157 158
f 125 158 159
f 125 159 126
f 125 137 160
f 125 160 156
f 127 155 161
f 127 161 128
f 128 161 162
f 128 162 129
f 129 162 163
f 129 163 131
f 130 131 165
f 130 165 134
f 131 163 164
f 131 164 165
f 132 166 171
f 132 171 136
f 132 133 167
f 132 167 166
f 133 135 168
f 133 168 167
f 134 165 169
f 134 169 170
f 134 170 135
f 135 170 194
f 135 194 168
f 136 171 160
f 136 160 137
f 138 172 139
f 139 157 156
f 139 156 140
f 139 172 157
f 140 156 160
f 140 160 141
f 141 160 142
f 142 160 171
f 142 171 143
f 143 171 166
f 143 166 144
f 144 166 167
f 144 167 168
f 144 168 173
f 144 173 145
f 145 173 174
f 145 174 146
f 146 174 175
f 146 175 176
f 146 176 147
f 147 177 149
f 147 176 177
f 149 177 176
f 149 176 179
f 149 179 150
f 150 179 180
f 150 180 181
f 150 181 178
f 151 182 183
f 151 183 184
f 151 184 152
f 153 185 154
f 154 185 186
f 154 186 187
f 154 187 188
f 154 188 155
f 155 188 189
f 155 189 161
f 157 172 190
f 157 190 158
f 161 189 191
f 161 191 162
f 162 191 192
f 162 192 163
f 163 192 193
f 163 193 164
f 164 193 195
f 164 195 169
f 164 169 165
f 168 194 174
f 168 174 173
f 169 195 196
f 169 196 197
f 169 197 194
f 169 194 170
f 174 194 197
f 174 197 198
f 174 198 175
f 175 198 199
f 175 199 200
f 175 200 201
f 175 201 176
f 176 201 179
f 178 181 202
f 179 201 203
f 179 203 181
f 179 181 180
f 181 203 220
f 181 220 204
f 181 204 205
f 181 205 206
f 181 206 202
f 182 207 183
f 183 207 208
f 186 209 210
f 186 210 187
f 187 210 211
f 187 211 188
f 188 211 212
f 188 212 189
f 189 212 213
f 189 213 191
f 191 213 192
f 192 213 214
f 192 214 215
f 192 215 193
f 193 215 195
f 195 215 216
f 195 216 217
f 195 217 196
f 196 217 218
f 196 218 199
f 196 199 198
f 196 198 197
f 199 218 219
f 199 219 200
f 200 219 221
f 200 221 201
f 201 220 203
f 201 221 220
f 204 220 222
f 204 222 223
f 204 223 205
f 207 224 208
f 208 224 225
f 209 226 227
f 209 227 210
f 210 227 228
f 210 228 211
f 211 228 229
f 211 229 212
f 212 229 230
f 212 230 213
f 213 230 231
f 213 231 214
f 214 231 232
f 214 232 215
f 215 232 233
f 215 233 216
f 216 233 234
f 216 234 217
f 217 234 235
f 217 235 218
f 218 235 236
f 218 236 219
f 219 236 237
f 219 237 221
f 220 221 237
f 220 237 238
f 220 238 222
f 222 238 239
f 224 240 225
f 225 240 241
f 225 241 242
f 226 243 227
f 226 244 245
f 226 245 243
f 227 243 228
f 228 243 246
f 228 246 247
f 228 247 229
f 229 247 230
f 230 247 248
f 230 248 249
f 230 249 231
f 231 249 232
f 232 249 250
f 232 250 251
f 232 251 233
f 233 251 252
f 233 252 234
f 234 252 253
f 234 253 235
f 235 253 254
f 235 254 236
f 236 254 255
f 236 255 237
f 237 256 238
f 237 255 257
f 237 257 256
f 238 256 239
f 239 256 258
f 241 259 275
f 241 275 260
f 241 260 242
f 243 245 246
f 244 261 245
f 245 261 262
f 245 262 263
f 245 263 246
f 246 263 264
f 246 264 247
f 247 264 248
f 248 264 265
f 248 265 249
f 249 265 266
f 249 266 267
f 249 267 250
f 250 267 268
f 250 268 251
f 251 268 269
f 251 269 252
f 252 269 270
f 252 270 253
f 253 270 271
f 253 271 254
f 254 271 272
f 254 272 255
f 255 272 273
f 255 273 257
f 256 257 274
f 256 274 258
f 257 273 274
f 259 276 275
f 261 277 262
f 262 277 278
f 262 278 279
f 262 279 263
f 263 279 264
f 264 279 280
f 264 280 265
f 265 280 281
f 265 281 282
f 265 282 266
f 266 282 283
f 266 283 267
f 267 283 268
f 268 283 284
f 268 284 285
f 268 285 286
f 268 286 269
f 269 286 287
f 269 287 270
f 270 287 288
f 270 288 271
f 271 288 289
f 271 289 272
f 272 289 290
f 272 290 273
f 273 291 292
f 273 292 274
f 273 290 291
f 275 276 293
f 276 294 293
f 277 295 278
f 278 296 279
f 278 295 320
f 278 320 297
f 278 297 321
f 278 321 296
f 279 296 280
f 280 296 298
f 280 298 299
f 280 299 281
f 281 299 282
f 282 299 300
f 282 300 301
f 282 301 283
f 283 301 284
f 284 302 303
f 284 303 304
f 284 304 305
f 284 305 285
f 284 301 306
f 284 306 302
f 285 305 307
f 285 307 308
f 285 308 309
f 285 309 287
f 285 287 286
f 287 309 310
f 287 310 288
f 288 310 311
f 288 311 289
f 289 311 290
f 290 312 313
f 290 313 291
f 290 311 314
f 290 314 315
f 290 315 316
f 290 316 312
f 293 294 317
f 294 318 319
f 294 319 317
f 296 321 298
f 297 320 322
f 297 322 352
f 297 352 321
f 298 323 324
f 298 324 299
f 298 321 325
f 298 325 323
f 299 324 326
f 299 326 327
f 299 327 300
f 300 327 328
f 300 328 329
f 300 329 301
f 301 329 330
f 301 330 306
f 302 306 303
f 303 306 331
f 303 331 304
f 304 331 332
f 304 332 333
f 304 333 305
f 305 334 335
f 305 335 336
f 305 336 307
f 305 333 334
f 306 337 338
f 306 338 339
f 306 339 332
f 306 332 340
f 306 340 331
f 306 330 341
f 306 341 337
f 307 342 308
f 307 336 343
f 307 343 344
f 307 344 342
f 308 342 309
f 309 342 310
f 310 342 314
f 310 314 311
f 314 342 345
f 314 345 346
f 314 346 347
f 314 347 315
f 315 347 316
f 316 347 346
f 316 346 348
f 318 349 319
f 319 349 350
f 320 351 322
f 321 352 325
f 322 351 353
f 322 353 360
f 322 360 352
f 323 354 355
f 323 355 324
f 323 325 356
f 323 356 354
f 324 355 357
f 324 357 358
f 324 358 326
f 325 359 356
f 325 352 360
f 325 360 361
f 325 361 362
f 325 362 363
f 325 363 364
f 325 364 365
f 325 365 359
f 326 358 327
f 327 358 366
f 327 366 328
f 328 366 329
f 329 366 367
f 329 367 338
f 329 338 337
f 329 337 330
f 330 337 341
f 331 340 332
f 332 339 368
f 332 368 333
f 333 368 369
f 333 369 335
f 333 335 370
f 333 370 371
f 333 371 334
f 334 371 335
f 335 371 370
f 335 369 372
f 335 372 373
f 335 373 374
f 335 374 375
f 335 375 336
f 336 375 376
f 336 376 343
f 338 367 377
f 338 377 339
f 339 377 398
f 339 398 378
f 339 378 368
f 342 344 345
f 343 345 344
f 343 376 379
f 343 379 345
f 345 379 380
f 345 380 346
f 346 380 381
f 346 381 348
f 349 382 350
f 350 382 383
f 350 383 384
f 351 385 353
f 353 385 386
f 353 386 362
f 353 362 360
f 354 356 355
f 355 356 359
f 355 359 365
f 355 365 364
f 355 364 387
f 355 387 357
f 357 387 377
f 357 377 367
f 357 367 366
f 357 366 358
f 360 362 361
f 362 388 389
f 362 389 363
f 362 386 388
f 363 389 390
f 363 390 364
f 364 390 406
f 364 406 387
f 368 378 399
f 368 399 391
f 368 391 372
f 368 372 369
f 372 391 392
f 372 392 393
f 372 393 394
f 372 394 373
f 373 394 374
f 374 394 395
f 374 395 396
f 374 396 376
f 374 376 375
f 376 396 397
f 376 397 379
f 377 387 398
f 378 398 399
f 379 397 400
f 379 400 380
f 380 400 381
f 381 400 401
f 383 402 384
f 384 402 403
f 385 404 386
f 386 404 427
f 386 427 405
f 386 405 388
f 387 406 398
f 388 407 408
f 388 408 409
f 388 409 389
f 388 405 407
f 389 409 410
f 389 410 390
f 390 410 411
f 390 411 406
f 391 399 412
f 391 412 392
f 392 413 414
f 392 414 394
f 392 394 393
f 392 412 415
f 392 415 413
f 394 414 395
f 395 414 416
f 395 416 417
f 395 417 418
f 395 418 396
f 396 418 419
f 396 419 397
f 397 419 420
f 397 420 400
f 398 406 411
f 398 411 421
f 398 421 399
f 399 422 412
f 399 421 445
f 399 445 422
f 400 420 423
f 400 423 401
f 402 424 403
f 403 424 425
f 403 425 426
f 405 427 428
f 405 428 407
f 407 428 429
f 407 429 430
f 407 430 431
f 407 431 408
f 408 431 432
f 408 432 409
f 409 432 433
f 409 433 410
f 410 433 434
f 410 434 435
f 410 435 411
f 411 435 445
f 411 445 421
f 412 422 446
f 412 446 436
f 412 436 415
f 413 417 414
f 413 415 437
f 413 437 438
f 413 438 417
f 414 417 416
f 415 436 439
f 415 439 437
f 417 440 418
f 417 438 440
f 418 440 441
f 418 441 419
f 419 441 442
f 419 442 420
f 420 443 423
f 420 442 444
f 420 444 443
f 422 445 458
f 422 458 446
f 425 447 426
f 425 448 447
f 429 449 430
f 430 449 450
f 430 450 451
f 430 451 452
f 430 452 453
f 430 453 431
f 431 453 433
f 431 433 432
f 433 453 454
f 433 454 455
f 433 455 434
f 434 455 456
f 434 456 457
f 434 457 435
f 435 457 458
f 435 458 445
f 436 446 467
f 436 467 459
f 436 459 439
f 437 439 460
f 437 460 461
f 437 461 438
f 438 461 462
f 438 462 440
f 439 459 478
f 439 478 463
f 439 463 460
f 440 462 464
f 440 464 441
f 441 464 465
f 441 465 442
f 442 465 466
f 442 466 444
f 446 458 467
f 447 448 468
f 447 468 469
f 447 469 470
f 450 471 451
f 451 454 452
f 451 471 472
f 451 472 454
f 452 454 453
f 454 472 473
f 454 473 455
f 455 473 474
f 455 474 475
f 455 475 456
f 456 475 476
f 456 476 457
f 457 476 458
f 458 476 477
f 458 477 467
f 459 467 478
f 460 463 479
f 460 479 480
f 460 480 461
f 461 480 481
f 461 481 462
f 462 481 482
f 462 482 464
f 463 478 497
f 463 497 483
f 463 483 484
f 463 484 479
f 464 482 485
f 464 485 465
f 465 485 486
f 465 486 466
f 467 477 496
f 467 496 487
f 467 487 478
f 469 488 470
f 470 488 489
f 471 490 472
f 472 491 492
f 472 492 473
f 472 490 491
f 473 492 474
f 474 492 493
f 474 493 475
f 475 493 494
f 475 494 476
f 476 494 495
f 476 495 496
f 476 496 477
f 478 487 505
f 478 505 497
f 479 484 499
f 479 499 480
f 480 498 481
f 480 499 498
f 481 498 500
f 481 500 482
f 482 500 501
f 482 501 485
f 483 497 502
f 483 502 484
f 484 502 503
f 484 503 499
f 485 501 504
f 485 504 486
f 487 496 515
f 487 515 505
f 488 506 489
f 489 506 507
f 490 508 491
f 491 508 509
f 491 509 510
f 491 510 511
f 491 511 492
f 492 511 493
f 493 511 512
f 493 512 494
f 494 512 513
f 494 513 514
f 494 514 495
f 495 514 515
f 495 515 496
f 497 505 516
f 497 516 517
f 497 517 502
f 498 499 518
f 498 518 521
f 498 521 500
f 499 503 519
f 499 519 520
f 499 520 518
f 500 521 522
f 500 522 501
f 501 523 504
f 501 522 524
f 501 524 523
f 502 517 540
f 502 540 525
f 502 525 503
f 503 525 526
f 503 526 527
f 503 527 519
f 505 515 537
f 505 537 516
f 506 528 529
f 506 529 507
f 509 530 510
f 510 530 531
f 510 531 532
f 510 532 511
f 511 532 533
f 511 533 512
f 512 533 534
f 512 534 513
f 513 534 535
f 513 535 514
f 514 535 536
f 514 536 537
f 514 537 515
f 516 537 538
f 516 538 539
f 516 539 540
f 516 540 517
f 518 520 541
f 518 541 521
f 519 527 520
f 520 527 542
f 520 542 543
f 520 543 541
f 521 541 544
f 521 544 522
f 522 544 545
f 522 545 546
f 522 546 524
f 525 540 547
f 525 547 548
f 525 548 549
f 525 549 526
f 526 549 527
f 527 549 550
f 527 550 551
f 527 551 542
f 528 552 529
f 529 552 553
f 531 554 555
f 531 555 532
f 532 555 533
f 533 555 556
f 533 556 534
f 534 556 557
f 534 557 558
f 534 558 559
f 534 559 535
f 535 559 536
f 536 559 560
f 536 560 538
f 536 538 537
f 538 560 561
f 538 561 562
f 538 562 563
f 538 563 539
f 539 563 547
f 539 547 540
f 541 543 564
f 541 564 544
f 542 551 543
f 543 551 565
f 543 565 587
f 543 587 564
f 544 564 566
f 544 566 567
f 544 567 545
f 547 563 568
f 547 568 569
f 547 569 570
f 547 570 548
f 548 570 549
f 549 570 571
f 549 571 550
f 550 571 572
f 550 572 573
f 550 573 551
f 551 573 588
f 551 588 565
f 552 574 575
f 552 575 576
f 552 576 553
f 554 577 555
f 555 577 578
f 555 578 579
f 555 579 557
f 555 557 556
f 557 579 580
f 557 580 581
f 557 581 582
f 557 582 558
f 558 582 559
f 559 582 583
f 559 583 560
f 560 583 561
f 561 583 605
f 561 605 584
f 561 584 585
f 561 585 562
f 562 585 563
f 563 585 568
f 564 586 566
f 564 587 608
f 564 608 586
f 565 588 587
f 568 585 607
f 568 607 589
f 568 589 569
f 569 589 590
f 569 590 570
f 570 590 591
f 570 591 571
f 571 591 592
f 571 592 593
f 571 593 572
f 572 593 573
f 573 593 594
f 573 594 610
f 573 610 588
f 574 595 575
f 574 596 597
f 574 597 595
f 578 598 579
f 579 598 580
f 580 598 599
f 580 599 600
f 580 600 601
f 580 601 602
f 580 602 581
f 581 602 582
f 582 602 603
f 582 603 583
f 583 603 604
f 583 604 605
f 584 605 625
f 584 625 606
f 584 606 585
f 585 606 607
f 587 588 609
f 587 609 608
f 588 610 609
f 589 607 611
f 589 611 612
f 589 612 590
f 590 612 613
f 590 613 591
f 591 613 614
f 591 614 615
f 591 615 592
f 592 615 593
f 593 615 616
f 593 616 617
f 593 617 594
f 594 617 610
f 596 618 619
f 596 619 597
f 600 620 601
f 601 620 621
f 601 621 622
f 601 622 602
f 602 622 603
f 603 622 604
f 604 622 623
f 604 623 624
f 604 624 626
f 604 626 625
f 604 625 605
f 606 625 626
f 606 626 627
f 606 627 611
f 606 611 607
f 608 609 628
f 609 629 628
f 609 610 630
f 609 630 650
f 609 650 629
f 610 617 631
f 610 631 630
f 611 627 649
f 611 649 632
f 611 632 612
f 612 632 633
f 612 633 613
f 613 633 634
f 613 634 614
f 614 634 656
f 614 656 635
f 614 635 615
f 615 635 636
f 615 636 616
f 616 636 637
f 616 637 617
f 617 637 638
f 617 638 631
f 618 639 619
f 619 639 640
f 619 640 641
f 620 642 621
f 621 642 643
f 621 643 644
f 621 644 623
f 621 623 622
f 623 644 645
f 623 645 646
f 623 646 624
f 624 646 647
f 624 647 648
f 624 648 626
f 626 648 627
f 627 648 649
f 630 631 651
f 630 651 671
f 630 671 650
f 631 638 662
f 631 662 652
f 631 652 651
f 632 649 653
f 632 653 654
f 632 654 633
f 633 654 655
f 633 655 656
f 633 656 634
f 635 656 657
f 635 657 658
f 635 658 659
f 635 659 636
f 636 659 637
f 637 659 660
f 637 660 661
f 637 661 662
f 637 662 638
f 640 663 664
f 640 664 641
f 643 665 644
f 644 665 645
f 645 665 666
f 645 666 667
f 645 667 668
f 645 668 646
f 646 668 647
f 647 668 669
f 647 669 670
f 647 670 648
f 648 670 653
f 648 653 649
f 651 652 672
f 651 672 673
f 651 673 671
f 652 662 674
f 652 674 675
f 652 675 702
f 652 702 672
f 653 670 676
f 653 676 677
f 653 677 678
f 653 678 654
f 654 679 655
f 654 678 679
f 655 680 656
f 655 679 681
f 655 681 680
f 656 682 657
f 656 680 683
f 656 683 684
f 656 684 682
f 657 685 686
f 657 686 687
f 657 687 688
f 657 688 689
f 657 689 690
f 657 690 691
f 657 691 658
f 657 682 685
f 658 691 690
f 658 690 659
f 659 690 689
f 659 689 661
f 659 661 660
f 661 688 687
f 661 687 686
f 661 686 692
f 661 692 674
f 661 674 662
f 661 689 688
f 663 693 664
f 663 694 693
f 666 695 667
f 667 695 696
f 667 696 697
f 667 697 698
f 667 698 699
f 667 699 668
f 668 699 669
f 669 700 670
f 669 699 700
f 670 700 676
f 672 701 673
f 672 702 726
f 672 726 701
f 674 692 703
f 674 703 704
f 674 704 705
f 674 705 675
f 675 705 702
f 676 700 706
f 676 706 677
f 677 706 707
f 677 707 708
f 677 708 678
f 678 708 681
f 678 681 679
f 680 681 683
f 681 708 709
f 681 709 684
f 681 684 683
f 682 684 710
f 682 710 685
f 684 709 711
f 684 711 712
f 684 712 713
f 684 713 714
f 684 714 710
f 685 710 714
f 685 714 715
f 685 715 716
f 685 716 717
f 685 717 718
f 685 718 686
f 686 718 717
f 686 717 703
f 686 703 692
f 693 694 719
f 694 720 721
f 694 721 719
f 697 722 698
f 698 722 723
f 698 723 699
f 699 723 724
f 699 724 725
f 699 725 706
f 699 706 700
f 702 705 727
f 702 727 728
f 702 728 726
f 703 717 729
f 703 729 730
f 703 730 731
f 703 731 704
f 704 731 756
f 704 756 732
f 704 732 705
f 705 732 749
f 705 749 733
f 705 733 727
f 706 725 734
f 706 734 735
f 706 735 707
f 707 735 736
f 707 736 737
f 707 737 738
f 707 738 708
f 708 738 711
f 708 711 709
f 711 738 739
f 711 739 712
f 712 739 761
f 712 761 740
f 712 740 763
f 712 763 741
f 712 741 713
f 713 741 742
f 713 742 714
f 714 742 715
f 715 742 716
f 716 742 743
f 716 743 717
f 717 743 729
f 720 744 721
f 720 745 744
f 722 746 747
f 722 747 723
f 723 747 724
f 724 747 748
f 724 748 725
f 725 748 734
f 727 733 728
f 728 733 749
f 728 749 750
f 729 743 751
f 729 751 752
f 729 752 753
f 729 753 730
f 730 754 731
f 730 753 754
f 731 755 756
f 731 754 755
f 732 756 749
f 734 748 757
f 734 757 735
f 735 757 736
f 736 758 780
f 736 780 759
f 736 759 760
f 736 760 737
f 736 757 758
f 737 760 739
f 737 739 738
f 739 760 761
f 740 761 762
f 740 762 763
f 741 763 742
f 742 763 764
f 742 764 743
f 743 764 751
f 744 745 765
f 745 766 767
f 745 767 765
f 746 768 769
f 746 769 747
f 747 757 748
f 747 769 757
f 749 756 755
f 749 755 770
f 749 770 771
f 749 771 750
f 751 772 773
f 751 773 752
f 751 764 772
f 752 773 774
f 752 774 775
f 752 775 753
f 753 776 754
f 753 775 799
f 753 799 776
f 754 777 755
f 754 776 777
f 755 778 770
f 755 777 778
f 757 769 758
f 758 769 779
f 758 779 780
f 759 780 781
f 759 781 760
f 760 781 782
f 760 782 761
f 761 782 783
f 761 783 784
f 761 784 762
f 762 784 785
f 762 785 786
f 762 786 787
f 762 787 788
f 762 788 763
f 763 788 764
f 764 788 772
f 766 789 790
f 766 790 791
f 766 791 792
f 766 792 767
f 768 793 779
f 768 779 769
f 770 778 804
f 770 804 794
f 770 794 771
f 772 788 787
f 772 787 795
f 772 795 773
f 773 795 796
f 773 796 774
f 774 796 797
f 774 797 798
f 774 798 775
f 775 798 800
f 775 800 799
f 776 801 777
f 776 799 802
f 776 802 801
f 777 803 778
f 777 801 832
f 777 832 803
f 778 803 805
f 778 805 804
f 779 793 806
f 779 806 780
f 780 806 807
f 780 807 781
f 781 807 808
f 781 808 783
f 781 783 782
f 783 808 809
f 783 809 784
f 784 809 785
f 785 809 810
f 785 810 811
f 785 811 786
f 786 811 787
f 787 811 795
f 789 812 790
f 790 812 813
f 790 813 814
f 790 814 815
f 790 815 816
f 790 816 817
f 790 817 818
f 790 818 819
f 790 819 791
f 791 819 818
f 791 818 820
f 793 821 806
f 795 811 822
f 795 822 796
f 796 822 823
f 796 823 797
f 797 823 824
f 797 824 825
f 797 825 826
f 797 826 798
f 798 826 827
f 798 827 828
f 798 828 800
f 799 800 829
f 799 829 830
f 799 830 802
f 800 828 827
f 800 827 831
f 800 831 829
f 801 802 833
f 801 833 832
f 802 830 833
f 803 834 805
f 803 832 835
f 803 835 834
f 806 821 836
f 806 836 837
f 806 837 838
f 806 838 807
f 807 838 808
f 808 839 809
f 808 838 839
f 809 839 810
f 810 840 841
f 810 841 811
f 810 839 840
f 811 841 842
f 811 842 822
f 812 843 813
f 813 843 844
f 813 844 845
f 813 845 846
f 813 846 814
f 814 846 815
f 815 846 816
f 816 846 847
f 816 847 817
f 817 847 849
f 817 849 818
f 818 848 820
f 818 849 848
f 820 848 850
f 822 842 851
f 822 851 852
f 822 852 823
f 823 852 853
f 823 853 824
f 824 853 854
f 824 854 855
f 824 855 825
f 825 855 856
f 825 856 857
f 825 857 826
f 826 857 858
f 826 858 827
f 827 858 859
f 827 859 831
f 829 831 860
f 829 860 830
f 830 861 833
f 830 860 862
f 831 859 860
f 832 833 861
f 832 861 835
f 836 863 837
f 837 863 864
f 837 864 865
f 837 865 866
f 837 866 838
f 838 866 867
f 838 867 839
f 839 867 840
f 840 867 868
f 840 868 869
f 840 869 841
f 841 869 870
f 841 870 842
f 842 870 851
f 843 871 872
f 843 872 873
f 843 873 874
f 843 874 875
f 843 875 876
f 843 876 844
f 844 876 877
f 844 877 878
f 844 878 845
f 845 878 846
f 846 878 879
f 846 879 847
f 847 879 880
f 847 880 849
f 848 849 881
f 848 881 850
f 849 882 881
f 849 880 883
f 849 883 884
f 849 884 882
f 851 870 885
f 851 885 886
f 851 886 887
f 851 887 852
f 852 887 853
f 853 887 877
f 853 877 854
f 854 877 875
f 854 875 874
f 854 874 873
f 854 873 855
f 855 873 872
f 855 872 857
f 855 857 856
f 857 872 858
f 858 872 871
f 858 871 859
f 859 888 860
f 860 888 862
f 865 889 866
f 866 889 890
f 866 890 891
f 866 891 867
f 867 891 868
f 868 891 892
f 868 892 893
f 868 893 869
f 869 893 894
f 869 894 870
f 870 894 885
f 875 877 876
f 877 887 878
f 878 887 886
f 878 886 879
f 879 886 880
f 880 886 885
f 880 885 883
f 881 882 895
f 881 895 896
f 882 896 895
f 882 884 897
f 882 897 896
f 883 885 894
f 883 894 884
f 884 894 893
f 884 893 898
f 884 898 897
f 890 899 891
f 891 899 892
f 892 900 898
f 892 898 893
f 892 899 901
f 892 901 900
f 897 898 902
f 898 900 902
