v 0.98183465 -0.34918278 -0.01002281
v 0.98178130 -0.34918278 -0.00215905
v 0.97980762 -0.35910282 -0.00207119
v 0.97980762 -0.35912955 -0.01002281
v 0.97948754 -0.35748515 -0.02996776
v 0.98114121 -0.34918278 -0.02996776
v 0.94913512 -0.34918278 -0.00207119
v 0.92550397 -0.37374222 0.21082139
v 0.93985337 -0.37378234 0.21082139
v 0.94038677 -0.37374222 0.20915198
v 0.94134700 -0.37374222 0.20634037
v 0.94534773 -0.37374222 0.19360021
v 0.94644129 -0.37374222 0.18986601
v 0.95102882 -0.37374222 0.17374313
v 0.95209569 -0.37374222 0.16996500
v 0.95710999 -0.37374222 0.15050331
v 0.95857692 -0.37374222 0.14461645
v 0.95985717 -0.37374222 0.13930073
v 0.96116406 -0.37374222 0.13336995
v 0.96217757 -0.37374222 0.12866929
v 0.96513814 -0.37374222 0.11399613
v 0.96593833 -0.37374222 0.10964689
v 0.96927226 -0.37374222 0.09000947
v 0.97196615 -0.37374222 0.06997665
v 0.97361976 -0.37374222 0.05372196
v 0.97399318 -0.37374222 0.04998777
v 0.97511339 -0.37374222 0.03373307
v 0.97535342 -0.37374222 0.02999889
v 0.97594023 -0.37374222 0.01374419
v 0.97607356 -0.37374222 0.01001001
v 0.97874075 -0.36344784 -0.00207119
v 0.97714043 -0.37001219 -0.01002281
v 0.97647363 -0.37001219 -0.02996776
v 0.97516674 -0.37001219 -0.05000057
v 0.97879410 -0.35419628 -0.05000057
v 0.98082113 -0.34918278 -0.03506383
v 0.83548689 -0.34918278 -0.00207119
v 0.78854465 -0.37374222 0.21082139
v 0.93681276 -0.38525322 0.21082139
v 0.94062686 -0.38228524 0.20194721
v 0.94238716 -0.38938433 0.18942669
v 0.94772148 -0.39001268 0.16996500
v 0.95284247 -0.39001268 0.14997610
v 0.95935041 -0.37763271 0.13719201
v 0.96081734 -0.38294032 0.12388074
v 0.96180421 -0.38977206 0.10846075
v 0.96481812 -0.39001268 0.09000947
v 0.96753860 -0.39001268 0.06997665
v 0.96959233 -0.39001268 0.04998777
v 0.97097927 -0.39001268 0.02999889
v 0.97172606 -0.39001268 0.01001001
v 0.97610021 -0.37374222 0.00429890
v 0.97177941 -0.39001268 -0.01002281
v 0.97116596 -0.39001268 -0.02996776
v 0.97612691 -0.37374222 -0.00207119
v 0.97500670 -0.37794021 -0.00207119
v 0.97177941 -0.39001268 -0.00207119
v 0.96991241 -0.39001268 -0.05000057
v 0.96801871 -0.39001268 -0.06998946
v 0.97321969 -0.37001219 -0.06998946
v 0.97802061 -0.34918278 -0.06827612
v 0.97980762 -0.34918278 -0.05000057
v 0.78425050 -0.34918278 -0.23798394
v 0.72242546 -0.48576379 0.21082139
v 0.93563920 -0.38942444 0.21082139
v 0.93619931 -0.38938433 0.20915198
v 0.93870646 -0.39562783 0.19575286
v 0.94070685 -0.40225899 0.18244156
v 0.94212043 -0.40935811 0.16873491
v 0.94670796 -0.41001320 0.14997610
v 0.95132220 -0.41001320 0.12998724
v 0.95745671 -0.38977206 0.13029474
v 0.95889699 -0.39626953 0.11408398
v 0.96012390 -0.40045413 0.10077271
v 0.96095067 -0.40300769 0.09000947
v 0.96231097 -0.40712544 0.06997665
v 0.96481812 -0.41001320 0.02999889
v 0.96287107 -0.41157740 0.05033922
v 0.96559155 -0.41001320 0.01001001
v 0.96567160 -0.41001320 -0.00207119
v 0.96567160 -0.41001320 -0.01002281
v 0.96511149 -0.41001320 -0.02996776
v 0.96311110 -0.41199186 -0.05188963
v 0.96260434 -0.40823507 -0.06998946
v 0.96132410 -0.40422428 -0.08997834
v 0.96543157 -0.39001268 -0.08997834
v 0.97788727 -0.34918278 -0.06946228
v 0.97063255 -0.37001219 -0.08997834
v 0.93622601 -0.34918278 -0.23798394
v 0.70935631 -0.48572367 -0.23798394
v 0.89552498 -0.48576379 0.21082139
v 0.76766068 -0.48576379 -0.00207119
v 0.92934471 -0.40998647 0.21082139
v 0.92961144 -0.41001320 0.20998669
v 0.93625265 -0.40935811 0.18942669
v 0.93851978 -0.41558820 0.17462176
v 0.94030678 -0.42094931 0.16126654
v 0.94172037 -0.42474619 0.14997610
v 0.94377410 -0.43121696 0.13060227
v 0.94833493 -0.42998698 0.10995442
v 0.95614976 -0.40827519 0.10846075
v 0.95767009 -0.41300794 0.09000947
v 0.95900369 -0.41712567 0.06997665
v 0.95972377 -0.41927814 0.05728042
v 0.96033722 -0.42096269 0.04392521
v 0.96076399 -0.42217928 0.02999889
v 0.96113741 -0.42326221 0.01001001
v 0.96119076 -0.42334241 -0.00207119
v 0.96119076 -0.42339590 -0.01002281
v 0.96092403 -0.42262048 -0.02996776
v 0.96047062 -0.42133701 -0.04648605
v 0.95996386 -0.41994661 -0.05979732
v 0.95940375 -0.41820860 -0.06998946
v 0.95812351 -0.41422454 -0.08997834
v 0.96036392 -0.40128303 -0.10223526
v 0.96220428 -0.39033356 -0.10935218
v 0.97500670 -0.35001168 -0.08997834
v 0.97714043 -0.34918278 -0.07512945
v 0.96735191 -0.37001219 -0.10996722
v 0.97175276 -0.35001168 -0.10996722
v 0.93779963 -0.34918278 -0.23403010
v 0.93611932 -0.34979779 -0.23798394
v 0.88765681 -0.48572367 -0.23798394
v 0.89920563 -0.47934651 0.21082139
v 0.89709860 -0.48576379 0.20669183
v 0.90096599 -0.48168615 0.20286977
v 0.93313205 -0.48576379 -0.00207119
v 0.92905128 -0.41082874 0.21082139
v 0.92273009 -0.42885059 0.21082139
v 0.92294347 -0.42962599 0.20928380
v 0.92889130 -0.42998698 0.18995389
v 0.93545252 -0.42856982 0.16873491
v 0.93798631 -0.43473309 0.14997610
v 0.93947995 -0.43870378 0.13771918
v 0.94089353 -0.44219315 0.12436398
v 0.94230717 -0.44544190 0.10995442
v 0.95166892 -0.42998698 0.09000947
v 0.95438945 -0.42998698 0.06997665
v 0.95694995 -0.42856982 0.05033922
v 0.95710999 -0.43217954 0.02999889
v 0.95748335 -0.43324909 0.01001001
v 0.95756340 -0.43339616 -0.01002281
v 0.95724332 -0.43262073 -0.02996776
v 0.95735002 -0.42879710 -0.05188963
v 0.95516294 -0.42998698 -0.06998946
v 0.95260245 -0.42998698 -0.08997834
v 0.94940186 -0.42998698 -0.10996722
v 0.95673656 -0.40876985 -0.10935218
v 0.95919037 -0.39720538 -0.11559047
v 0.96103072 -0.38387617 -0.12507969
v 0.97516674 -0.34918278 -0.09002227
v 0.96297777 -0.37120205 -0.13105440
v 0.96785867 -0.35001168 -0.12995610
v 0.97175276 -0.34918278 -0.11080192
v 0.93771964 -0.35001168 -0.23381042
v 0.94142699 -0.34918278 -0.22410154
v 0.93185186 -0.36929023 -0.23798394
v 0.89541829 -0.47192654 -0.23798394
v 0.89720529 -0.47465387 -0.22998837
v 0.89056402 -0.48572367 -0.23082307
v 0.90357983 -0.47165915 0.21082139
v 0.89976573 -0.48576379 0.19900379
v 0.90288633 -0.48576379 0.18938276
v 0.90304637 -0.48517555 0.18995389
v 0.91128796 -0.46998799 0.18995389
v 0.90440661 -0.47008157 0.21082139
v 0.93310541 -0.48576379 0.00363992
v 0.89699191 -0.48572367 -0.21377760
v 0.89923233 -0.48572367 -0.20745146
v 0.90325975 -0.48572367 -0.19497490
v 0.90480673 -0.48572367 -0.18987882
v 0.91011441 -0.48572367 -0.17112002
v 0.91552877 -0.48572367 -0.15082362
v 0.91656893 -0.48572367 -0.14656225
v 0.92024964 -0.48572367 -0.12995610
v 0.92321020 -0.48572367 -0.11462397
v 0.92403704 -0.48572367 -0.10996722
v 0.92715764 -0.48572367 -0.08914364
v 0.92961144 -0.48572367 -0.06998946
v 0.93147844 -0.48572367 -0.05000057
v 0.93270534 -0.48572367 -0.02996776
v 0.93321210 -0.48572367 -0.01002281
v 0.92184997 -0.43116346 0.21082139
v 0.92067641 -0.44167176 0.20216686
v 0.92254341 -0.44597667 0.18995389
v 0.92534393 -0.45176560 0.17163441
v 0.93171847 -0.44998747 0.14997610
v 0.93651938 -0.44931901 0.13060227
v 0.93798631 -0.45544216 0.10995442
v 0.93926656 -0.45838341 0.09545699
v 0.94337404 -0.45103028 0.08926263
v 0.94641459 -0.44998747 0.06997665
v 0.94849497 -0.44998747 0.04998777
v 0.94993526 -0.44998747 0.02999889
v 0.95073545 -0.44998747 0.01001001
v 0.95086879 -0.44998747 -0.01002281
v 0.95030868 -0.44998747 -0.02996776
v 0.94913512 -0.44998747 -0.05000057
v 0.94729477 -0.44998747 -0.06998946
v 0.94398749 -0.45155168 -0.09068125
v 0.94286728 -0.44683233 -0.10996722
v 0.94129360 -0.44316912 -0.12630978
v 0.94444090 -0.43187204 -0.13180123
v 0.95236242 -0.41001320 -0.12995610
v 0.95801681 -0.39033356 -0.13105440
v 0.95964378 -0.37866214 -0.13839097
v 0.96124411 -0.36531955 -0.14528823
v 0.96785867 -0.34918278 -0.13079080
v 0.94137365 -0.35001168 -0.22379401
v 0.94025344 -0.36118844 -0.22071880
v 0.94628125 -0.34918278 -0.20995557
v 0.92673087 -0.38945118 -0.23798394
v 0.93561256 -0.36871538 -0.22840685
v 0.92961144 -0.39001268 -0.22998837
v 0.90080595 -0.46164554 -0.23798394
v 0.89944571 -0.47891870 -0.21839043
v 0.90328640 -0.48576379 0.18802088
v 0.91672897 -0.47000134 0.17163441
v 0.91982287 -0.45962676 0.17936635
v 0.91816926 -0.45597693 0.18995389
v 0.91443521 -0.44917196 0.21082139
v 0.93827975 -0.47664592 -0.00207119
v 0.93822640 -0.47656569 0.01001001
v 0.93305206 -0.48576379 0.01001001
v 0.90168613 -0.48296958 -0.20503524
v 0.91422182 -0.46845052 -0.18869266
v 0.91694236 -0.47390521 -0.16997781
v 0.91883606 -0.47778231 -0.15534857
v 0.92046303 -0.48087060 -0.14203730
v 0.92174327 -0.48315677 -0.12995610
v 0.93225193 -0.46998799 -0.10996722
v 0.93598592 -0.46878475 -0.09068125
v 0.93649274 -0.47310305 -0.06998946
v 0.93739957 -0.47498810 -0.05000057
v 0.93801302 -0.47616461 -0.02996776
v 0.93827975 -0.47669938 -0.01002281
v 0.91587549 -0.44585636 0.21082139
v 0.91502196 -0.44899815 0.20928380
v 0.92163658 -0.46334344 0.16605508
v 0.92369032 -0.46748793 0.14997610
v 0.92563730 -0.47196665 0.13192022
v 0.93102503 -0.46998799 0.10995442
v 0.93531919 -0.46838367 0.08926263
v 0.94030678 -0.46065620 0.08210178
v 0.94105357 -0.46222040 0.06997665
v 0.94209379 -0.46434614 0.04998777
v 0.94281393 -0.46577665 0.02999889
v 0.94321400 -0.46656543 0.01001001
v 0.94326735 -0.46664566 -0.00207119
v 0.94326735 -0.46669912 -0.01002281
v 0.94300061 -0.46616435 -0.02996776
v 0.94241387 -0.46498787 -0.05000057
v 0.94148034 -0.46310279 -0.06998946
v 0.94062686 -0.46132466 -0.08448689
v 0.93963999 -0.45926580 -0.09779816
v 0.93862647 -0.45683259 -0.10996722
v 0.93729287 -0.44989389 -0.13180123
v 0.93990672 -0.43981344 -0.13966498
v 0.94230717 -0.42641735 -0.14994499
v 0.94785488 -0.41001320 -0.14994499
v 0.95382935 -0.39001268 -0.14994499
v 0.95841688 -0.37120205 -0.15117508
v 0.95964378 -0.35839427 -0.15859953
v 0.96287107 -0.35104114 -0.15117508
v 0.96327114 -0.34918278 -0.15104327
v 0.94612122 -0.35001168 -0.20995557
v 0.94220048 -0.36871538 -0.20964804
v 0.93867981 -0.37453103 -0.21606207
v 0.95270914 -0.34918278 -0.18992275
v 0.92198330 -0.40597567 -0.23798394
v 0.93673277 -0.39002606 -0.20964804
v 0.92353028 -0.41006669 -0.23025197
v 0.90603364 -0.44942597 -0.23798394
v 0.90888751 -0.44998747 -0.22998837
v 0.90229958 -0.46465361 -0.22998837
v 0.90566021 -0.47135165 -0.21100992
v 0.90830070 -0.48576379 0.17049217
v 0.91064781 -0.48576379 0.16218910
v 0.91867602 -0.47747481 0.14997610
v 0.93782628 -0.47577691 0.02999889
v 0.93225193 -0.48576379 0.02999889
v 0.91832930 -0.45611063 -0.19453558
v 0.92035633 -0.46074978 -0.18118036
v 0.92184997 -0.46390495 -0.16997781
v 0.92382365 -0.47065645 -0.14919814
v 0.92841119 -0.46998799 -0.12995610
v 0.91995627 -0.47996151 0.13987184
v 0.92139649 -0.48247492 0.12656057
v 0.92299682 -0.48532259 0.10995442
v 0.92603743 -0.48576379 0.08987767
v 0.93606597 -0.47222066 0.06997665
v 0.93710619 -0.47434640 0.04998777
v 0.93310541 -0.44998747 -0.14994499
v 0.92801112 -0.44998747 -0.16997781
v 0.93867981 -0.43641761 -0.14994499
v 0.94073355 -0.42207232 -0.16272908
v 0.94281393 -0.41005331 -0.16962636
v 0.94873506 -0.39001268 -0.16997781
v 0.95388269 -0.37001219 -0.16997781
v 0.95892364 -0.34918278 -0.16813266
v 0.96231097 -0.34918278 -0.15504104
v 0.95801681 -0.35104114 -0.17019746
v 0.94817495 -0.37001219 -0.18996668
v 0.94092023 -0.38335478 -0.20270684
v 0.95812351 -0.34918278 -0.17098823
v 0.91891605 -0.41677809 -0.23714924
v 0.91872936 -0.41633689 -0.23798394
v 0.93902653 -0.39669737 -0.19690788
v 0.93062496 -0.41001320 -0.20995557
v 0.92136985 -0.42381033 -0.22379401
v 0.90902084 -0.44200599 -0.23798394
v 0.91664898 -0.43028110 -0.23025197
v 0.91891605 -0.43715292 -0.21685281
v 0.91598219 -0.44965324 -0.21008736
v 0.91392845 -0.48576379 0.14997610
v 0.93126506 -0.48576379 0.04401307
v 0.92281014 -0.44965324 -0.18869266
v 0.92112982 -0.44276804 -0.20349762
v 0.91760916 -0.48576379 0.13503936
v 0.91504866 -0.48576379 0.14571476
v 0.91888940 -0.48576379 0.12906468
v 0.92032963 -0.48576379 0.12229920
v 0.92275679 -0.48576379 0.10995442
v 0.92646414 -0.48576379 0.08689032
v 0.92934471 -0.48576379 0.06378230
v 0.92857122 -0.48576379 0.07076743
v 0.93078494 -0.48576379 0.04998777
v 0.93622601 -0.42923829 -0.16962636
v 0.93889320 -0.41675135 -0.17608428
v 0.94108027 -0.40342212 -0.18359661
v 0.94292063 -0.39002606 -0.19014242
v 0.91371506 -0.43016076 -0.23798394
v 0.93694615 -0.41005331 -0.19014242
v 0.92363697 -0.43028110 -0.21008736
v 0.93011820 -0.42998698 -0.18996668
f 1 2 3
f 1 3 4
f 1 4 5
f 1 5 6
f 1 6 36
f 1 36 62
f 1 62 61
f 1 61 87
f 1 87 118
f 1 118 151
f 1 151 154
f 1 154 208
f 1 208 265
f 1 265 301
f 1 301 300
f 1 300 305
f 1 305 269
f 1 269 211
f 1 211 156
f 1 156 121
f 1 121 89
f 1 89 63
f 1 63 37
f 1 37 7
f 1 7 2
f 2 7 8
f 2 8 9
f 2 9 10
f 2 10 11
f 2 11 12
f 2 12 13
f 2 13 14
f 2 14 15
f 2 15 16
f 2 16 17
f 2 17 18
f 2 18 19
f 2 19 20
f 2 20 21
f 2 21 22
f 2 22 23
f 2 23 24
f 2 24 25
f 2 25 26
f 2 26 27
f 2 27 28
f 2 28 3
f 3 28 29
f 3 29 30
f 3 30 31
f 3 31 32
f 3 32 4
f 4 32 33
f 4 33 5
f 5 33 34
f 5 34 35
f 5 35 36
f 5 36 6
f 7 37 38
f 7 38 8
f 8 38 64
f 8 64 91
f 8 91 124
f 8 124 161
f 8 161 166
f 8 166 221
f 8 221 237
f 8 237 183
f 8 183 129
f 8 129 128
f 8 128 93
f 8 93 65
f 8 65 39
f 8 39 9
f 9 39 40
f 9 40 11
f 9 11 10
f 11 40 12
f 12 40 13
f 13 40 41
f 13 41 14
f 14 41 42
f 14 42 15
f 15 42 16
f 16 42 43
f 16 43 17
f 17 43 44
f 17 44 18
f 18 44 19
f 19 44 20
f 20 44 45
f 20 45 21
f 21 45 46
f 21 46 22
f 22 46 23
f 23 46 47
f 23 47 48
f 23 48 24
f 24 48 49
f 24 49 25
f 25 49 26
f 26 49 50
f 26 50 27
f 27 50 28
f 28 50 51
f 28 51 29
f 29 51 30
f 30 51 52
f 30 52 32
f 30 32 31
f 32 53 54
f 32 54 33
f 32 52 55
f 32 55 56
f 32 56 57
f 32 57 53
f 33 54 58
f 33 58 34
f 34 58 59
f 34 59 60
f 34 60 35
f 35 60 61
f 35 61 62
f 35 62 36
f 37 63 38
f 38 63 64
f 39 65 40
f 40 66 67
f 40 67 41
f 40 65 66
f 41 68 42
f 41 67 68
f 42 69 43
f 42 68 69
f 43 69 70
f 43 70 71
f 43 71 72
f 43 72 44
f 44 72 45
f 45 73 46
f 45 72 73
f 46 74 47
f 46 73 74
f 47 74 75
f 47 75 48
f 48 75 76
f 48 76 49
f 49 77 50
f 49 76 78
f 49 78 77
f 50 77 79
f 50 79 51
f 51 79 80
f 51 80 57
f 51 57 56
f 51 56 52
f 52 56 55
f 53 81 82
f 53 82 54
f 53 57 80
f 53 80 81
f 54 82 58
f 58 83 84
f 58 84 59
f 58 82 83
f 59 84 85
f 59 85 86
f 59 86 88
f 59 88 60
f 60 87 61
f 60 88 87
f 63 89 122
f 63 122 157
f 63 157 212
f 63 212 270
f 63 270 307
f 63 307 332
f 63 332 311
f 63 311 273
f 63 273 215
f 63 215 158
f 63 158 123
f 63 123 90
f 63 90 64
f 64 90 92
f 64 92 127
f 64 127 167
f 64 167 224
f 64 224 281
f 64 281 316
f 64 316 327
f 64 327 325
f 64 325 326
f 64 326 324
f 64 324 290
f 64 290 323
f 64 323 322
f 64 322 321
f 64 321 319
f 64 319 320
f 64 320 315
f 64 315 278
f 64 278 277
f 64 277 217
f 64 217 163
f 64 163 162
f 64 162 125
f 64 125 91
f 65 93 67
f 65 67 66
f 67 93 94
f 67 94 95
f 67 95 68
f 68 95 96
f 68 96 69
f 69 96 97
f 69 97 70
f 70 97 98
f 70 98 71
f 71 99 100
f 71 100 101
f 71 101 73
f 71 73 72
f 71 98 99
f 73 101 74
f 74 101 102
f 74 102 75
f 75 102 76
f 76 103 104
f 76 104 78
f 76 102 103
f 77 78 105
f 77 105 106
f 77 106 79
f 78 104 105
f 79 106 107
f 79 107 108
f 79 108 80
f 80 108 109
f 80 109 81
f 81 109 110
f 81 110 82
f 82 110 111
f 82 111 83
f 83 112 84
f 83 111 112
f 84 112 113
f 84 113 114
f 84 114 85
f 85 114 115
f 85 115 86
f 86 115 116
f 86 116 88
f 87 88 117
f 87 117 118
f 88 116 119
f 88 119 120
f 88 120 117
f 89 121 122
f 90 123 127
f 90 127 92
f 91 125 126
f 91 126 124
f 93 128 94
f 94 128 129
f 94 129 130
f 94 130 131
f 94 131 95
f 95 131 96
f 96 132 97
f 96 131 132
f 97 133 98
f 97 132 133
f 98 133 134
f 98 134 99
f 99 134 135
f 99 135 100
f 100 135 136
f 100 136 137
f 100 137 102
f 100 102 101
f 102 137 103
f 103 137 138
f 103 138 104
f 104 139 105
f 104 138 139
f 105 139 140
f 105 140 106
f 106 140 107
f 107 140 141
f 107 141 108
f 108 141 142
f 108 142 109
f 109 142 110
f 110 142 143
f 110 143 111
f 111 143 144
f 111 144 112
f 112 144 145
f 112 145 113
f 113 145 146
f 113 146 114
f 114 146 147
f 114 147 148
f 114 148 115
f 115 148 149
f 115 149 116
f 116 149 150
f 116 150 119
f 117 151 118
f 117 120 151
f 119 150 152
f 119 152 153
f 119 153 120
f 120 153 208
f 120 208 154
f 120 154 151
f 121 155 122
f 121 156 155
f 122 155 157
f 123 158 159
f 123 159 160
f 123 160 127
f 124 126 161
f 125 162 126
f 126 162 163
f 126 163 164
f 126 164 165
f 126 165 166
f 126 166 161
f 127 160 168
f 127 168 169
f 127 169 170
f 127 170 171
f 127 171 172
f 127 172 173
f 127 173 174
f 127 174 175
f 127 175 176
f 127 176 177
f 127 177 178
f 127 178 179
f 127 179 180
f 127 180 181
f 127 181 182
f 127 182 167
f 129 183 130
f 130 183 184
f 130 184 131
f 131 184 185
f 131 185 132
f 132 185 186
f 132 186 133
f 133 186 187
f 133 187 134
f 134 188 135
f 134 187 188
f 135 189 136
f 135 188 189
f 136 189 190
f 136 190 191
f 136 191 137
f 137 191 192
f 137 192 138
f 138 192 193
f 138 193 139
f 139 193 140
f 140 193 194
f 140 194 141
f 141 194 195
f 141 195 142
f 142 196 197
f 142 197 143
f 142 195 196
f 143 197 198
f 143 198 144
f 144 198 199
f 144 199 145
f 145 199 146
f 146 199 200
f 146 200 201
f 146 201 147
f 147 201 202
f 147 202 203
f 147 203 204
f 147 204 148
f 148 204 149
f 149 204 205
f 149 205 150
f 150 205 206
f 150 206 152
f 152 206 207
f 152 207 153
f 153 207 208
f 155 156 209
f 155 209 210
f 155 210 157
f 156 211 209
f 157 210 213
f 157 213 214
f 157 214 212
f 158 215 159
f 159 215 216
f 159 216 160
f 160 216 168
f 163 217 164
f 164 217 218
f 164 218 165
f 165 219 220
f 165 220 166
f 165 218 219
f 166 220 221
f 167 222 223
f 167 223 224
f 167 182 222
f 168 216 169
f 169 216 225
f 169 225 170
f 170 225 171
f 171 225 226
f 171 226 227
f 171 227 172
f 172 227 228
f 172 228 173
f 173 228 229
f 173 229 174
f 174 229 175
f 175 229 230
f 175 230 176
f 176 230 231
f 176 231 177
f 177 231 232
f 177 232 178
f 178 232 233
f 178 233 179
f 179 233 234
f 179 234 180
f 180 234 235
f 180 235 181
f 181 235 236
f 181 236 182
f 182 236 222
f 183 237 184
f 184 220 185
f 184 237 221
f 184 221 238
f 184 238 220
f 185 220 219
f 185 219 186
f 186 239 187
f 186 219 239
f 187 239 240
f 187 240 188
f 188 241 189
f 188 240 241
f 189 241 242
f 189 242 190
f 190 242 243
f 190 243 244
f 190 244 191
f 191 244 192
f 192 244 245
f 192 245 193
f 193 245 246
f 193 246 194
f 194 246 247
f 194 247 195
f 195 247 248
f 195 248 249
f 195 249 196
f 196 250 251
f 196 251 197
f 196 249 250
f 197 251 252
f 197 252 198
f 198 252 253
f 198 253 199
f 199 253 254
f 199 254 200
f 200 255 201
f 200 254 255
f 201 255 256
f 201 256 202
f 202 256 257
f 202 257 258
f 202 258 203
f 203 258 259
f 203 259 204
f 204 259 260
f 204 260 205
f 205 260 261
f 205 261 206
f 206 261 262
f 206 262 207
f 207 262 263
f 207 263 264
f 207 264 208
f 208 264 265
f 209 211 266
f 209 266 210
f 210 266 267
f 210 267 268
f 210 268 213
f 211 269 266
f 212 214 270
f 213 268 214
f 214 268 271
f 214 271 272
f 214 272 270
f 215 273 274
f 215 274 275
f 215 275 216
f 216 276 225
f 216 275 276
f 217 277 218
f 218 277 278
f 218 278 279
f 218 279 239
f 218 239 219
f 220 238 221
f 222 249 248
f 222 248 223
f 222 236 250
f 222 250 249
f 223 248 247
f 223 247 280
f 223 280 281
f 223 281 224
f 225 276 226
f 226 282 283
f 226 283 227
f 226 276 282
f 227 283 284
f 227 284 228
f 228 285 229
f 228 284 285
f 229 285 286
f 229 286 230
f 230 286 231
f 231 286 256
f 231 256 255
f 231 255 232
f 232 255 254
f 232 254 233
f 233 253 252
f 233 252 234
f 233 254 253
f 234 252 235
f 235 251 250
f 235 250 236
f 235 252 251
f 239 279 240
f 240 279 287
f 240 287 241
f 241 287 288
f 241 288 242
f 242 289 243
f 242 288 289
f 243 289 290
f 243 290 291
f 243 291 244
f 244 291 245
f 245 291 292
f 245 292 246
f 246 292 280
f 246 280 247
f 256 286 257
f 257 285 293
f 257 293 258
f 257 286 285
f 258 293 294
f 258 294 295
f 258 295 259
f 259 295 296
f 259 296 260
f 260 296 297
f 260 297 298
f 260 298 261
f 261 298 262
f 262 298 299
f 262 299 263
f 263 300 301
f 263 301 265
f 263 265 264
f 263 299 302
f 263 302 300
f 266 269 267
f 267 269 303
f 267 303 304
f 267 304 268
f 268 304 271
f 269 305 302
f 269 302 303
f 270 272 306
f 270 306 307
f 271 304 308
f 271 308 309
f 271 309 272
f 272 309 310
f 272 310 306
f 273 311 274
f 274 311 312
f 274 312 313
f 274 313 314
f 274 314 275
f 275 314 282
f 275 282 276
f 278 315 279
f 279 315 287
f 280 292 316
f 280 316 281
f 282 317 283
f 282 314 318
f 282 318 317
f 283 294 284
f 283 317 294
f 284 294 293
f 284 293 285
f 287 319 288
f 287 315 320
f 287 320 319
f 288 319 321
f 288 321 322
f 288 322 323
f 288 323 289
f 289 323 290
f 290 324 291
f 291 325 292
f 291 324 326
f 291 326 325
f 292 327 316
f 292 325 327
f 294 328 295
f 294 317 328
f 295 328 296
f 296 328 329
f 296 329 297
f 297 329 330
f 297 330 298
f 298 330 331
f 298 331 303
f 298 303 299
f 299 303 302
f 300 302 305
f 303 331 304
f 304 331 308
f 306 310 312
f 306 312 332
f 306 332 307
f 308 331 330
f 308 330 333
f 308 333 309
f 309 333 334
f 309 334 310
f 310 334 313
f 310 313 312
f 311 332 312
f 313 334 318
f 313 318 314
f 317 318 335
f 317 335 328
f 318 334 335
f 328 335 329
f 329 335 333
f 329 333 330
f 333 335 334
