v 0.54947966 -0.48572499 -0.41424471
v 0.65906096 -0.34918278 -0.41424471
v 0.78492415 -0.48572499 -0.41424471
v 0.70938349 -0.48572499 -0.23798394
v 0.78420472 -0.34918278 -0.23798394
v 0.84255469 -0.34918278 -0.41424471
v 0.78526491 -0.48524380 -0.41424471
v 0.78587079 -0.48572499 -0.41308874
v 0.88765186 -0.48572499 -0.23798394
v 0.93627048 -0.34918278 -0.23798394
v 0.84444791 -0.34918278 -0.41176021
v 0.84217602 -0.35110760 -0.41424471
v 0.79503411 -0.46996552 -0.41424471
v 0.80003226 -0.48007083 -0.40006241
v 0.79155052 -0.48572499 -0.40591133
v 0.88341099 -0.48572499 -0.24904338
v 0.89545202 -0.47193041 -0.23798394
v 0.93615693 -0.34979767 -0.23798394
v 0.93161309 -0.34918278 -0.24994054
v 0.85016555 -0.34918278 -0.40366837
v 0.85637540 -0.35001153 -0.39462760
v 0.84391779 -0.37000832 -0.40541098
v 0.84024489 -0.35906088 -0.41424471
v 0.79545063 -0.46931052 -0.41424471
v 0.80230415 -0.48572499 -0.39178079
v 0.80302364 -0.46999222 -0.40397894
v 0.81336075 -0.47024620 -0.38979664
v 0.81824535 -0.47707665 -0.37746045
v 0.88303232 -0.48572499 -0.25000957
v 0.88322163 -0.48540419 -0.25000957
v 0.88076043 -0.48128721 -0.26170737
v 0.89310443 -0.46836150 -0.24845675
v 0.90029877 -0.46060872 -0.24076174
v 0.90079105 -0.46165133 -0.23798394
v 0.93187815 -0.36928651 -0.23798394
v 0.92710721 -0.37000832 -0.25000957
v 0.93142378 -0.35001153 -0.25000957
v 0.92415369 -0.34918278 -0.26824641
v 0.85645109 -0.34918278 -0.39476562
v 0.86303961 -0.35001153 -0.38463786
v 0.86129785 -0.36526307 -0.38199809
v 0.85493648 -0.37115785 -0.38919276
v 0.84172165 -0.38562077 -0.40237439
v 0.83702636 -0.37142521 -0.41424471
v 0.83740503 -0.37000832 -0.41424471
v 0.80010802 -0.46150428 -0.41424471
v 0.81563264 -0.48572499 -0.37297457
v 0.81733656 -0.45488772 -0.39635295
v 0.82210755 -0.46373656 -0.38301605
v 0.82691640 -0.47024620 -0.37047282
v 0.82275128 -0.48421454 -0.36414084
v 0.87602735 -0.48572499 -0.26603797
v 0.87394476 -0.48572499 -0.27043760
v 0.86235803 -0.48572499 -0.29469588
v 0.87769336 -0.47572660 -0.27504426
v 0.88371390 -0.46943083 -0.26902282
v 0.89753461 -0.45451343 -0.25409862
v 0.90048808 -0.44118670 -0.26120701
v 0.90238136 -0.44871223 -0.24845675
v 0.90605426 -0.44943404 -0.23798394
v 0.92672855 -0.38944370 -0.23798394
v 0.92252553 -0.38862830 -0.24966449
v 0.92025363 -0.38104934 -0.26068944
v 0.92157888 -0.37000832 -0.26381227
v 0.91900408 -0.35510430 -0.27771854
v 0.92316926 -0.34918278 -0.27059287
v 0.86285031 -0.34918278 -0.38517272
v 0.86311537 -0.34918278 -0.38475865
v 0.86924946 -0.34918278 -0.37504497
v 0.87379324 -0.34918278 -0.36781579
v 0.85963178 -0.37858981 -0.37942734
v 0.87879145 -0.35430229 -0.35791236
v 0.86633384 -0.37115785 -0.37164605
v 0.84740138 -0.39138189 -0.39171177
v 0.83963907 -0.39896089 -0.39952755
v 0.83460301 -0.39138189 -0.40943101
v 0.83108157 -0.39094079 -0.41424471
v 0.80427313 -0.45387185 -0.41424471
v 0.82070655 -0.48572499 -0.36564186
v 0.82078230 -0.44154760 -0.40104586
v 0.82506102 -0.44892609 -0.38979664
v 0.80983931 -0.44972813 -0.40981060
v 0.83657199 -0.45196038 -0.37099043
v 0.83994198 -0.45994037 -0.35994825
v 0.83702636 -0.46999222 -0.35530707
v 0.84028274 -0.48045847 -0.34046915
v 0.83354282 -0.48572499 -0.34567970
v 0.82479596 -0.48572499 -0.35936165
v 0.85648900 -0.48572499 -0.30594510
v 0.86107063 -0.48179516 -0.30209759
v 0.87405837 -0.46943083 -0.28955436
v 0.88121480 -0.46238652 -0.28260124
v 0.89382386 -0.44871223 -0.26872951
v 0.90215415 -0.42824760 -0.26872951
v 0.90919703 -0.42999867 -0.25000957
v 0.91374087 -0.43017244 -0.23798394
v 0.89761037 -0.43375474 -0.27454391
v 0.92203331 -0.40596509 -0.23798394
v 0.92104876 -0.40342540 -0.24276313
v 0.91843611 -0.39438942 -0.25610000
v 0.91491467 -0.38862830 -0.26841894
v 0.91733801 -0.37000832 -0.27380201
v 0.91018152 -0.37000832 -0.29000294
v 0.91536903 -0.34918278 -0.28848466
v 0.87420976 -0.34918278 -0.36712566
v 0.87693608 -0.37000832 -0.35477224
v 0.86425132 -0.39000511 -0.36681509
v 0.85792786 -0.39000511 -0.37680483
v 0.88348675 -0.34918278 -0.35149407
v 0.88269156 -0.37000832 -0.34476525
v 0.84452367 -0.41000187 -0.38657025
v 0.83751863 -0.41000187 -0.39657724
v 0.82680285 -0.41004199 -0.41098383
v 0.82509887 -0.40801021 -0.41424471
v 0.80730236 -0.44799042 -0.41424471
v 0.81601131 -0.42999867 -0.41424471
v 0.82339495 -0.42999867 -0.40451378
v 0.83403504 -0.43047988 -0.38953784
v 0.83888173 -0.43747073 -0.37834036
v 0.84327412 -0.44660029 -0.36500350
v 0.84327412 -0.46999222 -0.34531736
v 0.85031700 -0.45066381 -0.35051063
v 0.85739774 -0.45471394 -0.33553469
v 0.85311902 -0.46936399 -0.32930622
v 0.85751134 -0.47560632 -0.31543446
v 0.84334981 -0.48523045 -0.32999635
v 0.84304690 -0.48572499 -0.32999635
v 0.85285395 -0.48572499 -0.31246689
v 0.86417556 -0.46936399 -0.30925775
v 0.87799633 -0.45574319 -0.29593813
v 0.88394111 -0.44944742 -0.28955436
v 0.90014732 -0.42041466 -0.28034106
v 0.91620207 -0.41005534 -0.24966449
v 0.91877687 -0.41632441 -0.23798394
v 0.88106334 -0.44240308 -0.30218387
v 0.89340734 -0.42824760 -0.28820860
v 0.90790963 -0.41000187 -0.27000627
v 0.90185124 -0.41000187 -0.28408504
v 0.90450180 -0.39041948 -0.29105541
v 0.90109396 -0.38403013 -0.30228737
v 0.90279788 -0.37000832 -0.30585882
v 0.90442604 -0.35033232 -0.31132817
v 0.90469110 -0.34918278 -0.31125915
v 0.88098764 -0.38356230 -0.34176317
v 0.87485349 -0.39013878 -0.34906134
v 0.86186582 -0.40524328 -0.36298484
v 0.85531515 -0.41115144 -0.36978269
v 0.88795477 -0.34918278 -0.34331596
v 0.89556563 -0.35033232 -0.32889211
v 0.89064318 -0.37000832 -0.32999635
v 0.84175950 -0.42414400 -0.38256747
v 0.82006288 -0.42062852 -0.41424471
v 0.82320565 -0.41300943 -0.41424471
v 0.84671980 -0.43047988 -0.37099043
v 0.85705698 -0.42999867 -0.35516906
v 0.86065412 -0.44138721 -0.34109029
v 0.86122209 -0.46227956 -0.32221505
v 0.86372119 -0.44883254 -0.32930622
v 0.87413406 -0.44944742 -0.30930951
v 0.88310808 -0.42859516 -0.30930951
v 0.88038182 -0.42098942 -0.32074851
v 0.88950723 -0.41000187 -0.31001690
v 0.89719385 -0.41000187 -0.29407474
v 0.87769336 -0.43431616 -0.31552073
v 0.89923859 -0.39735687 -0.29843986
v 0.89583069 -0.39041948 -0.30937853
v 0.89795113 -0.37000832 -0.31586581
v 0.89942789 -0.35721624 -0.31886789
v 0.90378237 -0.34918278 -0.31315702
v 0.87909436 -0.39690238 -0.33834699
v 0.88488770 -0.39013878 -0.33099705
v 0.86663681 -0.41115144 -0.35147682
v 0.85944247 -0.41855666 -0.35912010
v 0.89514911 -0.34918278 -0.33008260
v 0.89651227 -0.34918278 -0.32756361
v 0.86303961 -0.42999867 -0.34516209
v 0.87303597 -0.42859516 -0.32844353
v 0.87689823 -0.41000187 -0.33430970
v 0.88227504 -0.41000187 -0.32431996
f 1 2 6
f 1 6 12
f 1 12 23
f 1 23 45
f 1 45 44
f 1 44 77
f 1 77 114
f 1 114 153
f 1 153 152
f 1 152 116
f 1 116 115
f 1 115 78
f 1 78 46
f 1 46 24
f 1 24 13
f 1 13 7
f 1 7 3
f 1 3 8
f 1 8 15
f 1 15 25
f 1 25 47
f 1 47 79
f 1 79 88
f 1 88 87
f 1 87 127
f 1 127 128
f 1 128 89
f 1 89 54
f 1 54 53
f 1 53 52
f 1 52 29
f 1 29 16
f 1 16 9
f 1 9 4
f 1 4 5
f 1 5 2
f 2 5 10
f 2 10 19
f 2 19 38
f 2 38 66
f 2 66 104
f 2 104 143
f 2 143 169
f 2 169 175
f 2 175 174
f 2 174 148
f 2 148 109
f 2 109 105
f 2 105 70
f 2 70 69
f 2 69 68
f 2 68 67
f 2 67 39
f 2 39 20
f 2 20 11
f 2 11 6
f 3 7 8
f 4 9 17
f 4 17 34
f 4 34 60
f 4 60 96
f 4 96 134
f 4 134 98
f 4 98 61
f 4 61 35
f 4 35 18
f 4 18 10
f 4 10 5
f 6 11 12
f 7 13 14
f 7 14 8
f 8 14 15
f 9 16 17
f 10 18 19
f 11 20 21
f 11 21 22
f 11 22 23
f 11 23 12
f 13 24 14
f 14 25 15
f 14 24 26
f 14 26 27
f 14 27 28
f 14 28 25
f 16 29 30
f 16 30 17
f 17 30 31
f 17 31 32
f 17 32 33
f 17 33 34
f 18 35 36
f 18 36 37
f 18 37 19
f 19 37 38
f 20 39 21
f 21 39 40
f 21 40 41
f 21 41 42
f 21 42 22
f 22 42 43
f 22 43 44
f 22 44 45
f 22 45 23
f 24 46 26
f 25 28 47
f 26 46 48
f 26 48 27
f 27 48 49
f 27 49 28
f 28 49 50
f 28 50 51
f 28 51 47
f 29 52 31
f 29 31 30
f 31 52 53
f 31 53 54
f 31 54 55
f 31 55 56
f 31 56 32
f 32 56 33
f 33 56 57
f 33 57 58
f 33 58 59
f 33 59 60
f 33 60 34
f 35 61 62
f 35 62 63
f 35 63 36
f 36 64 37
f 36 63 64
f 37 64 38
f 38 64 65
f 38 65 66
f 39 67 40
f 40 67 68
f 40 68 69
f 40 69 70
f 40 70 41
f 41 71 42
f 41 70 72
f 41 72 73
f 41 73 71
f 42 71 43
f 43 71 74
f 43 74 75
f 43 75 76
f 43 76 77
f 43 77 44
f 46 78 48
f 47 51 79
f 48 80 81
f 48 81 49
f 48 78 82
f 48 82 80
f 49 81 83
f 49 83 84
f 49 84 50
f 50 84 85
f 50 85 51
f 51 85 86
f 51 86 87
f 51 87 88
f 51 88 79
f 54 89 90
f 54 90 55
f 55 91 92
f 55 92 56
f 55 90 91
f 56 92 57
f 57 93 58
f 57 92 93
f 58 94 95
f 58 95 96
f 58 96 59
f 58 93 97
f 58 97 94
f 59 96 60
f 61 98 99
f 61 99 62
f 62 99 100
f 62 100 63
f 63 100 101
f 63 101 102
f 63 102 64
f 64 102 65
f 65 102 103
f 65 103 104
f 65 104 66
f 70 105 72
f 71 73 106
f 71 106 107
f 71 107 108
f 71 108 74
f 72 106 73
f 72 105 109
f 72 109 110
f 72 110 106
f 74 108 75
f 75 111 112
f 75 112 113
f 75 113 114
f 75 114 77
f 75 77 76
f 75 108 111
f 78 115 82
f 80 116 117
f 80 117 118
f 80 118 119
f 80 119 81
f 80 82 115
f 80 115 116
f 81 119 83
f 83 119 120
f 83 120 84
f 84 121 86
f 84 86 85
f 84 120 122
f 84 122 123
f 84 123 121
f 86 121 124
f 86 124 125
f 86 125 126
f 86 126 127
f 86 127 87
f 89 125 90
f 89 128 125
f 90 125 129
f 90 129 91
f 91 130 92
f 91 129 130
f 92 130 131
f 92 131 93
f 93 131 97
f 94 97 132
f 94 132 95
f 95 133 134
f 95 134 96
f 95 132 133
f 97 131 135
f 97 135 136
f 97 136 132
f 98 134 99
f 99 134 133
f 99 133 100
f 100 133 137
f 100 137 101
f 101 137 138
f 101 138 139
f 101 139 102
f 102 139 103
f 103 139 140
f 103 140 141
f 103 141 104
f 104 141 142
f 104 142 143
f 106 110 144
f 106 144 145
f 106 145 107
f 107 146 108
f 107 145 146
f 108 146 147
f 108 147 111
f 109 148 110
f 110 148 149
f 110 149 150
f 110 150 144
f 111 147 151
f 111 151 112
f 112 151 117
f 112 117 152
f 112 152 153
f 112 153 113
f 113 153 114
f 116 152 117
f 117 151 118
f 118 151 119
f 119 151 154
f 119 154 155
f 119 155 120
f 120 155 156
f 120 156 122
f 121 123 157
f 121 157 124
f 122 156 123
f 123 156 158
f 123 158 157
f 124 157 125
f 125 157 129
f 125 128 127
f 125 127 126
f 129 157 130
f 130 135 131
f 130 157 159
f 130 159 135
f 132 138 137
f 132 137 133
f 132 136 160
f 132 160 161
f 132 161 162
f 132 162 163
f 132 163 138
f 135 159 164
f 135 164 160
f 135 160 136
f 138 163 165
f 138 165 139
f 139 165 140
f 140 165 166
f 140 166 167
f 140 167 141
f 141 167 168
f 141 168 142
f 142 168 143
f 143 168 169
f 144 170 145
f 144 150 171
f 144 171 170
f 145 170 146
f 146 170 172
f 146 172 173
f 146 173 147
f 147 173 151
f 148 174 149
f 149 174 175
f 149 175 168
f 149 168 150
f 150 168 167
f 150 167 171
f 151 173 154
f 154 173 155
f 155 173 176
f 155 176 156
f 156 176 177
f 156 177 164
f 156 164 158
f 157 158 159
f 158 164 159
f 160 164 161
f 161 164 177
f 161 177 176
f 161 176 178
f 161 178 179
f 161 179 162
f 162 179 165
f 162 165 163
f 165 179 166
f 166 179 170
f 166 170 171
f 166 171 167
f 168 175 169
f 170 178 172
f 170 179 178
f 172 178 173
f 173 178 176
