v -0.79852957 -0.16148171 -0.08513908
v -0.77942419 -0.16148171 -0.08257005
v -0.81851900 -0.16148171 -0.08490402
v -0.83001173 -0.14999530 -0.08493759
v -0.85000116 -0.12999865 -0.08493759
v -0.88998008 -0.07000872 -0.08512229
v -0.90999407 -0.03001542 -0.08505513
v -0.92286193 0.00286724 -0.08473609
v -0.90955204 0.00286724 -0.08305699
v -0.77512670 -0.16148171 -0.08161296
v -0.90500897 0.00286724 -0.08213349
v -0.83659303 -0.16148171 -0.08211669
v -0.84914166 -0.14915875 -0.08220065
v -0.86910653 -0.12887253 -0.08206633
v -0.86999059 -0.10998592 -0.08466893
v -0.90999407 -0.05001207 -0.08450103
v -0.92998350 0.00286724 -0.08475289
v -0.76829982 -0.16148171 -0.07855698
v -0.89936084 0.00286724 -0.08063908
v -0.89911526 0.00286724 -0.08057192
v -0.84204471 -0.16148171 -0.08087416
v -0.86183769 -0.14193550 -0.08089095
v -0.88118863 -0.12145624 -0.08065587
v -0.88575625 -0.10998592 -0.08181445
v -0.89187098 -0.09185541 -0.08309057
v -0.91016597 -0.06946174 -0.08245252
v -0.92406523 -0.05001207 -0.08178087
v -0.93049920 -0.02961324 -0.08245252
v -0.92998350 -0.01000269 -0.08431633
v -0.94096053 0.00286724 -0.08310737
v -0.76488644 -0.16148171 -0.07622303
v -0.89052033 0.00286724 -0.07088348
v -0.75376207 -0.16148171 -0.06661855
v -0.75840336 -0.16148171 -0.07081631
v -0.84243762 -0.16148171 -0.08065587
v -0.85523182 -0.15525588 -0.07617266
v -0.87517214 -0.13479270 -0.07587042
v -0.89575094 -0.10998592 -0.07578647
v -0.89980286 -0.09977041 -0.07991707
v -0.90360922 -0.08645004 -0.08151221
v -0.92124116 -0.06241546 -0.08075662
v -0.94103420 -0.02266348 -0.08067267
v -0.94319522 -0.01000269 -0.08162975
v -0.94567549 0.00286724 -0.08215028
v -0.88489676 0.00286724 -0.06331071
v -0.74501973 -0.16148171 -0.05531817
v -0.85218674 -0.16148171 -0.07298236
v -0.86267263 -0.16148171 -0.06322676
v -0.86873823 -0.14869222 -0.06935549
v -0.88190079 -0.14211246 -0.06253833
v -0.88821197 -0.12789120 -0.06849915
v -0.90076059 -0.12098971 -0.06114467
v -0.91694373 -0.07575192 -0.07775103
v -0.90473884 -0.10998592 -0.06579579
v -0.92318118 -0.08501826 -0.06441893
v -0.93405998 -0.05001207 -0.07424168
v -0.93752253 -0.03599994 -0.07838908
v -0.95318991 -0.01000269 -0.07296558
v -0.95567018 0.00286724 -0.07605512
v -0.95210940 0.00286724 -0.07914467
v -0.88094306 0.00286724 -0.05679579
v -0.74371827 -0.16148171 -0.05316892
v -0.86387593 -0.16148171 -0.06131258
v -0.88489676 -0.14544256 -0.04999541
v -0.89491606 -0.13390788 -0.04999541
v -0.87563872 -0.15543285 -0.04999541
v -0.90306896 -0.12390152 -0.04999541
v -0.91380042 -0.10922981 -0.05033123
v -0.91888368 -0.09833863 -0.05723235
v -0.92887843 -0.06820693 -0.06917079
v -0.94034660 -0.06067802 -0.06059057
v -0.94302332 -0.05001207 -0.06423423
v -0.94901520 -0.02805276 -0.06922117
v -0.96200591 -0.01000269 -0.06295811
v -0.96436340 0.00286724 -0.06604765
v -0.87878203 0.00286724 -0.05147302
v -0.73829114 -0.16148171 -0.04188533
v -0.74136078 -0.16148171 -0.04887041
v -0.86974502 -0.16148171 -0.04999541
v -0.87856102 -0.15845728 -0.03375846
v -0.89801019 -0.13762408 -0.02999726
v -0.90601581 -0.12761772 -0.02999726
v -0.91601056 -0.11453865 -0.02999726
v -0.92143762 -0.10205483 -0.04390026
v -0.92620170 -0.09100278 -0.05033123
v -0.93668759 -0.07432014 -0.04999541
v -0.94240940 -0.06431377 -0.04999541
v -0.94987470 -0.05001207 -0.04999541
v -0.95743829 -0.03440728 -0.04999541
v -0.96001679 -0.02008950 -0.06005325
v -0.97057629 0.00286724 -0.05444504
v -0.87721038 0.00286724 -0.04673795
v -0.73684227 -0.16148171 -0.03770436
v -0.87315845 -0.16148171 -0.04054205
v -0.87600708 -0.16148171 -0.03196182
v -0.87848735 -0.16148171 -0.02145062
v -0.88008356 -0.16009820 -0.02042636
v -0.88646841 -0.15107316 -0.02825100
v -0.89953274 -0.13944197 -0.00999912
v -0.90744013 -0.12943560 -0.00999912
v -0.91743487 -0.11653349 -0.00999912
v -0.92465460 -0.10654321 -0.00999912
v -0.92318118 -0.10454838 -0.02999726
v -0.93398631 -0.08847706 -0.02944316
v -0.93904507 -0.07842243 -0.03573981
v -0.95957476 -0.03912089 -0.03817451
v -0.96195680 -0.02440092 -0.04999541
v -0.96782595 -0.01000269 -0.04999541
v -0.97273731 0.00286724 -0.04960921
v -0.87622809 0.00286724 -0.04343011
v -0.73477948 -0.16148171 -0.02999726
v -0.87261820 0.00286724 -0.03003085
v -0.87885571 -0.16148171 -0.01906629
v -0.87976432 -0.16148171 -0.00999912
v -0.88059926 -0.16062906 -0.00999912
v -0.89012742 -0.14999530 -0.00999912
v -0.89972919 -0.13966718 0.00999902
v -0.90761203 -0.12967691 0.00999902
v -0.91760677 -0.11677480 0.00999902
v -0.92482650 -0.10678452 0.00999902
v -0.93482125 -0.09216107 0.00999902
v -0.93464935 -0.09183933 -0.00999912
v -0.94049394 -0.08080336 -0.02240771
v -0.94461954 -0.07105440 -0.02944316
v -0.95606309 -0.04927205 -0.03090398
v -0.96104819 -0.04212924 -0.02484241
v -0.96458441 -0.03147938 -0.03090398
v -0.97379327 -0.01000269 -0.02999726
v -0.97870469 0.00286724 -0.02999726
v -0.97853279 0.00286724 -0.03056816
v -0.73320782 -0.16148171 -0.02111480
v -0.87163591 0.00286724 -0.02343196
v -0.73124325 -0.16148171 -0.00999912
v -0.88015723 -0.16148171 0.00999902
v -0.88077116 -0.16083822 0.00999902
v -0.89052033 -0.14999530 0.00999902
v -0.88032913 -0.16037168 0.02181992
v -0.89847678 -0.13815497 0.02999717
v -0.90643328 -0.12816468 0.02999717
v -0.91642803 -0.11516607 0.02999717
v -0.92367232 -0.10515970 0.02999717
v -0.94076407 -0.08122164 0.02445612
v -0.94135344 -0.08215471 0.00999902
v -0.94115698 -0.08184905 -0.00999912
v -0.94808203 -0.07000872 -0.00999912
v -0.95692259 -0.05403392 -0.00999912
v -0.96198136 -0.04402756 -0.00999912
v -0.96841526 -0.03001542 -0.00999912
v -0.97993255 0.00011629 -0.01943569
v -0.98044825 0.00286724 -0.02165211
v -0.86994147 0.00286724 -0.01062039
v -0.73109591 -0.16148171 0.00999902
v -0.86964679 0.00286724 0.00999902
v -0.87910128 -0.16148171 0.02264269
v -0.88698411 -0.15137881 0.02909045
v -0.87902761 -0.15895599 0.03515202
v -0.89543170 -0.13448703 0.04999531
v -0.90351099 -0.12448067 0.04999531
v -0.88543701 -0.14615041 0.04999531
v -0.92183053 -0.10256962 0.04499158
v -0.93958533 -0.07932332 0.03778822
v -0.93469846 -0.08873446 0.03066881
v -0.94533169 -0.07160137 0.03066881
v -0.95606309 -0.05231257 0.02999717
v -0.95716816 -0.05448437 0.00999902
v -0.94854861 -0.07000872 0.00999902
v -0.96220237 -0.04447800 0.00999902
v -0.96885729 -0.03001542 0.00999902
v -0.98049736 -0.00133158 -0.00610360
v -0.97710848 -0.00879613 -0.01166144
v -0.98111129 0.00286724 -0.01676592
v -0.73269212 -0.16148171 0.01940201
v -0.87023616 0.00286724 0.01604380
v -0.87178326 0.00286724 0.03001396
v -0.87686658 -0.16148171 0.03367441
v -0.87134123 -0.16148171 0.04999531
v -0.87644911 -0.15615678 0.04999531
v -0.90105528 -0.12134363 0.06148039
v -0.88224459 -0.14256293 0.06287405
v -0.91932571 -0.09903040 0.05832367
v -0.91441435 -0.10953547 0.05098598
v -0.92711031 -0.09140497 0.05098598
v -0.93749797 -0.07588062 0.04999531
v -0.94336712 -0.06587425 0.04999531
v -0.96016413 -0.04035963 0.04049157
v -0.96112186 -0.04230620 0.02999717
v -0.98017812 -0.00049503 0.02101395
v -0.97664189 -0.01135403 0.00999902
v -0.96664721 -0.03001542 0.02999717
v -0.98049736 -0.00136375 0.00999902
v -0.98197079 0.00286724 0.00999902
v -0.98194623 0.00286724 -0.00014277
v -0.98174977 0.00286724 -0.00858867
v -0.73450935 -0.16148171 0.02999717
v -0.87401795 0.00286724 0.03856060
v -0.86355668 -0.16148171 0.06413338
v -0.88838387 -0.12808424 0.06885166
v -0.89452314 -0.11339645 0.07481249
v -0.90002388 -0.10005999 0.08001772
v -0.90424770 -0.10802326 0.06888525
v -0.92374599 -0.08569393 0.06488897
v -0.86910653 -0.14906223 0.06984234
v -0.87531948 -0.13482487 0.07620615
v -0.94103420 -0.06183631 0.06158114
v -0.95331270 -0.04821028 0.04829941
v -0.96232516 -0.02893757 0.04829941
v -0.96942210 -0.01000269 0.04999531
v -0.97890115 0.00286724 0.03426209
v -0.97578239 -0.00829743 0.02860351
v -0.95770842 -0.03488991 0.05382367
v -0.97902393 0.00286724 0.03367441
v -0.98086572 0.00286724 0.02348224
v -0.73814380 -0.16148171 0.04210351
v -0.87725949 0.00286724 0.04999531
v -0.86142021 -0.16148171 0.06611472
v -0.85555106 -0.15554544 0.07679383
v -0.88118863 -0.12148841 0.08065577
v -0.88870311 -0.10802326 0.08161287
v -0.90309352 -0.08998927 0.08129384
v -0.92168319 -0.06313939 0.08099160
v -0.91741031 -0.07647585 0.07822107
v -0.92939413 -0.06915608 0.06990950
v -0.86198503 -0.14220899 0.08094122
v -0.93514049 -0.05001207 0.07548413
v -0.94405472 -0.05001207 0.06549345
v -0.96065527 -0.02155345 0.06104383
v -0.97406340 0.00286724 0.05004568
v -0.74357092 -0.16148171 0.05337031
v -0.87878203 0.00286724 0.05404196
v -0.85277611 -0.16148171 0.07382181
v -0.84253585 -0.16148171 0.08099160
v -0.86920476 -0.12888862 0.08223413
v -0.88998008 -0.08998927 0.08455130
v -0.91043609 -0.06989610 0.08298972
v -0.92512119 -0.05001207 0.08223413
v -0.94157445 -0.02412743 0.08099160
v -0.93848026 -0.03746389 0.07906063
v -0.84933811 -0.14931962 0.08235167
v -0.94962913 -0.02950063 0.07006063
v -0.96288997 -0.01000269 0.06421733
v -0.96431428 0.00286724 0.06809607
v -0.75368840 -0.16148171 0.06670241
v -0.88312864 0.00286724 0.06304196
v -0.88907146 0.00286724 0.07090017
v -0.82942235 -0.16148171 0.08339271
v -0.86999059 -0.10998592 0.08525652
v -0.90999407 -0.05001207 0.08567630
v -0.93108857 -0.03048196 0.08319122
v -0.94412839 -0.01000269 0.08211659
v -0.94783646 0.00286724 0.08235167
v -0.95662791 0.00286724 0.07716323
v -0.95412308 -0.01000269 0.07422480
v -0.83001173 -0.14999530 0.08522294
v -0.85000116 -0.12999865 0.08539085
v -0.95839602 0.00286724 0.07516509
v -0.76510745 -0.16148171 0.07620615
v -0.89830488 0.00286724 0.08104196
v -0.81002229 -0.16148171 0.08495428
v -0.88998008 -0.07000872 0.08623040
v -0.90999407 -0.03001542 0.08639832
v -0.92998350 0.00286724 0.08606249
v -0.92998350 -0.01000269 0.08559234
v -0.86999059 -0.08998927 0.08602890
v -0.81002229 -0.14999530 0.08503824
v -0.77529860 -0.16148171 0.08146174
v -0.90928191 0.00286724 0.08408114
v -0.79040122 -0.16148171 0.08384608
v -0.90999407 -0.01000269 0.08560914
f 1 2 10
f 1 10 18
f 1 18 31
f 1 31 34
f 1 34 33
f 1 33 46
f 1 46 62
f 1 62 78
f 1 78 77
f 1 77 93
f 1 93 111
f 1 111 131
f 1 131 133
f 1 133 152
f 1 152 172
f 1 172 194
f 1 194 213
f 1 213 228
f 1 228 242
f 1 242 256
f 1 256 265
f 1 265 267
f 1 267 258
f 1 258 245
f 1 245 231
f 1 231 230
f 1 230 215
f 1 215 196
f 1 196 176
f 1 176 175
f 1 175 154
f 1 154 134
f 1 134 114
f 1 114 113
f 1 113 96
f 1 96 95
f 1 95 94
f 1 94 79
f 1 79 63
f 1 63 48
f 1 48 47
f 1 47 35
f 1 35 21
f 1 21 12
f 1 12 3
f 1 3 4
f 1 4 5
f 1 5 6
f 1 6 7
f 1 7 8
f 1 8 9
f 1 9 2
f 2 9 11
f 2 11 10
f 3 12 13
f 3 13 4
f 4 13 5
f 5 13 14
f 5 14 15
f 5 15 6
f 6 16 7
f 6 15 16
f 7 16 17
f 7 17 8
f 8 17 30
f 8 30 44
f 8 44 60
f 8 60 59
f 8 59 75
f 8 75 91
f 8 91 109
f 8 109 130
f 8 130 129
f 8 129 150
f 8 150 171
f 8 171 193
f 8 193 192
f 8 192 191
f 8 191 212
f 8 212 211
f 8 211 208
f 8 208 227
f 8 227 241
f 8 241 255
f 8 255 251
f 8 251 250
f 8 250 261
f 8 261 266
f 8 266 257
f 8 257 244
f 8 244 243
f 8 243 229
f 8 229 214
f 8 214 195
f 8 195 174
f 8 174 173
f 8 173 153
f 8 153 151
f 8 151 132
f 8 132 112
f 8 112 110
f 8 110 92
f 8 92 76
f 8 76 61
f 8 61 45
f 8 45 32
f 8 32 20
f 8 20 19
f 8 19 11
f 8 11 9
f 10 11 19
f 10 19 20
f 10 20 18
f 12 21 13
f 13 21 22
f 13 22 14
f 14 22 23
f 14 23 24
f 14 24 15
f 15 24 25
f 15 25 16
f 16 25 26
f 16 26 27
f 16 27 28
f 16 28 29
f 16 29 17
f 17 29 30
f 18 20 31
f 20 32 33
f 20 33 34
f 20 34 31
f 21 35 22
f 22 35 36
f 22 36 37
f 22 37 23
f 23 37 38
f 23 38 39
f 23 39 24
f 24 39 40
f 24 40 25
f 25 40 26
f 26 40 41
f 26 41 27
f 27 41 42
f 27 42 43
f 27 43 28
f 28 43 29
f 29 43 44
f 29 44 30
f 32 45 46
f 32 46 33
f 35 47 36
f 36 48 49
f 36 49 37
f 36 47 48
f 37 50 51
f 37 51 38
f 37 49 50
f 38 52 39
f 38 51 52
f 39 53 41
f 39 41 40
f 39 52 54
f 39 54 55
f 39 55 53
f 41 56 57
f 41 57 42
f 41 53 56
f 42 57 58
f 42 58 59
f 42 59 60
f 42 60 43
f 43 60 44
f 45 61 46
f 46 61 62
f 48 63 50
f 48 50 49
f 50 64 65
f 50 65 52
f 50 52 51
f 50 63 66
f 50 66 64
f 52 65 67
f 52 67 68
f 52 68 69
f 52 69 55
f 52 55 54
f 53 55 70
f 53 70 56
f 55 71 70
f 55 69 71
f 56 70 72
f 56 72 57
f 57 72 73
f 57 73 58
f 58 74 59
f 58 73 74
f 59 74 75
f 61 76 77
f 61 77 78
f 61 78 62
f 63 79 66
f 64 66 80
f 64 80 81
f 64 81 65
f 65 81 67
f 66 79 80
f 67 81 82
f 67 82 83
f 67 83 84
f 67 84 68
f 68 84 69
f 69 84 85
f 69 85 86
f 69 86 71
f 70 71 72
f 71 86 87
f 71 87 88
f 71 88 89
f 71 89 90
f 71 90 72
f 72 90 73
f 73 90 74
f 74 90 91
f 74 91 75
f 76 92 93
f 76 93 77
f 79 94 80
f 80 94 95
f 80 95 96
f 80 96 97
f 80 97 98
f 80 98 81
f 81 99 82
f 81 98 97
f 81 97 99
f 82 100 101
f 82 101 83
f 82 99 100
f 83 101 102
f 83 102 103
f 83 103 84
f 84 103 104
f 84 104 105
f 84 105 85
f 85 105 86
f 86 105 87
f 87 105 106
f 87 106 88
f 88 106 89
f 89 106 107
f 89 107 90
f 90 107 108
f 90 108 109
f 90 109 91
f 92 110 93
f 93 110 112
f 93 112 111
f 96 113 97
f 97 113 114
f 97 114 115
f 97 115 116
f 97 116 99
f 99 116 117
f 99 117 100
f 100 117 118
f 100 118 119
f 100 119 101
f 101 119 120
f 101 120 102
f 102 120 121
f 102 121 122
f 102 122 123
f 102 123 103
f 103 123 104
f 104 123 105
f 105 123 124
f 105 124 125
f 105 125 106
f 106 125 126
f 106 126 127
f 106 127 128
f 106 128 108
f 106 108 107
f 108 128 129
f 108 129 130
f 108 130 109
f 111 112 131
f 112 132 133
f 112 133 131
f 114 134 115
f 115 134 135
f 115 135 136
f 115 136 116
f 116 136 117
f 117 136 137
f 117 137 138
f 117 138 139
f 117 139 118
f 118 139 119
f 119 139 140
f 119 140 141
f 119 141 120
f 120 141 142
f 120 142 121
f 121 142 143
f 121 143 122
f 122 143 144
f 122 144 123
f 123 144 145
f 123 145 146
f 123 146 126
f 123 126 124
f 124 126 125
f 126 147 148
f 126 148 149
f 126 149 127
f 126 146 147
f 127 149 128
f 128 149 129
f 129 149 150
f 132 151 133
f 133 151 153
f 133 153 152
f 134 137 135
f 134 154 137
f 135 137 136
f 137 155 138
f 137 154 156
f 137 156 155
f 138 157 158
f 138 158 139
f 138 155 156
f 138 156 159
f 138 159 157
f 139 158 160
f 139 160 140
f 140 160 141
f 141 160 161
f 141 161 162
f 141 162 142
f 142 161 163
f 142 163 164
f 142 164 165
f 142 165 166
f 142 166 143
f 142 162 161
f 143 166 144
f 144 166 145
f 145 166 165
f 145 165 146
f 146 165 147
f 147 165 167
f 147 167 168
f 147 168 148
f 148 168 169
f 148 169 170
f 148 170 149
f 149 169 171
f 149 171 150
f 149 170 169
f 152 153 173
f 152 173 174
f 152 174 172
f 154 175 156
f 156 175 176
f 156 176 177
f 156 177 159
f 157 178 158
f 157 159 179
f 157 179 178
f 158 178 180
f 158 180 181
f 158 181 160
f 159 177 179
f 160 182 161
f 160 181 180
f 160 180 182
f 161 183 184
f 161 184 185
f 161 185 164
f 161 164 163
f 161 182 183
f 164 185 186
f 164 186 165
f 165 186 167
f 167 186 168
f 168 187 188
f 168 188 169
f 168 186 189
f 168 189 187
f 169 188 190
f 169 190 191
f 169 191 192
f 169 192 193
f 169 193 171
f 172 174 194
f 174 195 194
f 176 196 177
f 177 196 179
f 178 179 197
f 178 197 198
f 178 198 199
f 178 199 200
f 178 200 201
f 178 201 180
f 179 196 202
f 179 202 203
f 179 203 197
f 180 201 204
f 180 204 183
f 180 183 182
f 183 204 184
f 184 204 205
f 184 205 185
f 185 206 207
f 185 207 208
f 185 208 209
f 185 209 189
f 185 189 186
f 185 205 210
f 185 210 206
f 187 211 212
f 187 212 191
f 187 191 190
f 187 190 188
f 187 189 209
f 187 209 211
f 194 195 214
f 194 214 213
f 196 215 216
f 196 216 202
f 197 203 198
f 198 203 199
f 199 203 217
f 199 217 218
f 199 218 219
f 199 219 220
f 199 220 221
f 199 221 201
f 199 201 200
f 201 222 204
f 201 221 222
f 202 216 203
f 203 216 223
f 203 223 217
f 204 222 224
f 204 224 225
f 204 225 226
f 204 226 210
f 204 210 205
f 206 210 226
f 206 226 207
f 207 227 208
f 207 226 227
f 208 211 209
f 213 214 229
f 213 229 228
f 215 230 216
f 216 230 231
f 216 231 223
f 217 223 232
f 217 232 218
f 218 232 233
f 218 233 219
f 219 233 234
f 219 234 220
f 220 235 236
f 220 236 237
f 220 237 221
f 220 234 235
f 221 237 224
f 221 224 222
f 223 231 238
f 223 238 232
f 224 237 225
f 225 237 239
f 225 239 226
f 226 240 227
f 226 239 240
f 227 240 241
f 228 229 243
f 228 243 244
f 228 244 242
f 231 245 238
f 232 238 246
f 232 246 233
f 233 247 234
f 233 246 247
f 234 247 235
f 235 248 236
f 235 247 248
f 236 248 249
f 236 249 250
f 236 250 251
f 236 251 237
f 237 251 252
f 237 252 240
f 237 240 239
f 238 245 253
f 238 253 254
f 238 254 246
f 240 252 255
f 240 255 241
f 242 244 257
f 242 257 256
f 245 258 253
f 246 254 259
f 246 259 247
f 247 259 260
f 247 260 261
f 247 261 262
f 247 262 248
f 248 262 249
f 249 262 250
f 250 262 261
f 251 255 252
f 253 263 259
f 253 259 254
f 253 258 264
f 253 264 263
f 256 257 265
f 257 266 265
f 258 267 264
f 259 263 260
f 260 268 261
f 260 263 264
f 260 264 268
f 261 268 266
f 264 267 268
f 265 266 267
f 266 268 267
