v -0.83118045 0.42880982 0.08910097
v -0.83118045 0.40995818 0.08765864
v -0.83118045 0.42994946 0.08899543
v -0.87001532 0.40995818 0.08737721
v -0.89001113 0.36997560 0.08890749
v -0.91000688 0.32999304 0.08881954
v -0.94998085 0.15002400 0.08790489
v -0.94998085 0.12998521 0.08778176
v -0.93000263 0.01003751 0.08630426
v -0.90930587 0.00286725 0.08407041
v -0.89833540 0.00286725 0.08102745
v -0.83118045 0.40881851 0.08753552
v -0.85001957 0.42994946 0.08702543
v -0.83118045 0.45146024 0.08472122
v -0.86880612 0.42904723 0.08276880
v -0.88911736 0.40886599 0.08282156
v -0.89001113 0.38996688 0.08709578
v -0.91000688 0.34998432 0.08836222
v -0.92998511 0.31000173 0.08816873
v -0.92998511 0.29001045 0.08857329
v -0.94998085 0.20966545 0.08808079
v -0.96999413 0.15002400 0.08551274
v -0.94998085 0.10999393 0.08753552
v -0.94998085 0.09005013 0.08714855
v -0.94998085 0.07001136 0.08660328
v -0.93000263 0.00286725 0.08605801
v -0.88908231 0.00286725 0.07089598
v -0.83118045 0.39167637 0.08248737
v -0.88317645 0.00286725 0.06303353
v -0.83137321 0.45146024 0.08468604
v -0.85001957 0.44514471 0.08250496
v -0.83118045 0.45188761 0.08459809
v -0.88184458 0.42173451 0.08106263
v -0.86134058 0.44101351 0.08071084
v -0.90126199 0.40145832 0.08081638
v -0.90569580 0.38996688 0.08261050
v -0.91181189 0.37168509 0.08470363
v -0.92998511 0.32999304 0.08639221
v -0.94998085 0.27001917 0.08695507
v -0.94998085 0.24998040 0.08785213
v -0.94998085 0.23003662 0.08809838
v -0.98173577 0.15002400 0.08137923
v -0.96999413 0.12998521 0.08517854
v -0.96999413 0.17001528 0.08551274
v -0.94998085 0.05002008 0.08577658
v -0.94782531 0.00286725 0.08234666
v -0.94998085 0.03002881 0.08438702
v -0.83118045 0.39148641 0.08239942
v -0.87881279 0.00286725 0.05404536
v -0.87728810 0.00286725 0.04998222
v -0.83118045 0.46147966 0.08086915
v -0.89518094 0.41475418 0.07467769
v -0.87467694 0.43507785 0.07448421
v -0.83894390 0.45915288 0.07932128
v -0.85166693 0.45587641 0.07158196
v -0.86880612 0.44481233 0.06867971
v -0.91647351 0.39186630 0.07182821
v -0.91966301 0.37952012 0.07972584
v -0.90524012 0.40886599 0.06880284
v -0.92353600 0.36617678 0.08210040
v -0.93010777 0.34879717 0.08327889
v -0.94297093 0.32999304 0.08194210
v -0.94712430 0.31000173 0.08361309
v -0.96387804 0.27001917 0.08255772
v -0.96640158 0.24998040 0.08350755
v -0.96999413 0.20966545 0.08454532
v -0.96999413 0.19000655 0.08523131
v -0.98173577 0.17001528 0.08137923
v -0.99100637 0.15002400 0.06998133
v -0.98138523 0.12998521 0.08111539
v -0.96999413 0.10999393 0.08431666
v -0.96633148 0.07001136 0.08303264
v -0.96393061 0.05002008 0.08225871
v -0.95727116 0.00614373 0.07791413
v -0.95662278 0.00286725 0.07715779
v -0.95034891 0.01169950 0.08248737
v -0.96149462 0.03002881 0.08097468
v -0.96014524 0.01948708 0.08011280
v -0.83118045 0.38213181 0.07444903
v -0.87404603 0.00286725 0.03854913
v -0.87182039 0.00286725 0.03000070
v -0.83118045 0.46974206 0.07131812
v -0.88803083 0.42800254 0.06792337
v -0.90094656 0.42097473 0.06134495
v -0.88089824 0.44072860 0.06116905
v -0.83118045 0.47016943 0.07075526
v -0.84609401 0.46413881 0.06598854
v -0.85943037 0.45953274 0.05882967
v -0.91987330 0.39979631 0.05962119
v -0.92460501 0.38645297 0.06639310
v -0.94195449 0.36332768 0.06317424
v -0.93687236 0.35463786 0.07648940
v -0.94062263 0.34134200 0.08048218
v -0.95949680 0.29893768 0.07962030
v -0.96170491 0.28559434 0.08125611
v -0.98001832 0.22025466 0.08000727
v -0.97102809 0.22813720 0.08312058
v -0.98056161 0.21004532 0.08046459
v -0.98136771 0.19000655 0.08111539
v -0.99098885 0.17001528 0.06998133
v -0.99926054 0.15002400 0.05816127
v -0.99020022 0.12998521 0.06998133
v -0.98056161 0.10999393 0.08046459
v -0.97102809 0.09190206 0.08282156
v -0.98001832 0.09983210 0.08000727
v -0.96429861 0.00286725 0.06808168
v -0.95839274 0.00286725 0.07515260
v -0.96526247 0.01169950 0.07073767
v -0.97837096 0.08648874 0.07881119
v -0.97633815 0.07001136 0.07687636
v -0.97391969 0.05002008 0.07363991
v -0.98231405 0.05002008 0.06364916
v -0.98071933 0.03748399 0.06118665
v -0.83118045 0.37828553 0.06998133
v -0.87027824 0.00286725 0.01603474
v -0.91458082 0.40972072 0.05177633
v -0.89344597 0.43355834 0.04998222
v -0.90332991 0.42353892 0.04998222
v -0.86954218 0.45411944 0.05128383
v -0.88343930 0.44300789 0.04998222
v -0.83118045 0.47928661 0.05483688
v -0.86254978 0.46190703 0.04549693
v -0.83668321 0.47795701 0.04998222
v -0.85166693 0.46751028 0.05128383
v -0.92223918 0.40288287 0.04628845
v -0.93009025 0.39010933 0.05022847
v -0.93794137 0.37667102 0.05416849
v -0.95502800 0.34927204 0.04992945
v -0.95876080 0.33735323 0.05656064
v -0.96177506 0.32400990 0.06291040
v -0.94481105 0.34879717 0.06989338
v -0.95711344 0.31000173 0.07689395
v -0.98007089 0.28027600 0.06013128
v -0.98156047 0.27001917 0.06250585
v -0.97388464 0.27001917 0.07251420
v -0.97639072 0.24998040 0.07638386
v -0.96464908 0.31000173 0.06690319
v -0.97838855 0.23355052 0.07863530
v -0.98499537 0.22813720 0.07117741
v -0.98832506 0.21004532 0.06998133
v -0.98836011 0.20966545 0.06998133
v -0.99013013 0.19000655 0.06998133
v -0.99924302 0.17001528 0.05810850
v -1.00290561 0.15002400 0.04815292
v -0.99880487 0.12998521 0.05694761
v -0.98844773 0.10999393 0.06998133
v -0.98517060 0.09190206 0.07128294
v -0.98459226 0.07001136 0.06686801
v -0.97875655 0.02414063 0.05677171
v -0.97404236 0.00286725 0.05001739
v -0.99284643 0.07001136 0.04998222
v -0.98827249 0.05002008 0.04998222
v -0.98303258 0.03050366 0.05005258
v -0.83118045 0.37619615 0.06727257
v -0.86966485 0.00286725 0.00998400
v -0.89667052 0.43669236 0.02998311
v -0.90623903 0.42667297 0.02998311
v -0.91626322 0.41546646 0.02998311
v -0.88668138 0.44590449 0.02998311
v -0.87502742 0.45592386 0.02998311
v -0.83118045 0.48109105 0.04998222
v -0.83967996 0.47976148 0.03876020
v -0.86503828 0.46380642 0.02998311
v -0.83118045 0.48232567 0.04609497
v -0.92428952 0.40549457 0.02998311
v -0.94025463 0.38037485 0.04083575
v -0.94391727 0.36997560 0.04850471
v -0.96107405 0.34210175 0.04322790
v -0.96421099 0.33042040 0.04992945
v -0.97421759 0.30824479 0.04827605
v -0.97775763 0.29357186 0.05378152
v -0.98161310 0.28815854 0.04827605
v -0.98671281 0.27001917 0.04998222
v -0.99191761 0.24998040 0.04998222
v -0.98415416 0.24998040 0.06639310
v -0.99775338 0.21004532 0.05395741
v -0.98851782 0.20966545 0.06975266
v -0.99875230 0.19000655 0.05675412
v -1.00288820 0.17001528 0.04810015
v -1.00774252 0.15002400 0.02998311
v -1.00244999 0.12998521 0.04693926
v -1.00150371 0.10999393 0.04437121
v -0.99785852 0.10999393 0.05436197
v -0.99687713 0.08976522 0.04906757
v -0.98119247 0.01640055 0.04343897
v -0.97654843 0.00984758 0.05005258
v -0.97889674 0.00286725 0.03425732
v -0.97894931 0.00305718 0.03434527
v -1.00059235 0.09627071 0.04178557
v -0.99950588 0.08292735 0.03742341
v -0.99375772 0.05002008 0.02998311
v -0.83118045 0.36707899 0.05401018
v -0.86998028 0.00286725 -0.01061315
v -0.83118045 0.35349822 -0.00999753
v -0.83118045 0.35383064 0.00620228
v -0.83118045 0.35392559 0.00998400
v -0.83118045 0.35772440 0.02998311
v -0.83118045 0.36071599 0.03814457
v -0.83118045 0.36608180 0.05249749
v -0.89816010 0.43811691 0.00998400
v -0.90755337 0.42814499 0.00998400
v -0.91754252 0.41698599 0.00998400
v -0.88815349 0.44723409 0.00998400
v -0.87663972 0.45725346 0.00998400
v -0.83118045 0.48564965 0.03126713
v -0.83181137 0.48531723 0.03124954
v -0.84141493 0.48085362 0.02542746
v -0.84886295 0.47491795 0.03124954
v -0.85257816 0.47496545 0.00998400
v -0.86665058 0.46499354 0.00998400
v -0.92548126 0.40701407 0.00998400
v -0.93548787 0.39362323 0.00998400
v -0.93429619 0.39191377 0.02998311
v -0.94128859 0.38189441 0.02998311
v -0.94859642 0.36997560 0.02998311
v -0.95730621 0.35487530 0.02998311
v -0.96251106 0.34490341 0.02998311
v -0.96962613 0.32999304 0.02998311
v -0.98014098 0.30040973 0.04046637
v -0.99209291 0.27001917 0.02998311
v -0.99926054 0.23606724 0.03601626
v -1.00046968 0.22272389 0.04141619
v -0.99654418 0.22965673 0.04883891
v -1.00134599 0.21004532 0.04394906
v -1.00236237 0.19000655 0.04678095
v -1.00768995 0.17001528 0.02998311
v -1.01017845 0.15002400 0.00998400
v -1.00679612 0.12998521 0.02998311
v -1.00488591 0.10999393 0.02998311
v -0.98836011 0.03002881 0.02998311
v -0.97901940 0.00286725 0.03367687
v -0.98227900 0.00984758 0.02859355
v -1.00192428 0.08976522 0.03044043
v -1.00073266 0.07637440 0.02407308
v -0.99820900 0.06982143 0.03044043
v -0.99931312 0.06326847 0.00998400
v -0.99614108 0.05002008 0.00998400
v -0.87166268 0.00286725 -0.02341821
v -0.83118045 0.37448668 -0.06830628
v -0.83118045 0.37310964 -0.06652975
v -0.83118045 0.36328018 -0.04997816
v -0.83118045 0.35938638 -0.03875614
v -0.83118045 0.35648978 -0.02997905
v -0.83118045 0.35406804 -0.01399031
v -0.89817762 0.43816441 -0.00999753
v -0.90753585 0.42814499 -0.00999753
v -0.91752499 0.41698599 -0.00999753
v -0.88817102 0.44723409 -0.00999753
v -0.87663972 0.45725346 -0.00999753
v -0.83118045 0.48778647 0.01156704
v -0.84257156 0.48156589 0.00998400
v -0.83118045 0.48792893 0.00998400
v -0.85257816 0.47501296 -0.00999753
v -0.86665058 0.46499354 -0.00999753
v -0.92546374 0.40696660 -0.00999753
v -0.93545282 0.39357576 -0.00999753
v -0.94246274 0.38365135 0.00998400
v -0.95092720 0.36997560 0.00998400
v -0.95844531 0.35710710 0.00998400
v -0.96366769 0.34713519 0.00998400
v -0.97197443 0.32999304 0.00998400
v -0.97828335 0.31584242 0.00998400
v -0.97710919 0.31289834 0.02998311
v -0.98112237 0.30287898 0.02998311
v -0.98574889 0.29001045 0.02998311
v -0.99447626 0.27001917 0.00998400
v -1.00046968 0.24214534 0.02268352
v -0.99756062 0.24922064 0.02959614
v -1.00155628 0.22965673 0.02959614
v -1.00451791 0.21004532 0.02998311
v -1.00660336 0.19000655 0.02998311
v -1.01010835 0.17001528 0.00998400
v -1.00989807 0.17001528 -0.00999753
v -1.00995064 0.15002400 -0.00999753
v -1.00921464 0.12998521 0.00998400
v -1.00726938 0.10999393 0.00998400
v -0.99072593 0.03002881 0.00998400
v -0.98085952 0.00286725 0.02347504
v -1.00439525 0.09005013 0.00998400
v -1.00136352 0.07328784 0.00998400
v -0.99917293 0.06393325 -0.00999753
v -0.99587822 0.05002008 -0.00999753
v -0.87264407 0.00286725 -0.03003182
v -0.83118045 0.39077413 -0.08346831
v -0.83118045 0.39025182 -0.08299340
v -0.89679319 0.43678731 -0.02997905
v -0.90625656 0.42676795 -0.02997905
v -0.88680404 0.44599944 -0.02997905
v -0.91626322 0.41541898 -0.02997905
v -0.92421943 0.40539959 -0.02997905
v -0.87513256 0.45601887 -0.02997905
v -0.86512595 0.46385390 -0.02997905
v -0.83118045 0.48797640 -0.00999753
v -0.84257156 0.48156589 -0.00999753
v -0.84143245 0.48085362 -0.02544099
v -0.93422610 0.39181882 -0.02997905
v -0.94242769 0.38360387 -0.00999753
v -0.95087463 0.36997560 -0.00999753
v -0.95842779 0.35705960 -0.00999753
v -0.96365017 0.34708771 -0.00999753
v -0.97193938 0.32999304 -0.00999753
v -0.97826582 0.31574747 -0.00999753
v -0.98229653 0.30577555 -0.00999753
v -0.98231405 0.30582306 0.00998400
v -0.98813230 0.29001045 0.00998400
v -0.98807973 0.29001045 -0.00999753
v -0.99437112 0.27001917 -0.00999753
v -0.99864715 0.25430158 0.00998400
v -1.00096047 0.24432966 0.00998400
v -1.00376439 0.23003662 0.00998400
v -1.00688374 0.21004532 0.00998400
v -1.00693631 0.20966545 0.00998400
v -1.00460553 0.20966545 0.02963132
v -1.00900424 0.19000655 0.00998400
v -1.00881147 0.19000655 -0.00999753
v -1.00700641 0.17001528 -0.02997905
v -1.00597250 0.19000655 -0.02997905
v -1.00705910 0.15002400 -0.02997905
v -1.00896919 0.12998521 -0.00999753
v -1.00698900 0.10999393 -0.00999753
v -1.00413239 0.09005013 -0.00999753
v -0.99046308 0.03002881 -0.00999753
v -0.98441702 0.01003751 0.00998400
v -0.98196357 0.00286725 0.00998400
v -1.00122333 0.07395265 -0.00999753
v -1.00055730 0.07722913 -0.02276741
v -0.99300420 0.05002008 -0.02997905
v -0.87627167 0.00286725 -0.04341732
v -0.83118045 0.40995818 -0.08930799
v -0.87723553 0.00286725 -0.04672413
v -0.87883031 0.00286725 -0.05145567
v -0.88096833 0.00286725 -0.05678524
v -0.88373721 0.44329280 -0.04997816
v -0.89372635 0.43374828 -0.04997816
v -0.90347010 0.42377639 -0.04997816
v -0.92218655 0.40283537 -0.04609091
v -0.94018453 0.38027990 -0.04060303
v -0.86265492 0.46195450 -0.04602055
v -0.84886295 0.47491795 -0.03126307
v -0.83967996 0.47976148 -0.03877373
v -0.83118045 0.48645687 -0.02380518
v -0.83181137 0.48526976 -0.03126307
v -0.94121850 0.38179940 -0.02997905
v -0.94843870 0.36997560 -0.02997905
v -0.95720106 0.35468537 -0.02997905
v -0.96242344 0.34471345 -0.02997905
v -0.96948594 0.32999304 -0.02997905
v -0.97705662 0.31270841 -0.02997905
v -0.98106980 0.30273652 -0.02997905
v -0.98555613 0.29001045 -0.02997905
v -0.99179494 0.27001917 -0.02997905
v -1.00036454 0.24171798 -0.02194071
v -0.99861211 0.25396916 -0.00999753
v -1.00089037 0.24404475 -0.00999753
v -1.00358915 0.23003662 -0.00999753
v -1.00670850 0.21004532 -0.00999753
v -1.00392210 0.21004532 -0.02997905
v -1.00244999 0.17001528 -0.04674171
v -1.00192428 0.19000655 -0.04544010
v -1.00092542 0.21004532 -0.04264339
v -1.00244999 0.15002400 -0.04672413
v -1.00195932 0.12998521 -0.04540492
v -1.00606012 0.12998521 -0.02997905
v -1.00409734 0.10999393 -0.02997905
v -0.98757148 0.03002881 -0.02997905
v -0.98043889 0.00286725 -0.02162410
v -0.98110485 0.00286725 -0.01676943
v -0.98331296 0.00809062 -0.01165093
v -0.98173577 0.00286725 -0.00857279
v -0.98194605 0.00286725 -0.00016507
v -0.99915534 0.08506419 -0.03610015
v -0.99770081 0.07034376 -0.02966244
v -1.00148618 0.09104733 -0.02966244
v -0.99163723 0.07001136 -0.04997816
v -0.98708081 0.05002008 -0.04997816
v -0.98082447 0.01758768 -0.04230919
v -0.83118045 0.42994946 -0.09055683
v -0.88491142 0.00286725 -0.06329331
v -0.89053684 0.00286725 -0.07087433
v -0.89915901 0.00286725 -0.08056607
v -0.89938688 0.00286725 -0.08063643
v -0.90502983 0.00286725 -0.08213152
v -0.88114357 0.44096601 -0.06149919
v -0.86961228 0.45445183 -0.05159638
v -0.85969323 0.45972270 -0.05935329
v -0.90108675 0.42116469 -0.06158714
v -0.91463339 0.40967327 -0.05164915
v -0.91978568 0.39965385 -0.05942365
v -0.93774855 0.37638611 -0.05393577
v -0.94372451 0.36983314 -0.04835994
v -0.96098644 0.34195930 -0.04290723
v -0.85184216 0.46765274 -0.05159638
v -0.83118045 0.48560214 -0.03126307
v -0.83118045 0.48507982 -0.03360246
v -0.83118045 0.48123351 -0.04997816
v -0.83684093 0.47805199 -0.04997816
v -0.98008841 0.30021977 -0.04028642
v -0.98182338 0.29001045 -0.04517626
v -0.98503041 0.27191859 -0.05194817
v -0.99125171 0.24998040 -0.04997816
v -0.99726272 0.24898322 -0.02915235
v -0.99903268 0.23454770 -0.03525586
v -1.00127590 0.22875451 -0.02915235
v -1.00018930 0.22120436 -0.04056785
v -0.99868220 0.17001528 -0.05675006
v -0.99820900 0.19000655 -0.05543086
v -0.99724519 0.20966545 -0.05268692
v -0.99721014 0.21004532 -0.05265174
v -0.99866468 0.15002400 -0.05673248
v -0.99815643 0.12998521 -0.05541327
v -1.00097799 0.10999393 -0.04274893
v -1.00025940 0.09840754 -0.04072615
v -0.98229653 0.01326652 -0.02997905
v -0.97898436 0.00286725 -0.02869502
v -0.99610603 0.09104733 -0.04843029
v -0.98389131 0.07001136 -0.06591412
v -0.98164815 0.05002008 -0.06260732
v -0.98026365 0.03905100 -0.06044383
v -0.98234910 0.03145336 -0.04938012
v -0.97828335 0.02575514 -0.05564193
v -0.97567219 0.01055986 -0.04938012
v -0.97274554 0.00286725 -0.04959119
v -0.97870398 0.00286725 -0.02997905
v -0.85001957 0.40995818 -0.09055683
v -0.87001532 0.40995818 -0.08848128
v -0.85001957 0.42994946 -0.08834057
v -0.83118045 0.45184016 -0.08570217
v -0.90958625 0.00286725 -0.08304617
v -0.92287004 0.00286725 -0.08473475
v -0.93000263 0.01003751 -0.08499859
v -0.86908650 0.44533467 -0.06888673
v -0.87515008 0.43541026 -0.07483193
v -0.88829368 0.42828745 -0.06820074
v -0.83994281 0.45991263 -0.07993285
v -0.85184216 0.45668364 -0.07194728
v -0.84637445 0.46428126 -0.06660011
v -0.89547884 0.41480166 -0.07490229
v -0.90524012 0.40886599 -0.06893950
v -0.91619313 0.39177132 -0.07163067
v -0.92441225 0.38631052 -0.06607243
v -0.94179678 0.36304277 -0.06283598
v -0.95474762 0.34912959 -0.04973191
v -0.95858550 0.33702084 -0.05623997
v -0.96405327 0.33023047 -0.04973191
v -0.83118045 0.47092921 -0.07119094
v -0.97404236 0.30814981 -0.04816645
v -0.97821325 0.29001045 -0.05516702
v -0.97994822 0.27989611 -0.05991615
v -0.98378617 0.24998040 -0.06596689
v -0.99601841 0.22875451 -0.04832476
v -0.98178834 0.26655275 -0.06294152
v -0.98986721 0.17001528 -0.06999486
v -0.98900855 0.19000655 -0.06999486
v -0.98573136 0.23003662 -0.06846458
v -0.98604685 0.20966545 -0.07171862
v -0.98983216 0.15002400 -0.06999486
v -0.98888588 0.12998521 -0.06999486
v -0.98587161 0.11056376 -0.07168344
v -0.98574889 0.09005013 -0.06827110
v -0.99717510 0.10999393 -0.05275728
v -0.97530413 0.07001136 -0.07592247
v -0.97318363 0.05002008 -0.07259808
v -0.97752982 0.09005013 -0.07826186
v -0.95951432 0.02091163 -0.07977454
v -0.96568304 0.01003751 -0.06776101
v -0.96436870 0.00286725 -0.06603725
v -0.97057247 0.00286725 -0.05444586
v -0.87001532 0.38996688 -0.09018745
v -0.94998085 0.12998521 -0.08679271
v -0.94998085 0.15002400 -0.08707413
v -0.89001113 0.36997560 -0.08969495
v -0.89001113 0.38996688 -0.08772494
v -0.88929260 0.40886599 -0.08315171
v -0.86908650 0.42923719 -0.08332760
v -0.85001957 0.44604695 -0.08308135
v -0.83196908 0.45193511 -0.08552627
v -0.83118045 0.45369208 -0.08506895
v -0.93000263 0.00286725 -0.08475234
v -0.94998085 0.07001136 -0.08543833
v -0.94998085 0.09005013 -0.08601877
v -0.94998085 0.10999393 -0.08645850
v -0.86181372 0.44144088 -0.08102340
v -0.88214248 0.42211437 -0.08128724
v -0.83118045 0.47040689 -0.07178897
v -0.90119189 0.40145832 -0.08081232
v -0.91929501 0.37899780 -0.07940517
v -0.93659192 0.35425800 -0.07616872
v -0.94451314 0.34855977 -0.06969584
v -0.96166986 0.32367748 -0.06269527
v -0.96449137 0.31000173 -0.06670564
v -0.95944422 0.29884273 -0.07956348
v -0.97604018 0.24998040 -0.07597524
v -0.97812563 0.23003662 -0.07847293
v -0.97497118 0.27191859 -0.06976619
v -0.98115742 0.17001528 -0.08093544
v -0.98113990 0.15002400 -0.08091786
v -0.98077190 0.19000655 -0.08063643
v -0.98560870 0.20966545 -0.07231665
v -0.98031622 0.20349237 -0.08026705
v -0.97943997 0.21683571 -0.07961624
v -0.98597676 0.21009281 -0.07175379
v -0.98070180 0.12998521 -0.08056607
v -0.98024613 0.11759157 -0.08017910
v -0.97912455 0.10429572 -0.07947553
v -0.96142453 0.03425498 -0.08091786
v -0.94566977 0.00286725 -0.08214911
v -0.95210135 0.00286725 -0.07914133
v -0.95704335 0.01003751 -0.07775177
v -0.95565891 0.00286725 -0.07604560
v -0.91000688 0.32999304 -0.08914968
v -0.94998085 0.17001528 -0.08726761
v -0.96999413 0.15002400 -0.08464680
v -0.92998511 0.31000173 -0.08825262
v -0.91000688 0.34998432 -0.08872753
v -0.90538031 0.38996688 -0.08271197
v -0.91160160 0.37135267 -0.08489306
v -0.94095564 0.00286725 -0.08308135
v -0.94998085 0.05002008 -0.08461162
v -0.96752316 0.09005013 -0.08299340
v -0.96999413 0.12998521 -0.08413671
v -0.92325556 0.36570191 -0.08202598
v -0.94046491 0.34096211 -0.08037259
v -0.95700830 0.31000173 -0.07671399
v -0.96166986 0.28549936 -0.08123446
v -0.94277817 0.32999304 -0.08183251
v -0.96372026 0.27001917 -0.08248331
v -0.96999413 0.17001528 -0.08473475
v -0.96999413 0.19000655 -0.08445331
v -0.97221982 0.20966545 -0.08299340
v -0.97164148 0.21009281 -0.08318689
v -0.96605110 0.24998040 -0.08332760
v -0.96813655 0.23003662 -0.08366179
v -0.97146624 0.11056376 -0.08278233
v -0.96529752 0.07001136 -0.08255367
v -0.96317703 0.05002008 -0.08183251
v -0.94703668 0.01003751 -0.08241295
v -0.92998511 0.29001045 -0.08849888
v -0.94998085 0.19000655 -0.08742592
v -0.94998085 0.20966545 -0.08751387
v -0.92998511 0.32999304 -0.08645850
v -0.94998085 0.24998040 -0.08746110
v -0.94998085 0.27001917 -0.08677512
v -0.92995006 0.34855977 -0.08323965
v -0.94700164 0.31000173 -0.08360903
v -0.95164573 0.29129255 -0.08413671
v -0.94998085 0.23003662 -0.08756664
f 1 2 12
f 1 12 28
f 1 28 48
f 1 48 79
f 1 79 114
f 1 114 154
f 1 154 192
f 1 192 199
f 1 199 198
f 1 198 197
f 1 197 196
f 1 196 195
f 1 195 194
f 1 194 244
f 1 244 243
f 1 243 242
f 1 242 241
f 1 241 240
f 1 240 239
f 1 239 285
f 1 285 284
f 1 284 329
f 1 329 377
f 1 377 427
f 1 427 477
f 1 477 484
f 1 484 445
f 1 445 395
f 1 395 394
f 1 394 393
f 1 393 341
f 1 341 293
f 1 293 252
f 1 252 250
f 1 250 205
f 1 205 164
f 1 164 161
f 1 161 121
f 1 121 86
f 1 86 82
f 1 82 51
f 1 51 32
f 1 32 14
f 1 14 3
f 1 3 4
f 1 4 5
f 1 5 6
f 1 6 7
f 1 7 8
f 1 8 9
f 1 9 10
f 1 10 11
f 1 11 2
f 2 11 12
f 3 13 4
f 3 14 13
f 4 13 15
f 4 15 16
f 4 16 17
f 4 17 5
f 5 18 6
f 5 17 18
f 6 18 19
f 6 19 20
f 6 20 7
f 7 21 22
f 7 22 8
f 7 20 21
f 8 22 23
f 8 23 9
f 9 23 24
f 9 24 25
f 9 25 26
f 9 26 10
f 10 26 46
f 10 46 75
f 10 75 107
f 10 107 106
f 10 106 150
f 10 150 187
f 10 187 231
f 10 231 278
f 10 278 324
f 10 324 370
f 10 370 369
f 10 369 367
f 10 367 366
f 10 366 414
f 10 414 423
f 10 423 422
f 10 422 467
f 10 467 466
f 10 466 509
f 10 509 507
f 10 507 506
f 10 506 517
f 10 517 478
f 10 478 429
f 10 429 428
f 10 428 382
f 10 382 381
f 10 381 380
f 10 380 379
f 10 379 378
f 10 378 332
f 10 332 331
f 10 331 330
f 10 330 328
f 10 328 283
f 10 283 238
f 10 238 193
f 10 193 155
f 10 155 115
f 10 115 81
f 10 81 80
f 10 80 50
f 10 50 49
f 10 49 29
f 10 29 27
f 10 27 11
f 11 27 12
f 12 27 29
f 12 29 28
f 13 14 30
f 13 30 31
f 13 31 15
f 14 32 30
f 15 33 16
f 15 31 34
f 15 34 33
f 16 33 35
f 16 35 36
f 16 36 17
f 17 36 37
f 17 37 18
f 18 37 38
f 18 38 19
f 19 38 39
f 19 39 40
f 19 40 20
f 20 40 41
f 20 41 21
f 21 41 22
f 22 42 43
f 22 43 23
f 22 41 44
f 22 44 68
f 22 68 42
f 23 43 24
f 24 43 25
f 25 45 26
f 25 43 45
f 26 45 47
f 26 47 46
f 28 29 49
f 28 49 50
f 28 50 48
f 30 32 31
f 31 32 51
f 31 51 34
f 33 52 35
f 33 34 53
f 33 53 52
f 34 51 54
f 34 54 55
f 34 55 56
f 34 56 53
f 35 57 58
f 35 58 36
f 35 52 59
f 35 59 57
f 36 58 60
f 36 60 37
f 37 60 61
f 37 61 38
f 38 61 62
f 38 62 63
f 38 63 39
f 39 64 65
f 39 65 66
f 39 66 40
f 39 63 64
f 40 66 67
f 40 67 44
f 40 44 41
f 42 68 69
f 42 69 70
f 42 70 43
f 43 70 71
f 43 71 45
f 44 67 68
f 45 71 72
f 45 72 73
f 45 73 47
f 46 74 75
f 46 47 76
f 46 76 77
f 46 77 78
f 46 78 74
f 47 73 76
f 48 50 80
f 48 80 81
f 48 81 79
f 51 82 54
f 52 53 83
f 52 83 84
f 52 84 59
f 53 56 85
f 53 85 83
f 54 82 86
f 54 86 87
f 54 87 55
f 55 87 88
f 55 88 56
f 56 88 85
f 57 59 89
f 57 89 58
f 58 89 90
f 58 90 91
f 58 91 92
f 58 92 93
f 58 93 60
f 59 84 89
f 60 93 61
f 61 93 62
f 62 93 94
f 62 94 95
f 62 95 63
f 63 95 64
f 64 95 96
f 64 96 65
f 65 96 97
f 65 97 66
f 66 98 99
f 66 99 67
f 66 97 98
f 67 99 68
f 68 100 69
f 68 99 100
f 69 101 102
f 69 102 70
f 69 100 101
f 70 102 103
f 70 103 71
f 71 103 104
f 71 104 72
f 72 104 105
f 72 105 73
f 73 105 77
f 73 77 76
f 74 106 107
f 74 107 75
f 74 78 108
f 74 108 106
f 77 105 78
f 78 105 109
f 78 109 110
f 78 110 111
f 78 111 112
f 78 112 113
f 78 113 108
f 79 81 115
f 79 115 114
f 83 85 84
f 84 116 89
f 84 85 117
f 84 117 118
f 84 118 116
f 85 88 119
f 85 119 120
f 85 120 117
f 86 121 87
f 87 121 88
f 88 122 119
f 88 121 123
f 88 123 124
f 88 124 122
f 89 125 126
f 89 126 127
f 89 127 91
f 89 91 90
f 89 116 125
f 91 128 129
f 91 129 130
f 91 130 131
f 91 131 92
f 91 127 128
f 92 131 93
f 93 131 130
f 93 130 132
f 93 132 94
f 94 133 134
f 94 134 135
f 94 135 136
f 94 136 95
f 94 132 137
f 94 137 133
f 95 136 138
f 95 138 96
f 96 138 139
f 96 139 140
f 96 140 141
f 96 141 142
f 96 142 98
f 96 98 97
f 98 142 99
f 99 142 100
f 100 143 101
f 100 142 143
f 101 143 179
f 101 179 144
f 101 144 181
f 101 181 145
f 101 145 102
f 102 145 146
f 102 146 105
f 102 105 103
f 103 105 104
f 105 147 148
f 105 148 109
f 105 146 147
f 106 108 113
f 106 113 149
f 106 149 150
f 109 148 110
f 110 148 112
f 110 112 111
f 112 148 151
f 112 151 113
f 113 151 152
f 113 152 153
f 113 153 149
f 114 115 155
f 114 155 154
f 116 118 125
f 117 120 156
f 117 156 118
f 118 156 157
f 118 157 158
f 118 158 125
f 119 122 120
f 120 159 156
f 120 122 160
f 120 160 159
f 121 161 123
f 122 124 162
f 122 162 163
f 122 163 160
f 123 161 164
f 123 164 162
f 123 162 124
f 125 165 166
f 125 166 126
f 125 158 165
f 126 166 127
f 127 166 167
f 127 167 128
f 128 167 168
f 128 168 129
f 129 168 169
f 129 169 170
f 129 170 130
f 130 137 132
f 130 170 171
f 130 171 133
f 130 133 137
f 133 172 173
f 133 173 174
f 133 174 134
f 133 171 172
f 134 174 175
f 134 175 135
f 135 175 136
f 136 175 138
f 138 175 139
f 139 175 176
f 139 176 177
f 139 177 140
f 140 177 141
f 141 177 142
f 142 178 143
f 142 177 178
f 143 178 179
f 144 180 181
f 144 179 180
f 145 181 182
f 145 182 183
f 145 183 146
f 146 183 147
f 147 183 148
f 148 183 184
f 148 184 151
f 149 153 185
f 149 185 186
f 149 186 150
f 150 186 185
f 150 185 188
f 150 188 187
f 151 184 189
f 151 189 190
f 151 190 152
f 152 191 185
f 152 185 153
f 152 190 191
f 154 155 192
f 155 193 194
f 155 194 195
f 155 195 196
f 155 196 197
f 155 197 198
f 155 198 199
f 155 199 192
f 156 159 200
f 156 200 157
f 157 201 202
f 157 202 158
f 157 200 201
f 158 202 165
f 159 203 200
f 159 160 204
f 159 204 203
f 160 163 204
f 162 164 205
f 162 205 206
f 162 206 207
f 162 207 208
f 162 208 163
f 163 208 207
f 163 207 209
f 163 209 210
f 163 210 204
f 165 211 212
f 165 212 213
f 165 213 166
f 165 202 211
f 166 214 215
f 166 215 216
f 166 216 168
f 166 168 167
f 166 213 214
f 168 216 217
f 168 217 218
f 168 218 219
f 168 219 169
f 169 219 170
f 170 219 171
f 171 219 172
f 172 219 173
f 173 219 220
f 173 220 174
f 174 221 222
f 174 222 223
f 174 223 175
f 174 220 221
f 175 223 176
f 176 224 225
f 176 225 178
f 176 178 177
f 176 223 222
f 176 222 224
f 178 225 179
f 179 226 180
f 179 225 226
f 180 227 228
f 180 228 181
f 180 226 227
f 181 228 182
f 182 229 189
f 182 189 183
f 182 228 229
f 183 189 184
f 185 191 230
f 185 230 188
f 187 188 231
f 188 230 232
f 188 232 231
f 189 229 233
f 189 233 190
f 190 233 234
f 190 234 235
f 190 235 191
f 191 235 234
f 191 234 236
f 191 236 237
f 191 237 230
f 193 238 239
f 193 239 240
f 193 240 241
f 193 241 242
f 193 242 243
f 193 243 244
f 193 244 194
f 200 203 245
f 200 245 201
f 201 246 247
f 201 247 202
f 201 245 246
f 202 247 211
f 203 248 245
f 203 204 248
f 204 249 248
f 204 210 254
f 204 254 249
f 205 250 206
f 206 250 207
f 207 251 209
f 207 250 252
f 207 252 251
f 209 253 210
f 209 251 253
f 210 253 254
f 211 255 212
f 211 247 255
f 212 255 256
f 212 256 297
f 212 297 257
f 212 257 213
f 213 257 214
f 214 257 258
f 214 258 215
f 215 258 259
f 215 259 216
f 216 259 260
f 216 260 217
f 217 260 261
f 217 261 218
f 218 261 262
f 218 262 263
f 218 263 219
f 219 263 264
f 219 264 265
f 219 265 220
f 220 265 305
f 220 305 266
f 220 266 267
f 220 267 268
f 220 268 221
f 221 268 267
f 221 267 269
f 221 269 222
f 222 269 270
f 222 270 224
f 224 270 271
f 224 271 225
f 225 271 226
f 226 272 227
f 226 271 272
f 227 272 273
f 227 273 274
f 227 274 275
f 227 275 228
f 228 275 229
f 229 275 276
f 229 276 233
f 230 277 278
f 230 278 232
f 230 237 277
f 231 232 278
f 233 276 279
f 233 279 234
f 234 279 280
f 234 280 236
f 236 281 282
f 236 282 237
f 236 280 325
f 236 325 281
f 237 282 322
f 237 322 277
f 238 283 284
f 238 284 285
f 238 285 239
f 245 286 287
f 245 287 246
f 245 248 288
f 245 288 286
f 246 287 247
f 247 287 289
f 247 289 290
f 247 290 255
f 248 249 288
f 249 291 288
f 249 254 292
f 249 292 291
f 251 252 293
f 251 293 294
f 251 294 253
f 253 292 254
f 253 294 295
f 253 295 292
f 255 290 256
f 256 296 297
f 256 290 296
f 257 297 298
f 257 298 258
f 258 298 299
f 258 299 259
f 259 299 300
f 259 300 260
f 260 300 301
f 260 301 261
f 261 301 262
f 262 301 302
f 262 302 303
f 262 303 304
f 262 304 263
f 263 304 264
f 264 304 305
f 264 305 265
f 266 305 306
f 266 306 307
f 266 307 308
f 266 308 267
f 267 308 309
f 267 309 310
f 267 310 311
f 267 311 270
f 267 270 269
f 270 311 312
f 270 312 313
f 270 313 271
f 271 314 272
f 271 313 314
f 272 314 315
f 272 315 273
f 273 316 318
f 273 318 274
f 273 315 317
f 273 317 316
f 274 318 319
f 274 319 275
f 275 319 276
f 276 320 321
f 276 321 279
f 276 319 320
f 277 322 323
f 277 323 278
f 278 323 324
f 279 321 325
f 279 325 280
f 281 325 326
f 281 326 282
f 282 326 327
f 282 327 322
f 283 328 284
f 284 328 330
f 284 330 331
f 284 331 332
f 284 332 329
f 286 288 333
f 286 333 334
f 286 334 335
f 286 335 287
f 287 335 289
f 288 291 333
f 289 335 336
f 289 336 290
f 290 336 337
f 290 337 296
f 291 292 338
f 291 338 333
f 292 295 339
f 292 339 340
f 292 340 338
f 293 341 295
f 293 295 294
f 295 341 342
f 295 342 340
f 295 340 339
f 296 337 343
f 296 343 297
f 297 343 298
f 298 344 299
f 298 343 344
f 299 344 345
f 299 345 346
f 299 346 300
f 300 346 301
f 301 346 347
f 301 347 302
f 302 347 348
f 302 348 303
f 303 349 306
f 303 306 305
f 303 305 304
f 303 348 349
f 306 350 307
f 306 349 350
f 307 350 351
f 307 351 352
f 307 352 353
f 307 353 308
f 308 353 309
f 309 353 354
f 309 354 310
f 310 354 355
f 310 355 356
f 310 356 311
f 311 356 312
f 312 356 314
f 312 314 313
f 314 356 315
f 315 356 357
f 315 357 317
f 316 358 318
f 316 317 359
f 316 359 358
f 317 357 360
f 317 360 359
f 318 358 361
f 318 361 362
f 318 362 363
f 318 363 319
f 319 363 364
f 319 364 320
f 320 364 326
f 320 326 321
f 321 326 325
f 322 365 366
f 322 366 367
f 322 367 368
f 322 368 369
f 322 369 370
f 322 370 323
f 322 327 365
f 323 370 324
f 326 371 372
f 326 372 327
f 326 364 373
f 326 373 371
f 327 372 371
f 327 371 374
f 327 374 375
f 327 375 376
f 327 376 365
f 329 332 378
f 329 378 379
f 329 379 380
f 329 380 381
f 329 381 382
f 329 382 377
f 333 383 334
f 333 338 384
f 333 384 385
f 333 385 383
f 334 386 335
f 334 383 386
f 335 386 387
f 335 387 336
f 336 388 337
f 336 387 388
f 337 388 389
f 337 389 390
f 337 390 391
f 337 391 345
f 337 345 344
f 337 344 343
f 338 340 392
f 338 392 385
f 338 385 384
f 340 342 393
f 340 393 394
f 340 394 395
f 340 395 396
f 340 396 392
f 341 393 342
f 345 391 346
f 346 391 347
f 347 391 397
f 347 397 348
f 348 397 349
f 349 397 350
f 350 397 351
f 351 397 398
f 351 398 399
f 351 399 400
f 351 400 401
f 351 401 352
f 352 402 403
f 352 403 356
f 352 356 355
f 352 355 354
f 352 354 353
f 352 401 402
f 356 403 357
f 357 403 404
f 357 404 360
f 358 405 361
f 358 359 406
f 358 406 405
f 359 360 407
f 359 407 406
f 360 408 407
f 360 404 408
f 361 405 409
f 361 409 362
f 362 409 410
f 362 410 460
f 362 460 411
f 362 411 363
f 363 411 364
f 364 411 412
f 364 412 373
f 365 376 413
f 365 413 366
f 366 413 414
f 367 369 368
f 371 373 412
f 371 412 374
f 374 412 415
f 374 415 416
f 374 416 417
f 374 417 418
f 374 418 375
f 375 418 419
f 375 419 376
f 376 419 420
f 376 420 421
f 376 421 422
f 376 422 423
f 376 423 413
f 377 424 425
f 377 425 426
f 377 426 427
f 377 382 428
f 377 428 429
f 377 429 430
f 377 430 424
f 383 385 431
f 383 431 432
f 383 432 433
f 383 433 386
f 385 434 435
f 385 435 431
f 385 392 396
f 385 396 436
f 385 436 434
f 386 437 438
f 386 438 388
f 386 388 387
f 386 433 437
f 388 439 440
f 388 440 441
f 388 441 389
f 388 438 439
f 389 441 390
f 390 441 442
f 390 442 391
f 391 442 443
f 391 443 444
f 391 444 397
f 395 445 396
f 396 445 436
f 397 444 446
f 397 446 447
f 397 447 398
f 398 447 448
f 398 448 399
f 399 448 400
f 400 449 450
f 400 450 404
f 400 404 402
f 400 402 401
f 400 448 451
f 400 451 449
f 402 404 403
f 404 450 408
f 405 452 409
f 405 406 453
f 405 453 452
f 406 407 454
f 406 454 455
f 406 455 453
f 407 408 454
f 408 450 449
f 408 449 454
f 409 452 456
f 409 456 457
f 409 457 410
f 410 457 458
f 410 458 459
f 410 459 460
f 411 460 412
f 412 460 415
f 413 423 414
f 415 460 416
f 416 461 462
f 416 462 417
f 416 460 459
f 416 459 463
f 416 463 461
f 417 462 464
f 417 464 418
f 418 464 465
f 418 465 466
f 418 466 420
f 418 420 419
f 420 466 467
f 420 467 421
f 421 467 422
f 424 468 425
f 424 430 469
f 424 469 470
f 424 470 468
f 425 468 471
f 425 471 472
f 425 472 473
f 425 473 474
f 425 474 426
f 426 474 475
f 426 475 476
f 426 476 427
f 427 476 477
f 429 478 430
f 430 478 479
f 430 479 480
f 430 480 481
f 430 481 469
f 431 482 432
f 431 435 434
f 431 434 482
f 432 482 483
f 432 483 437
f 432 437 433
f 434 477 475
f 434 475 482
f 434 436 445
f 434 445 484
f 434 484 477
f 437 483 485
f 437 485 438
f 438 485 439
f 439 485 486
f 439 486 440
f 440 486 441
f 441 487 488
f 441 488 489
f 441 489 443
f 441 443 442
f 441 486 487
f 443 489 446
f 443 446 444
f 446 489 447
f 447 489 448
f 448 489 490
f 448 490 491
f 448 491 451
f 449 492 493
f 449 493 454
f 449 451 492
f 451 491 494
f 451 494 492
f 452 495 496
f 452 496 456
f 452 453 497
f 452 497 495
f 453 455 498
f 453 498 499
f 453 499 497
f 454 493 500
f 454 500 501
f 454 501 455
f 455 501 498
f 456 496 502
f 456 502 457
f 457 502 503
f 457 503 458
f 458 503 504
f 458 504 459
f 459 504 463
f 461 463 464
f 461 464 462
f 463 504 505
f 463 505 464
f 464 505 506
f 464 506 507
f 464 507 508
f 464 508 465
f 465 508 466
f 466 508 509
f 468 510 471
f 468 470 511
f 468 511 510
f 469 481 512
f 469 512 470
f 470 512 511
f 471 510 513
f 471 513 514
f 471 514 472
f 472 515 473
f 472 514 516
f 472 516 515
f 473 483 474
f 473 515 485
f 473 485 483
f 474 483 482
f 474 482 475
f 475 477 476
f 478 517 518
f 478 518 479
f 479 518 519
f 479 519 520
f 479 520 480
f 480 520 512
f 480 512 481
f 485 515 486
f 486 515 521
f 486 521 522
f 486 522 487
f 487 522 488
f 488 522 489
f 489 522 523
f 489 523 490
f 490 523 491
f 491 524 492
f 491 492 494
f 491 523 522
f 491 522 525
f 491 525 524
f 492 524 493
f 493 524 526
f 493 526 500
f 495 527 496
f 495 497 528
f 495 528 527
f 496 527 512
f 496 512 502
f 497 499 529
f 497 529 530
f 497 530 528
f 498 501 500
f 498 500 499
f 499 500 531
f 499 531 532
f 499 532 529
f 500 526 531
f 502 520 503
f 502 512 520
f 503 533 519
f 503 519 534
f 503 534 535
f 503 535 504
f 503 520 533
f 504 535 505
f 505 535 506
f 506 535 536
f 506 536 517
f 507 509 508
f 510 537 513
f 510 511 538
f 510 538 537
f 511 512 538
f 512 527 539
f 512 539 538
f 513 540 514
f 513 537 541
f 513 541 542
f 513 542 540
f 514 540 516
f 515 516 521
f 516 540 543
f 516 543 521
f 517 536 518
f 518 535 534
f 518 534 519
f 518 536 535
f 519 533 520
f 521 543 522
f 522 543 525
f 524 525 544
f 524 544 526
f 525 543 540
f 525 540 544
f 526 544 545
f 526 545 542
f 526 542 531
f 527 528 541
f 527 541 546
f 527 546 539
f 528 530 532
f 528 532 541
f 529 532 530
f 531 542 532
f 532 542 541
f 537 546 541
f 537 538 539
f 537 539 546
f 540 542 544
f 542 545 544
