v -0.22675809 -0.30723783 -0.19427095
v -0.24635892 -0.30723783 -0.12025701
v -0.19889864 -0.42083102 -0.19427095
v -0.37155217 -0.30723783 -0.19427095
v -0.21967927 -0.42083102 -0.12025701
v -0.39496052 -0.30723783 -0.12025701
v -0.34280786 -0.42083102 -0.19427095
v -0.37120357 -0.31000677 -0.19427095
v -0.47280076 -0.35000625 -0.12025701
v -0.46561468 -0.33581683 -0.12025701
v -0.45925984 -0.33239180 -0.12025701
v -0.41673326 -0.42083102 -0.12025701
v -0.34538198 -0.41383642 -0.19427095
v -0.41649196 -0.42083102 -0.12053233
v -0.45797276 -0.38039786 -0.12025701
v -0.45907214 -0.37890774 -0.12025701
v -0.46094909 -0.37630561 -0.12025701
v -0.46652633 -0.36778751 -0.12025701
v -0.47135282 -0.35743457 -0.12025701
v -0.36798593 -0.33017886 -0.19427095
v -0.34677628 -0.40989983 -0.19427095
v -0.36401752 -0.35000625 -0.19427095
v -0.36307904 -0.35428753 -0.19427095
v -0.36066580 -0.36421791 -0.19427095
v -0.35817212 -0.37342548 -0.19427095
v -0.35364059 -0.38872692 -0.19427095
f 1 2 3
f 1 3 7
f 1 7 13
f 1 13 21
f 1 21 26
f 1 26 25
f 1 25 24
f 1 24 23
f 1 23 22
f 1 22 20
f 1 20 8
f 1 8 4
f 1 4 6
f 1 6 2
f 2 5 3
f 2 6 11
f 2 11 10
f 2 10 9
f 2 9 19
f 2 19 18
f 2 18 17
f 2 17 16
f 2 16 15
f 2 15 12
f 2 12 5
f 3 5 12
f 3 12 14
f 3 14 7
f 4 8 9
f 4 9 10
f 4 10 11
f 4 11 6
f 7 14 15
f 7 15 16
f 7 16 17
f 7 17 18
f 7 18 19
f 7 19 13
f 8 20 9
f 9 20 19
f 12 15 14
f 13 19 21
f 19 20 22
f 19 22 23
f 19 23 24
f 19 24 25
f 19 25 26
f 19 26 21
