v -0.54295152 0.44888860 -0.10493106
v -0.54295152 0.46293494 -0.10487203
v -0.54295152 0.43974012 -0.10382903
v -0.83114690 0.41002065 -0.08932547
v -0.82999027 0.43001437 -0.09070301
v -0.54295152 0.46998435 -0.10416357
v -0.80996102 0.44999063 -0.09013232
v -0.54295152 0.43342540 -0.10264827
v -0.83114690 0.39081407 -0.08348075
v -0.83114690 0.43001437 -0.09056526
v -0.54295152 0.47827572 -0.10266796
v -0.74998617 0.46998435 -0.09135243
v -0.83114690 0.45187980 -0.08570450
v -0.78996003 0.46998435 -0.08767242
v -0.76998717 0.46998435 -0.09005360
v -0.54295152 0.42858002 -0.10056228
v -0.83109045 0.39081407 -0.08348075
v -0.83114690 0.37456369 -0.06830811
v -0.54295152 0.48322606 -0.10134945
v -0.69001126 0.48997810 -0.09129339
v -0.83114690 0.45368150 -0.08509444
v -0.80891728 0.47022927 -0.08391369
v -0.78996003 0.48294619 -0.08220161
v -0.76998717 0.48663706 -0.08411048
v -0.72998512 0.48997810 -0.08816440
v -0.70998412 0.48997810 -0.08999456
v -0.54295152 0.42334980 -0.09719715
v -0.54295152 0.41754234 -0.09204119
v -0.83114690 0.37316430 -0.06651730
v -0.54295152 0.41355410 -0.08712140
v -0.54295152 0.48968074 -0.09829918
v -0.67001027 0.50698066 -0.08525188
v -0.69001126 0.50589615 -0.08460247
v -0.83114690 0.47043917 -0.07179132
v -0.82654864 0.46373960 -0.08241808
v -0.80155438 0.48070717 -0.08062727
v -0.75726438 0.49896917 -0.07881679
v -0.74394917 0.50101578 -0.08096182
v -0.75035286 0.49137750 -0.08474022
v -0.72998512 0.50255507 -0.08230000
v -0.70998412 0.50442678 -0.08367755
v -0.83114690 0.36333358 -0.04998679
v -0.54295152 0.40996817 -0.08218193
v -0.54295152 0.40157184 -0.07049249
v -0.54295152 0.49323168 -0.09595735
v -0.66730207 0.50706810 -0.08531091
v -0.65000921 0.50757539 -0.08568482
v -0.63000822 0.50768036 -0.08601937
v -0.55003226 0.49279436 -0.09633126
v -0.66730207 0.51705623 -0.07501870
v -0.65000921 0.51758099 -0.07586491
v -0.67001027 0.51696879 -0.07486127
v -0.83114690 0.47092897 -0.07120094
v -0.81486964 0.47708625 -0.07616010
v -0.78905725 0.49317920 -0.06881976
v -0.76998717 0.49662519 -0.07515646
v -0.80891728 0.48418814 -0.06968565
v -0.76998717 0.50264257 -0.06515944
v -0.75035286 0.50510895 -0.07127966
v -0.72998512 0.51060158 -0.06998084
v -0.70970201 0.51516706 -0.06860329
v -0.69001126 0.51590174 -0.07281464
v -0.83114690 0.35943282 -0.03874997
v -0.54295152 0.39474982 -0.04998679
v -0.54295152 0.50103325 -0.08948290
v -0.59000611 0.50685823 -0.08655071
v -0.57003331 0.50600111 -0.08662942
v -0.63000822 0.51768595 -0.07586491
v -0.61000717 0.50743544 -0.08629487
v -0.67001027 0.52211154 -0.06488393
v -0.66730207 0.52216399 -0.06502168
v -0.65000921 0.52251387 -0.06586789
v -0.69001126 0.52121943 -0.06279793
v -0.83114690 0.48126692 -0.04998679
v -0.82274026 0.48151183 -0.06281762
v -0.78177905 0.50066590 -0.06140071
v -0.74998617 0.51394260 -0.04998679
v -0.71619034 0.51936525 -0.05762231
v -0.70287514 0.52043223 -0.06102681
v -0.83114690 0.35652909 -0.02999274
v -0.54295152 0.39004439 -0.02999274
v -0.54295152 0.50435680 -0.08596033
v -0.55003226 0.50486410 -0.08633424
v -0.61000717 0.51742357 -0.07490063
v -0.63000822 0.52246135 -0.06586789
v -0.67001027 0.52651960 -0.04998679
v -0.65000921 0.52730674 -0.04998679
v -0.69001126 0.52478784 -0.04998679
v -0.83114690 0.48511523 -0.03361371
v -0.82677430 0.48373336 -0.04998679
v -0.80996102 0.49225211 -0.04998679
v -0.79622269 0.49849686 -0.04998679
v -0.78620803 0.50239766 -0.04998679
v -0.76998717 0.50806516 -0.04998679
v -0.76998717 0.51228082 -0.02999274
v -0.73867387 0.51971507 -0.03810056
v -0.73119819 0.51824570 -0.05057716
v -0.70970201 0.52212900 -0.05057716
v -0.72533047 0.52104449 -0.04429951
v -0.83114690 0.35411513 -0.01397389
v -0.54295152 0.38829517 -0.00999869
v -0.83114690 0.35355538 -0.00997901
v -0.54295152 0.50976193 -0.07539261
v -0.59000611 0.51684630 -0.07281464
v -0.61000717 0.52197158 -0.06488393
v -0.63000822 0.52713180 -0.04998679
v -0.69001126 0.52844375 -0.02999274
v -0.67001027 0.53003556 -0.02999274
v -0.66730207 0.52966821 -0.03270847
v -0.66730207 0.53014052 -0.02999274
v -0.65000921 0.53071773 -0.02999274
v -0.70998412 0.52597731 -0.02999274
v -0.83114690 0.48551756 -0.03178354
v -0.79983360 0.49991375 -0.03957650
v -0.76998717 0.51423997 -0.00997901
v -0.75489473 0.51870054 -0.00997901
v -0.74265152 0.52064216 -0.02477776
v -0.74959123 0.51801831 -0.03083894
v -0.79187828 0.50418186 -0.03174419
v -0.78996003 0.50719059 -0.00997901
v -0.73119819 0.52219898 -0.03083894
v -0.54295152 0.38857505 -0.00124146
v -0.83114690 0.35395771 0.00997568
v -0.54295152 0.51208842 -0.06998084
v -0.57045645 0.51646149 -0.06858362
v -0.55003226 0.51322544 -0.06998084
v -0.59000611 0.52107948 -0.06281762
v -0.61000717 0.52609980 -0.04998679
v -0.63000822 0.53045535 -0.02999274
v -0.69001126 0.53010553 -0.00997901
v -0.70998412 0.52772653 -0.00997901
v -0.67001027 0.53162736 -0.00997901
v -0.66730207 0.53150493 -0.01271442
v -0.65000921 0.53225708 -0.00999869
v -0.66730207 0.53171480 -0.00999869
v -0.72998512 0.52435052 -0.00997901
v -0.83114690 0.48562253 -0.03127189
v -0.80922759 0.49674764 -0.03174419
v -0.80206215 0.50092828 -0.02625369
v -0.78996003 0.50722557 0.00997568
v -0.76998717 0.51425749 0.00997568
v -0.75486654 0.51870054 0.00997568
v -0.74490833 0.52120191 -0.00997901
v -0.80367017 0.50166297 -0.00997901
v -0.54295152 0.38901234 0.00999536
v -0.83114690 0.35778853 0.02998940
v -0.54295152 0.39000940 0.01739473
v -0.54295152 0.39214349 0.02998940
v -0.54295152 0.51560438 -0.05687450
v -0.56408095 0.51941770 -0.05713033
v -0.57742441 0.52034479 -0.06096777
v -0.61000717 0.52933586 -0.02999274
v -0.59000611 0.52421057 -0.04998679
v -0.63000822 0.53192472 -0.00999869
v -0.70998412 0.52763909 0.00997568
v -0.69001126 0.52998304 0.00997568
v -0.72998512 0.52429807 0.00997568
v -0.67001027 0.53146994 0.00997568
v -0.66730207 0.53159237 0.00727963
v -0.66730207 0.53171480 -0.00997901
v -0.65000921 0.53208214 0.00999536
v -0.63000822 0.53176731 0.00999536
v -0.74488014 0.52118444 0.00997568
v -0.83114690 0.48646215 -0.02381348
v -0.81365657 0.49701002 -0.00997901
v -0.80369836 0.50168049 0.00997568
v -0.80209041 0.50094581 0.02648651
v -0.79193473 0.50421685 0.03187861
v -0.76998717 0.51226336 0.02998940
v -0.74262333 0.52062470 0.02422340
v -0.83114690 0.36076224 0.03813658
v -0.54295152 0.39326298 0.03410235
v -0.54295152 0.39844072 0.04998345
v -0.54295152 0.51730114 -0.05018358
v -0.57045645 0.52165675 -0.05028198
v -0.55578715 0.52071214 -0.04378784
v -0.54949629 0.51840317 -0.05028198
v -0.61000717 0.53077024 -0.00999869
v -0.59000611 0.52735925 -0.02999274
v -0.61000717 0.53063029 0.00999536
v -0.70998412 0.52566248 0.02998940
v -0.69001126 0.52805889 0.02998940
v -0.67001027 0.52958077 0.02998940
v -0.73083144 0.52207655 0.03052074
v -0.66730207 0.53155738 0.00999536
v -0.65000921 0.53021049 0.02998940
v -0.63000822 0.52994812 0.02998940
v -0.61000717 0.52882856 0.02998940
v -0.83114690 0.48794898 -0.00997901
v -0.82999027 0.48861369 -0.00997901
v -0.81368482 0.49702752 0.00997568
v -0.79991823 0.49994874 0.03980931
v -0.80925578 0.49678263 0.03187861
v -0.76998717 0.50780278 0.04998345
v -0.73808146 0.51961011 0.03754621
v -0.74953479 0.51793087 0.03052074
v -0.83114690 0.36614987 0.05250239
v -0.54295152 0.40384585 0.06285363
v -0.54295152 0.51961011 -0.03607361
v -0.57003331 0.52468288 -0.02999274
v -0.59000611 0.52879357 -0.00999869
v -0.59000611 0.52688694 0.02998940
v -0.59000611 0.52865368 0.00999536
v -0.70831972 0.52172667 0.05000313
v -0.69001126 0.52398318 0.04998345
v -0.72473806 0.52090454 0.04333189
v -0.67001027 0.52562749 0.04998345
v -0.66730207 0.52573246 0.04998345
v -0.65000921 0.52634466 0.04998345
v -0.66730207 0.52966821 0.02998940
v -0.63000822 0.52613473 0.04998345
v -0.61000717 0.52506775 0.04998345
v -0.83114690 0.48794898 0.00997568
v -0.82999027 0.48861369 0.00997568
v -0.83114690 0.48574495 0.03050106
v -0.83114690 0.48565751 0.03126855
v -0.79608160 0.49844438 0.04998345
v -0.78609520 0.50232768 0.04998345
v -0.83114690 0.48233396 0.04608697
v -0.82663327 0.48368087 0.04998345
v -0.80996102 0.49216464 0.04998345
v -0.74998617 0.51343530 0.04998345
v -0.78152514 0.50056100 0.06112187
v -0.73083144 0.51779091 0.05000313
v -0.83114690 0.36712945 0.05399800
v -0.54295152 0.40813148 0.07043012
v -0.54295152 0.51969761 -0.03530612
v -0.57003331 0.52608228 -0.00999869
v -0.54295152 0.52069461 -0.02521070
v -0.54949629 0.52141184 -0.02946140
v -0.58865201 0.52260131 0.05169554
v -0.57003331 0.52146429 0.04624441
v -0.55714124 0.52048475 0.04213146
v -0.57003331 0.52421057 0.02998940
v -0.57003331 0.52594233 0.00999536
v -0.70053369 0.52006495 0.06015759
v -0.71387708 0.51901537 0.05665469
v -0.69001126 0.52065969 0.06143674
v -0.67001027 0.52151680 0.06330626
v -0.66730207 0.52218151 0.06149577
v -0.65000921 0.52190161 0.06417214
v -0.63000822 0.52181417 0.06403439
v -0.61000717 0.52130687 0.06295203
v -0.59440690 0.52062470 0.06143674
v -0.83114690 0.48780906 0.01155001
v -0.83114690 0.48110950 0.04998345
v -0.82254279 0.48140687 0.06246005
v -0.76998717 0.50241518 0.06450669
v -0.74928093 0.50451422 0.07092210
v -0.80840945 0.48383829 0.06944616
v -0.80070812 0.48033983 0.08028939
v -0.76998717 0.49587303 0.07450371
v -0.83114690 0.37626043 0.06728145
v -0.54295152 0.41736743 0.08233602
v -0.83114690 0.37832454 0.06997750
v -0.55003226 0.52277625 -0.00999869
v -0.54295152 0.52118444 -0.01777197
v -0.58109170 0.51985502 0.05950817
v -0.57003331 0.51906788 0.05624143
v -0.55028617 0.51761597 0.04927500
v -0.54295152 0.51623410 0.04953083
v -0.54382604 0.51933026 0.03449593
v -0.55028617 0.52114946 0.02869058
v -0.54295152 0.52046722 0.02367239
v -0.55003226 0.52261877 0.00999536
v -0.72998512 0.50927216 0.06997750
v -0.70831972 0.51413500 0.06808829
v -0.69001126 0.51471227 0.07143376
v -0.67001027 0.51563936 0.07330328
v -0.66730207 0.51570934 0.07342135
v -0.65000921 0.51612914 0.07416917
v -0.66730207 0.52156925 0.06342433
v -0.63000822 0.51612914 0.07403141
v -0.61000717 0.51572680 0.07294905
v -0.58865201 0.51593673 0.06885578
v -0.57003331 0.51317292 0.06999718
v -0.83114690 0.47930777 0.05484421
v -0.81402332 0.47652650 0.07578286
v -0.83114690 0.47017679 0.07076467
v -0.83072376 0.47035170 0.07088274
v -0.75548714 0.49837443 0.07822307
v -0.74217194 0.50050849 0.08048618
v -0.78996003 0.48233396 0.08166693
v -0.83114690 0.46151808 0.08089944
v -0.82558948 0.46317986 0.08200148
v -0.80840945 0.46989691 0.08314287
v -0.54295152 0.42975199 0.08981411
v -0.83114690 0.39153123 0.08239506
v -0.83114690 0.38220781 0.07446435
v -0.54295152 0.52151680 -0.00999869
v -0.55003226 0.51047909 0.06999718
v -0.54295152 0.50934213 0.06999718
v -0.54295152 0.51920778 0.03408267
v -0.54295152 0.51948768 0.03195732
v -0.54295152 0.52135932 0.00999536
v -0.72998512 0.50171548 0.08148982
v -0.70998412 0.50339472 0.08274928
v -0.69001126 0.50472414 0.08351678
v -0.66730207 0.50706810 0.08267057
v -0.65000921 0.50612354 0.08422522
v -0.63000822 0.50614101 0.08428426
v -0.61000717 0.50572121 0.08424491
v -0.59000611 0.50500405 0.08404811
v -0.57003331 0.50407696 0.08367421
v -0.55003226 0.50292242 0.08298544
v -0.54295152 0.50241518 0.08253282
v -0.83114690 0.46977445 0.07131568
v -0.76998717 0.48588490 0.08353645
v -0.78996003 0.46998435 0.08635058
v -0.83114690 0.45189729 0.08459913
v -0.83114690 0.45147747 0.08473688
v -0.54295152 0.45000812 0.09611145
v -0.83114690 0.39172366 0.08247378
v -0.74928093 0.49101016 0.08385132
v -0.72998512 0.48997810 0.08644897
v -0.70998412 0.48997810 0.08798395
v -0.69001126 0.48997810 0.08892855
v -0.67001027 0.50563371 0.08398908
v -0.66730207 0.50570369 0.08402843
v -0.66730207 0.48997810 0.08959764
v -0.65000921 0.48997810 0.08991251
v -0.63000822 0.48997810 0.09012898
v -0.61000717 0.48997810 0.09028641
v -0.59000611 0.48997810 0.09040449
v -0.57003331 0.48997810 0.09042417
v -0.55003226 0.48997810 0.09018802
v -0.54295152 0.48997810 0.08989283
v -0.76998717 0.46998435 0.08863336
v -0.80996102 0.44999063 0.08863336
v -0.83114690 0.43001437 0.08900727
v -0.83114690 0.42885989 0.08910566
v -0.83114690 0.41002065 0.08766908
v -0.83114690 0.40884864 0.08753133
v -0.54295152 0.46998435 0.09583594
v -0.82999027 0.43001437 0.08912534
v -0.74998617 0.46998435 0.08969603
v -0.67001027 0.48997810 0.08953860
v -0.78996003 0.44999063 0.08959764
f 1 2 6
f 1 6 11
f 1 11 19
f 1 19 31
f 1 31 45
f 1 45 65
f 1 65 82
f 1 82 103
f 1 103 124
f 1 124 149
f 1 149 174
f 1 174 199
f 1 199 227
f 1 227 229
f 1 229 257
f 1 257 290
f 1 290 295
f 1 295 264
f 1 264 294
f 1 294 293
f 1 293 261
f 1 261 292
f 1 292 306
f 1 306 327
f 1 327 334
f 1 334 312
f 1 312 287
f 1 287 254
f 1 254 226
f 1 226 198
f 1 198 173
f 1 173 172
f 1 172 148
f 1 148 147
f 1 147 145
f 1 145 122
f 1 122 101
f 1 101 81
f 1 81 64
f 1 64 44
f 1 44 43
f 1 43 30
f 1 30 28
f 1 28 27
f 1 27 16
f 1 16 8
f 1 8 3
f 1 3 4
f 1 4 5
f 1 5 2
f 2 5 7
f 2 7 6
f 3 8 4
f 4 9 18
f 4 18 29
f 4 29 42
f 4 42 63
f 4 63 80
f 4 80 100
f 4 100 102
f 4 102 123
f 4 123 146
f 4 146 171
f 4 171 197
f 4 197 225
f 4 225 253
f 4 253 255
f 4 255 289
f 4 289 288
f 4 288 313
f 4 313 333
f 4 333 332
f 4 332 331
f 4 331 330
f 4 330 311
f 4 311 310
f 4 310 284
f 4 284 307
f 4 307 279
f 4 279 277
f 4 277 246
f 4 246 219
f 4 219 216
f 4 216 215
f 4 215 245
f 4 245 213
f 4 213 189
f 4 189 164
f 4 164 137
f 4 137 113
f 4 113 89
f 4 89 74
f 4 74 53
f 4 53 34
f 4 34 21
f 4 21 13
f 4 13 10
f 4 10 5
f 4 8 9
f 5 10 7
f 6 7 12
f 6 12 11
f 7 10 13
f 7 13 14
f 7 14 15
f 7 15 12
f 8 16 9
f 9 16 17
f 9 17 18
f 11 12 20
f 11 20 19
f 12 15 20
f 13 21 22
f 13 22 14
f 14 23 24
f 14 24 25
f 14 25 15
f 14 22 23
f 15 25 26
f 15 26 20
f 16 27 17
f 17 27 28
f 17 28 18
f 18 28 30
f 18 30 29
f 19 20 32
f 19 32 31
f 20 26 33
f 20 33 32
f 21 34 35
f 21 35 22
f 22 35 36
f 22 36 23
f 23 36 37
f 23 37 38
f 23 38 24
f 24 38 39
f 24 39 25
f 25 39 40
f 25 40 41
f 25 41 26
f 26 41 33
f 29 30 43
f 29 43 44
f 29 44 42
f 31 32 46
f 31 46 47
f 31 47 48
f 31 48 49
f 31 49 45
f 32 33 50
f 32 50 51
f 32 51 46
f 33 41 52
f 33 52 50
f 34 53 54
f 34 54 35
f 35 54 36
f 36 55 56
f 36 56 37
f 36 54 57
f 36 57 55
f 37 56 58
f 37 58 59
f 37 59 38
f 38 60 61
f 38 61 62
f 38 62 40
f 38 40 39
f 38 59 60
f 40 62 41
f 41 62 52
f 42 44 63
f 44 64 63
f 45 49 66
f 45 66 67
f 45 67 65
f 46 51 47
f 47 51 48
f 48 51 68
f 48 68 69
f 48 69 49
f 49 69 66
f 50 52 70
f 50 70 51
f 51 71 72
f 51 72 68
f 51 70 71
f 52 62 73
f 52 73 70
f 53 74 75
f 53 75 54
f 54 75 57
f 55 57 76
f 55 76 56
f 56 76 58
f 57 75 76
f 58 77 59
f 58 76 77
f 59 77 78
f 59 78 60
f 60 78 79
f 60 79 61
f 61 79 62
f 62 79 73
f 63 64 80
f 64 81 80
f 65 67 83
f 65 83 82
f 66 69 68
f 66 68 67
f 67 68 84
f 67 84 83
f 68 85 84
f 68 72 85
f 70 73 86
f 70 86 87
f 70 87 72
f 70 72 71
f 72 87 85
f 73 88 86
f 73 79 88
f 74 89 90
f 74 90 75
f 75 90 91
f 75 91 92
f 75 92 76
f 76 92 93
f 76 93 94
f 76 94 77
f 77 94 95
f 77 95 96
f 77 96 97
f 77 97 78
f 78 98 79
f 78 97 99
f 78 99 98
f 79 98 88
f 80 81 100
f 81 101 102
f 81 102 100
f 82 83 104
f 82 104 103
f 83 84 104
f 84 85 105
f 84 105 104
f 85 87 106
f 85 106 105
f 86 88 107
f 86 107 108
f 86 108 109
f 86 109 87
f 87 109 110
f 87 110 111
f 87 111 106
f 88 98 112
f 88 112 107
f 89 113 114
f 89 114 90
f 90 114 91
f 91 114 92
f 92 114 93
f 93 114 94
f 94 114 95
f 95 115 116
f 95 116 117
f 95 117 118
f 95 118 96
f 95 114 119
f 95 119 120
f 95 120 115
f 96 117 121
f 96 121 99
f 96 99 97
f 96 118 117
f 98 99 112
f 99 121 112
f 101 122 123
f 101 123 102
f 103 104 125
f 103 125 126
f 103 126 124
f 104 127 125
f 104 105 127
f 105 106 128
f 105 128 127
f 106 129 128
f 106 111 129
f 107 130 108
f 107 112 131
f 107 131 130
f 108 130 132
f 108 132 110
f 108 110 109
f 110 132 133
f 110 133 111
f 111 134 129
f 111 133 135
f 111 135 134
f 112 121 136
f 112 136 131
f 113 137 138
f 113 138 114
f 114 139 119
f 114 138 139
f 115 120 140
f 115 140 141
f 115 141 116
f 116 141 142
f 116 142 143
f 116 143 117
f 117 143 136
f 117 136 121
f 119 139 120
f 120 139 144
f 120 144 140
f 122 145 123
f 123 145 147
f 123 147 148
f 123 148 146
f 124 126 150
f 124 150 149
f 125 127 151
f 125 151 126
f 126 151 150
f 127 128 151
f 128 152 153
f 128 153 151
f 128 129 152
f 129 134 154
f 129 154 152
f 130 131 155
f 130 155 156
f 130 156 132
f 131 136 157
f 131 157 155
f 132 156 158
f 132 158 159
f 132 159 160
f 132 160 135
f 132 135 133
f 134 161 162
f 134 162 154
f 134 135 160
f 134 160 159
f 134 159 161
f 136 143 163
f 136 163 157
f 137 164 165
f 137 165 138
f 138 165 139
f 139 165 144
f 140 144 166
f 140 166 167
f 140 167 168
f 140 168 169
f 140 169 141
f 141 169 142
f 142 169 170
f 142 170 163
f 142 163 143
f 144 165 191
f 144 191 166
f 146 148 172
f 146 172 173
f 146 173 171
f 149 150 174
f 150 175 176
f 150 176 177
f 150 177 174
f 150 151 175
f 151 153 175
f 152 154 178
f 152 178 201
f 152 201 179
f 152 179 153
f 153 179 175
f 154 162 180
f 154 180 178
f 155 181 182
f 155 182 156
f 155 157 181
f 156 182 183
f 156 183 158
f 157 163 170
f 157 170 184
f 157 184 181
f 158 183 185
f 158 185 159
f 159 185 161
f 161 186 187
f 161 187 162
f 161 185 186
f 162 187 188
f 162 188 180
f 164 189 190
f 164 190 165
f 165 190 191
f 166 191 167
f 167 192 168
f 167 191 193
f 167 193 192
f 168 192 169
f 169 194 195
f 169 195 196
f 169 196 170
f 169 192 194
f 170 195 184
f 170 196 195
f 171 173 197
f 173 198 197
f 174 177 176
f 174 176 199
f 175 179 176
f 176 179 200
f 176 200 199
f 178 180 203
f 178 203 201
f 179 201 200
f 180 188 202
f 180 202 203
f 181 204 205
f 181 205 182
f 181 184 206
f 181 206 204
f 182 205 207
f 182 207 183
f 183 207 208
f 183 208 209
f 183 209 210
f 183 210 185
f 184 195 206
f 185 210 186
f 186 209 211
f 186 211 187
f 186 210 209
f 187 211 212
f 187 212 188
f 188 212 202
f 189 213 214
f 189 214 190
f 190 214 191
f 191 214 215
f 191 215 216
f 191 216 193
f 192 217 218
f 192 218 194
f 192 193 216
f 192 216 219
f 192 219 220
f 192 220 221
f 192 221 217
f 194 222 195
f 194 218 223
f 194 223 222
f 195 224 206
f 195 222 224
f 197 198 226
f 197 226 225
f 199 200 227
f 200 201 228
f 200 228 229
f 200 229 230
f 200 230 227
f 201 203 235
f 201 235 228
f 202 212 231
f 202 231 232
f 202 232 233
f 202 233 234
f 202 234 203
f 203 234 235
f 204 236 205
f 204 206 237
f 204 237 236
f 205 236 238
f 205 238 207
f 206 224 237
f 207 238 239
f 207 239 240
f 207 240 208
f 208 240 209
f 209 240 241
f 209 241 242
f 209 242 211
f 211 242 243
f 211 243 212
f 212 243 244
f 212 244 231
f 213 245 214
f 214 245 215
f 217 223 218
f 217 221 223
f 219 246 220
f 220 247 221
f 220 246 247
f 221 247 223
f 222 223 248
f 222 248 249
f 222 249 237
f 222 237 224
f 223 247 250
f 223 250 251
f 223 251 252
f 223 252 248
f 225 226 253
f 226 254 255
f 226 255 253
f 227 230 229
f 228 235 256
f 228 256 257
f 228 257 229
f 231 258 232
f 231 244 258
f 232 259 233
f 232 258 259
f 233 259 260
f 233 260 261
f 233 261 262
f 233 262 234
f 234 262 263
f 234 263 264
f 234 264 235
f 235 265 256
f 235 264 265
f 236 237 266
f 236 266 267
f 236 267 268
f 236 268 238
f 237 249 266
f 238 268 269
f 238 269 239
f 239 269 270
f 239 270 271
f 239 271 272
f 239 272 240
f 240 272 241
f 241 272 271
f 241 271 273
f 241 273 242
f 242 273 274
f 242 274 243
f 243 274 275
f 243 275 244
f 244 275 276
f 244 276 258
f 246 277 247
f 247 278 251
f 247 251 250
f 247 277 279
f 247 279 280
f 247 280 278
f 248 252 281
f 248 281 249
f 249 281 282
f 249 282 266
f 251 283 282
f 251 282 281
f 251 281 252
f 251 278 284
f 251 284 285
f 251 285 286
f 251 286 283
f 254 287 288
f 254 288 289
f 254 289 255
f 256 265 295
f 256 295 290
f 256 290 257
f 258 276 291
f 258 291 292
f 258 292 259
f 259 292 261
f 259 261 260
f 261 293 262
f 262 293 294
f 262 294 263
f 263 294 264
f 264 295 265
f 266 282 267
f 267 282 268
f 268 282 296
f 268 296 297
f 268 297 269
f 269 297 298
f 269 298 299
f 269 299 270
f 270 299 271
f 271 299 300
f 271 300 301
f 271 301 273
f 273 301 302
f 273 302 303
f 273 303 304
f 273 304 274
f 274 304 305
f 274 305 275
f 275 305 276
f 276 305 306
f 276 306 291
f 278 280 307
f 278 307 284
f 279 307 280
f 282 283 308
f 282 308 296
f 283 286 309
f 283 309 308
f 284 310 285
f 285 310 311
f 285 311 286
f 286 311 309
f 287 312 313
f 287 313 288
f 291 306 292
f 296 308 314
f 296 314 315
f 296 315 297
f 297 316 298
f 297 315 316
f 298 317 318
f 298 318 299
f 298 316 317
f 299 318 319
f 299 319 300
f 300 319 320
f 300 320 321
f 300 321 322
f 300 322 323
f 300 323 324
f 300 324 301
f 301 324 325
f 301 325 302
f 302 325 326
f 302 326 303
f 303 326 327
f 303 327 304
f 304 327 305
f 305 327 306
f 308 328 315
f 308 315 314
f 308 309 328
f 309 311 329
f 309 329 328
f 311 330 329
f 312 331 332
f 312 332 333
f 312 333 313
f 312 334 335
f 312 335 331
f 315 328 316
f 316 328 336
f 316 336 317
f 317 337 318
f 317 336 337
f 318 337 319
f 319 337 320
f 320 334 321
f 320 337 334
f 321 334 322
f 322 334 323
f 323 334 324
f 324 334 325
f 325 334 326
f 326 334 327
f 328 329 336
f 329 335 338
f 329 338 336
f 329 330 335
f 330 331 335
f 334 337 336
f 334 336 338
f 334 338 335
