v -0.35921165 -0.30320242 -0.23875424
v -0.35815924 -0.31000796 -0.23875424
v -0.47127885 -0.35000065 -0.12064150
v -0.46482217 -0.33670047 -0.12064150
v -0.45745534 -0.33271617 -0.12064150
v -0.35941076 -0.30320242 -0.23816460
v -0.20994040 -0.30320242 -0.23875424
v -0.35761881 -0.31323224 -0.23875424
v -0.46928781 -0.36019170 -0.12064150
v -0.35457537 -0.33047068 -0.23875424
v -0.39342910 -0.30320242 -0.12064150
v -0.36783001 -0.30320242 -0.20998912
v -0.36239731 -0.30320242 -0.22837198
v -0.24663246 -0.30320242 -0.12064150
v -0.18070054 -0.42083138 -0.23875424
v -0.46598837 -0.36729667 -0.12064150
v -0.35053641 -0.35000065 -0.23875424
v -0.34846002 -0.35840684 -0.23875424
v -0.34572944 -0.36941549 -0.23875424
v -0.34316954 -0.37898472 -0.23875424
v -0.34146294 -0.38490358 -0.23875424
v -0.33964255 -0.39088002 -0.23875424
v -0.33833414 -0.39497948 -0.23875424
v -0.33708262 -0.39872196 -0.23875424
v -0.33321434 -0.40975362 -0.23875424
v -0.32982957 -0.41882771 -0.23875424
v -0.32906160 -0.42083138 -0.23875424
v -0.21961118 -0.42083138 -0.12064150
v -0.46214849 -0.37313494 -0.12064150
v -0.41632611 -0.42083138 -0.12064150
v -0.45628914 -0.38123021 -0.12064150
v -0.45845085 -0.37827075 -0.12064150
f 1 2 3
f 1 3 4
f 1 4 5
f 1 5 6
f 1 6 13
f 1 13 12
f 1 12 11
f 1 11 14
f 1 14 7
f 1 7 15
f 1 15 27
f 1 27 26
f 1 26 25
f 1 25 24
f 1 24 23
f 1 23 22
f 1 22 21
f 1 21 20
f 1 20 19
f 1 19 18
f 1 18 17
f 1 17 10
f 1 10 8
f 1 8 2
f 2 8 3
f 3 9 16
f 3 16 29
f 3 29 32
f 3 32 31
f 3 31 30
f 3 30 28
f 3 28 14
f 3 14 11
f 3 11 5
f 3 5 4
f 3 8 10
f 3 10 9
f 5 11 12
f 5 12 13
f 5 13 6
f 7 14 15
f 9 10 17
f 9 17 18
f 9 18 19
f 9 19 20
f 9 20 21
f 9 21 22
f 9 22 23
f 9 23 24
f 9 24 25
f 9 25 26
f 9 26 27
f 9 27 16
f 14 28 15
f 15 28 30
f 15 30 27
f 16 27 29
f 27 30 31
f 27 31 32
f 27 32 29
