v -0.44424713 0.45923343 0.10924381
v -0.44424713 0.46723440 0.10577808
v -0.54272681 0.48997563 0.08986728
v -0.54272681 0.46997321 0.09585352
v -0.45567986 0.44997078 0.10924381
v -0.44424713 0.25902438 0.10924381
v -0.44424713 0.48117459 0.09380560
v -0.54272681 0.50240791 0.08253075
v -0.54272681 0.44997078 0.09614608
v -0.47823688 0.40999666 0.10924381
v -0.47226989 0.42999908 0.10924381
v -0.47000453 0.43307638 0.10924381
v -0.45358804 0.27117968 0.10924381
v -0.46468341 0.27001032 0.10258242
v -0.46047083 0.25957829 0.10028695
v -0.44424713 0.25225431 0.10609315
v -0.44424713 0.48680604 0.08766182
v -0.52999270 0.50148475 0.08172058
v -0.54272681 0.50930107 0.06999564
v -0.47957683 0.38999420 0.10924381
v -0.54272681 0.42972213 0.08988978
v -0.48187107 0.29496720 0.10154721
v -0.48404965 0.31001520 0.10310003
v -0.47287717 0.31001520 0.10924381
v -0.47666562 0.33001766 0.10924381
v -0.47843933 0.35002008 0.10924381
v -0.47927797 0.37029949 0.10924381
v -0.47910446 0.28164250 0.09911670
v -0.46486655 0.28933576 0.10924381
v -0.47146979 0.28899726 0.10566556
v -0.44424713 0.24619202 0.10141218
v -0.47467983 0.27001032 0.09459326
v -0.48019376 0.25970137 0.08032529
v -0.46741146 0.25296208 0.08732425
v -0.46101066 0.23920655 0.08100043
v -0.45000207 0.24489957 0.09556095
v -0.44424713 0.24231464 0.09792395
v -0.44424713 0.49957681 0.06842032
v -0.44424713 0.50711620 0.04935885
v -0.54272681 0.51619422 0.04953889
v -0.54272681 0.41722831 0.08241823
v -0.47202888 0.30746105 0.10924381
v -0.48644996 0.28899726 0.09146510
v -0.48261333 0.27001032 0.08457868
v -0.48191926 0.25653175 0.06999564
v -0.47834292 0.24237618 0.05401732
v -0.47451594 0.24653053 0.06999564
v -0.48833933 0.27001032 0.06999564
v -0.46451953 0.23619081 0.06999564
v -0.44424713 0.22363542 0.07384394
v -0.44424713 0.23265190 0.08824694
v -0.44424713 0.51237839 0.02998232
v -0.54272681 0.51917922 0.03398816
v -0.54272681 0.40796563 0.07053575
v -0.49648494 0.29044360 0.06983811
v -0.49353516 0.27001032 0.04998898
v -0.48377010 0.24942319 0.04841365
v -0.48016483 0.23979124 0.04069455
v -0.47100708 0.23345201 0.04841365
v -0.49895272 0.28305808 0.04998898
v -0.45683664 0.22197369 0.04998898
v -0.44424713 0.21477281 0.05419736
v -0.44424713 0.21957339 0.06522465
v -0.44973215 0.22582030 0.07035571
v -0.44424713 0.51422477 0.00999817
v -0.54272681 0.52044094 0.02352348
v -0.54272681 0.51951772 0.03133260
v -0.54272681 0.40350354 0.06265911
v -0.49999380 0.28004232 0.03995189
v -0.49697655 0.27087197 0.03196273
v -0.48711509 0.25000787 0.02998232
v -0.48088783 0.23871419 0.02998232
v -0.46885741 0.22711277 0.03117507
v -0.45957434 0.22025040 0.03864662
v -0.44424713 0.21354188 0.04998898
v -0.44424713 0.51450169 -0.00998599
v -0.54272681 0.52133334 0.00999817
v -0.54272681 0.39821059 0.04998898
v -0.50080353 0.27813441 0.02660662
v -0.54272681 0.39310229 0.03450576
v -0.49706331 0.26659453 0.00999817
v -0.48885024 0.25000787 0.00999817
v -0.48178431 0.23736018 0.00999817
v -0.47262657 0.22735895 0.00999817
v -0.46142516 0.21908103 0.02532385
v -0.44424713 0.21058768 0.03977185
v -0.44424713 0.51404011 -0.01964050
v -0.54272681 0.52114868 -0.01799766
v -0.54272681 0.52145642 -0.00998599
v -0.50146866 0.27659574 0.00999817
v -0.54272681 0.39187136 0.02998232
v -0.49718863 0.26622525 -0.00998599
v -0.50164223 0.27622646 -0.00998599
v -0.48910087 0.25000787 -0.00998599
v -0.48190963 0.23717554 -0.00998599
v -0.47285789 0.22717431 -0.00998599
v -0.46263012 0.21828093 0.00999817
v -0.44424713 0.20809506 0.01850493
v -0.44424713 0.20935676 0.03058995
v -0.54272681 0.52068710 -0.02506413
v -0.44424713 0.51336312 -0.02999265
v -0.50672233 0.29001278 -0.00998599
v -0.54272681 0.38980958 0.01780729
v -0.54272681 0.38873252 0.00999817
v -0.50113130 0.27742660 -0.02999265
v -0.49663916 0.26742539 -0.02999265
v -0.48796341 0.25000787 -0.02999265
v -0.54272681 0.38977879 -0.02999265
v -0.48132160 0.23809873 -0.02999265
v -0.47164330 0.22809751 -0.02999265
v -0.46164688 0.21892716 -0.02999265
v -0.46286148 0.21812706 -0.00998599
v -0.44424713 0.20723341 -0.00093911
v -0.44424713 0.20741805 0.00999817
v -0.54272681 0.51964080 -0.03552881
v -0.44424713 0.51243997 -0.03906204
v -0.54272681 0.38833246 -0.00080408
v -0.54272681 0.38805550 -0.00998599
v -0.50046617 0.27893448 -0.04286533
v -0.54272681 0.39445630 -0.04999932
v -0.48467624 0.24859232 -0.05002182
v -0.49594510 0.27136433 -0.04970675
v -0.48056972 0.23920655 -0.04338294
v -0.46047083 0.21969648 -0.04138002
v -0.44424713 0.21086463 -0.04934668
v -0.44424713 0.20840280 -0.02999265
v -0.44424713 0.20711033 -0.00998599
v -0.54272681 0.51957929 -0.03595639
v -0.44424713 0.51074743 -0.05033689
v -0.49935758 0.28179637 -0.05621061
v -0.54272681 0.40131867 -0.07047857
v -0.48341343 0.25382373 -0.06998347
v -0.47936472 0.24099138 -0.05670571
v -0.49121198 0.27001032 -0.06998347
v -0.46991777 0.23022084 -0.04905412
v -0.45794523 0.22123513 -0.05472530
v -0.44424713 0.21738851 -0.06998347
v -0.54272681 0.51951772 -0.03636148
v -0.54272681 0.51207066 -0.06998347
v -0.54272681 0.51551723 -0.05708829
v -0.54272681 0.51724052 -0.05017935
v -0.44424713 0.50754702 -0.06001390
v -0.54272681 0.40953505 -0.08191095
v -0.49821046 0.28908956 -0.07189637
v -0.48147583 0.25745493 -0.08366631
v -0.47714758 0.24382252 -0.06998347
v -0.46714154 0.23372896 -0.06998347
v -0.49300498 0.29001278 -0.08999014
v -0.48472443 0.26951796 -0.09019268
v -0.45411822 0.22372775 -0.06998347
v -0.44424713 0.22455862 -0.08924748
v -0.54272681 0.50963962 -0.07554212
v -0.44424713 0.48908323 -0.09680904
v -0.54272681 0.41341245 -0.08722205
v -0.47830436 0.26250172 -0.09698908
v -0.47090104 0.24954629 -0.09084532
v -0.46349770 0.23708323 -0.08467902
v -0.48202530 0.27582642 -0.10261525
v -0.54272681 0.41728985 -0.09201555
v -0.45791629 0.24160686 -0.09800179
v -0.44424713 0.23665240 -0.10349295
v -0.54272681 0.50434661 -0.08593929
v -0.44424713 0.48468268 -0.10477571
v -0.46497259 0.25493157 -0.10405555
v -0.48476300 0.29001278 -0.10581093
v -0.47355196 0.29001278 -0.11580300
v -0.46953219 0.27077964 -0.10999680
v -0.54272681 0.42322904 -0.09728165
v -0.54272681 0.42818350 -0.10047731
v -0.44424713 0.24296087 -0.11019933
v -0.54272681 0.50093085 -0.08958505
v -0.54272681 0.49323758 -0.09593137
v -0.44424713 0.46852687 -0.11803097
v -0.45540994 0.26570210 -0.11737832
v -0.44424713 0.24751526 -0.11319245
v -0.54272681 0.43332258 -0.10268277
v -0.47733074 0.31001520 -0.11852607
v -0.46536782 0.29001278 -0.12061900
v -0.46075037 0.27902681 -0.12037145
v -0.54272681 0.48960638 -0.09836188
v -0.44424713 0.45935652 -0.12061900
v -0.54272681 0.48323637 -0.10135500
v -0.44424713 0.25930130 -0.12059650
v -0.54272681 0.43950796 -0.10385302
v -0.47298321 0.31001520 -0.12061900
v -0.46818262 0.29672128 -0.12061900
v -0.46129021 0.28115013 -0.12061900
v -0.45973819 0.27834982 -0.12061900
v -0.45325065 0.45387894 -0.12061900
v -0.54272681 0.47812805 -0.10270527
v -0.44424713 0.25967059 -0.12061900
v -0.45199749 0.26887172 -0.12061900
v -0.54272681 0.44889373 -0.10495575
v -0.47607759 0.32466316 -0.12061900
v -0.45887062 0.44994000 -0.12061900
v -0.54272681 0.46997321 -0.10419059
v -0.54272681 0.46271080 -0.10493325
v -0.47873816 0.36999175 -0.12061900
v -0.47874779 0.36660674 -0.12061900
v -0.47868031 0.35568231 -0.12061900
v -0.47833329 0.34481946 -0.12061900
v -0.47813085 0.34128058 -0.12061900
v -0.47703192 0.33001766 -0.12061900
v -0.46381581 0.44363153 -0.12061900
v -0.47211564 0.42999908 -0.12061900
v -0.47450632 0.42310596 -0.12061900
v -0.47711867 0.40999666 -0.12061900
v -0.47767779 0.40528840 -0.12061900
v -0.47827545 0.39633346 -0.12061900
v -0.47865140 0.38242406 -0.12061900
f 1 2 3
f 1 3 4
f 1 4 5
f 1 5 12
f 1 12 11
f 1 11 10
f 1 10 20
f 1 20 27
f 1 27 26
f 1 26 25
f 1 25 24
f 1 24 42
f 1 42 29
f 1 29 13
f 1 13 6
f 1 6 16
f 1 16 31
f 1 31 37
f 1 37 51
f 1 51 50
f 1 50 63
f 1 63 62
f 1 62 75
f 1 75 86
f 1 86 99
f 1 99 98
f 1 98 114
f 1 114 113
f 1 113 127
f 1 127 126
f 1 126 125
f 1 125 137
f 1 137 151
f 1 151 161
f 1 161 170
f 1 170 175
f 1 175 183
f 1 183 191
f 1 191 181
f 1 181 173
f 1 173 163
f 1 163 153
f 1 153 142
f 1 142 129
f 1 129 116
f 1 116 101
f 1 101 87
f 1 87 76
f 1 76 65
f 1 65 52
f 1 52 39
f 1 39 38
f 1 38 17
f 1 17 7
f 1 7 2
f 2 7 8
f 2 8 3
f 3 8 19
f 3 19 40
f 3 40 53
f 3 53 67
f 3 67 66
f 3 66 77
f 3 77 89
f 3 89 88
f 3 88 100
f 3 100 115
f 3 115 128
f 3 128 138
f 3 138 141
f 3 141 140
f 3 140 139
f 3 139 152
f 3 152 162
f 3 162 171
f 3 171 172
f 3 172 180
f 3 180 182
f 3 182 190
f 3 190 196
f 3 196 197
f 3 197 193
f 3 193 184
f 3 184 176
f 3 176 169
f 3 169 168
f 3 168 159
f 3 159 154
f 3 154 143
f 3 143 131
f 3 131 120
f 3 120 108
f 3 108 118
f 3 118 117
f 3 117 104
f 3 104 103
f 3 103 91
f 3 91 80
f 3 80 78
f 3 78 68
f 3 68 54
f 3 54 41
f 3 41 21
f 3 21 9
f 3 9 4
f 4 9 10
f 4 10 11
f 4 11 12
f 4 12 5
f 6 13 14
f 6 14 15
f 6 15 16
f 7 17 8
f 8 17 18
f 8 18 19
f 9 20 10
f 9 21 22
f 9 22 23
f 9 23 24
f 9 24 25
f 9 25 26
f 9 26 27
f 9 27 20
f 13 28 14
f 13 29 30
f 13 30 28
f 14 28 15
f 15 31 16
f 15 28 32
f 15 32 33
f 15 33 34
f 15 34 35
f 15 35 36
f 15 36 37
f 15 37 31
f 17 38 18
f 18 38 19
f 19 39 40
f 19 38 39
f 21 41 28
f 21 28 22
f 22 28 30
f 22 30 29
f 22 29 42
f 22 42 23
f 23 42 24
f 28 43 44
f 28 44 33
f 28 33 32
f 28 41 43
f 33 45 46
f 33 46 47
f 33 47 35
f 33 35 34
f 33 44 41
f 33 41 48
f 33 48 45
f 35 49 50
f 35 50 51
f 35 51 37
f 35 37 36
f 35 47 49
f 39 52 40
f 40 52 53
f 41 54 55
f 41 55 48
f 41 44 43
f 45 48 56
f 45 56 57
f 45 57 46
f 46 58 59
f 46 59 49
f 46 49 47
f 46 57 58
f 48 55 60
f 48 60 56
f 49 59 61
f 49 61 62
f 49 62 63
f 49 63 64
f 49 64 50
f 50 64 63
f 52 65 66
f 52 66 67
f 52 67 53
f 54 68 69
f 54 69 60
f 54 60 55
f 56 60 69
f 56 69 70
f 56 70 57
f 57 70 71
f 57 71 58
f 58 72 73
f 58 73 74
f 58 74 59
f 58 71 72
f 59 74 61
f 61 74 62
f 62 74 75
f 65 76 77
f 65 77 66
f 68 78 69
f 69 79 70
f 69 78 80
f 69 80 79
f 70 79 81
f 70 81 71
f 71 81 82
f 71 82 72
f 72 83 84
f 72 84 73
f 72 82 83
f 73 84 85
f 73 85 74
f 74 85 86
f 74 86 75
f 76 87 88
f 76 88 89
f 76 89 77
f 79 90 81
f 79 80 91
f 79 91 90
f 81 92 82
f 81 90 93
f 81 93 92
f 82 92 94
f 82 94 83
f 83 95 96
f 83 96 84
f 83 94 95
f 84 96 97
f 84 97 85
f 85 97 98
f 85 98 99
f 85 99 86
f 87 100 88
f 87 101 100
f 90 102 93
f 90 91 103
f 90 103 104
f 90 104 102
f 92 93 105
f 92 105 106
f 92 106 107
f 92 107 94
f 93 102 108
f 93 108 105
f 94 107 109
f 94 109 95
f 95 109 96
f 96 109 110
f 96 110 111
f 96 111 112
f 96 112 97
f 97 112 113
f 97 113 114
f 97 114 98
f 100 101 115
f 101 116 115
f 102 104 117
f 102 117 118
f 102 118 108
f 105 119 106
f 105 108 120
f 105 120 119
f 106 121 107
f 106 119 122
f 106 122 121
f 107 121 123
f 107 123 109
f 109 123 110
f 110 123 124
f 110 124 111
f 111 124 125
f 111 125 126
f 111 126 112
f 112 126 127
f 112 127 113
f 115 116 128
f 116 129 128
f 119 130 122
f 119 120 131
f 119 131 130
f 121 122 132
f 121 132 133
f 121 133 123
f 122 130 134
f 122 134 132
f 123 133 135
f 123 135 124
f 124 136 125
f 124 135 136
f 125 136 137
f 128 129 138
f 129 139 140
f 129 140 141
f 129 141 138
f 129 142 139
f 130 131 134
f 131 143 144
f 131 144 134
f 132 134 145
f 132 145 146
f 132 146 133
f 133 146 147
f 133 147 135
f 134 144 148
f 134 148 149
f 134 149 145
f 135 147 136
f 136 147 150
f 136 150 137
f 137 150 151
f 139 142 152
f 142 153 152
f 143 154 144
f 144 154 148
f 145 155 156
f 145 156 146
f 145 149 155
f 146 157 147
f 146 156 157
f 147 157 150
f 148 158 149
f 148 154 159
f 148 159 158
f 149 158 155
f 150 157 151
f 151 157 160
f 151 160 161
f 152 153 162
f 153 163 162
f 155 164 160
f 155 160 156
f 155 158 164
f 156 160 157
f 158 165 166
f 158 166 167
f 158 167 164
f 158 159 168
f 158 168 169
f 158 169 165
f 160 170 161
f 160 164 170
f 162 163 171
f 163 172 171
f 163 173 172
f 164 167 174
f 164 174 175
f 164 175 170
f 165 169 176
f 165 176 166
f 166 176 177
f 166 177 178
f 166 178 179
f 166 179 167
f 167 179 174
f 172 173 180
f 173 181 182
f 173 182 180
f 174 183 175
f 174 179 183
f 176 184 177
f 177 185 186
f 177 186 178
f 177 184 185
f 178 186 185
f 178 185 194
f 178 194 203
f 178 203 202
f 178 202 201
f 178 201 200
f 178 200 199
f 178 199 198
f 178 198 210
f 178 210 209
f 178 209 208
f 178 208 207
f 178 207 206
f 178 206 205
f 178 205 204
f 178 204 195
f 178 195 189
f 178 189 181
f 178 181 191
f 178 191 192
f 178 192 188
f 178 188 187
f 178 187 179
f 179 187 188
f 179 188 183
f 181 189 190
f 181 190 182
f 183 188 192
f 183 192 191
f 184 193 185
f 185 193 194
f 189 195 190
f 190 195 196
f 193 197 198
f 193 198 199
f 193 199 200
f 193 200 201
f 193 201 202
f 193 202 203
f 193 203 194
f 195 204 196
f 196 204 205
f 196 205 197
f 197 205 206
f 197 206 207
f 197 207 208
f 197 208 209
f 197 209 210
f 197 210 198
