v -1.01018226 0.15001510 0.00998263
v -1.00773847 0.15001510 0.02998426
v -1.00768411 0.16998887 0.02998426
v -1.01010990 0.16998887 0.00998263
v -1.00989258 0.16998887 -0.00998378
v -1.00994694 0.15001510 -0.00998378
v -1.00920475 0.12999354 0.00998263
v -1.00679719 0.12999354 0.02998426
v -1.00290513 0.15001510 0.04815475
v -1.00288713 0.16998887 0.04810193
v -1.00245261 0.12999354 0.04693986
v -1.00236213 0.19001043 0.04678140
v -1.00659800 0.19001043 0.02998426
v -1.00900567 0.19001043 0.00998263
v -1.00880647 0.19001043 -0.00998378
v -1.00598252 0.19001043 -0.02998541
v -1.00701439 0.16998887 -0.02998541
v -1.00705063 0.15001510 -0.02998541
v -1.00896943 0.12999354 -0.00998378
v -1.00726783 0.11001977 0.00998263
v -1.00489640 0.11001977 0.02998426
v -1.00151134 0.11001977 0.04436924
v -0.99926662 0.15001510 0.05815557
v -0.99881411 0.12999354 0.05695829
v -0.99923044 0.16998887 0.05810275
v -0.99875981 0.19001043 0.05676461
v -0.99778229 0.20969750 0.05401791
v -1.00136650 0.20969750 0.04401709
v -1.00455248 0.20969750 0.02998426
v -1.00460684 0.20969750 0.02964973
v -1.00134838 0.21003199 0.04396427
v -1.00692391 0.20969750 0.00998263
v -1.00692391 0.20969750 0.00964810
v -1.00674284 0.20969750 -0.00998378
v -1.00395513 0.20969750 -0.02998541
v -1.00095010 0.20969750 -0.04268010
v -1.00192761 0.19001043 -0.04544441
v -1.00243449 0.16998887 -0.04674733
v -1.00245261 0.15001510 -0.04672972
v -1.00196385 0.12999354 -0.04540920
v -1.00605500 0.12999354 -0.02998541
v -1.00409997 0.11001977 -0.02998541
v -1.00699627 0.11001977 -0.00998378
v -1.00413609 0.09004600 -0.00998378
v -1.00438952 0.09004600 0.00998263
v -1.00192761 0.08975929 0.03044204
v -1.00060618 0.09625794 0.04178100
v -0.99785471 0.11001977 0.05435244
v -0.99101204 0.15001510 0.06998751
v -0.99099398 0.16998887 0.06998751
v -0.99019748 0.12999354 0.06998751
v -0.98845965 0.11001977 0.06998751
v -0.99012506 0.19001043 0.06998751
v -0.98836911 0.20969750 0.06998751
v -0.98851395 0.20969750 0.06975862
v -0.98833293 0.21003199 0.06998751
v -0.98498404 0.22814217 0.07118480
v -0.98415130 0.24997954 0.06637806
v -0.99774605 0.21003199 0.05396508
v -0.99655133 0.22967127 0.04885904
v -1.00046134 0.22274257 0.04142885
v -1.00451624 0.21003199 0.02998426
v -1.00156558 0.22967127 0.02959691
v -1.00046134 0.24209516 0.02267733
v -1.00377405 0.23005354 0.00998263
v -1.00670660 0.21003199 -0.00996617
v -1.00018990 0.22121347 -0.04054965
v -1.00125790 0.22876337 -0.02914027
v -0.99722111 0.21003199 -0.05262809
v -0.99723923 0.20969750 -0.05269852
v -0.99819863 0.19001043 -0.05542762
v -0.99868739 0.16998887 -0.05674815
v -0.99866927 0.15001510 -0.05673054
v -0.99816239 0.12999354 -0.05541001
v -1.00098634 0.11001977 -0.04275053
v -1.00026226 0.09840822 -0.04072572
v -1.00149322 0.09104946 -0.02965087
v -1.00055194 0.07723984 -0.02276651
v -1.00123978 0.07394274 -0.00998378
v -1.00134838 0.07327376 0.00998263
v -1.00073290 0.07637973 0.02408589
v -0.99950194 0.08292615 0.03741444
v -0.99284035 0.07002445 0.04998589
v -0.99687713 0.08975929 0.04905272
v -0.98460388 0.07002445 0.06687106
v -0.98518312 0.09190959 0.07129044
v -0.98138171 0.12999354 0.08111518
v -0.98174375 0.15001510 0.08137929
v -0.98174375 0.16998887 0.08137929
v -0.98136359 0.19001043 0.08111518
v -0.98056710 0.11001977 0.08046372
v -0.98002404 0.09984174 0.08000594
v -0.98054898 0.21003199 0.08048133
v -0.98002404 0.22021002 0.08002354
v -0.97839481 0.23354179 0.07866780
v -0.99189907 0.24997954 0.04998589
v -0.97640359 0.24997954 0.07639649
v -0.97386926 0.27000108 0.07252293
v -0.98154461 0.27000108 0.06252212
v -0.99926662 0.23607434 0.03602349
v -0.99754691 0.24926278 0.02959691
v -0.99209821 0.27000108 0.02998426
v -0.99446958 0.27000108 0.00998263
v -0.99866927 0.25428012 0.00998263
v -1.00095010 0.24434100 0.00998263
v -1.00087774 0.24400651 -0.00996617
v -1.00359309 0.23005354 -0.00996617
v -1.00035274 0.24171288 -0.02192137
v -0.99903131 0.23454526 -0.03524992
v -0.99124736 0.24997954 -0.04996943
v -0.99600828 0.22876337 -0.04833197
v -0.98378927 0.24997954 -0.06597425
v -0.98572624 0.23005354 -0.06847446
v -0.98900270 0.19001043 -0.06998866
v -0.98605204 0.20969750 -0.07173176
v -0.98987162 0.16998887 -0.06998866
v -0.98983538 0.15001510 -0.06998866
v -0.98887599 0.12999354 -0.06998866
v -0.98587102 0.11054540 -0.07169655
v -0.98576242 0.09004600 -0.06826317
v -0.99716681 0.11001977 -0.05276895
v -0.99609876 0.09104946 -0.04843761
v -0.99162751 0.07002445 -0.04996943
v -0.99915802 0.08507645 -0.03611267
v -0.99769175 0.07035893 -0.02965087
v -0.99300331 0.05005068 -0.02998541
v -0.99588156 0.05005068 -0.00998378
v -0.99917614 0.06395586 -0.00998378
v -0.99930286 0.06328687 0.00998263
v -0.99376357 0.05005068 0.02998426
v -0.99819863 0.06983331 0.03044204
v -0.98827863 0.05005068 0.04998589
v -0.98071194 0.03748344 0.06118398
v -0.98232299 0.05005068 0.06364897
v -0.97633117 0.07002445 0.07687188
v -0.97835863 0.08650997 0.07880866
v -0.96999544 0.12999354 0.08518241
v -0.96999544 0.11001977 0.08431967
v -0.96999544 0.15001510 0.08551694
v -0.96999544 0.16998887 0.08551694
v -0.96999544 0.19001043 0.08523524
v -0.97019452 0.20969750 0.08447813
v -0.97102726 0.09190959 0.08282307
v -0.96014786 0.01946881 0.08011158
v -0.96148741 0.03002912 0.08097433
v -0.96391308 0.05005068 0.08225964
v -0.96632069 0.07002445 0.08303435
v -0.97102726 0.22814217 0.08313999
v -0.96639311 0.24997954 0.08352735
v -0.96387690 0.27000108 0.08257657
v -0.96168649 0.28562650 0.08127365
v -0.98007834 0.28027469 0.06014517
v -0.98670375 0.27000108 0.04998589
v -0.95949614 0.29895827 0.07963619
v -0.98015076 0.30039179 0.04046046
v -0.98574430 0.28997487 0.02998426
v -0.98811573 0.28997487 0.00998263
v -0.98806143 0.28997487 -0.00996617
v -0.99437904 0.27000108 -0.00996617
v -0.99861497 0.25399339 -0.00996617
v -0.99179041 0.27000108 -0.02996780
v -0.99727541 0.24897607 -0.02914027
v -0.98502022 0.27196023 -0.05194142
v -0.97995162 0.27989241 -0.05991742
v -0.98177993 0.26656064 -0.06296344
v -0.97604156 0.24997954 -0.07599267
v -0.97814143 0.23005354 -0.07847527
v -0.97944474 0.21681733 -0.07960212
v -0.98031366 0.20348556 -0.08027118
v -0.98076624 0.19001043 -0.08062333
v -0.98116446 0.16998887 -0.08094025
v -0.98114634 0.15001510 -0.08092265
v -0.98071194 0.12999354 -0.08055290
v -0.98024124 0.11761746 -0.08018316
v -0.97911894 0.10428567 -0.07947887
v -0.97752595 0.09004600 -0.07826398
v -0.98389792 0.07002445 -0.06592143
v -0.98163509 0.05005068 -0.06261130
v -0.98025936 0.03906031 -0.06044563
v -0.98708391 0.05005068 -0.04996943
v -0.98082054 0.01755744 -0.04231035
v -0.98757267 0.03002912 -0.02998541
v -0.99613500 0.05005068 0.00998263
v -0.99045086 0.03002912 -0.00998378
v -0.99074054 0.03002912 0.00998263
v -0.98835105 0.03002912 0.02998426
v -0.98118258 0.01641063 0.04343606
v -0.98302901 0.03050695 0.05005632
v -0.97875690 0.02415167 0.05678222
v -0.96431136 0.00288771 0.06808595
v -0.96527076 0.01167999 0.07074462
v -0.97392356 0.05005068 0.07364979
v -0.94999254 0.05005068 0.08578105
v -0.94999254 0.07002445 0.08660859
v -0.94999254 0.09004600 0.08715440
v -0.94999254 0.11001977 0.08752415
v -0.94999254 0.12999354 0.08778826
v -0.94999254 0.15001510 0.08791151
v -0.94999254 0.20969750 0.08808758
v -0.94999254 0.23005354 0.08812279
v -0.94999254 0.24997954 0.08787630
v -0.96999544 0.20969750 0.08454856
v -0.95726961 0.00613704 0.07791069
v -0.94782025 0.00288771 0.08234768
v -0.95035458 0.01167999 0.08248853
v -0.94999254 0.03002912 0.08439010
v -0.94999254 0.27000108 0.08696073
v -0.95169413 0.29136062 0.08416121
v -0.94711429 0.30999643 0.08363299
v -0.94296885 0.32997018 0.08196032
v -0.98161703 0.28815907 0.04827800
v -0.96465528 0.30999643 0.06692389
v -0.96179515 0.32404494 0.06290948
v -0.97774315 0.29360646 0.05380662
v -0.95714289 0.30999643 0.07692470
v -0.94063365 0.34129503 0.08049893
v -0.97423136 0.30822840 0.04827800
v -0.96422082 0.33040026 0.04995067
v -0.96107107 0.34215516 0.04324238
v -0.96963340 0.32997018 0.02998426
v -0.97712767 0.31286347 0.02998426
v -0.98112828 0.30287659 0.02998426
v -0.98232299 0.30583921 0.00998263
v -0.98230493 0.30579141 -0.00996617
v -0.98107398 0.30273324 -0.02996780
v -0.98554522 0.28997487 -0.02996780
v -0.98009646 0.30024844 -0.04028554
v -0.98183423 0.28997487 -0.04516270
v -0.97821379 0.28997487 -0.05516351
v -0.96165031 0.32366270 -0.06269933
v -0.96447426 0.30999643 -0.06669614
v -0.95944184 0.29881492 -0.07958451
v -0.97497350 0.27196023 -0.06975977
v -0.96165031 0.28548315 -0.08125719
v -0.96373206 0.27000108 -0.08247207
v -0.96604913 0.24997954 -0.08333482
v -0.96814901 0.23005354 -0.08366935
v -0.97222197 0.20969750 -0.08300028
v -0.96999544 0.19001043 -0.08446167
v -0.96999544 0.16998887 -0.08474338
v -0.96999544 0.15001510 -0.08465534
v -0.96999544 0.12999354 -0.08412714
v -0.97147977 0.11054540 -0.08277139
v -0.96753353 0.09004600 -0.08300028
v -0.96528888 0.07002445 -0.08256011
v -0.96317089 0.05005068 -0.08183821
v -0.96141499 0.03423412 -0.08092265
v -0.97529936 0.07002445 -0.07592224
v -0.95951426 0.02090234 -0.07976058
v -0.97318143 0.05005068 -0.07259451
v -0.96568710 0.01005533 -0.06775256
v -0.96436566 0.00288771 -0.06602707
v -0.97828621 0.02572854 -0.05565651
v -0.98234111 0.03146264 -0.04937079
v -0.97566140 0.01053318 -0.04937079
v -0.97274697 0.00288771 -0.04959968
v -0.97870255 0.00288771 -0.02998541
v -0.97884738 0.00326999 -0.02998541
v -0.98230493 0.01325688 -0.02998541
v -0.98042226 0.00288771 -0.02162205
v -0.98111016 0.00288771 -0.01674489
v -0.98330051 0.00809619 -0.01165645
v -0.98174375 0.00288771 -0.00857521
v -0.98194289 0.00288771 -0.00015904
v -0.98442286 0.01005533 0.00998263
v -0.98085672 0.00288771 0.02348725
v -0.98228681 0.00986420 0.02859330
v -0.97890168 0.00288771 0.03426278
v -0.97654843 0.00986420 0.05005632
v -0.97405028 0.00288771 0.05002110
v -0.95839190 0.00288771 0.07514638
v -0.92998958 0.00288771 0.08606277
v -0.92998958 0.01005533 0.08630927
v -0.83002937 0.42993462 0.08914401
v -0.91002291 0.32997018 0.08884469
v -0.92997152 0.28997487 0.08859818
v -0.92997152 0.30999643 0.08819322
v -0.95663601 0.00288771 0.07717120
v -0.92997152 0.32997018 0.08639730
v -0.93009824 0.34874937 0.08329846
v -0.94483340 0.34874937 0.06989948
v -0.94195515 0.36332354 0.06315597
v -0.95875394 0.33737674 0.05657093
v -0.92352712 0.36619058 0.08211879
v -0.91963518 0.37952235 0.07974183
v -0.93685031 0.35462680 0.07651974
v -0.95502490 0.34927499 0.04995067
v -0.94392830 0.36996552 0.04850689
v -0.94025356 0.38038248 0.04084782
v -0.95730579 0.35486573 0.02998426
v -0.96250111 0.34487885 0.02998426
v -0.97196853 0.32997018 0.00998263
v -0.97828621 0.31582609 0.00998263
v -0.97826815 0.31577832 -0.00996617
v -0.97705525 0.31272012 -0.02996780
v -0.96948856 0.32997018 -0.02996780
v -0.96099865 0.34196401 -0.04289139
v -0.96405792 0.33020911 -0.04972293
v -0.97405028 0.30813283 -0.04815590
v -0.95859104 0.33699447 -0.05623754
v -0.94179225 0.36303681 -0.06284019
v -0.94452566 0.34855822 -0.06970695
v -0.94045264 0.34096056 -0.08035922
v -0.95701617 0.30999643 -0.07671456
v -0.94276977 0.32997018 -0.08183821
v -0.94700563 0.30999643 -0.08363414
v -0.95165789 0.29126504 -0.08414474
v -0.94999254 0.27000108 -0.08676820
v -0.94999254 0.24997954 -0.08745487
v -0.97160649 0.20969750 -0.08321157
v -0.94999254 0.23005354 -0.08757812
v -0.94999254 0.20969750 -0.08752530
v -0.94999254 0.12999354 -0.08680341
v -0.94999254 0.11001977 -0.08645127
v -0.94999254 0.09004600 -0.08602870
v -0.94999254 0.19001043 -0.08741966
v -0.94999254 0.16998887 -0.08726119
v -0.94999254 0.15001510 -0.08706751
v -0.94999254 0.07002445 -0.08544766
v -0.94999254 0.05005068 -0.08462013
v -0.94704187 0.01005533 -0.08241925
v -0.94566607 0.00288771 -0.08213754
v -0.95211047 0.00288771 -0.07912673
v -0.95703423 0.01005533 -0.07775338
v -0.97057468 0.00288771 -0.05444162
v -0.95565850 0.00288771 -0.07604549
v -0.97899222 0.00288771 -0.02871770
v -0.98196095 0.00288771 0.00998263
v -0.97901028 0.00288771 0.03368175
v -0.90931690 0.00288771 0.08407317
v -0.82525039 0.42993462 0.08907358
v -0.82525039 0.43471304 0.08902075
v -0.85001415 0.42993462 0.08703116
v -0.87001705 0.40996087 0.08740091
v -0.89002001 0.36996552 0.08893272
v -0.91002291 0.34999174 0.08836930
v -0.91181499 0.37168574 0.08470702
v -0.92461324 0.38645107 0.06641328
v -0.91983426 0.39978284 0.05963456
v -0.93791837 0.37665531 0.05417637
v -0.90569645 0.38993931 0.08262939
v -0.90126145 0.40145528 0.08083346
v -0.91646725 0.39185065 0.07183626
v -0.94128537 0.38191158 0.02998426
v -0.94861674 0.36996552 0.02998426
v -0.93008012 0.39008266 0.05024999
v -0.92225999 0.40284103 0.04630601
v -0.92430550 0.40546915 0.02998426
v -0.93429792 0.39189845 0.02998426
v -0.95844620 0.35711157 0.00998263
v -0.96367776 0.34712470 0.00998263
v -0.97193235 0.32997018 -0.00996617
v -0.96241063 0.34473550 -0.02996780
v -0.95719719 0.35472238 -0.02996780
v -0.94019926 0.38028690 -0.04060247
v -0.94372916 0.36982217 -0.04834958
v -0.95475340 0.34917942 -0.04972293
v -0.93775547 0.37636858 -0.05393102
v -0.91976190 0.39968726 -0.05942442
v -0.92443222 0.38635549 -0.06606229
v -0.91929120 0.37899673 -0.07942605
v -0.93659687 0.35424453 -0.07615113
v -0.92325556 0.36566496 -0.08204950
v -0.92993528 0.34855822 -0.08324678
v -0.92997152 0.32997018 -0.08646888
v -0.92997152 0.30999643 -0.08826479
v -0.92997152 0.28997487 -0.08849369
v -0.85001415 0.40996087 -0.09055372
v -0.92998958 0.01005533 -0.08498988
v -0.91002291 0.32997018 -0.08914515
v -0.87001705 0.38993931 -0.09020157
v -0.92998958 0.00288771 -0.08476099
v -0.94095951 0.00288771 -0.08308832
v -0.89832890 0.00288771 0.08102714
v -0.82525039 0.41473925 0.08789390
v -0.82525039 0.45105523 0.08583388
v -0.86882234 0.42902672 0.08278785
v -0.83136892 0.45148528 0.08470702
v -0.85001415 0.44517776 0.08252375
v -0.88911486 0.40886182 0.08284067
v -0.89002001 0.38993931 0.08710159
v -0.90524393 0.40886182 0.06880784
v -0.90095371 0.42095119 0.06136005
v -0.91458464 0.40972194 0.05178181
v -0.88185591 0.42176354 0.08107997
v -0.89517909 0.41478705 0.07468860
v -0.95093381 0.36996552 0.00998263
v -0.93549269 0.39361867 0.00998263
v -0.94246203 0.38363180 0.00998263
v -0.90334320 0.42353153 0.04998589
v -0.91623193 0.41545603 0.02998426
v -0.92548215 0.40699822 0.00998263
v -0.91753531 0.41698512 0.00998263
v -0.95841002 0.35701603 -0.00996617
v -0.96364158 0.34707692 -0.00996617
v -0.95087951 0.36996552 -0.00996617
v -0.94843572 0.36996552 -0.02996780
v -0.94121295 0.38181600 -0.02996780
v -0.93422550 0.39180288 -0.02996780
v -0.92421502 0.40542138 -0.02996780
v -0.92218757 0.40279323 -0.04607826
v -0.91463894 0.40967417 -0.05164210
v -0.90109855 0.42114234 -0.06157248
v -0.90524393 0.40886182 -0.06893224
v -0.91615951 0.39175510 -0.07164373
v -0.90120715 0.40145528 -0.08083461
v -0.90538871 0.38993931 -0.08273618
v -0.91159779 0.37139904 -0.08491945
v -0.91002291 0.34999174 -0.08874018
v -0.89002001 0.36996552 -0.08969097
v -0.87001705 0.40996087 -0.08849369
v -0.83002937 0.42993462 -0.09072979
v -0.92287546 0.00288771 -0.08474338
v -0.88907868 0.00288771 0.07088547
v -0.82525039 0.40996087 0.08662619
v -0.88317734 0.00288771 0.06303272
v -0.82525039 0.45635927 0.08428445
v -0.86134613 0.44102055 0.08072782
v -0.82561243 0.46319240 0.08201315
v -0.88804686 0.42802328 0.06792749
v -0.88089651 0.44073385 0.06116638
v -0.89344132 0.43351844 0.04998589
v -0.87466931 0.43509531 0.07451253
v -0.93545645 0.39357090 -0.00996617
v -0.92546403 0.40699822 -0.00996617
v -0.94242579 0.38358402 -0.00996617
v -0.90625763 0.42668530 0.02998426
v -0.89668161 0.43667221 0.02998426
v -0.90754288 0.42811882 0.00998263
v -0.91751719 0.41698512 -0.00996617
v -0.91625005 0.41540825 -0.02996780
v -0.90345180 0.42377049 -0.04996943
v -0.89373094 0.43375736 -0.04996943
v -0.88113183 0.44092500 -0.06150205
v -0.88830030 0.42830998 -0.06821035
v -0.89546877 0.41478705 -0.07491864
v -0.88212746 0.42209804 -0.08131000
v -0.88927782 0.40886182 -0.08315875
v -0.89002001 0.38993931 -0.08771898
v -0.86909389 0.42921788 -0.08333482
v -0.85001415 0.42993462 -0.08835283
v -0.82525039 0.45134193 -0.08694427
v -0.82525039 0.42993462 -0.09064175
v -0.90958846 0.00288771 -0.08305310
v -0.82525039 0.39705914 0.08285828
v -0.87881476 0.00288771 0.05405312
v -0.82525039 0.46333575 0.08203075
v -0.83895373 0.45913073 0.07933687
v -0.85164338 0.45583361 0.07158976
v -0.86882234 0.44479549 0.06870220
v -0.82525039 0.46357465 0.08181947
v -0.85942733 0.45951301 0.05884224
v -0.86954641 0.45416120 0.05130642
v -0.88344890 0.44302750 0.04998589
v -0.89816594 0.43815351 0.00998263
v -0.88667107 0.44594231 0.02998426
v -0.89818406 0.43815351 -0.00996617
v -0.90752482 0.42811882 -0.00996617
v -0.90627575 0.42678088 -0.02996780
v -0.89679021 0.43676776 -0.02996780
v -0.88373852 0.44326639 -0.04996943
v -0.85971695 0.45975193 -0.05935399
v -0.86909389 0.44532114 -0.06889702
v -0.87514001 0.43542981 -0.07483061
v -0.86179870 0.44145060 -0.08104590
v -0.85001415 0.44603789 -0.08307071
v -0.83196628 0.45191532 -0.08553570
v -0.82525039 0.46424365 -0.08252490
v -0.82525039 0.40991306 -0.08810633
v -0.89916158 0.00288771 -0.08055290
v -0.89939690 0.00288771 -0.08062333
v -0.90502667 0.00288771 -0.08211993
v -0.82525039 0.39476550 0.08173143
v -0.87729418 0.00288771 0.04998589
v -0.82525039 0.47236693 0.07250533
v -0.83075345 0.47036001 0.07090309
v -0.84608603 0.46414807 0.06600832
v -0.82525039 0.48072916 0.06007474
v -0.83667284 0.47795770 0.04998589
v -0.85164338 0.46754074 0.05130642
v -0.86255896 0.46190220 0.04551369
v -0.87501329 0.45592922 0.02998426
v -0.88815546 0.44723248 0.00998263
v -0.87664247 0.45721936 0.00998263
v -0.88815546 0.44723248 -0.00996617
v -0.88679779 0.44603789 -0.02996780
v -0.87512189 0.45602477 -0.02996780
v -0.86266762 0.46195000 -0.04600784
v -0.86961883 0.45444790 -0.05158928
v -0.83994937 0.45989528 -0.07993665
v -0.85182440 0.45669377 -0.07194304
v -0.85182440 0.46768409 -0.05158928
v -0.83681768 0.47810104 -0.04996943
v -0.82525039 0.47833997 -0.06528758
v -0.84637564 0.46429142 -0.06659050
v -0.82660806 0.46371800 -0.08241925
v -0.82525039 0.47303593 -0.07315794
v -0.82525039 0.39385760 -0.08259532
v -0.88096893 0.00288771 -0.05678336
v -0.88491517 0.00288771 -0.06329797
v -0.89054495 0.00288771 -0.07088662
v -0.82525039 0.38382292 0.06998751
v -0.87405384 0.00288771 0.03855890
v -0.87182730 0.00288771 0.03000187
v -0.82525039 0.47776657 0.06523361
v -0.82525039 0.48287946 0.05424680
v -0.82666236 0.48369181 0.04998589
v -0.83965969 0.47977349 0.03877019
v -0.86502087 0.46376580 0.02998426
v -0.87666059 0.45726717 -0.00996617
v -0.86665010 0.46500820 0.00998263
v -0.86512947 0.46381360 -0.02996780
v -0.83965969 0.47977349 -0.03875373
v -0.83135080 0.47069448 -0.07136201
v -0.82682526 0.48373955 -0.04996943
v -0.82525039 0.48287946 -0.05491701
v -0.82525039 0.38458747 -0.07370375
v -0.87166440 0.00288771 -0.02341797
v -0.87264192 0.00288771 -0.03003823
v -0.87626231 0.00288771 -0.04340199
v -0.87723982 0.00288771 -0.04672972
v -0.87883282 0.00288771 -0.05144842
v -0.82525039 0.37842333 0.06294469
v -0.87028861 0.00288771 0.01603946
v -0.86965501 0.00288771 0.00998263
v -0.82525039 0.48440856 0.04998589
v -0.84885561 0.47489953 0.03125197
v -0.82525039 0.48861355 0.03144565
v -0.83180338 0.48531646 0.03125197
v -0.84143376 0.48082474 0.02544164
v -0.85258466 0.47499508 0.00998263
v -0.86666816 0.46500820 -0.00996617
v -0.85258466 0.47499508 -0.00996617
v -0.84143376 0.48082474 -0.02542518
v -0.84885561 0.47494727 -0.03125311
v -0.83180338 0.48531646 -0.03125311
v -0.82525039 0.48861355 -0.03139397
v -0.82525039 0.48450410 -0.04996943
v -0.82525039 0.37651193 -0.06336840
v -0.86998087 0.00288771 -0.01061763
v -0.82525039 0.37364489 0.05546169
v -0.82525039 0.36026534 -0.00996617
v -0.82525039 0.36036092 -0.00537073
v -0.82525039 0.36069539 0.00998263
v -0.82525039 0.36427921 0.02998426
v -0.82525039 0.37192467 0.05245088
v -0.82525039 0.48952144 0.02355768
v -0.82525039 0.49105054 0.00998263
v -0.83002937 0.48856577 0.00998263
v -0.84255606 0.48154151 0.00998263
v -0.84257418 0.48154151 -0.00996617
v -0.83002937 0.48861355 -0.00996617
v -0.82525039 0.49105054 -0.00996617
v -0.82525039 0.36943990 -0.04996943
v -0.82525039 0.36843643 -0.04699383
v -0.82525039 0.36308461 -0.02996780
f 1 2 3
f 1 3 4
f 1 4 5
f 1 5 6
f 1 6 19
f 1 19 7
f 1 7 8
f 1 8 2
f 2 9 10
f 2 10 3
f 2 8 11
f 2 11 9
f 3 10 12
f 3 12 13
f 3 13 4
f 4 13 14
f 4 14 15
f 4 15 5
f 5 15 16
f 5 16 17
f 5 17 6
f 6 17 18
f 6 18 19
f 7 19 20
f 7 20 21
f 7 21 8
f 8 21 22
f 8 22 11
f 9 23 10
f 9 11 24
f 9 24 23
f 10 23 25
f 10 25 26
f 10 26 12
f 11 22 24
f 12 26 27
f 12 27 28
f 12 28 13
f 13 29 30
f 13 30 14
f 13 28 31
f 13 31 29
f 14 30 32
f 14 32 33
f 14 33 34
f 14 34 15
f 15 34 35
f 15 35 16
f 16 35 36
f 16 36 37
f 16 37 17
f 17 38 18
f 17 37 38
f 18 38 39
f 18 39 40
f 18 40 41
f 18 41 19
f 19 41 42
f 19 42 43
f 19 43 20
f 20 43 44
f 20 44 45
f 20 45 46
f 20 46 21
f 21 46 47
f 21 47 22
f 22 47 48
f 22 48 24
f 23 49 50
f 23 50 25
f 23 24 51
f 23 51 49
f 24 48 52
f 24 52 51
f 25 50 53
f 25 53 26
f 26 53 54
f 26 54 55
f 26 55 27
f 27 55 56
f 27 56 57
f 27 57 58
f 27 58 59
f 27 59 60
f 27 60 61
f 27 61 31
f 27 31 28
f 29 31 62
f 29 62 30
f 30 62 63
f 30 63 32
f 31 61 62
f 32 63 64
f 32 64 65
f 32 65 33
f 33 66 34
f 33 65 66
f 34 66 35
f 35 67 36
f 35 66 68
f 35 68 67
f 36 67 69
f 36 69 70
f 36 70 37
f 37 71 38
f 37 70 71
f 38 72 39
f 38 71 72
f 39 72 73
f 39 73 40
f 40 73 74
f 40 74 75
f 40 75 41
f 41 75 42
f 42 75 76
f 42 76 77
f 42 77 43
f 43 77 78
f 43 78 44
f 44 78 79
f 44 79 45
f 45 79 80
f 45 80 81
f 45 81 46
f 46 81 82
f 46 82 47
f 47 82 83
f 47 83 84
f 47 84 48
f 48 84 85
f 48 85 86
f 48 86 52
f 49 51 87
f 49 87 88
f 49 88 89
f 49 89 50
f 50 89 90
f 50 90 53
f 51 52 91
f 51 91 87
f 52 86 92
f 52 92 91
f 53 90 93
f 53 93 94
f 53 94 54
f 54 94 56
f 54 56 55
f 56 94 57
f 57 95 58
f 57 94 95
f 58 96 60
f 58 60 59
f 58 95 97
f 58 97 98
f 58 98 99
f 58 99 96
f 60 96 61
f 61 96 100
f 61 100 63
f 61 63 62
f 63 100 64
f 64 100 101
f 64 101 102
f 64 102 103
f 64 103 104
f 64 104 105
f 64 105 65
f 65 105 106
f 65 106 107
f 65 107 66
f 66 107 108
f 66 108 68
f 67 68 109
f 67 109 110
f 67 110 111
f 67 111 69
f 68 108 109
f 69 111 112
f 69 112 70
f 70 112 113
f 70 113 71
f 71 114 72
f 71 113 115
f 71 115 114
f 72 116 73
f 72 114 116
f 73 116 117
f 73 117 118
f 73 118 74
f 74 118 119
f 74 119 120
f 74 120 121
f 74 121 75
f 75 121 76
f 76 121 122
f 76 122 123
f 76 123 124
f 76 124 77
f 77 124 78
f 78 124 125
f 78 125 126
f 78 126 127
f 78 127 128
f 78 128 79
f 79 128 129
f 79 129 80
f 80 129 81
f 81 129 130
f 81 130 131
f 81 131 82
f 82 131 130
f 82 130 132
f 82 132 83
f 83 132 133
f 83 133 134
f 83 134 85
f 83 85 84
f 85 135 136
f 85 136 92
f 85 92 86
f 85 134 135
f 87 137 88
f 87 91 138
f 87 138 137
f 88 139 140
f 88 140 89
f 88 137 139
f 89 140 141
f 89 141 90
f 90 141 142
f 90 142 93
f 91 92 143
f 91 143 138
f 92 136 144
f 92 144 145
f 92 145 146
f 92 146 147
f 92 147 143
f 93 142 148
f 93 148 94
f 94 148 149
f 94 149 150
f 94 150 151
f 94 151 95
f 95 151 97
f 96 99 152
f 96 152 153
f 96 153 102
f 96 102 100
f 97 151 154
f 97 154 98
f 98 154 99
f 99 154 152
f 100 102 101
f 102 153 155
f 102 155 156
f 102 156 157
f 102 157 103
f 103 157 158
f 103 158 159
f 103 159 104
f 104 159 160
f 104 160 105
f 105 160 106
f 106 108 107
f 106 160 108
f 108 160 159
f 108 159 161
f 108 161 162
f 108 162 109
f 109 162 110
f 110 162 161
f 110 161 163
f 110 163 164
f 110 164 165
f 110 165 112
f 110 112 111
f 112 165 166
f 112 166 167
f 112 167 113
f 113 167 168
f 113 168 115
f 114 169 170
f 114 170 116
f 114 115 169
f 115 168 169
f 116 171 172
f 116 172 117
f 116 170 171
f 117 172 173
f 117 173 118
f 118 174 119
f 118 173 174
f 119 174 175
f 119 175 120
f 120 175 176
f 120 176 177
f 120 177 121
f 121 177 122
f 122 177 123
f 123 177 178
f 123 178 179
f 123 179 180
f 123 180 124
f 124 180 126
f 124 126 125
f 126 180 181
f 126 181 182
f 126 182 184
f 126 184 127
f 127 183 129
f 127 129 128
f 127 184 185
f 127 185 183
f 129 183 130
f 130 183 185
f 130 185 186
f 130 186 187
f 130 187 132
f 132 187 188
f 132 188 133
f 133 188 189
f 133 189 190
f 133 190 191
f 133 191 144
f 133 144 134
f 134 144 192
f 134 192 135
f 135 192 144
f 135 144 136
f 137 138 193
f 137 193 194
f 137 194 195
f 137 195 196
f 137 196 139
f 138 143 147
f 138 147 193
f 139 196 197
f 139 197 198
f 139 198 199
f 139 199 200
f 139 200 140
f 140 200 201
f 140 201 141
f 141 202 142
f 141 201 202
f 142 202 148
f 144 191 203
f 144 203 204
f 144 204 145
f 145 204 205
f 145 205 146
f 146 193 147
f 146 205 206
f 146 206 193
f 148 202 149
f 149 207 150
f 149 202 207
f 150 207 208
f 150 208 209
f 150 209 151
f 151 209 210
f 151 210 154
f 152 211 153
f 152 154 212
f 152 212 213
f 152 213 214
f 152 214 211
f 153 211 155
f 154 215 212
f 154 210 216
f 154 216 215
f 155 214 217
f 155 217 218
f 155 218 219
f 155 219 220
f 155 220 221
f 155 221 222
f 155 222 156
f 155 211 214
f 156 222 157
f 157 222 223
f 157 223 224
f 157 224 158
f 158 224 225
f 158 225 226
f 158 226 159
f 159 226 161
f 161 226 227
f 161 227 228
f 161 228 163
f 163 228 164
f 164 228 227
f 164 227 229
f 164 229 230
f 164 230 231
f 164 231 232
f 164 232 165
f 165 232 233
f 165 233 166
f 166 233 232
f 166 232 234
f 166 234 167
f 167 234 235
f 167 235 168
f 168 235 236
f 168 236 169
f 169 236 237
f 169 237 238
f 169 238 170
f 170 238 239
f 170 239 171
f 171 240 172
f 171 239 240
f 172 240 241
f 172 241 173
f 173 241 242
f 173 242 174
f 174 243 244
f 174 244 245
f 174 245 246
f 174 246 175
f 174 242 243
f 175 246 247
f 175 247 176
f 176 248 177
f 176 247 249
f 176 249 248
f 177 248 250
f 177 250 178
f 178 250 249
f 178 249 179
f 179 249 251
f 179 251 252
f 179 252 253
f 179 253 254
f 179 254 180
f 180 254 181
f 181 255 256
f 181 256 257
f 181 257 258
f 181 258 259
f 181 259 182
f 181 254 253
f 181 253 255
f 182 259 260
f 182 260 184
f 184 260 261
f 184 261 262
f 184 262 263
f 184 263 264
f 184 264 265
f 184 265 185
f 185 265 266
f 185 266 186
f 186 266 267
f 186 267 268
f 186 268 187
f 187 269 189
f 187 189 188
f 187 268 270
f 187 270 269
f 189 269 270
f 189 270 190
f 190 271 203
f 190 203 191
f 190 270 268
f 190 268 329
f 190 329 266
f 190 266 328
f 190 328 264
f 190 264 263
f 190 263 261
f 190 261 260
f 190 260 327
f 190 327 257
f 190 257 256
f 190 256 325
f 190 325 252
f 190 252 326
f 190 326 323
f 190 323 322
f 190 322 373
f 190 373 372
f 190 372 413
f 190 413 444
f 190 444 472
f 190 472 471
f 190 471 470
f 190 470 501
f 190 501 500
f 190 500 499
f 190 499 522
f 190 522 521
f 190 521 520
f 190 520 519
f 190 519 518
f 190 518 540
f 190 540 525
f 190 525 524
f 190 524 504
f 190 504 503
f 190 503 474
f 190 474 446
f 190 446 416
f 190 416 414
f 190 414 374
f 190 374 330
f 190 330 272
f 190 272 204
f 190 204 278
f 190 278 271
f 193 206 272
f 193 272 194
f 194 272 273
f 194 273 195
f 195 273 196
f 196 273 197
f 197 273 274
f 197 274 198
f 198 274 275
f 198 275 276
f 198 276 199
f 199 276 200
f 200 276 201
f 201 276 277
f 201 277 207
f 201 207 202
f 203 271 278
f 203 278 204
f 204 272 206
f 204 206 205
f 207 209 208
f 207 277 279
f 207 279 209
f 209 279 210
f 210 279 280
f 210 280 216
f 212 215 213
f 213 216 281
f 213 281 282
f 213 282 283
f 213 283 217
f 213 217 214
f 213 215 216
f 216 280 284
f 216 284 285
f 216 285 286
f 216 286 281
f 217 283 218
f 218 283 219
f 219 283 287
f 219 287 288
f 219 288 289
f 219 289 290
f 219 290 291
f 219 291 220
f 220 292 293
f 220 293 221
f 220 291 292
f 221 293 223
f 221 223 222
f 223 293 294
f 223 294 224
f 224 294 295
f 224 295 225
f 225 227 226
f 225 295 227
f 227 295 296
f 227 296 297
f 227 297 298
f 227 298 299
f 227 299 229
f 229 299 230
f 230 300 301
f 230 301 302
f 230 302 303
f 230 303 304
f 230 304 231
f 230 299 300
f 231 304 232
f 232 304 303
f 232 303 305
f 232 305 234
f 234 305 306
f 234 306 235
f 235 306 307
f 235 307 308
f 235 308 236
f 236 308 237
f 237 308 309
f 237 309 239
f 237 239 310
f 237 310 238
f 238 310 239
f 239 309 240
f 240 309 311
f 240 311 312
f 240 312 241
f 241 313 314
f 241 314 315
f 241 315 242
f 241 312 316
f 241 316 317
f 241 317 318
f 241 318 313
f 242 315 319
f 242 319 244
f 242 244 243
f 244 319 320
f 244 320 245
f 245 320 246
f 246 320 321
f 246 321 247
f 247 321 322
f 247 322 249
f 248 249 250
f 249 322 323
f 249 323 324
f 249 324 251
f 251 324 252
f 252 325 253
f 252 324 326
f 253 325 255
f 255 325 256
f 257 327 258
f 258 327 259
f 259 327 260
f 261 263 262
f 264 328 265
f 265 328 266
f 266 329 267
f 267 329 268
f 272 330 273
f 273 330 331
f 273 331 274
f 274 331 332
f 274 332 333
f 274 333 334
f 274 334 335
f 274 335 275
f 275 335 336
f 275 336 277
f 275 277 276
f 277 336 279
f 279 336 337
f 279 337 280
f 280 337 284
f 281 286 282
f 282 286 285
f 282 285 338
f 282 338 339
f 282 339 340
f 282 340 288
f 282 288 287
f 282 287 283
f 284 337 341
f 284 341 285
f 285 341 342
f 285 342 343
f 285 343 338
f 288 340 289
f 289 344 345
f 289 345 290
f 289 340 346
f 289 346 347
f 289 347 348
f 289 348 349
f 289 349 344
f 290 345 350
f 290 350 351
f 290 351 291
f 291 351 292
f 292 352 293
f 292 351 352
f 293 352 294
f 294 352 296
f 294 296 295
f 296 352 353
f 296 353 297
f 297 353 354
f 297 354 355
f 297 355 356
f 297 356 357
f 297 357 300
f 297 300 298
f 298 300 299
f 300 357 301
f 301 356 358
f 301 358 359
f 301 359 360
f 301 360 361
f 301 361 362
f 301 362 302
f 301 357 356
f 302 362 303
f 303 362 361
f 303 361 363
f 303 363 364
f 303 364 305
f 305 364 365
f 305 365 306
f 306 365 308
f 306 308 307
f 308 365 366
f 308 366 309
f 309 366 367
f 309 367 311
f 311 367 312
f 312 367 316
f 313 318 368
f 313 368 369
f 313 369 314
f 314 369 315
f 315 369 319
f 316 367 370
f 316 370 317
f 317 370 371
f 317 371 318
f 318 371 368
f 319 369 372
f 319 372 320
f 320 372 373
f 320 373 321
f 321 373 322
f 323 326 324
f 330 374 331
f 331 375 415
f 331 415 445
f 331 445 473
f 331 473 502
f 331 502 523
f 331 523 541
f 331 541 546
f 331 546 545
f 331 545 544
f 331 544 543
f 331 543 542
f 331 542 556
f 331 556 555
f 331 555 554
f 331 554 539
f 331 539 517
f 331 517 498
f 331 498 469
f 331 469 443
f 331 443 442
f 331 442 468
f 331 468 497
f 331 497 494
f 331 494 516
f 331 516 538
f 331 538 537
f 331 537 553
f 331 553 548
f 331 548 547
f 331 547 528
f 331 528 526
f 331 526 506
f 331 506 478
f 331 478 505
f 331 505 475
f 331 475 451
f 331 451 447
f 331 447 417
f 331 417 376
f 331 376 332
f 331 374 375
f 332 376 333
f 333 377 334
f 333 376 378
f 333 378 379
f 333 379 377
f 334 377 380
f 334 380 381
f 334 381 335
f 335 381 336
f 336 381 337
f 337 381 341
f 338 343 339
f 339 382 383
f 339 383 384
f 339 384 347
f 339 347 346
f 339 346 340
f 339 343 382
f 341 381 380
f 341 380 342
f 342 380 385
f 342 385 386
f 342 386 382
f 342 382 343
f 344 387 345
f 344 349 388
f 344 388 389
f 344 389 387
f 345 387 350
f 347 384 390
f 347 390 391
f 347 391 348
f 348 392 388
f 348 388 349
f 348 391 393
f 348 393 392
f 350 394 395
f 350 395 351
f 350 387 396
f 350 396 394
f 351 395 352
f 352 395 353
f 353 395 354
f 354 394 397
f 354 397 355
f 354 395 394
f 355 358 356
f 355 397 398
f 355 398 399
f 355 399 400
f 355 400 401
f 355 401 359
f 355 359 358
f 359 401 402
f 359 402 403
f 359 403 404
f 359 404 405
f 359 405 360
f 360 405 361
f 361 405 406
f 361 406 407
f 361 407 363
f 363 407 408
f 363 408 364
f 364 408 365
f 365 408 409
f 365 409 366
f 366 409 410
f 366 410 370
f 366 370 367
f 368 371 411
f 368 411 412
f 368 412 369
f 369 413 372
f 369 412 413
f 370 410 371
f 371 410 411
f 374 414 375
f 375 414 416
f 375 416 415
f 376 417 378
f 377 385 380
f 377 379 418
f 377 418 385
f 378 417 419
f 378 419 379
f 379 419 418
f 382 386 383
f 383 386 420
f 383 420 421
f 383 421 422
f 383 422 390
f 383 390 384
f 385 418 423
f 385 423 386
f 386 423 420
f 387 389 396
f 388 424 426
f 388 426 389
f 388 392 425
f 388 425 424
f 389 426 396
f 390 427 391
f 390 422 428
f 390 428 427
f 391 427 393
f 392 393 430
f 392 430 425
f 393 427 429
f 393 429 458
f 393 458 430
f 394 396 397
f 396 426 398
f 396 398 397
f 398 426 424
f 398 424 399
f 399 424 400
f 400 424 425
f 400 425 430
f 400 430 431
f 400 431 401
f 401 431 432
f 401 432 402
f 402 432 403
f 403 432 433
f 403 433 434
f 403 434 435
f 403 435 436
f 403 436 404
f 404 406 405
f 404 436 406
f 406 436 437
f 406 437 438
f 406 438 407
f 407 438 439
f 407 439 408
f 408 439 409
f 409 439 410
f 410 439 411
f 411 439 438
f 411 438 440
f 411 440 441
f 411 441 412
f 412 441 442
f 412 442 443
f 412 443 413
f 413 443 444
f 415 416 445
f 416 446 445
f 417 447 419
f 418 419 448
f 418 448 449
f 418 449 450
f 418 450 423
f 419 447 451
f 419 451 448
f 420 423 421
f 421 450 452
f 421 452 453
f 421 453 454
f 421 454 422
f 421 423 450
f 422 454 428
f 427 428 455
f 427 455 429
f 428 454 456
f 428 456 455
f 429 455 457
f 429 457 458
f 430 459 431
f 430 458 459
f 431 459 432
f 432 459 460
f 432 460 433
f 433 460 461
f 433 461 434
f 434 461 462
f 434 462 463
f 434 463 464
f 434 464 435
f 435 464 436
f 436 464 437
f 437 464 465
f 437 465 440
f 437 440 438
f 440 465 466
f 440 466 441
f 441 466 467
f 441 467 442
f 442 467 468
f 443 469 470
f 443 470 471
f 443 471 472
f 443 472 444
f 445 446 474
f 445 474 473
f 448 451 475
f 448 475 476
f 448 476 477
f 448 477 449
f 449 477 452
f 449 452 450
f 452 477 478
f 452 478 479
f 452 479 480
f 452 480 481
f 452 481 453
f 453 481 454
f 454 481 482
f 454 482 456
f 455 456 483
f 455 483 457
f 456 482 484
f 456 484 483
f 457 460 459
f 457 459 458
f 457 483 485
f 457 485 486
f 457 486 460
f 460 486 461
f 461 486 487
f 461 487 488
f 461 488 489
f 461 489 462
f 462 490 491
f 462 491 463
f 462 489 488
f 462 488 492
f 462 492 493
f 462 493 494
f 462 494 495
f 462 495 490
f 463 465 464
f 463 491 490
f 463 490 465
f 465 490 466
f 466 490 496
f 466 496 467
f 467 496 468
f 468 496 497
f 469 498 499
f 469 499 500
f 469 500 501
f 469 501 470
f 473 474 503
f 473 503 504
f 473 504 502
f 475 505 476
f 476 505 477
f 477 505 478
f 478 506 507
f 478 507 479
f 479 508 480
f 479 507 508
f 480 508 481
f 481 509 482
f 481 508 509
f 482 509 484
f 483 484 510
f 483 510 485
f 484 509 511
f 484 511 510
f 485 510 486
f 486 510 487
f 487 510 512
f 487 512 488
f 488 512 513
f 488 513 492
f 490 495 514
f 490 514 497
f 490 497 496
f 492 513 493
f 493 513 515
f 493 515 516
f 493 516 494
f 494 497 514
f 494 514 495
f 498 517 518
f 498 518 519
f 498 519 520
f 498 520 521
f 498 521 522
f 498 522 499
f 502 504 524
f 502 524 525
f 502 525 523
f 506 526 507
f 507 526 508
f 508 527 509
f 508 526 528
f 508 528 529
f 508 529 530
f 508 530 527
f 509 527 530
f 509 530 531
f 509 531 511
f 510 511 532
f 510 532 512
f 511 531 532
f 512 532 533
f 512 533 534
f 512 534 535
f 512 535 513
f 513 535 534
f 513 534 536
f 513 536 537
f 513 537 515
f 515 537 538
f 515 538 516
f 517 539 540
f 517 540 518
f 523 525 541
f 525 540 542
f 525 542 543
f 525 543 544
f 525 544 545
f 525 545 546
f 525 546 541
f 528 547 529
f 529 547 548
f 529 548 549
f 529 549 530
f 530 549 550
f 530 550 531
f 531 550 551
f 531 551 533
f 531 533 532
f 533 551 534
f 534 551 552
f 534 552 536
f 536 552 553
f 536 553 537
f 539 554 540
f 540 554 555
f 540 555 556
f 540 556 542
f 548 553 552
f 548 552 549
f 549 552 550
f 550 552 551
