v 0.19246405 -0.33039954 0.54664713
v 0.58351845 -0.33039954 0.47165883
v 0.19246405 -0.33039954 0.69115603
v 0.19246405 0.24993011 0.55708760
v 0.58351845 0.22993922 0.47932833
v 0.58351845 -0.33039954 0.63454992
v 0.20957460 -0.33039954 0.69325900
v 0.19246405 -0.32990471 0.69125503
v 0.19246405 0.26675412 0.55740917
v 0.58351845 0.24587256 0.47962523
v 0.57632208 -0.33039954 0.63779092
v 0.58351845 -0.32990471 0.63464886
v 0.57574785 -0.32990471 0.63816202
v 0.21003394 -0.33039954 0.69330847
v 0.21003394 -0.32990471 0.69338268
v 0.21003394 -0.30991381 0.69635153
v 0.19246405 -0.30991381 0.69419914
v 0.19246405 0.28644812 0.55785453
v 0.58351845 0.26992100 0.48016953
v 0.57532680 -0.33039954 0.63823622
v 0.58351845 -0.31238794 0.63754350
v 0.57850397 -0.31555483 0.63934958
v 0.56575716 -0.32990471 0.64246684
v 0.56564236 -0.33039954 0.64241737
v 0.23001538 -0.33039954 0.69523823
v 0.23001538 -0.32990471 0.69531244
v 0.23085751 -0.30872625 0.69852871
v 0.22473294 -0.29625669 0.69956779
v 0.21018706 -0.28972501 0.69882560
v 0.19246405 -0.28992292 0.69664842
v 0.58351845 0.28743777 0.48063958
v 0.19246405 0.30990279 0.55849779
v 0.58351845 -0.30476764 0.63865685
v 0.58068585 -0.30219457 0.64031446
v 0.57111615 -0.30932003 0.64340699
v 0.54998636 -0.30991381 0.65196717
v 0.54998636 -0.32990471 0.64887464
v 0.55002463 -0.33039954 0.64877570
v 0.24953748 -0.33039954 0.69664842
v 0.25003511 -0.32990471 0.69677210
v 0.25003511 -0.31397137 0.69919670
v 0.23805389 -0.30120492 0.70016158
v 0.23085751 -0.28972501 0.70082957
v 0.21692410 -0.28289643 0.70030999
v 0.20360313 -0.27577096 0.69959253
v 0.19246405 -0.28734985 0.69694531
v 0.19246405 0.31168416 0.55854726
v 0.58351845 0.28991190 0.48071381
v 0.58351845 -0.29922563 0.63939905
v 0.58351845 -0.28992292 0.64058656
v 0.58240837 -0.28992292 0.64108139
v 0.56996781 -0.28992292 0.64642531
v 0.53417730 -0.30991381 0.65792966
v 0.54998636 -0.28992292 0.65454018
v 0.53777552 -0.28992292 0.65919137
v 0.52889484 -0.32990471 0.65676683
v 0.52893311 -0.33039954 0.65666789
v 0.25003511 -0.33039954 0.69667315
v 0.27001655 -0.32990471 0.69766277
v 0.27001655 -0.31723723 0.69961727
v 0.27001655 -0.30724177 0.70097798
v 0.25003511 -0.30397594 0.70053267
v 0.25003511 -0.28992292 0.70219028
v 0.25003511 -0.26993203 0.70421898
v 0.23001538 -0.26993203 0.70275933
v 0.21018706 -0.26943722 0.70090377
v 0.19832069 -0.26250967 0.70021105
v 0.19246405 -0.26805171 0.69889981
v 0.19246405 0.32999265 0.55914104
v 0.58351845 0.30990279 0.48135707
v 0.58351845 -0.28824052 0.64078450
v 0.58351845 -0.28111506 0.64157617
v 0.58351845 -0.27181238 0.64259052
v 0.56996781 -0.26993203 0.64860249
v 0.52418661 -0.30991381 0.66146749
v 0.52150708 -0.32317510 0.66052735
v 0.54876149 -0.27111962 0.65703899
v 0.53961289 -0.27854198 0.65985936
v 0.52778476 -0.28992292 0.66272926
v 0.51970798 -0.33039954 0.65990889
v 0.27001655 -0.33039954 0.69756383
v 0.29003626 -0.32990471 0.69795966
v 0.29003626 -0.31842479 0.69979048
v 0.28953862 -0.33039954 0.69786072
v 0.29003626 -0.30842936 0.70112646
v 0.29003626 -0.28992292 0.70337784
v 0.27001655 -0.28992292 0.70308095
v 0.27001655 -0.26993203 0.70510966
v 0.25003511 -0.24994114 0.70592612
v 0.23001538 -0.24994114 0.70446640
v 0.21003394 -0.24994114 0.70253664
v 0.19464594 -0.24994114 0.70073062
v 0.19246405 -0.24994114 0.70043373
v 0.19246405 0.34998354 0.55990797
v 0.58351845 0.32999265 0.48212403
v 0.58351845 -0.26993203 0.64278847
v 0.56996781 -0.24994114 0.65040851
v 0.55301034 -0.24994114 0.65728641
v 0.50998521 -0.30991381 0.66621768
v 0.50998521 -0.28992292 0.66874123
v 0.51094216 -0.32990471 0.66290247
v 0.54129714 -0.26518172 0.66047788
v 0.53176576 -0.27111962 0.66332304
v 0.50998521 -0.26993203 0.67084414
v 0.51155466 -0.33039954 0.66260558
v 0.31001770 -0.32990471 0.69766277
v 0.29003626 -0.33039954 0.69786072
v 0.30952007 -0.33039954 0.69758856
v 0.31001770 -0.31733617 0.69964200
v 0.31001770 -0.30734074 0.70097798
v 0.31001770 -0.28992292 0.70308095
v 0.29003626 -0.26993203 0.70540655
v 0.27001655 -0.24994114 0.70681673
v 0.25003511 -0.22995025 0.70736104
v 0.23001538 -0.22995025 0.70592612
v 0.21003394 -0.22995025 0.70399636
v 0.19246405 -0.24281567 0.70095325
v 0.19246405 0.35651523 0.56018013
v 0.19246405 0.36997443 0.56077391
v 0.19246405 0.38808501 0.56159031
v 0.58351845 0.34998354 0.48303941
v 0.58351845 -0.24994114 0.64456981
v 0.58351845 -0.23549229 0.64568311
v 0.56996781 -0.22995025 0.65194243
v 0.55492431 -0.22995025 0.65805334
v 0.54298139 -0.24994114 0.66114587
v 0.48996550 -0.30991381 0.67245227
v 0.48996550 -0.28992292 0.67495108
v 0.48996550 -0.33039954 0.66935968
v 0.52996665 -0.24994114 0.66579711
v 0.50998521 -0.24994114 0.67260075
v 0.49298951 -0.24994114 0.67791992
v 0.48862574 -0.27003101 0.67744982
v 0.32950151 -0.33039954 0.69674742
v 0.33003742 -0.33039954 0.69672263
v 0.33003742 -0.31416932 0.69919670
v 0.33003742 -0.30417386 0.70055741
v 0.33003742 -0.28992292 0.70223975
v 0.31001770 -0.26993203 0.70510966
v 0.29003626 -0.24994114 0.70711362
v 0.27001655 -0.22995025 0.70825171
v 0.25003511 -0.20995936 0.70867229
v 0.23001538 -0.20995936 0.70721257
v 0.21003394 -0.20995936 0.70528287
v 0.19246405 -0.20995936 0.70315516
v 0.19246405 -0.22688234 0.70204186
v 0.58351845 0.36997443 0.48407853
v 0.19246405 0.39135081 0.56176353
v 0.58351845 -0.22995025 0.64610368
v 0.56996781 -0.20995936 0.65322894
v 0.55660856 -0.20995936 0.65869659
v 0.54493356 -0.22995025 0.66186339
v 0.52996665 -0.22995025 0.66728151
v 0.46952471 -0.31100243 0.67801887
v 0.46998405 -0.32990471 0.67505002
v 0.47603208 -0.28992292 0.67895901
v 0.47882640 -0.27666163 0.67967647
v 0.46998405 -0.33039954 0.67495108
v 0.50998521 -0.22995025 0.67406040
v 0.49551588 -0.22995025 0.67866212
v 0.48299879 -0.24994114 0.68088877
v 0.48108485 -0.26340035 0.68031973
v 0.35001886 -0.33039954 0.69533718
v 0.35001886 -0.32990471 0.69543612
v 0.34940639 -0.30882519 0.69860291
v 0.34232485 -0.30140284 0.70018631
v 0.34940639 -0.29002190 0.70087904
v 0.35001886 -0.26993203 0.70288301
v 0.33003742 -0.26993203 0.70426846
v 0.31001770 -0.24994114 0.70679200
v 0.31001770 -0.22995025 0.70825171
v 0.29003626 -0.22995025 0.70854861
v 0.27001655 -0.20995936 0.70953822
v 0.25003511 -0.18996847 0.70985985
v 0.23001538 -0.18996847 0.70840013
v 0.21003394 -0.18996847 0.70647037
v 0.19246405 -0.20748523 0.70330358
v 0.19246405 0.40748209 0.56267893
v 0.19246405 0.40995622 0.56282735
v 0.58351845 0.38996533 0.48529080
v 0.58351845 -0.21025625 0.64736545
v 0.58351845 -0.19640118 0.64818192
v 0.58351845 -0.18996847 0.64855301
v 0.56996781 -0.18996847 0.65434229
v 0.55802488 -0.18996847 0.65924090
v 0.54657960 -0.20995936 0.66250658
v 0.54803419 -0.18996847 0.66305089
v 0.52996665 -0.20995936 0.66854328
v 0.50998521 -0.20995936 0.67534691
v 0.45899808 -0.31832582 0.67977548
v 0.46255800 -0.30496559 0.68066609
v 0.45501712 -0.32990471 0.67883533
v 0.46940988 -0.33039954 0.67509949
v 0.46604136 -0.28992292 0.68158150
v 0.47128552 -0.27003101 0.68229896
v 0.49765950 -0.20995936 0.67928064
v 0.48766878 -0.20995936 0.68227422
v 0.48552519 -0.22995025 0.68163097
v 0.46998405 -0.24994114 0.68440193
v 0.46998405 -0.22995025 0.68591106
v 0.36950266 -0.33039954 0.69343215
v 0.37000030 -0.32990471 0.69348168
v 0.37000030 -0.30991381 0.69645047
v 0.35568410 -0.29675150 0.69961727
v 0.36345464 -0.28339124 0.70035946
v 0.37007686 -0.26963514 0.70097798
v 0.37000030 -0.24994114 0.70266038
v 0.35001886 -0.24994114 0.70456535
v 0.33003742 -0.24994114 0.70595086
v 0.33003742 -0.22995025 0.70738578
v 0.33003742 -0.20995936 0.70867229
v 0.31001770 -0.20995936 0.70951349
v 0.29003626 -0.20995936 0.70983511
v 0.27001655 -0.18996847 0.71072572
v 0.27001655 -0.16997758 0.71183908
v 0.25003511 -0.16997758 0.71094841
v 0.23001538 -0.16997758 0.70948875
v 0.21003394 -0.16997758 0.70758373
v 0.19246405 -0.18996847 0.70434272
v 0.19246405 0.42994711 0.56411386
v 0.58351845 0.40965933 0.48665154
v 0.58351845 -0.17641029 0.64927047
v 0.56996781 -0.16997758 0.65535665
v 0.55997705 -0.15988317 0.65998310
v 0.55932635 -0.16997758 0.65973568
v 0.54933560 -0.16997758 0.66357046
v 0.52996665 -0.18996847 0.66968131
v 0.50814784 -0.18897882 0.67710346
v 0.49911410 -0.19491673 0.67972594
v 0.45141894 -0.31100243 0.68249691
v 0.44483501 -0.33039954 0.68111145
v 0.44996434 -0.28992292 0.68546575
v 0.45482573 -0.33039954 0.67878580
v 0.44996434 -0.26993203 0.68754393
v 0.44996434 -0.24994114 0.68932527
v 0.49145836 -0.18897882 0.68232369
v 0.46998405 -0.18996847 0.68836039
v 0.46998405 -0.20995936 0.68719757
v 0.44996434 -0.20995936 0.69214565
v 0.44996434 -0.22995025 0.69083440
v 0.37000030 -0.33039954 0.69338268
v 0.38998175 -0.32990471 0.69098288
v 0.38948411 -0.33039954 0.69095814
v 0.38998175 -0.30991381 0.69395173
v 0.37007686 -0.29002190 0.69889981
v 0.37677562 -0.27606785 0.69961727
v 0.38190496 -0.26280656 0.70026052
v 0.38573280 -0.24994114 0.70078009
v 0.37000030 -0.22995025 0.70409530
v 0.35001886 -0.22995025 0.70602506
v 0.35001886 -0.20995936 0.70728683
v 0.33003742 -0.18996847 0.70985985
v 0.31001770 -0.18996847 0.71070099
v 0.29003626 -0.18996847 0.71099788
v 0.29003626 -0.16997758 0.71211123
v 0.29003626 -0.14998668 0.71317506
v 0.27001655 -0.14998668 0.71287817
v 0.25003511 -0.14998668 0.71198750
v 0.23001538 -0.14998668 0.71055257
v 0.21003394 -0.14998668 0.70862281
v 0.19246405 -0.14998668 0.70649511
v 0.19246405 -0.16750345 0.70557976
v 0.19246405 0.44993800 0.56557357
v 0.58351845 0.42994711 0.48823491
v 0.58351845 -0.16997758 0.64959210
v 0.58351845 -0.15641940 0.65023535
v 0.56843668 -0.15186703 0.65686578
v 0.56074268 -0.14652291 0.66030473
v 0.55197686 -0.15186703 0.66342199
v 0.54998636 -0.12999579 0.66517860
v 0.52996665 -0.14998668 0.67163587
v 0.52996665 -0.16997758 0.67067099
v 0.51113355 -0.16997758 0.67710346
v 0.50026244 -0.18165544 0.68007231
v 0.42998290 -0.30991381 0.68717283
v 0.42948526 -0.33039954 0.68422872
v 0.42998290 -0.32990471 0.68420398
v 0.42998290 -0.28992292 0.68967164
v 0.42998290 -0.26993203 0.69174981
v 0.42998290 -0.24994114 0.69350636
v 0.48996550 -0.16997758 0.68373394
v 0.46998405 -0.16997758 0.68939948
v 0.44996434 -0.18996847 0.69330847
v 0.44996434 -0.16997758 0.69437230
v 0.42998290 -0.18996847 0.69751436
v 0.42998290 -0.20995936 0.69632679
v 0.42998290 -0.22995025 0.69501555
v 0.40996319 -0.32990471 0.68786556
v 0.38998175 -0.33039954 0.69088387
v 0.40996319 -0.30991381 0.69083440
v 0.40996319 -0.28992292 0.69330847
v 0.38998175 -0.28992292 0.69640100
v 0.38910133 -0.26963514 0.69860291
v 0.39568526 -0.24994114 0.69939464
v 0.39901549 -0.23806536 0.69986469
v 0.39139804 -0.23084095 0.70139861
v 0.37000030 -0.20995936 0.70540655
v 0.35001886 -0.18996847 0.70847434
v 0.33003742 -0.16997758 0.71097314
v 0.31001770 -0.16997758 0.71181434
v 0.31001770 -0.14998668 0.71287817
v 0.29003626 -0.12999579 0.71416467
v 0.27001655 -0.12999579 0.71386778
v 0.25003511 -0.12999579 0.71297711
v 0.23001538 -0.12999579 0.71151745
v 0.21003394 -0.12999579 0.70958769
v 0.19246405 -0.12999579 0.70748472
v 0.19246405 -0.14751256 0.70661885
v 0.19246405 0.46992889 0.56723118
v 0.58351845 0.45023489 0.49006569
v 0.58351845 -0.15058047 0.65050751
v 0.57161379 -0.12999579 0.65651941
v 0.56372839 -0.08991504 0.66154176
v 0.54998636 -0.08991504 0.66695988
v 0.52996665 -0.12999579 0.67255121
v 0.52996665 -0.08991504 0.67438203
v 0.51408100 -0.12999579 0.67804360
v 0.51691365 -0.08991504 0.67895901
v 0.51262641 -0.14998668 0.67757356
v 0.50114286 -0.16997758 0.68036920
v 0.50263572 -0.14998668 0.68086404
v 0.48996550 -0.14998668 0.68472356
v 0.40996319 -0.33039954 0.68776661
v 0.40996319 -0.26993203 0.69538665
v 0.40996319 -0.24994114 0.69711852
v 0.46998405 -0.14998668 0.69041383
v 0.43407869 -0.14998668 0.69885033
v 0.44996434 -0.14998668 0.69538665
v 0.42910248 -0.17195687 0.69865239
v 0.42186782 -0.16661277 0.70035946
v 0.41999218 -0.17997304 0.69998837
v 0.41830793 -0.18996847 0.69971621
v 0.41474801 -0.20995936 0.69912249
v 0.40915933 -0.23084095 0.69867712
v 0.40192467 -0.22470513 0.70030999
v 0.38998175 -0.20995936 0.70293248
v 0.37000030 -0.18996847 0.70659411
v 0.35001886 -0.16997758 0.70958769
v 0.33003742 -0.14998668 0.71201223
v 0.31001770 -0.12999579 0.71386778
v 0.29003626 -0.10990593 0.71510482
v 0.27001655 -0.10990593 0.71480793
v 0.25003511 -0.10990593 0.71389252
v 0.23001538 -0.10990593 0.71245760
v 0.21003394 -0.10990593 0.71052784
v 0.19246405 -0.10990593 0.70842487
v 0.19246405 0.48991978 0.56908667
v 0.58351845 0.46992889 0.49209443
v 0.58351845 -0.12999579 0.65142292
v 0.57371914 -0.08991504 0.65738535
v 0.56468534 -0.06992416 0.66193759
v 0.54998636 -0.06992416 0.66777635
v 0.52996665 -0.06992416 0.67524797
v 0.51821512 -0.06992416 0.67940432
v 0.50550663 -0.10990593 0.68180418
v 0.50692290 -0.08991504 0.68227422
v 0.48996550 -0.12999579 0.68568844
v 0.48996550 -0.08991504 0.68756866
v 0.46998405 -0.12999579 0.69137871
v 0.42408800 -0.14998668 0.70078009
v 0.43652853 -0.12999579 0.69932038
v 0.44996434 -0.12999579 0.69635153
v 0.40996319 -0.14998668 0.70322937
v 0.41199195 -0.17195687 0.70176971
v 0.40827891 -0.18996847 0.70137388
v 0.40475729 -0.20995936 0.70078009
v 0.38998175 -0.18996847 0.70412004
v 0.38998175 -0.16997758 0.70523334
v 0.37000030 -0.16997758 0.70768267
v 0.35001886 -0.14998668 0.71062678
v 0.33003742 -0.12999579 0.71300185
v 0.31001770 -0.10990593 0.71480793
v 0.29003626 -0.08991504 0.71599543
v 0.27001655 -0.08991504 0.71569860
v 0.25003511 -0.08991504 0.71478319
v 0.23001538 -0.08991504 0.71334821
v 0.21003394 -0.08991504 0.71144319
v 0.19246405 -0.08991504 0.70934027
v 0.19246405 0.50991070 0.57121438
v 0.58351845 0.48991978 0.49439529
v 0.58351845 -0.08991504 0.65315473
v 0.57467610 -0.06992416 0.65778118
v 0.56552750 -0.04993327 0.66230869
v 0.54998636 -0.04993327 0.66851854
v 0.52996665 -0.04993327 0.67599016
v 0.51993763 -0.03944300 0.67997336
v 0.51936346 -0.04993327 0.67977548
v 0.50937277 -0.04993327 0.68309069
v 0.50818610 -0.06992416 0.68269479
v 0.48996550 -0.06992416 0.68843460
v 0.46998405 -0.08991504 0.69323426
v 0.42653781 -0.12999579 0.70125014
v 0.40996319 -0.10990593 0.70508492
v 0.40996319 -0.12999579 0.70416951
v 0.44001189 -0.10010841 0.69998837
v 0.43105471 -0.10802561 0.70137388
v 0.44801211 -0.10802561 0.69781125
v 0.45099786 -0.08991504 0.69793493
v 0.38998175 -0.14998668 0.70627248
v 0.38998175 -0.12999579 0.70723736
v 0.37000030 -0.14998668 0.70872176
v 0.35001886 -0.12999579 0.71161640
v 0.33003742 -0.10990593 0.71394199
v 0.31001770 -0.08991504 0.71567380
v 0.29003626 -0.06992416 0.71681190
v 0.27001655 -0.06992416 0.71651500
v 0.25003511 -0.06992416 0.71562433
v 0.23001538 -0.06992416 0.71416467
v 0.21003394 -0.06992416 0.71228439
v 0.19246405 -0.06992416 0.71020621
v 0.19246405 0.52752638 0.57339156
v 0.19246405 0.52990156 0.57368839
v 0.58351845 0.51109827 0.49706724
v 0.58351845 -0.06992416 0.65392166
v 0.57555652 -0.04993327 0.65812755
v 0.56633133 -0.02994238 0.66263032
v 0.54998636 -0.02994238 0.66918653
v 0.52832067 -0.03162478 0.67722720
v 0.52123916 -0.00995149 0.68044341
v 0.50998521 0.01003942 0.68482250
v 0.50998521 -0.00995149 0.68420398
v 0.51193744 -0.03162478 0.68286800
v 0.48996550 -0.00995149 0.69056225
v 0.48996550 -0.02994238 0.68989432
v 0.48996550 -0.04993327 0.68920153
v 0.46998405 -0.06992416 0.69407541
v 0.45283523 -0.06992416 0.69835550
v 0.42998290 -0.08991504 0.70236349
v 0.40996319 -0.08991504 0.70597559
v 0.44100714 -0.08991504 0.70021105
v 0.37000030 -0.10990593 0.71060205
v 0.37000030 -0.12999579 0.70968664
v 0.38998175 -0.08991504 0.70901865
v 0.35001886 -0.10990593 0.71253181
v 0.33003742 -0.08991504 0.71480793
v 0.31001770 -0.06992416 0.71649027
v 0.29003626 -0.04993327 0.71757883
v 0.27001655 -0.04993327 0.71728194
v 0.25003511 -0.04993327 0.71639132
v 0.23001538 -0.04993327 0.71495634
v 0.21003394 -0.04993327 0.71307611
v 0.19246405 -0.04993327 0.71102262
v 0.19246405 0.54751730 0.57621193
v 0.19246405 0.54989243 0.57655829
v 0.58351845 0.52990156 0.49996188
v 0.58351845 -0.04993327 0.65463912
v 0.57632208 -0.02994238 0.65844917
v 0.56702036 -0.00995149 0.66292721
v 0.54998636 -0.00995149 0.66980505
v 0.53122985 -0.00995149 0.67685604
v 0.52208126 0.01003942 0.68074030
v 0.48996550 0.01003942 0.69115603
v 0.50998521 0.03003031 0.68536681
v 0.46998405 -0.00995149 0.69620311
v 0.46998405 -0.02994238 0.69555986
v 0.46998405 0.01003942 0.69682163
v 0.46998405 -0.04993327 0.69484240
v 0.45448121 -0.04993327 0.69872665
v 0.44449049 -0.04993327 0.70100272
v 0.44280624 -0.06992416 0.70063162
v 0.42998290 -0.06992416 0.70317990
v 0.40996319 -0.06992416 0.70676726
v 0.37000030 -0.08991504 0.71146798
v 0.38998175 -0.06992416 0.70981038
v 0.37000030 -0.06992416 0.71228439
v 0.35001886 -0.08991504 0.71339774
v 0.33003742 -0.06992416 0.71562433
v 0.31001770 -0.04993327 0.71725720
v 0.27001655 -0.02994238 0.71799946
v 0.31001770 -0.02994238 0.71797466
v 0.29003626 -0.00995149 0.71896434
v 0.25003511 -0.02994238 0.71710879
v 0.23001538 -0.02994238 0.71567380
v 0.21003394 -0.02994238 0.71381831
v 0.19246405 -0.02746825 0.71186382
v 0.19246405 0.56641960 0.57927978
v 0.58351845 0.54999143 0.50322759
v 0.58351845 -0.02994238 0.65528238
v 0.58351845 -0.01945210 0.65560400
v 0.57701111 -0.00995149 0.65874606
v 0.56767106 0.01003942 0.66322410
v 0.54998636 0.01003942 0.67037410
v 0.53207195 0.01003942 0.67715293
v 0.52284682 0.03003031 0.68101245
v 0.48996550 0.03003031 0.69170034
v 0.50998521 0.05002119 0.68588632
v 0.45964882 0.02310276 0.69991416
v 0.45880669 0.01003942 0.69971621
v 0.45746696 -0.00995149 0.69941938
v 0.45601237 -0.02994238 0.69909775
v 0.47101757 0.05002119 0.69761330
v 0.46818495 0.02983238 0.69783598
v 0.44602165 -0.02994238 0.70134914
v 0.42998290 -0.00995149 0.70530760
v 0.42998290 -0.02994238 0.70463961
v 0.42998290 -0.04993327 0.70394683
v 0.40996319 -0.04993327 0.70753419
v 0.38998175 -0.04993327 0.71055257
v 0.37000030 -0.04993327 0.71300185
v 0.35001886 -0.04993327 0.71495634
v 0.35001886 -0.06992416 0.71421415
v 0.33003742 -0.04993327 0.71636659
v 0.27001655 -0.00995149 0.71869218
v 0.33003742 -0.02994238 0.71708405
v 0.31905144 0.04111436 0.71995395
v 0.31001770 0.01003942 0.71931070
v 0.29003626 0.01003942 0.71963233
v 0.25003511 -0.00995149 0.71780151
v 0.23001538 -0.00995149 0.71636659
v 0.21003394 -0.00995149 0.71451104
v 0.19246405 -0.00995149 0.71248233
v 0.58351845 0.55117899 0.50342554
v 0.19246405 0.57314920 0.58051676
v 0.58351845 0.56998229 0.50686449
v 0.58351845 -0.00995149 0.65587616
v 0.57770008 0.01003942 0.65901822
v 0.56828356 0.03003031 0.66349626
v 0.54998636 0.03003031 0.67091835
v 0.53283757 0.03003031 0.67742509
v 0.52357411 0.05002119 0.68125987
v 0.48996550 0.05002119 0.69221991
v 0.50998521 0.07001209 0.68635643
v 0.46033785 0.03636405 0.70008737
v 0.44996434 0.05002119 0.70280880
v 0.45176342 0.02983238 0.70186865
v 0.44881597 0.01003942 0.70199239
v 0.44747624 -0.00995149 0.70169550
v 0.46102685 0.05002119 0.70026052
v 0.47189799 0.07001209 0.69783598
v 0.42998290 0.01003942 0.70592612
v 0.40996319 -0.00995149 0.70887023
v 0.40996319 -0.02994238 0.70822698
v 0.38998175 -0.02994238 0.71124530
v 0.37000030 -0.02994238 0.71369457
v 0.35001886 -0.02994238 0.71564907
v 0.27376783 0.03359304 0.72017658
v 0.27001655 0.01003942 0.71933544
v 0.26040861 0.04052058 0.71997869
v 0.33003742 -0.00995149 0.71775204
v 0.31143400 0.04873465 0.72042400
v 0.31143400 0.02834789 0.71983021
v 0.33003742 0.01003942 0.71839529
v 0.33003742 0.03003031 0.71901381
v 0.32261136 0.05447461 0.72015184
v 0.31001770 0.09000298 0.72158682
v 0.30573049 0.03388993 0.72017658
v 0.29003626 0.02062865 0.71997869
v 0.25003511 0.01003942 0.71844476
v 0.23001538 0.01003942 0.71700978
v 0.21003394 0.01003942 0.71517903
v 0.19246405 0.01003942 0.71312559
v 0.19246405 0.57512844 0.58088785
v 0.19246405 0.58848870 0.58353513
v 0.58351845 0.58928049 0.51104558
v 0.58351845 0.01003942 0.65644521
v 0.57831252 0.03003031 0.65926564
v 0.56943190 0.07001209 0.66399103
v 0.54998636 0.07001209 0.67190796
v 0.53425384 0.07001209 0.67791992
v 0.53356481 0.05002119 0.67767251
v 0.52422488 0.07001209 0.68150729
v 0.48996550 0.07001209 0.69268996
v 0.52483732 0.09000298 0.68172991
v 0.50998521 0.09000298 0.68677700
v 0.42998290 0.05002119 0.70701468
v 0.42998290 0.03003031 0.70649511
v 0.44996434 0.07001209 0.70327890
v 0.42998290 0.07001209 0.70750952
v 0.46190727 0.07001209 0.70048320
v 0.44996434 0.09000298 0.70372421
v 0.47270185 0.09000298 0.69805861
v 0.40996319 0.03003031 0.71008247
v 0.40996319 0.01003942 0.70948875
v 0.38998175 0.01003942 0.71253181
v 0.37000030 -0.00995149 0.71436262
v 0.35001886 -0.00995149 0.71631706
v 0.26825571 0.02824894 0.71985495
v 0.29003626 0.03062409 0.72027552
v 0.29003626 0.07001209 0.72138888
v 0.27001655 0.09000298 0.72163630
v 0.27001655 0.07001209 0.72109199
v 0.25026476 0.04833880 0.71960759
v 0.25003511 0.03003031 0.71906328
v 0.25332707 0.07001209 0.72039926
v 0.31001770 0.07001209 0.72104251
v 0.35001886 0.01003942 0.71696031
v 0.33616200 0.07001209 0.71975601
v 0.33891806 0.08277855 0.71992922
v 0.32617128 0.07001209 0.72034979
v 0.33003742 0.11009283 0.72111672
v 0.31001770 0.11009283 0.72205687
v 0.29003626 0.11009283 0.72240323
v 0.29003626 0.09000298 0.72190845
v 0.23001538 0.03003031 0.71762836
v 0.21003394 0.03003031 0.71577281
v 0.19246405 0.03250442 0.71381831
v 0.19246405 0.03003031 0.71374404
v 0.19246405 0.60996413 0.58875537
v 0.58351845 0.59798932 0.51327223
v 0.58351845 0.03893714 0.65716267
v 0.57888675 0.05002119 0.65951300
v 0.57942259 0.07001209 0.65973568
v 0.57976711 0.08426302 0.65990889
v 0.57184345 0.09059677 0.66339725
v 0.56996781 0.11009283 0.66456008
v 0.54998636 0.11009283 0.67274916
v 0.54998636 0.09000298 0.67235333
v 0.53540218 0.11009283 0.67834049
v 0.48996550 0.09000298 0.69311053
v 0.52541149 0.11009283 0.68192786
v 0.50998521 0.11009283 0.68717283
v 0.40996319 0.05002119 0.71060205
v 0.40996319 0.07001209 0.71109682
v 0.42998290 0.09000298 0.70795482
v 0.40996319 0.09000298 0.71156693
v 0.46271113 0.09000298 0.70070589
v 0.44996434 0.11009283 0.70412004
v 0.47346741 0.11009283 0.69825655
v 0.38998175 0.03003031 0.71310085
v 0.38998175 0.05002119 0.71364510
v 0.37000030 0.01003942 0.71500582
v 0.27001655 0.11009283 0.72210634
v 0.25003511 0.11009283 0.72121567
v 0.24069512 0.08168993 0.71995395
v 0.24842741 0.08901333 0.72059715
v 0.35001886 0.03003031 0.71755409
v 0.34867910 0.08970609 0.71926117
v 0.34109995 0.09613880 0.72007763
v 0.33137718 0.08970609 0.72054768
v 0.35001886 0.05002119 0.71812314
v 0.35001886 0.07001209 0.71864271
v 0.34286076 0.11009283 0.72025084
v 0.33003742 0.13008372 0.72151256
v 0.31001770 0.13008372 0.72247744
v 0.29003626 0.13008372 0.72282380
v 0.27001655 0.13008372 0.72255170
v 0.23001538 0.05002119 0.71819735
v 0.21003394 0.05002119 0.71634185
v 0.19246405 0.05249532 0.71438730
v 0.19246405 0.63005394 0.59503943
v 0.58351845 0.61095375 0.51671118
v 0.58351845 0.05002119 0.65743482
v 0.58351845 0.05833424 0.65763277
v 0.58351845 0.07001209 0.65790486
v 0.58351845 0.08713300 0.65827602
v 0.58351845 0.10177979 0.65857291
v 0.58034134 0.11009283 0.66015625
v 0.56996781 0.13008372 0.66488171
v 0.54998636 0.13008372 0.67307079
v 0.53586155 0.13008372 0.67848897
v 0.52587086 0.13008372 0.68210107
v 0.48996550 0.11009283 0.69350636
v 0.50998521 0.13008372 0.68751919
v 0.38998175 0.07001209 0.71416467
v 0.42998290 0.11009283 0.70835066
v 0.40996319 0.11009283 0.71196276
v 0.38998175 0.11009283 0.71505535
v 0.38998175 0.09000298 0.71463472
v 0.46343839 0.11009283 0.70090377
v 0.46408916 0.13008372 0.70107698
v 0.44996434 0.13008372 0.70444167
v 0.48996550 0.13008372 0.69385278
v 0.47407988 0.13008372 0.69840503
v 0.37000030 0.05002119 0.71614391
v 0.25003511 0.13008372 0.72163630
v 0.23640792 0.11009283 0.72030032
v 0.23112546 0.08901333 0.71933544
v 0.23001538 0.07001209 0.71874166
v 0.35288975 0.11009283 0.71936017
v 0.37000030 0.07001209 0.71666348
v 0.34511918 0.13008372 0.72044873
v 0.33003742 0.15007462 0.72188365
v 0.31001770 0.15007462 0.72282380
v 0.29003626 0.15007462 0.72319496
v 0.27001655 0.15007462 0.72292280
v 0.25003511 0.15007462 0.72203213
v 0.21003394 0.07001209 0.71688610
v 0.19246405 0.07001209 0.71485740
v 0.19246405 0.64133596 0.59927005
v 0.58351845 0.62995499 0.52316844
v 0.58351845 0.61570406 0.51822031
v 0.58351845 0.11009283 0.65872133
v 0.58068585 0.13008372 0.66030473
v 0.58099204 0.15007462 0.66045314
v 0.56996781 0.17006551 0.66542602
v 0.54998636 0.15007462 0.67336768
v 0.53628266 0.15007462 0.67863739
v 0.52629191 0.15007462 0.68224949
v 0.50998521 0.15007462 0.68781608
v 0.42998290 0.13008372 0.70867229
v 0.40996319 0.13008372 0.71230912
v 0.38998175 0.13008372 0.71540171
v 0.37000030 0.13008372 0.71797466
v 0.37000030 0.11009283 0.71757883
v 0.37000030 0.09000298 0.71713352
v 0.47461575 0.15007462 0.69855344
v 0.46462506 0.15007462 0.70120066
v 0.44996434 0.15007462 0.70471382
v 0.42998290 0.15007462 0.70896918
v 0.48996550 0.17006551 0.69439703
v 0.23388152 0.13008372 0.72052294
v 0.22385253 0.13008372 0.71965706
v 0.22641720 0.11009283 0.71943438
v 0.21003394 0.09000298 0.71740568
v 0.35510993 0.13008372 0.71955806
v 0.34707141 0.15007462 0.72062194
v 0.33003742 0.17006551 0.72218055
v 0.31001770 0.17006551 0.72314543
v 0.29003626 0.17006551 0.72351658
v 0.27001655 0.17006551 0.72324443
v 0.25003511 0.17006551 0.72235376
v 0.23162308 0.15007462 0.72069615
v 0.19246405 0.09000298 0.71535218
v 0.58351845 0.63104355 0.52363849
v 0.19246405 0.65123242 0.60491085
v 0.58351845 0.64875829 0.53209972
v 0.58351845 0.15007462 0.65931511
v 0.58351845 0.17006551 0.65956247
v 0.58125997 0.17006551 0.66057688
v 0.54998636 0.17006551 0.67361510
v 0.56996781 0.18995744 0.66564864
v 0.53662711 0.17006551 0.67876107
v 0.52663642 0.17006551 0.68237317
v 0.50998521 0.17006551 0.68808824
v 0.40996319 0.15007462 0.71263075
v 0.38998175 0.15007462 0.71572334
v 0.37000030 0.15007462 0.71829629
v 0.35706213 0.15007462 0.71973127
v 0.47507513 0.17006551 0.69867712
v 0.46508437 0.17006551 0.70132434
v 0.44996434 0.17006551 0.70496124
v 0.42998290 0.17006551 0.70921659
v 0.48996550 0.18995744 0.69459498
v 0.47549617 0.18995744 0.69880086
v 0.22159408 0.15007462 0.71985495
v 0.21003394 0.13008372 0.71832108
v 0.21003394 0.11009283 0.71787572
v 0.34864083 0.17006551 0.72077036
v 0.33003742 0.18995744 0.72240323
v 0.31001770 0.18995744 0.72336811
v 0.29003626 0.18995744 0.72376394
v 0.27001655 0.18995744 0.72349179
v 0.25003511 0.18995744 0.72262591
v 0.22821629 0.16917482 0.72074562
v 0.23001538 0.18995744 0.72116619
v 0.19246405 0.11009283 0.71582228
v 0.58351845 0.65657651 0.53694886
v 0.58351845 0.65182620 0.53398001
v 0.19246405 0.66498852 0.61500496
v 0.58351845 0.19381706 0.65983462
v 0.58175761 0.20994833 0.66079950
v 0.54998636 0.18995744 0.67383772
v 0.53693336 0.18995744 0.67888480
v 0.56996781 0.20994833 0.66584659
v 0.52694261 0.18995744 0.68247217
v 0.50998521 0.18995744 0.68828619
v 0.40996319 0.17006551 0.71287817
v 0.38998175 0.17006551 0.71599543
v 0.37000030 0.17006551 0.71856844
v 0.35863155 0.17006551 0.71985495
v 0.46546718 0.18995744 0.70144808
v 0.44996434 0.18995744 0.70518386
v 0.42998290 0.18995744 0.70941448
v 0.40996319 0.18995744 0.71310085
v 0.48996550 0.20994833 0.69479287
v 0.47584069 0.20994833 0.69887507
v 0.22033089 0.16195039 0.71995395
v 0.21003394 0.15007462 0.71869218
v 0.19246405 0.15007462 0.71663868
v 0.19246405 0.13255784 0.71629232
v 0.19246405 0.13008372 0.71624285
v 0.36027753 0.19728084 0.72002816
v 0.35170311 0.19035330 0.72072089
v 0.35001886 0.20994833 0.72106725
v 0.33003742 0.20994833 0.72260118
v 0.31001770 0.20994833 0.72356606
v 0.29003626 0.20994833 0.72393715
v 0.27001655 0.20994833 0.72368973
v 0.25003511 0.20994833 0.72279906
v 0.23001538 0.20994833 0.72136414
v 0.21937393 0.17521168 0.72005290
v 0.21841696 0.18995744 0.72015184
v 0.58060926 0.65944648 0.54036301
v 0.58351845 0.66281128 0.54330713
v 0.19246405 0.67478603 0.62999767
v 0.58351845 0.66775954 0.54951698
v 0.58351845 0.20994833 0.66000783
v 0.58351845 0.22993922 0.66018099
v 0.58351845 0.23300713 0.66020572
v 0.58194900 0.22993922 0.66087377
v 0.56996781 0.22993922 0.66601974
v 0.54998636 0.20994833 0.67403567
v 0.53716302 0.20994833 0.67895901
v 0.52717233 0.20994833 0.68257111
v 0.50998521 0.20994833 0.68848407
v 0.38998175 0.18995744 0.71621811
v 0.37076586 0.20994833 0.71891481
v 0.36816293 0.19035330 0.71901381
v 0.46581167 0.20994833 0.70152229
v 0.44996434 0.20994833 0.70535707
v 0.42998290 0.20994833 0.70961243
v 0.40996319 0.20994833 0.71327400
v 0.38998175 0.20994833 0.71641606
v 0.48996550 0.22993922 0.69494134
v 0.47610864 0.22993922 0.69894928
v 0.21160337 0.16917482 0.71918696
v 0.19246405 0.17273755 0.71700978
v 0.36077514 0.20994833 0.72007763
v 0.35001886 0.24993011 0.72136414
v 0.33003742 0.22993922 0.72274959
v 0.31001770 0.22993922 0.72371447
v 0.29003626 0.22993922 0.72408557
v 0.27001655 0.22993922 0.72383821
v 0.25003511 0.22993922 0.72294754
v 0.23001538 0.22993922 0.72151256
v 0.21738344 0.20994833 0.72025084
v 0.20842624 0.18995744 0.71913749
v 0.58351845 0.67775500 0.57096696
v 0.58351845 0.67023367 0.55397028
v 0.19246405 0.67904150 0.64046288
v 0.58351845 0.30990279 0.66072530
v 0.54998636 0.22993922 0.67415935
v 0.58271456 0.32999265 0.66119540
v 0.56996781 0.32999265 0.66658878
v 0.53731614 0.22993922 0.67900848
v 0.52732539 0.22993922 0.68264532
v 0.50998521 0.22993922 0.68863255
v 0.37141660 0.22993922 0.71898907
v 0.46607965 0.22993922 0.70159650
v 0.44996434 0.24993011 0.70560449
v 0.42998290 0.24993011 0.70985985
v 0.40996319 0.22993922 0.71342242
v 0.38998175 0.22993922 0.71656448
v 0.48996550 0.24993011 0.69504029
v 0.47630003 0.24993011 0.69899875
v 0.19246405 0.19282742 0.71728194
v 0.36142588 0.22993922 0.72015184
v 0.36196178 0.24993011 0.72022605
v 0.35001886 0.28991190 0.72156203
v 0.33003742 0.24993011 0.72287333
v 0.31001770 0.24993011 0.72383821
v 0.29003626 0.24993011 0.72418451
v 0.27001655 0.24993011 0.72393715
v 0.25003511 0.24993011 0.72304648
v 0.23001538 0.24993011 0.72163630
v 0.21665615 0.22993922 0.72032505
v 0.20739272 0.20994833 0.71923643
v 0.19246405 0.67973423 0.64226896
v 0.58351845 0.67894256 0.57522231
v 0.58351845 0.33157608 0.66084898
v 0.56996781 0.36997443 0.66678673
v 0.54998636 0.36997443 0.67477787
v 0.58290601 0.36997443 0.66129434
v 0.53792858 0.34998354 0.67925590
v 0.50998521 0.28991190 0.68885517
v 0.52793789 0.34998354 0.68284327
v 0.37199080 0.24993011 0.71903855
v 0.46627104 0.24993011 0.70164597
v 0.44996434 0.26992100 0.70567870
v 0.42998290 0.28991190 0.71000826
v 0.40996319 0.28991190 0.71371937
v 0.38998175 0.28991190 0.71686137
v 0.37283292 0.28991190 0.71913749
v 0.48996550 0.28991190 0.69518876
v 0.47641486 0.26992100 0.69904828
v 0.19246405 0.20994833 0.71745515
v 0.36242113 0.26992100 0.72027552
v 0.36284220 0.28991190 0.72032505
v 0.35001886 0.30990279 0.72163630
v 0.33003742 0.28991190 0.72307122
v 0.31001770 0.28991190 0.72401136
v 0.29003626 0.28991190 0.72433299
v 0.27001655 0.26992100 0.72401136
v 0.25003511 0.26992100 0.72312069
v 0.23001538 0.26992100 0.72171050
v 0.21577574 0.26992100 0.72042400
v 0.21612024 0.24993011 0.72037452
v 0.20666543 0.22993922 0.71931070
v 0.19246405 0.21291727 0.71747988
v 0.58122170 0.67993224 0.58175379
v 0.58351845 0.67953634 0.57861173
v 0.19246405 0.68042707 0.65226406
v 0.58351845 0.36997443 0.66102219
v 0.56996781 0.38996533 0.66683620
v 0.54998636 0.38996533 0.67482734
v 0.53804344 0.36997443 0.67928064
v 0.58294427 0.38996533 0.66131908
v 0.50998521 0.30990279 0.68890464
v 0.52805269 0.36997443 0.68284327
v 0.50998521 0.34998354 0.68900365
v 0.46653897 0.28991190 0.70172024
v 0.44996434 0.30990279 0.70577765
v 0.42998290 0.30990279 0.71005774
v 0.40996319 0.30990279 0.71376884
v 0.38998175 0.30990279 0.71693558
v 0.37313914 0.30990279 0.71918696
v 0.47652969 0.28991190 0.69907302
v 0.48996550 0.30990279 0.69523823
v 0.36314842 0.30990279 0.72034979
v 0.33003742 0.30990279 0.72314543
v 0.36333981 0.32999265 0.72037452
v 0.35001886 0.34998354 0.72168577
v 0.31001770 0.30990279 0.72406083
v 0.29003626 0.30990279 0.72438246
v 0.27001655 0.28991190 0.72406083
v 0.25003511 0.30990279 0.72321963
v 0.23001538 0.28991190 0.72175997
v 0.21546951 0.28991190 0.72044873
v 0.20547879 0.28991190 0.71943438
v 0.20612952 0.24993011 0.71936017
v 0.19246405 0.22993922 0.71760356
v 0.58351845 0.67993224 0.58407938
v 0.54998636 0.68013012 0.59870100
v 0.58351845 0.68003118 0.59130359
v 0.19246405 0.68042707 0.66389209
v 0.48996550 0.68042707 0.62999767
v 0.58351845 0.38996533 0.66104692
v 0.56996781 0.40995622 0.66683620
v 0.53808171 0.38996533 0.67930537
v 0.54998636 0.40995622 0.67482734
v 0.58294427 0.40995622 0.66131908
v 0.52809101 0.38996533 0.68284327
v 0.50998521 0.38996533 0.68900365
v 0.48996550 0.32999265 0.69526297
v 0.47660625 0.30990279 0.69909775
v 0.46665382 0.32999265 0.70174497
v 0.44996434 0.32999265 0.70580238
v 0.42998290 0.32999265 0.71010721
v 0.40996319 0.32999265 0.71381831
v 0.38998175 0.32999265 0.71698511
v 0.37333053 0.32999265 0.71921170
v 0.33003742 0.32999265 0.72317016
v 0.36341637 0.34998354 0.72037452
v 0.36330155 0.36997443 0.72037452
v 0.35001886 0.36997443 0.72166103
v 0.33003742 0.34998354 0.72317016
v 0.31001770 0.32999265 0.72408557
v 0.27001655 0.30990279 0.72408557
v 0.29003626 0.34998354 0.72438246
v 0.27001655 0.32999265 0.72411031
v 0.23001538 0.30990279 0.72178471
v 0.25003511 0.32999265 0.72324443
v 0.21527812 0.30990279 0.72047347
v 0.20517255 0.32999265 0.71945912
v 0.19246405 0.30990279 0.71787572
v 0.19246405 0.26992100 0.71777678
v 0.19246405 0.24993011 0.71770257
v 0.54998636 0.68022907 0.60998267
v 0.58351845 0.68003118 0.60095239
v 0.21003394 0.68042707 0.66488171
v 0.19246405 0.67914045 0.67388719
v 0.21003394 0.67943740 0.67487681
v 0.25003511 0.67983329 0.67774671
v 0.27001655 0.67993224 0.67920643
v 0.42998290 0.68042707 0.64998794
v 0.46998405 0.68032813 0.64511406
v 0.52996665 0.68022907 0.62559384
v 0.58351845 0.42994711 0.66104692
v 0.56996781 0.42994711 0.66681147
v 0.53808171 0.40995622 0.67930537
v 0.56996781 0.56998229 0.66651458
v 0.54998636 0.42994711 0.67477787
v 0.58286774 0.46992889 0.66126961
v 0.52809101 0.40995622 0.68284327
v 0.50998521 0.40995622 0.68895417
v 0.48996550 0.38996533 0.69521350
v 0.48996550 0.34998354 0.69526297
v 0.47664452 0.32999265 0.69909775
v 0.44996434 0.34998354 0.70580238
v 0.47664452 0.34998354 0.69909775
v 0.47656798 0.36997443 0.69909775
v 0.46657726 0.36997443 0.70172024
v 0.42998290 0.34998354 0.71010721
v 0.40996319 0.34998354 0.71384305
v 0.37340710 0.34998354 0.71921170
v 0.38998175 0.36997443 0.71698511
v 0.37329227 0.36997443 0.71918696
v 0.36307186 0.38996533 0.72034979
v 0.35001886 0.38996533 0.72158682
v 0.33003742 0.38996533 0.72309595
v 0.33003742 0.36997443 0.72314543
v 0.31001770 0.34998354 0.72408557
v 0.29003626 0.36997443 0.72435772
v 0.27001655 0.34998354 0.72411031
v 0.23001538 0.32999265 0.72180945
v 0.25003511 0.34998354 0.72321963
v 0.23001538 0.34998354 0.72180945
v 0.21520156 0.32999265 0.72047347
v 0.19246405 0.32999265 0.71790045
v 0.21523984 0.34998354 0.72047347
v 0.20524912 0.34998354 0.71945912
v 0.19246405 0.33315951 0.71790045
v 0.56005365 0.67993224 0.62000251
v 0.57337463 0.67963529 0.61426276
v 0.58351845 0.67923951 0.61079907
v 0.27001655 0.68032813 0.66921127
v 0.29003626 0.68032813 0.66948342
v 0.31001770 0.68032813 0.66856802
v 0.33003742 0.68032813 0.66725677
v 0.19246405 0.67092645 0.68999326
v 0.21003394 0.67241085 0.68999326
v 0.23001538 0.67369747 0.68999326
v 0.25003511 0.67448914 0.68999326
v 0.29003626 0.67993224 0.67947853
v 0.27001655 0.67498398 0.68999326
v 0.29003626 0.67518187 0.68999326
v 0.35001886 0.68032813 0.66574764
v 0.37000030 0.68032813 0.66421372
v 0.40996319 0.68022907 0.66169018
v 0.44919875 0.68032813 0.65073013
v 0.50569803 0.68013012 0.64090818
v 0.48996550 0.68022907 0.64236790
v 0.58351845 0.58997321 0.66082424
v 0.58271456 0.56998229 0.66119540
v 0.53800517 0.42994711 0.67928064
v 0.56996781 0.58997321 0.66646510
v 0.54998636 0.54999143 0.67445624
v 0.52801442 0.42994711 0.68281853
v 0.50998521 0.44993800 0.68880570
v 0.47649142 0.38996533 0.69907302
v 0.48996550 0.40995622 0.69513929
v 0.44996434 0.38996533 0.70570344
v 0.42998290 0.36997443 0.71008247
v 0.46646243 0.38996533 0.70169550
v 0.40996319 0.36997443 0.71381831
v 0.37306258 0.38996533 0.71916223
v 0.40996319 0.38996533 0.71376884
v 0.38998175 0.40995622 0.71683663
v 0.37267980 0.40995622 0.71913749
v 0.36265081 0.40995622 0.72030032
v 0.35001886 0.40995622 0.72148782
v 0.33003742 0.40995622 0.72299701
v 0.31001770 0.38996533 0.72398663
v 0.31001770 0.36997443 0.72406083
v 0.29003626 0.38996533 0.72428352
v 0.27001655 0.38996533 0.72401136
v 0.25003511 0.38996533 0.72312069
v 0.23001538 0.36997443 0.72175997
v 0.21543123 0.36997443 0.72044873
v 0.20544051 0.36997443 0.71943438
v 0.19246405 0.36997443 0.71785098
v 0.19246405 0.35315043 0.71787572
v 0.51905727 0.67993224 0.63915163
v 0.52996665 0.67963529 0.63558900
v 0.54998636 0.67864573 0.63123471
v 0.58351845 0.67844772 0.61436170
v 0.31001770 0.67993224 0.67858791
v 0.19246405 0.66172266 0.70142335
v 0.21003394 0.66291022 0.70246243
v 0.23001538 0.66399884 0.70337784
v 0.25003511 0.66469163 0.70404583
v 0.27001655 0.66508746 0.70446640
v 0.31001770 0.67498398 0.68999326
v 0.29003626 0.66518646 0.70461488
v 0.31001770 0.66508746 0.70451587
v 0.42998290 0.68013012 0.66070056
v 0.44200239 0.68003118 0.66018099
v 0.58351845 0.60996413 0.66062635
v 0.58248490 0.60996413 0.66109639
v 0.53743100 0.54999143 0.67910743
v 0.54998636 0.58997321 0.67425835
v 0.54998636 0.56998229 0.67438203
v 0.56996781 0.60996413 0.66626716
v 0.52763164 0.50991070 0.68264532
v 0.52744025 0.54999143 0.68254638
v 0.50998521 0.52990156 0.68840986
v 0.47633830 0.40995622 0.69902349
v 0.46634758 0.40995622 0.70164597
v 0.48996550 0.46992889 0.69484240
v 0.44996434 0.40995622 0.70562923
v 0.42998290 0.38996533 0.71003300
v 0.42998290 0.40995622 0.70995879
v 0.40996319 0.44993800 0.71347195
v 0.38998175 0.42994711 0.71673769
v 0.38998175 0.44993800 0.71661395
v 0.37153146 0.44993800 0.71901381
v 0.36215317 0.42994711 0.72022605
v 0.36092827 0.46992889 0.72010237
v 0.35001886 0.44993800 0.72124040
v 0.33003742 0.44993800 0.72272485
v 0.31001770 0.42994711 0.72376394
v 0.31001770 0.40995622 0.72388768
v 0.29003626 0.40995622 0.72418451
v 0.27001655 0.40995622 0.72391242
v 0.25003511 0.40995622 0.72302175
v 0.23001538 0.40995622 0.72161156
v 0.21573746 0.38996533 0.72042400
v 0.20574674 0.38996533 0.71940964
v 0.19246405 0.39303321 0.71777678
v 0.45532334 0.67983329 0.65788013
v 0.46998405 0.67953634 0.65510923
v 0.48996550 0.67874467 0.65236306
v 0.51140153 0.67785394 0.64855301
v 0.52996665 0.67488503 0.64998794
v 0.56801558 0.67706227 0.62799370
v 0.58351845 0.67349946 0.62940389
v 0.33003742 0.67983329 0.67727667
v 0.33003742 0.67458808 0.68999326
v 0.19246405 0.64994586 0.70731157
v 0.21003394 0.64994586 0.70936501
v 0.23001538 0.64994586 0.71119583
v 0.25003511 0.64994586 0.71255654
v 0.27001655 0.64994586 0.71344721
v 0.29003626 0.64994586 0.71374404
v 0.33003742 0.66469163 0.70416951
v 0.31001770 0.64994586 0.71352142
v 0.37000030 0.67943740 0.67420882
v 0.38998175 0.67904150 0.67287284
v 0.40996319 0.67844772 0.67171007
v 0.42998290 0.67745805 0.67069572
v 0.58351845 0.62797570 0.65963674
v 0.58152795 0.62659019 0.66067582
v 0.53727788 0.56998229 0.67905796
v 0.53704822 0.58997321 0.67898375
v 0.54998636 0.60996413 0.67401093
v 0.57199657 0.63193429 0.66408998
v 0.54998636 0.62995499 0.67287284
v 0.52728713 0.56998229 0.68249691
v 0.50998521 0.54999143 0.68828619
v 0.47595552 0.44993800 0.69892454
v 0.46615618 0.42994711 0.70159650
v 0.48996550 0.54999143 0.69434756
v 0.47572583 0.46992889 0.69887507
v 0.44996434 0.44993800 0.70543128
v 0.42998290 0.42994711 0.70985985
v 0.42998290 0.46992889 0.70961243
v 0.40996319 0.48991978 0.71319979
v 0.38998175 0.50991070 0.71616864
v 0.37091899 0.46992889 0.71893954
v 0.36827776 0.49140427 0.71908802
v 0.35993302 0.49902454 0.71997869
v 0.35001886 0.46992889 0.72109199
v 0.31001770 0.44993800 0.72361553
v 0.34829631 0.52990156 0.72072089
v 0.33003742 0.50991070 0.72220528
v 0.29003626 0.42994711 0.72406083
v 0.27001655 0.44993800 0.72361553
v 0.25003511 0.42994711 0.72289807
v 0.23001538 0.42994711 0.72148782
v 0.21677098 0.42994711 0.72032505
v 0.21619681 0.40995622 0.72037452
v 0.20620608 0.40995622 0.71936017
v 0.19246405 0.41292515 0.71767783
v 0.44919875 0.67676532 0.66812271
v 0.46998405 0.67359847 0.66997826
v 0.48996550 0.67033267 0.66997826
v 0.52996665 0.66518646 0.66530228
v 0.54998636 0.67062950 0.64998794
v 0.58351845 0.67003572 0.63596010
v 0.35001886 0.67379642 0.68999326
v 0.19246405 0.63242912 0.71248233
v 0.21003394 0.62995499 0.71525323
v 0.23001538 0.62995499 0.71708405
v 0.27001655 0.63272601 0.71896434
v 0.29003626 0.63381457 0.71911275
v 0.35001886 0.66409785 0.70352626
v 0.33003742 0.64994586 0.71277922
v 0.31001770 0.63302290 0.71898907
v 0.37000030 0.67250985 0.68999326
v 0.38998175 0.67082745 0.68999326
v 0.58351845 0.63678360 0.65872133
v 0.57995856 0.63995039 0.65998310
v 0.52705747 0.58997321 0.68242270
v 0.53662711 0.60996413 0.67883533
v 0.52227265 0.64202869 0.68074030
v 0.53486633 0.62995499 0.67826629
v 0.50998521 0.56998229 0.68816245
v 0.46573514 0.46992889 0.70149755
v 0.48996550 0.56998229 0.69419914
v 0.47473061 0.54999143 0.69860291
v 0.47496027 0.52990156 0.69867712
v 0.44996434 0.46992889 0.70530760
v 0.44996434 0.52990156 0.70488697
v 0.44996434 0.54999143 0.70473856
v 0.42998290 0.54999143 0.70901865
v 0.40996319 0.54999143 0.71270496
v 0.38998175 0.52990156 0.71599543
v 0.37000030 0.50991070 0.71871692
v 0.37000030 0.52990156 0.71854371
v 0.37000030 0.54999143 0.71834582
v 0.35939711 0.50991070 0.71992922
v 0.35197106 0.49140427 0.72074562
v 0.29003626 0.44993800 0.72391242
v 0.31001770 0.48991978 0.72326916
v 0.35832533 0.52990156 0.71983021
v 0.35713869 0.54999143 0.71973127
v 0.35576066 0.56998229 0.71963233
v 0.34710968 0.54999143 0.72059715
v 0.33003742 0.52990156 0.72200739
v 0.27001655 0.48991978 0.72329390
v 0.25003511 0.46992889 0.72260118
v 0.23001538 0.46992889 0.72119093
v 0.21826385 0.46992889 0.72017658
v 0.21749827 0.44993800 0.72025084
v 0.20746927 0.44993800 0.71921170
v 0.20678025 0.42994711 0.71928596
v 0.19246405 0.42994711 0.71757883
v 0.42998290 0.66746265 0.68816245
v 0.44996434 0.66597819 0.68608427
v 0.46998405 0.66409785 0.68378341
v 0.50810957 0.66597819 0.67076993
v 0.56805390 0.66528541 0.65021062
v 0.48996550 0.66152477 0.68133408
v 0.50022417 0.66004026 0.68004757
v 0.54998636 0.66192061 0.66186339
v 0.58351845 0.66380095 0.64533675
v 0.19246405 0.62995499 0.71319979
v 0.19246405 0.61243820 0.71495634
v 0.19246405 0.60996413 0.71520376
v 0.21003394 0.60996413 0.71723247
v 0.24398708 0.61580300 0.71975601
v 0.25730804 0.62104815 0.72015184
v 0.25041789 0.62856948 0.71866745
v 0.27001655 0.62273055 0.72037452
v 0.29003626 0.62381917 0.72052294
v 0.37000030 0.66310823 0.70263565
v 0.35001886 0.64994586 0.71146798
v 0.35001886 0.62995499 0.71735620
v 0.31001770 0.62302744 0.72039926
v 0.32410425 0.62144399 0.72020131
v 0.33045849 0.62886637 0.71879113
v 0.38998175 0.66182166 0.70147282
v 0.41011629 0.66716576 0.69165087
v 0.58351845 0.64341420 0.65681630
v 0.56506813 0.64994586 0.66208601
v 0.54998636 0.64994586 0.66782582
v 0.58351845 0.64994586 0.65394640
v 0.56009191 0.66004026 0.66003257
v 0.50998521 0.58997321 0.68798929
v 0.52663642 0.60996413 0.68224949
v 0.45811766 0.63688254 0.69956779
v 0.48996550 0.62995499 0.69214565
v 0.50998521 0.62995499 0.68630695
v 0.52487558 0.62995499 0.68160623
v 0.52935421 0.64925313 0.67537165
v 0.51354516 0.65538895 0.67796940
v 0.50810957 0.64925313 0.68212581
v 0.48996550 0.64994586 0.68682647
v 0.46470159 0.54999143 0.70122540
v 0.47442436 0.56998229 0.69852871
v 0.48996550 0.58997321 0.69402593
v 0.44996434 0.56998229 0.70459008
v 0.42998290 0.56998229 0.70884550
v 0.40996319 0.56998229 0.71250707
v 0.38998175 0.54999143 0.71579754
v 0.38998175 0.56998229 0.71559960
v 0.37000030 0.56998229 0.71812314
v 0.29003626 0.50991070 0.72339284
v 0.31001770 0.52990156 0.72287333
v 0.34576994 0.56998229 0.72047347
v 0.37000030 0.58997321 0.71782625
v 0.35380843 0.58997321 0.71945912
v 0.33003742 0.54999143 0.72178471
v 0.27001655 0.52990156 0.72289807
v 0.25003511 0.52990156 0.72205687
v 0.25003511 0.48991978 0.72242796
v 0.23104891 0.52990156 0.72074562
v 0.23001538 0.48991978 0.72101778
v 0.22821629 0.51020753 0.72069615
v 0.21968016 0.50377488 0.72002816
v 0.20907699 0.48991978 0.71906328
v 0.19246405 0.44993800 0.71743041
v 0.40357065 0.66063404 0.70053267
v 0.41689160 0.65885270 0.69944412
v 0.42998290 0.65618062 0.69818234
v 0.45084473 0.64955002 0.69659895
v 0.46998405 0.64994586 0.69189829
v 0.58351845 0.65736824 0.64956737
v 0.19246405 0.59244728 0.71584702
v 0.21003394 0.58997321 0.71799946
v 0.23832184 0.60244274 0.72012711
v 0.23101063 0.60946929 0.71916223
v 0.22607268 0.58997321 0.71950859
v 0.25041789 0.60946929 0.72044873
v 0.27001655 0.60996413 0.72126520
v 0.29003626 0.60996413 0.72153729
v 0.37000030 0.64994586 0.70963717
v 0.33742520 0.61669374 0.71985495
v 0.37000030 0.62995499 0.71547592
v 0.31001770 0.60996413 0.72131467
v 0.33045849 0.60996413 0.72052294
v 0.50998521 0.60996413 0.68764293
v 0.44475845 0.64272141 0.70102751
v 0.42998290 0.62995499 0.70642090
v 0.45084473 0.63005394 0.70209134
v 0.46183071 0.62352228 0.70045847
v 0.46906537 0.63005394 0.69771224
v 0.48996550 0.60996413 0.69363010
v 0.46443367 0.56998229 0.70112646
v 0.47404158 0.58997321 0.69845450
v 0.46405086 0.58997321 0.70102751
v 0.44996434 0.58997321 0.70436746
v 0.42998290 0.58997321 0.70859808
v 0.40996319 0.58997321 0.71223491
v 0.38998175 0.58997321 0.71530271
v 0.31001770 0.54999143 0.72265065
v 0.29003626 0.54999143 0.72294754
v 0.27001655 0.54999143 0.72267538
v 0.33003742 0.56998229 0.72153729
v 0.34381771 0.58997321 0.72030032
v 0.38998175 0.60996413 0.71480793
v 0.37000030 0.60996413 0.71730673
v 0.34906191 0.60996413 0.71926117
v 0.34175068 0.60333347 0.72012711
v 0.25003511 0.54999143 0.72183418
v 0.23223555 0.54999143 0.72062194
v 0.22224483 0.54999143 0.71980548
v 0.22101991 0.52990156 0.71990442
v 0.21003394 0.54999143 0.71859318
v 0.21003394 0.52990156 0.71879113
v 0.21183304 0.51020753 0.71916223
v 0.19246405 0.51000965 0.71691084
v 0.38998175 0.64994586 0.70723736
v 0.41011629 0.65133142 0.70374894
v 0.42998290 0.64618522 0.70251191
v 0.19246405 0.58997321 0.71592122
v 0.19246405 0.57245642 0.71624285
v 0.21003394 0.56998229 0.71834582
v 0.22377597 0.56998229 0.71968180
v 0.23606341 0.58997321 0.72030032
v 0.25003511 0.58997321 0.72116619
v 0.23376669 0.56998229 0.72049820
v 0.27001655 0.58997321 0.72200739
v 0.29003626 0.58997321 0.72225481
v 0.38998175 0.62995499 0.71300185
v 0.31001770 0.58997321 0.72200739
v 0.33003742 0.58997321 0.72119093
v 0.40996319 0.62995499 0.70998353
v 0.40996319 0.60996413 0.71174008
v 0.42998290 0.60996413 0.70815271
v 0.44996434 0.60996413 0.70394683
v 0.46328530 0.60996413 0.70082957
v 0.47327602 0.60996413 0.69825655
v 0.31001770 0.56998229 0.72237849
v 0.29003626 0.56998229 0.72265065
v 0.27001655 0.56998229 0.72240323
v 0.25003511 0.56998229 0.72156203
v 0.19246405 0.55236661 0.71649027
v 0.19246405 0.54999143 0.71651500
f 1 2 6
f 1 6 11
f 1 11 20
f 1 20 24
f 1 24 38
f 1 38 57
f 1 57 80
f 1 80 105
f 1 105 129
f 1 129 158
f 1 158 193
f 1 193 233
f 1 233 231
f 1 231 276
f 1 276 323
f 1 323 289
f 1 289 243
f 1 243 241
f 1 241 201
f 1 201 163
f 1 163 135
f 1 135 134
f 1 134 108
f 1 108 107
f 1 107 84
f 1 84 81
f 1 81 58
f 1 58 39
f 1 39 25
f 1 25 14
f 1 14 7
f 1 7 3
f 1 3 8
f 1 8 17
f 1 17 30
f 1 30 46
f 1 46 68
f 1 68 93
f 1 93 117
f 1 117 146
f 1 146 145
f 1 145 177
f 1 177 219
f 1 219 262
f 1 262 261
f 1 261 308
f 1 308 307
f 1 307 346
f 1 346 378
f 1 378 410
f 1 410 442
f 1 442 475
f 1 475 511
f 1 511 551
f 1 551 597
f 1 597 596
f 1 596 639
f 1 639 678
f 1 678 713
f 1 713 746
f 1 746 771
f 1 771 770
f 1 770 769
f 1 769 807
f 1 807 836
f 1 836 866
f 1 866 879
f 1 879 911
f 1 911 947
f 1 947 946
f 1 946 945
f 1 945 989
f 1 989 992
f 1 992 1042
f 1 1042 1041
f 1 1041 1089
f 1 1089 1143
f 1 1143 1197
f 1 1197 1262
f 1 1262 1312
f 1 1312 1339
f 1 1339 1338
f 1 1338 1317
f 1 1317 1316
f 1 1316 1269
f 1 1269 1209
f 1 1209 1208
f 1 1208 1207
f 1 1207 1151
f 1 1151 1099
f 1 1099 1048
f 1 1048 1000
f 1 1000 951
f 1 951 915
f 1 915 882
f 1 882 848
f 1 848 820
f 1 820 785
f 1 785 749
f 1 749 715
f 1 715 679
f 1 679 640
f 1 640 598
f 1 598 553
f 1 553 552
f 1 552 513
f 1 513 476
f 1 476 444
f 1 444 443
f 1 443 412
f 1 412 411
f 1 411 379
f 1 379 347
f 1 347 309
f 1 309 263
f 1 263 220
f 1 220 179
f 1 179 178
f 1 178 148
f 1 148 120
f 1 120 119
f 1 119 118
f 1 118 94
f 1 94 69
f 1 69 47
f 1 47 32
f 1 32 18
f 1 18 9
f 1 9 4
f 1 4 5
f 1 5 2
f 2 5 10
f 2 10 19
f 2 19 31
f 2 31 48
f 2 48 70
f 2 70 95
f 2 95 121
f 2 121 147
f 2 147 180
f 2 180 221
f 2 221 264
f 2 264 310
f 2 310 348
f 2 348 380
f 2 380 413
f 2 413 445
f 2 445 477
f 2 477 512
f 2 512 514
f 2 514 554
f 2 554 599
f 2 599 641
f 2 641 681
f 2 681 680
f 2 680 714
f 2 714 716
f 2 716 748
f 2 748 747
f 2 747 784
f 2 784 786
f 2 786 819
f 2 819 818
f 2 818 849
f 2 849 881
f 2 881 912
f 2 912 914
f 2 914 949
f 2 949 995
f 2 995 1046
f 2 1046 1096
f 2 1096 1149
f 2 1149 1206
f 2 1206 1268
f 2 1268 1227
f 2 1227 1224
f 2 1224 1161
f 2 1161 1111
f 2 1111 1058
f 2 1058 1013
f 2 1013 958
f 2 958 917
f 2 917 883
f 2 883 850
f 2 850 821
f 2 821 789
f 2 789 788
f 2 788 787
f 2 787 750
f 2 750 718
f 2 718 717
f 2 717 682
f 2 682 646
f 2 646 645
f 2 645 644
f 2 644 643
f 2 643 642
f 2 642 600
f 2 600 555
f 2 555 515
f 2 515 479
f 2 479 478
f 2 478 446
f 2 446 414
f 2 414 381
f 2 381 349
f 2 349 311
f 2 311 266
f 2 266 265
f 2 265 222
f 2 222 183
f 2 183 182
f 2 182 181
f 2 181 149
f 2 149 123
f 2 123 122
f 2 122 96
f 2 96 73
f 2 73 72
f 2 72 71
f 2 71 50
f 2 50 49
f 2 49 33
f 2 33 21
f 2 21 12
f 2 12 6
f 3 7 8
f 4 9 10
f 4 10 5
f 6 12 13
f 6 13 11
f 7 14 15
f 7 15 16
f 7 16 8
f 8 16 17
f 9 18 10
f 10 18 19
f 11 13 20
f 12 21 22
f 12 22 13
f 13 23 24
f 13 24 20
f 13 22 23
f 14 25 26
f 14 26 15
f 15 26 16
f 16 26 27
f 16 27 28
f 16 28 29
f 16 29 30
f 16 30 17
f 18 31 19
f 18 32 31
f 21 33 34
f 21 34 22
f 22 34 35
f 22 35 23
f 23 35 36
f 23 36 37
f 23 37 38
f 23 38 24
f 25 39 40
f 25 40 41
f 25 41 26
f 26 41 27
f 27 42 28
f 27 41 42
f 28 42 43
f 28 43 44
f 28 44 29
f 29 44 45
f 29 45 46
f 29 46 30
f 31 32 47
f 31 47 48
f 33 49 34
f 34 49 50
f 34 50 51
f 34 51 52
f 34 52 35
f 35 52 36
f 36 53 37
f 36 52 54
f 36 54 55
f 36 55 53
f 37 53 56
f 37 56 57
f 37 57 38
f 39 58 40
f 40 59 60
f 40 60 41
f 40 58 81
f 40 81 59
f 41 60 61
f 41 61 62
f 41 62 42
f 42 62 63
f 42 63 43
f 43 63 64
f 43 64 65
f 43 65 44
f 44 65 66
f 44 66 45
f 45 66 67
f 45 67 68
f 45 68 46
f 47 69 70
f 47 70 48
f 50 71 51
f 51 71 72
f 51 72 52
f 52 72 73
f 52 73 74
f 52 74 54
f 53 55 79
f 53 79 75
f 53 75 76
f 53 76 56
f 54 74 77
f 54 77 78
f 54 78 55
f 55 78 79
f 56 76 57
f 57 76 80
f 59 82 83
f 59 83 60
f 59 81 84
f 59 84 82
f 60 83 61
f 61 85 86
f 61 86 87
f 61 87 62
f 61 83 85
f 62 87 63
f 63 87 88
f 63 88 64
f 64 88 113
f 64 113 89
f 64 89 90
f 64 90 65
f 65 90 66
f 66 90 91
f 66 91 67
f 67 91 92
f 67 92 93
f 67 93 68
f 69 94 95
f 69 95 70
f 73 96 74
f 74 96 97
f 74 97 98
f 74 98 77
f 75 99 76
f 75 79 100
f 75 100 99
f 76 99 101
f 76 101 80
f 77 98 102
f 77 102 78
f 78 102 103
f 78 103 79
f 79 103 104
f 79 104 100
f 80 101 105
f 82 106 83
f 82 84 107
f 82 107 108
f 82 108 106
f 83 106 109
f 83 109 110
f 83 110 85
f 85 110 86
f 86 110 111
f 86 111 139
f 86 139 112
f 86 112 88
f 86 88 87
f 88 112 140
f 88 140 113
f 89 113 141
f 89 141 114
f 89 114 115
f 89 115 90
f 90 115 116
f 90 116 91
f 91 116 92
f 92 116 117
f 92 117 93
f 94 118 95
f 95 118 119
f 95 119 120
f 95 120 121
f 96 122 97
f 97 122 123
f 97 123 124
f 97 124 125
f 97 125 98
f 98 126 102
f 98 125 126
f 99 100 127
f 99 127 101
f 100 104 128
f 100 128 127
f 101 127 129
f 101 129 105
f 102 126 130
f 102 130 103
f 103 130 104
f 104 130 131
f 104 131 132
f 104 132 133
f 104 133 128
f 106 108 134
f 106 134 109
f 109 134 135
f 109 135 136
f 109 136 137
f 109 137 110
f 110 137 111
f 111 137 138
f 111 138 169
f 111 169 139
f 112 139 140
f 113 140 172
f 113 172 141
f 114 141 142
f 114 142 115
f 115 142 143
f 115 143 144
f 115 144 116
f 116 144 145
f 116 145 146
f 116 146 117
f 120 147 121
f 120 148 147
f 123 149 124
f 124 149 150
f 124 150 151
f 124 151 125
f 125 151 152
f 125 152 126
f 126 152 153
f 126 153 130
f 127 154 155
f 127 155 129
f 127 128 156
f 127 156 154
f 128 133 157
f 128 157 156
f 129 155 158
f 130 153 131
f 131 153 159
f 131 159 160
f 131 160 132
f 132 161 162
f 132 162 133
f 132 160 198
f 132 198 161
f 133 162 157
f 135 163 164
f 135 164 136
f 136 164 165
f 136 165 166
f 136 166 137
f 137 166 138
f 138 166 167
f 138 167 168
f 138 168 169
f 139 169 209
f 139 209 170
f 139 170 140
f 140 170 171
f 140 171 172
f 141 172 213
f 141 213 173
f 141 173 142
f 142 173 214
f 142 214 174
f 142 174 175
f 142 175 143
f 143 175 176
f 143 176 144
f 144 176 177
f 144 177 145
f 147 148 178
f 147 178 179
f 147 179 180
f 149 181 150
f 150 182 183
f 150 183 184
f 150 184 185
f 150 185 151
f 150 181 182
f 151 186 152
f 151 185 187
f 151 187 186
f 152 186 188
f 152 188 153
f 153 188 189
f 153 189 159
f 154 190 155
f 154 156 191
f 154 191 190
f 155 190 192
f 155 192 193
f 155 193 158
f 156 157 194
f 156 194 191
f 157 162 195
f 157 195 194
f 159 189 196
f 159 196 160
f 160 196 197
f 160 197 198
f 161 199 162
f 161 198 200
f 161 200 199
f 162 199 195
f 163 201 164
f 164 202 203
f 164 203 165
f 164 201 202
f 165 204 166
f 165 203 204
f 166 204 167
f 167 204 205
f 167 205 168
f 168 206 207
f 168 207 208
f 168 208 209
f 168 209 169
f 168 205 206
f 170 209 171
f 171 210 211
f 171 211 212
f 171 212 213
f 171 213 172
f 171 209 210
f 173 213 214
f 174 214 215
f 174 215 216
f 174 216 217
f 174 217 175
f 175 217 218
f 175 218 176
f 176 218 219
f 176 219 177
f 179 220 180
f 180 220 221
f 183 222 184
f 184 222 223
f 184 223 224
f 184 224 225
f 184 225 185
f 185 225 226
f 185 226 187
f 186 187 227
f 186 227 188
f 187 226 227
f 188 227 189
f 189 227 228
f 189 228 229
f 189 229 196
f 190 191 230
f 190 230 231
f 190 231 192
f 191 194 232
f 191 232 230
f 192 231 233
f 192 233 193
f 194 195 234
f 194 234 232
f 195 199 235
f 195 235 234
f 196 229 197
f 197 229 236
f 197 236 237
f 197 237 238
f 197 238 198
f 198 238 200
f 199 200 240
f 199 240 235
f 200 238 239
f 200 239 240
f 201 241 202
f 202 242 244
f 202 244 203
f 202 241 243
f 202 243 242
f 203 244 245
f 203 245 204
f 204 245 205
f 205 245 246
f 205 246 206
f 206 247 207
f 206 246 247
f 207 247 248
f 207 248 249
f 207 249 250
f 207 250 208
f 208 250 209
f 209 250 210
f 210 250 211
f 211 251 298
f 211 298 252
f 211 252 253
f 211 253 212
f 211 250 251
f 212 253 213
f 213 253 254
f 213 254 214
f 214 254 255
f 214 255 215
f 215 255 256
f 215 256 257
f 215 257 258
f 215 258 216
f 216 258 259
f 216 259 217
f 217 259 218
f 218 259 260
f 218 260 261
f 218 261 262
f 218 262 219
f 220 263 221
f 221 263 264
f 222 265 223
f 223 265 266
f 223 266 267
f 223 267 224
f 224 267 268
f 224 268 269
f 224 269 226
f 224 226 225
f 226 269 270
f 226 270 271
f 226 271 272
f 226 272 227
f 227 272 273
f 227 273 228
f 228 273 274
f 228 274 229
f 229 274 236
f 230 275 231
f 230 232 275
f 231 275 277
f 231 277 276
f 232 278 275
f 232 234 279
f 232 279 278
f 234 235 279
f 235 280 279
f 235 240 287
f 235 287 280
f 236 274 281
f 236 281 282
f 236 282 237
f 237 283 239
f 237 239 238
f 237 282 284
f 237 284 283
f 239 283 285
f 239 285 286
f 239 286 287
f 239 287 240
f 242 288 290
f 242 290 244
f 242 243 289
f 242 289 323
f 242 323 288
f 244 290 291
f 244 291 292
f 244 292 245
f 245 292 246
f 246 292 293
f 246 293 247
f 247 293 294
f 247 294 248
f 248 294 295
f 248 295 296
f 248 296 249
f 249 296 297
f 249 297 250
f 250 297 251
f 251 297 337
f 251 337 298
f 252 298 338
f 252 338 299
f 252 299 300
f 252 300 253
f 253 300 255
f 253 255 254
f 255 300 301
f 255 301 256
f 256 301 340
f 256 340 302
f 256 302 303
f 256 303 257
f 257 303 304
f 257 304 258
f 258 304 259
f 259 304 305
f 259 305 306
f 259 306 260
f 260 306 307
f 260 307 308
f 260 308 261
f 263 309 264
f 264 309 310
f 266 311 267
f 267 311 312
f 267 312 268
f 268 270 269
f 268 312 313
f 268 313 314
f 268 314 270
f 270 315 271
f 270 314 316
f 270 316 315
f 271 317 272
f 271 315 318
f 271 318 317
f 272 317 319
f 272 319 273
f 273 320 274
f 273 319 321
f 273 321 320
f 274 320 322
f 274 322 281
f 275 290 276
f 275 276 277
f 275 278 290
f 276 290 288
f 276 288 323
f 278 279 324
f 278 324 291
f 278 291 290
f 279 280 324
f 280 325 324
f 280 287 325
f 281 322 326
f 281 326 282
f 282 326 328
f 282 328 284
f 283 284 327
f 283 327 285
f 284 328 327
f 285 327 329
f 285 329 330
f 285 330 331
f 285 331 332
f 285 332 286
f 286 332 333
f 286 333 287
f 287 333 334
f 287 334 325
f 291 324 292
f 292 324 293
f 293 324 294
f 294 324 325
f 294 325 295
f 295 334 335
f 295 335 296
f 295 325 334
f 296 335 336
f 296 336 297
f 297 336 367
f 297 367 337
f 298 337 338
f 299 338 370
f 299 370 339
f 299 339 301
f 299 301 300
f 301 339 371
f 301 371 340
f 302 340 372
f 302 372 341
f 302 341 342
f 302 342 303
f 303 342 304
f 304 342 343
f 304 343 344
f 304 344 305
f 305 344 345
f 305 345 306
f 306 345 346
f 306 346 307
f 309 347 310
f 310 347 348
f 311 349 312
f 312 349 350
f 312 350 313
f 313 350 382
f 313 382 351
f 313 351 352
f 313 352 314
f 314 352 353
f 314 353 316
f 315 316 318
f 316 353 354
f 316 354 318
f 317 355 321
f 317 321 319
f 317 318 356
f 317 356 355
f 318 354 356
f 320 321 357
f 320 357 322
f 321 355 358
f 321 358 357
f 322 357 359
f 322 359 326
f 326 359 362
f 326 362 328
f 327 360 330
f 327 330 329
f 327 328 361
f 327 361 392
f 327 392 360
f 328 362 361
f 330 360 363
f 330 363 364
f 330 364 331
f 331 364 332
f 332 364 365
f 332 365 366
f 332 366 333
f 333 366 335
f 333 335 334
f 335 366 336
f 336 366 367
f 337 367 368
f 337 368 369
f 337 369 338
f 338 369 401
f 338 401 370
f 339 370 402
f 339 402 371
f 340 371 403
f 340 403 372
f 341 372 373
f 341 373 374
f 341 374 342
f 342 374 375
f 342 375 343
f 343 375 376
f 343 376 344
f 344 376 377
f 344 377 345
f 345 377 378
f 345 378 346
f 347 379 348
f 348 379 380
f 349 381 350
f 350 381 382
f 351 382 383
f 351 383 384
f 351 384 352
f 352 384 385
f 352 385 353
f 353 385 386
f 353 386 387
f 353 387 354
f 354 387 388
f 354 388 389
f 354 389 356
f 355 356 358
f 356 389 390
f 356 390 358
f 357 358 359
f 358 391 359
f 358 390 391
f 359 391 362
f 360 392 393
f 360 393 394
f 360 394 363
f 361 362 395
f 361 395 396
f 361 396 392
f 362 397 395
f 362 391 398
f 362 398 397
f 363 399 368
f 363 368 364
f 363 394 400
f 363 400 399
f 364 368 365
f 365 368 367
f 365 367 366
f 368 399 401
f 368 401 369
f 370 401 402
f 371 402 403
f 372 403 435
f 372 435 404
f 372 404 373
f 373 404 436
f 373 436 405
f 373 405 406
f 373 406 374
f 374 406 407
f 374 407 375
f 375 407 376
f 376 407 408
f 376 408 409
f 376 409 377
f 377 409 410
f 377 410 378
f 379 411 380
f 380 411 412
f 380 412 413
f 381 414 382
f 382 414 415
f 382 415 383
f 383 415 416
f 383 416 417
f 383 417 384
f 384 417 418
f 384 418 385
f 385 418 386
f 386 418 419
f 386 419 420
f 386 420 421
f 386 421 422
f 386 422 388
f 386 388 387
f 388 422 421
f 388 421 423
f 388 423 424
f 388 424 425
f 388 425 390
f 388 390 389
f 390 425 457
f 390 457 426
f 390 426 391
f 391 426 427
f 391 427 398
f 392 396 428
f 392 428 429
f 392 429 393
f 393 400 394
f 393 429 400
f 395 397 398
f 395 398 430
f 395 430 428
f 395 428 396
f 398 427 430
f 399 400 432
f 399 432 401
f 400 431 432
f 400 429 433
f 400 433 431
f 401 432 402
f 402 432 431
f 402 431 434
f 402 434 403
f 403 434 466
f 403 466 435
f 404 435 467
f 404 467 436
f 405 436 468
f 405 468 437
f 405 437 438
f 405 438 406
f 406 438 439
f 406 439 407
f 407 439 440
f 407 440 408
f 408 440 441
f 408 441 409
f 409 441 442
f 409 442 410
f 412 443 413
f 413 443 444
f 413 444 445
f 414 446 415
f 415 446 447
f 415 447 416
f 416 447 480
f 416 480 448
f 416 448 449
f 416 449 417
f 417 449 450
f 417 450 418
f 418 450 419
f 419 450 483
f 419 483 451
f 419 451 420
f 420 452 423
f 420 423 421
f 420 451 453
f 420 453 485
f 420 485 452
f 423 454 455
f 423 455 424
f 423 452 456
f 423 456 454
f 424 455 425
f 425 455 457
f 426 457 458
f 426 458 427
f 427 458 459
f 427 459 460
f 427 460 430
f 428 430 461
f 428 461 429
f 429 461 462
f 429 462 464
f 429 464 433
f 430 460 461
f 431 433 463
f 431 463 466
f 431 466 434
f 433 464 465
f 433 465 463
f 435 466 501
f 435 501 467
f 436 467 468
f 437 469 438
f 437 468 470
f 437 470 471
f 437 471 503
f 437 503 469
f 438 469 472
f 438 472 439
f 439 472 473
f 439 473 440
f 440 473 474
f 440 474 441
f 441 474 475
f 441 475 442
f 444 476 477
f 444 477 445
f 446 478 447
f 447 478 479
f 447 479 480
f 448 480 481
f 448 481 482
f 448 482 449
f 449 482 483
f 449 483 450
f 451 483 519
f 451 519 484
f 451 484 453
f 452 485 456
f 453 484 486
f 453 486 521
f 453 521 485
f 454 456 487
f 454 487 488
f 454 488 489
f 454 489 455
f 455 490 457
f 455 489 490
f 456 485 491
f 456 491 492
f 456 492 487
f 457 490 458
f 458 490 459
f 459 490 493
f 459 493 494
f 459 494 495
f 459 495 496
f 459 496 460
f 460 496 461
f 461 496 497
f 461 497 462
f 462 497 464
f 463 465 501
f 463 501 466
f 464 497 498
f 464 498 465
f 465 498 499
f 465 499 500
f 465 500 501
f 467 501 500
f 467 500 502
f 467 502 468
f 468 502 504
f 468 504 470
f 469 503 508
f 469 508 472
f 470 504 505
f 470 505 506
f 470 506 507
f 470 507 471
f 471 507 503
f 472 508 509
f 472 509 473
f 473 509 510
f 473 510 474
f 474 510 511
f 474 511 475
f 476 512 477
f 476 513 514
f 476 514 512
f 479 515 516
f 479 516 480
f 480 516 481
f 481 516 517
f 481 517 518
f 481 518 482
f 482 518 519
f 482 519 483
f 484 519 560
f 484 560 520
f 484 520 486
f 485 521 491
f 486 520 522
f 486 522 562
f 486 562 521
f 487 492 523
f 487 523 524
f 487 524 525
f 487 525 526
f 487 526 488
f 488 526 527
f 488 527 489
f 489 527 490
f 490 527 493
f 491 528 523
f 491 523 492
f 491 521 529
f 491 529 569
f 491 569 528
f 493 527 494
f 494 527 530
f 494 530 573
f 494 573 531
f 494 531 532
f 494 532 495
f 495 532 497
f 495 497 496
f 497 532 533
f 497 533 498
f 498 533 534
f 498 534 499
f 499 534 535
f 499 535 500
f 500 535 504
f 500 504 502
f 503 507 536
f 503 536 537
f 503 537 538
f 503 538 508
f 504 535 576
f 504 576 539
f 504 539 505
f 505 540 541
f 505 541 506
f 505 539 542
f 505 542 543
f 505 543 544
f 505 544 545
f 505 545 540
f 506 541 546
f 506 546 507
f 507 546 547
f 507 547 536
f 508 538 548
f 508 548 549
f 508 549 509
f 509 549 550
f 509 550 510
f 510 550 511
f 511 550 551
f 513 552 514
f 514 552 553
f 514 553 554
f 515 555 516
f 516 555 556
f 516 556 517
f 517 556 601
f 517 601 557
f 517 557 558
f 517 558 518
f 518 558 559
f 518 559 560
f 518 560 519
f 520 560 559
f 520 559 561
f 520 561 522
f 521 562 529
f 522 561 563
f 522 563 564
f 522 564 609
f 522 609 562
f 523 528 524
f 524 565 566
f 524 566 526
f 524 526 525
f 524 528 567
f 524 567 568
f 524 568 565
f 526 566 530
f 526 530 527
f 528 569 570
f 528 570 567
f 529 562 571
f 529 571 616
f 529 616 569
f 530 566 572
f 530 572 573
f 531 573 574
f 531 574 533
f 531 533 532
f 533 574 621
f 533 621 575
f 533 575 534
f 534 575 576
f 534 576 535
f 536 538 577
f 536 577 537
f 536 547 578
f 536 578 579
f 536 579 580
f 536 580 581
f 536 581 538
f 537 577 538
f 538 582 583
f 538 583 548
f 538 581 580
f 538 580 584
f 538 584 582
f 539 576 586
f 539 586 542
f 540 546 541
f 540 545 585
f 540 585 546
f 542 586 543
f 543 586 587
f 543 587 544
f 544 587 588
f 544 588 589
f 544 589 590
f 544 590 545
f 545 590 591
f 545 591 592
f 545 592 593
f 545 593 579
f 545 579 546
f 545 546 585
f 546 579 578
f 546 578 547
f 548 583 594
f 548 594 549
f 549 594 550
f 550 594 595
f 550 595 596
f 550 596 597
f 550 597 551
f 553 598 554
f 554 598 599
f 555 600 601
f 555 601 556
f 557 601 602
f 557 602 603
f 557 603 604
f 557 604 605
f 557 605 606
f 557 606 607
f 557 607 558
f 558 607 559
f 559 607 608
f 559 608 563
f 559 563 561
f 562 609 571
f 563 608 610
f 563 610 611
f 563 611 564
f 564 611 652
f 564 652 609
f 565 612 572
f 565 572 566
f 565 568 613
f 565 613 612
f 567 570 614
f 567 614 568
f 568 614 615
f 568 615 613
f 569 616 570
f 570 616 617
f 570 617 655
f 570 655 614
f 571 609 618
f 571 618 616
f 572 619 574
f 572 574 573
f 572 612 654
f 572 654 620
f 572 620 619
f 574 619 664
f 574 664 621
f 575 621 586
f 575 586 576
f 579 593 580
f 580 593 592
f 580 592 622
f 580 622 623
f 580 623 584
f 582 584 624
f 582 624 583
f 583 624 594
f 584 623 625
f 584 625 624
f 586 621 626
f 586 626 587
f 587 626 588
f 588 627 628
f 588 628 590
f 588 590 629
f 588 629 589
f 588 626 630
f 588 630 631
f 588 631 627
f 589 629 590
f 590 632 633
f 590 633 634
f 590 634 591
f 590 628 632
f 591 634 635
f 591 635 592
f 592 635 636
f 592 636 622
f 594 637 638
f 594 638 595
f 594 624 637
f 595 638 639
f 595 639 596
f 598 640 641
f 598 641 599
f 600 642 601
f 601 642 643
f 601 643 644
f 601 644 602
f 602 644 603
f 603 644 645
f 603 645 646
f 603 646 647
f 603 647 604
f 604 647 605
f 605 647 648
f 605 648 649
f 605 649 606
f 606 608 607
f 606 649 650
f 606 650 608
f 608 650 651
f 608 651 610
f 609 652 618
f 610 651 653
f 610 653 611
f 611 653 662
f 611 662 652
f 612 613 654
f 613 615 658
f 613 658 654
f 614 655 656
f 614 656 615
f 615 656 657
f 615 657 658
f 616 618 659
f 616 659 617
f 617 659 660
f 617 660 661
f 617 661 690
f 617 690 655
f 618 652 662
f 618 662 663
f 618 663 660
f 618 660 659
f 619 620 664
f 620 654 670
f 620 670 664
f 621 664 630
f 621 630 626
f 622 636 623
f 623 636 665
f 623 665 666
f 623 666 624
f 623 624 625
f 624 666 667
f 624 667 668
f 624 668 637
f 627 669 632
f 627 632 628
f 627 631 669
f 630 664 670
f 630 670 631
f 631 670 669
f 632 669 671
f 632 671 672
f 632 672 633
f 633 672 634
f 634 672 673
f 634 673 674
f 634 674 635
f 635 674 675
f 635 675 636
f 636 675 676
f 636 676 665
f 637 668 677
f 637 677 638
f 638 677 639
f 639 677 678
f 640 679 680
f 640 680 681
f 640 681 641
f 646 682 647
f 647 682 683
f 647 683 648
f 648 683 684
f 648 684 685
f 648 685 686
f 648 686 649
f 649 686 687
f 649 687 650
f 650 687 688
f 650 688 651
f 651 688 689
f 651 689 653
f 653 689 662
f 654 658 695
f 654 695 670
f 655 690 725
f 655 725 691
f 655 691 656
f 656 691 692
f 656 692 657
f 657 692 693
f 657 693 694
f 657 694 658
f 658 694 695
f 660 663 696
f 660 696 697
f 660 697 698
f 660 698 661
f 661 698 699
f 661 699 690
f 662 689 724
f 662 724 700
f 662 700 696
f 662 696 663
f 665 676 701
f 665 701 666
f 666 701 702
f 666 702 703
f 666 703 667
f 667 704 668
f 667 703 704
f 668 704 677
f 669 694 705
f 669 705 671
f 669 670 695
f 669 695 694
f 671 705 728
f 671 728 706
f 671 706 672
f 672 706 707
f 672 707 708
f 672 708 673
f 673 708 709
f 673 709 674
f 674 709 710
f 674 710 675
f 675 710 711
f 675 711 676
f 676 711 712
f 676 712 701
f 677 704 678
f 678 704 713
f 679 714 680
f 679 715 716
f 679 716 714
f 682 717 683
f 683 717 684
f 684 717 718
f 684 718 719
f 684 719 685
f 685 720 686
f 685 719 721
f 685 721 752
f 685 752 720
f 686 720 722
f 686 722 687
f 687 722 723
f 687 723 688
f 688 723 724
f 688 724 689
f 690 699 725
f 691 725 726
f 691 726 692
f 692 726 727
f 692 727 693
f 693 727 728
f 693 728 705
f 693 705 694
f 696 700 729
f 696 729 730
f 696 730 697
f 697 730 731
f 697 731 698
f 698 731 732
f 698 732 699
f 699 732 757
f 699 757 725
f 700 724 756
f 700 756 733
f 700 733 734
f 700 734 729
f 701 712 735
f 701 735 702
f 702 735 736
f 702 736 737
f 702 737 703
f 703 737 704
f 704 737 746
f 704 746 713
f 706 728 738
f 706 738 707
f 707 738 739
f 707 739 740
f 707 740 708
f 708 740 741
f 708 741 709
f 709 741 742
f 709 742 710
f 710 742 743
f 710 743 711
f 711 744 712
f 711 743 745
f 711 745 744
f 712 744 735
f 715 747 748
f 715 748 716
f 715 749 747
f 718 750 719
f 719 750 751
f 719 751 721
f 720 752 753
f 720 753 722
f 721 751 754
f 721 754 792
f 721 792 752
f 722 753 723
f 723 753 755
f 723 755 724
f 724 755 756
f 725 757 758
f 725 758 726
f 726 758 759
f 726 759 727
f 727 759 760
f 727 760 728
f 728 760 738
f 729 734 730
f 730 734 761
f 730 761 762
f 730 762 731
f 731 762 732
f 732 762 763
f 732 763 764
f 732 764 757
f 733 756 795
f 733 795 765
f 733 765 734
f 734 765 766
f 734 766 799
f 734 799 761
f 735 744 767
f 735 767 736
f 736 767 768
f 736 768 769
f 736 769 770
f 736 770 771
f 736 771 746
f 736 746 737
f 738 760 772
f 738 772 773
f 738 773 774
f 738 774 739
f 739 774 775
f 739 775 776
f 739 776 740
f 740 776 741
f 741 776 777
f 741 777 778
f 741 778 742
f 742 778 743
f 743 778 779
f 743 779 780
f 743 780 745
f 744 781 767
f 744 745 781
f 745 780 782
f 745 782 781
f 747 749 783
f 747 783 784
f 749 785 786
f 749 786 784
f 749 784 783
f 750 787 751
f 751 787 788
f 751 788 789
f 751 789 790
f 751 790 791
f 751 791 754
f 752 792 753
f 753 792 793
f 753 793 794
f 753 794 755
f 754 791 792
f 755 794 795
f 755 795 756
f 757 764 796
f 757 796 758
f 758 796 759
f 759 796 797
f 759 797 798
f 759 798 772
f 759 772 760
f 761 799 800
f 761 800 762
f 762 800 801
f 762 801 763
f 763 801 764
f 764 801 802
f 764 802 803
f 764 803 796
f 765 795 827
f 765 827 804
f 765 804 805
f 765 805 766
f 766 805 829
f 766 829 799
f 767 781 806
f 767 806 768
f 768 806 807
f 768 807 769
f 772 798 797
f 772 797 808
f 772 808 774
f 772 774 773
f 774 808 809
f 774 809 810
f 774 810 775
f 775 810 811
f 775 811 776
f 776 811 812
f 776 812 777
f 777 812 813
f 777 813 778
f 778 813 814
f 778 814 779
f 779 814 815
f 779 815 780
f 780 815 816
f 780 816 782
f 781 782 806
f 782 817 806
f 782 816 847
f 782 847 817
f 785 818 819
f 785 819 786
f 785 820 818
f 789 821 790
f 790 821 791
f 791 822 792
f 791 821 823
f 791 823 824
f 791 824 822
f 792 822 793
f 793 822 825
f 793 825 826
f 793 826 794
f 794 826 827
f 794 827 795
f 796 803 797
f 797 803 828
f 797 828 837
f 797 837 808
f 799 829 800
f 800 829 830
f 800 830 831
f 800 831 801
f 801 831 832
f 801 832 802
f 802 832 833
f 802 833 803
f 803 833 828
f 804 827 834
f 804 834 835
f 804 835 805
f 805 835 858
f 805 858 829
f 806 817 807
f 807 817 836
f 808 837 809
f 809 837 838
f 809 838 839
f 809 839 870
f 809 870 840
f 809 840 810
f 810 840 841
f 810 841 811
f 811 841 812
f 812 841 842
f 812 842 843
f 812 843 813
f 813 843 844
f 813 844 814
f 814 844 845
f 814 845 815
f 815 845 846
f 815 846 816
f 816 846 878
f 816 878 847
f 817 847 836
f 818 820 848
f 818 848 849
f 821 850 823
f 822 824 851
f 822 851 852
f 822 852 825
f 823 850 853
f 823 853 851
f 823 851 824
f 825 852 854
f 825 854 826
f 826 855 827
f 826 854 856
f 826 856 855
f 827 855 864
f 827 864 834
f 828 833 857
f 828 857 838
f 828 838 837
f 829 858 830
f 830 858 859
f 830 859 860
f 830 860 831
f 831 860 861
f 831 861 832
f 832 861 862
f 832 862 833
f 833 862 863
f 833 863 857
f 834 864 865
f 834 865 835
f 835 865 858
f 836 847 866
f 838 857 867
f 838 867 839
f 839 867 868
f 839 868 869
f 839 869 900
f 839 900 870
f 840 870 841
f 841 870 871
f 841 871 842
f 842 871 872
f 842 872 873
f 842 873 843
f 843 873 874
f 843 874 844
f 844 874 875
f 844 875 845
f 845 875 876
f 845 876 877
f 845 877 846
f 846 877 910
f 846 910 878
f 847 878 879
f 847 879 866
f 848 880 881
f 848 881 849
f 848 882 880
f 850 883 853
f 851 853 884
f 851 884 885
f 851 885 852
f 852 885 886
f 852 886 854
f 853 883 887
f 853 887 884
f 854 886 856
f 855 888 898
f 855 898 864
f 855 856 888
f 856 886 889
f 856 889 890
f 856 890 888
f 857 863 868
f 857 868 867
f 858 865 891
f 858 891 859
f 859 891 892
f 859 892 893
f 859 893 860
f 860 893 894
f 860 894 861
f 861 894 895
f 861 895 862
f 862 895 896
f 862 896 863
f 863 896 868
f 864 897 865
f 864 898 897
f 865 897 891
f 868 896 899
f 868 899 869
f 869 899 901
f 869 901 902
f 869 902 900
f 870 900 871
f 871 900 903
f 871 903 904
f 871 904 872
f 872 904 905
f 872 905 873
f 873 905 906
f 873 906 874
f 874 906 907
f 874 907 875
f 875 907 908
f 875 908 876
f 876 908 909
f 876 909 910
f 876 910 877
f 878 911 879
f 878 910 911
f 880 912 881
f 880 882 913
f 880 913 914
f 880 914 912
f 882 915 950
f 882 950 955
f 882 955 916
f 882 916 913
f 883 917 887
f 884 887 921
f 884 921 918
f 884 918 920
f 884 920 885
f 885 919 886
f 885 920 960
f 885 960 919
f 886 919 889
f 887 917 958
f 887 958 921
f 888 890 898
f 889 919 922
f 889 922 890
f 890 922 964
f 890 964 923
f 890 923 967
f 890 967 924
f 890 924 898
f 891 897 925
f 891 925 926
f 891 926 892
f 892 926 927
f 892 927 928
f 892 928 893
f 893 928 929
f 893 929 894
f 894 929 930
f 894 930 895
f 895 930 931
f 895 931 896
f 896 931 901
f 896 901 899
f 897 898 925
f 898 924 925
f 900 902 932
f 900 932 937
f 900 937 903
f 901 931 975
f 901 975 933
f 901 933 902
f 902 933 934
f 902 934 935
f 902 935 981
f 902 981 936
f 902 936 932
f 903 937 904
f 904 938 905
f 904 937 982
f 904 982 939
f 904 939 984
f 904 984 940
f 904 940 938
f 905 938 906
f 906 941 907
f 906 938 940
f 906 940 942
f 906 942 985
f 906 985 941
f 907 941 943
f 907 943 908
f 908 943 909
f 909 943 944
f 909 944 945
f 909 945 946
f 909 946 947
f 909 947 910
f 910 947 911
f 913 948 914
f 913 916 948
f 914 948 949
f 915 951 952
f 915 952 953
f 915 953 954
f 915 954 950
f 916 955 956
f 916 956 957
f 916 957 948
f 918 921 959
f 918 959 920
f 919 960 964
f 919 964 922
f 920 959 961
f 920 961 1016
f 920 1016 962
f 920 962 960
f 921 958 963
f 921 963 959
f 923 964 965
f 923 965 966
f 923 966 967
f 924 967 970
f 924 970 968
f 924 968 925
f 925 968 926
f 926 969 927
f 926 968 970
f 926 970 971
f 926 971 972
f 926 972 969
f 927 969 973
f 927 973 928
f 928 973 974
f 928 974 929
f 929 974 930
f 930 975 931
f 930 974 976
f 930 976 975
f 932 936 982
f 932 982 937
f 933 975 934
f 934 977 1026
f 934 1026 978
f 934 978 935
f 934 975 977
f 935 978 979
f 935 979 980
f 935 980 981
f 936 981 1034
f 936 1034 982
f 939 982 1034
f 939 1034 983
f 939 983 984
f 940 984 942
f 941 985 943
f 942 984 986
f 942 986 987
f 942 987 985
f 943 985 988
f 943 988 944
f 944 989 945
f 944 988 990
f 944 990 991
f 944 991 992
f 944 992 989
f 948 957 949
f 949 957 993
f 949 993 994
f 949 994 995
f 950 954 996
f 950 996 997
f 950 997 998
f 950 998 999
f 950 999 955
f 951 1000 1001
f 951 1001 1002
f 951 1002 952
f 952 1002 953
f 953 1002 1003
f 953 1003 954
f 954 1004 997
f 954 997 996
f 954 1003 1005
f 954 1005 1006
f 954 1006 1004
f 955 999 1007
f 955 1007 1008
f 955 1008 1009
f 955 1009 1010
f 955 1010 956
f 956 1010 1011
f 956 1011 1012
f 956 1012 957
f 957 1012 1011
f 957 1011 993
f 958 1013 963
f 959 963 1014
f 959 1014 1013
f 959 1013 961
f 960 962 1015
f 960 1015 1018
f 960 1018 964
f 961 1013 1016
f 962 1016 1017
f 962 1017 1015
f 963 1013 1014
f 964 1018 965
f 965 1018 1019
f 965 1019 1021
f 965 1021 966
f 966 1020 971
f 966 971 967
f 966 1021 1020
f 967 971 970
f 969 972 1022
f 969 1022 1071
f 969 1071 1023
f 969 1023 973
f 971 1020 972
f 972 1020 1024
f 972 1024 1022
f 973 1023 1025
f 973 1025 974
f 974 1025 976
f 975 976 977
f 976 1026 977
f 976 1025 1027
f 976 1027 1028
f 976 1028 1026
f 978 1026 1029
f 978 1029 1030
f 978 1030 979
f 979 1030 1031
f 979 1031 1032
f 979 1032 980
f 980 1032 1082
f 980 1082 1033
f 980 1033 1034
f 980 1034 981
f 983 1034 1033
f 983 1033 1035
f 983 1035 1036
f 983 1036 984
f 984 1036 1037
f 984 1037 986
f 985 987 988
f 986 1037 1038
f 986 1038 987
f 987 1038 1039
f 987 1039 990
f 987 990 988
f 990 1039 1040
f 990 1040 991
f 991 1040 1041
f 991 1041 1042
f 991 1042 992
f 993 1043 1044
f 993 1044 1045
f 993 1045 995
f 993 995 994
f 993 1011 1043
f 995 1045 1046
f 997 1004 1047
f 997 1047 998
f 998 1047 999
f 999 1047 1007
f 1000 1048 1049
f 1000 1049 1050
f 1000 1050 1001
f 1001 1050 1002
f 1002 1050 1051
f 1002 1051 1003
f 1003 1051 1052
f 1003 1052 1005
f 1004 1006 1053
f 1004 1053 1047
f 1005 1052 1054
f 1005 1054 1006
f 1006 1054 1055
f 1006 1055 1053
f 1007 1047 1008
f 1008 1047 1009
f 1009 1056 1010
f 1009 1047 1056
f 1010 1056 1057
f 1010 1057 1011
f 1011 1057 1043
f 1013 1058 1059
f 1013 1059 1016
f 1015 1017 1060
f 1015 1060 1018
f 1016 1061 1062
f 1016 1062 1017
f 1016 1059 1063
f 1016 1063 1061
f 1017 1062 1060
f 1018 1060 1064
f 1018 1064 1019
f 1019 1064 1065
f 1019 1065 1066
f 1019 1066 1069
f 1019 1069 1021
f 1020 1021 1067
f 1020 1067 1068
f 1020 1068 1024
f 1021 1069 1067
f 1022 1024 1070
f 1022 1070 1072
f 1022 1072 1071
f 1023 1071 1027
f 1023 1027 1025
f 1024 1068 1070
f 1026 1028 1029
f 1027 1071 1072
f 1027 1072 1125
f 1027 1125 1073
f 1027 1073 1074
f 1027 1074 1028
f 1028 1074 1029
f 1029 1074 1075
f 1029 1075 1076
f 1029 1076 1030
f 1030 1076 1077
f 1030 1077 1078
f 1030 1078 1031
f 1031 1079 1032
f 1031 1078 1079
f 1032 1079 1080
f 1032 1080 1081
f 1032 1081 1082
f 1033 1082 1083
f 1033 1083 1035
f 1035 1083 1084
f 1035 1084 1036
f 1036 1084 1085
f 1036 1085 1037
f 1037 1085 1086
f 1037 1086 1038
f 1038 1087 1039
f 1038 1086 1087
f 1039 1087 1088
f 1039 1088 1040
f 1040 1088 1041
f 1041 1088 1089
f 1043 1057 1090
f 1043 1090 1091
f 1043 1091 1092
f 1043 1092 1093
f 1043 1093 1045
f 1043 1045 1044
f 1045 1093 1094
f 1045 1094 1095
f 1045 1095 1046
f 1046 1095 1096
f 1047 1097 1056
f 1047 1053 1098
f 1047 1098 1097
f 1048 1099 1100
f 1048 1100 1049
f 1049 1100 1101
f 1049 1101 1050
f 1050 1101 1102
f 1050 1102 1051
f 1051 1102 1103
f 1051 1103 1052
f 1052 1103 1104
f 1052 1104 1054
f 1053 1055 1098
f 1054 1104 1055
f 1055 1105 1098
f 1055 1104 1106
f 1055 1106 1105
f 1056 1097 1057
f 1057 1097 1107
f 1057 1107 1108
f 1057 1108 1109
f 1057 1109 1110
f 1057 1110 1090
f 1058 1111 1112
f 1058 1112 1059
f 1059 1112 1063
f 1060 1062 1113
f 1060 1113 1118
f 1060 1118 1065
f 1060 1065 1064
f 1061 1114 1113
f 1061 1113 1062
f 1061 1063 1115
f 1061 1115 1114
f 1063 1112 1116
f 1063 1116 1117
f 1063 1117 1115
f 1065 1118 1066
f 1066 1118 1119
f 1066 1119 1069
f 1067 1120 1121
f 1067 1121 1068
f 1067 1069 1120
f 1068 1121 1070
f 1069 1119 1122
f 1069 1122 1123
f 1069 1123 1120
f 1070 1121 1124
f 1070 1124 1125
f 1070 1125 1072
f 1073 1075 1074
f 1073 1125 1126
f 1073 1126 1127
f 1073 1127 1075
f 1075 1127 1128
f 1075 1128 1076
f 1076 1128 1129
f 1076 1129 1078
f 1076 1078 1077
f 1078 1129 1130
f 1078 1130 1131
f 1078 1131 1079
f 1079 1131 1132
f 1079 1132 1080
f 1080 1133 1081
f 1080 1132 1134
f 1080 1134 1135
f 1080 1135 1184
f 1080 1184 1133
f 1081 1136 1083
f 1081 1083 1082
f 1081 1133 1183
f 1081 1183 1136
f 1083 1136 1084
f 1084 1136 1183
f 1084 1183 1137
f 1084 1137 1191
f 1084 1191 1138
f 1084 1138 1085
f 1085 1138 1139
f 1085 1139 1086
f 1086 1139 1140
f 1086 1140 1141
f 1086 1141 1087
f 1087 1141 1142
f 1087 1142 1088
f 1088 1142 1143
f 1088 1143 1089
f 1090 1110 1144
f 1090 1144 1091
f 1091 1144 1092
f 1092 1144 1145
f 1092 1145 1093
f 1093 1145 1094
f 1094 1145 1146
f 1094 1146 1147
f 1094 1147 1148
f 1094 1148 1096
f 1094 1096 1095
f 1096 1148 1149
f 1097 1098 1150
f 1097 1150 1107
f 1098 1105 1150
f 1099 1151 1100
f 1100 1151 1152
f 1100 1152 1153
f 1100 1153 1101
f 1101 1153 1102
f 1102 1153 1154
f 1102 1154 1103
f 1103 1154 1155
f 1103 1155 1104
f 1104 1155 1106
f 1105 1156 1150
f 1105 1106 1157
f 1105 1157 1156
f 1106 1155 1158
f 1106 1158 1157
f 1107 1150 1108
f 1108 1150 1109
f 1109 1150 1159
f 1109 1159 1110
f 1110 1159 1160
f 1110 1160 1145
f 1110 1145 1144
f 1111 1161 1112
f 1112 1161 1162
f 1112 1162 1116
f 1113 1114 1163
f 1113 1163 1118
f 1114 1115 1164
f 1114 1164 1163
f 1115 1117 1164
f 1116 1162 1117
f 1117 1162 1165
f 1117 1165 1166
f 1117 1166 1164
f 1118 1167 1119
f 1118 1163 1167
f 1119 1167 1122
f 1120 1123 1168
f 1120 1168 1121
f 1121 1168 1124
f 1122 1167 1169
f 1122 1169 1170
f 1122 1170 1171
f 1122 1171 1123
f 1123 1171 1168
f 1124 1168 1172
f 1124 1172 1126
f 1124 1126 1125
f 1126 1172 1173
f 1126 1173 1174
f 1126 1174 1175
f 1126 1175 1127
f 1127 1175 1176
f 1127 1176 1128
f 1128 1176 1177
f 1128 1177 1179
f 1128 1179 1178
f 1128 1178 1129
f 1129 1178 1130
f 1130 1178 1179
f 1130 1179 1131
f 1131 1179 1180
f 1131 1180 1181
f 1131 1181 1182
f 1131 1182 1132
f 1132 1182 1134
f 1133 1184 1248
f 1133 1248 1183
f 1134 1182 1181
f 1134 1181 1185
f 1134 1185 1186
f 1134 1186 1187
f 1134 1187 1188
f 1134 1188 1189
f 1134 1189 1135
f 1135 1189 1249
f 1135 1249 1184
f 1137 1183 1190
f 1137 1190 1191
f 1138 1191 1192
f 1138 1192 1139
f 1139 1192 1193
f 1139 1193 1194
f 1139 1194 1140
f 1140 1194 1195
f 1140 1195 1196
f 1140 1196 1142
f 1140 1142 1141
f 1142 1196 1197
f 1142 1197 1143
f 1145 1160 1198
f 1145 1198 1199
f 1145 1199 1146
f 1146 1199 1200
f 1146 1200 1201
f 1146 1201 1147
f 1147 1202 1148
f 1147 1201 1203
f 1147 1203 1204
f 1147 1204 1205
f 1147 1205 1202
f 1148 1202 1149
f 1149 1202 1206
f 1150 1156 1159
f 1151 1207 1152
f 1152 1207 1208
f 1152 1208 1209
f 1152 1209 1210
f 1152 1210 1153
f 1153 1210 1211
f 1153 1211 1212
f 1153 1212 1213
f 1153 1213 1154
f 1154 1213 1212
f 1154 1212 1214
f 1154 1214 1215
f 1154 1215 1155
f 1155 1215 1219
f 1155 1219 1158
f 1156 1216 1159
f 1156 1157 1217
f 1156 1217 1216
f 1157 1158 1218
f 1157 1218 1217
f 1158 1219 1220
f 1158 1220 1221
f 1158 1221 1218
f 1159 1216 1160
f 1160 1216 1222
f 1160 1222 1223
f 1160 1223 1198
f 1161 1224 1162
f 1162 1225 1226
f 1162 1226 1165
f 1162 1224 1227
f 1162 1227 1228
f 1162 1228 1225
f 1163 1229 1167
f 1163 1164 1230
f 1163 1230 1229
f 1164 1166 1230
f 1165 1231 1232
f 1165 1232 1233
f 1165 1233 1234
f 1165 1234 1166
f 1165 1226 1235
f 1165 1235 1236
f 1165 1236 1237
f 1165 1237 1238
f 1165 1238 1231
f 1166 1234 1230
f 1167 1229 1241
f 1167 1241 1169
f 1168 1171 1170
f 1168 1170 1239
f 1168 1239 1172
f 1169 1240 1170
f 1169 1241 1240
f 1170 1240 1239
f 1172 1239 1173
f 1173 1239 1174
f 1174 1239 1242
f 1174 1242 1175
f 1175 1242 1243
f 1175 1243 1176
f 1176 1243 1244
f 1176 1244 1246
f 1176 1246 1245
f 1176 1245 1177
f 1177 1245 1180
f 1177 1180 1179
f 1180 1245 1246
f 1180 1246 1247
f 1180 1247 1185
f 1180 1185 1181
f 1183 1248 1190
f 1184 1249 1248
f 1185 1247 1186
f 1186 1247 1187
f 1187 1250 1188
f 1187 1247 1251
f 1187 1251 1252
f 1187 1252 1300
f 1187 1300 1250
f 1188 1250 1189
f 1189 1250 1253
f 1189 1253 1296
f 1189 1296 1249
f 1190 1248 1254
f 1190 1254 1255
f 1190 1255 1256
f 1190 1256 1191
f 1191 1256 1257
f 1191 1257 1192
f 1192 1257 1258
f 1192 1258 1259
f 1192 1259 1260
f 1192 1260 1193
f 1193 1195 1194
f 1193 1260 1261
f 1193 1261 1195
f 1195 1262 1196
f 1195 1261 1262
f 1196 1262 1197
f 1198 1223 1222
f 1198 1222 1263
f 1198 1263 1199
f 1199 1263 1200
f 1200 1263 1264
f 1200 1264 1203
f 1200 1203 1201
f 1202 1205 1228
f 1202 1228 1206
f 1203 1264 1204
f 1204 1228 1205
f 1204 1264 1265
f 1204 1265 1266
f 1204 1266 1267
f 1204 1267 1238
f 1204 1238 1237
f 1204 1237 1236
f 1204 1236 1228
f 1206 1228 1268
f 1209 1269 1270
f 1209 1270 1210
f 1210 1271 1272
f 1210 1272 1211
f 1210 1270 1273
f 1210 1273 1271
f 1211 1272 1271
f 1211 1271 1274
f 1211 1274 1212
f 1212 1274 1275
f 1212 1275 1214
f 1214 1275 1276
f 1214 1276 1215
f 1215 1276 1219
f 1216 1217 1277
f 1216 1277 1222
f 1217 1218 1277
f 1218 1221 1220
f 1218 1220 1278
f 1218 1278 1279
f 1218 1279 1277
f 1219 1276 1280
f 1219 1280 1220
f 1220 1280 1281
f 1220 1281 1278
f 1222 1277 1263
f 1225 1228 1226
f 1226 1228 1235
f 1227 1268 1228
f 1228 1236 1235
f 1229 1230 1282
f 1229 1282 1241
f 1230 1234 1282
f 1231 1238 1283
f 1231 1283 1284
f 1231 1284 1285
f 1231 1285 1286
f 1231 1286 1287
f 1231 1287 1232
f 1232 1287 1286
f 1232 1286 1288
f 1232 1288 1233
f 1233 1288 1282
f 1233 1282 1234
f 1238 1267 1283
f 1239 1240 1289
f 1239 1289 1242
f 1240 1241 1290
f 1240 1290 1289
f 1241 1282 1288
f 1241 1288 1290
f 1242 1289 1291
f 1242 1291 1292
f 1242 1292 1243
f 1243 1292 1293
f 1243 1293 1244
f 1244 1293 1294
f 1244 1294 1246
f 1246 1294 1295
f 1246 1295 1251
f 1246 1251 1247
f 1248 1249 1296
f 1248 1296 1297
f 1248 1297 1298
f 1248 1298 1254
f 1250 1299 1253
f 1250 1300 1299
f 1251 1295 1301
f 1251 1301 1302
f 1251 1302 1252
f 1252 1302 1303
f 1252 1303 1304
f 1252 1304 1300
f 1253 1299 1296
f 1254 1298 1305
f 1254 1305 1255
f 1255 1305 1306
f 1255 1306 1257
f 1255 1257 1256
f 1257 1306 1307
f 1257 1307 1308
f 1257 1308 1259
f 1257 1259 1258
f 1259 1308 1260
f 1260 1308 1309
f 1260 1309 1310
f 1260 1310 1311
f 1260 1311 1261
f 1261 1311 1310
f 1261 1310 1312
f 1261 1312 1262
f 1263 1277 1313
f 1263 1313 1264
f 1264 1313 1314
f 1264 1314 1315
f 1264 1315 1265
f 1265 1315 1283
f 1265 1283 1266
f 1266 1283 1267
f 1269 1316 1270
f 1270 1316 1317
f 1270 1317 1318
f 1270 1318 1319
f 1270 1319 1273
f 1271 1273 1320
f 1271 1320 1321
f 1271 1321 1274
f 1273 1319 1322
f 1273 1322 1320
f 1274 1321 1275
f 1275 1321 1323
f 1275 1323 1276
f 1276 1323 1324
f 1276 1324 1280
f 1277 1279 1313
f 1278 1281 1304
f 1278 1304 1303
f 1278 1303 1302
f 1278 1302 1279
f 1279 1325 1313
f 1279 1302 1325
f 1280 1324 1326
f 1280 1326 1281
f 1281 1326 1327
f 1281 1327 1304
f 1283 1315 1328
f 1283 1328 1284
f 1284 1328 1329
f 1284 1329 1330
f 1284 1330 1286
f 1284 1286 1285
f 1286 1330 1331
f 1286 1331 1332
f 1286 1332 1333
f 1286 1333 1288
f 1288 1333 1290
f 1289 1290 1291
f 1290 1333 1332
f 1290 1332 1291
f 1291 1332 1292
f 1292 1332 1331
f 1292 1331 1293
f 1293 1331 1330
f 1293 1330 1294
f 1294 1330 1329
f 1294 1329 1301
f 1294 1301 1295
f 1296 1299 1334
f 1296 1334 1297
f 1297 1334 1335
f 1297 1335 1336
f 1297 1336 1298
f 1298 1336 1337
f 1298 1337 1305
f 1299 1300 1327
f 1299 1327 1334
f 1300 1304 1327
f 1301 1329 1328
f 1301 1328 1325
f 1301 1325 1302
f 1305 1337 1322
f 1305 1322 1306
f 1306 1322 1319
f 1306 1319 1307
f 1307 1319 1318
f 1307 1318 1309
f 1307 1309 1308
f 1309 1318 1317
f 1309 1317 1338
f 1309 1338 1339
f 1309 1339 1312
f 1309 1312 1310
f 1313 1325 1315
f 1313 1315 1314
f 1315 1325 1328
f 1320 1322 1337
f 1320 1337 1321
f 1321 1337 1336
f 1321 1336 1323
f 1323 1336 1335
f 1323 1335 1324
f 1324 1335 1326
f 1326 1335 1334
f 1326 1334 1327
