v 0.69782591 -0.48563242 0.25649467
v 0.76767910 -0.48563242 -0.00206757
v 0.87766725 -0.48563242 0.25649467
v 0.80064493 0.49188933 0.25649467
v 0.86400300 0.48994866 -0.00206757
v 0.93312091 -0.48563242 -0.00206757
v 0.87806559 -0.48563242 0.25555822
v 0.87846386 -0.48449087 0.25649467
v 0.80297339 0.50992608 0.25649467
v 0.86856800 0.52990341 -0.00206757
v 0.86611700 0.50992608 -0.00206757
v 0.93826801 -0.47661406 -0.00206757
v 0.93305963 -0.48563242 0.01000508
v 0.88229352 -0.48563242 0.24553564
v 0.88272244 -0.48437673 0.24654803
v 0.88318199 -0.47638577 0.25649467
v 0.80426013 0.51917273 0.25649467
v 0.80576134 0.52990341 0.25649467
v 0.87141722 0.54988080 -0.00206757
v 0.94025940 -0.47261858 -0.00206757
v 0.94320059 -0.46656829 0.01000508
v 0.93823737 -0.47649992 0.01000508
v 0.93226308 -0.48563242 0.03002492
v 0.88330454 -0.48563242 0.24295408
v 0.89865386 -0.47752732 0.21625251
v 0.89663184 -0.47044963 0.23148885
v 0.88753253 -0.47193366 0.25193897
v 0.89038181 -0.48563242 0.22473121
v 0.88639891 -0.47033548 0.25649467
v 0.80698687 0.53743774 0.25649467
v 0.87267339 0.55775762 -0.00206757
v 0.94326186 -0.46656829 -0.00206757
v 0.95079869 -0.44990146 -0.00206757
v 0.95070678 -0.44990146 0.01000508
v 0.94280231 -0.46576917 0.03002492
v 0.93783909 -0.47570080 0.03002492
v 0.93125200 -0.48563242 0.04404641
v 0.89531440 -0.48563242 0.21159557
v 0.89712203 -0.48563242 0.20671082
v 0.90098232 -0.48163694 0.20291439
v 0.90453625 -0.47044963 0.20974796
v 0.90214652 -0.46417099 0.22581951
v 0.89963424 -0.45926225 0.23915765
v 0.89415020 -0.45503849 0.25649467
v 0.80907023 0.54988080 0.25649467
v 0.87466478 0.56985819 -0.00206757
v 0.95484281 -0.43996984 -0.00206757
v 0.95747763 -0.43323463 0.01000508
v 0.94991016 -0.44990146 0.03002492
v 0.94209766 -0.46428514 0.05001946
v 0.93710375 -0.47433096 0.05001946
v 0.93079245 -0.48563242 0.05001946
v 0.89975679 -0.48563242 0.19901672
v 0.90306568 -0.48517579 0.18998121
v 0.91127646 -0.46987885 0.18998121
v 0.91820049 -0.45595175 0.18998121
v 0.91504484 -0.44898820 0.20929238
v 0.90597618 -0.45149964 0.23148885
v 0.90266734 -0.44590598 0.24657333
v 0.89905214 -0.44487858 0.25649467
v 0.89788795 -0.45149964 0.25193897
v 0.89611095 -0.45115715 0.25649467
v 0.81011188 0.55570281 0.25649467
v 0.87831068 0.58960724 -0.00206757
v 0.95750827 -0.43323463 -0.00206757
v 0.96118474 -0.42330301 -0.00206757
v 0.96115410 -0.42318887 0.01000508
v 0.96075583 -0.42216146 0.03002492
v 0.95707935 -0.43209302 0.03002492
v 0.94850087 -0.44990146 0.05001946
v 0.94105601 -0.46211618 0.07001400
v 0.93606210 -0.47216195 0.07001400
v 0.92858660 -0.48563242 0.07079859
v 0.92935252 -0.48563242 0.06381316
v 0.90272862 -0.48563242 0.18998121
v 0.91869068 -0.47741318 0.14999214
v 0.91669929 -0.46999300 0.17163180
v 0.90328014 -0.48563242 0.18805769
v 0.90830463 -0.48563242 0.17051817
v 0.91066372 -0.48563242 0.16216603
v 0.91982430 -0.45960474 0.17937651
v 0.92255104 -0.44590598 0.18998121
v 0.92068213 -0.44156802 0.20218042
v 0.91844559 -0.43597436 0.21551853
v 0.90266734 -0.43643099 0.25649467
v 0.91581082 -0.42958158 0.22966656
v 0.81268543 0.56905907 0.25649467
v 0.87959743 0.59600002 -0.00206757
v 0.96565783 -0.40994668 -0.00206757
v 0.96559656 -0.40994668 0.01000508
v 0.96483058 -0.40994668 0.03002492
v 0.96029627 -0.42090571 0.04394517
v 0.95695680 -0.42855418 0.05037379
v 0.95438325 -0.42992407 0.07001400
v 0.94641751 -0.44990146 0.07001400
v 0.94029003 -0.46063215 0.08213726
v 0.93532681 -0.46828061 0.08927456
v 0.92601305 -0.48563242 0.08995791
v 0.92644197 -0.48563242 0.08692077
v 0.91507548 -0.48563242 0.14574014
v 0.91994685 -0.47992462 0.13989364
v 0.92368460 -0.46748155 0.14999214
v 0.92163193 -0.46325773 0.16606370
v 0.93171161 -0.44990146 0.14999214
v 0.92530841 -0.45172793 0.17163180
v 0.92886233 -0.42992407 0.18998121
v 0.93544936 -0.42855418 0.16877182
v 0.92294931 -0.42958158 0.20929238
v 0.92098850 -0.42261803 0.22278237
v 0.90625197 -0.43186474 0.25193897
v 0.90505707 -0.43015236 0.25649467
v 0.91853750 -0.41565454 0.23612049
v 0.81430918 0.57636511 0.25649467
v 0.88094544 0.60205030 -0.00206757
v 0.97175461 -0.38996932 -0.00206757
v 0.97172397 -0.38996932 0.01000508
v 0.97098869 -0.38996932 0.03002492
v 0.96286982 -0.41154486 0.05037379
v 0.96957940 -0.38996932 0.05001946
v 0.95974481 -0.41919339 0.05728330
v 0.95904011 -0.41702437 0.07001400
v 0.95165652 -0.42992407 0.09000853
v 0.94338441 -0.45092887 0.08927456
v 0.93927902 -0.45834905 0.09547539
v 0.93103755 -0.46987885 0.11002838
v 0.92301059 -0.48528993 0.11002838
v 0.92325568 -0.48563242 0.10704185
v 0.91758776 -0.48563242 0.13503420
v 0.92138678 -0.48243606 0.12660612
v 0.92561477 -0.47193366 0.13192113
v 0.93649101 -0.44921649 0.13063034
v 0.93946284 -0.43859994 0.13774233
v 0.93799227 -0.43471867 0.14999214
v 0.93851310 -0.41554034 0.17461832
v 0.93627656 -0.40926176 0.18947501
v 0.94032067 -0.42090571 0.16125488
v 0.92959762 -0.40994668 0.20997575
v 0.92297995 -0.40937591 0.22966656
v 0.91553509 -0.40937591 0.24920553
v 0.90986717 -0.41679609 0.25649467
v 0.92074341 -0.40229821 0.24201763
v 0.81746483 0.58983552 0.25649467
v 0.88263053 0.60912800 -0.00206757
v 0.97500217 -0.37786871 -0.00206757
v 0.97705489 -0.36999193 0.01000508
v 0.97635025 -0.36999193 0.03002492
v 0.97500217 -0.36999193 0.05001946
v 0.96228766 -0.40709275 0.07001400
v 0.97298014 -0.36999193 0.07001400
v 0.96752667 -0.38996932 0.07001400
v 0.96093965 -0.40298313 0.09000853
v 0.95766145 -0.41291475 0.09000853
v 0.94831705 -0.42992407 0.11002838
v 0.94228148 -0.44533521 0.11002838
v 0.93799227 -0.45538098 0.11002838
v 0.92028385 -0.48563242 0.12237943
v 0.92273486 -0.48563242 0.11002838
v 0.91890520 -0.48563242 0.12908646
v 0.94090283 -0.44213879 0.12442950
v 0.94378269 -0.43117982 0.13063034
v 0.94173002 -0.42467290 0.14999214
v 0.94212830 -0.40926176 0.16877182
v 0.94068837 -0.40218404 0.18243897
v 0.93869692 -0.39556298 0.19577709
v 0.94669330 -0.40994668 0.14999214
v 0.93621528 -0.38928437 0.20916584
v 0.92883170 -0.38996932 0.22997028
v 0.91810858 -0.39362231 0.25533044
v 0.91722012 -0.39487803 0.25649467
v 0.91228747 -0.41006082 0.25649467
v 0.92212212 -0.38814279 0.24920553
v 0.81994647 0.59999549 0.25649467
v 0.82236683 0.60912800 0.25649467
v 0.88505089 0.61780387 -0.00206757
v 0.97708553 -0.36999193 -0.00206757
v 0.97978163 -0.35903290 0.01000508
v 0.97941399 -0.35732058 0.03002492
v 0.97873998 -0.35401002 0.05001946
v 0.97025341 -0.36999193 0.09000853
v 0.97788209 -0.34875882 0.06948249
v 0.97494090 -0.34990039 0.09000853
v 0.96479994 -0.38996932 0.09000853
v 0.96011245 -0.40035754 0.10079040
v 0.95616019 -0.40823436 0.10848449
v 0.95131952 -0.40994668 0.12997229
v 0.95285136 -0.38996932 0.14999214
v 0.94770432 -0.38996932 0.16996136
v 0.94237339 -0.38928437 0.18947501
v 0.94062710 -0.38220668 0.20197794
v 0.93842119 -0.37375909 0.21529076
v 0.93529618 -0.36827958 0.22819862
v 0.92074341 -0.38289163 0.25649467
v 0.91856813 -0.39042595 0.25649467
v 0.91777158 -0.39316568 0.25649467
v 0.92665642 -0.36999193 0.24999014
v 0.92245913 -0.37649885 0.25649467
v 0.82328594 0.61198193 0.25649467
v 0.88848227 0.62990445 -0.00206757
v 0.97981226 -0.35903290 -0.00206757
v 0.98180372 -0.34898713 0.01000508
v 0.98143601 -0.34727481 0.03002492
v 0.98079264 -0.34407842 0.05001946
v 0.98024118 -0.34133866 0.06244645
v 0.96691394 -0.36999193 0.11002838
v 0.96182811 -0.38974100 0.10848449
v 0.97947526 -0.33711487 0.07578457
v 0.97858679 -0.33026549 0.09061596
v 0.97536987 -0.32992300 0.11002838
v 0.97154015 -0.34990039 0.11002838
v 0.95888692 -0.39624792 0.11415383
v 0.95744699 -0.38974100 0.13032663
v 0.95937717 -0.37752625 0.13718551
v 0.95793718 -0.37056270 0.15065019
v 0.95309651 -0.36999193 0.16996136
v 0.94742858 -0.36999193 0.18998121
v 0.94185257 -0.36827958 0.20916584
v 0.94010621 -0.36051694 0.22035265
v 0.92405224 -0.36999193 0.25649467
v 0.93128264 -0.34990039 0.24999014
v 0.82962787 0.63161683 0.25649467
v 0.89583522 0.64816952 -0.00206757
v 0.98180372 -0.34910131 -0.00206757
v 0.98538828 -0.32992300 -0.00206757
v 0.98535764 -0.32992300 0.01000508
v 0.98465300 -0.32992300 0.03002492
v 0.98336619 -0.32992300 0.05001946
v 0.98140538 -0.33026549 0.06948249
v 0.96262467 -0.37056270 0.13032663
v 0.96081710 -0.38289163 0.12389800
v 0.96749604 -0.34990039 0.12997229
v 0.98060882 -0.32375857 0.08431388
v 0.97962844 -0.31736580 0.09765201
v 0.97843361 -0.31040227 0.10992714
v 0.97451198 -0.30994564 0.12997229
v 0.97135633 -0.32992300 0.12997229
v 0.96103156 -0.36428410 0.14439873
v 0.95943844 -0.35732058 0.15776217
v 0.95766145 -0.35035703 0.16986012
v 0.95202416 -0.34990039 0.18998121
v 0.94574350 -0.34990039 0.20997575
v 0.94120920 -0.34990039 0.22341511
v 0.93756330 -0.34990039 0.23343769
v 0.92641133 -0.35971785 0.25649467
v 0.93906456 -0.33506006 0.23756313
v 0.93597019 -0.32900977 0.24849686
v 0.93266135 -0.32935223 0.25649467
v 0.92867851 -0.34967208 0.25649467
v 0.83639872 0.64611471 0.25649467
v 0.90110487 0.65810114 -0.00206757
v 0.98848265 -0.30994564 -0.00206757
v 0.98845202 -0.30994564 0.01000508
v 0.98780859 -0.30971733 0.03002492
v 0.98646057 -0.30994564 0.05001946
v 0.98449981 -0.30971733 0.06981152
v 0.96262467 -0.35035703 0.15065019
v 0.96673012 -0.32992300 0.14999214
v 0.98165047 -0.31040227 0.09061596
v 0.98054755 -0.30389535 0.10316949
v 0.97852552 -0.30971733 0.10992714
v 0.97935271 -0.29453450 0.11650762
v 0.97454262 -0.30971733 0.12997229
v 0.96991640 -0.30994564 0.14999214
v 0.96081710 -0.34407842 0.16315310
v 0.95904011 -0.33460343 0.17649123
v 0.95658916 -0.32878146 0.18846264
v 0.94963443 -0.32992300 0.20997575
v 0.94271040 -0.32900977 0.23052709
v 0.94029003 -0.32170376 0.24082807
v 0.93731821 -0.30971733 0.25317913
v 0.93526554 -0.31394112 0.25649467
v 0.83921736 0.65090925 0.25649467
v 0.84191346 0.65536135 0.25649467
v 0.85211569 0.66620624 0.25649467
v 0.91109264 0.66757613 -0.00206757
v 0.98851329 -0.30971733 -0.00206757
v 0.98848265 -0.30971733 0.01000508
v 0.98649120 -0.30971733 0.05001946
v 0.99032086 -0.28985411 0.03002492
v 0.98701203 -0.28985411 0.07001400
v 0.96182811 -0.32878146 0.16986012
v 0.98434663 -0.28985411 0.09000853
v 0.98122156 -0.28871253 0.10992714
v 0.98011863 -0.28117821 0.12075962
v 0.97760636 -0.28871253 0.12842841
v 0.96994704 -0.30971733 0.14999214
v 0.97252059 -0.28985411 0.14999214
v 0.96486121 -0.30971733 0.16975889
v 0.96020436 -0.32124713 0.18076853
v 0.95805973 -0.30994564 0.19357517
v 0.95288199 -0.30994564 0.20997575
v 0.94601923 -0.30994564 0.22997028
v 0.94120920 -0.30971733 0.24318185
v 0.93590891 -0.30994564 0.25649467
v 0.93878883 -0.28939748 0.25649467
v 0.86550426 0.67385471 0.25649467
v 0.92864788 0.67762190 -0.00206757
v 0.99102557 -0.28985411 -0.00206757
v 0.99099493 -0.28985411 0.01000508
v 0.98900348 -0.28985411 0.05001946
v 0.99246550 -0.26987672 0.03002492
v 0.98918730 -0.26987672 0.07001400
v 0.98655248 -0.26987672 0.09000853
v 0.98324364 -0.26987672 0.11002838
v 0.98070073 -0.26987672 0.12346774
v 0.97855616 -0.26987672 0.13338909
v 0.96740413 -0.28985411 0.16996136
v 0.97472644 -0.26987672 0.14999214
v 0.96109283 -0.30971733 0.18345135
v 0.95919329 -0.29327878 0.19729567
v 0.95291263 -0.30971733 0.20997575
v 0.94604987 -0.30971733 0.22997028
v 0.94868469 -0.28985411 0.22997028
v 0.94252658 -0.28985411 0.24662396
v 0.94059646 -0.27352974 0.25649467
v 0.87114149 0.67659450 0.25649467
v 0.87693197 0.67853510 0.25649467
v 0.88082290 0.67979085 0.25649467
v 0.93863565 0.68024749 -0.00206757
v 0.99228168 -0.27786767 -0.00206757
v 0.99310887 -0.26987672 0.01000508
v 0.99114811 -0.26987672 0.05001946
v 0.99424243 -0.24989933 0.03002492
v 0.99295568 -0.24989933 0.05001946
v 0.99102557 -0.24989933 0.07001400
v 0.98839074 -0.24989933 0.09000853
v 0.98508191 -0.24989933 0.11002838
v 0.98161983 -0.24989933 0.12771975
v 0.97947526 -0.24989933 0.13769171
v 0.96957940 -0.26987672 0.16996136
v 0.96397275 -0.26987672 0.18998121
v 0.96188939 -0.28791344 0.19038616
v 0.97656471 -0.24989933 0.14999214
v 0.97144824 -0.24989933 0.16996136
v 0.95998991 -0.28003663 0.20002910
v 0.95640528 -0.28791344 0.20800160
v 0.95723253 -0.26987672 0.21159557
v 0.95092124 -0.26987672 0.22997028
v 0.94304740 -0.26919177 0.25128090
v 0.94142365 -0.26519629 0.25649467
v 0.88385600 0.67990500 0.25649467
v 0.88747126 0.68001914 0.25649467
v 0.89758158 0.68013334 0.22997028
v 0.94546777 0.68036163 -0.00206757
v 0.99310887 -0.26987672 -0.00206757
v 0.99488586 -0.24989933 0.01000508
v 0.99577433 -0.22992197 0.03002492
v 0.99451822 -0.22992197 0.05001946
v 0.99258804 -0.22992197 0.07001400
v 0.98998386 -0.22992197 0.09000853
v 0.98670566 -0.22992197 0.11002838
v 0.98220199 -0.23152015 0.13187051
v 0.97993481 -0.23939693 0.13979240
v 0.96581101 -0.24989933 0.18998121
v 0.96051073 -0.26987672 0.20159829
v 0.97824979 -0.23152015 0.14910631
v 0.97307205 -0.22992197 0.16996136
v 0.95815164 -0.24989933 0.21445553
v 0.95275944 -0.24989933 0.22997028
v 0.94534522 -0.24989933 0.24999014
v 0.94218957 -0.25743365 0.25649467
v 0.90257543 0.68001914 0.25649467
v 0.91057181 0.68013334 0.23002090
v 0.92996526 0.68024749 0.14999214
v 0.94997144 0.68036163 0.05001946
v 0.94997144 0.68036163 -0.00206757
v 0.99485523 -0.24989933 -0.00206757
v 0.99638706 -0.22992197 0.01000508
v 0.99706113 -0.20994458 0.03002492
v 0.99583560 -0.20994458 0.05001946
v 0.99390543 -0.20994458 0.07001400
v 0.99136257 -0.20994458 0.09000853
v 0.98808438 -0.20994458 0.11002838
v 0.98413217 -0.20994458 0.12997229
v 0.98045564 -0.22604063 0.14189309
v 0.96740413 -0.22992197 0.18998121
v 0.96142983 -0.24989933 0.20445827
v 0.97855616 -0.20994458 0.15416822
v 0.97445071 -0.20994458 0.16996136
v 0.96881342 -0.20994458 0.18998121
v 0.95894819 -0.22992197 0.21691056
v 0.95438325 -0.22992197 0.22997028
v 0.94696903 -0.22992197 0.24999014
v 0.94356823 -0.24088097 0.25649467
v 0.94283295 -0.24989933 0.25649467
v 0.91222620 0.67910594 0.25649467
v 0.91391128 0.67944837 0.24999014
v 0.91761839 0.67979085 0.23670262
v 0.92046767 0.67990500 0.22336449
v 0.92408288 0.68013334 0.18998121
v 0.94375205 0.68024749 0.11002838
v 0.92150933 0.68001914 0.20997575
v 0.96002054 0.67990500 0.06107973
v 0.96060264 0.68001914 0.03002492
v 0.95646656 0.68024749 -0.00206757
v 0.99632579 -0.22992197 -0.00206757
v 0.99764323 -0.20994458 0.01000508
v 0.99819469 -0.18996719 0.03002492
v 0.99696922 -0.18996719 0.05001946
v 0.99506968 -0.18996719 0.07001400
v 0.99252677 -0.18996719 0.09000853
v 0.98927921 -0.18996719 0.11002838
v 0.98535764 -0.18996719 0.12997229
v 0.98100710 -0.20994458 0.14414564
v 0.96222639 -0.22992197 0.20691329
v 0.98161983 -0.18996719 0.14665128
v 0.97916889 -0.18996719 0.15664855
v 0.97567624 -0.18996719 0.16996136
v 0.97003895 -0.18996719 0.18998121
v 0.96234894 -0.20800391 0.21121591
v 0.95956099 -0.21336928 0.21870753
v 0.95661980 -0.20800391 0.22799614
v 0.94837832 -0.20994458 0.24999014
v 0.94442612 -0.22992197 0.25649467
v 0.92322505 0.67533875 0.25649467
v 0.92828023 0.67750770 0.23002090
v 0.93149716 0.67853510 0.20997575
v 0.93410128 0.67944837 0.18998121
v 0.93725693 0.67979085 0.17552947
v 0.94022876 0.67990500 0.16221665
v 0.94090283 0.68001914 0.14999214
v 0.95373988 0.67933422 0.11002838
v 0.95214671 0.67887759 0.12997229
v 0.96801686 0.67670864 0.06864728
v 0.97028404 0.67670864 0.05001946
v 0.97062105 0.67716527 0.03002492
v 0.97074360 0.67727941 0.01000508
v 0.96470803 0.67899173 -0.00206757
v 0.96075583 0.68001914 0.01000508
v 0.96075583 0.68001914 -0.00206757
v 0.99758196 -0.20994458 -0.00206757
v 0.99874616 -0.18996719 0.01000508
v 1.00000226 -0.16062897 0.02083756
v 0.99932826 -0.16827747 0.02850635
v 0.99972653 -0.15400791 0.03417569
v 0.99798024 -0.16987565 0.05001946
v 0.99611133 -0.16987565 0.07001400
v 0.99356842 -0.16987565 0.09000853
v 0.99035150 -0.16987565 0.11002838
v 0.98646057 -0.16987565 0.12997229
v 0.98214072 -0.16987565 0.14890383
v 0.97972035 -0.16987565 0.15890110
v 0.97677916 -0.16987565 0.16996136
v 0.97114187 -0.16987565 0.18998121
v 0.96495312 -0.16987565 0.20997575
v 0.96381956 -0.18996719 0.20997575
v 0.95998991 -0.20001295 0.21999833
v 0.95668107 -0.18996719 0.23083080
v 0.94957316 -0.18996719 0.24999014
v 0.94650942 -0.19830063 0.25649467
v 0.94577414 -0.20994458 0.25649467
v 0.94516140 -0.21930540 0.25649467
v 0.93042481 0.67202818 0.25649467
v 0.92996526 0.67396885 0.24999014
v 0.94997144 0.67374057 0.18998121
v 0.94813323 0.67705107 0.16932863
v 0.95092124 0.67785019 0.14999214
v 0.96997768 0.67465383 0.09000853
v 0.98713458 0.66677701 0.05001946
v 0.98786986 0.66711950 0.03002492
v 0.98823756 0.66734779 0.01000508
v 0.98131347 0.67134327 -0.00206757
v 0.97074360 0.67727941 -0.00206757
v 0.99868488 -0.18996719 -0.00206757
v 1.00009418 -0.16234133 -0.00206757
v 0.99963462 -0.17227295 0.01000508
v 1.00009418 -0.16234133 0.01000508
v 1.00061500 -0.14989828 0.01000508
v 1.00144219 -0.12992090 0.01000508
v 1.00300479 -0.08985199 0.01000508
v 1.00377071 -0.06998876 0.01000508
v 1.00321925 -0.06998876 0.03002492
v 1.00089073 -0.12992090 0.03002492
v 1.00000226 -0.14065161 0.04045245
v 0.99908316 -0.14830010 0.04827310
v 0.99945080 -0.12992090 0.05325908
v 0.99703050 -0.14989828 0.07001400
v 0.99451822 -0.14989828 0.09000853
v 0.99130130 -0.14989828 0.11002838
v 0.98744094 -0.14989828 0.12997229
v 0.98229390 -0.15183894 0.15199159
v 0.97996545 -0.15994406 0.15996410
v 0.97803527 -0.15183894 0.16867058
v 0.97215295 -0.14989828 0.18998121
v 0.96084774 -0.16987565 0.22240272
v 0.96026564 -0.18996719 0.22083354
v 0.96593356 -0.14989828 0.20997575
v 0.95726317 -0.16987565 0.23240000
v 0.95067614 -0.16987565 0.24999014
v 0.94770432 -0.17752415 0.25649467
v 0.94699967 -0.18996719 0.25649467
v 0.94029003 0.66540712 0.25649467
v 0.94430357 0.66437972 0.24999014
v 0.94779623 0.66689116 0.22997028
v 0.96997768 0.67031586 0.12997229
v 0.96997768 0.67294145 0.11002838
v 0.96394211 0.66426557 0.18998121
v 0.96660757 0.66632038 0.16996136
v 0.98609293 0.66609210 0.07001400
v 0.99785769 0.65593213 0.03002492
v 0.99825597 0.65673125 0.01000508
v 0.98823756 0.66734779 -0.00206757
v 1.00187111 -0.11782032 -0.00206757
v 1.00374007 -0.06998876 -0.00206757
v 1.00527191 -0.02991985 0.01000508
v 1.00468981 -0.02991985 0.03002492
v 1.00346434 -0.02991985 0.05001946
v 1.00199366 -0.06998876 0.05001946
v 1.00125837 -0.08985199 0.05001946
v 0.99975717 -0.11428146 0.05725799
v 1.00000226 -0.10092516 0.06039637
v 0.99785769 -0.12992090 0.07001400
v 0.99534541 -0.12992090 0.09000853
v 0.99215913 -0.12992090 0.11002838
v 0.98829883 -0.12992090 0.12997229
v 0.98376447 -0.12992090 0.14999214
v 0.98030245 -0.14647359 0.16115364
v 0.97800463 -0.12992090 0.17251763
v 0.97307205 -0.12992090 0.18998121
v 0.96688330 -0.12992090 0.20997575
v 0.96133792 -0.14989828 0.22382006
v 0.95775336 -0.14989828 0.23381734
v 0.94810259 -0.16987565 0.25649467
v 0.95168716 -0.14989828 0.24999014
v 0.94316995 0.66323817 0.25649467
v 0.95968354 0.65935683 0.21911249
v 0.96170557 0.66186827 0.20577437
v 0.97114187 0.66643453 0.14849888
v 0.98315173 0.66346645 0.11002838
v 0.98474491 0.66495049 0.09000853
v 0.98017991 0.66015595 0.14085540
v 0.98125219 0.66141164 0.12997229
v 0.99712241 0.65433395 0.05001946
v 1.00184059 0.64440233 0.05001946
v 1.00254524 0.64588636 0.03002492
v 1.00294352 0.64668548 0.01000508
v 1.00110519 0.65079510 -0.00206757
v 0.99825597 0.65673125 -0.00206757
v 1.00493491 -0.03779665 -0.00206757
v 1.00594592 -0.00994246 -0.00206757
v 1.00597656 -0.00994246 0.01000508
v 1.00539446 -0.00994246 0.03002492
v 1.00416899 -0.00994246 0.05001946
v 1.00024736 -0.08985199 0.06239583
v 0.99954271 -0.06998876 0.07591112
v 0.99614197 -0.10982937 0.09000853
v 0.99295568 -0.10982937 0.11002838
v 0.98989195 -0.08985199 0.12997229
v 0.98538828 -0.08985199 0.14999214
v 0.98459172 -0.10982937 0.14999214
v 0.98063946 -0.12992090 0.16254567
v 0.98106837 -0.10982937 0.16411486
v 0.97883189 -0.08985199 0.17568132
v 0.97840297 -0.10982937 0.17416275
v 0.97392988 -0.10982937 0.18998121
v 0.96774113 -0.10982937 0.20997575
v 0.96179748 -0.12992090 0.22511086
v 0.95821291 -0.12992090 0.23510811
v 0.94911361 -0.14932750 0.25649467
v 0.95867246 -0.10982937 0.23634829
v 0.95260626 -0.12992090 0.24999014
v 0.95101315 0.64942521 0.25649467
v 0.95781463 0.65536135 0.22997028
v 0.96228766 0.64531559 0.22997028
v 0.96544331 0.65148002 0.21146901
v 0.97245932 0.64988184 0.18998121
v 0.97723871 0.65022433 0.17191020
v 0.97855616 0.65718788 0.15419352
v 0.99608070 0.65193665 0.07001400
v 0.98302919 0.65022433 0.14849888
v 0.98716521 0.64988184 0.12997229
v 0.99099493 0.64988184 0.11002838
v 1.00082946 0.64189088 0.07001400
v 1.00530255 0.62990445 0.05001946
v 1.00671184 0.62990445 0.03002492
v 1.00750840 0.62990445 0.01000508
v 1.00294352 0.64679962 -0.00206757
v 1.00756967 0.62990445 -0.00206757
v 1.00732458 0.03012645 -0.00206757
v 1.00732458 0.03012645 0.01000508
v 1.00606847 0.01014907 0.03002492
v 1.00226951 -0.00994246 0.07001400
v 1.00061500 -0.06998876 0.06588854
v 1.00671184 0.03012645 0.03002492
v 1.00545573 0.03012645 0.05001946
v 0.99981844 -0.05480595 0.07839145
v 0.99690795 -0.08985199 0.09000853
v 0.99448758 -0.06998876 0.11002838
v 0.99065793 -0.06998876 0.12997229
v 0.98612356 -0.06998876 0.14999214
v 0.98186499 -0.06998876 0.16710138
v 0.98146665 -0.08985199 0.16565874
v 0.97475708 -0.08985199 0.18998121
v 0.97919953 -0.06998876 0.17709866
v 0.96856833 -0.08985199 0.20997575
v 0.96222639 -0.10982937 0.22635102
v 0.95000207 -0.12992090 0.25649467
v 0.95910138 -0.08985199 0.23751253
v 0.95349479 -0.10982937 0.24999014
v 0.95061487 -0.11633629 0.25649467
v 0.95318842 0.64177674 0.25649467
v 0.96038818 0.64097768 0.24113178
v 0.95426071 0.64851201 0.24869934
v 0.97993481 0.63972193 0.17988271
v 0.98165047 0.64383155 0.16651927
v 0.99528414 0.64816952 0.08869243
v 1.00015545 0.64029270 0.08115019
v 1.00328052 0.62990445 0.07001400
v 1.00741649 0.60981292 0.05001946
v 1.00879526 0.60981292 0.03002492
v 1.00956118 0.60981292 0.01000508
v 1.00839686 0.62191355 -0.00206757
v 1.00827432 0.06220442 -0.00206757
v 1.00793743 0.05010383 0.01000508
v 1.00024736 -0.02991985 0.08180824
v 1.00003290 -0.04156381 0.08041622
v 1.00291288 0.01014907 0.07001400
v 1.00732458 0.05010383 0.03002492
v 1.00606847 0.05010383 0.05001946
v 0.99764323 -0.06998876 0.09000853
v 0.99877679 -0.02991985 0.09180550
v 0.99911380 -0.00994246 0.09413399
v 0.99519223 -0.04989722 0.11002838
v 0.99136257 -0.04989722 0.12997229
v 0.98682821 -0.04989722 0.14999214
v 0.98750222 -0.02991985 0.14999214
v 0.98220199 -0.04989722 0.16836686
v 0.97549242 -0.06998876 0.18998121
v 0.96933430 -0.06998876 0.20997575
v 0.97953653 -0.04989722 0.17836413
v 0.97619706 -0.04989722 0.18998121
v 0.96265531 -0.08985199 0.22751525
v 0.96305364 -0.06998876 0.22860357
v 0.95946908 -0.06998876 0.23860084
v 0.95511854 -0.06998876 0.24999014
v 0.95432198 -0.08985199 0.24999014
v 0.95174843 -0.08985199 0.25649467
v 0.95147270 -0.09635891 0.25649467
v 0.95652789 0.62990445 0.25649467
v 0.95763081 0.62990445 0.25358409
v 0.96130729 0.62990445 0.24358681
v 0.96599483 0.62990445 0.22997028
v 0.97258186 0.62990445 0.20997575
v 0.97824979 0.63173097 0.19013306
v 0.98100710 0.62647980 0.18357790
v 0.98327428 0.63173097 0.17191020
v 0.98900348 0.62990445 0.14999214
v 0.99344587 0.62990445 0.12997229
v 0.99911380 0.63481319 0.09446301
v 1.00095201 0.62887704 0.08869243
v 1.00024736 0.62145692 0.10147375
v 1.00539446 0.60981292 0.07001400
v 1.00609910 0.58983552 0.07001400
v 1.00809050 0.58983552 0.05001946
v 1.00940800 0.58983552 0.03002492
v 1.01008201 0.58983552 0.01000508
v 1.00983691 0.60205030 -0.00206757
v 1.00959182 0.60981292 -0.00206757
v 1.00848889 0.07008121 -0.00206757
v 1.00848889 0.07008121 0.01000508
v 0.99865425 -0.04886982 0.08826217
v 1.00352561 0.03012645 0.07001400
v 1.00055373 -0.00994246 0.08413672
v 0.99945080 0.01014907 0.09636123
v 1.00787616 0.07008121 0.03002492
v 1.00410771 0.05010383 0.07001400
v 1.00661993 0.07008121 0.05001946
v 0.99586624 -0.02991985 0.11002838
v 0.99267995 -0.00994246 0.12997229
v 0.98811501 -0.00994246 0.14999214
v 0.98204881 -0.02832165 0.17158118
v 0.97000831 -0.04989722 0.20997575
v 0.97999609 -0.02067317 0.18005987
v 0.97742254 -0.02832165 0.18803237
v 0.97720808 -0.00994246 0.19058864
v 0.97062105 -0.02991985 0.20997575
v 0.96339065 -0.04989722 0.22954002
v 0.95998991 -0.03985146 0.23999286
v 0.95579255 -0.04989722 0.24999014
v 0.95251435 -0.06998876 0.25649467
v 0.95226926 -0.07638152 0.25649467
v 0.95805973 0.60981292 0.25649467
v 0.95836610 0.60981292 0.25568476
v 0.96210384 0.60981292 0.24571282
v 0.96774113 0.60981292 0.22997028
v 0.97445071 0.60981292 0.20997575
v 0.97880125 0.60981292 0.19603018
v 0.98174238 0.60981292 0.18603292
v 0.98612356 0.60981292 0.16996136
v 0.99117875 0.60981292 0.14999214
v 0.99565178 0.60981292 0.12997229
v 0.99770451 0.62887704 0.10888945
v 0.99886870 0.60981292 0.11367295
v 1.00061500 0.60981292 0.10367568
v 1.00272906 0.60981292 0.09000853
v 1.00346434 0.58983552 0.09000853
v 1.00377071 0.56985819 0.09000853
v 1.00637484 0.56985819 0.07001400
v 1.00833559 0.56985819 0.05001946
v 1.00959182 0.56985819 0.03002492
v 1.01026583 0.56985819 0.01000508
v 1.01020455 0.58195877 -0.00206757
v 1.01011264 0.58983552 -0.00206757
v 1.00900972 0.09005859 -0.00206757
v 1.00900972 0.09005859 0.01000508
v 1.00119710 0.03012645 0.08846465
v 0.99972653 0.03012645 0.09846192
v 0.99715304 0.01014907 0.11002838
v 0.99650961 -0.00994246 0.11002838
v 1.00836635 0.09005859 0.03002492
v 1.00465918 0.07008121 0.07001400
v 1.00711012 0.09005859 0.05001946
v 0.99329269 0.01014907 0.12997229
v 0.98872775 0.01014907 0.14999214
v 0.98358065 0.01014907 0.16996136
v 0.98014927 -0.00994246 0.18059137
v 0.97120315 -0.00994246 0.20997575
v 0.97748381 0.01014907 0.19155040
v 0.96440166 -0.00994246 0.22997028
v 0.96305364 -0.03186050 0.23199505
v 0.96041882 -0.00994246 0.24110648
v 0.95701808 -0.03186050 0.24829438
v 0.95441389 -0.00994246 0.25649467
v 0.95318842 -0.04989722 0.25649467
v 0.95809036 0.60878551 0.25649467
v 0.96225703 0.58983552 0.24611777
v 0.96810877 0.58983552 0.22997028
v 0.97487962 0.58983552 0.20997575
v 0.97904634 0.58983552 0.19689071
v 0.98198754 0.58983552 0.18689345
v 0.98670566 0.58983552 0.16996136
v 0.99179149 0.58983552 0.14999214
v 0.99632579 0.58983552 0.12997229
v 0.99920571 0.58983552 0.11567240
v 1.00098264 0.58983552 0.10567513
v 1.00113583 0.56985819 0.10651035
v 1.00395453 0.54988080 0.09000853
v 1.00652802 0.54988080 0.07001400
v 1.00845826 0.54988080 0.05001946
v 1.00968373 0.54988080 0.03002492
v 1.01035774 0.54200399 -0.00206757
v 1.01029646 0.56198138 -0.00206757
v 1.01075602 0.26985502 0.01000508
v 1.01081729 0.28195560 -0.00206757
v 1.00928545 0.10215917 -0.00206757
v 1.00943863 0.10992181 0.01000508
v 1.00202441 0.07008121 0.09000853
v 1.00122774 0.04941889 0.09178020
v 0.99991035 0.04234119 0.09962615
v 0.99773514 0.03012645 0.11002838
v 1.00879526 0.10992181 0.03002492
v 1.00514936 0.09005859 0.07001400
v 1.00753903 0.10992181 0.05001946
v 0.99387479 0.03012645 0.12997229
v 0.98927921 0.03012645 0.14999214
v 0.98413217 0.03012645 0.16996136
v 0.98042500 0.01014907 0.18152782
v 0.97775954 0.03012645 0.19243623
v 0.97175461 0.01014907 0.20997575
v 0.98070073 0.03012645 0.18243897
v 0.96492249 0.01014907 0.22997028
v 0.96541268 0.03012645 0.22997028
v 0.96066391 0.01014907 0.24178983
v 0.95683426 0.01014907 0.25178710
v 0.95655853 -0.00994246 0.25110376
v 0.95481217 0.00501203 0.25649467
v 0.95836610 0.58983552 0.25649467
v 0.96231830 0.56985819 0.24621901
v 0.96823132 0.56985819 0.22997028
v 0.97500217 0.56985819 0.20997575
v 0.97910762 0.56985819 0.19709319
v 0.98207945 0.56985819 0.18709593
v 0.98685884 0.56985819 0.16996136
v 0.99200594 0.56985819 0.14999214
v 0.99660152 0.56985819 0.12997229
v 0.99935889 0.56985819 0.11653293
v 1.00122774 0.54988080 0.10696592
v 1.00128901 0.52990341 0.10729495
v 1.00404644 0.52990341 0.09000853
v 1.00661993 0.52990341 0.07001400
v 1.00855017 0.50992608 0.05001946
v 1.01011264 0.26985502 0.03002492
v 1.01075602 0.24987763 0.01000508
v 1.01081729 0.24200083 -0.00206757
v 1.00983691 0.13001335 -0.00206757
v 1.00980628 0.13001335 0.01000508
v 1.00009418 0.05558334 0.10068916
v 1.00251460 0.09005859 0.09000853
v 0.99856234 0.04941889 0.10840856
v 0.99850106 0.07008121 0.11169881
v 1.00916290 0.13001335 0.03002492
v 1.00557828 0.10992181 0.07001400
v 1.00790668 0.13001335 0.05001946
v 0.99439567 0.05010383 0.12997229
v 0.98980004 0.05010383 0.14999214
v 0.98505127 0.07008121 0.16996136
v 0.98116028 0.07008121 0.18398285
v 0.97797400 0.05010383 0.19324614
v 0.97224486 0.03012645 0.20997575
v 0.96587229 0.05010383 0.22997028
v 0.96090901 0.03012645 0.24242258
v 0.95729381 0.05010383 0.25300196
v 0.95542490 0.03012645 0.25649467
v 0.95842737 0.56985819 0.25649467
v 0.96237957 0.52990341 0.24629493
v 0.96835387 0.52990341 0.22997028
v 0.97515535 0.52990341 0.20997575
v 0.97923017 0.48994866 0.19749814
v 0.98217136 0.50992608 0.18742494
v 0.98716521 0.48994866 0.16996136
v 0.99231231 0.50992608 0.14999214
v 0.99212849 0.54988080 0.14999214
v 0.99942017 0.54988080 0.11698849
v 0.99684668 0.52990341 0.12997229
v 0.99948144 0.52990341 0.11729221
v 0.99957335 0.48994866 0.11767185
v 1.00135028 0.48994866 0.10769990
v 1.00416899 0.48994866 0.09000853
v 1.00671184 0.48994866 0.07001400
v 1.00695693 0.34987870 0.07001400
v 1.00885653 0.26985502 0.05001946
v 1.01011264 0.24987763 0.03002492
v 1.01072538 0.22990026 0.01000508
v 1.01078665 0.22990026 -0.00206757
v 1.01002073 0.14199978 -0.00206757
v 1.01011264 0.14999074 0.01000508
v 1.00049245 0.09005859 0.10299233
v 1.00288224 0.10992181 0.09000853
v 1.00070691 0.10992181 0.10400470
v 0.99485523 0.07008121 0.12997229
v 0.99868488 0.09005859 0.11296428
v 1.00946927 0.14999074 0.03002492
v 1.00591528 0.13001335 0.07001400
v 1.00324988 0.13001335 0.09000853
v 1.00818253 0.14999074 0.05001946
v 1.00622165 0.14999074 0.07001400
v 0.99025959 0.07008121 0.14999214
v 0.98544955 0.09005859 0.16996136
v 0.97818851 0.07008121 0.19398011
v 0.98134410 0.09005859 0.18461558
v 0.97270441 0.05010383 0.20997575
v 0.97313333 0.07008121 0.20997575
v 0.96627057 0.07008121 0.22997028
v 0.96133792 0.07008121 0.24353619
v 0.96112347 0.05010383 0.24300469
v 0.95747763 0.07008121 0.25353345
v 0.95622146 0.06654236 0.25649467
v 0.95588446 0.05010383 0.25649467
v 0.95579255 0.04599420 0.25649467
v 0.95848864 0.50992608 0.25649467
v 0.95854992 0.52990341 0.25629219
v 0.96241021 0.50992608 0.24632025
v 0.96841514 0.48994866 0.22997028
v 0.97524726 0.48994866 0.20997575
v 0.98232454 0.34987870 0.18775398
v 0.98220199 0.48994866 0.18747556
v 0.97932208 0.32990131 0.19780186
v 0.98744094 0.34987870 0.16996136
v 0.99264932 0.36997023 0.14999214
v 0.99237359 0.48994866 0.14999214
v 0.99693859 0.50992608 0.12997229
v 0.99972653 0.36997023 0.11855769
v 1.00147295 0.38994759 0.10840856
v 1.00444472 0.36997023 0.09000853
v 1.00447536 0.34987870 0.09000853
v 1.00695693 0.24987763 0.07001400
v 1.00885653 0.24987763 0.05001946
v 1.01008201 0.22990026 0.03002492
v 1.01054156 0.18994549 0.01000508
v 1.01069474 0.20992288 -0.00206757
v 1.01026583 0.16197716 -0.00206757
v 1.01035774 0.16996811 0.01000508
v 0.99886870 0.10992181 0.11400197
v 1.00355625 0.14999074 0.09000853
v 1.00086010 0.13001335 0.10494116
v 0.99905252 0.13001335 0.11493842
v 0.99528414 0.09005859 0.12997229
v 1.00968373 0.16996811 0.03002492
v 1.00842762 0.16996811 0.05001946
v 1.00646675 0.16996811 0.07001400
v 0.99065793 0.09005859 0.14999214
v 0.99102557 0.10992181 0.14999214
v 0.98578656 0.10992181 0.16996136
v 0.97837234 0.09005859 0.19461286
v 0.98152792 0.10992181 0.18512177
v 0.97350097 0.09005859 0.20997575
v 0.96660757 0.09005859 0.22997028
v 0.96149111 0.09005859 0.24396646
v 0.95763081 0.09005859 0.25398904
v 0.95658916 0.08697636 0.25649467
v 0.95848864 0.48960620 0.25649467
v 0.96241021 0.48994866 0.24632025
v 0.96835387 0.32990131 0.22997028
v 0.97530860 0.30992395 0.20997575
v 0.97530860 0.34987870 0.20997575
v 0.98232454 0.32990131 0.18777928
v 0.97929144 0.30992395 0.19777656
v 0.98232454 0.30992395 0.18777928
v 0.98744094 0.30992395 0.16996136
v 0.99271059 0.32990131 0.14999214
v 0.99730623 0.36997023 0.12997229
v 0.99972653 0.32990131 0.11870955
v 1.00153422 0.32990131 0.10868697
v 1.00447536 0.30992395 0.09000853
v 1.00444472 0.28983241 0.09000853
v 1.00435281 0.24987763 0.09000853
v 1.00680375 0.20992288 0.07001400
v 1.00879526 0.22990026 0.05001946
v 1.00999010 0.20992288 0.03002492
v 1.00986755 0.18994549 0.03002492
v 1.01048028 0.18206871 -0.00206757
v 1.01054156 0.18994549 -0.00206757
v 1.01035774 0.16996811 -0.00206757
v 1.00101328 0.14999074 0.10572575
v 1.00380135 0.16996811 0.09000853
v 0.99598879 0.13001335 0.12997229
v 0.99565178 0.10992181 0.12997229
v 0.99920571 0.14999074 0.11572302
v 1.00861144 0.18994549 0.05001946
v 1.00665057 0.18994549 0.07001400
v 1.00401580 0.18994549 0.09000853
v 0.99133193 0.13001335 0.14999214
v 0.98606229 0.13001335 0.16996136
v 0.97852552 0.10992181 0.19514436
v 0.98165047 0.13001335 0.18560266
v 0.97377670 0.10992181 0.20997575
v 0.96691394 0.10992181 0.22997028
v 0.96164429 0.10992181 0.24432078
v 0.95778400 0.10992181 0.25431806
v 0.95686489 0.10729621 0.25649467
v 0.95824355 0.30923897 0.25649467
v 0.96234894 0.32990131 0.24606714
v 0.96832323 0.30992395 0.22997028
v 0.97524726 0.28983241 0.20997575
v 0.97926080 0.26985502 0.19757408
v 0.98229390 0.28983241 0.18767804
v 0.98741031 0.28983241 0.16996136
v 0.99264932 0.28983241 0.14999214
v 0.99730623 0.28983241 0.12997229
v 0.99733686 0.30992395 0.12997229
v 0.99733686 0.32990131 0.12997229
v 0.99972653 0.30992395 0.11868424
v 1.00153422 0.30992395 0.10866166
v 1.00144219 0.24987763 0.10818078
v 1.00416899 0.20992288 0.09000853
v 1.00150347 0.28983241 0.10856042
v 1.00147295 0.26985502 0.10838325
v 1.00113583 0.16996811 0.10638380
v 0.99623388 0.14999074 0.12997229
v 0.99942017 0.18994549 0.11698849
v 0.99929762 0.16996811 0.11643169
v 1.00122774 0.18994549 0.10699123
v 1.00131965 0.20992288 0.10749742
v 0.99182212 0.16996811 0.14999214
v 0.98655248 0.16996811 0.16996136
v 0.97864807 0.13001335 0.19559993
v 0.97405243 0.13001335 0.20997575
v 0.98177302 0.14999074 0.18598230
v 0.97429752 0.14999074 0.20997575
v 0.96734285 0.14999074 0.22997028
v 0.96173620 0.13001335 0.24462450
v 0.95787591 0.13001335 0.25462177
v 0.95710999 0.12761606 0.25649467
v 0.95799845 0.24885023 0.25649467
v 0.95839673 0.28983241 0.25593787
v 0.96228766 0.28983241 0.24594060
v 0.96231830 0.30992395 0.24601653
v 0.96826196 0.28983241 0.22997028
v 0.96810877 0.24987763 0.22997028
v 0.97497153 0.22990026 0.20997575
v 0.97919953 0.24987763 0.19739690
v 0.98220199 0.24987763 0.18742494
v 0.98226327 0.26985502 0.18757680
v 0.98731840 0.26985502 0.16996136
v 0.99258804 0.26985502 0.14999214
v 0.99963462 0.24987763 0.11817805
v 0.99972653 0.28983241 0.11858300
v 0.99703050 0.22990026 0.12997229
v 1.00138092 0.22990026 0.10792768
v 0.99669349 0.18994549 0.12997229
v 0.99951208 0.20992288 0.11746938
v 0.99218976 0.20992288 0.14999214
v 0.98195690 0.18994549 0.18666565
v 0.98186499 0.16996811 0.18633664
v 0.98710394 0.22990026 0.16996136
v 0.97877061 0.14999074 0.19597957
v 0.97898507 0.18994549 0.19666293
v 0.97907698 0.20992288 0.19694133
v 0.97481835 0.20992288 0.20997575
v 0.96752667 0.16996811 0.22997028
v 0.96182811 0.14999074 0.24485229
v 0.95796782 0.14999074 0.25484955
v 0.95805973 0.16996811 0.25505203
v 0.95747763 0.16996811 0.25649467
v 0.95787591 0.22864453 0.25649467
v 0.95824355 0.22990026 0.25558352
v 0.96216512 0.22990026 0.24558626
v 0.96225703 0.26985502 0.24583936
v 0.96798623 0.22990026 0.22997028
v 0.97913826 0.22990026 0.19719443
v 0.98214072 0.22990026 0.18722247
v 0.99234295 0.22990026 0.14999214
v 0.99957335 0.22990026 0.11789964
v 0.99687731 0.20992288 0.12997229
v 0.96201193 0.18994549 0.24523193
v 0.96192002 0.16996811 0.24505477
v 0.95775336 0.20992288 0.25649467
f 1 2 6
f 1 6 13
f 1 13 23
f 1 23 37
f 1 37 52
f 1 52 74
f 1 74 73
f 1 73 99
f 1 99 98
f 1 98 127
f 1 127 157
f 1 157 156
f 1 156 158
f 1 158 128
f 1 128 100
f 1 100 80
f 1 80 79
f 1 79 78
f 1 78 75
f 1 75 53
f 1 53 39
f 1 39 38
f 1 38 28
f 1 28 24
f 1 24 14
f 1 14 7
f 1 7 3
f 1 3 8
f 1 8 16
f 1 16 29
f 1 29 44
f 1 44 62
f 1 62 60
f 1 60 85
f 1 85 111
f 1 111 140
f 1 140 170
f 1 170 169
f 1 169 194
f 1 194 193
f 1 193 192
f 1 192 196
f 1 196 218
f 1 218 243
f 1 243 247
f 1 247 246
f 1 246 270
f 1 270 293
f 1 293 294
f 1 294 314
f 1 314 339
f 1 339 360
f 1 360 384
f 1 384 383
f 1 383 413
f 1 413 451
f 1 451 450
f 1 450 449
f 1 449 490
f 1 490 489
f 1 489 522
f 1 522 558
f 1 558 596
f 1 596 599
f 1 599 637
f 1 637 636
f 1 636 680
f 1 680 679
f 1 679 723
f 1 723 722
f 1 722 765
f 1 765 802
f 1 802 848
f 1 848 847
f 1 847 846
f 1 846 889
f 1 889 929
f 1 929 962
f 1 962 993
f 1 993 1006
f 1 1006 994
f 1 994 963
f 1 963 930
f 1 930 890
f 1 890 849
f 1 849 803
f 1 803 766
f 1 766 724
f 1 724 681
f 1 681 638
f 1 638 600
f 1 600 561
f 1 561 524
f 1 524 491
f 1 491 452
f 1 452 414
f 1 414 385
f 1 385 361
f 1 361 341
f 1 341 340
f 1 340 317
f 1 317 316
f 1 316 315
f 1 315 295
f 1 295 273
f 1 273 272
f 1 272 271
f 1 271 248
f 1 248 220
f 1 220 197
f 1 197 173
f 1 173 172
f 1 172 142
f 1 142 113
f 1 113 87
f 1 87 63
f 1 63 45
f 1 45 30
f 1 30 18
f 1 18 17
f 1 17 9
f 1 9 4
f 1 4 5
f 1 5 2
f 2 5 11
f 2 11 10
f 2 10 19
f 2 19 31
f 2 31 46
f 2 46 64
f 2 64 88
f 2 88 114
f 2 114 143
f 2 143 174
f 2 174 198
f 2 198 221
f 2 221 249
f 2 249 274
f 2 274 296
f 2 296 318
f 2 318 343
f 2 343 365
f 2 365 394
f 2 394 429
f 2 429 427
f 2 427 462
f 2 462 461
f 2 461 501
f 2 501 537
f 2 537 536
f 2 536 576
f 2 576 577
f 2 577 611
f 2 611 657
f 2 657 656
f 2 656 702
f 2 702 701
f 2 701 741
f 2 741 740
f 2 740 743
f 2 743 783
f 2 783 823
f 2 823 869
f 2 869 911
f 2 911 910
f 2 910 912
f 2 912 870
f 2 870 824
f 2 824 784
f 2 784 744
f 2 744 703
f 2 703 658
f 2 658 612
f 2 612 578
f 2 578 539
f 2 539 538
f 2 538 503
f 2 503 502
f 2 502 464
f 2 464 463
f 2 463 430
f 2 430 395
f 2 395 366
f 2 366 344
f 2 344 319
f 2 319 297
f 2 297 275
f 2 275 250
f 2 250 223
f 2 223 222
f 2 222 199
f 2 199 175
f 2 175 144
f 2 144 115
f 2 115 89
f 2 89 66
f 2 66 65
f 2 65 47
f 2 47 33
f 2 33 32
f 2 32 20
f 2 20 12
f 2 12 6
f 3 7 8
f 4 9 10
f 4 10 11
f 4 11 5
f 6 12 13
f 7 14 8
f 8 15 16
f 8 14 15
f 9 17 10
f 10 17 18
f 10 18 19
f 12 20 21
f 12 21 22
f 12 22 13
f 13 22 23
f 14 24 15
f 15 25 26
f 15 26 27
f 15 27 16
f 15 24 28
f 15 28 25
f 16 27 29
f 18 30 31
f 18 31 19
f 20 32 21
f 21 32 33
f 21 33 34
f 21 34 35
f 21 35 36
f 21 36 22
f 22 36 23
f 23 36 37
f 25 28 38
f 25 38 39
f 25 39 40
f 25 40 41
f 25 41 42
f 25 42 26
f 26 42 43
f 26 43 27
f 27 43 29
f 29 43 44
f 30 45 46
f 30 46 31
f 33 47 34
f 34 47 48
f 34 48 49
f 34 49 35
f 35 50 51
f 35 51 36
f 35 49 50
f 36 51 37
f 37 51 52
f 39 53 40
f 40 54 55
f 40 55 41
f 40 53 54
f 41 55 56
f 41 56 42
f 42 56 57
f 42 57 58
f 42 58 43
f 43 58 59
f 43 59 60
f 43 60 61
f 43 61 62
f 43 62 44
f 45 63 46
f 46 63 64
f 47 65 48
f 48 65 66
f 48 66 67
f 48 67 68
f 48 68 69
f 48 69 49
f 49 69 70
f 49 70 50
f 50 71 72
f 50 72 51
f 50 70 71
f 51 72 73
f 51 73 74
f 51 74 52
f 53 75 54
f 54 76 77
f 54 77 55
f 54 75 78
f 54 78 79
f 54 79 80
f 54 80 76
f 55 77 81
f 55 81 56
f 56 82 83
f 56 83 57
f 56 81 82
f 57 83 84
f 57 84 58
f 58 84 59
f 59 85 60
f 59 84 86
f 59 86 85
f 60 62 61
f 63 87 64
f 64 87 88
f 66 89 90
f 66 90 67
f 67 90 68
f 68 90 91
f 68 91 92
f 68 92 69
f 69 92 93
f 69 93 70
f 70 93 94
f 70 94 95
f 70 95 71
f 71 96 72
f 71 95 96
f 72 96 97
f 72 97 98
f 72 98 99
f 72 99 73
f 76 80 100
f 76 100 101
f 76 101 102
f 76 102 103
f 76 103 77
f 77 103 81
f 81 103 104
f 81 104 105
f 81 105 82
f 82 106 83
f 82 105 107
f 82 107 106
f 83 106 108
f 83 108 84
f 84 108 109
f 84 109 86
f 85 86 110
f 85 110 111
f 86 109 112
f 86 112 110
f 87 113 88
f 88 113 114
f 89 115 116
f 89 116 90
f 90 116 117
f 90 117 91
f 91 118 92
f 91 117 119
f 91 119 118
f 92 118 120
f 92 120 93
f 93 120 94
f 94 120 121
f 94 121 122
f 94 122 123
f 94 123 95
f 95 123 96
f 96 123 124
f 96 124 97
f 97 124 125
f 97 125 126
f 97 126 98
f 98 126 127
f 100 128 101
f 101 129 130
f 101 130 102
f 101 128 129
f 102 130 131
f 102 131 104
f 102 104 103
f 104 131 132
f 104 132 133
f 104 133 105
f 105 133 107
f 106 107 134
f 106 134 135
f 106 135 108
f 107 136 134
f 107 133 136
f 108 135 137
f 108 137 109
f 109 137 138
f 109 138 112
f 110 112 111
f 111 112 139
f 111 139 140
f 112 138 141
f 112 141 139
f 113 142 114
f 114 142 143
f 115 144 116
f 116 144 145
f 116 145 146
f 116 146 117
f 117 146 147
f 117 147 119
f 118 119 148
f 118 148 120
f 119 147 149
f 119 149 150
f 119 150 148
f 120 148 121
f 121 148 151
f 121 151 152
f 121 152 122
f 122 153 154
f 122 154 123
f 122 152 153
f 123 154 124
f 124 154 155
f 124 155 125
f 125 130 129
f 125 129 126
f 125 155 130
f 126 129 156
f 126 156 157
f 126 157 127
f 128 158 129
f 129 158 156
f 130 155 131
f 131 155 159
f 131 159 132
f 132 159 160
f 132 160 161
f 132 161 133
f 133 161 136
f 134 136 162
f 134 162 163
f 134 163 135
f 135 163 164
f 135 164 137
f 136 161 165
f 136 165 162
f 137 164 166
f 137 166 167
f 137 167 138
f 138 167 141
f 139 141 168
f 139 168 169
f 139 169 170
f 139 170 140
f 141 167 171
f 141 171 168
f 142 172 143
f 143 172 173
f 143 173 174
f 144 175 145
f 145 175 199
f 145 199 176
f 145 176 146
f 146 176 177
f 146 177 147
f 147 177 178
f 147 178 149
f 148 150 151
f 149 179 182
f 149 182 150
f 149 178 180
f 149 180 181
f 149 181 179
f 150 182 151
f 151 182 183
f 151 183 152
f 152 183 184
f 152 184 153
f 153 184 185
f 153 185 160
f 153 160 159
f 153 159 154
f 154 159 155
f 160 185 161
f 161 185 165
f 162 165 186
f 162 186 187
f 162 187 163
f 163 187 188
f 163 188 164
f 164 188 189
f 164 189 166
f 165 185 186
f 166 189 190
f 166 190 167
f 167 190 191
f 167 191 171
f 168 171 192
f 168 192 193
f 168 193 194
f 168 194 169
f 171 195 196
f 171 196 192
f 171 191 195
f 173 197 198
f 173 198 174
f 176 199 200
f 176 200 201
f 176 201 177
f 177 201 202
f 177 202 178
f 178 202 203
f 178 203 180
f 179 181 204
f 179 204 205
f 179 205 182
f 180 203 206
f 180 206 181
f 181 206 207
f 181 207 208
f 181 208 209
f 181 209 204
f 182 205 183
f 183 205 210
f 183 210 184
f 184 210 185
f 185 210 211
f 185 211 186
f 186 211 212
f 186 212 213
f 186 213 187
f 187 213 214
f 187 214 188
f 188 214 215
f 188 215 189
f 189 215 216
f 189 216 190
f 190 216 217
f 190 217 191
f 191 217 195
f 195 218 196
f 195 217 219
f 195 219 218
f 197 220 198
f 198 220 221
f 199 222 200
f 200 222 223
f 200 223 224
f 200 224 201
f 201 224 225
f 201 225 202
f 202 225 226
f 202 226 203
f 203 226 227
f 203 227 206
f 204 228 229
f 204 229 205
f 204 209 230
f 204 230 228
f 205 229 210
f 206 227 231
f 206 231 207
f 207 231 232
f 207 232 208
f 208 232 233
f 208 233 234
f 208 234 235
f 208 235 209
f 209 235 230
f 210 229 211
f 211 229 212
f 212 229 228
f 212 228 236
f 212 236 213
f 213 236 237
f 213 237 214
f 214 237 238
f 214 238 215
f 215 238 239
f 215 239 216
f 216 239 217
f 217 239 240
f 217 240 241
f 217 241 242
f 217 242 219
f 218 219 243
f 219 242 244
f 219 244 245
f 219 245 246
f 219 246 247
f 219 247 243
f 220 248 221
f 221 248 249
f 223 250 251
f 223 251 224
f 224 251 252
f 224 252 225
f 225 252 226
f 226 252 253
f 226 253 227
f 227 253 254
f 227 254 231
f 228 230 236
f 230 255 236
f 230 235 256
f 230 256 255
f 231 257 232
f 231 254 257
f 232 257 258
f 232 258 233
f 233 259 260
f 233 260 234
f 233 258 259
f 234 261 285
f 234 285 262
f 234 262 235
f 234 260 261
f 235 262 256
f 236 255 237
f 237 255 263
f 237 263 238
f 238 263 264
f 238 264 239
f 239 264 265
f 239 265 266
f 239 266 240
f 240 266 241
f 241 266 267
f 241 267 244
f 241 244 242
f 244 267 268
f 244 268 245
f 245 268 269
f 245 269 270
f 245 270 246
f 248 271 249
f 249 271 272
f 249 272 273
f 249 273 274
f 250 275 276
f 250 276 251
f 251 276 252
f 252 277 253
f 252 276 298
f 252 298 278
f 252 278 299
f 252 299 277
f 253 277 254
f 254 277 279
f 254 279 257
f 255 256 263
f 256 262 280
f 256 280 263
f 257 279 281
f 257 281 258
f 258 281 282
f 258 282 260
f 258 260 259
f 260 282 283
f 260 283 284
f 260 284 261
f 261 284 286
f 261 286 285
f 262 285 287
f 262 287 280
f 263 280 264
f 264 280 288
f 264 288 265
f 265 288 289
f 265 289 266
f 266 289 290
f 266 290 291
f 266 291 267
f 267 291 268
f 268 291 292
f 268 292 269
f 269 293 270
f 269 292 294
f 269 294 293
f 273 295 296
f 273 296 274
f 275 297 298
f 275 298 276
f 277 299 279
f 278 298 300
f 278 300 321
f 278 321 299
f 279 299 301
f 279 301 302
f 279 302 281
f 280 287 288
f 281 302 282
f 282 302 303
f 282 303 283
f 283 303 304
f 283 304 305
f 283 305 284
f 284 305 286
f 285 286 306
f 285 306 287
f 286 305 307
f 286 307 306
f 287 306 308
f 287 308 288
f 288 308 289
f 289 308 309
f 289 309 290
f 290 309 310
f 290 310 311
f 290 311 291
f 291 311 292
f 292 311 312
f 292 312 313
f 292 313 294
f 294 313 314
f 295 315 296
f 296 316 317
f 296 317 318
f 296 315 316
f 297 319 320
f 297 320 298
f 298 320 300
f 299 321 301
f 300 320 345
f 300 345 322
f 300 322 323
f 300 323 321
f 301 321 324
f 301 324 325
f 301 325 302
f 302 325 326
f 302 326 303
f 303 326 304
f 304 326 327
f 304 327 328
f 304 328 305
f 305 328 307
f 306 307 329
f 306 329 330
f 306 330 331
f 306 331 308
f 307 328 332
f 307 332 333
f 307 333 329
f 308 331 309
f 309 331 334
f 309 334 335
f 309 335 310
f 310 335 312
f 310 312 311
f 312 335 336
f 312 336 337
f 312 337 313
f 313 337 338
f 313 338 314
f 314 338 339
f 317 340 318
f 318 341 342
f 318 342 343
f 318 340 341
f 319 344 320
f 320 344 345
f 321 323 324
f 322 345 346
f 322 346 347
f 322 347 323
f 323 347 348
f 323 348 324
f 324 348 349
f 324 349 325
f 325 349 350
f 325 350 326
f 326 350 327
f 327 350 351
f 327 351 352
f 327 352 328
f 328 352 332
f 329 333 330
f 330 333 353
f 330 353 354
f 330 354 334
f 330 334 331
f 332 352 355
f 332 355 356
f 332 356 333
f 333 356 353
f 334 354 336
f 334 336 335
f 336 354 376
f 336 376 357
f 336 357 337
f 337 357 358
f 337 358 359
f 337 359 338
f 338 359 360
f 338 360 339
f 341 361 362
f 341 362 342
f 342 362 363
f 342 363 364
f 342 364 343
f 343 364 365
f 344 366 345
f 345 366 367
f 345 367 346
f 346 367 368
f 346 368 369
f 346 369 347
f 347 369 370
f 347 370 348
f 348 370 371
f 348 371 349
f 349 371 372
f 349 372 350
f 350 372 373
f 350 373 351
f 351 373 374
f 351 374 352
f 352 374 355
f 353 356 375
f 353 375 376
f 353 376 354
f 355 374 377
f 355 377 356
f 356 377 378
f 356 378 379
f 356 379 375
f 357 376 404
f 357 404 380
f 357 380 358
f 358 380 381
f 358 381 382
f 358 382 359
f 359 382 383
f 359 383 384
f 359 384 360
f 361 385 386
f 361 386 387
f 361 387 388
f 361 388 362
f 362 389 390
f 362 390 363
f 362 388 391
f 362 391 389
f 363 390 364
f 364 390 392
f 364 392 393
f 364 393 394
f 364 394 365
f 366 395 367
f 367 395 430
f 367 430 396
f 367 396 368
f 368 396 397
f 368 397 398
f 368 398 369
f 369 398 399
f 369 399 370
f 370 399 400
f 370 400 371
f 371 400 401
f 371 401 372
f 372 401 402
f 372 402 373
f 373 403 374
f 373 402 403
f 374 403 377
f 375 379 404
f 375 404 376
f 377 403 405
f 377 405 406
f 377 406 378
f 378 406 407
f 378 407 408
f 378 408 379
f 379 408 409
f 379 409 404
f 380 404 410
f 380 410 381
f 381 410 411
f 381 411 412
f 381 412 382
f 382 412 413
f 382 413 383
f 385 414 415
f 385 415 386
f 386 415 387
f 387 415 416
f 387 416 417
f 387 417 418
f 387 418 419
f 387 419 388
f 388 419 420
f 388 420 391
f 389 391 420
f 389 420 390
f 390 420 392
f 392 420 419
f 392 419 421
f 392 421 422
f 392 422 423
f 392 423 424
f 392 424 425
f 392 425 393
f 393 425 426
f 393 426 427
f 393 427 428
f 393 428 394
f 394 428 429
f 396 430 463
f 396 463 431
f 396 431 397
f 397 431 432
f 397 432 433
f 397 433 434
f 397 434 435
f 397 435 398
f 398 435 436
f 398 436 399
f 399 436 437
f 399 437 400
f 400 437 438
f 400 438 401
f 401 438 439
f 401 439 402
f 402 405 403
f 402 439 405
f 404 409 410
f 405 439 440
f 405 440 441
f 405 441 406
f 406 441 407
f 407 441 442
f 407 442 443
f 407 443 408
f 408 443 444
f 408 444 445
f 408 445 409
f 409 445 446
f 409 446 410
f 410 446 411
f 411 446 447
f 411 447 412
f 412 447 448
f 412 448 449
f 412 449 450
f 412 450 451
f 412 451 413
f 414 452 453
f 414 453 415
f 415 453 454
f 415 454 455
f 415 455 416
f 416 418 417
f 416 455 418
f 418 455 456
f 418 456 419
f 419 456 422
f 419 422 421
f 422 456 457
f 422 457 423
f 423 457 424
f 424 457 458
f 424 458 459
f 424 459 425
f 425 459 460
f 425 460 426
f 426 460 461
f 426 461 462
f 426 462 427
f 427 429 428
f 431 463 464
f 431 464 465
f 431 465 432
f 432 466 467
f 432 467 468
f 432 468 469
f 432 469 470
f 432 470 471
f 432 471 472
f 432 472 434
f 432 434 433
f 432 465 466
f 434 472 473
f 434 473 435
f 435 473 474
f 435 474 475
f 435 475 476
f 435 476 436
f 436 476 477
f 436 477 437
f 437 477 478
f 437 478 438
f 438 478 479
f 438 479 439
f 439 479 440
f 440 479 480
f 440 480 481
f 440 481 441
f 441 481 442
f 442 481 482
f 442 482 483
f 442 483 443
f 443 483 444
f 444 484 485
f 444 485 446
f 444 446 445
f 444 483 486
f 444 486 484
f 446 485 447
f 447 485 484
f 447 484 487
f 447 487 448
f 448 487 488
f 448 488 489
f 448 489 490
f 448 490 449
f 452 491 492
f 452 492 453
f 453 492 493
f 453 493 454
f 454 494 495
f 454 495 455
f 454 493 496
f 454 496 497
f 454 497 494
f 455 495 456
f 456 495 457
f 457 495 498
f 457 498 458
f 458 498 499
f 458 499 500
f 458 500 459
f 459 500 460
f 460 501 461
f 460 500 537
f 460 537 501
f 464 466 465
f 464 502 468
f 464 468 467
f 464 467 466
f 468 502 503
f 468 503 469
f 469 503 470
f 470 503 504
f 470 504 471
f 471 504 505
f 471 505 473
f 471 473 472
f 473 505 506
f 473 506 507
f 473 507 508
f 473 508 475
f 473 475 474
f 475 509 476
f 475 508 509
f 476 509 510
f 476 510 511
f 476 511 512
f 476 512 477
f 477 512 513
f 477 513 478
f 478 513 514
f 478 514 479
f 479 514 515
f 479 515 480
f 480 515 516
f 480 516 481
f 481 516 482
f 482 516 517
f 482 517 483
f 483 517 518
f 483 518 519
f 483 519 486
f 484 486 520
f 484 520 521
f 484 521 487
f 486 519 520
f 487 521 488
f 488 522 489
f 488 521 523
f 488 523 522
f 491 524 492
f 492 524 525
f 492 525 526
f 492 526 493
f 493 526 496
f 494 497 527
f 494 527 528
f 494 528 495
f 495 528 529
f 495 529 498
f 496 526 530
f 496 530 497
f 497 530 531
f 497 531 528
f 497 528 527
f 498 529 532
f 498 532 499
f 499 532 533
f 499 533 534
f 499 534 535
f 499 535 500
f 500 535 536
f 500 536 537
f 503 538 504
f 504 538 539
f 504 539 540
f 504 540 541
f 504 541 505
f 505 541 542
f 505 542 506
f 506 542 543
f 506 543 507
f 507 543 510
f 507 510 508
f 508 510 509
f 510 543 511
f 511 543 544
f 511 544 512
f 512 544 545
f 512 545 546
f 512 546 513
f 513 546 547
f 513 547 514
f 514 547 548
f 514 548 549
f 514 549 515
f 515 550 516
f 515 549 550
f 516 550 517
f 517 550 551
f 517 551 552
f 517 552 553
f 517 553 518
f 518 553 552
f 518 552 554
f 518 554 555
f 518 555 519
f 519 555 556
f 519 556 520
f 520 556 557
f 520 557 521
f 521 557 523
f 522 523 558
f 523 557 559
f 523 559 560
f 523 560 558
f 524 561 562
f 524 562 525
f 525 562 563
f 525 563 564
f 525 564 565
f 525 565 566
f 525 566 567
f 525 567 526
f 526 567 530
f 528 531 568
f 528 568 532
f 528 532 529
f 530 567 569
f 530 569 570
f 530 570 571
f 530 571 531
f 531 571 568
f 532 568 533
f 533 572 573
f 533 573 574
f 533 574 534
f 533 568 572
f 534 574 575
f 534 575 535
f 535 576 536
f 535 575 577
f 535 577 576
f 539 578 540
f 540 578 579
f 540 579 541
f 541 579 580
f 541 580 542
f 542 581 582
f 542 582 543
f 542 580 583
f 542 583 584
f 542 584 581
f 543 582 544
f 544 582 585
f 544 585 545
f 545 586 587
f 545 587 546
f 545 585 586
f 546 588 547
f 546 587 588
f 547 588 548
f 548 588 589
f 548 589 590
f 548 590 591
f 548 591 551
f 548 551 549
f 549 551 550
f 551 591 552
f 552 592 554
f 552 591 590
f 552 590 593
f 552 593 592
f 554 592 594
f 554 594 555
f 555 594 595
f 555 595 556
f 556 595 559
f 556 559 557
f 558 560 596
f 559 595 631
f 559 631 597
f 559 597 598
f 559 598 560
f 560 598 599
f 560 599 596
f 561 600 601
f 561 601 602
f 561 602 562
f 562 602 601
f 562 601 563
f 563 601 603
f 563 603 564
f 564 603 565
f 565 603 566
f 566 603 604
f 566 604 567
f 567 604 569
f 568 571 605
f 568 605 606
f 568 606 572
f 569 604 570
f 570 604 606
f 570 606 571
f 571 606 605
f 572 606 573
f 573 607 651
f 573 651 608
f 573 608 574
f 573 606 607
f 574 608 609
f 574 609 575
f 575 609 610
f 575 610 611
f 575 611 577
f 578 612 613
f 578 613 579
f 579 613 617
f 579 617 583
f 579 583 580
f 581 614 615
f 581 615 585
f 581 585 582
f 581 584 616
f 581 616 614
f 583 617 618
f 583 618 584
f 584 618 661
f 584 661 616
f 585 615 586
f 586 615 619
f 586 619 587
f 587 619 620
f 587 620 621
f 587 621 622
f 587 622 623
f 587 623 588
f 588 623 624
f 588 624 589
f 589 624 590
f 590 624 625
f 590 625 626
f 590 626 629
f 590 629 593
f 592 593 627
f 592 627 628
f 592 628 594
f 593 629 630
f 593 630 627
f 594 628 631
f 594 631 595
f 597 631 632
f 597 632 633
f 597 633 634
f 597 634 635
f 597 635 598
f 598 635 636
f 598 636 637
f 598 637 599
f 600 638 601
f 601 638 639
f 601 639 640
f 601 640 641
f 601 641 642
f 601 642 603
f 603 642 643
f 603 643 644
f 603 644 645
f 603 645 646
f 603 646 647
f 603 647 604
f 604 647 606
f 606 647 648
f 606 648 649
f 606 649 607
f 607 649 650
f 607 650 651
f 608 651 652
f 608 652 653
f 608 653 609
f 609 653 654
f 609 654 610
f 610 654 655
f 610 655 656
f 610 656 657
f 610 657 611
f 612 658 659
f 612 659 613
f 613 659 664
f 613 664 617
f 614 660 615
f 614 616 661
f 614 661 662
f 614 662 663
f 614 663 621
f 614 621 660
f 615 660 619
f 617 664 666
f 617 666 618
f 618 665 661
f 618 666 710
f 618 710 665
f 619 660 620
f 620 660 621
f 621 663 622
f 622 667 623
f 622 663 667
f 623 667 668
f 623 668 625
f 623 625 624
f 625 668 669
f 625 669 670
f 625 670 626
f 626 670 629
f 627 630 628
f 628 630 671
f 628 671 632
f 628 632 631
f 629 670 672
f 629 672 630
f 630 672 673
f 630 673 674
f 630 674 675
f 630 675 671
f 632 671 676
f 632 676 677
f 632 677 633
f 633 677 634
f 634 677 678
f 634 678 723
f 634 723 679
f 634 679 680
f 634 680 636
f 634 636 635
f 638 681 639
f 639 681 682
f 639 682 683
f 639 683 640
f 640 683 684
f 640 684 641
f 641 684 685
f 641 685 642
f 642 644 643
f 642 685 686
f 642 686 644
f 644 687 688
f 644 688 689
f 644 689 646
f 644 646 645
f 644 686 687
f 646 689 690
f 646 690 647
f 647 690 650
f 647 650 691
f 647 691 648
f 648 691 650
f 648 650 649
f 650 690 692
f 650 692 693
f 650 693 694
f 650 694 651
f 651 694 695
f 651 695 652
f 652 695 696
f 652 696 697
f 652 697 653
f 653 697 698
f 653 698 654
f 654 698 699
f 654 699 700
f 654 700 655
f 655 700 701
f 655 701 702
f 655 702 656
f 658 703 704
f 658 704 659
f 659 704 664
f 661 665 705
f 661 705 662
f 662 705 663
f 663 705 706
f 663 706 707
f 663 707 708
f 663 708 667
f 664 704 709
f 664 709 711
f 664 711 666
f 665 710 705
f 666 711 751
f 666 751 710
f 667 708 668
f 668 708 707
f 668 707 712
f 668 712 713
f 668 713 669
f 669 713 670
f 670 713 714
f 670 714 672
f 671 675 676
f 672 715 674
f 672 674 673
f 672 714 715
f 674 716 675
f 674 715 717
f 674 717 716
f 675 716 676
f 676 716 718
f 676 718 719
f 676 719 677
f 677 719 718
f 677 718 720
f 677 720 721
f 677 721 678
f 678 721 722
f 678 722 723
f 681 724 682
f 682 724 683
f 683 724 725
f 683 725 726
f 683 726 684
f 684 726 727
f 684 727 685
f 685 727 728
f 685 728 686
f 686 728 729
f 686 729 687
f 687 729 730
f 687 730 688
f 688 730 731
f 688 731 689
f 689 731 732
f 689 732 690
f 690 732 733
f 690 733 692
f 692 733 734
f 692 734 693
f 693 734 695
f 693 695 694
f 695 734 696
f 696 734 735
f 696 735 736
f 696 736 697
f 697 736 737
f 697 737 698
f 698 737 738
f 698 738 699
f 699 738 739
f 699 739 700
f 700 740 741
f 700 741 701
f 700 739 742
f 700 742 743
f 700 743 740
f 703 744 704
f 704 744 745
f 704 745 750
f 704 750 709
f 705 710 746
f 705 746 747
f 705 747 748
f 705 748 706
f 706 748 707
f 707 748 749
f 707 749 753
f 707 753 712
f 709 750 752
f 709 752 711
f 710 751 787
f 710 787 746
f 711 752 791
f 711 791 751
f 712 753 713
f 713 753 754
f 713 754 755
f 713 755 714
f 714 755 715
f 715 755 756
f 715 756 717
f 716 717 757
f 716 757 758
f 716 758 718
f 717 756 759
f 717 759 757
f 718 758 760
f 718 760 720
f 720 760 761
f 720 761 762
f 720 762 763
f 720 763 764
f 720 764 721
f 721 764 722
f 722 764 763
f 722 763 765
f 724 766 725
f 725 766 767
f 725 767 768
f 725 768 726
f 726 768 769
f 726 769 727
f 727 769 770
f 727 770 728
f 728 770 771
f 728 771 729
f 729 771 772
f 729 772 730
f 730 772 773
f 730 773 731
f 731 773 774
f 731 774 732
f 732 774 775
f 732 775 733
f 733 775 734
f 734 775 735
f 735 775 776
f 735 776 736
f 736 776 777
f 736 777 778
f 736 778 779
f 736 779 737
f 737 779 738
f 738 779 818
f 738 818 780
f 738 780 739
f 739 780 781
f 739 781 742
f 742 781 821
f 742 821 782
f 742 782 783
f 742 783 743
f 744 784 745
f 745 784 785
f 745 785 790
f 745 790 750
f 746 786 748
f 746 748 747
f 746 787 786
f 748 786 788
f 748 788 749
f 749 788 789
f 749 789 753
f 750 790 792
f 750 792 752
f 751 791 787
f 752 792 791
f 753 789 793
f 753 793 794
f 753 794 754
f 754 794 755
f 755 794 836
f 755 836 795
f 755 795 759
f 755 759 756
f 757 759 796
f 757 796 797
f 757 797 798
f 757 798 758
f 758 798 761
f 758 761 760
f 759 795 796
f 761 798 840
f 761 840 799
f 761 799 800
f 761 800 762
f 762 800 763
f 763 800 801
f 763 801 802
f 763 802 765
f 766 803 767
f 767 803 804
f 767 804 805
f 767 805 768
f 768 805 806
f 768 806 769
f 769 806 770
f 770 806 807
f 770 807 808
f 770 808 771
f 771 808 809
f 771 809 772
f 772 809 810
f 772 810 811
f 772 811 773
f 773 811 813
f 773 813 774
f 774 812 775
f 774 813 814
f 774 814 812
f 775 812 776
f 776 812 777
f 777 812 814
f 777 814 815
f 777 815 816
f 777 816 778
f 778 816 817
f 778 817 779
f 779 817 818
f 780 818 819
f 780 819 820
f 780 820 781
f 781 820 866
f 781 866 821
f 782 821 867
f 782 867 822
f 782 822 783
f 783 822 823
f 784 824 825
f 784 825 785
f 785 825 831
f 785 831 790
f 786 789 788
f 786 787 826
f 786 826 789
f 787 791 827
f 787 827 828
f 787 828 826
f 789 829 793
f 789 826 830
f 789 830 829
f 790 831 792
f 791 792 832
f 791 832 833
f 791 833 827
f 792 831 834
f 792 834 835
f 792 835 832
f 793 829 836
f 793 836 794
f 795 836 880
f 795 880 837
f 795 837 796
f 796 838 797
f 796 837 839
f 796 839 883
f 796 883 838
f 797 840 798
f 797 838 840
f 799 840 841
f 799 841 842
f 799 842 843
f 799 843 844
f 799 844 800
f 800 844 801
f 801 844 843
f 801 843 845
f 801 845 846
f 801 846 847
f 801 847 848
f 801 848 802
f 803 849 850
f 803 850 851
f 803 851 804
f 804 851 805
f 805 851 852
f 805 852 853
f 805 853 806
f 806 853 807
f 807 854 855
f 807 855 808
f 807 853 856
f 807 856 854
f 808 855 809
f 809 855 857
f 809 857 858
f 809 858 859
f 809 859 810
f 810 859 860
f 810 860 813
f 810 813 811
f 813 860 814
f 814 860 815
f 815 860 861
f 815 861 816
f 816 861 862
f 816 862 817
f 817 862 863
f 817 863 818
f 818 863 819
f 819 863 864
f 819 864 903
f 819 903 865
f 819 865 866
f 819 866 820
f 821 866 867
f 822 867 908
f 822 908 868
f 822 868 869
f 822 869 823
f 824 870 871
f 824 871 825
f 825 871 831
f 826 828 830
f 827 833 828
f 828 872 830
f 828 833 873
f 828 873 874
f 828 874 875
f 828 875 872
f 829 830 876
f 829 876 836
f 830 872 876
f 831 871 877
f 831 877 878
f 831 878 834
f 832 835 873
f 832 873 833
f 834 878 879
f 834 879 835
f 835 879 914
f 835 914 873
f 836 876 880
f 837 880 881
f 837 881 882
f 837 882 839
f 838 841 840
f 838 883 841
f 839 882 884
f 839 884 883
f 841 883 885
f 841 885 842
f 842 885 886
f 842 886 843
f 843 886 887
f 843 887 888
f 843 888 845
f 845 888 889
f 845 889 846
f 849 890 891
f 849 891 851
f 849 851 850
f 851 891 852
f 852 891 892
f 852 892 893
f 852 893 894
f 852 894 853
f 853 894 856
f 854 857 855
f 854 856 895
f 854 895 857
f 856 893 896
f 856 896 897
f 856 897 895
f 856 894 893
f 857 895 897
f 857 897 898
f 857 898 899
f 857 899 858
f 858 900 859
f 858 899 900
f 859 900 860
f 860 900 861
f 861 900 901
f 861 901 902
f 861 902 862
f 862 902 863
f 863 902 864
f 864 902 903
f 865 903 904
f 865 904 905
f 865 905 906
f 865 906 907
f 865 907 866
f 866 907 867
f 867 907 918
f 867 918 908
f 868 909 877
f 868 877 871
f 868 871 910
f 868 910 911
f 868 911 869
f 868 908 909
f 870 912 871
f 871 912 910
f 872 875 876
f 873 913 874
f 873 914 913
f 874 913 917
f 874 917 875
f 875 915 916
f 875 916 876
f 875 917 915
f 876 916 881
f 876 881 880
f 877 909 918
f 877 918 878
f 878 918 919
f 878 919 879
f 879 919 920
f 879 920 914
f 881 916 915
f 881 915 921
f 881 921 882
f 882 921 922
f 882 922 884
f 883 884 923
f 883 923 885
f 884 922 924
f 884 924 923
f 885 923 925
f 885 925 926
f 885 926 886
f 886 926 887
f 887 926 927
f 887 927 888
f 888 927 928
f 888 928 889
f 889 928 929
f 890 930 931
f 890 931 891
f 891 931 892
f 892 931 932
f 892 932 893
f 893 932 967
f 893 967 933
f 893 933 934
f 893 934 896
f 896 934 897
f 897 934 935
f 897 935 936
f 897 936 898
f 898 936 899
f 899 936 937
f 899 937 938
f 899 938 939
f 899 939 940
f 899 940 900
f 900 940 901
f 901 940 939
f 901 939 941
f 901 941 942
f 901 942 902
f 902 942 903
f 903 942 904
f 904 942 905
f 905 943 944
f 905 944 906
f 905 942 945
f 905 945 946
f 905 946 943
f 906 944 920
f 906 920 919
f 906 919 918
f 906 918 907
f 908 918 909
f 913 914 947
f 913 947 917
f 914 920 947
f 915 917 948
f 915 948 953
f 915 953 921
f 917 947 949
f 917 949 950
f 917 950 948
f 920 951 947
f 920 944 952
f 920 952 951
f 921 953 954
f 921 954 922
f 922 954 924
f 923 924 955
f 923 955 956
f 923 956 925
f 924 957 985
f 924 985 955
f 924 954 957
f 925 956 926
f 926 956 958
f 926 958 959
f 926 959 927
f 927 959 960
f 927 960 961
f 927 961 928
f 928 961 962
f 928 962 929
f 930 963 964
f 930 964 965
f 930 965 966
f 930 966 931
f 931 966 932
f 932 966 965
f 932 965 967
f 933 967 968
f 933 968 969
f 933 969 934
f 934 970 971
f 934 971 972
f 934 972 935
f 934 969 970
f 935 972 936
f 936 972 973
f 936 973 974
f 936 974 937
f 937 974 938
f 938 975 976
f 938 976 939
f 938 974 977
f 938 977 975
f 939 976 941
f 941 976 942
f 942 976 945
f 943 975 978
f 943 978 944
f 943 946 976
f 943 976 975
f 944 978 952
f 945 976 946
f 947 951 949
f 948 950 949
f 948 949 979
f 948 979 953
f 949 951 952
f 949 952 980
f 949 980 979
f 952 978 1002
f 952 1002 980
f 953 979 1003
f 953 1003 981
f 953 981 984
f 953 984 954
f 954 982 983
f 954 983 957
f 954 984 982
f 955 985 958
f 955 958 956
f 957 983 986
f 957 986 985
f 958 985 986
f 958 986 987
f 958 987 988
f 958 988 989
f 958 989 959
f 959 989 960
f 960 989 990
f 960 990 991
f 960 991 961
f 961 991 962
f 962 991 992
f 962 992 993
f 963 994 995
f 963 995 996
f 963 996 997
f 963 997 964
f 964 997 965
f 965 997 967
f 967 997 968
f 968 996 998
f 968 998 969
f 968 997 996
f 969 999 970
f 969 998 989
f 969 989 988
f 969 988 987
f 969 987 999
f 970 999 1000
f 970 1000 971
f 971 973 972
f 971 1000 984
f 971 984 973
f 973 984 974
f 974 984 1001
f 974 1001 977
f 975 977 1002
f 975 1002 978
f 977 1001 981
f 977 981 1003
f 977 1003 980
f 977 980 1002
f 979 980 1003
f 981 1001 984
f 982 986 983
f 982 984 1000
f 982 1000 987
f 982 987 986
f 987 1000 999
f 989 998 1004
f 989 1004 1005
f 989 1005 990
f 990 1005 992
f 990 992 991
f 992 1005 1004
f 992 1004 996
f 992 996 995
f 992 995 1006
f 992 1006 993
f 994 1006 995
f 996 1004 998
