v 0.59581649 -0.48570895 -0.37980992
v 0.76769435 -0.48570895 -0.00210454
v 0.83985853 -0.32156289 -0.00210454
v 0.69801724 -0.32156289 -0.37980992
v 0.81066382 -0.48570895 -0.37980992
v 0.93314397 -0.48570895 -0.00210454
v 0.98667407 -0.32156289 -0.00210454
v 0.87131083 -0.32156289 -0.37980992
v 0.81728333 -0.47574708 -0.37980992
v 0.81823993 -0.47704855 -0.37744322
v 0.81559974 -0.48570895 -0.37296873
v 0.93318224 -0.48570895 -0.00465611
v 0.93823296 -0.47663081 -0.00210454
v 0.98537314 -0.33003047 -0.00210454
v 0.98667407 -0.32156289 -0.01001808
v 0.87150216 -0.32156289 -0.37958801
v 0.86993337 -0.33003047 -0.37980992
v 0.82332891 -0.46536744 -0.37980992
v 0.83993506 -0.45992053 -0.35991508
v 0.83698881 -0.46997881 -0.35529271
v 0.82271665 -0.48419860 -0.36413074
v 0.82068872 -0.48570895 -0.36560988
v 0.93322051 -0.48570895 -0.01001808
v 0.93827122 -0.47667900 -0.01001808
v 0.94328368 -0.46663678 -0.00210454
v 0.98181462 -0.34911874 -0.00210454
v 0.98181462 -0.34915087 -0.01001808
v 0.98537314 -0.33003047 -0.01001808
v 0.98598528 -0.32156289 -0.03002381
v 0.87567282 -0.32156289 -0.37304270
v 0.86610705 -0.34960076 -0.37980992
v 0.87494582 -0.33003047 -0.37189636
v 0.88018787 -0.34097248 -0.36028489
v 0.83117282 -0.45052102 -0.37980992
v 0.83652967 -0.45195103 -0.37097186
v 0.84322572 -0.44658446 -0.36498123
v 0.85030437 -0.45064956 -0.35048541
v 0.85742128 -0.45469859 -0.33550882
v 0.84322572 -0.46997881 -0.34530830
v 0.84024119 -0.48043880 -0.34046406
v 0.83354515 -0.48570895 -0.34567812
v 0.82478291 -0.48570895 -0.35936040
v 0.93306744 -0.48570895 -0.01619361
v 0.93268484 -0.48570895 -0.03002381
v 0.93800342 -0.47614875 -0.03002381
v 0.94328368 -0.46668497 -0.01001808
v 0.95085979 -0.44997472 -0.01001808
v 0.94783700 -0.45656243 -0.00210454
v 0.98059022 -0.35516012 -0.00210454
v 0.97978669 -0.35914487 -0.01001808
v 0.98147029 -0.34749591 -0.03002381
v 0.98468435 -0.33003047 -0.03002381
v 0.98464608 -0.32156289 -0.05002956
v 0.87923127 -0.32156289 -0.36723697
v 0.88114440 -0.33003047 -0.36191195
v 0.86231899 -0.36650380 -0.37980992
v 0.87368309 -0.34858850 -0.36816144
v 0.88795525 -0.33003047 -0.34996772
v 0.88401413 -0.34858850 -0.35074425
v 0.87873387 -0.35430855 -0.35791820
v 0.83821321 -0.43652618 -0.37980992
v 0.83882546 -0.43745810 -0.37833074
v 0.85703868 -0.42998669 -0.35514480
v 0.86063540 -0.44136253 -0.34105572
v 0.85309756 -0.46935219 -0.32929635
v 0.86373472 -0.44881785 -0.32929635
v 0.86117113 -0.46226639 -0.32215935
v 0.85749781 -0.47558641 -0.31539217
v 0.84395272 -0.48570895 -0.32833487
v 0.84299612 -0.48570895 -0.32996196
v 0.84154212 -0.48570895 -0.33240259
v 0.93146038 -0.48570895 -0.05002956
v 0.93742943 -0.47497582 -0.05002956
v 0.94301587 -0.46615475 -0.03002381
v 0.95078325 -0.44997472 -0.00210454
v 0.95028585 -0.44997472 -0.03002381
v 0.95755583 -0.43339303 -0.01001808
v 0.95751756 -0.43332875 -0.00210454
v 0.97978669 -0.35911274 -0.00210454
v 0.97710824 -0.37002259 -0.00210454
v 0.97710824 -0.37002259 -0.01001808
v 0.97645783 -0.37002259 -0.03002381
v 0.97944236 -0.35748991 -0.03002381
v 0.97879183 -0.35421214 -0.05002956
v 0.98078156 -0.34420207 -0.05002956
v 0.98334515 -0.33003047 -0.05002956
v 0.98380435 -0.32156289 -0.05846082
v 0.88179493 -0.32156289 -0.36302134
v 0.88925624 -0.32156289 -0.34996772
v 0.86633658 -0.37116340 -0.37163749
v 0.85960233 -0.37860268 -0.37940311
v 0.85941100 -0.37829739 -0.37980992
v 0.89740622 -0.32156289 -0.33513904
v 0.89675575 -0.33003047 -0.33384478
v 0.88267493 -0.37002259 -0.34475362
v 0.89556962 -0.35035592 -0.32885259
v 0.87693548 -0.37002259 -0.35473800
v 0.84291959 -0.42563239 -0.37980992
v 0.84666938 -0.43046874 -0.37097186
v 0.85944927 -0.41854662 -0.35910156
v 0.86300772 -0.42998669 -0.34516042
v 0.87303263 -0.42857274 -0.32840884
v 0.87766248 -0.43430886 -0.31550309
v 0.87414229 -0.44942844 -0.30929059
v 0.87796861 -0.45572692 -0.29590413
v 0.86415559 -0.46935219 -0.30921665
v 0.86105633 -0.48178846 -0.30207965
v 0.85286802 -0.48570895 -0.31243384
v 0.92962378 -0.48570895 -0.07003529
v 0.93647289 -0.47309592 -0.07003529
v 0.94148535 -0.46310192 -0.07003529
v 0.94240367 -0.46496576 -0.05002956
v 0.95724976 -0.43262178 -0.03002381
v 0.94909966 -0.44997472 -0.05002956
v 0.96092296 -0.42262775 -0.03002381
v 0.96119082 -0.42339900 -0.01001808
v 0.96119082 -0.42333472 -0.00210454
v 0.97175145 -0.39001063 -0.00210454
v 0.97178972 -0.39001063 -0.01001808
v 0.97117752 -0.39001063 -0.03002381
v 0.97519511 -0.37002259 -0.05002956
v 0.97324371 -0.37002259 -0.07003529
v 0.97795010 -0.34887773 -0.06948061
v 0.98024583 -0.34143844 -0.06245457
v 0.98135549 -0.33027148 -0.06948061
v 0.98265642 -0.32156289 -0.06970248
v 0.86423212 -0.39001063 -0.36679322
v 0.85788047 -0.39001063 -0.37677759
v 0.85577601 -0.39029986 -0.37980992
v 0.90042901 -0.32156289 -0.32933331
v 0.90195954 -0.33003047 -0.32386041
v 0.90069687 -0.34389678 -0.32145673
v 0.88095313 -0.38358361 -0.34175831
v 0.89063370 -0.37002259 -0.32996196
v 0.89939594 -0.35723284 -0.31883124
v 0.87486929 -0.39015526 -0.34904322
v 0.84881210 -0.41044855 -0.37980992
v 0.85527855 -0.41112339 -0.36975157
v 0.86185980 -0.40522662 -0.36294740
v 0.86660445 -0.41112339 -0.35144687
v 0.87685895 -0.40998259 -0.33428854
v 0.88034093 -0.42097279 -0.32071716
v 0.88309586 -0.42857274 -0.30929059
v 0.88106787 -0.44239086 -0.30215362
v 0.88389939 -0.44942844 -0.28954372
v 0.88122094 -0.46237886 -0.28259164
v 0.87406576 -0.46941647 -0.28954372
v 0.85646474 -0.48570895 -0.30592549
v 0.87766248 -0.47571492 -0.27501088
v 0.86231899 -0.48570895 -0.29468381
v 0.92713666 -0.48570895 -0.08919051
v 0.93597543 -0.46877375 -0.09074364
v 0.94060528 -0.46131843 -0.08453114
v 0.94726306 -0.44997472 -0.07003529
v 0.95732623 -0.42879769 -0.05191550
v 0.96046382 -0.42134237 -0.04651654
v 0.96513194 -0.40998259 -0.03002381
v 0.96570587 -0.40998259 -0.01001808
v 0.96562934 -0.40998259 -0.00210454
v 0.96934086 -0.39794800 -0.00210454
v 0.96991479 -0.39001063 -0.05002956
v 0.96800166 -0.39001063 -0.07003529
v 0.97500384 -0.35001850 -0.09004103
v 0.96539974 -0.39001063 -0.09004103
v 0.97060359 -0.37002259 -0.09004103
v 0.97948062 -0.33708414 -0.07576707
v 0.98059022 -0.32376415 -0.08430926
v 0.98078156 -0.32156289 -0.08530769
v 0.90261000 -0.32156289 -0.32511771
v 0.91007131 -0.32156289 -0.30995622
v 0.90877038 -0.33003047 -0.30995622
v 0.90440840 -0.35035592 -0.31128746
v 0.87907821 -0.39690360 -0.33831924
v 0.88485593 -0.39015526 -0.33099738
v 0.89794195 -0.37002259 -0.31583592
v 0.90280133 -0.37002259 -0.30581456
v 0.88225406 -0.40998259 -0.32430416
v 0.88948578 -0.40998259 -0.30995622
v 0.90012294 -0.42041045 -0.28033590
v 0.89338863 -0.42823532 -0.28817549
v 0.89759755 -0.43373042 -0.27453017
v 0.89380950 -0.44868931 -0.26872444
v 0.89752102 -0.45450577 -0.25408068
v 0.88366979 -0.46941647 -0.26902026
v 0.88072354 -0.48127431 -0.26169840
v 0.87601715 -0.48570895 -0.26602495
v 0.92403734 -0.48570895 -0.11000979
v 0.93226391 -0.46997881 -0.11000979
v 0.93964869 -0.45924571 -0.09784364
v 0.94397247 -0.45154935 -0.09074364
v 0.95261991 -0.42998669 -0.09004103
v 0.95518351 -0.42998669 -0.07003529
v 0.95996642 -0.41994447 -0.05986603
v 0.96314228 -0.41195890 -0.05191550
v 0.96260655 -0.40819910 -0.07003529
v 0.96130562 -0.40418223 -0.09004103
v 0.97856230 -0.33027148 -0.09059572
v 0.97175145 -0.35001850 -0.11000979
v 0.96034902 -0.40127400 -0.10228114
v 0.96218568 -0.39033198 -0.10934416
v 0.96735120 -0.37002259 -0.11000979
v 0.97925103 -0.32156289 -0.09536603
v 0.98024583 -0.32156289 -0.08885770
v 0.91745609 -0.32156289 -0.29446197
v 0.91676736 -0.33003047 -0.29301977
v 0.92032588 -0.34179193 -0.28077966
v 0.91535163 -0.34908658 -0.28847131
v 0.89583743 -0.39042839 -0.30932757
v 0.90107954 -0.38403350 -0.30226457
v 0.91014785 -0.37002259 -0.28998747
v 0.89920461 -0.39736956 -0.29838175
v 0.89717668 -0.40998259 -0.29405516
v 0.90180647 -0.40998259 -0.28407079
v 0.90789032 -0.40998259 -0.26998174
v 0.91619343 -0.41003081 -0.24964318
v 0.90919125 -0.42998669 -0.24997599
v 0.90215087 -0.42823532 -0.26872444
v 0.90046728 -0.44116971 -0.26118070
v 0.90027595 -0.46059537 -0.24073119
v 0.89308250 -0.46835601 -0.24845985
v 0.88301933 -0.48570895 -0.24997599
v 0.89721495 -0.47463840 -0.23000723
v 0.92319560 -0.48570895 -0.11463219
v 0.92170334 -0.48313814 -0.13001552
v 0.92843759 -0.46997881 -0.13001552
v 0.93861562 -0.45681950 -0.11000979
v 0.94286281 -0.44682550 -0.11000979
v 0.95812976 -0.41417623 -0.09004103
v 0.95939243 -0.41820920 -0.07003529
v 0.94940579 -0.42998669 -0.11000979
v 0.97542471 -0.33003047 -0.11000979
v 0.96784860 -0.35001850 -0.13001552
v 0.96298921 -0.37121162 -0.13108793
v 0.95671403 -0.40874541 -0.10934416
v 0.95916289 -0.39720890 -0.11559365
v 0.96103776 -0.38387284 -0.12513427
v 0.97672564 -0.32156289 -0.10993584
v 0.92197114 -0.32156289 -0.28444058
v 0.92132068 -0.33003047 -0.28299838
v 0.92686880 -0.33003047 -0.26998174
v 0.93589890 -0.32898611 -0.24838589
v 0.92315733 -0.34908658 -0.27061039
v 0.91898662 -0.35512799 -0.27771038
v 0.90448493 -0.39042839 -0.29105985
v 0.91734135 -0.37002259 -0.27379060
v 0.91489249 -0.38864490 -0.26839161
v 0.91841269 -0.39439708 -0.25607756
v 0.92105281 -0.40344310 -0.24272807
v 0.91894835 -0.41673097 -0.23714422
v 0.91661429 -0.43027592 -0.23030306
v 0.90234220 -0.44868931 -0.24845985
v 0.90888518 -0.44997472 -0.23000723
v 0.90226567 -0.46464440 -0.23000723
v 0.88340193 -0.48570895 -0.24901453
v 0.89939594 -0.47891238 -0.21839577
v 0.92024934 -0.48570895 -0.13001552
v 0.92044061 -0.48085654 -0.14207074
v 0.92380780 -0.47065365 -0.14924470
v 0.93727636 -0.44989440 -0.13182750
v 0.94129401 -0.44316208 -0.12639156
v 0.94443160 -0.43188268 -0.13182750
v 0.95235205 -0.40998259 -0.13001552
v 0.97282279 -0.32156289 -0.13001552
v 0.97152185 -0.33003047 -0.13001552
v 0.96122909 -0.36533087 -0.14532492
v 0.96291268 -0.35104683 -0.15120460
v 0.96704507 -0.33003047 -0.15002127
v 0.95962203 -0.37866694 -0.13844678
v 0.95797670 -0.39033198 -0.13108793
v 0.92816979 -0.32156289 -0.26998174
v 0.94026089 -0.32162714 -0.24065724
v 0.93142211 -0.35001850 -0.24997599
v 0.93911302 -0.33496320 -0.23769891
v 0.92155027 -0.37002259 -0.26380622
v 0.92024934 -0.38106102 -0.26066297
v 0.92250681 -0.38864490 -0.24964318
v 0.92958552 -0.39001063 -0.23000723
v 0.92353994 -0.41003081 -0.23030306
v 0.92135894 -0.42381677 -0.22383171
v 0.91891009 -0.43713677 -0.21684265
v 0.91531336 -0.44968551 -0.21207233
v 0.90479100 -0.47240502 -0.21207233
v 0.90547979 -0.47097501 -0.21207233
v 0.89055717 -0.48570895 -0.23082078
v 0.90050554 -0.48082441 -0.21207233
v 0.89759755 -0.48570895 -0.21207233
v 0.89698535 -0.48570895 -0.21377337
v 0.91657603 -0.48570895 -0.14661917
v 0.91883361 -0.47777158 -0.15538324
v 0.93310571 -0.44997472 -0.15002127
v 0.92185634 -0.46388924 -0.17002700
v 0.93991655 -0.43980396 -0.13970408
v 0.94232714 -0.42641971 -0.15002127
v 0.95380604 -0.39001063 -0.15002127
v 0.94783700 -0.40998259 -0.15002127
v 0.96830773 -0.32156289 -0.15002127
v 0.95843589 -0.37121162 -0.15120460
v 0.95962203 -0.35840577 -0.15867439
v 0.96096122 -0.34506971 -0.16370356
v 0.96203262 -0.32909855 -0.17024888
v 0.93635809 -0.32156289 -0.25008693
v 0.94022262 -0.32156289 -0.24069422
v 0.94389594 -0.32156289 -0.23037702
v 0.94270974 -0.32898611 -0.23059890
v 0.93765903 -0.35001850 -0.23385307
v 0.92709839 -0.37002259 -0.24997599
v 0.94137055 -0.35001850 -0.22383171
v 0.93559283 -0.36872113 -0.22845411
v 0.93865389 -0.37453759 -0.21606608
v 0.93934262 -0.37720481 -0.21207233
v 0.93674070 -0.39002672 -0.20963171
v 0.92992985 -0.40998259 -0.21207233
v 0.92227727 -0.43226829 -0.21207233
v 0.93065691 -0.40998259 -0.20996451
v 0.92365474 -0.43027592 -0.21007545
v 0.91971362 -0.43916127 -0.21207233
v 0.91600209 -0.44965339 -0.21007545
v 0.91829789 -0.45609647 -0.19450723
v 0.92112935 -0.44277647 -0.20349316
v 0.90169173 -0.48294532 -0.20504628
v 0.90567106 -0.47132850 -0.21099994
v 0.91424203 -0.46843633 -0.18873847
v 0.89920461 -0.48570895 -0.20744993
v 0.91550469 -0.48570895 -0.15087178
v 0.91014785 -0.48570895 -0.17117336
v 0.91692042 -0.47389930 -0.17002700
v 0.92797846 -0.44997472 -0.17002700
v 0.92032588 -0.46073997 -0.18123169
v 0.93865389 -0.43641371 -0.15002127
v 0.94072008 -0.42208147 -0.16281606
v 0.94871706 -0.39001063 -0.17002700
v 0.94278628 -0.41003081 -0.16969419
v 0.96314228 -0.32156289 -0.17013794
v 0.95388258 -0.37002259 -0.17002700
v 0.95801497 -0.35104683 -0.17024888
v 0.95916289 -0.33513996 -0.17705305
v 0.96027255 -0.32156289 -0.18104680
v 0.94810486 -0.32156289 -0.21843275
v 0.94906139 -0.32991800 -0.21207233
v 0.94026089 -0.36120152 -0.22076243
v 0.94615340 -0.35001850 -0.20996451
v 0.94087315 -0.37090632 -0.21207233
v 0.94221234 -0.36872113 -0.20963171
v 0.94087315 -0.38335869 -0.20275357
v 0.93903649 -0.39669475 -0.19691087
v 0.93693203 -0.41003081 -0.19018066
v 0.93012118 -0.42998669 -0.19003274
v 0.92277467 -0.44965339 -0.18873847
v 0.90479100 -0.48570895 -0.18992180
v 0.90326047 -0.48570895 -0.19498795
v 0.93624330 -0.42923152 -0.16969419
v 0.93888342 -0.41671491 -0.17612857
v 0.94106442 -0.40341097 -0.18363534
v 0.94293934 -0.39002672 -0.19018066
v 0.94814312 -0.37002259 -0.19003274
v 0.95254338 -0.35001850 -0.19003274
v 0.95675230 -0.32909855 -0.18859056
v 0.95101285 -0.32156289 -0.20996451
v 0.94975019 -0.33003047 -0.20996451
f 1 2 3
f 1 3 4
f 1 4 8
f 1 8 17
f 1 17 31
f 1 31 56
f 1 56 92
f 1 92 129
f 1 129 137
f 1 137 98
f 1 98 61
f 1 61 34
f 1 34 18
f 1 18 9
f 1 9 5
f 1 5 11
f 1 11 22
f 1 22 42
f 1 42 41
f 1 41 71
f 1 71 70
f 1 70 69
f 1 69 108
f 1 108 148
f 1 148 150
f 1 150 186
f 1 186 221
f 1 221 254
f 1 254 284
f 1 284 287
f 1 287 286
f 1 286 323
f 1 323 350
f 1 350 349
f 1 349 325
f 1 325 324
f 1 324 288
f 1 288 256
f 1 256 223
f 1 223 187
f 1 187 151
f 1 151 109
f 1 109 72
f 1 72 44
f 1 44 43
f 1 43 23
f 1 23 12
f 1 12 6
f 1 6 2
f 2 6 13
f 2 13 25
f 2 25 48
f 2 48 75
f 2 75 78
f 2 78 117
f 2 117 159
f 2 159 160
f 2 160 118
f 2 118 80
f 2 80 79
f 2 79 49
f 2 49 26
f 2 26 14
f 2 14 7
f 2 7 3
f 3 7 15
f 3 15 29
f 3 29 53
f 3 53 87
f 3 87 126
f 3 126 168
f 3 168 203
f 3 203 202
f 3 202 237
f 3 237 263
f 3 263 296
f 3 296 333
f 3 333 337
f 3 337 358
f 3 358 338
f 3 338 303
f 3 303 302
f 3 302 301
f 3 301 270
f 3 270 238
f 3 238 204
f 3 204 170
f 3 170 169
f 3 169 130
f 3 130 93
f 3 93 89
f 3 89 88
f 3 88 54
f 3 54 30
f 3 30 16
f 3 16 8
f 3 8 4
f 5 9 10
f 5 10 11
f 6 12 13
f 7 14 28
f 7 28 15
f 8 16 17
f 9 18 10
f 10 18 19
f 10 19 20
f 10 20 21
f 10 21 11
f 11 21 22
f 12 23 24
f 12 24 13
f 13 24 25
f 14 26 27
f 14 27 28
f 15 28 52
f 15 52 29
f 16 30 17
f 17 30 32
f 17 32 33
f 17 33 31
f 18 34 35
f 18 35 19
f 19 35 36
f 19 36 37
f 19 37 38
f 19 38 39
f 19 39 40
f 19 40 20
f 20 40 21
f 21 40 41
f 21 41 42
f 21 42 22
f 23 43 24
f 24 43 44
f 24 44 45
f 24 45 74
f 24 74 46
f 24 46 25
f 25 46 47
f 25 47 48
f 26 49 27
f 27 49 50
f 27 50 83
f 27 83 51
f 27 51 28
f 28 51 52
f 29 52 86
f 29 86 53
f 30 54 55
f 30 55 32
f 31 33 57
f 31 57 56
f 32 55 33
f 33 55 58
f 33 58 59
f 33 59 60
f 33 60 57
f 34 61 62
f 34 62 35
f 35 62 36
f 36 63 64
f 36 64 37
f 36 62 63
f 37 64 38
f 38 65 39
f 38 64 66
f 38 66 67
f 38 67 65
f 39 65 40
f 40 65 68
f 40 68 69
f 40 69 70
f 40 70 71
f 40 71 41
f 44 72 45
f 45 72 73
f 45 73 74
f 46 74 47
f 47 75 48
f 47 74 76
f 47 76 77
f 47 77 78
f 47 78 75
f 49 79 50
f 50 79 80
f 50 80 81
f 50 81 82
f 50 82 83
f 51 83 84
f 51 84 85
f 51 85 52
f 52 85 86
f 53 86 87
f 54 88 55
f 55 88 89
f 55 89 58
f 56 57 90
f 56 90 91
f 56 91 92
f 57 60 90
f 58 89 93
f 58 93 94
f 58 94 59
f 59 95 60
f 59 94 96
f 59 96 95
f 60 95 97
f 60 97 90
f 61 98 62
f 62 98 99
f 62 99 63
f 63 100 101
f 63 101 64
f 63 99 100
f 64 101 102
f 64 102 103
f 64 103 66
f 65 67 68
f 66 103 104
f 66 104 67
f 67 104 105
f 67 105 106
f 67 106 68
f 68 107 108
f 68 108 69
f 68 106 107
f 72 109 73
f 73 109 110
f 73 110 111
f 73 111 112
f 73 112 74
f 74 112 76
f 76 113 77
f 76 112 114
f 76 114 113
f 77 113 115
f 77 115 116
f 77 116 117
f 77 117 78
f 80 118 119
f 80 119 81
f 81 119 120
f 81 120 82
f 82 120 161
f 82 161 121
f 82 121 83
f 83 121 84
f 84 121 122
f 84 122 123
f 84 123 124
f 84 124 85
f 85 124 86
f 86 124 125
f 86 125 87
f 87 125 126
f 90 127 91
f 90 97 127
f 91 128 129
f 91 129 92
f 91 127 128
f 93 130 131
f 93 131 94
f 94 131 132
f 94 132 96
f 95 133 97
f 95 96 134
f 95 134 133
f 96 132 135
f 96 135 134
f 97 133 136
f 97 136 127
f 98 137 138
f 98 138 100
f 98 100 99
f 100 138 139
f 100 139 140
f 100 140 141
f 100 141 101
f 101 141 142
f 101 142 102
f 102 142 103
f 103 142 143
f 103 143 144
f 103 144 104
f 104 144 105
f 105 144 145
f 105 145 146
f 105 146 147
f 105 147 106
f 106 147 107
f 107 148 108
f 107 147 149
f 107 149 150
f 107 150 148
f 109 151 110
f 110 151 152
f 110 152 153
f 110 153 111
f 111 153 154
f 111 154 114
f 111 114 112
f 113 114 155
f 113 155 156
f 113 156 115
f 114 154 155
f 115 156 157
f 115 157 158
f 115 158 116
f 116 158 117
f 117 158 159
f 118 160 119
f 119 160 158
f 119 158 157
f 119 157 120
f 120 157 161
f 121 161 162
f 121 162 122
f 122 163 123
f 122 162 164
f 122 164 165
f 122 165 163
f 123 163 166
f 123 166 124
f 124 166 125
f 125 166 167
f 125 167 126
f 126 167 168
f 127 136 139
f 127 139 128
f 128 139 129
f 129 139 137
f 130 169 131
f 131 169 170
f 131 170 171
f 131 171 132
f 132 171 172
f 132 172 135
f 133 173 136
f 133 134 174
f 133 174 173
f 134 135 175
f 134 175 174
f 135 172 176
f 135 176 175
f 136 173 139
f 137 139 138
f 139 173 140
f 140 173 141
f 141 173 177
f 141 177 142
f 142 177 178
f 142 178 179
f 142 179 143
f 143 179 180
f 143 180 144
f 144 180 181
f 144 181 145
f 145 181 182
f 145 182 146
f 146 182 183
f 146 183 184
f 146 184 149
f 146 149 147
f 149 184 185
f 149 185 150
f 150 185 186
f 151 187 152
f 152 187 188
f 152 188 189
f 152 189 153
f 153 189 190
f 153 190 154
f 154 190 191
f 154 191 192
f 154 192 155
f 155 192 193
f 155 193 156
f 156 193 194
f 156 194 157
f 157 194 161
f 158 160 159
f 161 194 195
f 161 195 162
f 162 195 196
f 162 196 164
f 163 197 166
f 163 165 201
f 163 201 198
f 163 198 197
f 164 196 199
f 164 199 200
f 164 200 165
f 165 200 201
f 166 197 167
f 167 197 202
f 167 202 203
f 167 203 168
f 170 204 171
f 171 204 205
f 171 205 172
f 172 205 206
f 172 206 207
f 172 207 176
f 173 174 208
f 173 208 177
f 174 175 208
f 175 176 209
f 175 209 208
f 176 207 210
f 176 210 209
f 177 208 178
f 178 208 211
f 178 211 212
f 178 212 179
f 179 213 214
f 179 214 215
f 179 215 216
f 179 216 217
f 179 217 181
f 179 181 180
f 179 212 213
f 181 217 218
f 181 218 182
f 182 218 183
f 183 218 219
f 183 219 184
f 184 219 220
f 184 220 185
f 185 221 186
f 185 220 222
f 185 222 221
f 187 223 188
f 188 223 224
f 188 224 225
f 188 225 226
f 188 226 189
f 189 227 190
f 189 226 227
f 190 227 191
f 191 228 229
f 191 229 192
f 191 227 230
f 191 230 228
f 192 229 193
f 193 195 194
f 193 229 195
f 195 229 228
f 195 228 196
f 196 228 199
f 197 198 231
f 197 231 202
f 198 232 264
f 198 264 231
f 198 201 233
f 198 233 232
f 199 228 234
f 199 234 235
f 199 235 200
f 200 235 236
f 200 236 201
f 201 236 233
f 202 231 237
f 204 238 239
f 204 239 205
f 205 239 206
f 206 239 240
f 206 240 241
f 206 241 242
f 206 242 243
f 206 243 207
f 207 243 210
f 208 209 211
f 209 210 244
f 209 244 211
f 210 243 245
f 210 245 244
f 211 244 213
f 211 213 212
f 213 244 246
f 213 246 214
f 214 246 247
f 214 247 215
f 215 247 248
f 215 248 249
f 215 249 216
f 216 249 250
f 216 250 218
f 216 218 217
f 218 250 251
f 218 251 219
f 219 251 252
f 219 252 253
f 219 253 222
f 219 222 220
f 221 222 254
f 222 253 255
f 222 255 254
f 223 256 224
f 224 256 257
f 224 257 225
f 225 258 259
f 225 259 226
f 225 257 258
f 226 259 260
f 226 260 227
f 227 260 230
f 228 230 234
f 230 260 261
f 230 261 262
f 230 262 234
f 231 263 237
f 231 264 263
f 232 233 265
f 232 265 266
f 232 266 267
f 232 267 264
f 233 236 268
f 233 268 265
f 234 262 235
f 235 262 269
f 235 269 236
f 236 269 268
f 238 270 239
f 239 270 240
f 240 270 271
f 240 271 241
f 241 272 242
f 241 271 273
f 241 273 272
f 242 272 243
f 243 272 274
f 243 274 245
f 244 245 275
f 244 275 246
f 245 274 275
f 246 275 247
f 247 275 276
f 247 276 248
f 248 276 277
f 248 277 278
f 248 278 249
f 249 278 279
f 249 279 250
f 250 252 251
f 250 279 280
f 250 280 252
f 252 280 281
f 252 281 253
f 253 282 255
f 253 281 283
f 253 283 282
f 254 255 284
f 255 282 285
f 255 285 286
f 255 286 287
f 255 287 284
f 256 288 257
f 257 288 289
f 257 289 258
f 258 290 259
f 258 289 291
f 258 291 290
f 259 290 292
f 259 292 260
f 260 292 261
f 261 292 293
f 261 293 262
f 262 294 269
f 262 293 295
f 262 295 294
f 263 264 267
f 263 267 296
f 265 268 297
f 265 297 298
f 265 298 266
f 266 298 299
f 266 299 267
f 267 299 300
f 267 300 296
f 268 269 294
f 268 294 297
f 270 301 271
f 271 301 302
f 271 302 303
f 271 303 304
f 271 304 273
f 272 273 305
f 272 305 306
f 272 306 274
f 273 304 307
f 273 307 305
f 274 306 275
f 275 306 308
f 275 308 276
f 276 308 277
f 277 308 309
f 277 309 310
f 277 310 311
f 277 311 278
f 278 311 312
f 278 312 279
f 279 313 280
f 279 312 314
f 279 314 315
f 279 315 313
f 280 313 316
f 280 316 281
f 281 317 318
f 281 318 283
f 281 316 319
f 281 319 317
f 282 320 285
f 282 283 321
f 282 321 322
f 282 322 320
f 283 318 321
f 285 320 286
f 286 320 323
f 288 324 289
f 289 324 325
f 289 325 326
f 289 326 291
f 290 291 327
f 290 327 292
f 291 326 328
f 291 328 327
f 292 329 293
f 292 327 329
f 293 329 330
f 293 330 295
f 294 295 331
f 294 331 297
f 295 330 332
f 295 332 331
f 296 300 333
f 297 331 334
f 297 334 298
f 298 334 335
f 298 335 299
f 299 335 336
f 299 336 300
f 300 336 337
f 300 337 333
f 303 338 304
f 304 338 339
f 304 339 307
f 305 307 340
f 305 340 306
f 306 340 308
f 307 339 341
f 307 341 340
f 308 340 309
f 309 340 342
f 309 342 310
f 310 342 343
f 310 343 344
f 310 344 311
f 311 314 312
f 311 344 345
f 311 345 314
f 313 319 316
f 313 315 319
f 314 345 346
f 314 346 315
f 315 346 347
f 315 347 319
f 317 319 318
f 318 322 321
f 318 319 348
f 318 348 328
f 318 328 322
f 319 347 348
f 320 322 349
f 320 349 350
f 320 350 323
f 322 328 326
f 322 326 349
f 325 349 326
f 327 351 329
f 327 328 348
f 327 348 351
f 329 351 330
f 330 351 352
f 330 352 332
f 331 332 353
f 331 353 354
f 331 354 334
f 332 352 353
f 334 354 355
f 334 355 335
f 335 355 356
f 335 356 336
f 336 356 357
f 336 357 337
f 337 357 358
f 338 358 339
f 339 359 341
f 339 358 359
f 340 341 343
f 340 343 342
f 341 359 356
f 341 356 343
f 343 356 355
f 343 355 344
f 344 355 354
f 344 354 345
f 345 354 353
f 345 353 346
f 346 353 352
f 346 352 347
f 347 352 351
f 347 351 348
f 356 359 357
f 357 359 358
