v -0.47874376 0.36662930 -0.12064150
v -0.47866482 0.35565335 -0.12064150
v -0.47863850 0.38241920 -0.12064150
v -0.39722490 0.48996401 -0.23875424
v -0.39735648 0.46993774 -0.23875424
v -0.39740911 0.44991153 -0.23875424
v -0.39738280 0.42998153 -0.23875424
v -0.39725122 0.40995529 -0.23875424
v -0.39704072 0.38992906 -0.23875424
v -0.39664602 0.36460739 -0.23875424
v -0.39635658 0.34997284 -0.23875424
v -0.39622501 0.34419602 -0.23875424
v -0.39588293 0.32994658 -0.23875424
v -0.39572504 0.32359213 -0.23875424
v -0.39533034 0.30992034 -0.23875424
v -0.47832274 0.34477371 -0.12064150
v -0.47824380 0.39628354 -0.12064150
v -0.39564610 0.60992891 -0.23875424
v -0.39601451 0.58999896 -0.23875424
v -0.39701441 0.50999027 -0.23875424
v -0.39467251 0.28999037 -0.23875424
v -0.47811222 0.34121135 -0.12064150
v -0.39440939 0.28209540 -0.23875424
v -0.39359367 0.25975844 -0.23875424
v -0.39290953 0.24117640 -0.23875424
v -0.39212012 0.22115014 -0.23875424
v -0.39167279 0.20998167 -0.23875424
v -0.39083076 0.18995541 -0.23875424
v -0.38998872 0.17002545 -0.23875424
v -0.38872570 0.14133400 -0.23875424
v -0.38819942 0.13006924 -0.23875424
v -0.38780472 0.12169287 -0.23875424
v -0.38722584 0.10965787 -0.23875424
v -0.38625222 0.09001675 -0.23875424
v -0.38572598 0.07990734 -0.23875424
v -0.38346303 0.03764041 -0.23875424
v -0.38196316 0.01000804 -0.23875424
v -0.38041067 -0.01858713 -0.23875424
v -0.37983176 -0.02917793 -0.23875424
v -0.37862134 -0.04997443 -0.23875424
v -0.47766489 0.40523756 -0.12064150
v -0.39411992 0.63005143 -0.23875424
v -0.47700709 0.32994658 -0.12064150
v -0.37743723 -0.06990440 -0.23875424
v -0.37714779 -0.07462211 -0.23875424
v -0.37577951 -0.09647767 -0.23875424
v -0.37441123 -0.11794813 -0.23875424
v -0.37233245 -0.14991309 -0.23875424
v -0.37096417 -0.16993935 -0.23875424
v -0.36956954 -0.18996559 -0.23875424
v -0.36812231 -0.20999183 -0.23875424
v -0.36662245 -0.22944041 -0.23875424
v -0.36578041 -0.24032004 -0.23875424
v -0.36499101 -0.24994804 -0.23875424
v -0.36385953 -0.26227188 -0.23875424
v -0.36314908 -0.26997429 -0.23875424
v -0.47711232 0.40995529 -0.12064150
v -0.39959311 0.63679105 -0.21857935
v -0.39088339 0.64121991 -0.23875424
v -0.36196497 -0.28104651 -0.23875424
v -0.36133346 -0.28672701 -0.23875424
v -0.36001781 -0.29770297 -0.23875424
v -0.36307013 -0.29096335 -0.23158608
v -0.36956954 -0.28990424 -0.20998912
v -0.36783287 -0.30309463 -0.20998912
v -0.39343578 -0.30309463 -0.12064150
v -0.47448099 0.42304939 -0.12064150
v -0.40143505 0.64353067 -0.20524889
v -0.39117283 0.64998144 -0.22999059
v -0.38825205 0.65027028 -0.23875424
v -0.35959679 -0.30068761 -0.23875424
v -0.36241230 -0.30309463 -0.22837198
v -0.24663344 -0.30309463 -0.12064150
v -0.42027542 0.64073855 -0.12064150
v -0.42022282 0.64054596 -0.12147393
v -0.41264457 0.62995517 -0.17000930
v -0.40701348 0.64998144 -0.17000930
v -0.40280336 0.65007770 -0.18848464
v -0.39843532 0.65691358 -0.19414981
v -0.39675128 0.65007770 -0.21114528
v -0.38196316 0.66211271 -0.23875424
v -0.35920209 -0.30309463 -0.23875424
v -0.35941258 -0.30309463 -0.23816460
v -0.20992628 -0.30309463 -0.23875424
v -0.22263564 0.16415237 -0.23875424
v -0.22318822 0.18340838 -0.23875424
v -0.22379343 0.20266439 -0.23875424
v -0.25989538 0.10879135 -0.12064150
v -0.41596004 0.65017396 -0.12064150
v -0.41551271 0.64834464 -0.12888488
v -0.41103944 0.64998144 -0.15000783
v -0.40017200 0.66018713 -0.18081935
v -0.38330513 0.66355687 -0.22999059
v -0.37814772 0.66519368 -0.23875424
v -0.22445127 0.22211295 -0.23875424
v -0.26181626 0.16434494 -0.12064150
v -0.40572414 0.66596389 -0.12064150
v -0.40501368 0.66538620 -0.13000634
v -0.40327698 0.66374946 -0.15000783
v -0.40130347 0.66153502 -0.17000930
v -0.38625222 0.66606021 -0.20998912
v -0.36999056 0.67289609 -0.22999059
v -0.37056947 0.67048907 -0.23875424
v -0.22516173 0.24146524 -0.23875424
v -0.26250041 0.18283069 -0.12064150
v -0.39609343 0.67202955 -0.12064150
v -0.38998872 0.67328119 -0.15000783
v -0.38998872 0.67048907 -0.17000930
v -0.39106756 0.66634905 -0.18848464
v -0.37059578 0.67780632 -0.18999921
v -0.36799073 0.67665100 -0.20805834
v -0.36157027 0.67520678 -0.23875424
v -0.22547749 0.24993788 -0.23875424
v -0.26278985 0.18995541 -0.12064150
v -0.22589850 0.26091379 -0.23875424
v -0.38909408 0.67636216 -0.12064150
v -0.38804156 0.67616957 -0.12885019
v -0.37217456 0.67896169 -0.17000930
v -0.35999149 0.67992449 -0.20009243
v -0.35275531 0.67934680 -0.22999059
v -0.35188696 0.67876917 -0.23875424
v -0.26360556 0.20998167 -0.12064150
v -0.22626689 0.26996413 -0.23875424
v -0.38012123 0.68002081 -0.12064150
v -0.38009489 0.68002081 -0.12140456
v -0.37770039 0.67982823 -0.13473502
v -0.36217549 0.68021333 -0.17000930
v -0.34191418 0.68011707 -0.23875424
v -0.22713524 0.28999037 -0.23875424
v -0.26447392 0.22962280 -0.12064150
v -0.37488484 0.68021333 -0.12064150
v -0.37062210 0.68030965 -0.12885019
v -0.36485946 0.68030965 -0.15000783
v -0.32617879 0.68011707 -0.23875424
v -0.22758256 0.29971465 -0.23875424
v -0.26644742 0.26996413 -0.12064150
v -0.37033263 0.68030965 -0.12064150
v -0.35386047 0.68030965 -0.15000783
v -0.32004777 0.68002081 -0.23875424
v -0.35720226 0.68030965 -0.12064150
v -0.22808251 0.30992034 -0.23875424
v -0.26747364 0.28999037 -0.12064150
v -0.31081179 0.67684352 -0.23875424
v -0.34133530 0.67992449 -0.16260991
v -0.34720317 0.67876917 -0.12064150
v -0.22910874 0.32994658 -0.23875424
v -0.26910508 0.32060742 -0.12064150
v -0.33841452 0.67453283 -0.12064150
v -0.30286515 0.67270350 -0.23875424
v -0.22952974 0.33784157 -0.23875424
v -0.27021024 0.34063369 -0.12064150
v -0.32925746 0.66923743 -0.12064150
v -0.33002055 0.67125928 -0.13000634
v -0.29170826 0.66625273 -0.23875424
v -0.23021390 0.34978026 -0.23875424
v -0.27073652 0.34997284 -0.12064150
v -0.32294226 0.66442341 -0.12064150
v -0.28226176 0.65633589 -0.23875424
v -0.31904787 0.66105360 -0.12064150
v -0.23147693 0.36999908 -0.23875424
v -0.27192059 0.36999908 -0.12064150
v -0.27976197 0.65219587 -0.23875424
v -0.31296948 0.65065539 -0.12064150
v -0.27644649 0.64661163 -0.23875424
v -0.23213477 0.37962708 -0.23875424
v -0.27452564 0.40995529 -0.12064150
v -0.27389410 0.40061614 -0.12064150
v -0.27318364 0.38992906 -0.12064150
v -0.30407554 0.62995517 -0.12064150
v -0.26894718 0.62995517 -0.23875424
v -0.23287155 0.38992906 -0.23875424
v -0.27592024 0.42959642 -0.12064150
v -0.30049694 0.61763132 -0.12064150
v -0.26205307 0.60848475 -0.23875424
v -0.26307932 0.61175823 -0.23875424
v -0.23345044 0.39782399 -0.23875424
v -0.23437141 0.40995529 -0.23875424
v -0.27676225 0.44066864 -0.12064150
v -0.29876024 0.61089170 -0.12064150
v -0.26026377 0.60145628 -0.23875424
v -0.23489767 0.41659862 -0.23875424
v -0.27926204 0.47128570 -0.12064150
v -0.29804978 0.60771447 -0.12064150
v -0.25755349 0.58999896 -0.23875424
v -0.25994802 0.60020465 -0.23875424
v -0.23600283 0.42998153 -0.23875424
v -0.23973933 0.47157454 -0.23875424
v -0.28102502 0.48996401 -0.12064150
v -0.23642385 0.43498811 -0.23875424
v -0.23776583 0.44991153 -0.23875424
v -0.29439223 0.59076917 -0.12064150
v -0.25505373 0.57825279 -0.23875424
v -0.24184442 0.48996401 -0.23875424
v -0.28499836 0.52924627 -0.12064150
v -0.28389320 0.51904058 -0.12064150
v -0.28291959 0.50999027 -0.12064150
v -0.29070836 0.56997269 -0.12064150
v -0.25313285 0.56920248 -0.23875424
v -0.24416000 0.50999027 -0.23875424
v -0.24550197 0.52038848 -0.23875424
v -0.28768232 0.54994649 -0.12064150
v -0.24973843 0.54985017 -0.23875424
v -0.24676502 0.52992022 -0.23875424
v -0.24797542 0.53810400 -0.23875424
f 1 2 16
f 1 16 22
f 1 22 43
f 1 43 66
f 1 66 73
f 1 73 88
f 1 88 96
f 1 96 105
f 1 105 114
f 1 114 122
f 1 122 130
f 1 130 136
f 1 136 142
f 1 142 147
f 1 147 151
f 1 151 156
f 1 156 161
f 1 161 168
f 1 168 167
f 1 167 166
f 1 166 172
f 1 172 178
f 1 178 182
f 1 182 188
f 1 188 196
f 1 196 195
f 1 195 194
f 1 194 201
f 1 201 197
f 1 197 191
f 1 191 183
f 1 183 179
f 1 179 173
f 1 173 169
f 1 169 163
f 1 163 159
f 1 159 157
f 1 157 152
f 1 152 148
f 1 148 145
f 1 145 140
f 1 140 137
f 1 137 131
f 1 131 124
f 1 124 116
f 1 116 106
f 1 106 97
f 1 97 89
f 1 89 74
f 1 74 67
f 1 67 57
f 1 57 41
f 1 41 17
f 1 17 3
f 1 3 4
f 1 4 5
f 1 5 6
f 1 6 7
f 1 7 8
f 1 8 2
f 2 8 9
f 2 9 10
f 2 10 11
f 2 11 12
f 2 12 13
f 2 13 14
f 2 14 15
f 2 15 16
f 3 17 18
f 3 18 19
f 3 19 20
f 3 20 4
f 4 20 19
f 4 19 18
f 4 18 42
f 4 42 59
f 4 59 70
f 4 70 81
f 4 81 94
f 4 94 103
f 4 103 112
f 4 112 121
f 4 121 128
f 4 128 134
f 4 134 139
f 4 139 143
f 4 143 149
f 4 149 154
f 4 154 158
f 4 158 162
f 4 162 164
f 4 164 170
f 4 170 175
f 4 175 174
f 4 174 180
f 4 180 185
f 4 185 184
f 4 184 192
f 4 192 198
f 4 198 202
f 4 202 204
f 4 204 203
f 4 203 200
f 4 200 199
f 4 199 193
f 4 193 187
f 4 187 190
f 4 190 189
f 4 189 186
f 4 186 181
f 4 181 177
f 4 177 176
f 4 176 171
f 4 171 165
f 4 165 160
f 4 160 155
f 4 155 150
f 4 150 146
f 4 146 141
f 4 141 135
f 4 135 129
f 4 129 123
f 4 123 115
f 4 115 113
f 4 113 104
f 4 104 95
f 4 95 87
f 4 87 86
f 4 86 85
f 4 85 84
f 4 84 82
f 4 82 71
f 4 71 62
f 4 62 61
f 4 61 60
f 4 60 56
f 4 56 55
f 4 55 54
f 4 54 53
f 4 53 52
f 4 52 51
f 4 51 50
f 4 50 49
f 4 49 48
f 4 48 47
f 4 47 46
f 4 46 45
f 4 45 44
f 4 44 40
f 4 40 39
f 4 39 38
f 4 38 37
f 4 37 36
f 4 36 35
f 4 35 34
f 4 34 33
f 4 33 32
f 4 32 31
f 4 31 30
f 4 30 29
f 4 29 28
f 4 28 27
f 4 27 26
f 4 26 25
f 4 25 24
f 4 24 23
f 4 23 21
f 4 21 15
f 4 15 14
f 4 14 13
f 4 13 12
f 4 12 11
f 4 11 10
f 4 10 9
f 4 9 8
f 4 8 7
f 4 7 6
f 4 6 5
f 15 21 16
f 16 21 23
f 16 23 24
f 16 24 25
f 16 25 26
f 16 26 27
f 16 27 28
f 16 28 29
f 16 29 30
f 16 30 31
f 16 31 32
f 16 32 33
f 16 33 34
f 16 34 35
f 16 35 36
f 16 36 37
f 16 37 38
f 16 38 39
f 16 39 40
f 16 40 22
f 17 41 18
f 18 41 42
f 22 40 44
f 22 44 45
f 22 45 46
f 22 46 47
f 22 47 48
f 22 48 49
f 22 49 50
f 22 50 51
f 22 51 52
f 22 52 53
f 22 53 54
f 22 54 55
f 22 55 56
f 22 56 43
f 41 57 42
f 42 58 59
f 42 57 58
f 43 56 60
f 43 60 61
f 43 61 62
f 43 62 63
f 43 63 64
f 43 64 65
f 43 65 66
f 57 67 58
f 58 68 69
f 58 69 70
f 58 70 59
f 58 67 68
f 62 71 72
f 62 72 63
f 63 72 65
f 63 65 64
f 65 72 83
f 65 83 82
f 65 82 84
f 65 84 73
f 65 73 66
f 67 74 75
f 67 75 76
f 67 76 68
f 68 76 75
f 68 75 77
f 68 77 78
f 68 78 79
f 68 79 80
f 68 80 69
f 69 80 79
f 69 79 81
f 69 81 70
f 71 82 83
f 71 83 72
f 73 84 85
f 73 85 86
f 73 86 87
f 73 87 88
f 74 89 90
f 74 90 75
f 75 90 91
f 75 91 77
f 77 91 92
f 77 92 78
f 78 92 79
f 79 92 81
f 81 92 93
f 81 93 94
f 87 95 88
f 88 95 96
f 89 91 90
f 89 97 98
f 89 98 99
f 89 99 100
f 89 100 91
f 91 100 92
f 92 100 101
f 92 101 93
f 93 101 94
f 94 101 102
f 94 102 103
f 95 104 96
f 96 104 105
f 97 106 107
f 97 107 98
f 98 107 108
f 98 108 99
f 99 108 109
f 99 109 100
f 100 109 101
f 101 109 108
f 101 108 102
f 102 108 107
f 102 107 110
f 102 110 111
f 102 111 112
f 102 112 103
f 104 113 105
f 105 113 115
f 105 115 114
f 106 116 107
f 107 116 117
f 107 117 110
f 110 117 118
f 110 118 119
f 110 119 120
f 110 120 121
f 110 121 111
f 111 121 112
f 114 115 123
f 114 123 122
f 116 124 125
f 116 125 117
f 117 125 126
f 117 126 118
f 118 126 119
f 119 126 125
f 119 125 127
f 119 127 128
f 119 128 120
f 120 128 121
f 122 123 129
f 122 129 130
f 124 131 125
f 125 131 132
f 125 132 127
f 127 132 133
f 127 133 128
f 128 133 138
f 128 138 134
f 129 135 130
f 130 135 136
f 131 137 132
f 132 137 140
f 132 140 138
f 132 138 133
f 134 138 140
f 134 140 139
f 135 141 136
f 136 141 146
f 136 146 142
f 139 140 144
f 139 144 145
f 139 145 143
f 140 145 144
f 142 146 147
f 143 148 149
f 143 145 148
f 146 150 147
f 147 150 151
f 148 152 153
f 148 153 149
f 149 153 154
f 150 155 156
f 150 156 151
f 152 157 154
f 152 154 153
f 154 157 159
f 154 159 158
f 155 160 161
f 155 161 156
f 158 159 162
f 159 163 164
f 159 164 162
f 160 165 166
f 160 166 167
f 160 167 168
f 160 168 161
f 163 169 170
f 163 170 164
f 165 171 172
f 165 172 166
f 169 173 174
f 169 174 175
f 169 175 170
f 171 176 172
f 172 177 178
f 172 176 177
f 173 179 174
f 174 179 180
f 177 181 178
f 178 181 182
f 179 183 184
f 179 184 185
f 179 185 180
f 181 186 182
f 182 187 188
f 182 186 189
f 182 189 190
f 182 190 187
f 183 191 184
f 184 191 192
f 187 193 194
f 187 194 195
f 187 195 196
f 187 196 188
f 191 197 198
f 191 198 192
f 193 199 194
f 194 199 200
f 194 200 201
f 197 201 202
f 197 202 198
f 200 203 201
f 201 203 204
f 201 204 202
