v -0.40841627 -0.42074835 0.10926634
v -0.40235806 -0.42896605 0.10926634
v -0.25790212 -0.51724488 0.28377199
v -0.26372504 -0.50525838 0.29002589
v -0.26096061 -0.50136679 0.30193022
v -0.26472494 -0.48974866 0.30917159
v -0.26178408 -0.48291004 0.32343483
v -0.26554838 -0.47012064 0.33007276
v -0.26490140 -0.46893993 0.33254141
v -0.27884117 -0.45766187 0.31772953
v -0.27442986 -0.45049262 0.33254141
v -0.27972344 -0.43922400 0.33254141
v -0.27848825 -0.43644699 0.33725923
v -0.28119385 -0.42311922 0.34236112
v -0.28066450 -0.42074835 0.34488460
v -0.22096467 -0.42074835 0.10926634
v -0.38641849 -0.44915137 0.10926634
v -0.26113707 -0.51724488 0.27664036
v -0.24602094 -0.51724488 0.30741608
v -0.25637284 -0.51526129 0.29002589
v -0.25002056 -0.51015121 0.31021389
v -0.24349180 -0.50471056 0.33001789
v -0.25743157 -0.49624723 0.31526089
v -0.25366724 -0.48974866 0.33007276
v -0.25237325 -0.48963532 0.33254141
v -0.25931373 -0.47881061 0.33254141
v -0.26284277 -0.47258595 0.33254141
v -0.25813738 -0.47688371 0.33682036
v -0.26190171 -0.46357483 0.34345829
v -0.26507786 -0.44971809 0.35009620
v -0.26137236 -0.44287947 0.36232969
v -0.27437103 -0.42987284 0.34938303
v -0.26337215 -0.42821985 0.36940646
v -0.27607673 -0.42074835 0.35272941
v -0.10974064 -0.51724488 0.10926634
v 0.19246405 -0.42074835 0.52394354
v 0.19246405 -0.51724488 0.41214141
v -0.37059656 -0.46909106 0.10926634
v -0.26525429 -0.51724488 0.26676577
v -0.24119791 -0.51724488 0.31685179
v -0.23778650 -0.51724488 0.32305083
v -0.24043328 -0.50068671 0.34093478
v -0.24372706 -0.48887965 0.34856015
v -0.24090382 -0.48147428 0.36156166
v -0.25431424 -0.47012064 0.35009620
v -0.25801975 -0.45620725 0.35678896
v -0.24055094 -0.46107173 0.38098165
v -0.24337417 -0.45000145 0.38520578
v -0.25719631 -0.43369830 0.37566036
v -0.25966662 -0.42074835 0.38070735
v -0.26025480 -0.42074835 0.37971991
v -0.30913222 -0.51724488 0.10926634
v 0.19246405 -0.42074835 0.66970319
v 0.19246405 -0.51724488 0.62104344
v -0.36889085 -0.47115022 0.10926634
v -0.27195951 -0.51724488 0.25003386
v -0.36077404 -0.48092645 0.10926634
v -0.22467017 -0.51724488 0.34543321
v -0.23496327 -0.51395780 0.33254141
v -0.22919914 -0.50902718 0.34877959
v -0.22308210 -0.50404936 0.36490804
v -0.23643368 -0.49480206 0.35426545
v -0.22984612 -0.48989034 0.36995506
v -0.22331738 -0.48497862 0.38504121
v -0.23666897 -0.47439006 0.37489235
v -0.24372706 -0.46864712 0.36896759
v -0.23672777 -0.45000145 0.39513522
v -0.22972849 -0.46956336 0.38959450
v -0.22278801 -0.46475554 0.40385774
v -0.23949221 -0.43896896 0.39930448
v -0.24296245 -0.42074835 0.40539381
v -0.24237427 -0.42563173 0.40352860
v -0.30907339 -0.51724488 0.10976008
v -0.33718818 -0.49837252 0.10926634
v 0.16999573 -0.42074835 0.66635680
v 0.18993488 -0.43001452 0.66635680
v 0.19246405 -0.43001452 0.66663110
v 0.18675876 -0.51724488 0.62044001
v 0.19246405 -0.51263541 0.62449956
v -0.27795890 -0.51724488 0.23450884
v -0.35024568 -0.48940861 0.10926634
v -0.28595808 -0.51724488 0.20949325
v -0.28166440 -0.51724488 0.22342737
v -0.21772970 -0.51724488 0.35700840
v -0.21396539 -0.51042515 0.37094250
v -0.21878842 -0.49831584 0.37823874
v -0.21502410 -0.49097657 0.39096594
v -0.21878842 -0.47807387 0.39831701
v -0.22619943 -0.44968030 0.41033107
v -0.21431828 -0.47083852 0.41033107
v -0.21790615 -0.45613167 0.41718844
v -0.23519853 -0.43139356 0.41011164
v -0.22137639 -0.44280389 0.42190626
v -0.24037448 -0.42074835 0.40917906
v -0.23672777 -0.42074835 0.41428092
v -0.29995668 -0.51724488 0.15397622
v -0.34930462 -0.49014539 0.10926634
v 0.15540898 -0.42074835 0.66388816
v 0.17005455 -0.43103465 0.66301042
v 0.17681858 -0.44126424 0.66048694
v 0.18993488 -0.44355011 0.66136467
v 0.19246405 -0.44187823 0.66229725
v 0.19128770 -0.51133192 0.62526762
v 0.16993693 -0.50708139 0.62482870
v 0.16993693 -0.51724488 0.61769712
v 0.19246405 -0.51124692 0.62543219
v -0.29142812 -0.51724488 0.19001840
v -0.20090789 -0.51724488 0.38213369
v -0.20373112 -0.50858325 0.38805842
v -0.20073143 -0.50098896 0.40105996
v -0.20402521 -0.48843572 0.40863046
v -0.20043734 -0.48072809 0.42064452
v -0.20378995 -0.46999785 0.42492351
v -0.19926098 -0.45887089 0.43918678
v -0.21043633 -0.45083266 0.43051910
v -0.22437608 -0.43001452 0.42580125
v -0.20290768 -0.44554311 0.44357547
v -0.21672980 -0.43001452 0.43578553
v -0.22031768 -0.42074835 0.43644384
v -0.29801568 -0.51724488 0.16302791
v -0.29689816 -0.51724488 0.16812977
v -0.29648644 -0.51724488 0.16999497
v 0.14993894 -0.42074835 0.66290069
v 0.14993894 -0.42479110 0.66163898
v 0.16346699 -0.43837389 0.65938973
v 0.18993488 -0.45355302 0.65725029
v 0.17005455 -0.44877353 0.65626276
v 0.19246405 -0.44389957 0.66152918
v 0.19246405 -0.51042515 0.62598073
v 0.19246405 -0.49445257 0.63662338
v 0.18993488 -0.49420699 0.63645875
v 0.16993693 -0.49152443 0.63486791
v 0.14993894 -0.50433272 0.62296355
v 0.16964284 -0.51724488 0.61764222
v -0.19761410 -0.51724488 0.38668698
v -0.19514376 -0.51431674 0.39343458
v -0.18873264 -0.50854546 0.40835616
v -0.18226272 -0.50277418 0.42283887
v -0.19555548 -0.49406531 0.41439062
v -0.18867382 -0.48824680 0.42837960
v -0.18173334 -0.48243773 0.44203943
v -0.19579075 -0.46999785 0.43490779
v -0.18485069 -0.46828818 0.44928080
v -0.18020409 -0.46048611 0.46030739
v -0.19414386 -0.45132384 0.45015854
v -0.21878842 -0.42074835 0.43847361
v -0.20567210 -0.42868268 0.45015854
v -0.19726118 -0.43446341 0.45690614
v 0.13846952 -0.42074835 0.66070634
v 0.13788134 -0.42135286 0.66037720
v 0.14993894 -0.43479401 0.65812802
v 0.14993894 -0.45000145 0.65209353
v 0.16993693 -0.46999785 0.64666247
v 0.18993488 -0.46999785 0.64967978
v 0.19246405 -0.45390251 0.65741479
v 0.19246405 -0.48445910 0.64249325
v 0.18993488 -0.48420408 0.64232868
v 0.16993693 -0.48153096 0.64084744
v 0.15982029 -0.48003855 0.63996971
v 0.15187994 -0.48801064 0.63355124
v 0.14993894 -0.51431674 0.61583191
v 0.13435227 -0.50188631 0.62126291
v 0.14993894 -0.51724488 0.61352783
v -0.18420368 -0.51724488 0.40451604
v -0.17643976 -0.51610196 0.41570723
v -0.16985220 -0.50992453 0.42986080
v -0.16326463 -0.50375652 0.44363034
v -0.17661622 -0.49577495 0.43616953
v -0.16949929 -0.48950306 0.44950020
v -0.16250001 -0.48323119 0.46261147
v -0.17579278 -0.47380444 0.45537010
v -0.16814649 -0.46739087 0.46815220
v -0.16055903 -0.46095839 0.48060513
v -0.17379299 -0.45000145 0.47352833
v -0.18320379 -0.45000145 0.46354407
v -0.20055497 -0.42074835 0.46069139
v -0.17785139 -0.43575746 0.47775248
v -0.18920317 -0.42843708 0.46913964
v 0.12664717 -0.42074835 0.65801823
v 0.13070560 -0.42880547 0.65615308
v 0.12994096 -0.45000145 0.64786941
v 0.15187994 -0.47042289 0.64315152
v 0.12994096 -0.46382985 0.64183497
v 0.19246405 -0.48244718 0.64359045
v 0.19246405 -0.46999785 0.64995402
v 0.14646870 -0.47739378 0.63859826
v 0.12858817 -0.49175113 0.62620020
v 0.12858817 -0.50912166 0.61462498
v 0.12929398 -0.51724488 0.60870028
v 0.14411601 -0.51724488 0.61221123
v 0.12105951 -0.49958155 0.61972690
v -0.17743966 -0.51724488 0.41312888
v -0.17579278 -0.51724488 0.41510379
v -0.15720642 -0.51708430 0.43693757
v -0.15044241 -0.51058573 0.45048767
v -0.14373720 -0.50407767 0.46381834
v -0.15708879 -0.49655896 0.45696101
v -0.14985423 -0.48990923 0.46990767
v -0.14256084 -0.48324060 0.48252517
v -0.15591243 -0.47426727 0.47594213
v -0.14814852 -0.46740031 0.48823047
v -0.14026695 -0.46051446 0.50029939
v -0.15350091 -0.45000145 0.49382609
v -0.16379400 -0.45000145 0.48384178
v -0.18114518 -0.42241079 0.48120856
v -0.18143927 -0.42074835 0.48159260
v -0.15767696 -0.43570077 0.49783075
v -0.16949929 -0.42906994 0.48954710
v 0.12000079 -0.42074835 0.65642738
v 0.10994298 -0.43001452 0.65083176
v 0.11076643 -0.45033205 0.64320642
v 0.11794218 -0.46103394 0.64046347
v 0.12994096 -0.47382334 0.63678795
v 0.10994298 -0.48721722 0.62433499
v 0.11964788 -0.51724488 0.60628647
v 0.11188396 -0.51724488 0.60420185
v 0.10994298 -0.49722016 0.61819082
v 0.10870782 -0.51170975 0.60743850
v -0.16608788 -0.51724488 0.42640468
v -0.15732406 -0.51724488 0.43660840
v -0.13767900 -0.51724488 0.45723531
v -0.13044442 -0.51054794 0.47045624
v -0.12362159 -0.50369042 0.48329321
v -0.13697317 -0.49657786 0.47714901
v -0.12950334 -0.48951250 0.48960197
v -0.12209234 -0.48245662 0.50178057
v -0.13538511 -0.47383279 0.49585584
v -0.14350194 -0.45000145 0.50320691
v -0.12920927 -0.46830708 0.50490755
v -0.11926909 -0.45896536 0.51939023
v -0.13009152 -0.45138052 0.51423353
v -0.16114721 -0.42236355 0.50106740
v -0.18014528 -0.42074835 0.48290920
v -0.13685554 -0.43443507 0.51730561
v -0.14908960 -0.42840874 0.50918651
v 0.10982535 -0.42074835 0.65379417
v 0.09906173 -0.42074835 0.65088665
v 0.08929802 -0.42074835 0.64819854
v 0.08870984 -0.43140301 0.64446819
v 0.09453278 -0.44389957 0.64156067
v 0.10459059 -0.45722735 0.63876283
v 0.11076643 -0.46862823 0.63470328
v 0.09341525 -0.48337287 0.62197608
v 0.10341423 -0.51724488 0.60189778
v 0.08806285 -0.49001312 0.61616105
v 0.08994501 -0.50710028 0.60518932
v -0.11697520 -0.51724488 0.47671014
v -0.11673994 -0.51703709 0.47714901
v -0.10968182 -0.50980175 0.48976654
v -0.10274135 -0.50258529 0.50216460
v -0.11603412 -0.49578440 0.49667874
v -0.11491659 -0.46999785 0.51587927
v -0.10832902 -0.48826569 0.50863791
v -0.10068274 -0.48073754 0.52048743
v -0.12350395 -0.44563758 0.52290118
v -0.10497642 -0.46999785 0.52383381
v -0.09721250 -0.45609388 0.53793252
v -0.10191791 -0.44275665 0.54133373
v -0.14061987 -0.42074835 0.52054226
v -0.16008848 -0.42074835 0.50271320
v -0.16150011 -0.42074835 0.50139660
v -0.13009152 -0.42865434 0.52558929
v 0.07882849 -0.42074835 0.64507163
v 0.07377017 -0.42566007 0.64194465
v 0.08118119 -0.43899730 0.63958573
v 0.08870984 -0.45033205 0.63706225
v 0.06994704 -0.46672022 0.62345725
v 0.08806285 -0.47194365 0.62652934
v 0.08006366 -0.47993466 0.61994630
v 0.09059200 -0.51724488 0.59778339
v 0.05971278 -0.50010109 0.60003257
v 0.06994704 -0.50254750 0.60184294
v -0.09697723 -0.51724488 0.49366149
v -0.09538916 -0.51592249 0.49623987
v -0.08821341 -0.50836599 0.50852823
v -0.08092003 -0.50082839 0.52065200
v -0.09427162 -0.49407476 0.51549530
v -0.08856632 -0.48844516 0.52394354
v -0.07827324 -0.47803608 0.53875536
v -0.09033085 -0.47081962 0.53431183
v -0.11568122 -0.43001452 0.53667074
v -0.08386091 -0.46472719 0.54270518
v -0.07509710 -0.45000145 0.55663931
v -0.09033085 -0.44966140 0.54610646
v -0.10574105 -0.43001452 0.54424125
v -0.07921432 -0.43875173 0.55938226
v -0.08997793 -0.43125188 0.55504841
v -0.12173942 -0.42074835 0.53595757
v 0.07182921 -0.42074835 0.64293212
v 0.06130085 -0.42074835 0.63958573
v 0.06824134 -0.43140301 0.63810456
v 0.06994704 -0.45000145 0.63124722
v 0.05688954 -0.46233743 0.62115318
v 0.06994704 -0.47668535 0.61819082
v 0.08994501 -0.51724488 0.59756392
v 0.05183122 -0.48955974 0.60354352
v 0.04642002 -0.49594498 0.59728968
v 0.02995109 -0.50493723 0.58368468
v 0.05118423 -0.50934833 0.58944488
v 0.05418392 -0.51724488 0.58450758
v 0.06294774 -0.51724488 0.58785391
v 0.06994704 -0.51253152 0.59416270
v -0.08409618 -0.51724488 0.50392008
v -0.07003878 -0.51551634 0.51609874
v -0.06598037 -0.51724488 0.51757991
v -0.07003878 -0.50551343 0.52454698
v -0.05821645 -0.49831584 0.53875536
v -0.07097986 -0.49097657 0.53491527
v -0.06492165 -0.48497862 0.54336351
v -0.05498149 -0.47444674 0.55669415
v -0.06098088 -0.46112841 0.56058913
v -0.11832801 -0.42074835 0.53870052
v -0.06509811 -0.45000145 0.56333208
v -0.09391872 -0.42074835 0.55652964
v -0.10062392 -0.42074835 0.55170202
v -0.04227689 -0.44289833 0.58127093
v -0.05656956 -0.43001452 0.57775992
v -0.07150923 -0.43125188 0.56755620
v -0.08333156 -0.42542395 0.56218004
v 0.05918343 -0.42074835 0.63887256
v 0.04994906 -0.43001452 0.63196039
v 0.05012552 -0.45009592 0.62400585
v 0.04353795 -0.45680231 0.61851996
v 0.05012552 -0.46939334 0.61467987
v 0.03630339 -0.48261720 0.60156864
v 0.06994704 -0.51724488 0.59037745
v 0.02977464 -0.48955974 0.59410787
v 0.01795230 -0.50131011 0.58094174
v 0.02995109 -0.51493073 0.57594961
v 0.03795028 -0.51724488 0.57775992
v 0.04389086 -0.51724488 0.58033830
v -0.07333256 -0.51724488 0.51203918
v -0.05733419 -0.51724488 0.52372408
v -0.05239351 -0.51194590 0.53156888
v -0.04492368 -0.50403047 0.54314411
v -0.03439534 -0.49495319 0.55647475
v -0.04992317 -0.48997536 0.54994655
v -0.04168871 -0.48161596 0.56102800
v -0.04904091 -0.46868491 0.56388068
v -0.03692449 -0.45624501 0.57808912
v -0.04933500 -0.44975588 0.57353580
v -0.08509608 -0.42074835 0.56272864
v -0.03016047 -0.44975588 0.58505619
v -0.01710297 -0.43600303 0.59838682
v -0.02916057 -0.42960835 0.59416270
v -0.04657057 -0.43001452 0.58390415
v -0.05956925 -0.42074835 0.57967997
v -0.07874379 -0.42074835 0.56695276
v 0.04941971 -0.42074835 0.63497758
v 0.02989227 -0.42972171 0.62384129
v 0.03647984 -0.44346508 0.62142748
v 0.02989227 -0.45009592 0.61555761
v 0.01542315 -0.46417934 0.60217208
v 0.02977464 -0.47049847 0.60540873
v 0.02295180 -0.47749767 0.59860623
v 0.01077656 -0.48986199 0.58489156
v 0.00460072 -0.49644560 0.57759535
v -0.01010368 -0.50475776 0.56360638
v 0.00324791 -0.51724488 0.56113774
v 0.01271754 -0.51724488 0.56574589
v 0.02553978 -0.51724488 0.57194489
v -0.03686567 -0.51724488 0.53760338
v -0.02880766 -0.50906497 0.54917854
v -0.02104375 -0.50077170 0.56053430
v -0.02869003 -0.48897412 0.56393552
v -0.01704415 -0.47707263 0.57825369
v -0.03016047 -0.47023398 0.57452327
v -0.02357290 -0.46375430 0.58198404
v -0.01033895 -0.45064378 0.59558904
v -0.00381020 -0.44438130 0.60189778
v -0.01033895 -0.42960835 0.60442126
v -0.02192601 -0.42266580 0.60096520
v -0.04162990 -0.42074835 0.59026772
v 0.02989227 -0.42074835 0.62691337
v 0.01971684 -0.42074835 0.62257951
v 0.01777586 -0.42285472 0.62098861
v 0.02318706 -0.43618250 0.61851996
v 0.00924730 -0.45064378 0.60562819
v 0.00207156 -0.45771855 0.59888053
v 0.00924730 -0.47049847 0.59569871
v -0.00375138 -0.48311782 0.58192921
v -0.01028013 -0.48986199 0.57386494
v -0.01010368 -0.51476067 0.55576158
v -0.00304557 -0.51724488 0.55773652
v -0.02527861 -0.51724488 0.54462528
v -0.01451500 -0.51724488 0.55109859
v -0.01028013 -0.47023398 0.58571446
v 0.01060010 -0.42972171 0.61495417
v 0.00730632 -0.42074835 0.61649019
v -0.00416310 -0.42074835 0.61067522
v -0.02010266 -0.42074835 0.60255611
v -0.02251419 -0.42074835 0.60129434
v -0.03216027 -0.42074835 0.59575361
v 0.01701123 -0.42074835 0.62137264
f 1 2 3
f 1 3 4
f 1 4 5
f 1 5 6
f 1 6 7
f 1 7 8
f 1 8 9
f 1 9 10
f 1 10 11
f 1 11 12
f 1 12 13
f 1 13 14
f 1 14 15
f 1 15 34
f 1 34 51
f 1 51 50
f 1 50 71
f 1 71 94
f 1 94 95
f 1 95 119
f 1 119 146
f 1 146 176
f 1 176 206
f 1 206 233
f 1 233 261
f 1 261 260
f 1 260 259
f 1 259 288
f 1 288 312
f 1 312 315
f 1 315 314
f 1 314 342
f 1 342 348
f 1 348 347
f 1 347 373
f 1 373 393
f 1 393 392
f 1 392 391
f 1 391 390
f 1 390 389
f 1 389 394
f 1 394 375
f 1 375 374
f 1 374 349
f 1 349 320
f 1 320 290
f 1 290 289
f 1 289 263
f 1 263 238
f 1 238 237
f 1 237 236
f 1 236 209
f 1 209 179
f 1 179 149
f 1 149 123
f 1 123 98
f 1 98 75
f 1 75 53
f 1 53 36
f 1 36 16
f 1 16 35
f 1 35 52
f 1 52 74
f 1 74 97
f 1 97 81
f 1 81 57
f 1 57 55
f 1 55 38
f 1 38 17
f 1 17 2
f 2 17 18
f 2 18 3
f 3 19 20
f 3 20 5
f 3 5 4
f 3 18 39
f 3 39 56
f 3 56 80
f 3 80 83
f 3 83 82
f 3 82 107
f 3 107 122
f 3 122 121
f 3 121 120
f 3 120 96
f 3 96 73
f 3 73 52
f 3 52 35
f 3 35 37
f 3 37 54
f 3 54 78
f 3 78 105
f 3 105 134
f 3 134 163
f 3 163 190
f 3 190 189
f 3 189 215
f 3 215 216
f 3 216 244
f 3 244 270
f 3 270 295
f 3 295 326
f 3 326 301
f 3 301 300
f 3 300 331
f 3 331 330
f 3 330 361
f 3 361 360
f 3 360 359
f 3 359 384
f 3 384 386
f 3 386 385
f 3 385 362
f 3 362 333
f 3 333 305
f 3 305 332
f 3 332 303
f 3 303 273
f 3 273 247
f 3 247 221
f 3 221 220
f 3 220 219
f 3 219 193
f 3 193 192
f 3 192 164
f 3 164 135
f 3 135 108
f 3 108 84
f 3 84 58
f 3 58 41
f 3 41 40
f 3 40 19
f 5 20 19
f 5 19 21
f 5 21 22
f 5 22 23
f 5 23 6
f 6 23 7
f 7 23 24
f 7 24 25
f 7 25 26
f 7 26 8
f 8 26 27
f 8 27 9
f 9 27 28
f 9 28 29
f 9 29 10
f 10 29 11
f 11 29 30
f 11 30 13
f 11 13 12
f 13 30 31
f 13 31 32
f 13 32 14
f 14 32 33
f 14 33 15
f 15 33 34
f 16 36 37
f 16 37 35
f 17 38 18
f 18 38 39
f 19 40 21
f 21 40 22
f 22 40 41
f 22 41 42
f 22 42 23
f 23 42 24
f 24 42 25
f 25 43 28
f 25 28 26
f 25 42 43
f 26 28 27
f 28 43 44
f 28 44 45
f 28 45 29
f 29 45 46
f 29 46 30
f 30 46 31
f 31 33 32
f 31 46 47
f 31 47 48
f 31 48 49
f 31 49 33
f 33 49 50
f 33 50 51
f 33 51 34
f 36 53 77
f 36 77 102
f 36 102 128
f 36 128 155
f 36 155 185
f 36 185 184
f 36 184 156
f 36 156 130
f 36 130 129
f 36 129 106
f 36 106 79
f 36 79 54
f 36 54 37
f 38 55 39
f 39 55 57
f 39 57 56
f 41 58 59
f 41 59 42
f 42 59 60
f 42 60 61
f 42 61 62
f 42 62 43
f 43 62 44
f 44 62 63
f 44 63 64
f 44 64 65
f 44 65 66
f 44 66 45
f 45 66 46
f 46 66 47
f 47 67 48
f 47 66 65
f 47 65 68
f 47 68 69
f 47 69 67
f 48 67 70
f 48 70 49
f 49 70 50
f 50 70 72
f 50 72 71
f 52 73 74
f 53 75 76
f 53 76 77
f 54 79 78
f 56 57 80
f 57 81 82
f 57 82 83
f 57 83 80
f 58 60 59
f 58 84 60
f 60 84 61
f 61 84 85
f 61 85 86
f 61 86 62
f 62 86 63
f 63 86 64
f 64 86 87
f 64 87 88
f 64 88 65
f 65 88 68
f 67 69 89
f 67 89 70
f 68 88 69
f 69 88 90
f 69 90 91
f 69 91 89
f 70 92 72
f 70 89 93
f 70 93 92
f 71 72 94
f 72 92 95
f 72 95 94
f 73 96 74
f 74 96 97
f 75 98 99
f 75 99 76
f 76 100 101
f 76 101 102
f 76 102 77
f 76 99 100
f 78 79 103
f 78 103 104
f 78 104 105
f 79 106 103
f 81 97 82
f 82 97 107
f 84 108 85
f 85 108 86
f 86 108 109
f 86 109 110
f 86 110 87
f 87 110 88
f 88 110 111
f 88 111 112
f 88 112 90
f 89 91 93
f 90 112 113
f 90 113 91
f 91 113 114
f 91 114 115
f 91 115 93
f 92 93 116
f 92 116 95
f 93 115 117
f 93 117 118
f 93 118 116
f 95 116 119
f 96 120 97
f 97 120 121
f 97 121 122
f 97 122 107
f 98 123 124
f 98 124 99
f 99 124 125
f 99 125 100
f 100 126 101
f 100 125 127
f 100 127 126
f 101 126 155
f 101 155 128
f 101 128 102
f 103 106 129
f 103 129 130
f 103 130 131
f 103 131 104
f 104 132 133
f 104 133 134
f 104 134 105
f 104 131 132
f 108 135 110
f 108 110 109
f 110 135 136
f 110 136 137
f 110 137 138
f 110 138 139
f 110 139 112
f 110 112 111
f 112 139 140
f 112 140 141
f 112 141 142
f 112 142 113
f 113 142 114
f 114 117 115
f 114 142 143
f 114 143 144
f 114 144 145
f 114 145 117
f 116 118 146
f 116 146 119
f 117 147 118
f 117 145 148
f 117 148 147
f 118 147 146
f 123 149 124
f 124 149 150
f 124 150 151
f 124 151 125
f 125 151 152
f 125 152 127
f 126 127 153
f 126 153 154
f 126 154 155
f 127 152 153
f 130 156 131
f 131 156 157
f 131 157 158
f 131 158 132
f 132 158 159
f 132 159 160
f 132 160 133
f 133 161 134
f 133 160 162
f 133 162 161
f 134 161 163
f 135 164 136
f 136 164 137
f 137 164 165
f 137 165 138
f 138 140 139
f 138 165 166
f 138 166 167
f 138 167 168
f 138 168 140
f 140 168 141
f 141 143 142
f 141 168 169
f 141 169 170
f 141 170 171
f 141 171 143
f 143 171 144
f 144 171 172
f 144 172 173
f 144 173 174
f 144 174 175
f 144 175 145
f 145 175 148
f 146 147 176
f 147 148 176
f 148 175 177
f 148 177 178
f 148 178 176
f 149 179 150
f 150 179 180
f 150 180 151
f 151 180 181
f 151 181 152
f 152 182 153
f 152 181 183
f 152 183 182
f 153 158 154
f 153 182 159
f 153 159 158
f 154 157 184
f 154 184 185
f 154 185 155
f 154 158 157
f 156 184 157
f 159 182 186
f 159 186 160
f 160 186 187
f 160 187 162
f 161 162 188
f 161 188 189
f 161 189 190
f 161 190 163
f 162 187 191
f 162 191 188
f 164 192 165
f 165 192 193
f 165 193 194
f 165 194 166
f 166 194 167
f 167 194 195
f 167 195 196
f 167 196 197
f 167 197 168
f 168 197 169
f 169 197 170
f 170 197 198
f 170 198 199
f 170 199 200
f 170 200 172
f 170 172 171
f 172 200 173
f 173 200 201
f 173 201 202
f 173 202 203
f 173 203 204
f 173 204 174
f 174 177 175
f 174 204 177
f 176 178 205
f 176 205 206
f 177 204 207
f 177 207 208
f 177 208 205
f 177 205 178
f 179 209 210
f 179 210 180
f 180 210 181
f 181 210 211
f 181 211 212
f 181 212 183
f 182 183 186
f 183 212 213
f 183 213 186
f 186 213 187
f 187 213 214
f 187 214 191
f 188 191 215
f 188 215 189
f 191 216 215
f 191 214 217
f 191 217 218
f 191 218 216
f 193 219 194
f 194 219 220
f 194 220 221
f 194 221 195
f 195 221 196
f 196 221 222
f 196 222 223
f 196 223 224
f 196 224 197
f 197 224 198
f 198 224 199
f 199 201 200
f 199 224 225
f 199 225 226
f 199 226 227
f 199 227 201
f 201 227 202
f 202 228 203
f 202 227 229
f 202 229 230
f 202 230 231
f 202 231 228
f 203 228 207
f 203 207 204
f 205 208 232
f 205 232 233
f 205 233 206
f 207 232 208
f 207 228 234
f 207 234 235
f 207 235 232
f 209 236 210
f 210 236 237
f 210 237 238
f 210 238 239
f 210 239 240
f 210 240 211
f 211 240 241
f 211 241 212
f 212 241 242
f 212 242 213
f 213 242 214
f 214 242 243
f 214 243 217
f 216 218 244
f 217 243 245
f 217 245 246
f 217 246 218
f 218 246 244
f 221 247 248
f 221 248 222
f 222 248 223
f 223 248 249
f 223 249 250
f 223 250 251
f 223 251 224
f 224 251 225
f 225 251 226
f 226 252 230
f 226 230 229
f 226 229 227
f 226 251 253
f 226 253 254
f 226 254 252
f 228 231 234
f 230 255 231
f 230 252 254
f 230 254 256
f 230 256 257
f 230 257 258
f 230 258 255
f 231 255 234
f 232 235 259
f 232 259 260
f 232 260 261
f 232 261 233
f 234 255 262
f 234 262 259
f 234 259 235
f 238 263 264
f 238 264 239
f 239 264 265
f 239 265 240
f 240 265 266
f 240 266 241
f 241 266 267
f 241 267 268
f 241 268 242
f 242 268 243
f 243 268 269
f 243 269 245
f 244 246 270
f 245 269 271
f 245 271 272
f 245 272 246
f 246 272 270
f 247 273 248
f 248 273 274
f 248 274 249
f 249 274 250
f 250 253 251
f 250 274 275
f 250 275 276
f 250 276 277
f 250 277 253
f 253 277 254
f 254 277 276
f 254 276 278
f 254 278 279
f 254 279 280
f 254 280 256
f 255 258 281
f 255 281 262
f 256 280 257
f 257 280 282
f 257 282 283
f 257 283 284
f 257 284 258
f 258 285 281
f 258 284 286
f 258 286 287
f 258 287 285
f 259 262 288
f 262 281 288
f 263 289 264
f 264 289 290
f 264 290 291
f 264 291 265
f 265 291 292
f 265 292 266
f 266 292 267
f 267 292 293
f 267 293 294
f 267 294 269
f 267 269 268
f 269 294 271
f 270 272 295
f 271 296 297
f 271 297 298
f 271 298 299
f 271 299 300
f 271 300 301
f 271 301 302
f 271 302 272
f 271 294 296
f 272 302 295
f 273 303 274
f 274 303 275
f 275 303 276
f 276 303 304
f 276 304 305
f 276 305 306
f 276 306 307
f 276 307 308
f 276 308 278
f 278 308 279
f 279 282 280
f 279 308 309
f 279 309 310
f 279 310 311
f 279 311 282
f 281 285 312
f 281 312 288
f 282 311 283
f 283 286 284
f 283 311 313
f 283 313 286
f 285 287 314
f 285 314 315
f 285 315 312
f 286 313 316
f 286 316 317
f 286 317 318
f 286 318 319
f 286 319 287
f 287 319 314
f 290 320 291
f 291 320 321
f 291 321 322
f 291 322 292
f 292 322 293
f 293 322 323
f 293 323 324
f 293 324 294
f 294 324 325
f 294 325 296
f 295 302 326
f 296 325 297
f 297 325 327
f 297 327 328
f 297 328 298
f 298 329 330
f 298 330 331
f 298 331 299
f 298 328 329
f 299 331 300
f 301 326 302
f 303 332 304
f 304 332 305
f 305 333 306
f 306 333 334
f 306 334 307
f 307 334 335
f 307 335 336
f 307 336 337
f 307 337 309
f 307 309 308
f 309 337 338
f 309 338 310
f 310 339 311
f 310 338 339
f 311 339 340
f 311 340 341
f 311 341 313
f 313 341 316
f 314 319 342
f 316 340 343
f 316 343 344
f 316 344 345
f 316 345 346
f 316 346 317
f 316 341 340
f 317 346 347
f 317 347 318
f 318 347 319
f 319 347 348
f 319 348 342
f 320 349 321
f 321 349 350
f 321 350 351
f 321 351 322
f 322 351 323
f 323 351 352
f 323 352 353
f 323 353 354
f 323 354 324
f 324 354 325
f 325 354 355
f 325 355 327
f 327 355 356
f 327 356 328
f 328 356 357
f 328 357 358
f 328 358 359
f 328 359 360
f 328 360 329
f 329 360 361
f 329 361 330
f 333 362 334
f 334 362 335
f 335 362 363
f 335 363 364
f 335 364 336
f 336 365 338
f 336 338 337
f 336 364 365
f 338 365 366
f 338 366 367
f 338 367 339
f 339 367 340
f 340 367 368
f 340 368 343
f 343 368 369
f 343 369 344
f 344 369 370
f 344 370 371
f 344 371 372
f 344 372 345
f 345 373 346
f 345 372 373
f 346 373 347
f 349 374 350
f 350 374 375
f 350 375 376
f 350 376 377
f 350 377 351
f 351 377 352
f 352 377 378
f 352 378 353
f 353 355 354
f 353 378 379
f 353 379 380
f 353 380 355
f 355 380 381
f 355 381 356
f 356 381 357
f 357 381 382
f 357 382 364
f 357 364 358
f 358 383 384
f 358 384 359
f 358 364 383
f 362 385 363
f 363 385 386
f 363 386 383
f 363 383 364
f 364 382 365
f 365 382 366
f 366 382 381
f 366 381 387
f 366 387 368
f 366 368 367
f 368 387 379
f 368 379 369
f 369 379 370
f 370 379 378
f 370 378 377
f 370 377 388
f 370 388 371
f 371 388 389
f 371 389 390
f 371 390 372
f 372 390 391
f 372 391 392
f 372 392 393
f 372 393 373
f 375 394 376
f 376 394 388
f 376 388 377
f 379 387 380
f 380 387 381
f 383 386 384
f 388 394 389
