v 0.94998300 0.68045306 -0.00210455
v 0.94998300 0.68045306 -0.05002958
v 0.86998051 0.68104184 -0.30999321
v 0.93865031 0.68025672 -0.00210455
v 0.96076435 0.68015862 -0.00210455
v 0.95068747 0.68035483 -0.08815511
v 0.94554180 0.68045306 -0.11000980
v 0.96073371 0.68015862 -0.01001810
v 0.96064180 0.68015862 -0.03002383
v 0.94345903 0.68045306 -0.13001554
v 0.94189698 0.68035483 -0.15002128
v 0.89019555 0.68064928 -0.28924790
v 0.88361037 0.68055117 -0.30999321
v 0.87010306 0.68064928 -0.32966614
v 0.85001051 0.68084562 -0.34996772
v 0.81619632 0.68035483 -0.37984687
v 0.81264335 0.67986417 -0.37984687
v 0.80682391 0.67849016 -0.37984687
v 0.92866534 0.67770505 -0.00210455
v 0.96471548 0.67907906 -0.00210455
v 0.95999861 0.67996228 -0.08024156
v 0.97074932 0.67741066 -0.01001810
v 0.96045804 0.68006051 -0.05002958
v 0.90214080 0.68035483 -0.26998174
v 0.94076371 0.68015862 -0.16448013
v 0.90063995 0.68015862 -0.28207394
v 0.88109881 0.68025672 -0.32278800
v 0.86281335 0.68035483 -0.34996772
v 0.84896916 0.68045306 -0.36827242
v 0.82982612 0.68055117 -0.37984687
v 0.82945859 0.68055117 -0.36967760
v 0.79043746 0.67093337 -0.37984687
v 0.91111505 0.66769475 -0.00210455
v 0.97074932 0.67741066 -0.00210455
v 0.95347464 0.67888278 -0.13001554
v 0.95555741 0.67947161 -0.11000980
v 0.97062683 0.67721438 -0.03002383
v 0.97047365 0.67682183 -0.05002958
v 0.97019804 0.67623293 -0.07003531
v 0.96799272 0.67603672 -0.08815511
v 0.98826897 0.66740030 -0.01001810
v 0.92067122 0.68015862 -0.22394267
v 0.95188200 0.67780322 -0.15002128
v 0.93834406 0.67986417 -0.17782962
v 0.91819030 0.67986417 -0.23729214
v 0.91531116 0.67927533 -0.24997601
v 0.91215640 0.67780322 -0.26998174
v 0.89702576 0.67947161 -0.29542342
v 0.89359534 0.67829394 -0.30999321
v 0.87684137 0.67947161 -0.33613750
v 0.86024058 0.68006051 -0.36046982
v 0.84324157 0.68025672 -0.37984687
v 0.77625632 0.66259146 -0.37984687
v 0.90113002 0.65817511 -0.00210455
v 0.98826897 0.66740030 -0.00210455
v 0.96998358 0.67338693 -0.11000980
v 0.98790145 0.66720402 -0.03002383
v 0.98725826 0.66681147 -0.05002958
v 0.98633939 0.66622263 -0.07003531
v 0.99825400 0.65680110 -0.01001810
v 0.96998358 0.67083526 -0.13001554
v 0.94845152 0.67691994 -0.17069264
v 0.93209577 0.67819577 -0.20996453
v 0.92838967 0.67701811 -0.23037705
v 0.92998236 0.67309248 -0.24997601
v 0.90835845 0.67584038 -0.28924790
v 0.88866413 0.67603672 -0.32966614
v 0.87282902 0.67799950 -0.34996772
v 0.85494179 0.67888278 -0.37381929
v 0.84633505 0.67976606 -0.37984687
v 0.77310157 0.65905833 -0.37984687
v 0.76722085 0.65140343 -0.37984687
v 0.75986993 0.64011723 -0.37980992
v 0.89583123 0.64816475 -0.00210455
v 0.99825400 0.65680110 -0.00210455
v 0.98508358 0.66524124 -0.09000407
v 0.98352152 0.66386724 -0.11000980
v 0.99791706 0.65621227 -0.03002383
v 0.99727386 0.65483832 -0.05002958
v 1.00110245 0.65081453 -0.00210455
v 1.00300145 0.64679074 -0.01001810
v 1.00272584 0.64620197 -0.03002383
v 0.94998300 0.67338693 -0.19003275
v 0.98168379 0.66190445 -0.13001554
v 0.97123939 0.66661519 -0.14920774
v 0.96676755 0.66622263 -0.17002702
v 0.93114626 0.66710591 -0.27005571
v 0.94750208 0.66641891 -0.22997028
v 0.94382662 0.66376913 -0.24997601
v 0.92569435 0.66514307 -0.28998747
v 0.91154385 0.66798913 -0.31106561
v 0.90627569 0.66543746 -0.32999897
v 0.89126754 0.66779292 -0.35074428
v 0.86814278 0.67495716 -0.36827242
v 0.85270584 0.67829394 -0.37984687
v 0.75986993 0.64011723 -0.37984687
v 0.75539809 0.63010687 -0.37984687
v 0.88844967 0.62991059 -0.00210455
v 0.99632442 0.65277737 -0.07003531
v 1.00211322 0.64482796 -0.05002958
v 1.00119436 0.64286518 -0.07003531
v 1.00297081 0.64679074 -0.00210455
v 1.00480855 0.64011723 -0.00210455
v 1.00762641 0.62991059 -0.01001810
v 1.00707507 0.62991059 -0.03002383
v 0.96394974 0.66396540 -0.19003275
v 0.98045868 0.66053045 -0.14199680
v 0.99577308 0.64865541 -0.09000407
v 0.99194443 0.64993131 -0.11000980
v 0.96165258 0.66180629 -0.20541610
v 0.95953918 0.65925467 -0.21872860
v 0.94131505 0.66141373 -0.26343644
v 0.92229456 0.66229701 -0.30514896
v 0.90244704 0.66239512 -0.34456876
v 0.88526428 0.66445613 -0.36997345
v 0.86933732 0.67024636 -0.37984687
v 0.74780214 0.60998803 -0.37984687
v 0.74406546 0.59752417 -0.37984687
v 0.74293220 0.59369671 -0.37984687
v 0.88504988 0.61783934 -0.00210455
v 1.00042868 0.64109862 -0.08331084
v 1.00591123 0.62991059 -0.05002958
v 1.00759578 0.62991059 -0.00210455
v 1.00964797 0.60998803 -0.01001810
v 1.00909662 0.60998803 -0.03002383
v 1.00796330 0.60998803 -0.05002958
v 0.98820776 0.64993131 -0.13001554
v 0.98370528 0.65071642 -0.14920774
v 0.97877407 0.65788066 -0.15534627
v 0.97675258 0.65395504 -0.17002702
v 0.97414911 0.64836103 -0.18866453
v 0.96575683 0.65150154 -0.21125880
v 0.96260208 0.64551497 -0.22997028
v 0.95751768 0.65542716 -0.22997028
v 0.93858910 0.65768439 -0.27674893
v 0.91923165 0.65876395 -0.31849843
v 0.88232392 0.66210073 -0.37984687
v 0.89880222 0.65807694 -0.35791823
v 0.73959363 0.58113468 -0.37984687
v 0.88263023 0.60920292 -0.00210455
v 1.00410414 0.62991059 -0.07003531
v 0.99950981 0.63707483 -0.09666032
v 1.00961733 0.60998803 -0.00210455
v 1.00983167 0.60203862 -0.00210455
v 1.01013803 0.58996737 -0.00210455
v 1.01013803 0.58996737 -0.01001810
v 1.00961733 0.58996737 -0.03002383
v 1.00615621 0.60998803 -0.07003531
v 1.00845337 0.58996737 -0.05002958
v 1.00667691 0.58996737 -0.07003531
v 0.98177570 0.64394474 -0.17002702
v 0.98030555 0.64070606 -0.18112077
v 0.96058059 0.64129490 -0.24158174
v 0.95390350 0.64875358 -0.24894059
v 0.94486797 0.65061826 -0.27005571
v 0.94205010 0.64433730 -0.28473645
v 0.93604690 0.65061826 -0.29083800
v 0.92646003 0.65120709 -0.31106561
v 0.92266208 0.64541686 -0.32533959
v 0.91659760 0.65120709 -0.33118230
v 0.90649009 0.65081453 -0.35074428
v 0.88459045 0.65915650 -0.37984687
v 0.90238583 0.64472985 -0.36420470
v 0.89534116 0.65081453 -0.37052813
v 0.89013427 0.65002942 -0.37984687
v 0.73686767 0.57004482 -0.37984687
v 0.88094562 0.60213679 -0.00210455
v 1.00156188 0.63020504 -0.09000407
v 1.00058174 0.62372774 -0.10353845
v 0.99837649 0.63020504 -0.11012074
v 0.99467045 0.62991059 -0.13001554
v 1.01019919 0.58201796 -0.00210455
v 1.01029110 0.56994665 -0.01001810
v 1.00973976 0.56994665 -0.03002383
v 1.00860655 0.56994665 -0.05002958
v 1.00364470 0.60998803 -0.09000407
v 1.00683010 0.56994665 -0.07003531
v 1.00431848 0.56994665 -0.09000407
v 1.00413477 0.58996737 -0.09000407
v 0.99022925 0.62991059 -0.15002128
v 0.98520613 0.62991059 -0.17002702
v 0.98125499 0.62991059 -0.18433796
v 0.97831464 0.62991059 -0.19432233
v 0.97344464 0.62991059 -0.20996453
v 0.96676755 0.62991059 -0.22997028
v 0.96165258 0.62991059 -0.24439216
v 0.95785457 0.62991059 -0.25437653
v 0.95169818 0.62991059 -0.26998174
v 0.93914038 0.63432693 -0.29808593
v 0.91932356 0.63570088 -0.33865207
v 0.90440732 0.62991059 -0.36775470
v 0.89867973 0.62991059 -0.37773907
v 0.89742392 0.62991059 -0.37984687
v 0.89622939 0.63334548 -0.37984687
v 0.73242652 0.54992598 -0.37984687
v 0.87959796 0.59605205 -0.00210455
v 1.00110245 0.60998803 -0.10634886
v 0.99935663 0.60998803 -0.11633325
v 0.99660003 0.60998803 -0.13001554
v 1.01029110 0.56994665 -0.00210455
v 1.01035237 0.54992598 -0.01001810
v 1.00983167 0.54992598 -0.03002383
v 1.00872910 0.54992598 -0.05002958
v 1.00692201 0.54992598 -0.07003531
v 1.00143933 0.56994665 -0.10812387
v 1.00134754 0.58996737 -0.10768012
v 1.00450230 0.52990532 -0.09000407
v 1.00153124 0.52990532 -0.10871553
v 0.99215889 0.60998803 -0.15002128
v 0.98713577 0.60998803 -0.17002702
v 0.98220450 0.60998803 -0.18755515
v 0.97923350 0.60998803 -0.19750255
v 0.97528237 0.60998803 -0.20996453
v 0.96857470 0.60998803 -0.22997028
v 0.96254081 0.60998803 -0.24672183
v 0.95874286 0.60998803 -0.25674319
v 0.95347464 0.60998803 -0.26998174
v 0.94012052 0.62097979 -0.30030468
v 0.94315279 0.62853658 -0.29083800
v 0.93528116 0.62853658 -0.30818123
v 0.92400974 0.62941992 -0.33118230
v 0.92033428 0.62235379 -0.34068593
v 0.91509676 0.62941992 -0.34837762
v 0.90538740 0.60998803 -0.36945575
v 0.89969045 0.60998803 -0.37944013
v 0.89938420 0.61067504 -0.37984687
v 0.87831157 0.58967292 -0.00210455
v 0.72868979 0.52990532 -0.37984687
v 0.99957103 0.58996737 -0.11766449
v 0.99705946 0.58996737 -0.13001554
v 1.01035237 0.54992598 -0.00210455
v 1.01084244 0.28995144 -0.01001810
v 1.01035237 0.28995144 -0.03002383
v 1.00882101 0.50998271 -0.05002958
v 1.00710571 0.48996204 -0.07003531
v 1.00704443 0.50998271 -0.07003531
v 1.00456357 0.50998271 -0.09000407
v 0.99969357 0.54992598 -0.11844106
v 0.99963230 0.56994665 -0.11810824
v 0.99975479 0.52990532 -0.11869992
v 1.00468612 0.46994135 -0.09000407
v 1.00156188 0.50998271 -0.10890043
v 0.99255705 0.58996737 -0.15002128
v 0.98750329 0.58996737 -0.17002702
v 0.98238826 0.58996737 -0.18818380
v 0.97944790 0.58996737 -0.19813119
v 0.97564995 0.58996737 -0.20996453
v 0.96891159 0.58996737 -0.22997028
v 0.96269393 0.58996737 -0.24716559
v 0.95889598 0.58996737 -0.25714996
v 0.94508237 0.60998803 -0.28998747
v 0.95378095 0.58996737 -0.26998174
v 0.94033492 0.60998803 -0.30074841
v 0.93564868 0.60998803 -0.31076980
v 0.92636818 0.60998803 -0.32999897
v 0.92067122 0.60998803 -0.34131458
v 0.91537243 0.60998803 -0.35133594
v 0.91558683 0.58996737 -0.35170573
v 0.90557122 0.58996737 -0.36982554
v 0.89987427 0.58996737 -0.37984687
v 0.89944541 0.60998803 -0.37984687
v 0.87463611 0.56994665 -0.00210455
v 0.72654575 0.51655817 -0.37984687
v 0.87138945 0.54992598 -0.00210455
v 0.87267584 0.55787539 -0.00210455
v 0.99730450 0.54992598 -0.13001554
v 1.01081181 0.28200203 -0.00210455
v 1.01087308 0.24991006 -0.01001810
v 1.01035237 0.24991006 -0.03002383
v 1.00921917 0.30997211 -0.05002958
v 1.00738144 0.34991539 -0.07003531
v 1.00490046 0.36993605 -0.09000407
v 0.99978542 0.50998271 -0.11888481
v 0.99745762 0.50998271 -0.13001554
v 1.00162315 0.46994135 -0.10919626
v 0.99981606 0.48996204 -0.11906970
v 0.99267954 0.56994665 -0.15002128
v 0.98768705 0.54992598 -0.17002702
v 0.98244953 0.56994665 -0.18836869
v 0.97950917 0.56994665 -0.19835307
v 0.97580308 0.56994665 -0.20996453
v 0.96906471 0.56994665 -0.22997028
v 0.96281648 0.54992598 -0.24746142
v 0.95895725 0.56994665 -0.25733486
v 0.94538867 0.58996737 -0.28998747
v 0.94051868 0.58996737 -0.30115521
v 0.95390350 0.56994665 -0.26998174
v 0.93586308 0.58996737 -0.31113958
v 0.92673570 0.58996737 -0.32999897
v 0.92088562 0.58996737 -0.34168437
v 0.92094684 0.56994665 -0.34183228
v 0.91564810 0.56994665 -0.35181665
v 0.90563244 0.56994665 -0.36993647
v 0.89990485 0.58663058 -0.37984687
v 0.72550440 0.50998271 -0.37984687
v 0.86854094 0.52990532 -0.00210455
v 0.99277145 0.54992598 -0.15002128
v 1.01081181 0.24205881 -0.00210455
v 1.01078117 0.22998750 -0.00210455
v 1.01081181 0.22998750 -0.01001810
v 1.01029110 0.22998750 -0.03002383
v 1.00915790 0.24991006 -0.05002958
v 1.00921917 0.26993075 -0.05002958
v 1.00744271 0.30997211 -0.07003531
v 1.00741196 0.32999283 -0.07003531
v 1.00496173 0.32999283 -0.09000407
v 1.00174570 0.36993605 -0.10975095
v 1.00165379 0.44992068 -0.10927022
v 0.99751890 0.48996204 -0.13001554
v 0.99292457 0.50998271 -0.15002128
v 0.99984670 0.46994135 -0.11918064
v 0.98780954 0.50998271 -0.17002702
v 0.98257208 0.50998271 -0.18877546
v 0.98254144 0.52990532 -0.18866453
v 0.97960103 0.52990532 -0.19864890
v 0.97598684 0.52990532 -0.20996453
v 0.96924853 0.52990532 -0.22997028
v 0.96287775 0.52990532 -0.24757236
v 0.95901847 0.54992598 -0.25744581
v 0.94551116 0.56994665 -0.28998747
v 0.94057995 0.56994665 -0.30126613
v 0.95408726 0.52990532 -0.26998174
v 0.93589371 0.56994665 -0.31128749
v 0.92685825 0.56994665 -0.32999897
v 0.92695010 0.54992598 -0.32999897
v 0.92097747 0.54992598 -0.34190625
v 0.91567874 0.54992598 -0.35189062
v 0.89999676 0.56994665 -0.37984687
v 0.91570932 0.50998271 -0.35196459
v 0.90566307 0.54992598 -0.36993647
v 0.90456045 0.52902198 -0.37197033
v 0.72277844 0.49015832 -0.37984687
v 0.72112447 0.47671306 -0.37984687
v 0.86609066 0.50998271 -0.00210455
v 1.01075053 0.22203812 -0.00210455
v 1.01071990 0.20996682 -0.01001810
v 1.01016855 0.20996682 -0.03002383
v 1.00906599 0.22998750 -0.05002958
v 1.00725889 0.24991006 -0.07003531
v 1.00735080 0.26993075 -0.07003531
v 1.00741196 0.28995144 -0.07003531
v 1.00496173 0.30997211 -0.09000407
v 1.00177634 0.32999283 -0.10989887
v 0.99996924 0.34991539 -0.11988325
v 0.99767208 0.40997744 -0.13001554
v 0.98787081 0.48996204 -0.17002702
v 0.99304712 0.42999813 -0.15002128
v 0.98260266 0.46994135 -0.18888640
v 0.97963166 0.50998271 -0.19875984
v 0.97604811 0.50998271 -0.20996453
v 0.96930975 0.50998271 -0.22997028
v 0.96290833 0.50998271 -0.24764632
v 0.95907974 0.50998271 -0.25766766
v 0.94560307 0.54992598 -0.28998747
v 0.93595499 0.54992598 -0.31136143
v 0.94064116 0.52990532 -0.30141404
v 0.95414853 0.50998271 -0.26998174
v 0.93598562 0.50998271 -0.31147239
v 0.92701137 0.50998271 -0.32999897
v 0.92100811 0.52990532 -0.34194323
v 0.90008867 0.52195591 -0.37984687
v 0.90569371 0.48996204 -0.36993647
v 0.90456045 0.51057160 -0.37197033
v 0.92100811 0.48996204 -0.34194323
v 0.92100811 0.46994135 -0.34190625
v 0.91567874 0.46994135 -0.35189062
v 0.72097135 0.47543722 -0.37984687
v 0.71956241 0.46267894 -0.37984687
v 0.86400789 0.48996204 -0.00210455
v 1.01065862 0.20201743 -0.00210455
v 1.01059747 0.18994613 -0.01001810
v 1.00998485 0.18994613 -0.03002383
v 1.00891280 0.20996682 -0.05002958
v 1.00713634 0.22998750 -0.07003531
v 1.00471663 0.24991006 -0.09000407
v 1.00490046 0.28995144 -0.09000407
v 1.00174570 0.28995144 -0.10964001
v 1.00177634 0.30997211 -0.10982491
v 0.99996924 0.32999283 -0.11992022
v 0.99776393 0.34991539 -0.13001554
v 0.98790145 0.46994135 -0.17002702
v 0.99313897 0.36993605 -0.15002128
v 0.98793209 0.42999813 -0.17002702
v 0.98799336 0.34991539 -0.17002702
v 0.98263329 0.36993605 -0.18888640
v 0.97966230 0.44992068 -0.19887078
v 0.97966230 0.46994135 -0.19883379
v 0.97610939 0.46994135 -0.20996453
v 0.96937102 0.46994135 -0.22997028
v 0.96290833 0.46994135 -0.24772027
v 0.95911038 0.48996204 -0.25770465
v 0.94572556 0.50998271 -0.28998747
v 0.94067180 0.50998271 -0.30145103
v 0.95417917 0.46994135 -0.26998174
v 0.93598562 0.48996204 -0.31147239
v 0.92701137 0.48996204 -0.32999897
v 0.90008867 0.51753956 -0.37984687
v 0.90560186 0.40997744 -0.36978856
v 0.89999676 0.46974507 -0.37984687
v 0.92698073 0.46994135 -0.32999897
v 0.92688888 0.42999813 -0.32999897
v 0.92097747 0.44992068 -0.34186929
v 0.91564810 0.44992068 -0.35185367
v 0.71953177 0.46238452 -0.37984687
v 0.86290526 0.47789076 -0.00210455
v 0.71824539 0.44992068 -0.37984687
v 0.71640766 0.42999813 -0.37984687
v 1.01056683 0.18994613 -0.00210455
v 1.01050556 0.18199673 -0.00210455
v 1.01038301 0.17002358 -0.00210455
v 1.01038301 0.17002358 -0.01001810
v 1.00977039 0.17002358 -0.03002383
v 1.00872910 0.18994613 -0.05002958
v 1.00695252 0.20996682 -0.07003531
v 1.00453293 0.22998750 -0.09000407
v 1.00153124 0.22998750 -0.10849366
v 1.00162315 0.24991006 -0.10897439
v 1.00168443 0.26993075 -0.10934418
v 0.99987733 0.26993075 -0.11936554
v 0.99990797 0.28995144 -0.11962439
v 0.99993861 0.30997211 -0.11984627
v 0.99773329 0.30997211 -0.13001554
v 0.99776393 0.32999283 -0.13001554
v 0.99313897 0.32999283 -0.15002128
v 0.99310839 0.30997211 -0.15002128
v 0.98796272 0.32999283 -0.17002702
v 0.98263329 0.34991539 -0.18888640
v 0.97966230 0.36993605 -0.19887078
v 0.97610939 0.42999813 -0.20996453
v 0.96937102 0.42999813 -0.22997028
v 0.96290833 0.42999813 -0.24768330
v 0.95911038 0.44992068 -0.25770465
v 0.94572556 0.46994135 -0.28998747
v 0.94067180 0.46994135 -0.30145103
v 0.95911038 0.42999813 -0.25766766
v 0.95411789 0.40997744 -0.26998174
v 0.94569492 0.42999813 -0.28998747
v 0.94067180 0.44992068 -0.30141404
v 0.93595499 0.46994135 -0.31147239
v 0.91558683 0.40997744 -0.35177970
v 0.90554059 0.36993605 -0.36964065
v 0.89984363 0.40997744 -0.37984687
v 0.89990485 0.43294233 -0.37984687
v 0.93592435 0.42999813 -0.31139842
v 0.93589371 0.40997744 -0.31136143
v 0.92670506 0.36993605 -0.32999897
v 0.92088562 0.38995674 -0.34172136
v 0.86220080 0.46994135 -0.00210455
v 0.71484554 0.40997744 -0.37984687
v 1.01029110 0.16207419 -0.00210455
v 1.01013803 0.15000290 -0.01001810
v 1.00952542 0.15000290 -0.03002383
v 1.00848401 0.17002358 -0.05002958
v 1.00673819 0.18994613 -0.07003531
v 1.00431848 0.20996682 -0.09000407
v 1.00140882 0.20996682 -0.10786501
v 0.99969357 0.22998750 -0.11847804
v 0.99978542 0.24991006 -0.11899575
v 0.99767208 0.28995144 -0.13001554
v 0.99742699 0.24991006 -0.13001554
v 0.99301648 0.28995144 -0.15002128
v 0.98790145 0.30997211 -0.17002702
v 0.98260266 0.32999283 -0.18881243
v 0.97963166 0.32999283 -0.19875984
v 0.97604811 0.34991539 -0.20996453
v 0.97607875 0.36993605 -0.20996453
v 0.96930975 0.36993605 -0.22997028
v 0.96290833 0.40997744 -0.24764632
v 0.95907974 0.38995674 -0.25759372
v 0.95904911 0.36993605 -0.25755674
v 0.95402598 0.36993605 -0.26998174
v 0.94544995 0.34991539 -0.28998747
v 0.94061059 0.38995674 -0.30130312
v 0.94064116 0.42999813 -0.30141404
v 0.91552556 0.36993605 -0.35163176
v 0.90547931 0.34991539 -0.36956668
v 0.89978236 0.36993605 -0.37966198
v 0.89956796 0.34991539 -0.37984687
v 0.93580186 0.34991539 -0.31113958
v 0.92661321 0.34991539 -0.32999897
v 0.92085499 0.36993605 -0.34164739
v 0.86119002 0.45688865 -0.00210455
v 0.85941356 0.43147025 -0.00210455
v 0.86057746 0.44874299 -0.00210455
v 0.71352851 0.38995674 -0.37984687
v 1.01013803 0.15000290 -0.00210455
v 1.00983167 0.13008034 -0.01001810
v 1.00918853 0.13008034 -0.03002383
v 1.00817776 0.15000290 -0.05002958
v 1.00646257 0.17002358 -0.07003531
v 1.00407350 0.18994613 -0.09000407
v 1.00128627 0.18994613 -0.10708845
v 0.99957103 0.20996682 -0.11784939
v 0.99699819 0.20996682 -0.13001554
v 0.99724329 0.22998750 -0.13001554
v 0.99274081 0.24991006 -0.15002128
v 0.99289393 0.26993075 -0.15002128
v 0.98780954 0.28995144 -0.17002702
v 0.98257208 0.30997211 -0.18866453
v 0.97957039 0.30997211 -0.19861193
v 0.97589499 0.30997211 -0.20996453
v 0.97598684 0.32999283 -0.20996453
v 0.96924853 0.34991539 -0.22997028
v 0.96284711 0.34991539 -0.24749839
v 0.96287775 0.36993605 -0.24757236
v 0.95901847 0.34991539 -0.25748277
v 0.95393407 0.34991539 -0.26998174
v 0.94051868 0.34991539 -0.30111822
v 0.95384222 0.32999283 -0.26998174
v 0.94520491 0.30997211 -0.28998747
v 0.94045740 0.32999283 -0.30100727
v 0.91546428 0.34991539 -0.35155782
v 0.91540307 0.32999283 -0.35144687
v 0.91534179 0.30997211 -0.35129896
v 0.90541804 0.32999283 -0.36941877
v 0.89965987 0.32999283 -0.37944013
v 0.89941484 0.32999283 -0.37984687
v 0.93574059 0.32999283 -0.31102863
v 0.92649066 0.32999283 -0.32999897
v 0.92076308 0.32999283 -0.34142554
v 0.85815781 0.40997744 -0.00210455
v 0.71239525 0.36993605 -0.37984687
v 1.00983167 0.13008034 -0.00210455
v 1.00946414 0.11005966 -0.01001810
v 1.00784087 0.13008034 -0.05002958
v 1.00879025 0.11005966 -0.03002383
v 1.00612557 0.15000290 -0.07003531
v 1.00376725 0.17002358 -0.09000407
v 1.00113308 0.17002358 -0.10620095
v 0.99929535 0.17002358 -0.11622231
v 0.99944854 0.18994613 -0.11707283
v 0.99669194 0.18994613 -0.13001554
v 0.99203634 0.18994613 -0.15002128
v 0.99231201 0.20996682 -0.15002128
v 0.99255705 0.22998750 -0.15002128
v 0.98750329 0.24991006 -0.17002702
v 0.98244953 0.26993075 -0.18818380
v 0.98251081 0.28995144 -0.18844265
v 0.97950917 0.28995144 -0.19839005
v 0.97558868 0.26993075 -0.20996453
v 0.96906471 0.30997211 -0.22997028
v 0.96918726 0.32999283 -0.22997028
v 0.96281648 0.32999283 -0.24738747
v 0.95895725 0.32999283 -0.25737184
v 0.95889598 0.30997211 -0.25718695
v 0.95368910 0.30997211 -0.26998174
v 0.95350528 0.28995144 -0.26998174
v 0.94456172 0.24991006 -0.28998747
v 0.94030428 0.28995144 -0.30063748
v 0.94039619 0.30997211 -0.30085936
v 0.90532619 0.30997211 -0.36927086
v 0.92067122 0.30997211 -0.34127760
v 0.92057931 0.28995144 -0.34109271
v 0.91512740 0.26993075 -0.35089219
v 0.90523428 0.28995144 -0.36908597
v 0.89956796 0.30997211 -0.37929219
v 0.89923102 0.30997211 -0.37984687
v 0.92633754 0.30997211 -0.32999897
v 0.93555683 0.28995144 -0.31065884
v 0.85711640 0.38995674 -0.00210455
v 0.71144575 0.34991539 -0.37984687
v 1.00946414 0.11005966 -0.00210455
v 1.00903535 0.09003896 -0.01001810
v 1.00575805 0.13008034 -0.07003531
v 1.00741196 0.11005966 -0.05002958
v 1.00833082 0.09003896 -0.03002383
v 1.00343025 0.15000290 -0.09000407
v 1.00094938 0.15000290 -0.10523949
v 0.99911159 0.15000290 -0.11526085
v 0.99601811 0.15000290 -0.13001554
v 0.99638563 0.17002358 -0.13001554
v 0.99173009 0.17002358 -0.15002128
v 0.98676819 0.18994613 -0.17002702
v 0.98704386 0.20996682 -0.17002702
v 0.98728889 0.22998750 -0.17002702
v 0.98226577 0.22998750 -0.18748119
v 0.98235762 0.24991006 -0.18785098
v 0.97941726 0.26993075 -0.19813119
v 0.97932541 0.24991006 -0.19783536
v 0.96872783 0.26993075 -0.22997028
v 0.96891159 0.28995144 -0.22997028
v 0.97537428 0.24991006 -0.20996453
v 0.96275520 0.30997211 -0.24720258
v 0.95880407 0.28995144 -0.25696507
v 0.95871222 0.26993075 -0.25666922
v 0.95307648 0.24991006 -0.26998174
v 0.95280087 0.22998750 -0.26998174
v 0.94416350 0.20996682 -0.28950673
v 0.94345903 0.23136148 -0.29187343
v 0.93990612 0.22566932 -0.29978696
v 0.93999797 0.23901644 -0.30000883
v 0.94018173 0.26993075 -0.30041561
v 0.93546492 0.26993075 -0.31039998
v 0.92615378 0.28995144 -0.32999897
v 0.92593938 0.26993075 -0.32999897
v 0.92033428 0.24991006 -0.34064895
v 0.90511179 0.26993075 -0.36890107
v 0.91500485 0.24991006 -0.35063332
v 0.90498924 0.24991006 -0.36867917
v 0.89947605 0.28995144 -0.37910730
v 0.89901662 0.28995144 -0.37984687
v 0.85619754 0.36993605 -0.00210455
v 0.71061879 0.32999283 -0.37984687
v 1.00903535 0.09003896 -0.00210455
v 1.00851464 0.07001828 -0.00210455
v 1.00848401 0.07001828 -0.01001810
v 1.00781024 0.07001828 -0.03002383
v 1.00303209 0.13008034 -0.09000407
v 1.00529861 0.11005966 -0.07003531
v 1.00692201 0.09003896 -0.05002958
v 1.00073493 0.13008034 -0.10416710
v 0.99889719 0.13008034 -0.11415147
v 0.99519110 0.11005966 -0.13001554
v 0.99561989 0.13008034 -0.13001554
v 0.99136251 0.15000290 -0.15002128
v 0.98609436 0.15000290 -0.17002702
v 0.98165321 0.15000290 -0.18544734
v 0.98180634 0.17002358 -0.18603900
v 0.98195946 0.18994613 -0.18655671
v 0.98211265 0.20996682 -0.18707442
v 0.97908038 0.20996682 -0.19702181
v 0.97920287 0.22998750 -0.19746557
v 0.96257144 0.26993075 -0.24668486
v 0.96851343 0.24991006 -0.22997028
v 0.97488421 0.20996682 -0.20996453
v 0.95858967 0.24991006 -0.25637341
v 0.95843655 0.22998750 -0.25604060
v 0.95828342 0.20996682 -0.25567079
v 0.95249456 0.20996682 -0.26998174
v 0.94401038 0.18994613 -0.28913695
v 0.93978357 0.20996682 -0.29949114
v 0.93482172 0.20996682 -0.30999321
v 0.93610811 0.23136148 -0.30799633
v 0.93534243 0.24991006 -0.31017810
v 0.92569435 0.24991006 -0.32999897
v 0.92541867 0.22998750 -0.32999897
v 0.92018116 0.22998750 -0.34039009
v 0.91485173 0.22998750 -0.35037449
v 0.89920044 0.24991006 -0.37866354
v 0.89935356 0.26993075 -0.37888545
v 0.90483612 0.22998750 -0.36842030
v 0.89889413 0.20996682 -0.37814584
v 0.89877158 0.26993075 -0.37984687
v 0.85537058 0.34991539 -0.00210455
v 0.70991433 0.30997211 -0.37984687
v 0.85460484 0.32999283 -0.00210455
v 1.00793266 0.05009572 -0.00210455
v 1.00790215 0.05009572 -0.01001810
v 1.00640130 0.07001828 -0.05002958
v 1.00728953 0.03007504 -0.01001810
v 1.00658500 0.03007504 -0.03002383
v 1.00257266 0.11005966 -0.09000407
v 1.00027549 0.09003896 -0.10161553
v 1.00052047 0.11005966 -0.10294678
v 1.00480855 0.09003896 -0.07003531
v 0.99868280 0.11005966 -0.11296814
v 0.99470103 0.09003896 -0.13001554
v 0.99053556 0.11005966 -0.15002128
v 0.99096435 0.13008034 -0.15002128
v 0.98569620 0.13008034 -0.17002702
v 0.98143876 0.13008034 -0.18481869
v 0.97859031 0.15000290 -0.19543171
v 0.97877407 0.17002358 -0.19598641
v 0.97892720 0.18994613 -0.19654109
v 0.96244889 0.24991006 -0.24638903
v 0.96826839 0.22998750 -0.22997028
v 0.96765584 0.18994613 -0.22997028
v 0.97424102 0.17002358 -0.20996453
v 0.96232641 0.22998750 -0.24605621
v 0.96202010 0.18994613 -0.24524267
v 0.95813024 0.18994613 -0.25522706
v 0.95215762 0.18994613 -0.26998174
v 0.93959981 0.18994613 -0.29912135
v 0.95182073 0.17002358 -0.26998174
v 0.94382662 0.17002358 -0.28873020
v 0.93923229 0.15000290 -0.29830781
v 0.93448478 0.18994613 -0.30999321
v 0.91996676 0.20123230 -0.33994636
v 0.92486733 0.18994613 -0.32974011
v 0.91987485 0.18994613 -0.33976147
v 0.91573995 0.20869099 -0.34808177
v 0.91439229 0.18994613 -0.34996772
v 0.90468299 0.20996682 -0.36812449
v 0.89849597 0.24991006 -0.37984687
v 0.89852655 0.25197101 -0.37984687
v 0.89818966 0.22998750 -0.37984687
v 0.89785272 0.20996682 -0.37984687
v 0.89871037 0.18994613 -0.37785000
v 0.70960802 0.29956922 -0.37984687
v 0.85334909 0.28995144 -0.00210455
v 0.85396165 0.30997211 -0.00210455
v 1.00732017 0.03007504 -0.00210455
v 1.00578868 0.05009572 -0.05002958
v 1.00241947 0.01005435 -0.07003531
v 1.00425720 0.07001828 -0.07003531
v 1.00664628 0.01005435 -0.01001810
v 1.00591123 0.01005435 -0.03002383
v 1.00450230 0.01005435 -0.05002958
v 1.00208259 0.09003896 -0.09000407
v 1.00009179 0.07620113 -0.10061710
v 0.99849904 0.06972385 -0.10838272
v 0.99843776 0.09003896 -0.11159991
v 0.99418038 0.07001828 -0.13001554
v 0.99004549 0.09003896 -0.15002128
v 0.98526740 0.11005966 -0.17002702
v 0.98122436 0.11005966 -0.18411608
v 0.97837591 0.13008034 -0.19476609
v 0.97387350 0.15000290 -0.20996453
v 0.97304648 0.11005966 -0.20996453
v 0.97347528 0.13008034 -0.20996453
v 0.96731889 0.17002358 -0.22997028
v 0.96183634 0.17002358 -0.24479893
v 0.95779335 0.15000290 -0.25433955
v 0.93374974 0.15000290 -0.30999321
v 0.95145315 0.15000290 -0.26998174
v 0.94364285 0.15000290 -0.28828645
v 0.93335152 0.13008034 -0.30999321
v 0.94345903 0.13008034 -0.28784269
v 0.94324464 0.11005966 -0.28736195
v 0.93880349 0.11005966 -0.29734635
v 0.92468357 0.17002358 -0.32940727
v 0.91969109 0.17002358 -0.33939165
v 0.91365719 0.15000290 -0.34996772
v 0.90431541 0.17002358 -0.36753282
v 0.90449917 0.18994613 -0.36782867
v 0.90413165 0.15000290 -0.36720002
v 0.89748520 0.18994613 -0.37984687
v 0.89834279 0.15000290 -0.37718439
v 0.70933235 0.28995144 -0.37984687
v 0.85276711 0.26993075 -0.00210455
v 1.00664628 0.01005435 -0.00210455
v 1.00174570 -0.00996634 -0.07003531
v 0.99984670 -0.03548290 -0.07872542
v 1.00006104 -0.02213578 -0.08053740
v 1.00027549 -0.00996634 -0.08194260
v 1.00119436 0.05009572 -0.08826604
v 1.00058174 0.01005435 -0.08416136
v 1.00088811 0.03007504 -0.08626917
v 1.00637066 0.00210495 -0.00210455
v 1.00594187 -0.00996634 -0.01001810
v 1.00520670 -0.00996634 -0.03002383
v 1.00309336 -0.02998702 -0.05002958
v 1.00012231 -0.08327740 -0.06116031
v 1.00036740 -0.06993027 -0.06334208
v 1.00073493 -0.04990958 -0.06652229
v 1.00125563 0.06972385 -0.09170511
v 0.99990797 0.06285401 -0.09950772
v 0.99764144 0.05009572 -0.11000980
v 0.99362904 0.05009572 -0.13001554
v 0.98952478 0.07001828 -0.15002128
v 0.98477733 0.09003896 -0.17002702
v 0.98073435 0.07001828 -0.18245202
v 0.98097932 0.09003896 -0.18330254
v 0.97791648 0.09003896 -0.19328693
v 0.97816151 0.11005966 -0.19406348
v 0.96695137 0.15000290 -0.22997028
v 0.97255641 0.09003896 -0.20996453
v 0.96612436 0.11005966 -0.22997028
v 0.96655315 0.13008034 -0.22997028
v 0.96146882 0.13008034 -0.24383746
v 0.96165258 0.15000290 -0.24431819
v 0.95757896 0.13008034 -0.25382185
v 0.95105499 0.13008034 -0.26998174
v 0.92449981 0.15000290 -0.32900053
v 0.93289208 0.11005966 -0.30999321
v 0.92407101 0.11005966 -0.32818699
v 0.95062619 0.11005966 -0.26998174
v 0.94299960 0.09003896 -0.28680727
v 0.93855846 0.09003896 -0.29679164
v 0.93240201 0.09003896 -0.30999321
v 0.91929293 0.13008034 -0.33861512
v 0.90394789 0.13008034 -0.36683023
v 0.91279960 0.11005966 -0.34996772
v 0.89678073 0.15412480 -0.37984687
v 0.89812839 0.13008034 -0.37685156
v 0.89629066 0.13008034 -0.37984687
v 0.70902610 0.27895969 -0.37984687
v 0.70878106 0.26993075 -0.37984687
v 0.85246086 0.25785944 -0.00210455
v 0.99957103 -0.04990958 -0.07654364
v 0.99693698 -0.06993027 -0.09000407
v 0.99767208 -0.04990958 -0.09000407
v 0.99865216 -0.02930005 -0.08834001
v 0.99877471 -0.00996634 -0.09192698
v 0.99911159 0.01005435 -0.09414574
v 0.99972415 0.05009572 -0.09825043
v 0.99941790 0.03007504 -0.09625355
v 1.00566614 -0.01791573 -0.00210455
v 1.00523734 -0.02998702 -0.00210455
v 1.00520670 -0.02998702 -0.01001810
v 1.00447166 -0.02998702 -0.03002383
v 1.00162315 -0.06993027 -0.05002958
v 0.99920350 -0.06993027 -0.07336344
v 0.99984670 -0.09662452 -0.05849780
v 0.99638563 -0.14991489 -0.07003531
v 0.99721265 -0.12999234 -0.07003531
v 0.99800897 -0.10997164 -0.07003531
v 0.99705946 0.03007504 -0.11000980
v 0.99304712 0.03007504 -0.13001554
v 0.98897350 0.05009572 -0.15002128
v 0.98425663 0.07001828 -0.17002702
v 0.97767144 0.07001828 -0.19239943
v 0.98370528 0.05009572 -0.17002702
v 0.98015237 0.03007504 -0.18056609
v 0.97708946 0.03007504 -0.19055046
v 0.97200513 0.07001828 -0.20996453
v 0.96508300 0.07001828 -0.22997028
v 0.96100938 0.09003896 -0.24261715
v 0.96125436 0.11005966 -0.24324580
v 0.95736456 0.11005966 -0.25326717
v 0.92382598 0.09003896 -0.32770625
v 0.91907853 0.11005966 -0.33817136
v 0.95013613 0.09003896 -0.26998174
v 0.94961542 0.07001828 -0.26998174
v 0.94272399 0.07001828 -0.28621560
v 0.93828279 0.07001828 -0.29619998
v 0.93188137 0.07001828 -0.30999321
v 0.92358094 0.07001828 -0.32718855
v 0.90370286 0.11005966 -0.36646044
v 0.89791399 0.11005966 -0.37648177
v 0.91230953 0.09003896 -0.34996772
v 0.90321279 0.07001828 -0.36560991
v 0.90345782 0.09003896 -0.36605364
v 0.89583123 0.11005966 -0.37984687
v 0.70835227 0.24991006 -0.37984687
v 0.83987242 -0.32146469 -0.00210455
v 0.85200143 0.23783876 -0.00210455
v 0.85227704 0.24991006 -0.00210455
v 0.99454790 -0.12999234 -0.09000407
v 0.99286330 -0.08995095 -0.11000980
v 0.99362904 -0.06993027 -0.11000980
v 0.99509925 -0.02998702 -0.11000980
v 0.99577308 -0.00996634 -0.11000980
v 1.00450230 -0.04990958 -0.00210455
v 1.00447166 -0.04990958 -0.01001810
v 1.00373650 -0.04990958 -0.03002383
v 1.00045931 -0.10997164 -0.04540718
v 0.99960166 -0.10997164 -0.05542853
v 0.99369031 -0.14991489 -0.09000407
v 0.99840713 -0.14991489 -0.05002958
v 0.99751890 -0.16993558 -0.05002958
v 0.99546677 -0.16993558 -0.07003531
v 0.99243450 0.01005435 -0.13001554
v 0.98839152 0.03007504 -0.15002128
v 0.97084123 0.03007504 -0.20996453
v 0.98309273 0.03007504 -0.17002702
v 0.98211265 0.01182088 -0.17158014
v 0.97999924 0.01977026 -0.18004838
v 0.97730386 0.01182088 -0.18803588
v 0.97598684 -0.00996634 -0.19003275
v 0.97022861 0.01005435 -0.20996453
v 0.96073371 0.07001828 -0.24191454
v 0.96450102 0.05009572 -0.22997028
v 0.96015173 0.03007504 -0.24039841
v 0.95711952 0.09003896 -0.25260153
v 0.91883349 0.09003896 -0.33769062
v 0.95684385 0.07001828 -0.25189891
v 0.94848216 0.03007504 -0.26998174
v 0.94217265 0.03007504 -0.28495830
v 0.93773144 0.03007504 -0.29494268
v 0.93133003 0.05009572 -0.30999321
v 0.91855782 0.07001828 -0.33717293
v 0.92299902 0.03007504 -0.32604218
v 0.91828215 0.05009572 -0.33661824
v 0.89766896 0.09003896 -0.37607503
v 0.89534116 0.09003896 -0.37984687
v 0.91178882 0.07001828 -0.34996772
v 0.89742392 0.07001828 -0.37559429
v 0.90293711 0.05009572 -0.36512917
v 0.89687264 0.03007504 -0.37463284
v 0.70798469 0.22998750 -0.37984687
v 0.69796908 -0.32156286 -0.37984687
v 0.83987242 -0.32156286 -0.00210455
v 0.99124002 -0.12999234 -0.11000980
v 0.99206698 -0.10997164 -0.11000980
v 0.98967791 -0.06993027 -0.13001554
v 0.99041301 -0.04990958 -0.13001554
v 0.99111748 -0.02998702 -0.13001554
v 0.99179131 -0.00996634 -0.13001554
v 1.00297081 -0.08995095 -0.00210455
v 1.00294018 -0.08995095 -0.01001810
v 1.00220513 -0.08995095 -0.03002383
v 1.00015295 -0.12430018 -0.04207905
v 0.99929535 -0.13058117 -0.04925302
v 0.99038243 -0.14991489 -0.11000980
v 0.99277145 -0.16993558 -0.09000407
v 0.99987733 -0.13754916 -0.03819624
v 0.99889719 -0.16993558 -0.03002383
v 0.99653876 -0.18995625 -0.05002958
v 0.99445605 -0.18995625 -0.07003531
v 0.98777896 0.01005435 -0.15002128
v 0.96312273 -0.00996634 -0.22871298
v 0.98229641 -0.00996634 -0.16832598
v 0.97978485 0.00642315 -0.17930879
v 0.96958542 -0.00996634 -0.20996453
v 0.97531301 -0.02998702 -0.19003275
v 0.95629251 0.03007504 -0.25038278
v 0.95656818 0.05009572 -0.25115934
v 0.96275520 0.01191902 -0.23163433
v 0.95999861 0.01986842 -0.23999164
v 0.94786960 0.01005435 -0.26998174
v 0.94156003 -0.00996634 -0.28355309
v 0.93742520 0.01005435 -0.29427707
v 0.93013549 0.01005435 -0.30999321
v 0.93074811 0.03007504 -0.30999321
v 0.91065562 0.03007504 -0.34996772
v 0.92269272 0.01005435 -0.32545051
v 0.91770023 0.01005435 -0.33543491
v 0.89482051 0.07001828 -0.37984687
v 0.90263081 0.03007504 -0.36464846
v 0.89656633 0.01005435 -0.37411511
v 0.89304399 0.01005435 -0.37984687
v 0.89387101 0.03684674 -0.37984687
v 0.87132818 -0.32156286 -0.37984687
v 0.98667634 -0.32156286 -0.00210455
v 0.98725826 -0.12999234 -0.13001554
v 0.98888159 -0.08995095 -0.13001554
v 0.98502237 -0.06993027 -0.15002128
v 0.98575747 -0.04990958 -0.15002128
v 0.98646188 -0.02998702 -0.15002128
v 0.98713577 -0.00996634 -0.15002128
v 1.00266457 -0.09790036 -0.00210455
v 1.00140882 -0.12999234 -0.00210455
v 1.00134754 -0.12999234 -0.01001810
v 0.99993861 -0.15923825 -0.01856029
v 1.00024486 -0.14589113 -0.02488373
v 1.00055122 -0.13058117 -0.03091134
v 0.98637003 -0.14991489 -0.13001554
v 0.98946357 -0.16993558 -0.11000980
v 0.99176067 -0.18995625 -0.09000407
v 0.99791706 -0.18995625 -0.03002383
v 0.99684507 -0.20997694 -0.03002383
v 0.99543613 -0.20997694 -0.05002958
v 0.99338400 -0.20997694 -0.07003531
v 0.96278584 -0.02998702 -0.22778849
v 0.95920229 -0.02998702 -0.23780985
v 0.95978421 0.00652128 -0.23943694
v 0.97950917 -0.00996634 -0.17834733
v 0.98195946 -0.02998702 -0.16714264
v 0.97463918 -0.04990958 -0.19003275
v 0.96891159 -0.02998702 -0.20996453
v 0.96244889 -0.04990958 -0.22686401
v 0.95666009 0.01191902 -0.24797913
v 0.95518988 -0.00996634 -0.24997601
v 0.94658321 -0.02998702 -0.26998174
v 0.93711889 -0.00996634 -0.29353750
v 0.94122314 -0.02998702 -0.28281352
v 0.92884910 -0.02998702 -0.30999321
v 0.92238641 -0.00996634 -0.32478487
v 0.91004300 0.01005435 -0.34996772
v 0.90232456 0.01005435 -0.36413074
v 0.91736329 -0.00996634 -0.33480626
v 0.90939981 -0.00996634 -0.34996772
v 0.89264584 -0.00231136 -0.37984687
v 0.90201825 -0.00996634 -0.36353907
v 0.89622939 -0.00996634 -0.37356043
v 0.87151194 -0.32156286 -0.37958804
v 0.87325782 -0.31008041 -0.37984687
v 0.98725826 -0.31793165 -0.00210455
v 0.98670697 -0.32156286 -0.00543268
v 0.98211265 -0.14991489 -0.14861608
v 0.98342967 -0.10997164 -0.15002128
v 0.98085684 -0.08995095 -0.16322285
v 0.98125499 -0.06993027 -0.16459107
v 0.98018301 -0.12459460 -0.16070826
v 0.98162258 -0.04990958 -0.16592233
v 1.00009179 -0.16237876 -0.00210455
v 1.00009179 -0.16237876 -0.00524779
v 1.00042868 -0.15148515 -0.01116446
v 0.99963230 -0.16944486 -0.01116446
v 0.99865216 -0.18995625 -0.01001810
v 0.98545116 -0.16993558 -0.13001554
v 0.98845279 -0.18995625 -0.11000980
v 0.99068868 -0.20997694 -0.09000407
v 0.99758017 -0.20997694 -0.01001810
v 0.99561989 -0.22999763 -0.03002383
v 0.99421102 -0.22999763 -0.05002958
v 0.99215889 -0.22999763 -0.07003531
v 0.95886534 -0.04990958 -0.23688537
v 0.95387286 -0.04990958 -0.24997601
v 0.95454669 -0.02998702 -0.24997601
v 0.97917223 -0.02998702 -0.17712702
v 0.97883534 -0.04990958 -0.17590670
v 0.97316897 -0.08995095 -0.19003275
v 0.96753329 -0.06993027 -0.20996453
v 0.96823776 -0.04990958 -0.20996453
v 0.96211201 -0.06993027 -0.22586557
v 0.94590938 -0.04990958 -0.26998174
v 0.94088626 -0.04990958 -0.28203696
v 0.93678194 -0.02998702 -0.29279789
v 0.93644506 -0.04990958 -0.29202133
v 0.92744017 -0.06993027 -0.30999321
v 0.92134506 -0.06993027 -0.32271406
v 0.92171258 -0.04990958 -0.32341665
v 0.92204952 -0.02998702 -0.32411927
v 0.91702640 -0.02998702 -0.33414063
v 0.90872598 -0.02998702 -0.34996772
v 0.90168136 -0.02998702 -0.36294740
v 0.89169633 -0.02998702 -0.37984687
v 0.89589250 -0.02998702 -0.37296876
v 0.87567747 -0.32156286 -0.37304270
v 0.87423790 -0.30311242 -0.37984687
v 0.87662697 -0.30998227 -0.37455887
v 0.98848343 -0.30998227 -0.00210455
v 0.98670697 -0.32156286 -0.01001810
v 0.97963166 -0.14991489 -0.15860045
v 0.97990733 -0.13794172 -0.15967284
v 0.98214322 -0.13077745 -0.15183327
v 0.98162258 -0.16993558 -0.14673012
v 0.97917223 -0.16993558 -0.15671451
v 0.97810024 -0.08995095 -0.17320722
v 0.97770208 -0.10997164 -0.17180201
v 0.97846776 -0.06993027 -0.17461243
v 0.97779393 -0.13077745 -0.16843691
v 0.99868280 -0.18995625 -0.00210455
v 0.98444039 -0.18995625 -0.13001554
v 0.98113251 -0.18995625 -0.14465930
v 0.98735011 -0.20997694 -0.11000980
v 0.98946357 -0.22999763 -0.09000407
v 0.99761081 -0.20997694 -0.00210455
v 0.99632442 -0.22999763 -0.01001810
v 0.99414974 -0.24992019 -0.03002383
v 0.99277145 -0.24992019 -0.05002958
v 0.99071932 -0.24992019 -0.07003531
v 0.95849782 -0.06993027 -0.23588693
v 0.95316839 -0.06993027 -0.24997601
v 0.97157633 -0.12999234 -0.19003275
v 0.96600187 -0.10997164 -0.20996453
v 0.96171379 -0.08995095 -0.22483017
v 0.95813024 -0.08995095 -0.23481454
v 0.94517428 -0.06993027 -0.26998174
v 0.94051868 -0.06993027 -0.28122342
v 0.93607748 -0.06993027 -0.29120779
v 0.92584747 -0.10997164 -0.30999321
v 0.92094684 -0.08995095 -0.32193750
v 0.91632193 -0.06993027 -0.33269843
v 0.91668946 -0.04990958 -0.33343804
v 0.90802151 -0.04990958 -0.34996772
v 0.90131378 -0.04990958 -0.36231875
v 0.89552498 -0.04990958 -0.37234011
v 0.89053243 -0.06041062 -0.37984687
v 0.87926108 -0.32156286 -0.36723697
v 0.87607563 -0.28996158 -0.37984687
v 0.88275272 -0.30998227 -0.36457449
v 0.87800527 -0.28996158 -0.37677762
v 0.98848343 -0.30998227 -0.01001810
v 0.99102557 -0.28996158 -0.00210455
v 0.98600245 -0.32156286 -0.03002383
v 0.98780954 -0.30998227 -0.03002383
v 0.97653818 -0.14991489 -0.17002702
v 0.97558868 -0.16993558 -0.17002702
v 0.97868216 -0.18995625 -0.15468065
v 0.97457790 -0.18995625 -0.17002702
v 0.98333776 -0.20997694 -0.13001554
v 0.98058116 -0.20997694 -0.14240357
v 0.98612499 -0.22999763 -0.11000980
v 0.98802400 -0.24992019 -0.09000407
v 0.99635500 -0.22999763 -0.00210455
v 0.99485421 -0.24992019 -0.01001810
v 0.99243450 -0.26994088 -0.03002383
v 0.99105620 -0.26994088 -0.05002958
v 0.98900414 -0.26994088 -0.07003531
v 0.95157570 -0.10997164 -0.24997601
v 0.94385719 -0.10997164 -0.26935309
v 0.94355094 -0.09142306 -0.27194163
v 0.97071868 -0.14991489 -0.19003275
v 0.96517491 -0.12999234 -0.20996453
v 0.96091747 -0.12999234 -0.22257444
v 0.96131563 -0.10997164 -0.22372079
v 0.95730329 -0.12999234 -0.23259579
v 0.95074868 -0.12999234 -0.24997601
v 0.94021237 -0.08573091 -0.28052080
v 0.93653691 -0.09142306 -0.28828645
v 0.93500549 -0.10997164 -0.28998747
v 0.93417853 -0.12999234 -0.28998747
v 0.92443854 -0.14991489 -0.30936456
v 0.92404038 -0.13126817 -0.31191614
v 0.92021179 -0.12557602 -0.32045832
v 0.92054868 -0.10997164 -0.32108697
v 0.91592371 -0.08995095 -0.33192188
v 0.90725577 -0.06993027 -0.34996772
v 0.90645945 -0.08995095 -0.34996772
v 0.90091562 -0.06993027 -0.36165315
v 0.89512676 -0.06993027 -0.37163752
v 0.88930732 -0.08995095 -0.37984687
v 0.88183385 -0.32156286 -0.36302137
v 0.87843406 -0.26994088 -0.37984687
v 0.89111441 -0.30998227 -0.34996772
v 0.88410038 -0.28996158 -0.36679325
v 0.89491236 -0.28898016 -0.34819269
v 0.87916917 -0.26994088 -0.37866354
v 0.99102557 -0.28996158 -0.01001810
v 0.99313897 -0.26994088 -0.00210455
v 0.98545116 -0.32156286 -0.03845508
v 0.98465478 -0.32156286 -0.05002958
v 0.98643130 -0.30998227 -0.05002958
v 0.99035180 -0.28996158 -0.03002383
v 0.96979982 -0.16993558 -0.19003275
v 0.97813088 -0.20997694 -0.15242493
v 0.97350591 -0.20997694 -0.17002702
v 0.96878910 -0.18995625 -0.19003275
v 0.98183697 -0.22980136 -0.13138378
v 0.98018301 -0.22302964 -0.14085044
v 0.98468542 -0.24992019 -0.11000980
v 0.98140812 -0.24992019 -0.12665044
v 0.98630875 -0.26994088 -0.09000407
v 0.98300087 -0.26994088 -0.11000980
v 0.99488485 -0.24992019 -0.00210455
v 0.99313897 -0.26994088 -0.01001810
v 0.98897350 -0.28996158 -0.05002958
v 0.98692131 -0.28996158 -0.07003531
v 0.98425663 -0.28996158 -0.09000407
v 0.94342840 -0.12999234 -0.26835465
v 0.93932414 -0.12999234 -0.27837601
v 0.93972236 -0.10997164 -0.27937445
v 0.96431726 -0.14991489 -0.20996453
v 0.96281648 -0.17032814 -0.21173954
v 0.96018237 -0.16394898 -0.22050360
v 0.96048868 -0.14991489 -0.22139110
v 0.95687449 -0.14991489 -0.23137549
v 0.94989109 -0.14991489 -0.24997601
v 0.94299960 -0.14991489 -0.26731923
v 0.93332088 -0.14991489 -0.28998747
v 0.91969109 -0.14991489 -0.31934893
v 0.91993612 -0.13882500 -0.31986666
v 0.92394847 -0.16993558 -0.30836612
v 0.91549492 -0.10997164 -0.33110833
v 0.91433102 -0.14991489 -0.32999897
v 0.90508115 -0.12999234 -0.34937605
v 0.90021116 -0.10496646 -0.36035886
v 0.90051746 -0.08995095 -0.36091354
v 0.89469796 -0.08995095 -0.37093490
v 0.88753080 -0.12999234 -0.37984687
v 0.88927668 -0.32156286 -0.34996772
v 0.87968987 -0.25747702 -0.37984687
v 0.89938420 -0.29496673 -0.33880001
v 0.89834279 -0.30998227 -0.33687708
v 0.88520306 -0.26994088 -0.36864221
v 0.89521867 -0.26994088 -0.35140991
v 0.90018052 -0.28161961 -0.34035313
v 0.98269457 -0.32156286 -0.06970250
v 0.98440981 -0.30998227 -0.07003531
v 0.96287775 -0.18995625 -0.20863327
v 0.97788584 -0.22980136 -0.14850514
v 0.97231138 -0.22999763 -0.17002702
v 0.96771705 -0.20997694 -0.19003275
v 0.96232641 -0.20997694 -0.20704317
v 0.97975421 -0.23637679 -0.13896450
v 0.98058116 -0.26994088 -0.12280460
v 0.97926414 -0.24992019 -0.13667180
v 0.98116314 -0.28848946 -0.10986189
v 0.98009109 -0.28083450 -0.12047491
v 0.98162258 -0.31037483 -0.09059574
v 0.98051989 -0.30399567 -0.10309470
v 0.93886471 -0.14991489 -0.27730364
v 0.95953918 -0.18995625 -0.21865463
v 0.95984548 -0.17729613 -0.21961610
v 0.95705825 -0.17032814 -0.22830620
v 0.94897223 -0.16993558 -0.24997601
v 0.94254017 -0.16993558 -0.26620987
v 0.93840528 -0.16993558 -0.27619424
v 0.93237144 -0.16993558 -0.28998747
v 0.91920102 -0.16993558 -0.31835049
v 0.91338158 -0.16993558 -0.32999897
v 0.92345846 -0.18995625 -0.30733073
v 0.90462172 -0.14991489 -0.34852552
v 0.89965987 -0.12999234 -0.35939741
v 0.89347279 -0.12999234 -0.36997345
v 0.88658136 -0.14991489 -0.37984687
v 0.89745456 -0.32156286 -0.33513907
v 0.88076186 -0.24481687 -0.37984687
v 0.88511115 -0.25060716 -0.37178543
v 0.87978172 -0.25767329 -0.37966198
v 0.90351909 -0.30998227 -0.32689270
v 0.90397853 -0.28898016 -0.33129323
v 0.90045619 -0.32156286 -0.32937032
v 0.89613754 -0.24992019 -0.35307395
v 0.90076250 -0.26994088 -0.34142554
v 0.90670449 -0.26994088 -0.32999897
v 0.98076493 -0.32156286 -0.08530771
v 0.97610939 -0.24992019 -0.15002128
v 0.96652257 -0.22999763 -0.19003275
v 0.97093308 -0.24992019 -0.17002702
v 0.96174443 -0.22999763 -0.20526817
v 0.95898783 -0.20997694 -0.21702756
v 0.97843719 -0.26994088 -0.13278899
v 0.97445542 -0.26994088 -0.15002128
v 0.97932541 -0.29418162 -0.11640720
v 0.97754890 -0.28848946 -0.12827751
v 0.97963166 -0.31734282 -0.09762178
v 0.98027492 -0.32156286 -0.08885771
v 0.97846776 -0.31037483 -0.10986189
v 0.95439351 -0.20997694 -0.22997028
v 0.95546556 -0.18995625 -0.22997028
v 0.94796151 -0.18995625 -0.24997601
v 0.94205010 -0.18995625 -0.26498955
v 0.93791521 -0.18995625 -0.27501091
v 0.93139130 -0.18995625 -0.28998747
v 0.91871095 -0.18995625 -0.31731510
v 0.91234016 -0.18995625 -0.32999897
v 0.90364158 -0.18995625 -0.34671354
v 0.90413165 -0.16993558 -0.34763801
v 0.92290711 -0.20997694 -0.30618435
v 0.89920044 -0.14991489 -0.35854688
v 0.89252335 -0.14991489 -0.36997345
v 0.88557059 -0.16993558 -0.37984687
v 0.88189512 -0.22999763 -0.37984687
v 0.88783711 -0.22999763 -0.36997345
v 0.91191137 -0.30998227 -0.30999321
v 0.90263081 -0.32156286 -0.32515466
v 0.91549492 -0.28888202 -0.30821821
v 0.91592371 -0.26994088 -0.31154633
v 0.89690328 -0.22999763 -0.35447919
v 0.90165073 -0.24992019 -0.34305263
v 0.90848094 -0.24992019 -0.32999897
v 0.96930975 -0.26994088 -0.17002702
v 0.96514428 -0.24992019 -0.19003275
v 0.96104002 -0.24992019 -0.20319735
v 0.95773208 -0.24992019 -0.21318172
v 0.95840591 -0.22999763 -0.21525255
v 0.95322967 -0.22999763 -0.22997028
v 0.97246456 -0.28996158 -0.15002128
v 0.97457790 -0.30998227 -0.13001554
v 0.97929478 -0.32156286 -0.09532907
v 0.97675258 -0.32156286 -0.10993585
v 0.97283208 -0.32156286 -0.13001554
v 0.94692010 -0.20997694 -0.24997601
v 0.94149882 -0.20997694 -0.26369530
v 0.93736392 -0.20997694 -0.27371663
v 0.93028867 -0.20997694 -0.28998747
v 0.91815966 -0.20997694 -0.31616873
v 0.91123754 -0.20997694 -0.32999897
v 0.89815903 -0.18995625 -0.35669792
v 0.89867973 -0.16993558 -0.35765940
v 0.90305966 -0.20997694 -0.34564114
v 0.89757711 -0.20997694 -0.35566252
v 0.92909414 -0.22999763 -0.28998747
v 0.92229456 -0.22999763 -0.30485311
v 0.89151257 -0.16993558 -0.36997345
v 0.88523364 -0.17631471 -0.37984687
v 0.88327342 -0.20997694 -0.37984687
v 0.88921541 -0.20997694 -0.36997345
v 0.91938478 -0.29486859 -0.29864061
v 0.91834342 -0.30998227 -0.29642186
v 0.91010427 -0.32156286 -0.30999321
v 0.92018116 -0.28152147 -0.30037862
v 0.91678137 -0.24992019 -0.31335831
v 0.92073250 -0.26994088 -0.30152500
v 0.90241641 -0.22999763 -0.34445781
v 0.90998173 -0.22999763 -0.32999897
v 0.96731889 -0.28996158 -0.17002702
v 0.96229577 -0.28996158 -0.18762910
v 0.96287775 -0.27111858 -0.19173379
v 0.96045804 -0.26523012 -0.20138536
v 0.95745641 -0.27111858 -0.20881818
v 0.95022804 -0.26994088 -0.22997028
v 0.95185137 -0.24992019 -0.22997028
v 0.94572556 -0.22999763 -0.24997601
v 0.97004485 -0.30998227 -0.15002128
v 0.96492982 -0.30998227 -0.17002702
v 0.96832967 -0.32156286 -0.15002128
v 0.94091684 -0.22999763 -0.26225311
v 0.93675137 -0.22999763 -0.27223748
v 0.91751647 -0.22999763 -0.31487447
v 0.89040995 -0.18995625 -0.36997345
v 0.92765456 -0.24992019 -0.28998747
v 0.92159009 -0.24992019 -0.30333698
v 0.88416165 -0.19545212 -0.37984687
v 0.92287648 -0.30998227 -0.28640050
v 0.92342782 -0.28888202 -0.29117081
v 0.92008924 -0.32156286 -0.28865623
v 0.91745520 -0.32156286 -0.29442498
v 0.92593938 -0.26994088 -0.28998747
v 0.96107060 -0.30998227 -0.18367234
v 0.95926350 -0.28996158 -0.19757651
v 0.95984548 -0.27857727 -0.19957338
v 0.95518988 -0.28996158 -0.20996453
v 0.94823712 -0.28996158 -0.22997028
v 0.94229513 -0.28996158 -0.24587132
v 0.94330591 -0.26994088 -0.24845986
v 0.94352031 -0.25119603 -0.25182498
v 0.94039619 -0.24540573 -0.26095882
v 0.96315336 -0.32156286 -0.17013796
v 0.96030492 -0.32156286 -0.18104681
v 0.93678194 -0.25119603 -0.26857653
v 0.93460733 -0.26994088 -0.26998174
v 0.93252456 -0.28996158 -0.26998174
v 0.92998236 -0.30998227 -0.26998174
v 0.92198825 -0.32156286 -0.28444061
v 0.95803839 -0.30998227 -0.19361973
v 0.95277023 -0.30998227 -0.20996453
v 0.94578683 -0.30998227 -0.22997028
v 0.94107002 -0.30998227 -0.24272808
v 0.93834406 -0.28996158 -0.25585568
v 0.93938541 -0.26994088 -0.25844425
v 0.93987548 -0.25875285 -0.25973850
v 0.95727265 -0.32156286 -0.19058745
v 0.93708825 -0.30998227 -0.25271246
v 0.92820591 -0.32156286 -0.26998174
v 0.95102435 -0.32156286 -0.20996453
v 0.94808400 -0.32156286 -0.21843277
v 0.94391847 -0.32156286 -0.23037705
v 0.94024301 -0.32156286 -0.24069422
v 0.93638378 -0.32156286 -0.25008693
f 1 2 3
f 1 3 4
f 1 4 19
f 1 19 33
f 1 33 54
f 1 54 74
f 1 74 98
f 1 98 120
f 1 120 140
f 1 140 167
f 1 167 196
f 1 196 227
f 1 227 262
f 1 262 265
f 1 265 264
f 1 264 296
f 1 296 334
f 1 334 369
f 1 369 405
f 1 405 448
f 1 448 482
f 1 482 484
f 1 484 483
f 1 483 521
f 1 521 560
f 1 560 602
f 1 602 644
f 1 644 646
f 1 646 691
f 1 691 690
f 1 690 730
f 1 730 779
f 1 779 828
f 1 828 827
f 1 827 826
f 1 826 873
f 1 873 915
f 1 915 959
f 1 959 1004
f 1 1004 1047
f 1 1047 1093
f 1 1093 1108
f 1 1108 1058
f 1 1058 1020
f 1 1020 1015
f 1 1015 967
f 1 967 923
f 1 923 922
f 1 922 880
f 1 880 834
f 1 834 789
f 1 789 788
f 1 788 739
f 1 739 731
f 1 731 692
f 1 692 647
f 1 647 605
f 1 605 604
f 1 604 562
f 1 562 523
f 1 523 486
f 1 486 450
f 1 450 410
f 1 410 409
f 1 409 408
f 1 408 370
f 1 370 335
f 1 335 299
f 1 299 298
f 1 298 267
f 1 267 231
f 1 231 200
f 1 200 172
f 1 172 145
f 1 145 144
f 1 144 143
f 1 143 123
f 1 123 103
f 1 103 102
f 1 102 80
f 1 80 75
f 1 75 55
f 1 55 34
f 1 34 20
f 1 20 5
f 1 5 2
f 2 6 7
f 2 7 3
f 2 5 8
f 2 8 9
f 2 9 6
f 3 7 10
f 3 10 11
f 3 11 12
f 3 12 13
f 3 13 14
f 3 14 15
f 3 15 16
f 3 16 4
f 4 16 17
f 4 17 18
f 4 18 19
f 5 20 8
f 6 10 7
f 6 9 21
f 6 21 10
f 8 20 9
f 9 20 22
f 9 22 23
f 9 23 21
f 10 21 11
f 11 24 12
f 11 21 25
f 11 25 24
f 12 24 26
f 12 26 13
f 13 27 14
f 13 26 27
f 14 27 28
f 14 28 29
f 14 29 15
f 15 29 30
f 15 30 31
f 15 31 16
f 16 31 30
f 16 30 52
f 16 52 70
f 16 70 95
f 16 95 116
f 16 116 137
f 16 137 162
f 16 162 165
f 16 165 194
f 16 194 193
f 16 193 226
f 16 226 261
f 16 261 260
f 16 260 294
f 16 294 328
f 16 328 361
f 16 361 397
f 16 397 399
f 16 399 443
f 16 443 442
f 16 442 478
f 16 478 517
f 16 517 557
f 16 557 601
f 16 601 643
f 16 643 685
f 16 685 684
f 16 684 686
f 16 686 687
f 16 687 727
f 16 727 774
f 16 774 776
f 16 776 824
f 16 824 866
f 16 866 909
f 16 909 913
f 16 913 912
f 16 912 954
f 16 954 999
f 16 999 1041
f 16 1041 1085
f 16 1085 1133
f 16 1133 1169
f 16 1169 1206
f 16 1206 1240
f 16 1240 1268
f 16 1268 1241
f 16 1241 1207
f 16 1207 1171
f 16 1171 1135
f 16 1135 1087
f 16 1087 1043
f 16 1043 1002
f 16 1002 958
f 16 958 914
f 16 914 872
f 16 872 871
f 16 871 825
f 16 825 778
f 16 778 777
f 16 777 729
f 16 729 689
f 16 689 645
f 16 645 603
f 16 603 561
f 16 561 522
f 16 522 485
f 16 485 449
f 16 449 407
f 16 407 406
f 16 406 404
f 16 404 368
f 16 368 367
f 16 367 333
f 16 333 332
f 16 332 295
f 16 295 263
f 16 263 228
f 16 228 195
f 16 195 166
f 16 166 139
f 16 139 119
f 16 119 118
f 16 118 117
f 16 117 97
f 16 97 96
f 16 96 72
f 16 72 71
f 16 71 53
f 16 53 32
f 16 32 18
f 16 18 17
f 18 32 19
f 19 32 33
f 20 34 22
f 21 35 36
f 21 36 25
f 21 23 22
f 21 22 37
f 21 37 38
f 21 38 39
f 21 39 40
f 21 40 35
f 22 34 55
f 22 55 41
f 22 41 37
f 24 25 42
f 24 42 26
f 25 36 35
f 25 35 43
f 25 43 44
f 25 44 42
f 26 42 45
f 26 45 46
f 26 46 47
f 26 47 48
f 26 48 27
f 27 48 49
f 27 49 50
f 27 50 51
f 27 51 28
f 28 51 29
f 29 51 52
f 29 52 30
f 32 53 33
f 33 53 54
f 35 40 56
f 35 56 43
f 37 41 57
f 37 57 38
f 38 57 39
f 39 57 58
f 39 58 59
f 39 59 56
f 39 56 40
f 41 55 75
f 41 75 60
f 41 60 57
f 42 44 45
f 43 56 61
f 43 61 62
f 43 62 44
f 44 62 63
f 44 63 45
f 45 63 64
f 45 64 46
f 46 64 47
f 47 64 65
f 47 65 66
f 47 66 49
f 47 49 48
f 49 66 67
f 49 67 50
f 50 67 68
f 50 68 51
f 51 68 69
f 51 69 70
f 51 70 52
f 53 71 54
f 54 71 72
f 54 72 73
f 54 73 74
f 56 59 76
f 56 76 77
f 56 77 61
f 57 60 78
f 57 78 58
f 58 78 59
f 59 78 79
f 59 79 76
f 60 75 80
f 60 80 81
f 60 81 82
f 60 82 78
f 61 83 62
f 61 77 84
f 61 84 85
f 61 85 86
f 61 86 83
f 62 83 64
f 62 64 63
f 64 83 65
f 65 87 66
f 65 83 88
f 65 88 89
f 65 89 87
f 66 87 90
f 66 90 91
f 66 91 67
f 67 91 92
f 67 92 93
f 67 93 94
f 67 94 68
f 68 95 69
f 68 94 95
f 69 95 70
f 72 96 73
f 73 96 97
f 73 97 74
f 74 97 98
f 76 79 99
f 76 99 77
f 77 99 84
f 78 82 100
f 78 100 79
f 79 100 101
f 79 101 99
f 80 102 81
f 81 102 103
f 81 103 104
f 81 104 82
f 82 104 105
f 82 105 100
f 83 86 106
f 83 106 88
f 84 107 86
f 84 86 85
f 84 99 108
f 84 108 109
f 84 109 107
f 86 107 106
f 87 89 90
f 88 106 110
f 88 110 89
f 89 110 111
f 89 111 112
f 89 112 90
f 90 112 113
f 90 113 92
f 90 92 91
f 92 113 114
f 92 114 115
f 92 115 93
f 93 116 94
f 93 115 116
f 94 116 95
f 97 117 98
f 98 117 118
f 98 118 119
f 98 119 120
f 99 101 121
f 99 121 108
f 100 105 122
f 100 122 101
f 101 122 121
f 103 123 104
f 104 123 143
f 104 143 124
f 104 124 125
f 104 125 105
f 105 125 126
f 105 126 122
f 106 107 110
f 107 109 127
f 107 127 128
f 107 128 129
f 107 129 110
f 108 121 109
f 109 121 127
f 110 129 111
f 111 129 130
f 111 130 131
f 111 131 132
f 111 132 133
f 111 133 134
f 111 134 135
f 111 135 112
f 112 135 113
f 113 135 136
f 113 136 114
f 114 137 115
f 114 136 138
f 114 138 137
f 115 137 116
f 119 139 140
f 119 140 120
f 121 122 141
f 121 141 142
f 121 142 127
f 122 126 148
f 122 148 141
f 124 143 144
f 124 144 145
f 124 145 146
f 124 146 147
f 124 147 125
f 125 147 126
f 126 147 149
f 126 149 150
f 126 150 148
f 127 142 151
f 127 151 128
f 128 151 129
f 129 151 130
f 130 151 152
f 130 152 131
f 131 152 132
f 132 152 133
f 133 152 153
f 133 153 134
f 134 153 154
f 134 154 135
f 135 154 155
f 135 155 156
f 135 156 157
f 135 157 136
f 136 157 156
f 136 156 158
f 136 158 159
f 136 159 160
f 136 160 161
f 136 161 138
f 137 138 162
f 138 161 163
f 138 163 164
f 138 164 165
f 138 165 162
f 139 166 140
f 140 166 167
f 141 168 142
f 141 148 169
f 141 169 168
f 142 168 169
f 142 169 170
f 142 170 171
f 142 171 151
f 145 172 146
f 146 172 173
f 146 173 147
f 147 173 174
f 147 174 203
f 147 203 175
f 147 175 149
f 148 176 169
f 148 150 176
f 149 175 177
f 149 177 150
f 150 177 178
f 150 178 179
f 150 179 176
f 151 171 152
f 152 171 180
f 152 180 181
f 152 181 182
f 152 182 183
f 152 183 184
f 152 184 153
f 153 156 155
f 153 155 154
f 153 184 185
f 153 185 186
f 153 186 187
f 153 187 188
f 153 188 189
f 153 189 156
f 156 189 159
f 156 159 158
f 159 189 190
f 159 190 163
f 159 163 161
f 159 161 160
f 163 190 191
f 163 191 192
f 163 192 193
f 163 193 194
f 163 194 165
f 163 165 164
f 166 195 196
f 166 196 167
f 169 176 197
f 169 197 198
f 169 198 171
f 169 171 170
f 171 198 199
f 171 199 209
f 171 209 180
f 172 200 173
f 173 200 231
f 173 231 201
f 173 201 202
f 173 202 174
f 174 202 203
f 175 203 177
f 176 179 197
f 177 203 204
f 177 204 207
f 177 207 178
f 178 205 206
f 178 206 179
f 178 207 208
f 178 208 205
f 179 206 197
f 180 209 210
f 180 210 181
f 181 210 182
f 182 210 211
f 182 211 183
f 183 211 212
f 183 212 184
f 184 212 213
f 184 213 185
f 185 213 214
f 185 214 186
f 186 214 215
f 186 215 216
f 186 216 187
f 187 216 188
f 188 216 217
f 188 217 218
f 188 218 219
f 188 219 189
f 189 219 218
f 189 218 220
f 189 220 190
f 190 220 221
f 190 221 222
f 190 222 223
f 190 223 191
f 191 223 222
f 191 222 224
f 191 224 225
f 191 225 192
f 192 225 226
f 192 226 193
f 195 227 196
f 195 228 227
f 197 206 198
f 198 206 229
f 198 229 199
f 199 229 230
f 199 230 209
f 201 231 232
f 201 232 233
f 201 233 202
f 202 234 203
f 202 233 234
f 203 234 235
f 203 235 236
f 203 236 204
f 204 236 237
f 204 237 207
f 205 238 239
f 205 239 229
f 205 229 206
f 205 208 240
f 205 240 238
f 207 237 208
f 208 237 241
f 208 241 242
f 208 242 273
f 208 273 240
f 209 230 243
f 209 243 210
f 210 243 244
f 210 244 211
f 211 244 245
f 211 245 246
f 211 246 212
f 212 246 213
f 213 246 247
f 213 247 214
f 214 247 248
f 214 248 215
f 215 248 249
f 215 249 216
f 216 249 250
f 216 250 217
f 217 251 218
f 217 250 252
f 217 252 285
f 217 285 251
f 218 222 221
f 218 221 220
f 218 251 253
f 218 253 254
f 218 254 255
f 218 255 222
f 222 255 256
f 222 256 257
f 222 257 224
f 224 257 258
f 224 258 259
f 224 259 260
f 224 260 225
f 225 261 226
f 225 260 261
f 227 228 262
f 228 263 264
f 228 264 265
f 228 265 262
f 229 239 230
f 230 239 238
f 230 238 266
f 230 266 277
f 230 277 243
f 231 267 232
f 232 267 268
f 232 268 233
f 233 268 269
f 233 269 303
f 233 303 270
f 233 270 234
f 234 270 235
f 235 241 237
f 235 237 236
f 235 270 271
f 235 271 272
f 235 272 241
f 238 240 266
f 240 273 274
f 240 274 266
f 241 275 242
f 241 272 275
f 242 275 276
f 242 276 273
f 243 277 244
f 244 277 297
f 244 297 278
f 244 278 279
f 244 279 245
f 245 279 280
f 245 280 246
f 246 280 281
f 246 281 247
f 247 281 282
f 247 282 248
f 248 282 249
f 249 282 283
f 249 283 284
f 249 284 250
f 250 284 252
f 251 285 286
f 251 286 253
f 252 284 287
f 252 287 320
f 252 320 285
f 253 286 288
f 253 288 254
f 254 288 255
f 255 288 289
f 255 289 290
f 255 290 256
f 256 290 258
f 256 258 257
f 258 290 291
f 258 291 292
f 258 292 293
f 258 293 259
f 259 293 294
f 259 294 260
f 263 295 264
f 264 295 296
f 266 297 277
f 266 274 310
f 266 310 297
f 267 298 268
f 268 298 299
f 268 299 300
f 268 300 301
f 268 301 269
f 269 301 302
f 269 302 303
f 270 303 304
f 270 304 305
f 270 305 271
f 271 305 272
f 272 305 306
f 272 306 307
f 272 307 308
f 272 308 275
f 273 276 274
f 274 276 309
f 274 309 310
f 275 308 307
f 275 307 311
f 275 311 276
f 276 311 309
f 278 297 310
f 278 310 312
f 278 312 313
f 278 313 314
f 278 314 279
f 279 314 315
f 279 315 280
f 280 315 281
f 281 315 316
f 281 316 317
f 281 317 282
f 282 317 318
f 282 318 283
f 283 318 319
f 283 319 284
f 284 319 287
f 285 320 286
f 286 320 321
f 286 321 288
f 287 319 322
f 287 322 354
f 287 354 320
f 288 321 323
f 288 323 324
f 288 324 289
f 289 324 291
f 289 291 290
f 291 324 325
f 291 325 326
f 291 326 327
f 291 327 292
f 292 327 293
f 293 328 294
f 293 327 329
f 293 329 330
f 293 330 331
f 293 331 328
f 295 332 296
f 296 332 333
f 296 333 334
f 299 335 300
f 300 335 370
f 300 370 336
f 300 336 301
f 301 336 371
f 301 371 337
f 301 337 338
f 301 338 302
f 302 338 339
f 302 339 340
f 302 340 341
f 302 341 303
f 303 341 304
f 304 341 342
f 304 342 306
f 304 306 305
f 306 342 343
f 306 343 307
f 307 343 344
f 307 344 311
f 309 311 344
f 309 344 345
f 309 345 310
f 310 346 312
f 310 345 347
f 310 347 346
f 312 346 313
f 313 346 348
f 313 348 349
f 313 349 315
f 313 315 314
f 315 349 316
f 316 349 350
f 316 350 351
f 316 351 317
f 317 351 318
f 318 351 352
f 318 352 353
f 318 353 319
f 319 353 322
f 320 354 321
f 321 355 323
f 321 354 356
f 321 356 355
f 322 353 357
f 322 357 354
f 323 355 324
f 324 355 325
f 325 355 358
f 325 358 359
f 325 359 360
f 325 360 326
f 326 360 327
f 327 360 329
f 328 331 361
f 329 362 363
f 329 363 331
f 329 331 330
f 329 360 364
f 329 364 365
f 329 365 366
f 329 366 362
f 331 363 397
f 331 397 361
f 333 367 334
f 334 367 368
f 334 368 404
f 334 404 369
f 336 370 371
f 337 371 372
f 337 372 413
f 337 413 373
f 337 373 338
f 338 373 374
f 338 374 339
f 339 374 375
f 339 375 376
f 339 376 340
f 340 376 342
f 340 342 341
f 342 376 377
f 342 377 378
f 342 378 343
f 343 378 379
f 343 379 344
f 344 379 380
f 344 380 345
f 345 380 382
f 345 382 347
f 346 381 348
f 346 347 382
f 346 382 381
f 348 381 383
f 348 383 384
f 348 384 385
f 348 385 386
f 348 386 387
f 348 387 349
f 349 387 388
f 349 388 350
f 350 388 389
f 350 389 351
f 351 389 352
f 352 389 390
f 352 390 391
f 352 391 353
f 353 391 357
f 354 357 392
f 354 392 356
f 355 356 393
f 355 393 358
f 356 392 393
f 357 391 394
f 357 394 392
f 358 393 434
f 358 434 395
f 358 395 396
f 358 396 359
f 359 396 364
f 359 364 360
f 362 397 363
f 362 366 398
f 362 398 399
f 362 399 397
f 364 396 365
f 365 396 400
f 365 400 401
f 365 401 402
f 365 402 403
f 365 403 366
f 366 403 398
f 369 404 406
f 369 406 407
f 369 407 405
f 370 408 371
f 371 408 409
f 371 409 410
f 371 410 411
f 371 411 412
f 371 412 372
f 372 412 413
f 373 413 414
f 373 414 374
f 374 414 375
f 375 414 415
f 375 415 416
f 375 416 417
f 375 417 418
f 375 418 377
f 375 377 376
f 377 418 419
f 377 419 420
f 377 420 421
f 377 421 378
f 378 421 379
f 379 421 422
f 379 422 423
f 379 423 380
f 380 423 424
f 380 424 382
f 381 382 383
f 382 424 384
f 382 384 383
f 384 424 425
f 384 425 426
f 384 426 427
f 384 427 385
f 385 427 428
f 385 428 386
f 386 428 429
f 386 429 388
f 386 388 387
f 388 429 430
f 388 430 389
f 389 430 390
f 390 430 431
f 390 431 432
f 390 432 391
f 391 432 394
f 392 394 433
f 392 433 434
f 392 434 393
f 394 432 435
f 394 435 436
f 394 436 437
f 394 437 433
f 395 434 438
f 395 438 439
f 395 439 400
f 395 400 396
f 398 403 440
f 398 440 475
f 398 475 441
f 398 441 442
f 398 442 443
f 398 443 399
f 400 439 444
f 400 444 401
f 401 444 445
f 401 445 446
f 401 446 447
f 401 447 402
f 402 440 403
f 402 447 440
f 405 407 448
f 407 449 448
f 410 450 411
f 411 450 451
f 411 451 452
f 411 452 412
f 412 452 413
f 413 452 453
f 413 453 454
f 413 454 414
f 414 454 455
f 414 455 415
f 415 455 416
f 416 455 456
f 416 456 493
f 416 493 457
f 416 457 458
f 416 458 417
f 417 458 419
f 417 419 418
f 419 459 420
f 419 458 460
f 419 460 459
f 420 459 421
f 421 459 422
f 422 459 425
f 422 425 424
f 422 424 423
f 425 459 461
f 425 461 498
f 425 498 462
f 425 462 426
f 426 463 427
f 426 462 463
f 427 463 464
f 427 464 428
f 428 464 465
f 428 465 466
f 428 466 429
f 429 466 430
f 430 466 467
f 430 467 468
f 430 468 431
f 431 468 432
f 432 468 435
f 433 437 434
f 434 437 438
f 435 468 505
f 435 505 469
f 435 469 436
f 436 469 470
f 436 470 471
f 436 471 437
f 437 471 472
f 437 472 473
f 437 473 474
f 437 474 438
f 438 474 439
f 439 474 444
f 440 447 481
f 440 481 475
f 441 475 512
f 441 512 476
f 441 476 477
f 441 477 442
f 442 477 478
f 444 474 473
f 444 473 445
f 445 473 479
f 445 479 446
f 446 479 480
f 446 480 481
f 446 481 447
f 448 449 482
f 449 483 484
f 449 484 482
f 449 485 483
f 450 486 451
f 451 486 523
f 451 523 487
f 451 487 452
f 452 487 488
f 452 488 525
f 452 525 489
f 452 489 453
f 453 489 490
f 453 490 454
f 454 490 491
f 454 491 455
f 455 491 456
f 456 491 492
f 456 492 531
f 456 531 493
f 457 493 494
f 457 494 495
f 457 495 458
f 458 495 460
f 459 460 497
f 459 497 461
f 460 495 535
f 460 535 496
f 460 496 497
f 461 497 498
f 462 498 499
f 462 499 463
f 463 499 464
f 464 499 500
f 464 500 501
f 464 501 502
f 464 502 465
f 465 502 542
f 465 542 503
f 465 503 467
f 465 467 466
f 467 503 504
f 467 504 505
f 467 505 468
f 469 505 470
f 470 505 504
f 470 504 506
f 470 506 471
f 471 506 507
f 471 507 472
f 472 508 473
f 472 507 509
f 472 509 510
f 472 510 511
f 472 511 508
f 473 508 479
f 475 481 512
f 476 478 477
f 476 512 513
f 476 513 514
f 476 514 515
f 476 515 516
f 476 516 478
f 478 516 517
f 479 508 511
f 479 511 518
f 479 518 480
f 480 518 519
f 480 519 520
f 480 520 481
f 481 520 512
f 483 485 521
f 485 522 521
f 487 523 562
f 487 562 524
f 487 524 488
f 488 524 526
f 488 526 525
f 489 525 527
f 489 527 490
f 490 527 567
f 490 567 528
f 490 528 491
f 491 528 529
f 491 529 492
f 492 529 530
f 492 530 531
f 493 531 494
f 494 531 532
f 494 532 533
f 494 533 534
f 494 534 535
f 494 535 495
f 496 535 536
f 496 536 498
f 496 498 497
f 498 537 538
f 498 538 499
f 498 536 537
f 499 538 539
f 499 539 500
f 500 539 501
f 501 539 540
f 501 540 581
f 501 581 541
f 501 541 542
f 501 542 502
f 503 542 504
f 504 542 543
f 504 543 506
f 506 543 544
f 506 544 509
f 506 509 507
f 509 544 545
f 509 545 546
f 509 546 510
f 510 546 547
f 510 547 586
f 510 586 548
f 510 548 549
f 510 549 550
f 510 550 511
f 511 550 518
f 512 520 513
f 513 520 514
f 514 551 515
f 514 520 552
f 514 552 553
f 514 553 554
f 514 554 555
f 514 555 551
f 515 551 556
f 515 556 516
f 516 556 517
f 517 556 557
f 518 558 519
f 518 550 559
f 518 559 558
f 519 558 520
f 520 558 552
f 521 522 560
f 522 561 560
f 524 563 526
f 524 562 604
f 524 604 563
f 525 564 527
f 525 526 565
f 525 565 564
f 526 563 566
f 526 566 565
f 527 564 567
f 528 567 529
f 529 567 568
f 529 568 569
f 529 569 530
f 530 569 570
f 530 570 571
f 530 571 531
f 531 571 532
f 532 571 572
f 532 572 533
f 533 572 573
f 533 573 574
f 533 574 534
f 534 574 575
f 534 575 535
f 535 575 536
f 536 575 576
f 536 576 577
f 536 577 537
f 537 578 539
f 537 539 538
f 537 577 579
f 537 579 578
f 539 578 540
f 540 580 581
f 540 578 579
f 540 579 582
f 540 582 624
f 540 624 580
f 541 583 543
f 541 543 542
f 541 581 583
f 543 583 545
f 543 545 544
f 545 583 584
f 545 584 546
f 546 584 547
f 547 584 585
f 547 585 586
f 548 586 587
f 548 587 588
f 548 588 589
f 548 589 590
f 548 590 591
f 548 591 592
f 548 592 549
f 549 592 634
f 549 634 593
f 549 593 559
f 549 559 550
f 551 555 600
f 551 600 556
f 552 558 594
f 552 594 553
f 553 594 595
f 553 595 596
f 553 596 554
f 554 597 555
f 554 596 598
f 554 598 599
f 554 599 597
f 555 597 600
f 556 600 557
f 557 600 601
f 558 559 594
f 559 593 595
f 559 595 594
f 560 561 602
f 561 603 602
f 563 604 605
f 563 605 606
f 563 606 607
f 563 607 566
f 564 608 567
f 564 565 609
f 564 609 652
f 564 652 608
f 565 566 610
f 565 610 655
f 565 655 609
f 566 607 649
f 566 649 610
f 567 608 611
f 567 611 568
f 568 611 569
f 569 611 612
f 569 612 613
f 569 613 614
f 569 614 570
f 570 615 572
f 570 572 571
f 570 614 659
f 570 659 615
f 572 615 616
f 572 616 573
f 573 616 617
f 573 617 618
f 573 618 619
f 573 619 620
f 573 620 574
f 574 620 576
f 574 576 575
f 576 620 621
f 576 621 622
f 576 622 579
f 576 579 577
f 579 622 582
f 580 623 583
f 580 583 581
f 580 624 623
f 582 622 625
f 582 625 624
f 583 623 584
f 584 623 585
f 585 623 665
f 585 665 626
f 585 626 586
f 586 626 587
f 587 626 627
f 587 627 628
f 587 628 629
f 587 629 588
f 588 590 589
f 588 629 630
f 588 630 590
f 590 630 631
f 590 631 632
f 590 632 633
f 590 633 591
f 591 633 634
f 591 634 592
f 593 634 595
f 595 634 635
f 595 635 596
f 596 635 636
f 596 636 637
f 596 637 638
f 596 638 598
f 597 599 640
f 597 640 600
f 598 638 641
f 598 641 599
f 599 639 640
f 599 641 642
f 599 642 639
f 600 640 643
f 600 643 601
f 602 603 644
f 603 645 646
f 603 646 644
f 605 647 648
f 605 648 606
f 606 648 607
f 607 648 650
f 607 650 651
f 607 651 649
f 608 652 653
f 608 653 654
f 608 654 611
f 609 655 699
f 609 699 652
f 610 649 655
f 611 654 656
f 611 656 612
f 612 656 613
f 613 656 657
f 613 657 704
f 613 704 658
f 613 658 659
f 613 659 614
f 615 659 660
f 615 660 616
f 616 660 661
f 616 661 617
f 617 661 662
f 617 662 663
f 617 663 618
f 618 663 664
f 618 664 619
f 619 664 620
f 620 664 621
f 621 664 625
f 621 625 622
f 623 624 665
f 624 625 666
f 624 666 665
f 625 667 666
f 625 664 668
f 625 668 667
f 626 665 669
f 626 669 627
f 627 669 628
f 628 669 670
f 628 670 671
f 628 671 629
f 629 671 672
f 629 672 630
f 630 673 631
f 630 672 674
f 630 674 675
f 630 675 676
f 630 676 673
f 631 673 677
f 631 677 632
f 632 636 634
f 632 634 633
f 632 677 636
f 634 636 635
f 636 678 637
f 636 677 679
f 636 679 680
f 636 680 678
f 637 678 638
f 638 678 681
f 638 681 682
f 638 682 683
f 638 683 641
f 639 684 685
f 639 685 640
f 639 642 686
f 639 686 684
f 640 685 643
f 641 683 642
f 642 687 686
f 642 683 725
f 642 725 688
f 642 688 687
f 645 689 690
f 645 690 691
f 645 691 646
f 647 692 650
f 647 650 648
f 649 651 693
f 649 693 694
f 649 694 695
f 649 695 655
f 650 692 696
f 650 696 651
f 651 696 697
f 651 697 698
f 651 698 693
f 652 699 653
f 653 699 700
f 653 700 701
f 653 701 702
f 653 702 656
f 653 656 654
f 655 695 699
f 656 702 703
f 656 703 657
f 657 703 750
f 657 750 704
f 658 704 751
f 658 751 705
f 658 705 660
f 658 660 659
f 660 705 706
f 660 706 661
f 661 707 662
f 661 706 755
f 661 755 707
f 662 708 668
f 662 668 663
f 662 707 709
f 662 709 710
f 662 710 708
f 663 668 664
f 665 666 669
f 666 667 670
f 666 670 669
f 667 668 711
f 667 711 670
f 668 708 756
f 668 756 711
f 670 711 712
f 670 712 713
f 670 713 671
f 671 674 672
f 671 713 674
f 673 676 714
f 673 714 677
f 674 713 715
f 674 715 675
f 675 715 716
f 675 716 676
f 676 717 714
f 676 716 718
f 676 718 719
f 676 719 720
f 676 720 717
f 677 721 679
f 677 714 721
f 678 680 681
f 679 721 680
f 680 682 681
f 680 721 722
f 680 722 723
f 680 723 682
f 682 724 725
f 682 725 683
f 682 723 726
f 682 726 724
f 687 688 727
f 688 725 724
f 688 724 726
f 688 726 728
f 688 728 727
f 689 729 730
f 689 730 690
f 692 731 696
f 693 698 694
f 694 698 732
f 694 732 733
f 694 733 734
f 694 734 735
f 694 735 695
f 695 736 699
f 695 735 737
f 695 737 738
f 695 738 736
f 696 731 739
f 696 739 788
f 696 788 740
f 696 740 741
f 696 741 697
f 697 741 742
f 697 742 698
f 698 742 743
f 698 743 744
f 698 744 745
f 698 745 732
f 699 736 746
f 699 746 747
f 699 747 700
f 700 747 748
f 700 748 701
f 701 748 702
f 702 748 749
f 702 749 703
f 703 749 800
f 703 800 750
f 704 750 801
f 704 801 751
f 705 751 752
f 705 752 753
f 705 753 706
f 706 753 754
f 706 754 755
f 707 755 709
f 708 710 759
f 708 759 756
f 709 755 757
f 709 757 758
f 709 758 759
f 709 759 710
f 711 756 760
f 711 760 761
f 711 761 712
f 712 761 713
f 713 761 760
f 713 760 762
f 713 762 763
f 713 763 715
f 714 764 721
f 714 717 764
f 715 763 718
f 715 718 716
f 717 720 765
f 717 765 766
f 717 766 764
f 718 763 719
f 719 767 768
f 719 768 769
f 719 769 720
f 719 763 767
f 720 769 770
f 720 770 765
f 721 764 722
f 722 764 771
f 722 771 723
f 723 772 726
f 723 771 773
f 723 773 772
f 726 772 728
f 727 728 774
f 728 772 775
f 728 775 776
f 728 776 774
f 729 777 730
f 730 777 778
f 730 778 779
f 732 745 733
f 733 745 780
f 733 780 781
f 733 781 782
f 733 782 734
f 734 782 783
f 734 783 735
f 735 783 784
f 735 784 785
f 735 785 737
f 736 786 746
f 736 738 787
f 736 787 786
f 737 785 787
f 737 787 738
f 740 788 789
f 740 789 790
f 740 790 791
f 740 791 741
f 741 791 742
f 742 791 792
f 742 792 743
f 743 793 744
f 743 792 794
f 743 794 795
f 743 795 796
f 743 796 797
f 743 797 793
f 744 793 780
f 744 780 745
f 746 786 747
f 747 786 798
f 747 798 748
f 748 798 799
f 748 799 749
f 749 799 844
f 749 844 800
f 750 800 803
f 750 803 801
f 751 801 752
f 752 802 754
f 752 754 753
f 752 801 803
f 752 803 804
f 752 804 805
f 752 805 802
f 754 802 757
f 754 757 755
f 756 759 760
f 757 802 806
f 757 806 807
f 757 807 758
f 758 808 809
f 758 809 760
f 758 760 759
f 758 807 808
f 760 809 810
f 760 810 762
f 762 810 767
f 762 767 763
f 764 766 771
f 765 770 811
f 765 811 766
f 766 811 856
f 766 856 812
f 766 812 771
f 767 810 813
f 767 813 768
f 768 813 814
f 768 814 815
f 768 815 816
f 768 816 769
f 769 816 817
f 769 817 770
f 770 817 818
f 770 818 811
f 771 812 773
f 772 773 819
f 772 819 820
f 772 820 775
f 773 812 821
f 773 821 822
f 773 822 823
f 773 823 819
f 775 820 776
f 776 820 824
f 778 825 826
f 778 826 827
f 778 827 828
f 778 828 779
f 780 793 829
f 780 829 781
f 781 830 831
f 781 831 832
f 781 832 782
f 781 829 875
f 781 875 830
f 782 832 784
f 782 784 783
f 784 832 785
f 785 832 833
f 785 833 787
f 786 787 833
f 786 833 798
f 789 834 835
f 789 835 790
f 790 835 836
f 790 836 791
f 791 836 792
f 792 836 837
f 792 837 838
f 792 838 794
f 793 797 796
f 793 796 829
f 794 838 795
f 795 839 829
f 795 829 796
f 795 838 840
f 795 840 841
f 795 841 842
f 795 842 886
f 795 886 839
f 798 833 879
f 798 879 843
f 798 843 799
f 799 843 891
f 799 891 844
f 800 844 803
f 802 805 845
f 802 845 806
f 803 844 891
f 803 891 846
f 803 846 847
f 803 847 848
f 803 848 804
f 804 848 805
f 805 848 849
f 805 849 850
f 805 850 851
f 805 851 845
f 806 845 807
f 807 852 808
f 807 845 853
f 807 853 854
f 807 854 852
f 808 855 810
f 808 810 809
f 808 852 857
f 808 857 855
f 810 855 813
f 811 818 856
f 812 856 821
f 813 855 814
f 814 855 857
f 814 857 858
f 814 858 859
f 814 859 815
f 815 859 860
f 815 860 816
f 816 860 861
f 816 861 817
f 817 861 818
f 818 862 856
f 818 861 863
f 818 863 864
f 818 864 862
f 819 823 865
f 819 865 820
f 820 865 866
f 820 866 824
f 821 867 822
f 821 856 867
f 822 868 865
f 822 865 823
f 822 867 869
f 822 869 870
f 822 870 868
f 825 871 826
f 826 872 873
f 826 871 872
f 829 839 885
f 829 885 874
f 829 874 875
f 830 876 831
f 830 875 917
f 830 917 876
f 831 876 832
f 832 876 877
f 832 877 878
f 832 878 879
f 832 879 833
f 834 880 881
f 834 881 835
f 835 881 882
f 835 882 836
f 836 882 883
f 836 883 837
f 837 883 884
f 837 884 838
f 838 884 840
f 839 886 929
f 839 929 885
f 840 884 883
f 840 883 887
f 840 887 841
f 841 888 931
f 841 931 889
f 841 889 842
f 841 887 888
f 842 889 890
f 842 890 930
f 842 930 886
f 843 879 921
f 843 921 891
f 845 851 892
f 845 892 853
f 846 891 847
f 847 891 893
f 847 893 894
f 847 894 848
f 848 894 850
f 848 850 849
f 850 895 851
f 850 894 896
f 850 896 941
f 850 941 895
f 851 895 892
f 852 854 897
f 852 897 898
f 852 898 857
f 853 892 899
f 853 899 900
f 853 900 854
f 854 900 897
f 856 862 867
f 857 898 858
f 858 898 897
f 858 897 901
f 858 901 902
f 858 902 859
f 859 902 903
f 859 903 860
f 860 903 904
f 860 904 905
f 860 905 861
f 861 905 863
f 862 864 906
f 862 906 867
f 863 905 907
f 863 907 908
f 863 908 864
f 864 908 906
f 865 868 909
f 865 909 866
f 867 906 869
f 868 870 909
f 869 906 910
f 869 910 870
f 870 910 951
f 870 951 911
f 870 911 912
f 870 912 913
f 870 913 909
f 872 914 957
f 872 957 1001
f 872 1001 1042
f 872 1042 1086
f 872 1086 1134
f 872 1134 1170
f 872 1170 1176
f 872 1176 1210
f 872 1210 1245
f 872 1245 1272
f 872 1272 1271
f 872 1271 1289
f 872 1289 1299
f 872 1299 1304
f 872 1304 1303
f 872 1303 1302
f 872 1302 1301
f 872 1301 1300
f 872 1300 1297
f 872 1297 1284
f 872 1284 1283
f 872 1283 1261
f 872 1261 1226
f 872 1226 1225
f 872 1225 1224
f 872 1224 1191
f 872 1191 1180
f 872 1180 1141
f 872 1141 1095
f 872 1095 1094
f 872 1094 1048
f 872 1048 1005
f 872 1005 960
f 872 960 915
f 872 915 873
f 874 885 916
f 874 916 875
f 875 916 917
f 876 917 962
f 876 962 918
f 876 918 919
f 876 919 877
f 877 919 920
f 877 920 878
f 878 920 921
f 878 921 879
f 880 922 881
f 881 922 923
f 881 923 924
f 881 924 925
f 881 925 926
f 881 926 882
f 882 926 927
f 882 927 887
f 882 887 883
f 885 928 916
f 885 929 972
f 885 972 928
f 886 930 973
f 886 973 929
f 887 927 926
f 887 926 888
f 888 926 925
f 888 925 931
f 889 931 932
f 889 932 933
f 889 933 934
f 889 934 890
f 890 934 974
f 890 974 930
f 891 921 893
f 892 895 935
f 892 935 936
f 892 936 937
f 892 937 899
f 893 938 894
f 893 921 939
f 893 939 938
f 894 938 940
f 894 940 896
f 895 941 942
f 895 942 935
f 896 940 986
f 896 986 941
f 897 900 943
f 897 943 944
f 897 944 901
f 899 937 900
f 900 937 944
f 900 944 943
f 901 944 981
f 901 981 945
f 901 945 902
f 902 946 903
f 902 945 947
f 902 947 990
f 902 990 946
f 903 946 948
f 903 948 904
f 904 949 907
f 904 907 905
f 904 948 949
f 906 908 950
f 906 950 951
f 906 951 910
f 907 949 908
f 908 949 952
f 908 952 953
f 908 953 950
f 911 954 912
f 911 951 955
f 911 955 956
f 911 956 954
f 914 958 957
f 915 960 959
f 916 928 961
f 916 961 962
f 916 962 917
f 918 963 964
f 918 964 919
f 918 962 965
f 918 965 963
f 919 964 966
f 919 966 920
f 920 966 921
f 921 966 939
f 923 967 968
f 923 968 924
f 924 968 969
f 924 969 925
f 925 969 968
f 925 968 970
f 925 970 971
f 925 971 931
f 928 972 961
f 929 973 1016
f 929 1016 972
f 930 974 973
f 931 971 975
f 931 975 932
f 932 975 976
f 932 976 977
f 932 977 933
f 933 977 978
f 933 978 934
f 934 978 1019
f 934 1019 974
f 935 942 979
f 935 979 936
f 936 979 980
f 936 980 981
f 936 981 937
f 937 981 944
f 938 939 982
f 938 982 940
f 939 966 983
f 939 983 982
f 940 983 984
f 940 984 985
f 940 985 986
f 940 982 983
f 941 986 942
f 942 986 987
f 942 987 979
f 945 981 980
f 945 980 988
f 945 988 989
f 945 989 947
f 946 990 948
f 947 989 991
f 947 991 990
f 948 990 991
f 948 991 992
f 948 992 993
f 948 993 994
f 948 994 995
f 948 995 949
f 949 995 996
f 949 996 952
f 950 953 955
f 950 955 951
f 952 996 997
f 952 997 953
f 953 997 998
f 953 998 955
f 954 956 999
f 955 998 1000
f 955 1000 956
f 956 1000 999
f 957 958 1001
f 958 1002 1003
f 958 1003 1001
f 959 960 1004
f 960 1005 1046
f 960 1046 1004
f 961 1006 1007
f 961 1007 1008
f 961 1008 962
f 961 972 1009
f 961 1009 1010
f 961 1010 1006
f 962 1008 1007
f 962 1007 965
f 963 1011 964
f 963 965 1012
f 963 1012 1011
f 964 1011 1013
f 964 1013 966
f 965 1007 1014
f 965 1014 1012
f 966 1013 983
f 967 1015 968
f 968 1015 971
f 968 971 970
f 971 1015 1020
f 971 1020 975
f 972 1016 1017
f 972 1017 1009
f 973 974 1018
f 973 1018 1054
f 973 1054 1016
f 974 1019 1056
f 974 1056 1018
f 975 1020 1058
f 975 1058 1021
f 975 1021 976
f 976 1021 1059
f 976 1059 1022
f 976 1022 1023
f 976 1023 977
f 977 1023 1024
f 977 1024 978
f 978 1024 1057
f 978 1057 1019
f 979 987 1025
f 979 1025 1026
f 979 1026 980
f 980 1026 988
f 983 1013 984
f 984 1013 1011
f 984 1011 1027
f 984 1027 1028
f 984 1028 985
f 985 987 986
f 985 1028 1029
f 985 1029 987
f 987 1029 1030
f 987 1030 1025
f 988 1026 1031
f 988 1031 1032
f 988 1032 989
f 989 1032 1033
f 989 1033 991
f 991 1033 992
f 992 1033 1034
f 992 1034 1035
f 992 1035 993
f 993 1036 1037
f 993 1037 994
f 993 1035 1080
f 993 1080 1036
f 994 1037 996
f 994 996 995
f 996 1037 1038
f 996 1038 997
f 997 1038 998
f 998 1038 1039
f 998 1039 1040
f 998 1040 1000
f 999 1000 1040
f 999 1040 1041
f 1001 1003 1042
f 1002 1043 1003
f 1003 1044 1042
f 1003 1043 1045
f 1003 1045 1044
f 1004 1046 1092
f 1004 1092 1047
f 1005 1048 1049
f 1005 1049 1046
f 1006 1050 1007
f 1006 1010 1051
f 1006 1051 1050
f 1007 1050 1014
f 1009 1017 1052
f 1009 1052 1010
f 1010 1052 1053
f 1010 1053 1051
f 1011 1012 1027
f 1012 1014 1050
f 1012 1050 1027
f 1016 1054 1055
f 1016 1055 1017
f 1017 1055 1099
f 1017 1099 1052
f 1018 1056 1054
f 1019 1057 1104
f 1019 1104 1056
f 1021 1058 1108
f 1021 1108 1059
f 1022 1059 1109
f 1022 1109 1060
f 1022 1060 1061
f 1022 1061 1023
f 1023 1061 1062
f 1023 1062 1024
f 1024 1062 1106
f 1024 1106 1057
f 1025 1030 1026
f 1026 1030 1063
f 1026 1063 1064
f 1026 1064 1065
f 1026 1065 1031
f 1027 1050 1066
f 1027 1066 1116
f 1027 1116 1067
f 1027 1067 1028
f 1028 1067 1068
f 1028 1068 1069
f 1028 1069 1029
f 1029 1069 1030
f 1030 1069 1068
f 1030 1068 1070
f 1030 1070 1071
f 1030 1071 1063
f 1031 1065 1032
f 1032 1065 1072
f 1032 1072 1073
f 1032 1073 1033
f 1033 1073 1074
f 1033 1074 1034
f 1034 1074 1075
f 1034 1075 1076
f 1034 1076 1077
f 1034 1077 1078
f 1034 1078 1079
f 1034 1079 1035
f 1035 1079 1080
f 1036 1081 1038
f 1036 1038 1037
f 1036 1080 1082
f 1036 1082 1081
f 1038 1081 1083
f 1038 1083 1039
f 1039 1083 1040
f 1040 1083 1084
f 1040 1084 1041
f 1041 1084 1085
f 1042 1044 1086
f 1043 1087 1045
f 1044 1088 1086
f 1044 1045 1089
f 1044 1089 1090
f 1044 1090 1088
f 1045 1087 1091
f 1045 1091 1089
f 1046 1049 1097
f 1046 1097 1092
f 1047 1092 1109
f 1047 1109 1093
f 1048 1094 1049
f 1049 1094 1095
f 1049 1095 1096
f 1049 1096 1110
f 1049 1110 1097
f 1050 1051 1098
f 1050 1098 1066
f 1051 1053 1101
f 1051 1101 1098
f 1052 1099 1100
f 1052 1100 1053
f 1053 1100 1146
f 1053 1146 1101
f 1054 1056 1102
f 1054 1102 1103
f 1054 1103 1055
f 1055 1103 1099
f 1056 1104 1105
f 1056 1105 1102
f 1057 1106 1107
f 1057 1107 1104
f 1059 1108 1109
f 1060 1097 1110
f 1060 1110 1061
f 1060 1109 1097
f 1061 1110 1111
f 1061 1111 1062
f 1062 1111 1112
f 1062 1112 1106
f 1063 1071 1113
f 1063 1113 1064
f 1064 1113 1114
f 1064 1114 1065
f 1065 1114 1115
f 1065 1115 1072
f 1066 1098 1117
f 1066 1117 1116
f 1067 1116 1118
f 1067 1118 1119
f 1067 1119 1068
f 1068 1119 1070
f 1070 1119 1120
f 1070 1120 1121
f 1070 1121 1071
f 1071 1121 1122
f 1071 1122 1113
f 1072 1115 1073
f 1073 1115 1075
f 1073 1075 1074
f 1075 1114 1123
f 1075 1123 1076
f 1075 1115 1114
f 1076 1124 1125
f 1076 1125 1077
f 1076 1123 1126
f 1076 1126 1163
f 1076 1163 1124
f 1077 1125 1078
f 1078 1127 1080
f 1078 1080 1079
f 1078 1125 1128
f 1078 1128 1127
f 1080 1127 1129
f 1080 1129 1082
f 1081 1082 1083
f 1082 1130 1131
f 1082 1131 1083
f 1082 1129 1130
f 1083 1131 1084
f 1084 1131 1132
f 1084 1132 1085
f 1085 1132 1133
f 1086 1088 1134
f 1087 1135 1091
f 1088 1090 1136
f 1088 1136 1137
f 1088 1137 1134
f 1089 1091 1138
f 1089 1138 1139
f 1089 1139 1090
f 1090 1139 1140
f 1090 1140 1136
f 1091 1135 1138
f 1092 1097 1109
f 1093 1109 1108
f 1095 1141 1096
f 1096 1141 1142
f 1096 1142 1110
f 1098 1101 1143
f 1098 1143 1117
f 1099 1103 1144
f 1099 1144 1145
f 1099 1145 1100
f 1100 1145 1182
f 1100 1182 1146
f 1101 1146 1147
f 1101 1147 1143
f 1102 1105 1148
f 1102 1148 1103
f 1103 1148 1144
f 1104 1107 1149
f 1104 1149 1105
f 1105 1150 1148
f 1105 1149 1150
f 1106 1112 1151
f 1106 1151 1107
f 1107 1151 1152
f 1107 1152 1149
f 1110 1142 1111
f 1111 1142 1153
f 1111 1153 1112
f 1112 1153 1154
f 1112 1154 1151
f 1113 1122 1114
f 1114 1122 1155
f 1114 1155 1123
f 1116 1117 1118
f 1117 1143 1156
f 1117 1156 1157
f 1117 1157 1118
f 1118 1157 1158
f 1118 1158 1120
f 1118 1120 1119
f 1120 1158 1159
f 1120 1159 1121
f 1121 1159 1160
f 1121 1160 1122
f 1122 1160 1161
f 1122 1161 1155
f 1123 1155 1161
f 1123 1161 1162
f 1123 1162 1126
f 1124 1128 1125
f 1124 1163 1164
f 1124 1164 1128
f 1126 1162 1165
f 1126 1165 1199
f 1126 1199 1163
f 1127 1128 1129
f 1128 1166 1129
f 1128 1164 1166
f 1129 1166 1204
f 1129 1204 1167
f 1129 1167 1130
f 1130 1132 1131
f 1130 1167 1132
f 1132 1167 1168
f 1132 1168 1133
f 1133 1168 1205
f 1133 1205 1169
f 1134 1137 1170
f 1135 1171 1172
f 1135 1172 1173
f 1135 1173 1138
f 1136 1174 1137
f 1136 1140 1175
f 1136 1175 1174
f 1137 1174 1176
f 1137 1176 1170
f 1138 1173 1172
f 1138 1172 1177
f 1138 1177 1139
f 1139 1177 1178
f 1139 1178 1140
f 1140 1178 1179
f 1140 1179 1175
f 1141 1180 1142
f 1142 1180 1153
f 1143 1147 1156
f 1144 1148 1181
f 1144 1181 1145
f 1145 1181 1183
f 1145 1183 1217
f 1145 1217 1182
f 1146 1182 1184
f 1146 1184 1147
f 1147 1185 1156
f 1147 1184 1220
f 1147 1220 1185
f 1148 1150 1181
f 1149 1186 1150
f 1149 1152 1186
f 1150 1186 1187
f 1150 1187 1181
f 1151 1154 1188
f 1151 1188 1152
f 1152 1188 1189
f 1152 1189 1186
f 1153 1190 1154
f 1153 1180 1191
f 1153 1191 1190
f 1154 1190 1192
f 1154 1192 1188
f 1156 1185 1193
f 1156 1193 1194
f 1156 1194 1157
f 1157 1194 1158
f 1158 1194 1159
f 1159 1194 1195
f 1159 1195 1196
f 1159 1196 1160
f 1160 1196 1197
f 1160 1197 1161
f 1161 1197 1198
f 1161 1198 1162
f 1162 1198 1165
f 1163 1199 1164
f 1164 1199 1200
f 1164 1200 1201
f 1164 1201 1202
f 1164 1202 1166
f 1165 1198 1203
f 1165 1203 1231
f 1165 1231 1199
f 1166 1202 1204
f 1167 1204 1205
f 1167 1205 1168
f 1169 1205 1239
f 1169 1239 1206
f 1171 1207 1208
f 1171 1208 1172
f 1172 1208 1177
f 1174 1209 1210
f 1174 1210 1176
f 1174 1175 1211
f 1174 1211 1209
f 1175 1179 1212
f 1175 1212 1211
f 1177 1208 1213
f 1177 1213 1249
f 1177 1249 1214
f 1177 1214 1178
f 1178 1214 1215
f 1178 1215 1179
f 1179 1215 1212
f 1181 1187 1216
f 1181 1216 1183
f 1182 1217 1218
f 1182 1218 1184
f 1183 1216 1217
f 1184 1218 1219
f 1184 1219 1220
f 1185 1220 1221
f 1185 1221 1193
f 1186 1189 1222
f 1186 1222 1187
f 1187 1222 1251
f 1187 1251 1216
f 1188 1192 1223
f 1188 1223 1189
f 1189 1223 1222
f 1190 1191 1224
f 1190 1224 1225
f 1190 1225 1192
f 1192 1225 1226
f 1192 1226 1223
f 1193 1227 1194
f 1193 1221 1227
f 1194 1227 1195
f 1195 1227 1196
f 1196 1227 1228
f 1196 1228 1229
f 1196 1229 1197
f 1197 1229 1230
f 1197 1230 1198
f 1198 1230 1203
f 1199 1231 1232
f 1199 1232 1200
f 1200 1232 1201
f 1201 1233 1234
f 1201 1234 1204
f 1201 1204 1202
f 1201 1232 1235
f 1201 1235 1236
f 1201 1236 1233
f 1203 1230 1237
f 1203 1237 1238
f 1203 1238 1231
f 1204 1234 1239
f 1204 1239 1205
f 1206 1239 1240
f 1207 1241 1242
f 1207 1242 1208
f 1208 1242 1213
f 1209 1211 1243
f 1209 1243 1244
f 1209 1244 1245
f 1209 1245 1210
f 1211 1212 1246
f 1211 1246 1243
f 1212 1215 1247
f 1212 1247 1267
f 1212 1267 1248
f 1212 1248 1246
f 1213 1242 1236
f 1213 1236 1249
f 1214 1249 1215
f 1215 1249 1250
f 1215 1250 1247
f 1216 1251 1252
f 1216 1252 1253
f 1216 1253 1217
f 1217 1253 1254
f 1217 1254 1218
f 1218 1254 1219
f 1219 1254 1255
f 1219 1255 1256
f 1219 1256 1257
f 1219 1257 1220
f 1220 1257 1221
f 1221 1258 1227
f 1221 1257 1258
f 1222 1223 1259
f 1222 1259 1260
f 1222 1260 1251
f 1223 1226 1261
f 1223 1261 1259
f 1227 1258 1262
f 1227 1262 1228
f 1228 1262 1229
f 1229 1262 1263
f 1229 1263 1237
f 1229 1237 1230
f 1231 1238 1264
f 1231 1264 1250
f 1231 1250 1232
f 1232 1250 1235
f 1233 1265 1239
f 1233 1239 1234
f 1233 1236 1265
f 1235 1250 1249
f 1235 1249 1236
f 1236 1242 1265
f 1237 1263 1266
f 1237 1266 1267
f 1237 1267 1238
f 1238 1267 1264
f 1239 1265 1240
f 1240 1265 1268
f 1241 1268 1242
f 1242 1268 1265
f 1243 1269 1244
f 1243 1246 1270
f 1243 1270 1269
f 1244 1269 1271
f 1244 1271 1272
f 1244 1272 1245
f 1246 1248 1273
f 1246 1273 1270
f 1247 1250 1264
f 1247 1264 1267
f 1248 1267 1266
f 1248 1266 1273
f 1251 1260 1274
f 1251 1274 1252
f 1252 1274 1290
f 1252 1290 1275
f 1252 1275 1276
f 1252 1276 1253
f 1253 1276 1254
f 1254 1276 1255
f 1255 1276 1277
f 1255 1277 1256
f 1256 1277 1278
f 1256 1278 1279
f 1256 1279 1280
f 1256 1280 1257
f 1257 1281 1258
f 1257 1280 1281
f 1258 1281 1282
f 1258 1282 1262
f 1259 1261 1260
f 1260 1261 1283
f 1260 1283 1284
f 1260 1284 1274
f 1262 1282 1263
f 1263 1282 1285
f 1263 1285 1266
f 1266 1285 1286
f 1266 1286 1273
f 1269 1270 1287
f 1269 1287 1288
f 1269 1288 1289
f 1269 1289 1271
f 1270 1273 1287
f 1273 1286 1287
f 1274 1284 1290
f 1275 1290 1291
f 1275 1291 1277
f 1275 1277 1276
f 1277 1291 1278
f 1278 1291 1292
f 1278 1292 1293
f 1278 1293 1279
f 1279 1293 1294
f 1279 1294 1295
f 1279 1295 1280
f 1280 1295 1296
f 1280 1296 1281
f 1281 1296 1282
f 1282 1296 1285
f 1284 1297 1290
f 1285 1296 1286
f 1286 1296 1295
f 1286 1295 1287
f 1287 1295 1294
f 1287 1294 1288
f 1288 1298 1299
f 1288 1299 1289
f 1288 1294 1298
f 1290 1297 1291
f 1291 1297 1300
f 1291 1300 1301
f 1291 1301 1302
f 1291 1302 1292
f 1292 1302 1303
f 1292 1303 1293
f 1293 1303 1298
f 1293 1298 1294
f 1298 1303 1304
f 1298 1304 1299
