v -0.42509666 0.35066885 0.14958373
v -0.42479828 0.36997584 0.14958373
v -0.42456621 0.33168542 0.14958373
v -0.38657194 0.30989763 0.25001118
v -0.38706926 0.32995963 0.25001118
v -0.38750023 0.34991384 0.25001118
v -0.38786495 0.36997584 0.25001118
v -0.38816333 0.38993001 0.25001118
v -0.38839540 0.40999204 0.25001118
v -0.38859433 0.42994618 0.25001118
v -0.38872695 0.44990036 0.25001118
v -0.38882640 0.46996239 0.25001118
v -0.38889271 0.48991653 0.25001118
v -0.38885957 0.50997853 0.25001118
v -0.38882640 0.52993274 0.25001118
v -0.38876009 0.54999477 0.25001118
v -0.38866061 0.56994891 0.25001118
v -0.38849485 0.58990312 0.25001118
v -0.39529139 0.58990312 0.23001745
v -0.39926985 0.58990312 0.21756235
v -0.39907092 0.60996509 0.21688497
v -0.40198845 0.60996509 0.20687719
v -0.40659684 0.60996509 0.19000816
v -0.41160306 0.60996509 0.17001446
v -0.41614515 0.60996509 0.14958373
v -0.42449990 0.32995963 0.14958373
v -0.37914550 0.16989490 0.25763717
v -0.37980857 0.20527309 0.25949451
v -0.38004065 0.21864778 0.26012820
v -0.38600832 0.28994346 0.25001118
v -0.38113472 0.28994346 0.26288143
v -0.38139993 0.30989763 0.26355883
v -0.38166517 0.32995963 0.26414880
v -0.38186410 0.34991384 0.26467323
v -0.38206303 0.36997584 0.26515394
v -0.38236141 0.40999204 0.26591873
v -0.38246086 0.42994618 0.26620281
v -0.38252717 0.44990036 0.26639947
v -0.38259348 0.46996239 0.26657426
v -0.38262665 0.48991653 0.26670536
v -0.38262665 0.50997853 0.26674908
v -0.38262665 0.52993274 0.26672724
v -0.38259348 0.54999477 0.26668352
v -0.38256031 0.56994891 0.26659611
v -0.38246086 0.58990312 0.26639947
v -0.38806385 0.60996509 0.25001118
v -0.39489353 0.60996509 0.23001745
v -0.39824209 0.62991929 0.21419729
v -0.40119278 0.62991929 0.20421135
v -0.40507177 0.62991929 0.19000816
v -0.41001168 0.62991929 0.17001446
v -0.41455376 0.62991929 0.14958373
v -0.37838295 0.13009444 0.25543022
v -0.39423048 -0.12995687 0.14958373
v -0.39283800 -0.14991102 0.15002075
v -0.38866061 -0.14991102 0.17001446
v -0.38995361 -0.12995687 0.17001446
v -0.38524580 -0.12995687 0.19000816
v -0.38073689 -0.14991102 0.20263809
v -0.38136679 -0.12995687 0.20493245
v -0.37914550 -0.10989484 0.21708164
v -0.38000751 -0.08066468 0.22014078
v -0.38030589 -0.06998651 0.22110222
v -0.38086951 -0.04992448 0.22282846
v -0.37718940 -0.06998651 0.23108816
v -0.37771988 -0.04992448 0.23283625
v -0.37825033 -0.02997032 0.23451877
v -0.37874764 -0.00990829 0.23611391
v -0.37924495 0.01004587 0.23764347
v -0.37970909 0.03000003 0.23910749
v -0.37503442 0.01004587 0.25001118
v -0.37732202 0.04855201 0.24845974
v -0.37712312 0.07001622 0.25178111
v -0.37755412 0.09007825 0.25304848
v -0.37798512 0.11003241 0.25427213
v -0.37211686 0.11003241 0.26998302
v -0.37291259 0.13009444 0.26998302
v -0.37364197 0.14994073 0.26998302
v -0.37437135 0.16989490 0.26998302
v -0.37510073 0.18995693 0.26998302
v -0.37662581 0.21120542 0.26806015
v -0.37622795 0.22997311 0.27059487
v -0.38053796 0.24992728 0.26139557
v -0.38083634 0.26998931 0.26216036
v -0.37708995 0.28994346 0.27288923
v -0.37682474 0.26998931 0.27214628
v -0.37735519 0.30989763 0.27354476
v -0.37758726 0.32995963 0.27415657
v -0.37781933 0.34991384 0.27468100
v -0.37801826 0.36997584 0.27513987
v -0.37818402 0.38993001 0.27555504
v -0.37831664 0.40999204 0.27590466
v -0.37844926 0.42994618 0.27618873
v -0.37854871 0.44990036 0.27640724
v -0.37861502 0.46996239 0.27658206
v -0.37868133 0.48991653 0.27671316
v -0.37868133 0.50997853 0.27675685
v -0.37868133 0.52993274 0.27673501
v -0.37868133 0.54999477 0.27669132
v -0.37864819 0.56994891 0.27660391
v -0.37858188 0.58990312 0.27638540
v -0.37834978 0.60996509 0.27581728
v -0.38222879 0.60996509 0.26580948
v -0.38133365 0.62991929 0.26342770
v -0.38627356 0.62991929 0.25001118
v -0.39316955 0.62991929 0.23001745
v -0.40036392 0.64102888 0.20134887
v -0.40188900 0.64469612 0.19000816
v -0.40888447 0.64998132 0.15002075
v -0.40908337 0.64954984 0.14958373
v -0.39290431 -0.14991102 0.14958373
v -0.39147872 -0.16997305 0.15002075
v -0.38733447 -0.16997305 0.17001446
v -0.38395280 -0.14991102 0.19000816
v -0.37788564 -0.14991102 0.21264586
v -0.37854871 -0.12995687 0.21491838
v -0.37980857 -0.17719969 0.19927302
v -0.37765357 -0.17029664 0.20858157
v -0.37394035 -0.12995687 0.23001745
v -0.37516704 -0.10989484 0.23001745
v -0.37705681 -0.08832277 0.22809456
v -0.36972982 -0.08994067 0.25001118
v -0.37089020 -0.06998651 0.25001118
v -0.37201741 -0.04992448 0.25001118
v -0.37304521 -0.02997032 0.25001118
v -0.37407297 -0.00990829 0.25001118
v -0.36770743 0.01004587 0.26998302
v -0.36863571 0.03000003 0.26998302
v -0.36953089 0.05006206 0.26998302
v -0.37128803 0.09007825 0.26998302
v -0.36369580 0.09007825 0.28890604
v -0.36336428 0.11067957 0.29174668
v -0.36482304 0.13009444 0.28999859
v -0.36551929 0.14994073 0.28999859
v -0.36621550 0.16989490 0.28999859
v -0.36754167 0.20991108 0.28999859
v -0.37652636 0.24992728 0.27140334
v -0.36817157 0.22997311 0.28999859
v -0.36873519 0.24992728 0.28999859
v -0.36929882 0.26998931 0.28999859
v -0.37035972 0.30989763 0.28999859
v -0.37082389 0.32995963 0.28999859
v -0.37125489 0.34991384 0.28999859
v -0.37198427 0.38993001 0.28999859
v -0.37228265 0.40999204 0.28999859
v -0.37254786 0.42994618 0.28999859
v -0.37271366 0.44990036 0.28999859
v -0.37287942 0.46996239 0.28999859
v -0.37301204 0.48991653 0.28999859
v -0.37307835 0.50997853 0.28999859
v -0.37307835 0.52993274 0.28999859
v -0.37304521 0.54999477 0.28999859
v -0.37301204 0.56994891 0.28999859
v -0.37287942 0.58990312 0.28999859
v -0.37244841 0.60996509 0.28999859
v -0.37059182 0.62991929 0.28999859
v -0.37742150 0.62991929 0.27343550
v -0.38037217 0.64092106 0.26100224
v -0.38236141 0.64555901 0.25001118
v -0.38594201 0.65181494 0.23185295
v -0.39472777 0.64857912 0.20882192
v -0.39751270 0.65461928 0.19000816
v -0.39926985 0.65850228 0.17718160
v -0.40401083 0.65105993 0.17029852
v -0.40895075 0.64998132 0.14958373
v -0.40086123 0.66098303 0.16383061
v -0.40228683 0.66270882 0.15002075
v -0.39154500 -0.16997305 0.14958373
v -0.39011940 -0.18992722 0.15002075
v -0.38454956 -0.20998925 0.17001446
v -0.38116789 -0.20998925 0.18467653
v -0.38186410 -0.18992722 0.18751715
v -0.38219565 -0.17029664 0.19155960
v -0.37586325 -0.18992722 0.21000189
v -0.37125489 -0.16997305 0.23001745
v -0.37261420 -0.14991102 0.23001745
v -0.37934440 -0.18992722 0.19750309
v -0.37440449 -0.20998925 0.21000189
v -0.36727643 -0.12995687 0.25001118
v -0.36309904 -0.08994067 0.26810384
v -0.36187235 -0.12995687 0.26491359
v -0.36250228 -0.10989484 0.26653057
v -0.36469042 -0.04992448 0.26998302
v -0.36575136 -0.02997032 0.26998302
v -0.36674595 -0.00990829 0.26998302
v -0.36144137 -0.00990829 0.28350884
v -0.36193866 0.01004587 0.28468880
v -0.36240283 0.03000003 0.28580320
v -0.36283380 0.05006206 0.28687391
v -0.36326480 0.07001622 0.28790089
v -0.35951844 0.09007825 0.29891384
v -0.36008206 0.11769050 0.30018118
v -0.35981682 0.10442367 0.29959121
v -0.36064565 0.14994073 0.30142671
v -0.36097720 0.16989490 0.30214778
v -0.36160713 0.20991108 0.30350256
v -0.36190552 0.22997311 0.30413622
v -0.36220390 0.24992728 0.30470437
v -0.36296642 0.30989763 0.30629948
v -0.36246914 0.26998931 0.30525064
v -0.36319852 0.32995963 0.30678022
v -0.36339742 0.34991384 0.30719537
v -0.36359635 0.36997584 0.30761054
v -0.36379528 0.38993001 0.30796015
v -0.36392790 0.40999204 0.30828792
v -0.36406052 0.42994618 0.30855015
v -0.36415997 0.44990036 0.30876866
v -0.36425942 0.46996239 0.30896533
v -0.36432573 0.48991653 0.30914012
v -0.36435890 0.50997853 0.30924937
v -0.36435890 0.52993274 0.30929309
v -0.36435890 0.54999477 0.30933678
v -0.36435890 0.56994891 0.30935863
v -0.36429259 0.58990312 0.30927122
v -0.36409366 0.60996509 0.30885607
v -0.36316535 0.62991929 0.30688947
v -0.36160713 0.64372540 0.30350256
v -0.36445835 0.65019703 0.28997675
v -0.37390718 0.64857912 0.26858455
v -0.37791878 0.65559006 0.25001118
v -0.37987489 0.65979660 0.23974118
v -0.38206303 0.66227740 0.22641203
v -0.38461587 0.66486603 0.21000189
v -0.40232000 0.66270882 0.14958373
v -0.38750023 0.66713107 0.19000816
v -0.39154500 0.66745466 0.17029852
v -0.38998678 0.67209268 0.15002075
v -0.39018571 -0.18992722 0.14958373
v -0.38879323 -0.20998925 0.14958373
v -0.38723502 -0.22994339 0.15002075
v -0.38305765 -0.22994339 0.17001446
v -0.38000751 -0.24019012 0.18008780
v -0.38040534 -0.22994339 0.18168291
v -0.37861502 -0.20998925 0.19466245
v -0.36982927 -0.18992722 0.23001745
v -0.36459097 -0.16997305 0.25001118
v -0.36595029 -0.14991102 0.25001118
v -0.36833733 -0.20998925 0.23001745
v -0.37287942 -0.22994339 0.21000189
v -0.36120927 -0.14991102 0.26323107
v -0.35971737 -0.07505594 0.27926973
v -0.36299959 -0.06901577 0.27155632
v -0.35802650 -0.12995687 0.27492136
v -0.35925320 -0.08994067 0.27811164
v -0.36008206 -0.06168126 0.28023118
v -0.36041358 -0.04992448 0.28101781
v -0.36094403 -0.02997032 0.28230703
v -0.35726398 -0.00990829 0.29351661
v -0.35776129 0.01004587 0.29469657
v -0.35822544 0.03000003 0.29581097
v -0.35908744 0.07001622 0.29790866
v -0.35278821 0.05006206 0.30999231
v -0.35365021 0.07001622 0.30999231
v -0.35447907 0.09007825 0.30999231
v -0.35616991 0.11067957 0.30811313
v -0.35570574 0.13009444 0.31066969
v -0.35600412 0.14994073 0.31143448
v -0.35633567 0.16989490 0.31213373
v -0.35693243 0.20991108 0.31351033
v -0.35663405 0.18995693 0.31283295
v -0.35746288 0.24992728 0.31471214
v -0.35719767 0.22997311 0.31412217
v -0.35819227 0.30989763 0.31630728
v -0.35772812 0.26998931 0.31525841
v -0.35842437 0.32995963 0.31676614
v -0.35862327 0.34991384 0.31720316
v -0.35882220 0.36997584 0.31759650
v -0.35898799 0.38993001 0.31796795
v -0.35915375 0.40999204 0.31829572
v -0.35928637 0.42994618 0.31855792
v -0.35938582 0.44990036 0.31877643
v -0.35948527 0.46996239 0.31897309
v -0.35958475 0.48991653 0.31912604
v -0.35961789 0.50997853 0.31923530
v -0.35965106 0.52993274 0.31930086
v -0.35968420 0.54999477 0.31934455
v -0.35968420 0.56994891 0.31936643
v -0.35965106 0.58990312 0.31927902
v -0.35945213 0.60996509 0.31886384
v -0.35852382 0.62991929 0.31689724
v -0.34191376 0.64426470 0.34364295
v -0.34546122 0.65052062 0.33053231
v -0.33873099 0.65763938 0.33754650
v -0.35537422 0.65019703 0.31010157
v -0.35842437 0.65699220 0.29664132
v -0.35215831 0.62991929 0.32998604
v -0.36137503 0.66152233 0.28331217
v -0.36402735 0.66411102 0.26998302
v -0.36790633 0.66713107 0.25001118
v -0.37191796 0.66864115 0.23185295
v -0.36846995 0.67575991 0.21070112
v -0.38968840 0.67230839 0.14958373
v -0.37205058 0.67705423 0.19000816
v -0.37374142 0.67856431 0.17001446
v -0.38730133 -0.22994339 0.14958373
v -0.38726819 -0.23037484 0.14958373
v -0.38567680 -0.24989757 0.15002075
v -0.38146627 -0.24806395 0.17056073
v -0.37944388 -0.25345695 0.17759678
v -0.37728888 -0.24806395 0.18806343
v -0.37785250 -0.22994339 0.19166885
v -0.36256859 -0.20998925 0.24736719
v -0.36273435 -0.18895647 0.25138777
v -0.36011520 -0.18162197 0.26034671
v -0.36677912 -0.22994339 0.23001745
v -0.36177289 -0.22994339 0.24509469
v -0.37118858 -0.24989757 0.21000189
v -0.35736343 -0.14991102 0.27321699
v -0.36051303 -0.16997305 0.26141742
v -0.35666722 -0.16997305 0.27142519
v -0.35431328 -0.08994067 0.28999859
v -0.35633567 -0.06901577 0.28814125
v -0.35182676 -0.12995687 0.28999859
v -0.35050058 -0.14991102 0.28999859
v -0.35620305 -0.04992448 0.29102561
v -0.35673350 -0.02997032 0.29229295
v -0.34894237 -0.02997032 0.30999231
v -0.35096475 0.01004587 0.30999231
v -0.35189307 0.03000003 0.30999231
v -0.34410191 0.05006206 0.32832533
v -0.34363776 0.03000003 0.32742944
v -0.34453291 0.07001622 0.32917753
v -0.34572646 0.11003241 0.32998604
v -0.34705260 0.14994073 0.32998604
v -0.34764937 0.16989490 0.32998604
v -0.34824616 0.18995693 0.32998604
v -0.34880975 0.20991108 0.32998604
v -0.35083213 0.28994346 0.32998604
v -0.35129631 0.30989763 0.32998604
v -0.34987068 0.24992728 0.32998604
v -0.35172731 0.32995963 0.32998604
v -0.35212514 0.34991384 0.32998604
v -0.35252297 0.36997584 0.32998604
v -0.35285452 0.38993001 0.32998604
v -0.35318607 0.40999204 0.32998604
v -0.35345128 0.42994618 0.32998604
v -0.35365021 0.44990036 0.32998604
v -0.35384914 0.46996239 0.32998604
v -0.35401490 0.48991653 0.32998604
v -0.35414752 0.50997853 0.32998604
v -0.35421383 0.52993274 0.32998604
v -0.35428014 0.54999477 0.32998604
v -0.35431328 0.56994891 0.32998604
v -0.35428014 0.58990312 0.32998604
v -0.35394859 0.60996509 0.32998604
v -0.34360462 0.62991929 0.34681135
v -0.33823371 0.62991929 0.35681912
v -0.32835385 0.63293934 0.37281409
v -0.32377863 0.64760840 0.37281409
v -0.32470694 0.64944202 0.36975494
v -0.33528301 0.65052062 0.35017639
v -0.32172310 0.66173810 0.36293742
v -0.34198007 0.66206163 0.32421735
v -0.32139155 0.65235424 0.37281409
v -0.34532860 0.66508174 0.30999231
v -0.35106421 0.66734684 0.28997675
v -0.34831244 0.67500490 0.26904345
v -0.35215831 0.67716211 0.25001118
v -0.35875589 0.67975074 0.21780272
v -0.37556487 0.67931932 0.15002075
v -0.37563118 0.67931932 0.14958373
v -0.36077827 0.68018222 0.20447357
v -0.38570994 -0.25032902 0.14958373
v -0.38395280 -0.26995960 0.15002075
v -0.38093579 -0.26995960 0.16426763
v -0.37864819 -0.26995960 0.17427541
v -0.37473604 -0.26995960 0.19000816
v -0.35905427 -0.20998925 0.25735313
v -0.35961789 -0.19499665 0.25897011
v -0.35650143 -0.18895647 0.26819125
v -0.36505511 -0.24989757 0.23001745
v -0.36091089 -0.24989757 0.24264736
v -0.35822544 -0.22994339 0.25510246
v -0.36923251 -0.26995960 0.21000189
v -0.34907499 -0.16997305 0.28999859
v -0.35418066 -0.20998925 0.26998302
v -0.34761623 -0.18992722 0.28999859
v -0.34552753 -0.08994067 0.30999231
v -0.34672105 -0.06998651 0.30999231
v -0.34380352 -0.12995687 0.30835348
v -0.34314045 -0.14991102 0.30688947
v -0.34241107 -0.16997305 0.30533803
v -0.34784830 -0.04992448 0.30999231
v -0.34161538 -0.04992448 0.32336515
v -0.34217900 -0.02997032 0.32443586
v -0.34267631 -0.00990829 0.32548469
v -0.34317362 0.01004587 0.32648987
v -0.33916199 0.05006206 0.33833313
v -0.33869785 0.03000003 0.33743724
v -0.33959299 0.07001622 0.33918533
v -0.34403563 0.08997038 0.33184338
v -0.34012347 0.09665772 0.34023416
v -0.34035555 0.11003241 0.34069306
v -0.34068707 0.13009444 0.34132671
v -0.34101862 0.14994073 0.34191671
v -0.34131700 0.16989490 0.34246299
v -0.34188062 0.20991108 0.34351182
v -0.34237790 0.24992728 0.34442958
v -0.34307414 0.30989763 0.34567508
v -0.34350514 0.34991384 0.34639618
v -0.34367090 0.36997584 0.34674579
v -0.34400246 0.40999204 0.34733576
v -0.34383669 0.38993001 0.34705171
v -0.34413508 0.42994618 0.34755427
v -0.34433401 0.46996239 0.34792575
v -0.34443346 0.48991653 0.34810054
v -0.34449977 0.50997853 0.34823167
v -0.34456608 0.52993274 0.34831905
v -0.34463239 0.56994891 0.34851572
v -0.34463239 0.58990312 0.34855944
v -0.34449977 0.60996509 0.34836277
v -0.33064148 0.62991929 0.36999530
v -0.33909568 0.60996509 0.35837054
v -0.32898378 0.62991929 0.37281409
v -0.31386563 0.66163021 0.37281409
v -0.30945620 0.66637605 0.37281409
v -0.31058341 0.66691536 0.36975494
v -0.32533687 0.66475815 0.34997976
v -0.33123824 0.66777825 0.33053231
v -0.32848647 0.67575991 0.30948973
v -0.33302855 0.67802501 0.28999859
v -0.33654284 0.67942715 0.27507433
v -0.34052131 0.68018222 0.26174518
v -0.35580522 0.67899573 0.23001745
v -0.36203814 0.68050575 0.19000816
v -0.36372897 0.68061364 0.17001446
v -0.36588398 0.68061364 0.14958373
v -0.34582591 0.68072152 0.23001745
v -0.38398594 -0.27039102 0.14958373
v -0.38199672 -0.29088449 0.14958373
v -0.38030589 -0.28290284 0.16144884
v -0.37778619 -0.28969803 0.16887820
v -0.37248158 -0.28991374 0.19000816
v -0.35255614 -0.22994339 0.26998302
v -0.36270121 -0.26974386 0.23128481
v -0.36031413 -0.26294866 0.24089928
v -0.35733029 -0.24989757 0.25263330
v -0.35076582 -0.24989757 0.26998302
v -0.36691174 -0.28991374 0.21000189
v -0.36197183 -0.28991374 0.22623722
v -0.34168169 -0.18992722 0.30372107
v -0.34605798 -0.20998925 0.28999859
v -0.34088600 -0.20998925 0.30201668
v -0.34045500 -0.08994067 0.32098338
v -0.33969247 -0.11517999 0.31934455
v -0.34105176 -0.06998651 0.32220706
v -0.33922830 -0.12995687 0.31833941
v -0.33856523 -0.14991102 0.31689724
v -0.33783585 -0.16997305 0.31534582
v -0.33611184 -0.06998651 0.33221483
v -0.33667547 -0.04992448 0.33335108
v -0.33720592 -0.02997032 0.33444363
v -0.33773637 -0.00990829 0.33547065
v -0.33823371 0.01004587 0.33647579
v -0.33292907 0.05006206 0.34997976
v -0.33110562 0.01004587 0.34997976
v -0.33203393 0.03000003 0.34997976
v -0.33379108 0.07001622 0.34997976
v -0.33985823 0.08328304 0.33973160
v -0.33495146 0.11003241 0.35070083
v -0.33558139 0.08997038 0.34814426
v -0.33528301 0.13009444 0.35133451
v -0.33561453 0.14994073 0.35192448
v -0.33617815 0.18995693 0.35299519
v -0.33644339 0.20991108 0.35349774
v -0.33667547 0.22997311 0.35397848
v -0.33690754 0.24992728 0.35441551
v -0.33760378 0.30989763 0.35566100
v -0.33780271 0.32995963 0.35605434
v -0.33800161 0.34991384 0.35640395
v -0.33833316 0.38993001 0.35705948
v -0.33849892 0.40999204 0.35732168
v -0.33863154 0.42994618 0.35756207
v -0.33883047 0.46996239 0.35793352
v -0.33892992 0.48991653 0.35810834
v -0.33899623 0.50997853 0.35823944
v -0.33906254 0.52993274 0.35832685
v -0.33916199 0.56994891 0.35850164
v -0.33919516 0.58990312 0.35854536
v -0.33236545 0.60996509 0.36999530
v -0.33067462 0.60996509 0.37281409
v -0.28972968 0.67694640 0.37281409
v -0.30842841 0.67543632 0.34897459
v -0.31333518 0.67813283 0.32998604
v -0.31704840 0.67953503 0.31582654
v -0.32082796 0.68018222 0.30249739
v -0.32304925 0.68050575 0.28999859
v -0.34997013 0.68104506 0.19000816
v -0.34997013 0.68093723 0.17001446
v -0.36535349 0.68061364 0.14958373
v -0.32997841 0.68115294 0.25001118
v -0.38043848 -0.30469063 0.14958373
v -0.37954333 -0.29616964 0.15808378
v -0.37868133 -0.30997577 0.15439096
v -0.37490180 -0.30997577 0.17001446
v -0.36976296 -0.30997577 0.19000816
v -0.34343883 -0.24989757 0.28811941
v -0.34367090 -0.23037484 0.29168114
v -0.35958475 -0.27621549 0.23880158
v -0.35683298 -0.26974386 0.24854715
v -0.34877661 -0.26995960 0.26998302
v -0.34244424 -0.26995960 0.28580320
v -0.36336428 -0.31148583 0.21179368
v -0.36091089 -0.30587709 0.22285031
v -0.35875589 -0.28991374 0.23622316
v -0.33707333 -0.18992722 0.31370699
v -0.33631077 -0.20998925 0.31200260
v -0.34032238 -0.22401109 0.30074930
v -0.33574715 -0.10903195 0.32812870
v -0.33551508 -0.08994067 0.33099118
v -0.33349270 -0.12995687 0.32998604
v -0.33216655 -0.14991102 0.32998604
v -0.33074093 -0.16997305 0.32998604
v -0.32765764 -0.20998925 0.32998604
v -0.32921585 -0.18992722 0.32998604
v -0.32689509 -0.06998651 0.34997976
v -0.32490587 -0.10989484 0.34917125
v -0.32802230 -0.04992448 0.34997976
v -0.32908323 -0.02997032 0.34997976
v -0.33011103 -0.00990829 0.34997976
v -0.32331449 0.03000003 0.36579990
v -0.32185572 -0.02997032 0.36326519
v -0.32235301 -0.00990829 0.36416107
v -0.32285032 0.01004587 0.36501327
v -0.32417649 0.07001622 0.36728579
v -0.32374549 0.05006206 0.36656469
v -0.32497215 0.11003241 0.36857498
v -0.32457432 0.09007825 0.36796317
v -0.32560208 0.14994073 0.36962384
v -0.32530370 0.13009444 0.36912125
v -0.32649726 0.18995693 0.36999530
v -0.32702771 0.20991108 0.36999530
v -0.32802230 0.24992728 0.36999530
v -0.32931530 0.30989763 0.36999530
v -0.33011103 0.34991384 0.36999530
v -0.33077407 0.38993001 0.36999530
v -0.33107248 0.40999204 0.36999530
v -0.33133769 0.42994618 0.36999530
v -0.33176869 0.46996239 0.36999530
v -0.33196762 0.48991653 0.36999530
v -0.33213338 0.50997853 0.36999530
v -0.33236545 0.54999477 0.36999530
v -0.33256438 0.58990312 0.36999530
v -0.33084041 0.59367824 0.37281409
v -0.28671268 0.67824072 0.37281409
v -0.28949758 0.67770141 0.37095675
v -0.29586312 0.67921144 0.35496178
v -0.30073673 0.68018222 0.34163263
v -0.30335587 0.68050575 0.32998604
v -0.31021872 0.68072152 0.30948973
v -0.32997841 0.68104506 0.23001745
v -0.25103918 0.68050575 0.37281409
v -0.34977120 0.68050575 0.14958373
v -0.28999490 0.68104506 0.32998604
v -0.37977540 -0.30997577 0.14958373
v -0.37924495 -0.31418234 0.14958373
v -0.37712312 -0.32809630 0.14958373
v -0.37699050 -0.32895920 0.14958373
v -0.37168589 -0.32992995 0.17001446
v -0.36681229 -0.39151818 0.14958373
v -0.36641443 -0.32992995 0.19000816
v -0.35988313 -0.31925178 0.21966006
v -0.33919516 -0.24989757 0.29812717
v -0.33975875 -0.23727790 0.29946011
v -0.35394859 -0.28991374 0.25001118
v -0.34645584 -0.28991374 0.26998302
v -0.34128386 -0.28991374 0.28307182
v -0.33820054 -0.26995960 0.29581097
v -0.35782760 -0.31148583 0.22971153
v -0.35113052 -0.30997577 0.25001118
v -0.33624446 -0.23037484 0.30844089
v -0.32599995 -0.22994339 0.32998604
v -0.32427594 -0.12995687 0.34799129
v -0.32357970 -0.14991102 0.34674579
v -0.32288349 -0.16997305 0.34541288
v -0.32212093 -0.18992722 0.34399256
v -0.32132524 -0.20998925 0.34252852
v -0.32052955 -0.22994339 0.34099895
v -0.32460749 -0.09112714 0.35188079
v -0.32029748 -0.08519481 0.36057749
v -0.32076162 -0.06998651 0.36136413
v -0.31953496 -0.10989484 0.35915717
v -0.31989962 -0.09846164 0.35981271
v -0.32132524 -0.04992448 0.36234742
v -0.31926972 0.03000003 0.37281409
v -0.32016486 0.05006206 0.37281409
v -0.31737995 -0.00990829 0.37281409
v -0.31631902 -0.03083320 0.37281409
v -0.31834140 0.01004587 0.37281409
v -0.32099372 0.07001622 0.37281409
v -0.32178941 0.09007825 0.37281409
v -0.32212093 0.09913851 0.37281409
v -0.32251880 0.11003241 0.37281409
v -0.32374549 0.14994073 0.37281409
v -0.32430911 0.16967918 0.37281409
v -0.32314873 0.13009444 0.37281409
v -0.32550263 0.21487266 0.37281409
v -0.32599995 0.23471898 0.37281409
v -0.32636464 0.24992728 0.37281409
v -0.32689509 0.27441156 0.37281409
v -0.32732609 0.29436573 0.37281409
v -0.32765764 0.30989763 0.37281409
v -0.32805547 0.32995963 0.37281409
v -0.32842016 0.34991384 0.37281409
v -0.32914954 0.39392084 0.37281409
v -0.32944793 0.41387501 0.37281409
v -0.32964686 0.42994618 0.37281409
v -0.33007786 0.46996239 0.37281409
v -0.33027679 0.48991653 0.37281409
v -0.33044255 0.51364583 0.37281409
v -0.33057517 0.53359997 0.37281409
v -0.33070779 0.55366200 0.37281409
v -0.33087355 0.58990312 0.37281409
v -0.33080724 0.57361615 0.37281409
v -0.27295384 0.68039793 0.37281409
v -0.28253528 0.68029004 0.36492586
v -0.28949758 0.68061364 0.34897459
v -0.24951410 0.68039793 0.37281409
v -0.27043417 0.68061364 0.37281409
v -0.33979192 0.67996645 0.15849896
v -0.34758306 0.68029004 0.14958373
v -0.36309904 -0.40532434 0.14958373
v -0.33992454 -0.37965357 0.23978488
v -0.34164852 -0.36638674 0.24478877
v -0.35043430 -0.34999198 0.23001745
v -0.35888851 -0.32992995 0.21629499
v -0.36183921 -0.32992995 0.20628721
v -0.35454535 -0.32992995 0.23001745
v -0.33379108 -0.24989757 0.30999231
v -0.33183500 -0.26995960 0.30999231
v -0.34327307 -0.30976006 0.27111930
v -0.34042186 -0.30296487 0.28106153
v -0.33704016 -0.28991374 0.29307958
v -0.32954741 -0.28991374 0.30999231
v -0.34774882 -0.32992995 0.25001118
v -0.34207952 -0.32992995 0.26543802
v -0.32371232 -0.24838752 0.33134079
v -0.32006541 -0.24072942 0.34012491
v -0.31890503 -0.12995687 0.35797721
v -0.31820878 -0.14991102 0.35673171
v -0.31747940 -0.16997305 0.35539880
v -0.31671688 -0.18992722 0.35400033
v -0.31595433 -0.20998925 0.35253632
v -0.31509233 -0.22994339 0.35098487
v -0.31545702 -0.09112714 0.36833462
v -0.31499287 -0.06998651 0.37137192
v -0.31532443 -0.04949304 0.37281409
v -0.31200904 -0.12995687 0.36999530
v -0.31330204 -0.10989484 0.36999530
v -0.23293720 0.67554420 0.37281409
v -0.24517095 0.67878002 0.36619323
v -0.33452046 0.67683852 0.14958373
v -0.36147451 -0.40996230 0.14958373
v -0.31999910 -0.41999334 0.26001894
v -0.32689509 -0.40996230 0.25001118
v -0.33326063 -0.38990027 0.25001118
v -0.33810109 -0.37177974 0.25086337
v -0.33929461 -0.35689503 0.25811791
v -0.34333938 -0.35009983 0.25086337
v -0.32361287 -0.26995960 0.32732019
v -0.32248563 -0.28991374 0.32502583
v -0.33942723 -0.31623167 0.27854866
v -0.33621132 -0.30976006 0.28862199
v -0.32682878 -0.30997577 0.30999231
v -0.32112634 -0.30997577 0.32229444
v -0.34075338 -0.34352034 0.26202926
v -0.33823371 -0.32992995 0.27544579
v -0.31943548 -0.25410411 0.33892310
v -0.31502602 -0.24838752 0.34807870
v -0.31064972 -0.14991102 0.36999530
v -0.30919096 -0.16997305 0.36999530
v -0.30766588 -0.18992722 0.36999530
v -0.30498043 -0.21063641 0.37180895
v -0.30511305 -0.22994339 0.36879349
v -0.30421788 -0.24989757 0.36724207
v -0.31164435 -0.10989484 0.37281409
v -0.31413087 -0.06998651 0.37281409
v -0.31423032 -0.06836860 0.37281409
v -0.31035134 -0.12995687 0.37281409
v -0.31058341 -0.12639746 0.37281409
v -0.23151159 0.67500490 0.37281409
v -0.33173555 0.67554420 0.14958373
v -0.35912061 -0.41654181 0.14958373
v -0.31781095 -0.40996230 0.27439696
v -0.32168993 -0.40996230 0.26441100
v -0.35749605 -0.42074835 0.14958373
v -0.32026434 -0.42074835 0.25838012
v -0.31940234 -0.42074835 0.26076189
v -0.30736750 -0.42074835 0.28997675
v -0.32490587 -0.39130247 0.27151260
v -0.33150345 -0.36994612 0.26998302
v -0.33657598 -0.35009983 0.26921824
v -0.31863979 -0.26995960 0.33732799
v -0.31747940 -0.28991374 0.33501178
v -0.33226600 -0.32992995 0.28999859
v -0.32338077 -0.32885134 0.31073526
v -0.32026434 -0.32140899 0.32054636
v -0.31608695 -0.30997577 0.33230224
v -0.32825440 -0.34999198 0.28999859
v -0.31187642 -0.26995960 0.34997976
v -0.30322328 -0.26995960 0.36553770
v -0.30783165 -0.16587436 0.37281409
v -0.30899203 -0.14991102 0.37281409
v -0.30753326 -0.16997305 0.37281409
v -0.30600819 -0.18992722 0.37281409
v -0.30444998 -0.20988137 0.37281409
v -0.30315697 -0.22541326 0.37281409
v -0.30431736 -0.21149927 0.37281409
v -0.30183083 -0.24029800 0.37281409
v -0.30275911 -0.22994339 0.37281409
v -0.30096883 -0.24989757 0.37281409
v -0.21301177 0.66508174 0.37281409
v -0.31505919 0.66497391 0.15002075
v -0.31512550 0.66486603 0.14958373
v -0.31137910 -0.40996230 0.28999859
v -0.31966758 -0.39896059 0.27920419
v -0.21161930 -0.42074835 0.14958373
v -0.30149928 -0.42074835 0.30369920
v -0.32168993 -0.38558590 0.28405511
v -0.32344711 -0.36940682 0.29043561
v -0.30952251 -0.28991374 0.34997976
v -0.30544457 -0.31170154 0.35192448
v -0.32202148 -0.34999198 0.30448586
v -0.31900448 -0.33478364 0.31790239
v -0.31495970 -0.32885134 0.32832533
v -0.30441681 -0.32992995 0.34810054
v -0.32062903 -0.36239591 0.30140483
v -0.30202973 -0.28991374 0.36352739
v -0.29894644 -0.26995960 0.37281409
v -0.30020627 -0.25755563 0.37281409
v -0.29841596 -0.27448973 0.37281409
v -0.21002792 0.66314024 0.37281409
v -0.20213732 0.65494287 0.37281409
v -0.19696532 0.64771622 0.37281409
v -0.30988717 0.65742368 0.14958373
v -0.30309066 -0.40866798 0.30955529
v -0.31728047 -0.39130247 0.29043561
v -0.08643053 -0.42074835 0.37281409
v -0.26745030 0.42994618 0.14958373
v -0.30033889 -0.42074835 0.30621207
v -0.31887186 -0.37577057 0.29738426
v -0.30093566 -0.30620065 0.36162636
v -0.29990789 -0.31946748 0.35987827
v -0.31744626 -0.34999198 0.31449363
v -0.30985403 -0.34999198 0.32998604
v -0.30239442 -0.34999198 0.34436402
v -0.29891327 -0.32992995 0.35810834
v -0.31535757 -0.36940682 0.30883420
v -0.29655936 -0.28991374 0.37281409
v -0.19381571 0.64232320 0.37281409
v -0.30428419 0.64944202 0.14958373
v -0.29805127 -0.41449243 0.31593579
v -0.30043834 -0.40122563 0.32085228
v -0.30902520 -0.38990027 0.30999231
v -0.26423439 -0.42074835 0.37281409
v -0.14179739 0.38993001 0.37281409
v -0.26887593 0.44990036 0.14958373
v -0.29685774 -0.42074835 0.31335738
v -0.29573050 -0.31170154 0.36896831
v -0.29347605 -0.31137797 0.37281409
v -0.29642674 -0.29088449 0.37281409
v -0.29191783 -0.32992995 0.36999530
v -0.29022700 -0.32992995 0.37281409
v -0.29079059 -0.32680199 0.37281409
v -0.30454943 -0.36983830 0.33090377
v -0.30083621 -0.36315092 0.34156710
v -0.29682457 -0.34999198 0.35437179
v -0.28628168 -0.35160986 0.37185264
v -0.30216235 -0.38990027 0.32428288
v -0.18781486 0.63186073 0.37281409
v -0.30391949 0.64879483 0.14958373
v -0.29377443 -0.40866798 0.32850015
v -0.28866875 -0.42074835 0.32952714
v -0.29702350 -0.38990027 0.33429068
v -0.28366253 -0.40996230 0.34661469
v -0.26619047 -0.42074835 0.36962384
v -0.26841179 -0.40996230 0.37281409
v -0.14328930 0.40999204 0.37281409
v -0.26890910 0.45033181 0.14958373
v -0.28604960 -0.34999198 0.37281409
v -0.29904589 -0.37652558 0.33818018
v -0.29490167 -0.36983830 0.34893090
v -0.28435874 -0.36994612 0.36737317
v -0.28236952 -0.36530814 0.37281409
v -0.28551912 -0.35247275 0.37281409
v -0.18595827 0.62776208 0.37281409
v -0.29645988 0.63196862 0.14958373
v -0.28167331 -0.42074835 0.34305295
v -0.27991614 -0.39971560 0.35987827
v -0.28681213 -0.39184177 0.35192448
v -0.28067869 -0.42074835 0.34484476
v -0.27809268 -0.40996230 0.35662246
v -0.27610347 -0.42074835 0.35268927
v -0.27013576 -0.40996230 0.36999530
v -0.26940638 -0.40705007 0.37281409
v -0.27633554 -0.39184177 0.37003902
v -0.14435023 0.42218024 0.37281409
v -0.27043417 0.46996239 0.14958373
v -0.28197169 -0.38644874 0.36339629
v -0.28114283 -0.36994612 0.37281409
v -0.17909542 0.60996509 0.37281409
v -0.29616150 0.63110572 0.14958373
v -0.27474415 -0.39141035 0.37281409
v -0.27553985 -0.38882166 0.37281409
v -0.27713123 -0.38353652 0.37281409
v -0.27958462 -0.37533915 0.37281409
v -0.27225763 0.49045584 0.14958373
v -0.14504646 0.42994618 0.37281409
v -0.17286250 0.58990312 0.37281409
v -0.29602891 0.63067430 0.14958373
v -0.27414739 0.50997853 0.14958373
v -0.14686993 0.44752744 0.37281409
v -0.17253096 0.58871663 0.37281409
v -0.29009438 0.61028868 0.14958373
v -0.29297873 0.62021184 0.14958373
v -0.27653447 0.53144276 0.14958373
v -0.14703569 0.44903746 0.37281409
v -0.16788943 0.57113540 0.37281409
v -0.16699427 0.56746817 0.37281409
v -0.16311529 0.54999477 0.37281409
v -0.28558543 0.58990312 0.14958373
v -0.27898782 0.54999477 0.14958373
v -0.14945590 0.46920735 0.37281409
v -0.16072822 0.53813016 0.37281409
v -0.15913683 0.52993274 0.37281409
v -0.28223690 0.57145894 0.14958373
v -0.28187221 0.56908607 0.14958373
v -0.15240660 0.48991653 0.37281409
v -0.15608668 0.51267505 0.37281409
v -0.15562253 0.50997853 0.37281409
f 1 2 25
f 1 25 52
f 1 52 110
f 1 110 165
f 1 165 224
f 1 224 292
f 1 292 361
f 1 361 427
f 1 427 490
f 1 490 553
f 1 553 621
f 1 621 652
f 1 652 682
f 1 682 714
f 1 714 735
f 1 735 751
f 1 751 771
f 1 771 787
f 1 787 802
f 1 802 810
f 1 810 815
f 1 815 814
f 1 814 821
f 1 821 826
f 1 826 827
f 1 827 822
f 1 822 816
f 1 816 811
f 1 811 807
f 1 807 798
f 1 798 779
f 1 779 757
f 1 757 739
f 1 739 717
f 1 717 686
f 1 686 683
f 1 683 653
f 1 653 622
f 1 622 560
f 1 560 558
f 1 558 557
f 1 557 556
f 1 556 555
f 1 555 492
f 1 492 430
f 1 430 429
f 1 429 363
f 1 363 296
f 1 296 295
f 1 295 229
f 1 229 228
f 1 228 168
f 1 168 111
f 1 111 54
f 1 54 26
f 1 26 3
f 1 3 4
f 1 4 5
f 1 5 6
f 1 6 7
f 1 7 8
f 1 8 9
f 1 9 10
f 1 10 11
f 1 11 12
f 1 12 13
f 1 13 14
f 1 14 15
f 1 15 16
f 1 16 17
f 1 17 18
f 1 18 19
f 1 19 2
f 2 19 20
f 2 20 21
f 2 21 22
f 2 22 23
f 2 23 24
f 2 24 25
f 3 26 27
f 3 27 28
f 3 28 29
f 3 29 30
f 3 30 4
f 4 30 31
f 4 31 32
f 4 32 5
f 5 32 33
f 5 33 6
f 6 33 34
f 6 34 35
f 6 35 7
f 7 35 8
f 8 35 36
f 8 36 9
f 9 36 37
f 9 37 10
f 10 37 38
f 10 38 11
f 11 38 39
f 11 39 12
f 12 39 40
f 12 40 13
f 13 40 41
f 13 41 42
f 13 42 14
f 14 42 15
f 15 42 43
f 15 43 44
f 15 44 16
f 16 44 17
f 17 44 18
f 18 45 46
f 18 46 47
f 18 47 19
f 18 44 45
f 19 47 20
f 20 47 21
f 21 47 48
f 21 48 49
f 21 49 22
f 22 49 23
f 23 49 50
f 23 50 24
f 24 50 51
f 24 51 52
f 24 52 25
f 26 53 27
f 26 54 55
f 26 55 56
f 26 56 57
f 26 57 58
f 26 58 59
f 26 59 60
f 26 60 61
f 26 61 62
f 26 62 63
f 26 63 64
f 26 64 65
f 26 65 66
f 26 66 67
f 26 67 68
f 26 68 69
f 26 69 70
f 26 70 71
f 26 71 72
f 26 72 73
f 26 73 74
f 26 74 75
f 26 75 53
f 27 53 76
f 27 76 77
f 27 77 28
f 28 77 78
f 28 78 79
f 28 79 80
f 28 80 29
f 29 80 81
f 29 81 82
f 29 82 83
f 29 83 30
f 30 83 84
f 30 84 31
f 31 85 32
f 31 84 86
f 31 86 85
f 32 87 33
f 32 85 87
f 33 88 89
f 33 89 34
f 33 87 88
f 34 89 35
f 35 90 91
f 35 91 36
f 35 89 90
f 36 92 93
f 36 93 37
f 36 91 92
f 37 93 94
f 37 94 38
f 38 94 95
f 38 95 39
f 39 95 96
f 39 96 40
f 40 96 97
f 40 97 41
f 41 97 98
f 41 98 42
f 42 98 99
f 42 99 43
f 43 99 100
f 43 100 44
f 44 100 101
f 44 101 45
f 45 101 102
f 45 102 103
f 45 103 46
f 46 103 104
f 46 104 105
f 46 105 106
f 46 106 47
f 47 106 48
f 48 106 107
f 48 107 49
f 49 107 50
f 50 107 51
f 51 107 52
f 52 107 108
f 52 108 109
f 52 109 110
f 53 75 76
f 54 111 55
f 55 111 168
f 55 168 112
f 55 112 113
f 55 113 56
f 56 113 114
f 56 114 58
f 56 58 57
f 58 114 59
f 59 115 116
f 59 116 60
f 59 114 117
f 59 117 118
f 59 118 115
f 60 116 61
f 61 116 119
f 61 119 62
f 62 119 120
f 62 120 121
f 62 121 65
f 62 65 63
f 63 65 64
f 65 121 120
f 65 120 122
f 65 122 123
f 65 123 124
f 65 124 66
f 66 124 67
f 67 124 125
f 67 125 68
f 68 125 126
f 68 126 69
f 69 126 70
f 70 126 71
f 71 126 185
f 71 185 127
f 71 127 128
f 71 128 73
f 71 73 72
f 73 128 74
f 74 128 129
f 74 129 75
f 75 129 130
f 75 130 76
f 76 130 131
f 76 131 77
f 77 132 133
f 77 133 78
f 77 131 132
f 78 133 79
f 79 133 80
f 80 133 134
f 80 134 135
f 80 135 81
f 81 135 82
f 82 135 136
f 82 136 137
f 82 137 83
f 83 137 84
f 84 137 86
f 85 86 138
f 85 138 139
f 85 139 140
f 85 140 87
f 86 137 138
f 87 141 88
f 87 140 141
f 88 142 89
f 88 141 142
f 89 143 90
f 89 142 143
f 90 144 91
f 90 143 144
f 91 144 145
f 91 145 92
f 92 145 146
f 92 146 93
f 93 146 94
f 94 147 148
f 94 148 95
f 94 146 147
f 95 148 149
f 95 149 96
f 96 149 150
f 96 150 97
f 97 150 151
f 97 151 98
f 98 151 99
f 99 151 152
f 99 152 153
f 99 153 100
f 100 153 154
f 100 154 101
f 101 154 155
f 101 155 102
f 102 155 156
f 102 156 157
f 102 157 104
f 102 104 103
f 104 157 158
f 104 158 105
f 105 158 106
f 106 158 107
f 107 158 159
f 107 159 160
f 107 160 161
f 107 161 162
f 107 162 108
f 108 162 163
f 108 163 164
f 108 164 109
f 109 165 110
f 109 164 163
f 109 163 166
f 109 166 167
f 109 167 165
f 112 168 228
f 112 228 169
f 112 169 113
f 113 169 170
f 113 170 171
f 113 171 172
f 113 172 114
f 114 172 173
f 114 173 117
f 115 118 174
f 115 174 175
f 115 175 116
f 116 175 176
f 116 176 119
f 117 173 172
f 117 172 171
f 117 171 177
f 117 177 178
f 117 178 174
f 117 174 118
f 119 179 122
f 119 122 120
f 119 176 237
f 119 237 179
f 122 180 123
f 122 179 181
f 122 181 182
f 122 182 180
f 123 180 183
f 123 183 124
f 124 183 184
f 124 184 125
f 125 184 126
f 126 184 185
f 127 185 186
f 127 186 187
f 127 187 128
f 128 187 188
f 128 188 129
f 129 188 130
f 130 188 189
f 130 189 190
f 130 190 131
f 131 190 251
f 131 251 191
f 131 191 132
f 132 192 133
f 132 191 193
f 132 193 192
f 133 192 134
f 134 192 135
f 135 192 194
f 135 194 136
f 136 138 137
f 136 194 195
f 136 195 138
f 138 195 196
f 138 196 197
f 138 197 139
f 139 197 140
f 140 197 198
f 140 198 141
f 141 199 142
f 141 198 200
f 141 200 199
f 142 201 143
f 142 199 201
f 143 202 203
f 143 203 144
f 143 201 202
f 144 203 204
f 144 204 145
f 145 205 146
f 145 204 205
f 146 206 207
f 146 207 208
f 146 208 147
f 146 205 206
f 147 208 148
f 148 208 209
f 148 209 149
f 149 209 210
f 149 210 150
f 150 210 211
f 150 211 212
f 150 212 213
f 150 213 151
f 151 213 152
f 152 213 153
f 153 213 214
f 153 214 154
f 154 214 215
f 154 215 155
f 155 215 216
f 155 216 156
f 156 216 217
f 156 217 158
f 156 158 157
f 158 217 218
f 158 218 219
f 158 219 220
f 158 220 221
f 158 221 159
f 159 221 160
f 160 221 161
f 161 221 162
f 162 221 163
f 163 221 222
f 163 222 223
f 163 223 166
f 165 167 224
f 166 223 225
f 166 225 167
f 167 225 226
f 167 226 227
f 167 227 224
f 169 228 229
f 169 229 170
f 170 229 230
f 170 230 231
f 170 231 232
f 170 232 233
f 170 233 171
f 171 233 301
f 171 301 234
f 171 234 177
f 174 178 235
f 174 235 175
f 175 236 237
f 175 237 176
f 175 235 236
f 177 234 178
f 178 238 235
f 178 234 239
f 178 239 238
f 179 237 240
f 179 240 181
f 180 241 242
f 180 242 183
f 180 182 241
f 181 240 243
f 181 243 182
f 182 243 244
f 182 244 241
f 183 242 241
f 183 241 245
f 183 245 246
f 183 246 184
f 184 246 247
f 184 247 185
f 185 247 186
f 186 247 248
f 186 248 249
f 186 249 187
f 187 249 250
f 187 250 188
f 188 250 189
f 189 251 190
f 189 250 251
f 191 251 252
f 191 252 253
f 191 253 193
f 192 193 254
f 192 254 255
f 192 255 256
f 192 256 194
f 193 253 254
f 194 256 195
f 195 256 257
f 195 257 258
f 195 258 196
f 196 259 197
f 196 258 260
f 196 260 259
f 197 259 198
f 198 261 264
f 198 264 200
f 198 259 262
f 198 262 261
f 199 263 201
f 199 200 264
f 199 264 263
f 201 265 266
f 201 266 202
f 201 263 265
f 202 266 203
f 203 267 204
f 203 266 267
f 204 268 269
f 204 269 205
f 204 267 268
f 205 269 270
f 205 270 206
f 206 270 271
f 206 271 207
f 207 271 272
f 207 272 208
f 208 272 273
f 208 273 209
f 209 273 274
f 209 274 210
f 210 274 275
f 210 275 276
f 210 276 211
f 211 276 212
f 212 276 277
f 212 277 213
f 213 277 278
f 213 278 214
f 214 278 279
f 214 279 215
f 215 279 280
f 215 280 216
f 216 280 217
f 217 281 282
f 217 282 283
f 217 283 284
f 217 284 285
f 217 285 218
f 217 280 286
f 217 286 281
f 218 285 219
f 219 285 220
f 220 285 221
f 221 287 288
f 221 288 222
f 221 285 287
f 222 288 289
f 222 289 223
f 223 289 290
f 223 290 291
f 223 291 225
f 224 227 292
f 225 291 293
f 225 293 227
f 225 227 226
f 227 293 294
f 227 294 292
f 229 295 230
f 230 295 296
f 230 296 363
f 230 363 297
f 230 297 231
f 231 297 298
f 231 298 232
f 232 298 299
f 232 299 300
f 232 300 301
f 232 301 233
f 234 301 239
f 235 238 302
f 235 302 236
f 236 302 303
f 236 303 304
f 236 304 237
f 237 304 240
f 238 239 305
f 238 305 306
f 238 306 302
f 239 301 307
f 239 307 305
f 240 308 243
f 240 304 309
f 240 309 310
f 240 310 308
f 241 311 312
f 241 312 245
f 241 244 313
f 241 313 311
f 243 308 314
f 243 314 313
f 243 313 244
f 245 312 315
f 245 315 246
f 246 315 247
f 247 315 316
f 247 316 248
f 248 316 317
f 248 317 249
f 249 317 318
f 249 318 250
f 250 318 319
f 250 319 251
f 251 319 252
f 252 320 253
f 252 319 321
f 252 321 320
f 253 320 322
f 253 322 254
f 254 323 256
f 254 256 255
f 254 322 323
f 256 323 257
f 257 323 258
f 258 324 260
f 258 323 324
f 259 260 324
f 259 324 325
f 259 325 326
f 259 326 262
f 261 262 327
f 261 327 264
f 262 326 327
f 263 328 329
f 263 329 265
f 263 264 330
f 263 330 328
f 264 327 330
f 265 331 266
f 265 329 331
f 266 332 267
f 266 331 332
f 267 333 268
f 267 332 333
f 268 334 269
f 268 333 334
f 269 335 270
f 269 334 335
f 270 336 271
f 270 335 336
f 271 336 272
f 272 336 337
f 272 337 338
f 272 338 273
f 273 338 339
f 273 339 340
f 273 340 274
f 274 340 275
f 275 340 341
f 275 341 342
f 275 342 276
f 276 342 343
f 276 343 277
f 277 343 344
f 277 344 278
f 278 344 345
f 278 345 279
f 279 345 286
f 279 286 280
f 281 286 346
f 281 346 347
f 281 347 348
f 281 348 349
f 281 349 350
f 281 350 351
f 281 351 283
f 281 283 282
f 283 352 353
f 283 353 285
f 283 285 284
f 283 351 350
f 283 350 354
f 283 354 352
f 285 353 287
f 286 345 346
f 287 353 355
f 287 355 288
f 288 355 356
f 288 356 289
f 289 356 357
f 289 357 358
f 289 358 291
f 289 291 290
f 291 358 359
f 291 359 293
f 292 294 360
f 292 360 361
f 293 359 294
f 294 359 362
f 294 362 360
f 297 363 429
f 297 429 364
f 297 364 365
f 297 365 298
f 298 365 299
f 299 365 366
f 299 366 367
f 299 367 300
f 300 367 307
f 300 307 301
f 302 368 369
f 302 369 303
f 302 306 368
f 303 369 304
f 304 369 370
f 304 370 310
f 304 310 309
f 305 307 371
f 305 371 372
f 305 372 306
f 306 373 368
f 306 372 373
f 307 367 374
f 307 374 371
f 308 310 375
f 308 375 314
f 310 370 376
f 310 376 377
f 310 377 375
f 311 378 379
f 311 379 315
f 311 315 312
f 311 313 380
f 311 380 378
f 313 314 381
f 313 381 380
f 314 375 382
f 314 382 381
f 315 379 383
f 315 383 317
f 315 317 316
f 317 383 384
f 317 384 385
f 317 385 318
f 318 385 386
f 318 386 387
f 318 387 319
f 319 387 321
f 320 388 390
f 320 390 322
f 320 321 389
f 320 389 388
f 321 387 389
f 322 390 391
f 322 391 323
f 323 391 392
f 323 392 393
f 323 393 324
f 324 394 395
f 324 395 325
f 324 393 394
f 325 395 326
f 326 395 396
f 326 396 327
f 327 397 330
f 327 396 397
f 328 330 398
f 328 398 329
f 329 399 331
f 329 398 399
f 330 397 398
f 331 400 332
f 331 399 400
f 332 400 333
f 333 401 334
f 333 400 401
f 334 401 335
f 335 402 336
f 335 401 403
f 335 403 402
f 336 402 404
f 336 404 337
f 337 404 338
f 338 404 405
f 338 405 406
f 338 406 339
f 339 406 407
f 339 407 340
f 340 407 408
f 340 408 409
f 340 409 341
f 341 409 342
f 342 409 343
f 343 409 410
f 343 410 344
f 344 410 411
f 344 411 345
f 345 411 346
f 346 411 347
f 347 412 348
f 347 411 413
f 347 413 412
f 348 412 414
f 348 414 481
f 348 481 544
f 348 544 613
f 348 613 614
f 348 614 612
f 348 612 611
f 348 611 610
f 348 610 609
f 348 609 608
f 348 608 607
f 348 607 606
f 348 606 605
f 348 605 604
f 348 604 603
f 348 603 602
f 348 602 601
f 348 601 600
f 348 600 599
f 348 599 598
f 348 598 597
f 348 597 595
f 348 595 594
f 348 594 596
f 348 596 593
f 348 593 592
f 348 592 591
f 348 591 590
f 348 590 586
f 348 586 585
f 348 585 589
f 348 589 587
f 348 587 588
f 348 588 647
f 348 647 678
f 348 678 677
f 348 677 676
f 348 676 680
f 348 680 679
f 348 679 703
f 348 703 702
f 348 702 704
f 348 704 705
f 348 705 706
f 348 706 708
f 348 708 707
f 348 707 710
f 348 710 709
f 348 709 711
f 348 711 730
f 348 730 729
f 348 729 731
f 348 731 749
f 348 749 761
f 348 761 760
f 348 760 764
f 348 764 763
f 348 763 780
f 348 780 785
f 348 785 784
f 348 784 800
f 348 800 806
f 348 806 805
f 348 805 804
f 348 804 803
f 348 803 795
f 348 795 777
f 348 777 755
f 348 755 738
f 348 738 756
f 348 756 778
f 348 778 797
f 348 797 808
f 348 808 812
f 348 812 817
f 348 817 823
f 348 823 828
f 348 828 830
f 348 830 829
f 348 829 825
f 348 825 824
f 348 824 820
f 348 820 819
f 348 819 818
f 348 818 813
f 348 813 809
f 348 809 801
f 348 801 786
f 348 786 770
f 348 770 750
f 348 750 734
f 348 734 733
f 348 733 732
f 348 732 712
f 348 712 681
f 348 681 650
f 348 650 618
f 348 618 552
f 348 552 619
f 348 619 615
f 348 615 545
f 348 545 482
f 348 482 416
f 348 416 415
f 348 415 354
f 348 354 349
f 349 354 350
f 352 354 415
f 352 415 416
f 352 416 417
f 352 417 418
f 352 418 353
f 353 418 355
f 355 418 419
f 355 419 420
f 355 420 356
f 356 420 357
f 357 420 421
f 357 421 358
f 358 421 422
f 358 422 423
f 358 423 424
f 358 424 359
f 359 423 362
f 359 424 423
f 360 362 425
f 360 425 361
f 361 425 426
f 361 426 427
f 362 423 428
f 362 428 425
f 364 429 430
f 364 430 431
f 364 431 365
f 365 431 366
f 366 431 432
f 366 432 367
f 367 432 433
f 367 433 374
f 368 376 369
f 368 373 434
f 368 434 376
f 369 376 370
f 371 374 435
f 371 435 436
f 371 436 372
f 372 436 437
f 372 437 373
f 373 437 438
f 373 438 434
f 374 433 439
f 374 439 440
f 374 440 435
f 375 377 441
f 375 441 382
f 376 442 377
f 376 434 442
f 377 442 443
f 377 443 441
f 378 444 379
f 378 380 445
f 378 445 444
f 379 444 446
f 379 446 383
f 380 447 445
f 380 381 448
f 380 448 447
f 381 382 449
f 381 449 448
f 382 441 449
f 383 446 384
f 384 446 450
f 384 450 451
f 384 451 385
f 385 451 452
f 385 452 453
f 385 453 386
f 386 453 454
f 386 454 387
f 387 454 389
f 388 455 390
f 388 389 456
f 388 456 457
f 388 457 455
f 389 454 456
f 390 458 459
f 390 459 391
f 390 455 458
f 391 459 392
f 392 460 393
f 392 459 458
f 392 458 461
f 392 461 460
f 393 460 462
f 393 462 394
f 394 462 463
f 394 463 395
f 395 463 396
f 396 463 464
f 396 464 397
f 397 465 398
f 397 464 465
f 398 465 466
f 398 466 467
f 398 467 468
f 398 468 399
f 399 468 469
f 399 469 400
f 400 469 470
f 400 470 401
f 401 471 403
f 401 470 471
f 402 472 473
f 402 473 404
f 402 403 471
f 402 471 472
f 404 473 474
f 404 474 405
f 405 474 475
f 405 475 406
f 406 475 476
f 406 476 407
f 407 476 477
f 407 477 408
f 408 477 478
f 408 478 409
f 409 478 479
f 409 479 410
f 410 479 413
f 410 413 411
f 412 413 480
f 412 480 414
f 413 479 480
f 414 480 481
f 416 482 417
f 417 482 483
f 417 483 418
f 418 483 419
f 419 483 420
f 420 484 421
f 420 483 484
f 421 484 485
f 421 485 422
f 422 485 423
f 423 485 486
f 423 486 487
f 423 487 428
f 425 428 488
f 425 488 426
f 426 488 427
f 427 488 489
f 427 489 490
f 428 487 491
f 428 491 488
f 430 492 431
f 431 492 493
f 431 493 432
f 432 493 494
f 432 494 495
f 432 495 433
f 433 495 496
f 433 496 439
f 434 438 497
f 434 497 498
f 434 498 442
f 435 440 499
f 435 499 436
f 436 499 500
f 436 500 437
f 437 500 501
f 437 501 438
f 438 501 502
f 438 502 497
f 439 496 503
f 439 503 504
f 439 504 440
f 440 505 499
f 440 504 505
f 441 506 449
f 441 443 507
f 441 507 506
f 442 498 508
f 442 508 443
f 443 508 507
f 444 509 510
f 444 510 450
f 444 450 446
f 444 445 509
f 445 447 511
f 445 511 509
f 447 448 512
f 447 512 511
f 448 449 513
f 448 513 512
f 449 506 514
f 449 514 515
f 449 515 513
f 450 516 451
f 450 510 517
f 450 517 516
f 451 516 518
f 451 518 452
f 452 518 453
f 453 518 519
f 453 519 454
f 454 519 520
f 454 520 456
f 455 457 521
f 455 521 458
f 456 520 522
f 456 522 523
f 456 523 524
f 456 524 457
f 457 524 521
f 458 525 460
f 458 460 461
f 458 521 526
f 458 526 525
f 460 527 462
f 460 525 528
f 460 528 527
f 462 527 463
f 463 529 464
f 463 527 530
f 463 530 529
f 464 529 531
f 464 531 465
f 465 532 466
f 465 531 532
f 466 532 533
f 466 533 467
f 467 533 468
f 468 534 469
f 468 533 534
f 469 534 470
f 470 535 471
f 470 534 535
f 471 536 472
f 471 535 536
f 472 536 537
f 472 537 473
f 473 537 538
f 473 538 539
f 473 539 474
f 474 539 475
f 475 539 540
f 475 540 541
f 475 541 476
f 476 541 477
f 477 541 542
f 477 542 478
f 478 542 543
f 478 543 479
f 479 543 480
f 480 543 544
f 480 544 481
f 482 545 546
f 482 546 483
f 483 546 547
f 483 547 484
f 484 547 548
f 484 548 485
f 485 548 486
f 486 548 549
f 486 549 487
f 487 549 550
f 487 550 491
f 488 491 551
f 488 551 489
f 489 551 552
f 489 552 553
f 489 553 490
f 491 554 551
f 491 550 554
f 492 555 494
f 492 494 493
f 494 555 556
f 494 556 495
f 495 556 557
f 495 557 558
f 495 558 559
f 495 559 496
f 496 559 560
f 496 560 561
f 496 561 562
f 496 562 503
f 497 563 564
f 497 564 498
f 497 502 568
f 497 568 563
f 498 564 508
f 499 505 565
f 499 565 500
f 500 565 501
f 501 565 566
f 501 566 567
f 501 567 502
f 502 567 633
f 502 633 568
f 503 562 504
f 504 562 569
f 504 569 505
f 505 569 570
f 505 570 565
f 506 507 514
f 507 508 571
f 507 571 572
f 507 572 514
f 508 564 571
f 509 511 510
f 510 511 573
f 510 573 517
f 511 512 573
f 512 574 573
f 512 513 575
f 512 575 574
f 513 515 576
f 513 576 575
f 514 577 515
f 514 572 578
f 514 578 577
f 515 577 576
f 516 517 579
f 516 579 580
f 516 580 581
f 516 581 518
f 517 582 583
f 517 583 579
f 517 573 639
f 517 639 582
f 518 581 584
f 518 584 519
f 519 522 520
f 519 584 522
f 521 524 585
f 521 585 586
f 521 586 526
f 522 587 523
f 522 584 588
f 522 588 587
f 523 587 524
f 524 587 589
f 524 589 585
f 525 590 591
f 525 591 528
f 525 526 586
f 525 586 590
f 527 528 591
f 527 591 592
f 527 592 593
f 527 593 530
f 529 594 595
f 529 595 531
f 529 530 594
f 530 596 594
f 530 593 596
f 531 595 532
f 532 597 598
f 532 598 533
f 532 595 597
f 533 598 599
f 533 599 600
f 533 600 601
f 533 601 534
f 534 601 602
f 534 602 535
f 535 603 604
f 535 604 605
f 535 605 536
f 535 602 603
f 536 605 606
f 536 606 537
f 537 606 538
f 538 606 607
f 538 607 608
f 538 608 539
f 539 608 609
f 539 609 540
f 540 609 541
f 541 610 611
f 541 611 612
f 541 612 542
f 541 609 610
f 542 612 614
f 542 614 543
f 543 613 544
f 543 614 613
f 545 547 546
f 545 615 616
f 545 616 547
f 547 616 548
f 548 616 617
f 548 617 549
f 549 617 550
f 550 617 554
f 551 554 552
f 552 618 553
f 552 554 619
f 553 618 620
f 553 620 621
f 554 617 619
f 558 560 559
f 560 622 623
f 560 623 624
f 560 624 625
f 560 625 626
f 560 626 627
f 560 627 561
f 561 627 562
f 562 627 626
f 562 626 628
f 562 628 569
f 563 629 564
f 563 568 630
f 563 630 629
f 564 629 571
f 565 570 631
f 565 631 566
f 566 631 632
f 566 632 567
f 567 632 633
f 568 633 634
f 568 634 630
f 569 628 635
f 569 635 570
f 570 635 636
f 570 636 631
f 571 629 572
f 572 629 637
f 572 637 638
f 572 638 578
f 573 574 640
f 573 640 639
f 574 575 640
f 575 641 640
f 575 576 642
f 575 642 641
f 576 577 643
f 576 643 642
f 577 578 643
f 578 644 643
f 578 638 644
f 579 583 580
f 580 583 645
f 580 645 646
f 580 646 581
f 581 646 647
f 581 647 584
f 582 639 648
f 582 648 583
f 583 648 649
f 583 649 645
f 584 647 588
f 615 619 616
f 616 619 617
f 618 650 651
f 618 651 620
f 620 651 652
f 620 652 621
f 622 653 654
f 622 654 655
f 622 655 656
f 622 656 623
f 623 656 657
f 623 657 624
f 624 658 659
f 624 659 625
f 624 657 658
f 625 659 628
f 625 628 626
f 628 659 635
f 629 630 660
f 629 660 637
f 630 634 661
f 630 661 660
f 631 636 662
f 631 662 632
f 632 662 663
f 632 663 633
f 633 663 664
f 633 664 634
f 634 664 665
f 634 665 661
f 635 659 666
f 635 666 636
f 636 666 667
f 636 667 662
f 637 660 668
f 637 668 638
f 638 668 669
f 638 669 644
f 639 640 670
f 639 670 648
f 640 641 671
f 640 671 670
f 641 642 672
f 641 672 671
f 642 643 672
f 643 673 672
f 643 644 674
f 643 674 673
f 644 669 675
f 644 675 674
f 645 649 676
f 645 676 646
f 646 677 678
f 646 678 647
f 646 676 677
f 648 679 680
f 648 680 649
f 648 670 703
f 648 703 679
f 649 680 676
f 650 681 652
f 650 652 651
f 652 681 682
f 653 683 654
f 654 684 685
f 654 685 655
f 654 683 686
f 654 686 687
f 654 687 688
f 654 688 689
f 654 689 684
f 655 685 656
f 656 690 657
f 656 685 690
f 657 690 691
f 657 691 658
f 658 692 666
f 658 666 659
f 658 691 692
f 660 693 668
f 660 661 693
f 661 694 693
f 661 665 694
f 662 667 695
f 662 695 663
f 663 695 696
f 663 696 664
f 664 696 697
f 664 697 665
f 665 697 698
f 665 698 694
f 666 692 667
f 667 692 699
f 667 699 695
f 668 693 700
f 668 700 669
f 669 700 701
f 669 701 675
f 670 671 702
f 670 702 703
f 671 704 702
f 671 672 705
f 671 705 704
f 672 673 706
f 672 706 705
f 673 674 707
f 673 707 708
f 673 708 706
f 674 709 710
f 674 710 707
f 674 675 711
f 674 711 709
f 675 701 711
f 681 712 682
f 682 712 713
f 682 713 714
f 684 689 715
f 684 715 716
f 684 716 685
f 685 716 690
f 686 717 738
f 686 738 755
f 686 755 776
f 686 776 793
f 686 793 791
f 686 791 788
f 686 788 773
f 686 773 758
f 686 758 740
f 686 740 718
f 686 718 689
f 686 689 688
f 686 688 687
f 689 718 715
f 690 716 719
f 690 719 691
f 691 719 720
f 691 720 692
f 692 720 699
f 693 694 721
f 693 721 700
f 694 698 722
f 694 722 721
f 695 699 723
f 695 723 696
f 696 723 724
f 696 724 697
f 697 724 725
f 697 725 698
f 698 725 726
f 698 726 722
f 699 720 727
f 699 727 723
f 700 721 728
f 700 728 701
f 701 729 730
f 701 730 711
f 701 728 731
f 701 731 729
f 712 732 713
f 713 732 714
f 714 732 733
f 714 733 734
f 714 734 735
f 715 736 737
f 715 737 716
f 715 718 736
f 716 737 719
f 717 739 738
f 718 740 736
f 719 741 720
f 719 737 741
f 720 741 727
f 721 722 742
f 721 742 728
f 722 726 743
f 722 743 742
f 723 744 724
f 723 727 744
f 724 744 745
f 724 745 725
f 725 745 746
f 725 746 726
f 726 747 743
f 726 746 747
f 727 741 748
f 727 748 744
f 728 749 731
f 728 742 749
f 734 750 751
f 734 751 735
f 736 740 752
f 736 752 753
f 736 753 754
f 736 754 737
f 737 754 741
f 738 739 756
f 739 757 756
f 740 758 752
f 741 754 748
f 742 743 759
f 742 759 760
f 742 760 761
f 742 761 749
f 743 747 762
f 743 762 763
f 743 763 764
f 743 764 760
f 743 760 759
f 744 748 765
f 744 765 745
f 745 765 766
f 745 766 746
f 746 766 767
f 746 767 747
f 747 767 768
f 747 768 762
f 748 754 769
f 748 769 765
f 750 770 751
f 751 770 771
f 752 772 753
f 752 758 773
f 752 773 772
f 753 774 769
f 753 769 754
f 753 772 775
f 753 775 774
f 755 777 776
f 756 757 778
f 757 779 778
f 762 768 780
f 762 780 763
f 765 769 781
f 765 781 766
f 766 781 782
f 766 782 783
f 766 783 767
f 767 783 784
f 767 784 785
f 767 785 768
f 768 785 780
f 769 774 781
f 770 786 771
f 771 786 787
f 772 773 788
f 772 788 775
f 774 775 789
f 774 789 790
f 774 790 781
f 775 788 791
f 775 791 792
f 775 792 789
f 776 777 794
f 776 794 792
f 776 792 793
f 777 795 796
f 777 796 789
f 777 789 794
f 778 779 798
f 778 798 797
f 781 790 799
f 781 799 782
f 782 799 783
f 783 799 800
f 783 800 784
f 786 801 787
f 787 801 802
f 789 796 799
f 789 799 790
f 789 792 794
f 791 793 792
f 795 803 796
f 796 803 804
f 796 804 805
f 796 805 806
f 796 806 799
f 797 798 807
f 797 807 808
f 799 806 800
f 801 809 802
f 802 809 810
f 807 811 808
f 808 811 812
f 809 813 814
f 809 814 815
f 809 815 810
f 811 816 817
f 811 817 812
f 813 818 814
f 814 818 819
f 814 819 820
f 814 820 821
f 816 822 823
f 816 823 817
f 820 824 821
f 821 824 825
f 821 825 826
f 822 827 828
f 822 828 823
f 825 829 826
f 826 829 830
f 826 830 828
f 826 828 827
