v 0.19246405 -0.48561084 -0.64339536
v 0.20753746 -0.48561084 -0.64532518
v 0.19246405 -0.48561084 -0.47956982
v 0.19246405 -0.46997166 -0.65150577
v 0.21002325 -0.46997166 -0.65380073
v 0.21002325 -0.48561084 -0.64563811
v 0.46262175 -0.48561084 -0.45800287
v 0.19246405 0.48983920 -0.57032323
v 0.19246405 -0.45570236 -0.65818191
v 0.21002325 -0.45832795 -0.65930331
v 0.22086552 -0.45981193 -0.65990311
v 0.22850800 -0.46860182 -0.65635639
v 0.23009467 -0.48561084 -0.64754188
v 0.46262175 -0.48561084 -0.62699193
v 0.46262175 0.48983920 -0.54925174
v 0.19246405 0.49235064 -0.57055795
v 0.19246405 -0.44565678 -0.66232842
v 0.21002325 -0.44828236 -0.66344976
v 0.23416713 -0.46106762 -0.66050291
v 0.22850800 -0.45182115 -0.66384095
v 0.25003389 -0.47225475 -0.65627819
v 0.25003389 -0.48561084 -0.64913267
v 0.45095968 -0.48561084 -0.63009530
v 0.44998124 -0.47408122 -0.63700610
v 0.46262175 -0.48138714 -0.62941724
v 0.46262175 0.50993043 -0.55125982
v 0.19246405 0.50993043 -0.57235736
v 0.19246405 -0.42990345 -0.66822213
v 0.21002325 -0.42990345 -0.67043883
v 0.23001534 -0.42990345 -0.67239475
v 0.25003389 -0.44988048 -0.66621411
v 0.25003389 -0.46220917 -0.66105056
v 0.27002597 -0.47316802 -0.65666938
v 0.27002597 -0.46312243 -0.66146779
v 0.27002597 -0.48561084 -0.64999324
v 0.44418988 -0.48561084 -0.63184255
v 0.43474919 -0.47773421 -0.63885766
v 0.44998124 -0.46403563 -0.64198709
v 0.46177551 -0.46095347 -0.64047456
v 0.46262175 -0.46186674 -0.63979650
v 0.46262175 -0.47042829 -0.63538921
v 0.46262175 0.52248740 -0.55272019
v 0.19246405 0.52990746 -0.57467836
v 0.19246405 -0.41243780 -0.67403769
v 0.20981169 -0.40878487 -0.67737573
v 0.23001534 -0.41335106 -0.67794943
v 0.25003389 -0.41563416 -0.67865360
v 0.25003389 -0.42990345 -0.67385513
v 0.27002597 -0.44988048 -0.66707468
v 0.29001805 -0.47339630 -0.65679973
v 0.29001805 -0.44988048 -0.66730940
v 0.29001805 -0.46335071 -0.66159821
v 0.29001805 -0.48561084 -0.65022796
v 0.43030649 -0.48561084 -0.63518059
v 0.42142111 -0.48047388 -0.64029199
v 0.42882559 -0.47065663 -0.64360398
v 0.42998916 -0.44988048 -0.65283579
v 0.44998124 -0.44988048 -0.64824599
v 0.46262175 -0.45969778 -0.64078748
v 0.46262175 0.52956498 -0.55355471
v 0.19246405 0.54977030 -0.57731229
v 0.19246405 -0.40981227 -0.67489827
v 0.20298900 -0.39873928 -0.67964458
v 0.21631706 -0.40125072 -0.68037474
v 0.23001534 -0.40330547 -0.68100065
v 0.25003389 -0.40570271 -0.68170476
v 0.27002597 -0.41711813 -0.67909694
v 0.27002597 -0.42990345 -0.67468965
v 0.29001805 -0.42990345 -0.67495042
v 0.31003660 -0.47305387 -0.65659112
v 0.31003660 -0.46300828 -0.66144174
v 0.31003660 -0.44988048 -0.66697037
v 0.31003660 -0.42990345 -0.67463750
v 0.31003660 -0.48561084 -0.64978462
v 0.42636624 -0.48561084 -0.63606727
v 0.40997061 -0.48561084 -0.63932711
v 0.40997061 -0.48230034 -0.64133513
v 0.40997061 -0.46997166 -0.64759403
v 0.41100195 -0.44930971 -0.65682584
v 0.41835356 -0.43914998 -0.65969443
v 0.42998916 -0.43583947 -0.65849483
v 0.46262175 -0.44999462 -0.64488184
v 0.44966391 -0.42910439 -0.65638250
v 0.46262175 -0.42967516 -0.65278363
v 0.46262175 0.54246444 -0.55530196
v 0.46262175 0.54988450 -0.55637121
v 0.19246405 0.56529534 -0.57963330
v 0.19246405 -0.39599961 -0.67894042
v 0.19246405 -0.38789463 -0.68105280
v 0.20981169 -0.39120513 -0.68233067
v 0.23001534 -0.38994938 -0.68459952
v 0.25003389 -0.38994938 -0.68600774
v 0.27002597 -0.38994938 -0.68684226
v 0.27002597 -0.40707254 -0.68212205
v 0.29001805 -0.40752918 -0.68225241
v 0.29001805 -0.41746062 -0.67922729
v 0.32997581 -0.46198088 -0.66094625
v 0.32997581 -0.47202647 -0.65606952
v 0.32997581 -0.48561084 -0.64876753
v 0.32495132 -0.48561084 -0.64902830
v 0.32997581 -0.44988048 -0.66605765
v 0.31003660 -0.41688985 -0.67907083
v 0.32997581 -0.42990345 -0.67369866
v 0.38997853 -0.48561084 -0.64263910
v 0.38997853 -0.48515421 -0.64295202
v 0.38997853 -0.46997166 -0.65085381
v 0.38997853 -0.45490330 -0.65786898
v 0.40497258 -0.44211799 -0.66089410
v 0.41100195 -0.43138748 -0.66368449
v 0.42998916 -0.42579389 -0.66204154
v 0.44276187 -0.42191267 -0.66065937
v 0.45611638 -0.41688985 -0.65901643
v 0.46262175 -0.42294002 -0.65515679
v 0.46262175 0.56483871 -0.55877042
v 0.19246405 0.57671076 -0.58151090
v 0.19246405 -0.38606817 -0.68149614
v 0.21002325 -0.36997235 -0.68746811
v 0.23001534 -0.36997235 -0.68937188
v 0.25003389 -0.36997235 -0.69075406
v 0.29001805 -0.38994938 -0.68707693
v 0.27002597 -0.36997235 -0.69158852
v 0.31003660 -0.40695840 -0.68209594
v 0.34512854 -0.46083933 -0.66042465
v 0.34282786 -0.48561084 -0.64775050
v 0.35107857 -0.46848768 -0.65617383
v 0.35107857 -0.45170695 -0.66373664
v 0.34996790 -0.42990345 -0.67223823
v 0.32997581 -0.41540587 -0.67860144
v 0.38553584 -0.48561084 -0.64323890
v 0.36995998 -0.48561084 -0.64519477
v 0.36995998 -0.46997166 -0.65348774
v 0.36995998 -0.45809960 -0.65919900
v 0.38997853 -0.44497186 -0.66204154
v 0.38997853 -0.42990345 -0.66764843
v 0.40997061 -0.40992641 -0.67096043
v 0.42998916 -0.40992641 -0.66712683
v 0.44966391 -0.41004056 -0.66264135
v 0.46262175 -0.40227807 -0.66175467
v 0.46262175 -0.40410453 -0.66120702
v 0.46262175 -0.41380769 -0.65820801
v 0.46262175 0.57579756 -0.56072628
v 0.19246405 0.58983856 -0.58393621
v 0.19246405 -0.36997235 -0.68532968
v 0.19246405 -0.34999532 -0.68945009
v 0.21002325 -0.34999532 -0.69156247
v 0.23001534 -0.34999532 -0.69346619
v 0.25003389 -0.34999532 -0.69482231
v 0.31003660 -0.38994938 -0.68671185
v 0.29001805 -0.36997235 -0.69182324
v 0.31003660 -0.36997235 -0.69148421
v 0.27002597 -0.34999532 -0.69560462
v 0.32997581 -0.38994938 -0.68582517
v 0.32997581 -0.40536022 -0.68160045
v 0.35845661 -0.45958364 -0.65982485
v 0.34893656 -0.48561084 -0.64722890
v 0.36818820 -0.48561084 -0.64540339
v 0.36995998 -0.44805402 -0.66331935
v 0.34996790 -0.41300857 -0.67787123
v 0.36995998 -0.42990345 -0.67023021
v 0.34996790 -0.40296298 -0.68089634
v 0.38997853 -0.40992641 -0.67422020
v 0.38997853 -0.39474392 -0.67862749
v 0.40909794 -0.38869369 -0.67708886
v 0.42998916 -0.38994938 -0.67275983
v 0.44998124 -0.38994938 -0.66830039
v 0.46262175 -0.39017773 -0.66496235
v 0.46262175 0.59109426 -0.56372535
v 0.19246405 0.60981560 -0.58829135
v 0.19246405 -0.32990414 -0.69291854
v 0.21002325 -0.32990414 -0.69503093
v 0.23001534 -0.32990414 -0.69690859
v 0.25074789 -0.32842016 -0.69849938
v 0.27002597 -0.33184475 -0.69870800
v 0.29001805 -0.34999532 -0.69583935
v 0.31003660 -0.34999532 -0.69552642
v 0.32997581 -0.36997235 -0.69059753
v 0.29001805 -0.33264387 -0.69883835
v 0.34996790 -0.38994938 -0.68439084
v 0.34996790 -0.36997235 -0.68918931
v 0.36292574 -0.40102237 -0.68032259
v 0.36972198 -0.40855658 -0.67721927
v 0.37622735 -0.39828271 -0.67954028
v 0.38997853 -0.38469827 -0.68120927
v 0.40185213 -0.38127369 -0.68032259
v 0.41520664 -0.37613672 -0.67912298
v 0.42985693 -0.36962992 -0.67771477
v 0.44998124 -0.36997235 -0.67317706
v 0.46262175 -0.36997235 -0.66991723
v 0.46262175 0.60981560 -0.56823695
v 0.19246405 0.61244112 -0.58899546
v 0.19246405 -0.31243849 -0.69547427
v 0.23001534 -0.31426495 -0.69922954
v 0.21126615 -0.30969882 -0.69810820
v 0.24450696 -0.31814623 -0.69975114
v 0.25786147 -0.32065761 -0.70009017
v 0.27002597 -0.32191330 -0.70027268
v 0.31003660 -0.33150232 -0.69868189
v 0.32997581 -0.34999532 -0.69463974
v 0.29001805 -0.32259828 -0.70040309
v 0.36972198 -0.39097679 -0.68217421
v 0.36995998 -0.36997235 -0.68720734
v 0.34996790 -0.34999532 -0.69320542
v 0.36995998 -0.34999532 -0.69124955
v 0.38997853 -0.36997235 -0.68462557
v 0.40909794 -0.36962992 -0.68162656
v 0.42308712 -0.36278063 -0.68060946
v 0.43644163 -0.35615969 -0.67925340
v 0.44934657 -0.34965289 -0.67753220
v 0.46262175 -0.34988117 -0.67411590
v 0.46262175 0.62260091 -0.57220089
v 0.19246405 0.63013512 -0.59389824
v 0.19246405 -0.30969882 -0.69586545
v 0.21536505 -0.30969882 -0.69849938
v 0.21890862 -0.30079478 -0.70011622
v 0.23001534 -0.30969882 -0.69982934
v 0.23572737 -0.30969882 -0.70024663
v 0.21134548 -0.30844313 -0.69829071
v 0.24715142 -0.30969882 -0.70095074
v 0.25069499 -0.30969882 -0.70115936
v 0.26978797 -0.30969882 -0.70191568
v 0.31003660 -0.32145673 -0.70022053
v 0.32093176 -0.32031518 -0.70003802
v 0.32849491 -0.32819182 -0.69836897
v 0.34996790 -0.32990414 -0.69659561
v 0.28978005 -0.30969882 -0.70212430
v 0.29001805 -0.30969882 -0.70212430
v 0.38997853 -0.34999532 -0.68866777
v 0.36995998 -0.32990414 -0.69463974
v 0.38997853 -0.32990414 -0.69208401
v 0.40997061 -0.34999532 -0.68548614
v 0.42985693 -0.34965289 -0.68180907
v 0.44228587 -0.34280360 -0.68053126
v 0.45564038 -0.33344293 -0.67894042
v 0.46262175 -0.34143376 -0.67568064
v 0.46262175 0.62967849 -0.57441753
v 0.19246405 0.64314872 -0.59851414
v 0.19246405 -0.28903681 -0.69836897
v 0.20558056 -0.29440212 -0.69938606
v 0.21134548 -0.28858024 -0.70063782
v 0.23001534 -0.28983593 -0.70217645
v 0.23001534 -0.30421937 -0.70053351
v 0.25003389 -0.28983593 -0.70348036
v 0.27002597 -0.28983593 -0.70423663
v 0.31003660 -0.30969882 -0.70178527
v 0.32857424 -0.30969882 -0.70095074
v 0.32849491 -0.31038374 -0.70087254
v 0.33420694 -0.31734717 -0.69964683
v 0.35163391 -0.31038374 -0.69922954
v 0.29001805 -0.28983593 -0.70444530
v 0.36995998 -0.30992711 -0.69743013
v 0.37001288 -0.30969882 -0.69745624
v 0.38997853 -0.30992711 -0.69487447
v 0.40997061 -0.30992711 -0.69171894
v 0.40997061 -0.32990414 -0.68890244
v 0.42998916 -0.32990414 -0.68517321
v 0.44934657 -0.32807767 -0.68126142
v 0.46010953 -0.32008684 -0.68000966
v 0.46262175 -0.32259828 -0.67894042
v 0.46262175 -0.33047491 -0.67761046
v 0.46262175 0.64166468 -0.57908565
v 0.19246405 0.65285182 -0.60357338
v 0.19246405 -0.28766698 -0.69852543
v 0.19902231 -0.28116018 -0.70011622
v 0.21002325 -0.26985890 -0.70228076
v 0.23001534 -0.26985890 -0.70410627
v 0.25003389 -0.26985890 -0.70541018
v 0.27002597 -0.26985890 -0.70616645
v 0.31003660 -0.28983593 -0.70408016
v 0.32997581 -0.28983593 -0.70316744
v 0.34608054 -0.30399108 -0.70050740
v 0.35940862 -0.29942489 -0.69993371
v 0.29001805 -0.26985890 -0.70637512
v 0.37128222 -0.29154825 -0.69938606
v 0.38997853 -0.30969882 -0.69490051
v 0.40997061 -0.30969882 -0.69174504
v 0.42975116 -0.30969882 -0.68806791
v 0.42998916 -0.30992711 -0.68798971
v 0.44974324 -0.30969882 -0.68376499
v 0.44998124 -0.30969882 -0.68371284
v 0.46262175 -0.31015539 -0.68060946
v 0.46262175 0.65148199 -0.58484900
v 0.19246405 0.65490663 -0.60490340
v 0.19246405 -0.27568078 -0.69969898
v 0.19246405 -0.26985890 -0.70022053
v 0.19537295 -0.26985890 -0.70061171
v 0.21002325 -0.24988185 -0.70381939
v 0.23001534 -0.24988185 -0.70564491
v 0.25003389 -0.24988185 -0.70694882
v 0.27002597 -0.24988185 -0.70770508
v 0.31003660 -0.26985890 -0.70595783
v 0.35163391 -0.29154825 -0.70139408
v 0.32997581 -0.26985890 -0.70504510
v 0.34996790 -0.26985890 -0.70355862
v 0.36549085 -0.28606880 -0.70061171
v 0.29001805 -0.24988185 -0.70786154
v 0.31003660 -0.24988185 -0.70747042
v 0.37884536 -0.27830631 -0.69982934
v 0.38997853 -0.28983593 -0.69714326
v 0.40997061 -0.28983593 -0.69398779
v 0.42998916 -0.28983593 -0.69025856
v 0.44998124 -0.28983593 -0.68592948
v 0.46262175 -0.30992711 -0.68063557
v 0.46262175 0.66472387 -0.59491533
v 0.19246405 0.66620791 -0.61369187
v 0.19246405 -0.26106900 -0.70089859
v 0.19246405 -0.25011015 -0.70168096
v 0.19246405 -0.23241623 -0.70280230
v 0.21002325 -0.22979067 -0.70504510
v 0.23001534 -0.22979067 -0.70689666
v 0.25003389 -0.22979067 -0.70817453
v 0.27002597 -0.22979067 -0.70893079
v 0.32997581 -0.24988185 -0.70653158
v 0.34996790 -0.24988185 -0.70509726
v 0.37128222 -0.27100044 -0.70131588
v 0.29001805 -0.22979067 -0.70908725
v 0.31003660 -0.22979067 -0.70869607
v 0.32997581 -0.22979067 -0.70778334
v 0.38289139 -0.26495022 -0.70040309
v 0.38974053 -0.27100044 -0.69891661
v 0.40997061 -0.26985890 -0.69578719
v 0.42998916 -0.26985890 -0.69205797
v 0.44998124 -0.26985890 -0.68772894
v 0.46262175 -0.28492725 -0.68326950
v 0.46262175 -0.28983593 -0.68280005
v 0.46262175 0.67419875 -0.60998869
v 0.19246405 0.67625350 -0.62996489
v 0.19246405 -0.22979067 -0.70295882
v 0.19246405 -0.21243919 -0.70389760
v 0.21002325 -0.20992778 -0.70611429
v 0.23001534 -0.20992778 -0.70793980
v 0.25003389 -0.20992778 -0.70924371
v 0.27002597 -0.20992778 -0.71000004
v 0.36995998 -0.24988185 -0.70306313
v 0.34996790 -0.22979067 -0.70632291
v 0.36995998 -0.22979067 -0.70431489
v 0.29001805 -0.20992778 -0.71015650
v 0.31003660 -0.20992778 -0.70979136
v 0.32997581 -0.20992778 -0.70887864
v 0.38664651 -0.24988185 -0.70095074
v 0.39664257 -0.24988185 -0.69949037
v 0.40997061 -0.24988185 -0.69724762
v 0.42998916 -0.24988185 -0.69351834
v 0.44998124 -0.24988185 -0.68916321
v 0.46262175 -0.24988185 -0.68598163
v 0.46262175 -0.26175392 -0.68512106
v 0.46262175 -0.26997304 -0.68452126
v 0.46262175 0.67944986 -0.62373215
v 0.19246405 0.67716676 -0.63194686
v 0.19246405 -0.20992778 -0.70402801
v 0.21002325 -0.18995075 -0.70710528
v 0.23001534 -0.18995075 -0.70890474
v 0.25003389 -0.18995075 -0.71023470
v 0.27002597 -0.18995075 -0.71099102
v 0.29001805 -0.16985954 -0.71216452
v 0.34996790 -0.20992778 -0.70741820
v 0.36995998 -0.20992778 -0.70543623
v 0.39156520 -0.23081805 -0.70144624
v 0.38997853 -0.20992778 -0.70285451
v 0.31003660 -0.18995075 -0.71080846
v 0.32997581 -0.18995075 -0.70989573
v 0.34996790 -0.18995075 -0.70848745
v 0.39928702 -0.23823808 -0.69988155
v 0.40899217 -0.23081805 -0.69862974
v 0.42998916 -0.22979067 -0.69474405
v 0.44998124 -0.22979067 -0.69036287
v 0.46262175 -0.24257596 -0.68642497
v 0.46262175 0.68036306 -0.63372022
v 0.19246405 0.68002063 -0.64091790
v 0.19246405 0.67990643 -0.63971829
v 0.19246405 -0.18995075 -0.70499295
v 0.19246405 -0.17237096 -0.70582741
v 0.21002325 -0.14988253 -0.70893079
v 0.23001534 -0.16985954 -0.70986962
v 0.25003389 -0.16985954 -0.71117353
v 0.27002597 -0.14988253 -0.71289474
v 0.27002597 -0.16985954 -0.71195590
v 0.29001805 -0.14988253 -0.71310335
v 0.31003660 -0.14988253 -0.71276432
v 0.31003660 -0.16985954 -0.71179944
v 0.36995998 -0.18995075 -0.70650548
v 0.40164059 -0.22476788 -0.70027268
v 0.38997853 -0.18995075 -0.70392370
v 0.32997581 -0.14988253 -0.71190375
v 0.32997581 -0.16985954 -0.71091276
v 0.34996790 -0.16985954 -0.70950449
v 0.36995998 -0.16985954 -0.70754862
v 0.41401663 -0.20992778 -0.69891661
v 0.41708422 -0.18995075 -0.69946426
v 0.42998916 -0.20992778 -0.69586545
v 0.44998124 -0.20992778 -0.69145817
v 0.46262175 -0.22248478 -0.68759853
v 0.46262175 -0.22979067 -0.68718123
v 0.46262175 0.68036306 -0.64636832
v 0.25003389 0.68036306 -0.65481776
v 0.19246405 0.68024892 -0.64986283
v 0.19246405 -0.15239392 -0.70671409
v 0.19246405 -0.12990549 -0.70770508
v 0.21002325 -0.12990549 -0.70979136
v 0.23001534 -0.12990549 -0.71164298
v 0.25003389 -0.12990549 -0.71299905
v 0.27002597 -0.12990549 -0.71380746
v 0.29001805 -0.12990549 -0.71401608
v 0.31003660 -0.12990549 -0.71367711
v 0.40399414 -0.20992778 -0.70068997
v 0.38997853 -0.16985954 -0.70496684
v 0.32997581 -0.12990549 -0.71281648
v 0.34996790 -0.14988253 -0.71049547
v 0.36995998 -0.14988253 -0.70851356
v 0.38997853 -0.14988253 -0.70595783
v 0.40708816 -0.18995075 -0.70123762
v 0.42086577 -0.16335274 -0.70016837
v 0.42998916 -0.18995075 -0.69690859
v 0.44998124 -0.18995075 -0.69250131
v 0.46262175 -0.18995075 -0.68929362
v 0.36995998 0.68036306 -0.66308469
v 0.46262175 0.67933565 -0.65565228
v 0.45452970 0.67967814 -0.65716481
v 0.44117519 0.67990643 -0.66013777
v 0.40997061 0.68024892 -0.66138959
v 0.25003389 0.68036306 -0.66608369
v 0.19246405 0.68024892 -0.65163618
v 0.21002325 -0.10992846 -0.71062589
v 0.19246405 -0.09234866 -0.70926982
v 0.23001534 -0.10992846 -0.71247745
v 0.25003389 -0.10992846 -0.71383357
v 0.27002597 -0.10992846 -0.71466810
v 0.29001805 -0.10992846 -0.71487671
v 0.31003660 -0.10992846 -0.71456373
v 0.32997581 -0.10992846 -0.71367711
v 0.34996790 -0.10992846 -0.71229494
v 0.34996790 -0.12990549 -0.71140826
v 0.36995998 -0.12990549 -0.70942628
v 0.40997061 -0.14988253 -0.70275015
v 0.38997853 -0.12990549 -0.70687056
v 0.40997061 -0.12990549 -0.70368898
v 0.41139862 -0.16997372 -0.70149839
v 0.42483246 -0.12990549 -0.70095074
v 0.43247494 -0.14988253 -0.69844723
v 0.44998124 -0.16985954 -0.69351834
v 0.46262175 -0.14988253 -0.69132775
v 0.31003660 0.68036306 -0.66582292
v 0.29001805 0.67967814 -0.67664552
v 0.46262175 0.67305720 -0.66931748
v 0.44871190 0.67568272 -0.66806567
v 0.42998916 0.67648178 -0.67059529
v 0.40997061 0.67762333 -0.67140377
v 0.38997853 0.67842245 -0.67226434
v 0.36995998 0.67899323 -0.67307276
v 0.32997581 0.67944986 -0.67489827
v 0.31003660 0.67956400 -0.67583710
v 0.21002325 0.68024892 -0.66334546
v 0.27002597 0.68036306 -0.66694432
v 0.25003389 0.67967814 -0.67609787
v 0.19246405 0.68013477 -0.66227627
v 0.21002325 -0.08983727 -0.71143436
v 0.19246405 -0.06986023 -0.71015650
v 0.23001534 -0.08983727 -0.71328592
v 0.25003389 -0.08983727 -0.71466810
v 0.27002597 -0.08983727 -0.71547651
v 0.29001805 -0.08983727 -0.71568513
v 0.31003660 -0.08983727 -0.71534610
v 0.32997581 -0.08983727 -0.71448553
v 0.34996790 -0.08983727 -0.71307731
v 0.36995998 -0.06986023 -0.71190375
v 0.36995998 -0.08983727 -0.71112138
v 0.36995998 -0.10992846 -0.71031296
v 0.38997853 -0.10992846 -0.70775723
v 0.40997061 -0.10992846 -0.70457566
v 0.43482852 -0.12990549 -0.69891661
v 0.42708024 -0.10992846 -0.70139408
v 0.43707630 -0.10992846 -0.69938606
v 0.44998124 -0.14988253 -0.69450933
v 0.44998124 -0.12990549 -0.69547427
v 0.46262175 -0.10992846 -0.69320542
v 0.29001805 0.68036306 -0.66663134
v 0.27002597 0.67967814 -0.67693239
v 0.31003660 0.67351377 -0.68999773
v 0.29001805 0.67385626 -0.68999773
v 0.46262175 0.66323990 -0.68300867
v 0.44998124 0.66472387 -0.68449515
v 0.42998916 0.66643620 -0.68658149
v 0.40997061 0.66757774 -0.68845910
v 0.36995998 0.67065996 -0.68999773
v 0.34996790 0.67202979 -0.68999773
v 0.32997581 0.67282885 -0.68999773
v 0.23001534 0.67944986 -0.67466354
v 0.19246405 0.68002063 -0.66350192
v 0.27002597 0.67397040 -0.68999773
v 0.25003389 0.67351377 -0.68999773
v 0.23001534 0.67282885 -0.68999773
v 0.21002325 -0.06986023 -0.71221668
v 0.19246405 -0.05239460 -0.71078235
v 0.23001534 -0.06986023 -0.71406829
v 0.25003389 -0.06986023 -0.71542436
v 0.27002597 -0.06986023 -0.71620673
v 0.29001805 -0.06986023 -0.71644139
v 0.31003660 -0.06986023 -0.71610236
v 0.32997581 -0.06986023 -0.71521574
v 0.34996790 -0.06986023 -0.71383357
v 0.34996790 -0.04999734 -0.71451163
v 0.36995998 -0.04999734 -0.71255571
v 0.38997853 -0.02990615 -0.71070415
v 0.38997853 -0.04999734 -0.71002609
v 0.38997853 -0.06986023 -0.70934802
v 0.38997853 -0.08983727 -0.70856571
v 0.40997061 -0.08983727 -0.70543623
v 0.43125850 -0.08846740 -0.70149839
v 0.44998124 -0.10992846 -0.69641310
v 0.43879521 -0.09417513 -0.69972503
v 0.46262175 -0.08207476 -0.69443113
v 0.31003660 0.66381067 -0.70337605
v 0.29001805 0.66403896 -0.70363683
v 0.46262175 0.64931303 -0.69083226
v 0.42998916 0.65273768 -0.69656956
v 0.40997061 0.65696138 -0.69844723
v 0.39735657 0.65924448 -0.69956857
v 0.38402849 0.66050017 -0.70053351
v 0.36995998 0.66164172 -0.70134193
v 0.39040163 0.66712117 -0.69171894
v 0.34996790 0.66266912 -0.70228076
v 0.32997581 0.66335404 -0.70293272
v 0.19246405 0.67887908 -0.67226434
v 0.27002597 0.66415310 -0.70363683
v 0.25003389 0.66381067 -0.70334995
v 0.23001534 0.66323990 -0.70282841
v 0.21002325 0.67180151 -0.68999773
v 0.19246405 0.67796582 -0.67432451
v 0.21002325 -0.04999734 -0.71292078
v 0.19246405 -0.03241755 -0.71148646
v 0.23001534 -0.04999734 -0.71474630
v 0.23001534 -0.02990615 -0.71542436
v 0.25003389 -0.02990615 -0.71675438
v 0.27002597 -0.04999734 -0.71688473
v 0.29001805 -0.04999734 -0.71711946
v 0.31003660 -0.04999734 -0.71675438
v 0.32997581 -0.04999734 -0.71589375
v 0.34996790 -0.00992912 -0.71576339
v 0.36995998 -0.00992912 -0.71383357
v 0.40997061 -0.02990615 -0.70757473
v 0.38997853 0.01004791 -0.71192980
v 0.40997061 0.01004791 -0.70882648
v 0.40997061 -0.04999734 -0.70689666
v 0.40997061 -0.06986023 -0.70619255
v 0.42998916 -0.06986023 -0.70248938
v 0.44011742 -0.08081906 -0.70001191
v 0.44807723 -0.08846740 -0.69779527
v 0.45103902 -0.06986023 -0.69784743
v 0.46262175 -0.06986023 -0.69490051
v 0.31003660 0.64988381 -0.71143436
v 0.29001805 0.64988381 -0.71190375
v 0.46262175 0.62990677 -0.69656956
v 0.44059342 0.64029485 -0.70011622
v 0.44831523 0.64817148 -0.69477010
v 0.42998916 0.64269209 -0.70115936
v 0.40997061 0.64691579 -0.70295882
v 0.39040163 0.65148199 -0.70397586
v 0.36995998 0.64988381 -0.70720959
v 0.34996790 0.64988381 -0.70911336
v 0.32997581 0.64988381 -0.71049547
v 0.27002597 0.64988381 -0.71185160
v 0.25003389 0.64988381 -0.71125180
v 0.21002325 0.66244084 -0.70209819
v 0.23001534 0.64988381 -0.71015650
v 0.19246405 0.67043161 -0.68999773
v 0.21002325 -0.02990615 -0.71359885
v 0.19246405 -0.01232637 -0.71213847
v 0.21002325 -0.00992912 -0.71425080
v 0.23001534 0.01004791 -0.71667612
v 0.27002597 -0.02990615 -0.71753669
v 0.25003389 0.01004791 -0.71795398
v 0.29001805 -0.02990615 -0.71774536
v 0.31003660 -0.02990615 -0.71738023
v 0.32997581 -0.02990615 -0.71651965
v 0.34118831 0.11655404 -0.72009242
v 0.34996790 0.01004791 -0.71633708
v 0.35340568 0.12991013 -0.71946651
v 0.36995998 0.10993309 -0.71735418
v 0.36995998 0.09007020 -0.71678042
v 0.36995998 0.01004791 -0.71443337
v 0.32997581 -0.00992912 -0.71711946
v 0.42998916 -0.04999734 -0.70319349
v 0.42998916 -0.00992912 -0.70449746
v 0.38997853 0.03013910 -0.71252966
v 0.40997061 0.12991013 -0.71242529
v 0.42998916 0.10993309 -0.70817453
v 0.42998916 0.01004791 -0.70512331
v 0.44104299 -0.06986023 -0.70024663
v 0.45257282 -0.04999734 -0.69821250
v 0.46262175 -0.04999734 -0.69565678
v 0.31003660 0.62990677 -0.71766710
v 0.29001805 0.62990677 -0.71811044
v 0.46262175 0.60981560 -0.69862974
v 0.45860219 0.60981560 -0.69964683
v 0.45415950 0.62990677 -0.69862974
v 0.44411054 0.62990677 -0.70092469
v 0.42998916 0.62990677 -0.70384550
v 0.40997061 0.62990677 -0.70752257
v 0.38997853 0.62990677 -0.71070415
v 0.36995998 0.62990677 -0.71328592
v 0.34996790 0.62990677 -0.71529394
v 0.32997581 0.62990677 -0.71670222
v 0.27002597 0.62990677 -0.71800613
v 0.25003389 0.62990677 -0.71735418
v 0.19246405 0.66141343 -0.70118546
v 0.19246405 0.66929007 -0.69145817
v 0.21002325 0.64988381 -0.70861787
v 0.23001534 0.62990677 -0.71615458
v 0.19246405 0.01004791 -0.71284258
v 0.21002325 0.01004791 -0.71487671
v 0.21002325 0.03013910 -0.71547651
v 0.23001534 0.07009317 -0.71839732
v 0.23998494 0.09988749 -0.71998811
v 0.27002597 -0.00992912 -0.71813655
v 0.24360785 0.08675972 -0.71980554
v 0.25003389 0.03013910 -0.71852767
v 0.25690946 0.07465935 -0.72014457
v 0.26159015 0.06130328 -0.71993595
v 0.27491820 0.05582386 -0.72009242
v 0.29001805 0.04440841 -0.71988380
v 0.30310813 0.05673710 -0.72006631
v 0.31003660 -0.00992912 -0.71798003
v 0.34996790 0.09007020 -0.71863198
v 0.33835873 0.10319797 -0.71988380
v 0.33100715 0.10993309 -0.72048360
v 0.32997581 0.12991013 -0.72105730
v 0.32997581 0.15000132 -0.72155285
v 0.34343609 0.12991013 -0.72024888
v 0.36995998 0.12991013 -0.71790183
v 0.35657904 0.15000132 -0.71970123
v 0.38997853 0.10993309 -0.71490276
v 0.38997853 0.12991013 -0.71547651
v 0.32164577 0.07717075 -0.72006631
v 0.32997581 0.01004791 -0.71769321
v 0.44257677 -0.04999734 -0.70058566
v 0.44400477 -0.02990615 -0.70092469
v 0.42998916 0.12991013 -0.70877433
v 0.40997061 0.15000132 -0.71294689
v 0.42998916 0.16997835 -0.70981747
v 0.44670212 0.01004791 -0.70157665
v 0.45400083 -0.02990615 -0.69855154
v 0.46262175 -0.02990615 -0.69636095
v 0.31196705 0.61061466 -0.71970123
v 0.29001805 0.61734980 -0.71983165
v 0.46262175 0.59657365 -0.69930780
v 0.45987153 0.59908509 -0.69995975
v 0.44860613 0.60981560 -0.70194173
v 0.42998916 0.60981560 -0.70590568
v 0.40997061 0.60981560 -0.70963490
v 0.38997853 0.60981560 -0.71279043
v 0.36995998 0.60981560 -0.71539825
v 0.34996790 0.60981560 -0.71740633
v 0.32997581 0.60981560 -0.71884066
v 0.27002597 0.61620826 -0.71977949
v 0.24992810 0.60970145 -0.71946651
v 0.19246405 0.65981525 -0.70199388
v 0.21002325 0.62990677 -0.71448553
v 0.19246405 0.64748657 -0.70741820
v 0.19246405 0.64988381 -0.70668805
v 0.23001534 0.60981560 -0.71824086
v 0.19246405 0.03013910 -0.71344239
v 0.19246405 0.08755881 -0.71505928
v 0.21002325 0.07009317 -0.71659791
v 0.22826999 0.10993309 -0.71933615
v 0.23829249 0.10993309 -0.72011852
v 0.25003389 0.12991013 -0.72123986
v 0.25003389 0.10993309 -0.72074437
v 0.27002597 0.03013910 -0.71928400
v 0.27002597 0.12991013 -0.72202224
v 0.27002597 0.10993309 -0.72150064
v 0.27002597 0.09007020 -0.72095299
v 0.29001805 0.10993309 -0.72170925
v 0.29001805 0.09007020 -0.72116160
v 0.31003660 0.10993309 -0.72137028
v 0.31003660 0.09007020 -0.72082263
v 0.31003660 0.01004791 -0.71855378
v 0.31640974 0.06381467 -0.71988380
v 0.33494738 0.09007020 -0.71970123
v 0.32500422 0.09007020 -0.72024888
v 0.31003660 0.12991013 -0.72189182
v 0.34655654 0.15000132 -0.72048360
v 0.31003660 0.15000132 -0.72236127
v 0.31003660 0.16997835 -0.72280461
v 0.32997581 0.16997835 -0.72197008
v 0.35872105 0.16472724 -0.71988380
v 0.36995998 0.15000132 -0.71842337
v 0.38997853 0.15000132 -0.71599805
v 0.45537594 -0.00992912 -0.69889057
v 0.44998124 0.15000132 -0.70501900
v 0.44998124 0.12991013 -0.70444530
v 0.44998124 0.16997835 -0.70554060
v 0.40997061 0.16997835 -0.71341628
v 0.42998916 0.18984123 -0.71026081
v 0.44998124 0.18984123 -0.70600998
v 0.44998124 0.10993309 -0.70384550
v 0.45672461 0.01004791 -0.69920349
v 0.46262175 -0.00992912 -0.69703895
v 0.31992686 0.59977001 -0.71996200
v 0.30654591 0.60445035 -0.72022283
v 0.29001805 0.60730422 -0.72037929
v 0.46262175 0.58709884 -0.69964683
v 0.46074420 0.58572900 -0.70016837
v 0.45191169 0.59132254 -0.70204604
v 0.42998916 0.58983856 -0.70676625
v 0.40997061 0.58983856 -0.71046942
v 0.38997853 0.58983856 -0.71362495
v 0.36995998 0.58983856 -0.71618062
v 0.34996790 0.58983856 -0.71818864
v 0.32984358 0.59177917 -0.71962297
v 0.27002597 0.60616267 -0.72032714
v 0.25656569 0.60285217 -0.72014457
v 0.24323761 0.59463304 -0.71980554
v 0.21002325 0.60981560 -0.71651965
v 0.19246405 0.62990677 -0.71247745
v 0.23168135 0.58869702 -0.71920574
v 0.21002325 0.58983856 -0.71735418
v 0.19246405 0.10993309 -0.71563298
v 0.21002325 0.10993309 -0.71769321
v 0.22509664 0.12991013 -0.71959692
v 0.23509270 0.12991013 -0.72035319
v 0.25003389 0.15000132 -0.72168320
v 0.29001805 0.12991013 -0.72220480
v 0.27002597 0.15000132 -0.72246557
v 0.29001805 0.15000132 -0.72267419
v 0.34996790 0.18984123 -0.72105730
v 0.35123724 0.17089158 -0.72058791
v 0.29001805 0.16997835 -0.72309148
v 0.29001805 0.18984123 -0.72348261
v 0.31003660 0.18984123 -0.72316968
v 0.32997581 0.18984123 -0.72233516
v 0.36036062 0.17796916 -0.72001421
v 0.36818820 0.17089158 -0.71904927
v 0.37144089 0.18984123 -0.71907532
v 0.38997853 0.18984123 -0.71685869
v 0.38997853 0.16997835 -0.71644139
v 0.40997061 0.18984123 -0.71385962
v 0.46262175 0.15319763 -0.70199388
v 0.46262175 0.12991013 -0.70136797
v 0.46262175 0.11038970 -0.70082033
v 0.46262175 0.16997835 -0.70243722
v 0.42998916 0.20993242 -0.71065199
v 0.44998124 0.20993242 -0.70642722
v 0.46262175 0.18984123 -0.70290661
v 0.46262175 0.10605183 -0.70068997
v 0.46262175 0.02237660 -0.69805604
v 0.32310021 0.58641392 -0.72014457
v 0.31003660 0.56986153 -0.72108340
v 0.31196705 0.59177917 -0.72048360
v 0.29001805 0.58983856 -0.72108340
v 0.46262175 0.58298928 -0.69977725
v 0.46262175 0.56986153 -0.70011622
v 0.46153754 0.56986153 -0.70037705
v 0.44998124 0.56986153 -0.70308918
v 0.42998916 0.56986153 -0.70731390
v 0.40997061 0.56986153 -0.71099102
v 0.38997853 0.56986153 -0.71409434
v 0.36995998 0.56986153 -0.71665001
v 0.34996790 0.56986153 -0.71865809
v 0.33619028 0.56986153 -0.71975338
v 0.32627356 0.56986153 -0.72035319
v 0.27002597 0.58983856 -0.72095299
v 0.24992810 0.58869702 -0.72032714
v 0.23948249 0.58127695 -0.72001421
v 0.19246405 0.60741836 -0.71461594
v 0.19246405 0.60981560 -0.71451163
v 0.22771466 0.56986153 -0.71941435
v 0.21002325 0.56986153 -0.71784967
v 0.19246405 0.56986153 -0.71589375
v 0.19246405 0.58983856 -0.71534610
v 0.19246405 0.12751287 -0.71605027
v 0.21002325 0.12991013 -0.71816260
v 0.22229353 0.15000132 -0.71980554
v 0.23231602 0.15000132 -0.72058791
v 0.25003389 0.16997835 -0.72210050
v 0.27002597 0.16997835 -0.72288281
v 0.36147130 0.18984123 -0.72014457
v 0.32997581 0.20993242 -0.72267419
v 0.34996790 0.20993242 -0.72137028
v 0.27002597 0.18984123 -0.72322184
v 0.27002597 0.20993242 -0.72353482
v 0.29001805 0.20993242 -0.72376949
v 0.31003660 0.20993242 -0.72348261
v 0.37310690 0.20993242 -0.71928400
v 0.38997853 0.20993242 -0.71722376
v 0.40997061 0.20993242 -0.71422476
v 0.42998916 0.22990945 -0.71096492
v 0.44998124 0.22990945 -0.70676625
v 0.46262175 0.21564014 -0.70340216
v 0.31003660 0.54988450 -0.72147459
v 0.29001805 0.56986153 -0.72155285
v 0.27002597 0.56986153 -0.72147459
v 0.46262175 0.54988450 -0.70055956
v 0.44998124 0.52990746 -0.70392370
v 0.42998916 0.54988450 -0.70775723
v 0.40997061 0.54988450 -0.71140826
v 0.38997853 0.52990746 -0.71487671
v 0.36995998 0.52990746 -0.71740633
v 0.35150167 0.52990746 -0.71925789
v 0.34819612 0.54885709 -0.71920574
v 0.34034207 0.54166538 -0.72001421
v 0.33851740 0.55502141 -0.71988380
v 0.32997581 0.52990746 -0.72084868
v 0.31003660 0.52990746 -0.72181362
v 0.25003389 0.56986153 -0.72079653
v 0.23771071 0.56986153 -0.72014457
v 0.23496047 0.54988450 -0.72035319
v 0.22499087 0.54988450 -0.71962297
v 0.21002325 0.54988450 -0.71829301
v 0.19246405 0.54737306 -0.71636319
v 0.19246405 0.15000132 -0.71654570
v 0.21002325 0.15000132 -0.71860594
v 0.22070685 0.16278660 -0.71993595
v 0.22840223 0.16963589 -0.72066617
v 0.23001534 0.18984123 -0.72113556
v 0.25003389 0.18984123 -0.72243947
v 0.36311084 0.20993242 -0.72030103
v 0.32997581 0.22990945 -0.72293496
v 0.34996790 0.22990945 -0.72163105
v 0.25003389 0.20993242 -0.72275245
v 0.27002597 0.22990945 -0.72376949
v 0.29001805 0.22990945 -0.72400421
v 0.31003660 0.22990945 -0.72371733
v 0.37440267 0.22990945 -0.71941435
v 0.38997853 0.22990945 -0.71748459
v 0.40997061 0.22990945 -0.71453768
v 0.42998916 0.24988648 -0.71119964
v 0.44998124 0.24988648 -0.70700097
v 0.46262175 0.22990945 -0.70363683
v 0.29001805 0.54988450 -0.72191793
v 0.27002597 0.54988450 -0.72183967
v 0.25003389 0.54988450 -0.72118771
v 0.46262175 0.53070652 -0.70092469
v 0.42998916 0.52990746 -0.70817453
v 0.44998124 0.48983920 -0.70467997
v 0.42998916 0.50993043 -0.70856571
v 0.40997061 0.52990746 -0.71179944
v 0.38997853 0.48983920 -0.71558082
v 0.40997061 0.48983920 -0.71255571
v 0.40997061 0.40993106 -0.71399003
v 0.38997853 0.42990810 -0.71662396
v 0.36995998 0.50993043 -0.71774536
v 0.35999039 0.44018203 -0.71998811
v 0.35536259 0.48983920 -0.71959692
v 0.34153208 0.52990746 -0.72011852
v 0.32997581 0.50993043 -0.72116160
v 0.31003660 0.50993043 -0.72212654
v 0.29001805 0.52990746 -0.72225690
v 0.25003389 0.52990746 -0.72152674
v 0.23255402 0.52990746 -0.72053576
v 0.22253153 0.52990746 -0.71980554
v 0.22094485 0.51518148 -0.71990985
v 0.21002325 0.52990746 -0.71863198
v 0.19246405 0.52990746 -0.71667612
v 0.19246405 0.16997835 -0.71693695
v 0.21158348 0.16963589 -0.71915358
v 0.20814568 0.18984123 -0.71915358
v 0.21930529 0.17602853 -0.72004026
v 0.21814173 0.18984123 -0.72017062
v 0.23001534 0.20993242 -0.72144848
v 0.36438018 0.22990945 -0.72043145
v 0.31003660 0.24988648 -0.72389990
v 0.32997581 0.24988648 -0.72309148
v 0.34996790 0.24988648 -0.72181362
v 0.25003389 0.22990945 -0.72298712
v 0.27002597 0.24988648 -0.72395205
v 0.29001805 0.24988648 -0.72418678
v 0.36530575 0.24988648 -0.72053576
v 0.37527534 0.24988648 -0.71949261
v 0.38997853 0.24988648 -0.71769321
v 0.40997061 0.24988648 -0.71474630
v 0.42998916 0.26986352 -0.71135610
v 0.46262175 0.24988648 -0.70387155
v 0.44998124 0.26986352 -0.70715743
v 0.46262175 0.26986352 -0.70405412
v 0.27002597 0.52990746 -0.72217870
v 0.46262175 0.50993043 -0.70131588
v 0.44998124 0.40993106 -0.70614040
v 0.42998916 0.40993106 -0.71041727
v 0.42998916 0.38995403 -0.71075630
v 0.40997061 0.38995403 -0.71430296
v 0.38997853 0.40993106 -0.71696299
v 0.36995998 0.48983920 -0.71808434
v 0.37223423 0.40993106 -0.71915358
v 0.36078373 0.42990810 -0.72006631
v 0.34996790 0.40993106 -0.72126597
v 0.34996790 0.42990810 -0.72097909
v 0.34536654 0.48983920 -0.72043145
v 0.32997581 0.44988513 -0.72207439
v 0.32997581 0.42990810 -0.72236127
v 0.31003660 0.48983920 -0.72241342
v 0.29001805 0.50993043 -0.72256988
v 0.25003389 0.50993043 -0.72181362
v 0.21975484 0.50182545 -0.72001421
v 0.25003389 0.46986216 -0.72233516
v 0.23001534 0.48983920 -0.72090083
v 0.21184793 0.50901717 -0.71915358
v 0.19246405 0.50981623 -0.71698904
v 0.19246405 0.18984123 -0.71727592
v 0.19246405 0.20993242 -0.71761495
v 0.20666479 0.20993242 -0.71928400
v 0.21666083 0.20993242 -0.72032714
v 0.23001534 0.22990945 -0.72168320
v 0.31003660 0.26986352 -0.72400421
v 0.32997581 0.26986352 -0.72322184
v 0.34996790 0.26986352 -0.72194397
v 0.25003389 0.24988648 -0.72316968
v 0.27002597 0.26986352 -0.72408247
v 0.29001805 0.26986352 -0.72429109
v 0.36594042 0.26986352 -0.72058791
v 0.37591001 0.26986352 -0.71957088
v 0.38997853 0.26986352 -0.71782357
v 0.40997061 0.26986352 -0.71487671
v 0.42998916 0.28984055 -0.71146041
v 0.44998124 0.28984055 -0.70726174
v 0.46262175 0.28984055 -0.70415843
v 0.27002597 0.50993043 -0.72246557
v 0.46262175 0.40993106 -0.70303702
v 0.44998124 0.38995403 -0.70647943
v 0.44998124 0.36986285 -0.70676625
v 0.42998916 0.36986285 -0.71101707
v 0.40997061 0.36986285 -0.71456373
v 0.38997853 0.38995403 -0.71727592
v 0.37353000 0.38995403 -0.71928400
v 0.36221173 0.40993106 -0.72022283
v 0.36350751 0.38995403 -0.72035319
v 0.34996790 0.38995403 -0.72150064
v 0.32997581 0.38995403 -0.72285676
v 0.31003660 0.42990810 -0.72324789
v 0.29001805 0.42990810 -0.72361302
v 0.27002597 0.48983920 -0.72275245
v 0.23001534 0.42990810 -0.72160494
v 0.21896151 0.48983920 -0.72009242
v 0.27002597 0.42990810 -0.72348261
v 0.25003389 0.42990810 -0.72277850
v 0.20893902 0.48983920 -0.71910143
v 0.19246405 0.46689415 -0.71753669
v 0.19246405 0.22990945 -0.71787572
v 0.20542189 0.22990945 -0.71941435
v 0.21544439 0.22990945 -0.72045749
v 0.23001534 0.24988648 -0.72186577
v 0.31003660 0.28984055 -0.72408247
v 0.32997581 0.28984055 -0.72327399
v 0.34996790 0.28984055 -0.72202224
v 0.23001534 0.26986352 -0.72202224
v 0.25003389 0.26986352 -0.72330010
v 0.25003389 0.28984055 -0.72340441
v 0.27002597 0.30981761 -0.72418678
v 0.29001805 0.28984055 -0.72436929
v 0.36628419 0.28984055 -0.72061396
v 0.37630668 0.28984055 -0.71962297
v 0.38997853 0.28984055 -0.71790183
v 0.40997061 0.28984055 -0.71498102
v 0.42998916 0.30981761 -0.71146041
v 0.44998124 0.30981761 -0.70726174
v 0.46262175 0.30981761 -0.70415843
v 0.46262175 0.38995403 -0.70337605
v 0.46262175 0.35650676 -0.70381939
v 0.46262175 0.34988582 -0.70389760
v 0.44998124 0.34988582 -0.70700097
v 0.42998916 0.34988582 -0.71122569
v 0.40997061 0.34988582 -0.71477240
v 0.38997853 0.36986285 -0.71753669
v 0.37461424 0.36986285 -0.71941435
v 0.36461818 0.36986285 -0.72045749
v 0.34996790 0.36986285 -0.72170925
v 0.34996790 0.34988582 -0.72186577
v 0.32997581 0.34988582 -0.72316968
v 0.31003660 0.36986285 -0.72387379
v 0.31003660 0.38995403 -0.72369123
v 0.31003660 0.40993106 -0.72348261
v 0.29001805 0.40993106 -0.72384775
v 0.21774507 0.46986216 -0.72019672
v 0.25003389 0.40993106 -0.72298712
v 0.23001534 0.40993106 -0.72178751
v 0.21446595 0.40993106 -0.72053576
v 0.20544833 0.42990810 -0.71944046
v 0.27002597 0.38995403 -0.72384775
v 0.19246405 0.42990810 -0.71795398
v 0.19246405 0.24669015 -0.71803224
v 0.20367655 0.26986352 -0.71962297
v 0.20446989 0.24988648 -0.71951866
v 0.21446595 0.24988648 -0.72053576
v 0.31003660 0.30981761 -0.72410852
v 0.32997581 0.30981761 -0.72330010
v 0.34996790 0.30981761 -0.72202224
v 0.36636353 0.30981761 -0.72061396
v 0.21367261 0.26986352 -0.72061396
v 0.21309082 0.28984055 -0.72069222
v 0.23001534 0.28984055 -0.72212654
v 0.23001534 0.30981761 -0.72217870
v 0.25003389 0.30981761 -0.72343045
v 0.25003389 0.32990879 -0.72343045
v 0.27002597 0.32990879 -0.72416067
v 0.29001805 0.30981761 -0.72439539
v 0.37638602 0.30981761 -0.71962297
v 0.38997853 0.30981761 -0.71792787
v 0.40997061 0.30981761 -0.71498102
v 0.42998916 0.32990879 -0.71140826
v 0.44998124 0.32990879 -0.70718354
v 0.46262175 0.32990879 -0.70405412
v 0.46262175 0.33675805 -0.70400196
v 0.40997061 0.32990879 -0.71492887
v 0.38997853 0.34988582 -0.71771926
v 0.37543401 0.34988582 -0.71951866
v 0.36546442 0.34988582 -0.72053576
v 0.36612552 0.32990879 -0.72061396
v 0.34996790 0.32990879 -0.72199613
v 0.32997581 0.32990879 -0.72327399
v 0.31003660 0.32990879 -0.72408247
v 0.29001805 0.36986285 -0.72418678
v 0.29001805 0.38995403 -0.72403026
v 0.25003389 0.38995403 -0.72314358
v 0.23001534 0.38995403 -0.72194397
v 0.21367261 0.38995403 -0.72061396
v 0.20446989 0.40993106 -0.71954477
v 0.27002597 0.36986285 -0.72400421
v 0.19246405 0.40627813 -0.71816260
v 0.19246405 0.26986352 -0.71824086
v 0.19246405 0.28984055 -0.71837121
v 0.20309478 0.28984055 -0.71967518
v 0.21272060 0.30981761 -0.72071826
v 0.23001534 0.32990879 -0.72220480
v 0.25003389 0.34988582 -0.72337830
v 0.29001805 0.32990879 -0.72436929
v 0.37612158 0.32990879 -0.71957088
v 0.38997853 0.32990879 -0.71784967
v 0.29001805 0.34988582 -0.72429109
v 0.25003389 0.36986285 -0.72327399
v 0.23001534 0.36986285 -0.72207439
v 0.20367655 0.38995403 -0.71962297
v 0.21309082 0.36986285 -0.72066617
v 0.20306833 0.36986285 -0.71967518
v 0.19246405 0.38618696 -0.71831906
v 0.19246405 0.30981761 -0.71844947
v 0.20272455 0.30981761 -0.71970123
v 0.20253944 0.32990879 -0.71972734
v 0.21253549 0.32990879 -0.72071826
v 0.21272060 0.34988582 -0.72069222
v 0.23001534 0.34988582 -0.72215259
v 0.20272455 0.34988582 -0.71970123
v 0.19246405 0.36598158 -0.71842337
v 0.19246405 0.32602751 -0.71847558
v 0.19246405 0.34988582 -0.71847558
f 1 2 6
f 1 6 13
f 1 13 22
f 1 22 35
f 1 35 53
f 1 53 74
f 1 74 100
f 1 100 99
f 1 99 124
f 1 124 155
f 1 155 156
f 1 156 130
f 1 130 129
f 1 129 104
f 1 104 76
f 1 76 75
f 1 75 54
f 1 54 36
f 1 36 23
f 1 23 14
f 1 14 7
f 1 7 3
f 1 3 8
f 1 8 16
f 1 16 27
f 1 27 43
f 1 43 61
f 1 61 87
f 1 87 115
f 1 115 142
f 1 142 168
f 1 168 190
f 1 190 211
f 1 211 236
f 1 236 261
f 1 261 282
f 1 282 304
f 1 304 326
f 1 326 348
f 1 348 369
f 1 369 368
f 1 368 395
f 1 395 421
f 1 421 454
f 1 454 487
f 1 487 522
f 1 522 527
f 1 527 564
f 1 564 605
f 1 605 604
f 1 604 655
f 1 655 658
f 1 658 657
f 1 657 713
f 1 713 764
f 1 764 763
f 1 763 768
f 1 768 767
f 1 767 808
f 1 808 852
f 1 852 896
f 1 896 935
f 1 935 977
f 1 977 1016
f 1 1016 1032
f 1 1032 1040
f 1 1040 1042
f 1 1042 1041
f 1 1041 1033
f 1 1033 1018
f 1 1018 1017
f 1 1017 978
f 1 978 936
f 1 936 898
f 1 898 897
f 1 897 853
f 1 853 809
f 1 809 769
f 1 769 716
f 1 716 661
f 1 661 660
f 1 660 608
f 1 608 566
f 1 566 529
f 1 529 492
f 1 492 456
f 1 456 423
f 1 423 397
f 1 397 396
f 1 396 371
f 1 371 370
f 1 370 349
f 1 349 328
f 1 328 327
f 1 327 307
f 1 307 306
f 1 306 305
f 1 305 284
f 1 284 283
f 1 283 262
f 1 262 237
f 1 237 212
f 1 212 191
f 1 191 169
f 1 169 144
f 1 144 143
f 1 143 116
f 1 116 89
f 1 89 88
f 1 88 62
f 1 62 44
f 1 44 28
f 1 28 17
f 1 17 9
f 1 9 4
f 1 4 5
f 1 5 2
f 2 5 6
f 3 7 8
f 4 9 10
f 4 10 5
f 5 10 11
f 5 11 12
f 5 12 6
f 6 12 13
f 7 14 25
f 7 25 41
f 7 41 40
f 7 40 59
f 7 59 82
f 7 82 84
f 7 84 113
f 7 113 140
f 7 140 139
f 7 139 138
f 7 138 166
f 7 166 188
f 7 188 209
f 7 209 234
f 7 234 259
f 7 259 258
f 7 258 280
f 7 280 302
f 7 302 324
f 7 324 323
f 7 323 346
f 7 346 345
f 7 345 344
f 7 344 366
f 7 366 392
f 7 392 391
f 7 391 414
f 7 414 440
f 7 440 474
f 7 474 510
f 7 510 548
f 7 548 589
f 7 589 641
f 7 641 696
f 7 696 744
f 7 744 743
f 7 743 738
f 7 738 737
f 7 737 736
f 7 736 739
f 7 739 742
f 7 742 787
f 7 787 827
f 7 827 871
f 7 871 873
f 7 873 914
f 7 914 954
f 7 954 999
f 7 999 1000
f 7 1000 957
f 7 957 956
f 7 956 955
f 7 955 916
f 7 916 875
f 7 875 831
f 7 831 791
f 7 791 750
f 7 750 749
f 7 749 700
f 7 700 644
f 7 644 592
f 7 592 551
f 7 551 513
f 7 513 479
f 7 479 443
f 7 443 416
f 7 416 393
f 7 393 367
f 7 367 347
f 7 347 325
f 7 325 303
f 7 303 281
f 7 281 260
f 7 260 235
f 7 235 210
f 7 210 189
f 7 189 167
f 7 167 141
f 7 141 114
f 7 114 86
f 7 86 85
f 7 85 60
f 7 60 42
f 7 42 26
f 7 26 15
f 7 15 16
f 7 16 8
f 9 17 18
f 9 18 10
f 10 18 11
f 11 19 12
f 11 18 20
f 11 20 19
f 12 19 21
f 12 21 13
f 13 21 22
f 14 23 24
f 14 24 25
f 15 26 16
f 16 26 27
f 17 28 29
f 17 29 18
f 18 29 30
f 18 30 20
f 19 20 31
f 19 31 32
f 19 32 21
f 20 30 31
f 21 33 22
f 21 32 34
f 21 34 33
f 22 33 35
f 23 36 37
f 23 37 24
f 24 37 38
f 24 38 39
f 24 39 40
f 24 40 41
f 24 41 25
f 26 42 43
f 26 43 27
f 28 44 29
f 29 44 45
f 29 45 46
f 29 46 30
f 30 46 47
f 30 47 48
f 30 48 31
f 31 49 32
f 31 48 49
f 32 49 34
f 33 34 52
f 33 52 50
f 33 50 35
f 34 49 51
f 34 51 52
f 35 50 53
f 36 54 37
f 37 55 56
f 37 56 38
f 37 54 55
f 38 57 58
f 38 58 39
f 38 56 57
f 39 58 59
f 39 59 40
f 42 60 43
f 43 60 61
f 44 62 45
f 45 62 63
f 45 63 64
f 45 64 46
f 46 64 65
f 46 65 66
f 46 66 47
f 47 67 48
f 47 66 67
f 48 67 68
f 48 68 49
f 49 68 69
f 49 69 51
f 50 70 53
f 50 52 71
f 50 71 70
f 51 72 71
f 51 71 52
f 51 69 73
f 51 73 72
f 53 70 74
f 54 75 55
f 55 75 76
f 55 76 77
f 55 77 78
f 55 78 56
f 56 78 79
f 56 79 57
f 57 79 80
f 57 80 81
f 57 81 58
f 58 82 59
f 58 81 83
f 58 83 84
f 58 84 82
f 60 85 61
f 61 85 86
f 61 86 87
f 62 88 63
f 63 88 89
f 63 89 90
f 63 90 64
f 64 90 91
f 64 91 65
f 65 91 92
f 65 92 66
f 66 92 93
f 66 93 94
f 66 94 67
f 67 94 95
f 67 95 96
f 67 96 69
f 67 69 68
f 69 96 73
f 70 71 97
f 70 97 98
f 70 98 99
f 70 99 100
f 70 100 74
f 71 72 101
f 71 101 97
f 72 73 101
f 73 96 102
f 73 102 103
f 73 103 101
f 76 104 105
f 76 105 77
f 77 105 106
f 77 106 78
f 78 106 107
f 78 107 79
f 79 107 108
f 79 108 80
f 80 108 109
f 80 109 110
f 80 110 81
f 81 110 111
f 81 111 83
f 83 111 112
f 83 112 84
f 84 112 113
f 86 114 87
f 87 114 115
f 89 116 90
f 90 116 117
f 90 117 91
f 91 117 118
f 91 118 92
f 92 118 119
f 92 119 121
f 92 121 93
f 93 120 95
f 93 95 94
f 93 121 149
f 93 149 120
f 95 120 122
f 95 122 102
f 95 102 96
f 97 101 123
f 97 123 98
f 98 124 99
f 98 123 125
f 98 125 124
f 101 126 123
f 101 103 127
f 101 127 126
f 102 128 103
f 102 122 128
f 103 128 127
f 104 129 105
f 105 129 130
f 105 130 131
f 105 131 106
f 106 131 132
f 106 132 107
f 107 132 133
f 107 133 108
f 108 133 134
f 108 134 109
f 109 134 135
f 109 135 110
f 110 135 136
f 110 136 111
f 111 136 137
f 111 137 112
f 112 137 138
f 112 138 139
f 112 139 140
f 112 140 113
f 114 141 115
f 115 141 142
f 116 143 117
f 117 143 144
f 117 144 145
f 117 145 146
f 117 146 118
f 118 146 119
f 119 146 147
f 119 147 121
f 120 148 122
f 120 149 150
f 120 150 148
f 121 147 151
f 121 151 174
f 121 174 149
f 122 148 152
f 122 152 153
f 122 153 128
f 123 126 154
f 123 154 125
f 124 125 155
f 125 154 131
f 125 131 156
f 125 156 155
f 126 127 157
f 126 157 154
f 127 128 158
f 127 158 159
f 127 159 157
f 128 153 160
f 128 160 158
f 130 156 131
f 131 154 132
f 132 154 157
f 132 157 133
f 133 159 134
f 133 157 159
f 134 159 161
f 134 161 135
f 135 161 162
f 135 162 163
f 135 163 164
f 135 164 136
f 136 164 165
f 136 165 137
f 137 165 138
f 138 165 166
f 141 167 142
f 142 167 168
f 144 169 170
f 144 170 145
f 145 170 146
f 146 170 171
f 146 171 147
f 147 171 172
f 147 172 173
f 147 173 151
f 148 150 176
f 148 176 152
f 149 174 175
f 149 175 150
f 150 175 198
f 150 198 176
f 151 173 177
f 151 177 174
f 152 178 160
f 152 160 153
f 152 176 179
f 152 179 178
f 158 160 180
f 158 180 181
f 158 181 159
f 159 181 161
f 160 178 180
f 161 181 182
f 161 182 162
f 162 182 183
f 162 183 184
f 162 184 163
f 163 184 185
f 163 185 164
f 164 185 186
f 164 186 187
f 164 187 165
f 165 187 188
f 165 188 166
f 167 189 168
f 168 189 190
f 169 191 170
f 170 192 171
f 170 191 193
f 170 193 192
f 171 192 194
f 171 194 172
f 172 194 195
f 172 195 173
f 173 195 196
f 173 196 177
f 174 177 175
f 175 177 197
f 175 197 198
f 176 198 179
f 177 196 199
f 177 199 197
f 178 200 180
f 178 179 201
f 178 201 200
f 179 198 202
f 179 202 203
f 179 203 201
f 180 182 181
f 180 200 182
f 182 200 183
f 183 200 201
f 183 201 204
f 183 204 184
f 184 204 205
f 184 205 185
f 185 205 206
f 185 206 186
f 186 206 207
f 186 207 187
f 187 207 208
f 187 208 209
f 187 209 188
f 189 210 211
f 189 211 190
f 191 212 193
f 192 193 213
f 192 213 214
f 192 214 215
f 192 215 216
f 192 216 194
f 193 217 214
f 193 214 213
f 193 212 217
f 194 216 218
f 194 218 219
f 194 219 195
f 195 219 220
f 195 220 196
f 196 220 199
f 197 199 221
f 197 221 222
f 197 222 223
f 197 223 198
f 198 223 224
f 198 224 202
f 199 220 225
f 199 225 226
f 199 226 221
f 201 203 227
f 201 227 204
f 202 224 228
f 202 228 203
f 203 228 229
f 203 229 227
f 204 227 230
f 204 230 205
f 205 230 206
f 206 230 231
f 206 231 207
f 207 231 232
f 207 232 208
f 208 232 233
f 208 233 209
f 209 233 234
f 210 235 211
f 211 235 236
f 212 237 238
f 212 238 217
f 214 217 238
f 214 238 239
f 214 239 240
f 214 240 241
f 214 241 215
f 215 241 216
f 216 241 242
f 216 242 218
f 218 242 219
f 219 242 220
f 220 242 243
f 220 243 249
f 220 249 225
f 221 226 244
f 221 244 222
f 222 244 245
f 222 245 246
f 222 246 247
f 222 247 223
f 223 247 224
f 224 247 248
f 224 248 228
f 225 249 226
f 226 249 244
f 227 229 254
f 227 254 230
f 228 248 250
f 228 250 251
f 228 251 229
f 229 251 252
f 229 252 253
f 229 253 254
f 230 254 255
f 230 255 231
f 231 255 232
f 232 255 256
f 232 256 233
f 233 256 257
f 233 257 258
f 233 258 259
f 233 259 234
f 235 260 236
f 236 260 261
f 237 262 263
f 237 263 238
f 238 263 239
f 239 263 264
f 239 264 265
f 239 265 240
f 240 242 241
f 240 265 266
f 240 266 242
f 242 266 267
f 242 267 243
f 243 267 272
f 243 272 249
f 244 249 268
f 244 268 245
f 245 268 269
f 245 269 270
f 245 270 246
f 246 270 247
f 247 270 248
f 248 270 271
f 248 271 251
f 248 251 250
f 249 272 268
f 251 271 273
f 251 273 252
f 252 273 274
f 252 274 275
f 252 275 253
f 253 275 276
f 253 276 254
f 254 276 255
f 255 276 277
f 255 277 256
f 256 277 278
f 256 278 279
f 256 279 257
f 257 280 258
f 257 279 280
f 260 281 261
f 261 281 282
f 262 283 263
f 263 283 284
f 263 284 285
f 263 285 264
f 264 285 286
f 264 286 287
f 264 287 265
f 265 287 288
f 265 288 266
f 266 288 289
f 266 289 267
f 267 289 272
f 268 272 290
f 268 290 292
f 268 292 269
f 269 291 270
f 269 292 293
f 269 293 291
f 270 291 271
f 271 291 294
f 271 294 273
f 272 289 295
f 272 295 296
f 272 296 290
f 273 294 297
f 273 297 298
f 273 298 274
f 274 298 299
f 274 299 275
f 275 299 276
f 276 299 300
f 276 300 278
f 276 278 277
f 278 300 301
f 278 301 279
f 279 301 302
f 279 302 280
f 281 303 282
f 282 303 304
f 284 305 285
f 285 305 286
f 286 305 306
f 286 306 307
f 286 307 308
f 286 308 309
f 286 309 287
f 287 309 288
f 288 309 310
f 288 310 311
f 288 311 289
f 289 311 315
f 289 315 295
f 290 296 292
f 291 293 294
f 292 296 312
f 292 312 313
f 292 313 293
f 293 313 314
f 293 314 294
f 294 314 297
f 295 315 316
f 295 316 296
f 296 316 317
f 296 317 312
f 297 314 318
f 297 318 319
f 297 319 298
f 298 319 299
f 299 319 320
f 299 320 321
f 299 321 300
f 300 321 322
f 300 322 301
f 301 322 323
f 301 323 324
f 301 324 302
f 303 325 304
f 304 325 326
f 307 327 308
f 308 327 328
f 308 328 329
f 308 329 309
f 309 329 330
f 309 330 331
f 309 331 310
f 310 331 332
f 310 332 311
f 311 332 336
f 311 336 315
f 312 317 313
f 313 333 314
f 313 317 334
f 313 334 335
f 313 335 333
f 314 333 318
f 315 336 337
f 315 337 316
f 316 337 338
f 316 338 317
f 317 338 355
f 317 355 334
f 318 333 339
f 318 339 340
f 318 340 319
f 319 340 320
f 320 340 341
f 320 341 342
f 320 342 321
f 321 342 322
f 322 342 343
f 322 343 344
f 322 344 345
f 322 345 346
f 322 346 323
f 325 347 348
f 325 348 326
f 328 349 329
f 329 349 350
f 329 350 330
f 330 350 351
f 330 351 352
f 330 352 331
f 331 352 353
f 331 353 332
f 332 353 354
f 332 354 336
f 333 335 339
f 334 355 356
f 334 356 335
f 335 357 339
f 335 356 358
f 335 358 357
f 336 354 359
f 336 359 337
f 337 359 360
f 337 360 338
f 338 360 361
f 338 361 355
f 339 357 362
f 339 362 340
f 340 362 341
f 341 362 363
f 341 363 342
f 342 363 364
f 342 364 343
f 343 364 365
f 343 365 366
f 343 366 344
f 347 367 368
f 347 368 369
f 347 369 348
f 349 370 350
f 350 370 371
f 350 371 372
f 350 372 373
f 350 373 351
f 351 373 352
f 352 373 374
f 352 374 375
f 352 375 376
f 352 376 353
f 353 376 354
f 354 376 375
f 354 375 377
f 354 377 378
f 354 378 379
f 354 379 359
f 355 361 380
f 355 380 356
f 356 380 382
f 356 382 358
f 357 358 362
f 358 381 362
f 358 382 381
f 359 379 383
f 359 383 384
f 359 384 360
f 360 384 385
f 360 385 361
f 361 385 386
f 361 386 380
f 362 381 363
f 363 381 387
f 363 387 364
f 364 387 388
f 364 388 389
f 364 389 365
f 365 389 390
f 365 390 391
f 365 391 392
f 365 392 366
f 367 393 415
f 367 415 441
f 367 441 475
f 367 475 452
f 367 452 420
f 367 420 394
f 367 394 395
f 367 395 368
f 371 396 372
f 372 396 397
f 372 397 398
f 372 398 399
f 372 399 373
f 373 399 400
f 373 400 374
f 374 400 401
f 374 401 375
f 375 401 402
f 375 402 377
f 377 402 403
f 377 403 378
f 378 403 406
f 378 406 383
f 378 383 379
f 380 386 405
f 380 405 382
f 381 382 404
f 381 404 387
f 382 405 404
f 383 406 431
f 383 431 407
f 383 407 385
f 383 385 384
f 385 407 386
f 386 407 408
f 386 408 409
f 386 409 405
f 387 404 410
f 387 410 388
f 388 410 411
f 388 411 389
f 389 411 412
f 389 412 413
f 389 413 390
f 390 413 391
f 391 413 414
f 393 416 417
f 393 417 418
f 393 418 419
f 393 419 415
f 394 420 421
f 394 421 395
f 397 422 398
f 397 423 422
f 398 422 424
f 398 424 399
f 399 424 425
f 399 425 400
f 400 425 426
f 400 426 401
f 401 426 427
f 401 427 402
f 402 427 428
f 402 428 403
f 403 428 406
f 404 405 410
f 405 409 410
f 406 428 429
f 406 429 430
f 406 430 431
f 407 431 432
f 407 432 408
f 408 432 434
f 408 434 409
f 409 433 410
f 409 434 435
f 409 435 433
f 410 433 436
f 410 436 411
f 411 436 433
f 411 433 435
f 411 435 437
f 411 437 438
f 411 438 412
f 412 438 413
f 413 438 439
f 413 439 440
f 413 440 414
f 415 419 442
f 415 442 441
f 416 443 444
f 416 444 417
f 417 444 418
f 418 444 445
f 418 445 446
f 418 446 447
f 418 447 448
f 418 448 449
f 418 449 419
f 419 449 450
f 419 450 442
f 420 451 421
f 420 452 453
f 420 453 451
f 421 451 454
f 422 423 455
f 422 455 457
f 422 457 424
f 423 456 455
f 424 457 458
f 424 458 425
f 425 458 426
f 426 458 459
f 426 459 460
f 426 460 427
f 427 460 428
f 428 460 461
f 428 461 462
f 428 462 429
f 429 462 430
f 430 462 463
f 430 463 464
f 430 464 465
f 430 465 466
f 430 466 432
f 430 432 431
f 432 466 467
f 432 467 434
f 434 467 468
f 434 468 435
f 435 468 437
f 437 469 438
f 437 468 470
f 437 470 471
f 437 471 469
f 438 469 439
f 439 469 472
f 439 472 440
f 440 472 473
f 440 473 508
f 440 508 474
f 441 442 475
f 442 476 452
f 442 452 475
f 442 450 477
f 442 477 478
f 442 478 476
f 443 479 480
f 443 480 481
f 443 481 444
f 444 481 445
f 445 481 482
f 445 482 483
f 445 483 446
f 446 483 484
f 446 484 447
f 447 484 448
f 448 484 485
f 448 485 477
f 448 477 449
f 449 477 450
f 451 453 454
f 452 476 453
f 453 486 487
f 453 487 454
f 453 476 488
f 453 488 489
f 453 489 490
f 453 490 486
f 455 456 491
f 455 491 493
f 455 493 457
f 456 492 491
f 457 493 458
f 458 493 494
f 458 494 459
f 459 494 495
f 459 495 496
f 459 496 460
f 460 496 497
f 460 497 461
f 461 497 462
f 462 497 498
f 462 498 499
f 462 499 463
f 463 499 464
f 464 499 500
f 464 500 501
f 464 501 502
f 464 502 503
f 464 503 504
f 464 504 505
f 464 505 465
f 465 505 467
f 465 467 466
f 467 505 506
f 467 506 468
f 468 506 470
f 469 471 472
f 470 506 507
f 470 507 471
f 471 508 473
f 471 473 472
f 471 507 509
f 471 509 508
f 474 508 510
f 476 478 488
f 477 485 511
f 477 511 512
f 477 512 478
f 478 512 523
f 478 523 488
f 479 513 514
f 479 514 515
f 479 515 516
f 479 516 480
f 480 516 481
f 481 516 517
f 481 517 482
f 482 517 518
f 482 518 519
f 482 519 483
f 483 519 518
f 483 518 520
f 483 520 484
f 484 520 521
f 484 521 485
f 485 521 511
f 486 522 487
f 486 490 522
f 488 523 489
f 489 523 524
f 489 524 490
f 490 524 525
f 490 525 526
f 490 526 527
f 490 527 522
f 491 492 528
f 491 528 493
f 492 529 528
f 493 528 530
f 493 530 494
f 494 530 531
f 494 531 532
f 494 532 533
f 494 533 495
f 495 533 534
f 495 534 496
f 496 534 497
f 497 534 535
f 497 535 536
f 497 536 498
f 498 536 500
f 498 500 499
f 500 536 537
f 500 537 538
f 500 538 501
f 501 538 502
f 502 539 542
f 502 542 503
f 502 538 540
f 502 540 541
f 502 541 539
f 503 542 504
f 504 542 543
f 504 543 506
f 504 506 505
f 506 543 544
f 506 544 507
f 507 544 545
f 507 545 509
f 508 509 545
f 508 545 546
f 508 546 547
f 508 547 510
f 510 547 548
f 511 521 549
f 511 549 550
f 511 550 512
f 512 550 523
f 513 551 552
f 513 552 553
f 513 553 514
f 514 553 552
f 514 552 554
f 514 554 515
f 515 554 555
f 515 555 516
f 516 555 556
f 516 556 557
f 516 557 517
f 517 557 518
f 518 557 558
f 518 558 520
f 520 558 559
f 520 559 521
f 521 559 549
f 523 550 560
f 523 560 524
f 524 560 561
f 524 561 525
f 525 562 526
f 525 561 563
f 525 563 562
f 526 562 564
f 526 564 527
f 528 529 565
f 528 565 531
f 528 531 530
f 529 566 567
f 529 567 565
f 531 565 567
f 531 567 609
f 531 609 568
f 531 568 532
f 532 569 533
f 532 568 570
f 532 570 613
f 532 613 569
f 533 569 534
f 534 569 571
f 534 571 572
f 534 572 535
f 535 572 573
f 535 573 536
f 536 573 537
f 537 574 575
f 537 575 576
f 537 576 577
f 537 577 578
f 537 578 579
f 537 579 538
f 537 573 580
f 537 580 574
f 538 579 540
f 539 581 542
f 539 541 586
f 539 586 582
f 539 582 581
f 540 579 583
f 540 583 584
f 540 584 541
f 541 585 586
f 541 584 636
f 541 636 585
f 542 581 544
f 542 544 543
f 544 587 545
f 544 581 587
f 545 587 546
f 546 587 547
f 547 588 589
f 547 589 548
f 547 587 588
f 549 559 590
f 549 590 550
f 550 590 591
f 550 591 560
f 551 592 593
f 551 593 594
f 551 594 552
f 552 594 595
f 552 595 596
f 552 596 597
f 552 597 598
f 552 598 554
f 554 598 555
f 555 598 599
f 555 599 557
f 555 557 556
f 557 599 600
f 557 600 558
f 558 600 601
f 558 601 559
f 559 601 590
f 560 591 602
f 560 602 561
f 561 602 603
f 561 603 563
f 562 604 605
f 562 605 564
f 562 563 606
f 562 606 604
f 563 603 607
f 563 607 606
f 566 608 567
f 567 608 609
f 568 609 610
f 568 610 611
f 568 611 612
f 568 612 570
f 569 613 571
f 570 612 614
f 570 614 615
f 570 615 616
f 570 616 617
f 570 617 613
f 571 613 618
f 571 618 619
f 571 619 620
f 571 620 621
f 571 621 572
f 572 621 580
f 572 580 573
f 574 622 575
f 574 580 623
f 574 623 624
f 574 624 625
f 574 625 626
f 574 626 627
f 574 627 576
f 574 576 622
f 575 622 576
f 576 628 577
f 576 627 629
f 576 629 628
f 577 630 578
f 577 628 631
f 577 631 630
f 578 630 579
f 579 630 583
f 580 621 632
f 580 632 633
f 580 633 623
f 581 634 587
f 581 582 634
f 582 586 635
f 582 635 634
f 583 630 584
f 584 630 631
f 584 631 686
f 584 686 637
f 584 637 638
f 584 638 636
f 585 639 586
f 585 636 639
f 586 639 635
f 587 634 588
f 588 634 635
f 588 635 640
f 588 640 641
f 588 641 589
f 590 601 642
f 590 642 643
f 590 643 591
f 591 643 602
f 592 644 645
f 592 645 593
f 593 645 646
f 593 646 594
f 594 646 595
f 595 646 647
f 595 647 596
f 596 647 648
f 596 648 597
f 597 648 598
f 598 648 649
f 598 649 650
f 598 650 599
f 599 650 651
f 599 651 600
f 600 651 652
f 600 652 601
f 601 652 642
f 602 643 653
f 602 653 603
f 603 653 654
f 603 654 607
f 604 606 655
f 606 607 656
f 606 656 657
f 606 657 658
f 606 658 655
f 607 654 659
f 607 659 656
f 608 660 610
f 608 610 609
f 610 660 661
f 610 661 662
f 610 662 611
f 611 662 663
f 611 663 612
f 612 616 614
f 612 663 664
f 612 664 665
f 612 665 666
f 612 666 616
f 613 617 667
f 613 667 618
f 614 616 615
f 616 666 665
f 616 665 668
f 616 668 669
f 616 669 617
f 617 669 670
f 617 670 667
f 618 667 670
f 618 670 669
f 618 669 671
f 618 671 672
f 618 672 619
f 619 672 620
f 620 672 671
f 620 671 673
f 620 673 674
f 620 674 675
f 620 675 621
f 621 675 676
f 621 676 632
f 623 677 624
f 623 633 677
f 624 677 678
f 624 678 625
f 625 679 626
f 625 678 632
f 625 632 679
f 626 680 627
f 626 679 681
f 626 681 682
f 626 682 683
f 626 683 680
f 627 680 629
f 628 629 684
f 628 684 685
f 628 685 686
f 628 686 631
f 629 680 684
f 632 676 673
f 632 673 679
f 632 678 677
f 632 677 633
f 635 639 687
f 635 687 640
f 636 688 689
f 636 689 639
f 636 638 690
f 636 690 688
f 637 686 691
f 637 691 638
f 638 691 735
f 638 735 692
f 638 692 693
f 638 693 690
f 639 689 694
f 639 694 695
f 639 695 687
f 640 687 641
f 641 687 696
f 642 652 697
f 642 697 698
f 642 698 643
f 643 698 699
f 643 699 709
f 643 709 653
f 644 700 645
f 645 700 701
f 645 701 702
f 645 702 646
f 646 702 647
f 647 702 703
f 647 703 648
f 648 703 704
f 648 704 705
f 648 705 649
f 649 705 650
f 650 705 706
f 650 706 707
f 650 707 651
f 651 707 708
f 651 708 652
f 652 708 697
f 653 709 710
f 653 710 654
f 654 710 711
f 654 711 659
f 656 659 712
f 656 712 764
f 656 764 713
f 656 713 657
f 659 711 714
f 659 714 715
f 659 715 712
f 661 716 717
f 661 717 662
f 662 717 663
f 663 717 718
f 663 718 664
f 664 718 719
f 664 719 720
f 664 720 665
f 665 720 722
f 665 722 668
f 668 721 671
f 668 671 669
f 668 722 723
f 668 723 721
f 671 721 679
f 671 679 673
f 673 676 674
f 674 676 675
f 679 721 723
f 679 723 681
f 680 683 724
f 680 724 725
f 680 725 684
f 681 723 682
f 682 726 727
f 682 727 728
f 682 728 729
f 682 729 683
f 682 723 726
f 683 729 724
f 684 725 724
f 684 724 730
f 684 730 685
f 685 730 731
f 685 731 732
f 685 732 733
f 685 733 734
f 685 734 686
f 686 734 735
f 686 735 691
f 687 695 696
f 688 736 737
f 688 737 738
f 688 738 689
f 688 690 739
f 688 739 736
f 689 738 694
f 690 693 742
f 690 742 739
f 692 735 740
f 692 740 741
f 692 741 693
f 693 741 742
f 694 738 743
f 694 743 695
f 695 743 744
f 695 744 696
f 697 708 745
f 697 745 746
f 697 746 747
f 697 747 698
f 698 747 748
f 698 748 699
f 699 748 709
f 700 749 701
f 701 749 750
f 701 750 751
f 701 751 752
f 701 752 702
f 702 752 703
f 703 752 753
f 703 753 704
f 704 753 754
f 704 754 705
f 705 754 755
f 705 755 756
f 705 756 706
f 706 756 757
f 706 757 707
f 707 757 758
f 707 758 708
f 708 758 759
f 708 759 745
f 709 748 760
f 709 760 710
f 710 760 761
f 710 761 711
f 711 761 762
f 711 762 714
f 712 763 764
f 712 715 763
f 714 762 765
f 714 765 715
f 715 765 766
f 715 766 767
f 715 767 768
f 715 768 763
f 716 769 717
f 717 769 770
f 717 770 771
f 717 771 718
f 718 771 772
f 718 772 719
f 719 772 773
f 719 773 720
f 720 773 774
f 720 774 722
f 722 774 726
f 722 726 723
f 724 775 730
f 724 729 776
f 724 776 777
f 724 777 775
f 726 774 727
f 727 774 778
f 727 778 779
f 727 779 780
f 727 780 781
f 727 781 728
f 728 781 776
f 728 776 729
f 730 775 731
f 731 775 732
f 732 775 782
f 732 782 733
f 733 735 734
f 733 782 783
f 733 783 784
f 733 784 735
f 735 784 740
f 740 784 824
f 740 824 785
f 740 785 786
f 740 786 741
f 741 786 787
f 741 787 742
f 745 759 746
f 746 759 788
f 746 788 789
f 746 789 748
f 746 748 747
f 748 789 790
f 748 790 760
f 750 791 751
f 751 791 752
f 752 791 792
f 752 792 832
f 752 832 793
f 752 793 753
f 753 793 754
f 754 793 832
f 754 832 794
f 754 794 755
f 755 794 835
f 755 835 795
f 755 795 756
f 756 795 796
f 756 796 757
f 757 796 797
f 757 797 798
f 757 798 799
f 757 799 800
f 757 800 758
f 758 800 759
f 759 800 799
f 759 799 801
f 759 801 802
f 759 802 788
f 760 790 761
f 761 790 803
f 761 803 762
f 762 803 804
f 762 804 765
f 765 804 805
f 765 805 806
f 765 806 766
f 766 806 807
f 766 807 767
f 767 807 808
f 769 809 810
f 769 810 770
f 770 810 811
f 770 811 771
f 771 811 772
f 772 811 812
f 772 812 813
f 772 813 773
f 773 813 814
f 773 814 778
f 773 778 774
f 775 777 815
f 775 815 782
f 776 781 816
f 776 816 817
f 776 817 777
f 777 817 815
f 778 814 818
f 778 818 779
f 779 818 863
f 779 863 819
f 779 819 820
f 779 820 780
f 780 820 821
f 780 821 781
f 781 821 816
f 782 815 822
f 782 822 783
f 783 822 823
f 783 823 824
f 783 824 784
f 785 824 825
f 785 825 826
f 785 826 786
f 786 826 871
f 786 871 827
f 786 827 787
f 788 802 846
f 788 846 828
f 788 828 789
f 789 828 829
f 789 829 790
f 790 829 830
f 790 830 803
f 791 831 792
f 792 831 833
f 792 833 834
f 792 834 832
f 794 832 834
f 794 834 835
f 795 836 796
f 795 835 837
f 795 837 838
f 795 838 836
f 796 836 839
f 796 839 880
f 796 880 840
f 796 840 841
f 796 841 842
f 796 842 797
f 797 843 799
f 797 799 798
f 797 842 843
f 799 843 844
f 799 844 801
f 801 844 845
f 801 845 802
f 802 845 890
f 802 890 846
f 803 830 804
f 804 830 805
f 805 830 847
f 805 847 848
f 805 848 849
f 805 849 806
f 806 849 807
f 807 849 850
f 807 850 851
f 807 851 852
f 807 852 808
f 809 853 810
f 810 854 811
f 810 853 855
f 810 855 854
f 811 854 856
f 811 856 813
f 811 813 812
f 813 856 857
f 813 857 858
f 813 858 818
f 813 818 814
f 815 817 859
f 815 859 822
f 816 821 860
f 816 860 861
f 816 861 862
f 816 862 817
f 817 862 859
f 818 858 901
f 818 901 863
f 819 863 905
f 819 905 864
f 819 864 865
f 819 865 820
f 820 865 860
f 820 860 821
f 822 859 866
f 822 866 867
f 822 867 868
f 822 868 823
f 823 868 869
f 823 869 824
f 824 869 825
f 825 869 870
f 825 870 872
f 825 872 826
f 826 872 873
f 826 873 871
f 828 846 874
f 828 874 829
f 829 874 847
f 829 847 830
f 831 875 833
f 833 875 876
f 833 876 877
f 833 877 834
f 834 837 835
f 834 877 837
f 836 838 839
f 837 877 838
f 838 877 878
f 838 878 879
f 838 879 921
f 838 921 880
f 838 880 839
f 840 881 841
f 840 880 882
f 840 882 881
f 841 883 884
f 841 884 885
f 841 885 886
f 841 886 842
f 841 881 882
f 841 882 883
f 842 886 843
f 843 886 885
f 843 885 887
f 843 887 844
f 844 887 845
f 845 887 888
f 845 888 889
f 845 889 890
f 846 890 874
f 847 891 848
f 847 874 915
f 847 915 891
f 848 892 850
f 848 850 849
f 848 891 893
f 848 893 894
f 848 894 892
f 850 892 895
f 850 895 851
f 851 895 896
f 851 896 852
f 853 897 855
f 854 855 857
f 854 857 856
f 855 897 898
f 855 898 899
f 855 899 900
f 855 900 857
f 857 900 858
f 858 900 901
f 859 862 866
f 860 865 907
f 860 907 902
f 860 902 903
f 860 903 861
f 861 903 904
f 861 904 862
f 862 904 866
f 863 901 939
f 863 939 905
f 864 905 944
f 864 944 906
f 864 906 865
f 865 906 907
f 866 904 908
f 866 908 909
f 866 909 867
f 867 909 868
f 868 909 910
f 868 910 911
f 868 911 869
f 869 911 870
f 870 912 913
f 870 913 872
f 870 911 951
f 870 951 912
f 872 913 914
f 872 914 873
f 874 890 915
f 875 916 876
f 876 916 955
f 876 955 917
f 876 917 878
f 876 878 877
f 878 917 918
f 878 918 919
f 878 919 920
f 878 920 879
f 879 920 961
f 879 961 921
f 880 921 882
f 882 921 922
f 882 922 924
f 882 924 923
f 882 923 883
f 883 923 884
f 884 923 924
f 884 924 925
f 884 925 926
f 884 926 888
f 884 888 887
f 884 887 885
f 888 927 889
f 888 926 927
f 889 927 890
f 890 927 928
f 890 928 929
f 890 929 915
f 891 915 929
f 891 929 893
f 892 894 930
f 892 930 931
f 892 931 895
f 893 929 932
f 893 932 933
f 893 933 930
f 893 930 894
f 895 931 934
f 895 934 896
f 896 934 935
f 898 936 937
f 898 937 899
f 899 937 900
f 900 937 938
f 900 938 901
f 901 938 939
f 902 907 947
f 902 947 940
f 902 940 903
f 903 940 941
f 903 941 942
f 903 942 904
f 904 942 908
f 905 939 943
f 905 943 944
f 906 944 945
f 906 945 946
f 906 946 947
f 906 947 907
f 908 942 948
f 908 948 949
f 908 949 909
f 909 949 910
f 910 949 950
f 910 950 951
f 910 951 911
f 912 951 996
f 912 996 952
f 912 952 953
f 912 953 913
f 913 953 954
f 913 954 914
f 917 955 918
f 918 956 957
f 918 957 958
f 918 958 919
f 918 955 956
f 919 958 959
f 919 959 960
f 919 960 920
f 920 960 961
f 921 961 962
f 921 962 922
f 922 962 924
f 924 962 963
f 924 963 964
f 924 964 925
f 925 964 926
f 926 964 965
f 926 965 966
f 926 966 967
f 926 967 968
f 926 968 969
f 926 969 927
f 927 969 970
f 927 970 928
f 928 970 932
f 928 932 929
f 930 971 931
f 930 933 972
f 930 972 973
f 930 973 974
f 930 974 971
f 931 971 975
f 931 975 934
f 932 970 1010
f 932 1010 976
f 932 976 972
f 932 972 933
f 934 975 935
f 935 975 977
f 936 978 979
f 936 979 980
f 936 980 937
f 937 980 938
f 938 980 979
f 938 979 981
f 938 981 939
f 939 981 943
f 940 947 993
f 940 993 982
f 940 982 983
f 940 983 941
f 941 983 942
f 942 983 984
f 942 984 985
f 942 985 948
f 943 986 987
f 943 987 988
f 943 988 945
f 943 945 944
f 943 981 986
f 945 988 989
f 945 989 990
f 945 990 946
f 946 990 991
f 946 991 992
f 946 992 1023
f 946 1023 993
f 946 993 947
f 948 985 994
f 948 994 949
f 949 994 995
f 949 995 950
f 950 995 951
f 951 995 996
f 952 996 1001
f 952 1001 997
f 952 997 953
f 953 997 998
f 953 998 954
f 954 998 999
f 957 1000 998
f 957 998 958
f 958 998 997
f 958 997 959
f 959 997 960
f 960 997 1001
f 960 1001 1002
f 960 1002 961
f 961 1002 1003
f 961 1003 962
f 962 1003 963
f 963 1003 1004
f 963 1004 965
f 963 965 964
f 965 1004 1005
f 965 1005 1006
f 965 1006 966
f 966 1006 1007
f 966 1007 1008
f 966 1008 967
f 967 1008 1026
f 967 1026 1009
f 967 1009 1010
f 967 1010 968
f 968 1010 970
f 968 970 969
f 971 974 975
f 972 976 1011
f 972 1011 1012
f 972 1012 973
f 973 1012 974
f 974 1012 1013
f 974 1013 1029
f 974 1029 1014
f 974 1014 975
f 975 1014 977
f 976 1010 1009
f 976 1009 1015
f 976 1015 1011
f 977 1014 1016
f 978 1017 979
f 979 1017 1018
f 979 1018 1019
f 979 1019 987
f 979 987 986
f 979 986 981
f 982 993 1023
f 982 1023 1008
f 982 1008 1007
f 982 1007 983
f 983 1007 1006
f 983 1006 984
f 984 1006 1005
f 984 1005 985
f 985 1005 994
f 987 1019 1034
f 987 1034 1020
f 987 1020 988
f 988 1020 989
f 989 1020 1021
f 989 1021 990
f 990 1021 991
f 991 1021 1038
f 991 1038 1022
f 991 1022 992
f 992 1022 1015
f 992 1015 1026
f 992 1026 1023
f 994 1005 1024
f 994 1024 1025
f 994 1025 995
f 995 1025 1001
f 995 1001 996
f 998 1000 999
f 1001 1025 1002
f 1002 1025 1024
f 1002 1024 1003
f 1003 1024 1005
f 1003 1005 1004
f 1008 1023 1026
f 1009 1026 1015
f 1011 1015 1027
f 1011 1027 1028
f 1011 1028 1012
f 1012 1028 1013
f 1013 1028 1030
f 1013 1030 1031
f 1013 1031 1029
f 1014 1029 1016
f 1015 1022 1027
f 1016 1029 1032
f 1018 1033 1019
f 1019 1033 1034
f 1020 1034 1035
f 1020 1035 1036
f 1020 1036 1021
f 1021 1036 1037
f 1021 1037 1038
f 1022 1038 1028
f 1022 1028 1027
f 1028 1038 1030
f 1029 1031 1032
f 1030 1038 1037
f 1030 1037 1031
f 1031 1037 1039
f 1031 1039 1040
f 1031 1040 1032
f 1033 1041 1035
f 1033 1035 1034
f 1035 1041 1042
f 1035 1042 1039
f 1035 1039 1037
f 1035 1037 1036
f 1039 1042 1040
