v -0.39737359 0.42992032 -0.23877327
v -0.39346233 0.42992032 -0.25000995
v -0.39726391 0.40997997 -0.23877327
v -0.39737359 0.44996843 -0.23877327
v -0.39353544 0.44996843 -0.25000995
v -0.38618815 0.44996843 -0.27000743
v -0.38607848 0.42992032 -0.27000743
v -0.39331612 0.40997997 -0.25000995
v -0.39704460 0.38993186 -0.23877327
v -0.39733702 0.46990877 -0.23877327
v -0.39353544 0.46990877 -0.25000995
v -0.38622469 0.46990877 -0.27000743
v -0.38121685 0.46990877 -0.28297719
v -0.38118029 0.44996843 -0.28288198
v -0.38110721 0.42992032 -0.28272963
v -0.38103408 0.40997997 -0.28248203
v -0.38589573 0.40997997 -0.27000743
v -0.39306027 0.38993186 -0.25000995
v -0.39276782 0.36999154 -0.25000995
v -0.39697149 0.38508150 -0.23877327
v -0.39726391 0.48510653 -0.23877327
v -0.39342576 0.48995689 -0.25000995
v -0.38618815 0.48995689 -0.27000743
v -0.38121685 0.48995689 -0.28297719
v -0.37701318 0.46990877 -0.29297593
v -0.37694007 0.44996843 -0.29288071
v -0.37686697 0.42992032 -0.29274741
v -0.37675732 0.40997997 -0.29248077
v -0.38088787 0.38993186 -0.28213921
v -0.38563985 0.38993186 -0.27000743
v -0.39664251 0.36460224 -0.23877327
v -0.38490880 0.34994340 -0.27000743
v -0.39236572 0.34994340 -0.25000995
v -0.39635009 0.34994340 -0.23877327
v -0.39722735 0.48995689 -0.23877327
v -0.39324301 0.50989723 -0.25000995
v -0.38589573 0.52994537 -0.27000743
v -0.38607848 0.50989723 -0.27000743
v -0.38114375 0.50989723 -0.28286293
v -0.37694007 0.52994537 -0.29269028
v -0.37697661 0.50989723 -0.29286167
v -0.37701318 0.48995689 -0.29297593
v -0.36944658 0.48995689 -0.31000236
v -0.36937347 0.46990877 -0.31000236
v -0.36926380 0.44996843 -0.31000236
v -0.36911759 0.42992032 -0.31000236
v -0.36889827 0.40997997 -0.31000236
v -0.36860585 0.38993186 -0.31000236
v -0.37661111 0.38993186 -0.29213795
v -0.38070512 0.36999154 -0.28173926
v -0.38048577 0.34994340 -0.28124410
v -0.38026646 0.32989529 -0.28071082
v -0.38443357 0.32989529 -0.27000743
v -0.39192706 0.32989529 -0.25000995
v -0.39572865 0.32353592 -0.23877327
v -0.39700806 0.50989723 -0.23877327
v -0.39280438 0.54999346 -0.25000995
v -0.38567638 0.54999346 -0.27000743
v -0.38088787 0.56993377 -0.28221539
v -0.38099754 0.54999346 -0.28246298
v -0.38107064 0.52994537 -0.28269154
v -0.37686697 0.54999346 -0.29246172
v -0.36904448 0.56993377 -0.31000236
v -0.36919069 0.54999346 -0.31000236
v -0.36933690 0.52994537 -0.31000236
v -0.36941004 0.50989723 -0.31000236
v -0.36239171 0.50989723 -0.32495284
v -0.36239171 0.48995689 -0.32493380
v -0.36235517 0.46990877 -0.32485762
v -0.36228204 0.44996843 -0.32472432
v -0.36220896 0.42992032 -0.32455289
v -0.36209929 0.40997997 -0.32434341
v -0.36195308 0.38993186 -0.32405773
v -0.36180687 0.36999154 -0.32371491
v -0.36827683 0.36999154 -0.31000236
v -0.37642831 0.36999154 -0.29173800
v -0.37624556 0.34994340 -0.29126188
v -0.37598968 0.32989529 -0.29070956
v -0.38008368 0.31588316 -0.28029183
v -0.38319075 0.30952382 -0.27189291
v -0.39137876 0.30995494 -0.25000995
v -0.39532655 0.30995494 -0.23877327
v -0.39602110 0.58998191 -0.23877327
v -0.39258504 0.56993377 -0.25000995
v -0.38545710 0.56993377 -0.27000743
v -0.38520122 0.58998191 -0.27000743
v -0.38074166 0.58998191 -0.28187257
v -0.37664765 0.58998191 -0.29189035
v -0.37675732 0.56993377 -0.29221413
v -0.36882514 0.58998191 -0.31000236
v -0.36217239 0.58998191 -0.32455289
v -0.36224550 0.56993377 -0.32472432
v -0.36231861 0.54999346 -0.32481954
v -0.36235517 0.52994537 -0.32489571
v -0.35742041 0.54999346 -0.33481827
v -0.35745698 0.50989723 -0.33495158
v -0.35745698 0.48995689 -0.33493254
v -0.35742041 0.46990877 -0.33485636
v -0.35734731 0.44996843 -0.33472303
v -0.35723764 0.42992032 -0.33455163
v -0.35712796 0.40997997 -0.33434212
v -0.35698175 0.38993186 -0.33405647
v -0.35683554 0.36999154 -0.33371365
v -0.36158752 0.34994340 -0.32329592
v -0.36136821 0.32989529 -0.32285789
v -0.36739957 0.32989529 -0.31000236
v -0.36688781 0.30995494 -0.31000236
v -0.37518549 0.28990683 -0.29000488
v -0.37653798 0.30952382 -0.28817654
v -0.37990093 0.30251774 -0.27981570
v -0.37971815 0.28990683 -0.27933955
v -0.38359284 0.28990683 -0.26934084
v -0.39075738 0.28990683 -0.25000995
v -0.39510727 0.30284110 -0.23877327
v -0.39232916 0.58998191 -0.25000995
v -0.39576522 0.60280842 -0.23877327
v -0.38479912 0.60992229 -0.27000743
v -0.38052234 0.60992229 -0.28133932
v -0.37642831 0.60992229 -0.29133806
v -0.36842307 0.60992229 -0.31000236
v -0.36198962 0.60992229 -0.32415295
v -0.35731077 0.58998191 -0.33455163
v -0.35738385 0.56993377 -0.33472303
v -0.34934205 0.58998191 -0.34999731
v -0.34941515 0.56993377 -0.34999731
v -0.34952480 0.52994537 -0.34999731
v -0.34956139 0.50989723 -0.34999731
v -0.34952480 0.48995689 -0.34999731
v -0.34941515 0.46990877 -0.34999731
v -0.34930551 0.44996843 -0.34999731
v -0.34912273 0.42992032 -0.34999731
v -0.34890342 0.40997997 -0.34999731
v -0.34861100 0.38993186 -0.34999731
v -0.34828198 0.36999154 -0.34999731
v -0.34791645 0.34994340 -0.34999731
v -0.35661623 0.34994340 -0.33329466
v -0.35639691 0.32989529 -0.33285660
v -0.35617757 0.30995494 -0.33234239
v -0.36111233 0.30995494 -0.32234365
v -0.36081991 0.28990683 -0.32175326
v -0.36052746 0.26996648 -0.32114381
v -0.36630297 0.28990683 -0.31000236
v -0.36506015 0.24991837 -0.31000236
v -0.37456408 0.26996648 -0.29000488
v -0.37390614 0.24991837 -0.29000488
v -0.37324816 0.22997804 -0.29000488
v -0.37938917 0.26996648 -0.27852061
v -0.38326386 0.26996648 -0.26852190
v -0.38293487 0.24991837 -0.26768389
v -0.39009941 0.26996648 -0.25000995
v -0.39441273 0.28214628 -0.23877327
v -0.39192706 0.60992229 -0.25000995
v -0.39561900 0.60992229 -0.23877327
v -0.38026646 0.62220979 -0.28067273
v -0.36685127 0.62997037 -0.31000236
v -0.36118543 0.62997037 -0.32251507
v -0.35712796 0.60992229 -0.33415169
v -0.34893996 0.60992229 -0.34999731
v -0.34181198 0.60992229 -0.36321467
v -0.34199476 0.58998191 -0.36351940
v -0.34203130 0.56993377 -0.36359558
v -0.34206787 0.52994537 -0.36363366
v -0.34206787 0.50989723 -0.36365271
v -0.34206787 0.48995689 -0.36361462
v -0.34199476 0.46990877 -0.36353844
v -0.34192166 0.44996843 -0.36342418
v -0.34184855 0.42992032 -0.36329085
v -0.34173888 0.40997997 -0.36310041
v -0.34159267 0.38993186 -0.36285281
v -0.34144646 0.36999154 -0.36258617
v -0.34126368 0.34994340 -0.36226243
v -0.34108090 0.32989529 -0.36191961
v -0.34747779 0.32989529 -0.34999731
v -0.34703916 0.30995494 -0.34999731
v -0.34649086 0.28990683 -0.34999731
v -0.34590602 0.26996648 -0.34999731
v -0.35588515 0.28990683 -0.33175197
v -0.35559273 0.26996648 -0.33114254
v -0.36023504 0.24991837 -0.32051530
v -0.36005229 0.23806196 -0.32013440
v -0.36363453 0.23084033 -0.31179261
v -0.36414629 0.20992991 -0.30910724
v -0.36378074 0.18998958 -0.30832636
v -0.36341521 0.16994146 -0.30752647
v -0.37251708 0.20992991 -0.29000488
v -0.37873119 0.22997804 -0.27678752
v -0.37906021 0.24991837 -0.27768263
v -0.38940489 0.24991837 -0.25000995
v -0.38256934 0.22997804 -0.26678878
v -0.39291403 0.24118774 -0.23877327
v -0.39046493 0.62997037 -0.25000995
v -0.39412031 0.62997037 -0.23877327
v -0.38297144 0.62932366 -0.27116919
v -0.37942570 0.63557523 -0.27859682
v -0.37620902 0.62932366 -0.28840509
v -0.36034471 0.64085674 -0.32076290
v -0.35628724 0.62997037 -0.33251381
v -0.34729505 0.62997037 -0.34999731
v -0.34097126 0.62997037 -0.36176723
v -0.33523232 0.62997037 -0.37176597
v -0.33603650 0.60992229 -0.37321341
v -0.33621928 0.58998191 -0.37353718
v -0.33625585 0.56993377 -0.37359431
v -0.33629239 0.50989723 -0.37365144
v -0.33625585 0.48995689 -0.37361336
v -0.33621928 0.46990877 -0.37353718
v -0.33618271 0.44996843 -0.37342292
v -0.33599997 0.40997997 -0.37309915
v -0.33585376 0.38993186 -0.37287059
v -0.33570755 0.36999154 -0.37258491
v -0.33552477 0.34994340 -0.37226114
v -0.33534199 0.32989529 -0.37191832
v -0.33512267 0.30995494 -0.37149933
v -0.34082502 0.30995494 -0.36150059
v -0.34056917 0.28990683 -0.36104351
v -0.34031329 0.26996648 -0.36054835
v -0.33991122 0.24269673 -0.35984367
v -0.34429765 0.24959502 -0.35190183
v -0.34499216 0.22997804 -0.34944499
v -0.35530031 0.24991837 -0.33051404
v -0.35588515 0.23084033 -0.32809532
v -0.35983294 0.22480433 -0.31965828
v -0.35957706 0.20992991 -0.31910598
v -0.35921156 0.18998958 -0.31832510
v -0.35844392 0.14989334 -0.31666818
v -0.36301312 0.14989334 -0.30666944
v -0.37105495 0.16994146 -0.29000488
v -0.37836567 0.20992991 -0.27583525
v -0.38220382 0.20992991 -0.26583651
v -0.38867381 0.22997804 -0.25000995
v -0.38790619 0.20992991 -0.25000995
v -0.39247537 0.22997804 -0.23877327
v -0.38194793 0.64462924 -0.26526517
v -0.38823515 0.65034187 -0.23877327
v -0.34020364 0.64042556 -0.36037692
v -0.36959279 0.64991069 -0.29000488
v -0.36239171 0.64850950 -0.30844066
v -0.35712796 0.65411437 -0.31403995
v -0.35288775 0.64850950 -0.32845718
v -0.34272581 0.64829391 -0.34870222
v -0.32521662 0.62997037 -0.38843054
v -0.32602081 0.60992229 -0.38968751
v -0.32496074 0.58879626 -0.39195389
v -0.32627669 0.56993377 -0.38999224
v -0.32634979 0.50989723 -0.38999224
v -0.32631323 0.48995689 -0.38999224
v -0.32624012 0.46990877 -0.38999224
v -0.32609391 0.42992032 -0.38983989
v -0.32598424 0.40997997 -0.38968751
v -0.32583803 0.38993186 -0.38945898
v -0.32569182 0.36999154 -0.38921139
v -0.32554561 0.34994340 -0.38892570
v -0.32532629 0.32989529 -0.38860193
v -0.32510698 0.30995494 -0.38825911
v -0.32485110 0.28990683 -0.38787821
v -0.32459521 0.26996648 -0.38745922
v -0.32433933 0.24991837 -0.38702118
v -0.33486679 0.28990683 -0.37104225
v -0.33461091 0.26996648 -0.37054709
v -0.33541510 0.24959502 -0.36810929
v -0.33373362 0.22997804 -0.36999476
v -0.33969188 0.22997804 -0.35946277
v -0.33936289 0.20992991 -0.35881522
v -0.34462661 0.20992991 -0.34879744
v -0.35420370 0.20992991 -0.33001888
v -0.35274154 0.16994146 -0.33001888
v -0.35197392 0.14989334 -0.33001888
v -0.35804182 0.12995301 -0.31579211
v -0.36261106 0.12995301 -0.30579337
v -0.37025076 0.14989334 -0.29000488
v -0.37800014 0.18998958 -0.27484488
v -0.38180172 0.18998958 -0.26484615
v -0.38139963 0.16994146 -0.26379868
v -0.38099754 0.14989334 -0.26271310
v -0.38629782 0.16994146 -0.25000995
v -0.39167121 0.20992991 -0.23877327
v -0.38443357 0.65077299 -0.25025752
v -0.37891397 0.65788686 -0.25707573
v -0.37683040 0.65077299 -0.27116919
v -0.38198447 0.66209048 -0.23877327
v -0.38121685 0.66133600 -0.24374408
v -0.32302341 0.64635378 -0.38490716
v -0.30105466 0.64225793 -0.42149302
v -0.31900251 0.62997037 -0.39842927
v -0.33695036 0.65379101 -0.35451102
v -0.31984323 0.65971917 -0.37976497
v -0.36030817 0.66025811 -0.30070829
v -0.34060574 0.66068923 -0.34117937
v -0.31980669 0.60992229 -0.39968625
v -0.31995291 0.59461665 -0.39993384
v -0.31998944 0.58135903 -0.40001002
v -0.32002601 0.50989723 -0.40008619
v -0.32002601 0.48995689 -0.40008619
v -0.32002601 0.46990877 -0.40002906
v -0.32492420 0.45180079 -0.39195389
v -0.31987977 0.42992032 -0.39983863
v -0.31995291 0.44641152 -0.39993384
v -0.31977013 0.40997997 -0.39968625
v -0.31966045 0.38993186 -0.39945769
v -0.31929493 0.34994340 -0.39892444
v -0.31911215 0.32989529 -0.39861971
v -0.31947768 0.36999154 -0.39921013
v -0.31889284 0.30995494 -0.39827690
v -0.31863695 0.28990683 -0.39787695
v -0.31838107 0.26996648 -0.39745796
v -0.31808865 0.24991837 -0.39701992
v -0.31779623 0.22997804 -0.39654380
v -0.32401034 0.22997804 -0.38654506
v -0.32364482 0.20992991 -0.38599274
v -0.33303910 0.20992991 -0.36999476
v -0.33073622 0.14989334 -0.36999476
v -0.33859527 0.16994146 -0.35740587
v -0.34389555 0.16994146 -0.34740716
v -0.34426111 0.18998958 -0.34811181
v -0.34349346 0.14989334 -0.34668344
v -0.34309137 0.12995301 -0.34592164
v -0.35029244 0.11001267 -0.33001888
v -0.35760319 0.11001267 -0.31483984
v -0.36217239 0.11001267 -0.30484110
v -0.36941004 0.12995301 -0.29000488
v -0.37723249 0.14989334 -0.27271184
v -0.38055891 0.12995301 -0.26157039
v -0.38022989 0.11507860 -0.26065621
v -0.38542053 0.14989334 -0.25000995
v -0.38911244 0.14989334 -0.23877327
v -0.39046493 0.18115117 -0.23877327
v -0.39130569 0.20119929 -0.23877327
v -0.37814635 0.66510850 -0.23877327
v -0.36644918 0.66597074 -0.27000743
v -0.36246482 0.66252160 -0.29000488
v -0.31655341 0.65185082 -0.39094451
v -0.30529487 0.64937180 -0.40998971
v -0.29758203 0.65562332 -0.41663650
v -0.28646973 0.65346766 -0.43332011
v -0.28851673 0.64947957 -0.43332011
v -0.29495019 0.62997037 -0.43332011
v -0.30229747 0.62997037 -0.42324519
v -0.31128967 0.62997037 -0.40998971
v -0.31293458 0.60992229 -0.40998971
v -0.32360828 0.66338390 -0.36643332
v -0.30653769 0.66532403 -0.38999224
v -0.30218780 0.66209048 -0.40330485
v -0.35029244 0.66564739 -0.30844066
v -0.34331071 0.66316831 -0.33001888
v -0.33015138 0.66575521 -0.34870222
v -0.31461605 0.58879626 -0.40800899
v -0.31333667 0.52994537 -0.41006589
v -0.31333667 0.50989723 -0.41008493
v -0.31333667 0.48995689 -0.41008493
v -0.31454295 0.45180079 -0.40798998
v -0.31304425 0.42992032 -0.40998971
v -0.31286147 0.40997997 -0.40998971
v -0.31256905 0.38993186 -0.40998971
v -0.31224006 0.36999154 -0.40998971
v -0.31187454 0.34994340 -0.40998971
v -0.31147245 0.32989529 -0.40998971
v -0.31103379 0.30995494 -0.40998971
v -0.31055862 0.28990683 -0.40998971
v -0.31004685 0.26996648 -0.40998971
v -0.30949855 0.24991837 -0.40998971
v -0.30891368 0.22997804 -0.40998971
v -0.30825573 0.20992991 -0.40998971
v -0.31746724 0.20992991 -0.39599147
v -0.32327926 0.18998958 -0.38540235
v -0.32291374 0.16994146 -0.38475481
v -0.32251164 0.14989334 -0.38410726
v -0.32210955 0.12995301 -0.38344067
v -0.32993203 0.12995301 -0.36999476
v -0.33819318 0.14989334 -0.35668218
v -0.33779109 0.12995301 -0.35592034
v -0.33738899 0.11001267 -0.35512045
v -0.34265274 0.11001267 -0.34512171
v -0.34221408 0.09007233 -0.34426469
v -0.34937859 0.09007233 -0.33001888
v -0.35712796 0.09007233 -0.31381139
v -0.36169720 0.09007233 -0.30381265
v -0.36853272 0.11001267 -0.29000488
v -0.37679386 0.12995301 -0.27156913
v -0.38454324 0.12995301 -0.25000995
v -0.37701318 0.10915039 -0.26838857
v -0.37547791 0.09007233 -0.27000743
v -0.37990093 0.10182097 -0.25976110
v -0.38293487 0.10915039 -0.25185734
v -0.38819861 0.12995301 -0.23877327
v -0.37057972 0.67049778 -0.23877327
v -0.37134737 0.66737199 -0.25025752
v -0.34996346 0.67146784 -0.29000488
v -0.28142533 0.66090482 -0.43332011
v -0.29666820 0.60992229 -0.43332011
v -0.30313820 0.60992229 -0.42440695
v -0.31191108 0.66888094 -0.37186119
v -0.28997886 0.67480916 -0.38999224
v -0.29052719 0.66694081 -0.40998971
v -0.28423995 0.66349167 -0.42577818
v -0.32996860 0.67222232 -0.33001888
v -0.30328441 0.58998191 -0.42461643
v -0.30332097 0.56993377 -0.42465451
v -0.31330013 0.56993377 -0.41000876
v -0.30332097 0.54999346 -0.42467356
v -0.30332097 0.52994537 -0.42469263
v -0.30332097 0.50989723 -0.42469263
v -0.30332097 0.48995689 -0.42467356
v -0.30328441 0.46990877 -0.42461643
v -0.31326357 0.46990877 -0.41002780
v -0.30321130 0.44996843 -0.42454025
v -0.30313820 0.42992032 -0.42442599
v -0.30302852 0.40997997 -0.42429265
v -0.30291888 0.38993186 -0.42410222
v -0.30273610 0.36999154 -0.42387366
v -0.30255336 0.34994340 -0.42362607
v -0.30237058 0.32989529 -0.42334041
v -0.30215126 0.30995494 -0.42303568
v -0.30189538 0.28990683 -0.42271191
v -0.30138361 0.24991837 -0.42198819
v -0.30109119 0.22997804 -0.42158824
v -0.30076221 0.20992991 -0.42111212
v -0.30039668 0.18998958 -0.42059788
v -0.30014080 0.17586967 -0.42021698
v -0.30752465 0.18998958 -0.40998971
v -0.31710172 0.18998958 -0.39540109
v -0.31629753 0.14989334 -0.39410600
v -0.31585887 0.12995301 -0.39343941
v -0.32167092 0.11001267 -0.38273603
v -0.32905477 0.11001267 -0.36999476
v -0.32814091 0.09007233 -0.36999476
v -0.33695036 0.09007233 -0.35426342
v -0.34173888 0.07002422 -0.34335053
v -0.34839165 0.07002422 -0.33001888
v -0.35665280 0.07002422 -0.31270677
v -0.36758232 0.09007233 -0.29000488
v -0.36118543 0.07002422 -0.30268899
v -0.36655885 0.07002422 -0.29000488
v -0.37441787 0.07002422 -0.27000743
v -0.37960851 0.09007233 -0.25890404
v -0.38779652 0.12165352 -0.23877327
v -0.38297144 0.09007233 -0.24888629
v -0.36158752 0.67513251 -0.23877327
v -0.34802610 0.67653376 -0.26833144
v -0.32810438 0.67728823 -0.30847874
v -0.27089787 0.66801870 -0.43332011
v -0.29692408 0.59256876 -0.43332011
v -0.30818260 0.67718047 -0.34860700
v -0.28910160 0.67879725 -0.37146124
v -0.27506498 0.67933619 -0.38999224
v -0.26841220 0.67739606 -0.40877080
v -0.24929464 0.67728823 -0.43332011
v -0.26939917 0.66888094 -0.43332011
v -0.27155584 0.66855758 -0.43145365
v -0.29696062 0.58998191 -0.43332011
v -0.29699719 0.57262844 -0.43332011
v -0.29707029 0.53274775 -0.43332011
v -0.29710686 0.51269960 -0.43332011
v -0.29710686 0.50989723 -0.43332011
v -0.29707029 0.48995689 -0.43332011
v -0.29699719 0.46990877 -0.43332011
v -0.29688752 0.45244750 -0.43332011
v -0.29670477 0.42992032 -0.43332011
v -0.29652199 0.41192013 -0.43332011
v -0.29622954 0.38993186 -0.43332011
v -0.29590058 0.36999154 -0.43332011
v -0.29553503 0.34994340 -0.43332011
v -0.29509640 0.32763177 -0.43332011
v -0.29469430 0.30952382 -0.43332011
v -0.29421911 0.28990683 -0.43332011
v -0.29367080 0.26845747 -0.43332011
v -0.29414600 0.24991837 -0.43198693
v -0.29389012 0.22997804 -0.43158698
v -0.29356113 0.20992991 -0.43111086
v -0.29323214 0.18998958 -0.43061566
v -0.29421911 0.16951032 -0.42812073
v -0.29988492 0.16250426 -0.41983607
v -0.30628181 0.14989334 -0.40945643
v -0.30587971 0.12995301 -0.40884700
v -0.30544108 0.11001267 -0.40818042
v -0.31542024 0.11001267 -0.39273477
v -0.31498158 0.09007233 -0.39197293
v -0.32119572 0.09007233 -0.38197422
v -0.32072052 0.07002422 -0.38119334
v -0.32719052 0.07002422 -0.36999476
v -0.32543594 0.03003576 -0.36951864
v -0.32492420 0.01009543 -0.36862352
v -0.33596340 0.05008388 -0.35239699
v -0.34122711 0.05008388 -0.34239826
v -0.34071538 0.03003576 -0.34142694
v -0.34031329 0.01397571 -0.34062704
v -0.34634465 0.03003576 -0.33001888
v -0.35614103 0.05008388 -0.31154501
v -0.36067370 0.05008388 -0.30154628
v -0.36027160 0.03467055 -0.30065116
v -0.35990608 0.02130513 -0.29985127
v -0.36359799 0.02885012 -0.29190940
v -0.36549878 0.05008388 -0.29000488
v -0.37335783 0.05008388 -0.27000743
v -0.37226123 0.03003576 -0.27000743
v -0.37116459 0.01009543 -0.27000743
v -0.37906021 0.07002422 -0.25734234
v -0.38245970 0.07002422 -0.24734361
v -0.38721165 0.10968932 -0.23877327
v -0.38677302 0.10074311 -0.23877327
v -0.35190082 0.67879725 -0.23877327
v -0.35076764 0.67815053 -0.25000995
v -0.33175972 0.67890501 -0.29000488
v -0.31202075 0.67890501 -0.33001888
v -0.29516950 0.67965955 -0.35433960
v -0.27934176 0.67998290 -0.37909839
v -0.25525290 0.67955172 -0.41461769
v -0.24308051 0.67912060 -0.43332011
v -0.24618757 0.67836612 -0.43332011
v -0.29312250 0.24787045 -0.43332011
v -0.29261073 0.22997804 -0.43332011
v -0.29184312 0.20658857 -0.43332011
v -0.29107550 0.18578595 -0.43332011
v -0.29045409 0.16961810 -0.43332011
v -0.28968644 0.14989334 -0.43332011
v -0.29209900 0.14989334 -0.42998719
v -0.29962903 0.14989334 -0.41945517
v -0.29919040 0.12995301 -0.41884574
v -0.29875177 0.11001267 -0.41817915
v -0.29827657 0.09007233 -0.41749352
v -0.30496588 0.09007233 -0.40747574
v -0.31446984 0.07002422 -0.39119208
v -0.30449069 0.07002422 -0.40675202
v -0.30346718 0.03003576 -0.40526649
v -0.31998944 0.04027539 -0.37997445
v -0.32496074 0.04814374 -0.37197548
v -0.31918526 0.01009543 -0.37862223
v -0.32437590 -0.00995269 -0.36769029
v -0.33545166 0.03003576 -0.35142568
v -0.33592683 0.00837086 -0.34837845
v -0.33994776 0.00061029 -0.33992237
v -0.34426111 0.00837086 -0.33198053
v -0.34451696 -0.00995269 -0.32935229
v -0.34396866 -0.02989303 -0.32822862
v -0.35467887 0.01009543 -0.31000236
v -0.35643345 0.02885012 -0.30840257
v -0.35358226 -0.00995269 -0.31000236
v -0.35961363 0.01009543 -0.29908946
v -0.36315936 -0.00995269 -0.28775755
v -0.36261106 -0.02989303 -0.28640532
v -0.36202615 -0.04994115 -0.28503409
v -0.36893481 -0.02989303 -0.27000743
v -0.37796357 0.03003576 -0.25412372
v -0.38571295 0.07994050 -0.23877327
v -0.38136306 0.03003576 -0.24412498
v -0.34188509 0.68009067 -0.23877327
v -0.34078848 0.68009067 -0.25000995
v -0.34009397 0.67998290 -0.26056099
v -0.33552477 0.67965955 -0.27389264
v -0.31574923 0.67976731 -0.31413516
v -0.30028701 0.67998290 -0.34100795
v -0.30204159 0.68009067 -0.33001888
v -0.28182742 0.68009067 -0.36576673
v -0.23032328 0.68030626 -0.42993003
v -0.24191080 0.68009067 -0.42322612
v -0.23836508 0.67987508 -0.43332011
v -0.28884572 0.12995301 -0.43332011
v -0.29125828 0.12995301 -0.42998719
v -0.28943056 0.09007233 -0.42998719
v -0.29728961 0.05008388 -0.41600800
v -0.28599453 0.04889824 -0.43192980
v -0.30295545 0.01009543 -0.40448564
v -0.31319046 0.03003576 -0.38999224
v -0.29677784 0.03003576 -0.41526523
v -0.31216696 0.01009543 -0.38999224
v -0.31107035 -0.00995269 -0.38999224
v -0.31863695 -0.00995269 -0.37768903
v -0.32382756 -0.02989303 -0.36671901
v -0.33406261 -0.00995269 -0.34999731
v -0.33296600 -0.02989303 -0.34999731
v -0.33965534 -0.00995269 -0.33933198
v -0.33910704 -0.02989303 -0.33820832
v -0.34338379 -0.04994115 -0.32704782
v -0.35131595 -0.04994115 -0.31000236
v -0.35848045 -0.02989303 -0.29640406
v -0.35734731 -0.06998926 -0.29364252
v -0.36144131 -0.06998926 -0.28364378
v -0.36780167 -0.04994115 -0.27000743
v -0.37748837 -0.01189283 -0.24865773
v -0.37489307 -0.04994115 -0.25000995
v -0.37602621 -0.02989303 -0.25000995
v -0.38304454 0.03003576 -0.23877327
v -0.38081476 0.01009543 -0.24246804
v -0.32613045 0.68009067 -0.23877327
v -0.32996860 0.68019843 -0.25000995
v -0.32178056 0.68009067 -0.29000488
v -0.20824486 0.68019843 -0.43332011
v -0.22893424 0.68019843 -0.43332011
v -0.28796843 0.11001267 -0.43332011
v -0.28672561 0.08392856 -0.43332011
v -0.28581175 0.06517386 -0.43332011
v -0.28625041 0.01009543 -0.42876828
v -0.28493446 0.04760481 -0.43332011
v -0.28482482 0.04544910 -0.43332011
v -0.28361854 0.02184406 -0.43332011
v -0.29626611 0.01009543 -0.41448438
v -0.30240715 -0.00995269 -0.40366670
v -0.28570211 -0.00995269 -0.42804456
v -0.30185884 -0.02989303 -0.40284777
v -0.30131051 -0.04994115 -0.40199071
v -0.30880404 -0.04994115 -0.38999224
v -0.31808865 -0.02989303 -0.37671772
v -0.32324272 -0.04994115 -0.36572865
v -0.32265788 -0.06998926 -0.36468115
v -0.33179629 -0.04994115 -0.34999731
v -0.33793730 -0.06998926 -0.33584669
v -0.34279895 -0.06998926 -0.32584798
v -0.35014623 -0.06998926 -0.31000236
v -0.34893996 -0.08992960 -0.31000236
v -0.34766060 -0.10997772 -0.31000236
v -0.35672587 -0.08992960 -0.29213795
v -0.36085647 -0.08992960 -0.28213921
v -0.36663193 -0.06998926 -0.27000743
v -0.37979126 -0.02989303 -0.23877327
v -0.37997401 -0.01976117 -0.23997313
v -0.37372336 -0.06998926 -0.25000995
v -0.38099754 -0.00779697 -0.23877327
v -0.32002601 0.67998290 -0.23877327
v -0.20188452 0.67965955 -0.43332011
v -0.28248537 0.00028694 -0.43332011
v -0.28515381 -0.02989303 -0.42728275
v -0.28460550 -0.04994115 -0.42650190
v -0.29571781 -0.00995269 -0.41366544
v -0.28193706 -0.00995269 -0.43332011
v -0.28131565 -0.02137797 -0.43332011
v -0.29516950 -0.02989303 -0.41284651
v -0.29458463 -0.04994115 -0.41198945
v -0.29399979 -0.06998926 -0.41107529
v -0.30068910 -0.06998926 -0.40107656
v -0.30025047 -0.08421697 -0.40040997
v -0.30759776 -0.06998926 -0.38999224
v -0.31750381 -0.04994115 -0.37572739
v -0.32203645 -0.08992960 -0.36357653
v -0.33059001 -0.06998926 -0.34999731
v -0.31688237 -0.06998926 -0.37467989
v -0.32934719 -0.08992960 -0.34999731
v -0.33731589 -0.08992960 -0.33457068
v -0.34217751 -0.08992960 -0.32457194
v -0.34155613 -0.10997772 -0.32327688
v -0.34093469 -0.12991807 -0.32194370
v -0.34638119 -0.12991807 -0.31000236
v -0.35504442 -0.12991807 -0.29000488
v -0.35683554 -0.11148672 -0.28855744
v -0.35994262 -0.11924729 -0.27989188
v -0.36542565 -0.08992960 -0.27000743
v -0.37862155 -0.04994115 -0.23877327
v -0.37982780 -0.02924632 -0.23877327
v -0.38041267 -0.01857553 -0.23877327
v -0.37741527 -0.06998926 -0.23877327
v -0.37847531 -0.05242021 -0.23877327
v -0.37251708 -0.08992960 -0.25000995
v -0.31933147 0.67976731 -0.23877327
v -0.18974870 0.67653376 -0.43332011
v -0.19088186 0.67685711 -0.43332011
v -0.27974385 -0.04994115 -0.43332011
v -0.28402063 -0.06998926 -0.42568296
v -0.28339922 -0.08992960 -0.42484498
v -0.29462120 -0.09057632 -0.40823755
v -0.28211984 -0.12991807 -0.42303568
v -0.29984838 -0.09758237 -0.39976242
v -0.30518520 -0.09057632 -0.39183962
v -0.30500245 -0.12991807 -0.38808772
v -0.31626096 -0.08992960 -0.37357527
v -0.31563956 -0.10997772 -0.37245160
v -0.32137847 -0.10997772 -0.36245286
v -0.32072052 -0.12991807 -0.36131015
v -0.32675189 -0.12991807 -0.34999731
v -0.33665794 -0.10997772 -0.33327562
v -0.33599997 -0.12991807 -0.33196148
v -0.34038639 -0.14565474 -0.32085812
v -0.34404176 -0.15136740 -0.31192592
v -0.34404176 -0.16990650 -0.30899295
v -0.35369194 -0.14996618 -0.29000488
v -0.36337864 -0.11148672 -0.27193099
v -0.35957706 -0.12991807 -0.27897772
v -0.35891911 -0.14996618 -0.27718747
v -0.36264759 -0.14996618 -0.26718873
v -0.36330557 -0.12991807 -0.26895994
v -0.37127423 -0.10997772 -0.25000995
v -0.37577036 -0.09650452 -0.23877327
v -0.31077790 0.67685711 -0.23877327
v -0.16664678 0.66650969 -0.43332011
v -0.27857414 -0.06998926 -0.43332011
v -0.27755064 -0.08658825 -0.43332011
v -0.27616158 -0.10857651 -0.43332011
v -0.29220867 -0.10997772 -0.40998971
v -0.27495533 -0.12991807 -0.43303442
v -0.28142533 -0.14996618 -0.42204532
v -0.29089272 -0.12991807 -0.40998971
v -0.29878831 -0.12991807 -0.39808646
v -0.30430794 -0.14996618 -0.38700214
v -0.31498158 -0.12991807 -0.37130889
v -0.32024533 -0.14382240 -0.36049122
v -0.32441244 -0.15028954 -0.35176849
v -0.32459521 -0.16990650 -0.34874031
v -0.33413571 -0.16990650 -0.33001888
v -0.33621928 -0.15136740 -0.32851431
v -0.33991122 -0.15902016 -0.31986779
v -0.34331071 -0.18995464 -0.30737412
v -0.35226634 -0.16990650 -0.29000488
v -0.35080421 -0.18995464 -0.29000488
v -0.35818803 -0.16990650 -0.27530199
v -0.36195308 -0.16990650 -0.26528421
v -0.36871549 -0.14996618 -0.25000995
v -0.37003142 -0.12991807 -0.25000995
v -0.37441787 -0.11795385 -0.23877327
v -0.30284578 0.67265344 -0.23877327
v -0.16343005 0.66446173 -0.43332011
v -0.29169691 0.66618633 -0.23877327
v -0.27473599 -0.12991807 -0.43332011
v -0.27331039 -0.14996618 -0.43332011
v -0.27316418 -0.15201411 -0.43332011
v -0.27426079 -0.14996618 -0.43204406
v -0.28950369 -0.14996618 -0.40998971
v -0.28065771 -0.16990650 -0.42097878
v -0.29809380 -0.14996618 -0.39700088
v -0.30357686 -0.16990650 -0.38582134
v -0.31289804 -0.16990650 -0.36999476
v -0.31531057 -0.15028954 -0.36828071
v -0.31977013 -0.15708002 -0.35961512
v -0.32386413 -0.18995464 -0.34735000
v -0.33263701 -0.18995464 -0.33001888
v -0.33877802 -0.18995464 -0.31737286
v -0.34257960 -0.20989496 -0.30573624
v -0.34930551 -0.20989496 -0.29000488
v -0.35745698 -0.18995464 -0.27335936
v -0.36122200 -0.18995464 -0.26336062
v -0.36732644 -0.16990650 -0.25000995
v -0.37233430 -0.14996618 -0.23877327
v -0.36955625 -0.18995464 -0.23877327
v -0.15838565 0.66079706 -0.43332011
v -0.28222948 0.65637785 -0.23877327
v -0.27144617 -0.17367899 -0.43332011
v -0.27345663 -0.16990650 -0.43097752
v -0.28018248 -0.18240964 -0.42027414
v -0.28800499 -0.16990650 -0.40998971
v -0.29732618 -0.16990650 -0.39582008
v -0.30284578 -0.18995464 -0.38460246
v -0.31139934 -0.18995464 -0.36999476
v -0.31929493 -0.16990650 -0.35873905
v -0.31856385 -0.18995464 -0.35734874
v -0.31779623 -0.20989496 -0.35590130
v -0.32309651 -0.20989496 -0.34588352
v -0.33110178 -0.20989496 -0.33001888
v -0.33801043 -0.20989496 -0.31573495
v -0.34177542 -0.22994310 -0.30400312
v -0.35672587 -0.20989496 -0.27139771
v -0.34773368 -0.22994310 -0.29000488
v -0.36008883 -0.22121245 -0.26027530
v -0.36590087 -0.18995464 -0.25000995
v -0.36893481 -0.19868526 -0.23877327
v -0.14935689 0.65044963 -0.43332011
v -0.27970731 0.65217417 -0.23877327
v -0.14073022 0.63783872 -0.43332011
v -0.14657882 0.64689273 -0.43332011
v -0.14826028 0.64915621 -0.43332011
v -0.27013022 -0.18963128 -0.43332011
v -0.27393180 -0.18941569 -0.42815885
v -0.27963418 -0.19577506 -0.41949326
v -0.28537312 -0.18941569 -0.41168475
v -0.29655856 -0.18995464 -0.39460117
v -0.30204159 -0.20989496 -0.38328832
v -0.30982754 -0.20989496 -0.36999476
v -0.30814606 -0.22994310 -0.36999476
v -0.31695551 -0.22994310 -0.35435864
v -0.32225579 -0.22994310 -0.34434086
v -0.32949340 -0.22994310 -0.33001888
v -0.33720624 -0.22994310 -0.31400186
v -0.34093469 -0.24999121 -0.30211765
v -0.35650659 -0.22864965 -0.26816005
v -0.34605223 -0.24999121 -0.29000488
v -0.35402092 -0.24999121 -0.27000743
v -0.35954052 -0.23447007 -0.25877073
v -0.36261106 -0.22864965 -0.25126693
v -0.36443871 -0.20989496 -0.25000995
v -0.36663193 -0.22940415 -0.23877327
v -0.27641746 0.64656937 -0.23877327
v -0.13648999 0.62997037 -0.43332011
v -0.26950881 -0.19685292 -0.43332011
v -0.26837566 -0.20989496 -0.43332011
v -0.27078819 -0.20989496 -0.42998719
v -0.27901277 -0.20989496 -0.41856006
v -0.28570211 -0.20989496 -0.40856132
v -0.29571781 -0.20989496 -0.39328706
v -0.30116430 -0.22994310 -0.38189802
v -0.30046979 -0.24481750 -0.38077435
v -0.30514866 -0.25085348 -0.37180406
v -0.31604165 -0.24999121 -0.35266364
v -0.32137847 -0.24999121 -0.34266490
v -0.32777539 -0.24999121 -0.33001888
v -0.33636549 -0.24999121 -0.31211638
v -0.34031329 -0.26324883 -0.30076542
v -0.34349346 -0.26993152 -0.29149041
v -0.35208356 -0.26993152 -0.27000743
v -0.35891911 -0.24999121 -0.25690430
v -0.36235517 -0.24999121 -0.24690557
v -0.36579120 -0.24029049 -0.23877327
v -0.26892397 0.62997037 -0.23877327
v -0.12731501 0.60916775 -0.43332011
v -0.26647487 -0.22994310 -0.43332011
v -0.26888740 -0.22994310 -0.42998719
v -0.27806237 -0.22994310 -0.41718879
v -0.28478825 -0.22994310 -0.40719005
v -0.29480398 -0.22994310 -0.39189675
v -0.29491362 -0.25085348 -0.38846862
v -0.29981181 -0.25807512 -0.37968877
v -0.30500245 -0.26993152 -0.36854732
v -0.31596854 -0.27144054 -0.34870222
v -0.32061085 -0.26583567 -0.34119841
v -0.32466832 -0.27144054 -0.33190435
v -0.33607307 -0.26993152 -0.30845970
v -0.33961877 -0.27650645 -0.29914659
v -0.34294516 -0.28997967 -0.28718621
v -0.35793215 -0.26993152 -0.25418085
v -0.34978068 -0.28997967 -0.27000743
v -0.36140478 -0.26993152 -0.24418211
v -0.36498702 -0.24999121 -0.23877327
v -0.26303881 0.61175460 -0.23877327
v -0.12088157 0.58998191 -0.43332011
v -0.12303824 0.59655684 -0.43332011
v -0.26607278 -0.23382336 -0.43332011
v -0.26574379 -0.24902114 -0.43154889
v -0.27700233 -0.24999121 -0.41566518
v -0.28380132 -0.24999121 -0.40566644
v -0.29177001 -0.26993152 -0.38999224
v -0.29911730 -0.26993152 -0.37854606
v -0.30375960 -0.28997967 -0.36639524
v -0.31297114 -0.28997967 -0.34999731
v -0.31987977 -0.27909333 -0.33980811
v -0.32419312 -0.28997967 -0.32843813
v -0.33296600 -0.28997967 -0.31000236
v -0.33877802 -0.28997967 -0.29718494
v -0.34151956 -0.30991998 -0.28373900
v -0.35731077 -0.29094973 -0.24907672
v -0.36060059 -0.28491375 -0.24180146
v -0.34692949 -0.30991998 -0.27000743
v -0.35427678 -0.30991998 -0.25000995
v -0.36312279 -0.26993152 -0.23877327
v -0.36385387 -0.26227877 -0.23877327
v -0.26205188 0.60841322 -0.23877327
v -0.11510609 0.56993377 -0.43332011
v -0.26461062 -0.24761993 -0.43332011
v -0.26428163 -0.25042236 -0.43332011
v -0.26585346 -0.26993152 -0.42800647
v -0.27583259 -0.26993152 -0.41395110
v -0.28266814 -0.26993152 -0.40395236
v -0.28131565 -0.28997967 -0.40199071
v -0.28913814 -0.28997967 -0.38999224
v -0.29780138 -0.28997967 -0.37639397
v -0.30226091 -0.30991998 -0.36382413
v -0.31918526 -0.28997967 -0.33841780
v -0.30997375 -0.30991998 -0.34999731
v -0.31772313 -0.30991998 -0.33552295
v -0.32273096 -0.30991998 -0.32552421
v -0.33007824 -0.30991998 -0.31000236
v -0.33735245 -0.30991998 -0.29373774
v -0.34049606 -0.32263869 -0.28124410
v -0.35975987 -0.29827914 -0.23932558
v -0.36133164 -0.28663832 -0.23877327
v -0.36195308 -0.28103346 -0.23877327
v -0.36001572 -0.29774022 -0.23877327
v -0.34323758 -0.32953697 -0.27082637
v -0.35087729 -0.32996812 -0.25000995
v -0.35815150 -0.30991998 -0.23877327
v -0.25989521 0.60022151 -0.23877327
v -0.11013480 0.54999346 -0.43332011
v -0.26376989 -0.25473377 -0.43332011
v -0.26194221 -0.26993152 -0.43332011
v -0.26446441 -0.28997967 -0.42612100
v -0.27444357 -0.28997967 -0.41198945
v -0.28040183 -0.30237499 -0.40060043
v -0.28522691 -0.30938107 -0.39132541
v -0.29622954 -0.30991998 -0.37382287
v -0.30094498 -0.32457882 -0.36159584
v -0.30529487 -0.33072260 -0.35155901
v -0.31669962 -0.33190826 -0.32958084
v -0.32126883 -0.32651898 -0.32261029
v -0.32521662 -0.33190826 -0.31198305
v -0.33599997 -0.32953697 -0.28874791
v -0.33921668 -0.33589631 -0.27804449
v -0.35957706 -0.30065045 -0.23877327
v -0.34159267 -0.34990844 -0.26414150
v -0.35456923 -0.33039925 -0.23877327
v -0.35760319 -0.31315356 -0.23877327
v -0.34674674 -0.34990844 -0.25000995
v -0.25751922 0.58998191 -0.23877327
v -0.10589457 0.53091538 -0.43332011
v -0.25912759 -0.28997967 -0.43332011
v -0.26281950 -0.30991998 -0.42387366
v -0.27382216 -0.30938107 -0.40835184
v -0.27926865 -0.31574041 -0.39888635
v -0.28434962 -0.32996812 -0.38677359
v -0.29520607 -0.33072260 -0.36894727
v -0.29955596 -0.33794424 -0.35925326
v -0.30372307 -0.34990844 -0.34677866
v -0.31256905 -0.34990844 -0.33001888
v -0.31995291 -0.33988440 -0.31996301
v -0.32346204 -0.34990844 -0.30752647
v -0.33117488 -0.34990844 -0.29000488
v -0.33768141 -0.34990844 -0.27415928
v -0.34031329 -0.36111814 -0.26084667
v -0.35051176 -0.34990844 -0.23877327
v -0.34232375 -0.36866313 -0.24953382
v -0.34846476 -0.35831574 -0.23877327
v -0.25499701 0.57823324 -0.23877327
v -0.10212953 0.50989723 -0.43332011
v -0.25309622 0.56917930 -0.23877327
v -0.25602052 -0.30851877 -0.43332011
v -0.25576463 -0.30991998 -0.43332011
v -0.26128423 -0.32608783 -0.42175967
v -0.26705971 -0.33169270 -0.41189423
v -0.27787960 -0.32996812 -0.39677233
v -0.28211984 -0.34990844 -0.38332641
v -0.29030788 -0.34990844 -0.36999476
v -0.29816690 -0.34990844 -0.35677740
v -0.30171260 -0.36618409 -0.34312198
v -0.31881973 -0.34990844 -0.31752521
v -0.30609906 -0.37168115 -0.33186626
v -0.32156125 -0.36575294 -0.30339366
v -0.32510698 -0.37146556 -0.29169992
v -0.33530545 -0.36866313 -0.26850283
v -0.33852217 -0.37448359 -0.25587589
v -0.34572324 -0.36941764 -0.23877327
v -0.34086162 -0.38278306 -0.24254422
v -0.09894937 0.48995689 -0.43332011
v -0.24969673 0.54988569 -0.23877327
v -0.25525290 -0.31250685 -0.43332011
v -0.25459492 -0.33169270 -0.42905396
v -0.25985864 -0.33945325 -0.41983607
v -0.26559758 -0.34990844 -0.40800899
v -0.27561328 -0.34990844 -0.39332515
v -0.28062114 -0.36219600 -0.38096482
v -0.28482482 -0.36930984 -0.37075657
v -0.29637578 -0.37168115 -0.34986398
v -0.29984838 -0.37954950 -0.33975098
v -0.31691894 -0.37146556 -0.31004044
v -0.30335754 -0.38989693 -0.32659075
v -0.31977013 -0.37911832 -0.29950845
v -0.32236543 -0.38989693 -0.28562450
v -0.32861611 -0.38989693 -0.27000743
v -0.33625585 -0.38968134 -0.24953382
v -0.34316447 -0.37890279 -0.23877327
v -0.33961877 -0.39086699 -0.23877327
v -0.34144646 -0.38483095 -0.23877327
v -0.09617129 0.46990877 -0.43332011
v -0.24673587 0.52994537 -0.23877327
v -0.25141475 -0.33115375 -0.43332011
v -0.25024503 -0.33632746 -0.43332011
v -0.24680899 -0.35066295 -0.43332011
v -0.25854272 -0.34990844 -0.41800773
v -0.26292917 -0.36995658 -0.40419996
v -0.27360284 -0.36930984 -0.38858289
v -0.27872035 -0.37556142 -0.37795568
v -0.28255850 -0.38989693 -0.36426216
v -0.29074651 -0.38989693 -0.34999731
v -0.29816690 -0.38989693 -0.33657041
v -0.31147245 -0.38989693 -0.31000236
v -0.30120087 -0.40326232 -0.32234365
v -0.31808865 -0.38989693 -0.29562321
v -0.32053775 -0.40153778 -0.28133932
v -0.32265788 -0.40886718 -0.26920751
v -0.33830285 -0.39496285 -0.23877327
v -0.32938373 -0.40994501 -0.25000995
v -0.09357598 0.44878280 -0.43332011
v -0.24549305 0.52035242 -0.23877327
v -0.24414057 0.50989723 -0.23877327
v -0.24622414 -0.35292643 -0.43332011
v -0.24578549 -0.36995658 -0.42764461
v -0.25580120 -0.36995658 -0.41419870
v -0.26099181 -0.38299865 -0.40143842
v -0.26578033 -0.38978910 -0.39092547
v -0.27645403 -0.38989693 -0.37426090
v -0.28062114 -0.40175331 -0.36106256
v -0.28416684 -0.40897495 -0.35007349
v -0.30449069 -0.40994501 -0.31047848
v -0.29502329 -0.40994501 -0.32940942
v -0.29875177 -0.41662771 -0.31744903
v -0.31468916 -0.40886718 -0.28880504
v -0.31816176 -0.41490316 -0.27532104
v -0.32090330 -0.42083138 -0.26259881
v -0.33706003 -0.39862752 -0.23877327
v -0.32152471 -0.42083138 -0.26090381
v -0.32554561 -0.42083138 -0.24932432
v -0.32843333 -0.42083138 -0.24071589
v -0.33322188 -0.40972948 -0.23877327
v -0.09152897 0.43067482 -0.43332011
v -0.24326327 0.50246000 -0.23877327
v -0.24180113 0.48995689 -0.23877327
v -0.23968102 0.47152555 -0.23877327
v -0.24147215 -0.36995658 -0.43332011
v -0.24260531 -0.38989693 -0.42347372
v -0.25335211 -0.38978910 -0.40886605
v -0.25876203 -0.39636403 -0.39820072
v -0.26292917 -0.40994501 -0.38441199
v -0.27323729 -0.40897495 -0.36864257
v -0.27813548 -0.41501093 -0.35679644
v -0.28248537 -0.42083138 -0.34508362
v -0.30258989 -0.42083138 -0.30579337
v -0.30507556 -0.42083138 -0.30034643
v -0.28533655 -0.42083138 -0.33978906
v -0.29498672 -0.42083138 -0.32146758
v -0.29802069 -0.42083138 -0.31539214
v -0.30957165 -0.42083138 -0.28994775
v -0.31337324 -0.42083138 -0.28111076
v -0.31684583 -0.42083138 -0.27278802
v -0.32905477 -0.42083138 -0.23877327
v -0.08944541 0.40997997 -0.43332011
v -0.23639119 0.43498623 -0.23877327
v -0.08758117 0.39047077 -0.43332011
v -0.23514837 -0.38946575 -0.43332011
v -0.23467317 -0.39086699 -0.43332011
v -0.24059486 -0.40153778 -0.42080739
v -0.24531029 -0.40886718 -0.41031349
v -0.25616673 -0.40994501 -0.39442977
v -0.26080903 -0.42083138 -0.38123143
v -0.26143044 -0.42083138 -0.38027918
v -0.27246967 -0.42083138 -0.36220527
v -0.27718508 -0.42083138 -0.35433960
v -0.18071994 -0.42083138 -0.23877327
v -0.23595254 0.42992032 -0.23877327
v -0.08586315 0.36999154 -0.43332011
v -0.22791074 -0.40865159 -0.43332011
v -0.22999430 -0.40994501 -0.43000624
v -0.23788989 -0.41479540 -0.41718879
v -0.24355571 -0.42083138 -0.40587595
v -0.24721107 -0.42083138 -0.40073374
v -0.02397777 -0.42083138 -0.43332011
v -0.23145644 0.36999154 -0.23877327
v -0.23485593 0.41655490 -0.23877327
v -0.22615616 -0.41296303 -0.43332011
v -0.23266271 -0.42083138 -0.42057884
v -0.23704916 -0.42083138 -0.41477007
v -0.22261046 -0.42083138 -0.43332011
v -0.23434418 0.40997997 -0.23877327
v -0.23343034 0.39780021 -0.23877327
v -0.23284549 0.38993186 -0.23877327
v -0.23211440 0.37969223 -0.23877327
v -0.22703345 -0.42083138 -0.42773986
f 1 2 3
f 1 3 9
f 1 9 20
f 1 20 31
f 1 31 34
f 1 34 55
f 1 55 82
f 1 82 114
f 1 114 151
f 1 151 190
f 1 190 232
f 1 232 276
f 1 276 327
f 1 327 326
f 1 326 325
f 1 325 384
f 1 384 435
f 1 435 498
f 1 498 499
f 1 499 543
f 1 543 581
f 1 581 616
f 1 616 647
f 1 647 646
f 1 646 613
f 1 613 645
f 1 645 649
f 1 649 648
f 1 648 679
f 1 679 705
f 1 705 728
f 1 728 729
f 1 729 750
f 1 750 775
f 1 775 796
f 1 796 816
f 1 816 838
f 1 838 837
f 1 837 859
f 1 859 858
f 1 858 860
f 1 860 880
f 1 880 863
f 1 863 883
f 1 883 882
f 1 882 901
f 1 901 903
f 1 903 922
f 1 922 941
f 1 941 943
f 1 943 942
f 1 942 961
f 1 961 980
f 1 980 984
f 1 984 1005
f 1 1005 1018
f 1 1018 1027
f 1 1027 1036
f 1 1036 1035
f 1 1035 1034
f 1 1034 1033
f 1 1033 1028
f 1 1028 1019
f 1 1019 1007
f 1 1007 988
f 1 988 987
f 1 987 986
f 1 986 965
f 1 965 964
f 1 964 945
f 1 945 925
f 1 925 906
f 1 906 904
f 1 904 885
f 1 885 864
f 1 864 839
f 1 839 817
f 1 817 797
f 1 797 776
f 1 776 752
f 1 752 731
f 1 731 708
f 1 708 706
f 1 706 680
f 1 680 651
f 1 651 617
f 1 617 583
f 1 583 545
f 1 545 500
f 1 500 437
f 1 437 385
f 1 385 328
f 1 328 280
f 1 280 234
f 1 234 192
f 1 192 153
f 1 153 116
f 1 116 83
f 1 83 56
f 1 56 35
f 1 35 21
f 1 21 10
f 1 10 4
f 1 4 11
f 1 11 5
f 1 5 2
f 2 5 6
f 2 6 7
f 2 7 8
f 2 8 3
f 3 8 9
f 4 10 11
f 5 11 12
f 5 12 6
f 6 12 13
f 6 13 14
f 6 14 7
f 7 14 15
f 7 15 16
f 7 16 17
f 7 17 8
f 8 17 30
f 8 30 18
f 8 18 9
f 9 18 19
f 9 19 20
f 10 21 11
f 11 21 22
f 11 22 23
f 11 23 12
f 12 23 24
f 12 24 13
f 13 24 42
f 13 42 25
f 13 25 14
f 14 25 26
f 14 26 27
f 14 27 15
f 15 27 16
f 16 27 28
f 16 28 49
f 16 49 29
f 16 29 30
f 16 30 17
f 18 30 19
f 19 31 20
f 19 30 32
f 19 32 33
f 19 33 34
f 19 34 31
f 21 35 22
f 22 35 36
f 22 36 37
f 22 37 38
f 22 38 23
f 23 38 24
f 24 38 39
f 24 39 40
f 24 40 41
f 24 41 42
f 25 42 43
f 25 43 44
f 25 44 45
f 25 45 26
f 26 45 27
f 27 45 46
f 27 46 47
f 27 47 28
f 28 47 48
f 28 48 49
f 29 49 76
f 29 76 50
f 29 50 30
f 30 50 32
f 32 51 52
f 32 52 53
f 32 53 54
f 32 54 33
f 32 50 51
f 33 54 34
f 34 54 55
f 35 56 84
f 35 84 57
f 35 57 36
f 36 57 58
f 36 58 37
f 37 58 59
f 37 59 60
f 37 60 38
f 38 60 61
f 38 61 39
f 39 61 40
f 40 61 60
f 40 60 62
f 40 62 63
f 40 63 64
f 40 64 65
f 40 65 41
f 41 65 42
f 42 65 66
f 42 66 43
f 43 66 67
f 43 67 68
f 43 68 69
f 43 69 44
f 44 69 45
f 45 69 70
f 45 70 46
f 46 70 71
f 46 71 72
f 46 72 47
f 47 72 73
f 47 73 48
f 48 73 74
f 48 74 75
f 48 75 49
f 49 75 76
f 50 76 77
f 50 77 51
f 51 77 52
f 52 78 79
f 52 79 53
f 52 77 78
f 53 79 80
f 53 80 54
f 54 80 81
f 54 81 55
f 55 81 82
f 56 83 84
f 57 84 85
f 57 85 58
f 58 85 59
f 59 85 86
f 59 86 87
f 59 87 88
f 59 88 89
f 59 89 62
f 59 62 60
f 62 89 63
f 63 89 90
f 63 90 91
f 63 91 92
f 63 92 64
f 64 92 65
f 65 92 93
f 65 93 66
f 66 93 94
f 66 94 67
f 67 94 95
f 67 95 96
f 67 96 97
f 67 97 68
f 68 97 98
f 68 98 69
f 69 98 99
f 69 99 70
f 70 99 71
f 71 99 100
f 71 100 101
f 71 101 72
f 72 101 102
f 72 102 73
f 73 102 103
f 73 103 74
f 74 103 136
f 74 136 104
f 74 104 75
f 75 104 105
f 75 105 106
f 75 106 77
f 75 77 76
f 77 106 78
f 78 106 107
f 78 107 108
f 78 108 109
f 78 109 79
f 79 109 110
f 79 110 80
f 80 110 111
f 80 111 112
f 80 112 81
f 81 112 113
f 81 113 114
f 81 114 82
f 83 115 84
f 83 116 115
f 84 115 86
f 84 86 85
f 86 115 152
f 86 152 117
f 86 117 87
f 87 117 118
f 87 118 88
f 88 118 119
f 88 119 120
f 88 120 90
f 88 90 89
f 90 120 121
f 90 121 91
f 91 121 157
f 91 157 122
f 91 122 123
f 91 123 92
f 92 123 93
f 93 95 94
f 93 123 95
f 95 123 124
f 95 124 125
f 95 125 126
f 95 126 96
f 96 126 127
f 96 127 97
f 97 127 128
f 97 128 98
f 98 128 129
f 98 129 130
f 98 130 99
f 99 130 131
f 99 131 100
f 100 131 132
f 100 132 101
f 101 132 133
f 101 133 102
f 102 133 103
f 103 133 134
f 103 134 135
f 103 135 136
f 104 136 137
f 104 137 105
f 105 137 138
f 105 138 139
f 105 139 106
f 106 139 107
f 107 139 140
f 107 140 141
f 107 141 142
f 107 142 108
f 108 111 110
f 108 110 109
f 108 142 143
f 108 143 144
f 108 144 111
f 111 144 145
f 111 145 146
f 111 146 147
f 111 147 148
f 111 148 112
f 112 148 113
f 113 148 149
f 113 149 150
f 113 150 114
f 114 150 151
f 115 116 152
f 116 153 152
f 117 152 154
f 117 154 118
f 118 154 119
f 119 154 120
f 120 154 155
f 120 155 156
f 120 156 121
f 121 156 157
f 122 157 124
f 122 124 123
f 124 157 158
f 124 158 159
f 124 159 160
f 124 160 161
f 124 161 125
f 125 161 126
f 126 161 127
f 127 161 162
f 127 162 163
f 127 163 164
f 127 164 128
f 128 164 129
f 129 164 130
f 130 164 165
f 130 165 166
f 130 166 167
f 130 167 131
f 131 167 168
f 131 168 132
f 132 168 169
f 132 169 133
f 133 169 170
f 133 170 134
f 134 170 171
f 134 171 135
f 135 171 172
f 135 172 173
f 135 173 136
f 136 173 174
f 136 174 137
f 137 174 138
f 138 174 175
f 138 175 176
f 138 176 177
f 138 177 140
f 138 140 139
f 140 177 178
f 140 178 141
f 141 178 220
f 141 220 179
f 141 179 142
f 142 179 180
f 142 180 143
f 143 180 181
f 143 181 182
f 143 182 144
f 144 182 145
f 145 182 146
f 146 182 183
f 146 183 184
f 146 184 185
f 146 185 186
f 146 186 187
f 146 187 147
f 147 187 149
f 147 149 148
f 149 188 150
f 149 187 186
f 149 186 189
f 149 189 188
f 150 188 151
f 151 188 190
f 152 153 191
f 152 191 154
f 153 192 191
f 154 193 194
f 154 194 195
f 154 195 155
f 154 191 193
f 155 194 196
f 155 196 156
f 155 195 194
f 156 196 197
f 156 197 157
f 157 197 198
f 157 198 158
f 158 198 199
f 158 199 159
f 159 199 200
f 159 200 201
f 159 201 202
f 159 202 160
f 160 202 161
f 161 202 203
f 161 203 162
f 162 203 204
f 162 204 163
f 163 204 164
f 164 204 205
f 164 205 206
f 164 206 207
f 164 207 165
f 165 207 166
f 166 207 167
f 167 208 168
f 167 207 208
f 168 208 209
f 168 209 169
f 169 209 170
f 170 209 210
f 170 210 211
f 170 211 171
f 171 211 212
f 171 212 172
f 172 212 213
f 172 213 214
f 172 214 174
f 172 174 173
f 174 214 215
f 174 215 216
f 174 216 175
f 175 216 217
f 175 217 176
f 176 217 218
f 176 218 219
f 176 219 177
f 177 219 178
f 178 219 220
f 179 220 180
f 180 220 221
f 180 221 222
f 180 222 181
f 181 222 223
f 181 223 182
f 182 223 224
f 182 224 183
f 183 224 184
f 184 224 225
f 184 225 226
f 184 226 227
f 184 227 185
f 185 227 186
f 186 227 228
f 186 228 229
f 186 229 189
f 188 189 229
f 188 229 230
f 188 230 190
f 190 230 231
f 190 231 232
f 191 192 233
f 191 233 194
f 191 194 193
f 192 234 233
f 194 233 196
f 196 235 197
f 196 233 236
f 196 236 237
f 196 237 238
f 196 238 239
f 196 239 240
f 196 240 235
f 197 235 198
f 198 235 199
f 199 235 200
f 200 235 241
f 200 241 201
f 201 241 242
f 201 242 202
f 202 243 244
f 202 244 203
f 202 242 243
f 203 244 245
f 203 245 204
f 204 245 246
f 204 246 205
f 205 246 247
f 205 247 206
f 206 247 207
f 207 247 248
f 207 248 208
f 208 248 249
f 208 249 250
f 208 250 209
f 209 250 251
f 209 251 252
f 209 252 210
f 210 252 211
f 211 252 212
f 212 252 253
f 212 253 254
f 212 254 213
f 213 254 255
f 213 255 256
f 213 256 257
f 213 257 258
f 213 258 215
f 213 215 214
f 215 258 259
f 215 259 216
f 216 259 260
f 216 260 217
f 217 260 261
f 217 261 262
f 217 262 219
f 217 219 218
f 219 262 263
f 219 263 264
f 219 264 265
f 219 265 220
f 220 265 221
f 221 265 222
f 222 265 223
f 223 265 266
f 223 266 224
f 224 266 267
f 224 267 225
f 225 267 268
f 225 268 269
f 225 269 226
f 226 269 227
f 227 269 270
f 227 270 271
f 227 271 228
f 228 271 229
f 229 271 272
f 229 272 230
f 230 272 231
f 231 272 273
f 231 273 274
f 231 274 275
f 231 275 276
f 231 276 232
f 233 234 277
f 233 277 278
f 233 278 279
f 233 279 236
f 234 280 281
f 234 281 278
f 234 278 277
f 235 282 283
f 235 283 284
f 235 284 241
f 235 240 285
f 235 285 286
f 235 286 282
f 236 279 287
f 236 287 237
f 237 287 238
f 238 287 288
f 238 288 239
f 239 288 240
f 240 288 285
f 241 284 289
f 241 289 242
f 242 289 290
f 242 290 243
f 243 291 244
f 243 290 291
f 244 291 245
f 245 291 292
f 245 292 293
f 245 293 294
f 245 294 246
f 246 294 247
f 247 294 295
f 247 295 248
f 248 296 298
f 248 298 249
f 248 295 297
f 248 297 296
f 249 298 299
f 249 299 250
f 250 299 251
f 251 299 252
f 252 300 301
f 252 301 253
f 252 299 302
f 252 302 300
f 253 301 303
f 253 303 254
f 254 303 255
f 255 303 304
f 255 304 305
f 255 305 256
f 256 305 257
f 257 259 258
f 257 305 306
f 257 306 307
f 257 307 308
f 257 308 261
f 257 261 259
f 259 261 260
f 261 308 309
f 261 309 310
f 261 310 262
f 262 310 263
f 263 310 311
f 263 311 312
f 263 312 313
f 263 313 314
f 263 314 264
f 264 314 265
f 265 314 313
f 265 313 266
f 266 313 267
f 267 313 315
f 267 315 316
f 267 316 317
f 267 317 268
f 268 317 318
f 268 318 319
f 268 319 269
f 269 319 320
f 269 320 270
f 270 320 321
f 270 321 271
f 271 321 272
f 272 321 273
f 273 321 274
f 274 321 378
f 274 378 322
f 274 322 275
f 275 322 323
f 275 323 324
f 275 324 325
f 275 325 326
f 275 326 327
f 275 327 276
f 278 281 287
f 278 287 279
f 280 328 329
f 280 329 281
f 281 329 330
f 281 330 287
f 282 331 332
f 282 332 283
f 282 286 331
f 283 332 333
f 283 333 334
f 283 334 335
f 283 335 336
f 283 336 337
f 283 337 338
f 283 338 284
f 284 338 339
f 284 339 289
f 285 288 286
f 286 288 340
f 286 340 341
f 286 341 342
f 286 342 333
f 286 333 332
f 286 332 331
f 287 330 343
f 287 343 344
f 287 344 288
f 288 344 345
f 288 345 340
f 289 339 290
f 290 339 346
f 290 346 291
f 291 346 347
f 291 347 292
f 292 347 348
f 292 348 349
f 292 349 293
f 293 349 294
f 294 350 297
f 294 297 295
f 294 349 350
f 296 297 351
f 296 351 352
f 296 352 298
f 297 350 351
f 298 352 299
f 299 353 354
f 299 354 302
f 299 352 353
f 300 355 301
f 300 302 355
f 301 355 356
f 301 356 357
f 301 357 303
f 302 354 355
f 303 357 358
f 303 358 359
f 303 359 304
f 304 359 305
f 305 359 360
f 305 360 306
f 306 360 361
f 306 361 307
f 307 361 362
f 307 362 363
f 307 363 308
f 308 363 309
f 309 363 420
f 309 420 364
f 309 364 310
f 310 364 365
f 310 365 311
f 311 365 366
f 311 366 367
f 311 367 368
f 311 368 369
f 311 369 312
f 312 369 315
f 312 315 313
f 315 369 370
f 315 370 316
f 316 370 371
f 316 371 372
f 316 372 317
f 317 372 373
f 317 373 374
f 317 374 318
f 318 374 375
f 318 375 376
f 318 376 319
f 319 376 377
f 319 377 320
f 320 377 321
f 321 377 378
f 322 378 323
f 323 379 324
f 323 378 380
f 323 380 381
f 323 381 382
f 323 382 383
f 323 383 379
f 324 379 325
f 325 379 384
f 328 385 386
f 328 386 329
f 329 386 385
f 329 385 387
f 329 387 343
f 329 343 330
f 333 342 388
f 333 388 334
f 334 388 440
f 334 440 447
f 334 447 446
f 334 446 508
f 334 508 507
f 334 507 555
f 334 555 587
f 334 587 586
f 334 586 618
f 334 618 653
f 334 653 652
f 334 652 681
f 334 681 707
f 334 707 730
f 334 730 751
f 334 751 755
f 334 755 754
f 334 754 753
f 334 753 777
f 334 777 798
f 334 798 819
f 334 819 818
f 334 818 840
f 334 840 865
f 334 865 886
f 334 886 905
f 334 905 924
f 334 924 944
f 334 944 963
f 334 963 985
f 334 985 1006
f 334 1006 1008
f 334 1008 1020
f 334 1020 1026
f 334 1026 1032
f 334 1032 1029
f 334 1029 1021
f 334 1021 1010
f 334 1010 1009
f 334 1009 989
f 334 989 966
f 334 966 948
f 334 948 947
f 334 947 946
f 334 946 926
f 334 926 908
f 334 908 907
f 334 907 887
f 334 887 867
f 334 867 866
f 334 866 842
f 334 842 841
f 334 841 820
f 334 820 799
f 334 799 779
f 334 779 778
f 334 778 756
f 334 756 732
f 334 732 711
f 334 711 710
f 334 710 709
f 334 709 684
f 334 684 683
f 334 683 682
f 334 682 654
f 334 654 624
f 334 624 623
f 334 623 619
f 334 619 594
f 334 594 593
f 334 593 592
f 334 592 590
f 334 590 589
f 334 589 588
f 334 588 556
f 334 556 514
f 334 514 513
f 334 513 512
f 334 512 511
f 334 511 510
f 334 510 509
f 334 509 465
f 334 465 464
f 334 464 463
f 334 463 462
f 334 462 461
f 334 461 460
f 334 460 459
f 334 459 458
f 334 458 457
f 334 457 456
f 334 456 455
f 334 455 454
f 334 454 453
f 334 453 452
f 334 452 451
f 334 451 450
f 334 450 449
f 334 449 441
f 334 441 389
f 334 389 336
f 334 336 335
f 336 389 337
f 337 389 390
f 337 390 339
f 337 339 338
f 339 390 346
f 340 345 391
f 340 391 341
f 341 391 392
f 341 392 393
f 341 393 342
f 342 393 394
f 342 394 388
f 343 387 395
f 343 395 344
f 344 395 345
f 345 395 391
f 346 396 397
f 346 397 398
f 346 398 347
f 346 390 396
f 347 398 397
f 347 397 399
f 347 399 400
f 347 400 348
f 348 400 401
f 348 401 349
f 349 401 402
f 349 402 403
f 349 403 404
f 349 404 350
f 350 404 351
f 351 404 403
f 351 403 405
f 351 405 406
f 351 406 352
f 352 406 407
f 352 407 408
f 352 408 353
f 353 408 354
f 354 408 409
f 354 409 410
f 354 410 355
f 355 410 411
f 355 411 356
f 356 411 412
f 356 412 357
f 357 412 358
f 358 412 413
f 358 413 414
f 358 414 359
f 359 414 360
f 360 414 415
f 360 415 361
f 361 415 416
f 361 416 362
f 362 416 417
f 362 417 418
f 362 418 419
f 362 419 363
f 363 419 420
f 364 420 365
f 365 420 421
f 365 421 366
f 366 421 367
f 367 422 475
f 367 475 423
f 367 423 368
f 367 421 422
f 368 423 424
f 368 424 371
f 368 371 370
f 368 370 369
f 371 424 425
f 371 425 426
f 371 426 373
f 371 373 372
f 373 426 427
f 373 427 374
f 374 427 428
f 374 428 375
f 375 428 429
f 375 429 376
f 376 430 377
f 376 429 431
f 376 431 430
f 377 430 378
f 378 430 381
f 378 381 380
f 379 383 384
f 381 430 432
f 381 432 433
f 381 433 434
f 381 434 382
f 382 434 383
f 383 435 384
f 383 434 436
f 383 436 435
f 385 437 387
f 387 437 438
f 387 438 439
f 387 439 395
f 388 394 440
f 389 441 396
f 389 396 390
f 391 395 392
f 392 395 442
f 392 442 443
f 392 443 444
f 392 444 445
f 392 445 446
f 392 446 447
f 392 447 448
f 392 448 393
f 393 448 394
f 394 448 440
f 395 439 442
f 396 449 397
f 396 441 449
f 397 449 450
f 397 450 451
f 397 451 452
f 397 452 399
f 399 452 400
f 400 452 453
f 400 453 401
f 401 453 402
f 402 453 454
f 402 454 455
f 402 455 403
f 403 455 456
f 403 456 405
f 405 456 406
f 406 456 457
f 406 457 458
f 406 458 407
f 407 458 408
f 408 459 460
f 408 460 409
f 408 458 459
f 409 460 410
f 410 461 411
f 410 460 461
f 411 462 412
f 411 461 462
f 412 463 464
f 412 464 413
f 412 462 463
f 413 464 465
f 413 465 414
f 414 465 466
f 414 466 467
f 414 467 415
f 415 467 468
f 415 468 416
f 416 468 469
f 416 469 417
f 417 469 418
f 418 469 470
f 418 470 471
f 418 471 419
f 419 471 472
f 419 472 420
f 420 472 473
f 420 473 421
f 421 473 474
f 421 474 422
f 422 474 475
f 423 475 476
f 423 476 477
f 423 477 425
f 423 425 424
f 425 477 478
f 425 478 479
f 425 479 426
f 426 479 480
f 426 480 481
f 426 481 482
f 426 482 427
f 427 482 483
f 427 483 428
f 428 483 484
f 428 484 485
f 428 485 486
f 428 486 429
f 429 487 488
f 429 488 431
f 429 486 487
f 430 431 488
f 430 488 489
f 430 489 432
f 432 489 490
f 432 490 491
f 432 491 492
f 432 492 493
f 432 493 433
f 433 493 434
f 434 493 494
f 434 494 495
f 434 495 496
f 434 496 497
f 434 497 436
f 435 436 498
f 436 497 499
f 436 499 498
f 437 500 501
f 437 501 438
f 438 501 502
f 438 502 439
f 439 502 503
f 439 503 442
f 440 448 447
f 442 503 443
f 443 503 504
f 443 504 505
f 443 505 444
f 444 506 507
f 444 507 508
f 444 508 445
f 444 505 506
f 445 508 446
f 465 509 466
f 466 509 467
f 467 509 510
f 467 510 511
f 467 511 468
f 468 511 469
f 469 511 512
f 469 512 513
f 469 513 514
f 469 514 515
f 469 515 470
f 470 515 471
f 471 515 516
f 471 516 472
f 472 516 473
f 473 516 517
f 473 517 518
f 473 518 474
f 474 518 519
f 474 519 520
f 474 520 475
f 475 520 476
f 476 521 478
f 476 478 477
f 476 520 522
f 476 522 523
f 476 523 521
f 478 521 524
f 478 524 479
f 479 524 525
f 479 525 480
f 480 525 524
f 480 524 481
f 481 526 566
f 481 566 527
f 481 527 528
f 481 528 482
f 481 524 526
f 482 528 484
f 482 484 483
f 484 528 485
f 485 528 529
f 485 529 530
f 485 530 531
f 485 531 486
f 486 531 487
f 487 531 532
f 487 532 533
f 487 533 534
f 487 534 535
f 487 535 489
f 487 489 488
f 489 535 490
f 490 535 536
f 490 536 537
f 490 537 491
f 491 537 538
f 491 538 492
f 492 538 493
f 493 538 539
f 493 539 494
f 494 539 495
f 495 539 540
f 495 540 541
f 495 541 496
f 496 541 542
f 496 542 544
f 496 544 497
f 497 543 499
f 497 544 543
f 500 545 546
f 500 546 547
f 500 547 501
f 501 547 502
f 502 547 548
f 502 548 549
f 502 549 503
f 503 549 504
f 504 549 550
f 504 550 505
f 505 551 552
f 505 552 553
f 505 553 554
f 505 554 555
f 505 555 506
f 505 550 551
f 506 555 507
f 514 556 557
f 514 557 515
f 515 557 516
f 516 557 517
f 517 557 518
f 518 558 519
f 518 557 558
f 519 559 522
f 519 522 520
f 519 558 560
f 519 560 559
f 521 523 561
f 521 561 562
f 521 562 524
f 522 559 563
f 522 563 523
f 523 563 595
f 523 595 561
f 524 562 564
f 524 564 526
f 526 564 565
f 526 565 566
f 527 566 601
f 527 601 567
f 527 567 528
f 528 567 568
f 528 568 529
f 529 568 569
f 529 569 530
f 530 570 531
f 530 569 570
f 531 570 571
f 531 571 533
f 531 533 532
f 533 571 605
f 533 605 572
f 533 572 536
f 533 536 534
f 534 536 535
f 536 572 573
f 536 573 537
f 537 573 574
f 537 574 539
f 537 539 538
f 539 574 575
f 539 575 540
f 540 575 576
f 540 576 541
f 541 576 577
f 541 577 542
f 542 578 544
f 542 577 579
f 542 579 580
f 542 580 578
f 543 544 581
f 544 578 582
f 544 582 581
f 545 583 584
f 545 584 546
f 546 584 585
f 546 585 547
f 547 550 549
f 547 549 548
f 547 585 551
f 547 551 550
f 551 585 553
f 551 553 552
f 553 585 584
f 553 584 586
f 553 586 587
f 553 587 555
f 553 555 554
f 556 588 557
f 557 588 558
f 558 588 589
f 558 589 590
f 558 590 560
f 559 560 591
f 559 591 563
f 560 592 593
f 560 593 594
f 560 594 591
f 560 590 592
f 561 564 562
f 561 595 622
f 561 622 596
f 561 596 564
f 563 591 597
f 563 597 595
f 564 596 598
f 564 598 599
f 564 599 565
f 565 599 600
f 565 600 566
f 566 600 601
f 567 569 568
f 567 601 631
f 567 631 602
f 567 602 569
f 569 571 570
f 569 602 603
f 569 603 604
f 569 604 571
f 571 604 605
f 572 605 606
f 572 606 573
f 573 606 607
f 573 607 574
f 574 607 575
f 575 607 608
f 575 608 609
f 575 609 610
f 575 610 611
f 575 611 576
f 576 611 577
f 577 611 612
f 577 612 615
f 577 615 579
f 578 580 582
f 579 613 614
f 579 614 580
f 579 615 645
f 579 645 613
f 580 614 582
f 581 582 616
f 582 614 616
f 583 586 584
f 583 617 586
f 586 617 618
f 591 594 619
f 591 619 597
f 595 597 620
f 595 620 621
f 595 621 622
f 596 622 625
f 596 625 598
f 597 619 623
f 597 623 624
f 597 624 620
f 598 625 599
f 599 625 626
f 599 626 627
f 599 627 628
f 599 628 600
f 600 628 629
f 600 629 630
f 600 630 631
f 600 631 601
f 602 631 603
f 603 632 633
f 603 633 604
f 603 631 634
f 603 634 662
f 603 662 632
f 604 633 605
f 605 633 635
f 605 635 636
f 605 636 637
f 605 637 606
f 606 637 608
f 606 608 607
f 608 637 638
f 608 638 639
f 608 639 609
f 609 639 640
f 609 640 610
f 610 640 641
f 610 641 642
f 610 642 643
f 610 643 611
f 611 643 612
f 612 643 644
f 612 644 650
f 612 650 615
f 613 646 614
f 614 646 647
f 614 647 616
f 615 648 649
f 615 649 645
f 615 650 648
f 617 651 652
f 617 652 653
f 617 653 618
f 620 654 621
f 620 624 654
f 621 625 622
f 621 654 655
f 621 655 625
f 625 655 626
f 626 655 656
f 626 656 627
f 627 657 628
f 627 656 658
f 627 658 657
f 628 657 629
f 629 657 659
f 629 659 630
f 630 659 660
f 630 660 661
f 630 661 631
f 631 661 634
f 632 635 633
f 632 662 663
f 632 663 664
f 632 664 635
f 634 661 662
f 635 664 665
f 635 665 666
f 635 666 636
f 636 666 667
f 636 667 639
f 636 639 638
f 636 638 637
f 639 667 668
f 639 668 669
f 639 669 640
f 640 669 670
f 640 670 671
f 640 671 672
f 640 672 641
f 641 672 643
f 641 643 642
f 643 673 644
f 643 672 674
f 643 674 675
f 643 675 676
f 643 676 677
f 643 677 673
f 644 673 677
f 644 677 678
f 644 678 650
f 648 650 678
f 648 678 679
f 651 680 652
f 652 680 681
f 654 682 655
f 655 682 656
f 656 682 683
f 656 683 684
f 656 684 658
f 657 685 659
f 657 658 685
f 658 686 712
f 658 712 687
f 658 687 688
f 658 688 685
f 658 684 686
f 659 685 688
f 659 688 689
f 659 689 661
f 659 661 660
f 661 689 715
f 661 715 690
f 661 690 663
f 661 663 662
f 663 690 691
f 663 691 665
f 663 665 664
f 665 691 692
f 665 692 666
f 666 692 693
f 666 693 694
f 666 694 668
f 666 668 667
f 668 694 695
f 668 695 696
f 668 696 669
f 669 696 697
f 669 697 670
f 670 697 671
f 671 697 698
f 671 698 672
f 672 698 699
f 672 699 675
f 672 675 674
f 675 699 700
f 675 700 701
f 675 701 702
f 675 702 676
f 676 703 704
f 676 704 677
f 676 702 703
f 677 704 678
f 678 704 679
f 679 704 705
f 680 706 681
f 681 706 708
f 681 708 707
f 684 709 686
f 686 709 710
f 686 710 711
f 686 711 712
f 687 713 688
f 687 712 714
f 687 714 713
f 688 713 689
f 689 713 715
f 690 715 716
f 690 716 717
f 690 717 718
f 690 718 691
f 691 718 692
f 692 718 717
f 692 717 719
f 692 719 693
f 693 719 694
f 694 719 720
f 694 720 695
f 695 697 696
f 695 720 721
f 695 721 697
f 697 721 722
f 697 722 698
f 698 722 723
f 698 723 699
f 699 723 700
f 700 723 724
f 700 724 701
f 701 724 725
f 701 725 726
f 701 726 702
f 702 727 703
f 702 726 727
f 703 728 704
f 703 727 729
f 703 729 728
f 704 728 705
f 707 708 730
f 708 731 730
f 711 732 712
f 712 732 733
f 712 733 734
f 712 734 714
f 713 714 735
f 713 735 715
f 714 734 735
f 715 735 736
f 715 736 737
f 715 737 716
f 716 737 717
f 717 737 738
f 717 738 719
f 719 738 739
f 719 739 740
f 719 740 720
f 720 740 741
f 720 741 742
f 720 742 721
f 721 742 743
f 721 743 722
f 722 743 744
f 722 744 723
f 723 744 767
f 723 767 745
f 723 745 724
f 724 746 725
f 724 745 747
f 724 747 746
f 725 746 748
f 725 748 726
f 726 748 727
f 727 748 749
f 727 749 729
f 729 749 750
f 730 731 751
f 731 752 753
f 731 753 754
f 731 754 755
f 731 755 751
f 732 756 757
f 732 757 733
f 733 757 734
f 734 757 758
f 734 758 759
f 734 759 735
f 735 759 736
f 736 759 760
f 736 760 737
f 737 760 761
f 737 761 762
f 737 762 738
f 738 740 739
f 738 762 740
f 740 762 741
f 741 762 763
f 741 763 764
f 741 764 765
f 741 765 742
f 742 765 766
f 742 766 743
f 743 766 744
f 744 766 767
f 745 767 790
f 745 790 768
f 745 768 747
f 746 747 769
f 746 769 748
f 747 768 770
f 747 770 771
f 747 771 769
f 748 769 772
f 748 772 773
f 748 773 774
f 748 774 749
f 749 774 750
f 750 774 775
f 752 776 753
f 753 776 777
f 756 778 757
f 757 778 779
f 757 779 780
f 757 780 758
f 758 780 781
f 758 781 782
f 758 782 759
f 759 782 760
f 760 782 783
f 760 783 761
f 761 783 784
f 761 784 763
f 761 763 762
f 763 784 785
f 763 785 786
f 763 786 787
f 763 787 764
f 764 787 788
f 764 788 765
f 765 788 789
f 765 789 766
f 766 789 767
f 767 789 790
f 768 790 791
f 768 791 770
f 769 771 772
f 770 791 792
f 770 792 793
f 770 793 771
f 771 794 772
f 771 793 794
f 772 794 773
f 773 775 774
f 773 794 795
f 773 795 796
f 773 796 775
f 776 797 777
f 777 797 798
f 779 799 800
f 779 800 780
f 780 800 781
f 781 800 801
f 781 801 802
f 781 802 782
f 782 802 783
f 783 802 803
f 783 803 784
f 784 803 785
f 785 803 804
f 785 804 805
f 785 805 786
f 786 805 806
f 786 806 787
f 787 806 807
f 787 807 808
f 787 808 788
f 788 808 789
f 789 808 809
f 789 809 810
f 789 810 790
f 790 810 791
f 791 810 811
f 791 811 792
f 792 811 812
f 792 812 793
f 793 813 794
f 793 812 814
f 793 814 813
f 794 813 815
f 794 815 795
f 795 816 796
f 795 815 816
f 797 817 818
f 797 818 819
f 797 819 798
f 799 820 800
f 800 820 821
f 800 821 801
f 801 821 822
f 801 822 823
f 801 823 802
f 802 823 803
f 803 823 804
f 804 823 824
f 804 824 805
f 805 824 825
f 805 825 806
f 806 825 826
f 806 826 807
f 807 826 827
f 807 827 828
f 807 828 808
f 808 828 809
f 809 828 829
f 809 829 810
f 810 829 830
f 810 830 811
f 811 830 831
f 811 831 812
f 812 831 855
f 812 855 832
f 812 832 814
f 813 814 833
f 813 833 834
f 813 834 815
f 814 832 835
f 814 835 836
f 814 836 833
f 815 837 838
f 815 838 816
f 815 834 837
f 817 839 818
f 818 839 840
f 820 841 821
f 821 841 842
f 821 842 866
f 821 866 843
f 821 843 822
f 822 843 844
f 822 844 845
f 822 845 823
f 823 845 824
f 824 845 846
f 824 846 847
f 824 847 825
f 825 847 848
f 825 848 826
f 826 848 849
f 826 849 827
f 827 850 828
f 827 849 851
f 827 851 850
f 828 850 829
f 829 850 852
f 829 852 853
f 829 853 830
f 830 853 854
f 830 854 831
f 831 854 855
f 832 855 856
f 832 856 835
f 833 836 857
f 833 857 834
f 834 858 859
f 834 859 837
f 834 857 860
f 834 860 858
f 835 856 861
f 835 861 862
f 835 862 836
f 836 862 883
f 836 883 863
f 836 863 857
f 839 864 840
f 840 864 865
f 843 866 867
f 843 867 868
f 843 868 844
f 844 868 869
f 844 869 846
f 844 846 845
f 846 869 870
f 846 870 847
f 847 870 871
f 847 871 848
f 848 871 872
f 848 872 849
f 849 872 873
f 849 873 851
f 850 851 852
f 851 873 874
f 851 874 852
f 852 874 875
f 852 875 876
f 852 876 853
f 853 876 854
f 854 876 877
f 854 877 855
f 855 877 878
f 855 878 856
f 856 878 879
f 856 879 861
f 857 880 860
f 857 863 880
f 861 879 881
f 861 881 862
f 862 882 883
f 862 881 884
f 862 884 882
f 864 885 865
f 865 885 886
f 867 887 868
f 868 887 888
f 868 888 869
f 869 888 889
f 869 889 870
f 870 889 890
f 870 890 871
f 871 890 872
f 872 890 891
f 872 891 873
f 873 891 892
f 873 892 893
f 873 893 874
f 874 893 894
f 874 894 875
f 875 894 895
f 875 895 896
f 875 896 876
f 876 896 877
f 877 896 897
f 877 897 878
f 878 897 898
f 878 898 879
f 879 898 899
f 879 899 881
f 881 899 900
f 881 900 884
f 882 884 901
f 884 900 902
f 884 902 903
f 884 903 901
f 885 904 886
f 886 904 906
f 886 906 905
f 887 907 888
f 888 907 908
f 888 908 909
f 888 909 889
f 889 909 890
f 890 909 910
f 890 910 911
f 890 911 891
f 891 911 912
f 891 912 892
f 892 912 913
f 892 913 893
f 893 913 914
f 893 914 894
f 894 914 915
f 894 915 895
f 895 916 896
f 895 915 917
f 895 917 916
f 896 916 897
f 897 916 918
f 897 918 898
f 898 918 919
f 898 919 899
f 899 919 920
f 899 920 900
f 900 920 921
f 900 921 902
f 902 922 903
f 902 921 923
f 902 923 922
f 905 906 925
f 905 925 924
f 908 926 909
f 909 926 927
f 909 927 928
f 909 928 910
f 910 928 911
f 911 928 929
f 911 929 930
f 911 930 912
f 912 930 931
f 912 931 913
f 913 931 914
f 914 931 932
f 914 932 933
f 914 933 915
f 915 933 934
f 915 934 917
f 916 917 935
f 916 935 918
f 917 934 936
f 917 936 935
f 918 935 937
f 918 937 919
f 919 937 938
f 919 938 920
f 920 938 939
f 920 939 921
f 921 939 940
f 921 940 923
f 922 923 941
f 923 940 942
f 923 942 943
f 923 943 941
f 924 925 945
f 924 945 944
f 926 946 927
f 927 946 947
f 927 947 928
f 928 948 949
f 928 949 929
f 928 947 948
f 929 949 950
f 929 950 930
f 930 950 951
f 930 951 931
f 931 951 952
f 931 952 932
f 932 952 953
f 932 953 933
f 933 953 934
f 934 953 954
f 934 954 955
f 934 955 936
f 935 936 956
f 935 956 937
f 936 955 957
f 936 957 956
f 937 956 958
f 937 958 938
f 938 958 959
f 938 959 939
f 939 959 960
f 939 960 940
f 940 961 942
f 940 960 962
f 940 962 961
f 944 945 964
f 944 964 965
f 944 965 963
f 948 966 949
f 949 966 967
f 949 967 968
f 949 968 950
f 950 968 969
f 950 969 951
f 951 969 952
f 952 969 970
f 952 970 971
f 952 971 953
f 953 971 972
f 953 972 954
f 954 972 955
f 955 972 973
f 955 973 957
f 956 957 974
f 956 974 958
f 957 973 975
f 957 975 976
f 957 976 974
f 958 977 959
f 958 974 977
f 959 977 978
f 959 978 960
f 960 978 979
f 960 979 962
f 961 962 980
f 962 979 981
f 962 981 982
f 962 982 983
f 962 983 984
f 962 984 980
f 963 965 986
f 963 986 987
f 963 987 988
f 963 988 985
f 966 989 967
f 967 989 990
f 967 990 968
f 968 990 969
f 969 990 991
f 969 991 992
f 969 992 970
f 970 992 993
f 970 993 971
f 971 993 972
f 972 994 995
f 972 995 973
f 972 993 994
f 973 995 996
f 973 996 975
f 974 976 997
f 974 997 998
f 974 998 977
f 975 996 999
f 975 999 976
f 976 999 1000
f 976 1000 1001
f 976 1001 997
f 977 998 1002
f 977 1002 978
f 978 1002 1003
f 978 1003 1004
f 978 1004 979
f 979 1004 1003
f 979 1003 1002
f 979 1002 998
f 979 998 997
f 979 997 1001
f 979 1001 1000
f 979 1000 999
f 979 999 996
f 979 996 1017
f 979 1017 1016
f 979 1016 1015
f 979 1015 1014
f 979 1014 1025
f 979 1025 1024
f 979 1024 1031
f 979 1031 1030
f 979 1030 1037
f 979 1037 1032
f 979 1032 1026
f 979 1026 1018
f 979 1018 1005
f 979 1005 983
f 979 983 982
f 979 982 981
f 983 1005 984
f 985 988 1006
f 988 1007 1008
f 988 1008 1006
f 989 1009 990
f 990 1009 1010
f 990 1010 1011
f 990 1011 991
f 991 1011 992
f 992 1011 1012
f 992 1012 1013
f 992 1013 993
f 993 1013 1014
f 993 1014 1015
f 993 1015 994
f 994 1015 995
f 995 1015 1016
f 995 1016 1017
f 995 1017 996
f 1007 1019 1008
f 1008 1019 1020
f 1010 1021 1011
f 1011 1021 1022
f 1011 1022 1023
f 1011 1023 1012
f 1012 1023 1024
f 1012 1024 1013
f 1013 1024 1025
f 1013 1025 1014
f 1018 1026 1027
f 1019 1028 1020
f 1020 1028 1026
f 1021 1029 1022
f 1022 1029 1023
f 1023 1029 1030
f 1023 1030 1031
f 1023 1031 1024
f 1026 1028 1033
f 1026 1033 1034
f 1026 1034 1035
f 1026 1035 1036
f 1026 1036 1027
f 1029 1032 1037
f 1029 1037 1030
