v 0.19246405 -0.42083138 -0.67127639
v 0.19246405 -0.43000796 -0.66823578
v 0.19129252 -0.42083138 -0.67112875
v 0.19246405 -0.42083138 -0.52618271
v 0.19246405 -0.44571245 -0.66233164
v 0.18998580 -0.44533756 -0.66218406
v 0.18998580 -0.43000796 -0.66791105
v 0.18998580 -0.42083138 -0.67095166
v 0.19246405 -0.50408882 -0.45176131
v -0.09366272 -0.42083138 -0.36969405
v 0.19246405 -0.44694304 -0.66182983
v 0.18998580 -0.45533726 -0.65802163
v 0.17430514 -0.44240367 -0.66097367
v 0.16858262 -0.43171126 -0.66389620
v 0.18079369 -0.42083138 -0.66950512
v 0.01141565 -0.50408882 -0.36969405
v 0.19246405 -0.50408882 -0.63204354
v -0.24461150 -0.42083138 -0.36969405
v 0.19246405 -0.45571214 -0.65816927
v 0.16997945 -0.46999857 -0.64792562
v 0.16858262 -0.44944501 -0.65701795
v 0.19246405 -0.46999857 -0.65152711
v 0.18998580 -0.46999857 -0.65120238
v 0.16096759 -0.43951866 -0.65982240
v 0.16930357 -0.42083138 -0.66764534
v 0.14997311 -0.42636505 -0.66224307
v -0.21969369 -0.50408882 -0.36969405
v 0.18998580 -0.49560496 -0.63738674
v 0.19246405 -0.49589020 -0.63753438
v 0.18944508 -0.50408882 -0.63160074
v -0.26141864 -0.42083138 -0.38029194
v -0.26786211 -0.42085582 -0.36969405
v 0.16997945 -0.48267955 -0.64149010
v 0.15808378 -0.48072359 -0.64039785
v 0.15082924 -0.47076467 -0.64382225
v 0.14997311 -0.45000735 -0.65315074
v 0.19246405 -0.48589051 -0.64332038
v 0.18998580 -0.48559713 -0.64314330
v 0.14997311 -0.43636474 -0.65867108
v 0.14997311 -0.42083138 -0.66404384
v 0.13654542 -0.42229834 -0.66079658
v -0.22951663 -0.49131006 -0.36969405
v -0.21874744 -0.49837586 -0.37828454
v -0.21577352 -0.50408882 -0.37580484
v 0.19246405 -0.48712113 -0.64261192
v 0.16997945 -0.50408882 -0.62826490
v 0.16997945 -0.49267924 -0.63564503
v -0.26078779 -0.42083138 -0.38126612
v -0.26065260 -0.42158115 -0.38102996
v -0.26448268 -0.42894849 -0.36990070
v -0.26466292 -0.42875290 -0.36969405
v 0.15082924 -0.48843324 -0.63422805
v 0.14474623 -0.47794455 -0.63892180
v 0.12996677 -0.46444863 -0.64216912
v 0.12996677 -0.45000735 -0.64857507
v 0.12992170 -0.42938042 -0.65663421
v 0.13573435 -0.42083138 -0.66106224
v 0.13249008 -0.42083138 -0.66032422
v -0.23028263 -0.49029136 -0.36969405
v -0.21478222 -0.49102482 -0.39100790
v -0.20045336 -0.50058442 -0.40063164
v -0.20694190 -0.50408882 -0.38796729
v -0.23010239 -0.49014467 -0.37013686
v -0.22352374 -0.48504296 -0.38498572
v 0.15001817 -0.50408882 -0.62427962
v -0.24722494 -0.42083138 -0.40074971
v -0.25772375 -0.43491408 -0.37648380
v -0.24276407 -0.42620203 -0.40387890
v -0.25024390 -0.43056214 -0.39038801
v -0.25434431 -0.45036593 -0.36990070
v -0.26439255 -0.42937228 -0.36969405
v -0.26457280 -0.42897293 -0.36969405
v 0.13357151 -0.50237739 -0.62162274
v 0.12811933 -0.49192944 -0.62670028
v 0.12996677 -0.47444832 -0.63715059
v 0.11757544 -0.46132728 -0.64063400
v 0.11054619 -0.45039037 -0.64346802
v 0.10996042 -0.43000796 -0.65135002
v 0.12510036 -0.42083138 -0.65846443
v -0.23068817 -0.48970458 -0.36969405
v -0.21874744 -0.47805050 -0.39832902
v -0.19468576 -0.50408882 -0.40402651
v -0.19937193 -0.50408882 -0.39809287
v -0.20342727 -0.50408882 -0.39272010
v -0.20365256 -0.48814797 -0.40839556
v -0.20018299 -0.48025092 -0.42023331
v -0.19509129 -0.49358386 -0.41397494
v -0.18175372 -0.50209212 -0.42209309
v -0.18391657 -0.50408882 -0.41731077
v -0.23686129 -0.47492915 -0.37533247
v 0.14357468 -0.50408882 -0.62280357
v -0.24357514 -0.42083138 -0.40588629
v -0.23974510 -0.43953496 -0.39971650
v -0.24398068 -0.45000735 -0.38581228
v -0.23704153 -0.42083138 -0.41480151
v -0.23546445 -0.43172753 -0.41034392
v -0.24091664 -0.46160439 -0.38138419
v -0.24434115 -0.46865389 -0.36969405
v -0.25438938 -0.45048001 -0.36969405
v 0.13573435 -0.50408882 -0.62094378
v 0.13226479 -0.50408882 -0.62005818
v 0.12023394 -0.49989173 -0.61991054
v 0.10996042 -0.48751232 -0.62448627
v 0.11054619 -0.46879244 -0.63487750
v 0.10423788 -0.45731762 -0.63880372
v 0.09450506 -0.44398472 -0.64166725
v 0.08869241 -0.43140155 -0.64470786
v 0.08932324 -0.42083138 -0.64851600
v 0.10950983 -0.42083138 -0.65433156
v -0.24384549 -0.46943626 -0.36969405
v -0.21401621 -0.47082984 -0.41031438
v -0.22987710 -0.46981928 -0.38985664
v -0.22284783 -0.46471757 -0.40384936
v -0.20347233 -0.46999857 -0.42424810
v -0.19892134 -0.45821410 -0.43877223
v -0.19504623 -0.46999857 -0.43425560
v -0.18112290 -0.48151413 -0.44128150
v -0.18810709 -0.48755306 -0.42784962
v -0.18085253 -0.50408882 -0.42105988
v -0.17585096 -0.49484706 -0.43543640
v -0.16251339 -0.50285822 -0.44269848
v -0.16382012 -0.50408882 -0.44004160
v -0.17819405 -0.50408882 -0.42407098
v -0.22645259 -0.44964877 -0.41031438
v -0.23699647 -0.45000735 -0.39579025
v -0.22145100 -0.44275409 -0.42191598
v -0.23262572 -0.42083138 -0.42061707
v -0.22451504 -0.43000796 -0.42584223
v 0.12370351 -0.50408882 -0.61781460
v 0.10923946 -0.50408882 -0.61356366
v 0.10996042 -0.49751201 -0.61840498
v 0.09360388 -0.48345375 -0.62203604
v 0.08815169 -0.47188932 -0.62652320
v 0.06999279 -0.46638826 -0.62327594
v 0.08869241 -0.45039037 -0.63706201
v 0.08116750 -0.43899709 -0.63960081
v 0.07373271 -0.42566416 -0.64205098
v 0.07184022 -0.42083138 -0.64305472
v -0.21780120 -0.45608702 -0.41719270
v -0.21027629 -0.45048001 -0.43035886
v -0.20275138 -0.44488117 -0.44320032
v -0.19121619 -0.45208552 -0.45137751
v -0.17954582 -0.45928985 -0.45955473
v -0.18504305 -0.46999857 -0.44562101
v -0.17580590 -0.46999857 -0.45559898
v -0.16152209 -0.48192975 -0.46156213
v -0.16868652 -0.48839247 -0.44866163
v -0.16197267 -0.50408882 -0.44207853
v -0.15602484 -0.49526268 -0.45601225
v -0.14273235 -0.50295603 -0.46268392
v -0.21658459 -0.43000796 -0.43582016
v -0.21874744 -0.42083138 -0.43853608
v 0.08963865 -0.50408882 -0.60730529
v 0.08815169 -0.49007133 -0.61616147
v 0.08026631 -0.47981083 -0.61988103
v 0.06999279 -0.47638795 -0.61805075
v 0.05733111 -0.46204448 -0.62103236
v 0.06999279 -0.45000735 -0.63101029
v 0.06823547 -0.43140155 -0.63809526
v 0.06125128 -0.42083138 -0.63965982
v 0.06323388 -0.42083138 -0.64030927
v -0.19680354 -0.43386278 -0.45651412
v -0.18351103 -0.44595695 -0.46374667
v -0.20540988 -0.42832097 -0.44993103
v -0.17166044 -0.45268860 -0.47168767
v -0.15958452 -0.45941210 -0.47962874
v -0.16580272 -0.46999857 -0.46590164
v -0.15570943 -0.46999857 -0.47587961
v -0.14133550 -0.48166898 -0.48131141
v -0.14868018 -0.48846582 -0.46879467
v -0.14219162 -0.50408882 -0.46215254
v -0.13565803 -0.49500188 -0.47599769
v -0.12232047 -0.50242627 -0.48213798
v -0.21599883 -0.42083138 -0.44178334
v 0.07643627 -0.50408882 -0.60293621
v 0.06999279 -0.50254035 -0.60181445
v 0.05989949 -0.50003028 -0.60001367
v 0.06999279 -0.48999798 -0.60990310
v 0.05192399 -0.48942751 -0.60340858
v 0.03669394 -0.48238614 -0.60146022
v 0.05039197 -0.46921620 -0.61441976
v 0.04399355 -0.45644560 -0.61834598
v 0.05039197 -0.44986880 -0.62386632
v 0.04998644 -0.43000796 -0.63186640
v 0.04940066 -0.42083138 -0.63490701
v -0.20045336 -0.42083138 -0.45990896
v -0.18873793 -0.42756304 -0.46867660
v -0.17711261 -0.43458810 -0.47708994
v -0.16377506 -0.44607919 -0.48370257
v -0.15151891 -0.45242780 -0.49149600
v -0.13912760 -0.45877644 -0.49925992
v -0.14570627 -0.46999857 -0.48541477
v -0.13489202 -0.46999857 -0.49542224
v -0.12074339 -0.48087031 -0.50067693
v -0.12817818 -0.48793608 -0.48836681
v -0.12398766 -0.50408882 -0.47906783
v -0.11466037 -0.49420321 -0.49545175
v -0.10136787 -0.50135052 -0.50114924
v -0.11858054 -0.50408882 -0.48390922
v -0.12146433 -0.50408882 -0.48137045
v 0.07206552 -0.50408882 -0.60140115
v 0.06999279 -0.50408882 -0.60066313
v 0.06318882 -0.50408882 -0.59818339
v 0.05611451 -0.50408882 -0.59537894
v 0.02998009 -0.50408882 -0.58401352
v 0.02768207 -0.50408882 -0.58300984
v 0.04656193 -0.49571908 -0.59720922
v 0.02998009 -0.48942751 -0.59390295
v 0.02335637 -0.47723553 -0.59844911
v 0.02998009 -0.47034088 -0.60512078
v 0.01574134 -0.46390259 -0.60205060
v 0.03007022 -0.44986880 -0.61533487
v 0.03678405 -0.44311270 -0.62138659
v 0.03007022 -0.42966565 -0.62380731
v 0.04079434 -0.42083138 -0.63139409
v -0.19973241 -0.42083138 -0.46067652
v -0.18062724 -0.42125517 -0.48066196
v -0.16877663 -0.42776680 -0.48883915
v -0.15679085 -0.43427026 -0.49704587
v -0.14349836 -0.44544351 -0.50318617
v -0.13088173 -0.45138463 -0.51080245
v -0.11808489 -0.45731762 -0.51844829
v -0.12493391 -0.46999857 -0.50430793
v -0.11083033 -0.47159591 -0.51520103
v -0.09943032 -0.47933814 -0.51957011
v -0.10880266 -0.48852289 -0.50483930
v -0.09163506 -0.49188870 -0.51635236
v -0.07978445 -0.49981838 -0.51986527
v -0.09663664 -0.50408882 -0.50259572
v -0.09988091 -0.50408882 -0.49993891
v -0.10402637 -0.50408882 -0.49642596
v 0.02078799 -0.50408882 -0.57979208
v 0.01830973 -0.50116307 -0.58082533
v 0.01096505 -0.48963937 -0.58460397
v -0.00318358 -0.48273659 -0.58171093
v 0.00943304 -0.47034088 -0.59537894
v 0.00240378 -0.45743987 -0.59877384
v 0.00943304 -0.45046371 -0.60544550
v 0.02344649 -0.43610394 -0.61843455
v 0.01772396 -0.42277101 -0.62106186
v 0.03002515 -0.42083138 -0.62696600
v -0.18071736 -0.42083138 -0.48075050
v -0.16048571 -0.42093733 -0.50047028
v -0.15007702 -0.42856544 -0.50607920
v -0.13682957 -0.43000796 -0.51726747
v -0.12263588 -0.44398472 -0.52222693
v -0.10956867 -0.44944501 -0.52969563
v -0.09632123 -0.45491347 -0.53716433
v -0.10474732 -0.46600524 -0.52382106
v -0.09118446 -0.47151443 -0.53096503
v -0.07739630 -0.47702363 -0.53810900
v -0.08609276 -0.48648545 -0.52476573
v -0.07027693 -0.50408882 -0.52340776
v -0.07690065 -0.50408882 -0.51841879
v -0.07194412 -0.49199465 -0.53146690
v -0.05738996 -0.49751201 -0.53816807
v 0.01556111 -0.50408882 -0.57716477
v -0.01003260 -0.50408882 -0.56334913
v 0.00497216 -0.49606949 -0.57737142
v -0.00994248 -0.48963937 -0.57341564
v -0.01652114 -0.47659171 -0.57802087
v -0.00994248 -0.46994969 -0.58537149
v -0.00354405 -0.44410697 -0.60187352
v -0.02309980 -0.46325877 -0.58176994
v -0.01012271 -0.45046371 -0.59529042
v 0.01060458 -0.42966565 -0.61492157
v 0.00713501 -0.42083138 -0.61654520
v 0.01484016 -0.42083138 -0.62035334
v 0.01677771 -0.42083138 -0.62126851
v -0.16057584 -0.42083138 -0.50041121
v -0.13939795 -0.42083138 -0.51951104
v -0.12682641 -0.43000796 -0.52571034
v -0.11457025 -0.43000796 -0.53571784
v -0.10105246 -0.44158053 -0.54082489
v -0.08978762 -0.44894788 -0.54519397
v -0.08298366 -0.46369070 -0.54218286
v -0.06883503 -0.46868649 -0.54920876
v -0.05437098 -0.47369039 -0.55620515
v -0.06405874 -0.48417908 -0.54286182
v -0.05459628 -0.50408882 -0.53477317
v -0.04918916 -0.48927265 -0.54947442
v -0.03382393 -0.49437436 -0.55608708
v -0.04405240 -0.50351018 -0.54274374
v -0.04459311 -0.50408882 -0.54188764
v -0.01769268 -0.50408882 -0.55895054
v -0.02048636 -0.50038069 -0.56027895
v -0.02832669 -0.48862067 -0.56337863
v -0.04103342 -0.48104143 -0.56066275
v -0.02985870 -0.46994969 -0.57391751
v -0.01688161 -0.43583500 -0.59827197
v -0.01012271 -0.42950267 -0.60444176
v -0.03643737 -0.45558989 -0.57781422
v -0.02985870 -0.44935536 -0.58466297
v -0.00935671 -0.42083138 -0.60804331
v -0.13818136 -0.42083138 -0.52051473
v -0.11718370 -0.42083138 -0.53778428
v -0.11416472 -0.42083138 -0.54014593
v -0.10456708 -0.43000796 -0.54348177
v -0.08960739 -0.43065992 -0.55416822
v -0.07852279 -0.43775833 -0.55898005
v -0.07410698 -0.45000735 -0.55588043
v -0.06027376 -0.46035749 -0.56019044
v -0.04229508 -0.50408882 -0.54342270
v -0.04369192 -0.50408882 -0.54250759
v -0.02400099 -0.50408882 -0.55514240
v -0.04860339 -0.46821380 -0.56323105
v -0.04170931 -0.44225696 -0.58103192
v -0.02909270 -0.42950267 -0.59384388
v -0.02179308 -0.42250207 -0.60098785
v -0.04900892 -0.44935536 -0.57291377
v -0.02228874 -0.42083138 -0.60128307
v -0.10754100 -0.42083138 -0.54507589
v -0.09298684 -0.42083138 -0.55582136
v -0.08618288 -0.42083138 -0.56083989
v -0.08266824 -0.42442539 -0.56187308
v -0.07113305 -0.43065992 -0.56700969
v -0.05581288 -0.43000796 -0.57734185
v -0.06410380 -0.45000735 -0.56275868
v -0.04580971 -0.43000796 -0.58360022
v -0.02364052 -0.42083138 -0.60051554
v -0.08370461 -0.42083138 -0.56258160
v -0.05878680 -0.42083138 -0.57923120
v -0.05711960 -0.42083138 -0.58029395
f 1 2 3
f 1 3 8
f 1 8 15
f 1 15 25
f 1 25 40
f 1 40 57
f 1 57 58
f 1 58 79
f 1 79 109
f 1 109 108
f 1 108 138
f 1 138 161
f 1 161 160
f 1 160 185
f 1 185 215
f 1 215 241
f 1 241 269
f 1 269 268
f 1 268 267
f 1 267 294
f 1 294 311
f 1 311 320
f 1 320 323
f 1 323 322
f 1 322 321
f 1 321 314
f 1 314 313
f 1 313 312
f 1 312 297
f 1 297 296
f 1 296 295
f 1 295 271
f 1 271 270
f 1 270 242
f 1 242 216
f 1 216 186
f 1 186 174
f 1 174 152
f 1 152 127
f 1 127 95
f 1 95 92
f 1 92 66
f 1 66 48
f 1 48 31
f 1 31 18
f 1 18 10
f 1 10 4
f 1 4 9
f 1 9 17
f 1 17 29
f 1 29 45
f 1 45 37
f 1 37 22
f 1 22 19
f 1 19 11
f 1 11 5
f 1 5 2
f 2 5 6
f 2 6 7
f 2 7 3
f 3 7 8
f 4 10 9
f 5 11 6
f 6 11 12
f 6 12 13
f 6 13 7
f 7 13 14
f 7 14 15
f 7 15 8
f 9 16 27
f 9 27 44
f 9 44 62
f 9 62 84
f 9 84 83
f 9 83 82
f 9 82 89
f 9 89 119
f 9 119 123
f 9 123 122
f 9 122 148
f 9 148 171
f 9 171 196
f 9 196 200
f 9 200 199
f 9 199 231
f 9 231 230
f 9 230 229
f 9 229 254
f 9 254 253
f 9 253 280
f 9 280 284
f 9 284 304
f 9 304 303
f 9 303 305
f 9 305 285
f 9 285 258
f 9 258 257
f 9 257 232
f 9 232 206
f 9 206 205
f 9 205 204
f 9 204 203
f 9 203 202
f 9 202 201
f 9 201 175
f 9 175 153
f 9 153 130
f 9 130 129
f 9 129 101
f 9 101 100
f 9 100 91
f 9 91 65
f 9 65 46
f 9 46 30
f 9 30 17
f 9 10 16
f 10 18 32
f 10 32 51
f 10 51 72
f 10 72 71
f 10 71 99
f 10 99 98
f 10 98 110
f 10 110 80
f 10 80 59
f 10 59 42
f 10 42 27
f 10 27 16
f 11 19 12
f 12 20 21
f 12 21 13
f 12 19 22
f 12 22 23
f 12 23 20
f 13 21 24
f 13 24 14
f 14 25 15
f 14 24 26
f 14 26 25
f 17 28 29
f 17 30 28
f 18 31 32
f 20 23 33
f 20 33 34
f 20 34 35
f 20 35 36
f 20 36 21
f 21 36 24
f 22 37 23
f 23 37 38
f 23 38 33
f 24 36 39
f 24 39 26
f 25 26 40
f 26 39 41
f 26 41 40
f 27 42 43
f 27 43 44
f 28 38 37
f 28 37 45
f 28 45 29
f 28 30 46
f 28 46 47
f 28 47 33
f 28 33 38
f 31 48 49
f 31 49 50
f 31 50 32
f 32 50 51
f 33 47 34
f 34 52 53
f 34 53 35
f 34 47 52
f 35 53 54
f 35 54 36
f 36 54 55
f 36 55 39
f 39 55 56
f 39 56 41
f 40 41 57
f 41 58 57
f 41 56 58
f 42 59 43
f 43 60 61
f 43 61 62
f 43 62 44
f 43 59 63
f 43 63 64
f 43 64 60
f 46 65 47
f 47 65 52
f 48 66 49
f 49 67 50
f 49 66 68
f 49 68 69
f 49 69 67
f 50 67 70
f 50 70 71
f 50 71 72
f 50 72 51
f 52 65 73
f 52 73 74
f 52 74 53
f 53 74 75
f 53 75 54
f 54 75 76
f 54 76 55
f 55 76 77
f 55 77 78
f 55 78 56
f 56 79 58
f 56 78 79
f 59 80 63
f 60 64 81
f 60 81 61
f 61 82 83
f 61 83 84
f 61 84 62
f 61 81 85
f 61 85 86
f 61 86 87
f 61 87 88
f 61 88 89
f 61 89 82
f 63 80 90
f 63 90 64
f 64 90 81
f 65 91 73
f 66 92 68
f 67 69 93
f 67 93 94
f 67 94 70
f 68 92 95
f 68 95 96
f 68 96 93
f 68 93 69
f 70 94 97
f 70 97 98
f 70 98 99
f 70 99 71
f 73 91 100
f 73 100 101
f 73 101 102
f 73 102 74
f 74 102 103
f 74 103 75
f 75 103 104
f 75 104 76
f 76 104 105
f 76 105 77
f 77 105 106
f 77 106 78
f 78 106 107
f 78 107 108
f 78 108 109
f 78 109 79
f 80 110 90
f 81 111 86
f 81 86 85
f 81 90 112
f 81 112 113
f 81 113 111
f 86 111 114
f 86 114 115
f 86 115 116
f 86 116 117
f 86 117 118
f 86 118 88
f 86 88 87
f 88 119 89
f 88 118 120
f 88 120 121
f 88 121 122
f 88 122 123
f 88 123 119
f 90 97 112
f 90 110 98
f 90 98 97
f 93 124 125
f 93 125 94
f 93 96 126
f 93 126 124
f 94 125 97
f 95 127 128
f 95 128 96
f 96 128 126
f 97 125 113
f 97 113 112
f 101 129 102
f 102 129 130
f 102 130 131
f 102 131 103
f 103 131 132
f 103 132 104
f 104 132 133
f 104 133 105
f 105 133 134
f 105 134 135
f 105 135 106
f 106 135 136
f 106 136 107
f 107 136 137
f 107 137 108
f 108 137 138
f 111 113 139
f 111 139 114
f 113 125 139
f 114 139 115
f 115 139 140
f 115 140 141
f 115 141 142
f 115 142 143
f 115 143 144
f 115 144 116
f 116 144 117
f 117 144 143
f 117 143 145
f 117 145 146
f 117 146 147
f 117 147 120
f 117 120 118
f 120 147 121
f 121 148 122
f 121 147 149
f 121 149 150
f 121 150 148
f 124 126 139
f 124 139 125
f 126 151 141
f 126 141 140
f 126 140 139
f 126 128 151
f 127 152 128
f 128 152 151
f 130 153 131
f 131 153 154
f 131 154 132
f 132 154 155
f 132 155 133
f 133 155 134
f 134 156 157
f 134 157 158
f 134 158 135
f 134 155 156
f 135 158 136
f 136 158 159
f 136 159 137
f 137 159 160
f 137 160 161
f 137 161 138
f 141 162 163
f 141 163 142
f 141 151 164
f 141 164 162
f 142 163 143
f 143 163 165
f 143 165 166
f 143 166 167
f 143 167 145
f 145 167 146
f 146 168 169
f 146 169 170
f 146 170 149
f 146 149 147
f 146 167 168
f 148 150 171
f 149 170 150
f 150 170 172
f 150 172 173
f 150 173 171
f 151 152 174
f 151 174 164
f 153 175 154
f 154 175 176
f 154 176 177
f 154 177 178
f 154 178 155
f 155 178 156
f 156 178 179
f 156 179 180
f 156 180 181
f 156 181 157
f 157 181 182
f 157 182 183
f 157 183 158
f 158 183 159
f 159 183 184
f 159 184 160
f 160 184 185
f 162 164 186
f 162 186 187
f 162 187 188
f 162 188 163
f 163 188 189
f 163 189 165
f 164 174 186
f 165 189 166
f 166 168 167
f 166 189 190
f 166 190 191
f 166 191 192
f 166 192 168
f 168 192 169
f 169 192 193
f 169 193 194
f 169 194 195
f 169 195 172
f 169 172 170
f 171 173 196
f 172 195 173
f 173 195 194
f 173 194 197
f 173 197 198
f 173 198 199
f 173 199 200
f 173 200 196
f 175 201 176
f 176 201 202
f 176 202 177
f 177 203 204
f 177 204 205
f 177 205 206
f 177 206 207
f 177 207 179
f 177 179 178
f 177 202 203
f 179 207 180
f 180 207 208
f 180 208 209
f 180 209 210
f 180 210 181
f 181 210 182
f 182 210 211
f 182 211 212
f 182 212 213
f 182 213 183
f 183 213 184
f 184 213 214
f 184 214 215
f 184 215 185
f 186 216 187
f 187 216 217
f 187 217 188
f 188 217 218
f 188 218 219
f 188 219 189
f 189 219 220
f 189 220 190
f 190 220 191
f 191 220 221
f 191 221 222
f 191 222 223
f 191 223 194
f 191 194 193
f 191 193 192
f 194 223 224
f 194 224 225
f 194 225 226
f 194 226 197
f 197 226 198
f 198 226 225
f 198 225 227
f 198 227 228
f 198 228 229
f 198 229 230
f 198 230 231
f 198 231 199
f 206 232 233
f 206 233 207
f 207 233 208
f 208 233 234
f 208 234 209
f 209 234 235
f 209 235 236
f 209 236 211
f 209 211 210
f 211 236 237
f 211 237 238
f 211 238 212
f 212 239 213
f 212 238 239
f 213 239 214
f 214 239 240
f 214 240 241
f 214 241 215
f 216 242 217
f 217 242 243
f 217 243 218
f 218 243 219
f 219 243 244
f 219 244 245
f 219 245 220
f 220 245 246
f 220 246 221
f 221 246 222
f 222 247 248
f 222 248 249
f 222 249 224
f 222 224 223
f 222 246 247
f 224 249 225
f 225 250 251
f 225 251 252
f 225 252 228
f 225 228 227
f 225 249 250
f 228 253 254
f 228 254 229
f 228 252 255
f 228 255 256
f 228 256 253
f 232 257 233
f 233 257 258
f 233 258 259
f 233 259 234
f 234 259 235
f 235 259 260
f 235 260 261
f 235 261 262
f 235 262 236
f 236 262 237
f 237 263 238
f 237 262 264
f 237 264 265
f 237 265 263
f 238 263 239
f 239 263 266
f 239 266 240
f 240 266 267
f 240 267 268
f 240 268 269
f 240 269 241
f 242 270 243
f 243 270 271
f 243 271 244
f 244 271 245
f 245 271 272
f 245 272 246
f 246 272 273
f 246 273 274
f 246 274 247
f 247 274 248
f 248 274 275
f 248 275 276
f 248 276 249
f 249 276 250
f 250 276 251
f 251 255 252
f 251 276 277
f 251 277 278
f 251 278 279
f 251 279 255
f 253 256 280
f 255 279 256
f 256 281 282
f 256 282 283
f 256 283 284
f 256 284 280
f 256 279 281
f 258 285 286
f 258 286 259
f 259 286 260
f 260 286 287
f 260 287 261
f 261 287 288
f 261 288 289
f 261 289 264
f 261 264 262
f 263 265 290
f 263 290 291
f 263 291 266
f 264 289 292
f 264 292 293
f 264 293 265
f 265 293 290
f 266 291 267
f 267 291 294
f 271 295 272
f 272 295 296
f 272 296 273
f 273 296 297
f 273 297 298
f 273 298 274
f 274 299 300
f 274 300 275
f 274 298 299
f 275 300 301
f 275 301 276
f 276 301 302
f 276 302 277
f 277 302 278
f 278 288 279
f 278 302 288
f 279 288 281
f 281 288 282
f 282 288 286
f 282 286 283
f 283 286 303
f 283 303 304
f 283 304 284
f 285 305 286
f 286 305 303
f 286 288 287
f 288 302 306
f 288 306 289
f 289 306 292
f 290 293 307
f 290 307 308
f 290 308 309
f 290 309 291
f 291 309 294
f 292 306 302
f 292 302 310
f 292 310 307
f 292 307 293
f 294 309 311
f 297 312 298
f 298 312 313
f 298 313 314
f 298 314 299
f 299 314 315
f 299 315 300
f 300 315 316
f 300 316 317
f 300 317 307
f 300 307 318
f 300 318 301
f 301 318 302
f 302 318 310
f 307 310 318
f 307 317 319
f 307 319 308
f 308 319 309
f 309 319 320
f 309 320 311
f 314 321 315
f 315 321 322
f 315 322 316
f 316 322 317
f 317 322 323
f 317 323 319
f 319 323 320
