v -0.73108393 -0.16148171 0.00999817
v -0.73112953 -0.16148171 0.00090627
v -0.73445874 -0.16148171 0.02998232
v -0.41426545 -0.27065873 0.01062830
v -0.73122078 -0.16148171 -0.00998599
v -0.73810714 -0.16148171 0.04211234
v -0.41426545 -0.27097493 0.01393648
v -0.41426545 -0.27085993 -0.00998599
v -0.73473239 -0.16148171 -0.02999265
v -0.41426545 -0.27160734 -0.02551422
v -0.41426545 -0.27183729 -0.03003766
v -0.74353415 -0.16148171 0.05336468
v -0.41426545 -0.27387828 0.02887959
v -0.73678458 -0.16148171 -0.03771176
v -0.41426545 -0.27729902 -0.04999932
v -0.75370407 -0.16148171 -0.06663027
v -0.74499351 -0.16148171 -0.05531042
v -0.74367094 -0.16148171 -0.05317247
v -0.74134511 -0.16148171 -0.04885158
v -0.73824394 -0.16148171 -0.04189763
v -0.75365847 -0.16148171 0.06670997
v -0.41426545 -0.28928608 0.06927550
v -0.41426545 -0.28437051 -0.07113121
v -0.75835580 -0.16148171 -0.07081614
v -0.76505971 -0.16148171 0.07620694
v -0.41426545 -0.29069462 0.07204357
v -0.41426545 -0.29377043 -0.09086782
v -0.76487732 -0.16148171 -0.07621726
v -0.77527529 -0.16148171 0.08145052
v -0.41426545 -0.29770863 0.08208066
v -0.41426545 -0.29690373 -0.09505369
v -0.76825207 -0.16148171 -0.07855776
v -0.79037058 -0.16148171 0.08383602
v -0.41426545 -0.32999030 0.10827610
v -0.41426545 -0.31803200 0.10152470
v -0.41426545 -0.31015560 0.09418817
v -0.41426545 -0.29980707 0.08419609
v -0.41426545 -0.30843085 -0.10905160
v -0.77509284 -0.16148171 -0.08159588
v -0.80998075 -0.16148171 0.08493875
v -0.41426545 -0.33269241 0.10924381
v -0.41426545 -0.30983940 -0.11055940
v -0.77937973 -0.16148171 -0.08258609
v -0.41426545 -0.31349015 -0.11402513
v -0.41426545 -0.32174021 -0.12061900
v -0.82936287 -0.16148171 0.08338593
v -0.80998075 -0.17001925 0.08487123
v -0.44878846 -0.36997586 0.10924381
v -0.44938135 -0.34999746 0.10924381
v -0.43004477 -0.33944771 0.10924381
v -0.41426545 -0.41387090 0.10924381
v -0.79848826 -0.16148171 -0.08512913
v -0.41426545 -0.42281088 -0.12061900
v -0.41768581 -0.32151026 -0.12061900
v -0.82895243 -0.16924311 0.08217068
v -0.41836989 -0.40987521 0.10924381
v -0.43497014 -0.38969558 0.10924381
v -0.84249717 -0.16148171 0.08100043
v -0.41426545 -0.42404693 0.10210982
v -0.80843019 -0.18887657 0.08174309
v -0.80076849 -0.20063365 0.08032529
v -0.77892369 -0.21908852 0.07953763
v -0.74294126 -0.24188405 0.08102293
v -0.71991068 -0.25996524 0.07996522
v -0.81850886 -0.16148171 -0.08490407
v -0.41627204 -0.42094240 -0.12061900
v -0.41426545 -0.42347205 -0.11983134
v -0.69824827 -0.27870756 -0.07871528
v -0.72155249 -0.26102883 -0.08074071
v -0.77956218 -0.21960595 -0.07977301
v -0.80081415 -0.20074864 -0.08040313
v -0.82142764 -0.18128765 -0.08067319
v -0.84185869 -0.16176917 -0.08085324
v -0.42589474 -0.32294756 -0.12061900
v -0.84217793 -0.16208537 0.08093292
v -0.82165563 -0.18143138 0.08068536
v -0.85275829 -0.16148171 0.07382144
v -0.41426545 -0.43281445 0.08997980
v -0.70445061 -0.28264576 0.06385186
v -0.83497232 -0.17542349 0.07645449
v -0.81408519 -0.19476949 0.07550929
v -0.78996015 -0.21477665 0.07517172
v -0.78996015 -0.22446403 0.06517965
v -0.76496851 -0.24346507 0.06452700
v -0.75625795 -0.23702599 0.07784978
v -0.74184674 -0.26123005 0.06184895
v -0.72998941 -0.26493829 0.06634988
v -0.83656847 -0.16148171 -0.08211349
v -0.44231254 -0.32691449 -0.12061900
v -0.45749906 -0.33269241 -0.12061900
v -0.46484149 -0.33668810 -0.12061900
v -0.47131741 -0.34999746 -0.12061900
v -0.46931076 -0.36017352 -0.12061900
v -0.46602720 -0.36727375 -0.12061900
v -0.45631331 -0.38121551 -0.12061900
v -0.41426545 -0.42752522 -0.11499283
v -0.70549947 -0.28342190 -0.06539252
v -0.74225718 -0.26157501 -0.06242190
v -0.72889489 -0.26513949 -0.06944336
v -0.73486918 -0.25602704 -0.07576717
v -0.41426545 -0.42930746 -0.11278737
v -0.41426545 -0.43028480 -0.11139208
v -0.75726128 -0.23771590 -0.07822019
v -0.76496851 -0.24360880 -0.06489742
v -0.78996015 -0.22423404 -0.06505495
v -0.80022126 -0.22020963 -0.06030646
v -0.78996015 -0.21526533 -0.07506953
v -0.81417644 -0.19462577 -0.07493450
v -0.83474433 -0.17510727 -0.07574467
v -0.85211986 -0.16148171 -0.07297659
v -0.84240597 -0.16148171 -0.08065069
v -0.84199548 -0.16148171 -0.08087574
v -0.84910989 -0.16918562 0.06995064
v -0.86142325 -0.16148171 0.06612484
v -0.41426545 -0.43324566 0.08923714
v -0.67955023 -0.29977834 0.05935093
v -0.71776724 -0.27867883 0.05649284
v -0.84277081 -0.18255247 0.06310920
v -0.82845080 -0.18864661 0.06932050
v -0.82192928 -0.20166850 0.06218652
v -0.80733562 -0.20782013 0.06808275
v -0.80058610 -0.22049709 0.06067870
v -0.77828521 -0.23880824 0.05698794
v -0.75566506 -0.25711939 0.04998898
v -0.74567759 -0.26370221 0.04998898
v -0.46219638 -0.37313792 -0.12061900
v -0.45850235 -0.37825471 -0.12061900
v -0.68114638 -0.30066946 -0.06120665
v -0.71881616 -0.27928248 -0.05792096
v -0.74608803 -0.26413339 -0.04999932
v -0.75607556 -0.25729185 -0.04999932
v -0.77828521 -0.23875076 -0.05684074
v -0.41426545 -0.43867862 -0.09617892
v -0.80272955 -0.22227934 -0.04999932
v -0.81271708 -0.21385679 -0.04999932
v -0.82439196 -0.20385319 -0.04999932
v -0.82133639 -0.20120856 -0.06158923
v -0.80719882 -0.20764765 -0.06762048
v -0.78900242 -0.23308781 -0.05008933
v -0.84204113 -0.18189131 -0.06239939
v -0.84860826 -0.16869694 -0.06928582
v -0.86228979 -0.16231534 -0.06282698
v -0.86265463 -0.16148171 -0.06323206
v -0.86288261 -0.16297650 0.06344678
v -0.86356670 -0.16148171 0.06414443
v -0.41426545 -0.43405053 0.08766182
v -0.71065289 -0.28531915 0.04989896
v -0.69026738 -0.29650131 0.05160932
v -0.68379146 -0.30213550 0.04602816
v -0.41426545 -0.44503146 0.06439197
v -0.41426545 -0.44209939 0.07166100
v -0.72182614 -0.28112224 0.04314756
v -0.72907734 -0.27416572 0.04989896
v -0.85640669 -0.17660207 0.04998898
v -0.84641922 -0.18588699 0.04998898
v -0.83524597 -0.19589058 0.04998898
v -0.82525843 -0.20451435 0.04998898
v -0.81330991 -0.21451794 0.04998898
v -0.80332243 -0.22265303 0.04998898
v -0.78909361 -0.23340401 0.05019153
v -0.78184241 -0.24139537 0.04366517
v -0.77094281 -0.24651214 0.05019153
v -0.75899428 -0.25936157 0.03677873
v -0.68442994 -0.30253795 -0.04999932
v -0.69441748 -0.29673126 -0.04999932
v -0.41426545 -0.44250184 -0.08812225
v -0.71129131 -0.28629649 -0.05076448
v -0.72237337 -0.28152469 -0.04459819
v -0.72939658 -0.27485561 -0.05076448
v -0.75917667 -0.25944781 -0.03703662
v -0.78170562 -0.24130914 -0.04349546
v -0.77098840 -0.24662712 -0.05008933
v -0.80637795 -0.22524017 -0.02999265
v -0.81636548 -0.21699008 -0.02999265
v -0.82808596 -0.20698650 -0.02999265
v -0.83807349 -0.19833398 -0.02999265
v -0.83437943 -0.19499946 -0.04999932
v -0.84541589 -0.18499587 -0.04999932
v -0.85540342 -0.17568220 -0.04999932
v -0.86561894 -0.16567862 -0.04999932
v -0.86388594 -0.16148171 -0.06131917
v -0.87131959 -0.16148171 0.04998898
v -0.86643982 -0.16659848 0.04998898
v -0.69747299 -0.29859975 0.02998232
v -0.68748552 -0.30414772 0.02998232
v -0.41426545 -0.44914216 0.04998898
v -0.72433442 -0.28264576 0.02998232
v -0.70996881 -0.29124081 0.02998232
v -0.73432189 -0.27652287 0.02998232
v -0.85909742 -0.17916045 0.03578853
v -0.83871198 -0.19893765 0.02998232
v -0.82872444 -0.20747519 0.02998232
v -0.81686711 -0.21747877 0.02998232
v -0.80687958 -0.22549888 0.02998232
v -0.79406458 -0.23550245 0.02998232
v -0.78403145 -0.24303389 0.02998232
v -0.76857132 -0.25404358 0.03007234
v -0.76095527 -0.26068389 0.02343346
v -0.75137824 -0.26562819 0.03007234
v -0.65934718 -0.31964177 -0.03771176
v -0.69843072 -0.29911718 -0.02999265
v -0.41426545 -0.44658375 -0.07540710
v -0.41426545 -0.44796354 -0.07054609
v -0.70996881 -0.29216066 -0.02999265
v -0.72488165 -0.28304821 -0.02999265
v -0.73486918 -0.27675286 -0.02999265
v -0.75146943 -0.26582941 -0.03021770
v -0.76095527 -0.26068389 -0.02371385
v -0.76857132 -0.25398609 -0.03021770
v -0.78384900 -0.24291891 -0.02999265
v -0.79383653 -0.23524374 -0.02999265
v -0.80815655 -0.22661996 -0.00998599
v -0.81814408 -0.21848488 -0.00998599
v -0.83957845 -0.19965629 -0.01624229
v -0.86014634 -0.18019530 -0.02074323
v -0.85111654 -0.18677813 -0.02843983
v -0.85850453 -0.17861427 -0.03408851
v -0.87314379 -0.16148171 -0.04052484
v -0.86972344 -0.16148171 -0.04999932
v -0.87683779 -0.16148171 0.03367309
v -0.69943404 -0.29972085 0.01593940
v -0.66048729 -0.32024544 0.02138553
v -0.41426545 -0.45279288 0.02998232
v -0.41426545 -0.45006201 0.04555556
v -0.72643220 -0.28396809 0.00999817
v -0.73646533 -0.27781644 0.00999817
v -0.86972344 -0.16978928 0.02881208
v -0.86046559 -0.18048276 0.02246576
v -0.85143578 -0.18743928 0.02946471
v -0.83989769 -0.19994375 0.01845992
v -0.81832647 -0.21865734 0.00999817
v -0.80833894 -0.22670621 0.00999817
v -0.79566073 -0.23670979 0.00999817
v -0.78567326 -0.24426997 0.00999817
v -0.76186740 -0.26131630 0.00999817
v -0.74996448 -0.26913518 0.00999817
v -0.77185488 -0.25427353 0.00999817
v -0.66869617 -0.31558859 -0.03062278
v -0.68844318 -0.30478013 -0.02999265
v -0.41426545 -0.45216048 -0.04999932
v -0.69984448 -0.29995081 -0.01808768
v -0.73655653 -0.27787393 -0.00998599
v -0.74996448 -0.26919267 -0.00998599
v -0.76186740 -0.26131630 -0.00998599
v -0.77185488 -0.25421605 -0.00998599
v -0.78558201 -0.24421248 -0.00998599
v -0.79556954 -0.23662356 -0.00998599
v -0.84026253 -0.20028871 -0.00294203
v -0.83173436 -0.20695776 -0.00973844
v -0.84815222 -0.19241232 -0.00973844
v -0.86073923 -0.18077022 -0.00998599
v -0.87884444 -0.16148171 -0.01905538
v -0.87847960 -0.16148171 -0.02144087
v -0.86935854 -0.16935809 -0.02724708
v -0.87601691 -0.16148171 -0.03195056
v -0.87907243 -0.16148171 0.02264579
v -0.70819020 -0.29497775 0.00957058
v -0.70030051 -0.30020952 0.00261663
v -0.69168115 -0.30449265 0.00957058
v -0.67147809 -0.31544486 0.00999817
v -0.41426545 -0.45296535 0.02818195
v -0.72656906 -0.28405431 -0.00998599
v -0.87095475 -0.17085288 0.00999817
v -0.86096722 -0.18097144 0.00999817
v -0.84815222 -0.19272852 0.01107839
v -0.84026253 -0.20028871 0.00511465
v -0.83191681 -0.20710149 0.01107839
v -0.66112578 -0.32061914 -0.02436648
v -0.41426545 -0.45434517 -0.02999265
v -0.67197978 -0.31567484 -0.00998599
v -0.69190919 -0.30466515 -0.01084117
v -0.70030051 -0.30020952 -0.00478741
v -0.70819020 -0.29520774 -0.01084117
v -0.87072670 -0.17065166 -0.00998599
v -0.87975651 -0.16148171 -0.00998599
v -0.88012135 -0.16148171 0.00999817
v -0.41426545 -0.45515004 -0.00998599
v -0.41426545 -0.45466137 0.00970560
v -0.87980211 -0.16148171 -0.00834315
f 1 2 5
f 1 5 9
f 1 9 14
f 1 14 20
f 1 20 19
f 1 19 18
f 1 18 17
f 1 17 16
f 1 16 24
f 1 24 28
f 1 28 32
f 1 32 39
f 1 39 43
f 1 43 52
f 1 52 65
f 1 65 88
f 1 88 112
f 1 112 111
f 1 111 110
f 1 110 143
f 1 143 181
f 1 181 219
f 1 219 218
f 1 218 255
f 1 255 253
f 1 253 252
f 1 252 275
f 1 275 279
f 1 279 276
f 1 276 256
f 1 256 220
f 1 220 182
f 1 182 145
f 1 145 114
f 1 114 77
f 1 77 58
f 1 58 46
f 1 46 40
f 1 40 33
f 1 33 29
f 1 29 25
f 1 25 21
f 1 21 12
f 1 12 6
f 1 6 3
f 1 3 4
f 1 4 2
f 2 4 5
f 3 6 7
f 3 7 4
f 4 7 13
f 4 13 22
f 4 22 26
f 4 26 30
f 4 30 37
f 4 37 36
f 4 36 35
f 4 35 34
f 4 34 41
f 4 41 51
f 4 51 59
f 4 59 78
f 4 78 115
f 4 115 146
f 4 146 151
f 4 151 150
f 4 150 186
f 4 186 224
f 4 224 223
f 4 223 261
f 4 261 278
f 4 278 277
f 4 277 269
f 4 269 240
f 4 240 203
f 4 203 202
f 4 202 166
f 4 166 133
f 4 133 102
f 4 102 101
f 4 101 96
f 4 96 67
f 4 67 53
f 4 53 45
f 4 45 44
f 4 44 42
f 4 42 38
f 4 38 31
f 4 31 27
f 4 27 23
f 4 23 15
f 4 15 11
f 4 11 10
f 4 10 8
f 4 8 5
f 5 8 10
f 5 10 11
f 5 11 9
f 6 12 7
f 7 12 13
f 9 11 14
f 11 15 16
f 11 16 17
f 11 17 18
f 11 18 19
f 11 19 20
f 11 20 14
f 12 21 13
f 13 21 22
f 15 23 16
f 16 23 24
f 21 25 22
f 22 25 26
f 23 27 28
f 23 28 24
f 25 29 30
f 25 30 26
f 27 31 32
f 27 32 28
f 29 33 34
f 29 34 35
f 29 35 36
f 29 36 37
f 29 37 30
f 31 38 39
f 31 39 32
f 33 40 41
f 33 41 34
f 38 42 39
f 39 42 44
f 39 44 45
f 39 45 43
f 40 46 47
f 40 47 48
f 40 48 49
f 40 49 50
f 40 50 41
f 41 50 49
f 41 49 48
f 41 48 57
f 41 57 56
f 41 56 51
f 43 45 52
f 45 53 66
f 45 66 95
f 45 95 127
f 45 127 126
f 45 126 94
f 45 94 93
f 45 93 92
f 45 92 91
f 45 91 90
f 45 90 89
f 45 89 74
f 45 74 54
f 45 54 52
f 46 55 56
f 46 56 57
f 46 57 47
f 46 58 55
f 47 57 48
f 51 56 55
f 51 55 60
f 51 60 61
f 51 61 62
f 51 62 63
f 51 63 64
f 51 64 59
f 52 54 65
f 53 67 68
f 53 68 69
f 53 69 70
f 53 70 71
f 53 71 72
f 53 72 73
f 53 73 66
f 54 74 65
f 55 58 75
f 55 75 76
f 55 76 60
f 58 77 75
f 59 64 79
f 59 79 78
f 60 76 61
f 61 76 80
f 61 80 81
f 61 81 82
f 61 82 62
f 62 82 83
f 62 83 84
f 62 84 85
f 62 85 64
f 62 64 63
f 64 85 84
f 64 84 86
f 64 86 87
f 64 87 79
f 65 74 89
f 65 89 90
f 65 90 91
f 65 91 92
f 65 92 93
f 65 93 94
f 65 94 88
f 66 73 95
f 67 96 68
f 68 97 98
f 68 98 99
f 68 99 100
f 68 100 69
f 68 96 101
f 68 101 102
f 68 102 97
f 69 100 103
f 69 103 70
f 70 103 104
f 70 104 105
f 70 105 106
f 70 106 107
f 70 107 108
f 70 108 71
f 71 108 109
f 71 109 72
f 72 109 73
f 73 109 110
f 73 110 111
f 73 111 112
f 73 112 88
f 73 88 95
f 75 77 80
f 75 80 76
f 77 113 80
f 77 114 113
f 78 79 116
f 78 116 115
f 79 87 86
f 79 86 117
f 79 117 116
f 80 113 118
f 80 118 119
f 80 119 81
f 81 119 120
f 81 120 121
f 81 121 82
f 82 121 122
f 82 122 83
f 83 122 84
f 84 122 123
f 84 123 86
f 86 123 124
f 86 124 125
f 86 125 117
f 88 94 126
f 88 126 127
f 88 127 95
f 97 128 129
f 97 129 98
f 97 102 128
f 98 130 131
f 98 131 132
f 98 132 104
f 98 104 100
f 98 100 99
f 98 129 130
f 100 104 103
f 102 133 128
f 104 132 106
f 104 106 105
f 106 134 135
f 106 135 136
f 106 136 137
f 106 137 138
f 106 138 107
f 106 132 139
f 106 139 134
f 107 138 108
f 108 138 137
f 108 137 140
f 108 140 109
f 109 140 141
f 109 141 110
f 110 141 142
f 110 142 143
f 113 114 144
f 113 144 118
f 114 145 144
f 115 116 146
f 116 117 147
f 116 147 148
f 116 148 149
f 116 149 150
f 116 150 151
f 116 151 146
f 117 152 147
f 117 125 153
f 117 153 152
f 118 144 154
f 118 154 155
f 118 155 156
f 118 156 120
f 118 120 119
f 120 156 157
f 120 157 122
f 120 122 121
f 122 157 158
f 122 158 159
f 122 159 160
f 122 160 123
f 123 160 161
f 123 161 162
f 123 162 124
f 124 162 161
f 124 161 163
f 124 163 125
f 125 163 152
f 125 152 153
f 128 164 165
f 128 165 129
f 128 133 166
f 128 166 164
f 129 165 167
f 129 167 168
f 129 168 169
f 129 169 130
f 130 169 168
f 130 168 170
f 130 170 131
f 131 170 171
f 131 171 172
f 131 172 132
f 132 172 171
f 132 171 139
f 134 173 174
f 134 174 135
f 134 139 171
f 134 171 173
f 135 174 175
f 135 175 136
f 136 175 176
f 136 176 177
f 136 177 137
f 137 177 178
f 137 178 140
f 140 178 179
f 140 179 142
f 140 142 141
f 142 180 181
f 142 181 143
f 142 179 180
f 144 145 182
f 144 182 183
f 144 183 154
f 147 152 149
f 147 149 148
f 149 152 184
f 149 184 185
f 149 185 186
f 149 186 150
f 152 187 188
f 152 188 184
f 152 163 189
f 152 189 187
f 154 183 190
f 154 190 155
f 155 190 156
f 156 190 191
f 156 191 157
f 157 192 193
f 157 193 158
f 157 191 192
f 158 193 159
f 159 193 194
f 159 194 161
f 159 161 160
f 161 194 195
f 161 195 196
f 161 196 163
f 163 196 197
f 163 197 198
f 163 198 199
f 163 199 189
f 164 200 201
f 164 201 165
f 164 166 202
f 164 202 203
f 164 203 200
f 165 201 168
f 165 168 167
f 168 201 204
f 168 204 205
f 168 205 206
f 168 206 170
f 170 206 207
f 170 207 208
f 170 208 209
f 170 209 210
f 170 210 171
f 171 210 211
f 171 211 173
f 173 211 212
f 173 212 213
f 173 213 174
f 174 213 214
f 174 214 175
f 175 214 176
f 176 214 215
f 176 215 216
f 176 216 217
f 176 217 177
f 177 217 178
f 178 217 179
f 179 217 180
f 180 218 219
f 180 219 181
f 180 217 218
f 182 220 183
f 183 220 190
f 184 188 221
f 184 221 185
f 185 221 222
f 185 222 223
f 185 223 224
f 185 224 186
f 187 221 188
f 187 189 225
f 187 225 221
f 189 199 198
f 189 198 226
f 189 226 225
f 190 220 227
f 190 227 228
f 190 228 229
f 190 229 191
f 191 229 228
f 191 228 230
f 191 230 192
f 192 230 193
f 193 231 232
f 193 232 194
f 193 230 231
f 194 232 233
f 194 233 195
f 195 233 234
f 195 234 196
f 196 234 198
f 196 198 197
f 198 235 236
f 198 236 226
f 198 234 237
f 198 237 235
f 200 238 239
f 200 239 201
f 200 203 240
f 200 240 238
f 201 241 204
f 201 239 241
f 204 241 205
f 205 241 242
f 205 242 206
f 206 242 208
f 206 208 207
f 208 242 243
f 208 243 244
f 208 244 245
f 208 245 246
f 208 246 210
f 208 210 209
f 210 246 247
f 210 247 211
f 211 247 212
f 212 247 232
f 212 232 231
f 212 231 213
f 213 231 248
f 213 248 249
f 213 249 214
f 214 249 248
f 214 248 250
f 214 250 251
f 214 251 215
f 215 251 252
f 215 252 253
f 215 253 254
f 215 254 217
f 215 217 216
f 217 254 255
f 217 255 218
f 220 256 227
f 221 225 257
f 221 257 258
f 221 258 259
f 221 259 260
f 221 260 223
f 221 223 222
f 223 260 261
f 225 226 258
f 225 258 257
f 226 242 262
f 226 262 258
f 226 236 242
f 227 256 228
f 228 256 263
f 228 263 264
f 228 264 230
f 230 265 266
f 230 266 267
f 230 267 231
f 230 264 265
f 231 267 266
f 231 266 248
f 232 247 233
f 233 247 246
f 233 246 234
f 234 246 245
f 234 245 237
f 235 244 243
f 235 243 236
f 235 237 244
f 236 243 242
f 237 245 244
f 238 268 239
f 238 240 268
f 239 268 241
f 240 269 268
f 241 268 270
f 241 270 271
f 241 271 272
f 241 272 273
f 241 273 262
f 241 262 242
f 248 266 264
f 248 264 251
f 248 251 250
f 251 264 263
f 251 263 274
f 251 274 252
f 252 274 275
f 253 255 254
f 256 276 263
f 258 260 259
f 258 262 272
f 258 272 270
f 258 270 277
f 258 277 278
f 258 278 260
f 260 278 261
f 262 273 272
f 263 276 279
f 263 279 274
f 264 266 265
f 268 269 270
f 269 277 270
f 270 272 271
f 274 279 275
