v -0.79852962 -0.16148171 -0.08513908
v -0.77942425 -0.16148171 -0.08257005
v -0.81851906 -0.16148171 -0.08490402
v -0.83001179 -0.14999528 -0.08493759
v -0.85000122 -0.12999861 -0.08493759
v -0.88998014 -0.07000858 -0.08512229
v -0.90999413 -0.03001523 -0.08505513
v -0.92286205 0.00286748 -0.08473609
v -0.90955210 0.00286748 -0.08305699
v -0.77512676 -0.16148171 -0.08161296
v -0.90500903 0.00286748 -0.08213349
v -0.83659309 -0.16148171 -0.08211669
v -0.84914172 -0.14915875 -0.08220065
v -0.86910665 -0.12887248 -0.08206633
v -0.86999071 -0.10998584 -0.08466893
v -0.90999413 -0.05001191 -0.08450103
v -0.92998356 0.00286748 -0.08475289
v -0.76829988 -0.16148171 -0.07855698
v -0.89936090 0.00286748 -0.08063908
v -0.89911532 0.00286748 -0.08057192
v -0.84204477 -0.16148171 -0.08087416
v -0.86183774 -0.14193548 -0.08089095
v -0.88118869 -0.12145618 -0.08065587
v -0.88575631 -0.10998584 -0.08181445
v -0.89187104 -0.09185531 -0.08309057
v -0.91016603 -0.06946161 -0.08245252
v -0.92406535 -0.05001191 -0.08178087
v -0.93049926 -0.02961305 -0.08245252
v -0.92998356 -0.01000247 -0.08431633
v -0.94096059 0.00286748 -0.08310737
v -0.76488644 -0.16148171 -0.07622303
v -0.89052039 0.00286748 -0.07088348
v -0.75376213 -0.16148171 -0.06661855
v -0.75840342 -0.16148171 -0.07081631
v -0.84243768 -0.16148171 -0.08065587
v -0.85523188 -0.15525587 -0.07617266
v -0.87517220 -0.13479266 -0.07587042
v -0.89575106 -0.10998584 -0.07578647
v -0.89980292 -0.09977033 -0.07991707
v -0.90360928 -0.08644994 -0.08151221
v -0.92124128 -0.06241532 -0.08075662
v -0.94103426 -0.02266328 -0.08067267
v -0.94319528 -0.01000247 -0.08162975
v -0.94567555 0.00286748 -0.08215028
v -0.88489681 0.00286748 -0.06331071
v -0.74501979 -0.16148171 -0.05531817
v -0.85218680 -0.16148171 -0.07298236
v -0.86267269 -0.16148171 -0.06322676
v -0.86873829 -0.14869219 -0.06935549
v -0.88190085 -0.14211243 -0.06253833
v -0.88821203 -0.12789115 -0.06849915
v -0.90076065 -0.12098965 -0.06114467
v -0.91694379 -0.07575180 -0.07775103
v -0.90473890 -0.10998584 -0.06579579
v -0.92318130 -0.08501816 -0.06441893
v -0.93406004 -0.05001191 -0.07424168
v -0.93752259 -0.03599976 -0.07838908
v -0.95318997 -0.01000247 -0.07296558
v -0.95567024 0.00286748 -0.07605512
v -0.95210946 0.00286748 -0.07914467
v -0.88094312 0.00286748 -0.05679579
v -0.74371827 -0.16148171 -0.05316892
v -0.86387599 -0.16148171 -0.06131258
v -0.88489681 -0.14544255 -0.04999541
v -0.89491612 -0.13390785 -0.04999541
v -0.87563878 -0.15543284 -0.04999541
v -0.90306902 -0.12390147 -0.04999541
v -0.91380048 -0.10922974 -0.05033123
v -0.91888380 -0.09833854 -0.05723235
v -0.92887849 -0.06820679 -0.06917079
v -0.94034666 -0.06067787 -0.06059057
v -0.94302338 -0.05001191 -0.06423423
v -0.94901532 -0.02805256 -0.06922117
v -0.96200597 -0.01000247 -0.06295811
v -0.96436346 0.00286748 -0.06604765
v -0.87878209 0.00286748 -0.05147302
v -0.73829114 -0.16148171 -0.04188533
v -0.74136078 -0.16148171 -0.04887041
v -0.86974514 -0.16148171 -0.04999541
v -0.87856108 -0.15845728 -0.03375846
v -0.89801025 -0.13762406 -0.02999726
v -0.90601587 -0.12761767 -0.02999726
v -0.91601062 -0.11453859 -0.02999726
v -0.92143774 -0.10205474 -0.04390026
v -0.92620182 -0.09100268 -0.05033123
v -0.93668765 -0.07432001 -0.04999541
v -0.94240946 -0.06431364 -0.04999541
v -0.94987482 -0.05001191 -0.04999541
v -0.95743835 -0.03440710 -0.04999541
v -0.96001685 -0.02008929 -0.06005325
v -0.97057641 0.00286748 -0.05444504
v -0.87721044 0.00286748 -0.04673795
v -0.73684227 -0.16148171 -0.03770436
v -0.87315851 -0.16148171 -0.04054205
v -0.87600714 -0.16148171 -0.03196182
v -0.87848741 -0.16148171 -0.02145062
v -0.88008362 -0.16009820 -0.02042636
v -0.88646847 -0.15107314 -0.02825100
v -0.89953279 -0.13944194 -0.00999912
v -0.90744019 -0.12943554 -0.00999912
v -0.91743493 -0.11653343 -0.00999912
v -0.92465472 -0.10654314 -0.00999912
v -0.92318130 -0.10454829 -0.02999726
v -0.93398637 -0.08847695 -0.02944316
v -0.93904513 -0.07842231 -0.03573981
v -0.95957482 -0.03912072 -0.03817451
v -0.96195686 -0.02440072 -0.04999541
v -0.96782601 -0.01000247 -0.04999541
v -0.97273743 0.00286748 -0.04960921
v -0.87622815 0.00286748 -0.04343011
v -0.73477948 -0.16148171 -0.02999726
v -0.87261826 0.00286748 -0.03003085
v -0.87885576 -0.16148171 -0.01906629
v -0.87976438 -0.16148171 -0.00999912
v -0.88059932 -0.16062906 -0.00999912
v -0.89012748 -0.14999528 -0.00999912
v -0.89972925 -0.13966715 0.00999902
v -0.90761209 -0.12967686 0.00999902
v -0.91760683 -0.11677474 0.00999902
v -0.92482662 -0.10678445 0.00999902
v -0.93482131 -0.09216097 0.00999902
v -0.93464941 -0.09183922 -0.00999912
v -0.94049400 -0.08080325 -0.02240771
v -0.94461960 -0.07105426 -0.02944316
v -0.95606315 -0.04927189 -0.03090398
v -0.96104825 -0.04212907 -0.02484241
v -0.96458447 -0.03147919 -0.03090398
v -0.97379339 -0.01000247 -0.02999726
v -0.97870481 0.00286748 -0.02999726
v -0.97853291 0.00286748 -0.03056816
v -0.73320782 -0.16148171 -0.02111480
v -0.87163597 0.00286748 -0.02343196
v -0.73124325 -0.16148171 -0.00999912
v -0.88015729 -0.16148171 0.00999902
v -0.88077122 -0.16083822 0.00999902
v -0.89052039 -0.14999528 0.00999902
v -0.88032919 -0.16037168 0.02181992
v -0.89847684 -0.13815494 0.02999717
v -0.90643334 -0.12816465 0.02999717
v -0.91642809 -0.11516599 0.02999717
v -0.92367244 -0.10515962 0.02999717
v -0.94076413 -0.08122152 0.02445612
v -0.94135350 -0.08215459 0.00999902
v -0.94115704 -0.08184893 -0.00999912
v -0.94808215 -0.07000858 -0.00999912
v -0.95692265 -0.05403376 -0.00999912
v -0.96198142 -0.04402738 -0.00999912
v -0.96841538 -0.03001523 -0.00999912
v -0.97993267 0.00011653 -0.01943569
v -0.98044837 0.00286748 -0.02165211
v -0.86994159 0.00286748 -0.01062039
v -0.73109591 -0.16148171 0.00999902
v -0.86964691 0.00286748 0.00999902
v -0.87910134 -0.16148171 0.02264269
v -0.88698417 -0.15137881 0.02909045
v -0.87902766 -0.15895599 0.03515202
v -0.89543182 -0.13448700 0.04999531
v -0.90351105 -0.12448062 0.04999531
v -0.88543707 -0.14615038 0.04999531
v -0.92183065 -0.10256954 0.04499158
v -0.93958539 -0.07932320 0.03778822
v -0.93469852 -0.08873435 0.03066881
v -0.94533175 -0.07160123 0.03066881
v -0.95606315 -0.05231241 0.02999717
v -0.95716822 -0.05448421 0.00999902
v -0.94854873 -0.07000858 0.00999902
v -0.96220243 -0.04447783 0.00999902
v -0.96885741 -0.03001523 0.00999902
v -0.98049748 -0.00133134 -0.00610360
v -0.97710860 -0.00879591 -0.01166144
v -0.98111141 0.00286748 -0.01676592
v -0.73269212 -0.16148171 0.01940201
v -0.87023628 0.00286748 0.01604380
v -0.87178332 0.00286748 0.03001396
v -0.87686664 -0.16148171 0.03367441
v -0.87134129 -0.16148171 0.04999531
v -0.87644917 -0.15615678 0.04999531
v -0.90105534 -0.12134357 0.06148039
v -0.88224465 -0.14256290 0.06287405
v -0.91932583 -0.09903030 0.05832367
v -0.91441441 -0.10953540 0.05098598
v -0.92711043 -0.09140486 0.05098598
v -0.93749803 -0.07588050 0.04999531
v -0.94336718 -0.06587411 0.04999531
v -0.96016419 -0.04035945 0.04049157
v -0.96112192 -0.04230603 0.02999717
v -0.98017824 -0.00049480 0.02101395
v -0.97664201 -0.01135381 0.00999902
v -0.96664727 -0.03001523 0.02999717
v -0.98049748 -0.00136352 0.00999902
v -0.98194635 0.00286748 -0.00014277
v -0.98174989 0.00286748 -0.00858867
v -0.73450935 -0.16148171 0.02999717
v -0.87401801 0.00286748 0.03856060
v -0.86355674 -0.16148171 0.06413338
v -0.88838392 -0.12808421 0.06885166
v -0.89452320 -0.11339638 0.07481249
v -0.90002394 -0.10005990 0.08001772
v -0.90424776 -0.10802318 0.06888525
v -0.92374611 -0.08569383 0.06488897
v -0.86910665 -0.14906222 0.06984234
v -0.87531954 -0.13482484 0.07620615
v -0.94103426 -0.06183617 0.06158114
v -0.95331275 -0.04821011 0.04829941
v -0.96232522 -0.02893737 0.04829941
v -0.96942222 -0.01000247 0.04999531
v -0.97890127 0.00286748 0.03426209
v -0.97578251 -0.00829720 0.02860351
v -0.95770848 -0.03488972 0.05382367
v -0.97902405 0.00286748 0.03369120
v -0.98086584 0.00286748 0.02348224
v -0.98194635 0.00286748 0.00999902
v -0.73814380 -0.16148171 0.04210351
v -0.87725955 0.00286748 0.04999531
v -0.86142027 -0.16148171 0.06611472
v -0.85555112 -0.15554544 0.07679383
v -0.88118869 -0.12148836 0.08065577
v -0.88870317 -0.10802318 0.08161287
v -0.90309358 -0.08998917 0.08129384
v -0.92168331 -0.06313925 0.08099160
v -0.91741037 -0.07647573 0.07822107
v -0.92939419 -0.06915595 0.06990950
v -0.86198509 -0.14220896 0.08094122
v -0.93514055 -0.05001191 0.07548413
v -0.94405478 -0.05001191 0.06549345
v -0.96065533 -0.02155324 0.06104383
v -0.97406352 0.00286748 0.05004568
v -0.74357092 -0.16148171 0.05337031
v -0.87878209 0.00286748 0.05404196
v -0.85277617 -0.16148171 0.07382181
v -0.84253585 -0.16148171 0.08099160
v -0.86920488 -0.12888858 0.08223413
v -0.88998014 -0.08998917 0.08455130
v -0.91043615 -0.06989597 0.08298972
v -0.92512131 -0.05001191 0.08223413
v -0.94157451 -0.02412723 0.08099160
v -0.93848032 -0.03746371 0.07906063
v -0.84933817 -0.14931962 0.08235167
v -0.94962925 -0.02950044 0.07006063
v -0.96289003 -0.01000247 0.06421733
v -0.96431434 0.00286748 0.06809607
v -0.75368845 -0.16148171 0.06670241
v -0.88312870 0.00286748 0.06304196
v -0.88907152 0.00286748 0.07090017
v -0.82942241 -0.16148171 0.08339271
v -0.86999071 -0.10998584 0.08525652
v -0.90999413 -0.05001191 0.08567630
v -0.93108863 -0.03048177 0.08319122
v -0.94412845 -0.01000247 0.08211659
v -0.94783658 0.00286748 0.08235167
v -0.95662796 0.00286748 0.07716323
v -0.95412314 -0.01000247 0.07422480
v -0.83001179 -0.14999528 0.08522294
v -0.85000122 -0.12999861 0.08539085
v -0.95839608 0.00286748 0.07516509
v -0.76510745 -0.16148171 0.07620615
v -0.89830494 0.00286748 0.08104196
v -0.81002235 -0.16148171 0.08495428
v -0.88998014 -0.07000858 0.08623040
v -0.90999413 -0.03001523 0.08639832
v -0.92998356 0.00286748 0.08606249
v -0.92998356 -0.01000247 0.08559234
v -0.86999071 -0.08998917 0.08602890
v -0.81002235 -0.14999528 0.08503824
v -0.77529866 -0.16148171 0.08146174
v -0.90928197 0.00286748 0.08408114
v -0.79040122 -0.16148171 0.08384608
v -0.90999413 -0.01000247 0.08560914
f 1 2 10
f 1 10 18
f 1 18 31
f 1 31 34
f 1 34 33
f 1 33 46
f 1 46 62
f 1 62 78
f 1 78 77
f 1 77 93
f 1 93 111
f 1 111 131
f 1 131 133
f 1 133 152
f 1 152 172
f 1 172 193
f 1 193 213
f 1 213 228
f 1 228 242
f 1 242 256
f 1 256 265
f 1 265 267
f 1 267 258
f 1 258 245
f 1 245 231
f 1 231 230
f 1 230 215
f 1 215 195
f 1 195 176
f 1 176 175
f 1 175 154
f 1 154 134
f 1 134 114
f 1 114 113
f 1 113 96
f 1 96 95
f 1 95 94
f 1 94 79
f 1 79 63
f 1 63 48
f 1 48 47
f 1 47 35
f 1 35 21
f 1 21 12
f 1 12 3
f 1 3 4
f 1 4 5
f 1 5 6
f 1 6 7
f 1 7 8
f 1 8 9
f 1 9 2
f 2 9 11
f 2 11 10
f 3 12 13
f 3 13 4
f 4 13 5
f 5 13 14
f 5 14 15
f 5 15 6
f 6 16 7
f 6 15 16
f 7 16 17
f 7 17 8
f 8 17 30
f 8 30 44
f 8 44 60
f 8 60 59
f 8 59 75
f 8 75 91
f 8 91 109
f 8 109 130
f 8 130 129
f 8 129 150
f 8 150 171
f 8 171 192
f 8 192 191
f 8 191 212
f 8 212 211
f 8 211 210
f 8 210 207
f 8 207 227
f 8 227 241
f 8 241 255
f 8 255 251
f 8 251 250
f 8 250 261
f 8 261 266
f 8 266 257
f 8 257 244
f 8 244 243
f 8 243 229
f 8 229 214
f 8 214 194
f 8 194 174
f 8 174 173
f 8 173 153
f 8 153 151
f 8 151 132
f 8 132 112
f 8 112 110
f 8 110 92
f 8 92 76
f 8 76 61
f 8 61 45
f 8 45 32
f 8 32 20
f 8 20 19
f 8 19 11
f 8 11 9
f 10 11 19
f 10 19 20
f 10 20 18
f 12 21 13
f 13 21 22
f 13 22 14
f 14 22 23
f 14 23 24
f 14 24 15
f 15 24 25
f 15 25 16
f 16 25 26
f 16 26 27
f 16 27 28
f 16 28 29
f 16 29 17
f 17 29 30
f 18 20 31
f 20 32 33
f 20 33 34
f 20 34 31
f 21 35 22
f 22 35 36
f 22 36 37
f 22 37 23
f 23 37 38
f 23 38 39
f 23 39 24
f 24 39 40
f 24 40 25
f 25 40 26
f 26 40 41
f 26 41 27
f 27 41 42
f 27 42 43
f 27 43 28
f 28 43 29
f 29 43 44
f 29 44 30
f 32 45 46
f 32 46 33
f 35 47 36
f 36 48 49
f 36 49 37
f 36 47 48
f 37 50 51
f 37 51 38
f 37 49 50
f 38 52 39
f 38 51 52
f 39 53 41
f 39 41 40
f 39 52 54
f 39 54 55
f 39 55 53
f 41 56 57
f 41 57 42
f 41 53 56
f 42 57 58
f 42 58 59
f 42 59 60
f 42 60 43
f 43 60 44
f 45 61 46
f 46 61 62
f 48 63 50
f 48 50 49
f 50 64 65
f 50 65 52
f 50 52 51
f 50 63 66
f 50 66 64
f 52 65 67
f 52 67 68
f 52 68 69
f 52 69 55
f 52 55 54
f 53 55 70
f 53 70 56
f 55 71 70
f 55 69 71
f 56 70 72
f 56 72 57
f 57 72 73
f 57 73 58
f 58 74 59
f 58 73 74
f 59 74 75
f 61 76 77
f 61 77 78
f 61 78 62
f 63 79 66
f 64 66 80
f 64 80 81
f 64 81 65
f 65 81 67
f 66 79 80
f 67 81 82
f 67 82 83
f 67 83 84
f 67 84 68
f 68 84 69
f 69 84 85
f 69 85 86
f 69 86 71
f 70 71 72
f 71 86 87
f 71 87 88
f 71 88 89
f 71 89 90
f 71 90 72
f 72 90 73
f 73 90 74
f 74 90 91
f 74 91 75
f 76 92 93
f 76 93 77
f 79 94 80
f 80 94 95
f 80 95 96
f 80 96 97
f 80 97 98
f 80 98 81
f 81 99 82
f 81 98 97
f 81 97 99
f 82 100 101
f 82 101 83
f 82 99 100
f 83 101 102
f 83 102 103
f 83 103 84
f 84 103 104
f 84 104 105
f 84 105 85
f 85 105 86
f 86 105 87
f 87 105 106
f 87 106 88
f 88 106 89
f 89 106 107
f 89 107 90
f 90 107 108
f 90 108 109
f 90 109 91
f 92 110 93
f 93 110 112
f 93 112 111
f 96 113 97
f 97 113 114
f 97 114 115
f 97 115 116
f 97 116 99
f 99 116 117
f 99 117 100
f 100 117 118
f 100 118 119
f 100 119 101
f 101 119 120
f 101 120 102
f 102 120 121
f 102 121 122
f 102 122 123
f 102 123 103
f 103 123 104
f 104 123 105
f 105 123 124
f 105 124 125
f 105 125 106
f 106 125 126
f 106 126 127
f 106 127 128
f 106 128 108
f 106 108 107
f 108 128 129
f 108 129 130
f 108 130 109
f 111 112 131
f 112 132 133
f 112 133 131
f 114 134 115
f 115 134 135
f 115 135 136
f 115 136 116
f 116 136 117
f 117 136 137
f 117 137 138
f 117 138 139
f 117 139 118
f 118 139 119
f 119 139 140
f 119 140 141
f 119 141 120
f 120 141 142
f 120 142 121
f 121 142 143
f 121 143 122
f 122 143 144
f 122 144 123
f 123 144 145
f 123 145 146
f 123 146 126
f 123 126 124
f 124 126 125
f 126 147 148
f 126 148 149
f 126 149 127
f 126 146 147
f 127 149 128
f 128 149 129
f 129 149 150
f 132 151 133
f 133 151 153
f 133 153 152
f 134 137 135
f 134 154 137
f 135 137 136
f 137 155 138
f 137 154 156
f 137 156 155
f 138 157 158
f 138 158 139
f 138 155 156
f 138 156 159
f 138 159 157
f 139 158 160
f 139 160 140
f 140 160 141
f 141 160 161
f 141 161 162
f 141 162 142
f 142 161 163
f 142 163 164
f 142 164 165
f 142 165 166
f 142 166 143
f 142 162 161
f 143 166 144
f 144 166 145
f 145 166 165
f 145 165 146
f 146 165 147
f 147 165 167
f 147 167 168
f 147 168 148
f 148 168 169
f 148 169 170
f 148 170 149
f 149 169 171
f 149 171 150
f 149 170 169
f 152 153 173
f 152 173 174
f 152 174 172
f 154 175 156
f 156 175 176
f 156 176 177
f 156 177 159
f 157 178 158
f 157 159 179
f 157 179 178
f 158 178 180
f 158 180 181
f 158 181 160
f 159 177 179
f 160 182 161
f 160 181 180
f 160 180 182
f 161 183 184
f 161 184 185
f 161 185 164
f 161 164 163
f 161 182 183
f 164 185 186
f 164 186 165
f 165 186 167
f 167 186 168
f 168 187 188
f 168 188 169
f 168 186 189
f 168 189 187
f 169 188 190
f 169 190 191
f 169 191 192
f 169 192 171
f 172 174 193
f 174 194 193
f 176 195 177
f 177 195 179
f 178 179 196
f 178 196 197
f 178 197 198
f 178 198 199
f 178 199 200
f 178 200 180
f 179 195 201
f 179 201 202
f 179 202 196
f 180 200 203
f 180 203 183
f 180 183 182
f 183 203 184
f 184 203 204
f 184 204 185
f 185 205 206
f 185 206 207
f 185 207 208
f 185 208 189
f 185 189 186
f 185 204 209
f 185 209 205
f 187 210 211
f 187 211 212
f 187 212 190
f 187 190 188
f 187 189 208
f 187 208 210
f 190 212 191
f 193 194 214
f 193 214 213
f 195 215 216
f 195 216 201
f 196 202 197
f 197 202 198
f 198 202 217
f 198 217 218
f 198 218 219
f 198 219 220
f 198 220 221
f 198 221 200
f 198 200 199
f 200 222 203
f 200 221 222
f 201 216 202
f 202 216 223
f 202 223 217
f 203 222 224
f 203 224 225
f 203 225 226
f 203 226 209
f 203 209 204
f 205 209 226
f 205 226 206
f 206 227 207
f 206 226 227
f 207 210 208
f 213 214 229
f 213 229 228
f 215 230 216
f 216 230 231
f 216 231 223
f 217 223 232
f 217 232 218
f 218 232 233
f 218 233 219
f 219 233 234
f 219 234 220
f 220 235 236
f 220 236 237
f 220 237 221
f 220 234 235
f 221 237 224
f 221 224 222
f 223 231 238
f 223 238 232
f 224 237 225
f 225 237 239
f 225 239 226
f 226 240 227
f 226 239 240
f 227 240 241
f 228 229 243
f 228 243 244
f 228 244 242
f 231 245 238
f 232 238 246
f 232 246 233
f 233 247 234
f 233 246 247
f 234 247 235
f 235 248 236
f 235 247 248
f 236 248 249
f 236 249 250
f 236 250 251
f 236 251 237
f 237 251 252
f 237 252 240
f 237 240 239
f 238 245 253
f 238 253 254
f 238 254 246
f 240 252 255
f 240 255 241
f 242 244 257
f 242 257 256
f 245 258 253
f 246 254 259
f 246 259 247
f 247 259 260
f 247 260 261
f 247 261 262
f 247 262 248
f 248 262 249
f 249 262 250
f 250 262 261
f 251 255 252
f 253 263 259
f 253 259 254
f 253 258 264
f 253 264 263
f 256 257 265
f 257 266 265
f 258 267 264
f 259 263 260
f 260 268 261
f 260 263 264
f 260 264 268
f 261 268 266
f 264 267 268
f 265 266 267
f 266 268 267
