v -0.54276657 0.44889528 -0.10497572
v -0.54276657 0.46269679 -0.10493635
v -0.54276657 0.43953720 -0.10383388
v -0.82525039 0.43001077 -0.09064361
v -0.54276657 0.46998468 -0.10418824
v -0.80995780 0.44997248 -0.09013175
v -0.54276657 0.43334335 -0.10267235
v -0.82525039 0.40998176 -0.08810399
v -0.82525039 0.45135263 -0.08694246
v -0.54276657 0.47813094 -0.10269203
v -0.74997663 0.46998468 -0.09135234
v -0.78996408 0.46998468 -0.08767088
v -0.76997036 0.46998468 -0.09005300
v -0.54276657 0.42820984 -0.10046741
v -0.82525039 0.39390802 -0.08259165
v -0.82525039 0.46424526 -0.08253258
v -0.80890697 0.47023714 -0.08391067
v -0.54276657 0.48324758 -0.10137300
v -0.68999553 0.48998004 -0.09131297
v -0.78996408 0.48296145 -0.08221759
v -0.76997036 0.48663065 -0.08412722
v -0.72998297 0.48998004 -0.08816306
v -0.70998925 0.48998004 -0.08999394
v -0.54276657 0.42324466 -0.09727812
v -0.82525039 0.38463411 -0.07371283
v -0.54276657 0.41732013 -0.09200201
v -0.82525039 0.47306475 -0.07314190
v -0.81488019 0.47708741 -0.07615401
v -0.80155104 0.48072290 -0.08064263
v -0.54276657 0.48959291 -0.09836090
v -0.67000180 0.50697947 -0.08522969
v -0.66726410 0.50706363 -0.08530844
v -0.68999553 0.50588542 -0.08459971
v -0.75724959 0.49898466 -0.07881174
v -0.74394810 0.50100440 -0.08095762
v -0.75033617 0.49137703 -0.08473752
v -0.72998297 0.50255287 -0.08227665
v -0.70998925 0.50443798 -0.08367442
v -0.82525039 0.37655514 -0.06337717
v -0.54276657 0.41343212 -0.08723777
v -0.82525039 0.47838339 -0.06530648
v -0.82273388 0.48151398 -0.06282593
v -0.80890697 0.48417330 -0.06967700
v -0.78905153 0.49319476 -0.06883045
v -0.76997036 0.49662831 -0.07514997
v -0.65000808 0.50756854 -0.08568250
v -0.63001442 0.50768638 -0.08601718
v -0.55001187 0.49279082 -0.09631345
v -0.54276657 0.49322844 -0.09593941
v -0.67000180 0.51697713 -0.07487436
v -0.66726410 0.51706129 -0.07501216
v -0.65000808 0.51758307 -0.07585870
v -0.75033617 0.50511122 -0.07127164
v -0.76997036 0.50263703 -0.06516868
v -0.72998297 0.51059812 -0.06999198
v -0.70971268 0.51517618 -0.06859421
v -0.68999553 0.51589996 -0.07280722
v -0.82525039 0.36950293 -0.04997035
v -0.54276657 0.40957782 -0.08190260
v -0.54276657 0.40133056 -0.07048416
v -0.82525039 0.48289412 -0.05493146
v -0.80995780 0.49225223 -0.04997035
v -0.79621387 0.49849656 -0.04997035
v -0.78177857 0.50066781 -0.06138878
v -0.63001442 0.51770085 -0.07583901
v -0.61002070 0.50741708 -0.08629279
v -0.59002697 0.50686163 -0.08654872
v -0.57000560 0.50600326 -0.08662747
v -0.54276657 0.50092024 -0.08956083
v -0.67000180 0.52209377 -0.06487337
v -0.66726410 0.52148789 -0.06638928
v -0.68999553 0.52121860 -0.06280625
v -0.65000808 0.52251458 -0.06587741
v -0.71618372 0.51936716 -0.05762858
v -0.74997663 0.51393068 -0.04997035
v -0.70285457 0.52042753 -0.06101473
v -0.82525039 0.36850989 -0.04699761
v -0.54276657 0.39449713 -0.04997035
v -0.82525039 0.48452675 -0.04997035
v -0.79983652 0.49991038 -0.03957563
v -0.78620315 0.50238454 -0.04997035
v -0.76997036 0.50805664 -0.04997035
v -0.63001442 0.52244723 -0.06585772
v -0.61002070 0.51743156 -0.07489404
v -0.55001187 0.50485873 -0.08631248
v -0.54276657 0.50433695 -0.08593842
v -0.67000180 0.52652037 -0.04997035
v -0.65000808 0.52729464 -0.04997035
v -0.66726410 0.52216113 -0.06499150
v -0.68999553 0.52480358 -0.04997035
v -0.73119974 0.51823950 -0.05056095
v -0.72533709 0.52105027 -0.04430050
v -0.70971268 0.52211064 -0.05056095
v -0.73866624 0.51972061 -0.03809911
v -0.76997036 0.51228124 -0.02998808
v -0.82525039 0.36315760 -0.02998808
v -0.54276657 0.38981807 -0.02996839
v -0.82525039 0.48861670 -0.03140554
v -0.80204880 0.50092024 -0.02624756
v -0.79189986 0.50418550 -0.03174022
v -0.80923879 0.49674612 -0.03174022
v -0.63001442 0.52714312 -0.04997035
v -0.61002070 0.52197599 -0.06487337
v -0.59002697 0.51684248 -0.07282691
v -0.54276657 0.50965559 -0.07552402
v -0.68999553 0.52843910 -0.02998808
v -0.67000180 0.53003806 -0.02998808
v -0.66726410 0.52966779 -0.03274425
v -0.65000808 0.53072816 -0.02996839
v -0.70998925 0.52598178 -0.02998808
v -0.73119974 0.52219480 -0.03083462
v -0.74958950 0.51802069 -0.03083462
v -0.74267608 0.52064633 -0.02477103
v -0.78996408 0.50718141 -0.00996644
v -0.76997036 0.51423365 -0.00996644
v -0.75489902 0.51869392 -0.00996644
v -0.82525039 0.36278731 -0.02754690
v -0.54276657 0.38806763 -0.00996644
v -0.82525039 0.36029631 -0.00996644
v -0.82525039 0.49105722 -0.00996644
v -0.81366342 0.49701545 -0.00996644
v -0.80365270 0.50166082 -0.00996644
v -0.63001442 0.53047568 -0.02996839
v -0.61002070 0.52611643 -0.04997035
v -0.59002697 0.52106708 -0.06282593
v -0.57044804 0.51647222 -0.06855484
v -0.55001187 0.51322377 -0.06997230
v -0.54276657 0.51206243 -0.06997230
v -0.68999553 0.53010541 -0.00996644
v -0.70998925 0.52771538 -0.00996644
v -0.67000180 0.53162020 -0.00996644
v -0.66726410 0.53013909 -0.02998808
v -0.65000808 0.53224295 -0.00996644
v -0.66726410 0.53172117 -0.00996644
v -0.72998297 0.52436602 -0.00996644
v -0.74491602 0.52120173 -0.00996644
v -0.78996408 0.50721508 0.00997646
v -0.76997036 0.51425052 0.00997646
v -0.75487137 0.51869392 0.00997646
v -0.54276657 0.38837060 -0.00081200
v -0.82525039 0.36070025 0.00997646
v -0.82525039 0.49105722 0.00997646
v -0.81369108 0.49701545 0.00997646
v -0.80368036 0.50167763 0.00997646
v -0.63001442 0.53192317 -0.00996644
v -0.61002070 0.52933115 -0.02996839
v -0.59002697 0.52421451 -0.04997035
v -0.57741684 0.52034336 -0.06097536
v -0.56406003 0.51943445 -0.05713640
v -0.54276657 0.51552963 -0.05707734
v -0.68999553 0.52998757 0.00997646
v -0.70998925 0.52763122 0.00997646
v -0.72998297 0.52431548 0.00997646
v -0.67000180 0.53148556 0.00997646
v -0.65000808 0.53207463 0.00999614
v -0.63001442 0.53177166 0.00999614
v -0.74488837 0.52120173 0.00997646
v -0.76997036 0.51226443 0.02999809
v -0.80210412 0.50093710 0.02649382
v -0.79192752 0.50421917 0.03188805
v -0.74262077 0.52062947 0.02421013
v -0.54276657 0.38877454 0.00999614
v -0.82525039 0.36433578 0.02999809
v -0.54276657 0.38985175 0.01781187
v -0.54276657 0.39188832 0.02999809
v -0.82525039 0.48955926 0.02356046
v -0.80923879 0.49677980 0.03188805
v -0.61002070 0.53062719 0.00999614
v -0.61002070 0.53076184 -0.00996644
v -0.59002697 0.52879256 -0.00996644
v -0.59002697 0.52734512 -0.02996839
v -0.57044804 0.52165616 -0.05026565
v -0.55579156 0.52069682 -0.04376895
v -0.54948646 0.51840776 -0.05026565
v -0.54276657 0.51726329 -0.05014753
v -0.68999553 0.52805203 0.02999809
v -0.67000180 0.52958363 0.02999809
v -0.70998925 0.52566200 0.02999809
v -0.73084021 0.52206016 0.03052964
v -0.66726410 0.52968460 0.02999809
v -0.65000808 0.53022325 0.02999809
v -0.63001442 0.52995396 0.02999809
v -0.61002070 0.52882624 0.02999809
v -0.76997036 0.50780416 0.04998036
v -0.73808551 0.51960278 0.03753820
v -0.74953419 0.51791966 0.03052964
v -0.79991949 0.49994406 0.03982189
v -0.82525039 0.37199393 0.05244123
v -0.54276657 0.39311698 0.03450641
v -0.54276657 0.39825046 0.04998036
v -0.82525039 0.48865038 0.03143524
v -0.59002697 0.52689064 0.02999809
v -0.59002697 0.52865791 0.00999614
v -0.57000560 0.52606595 -0.00996644
v -0.57000560 0.52468580 -0.02996839
v -0.54276657 0.51958597 -0.03593354
v -0.68999553 0.52397889 0.04998036
v -0.67000180 0.52562833 0.04998036
v -0.72475636 0.52091563 0.04332617
v -0.70833004 0.52172351 0.05000005
v -0.66726410 0.52572930 0.04998036
v -0.65000808 0.52635205 0.04998036
v -0.63001442 0.52613324 0.04998036
v -0.61002070 0.52505606 0.04998036
v -0.78606492 0.50231725 0.04998036
v -0.78150201 0.50054997 0.06110349
v -0.74997663 0.51344258 0.04998036
v -0.73084021 0.51778501 0.05000005
v -0.79607558 0.49844608 0.04998036
v -0.82525039 0.48474556 0.04852353
v -0.82525039 0.48439211 0.04998036
v -0.80995780 0.49215126 0.04998036
v -0.82525039 0.37369388 0.05545334
v -0.54276657 0.40353543 0.06265876
v -0.54276657 0.40797886 0.07055324
v -0.58864427 0.52261555 0.05169313
v -0.57000560 0.52147102 0.04623984
v -0.55714655 0.52047801 0.04214495
v -0.57000560 0.52421451 0.02999809
v -0.57000560 0.52593130 0.00999614
v -0.55001187 0.52278388 -0.00996644
v -0.54276657 0.52113444 -0.01797903
v -0.54276657 0.52067995 -0.02504665
v -0.54948646 0.52140373 -0.02943684
v -0.54276657 0.51963645 -0.03552011
v -0.70055926 0.52007407 0.06015852
v -0.68999553 0.52066314 0.06143817
v -0.67000180 0.52152157 0.06330843
v -0.71388841 0.51901370 0.05665424
v -0.65000808 0.52190864 0.06415498
v -0.63001442 0.52182448 0.06403685
v -0.61002070 0.52130270 0.06295407
v -0.59442395 0.52061266 0.06143817
v -0.80840921 0.48381984 0.06945077
v -0.78891325 0.49265617 0.06866329
v -0.76997036 0.49587092 0.07451031
v -0.76997036 0.50241822 0.06450934
v -0.82254028 0.48141301 0.06244221
v -0.74928534 0.50452209 0.07092729
v -0.82525039 0.48292780 0.05425243
v -0.82525039 0.37845707 0.06293438
v -0.54276657 0.41725278 0.08240479
v -0.82525039 0.38389352 0.06998231
v -0.58109480 0.51985526 0.05950885
v -0.57000560 0.51908100 0.05624082
v -0.55028844 0.51763356 0.04927163
v -0.54276657 0.51620293 0.04954725
v -0.54381746 0.51931667 0.03448672
v -0.55028844 0.52115124 0.02867907
v -0.54276657 0.52044433 0.02352108
v -0.55001187 0.52261555 0.00999614
v -0.54276657 0.52131957 0.00999614
v -0.54276657 0.52147102 -0.00996644
v -0.72998297 0.50926846 0.06998231
v -0.70833004 0.51413268 0.06809237
v -0.68999553 0.51470494 0.07143915
v -0.67000180 0.51564747 0.07328972
v -0.66726410 0.51571482 0.07342754
v -0.65000808 0.51611876 0.07415595
v -0.63001442 0.51613557 0.07401814
v -0.61002070 0.51573163 0.07295505
v -0.58864427 0.51593363 0.06886016
v -0.57000560 0.51317328 0.06998231
v -0.80069375 0.48033580 0.08027860
v -0.75550741 0.49837875 0.07823116
v -0.82525039 0.48075658 0.06006008
v -0.82525039 0.47776064 0.06521807
v -0.82525039 0.47237468 0.07250225
v -0.81405056 0.47653198 0.07578997
v -0.74217826 0.50051630 0.08047546
v -0.54276657 0.42975831 0.08990552
v -0.82525039 0.39483374 0.08171575
v -0.82525039 0.38414600 0.07027762
v -0.55001187 0.51046348 0.06998231
v -0.54276657 0.50930214 0.06998231
v -0.54276657 0.51918203 0.03397486
v -0.54276657 0.51951861 0.03133681
v -0.72998297 0.50171131 0.08149919
v -0.70998925 0.50339442 0.08273946
v -0.68999553 0.50470728 0.08350726
v -0.66726410 0.50708044 0.08264104
v -0.67000180 0.50563300 0.08399943
v -0.66726410 0.50571710 0.08403881
v -0.65000808 0.50612104 0.08423568
v -0.63001442 0.50613791 0.08429474
v -0.61002070 0.50573397 0.08423568
v -0.59002697 0.50502706 0.08403881
v -0.57000560 0.50406766 0.08368444
v -0.55001187 0.50292313 0.08297571
v -0.54276657 0.50240141 0.08252291
v -0.82525039 0.46360567 0.08179449
v -0.82525039 0.46333638 0.08201105
v -0.80840921 0.46991736 0.08313321
v -0.78996408 0.48235554 0.08167637
v -0.76997036 0.48587325 0.08352695
v -0.74928534 0.49100673 0.08386163
v -0.54276657 0.45000613 0.09614629
v -0.82525039 0.39710596 0.08285759
v -0.72998297 0.48998004 0.08644062
v -0.70998925 0.48998004 0.08797620
v -0.68999553 0.48998004 0.08892117
v -0.67000180 0.48998004 0.08953147
v -0.66726410 0.48999685 0.08959053
v -0.65000808 0.48999685 0.08990552
v -0.63001442 0.48999685 0.09012208
v -0.61002070 0.48999685 0.09027957
v -0.59002697 0.48999685 0.09039769
v -0.57000560 0.48999685 0.09043707
v -0.55001187 0.48999685 0.09018114
v -0.54276657 0.48999685 0.08988584
v -0.82525039 0.45640197 0.08427505
v -0.78996408 0.46998468 0.08636187
v -0.76997036 0.46998468 0.08862587
v -0.82525039 0.43001077 0.08907867
v -0.82525039 0.41477862 0.08789745
v -0.82525039 0.41004908 0.08659811
v -0.54276657 0.46998468 0.09585098
v -0.74997663 0.46998468 0.08968896
v -0.82525039 0.45106649 0.08583032
v -0.80995780 0.44997248 0.08862587
v -0.82525039 0.43475714 0.08899992
v -0.78996408 0.44997248 0.08959053
f 1 2 5
f 1 5 10
f 1 10 18
f 1 18 30
f 1 30 49
f 1 49 69
f 1 69 86
f 1 86 105
f 1 105 128
f 1 128 150
f 1 150 175
f 1 175 196
f 1 196 225
f 1 225 223
f 1 223 222
f 1 222 253
f 1 253 252
f 1 252 250
f 1 250 277
f 1 277 276
f 1 276 247
f 1 247 275
f 1 275 290
f 1 290 310
f 1 310 317
f 1 317 297
f 1 297 271
f 1 271 242
f 1 242 215
f 1 215 214
f 1 214 190
f 1 190 189
f 1 189 165
f 1 165 164
f 1 164 162
f 1 162 140
f 1 140 118
f 1 118 97
f 1 97 78
f 1 78 60
f 1 60 59
f 1 59 40
f 1 40 26
f 1 26 24
f 1 24 14
f 1 14 7
f 1 7 3
f 1 3 4
f 1 4 2
f 2 4 6
f 2 6 5
f 3 7 8
f 3 8 4
f 4 8 15
f 4 15 25
f 4 25 39
f 4 39 58
f 4 58 77
f 4 77 96
f 4 96 117
f 4 117 119
f 4 119 141
f 4 141 163
f 4 163 188
f 4 188 213
f 4 213 241
f 4 241 243
f 4 243 273
f 4 273 272
f 4 272 298
f 4 298 316
f 4 316 315
f 4 315 314
f 4 314 321
f 4 321 319
f 4 319 311
f 4 311 292
f 4 292 291
f 4 291 268
f 4 268 267
f 4 267 266
f 4 266 240
f 4 240 211
f 4 211 210
f 4 210 191
f 4 191 166
f 4 166 142
f 4 142 120
f 4 120 98
f 4 98 79
f 4 79 61
f 4 61 41
f 4 41 27
f 4 27 16
f 4 16 9
f 4 9 6
f 5 6 11
f 5 11 10
f 6 9 12
f 6 12 13
f 6 13 11
f 7 14 15
f 7 15 8
f 9 16 17
f 9 17 12
f 10 11 19
f 10 19 18
f 11 13 19
f 12 20 21
f 12 21 22
f 12 22 13
f 12 17 20
f 13 22 23
f 13 23 19
f 14 24 15
f 15 24 26
f 15 26 25
f 16 27 28
f 16 28 29
f 16 29 17
f 17 29 20
f 18 19 31
f 18 31 32
f 18 32 30
f 19 23 33
f 19 33 31
f 20 29 34
f 20 34 35
f 20 35 21
f 21 35 36
f 21 36 22
f 22 36 37
f 22 37 38
f 22 38 23
f 23 38 33
f 25 26 40
f 25 40 39
f 27 41 28
f 28 41 42
f 28 42 43
f 28 43 29
f 29 43 44
f 29 44 45
f 29 45 34
f 30 32 46
f 30 46 47
f 30 47 48
f 30 48 49
f 31 33 50
f 31 50 51
f 31 51 52
f 31 52 32
f 32 52 46
f 33 38 50
f 34 53 35
f 34 45 54
f 34 54 53
f 35 53 55
f 35 55 56
f 35 56 57
f 35 57 37
f 35 37 36
f 37 57 38
f 38 57 50
f 39 40 59
f 39 59 60
f 39 60 58
f 41 61 42
f 42 61 62
f 42 62 63
f 42 63 64
f 42 64 43
f 43 64 44
f 44 64 45
f 45 64 54
f 46 52 47
f 47 65 66
f 47 66 48
f 47 52 65
f 48 67 49
f 48 66 67
f 49 67 68
f 49 68 69
f 50 70 71
f 50 71 51
f 50 57 72
f 50 72 70
f 51 71 52
f 52 73 65
f 52 71 73
f 53 74 55
f 53 54 74
f 54 64 75
f 54 75 74
f 55 74 76
f 55 76 56
f 56 76 57
f 57 76 72
f 58 60 77
f 60 78 77
f 61 79 62
f 62 80 63
f 62 79 80
f 63 80 81
f 63 81 64
f 64 81 82
f 64 82 75
f 65 83 84
f 65 84 68
f 65 68 67
f 65 67 66
f 65 73 83
f 68 85 69
f 68 84 85
f 69 85 86
f 70 72 87
f 70 87 88
f 70 88 89
f 70 89 71
f 71 89 73
f 72 76 90
f 72 90 87
f 73 88 83
f 73 89 88
f 74 75 91
f 74 91 92
f 74 92 93
f 74 93 76
f 75 94 91
f 75 82 95
f 75 95 94
f 76 93 90
f 77 78 96
f 78 97 96
f 79 98 80
f 80 99 100
f 80 100 95
f 80 95 82
f 80 82 81
f 80 98 101
f 80 101 99
f 83 102 103
f 83 103 84
f 83 88 102
f 84 103 104
f 84 104 85
f 85 104 86
f 86 104 105
f 87 90 106
f 87 106 107
f 87 107 108
f 87 108 88
f 88 108 109
f 88 109 102
f 90 93 110
f 90 110 106
f 91 94 92
f 92 110 93
f 92 94 111
f 92 111 110
f 94 95 112
f 94 112 113
f 94 113 111
f 95 114 115
f 95 115 116
f 95 116 113
f 95 113 112
f 95 100 114
f 96 97 117
f 97 118 119
f 97 119 117
f 98 120 121
f 98 121 101
f 99 122 114
f 99 114 100
f 99 101 121
f 99 121 122
f 102 123 124
f 102 124 103
f 102 109 123
f 103 124 125
f 103 125 104
f 104 125 126
f 104 126 105
f 105 126 127
f 105 127 128
f 106 129 107
f 106 110 130
f 106 130 129
f 107 129 131
f 107 131 134
f 107 134 132
f 107 132 108
f 108 132 109
f 109 133 123
f 109 132 134
f 109 134 133
f 110 111 135
f 110 135 130
f 111 113 135
f 113 116 136
f 113 136 135
f 114 137 115
f 114 122 137
f 115 138 116
f 115 137 138
f 116 139 157
f 116 157 136
f 116 138 139
f 118 140 141
f 118 141 119
f 120 142 143
f 120 143 121
f 121 144 122
f 121 143 144
f 122 144 137
f 123 145 146
f 123 146 124
f 123 133 145
f 124 146 147
f 124 147 148
f 124 148 125
f 125 148 126
f 126 148 127
f 127 148 149
f 127 149 128
f 128 149 150
f 129 151 131
f 129 130 152
f 129 152 151
f 130 135 153
f 130 153 152
f 131 151 154
f 131 154 134
f 133 155 156
f 133 156 145
f 133 134 154
f 133 154 155
f 135 136 157
f 135 157 153
f 137 158 138
f 137 144 159
f 137 159 160
f 137 160 158
f 138 158 139
f 139 161 157
f 139 158 161
f 140 162 141
f 141 162 164
f 141 164 165
f 141 165 163
f 142 166 143
f 143 166 167
f 143 167 159
f 143 159 144
f 145 156 168
f 145 168 169
f 145 169 146
f 146 169 170
f 146 170 171
f 146 171 147
f 147 171 172
f 147 172 149
f 147 149 148
f 149 173 174
f 149 174 175
f 149 175 150
f 149 172 173
f 151 176 177
f 151 177 154
f 151 152 176
f 152 178 176
f 152 153 178
f 153 179 178
f 153 157 161
f 153 161 179
f 154 177 180
f 154 180 181
f 154 181 155
f 155 181 182
f 155 182 156
f 156 182 183
f 156 183 168
f 158 184 185
f 158 185 186
f 158 186 161
f 158 160 187
f 158 187 184
f 159 187 160
f 159 167 187
f 161 185 179
f 161 186 185
f 163 165 189
f 163 189 190
f 163 190 188
f 166 191 167
f 167 191 187
f 168 183 192
f 168 192 193
f 168 193 170
f 168 170 169
f 170 193 220
f 170 220 194
f 170 194 195
f 170 195 171
f 171 195 172
f 172 195 173
f 173 195 196
f 173 196 175
f 173 175 174
f 176 197 198
f 176 198 177
f 176 178 197
f 177 198 201
f 177 201 180
f 178 179 199
f 178 199 200
f 178 200 197
f 179 185 199
f 180 201 202
f 180 202 181
f 181 202 203
f 181 203 182
f 182 203 204
f 182 204 183
f 183 204 192
f 184 187 205
f 184 205 206
f 184 206 207
f 184 207 185
f 185 207 208
f 185 208 199
f 187 209 205
f 187 191 210
f 187 210 211
f 187 211 212
f 187 212 209
f 188 190 214
f 188 214 215
f 188 215 213
f 192 204 216
f 192 216 217
f 192 217 218
f 192 218 219
f 192 219 193
f 193 219 220
f 194 220 221
f 194 221 222
f 194 222 223
f 194 223 195
f 195 223 224
f 195 224 225
f 195 225 196
f 197 200 226
f 197 226 227
f 197 227 198
f 198 227 228
f 198 228 201
f 199 229 200
f 199 208 229
f 200 229 226
f 201 228 202
f 202 230 231
f 202 231 203
f 202 228 230
f 203 231 232
f 203 232 204
f 204 232 233
f 204 233 216
f 205 209 206
f 206 234 235
f 206 235 236
f 206 236 237
f 206 237 207
f 206 209 238
f 206 238 234
f 207 239 229
f 207 229 208
f 207 237 239
f 209 212 238
f 211 240 212
f 212 240 238
f 213 215 241
f 215 242 243
f 215 243 241
f 216 244 217
f 216 233 244
f 217 245 218
f 217 244 245
f 218 245 246
f 218 246 247
f 218 247 248
f 218 248 219
f 219 248 249
f 219 249 250
f 219 250 220
f 220 251 221
f 220 250 251
f 221 251 252
f 221 252 253
f 221 253 222
f 223 225 224
f 226 229 254
f 226 254 255
f 226 255 256
f 226 256 227
f 227 256 257
f 227 257 228
f 228 257 258
f 228 258 259
f 228 259 230
f 229 239 254
f 230 259 260
f 230 260 231
f 231 260 261
f 231 261 232
f 232 261 262
f 232 262 233
f 233 262 263
f 233 263 244
f 234 264 235
f 234 238 264
f 235 264 236
f 236 265 237
f 236 264 265
f 237 265 239
f 238 240 266
f 238 266 267
f 238 267 268
f 238 268 269
f 238 269 264
f 239 265 270
f 239 270 254
f 242 271 272
f 242 272 273
f 242 273 243
f 244 263 274
f 244 274 275
f 244 275 245
f 245 275 247
f 245 247 246
f 247 276 248
f 248 276 277
f 248 277 249
f 249 277 250
f 250 252 251
f 254 270 255
f 255 270 278
f 255 278 256
f 256 278 279
f 256 279 257
f 257 279 280
f 257 280 258
f 258 281 259
f 258 280 282
f 258 282 281
f 259 281 283
f 259 283 284
f 259 284 285
f 259 285 260
f 260 285 286
f 260 286 287
f 260 287 288
f 260 288 261
f 261 288 289
f 261 289 262
f 262 289 290
f 262 290 263
f 263 290 274
f 264 269 291
f 264 291 292
f 264 292 293
f 264 293 294
f 264 294 270
f 264 270 265
f 268 291 269
f 270 294 295
f 270 295 296
f 270 296 278
f 271 297 298
f 271 298 272
f 274 290 275
f 278 296 299
f 278 299 279
f 279 300 280
f 279 299 300
f 280 300 301
f 280 301 282
f 281 282 283
f 282 301 302
f 282 302 283
f 283 302 303
f 283 303 284
f 284 303 304
f 284 304 305
f 284 305 306
f 284 306 307
f 284 307 285
f 285 307 308
f 285 308 286
f 286 308 309
f 286 309 287
f 287 309 310
f 287 310 288
f 288 310 289
f 289 310 290
f 292 311 293
f 293 312 294
f 293 311 312
f 294 312 295
f 295 313 299
f 295 299 296
f 295 312 313
f 297 314 315
f 297 315 316
f 297 316 298
f 297 317 314
f 299 313 300
f 300 313 318
f 300 318 301
f 301 318 302
f 302 318 317
f 302 317 303
f 303 317 304
f 304 317 305
f 305 317 306
f 306 317 307
f 307 317 308
f 308 317 309
f 309 317 310
f 311 319 312
f 312 319 320
f 312 320 313
f 313 320 318
f 314 317 321
f 317 318 322
f 317 322 321
f 318 320 322
f 319 321 320
f 320 321 322
