v 0.58350050 -0.48576379 0.38956630
v 0.58350050 -0.33049852 0.47168559
v 0.58350050 -0.48576379 0.57828075
v 0.19246407 -0.48576379 0.47615221
v 0.19246407 -0.33049852 0.54662210
v 0.58350050 -0.33049852 0.63450575
v 0.58350050 -0.48299772 0.58009154
v 0.58254355 -0.48200983 0.58123833
v 0.58001733 -0.48576379 0.58000100
v 0.19246407 -0.48576379 0.64177907
v 0.19246407 -0.33049852 0.69115329
v 0.57561547 -0.33049852 0.63809711
v 0.58350050 -0.33671460 0.63332874
v 0.58350050 -0.48158428 0.58096671
v 0.56972080 -0.46951687 0.59433639
v 0.55483115 -0.47585452 0.59768635
v 0.54147249 -0.48106754 0.60064399
v 0.57504129 -0.48576379 0.58238518
v 0.58350050 -0.48030761 0.58169103
v 0.58350050 -0.46968403 0.58760631
v 0.20478921 -0.48576379 0.64328808
v 0.19246407 -0.48445675 0.64253354
v 0.19246407 -0.35002828 0.68774295
v 0.21003315 -0.33049852 0.69329602
v 0.56562519 -0.33049852 0.64238268
v 0.56244820 -0.34533200 0.64102459
v 0.56945288 -0.35119852 0.63679940
v 0.58350050 -0.35039303 0.63064271
v 0.57626617 -0.45644638 0.59822959
v 0.56290758 -0.46251047 0.60133809
v 0.54889822 -0.46951687 0.60375249
v 0.53756827 -0.48576379 0.59925568
v 0.54606569 -0.48576379 0.59560394
v 0.52826697 -0.46819460 0.61289698
v 0.50997066 -0.47398514 0.61676002
v 0.52995116 -0.48479110 0.60293764
v 0.52995116 -0.48576379 0.60233402
v 0.58350050 -0.45290518 0.59644896
v 0.21068385 -0.48576379 0.64395201
v 0.21003315 -0.46998802 0.65207040
v 0.19246407 -0.46998802 0.64998800
v 0.19246407 -0.37144259 0.68327630
v 0.21003315 -0.37001395 0.68575108
v 0.21003315 -0.35002828 0.68988574
v 0.23005193 -0.33049852 0.69522750
v 0.55000824 -0.33049852 0.64875060
v 0.55927122 -0.35867608 0.63969666
v 0.55157757 -0.35119852 0.64428401
v 0.58350050 -0.35648751 0.62925446
v 0.56995046 -0.37001395 0.63230258
v 0.56972080 -0.44985032 0.60438627
v 0.58304119 -0.44308710 0.60145885
v 0.54897475 -0.44889283 0.61407399
v 0.53381711 -0.45483536 0.61757487
v 0.52045852 -0.46036753 0.62017030
v 0.50997066 -0.46398470 0.62204146
v 0.49714789 -0.47828627 0.61905366
v 0.52704215 -0.48576379 0.60345072
v 0.52910906 -0.48576379 0.60266602
v 0.58350050 -0.44355828 0.60100615
v 0.23005193 -0.48576379 0.64564210
v 0.23005193 -0.46998802 0.65394151
v 0.23005193 -0.45861971 0.65940410
v 0.21003315 -0.45643118 0.65846848
v 0.19246407 -0.46830100 0.65077263
v 0.19246407 -0.38013598 0.68131465
v 0.19399513 -0.38325164 0.68080157
v 0.21003315 -0.38692960 0.68176734
v 0.23005193 -0.37001395 0.68768257
v 0.23005193 -0.35002828 0.69181722
v 0.24953486 -0.33049852 0.69664598
v 0.54947233 -0.33049852 0.64896184
v 0.55594116 -0.37001395 0.63833857
v 0.54595089 -0.37001395 0.64235246
v 0.52995116 -0.35002828 0.65270418
v 0.58350050 -0.36928445 0.62632698
v 0.57178777 -0.39171705 0.62557250
v 0.58350050 -0.38732475 0.62161893
v 0.55494595 -0.43471289 0.61784649
v 0.54166389 -0.44152170 0.62068337
v 0.58350050 -0.44285914 0.60133809
v 0.58350050 -0.44219041 0.60163993
v 0.52826697 -0.44889283 0.62243378
v 0.50997066 -0.44997191 0.62865084
v 0.48995185 -0.44936401 0.63568276
v 0.49029633 -0.47097591 0.62502927
v 0.48382753 -0.48205543 0.62119645
v 0.49247813 -0.48576379 0.61606586
v 0.51039171 -0.48576379 0.60963756
v 0.24995591 -0.48576379 0.64687943
v 0.24942003 -0.46825540 0.65605414
v 0.24233882 -0.45971400 0.65985680
v 0.23005193 -0.44863448 0.66356891
v 0.21003315 -0.44643074 0.66260314
v 0.19246407 -0.44387743 0.66157705
v 0.19246407 -0.45386267 0.65741223
v 0.19246407 -0.38506022 0.68013763
v 0.21003315 -0.39693004 0.67917186
v 0.22209035 -0.39934656 0.67980564
v 0.22924812 -0.39161065 0.68240112
v 0.25003248 -0.39003006 0.68427229
v 0.25003248 -0.37001395 0.68910104
v 0.25003248 -0.35002828 0.69323564
v 0.25003248 -0.33049852 0.69667614
v 0.52891767 -0.33049852 0.65665770
v 0.54193181 -0.38281089 0.64078313
v 0.54916614 -0.38968047 0.63583362
v 0.52995116 -0.37001395 0.64835829
v 0.51823843 -0.33657783 0.65940410
v 0.51444900 -0.35002828 0.65813655
v 0.57963455 -0.39952895 0.61980814
v 0.58350050 -0.39671728 0.61884242
v 0.56868732 -0.42881596 0.61410415
v 0.56118512 -0.42138404 0.62053245
v 0.54897475 -0.42881596 0.62270540
v 0.52995116 -0.42998624 0.62976748
v 0.51054478 -0.43033579 0.63673902
v 0.58350050 -0.42925671 0.60701191
v 0.49653548 -0.43722060 0.63888180
v 0.48321512 -0.44225121 0.64096421
v 0.46997133 -0.45652238 0.63842911
v 0.46997133 -0.46998802 0.63160849
v 0.47999984 -0.48576379 0.62004960
v 0.48719591 -0.48576379 0.61781627
v 0.46997133 -0.48541424 0.62318832
v 0.46997133 -0.48576379 0.62297702
v 0.25363049 -0.48576379 0.64706051
v 0.27001297 -0.47093031 0.65554106
v 0.25565916 -0.46044350 0.66018873
v 0.24942003 -0.45181090 0.66347837
v 0.25003248 -0.42998624 0.67201924
v 0.23005193 -0.42998624 0.67066115
v 0.21003315 -0.42998624 0.66875982
v 0.19246407 -0.44185606 0.66233152
v 0.19246407 -0.39126110 0.67847776
v 0.21003315 -0.40997013 0.67533904
v 0.19246407 -0.40997013 0.67319626
v 0.22924812 -0.40875429 0.67754215
v 0.23541071 -0.40127674 0.68034887
v 0.25003248 -0.40285736 0.68083179
v 0.27001297 -0.39003006 0.68514746
v 0.27001297 -0.37001395 0.68997622
v 0.27001297 -0.35002828 0.69411087
v 0.27001297 -0.33049852 0.69755137
v 0.51973122 -0.33049852 0.65988696
v 0.53018081 -0.38968047 0.64316732
v 0.53699410 -0.39613974 0.63885164
v 0.54996997 -0.40997013 0.62913370
v 0.56562519 -0.40997013 0.62249416
v 0.50101388 -0.36147255 0.66030949
v 0.50859267 -0.36887407 0.65602392
v 0.50997066 -0.39003006 0.65019923
v 0.51154000 -0.33049852 0.66260314
v 0.51035339 -0.33049852 0.66299546
v 0.50445879 -0.35002828 0.66142613
v 0.57565373 -0.40997013 0.61799735
v 0.58350050 -0.40997013 0.61431545
v 0.58350050 -0.41571507 0.61214250
v 0.53018081 -0.41047168 0.63676924
v 0.51758772 -0.41747808 0.63912326
v 0.50422913 -0.42387652 0.64144707
v 0.48995185 -0.43033579 0.64352947
v 0.46997133 -0.42998624 0.64938438
v 0.46997133 -0.44650671 0.64283538
v 0.45956001 -0.45975959 0.63984758
v 0.45175153 -0.46977523 0.63658816
v 0.46874645 -0.48576379 0.62330902
v 0.27001297 -0.48576379 0.64763397
v 0.27001297 -0.46094507 0.66043019
v 0.27426171 -0.48576379 0.64769429
v 0.29003179 -0.47114307 0.65566176
v 0.27001297 -0.44997191 0.66504771
v 0.27001297 -0.42998624 0.67280394
v 0.27001297 -0.41419524 0.67817593
v 0.25003248 -0.41281220 0.67775345
v 0.19246407 -0.42752412 0.66746211
v 0.19246407 -0.42998624 0.66664726
v 0.27001297 -0.40422520 0.68125427
v 0.29003179 -0.39003006 0.68541908
v 0.29003179 -0.37001395 0.69027805
v 0.29003179 -0.35002828 0.69444287
v 0.29003179 -0.33049852 0.69788337
v 0.52363551 -0.40414920 0.64132637
v 0.48999012 -0.35002828 0.66586256
v 0.48953080 -0.36887407 0.66199952
v 0.49584648 -0.37478620 0.65874010
v 0.51054478 -0.41047168 0.64383131
v 0.48953080 -0.38971087 0.65677845
v 0.48999012 -0.40997013 0.65062177
v 0.48999012 -0.33049852 0.66933322
v 0.46966511 -0.40939260 0.65662754
v 0.45416299 -0.41565427 0.65858924
v 0.44849801 -0.42829922 0.65548068
v 0.45175153 -0.45184129 0.64518940
v 0.44623965 -0.46298161 0.64147729
v 0.45025873 -0.48576379 0.62798691
v 0.42997199 -0.47647765 0.63812733
v 0.29003179 -0.46115783 0.66052073
v 0.29003179 -0.44997191 0.66525894
v 0.29003179 -0.48576379 0.64784521
v 0.31001231 -0.48576379 0.64748305
v 0.31001231 -0.47079352 0.65545052
v 0.31001231 -0.46079308 0.66036981
v 0.29003179 -0.42998624 0.67304540
v 0.29003179 -0.41463602 0.67832685
v 0.29003179 -0.40465075 0.68137503
v 0.31001231 -0.40411881 0.68122411
v 0.31001231 -0.39003006 0.68511730
v 0.31001231 -0.37001395 0.68997622
v 0.31001231 -0.35002828 0.69411087
v 0.31001231 -0.33049852 0.69755137
v 0.46997133 -0.33049852 0.67494667
v 0.46997133 -0.35002828 0.67144585
v 0.46997133 -0.37001395 0.66722065
v 0.48256439 -0.38284126 0.66073197
v 0.47609562 -0.39618534 0.65892118
v 0.46277526 -0.40237102 0.66073197
v 0.44849801 -0.40939260 0.66190898
v 0.44080436 -0.42051771 0.66015857
v 0.42997199 -0.43346661 0.65756309
v 0.42997199 -0.44997191 0.65083301
v 0.42997199 -0.46649241 0.64322770
v 0.42997199 -0.48576379 0.63272512
v 0.41714925 -0.47898537 0.63945520
v 0.31001231 -0.44997191 0.66492701
v 0.32995456 -0.48576379 0.64651728
v 0.32949522 -0.46816421 0.65581268
v 0.32249057 -0.46030673 0.66012841
v 0.31001231 -0.42998624 0.67271340
v 0.31001231 -0.41410407 0.67814577
v 0.32999283 -0.40269017 0.68080157
v 0.32999283 -0.39003006 0.68421191
v 0.32999283 -0.37001395 0.68910104
v 0.32999283 -0.35002828 0.69326586
v 0.32953352 -0.33049852 0.69673651
v 0.45439264 -0.33049852 0.67887008
v 0.44857454 -0.34872121 0.67699891
v 0.44999081 -0.37001395 0.67220032
v 0.44999081 -0.39003006 0.66722065
v 0.46966511 -0.38971087 0.66239190
v 0.42997199 -0.40997013 0.66565132
v 0.42997199 -0.42346618 0.66121489
v 0.41466126 -0.43743336 0.65901172
v 0.40880489 -0.44833052 0.65557122
v 0.41029769 -0.47138625 0.64455563
v 0.41240293 -0.48576379 0.63634670
v 0.40382889 -0.48121953 0.64069259
v 0.40773314 -0.48576379 0.63725209
v 0.32949522 -0.45164374 0.66335762
v 0.32999283 -0.42998624 0.67180800
v 0.33316982 -0.48576379 0.64630604
v 0.35001165 -0.46998802 0.65336812
v 0.33584920 -0.45941004 0.65973604
v 0.32999283 -0.41267544 0.67769307
v 0.34430838 -0.40117034 0.68031871
v 0.35058579 -0.39156505 0.68240112
v 0.35001165 -0.37001395 0.68774295
v 0.32999283 -0.33049852 0.69670635
v 0.35001165 -0.35002828 0.69187760
v 0.44482341 -0.33049852 0.68107319
v 0.44099572 -0.34121329 0.68019795
v 0.43456522 -0.35454214 0.67890024
v 0.42874715 -0.36864612 0.67699891
v 0.42997199 -0.39003006 0.67144585
v 0.40999147 -0.39003006 0.67515796
v 0.40999147 -0.40997013 0.66933322
v 0.40880489 -0.43045738 0.66260314
v 0.40134090 -0.44056422 0.66018873
v 0.40015432 -0.45027590 0.65614468
v 0.38997269 -0.45257083 0.65680861
v 0.38997269 -0.46998802 0.64862990
v 0.40011606 -0.48172104 0.64099437
v 0.38997269 -0.48576379 0.64027005
v 0.40015432 -0.48438075 0.63942504
v 0.40015432 -0.48576379 0.63858002
v 0.35001165 -0.44807214 0.66335762
v 0.35001165 -0.42998624 0.67038953
v 0.35001165 -0.48576379 0.64506865
v 0.35001165 -0.45807257 0.65916264
v 0.37003043 -0.48576379 0.64304662
v 0.37003043 -0.46998802 0.65128571
v 0.35058579 -0.40869349 0.67745161
v 0.35762873 -0.39925537 0.67977548
v 0.37003043 -0.38676241 0.68176734
v 0.37003043 -0.37001395 0.68578124
v 0.37003043 -0.35002828 0.68994606
v 0.35001165 -0.33049852 0.69531810
v 0.42997199 -0.33049852 0.68409121
v 0.42951268 -0.33049852 0.68418169
v 0.42874715 -0.34872121 0.68113357
v 0.42124486 -0.36107740 0.68019795
v 0.40999147 -0.37534854 0.67887008
v 0.40015432 -0.40997013 0.67093277
v 0.40015432 -0.37899610 0.67974532
v 0.39900601 -0.37942168 0.67983580
v 0.39138892 -0.38987806 0.67817593
v 0.38997269 -0.40997013 0.67256248
v 0.38997269 -0.42998624 0.66577202
v 0.38997269 -0.44257039 0.66106397
v 0.37003043 -0.45567125 0.65813655
v 0.38997269 -0.48314971 0.64177907
v 0.39854670 -0.48576379 0.63885164
v 0.37003043 -0.44567081 0.66236168
v 0.37003043 -0.42998624 0.66836751
v 0.37003043 -0.40997013 0.67512774
v 0.37003043 -0.39677808 0.67911148
v 0.38572395 -0.38311484 0.68080157
v 0.39138892 -0.37167057 0.68270290
v 0.38997269 -0.35002828 0.68744111
v 0.37003043 -0.33049852 0.69338655
v 0.40999147 -0.33049852 0.68774295
v 0.40949386 -0.33049852 0.68783349
v 0.40999147 -0.35002828 0.68430245
v 0.40999147 -0.36536330 0.68119395
v 0.40011606 -0.37797785 0.67998672
v 0.38997269 -0.33049852 0.69088161
f 1 2 6
f 1 6 13
f 1 13 28
f 1 28 49
f 1 49 76
f 1 76 78
f 1 78 112
f 1 112 157
f 1 157 158
f 1 158 118
f 1 118 82
f 1 82 81
f 1 81 60
f 1 60 38
f 1 38 20
f 1 20 19
f 1 19 14
f 1 14 7
f 1 7 3
f 1 3 9
f 1 9 18
f 1 18 33
f 1 33 32
f 1 32 37
f 1 37 59
f 1 59 58
f 1 58 89
f 1 89 88
f 1 88 124
f 1 124 123
f 1 123 126
f 1 126 167
f 1 167 196
f 1 196 223
f 1 223 246
f 1 246 248
f 1 248 275
f 1 275 302
f 1 302 273
f 1 273 280
f 1 280 278
f 1 278 251
f 1 251 226
f 1 226 201
f 1 201 200
f 1 200 170
f 1 170 168
f 1 168 127
f 1 127 90
f 1 90 61
f 1 61 39
f 1 39 21
f 1 21 10
f 1 10 4
f 1 4 5
f 1 5 2
f 2 5 11
f 2 11 24
f 2 24 45
f 2 45 71
f 2 71 104
f 2 104 144
f 2 144 182
f 2 182 211
f 2 211 235
f 2 235 258
f 2 258 287
f 2 287 310
f 2 310 316
f 2 316 312
f 2 312 311
f 2 311 289
f 2 289 288
f 2 288 260
f 2 260 236
f 2 236 212
f 2 212 190
f 2 190 154
f 2 154 153
f 2 153 145
f 2 145 105
f 2 105 72
f 2 72 46
f 2 46 25
f 2 25 12
f 2 12 6
f 3 7 8
f 3 8 9
f 4 10 22
f 4 22 41
f 4 41 65
f 4 65 96
f 4 96 95
f 4 95 134
f 4 134 177
f 4 177 176
f 4 176 137
f 4 137 135
f 4 135 97
f 4 97 66
f 4 66 42
f 4 42 23
f 4 23 11
f 4 11 5
f 6 12 13
f 7 14 8
f 8 15 16
f 8 16 17
f 8 17 18
f 8 18 9
f 8 14 19
f 8 19 20
f 8 20 15
f 10 21 22
f 11 23 44
f 11 44 24
f 12 25 26
f 12 26 27
f 12 27 28
f 12 28 13
f 15 20 29
f 15 29 30
f 15 30 16
f 16 31 17
f 16 30 31
f 17 32 33
f 17 33 18
f 17 31 34
f 17 34 35
f 17 35 36
f 17 36 37
f 17 37 32
f 20 38 29
f 21 39 40
f 21 40 22
f 22 40 41
f 23 42 43
f 23 43 44
f 24 44 70
f 24 70 45
f 25 46 26
f 26 47 27
f 26 46 48
f 26 48 47
f 27 47 28
f 28 47 50
f 28 50 49
f 29 51 30
f 29 38 52
f 29 52 51
f 30 51 53
f 30 53 54
f 30 54 31
f 31 54 34
f 34 55 35
f 34 54 55
f 35 55 56
f 35 56 57
f 35 57 36
f 36 57 58
f 36 58 59
f 36 59 37
f 38 60 52
f 39 61 62
f 39 62 40
f 40 62 63
f 40 63 64
f 40 64 41
f 41 64 65
f 42 66 67
f 42 67 43
f 43 67 68
f 43 68 69
f 43 69 70
f 43 70 44
f 45 70 71
f 46 72 48
f 47 73 50
f 47 48 74
f 47 74 73
f 48 72 75
f 48 75 74
f 49 50 76
f 50 73 77
f 50 77 78
f 50 78 76
f 51 79 80
f 51 80 53
f 51 52 79
f 52 60 81
f 52 81 82
f 52 82 79
f 53 80 54
f 54 80 55
f 55 80 83
f 55 83 84
f 55 84 56
f 56 84 85
f 56 85 86
f 56 86 57
f 57 86 87
f 57 87 88
f 57 88 89
f 57 89 58
f 61 90 62
f 62 90 91
f 62 91 92
f 62 92 63
f 63 92 93
f 63 93 64
f 64 93 94
f 64 94 95
f 64 95 96
f 64 96 65
f 66 97 67
f 67 97 98
f 67 98 68
f 68 98 99
f 68 99 100
f 68 100 69
f 69 101 102
f 69 102 103
f 69 103 70
f 69 100 101
f 70 103 71
f 71 103 104
f 72 105 75
f 73 74 106
f 73 106 107
f 73 107 77
f 74 75 108
f 74 108 106
f 75 105 109
f 75 109 110
f 75 110 108
f 77 111 78
f 77 107 111
f 78 111 112
f 79 82 113
f 79 113 114
f 79 114 115
f 79 115 80
f 80 116 117
f 80 117 84
f 80 84 83
f 80 115 116
f 82 118 113
f 84 117 119
f 84 119 85
f 85 119 120
f 85 120 121
f 85 121 86
f 86 121 122
f 86 122 87
f 87 123 124
f 87 124 88
f 87 122 125
f 87 125 126
f 87 126 123
f 90 127 91
f 91 127 128
f 91 128 129
f 91 129 92
f 92 129 130
f 92 130 93
f 93 130 131
f 93 131 132
f 93 132 94
f 94 132 133
f 94 133 95
f 95 133 134
f 97 135 98
f 98 136 99
f 98 135 137
f 98 137 136
f 99 138 139
f 99 139 100
f 99 136 138
f 100 139 101
f 101 139 140
f 101 140 141
f 101 141 142
f 101 142 102
f 102 142 143
f 102 143 103
f 103 143 144
f 103 144 104
f 105 145 109
f 106 108 146
f 106 146 147
f 106 147 107
f 107 147 148
f 107 148 149
f 107 149 111
f 108 110 150
f 108 150 151
f 108 151 152
f 108 152 146
f 109 145 153
f 109 153 154
f 109 154 155
f 109 155 110
f 110 155 150
f 111 149 156
f 111 156 157
f 111 157 112
f 113 118 114
f 114 118 158
f 114 158 157
f 114 157 156
f 114 156 149
f 114 149 148
f 114 148 115
f 115 148 159
f 115 159 116
f 116 159 160
f 116 160 117
f 117 160 161
f 117 161 119
f 119 161 162
f 119 162 120
f 120 162 163
f 120 163 164
f 120 164 121
f 121 164 165
f 121 165 122
f 122 165 166
f 122 166 125
f 125 166 167
f 125 167 126
f 127 168 128
f 128 169 129
f 128 168 170
f 128 170 171
f 128 171 169
f 129 169 172
f 129 172 130
f 130 172 131
f 131 172 173
f 131 173 174
f 131 174 175
f 131 175 132
f 132 138 136
f 132 136 133
f 132 175 138
f 133 136 176
f 133 176 177
f 133 177 134
f 136 137 176
f 138 175 139
f 139 175 140
f 140 175 174
f 140 174 178
f 140 178 141
f 141 178 179
f 141 179 180
f 141 180 142
f 142 180 181
f 142 181 143
f 143 181 182
f 143 182 144
f 146 152 183
f 146 183 147
f 147 183 159
f 147 159 148
f 150 155 184
f 150 184 185
f 150 185 186
f 150 186 151
f 151 186 152
f 152 187 183
f 152 186 188
f 152 188 189
f 152 189 187
f 154 190 155
f 155 190 184
f 159 183 160
f 160 183 187
f 160 187 161
f 161 189 162
f 161 187 189
f 162 189 163
f 163 189 191
f 163 191 192
f 163 192 193
f 163 193 164
f 164 193 194
f 164 194 165
f 165 194 195
f 165 195 166
f 166 196 167
f 166 195 197
f 166 197 196
f 169 171 198
f 169 198 199
f 169 199 172
f 170 200 171
f 171 200 201
f 171 201 202
f 171 202 203
f 171 203 198
f 172 199 204
f 172 204 173
f 173 204 205
f 173 205 174
f 174 205 178
f 178 205 206
f 178 206 179
f 179 206 207
f 179 207 208
f 179 208 209
f 179 209 180
f 180 209 181
f 181 209 210
f 181 210 211
f 181 211 182
f 184 190 212
f 184 212 213
f 184 213 214
f 184 214 185
f 185 215 186
f 185 214 215
f 186 215 188
f 188 215 216
f 188 216 189
f 189 216 191
f 191 217 192
f 191 216 217
f 192 217 218
f 192 218 219
f 192 219 193
f 193 219 220
f 193 220 194
f 194 220 221
f 194 221 195
f 195 221 222
f 195 222 197
f 196 197 223
f 197 222 224
f 197 224 223
f 198 203 199
f 199 203 225
f 199 225 229
f 199 229 204
f 201 226 202
f 202 226 227
f 202 227 228
f 202 228 203
f 203 228 225
f 204 229 205
f 205 229 230
f 205 230 207
f 205 207 206
f 207 230 231
f 207 231 208
f 208 231 232
f 208 232 233
f 208 233 209
f 209 233 234
f 209 234 210
f 210 234 235
f 210 235 211
f 212 236 213
f 213 236 237
f 213 237 238
f 213 238 214
f 214 238 239
f 214 239 240
f 214 240 215
f 215 240 216
f 216 240 217
f 217 239 218
f 217 240 239
f 218 241 219
f 218 239 241
f 219 241 242
f 219 242 220
f 220 243 221
f 220 242 243
f 221 243 244
f 221 244 222
f 222 244 245
f 222 245 224
f 223 224 246
f 224 245 247
f 224 247 248
f 224 248 246
f 225 228 249
f 225 249 250
f 225 250 229
f 226 251 227
f 227 251 252
f 227 252 253
f 227 253 228
f 228 253 249
f 229 250 230
f 230 250 254
f 230 254 231
f 231 254 255
f 231 255 232
f 232 255 256
f 232 256 257
f 232 257 233
f 233 257 234
f 234 258 235
f 234 257 259
f 234 259 287
f 234 287 258
f 236 260 261
f 236 261 237
f 237 261 262
f 237 262 238
f 238 262 263
f 238 263 264
f 238 264 239
f 239 264 241
f 241 264 265
f 241 265 266
f 241 266 242
f 242 266 267
f 242 267 243
f 243 267 268
f 243 268 244
f 244 268 269
f 244 269 245
f 245 269 270
f 245 270 271
f 245 271 247
f 247 271 272
f 247 272 273
f 247 273 274
f 247 274 248
f 248 274 275
f 249 253 276
f 249 276 250
f 250 276 277
f 250 277 254
f 251 278 252
f 252 279 253
f 252 278 280
f 252 280 281
f 252 281 279
f 253 279 276
f 254 277 282
f 254 282 255
f 255 282 283
f 255 283 256
f 256 283 284
f 256 284 257
f 257 284 285
f 257 285 286
f 257 286 259
f 259 286 310
f 259 310 287
f 260 288 261
f 261 288 289
f 261 289 290
f 261 290 262
f 262 290 291
f 262 291 263
f 263 291 292
f 263 292 264
f 264 292 265
f 265 293 266
f 265 292 294
f 265 294 295
f 265 295 296
f 265 296 297
f 265 297 293
f 266 293 267
f 267 293 297
f 267 297 298
f 267 298 268
f 268 298 299
f 268 299 270
f 268 270 269
f 270 299 300
f 270 300 271
f 271 300 281
f 271 281 301
f 271 301 272
f 272 301 273
f 273 302 274
f 273 301 280
f 274 302 275
f 276 279 303
f 276 303 277
f 277 303 304
f 277 304 305
f 277 305 282
f 279 281 300
f 279 300 303
f 280 301 281
f 282 305 283
f 283 305 306
f 283 306 284
f 284 306 307
f 284 307 285
f 285 307 308
f 285 308 309
f 285 309 286
f 286 309 316
f 286 316 310
f 289 311 290
f 290 311 312
f 290 312 313
f 290 313 291
f 291 313 314
f 291 314 292
f 292 314 294
f 294 314 315
f 294 315 295
f 295 315 308
f 295 308 307
f 295 307 296
f 296 307 306
f 296 306 297
f 297 306 305
f 297 305 304
f 297 304 298
f 298 304 299
f 299 304 303
f 299 303 300
f 308 315 314
f 308 314 309
f 309 314 313
f 309 313 312
f 309 312 316
