v -0.20461519 0.18500544 -0.65044677
v -0.20248796 0.18500544 -0.66862512
v -0.20300972 0.18500544 -0.63162321
v -0.20457506 0.19003263 -0.65002930
v -0.20264851 0.19029044 -0.67063653
v -0.19654775 0.18500544 -0.67807484
v -0.20088249 0.19712228 -0.68171811
v -0.20140427 0.18500544 -0.62604445
v -0.20196618 0.18852878 -0.63200271
v -0.18013191 0.36035568 -0.77970672
v -0.20104304 0.20373926 -0.65002930
v -0.20024031 0.22122702 -0.68236327
v -0.20084235 0.21001251 -0.68304634
v -0.16070583 0.50210536 -0.89777124
v -0.18045300 0.36276186 -0.79002929
v -0.18049313 0.36336339 -0.80190784
v -0.19490215 0.18500544 -0.67913747
v -0.18025231 0.27970573 -0.76023805
v -0.18057340 0.35000050 -0.80171812
v -0.18025231 0.33943051 -0.80042779
v -0.19999950 0.20004405 -0.64001030
v -0.19690898 0.18500544 -0.62228739
v -0.14308590 0.58529037 -0.95557010
v -0.16154869 0.48341450 -0.87689841
v -0.14212261 0.60527021 -0.97507679
v -0.14067771 0.62103927 -0.99636710
v -0.14067771 0.62103927 -1.00092113
v -0.16054529 0.50193346 -0.90999138
v -0.15998337 0.50047255 -0.92001033
v -0.18655375 0.18500544 -0.68346381
v -0.16014391 0.29998639 -0.78004825
v -0.16997737 0.25534320 -0.74369156
v -0.17788427 0.20051670 -0.69963080
v -0.16150856 0.43769711 -0.88160425
v -0.16078611 0.37943321 -0.84042782
v -0.15998337 0.49991399 -0.92001033
v -0.18996535 0.18500544 -0.62004828
v -0.12402104 0.62121117 -0.97887182
v -0.13040274 0.61115676 -0.97249609
v -0.14344712 0.56427926 -0.93640506
v -0.13734637 0.61859012 -0.98304641
v -0.13040274 0.62361735 -0.98980165
v -0.12996125 0.62361735 -1.00327408
v -0.13056329 0.60956699 -1.00316024
v -0.14067771 0.61596912 -1.00092113
v -0.17041887 0.18500544 -0.68900466
v -0.14998938 0.33242682 -0.80589271
v -0.14998938 0.29942781 -0.78046572
v -0.14998938 0.18500544 -0.69200271
v -0.16455893 0.19892691 -0.70084524
v -0.14998938 0.37844497 -0.84118682
v -0.14998938 0.36843356 -0.83352077
v -0.15817723 0.46124327 -0.89917541
v -0.14019607 0.53974485 -0.96012419
v -0.15091252 0.45101702 -0.89424181
v -0.14998938 0.43533391 -0.88338792
v -0.14998938 0.42532247 -0.87613940
v -0.14998938 0.41165882 -0.86612040
v -0.14998938 0.40173334 -0.85875797
v -0.14998938 0.39000323 -0.84995341
v -0.14184166 0.57669687 -0.98205972
v -0.18559048 0.18500544 -0.61925131
v -0.11840193 0.62121117 -0.97887182
v 0.13084592 0.62387514 -0.98900467
v -0.11555223 0.62374622 -0.98999137
v -0.16997737 0.18500544 -0.61701220
v -0.16785014 0.18500544 -0.61693633
v -0.14998938 0.18500544 -0.61640501
v -0.12996125 0.18500544 -0.61617732
v -0.10997326 0.18500544 -0.61606348
v -0.08998527 0.18500544 -0.61602551
v 0.13112687 0.18500544 -0.61587369
v -0.11563250 0.62378919 -1.00342596
v -0.11559237 0.60999668 -1.00327408
v -0.04158061 0.59826654 -1.00111091
v -0.12426186 0.59856731 -1.00092113
v -0.13758719 0.60264921 -0.99883389
v -0.16279292 0.18500544 -0.69014317
v -0.12996125 0.37758562 -0.84186989
v -0.12996125 0.33169636 -0.80649990
v -0.12996125 0.18500544 -0.69321716
v -0.14601585 0.18500544 -0.69230634
v -0.12996125 0.40070212 -0.85947901
v -0.12996125 0.39000323 -0.85135758
v -0.12996125 0.54997110 -0.96763843
v -0.12996125 0.53935814 -0.96038985
v -0.12996125 0.52934670 -0.95340693
v -0.12996125 0.51508152 -0.94342589
v -0.12996125 0.50507009 -0.93640506
v -0.12996125 0.49106270 -0.92638606
v -0.12996125 0.48105127 -0.91921335
v -0.14485189 0.45836446 -0.90114886
v -0.12996125 0.45737621 -0.90190786
v -0.12996125 0.44736478 -0.89450747
v -0.12996125 0.43400192 -0.88448852
v 0.12474516 0.62116820 -0.97887182
v 0.14100046 0.62146896 -1.00133860
v 0.12996291 0.62396109 -1.00357771
v 0.13807049 0.61914873 -0.98168015
v 0.14100046 0.62146896 -0.99500084
v 0.15119514 0.18500544 -0.61598754
v 0.13104659 0.60870761 -1.00335002
v 0.04158228 0.59826654 -1.00111091
v -0.04129966 0.53918624 -0.96054167
v 0.12996291 0.37758562 -0.84186989
v -0.04996915 0.18500544 -0.69446951
v -0.12691087 0.18500544 -0.69333100
v 0.12996291 0.41062760 -0.86699325
v 0.12996291 0.40070212 -0.85947901
v 0.12996291 0.43391597 -0.88456440
v 0.12996291 0.39000323 -0.85135758
v 0.12996291 0.49101973 -0.92638606
v -0.03728600 0.53918624 -0.96054167
v 0.12996291 0.48100832 -0.91921335
v 0.12996291 0.46996567 -0.91120577
v 0.12996291 0.45729026 -0.90198380
v -0.12996125 0.46996567 -0.91112989
v 0.12996291 0.44727886 -0.89454544
v 0.13084592 0.61150050 -0.97230637
v 0.16997904 0.18500544 -0.61644292
v 0.18996702 0.18500544 -0.61932719
v 0.15998504 0.52006572 -0.92008626
v 0.16026600 0.50996840 -0.92046577
v 0.16034627 0.49896872 -0.92054164
v 0.14100046 0.61450821 -1.00133860
v 0.16179118 0.48367229 -0.87674659
v 0.14248551 0.60582882 -0.97469723
v 0.20156647 0.18500544 -0.62555110
v 0.15998504 0.52006572 -0.91989648
v 0.13843171 0.60118830 -0.99944109
v 0.12510639 0.59869623 -1.00084531
v 0.12996291 0.53944409 -0.96035188
v 0.04118091 0.53927219 -0.96046579
v 0.14999104 0.37823012 -0.84133863
v 0.12996291 0.35455507 -0.82418489
v 0.04997081 0.18500544 -0.69439363
v -0.04788205 0.18500544 -0.69446951
v 0.14999104 0.39000323 -0.85029495
v 0.14999104 0.41140103 -0.86634809
v 0.14999104 0.40147555 -0.85890979
v 0.12996291 0.50515604 -0.93636709
v 0.14023787 0.53974485 -0.96012419
v 0.14581685 0.45827854 -0.90122473
v 0.18061522 0.36439461 -0.80266690
v 0.20541959 0.18500544 -0.64501977
v 0.20024197 0.22135592 -0.68228734
v 0.15918231 0.46046987 -0.89966881
v 0.14216441 0.57643902 -0.98228741
v 0.18073562 0.35000050 -0.80240124
v 0.18033426 0.33921570 -0.80057961
v 0.16094831 0.50279284 -0.89727789
v 0.20012157 0.20021592 -0.63978261
v 0.20244949 0.18500544 -0.62801790
v 0.18021384 0.36052755 -0.77955490
v 0.13104659 0.59121984 -0.99481112
v 0.16106872 0.37921840 -0.84057957
v 0.15986462 0.30002934 -0.78001034
v 0.14999104 0.35524255 -0.82365358
v 0.12996291 0.33161044 -0.80653787
v 0.05213818 0.18500544 -0.69435567
v 0.14999104 0.43499017 -0.88365358
v 0.15147609 0.45097405 -0.89473522
v 0.20080389 0.21001251 -0.68293250
v 0.20325221 0.18500544 -0.63150936
v 0.20313181 0.18500544 -0.66596854
v 0.20261003 0.19041935 -0.67056060
v 0.16183132 0.43731040 -0.88186991
v 0.20084402 0.19733711 -0.68164217
v 0.18025398 0.27970573 -0.76023805
v 0.20216852 0.18870065 -0.63188887
v 0.16997904 0.26836234 -0.75367254
v 0.16997904 0.25534320 -0.74365360
v 0.16395855 0.19914174 -0.70069343
v 0.14999104 0.18500544 -0.69147140
v 0.14653930 0.29929891 -0.78057957
v 0.14999104 0.33238384 -0.80596858
v 0.14999104 0.34527409 -0.81594962
v 0.12996291 0.18500544 -0.69272381
v 0.20244949 0.18500544 -0.66851127
v 0.19691063 0.18500544 -0.67644298
v 0.19478340 0.18500544 -0.67883384
v 0.18222067 0.25753453 -0.74194580
v 0.18623433 0.18500544 -0.68327409
v 0.17728388 0.20064560 -0.69955492
v 0.16997904 0.24533176 -0.73583573
v 0.17017971 0.18500544 -0.68862510
v 0.17656142 0.18500544 -0.68714505
f 1 2 6
f 1 6 17
f 1 17 30
f 1 30 46
f 1 46 78
f 1 78 49
f 1 49 82
f 1 82 81
f 1 81 107
f 1 107 106
f 1 106 137
f 1 137 136
f 1 136 160
f 1 160 178
f 1 178 174
f 1 174 186
f 1 186 187
f 1 187 183
f 1 183 181
f 1 181 180
f 1 180 179
f 1 179 165
f 1 165 145
f 1 145 164
f 1 164 153
f 1 153 128
f 1 128 121
f 1 121 120
f 1 120 101
f 1 101 72
f 1 72 71
f 1 71 70
f 1 70 69
f 1 69 68
f 1 68 67
f 1 67 66
f 1 66 62
f 1 62 37
f 1 37 22
f 1 22 8
f 1 8 3
f 1 3 4
f 1 4 5
f 1 5 2
f 2 5 7
f 2 7 6
f 3 8 9
f 3 9 10
f 3 10 11
f 3 11 4
f 4 12 13
f 4 13 5
f 4 11 10
f 4 10 14
f 4 14 15
f 4 15 16
f 4 16 12
f 5 13 7
f 6 7 18
f 6 18 17
f 7 13 19
f 7 19 20
f 7 20 18
f 8 21 9
f 8 22 23
f 8 23 24
f 8 24 21
f 9 21 10
f 10 21 24
f 10 24 14
f 12 16 13
f 13 16 19
f 14 24 25
f 14 25 26
f 14 26 27
f 14 27 28
f 14 28 16
f 14 16 15
f 16 28 29
f 16 29 19
f 17 18 30
f 18 31 32
f 18 32 33
f 18 33 30
f 18 20 34
f 18 34 35
f 18 35 31
f 19 29 36
f 19 36 20
f 20 36 34
f 22 37 38
f 22 38 39
f 22 39 40
f 22 40 23
f 23 40 41
f 23 41 25
f 23 25 24
f 25 41 26
f 26 41 42
f 26 42 27
f 27 42 43
f 27 43 44
f 27 44 45
f 27 45 36
f 27 36 29
f 27 29 28
f 30 33 46
f 31 47 48
f 31 48 49
f 31 49 50
f 31 50 32
f 31 35 51
f 31 51 52
f 31 52 47
f 32 50 46
f 32 46 33
f 34 36 53
f 34 53 54
f 34 54 55
f 34 55 56
f 34 56 35
f 35 56 57
f 35 57 58
f 35 58 59
f 35 59 60
f 35 60 51
f 36 45 61
f 36 61 53
f 37 62 38
f 38 63 64
f 38 64 65
f 38 65 42
f 38 42 41
f 38 41 39
f 38 62 66
f 38 66 67
f 38 67 68
f 38 68 69
f 38 69 70
f 38 70 71
f 38 71 72
f 38 72 63
f 39 41 40
f 42 65 73
f 42 73 43
f 43 73 44
f 44 73 74
f 44 74 75
f 44 75 76
f 44 76 77
f 44 77 45
f 45 77 61
f 46 50 78
f 47 52 79
f 47 79 48
f 48 80 81
f 48 81 82
f 48 82 49
f 48 79 80
f 49 78 50
f 51 60 83
f 51 83 84
f 51 84 79
f 51 79 52
f 53 61 54
f 54 61 76
f 54 76 85
f 54 85 86
f 54 86 87
f 54 87 88
f 54 88 89
f 54 89 90
f 54 90 91
f 54 91 92
f 54 92 56
f 54 56 55
f 56 92 57
f 57 92 58
f 58 92 93
f 58 93 94
f 58 94 59
f 59 94 95
f 59 95 60
f 60 95 83
f 61 77 76
f 63 96 64
f 63 72 96
f 64 97 98
f 64 98 65
f 64 96 99
f 64 99 100
f 64 100 97
f 65 98 73
f 72 101 96
f 73 98 74
f 74 98 102
f 74 102 75
f 75 102 103
f 75 103 113
f 75 113 104
f 75 104 86
f 75 86 76
f 76 86 85
f 79 84 111
f 79 111 105
f 79 105 137
f 79 137 106
f 79 106 80
f 80 106 107
f 80 107 81
f 83 108 109
f 83 109 111
f 83 111 84
f 83 95 110
f 83 110 108
f 86 104 87
f 87 104 88
f 88 104 89
f 89 112 90
f 89 104 113
f 89 113 112
f 90 112 114
f 90 114 91
f 91 114 115
f 91 115 116
f 91 116 117
f 91 117 92
f 92 117 93
f 93 117 116
f 93 116 94
f 94 116 118
f 94 118 110
f 94 110 95
f 96 119 99
f 96 101 120
f 96 120 121
f 96 121 119
f 97 122 123
f 97 123 124
f 97 124 125
f 97 125 98
f 97 100 129
f 97 129 122
f 98 125 102
f 99 126 127
f 99 127 100
f 99 119 121
f 99 121 128
f 99 128 126
f 100 127 129
f 102 130 131
f 102 131 103
f 102 125 130
f 103 131 132
f 103 132 133
f 103 133 113
f 105 111 134
f 105 134 135
f 105 135 136
f 105 136 137
f 108 138 109
f 108 110 138
f 109 138 111
f 110 118 139
f 110 139 140
f 110 140 138
f 111 138 134
f 112 113 141
f 112 141 142
f 112 142 143
f 112 143 114
f 113 133 141
f 114 143 115
f 115 143 116
f 116 143 139
f 116 139 118
f 122 144 123
f 122 129 145
f 122 145 146
f 122 146 144
f 123 144 124
f 124 147 148
f 124 148 130
f 124 130 125
f 124 144 149
f 124 149 150
f 124 150 147
f 126 151 127
f 126 128 152
f 126 152 151
f 127 151 129
f 128 153 152
f 129 151 154
f 129 154 145
f 130 148 142
f 130 142 155
f 130 155 131
f 131 155 142
f 131 142 132
f 132 141 133
f 132 142 141
f 134 138 156
f 134 156 157
f 134 157 158
f 134 158 159
f 134 159 135
f 135 159 136
f 136 159 160
f 138 140 156
f 139 156 140
f 139 143 161
f 139 161 156
f 142 148 147
f 142 147 143
f 143 147 162
f 143 162 161
f 144 146 163
f 144 163 149
f 145 154 164
f 145 165 166
f 145 166 163
f 145 163 146
f 147 167 156
f 147 156 161
f 147 161 162
f 147 150 167
f 149 163 168
f 149 168 150
f 150 168 169
f 150 169 167
f 151 152 153
f 151 153 170
f 151 170 154
f 153 164 170
f 154 170 164
f 156 167 169
f 156 169 171
f 156 171 157
f 157 171 172
f 157 172 173
f 157 173 174
f 157 174 175
f 157 175 176
f 157 176 177
f 157 177 158
f 158 177 159
f 159 177 175
f 159 175 178
f 159 178 160
f 163 166 168
f 165 179 168
f 165 168 166
f 168 179 180
f 168 180 181
f 168 181 169
f 169 181 182
f 169 182 183
f 169 183 184
f 169 184 172
f 169 172 171
f 172 184 185
f 172 185 173
f 173 186 174
f 173 185 186
f 174 178 175
f 175 177 176
f 181 183 182
f 183 187 184
f 184 187 186
f 184 186 185
