v 0.09663118 0.06998771 -0.42318290
v 0.09655575 0.06979007 -0.42318290
v 0.08820055 0.08578556 -0.42318290
v 0.04761279 0.03179090 -0.20943004
v 0.05721277 0.00999803 -0.20943004
v 0.05728821 0.00910208 -0.20943004
v 0.05636405 -0.00998974 -0.20943004
v 0.05610001 -0.01071441 -0.20943004
v 0.08784220 0.05361012 -0.42318290
v 0.08488110 0.08712950 -0.42318290
v 0.04084187 0.04079001 -0.20943004
v 0.04651888 0.03343788 -0.20943004
v 0.04729216 0.03235746 -0.20943004
v 0.04727330 -0.02699977 -0.20943004
v 0.06875539 0.04143563 -0.42318290
v 0.07022651 0.09093732 -0.42318290
v 0.03144935 0.04364917 -0.20943004
v 0.03193973 -0.03618334 -0.20943004
v 0.06215422 0.03943290 -0.42318290
v 0.06319155 0.09242619 -0.42318290
v 0.01813385 0.04581001 -0.20943004
v 0.04067213 0.08037028 -0.35864902
v 0.02999710 0.08123989 -0.35477781
v 0.03175112 -0.03623604 -0.20943004
v 0.04998921 0.03700854 -0.42318290
v 0.03158138 -0.03627557 -0.20943004
v 0.04319943 0.09353296 -0.42318290
v 0.00998612 0.08612813 -0.36999056
v 0.02999710 0.08462609 -0.36999056
v 0.00996726 0.04712760 -0.20943004
v 0.01536136 0.07975101 -0.34105074
v 0.02999710 0.03418890 -0.42318290
v 0.01726627 -0.03906886 -0.20943004
v 0.00998612 -0.04014927 -0.20943004
v 0.02318846 0.09413905 -0.42318290
v 0.00998612 0.08943527 -0.38999525
v -0.00998713 0.08619401 -0.36999056
v 0.00202700 0.08010677 -0.33954412
v 0.00921284 0.08176692 -0.34862575
v 0.00121600 0.06007946 -0.25963005
v -0.00996827 0.04712760 -0.20943004
v 0.00921284 0.07777464 -0.33171803
v 0.00998612 0.03293720 -0.42318290
v 0.00074448 -0.04013610 -0.20943004
v -0.00998713 0.03293720 -0.42318290
v 0.00998612 0.09438939 -0.42318290
v -0.00998713 0.08950115 -0.38999525
v 0.00319635 0.09441575 -0.42318290
v -0.04999022 0.09348026 -0.42318290
v -0.02999811 0.08863154 -0.38999525
v -0.02999811 0.08478419 -0.36999056
v -0.01564528 0.07979054 -0.34086242
v -0.00938360 0.08179327 -0.34852111
v -0.00231092 0.08010677 -0.33954412
v -0.00125473 0.06007946 -0.25963005
v -0.01057181 0.04704854 -0.20943004
v -0.00938360 0.07781416 -0.33171803
v -0.00998713 -0.04010975 -0.20943004
v -0.02318947 0.03366187 -0.42318290
v -0.00998713 0.09445527 -0.42318290
v -0.02999811 0.09412587 -0.42318290
v -0.07022752 0.09121402 -0.42318290
v -0.04999022 0.09093732 -0.40999991
v -0.02999811 0.08131894 -0.35448486
v -0.03062050 0.04367552 -0.20943004
v -0.03131834 -0.03613064 -0.20943004
v -0.05825111 0.03849741 -0.42318290
v -0.04320044 0.03578318 -0.42318290
v -0.02999811 0.03420208 -0.42318290
v -0.08806954 0.08585144 -0.42318290
v -0.03129948 0.04355694 -0.20943004
v -0.04082403 0.08043616 -0.35843974
v -0.03163897 -0.03603841 -0.20943004
v -0.06198549 0.03945925 -0.42318290
v -0.09582119 0.07069920 -0.42318290
v -0.04750064 0.03175137 -0.20943004
v -0.04668963 0.03296355 -0.20943004
v -0.04163503 0.04126434 -0.21453583
v -0.03260085 0.04312214 -0.20943004
v -0.04648217 -0.02738187 -0.20943004
v -0.08459921 0.05138340 -0.42318290
v -0.07235876 0.04482182 -0.42318290
v -0.09604752 0.06998771 -0.42318290
v -0.05710062 0.00998486 -0.20943004
v -0.04708571 -0.02682848 -0.20943004
v -0.08757917 0.05387364 -0.42318290
v -0.05611988 -0.00998974 -0.20943004
f 1 2 9
f 1 9 15
f 1 15 19
f 1 19 25
f 1 25 32
f 1 32 43
f 1 43 45
f 1 45 59
f 1 59 69
f 1 69 68
f 1 68 67
f 1 67 74
f 1 74 82
f 1 82 81
f 1 81 86
f 1 86 83
f 1 83 75
f 1 75 70
f 1 70 62
f 1 62 49
f 1 49 61
f 1 61 60
f 1 60 48
f 1 48 46
f 1 46 35
f 1 35 27
f 1 27 20
f 1 20 16
f 1 16 10
f 1 10 3
f 1 3 4
f 1 4 5
f 1 5 6
f 1 6 7
f 1 7 8
f 1 8 2
f 2 8 9
f 3 10 11
f 3 11 12
f 3 12 13
f 3 13 4
f 4 13 12
f 4 12 11
f 4 11 17
f 4 17 21
f 4 21 30
f 4 30 41
f 4 41 56
f 4 56 65
f 4 65 71
f 4 71 79
f 4 79 77
f 4 77 76
f 4 76 84
f 4 84 87
f 4 87 85
f 4 85 80
f 4 80 73
f 4 73 66
f 4 66 58
f 4 58 44
f 4 44 34
f 4 34 33
f 4 33 26
f 4 26 24
f 4 24 18
f 4 18 14
f 4 14 8
f 4 8 7
f 4 7 6
f 4 6 5
f 8 14 9
f 9 14 15
f 10 16 17
f 10 17 11
f 14 18 15
f 15 18 19
f 16 20 17
f 17 20 22
f 17 22 23
f 17 23 21
f 18 24 19
f 19 24 26
f 19 26 25
f 20 27 28
f 20 28 29
f 20 29 23
f 20 23 22
f 21 23 30
f 23 29 31
f 23 31 30
f 25 26 33
f 25 33 34
f 25 34 32
f 27 35 36
f 27 36 28
f 28 36 47
f 28 47 37
f 28 37 38
f 28 38 39
f 28 39 31
f 28 31 29
f 30 40 55
f 30 55 41
f 30 31 42
f 30 42 38
f 30 38 40
f 31 39 38
f 31 38 42
f 32 34 43
f 34 44 45
f 34 45 43
f 35 46 36
f 36 46 48
f 36 48 47
f 37 47 49
f 37 49 50
f 37 50 51
f 37 51 52
f 37 52 53
f 37 53 54
f 37 54 38
f 38 54 55
f 38 55 40
f 41 55 54
f 41 54 57
f 41 57 52
f 41 52 56
f 44 58 45
f 45 58 59
f 47 48 60
f 47 60 61
f 47 61 49
f 49 62 63
f 49 63 51
f 49 51 50
f 51 64 52
f 51 63 62
f 51 62 64
f 52 57 54
f 52 54 53
f 52 64 56
f 56 64 65
f 58 66 67
f 58 67 68
f 58 68 69
f 58 69 59
f 62 70 71
f 62 71 72
f 62 72 64
f 64 72 71
f 64 71 65
f 66 73 74
f 66 74 67
f 70 75 76
f 70 76 77
f 70 77 78
f 70 78 79
f 70 79 71
f 73 80 81
f 73 81 82
f 73 82 74
f 75 83 84
f 75 84 76
f 77 79 78
f 80 85 86
f 80 86 81
f 83 86 87
f 83 87 84
f 85 87 86
