v -0.04998679 0.18500546 -0.69440770
v -0.04789284 0.18500546 -0.69440770
v -0.02999163 0.17229436 -0.68546051
v -0.04998679 0.17230925 -0.68546051
v -0.06998195 0.17245808 -0.68530118
v -0.12692915 0.18500546 -0.69329262
v 0.04998900 0.18500546 -0.69435459
v -0.02999163 0.16229220 -0.67834520
v 0.02999385 0.17232414 -0.68543398
v -0.04998679 0.16230708 -0.67831868
v -0.06998195 0.16245592 -0.67821246
v -0.10997227 0.16306618 -0.67768145
v -0.12996742 0.17363393 -0.68479675
v -0.12996742 0.18500546 -0.69318640
v -0.08997711 0.16270895 -0.67800009
v 0.05212401 0.18500546 -0.69432807
v 0.04998900 0.17236879 -0.68540740
v -0.02999163 0.14999786 -0.66918564
v 0.02999385 0.16232197 -0.67831868
v 0.00999869 0.14999786 -0.66915905
v -0.04998679 0.14999786 -0.66907942
v -0.06998195 0.14999786 -0.66878736
v -0.12996742 0.16363177 -0.67712390
v -0.08997711 0.14999786 -0.66822982
v -0.08997711 0.13971290 -0.66021186
v -0.10011839 0.13998081 -0.65999949
v -0.14602104 0.18500546 -0.69228375
v 0.06998417 0.17256227 -0.68524814
v 0.12996964 0.18500546 -0.69268197
v 0.06998417 0.16256011 -0.67813283
v 0.04998900 0.16236661 -0.67826557
v -0.00999647 0.13893892 -0.66084903
v -0.02999163 0.13895380 -0.66082251
v 0.02999385 0.14999786 -0.66913253
v -0.04998679 0.13905799 -0.66074288
v -0.06998195 0.13929614 -0.66055703
v -0.11342113 0.14054641 -0.65949500
v -0.12996742 0.15142675 -0.66711473
v -0.14996259 0.16474809 -0.67608851
v -0.14996259 0.17475025 -0.68410647
v -0.06998195 0.12930885 -0.65160978
v -0.06998195 0.11832433 -0.64162719
v -0.08997711 0.12972561 -0.65107882
v -0.08997711 0.11890481 -0.64106965
v -0.10504533 0.11948530 -0.64048553
v -0.14996259 0.18500546 -0.69196516
v 0.08997932 0.16288757 -0.67789388
v 0.14996479 0.18500546 -0.69143414
v 0.12996964 0.17393163 -0.68453127
v 0.10997448 0.16330433 -0.67754871
v 0.06998417 0.14999786 -0.66868114
v 0.04998900 0.14999786 -0.66902632
v -0.00999647 0.12893675 -0.65219390
v 0.02999385 0.13898358 -0.66082251
v 0.00999869 0.12895164 -0.65219390
v -0.02999163 0.12895164 -0.65214080
v -0.04998679 0.12905583 -0.65195495
v -0.11838912 0.12015508 -0.63982177
v -0.12996742 0.14142458 -0.65869856
v -0.14996259 0.15288539 -0.66607928
v -0.16999879 0.16674256 -0.67433625
v -0.16999879 0.17674473 -0.68259317
v -0.16281368 0.18500546 -0.69013321
v -0.04998679 0.11796711 -0.64197230
v -0.04998679 0.10797983 -0.63137901
v -0.06998195 0.10835193 -0.63090116
v -0.08468065 0.09965957 -0.62041408
v -0.09079827 0.10722073 -0.62824619
v -0.11103977 0.11228135 -0.63188350
v -0.09802444 0.10015075 -0.61980343
v 0.09166269 0.14801827 -0.66647756
v 0.08611989 0.13965335 -0.66026497
v 0.06998417 0.13932590 -0.66053045
v 0.14996479 0.17504793 -0.68381441
v 0.12996964 0.16392946 -0.67693806
v 0.17020631 0.18500546 -0.68859333
v 0.10997448 0.15045927 -0.66753954
v 0.09942262 0.14002547 -0.65997291
v 0.04998900 0.13908777 -0.66074288
v -0.00999647 0.11768431 -0.64221126
v 0.00999869 0.11766943 -0.64221126
v 0.02999385 0.12898140 -0.65214080
v -0.02999163 0.11777361 -0.64213163
v -0.10997227 0.10074611 -0.61906004
v -0.12996742 0.11192413 -0.62904269
v -0.12996742 0.12091418 -0.63902533
v -0.12996742 0.13090146 -0.64871591
v -0.14996259 0.14288323 -0.65734452
v -0.16999879 0.15502872 -0.66435361
v -0.18609346 0.15752926 -0.66217655
v -0.18276778 0.17866480 -0.68105328
v -0.17040938 0.18500546 -0.68896502
v -0.02999163 0.10778633 -0.63167107
v -0.02999163 0.09860279 -0.62166190
v -0.04998679 0.09884094 -0.62136984
v -0.06998195 0.09924281 -0.62089193
v -0.09079827 0.09381008 -0.61186510
v -0.06998195 0.09113093 -0.60998011
v -0.10997227 0.09337845 -0.60905087
v 0.09166269 0.13179451 -0.65285766
v 0.06998417 0.12932374 -0.65163636
v 0.04998900 0.12908559 -0.65195495
v 0.16995996 0.17699777 -0.68235421
v 0.14996479 0.16506065 -0.67592919
v 0.12996964 0.15148628 -0.66695547
v 0.10997448 0.14045711 -0.65957469
v 0.17652921 0.18500546 -0.68713313
v 0.18248260 0.17881364 -0.68092054
v 0.08997932 0.11888993 -0.64109617
v -0.00999647 0.10769702 -0.63177729
v 0.00999869 0.10768214 -0.63180381
v 0.02999385 0.11775873 -0.64213163
v -0.12996742 0.09449476 -0.60756409
v -0.12996742 0.10193685 -0.61754668
v -0.14996259 0.11348697 -0.62737006
v -0.14996259 0.12246213 -0.63737923
v -0.14996259 0.13246430 -0.64736187
v -0.16999879 0.14502655 -0.65532672
v -0.18999396 0.13764399 -0.64234400
v -0.19167733 0.15051880 -0.65368068
v -0.19943726 0.16040191 -0.65970743
v -0.19611157 0.18377006 -0.67765492
v -0.18654510 0.18500546 -0.68344271
v -0.00999647 0.09848372 -0.62179464
v -0.00999647 0.08964252 -0.60998011
v -0.02999163 0.08986577 -0.60998011
v -0.04998679 0.09032719 -0.60998011
v -0.08997711 0.08252788 -0.59590882
v -0.06998195 0.08190274 -0.59694421
v -0.04998679 0.08150087 -0.59760797
v -0.10997227 0.08337627 -0.59450167
v 0.06998417 0.11832433 -0.64162719
v 0.04998900 0.11796711 -0.64197230
v 0.16995996 0.16701049 -0.67423004
v 0.14996479 0.15295982 -0.66592002
v 0.12996964 0.14149900 -0.65867198
v 0.10517072 0.11948530 -0.64048553
v 0.11112410 0.12807347 -0.64797252
v 0.18621886 0.18500546 -0.68323034
v 0.19479994 0.18500546 -0.67879653
v 0.19927524 0.16055074 -0.65960121
v 0.18593144 0.15754414 -0.66209686
v 0.16995996 0.15507337 -0.66422087
v 0.09092365 0.10720585 -0.62824619
v 0.08488815 0.09964468 -0.62041408
v 0.06998417 0.10833704 -0.63092768
v 0.02999385 0.10777145 -0.63167107
v 0.00999869 0.09848372 -0.62179464
v -0.12996742 0.08449259 -0.59259009
v -0.14996259 0.09598318 -0.60551977
v -0.14996259 0.10349969 -0.61552894
v -0.16999879 0.11564518 -0.62500715
v -0.16999879 0.12459057 -0.63501632
v -0.16999879 0.13459274 -0.64531755
v -0.19159521 0.12628737 -0.62944090
v -0.20034054 0.13962360 -0.64035279
v -0.18597029 0.11793734 -0.62240529
v -0.20268083 0.14999786 -0.64505208
v -0.20210601 0.17373812 -0.66432703
v -0.19656321 0.18500546 -0.67802662
v -0.19487984 0.18500546 -0.67911518
v 0.00999869 0.08961274 -0.60998011
v -0.00999647 0.08115853 -0.59813899
v -0.02999163 0.08126272 -0.59797966
v 0.00999869 0.08114365 -0.59816551
v -0.08997711 0.07658909 -0.58589959
v -0.06998195 0.07596395 -0.58693504
v -0.04998679 0.07557696 -0.58759880
v -0.10997227 0.07743749 -0.58449250
v -0.12996742 0.07852403 -0.58260745
v 0.04998900 0.10797983 -0.63137901
v 0.14996479 0.14295764 -0.65731794
v 0.11851451 0.12014020 -0.63984835
v 0.12996964 0.13088658 -0.64866281
v 0.11112410 0.11225159 -0.63188350
v 0.09823194 0.10015075 -0.61980343
v 0.19689389 0.18500546 -0.67640710
v 0.19578533 0.18396357 -0.67754871
v 0.20210823 0.17387208 -0.66422087
v 0.20264198 0.14999786 -0.64497238
v 0.20034274 0.13963848 -0.64035279
v 0.19155638 0.15053369 -0.65365410
v 0.16995996 0.14507121 -0.65535331
v 0.18999618 0.13761422 -0.64234400
v 0.09092365 0.09381008 -0.61189163
v 0.06998417 0.09111605 -0.60998011
v 0.06998417 0.09922793 -0.62091851
v 0.04998900 0.09882605 -0.62139642
v 0.02999385 0.09858791 -0.62166190
v -0.14335227 0.07943197 -0.58101451
v -0.15000364 0.08513261 -0.58860767
v -0.16999879 0.09808184 -0.60265237
v -0.16999879 0.10565789 -0.61266160
v -0.19931409 0.12028904 -0.61964411
v -0.20313247 0.13493508 -0.62999845
v -0.18124865 0.09955538 -0.60063463
v -0.20818257 0.14999786 -0.62999845
v -0.20247553 0.18500546 -0.66860151
v 0.02999385 0.08983601 -0.60998011
v 0.02999385 0.08124784 -0.59800625
v -0.00999647 0.07523463 -0.58812976
v -0.02999163 0.07533882 -0.58797050
v 0.00999869 0.07521974 -0.58815634
v -0.06998195 0.06716740 -0.56999642
v -0.08997711 0.06844744 -0.56999642
v -0.04998679 0.06634878 -0.56999642
v -0.02999163 0.06585760 -0.56999642
v -0.10997227 0.07018889 -0.56999642
v -0.12996742 0.07245129 -0.56999642
v 0.14996479 0.13243453 -0.64733529
v 0.10997448 0.10071635 -0.61908656
v 0.12996964 0.12088441 -0.63905185
v 0.12996964 0.11189436 -0.62906921
v 0.10997448 0.09339333 -0.60907739
v 0.20243670 0.18500546 -0.66846877
v 0.20313469 0.18500546 -0.66594654
v 0.20473593 0.16832030 -0.65176910
v 0.20814373 0.14999786 -0.62999845
v 0.20313469 0.13496484 -0.62999845
v 0.19927524 0.12031881 -0.61959100
v 0.19155638 0.12628737 -0.62946749
v 0.16995996 0.13454808 -0.64534408
v 0.18593144 0.11789269 -0.62245840
v 0.16995996 0.12454592 -0.63506943
v 0.08997932 0.08252788 -0.59590882
v 0.06998417 0.08190274 -0.59694421
v 0.04998900 0.08150087 -0.59760797
v 0.04998900 0.09032719 -0.60998011
v -0.15000364 0.07608303 -0.57124424
v -0.15669607 0.08057805 -0.57875776
v -0.16999879 0.09014858 -0.58998823
v -0.19459243 0.10221965 -0.59614778
v -0.20132592 0.09851348 -0.58281988
v -0.20337881 0.11554099 -0.60631621
v -0.20662238 0.12816277 -0.61178547
v -0.16999879 0.08208135 -0.57525325
v -0.18876223 0.09616178 -0.58969623
v -0.20970172 0.12999353 -0.58998823
v -0.20966066 0.14999786 -0.60998011
v -0.20748459 0.16998732 -0.62999845
v -0.20461054 0.18500546 -0.65041506
v 0.02999385 0.07532393 -0.58799702
v 0.04998900 0.07556207 -0.58759880
v -0.00999647 0.06564921 -0.56999642
v 0.00999869 0.06561945 -0.56999642
v -0.06998195 0.06121373 -0.55688095
v -0.04998679 0.06078209 -0.55804914
v -0.08997711 0.06186863 -0.55507559
v -0.02999163 0.06052906 -0.55868632
v -0.00999647 0.06042487 -0.55895180
v -0.10997227 0.06276169 -0.55244714
v -0.12885886 0.06361008 -0.54838508
v 0.14996479 0.12243237 -0.63740575
v 0.12996964 0.10190708 -0.61757326
v 0.12996964 0.09449476 -0.60759062
v 0.14996479 0.11345720 -0.62739658
v 0.10997448 0.08339116 -0.59444857
v 0.20539285 0.18500546 -0.64499897
v 0.20765103 0.16998732 -0.62999845
v 0.20974499 0.14999786 -0.60998011
v 0.20962182 0.12999353 -0.58998823
v 0.20658353 0.12819254 -0.61175889
v 0.20329891 0.11558564 -0.60626316
v 0.20132813 0.09854326 -0.58279330
v 0.19459465 0.10227919 -0.59612119
v 0.18129192 0.09954049 -0.60066116
v 0.16995996 0.10561324 -0.61268812
v 0.16995996 0.11560053 -0.62506020
v 0.10997448 0.07745238 -0.58446592
v 0.08997932 0.07660397 -0.58589959
v 0.06998417 0.07596395 -0.58693504
v -0.16999879 0.07773517 -0.56524408
v -0.14996259 0.06770323 -0.55000460
v -0.20198284 0.09721856 -0.56999642
v -0.20481583 0.10931940 -0.58969623
v -0.18124865 0.07937243 -0.56155366
v -0.18326047 0.07773517 -0.55000460
v -0.20596546 0.10998919 -0.56999642
v -0.20247553 0.10998919 -0.55324364
v -0.20198284 0.12360822 -0.55576587
v -0.20461054 0.13015725 -0.56975746
v -0.20473371 0.14971507 -0.59065199
v -0.20354304 0.16910915 -0.61141378
v -0.20300929 0.18500546 -0.63159144
v 0.02999385 0.06581295 -0.56999642
v 0.04998900 0.06631900 -0.56999642
v 0.02999385 0.06049929 -0.55876595
v 0.00999869 0.06040999 -0.55897838
v -0.06998195 0.05746292 -0.54687172
v -0.04998679 0.05698662 -0.54803991
v -0.02999163 0.05670382 -0.54870367
v -0.08997711 0.05817736 -0.54506636
v -0.00999647 0.05658475 -0.54896915
v 0.00999869 0.05656987 -0.54902226
v -0.10997227 0.05912995 -0.54246449
v -0.12142740 0.05978485 -0.54063261
v 0.14996479 0.10346992 -0.61555547
v 0.14996479 0.09598318 -0.60554630
v 0.12996964 0.08449259 -0.59256357
v 0.20325786 0.18500546 -0.63148522
v 0.20247775 0.18500546 -0.62798071
v 0.20375055 0.16916868 -0.61125445
v 0.20481806 0.14974484 -0.59059888
v 0.20465381 0.13024655 -0.56970435
v 0.20604979 0.10998919 -0.56999642
v 0.20473593 0.10934917 -0.58966964
v 0.20206718 0.12374217 -0.55552691
v 0.20255987 0.10998919 -0.55265957
v 0.18876444 0.09617667 -0.58966964
v 0.20202611 0.09712926 -0.56999642
v 0.18330374 0.07773517 -0.55000460
v 0.18120980 0.07940220 -0.56147403
v 0.16995996 0.08212601 -0.57512051
v 0.16995996 0.09019323 -0.58998823
v 0.16995996 0.09806696 -0.60267895
v 0.12996964 0.07855380 -0.58255434
v 0.10997448 0.07020378 -0.56999642
v 0.08997932 0.06844744 -0.56999642
v 0.06998417 0.06713764 -0.56999642
v -0.16999879 0.07254060 -0.55000460
v -0.13477120 0.06078209 -0.53678292
v -0.15000364 0.06224074 -0.53006589
v -0.20128486 0.09776928 -0.55520833
v -0.18350683 0.07678258 -0.53001279
v -0.16999879 0.06898327 -0.53001279
v -0.19044560 0.09001462 -0.53001279
v -0.18350683 0.09001462 -0.51448131
v -0.19775389 0.10998919 -0.54323447
v -0.20239343 0.14286834 -0.57628870
v -0.18305519 0.10443739 -0.51559633
v -0.20169544 0.16184567 -0.59779382
v -0.20075111 0.18086766 -0.61900693
v -0.20140803 0.18500546 -0.62601602
v 0.04998900 0.06075232 -0.55810219
v 0.02999385 0.05667406 -0.54878330
v -0.06998195 0.05208973 -0.53001279
v -0.04998679 0.05107760 -0.53001279
v -0.02999163 0.05045247 -0.53001279
v -0.00999647 0.05018455 -0.53001279
v -0.08997711 0.05359303 -0.53001279
v 0.00999869 0.05013990 -0.53001279
v -0.10997227 0.05561728 -0.53001279
v -0.12885886 0.05822201 -0.53006589
v 0.14992374 0.08514749 -0.58858114
v 0.14319026 0.07946174 -0.58096141
v 0.20157447 0.18500546 -0.62551159
v 0.20091756 0.18109092 -0.61876798
v 0.20177977 0.16196474 -0.59768760
v 0.20239563 0.14291300 -0.57618248
v 0.20136920 0.09765020 -0.55470389
v 0.19804351 0.10998919 -0.54265034
v 0.18318057 0.10460111 -0.51535743
v 0.18371433 0.09001462 -0.51408303
v 0.19081733 0.09001462 -0.53001279
v 0.18367328 0.07666351 -0.53001279
v 0.16995996 0.06880467 -0.53001279
v 0.16995996 0.07255547 -0.55000460
v 0.16995996 0.07777982 -0.56513786
v 0.15653405 0.08060782 -0.57867813
v 0.12996964 0.07249594 -0.56999642
v 0.10997448 0.06276169 -0.55250025
v 0.08997932 0.06185375 -0.55512869
v 0.06998417 0.06118396 -0.55696058
v -0.14335227 0.05918948 -0.52345502
v -0.15612125 0.06134769 -0.51002097
v -0.14610314 0.05814759 -0.51002097
v -0.18161817 0.07809239 -0.51705658
v -0.17669123 0.09001462 -0.50449866
v -0.16441494 0.10300851 -0.49557799
v -0.16671418 0.09001462 -0.49225929
v -0.19693273 0.18500546 -0.62224597
v -0.14306487 0.10122240 -0.47781631
v -0.08804739 0.08587682 -0.42320386
v 0.04998900 0.05695685 -0.54809302
v 0.02999385 0.05037805 -0.53001279
v -0.06998195 0.04723749 -0.51002097
v -0.04998679 0.04604675 -0.51002097
v -0.02999163 0.04531743 -0.51002097
v -0.00999647 0.04498997 -0.51002097
v -0.08997711 0.04891940 -0.51002097
v 0.00999869 0.04494532 -0.51002097
v -0.10997227 0.05121156 -0.51002097
v 0.14992374 0.07611279 -0.57121772
v 0.18999618 0.18500546 -0.61932552
v 0.14314920 0.10117775 -0.47784287
v 0.16462244 0.10302339 -0.49541867
v 0.08488815 0.08714198 -0.42320386
v 0.08817278 0.08580240 -0.42320386
v 0.18174355 0.07795843 -0.51676452
v 0.16704485 0.09001462 -0.49186105
v 0.17702191 0.09001462 -0.50410038
v 0.15669829 0.06106489 -0.51002097
v 0.15017009 0.06218120 -0.53014553
v 0.14996479 0.06771812 -0.55000460
v 0.12890214 0.06362496 -0.54841161
v 0.12155279 0.05976997 -0.54068571
v 0.10997448 0.05911506 -0.54251760
v 0.08997932 0.05814759 -0.54511946
v 0.06998417 0.05743315 -0.54695141
v -0.12996742 0.05439677 -0.51002097
v -0.12996742 0.05302743 -0.49000257
v -0.14499459 0.05786479 -0.49000257
v -0.16453812 0.07431181 -0.49411777
v -0.14187419 0.05883226 -0.47768357
v -0.15677819 0.09001462 -0.48225009
v -0.10516850 0.08435863 -0.43525738
v -0.14589787 0.07001028 -0.47372770
v -0.13694726 0.07001028 -0.46371850
v -0.12697020 0.07001028 -0.45349693
v -0.18999396 0.18500546 -0.62001580
v -0.07022829 0.09122024 -0.42320386
v -0.09580732 0.07070984 -0.42320386
v 0.04998900 0.05100318 -0.53001279
v 0.02999385 0.04522812 -0.51002097
v -0.06998195 0.04381412 -0.49000257
v -0.04998679 0.04241501 -0.49000257
v -0.03048432 0.04129869 -0.48854235
v -0.00999647 0.04138801 -0.49164864
v -0.08997711 0.04582349 -0.49000257
v 0.00999869 0.04137312 -0.49175483
v -0.10997227 0.04865148 -0.49000257
v 0.16995996 0.18500546 -0.61640507
v 0.06316856 0.09244074 -0.42320386
v 0.07023051 0.09095232 -0.42320386
v 0.15710886 0.09001462 -0.48185185
v 0.10537601 0.08432886 -0.43512461
v 0.09663069 0.07001028 -0.42320386
v 0.16474561 0.07401413 -0.49371952
v 0.14220487 0.05863877 -0.47725877
v 0.14565372 0.05765641 -0.49000257
v 0.13748322 0.07001028 -0.46313441
v 0.14639276 0.07001028 -0.47314358
v 0.12996964 0.05272975 -0.49000257
v 0.14668018 0.05802852 -0.51002097
v 0.14360084 0.05914483 -0.52358776
v 0.13489658 0.06076720 -0.53691566
v 0.12890214 0.05816247 -0.53014553
v 0.10997448 0.05554286 -0.53001279
v 0.08997932 0.05351861 -0.53001279
v 0.06998417 0.05201531 -0.53001279
v -0.08997711 0.04436484 -0.47001076
v -0.10997227 0.04875567 -0.47001076
v -0.06197567 0.03948282 -0.42320386
v -0.12323394 0.05776060 -0.45670941
v -0.07232224 0.04484113 -0.42320386
v -0.09601261 0.07001028 -0.42320386
v -0.10360830 0.05701639 -0.43629280
v -0.18560077 0.18500546 -0.61921930
v -0.04998679 0.09348264 -0.42320386
v 0.04998900 0.04597233 -0.51002097
v 0.03089712 0.04125404 -0.48864853
v -0.03750521 0.04009308 -0.47925001
v -0.04998679 0.04045030 -0.47532067
v -0.06082606 0.03989959 -0.46119630
v -0.06850386 0.04141777 -0.46870983
v -0.02416142 0.03985493 -0.48092261
v -0.00999647 0.03973586 -0.48163944
v 0.02486162 0.03984005 -0.48105538
v 0.00999869 0.03972097 -0.48174566
v 0.15119654 0.18500546 -0.61598027
v 0.00999869 0.09440545 -0.42320386
v 0.02317825 0.09415242 -0.42320386
v 0.04317341 0.09354217 -0.42320386
v 0.12750617 0.07001028 -0.45309865
v 0.09654857 0.06980190 -0.42320386
v 0.12360568 0.05756711 -0.45639083
v 0.06875243 0.04146242 -0.42320386
v 0.10997448 0.04848776 -0.47001076
v 0.10389792 0.05683778 -0.43602729
v 0.12996964 0.05423305 -0.51002097
v 0.08997932 0.04423088 -0.47001076
v 0.10997448 0.04851753 -0.49000257
v 0.10997448 0.05110737 -0.51002097
v 0.08997932 0.04883009 -0.51002097
v 0.06998417 0.04714818 -0.51002097
v -0.04317119 0.03579155 -0.42320386
v -0.05823941 0.03851536 -0.42320386
v -0.08459853 0.05140506 -0.42320386
v -0.08755469 0.05387583 -0.42320386
v -0.16999879 0.18500546 -0.61696261
v -0.02999163 0.09413753 -0.42320386
v 0.04998900 0.04232571 -0.49000257
v 0.03820541 0.04006331 -0.47946239
v -0.03048432 0.03893211 -0.47155061
v -0.02999163 0.03662506 -0.45001891
v -0.04998679 0.03942329 -0.46531147
v -0.02317603 0.03366312 -0.42320386
v -0.02999163 0.03422871 -0.42320386
v -0.00999647 0.03821767 -0.47001076
v -0.00999647 0.03589574 -0.45001891
v 0.00999869 0.03818791 -0.47001076
v 0.00999869 0.03586597 -0.45001891
v 0.03089712 0.03890234 -0.47168338
v 0.14996479 0.18500546 -0.61595374
v -0.00999647 0.09446499 -0.42320386
v 0.08784432 0.05362280 -0.42320386
v 0.06214212 0.03943817 -0.42320386
v 0.06267587 0.03936376 -0.43000054
v 0.04998900 0.03701206 -0.42320386
v 0.04998900 0.03716090 -0.43000054
v 0.06242952 0.03960190 -0.45001891
v 0.06103356 0.03988470 -0.46140867
v 0.06862926 0.04134335 -0.46886912
v 0.08997932 0.04570442 -0.49000257
v 0.06998417 0.04372482 -0.49000257
v -0.14996259 0.18500546 -0.61637855
v 0.02999385 0.03658041 -0.45001891
v 0.04998900 0.04042053 -0.47563925
v 0.04998900 0.03939352 -0.46565661
v -0.00999647 0.03294867 -0.42320386
v 0.00999869 0.03296356 -0.42320386
v 0.13111927 0.18500546 -0.61584753
v -0.10997227 0.18500546 -0.61600685
v -0.12996742 0.18500546 -0.61613959
v -0.14840239 0.18500546 -0.61635196
v 0.02999385 0.03419895 -0.42320386
v 0.02999385 0.03479431 -0.43000054
f 1 2 3
f 1 3 4
f 1 4 5
f 1 5 6
f 1 6 14
f 1 14 27
f 1 27 46
f 1 46 63
f 1 63 92
f 1 92 123
f 1 123 161
f 1 161 160
f 1 160 198
f 1 198 241
f 1 241 284
f 1 284 333
f 1 333 371
f 1 371 410
f 1 410 448
f 1 448 480
f 1 480 506
f 1 506 515
f 1 515 514
f 1 514 513
f 1 513 512
f 1 512 494
f 1 494 460
f 1 460 422
f 1 422 384
f 1 384 346
f 1 346 301
f 1 301 300
f 1 300 258
f 1 258 216
f 1 216 215
f 1 215 177
f 1 177 140
f 1 140 139
f 1 139 107
f 1 107 76
f 1 76 48
f 1 48 29
f 1 29 16
f 1 16 7
f 1 7 2
f 2 7 3
f 3 8 4
f 3 7 9
f 3 9 19
f 3 19 8
f 4 8 10
f 4 10 11
f 4 11 5
f 5 11 6
f 6 12 13
f 6 13 14
f 6 11 15
f 6 15 12
f 7 16 17
f 7 17 9
f 8 18 10
f 8 19 20
f 8 20 18
f 9 17 19
f 10 18 21
f 10 21 11
f 11 21 22
f 11 22 15
f 12 23 13
f 12 15 24
f 12 24 25
f 12 25 26
f 12 26 23
f 13 23 27
f 13 27 14
f 15 22 24
f 16 28 17
f 16 29 28
f 17 28 30
f 17 30 31
f 17 31 19
f 18 32 33
f 18 33 21
f 18 20 32
f 19 31 34
f 19 34 20
f 20 34 32
f 21 33 35
f 21 35 22
f 22 35 36
f 22 36 24
f 23 37 38
f 23 38 39
f 23 39 40
f 23 40 27
f 23 26 37
f 24 36 25
f 25 36 41
f 25 41 42
f 25 42 26
f 26 42 43
f 26 43 44
f 26 44 45
f 26 45 37
f 27 40 46
f 28 47 30
f 28 29 47
f 29 48 49
f 29 49 50
f 29 50 47
f 30 47 51
f 30 51 52
f 30 52 31
f 31 52 34
f 32 53 33
f 32 34 54
f 32 54 55
f 32 55 53
f 33 53 56
f 33 56 35
f 34 52 54
f 35 56 57
f 35 57 36
f 36 57 41
f 37 45 58
f 37 58 59
f 37 59 38
f 38 59 39
f 39 59 60
f 39 60 61
f 39 61 62
f 39 62 40
f 40 62 63
f 40 63 46
f 41 57 64
f 41 64 42
f 42 64 65
f 42 65 66
f 42 66 44
f 42 44 43
f 44 66 67
f 44 67 68
f 44 68 45
f 45 69 58
f 45 68 70
f 45 70 69
f 47 71 72
f 47 72 73
f 47 73 51
f 47 50 71
f 48 74 75
f 48 75 49
f 48 76 74
f 49 75 50
f 50 75 77
f 50 77 78
f 50 78 72
f 50 72 71
f 51 73 79
f 51 79 52
f 52 79 54
f 53 80 56
f 53 55 81
f 53 81 80
f 54 79 82
f 54 82 55
f 55 82 81
f 56 80 83
f 56 83 57
f 57 83 64
f 58 69 84
f 58 84 85
f 58 85 86
f 58 86 87
f 58 87 59
f 59 87 88
f 59 88 60
f 60 88 89
f 60 89 61
f 61 89 90
f 61 90 91
f 61 91 62
f 62 91 92
f 62 92 63
f 64 83 93
f 64 93 65
f 65 93 94
f 65 94 95
f 65 95 66
f 66 95 96
f 66 96 67
f 67 97 70
f 67 70 68
f 67 96 98
f 67 98 97
f 69 70 84
f 70 97 99
f 70 99 84
f 72 78 100
f 72 100 101
f 72 101 73
f 73 101 102
f 73 102 79
f 74 76 103
f 74 103 104
f 74 104 75
f 75 104 105
f 75 105 106
f 75 106 78
f 75 78 77
f 76 107 108
f 76 108 103
f 78 106 109
f 78 109 100
f 79 102 82
f 80 110 83
f 80 81 111
f 80 111 110
f 81 82 112
f 81 112 111
f 82 102 112
f 83 110 93
f 84 99 113
f 84 113 114
f 84 114 85
f 85 114 115
f 85 115 116
f 85 116 86
f 86 116 117
f 86 117 87
f 87 117 88
f 88 117 118
f 88 118 89
f 89 118 90
f 90 118 119
f 90 119 120
f 90 120 121
f 90 121 91
f 91 121 122
f 91 122 123
f 91 123 92
f 93 110 124
f 93 124 94
f 94 124 125
f 94 125 126
f 94 126 95
f 95 126 127
f 95 127 96
f 96 127 98
f 97 128 99
f 97 98 129
f 97 129 128
f 98 127 130
f 98 130 129
f 99 131 113
f 99 128 131
f 100 109 132
f 100 132 101
f 101 132 133
f 101 133 102
f 102 133 112
f 103 108 134
f 103 134 104
f 104 134 135
f 104 135 105
f 105 135 136
f 105 136 106
f 106 137 109
f 106 136 138
f 106 138 137
f 107 139 108
f 108 139 140
f 108 140 141
f 108 141 142
f 108 142 143
f 108 143 134
f 109 137 144
f 109 144 145
f 109 145 146
f 109 146 132
f 110 111 124
f 111 112 147
f 111 147 148
f 111 148 124
f 112 133 147
f 113 131 149
f 113 149 150
f 113 150 114
f 114 150 151
f 114 151 115
f 115 151 152
f 115 152 153
f 115 153 116
f 116 153 154
f 116 154 117
f 117 154 118
f 118 154 119
f 119 155 156
f 119 156 120
f 119 154 153
f 119 153 157
f 119 157 155
f 120 156 121
f 121 156 158
f 121 158 159
f 121 159 160
f 121 160 122
f 122 160 161
f 122 161 123
f 124 148 162
f 124 162 125
f 125 163 164
f 125 164 126
f 125 162 165
f 125 165 163
f 126 164 127
f 127 164 130
f 128 129 167
f 128 167 166
f 128 166 169
f 128 169 131
f 129 130 167
f 130 164 202
f 130 202 168
f 130 168 167
f 131 169 170
f 131 170 149
f 132 146 171
f 132 171 133
f 133 171 147
f 134 143 135
f 135 143 172
f 135 172 136
f 136 173 138
f 136 172 174
f 136 174 173
f 137 138 173
f 137 173 175
f 137 175 176
f 137 176 144
f 140 177 178
f 140 178 141
f 141 178 179
f 141 179 180
f 141 180 181
f 141 181 182
f 141 182 142
f 142 183 143
f 142 182 184
f 142 184 183
f 143 183 172
f 144 176 145
f 145 176 185
f 145 185 186
f 145 186 187
f 145 187 146
f 146 187 188
f 146 188 171
f 147 171 189
f 147 189 148
f 148 189 162
f 149 170 190
f 149 190 191
f 149 191 150
f 150 191 192
f 150 192 151
f 151 192 193
f 151 193 152
f 152 193 157
f 152 157 153
f 155 194 156
f 155 157 194
f 156 194 195
f 156 195 158
f 157 193 196
f 157 196 194
f 158 195 197
f 158 197 159
f 159 197 198
f 159 198 160
f 162 189 199
f 162 199 200
f 162 200 165
f 163 201 202
f 163 202 164
f 163 165 203
f 163 203 201
f 165 200 242
f 165 242 203
f 166 167 204
f 166 204 205
f 166 205 169
f 167 168 206
f 167 206 204
f 168 202 207
f 168 207 206
f 169 208 170
f 169 205 208
f 170 208 209
f 170 209 190
f 171 188 189
f 172 183 210
f 172 210 174
f 173 211 175
f 173 174 212
f 173 212 213
f 173 213 211
f 174 210 212
f 175 211 176
f 176 211 214
f 176 214 185
f 177 215 179
f 177 179 178
f 179 215 216
f 179 216 217
f 179 217 218
f 179 218 180
f 180 218 219
f 180 219 181
f 181 220 221
f 181 221 184
f 181 184 182
f 181 219 220
f 183 184 222
f 183 222 210
f 184 221 223
f 184 223 224
f 184 224 222
f 185 225 226
f 185 226 186
f 185 214 225
f 186 226 227
f 186 227 228
f 186 228 187
f 187 228 188
f 188 228 199
f 188 199 189
f 190 209 229
f 190 229 230
f 190 230 191
f 191 230 231
f 191 231 192
f 192 231 196
f 192 196 193
f 194 232 233
f 194 233 234
f 194 234 195
f 194 196 232
f 195 234 235
f 195 235 197
f 196 231 236
f 196 236 237
f 196 237 232
f 197 235 238
f 197 238 239
f 197 239 240
f 197 240 241
f 197 241 198
f 199 228 200
f 200 228 227
f 200 227 243
f 200 243 242
f 201 244 202
f 201 203 245
f 201 245 244
f 202 244 207
f 203 242 245
f 204 246 205
f 204 206 247
f 204 247 246
f 205 246 248
f 205 248 208
f 206 207 249
f 206 249 247
f 207 244 250
f 207 250 249
f 208 251 209
f 208 248 251
f 209 251 252
f 209 252 229
f 210 222 253
f 210 253 212
f 211 213 254
f 211 254 255
f 211 255 214
f 212 253 213
f 213 253 256
f 213 256 254
f 214 257 225
f 214 255 257
f 216 258 259
f 216 259 218
f 216 218 217
f 218 259 260
f 218 260 261
f 218 261 262
f 218 262 219
f 219 262 263
f 219 263 220
f 220 263 264
f 220 264 265
f 220 265 266
f 220 266 223
f 220 223 221
f 222 224 253
f 223 266 267
f 223 267 268
f 223 268 224
f 224 268 256
f 224 256 253
f 225 257 269
f 225 269 270
f 225 270 271
f 225 271 226
f 226 271 243
f 226 243 227
f 229 272 230
f 229 252 273
f 229 273 272
f 230 272 236
f 230 236 231
f 232 237 233
f 233 274 275
f 233 275 234
f 233 237 276
f 233 276 277
f 233 277 274
f 234 275 235
f 235 275 238
f 236 272 276
f 236 276 237
f 238 275 278
f 238 278 279
f 238 279 280
f 238 280 281
f 238 281 239
f 239 281 282
f 239 282 283
f 239 283 284
f 239 284 240
f 240 284 241
f 242 285 245
f 242 243 285
f 243 271 286
f 243 286 285
f 244 245 250
f 245 285 287
f 245 287 288
f 245 288 250
f 246 289 248
f 246 247 290
f 246 290 289
f 247 249 291
f 247 291 290
f 248 289 292
f 248 292 251
f 249 250 293
f 249 293 291
f 250 288 294
f 250 294 293
f 251 295 296
f 251 296 252
f 251 292 295
f 252 296 273
f 254 256 297
f 254 297 298
f 254 298 255
f 255 299 257
f 255 298 299
f 256 268 297
f 257 299 269
f 258 300 259
f 259 300 260
f 260 300 301
f 260 301 302
f 260 302 303
f 260 303 304
f 260 304 261
f 261 305 306
f 261 306 262
f 261 304 307
f 261 307 308
f 261 308 305
f 262 306 263
f 263 306 264
f 264 309 265
f 264 306 310
f 264 310 311
f 264 311 312
f 264 312 309
f 265 309 266
f 266 313 314
f 266 314 315
f 266 315 267
f 266 309 313
f 267 315 297
f 267 297 268
f 269 299 316
f 269 316 317
f 269 317 318
f 269 318 270
f 270 318 319
f 270 319 271
f 271 319 286
f 272 273 320
f 272 320 276
f 273 296 321
f 273 321 322
f 273 322 320
f 274 323 278
f 274 278 275
f 274 277 324
f 274 324 323
f 276 320 277
f 277 320 325
f 277 325 324
f 278 323 279
f 279 323 326
f 279 326 327
f 279 327 328
f 279 328 280
f 280 329 281
f 280 328 330
f 280 330 329
f 281 329 282
f 282 329 331
f 282 331 283
f 283 331 332
f 283 332 333
f 283 333 284
f 285 286 287
f 286 319 334
f 286 334 287
f 287 335 294
f 287 294 288
f 287 334 335
f 289 336 292
f 289 290 337
f 289 337 336
f 290 291 338
f 290 338 337
f 291 293 339
f 291 339 338
f 292 336 340
f 292 340 295
f 293 294 341
f 293 341 339
f 294 335 341
f 295 342 296
f 295 340 342
f 296 343 321
f 296 342 343
f 297 315 298
f 298 344 299
f 298 315 344
f 299 344 345
f 299 345 316
f 301 346 302
f 302 346 347
f 302 347 348
f 302 348 349
f 302 349 303
f 303 349 304
f 304 349 307
f 305 308 350
f 305 350 310
f 305 310 306
f 307 351 308
f 307 349 352
f 307 352 351
f 308 351 353
f 308 353 354
f 308 354 350
f 309 312 313
f 310 350 355
f 310 355 311
f 311 355 356
f 311 356 357
f 311 357 312
f 312 357 358
f 312 358 313
f 313 358 359
f 313 359 314
f 314 359 344
f 314 344 315
f 316 360 317
f 316 345 360
f 317 360 361
f 317 361 362
f 317 362 318
f 318 362 363
f 318 363 319
f 319 363 334
f 320 322 325
f 321 364 322
f 321 343 364
f 322 365 325
f 322 364 366
f 322 366 365
f 323 324 367
f 323 367 326
f 324 325 365
f 324 365 367
f 326 367 327
f 327 367 368
f 327 368 330
f 327 330 328
f 329 332 331
f 329 330 369
f 329 369 332
f 330 368 370
f 330 370 369
f 332 371 333
f 332 369 372
f 332 372 373
f 332 373 371
f 334 363 374
f 334 374 335
f 335 375 341
f 335 374 375
f 336 376 340
f 336 337 377
f 336 377 376
f 337 338 378
f 337 378 377
f 338 339 379
f 338 379 378
f 339 341 381
f 339 381 379
f 340 376 380
f 340 380 342
f 341 375 381
f 342 382 343
f 342 380 382
f 343 382 364
f 344 359 345
f 345 359 383
f 345 383 360
f 346 384 347
f 347 385 386
f 347 386 349
f 347 349 348
f 347 384 387
f 347 387 388
f 347 388 385
f 349 386 352
f 350 354 389
f 350 389 355
f 351 352 353
f 352 386 390
f 352 390 391
f 352 391 353
f 353 391 389
f 353 389 354
f 355 389 392
f 355 392 356
f 356 392 393
f 356 393 357
f 357 393 394
f 357 394 358
f 358 394 383
f 358 383 359
f 360 383 395
f 360 395 361
f 361 395 396
f 361 396 397
f 361 397 398
f 361 398 362
f 362 398 399
f 362 399 363
f 363 399 374
f 364 382 400
f 364 400 366
f 365 366 401
f 365 401 402
f 365 402 367
f 366 400 401
f 367 403 368
f 367 402 404
f 367 404 403
f 368 403 370
f 369 370 405
f 369 405 406
f 369 406 373
f 369 373 372
f 370 403 407
f 370 407 408
f 370 408 409
f 370 409 405
f 371 373 411
f 371 411 410
f 373 412 446
f 373 446 479
f 373 479 478
f 373 478 445
f 373 445 443
f 373 443 477
f 373 477 476
f 373 476 488
f 373 488 487
f 373 487 510
f 373 510 511
f 373 511 516
f 373 516 499
f 373 499 497
f 373 497 467
f 373 467 496
f 373 496 465
f 373 465 427
f 373 427 388
f 373 388 387
f 373 387 424
f 373 424 423
f 373 423 463
f 373 463 462
f 373 462 461
f 373 461 495
f 373 495 481
f 373 481 449
f 373 449 411
f 373 406 412
f 374 399 413
f 374 413 375
f 375 414 381
f 375 413 414
f 376 415 380
f 376 377 416
f 376 416 415
f 377 417 416
f 377 378 417
f 378 379 418
f 378 418 417
f 379 381 418
f 380 415 419
f 380 419 382
f 381 414 420
f 381 420 418
f 382 421 400
f 382 419 421
f 383 394 395
f 384 422 423
f 384 423 424
f 384 424 387
f 385 388 386
f 386 425 390
f 386 388 426
f 386 426 425
f 388 427 426
f 389 391 428
f 389 428 429
f 389 429 430
f 389 430 392
f 390 425 431
f 390 431 432
f 390 432 428
f 390 428 391
f 392 430 433
f 392 433 434
f 392 434 435
f 392 435 393
f 393 435 436
f 393 436 394
f 394 436 396
f 394 396 395
f 396 436 437
f 396 437 438
f 396 438 397
f 397 438 439
f 397 439 398
f 398 439 440
f 398 440 399
f 399 440 413
f 400 421 401
f 401 421 441
f 401 441 442
f 401 442 402
f 402 442 443
f 402 443 404
f 403 404 407
f 404 444 407
f 404 443 445
f 404 445 444
f 405 409 446
f 405 446 412
f 405 412 406
f 407 444 408
f 408 444 447
f 408 447 409
f 409 447 446
f 410 411 449
f 410 449 448
f 413 440 450
f 413 450 414
f 414 451 420
f 414 450 451
f 415 416 452
f 415 452 453
f 415 453 454
f 415 454 455
f 415 455 419
f 416 417 452
f 417 418 456
f 417 456 452
f 418 457 456
f 418 420 459
f 418 459 457
f 419 455 441
f 419 441 421
f 420 451 458
f 420 458 459
f 422 460 461
f 422 461 462
f 422 462 463
f 422 463 423
f 425 464 431
f 425 426 427
f 425 427 464
f 427 465 464
f 428 432 429
f 429 432 466
f 429 466 467
f 429 467 430
f 430 467 468
f 430 468 433
f 431 464 469
f 431 469 466
f 431 466 432
f 433 470 434
f 433 468 471
f 433 471 472
f 433 472 470
f 434 470 435
f 435 470 437
f 435 437 436
f 437 473 438
f 437 470 473
f 438 473 474
f 438 474 439
f 439 474 475
f 439 475 440
f 440 475 450
f 441 455 454
f 441 454 476
f 441 476 477
f 441 477 442
f 442 477 443
f 444 445 478
f 444 478 447
f 446 447 479
f 447 478 479
f 448 449 480
f 449 481 480
f 450 482 451
f 450 475 482
f 451 482 483
f 451 483 458
f 452 456 484
f 452 484 485
f 452 485 453
f 453 485 486
f 453 486 454
f 454 486 487
f 454 487 488
f 454 488 476
f 456 457 489
f 456 489 490
f 456 490 484
f 457 459 491
f 457 491 489
f 458 492 491
f 458 491 459
f 458 483 493
f 458 493 492
f 460 494 461
f 461 494 495
f 464 465 469
f 465 496 469
f 466 469 496
f 466 496 467
f 467 497 468
f 468 497 498
f 468 498 471
f 470 472 473
f 471 498 499
f 471 499 500
f 471 500 501
f 471 501 502
f 471 502 503
f 471 503 504
f 471 504 472
f 472 504 473
f 473 504 474
f 474 504 505
f 474 505 475
f 475 505 482
f 480 481 495
f 480 495 506
f 482 505 483
f 483 507 493
f 483 505 508
f 483 508 509
f 483 509 507
f 484 490 510
f 484 510 485
f 485 510 487
f 485 487 486
f 489 491 492
f 489 492 490
f 490 492 510
f 492 493 511
f 492 511 510
f 493 507 511
f 494 512 495
f 495 513 514
f 495 514 515
f 495 515 506
f 495 512 513
f 497 499 498
f 499 516 500
f 500 516 501
f 501 516 502
f 502 509 508
f 502 508 503
f 502 516 509
f 503 508 505
f 503 505 504
f 507 509 517
f 507 517 511
f 509 516 517
f 511 517 516
