v -0.00998349 -0.63172078 0.90989006
v 0.00999461 -0.63165432 0.90989006
v -0.00998349 -0.62866408 0.92994404
v -0.02998487 -0.62819892 0.90989006
v -0.00998349 -0.63025892 0.88995552
v 0.00999461 -0.63025892 0.88995552
v 0.02999600 -0.62806606 0.90989006
v 0.00999461 -0.62853122 0.92994404
v -0.03177778 -0.62414551 0.93173456
v -0.00998349 -0.62294936 0.94593942
v -0.02628264 -0.62168682 0.94343269
v -0.04369944 -0.62168682 0.92624354
v -0.04591147 -0.62275004 0.90989006
v -0.04430484 -0.62195265 0.88995552
v -0.02998487 -0.62667060 0.88995552
v -0.02879737 -0.62215197 0.87061775
v -0.00998349 -0.62527514 0.86990154
v 0.00999461 -0.62527514 0.86990154
v 0.02878520 -0.62215197 0.87073714
v 0.02999600 -0.62660414 0.88995552
v 0.04566646 -0.62268358 0.90989006
v 0.04352429 -0.62162036 0.92576611
v 0.03148621 -0.62407899 0.93149579
v 0.04412969 -0.62188613 0.88995552
v 0.02582807 -0.62162036 0.94319391
v 0.00999461 -0.62288296 0.94570065
v -0.03962466 -0.61982620 0.93961287
v -0.00998349 -0.61763334 0.95596635
v -0.03177778 -0.61643726 0.94999790
v -0.05021910 -0.61676955 0.93173456
v -0.05592381 -0.61783272 0.90989006
v -0.05431718 -0.61703533 0.88995552
v -0.04155727 -0.62069011 0.87777990
v -0.03466506 -0.61843073 0.86441064
v -0.02132304 -0.62035781 0.85903901
v -0.00998349 -0.62095588 0.85748720
v 0.00999461 -0.62095588 0.85748720
v 0.02131088 -0.62035781 0.85903901
v 0.04145197 -0.62069011 0.87789929
v 0.03462961 -0.61836433 0.86452997
v 0.05567880 -0.61769986 0.90989006
v 0.05011380 -0.61650372 0.93149579
v 0.03917009 -0.61969328 0.93913543
v 0.05414202 -0.61690241 0.88995552
v 0.03148621 -0.61603856 0.94987857
v 0.00999461 -0.61750042 0.95572758
v -0.04493352 -0.60274857 0.96312845
v -0.05094092 -0.60740006 0.95095289
v -0.06384054 -0.60301435 0.94498444
v -0.00998349 -0.60766590 0.96873879
v -0.02998487 -0.60567236 0.96647084
v -0.06775233 -0.60607105 0.92994404
v -0.07983699 -0.59982479 0.91717160
v -0.07189697 -0.60633683 0.91024816
v -0.08018626 -0.60015702 0.89890814
v -0.07117516 -0.60573882 0.89138794
v -0.06572658 -0.60427690 0.86990154
v -0.04891517 -0.61451018 0.87061775
v -0.05080122 -0.60547304 0.84948951
v -0.04465411 -0.60228342 0.83504593
v -0.02879737 -0.61497533 0.85139942
v -0.03031086 -0.60454273 0.82895809
v -0.02386105 -0.60108733 0.81773746
v -0.00998349 -0.60892844 0.82991302
v -0.00998349 -0.61683595 0.84746027
v 0.00999461 -0.61676955 0.84746027
v 0.00999461 -0.60886192 0.82991302
v 0.02368590 -0.60102081 0.81773746
v 0.03020556 -0.60447627 0.82907748
v 0.02878520 -0.61490893 0.85139942
v 0.05067263 -0.60534012 0.84960890
v 0.04887972 -0.61437732 0.87073714
v 0.04447896 -0.60221696 0.83516526
v 0.07188481 -0.60627043 0.91024816
v 0.07982482 -0.59982479 0.91717160
v 0.06760046 -0.60580528 0.92994404
v 0.07113971 -0.60560590 0.89138794
v 0.08019738 -0.60015702 0.89902753
v 0.06364210 -0.60281503 0.94450700
v 0.05060278 -0.60700136 0.95071411
v 0.04433925 -0.60241628 0.96265101
v 0.06559800 -0.60414398 0.86990154
v 0.02999600 -0.60527366 0.96599329
v 0.00999461 -0.60746652 0.96850014
v -0.02998487 -0.59603709 0.97649777
v -0.04386244 -0.58268064 0.98186934
v -0.05105735 -0.59072113 0.97076809
v -0.05825226 -0.59876156 0.95835376
v -0.07138471 -0.59131914 0.95178843
v -0.08318995 -0.58387673 0.94522321
v -0.07776468 -0.59776479 0.92994404
v -0.00998349 -0.59849572 0.97876585
v -0.09837145 -0.57729816 0.90989006
v -0.08679906 -0.59185076 0.91024816
v -0.08018626 -0.60015702 0.90392160
v -0.08640322 -0.58779728 0.92994404
v -0.09792905 -0.57676661 0.88995552
v -0.08644979 -0.59125268 0.89138794
v -0.07862620 -0.59869510 0.88565826
v -0.07573892 -0.59630287 0.86990154
v -0.06235033 -0.60168535 0.85581607
v -0.05799613 -0.59882802 0.84244680
v -0.05080122 -0.59623647 0.82895809
v -0.05853167 -0.57915878 0.80150330
v -0.05112720 -0.58646834 0.80890417
v -0.04521294 -0.58254778 0.79481864
v -0.03717979 -0.59916025 0.82167661
v -0.00998349 -0.60208404 0.81570816
v -0.03031086 -0.59570485 0.81057537
v -0.04123129 -0.14065492 -0.10092387
v -0.02998487 -0.14238262 -0.10366938
v -0.00998349 -0.14437613 -0.10665360
v 0.00999461 -0.60201764 0.81570816
v 0.03700463 -0.59909379 0.82179594
v 0.00999461 -0.59710032 0.80568123
v 0.00999461 -0.15268238 -0.08994198
v 0.02999600 -0.14251553 -0.10378876
v 0.04145197 -0.14072138 -0.10104325
v 0.06222175 -0.60161889 0.85605478
v 0.05779769 -0.59876156 0.84268546
v 0.04496793 -0.58248127 0.79493803
v 0.05828666 -0.57902586 0.80186141
v 0.08019738 -0.60015702 0.90380228
v 0.08688003 -0.59185076 0.91024816
v 0.09845242 -0.57736468 0.90989006
v 0.08646090 -0.58773088 0.92994404
v 0.07761280 -0.59769833 0.92994404
v 0.07856746 -0.59869510 0.88565826
v 0.08643763 -0.59118629 0.89138794
v 0.09789360 -0.57663369 0.88995552
v 0.08317779 -0.58381033 0.94498444
v 0.07113971 -0.59105337 0.95143032
v 0.05768127 -0.59836286 0.95787632
v 0.05032336 -0.59018946 0.97029066
v 0.04296546 -0.58208263 0.98139191
v 0.02999600 -0.59523970 0.97590089
v 0.07558705 -0.59617001 0.86990154
v 0.00999461 -0.59816349 0.97840774
v -0.02998487 -0.58606958 0.98413742
v -0.02858781 -0.56832743 0.99452245
v -0.05031224 -0.57038736 0.98556983
v -0.05718117 -0.57736468 0.97828829
v -0.06561016 -0.58547151 0.96491897
v -0.07895218 -0.57856071 0.95859253
v -0.08984932 -0.56965643 0.94963980
v -0.10039720 -0.56075215 0.94068718
v -0.09641555 -0.57390922 0.92994404
v 0.00999461 -0.58819604 0.98556983
v -0.00998349 -0.58852828 0.98580849
v -0.10205039 -0.56387532 0.92994404
v -0.10388988 -0.56726420 0.90989006
v -0.10377346 -0.56679904 0.88995552
v -0.10230653 -0.56394172 0.86990154
v -0.09571701 -0.57390922 0.86990154
v -0.08570468 -0.58633542 0.86990154
v -0.08232842 -0.58241487 0.84996700
v -0.08025610 -0.58022201 0.83934319
v -0.06996436 -0.58493996 0.83158422
v -0.06328171 -0.58241487 0.81487262
v -0.06353784 -0.56254625 0.77476472
v -0.06095326 -0.14072138 -0.08134744
v -0.04872890 -0.14304712 -0.08874828
v -0.05455002 -0.13700017 -0.09459734
v -0.06421308 -0.12364371 -0.10354999
v -0.04649359 -0.02742404 -0.20943001
v -0.03163807 -0.03606254 -0.20943001
v -0.03131209 -0.03619546 -0.20943001
v -0.00998349 -0.13540538 -0.11656120
v 0.00999461 -0.13547182 -0.11668053
v 0.00999461 -0.14437613 -0.10665360
v 0.02999600 -0.13248158 -0.11381570
v 0.03157934 -0.03632835 -0.20943001
v 0.03192861 -0.03619546 -0.20943001
v 0.04727310 -0.02702534 -0.20943001
v 0.06452692 -0.12384306 -0.10378876
v 0.05479399 -0.13719952 -0.09483609
v 0.04885644 -0.14318003 -0.08886766
v 0.06305999 -0.58221549 0.81523073
v 0.06983578 -0.58460772 0.83182299
v 0.08005767 -0.58002263 0.83982062
v 0.05837980 -0.55909085 0.76163417
v 0.06105752 -0.14072138 -0.08146679
v 0.06329283 -0.56241333 0.77500343
v 0.10390100 -0.56739712 0.90989006
v 0.10210809 -0.56407464 0.92994404
v 0.09647325 -0.57404214 0.92994404
v 0.10362159 -0.56666619 0.88995552
v 0.08555281 -0.58620250 0.86990154
v 0.09554186 -0.57351053 0.86990154
v 0.10203823 -0.56354302 0.86990154
v 0.08976731 -0.56952357 0.94952047
v 0.07863732 -0.57822847 0.95823443
v 0.10043161 -0.56081855 0.94080651
v 0.06529529 -0.58507288 0.96444154
v 0.05630748 -0.57656723 0.97781086
v 0.04976454 -0.56992221 0.98473418
v 0.02999600 -0.56998873 0.99201572
v 0.02999600 -0.58527219 0.98354053
v 0.08206014 -0.58221549 0.84996700
v -0.00998349 -0.57138413 0.99583554
v -0.02099706 -0.56048632 1.00013280
v -0.03433908 -0.55536968 0.99846160
v -0.06316528 -0.56400818 0.98210812
v -0.04891517 -0.54925627 0.99499989
v -0.07105874 -0.57131767 0.97100687
v -0.08318995 -0.56527072 0.96360600
v -0.10747568 -0.54998720 0.92994404
v -0.09667169 -0.54998720 0.95441461
v -0.10228324 -0.54998720 0.94438756
v 0.01143825 -0.56879258 0.99643230
v -0.11120121 -0.54998720 0.90989006
v -0.11122449 -0.54998720 0.88995552
v -0.10889605 -0.54998720 0.86990154
v -0.10458840 -0.55111688 0.84984761
v -0.10088618 -0.56141663 0.85641289
v -0.09911655 -0.55855930 0.84304357
v -0.09331872 -0.56885904 0.84984761
v -0.08568139 -0.57025445 0.83158422
v -0.08307353 -0.56334364 0.80997849
v -0.08067523 -0.56061924 0.79851907
v -0.07660045 -0.57709885 0.82597387
v -0.07012735 -0.56547010 0.79111826
v -0.07687986 -0.55729675 0.78514981
v -0.08130391 -0.12158376 -0.08254111
v -0.06924254 -0.12929197 -0.08862892
v -0.08074509 -0.54075068 0.75841117
v -0.07753183 -0.11666647 -0.09591040
v -0.04709898 -0.02689245 -0.20943001
v -0.00998349 -0.04018244 -0.20943001
v 0.00999461 -0.04018244 -0.20943001
v 0.01725937 -0.03911924 -0.20943001
v 0.05609792 -0.01074508 -0.20943001
v 0.08226970 -0.10370870 -0.10187885
v 0.07784565 -0.11706516 -0.09638789
v 0.06946322 -0.12949131 -0.08886766
v 0.06997548 -0.56513786 0.79135698
v 0.08043022 -0.56041992 0.79899657
v 0.07637872 -0.57683301 0.82645136
v 0.08268882 -0.56294501 0.80997849
v 0.08520354 -0.57012159 0.83182299
v 0.08147803 -0.12178311 -0.08301860
v 0.08050008 -0.54048485 0.75888872
v 0.07663485 -0.55703092 0.78574663
v 0.11104934 -0.54998720 0.90989006
v 0.11081649 -0.54998720 0.88995552
v 0.10748681 -0.54998720 0.92994404
v 0.10818535 -0.54998720 0.86990154
v 0.09293400 -0.56865966 0.85044444
v 0.09880169 -0.55796123 0.84399855
v 0.10066445 -0.56108439 0.85736787
v 0.10401742 -0.55078459 0.85044444
v 0.08301480 -0.56487203 0.96324790
v 0.07060416 -0.57071960 0.97052932
v 0.10229437 -0.54998720 0.94426823
v 0.09644996 -0.54998720 0.95429516
v 0.06257100 -0.56321079 0.98163068
v 0.04827433 -0.54839242 0.99416435
v 0.02999600 -0.55523682 0.99846160
v 0.01905228 -0.55968893 0.99989402
v 0.00573355 -0.56128371 1.00049090
v -0.00998349 -0.56135017 1.00061023
v -0.00998349 -0.54998720 1.00407195
v -0.02858781 -0.54925627 1.00180399
v -0.04151070 -0.54207969 1.00061023
v -0.07722913 -0.54998720 0.97757208
v -0.06724007 -0.54998720 0.98485363
v -0.05410762 -0.52998579 0.99738729
v -0.08668263 -0.54998720 0.96754515
v -0.11224902 -0.52998579 0.92994404
v -0.11613752 -0.52998579 0.90989006
v -0.09904671 -0.53417212 0.95835376
v -0.10382003 -0.52845740 0.95095289
v -0.11683606 -0.52998579 0.88995552
v -0.11562526 -0.52998579 0.86990154
v -0.11332010 -0.52998579 0.84996700
v -0.11001369 -0.52998579 0.82991302
v -0.10302836 -0.54546863 0.82991302
v -0.10123545 -0.54207969 0.81535006
v -0.09937268 -0.53889006 0.80198079
v -0.09690453 -0.55543613 0.82991302
v -0.09408711 -0.54925627 0.80914289
v -0.08619365 -0.55038595 0.79111826
v -0.08325981 -0.54354155 0.76998997
v -0.10060675 -0.10111715 -0.06236780
v -0.09881386 -0.09706369 -0.07573709
v -0.08530885 -0.11002146 -0.08958387
v -0.08624023 -0.53038442 0.75101036
v -0.09425010 -0.52932125 0.76903498
v -0.09723051 -0.53583336 0.78992450
v -0.09939596 -0.51895505 0.76187289
v -0.08202574 -0.10331000 -0.10175946
v -0.05611008 -0.01001415 -0.20943001
v 0.05637733 -0.01001415 -0.20943001
v 0.10150270 -0.08423884 -0.08254111
v 0.09901126 -0.09759529 -0.07609519
v 0.08566923 -0.11022080 -0.08982259
v 0.08285181 -0.54320931 0.76998997
v 0.08562267 -0.55025303 0.79135698
v 0.09647325 -0.55457228 0.82991302
v 0.09896469 -0.49822265 0.72319746
v 0.09901126 -0.51822412 0.76330531
v 0.09672937 -0.51490158 0.74993604
v 0.09670609 -0.53483659 0.78992450
v 0.09367910 -0.52892256 0.76987064
v 0.11561310 -0.52998579 0.90989006
v 0.11603223 -0.52998579 0.88995552
v 0.11207385 -0.52998579 0.84996700
v 0.11458859 -0.52998579 0.86990154
v 0.11193416 -0.52998579 0.92994404
v 0.10869761 -0.52998579 0.82991302
v 0.09898797 -0.53822553 0.80341321
v 0.10085073 -0.54148161 0.81666315
v 0.10243407 -0.54460478 0.82991302
v 0.08646090 -0.54998720 0.96694827
v 0.07633215 -0.54998720 0.97697520
v 0.10455297 -0.52998579 0.94868493
v 0.09915096 -0.52998579 0.95859253
v 0.06631981 -0.54998720 0.98413742
v 0.05274495 -0.52998579 0.99667108
v 0.04047402 -0.54061776 1.00013280
v 0.02999600 -0.54526925 1.00144589
v 0.01143825 -0.55178142 1.00287831
v 0.00999461 -0.52998579 1.00801110
v -0.00998349 -0.52998579 1.00836921
v -0.02998487 -0.52998579 1.00550437
v -0.04409528 -0.52998579 1.00156522
v -0.07979041 -0.53908944 0.97984016
v -0.07187369 -0.53144765 0.98640537
v -0.05590052 -0.50998425 0.99810350
v -0.04588819 -0.50998425 1.00240076
v -0.11313382 -0.50998425 0.92994404
v -0.11739488 -0.50998425 0.90989006
v -0.11895494 -0.50998425 0.88995552
v -0.09003560 -0.52998579 0.96993256
v -0.10011779 -0.52081567 0.96014428
v -0.10412273 -0.51064879 0.95166910
v -0.11897823 -0.50998425 0.86990154
v -0.11802357 -0.50998425 0.84996700
v -0.11623067 -0.50998425 0.82991302
v -0.11362280 -0.50998425 0.80997849
v -0.11015341 -0.50998425 0.78992450
v -0.10498425 -0.53131473 0.80914289
v -0.10314476 -0.52586585 0.78992450
v -0.10130529 -0.52221107 0.77524221
v -0.10270236 -0.09028579 -0.06941056
v -0.10309820 -0.50586438 0.74993604
v -0.10498425 -0.51137972 0.76903498
v -0.10999042 -0.48998284 0.74993604
v -0.11348309 -0.48998284 0.76998997
v -0.10130529 -0.08377369 -0.08230239
v -0.05708803 0.00992090 -0.20943001
v -0.10237639 -0.07001853 -0.08349606
v 0.05728543 0.00905702 -0.20943001
v 0.10255049 -0.07001853 -0.08373481
v 0.10692798 -0.07001853 -0.06988803
v 0.10287648 -0.09055158 -0.06964931
v 0.10064116 -0.10118359 -0.06272590
v 0.10092059 -0.50161159 0.73656678
v 0.09353940 -0.54885757 0.80997849
v 0.11645134 -0.50998425 0.90989006
v 0.11775528 -0.50998425 0.88995552
v 0.11654449 -0.50998425 0.84996700
v 0.11759229 -0.50998425 0.86990154
v 0.11212042 -0.50998425 0.80997849
v 0.11470501 -0.50998425 0.82991302
v 0.11249298 -0.50998425 0.92994404
v 0.10483238 -0.50998425 0.94940114
v 0.10418041 -0.53091604 0.80997849
v 0.10420370 -0.51091456 0.76987064
v 0.10879074 -0.48998284 0.74993604
v 0.10087401 -0.52154660 0.77655524
v 0.10248065 -0.52480268 0.78992450
v 0.08774155 -0.52998579 0.97160363
v 0.07919614 -0.53669721 0.97924328
v 0.09966321 -0.50998425 0.95942807
v 0.09062883 -0.50998425 0.96993256
v 0.08066307 -0.52334076 0.98055637
v 0.07151225 -0.52998579 0.98568916
v 0.05507340 -0.50998425 0.99774539
v 0.04275590 -0.52998579 1.00108778
v 0.02999600 -0.52998579 1.00466883
v 0.00999461 -0.50998425 1.00980163
v 0.02999600 -0.50998425 1.00657868
v -0.00998349 -0.50998425 1.01004040
v -0.02998487 -0.50998425 1.00705612
v -0.08102450 -0.52579939 0.98091447
v -0.06998764 -0.50998425 0.98927021
v -0.04390901 -0.48998284 1.00156522
v -0.05389806 -0.48998284 0.99702919
v -0.11013012 -0.48998284 0.92994404
v -0.11508971 -0.48998284 0.90989006
v -0.10347076 -0.48998284 0.94677496
v -0.11779073 -0.48998284 0.88995552
v -0.11914122 -0.48998284 0.86990154
v -0.12000275 -0.47994888 0.84005940
v -0.12000275 -0.48001534 0.84005940
v -0.10011779 -0.51775897 0.96014428
v -0.08130391 -0.50998425 0.98115313
v -0.09969866 -0.50446892 0.95942807
v -0.12000275 -0.48001534 0.83874631
v -0.11937407 -0.48798931 0.83122611
v -0.11809342 -0.48998284 0.80997849
v -0.11616081 -0.48998284 0.78992450
v -0.11162034 -0.21002877 0.23008545
v -0.10670730 -0.07001853 -0.06988803
v -0.11595124 -0.46998137 0.74993604
v -0.04749482 0.03171650 -0.20943001
v -0.10184084 -0.05413696 -0.08230239
v -0.10449527 -0.04848871 -0.07155919
v -0.10191070 -0.03001559 -0.06463581
v -0.10009450 -0.01984873 -0.06009981
v 0.05721558 0.00998732 -0.20943001
v 0.10189854 -0.05426987 -0.08230239
v 0.10455297 -0.04855517 -0.07155919
v 0.10834834 -0.05001706 -0.04995346
v 0.10827848 -0.07001853 -0.04995346
v 0.11195743 -0.19002731 0.21003151
v 0.11605550 -0.42997843 0.68989360
v 0.11638150 -0.44997990 0.72988212
v 0.11451873 -0.44997990 0.70994753
v 0.11212042 -0.46998137 0.72988212
v 0.10422698 -0.49091312 0.72988212
v 0.10252722 -0.50486767 0.74993604
v 0.11368048 -0.48998284 0.90989006
v 0.11612536 -0.48998284 0.88995552
v 0.11787170 -0.48998284 0.84996700
v 0.11740601 -0.48998284 0.86990154
v 0.11465843 -0.46998137 0.74993604
v 0.11740601 -0.44997990 0.74993604
v 0.10914001 -0.48998284 0.92994404
v 0.10308604 -0.48998284 0.94617820
v 0.08669375 -0.49051443 0.97124553
v 0.08059321 -0.49755812 0.98043692
v 0.09791689 -0.48998284 0.95620513
v 0.08094248 -0.50998425 0.98079503
v 0.06999877 -0.50998425 0.98855400
v 0.05376947 -0.48998284 0.99690986
v 0.04375714 -0.48998284 1.00156522
v 0.04508435 -0.50998425 1.00204265
v 0.00999461 -0.48998284 1.00872731
v 0.02999600 -0.48998284 1.00550437
v -0.00998349 -0.48998284 1.00872731
v -0.02998487 -0.48998284 1.00562370
v -0.07124501 -0.49038154 0.98604727
v -0.08072180 -0.49729234 0.98055637
v -0.04127786 -0.47848696 1.00049090
v -0.04875218 -0.47104457 0.99368691
v -0.06493491 -0.46998137 0.98365986
v -0.10358718 -0.47004783 0.92934716
v -0.10917546 -0.46998137 0.90989006
v -0.10144500 -0.47675925 0.94283581
v -0.11325024 -0.46998137 0.88995552
v -0.11611424 -0.46998137 0.86990154
v -0.09816189 -0.48998284 0.95680201
v -0.11844268 -0.47197485 0.84793770
v -0.12000275 -0.47994888 0.83874631
v -0.11781400 -0.44997990 0.80997849
v -0.11604439 -0.30996966 0.50988561
v -0.11604439 -0.29003462 0.44996256
v -0.11646351 -0.30996966 0.48995107
v -0.09287632 -0.51064879 0.96802258
v -0.08696204 -0.49038154 0.97124553
v -0.11606766 -0.30996966 0.46989712
v -0.11869882 -0.44997990 0.74993604
v -0.11904809 -0.46998137 0.78992450
v -0.11415835 -0.21002877 0.27007395
v -0.11786057 -0.46998137 0.76998997
v -0.11329681 -0.21002877 0.25002003
v -0.10831393 -0.07001853 -0.04995346
v -0.10847692 -0.05001706 -0.04995346
v -0.04667986 0.03291258 -0.20943001
v -0.10291193 -0.02808854 -0.04887915
v -0.10009450 -0.01984873 -0.05484757
v -0.09408711 -0.01194119 -0.04887915
v -0.08265442 0.00281072 -0.04995346
v 0.04762236 0.03178295 -0.20943001
v 0.10010563 -0.01984873 -0.06009981
v 0.10192181 -0.03001559 -0.06463581
v 0.10287648 -0.02815500 -0.04935661
v 0.10995497 -0.17002586 0.25002003
v 0.11144517 -0.17002586 0.23008545
v 0.11212042 -0.17002586 0.21003151
v 0.11284225 -0.19002731 0.25002003
v 0.11281896 -0.19002731 0.23008545
v 0.11721973 -0.42997843 0.70994753
v 0.10723068 -0.46998137 0.90989006
v 0.11402975 -0.46998137 0.86990154
v 0.11111920 -0.46998137 0.88995552
v 0.11610207 -0.46998137 0.84996700
v 0.11412290 -0.42997843 0.78992450
v 0.11409961 -0.44997990 0.82991302
v 0.11759229 -0.42997843 0.72988212
v 0.11768542 -0.44997990 0.76998997
v 0.11717317 -0.42997843 0.74993604
v 0.11603223 -0.42997843 0.76998997
v 0.10266691 -0.47051296 0.92827284
v 0.10113014 -0.47755668 0.94223893
v 0.07875374 -0.48426813 0.97864640
v 0.07123284 -0.49051443 0.98592794
v 0.09356268 -0.47051296 0.94940114
v 0.08371334 -0.46998137 0.96468031
v 0.04142869 -0.47822118 1.00061023
v 0.06496932 -0.46998137 0.98377931
v 0.04885644 -0.47091168 0.99380624
v 0.02999600 -0.47390193 1.00204265
v 0.01092599 -0.46812075 1.00311697
v -0.01007663 -0.46838656 1.00311697
v -0.02998487 -0.47436708 1.00204265
v -0.07874262 -0.48393589 0.97876585
v -0.02998487 -0.46439958 0.99810350
v -0.04998626 -0.45469785 0.98401797
v -0.06118611 -0.45875132 0.98091447
v -0.07494724 -0.46998137 0.97494602
v -0.10083960 -0.45855194 0.92230439
v -0.09820846 -0.46340281 0.93555439
v -0.10263251 -0.45509654 0.90989006
v -0.10465826 -0.44898313 0.89007485
v -0.10971101 -0.44997990 0.86990154
v -0.09418024 -0.47004783 0.94963980
v -0.11332010 -0.44997990 0.84996700
v -0.11599782 -0.44997990 0.82991302
v -0.08407477 -0.46998137 0.96491897
v -0.11481030 -0.30996966 0.52993953
v -0.11557870 -0.29003462 0.46989712
v -0.11378579 -0.19002731 0.25002003
v -0.11366937 -0.19002731 0.23008545
v -0.11222573 -0.17002586 0.23008545
v -0.11075880 -0.17002586 0.25002003
v -0.03890284 0.03969049 -0.20119360
v -0.03259274 0.04307947 -0.20943001
v -0.07187369 0.01304403 -0.02989954
v -0.06225719 0.02148318 -0.04291072
v -0.09995480 -0.02011454 -0.04147828
v -0.08265442 0.00301006 -0.02989954
v 0.04729638 0.03231454 -0.20943001
v 0.10010563 -0.01984873 -0.05568317
v 0.04652799 0.03337774 -0.20943001
v 0.04084657 0.04075369 -0.20943001
v 0.08254911 0.00274429 -0.04995346
v 0.08264224 0.00301006 -0.02989954
v 0.09991935 -0.02018100 -0.04231387
v 0.10872088 -0.15002438 0.21003151
v 0.10762651 -0.17002586 0.27007395
v 0.11267926 -0.34997258 0.62997055
v 0.11321479 -0.36997405 0.66995901
v 0.11046723 -0.19002731 0.29000852
v 0.11205058 -0.19002731 0.27007395
v 0.10655543 -0.15002438 0.23008545
v 0.11647463 -0.38997549 0.66995901
v 0.11691703 -0.40997696 0.70994753
v 0.11721973 -0.40997696 0.68989360
v 0.10152598 -0.45709005 0.90989006
v 0.10015219 -0.45968160 0.92039454
v 0.10790592 -0.42997843 0.82991302
v 0.10355173 -0.42957973 0.84901202
v 0.11144517 -0.42997843 0.80997849
v 0.11395991 -0.40997696 0.74993604
v 0.11132875 -0.40997696 0.76998997
v 0.11582266 -0.40997696 0.72988212
v 0.09766075 -0.46426666 0.93376374
v 0.07498164 -0.46998137 0.97458792
v 0.08371334 -0.45522946 0.94999790
v 0.08061650 -0.45915002 0.96074116
v 0.02999600 -0.46386796 0.99834228
v 0.06122051 -0.45868486 0.98091447
v 0.04999738 -0.45463139 0.98413742
v 0.01823732 -0.46027964 0.99977469
v -0.00348711 -0.45941579 1.00025213
v 0.00489531 -0.45941579 1.00025213
v -0.01680585 -0.46067834 0.99965537
v -0.03063684 -0.44845155 0.98736036
v -0.03773861 -0.44080979 0.97900450
v -0.04998626 -0.44466388 0.97518468
v -0.06116282 -0.43908209 0.96109927
v -0.06784546 -0.45210630 0.96778393
v -0.08093137 -0.45875132 0.96109927
v -0.09059443 -0.44944829 0.93077958
v -0.09646212 -0.44512904 0.90989006
v -0.09897685 -0.44160718 0.89687884
v -0.08435418 -0.45436561 0.94999790
v -0.10104917 -0.43821824 0.88350958
v -0.10281879 -0.43482929 0.86990154
v -0.10465826 -0.42891523 0.85008633
v -0.10952473 -0.42997843 0.82991302
v -0.11292426 -0.42997843 0.80997849
v -0.11273798 -0.30996966 0.54999352
v -0.11227229 -0.29003462 0.50988561
v -0.11432134 -0.29003462 0.48995107
v -0.11306398 -0.19002731 0.27007395
v -0.11148062 -0.19002731 0.29000852
v -0.10840707 -0.17002586 0.27007395
v -0.10719627 -0.15002438 0.23008545
v -0.06188464 0.02121738 -0.02989954
v -0.04998626 0.02706498 -0.02989954
v -0.03128881 0.04354459 -0.20943001
v -0.08097793 0.00108302 -0.01796266
v -0.06023144 0.02015418 -0.01939508
v -0.09159566 -0.01001415 -0.02989954
v -0.10375017 -0.14896119 0.25002003
v -0.10188740 -0.13613632 0.23008545
v -0.10067661 -0.13872787 0.24321601
v 0.03320926 0.04307947 -0.20943001
v 0.02999600 0.03430805 -0.02989954
v 0.04999738 0.02713144 -0.02989954
v 0.06184919 0.02121738 -0.02989954
v 0.06222175 0.02148318 -0.04291072
v 0.07183824 0.01297757 -0.02989954
v 0.09149036 -0.01001415 -0.02989954
v 0.08096577 0.00108302 -0.01796266
v 0.09903453 -0.14191748 0.25586909
v 0.10050146 -0.13906012 0.24249980
v 0.10159583 -0.13666792 0.23008545
v 0.10336545 -0.14916053 0.24954255
v 0.10227108 -0.15507458 0.27007395
v 0.10387771 -0.16876329 0.29060537
v 0.11014125 -0.34997258 0.64990509
v 0.11500770 -0.36997405 0.64990509
v 0.11063021 -0.36997405 0.68989360
v 0.11363392 -0.38997549 0.70994753
v 0.11542682 -0.38997549 0.68989360
v 0.10201496 -0.41609037 0.82991302
v 0.10052474 -0.41901416 0.84173054
v 0.09530902 -0.44705611 0.90989006
v 0.08995359 -0.45037860 0.92922783
v 0.09842914 -0.42266893 0.85509980
v 0.10790592 -0.40997696 0.78992450
v 0.10369144 -0.40937892 0.80914289
v 0.11104934 -0.38997549 0.72988212
v 0.10762651 -0.38997549 0.74993604
v 0.07887016 -0.44107559 0.93806112
v 0.06070825 -0.43941432 0.96074116
v 0.06762375 -0.45230564 0.96742582
v 0.07470223 -0.44519550 0.94999790
v 0.03078767 -0.44845155 0.98759902
v 0.03795930 -0.44074333 0.97912395
v 0.04999738 -0.44459742 0.97482657
v 0.02464056 -0.43848404 0.98151124
v 0.01092599 -0.45164114 0.99404502
v 0.00999461 -0.43735439 0.98270500
v -0.00998349 -0.43742085 0.98258555
v -0.01007663 -0.45164114 0.99392557
v -0.02441988 -0.43861693 0.98139191
v -0.03063684 -0.43290222 0.97136497
v -0.02998487 -0.42213732 0.95632446
v -0.04998626 -0.43602538 0.96515775
v -0.05000954 -0.42579210 0.94952047
v -0.05666891 -0.42160574 0.93686736
v -0.06558688 -0.43556023 0.94999790
v -0.07960415 -0.44034463 0.93937409
v -0.07559921 -0.44433165 0.94999790
v -0.08298039 -0.43668988 0.92600489
v -0.08526228 -0.42997843 0.90809953
v -0.09334199 -0.43090874 0.89007485
v -0.09662512 -0.42479533 0.86990154
v -0.09902342 -0.42153928 0.85689038
v -0.10102588 -0.41828322 0.84364045
v -0.10272565 -0.41502717 0.82991302
v -0.10435556 -0.40904668 0.80973971
v -0.10319135 -0.29362294 0.56992805
v -0.10479797 -0.28850627 0.55094844
v -0.10940830 -0.29003462 0.52993953
v -0.10905904 -0.19002731 0.31006247
v -0.10258594 -0.15460944 0.27007395
v -0.10868648 -0.27003318 0.48995107
v -0.10435556 -0.16856395 0.29108286
v -0.04938086 0.02294508 -0.01163611
v -0.02998487 0.02998880 -0.00996497
v -0.02998487 0.03417516 -0.02989954
v -0.03063684 0.04367751 -0.20943001
v -0.09634569 -0.12616882 0.23008545
v -0.09406382 -0.13128547 0.25002003
v -0.08318995 -0.11633421 0.25002003
v -0.08095464 -0.11899221 0.26243436
v -0.08006984 -0.09992105 0.22029722
v -0.07697299 -0.10277840 0.23366651
v -0.06365426 -0.09726305 0.24655832
v -0.05981232 -0.10012040 0.25980824
v -0.09916313 -0.14158523 0.25658530
v -0.10111903 -0.15786549 0.28499505
v 0.03146292 0.04361105 -0.20943001
v 0.01812090 0.04580390 -0.20943001
v 0.00999461 0.03749764 -0.02989954
v 0.00999461 0.03390935 -0.00996497
v 0.02999600 0.03012168 -0.00996497
v 0.04943855 0.02301154 -0.01163611
v 0.06021928 0.02015418 -0.01951444
v 0.09619384 -0.12663397 0.23008545
v 0.07703069 -0.10277840 0.23354714
v 0.08005767 -0.09992105 0.22029722
v 0.08098905 -0.11892577 0.26255372
v 0.08315451 -0.11626776 0.25002003
v 0.09395851 -0.13141838 0.24954255
v 0.09714849 -0.14510708 0.27007395
v 0.09943037 -0.16125444 0.29764813
v 0.10092059 -0.15819775 0.28439820
v 0.10676499 -0.34997258 0.66995901
v 0.10725397 -0.36997405 0.70994753
v 0.10054803 -0.39901271 0.80198079
v 0.09856884 -0.40240166 0.81535006
v 0.08531997 -0.43336737 0.90989006
v 0.09575142 -0.42658949 0.86990154
v 0.08224641 -0.43735439 0.92469180
v 0.09600756 -0.40605640 0.82991302
v 0.10355173 -0.38951036 0.76891565
v 0.10199167 -0.39622182 0.78992450
v 0.10334218 -0.36964178 0.72868842
v 0.07952213 -0.42040962 0.89914691
v 0.07616916 -0.42333344 0.90989006
v 0.07044117 -0.42971265 0.93042147
v 0.06468990 -0.43615830 0.94999790
v 0.04999738 -0.43642408 0.96491897
v 0.06201218 -0.41848257 0.92278183
v 0.05600478 -0.42213732 0.93603182
v 0.04960154 -0.42639011 0.94928169
v 0.02999600 -0.42227024 0.95596635
v 0.03078767 -0.43296868 0.97148430
v 0.01346400 -0.42054254 0.95895064
v 0.00806200 -0.42619079 0.96790326
v 0.00012198 -0.41994447 0.95990551
v -0.00015743 -0.41994447 0.95990551
v -0.00807416 -0.42625725 0.96790326
v -0.01347616 -0.42054254 0.95895064
v -0.02998487 -0.41648906 0.94629753
v -0.04335018 -0.41848257 0.94271648
v -0.05000954 -0.41496074 0.93006337
v -0.05026567 -0.40472740 0.91000938
v -0.05713460 -0.40140492 0.89711761
v -0.06260645 -0.41808388 0.92349803
v -0.07110530 -0.42918104 0.93137646
v -0.07594848 -0.42333344 0.91359055
v -0.08011641 -0.41981158 0.90022123
v -0.08244485 -0.41728649 0.88995552
v -0.08535542 -0.40991053 0.86811101
v -0.09331872 -0.41090727 0.85008633
v -0.09646212 -0.40499321 0.82991302
v -0.09886043 -0.40173715 0.81630504
v -0.09979181 -0.30033439 0.59917343
v -0.10144500 -0.29734415 0.58592349
v -0.10291193 -0.27435243 0.52993953
v -0.10437885 -0.26883706 0.51036310
v -0.10295850 -0.17368060 0.31006247
v -0.04230237 0.02108449 0.00149444
v -0.00998349 0.03384289 -0.00996497
v -0.03857686 -0.08045119 0.23903809
v -0.02525812 -0.07852413 0.24345474
v -0.02185858 -0.05951943 0.20131759
v -0.00998349 0.03736475 -0.02989954
v -0.01056560 0.04700002 -0.20943001
v -0.01948356 0.04553810 -0.20943001
v -0.09727708 -0.14464194 0.27007395
v -0.08640322 -0.12922552 0.26947713
v -0.08400491 -0.13527247 0.29000852
v -0.08146690 -0.13839562 0.30361655
v -0.07790437 -0.12198247 0.27580366
v -0.06395696 -0.11699872 0.29000852
v -0.06069713 -0.11952381 0.30110982
v -0.05531841 -0.10244615 0.27007395
v -0.04530608 -0.09732950 0.27007395
v -0.04477053 -0.07759383 0.22578818
v -0.09955896 -0.16085574 0.29836434
v -0.10123545 -0.27780783 0.54498005
v 0.00997133 0.04706645 -0.20943001
v -0.00996021 0.04706645 -0.20943001
v -0.00998349 -0.07028432 0.23008545
v 0.00999461 -0.07726158 0.24620022
v 0.02186971 -0.05951943 0.20131759
v 0.04242992 0.02115095 0.00149444
v 0.02538566 -0.07852413 0.24345474
v 0.03872768 -0.08038473 0.23915747
v 0.05998643 -0.10005395 0.26004699
v 0.06371196 -0.09719659 0.24667770
v 0.07800864 -0.12191601 0.27592301
v 0.08632120 -0.12915906 0.26959649
v 0.08152460 -0.13832918 0.30385530
v 0.08401604 -0.13513957 0.29000852
v 0.09486662 -0.15095468 0.29060537
v 0.09770732 -0.16417824 0.31006247
v 0.09984949 -0.32020295 0.63940066
v 0.10133970 -0.33741352 0.66995901
v 0.10345860 -0.33276200 0.64990509
v 0.10306275 -0.34983969 0.68822241
v 0.10043161 -0.37921059 0.76151478
v 0.09842914 -0.38253310 0.77488410
v 0.09584457 -0.38618785 0.78992450
v 0.08573909 -0.41296721 0.86990154
v 0.08254911 -0.41702068 0.88577759
v 0.08601850 -0.39283288 0.82991302
v 0.10029191 -0.35940850 0.72104883
v 0.10161911 -0.35688338 0.70994753
v 0.07975498 -0.40020883 0.85951650
v 0.07654171 -0.40293327 0.86990154
v 0.06231488 -0.39828175 0.88327086
v 0.06615682 -0.41516006 0.90989006
v 0.04266277 -0.41868192 0.94223893
v 0.05668003 -0.40167072 0.89664018
v 0.04960154 -0.41542587 0.92958593
v 0.02999600 -0.41662198 0.94593942
v 0.01942483 -0.40000945 0.91979766
v 0.01164781 -0.40393001 0.92851162
v 0.00806200 -0.41589102 0.95131099
v 0.00610610 -0.39947787 0.92087197
v -0.00656067 -0.39947787 0.92087197
v -0.00807416 -0.41582459 0.95143032
v -0.01990269 -0.39994302 0.91991699
v -0.02998487 -0.40771767 0.92994404
v -0.02998487 -0.40120557 0.91741025
v -0.04379258 -0.39828175 0.90332484
v -0.04372273 -0.37828028 0.86333627
v -0.05021910 -0.38465950 0.87002093
v -0.05706475 -0.38146991 0.85700977
v -0.06269960 -0.39808241 0.88374829
v -0.06956853 -0.41562521 0.90809953
v -0.07601833 -0.40326551 0.87348258
v -0.08009312 -0.39987656 0.86011332
v -0.08237500 -0.39741790 0.84996700
v -0.08644979 -0.39256707 0.82991302
v -0.08458702 -0.29468614 0.62997055
v -0.09520476 -0.29043335 0.59153378
v -0.09809203 -0.30299240 0.60991657
v -0.09769620 -0.28365543 0.56992805
v -0.09953567 -0.28086454 0.55834931
v -0.04060261 -0.09972170 0.28069776
v -0.02998487 -0.09181415 0.27007395
v -0.02998487 -0.09819335 0.28415945
v -0.01559505 -0.12045412 0.33918843
v -0.00998349 -0.10085134 0.29824495
v -0.00998349 -0.08802649 0.27007395
v -0.00998349 -0.07732803 0.24620022
v -0.09494863 -0.15075533 0.29108286
v -0.08717160 -0.14889473 0.31018183
v -0.09723051 -0.26431847 0.52993953
v -0.09464593 -0.27069768 0.55094844
v -0.08363236 -0.25594577 0.54999352
v -0.07841663 -0.14151877 0.31698585
v -0.08151348 -0.27840587 0.60347068
v -0.08111763 -0.25886956 0.56252718
v -0.06470206 -0.13633567 0.33011639
v -0.05501571 -0.12264696 0.31447911
v -0.07781124 -0.26199272 0.57589650
v -0.06370082 -0.25727475 0.58998203
v -0.06044100 -0.25973341 0.60060585
v -0.04835634 -0.10723056 0.28845674
v -0.09785919 -0.16371310 0.31006247
v -0.09923297 -0.26132822 0.51716709
v 0.00999461 -0.08178018 0.25622720
v 0.05197657 -0.09254509 0.25204927
v 0.00999461 -0.10078490 0.29836434
v 0.01590887 -0.12038766 0.33930779
v 0.02999600 -0.10264550 0.29430580
v 0.02999600 -0.09168124 0.27007395
v 0.03123007 -0.08310919 0.25013939
v 0.04075344 -0.09965524 0.28081715
v 0.04555004 -0.09726305 0.27007395
v 0.05556238 -0.10231325 0.27007395
v 0.05523640 -0.12251407 0.31483722
v 0.06087124 -0.11939090 0.30146793
v 0.06415436 -0.11679935 0.29000852
v 0.07416669 -0.12517206 0.29000852
v 0.07859075 -0.14138588 0.31722459
v 0.08452830 -0.15447654 0.33011639
v 0.08175744 -0.29807508 0.64405602
v 0.08448173 -0.29475260 0.62997055
v 0.08708958 -0.14882828 0.31042057
v 0.09828943 -0.32279450 0.64990509
v 0.10010563 -0.33973926 0.68034410
v 0.09831272 -0.36279744 0.73441809
v 0.09563500 -0.36651865 0.74993604
v 0.08585551 -0.37303075 0.78992450
v 0.08562267 -0.35329509 0.74993604
v 0.08275867 -0.39688632 0.84614718
v 0.08268882 -0.37701774 0.80615866
v 0.09810315 -0.34306177 0.69371343
v 0.07977825 -0.38014090 0.81952798
v 0.07665813 -0.38279891 0.82991302
v 0.06243130 -0.37821385 0.84340167
v 0.06655265 -0.39489281 0.86990154
v 0.05686631 -0.38160279 0.85677099
v 0.04336130 -0.39841467 0.90296674
v 0.02999600 -0.40804991 0.92994404
v 0.05002066 -0.39502570 0.88995552
v 0.05002066 -0.40525901 0.90977073
v 0.04354757 -0.37828028 0.86321688
v 0.01164781 -0.39529151 0.91191936
v 0.02999600 -0.40140492 0.91717160
v 0.02026308 -0.37987509 0.88004792
v 0.00999461 -0.37940994 0.88100284
v -0.00998349 -0.37940994 0.88112223
v -0.00998349 -0.38446015 0.89102983
v -0.01193939 -0.40386355 0.92851162
v -0.02998487 -0.39615536 0.90750265
v -0.02046151 -0.37987509 0.88016725
v -0.03380353 -0.38160279 0.87670553
v -0.03385010 -0.36160135 0.83659768
v -0.04339674 -0.35841173 0.82322836
v -0.05021910 -0.37489134 0.85020572
v -0.05003283 -0.36485738 0.82991302
v -0.04167369 -0.27920327 0.66160321
v -0.05673876 -0.36166778 0.81642437
v -0.06092997 -0.27940261 0.64131057
v -0.06253660 -0.37821385 0.84364045
v -0.06961510 -0.39562374 0.86811101
v -0.06952195 -0.38678589 0.85020572
v -0.07678671 -0.38259953 0.82991302
v -0.07983699 -0.38007444 0.81964731
v -0.08176960 -0.29807508 0.64393663
v -0.08416790 -0.27528271 0.58998203
v -0.04169698 -0.11919156 0.32176059
v -0.02998487 -0.11739741 0.32569975
v -0.02998487 -0.11015436 0.31006247
v -0.00935481 -0.11626776 0.33154881
v -0.02998487 -0.25773990 0.62471831
v -0.00998349 -0.24697500 0.60991657
v -0.00227632 -0.11978962 0.34050149
v -0.07830021 -0.28159547 0.61672056
v -0.05450345 -0.26285657 0.61397511
v -0.06935896 -0.27063122 0.60872293
v -0.06442265 -0.27667817 0.62997055
v 0.00256686 -0.11978962 0.34050149
v 0.00999461 -0.10623381 0.31006247
v 0.01884272 -0.14012332 0.37989312
v 0.02999600 -0.11726451 0.32593849
v 0.02999600 -0.10988855 0.31006247
v 0.00999461 -0.24119385 0.59738290
v 0.00999461 -0.24710791 0.60991657
v 0.04191766 -0.11912511 0.32199931
v 0.04846060 -0.10709766 0.28857610
v 0.04857703 -0.26704291 0.62853807
v 0.05491041 -0.28259224 0.65456045
v 0.06084796 -0.27940261 0.64119118
v 0.06501588 -0.13613632 0.33011639
v 0.06429407 -0.27681106 0.62997055
v 0.07500494 -0.14444257 0.33011639
v 0.07868388 -0.30119824 0.65742528
v 0.09493646 -0.32744601 0.66995901
v 0.08206014 -0.31767786 0.68476075
v 0.08494742 -0.31415600 0.66995901
v 0.09535559 -0.34691587 0.70994753
v 0.08252583 -0.35714918 0.76581204
v 0.08236283 -0.33741352 0.72546542
v 0.08534326 -0.33369231 0.70994753
v 0.06224503 -0.35834527 0.80329382
v 0.06664580 -0.37489134 0.82991302
v 0.07956870 -0.36033878 0.77918136
v 0.05677317 -0.36160135 0.81666315
v 0.05011380 -0.37489134 0.85008633
v 0.03360509 -0.38166925 0.87658620
v 0.04345444 -0.35834527 0.82322836
v 0.03379137 -0.36160135 0.83659768
v 0.02999600 -0.39628828 0.90714455
v 0.02815652 -0.38605496 0.88804561
v 0.02047264 -0.35987365 0.84017873
v 0.00999461 -0.35934204 0.84113371
v -0.00998349 -0.36432579 0.85116065
v -0.02828511 -0.38585562 0.88804561
v -0.02828511 -0.37675196 0.87002093
v -0.00998349 -0.35934204 0.84125304
v -0.02050808 -0.35980719 0.84017873
v -0.01978626 -0.34000507 0.79995155
v -0.02998487 -0.30192921 0.71591592
v -0.02998487 -0.26252431 0.63474524
v -0.04116143 -0.25946760 0.62113726
v -0.04870561 -0.26691002 0.62865746
v -0.05501571 -0.28265867 0.65467983
v -0.07443498 -0.28471863 0.62997055
v -0.07857962 -0.30126470 0.65730596
v -0.04020677 -0.23993130 0.58019376
v -0.00998349 -0.25587931 0.62865746
v 0.00999461 -0.25594577 0.62853807
v 0.02999600 -0.12198247 0.33596545
v 0.02999600 -0.25787282 0.62447953
v 0.04003162 -0.23999774 0.57995504
v 0.04096299 -0.25960052 0.62089849
v 0.04156839 -0.27926973 0.66148388
v 0.05598150 -0.32199711 0.73585057
v 0.06129036 -0.29907185 0.68189585
v 0.06496932 -0.29621449 0.66995901
v 0.07498164 -0.30418849 0.66995901
v 0.07556376 -0.32365835 0.70994753
v 0.07903315 -0.32086745 0.69813001
v 0.07935913 -0.34053665 0.73871541
v 0.06201218 -0.33854318 0.76294720
v 0.07602945 -0.34332758 0.74993604
v 0.06170948 -0.31874105 0.72248125
v 0.04305860 -0.33854318 0.78288180
v 0.02999600 -0.34758037 0.80997849
v 0.02827294 -0.35688338 0.82991302
v 0.04263948 -0.31874105 0.74241579
v 0.02999600 -0.30192921 0.71579659
v 0.01965768 -0.34000507 0.79983211
v 0.00999461 -0.35382667 0.82991302
v 0.00631566 -0.33940703 0.80102587
v -0.00644425 -0.33940703 0.80102587
v -0.01186953 -0.34352693 0.80866539
v -0.01564162 -0.30033439 0.71925831
v -0.00998349 -0.26066372 0.63868439
v 0.00999461 -0.26073015 0.63856506
v 0.04957826 -0.31581727 0.72952402
v 0.06557471 -0.31575081 0.70994753
v 0.06604040 -0.33542001 0.74993604
v 0.01178752 -0.34359336 0.80866539
v 0.00203131 -0.29980278 0.72033262
v -0.00229960 -0.29980278 0.72033262
f 1 2 3
f 1 3 4
f 1 4 5
f 1 5 6
f 1 6 2
f 2 7 8
f 2 8 3
f 2 6 7
f 3 9 4
f 3 8 10
f 3 10 11
f 3 11 9
f 4 9 12
f 4 12 13
f 4 13 14
f 4 14 15
f 4 15 5
f 5 15 16
f 5 16 17
f 5 17 18
f 5 18 6
f 6 18 19
f 6 19 20
f 6 20 7
f 7 21 22
f 7 22 23
f 7 23 8
f 7 20 24
f 7 24 21
f 8 23 25
f 8 25 26
f 8 26 10
f 9 27 12
f 9 11 27
f 10 26 28
f 10 28 11
f 11 28 29
f 11 29 27
f 12 27 30
f 12 30 31
f 12 31 13
f 13 31 32
f 13 32 14
f 14 32 33
f 14 33 15
f 15 33 16
f 16 33 34
f 16 34 35
f 16 35 17
f 17 35 36
f 17 36 37
f 17 37 18
f 18 37 38
f 18 38 19
f 19 39 20
f 19 38 40
f 19 40 39
f 20 39 24
f 21 41 22
f 21 24 44
f 21 44 41
f 22 42 43
f 22 43 23
f 22 41 42
f 23 43 25
f 24 39 44
f 25 45 46
f 25 46 26
f 25 43 45
f 26 46 28
f 27 29 47
f 27 47 48
f 27 48 49
f 27 49 30
f 28 46 50
f 28 50 51
f 28 51 29
f 29 51 47
f 30 49 52
f 30 52 31
f 31 52 53
f 31 53 54
f 31 54 55
f 31 55 56
f 31 56 32
f 32 56 57
f 32 57 58
f 32 58 33
f 33 58 59
f 33 59 34
f 34 59 60
f 34 60 61
f 34 61 35
f 35 61 62
f 35 62 63
f 35 63 64
f 35 64 65
f 35 65 36
f 36 65 37
f 37 65 66
f 37 66 38
f 38 66 67
f 38 67 68
f 38 68 69
f 38 69 70
f 38 70 40
f 39 40 71
f 39 71 72
f 39 72 44
f 40 70 73
f 40 73 71
f 41 74 75
f 41 75 76
f 41 76 42
f 41 44 77
f 41 77 78
f 41 78 74
f 42 76 79
f 42 79 43
f 43 79 80
f 43 80 81
f 43 81 45
f 44 72 82
f 44 82 77
f 45 81 83
f 45 83 46
f 46 83 84
f 46 84 50
f 47 51 85
f 47 85 86
f 47 86 87
f 47 87 88
f 47 88 48
f 48 88 49
f 49 88 89
f 49 89 90
f 49 90 91
f 49 91 52
f 50 84 92
f 50 92 51
f 51 92 85
f 52 91 53
f 53 93 94
f 53 94 95
f 53 95 54
f 53 91 96
f 53 96 93
f 54 95 55
f 55 97 98
f 55 98 99
f 55 99 56
f 55 95 94
f 55 94 93
f 55 93 97
f 56 99 57
f 57 99 100
f 57 100 101
f 57 101 58
f 58 101 59
f 59 101 102
f 59 102 60
f 60 102 103
f 60 103 104
f 60 104 105
f 60 105 106
f 60 106 107
f 60 107 61
f 61 107 62
f 62 107 63
f 63 108 64
f 63 107 109
f 63 109 110
f 63 110 111
f 63 111 112
f 63 112 108
f 64 108 113
f 64 113 67
f 64 67 66
f 64 66 65
f 67 113 68
f 68 114 69
f 68 113 115
f 68 115 116
f 68 116 117
f 68 117 118
f 68 118 114
f 69 114 70
f 70 114 73
f 71 119 72
f 71 73 120
f 71 120 119
f 72 119 82
f 73 114 121
f 73 121 122
f 73 122 120
f 74 78 123
f 74 123 75
f 75 123 124
f 75 124 125
f 75 125 126
f 75 126 127
f 75 127 76
f 76 127 79
f 77 82 128
f 77 128 78
f 78 128 129
f 78 129 130
f 78 130 125
f 78 125 124
f 78 124 123
f 79 131 132
f 79 132 133
f 79 133 80
f 79 127 131
f 80 133 81
f 81 134 135
f 81 135 136
f 81 136 83
f 81 133 134
f 82 137 128
f 82 119 137
f 83 136 138
f 83 138 84
f 84 138 92
f 85 92 139
f 85 139 86
f 86 139 140
f 86 140 141
f 86 141 142
f 86 142 87
f 87 142 88
f 88 142 143
f 88 143 144
f 88 144 89
f 89 144 90
f 90 144 145
f 90 145 146
f 90 146 147
f 90 147 96
f 90 96 91
f 92 138 148
f 92 148 149
f 92 149 139
f 93 96 147
f 93 147 150
f 93 150 151
f 93 151 152
f 93 152 97
f 97 152 153
f 97 153 154
f 97 154 155
f 97 155 98
f 98 155 99
f 99 155 100
f 100 155 156
f 100 156 157
f 100 157 101
f 101 157 158
f 101 158 159
f 101 159 102
f 102 159 104
f 102 104 103
f 104 106 105
f 104 159 160
f 104 160 161
f 104 161 106
f 106 161 162
f 106 162 110
f 106 110 107
f 107 110 109
f 108 115 113
f 108 112 116
f 108 116 115
f 110 162 161
f 110 161 163
f 110 163 164
f 110 164 165
f 110 165 166
f 110 166 167
f 110 167 111
f 111 167 168
f 111 168 112
f 112 168 169
f 112 169 170
f 112 170 116
f 114 118 121
f 116 170 117
f 117 170 169
f 117 169 171
f 117 171 172
f 117 172 173
f 117 173 118
f 118 173 174
f 118 174 175
f 118 175 176
f 118 176 177
f 118 177 121
f 119 120 178
f 119 178 179
f 119 179 180
f 119 180 137
f 120 122 178
f 121 181 122
f 121 177 182
f 121 182 181
f 122 181 183
f 122 183 178
f 125 184 185
f 125 185 186
f 125 186 126
f 125 130 187
f 125 187 184
f 126 186 131
f 126 131 127
f 128 137 188
f 128 188 129
f 129 188 130
f 130 188 189
f 130 189 190
f 130 190 187
f 131 191 192
f 131 192 132
f 131 186 193
f 131 193 191
f 132 192 133
f 133 192 194
f 133 194 134
f 134 194 195
f 134 195 135
f 135 195 196
f 135 196 197
f 135 197 198
f 135 198 136
f 136 198 138
f 137 180 199
f 137 199 188
f 138 198 148
f 139 149 200
f 139 200 140
f 140 200 201
f 140 201 202
f 140 202 141
f 141 203 142
f 141 202 204
f 141 204 203
f 142 203 205
f 142 205 143
f 143 205 144
f 144 205 206
f 144 206 145
f 145 206 146
f 146 207 150
f 146 150 147
f 146 206 208
f 146 208 209
f 146 209 207
f 148 198 210
f 148 210 200
f 148 200 149
f 150 207 211
f 150 211 151
f 151 211 212
f 151 212 152
f 152 212 213
f 152 213 153
f 153 213 214
f 153 214 215
f 153 215 154
f 154 215 216
f 154 216 217
f 154 217 155
f 155 217 156
f 156 217 218
f 156 218 157
f 157 218 219
f 157 219 220
f 157 220 221
f 157 221 158
f 158 221 159
f 159 222 160
f 159 221 223
f 159 223 222
f 160 222 223
f 160 223 161
f 161 224 225
f 161 225 164
f 161 164 163
f 161 223 226
f 161 226 224
f 164 225 227
f 164 227 228
f 164 228 165
f 165 228 292
f 165 292 351
f 165 351 407
f 165 407 471
f 165 471 530
f 165 530 595
f 165 595 669
f 165 669 749
f 165 749 748
f 165 748 763
f 165 763 762
f 165 762 681
f 165 681 680
f 165 680 602
f 165 602 538
f 165 538 537
f 165 537 535
f 165 535 476
f 165 476 412
f 165 412 353
f 165 353 293
f 165 293 232
f 165 232 174
f 165 174 173
f 165 173 172
f 165 172 231
f 165 231 230
f 165 230 229
f 165 229 167
f 165 167 166
f 167 229 168
f 168 229 169
f 169 229 230
f 169 230 231
f 169 231 172
f 169 172 171
f 174 232 233
f 174 233 234
f 174 234 175
f 175 234 235
f 175 235 176
f 176 235 182
f 176 182 177
f 178 183 236
f 178 236 237
f 178 237 238
f 178 238 179
f 179 238 180
f 180 238 237
f 180 237 239
f 180 239 240
f 180 240 199
f 181 182 183
f 182 235 241
f 182 241 242
f 182 242 237
f 182 237 243
f 182 243 183
f 183 243 236
f 184 244 185
f 184 187 245
f 184 245 244
f 185 246 193
f 185 193 186
f 185 244 246
f 187 190 247
f 187 247 245
f 188 199 248
f 188 248 189
f 189 248 249
f 189 249 250
f 189 250 190
f 190 250 251
f 190 251 247
f 191 252 192
f 191 193 252
f 192 252 253
f 192 253 194
f 193 246 254
f 193 254 255
f 193 255 252
f 194 253 195
f 195 256 196
f 195 253 256
f 196 256 257
f 196 257 258
f 196 258 197
f 197 258 259
f 197 259 210
f 197 210 198
f 199 240 248
f 200 210 260
f 200 260 261
f 200 261 201
f 201 261 262
f 201 262 263
f 201 263 202
f 202 263 264
f 202 264 204
f 203 265 205
f 203 204 266
f 203 266 265
f 204 264 267
f 204 267 266
f 205 265 206
f 206 265 268
f 206 268 208
f 207 209 269
f 207 269 270
f 207 270 211
f 208 268 271
f 208 271 209
f 209 271 272
f 209 272 269
f 210 259 260
f 211 270 273
f 211 273 212
f 212 273 274
f 212 274 275
f 212 275 213
f 213 275 276
f 213 276 214
f 214 276 277
f 214 277 215
f 215 277 216
f 216 218 217
f 216 277 278
f 216 278 279
f 216 279 280
f 216 280 218
f 218 280 281
f 218 281 219
f 219 281 282
f 219 282 220
f 220 282 283
f 220 283 226
f 220 226 223
f 220 223 221
f 224 284 285
f 224 285 286
f 224 286 227
f 224 227 225
f 224 226 283
f 224 283 287
f 224 287 288
f 224 288 289
f 224 289 290
f 224 290 284
f 227 291 228
f 227 286 291
f 228 291 292
f 232 293 294
f 232 294 233
f 233 294 295
f 233 295 296
f 233 296 234
f 234 296 241
f 234 241 235
f 236 243 237
f 237 242 297
f 237 297 298
f 237 298 239
f 239 298 240
f 240 298 299
f 240 299 248
f 241 296 295
f 241 295 300
f 241 300 301
f 241 301 302
f 241 302 303
f 241 303 304
f 241 304 298
f 241 298 297
f 241 297 242
f 244 305 246
f 244 245 306
f 244 306 305
f 245 247 307
f 245 307 308
f 245 308 306
f 246 309 254
f 246 305 309
f 247 251 310
f 247 310 307
f 248 299 249
f 249 299 311
f 249 311 312
f 249 312 250
f 250 312 313
f 250 313 251
f 251 313 310
f 252 314 315
f 252 315 256
f 252 256 253
f 252 255 314
f 254 316 317
f 254 317 255
f 254 309 316
f 255 317 314
f 256 315 318
f 256 318 257
f 257 319 320
f 257 320 258
f 257 318 319
f 258 320 321
f 258 321 259
f 259 321 322
f 259 322 260
f 260 322 262
f 260 262 261
f 262 323 324
f 262 324 263
f 262 322 323
f 263 324 325
f 263 325 264
f 264 325 326
f 264 326 267
f 265 266 327
f 265 327 268
f 266 328 327
f 266 267 328
f 267 329 328
f 267 326 330
f 267 330 329
f 268 327 271
f 269 331 332
f 269 332 270
f 269 272 331
f 270 332 333
f 270 333 273
f 271 327 334
f 271 334 335
f 271 335 272
f 272 335 336
f 272 336 331
f 273 333 337
f 273 337 338
f 273 338 274
f 274 338 339
f 274 339 275
f 275 339 340
f 275 340 276
f 276 340 341
f 276 341 342
f 276 342 277
f 277 342 343
f 277 343 278
f 278 343 344
f 278 344 279
f 279 281 280
f 279 344 290
f 279 290 289
f 279 289 281
f 281 289 282
f 282 289 288
f 282 288 287
f 282 287 283
f 284 345 285
f 284 290 344
f 284 344 346
f 284 346 347
f 284 347 341
f 284 341 348
f 284 348 349
f 284 349 345
f 285 350 291
f 285 291 286
f 285 345 350
f 291 350 292
f 292 350 352
f 292 352 351
f 293 353 354
f 293 354 294
f 294 354 355
f 294 355 356
f 294 356 295
f 295 356 357
f 295 357 358
f 295 358 300
f 298 304 303
f 298 303 359
f 298 359 299
f 299 359 303
f 299 303 311
f 300 358 301
f 301 358 311
f 301 311 302
f 302 311 303
f 305 360 309
f 305 306 361
f 305 361 360
f 306 308 362
f 306 362 363
f 306 363 361
f 307 310 370
f 307 370 364
f 307 364 365
f 307 365 308
f 308 365 362
f 309 360 366
f 309 366 367
f 309 367 316
f 310 313 368
f 310 368 369
f 310 369 370
f 311 358 371
f 311 371 312
f 312 371 372
f 312 372 313
f 313 372 368
f 314 317 373
f 314 373 374
f 314 374 315
f 315 374 318
f 316 367 375
f 316 375 317
f 317 375 376
f 317 376 377
f 317 377 373
f 318 374 378
f 318 378 319
f 319 378 379
f 319 379 380
f 319 380 320
f 320 380 381
f 320 381 321
f 321 381 323
f 321 323 322
f 323 382 324
f 323 381 383
f 323 383 382
f 324 382 384
f 324 384 325
f 325 384 385
f 325 385 326
f 326 385 330
f 327 328 386
f 327 386 334
f 328 387 386
f 328 329 387
f 329 330 388
f 329 388 389
f 329 389 387
f 330 385 388
f 331 390 391
f 331 391 332
f 331 336 392
f 331 392 390
f 332 391 393
f 332 393 333
f 333 393 394
f 333 394 395
f 333 395 396
f 333 396 337
f 334 386 335
f 335 397 336
f 335 386 398
f 335 398 397
f 336 397 399
f 336 399 392
f 337 396 400
f 337 400 401
f 337 401 338
f 338 401 402
f 338 402 339
f 339 402 403
f 339 403 340
f 340 403 349
f 340 349 341
f 341 349 348
f 341 347 342
f 342 347 343
f 343 347 346
f 343 346 344
f 345 404 405
f 345 405 350
f 345 349 406
f 345 406 404
f 349 403 406
f 350 405 352
f 351 352 408
f 351 408 409
f 351 409 410
f 351 410 411
f 351 411 407
f 352 405 408
f 353 412 413
f 353 413 355
f 353 355 354
f 355 413 414
f 355 414 415
f 355 415 416
f 355 416 417
f 355 417 418
f 355 418 419
f 355 419 420
f 355 420 356
f 356 420 421
f 356 421 357
f 357 421 370
f 357 370 422
f 357 422 423
f 357 423 358
f 358 423 372
f 358 372 371
f 360 424 366
f 360 361 425
f 360 425 424
f 361 363 426
f 361 426 427
f 361 427 425
f 362 365 428
f 362 428 419
f 362 419 363
f 363 419 429
f 363 429 426
f 364 370 421
f 364 421 365
f 365 421 428
f 366 424 430
f 366 430 431
f 366 431 367
f 367 431 434
f 367 434 375
f 368 372 423
f 368 423 369
f 369 423 422
f 369 422 370
f 373 377 374
f 374 377 378
f 375 432 433
f 375 433 376
f 375 434 432
f 376 433 435
f 376 435 377
f 377 435 436
f 377 436 378
f 378 436 379
f 379 437 438
f 379 438 439
f 379 439 380
f 379 436 437
f 380 439 383
f 380 383 381
f 382 440 384
f 382 383 441
f 382 441 440
f 383 439 438
f 383 438 441
f 384 440 442
f 384 442 385
f 385 442 443
f 385 443 388
f 386 387 398
f 387 444 445
f 387 445 398
f 387 389 444
f 388 443 446
f 388 446 389
f 389 446 447
f 389 447 448
f 389 448 444
f 390 449 450
f 390 450 391
f 390 392 451
f 390 451 449
f 391 450 452
f 391 452 453
f 391 453 393
f 392 399 454
f 392 454 451
f 393 453 455
f 393 455 395
f 393 395 394
f 395 456 400
f 395 400 396
f 395 455 457
f 395 457 458
f 395 458 459
f 395 459 460
f 395 460 456
f 397 398 461
f 397 461 399
f 398 445 461
f 399 461 445
f 399 445 462
f 399 462 454
f 400 463 464
f 400 464 465
f 400 465 401
f 400 456 460
f 400 460 466
f 400 466 463
f 401 465 402
f 402 465 467
f 402 467 406
f 402 406 403
f 404 468 405
f 404 406 467
f 404 467 468
f 405 469 470
f 405 470 409
f 405 409 408
f 405 468 469
f 407 411 471
f 409 470 410
f 410 470 411
f 411 470 472
f 411 472 473
f 411 473 474
f 411 474 475
f 411 475 471
f 412 476 477
f 412 477 478
f 412 478 414
f 412 414 413
f 414 478 415
f 415 478 477
f 415 477 479
f 415 479 480
f 415 480 481
f 415 481 482
f 415 482 483
f 415 483 484
f 415 484 416
f 416 484 417
f 417 484 485
f 417 485 418
f 418 485 419
f 419 428 420
f 419 485 429
f 420 428 421
f 424 486 430
f 424 425 487
f 424 487 488
f 424 488 486
f 425 427 489
f 425 489 490
f 425 490 491
f 425 491 487
f 426 429 492
f 426 492 493
f 426 493 494
f 426 494 427
f 427 494 495
f 427 495 489
f 429 485 492
f 430 486 496
f 430 496 497
f 430 497 431
f 431 497 434
f 432 434 498
f 432 498 433
f 433 498 499
f 433 499 436
f 433 436 435
f 434 497 500
f 434 500 501
f 434 501 498
f 436 499 437
f 437 502 438
f 437 499 503
f 437 503 504
f 437 504 502
f 438 502 441
f 440 441 505
f 440 505 506
f 440 506 442
f 441 502 505
f 442 506 507
f 442 507 508
f 442 508 443
f 443 508 446
f 444 448 509
f 444 509 445
f 445 509 462
f 446 510 447
f 446 508 510
f 447 511 512
f 447 512 448
f 447 510 511
f 448 512 513
f 448 513 509
f 449 514 450
f 449 451 515
f 449 515 514
f 450 514 516
f 450 516 517
f 450 517 518
f 450 518 452
f 451 454 519
f 451 519 515
f 452 518 520
f 452 520 453
f 453 520 521
f 453 521 457
f 453 457 455
f 454 462 509
f 454 509 522
f 454 522 519
f 457 521 523
f 457 523 458
f 458 523 524
f 458 524 525
f 458 525 459
f 459 525 466
f 459 466 460
f 463 466 468
f 463 468 464
f 464 467 465
f 464 468 467
f 466 525 526
f 466 526 468
f 468 526 469
f 469 526 470
f 470 526 525
f 470 525 527
f 470 527 528
f 470 528 472
f 471 529 530
f 471 475 531
f 471 531 532
f 471 532 529
f 472 533 473
f 472 528 533
f 473 533 534
f 473 534 474
f 474 534 475
f 475 534 531
f 476 535 477
f 477 536 479
f 477 535 537
f 477 537 538
f 477 538 539
f 477 539 540
f 477 540 536
f 479 536 541
f 479 541 542
f 479 542 480
f 480 543 544
f 480 544 545
f 480 545 546
f 480 546 547
f 480 547 481
f 480 542 548
f 480 548 543
f 481 547 483
f 481 483 482
f 483 547 549
f 483 549 550
f 483 550 551
f 483 551 484
f 484 551 492
f 484 492 485
f 486 552 553
f 486 553 496
f 486 488 554
f 486 554 555
f 486 555 552
f 487 491 556
f 487 556 488
f 488 556 554
f 489 495 490
f 490 495 557
f 490 557 558
f 490 558 556
f 490 556 491
f 492 494 493
f 492 551 550
f 492 550 494
f 494 550 559
f 494 559 495
f 495 559 557
f 496 560 497
f 496 553 560
f 497 560 500
f 498 503 499
f 498 501 561
f 498 561 503
f 500 560 562
f 500 562 563
f 500 563 501
f 501 563 561
f 502 504 564
f 502 564 505
f 503 561 565
f 503 565 504
f 504 565 566
f 504 566 564
f 505 564 567
f 505 567 506
f 506 568 507
f 506 567 569
f 506 569 568
f 507 568 570
f 507 570 508
f 508 570 510
f 509 513 522
f 510 570 571
f 510 571 511
f 511 571 572
f 511 572 573
f 511 573 512
f 512 573 574
f 512 574 575
f 512 575 576
f 512 576 513
f 513 576 522
f 514 515 577
f 514 577 578
f 514 578 579
f 514 579 516
f 515 519 576
f 515 576 580
f 515 580 577
f 516 579 581
f 516 581 517
f 517 581 582
f 517 582 583
f 517 583 518
f 518 583 584
f 518 584 520
f 519 522 576
f 520 584 585
f 520 585 521
f 521 585 586
f 521 586 523
f 523 586 587
f 523 587 588
f 523 588 524
f 524 588 589
f 524 589 525
f 525 589 527
f 527 589 528
f 528 589 590
f 528 590 591
f 528 591 592
f 528 592 533
f 529 532 593
f 529 593 594
f 529 594 530
f 530 594 595
f 531 534 596
f 531 596 597
f 531 597 593
f 531 593 532
f 533 598 534
f 533 592 599
f 533 599 600
f 533 600 601
f 533 601 598
f 534 598 596
f 536 540 541
f 538 602 603
f 538 603 604
f 538 604 605
f 538 605 606
f 538 606 607
f 538 607 540
f 538 540 539
f 540 608 541
f 540 607 609
f 540 609 608
f 541 608 610
f 541 610 611
f 541 611 612
f 541 612 613
f 541 613 548
f 541 548 542
f 543 548 613
f 543 613 614
f 543 614 615
f 543 615 616
f 543 616 544
f 544 616 545
f 545 617 546
f 545 616 618
f 545 618 628
f 545 628 619
f 545 619 620
f 545 620 617
f 546 617 547
f 547 617 549
f 549 617 550
f 550 617 620
f 550 620 559
f 552 555 621
f 552 621 622
f 552 622 553
f 553 623 624
f 553 624 560
f 553 622 625
f 553 625 623
f 554 556 626
f 554 626 627
f 554 627 621
f 554 621 555
f 556 558 626
f 557 559 619
f 557 619 628
f 557 628 558
f 558 628 629
f 558 629 626
f 559 620 619
f 560 624 562
f 561 563 565
f 562 624 630
f 562 630 563
f 563 631 632
f 563 632 565
f 563 630 633
f 563 633 631
f 564 566 634
f 564 634 567
f 565 635 566
f 565 632 631
f 565 631 636
f 565 636 635
f 566 635 634
f 567 634 637
f 567 637 638
f 567 638 569
f 568 639 640
f 568 640 641
f 568 641 570
f 568 569 639
f 569 638 639
f 570 641 642
f 570 642 571
f 571 642 572
f 572 642 643
f 572 643 644
f 572 644 645
f 572 645 573
f 573 645 574
f 574 576 575
f 574 645 646
f 574 646 647
f 574 647 648
f 574 648 649
f 574 649 650
f 574 650 576
f 576 650 649
f 576 649 580
f 577 580 649
f 577 649 651
f 577 651 578
f 578 651 652
f 578 652 653
f 578 653 579
f 579 653 654
f 579 654 655
f 579 655 581
f 581 655 656
f 581 656 582
f 582 656 657
f 582 657 583
f 583 657 584
f 584 657 658
f 584 658 659
f 584 659 660
f 584 660 661
f 584 661 585
f 585 661 587
f 585 587 586
f 587 661 662
f 587 662 590
f 587 590 588
f 588 590 589
f 590 662 591
f 591 663 599
f 591 599 592
f 591 662 661
f 591 661 664
f 591 664 665
f 591 665 663
f 593 597 594
f 594 597 666
f 594 666 667
f 594 667 668
f 594 668 595
f 595 668 669
f 596 598 670
f 596 670 671
f 596 671 672
f 596 672 673
f 596 673 674
f 596 674 675
f 596 675 597
f 597 675 676
f 597 676 677
f 597 677 666
f 598 601 678
f 598 678 670
f 599 663 601
f 599 601 600
f 601 663 679
f 601 679 678
f 602 680 603
f 603 680 681
f 603 681 682
f 603 682 683
f 603 683 684
f 603 684 604
f 604 684 685
f 604 685 686
f 604 686 605
f 605 686 607
f 605 607 606
f 607 686 609
f 608 609 687
f 608 687 610
f 609 686 688
f 609 688 689
f 609 689 690
f 609 690 691
f 609 691 692
f 609 692 687
f 610 687 692
f 610 692 693
f 610 693 694
f 610 694 695
f 610 695 611
f 611 695 614
f 611 614 613
f 611 613 612
f 614 695 696
f 614 696 615
f 615 696 616
f 616 696 697
f 616 697 618
f 618 697 628
f 621 627 698
f 621 698 622
f 622 698 699
f 622 699 625
f 623 700 624
f 623 625 701
f 623 701 700
f 624 702 630
f 624 700 702
f 625 699 703
f 625 703 701
f 626 629 704
f 626 704 627
f 627 704 705
f 627 705 698
f 628 697 629
f 629 697 706
f 629 706 704
f 630 702 707
f 630 707 708
f 630 708 709
f 630 709 710
f 630 710 631
f 630 631 633
f 631 711 635
f 631 635 636
f 631 710 712
f 631 712 713
f 631 713 714
f 631 714 711
f 634 635 637
f 635 711 715
f 635 715 716
f 635 716 637
f 637 639 638
f 637 716 717
f 637 717 718
f 637 718 639
f 639 718 719
f 639 719 720
f 639 720 640
f 640 642 641
f 640 720 721
f 640 721 642
f 642 721 722
f 642 722 644
f 642 644 643
f 644 723 724
f 644 724 645
f 644 722 723
f 645 724 646
f 646 724 647
f 647 725 726
f 647 726 727
f 647 727 728
f 647 728 648
f 647 724 725
f 648 728 649
f 649 728 729
f 649 729 730
f 649 730 731
f 649 731 651
f 651 731 652
f 652 731 732
f 652 732 653
f 653 732 654
f 654 732 733
f 654 733 734
f 654 734 735
f 654 735 655
f 655 735 736
f 655 736 656
f 656 736 737
f 656 737 657
f 657 737 738
f 657 738 658
f 658 738 659
f 659 738 739
f 659 739 660
f 660 739 740
f 660 740 661
f 661 740 741
f 661 741 665
f 661 665 664
f 663 665 741
f 663 741 679
f 666 677 742
f 666 742 667
f 667 743 668
f 667 742 744
f 667 744 745
f 667 745 746
f 667 746 743
f 668 747 748
f 668 748 749
f 668 749 669
f 668 743 747
f 670 678 671
f 671 678 750
f 671 750 751
f 671 751 672
f 672 751 752
f 672 752 673
f 673 675 674
f 673 752 753
f 673 753 754
f 673 754 675
f 675 754 676
f 676 754 755
f 676 755 677
f 677 755 756
f 677 756 757
f 677 757 758
f 677 758 759
f 677 759 742
f 678 679 760
f 678 760 750
f 679 741 739
f 679 739 761
f 679 761 760
f 681 762 682
f 682 762 763
f 682 763 747
f 682 747 743
f 682 743 683
f 683 743 764
f 683 764 765
f 683 765 766
f 683 766 684
f 684 767 685
f 684 766 768
f 684 768 769
f 684 769 767
f 685 767 770
f 685 770 686
f 686 770 771
f 686 771 688
f 688 771 772
f 688 772 690
f 688 690 689
f 690 773 691
f 690 772 774
f 690 774 775
f 690 775 773
f 691 773 692
f 692 773 693
f 693 773 776
f 693 776 777
f 693 777 694
f 694 777 778
f 694 778 695
f 695 778 779
f 695 779 780
f 695 780 696
f 696 780 781
f 696 781 697
f 697 781 706
f 698 705 782
f 698 782 783
f 698 783 699
f 699 783 784
f 699 784 703
f 700 701 785
f 700 785 786
f 700 786 702
f 701 703 785
f 702 786 707
f 703 784 787
f 703 787 785
f 704 706 705
f 705 788 782
f 705 706 789
f 705 789 788
f 706 781 789
f 707 786 790
f 707 790 791
f 707 791 792
f 707 792 793
f 707 793 712
f 707 712 708
f 708 712 709
f 709 712 710
f 711 714 794
f 711 794 715
f 712 793 792
f 712 792 795
f 712 795 713
f 713 795 796
f 713 796 794
f 713 794 714
f 715 794 797
f 715 797 717
f 715 717 716
f 717 719 718
f 717 797 798
f 717 798 799
f 717 799 800
f 717 800 719
f 719 800 799
f 719 799 801
f 719 801 802
f 719 802 720
f 720 802 803
f 720 803 722
f 720 722 721
f 722 803 804
f 722 804 723
f 723 804 805
f 723 805 724
f 724 805 806
f 724 806 807
f 724 807 725
f 725 807 726
f 726 807 727
f 727 807 808
f 727 808 809
f 727 809 810
f 727 810 811
f 727 811 728
f 728 812 730
f 728 730 729
f 728 811 812
f 730 812 731
f 731 811 813
f 731 813 814
f 731 814 732
f 731 812 811
f 732 814 815
f 732 815 733
f 733 815 816
f 733 816 734
f 734 816 735
f 735 816 817
f 735 817 818
f 735 818 736
f 736 818 819
f 736 819 737
f 737 819 820
f 737 820 821
f 737 821 761
f 737 761 738
f 738 761 739
f 739 741 740
f 742 759 744
f 743 746 764
f 744 759 822
f 744 822 823
f 744 823 745
f 745 823 824
f 745 824 825
f 745 825 826
f 745 826 827
f 745 827 828
f 745 828 746
f 746 828 764
f 747 763 748
f 750 760 829
f 750 829 751
f 751 829 752
f 752 829 830
f 752 830 831
f 752 831 832
f 752 832 833
f 752 833 753
f 753 834 754
f 753 833 835
f 753 835 836
f 753 836 834
f 754 834 755
f 755 834 837
f 755 837 756
f 756 838 757
f 756 837 839
f 756 839 840
f 756 840 841
f 756 841 838
f 757 838 842
f 757 842 822
f 757 822 758
f 758 822 759
f 760 843 829
f 760 761 821
f 760 821 844
f 760 844 843
f 764 828 765
f 765 828 827
f 765 827 845
f 765 845 768
f 765 768 766
f 767 769 846
f 767 846 770
f 768 845 847
f 768 847 848
f 768 848 849
f 768 849 850
f 768 850 851
f 768 851 769
f 769 851 850
f 769 850 852
f 769 852 853
f 769 853 846
f 770 846 853
f 770 853 854
f 770 854 855
f 770 855 856
f 770 856 857
f 770 857 772
f 770 772 771
f 772 857 858
f 772 858 859
f 772 859 774
f 773 775 776
f 774 860 775
f 774 859 861
f 774 861 862
f 774 862 860
f 775 860 863
f 775 863 776
f 776 863 864
f 776 864 778
f 776 778 777
f 778 864 865
f 778 865 779
f 779 865 789
f 779 789 781
f 779 781 780
f 782 788 783
f 783 788 866
f 783 866 867
f 783 867 784
f 784 868 787
f 784 867 869
f 784 869 868
f 785 787 870
f 785 870 786
f 786 870 790
f 787 868 871
f 787 871 870
f 788 789 865
f 788 865 872
f 788 872 866
f 790 870 873
f 790 873 874
f 790 874 875
f 790 875 876
f 790 876 792
f 790 792 791
f 792 876 875
f 792 875 877
f 792 877 795
f 794 796 878
f 794 878 879
f 794 879 797
f 795 880 878
f 795 878 881
f 795 881 796
f 795 877 882
f 795 882 880
f 796 881 878
f 797 879 798
f 798 883 801
f 798 801 799
f 798 879 884
f 798 884 885
f 798 885 886
f 798 886 883
f 801 883 886
f 801 886 887
f 801 887 802
f 802 887 888
f 802 888 804
f 802 804 889
f 802 889 803
f 803 889 804
f 804 890 806
f 804 806 805
f 804 888 887
f 804 887 891
f 804 891 890
f 806 890 892
f 806 892 807
f 807 892 808
f 808 893 894
f 808 894 895
f 808 895 810
f 808 810 809
f 808 892 893
f 810 895 894
f 810 894 896
f 810 896 897
f 810 897 898
f 810 898 899
f 810 899 900
f 810 900 811
f 811 900 901
f 811 901 813
f 813 901 814
f 814 901 902
f 814 902 903
f 814 903 904
f 814 904 815
f 815 904 835
f 815 835 905
f 815 905 816
f 816 905 835
f 816 835 817
f 817 835 906
f 817 906 818
f 818 906 832
f 818 832 831
f 818 831 820
f 818 820 819
f 820 831 821
f 821 831 844
f 822 842 907
f 822 907 908
f 822 908 909
f 822 909 824
f 822 824 823
f 824 909 825
f 825 910 826
f 825 909 908
f 825 908 911
f 825 911 912
f 825 912 910
f 826 910 913
f 826 913 827
f 827 913 845
f 829 843 831
f 829 831 830
f 831 843 844
f 832 906 833
f 833 906 835
f 834 836 839
f 834 839 837
f 835 914 839
f 835 839 836
f 835 904 914
f 838 907 842
f 838 841 915
f 838 915 907
f 839 914 916
f 839 916 840
f 840 916 917
f 840 917 841
f 841 917 899
f 841 899 915
f 845 913 918
f 845 918 847
f 847 918 919
f 847 919 848
f 848 920 921
f 848 921 922
f 848 922 849
f 848 919 918
f 848 918 923
f 848 923 924
f 848 924 920
f 849 922 852
f 849 852 850
f 852 922 925
f 852 925 855
f 852 855 926
f 852 926 854
f 852 854 853
f 854 926 855
f 855 925 927
f 855 927 928
f 855 928 929
f 855 929 856
f 856 930 859
f 856 859 857
f 856 929 931
f 856 931 930
f 857 859 858
f 859 930 932
f 859 932 933
f 859 933 861
f 860 862 934
f 860 934 863
f 861 933 935
f 861 935 936
f 861 936 862
f 862 936 934
f 863 934 864
f 864 934 872
f 864 872 865
f 866 872 937
f 866 937 867
f 867 937 940
f 867 940 869
f 868 869 938
f 868 938 871
f 869 939 938
f 869 940 939
f 870 871 873
f 871 938 873
f 872 934 937
f 873 941 942
f 873 942 875
f 873 875 874
f 873 938 943
f 873 943 941
f 875 942 941
f 875 941 944
f 875 944 877
f 877 944 945
f 877 945 882
f 878 946 884
f 878 884 879
f 878 880 882
f 878 882 946
f 882 945 947
f 882 947 948
f 882 948 946
f 884 949 885
f 884 946 949
f 885 949 950
f 885 950 946
f 885 946 948
f 885 948 951
f 885 951 952
f 885 952 886
f 886 952 953
f 886 953 887
f 887 953 891
f 890 891 954
f 890 954 892
f 891 955 954
f 891 953 956
f 891 956 957
f 891 957 955
f 892 954 955
f 892 955 893
f 893 955 957
f 893 957 958
f 893 958 959
f 893 959 960
f 893 960 897
f 893 897 894
f 894 897 896
f 897 960 961
f 897 961 962
f 897 962 963
f 897 963 898
f 898 963 899
f 899 963 915
f 899 917 903
f 899 903 900
f 900 903 902
f 900 902 901
f 903 917 904
f 904 917 964
f 904 964 965
f 904 965 914
f 907 915 961
f 907 961 966
f 907 966 908
f 908 966 911
f 910 912 913
f 911 966 961
f 911 961 960
f 911 960 995
f 911 995 967
f 911 967 912
f 912 967 968
f 912 968 924
f 912 924 918
f 912 918 913
f 914 964 916
f 914 965 964
f 915 963 962
f 915 962 961
f 916 964 917
f 918 924 923
f 920 969 921
f 920 924 970
f 920 970 969
f 921 969 925
f 921 925 922
f 924 968 970
f 925 969 971
f 925 971 972
f 925 972 927
f 927 972 928
f 928 972 973
f 928 973 974
f 928 974 975
f 928 975 929
f 929 975 976
f 929 976 931
f 930 931 933
f 930 933 932
f 931 976 933
f 933 976 977
f 933 977 978
f 933 978 979
f 933 979 935
f 934 936 937
f 935 979 980
f 935 980 939
f 935 939 936
f 936 939 940
f 936 940 937
f 938 939 943
f 939 980 943
f 941 943 981
f 941 981 944
f 943 980 982
f 943 982 981
f 944 947 945
f 944 981 983
f 944 983 974
f 944 974 984
f 944 984 947
f 946 950 949
f 947 984 948
f 948 985 986
f 948 986 951
f 948 984 987
f 948 987 988
f 948 988 985
f 951 986 985
f 951 985 989
f 951 989 990
f 951 990 952
f 952 990 991
f 952 991 956
f 952 956 953
f 956 992 993
f 956 993 957
f 956 991 992
f 957 993 958
f 958 993 994
f 958 994 960
f 958 960 959
f 960 994 995
f 967 995 996
f 967 996 968
f 968 996 970
f 969 970 971
f 970 996 989
f 970 989 988
f 970 988 973
f 970 973 972
f 970 972 971
f 973 988 987
f 973 987 997
f 973 997 974
f 974 983 975
f 974 997 984
f 975 983 976
f 976 983 998
f 976 998 978
f 976 978 977
f 978 998 980
f 978 980 979
f 980 998 983
f 980 983 999
f 980 999 982
f 981 982 999
f 981 999 983
f 984 997 987
f 985 988 989
f 989 1000 990
f 989 996 1000
f 990 1000 991
f 991 1000 996
f 991 996 1001
f 991 1001 1002
f 991 1002 992
f 992 1002 993
f 993 1002 995
f 993 995 994
f 995 1002 1001
f 995 1001 996
