v -0.43872172 0.10999230 -0.90374351
v -0.44051951 0.09960748 -0.90023494
v -0.44309893 0.10999230 -0.90157646
v -0.44278628 0.12998819 -0.90143883
v -0.43872172 0.12363512 -0.90353715
v -0.43872172 0.09901696 -0.90068209
v -0.43872172 0.09732689 -0.89937496
v -0.43872172 0.08832670 -0.89232337
v -0.44857046 0.09085163 -0.88919318
v -0.46631387 0.09543318 -0.88334548
v -0.47964096 0.10074776 -0.87976807
v -0.45310402 0.10999230 -0.89631355
v -0.48253304 0.11408515 -0.88138479
v -0.48253304 0.12510121 -0.88138479
v -0.44008958 0.14002687 -0.90002853
v -0.43872172 0.12998819 -0.90339953
v -0.45279136 0.12998819 -0.89607275
v -0.43872172 0.07724955 -0.88286388
v -0.44329435 0.07830839 -0.88169438
v -0.45662144 0.08209580 -0.87811697
v -0.47178540 0.08924301 -0.87539953
v -0.48917705 0.08989461 -0.86607766
v -0.50441921 0.09649202 -0.86260343
v -0.47178540 0.10844477 -0.88589096
v -0.51778537 0.10520714 -0.85857886
v -0.48952881 0.10844477 -0.87601870
v -0.52056020 0.11854452 -0.86033320
v -0.47909379 0.13843858 -0.87942410
v -0.47147274 0.13106740 -0.88571894
v -0.52056020 0.12125272 -0.86033320
v -0.48952881 0.13106740 -0.87560594
v -0.43872172 0.14035267 -0.90033811
v -0.43872172 0.13868293 -0.90102607
v -0.50391114 0.14228709 -0.86225945
v -0.46576673 0.14299977 -0.88303590
v -0.43872172 0.07380830 -0.87904572
v -0.44923484 0.07028560 -0.86951745
v -0.47002670 0.07588527 -0.86439216
v -0.48194683 0.07891926 -0.86108994
v -0.43872172 0.06749595 -0.87195969
v -0.49527392 0.08317500 -0.85713416
v -0.51200116 0.08840815 -0.85118330
v -0.53001815 0.09425216 -0.84464765
v -0.54143023 0.09869117 -0.84093267
v -0.52833760 0.11111224 -0.85338473
v -0.51067239 0.11111224 -0.86432338
v -0.54412693 0.10999230 -0.84275579
v -0.58019996 0.11946083 -0.82012182
v -0.51035970 0.12874609 -0.86411697
v -0.51723820 0.13459009 -0.85823488
v -0.54115665 0.14084136 -0.84076071
v -0.54393148 0.12998819 -0.84261817
v -0.52833760 0.12874609 -0.85304081
v -0.58019996 0.12045858 -0.82012182
v -0.43872172 0.14352921 -0.89631355
v -0.53001815 0.14361066 -0.84423488
v -0.49003688 0.14513782 -0.86628401
v -0.44806239 0.14473057 -0.88981229
v -0.45513630 0.06224245 -0.85727173
v -0.44180921 0.05918809 -0.86095232
v -0.47002670 0.06588732 -0.85304081
v -0.48777008 0.07105938 -0.84863782
v -0.50621700 0.07653686 -0.84378773
v -0.51954406 0.08030391 -0.83969432
v -0.43872172 0.05855685 -0.86174351
v -0.53001815 0.08425422 -0.83622015
v -0.54881680 0.09077018 -0.82913411
v -0.56429338 0.09618659 -0.82301128
v -0.60005379 0.09997400 -0.79999900
v -0.57762051 0.10612345 -0.81822997
v -0.55413198 0.10999230 -0.83591056
v -0.57058567 0.11166202 -0.82479995
v -0.60185158 0.10999230 -0.80137491
v -0.61185670 0.10999230 -0.79370415
v -0.62479293 0.10999230 -0.78372872
v -0.63479805 0.10999230 -0.77578276
v -0.68013358 0.11948119 -0.74011195
v -0.55393660 0.12998819 -0.83573854
v -0.57730782 0.13379596 -0.81792039
v -0.59962392 0.13921237 -0.79968941
v -0.56394166 0.14263326 -0.82277048
v -0.54869956 0.14501566 -0.82965010
v -0.68013358 0.12043822 -0.74011195
v -0.60243785 0.12587500 -0.80182207
v -0.57039028 0.12827775 -0.82466239
v -0.43872172 0.14749986 -0.88991547
v -0.51035970 0.14690936 -0.85094249
v -0.47147274 0.14778495 -0.87165010
v -0.47002670 0.05755910 -0.84303093
v -0.48022720 0.05988041 -0.84010708
v -0.43872172 0.05535996 -0.85768449
v -0.43872172 0.04071938 -0.83907521
v -0.44907853 0.05401604 -0.85035771
v -0.49359339 0.06319948 -0.83608252
v -0.51200116 0.06883987 -0.83119804
v -0.53001815 0.07452098 -0.82624471
v -0.54287624 0.07820658 -0.82194495
v -0.55620337 0.08286957 -0.81726682
v -0.57156277 0.08853032 -0.81107515
v -0.59000963 0.09563680 -0.80367959
v -0.57883209 0.08085369 -0.79910463
v -0.59000963 0.08563887 -0.79490805
v -0.60720587 0.09235846 -0.78782207
v -0.62197900 0.09805993 -0.78152722
v -0.64691359 0.10999230 -0.76580733
v -0.68931800 0.11186565 -0.72937977
v -0.70069093 0.11758748 -0.72071147
v -0.65691864 0.10999230 -0.75737977
v -0.67071474 0.11168239 -0.74595964
v -0.67786682 0.10614381 -0.73808247
v -0.60947263 0.13151538 -0.79463291
v -0.62459755 0.12998819 -0.78352231
v -0.63456357 0.12998819 -0.77561074
v -0.62166637 0.14128932 -0.78125203
v -0.58629680 0.14371246 -0.80457389
v -0.57039028 0.14697045 -0.81073117
v -0.53001815 0.15140945 -0.82999408
v -0.70069093 0.12214866 -0.72071147
v -0.68916166 0.12795195 -0.72920775
v -0.67751509 0.13377559 -0.73777288
v -0.67051935 0.12825739 -0.74578762
v -0.65668416 0.12998819 -0.75713903
v -0.64667910 0.12998819 -0.76560092
v -0.43872172 0.15181670 -0.88124716
v -0.49003688 0.15314025 -0.84997934
v -0.47006577 0.04692992 -0.82920295
v -0.45001650 0.04314251 -0.83587617
v -0.48816091 0.05550249 -0.82965010
v -0.50441921 0.05784417 -0.82273608
v -0.43872172 0.02626207 -0.81939948
v -0.45001650 0.03564914 -0.82586634
v -0.51774627 0.06114288 -0.81850517
v -0.53001815 0.06452304 -0.81434298
v -0.54854321 0.07073358 -0.80894250
v -0.56550497 0.07659795 -0.80392039
v -0.59000963 0.07588527 -0.78493261
v -0.60106993 0.07928579 -0.78077048
v -0.61439705 0.08472255 -0.77554196
v -0.62905294 0.09064801 -0.76921272
v -0.64343524 0.09655312 -0.76288348
v -0.69850236 0.10425010 -0.71857876
v -0.70960176 0.11086789 -0.70966971
v -0.72070110 0.11750603 -0.70076060
v -0.66453975 0.09553500 -0.74393016
v -0.64312261 0.14238891 -0.76260829
v -0.62901384 0.14513782 -0.76955670
v -0.61001980 0.14430296 -0.78572381
v -0.61001980 0.15210177 -0.76996946
v -0.55002832 0.15375113 -0.80997443
v -0.70948446 0.12886825 -0.70953208
v -0.69815058 0.13546568 -0.71826917
v -0.72070110 0.12227084 -0.70076060
v -0.66418803 0.14304051 -0.74362057
v -0.43872172 0.15456563 -0.86999905
v -0.45001650 0.15401584 -0.86999905
v -0.51000798 0.15476924 -0.82999408
v -0.47674888 0.04145243 -0.81802356
v -0.46342176 0.03852024 -0.82197934
v -0.49003688 0.04448643 -0.81393021
v -0.50090182 0.03959945 -0.80054933
v -0.50930452 0.05033044 -0.80952722
v -0.43872172 0.02300408 -0.81489336
v -0.45146257 0.02477561 -0.81000882
v -0.51422888 0.04279635 -0.79618078
v -0.53001815 0.05672424 -0.80433315
v -0.54088306 0.05951389 -0.80058372
v -0.55421019 0.06326057 -0.79580241
v -0.57109374 0.06924712 -0.79078031
v -0.57668251 0.06189629 -0.77750266
v -0.59137750 0.06507283 -0.77048546
v -0.59895951 0.06061346 -0.75916851
v -0.60865194 0.07478569 -0.76931590
v -0.62279975 0.07808441 -0.76219553
v -0.63612682 0.08321573 -0.75679505
v -0.65043098 0.08936518 -0.75036258
v -0.70522451 0.09457796 -0.70523232
v -0.71855158 0.10416865 -0.69852471
v -0.68517524 0.09482230 -0.72480482
v -0.74035954 0.11864633 -0.68043131
v -0.65738767 0.08219761 -0.73770410
v -0.67137915 0.08850996 -0.73123729
v -0.64988387 0.14633921 -0.75015622
v -0.63002998 0.15340497 -0.74998420
v -0.57003856 0.15474889 -0.78998917
v -0.71827805 0.13560823 -0.69828391
v -0.70495093 0.14359029 -0.70495713
v -0.68482351 0.14344776 -0.72446084
v -0.72937739 0.12842029 -0.68937480
v -0.74035954 0.12123235 -0.68043131
v -0.67051935 0.14707226 -0.73065251
v -0.43872172 0.15426019 -0.86126190
v -0.47002670 0.15493214 -0.84997934
v -0.59000963 0.15505433 -0.76996946
v -0.53001815 0.15505433 -0.80997443
v -0.47006577 0.03332783 -0.81079996
v -0.49003688 0.03715596 -0.80392039
v -0.45908362 0.02041806 -0.79941422
v -0.49660271 0.02149726 -0.77784663
v -0.50856191 0.03542516 -0.78971398
v -0.43872172 0.01675282 -0.80605304
v -0.44571745 0.01762841 -0.80337000
v -0.52419490 0.03795009 -0.78283435
v -0.53052622 0.04615615 -0.78971398
v -0.53752196 0.04126917 -0.77822500
v -0.54854321 0.05535996 -0.78947318
v -0.56335545 0.05812924 -0.78245598
v -0.59051770 0.04971957 -0.75036258
v -0.59540302 0.04251127 -0.73636258
v -0.61001980 0.05662242 -0.74468690
v -0.62057203 0.05967679 -0.74042153
v -0.61001980 0.06401398 -0.75469673
v -0.58559334 0.05692786 -0.76415622
v -0.56007254 0.03998633 -0.76002842
v -0.62834942 0.07093720 -0.74860829
v -0.64406055 0.07712737 -0.74344856
v -0.69185835 0.08804163 -0.71180236
v -0.69854140 0.08124058 -0.69859350
v -0.71175128 0.08802126 -0.69188589
v -0.72488296 0.09482230 -0.68517828
v -0.74426782 0.09533137 -0.66478020
v -0.73821002 0.10530895 -0.67812669
v -0.67821860 0.08150529 -0.71833801
v -0.74661279 0.11117332 -0.67086869
v -0.75798571 0.10999230 -0.65769422
v -0.76650572 0.10999230 -0.64771879
v -0.77651078 0.10999230 -0.63574827
v -0.66485238 0.07651650 -0.72439206
v -0.64996201 0.15415838 -0.72999895
v -0.66997218 0.15454526 -0.71001369
v -0.73801464 0.13456973 -0.67788589
v -0.74403334 0.14328486 -0.66457385
v -0.72468752 0.14354956 -0.68497187
v -0.71096963 0.14752023 -0.69099152
v -0.69088125 0.14743878 -0.71097684
v -0.82067388 0.12237265 -0.58095217
v -0.77635443 0.12998819 -0.63561064
v -0.76634938 0.12998819 -0.64754677
v -0.75782943 0.12998819 -0.65752220
v -0.74645644 0.12872572 -0.67073107
v -0.43872172 0.15020806 -0.84894741
v -0.76998401 0.15542084 -0.59003323
v -0.78999424 0.15438236 -0.55236733
v -0.78761017 0.15409729 -0.55236733
v -0.68998235 0.15468779 -0.69002837
v -0.47002670 0.02275973 -0.79607761
v -0.48995870 0.02662859 -0.78919798
v -0.44989926 0.01005359 -0.78992033
v -0.45408106 0.00245841 -0.77636755
v -0.47002670 0.01579579 -0.78606778
v -0.48327562 0.01860580 -0.78200877
v -0.48995870 0.01373919 -0.77069181
v -0.49003688 0.00323218 -0.75514394
v -0.51000798 0.01764877 -0.76339942
v -0.51000798 0.02459235 -0.77340931
v -0.43872172 -0.00067740 -0.78097683
v -0.44075400 -0.00029052 -0.78042650
v -0.52009124 0.01997009 -0.76002842
v -0.52880663 0.03057890 -0.76914394
v -0.53341830 0.02320771 -0.75531590
v -0.55002832 0.03737995 -0.76367462
v -0.55002832 0.04456788 -0.77368444
v -0.56839705 0.05088022 -0.76876557
v -0.58207589 0.03892749 -0.74155670
v -0.60364938 0.03797045 -0.72305053
v -0.61017615 0.04635977 -0.72979254
v -0.58922797 0.03481428 -0.72979254
v -0.61697650 0.04175786 -0.71737486
v -0.62834942 0.05623554 -0.72886378
v -0.64163744 0.05896410 -0.72150260
v -0.63389915 0.06378999 -0.73478025
v -0.56804532 0.03656545 -0.74891788
v -0.54959846 0.02713765 -0.74915868
v -0.55600798 0.02204705 -0.73691297
v -0.64953208 0.07016343 -0.72958618
v -0.70499003 0.07617034 -0.68524706
v -0.71831709 0.08148493 -0.67826426
v -0.68521434 0.07621107 -0.70502597
v -0.73133153 0.08840815 -0.67152226
v -0.73781919 0.08199399 -0.65755665
v -0.75059915 0.08914119 -0.65074581
v -0.76326185 0.09628840 -0.64393497
v -0.78198230 0.09759159 -0.62253940
v -0.80046827 0.09936313 -0.60066223
v -0.78452265 0.10999230 -0.62573844
v -0.82067388 0.11744495 -0.58095217
v -0.65500367 0.06317912 -0.71544856
v -0.67020667 0.06969509 -0.71025443
v -0.78182602 0.14181876 -0.62236738
v -0.76306641 0.14271471 -0.64369422
v -0.73078442 0.14731660 -0.67073107
v -0.75040376 0.14676681 -0.65022981
v -0.72996366 0.15452489 -0.65002346
v -0.70999253 0.15470816 -0.67000872
v -0.83794832 0.11457384 -0.55236733
v -0.83779198 0.12998819 -0.55236733
v -0.83634591 0.12998819 -0.55460322
v -0.82548100 0.12941805 -0.57080472
v -0.81852436 0.13571003 -0.57802832
v -0.81281829 0.12941805 -0.58858854
v -0.80210972 0.12998819 -0.60282934
v -0.79441053 0.12998819 -0.61283916
v -0.78440541 0.12998819 -0.62563521
v -0.80035102 0.14039338 -0.60052466
v -0.43872172 0.14595231 -0.83962554
v -0.76928055 0.14686863 -0.55236733
v -0.78999424 0.15519686 -0.57001358
v -0.80762035 0.15428054 -0.55236733
v -0.46494597 -0.00206205 -0.76305544
v -0.47100377 0.00506480 -0.76983190
v -0.44845322 -0.00430191 -0.76983190
v -0.47831216 0.00072761 -0.75889331
v -0.49003688 -0.00336524 -0.74513406
v -0.50187886 -0.00081994 -0.74128151
v -0.50910908 0.00744720 -0.74874586
v -0.43872172 -0.00244893 -0.77839702
v -0.43872172 -0.01442203 -0.76057881
v -0.51520592 0.00221406 -0.73653460
v -0.52806401 0.01650847 -0.74915868
v -0.54268086 0.01868725 -0.74196947
v -0.57074201 0.02526431 -0.73013651
v -0.61017615 0.03340928 -0.71042645
v -0.57785499 0.02113074 -0.71826917
v -0.59165108 0.02365568 -0.71097684
v -0.59938937 0.02033661 -0.69948786
v -0.62455845 0.03740031 -0.70402843
v -0.63073349 0.04519911 -0.71042645
v -0.63788557 0.04124881 -0.69807756
v -0.64898497 0.05527851 -0.70929128
v -0.66223389 0.05859758 -0.70213652
v -0.54959846 0.01447223 -0.73013651
v -0.56452793 0.01768949 -0.72360092
v -0.69049042 0.06953219 -0.69050997
v -0.69572747 0.06283296 -0.67568439
v -0.71022707 0.06967473 -0.67028391
v -0.72445303 0.07651650 -0.66491783
v -0.67556095 0.06287368 -0.69573849
v -0.74360341 0.07706629 -0.64424455
v -0.75693053 0.08295102 -0.63636744
v -0.76951504 0.09028149 -0.62945342
v -0.77576822 0.08427458 -0.61469662
v -0.78815734 0.09180867 -0.60767943
v -0.79452777 0.10999230 -0.61294234
v -0.79530942 0.08494654 -0.59003323
v -0.80437654 0.09494448 -0.59003323
v -0.82329237 0.09596260 -0.56485385
v -0.81868064 0.10412793 -0.57820034
v -0.80218792 0.10999230 -0.60296690
v -0.81297463 0.11046064 -0.58858854
v -0.82555920 0.11046064 -0.57094228
v -0.83646315 0.10999230 -0.55470645
v -0.83794832 0.10999230 -0.55236733
v -0.80414200 0.14336631 -0.59003323
v -0.78909528 0.14418079 -0.60829860
v -0.76982772 0.14578941 -0.62941903
v -0.74997383 0.15399548 -0.63000381
v -0.76998401 0.15297735 -0.61001849
v -0.83712757 0.13186154 -0.55236733
v -0.82317513 0.14295906 -0.56468189
v -0.43872172 0.14299977 -0.83446586
v -0.76677930 0.14574870 -0.55236733
v -0.81012166 0.15340497 -0.55236733
v -0.78999424 0.15114474 -0.59003323
v -0.45169705 -0.01598994 -0.75029379
v -0.43872172 -0.01768001 -0.75569427
v -0.47100377 -0.00729518 -0.75132573
v -0.45947444 -0.01977734 -0.73963040
v -0.47002670 -0.01755784 -0.73615617
v -0.48972422 -0.01372971 -0.72913897
v -0.49621189 -0.01839270 -0.71737486
v -0.50910908 -0.00474988 -0.72989571
v -0.52439028 -0.00202132 -0.72322249
v -0.53064346 0.00518698 -0.72989571
v -0.53771740 0.00107377 -0.71830362
v -0.57074201 0.01288396 -0.71097684
v -0.58606231 0.01691572 -0.70492274
v -0.55960351 0.00021854 -0.69969428
v -0.57003856 0.00284529 -0.69529128
v -0.59012687 0.00993142 -0.69013160
v -0.59419143 0.00294711 -0.67489326
v -0.61001980 0.01716007 -0.68473107
v -0.62018120 0.01992936 -0.68015617
v -0.61001980 0.02328916 -0.69474095
v -0.64499855 0.03705415 -0.68473107
v -0.65836471 0.04098409 -0.67843622
v -0.65101725 0.04450679 -0.69085395
v -0.62901384 0.03055854 -0.68909967
v -0.66930777 0.05481017 -0.68944365
v -0.68240041 0.05843468 -0.68242645
v -0.55178702 0.00337472 -0.71097684
v -0.70213699 0.05853649 -0.66233796
v -0.71546412 0.06317912 -0.65501118
v -0.72961193 0.07012270 -0.64961070
v -0.73477077 0.06372891 -0.63399398
v -0.74872321 0.07083539 -0.62852466
v -0.76244110 0.07794186 -0.62302101
v -0.78104436 0.07908216 -0.60138458
v -0.79937398 0.08054826 -0.57919788
v -0.81137228 0.08826561 -0.57204306
v -0.82798231 0.09176794 -0.55236733
v -0.81739098 0.08262523 -0.55621994
v -0.81109869 0.14747950 -0.57080472
v -0.82841218 0.14487311 -0.55236733
v -0.43872172 -0.02242446 -0.55236733
v -0.82692707 0.14572833 -0.55236733
v -0.44614735 -0.02248555 -0.74382693
v -0.43872172 -0.02354439 -0.74664760
v -0.47002670 -0.02389055 -0.72618073
v -0.44005048 -0.04001758 -0.72005790
v -0.48288479 -0.02118235 -0.72194982
v -0.50543535 -0.02242446 -0.70406282
v -0.51129770 -0.01590849 -0.71042645
v -0.46990943 -0.03423466 -0.70932573
v -0.48972422 -0.02529556 -0.71042645
v -0.53064346 -0.00668431 -0.71097684
v -0.54627645 -0.00301908 -0.70495713
v -0.55014557 -0.01004411 -0.69009721
v -0.57003856 -0.00312089 -0.68531585
v -0.58086437 -0.00041269 -0.68074089
v -0.60169524 -0.00086066 -0.66158122
v -0.60900366 0.00734539 -0.66894239
v -0.58852452 -0.00328379 -0.66894239
v -0.62811494 0.01742478 -0.66828883
v -0.64046496 0.01974610 -0.66048044
v -0.63350832 0.02371677 -0.67379248
v -0.66500872 0.03695234 -0.66508979
v -0.67098832 0.04426244 -0.67107505
v -0.64941484 0.03033455 -0.66945833
v -0.68943524 0.05478981 -0.66942394
v -0.69080311 0.04446606 -0.65098661
v -0.69803333 0.04122844 -0.63788092
v -0.70928907 0.05523778 -0.64899153
v -0.72144371 0.05898447 -0.64166474
v -0.74051589 0.05961570 -0.62068188
v -0.75482005 0.06387144 -0.61001849
v -0.76943684 0.07454135 -0.60881460
v -0.75919729 0.06055237 -0.59904552
v -0.77057028 0.06482848 -0.59144354
v -0.78530431 0.07562055 -0.59003323
v -0.79097128 0.06910458 -0.57135510
v -0.80406386 0.07649614 -0.56588578
v -0.82364416 0.08681988 -0.55236733
v -0.80785489 0.07203677 -0.55236733
v -0.81320918 0.07676085 -0.55236733
v -0.43872172 -0.05260155 -0.55236733
v -0.43872172 -0.02853318 -0.73887366
v -0.45341668 -0.03730938 -0.71555173
v -0.43872172 -0.04026193 -0.72043628
v -0.43872172 -0.04128005 -0.71871638
v -0.43872172 -0.04802001 -0.70702106
v -0.44806239 -0.04313303 -0.70932573
v -0.46314818 -0.04128005 -0.70220530
v -0.47647530 -0.03853112 -0.69745839
v -0.49144384 -0.03633198 -0.69047558
v -0.49906492 -0.03958997 -0.67929620
v -0.51129770 -0.02720962 -0.69143873
v -0.51880151 -0.01943118 -0.69907510
v -0.53001815 -0.01684516 -0.69470656
v -0.54064858 -0.02028640 -0.68053454
v -0.55397564 -0.01706915 -0.67485887
v -0.56171399 -0.02083619 -0.66151237
v -0.57504106 -0.01751711 -0.65545833
v -0.58942342 -0.01372971 -0.64926672
v -0.59567654 -0.01782255 -0.63588583
v -0.60900366 -0.00381321 -0.64909470
v -0.62186176 -0.00098284 -0.64180231
v -0.61502236 0.00272312 -0.65514874
v -0.64824235 0.01730261 -0.64823472
v -0.66035795 0.01978682 -0.64039201
v -0.65379208 0.02361496 -0.65373844
v -0.62913108 0.00706032 -0.64909470
v -0.63518888 0.00264167 -0.63512909
v -0.66934687 0.03037528 -0.64936990
v -0.67833585 0.04102482 -0.65831339
v -0.70393479 0.03746140 -0.62453449
v -0.71034431 0.04521947 -0.63072616
v -0.68470627 0.03711523 -0.64496696
v -0.69080311 0.03279840 -0.63072616
v -0.72886932 0.05623554 -0.62842149
v -0.71726191 0.04179859 -0.61679494
v -0.72969007 0.04638013 -0.61008728
v -0.73617774 0.04253164 -0.59529614
v -0.74481499 0.05660206 -0.61001849
v -0.76431710 0.05688713 -0.58569908
v -0.77764416 0.06173339 -0.57685876
v -0.75036466 0.04971957 -0.59048045
v -0.79585660 0.06315876 -0.55408728
v -0.79980385 0.06545971 -0.55236733
v -0.60751855 -0.05260155 -0.55236733
v -0.43872172 -0.05260155 -0.69900626
v -0.43872172 -0.05066712 -0.70241171
v -0.44927394 -0.05260155 -0.69185150
v -0.45107174 -0.05260155 -0.69061315
v -0.46990943 -0.04514891 -0.69047558
v -0.48569873 -0.04231853 -0.68414634
v -0.47842941 -0.05260155 -0.67066228
v -0.49144384 -0.04685935 -0.67159104
v -0.49062312 -0.05260155 -0.66144359
v -0.51000798 -0.04266469 -0.66495222
v -0.52079475 -0.04032302 -0.66065246
v -0.51000798 -0.03718720 -0.67492765
v -0.53001815 -0.02270953 -0.68469667
v -0.54838687 -0.02307605 -0.66890800
v -0.52845484 -0.03256494 -0.66839200
v -0.53412181 -0.03732974 -0.65504557
v -0.54916853 -0.03354234 -0.64902592
v -0.55526537 -0.03773699 -0.63564503
v -0.56902242 -0.02380910 -0.64926672
v -0.58231038 -0.02112126 -0.64211190
v -0.60255510 -0.02130453 -0.62257379
v -0.60955083 -0.01397406 -0.62955660
v -0.58942342 -0.02419598 -0.62955660
v -0.62913108 -0.00383357 -0.62907505
v -0.64898497 0.00716213 -0.62907505
v -0.65500367 0.00282493 -0.61459345
v -0.66512597 0.01695645 -0.63000381
v -0.67982095 0.02009226 -0.61985636
v -0.67513108 0.02290227 -0.63000381
v -0.64167655 -0.00092175 -0.62178266
v -0.69142842 0.02286155 -0.61191040
v -0.69908857 0.02056059 -0.59894234
v -0.71034431 0.03369435 -0.61008728
v -0.72285068 0.03815372 -0.60344851
v -0.72969007 0.03507899 -0.58917332
v -0.74149299 0.03898858 -0.58194971
v -0.75603163 0.04273526 -0.57001358
v -0.77057028 0.05305900 -0.57011676
v -0.78252947 0.05812924 -0.56351233
v -0.78768837 0.05619481 -0.55236733
v -0.79394150 0.06085781 -0.55236733
v -0.61228657 -0.05019879 -0.55236733
v -0.60943359 -0.04386608 -0.56922245
v -0.60036647 -0.05260155 -0.56010693
v -0.45294768 -0.05260155 -0.68927163
v -0.46189755 -0.05260155 -0.68280482
v -0.47057384 -0.05260155 -0.67644113
v -0.48522973 -0.05260155 -0.66553700
v -0.49601650 -0.05260155 -0.65721262
v -0.50738943 -0.05260155 -0.64826918
v -0.52845484 -0.04303122 -0.64902592
v -0.50805384 -0.05243865 -0.64802837
v -0.54193830 -0.04087280 -0.64169914
v -0.56241745 -0.04115787 -0.62229860
v -0.56945229 -0.03405140 -0.62938464
v -0.54916853 -0.04378463 -0.62938464
v -0.57574457 -0.03789989 -0.61583179
v -0.58954066 -0.03431611 -0.60950255
v -0.59591109 -0.03798134 -0.59588093
v -0.60955083 -0.02427743 -0.60943377
v -0.61588216 -0.01782255 -0.61572862
v -0.66106141 -0.00061632 -0.60124701
v -0.67044115 0.00970743 -0.61056888
v -0.64898497 -0.00352814 -0.60874581
v -0.68576145 0.01658992 -0.60650992
v -0.62936556 -0.01383152 -0.60943377
v -0.63561875 -0.01763929 -0.59522736
v -0.70456010 0.01716007 -0.58563030
v -0.71073514 0.02402220 -0.59137475
v -0.67438853 0.00327291 -0.59350741
v -0.68959153 0.01021649 -0.58955169
v -0.71788722 0.02135473 -0.57734036
v -0.72984642 0.02556975 -0.57039195
v -0.74602652 0.03597494 -0.57001358
v -0.75986171 0.04008815 -0.55986613
v -0.77123463 0.04438461 -0.55236733
v -0.62705976 -0.04260360 -0.55236733
v -0.62182271 -0.04093388 -0.56203324
v -0.60239875 -0.04119860 -0.58253443
v -0.59047860 -0.05260155 -0.57052952
v -0.50821018 -0.05260155 -0.64758122
v -0.51825434 -0.05260155 -0.63911927
v -0.52954918 -0.05260155 -0.62945342
v -0.53040898 -0.05260155 -0.62869668
v -0.56945229 -0.04409006 -0.60950255
v -0.58254486 -0.04121896 -0.60251975
v -0.55045825 -0.05260155 -0.61039686
v -0.55182612 -0.05260155 -0.60908973
v -0.53978878 -0.05260155 -0.62023473
v -0.54909039 -0.05260155 -0.61166960
v -0.60943359 -0.03415321 -0.58951724
v -0.58954066 -0.04411042 -0.58951724
v -0.62225258 -0.02118235 -0.60238212
v -0.64898497 -0.01330210 -0.58913887
v -0.65496457 -0.01723204 -0.57427895
v -0.66864341 -0.00275437 -0.58810693
v -0.68013358 -0.00006653 -0.58016098
v -0.62936556 -0.02391091 -0.58913887
v -0.64163744 -0.02089728 -0.58188093
v -0.69435960 0.00329327 -0.57001358
v -0.69904947 0.00056471 -0.55886859
v -0.71073514 0.01345411 -0.57039195
v -0.72308517 0.01805602 -0.56399393
v -0.73641223 0.02231176 -0.55522239
v -0.74567479 0.02705620 -0.55236733
v -0.75216246 0.03135267 -0.55236733
v -0.77010125 0.04359048 -0.55236733
v -0.63300025 -0.03946780 -0.55236733
v -0.63514978 -0.03739083 -0.55443126
v -0.61572582 -0.03777771 -0.57534528
v -0.62909204 -0.03364415 -0.56922245
v -0.58066893 -0.05260155 -0.58057380
v -0.56054151 -0.05260155 -0.60066223
v -0.56921780 -0.05260155 -0.59213150
v -0.57214898 -0.05260155 -0.58920765
v -0.66074872 -0.02042894 -0.56093252
v -0.66844797 -0.01236542 -0.56856883
v -0.64898497 -0.02323895 -0.56856883
v -0.68439358 -0.00253038 -0.57001358
v -0.67212170 -0.01796509 -0.55236733
v -0.67634261 -0.01554196 -0.55236733
v -0.69099849 -0.00711192 -0.55236733
v -0.69248366 -0.00625670 -0.55236733
v -0.70889825 0.00359870 -0.55236733
v -0.71155584 0.00524806 -0.55236733
v -0.72836125 0.01583651 -0.55236733
v -0.73332477 0.01901305 -0.55236733
v -0.63983965 -0.03578220 -0.55236733
v -0.64859414 -0.03103776 -0.55236733
v -0.65222877 -0.02906260 -0.55236733
v -0.66430527 -0.02242446 -0.55236733
f 1 2 3
f 1 3 4
f 1 4 5
f 1 5 16
f 1 16 33
f 1 33 32
f 1 32 55
f 1 55 86
f 1 86 124
f 1 124 154
f 1 154 191
f 1 191 240
f 1 240 304
f 1 304 359
f 1 359 403
f 1 403 444
f 1 444 489
f 1 489 490
f 1 490 449
f 1 449 448
f 1 448 447
f 1 447 445
f 1 445 406
f 1 406 364
f 1 364 316
f 1 316 315
f 1 315 255
f 1 255 200
f 1 200 162
f 1 162 130
f 1 130 92
f 1 92 91
f 1 91 65
f 1 65 40
f 1 40 36
f 1 36 18
f 1 18 8
f 1 8 7
f 1 7 6
f 1 6 2
f 2 6 7
f 2 7 8
f 2 8 9
f 2 9 10
f 2 10 11
f 2 11 12
f 2 12 3
f 3 12 13
f 3 13 14
f 3 14 4
f 4 15 16
f 4 16 5
f 4 14 17
f 4 17 15
f 8 18 19
f 8 19 20
f 8 20 9
f 9 20 10
f 10 20 21
f 10 21 22
f 10 22 23
f 10 23 11
f 11 13 24
f 11 24 12
f 11 23 25
f 11 25 26
f 11 26 13
f 12 24 13
f 13 26 27
f 13 27 30
f 13 30 14
f 14 28 29
f 14 29 17
f 14 30 31
f 14 31 28
f 15 32 33
f 15 33 16
f 15 17 29
f 15 29 28
f 15 28 34
f 15 34 35
f 15 35 32
f 18 36 19
f 19 37 38
f 19 38 39
f 19 39 20
f 19 36 40
f 19 40 37
f 20 39 41
f 20 41 21
f 21 41 22
f 22 41 23
f 23 41 42
f 23 42 43
f 23 43 44
f 23 44 25
f 25 45 27
f 25 27 46
f 25 46 26
f 25 44 47
f 25 47 45
f 26 46 27
f 27 45 47
f 27 47 48
f 27 48 54
f 27 54 30
f 28 31 49
f 28 49 50
f 28 50 51
f 28 51 34
f 30 52 53
f 30 53 50
f 30 50 49
f 30 49 31
f 30 54 52
f 32 35 55
f 34 51 56
f 34 56 57
f 34 57 35
f 35 58 55
f 35 57 58
f 37 59 38
f 37 40 60
f 37 60 59
f 38 61 39
f 38 59 61
f 39 61 62
f 39 62 63
f 39 63 64
f 39 64 41
f 40 65 60
f 41 64 42
f 42 64 43
f 43 66 44
f 43 64 66
f 44 67 68
f 44 68 69
f 44 69 70
f 44 70 71
f 44 71 47
f 44 66 67
f 47 71 48
f 48 71 72
f 48 72 70
f 48 70 69
f 48 69 73
f 48 73 74
f 48 74 75
f 48 75 76
f 48 76 77
f 48 77 83
f 48 83 54
f 50 53 52
f 50 52 51
f 51 52 78
f 51 78 79
f 51 79 80
f 51 80 81
f 51 81 82
f 51 82 56
f 52 54 78
f 54 83 84
f 54 84 80
f 54 80 79
f 54 79 85
f 54 85 78
f 55 58 86
f 56 82 87
f 56 87 57
f 57 87 88
f 57 88 58
f 58 88 86
f 59 89 90
f 59 90 61
f 59 60 89
f 60 65 91
f 60 91 92
f 60 92 93
f 60 93 89
f 61 90 62
f 62 94 63
f 62 90 94
f 63 94 95
f 63 95 64
f 64 95 96
f 64 96 97
f 64 97 98
f 64 98 66
f 66 98 67
f 67 98 68
f 68 98 99
f 68 99 100
f 68 100 69
f 69 100 101
f 69 101 102
f 69 102 103
f 69 103 104
f 69 104 76
f 69 76 75
f 69 75 74
f 69 74 73
f 70 72 71
f 76 104 105
f 76 105 77
f 77 106 107
f 77 107 118
f 77 118 83
f 77 105 108
f 77 108 109
f 77 109 110
f 77 110 106
f 78 85 79
f 80 84 111
f 80 111 112
f 80 112 113
f 80 113 114
f 80 114 81
f 81 114 115
f 81 115 116
f 81 116 82
f 82 117 87
f 82 116 117
f 83 118 119
f 83 119 120
f 83 120 121
f 83 121 122
f 83 122 123
f 83 123 113
f 83 113 84
f 84 113 112
f 84 112 111
f 86 88 124
f 87 125 88
f 87 117 125
f 88 125 124
f 89 126 90
f 89 93 127
f 89 127 126
f 90 126 128
f 90 128 129
f 90 129 94
f 92 130 131
f 92 131 127
f 92 127 93
f 94 129 132
f 94 132 95
f 95 132 96
f 96 133 97
f 96 132 133
f 97 133 134
f 97 134 135
f 97 135 101
f 97 101 98
f 98 101 99
f 99 101 100
f 101 136 137
f 101 137 138
f 101 138 102
f 101 135 136
f 102 138 103
f 103 138 104
f 104 138 139
f 104 139 140
f 104 140 105
f 105 140 110
f 105 110 108
f 106 110 141
f 106 141 107
f 107 141 142
f 107 142 143
f 107 143 152
f 107 152 118
f 108 110 109
f 110 140 144
f 110 144 141
f 113 123 114
f 114 123 120
f 114 120 145
f 114 145 146
f 114 146 147
f 114 147 115
f 115 147 116
f 116 147 146
f 116 146 148
f 116 148 117
f 117 148 149
f 117 149 125
f 118 150 151
f 118 151 119
f 118 152 150
f 119 151 120
f 120 151 153
f 120 153 145
f 120 123 122
f 120 122 121
f 124 125 155
f 124 155 154
f 125 149 156
f 125 156 155
f 126 157 128
f 126 127 158
f 126 158 157
f 127 131 158
f 128 159 129
f 128 157 159
f 129 159 160
f 129 160 161
f 129 161 132
f 130 162 163
f 130 163 131
f 131 163 158
f 132 161 164
f 132 164 165
f 132 165 166
f 132 166 133
f 133 166 134
f 134 166 167
f 134 167 135
f 135 167 168
f 135 168 136
f 136 168 169
f 136 169 170
f 136 170 137
f 137 170 171
f 137 171 172
f 137 172 173
f 137 173 174
f 137 174 138
f 138 174 139
f 139 174 140
f 140 174 175
f 140 175 144
f 141 176 177
f 141 177 142
f 141 144 178
f 141 178 176
f 142 177 143
f 143 177 179
f 143 179 189
f 143 189 152
f 144 175 180
f 144 180 181
f 144 181 178
f 145 153 182
f 145 182 146
f 146 182 148
f 148 182 183
f 148 183 149
f 149 183 184
f 149 184 156
f 150 152 185
f 150 185 151
f 151 185 186
f 151 186 187
f 151 187 153
f 152 188 185
f 152 189 188
f 153 187 190
f 153 190 182
f 154 155 192
f 154 192 191
f 155 156 192
f 156 184 193
f 156 193 194
f 156 194 192
f 157 158 195
f 157 195 196
f 157 196 160
f 157 160 159
f 158 163 197
f 158 197 195
f 160 196 198
f 160 198 199
f 160 199 164
f 160 164 161
f 162 200 201
f 162 201 163
f 163 201 197
f 164 202 203
f 164 203 165
f 164 199 202
f 165 203 166
f 166 204 205
f 166 205 206
f 166 206 167
f 166 203 204
f 167 206 169
f 167 169 168
f 169 171 170
f 169 206 171
f 171 207 208
f 171 208 209
f 171 209 210
f 171 210 211
f 171 211 172
f 171 206 212
f 171 212 213
f 171 213 207
f 172 211 173
f 173 214 215
f 173 215 174
f 173 211 214
f 174 215 180
f 174 180 175
f 176 178 216
f 176 216 217
f 176 217 218
f 176 218 219
f 176 219 177
f 177 219 220
f 177 220 221
f 177 221 179
f 178 181 222
f 178 222 216
f 179 221 223
f 179 223 224
f 179 224 225
f 179 225 226
f 179 226 189
f 180 227 222
f 180 222 181
f 180 215 227
f 182 190 183
f 183 190 228
f 183 228 184
f 184 228 229
f 184 229 193
f 185 188 230
f 185 230 231
f 185 231 232
f 185 232 186
f 186 232 233
f 186 233 234
f 186 234 187
f 187 234 190
f 188 189 230
f 189 226 235
f 189 235 236
f 189 236 237
f 189 237 238
f 189 238 239
f 189 239 230
f 190 234 228
f 191 192 241
f 191 241 242
f 191 242 243
f 191 243 240
f 192 194 241
f 193 229 244
f 193 244 241
f 193 241 194
f 195 245 196
f 195 197 245
f 196 246 198
f 196 245 246
f 197 201 247
f 197 247 248
f 197 248 249
f 197 249 250
f 197 250 245
f 198 246 245
f 198 245 250
f 198 250 251
f 198 251 252
f 198 252 253
f 198 253 254
f 198 254 199
f 199 254 202
f 200 255 256
f 200 256 201
f 201 256 247
f 202 254 257
f 202 257 258
f 202 258 204
f 202 204 203
f 204 258 259
f 204 259 260
f 204 260 213
f 204 213 261
f 204 261 205
f 205 261 206
f 206 261 213
f 206 213 262
f 206 262 212
f 207 263 208
f 207 213 263
f 208 264 265
f 208 265 209
f 208 263 266
f 208 266 264
f 209 265 210
f 210 267 268
f 210 268 269
f 210 269 270
f 210 270 214
f 210 214 211
f 210 265 267
f 212 262 213
f 213 271 263
f 213 260 272
f 213 272 273
f 213 273 271
f 214 270 215
f 215 274 227
f 215 270 274
f 216 222 217
f 217 275 276
f 217 276 218
f 217 222 277
f 217 277 275
f 218 276 219
f 219 276 278
f 219 278 220
f 220 278 279
f 220 279 280
f 220 280 281
f 220 281 221
f 221 281 224
f 221 224 223
f 222 227 277
f 224 281 225
f 225 281 282
f 225 282 226
f 226 282 283
f 226 283 284
f 226 284 285
f 226 285 235
f 227 274 286
f 227 286 287
f 227 287 277
f 228 234 229
f 229 234 244
f 230 239 238
f 230 238 288
f 230 288 289
f 230 289 231
f 231 290 232
f 231 289 291
f 231 291 290
f 232 290 233
f 233 290 292
f 233 292 293
f 233 293 244
f 233 244 234
f 235 285 351
f 235 351 294
f 235 294 295
f 235 295 296
f 235 296 297
f 235 297 298
f 235 298 299
f 235 299 300
f 235 300 301
f 235 301 302
f 235 302 236
f 236 302 303
f 236 303 288
f 236 288 237
f 237 288 238
f 240 243 305
f 240 305 304
f 241 244 293
f 241 293 292
f 241 292 306
f 241 306 242
f 242 306 307
f 242 307 361
f 242 361 404
f 242 404 402
f 242 402 357
f 242 357 295
f 242 295 294
f 242 294 351
f 242 351 399
f 242 399 441
f 242 441 443
f 242 443 442
f 242 442 487
f 242 487 529
f 242 529 528
f 242 528 564
f 242 564 595
f 242 595 594
f 242 594 593
f 242 593 615
f 242 615 614
f 242 614 613
f 242 613 612
f 242 612 611
f 242 611 610
f 242 610 609
f 242 609 608
f 242 608 619
f 242 619 618
f 242 618 617
f 242 617 616
f 242 616 596
f 242 596 565
f 242 565 530
f 242 530 488
f 242 488 444
f 242 444 403
f 242 403 360
f 242 360 305
f 242 305 243
f 247 256 248
f 248 308 309
f 248 309 249
f 248 256 310
f 248 310 308
f 249 309 250
f 250 309 251
f 251 309 311
f 251 311 252
f 252 312 313
f 252 313 253
f 252 311 312
f 253 314 257
f 253 257 254
f 253 313 314
f 255 315 256
f 256 315 316
f 256 316 310
f 257 317 318
f 257 318 319
f 257 319 259
f 257 259 258
f 257 314 317
f 259 319 272
f 259 272 260
f 263 320 266
f 263 271 273
f 263 273 320
f 264 321 267
f 264 267 265
f 264 266 322
f 264 322 323
f 264 323 324
f 264 324 321
f 266 320 322
f 267 325 326
f 267 326 269
f 267 269 268
f 267 321 325
f 269 327 328
f 269 328 329
f 269 329 286
f 269 286 270
f 269 326 327
f 270 286 274
f 272 319 273
f 273 319 330
f 273 330 331
f 273 331 320
f 275 277 332
f 275 332 333
f 275 333 334
f 275 334 335
f 275 335 276
f 276 335 279
f 276 279 278
f 277 287 336
f 277 336 332
f 279 337 338
f 279 338 280
f 279 335 337
f 280 338 281
f 281 339 282
f 281 338 339
f 282 339 340
f 282 340 341
f 282 341 283
f 283 342 284
f 283 341 343
f 283 343 344
f 283 344 345
f 283 345 346
f 283 346 347
f 283 347 342
f 284 342 285
f 285 342 347
f 285 347 348
f 285 348 346
f 285 346 349
f 285 349 350
f 285 350 351
f 286 329 336
f 286 336 287
f 288 303 352
f 288 352 353
f 288 353 354
f 288 354 289
f 289 354 291
f 290 291 355
f 290 355 292
f 291 354 356
f 291 356 355
f 292 355 306
f 295 357 296
f 296 357 298
f 296 298 297
f 298 357 358
f 298 358 303
f 298 303 299
f 299 303 300
f 300 303 301
f 301 303 302
f 303 358 352
f 304 305 360
f 304 360 359
f 306 355 356
f 306 356 307
f 307 356 362
f 307 362 361
f 308 310 363
f 308 363 311
f 308 311 309
f 310 316 364
f 310 364 363
f 311 363 365
f 311 365 312
f 312 365 366
f 312 366 367
f 312 367 368
f 312 368 313
f 313 368 369
f 313 369 370
f 313 370 317
f 313 317 314
f 317 371 372
f 317 372 319
f 317 319 318
f 317 370 371
f 319 372 373
f 319 373 330
f 320 331 322
f 321 324 325
f 322 331 374
f 322 374 375
f 322 375 324
f 322 324 323
f 324 375 376
f 324 376 377
f 324 377 378
f 324 378 379
f 324 379 380
f 324 380 381
f 324 381 382
f 324 382 325
f 325 327 326
f 325 382 327
f 327 383 384
f 327 384 385
f 327 385 329
f 327 329 328
f 327 382 386
f 327 386 383
f 329 385 384
f 329 384 387
f 329 387 388
f 329 388 336
f 330 373 331
f 331 373 389
f 331 389 374
f 332 336 333
f 333 390 391
f 333 391 334
f 333 336 388
f 333 388 390
f 334 391 335
f 335 391 392
f 335 392 337
f 337 392 393
f 337 393 394
f 337 394 395
f 337 395 338
f 338 395 340
f 338 340 339
f 340 396 343
f 340 343 341
f 340 395 396
f 343 397 344
f 343 396 397
f 344 398 345
f 344 397 398
f 345 399 351
f 345 351 350
f 345 350 346
f 345 398 400
f 345 400 399
f 346 350 349
f 346 348 347
f 352 358 401
f 352 401 353
f 353 401 362
f 353 362 354
f 354 362 356
f 357 402 358
f 358 402 401
f 359 360 403
f 361 362 401
f 361 401 404
f 363 366 365
f 363 364 405
f 363 405 366
f 364 406 405
f 366 407 367
f 366 405 408
f 366 408 407
f 367 407 409
f 367 409 368
f 368 409 369
f 369 410 411
f 369 411 371
f 369 371 370
f 369 409 412
f 369 412 413
f 369 413 410
f 371 411 414
f 371 414 373
f 371 373 372
f 373 415 389
f 373 414 415
f 374 389 376
f 374 376 375
f 376 389 415
f 376 415 416
f 376 416 417
f 376 417 418
f 376 418 377
f 377 418 378
f 378 418 379
f 379 419 420
f 379 420 380
f 379 418 421
f 379 421 419
f 380 420 381
f 381 422 423
f 381 423 424
f 381 424 383
f 381 383 386
f 381 386 382
f 381 420 422
f 383 424 384
f 384 425 426
f 384 426 388
f 384 388 387
f 384 424 427
f 384 427 425
f 388 426 428
f 388 428 390
f 390 428 429
f 390 429 430
f 390 430 431
f 390 431 432
f 390 432 391
f 391 432 393
f 391 393 392
f 393 433 394
f 393 432 433
f 394 434 395
f 394 433 434
f 395 434 435
f 395 435 396
f 396 435 436
f 396 436 437
f 396 437 438
f 396 438 397
f 397 438 439
f 397 439 440
f 397 440 400
f 397 400 398
f 399 400 441
f 400 440 442
f 400 442 443
f 400 443 441
f 401 402 404
f 405 406 445
f 405 445 408
f 407 446 409
f 407 408 446
f 408 445 447
f 408 447 448
f 408 448 449
f 408 449 450
f 408 450 451
f 408 451 446
f 409 446 412
f 410 413 452
f 410 452 453
f 410 453 454
f 410 454 455
f 410 455 456
f 410 456 411
f 411 456 414
f 412 452 413
f 412 446 451
f 412 451 452
f 414 457 415
f 414 456 457
f 415 457 458
f 415 458 416
f 416 458 417
f 417 458 459
f 417 459 418
f 418 459 460
f 418 460 421
f 419 421 460
f 419 460 461
f 419 461 462
f 419 462 463
f 419 463 464
f 419 464 465
f 419 465 466
f 419 466 420
f 420 466 422
f 422 466 423
f 423 467 468
f 423 468 469
f 423 469 427
f 423 427 424
f 423 466 470
f 423 470 471
f 423 471 467
f 425 427 469
f 425 469 472
f 425 472 473
f 425 473 426
f 426 473 428
f 428 473 429
f 429 473 430
f 430 474 475
f 430 475 432
f 430 432 431
f 430 473 476
f 430 476 477
f 430 477 474
f 432 475 478
f 432 478 433
f 433 478 479
f 433 479 480
f 433 480 481
f 433 481 482
f 433 482 436
f 433 436 434
f 434 436 435
f 436 483 484
f 436 484 437
f 436 482 485
f 436 485 483
f 437 484 438
f 438 484 439
f 439 486 440
f 439 484 486
f 440 486 442
f 442 486 487
f 444 488 532
f 444 532 568
f 444 568 600
f 444 600 603
f 444 603 602
f 444 602 601
f 444 601 576
f 444 576 575
f 444 575 578
f 444 578 577
f 444 577 572
f 444 572 571
f 444 571 570
f 444 570 569
f 444 569 538
f 444 538 537
f 444 537 497
f 444 497 536
f 444 536 495
f 444 495 535
f 444 535 534
f 444 534 533
f 444 533 492
f 444 492 491
f 444 491 489
f 449 490 450
f 450 491 451
f 450 490 491
f 451 491 492
f 451 492 493
f 451 493 494
f 451 494 452
f 452 494 454
f 452 454 453
f 454 494 495
f 454 495 496
f 454 496 497
f 454 497 498
f 454 498 499
f 454 499 500
f 454 500 501
f 454 501 455
f 455 501 456
f 456 501 458
f 456 458 457
f 458 502 460
f 458 460 459
f 458 501 500
f 458 500 503
f 458 503 504
f 458 504 502
f 460 502 505
f 460 505 506
f 460 506 507
f 460 507 508
f 460 508 461
f 461 508 462
f 462 508 463
f 463 509 510
f 463 510 464
f 463 508 511
f 463 511 509
f 464 510 465
f 465 512 471
f 465 471 470
f 465 470 466
f 465 510 512
f 467 471 468
f 468 471 513
f 468 513 514
f 468 514 515
f 468 515 516
f 468 516 517
f 468 517 477
f 468 477 476
f 468 476 472
f 468 472 469
f 471 512 518
f 471 518 513
f 472 476 473
f 474 477 516
f 474 516 519
f 474 519 520
f 474 520 521
f 474 521 479
f 474 479 475
f 475 479 478
f 477 517 516
f 479 522 481
f 479 481 480
f 479 521 522
f 481 522 523
f 481 523 524
f 481 524 485
f 481 485 482
f 483 485 525
f 483 525 526
f 483 526 484
f 484 527 486
f 484 526 527
f 485 524 525
f 486 527 528
f 486 528 529
f 486 529 487
f 488 530 531
f 488 531 532
f 489 491 490
f 492 533 493
f 493 533 534
f 493 534 494
f 494 534 535
f 494 535 495
f 495 536 496
f 496 536 497
f 497 537 498
f 498 537 538
f 498 538 499
f 499 539 504
f 499 504 503
f 499 503 500
f 499 538 540
f 499 540 539
f 502 504 505
f 504 541 505
f 504 539 541
f 505 541 506
f 506 542 543
f 506 543 511
f 506 511 508
f 506 508 507
f 506 541 544
f 506 544 542
f 509 511 542
f 509 542 545
f 509 545 546
f 509 546 547
f 509 547 548
f 509 548 549
f 509 549 510
f 510 549 512
f 511 543 542
f 512 549 518
f 513 518 514
f 514 550 551
f 514 551 516
f 514 516 515
f 514 518 552
f 514 552 550
f 516 551 553
f 516 553 520
f 516 520 519
f 518 549 554
f 518 554 555
f 518 555 552
f 520 556 557
f 520 557 522
f 520 522 521
f 520 553 550
f 520 550 558
f 520 558 559
f 520 559 556
f 522 557 523
f 523 557 560
f 523 560 524
f 524 560 561
f 524 561 562
f 524 562 563
f 524 563 525
f 525 563 526
f 526 563 527
f 527 563 564
f 527 564 528
f 530 565 566
f 530 566 531
f 531 567 532
f 531 566 567
f 532 567 568
f 538 569 540
f 539 540 570
f 539 570 541
f 540 569 570
f 541 570 571
f 541 571 572
f 541 572 544
f 542 573 574
f 542 574 545
f 542 544 575
f 542 575 576
f 542 576 573
f 544 572 577
f 544 577 578
f 544 578 575
f 545 574 546
f 546 574 547
f 547 567 579
f 547 579 548
f 547 574 580
f 547 580 567
f 548 579 581
f 548 581 549
f 549 581 554
f 550 552 555
f 550 555 582
f 550 582 583
f 550 583 584
f 550 584 585
f 550 585 558
f 550 553 551
f 554 581 555
f 555 581 586
f 555 586 587
f 555 587 582
f 556 559 588
f 556 588 589
f 556 589 590
f 556 590 560
f 556 560 557
f 558 585 559
f 559 585 588
f 560 590 591
f 560 591 561
f 561 592 562
f 561 591 592
f 562 592 563
f 563 592 593
f 563 593 594
f 563 594 595
f 563 595 564
f 565 596 597
f 565 597 566
f 566 598 567
f 566 597 599
f 566 599 598
f 567 580 600
f 567 600 568
f 567 598 579
f 573 576 601
f 573 601 602
f 573 602 574
f 574 603 580
f 574 602 603
f 579 598 581
f 580 603 600
f 581 598 586
f 582 587 583
f 583 604 605
f 583 605 584
f 583 587 606
f 583 606 604
f 584 605 585
f 585 605 607
f 585 607 589
f 585 589 588
f 586 599 587
f 586 598 599
f 587 599 597
f 587 597 606
f 589 608 609
f 589 609 610
f 589 610 611
f 589 611 612
f 589 612 613
f 589 613 591
f 589 591 590
f 589 607 604
f 589 604 608
f 591 613 614
f 591 614 592
f 592 614 615
f 592 615 593
f 596 616 597
f 597 616 617
f 597 617 618
f 597 618 604
f 597 604 606
f 604 618 619
f 604 619 608
f 604 607 605
