v 0.92707831 0.10845642 0.38824612
v 0.92360920 0.09998596 0.38824612
v 0.92685926 0.13126148 0.38824612
v 0.92163730 0.12594709 0.40356261
v 0.92163730 0.11350611 0.40356261
v 0.92539853 0.10811027 0.39193261
v 0.91992098 0.10016922 0.39987612
v 0.92035913 0.09418289 0.38824612
v 0.92214853 0.14221607 0.38824612
v 0.91973841 0.13926363 0.39952502
v 0.92532551 0.13156691 0.39171317
v 0.91685355 0.13156691 0.41014564
v 0.90768772 0.12999907 0.43002635
v 0.90140676 0.12999907 0.44270965
v 0.88124931 0.12466431 0.48220778
v 0.90151632 0.10998355 0.44297296
v 0.90805286 0.10998355 0.43002635
v 0.91714567 0.10811027 0.41014564
v 0.91513723 0.08974405 0.39193261
v 0.90016520 0.09972127 0.44038364
v 0.90272141 0.09636159 0.43002635
v 0.90677476 0.08925536 0.40961897
v 0.91561192 0.08835945 0.38824612
v 0.91853333 0.14463910 0.38824612
v 0.90717649 0.14594226 0.41001397
v 0.90239275 0.14237896 0.43002635
v 0.89998257 0.13999665 0.44003254
v 0.89600223 0.12999907 0.45271584
v 0.88124931 0.11495179 0.48220778
v 0.88555831 0.13079317 0.47136772
v 0.87931389 0.13800120 0.47891629
v 0.87526047 0.13079317 0.48936135
v 0.86459744 0.12999907 0.50766212
v 0.85846257 0.12999907 0.51766831
v 0.85075742 0.12999907 0.53000051
v 0.82026559 0.12108065 0.58042645
v 0.89618480 0.10998355 0.45297915
v 0.89804721 0.08208805 0.41602647
v 0.90122414 0.07876910 0.40272874
v 0.87949646 0.10161489 0.47917959
v 0.88322121 0.09587291 0.46583802
v 0.88891786 0.09112864 0.44806385
v 0.89450502 0.08636401 0.43002635
v 0.90542364 0.07687547 0.38824612
v 0.91407824 0.14734721 0.38824612
v 0.91181415 0.14771372 0.39171317
v 0.88997686 0.15003495 0.43002635
v 0.88979429 0.14465946 0.44801995
v 0.88296556 0.14296944 0.46557468
v 0.86207777 0.14223643 0.50353676
v 0.85857213 0.10998355 0.51775610
v 0.86467046 0.10998355 0.50779378
v 0.87544304 0.10896546 0.48936135
v 0.88570440 0.10896546 0.47154328
v 0.82026559 0.11892232 0.58042645
v 0.84056914 0.14066859 0.54092836
v 0.84224892 0.12999907 0.54360545
v 0.83571237 0.12999907 0.55356777
v 0.82475722 0.12863484 0.57055193
v 0.81825715 0.13441755 0.57761770
v 0.81230485 0.12863484 0.58828223
v 0.80167836 0.12999907 0.60223824
v 0.79379064 0.12999907 0.61224443
v 0.78378493 0.12999907 0.62470829
v 0.77560508 0.12999907 0.63471448
v 0.77575117 0.10998355 0.63480222
v 0.88128579 0.07876910 0.44240242
v 0.88449931 0.07587775 0.43002635
v 0.88920999 0.07058372 0.40843403
v 0.89282525 0.06614487 0.39000160
v 0.90399945 0.07614245 0.39000160
v 0.86218733 0.09711497 0.50371230
v 0.84056914 0.09917150 0.54097223
v 0.87756103 0.08253601 0.45574403
v 0.86529130 0.09027345 0.48852748
v 0.85652715 0.08377808 0.49418887
v 0.87453014 0.08952007 0.47154328
v 0.90451074 0.07595919 0.38824612
v 0.91152203 0.14862999 0.38824612
v 0.88997686 0.15398511 0.41001397
v 0.86996543 0.15394439 0.45003873
v 0.84999061 0.15335390 0.49001962
v 0.87157226 0.14781553 0.47136772
v 0.86605811 0.14514814 0.49001962
v 0.84389222 0.14351921 0.53000051
v 0.85086697 0.10998355 0.53000051
v 0.81226832 0.11134778 0.58828223
v 0.81822062 0.10558543 0.57752997
v 0.82475722 0.11134778 0.57055193
v 0.83574891 0.10998355 0.55361164
v 0.84228545 0.10998355 0.54360545
v 0.78385800 0.10998355 0.62479603
v 0.79386365 0.10998355 0.61220056
v 0.80164182 0.10998355 0.60219431
v 0.82282180 0.14278619 0.56427610
v 0.80014461 0.14017990 0.60026330
v 0.76559937 0.12999907 0.64665169
v 0.76574546 0.10998355 0.64682722
v 0.78148437 0.14150341 0.62185562
v 0.78155738 0.09811269 0.62194341
v 0.80010813 0.09982307 0.60017556
v 0.86043447 0.07954285 0.48084730
v 0.86353844 0.07683475 0.47000724
v 0.85641760 0.06288701 0.45359358
v 0.87281382 0.06588016 0.43002635
v 0.87697679 0.06237796 0.41413933
v 0.88037288 0.05969022 0.40079772
v 0.88281953 0.05775586 0.39000160
v 0.88406110 0.05816310 0.38824612
v 0.89319038 0.06581908 0.38824612
v 0.90337867 0.07494111 0.38824612
v 0.84403825 0.09505844 0.53000051
v 0.83910847 0.08088672 0.51863384
v 0.82282180 0.09650412 0.56423223
v 0.82881063 0.09116936 0.54825747
v 0.83538371 0.08506086 0.53000051
v 0.89172971 0.15461633 0.38824612
v 0.88997686 0.15473849 0.39000160
v 0.84999061 0.15514572 0.47000724
v 0.82997918 0.15506428 0.51003200
v 0.80996776 0.15410729 0.55001289
v 0.82997918 0.15148063 0.53000051
v 0.85079396 0.14698070 0.51011980
v 0.82968700 0.14508706 0.54856467
v 0.81095374 0.14740829 0.57055193
v 0.80383289 0.14319342 0.59003770
v 0.78889734 0.14384501 0.60816294
v 0.75709087 0.12999907 0.65665787
v 0.72031808 0.12089740 0.70028138
v 0.76282406 0.09674846 0.64331627
v 0.72031808 0.11898340 0.70028138
v 0.75723696 0.10998355 0.65683341
v 0.76957977 0.14537212 0.62909693
v 0.76264149 0.14241968 0.64314073
v 0.76903200 0.09076212 0.62883365
v 0.77523994 0.08477580 0.61404377
v 0.78772879 0.09230962 0.60715353
v 0.78053492 0.07950213 0.60074610
v 0.79452097 0.08571243 0.59003770
v 0.80375981 0.09571001 0.59003770
v 0.84991753 0.07430990 0.48852748
v 0.84319836 0.07709945 0.50529224
v 0.84984452 0.06579872 0.47127998
v 0.84308881 0.05759297 0.46544302
v 0.86010581 0.05989384 0.44025201
v 0.83925450 0.06054541 0.47878462
v 0.86280811 0.05781695 0.43002635
v 0.87018454 0.05492559 0.40847793
v 0.85820693 0.04134436 0.39623350
v 0.86879694 0.04702526 0.38973826
v 0.84155512 0.03883987 0.42300445
v 0.85481083 0.04390993 0.41001397
v 0.86719018 0.04529452 0.38824612
v 0.88205266 0.05657488 0.38824612
v 0.88318467 0.05745044 0.38824612
v 0.81686950 0.08316723 0.55554265
v 0.82143414 0.07868766 0.54220104
v 0.82541454 0.07532798 0.53000051
v 0.81088066 0.08880740 0.57129800
v 0.88997686 0.15457560 0.38824612
v 0.55405539 0.15422945 0.78998601
v 0.59002483 0.15547152 0.76997364
v 0.80996776 0.15522717 0.53000051
v 0.78999287 0.15518644 0.57002532
v 0.76998144 0.15258016 0.61000621
v 0.78999287 0.15093087 0.59003770
v 0.74708521 0.12999907 0.66802454
v 0.73817497 0.12999907 0.67798686
v 0.72674513 0.12853302 0.69067013
v 0.71783495 0.13423429 0.69777983
v 0.69782352 0.13419357 0.71783608
v 0.70030671 0.12085667 0.72024989
v 0.75639707 0.08343193 0.63567996
v 0.74723125 0.10998355 0.66815621
v 0.73835760 0.10998355 0.67816240
v 0.74376214 0.09587291 0.66425031
v 0.75007957 0.08964224 0.65011871
v 0.71809053 0.10564651 0.69799924
v 0.72685468 0.11138850 0.69080180
v 0.70030671 0.11902413 0.72024989
v 0.69807911 0.10568723 0.71809942
v 0.75015265 0.14639021 0.64985543
v 0.74357951 0.14303054 0.66403085
v 0.75866115 0.06097301 0.59833229
v 0.77023709 0.06559511 0.59100318
v 0.78451526 0.07626462 0.59003770
v 0.79879349 0.08111070 0.57836378
v 0.76191115 0.07838223 0.62238228
v 0.76914155 0.07532798 0.60847014
v 0.83593148 0.06323315 0.49001962
v 0.83052695 0.06942310 0.51090974
v 0.82095945 0.03930819 0.46166873
v 0.83421516 0.04431716 0.45003873
v 0.84984452 0.05537355 0.44815162
v 0.83012521 0.04989626 0.47022668
v 0.83801293 0.04146653 0.43634605
v 0.82194537 0.05848888 0.50314176
v 0.82592577 0.05549572 0.49001962
v 0.84893155 0.04714743 0.42980692
v 0.84480512 0.03639647 0.41001397
v 0.83615059 0.02281524 0.39000160
v 0.85079396 0.03303680 0.38824612
v 0.83081907 0.03364765 0.42980692
v 0.81909704 0.02065690 0.41826469
v 0.82950443 0.02552334 0.41097948
v 0.80354071 0.07697728 0.56506610
v 0.81011385 0.07343435 0.54931074
v 0.81062508 0.06429196 0.53197545
v 0.81770939 0.06174675 0.51648337
v 0.86803007 0.14708251 0.38824612
v 0.55405539 0.15365933 0.78594840
v 0.55405539 0.15445343 0.80596083
v 0.57001340 0.15522717 0.78998601
v 0.63001114 0.15416837 0.74996126
v 0.65002251 0.15439235 0.72999275
v 0.67003393 0.15443307 0.70998037
v 0.69000882 0.15443307 0.68996799
v 0.76998144 0.15522717 0.59003770
v 0.71002024 0.15437198 0.66999948
v 0.73003167 0.15414800 0.64998710
v 0.74997002 0.15359823 0.62997466
v 0.72426194 0.14333595 0.68443823
v 0.70450616 0.14339705 0.70449448
v 0.68449473 0.14333595 0.72428745
v 0.66422772 0.14313234 0.74377322
v 0.64355898 0.14276583 0.76308340
v 0.67814076 0.12999907 0.73819959
v 0.69070268 0.12851267 0.72670126
v 0.66813505 0.12999907 0.74732804
v 0.65710688 0.12999907 0.75733423
v 0.64710116 0.12999907 0.76615548
v 0.63552523 0.12999907 0.77616167
v 0.73726207 0.08253601 0.65687728
v 0.74306828 0.07750668 0.64353573
v 0.72448105 0.09536387 0.68470156
v 0.73087156 0.08894994 0.67092109
v 0.70476180 0.09516025 0.70475781
v 0.64706463 0.10998355 0.76606768
v 0.65707034 0.10998355 0.75737810
v 0.66828114 0.10998355 0.74737191
v 0.67828685 0.10998355 0.73837513
v 0.66437376 0.09581182 0.74386096
v 0.68475038 0.09530278 0.72450691
v 0.73057944 0.14698070 0.67043835
v 0.75398695 0.06451593 0.61000621
v 0.74003738 0.05999565 0.61996847
v 0.74401772 0.05712465 0.61000621
v 0.74986047 0.05005915 0.58986217
v 0.76373702 0.05724682 0.58499068
v 0.77706575 0.06217434 0.57603776
v 0.79035801 0.06958599 0.57055193
v 0.74818069 0.07127601 0.62782425
v 0.79835528 0.02116594 0.45723617
v 0.80218959 0.01839676 0.44389459
v 0.82424599 0.03690551 0.45003873
v 0.81697905 0.04217919 0.47501034
v 0.81018686 0.03468609 0.46899784
v 0.81595659 0.02291705 0.43002635
v 0.81062508 0.05331702 0.50990033
v 0.79956037 0.04030591 0.49936754
v 0.81018686 0.04460222 0.49164343
v 0.82249314 0.01819314 0.40492308
v 0.79999858 0.00001017 0.40000778
v 0.82614487 0.01554612 0.39000160
v 0.82800722 0.01629950 0.38824612
v 0.83655226 0.02250981 0.38824612
v 0.80598736 0.01566829 0.43002635
v 0.79649293 0.00249429 0.41334936
v 0.79638338 0.06276483 0.55001289
v 0.79992551 0.06003637 0.53991896
v 0.80438066 0.05673778 0.52657735
v 0.86792052 0.14704178 0.38824612
v 0.55405539 0.14700106 0.76944697
v 0.55405539 0.15298739 0.81021786
v 0.59002483 0.15158243 0.78998601
v 0.61003625 0.15343535 0.76997364
v 0.65013206 0.14673635 0.75026846
v 0.67054522 0.14706214 0.73056328
v 0.69070268 0.14722504 0.71068251
v 0.71071410 0.14722504 0.69067013
v 0.62953639 0.14604406 0.76984197
v 0.62252510 0.14205317 0.78199863
v 0.63530612 0.10998355 0.77607393
v 0.62551951 0.12999907 0.78445625
v 0.71776187 0.08202697 0.67754799
v 0.72393328 0.07693656 0.66420639
v 0.72911876 0.07054299 0.64897770
v 0.73430419 0.06416979 0.63331008
v 0.71126187 0.08860379 0.69128454
v 0.69136000 0.08856307 0.71125305
v 0.69793308 0.08184372 0.69786757
v 0.62219644 0.09792943 0.78173530
v 0.64352250 0.09664665 0.76295173
v 0.65027815 0.08956079 0.75018066
v 0.65703386 0.08247493 0.73727798
v 0.67101991 0.08888885 0.73091435
v 0.67766607 0.08196589 0.71779221
v 0.72093886 0.05934407 0.64103419
v 0.72857100 0.05685995 0.62799978
v 0.71684897 0.04209774 0.61623812
v 0.72948390 0.04696418 0.60978675
v 0.73576486 0.04285112 0.59477746
v 0.74105984 0.03926747 0.58143586
v 0.75537461 0.04323799 0.57002532
v 0.75942796 0.04038736 0.55927300
v 0.77023709 0.05370389 0.56963032
v 0.78192258 0.05852961 0.56274009
v 0.79448450 0.02389441 0.47000724
v 0.78447878 0.01682891 0.47000724
v 0.76223981 -0.00155768 0.46368754
v 0.77633542 0.00257574 0.45003873
v 0.79101533 0.01308236 0.45034593
v 0.77954894 0.00031560 0.43919870
v 0.80365026 0.03737383 0.48602593
v 0.79612774 0.04279004 0.51003200
v 0.78192258 0.03859553 0.52297866
v 0.77681017 0.02222475 0.49493498
v 0.79024851 0.02979929 0.49045849
v 0.78615856 0.03562273 0.51003200
v 0.78988332 -0.00418434 0.40803906
v 0.77319497 -0.01522036 0.41001397
v 0.77721184 -0.01805063 0.39439029
v 0.78838611 -0.01226792 0.38824612
v 0.80156881 -0.00290155 0.38824612
v 0.80237216 -0.00172057 0.39000160
v 0.78316414 -0.00224997 0.42590100
v 0.77746749 0.04181268 0.53632021
v 0.79094231 0.04928541 0.53144878
v 0.78637767 0.05525138 0.55001289
v 0.85809737 0.14129978 0.38824612
v 0.55405539 0.14527032 0.76567274
v 0.55405539 0.14608479 0.82562208
v 0.60842949 0.14457802 0.78919607
v 0.57085329 0.14763227 0.81113946
v 0.60072434 0.14058714 0.80051887
v 0.62530041 0.10998355 0.78423685
v 0.61284804 0.12999907 0.79441857
v 0.58063990 0.12177294 0.82039958
v 0.58063990 0.11835219 0.82039958
v 0.70443314 0.07659040 0.68452603
v 0.71495008 0.06359966 0.65437573
v 0.70969158 0.07009503 0.66964835
v 0.68460429 0.07657005 0.70445061
v 0.60737050 0.09214672 0.78792334
v 0.61441827 0.08459254 0.77545947
v 0.62906170 0.09061959 0.76922756
v 0.60032266 0.09970090 0.80021167
v 0.63592690 0.08333012 0.75650036
v 0.66433728 0.07687547 0.72393638
v 0.64366853 0.07738451 0.74315882
v 0.70899779 0.05584187 0.64862657
v 0.71012980 0.04578320 0.63041353
v 0.70162129 0.05887575 0.66170484
v 0.71012980 0.03413633 0.60978675
v 0.72243607 0.03841228 0.60294044
v 0.70352018 0.03771998 0.62400609
v 0.72948390 0.03554128 0.58885276
v 0.71761584 0.02157318 0.57700330
v 0.72973955 0.02599166 0.57020086
v 0.73620307 0.02250981 0.55501598
v 0.74540538 0.03631502 0.57002532
v 0.75033522 0.02977893 0.55049568
v 0.76413870 0.03706841 0.54593146
v 0.77049267 0.04443933 0.55154896
v 0.78093660 0.01933339 0.48159337
v 0.76932412 0.00624084 0.47022668
v 0.73905140 -0.01937414 0.45850891
v 0.74989700 -0.01515928 0.45113593
v 0.76636624 -0.00442867 0.45003873
v 0.77009100 0.01491491 0.48896635
v 0.75807685 0.00133368 0.47698525
v 0.75084645 -0.00648521 0.47022668
v 0.75650662 -0.01766376 0.43402004
v 0.76034093 -0.02024969 0.42067847
v 0.77049267 0.03374945 0.52978110
v 0.75913584 0.02057545 0.51876551
v 0.77009100 0.02485141 0.51126087
v 0.76348138 0.01756193 0.50542390
v 0.76318926 -0.02220441 0.41001397
v 0.77031010 -0.02476998 0.38864109
v 0.77082133 -0.02454600 0.38824612
v 0.55405539 -0.03904351 0.38824612
v 0.55405539 0.14480200 0.82777256
v 0.56471843 0.14305089 0.82320833
v 0.59002483 0.14362103 0.80429316
v 0.57804716 0.13508949 0.81855631
v 0.60284233 0.12999907 0.80209875
v 0.61255592 0.10998355 0.79424304
v 0.58838153 0.12906243 0.81280714
v 0.57085329 0.12906243 0.82522714
v 0.55405539 0.12999907 0.83659381
v 0.55405539 0.10998355 0.83637440
v 0.55438405 0.10998355 0.83615494
v 0.57070726 0.11100163 0.82518327
v 0.57782811 0.10501529 0.81842470
v 0.58838153 0.11100163 0.81254387
v 0.60255021 0.10998355 0.80187935
v 0.68989927 0.06991178 0.68983632
v 0.69519430 0.06325351 0.67504644
v 0.66970527 0.07005431 0.70967317
v 0.67507333 0.06325351 0.69514662
v 0.59002483 0.08534592 0.79503298
v 0.60108954 0.07923742 0.78081369
v 0.62259817 0.07817861 0.76211786
v 0.56449932 0.09617834 0.82307667
v 0.59002483 0.09534350 0.80398589
v 0.57896012 0.08076455 0.79920226
v 0.64914614 0.07046154 0.72920275
v 0.65462369 0.06353857 0.71493959
v 0.62814873 0.07111312 0.74838132
v 0.63369936 0.06406798 0.73442531
v 0.69764096 0.04152761 0.63734770
v 0.67799467 0.04128327 0.65788668
v 0.69059312 0.04500946 0.65073317
v 0.68186551 0.05879431 0.68180501
v 0.68913245 0.05537355 0.66903394
v 0.69128692 0.02322247 0.61180556
v 0.69877297 0.02077907 0.59855175
v 0.71056801 0.02444417 0.59113485
v 0.69059312 0.03313860 0.63041353
v 0.71056801 0.01361176 0.57020086
v 0.72287428 0.01815242 0.56366169
v 0.70428705 0.01729723 0.58525401
v 0.72973955 0.01532215 0.54900348
v 0.74120593 0.01919086 0.54167444
v 0.75526506 0.02322247 0.53000051
v 0.73145586 -0.02721338 0.45113593
v 0.74317783 -0.02208224 0.44516730
v 0.74390817 -0.00261649 0.49001962
v 0.73529011 -0.01693074 0.47000724
v 0.72528446 -0.02332431 0.47000724
v 0.75387740 0.00416395 0.49001962
v 0.74989700 -0.02417949 0.42840254
v 0.73675084 -0.03794399 0.41427100
v 0.74829024 -0.03252778 0.40856570
v 0.74525934 0.01644203 0.53000051
v 0.73583788 0.00273863 0.51402575
v 0.74047559 -0.00029526 0.50068414
v 0.74054861 -0.04032630 0.40097329
v 0.75336611 -0.03570420 0.39000160
v 0.75380433 -0.03598926 0.38824612
v 0.76998144 -0.02511613 0.38824612
v 0.55405539 -0.05254330 0.38824612
v 0.55405539 0.10969848 0.83628660
v 0.66170806 0.05891648 0.70159799
v 0.59144902 0.06488245 0.77063191
v 0.59908110 0.06054541 0.75922137
v 0.60864860 0.07477821 0.76927143
v 0.59002483 0.07569449 0.78502679
v 0.61003625 0.06404762 0.75461328
v 0.55405539 0.09259468 0.82711428
v 0.55606389 0.08284144 0.81723976
v 0.55405539 0.08216950 0.81794190
v 0.56563139 0.07652932 0.80389816
v 0.57132804 0.06911767 0.79090762
v 0.64129496 0.05920154 0.72112763
v 0.62033409 0.05979203 0.74026227
v 0.68431216 0.03731275 0.64454514
v 0.67080081 0.04482620 0.67074555
v 0.66466594 0.03717022 0.66460139
v 0.66908449 0.03057303 0.64902157
v 0.66904801 0.05539391 0.68909025
v 0.65791023 0.04130363 0.67794299
v 0.68544418 0.01664565 0.60627580
v 0.67967451 0.02022931 0.61957353
v 0.68953413 0.01031317 0.58946717
v 0.67489076 0.02314102 0.62997466
v 0.69910163 0.00055993 0.55887806
v 0.71056801 0.00414359 0.55132949
v 0.68029529 -0.00015273 0.58033872
v 0.69453698 0.00339020 0.57002532
v 0.71761584 0.00153729 0.53675908
v 0.72948390 0.00607795 0.53008831
v 0.70910734 -0.03366803 0.46965617
v 0.70184040 -0.04110004 0.46272203
v 0.71593606 -0.03743494 0.45003873
v 0.71944171 -0.03963400 0.43906704
v 0.73006821 -0.03580600 0.43143076
v 0.72879010 -0.01287876 0.48918578
v 0.72130406 -0.02081982 0.48194444
v 0.72342205 -0.04209777 0.42572546
v 0.72247261 -0.00157804 0.52341747
v 0.72948390 -0.00389927 0.50845212
v 0.71677595 -0.01794882 0.49528605
v 0.73006821 -0.04407285 0.40856570
v 0.71502310 -0.05254330 0.41036505
v 0.72218049 -0.05254330 0.39741844
v 0.73003167 -0.05028315 0.39000160
v 0.74336046 -0.04211812 0.39000160
v 0.74394470 -0.04230138 0.38824612
v 0.72721982 -0.05254330 0.38824612
v 0.55405539 -0.05254330 0.61180556
v 0.64878094 0.05574006 0.70892709
v 0.63760668 0.04144616 0.69773591
v 0.65075290 0.04500946 0.69062626
v 0.57702470 0.06168567 0.77778548
v 0.58575231 0.05669706 0.76444387
v 0.59075516 0.04957047 0.75053179
v 0.59572148 0.04244389 0.73640025
v 0.61003625 0.05665633 0.74465096
v 0.55405539 0.08506086 0.82053125
v 0.55405539 0.07261989 0.80732131
v 0.55434752 0.06319243 0.79599851
v 0.62822181 0.05651380 0.72867614
v 0.61014581 0.04645514 0.72981721
v 0.61686492 0.04187376 0.71717781
v 0.63055891 0.04551850 0.71028757
v 0.66017431 0.01990352 0.64015645
v 0.64910960 0.03053231 0.66907787
v 0.64027244 0.01986280 0.66021270
v 0.65360123 0.02383332 0.65349805
v 0.64458150 0.03725166 0.68439436
v 0.67043567 0.00976341 0.61048895
v 0.67452556 0.00332912 0.59368026
v 0.66488504 0.01709361 0.62997466
v 0.67474467 -0.01684929 0.55356777
v 0.68964368 -0.00976343 0.54957402
v 0.70428705 -0.00269793 0.54558033
v 0.68456781 -0.00275902 0.57002532
v 0.66871935 -0.00300336 0.58823830
v 0.66886538 -0.01269551 0.56901592
v 0.71056801 -0.00607797 0.53008831
v 0.71009326 -0.02479034 0.48918578
v 0.69727576 -0.03835122 0.47606361
v 0.68285149 -0.05254330 0.46171266
v 0.69026446 -0.05254330 0.45078480
v 0.69114089 -0.05254330 0.44946820
v 0.70593035 -0.04360453 0.45003873
v 0.69037402 -0.04502985 0.46965617
v 0.70308197 -0.05254330 0.43068466
v 0.71166354 -0.04712709 0.43143076
v 0.70611292 -0.05254330 0.42568156
v 0.71042192 -0.05254330 0.41830856
v 0.71009326 -0.01522036 0.51090974
v 0.70344716 -0.02214333 0.50485337
v 0.72627038 -0.05254330 0.39000160
v 0.74003738 -0.04470405 0.38824612
v 0.55580825 -0.05254330 0.61013782
v 0.57026905 -0.04543708 0.61035728
v 0.56376898 -0.04185342 0.62352335
v 0.55405539 -0.04413393 0.62817532
v 0.63055891 0.03289426 0.69062626
v 0.62427795 0.03751636 0.70383620
v 0.56877184 0.05067000 0.76905203
v 0.56369591 0.05793912 0.78265691
v 0.57381117 0.04338052 0.75518376
v 0.58239275 0.03869734 0.74188608
v 0.58944058 0.03456392 0.72981721
v 0.60353619 0.03796432 0.72305864
v 0.55405539 0.06357930 0.79665685
v 0.55405539 0.06311098 0.79608631
v 0.55405539 0.06276483 0.79564738
v 0.55405539 0.05612693 0.78708947
v 0.61014581 0.03348475 0.71028757
v 0.64816016 0.01748048 0.64809996
v 0.63530612 0.00267755 0.63515335
v 0.64907312 0.00727928 0.62909693
v 0.65509844 0.00288117 0.61461431
v 0.61518514 0.00271827 0.65525347
v 0.62920773 0.00715711 0.64915323
v 0.63001114 0.02297813 0.67509031
v 0.61993241 0.02006641 0.67987400
v 0.63001114 0.01693071 0.66508412
v 0.66119683 -0.00068213 0.60136050
v 0.66141587 -0.02079945 0.56168681
v 0.66886538 -0.02295779 0.54812580
v 0.68018574 -0.02008680 0.54022616
v 0.69409877 -0.01640134 0.53000051
v 0.69866341 -0.01915016 0.51815110
v 0.65568268 -0.01746014 0.57498449
v 0.69037402 -0.03598926 0.49129236
v 0.68394697 -0.04230138 0.48545539
v 0.67668009 -0.05254330 0.47075331
v 0.69910163 -0.05254330 0.43700436
v 0.69117737 -0.02688760 0.51090974
v 0.56307518 -0.05254330 0.60315984
v 0.57322693 -0.05254330 0.59319752
v 0.58392644 -0.04195523 0.60386205
v 0.57713425 -0.03853447 0.61715972
v 0.57026905 -0.03509335 0.63010633
v 0.55661160 -0.03831049 0.63686490
v 0.55405539 -0.04093714 0.63423169
v 0.61197162 0.02275415 0.69163567
v 0.59940976 0.02035148 0.69940364
v 0.56048244 0.03975615 0.76031852
v 0.55405539 0.04830805 0.77660054
v 0.55405539 0.04566103 0.77304572
v 0.56829709 0.03615213 0.74912739
v 0.55650204 0.02181752 0.73727798
v 0.57092631 0.02487177 0.73034382
v 0.57822978 0.02096233 0.71849442
v 0.59163159 0.02356862 0.71107751
v 0.62197733 -0.00108936 0.64191192
v 0.62920773 -0.00412325 0.62909693
v 0.64176965 -0.00100791 0.62181175
v 0.64907312 -0.00375674 0.60882127
v 0.60185641 -0.00100791 0.66170484
v 0.60912329 -0.00414361 0.64915323
v 0.60660362 0.01627914 0.68610591
v 0.61087614 0.00949871 0.67078942
v 0.63625556 -0.01788774 0.59596241
v 0.64940172 -0.01363215 0.58955491
v 0.63632858 -0.03794399 0.55571818
v 0.64921916 -0.03366803 0.54944241
v 0.64940172 -0.02403696 0.56901592
v 0.65535402 -0.03733313 0.53430140
v 0.66846371 -0.03236489 0.52859616
v 0.68412960 -0.02244875 0.53000051
v 0.67492723 -0.03698698 0.51003200
v 0.64231741 -0.02130850 0.58262080
v 0.67912674 -0.03947111 0.49879700
v 0.66601706 -0.05254330 0.48576260
v 0.67375869 -0.05254330 0.47487867
v 0.67149466 -0.04708637 0.49129236
v 0.57614827 -0.05254330 0.59030104
v 0.59035349 -0.04547780 0.59034491
v 0.59725523 -0.03857519 0.59723514
v 0.59035349 -0.03533769 0.61035728
v 0.58991528 -0.02515685 0.62993079
v 0.58315957 -0.02161392 0.64287740
v 0.56950217 -0.02470890 0.64972377
v 0.55405539 -0.03682409 0.64182413
v 0.55405539 -0.03894171 0.63800597
v 0.58604443 0.01674746 0.70515281
v 0.59031695 0.00984485 0.69023126
v 0.59455293 0.00294225 0.67504644
v 0.55405539 0.03810685 0.76264453
v 0.55405539 0.03181510 0.75364774
v 0.55405539 0.02365007 0.74179828
v 0.55405539 0.02118631 0.73819959
v 0.55405539 0.01888544 0.73468864
v 0.56490099 0.01743976 0.72393638
v 0.56015378 -0.00007128 0.70010585
v 0.59648836 -0.01813208 0.63660163
v 0.60996318 -0.01438553 0.62993079
v 0.61657280 -0.01809135 0.61641365
v 0.62975550 -0.01418192 0.60987455
v 0.58991528 -0.01420228 0.64972377
v 0.58874673 -0.00369566 0.66903394
v 0.62292677 -0.02161392 0.60311598
v 0.62975550 -0.02476998 0.58955491
v 0.62982857 -0.03456395 0.57002532
v 0.62299985 -0.04162944 0.56339836
v 0.62982857 -0.04450044 0.54944241
v 0.64202529 -0.04112041 0.54237664
v 0.64921916 -0.04342127 0.52859616
v 0.66075861 -0.04042811 0.52095985
v 0.66492152 -0.04285115 0.51003200
v 0.61697447 -0.03835122 0.57673997
v 0.66247487 -0.05254330 0.49059016
v 0.65809286 -0.05254330 0.49647099
v 0.58319610 -0.05254330 0.58314747
v 0.59020740 -0.05254330 0.57599390
v 0.60364574 -0.04191451 0.58389354
v 0.61021882 -0.03513407 0.59034491
v 0.60996318 -0.02517721 0.60987455
v 0.60324407 -0.02175646 0.62326002
v 0.57581961 -0.01784701 0.65621901
v 0.56249088 -0.02124741 0.66214371
v 0.55405539 -0.03016583 0.65371746
v 0.57348251 0.00341057 0.69435668
v 0.58122420 -0.00062104 0.68101507
v 0.55405539 0.01493527 0.72858834
v 0.55405539 0.00738109 0.71678281
v 0.55405539 0.00508022 0.71314019
v 0.55405539 -0.00157804 0.70256346
v 0.55405539 -0.00679063 0.69391775
v 0.55405539 -0.01678821 0.67710912
v 0.56811452 -0.00284046 0.68860745
v 0.56950217 -0.01350998 0.66929728
v 0.61219072 -0.05254330 0.55242670
v 0.62186778 -0.05254330 0.54141110
v 0.61021882 -0.04521310 0.57002532
v 0.63074148 -0.05254330 0.53100991
v 0.64027244 -0.05254330 0.51933604
v 0.64848882 -0.05254330 0.50911039
v 0.59298271 -0.05254330 0.57309735
v 0.60284233 -0.05254330 0.56265229
v 0.55405539 -0.01756195 0.67579252
v 0.55405539 -0.01817280 0.67473924
v 0.55405539 -0.02287635 0.66657627
v 0.60992670 -0.05254330 0.55492824
f 1 2 8
f 1 8 23
f 1 23 44
f 1 44 78
f 1 78 111
f 1 111 110
f 1 110 109
f 1 109 155
f 1 155 154
f 1 154 153
f 1 153 202
f 1 202 266
f 1 266 265
f 1 265 324
f 1 324 323
f 1 323 381
f 1 381 442
f 1 442 441
f 1 441 490
f 1 490 537
f 1 537 491
f 1 491 443
f 1 443 382
f 1 382 330
f 1 330 272
f 1 272 210
f 1 210 160
f 1 160 117
f 1 117 79
f 1 79 45
f 1 45 24
f 1 24 9
f 1 9 3
f 1 3 4
f 1 4 5
f 1 5 6
f 1 6 7
f 1 7 2
f 2 7 8
f 3 9 10
f 3 10 11
f 3 11 4
f 4 11 10
f 4 10 12
f 4 12 13
f 4 13 14
f 4 14 15
f 4 15 16
f 4 16 5
f 5 7 6
f 5 16 17
f 5 17 18
f 5 18 7
f 7 19 8
f 7 18 17
f 7 17 20
f 7 20 21
f 7 21 22
f 7 22 19
f 8 19 23
f 9 24 25
f 9 25 26
f 9 26 10
f 10 26 27
f 10 27 12
f 12 27 13
f 13 27 14
f 14 28 15
f 14 27 28
f 15 29 16
f 15 28 30
f 15 30 31
f 15 31 32
f 15 32 33
f 15 33 34
f 15 34 35
f 15 35 36
f 15 36 55
f 15 55 29
f 16 29 37
f 16 37 20
f 16 20 17
f 19 22 38
f 19 38 39
f 19 39 23
f 20 37 40
f 20 40 41
f 20 41 42
f 20 42 43
f 20 43 21
f 21 43 38
f 21 38 22
f 23 39 44
f 24 45 25
f 25 46 47
f 25 47 48
f 25 48 26
f 25 45 46
f 26 48 49
f 26 49 27
f 27 49 50
f 27 50 31
f 27 31 28
f 28 31 30
f 29 51 52
f 29 52 53
f 29 53 40
f 29 40 54
f 29 54 37
f 29 55 51
f 31 50 56
f 31 56 33
f 31 33 32
f 33 56 34
f 34 56 35
f 35 56 57
f 35 57 36
f 36 57 58
f 36 58 59
f 36 59 60
f 36 60 61
f 36 61 62
f 36 62 63
f 36 63 64
f 36 64 65
f 36 65 66
f 36 66 55
f 37 54 40
f 38 43 67
f 38 67 68
f 38 68 39
f 39 69 70
f 39 70 71
f 39 71 44
f 39 68 69
f 40 72 41
f 40 53 52
f 40 52 51
f 40 51 73
f 40 73 72
f 41 74 42
f 41 72 75
f 41 75 76
f 41 76 77
f 41 77 74
f 42 74 43
f 43 74 67
f 44 71 78
f 45 79 46
f 46 79 47
f 47 79 80
f 47 80 81
f 47 81 82
f 47 82 83
f 47 83 48
f 48 83 84
f 48 84 49
f 49 84 50
f 50 84 85
f 50 85 56
f 51 55 86
f 51 86 73
f 55 87 88
f 55 88 89
f 55 89 90
f 55 90 91
f 55 91 86
f 55 66 92
f 55 92 93
f 55 93 94
f 55 94 87
f 56 85 95
f 56 95 96
f 56 96 60
f 56 60 58
f 56 58 57
f 58 60 59
f 60 96 61
f 61 96 62
f 62 96 63
f 63 96 64
f 64 96 65
f 65 97 98
f 65 98 66
f 65 96 99
f 65 99 97
f 66 98 100
f 66 100 101
f 66 101 92
f 67 74 102
f 67 102 103
f 67 103 104
f 67 104 105
f 67 105 68
f 68 105 106
f 68 106 69
f 69 107 70
f 69 106 107
f 70 108 109
f 70 109 110
f 70 110 71
f 70 107 108
f 71 110 111
f 71 111 78
f 72 112 113
f 72 113 76
f 72 76 75
f 72 73 112
f 73 91 90
f 73 90 88
f 73 88 101
f 73 101 114
f 73 114 115
f 73 115 116
f 73 116 113
f 73 113 112
f 73 86 91
f 74 77 76
f 74 76 102
f 76 113 102
f 79 117 80
f 80 117 118
f 80 118 119
f 80 119 81
f 81 119 120
f 81 120 82
f 82 120 121
f 82 121 122
f 82 122 123
f 82 123 84
f 82 84 83
f 84 123 85
f 85 123 124
f 85 124 95
f 87 94 101
f 87 101 88
f 88 90 89
f 92 101 93
f 93 101 94
f 95 124 125
f 95 125 126
f 95 126 96
f 96 126 127
f 96 127 99
f 97 99 128
f 97 128 129
f 97 129 98
f 98 130 100
f 98 129 131
f 98 131 132
f 98 132 130
f 99 133 134
f 99 134 128
f 99 127 133
f 100 130 135
f 100 135 136
f 100 136 137
f 100 137 101
f 101 137 138
f 101 138 139
f 101 139 140
f 101 140 114
f 102 141 103
f 102 113 142
f 102 142 141
f 103 141 143
f 103 143 104
f 104 144 145
f 104 145 105
f 104 143 146
f 104 146 144
f 105 145 106
f 106 145 147
f 106 147 148
f 106 148 107
f 107 149 150
f 107 150 108
f 107 148 151
f 107 151 152
f 107 152 149
f 108 150 153
f 108 153 154
f 108 154 155
f 108 155 109
f 113 116 156
f 113 156 157
f 113 157 158
f 113 158 142
f 114 140 159
f 114 159 156
f 114 156 115
f 115 156 116
f 117 160 118
f 118 160 161
f 118 161 162
f 118 162 119
f 119 163 164
f 119 164 120
f 119 162 163
f 120 164 121
f 121 164 165
f 121 165 166
f 121 166 122
f 122 166 125
f 122 125 124
f 122 124 123
f 125 166 126
f 126 166 127
f 127 166 133
f 128 167 129
f 128 134 167
f 129 167 168
f 129 168 169
f 129 169 170
f 129 170 171
f 129 171 172
f 129 172 180
f 129 180 131
f 130 173 135
f 130 132 174
f 130 174 175
f 130 175 176
f 130 176 177
f 130 177 173
f 131 178 179
f 131 179 175
f 131 175 174
f 131 174 132
f 131 180 181
f 131 181 178
f 133 166 165
f 133 165 182
f 133 182 134
f 134 182 183
f 134 183 168
f 134 168 167
f 135 173 136
f 136 138 137
f 136 173 138
f 138 184 185
f 138 185 186
f 138 186 187
f 138 187 139
f 138 173 188
f 138 188 189
f 138 189 184
f 139 187 140
f 140 187 159
f 141 142 190
f 141 190 143
f 142 158 191
f 142 191 190
f 143 190 146
f 144 192 193
f 144 193 194
f 144 194 145
f 144 146 195
f 144 195 192
f 145 194 196
f 145 196 147
f 146 190 197
f 146 197 198
f 146 198 195
f 147 196 199
f 147 199 148
f 148 199 151
f 149 152 200
f 149 200 201
f 149 201 202
f 149 202 153
f 149 153 150
f 151 199 196
f 151 196 203
f 151 203 204
f 151 204 205
f 151 205 200
f 151 200 152
f 156 159 187
f 156 187 157
f 157 187 206
f 157 206 207
f 157 207 208
f 157 208 158
f 158 208 209
f 158 209 191
f 160 210 211
f 160 211 161
f 161 211 273
f 161 273 331
f 161 331 382
f 161 382 443
f 161 443 492
f 161 492 541
f 161 541 582
f 161 582 623
f 161 623 622
f 161 622 660
f 161 660 681
f 161 681 680
f 161 680 679
f 161 679 668
f 161 668 667
f 161 667 666
f 161 666 665
f 161 665 664
f 161 664 663
f 161 663 631
f 161 631 630
f 161 630 629
f 161 629 628
f 161 628 627
f 161 627 587
f 161 587 586
f 161 586 553
f 161 553 552
f 161 552 551
f 161 551 550
f 161 550 502
f 161 502 453
f 161 453 501
f 161 501 451
f 161 451 444
f 161 444 392
f 161 392 391
f 161 391 383
f 161 383 332
f 161 332 274
f 161 274 212
f 161 212 213
f 161 213 162
f 162 213 214
f 162 214 215
f 162 215 216
f 162 216 217
f 162 217 218
f 162 218 163
f 163 218 164
f 164 218 217
f 164 217 219
f 164 219 220
f 164 220 221
f 164 221 165
f 165 221 182
f 168 183 170
f 168 170 169
f 170 183 222
f 170 222 223
f 170 223 171
f 171 224 225
f 171 225 226
f 171 226 227
f 171 227 228
f 171 228 172
f 171 223 224
f 172 228 227
f 172 227 229
f 172 229 230
f 172 230 231
f 172 231 232
f 172 232 180
f 173 177 233
f 173 233 234
f 173 234 188
f 175 179 178
f 175 178 176
f 176 178 235
f 176 235 236
f 176 236 233
f 176 233 177
f 178 237 235
f 178 181 237
f 180 232 238
f 180 238 239
f 180 239 240
f 180 240 241
f 180 241 181
f 181 241 242
f 181 242 243
f 181 243 237
f 182 244 183
f 182 221 244
f 183 244 222
f 184 189 245
f 184 245 246
f 184 246 247
f 184 247 248
f 184 248 249
f 184 249 250
f 184 250 185
f 185 250 186
f 186 250 251
f 186 251 206
f 186 206 187
f 188 234 252
f 188 252 246
f 188 246 245
f 188 245 189
f 190 191 209
f 190 209 197
f 192 253 254
f 192 254 255
f 192 255 193
f 192 195 256
f 192 256 257
f 192 257 253
f 193 255 196
f 193 196 194
f 195 198 256
f 196 258 203
f 196 255 254
f 196 254 258
f 197 259 260
f 197 260 261
f 197 261 198
f 197 209 259
f 198 261 256
f 200 205 201
f 201 205 262
f 201 262 263
f 201 263 264
f 201 264 265
f 201 265 266
f 201 266 202
f 203 258 204
f 204 258 267
f 204 267 268
f 204 268 263
f 204 263 205
f 205 263 262
f 206 269 207
f 206 251 269
f 207 269 270
f 207 270 208
f 208 270 209
f 209 270 271
f 209 271 259
f 210 272 211
f 211 272 273
f 212 274 275
f 212 275 276
f 212 276 213
f 213 276 214
f 214 277 278
f 214 278 279
f 214 279 215
f 214 276 277
f 215 279 216
f 216 279 280
f 216 280 217
f 217 280 219
f 219 280 220
f 220 280 244
f 220 244 221
f 222 280 223
f 222 244 280
f 223 280 279
f 223 279 224
f 224 278 225
f 224 279 278
f 225 277 226
f 225 278 277
f 226 230 229
f 226 229 227
f 226 277 281
f 226 281 282
f 226 282 230
f 230 282 231
f 231 282 232
f 232 283 238
f 232 282 284
f 232 284 283
f 233 236 285
f 233 285 286
f 233 286 234
f 234 287 288
f 234 288 252
f 234 286 287
f 235 237 289
f 235 289 285
f 235 285 236
f 237 290 291
f 237 291 289
f 237 243 290
f 238 283 292
f 238 292 293
f 238 293 239
f 239 293 240
f 240 293 242
f 240 242 241
f 242 293 294
f 242 294 295
f 242 295 296
f 242 296 243
f 243 296 297
f 243 297 290
f 246 252 288
f 246 288 298
f 246 298 299
f 246 299 300
f 246 300 301
f 246 301 247
f 247 301 302
f 247 302 248
f 248 303 249
f 248 302 303
f 249 303 304
f 249 304 305
f 249 305 306
f 249 306 307
f 249 307 250
f 250 307 269
f 250 269 251
f 253 257 308
f 253 308 309
f 253 309 310
f 253 310 311
f 253 311 312
f 253 312 254
f 254 312 313
f 254 313 267
f 254 267 258
f 256 314 257
f 256 261 314
f 257 314 308
f 259 315 260
f 259 271 316
f 259 316 315
f 260 317 318
f 260 318 314
f 260 314 261
f 260 315 319
f 260 319 317
f 263 320 321
f 263 321 322
f 263 322 323
f 263 323 324
f 263 324 325
f 263 325 264
f 263 268 320
f 264 325 265
f 265 325 324
f 267 313 326
f 267 326 268
f 268 326 320
f 269 307 270
f 270 327 328
f 270 328 271
f 270 307 329
f 270 329 327
f 271 328 316
f 272 330 331
f 272 331 273
f 274 332 275
f 275 333 281
f 275 281 276
f 275 332 334
f 275 334 333
f 276 281 277
f 281 333 282
f 282 333 335
f 282 335 284
f 283 284 336
f 283 336 292
f 284 335 337
f 284 337 338
f 284 338 339
f 284 339 336
f 285 289 291
f 285 291 340
f 285 340 286
f 286 341 287
f 286 340 342
f 286 342 341
f 287 341 288
f 288 341 298
f 290 297 291
f 291 297 343
f 291 343 340
f 292 344 345
f 292 345 346
f 292 346 293
f 292 336 347
f 292 347 344
f 293 348 294
f 293 346 348
f 294 348 295
f 295 349 297
f 295 297 296
f 295 348 350
f 295 350 349
f 297 349 343
f 298 351 352
f 298 352 299
f 298 341 353
f 298 353 351
f 299 352 300
f 300 354 355
f 300 355 301
f 300 352 356
f 300 356 354
f 301 355 302
f 302 355 357
f 302 357 303
f 303 357 358
f 303 358 359
f 303 359 360
f 303 360 361
f 303 361 305
f 303 305 304
f 305 362 363
f 305 363 364
f 305 364 307
f 305 307 306
f 305 361 362
f 307 364 329
f 308 314 318
f 308 318 365
f 308 365 309
f 309 365 366
f 309 366 310
f 310 367 368
f 310 368 369
f 310 369 311
f 310 366 370
f 310 370 371
f 310 371 372
f 310 372 367
f 311 369 313
f 311 313 312
f 313 373 374
f 313 374 326
f 313 369 373
f 315 316 319
f 316 328 327
f 316 327 375
f 316 375 376
f 316 376 319
f 317 319 377
f 317 377 378
f 317 378 370
f 317 370 366
f 317 366 365
f 317 365 318
f 319 376 377
f 320 326 321
f 321 379 322
f 321 326 374
f 321 374 379
f 322 379 380
f 322 380 381
f 322 381 323
f 327 329 364
f 327 364 363
f 327 363 375
f 330 382 331
f 332 383 384
f 332 384 334
f 333 334 385
f 333 385 335
f 334 384 385
f 335 385 384
f 335 384 386
f 335 386 387
f 335 387 337
f 336 388 347
f 336 339 388
f 337 387 338
f 338 387 389
f 338 389 386
f 338 386 390
f 338 390 391
f 338 391 339
f 339 391 392
f 339 392 393
f 339 393 394
f 339 394 395
f 339 395 396
f 339 396 397
f 339 397 388
f 340 343 398
f 340 398 399
f 340 399 342
f 341 342 353
f 342 399 353
f 343 400 401
f 343 401 398
f 343 349 400
f 344 402 403
f 344 403 345
f 344 347 402
f 345 403 404
f 345 404 348
f 345 348 346
f 347 397 395
f 347 395 405
f 347 405 406
f 347 406 407
f 347 407 402
f 347 388 397
f 348 404 350
f 349 350 408
f 349 408 409
f 349 409 400
f 350 404 410
f 350 410 411
f 350 411 408
f 351 412 352
f 351 353 412
f 352 412 356
f 353 413 414
f 353 414 412
f 353 399 415
f 353 415 416
f 353 416 413
f 354 356 417
f 354 417 418
f 354 418 355
f 355 418 419
f 355 419 357
f 356 412 420
f 356 420 417
f 357 419 358
f 358 421 422
f 358 422 359
f 358 419 423
f 358 423 421
f 359 422 360
f 360 422 424
f 360 424 425
f 360 425 362
f 360 362 361
f 362 425 363
f 363 425 426
f 363 426 375
f 367 427 428
f 367 428 368
f 367 372 429
f 367 429 430
f 367 430 431
f 367 431 427
f 368 428 373
f 368 373 369
f 370 378 371
f 371 378 432
f 371 432 429
f 371 429 372
f 373 433 374
f 373 428 433
f 374 433 434
f 374 434 435
f 374 435 379
f 375 426 376
f 376 426 436
f 376 436 437
f 376 437 438
f 376 438 378
f 376 378 377
f 378 438 432
f 379 435 439
f 379 439 440
f 379 440 380
f 380 440 441
f 380 441 442
f 380 442 381
f 383 391 384
f 384 391 386
f 386 391 390
f 386 389 387
f 392 444 393
f 393 444 395
f 393 395 394
f 395 397 396
f 395 444 405
f 398 401 399
f 399 401 415
f 400 409 401
f 401 409 445
f 401 445 415
f 402 407 403
f 403 446 447
f 403 447 448
f 403 448 404
f 403 407 449
f 403 449 446
f 404 447 450
f 404 450 410
f 404 448 447
f 405 444 451
f 405 451 452
f 405 452 407
f 405 407 406
f 407 452 453
f 407 453 454
f 407 454 455
f 407 455 449
f 408 411 456
f 408 456 409
f 409 456 445
f 410 457 411
f 410 450 457
f 411 457 456
f 412 414 458
f 412 458 420
f 413 416 415
f 413 415 459
f 413 459 460
f 413 460 461
f 413 461 458
f 413 458 414
f 415 445 462
f 415 462 463
f 415 463 459
f 417 464 418
f 417 420 465
f 417 465 464
f 418 464 466
f 418 466 423
f 418 423 419
f 420 458 467
f 420 467 465
f 421 423 468
f 421 468 422
f 422 468 469
f 422 469 424
f 423 466 470
f 423 470 471
f 423 471 468
f 424 469 472
f 424 472 425
f 425 472 473
f 425 473 437
f 425 437 436
f 425 436 426
f 427 431 474
f 427 474 475
f 427 475 476
f 427 476 477
f 427 477 428
f 428 477 478
f 428 478 433
f 429 432 438
f 429 438 430
f 430 438 479
f 430 479 480
f 430 480 431
f 431 480 474
f 433 478 434
f 434 478 481
f 434 481 439
f 434 439 435
f 437 473 482
f 437 482 483
f 437 483 438
f 438 483 484
f 438 484 479
f 439 481 485
f 439 485 486
f 439 486 487
f 439 487 488
f 439 488 489
f 439 489 440
f 440 489 441
f 441 489 490
f 443 491 536
f 443 536 487
f 443 487 486
f 443 486 533
f 443 533 532
f 443 532 530
f 443 530 574
f 443 574 527
f 443 527 526
f 443 526 525
f 443 525 573
f 443 573 613
f 443 613 612
f 443 612 650
f 443 650 651
f 443 651 676
f 443 676 675
f 443 675 674
f 443 674 672
f 443 672 671
f 443 671 682
f 443 682 678
f 443 678 677
f 443 677 653
f 443 653 652
f 443 652 615
f 443 615 577
f 443 577 576
f 443 576 538
f 443 538 492
f 445 456 493
f 445 493 494
f 445 494 495
f 445 495 462
f 446 449 496
f 446 496 447
f 447 496 497
f 447 497 498
f 447 498 499
f 447 499 500
f 447 500 457
f 447 457 450
f 449 455 496
f 451 501 452
f 452 501 453
f 453 502 454
f 454 502 503
f 454 503 455
f 455 503 496
f 456 457 504
f 456 504 505
f 456 505 506
f 456 506 507
f 456 507 494
f 456 494 493
f 457 500 505
f 457 505 504
f 458 461 508
f 458 508 467
f 459 463 460
f 460 463 509
f 460 509 510
f 460 510 511
f 460 511 461
f 461 511 508
f 462 495 463
f 463 495 494
f 463 494 512
f 463 512 509
f 464 465 513
f 464 513 514
f 464 514 470
f 464 470 466
f 465 467 508
f 465 508 515
f 465 515 513
f 468 516 517
f 468 517 518
f 468 518 469
f 468 471 519
f 468 519 516
f 469 518 472
f 470 514 520
f 470 520 521
f 470 521 519
f 470 519 471
f 472 522 482
f 472 482 473
f 472 518 522
f 474 480 523
f 474 523 524
f 474 524 475
f 475 525 526
f 475 526 527
f 475 527 528
f 475 528 477
f 475 477 476
f 475 524 529
f 475 529 525
f 477 530 531
f 477 531 481
f 477 481 478
f 477 528 530
f 479 484 480
f 480 484 523
f 481 531 532
f 481 532 533
f 481 533 486
f 481 486 485
f 482 522 534
f 482 534 483
f 483 534 484
f 484 534 535
f 484 535 523
f 487 536 488
f 488 536 491
f 488 491 537
f 488 537 489
f 489 537 490
f 492 538 539
f 492 539 540
f 492 540 541
f 494 542 512
f 494 507 506
f 494 506 543
f 494 543 542
f 496 544 497
f 496 503 545
f 496 545 544
f 497 546 547
f 497 547 498
f 497 544 546
f 498 547 499
f 499 548 549
f 499 549 505
f 499 505 500
f 499 547 548
f 502 550 503
f 503 551 552
f 503 552 553
f 503 553 545
f 503 550 551
f 505 549 506
f 506 554 543
f 506 549 554
f 508 511 510
f 508 510 555
f 508 555 556
f 508 556 557
f 508 557 558
f 508 558 515
f 509 512 510
f 510 559 560
f 510 560 555
f 510 512 561
f 510 561 562
f 510 562 563
f 510 563 559
f 512 542 561
f 513 558 564
f 513 564 514
f 513 515 558
f 514 564 520
f 516 519 521
f 516 521 565
f 516 565 566
f 516 566 567
f 516 567 517
f 517 567 518
f 518 567 568
f 518 568 569
f 518 569 522
f 520 570 521
f 520 564 570
f 521 570 565
f 522 569 534
f 523 535 524
f 524 535 571
f 524 571 572
f 524 572 529
f 525 529 573
f 527 574 528
f 528 574 530
f 529 572 573
f 530 532 531
f 534 569 535
f 535 569 575
f 535 575 571
f 538 576 539
f 539 576 577
f 539 577 578
f 539 578 579
f 539 579 540
f 540 579 580
f 540 580 581
f 540 581 541
f 541 581 582
f 542 543 583
f 542 583 562
f 542 562 561
f 543 554 584
f 543 584 583
f 544 545 585
f 544 585 546
f 545 553 586
f 545 586 587
f 545 587 585
f 546 585 547
f 547 585 588
f 547 588 589
f 547 589 590
f 547 590 591
f 547 591 548
f 548 591 549
f 549 591 592
f 549 592 584
f 549 584 554
f 555 560 556
f 556 560 593
f 556 593 594
f 556 594 595
f 556 595 557
f 557 595 558
f 558 596 564
f 558 595 596
f 559 563 597
f 559 597 598
f 559 598 593
f 559 593 560
f 562 583 599
f 562 599 600
f 562 600 563
f 563 600 597
f 564 601 602
f 564 602 570
f 564 596 601
f 565 603 604
f 565 604 566
f 565 570 605
f 565 605 603
f 566 604 606
f 566 606 567
f 567 606 607
f 567 607 608
f 567 608 569
f 567 569 568
f 569 608 609
f 569 609 575
f 570 602 610
f 570 610 605
f 571 575 611
f 571 611 572
f 572 612 613
f 572 613 573
f 572 611 614
f 572 614 612
f 575 609 611
f 577 615 578
f 578 615 616
f 578 616 617
f 578 617 618
f 578 618 579
f 579 619 580
f 579 618 619
f 580 619 620
f 580 620 581
f 581 620 621
f 581 621 622
f 581 622 623
f 581 623 582
f 583 584 599
f 584 592 591
f 584 591 624
f 584 624 625
f 584 625 626
f 584 626 599
f 585 627 628
f 585 628 629
f 585 629 589
f 585 589 588
f 585 587 627
f 589 630 631
f 589 631 632
f 589 632 590
f 589 629 630
f 590 632 591
f 591 632 633
f 591 633 624
f 593 634 635
f 593 635 594
f 593 598 634
f 594 635 636
f 594 636 595
f 595 636 637
f 595 637 601
f 595 601 596
f 597 638 634
f 597 634 598
f 597 600 599
f 597 599 626
f 597 626 639
f 597 639 638
f 601 637 640
f 601 640 641
f 601 641 610
f 601 610 602
f 603 605 642
f 603 642 643
f 603 643 644
f 603 644 645
f 603 645 604
f 604 645 606
f 605 610 642
f 606 646 647
f 606 647 607
f 606 645 646
f 607 647 608
f 608 647 609
f 609 647 648
f 609 648 611
f 610 641 649
f 610 649 642
f 611 648 614
f 612 614 650
f 614 648 651
f 614 651 650
f 615 652 616
f 616 652 653
f 616 653 654
f 616 654 617
f 617 654 655
f 617 655 656
f 617 656 657
f 617 657 618
f 618 657 619
f 619 657 634
f 619 634 620
f 620 634 638
f 620 638 658
f 620 658 621
f 621 658 659
f 621 659 660
f 621 660 622
f 624 633 661
f 624 661 625
f 625 661 662
f 625 662 626
f 626 662 639
f 631 663 632
f 632 663 664
f 632 664 633
f 633 664 665
f 633 665 666
f 633 666 667
f 633 667 668
f 633 668 669
f 633 669 662
f 633 662 661
f 634 657 635
f 635 657 636
f 636 656 640
f 636 640 637
f 636 657 656
f 638 639 658
f 639 662 670
f 639 670 658
f 640 655 641
f 640 656 655
f 641 655 649
f 642 649 643
f 643 671 672
f 643 672 644
f 643 649 673
f 643 673 671
f 644 672 674
f 644 674 645
f 645 674 646
f 646 675 647
f 646 674 675
f 647 675 676
f 647 676 648
f 648 676 651
f 649 655 654
f 649 654 673
f 653 677 654
f 654 677 678
f 654 678 673
f 658 670 659
f 659 670 679
f 659 679 680
f 659 680 681
f 659 681 660
f 662 669 670
f 668 679 670
f 668 670 669
f 671 673 682
f 673 678 682
