v 0.63164562 -0.05254331 0.00288199
v 0.82295907 -0.05254331 0.00288199
v 0.55406332 -0.05254331 0.31513444
v 0.55406332 -0.03902837 0.38820839
v 0.95134521 0.14599429 0.00288199
v 0.82300353 -0.05254331 0.01001208
v 0.82997572 -0.04760477 0.00288199
v 0.55406332 -0.05254331 0.38820839
v 0.85808653 0.14129962 0.38820839
v 0.86772323 0.14692916 0.38820839
v 0.86803412 0.14709175 0.38820839
v 0.95800650 0.14890051 0.00288199
v 0.82251501 -0.05254331 0.03076100
v 0.82997572 -0.04762509 0.01001208
v 0.84036738 -0.04024776 0.00288199
v 0.72721356 -0.05254331 0.38820839
v 0.88997209 0.15459101 0.38820839
v 0.96999693 0.15412357 0.00288199
v 0.82211530 -0.05254331 0.03906056
v 0.84018975 -0.04012582 0.02638486
v 0.83197409 -0.04583665 0.03185503
v 0.83996767 -0.03998355 0.03973962
v 0.82966483 -0.04687313 0.05000091
v 0.84036738 -0.04026808 0.01001208
v 0.85035938 -0.03303301 0.00288199
v 0.72761321 -0.05254331 0.38749158
v 0.72832376 -0.05187264 0.38820839
v 0.89174843 0.15463166 0.38820839
v 0.96999693 0.15507877 0.11002189
v 0.96999693 0.15493651 0.09002747
v 0.98998094 0.15091251 0.00288199
v 0.82158244 -0.05254331 0.05000091
v 0.85035938 -0.03303301 0.01001208
v 0.86385965 -0.02285108 0.03000650
v 0.84809452 -0.03427273 0.03185503
v 0.83965683 -0.03976000 0.05000091
v 0.86341560 -0.02252590 0.05000091
v 0.82886547 -0.04632441 0.07003306
v 0.82096070 -0.05254331 0.05822504
v 0.86408174 -0.02303399 0.00288199
v 0.73338640 -0.05254331 0.37636262
v 0.74275666 -0.04305236 0.38820839
v 0.91151041 0.14861599 0.38820839
v 0.90995610 0.15341227 0.36998704
v 0.90995610 0.15467231 0.34999263
v 0.94996852 0.15491618 0.22998840
v 0.96999693 0.15495683 0.13001630
v 0.98998094 0.15091251 0.01001208
v 1.00219333 0.14278322 0.00288199
v 0.86408174 -0.02303399 0.01001208
v 0.87385166 -0.01537213 0.03000650
v 0.83885747 -0.03919095 0.07003306
v 0.86266065 -0.02195686 0.07003306
v 0.84995967 -0.03116328 0.07003306
v 0.87340760 -0.01504696 0.05000091
v 0.83788049 -0.03847964 0.09002747
v 0.82784408 -0.04561309 0.09002747
v 0.81936198 -0.05254331 0.07708769
v 0.82002813 -0.05254331 0.07003306
v 0.87407374 -0.01553472 0.00288199
v 0.73622853 -0.05254331 0.37077928
v 0.75039500 -0.04445467 0.36874211
v 0.74497712 -0.04167039 0.38820839
v 0.91408610 0.14735594 0.38820839
v 0.92603213 0.14540492 0.36998704
v 0.92998451 0.15188803 0.32999820
v 0.92998451 0.15422520 0.30996606
v 0.94996852 0.15404229 0.24998280
v 0.96999693 0.15448940 0.15001072
v 0.98998094 0.15064831 0.03000650
v 1.00219333 0.14278322 0.01001208
v 1.00539076 0.13457264 0.00288199
v 0.87407374 -0.01553472 0.01001208
v 0.88699669 -0.00537310 0.03000650
v 0.88659704 -0.00504793 0.05000091
v 0.86168361 -0.02124554 0.09002747
v 0.87265265 -0.01447790 0.07003306
v 0.83663702 -0.03760574 0.11002189
v 0.82664502 -0.04475952 0.11002189
v 0.86075103 -0.02055455 0.10583438
v 0.81802970 -0.05254331 0.09002747
v 0.88251138 -0.00911257 0.00288199
v 0.88721871 -0.00553569 0.01001208
v 0.74266785 -0.05254331 0.35776404
v 0.75003970 -0.05032808 0.34999263
v 0.76060903 -0.04039002 0.36123478
v 0.75732279 -0.03825608 0.37455180
v 0.75385886 -0.03600020 0.38820839
v 0.91852701 0.14463264 0.38820839
v 0.92261261 0.14276290 0.38613349
v 0.94135320 0.14162479 0.34373021
v 0.94379568 0.14394164 0.32999820
v 0.93122792 0.14674625 0.35021898
v 0.94730395 0.14627881 0.30996606
v 0.94996852 0.15194900 0.26997724
v 0.96999693 0.15188803 0.19003728
v 0.96999693 0.15351388 0.17000514
v 0.98998094 0.14922568 0.07003306
v 0.98998094 0.15009959 0.05000091
v 1.00201571 0.14255966 0.03000650
v 1.00716710 0.12999991 0.01001208
v 1.00712276 0.12999991 0.00288199
v 0.89703310 0.00230908 0.03000650
v 0.88584208 -0.00447888 0.07003306
v 0.89658904 0.00263425 0.05000091
v 0.89587849 0.00318298 0.07003306
v 0.87167561 -0.01376659 0.09002747
v 0.88490951 -0.00376756 0.09002747
v 0.83521593 -0.03656926 0.13001630
v 0.85191369 -0.02642797 0.11149318
v 0.85986286 -0.01990421 0.11915141
v 0.82522392 -0.04372303 0.13001630
v 0.81496549 -0.05254331 0.11402077
v 0.81554282 -0.05254331 0.11002189
v 0.88375485 -0.00287334 0.11002189
v 0.86843377 -0.01425435 0.11149318
v 0.88717437 -0.00553569 0.00288199
v 0.89721072 0.00216682 0.00288199
v 0.89721072 0.00214649 0.01001208
v 0.74644256 -0.05254331 0.34999263
v 0.74759722 -0.05254331 0.34750277
v 0.74986207 -0.05254331 0.34252301
v 0.76314032 -0.04203620 0.34999263
v 0.77313232 -0.03528889 0.34999263
v 0.76838058 -0.03266719 0.36874211
v 0.77033454 -0.02492404 0.38820839
v 0.92216855 0.14221416 0.38820839
v 0.93873304 0.13607655 0.35704726
v 0.95938319 0.13814953 0.29827121
v 0.96147037 0.14176705 0.28491646
v 0.96355760 0.14390101 0.26997724
v 0.96617776 0.14591300 0.24998280
v 0.96999693 0.14934762 0.20999397
v 0.98487389 0.14522201 0.17000514
v 0.98642820 0.14625849 0.15001072
v 0.98784930 0.14696981 0.13001630
v 0.98913711 0.14741692 0.11002189
v 1.00099432 0.14134027 0.07003306
v 1.00157166 0.14209223 0.05000091
v 1.00676751 0.12999991 0.03000650
v 1.00770009 0.10998154 0.01001208
v 1.00747800 0.11715563 0.00288199
v 0.90991169 0.01214552 0.01001208
v 0.91972601 0.02021384 0.03000650
v 0.90928996 0.01263328 0.05000091
v 0.90857941 0.01318201 0.07003306
v 0.90769124 0.01391364 0.09002747
v 0.89490151 0.00391461 0.09002747
v 0.85906351 -0.01931484 0.13001630
v 0.84738398 -0.02535084 0.15001072
v 0.83352840 -0.03534986 0.15001072
v 0.88237816 -0.00183686 0.13001630
v 0.86998808 -0.01114490 0.13001630
v 0.82349199 -0.04250364 0.15001072
v 0.81221217 -0.05254331 0.13212892
v 0.81256741 -0.05254331 0.13001630
v 0.89374685 0.00480884 0.11002189
v 0.90991169 0.01216584 0.00288199
v 0.75279307 -0.05254331 0.33592108
v 0.76740360 -0.04486113 0.32999820
v 0.77744001 -0.03821543 0.32999820
v 0.79982209 -0.01988388 0.33961815
v 0.78756523 -0.02528986 0.34999263
v 0.78303552 -0.02213976 0.36998704
v 0.78050423 -0.02033100 0.38100284
v 0.77086747 -0.02455823 0.38820839
v 0.92687589 0.13125995 0.38820839
v 0.93558002 0.12963410 0.36900619
v 0.94068706 0.12274452 0.36168748
v 0.94317394 0.12963410 0.35021898
v 0.95050144 0.12999991 0.32999820
v 0.95725155 0.13087381 0.31019241
v 0.96120393 0.12481749 0.30366594
v 0.96355760 0.13087381 0.29095250
v 0.96986365 0.12999991 0.26997724
v 0.98007774 0.14014120 0.22044389
v 0.98118794 0.14150286 0.20999397
v 0.98314190 0.14369777 0.19003728
v 0.99983966 0.13955183 0.09859112
v 1.00041699 0.14060864 0.08527409
v 1.00592375 0.12999991 0.05000091
v 1.00730038 0.10998154 0.03000650
v 1.00765562 0.10998154 0.00288199
v 1.00250423 0.09618206 0.03000650
v 1.00272632 0.09589754 0.01001208
v 1.00272632 0.09589754 0.00288199
v 1.00450265 0.10093769 0.00288199
v 0.92998451 0.02799764 0.00288199
v 0.92998451 0.02799764 0.01001208
v 0.92998451 0.02832281 0.03000650
v 0.92998451 0.02901380 0.05000091
v 0.91861582 0.02110806 0.07003306
v 0.90658104 0.01482819 0.11002189
v 0.91768324 0.02181938 0.09002747
v 0.93988770 0.04011028 0.09885520
v 0.85737598 -0.01809544 0.15001072
v 0.88109034 -0.00084102 0.14646454
v 0.87194210 -0.00699896 0.15189698
v 0.84547442 -0.02396886 0.17000514
v 0.83157444 -0.03396788 0.17000514
v 0.89237016 0.00588597 0.13001630
v 0.82153803 -0.04112166 0.17000514
v 0.80910355 -0.05254331 0.14993528
v 0.90520436 0.01588500 0.13001630
v 0.75488025 -0.05254331 0.33109224
v 0.76043141 -0.05254331 0.31781292
v 0.76336235 -0.05254331 0.31064510
v 0.77180004 -0.04687313 0.31143737
v 0.77966040 -0.03976000 0.31909558
v 0.80248660 -0.02179427 0.32630113
v 0.80950320 -0.01518922 0.33177131
v 0.82238179 -0.00173524 0.34565422
v 0.81172365 -0.00768995 0.35138845
v 0.79755723 -0.01829867 0.34999263
v 0.79307193 -0.01510793 0.36998704
v 0.80279744 -0.00201977 0.38820839
v 0.78836459 -0.01226268 0.38820839
v 0.78787607 -0.01260817 0.38820839
v 0.92705351 0.10845730 0.38820839
v 0.94068706 0.11717595 0.36168748
v 0.96120393 0.11512332 0.30366594
v 0.98016655 0.12085447 0.24077784
v 0.97603655 0.12849599 0.24843608
v 0.97830135 0.13418649 0.23376092
v 0.98123235 0.12849599 0.22825304
v 0.98496270 0.12999991 0.20999397
v 0.98900390 0.12999991 0.19003728
v 0.99255663 0.12999991 0.17000514
v 0.99912912 0.13733660 0.11002189
v 1.00183809 0.12733757 0.11002189
v 1.00254858 0.13172738 0.09115923
v 1.00472462 0.12999991 0.07003306
v 1.00645661 0.10998154 0.05000091
v 1.00210452 0.09677143 0.05000091
v 0.99495471 0.08618303 0.03000650
v 0.99517673 0.08589851 0.01001208
v 0.99517673 0.08589851 0.00288199
v 0.94255221 0.03793570 0.00288199
v 0.94255221 0.03793570 0.01001208
v 0.94233018 0.03811860 0.03000650
v 0.94188607 0.03846410 0.05000091
v 0.92998451 0.03013158 0.07003306
v 0.94050944 0.03958188 0.08553816
v 0.91657305 0.02271360 0.11002189
v 0.91524076 0.02377041 0.13001630
v 0.94828093 0.04649177 0.09134786
v 0.96226978 0.05801504 0.09002747
v 0.96120393 0.05894991 0.11002189
v 0.94996852 0.04958091 0.11002189
v 0.93922156 0.04063869 0.11002189
v 0.85546637 -0.01669314 0.17000514
v 0.87993568 0.00003288 0.15981930
v 0.90369445 0.01710439 0.15001072
v 0.88863981 0.00570306 0.15189698
v 0.84334278 -0.02242428 0.19003728
v 0.82033896 -0.04024776 0.18162455
v 0.80999172 -0.04914933 0.17000514
v 0.80617255 -0.05254331 0.16449724
v 0.76576042 -0.05254331 0.30453363
v 0.78219175 -0.04148747 0.30574083
v 0.78929716 -0.03508566 0.31143737
v 0.80563962 -0.02402982 0.30996606
v 0.81563163 -0.01683540 0.30996606
v 0.83836895 0.00119130 0.31562486
v 0.82557923 -0.00405209 0.32999820
v 0.83557123 0.00320330 0.32999820
v 0.82944280 0.00513401 0.35138845
v 0.81953961 0.00031740 0.35900897
v 0.80706072 -0.00510890 0.36998704
v 0.83899069 0.02072192 0.37787163
v 0.82802171 0.01629146 0.38820839
v 0.92358959 0.10000283 0.38820839
v 0.93886626 0.10384392 0.35708499
v 0.93571323 0.11030671 0.36900619
v 0.94317394 0.11030671 0.35025671
v 0.95054579 0.10998154 0.32999820
v 0.95734036 0.10906699 0.31019241
v 0.95942760 0.10179128 0.29830894
v 0.96360201 0.10906699 0.29095250
v 0.96999693 0.10998154 0.26997724
v 0.98016655 0.11906601 0.24077784
v 1.00086105 0.12355745 0.12665875
v 0.99570966 0.12999991 0.15001072
v 0.99828535 0.13012186 0.13197802
v 1.00521314 0.10998154 0.07003306
v 1.00063908 0.09894602 0.09002747
v 1.00148284 0.09768598 0.07003306
v 0.99451059 0.08677241 0.05000091
v 0.98451865 0.07545237 0.05000091
v 0.98496270 0.07502559 0.03000650
v 0.98518473 0.07478170 0.01001208
v 0.98878187 0.07876506 0.00288199
v 0.95254421 0.04612596 0.00288199
v 0.95254421 0.04612596 0.01001208
v 0.95232219 0.04630886 0.03000650
v 0.94117552 0.03903315 0.07003306
v 0.95187807 0.04669501 0.05000091
v 0.95121193 0.04726405 0.07003306
v 0.92789727 0.03376944 0.13001630
v 0.91368645 0.02498980 0.15001072
v 0.96320236 0.05724276 0.07003306
v 0.97319436 0.06608336 0.07003306
v 0.97226179 0.06693694 0.09002747
v 0.97119594 0.06799375 0.11002189
v 0.96040457 0.05962058 0.12303712
v 0.93788928 0.04169549 0.13001630
v 0.86892229 -0.00669411 0.17000514
v 0.86683506 -0.00512922 0.19003728
v 0.85333478 -0.01512825 0.19003728
v 0.87891430 0.00080516 0.17000514
v 0.90187371 0.01852701 0.17000514
v 0.88997209 0.00932059 0.17000514
v 0.92456663 0.03639113 0.17000514
v 0.91186571 0.02637178 0.17000514
v 0.84147757 -0.02106263 0.20599510
v 0.81882906 -0.03917063 0.19497930
v 0.82819933 -0.03343948 0.18898098
v 0.81127954 -0.04536921 0.18898098
v 0.80319715 -0.05254331 0.17822926
v 0.80501789 -0.05254331 0.17000514
v 0.77131158 -0.05254331 0.28985846
v 0.78503388 -0.04341818 0.28997165
v 0.79507029 -0.03658957 0.28997165
v 0.81834054 -0.01878643 0.29514003
v 0.84081149 -0.00061747 0.30230784
v 0.84849417 0.00696310 0.30936247
v 0.86070663 0.01946188 0.32192498
v 0.85089231 0.01423881 0.32913053
v 0.85813093 0.02137227 0.33524203
v 0.84511912 0.01618984 0.34999263
v 0.84205490 0.01848637 0.36455458
v 0.83139676 0.01279587 0.37070382
v 0.83654821 0.02251037 0.38820839
v 0.86425936 0.03681792 0.36998704
v 0.86132836 0.03901283 0.38285136
v 0.85315716 0.03480592 0.38820839
v 0.84942681 0.03204196 0.38820839
v 0.92034781 0.09417006 0.38820839
v 0.92274582 0.09624303 0.38651073
v 0.94139755 0.09801115 0.34376794
v 0.96151483 0.09784856 0.28495419
v 0.98016655 0.09969798 0.22082114
v 0.97852343 0.10573398 0.23413818
v 0.97625858 0.11142448 0.24843608
v 0.98127675 0.11142448 0.22847939
v 0.98509592 0.10998154 0.20999397
v 0.98913711 0.10998154 0.19003728
v 0.99282306 0.10998154 0.17000514
v 1.00086105 0.11587527 0.12665875
v 1.00352561 0.10998154 0.09002747
v 1.00010610 0.09977928 0.10126962
v 0.99300069 0.08894700 0.09002747
v 0.99384451 0.08768696 0.07003306
v 0.98385251 0.07608239 0.07003306
v 0.97386050 0.06545334 0.05000091
v 0.97434896 0.06502656 0.03000650
v 0.98518473 0.07480203 0.00288199
v 0.97457099 0.06478268 0.01001208
v 0.96027136 0.05252777 0.00288199
v 0.96457899 0.05610466 0.01001208
v 0.96431255 0.05628757 0.03000650
v 0.96386850 0.05667371 0.05000091
v 0.92634296 0.03498883 0.15001072
v 0.98296428 0.07693597 0.09002747
v 0.98194289 0.07799277 0.11002189
v 0.96822053 0.06768890 0.12982768
v 0.98065507 0.07927313 0.13001630
v 0.95947200 0.06043351 0.13639188
v 0.95165604 0.05311714 0.12982768
v 0.94841421 0.05291391 0.15001072
v 0.93633497 0.04293521 0.15001072
v 0.86452579 -0.00338142 0.20999397
v 0.87682706 0.00239037 0.19003728
v 0.87451780 0.00411785 0.20999397
v 0.84889388 -0.01464049 0.21157844
v 0.90058583 0.01952285 0.18298265
v 0.89152640 0.01362912 0.18981093
v 0.92256820 0.03795602 0.19003728
v 0.93455863 0.04437816 0.17000514
v 0.90835738 0.02671727 0.18981093
v 0.83979005 -0.01986356 0.21931213
v 0.83188528 -0.02693604 0.21157844
v 0.81696391 -0.03786994 0.20999397
v 0.80697191 -0.04484081 0.20999397
v 0.80062145 -0.05254331 0.18966003
v 0.77641857 -0.05254331 0.27514559
v 0.79071826 -0.04459693 0.26812869
v 0.79786807 -0.03854061 0.27359885
v 0.77837259 -0.05254331 0.26944908
v 0.81096870 -0.02553374 0.28906626
v 0.82060540 -0.02043261 0.28178525
v 0.84294307 -0.00216203 0.28997165
v 0.85293508 0.00519498 0.28997165
v 0.86643541 0.01519401 0.28997165
v 0.86292708 0.01781570 0.30996606
v 0.87291908 0.02529465 0.30996606
v 0.88246697 0.03809828 0.32999820
v 0.86843377 0.02730665 0.32913053
v 0.85515553 0.02360782 0.34999263
v 0.88037980 0.03970382 0.34101400
v 0.87767082 0.04175646 0.35433102
v 0.87425137 0.04429686 0.36998704
v 0.86918873 0.04681695 0.38820839
v 0.86719036 0.04531303 0.38820839
v 0.91559601 0.08835762 0.38820839
v 0.91741681 0.08291100 0.37379730
v 0.92509949 0.08973960 0.36825168
v 0.93304873 0.09079641 0.35025671
v 0.93589091 0.08474009 0.32999820
v 0.94388449 0.09473911 0.32999820
v 0.94641578 0.08898764 0.30943790
v 0.95383209 0.09069479 0.29095250
v 0.95569724 0.08496364 0.26997724
v 0.96369088 0.09496267 0.26997724
v 0.98132116 0.09805180 0.20999397
v 0.99935114 0.10254323 0.11458665
v 0.96644419 0.09164998 0.24998280
v 0.95987165 0.08008607 0.23957062
v 0.97337198 0.08805277 0.20999397
v 0.99606490 0.10998154 0.15001072
v 0.99864066 0.10953443 0.13197802
v 1.00157166 0.10953443 0.10877696
v 0.98331958 0.09528784 0.19003728
v 0.98514032 0.09291002 0.17000514
v 0.98900390 0.08998348 0.13001630
v 0.99313390 0.09185322 0.10877696
v 0.97457099 0.06480300 0.00288199
v 0.96453464 0.05610466 0.00288199
v 0.96813172 0.05921412 0.00288199
v 0.97998893 0.07998445 0.14008898
v 0.95840621 0.06136838 0.15001072
v 0.97132915 0.07307456 0.14804901
v 0.94668221 0.05435686 0.17000514
v 0.86199450 -0.00151169 0.22998840
v 0.87203091 0.00600791 0.22998840
v 0.89920914 0.02062031 0.19629969
v 0.88761842 0.01411687 0.20999397
v 0.88517594 0.01600694 0.22998840
v 0.92101389 0.03917541 0.20441063
v 0.93256021 0.04600402 0.19003728
v 0.94472826 0.05598272 0.19003728
v 0.83836895 -0.01882708 0.22998840
v 0.82837695 -0.02602150 0.22998840
v 0.81438816 -0.03602053 0.22998840
v 0.84995967 -0.01035229 0.22998840
v 0.80435175 -0.04303204 0.22998840
v 0.79458183 -0.05254331 0.21387969
v 0.79560322 -0.05254331 0.20999397
v 0.79888946 -0.05254331 0.19679011
v 0.80004412 -0.04004453 0.26024410
v 0.78454542 -0.05254331 0.24998280
v 0.80803770 -0.03256558 0.26812869
v 0.82251501 -0.02181459 0.26997724
v 0.83250701 -0.01455920 0.26997724
v 0.84622931 -0.00456017 0.26997724
v 0.85622132 0.00277651 0.26997724
v 0.87123156 0.01385267 0.26952451
v 0.87869227 0.02096580 0.27586240
v 0.87642741 0.02269327 0.28997165
v 0.88606411 0.03529368 0.30996606
v 0.89605612 0.04309779 0.30996606
v 0.89245898 0.04594305 0.32999820
v 0.90205133 0.05825892 0.34546560
v 0.88997209 0.05002801 0.34991717
v 0.89952004 0.06037254 0.35882035
v 0.88717437 0.05429589 0.36998704
v 0.88206732 0.05657209 0.38820839
v 0.90542638 0.07687500 0.38820839
v 0.92017013 0.07980154 0.36044252
v 0.93846661 0.08165096 0.31570032
v 0.94077587 0.07919185 0.30238327
v 0.95849502 0.08165096 0.24998280
v 0.97550362 0.08528881 0.19003728
v 0.94566083 0.07457847 0.26997724
v 0.94845861 0.07209904 0.24998280
v 0.95041257 0.06953831 0.23168603
v 0.96147037 0.07846021 0.22625358
v 0.97741318 0.08291100 0.17000514
v 0.97887868 0.08122417 0.15340599
v 0.98545122 0.08872344 0.14804901
v 0.96742117 0.07287132 0.17000514
v 0.95667422 0.06287229 0.17000514
v 0.86048460 -0.00035327 0.24172097
v 0.88251138 0.01803926 0.24998280
v 0.89761043 0.02183970 0.20999397
v 0.89516795 0.02375008 0.22998840
v 0.94255221 0.05781181 0.20999397
v 0.92860782 0.04653242 0.21063530
v 0.91945958 0.04043545 0.21772766
v 0.91164362 0.03297683 0.21063530
v 0.95472026 0.06462009 0.19003728
v 0.83557123 -0.01679475 0.24998280
v 0.82557923 -0.02400950 0.24998280
v 0.81159043 -0.03400853 0.24998280
v 0.80155402 -0.04110133 0.24998280
v 0.79045177 -0.05254331 0.22942251
v 0.78996330 -0.04892578 0.24998280
v 0.78601092 -0.05254331 0.24488990
v 0.85853064 0.00106936 0.25503799
v 0.88073504 0.01942123 0.26254535
v 0.88846219 0.02702212 0.26952451
v 0.90067464 0.03948026 0.28212479
v 0.89112675 0.03383040 0.28929260
v 0.89854300 0.04114677 0.29547954
v 0.91066664 0.05443816 0.30807981
v 0.90489346 0.05592175 0.32999820
v 0.91488546 0.06439654 0.32999820
v 0.89716631 0.06234389 0.36998704
v 0.90924555 0.06651016 0.35127527
v 0.91044462 0.07376555 0.36825168
v 0.88406575 0.05815731 0.38820839
v 0.88317752 0.05744599 0.38820839
v 0.90449381 0.07596045 0.38820839
v 0.92212415 0.07787084 0.34999263
v 0.92589891 0.07441588 0.32999820
v 0.91781646 0.06185613 0.31351224
v 0.93162763 0.06732308 0.28997165
v 0.94268543 0.07732211 0.28997165
v 0.96337998 0.07663112 0.20999397
v 0.93469185 0.06455912 0.26997724
v 0.93748963 0.06210001 0.24998280
v 0.93922156 0.06061641 0.23708075
v 0.95254421 0.06663209 0.20999397
v 0.96546721 0.07461912 0.19003728
v 0.85111433 -0.00565762 0.24900195
v 0.86825615 0.00706472 0.24900195
v 0.89250338 0.02582305 0.24998280
v 0.90791327 0.03374911 0.22998840
v 0.90529317 0.03582208 0.24998280
v 0.94090909 0.05919379 0.22376372
v 0.93153882 0.05283262 0.23025247
v 0.91790527 0.04165485 0.22998840
v 0.78880864 -0.05254331 0.23515676
v 0.90245098 0.03803731 0.26997724
v 0.91244298 0.04610563 0.26997724
v 0.92469984 0.05608433 0.26997724
v 0.90840179 0.04758923 0.28929260
v 0.92003691 0.05994575 0.30015749
v 0.90338361 0.07494429 0.38820839
v 0.89321393 0.06581916 0.38820839
v 0.92163563 0.05860442 0.28997165
v 0.92749763 0.05376749 0.24998280
v 0.91528517 0.04378878 0.24998280
f 1 2 6
f 1 6 13
f 1 13 19
f 1 19 32
f 1 32 39
f 1 39 59
f 1 59 58
f 1 58 81
f 1 81 114
f 1 114 113
f 1 113 156
f 1 156 155
f 1 155 203
f 1 203 258
f 1 258 320
f 1 320 319
f 1 319 385
f 1 385 449
f 1 449 448
f 1 448 447
f 1 447 496
f 1 496 533
f 1 533 498
f 1 498 451
f 1 451 389
f 1 389 386
f 1 386 321
f 1 321 259
f 1 259 207
f 1 207 206
f 1 206 205
f 1 205 159
f 1 159 122
f 1 122 121
f 1 121 120
f 1 120 84
f 1 84 61
f 1 61 41
f 1 41 26
f 1 26 16
f 1 16 8
f 1 8 3
f 1 3 4
f 1 4 5
f 1 5 12
f 1 12 18
f 1 18 31
f 1 31 49
f 1 49 72
f 1 72 102
f 1 102 142
f 1 142 183
f 1 183 187
f 1 187 186
f 1 186 237
f 1 237 292
f 1 292 357
f 1 357 427
f 1 427 429
f 1 429 428
f 1 428 359
f 1 359 293
f 1 293 238
f 1 238 188
f 1 188 158
f 1 158 118
f 1 118 117
f 1 117 82
f 1 82 60
f 1 60 40
f 1 40 25
f 1 25 15
f 1 15 7
f 1 7 2
f 2 7 6
f 3 8 4
f 4 8 16
f 4 16 27
f 4 27 42
f 4 42 63
f 4 63 88
f 4 88 126
f 4 126 166
f 4 166 218
f 4 218 217
f 4 217 216
f 4 216 271
f 4 271 333
f 4 333 337
f 4 337 336
f 4 336 404
f 4 404 403
f 4 403 467
f 4 467 512
f 4 512 511
f 4 511 540
f 4 540 539
f 4 539 513
f 4 513 468
f 4 468 405
f 4 405 338
f 4 338 272
f 4 272 219
f 4 219 167
f 4 167 127
f 4 127 89
f 4 89 64
f 4 64 43
f 4 43 28
f 4 28 17
f 4 17 11
f 4 11 10
f 4 10 9
f 4 9 5
f 5 9 10
f 5 10 11
f 5 11 12
f 6 7 14
f 6 14 13
f 7 15 24
f 7 24 14
f 11 17 18
f 11 18 12
f 13 14 20
f 13 20 21
f 13 21 22
f 13 22 23
f 13 23 19
f 14 24 20
f 15 25 24
f 16 26 27
f 17 28 29
f 17 29 30
f 17 30 18
f 18 30 31
f 19 23 32
f 20 22 21
f 20 24 33
f 20 33 34
f 20 34 35
f 20 35 22
f 22 36 23
f 22 35 34
f 22 34 37
f 22 37 36
f 23 36 38
f 23 38 39
f 23 39 32
f 24 25 33
f 25 40 50
f 25 50 33
f 26 41 42
f 26 42 27
f 28 43 44
f 28 44 45
f 28 45 46
f 28 46 29
f 29 46 47
f 29 47 48
f 29 48 31
f 29 31 30
f 31 48 71
f 31 71 49
f 33 50 34
f 34 50 51
f 34 51 55
f 34 55 37
f 36 52 38
f 36 37 53
f 36 53 54
f 36 54 52
f 37 55 77
f 37 77 53
f 38 52 56
f 38 56 57
f 38 57 58
f 38 58 59
f 38 59 39
f 40 60 73
f 40 73 50
f 41 61 62
f 41 62 42
f 42 62 63
f 43 64 44
f 44 64 65
f 44 65 66
f 44 66 67
f 44 67 45
f 45 67 46
f 46 68 69
f 46 69 47
f 46 67 68
f 47 69 70
f 47 70 48
f 48 70 71
f 49 71 72
f 50 73 51
f 51 73 83
f 51 83 74
f 51 74 75
f 51 75 55
f 52 54 56
f 53 76 54
f 53 77 107
f 53 107 76
f 54 76 56
f 55 75 104
f 55 104 77
f 56 78 79
f 56 79 57
f 56 76 80
f 56 80 78
f 57 79 81
f 57 81 58
f 60 82 83
f 60 83 73
f 61 84 62
f 62 84 85
f 62 85 86
f 62 86 87
f 62 87 63
f 63 87 88
f 64 89 90
f 64 90 65
f 65 90 91
f 65 91 92
f 65 92 93
f 65 93 66
f 66 93 92
f 66 92 94
f 66 94 95
f 66 95 67
f 67 95 68
f 68 95 96
f 68 96 97
f 68 97 69
f 69 97 98
f 69 98 99
f 69 99 70
f 70 99 100
f 70 100 71
f 71 100 101
f 71 101 72
f 72 101 102
f 74 83 103
f 74 103 75
f 75 103 105
f 75 105 106
f 75 106 104
f 76 107 80
f 77 104 108
f 77 108 107
f 78 109 112
f 78 112 79
f 78 80 110
f 78 110 111
f 78 111 109
f 79 112 113
f 79 113 114
f 79 114 81
f 80 111 110
f 80 107 115
f 80 115 116
f 80 116 111
f 82 117 83
f 83 117 118
f 83 118 119
f 83 119 103
f 84 120 85
f 85 120 121
f 85 121 122
f 85 122 123
f 85 123 86
f 86 123 124
f 86 124 125
f 86 125 87
f 87 125 126
f 87 126 88
f 89 127 90
f 90 127 91
f 91 127 128
f 91 128 129
f 91 129 130
f 91 130 92
f 92 130 94
f 94 130 131
f 94 131 95
f 95 131 132
f 95 132 133
f 95 133 96
f 96 133 134
f 96 134 135
f 96 135 97
f 97 135 136
f 97 136 98
f 98 136 137
f 98 137 138
f 98 138 139
f 98 139 99
f 99 139 100
f 100 139 140
f 100 140 101
f 101 141 142
f 101 142 102
f 101 140 182
f 101 182 141
f 103 119 143
f 103 143 144
f 103 144 145
f 103 145 105
f 104 106 108
f 105 145 146
f 105 146 106
f 106 146 147
f 106 147 148
f 106 148 108
f 107 108 115
f 108 148 157
f 108 157 115
f 109 111 149
f 109 149 150
f 109 150 151
f 109 151 112
f 111 116 152
f 111 152 153
f 111 153 149
f 112 154 155
f 112 155 156
f 112 156 113
f 112 151 154
f 115 152 116
f 115 157 152
f 118 158 143
f 118 143 119
f 122 159 123
f 123 160 161
f 123 161 124
f 123 159 160
f 124 161 162
f 124 162 163
f 124 163 164
f 124 164 125
f 125 164 165
f 125 165 126
f 126 165 166
f 127 167 128
f 128 168 169
f 128 169 170
f 128 170 171
f 128 171 129
f 128 167 168
f 129 171 172
f 129 172 173
f 129 173 174
f 129 174 175
f 129 175 176
f 129 176 130
f 130 176 131
f 131 176 177
f 131 177 132
f 132 177 178
f 132 178 133
f 133 178 134
f 134 178 179
f 134 179 135
f 135 179 180
f 135 180 136
f 136 180 138
f 136 138 137
f 138 180 181
f 138 181 139
f 139 181 140
f 140 181 233
f 140 233 182
f 141 183 142
f 141 182 184
f 141 184 185
f 141 185 186
f 141 186 187
f 141 187 183
f 143 158 188
f 143 188 189
f 143 189 144
f 144 189 190
f 144 190 145
f 145 190 191
f 145 191 192
f 145 192 146
f 146 192 147
f 147 193 148
f 147 192 194
f 147 194 195
f 147 195 193
f 148 193 157
f 149 196 150
f 149 153 197
f 149 197 198
f 149 198 196
f 150 199 151
f 150 196 199
f 151 199 200
f 151 200 202
f 151 202 154
f 152 197 153
f 152 157 201
f 152 201 197
f 154 202 203
f 154 203 155
f 157 193 204
f 157 204 201
f 159 205 160
f 160 205 206
f 160 206 207
f 160 207 208
f 160 208 209
f 160 209 161
f 161 209 162
f 162 210 211
f 162 211 212
f 162 212 213
f 162 213 214
f 162 214 163
f 162 209 210
f 163 214 164
f 164 214 215
f 164 215 165
f 165 215 216
f 165 216 217
f 165 217 218
f 165 218 166
f 167 219 169
f 167 169 168
f 169 219 220
f 169 220 221
f 169 221 173
f 169 173 171
f 169 171 170
f 171 173 172
f 173 221 281
f 173 281 222
f 173 222 175
f 173 175 174
f 175 223 224
f 175 224 176
f 175 222 223
f 176 222 225
f 176 225 226
f 176 226 227
f 176 227 228
f 176 228 177
f 176 224 222
f 177 228 229
f 177 229 179
f 177 179 178
f 179 229 230
f 179 230 231
f 179 231 232
f 179 232 180
f 180 232 181
f 181 232 233
f 182 233 234
f 182 234 184
f 184 234 235
f 184 235 236
f 184 236 185
f 185 236 237
f 185 237 186
f 188 238 239
f 188 239 189
f 189 239 190
f 190 239 240
f 190 240 191
f 191 240 241
f 191 241 242
f 191 242 192
f 192 242 243
f 192 243 194
f 193 195 244
f 193 244 245
f 193 245 204
f 194 243 195
f 195 243 246
f 195 246 247
f 195 247 248
f 195 248 249
f 195 249 250
f 195 250 244
f 196 251 199
f 196 198 252
f 196 252 251
f 197 252 198
f 197 201 253
f 197 253 254
f 197 254 252
f 199 255 200
f 199 251 255
f 200 255 256
f 200 256 202
f 201 204 253
f 202 256 257
f 202 257 203
f 203 257 258
f 204 245 253
f 207 259 208
f 208 260 209
f 208 259 260
f 209 260 261
f 209 261 262
f 209 262 210
f 210 262 263
f 210 263 264
f 210 264 265
f 210 265 211
f 211 265 212
f 212 265 266
f 212 266 267
f 212 267 213
f 213 267 268
f 213 268 214
f 214 268 269
f 214 269 215
f 215 269 216
f 216 269 270
f 216 270 271
f 219 272 273
f 219 273 274
f 219 274 220
f 220 274 273
f 220 273 275
f 220 275 276
f 220 276 221
f 221 276 277
f 221 277 278
f 221 278 279
f 221 279 280
f 221 280 281
f 222 281 349
f 222 349 282
f 222 282 227
f 222 227 226
f 222 226 225
f 222 224 223
f 227 282 228
f 228 282 283
f 228 283 229
f 229 283 284
f 229 284 282
f 229 282 230
f 230 232 231
f 230 282 232
f 232 282 285
f 232 285 233
f 233 285 286
f 233 286 287
f 233 287 234
f 234 287 288
f 234 288 235
f 235 288 289
f 235 289 290
f 235 290 236
f 236 290 291
f 236 291 292
f 236 292 237
f 238 293 294
f 238 294 239
f 239 294 295
f 239 295 240
f 240 295 241
f 241 296 242
f 241 295 297
f 241 297 298
f 241 298 296
f 242 296 243
f 243 296 298
f 243 298 246
f 244 250 299
f 244 299 245
f 245 299 363
f 245 363 300
f 245 300 253
f 246 298 247
f 247 298 301
f 247 301 302
f 247 302 303
f 247 303 248
f 248 303 304
f 248 304 305
f 248 305 249
f 249 305 250
f 250 305 306
f 250 306 299
f 251 252 307
f 251 307 308
f 251 308 309
f 251 309 255
f 252 310 307
f 252 254 253
f 252 253 311
f 252 311 312
f 252 312 310
f 253 300 313
f 253 313 314
f 253 314 311
f 255 315 316
f 255 316 317
f 255 317 256
f 255 309 315
f 256 316 318
f 256 318 257
f 256 317 316
f 257 318 319
f 257 319 320
f 257 320 258
f 259 321 260
f 260 321 322
f 260 322 323
f 260 323 261
f 261 323 262
f 262 323 324
f 262 324 263
f 263 324 325
f 263 325 264
f 264 325 326
f 264 326 327
f 264 327 328
f 264 328 266
f 264 266 265
f 266 328 329
f 266 329 330
f 266 330 267
f 267 330 331
f 267 331 268
f 268 331 269
f 269 331 332
f 269 332 270
f 270 333 271
f 270 332 331
f 270 331 334
f 270 334 335
f 270 335 336
f 270 336 337
f 270 337 333
f 272 338 339
f 272 339 273
f 273 340 278
f 273 278 276
f 273 276 275
f 273 339 340
f 276 278 277
f 278 341 342
f 278 342 343
f 278 343 280
f 278 280 279
f 278 340 341
f 280 343 344
f 280 344 281
f 281 344 343
f 281 343 345
f 281 345 346
f 281 346 347
f 281 347 348
f 281 348 349
f 282 349 285
f 282 284 283
f 285 349 350
f 285 350 351
f 285 351 286
f 286 351 352
f 286 352 353
f 286 353 287
f 287 353 288
f 288 353 354
f 288 354 289
f 289 354 302
f 289 302 355
f 289 355 356
f 289 356 290
f 290 356 358
f 290 358 291
f 291 357 292
f 291 358 427
f 291 427 357
f 293 359 294
f 294 359 360
f 294 360 295
f 295 360 361
f 295 361 362
f 295 362 297
f 297 362 301
f 297 301 298
f 299 306 363
f 300 363 313
f 301 362 355
f 301 355 302
f 302 354 364
f 302 364 303
f 303 364 365
f 303 365 304
f 304 366 305
f 304 365 367
f 304 367 366
f 305 368 369
f 305 369 306
f 305 366 368
f 306 370 371
f 306 371 363
f 306 369 370
f 307 310 308
f 308 372 309
f 308 310 373
f 308 373 374
f 308 374 372
f 309 372 375
f 309 375 315
f 310 312 376
f 310 376 377
f 310 377 373
f 311 376 312
f 311 314 376
f 313 378 314
f 313 363 371
f 313 371 379
f 313 379 378
f 314 378 380
f 314 380 376
f 315 375 381
f 315 381 382
f 315 382 316
f 316 383 384
f 316 384 318
f 316 382 383
f 318 384 385
f 318 385 319
f 321 386 322
f 322 387 388
f 322 388 323
f 322 386 389
f 322 389 387
f 323 388 390
f 323 390 324
f 324 390 391
f 324 391 392
f 324 392 325
f 325 392 393
f 325 393 394
f 325 394 395
f 325 395 326
f 326 395 327
f 327 329 328
f 327 395 396
f 327 396 397
f 327 397 398
f 327 398 329
f 329 399 330
f 329 398 400
f 329 400 399
f 330 399 331
f 331 399 401
f 331 401 334
f 334 401 402
f 334 402 335
f 335 402 403
f 335 403 404
f 335 404 336
f 338 405 406
f 338 406 339
f 339 406 407
f 339 407 340
f 340 407 408
f 340 408 409
f 340 409 410
f 340 410 341
f 341 410 411
f 341 411 412
f 341 412 413
f 341 413 414
f 341 414 342
f 342 415 416
f 342 416 348
f 342 348 347
f 342 347 346
f 342 346 345
f 342 345 343
f 342 414 417
f 342 417 418
f 342 418 419
f 342 419 415
f 348 416 420
f 348 420 349
f 349 420 421
f 349 421 416
f 349 416 422
f 349 422 350
f 350 422 351
f 351 422 416
f 351 416 423
f 351 423 424
f 351 424 425
f 351 425 426
f 351 426 352
f 352 426 367
f 352 367 365
f 352 365 364
f 352 364 353
f 353 364 354
f 355 362 356
f 356 362 361
f 356 361 358
f 358 361 360
f 358 360 427
f 359 428 360
f 360 429 427
f 360 428 429
f 366 367 430
f 366 430 368
f 367 426 430
f 368 431 370
f 368 370 369
f 368 430 432
f 368 432 431
f 370 433 371
f 370 431 433
f 371 433 379
f 372 434 375
f 372 374 435
f 372 435 434
f 373 377 436
f 373 436 437
f 373 437 374
f 374 437 438
f 374 438 435
f 375 434 381
f 376 436 377
f 376 380 436
f 378 439 380
f 378 379 440
f 378 440 439
f 379 433 441
f 379 441 440
f 380 439 436
f 381 442 443
f 381 443 444
f 381 444 382
f 381 434 445
f 381 445 442
f 382 444 383
f 383 444 446
f 383 446 384
f 384 446 447
f 384 447 448
f 384 448 449
f 384 449 385
f 387 450 388
f 387 389 451
f 387 451 450
f 388 450 452
f 388 452 391
f 388 391 390
f 391 452 453
f 391 453 454
f 391 454 455
f 391 455 392
f 392 455 456
f 392 456 393
f 393 456 394
f 394 456 457
f 394 457 458
f 394 458 459
f 394 459 396
f 394 396 395
f 396 459 460
f 396 460 397
f 397 400 398
f 397 460 461
f 397 461 462
f 397 462 400
f 399 400 401
f 400 462 463
f 400 463 464
f 400 464 401
f 401 464 465
f 401 465 466
f 401 466 402
f 402 466 467
f 402 467 403
f 405 468 406
f 406 469 408
f 406 408 407
f 406 468 469
f 408 469 409
f 409 470 410
f 409 469 470
f 410 470 411
f 411 470 412
f 412 470 471
f 412 471 413
f 413 472 414
f 413 471 472
f 414 472 417
f 415 423 416
f 415 419 473
f 415 473 423
f 416 421 420
f 417 472 418
f 418 472 474
f 418 474 475
f 418 475 476
f 418 476 477
f 418 477 473
f 418 473 419
f 423 473 478
f 423 478 424
f 424 478 479
f 424 479 480
f 424 480 425
f 425 480 430
f 425 430 426
f 430 480 479
f 430 479 481
f 430 481 432
f 431 432 482
f 431 482 433
f 432 481 482
f 433 482 441
f 434 483 445
f 434 435 483
f 435 438 484
f 435 484 483
f 436 485 437
f 436 439 485
f 437 485 438
f 438 485 486
f 438 486 484
f 439 440 487
f 439 487 488
f 439 488 489
f 439 489 490
f 439 490 485
f 440 441 487
f 441 482 491
f 441 491 487
f 442 492 493
f 442 493 443
f 442 445 483
f 442 483 492
f 443 493 494
f 443 494 444
f 444 494 495
f 444 495 446
f 446 495 496
f 446 496 447
f 450 451 497
f 450 497 495
f 450 495 494
f 450 494 493
f 450 493 453
f 450 453 452
f 451 498 497
f 453 493 492
f 453 492 454
f 454 492 455
f 455 492 499
f 455 499 456
f 456 499 457
f 457 500 458
f 457 499 500
f 458 500 501
f 458 501 502
f 458 502 503
f 458 503 459
f 459 503 460
f 460 503 504
f 460 504 461
f 461 504 505
f 461 505 506
f 461 506 462
f 462 506 463
f 463 465 464
f 463 506 507
f 463 507 465
f 465 508 466
f 465 507 509
f 465 509 469
f 465 469 510
f 465 510 508
f 466 508 511
f 466 511 512
f 466 512 467
f 468 513 469
f 469 513 510
f 469 509 514
f 469 514 470
f 470 514 515
f 470 515 471
f 471 515 507
f 471 507 516
f 471 516 517
f 471 517 518
f 471 518 472
f 472 518 474
f 473 477 519
f 473 519 478
f 474 518 520
f 474 520 475
f 475 520 521
f 475 521 522
f 475 522 476
f 476 523 477
f 476 522 523
f 477 523 519
f 478 519 524
f 478 524 479
f 479 524 481
f 481 524 491
f 481 491 482
f 483 499 525
f 483 525 492
f 483 484 526
f 483 526 499
f 484 500 526
f 484 486 527
f 484 527 500
f 485 490 489
f 485 489 486
f 486 489 528
f 486 528 529
f 486 529 527
f 487 530 489
f 487 489 488
f 487 491 523
f 487 523 530
f 489 530 531
f 489 531 532
f 489 532 528
f 491 524 519
f 491 519 523
f 492 525 499
f 495 497 496
f 496 497 533
f 497 498 533
f 499 526 500
f 500 527 534
f 500 534 501
f 501 534 502
f 502 504 503
f 502 534 535
f 502 535 536
f 502 536 537
f 502 537 504
f 504 537 538
f 504 538 505
f 505 538 516
f 505 516 506
f 506 516 507
f 507 515 509
f 508 539 540
f 508 540 511
f 508 510 539
f 509 515 514
f 510 513 539
f 516 538 517
f 517 520 518
f 517 538 520
f 520 538 541
f 520 541 536
f 520 536 521
f 521 536 542
f 521 542 522
f 522 530 523
f 522 542 531
f 522 531 530
f 527 529 534
f 528 532 529
f 529 532 543
f 529 543 534
f 531 542 543
f 531 543 532
f 534 543 535
f 535 543 536
f 536 541 537
f 536 543 542
f 537 541 538
