v -0.40611815 0.12203033 0.92030525
v -0.40611815 0.10999368 0.91978288
v -0.40611815 0.12834395 0.91999185
v -0.43002439 0.12999365 0.90839565
v -0.44348758 0.12999365 0.90181398
v -0.43002439 0.10999368 0.90850008
v -0.41287538 0.10999368 0.91664881
v -0.44072330 0.09946418 0.90035141
v -0.40611815 0.09333384 0.91210437
v -0.40611815 0.13486126 0.91821587
v -0.41026464 0.13178590 0.91717112
v -0.44067210 0.14040095 0.90029919
v -0.44353878 0.10999368 0.90181398
v -0.47957727 0.13911787 0.87971854
v -0.45346987 0.12999365 0.89638156
v -0.48264873 0.12579814 0.88144231
v -0.43002439 0.09602223 0.90296316
v -0.47978204 0.10050287 0.87982297
v -0.46642119 0.09549270 0.88342720
v -0.44860670 0.09080839 0.88917309
v -0.43002439 0.08602225 0.89491892
v -0.40837055 0.09088986 0.90917915
v -0.40611815 0.09040105 0.90985823
v -0.40611815 0.14669421 0.90844786
v -0.41000867 0.14632761 0.90750766
v -0.43002439 0.14290604 0.90280646
v -0.46621642 0.14329301 0.88332272
v -0.48264873 0.11384296 0.88144231
v -0.45352104 0.10999368 0.89648604
v -0.48961073 0.13148040 0.87590533
v -0.47174504 0.13148040 0.88598675
v -0.50435376 0.14258018 0.86248088
v -0.54162079 0.14115453 0.84101224
v -0.51766336 0.13494271 0.85851103
v -0.51059902 0.12895495 0.86430913
v -0.52068365 0.12160262 0.86039150
v -0.41656113 0.08188784 0.89826202
v -0.47184741 0.10830326 0.88603896
v -0.48961073 0.10830326 0.87606204
v -0.51070142 0.11099165 0.86441362
v -0.51781696 0.10498351 0.85861552
v -0.54167199 0.09852731 0.84106445
v -0.50445610 0.09655176 0.86258537
v -0.48904762 0.08991227 0.86603290
v -0.47184741 0.08928090 0.87527853
v -0.45643893 0.08215261 0.87799478
v -0.44312927 0.07840516 0.88159895
v -0.40611815 0.08551309 0.90583611
v -0.40611815 0.15486121 0.88995659
v -0.41000867 0.15471864 0.88995659
v -0.43002439 0.15095083 0.88995659
v -0.44840193 0.14526856 0.88995659
v -0.49002025 0.14553332 0.86665970
v -0.52068365 0.11830324 0.86039150
v -0.53000045 0.14408730 0.84461647
v -0.56470793 0.14304861 0.82314777
v -0.60064405 0.14050278 0.80042547
v -0.57801759 0.13530931 0.81849885
v -0.55452091 0.12999365 0.83620661
v -0.54448748 0.12999365 0.84289271
v -0.52841353 0.12895495 0.85344422
v -0.58073074 0.12196922 0.82048380
v -0.40611815 0.07447441 0.89565027
v -0.43002439 0.07532981 0.88488978
v -0.52841353 0.11099165 0.85354865
v -0.54453868 0.10999368 0.84294492
v -0.55457211 0.10999368 0.83631110
v -0.57811999 0.10461691 0.81860334
v -0.60064405 0.09940308 0.80042547
v -0.56475914 0.09581856 0.82325226
v -0.55672216 0.08247847 0.81771535
v -0.53000045 0.08404669 0.83646774
v -0.53000045 0.09404667 0.84477317
v -0.51208359 0.08836441 0.85119808
v -0.49508816 0.08321166 0.85710067
v -0.48177850 0.07903652 0.86096609
v -0.47000456 0.07602227 0.86425686
v -0.44906741 0.07036036 0.86942816
v -0.43002439 0.06532983 0.87381595
v -0.40611815 0.15264127 0.86995053
v -0.41000867 0.15339482 0.86995053
v -0.43002439 0.15543148 0.86995053
v -0.45004004 0.15459645 0.86995053
v -0.51003593 0.15522781 0.82999063
v -0.49002025 0.15374106 0.84999669
v -0.47174504 0.14820135 0.87183100
v -0.51059902 0.14736632 0.85109365
v -0.58073074 0.11795701 0.82048380
v -0.54899228 0.14561480 0.82988614
v -0.57085085 0.14771256 0.81108147
v -0.59004748 0.14355777 0.80423868
v -0.61287868 0.12999365 0.79447067
v -0.60284525 0.12999365 0.80209702
v -0.62255377 0.14200991 0.78198647
v -0.63565868 0.12999365 0.77634507
v -0.62562525 0.12999365 0.78444153
v -0.57085085 0.12917899 0.82528943
v -0.58846056 0.12917899 0.81280524
v -0.40611815 0.06950498 0.89021778
v -0.41517898 0.06203045 0.87757689
v -0.57085085 0.11076762 0.82534170
v -0.58846056 0.11076762 0.81285745
v -0.60284525 0.10999368 0.80209702
v -0.61282748 0.10999368 0.79441845
v -0.62562525 0.10999368 0.78444153
v -0.63560748 0.10999368 0.77634507
v -0.62250257 0.09757009 0.78193426
v -0.60775959 0.09182672 0.78825468
v -0.59004748 0.08486135 0.79556763
v -0.57950217 0.08040108 0.79958975
v -0.59004748 0.09486134 0.80429089
v -0.57213062 0.08809964 0.81149936
v -0.54341245 0.07793672 0.82220757
v -0.51971102 0.08019742 0.83975857
v -0.50640136 0.07644997 0.84378070
v -0.48776782 0.07107320 0.84863859
v -0.47000456 0.06602229 0.85307854
v -0.45495439 0.06233595 0.85720515
v -0.44164473 0.05928096 0.86086160
v -0.40611815 0.14349666 0.85182494
v -0.86868024 0.14665349 0.38672277
v -0.88997567 0.15455571 0.38672277
v -0.59004748 0.15547222 0.76997238
v -0.57003182 0.15543148 0.78997844
v -0.88997567 0.15486121 0.39001361
v -0.78999960 0.15551294 0.57001609
v -0.55001611 0.15449461 0.80998456
v -0.53000045 0.15219319 0.82999063
v -0.59004748 0.15156183 0.78997844
v -0.60837388 0.14449462 0.78919494
v -0.62951577 0.14608324 0.76986790
v -0.64374685 0.14286530 0.76318181
v -0.65746605 0.12999365 0.75769711
v -0.64748383 0.12999365 0.76631594
v -0.68024606 0.12082870 0.74025053
v -0.68024606 0.11903644 0.74025053
v -0.40611815 0.06569643 0.88593447
v -0.43002439 0.05685734 0.86383903
v -0.40611815 0.05602231 0.87475616
v -0.64753503 0.10999368 0.76636815
v -0.65756845 0.10999368 0.75785381
v -0.64384925 0.09620553 0.76318181
v -0.62956697 0.09021776 0.76955450
v -0.61492634 0.08422999 0.77592719
v -0.56614131 0.07610373 0.80434310
v -0.60161668 0.07887359 0.78120291
v -0.59004748 0.07516687 0.78559071
v -0.57192588 0.06871068 0.79138881
v -0.53000045 0.07418928 0.82649088
v -0.54919708 0.07034000 0.80940998
v -0.53000045 0.06418930 0.81489468
v -0.51223713 0.06871068 0.83134872
v -0.49375719 0.06310987 0.83625883
v -0.48039633 0.05981049 0.84017646
v -0.47000456 0.05746834 0.84304941
v -0.44901621 0.05402639 0.85031009
v -0.43852207 0.04060483 0.83918399
v -0.43115056 0.04585940 0.84957880
v -0.40611815 -0.05255181 0.49171549
v -0.50675970 -0.05255181 0.38672277
v -0.90999138 0.15082863 0.38672277
v -0.70998806 0.15512598 0.66999424
v -0.68997234 0.15508524 0.68994808
v -0.65004337 0.15467791 0.72996020
v -0.63002765 0.15429094 0.74996626
v -0.61001199 0.15341519 0.76997238
v -0.88997567 0.15429094 0.41001970
v -0.84999549 0.15514635 0.47003791
v -0.82997978 0.15526855 0.51005006
v -0.80996412 0.15463719 0.55000997
v -0.74996823 0.15427059 0.63003433
v -0.72995257 0.15486121 0.65004039
v -0.65024811 0.14697936 0.75043643
v -0.66453040 0.14335410 0.74401146
v -0.69831651 0.13559446 0.71841621
v -0.67778891 0.13416879 0.73795223
v -0.67067337 0.12848651 0.74630982
v -0.70072246 0.12225436 0.72066236
v -0.67804486 0.10569634 0.73821336
v -0.67082691 0.11141935 0.74641430
v -0.70072246 0.11746822 0.72066236
v -0.69857246 0.10412812 0.71867740
v -0.41000867 0.04280442 0.85642159
v -0.40908724 0.05380236 0.87052512
v -0.40611815 0.04205085 0.85741407
v -0.66478640 0.09524830 0.74416816
v -0.65081125 0.08905686 0.75064534
v -0.63663131 0.08286543 0.75712252
v -0.62327045 0.07767196 0.76260722
v -0.55503285 0.06276364 0.79650784
v -0.60898817 0.07402635 0.76955450
v -0.59977376 0.06011599 0.75978649
v -0.59189034 0.06420967 0.77091259
v -0.57771045 0.06133798 0.77822554
v -0.51807290 0.06097139 0.81876004
v -0.54167199 0.05911803 0.80105233
v -0.50476325 0.05763127 0.82293886
v -0.48827976 0.05520765 0.82972944
v -0.47722250 0.04123619 0.81834215
v -0.47036290 0.04673516 0.82925934
v -0.45004004 0.04308955 0.83604991
v -0.45004004 0.03537062 0.82602072
v -0.43452919 0.02215273 0.81708848
v -0.42987078 0.03005495 0.82988614
v -0.42521241 0.03793681 0.84263152
v -0.40611815 -0.05255181 0.72155035
v -0.73031086 -0.05255181 0.38672277
v -0.92304504 0.14298752 0.38672277
v -0.90999138 0.15021764 0.39001361
v -0.88997567 0.15060461 0.43002576
v -0.71116543 0.14793658 0.69114947
v -0.69099617 0.14775328 0.71105111
v -0.67067337 0.14742741 0.73074377
v -0.86995995 0.15425020 0.45003182
v -0.84999549 0.15390399 0.49004400
v -0.78999960 0.15182659 0.59002215
v -0.76998389 0.15335408 0.61002821
v -0.82997978 0.15243760 0.53000391
v -0.73097634 0.14775328 0.67088223
v -0.68495566 0.14357814 0.72457999
v -0.70527846 0.14382254 0.70504403
v -0.71858811 0.13622582 0.69856685
v -0.70962971 0.12924008 0.70964074
v -0.72089171 0.12290608 0.70086521
v -0.72089171 0.11693868 0.70086521
v -0.71874171 0.10359859 0.69872355
v -0.70543206 0.09431144 0.70530522
v -0.68526280 0.09465767 0.72489339
v -0.41000867 0.03496329 0.84644473
v -0.40611815 0.03685738 0.85078025
v -0.67159480 0.08830331 0.73142278
v -0.65777320 0.08192857 0.73795223
v -0.64446354 0.07677583 0.74380255
v -0.62895268 0.07056403 0.74907827
v -0.61001199 0.06335427 0.75565994
v -0.56440079 0.05757017 0.78313565
v -0.54899228 0.05445409 0.78987396
v -0.58646411 0.05636854 0.76490557
v -0.62132519 0.05919949 0.74103409
v -0.61001199 0.05587975 0.74563080
v -0.59644639 0.04196939 0.73716867
v -0.59148085 0.04917915 0.75106323
v -0.53000045 0.05612414 0.80486548
v -0.51510382 0.04239709 0.79682124
v -0.50993353 0.05003454 0.80993229
v -0.53854930 0.04074739 0.77895683
v -0.53112662 0.04535023 0.79008293
v -0.50179416 0.03917917 0.80105233
v -0.49002025 0.04416898 0.81458122
v -0.46386164 0.03832377 0.82215536
v -0.49002025 0.03653152 0.80460429
v -0.46862239 0.03060485 0.80914879
v -0.45004004 0.02537064 0.81280524
v -0.42121953 0.01956617 0.82058829
v -0.45004004 0.01793685 0.80282831
v -0.42874458 0.01490223 0.81024569
v -0.41000867 0.02496331 0.83343816
v -0.40611815 -0.04721577 0.73043036
v -0.41005987 -0.05255181 0.71935648
v -0.74571937 -0.04330539 0.38672277
v -0.73020852 -0.05255181 0.38693172
v -0.92452961 0.14050278 0.38672277
v -0.92232835 0.14243761 0.39001361
v -0.91009372 0.14508526 0.40819144
v -0.89002687 0.14514637 0.44836032
v -0.86699092 0.14567590 0.49004400
v -0.87195641 0.14816061 0.47197062
v -0.72498703 0.14382254 0.68524688
v -0.85122406 0.14754961 0.51078135
v -0.81129509 0.14791621 0.57106078
v -0.80464023 0.14384291 0.59002215
v -0.78923172 0.14463720 0.60856563
v -0.76993275 0.14608324 0.62956417
v -0.75053132 0.14712192 0.65035379
v -0.83003098 0.14587957 0.54917419
v -0.74423486 0.14353740 0.66487515
v -0.73829669 0.13543151 0.67819512
v -0.72959423 0.12915862 0.68963468
v -0.74060029 0.12209142 0.68065017
v -0.74060029 0.11767188 0.68065017
v -0.73855263 0.10435215 0.67845631
v -0.72519177 0.09449474 0.68540359
v -0.69887960 0.08097135 0.69888026
v -0.69207120 0.08781451 0.71193910
v -0.67840320 0.08133794 0.71852070
v -0.40611815 0.02423012 0.83437836
v -0.66514474 0.07622594 0.72463220
v -0.65004337 0.06983083 0.73001248
v -0.63463485 0.06343574 0.73539269
v -0.56941748 0.05031968 0.76950228
v -0.56107336 0.03942357 0.76077896
v -0.55001611 0.04376164 0.77483022
v -0.57443422 0.04304881 0.75571215
v -0.64236474 0.05852740 0.72202045
v -0.62879908 0.05537058 0.72922891
v -0.61077988 0.04545207 0.73027360
v -0.60458577 0.03738691 0.72379649
v -0.58989394 0.03372093 0.73027360
v -0.58313668 0.03832377 0.74239218
v -0.52518845 0.03744801 0.78344905
v -0.50906330 0.03453559 0.79008293
v -0.55001611 0.03655188 0.76480108
v -0.53465879 0.02264152 0.75623453
v -0.52994925 0.03003458 0.76992011
v -0.49785244 0.02095110 0.77864343
v -0.49073690 0.02579834 0.78961277
v -0.46002230 0.02001424 0.80000758
v -0.47338316 0.02288592 0.79603773
v -0.41625398 0.00137884 0.79802269
v -0.40975273 0.00679635 0.80883539
v -0.41000867 0.01746842 0.82340896
v -0.44927219 0.00748881 0.78867257
v -0.44205427 -0.00080038 0.78115070
v -0.43002439 0.00396539 0.79441845
v -0.40611815 0.01858858 0.82685649
v -0.40611815 -0.04299989 0.73737764
v -0.41005987 -0.04562718 0.73084819
v -0.42782316 -0.05255181 0.70880497
v -0.43002439 -0.04259256 0.72421432
v -0.75554806 -0.03719542 0.38672277
v -0.72933823 -0.05255181 0.38865548
v -0.74469554 -0.04289806 0.39001361
v -0.92893207 0.13005474 0.38672277
v -0.92012715 0.14017692 0.40035617
v -0.90282464 0.14280421 0.43002576
v -0.88337201 0.14329301 0.46664262
v -0.86269087 0.14274311 0.50466985
v -0.84492755 0.14433169 0.53000391
v -0.82342732 0.14323190 0.56510597
v -0.80069852 0.14076754 0.60093927
v -0.78206503 0.14200991 0.62256467
v -0.76322669 0.14288568 0.64392889
v -0.76655412 0.12999365 0.64789873
v -0.75810760 0.12999365 0.65782344
v -0.74689674 0.12926045 0.67088223
v -0.77658755 0.12999365 0.63593686
v -0.78472692 0.12999365 0.62595993
v -0.77684355 0.10999368 0.63625026
v -0.76686126 0.10999368 0.64815992
v -0.75836354 0.10999368 0.65813684
v -0.74705034 0.11060469 0.67103893
v -0.78232098 0.09716275 0.62298256
v -0.76358503 0.09579819 0.64429450
v -0.74454200 0.09496316 0.66508412
v -0.73169303 0.08805890 0.67182243
v -0.71869051 0.08117501 0.67861301
v -0.69094497 0.06917910 0.69094056
v -0.68551874 0.07587971 0.70520073
v -0.70532966 0.07579824 0.68556029
v -0.67062217 0.06938277 0.71058095
v -0.65567440 0.06288584 0.71596122
v -0.55728525 0.02141953 0.73789996
v -0.55037445 0.02608347 0.74970514
v -0.66289228 0.05814043 0.70264119
v -0.64942908 0.05439299 0.70958847
v -0.63893491 0.04064556 0.69898474
v -0.63135862 0.04425044 0.71089435
v -0.61794662 0.04123619 0.71815509
v -0.60069525 0.01964764 0.70055181
v -0.59004748 0.02339509 0.71486425
v -0.57151634 0.02412828 0.73074377
v -0.51003593 0.02380242 0.77467352
v -0.52134913 0.01938288 0.76088345
v -0.54397559 0.01801832 0.74291456
v -0.52882302 0.01532993 0.74970514
v -0.51003593 0.01673522 0.76464438
v -0.49002025 0.00225460 0.75665241
v -0.49073690 0.01264155 0.77117378
v -0.48454279 0.01805905 0.78271776
v -0.46805930 0.01598166 0.78961277
v -0.45541513 0.00190837 0.77723306
v -0.43002439 -0.00308144 0.78438926
v -0.40975273 -0.00605495 0.79081422
v -0.40611815 -0.00338693 0.79645562
v -0.40611815 0.00264157 0.80491769
v -0.44927219 -0.00530139 0.77033800
v -0.43652564 -0.01868222 0.75801051
v -0.42992198 -0.01369242 0.76903212
v -0.40611815 -0.03833595 0.74479502
v -0.41676590 -0.03882474 0.73810893
v -0.44138879 -0.04051517 0.72081906
v -0.42833507 -0.05255181 0.70849156
v -0.43002439 -0.03642149 0.73424351
v -0.74136811 -0.04086140 0.40249780
v -0.75467777 -0.03664552 0.39001361
v -0.77095652 -0.02599382 0.39001361
v -0.77064943 -0.02729727 0.38672277
v -0.71689886 -0.05255181 0.41095990
v -0.92908561 0.10993259 0.38672277
v -0.92770344 0.10999368 0.39001361
v -0.92754984 0.12999365 0.39001361
v -0.92161173 0.12999365 0.40349028
v -0.91674858 0.12999365 0.41346720
v -0.90860921 0.12999365 0.43002576
v -0.90026510 0.14036022 0.44062948
v -0.87994224 0.13989179 0.47996259
v -0.84124184 0.14137855 0.54196578
v -0.80254138 0.12999365 0.60339433
v -0.79476035 0.12999365 0.61342353
v -0.81882012 0.13647021 0.57842594
v -0.82081664 0.12315048 0.58124661
v -0.78493172 0.10999368 0.62622112
v -0.80080092 0.09893465 0.60114825
v -0.78851509 0.09137866 0.60820001
v -0.77622920 0.08384302 0.61525172
v -0.76993275 0.08983080 0.62998205
v -0.75744212 0.08247847 0.63703382
v -0.75099206 0.08871064 0.65118957
v -0.73819429 0.08162308 0.65803236
v -0.72488463 0.07612410 0.66524082
v -0.67615080 0.06255998 0.69632077
v -0.69637126 0.06245814 0.67636693
v -0.71075588 0.06928094 0.67083001
v -0.57914382 0.02048267 0.71925199
v -0.56578296 0.01697962 0.72452778
v -0.55037445 0.01317108 0.73074377
v -0.68306160 0.05795714 0.68300080
v -0.66970074 0.05390419 0.68979138
v -0.65163028 0.04353761 0.69141066
v -0.62562525 0.03677592 0.70483512
v -0.65936011 0.04042153 0.67934430
v -0.64605045 0.03634822 0.68566477
v -0.63478845 0.02300812 0.67516553
v -0.63018125 0.02989202 0.69015700
v -0.61400491 0.02343582 0.69459701
v -0.59004748 0.01685742 0.70488733
v -0.62147880 0.01917921 0.68127704
v -0.60842508 0.01657229 0.68874663
v -0.59588325 0.00213240 0.67641914
v -0.58953559 0.00675561 0.68921679
v -0.57453662 0.00284523 0.69543278
v -0.51684433 0.00148067 0.73774326
v -0.51013833 0.00626681 0.74939173
v -0.53941959 0.00029941 0.71951318
v -0.53163850 0.00386356 0.73063928
v -0.50353467 -0.00157431 0.74233997
v -0.47983325 0.00009575 0.75983876
v -0.49002025 -0.00444600 0.74667549
v -0.47189862 0.00402649 0.77033800
v -0.46647239 -0.00265374 0.76391309
v -0.41000867 -0.01676776 0.77524811
v -0.40611815 -0.01746023 0.77629280
v -0.45004004 -0.01601420 0.75398839
v -0.42321596 -0.02116694 0.76171923
v -0.45004004 -0.02261297 0.74401146
v -0.42992198 -0.02585125 0.75080204
v -0.41005987 -0.03414044 0.74913055
v -0.40611815 -0.02409972 0.76642036
v -0.41000867 -0.02354982 0.76527119
v -0.45469844 -0.03788788 0.71648353
v -0.46473187 -0.04187973 0.70316356
v -0.44881147 -0.04409968 0.70990193
v -0.44881147 -0.03281661 0.72849762
v -0.46867359 -0.02412009 0.72980350
v -0.45009124 -0.05255181 0.69449252
v -0.73051566 -0.04495507 0.40949732
v -0.73758000 -0.03851925 0.41587001
v -0.74879086 -0.03367200 0.40949732
v -0.76476246 -0.02320360 0.41001970
v -0.77827686 -0.01884515 0.39669970
v -0.78078520 -0.02053557 0.38672277
v -0.77617800 -0.02361093 0.38672277
v -0.71003926 -0.05255181 0.42271280
v -0.92294270 0.09555380 0.38672277
v -0.92248195 0.09665360 0.39001361
v -0.92022955 0.09964748 0.40056512
v -0.92166293 0.10999368 0.40364698
v -0.91695333 0.10999368 0.41367614
v -0.90896755 0.10999368 0.43002576
v -0.90185201 0.12999365 0.44371137
v -0.88183630 0.12655169 0.48330563
v -0.87641007 0.13192847 0.48999175
v -0.86489207 0.12960668 0.51078135
v -0.85869795 0.13600178 0.51798981
v -0.89663053 0.12999365 0.45368829
v -0.88639230 0.13192847 0.47197062
v -0.84328949 0.12999365 0.54515213
v -0.83668584 0.12999365 0.55512905
v -0.81334269 0.12987144 0.58876848
v -0.82583332 0.12987144 0.57106078
v -0.86069441 0.12268205 0.52117616
v -0.82081664 0.11659245 0.58124661
v -0.79496515 0.10999368 0.61358023
v -0.80264378 0.10999368 0.60355103
v -0.81897372 0.10325235 0.57863486
v -0.84139538 0.09816071 0.54217470
v -0.82358092 0.09565563 0.56531489
v -0.80489618 0.09441327 0.59002215
v -0.79583538 0.08441329 0.59002215
v -0.76291955 0.07744793 0.62366158
v -0.78139949 0.07871065 0.60193175
v -0.74413246 0.07661290 0.64476460
v -0.73020852 0.06968827 0.65030158
v -0.71613097 0.06278401 0.65578628
v -0.70282131 0.05799787 0.66304696
v -0.57018536 0.00991243 0.71011084
v -0.55001611 0.00294707 0.71533436
v -0.68981880 0.05380236 0.66978526
v -0.67942703 0.04036043 0.65939045
v -0.67164600 0.04325248 0.67161351
v -0.66611737 0.03620565 0.66602433
v -0.65065765 0.02960689 0.67056882
v -0.64195520 0.01889408 0.66179329
v -0.62890148 0.01592056 0.66910625
v -0.56122696 -0.00059672 0.70091748
v -0.61006320 0.00585948 0.66983753
v -0.58257359 -0.00126881 0.68206054
v -0.60345954 -0.00183908 0.66309917
v -0.58953559 -0.00499589 0.66983753
v -0.52605873 -0.00283704 0.72437108
v -0.51013833 -0.00615679 0.73063928
v -0.55001611 -0.00336657 0.70535743
v -0.53404450 -0.01723620 0.69538051
v -0.53005159 -0.01002643 0.71000636
v -0.49805725 -0.01917101 0.71867740
v -0.49083930 -0.01505698 0.72980350
v -0.47046527 -0.01016900 0.75022745
v -0.47440696 -0.01768426 0.73633289
v -0.46104613 -0.02041338 0.74061620
v -0.40611815 -0.02218527 0.76929331
v -0.48469639 -0.02187977 0.72301292
v -0.47087479 -0.03540316 0.70990193
v -0.47809273 -0.03921171 0.69861913
v -0.47087479 -0.04634000 0.69114947
v -0.45659250 -0.05255181 0.69010478
v -0.72340012 -0.04204266 0.43002576
v -0.72027743 -0.04016893 0.44047278
v -0.73338234 -0.03593269 0.43002576
v -0.75053132 -0.02532171 0.42955565
v -0.76138383 -0.02094290 0.42255610
v -0.77474469 -0.01644190 0.41001970
v -0.79066509 -0.00572909 0.40960181
v -0.80131280 -0.00096332 0.40265450
v -0.78897578 -0.01385535 0.39001361
v -0.78539240 -0.01741949 0.38672277
v -0.70563680 -0.05255181 0.43002576
v -0.70998806 -0.05002635 0.43002576
v -0.91511047 0.08577785 0.38672277
v -0.91439378 0.08665361 0.39001361
v -0.90927470 0.09070656 0.40860933
v -0.90318298 0.09579819 0.43002576
v -0.90046984 0.09928088 0.44104737
v -0.90200555 0.10999368 0.44397253
v -0.89678407 0.10999368 0.45400172
v -0.88828635 0.10999368 0.47003791
v -0.88147795 0.10999368 0.48267883
v -0.86069441 0.11702015 0.52117616
v -0.85388601 0.12960668 0.52875024
v -0.84344304 0.10999368 0.54530883
v -0.83678818 0.10999368 0.55528575
v -0.82593572 0.10995296 0.57121748
v -0.81349629 0.10995296 0.58876848
v -0.82957029 0.09023812 0.54943538
v -0.85890269 0.10368006 0.51830322
v -0.88009578 0.09979004 0.48027599
v -0.86289561 0.09630736 0.50498325
v -0.84523475 0.09365971 0.53000391
v -0.83991086 0.08003448 0.51997477
v -0.83663464 0.08365972 0.53000391
v -0.81769395 0.08231553 0.55669606
v -0.81165338 0.08797744 0.57247114
v -0.79967469 0.08029924 0.57957512
v -0.76814103 0.07141943 0.60767764
v -0.76005286 0.05993269 0.60010356
v -0.75462663 0.06412820 0.61347574
v -0.74935395 0.07036036 0.62930298
v -0.78580195 0.07502431 0.59002215
v -0.77377206 0.06502433 0.59002215
v -0.73553234 0.06327280 0.63494438
v -0.72222269 0.05842556 0.64251852
v -0.70968091 0.05416895 0.64951801
v -0.69918674 0.04052336 0.63912320
v -0.69150811 0.04333395 0.65171188
v -0.68582588 0.03630748 0.64612275
v -0.67062217 0.02958652 0.65066719
v -0.65526485 0.02286556 0.65521169
v -0.64917314 0.01567616 0.64915240
v -0.63704085 0.00168434 0.63703382
v -0.63023245 0.00541142 0.65014488
v -0.61676919 0.00180654 0.65688318
v -0.56875205 -0.00393683 0.68921679
v -0.55595428 -0.01798975 0.67657584
v -0.54955542 -0.01348875 0.68921679
v -0.57028776 -0.01469038 0.66994196
v -0.61006320 -0.00566799 0.65014488
v -0.59793091 -0.01892662 0.63802630
v -0.59076416 -0.01558650 0.65051049
v -0.57714736 -0.01853965 0.65740556
v -0.56383771 -0.02187977 0.66325587
v -0.52073485 -0.02029118 0.70049959
v -0.51003593 -0.01650300 0.71434188
v -0.54259342 -0.02120768 0.68206054
v -0.51003593 -0.02265370 0.70436496
v -0.49002025 -0.03682882 0.69449252
v -0.49083930 -0.02660481 0.71115553
v -0.49002025 -0.04257219 0.68446338
v -0.47036290 -0.05255181 0.68049347
v -0.70962971 -0.04354978 0.44830805
v -0.70271891 -0.04161496 0.46418756
v -0.71602857 -0.03758238 0.45379275
v -0.72816086 -0.03226671 0.44830805
v -0.74331343 -0.02214453 0.45003182
v -0.75759572 -0.01841746 0.43587607
v -0.76880652 -0.01322398 0.42955565
v -0.78390789 -0.00271484 0.43002576
v -0.79778063 0.00154177 0.41597450
v -0.80878669 0.00706111 0.40960181
v -0.82317138 0.01769245 0.41001970
v -0.83028692 0.01498370 0.38860324
v -0.81446892 0.00398576 0.39001361
v -0.80448663 -0.00318327 0.39001361
v -0.78994840 -0.01430341 0.38672277
v -0.69314623 -0.05255181 0.44961393
v -0.90502584 0.07502431 0.38672277
v -0.90441155 0.07571677 0.39001361
v -0.90149367 0.07850699 0.40328133
v -0.89831984 0.08178601 0.41665354
v -0.89499235 0.08579822 0.43002576
v -0.88931018 0.09064546 0.44877818
v -0.88286012 0.09634809 0.47003791
v -0.87574458 0.10999368 0.49270797
v -0.86499447 0.11021772 0.51099026
v -0.85409075 0.11021772 0.52875024
v -0.85721344 0.08296727 0.49526751
v -0.87436241 0.08634812 0.47003791
v -0.83141315 0.06871068 0.51234841
v -0.81871778 0.06099175 0.51804203
v -0.82665241 0.07420965 0.53000391
v -0.82224995 0.07795709 0.54337609
v -0.86105275 0.07895505 0.48194754
v -0.84390378 0.07642961 0.50660253
v -0.80433309 0.07620557 0.56625515
v -0.79138178 0.06875141 0.57200098
v -0.74873966 0.05647038 0.60809553
v -0.74126577 0.05903656 0.62157220
v -0.77832806 0.06131762 0.57769465
v -0.76378983 0.05710174 0.59002215
v -0.75595760 0.04288588 0.57461274
v -0.74955869 0.04677589 0.59007436
v -0.73732406 0.04180646 0.59676051
v -0.72928709 0.05510582 0.62893736
v -0.71838337 0.04107326 0.61817694
v -0.71101189 0.04402641 0.63149691
v -0.70507371 0.03663335 0.62580323
v -0.69027948 0.02981055 0.63034773
v -0.67512697 0.02298776 0.63483995
v -0.66186851 0.01891445 0.64189166
v -0.62368000 -0.00202237 0.64356321
v -0.65014577 0.00545215 0.63024324
v -0.64354211 -0.00198164 0.62366158
v -0.63023245 -0.00579019 0.63024324
v -0.54955542 -0.02485329 0.66994196
v -0.58457005 -0.02226673 0.64413780
v -0.61088222 -0.01595310 0.63081783
v -0.60473931 -0.02245003 0.62470633
v -0.59076416 -0.02629931 0.63081783
v -0.57095325 -0.03613636 0.63076562
v -0.57028776 -0.02581052 0.65051049
v -0.55057919 -0.03544389 0.65019709
v -0.52841353 -0.02342763 0.68921679
v -0.50860256 -0.03263331 0.68838102
v -0.53629690 -0.03833595 0.65693539
v -0.52979565 -0.03424226 0.66936737
v -0.50097513 -0.04039297 0.68065017
v -0.48792142 -0.05255181 0.66806149
v -0.69094497 -0.04587157 0.47050804
v -0.69821411 -0.03898767 0.47750753
v -0.70962971 -0.03491437 0.47050804
v -0.68966520 -0.05255181 0.45488971
v -0.74019074 -0.02012824 0.46032214
v -0.75334686 -0.01564761 0.45003182
v -0.78078520 -0.00053562 0.44141304
v -0.77013749 -0.00485333 0.44883043
v -0.79394132 0.00425052 0.43002576
v -0.81006646 0.01522810 0.42845869
v -0.82035589 0.01972911 0.42072791
v -0.83315361 0.02510588 0.41001970
v -0.83714652 0.02211199 0.39429688
v -0.83898938 0.02072707 0.38672277
v -0.83274412 0.01612423 0.38672277
v -0.81528795 0.00341550 0.38672277
v -0.80545926 -0.00359060 0.38672277
v -0.89417332 0.06506506 0.38672277
v -0.89345664 0.06571679 0.39001361
v -0.88956612 0.07027890 0.40913168
v -0.88495898 0.07535017 0.43002576
v -0.88163155 0.07840516 0.44318902
v -0.87804818 0.08201004 0.45650899
v -0.83617389 0.06308950 0.49364823
v -0.82286423 0.05771273 0.50472206
v -0.80981052 0.05011601 0.50973666
v -0.79660326 0.04249892 0.51480347
v -0.80479383 0.05626671 0.53000391
v -0.80100566 0.05919949 0.54149568
v -0.81477606 0.06420967 0.53000391
v -0.80934983 0.07042146 0.54912198
v -0.84866452 0.07103246 0.48779786
v -0.86438012 0.07598154 0.47003791
v -0.85301578 0.06598156 0.47003791
v -0.79639852 0.06286547 0.55486786
v -0.73041326 0.04516694 0.61091620
v -0.78303766 0.05761090 0.56437469
v -0.76957440 0.05025858 0.56949371
v -0.74259675 0.03818121 0.58344048
v -0.76087189 0.03936247 0.56129277
v -0.74955869 0.03537062 0.56876242
v -0.73041326 0.03355800 0.59007436
v -0.72401440 0.03732581 0.60480469
v -0.70947611 0.03031972 0.60945362
v -0.70056891 0.01962727 0.60073036
v -0.69468194 0.02331362 0.61405033
v -0.68137228 0.01917921 0.62151998
v -0.66908640 0.01594093 0.62893736
v -0.65685177 0.00184727 0.61660987
v -0.65014577 -0.00548469 0.60997599
v -0.63069314 -0.01585127 0.61081177
v -0.61810017 -0.01896735 0.61802018
v -0.55759239 -0.03886548 0.63786960
v -0.61088222 -0.02638078 0.61081177
v -0.59834045 -0.03915061 0.59832752
v -0.59102011 -0.03644186 0.61096847
v -0.57822239 -0.03908951 0.61822915
v -0.56486154 -0.04234816 0.62454963
v -0.54428273 -0.04194083 0.64366770
v -0.51428479 -0.03752129 0.67558336
v -0.52979565 -0.04483288 0.65019709
v -0.52293605 -0.04126873 0.66226339
v -0.50860256 -0.04344795 0.66936737
v -0.48863810 -0.05255181 0.66753918
v -0.67845440 -0.05255181 0.47123933
v -0.67021263 -0.05255181 0.48283553
v -0.68372703 -0.04212412 0.49004400
v -0.69376051 -0.03642149 0.49004400
v -0.70364034 -0.02220564 0.51005006
v -0.71085829 -0.02609564 0.49035740
v -0.72949183 -0.02359056 0.46820968
v -0.72252983 -0.02159464 0.48388022
v -0.73589069 -0.01739912 0.47369438
v -0.74986583 -0.00992460 0.46982896
v -0.76358503 -0.00242971 0.46596354
v -0.77689469 0.00213240 0.45473301
v -0.79025555 0.00979023 0.45050195
v -0.80346286 0.01746842 0.44627088
v -0.81677252 0.02237676 0.43404788
v -0.83904064 0.04072703 0.43827891
v -0.84252161 0.03803864 0.42495894
v -0.84625852 0.03510586 0.41001970
v -0.85915869 0.04066593 0.39826676
v -0.84979069 0.03015678 0.38959572
v -0.84666806 0.02669447 0.38672277
v -0.88444704 0.05679624 0.38672277
v -0.88342321 0.05714247 0.39001361
v -0.88076127 0.05934206 0.40166205
v -0.87748504 0.06205081 0.41498202
v -0.87369692 0.06535020 0.43002576
v -0.86939687 0.07038073 0.44903934
v -0.84011561 0.05985122 0.48032826
v -0.82972383 0.05535021 0.48821574
v -0.81431532 0.04431154 0.49004400
v -0.80090332 0.03932174 0.50148350
v -0.78329360 0.03761094 0.52498931
v -0.77883995 0.04084923 0.53830934
v -0.78994840 0.04553353 0.53099638
v -0.78984606 0.05459665 0.54891306
v -0.85716224 0.06233595 0.45483747
v -0.77479589 0.04384311 0.55000997
v -0.73783594 0.02141953 0.55716622
v -0.73072040 0.02400608 0.57153088
v -0.71935600 0.02042157 0.57920945
v -0.74960989 0.02608347 0.55032337
v -0.76481360 0.03655188 0.55000997
v -0.75605994 0.02270263 0.53439164
v -0.71495360 0.02331362 0.59002215
v -0.68879497 0.01661303 0.60846114
v -0.70492011 0.01681669 0.59002215
v -0.69534743 0.00280450 0.57445604
v -0.68920451 0.00679635 0.58944756
v -0.67620200 0.00225460 0.59571576
v -0.66970074 0.00594095 0.60997599
v -0.66294348 -0.00169651 0.60328990
v -0.63775754 -0.01878405 0.59759623
v -0.62444788 -0.02234820 0.60470021
v -0.55057919 -0.04581048 0.63076562
v -0.61083102 -0.03627893 0.59101462
v -0.58503079 -0.04244999 0.60490918
v -0.60473931 -0.04242963 0.58500755
v -0.59102011 -0.04631963 0.59101462
v -0.57095325 -0.04627890 0.61096847
v -0.55795074 -0.05255181 0.61065507
v -0.55068159 -0.05255181 0.61739337
v -0.53614336 -0.05255181 0.63013875
v -0.53015399 -0.05255181 0.63525784
v -0.51285142 -0.05255181 0.64930910
v -0.50931925 -0.05255181 0.65212977
v -0.66504234 -0.05255181 0.49004400
v -0.66995668 -0.04982269 0.49004400
v -0.68009251 -0.04004674 0.50017762
v -0.70005697 -0.02004678 0.52013147
v -0.71362263 -0.01605494 0.51005006
v -0.71807623 -0.01882479 0.49725246
v -0.72949183 -0.01448671 0.49035740
v -0.74193126 -0.00126881 0.50289387
v -0.74607772 -0.00399793 0.49004400
v -0.75954098 0.00031978 0.47928354
v -0.77013749 0.00443382 0.47160494
v -0.79972589 0.02017717 0.45959085
v -0.78662097 0.01530956 0.47003791
v -0.81006646 0.02459671 0.45175558
v -0.82583332 0.03563539 0.45003182
v -0.86074561 0.05934206 0.44151747
v -0.84948355 0.04600196 0.43096599
v -0.83581555 0.04321175 0.45003182
v -0.85030264 0.05414859 0.44893491
v -0.86371469 0.05693880 0.43002576
v -0.85624075 0.04294698 0.41001970
v -0.86934566 0.04612416 0.39095384
v -0.86182058 0.03854781 0.38672277
v -0.87047189 0.05394492 0.40902722
v -0.81820583 0.04135839 0.47693294
v -0.84298229 0.05754980 0.47003791
v -0.82921195 0.04687773 0.47019461
v -0.78943652 0.02614457 0.49040961
v -0.77827686 0.02119550 0.49730468
v -0.77423275 0.02410792 0.51005006
v -0.78994840 0.03488182 0.50890088
v -0.80433309 0.03677592 0.49004400
v -0.76066715 0.01954581 0.52101946
v -0.76972795 0.03015678 0.52969050
v -0.74269909 0.01816088 0.54384625
v -0.73072040 0.01339511 0.55032337
v -0.72452629 0.01704072 0.56588948
v -0.70087606 -0.00053562 0.56113607
v -0.74960989 0.01563543 0.52864581
v -0.68198657 -0.00118735 0.58239579
v -0.68920451 -0.00371280 0.56871021
v -0.66970074 -0.00477186 0.58944756
v -0.65715891 -0.01839709 0.57675439
v -0.65029931 -0.01532174 0.59054446
v -0.64384925 -0.02208343 0.58427626
v -0.63069314 -0.02603455 0.59054446
v -0.61804897 -0.03894694 0.57785136
v -0.57837594 -0.05255181 0.59085792
v -0.57085085 -0.05255181 0.59827530
v -0.61083102 -0.04605487 0.57074738
v -0.59787971 -0.05255181 0.57074738
v -0.59076416 -0.05255181 0.57821697
v -0.65070885 -0.05255181 0.50890088
v -0.66176611 -0.04096323 0.52222085
v -0.66898406 -0.04287769 0.50811738
v -0.67502457 -0.03719542 0.51349759
v -0.68894851 -0.02289809 0.52812344
v -0.69488668 -0.01703253 0.53350365
v -0.70507371 -0.00318327 0.55000997
v -0.70962971 -0.00980240 0.52958602
v -0.72401440 -0.00257227 0.52566838
v -0.73041326 -0.00560689 0.50973666
v -0.75605994 0.00262120 0.49004400
v -0.73737526 0.00170470 0.51621383
v -0.74914920 0.00665378 0.50973666
v -0.77095652 0.01306924 0.49040961
v -0.78242332 0.01828308 0.48398471
v -0.79660326 0.02241749 0.47003791
v -0.81088555 0.03300810 0.47019461
v -0.82199401 0.03846634 0.46361297
v -0.76425052 0.01704072 0.51005006
v -0.71925360 0.00048271 0.53898835
v -0.73041326 0.00418942 0.53141427
v -0.71510714 0.00313036 0.55000997
v -0.67615080 -0.01778609 0.55533797
v -0.68894851 -0.01322398 0.54922646
v -0.66970074 -0.01442561 0.57006830
v -0.66289228 -0.02161501 0.56343442
v -0.65029931 -0.02538282 0.57006830
v -0.63043720 -0.03576976 0.57074738
v -0.62403834 -0.04212412 0.56453139
v -0.61042154 -0.05255181 0.55711401
v -0.64886600 -0.05255181 0.51119924
v -0.64988977 -0.04428298 0.52937710
v -0.65644222 -0.03801008 0.53559309
v -0.66898406 -0.03367200 0.52937710
v -0.68157703 -0.02090217 0.54196578
v -0.66970074 -0.02432375 0.54922646
v -0.64988977 -0.03493473 0.55021894
v -0.63739920 -0.03858034 0.55695724
v -0.63043720 -0.04534204 0.55021894
v -0.61635965 -0.05255181 0.55042785
v -0.63386703 -0.05255181 0.52974272
v -0.62977171 -0.05255181 0.53470504
v -0.64308137 -0.04163533 0.54363728
f 1 2 9
f 1 9 23
f 1 23 48
f 1 48 63
f 1 63 99
f 1 99 137
f 1 137 139
f 1 139 185
f 1 185 230
f 1 230 286
f 1 286 315
f 1 315 375
f 1 375 374
f 1 374 442
f 1 442 520
f 1 520 448
f 1 448 379
f 1 379 316
f 1 316 258
f 1 258 206
f 1 206 159
f 1 159 120
f 1 120 80
f 1 80 49
f 1 49 24
f 1 24 10
f 1 10 3
f 1 3 4
f 1 4 5
f 1 5 6
f 1 6 7
f 1 7 2
f 2 7 8
f 2 8 9
f 3 10 11
f 3 11 4
f 4 12 5
f 4 11 10
f 4 10 12
f 5 13 6
f 5 12 14
f 5 14 15
f 5 15 16
f 5 16 13
f 6 13 8
f 6 8 7
f 8 17 9
f 8 13 18
f 8 18 19
f 8 19 20
f 8 20 21
f 8 21 17
f 9 22 23
f 9 17 22
f 10 24 25
f 10 25 26
f 10 26 12
f 12 26 27
f 12 27 14
f 13 16 28
f 13 28 29
f 13 29 18
f 14 30 16
f 14 16 31
f 14 31 15
f 14 27 32
f 14 32 33
f 14 33 34
f 14 34 35
f 14 35 36
f 14 36 30
f 15 31 16
f 16 30 36
f 16 36 54
f 16 54 28
f 17 21 37
f 17 37 22
f 18 29 38
f 18 38 28
f 18 28 39
f 18 39 40
f 18 40 41
f 18 41 42
f 18 42 43
f 18 43 19
f 19 43 44
f 19 44 45
f 19 45 46
f 19 46 20
f 20 46 21
f 21 46 47
f 21 47 37
f 22 37 23
f 23 37 48
f 24 49 50
f 24 50 51
f 24 51 25
f 25 51 52
f 25 52 26
f 26 52 27
f 27 52 53
f 27 53 32
f 28 54 39
f 28 38 29
f 32 53 55
f 32 55 33
f 33 56 57
f 33 57 58
f 33 58 59
f 33 59 60
f 33 60 34
f 33 55 56
f 34 60 61
f 34 61 36
f 34 36 35
f 36 61 60
f 36 60 62
f 36 62 88
f 36 88 54
f 37 63 48
f 37 47 64
f 37 64 63
f 39 54 40
f 40 54 41
f 41 54 65
f 41 65 66
f 41 66 42
f 42 67 68
f 42 68 69
f 42 69 70
f 42 70 71
f 42 71 72
f 42 72 73
f 42 73 43
f 42 66 67
f 43 73 74
f 43 74 75
f 43 75 44
f 44 75 45
f 45 75 46
f 46 75 76
f 46 76 47
f 47 76 77
f 47 77 78
f 47 78 79
f 47 79 64
f 49 80 81
f 49 81 82
f 49 82 50
f 50 83 51
f 50 82 84
f 50 84 83
f 51 83 85
f 51 85 86
f 51 86 53
f 51 53 52
f 53 86 87
f 53 87 55
f 54 88 67
f 54 67 66
f 54 66 65
f 55 87 89
f 55 89 56
f 56 89 90
f 56 90 91
f 56 91 57
f 57 92 93
f 57 93 58
f 57 91 94
f 57 94 95
f 57 95 96
f 57 96 92
f 58 62 97
f 58 97 59
f 58 93 98
f 58 98 62
f 59 97 62
f 59 62 60
f 62 98 93
f 62 93 92
f 62 92 96
f 62 96 105
f 62 105 88
f 63 64 99
f 64 79 100
f 64 100 99
f 67 88 101
f 67 101 68
f 68 101 88
f 68 88 102
f 68 102 103
f 68 103 69
f 69 103 104
f 69 104 105
f 69 105 106
f 69 106 107
f 69 107 108
f 69 108 109
f 69 109 110
f 69 110 111
f 69 111 70
f 70 111 112
f 70 112 71
f 71 113 114
f 71 114 72
f 71 112 110
f 71 110 113
f 72 114 73
f 73 114 74
f 74 114 75
f 75 114 76
f 76 114 115
f 76 115 116
f 76 116 117
f 76 117 77
f 77 117 78
f 78 117 118
f 78 118 119
f 78 119 79
f 79 119 100
f 80 120 121
f 80 121 122
f 80 122 81
f 81 122 82
f 82 123 124
f 82 124 84
f 82 122 125
f 82 125 126
f 82 126 123
f 83 84 127
f 83 127 85
f 84 124 127
f 85 87 86
f 85 127 128
f 85 128 87
f 87 128 89
f 88 104 103
f 88 103 102
f 88 105 104
f 89 128 90
f 90 128 129
f 90 129 130
f 90 130 91
f 91 130 94
f 94 130 131
f 94 131 132
f 94 132 133
f 94 133 134
f 94 134 95
f 95 105 96
f 95 134 135
f 95 135 136
f 95 136 105
f 99 100 137
f 100 119 138
f 100 138 139
f 100 139 137
f 105 136 106
f 106 140 107
f 106 136 140
f 107 140 141
f 107 141 142
f 107 142 143
f 107 143 144
f 107 144 108
f 108 144 109
f 109 144 110
f 110 145 113
f 110 112 111
f 110 144 146
f 110 146 147
f 110 147 148
f 110 148 145
f 113 149 114
f 113 145 150
f 113 150 151
f 113 151 149
f 114 149 152
f 114 152 115
f 115 152 153
f 115 153 116
f 116 153 154
f 116 154 117
f 117 154 118
f 118 154 119
f 119 154 155
f 119 155 156
f 119 156 157
f 119 157 158
f 119 158 138
f 120 159 160
f 120 160 121
f 121 160 207
f 121 207 260
f 121 260 320
f 121 320 387
f 121 387 462
f 121 462 461
f 121 461 535
f 121 535 612
f 121 612 682
f 121 682 681
f 121 681 680
f 121 680 679
f 121 679 750
f 121 750 817
f 121 817 751
f 121 751 683
f 121 683 614
f 121 614 538
f 121 538 464
f 121 464 389
f 121 389 323
f 121 323 262
f 121 262 208
f 121 208 161
f 121 161 122
f 122 161 125
f 123 162 124
f 123 126 162
f 124 162 163
f 124 163 164
f 124 164 165
f 124 165 166
f 124 166 127
f 125 161 167
f 125 167 168
f 125 168 126
f 126 168 169
f 126 169 170
f 126 170 171
f 126 171 172
f 126 172 162
f 127 166 129
f 127 129 128
f 129 166 131
f 129 131 130
f 131 166 173
f 131 173 132
f 132 173 174
f 132 174 175
f 132 175 176
f 132 176 133
f 133 176 177
f 133 177 135
f 133 135 134
f 135 177 176
f 135 176 175
f 135 175 178
f 135 178 181
f 135 181 136
f 136 179 180
f 136 180 141
f 136 141 140
f 136 181 182
f 136 182 179
f 138 158 183
f 138 183 184
f 138 184 139
f 139 184 183
f 139 183 185
f 141 180 179
f 141 179 142
f 142 179 186
f 142 186 187
f 142 187 188
f 142 188 143
f 143 188 144
f 144 188 189
f 144 189 146
f 145 148 190
f 145 190 150
f 146 189 191
f 146 191 192
f 146 192 193
f 146 193 147
f 147 193 194
f 147 194 148
f 148 194 190
f 149 151 195
f 149 195 152
f 150 190 151
f 151 190 196
f 151 196 195
f 152 195 153
f 153 195 197
f 153 197 154
f 154 197 198
f 154 198 199
f 154 199 200
f 154 200 155
f 155 200 201
f 155 201 156
f 156 201 157
f 157 201 202
f 157 202 203
f 157 203 204
f 157 204 205
f 157 205 158
f 158 205 183
f 159 206 259
f 159 259 318
f 159 318 382
f 159 382 455
f 159 455 525
f 159 525 597
f 159 597 665
f 159 665 729
f 159 729 794
f 159 794 793
f 159 793 792
f 159 792 791
f 159 791 790
f 159 790 789
f 159 789 843
f 159 843 842
f 159 842 846
f 159 846 845
f 159 845 876
f 159 876 886
f 159 886 888
f 159 888 887
f 159 887 877
f 159 877 847
f 159 847 795
f 159 795 731
f 159 731 730
f 159 730 669
f 159 669 613
f 159 613 536
f 159 536 463
f 159 463 388
f 159 388 321
f 159 321 261
f 159 261 207
f 159 207 160
f 161 208 209
f 161 209 210
f 161 210 167
f 162 172 211
f 162 211 163
f 163 211 164
f 164 211 212
f 164 212 165
f 165 212 213
f 165 213 173
f 165 173 166
f 167 210 214
f 167 214 169
f 167 169 168
f 169 215 170
f 169 214 215
f 170 216 217
f 170 217 171
f 170 215 218
f 170 218 216
f 171 217 219
f 171 219 172
f 172 219 211
f 173 213 174
f 174 213 220
f 174 220 175
f 175 221 222
f 175 222 223
f 175 223 178
f 175 220 221
f 178 223 224
f 178 224 225
f 178 225 181
f 179 182 186
f 181 225 182
f 182 225 226
f 182 226 227
f 182 227 228
f 182 228 186
f 183 205 185
f 185 205 229
f 185 229 230
f 186 228 231
f 186 231 232
f 186 232 187
f 187 232 188
f 188 232 233
f 188 233 189
f 189 233 234
f 189 234 235
f 189 235 191
f 190 194 236
f 190 236 237
f 190 237 196
f 191 235 192
f 192 238 194
f 192 194 193
f 192 235 239
f 192 239 240
f 192 240 241
f 192 241 242
f 192 242 238
f 194 238 236
f 195 196 243
f 195 243 244
f 195 244 245
f 195 245 197
f 196 237 246
f 196 246 247
f 196 247 243
f 197 245 248
f 197 248 249
f 197 249 198
f 198 249 199
f 199 250 200
f 199 249 251
f 199 251 252
f 199 252 250
f 200 250 201
f 201 250 202
f 202 250 253
f 202 253 203
f 203 254 204
f 203 253 255
f 203 255 256
f 203 256 254
f 204 254 205
f 205 254 257
f 205 257 229
f 206 258 259
f 207 261 260
f 208 262 263
f 208 263 264
f 208 264 209
f 209 264 210
f 210 265 266
f 210 266 267
f 210 267 215
f 210 215 214
f 210 264 265
f 211 219 268
f 211 268 221
f 211 221 212
f 212 221 213
f 213 221 220
f 215 266 269
f 215 269 218
f 215 267 266
f 216 218 270
f 216 270 271
f 216 271 272
f 216 272 273
f 216 273 274
f 216 274 217
f 217 274 219
f 218 269 275
f 218 275 270
f 219 276 268
f 219 274 276
f 221 268 222
f 222 224 223
f 222 268 277
f 222 277 278
f 222 278 224
f 224 278 279
f 224 279 280
f 224 280 225
f 225 280 281
f 225 281 226
f 226 281 282
f 226 282 227
f 227 283 284
f 227 284 228
f 227 282 283
f 228 284 285
f 228 285 231
f 229 257 286
f 229 286 230
f 231 285 232
f 232 285 287
f 232 287 233
f 233 287 288
f 233 288 289
f 233 289 234
f 234 289 235
f 235 289 239
f 236 238 290
f 236 290 291
f 236 291 292
f 236 292 246
f 236 246 237
f 238 242 293
f 238 293 290
f 239 289 294
f 239 294 295
f 239 295 296
f 239 296 241
f 239 241 240
f 241 296 297
f 241 297 298
f 241 298 299
f 241 299 242
f 242 299 293
f 243 247 244
f 244 248 245
f 244 247 246
f 244 246 300
f 244 300 301
f 244 301 248
f 246 292 291
f 246 291 302
f 246 302 303
f 246 303 304
f 246 304 300
f 248 251 249
f 248 301 305
f 248 305 306
f 248 306 251
f 250 252 307
f 250 307 253
f 251 306 308
f 251 308 307
f 251 307 252
f 253 307 255
f 254 256 309
f 254 309 310
f 254 310 311
f 254 311 257
f 255 307 312
f 255 312 313
f 255 313 314
f 255 314 256
f 256 314 309
f 257 311 315
f 257 315 286
f 258 316 317
f 258 317 259
f 259 317 319
f 259 319 318
f 260 261 321
f 260 321 322
f 260 322 320
f 262 323 324
f 262 324 263
f 263 324 325
f 263 325 264
f 264 325 265
f 265 325 326
f 265 326 266
f 266 327 328
f 266 328 269
f 266 326 327
f 268 276 277
f 269 328 275
f 270 275 329
f 270 329 271
f 271 329 330
f 271 330 272
f 272 330 331
f 272 331 273
f 273 331 332
f 273 332 274
f 274 332 276
f 275 328 329
f 276 332 277
f 277 279 278
f 277 332 331
f 277 331 333
f 277 333 334
f 277 334 335
f 277 335 279
f 279 335 334
f 279 334 333
f 279 333 336
f 279 336 337
f 279 337 338
f 279 338 280
f 280 338 339
f 280 339 340
f 280 340 341
f 280 341 281
f 281 341 340
f 281 340 339
f 281 339 342
f 281 342 343
f 281 343 344
f 281 344 282
f 282 344 345
f 282 345 346
f 282 346 283
f 283 347 348
f 283 348 285
f 283 285 284
f 283 346 349
f 283 349 347
f 285 348 287
f 287 348 350
f 287 350 351
f 287 351 288
f 288 351 289
f 289 351 294
f 290 293 291
f 291 293 299
f 291 299 352
f 291 352 353
f 291 353 302
f 294 351 354
f 294 354 355
f 294 355 356
f 294 356 357
f 294 357 295
f 295 357 358
f 295 358 296
f 296 358 297
f 297 358 359
f 297 359 360
f 297 360 298
f 298 361 299
f 298 360 361
f 299 361 352
f 300 304 362
f 300 362 301
f 301 362 305
f 302 353 303
f 303 363 304
f 303 353 364
f 303 364 365
f 303 365 363
f 304 363 362
f 305 362 366
f 305 366 367
f 305 367 368
f 305 368 369
f 305 369 306
f 306 369 308
f 307 308 369
f 307 369 370
f 307 370 371
f 307 371 312
f 309 314 372
f 309 372 373
f 309 373 374
f 309 374 375
f 309 375 310
f 310 375 311
f 311 375 315
f 312 371 313
f 313 372 314
f 313 371 376
f 313 376 377
f 313 377 378
f 313 378 372
f 316 379 380
f 316 380 317
f 317 380 319
f 318 319 381
f 318 381 382
f 319 380 383
f 319 383 381
f 320 322 384
f 320 384 385
f 320 385 386
f 320 386 387
f 321 384 322
f 321 388 384
f 323 389 390
f 323 390 391
f 323 391 324
f 324 391 392
f 324 392 393
f 324 393 394
f 324 394 395
f 324 395 325
f 325 395 326
f 326 395 396
f 326 396 327
f 327 396 397
f 327 397 328
f 328 397 329
f 329 397 330
f 330 398 399
f 330 399 337
f 330 337 336
f 330 336 331
f 330 397 400
f 330 400 398
f 331 336 333
f 337 399 401
f 337 401 402
f 337 402 338
f 338 402 403
f 338 403 342
f 338 342 339
f 342 403 404
f 342 404 405
f 342 405 406
f 342 406 343
f 343 406 407
f 343 407 408
f 343 408 344
f 344 408 409
f 344 409 345
f 345 409 346
f 346 409 410
f 346 410 349
f 347 411 348
f 347 349 412
f 347 412 411
f 348 411 350
f 349 410 413
f 349 413 412
f 350 411 351
f 351 411 354
f 352 361 414
f 352 414 415
f 352 415 416
f 352 416 364
f 352 364 353
f 354 411 417
f 354 417 418
f 354 418 419
f 354 419 356
f 354 356 355
f 356 420 358
f 356 358 357
f 356 419 421
f 356 421 422
f 356 422 423
f 356 423 424
f 356 424 425
f 356 425 420
f 358 420 359
f 359 426 414
f 359 414 360
f 359 420 425
f 359 425 427
f 359 427 428
f 359 428 429
f 359 429 430
f 359 430 431
f 359 431 426
f 360 414 361
f 362 363 366
f 363 365 432
f 363 432 433
f 363 433 366
f 364 416 434
f 364 434 435
f 364 435 432
f 364 432 365
f 366 433 436
f 366 436 367
f 367 437 368
f 367 436 438
f 367 438 437
f 368 437 439
f 368 439 369
f 369 439 371
f 369 371 370
f 371 439 437
f 371 437 440
f 371 440 376
f 372 378 441
f 372 441 373
f 373 441 442
f 373 442 374
f 376 440 443
f 376 443 377
f 377 444 378
f 377 443 445
f 377 445 446
f 377 446 444
f 378 444 441
f 379 447 380
f 379 448 449
f 379 449 447
f 380 447 446
f 380 446 383
f 381 450 451
f 381 451 452
f 381 452 382
f 381 383 445
f 381 445 453
f 381 453 454
f 381 454 450
f 382 452 455
f 383 446 445
f 384 456 457
f 384 457 458
f 384 458 385
f 384 388 456
f 385 458 459
f 385 459 386
f 386 459 460
f 386 460 461
f 386 461 462
f 386 462 387
f 388 463 456
f 389 464 465
f 389 465 466
f 389 466 390
f 390 466 467
f 390 467 392
f 390 392 391
f 392 467 468
f 392 468 393
f 393 468 469
f 393 469 394
f 394 469 470
f 394 470 395
f 395 470 396
f 396 471 472
f 396 472 473
f 396 473 474
f 396 474 397
f 396 470 475
f 396 475 476
f 396 476 471
f 397 477 478
f 397 478 400
f 397 474 477
f 398 400 479
f 398 479 401
f 398 401 399
f 400 478 480
f 400 480 401
f 400 401 479
f 401 480 478
f 401 478 481
f 401 481 547
f 401 547 482
f 401 482 402
f 402 483 403
f 402 482 483
f 403 483 484
f 403 484 485
f 403 485 486
f 403 486 487
f 403 487 488
f 403 488 489
f 403 489 404
f 404 489 405
f 405 490 407
f 405 407 406
f 405 489 491
f 405 491 490
f 407 492 409
f 407 409 408
f 407 490 492
f 409 492 410
f 410 492 493
f 410 493 494
f 410 494 413
f 411 412 417
f 412 413 494
f 412 494 495
f 412 495 417
f 414 426 496
f 414 496 415
f 415 496 497
f 415 497 416
f 416 497 434
f 417 495 498
f 417 498 499
f 417 499 500
f 417 500 421
f 417 421 418
f 418 421 419
f 421 500 499
f 421 499 501
f 421 501 502
f 421 502 422
f 422 502 423
f 423 427 424
f 423 502 503
f 423 503 504
f 423 504 427
f 424 427 425
f 426 431 505
f 426 505 496
f 427 504 506
f 427 506 428
f 428 506 429
f 429 507 430
f 429 506 508
f 429 508 509
f 429 509 507
f 430 507 431
f 431 507 505
f 432 435 434
f 432 434 510
f 432 510 511
f 432 511 436
f 432 436 433
f 434 497 505
f 434 505 512
f 434 512 513
f 434 513 514
f 434 514 510
f 436 511 515
f 436 515 516
f 436 516 438
f 437 438 517
f 437 517 440
f 438 516 518
f 438 518 519
f 438 519 517
f 440 517 443
f 441 444 449
f 441 449 442
f 442 449 520
f 443 517 519
f 443 519 445
f 444 446 447
f 444 447 449
f 445 519 453
f 448 520 449
f 450 454 521
f 450 521 515
f 450 515 522
f 450 522 451
f 451 523 524
f 451 524 525
f 451 525 455
f 451 455 452
f 451 522 523
f 453 519 454
f 454 519 518
f 454 518 521
f 456 463 526
f 456 526 457
f 457 526 527
f 457 527 528
f 457 528 529
f 457 529 530
f 457 530 458
f 458 530 459
f 459 531 460
f 459 530 531
f 460 531 532
f 460 532 533
f 460 533 534
f 460 534 535
f 460 535 461
f 463 536 537
f 463 537 526
f 464 538 465
f 465 539 466
f 465 538 539
f 466 540 541
f 466 541 542
f 466 542 468
f 466 468 467
f 466 539 540
f 468 542 469
f 469 543 470
f 469 542 543
f 470 543 471
f 470 471 475
f 471 481 473
f 471 473 472
f 471 476 475
f 471 543 544
f 471 544 545
f 471 545 546
f 471 546 547
f 471 547 481
f 473 481 474
f 474 481 548
f 474 548 477
f 477 548 481
f 477 481 478
f 482 547 549
f 482 549 550
f 482 550 551
f 482 551 485
f 482 485 552
f 482 552 484
f 482 484 483
f 484 552 485
f 485 551 550
f 485 550 549
f 485 549 486
f 486 553 487
f 486 549 554
f 486 554 555
f 486 555 556
f 486 556 557
f 486 557 558
f 486 558 559
f 486 559 553
f 487 553 560
f 487 560 561
f 487 561 488
f 488 561 562
f 488 562 489
f 489 562 491
f 490 491 563
f 490 563 564
f 490 564 565
f 490 565 566
f 490 566 492
f 491 564 563
f 491 562 567
f 491 567 568
f 491 568 564
f 492 566 569
f 492 569 493
f 493 569 494
f 494 569 570
f 494 570 495
f 495 570 571
f 495 571 572
f 495 572 573
f 495 573 498
f 496 505 497
f 498 573 499
f 499 573 574
f 499 574 575
f 499 575 576
f 499 576 501
f 501 576 502
f 502 576 503
f 503 576 577
f 503 577 578
f 503 578 579
f 503 579 580
f 503 580 504
f 504 580 506
f 505 507 581
f 505 581 582
f 505 582 583
f 505 583 512
f 506 580 508
f 507 509 584
f 507 584 582
f 507 582 581
f 508 580 585
f 508 585 586
f 508 586 587
f 508 587 588
f 508 588 509
f 509 588 589
f 509 589 584
f 510 514 590
f 510 590 591
f 510 591 511
f 511 591 515
f 512 583 513
f 513 590 514
f 513 583 592
f 513 592 590
f 515 591 590
f 515 590 593
f 515 593 594
f 515 594 595
f 515 595 522
f 515 521 518
f 515 518 516
f 522 595 523
f 523 594 596
f 523 596 524
f 523 595 594
f 524 596 597
f 524 597 525
f 526 537 527
f 527 598 599
f 527 599 600
f 527 600 601
f 527 601 602
f 527 602 528
f 527 537 598
f 528 602 529
f 529 603 530
f 529 602 603
f 530 603 604
f 530 604 605
f 530 605 532
f 530 532 531
f 532 605 606
f 532 606 533
f 533 606 607
f 533 607 608
f 533 608 609
f 533 609 610
f 533 610 611
f 533 611 534
f 534 611 612
f 534 612 535
f 536 598 537
f 536 613 598
f 538 614 615
f 538 615 616
f 538 616 539
f 539 616 617
f 539 617 540
f 540 617 541
f 541 617 618
f 541 618 542
f 542 544 543
f 542 618 619
f 542 619 620
f 542 620 555
f 542 555 544
f 544 555 545
f 545 555 546
f 546 555 621
f 546 621 547
f 547 621 622
f 547 622 554
f 547 554 623
f 547 623 549
f 549 623 554
f 553 559 560
f 554 622 621
f 554 621 555
f 555 624 556
f 555 620 625
f 555 625 624
f 556 624 558
f 556 558 557
f 558 626 627
f 558 627 628
f 558 628 629
f 558 629 560
f 558 560 559
f 558 624 630
f 558 630 631
f 558 631 626
f 560 629 562
f 560 562 561
f 562 629 632
f 562 632 633
f 562 633 567
f 564 634 635
f 564 635 565
f 564 568 636
f 564 636 637
f 564 637 638
f 564 638 639
f 564 639 640
f 564 640 634
f 565 635 569
f 565 569 566
f 567 633 636
f 567 636 568
f 569 635 570
f 570 635 641
f 570 641 642
f 570 642 643
f 570 643 572
f 570 572 571
f 572 643 642
f 572 642 644
f 572 644 645
f 572 645 646
f 572 646 574
f 572 574 573
f 574 646 647
f 574 647 575
f 575 647 576
f 576 647 577
f 577 647 578
f 578 648 579
f 578 647 649
f 578 649 650
f 578 650 651
f 578 651 648
f 579 648 580
f 580 648 585
f 582 592 583
f 582 584 589
f 582 589 652
f 582 652 592
f 585 648 586
f 586 653 587
f 586 648 654
f 586 654 655
f 586 655 656
f 586 656 657
f 586 657 653
f 587 653 588
f 588 653 658
f 588 658 589
f 589 658 659
f 589 659 652
f 590 592 660
f 590 660 661
f 590 661 593
f 592 652 662
f 592 662 663
f 592 663 660
f 593 661 664
f 593 664 594
f 594 664 596
f 596 664 597
f 597 664 665
f 598 613 599
f 599 666 667
f 599 667 668
f 599 668 600
f 599 613 669
f 599 669 666
f 600 668 670
f 600 670 601
f 601 670 602
f 602 670 671
f 602 671 603
f 603 672 604
f 603 671 673
f 603 673 672
f 604 672 605
f 605 672 606
f 606 672 674
f 606 674 675
f 606 675 607
f 607 675 676
f 607 676 608
f 608 677 678
f 608 678 609
f 608 676 677
f 609 678 679
f 609 679 680
f 609 680 681
f 609 681 610
f 610 681 611
f 611 681 682
f 611 682 612
f 614 683 615
f 615 684 616
f 615 683 684
f 616 684 685
f 616 685 686
f 616 686 617
f 617 686 687
f 617 687 688
f 617 688 618
f 618 688 619
f 619 688 620
f 620 688 625
f 624 625 688
f 624 688 630
f 626 631 689
f 626 689 627
f 627 689 690
f 627 690 691
f 627 691 692
f 627 692 693
f 627 693 694
f 627 694 695
f 627 695 628
f 628 695 629
f 629 696 632
f 629 695 696
f 630 697 631
f 630 688 687
f 630 687 698
f 630 698 699
f 630 699 697
f 631 697 689
f 632 696 700
f 632 700 633
f 633 700 636
f 634 640 635
f 635 640 701
f 635 701 642
f 635 642 641
f 636 700 702
f 636 702 703
f 636 703 637
f 637 703 638
f 638 704 639
f 638 703 705
f 638 705 706
f 638 706 704
f 639 704 640
f 640 704 707
f 640 707 708
f 640 708 642
f 640 642 701
f 642 708 709
f 642 709 644
f 644 709 710
f 644 710 711
f 644 711 645
f 645 711 712
f 645 712 646
f 646 712 647
f 647 712 713
f 647 713 649
f 648 651 654
f 649 713 714
f 649 714 650
f 650 714 715
f 650 715 716
f 650 716 717
f 650 717 651
f 651 717 654
f 652 659 662
f 653 657 718
f 653 718 658
f 654 717 655
f 655 717 719
f 655 719 720
f 655 720 721
f 655 721 656
f 656 721 722
f 656 722 657
f 657 722 723
f 657 723 718
f 658 718 659
f 659 718 724
f 659 724 662
f 660 663 725
f 660 725 661
f 661 725 664
f 662 724 726
f 662 726 727
f 662 727 663
f 663 727 725
f 664 725 728
f 664 728 729
f 664 729 665
f 666 669 730
f 666 730 731
f 666 731 732
f 666 732 667
f 667 732 733
f 667 733 734
f 667 734 735
f 667 735 668
f 668 736 670
f 668 735 737
f 668 737 736
f 670 736 737
f 670 737 738
f 670 738 739
f 670 739 671
f 671 739 740
f 671 740 673
f 672 673 741
f 672 741 742
f 672 742 674
f 673 740 741
f 674 742 743
f 674 743 675
f 675 743 744
f 675 744 676
f 676 744 745
f 676 745 746
f 676 746 677
f 677 746 747
f 677 747 678
f 678 747 748
f 678 748 749
f 678 749 679
f 679 749 750
f 683 751 752
f 683 752 753
f 683 753 684
f 684 753 685
f 685 753 754
f 685 754 686
f 686 754 755
f 686 755 687
f 687 755 756
f 687 756 698
f 689 697 757
f 689 757 690
f 690 757 758
f 690 758 759
f 690 759 760
f 690 760 691
f 691 760 692
f 692 761 762
f 692 762 763
f 692 763 693
f 692 760 761
f 693 763 694
f 694 762 764
f 694 764 702
f 694 702 700
f 694 700 695
f 694 763 762
f 695 700 696
f 697 699 757
f 698 756 765
f 698 765 699
f 699 765 757
f 702 764 766
f 702 766 705
f 702 705 703
f 704 706 767
f 704 767 768
f 704 768 769
f 704 769 707
f 705 770 767
f 705 767 706
f 705 766 762
f 705 762 771
f 705 771 772
f 705 772 770
f 707 773 708
f 707 769 773
f 708 710 709
f 708 773 710
f 710 774 712
f 710 712 711
f 710 773 769
f 710 769 775
f 710 775 776
f 710 776 777
f 710 777 778
f 710 778 774
f 712 774 779
f 712 779 714
f 712 714 713
f 714 779 780
f 714 780 715
f 715 780 781
f 715 781 716
f 716 781 782
f 716 782 717
f 717 782 719
f 718 723 783
f 718 783 724
f 719 782 784
f 719 784 720
f 720 785 721
f 720 784 786
f 720 786 787
f 720 787 785
f 721 785 722
f 722 785 788
f 722 788 723
f 723 788 789
f 723 789 790
f 723 790 783
f 724 783 791
f 724 791 792
f 724 792 726
f 725 727 728
f 726 793 794
f 726 794 727
f 726 792 793
f 727 794 728
f 728 794 729
f 731 795 796
f 731 796 732
f 732 796 797
f 732 797 733
f 733 797 798
f 733 798 734
f 734 798 799
f 734 799 800
f 734 800 735
f 735 800 737
f 737 800 801
f 737 801 738
f 738 801 802
f 738 802 803
f 738 803 739
f 739 803 804
f 739 804 740
f 740 804 805
f 740 805 741
f 741 806 742
f 741 805 807
f 741 807 806
f 742 806 743
f 743 806 808
f 743 808 744
f 744 808 809
f 744 809 745
f 745 810 811
f 745 811 746
f 745 809 812
f 745 812 813
f 745 813 810
f 746 811 814
f 746 814 815
f 746 815 747
f 747 815 748
f 748 753 816
f 748 816 817
f 748 817 749
f 748 815 818
f 748 818 753
f 749 817 750
f 751 817 752
f 752 816 753
f 752 817 816
f 753 818 754
f 754 814 810
f 754 810 755
f 754 818 814
f 755 810 765
f 755 765 756
f 757 819 758
f 757 765 820
f 757 820 821
f 757 821 819
f 758 819 759
f 759 819 760
f 760 822 823
f 760 823 824
f 760 824 825
f 760 825 761
f 760 819 826
f 760 826 822
f 761 825 824
f 761 824 827
f 761 827 828
f 761 828 762
f 762 766 764
f 762 828 772
f 762 772 771
f 765 810 820
f 767 770 829
f 767 829 830
f 767 830 831
f 767 831 768
f 768 831 769
f 769 831 832
f 769 832 775
f 770 772 829
f 772 828 827
f 772 827 833
f 772 833 829
f 774 778 780
f 774 780 779
f 775 832 776
f 776 834 777
f 776 832 835
f 776 835 834
f 777 834 778
f 778 834 780
f 780 834 836
f 780 836 837
f 780 837 838
f 780 838 781
f 781 838 839
f 781 839 840
f 781 840 782
f 782 840 784
f 783 790 791
f 784 840 841
f 784 841 786
f 785 787 842
f 785 842 843
f 785 843 788
f 786 841 844
f 786 844 845
f 786 845 846
f 786 846 787
f 787 846 842
f 788 843 789
f 795 847 848
f 795 848 849
f 795 849 797
f 795 797 796
f 797 849 848
f 797 848 850
f 797 850 798
f 798 850 848
f 798 848 851
f 798 851 852
f 798 852 853
f 798 853 854
f 798 854 855
f 798 855 799
f 799 856 800
f 799 855 856
f 800 802 801
f 800 856 802
f 802 857 804
f 802 804 803
f 802 856 858
f 802 858 859
f 802 859 857
f 804 857 860
f 804 860 861
f 804 861 805
f 805 861 807
f 806 807 862
f 806 862 826
f 806 826 863
f 806 863 864
f 806 864 808
f 807 861 862
f 808 864 809
f 809 864 812
f 810 814 811
f 810 813 820
f 812 864 821
f 812 821 820
f 812 820 813
f 814 818 815
f 819 821 864
f 819 864 863
f 819 863 826
f 822 826 862
f 822 862 861
f 822 861 823
f 823 861 860
f 823 860 865
f 823 865 824
f 824 865 827
f 827 865 859
f 827 859 858
f 827 858 833
f 829 866 830
f 829 833 867
f 829 867 866
f 830 866 868
f 830 868 831
f 831 868 832
f 832 869 835
f 832 868 866
f 832 866 853
f 832 853 852
f 832 852 870
f 832 870 869
f 833 858 867
f 834 835 871
f 834 871 837
f 834 837 836
f 835 869 872
f 835 872 871
f 837 871 872
f 837 872 873
f 837 873 839
f 837 839 838
f 839 873 874
f 839 874 841
f 839 841 840
f 841 874 875
f 841 875 844
f 844 875 876
f 844 876 845
f 847 877 878
f 847 878 848
f 848 878 879
f 848 879 880
f 848 880 851
f 851 880 881
f 851 881 852
f 852 881 870
f 853 866 854
f 854 866 855
f 855 866 867
f 855 867 858
f 855 858 856
f 857 859 865
f 857 865 860
f 869 870 881
f 869 881 872
f 872 881 882
f 872 882 879
f 872 879 883
f 872 883 873
f 873 883 884
f 873 884 874
f 874 884 875
f 875 884 885
f 875 885 886
f 875 886 876
f 877 887 878
f 878 887 888
f 878 888 889
f 878 889 879
f 879 889 883
f 879 882 881
f 879 881 880
f 883 889 884
f 884 889 885
f 885 889 888
f 885 888 886
