v 0.55401891 0.12999372 0.83653390
v 0.55401891 0.12899625 0.83653390
v 0.55401891 0.14479291 0.82776153
v 0.54167861 0.14123052 0.84104538
v 0.54452461 0.12999372 0.84292519
v 0.52054381 0.12140326 0.86028194
v 0.55401891 0.10998325 0.83634591
v 0.52054381 0.11863478 0.86028194
v 0.55401891 0.14607538 0.82556844
v 0.54900348 0.14560717 0.82989192
v 0.52999151 0.14412116 0.84467965
v 0.50426114 0.14251298 0.86234969
v 0.47918400 0.13844168 0.87945580
v 0.51760453 0.13473679 0.85846478
v 0.52831191 0.12883340 0.85345203
v 0.51055962 0.12883340 0.86410415
v 0.48226324 0.12510815 0.88127297
v 0.55401891 0.10969825 0.83628321
v 0.54433799 0.10998325 0.84286249
v 0.48226324 0.11480774 0.88127297
v 0.51048964 0.11118428 0.86416686
v 0.51748788 0.10530125 0.85846478
v 0.52831191 0.11118428 0.85332668
v 0.52999151 0.15208055 0.82995462
v 0.55401891 0.15297624 0.81021678
v 0.51055962 0.14727642 0.85107094
v 0.48998466 0.14544432 0.86642259
v 0.46586394 0.14314404 0.88309008
v 0.44018027 0.14013126 0.90007091
v 0.47150922 0.13107261 0.88559651
v 0.48935482 0.13107261 0.87563360
v 0.45270717 0.12999372 0.89599800
v 0.44269964 0.12999372 0.90138674
v 0.54144537 0.09872608 0.84092009
v 0.55401891 0.09259877 0.82707226
v 0.47923064 0.10147421 0.87951851
v 0.48935482 0.10888399 0.87569624
v 0.44267631 0.10998325 0.90138674
v 0.45268387 0.10998325 0.89606065
v 0.47153255 0.10888399 0.88559651
v 0.50414455 0.09679221 0.86241233
v 0.48998466 0.15358694 0.84994304
v 0.54998326 0.15425870 0.80996615
v 0.55401891 0.15446226 0.80595589
v 0.47150922 0.14804997 0.87168598
v 0.43000942 0.15057418 0.88998270
v 0.44811165 0.14497612 0.88985735
v 0.43000942 0.14259441 0.90251458
v 0.39942697 0.13911344 0.91968340
v 0.40992439 0.13145939 0.91680104
v 0.43000942 0.12999372 0.90765274
v 0.40318269 0.12577991 0.92143786
v 0.40318269 0.11393242 0.92143786
v 0.52999151 0.09443086 0.84455431
v 0.52999151 0.08443580 0.83596992
v 0.55401891 0.08506685 0.82055563
v 0.44015694 0.09986605 0.90007091
v 0.46588728 0.09579474 0.88315272
v 0.43000942 0.10998325 0.90771538
v 0.48881829 0.09007455 0.86567068
v 0.49472016 0.08345868 0.85683560
v 0.51165599 0.08864960 0.85100830
v 0.50999975 0.15509333 0.82995462
v 0.44997784 0.15440120 0.86999416
v 0.52999151 0.15501189 0.80996615
v 0.55401891 0.15421799 0.78997767
v 0.41001767 0.15458441 0.88998270
v 0.37001085 0.15383121 0.90997112
v 0.41001767 0.14621787 0.90721411
v 0.38610691 0.14273691 0.92250311
v 0.34332410 0.14151551 0.94123834
v 0.35664415 0.13524570 0.93854398
v 0.36116970 0.12191217 0.94042379
v 0.39165887 0.13145939 0.92494678
v 0.39963689 0.10059889 0.91980875
v 0.40992439 0.10835472 0.91692638
v 0.36116970 0.11784087 0.94042379
v 0.39177552 0.10835472 0.92507213
v 0.51916748 0.08050699 0.83947885
v 0.55401891 0.08215587 0.81792390
v 0.43000942 0.09650722 0.90257728
v 0.43000942 0.08651216 0.89461946
v 0.44808832 0.09115346 0.88891745
v 0.45599636 0.08246122 0.87776399
v 0.47153255 0.08946386 0.87488163
v 0.48137680 0.07922453 0.86078322
v 0.46999294 0.15525617 0.84994304
v 0.33000404 0.15495083 0.90997112
v 0.35001910 0.15541902 0.90997112
v 0.39000261 0.15539867 0.88998270
v 0.43000942 0.15537831 0.86999416
v 0.55401891 0.15366836 0.78596741
v 0.54998326 0.15397371 0.78997767
v 0.31570423 0.15399407 0.92995960
v 0.33000404 0.15210091 0.92995960
v 0.37001085 0.14546469 0.92576140
v 0.33000404 0.14385651 0.94361943
v 0.31570423 0.13447215 0.95320636
v 0.31570423 0.13048227 0.95502353
v 0.33000404 0.12999372 0.95007336
v 0.34999579 0.12913874 0.94286752
v 0.31570423 0.10939291 0.95527411
v 0.36870450 0.11069572 0.93553632
v 0.35711071 0.10450734 0.93879461
v 0.34376732 0.09791182 0.94136369
v 0.38629353 0.09622223 0.92269105
v 0.40962112 0.08928065 0.90665019
v 0.33000404 0.10998325 0.95032406
v 0.35027573 0.11069572 0.94293016
v 0.51163268 0.06900555 0.83101982
v 0.52999151 0.07472573 0.82594436
v 0.54270506 0.07830848 0.82180882
v 0.50584745 0.07672067 0.84355175
v 0.55401891 0.07260865 0.80733442
v 0.41603619 0.08213551 0.89806581
v 0.44267631 0.07859347 0.88139826
v 0.46999294 0.07629319 0.86391616
v 0.47190580 0.06507674 0.85019368
v 0.47986048 0.06004867 0.83991748
v 0.48881829 0.07360612 0.85013103
v 0.31570423 0.15360729 0.90997112
v 0.31570423 0.15480833 0.92425752
v 0.55401891 0.14699142 0.76942527
v 0.31570423 0.14800924 0.94230354
v 0.31570423 0.14566825 0.94618845
v 0.31570423 0.09054276 0.94574988
v 0.33000404 0.09455299 0.94387007
v 0.33000404 0.08455794 0.93622553
v 0.35027573 0.09074632 0.93321788
v 0.36854124 0.08972850 0.92513478
v 0.37420982 0.08288870 0.91749030
v 0.39177552 0.08972850 0.91510922
v 0.48998466 0.06257288 0.83684719
v 0.51741791 0.06129042 0.81836253
v 0.52999151 0.06471032 0.81422698
v 0.54097879 0.05945833 0.80062985
v 0.54849029 0.07075621 0.80896354
v 0.55401891 0.06357035 0.79661959
v 0.40271616 0.07875632 0.90119874
v 0.43000942 0.07562142 0.88459390
v 0.43000942 0.06562636 0.87350315
v 0.44125333 0.05941762 0.86065787
v 0.44862485 0.07055264 0.86924225
v 0.45459673 0.06251181 0.85696095
v 0.44997784 0.04341739 0.83553129
v 0.47150922 0.04930042 0.83083183
v 0.47647798 0.04154458 0.81792390
v 0.48998466 0.04463878 0.81391370
v 0.48998466 0.05461348 0.82682163
v 0.50409788 0.05797230 0.82256073
v 0.44874150 0.05436920 0.85019368
v 0.46651712 0.05705626 0.84361446
v 0.31570423 0.15102202 0.90383047
v 0.55401891 -0.05254331 0.31520453
v 0.31570423 0.08136196 0.93879461
v 0.31633407 0.08148410 0.93866932
v 0.36088976 0.07961130 0.92031002
v 0.50918329 0.05037932 0.80946481
v 0.52999151 0.05664913 0.80426407
v 0.53066802 0.04598231 0.78972703
v 0.53778291 0.04109674 0.77844822
v 0.54858357 0.05510204 0.78960168
v 0.55401891 0.05611986 0.78709531
v 0.55401891 0.06310215 0.79605567
v 0.39000261 0.06607421 0.89311564
v 0.40866467 0.07049157 0.88929343
v 0.39000261 0.07606927 0.90401846
v 0.41458988 0.06222682 0.87732542
v 0.43000942 0.05707662 0.86354023
v 0.43798748 0.04081175 0.83891493
v 0.46315795 0.03865395 0.82180882
v 0.46987629 0.03338161 0.81078070
v 0.48998466 0.03708650 0.80388814
v 0.50094867 0.03957000 0.80056715
v 0.31570423 0.14505754 0.89205045
v 0.55401891 -0.05254331 0.61183590
v 0.31570423 -0.05254331 0.55581808
v 0.31570423 0.07140762 0.92858112
v 0.33000404 0.07393183 0.92620003
v 0.35001910 0.07753493 0.92244041
v 0.35172203 0.06611492 0.90946984
v 0.36854124 0.07348398 0.91047239
v 0.51426870 0.04276597 0.79624367
v 0.52446288 0.03783970 0.78295976
v 0.52908170 0.03042992 0.76936257
v 0.53372389 0.02299978 0.75564009
v 0.54998326 0.03706615 0.76409918
v 0.55401891 0.03810433 0.76265800
v 0.54998326 0.04429271 0.77412474
v 0.55401891 0.04830295 0.77663112
v 0.37001085 0.06214539 0.89750183
v 0.40126985 0.05949904 0.88058370
v 0.41001767 0.04309168 0.85602105
v 0.43080258 0.04616552 0.84937912
v 0.40875798 0.05416564 0.87037015
v 0.42466742 0.03816540 0.84236121
v 0.42916963 0.03032813 0.82951599
v 0.43367186 0.02247051 0.81654537
v 0.44997784 0.03584475 0.82550573
v 0.45140085 0.02491330 0.80990350
v 0.45900562 0.02041450 0.79937661
v 0.46999294 0.02273515 0.79618096
v 0.49012464 0.02650111 0.78928840
v 0.49686632 0.02137126 0.77800965
v 0.50855345 0.03527477 0.78972703
v 0.55401891 -0.05148477 0.61390370
v 0.55294585 -0.05254331 0.61283845
v 0.31570423 -0.05254331 0.76541501
v 0.31570423 0.06194183 0.91855550
v 0.33000404 0.06393677 0.91554785
v 0.34619337 0.05787052 0.90245199
v 0.35951346 0.06017081 0.89975762
v 0.50999975 0.02442474 0.77368611
v 0.52040386 0.01982416 0.76027691
v 0.52824193 0.01611928 0.74937415
v 0.54314828 0.01841956 0.74229360
v 0.54988992 0.02674538 0.74937415
v 0.55401891 0.03181416 0.75363499
v 0.39000261 0.05738197 0.88309008
v 0.39077243 0.04636908 0.86924225
v 0.39793399 0.04077104 0.85902870
v 0.41001767 0.03533584 0.84605813
v 0.41001767 0.02532043 0.83283693
v 0.42032847 0.01988523 0.82011700
v 0.42821321 0.01561036 0.80990350
v 0.44568557 0.01766637 0.80326152
v 0.44993120 0.01003267 0.78991497
v 0.46999294 0.01565107 0.78615540
v 0.48354626 0.01848063 0.78214520
v 0.49012464 0.01347293 0.77080375
v 0.48998466 0.00296896 0.75557745
v 0.50999975 0.01742209 0.76372319
v 0.55401891 -0.04413606 0.62825280
v 0.54233181 -0.05254331 0.62267607
v 0.32069632 -0.05254331 0.76334727
v 0.31570423 -0.04606993 0.77512729
v 0.31570423 0.06159577 0.91817957
v 0.33000404 0.05524453 0.90552229
v 0.33000404 0.04524947 0.89355427
v 0.34267092 0.03912216 0.88108498
v 0.35109219 0.04960577 0.89042127
v 0.35601431 0.04134102 0.87832797
v 0.37001085 0.05375850 0.88747627
v 0.50234830 -0.00106164 0.74160433
v 0.51566833 0.00197148 0.73696750
v 0.55401891 0.02365119 0.74179232
v 0.53101790 0.00469926 0.73013759
v 0.53836608 0.00077045 0.71873349
v 0.54988992 0.01398184 0.73032558
v 0.55401891 0.01888776 0.73464906
v 0.55401891 0.02118805 0.73815805
v 0.37001085 0.04378380 0.87525761
v 0.38461393 0.03836896 0.86203641
v 0.38911617 0.03030778 0.84956712
v 0.39364171 0.02226695 0.83690983
v 0.41001767 0.01795136 0.82281137
v 0.40908459 0.00744739 0.80852497
v 0.41514975 0.00180863 0.79737151
v 0.43000942 0.00461783 0.79342395
v 0.44085675 -0.00032880 0.78045338
v 0.45417681 0.00239897 0.77650583
v 0.47120595 0.00484176 0.76992655
v 0.47867078 0.00054653 0.75914907
v 0.48998466 -0.00372835 0.74555188
v 0.55401891 -0.04094009 0.63433075
v 0.54993659 -0.04507246 0.63013256
v 0.54324156 -0.04155078 0.64278984
v 0.53433043 -0.05254331 0.62975663
v 0.32974744 -0.05254331 0.75946236
v 0.32918757 -0.04521495 0.77074111
v 0.32195601 -0.04055331 0.78076667
v 0.31570423 -0.04142864 0.78201985
v 0.31570423 0.05398243 0.90921921
v 0.31570423 0.04592124 0.89963228
v 0.31570423 0.04307132 0.89618599
v 0.33000404 0.03716793 0.88352871
v 0.34962255 0.03344268 0.87099671
v 0.33814538 0.02055700 0.85921669
v 0.37001085 0.03580404 0.86529469
v 0.47335210 -0.01722473 0.73571432
v 0.49014798 -0.01417125 0.72938567
v 0.49691296 -0.01867004 0.71785629
v 0.50939322 -0.00523473 0.73013759
v 0.52502275 -0.00230339 0.72362095
v 0.51172602 -0.01647153 0.71071303
v 0.51954073 -0.01978965 0.69962227
v 0.52999151 -0.01736722 0.69554937
v 0.54998326 -0.00256802 0.70413375
v 0.55401891 -0.00157055 0.70256728
v 0.54998326 0.00366108 0.71415931
v 0.55401891 0.01493860 0.72857106
v 0.37001085 0.02580898 0.85238677
v 0.38029832 0.01990559 0.84010547
v 0.38818306 0.01542715 0.83014256
v 0.39000261 0.00435320 0.81385100
v 0.40180635 -0.00065451 0.80088043
v 0.40908459 -0.00531615 0.79041624
v 0.43000942 -0.00238481 0.78339839
v 0.42928627 -0.01288879 0.76867330
v 0.43544477 -0.01826291 0.75745726
v 0.44850820 -0.00448154 0.76992655
v 0.46532741 -0.00220161 0.76315928
v 0.44997784 -0.01535193 0.75307107
v 0.44997784 -0.02206958 0.74310815
v 0.46003205 -0.02001357 0.73997515
v 0.55401891 -0.03894514 0.63802773
v 0.52968824 -0.05254331 0.63376683
v 0.53202099 -0.05254331 0.63176173
v 0.54993659 -0.03446671 0.64968240
v 0.53538018 -0.03784589 0.65613639
v 0.52922165 -0.04421749 0.64968240
v 0.33548602 -0.05254331 0.75689328
v 0.35001910 -0.04311823 0.76460046
v 0.33529940 -0.03859909 0.77794695
v 0.32918757 -0.03308247 0.78847384
v 0.33000404 -0.02239529 0.80338687
v 0.31570423 -0.03460920 0.79179478
v 0.31570423 0.03505085 0.88622308
v 0.31570423 0.02790571 0.87713742
v 0.33089048 0.02607362 0.86905432
v 0.35001910 0.02247051 0.85677296
v 0.32482532 0.01860277 0.86178577
v 0.33089048 0.01263831 0.85150957
v 0.33000404 0.00184935 0.83741111
v 0.35001910 0.01489788 0.84674740
v 0.46801007 -0.02347418 0.72938567
v 0.48356959 -0.02149960 0.72236776
v 0.49014798 -0.02595768 0.71071303
v 0.50619733 -0.02278206 0.70450974
v 0.50020218 -0.04008511 0.68013507
v 0.52999151 -0.02333168 0.68558645
v 0.54139870 -0.02068533 0.68113762
v 0.55401891 -0.00680218 0.69392020
v 0.55401891 0.00506568 0.71315676
v 0.55401891 0.00738632 0.71679103
v 0.37001085 0.01817529 0.84242392
v 0.36886781 0.00758989 0.82838809
v 0.37479302 0.00174756 0.81748533
v 0.38286436 -0.02097033 0.78139329
v 0.39000261 -0.00271052 0.80382550
v 0.39620775 -0.01867004 0.77807230
v 0.41001767 -0.01614583 0.77437538
v 0.42212471 -0.02078712 0.76115417
v 0.42928627 -0.02526556 0.75043935
v 0.43000942 -0.03599345 0.73370916
v 0.44078678 -0.04030903 0.72048795
v 0.44846156 -0.03222749 0.72825778
v 0.55401891 -0.03017148 0.65375531
v 0.52063715 -0.05254331 0.64128602
v 0.54884017 -0.02388131 0.66929495
v 0.52922165 -0.03338781 0.66898161
v 0.52203679 -0.04091973 0.66158777
v 0.51016307 -0.05254331 0.64993304
v 0.34952924 -0.05254331 0.75043935
v 0.35074228 -0.05254331 0.74987543
v 0.36322254 -0.04104187 0.76153010
v 0.35001910 -0.03633951 0.77462602
v 0.34199440 -0.02062427 0.80088043
v 0.31570423 -0.02241564 0.80908889
v 0.31570423 -0.03157608 0.79611832
v 0.33000404 -0.00531615 0.82744819
v 0.31570423 0.01729995 0.86354023
v 0.31570423 0.00956447 0.85326403
v 0.31908673 0.00026154 0.83960420
v 0.35001910 0.00490282 0.83321291
v 0.45413017 -0.03760162 0.71610177
v 0.47045946 -0.03483312 0.70964783
v 0.47743443 -0.03892479 0.69818109
v 0.48998466 -0.03629879 0.69373226
v 0.51352221 -0.03709270 0.67493433
v 0.48998466 -0.04220219 0.68376935
v 0.48744196 -0.05254331 0.66741514
v 0.49642310 -0.05254331 0.66058522
v 0.50811023 -0.04291467 0.66898161
v 0.55401891 -0.01755043 0.67581153
v 0.36144963 -0.00047130 0.82061827
v 0.37001085 -0.01608476 0.79442650
v 0.37001085 -0.02310776 0.78440094
v 0.36994088 -0.03379494 0.76892400
v 0.37654260 -0.03884336 0.75827181
v 0.38972268 -0.02585590 0.77080375
v 0.39000261 -0.03658378 0.75482553
v 0.41001767 -0.02302634 0.76441246
v 0.40966776 -0.03357102 0.74887288
v 0.41610619 -0.03855837 0.73771942
v 0.43000942 -0.04230398 0.72368360
v 0.42802659 -0.05254331 0.70795602
v 0.43901387 -0.05254331 0.70093811
v 0.44846156 -0.04379000 0.70964783
v 0.55401891 -0.02288384 0.66660058
v 0.50897336 -0.05254331 0.65087295
v 0.36252272 -0.05254331 0.74411070
v 0.36994088 -0.04576458 0.75094062
v 0.35531449 -0.01848683 0.79787278
v 0.34920263 -0.02544877 0.79066694
v 0.34920263 -0.01292950 0.80852497
v 0.35001910 -0.00228303 0.82318735
v 0.31570423 -0.01447659 0.82024235
v 0.31570423 0.00250075 0.84386504
v 0.31570423 -0.00018631 0.84023082
v 0.31570423 -0.00313801 0.83615792
v 0.46409103 -0.04167292 0.70275527
v 0.47045946 -0.04604958 0.69091254
v 0.47734112 -0.05254331 0.67468369
v 0.39000261 -0.04313859 0.74479997
v 0.40276280 -0.04098080 0.74147898
v 0.40966776 -0.04531674 0.73063886
v 0.41496313 -0.05254331 0.71572584
v 0.42760670 -0.05254331 0.70820665
v 0.45275384 -0.05254331 0.69191509
v 0.37586609 -0.05254331 0.73728079
v 0.45566979 -0.05254331 0.68990999
v 0.46369448 -0.05254331 0.68433326
v 0.38927945 -0.05254331 0.73026288
v 0.39032918 -0.05254331 0.72969896
v 0.39179882 -0.05254331 0.72888440
v 0.40178305 -0.05254331 0.72330767
v 0.40990105 -0.05254331 0.71867085
f 1 2 7
f 1 7 18
f 1 18 35
f 1 35 56
f 1 56 80
f 1 80 114
f 1 114 138
f 1 138 164
f 1 164 163
f 1 163 190
f 1 190 188
f 1 188 218
f 1 218 246
f 1 246 251
f 1 251 250
f 1 250 291
f 1 291 335
f 1 335 334
f 1 334 289
f 1 289 333
f 1 333 375
f 1 375 390
f 1 390 348
f 1 348 306
f 1 306 265
f 1 265 233
f 1 233 206
f 1 206 176
f 1 176 154
f 1 154 123
f 1 123 92
f 1 92 66
f 1 66 44
f 1 44 25
f 1 25 9
f 1 9 3
f 1 3 4
f 1 4 5
f 1 5 6
f 1 6 8
f 1 8 2
f 2 8 7
f 3 9 10
f 3 10 11
f 3 11 4
f 4 11 12
f 4 12 13
f 4 13 14
f 4 14 5
f 5 14 15
f 5 15 6
f 6 15 14
f 6 14 16
f 6 16 17
f 6 17 20
f 6 20 8
f 7 8 19
f 7 19 18
f 8 20 21
f 8 21 22
f 8 22 23
f 8 23 19
f 9 24 10
f 9 25 24
f 10 24 11
f 11 26 27
f 11 27 12
f 11 24 26
f 12 27 28
f 12 28 29
f 12 29 13
f 13 29 30
f 13 30 17
f 13 17 31
f 13 31 16
f 13 16 14
f 16 31 17
f 17 30 32
f 17 32 33
f 17 33 20
f 18 19 34
f 18 34 35
f 19 23 22
f 19 22 34
f 20 36 37
f 20 37 21
f 20 33 38
f 20 38 39
f 20 39 40
f 20 40 36
f 21 37 36
f 21 36 22
f 22 36 41
f 22 41 34
f 24 42 26
f 24 25 43
f 24 43 42
f 25 44 43
f 26 42 45
f 26 45 27
f 27 45 46
f 27 46 47
f 27 47 28
f 28 47 48
f 28 48 29
f 29 48 49
f 29 49 50
f 29 50 51
f 29 51 33
f 29 33 30
f 30 33 32
f 33 51 52
f 33 52 53
f 33 53 38
f 34 41 54
f 34 54 55
f 34 55 56
f 34 56 35
f 36 40 39
f 36 39 57
f 36 57 58
f 36 58 41
f 38 57 39
f 38 53 59
f 38 59 57
f 41 60 61
f 41 61 62
f 41 62 54
f 41 58 60
f 42 43 63
f 42 63 64
f 42 64 46
f 42 46 45
f 43 44 63
f 44 65 63
f 44 66 65
f 46 64 67
f 46 67 68
f 46 68 69
f 46 69 47
f 47 69 48
f 48 69 70
f 48 70 49
f 49 70 71
f 49 71 72
f 49 72 73
f 49 73 74
f 49 74 52
f 49 52 50
f 50 52 51
f 52 74 73
f 52 73 77
f 52 77 53
f 53 75 76
f 53 76 59
f 53 77 78
f 53 78 75
f 54 62 79
f 54 79 55
f 55 79 80
f 55 80 56
f 57 59 75
f 57 75 81
f 57 81 82
f 57 82 83
f 57 83 58
f 58 84 85
f 58 85 60
f 58 83 84
f 59 76 75
f 60 85 61
f 61 85 84
f 61 84 86
f 61 86 79
f 61 79 62
f 63 87 67
f 63 67 64
f 63 65 87
f 65 66 88
f 65 88 89
f 65 89 90
f 65 90 91
f 65 91 87
f 66 92 93
f 66 93 88
f 67 87 91
f 67 91 89
f 67 89 68
f 68 89 94
f 68 94 95
f 68 95 96
f 68 96 69
f 69 96 70
f 70 96 71
f 71 97 98
f 71 98 99
f 71 99 100
f 71 100 72
f 71 96 97
f 72 100 101
f 72 101 73
f 73 101 100
f 73 100 99
f 73 99 102
f 73 102 77
f 75 78 103
f 75 103 104
f 75 104 105
f 75 105 106
f 75 106 107
f 75 107 81
f 77 104 103
f 77 103 78
f 77 102 108
f 77 108 109
f 77 109 104
f 79 110 111
f 79 111 112
f 79 112 80
f 79 86 113
f 79 113 110
f 80 112 114
f 81 115 82
f 81 107 115
f 82 115 116
f 82 116 84
f 82 84 83
f 84 116 86
f 86 117 118
f 86 118 119
f 86 119 120
f 86 120 113
f 86 116 117
f 88 121 122
f 88 122 89
f 88 93 92
f 88 92 121
f 89 122 94
f 89 91 90
f 92 123 121
f 94 124 95
f 94 122 121
f 94 121 153
f 94 153 175
f 94 175 177
f 94 177 208
f 94 208 236
f 94 236 272
f 94 272 317
f 94 317 360
f 94 360 359
f 94 359 398
f 94 398 401
f 94 401 400
f 94 400 399
f 94 399 363
f 94 363 362
f 94 362 319
f 94 319 318
f 94 318 275
f 94 275 274
f 94 274 273
f 94 273 237
f 94 237 209
f 94 209 178
f 94 178 155
f 94 155 126
f 94 126 102
f 94 102 99
f 94 99 98
f 94 98 125
f 94 125 124
f 95 124 96
f 96 124 125
f 96 125 97
f 97 125 98
f 102 126 127
f 102 127 105
f 102 105 104
f 102 104 108
f 104 109 108
f 105 127 128
f 105 128 129
f 105 129 130
f 105 130 106
f 106 130 131
f 106 131 132
f 106 132 107
f 107 132 115
f 110 113 133
f 110 133 134
f 110 134 111
f 111 134 135
f 111 135 112
f 112 135 136
f 112 136 137
f 112 137 114
f 113 120 133
f 114 137 138
f 115 132 131
f 115 131 139
f 115 139 116
f 116 140 141
f 116 141 142
f 116 142 143
f 116 143 117
f 116 139 140
f 117 143 144
f 117 144 118
f 118 144 119
f 119 145 146
f 119 146 147
f 119 147 148
f 119 148 149
f 119 149 150
f 119 150 133
f 119 133 120
f 119 144 142
f 119 142 151
f 119 151 152
f 119 152 145
f 121 123 153
f 123 154 153
f 126 155 127
f 127 155 156
f 127 156 128
f 128 156 157
f 128 157 129
f 129 157 130
f 130 157 131
f 131 157 139
f 133 150 134
f 134 158 159
f 134 159 136
f 134 136 135
f 134 150 158
f 136 159 160
f 136 160 161
f 136 161 162
f 136 162 163
f 136 163 164
f 136 164 138
f 136 138 137
f 139 165 166
f 139 166 140
f 139 157 167
f 139 167 165
f 140 168 141
f 140 166 168
f 141 168 142
f 142 144 143
f 142 168 169
f 142 169 170
f 142 170 151
f 145 152 151
f 145 151 170
f 145 170 171
f 145 171 146
f 146 171 147
f 147 172 173
f 147 173 148
f 147 171 172
f 148 173 174
f 148 174 150
f 148 150 149
f 150 174 158
f 153 154 175
f 154 176 207
f 154 207 234
f 154 234 268
f 154 268 308
f 154 308 307
f 154 307 349
f 154 349 353
f 154 353 391
f 154 391 373
f 154 373 372
f 154 372 404
f 154 404 413
f 154 413 412
f 154 412 410
f 154 410 388
f 154 388 387
f 154 387 409
f 154 409 408
f 154 408 418
f 154 418 417
f 154 417 416
f 154 416 415
f 154 415 414
f 154 414 411
f 154 411 392
f 154 392 355
f 154 355 354
f 154 354 312
f 154 312 269
f 154 269 235
f 154 235 208
f 154 208 177
f 154 177 175
f 155 178 179
f 155 179 180
f 155 180 157
f 155 157 156
f 157 180 181
f 157 181 182
f 157 182 167
f 158 174 183
f 158 183 159
f 159 183 160
f 160 183 184
f 160 184 161
f 161 184 185
f 161 185 186
f 161 186 187
f 161 187 188
f 161 188 189
f 161 189 162
f 162 189 190
f 162 190 163
f 165 167 191
f 165 191 192
f 165 192 166
f 166 192 168
f 167 182 191
f 168 192 169
f 169 193 194
f 169 194 170
f 169 192 195
f 169 195 193
f 170 196 197
f 170 197 198
f 170 198 199
f 170 199 171
f 170 194 196
f 171 199 200
f 171 200 172
f 172 200 201
f 172 201 202
f 172 202 173
f 173 202 203
f 173 203 174
f 174 203 204
f 174 204 205
f 174 205 184
f 174 184 183
f 176 206 207
f 178 209 179
f 179 209 210
f 179 210 180
f 180 210 181
f 181 210 211
f 181 211 212
f 181 212 182
f 182 212 191
f 184 204 213
f 184 213 214
f 184 214 185
f 184 205 204
f 185 214 186
f 186 214 215
f 186 215 216
f 186 216 187
f 187 216 217
f 187 217 188
f 188 217 218
f 188 190 189
f 191 212 219
f 191 219 192
f 192 219 220
f 192 220 221
f 192 221 195
f 193 222 196
f 193 196 194
f 193 195 221
f 193 221 222
f 196 223 197
f 196 222 223
f 197 223 224
f 197 224 198
f 198 224 225
f 198 225 226
f 198 226 200
f 198 200 199
f 200 226 201
f 201 226 227
f 201 227 228
f 201 228 202
f 202 228 229
f 202 229 203
f 203 229 204
f 204 229 230
f 204 230 231
f 204 231 232
f 204 232 214
f 204 214 213
f 206 233 207
f 207 233 234
f 208 235 236
f 209 237 210
f 210 238 211
f 210 237 238
f 211 239 240
f 211 240 241
f 211 241 212
f 211 238 239
f 212 241 242
f 212 242 243
f 212 243 219
f 214 232 244
f 214 244 245
f 214 245 215
f 215 245 216
f 216 246 217
f 216 245 247
f 216 247 248
f 216 248 249
f 216 249 250
f 216 250 251
f 216 251 246
f 217 246 218
f 219 252 220
f 219 243 252
f 220 253 221
f 220 252 253
f 221 253 254
f 221 254 255
f 221 255 222
f 222 255 223
f 223 255 256
f 223 256 224
f 224 257 258
f 224 258 225
f 224 256 257
f 225 258 259
f 225 259 226
f 226 259 260
f 226 260 227
f 227 260 228
f 228 260 261
f 228 261 262
f 228 262 229
f 229 262 263
f 229 263 230
f 230 263 231
f 231 263 264
f 231 264 244
f 231 244 232
f 233 265 266
f 233 266 234
f 234 266 267
f 234 267 268
f 235 269 270
f 235 270 271
f 235 271 236
f 236 271 272
f 237 273 238
f 238 273 274
f 238 274 239
f 239 274 275
f 239 275 276
f 239 276 240
f 240 277 242
f 240 242 241
f 240 276 278
f 240 278 277
f 242 277 279
f 242 279 252
f 242 252 243
f 244 264 280
f 244 280 281
f 244 281 282
f 244 282 283
f 244 283 245
f 245 283 284
f 245 284 247
f 247 284 248
f 248 284 285
f 248 285 286
f 248 286 287
f 248 287 288
f 248 288 289
f 248 289 290
f 248 290 249
f 249 290 291
f 249 291 250
f 252 279 253
f 253 279 292
f 253 292 293
f 253 293 254
f 254 293 255
f 255 293 294
f 255 294 256
f 256 294 295
f 256 295 296
f 256 296 257
f 257 296 258
f 258 296 297
f 258 297 298
f 258 298 259
f 259 298 260
f 260 298 299
f 260 299 300
f 260 300 301
f 260 301 261
f 261 301 262
f 262 301 302
f 262 302 263
f 263 302 303
f 263 303 304
f 263 304 305
f 263 305 264
f 264 305 280
f 265 306 267
f 265 267 266
f 267 307 308
f 267 308 268
f 267 306 309
f 267 309 310
f 267 310 311
f 267 311 307
f 269 312 313
f 269 313 270
f 270 313 314
f 270 314 271
f 271 314 315
f 271 315 316
f 271 316 317
f 271 317 272
f 275 318 276
f 276 318 319
f 276 319 320
f 276 320 278
f 277 278 321
f 277 321 279
f 278 320 322
f 278 322 323
f 278 323 324
f 278 324 325
f 278 325 321
f 279 321 292
f 280 305 326
f 280 326 327
f 280 327 281
f 281 327 282
f 282 284 283
f 282 327 328
f 282 328 329
f 282 329 285
f 282 285 284
f 285 329 286
f 286 330 331
f 286 331 287
f 286 329 330
f 287 331 332
f 287 332 288
f 288 332 289
f 289 332 333
f 289 334 290
f 290 334 335
f 290 335 291
f 292 321 336
f 292 336 293
f 293 336 337
f 293 337 338
f 293 338 294
f 294 338 295
f 295 338 339
f 295 339 340
f 295 340 296
f 296 340 341
f 296 341 297
f 297 341 342
f 297 342 298
f 298 342 299
f 299 342 343
f 299 343 300
f 300 303 301
f 300 343 344
f 300 344 345
f 300 345 304
f 300 304 303
f 301 303 302
f 304 345 346
f 304 346 347
f 304 347 305
f 305 347 326
f 306 348 309
f 307 311 349
f 309 348 350
f 309 350 310
f 310 350 332
f 310 332 351
f 310 351 352
f 310 352 311
f 311 352 353
f 311 353 349
f 312 354 313
f 313 354 355
f 313 355 356
f 313 356 357
f 313 357 314
f 314 357 358
f 314 358 315
f 315 358 316
f 316 359 360
f 316 360 317
f 316 358 361
f 316 361 359
f 319 362 322
f 319 322 320
f 321 325 336
f 322 362 363
f 322 363 364
f 322 364 323
f 323 364 324
f 324 364 361
f 324 361 365
f 324 365 325
f 325 365 336
f 326 347 346
f 326 346 366
f 326 366 327
f 327 366 367
f 327 367 328
f 328 367 368
f 328 368 369
f 328 369 329
f 329 369 330
f 330 370 331
f 330 369 368
f 330 368 371
f 330 371 372
f 330 372 373
f 330 373 374
f 330 374 352
f 330 352 370
f 331 370 351
f 331 351 332
f 332 375 333
f 332 350 375
f 336 365 337
f 337 365 376
f 337 376 338
f 338 377 339
f 338 376 377
f 339 341 340
f 339 377 378
f 339 378 379
f 339 379 380
f 339 380 381
f 339 381 341
f 341 381 382
f 341 382 383
f 341 383 342
f 342 383 343
f 343 383 384
f 343 384 344
f 344 384 385
f 344 385 345
f 345 385 386
f 345 386 346
f 346 386 387
f 346 387 388
f 346 388 389
f 346 389 366
f 348 390 350
f 350 390 375
f 351 370 352
f 352 374 353
f 353 374 391
f 355 392 356
f 356 393 380
f 356 380 379
f 356 379 357
f 356 392 393
f 357 378 394
f 357 394 395
f 357 395 358
f 357 379 378
f 358 395 394
f 358 394 396
f 358 396 397
f 358 397 361
f 359 361 398
f 361 397 365
f 361 364 398
f 363 399 364
f 364 400 401
f 364 401 398
f 364 399 400
f 365 397 376
f 366 389 402
f 366 402 367
f 367 402 368
f 368 402 403
f 368 403 371
f 371 403 404
f 371 404 372
f 373 391 374
f 376 397 396
f 376 396 394
f 376 394 377
f 377 394 378
f 380 393 405
f 380 405 382
f 380 382 381
f 382 405 406
f 382 406 384
f 382 384 383
f 384 406 385
f 385 406 407
f 385 407 386
f 386 408 409
f 386 409 387
f 386 407 408
f 388 410 389
f 389 410 402
f 392 405 393
f 392 411 405
f 402 410 403
f 403 410 412
f 403 412 413
f 403 413 404
f 405 411 414
f 405 414 406
f 406 414 415
f 406 415 416
f 406 416 407
f 407 416 417
f 407 417 418
f 407 418 408
