v 0.33607545 0.10998216 -0.94630420
v 0.33607545 0.12999436 -0.94568408
v 0.34559292 0.12999436 -0.94211829
v 0.34632504 0.10998216 -0.94242835
v 0.34238288 0.09856115 -0.94087803
v 0.33607545 0.10436326 -0.94480550
v 0.33607545 0.14161895 -0.94144642
v 0.34136918 0.14064175 -0.94051623
v 0.35556093 0.12999436 -0.93813908
v 0.40151516 0.12270609 -0.92067182
v 0.35629305 0.10998216 -0.93850076
v 0.37003425 0.10998216 -0.93281621
v 0.39824879 0.10334535 -0.91917318
v 0.38490182 0.09681034 -0.92211884
v 0.36823213 0.09007174 -0.92428935
v 0.36034784 0.07985187 -0.92010337
v 0.33607545 0.08705871 -0.93493497
v 0.33607545 0.09685105 -0.94201493
v 0.33607545 0.14907008 -0.93018061
v 0.34885928 0.14585349 -0.93064570
v 0.37003425 0.14450984 -0.92459941
v 0.38411337 0.14196505 -0.92170542
v 0.39740407 0.13604078 -0.91875976
v 0.37003425 0.12999436 -0.93214440
v 0.40151516 0.11668003 -0.92067182
v 0.39047712 0.12962791 -0.92361748
v 0.40894893 0.12962791 -0.91519397
v 0.43096864 0.13011652 -0.90444493
v 0.44172508 0.12352043 -0.90087914
v 0.39098400 0.11000252 -0.92382419
v 0.40894893 0.11000252 -0.91560739
v 0.43119392 0.10963607 -0.90465164
v 0.43862769 0.10271424 -0.89927709
v 0.42533702 0.09626067 -0.90263617
v 0.40906155 0.08974601 -0.90558183
v 0.39098400 0.09007174 -0.91431546
v 0.37363851 0.08347565 -0.91715771
v 0.40174043 0.07913933 -0.90082741
v 0.39002660 0.07651311 -0.90351468
v 0.36823213 0.07380546 -0.91028452
v 0.35927781 0.06026719 -0.89963883
v 0.35156247 0.06639504 -0.90940601
v 0.35004193 0.07779568 -0.92211884
v 0.33607545 0.08294633 -0.93178266
v 0.33607545 0.15452611 -0.90997446
v 0.35004193 0.15466863 -0.90997446
v 0.37003425 0.15259208 -0.90997446
v 0.39047712 0.14707498 -0.91121471
v 0.41001892 0.14528345 -0.90578854
v 0.42488647 0.14253508 -0.90232611
v 0.43823349 0.13685511 -0.89896703
v 0.44172508 0.11604893 -0.90087914
v 0.44904625 0.13011652 -0.89498782
v 0.47027755 0.12848786 -0.88372195
v 0.48041451 0.12083313 -0.88020790
v 0.44904625 0.10963607 -0.89529788
v 0.47759867 0.10566620 -0.87860584
v 0.50243425 0.09797075 -0.86139703
v 0.46425167 0.09674926 -0.88227499
v 0.44893360 0.09005138 -0.88542736
v 0.43119392 0.08974601 -0.89452273
v 0.41508740 0.08292598 -0.89752007
v 0.40044516 0.05979894 -0.88020790
v 0.39002660 0.06651718 -0.89266229
v 0.44155616 0.07918005 -0.88077629
v 0.43001127 0.07639096 -0.88372195
v 0.41379213 0.06266946 -0.87684882
v 0.37003425 0.06236409 -0.89726162
v 0.35578620 0.04145612 -0.87814075
v 0.35083035 0.04970123 -0.89033675
v 0.34593081 0.05792598 -0.90237778
v 0.33607545 0.06169227 -0.91049123
v 0.33607545 0.06468493 -0.91379863
v 0.37003425 0.05399683 -0.88723612
v 0.33607545 0.07514910 -0.92480612
v 0.39002660 0.15493327 -0.88997501
v 0.33607545 0.14760429 -0.88904482
v 0.86995530 0.15397644 -0.41836035
v 0.86995530 0.15489256 -0.43003961
v 0.41001892 0.15342677 -0.88997501
v 0.43096864 0.14746179 -0.89137036
v 0.45000362 0.14505951 -0.88578910
v 0.46374482 0.14220935 -0.88201660
v 0.50204003 0.14133394 -0.86113864
v 0.47709182 0.13416782 -0.87824410
v 0.48041451 0.11900088 -0.88020790
v 0.47055912 0.11140724 -0.88387704
v 0.50536269 0.12999436 -0.86315405
v 0.51538700 0.12999436 -0.85710776
v 0.54236257 0.12563768 -0.84150094
v 0.48824248 0.11140724 -0.87385142
v 0.50570059 0.10998216 -0.86336076
v 0.49342358 0.08465643 -0.85597080
v 0.48013291 0.07993330 -0.86000168
v 0.48807353 0.09078428 -0.86403263
v 0.53982836 0.10049519 -0.83984721
v 0.52648133 0.09487630 -0.84398150
v 0.51775229 0.08154161 -0.83855528
v 0.47055912 0.09005138 -0.87343800
v 0.45484683 0.08341457 -0.87710714
v 0.40827313 0.05483152 -0.87007892
v 0.39700985 0.04115074 -0.85850304
v 0.39019555 0.04691214 -0.86899370
v 0.39002660 0.05776311 -0.88263673
v 0.43001127 0.05778347 -0.86268896
v 0.47005227 0.07726637 -0.86284399
v 0.44752568 0.07113852 -0.86858028
v 0.44020456 0.05992109 -0.86005342
v 0.43001127 0.06639504 -0.87271452
v 0.37003425 0.04402126 -0.87488502
v 0.37003425 0.03618332 -0.86491114
v 0.35004193 0.02270612 -0.85643589
v 0.34947875 0.03367925 -0.87085414
v 0.34243920 0.03919635 -0.88098305
v 0.33607545 0.04658641 -0.89255893
v 0.33607545 0.05629732 -0.90434158
v 0.43001127 0.15491292 -0.86997557
v 0.80997831 0.15521830 -0.53003681
v 0.76999366 0.15534045 -0.59003514
v 0.59000629 0.15509614 -0.76997840
v 0.53002930 0.15501472 -0.80997729
v 0.33607545 -0.05263995 -0.53339589
v 0.84979403 0.14636244 -0.41836035
v 0.89056718 0.15114665 -0.41836035
v 0.86995530 0.15336570 -0.45003906
v 0.84996301 0.15495364 -0.47003847
v 0.47005227 0.15479077 -0.84997618
v 0.45000362 0.15312140 -0.86997557
v 0.47027755 0.14701390 -0.87090582
v 0.49004459 0.14412302 -0.86454940
v 0.52619976 0.14349192 -0.84377480
v 0.53949046 0.13897237 -0.83964050
v 0.54236257 0.11382987 -0.84150094
v 0.51566857 0.10998216 -0.85726279
v 0.53171879 0.13137874 -0.84661710
v 0.54945844 0.13137874 -0.83509284
v 0.56607181 0.12999436 -0.82413709
v 0.57609612 0.12999436 -0.81716055
v 0.60126960 0.12331684 -0.80088192
v 0.50440532 0.07749031 -0.84263784
v 0.48807353 0.07488444 -0.84956276
v 0.47855604 0.06069471 -0.83912373
v 0.47112226 0.06623217 -0.84976947
v 0.53188771 0.08893167 -0.83560961
v 0.53188771 0.10829242 -0.84677207
v 0.54945844 0.10829242 -0.83535123
v 0.56629705 0.10998216 -0.82429212
v 0.57632136 0.10998216 -0.81731558
v 0.59890431 0.10295855 -0.79912484
v 0.56297439 0.09731929 -0.82201827
v 0.54889530 0.09039747 -0.82568741
v 0.54151785 0.07907826 -0.82093304
v 0.41001892 0.04371589 -0.85524732
v 0.39019555 0.03294635 -0.85111308
v 0.38366282 0.03864667 -0.86170709
v 0.41001892 0.03600009 -0.84522176
v 0.43006760 0.04703429 -0.84904593
v 0.45355153 0.06307663 -0.85628086
v 0.46520907 0.05760025 -0.84294796
v 0.44814515 0.05532012 -0.84976947
v 0.43676925 0.04135432 -0.83819354
v 0.36609212 0.01788120 -0.84284461
v 0.37938279 0.02022241 -0.83969223
v 0.37166744 0.02508804 -0.84966612
v 0.35004193 0.01515319 -0.84646201
v 0.33782125 0.02069065 -0.85907149
v 0.33607545 0.02203430 -0.86155206
v 0.33607545 0.03819879 -0.88227499
v 0.33607545 0.04231117 -0.88733947
v 0.78998601 0.15497400 -0.57003570
v 0.72995263 0.15377286 -0.65003341
v 0.70996034 0.15405788 -0.67003286
v 0.68996799 0.15405788 -0.68998063
v 0.66997564 0.15387465 -0.70998007
v 0.64998329 0.15354893 -0.72997952
v 0.57001394 0.15448540 -0.78997785
v 0.51003695 0.15446505 -0.82997668
v 0.33607545 -0.05263995 -0.75473332
v 0.46577221 -0.05263995 -0.41836035
v 0.90408313 0.14389908 -0.41836035
v 0.89146817 0.14758393 -0.43107319
v 0.88600552 0.14526309 -0.45003906
v 0.87108165 0.14727856 -0.47050360
v 0.84996301 0.15246993 -0.49003792
v 0.82997066 0.15470934 -0.51003736
v 0.49004459 0.15210348 -0.84997618
v 0.50924850 0.14599599 -0.85023451
v 0.55002159 0.14491700 -0.82604921
v 0.56269282 0.14190397 -0.82181156
v 0.59856641 0.13665153 -0.79886645
v 0.60126960 0.11627287 -0.80088192
v 0.59113264 0.12999436 -0.80625647
v 0.60875964 0.12999436 -0.79318190
v 0.62295139 0.12999436 -0.78227782
v 0.63291943 0.12999436 -0.77416432
v 0.64491481 0.12999436 -0.76419044
v 0.64502746 0.10998216 -0.76429379
v 0.53002930 0.07582093 -0.82460219
v 0.51020586 0.06975415 -0.83008003
v 0.49004459 0.06364667 -0.83555794
v 0.47016490 0.04992517 -0.83002841
v 0.50271583 0.05867924 -0.82165653
v 0.49004459 0.05566621 -0.82558405
v 0.59135789 0.10975821 -0.80641150
v 0.60875964 0.10975821 -0.79333693
v 0.62300771 0.10998216 -0.78232944
v 0.62081140 0.09917190 -0.78057241
v 0.58555728 0.09510024 -0.80398262
v 0.55480850 0.08398461 -0.81633365
v 0.57029551 0.08954242 -0.81018400
v 0.53171879 0.06482744 -0.81039071
v 0.57767296 0.08176555 -0.79824632
v 0.56432599 0.07730708 -0.80300075
v 0.54889530 0.07400904 -0.80982226
v 0.42342225 0.03864667 -0.84175932
v 0.39002660 0.02219716 -0.83700496
v 0.41142684 0.02502697 -0.82976997
v 0.45000362 0.04422485 -0.83442104
v 0.43001127 0.02258397 -0.81638539
v 0.43006760 0.03325172 -0.83090693
v 0.45000362 0.03673299 -0.82439548
v 0.36085469 -0.00027840 -0.82036459
v 0.35004193 0.00515727 -0.83287072
v 0.37014690 0.00996182 -0.83002841
v 0.37420169 0.00206280 -0.81705719
v 0.39002660 0.01490889 -0.82703108
v 0.33607545 0.00293821 -0.83591968
v 0.33607545 0.01873625 -0.85721111
v 0.80997831 0.15354893 -0.55003625
v 0.76999366 0.15189990 -0.61003458
v 0.74994498 0.15314175 -0.63003403
v 0.73000896 0.14642352 -0.66992950
v 0.71012926 0.14666781 -0.69013566
v 0.69002432 0.14654566 -0.71013510
v 0.66969407 0.14617921 -0.72987616
v 0.62999094 0.15293817 -0.74997896
v 0.61005497 0.15155381 -0.76997840
v 0.55002159 0.15299925 -0.80997729
v 0.33607545 -0.04396731 -0.76822132
v 0.35004193 -0.04256259 -0.76388037
v 0.34778926 -0.05263995 -0.74915212
v 0.70466655 -0.05263995 -0.41836035
v 0.90802526 0.13734370 -0.41836035
v 0.90244991 0.14265722 -0.42513019
v 0.88223231 0.14241293 -0.46419886
v 0.86483055 0.14436732 -0.49003792
v 0.85030091 0.14619957 -0.50936556
v 0.83182907 0.14841864 -0.53184557
v 0.53171879 0.14817433 -0.83178544
v 0.56961972 0.14630136 -0.81023568
v 0.58521938 0.14334941 -0.80372423
v 0.62075508 0.14064175 -0.78057241
v 0.63291943 0.10998216 -0.77426767
v 0.64204270 0.14176145 -0.76176155
v 0.65488285 0.12999436 -0.75550854
v 0.66654032 0.10998216 -0.74574137
v 0.65505177 0.10998216 -0.75571525
v 0.64226794 0.09762467 -0.76186490
v 0.51600647 0.06201800 -0.81736726
v 0.47506443 0.04222973 -0.81695384
v 0.46171743 0.03925742 -0.82098472
v 0.49911153 0.04043820 -0.79938328
v 0.49145252 0.04481523 -0.81013232
v 0.52614343 0.05692843 -0.80403429
v 0.50964272 0.05363038 -0.81039071
v 0.62790728 0.09174111 -0.76827300
v 0.61005497 0.08439177 -0.77602476
v 0.61005497 0.09438770 -0.78481001
v 0.59276581 0.08754731 -0.79204494
v 0.53949046 0.06028754 -0.79958999
v 0.60003060 0.07999438 -0.77995229
v 0.55002159 0.06319878 -0.79592085
v 0.58668363 0.07582093 -0.78491336
v 0.56995761 0.06989666 -0.78992617
v 0.40568256 0.01782013 -0.82300019
v 0.41902956 0.02040563 -0.81943440
v 0.44409037 0.01828837 -0.80238056
v 0.43001127 0.01547892 -0.80635983
v 0.45045415 0.02606524 -0.80940878
v 0.36851373 -0.00471651 -0.81023568
v 0.35482883 -0.01827513 -0.79752284
v 0.34148183 -0.02047383 -0.80067521
v 0.35004193 -0.00204957 -0.82284510
v 0.33607545 -0.00426863 -0.82594585
v 0.39002660 0.00491297 -0.81302631
v 0.39002660 -0.00213100 -0.80305243
v 0.82642269 0.14532417 -0.55003625
v 0.81048518 0.14683068 -0.56998402
v 0.76914889 0.14459127 -0.62858701
v 0.74966341 0.14575168 -0.64941329
v 0.79156286 0.14827612 -0.59148210
v 0.72341996 0.14290152 -0.68357253
v 0.74279279 0.14255545 -0.66321135
v 0.70359653 0.14292189 -0.70357198
v 0.68343526 0.14273867 -0.72315800
v 0.66287977 0.14237222 -0.74258900
v 0.64925116 0.14552775 -0.74951386
v 0.62841409 0.14434697 -0.76904821
v 0.61005497 0.14373621 -0.78460330
v 0.59113264 0.14790967 -0.79132146
v 0.33607545 -0.03877594 -0.77623147
v 0.35004193 -0.03594614 -0.77390593
v 0.36198100 -0.04064891 -0.76098639
v 0.34947875 -0.05263995 -0.74832523
v 0.69740176 -0.05263995 -0.43107319
v 0.70950979 -0.04981014 -0.41836035
v 0.91106629 0.13027939 -0.41836035
v 0.89912724 0.13752693 -0.43846315
v 0.87845910 0.13522646 -0.47753182
v 0.86128259 0.14149681 -0.50223398
v 0.84382451 0.14361407 -0.52636766
v 0.67617047 0.12999436 -0.73649096
v 0.66620243 0.12999436 -0.74548298
v 0.66333032 0.09650496 -0.74289906
v 0.67650837 0.10998216 -0.73690438
v 0.64930749 0.09039747 -0.74935883
v 0.63500315 0.08428998 -0.75587028
v 0.48576456 0.03740481 -0.80362087
v 0.46903858 0.03467681 -0.81013232
v 0.45738107 0.02113853 -0.79834968
v 0.49483150 0.02236003 -0.77659321
v 0.49026987 0.02987224 -0.79013288
v 0.51003695 0.04302371 -0.79581749
v 0.51003695 0.03585758 -0.78579187
v 0.53098667 0.04949765 -0.79064965
v 0.53588617 0.04202615 -0.77716166
v 0.56224227 0.05878103 -0.78160596
v 0.55002159 0.05560514 -0.78589529
v 0.62171245 0.07879324 -0.76134813
v 0.61005497 0.07500660 -0.76599920
v 0.59789062 0.06122403 -0.75829911
v 0.59225893 0.06851230 -0.77168375
v 0.57558930 0.06248624 -0.77669656
v 0.40061408 -0.00019697 -0.80026180
v 0.40979367 0.01008398 -0.80987394
v 0.45045415 0.01307664 -0.79101139
v 0.43913454 0.00035271 -0.77948719
v 0.43147552 0.00458723 -0.78992617
v 0.41390479 0.00234782 -0.79659265
v 0.37003425 -0.01568963 -0.79375035
v 0.37003425 -0.02259110 -0.78377646
v 0.34891561 -0.02503409 -0.79049462
v 0.33607545 -0.03814483 -0.77716166
v 0.33607545 -0.02128816 -0.80186379
v 0.33607545 -0.01799012 -0.80656654
v 0.38901290 -0.01259517 -0.78847915
v 0.38163543 -0.02057563 -0.78083080
v 0.82214266 0.14227042 -0.56326586
v 0.80417770 0.14369550 -0.58579755
v 0.76194036 0.14190397 -0.64233339
v 0.78497380 0.14398052 -0.61003458
v 0.78075010 0.14082497 -0.62099034
v 0.73682326 0.12999436 -0.67659599
v 0.72679895 0.12999436 -0.68719000
v 0.71722513 0.12999436 -0.69716388
v 0.74589020 0.12999436 -0.66662210
v 0.70720083 0.12999436 -0.70713776
v 0.69700754 0.12999436 -0.71716332
v 0.68703949 0.12999436 -0.72651708
v 0.36918953 -0.03309598 -0.76858306
v 0.37527168 -0.03836878 -0.75747228
v 0.36918953 -0.04492415 -0.75049573
v 0.36980900 -0.05263995 -0.73788625
v 0.69008058 -0.05263995 -0.44306248
v 0.70365286 -0.04221649 -0.45003906
v 0.71069241 -0.04527024 -0.42978123
v 0.72156149 -0.04099500 -0.42290804
v 0.72274417 -0.04174826 -0.41836035
v 0.90487152 0.13052368 -0.43107319
v 0.91123527 0.11841049 -0.41836035
v 0.90115464 0.12419225 -0.44228733
v 0.89541036 0.13052368 -0.44936723
v 0.88420337 0.12913932 -0.47050360
v 0.88048649 0.12189176 -0.48089090
v 0.87384117 0.12913932 -0.48853928
v 0.86342263 0.12999436 -0.50569642
v 0.83976972 0.13937953 -0.53970063
v 0.65634704 0.08317028 -0.73680103
v 0.68399841 0.09577206 -0.72367477
v 0.67025721 0.08948135 -0.73023790
v 0.68743372 0.10998216 -0.72687882
v 0.64300007 0.07781604 -0.74253732
v 0.48148450 0.01936736 -0.78088248
v 0.47005227 0.02390726 -0.79447383
v 0.47005227 0.01690401 -0.78444827
v 0.48891827 0.01515319 -0.76992673
v 0.51099432 0.02516948 -0.76992673
v 0.51831543 0.02081280 -0.75881594
v 0.50496846 0.01775905 -0.76326025
v 0.52253920 0.03878918 -0.78165764
v 0.55126059 0.04489667 -0.77028847
v 0.54540366 0.03732338 -0.76382869
v 0.52952242 0.03414749 -0.77028847
v 0.55875069 0.04066214 -0.75902265
v 0.58454359 0.05751882 -0.76336360
v 0.56939447 0.05418006 -0.77003008
v 0.62897724 0.07413119 -0.74951386
v 0.61174446 0.06417598 -0.75096083
v 0.58933049 0.05033234 -0.74946219
v 0.61957240 0.06026719 -0.73959166
v 0.60622543 0.05646018 -0.74496615
v 0.40838575 -0.00437042 -0.78992617
v 0.39498246 -0.01815299 -0.77726501
v 0.45000362 0.00263284 -0.77607644
v 0.45000362 -0.00412612 -0.76610255
v 0.43361551 -0.01750152 -0.75623202
v 0.42026854 -0.02008703 -0.76010787
v 0.41001892 -0.02206178 -0.76305354
v 0.41001892 -0.01530282 -0.77302742
v 0.42584386 -0.00223280 -0.78325969
v 0.38901290 -0.02495266 -0.77034014
v 0.79922187 0.13795446 -0.59913045
v 0.76453096 0.12999436 -0.64538240
v 0.75591451 0.12999436 -0.65540797
v 0.78266484 0.12999436 -0.62341923
v 0.77449894 0.12999436 -0.63339311
v 0.73693591 0.10998216 -0.67669934
v 0.72691154 0.10998216 -0.68734503
v 0.71745038 0.10998216 -0.69737059
v 0.70748240 0.10998216 -0.70749950
v 0.69745809 0.10998216 -0.71752506
v 0.74600285 0.10998216 -0.66672546
v 0.39002660 -0.03576291 -0.75349307
v 0.39002660 -0.04225721 -0.74351919
v 0.38726711 -0.05263995 -0.72832584
v 0.68563163 -0.05263995 -0.45003906
v 0.68996799 -0.05017659 -0.45003906
v 0.70038652 -0.04022139 -0.46063307
v 0.71367717 -0.03612936 -0.45003906
v 0.71784461 -0.03865380 -0.43624097
v 0.72893894 -0.03399175 -0.42978123
v 0.74543965 -0.02348686 -0.43003961
v 0.74893129 -0.02517660 -0.41836035
v 0.73243058 -0.03562041 -0.41836035
v 0.91134793 0.10943248 -0.41836035
v 0.90115464 0.11509209 -0.44228733
v 0.88048649 0.11784046 -0.48089090
v 0.84162819 0.12604485 -0.54264629
v 0.84680927 0.13162303 -0.53184557
v 0.83554602 0.13162303 -0.54957116
v 0.82462060 0.12999436 -0.56698668
v 0.81780630 0.12999436 -0.57701224
v 0.67718416 0.08243737 -0.71737003
v 0.66383713 0.07716458 -0.72346807
v 0.70399076 0.09560920 -0.70403707
v 0.69070011 0.08901311 -0.71070355
v 0.64851910 0.07083315 -0.72873926
v 0.62999094 0.06356523 -0.73519903
v 0.47652864 0.00149277 -0.75778234
v 0.46993965 0.00641948 -0.76920325
v 0.49004459 0.00442437 -0.75338972
v 0.50924850 0.01036899 -0.74941051
v 0.53002930 0.02360189 -0.75468165
v 0.54112363 0.01946915 -0.74078023
v 0.53002930 0.01684293 -0.74470776
v 0.50012523 -0.00005446 -0.74005675
v 0.54990900 0.03005547 -0.74992728
v 0.55447060 0.02278756 -0.73581916
v 0.57001394 0.04365481 -0.75473332
v 0.58082670 0.03958315 -0.74062520
v 0.57001394 0.03677371 -0.74470776
v 0.59417373 0.04314586 -0.73530239
v 0.64074743 0.05951393 -0.72067744
v 0.62999094 0.05639911 -0.72522515
v 0.61101234 0.04943657 -0.73080635
v 0.46323797 -0.00133703 -0.76196826
v 0.44459724 -0.02189891 -0.74289906
v 0.42820913 -0.02389403 -0.74972057
v 0.40855470 -0.03234272 -0.74827361
v 0.40095198 -0.04032318 -0.74052185
v 0.79370284 0.13076797 -0.60910434
v 0.80704987 0.13076797 -0.59148210
v 0.80130559 0.12461977 -0.60181773
v 0.76464355 0.10998216 -0.64548576
v 0.75602716 0.10998216 -0.65551132
v 0.74296176 0.09660675 -0.66336638
v 0.72358888 0.09599601 -0.68383092
v 0.76205301 0.09754324 -0.64248842
v 0.38799921 -0.05263995 -0.72791237
v 0.68940479 -0.04339728 -0.46838480
v 0.67752206 -0.05263995 -0.46171832
v 0.72026622 -0.02018882 -0.48047748
v 0.72364521 -0.02226536 -0.47003847
v 0.69571227 -0.03755445 -0.47396603
v 0.73783696 -0.01866195 -0.45649880
v 0.73068476 -0.02560412 -0.44988400
v 0.74177909 -0.02114566 -0.44316587
v 0.75540769 -0.01703328 -0.43003961
v 0.75856137 -0.01906911 -0.41836035
v 0.90391415 0.09353265 -0.41836035
v 0.90273154 0.09634209 -0.42569864
v 0.89946514 0.10175741 -0.43903160
v 0.90504050 0.10904567 -0.43143493
v 0.89580458 0.10904567 -0.44936723
v 0.87874067 0.10452613 -0.47789359
v 0.87406647 0.11071505 -0.48853928
v 0.86353528 0.10998216 -0.50585145
v 0.84162819 0.11376880 -0.54264629
v 0.88437235 0.11071505 -0.47076198
v 0.69745809 0.08227451 -0.69742227
v 0.68411106 0.07687956 -0.70403707
v 0.65409440 0.06382989 -0.71457946
v 0.66924351 0.07036491 -0.70930827
v 0.71057981 0.08913526 -0.69060075
v 0.49004459 -0.00223280 -0.74336416
v 0.46993965 -0.00601944 -0.75065076
v 0.54867005 0.01574358 -0.72946274
v 0.53628039 0.00175743 -0.71716332
v 0.52974772 0.00652127 -0.72920436
v 0.51347226 0.00299929 -0.73535407
v 0.49466255 -0.01766439 -0.71623313
v 0.48880565 -0.01239159 -0.72848088
v 0.47005227 -0.01650397 -0.73457885
v 0.50812221 -0.00343394 -0.72920436
v 0.56995761 0.02649277 -0.72946274
v 0.56319964 0.01836981 -0.72248620
v 0.58848572 0.03602045 -0.72920436
v 0.60245222 0.03866703 -0.72196943
v 0.66130292 0.05914748 -0.70124650
v 0.64846277 0.05627696 -0.70873982
v 0.63680524 0.04182257 -0.69711220
v 0.63004726 0.04621996 -0.70977336
v 0.61579925 0.04237224 -0.71633649
v 0.45788792 -0.01908947 -0.73855811
v 0.47005227 -0.02291683 -0.72455329
v 0.45073572 -0.02682562 -0.73111641
v 0.43862769 -0.03944777 -0.71907544
v 0.43119392 -0.03549826 -0.72992784
v 0.41424268 -0.03781910 -0.73654264
v 0.42528069 -0.04197220 -0.72320968
v 0.40855470 -0.04404874 -0.72992784
v 0.80130559 0.11501066 -0.60181773
v 0.77461159 0.10998216 -0.63354814
v 0.78086269 0.09886652 -0.62114537
v 0.73659801 0.08327207 -0.65618312
v 0.73006529 0.08962385 -0.67018789
v 0.71716881 0.08266132 -0.67700940
v 0.76836050 0.09153754 -0.62807024
v 0.75574559 0.08420855 -0.63499510
v 0.41030052 -0.05263995 -0.71468282
v 0.67217195 -0.05263995 -0.46941835
v 0.68242157 -0.04138181 -0.48331976
v 0.73000896 -0.01000967 -0.49008960
v 0.74403179 -0.00266032 -0.48631710
v 0.73361319 -0.01599500 -0.47003847
v 0.70939714 -0.02348686 -0.48828089
v 0.70235759 -0.02141032 -0.50331920
v 0.71564829 -0.01735901 -0.49381042
v 0.68940479 -0.03454142 -0.49003792
v 0.75039554 -0.00538833 -0.46947002
v 0.76143354 -0.00097058 -0.46244180
v 0.74904394 -0.01387774 -0.44988400
v 0.76492518 -0.00335250 -0.45003906
v 0.77106369 -0.00642661 -0.43029800
v 0.78193271 -0.00133703 -0.42378655
v 0.78328431 -0.00227351 -0.41836035
v 0.89659297 0.08459535 -0.41836035
v 0.89439666 0.08980708 -0.43143493
v 0.88555497 0.08999030 -0.44874710
v 0.88251388 0.09666783 -0.46456063
v 0.86145157 0.09801148 -0.50244069
v 0.83982605 0.10043411 -0.53980398
v 0.85734046 0.10998216 -0.51582533
v 0.84686559 0.10825171 -0.53189719
v 0.83560228 0.10825171 -0.54957116
v 0.82462060 0.10998216 -0.56698668
v 0.81786263 0.10998216 -0.57701224
v 0.70382184 0.07696100 -0.68408936
v 0.68946111 0.07024276 -0.68941218
v 0.67464989 0.06354487 -0.69478673
v 0.55097902 0.00458723 -0.71029013
v 0.54495311 -0.00237530 -0.70383036
v 0.52974772 -0.00549012 -0.71029013
v 0.51043117 -0.01467172 -0.70972168
v 0.52293342 -0.00131667 -0.72202110
v 0.50401109 -0.02177677 -0.70290017
v 0.48880565 -0.02415869 -0.70972168
v 0.48131555 -0.02053491 -0.72083247
v 0.57654667 0.02181036 -0.71716332
v 0.55830014 0.00086167 -0.69855922
v 0.56995761 0.01407420 -0.71029013
v 0.60949177 0.03465644 -0.70977336
v 0.59805954 0.02103674 -0.69830084
v 0.59085101 0.02490482 -0.71029013
v 0.65730447 0.04161898 -0.67737120
v 0.65037751 0.04554813 -0.69023901
v 0.68140787 0.05904569 -0.68150544
v 0.66879296 0.05586980 -0.68884373
v 0.64395744 0.03766947 -0.68377924
v 0.61895293 0.02058886 -0.67902488
v 0.62351459 0.03805628 -0.70300353
v 0.43051812 -0.05263995 -0.70202166
v 0.43119392 -0.04683783 -0.71142709
v 0.45000362 -0.03708620 -0.71519959
v 0.46177375 -0.04070998 -0.70119482
v 0.45000362 -0.04313262 -0.70522571
v 0.41745269 -0.05263995 -0.71029013
v 0.80710620 0.10900496 -0.59158546
v 0.79944712 0.10167597 -0.59928548
v 0.79392815 0.10900496 -0.60910434
v 0.78277749 0.10998216 -0.62352258
v 0.80429035 0.09497809 -0.58595252
v 0.78525543 0.09416376 -0.61003458
v 0.77596319 0.08416783 -0.61003458
v 0.74239856 0.07795855 -0.64285016
v 0.72325099 0.07734780 -0.66362476
v 0.76132089 0.07883395 -0.62166214
v 0.66935617 -0.05263995 -0.47334588
v 0.67048252 -0.04522952 -0.49003792
v 0.67746574 -0.03857236 -0.49665272
v 0.72612315 -0.00386146 -0.51003736
v 0.73975170 0.00016948 -0.49965006
v 0.75039554 0.00389505 -0.49179500
v 0.75737876 0.00173707 -0.47577477
v 0.70939714 -0.01420347 -0.50998569
v 0.69041848 -0.02542090 -0.50998569
v 0.69740176 -0.01851944 -0.51665217
v 0.77494949 0.00350824 -0.45003906
v 0.78041220 0.01971345 -0.48068419
v 0.78350961 0.01751475 -0.47003847
v 0.79764503 0.02166785 -0.45582700
v 0.77844107 0.00104489 -0.43711951
v 0.78914124 0.00601232 -0.43029800
v 0.79280180 0.00434294 -0.41836035
v 0.88718820 0.07514910 -0.41836035
v 0.88341498 0.07681848 -0.43003961
v 0.88059914 0.07938363 -0.44120210
v 0.87693858 0.08333314 -0.45453507
v 0.86511213 0.09359372 -0.49003792
v 0.85987467 0.08009617 -0.47985733
v 0.85683358 0.08359779 -0.49003792
v 0.83841813 0.08164340 -0.51753068
v 0.84399343 0.09497809 -0.52647102
v 0.82214266 0.09723786 -0.56326586
v 0.70911556 0.07048705 -0.66910267
v 0.69475490 0.06362630 -0.67458057
v 0.53932148 -0.01967986 -0.67948997
v 0.53160614 -0.01650397 -0.69075578
v 0.51735806 -0.01878409 -0.69793910
v 0.55097902 -0.00711879 -0.69111758
v 0.49764732 -0.03897953 -0.67824972
v 0.49060777 -0.03521324 -0.68987727
v 0.47512072 -0.03794125 -0.69644040
v 0.51043117 -0.02609272 -0.69075578
v 0.46909487 -0.03309598 -0.70868814
v 0.58476889 0.01757583 -0.70383036
v 0.57181609 0.00318251 -0.69111758
v 0.57964408 0.00021020 -0.67969668
v 0.56629705 -0.00312856 -0.68522626
v 0.59085101 0.01283235 -0.69096255
v 0.61140656 0.02380547 -0.69096255
v 0.60566229 0.01698544 -0.68496788
v 0.67036986 0.04536491 -0.67044628
v 0.66400611 0.03756768 -0.66403824
v 0.65037751 0.03335351 -0.67044628
v 0.67735308 0.04161898 -0.65732008
v 0.70106232 0.05922891 -0.66124761
v 0.68884164 0.05593087 -0.66874093
v 0.63933951 0.02034456 -0.65943885
v 0.63162416 0.02315401 -0.67142820
v 0.62604880 0.01670042 -0.66569191
v 0.60971707 0.01016541 -0.66972280
v 0.44724411 -0.05263995 -0.69075578
v 0.46909487 -0.04425233 -0.68987727
v 0.44898993 -0.05263995 -0.68956721
v 0.81031621 0.08944063 -0.57050079
v 0.79826450 0.08164340 -0.57768404
v 0.79218233 0.08748624 -0.59298080
v 0.77996165 0.07999438 -0.60000902
v 0.74943817 0.07427370 -0.62900043
v 0.73496479 0.06372809 -0.63003403
v 0.72848845 0.07099601 -0.64837974
v 0.71440929 0.06401312 -0.65385765
v 0.76599514 0.07508803 -0.61003458
v 0.75095868 0.06427777 -0.61168826
v 0.73952645 0.06032826 -0.61949170
v 0.65634704 -0.05263995 -0.49050301
v 0.66411871 -0.04229793 -0.50538635
v 0.67048252 -0.03621080 -0.51122594
v 0.72173047 -0.00109273 -0.52244014
v 0.73609114 0.00246997 -0.51003736
v 0.74448228 0.01702616 -0.53003681
v 0.75118393 0.01273055 -0.51081252
v 0.76295412 0.01794228 -0.50466287
v 0.76976836 0.01564179 -0.48843592
v 0.71007293 -0.00506260 -0.52946836
v 0.68411106 -0.02234679 -0.52528244
v 0.69041848 -0.01601537 -0.53117371
v 0.70348394 -0.00215136 -0.54461002
v 0.79054916 0.01423707 -0.44952226
v 0.80130559 0.01906199 -0.44249403
v 0.78970438 0.03017762 -0.48962450
v 0.80305141 0.03777126 -0.48518020
v 0.79353392 0.02457909 -0.47003847
v 0.77630109 0.02260433 -0.49401715
v 0.80980939 0.03555221 -0.46828145
v 0.82022792 0.03982745 -0.46047804
v 0.80879569 0.02720531 -0.44952226
v 0.80457193 0.01674114 -0.43003961
v 0.80169982 0.01061329 -0.41836035
v 0.87406647 0.06376881 -0.41836035
v 0.86973006 0.06566214 -0.43148661
v 0.85649568 0.06281197 -0.45003906
v 0.87012428 0.07388689 -0.44874710
v 0.86359155 0.07671669 -0.46652436
v 0.85114563 0.06887875 -0.47210562
v 0.83864337 0.06104080 -0.47773853
v 0.84680927 0.07402940 -0.49003792
v 0.84252924 0.07765318 -0.50419772
v 0.82569063 0.09033640 -0.54879594
v 0.83543336 0.08897239 -0.53189719
v 0.82079107 0.07920040 -0.54130262
v 0.81634206 0.08390318 -0.55463558
v 0.55002159 -0.01709435 -0.67494231
v 0.56049645 -0.02022953 -0.66047245
v 0.55002159 -0.02273361 -0.66491675
v 0.53002930 -0.03737123 -0.65520126
v 0.53160614 -0.02753817 -0.67168659
v 0.51172644 -0.03688262 -0.67096311
v 0.52603078 -0.02271324 -0.68460613
v 0.49060777 -0.04598279 -0.67096311
v 0.48435664 -0.04180934 -0.68310744
v 0.50615108 -0.04268474 -0.66491675
v 0.57007027 -0.01003002 -0.67008454
v 0.59000629 0.00287714 -0.67504567
v 0.60042483 -0.00021732 -0.66042078
v 0.59000629 -0.00286390 -0.66507179
v 0.65933186 0.02036492 -0.63938773
v 0.65161645 0.02297078 -0.65168715
v 0.67036986 0.03337387 -0.65039521
v 0.69019324 0.04562957 -0.65039521
v 0.69706386 0.04186329 -0.63680387
v 0.68371683 0.03768983 -0.64398712
v 0.72043514 0.05967680 -0.64052469
v 0.70866501 0.05646018 -0.64832807
v 0.64604115 0.01659863 -0.64610589
v 0.62999094 0.00998218 -0.65008509
v 0.61377186 0.00336574 -0.65401268
v 0.46999595 -0.05263995 -0.67432219
v 0.45022887 -0.05263995 -0.68868870
v 0.78491747 0.07586165 -0.58667606
v 0.80299509 0.07734780 -0.56435108
v 0.77162683 0.06857337 -0.59225726
v 0.75822353 0.06128510 -0.59778684
v 0.74493283 0.05646018 -0.60615873
v 0.73074108 0.04943657 -0.61096478
v 0.71632409 0.04241296 -0.61577082
v 0.72494048 0.05654162 -0.63003403
v 0.65054649 -0.05263995 -0.49794468
v 0.65133488 -0.04661389 -0.51122594
v 0.65888131 -0.03940705 -0.51871932
v 0.72905159 0.00678593 -0.52946836
v 0.71683091 0.00196102 -0.53577310
v 0.74065280 0.01955058 -0.54094088
v 0.75445032 0.02372404 -0.53003681
v 0.75861770 0.02091459 -0.51799583
v 0.76976836 0.02549521 -0.51081252
v 0.67127091 -0.02692741 -0.53117371
v 0.67887366 -0.01935413 -0.53861535
v 0.71007293 0.00491297 -0.55075973
v 0.69092536 -0.00663019 -0.55075973
v 0.69824648 0.00102453 -0.55794299
v 0.81453997 0.02392762 -0.43003961
v 0.83717918 0.04202615 -0.43469065
v 0.79905295 0.04068250 -0.49851316
v 0.81639838 0.04265726 -0.47381100
v 0.82310003 0.03777126 -0.45003906
v 0.84247291 0.05806849 -0.46440560
v 0.84647137 0.05507582 -0.45003906
v 0.83306807 0.04507989 -0.45003906
v 0.84061444 0.03952208 -0.42135769
v 0.81752473 0.02179000 -0.41836035
v 0.86471790 0.05637875 -0.41836035
v 0.86291575 0.05774276 -0.42575032
v 0.85948050 0.06036898 -0.43908328
v 0.83498281 0.06403347 -0.49003792
v 0.82495850 0.05621589 -0.49003792
v 0.82129788 0.05898461 -0.50213063
v 0.82985801 0.06995773 -0.50983065
v 0.82445163 0.07608558 -0.53003681
v 0.81025988 0.06511246 -0.53153551
v 0.80975306 0.07417191 -0.54879594
v 0.56832445 -0.02279468 -0.64868981
v 0.54850107 -0.03248523 -0.64843142
v 0.57384348 -0.01693149 -0.65442610
v 0.58122092 -0.02057563 -0.64109313
v 0.54078573 -0.04034353 -0.64067972
v 0.53002930 -0.04276617 -0.64522737
v 0.51949811 -0.03975315 -0.65959388
v 0.49111462 -0.05263995 -0.65830195
v 0.47579652 -0.05263995 -0.67003286
v 0.51172644 -0.04734679 -0.65179050
v 0.50012523 -0.05263995 -0.65117037
v 0.62069875 -0.00035983 -0.64067972
v 0.60825282 -0.00268068 -0.64843142
v 0.59456789 -0.01723687 -0.63478839
v 0.58871102 -0.01263589 -0.64868981
v 0.67132723 0.02319472 -0.63163602
v 0.67892992 0.02062958 -0.61887151
v 0.66558295 0.01672078 -0.62605476
v 0.64998329 0.01000254 -0.63003403
v 0.69019324 0.03382175 -0.63008571
v 0.70979136 0.04638283 -0.63008571
v 0.70297706 0.03805628 -0.62347090
v 0.63398945 0.00326395 -0.63396156
v 0.77669531 0.06252696 -0.57546186
v 0.78987336 0.06993738 -0.56993234
v 0.79573023 0.06332093 -0.55003625
v 0.76334828 0.05751882 -0.58445388
v 0.74943817 0.05033234 -0.58936334
v 0.73530269 0.04314586 -0.59427273
v 0.72195572 0.03870775 -0.60243785
v 0.70979136 0.03471752 -0.60946608
v 0.63956475 -0.05263995 -0.51143265
v 0.63139886 -0.05263995 -0.52125156
v 0.63196206 -0.04767253 -0.53200054
v 0.64553428 -0.04292904 -0.52662605
v 0.66411871 -0.02232644 -0.55003625
v 0.65133488 -0.03749337 -0.53200054
v 0.72938949 0.01602860 -0.54858923
v 0.73564059 0.02280791 -0.55427384
v 0.74983239 0.03009618 -0.54982954
v 0.76368618 0.03738446 -0.54533350
v 0.77021891 0.03435107 -0.52936500
v 0.78142589 0.03897240 -0.52223343
v 0.78536803 0.03618332 -0.51003736
v 0.66000766 -0.02000559 -0.56006181
v 0.67414308 -0.01666683 -0.55003625
v 0.72229362 0.01853267 -0.56300747
v 0.68489951 -0.00288426 -0.56590146
v 0.67932415 0.00039342 -0.57923436
v 0.69092536 0.00346753 -0.57153434
v 0.70370919 0.01769798 -0.58455724
v 0.71018559 0.01433886 -0.56982899
v 0.85007560 0.04990481 -0.43024632
v 0.79533601 0.04336980 -0.51003736
v 0.81025988 0.05405790 -0.50931388
v 0.80980939 0.04540563 -0.49112317
v 0.85204673 0.04693250 -0.41836035
v 0.84134656 0.03899276 -0.41836035
v 0.81713051 0.06224194 -0.51546359
v 0.80378354 0.05711165 -0.52590257
v 0.79944712 0.06038934 -0.53923553
v 0.55413270 -0.03716764 -0.63463336
v 0.57474452 -0.03741194 -0.61494398
v 0.56139755 -0.04066927 -0.62130040
v 0.58871102 -0.02324256 -0.62889707
v 0.54850107 -0.04288832 -0.62879372
v 0.52800190 -0.05263995 -0.62796688
v 0.51082540 -0.05263995 -0.64243674
v 0.64057845 -0.00031912 -0.62062860
v 0.62835777 -0.00276211 -0.62838030
v 0.60887229 -0.01290055 -0.62889707
v 0.60149485 -0.02073849 -0.62145543
v 0.69086903 0.02388690 -0.61132652
v 0.69813389 0.02113853 -0.59789020
v 0.68478686 0.01712795 -0.60553855
v 0.66017658 -0.00009517 -0.60021573
v 0.65392548 0.00338610 -0.61354870
v 0.78148222 0.05886246 -0.56212890
v 0.76999366 0.05422077 -0.56931221
v 0.75478822 0.04365481 -0.57003570
v 0.74065280 0.03954244 -0.58093977
v 0.72916424 0.03604081 -0.58853644
v 0.71018559 0.02500661 -0.59075862
v 0.62323302 -0.05263995 -0.53096700
v 0.63990265 -0.03997708 -0.53995901
v 0.60791492 -0.05263995 -0.54864097
v 0.62554199 -0.04288832 -0.55003625
v 0.64998329 -0.03000152 -0.55003625
v 0.74476385 0.03675335 -0.57003570
v 0.72938949 0.02651312 -0.56982899
v 0.75901192 0.04068250 -0.55866647
v 0.77021891 0.04501882 -0.55122483
v 0.77703321 0.04214830 -0.53556639
v 0.64069110 -0.02037204 -0.58083642
v 0.65403807 -0.01676862 -0.57339478
v 0.66462559 -0.00263996 -0.59003514
v 0.62081140 -0.04038425 -0.56088865
v 0.62841409 -0.03272953 -0.56853700
v 0.71705616 0.02185107 -0.57634044
v 0.67459357 0.00314179 -0.59003514
v 0.69086903 0.01311736 -0.59075862
v 0.78570592 0.05574764 -0.55003625
v 0.58899260 -0.03338099 -0.60900098
v 0.58161515 -0.04079141 -0.60161102
v 0.56883132 -0.04327513 -0.60900098
v 0.54855740 -0.05263995 -0.60941446
v 0.64835012 -0.00251781 -0.60817415
v 0.62126189 -0.02065706 -0.60130095
v 0.61478555 -0.01723687 -0.61463392
v 0.60887229 -0.02332400 -0.60879427
v 0.59496212 -0.03747302 -0.59489286
v 0.64840645 -0.01237123 -0.58848476
v 0.63455260 -0.01709435 -0.59416938
v 0.63550997 -0.03765624 -0.55003625
v 0.60143852 -0.04073034 -0.58155990
v 0.60887229 -0.04296976 -0.56853700
v 0.58955574 -0.05263995 -0.56853700
v 0.61478555 -0.03724907 -0.57422161
v 0.60887229 -0.03321813 -0.58894986
v 0.56995761 -0.05263995 -0.58869147
v 0.56866235 -0.05263995 -0.58998346
v 0.58899260 -0.04331584 -0.58894986
v 0.58854204 -0.05263995 -0.56962228
f 1 2 3
f 1 3 4
f 1 4 5
f 1 5 6
f 1 6 18
f 1 18 17
f 1 17 44
f 1 44 75
f 1 75 73
f 1 73 72
f 1 72 116
f 1 116 115
f 1 115 169
f 1 169 168
f 1 168 167
f 1 167 228
f 1 228 227
f 1 227 284
f 1 284 345
f 1 345 344
f 1 344 343
f 1 343 301
f 1 301 239
f 1 239 178
f 1 178 122
f 1 122 77
f 1 77 45
f 1 45 19
f 1 19 7
f 1 7 2
f 2 7 8
f 2 8 3
f 3 8 9
f 3 9 10
f 3 10 4
f 4 10 11
f 4 11 5
f 5 11 12
f 5 12 13
f 5 13 14
f 5 14 15
f 5 15 16
f 5 16 17
f 5 17 18
f 5 18 6
f 7 19 20
f 7 20 21
f 7 21 8
f 8 21 22
f 8 22 23
f 8 23 24
f 8 24 9
f 9 24 10
f 10 25 11
f 10 24 26
f 10 26 23
f 10 23 27
f 10 27 28
f 10 28 29
f 10 29 52
f 10 52 25
f 11 25 12
f 12 25 30
f 12 30 13
f 13 30 25
f 13 25 31
f 13 31 32
f 13 32 33
f 13 33 34
f 13 34 14
f 14 34 35
f 14 35 36
f 14 36 37
f 14 37 15
f 15 37 16
f 16 37 38
f 16 38 39
f 16 39 40
f 16 40 41
f 16 41 42
f 16 42 43
f 16 43 44
f 16 44 17
f 19 45 46
f 19 46 47
f 19 47 21
f 19 21 20
f 21 47 48
f 21 48 49
f 21 49 22
f 22 49 50
f 22 50 23
f 23 26 24
f 23 50 51
f 23 51 27
f 25 52 31
f 27 51 28
f 28 51 29
f 29 53 54
f 29 54 55
f 29 55 86
f 29 86 52
f 29 51 53
f 31 52 32
f 32 52 33
f 33 52 56
f 33 56 57
f 33 57 58
f 33 58 59
f 33 59 34
f 34 59 60
f 34 60 61
f 34 61 62
f 34 62 35
f 35 62 36
f 36 38 37
f 36 62 38
f 38 63 64
f 38 64 39
f 38 62 65
f 38 65 66
f 38 66 67
f 38 67 63
f 39 64 68
f 39 68 40
f 40 68 41
f 41 69 70
f 41 70 71
f 41 71 72
f 41 72 73
f 41 73 42
f 41 68 74
f 41 74 69
f 42 73 43
f 43 73 75
f 43 75 44
f 45 76 46
f 45 77 78
f 45 78 79
f 45 79 76
f 46 76 80
f 46 80 47
f 47 80 49
f 47 49 48
f 49 80 81
f 49 81 82
f 49 82 50
f 50 82 83
f 50 83 51
f 51 83 84
f 51 84 85
f 51 85 54
f 51 54 53
f 52 86 87
f 52 87 56
f 54 85 55
f 55 85 88
f 55 88 89
f 55 89 90
f 55 90 133
f 55 133 86
f 56 87 57
f 57 87 86
f 57 86 91
f 57 91 92
f 57 92 58
f 58 93 94
f 58 94 95
f 58 95 59
f 58 92 96
f 58 96 97
f 58 97 98
f 58 98 93
f 59 95 99
f 59 99 100
f 59 100 60
f 60 100 61
f 61 100 65
f 61 65 62
f 63 101 102
f 63 102 103
f 63 103 104
f 63 104 68
f 63 68 64
f 63 67 105
f 63 105 101
f 65 100 94
f 65 94 106
f 65 106 107
f 65 107 108
f 65 108 109
f 65 109 66
f 66 109 67
f 67 109 108
f 67 108 105
f 68 104 74
f 69 74 110
f 69 110 111
f 69 111 112
f 69 112 113
f 69 113 114
f 69 114 70
f 70 114 71
f 71 114 115
f 71 115 116
f 71 116 72
f 74 104 110
f 76 117 80
f 76 79 118
f 76 118 119
f 76 119 120
f 76 120 121
f 76 121 117
f 77 122 123
f 77 123 78
f 78 123 179
f 78 179 242
f 78 242 306
f 78 306 368
f 78 368 434
f 78 434 433
f 78 433 489
f 78 489 556
f 78 556 624
f 78 624 700
f 78 700 772
f 78 772 840
f 78 840 839
f 78 839 773
f 78 773 701
f 78 701 625
f 78 625 557
f 78 557 490
f 78 490 435
f 78 435 370
f 78 370 307
f 78 307 243
f 78 243 180
f 78 180 124
f 78 124 79
f 79 124 125
f 79 125 126
f 79 126 118
f 80 117 127
f 80 127 128
f 80 128 81
f 81 128 82
f 82 128 129
f 82 129 130
f 82 130 83
f 83 130 84
f 84 130 131
f 84 131 132
f 84 132 88
f 84 88 85
f 86 133 134
f 86 134 92
f 86 92 91
f 88 132 89
f 89 132 135
f 89 135 90
f 90 135 132
f 90 132 136
f 90 136 137
f 90 137 138
f 90 138 139
f 90 139 191
f 90 191 133
f 92 134 96
f 93 98 94
f 94 98 140
f 94 140 141
f 94 141 142
f 94 142 143
f 94 143 106
f 94 100 99
f 94 99 95
f 96 144 97
f 96 134 145
f 96 145 133
f 96 133 146
f 96 146 147
f 96 147 148
f 96 148 149
f 96 149 150
f 96 150 151
f 96 151 144
f 97 144 98
f 98 144 152
f 98 152 140
f 101 105 153
f 101 153 102
f 102 154 155
f 102 155 103
f 102 153 156
f 102 156 154
f 103 155 110
f 103 110 104
f 105 157 153
f 105 108 157
f 106 158 107
f 106 143 158
f 107 158 108
f 108 158 142
f 108 142 159
f 108 159 160
f 108 160 161
f 108 161 157
f 110 155 111
f 111 162 112
f 111 155 163
f 111 163 164
f 111 164 162
f 112 165 166
f 112 166 113
f 112 162 165
f 113 166 167
f 113 167 114
f 114 167 168
f 114 168 169
f 114 169 115
f 117 121 127
f 118 126 185
f 118 185 170
f 118 170 119
f 119 170 171
f 119 171 172
f 119 172 173
f 119 173 120
f 120 173 174
f 120 174 175
f 120 175 236
f 120 236 176
f 120 176 177
f 120 177 121
f 121 177 127
f 122 178 241
f 122 241 304
f 122 304 363
f 122 363 425
f 122 425 479
f 122 479 540
f 122 540 597
f 122 597 592
f 122 592 663
f 122 663 665
f 122 665 740
f 122 740 739
f 122 739 791
f 122 791 790
f 122 790 793
f 122 793 850
f 122 850 849
f 122 849 888
f 122 888 903
f 122 903 902
f 122 902 905
f 122 905 899
f 122 899 868
f 122 868 866
f 122 866 815
f 122 815 814
f 122 814 749
f 122 749 677
f 122 677 608
f 122 608 541
f 122 541 481
f 122 481 426
f 122 426 364
f 122 364 305
f 122 305 242
f 122 242 179
f 122 179 123
f 124 180 181
f 124 181 125
f 125 181 182
f 125 182 183
f 125 183 184
f 125 184 185
f 125 185 126
f 127 177 128
f 128 177 186
f 128 186 129
f 129 186 187
f 129 187 130
f 130 187 131
f 131 187 188
f 131 188 189
f 131 189 132
f 132 189 190
f 132 190 138
f 132 138 137
f 132 137 136
f 133 191 147
f 133 147 146
f 133 145 134
f 138 190 192
f 138 192 139
f 139 192 190
f 139 190 193
f 139 193 194
f 139 194 195
f 139 195 196
f 139 196 197
f 139 197 191
f 140 152 198
f 140 198 199
f 140 199 200
f 140 200 141
f 141 200 142
f 142 201 159
f 142 158 143
f 142 200 202
f 142 202 203
f 142 203 201
f 144 151 152
f 147 191 148
f 148 191 204
f 148 204 149
f 149 191 205
f 149 205 206
f 149 206 207
f 149 207 208
f 149 208 150
f 149 204 191
f 150 209 151
f 150 208 210
f 150 210 209
f 151 209 152
f 152 211 198
f 152 209 212
f 152 212 213
f 152 213 214
f 152 214 211
f 153 157 215
f 153 215 156
f 154 156 216
f 154 216 163
f 154 163 155
f 156 215 217
f 156 217 216
f 157 161 215
f 159 218 160
f 159 201 218
f 160 218 161
f 161 219 220
f 161 220 215
f 161 218 221
f 161 221 219
f 162 222 223
f 162 223 165
f 162 164 163
f 162 163 224
f 162 224 222
f 163 225 224
f 163 216 226
f 163 226 225
f 165 223 227
f 165 227 228
f 165 228 166
f 166 228 167
f 170 185 229
f 170 229 230
f 170 230 231
f 170 231 171
f 171 232 233
f 171 233 172
f 171 231 232
f 172 233 173
f 173 234 174
f 173 233 234
f 174 234 175
f 175 234 235
f 175 235 236
f 176 236 237
f 176 237 238
f 176 238 177
f 177 238 186
f 178 239 240
f 178 240 241
f 180 243 244
f 180 244 182
f 180 182 181
f 182 244 245
f 182 245 246
f 182 246 183
f 183 246 247
f 183 247 184
f 184 247 248
f 184 248 229
f 184 229 185
f 186 238 249
f 186 249 187
f 187 249 188
f 188 249 250
f 188 250 189
f 189 250 251
f 189 251 252
f 189 252 190
f 190 252 193
f 191 197 253
f 191 253 206
f 191 206 205
f 193 252 194
f 194 252 195
f 195 252 196
f 196 252 254
f 196 254 255
f 196 255 256
f 196 256 257
f 196 257 197
f 197 257 258
f 197 258 207
f 197 207 253
f 198 259 199
f 198 211 259
f 199 259 200
f 200 259 202
f 201 203 260
f 201 260 261
f 201 261 218
f 202 262 263
f 202 263 203
f 202 259 264
f 202 264 265
f 202 265 262
f 203 263 260
f 206 253 207
f 207 258 266
f 207 266 267
f 207 267 268
f 207 268 208
f 208 268 269
f 208 269 212
f 208 212 210
f 209 210 212
f 211 214 270
f 211 270 259
f 212 269 271
f 212 271 213
f 213 272 214
f 213 271 273
f 213 273 274
f 213 274 272
f 214 272 270
f 215 220 217
f 216 275 226
f 216 217 275
f 217 220 276
f 217 276 275
f 218 261 221
f 219 221 277
f 219 277 278
f 219 278 276
f 219 276 220
f 221 261 279
f 221 279 277
f 222 224 225
f 222 225 280
f 222 280 281
f 222 281 282
f 222 282 283
f 222 283 223
f 223 283 284
f 223 284 227
f 225 226 285
f 225 285 286
f 225 286 280
f 226 275 285
f 229 248 287
f 229 287 288
f 229 288 230
f 230 289 290
f 230 290 231
f 230 288 291
f 230 291 289
f 231 290 232
f 232 292 233
f 232 290 293
f 232 293 292
f 233 294 234
f 233 292 294
f 234 295 235
f 234 294 295
f 235 295 296
f 235 296 297
f 235 297 236
f 236 297 237
f 237 297 298
f 237 298 299
f 237 299 300
f 237 300 250
f 237 250 238
f 238 250 249
f 239 301 240
f 240 302 303
f 240 303 304
f 240 304 241
f 240 301 302
f 242 305 306
f 243 307 308
f 243 308 244
f 244 308 245
f 245 309 310
f 245 310 246
f 245 308 309
f 246 310 311
f 246 311 247
f 247 311 287
f 247 287 248
f 250 300 299
f 250 299 251
f 251 299 252
f 252 298 254
f 252 299 298
f 254 297 296
f 254 296 312
f 254 312 313
f 254 313 255
f 254 298 297
f 255 313 256
f 256 314 258
f 256 258 257
f 256 313 315
f 256 315 314
f 258 314 316
f 258 316 317
f 258 317 266
f 259 270 264
f 260 263 262
f 260 262 318
f 260 318 319
f 260 319 261
f 261 319 320
f 261 320 279
f 262 321 322
f 262 322 318
f 262 265 323
f 262 323 324
f 262 324 321
f 264 325 323
f 264 323 265
f 264 270 325
f 266 317 267
f 267 271 268
f 267 317 271
f 268 271 269
f 270 326 325
f 270 272 327
f 270 327 328
f 270 328 326
f 271 317 329
f 271 329 330
f 271 330 331
f 271 331 332
f 271 332 273
f 272 274 333
f 272 333 327
f 273 332 333
f 273 333 274
f 275 334 285
f 275 276 335
f 275 335 334
f 276 278 335
f 277 279 320
f 277 320 336
f 277 336 337
f 277 337 338
f 277 338 278
f 278 338 339
f 278 339 335
f 280 340 281
f 280 286 340
f 281 340 341
f 281 341 342
f 281 342 282
f 282 342 302
f 282 302 343
f 282 343 344
f 282 344 345
f 282 345 284
f 282 284 283
f 285 334 286
f 286 334 346
f 286 346 347
f 286 347 340
f 287 311 348
f 287 348 288
f 288 348 349
f 288 349 291
f 289 350 290
f 289 291 351
f 289 351 352
f 289 352 350
f 290 350 293
f 291 349 351
f 292 293 353
f 292 353 354
f 292 354 355
f 292 355 294
f 293 350 356
f 293 356 353
f 294 355 357
f 294 357 358
f 294 358 295
f 295 358 359
f 295 359 296
f 296 359 312
f 301 343 302
f 302 342 341
f 302 341 303
f 303 341 360
f 303 360 361
f 303 361 362
f 303 362 304
f 304 362 363
f 305 364 365
f 305 365 366
f 305 366 306
f 306 366 367
f 306 367 368
f 307 369 308
f 307 370 371
f 307 371 369
f 308 369 371
f 308 371 372
f 308 372 309
f 309 372 373
f 309 373 374
f 309 374 375
f 309 375 376
f 309 376 377
f 309 377 310
f 310 377 348
f 310 348 311
f 312 359 381
f 312 381 315
f 312 315 313
f 314 378 316
f 314 315 379
f 314 379 380
f 314 380 378
f 315 381 379
f 316 378 317
f 317 378 382
f 317 382 329
f 318 383 384
f 318 384 319
f 318 322 383
f 319 384 320
f 320 384 385
f 320 385 336
f 321 386 383
f 321 383 322
f 321 324 387
f 321 387 388
f 321 388 389
f 321 389 386
f 323 325 326
f 323 326 390
f 323 390 324
f 324 390 387
f 326 328 391
f 326 391 392
f 326 392 393
f 326 393 390
f 327 394 391
f 327 391 328
f 327 333 395
f 327 395 396
f 327 396 394
f 329 397 398
f 329 398 330
f 329 382 397
f 330 398 331
f 331 399 395
f 331 395 333
f 331 333 332
f 331 398 400
f 331 400 401
f 331 401 399
f 334 335 339
f 334 339 402
f 334 402 403
f 334 403 346
f 336 385 337
f 337 385 404
f 337 404 405
f 337 405 406
f 337 406 407
f 337 407 408
f 337 408 409
f 337 409 410
f 337 410 338
f 338 410 339
f 339 410 402
f 340 347 341
f 341 347 360
f 346 403 347
f 347 403 411
f 347 411 361
f 347 361 360
f 348 412 352
f 348 352 349
f 348 377 412
f 349 352 351
f 350 413 414
f 350 414 356
f 350 352 413
f 352 412 415
f 352 415 416
f 352 416 413
f 353 356 422
f 353 422 417
f 353 417 418
f 353 418 419
f 353 419 354
f 354 419 355
f 355 419 420
f 355 420 421
f 355 421 357
f 356 414 475
f 356 475 422
f 357 421 358
f 358 421 359
f 359 421 381
f 361 411 423
f 361 423 424
f 361 424 362
f 362 424 363
f 363 424 425
f 364 426 427
f 364 427 365
f 365 428 429
f 365 429 430
f 365 430 366
f 365 427 428
f 366 430 367
f 367 430 431
f 367 431 432
f 367 432 433
f 367 433 434
f 367 434 368
f 370 435 371
f 371 373 372
f 371 435 436
f 371 436 437
f 371 437 374
f 371 374 373
f 374 376 375
f 374 437 498
f 374 498 438
f 374 438 376
f 376 438 439
f 376 439 377
f 377 439 438
f 377 438 440
f 377 440 441
f 377 441 442
f 377 442 412
f 378 380 443
f 378 443 444
f 378 444 382
f 379 381 421
f 379 421 445
f 379 445 446
f 379 446 443
f 379 443 380
f 382 444 447
f 382 447 448
f 382 448 397
f 383 386 449
f 383 449 450
f 383 450 385
f 383 385 384
f 385 450 404
f 386 389 451
f 386 451 449
f 387 390 388
f 388 452 389
f 388 390 393
f 388 393 392
f 388 392 453
f 388 453 454
f 388 454 455
f 388 455 452
f 389 452 456
f 389 456 451
f 391 394 392
f 392 457 454
f 392 454 453
f 392 394 457
f 394 458 457
f 394 396 395
f 394 395 459
f 394 459 460
f 394 460 461
f 394 461 458
f 395 399 459
f 397 448 400
f 397 400 398
f 399 401 462
f 399 462 460
f 399 460 459
f 400 448 463
f 400 463 464
f 400 464 465
f 400 465 401
f 401 465 462
f 402 410 409
f 402 409 403
f 403 409 408
f 403 408 411
f 404 450 466
f 404 466 405
f 405 467 406
f 405 466 467
f 406 468 407
f 406 467 468
f 407 468 408
f 408 468 469
f 408 469 470
f 408 470 423
f 408 423 411
f 412 471 415
f 412 442 472
f 412 472 473
f 412 473 471
f 413 474 475
f 413 475 414
f 413 416 473
f 413 473 474
f 415 471 473
f 415 473 416
f 417 422 476
f 417 476 477
f 417 477 418
f 418 477 419
f 419 477 445
f 419 445 420
f 420 445 421
f 422 475 478
f 422 478 476
f 423 470 424
f 424 470 425
f 425 470 479
f 426 480 428
f 426 428 427
f 426 481 480
f 428 482 483
f 428 483 429
f 428 480 484
f 428 484 482
f 429 483 485
f 429 485 486
f 429 486 430
f 430 486 487
f 430 487 431
f 431 487 432
f 432 487 488
f 432 488 489
f 432 489 433
f 435 490 491
f 435 491 492
f 435 492 493
f 435 493 436
f 436 493 492
f 436 492 494
f 436 494 437
f 437 495 496
f 437 496 497
f 437 497 498
f 437 494 499
f 437 499 495
f 438 498 532
f 438 532 473
f 438 473 442
f 438 442 441
f 438 441 440
f 442 473 472
f 443 446 500
f 443 500 501
f 443 501 444
f 444 502 447
f 444 501 503
f 444 503 502
f 445 477 504
f 445 504 500
f 445 500 446
f 447 463 448
f 447 502 463
f 449 451 505
f 449 505 506
f 449 506 467
f 449 467 466
f 449 466 450
f 451 456 505
f 452 455 456
f 454 457 458
f 454 458 507
f 454 507 508
f 454 508 509
f 454 509 455
f 455 509 510
f 455 510 456
f 456 511 512
f 456 512 513
f 456 513 505
f 456 510 514
f 456 514 511
f 458 461 460
f 458 460 515
f 458 515 516
f 458 516 507
f 460 462 517
f 460 517 515
f 462 465 518
f 462 518 517
f 463 502 519
f 463 519 520
f 463 520 521
f 463 521 522
f 463 522 523
f 463 523 464
f 464 523 465
f 465 523 518
f 467 506 524
f 467 524 525
f 467 525 526
f 467 526 527
f 467 527 528
f 467 528 468
f 468 528 529
f 468 529 470
f 468 470 469
f 470 529 530
f 470 530 531
f 470 531 479
f 473 532 474
f 474 478 475
f 474 532 533
f 474 533 534
f 474 534 478
f 476 535 536
f 476 536 477
f 476 478 535
f 477 536 537
f 477 537 504
f 478 538 539
f 478 539 535
f 478 534 538
f 479 531 540
f 480 481 541
f 480 541 542
f 480 542 484
f 482 543 544
f 482 544 545
f 482 545 483
f 482 484 546
f 482 546 547
f 482 547 548
f 482 548 543
f 483 545 485
f 484 542 549
f 484 549 547
f 484 547 546
f 485 550 551
f 485 551 552
f 485 552 487
f 485 487 486
f 485 545 550
f 487 552 488
f 488 553 554
f 488 554 489
f 488 552 553
f 489 554 555
f 489 555 556
f 490 557 491
f 491 557 558
f 491 558 559
f 491 559 560
f 491 560 492
f 492 560 495
f 492 495 494
f 494 495 499
f 495 560 561
f 495 561 562
f 495 562 497
f 495 497 496
f 497 562 563
f 497 563 498
f 498 563 564
f 498 564 562
f 498 562 565
f 498 565 566
f 498 566 567
f 498 567 532
f 500 504 537
f 500 537 568
f 500 568 501
f 501 568 569
f 501 569 570
f 501 570 503
f 502 503 570
f 502 570 519
f 505 513 524
f 505 524 506
f 507 516 508
f 508 516 571
f 508 571 572
f 508 572 573
f 508 573 574
f 508 574 575
f 508 575 509
f 509 575 510
f 510 575 514
f 511 514 575
f 511 575 574
f 511 574 576
f 511 576 577
f 511 577 578
f 511 578 512
f 512 578 513
f 513 525 524
f 513 578 525
f 515 517 579
f 515 579 516
f 516 580 571
f 516 579 581
f 516 581 580
f 517 518 579
f 518 523 582
f 518 582 583
f 518 583 584
f 518 584 579
f 519 585 586
f 519 586 521
f 519 521 520
f 519 570 587
f 519 587 588
f 519 588 585
f 521 586 589
f 521 589 590
f 521 590 591
f 521 591 522
f 522 591 523
f 523 591 582
f 525 578 527
f 525 527 526
f 527 592 593
f 527 593 530
f 527 530 528
f 527 578 594
f 527 594 595
f 527 595 596
f 527 596 592
f 528 530 529
f 530 593 597
f 530 597 540
f 530 540 531
f 532 567 598
f 532 598 599
f 532 599 600
f 532 600 601
f 532 601 533
f 533 601 534
f 534 601 599
f 534 599 602
f 534 602 603
f 534 603 604
f 534 604 538
f 535 539 605
f 535 605 606
f 535 606 537
f 535 537 536
f 537 606 568
f 538 604 539
f 539 604 607
f 539 607 605
f 541 608 542
f 542 608 609
f 542 609 610
f 542 610 549
f 543 548 611
f 543 611 612
f 543 612 544
f 544 612 613
f 544 613 614
f 544 614 550
f 544 550 545
f 547 615 548
f 547 549 616
f 547 616 617
f 547 617 615
f 548 615 611
f 549 610 616
f 550 614 551
f 551 618 553
f 551 553 552
f 551 614 619
f 551 619 620
f 551 620 621
f 551 621 618
f 553 618 622
f 553 622 554
f 554 622 555
f 555 622 623
f 555 623 624
f 555 624 556
f 557 625 626
f 557 626 627
f 557 627 558
f 558 627 559
f 559 627 628
f 559 628 560
f 560 629 561
f 560 628 630
f 560 630 629
f 561 629 631
f 561 631 632
f 561 632 633
f 561 633 562
f 562 564 563
f 562 633 634
f 562 634 599
f 562 599 567
f 562 567 566
f 562 566 565
f 567 599 598
f 568 606 635
f 568 635 636
f 568 636 569
f 569 636 570
f 570 636 587
f 571 580 572
f 572 637 638
f 572 638 639
f 572 639 573
f 572 580 640
f 572 640 637
f 573 639 574
f 574 639 576
f 576 641 642
f 576 642 643
f 576 643 577
f 576 639 644
f 576 644 641
f 577 643 595
f 577 595 645
f 577 645 578
f 578 645 594
f 579 584 646
f 579 646 581
f 580 581 646
f 580 646 647
f 580 647 648
f 580 648 649
f 580 649 640
f 582 591 583
f 583 650 646
f 583 646 584
f 583 591 651
f 583 651 652
f 583 652 650
f 585 588 587
f 585 587 653
f 585 653 654
f 585 654 655
f 585 655 589
f 585 589 586
f 587 656 653
f 587 636 657
f 587 657 658
f 587 658 656
f 589 655 659
f 589 659 660
f 589 660 590
f 590 660 659
f 590 659 661
f 590 661 662
f 590 662 652
f 590 652 651
f 590 651 591
f 592 597 593
f 592 596 663
f 594 645 595
f 595 643 664
f 595 664 665
f 595 665 596
f 596 665 663
f 599 634 602
f 599 601 600
f 602 634 666
f 602 666 667
f 602 667 668
f 602 668 603
f 603 668 669
f 603 669 604
f 604 669 607
f 605 607 670
f 605 670 671
f 605 671 672
f 605 672 606
f 606 672 673
f 606 673 635
f 607 669 674
f 607 674 675
f 607 675 676
f 607 676 670
f 608 677 609
f 609 677 678
f 609 678 610
f 610 678 679
f 610 679 616
f 611 615 680
f 611 680 681
f 611 681 612
f 612 681 682
f 612 682 683
f 612 683 684
f 612 684 613
f 613 684 614
f 614 684 685
f 614 685 619
f 615 617 686
f 615 686 680
f 616 679 687
f 616 687 617
f 617 687 688
f 617 688 689
f 617 689 686
f 618 621 690
f 618 690 691
f 618 691 622
f 619 692 693
f 619 693 694
f 619 694 620
f 619 685 695
f 619 695 692
f 620 694 621
f 621 694 696
f 621 696 697
f 621 697 698
f 621 698 691
f 621 691 690
f 622 691 623
f 623 691 699
f 623 699 624
f 624 699 700
f 625 701 626
f 626 701 702
f 626 702 627
f 627 702 703
f 627 703 704
f 627 704 705
f 627 705 630
f 627 630 628
f 629 630 631
f 630 706 707
f 630 707 708
f 630 708 709
f 630 709 632
f 630 632 631
f 630 705 706
f 632 710 711
f 632 711 633
f 632 709 712
f 632 712 713
f 632 713 710
f 633 711 710
f 633 710 634
f 634 713 666
f 634 710 713
f 635 673 636
f 636 673 657
f 637 640 649
f 637 649 714
f 637 714 715
f 637 715 716
f 637 716 717
f 637 717 718
f 637 718 719
f 637 719 720
f 637 720 639
f 637 639 638
f 639 720 644
f 641 721 722
f 641 722 642
f 641 644 720
f 641 720 719
f 641 719 723
f 641 723 721
f 642 722 643
f 643 722 664
f 646 650 648
f 646 648 647
f 648 724 714
f 648 714 649
f 648 650 652
f 648 652 725
f 648 725 726
f 648 726 727
f 648 727 724
f 652 662 726
f 652 726 725
f 653 656 654
f 654 728 729
f 654 729 659
f 654 659 655
f 654 656 730
f 654 730 728
f 656 658 731
f 656 731 732
f 656 732 733
f 656 733 730
f 657 673 734
f 657 734 735
f 657 735 732
f 657 732 731
f 657 731 658
f 659 729 728
f 659 728 736
f 659 736 737
f 659 737 738
f 659 738 661
f 661 738 726
f 661 726 662
f 664 739 740
f 664 740 665
f 664 722 739
f 666 713 667
f 667 741 669
f 667 669 668
f 667 713 712
f 667 712 742
f 667 742 741
f 669 741 743
f 669 743 744
f 669 744 674
f 670 676 671
f 671 734 672
f 671 676 734
f 672 734 673
f 674 744 675
f 675 744 676
f 676 744 745
f 676 745 746
f 676 746 747
f 676 747 748
f 676 748 734
f 677 749 678
f 678 749 750
f 678 750 751
f 678 751 679
f 679 751 687
f 680 752 681
f 680 686 753
f 680 753 752
f 681 752 682
f 682 752 754
f 682 754 755
f 682 755 756
f 682 756 683
f 683 756 684
f 684 756 757
f 684 757 695
f 684 695 685
f 686 689 753
f 687 751 758
f 687 758 759
f 687 759 688
f 688 759 689
f 689 760 753
f 689 759 761
f 689 761 762
f 689 762 760
f 691 763 699
f 691 698 764
f 691 764 763
f 692 765 693
f 692 695 765
f 693 766 696
f 693 696 694
f 693 765 766
f 695 757 765
f 696 766 697
f 697 767 698
f 697 766 768
f 697 768 769
f 697 769 770
f 697 770 767
f 698 767 764
f 699 763 771
f 699 771 772
f 699 772 700
f 701 773 774
f 701 774 775
f 701 775 702
f 702 775 703
f 703 775 768
f 703 768 707
f 703 707 706
f 703 706 705
f 703 705 704
f 707 776 708
f 707 768 766
f 707 766 777
f 707 777 778
f 707 778 776
f 708 776 709
f 709 776 779
f 709 779 780
f 709 780 712
f 712 780 781
f 712 781 782
f 712 782 742
f 714 724 715
f 715 783 784
f 715 784 716
f 715 724 727
f 715 727 785
f 715 785 786
f 715 786 783
f 716 784 787
f 716 787 717
f 717 787 788
f 717 788 789
f 717 789 718
f 718 789 719
f 719 789 723
f 721 790 791
f 721 791 722
f 721 723 790
f 722 791 739
f 723 789 792
f 723 792 793
f 723 793 790
f 726 738 794
f 726 794 795
f 726 795 796
f 726 796 797
f 726 797 785
f 726 785 727
f 728 730 733
f 728 733 798
f 728 798 799
f 728 799 800
f 728 800 801
f 728 801 736
f 732 802 733
f 732 735 734
f 732 734 803
f 732 803 747
f 732 747 804
f 732 804 802
f 733 802 799
f 733 799 798
f 734 748 803
f 736 805 794
f 736 794 737
f 736 801 805
f 737 794 738
f 741 806 743
f 741 742 807
f 741 807 806
f 742 782 808
f 742 808 807
f 743 806 744
f 744 806 809
f 744 809 745
f 745 810 811
f 745 811 746
f 745 809 810
f 746 812 747
f 746 811 812
f 747 813 804
f 747 803 748
f 747 812 813
f 749 814 750
f 750 814 815
f 750 815 816
f 750 816 817
f 750 817 751
f 751 818 758
f 751 817 819
f 751 819 818
f 752 753 754
f 753 760 820
f 753 820 754
f 754 821 822
f 754 822 823
f 754 823 755
f 754 820 821
f 755 823 824
f 755 824 756
f 756 824 825
f 756 825 757
f 757 825 826
f 757 826 765
f 758 818 759
f 759 818 827
f 759 827 828
f 759 828 761
f 760 829 820
f 760 762 829
f 761 828 762
f 762 828 830
f 762 830 831
f 762 831 832
f 762 832 833
f 762 833 834
f 762 834 829
f 763 764 771
f 764 770 775
f 764 775 835
f 764 835 771
f 764 767 770
f 765 826 825
f 765 825 836
f 765 836 837
f 765 837 778
f 765 778 777
f 765 777 838
f 765 838 766
f 766 838 777
f 768 775 769
f 769 775 770
f 771 835 774
f 771 774 839
f 771 839 840
f 771 840 772
f 773 839 774
f 774 835 775
f 776 778 841
f 776 841 779
f 778 837 842
f 778 842 841
f 779 841 780
f 780 841 781
f 781 841 843
f 781 843 782
f 782 843 808
f 783 844 784
f 783 786 844
f 784 844 787
f 785 797 786
f 786 845 846
f 786 846 844
f 786 797 796
f 786 796 847
f 786 847 845
f 787 844 848
f 787 848 849
f 787 849 788
f 788 849 850
f 788 850 792
f 788 792 789
f 792 850 793
f 794 805 851
f 794 851 852
f 794 852 853
f 794 853 796
f 794 796 795
f 796 853 854
f 796 854 847
f 799 802 804
f 799 804 855
f 799 855 856
f 799 856 857
f 799 857 858
f 799 858 800
f 800 858 859
f 800 859 801
f 801 859 851
f 801 851 805
f 804 813 856
f 804 856 855
f 806 807 808
f 806 808 860
f 806 860 861
f 806 861 809
f 808 843 860
f 809 861 862
f 809 862 863
f 809 863 810
f 810 863 811
f 811 863 812
f 812 863 864
f 812 864 865
f 812 865 856
f 812 856 813
f 815 866 816
f 816 867 817
f 816 866 868
f 816 868 869
f 816 869 867
f 817 867 819
f 818 819 827
f 819 870 827
f 819 867 870
f 820 829 821
f 821 871 822
f 821 829 872
f 821 872 871
f 822 871 873
f 822 873 823
f 823 873 874
f 823 874 875
f 823 875 824
f 824 875 825
f 825 875 842
f 825 842 836
f 827 876 877
f 827 877 878
f 827 878 831
f 827 831 830
f 827 830 828
f 827 870 879
f 827 879 880
f 827 880 876
f 829 834 881
f 829 881 872
f 831 882 883
f 831 883 832
f 831 878 858
f 831 858 882
f 832 883 833
f 833 865 881
f 833 881 834
f 833 883 856
f 833 856 865
f 836 842 837
f 841 842 843
f 842 875 843
f 843 875 884
f 843 884 860
f 844 846 848
f 845 847 854
f 845 854 885
f 845 885 886
f 845 886 887
f 845 887 846
f 846 888 848
f 846 887 888
f 848 888 849
f 851 859 889
f 851 889 890
f 851 890 891
f 851 891 853
f 851 853 852
f 853 891 854
f 854 891 890
f 854 890 892
f 854 892 893
f 854 893 885
f 856 883 857
f 857 883 882
f 857 882 858
f 858 878 877
f 858 877 894
f 858 894 895
f 858 895 889
f 858 889 859
f 860 884 874
f 860 874 873
f 860 873 861
f 861 873 862
f 862 873 863
f 863 873 871
f 863 871 872
f 863 872 881
f 863 881 864
f 864 881 865
f 867 869 896
f 867 896 870
f 868 897 898
f 868 898 879
f 868 879 869
f 868 899 897
f 869 879 896
f 870 896 879
f 874 884 875
f 876 895 894
f 876 894 877
f 876 880 900
f 876 900 897
f 876 897 901
f 876 901 890
f 876 890 895
f 879 900 880
f 879 898 897
f 879 897 900
f 885 893 886
f 886 902 903
f 886 903 887
f 886 893 904
f 886 904 902
f 887 903 888
f 889 895 890
f 890 901 893
f 890 893 892
f 893 901 897
f 893 897 904
f 897 899 905
f 897 905 904
f 902 904 905
