v 0.33607543 -0.05263995 -0.53341770
v -0.00098091 -0.05263995 -0.63105541
v 0.33607543 -0.05263995 -0.75477630
v 0.33607543 0.14761230 -0.88900495
v -0.00098091 0.14626916 -0.95107460
v -0.00098091 -0.05263995 -0.83074772
v 0.32964182 -0.05263995 -0.75779843
v 0.33607543 -0.04397049 -0.76825964
v 0.33607543 0.15453160 -0.90997374
v 0.32997173 0.15447053 -0.90997374
v -0.00098091 0.15451124 -0.96999770
v 0.01000574 -0.05263995 -0.83084077
v -0.00098091 -0.04761329 -0.83781487
v 0.31842417 -0.05263995 -0.76286632
v 0.32875097 -0.04470312 -0.77053785
v 0.33459073 -0.03837401 -0.77755845
v 0.33607543 -0.03876067 -0.77625662
v 0.33607543 0.14907756 -0.93019873
v 0.32997173 0.15060389 -0.92996627
v 0.30997798 0.15371756 -0.92996627
v 0.28998423 0.15491825 -0.92996627
v 0.09001373 0.15524387 -0.96999770
v -0.00098091 0.15312739 -0.97901756
v 0.02900970 -0.05263995 -0.83028281
v 0.01000574 -0.04311575 -0.84418458
v 0.03003249 -0.04293259 -0.84390557
v -0.00098091 -0.04309540 -0.84413809
v 0.30997798 -0.05263995 -0.76663232
v 0.30997798 -0.05046240 -0.77002639
v 0.32126158 -0.04036839 -0.78053409
v 0.33607543 -0.03812980 -0.77718651
v 0.32875097 -0.03281823 -0.78829861
v 0.33607543 -0.02129965 -0.80182838
v 0.33607543 0.14162916 -0.94145030
v 0.32997173 0.14274846 -0.94251966
v 0.30997798 0.14561793 -0.94600672
v 0.26999047 0.15099055 -0.94995874
v 0.24999672 0.15367687 -0.94995874
v 0.22996998 0.15495896 -0.94995874
v 0.20997624 0.15508106 -0.94995874
v 0.11000749 0.15526423 -0.96999770
v -0.00098091 0.15143827 -0.98999017
v 0.04481335 -0.05263995 -0.82949239
v 0.05002624 -0.04256628 -0.84344065
v -0.00098091 -0.03894383 -0.84967089
v -0.00098091 -0.03554524 -0.85418081
v 0.01000574 -0.03556559 -0.85418081
v 0.03003249 -0.03536208 -0.85394835
v 0.30245557 -0.05263995 -0.76979393
v 0.30997798 -0.04199646 -0.78299826
v 0.30997798 -0.03521962 -0.79299450
v 0.32997173 -0.02223579 -0.80317670
v 0.33607543 -0.01800282 -0.80657077
v 0.33607543 0.12998849 -0.94568127
v 0.29585698 0.13534075 -0.95851368
v 0.28252780 0.14099829 -0.96074539
v 0.26999047 0.14299268 -0.96260512
v 0.24999672 0.14541441 -0.96544129
v 0.22996998 0.14690003 -0.96809149
v 0.18998249 0.15115336 -0.96999770
v 0.16998874 0.15306634 -0.96999770
v 0.15002798 0.15432808 -0.96999770
v 0.13000123 0.15502001 -0.96999770
v 0.03003249 0.15119407 -0.98999017
v 0.01000574 0.15141791 -0.98999017
v -0.00098091 0.14319618 -1.00254357
v 0.05002624 -0.05263995 -0.82921344
v 0.05002624 -0.03501612 -0.85343689
v 0.07001999 -0.04211856 -0.84283626
v -0.00098091 -0.02555298 -0.86705971
v 0.01000574 -0.02555298 -0.86710620
v 0.03003249 -0.02536982 -0.86687368
v 0.05002624 -0.02500351 -0.86640877
v 0.29127097 -0.05263995 -0.77439684
v 0.28998423 -0.04470312 -0.78704327
v 0.28998423 -0.03798734 -0.79703951
v 0.29922226 -0.01979369 -0.81968212
v 0.30997798 -0.02520701 -0.80745417
v 0.30997798 -0.01822668 -0.81745040
v 0.32997173 -0.01521475 -0.81317294
v 0.32997173 -0.00522249 -0.82726067
v 0.33607543 -0.00760354 -0.82121646
v 0.32997173 0.12998849 -0.94791299
v 0.33607543 0.10998361 -0.94628572
v 0.30146578 0.12199061 -0.96046638
v 0.30885622 0.12919480 -0.95572400
v 0.28948933 0.12919480 -0.96232617
v 0.26999047 0.12998849 -0.96804500
v 0.24999672 0.12998849 -0.97371721
v 0.21829046 0.13867828 -0.97957551
v 0.20496130 0.14132389 -0.98101681
v 0.18998249 0.14301303 -0.98250461
v 0.16998874 0.14478354 -0.98431790
v 0.15002798 0.14602494 -0.98603821
v 0.13000123 0.14687967 -0.98757249
v 0.07001999 0.14966774 -0.98999017
v 0.05002624 0.15062425 -0.98999017
v 0.03003249 0.14297232 -1.00231111
v 0.01000574 0.14317583 -1.00254357
v -0.00098091 0.13725373 -1.00496125
v 0.05151092 -0.05263995 -0.82912046
v 0.07001999 -0.03452770 -0.85283250
v 0.09001373 -0.04144698 -0.84195286
v 0.07394616 -0.05263995 -0.82758617
v 0.07001999 -0.05121539 -0.82995737
v -0.00098091 -0.01224353 -0.88407654
v 0.01000574 -0.01773825 -0.87710243
v 0.03003249 -0.01755510 -0.87686992
v 0.07001999 -0.02453543 -0.86575782
v 0.05002624 -0.01716843 -0.87640500
v 0.27038640 -0.05263995 -0.78244036
v 0.27091429 -0.04649399 -0.79159969
v 0.27820572 -0.03953400 -0.79931772
v 0.29153490 -0.02734385 -0.81182462
v 0.28589308 -0.02156422 -0.82219285
v 0.29153490 -0.01492984 -0.82930642
v 0.30565590 -0.00164074 -0.84218532
v 0.31898504 0.00029259 -0.83958161
v 0.33607543 -0.00426600 -0.82591236
v 0.32997173 0.00198171 -0.83725691
v 0.33607543 0.00293820 -0.83595508
v 0.32997173 0.10998361 -0.94856393
v 0.30146578 0.11743201 -0.96046638
v 0.33607543 0.10436678 -0.94479787
v 0.22561491 0.12534849 -0.98129582
v 0.23135570 0.13120954 -0.97832018
v 0.21096602 0.13120954 -0.98306257
v 0.18998249 0.12998849 -0.98771197
v 0.16998874 0.12998849 -0.99147803
v 0.11000749 0.13684672 -0.99901009
v 0.09855893 0.13943127 -0.99980044
v 0.08522975 0.14073372 -1.00054431
v 0.11000749 0.14742915 -0.98901379
v 0.07001999 0.14160880 -1.00119531
v 0.05002624 0.14246355 -1.00189269
v 0.03003249 0.12998849 -1.00742555
v 0.01000574 0.12998849 -1.00784397
v -0.00098091 0.12998849 -1.00789046
v 0.07001999 -0.05263995 -0.82791162
v 0.09001373 -0.03383577 -0.85194910
v 0.11000749 -0.04057190 -0.84074402
v 0.09001373 -0.04991293 -0.82995737
v 0.09001373 -0.05263995 -0.82605183
v -0.00098091 -0.00343161 -0.89532810
v 0.01000574 -0.00774599 -0.88984179
v 0.01000574 0.00010943 -0.89983803
v 0.03003249 0.00031294 -0.89960557
v 0.05002624 0.00067925 -0.89914066
v 0.05002624 -0.00717617 -0.88914442
v 0.09001373 -0.02384350 -0.86487448
v 0.07001999 -0.00668775 -0.88849348
v 0.25270215 -0.05263995 -0.78894949
v 0.26487657 -0.04122312 -0.80178189
v 0.27091429 -0.03462945 -0.80903500
v 0.26999047 -0.02361964 -0.82507545
v 0.26999047 -0.01641545 -0.83507168
v 0.28998423 -0.00379793 -0.84511447
v 0.28998423 0.00367083 -0.85511070
v 0.30997798 0.01647151 -0.86459547
v 0.31139666 0.00535995 -0.84929889
v 0.32446188 0.01862869 -0.86175936
v 0.33066458 0.01274730 -0.85143763
v 0.33607543 0.01341888 -0.85004282
v 0.29707772 0.10410222 -0.95902508
v 0.30885622 0.11045168 -0.95632845
v 0.29024816 0.11045168 -0.96255863
v 0.26999047 0.10998361 -0.96860290
v 0.24999672 0.10998361 -0.97427517
v 0.22561491 0.11393167 -0.98129582
v 0.33607543 0.09685732 -0.94205475
v 0.12515128 0.12302849 -1.00073028
v 0.15002798 0.12998849 -0.99487209
v 0.13109002 0.12980533 -0.99794066
v 0.11000749 0.12685445 -1.00170672
v 0.09113550 0.13165724 -1.00263655
v 0.07001999 0.12998849 -1.00510073
v 0.05002624 0.12998849 -1.00649559
v 0.03003249 0.10998361 -1.00779748
v 0.01000574 0.10998361 -1.00830889
v -0.00098091 0.10998361 -1.00830889
v 0.11000749 -0.03294034 -0.85074025
v 0.11000749 -0.02294807 -0.86371207
v 0.12056524 -0.04006313 -0.84004658
v 0.11000749 -0.04816276 -0.82995737
v 0.09710723 -0.05263995 -0.82516843
v -0.00098091 0.00010943 -0.89983803
v -0.00098091 0.00452556 -0.90541732
v 0.01000574 0.00814801 -0.90997374
v 0.03003249 0.00855503 -0.90997374
v 0.07001999 0.01028485 -0.90997374
v 0.07001999 0.00116767 -0.89848971
v 0.05002624 0.01862869 -0.92169029
v 0.07001999 0.01911711 -0.92108589
v 0.09001373 0.00185960 -0.89760631
v 0.11000749 0.00275504 -0.89649045
v 0.24936986 -0.05263995 -0.79015839
v 0.24999672 -0.04301400 -0.80438554
v 0.24999672 -0.03611507 -0.81438184
v 0.24818212 -0.02492210 -0.83070123
v 0.25365895 -0.01847088 -0.83786136
v 0.26830783 -0.00522249 -0.85074025
v 0.27388364 0.00155434 -0.85794681
v 0.28800464 0.01494519 -0.87059325
v 0.29331651 0.02182378 -0.87766033
v 0.30997798 0.02420482 -0.87459171
v 0.33066458 0.02619921 -0.86905891
v 0.33607543 0.02202728 -0.86152685
v 0.33607543 0.01875080 -0.85720289
v 0.28374857 0.09813942 -0.96111733
v 0.21931325 0.10060187 -0.97980797
v 0.23135570 0.10835554 -0.97869211
v 0.21159290 0.10835554 -0.98324853
v 0.18998249 0.10998361 -0.98808396
v 0.12515128 0.11651623 -1.00073028
v 0.33607543 0.08706857 -0.93494111
v 0.32997173 0.08519629 -0.93596399
v 0.32997173 0.09520890 -0.94317061
v 0.07001999 0.10998361 -1.00542629
v 0.05002624 0.10998361 -1.00686753
v 0.05002624 0.09645030 -1.00226462
v 0.03003249 0.09575838 -1.00272965
v 0.01000574 0.09537171 -1.00296211
v -0.00098091 0.10338993 -1.00593770
v 0.13000123 -0.02184913 -0.86236376
v 0.13000123 0.00383363 -0.89514214
v 0.13000123 -0.00400144 -0.88514590
v 0.12835158 -0.03302173 -0.84804356
v 0.13389441 -0.03922874 -0.83893073
v 0.12835158 -0.04527294 -0.83135217
v 0.11000749 -0.05263995 -0.82354116
v -0.00098091 0.01360204 -0.91680843
v 0.01000574 0.01805887 -0.92238772
v 0.03003249 0.01826238 -0.92210877
v 0.08466887 0.01960553 -0.92048144
v 0.03003249 0.02646377 -0.93215150
v 0.05002624 0.02683008 -0.93168652
v 0.07001999 0.02735920 -0.93108213
v 0.09080557 0.01325607 -0.91183352
v 0.11000749 0.01274730 -0.90904391
v 0.22996998 -0.05263995 -0.79666752
v 0.22996998 -0.04525259 -0.80768669
v 0.22996998 -0.03839435 -0.81768292
v 0.24032977 -0.02007860 -0.84009308
v 0.26052150 -0.00013478 -0.86017853
v 0.27998734 0.02001255 -0.87998503
v 0.28919238 0.03020832 -0.88970232
v 0.29843044 0.04044479 -0.89941961
v 0.30997798 0.03419708 -0.88728464
v 0.32997173 0.03722936 -0.88347208
v 0.33607543 0.03820620 -0.88226324
v 0.30974704 0.08902225 -0.94605327
v 0.29024816 0.09087417 -0.95391071
v 0.26999047 0.08507419 -0.95614243
v 0.26999047 0.09506644 -0.96316308
v 0.20598409 0.09791556 -0.98124933
v 0.16998874 0.10998361 -0.99189645
v 0.24864402 0.08916470 -0.96497631
v 0.22996998 0.08999909 -0.97013718
v 0.15002798 0.10998361 -0.99538350
v 0.13109002 0.10990220 -0.99831265
v 0.11393365 0.10318643 -0.99919605
v 0.10835784 0.10990220 -1.00142777
v 0.09001373 0.10998361 -1.00352001
v 0.33607543 0.08295770 -0.93177950
v 0.31624663 0.08169594 -0.93861413
v 0.10060449 0.09986924 -1.00003290
v 0.09001373 0.09897381 -1.00059080
v 0.07001999 0.09750855 -1.00156724
v 0.05002624 0.08645804 -0.99505806
v 0.03003249 0.08574576 -0.99556947
v 0.01000574 0.08537944 -0.99584848
v -0.00098091 0.08533874 -0.99589497
v -0.00098091 0.09083347 -0.99980044
v -0.00098091 0.09535135 -1.00296211
v 0.14596984 -0.02083158 -0.86106193
v 0.13000123 0.01382590 -0.90769553
v 0.15002798 0.01512835 -0.90606827
v 0.15002798 0.00513609 -0.89346838
v 0.15157865 -0.02701823 -0.85190260
v 0.15002798 -0.03812980 -0.83744293
v 0.15002798 -0.04527294 -0.82744670
v 0.12944035 -0.05263995 -0.82051903
v -0.00098091 0.01805887 -0.92238772
v -0.00098091 0.02623991 -0.93238395
v 0.01000574 0.02626026 -0.93238395
v 0.07001999 0.03735147 -0.94312412
v 0.09001373 0.03808410 -0.94224072
v 0.09080557 0.02656552 -0.92829245
v 0.09799804 0.02019571 -0.91973758
v 0.01000574 0.03625252 -0.94447243
v 0.03003249 0.03647638 -0.94419348
v 0.05002624 0.03684270 -0.94377500
v 0.11000749 0.02076553 -0.91904014
v 0.21037215 -0.05263995 -0.80252582
v 0.21822448 -0.03965611 -0.81949615
v 0.22996998 -0.02117755 -0.84158087
v 0.22996998 -0.01362739 -0.85157710
v 0.24999672 -0.00137618 -0.86180586
v 0.24999672 0.00629609 -0.87180209
v 0.26999047 0.01873045 -0.88161236
v 0.26999047 0.02662657 -0.89160860
v 0.28510126 0.03861322 -0.90169781
v 0.29104000 0.04632619 -0.90899742
v 0.30209267 0.05933037 -0.92071390
v 0.30925214 0.05332687 -0.91099668
v 0.30997798 0.04217461 -0.89732736
v 0.32997173 0.04530864 -0.89346838
v 0.33607543 0.04231707 -0.88737762
v 0.30291748 0.07888753 -0.94098538
v 0.25441778 0.08194015 -0.95842069
v 0.21159290 0.09075207 -0.97497261
v 0.18998249 0.08544050 -0.97590244
v 0.18998249 0.09543276 -0.98287660
v 0.24105564 0.07968121 -0.96028042
v 0.33607543 0.07516332 -0.92480540
v 0.16998874 0.09276680 -0.98478281
v 0.14897220 0.08861522 -0.98538727
v 0.13000123 0.08999909 -0.98910677
v 0.10835784 0.09191206 -0.99338424
v 0.09001373 0.08898154 -0.99343073
v 0.07001999 0.08751628 -0.99436063
v 0.07001999 0.07528543 -0.98436439
v 0.05002624 0.07457315 -0.98506182
v 0.03003249 0.07406438 -0.98557323
v 0.01000574 0.07377946 -0.98585224
v -0.00098091 0.07377946 -0.98589873
v 0.15929902 -0.01989544 -0.85985309
v 0.15002798 -0.00269898 -0.88347208
v 0.13000123 0.02186448 -0.91769183
v 0.16998874 0.01659361 -0.90425497
v 0.15002798 0.02316693 -0.91606450
v 0.16998874 0.00658100 -0.89160860
v 0.16998874 -0.00127443 -0.88161236
v 0.16998874 -0.02667227 -0.84878749
v 0.16998874 -0.03668489 -0.83544368
v 0.16998874 -0.04386874 -0.82544744
v 0.15002798 -0.05263995 -0.81675303
v -0.00098091 0.03173463 -0.93903261
v 0.05002624 0.04532899 -0.95377123
v 0.07001999 0.04589882 -0.95312035
v 0.09001373 0.04667215 -0.95228344
v 0.11000749 0.03902023 -0.94117135
v 0.11000749 0.02976060 -0.92996627
v -0.00098091 0.03625252 -0.94447243
v 0.01000574 0.04469812 -0.95446867
v 0.03003249 0.04494233 -0.95418972
v 0.18998249 -0.05263995 -0.80801213
v 0.21093303 -0.04635154 -0.81168514
v 0.20489532 -0.04093821 -0.82130945
v 0.21093303 -0.03436489 -0.82879502
v 0.20997624 -0.02321263 -0.84427756
v 0.20997624 -0.01562177 -0.85427380
v 0.22996998 -0.00361477 -0.86468846
v 0.22996998 0.00409820 -0.87468469
v 0.24999672 0.01630870 -0.88472748
v 0.24999672 0.02416412 -0.89472371
v 0.26999047 0.03661884 -0.90416199
v 0.26999047 0.04484057 -0.91415823
v 0.28998423 0.05755985 -0.92275965
v 0.28998423 0.06671773 -0.93275589
v 0.31542182 0.06146721 -0.91829622
v 0.32997173 0.05528056 -0.90551031
v 0.33607543 0.05629810 -0.90434802
v 0.28998423 0.07670999 -0.94307762
v 0.32997173 0.07400332 -0.92596775
v 0.16998874 0.08277453 -0.97780871
v 0.22996998 0.07821595 -0.96158230
v 0.20997624 0.07581455 -0.96386051
v 0.26999047 0.07367771 -0.94614625
v 0.24755526 0.07058439 -0.94930780
v 0.22996998 0.06822369 -0.95153952
v 0.32997173 0.06401107 -0.91555309
v 0.33607543 0.06468264 -0.91378629
v 0.15497693 0.08102436 -0.97915709
v 0.14164776 0.07970156 -0.98022640
v 0.13000123 0.07880612 -0.98101681
v 0.11000749 0.07742227 -0.98231864
v 0.09001373 0.07624192 -0.98343456
v 0.09001373 0.06624965 -0.97362423
v 0.07001999 0.06529317 -0.97450763
v 0.05002624 0.06456054 -0.97520506
v 0.03003249 0.06407212 -0.97566998
v 0.01000574 0.06378721 -0.97594893
v -0.00098091 0.06376685 -0.97594893
v 0.16998874 -0.01035090 -0.86998880
v 0.16998874 -0.01908141 -0.85878372
v 0.12257782 0.03969181 -0.94033444
v 0.12957233 0.03330165 -0.93159354
v 0.13590698 0.04052620 -0.93935806
v 0.15002798 0.03317954 -0.92824596
v 0.16998874 0.02463219 -0.91425121
v 0.18998249 0.01820133 -0.90225577
v 0.18203118 -0.00033829 -0.88045001
v 0.16998874 0.03464480 -0.92647922
v 0.18998249 -0.02504420 -0.84664875
v 0.18998249 -0.03505682 -0.83316547
v 0.18998249 -0.04226102 -0.82316923
v 0.17130846 -0.05263995 -0.81238258
v 0.03003249 0.05491424 -0.96567374
v 0.05002624 0.05530091 -0.96520883
v 0.07001999 0.05587073 -0.96451139
v 0.11000749 0.04766934 -0.95116758
v 0.09001373 0.05666441 -0.96362799
v -0.00098091 0.04469812 -0.95446867
v -0.00098091 0.05467003 -0.96595275
v 0.01000574 0.05469038 -0.96595275
v 0.18348287 -0.05263995 -0.80954641
v 0.18998249 -0.01745334 -0.85664499
v 0.20997624 -0.00562951 -0.86724567
v 0.20997624 0.00212416 -0.87724191
v 0.22996998 0.01409046 -0.88751709
v 0.22996998 0.02194588 -0.89751333
v 0.24999672 0.03415638 -0.90718412
v 0.24999672 0.04231707 -0.91718036
v 0.26999047 0.05481248 -0.92596775
v 0.26999047 0.06368545 -0.93596399
v 0.33607543 0.06169107 -0.91048521
v 0.18998249 0.07371841 -0.96590626
v 0.20997624 0.06582229 -0.95386422
v 0.18998249 0.06372616 -0.95600295
v 0.25402188 0.06150791 -0.93833518
v 0.24069270 0.05981879 -0.94014847
v 0.22996998 0.05861809 -0.94149679
v 0.16998874 0.07188684 -0.96781248
v 0.15553781 0.06067353 -0.95921105
v 0.14220864 0.05965599 -0.96032691
v 0.13000123 0.06881386 -0.97120655
v 0.11000749 0.06743000 -0.97250843
v 0.11000749 0.05766160 -0.96251214
v 0.18922365 -0.00617898 -0.87138367
v 0.13000123 0.05884195 -0.96121031
v 0.12957233 0.04740478 -0.94819194
v 0.15002798 0.04148269 -0.93824220
v 0.18998249 0.02626026 -0.91225201
v 0.18998249 0.03625252 -0.92452645
v 0.20337763 0.01938168 -0.90076792
v 0.18922365 0.00702871 -0.88826102
v 0.19539334 0.00080136 -0.87896216
v 0.16998874 0.04298865 -0.93647546
v 0.21004222 0.01331712 -0.89151561
v 0.21670681 0.02062308 -0.89923364
v 0.22993699 0.03315919 -0.91146159
v 0.23656859 0.04075006 -0.91908664
v 0.24841306 0.05373389 -0.93098915
v 0.16998874 0.06189458 -0.95795572
v 0.20997624 0.05650160 -0.94386804
v 0.18998249 0.05462933 -0.94600672
v 0.22993699 0.04734373 -0.92847848
v 0.16998874 0.05296056 -0.94795948
v 0.14933513 0.05298091 -0.95153952
v 0.20997624 0.03804339 -0.92234123
v 0.18998249 0.04465742 -0.93452269
v 0.21004222 0.02680973 -0.90843946
v 0.22323942 0.03932550 -0.92080688
v 0.20997624 0.04652970 -0.93233746
f 1 2 6
f 1 6 12
f 1 12 24
f 1 24 43
f 1 43 67
f 1 67 101
f 1 101 139
f 1 139 104
f 1 104 143
f 1 143 185
f 1 185 230
f 1 230 282
f 1 282 337
f 1 337 398
f 1 398 407
f 1 407 347
f 1 347 294
f 1 294 240
f 1 240 196
f 1 196 152
f 1 152 111
f 1 111 74
f 1 74 49
f 1 49 28
f 1 28 14
f 1 14 7
f 1 7 3
f 1 3 8
f 1 8 17
f 1 17 31
f 1 31 33
f 1 33 53
f 1 53 82
f 1 82 119
f 1 119 121
f 1 121 163
f 1 163 208
f 1 208 207
f 1 207 250
f 1 250 308
f 1 308 363
f 1 363 417
f 1 417 373
f 1 373 315
f 1 315 264
f 1 264 215
f 1 215 170
f 1 170 124
f 1 124 84
f 1 84 54
f 1 54 34
f 1 34 18
f 1 18 9
f 1 9 4
f 1 4 5
f 1 5 2
f 2 5 11
f 2 11 23
f 2 23 42
f 2 42 66
f 2 66 100
f 2 100 138
f 2 138 180
f 2 180 223
f 2 223 274
f 2 274 273
f 2 273 272
f 2 272 326
f 2 326 384
f 2 384 405
f 2 405 404
f 2 404 344
f 2 344 338
f 2 338 284
f 2 284 283
f 2 283 231
f 2 231 187
f 2 187 186
f 2 186 144
f 2 144 106
f 2 106 70
f 2 70 46
f 2 46 45
f 2 45 27
f 2 27 13
f 2 13 6
f 3 7 8
f 4 9 10
f 4 10 11
f 4 11 5
f 6 13 12
f 7 14 15
f 7 15 8
f 8 15 16
f 8 16 17
f 9 18 19
f 9 19 20
f 9 20 21
f 9 21 22
f 9 22 11
f 9 11 10
f 11 22 23
f 12 13 25
f 12 25 26
f 12 26 24
f 13 27 25
f 14 28 29
f 14 29 15
f 15 29 30
f 15 30 16
f 16 31 17
f 16 30 32
f 16 32 33
f 16 33 31
f 18 34 35
f 18 35 36
f 18 36 19
f 19 36 37
f 19 37 20
f 20 37 38
f 20 38 39
f 20 39 21
f 21 39 40
f 21 40 41
f 21 41 22
f 22 41 42
f 22 42 23
f 24 26 44
f 24 44 43
f 25 27 45
f 25 45 46
f 25 46 47
f 25 47 48
f 25 48 26
f 26 48 44
f 28 49 29
f 29 49 50
f 29 50 30
f 30 50 51
f 30 51 32
f 32 51 52
f 32 52 33
f 33 52 53
f 34 54 55
f 34 55 56
f 34 56 35
f 35 56 36
f 36 56 57
f 36 57 58
f 36 58 37
f 37 58 59
f 37 59 38
f 38 59 60
f 38 60 61
f 38 61 39
f 39 61 62
f 39 62 63
f 39 63 41
f 39 41 40
f 41 63 64
f 41 64 65
f 41 65 42
f 42 65 99
f 42 99 66
f 43 44 67
f 44 48 68
f 44 68 69
f 44 69 67
f 46 70 71
f 46 71 47
f 47 71 72
f 47 72 48
f 48 72 73
f 48 73 68
f 49 74 50
f 50 75 76
f 50 76 51
f 50 74 75
f 51 76 77
f 51 77 78
f 51 78 52
f 52 78 79
f 52 79 80
f 52 80 53
f 53 80 81
f 53 81 82
f 54 83 55
f 54 84 85
f 54 85 83
f 55 86 85
f 55 85 87
f 55 87 88
f 55 88 56
f 55 83 86
f 56 88 89
f 56 89 90
f 56 90 57
f 57 90 91
f 57 91 58
f 58 91 92
f 58 92 59
f 59 92 93
f 59 93 60
f 60 93 94
f 60 94 61
f 61 94 95
f 61 95 96
f 61 96 62
f 62 96 97
f 62 97 63
f 63 97 64
f 64 97 98
f 64 98 99
f 64 99 65
f 66 99 100
f 67 69 101
f 68 102 69
f 68 73 102
f 69 102 103
f 69 103 104
f 69 104 105
f 69 105 101
f 70 106 107
f 70 107 71
f 71 107 108
f 71 108 72
f 72 108 73
f 73 109 102
f 73 108 110
f 73 110 109
f 74 111 75
f 75 111 112
f 75 112 113
f 75 113 76
f 76 113 114
f 76 114 77
f 77 79 78
f 77 114 115
f 77 115 116
f 77 116 117
f 77 117 118
f 77 118 79
f 79 81 80
f 79 118 81
f 81 119 82
f 81 118 120
f 81 120 121
f 81 121 119
f 83 85 86
f 84 122 123
f 84 123 85
f 84 124 122
f 85 123 169
f 85 169 125
f 85 125 89
f 85 89 88
f 85 88 87
f 89 125 126
f 89 126 90
f 90 126 125
f 90 125 127
f 90 127 128
f 90 128 129
f 90 129 91
f 91 129 130
f 91 130 131
f 91 131 92
f 92 131 93
f 93 131 132
f 93 132 94
f 94 132 95
f 95 133 96
f 95 132 134
f 95 134 133
f 96 133 134
f 96 134 135
f 96 135 97
f 97 135 98
f 98 135 136
f 98 136 137
f 98 137 99
f 99 137 138
f 99 138 100
f 101 105 139
f 102 140 103
f 102 109 150
f 102 150 140
f 103 140 141
f 103 141 142
f 103 142 104
f 104 139 105
f 104 142 143
f 106 144 107
f 107 144 145
f 107 145 108
f 108 145 146
f 108 146 147
f 108 147 148
f 108 148 149
f 108 149 110
f 109 110 149
f 109 149 151
f 109 151 150
f 111 152 112
f 112 152 153
f 112 153 113
f 113 153 154
f 113 154 115
f 113 115 114
f 115 155 156
f 115 156 116
f 115 154 155
f 116 156 157
f 116 157 117
f 117 157 158
f 117 158 159
f 117 159 160
f 117 160 118
f 118 160 161
f 118 161 162
f 118 162 120
f 120 162 121
f 121 162 163
f 122 124 164
f 122 164 165
f 122 165 123
f 123 165 164
f 123 164 166
f 123 166 167
f 123 167 168
f 123 168 169
f 124 170 164
f 125 169 214
f 125 214 171
f 125 171 128
f 125 128 127
f 128 171 129
f 129 171 172
f 129 172 130
f 130 172 173
f 130 173 171
f 130 171 174
f 130 174 131
f 131 174 175
f 131 175 176
f 131 176 132
f 132 176 177
f 132 177 134
f 134 177 135
f 135 177 136
f 136 177 219
f 136 219 178
f 136 178 179
f 136 179 137
f 137 179 138
f 138 179 180
f 140 181 141
f 140 150 182
f 140 182 181
f 141 181 183
f 141 183 184
f 141 184 142
f 142 184 185
f 142 185 143
f 144 186 145
f 145 186 146
f 146 186 187
f 146 187 188
f 146 188 147
f 147 188 189
f 147 189 148
f 148 190 191
f 148 191 151
f 148 151 149
f 148 189 192
f 148 192 193
f 148 193 190
f 150 151 194
f 150 194 195
f 150 195 182
f 151 191 194
f 152 196 153
f 153 197 198
f 153 198 155
f 153 155 154
f 153 196 197
f 155 199 200
f 155 200 156
f 155 198 199
f 156 200 201
f 156 201 202
f 156 202 157
f 157 202 158
f 158 202 203
f 158 203 159
f 159 161 160
f 159 203 204
f 159 204 205
f 159 205 161
f 161 205 206
f 161 206 207
f 161 207 208
f 161 208 162
f 162 208 163
f 164 209 167
f 164 167 166
f 164 170 209
f 167 209 168
f 168 210 211
f 168 211 169
f 168 209 210
f 169 211 210
f 169 210 212
f 169 212 213
f 169 213 214
f 170 215 216
f 170 216 217
f 170 217 209
f 171 214 218
f 171 218 176
f 171 176 174
f 171 173 172
f 174 176 175
f 176 218 219
f 176 219 177
f 178 219 220
f 178 220 221
f 178 221 179
f 179 221 222
f 179 222 223
f 179 223 180
f 181 182 183
f 182 224 183
f 182 195 225
f 182 225 226
f 182 226 224
f 183 224 227
f 183 227 228
f 183 228 229
f 183 229 230
f 183 230 184
f 184 230 185
f 187 231 188
f 188 231 232
f 188 232 189
f 189 232 233
f 189 233 192
f 190 193 234
f 190 234 191
f 191 234 194
f 192 233 235
f 192 235 236
f 192 236 193
f 193 236 237
f 193 237 234
f 194 238 239
f 194 239 195
f 194 234 238
f 195 239 276
f 195 276 225
f 196 240 197
f 197 240 241
f 197 241 242
f 197 242 198
f 198 242 243
f 198 243 199
f 199 243 200
f 200 243 244
f 200 244 201
f 201 244 202
f 202 244 245
f 202 245 203
f 203 245 204
f 204 245 246
f 204 246 247
f 204 247 248
f 204 248 205
f 205 248 249
f 205 249 206
f 206 249 250
f 206 250 207
f 209 217 251
f 209 251 252
f 209 252 253
f 209 253 254
f 209 254 210
f 210 255 256
f 210 256 213
f 210 213 212
f 210 254 257
f 210 257 258
f 210 258 255
f 213 256 214
f 214 256 259
f 214 259 260
f 214 260 261
f 214 261 262
f 214 262 263
f 214 263 218
f 215 264 216
f 216 265 217
f 216 264 265
f 217 265 251
f 218 263 266
f 218 266 267
f 218 267 219
f 219 267 268
f 219 268 220
f 220 268 321
f 220 321 269
f 220 269 270
f 220 270 221
f 221 270 271
f 221 271 222
f 222 271 272
f 222 272 273
f 222 273 274
f 222 274 223
f 224 275 227
f 224 226 275
f 225 276 277
f 225 277 278
f 225 278 275
f 225 275 226
f 227 275 228
f 228 275 279
f 228 279 280
f 228 280 281
f 228 281 229
f 229 281 282
f 229 282 230
f 231 283 232
f 232 283 284
f 232 284 285
f 232 285 235
f 232 235 233
f 234 237 286
f 234 286 287
f 234 287 288
f 234 288 289
f 234 289 238
f 235 285 290
f 235 290 291
f 235 291 292
f 235 292 236
f 236 292 237
f 237 292 286
f 238 289 239
f 239 289 293
f 239 293 276
f 240 294 241
f 241 294 295
f 241 295 242
f 242 295 243
f 243 296 297
f 243 297 298
f 243 298 244
f 243 295 296
f 244 298 299
f 244 299 300
f 244 300 245
f 245 300 301
f 245 301 302
f 245 302 246
f 246 302 247
f 247 302 303
f 247 303 304
f 247 304 305
f 247 305 306
f 247 306 248
f 248 306 249
f 249 306 307
f 249 307 308
f 249 308 250
f 251 265 252
f 252 265 309
f 252 309 253
f 253 310 254
f 253 309 310
f 254 310 257
f 255 258 311
f 255 311 312
f 255 312 313
f 255 313 266
f 255 266 261
f 255 261 259
f 255 259 256
f 257 310 314
f 257 314 258
f 258 314 311
f 259 261 260
f 261 266 262
f 262 266 263
f 264 315 265
f 265 315 309
f 266 313 316
f 266 316 317
f 266 317 318
f 266 318 319
f 266 319 320
f 266 320 267
f 267 320 268
f 268 320 321
f 269 321 322
f 269 322 323
f 269 323 270
f 270 323 324
f 270 324 271
f 271 324 325
f 271 325 272
f 272 325 326
f 275 327 279
f 275 278 328
f 275 328 327
f 276 293 329
f 276 329 331
f 276 331 277
f 277 330 278
f 277 331 391
f 277 391 330
f 278 332 333
f 278 333 327
f 278 327 328
f 278 330 332
f 279 334 280
f 279 327 334
f 280 334 335
f 280 335 336
f 280 336 281
f 281 336 337
f 281 337 282
f 284 338 285
f 285 338 290
f 286 292 339
f 286 339 340
f 286 340 287
f 287 340 341
f 287 341 342
f 287 342 288
f 288 343 289
f 288 342 343
f 289 343 293
f 290 338 344
f 290 344 404
f 290 404 345
f 290 345 291
f 291 345 346
f 291 346 292
f 292 346 339
f 293 343 329
f 294 347 348
f 294 348 295
f 295 348 349
f 295 349 350
f 295 350 296
f 296 351 297
f 296 350 351
f 297 351 352
f 297 352 353
f 297 353 298
f 298 353 299
f 299 353 354
f 299 354 355
f 299 355 300
f 300 355 356
f 300 356 301
f 301 356 357
f 301 357 302
f 302 357 358
f 302 358 303
f 303 358 359
f 303 359 304
f 304 359 360
f 304 360 361
f 304 361 305
f 305 362 306
f 305 361 362
f 306 362 307
f 307 362 363
f 307 363 308
f 309 364 310
f 309 315 365
f 309 365 361
f 309 361 360
f 309 360 364
f 310 364 314
f 311 314 312
f 312 366 316
f 312 316 313
f 312 314 367
f 312 367 368
f 312 368 366
f 314 364 369
f 314 369 370
f 314 370 371
f 314 371 367
f 315 372 365
f 315 373 372
f 316 366 374
f 316 374 317
f 317 374 375
f 317 375 318
f 318 375 319
f 319 375 376
f 319 376 320
f 320 376 377
f 320 377 321
f 321 377 378
f 321 378 322
f 322 378 379
f 322 379 380
f 322 380 381
f 322 381 323
f 323 381 324
f 324 381 382
f 324 382 383
f 324 383 325
f 325 383 326
f 326 383 384
f 327 385 386
f 327 386 334
f 327 333 385
f 329 343 387
f 329 387 388
f 329 388 389
f 329 389 390
f 329 390 331
f 330 391 392
f 330 392 393
f 330 393 332
f 331 390 394
f 331 394 391
f 332 393 333
f 333 393 385
f 334 395 335
f 334 386 408
f 334 408 395
f 335 395 396
f 335 396 397
f 335 397 336
f 336 397 398
f 336 398 337
f 339 346 399
f 339 399 400
f 339 400 340
f 340 400 401
f 340 401 341
f 341 402 342
f 341 401 403
f 341 403 429
f 341 429 402
f 342 402 387
f 342 387 343
f 345 404 405
f 345 405 406
f 345 406 399
f 345 399 346
f 347 407 397
f 347 397 349
f 347 349 348
f 349 397 396
f 349 396 350
f 350 396 351
f 351 395 408
f 351 408 352
f 351 396 395
f 352 408 409
f 352 409 353
f 353 409 354
f 354 410 411
f 354 411 355
f 354 409 410
f 355 411 412
f 355 412 356
f 356 412 413
f 356 413 357
f 357 413 414
f 357 414 358
f 358 414 415
f 358 415 359
f 359 415 416
f 359 416 360
f 360 416 364
f 361 365 372
f 361 372 363
f 361 363 362
f 363 372 417
f 364 416 369
f 366 368 418
f 366 418 374
f 367 371 419
f 367 419 368
f 368 419 420
f 368 420 418
f 369 416 421
f 369 421 370
f 370 421 422
f 370 422 371
f 371 422 423
f 371 423 419
f 372 373 417
f 374 418 424
f 374 424 375
f 375 424 425
f 375 425 426
f 375 426 427
f 375 427 376
f 376 427 428
f 376 428 377
f 377 428 379
f 377 379 378
f 379 428 429
f 379 429 403
f 379 403 380
f 380 403 401
f 380 401 381
f 381 401 400
f 381 400 382
f 382 400 399
f 382 399 383
f 383 399 406
f 383 406 405
f 383 405 384
f 385 393 386
f 386 393 430
f 386 430 408
f 387 402 431
f 387 431 432
f 387 432 389
f 387 389 388
f 389 433 390
f 389 432 426
f 389 426 433
f 390 433 394
f 391 434 392
f 391 394 435
f 391 435 434
f 392 434 436
f 392 436 437
f 392 437 393
f 393 437 438
f 393 438 430
f 394 433 439
f 394 439 435
f 397 407 398
f 402 429 431
f 408 430 438
f 408 438 409
f 409 438 410
f 410 438 440
f 410 440 441
f 410 441 411
f 411 441 412
f 412 441 442
f 412 442 443
f 412 443 413
f 413 443 414
f 414 443 444
f 414 444 415
f 415 444 421
f 415 421 416
f 418 420 445
f 418 445 424
f 419 423 446
f 419 446 420
f 420 446 447
f 420 447 445
f 421 444 422
f 422 444 443
f 422 443 448
f 422 448 423
f 423 448 446
f 424 445 425
f 425 445 449
f 425 449 450
f 425 450 426
f 426 431 427
f 426 450 433
f 426 432 431
f 427 431 428
f 428 431 429
f 433 450 449
f 433 449 439
f 434 435 451
f 434 451 436
f 435 439 452
f 435 452 451
f 436 451 453
f 436 453 441
f 436 441 440
f 436 440 438
f 436 438 437
f 439 449 447
f 439 447 452
f 441 453 451
f 441 451 454
f 441 454 442
f 442 454 443
f 443 454 448
f 445 447 449
f 446 448 455
f 446 455 452
f 446 452 447
f 448 454 455
f 451 452 455
f 451 455 454
