v -1.00762200 0.10999265 0.00288185
v -1.00762200 0.10999265 0.01002134
v -1.00742579 0.12282457 0.00288185
v -1.00585675 0.10496970 0.00288185
v -1.00266933 0.09596092 0.01002134
v -1.00247324 0.09624562 0.03001188
v -1.00727868 0.10999265 0.03001188
v -1.00727868 0.12998280 0.01002134
v -1.00727868 0.12998280 0.00288185
v -1.00266933 0.09596092 0.00288185
v -0.99521601 0.08595567 0.01002134
v -1.00203192 0.09685569 0.05000241
v -0.99497080 0.08624037 0.03001188
v -1.00644517 0.10999265 0.05000241
v -1.00610185 0.12998280 0.05000241
v -1.00688648 0.12998280 0.03001188
v -1.00208092 0.14265202 0.03001188
v -1.00227714 0.14287572 0.01002134
v -1.00227714 0.14287572 0.00288185
v -0.99521601 0.08595567 0.00288185
v -0.99163640 0.08186816 0.00288185
v -0.98521274 0.07454726 0.01002134
v -0.98496753 0.07479129 0.03001188
v -1.00139451 0.09779114 0.07003053
v -0.99452949 0.08685045 0.05000241
v -0.98452622 0.07523867 0.05000241
v -1.00517023 0.10999265 0.07003053
v -1.00487602 0.12998280 0.07003053
v -1.00060987 0.09903163 0.09002107
v -1.00051177 0.14069977 0.08622587
v -1.00110030 0.14149287 0.07003053
v -1.00168872 0.14220464 0.05000241
v -0.98996919 0.15021697 0.05000241
v -0.98996919 0.15072536 0.03001188
v -0.98996919 0.15094906 0.01002134
v -0.99786389 0.14576341 0.00288185
v -0.98521274 0.07454726 0.00288185
v -0.97516042 0.06454203 0.00288185
v -0.97516042 0.06456236 0.01002134
v -0.97491527 0.06480639 0.03001188
v -0.97447395 0.06523344 0.05000241
v -0.99389201 0.08778590 0.07003053
v -0.98388875 0.07588942 0.07003053
v -1.00355196 0.10999265 0.09002107
v -1.00002146 0.11987587 0.14018530
v -1.00002146 0.12009957 0.14018530
v -1.00007045 0.09984506 0.10091817
v -1.00065887 0.12288558 0.13000214
v -1.00188482 0.12770517 0.11001160
v -1.00266933 0.13189435 0.09174957
v -0.99992341 0.13984567 0.09956542
v -0.99300939 0.08904672 0.09002107
v -0.98653668 0.14635316 0.15003026
v -0.98795873 0.14704457 0.13000214
v -0.98928267 0.14749196 0.11001160
v -0.98996919 0.14942387 0.07003053
v -0.96996266 0.15462984 0.15003026
v -0.96996266 0.15509757 0.13000214
v -0.98996919 0.15092871 0.00288185
v -0.96996266 0.15519924 0.11001160
v -0.96515715 0.05535022 0.00288185
v -0.96515715 0.05535022 0.01002134
v -0.96491200 0.05557391 0.03001188
v -0.96447068 0.05596029 0.05000241
v -0.96378422 0.05655003 0.07003053
v -0.97378743 0.06588419 0.07003053
v -0.98300612 0.07676387 0.09002107
v -1.00159061 0.10954526 0.10854613
v -1.00065887 0.11686616 0.13000214
v -0.99825621 0.10686093 0.13000214
v -0.99688315 0.11192456 0.14811388
v -0.99296033 0.10999265 0.17002079
v -0.98942977 0.10999265 0.19001134
v -0.98045629 0.11784229 0.24190407
v -0.98928267 0.12998280 0.19001134
v -0.99276423 0.12998280 0.17002079
v -0.99663800 0.12805089 0.14811388
v -0.99796200 0.13289082 0.13000214
v -0.98045629 0.12201113 0.24190407
v -0.99928594 0.10259040 0.11425772
v -0.99315649 0.09189374 0.10854613
v -0.98903751 0.08998217 0.13000214
v -0.98550695 0.08864000 0.14837691
v -0.98521274 0.09266651 0.17002079
v -0.98344743 0.09498478 0.19001134
v -0.99928594 0.13769007 0.11001160
v -0.98138797 0.14179792 0.20996429
v -0.98330033 0.14385185 0.19001134
v -0.98501658 0.14533636 0.17002079
v -0.98197639 0.07786200 0.11001160
v -0.98075050 0.07914317 0.13000214
v -0.96996266 0.15210819 0.19001134
v -0.96996266 0.15367405 0.17002079
v -0.94995618 0.15440615 0.24998295
v -0.94995618 0.15505689 0.22999240
v -0.96996266 0.15501621 0.09002107
v -0.96996266 0.15399942 0.00288185
v -0.90999222 0.15487388 0.34997320
v -0.88998568 0.15454850 0.38672274
v -0.95785087 0.04894442 0.00288185
v -0.95373189 0.04536531 0.01002134
v -0.95353580 0.04558901 0.03001188
v -0.95309442 0.04597539 0.05000241
v -0.95240796 0.04656513 0.07003053
v -0.96290153 0.05734313 0.09002107
v -0.97290480 0.06675863 0.09002107
v -0.98035818 0.09943834 0.22161292
v -0.98555601 0.10999265 0.20996429
v -0.98168218 0.11070441 0.22897786
v -0.97878909 0.10450196 0.23495246
v -0.97677863 0.11070441 0.24915627
v -0.97104144 0.10999265 0.26997349
v -0.96157759 0.11383612 0.30473146
v -0.98540890 0.12998280 0.20996429
v -0.98026013 0.14037441 0.22127473
v -0.96157759 0.12622066 0.30473146
v -0.97094339 0.12998280 0.26997349
v -0.97663152 0.12921003 0.24915627
v -0.97859293 0.13535145 0.23461428
v -0.98163313 0.12921003 0.22875239
v -0.98153508 0.09768946 0.20996429
v -0.98006397 0.07989559 0.14059862
v -0.97903425 0.08107507 0.15393817
v -0.97771031 0.08266126 0.17002079
v -0.97589600 0.08497955 0.19001134
v -0.96407843 0.14440091 0.26997349
v -0.96667731 0.14621079 0.24998295
v -0.96996266 0.14970857 0.20996429
v -0.97182602 0.06785677 0.11001160
v -0.96849161 0.06734837 0.13173065
v -0.94995618 0.15261659 0.26997349
v -0.92999870 0.15465018 0.30999213
v -0.96334291 0.15113208 0.00288185
v -0.86865520 0.14663786 0.38672274
v -0.90999222 0.15389775 0.36996377
v -0.90999222 0.15082704 0.38672274
v -0.95373189 0.04536531 0.00288185
v -0.95020133 0.04231494 0.00288185
v -0.94377768 0.03682426 0.01002134
v -0.94353253 0.03700728 0.03001188
v -0.94309115 0.03737333 0.05000241
v -0.94240469 0.03794273 0.07003053
v -0.95152533 0.04735823 0.09002107
v -0.94152206 0.03869516 0.09002107
v -0.96182275 0.05829892 0.11001160
v -0.97388554 0.08770455 0.20996429
v -0.97256154 0.09164971 0.22897786
v -0.96569657 0.08900605 0.24866778
v -0.96417648 0.09429337 0.26997349
v -0.96182275 0.09738442 0.28616881
v -0.95981228 0.10049580 0.29947078
v -0.96427453 0.10828444 0.29169253
v -0.95799798 0.10828444 0.31081882
v -0.95157433 0.10999265 0.32998267
v -0.94098270 0.11603239 0.36248606
v -0.95981228 0.13954064 0.29954594
v -0.96182275 0.14218430 0.28624398
v -0.94098270 0.12398371 0.36248606
v -0.95157433 0.12998280 0.32998267
v -0.95794898 0.13173167 0.31081882
v -0.96422553 0.13173167 0.29173011
v -0.95991039 0.06004780 0.13950892
v -0.95907676 0.06082056 0.15003026
v -0.97138470 0.07259502 0.14837691
v -0.96770704 0.07235099 0.17002079
v -0.96589273 0.07405920 0.19001134
v -0.96388227 0.07603177 0.20996429
v -0.96157759 0.07830939 0.22999240
v -0.94794571 0.14665818 0.30999213
v -0.96084207 0.05921403 0.12616937
v -0.92999870 0.15255558 0.32998267
v -0.95147628 0.14594643 0.00288185
v -0.50677288 -0.05255181 0.38672274
v -0.92656624 0.14578375 0.36996377
v -0.92303562 0.14297739 0.38672274
v -0.94377768 0.03682426 0.00288185
v -0.93171495 0.02681902 0.01002134
v -0.93151879 0.02702238 0.03001188
v -0.93107748 0.02736809 0.05000241
v -0.93039095 0.02793749 0.07003053
v -0.91999543 0.01998618 0.08021368
v -0.92798823 0.02724607 0.08814225
v -0.94068843 0.03940691 0.10599095
v -0.91935802 0.02051491 0.09355323
v -0.94838703 0.04670748 0.11158980
v -0.93990386 0.04007799 0.11933050
v -0.96025360 0.07969223 0.24111496
v -0.95843935 0.08168514 0.25441694
v -0.95623273 0.08430847 0.26997349
v -0.95451647 0.09042956 0.29169253
v -0.94706309 0.08872135 0.31010485
v -0.94441515 0.09409001 0.32998267
v -0.94171822 0.09756744 0.34456223
v -0.93916833 0.10271242 0.35790181
v -0.94377768 0.10962661 0.35072476
v -0.93627524 0.10962661 0.36947525
v -0.92906702 0.10993164 0.38672274
v -0.93911934 0.13732404 0.35801452
v -0.94171822 0.14204195 0.34467497
v -0.94436610 0.14446191 0.32998267
v -0.93622625 0.13038951 0.36947525
v -0.94377768 0.13038951 0.35079989
v -0.92896897 0.12672906 0.38672274
v -0.92891991 0.13004380 0.38672274
v -0.95191759 0.05209648 0.13173065
v -0.93911934 0.04072874 0.13000214
v -0.93759918 0.04200990 0.15003026
v -0.94907355 0.05199480 0.15003026
v -0.95736051 0.06234575 0.17002079
v -0.94735730 0.05347932 0.17002079
v -0.95549721 0.06407430 0.19001134
v -0.95333964 0.06602654 0.20996429
v -0.94887739 0.06671796 0.23160818
v -0.63348079 -0.05255181 0.00288185
v -0.73037499 -0.05255181 0.38672274
v -0.92455578 0.14051676 0.38672274
v -0.93171495 0.02681902 0.00288185
v -0.92813534 0.02387032 0.00288185
v -0.92171168 0.01858300 0.01002134
v -0.92151558 0.01876602 0.03001188
v -0.92107421 0.01911173 0.05000241
v -0.92038774 0.01966080 0.07003053
v -0.90999222 0.01120109 0.07003053
v -0.91161036 0.01378374 0.08814225
v -0.91847533 0.02126733 0.11001160
v -0.90847206 0.01309232 0.11001160
v -0.91715139 0.02234513 0.13000214
v -0.92911607 0.03235037 0.13000214
v -0.95108402 0.07292040 0.24866778
v -0.94627851 0.07391685 0.26997349
v -0.94328731 0.07672320 0.28996402
v -0.94112980 0.07879745 0.30349144
v -0.93887413 0.08119708 0.31683099
v -0.93642235 0.08408478 0.32998267
v -0.93362737 0.09053124 0.35072476
v -0.92563450 0.08953478 0.36872375
v -0.92293757 0.09555420 0.38672274
v -0.91568029 0.02360596 0.15003026
v -0.93588299 0.04351475 0.17002079
v -0.91396409 0.02504980 0.17002079
v -0.92587972 0.03505504 0.17002079
v -0.94549394 0.05516719 0.19001134
v -0.94333637 0.05701776 0.20996429
v -0.94147301 0.05866496 0.22604690
v -0.93980581 0.06012914 0.23938645
v -0.82540590 -0.05255181 0.00288185
v -0.74577218 -0.04329899 0.38672274
v -0.73905426 -0.05255181 0.36996377
v -0.92171168 0.01858300 0.00288185
v -0.90999222 0.00910649 0.01002134
v -0.90999222 0.00943187 0.03001188
v -0.90999222 0.01012329 0.05000241
v -0.89866495 0.00101282 0.05000241
v -0.89797848 0.00154156 0.07003053
v -0.89709586 0.00223298 0.09002107
v -0.90714812 0.01412945 0.13000214
v -0.89601707 0.00308708 0.11001160
v -0.90567708 0.01534960 0.15003026
v -0.93838376 0.06138996 0.24998295
v -0.93558872 0.06391161 0.26997349
v -0.93254852 0.06671796 0.28996402
v -0.92975354 0.07009371 0.30939090
v -0.92641914 0.07379483 0.32998267
v -0.92264336 0.07735361 0.34997320
v -0.92048579 0.07948887 0.36120850
v -0.91769075 0.08255959 0.37454805
v -0.91509187 0.08579299 0.38672274
v -0.90396082 0.01675277 0.17002079
v -0.93392158 0.04518229 0.19001134
v -0.92391831 0.03666157 0.19001134
v -0.91205168 0.02667667 0.19001134
v -0.90204847 0.01829830 0.19001134
v -0.93176401 0.04705319 0.20996429
v -0.92038774 0.03965094 0.22172564
v -0.91876954 0.04105411 0.23506519
v -0.91680813 0.04272166 0.24998295
v -0.92838055 0.05270656 0.24998295
v -0.82545495 -0.05255181 0.00536188
v -0.82996619 -0.04954210 0.00288185
v -0.75557929 -0.03719824 0.38672274
v -0.75822717 -0.03886577 0.37646443
v -0.75096995 -0.04539359 0.36988860
v -0.74851817 -0.05255181 0.35061198
v -0.90999222 0.00910649 0.00288185
v -0.89930248 0.00052477 0.01002134
v -0.89910632 0.00068745 0.03001188
v -0.88866174 -0.00661312 0.05000241
v -0.88797522 -0.00610472 0.07003053
v -0.88709259 -0.00543364 0.09002107
v -0.88601381 -0.00459987 0.11001160
v -0.89469314 0.00414455 0.13000214
v -0.88468987 -0.00358308 0.13000214
v -0.89312398 0.00534436 0.15003026
v -0.92558551 0.05510619 0.26997349
v -0.92254531 0.05772951 0.28996402
v -0.92063290 0.05939705 0.30198842
v -0.91837728 0.06141030 0.31529039
v -0.91572934 0.06378960 0.32998267
v -0.91195363 0.06734837 0.34997320
v -0.89998895 0.05998679 0.36000606
v -0.90886438 0.07096815 0.36729586
v -0.90503961 0.07501499 0.38672274
v -0.89135867 0.00674754 0.17002079
v -0.92176074 0.03849180 0.20996429
v -0.90072447 0.01941677 0.20316300
v -0.88027668 -0.00020733 0.18136880
v -0.88812232 0.00715425 0.18884647
v -0.90842307 0.02718507 0.20988914
v -0.89915538 0.02067759 0.21650255
v -0.91121811 0.03342817 0.22901542
v -0.89743912 0.02204010 0.22999240
v -0.90680492 0.03424161 0.24998295
v -0.91401315 0.04514162 0.26997349
v -0.90400988 0.03662090 0.26997349
v -0.82550395 -0.05255181 0.01002134
v -0.84217602 -0.04148910 0.01002134
v -0.84212703 -0.04144843 0.00288185
v -0.77063316 -0.02729468 0.38672274
v -0.76151258 -0.04098070 0.36312488
v -0.76891696 -0.03396484 0.36988860
v -0.74949884 -0.05255181 0.34858289
v -0.89930248 0.00054510 0.00288185
v -0.88929921 -0.00704017 0.00288185
v -0.88929921 -0.00704017 0.01002134
v -0.88910306 -0.00691815 0.03001188
v -0.87547117 -0.01661836 0.05000241
v -0.87483370 -0.01610996 0.07003053
v -0.87395108 -0.01543888 0.09002107
v -0.87287229 -0.01460510 0.11001160
v -0.88312072 -0.00240360 0.15003026
v -0.87149930 -0.01358832 0.13000214
v -0.86051536 -0.02038049 0.14315382
v -0.88135546 -0.00104110 0.17002079
v -0.90901148 0.04642278 0.29116645
v -0.89954764 0.04036270 0.29864413
v -0.91102195 0.05325563 0.30916548
v -0.90572608 0.05506552 0.32998267
v -0.90195036 0.05829892 0.34997320
v -0.89027989 0.05482148 0.36800981
v -0.89714491 0.06242709 0.37334561
v -0.88871074 0.04737856 0.34982291
v -0.87846231 0.04121680 0.35636115
v -0.89415371 0.06507076 0.38672274
v -0.89150578 0.01339736 0.20988914
v -0.87885463 0.00087047 0.19470836
v -0.86997920 -0.00964316 0.17002079
v -0.85811257 -0.01859093 0.17002079
v -0.85605311 -0.01708608 0.19001134
v -0.87130314 -0.00579968 0.18884647
v -0.88748491 0.01410911 0.22999240
v -0.88473892 0.01622404 0.24998295
v -0.89474213 0.02423637 0.24998295
v -0.90165615 0.03857314 0.28530458
v -0.89180005 0.02663600 0.26997349
v -0.82525879 -0.05255181 0.03001188
v -0.82996619 -0.04942008 0.03001188
v -0.84202892 -0.04138742 0.03001188
v -0.85203218 -0.03437155 0.03001188
v -0.85213023 -0.03449357 0.01002134
v -0.85213023 -0.03447323 0.00288185
v -0.77622324 -0.02359355 0.38672274
v -0.79824018 -0.01881463 0.35617328
v -0.79093391 -0.02566781 0.34971017
v -0.77455604 -0.03642548 0.34997320
v -0.76455277 -0.04291261 0.34997320
v -0.78166616 -0.02111258 0.38330328
v -0.78490251 -0.02330885 0.36996377
v -0.75038147 -0.05255181 0.34666651
v -0.87601054 -0.01702508 0.00288185
v -0.87605959 -0.01704541 0.01002134
v -0.87586343 -0.01692340 0.03001188
v -0.86546791 -0.02410195 0.05000241
v -0.86483049 -0.02361389 0.07003053
v -0.86394781 -0.02296314 0.09002107
v -0.86286902 -0.02212937 0.11001160
v -0.86149603 -0.02113292 0.13000214
v -0.86831200 -0.01364932 0.14987995
v -0.84997267 -0.02947062 0.13000214
v -0.85159087 -0.02597285 0.14987995
v -0.85933846 -0.01952638 0.15649337
v -0.88017857 0.01984382 0.28056997
v -0.87792295 0.02163338 0.29390952
v -0.88753390 0.03391623 0.30999213
v -0.89753717 0.04203024 0.30999213
v -0.89381045 0.04508061 0.32998267
v -0.87552023 0.04355542 0.36996377
v -0.88444471 0.05679406 0.38672274
v -0.88120830 0.03900019 0.34302163
v -0.87105799 0.03316380 0.34982291
v -0.85718089 0.02220278 0.34997320
v -0.86551696 0.03558377 0.36996377
v -0.87708932 0.00219230 0.20996429
v -0.87463754 0.00410387 0.22999240
v -0.86713511 -0.00539297 0.20996429
v -0.84810936 -0.02585083 0.17002079
v -0.84604985 -0.02436632 0.19001134
v -0.85374844 -0.01537787 0.20996429
v -0.84374517 -0.02269877 0.20996429
v -0.87189156 0.00623914 0.24998295
v -0.86031920 -0.00024800 0.26106793
v -0.88179678 0.01856266 0.26997349
v -0.82447422 -0.05255181 0.05000241
v -0.82996619 -0.04893202 0.05000241
v -0.84163666 -0.04114340 0.05000241
v -0.85163987 -0.03408685 0.05000241
v -0.86586022 -0.02436632 0.03001188
v -0.86605632 -0.02448833 0.01002134
v -0.86600733 -0.02446800 0.00288185
v -0.78078353 -0.02054317 0.38672274
v -0.80123138 -0.02086855 0.34283373
v -0.79490578 -0.01655735 0.36996377
v -0.81074429 -0.00571834 0.36940011
v -0.82109076 -0.00077673 0.36233580
v -0.80873382 -0.01348664 0.34971017
v -0.77789044 -0.03862175 0.33509302
v -0.77073127 -0.04484452 0.32904327
v -0.75798202 -0.05255181 0.32971963
v -0.78539288 -0.01741146 0.38672274
v -0.78995317 -0.01430007 0.38672274
v -0.87243098 -0.01968907 0.00288185
v -0.85100245 -0.03361913 0.07003053
v -0.84820741 -0.03426988 0.09062228
v -0.84997267 -0.03144319 0.11001160
v -0.83756667 -0.03833704 0.13000214
v -0.83589947 -0.03717790 0.15003026
v -0.87076378 0.01455650 0.28834826
v -0.86816490 0.00764231 0.26862073
v -0.85821068 0.00133820 0.27440748
v -0.86502659 0.01604102 0.30999213
v -0.87502986 0.02391099 0.30999213
v -0.88380718 0.03694627 0.32998267
v -0.86223155 0.03822743 0.38488150
v -0.86438912 0.04060673 0.38672274
v -0.85953462 0.02037255 0.33881307
v -0.85286582 0.02557853 0.36996377
v -0.84717768 0.01447516 0.34997320
v -0.84286255 0.01778990 0.36996377
v -0.86463434 -0.00350173 0.22999240
v -0.86188835 -0.00144781 0.24998295
v -0.83398712 -0.03585607 0.17002079
v -0.83182955 -0.03437155 0.19001134
v -0.84168565 -0.02119392 0.22623479
v -0.84899199 -0.01474746 0.23175849
v -0.82045329 -0.04030962 0.20184784
v -0.82824993 -0.03363946 0.20910004
v -0.84997267 -0.01025324 0.24998295
v -0.83830225 -0.01879429 0.24998295
v -0.85090435 -0.00541331 0.26862073
v -0.82393479 -0.05255181 0.05860737
v -0.84099919 -0.04069600 0.07003053
v -0.82996619 -0.04805758 0.07003053
v -0.81398058 -0.01578458 0.32998267
v -0.80397737 -0.02273945 0.32998267
v -0.78843307 -0.03337510 0.32904327
v -0.80549747 -0.00358308 0.38672274
v -0.81795245 0.00146021 0.37567532
v -0.82864225 0.00711358 0.36940011
v -0.83384001 0.00446992 0.34997320
v -0.82383674 -0.00274931 0.34997320
v -0.78073448 -0.04049265 0.32179105
v -0.76999569 -0.05029453 0.30999213
v -0.76636708 -0.05255181 0.30999213
v -0.84041077 -0.04028929 0.08434706
v -0.83972424 -0.03982157 0.09764903
v -0.83898872 -0.03929283 0.11001160
v -0.82756346 -0.04508854 0.13000214
v -0.82589626 -0.04399041 0.15003026
v -0.82398385 -0.04270925 0.17002079
v -0.85561180 0.00331078 0.28996402
v -0.84565759 -0.00417282 0.28996402
v -0.85203218 0.00603578 0.30999213
v -0.86213350 0.01831863 0.32547355
v -0.86929268 0.02578189 0.33129784
v -0.86179024 0.03855281 0.38672274
v -0.84041077 0.01968114 0.38093600
v -0.85737705 0.03507537 0.38672274
v -0.84982556 0.01012329 0.32956934
v -0.83737057 0.00190760 0.33366513
v -0.83987135 -0.01991276 0.23957434
v -0.82182628 -0.04124507 0.19001134
v -0.81873703 -0.03915048 0.21518739
v -0.83192760 -0.02692863 0.23175849
v -0.80995971 -0.04907437 0.19001134
v -0.81123459 -0.04516989 0.20910004
v -0.83511490 -0.01657768 0.26997349
v -0.82829899 -0.02574915 0.24998295
v -0.82511169 -0.02357322 0.26997349
v -0.82315028 -0.05255181 0.07003053
v -0.82133591 -0.05255181 0.09024652
v -0.81800151 -0.01861127 0.30999213
v -0.83040750 -0.00468121 0.32817900
v -0.84011656 -0.00008531 0.32032558
v -0.80799824 -0.02550513 0.30999213
v -0.79314047 -0.03549003 0.30999213
v -0.81525552 0.00341246 0.38672274
v -0.83271217 0.01612236 0.38672274
v -0.78313726 -0.04201783 0.30999213
v -0.76960343 -0.05255181 0.30168778
v -0.77382052 -0.05255181 0.29086584
v -0.83182955 -0.04557661 0.09062228
v -0.82898545 -0.04600366 0.11001160
v -0.81628525 -0.05255181 0.13000214
v -0.81265664 -0.05255181 0.15127027
v -0.80971450 -0.05255181 0.16656378
v -0.80995971 -0.05194173 0.17002079
v -0.80858672 -0.05255181 0.17208749
v -0.84207797 -0.00152916 0.30999213
v -0.82937777 -0.01531686 0.29195556
v -0.83898872 0.02073860 0.38672274
v -0.84668732 0.02669700 0.38672274
v -0.81667757 -0.03776764 0.22999240
v -0.81378448 -0.03575439 0.24998295
v -0.80672336 -0.04445814 0.22999240
v -0.80461478 -0.05255181 0.19001134
v -0.79966223 -0.05255181 0.20970125
v -0.82231665 -0.02162097 0.28661972
v -0.80147654 -0.04100104 0.26452494
v -0.80888093 -0.03455458 0.27068743
v -0.81981581 -0.05255181 0.10358607
v -0.82996619 -0.01015156 0.30999213
v -0.81996292 -0.01997377 0.29995930
v -0.79701430 -0.03805234 0.28996402
v -0.78701103 -0.04445814 0.28996402
v -0.79152232 -0.04598332 0.27068743
v -0.78122485 -0.05255181 0.27027410
v -0.81908029 -0.05255181 0.11001160
v -0.81706983 -0.05255181 0.12440329
v -0.80902803 -0.05255181 0.17002079
v -0.80378121 -0.04250590 0.24998295
v -0.79367989 -0.05255181 0.23108211
v -0.78965896 -0.05255181 0.24453440
v -0.79922092 -0.03951652 0.27782691
v -0.81197011 -0.02741669 0.29195556
v -0.78995317 -0.05131131 0.24998295
v -0.78799176 -0.05255181 0.24998295
f 1 2 3
f 1 3 9
f 1 9 19
f 1 19 36
f 1 36 59
f 1 59 97
f 1 97 133
f 1 133 172
f 1 172 214
f 1 214 246
f 1 246 279
f 1 279 317
f 1 317 360
f 1 360 408
f 1 408 420
f 1 420 369
f 1 369 323
f 1 323 322
f 1 322 284
f 1 284 249
f 1 249 218
f 1 218 217
f 1 217 176
f 1 176 138
f 1 138 137
f 1 137 100
f 1 100 61
f 1 61 38
f 1 38 37
f 1 37 21
f 1 21 20
f 1 20 10
f 1 10 4
f 1 4 2
f 2 4 5
f 2 5 6
f 2 6 7
f 2 7 8
f 2 8 3
f 3 8 9
f 4 10 5
f 5 10 20
f 5 20 11
f 5 11 6
f 6 12 7
f 6 11 13
f 6 13 25
f 6 25 12
f 7 14 15
f 7 15 16
f 7 16 8
f 7 12 14
f 8 16 17
f 8 17 18
f 8 18 19
f 8 19 9
f 11 20 21
f 11 21 22
f 11 22 23
f 11 23 13
f 12 24 14
f 12 25 42
f 12 42 24
f 13 23 26
f 13 26 25
f 14 27 28
f 14 28 15
f 14 24 29
f 14 29 27
f 15 28 30
f 15 30 31
f 15 31 32
f 15 32 16
f 16 32 17
f 17 32 33
f 17 33 34
f 17 34 18
f 18 34 35
f 18 35 19
f 19 35 36
f 21 37 22
f 22 37 38
f 22 38 39
f 22 39 40
f 22 40 23
f 23 40 41
f 23 41 26
f 24 42 29
f 25 26 43
f 25 43 42
f 26 41 43
f 27 44 45
f 27 45 46
f 27 46 28
f 27 29 47
f 27 47 44
f 28 46 48
f 28 48 49
f 28 49 50
f 28 50 51
f 28 51 30
f 29 42 52
f 29 52 47
f 30 51 53
f 30 53 54
f 30 54 31
f 31 54 55
f 31 55 56
f 31 56 32
f 32 56 33
f 33 56 57
f 33 57 34
f 34 57 58
f 34 58 35
f 35 59 36
f 35 58 60
f 35 60 59
f 38 61 62
f 38 62 39
f 39 62 63
f 39 63 40
f 40 63 64
f 40 64 41
f 41 64 65
f 41 65 66
f 41 66 43
f 42 43 67
f 42 67 52
f 43 66 106
f 43 106 67
f 44 47 68
f 44 68 69
f 44 69 45
f 45 69 70
f 45 70 71
f 45 71 72
f 45 72 73
f 45 73 74
f 45 74 79
f 45 79 46
f 46 75 76
f 46 76 77
f 46 77 78
f 46 78 48
f 46 79 75
f 47 80 68
f 47 52 81
f 47 81 82
f 47 82 83
f 47 83 84
f 47 84 85
f 47 85 80
f 48 78 86
f 48 86 49
f 49 86 51
f 49 51 50
f 51 86 87
f 51 87 88
f 51 88 89
f 51 89 53
f 52 67 90
f 52 90 91
f 52 91 81
f 53 89 92
f 53 92 93
f 53 93 54
f 54 93 56
f 54 56 55
f 56 93 57
f 57 93 94
f 57 94 95
f 57 95 58
f 58 95 60
f 59 60 96
f 59 96 97
f 60 95 98
f 60 98 99
f 60 99 96
f 61 100 62
f 62 100 101
f 62 101 102
f 62 102 63
f 63 102 103
f 63 103 64
f 64 103 104
f 64 104 65
f 65 104 143
f 65 143 105
f 65 105 66
f 66 105 106
f 67 106 90
f 68 80 69
f 69 80 70
f 70 80 72
f 70 72 71
f 72 80 107
f 72 107 73
f 73 108 74
f 73 107 108
f 74 108 109
f 74 109 110
f 74 110 111
f 74 111 112
f 74 112 113
f 74 113 116
f 74 116 79
f 75 79 114
f 75 114 115
f 75 115 76
f 76 86 78
f 76 78 77
f 76 115 86
f 79 116 117
f 79 117 118
f 79 118 119
f 79 119 120
f 79 120 114
f 80 85 121
f 80 121 107
f 81 91 122
f 81 122 82
f 82 122 83
f 83 122 123
f 83 123 84
f 84 123 124
f 84 124 85
f 85 124 125
f 85 125 121
f 86 115 87
f 87 115 126
f 87 126 127
f 87 127 88
f 88 127 128
f 88 128 89
f 89 128 92
f 90 106 129
f 90 129 91
f 91 129 130
f 91 130 122
f 92 128 131
f 92 131 94
f 92 94 93
f 94 131 132
f 94 132 95
f 95 132 98
f 96 99 97
f 97 99 134
f 97 134 133
f 98 135 99
f 98 132 135
f 99 135 136
f 99 136 175
f 99 175 216
f 99 216 204
f 99 204 203
f 99 203 197
f 99 197 237
f 99 237 267
f 99 267 302
f 99 302 343
f 99 343 387
f 99 387 433
f 99 433 474
f 99 474 476
f 99 476 510
f 99 510 509
f 99 509 496
f 99 496 495
f 99 495 455
f 99 455 419
f 99 419 418
f 99 418 409
f 99 409 361
f 99 361 318
f 99 318 280
f 99 280 247
f 99 247 215
f 99 215 173
f 99 173 134
f 100 137 101
f 101 137 138
f 101 138 139
f 101 139 102
f 102 139 140
f 102 140 141
f 102 141 103
f 103 141 142
f 103 142 104
f 104 142 144
f 104 144 143
f 105 143 145
f 105 145 106
f 106 145 129
f 107 146 147
f 107 147 148
f 107 148 149
f 107 149 150
f 107 150 151
f 107 151 110
f 107 110 109
f 107 109 108
f 107 121 146
f 110 151 112
f 110 112 111
f 112 151 152
f 112 152 113
f 113 152 151
f 113 151 153
f 113 153 154
f 113 154 155
f 113 155 158
f 113 158 116
f 114 120 115
f 115 119 156
f 115 156 157
f 115 157 126
f 115 120 119
f 116 158 159
f 116 159 160
f 116 160 156
f 116 156 161
f 116 161 117
f 117 119 118
f 117 161 156
f 117 156 119
f 121 125 146
f 122 130 162
f 122 162 163
f 122 163 164
f 122 164 165
f 122 165 123
f 123 165 166
f 123 166 124
f 124 166 167
f 124 167 125
f 125 167 168
f 125 168 146
f 126 157 169
f 126 169 131
f 126 131 127
f 127 131 128
f 129 145 170
f 129 170 130
f 130 170 162
f 131 169 171
f 131 171 132
f 132 171 135
f 133 134 172
f 134 173 172
f 135 171 136
f 136 171 174
f 136 174 175
f 138 176 139
f 139 176 217
f 139 217 177
f 139 177 178
f 139 178 140
f 140 178 179
f 140 179 141
f 141 179 180
f 141 180 142
f 142 180 181
f 142 181 182
f 142 182 144
f 143 144 183
f 143 183 145
f 144 182 184
f 144 184 183
f 145 183 185
f 145 185 186
f 145 186 170
f 146 168 187
f 146 187 147
f 147 187 148
f 148 187 188
f 148 188 149
f 149 188 189
f 149 189 150
f 150 189 190
f 150 190 191
f 150 191 151
f 151 154 153
f 151 191 192
f 151 192 193
f 151 193 194
f 151 194 154
f 154 194 195
f 154 195 155
f 155 195 194
f 155 194 196
f 155 196 197
f 155 197 158
f 156 160 159
f 156 159 198
f 156 198 199
f 156 199 157
f 157 199 200
f 157 200 169
f 158 201 198
f 158 198 202
f 158 202 159
f 158 197 203
f 158 203 204
f 158 204 201
f 159 202 198
f 162 170 205
f 162 205 206
f 162 206 207
f 162 207 208
f 162 208 163
f 163 209 165
f 163 165 164
f 163 208 210
f 163 210 209
f 165 209 166
f 166 209 211
f 166 211 167
f 167 211 212
f 167 212 168
f 168 212 213
f 168 213 187
f 169 200 171
f 170 186 205
f 171 200 174
f 172 173 214
f 173 215 248
f 173 248 283
f 173 283 321
f 173 321 368
f 173 368 417
f 173 417 462
f 173 462 498
f 173 498 499
f 173 499 525
f 173 525 535
f 173 535 531
f 173 531 530
f 173 530 515
f 173 515 514
f 173 514 506
f 173 506 528
f 173 528 504
f 173 504 503
f 173 503 502
f 173 502 527
f 173 527 526
f 173 526 519
f 173 519 489
f 173 489 488
f 173 488 449
f 173 449 402
f 173 402 355
f 173 355 315
f 173 315 278
f 173 278 246
f 173 246 214
f 174 200 199
f 174 199 175
f 175 199 198
f 175 198 216
f 177 217 218
f 177 218 219
f 177 219 220
f 177 220 178
f 178 220 221
f 178 221 179
f 179 221 222
f 179 222 180
f 180 222 181
f 181 222 223
f 181 223 224
f 181 224 184
f 181 184 182
f 183 186 185
f 183 184 225
f 183 225 186
f 184 224 226
f 184 226 225
f 186 225 227
f 186 227 228
f 186 228 206
f 186 206 205
f 187 213 229
f 187 229 230
f 187 230 188
f 188 230 231
f 188 231 189
f 189 231 232
f 189 232 190
f 190 232 233
f 190 233 191
f 191 233 192
f 192 233 234
f 192 234 193
f 193 234 235
f 193 235 236
f 193 236 237
f 193 237 194
f 194 237 197
f 194 197 196
f 198 201 204
f 198 204 216
f 206 228 238
f 206 238 207
f 207 239 210
f 207 210 208
f 207 238 240
f 207 240 241
f 207 241 239
f 209 210 242
f 209 242 211
f 210 239 242
f 211 242 243
f 211 243 212
f 212 243 244
f 212 244 213
f 213 244 245
f 213 245 229
f 215 247 248
f 218 249 219
f 219 249 284
f 219 284 250
f 219 250 251
f 219 251 220
f 220 251 252
f 220 252 221
f 221 252 223
f 221 223 222
f 223 253 254
f 223 254 255
f 223 255 224
f 223 252 253
f 224 255 226
f 225 226 256
f 225 256 227
f 226 255 257
f 226 257 256
f 227 238 228
f 227 256 258
f 227 258 238
f 229 245 259
f 229 259 260
f 229 260 230
f 230 260 231
f 231 260 261
f 231 261 232
f 232 261 262
f 232 262 263
f 232 263 233
f 233 263 264
f 233 264 265
f 233 265 234
f 234 265 235
f 235 265 266
f 235 266 236
f 236 266 237
f 237 266 267
f 238 258 268
f 238 268 240
f 239 269 242
f 239 241 270
f 239 270 269
f 240 271 241
f 240 268 272
f 240 272 271
f 241 271 270
f 242 269 243
f 243 269 273
f 243 273 244
f 244 273 274
f 244 274 275
f 244 275 245
f 245 275 276
f 245 276 277
f 245 277 259
f 246 278 279
f 247 280 281
f 247 281 282
f 247 282 248
f 248 282 283
f 250 284 285
f 250 285 286
f 250 286 251
f 251 286 253
f 251 253 252
f 253 286 287
f 253 287 288
f 253 288 254
f 254 288 289
f 254 289 255
f 255 289 290
f 255 290 257
f 256 257 291
f 256 291 258
f 257 290 292
f 257 292 291
f 258 291 293
f 258 293 268
f 259 277 294
f 259 294 260
f 260 294 295
f 260 295 261
f 261 295 296
f 261 296 262
f 262 296 297
f 262 297 298
f 262 298 263
f 263 298 299
f 263 299 264
f 264 299 265
f 265 299 300
f 265 300 301
f 265 301 302
f 265 302 266
f 266 302 267
f 268 293 303
f 268 303 272
f 269 270 304
f 269 304 273
f 270 271 305
f 270 305 304
f 271 272 305
f 272 303 306
f 272 306 307
f 272 307 305
f 273 304 274
f 274 304 308
f 274 308 309
f 274 309 310
f 274 310 275
f 275 310 311
f 275 311 312
f 275 312 276
f 276 313 294
f 276 294 277
f 276 312 314
f 276 314 313
f 278 315 279
f 279 316 317
f 279 315 316
f 280 318 281
f 281 319 282
f 281 318 320
f 281 320 319
f 282 319 283
f 283 319 321
f 284 322 285
f 285 322 323
f 285 323 324
f 285 324 325
f 285 325 286
f 286 325 287
f 287 325 326
f 287 326 327
f 287 327 288
f 288 327 328
f 288 328 289
f 289 328 329
f 289 329 290
f 290 329 292
f 291 292 330
f 291 330 293
f 292 329 331
f 292 331 332
f 292 332 330
f 293 330 333
f 293 333 303
f 294 313 295
f 295 313 334
f 295 334 296
f 296 334 335
f 296 335 336
f 296 336 297
f 297 336 337
f 297 337 298
f 298 337 338
f 298 338 300
f 298 300 299
f 300 339 340
f 300 340 301
f 300 338 341
f 300 341 342
f 300 342 339
f 301 340 302
f 302 340 343
f 303 333 306
f 304 305 308
f 305 344 309
f 305 309 308
f 305 307 345
f 305 345 344
f 306 333 346
f 306 346 347
f 306 347 348
f 306 348 349
f 306 349 345
f 306 345 307
f 309 344 350
f 309 350 311
f 309 311 310
f 311 350 351
f 311 351 352
f 311 352 312
f 312 352 314
f 313 314 353
f 313 353 334
f 314 352 354
f 314 354 353
f 315 355 316
f 316 356 357
f 316 357 358
f 316 358 359
f 316 359 360
f 316 360 317
f 316 355 356
f 318 361 320
f 319 320 362
f 319 362 363
f 319 363 364
f 319 364 365
f 319 365 321
f 320 361 366
f 320 366 367
f 320 367 362
f 321 365 368
f 323 369 370
f 323 370 324
f 324 370 371
f 324 371 325
f 325 371 326
f 326 371 372
f 326 372 373
f 326 373 327
f 327 373 374
f 327 374 328
f 328 374 375
f 328 375 329
f 329 375 376
f 329 376 331
f 330 332 377
f 330 377 333
f 331 376 332
f 332 376 378
f 332 378 379
f 332 379 380
f 332 380 377
f 333 377 346
f 334 353 335
f 335 353 381
f 335 381 382
f 335 382 383
f 335 383 384
f 335 384 336
f 336 384 337
f 337 384 385
f 337 385 338
f 338 385 341
f 339 342 386
f 339 386 387
f 339 387 340
f 340 387 343
f 341 388 342
f 341 385 388
f 342 389 390
f 342 390 391
f 342 391 386
f 342 388 389
f 344 345 392
f 344 392 393
f 344 393 350
f 345 349 394
f 345 394 392
f 346 377 380
f 346 380 347
f 347 380 395
f 347 395 396
f 347 396 348
f 348 397 394
f 348 394 349
f 348 396 398
f 348 398 397
f 350 393 351
f 351 393 399
f 351 399 400
f 351 400 401
f 351 401 352
f 352 401 354
f 353 354 381
f 354 401 381
f 355 402 403
f 355 403 356
f 356 403 357
f 357 403 404
f 357 404 358
f 358 404 405
f 358 405 372
f 358 372 406
f 358 406 407
f 358 407 359
f 359 407 360
f 360 407 408
f 361 409 366
f 362 410 363
f 362 367 411
f 362 411 412
f 362 412 413
f 362 413 414
f 362 414 410
f 363 410 415
f 363 415 364
f 364 415 365
f 365 415 416
f 365 416 417
f 365 417 368
f 366 409 418
f 366 418 419
f 366 419 411
f 366 411 367
f 369 420 370
f 370 420 407
f 370 407 406
f 370 406 371
f 371 406 372
f 372 405 421
f 372 421 373
f 373 421 374
f 374 421 422
f 374 422 423
f 374 423 375
f 375 423 378
f 375 378 376
f 378 423 424
f 378 424 425
f 378 425 379
f 379 425 395
f 379 395 380
f 381 426 382
f 381 401 427
f 381 427 428
f 381 428 426
f 382 426 429
f 382 429 430
f 382 430 383
f 383 430 431
f 383 431 384
f 384 431 385
f 385 431 388
f 386 391 432
f 386 432 433
f 386 433 387
f 388 431 434
f 388 434 389
f 389 434 390
f 390 435 391
f 390 434 436
f 390 436 437
f 390 437 435
f 391 435 432
f 392 394 393
f 393 394 438
f 393 438 439
f 393 439 399
f 394 397 438
f 395 425 440
f 395 440 396
f 396 440 441
f 396 441 398
f 397 398 442
f 397 442 443
f 397 443 438
f 398 441 444
f 398 444 445
f 398 445 442
f 399 439 400
f 400 427 401
f 400 439 446
f 400 446 447
f 400 447 448
f 400 448 428
f 400 428 427
f 402 449 403
f 403 450 404
f 403 449 451
f 403 451 450
f 404 450 405
f 405 450 421
f 407 420 408
f 410 414 452
f 410 452 453
f 410 453 454
f 410 454 415
f 411 419 455
f 411 455 412
f 412 455 456
f 412 456 413
f 413 456 457
f 413 457 458
f 413 458 459
f 413 459 414
f 414 459 452
f 415 454 460
f 415 460 416
f 416 461 462
f 416 462 417
f 416 460 461
f 421 450 463
f 421 463 422
f 422 463 464
f 422 464 423
f 423 464 465
f 423 465 424
f 424 465 466
f 424 466 467
f 424 467 425
f 425 467 468
f 425 468 440
f 426 428 469
f 426 469 429
f 428 448 470
f 428 470 469
f 429 469 471
f 429 471 472
f 429 472 430
f 430 473 431
f 430 472 473
f 431 473 434
f 432 474 433
f 432 435 475
f 432 475 476
f 432 476 474
f 434 472 477
f 434 477 478
f 434 478 436
f 434 473 472
f 435 437 475
f 436 478 458
f 436 458 437
f 437 458 457
f 437 457 475
f 438 443 439
f 439 443 479
f 439 479 446
f 440 468 480
f 440 480 441
f 441 480 444
f 442 445 481
f 442 481 482
f 442 482 479
f 442 479 443
f 444 481 445
f 444 480 483
f 444 483 484
f 444 484 481
f 446 479 447
f 447 485 448
f 447 479 486
f 447 486 487
f 447 487 485
f 448 485 470
f 449 488 451
f 450 451 463
f 451 488 489
f 451 489 463
f 452 490 453
f 452 459 478
f 452 478 491
f 452 491 492
f 452 492 490
f 453 490 493
f 453 493 494
f 453 494 454
f 454 494 460
f 455 495 456
f 456 495 496
f 456 496 475
f 456 475 457
f 458 478 459
f 460 494 497
f 460 497 461
f 461 498 462
f 461 497 499
f 461 499 498
f 463 489 500
f 463 500 464
f 464 500 501
f 464 501 465
f 465 501 466
f 466 501 502
f 466 502 467
f 467 502 503
f 467 503 504
f 467 504 468
f 468 504 505
f 468 505 506
f 468 506 483
f 468 483 480
f 469 470 507
f 469 507 471
f 470 485 508
f 470 508 507
f 471 507 492
f 471 492 472
f 472 492 477
f 475 496 509
f 475 509 510
f 475 510 476
f 477 492 478
f 478 492 491
f 479 482 511
f 479 511 512
f 479 512 486
f 481 511 482
f 481 484 513
f 481 513 511
f 483 506 514
f 483 514 484
f 484 514 515
f 484 515 513
f 485 487 516
f 485 516 508
f 486 512 487
f 487 512 517
f 487 517 518
f 487 518 516
f 489 519 501
f 489 501 500
f 490 492 520
f 490 520 521
f 490 521 493
f 492 507 520
f 493 522 494
f 493 521 522
f 494 522 497
f 497 523 499
f 497 522 523
f 499 523 524
f 499 524 525
f 501 519 526
f 501 526 527
f 501 527 502
f 504 528 505
f 505 528 506
f 507 508 521
f 507 521 520
f 508 516 521
f 511 513 529
f 511 529 512
f 512 529 517
f 513 515 530
f 513 530 531
f 513 531 529
f 516 518 532
f 516 532 533
f 516 533 521
f 517 534 535
f 517 535 524
f 517 524 532
f 517 532 518
f 517 529 534
f 521 533 522
f 522 533 532
f 522 532 523
f 523 532 524
f 524 535 525
f 529 531 534
f 531 535 534
