v -0.83793575 0.10999127 -0.55234402
v -0.83793575 0.11456705 -0.55234402
v -0.82793152 0.09176949 -0.55234402
v -0.84099436 0.09860265 -0.54163253
v -0.84296978 0.10999127 -0.54466629
v -0.86036575 0.11826835 -0.52067631
v -0.83780831 0.12998235 -0.55234402
v -0.86036575 0.12158325 -0.52067631
v -0.82359844 0.08682764 -0.55234402
v -0.82926965 0.09061028 -0.54891354
v -0.84469020 0.09429125 -0.52998757
v -0.86253226 0.09667066 -0.50431734
v -0.87980080 0.10057533 -0.47967395
v -0.85851777 0.10494774 -0.51764256
v -0.83602411 0.08428553 -0.52998757
v -0.85348380 0.11096743 -0.52840066
v -0.86444390 0.11096743 -0.51059490
v -0.88158500 0.11389594 -0.48282439
v -0.83710736 0.13185334 -0.55234402
v -0.84290606 0.12998235 -0.54454958
v -0.84093070 0.14104557 -0.54149252
v -0.86431646 0.12894517 -0.51043153
v -0.85832667 0.13490386 -0.51738584
v -0.85329264 0.12894517 -0.52840066
v -0.88158500 0.12550825 -0.48282439
v -0.82187796 0.07830651 -0.54284602
v -0.83952880 0.08044188 -0.51925278
v -0.81321180 0.07676092 -0.55234402
v -0.85686105 0.08332971 -0.49470270
v -0.86590946 0.09000018 -0.48882189
v -0.88343287 0.09563348 -0.46632543
v -0.90025538 0.09953815 -0.44060853
v -0.89649582 0.10999127 -0.45344365
v -0.88617289 0.10834399 -0.47178620
v -0.87610495 0.10834399 -0.48968533
v -0.90172100 0.10999127 -0.44345561
v -0.82837754 0.14486891 -0.55234402
v -0.82990682 0.14539766 -0.54889017
v -0.87954593 0.13884920 -0.47927722
v -0.86234111 0.14240815 -0.50403732
v -0.84443533 0.14387240 -0.52998757
v -0.87578630 0.13130425 -0.48968533
v -0.92172951 0.12628105 -0.40385345
v -0.90152979 0.12998235 -0.44305888
v -0.89630461 0.12998235 -0.45304692
v -0.88598180 0.13130425 -0.47155282
v -0.82601982 0.07484926 -0.52998757
v -0.80779552 0.07204278 -0.55234402
v -0.80894250 0.07074122 -0.54844677
v -0.80046755 0.05961698 -0.54072237
v -0.81391275 0.06484354 -0.52998757
v -0.84354323 0.07686260 -0.50592756
v -0.86074805 0.07924201 -0.48137751
v -0.87782538 0.08229253 -0.45601067
v -0.87502170 0.08936974 -0.47178620
v -0.89458418 0.08621754 -0.43001375
v -0.90286791 0.09622325 -0.43001375
v -0.92000902 0.09996521 -0.40004960
v -0.90841174 0.10999127 -0.43001375
v -0.82691193 0.14574338 -0.55234402
v -0.85099864 0.14708561 -0.51043153
v -0.82997060 0.15176308 -0.52998757
v -0.90000045 0.14004907 -0.44009513
v -0.88311434 0.14301825 -0.46592870
v -0.86641926 0.14525530 -0.48998871
v -0.91981786 0.13962200 -0.39974621
v -0.91707784 0.13177200 -0.41031769
v -0.90802944 0.12998235 -0.43001375
v -0.91663182 0.10999127 -0.41293138
v -0.92128348 0.10999127 -0.40292001
v -0.94071853 0.11692612 -0.36182430
v -0.94071853 0.12302716 -0.36182430
v -0.92542535 0.13177200 -0.39185846
v -0.79976660 0.06545365 -0.55234402
v -0.80390847 0.05701387 -0.52998757
v -0.81805468 0.06148797 -0.51687241
v -0.79390419 0.06085753 -0.55234402
v -0.78765953 0.05620040 -0.55234402
v -0.78950745 0.05550895 -0.54842347
v -0.77791011 0.04145621 -0.53689522
v -0.78937995 0.04649974 -0.53012758
v -0.85010660 0.07389343 -0.48882189
v -0.83627903 0.06291155 -0.48998871
v -0.84997910 0.06535196 -0.47150615
v -0.86393416 0.07641519 -0.46998927
v -0.88139379 0.07865224 -0.44266215
v -0.89802516 0.08208916 -0.41603515
v -0.90904891 0.09101702 -0.40803069
v -0.91401923 0.08709201 -0.39001489
v -0.92211187 0.09707739 -0.39001489
v -0.94154692 0.09778918 -0.34408852
v -0.93893433 0.10360551 -0.35741371
v -0.93581200 0.11015396 -0.36910531
v -0.92689097 0.10999127 -0.39001489
v -0.81008947 0.15341036 -0.55234402
v -0.84997910 0.15332901 -0.48998871
v -0.80996203 0.15416282 -0.54998702
v -0.90248561 0.14244881 -0.43001375
v -0.88986874 0.14472654 -0.44805291
v -0.88999617 0.15009546 -0.43001375
v -0.87170815 0.14777707 -0.47155282
v -0.93880689 0.13634777 -0.35743704
v -0.94154692 0.14181837 -0.34408852
v -0.92268533 0.14285555 -0.38639772
v -0.94339478 0.11015396 -0.35045940
v -0.95110512 0.10999127 -0.33001658
v -0.95658517 0.10885240 -0.31396103
v -0.95652145 0.13118222 -0.31396103
v -0.95104140 0.12998235 -0.33001658
v -0.94339478 0.12979932 -0.35045940
v -0.79670799 0.04233069 -0.50998813
v -0.79995775 0.04003263 -0.49995342
v -0.81079042 0.05284482 -0.51012814
v -0.82213283 0.05833576 -0.50354725
v -0.77121937 0.04438471 -0.55234402
v -0.77070963 0.03340283 -0.53012758
v -0.78230691 0.03836501 -0.52357000
v -0.76459235 0.03683975 -0.54648650
v -0.83952880 0.06034911 -0.47918388
v -0.85666990 0.06264716 -0.45398039
v -0.87304628 0.06577904 -0.43001375
v -0.88457990 0.07576441 -0.43001375
v -0.90121120 0.07877426 -0.40268663
v -0.91746020 0.08280095 -0.37421602
v -0.92529792 0.08967479 -0.36852190
v -0.94415951 0.09437260 -0.33001658
v -0.95537448 0.10616794 -0.31396103
v -0.93332684 0.09067130 -0.35045940
v -0.93619430 0.08438722 -0.33001658
v -0.80760431 0.15428483 -0.55234402
v -0.82997060 0.15497629 -0.50998813
v -0.86998767 0.15387811 -0.44998986
v -0.90732849 0.14600776 -0.41001430
v -0.88999617 0.15410182 -0.41001430
v -0.91191638 0.14785841 -0.39185846
v -0.90994108 0.15375608 -0.37001544
v -0.94409573 0.14421812 -0.33001658
v -0.92619002 0.14554001 -0.37001544
v -0.94696319 0.14608911 -0.31396103
v -0.80390847 0.03716514 -0.48660490
v -0.81722629 0.04202564 -0.47523999
v -0.81034434 0.04424235 -0.49197233
v -0.82627475 0.05526491 -0.48998871
v -0.78670371 0.03531449 -0.50998813
v -0.77019984 0.02453598 -0.51136500
v -0.77695429 0.02205489 -0.49516943
v -0.79052699 0.02959985 -0.49089885
v -0.79466885 0.02366150 -0.46998927
v -0.77007240 0.04359157 -0.55234402
v -0.75548017 0.02299038 -0.52998757
v -0.75923973 0.02046862 -0.51894939
v -0.75216663 0.03134881 -0.55234402
v -0.74133396 0.01912639 -0.54186589
v -0.84335208 0.05740027 -0.46585870
v -0.86030197 0.05971867 -0.44065520
v -0.87706077 0.06236245 -0.41414487
v -0.88916785 0.07055819 -0.40842742
v -0.89286369 0.06608409 -0.39001489
v -0.90401495 0.07608980 -0.39001489
v -0.92032766 0.07962841 -0.36086750
v -0.93867946 0.08137737 -0.31643468
v -0.94173807 0.08416352 -0.31396103
v -0.94626224 0.08995950 -0.31396103
v -0.80996203 0.15511864 -0.52998757
v -0.78995347 0.15438652 -0.55234402
v -0.90994108 0.15515932 -0.35001600
v -0.92994958 0.15237319 -0.33001658
v -0.92994958 0.15428483 -0.31396103
v -0.94422317 0.14769572 -0.31396103
v -0.93128777 0.14700428 -0.35045940
v -0.81034434 0.03446034 -0.46912581
v -0.82104957 0.03921916 -0.46189147
v -0.83443105 0.04407966 -0.44998986
v -0.76363653 0.01754012 -0.50562418
v -0.77019984 0.01487599 -0.48910192
v -0.78109622 0.01922807 -0.48184425
v -0.79842842 0.02107872 -0.45731753
v -0.78466463 0.01678766 -0.46998927
v -0.74547589 0.01640125 -0.52998757
v -0.74974525 0.01013752 -0.50968480
v -0.74566704 0.02705774 -0.55234402
v -0.73330510 0.01900437 -0.55234402
v -0.72980040 0.01522172 -0.54910022
v -0.71750218 0.00155538 -0.53659183
v -0.72935438 0.00604982 -0.52994090
v -0.84997910 0.05508187 -0.44837961
v -0.83812690 0.04135453 -0.43652463
v -0.84895957 0.04690647 -0.42992041
v -0.86304200 0.05758330 -0.43001375
v -0.88037425 0.05967799 -0.40081972
v -0.89738786 0.06217942 -0.37001544
v -0.91045082 0.07352737 -0.36852190
v -0.92243046 0.07757439 -0.35001600
v -0.89968187 0.06022709 -0.35932729
v -0.90936756 0.06620611 -0.35160288
v -0.92619002 0.07407646 -0.33001658
v -0.93574822 0.07777776 -0.31396103
v -0.90994108 0.15444754 -0.33001658
v -0.78995347 0.15426451 -0.54998702
v -0.78759581 0.15410182 -0.55234402
v -0.92599887 0.15471192 -0.31396103
v -0.82442677 0.03681941 -0.44998986
v -0.74025071 -0.00017325 -0.50039685
v -0.75363225 0.00417883 -0.48998871
v -0.75790155 0.00137235 -0.47664019
v -0.76918030 0.00625319 -0.46996593
v -0.77580732 0.00279593 -0.44998986
v -0.79103673 0.01331006 -0.45038655
v -0.80218804 0.01845527 -0.44399235
v -0.80926108 0.02608158 -0.45038655
v -0.76197976 -0.00133245 -0.46329167
v -0.73566276 0.00275525 -0.51372200
v -0.72833478 0.01585216 -0.55234402
v -0.70889974 0.00358906 -0.55234402
v -0.70418435 -0.00257299 -0.54550642
v -0.71049279 -0.00578621 -0.52994090
v -0.72228128 -0.00145447 -0.52324331
v -0.83086264 0.03360620 -0.42992041
v -0.84163159 0.03879208 -0.42319947
v -0.85494941 0.04375427 -0.41001430
v -0.87024254 0.05479716 -0.40849742
v -0.85832667 0.04125284 -0.39654911
v -0.86890441 0.04690647 -0.38992152
v -0.88285941 0.05768498 -0.39001489
v -0.88738364 0.05414638 -0.37001544
v -0.91529363 0.06407075 -0.33001658
v -0.87782538 0.04163924 -0.35496336
v -0.89018738 0.04985531 -0.35048273
v -0.90229446 0.05805105 -0.34600210
v -0.92873883 0.07118863 -0.31396103
v -0.91809738 0.06160999 -0.31463778
v -0.90994108 0.15273926 -0.31396103
v -0.76930773 0.14688224 -0.55234402
v -0.72935438 -0.00361017 -0.50823790
v -0.71629143 -0.01770358 -0.49449265
v -0.72846228 -0.01249736 -0.48870519
v -0.74362797 -0.00234929 -0.48998871
v -0.73432463 -0.01644269 -0.46998927
v -0.75070107 -0.00594890 -0.46996593
v -0.77912080 0.00057922 -0.43841490
v -0.76580304 -0.00389488 -0.44998986
v -0.80588388 0.01581149 -0.43001375
v -0.81588811 0.02292937 -0.43001375
v -0.78963488 0.00499230 -0.43106389
v -0.73833907 -0.01896446 -0.45724753
v -0.74936289 -0.01449037 -0.45033988
v -0.69245964 -0.00627429 -0.55234402
v -0.69813085 -0.01892379 -0.51754916
v -0.69086659 -0.01676808 -0.53169113
v -0.70972812 -0.01485643 -0.51052487
v -0.81901050 0.02069232 -0.41813543
v -0.84494513 0.03633133 -0.41001430
v -0.82946080 0.02547147 -0.41087776
v -0.85099864 0.03348418 -0.38992152
v -0.86151272 0.03887343 -0.38320059
v -0.87451190 0.04416101 -0.37001544
v -0.90528941 0.05552928 -0.33001658
v -0.86450762 0.03659571 -0.37001544
v -0.87068862 0.03433833 -0.34898919
v -0.88062918 0.03950387 -0.34161484
v -0.89292741 0.04554391 -0.33001658
v -0.91937184 0.06260649 -0.31396103
v -0.90949500 0.05422773 -0.31396103
v -0.91726899 0.06073551 -0.31396103
v -0.90592659 0.15099028 -0.31396103
v -0.30560648 -0.05260155 -0.55234402
v -0.70290995 -0.02179128 -0.50420070
v -0.70972812 -0.02408934 -0.48870519
v -0.72075194 -0.02048972 -0.48116750
v -0.72432035 -0.02270643 -0.46998927
v -0.77147424 -0.00716911 -0.43106389
v -0.78275299 -0.00184087 -0.42511305
v -0.75618112 -0.01758156 -0.43001375
v -0.79677171 0.00218583 -0.41001430
v -0.71431607 -0.03653546 -0.44998986
v -0.73101109 -0.02610268 -0.45033988
v -0.74228984 -0.02144555 -0.44392234
v -0.67213249 -0.01796795 -0.55234402
v -0.67525482 -0.01729684 -0.54998702
v -0.67958790 -0.01975760 -0.53948557
v -0.69086659 -0.02606201 -0.51052487
v -0.68481302 -0.02272677 -0.52613705
v -0.65964305 -0.03980970 -0.51957947
v -0.82245147 0.01829258 -0.40481025
v -0.83615154 0.02272600 -0.39001489
v -0.83908272 0.02065165 -0.37811324
v -0.84927821 0.02565451 -0.37087891
v -0.89598602 0.04316450 -0.31396103
v -0.89840746 0.04513717 -0.31396103
v -0.84220511 0.01841460 -0.36478806
v -0.85545915 0.02329543 -0.35001600
v -0.85845411 0.02113973 -0.33624744
v -0.86864948 0.02687471 -0.32975987
v -0.88292313 0.03773457 -0.33001658
v -0.89401066 0.04161890 -0.31396103
v -0.89318228 0.14436048 -0.31396103
v -0.54437089 -0.05260155 -0.31396103
v -0.60751885 -0.05260155 -0.55234402
v -0.68971962 -0.03513223 -0.49038544
v -0.69621921 -0.03785736 -0.47458658
v -0.70080715 -0.04048081 -0.46126139
v -0.70845371 -0.03287484 -0.46875244
v -0.75930345 -0.01957457 -0.41878885
v -0.78676742 -0.00450499 -0.41001430
v -0.74617684 -0.02392665 -0.43001375
v -0.79957545 0.00027416 -0.39923280
v -0.70431179 -0.04257550 -0.44998986
v -0.71820307 -0.03891487 -0.43694469
v -0.72922689 -0.03450178 -0.43020043
v -0.66429472 -0.02242172 -0.55234402
v -0.66525054 -0.02297081 -0.54998702
v -0.65543741 -0.03751163 -0.52998757
v -0.67175013 -0.02764828 -0.53169113
v -0.67079431 -0.03688119 -0.51173836
v -0.67799485 -0.03889454 -0.49733973
v -0.64543319 -0.04292123 -0.52998757
v -0.65180528 -0.04733431 -0.51173836
v -0.66467702 -0.04261617 -0.50625432
v -0.82614732 0.01570980 -0.39001489
v -0.80970716 0.00472793 -0.39155510
v -0.80282521 -0.00196289 -0.38590765
v -0.83143616 0.01294400 -0.37087891
v -0.84545493 0.01605553 -0.35001600
v -0.81658906 0.00236886 -0.37001544
v -0.81926537 0.00047753 -0.35846382
v -0.82933336 0.00513466 -0.35108948
v -0.85106242 0.01392017 -0.32975987
v -0.86113036 0.01914673 -0.32292226
v -0.88598180 0.03539584 -0.31396103
v -0.87260026 0.02522743 -0.31396103
v -0.75707316 -0.05260155 -0.31396103
v -0.60892075 -0.05260155 -0.55087382
v -0.61064124 -0.05103561 -0.55234402
v -0.68290138 -0.04161967 -0.48399121
v -0.68971962 -0.04381604 -0.46875244
v -0.68073487 -0.05260155 -0.45897442
v -0.68799913 -0.05260155 -0.44809958
v -0.73572648 -0.03734894 -0.41001430
v -0.75159317 -0.02697717 -0.41127449
v -0.76280814 -0.02181161 -0.40546367
v -0.76969004 -0.01534451 -0.41127449
v -0.79173768 -0.00747416 -0.39155510
v -0.69615543 -0.05260155 -0.43526447
v -0.71093887 -0.04570737 -0.43020043
v -0.72202641 -0.04125361 -0.42364287
v -0.65225136 -0.02907186 -0.55234402
v -0.64090896 -0.04048081 -0.54104912
v -0.67079431 -0.04574805 -0.49038544
v -0.62829208 -0.05260155 -0.52856404
v -0.63810521 -0.05260155 -0.51645237
v -0.65104067 -0.05260155 -0.50002342
v -0.64262938 -0.05260155 -0.51080489
v -0.64632529 -0.05260155 -0.50618428
v -0.65448159 -0.05260155 -0.49549615
v -0.65785885 -0.05260155 -0.49096885
v -0.80658478 -0.00454566 -0.37001544
v -0.78963488 -0.01544619 -0.37139231
v -0.83557808 0.00303997 -0.33001658
v -0.82226026 -0.00157649 -0.34513867
v -0.81155509 -0.00706743 -0.35108948
v -0.83844554 0.00104696 -0.31620133
v -0.85265541 0.01056459 -0.31396103
v -0.86285084 0.01788584 -0.31396103
v -0.76969004 -0.04475154 -0.31396103
v -0.75649971 -0.05260155 -0.31533787
v -0.60981286 -0.05260155 -0.54987031
v -0.61229801 -0.05020180 -0.55234402
v -0.66372120 -0.05260155 -0.48305774
v -0.66971105 -0.05260155 -0.47479659
v -0.67155898 -0.05260155 -0.47222960
v -0.67334318 -0.05260155 -0.46970925
v -0.72572225 -0.04353133 -0.41001430
v -0.73891258 -0.03932161 -0.39792597
v -0.74936289 -0.03507122 -0.39076164
v -0.76669514 -0.02433338 -0.39001489
v -0.77669942 -0.01786628 -0.39001489
v -0.77943945 -0.01967625 -0.37897667
v -0.69927782 -0.05260155 -0.43008375
v -0.70380205 -0.05260155 -0.42254603
v -0.70915467 -0.05260155 -0.41302472
v -0.71106631 -0.05260155 -0.40957090
v -0.63982564 -0.03578301 -0.55234402
v -0.62912047 -0.04324662 -0.54863352
v -0.61949849 -0.05260155 -0.53876209
v -0.79638934 -0.01764257 -0.35001600
v -0.78268921 -0.02173027 -0.36565149
v -0.82557380 -0.00379320 -0.33001658
v -0.79912937 -0.01943221 -0.33802101
v -0.83589667 -0.00127143 -0.31396103
v -0.84195018 0.00293829 -0.31396103
v -0.84915078 0.00806316 -0.31396103
v -0.80913365 -0.01469373 -0.33083335
v -0.80193311 -0.02128286 -0.32469583
v -0.81378531 -0.01619866 -0.31396103
v -0.77606219 -0.04074519 -0.31396103
v -0.77822876 -0.03889454 -0.31585127
v -0.76516581 -0.04328729 -0.33001658
v -0.75044614 -0.05260155 -0.32924646
v -0.62708139 -0.04259584 -0.55234402
v -0.73132974 -0.04625647 -0.39076164
v -0.71807563 -0.05260155 -0.39629242
v -0.72119802 -0.05260155 -0.39031824
v -0.74228984 -0.04143664 -0.38460079
v -0.75592619 -0.03745063 -0.37001544
v -0.77166545 -0.02701784 -0.37139231
v -0.63294375 -0.03946397 -0.55234402
v -0.78638506 -0.02408934 -0.35001600
v -0.75892115 -0.03932161 -0.35774040
v -0.77517009 -0.03694221 -0.33001658
v -0.79148281 -0.02632639 -0.33083335
v -0.76197976 -0.04127394 -0.34441525
v -0.78135109 -0.03740995 -0.31396103
v -0.78918886 -0.03236642 -0.31396103
v -0.79250234 -0.03023106 -0.31396103
v -0.80409968 -0.02272677 -0.31396103
v -0.74980897 -0.05260155 -0.33067000
v -0.72470272 -0.05260155 -0.38348064
v -0.72935438 -0.05260155 -0.37416935
v -0.74592197 -0.04367369 -0.37001544
v -0.76918030 -0.03486785 -0.35064608
v -0.73152089 -0.05260155 -0.36980540
v -0.73802048 -0.05260155 -0.35624686
v -0.74088794 -0.05260155 -0.35024938
v -0.75133824 -0.04605310 -0.35064608
v -0.74891686 -0.05260155 -0.33263028
f 1 2 7
f 1 7 19
f 1 19 37
f 1 37 60
f 1 60 95
f 1 95 130
f 1 130 165
f 1 165 200
f 1 200 233
f 1 233 266
f 1 266 298
f 1 298 333
f 1 333 367
f 1 367 399
f 1 399 406
f 1 406 382
f 1 382 346
f 1 346 310
f 1 310 278
f 1 278 247
f 1 247 214
f 1 214 213
f 1 213 182
f 1 182 181
f 1 181 152
f 1 152 149
f 1 149 115
f 1 115 78
f 1 78 77
f 1 77 74
f 1 74 48
f 1 48 28
f 1 28 9
f 1 9 3
f 1 3 4
f 1 4 5
f 1 5 6
f 1 6 8
f 1 8 2
f 2 8 7
f 3 9 10
f 3 10 4
f 4 11 12
f 4 12 13
f 4 13 14
f 4 14 5
f 4 10 15
f 4 15 11
f 5 14 16
f 5 16 6
f 6 17 18
f 6 18 25
f 6 25 8
f 6 16 14
f 6 14 17
f 7 8 20
f 7 20 21
f 7 21 19
f 8 22 23
f 8 23 24
f 8 24 20
f 8 25 22
f 9 26 27
f 9 27 15
f 9 15 10
f 9 28 26
f 11 15 27
f 11 27 12
f 12 27 29
f 12 29 30
f 12 30 31
f 12 31 13
f 13 31 32
f 13 32 33
f 13 33 34
f 13 34 18
f 13 18 35
f 13 35 14
f 14 35 17
f 17 35 18
f 18 34 33
f 18 33 36
f 18 36 25
f 19 21 37
f 20 24 23
f 20 23 21
f 21 38 37
f 21 23 39
f 21 39 40
f 21 40 41
f 21 41 38
f 22 25 42
f 22 42 39
f 22 39 23
f 25 36 43
f 25 43 44
f 25 44 45
f 25 45 46
f 25 46 39
f 25 39 42
f 26 47 27
f 26 28 48
f 26 48 49
f 26 49 50
f 26 50 51
f 26 51 47
f 27 52 53
f 27 53 29
f 27 47 51
f 27 51 52
f 29 53 54
f 29 54 55
f 29 55 30
f 30 55 31
f 31 55 54
f 31 54 32
f 32 54 56
f 32 56 57
f 32 57 58
f 32 58 59
f 32 59 36
f 32 36 33
f 36 59 43
f 37 38 60
f 38 41 61
f 38 61 62
f 38 62 60
f 39 46 45
f 39 45 63
f 39 63 64
f 39 64 40
f 40 65 41
f 40 64 65
f 41 65 61
f 43 66 67
f 43 67 68
f 43 68 44
f 43 59 69
f 43 69 70
f 43 70 71
f 43 71 72
f 43 72 73
f 43 73 66
f 44 63 45
f 44 68 63
f 48 74 49
f 49 74 50
f 50 75 76
f 50 76 51
f 50 74 77
f 50 77 78
f 50 78 79
f 50 79 80
f 50 80 81
f 50 81 75
f 51 76 52
f 52 82 53
f 52 76 83
f 52 83 82
f 53 82 84
f 53 84 85
f 53 85 86
f 53 86 54
f 54 86 56
f 56 87 57
f 56 86 87
f 57 88 58
f 57 87 88
f 58 88 89
f 58 89 90
f 58 90 91
f 58 91 92
f 58 92 93
f 58 93 71
f 58 71 94
f 58 94 70
f 58 70 69
f 58 69 59
f 60 62 95
f 61 96 62
f 61 65 96
f 62 96 97
f 62 97 95
f 63 68 66
f 63 66 98
f 63 98 64
f 64 98 99
f 64 99 65
f 65 99 100
f 65 100 101
f 65 101 96
f 66 73 102
f 66 102 103
f 66 103 104
f 66 104 98
f 66 68 67
f 70 94 71
f 71 105 106
f 71 106 107
f 71 107 72
f 71 93 92
f 71 92 105
f 72 107 108
f 72 108 109
f 72 109 110
f 72 110 102
f 72 102 73
f 75 81 111
f 75 111 112
f 75 112 113
f 75 113 76
f 76 114 83
f 76 113 114
f 78 115 79
f 79 115 80
f 80 116 117
f 80 117 81
f 80 115 118
f 80 118 116
f 81 117 111
f 82 83 119
f 82 119 84
f 83 114 119
f 84 120 85
f 84 119 120
f 85 120 86
f 86 121 122
f 86 122 123
f 86 123 87
f 86 120 121
f 87 123 89
f 87 89 88
f 89 124 90
f 89 123 124
f 90 124 125
f 90 125 91
f 91 126 127
f 91 127 107
f 91 107 92
f 91 125 128
f 91 128 129
f 91 129 126
f 92 107 106
f 92 106 105
f 95 97 130
f 96 131 97
f 96 101 100
f 96 100 132
f 96 132 131
f 97 131 130
f 98 104 133
f 98 133 99
f 99 133 100
f 100 134 132
f 100 133 135
f 100 135 136
f 100 136 134
f 102 110 109
f 102 109 108
f 102 108 103
f 103 108 137
f 103 137 138
f 103 138 104
f 104 138 133
f 107 127 163
f 107 163 162
f 107 162 197
f 107 197 230
f 107 230 262
f 107 262 264
f 107 264 263
f 107 263 289
f 107 289 288
f 107 288 295
f 107 295 329
f 107 329 330
f 107 330 363
f 107 363 362
f 107 362 391
f 107 391 390
f 107 390 389
f 107 389 394
f 107 394 415
f 107 415 414
f 107 414 413
f 107 413 412
f 107 412 395
f 107 395 364
f 107 364 331
f 107 331 297
f 107 297 296
f 107 296 265
f 107 265 232
f 107 232 201
f 107 201 168
f 107 168 169
f 107 169 139
f 107 139 108
f 108 139 137
f 111 117 112
f 112 140 141
f 112 141 142
f 112 142 119
f 112 119 143
f 112 143 114
f 112 114 113
f 112 117 144
f 112 144 145
f 112 145 146
f 112 146 147
f 112 147 148
f 112 148 140
f 114 143 119
f 115 149 118
f 116 118 150
f 116 150 151
f 116 151 117
f 117 151 145
f 117 145 144
f 118 152 153
f 118 153 150
f 118 149 152
f 119 142 141
f 119 141 154
f 119 154 120
f 120 155 121
f 120 154 155
f 121 156 122
f 121 155 156
f 122 157 123
f 122 156 157
f 123 157 158
f 123 158 159
f 123 159 160
f 123 160 124
f 124 160 125
f 125 160 128
f 126 129 161
f 126 161 162
f 126 162 163
f 126 163 127
f 128 160 129
f 129 160 161
f 130 131 164
f 130 164 165
f 131 132 134
f 131 134 166
f 131 166 164
f 133 138 135
f 134 136 166
f 135 138 136
f 136 138 167
f 136 167 168
f 136 168 166
f 137 169 167
f 137 167 170
f 137 170 138
f 137 139 169
f 138 170 167
f 140 148 171
f 140 171 141
f 141 172 173
f 141 173 154
f 141 171 172
f 145 151 174
f 145 174 146
f 146 174 175
f 146 175 176
f 146 176 147
f 147 176 148
f 148 177 171
f 148 176 178
f 148 178 177
f 150 153 179
f 150 179 151
f 151 179 180
f 151 180 174
f 152 181 153
f 153 181 182
f 153 182 183
f 153 183 184
f 153 184 185
f 153 185 179
f 154 186 155
f 154 173 186
f 155 186 187
f 155 187 188
f 155 188 189
f 155 189 156
f 156 190 157
f 156 189 190
f 157 190 158
f 158 191 159
f 158 190 191
f 159 192 160
f 159 191 192
f 160 193 161
f 160 192 191
f 160 191 194
f 160 194 195
f 160 195 193
f 161 193 196
f 161 196 197
f 161 197 162
f 164 166 198
f 164 198 165
f 165 199 200
f 165 198 199
f 166 168 201
f 166 201 198
f 167 169 168
f 171 177 172
f 172 202 173
f 172 177 202
f 173 202 187
f 173 187 186
f 174 180 203
f 174 203 204
f 174 204 175
f 175 204 205
f 175 205 176
f 176 205 206
f 176 206 178
f 177 207 208
f 177 208 209
f 177 209 210
f 177 210 202
f 177 178 211
f 177 211 207
f 178 206 211
f 179 185 212
f 179 212 180
f 180 212 203
f 182 213 183
f 183 213 214
f 183 214 184
f 184 214 215
f 184 215 216
f 184 216 217
f 184 217 185
f 185 217 212
f 187 202 209
f 187 209 218
f 187 218 219
f 187 219 188
f 188 219 220
f 188 220 189
f 189 220 221
f 189 221 190
f 190 221 222
f 190 222 223
f 190 223 224
f 190 224 191
f 191 224 225
f 191 225 194
f 193 195 226
f 193 226 196
f 194 225 227
f 194 227 228
f 194 228 229
f 194 229 226
f 194 226 195
f 196 230 197
f 196 226 231
f 196 231 230
f 198 201 232
f 198 232 200
f 198 200 199
f 200 232 233
f 202 210 209
f 203 212 234
f 203 234 235
f 203 235 236
f 203 236 237
f 203 237 204
f 204 237 205
f 205 237 238
f 205 238 239
f 205 239 211
f 205 211 206
f 207 240 208
f 207 211 241
f 207 241 240
f 208 240 209
f 209 242 243
f 209 243 218
f 209 240 244
f 209 244 242
f 211 239 245
f 211 245 246
f 211 246 241
f 212 217 234
f 214 247 215
f 215 248 216
f 215 247 249
f 215 249 248
f 216 250 217
f 216 248 250
f 217 250 234
f 218 251 219
f 218 243 251
f 219 252 220
f 219 251 253
f 219 253 252
f 220 222 221
f 220 252 222
f 222 252 254
f 222 254 255
f 222 255 223
f 223 256 224
f 223 255 256
f 224 256 225
f 225 256 227
f 226 229 257
f 226 257 231
f 227 256 258
f 227 258 259
f 227 259 260
f 227 260 228
f 228 261 229
f 228 260 261
f 229 261 257
f 230 231 262
f 231 257 263
f 231 263 264
f 231 264 262
f 232 265 266
f 232 266 233
f 234 250 235
f 235 250 267
f 235 267 268
f 235 268 269
f 235 269 236
f 236 269 237
f 237 269 238
f 238 270 245
f 238 245 239
f 238 269 270
f 240 241 271
f 240 271 272
f 240 272 244
f 241 246 273
f 241 273 271
f 242 244 274
f 242 274 251
f 242 251 243
f 244 272 274
f 245 270 275
f 245 275 276
f 245 276 277
f 245 277 246
f 246 277 273
f 247 278 279
f 247 279 280
f 247 280 249
f 248 281 267
f 248 267 250
f 248 249 280
f 248 280 282
f 248 282 283
f 248 283 281
f 251 284 253
f 251 274 284
f 252 253 285
f 252 285 254
f 253 284 285
f 254 285 286
f 254 286 255
f 255 286 287
f 255 287 258
f 255 258 256
f 257 261 288
f 257 288 289
f 257 289 263
f 258 287 290
f 258 290 291
f 258 291 259
f 259 291 292
f 259 292 260
f 260 292 293
f 260 293 294
f 260 294 261
f 261 294 295
f 261 295 288
f 265 296 266
f 266 297 331
f 266 331 365
f 266 365 398
f 266 398 416
f 266 416 425
f 266 425 423
f 266 423 422
f 266 422 421
f 266 421 418
f 266 418 417
f 266 417 402
f 266 402 401
f 266 401 381
f 266 381 380
f 266 380 379
f 266 379 378
f 266 378 343
f 266 343 337
f 266 337 336
f 266 336 371
f 266 371 370
f 266 370 369
f 266 369 368
f 266 368 355
f 266 355 354
f 266 354 351
f 266 351 353
f 266 353 352
f 266 352 350
f 266 350 349
f 266 349 384
f 266 384 366
f 266 366 332
f 266 332 298
f 266 296 297
f 267 281 299
f 267 299 300
f 267 300 268
f 268 300 301
f 268 301 302
f 268 302 269
f 269 302 270
f 270 302 301
f 270 301 275
f 271 273 303
f 271 303 272
f 272 304 274
f 272 303 304
f 273 277 305
f 273 305 303
f 274 304 306
f 274 306 284
f 275 301 307
f 275 307 308
f 275 308 276
f 276 308 277
f 277 308 309
f 277 309 305
f 278 280 279
f 278 310 280
f 280 310 311
f 280 311 312
f 280 312 313
f 280 313 282
f 281 314 315
f 281 315 299
f 281 283 314
f 282 313 283
f 283 312 316
f 283 316 317
f 283 317 318
f 283 318 314
f 283 313 312
f 284 306 285
f 285 306 319
f 285 319 286
f 286 319 306
f 286 306 320
f 286 320 321
f 286 321 322
f 286 322 290
f 286 290 287
f 290 323 291
f 290 322 324
f 290 324 325
f 290 325 326
f 290 326 323
f 291 323 292
f 292 323 327
f 292 327 328
f 292 328 293
f 293 328 294
f 294 329 295
f 294 328 330
f 294 330 329
f 298 332 333
f 299 315 334
f 299 334 300
f 300 334 335
f 300 335 301
f 301 335 336
f 301 336 337
f 301 337 307
f 303 305 309
f 303 309 338
f 303 338 339
f 303 339 340
f 303 340 341
f 303 341 304
f 304 341 306
f 306 341 342
f 306 342 321
f 306 321 320
f 307 337 343
f 307 343 344
f 307 344 308
f 308 344 345
f 308 345 309
f 309 345 338
f 310 346 311
f 311 346 312
f 312 346 347
f 312 347 316
f 314 318 315
f 315 318 348
f 315 348 334
f 316 347 349
f 316 349 350
f 316 350 317
f 317 351 318
f 317 350 352
f 317 352 353
f 317 353 351
f 318 351 354
f 318 354 355
f 318 355 348
f 321 356 324
f 321 324 322
f 321 342 357
f 321 357 356
f 323 326 358
f 323 358 327
f 324 356 325
f 325 359 326
f 325 356 360
f 325 360 359
f 326 359 358
f 327 358 361
f 327 361 328
f 328 361 362
f 328 362 363
f 328 363 330
f 331 364 365
f 332 366 367
f 332 367 333
f 334 348 368
f 334 368 369
f 334 369 370
f 334 370 371
f 334 371 335
f 335 371 336
f 338 345 372
f 338 372 373
f 338 373 339
f 339 373 340
f 340 373 374
f 340 374 375
f 340 375 376
f 340 376 342
f 340 342 341
f 342 376 377
f 342 377 357
f 343 378 344
f 344 378 379
f 344 379 345
f 345 379 380
f 345 380 381
f 345 381 372
f 346 382 347
f 347 382 383
f 347 383 349
f 348 355 368
f 349 383 384
f 356 357 385
f 356 385 360
f 357 377 386
f 357 386 385
f 358 359 387
f 358 387 361
f 359 360 388
f 359 388 387
f 360 385 388
f 361 389 390
f 361 390 391
f 361 391 362
f 361 387 392
f 361 392 393
f 361 393 394
f 361 394 389
f 364 395 396
f 364 396 397
f 364 397 365
f 365 397 398
f 366 384 383
f 366 383 367
f 367 383 399
f 372 400 373
f 372 381 401
f 372 401 402
f 372 402 400
f 373 400 403
f 373 403 374
f 374 404 375
f 374 403 404
f 375 404 405
f 375 405 377
f 375 377 376
f 377 405 386
f 382 406 383
f 383 406 399
f 385 386 407
f 385 407 388
f 386 405 408
f 386 408 407
f 387 388 392
f 388 409 410
f 388 410 393
f 388 393 392
f 388 407 411
f 388 411 409
f 393 410 412
f 393 412 413
f 393 413 414
f 393 414 415
f 393 415 394
f 395 412 396
f 396 409 397
f 396 412 410
f 396 410 409
f 397 411 398
f 397 409 411
f 398 411 416
f 400 402 417
f 400 417 403
f 403 417 418
f 403 418 419
f 403 419 404
f 404 408 405
f 404 419 408
f 407 408 420
f 407 420 411
f 408 419 421
f 408 421 422
f 408 422 423
f 408 423 424
f 408 424 411
f 408 411 420
f 411 424 423
f 411 423 425
f 411 425 416
f 418 421 419
