v -0.00102377 -0.05260154 -0.63115406
v -0.43872169 -0.02242577 -0.55241197
v -0.30559123 -0.05260154 -0.55241197
v -0.00102377 -0.05260154 -0.83077675
v -0.00102377 0.14626943 -0.95107716
v -0.43872169 -0.05260154 -0.55241197
v -0.43872169 0.14299121 -0.83443713
v -0.00895076 -0.05260154 -0.83073217
v -0.00102377 -0.04761297 -0.83782965
v -0.00102377 0.14999558 -0.95960307
v -0.43872169 0.15019920 -0.84894460
v -0.43872169 0.14594364 -0.83961517
v -0.43872169 -0.05260154 -0.69900435
v -0.01160736 -0.05260154 -0.83068752
v -0.01002197 -0.04307235 -0.84412366
v -0.00102377 -0.04309271 -0.84416831
v -0.00102377 0.15451583 -0.96995920
v -0.43872169 0.15425113 -0.86126477
v -0.43872169 -0.05066720 -0.70239687
v -0.43632215 -0.05260154 -0.70061135
v -0.01482101 -0.05260154 -0.83059824
v -0.03003223 -0.04284837 -0.84381115
v -0.01002197 -0.03553859 -0.85412264
v -0.00102377 -0.03895932 -0.84965879
v -0.00102377 0.15144125 -0.98995715
v -0.09002019 0.15526921 -0.96995920
v -0.42998058 0.15500452 -0.86996925
v -0.43872169 0.15457693 -0.86996925
v -0.42998058 -0.05260154 -0.70485198
v -0.43872169 -0.04128054 -0.71873450
v -0.03003223 -0.05260154 -0.83010721
v -0.05004251 -0.04246151 -0.84332013
v -0.03003223 -0.03531461 -0.85381019
v -0.00102377 -0.03553859 -0.85416728
v -0.03003223 -0.02529674 -0.86679995
v -0.01002197 -0.02552072 -0.86706775
v -0.00102377 -0.03006134 -0.86126477
v -0.00102377 0.14773545 -0.99562621
v -0.01002197 0.14321519 -1.00258982
v -0.01002197 0.15146160 -0.98995715
v -0.11003047 0.15541175 -0.96995920
v -0.38996005 0.15516740 -0.88996726
v -0.40997028 0.15410861 -0.88996726
v -0.43872169 0.15180776 -0.88126278
v -0.42998058 -0.04960840 -0.71003002
v -0.42680979 -0.05260154 -0.70690531
v -0.43872169 -0.04026246 -0.72047538
v -0.04832856 -0.05260154 -0.82912517
v -0.07000993 -0.04197283 -0.84265059
v -0.05004251 -0.03492774 -0.85331917
v -0.05004251 -0.02493024 -0.86630893
v -0.03003223 -0.01749828 -0.87679893
v -0.00102377 -0.02554108 -0.86706775
v -0.01002197 -0.01772226 -0.87706673
v -0.00102377 0.14319482 -1.00254524
v -0.03003223 0.14305231 -1.00241125
v -0.03003223 0.15127835 -0.98995715
v -0.00102377 0.13724926 -1.00495565
v -0.00102377 0.12998021 -1.00790179
v -0.01002197 0.12998021 -1.00794649
v -0.13004074 0.15524885 -0.96995920
v -0.22996356 0.15510632 -0.94996119
v -0.28999436 0.15524885 -0.92996323
v -0.34998232 0.15520814 -0.90996522
v -0.42998058 0.15011775 -0.88996726
v -0.36999261 0.15355885 -0.90996522
v -0.43872169 0.14751148 -0.88987797
v -0.41618335 -0.05260154 -0.71346718
v -0.42998058 -0.04189138 -0.72310907
v -0.43872169 -0.02853423 -0.73891103
v -0.42998058 -0.03564040 -0.73310804
v -0.41554064 -0.03834848 -0.73743796
v -0.07000993 -0.05260154 -0.82760745
v -0.07000993 -0.05093190 -0.82997328
v -0.09002019 -0.04126018 -0.84171319
v -0.07000993 -0.03441870 -0.85264957
v -0.07000993 -0.02442120 -0.86568397
v -0.05004251 -0.01713178 -0.87630790
v -0.05004251 -0.00713427 -0.88911915
v -0.03003223 0.00031805 -0.89960915
v -0.00102377 -0.01222464 -0.88411963
v -0.01002197 0.00011443 -0.89983231
v -0.03003223 0.12998021 -1.00763392
v -0.05004251 0.14262471 -1.00205421
v -0.05004251 0.15081003 -0.98995715
v -0.00102377 0.10998520 -1.00834823
v -0.01002197 0.10998520 -1.00834823
v -0.15000817 0.15461764 -0.96995920
v -0.24997383 0.15400681 -0.94996119
v -0.30996180 0.15445475 -0.92996323
v -0.40997028 0.14594364 -0.90701908
v -0.32997206 0.15184848 -0.92996323
v -0.36999261 0.14531243 -0.92567790
v -0.43872169 0.14352062 -0.89630592
v -0.41078442 -0.05260154 -0.71672577
v -0.40932757 -0.04490489 -0.73047435
v -0.43872169 -0.02354565 -0.74667811
v -0.42908075 -0.02493024 -0.75033844
v -0.40217185 -0.04079186 -0.74127686
v -0.40932757 -0.03331918 -0.74877614
v -0.08350722 -0.05260154 -0.82622367
v -0.09002019 -0.04952695 -0.82997328
v -0.10578847 -0.04056788 -0.84073114
v -0.09002019 -0.03368569 -0.85171217
v -0.09002019 -0.02368818 -0.86474657
v -0.09002019 -0.01591008 -0.87474555
v -0.07000993 -0.01662274 -0.87568295
v -0.07000993 0.00117323 -0.89849317
v -0.05004251 0.00068456 -0.89911813
v -0.05004251 0.00925675 -0.90996522
v -0.05004251 0.01858233 -0.92174977
v -0.03003223 0.00854410 -0.90996522
v -0.01002197 0.00815723 -0.90996522
v -0.00102377 -0.00342847 -0.89532387
v -0.00102377 0.00453288 -0.90541214
v -0.00102377 0.00011443 -0.89983231
v -0.03003223 0.10998520 -1.00803566
v -0.05004251 0.12998021 -1.00687516
v -0.07000993 0.14193243 -1.00147390
v -0.07000993 0.14999558 -0.98995715
v -0.00102377 0.09534526 -1.00299156
v -0.01002197 0.09532490 -1.00299156
v -0.03003223 0.09558960 -1.00281298
v -0.17001843 0.15333487 -0.96995920
v -0.09002019 0.14879425 -0.98995715
v -0.19002871 0.15138017 -0.96995920
v -0.26998410 0.15174668 -0.94996119
v -0.42998058 0.14238037 -0.90233207
v -0.38580373 0.14264508 -0.92241931
v -0.34989664 0.14669701 -0.93107915
v -0.30996180 0.14620835 -0.94705969
v -0.32997206 0.14374459 -0.94353330
v -0.34316942 0.14144374 -0.94116747
v -0.43872169 0.14034423 -0.90032333
v -0.40080070 -0.05260154 -0.72266269
v -0.43872169 -0.01768154 -0.75573969
v -0.43512240 -0.01812949 -0.75721276
v -0.42179650 -0.02067468 -0.76105165
v -0.38996005 -0.04286873 -0.74453545
v -0.38940299 -0.05260154 -0.72909057
v -0.39030284 -0.05260154 -0.72859955
v -0.38996005 -0.03641413 -0.75453448
v -0.40997028 -0.02287372 -0.76431024
v -0.09002019 -0.05260154 -0.82555407
v -0.11148732 -0.04622839 -0.83189273
v -0.11911436 -0.03989595 -0.83983839
v -0.11148732 -0.03417437 -0.84845358
v -0.11003047 -0.02277192 -0.86354136
v -0.11003047 -0.00499631 -0.88644081
v -0.11003047 0.00278179 -0.89643979
v -0.09002019 0.00188588 -0.89755577
v -0.08496407 0.01960041 -0.92049986
v -0.07000993 0.01025447 -0.90996522
v -0.03003223 0.01823619 -0.92215151
v -0.07000993 0.01909137 -0.92112482
v -0.05004251 0.02676766 -0.93174875
v -0.01002197 0.01807329 -0.92237473
v -0.00102377 0.01359376 -0.91679490
v -0.05004251 0.10998520 -1.00723219
v -0.05004251 0.09620045 -1.00241125
v -0.07000993 0.12998021 -1.00562525
v -0.09002019 0.14089398 -1.00062573
v -0.13004074 0.14708388 -0.98808235
v -0.00102377 0.08534776 -0.99589407
v -0.01002197 0.08532739 -0.99589407
v -0.03003223 0.08559209 -0.99571550
v -0.15000817 0.14624906 -0.98643076
v -0.22996356 0.14702280 -0.96830755
v -0.17001843 0.14498664 -0.98460054
v -0.24997383 0.14569929 -0.96580780
v -0.39912963 0.13881710 -0.91956246
v -0.26998410 0.14360207 -0.96321881
v -0.28433836 0.14156592 -0.96125472
v -0.35649532 0.13515204 -0.93848914
v -0.29766425 0.13755469 -0.95920134
v -0.43872169 0.13869494 -0.90103757
v -0.43872169 -0.01442369 -0.76060528
v -0.43872169 -0.00243076 -0.77841598
v -0.42908075 -0.01277441 -0.76864016
v -0.40997028 -0.01611370 -0.77430928
v -0.36990690 -0.05260154 -0.73940206
v -0.37530583 -0.05260154 -0.73658985
v -0.37620565 -0.03875571 -0.75810552
v -0.36969268 -0.04545465 -0.75087410
v -0.38966009 -0.02570397 -0.77082747
v -0.39608738 -0.01863853 -0.77805889
v -0.11063036 -0.05260154 -0.82283115
v -0.13004074 -0.04628947 -0.82894659
v -0.13004074 -0.03924438 -0.83894563
v -0.13004074 -0.03093688 -0.84997129
v -0.13004074 -0.02169275 -0.86215752
v -0.13004074 -0.00393751 -0.88505703
v -0.13004074 0.00384059 -0.89505601
v -0.11003047 0.01277930 -0.90911710
v -0.09096287 0.01326798 -0.91188467
v -0.09828997 0.02015017 -0.91978568
v -0.09002019 0.03800722 -0.94237268
v -0.07000993 0.02729706 -0.93112379
v -0.03003223 0.02642152 -0.93215048
v -0.01002197 0.02623826 -0.93237370
v -0.05004251 0.03676517 -0.94384575
v -0.00102377 0.01807329 -0.92237473
v -0.00102377 0.02255283 -0.92786521
v -0.07000993 0.10998520 -1.00593770
v -0.07000993 0.09717780 -1.00178635
v -0.05004251 0.08620293 -0.99526912
v -0.13004074 0.12332199 -1.00080431
v -0.09002019 0.12998021 -1.00392902
v -0.10116082 0.14018133 -1.00009012
v -0.00102377 0.08011484 -0.99138558
v -0.01002197 0.07376205 -0.98589510
v -0.03003223 0.07396567 -0.98571652
v -0.05004251 0.07439326 -0.98527014
v -0.19002871 0.14321519 -0.98268116
v -0.20549704 0.14146411 -0.98111880
v -0.40997028 0.13128334 -0.91670561
v -0.36866432 0.12908430 -0.93518591
v -0.39145973 0.13128334 -0.92496371
v -0.40332878 0.12548031 -0.92148191
v -0.21882294 0.13908181 -0.97969031
v -0.32997206 0.12998021 -0.94996119
v -0.34989664 0.12908430 -0.94281906
v -0.36108011 0.12181524 -0.94045323
v -0.26998410 0.12998021 -0.96920031
v -0.29059425 0.13052997 -0.96321881
v -0.30319172 0.12421790 -0.96103150
v -0.30991894 0.13052997 -0.95692480
v -0.42998058 0.12998021 -0.90764403
v -0.43872169 0.12998021 -0.90340340
v -0.43872169 -0.00067966 -0.78096038
v -0.42998058 -0.00234931 -0.78341550
v -0.41524068 0.00174335 -0.79747659
v -0.40915620 -0.00532209 -0.79046834
v -0.36163715 -0.05260154 -0.74355340
v -0.38276148 -0.02093938 -0.78136212
v -0.36969268 -0.03370605 -0.76886338
v -0.36287975 -0.04091403 -0.76145339
v -0.34993950 -0.05260154 -0.74940103
v -0.40191478 -0.00070003 -0.80100298
v -0.38966009 -0.01340561 -0.78881669
v -0.11864303 -0.05260154 -0.82158130
v -0.13004074 -0.05260154 -0.81979573
v -0.15000817 -0.04502705 -0.82716107
v -0.15120792 -0.02678314 -0.85184610
v -0.15000817 -0.03794125 -0.83716005
v -0.14533767 -0.02071540 -0.86090767
v -0.15000817 -0.00267509 -0.88345003
v -0.15000817 0.00512337 -0.89344907
v -0.13004074 0.01383810 -0.90773332
v -0.11003047 0.02072029 -0.91911608
v -0.11003047 0.02963864 -0.92996323
v -0.11003047 0.03894385 -0.94125670
v -0.07000993 0.03729457 -0.94322079
v -0.09002019 0.04655906 -0.95237166
v -0.07000993 0.04580569 -0.95321977
v -0.03003223 0.03641902 -0.94424748
v -0.00102377 0.02623826 -0.93237370
v -0.01002197 0.03623577 -0.94447070
v -0.05004251 0.04523556 -0.95384473
v -0.03003223 0.04486905 -0.95424646
v -0.09002019 0.10998520 -1.00419676
v -0.14028156 0.11977909 -1.00000083
v -0.14028156 0.12018631 -1.00000083
v -0.09002019 0.09850129 -1.00089359
v -0.10253198 0.09949902 -1.00026870
v -0.07000993 0.08718029 -0.99459958
v -0.07000993 0.07506519 -0.98460054
v -0.13004074 0.13331950 -0.99808133
v -0.11448672 0.13755469 -0.99919730
v -0.10870217 0.13052997 -1.00178635
v -0.00102377 0.07378241 -0.98589510
v -0.00102377 0.06926215 -0.98143125
v -0.01002197 0.06376454 -0.97594070
v -0.03003223 0.06396816 -0.97576219
v -0.05004251 0.06439576 -0.97531581
v -0.43872169 0.10998520 -0.90376049
v -0.43872169 0.12364777 -0.90353727
v -0.40332878 0.11338557 -0.92148191
v -0.17001843 0.12998021 -0.99201053
v -0.19002871 0.12998021 -0.98808235
v -0.21132444 0.13144624 -0.98330605
v -0.22627859 0.12574501 -0.98143125
v -0.23176320 0.13144624 -0.97857440
v -0.24997383 0.12998021 -0.97442305
v -0.36108011 0.11788546 -0.94045323
v -0.30319172 0.11523847 -0.96103150
v -0.43872169 0.01180195 -0.79894960
v -0.42998058 0.00453288 -0.79341447
v -0.42839518 0.01546702 -0.81001997
v -0.42068243 0.01974294 -0.82033139
v -0.40915620 0.00726133 -0.80859149
v -0.38996005 -0.00275654 -0.80394912
v -0.37483448 0.00168227 -0.81756383
v -0.36999261 -0.01609334 -0.79439652
v -0.36999261 -0.02305698 -0.78439754
v -0.34998232 -0.03629196 -0.77448779
v -0.34998232 -0.04292982 -0.76448882
v -0.34908253 -0.05260154 -0.74980277
v -0.40997028 0.01778823 -0.82305431
v -0.38996005 0.00422746 -0.81394809
v -0.13659658 -0.05260154 -0.81859052
v -0.17001843 -0.04360175 -0.82510769
v -0.15000817 -0.05260154 -0.81609076
v -0.17001843 -0.02647771 -0.84863210
v -0.15866357 -0.01979914 -0.85974705
v -0.17001843 -0.03647522 -0.83510673
v -0.17001843 -0.00124979 -0.88161987
v -0.17001843 0.00654867 -0.89161885
v -0.17001843 0.01654618 -0.90434080
v -0.15000817 0.01512088 -0.90612632
v -0.13004074 0.02179945 -0.91773230
v -0.12309928 0.03963614 -0.94040859
v -0.11003047 0.04751605 -0.95125568
v -0.11003047 0.05749319 -0.96272779
v -0.09002019 0.05653621 -0.96379912
v -0.07000993 0.05578283 -0.96464723
v -0.05004251 0.05521271 -0.96531677
v -0.00102377 0.03173587 -0.93902481
v -0.00102377 0.03625613 -0.94447070
v -0.01002197 0.04468580 -0.95446968
v -0.00102377 0.04087820 -0.94996119
v -0.03003223 0.05484620 -0.96576321
v -0.10951629 0.10919110 -1.00187564
v -0.13004074 0.11633799 -1.00080431
v -0.11585788 0.10200348 -0.99946511
v -0.13004074 0.10634048 -0.99848306
v -0.14816567 0.11185846 -0.99683148
v -0.17001843 0.10998520 -0.99245691
v -0.19002871 0.10998520 -0.98852873
v -0.22627859 0.11344665 -0.98143125
v -0.14816567 0.12810695 -0.99647439
v -0.09002019 0.08850379 -0.99370682
v -0.10951629 0.09170055 -0.99379605
v -0.13004074 0.08999018 -0.98986793
v -0.17001843 0.09243356 -0.98509157
v -0.09002019 0.07596110 -0.98370779
v -0.07000993 0.06506768 -0.97464621
v -0.09002019 0.06594323 -0.97379810
v -0.00102377 0.06376454 -0.97594070
v -0.01002197 0.05466295 -0.96594173
v -0.43872169 0.09901033 -0.90068042
v -0.42998058 0.10998520 -0.90809041
v -0.39197391 0.10803049 -0.92518693
v -0.39994374 0.10004877 -0.91996419
v -0.40997028 0.10803049 -0.91715199
v -0.32997206 0.10998520 -0.95036292
v -0.35028228 0.11071821 -0.94295299
v -0.35713804 0.10454867 -0.93884623
v -0.36866432 0.11071821 -0.93558764
v -0.29834986 0.10192204 -0.95946920
v -0.30991894 0.10915037 -0.95728189
v -0.26998410 0.10998520 -0.96960211
v -0.29102275 0.10915037 -0.96335268
v -0.43872169 0.01677016 -0.80604714
v -0.43400836 0.02234921 -0.81667107
v -0.42955208 0.03016804 -0.82975012
v -0.42505300 0.03798686 -0.84265059
v -0.40997028 0.02509802 -0.83309799
v -0.36887854 -0.00517956 -0.81055558
v -0.38828894 0.01528377 -0.83024114
v -0.38049048 0.01982439 -0.84024012
v -0.36887854 0.00748530 -0.82841092
v -0.36150861 -0.00047605 -0.82068849
v -0.35533839 -0.01849600 -0.79783368
v -0.34916821 -0.02541891 -0.79069155
v -0.33519959 -0.03857245 -0.77792495
v -0.32911509 -0.04506778 -0.77073818
v -0.32971498 -0.05260154 -0.75881976
v -0.33511388 -0.05260154 -0.75632000
v -0.39385927 0.02214560 -0.83707076
v -0.19002871 -0.04201355 -0.82287580
v -0.17070401 -0.05260154 -0.81176084
v -0.17408904 -0.05260154 -0.81100196
v -0.19002871 -0.02486915 -0.84648949
v -0.19002871 -0.01735575 -0.85648847
v -0.17001843 -0.01894395 -0.85863113
v -0.19002871 -0.03486666 -0.83287477
v -0.18210173 -0.00033352 -0.88041461
v -0.19002871 0.01811402 -0.90237671
v -0.17001843 0.02456862 -0.91433978
v -0.15000817 0.02312295 -0.91612530
v -0.13646802 0.04045060 -0.93947119
v -0.12986934 0.03322227 -0.93165946
v -0.12986934 0.04723099 -0.94826496
v -0.13004074 0.05867416 -0.96143329
v -0.11003047 0.06706311 -0.97272676
v -0.00102377 0.04470616 -0.95446968
v -0.19002871 0.09514165 -0.98312747
v -0.20652540 0.09772756 -0.98138660
v -0.21985130 0.10013022 -0.97995818
v -0.21192431 0.10807121 -0.98343998
v -0.23176320 0.10807121 -0.97893149
v -0.24997383 0.10998520 -0.97491407
v -0.11003047 0.07706062 -0.98263645
v -0.13004074 0.07842484 -0.98138660
v -0.14293817 0.07946327 -0.98044920
v -0.14975107 0.08846307 -0.98576117
v -0.15626407 0.08078678 -0.97933322
v -0.17001843 0.08243605 -0.97808337
v -0.00102377 0.05468331 -0.96594173
v -0.42998058 0.09607828 -0.90282309
v -0.42998058 0.08608077 -0.89505601
v -0.43872169 0.08832054 -0.89228845
v -0.39197391 0.08958295 -0.91554505
v -0.41001314 0.08909427 -0.90701908
v -0.34381214 0.09780900 -0.94143528
v -0.38661784 0.09597647 -0.92277646
v -0.28502393 0.09768684 -0.96147788
v -0.43872169 0.02300078 -0.81488550
v -0.43872169 0.02627899 -0.81939399
v -0.43842173 0.04065422 -0.83912414
v -0.43105179 0.04578532 -0.84956956
v -0.40997028 0.04277182 -0.85639918
v -0.40997028 0.03509552 -0.84640020
v -0.38944584 0.03018840 -0.84974808
v -0.38503245 0.03823120 -0.86224681
v -0.36999261 0.02564778 -0.85256028
v -0.36999261 0.01809366 -0.84256130
v -0.34998232 0.00483831 -0.83327651
v -0.34998232 -0.00232895 -0.82327753
v -0.34201252 -0.02063396 -0.80091369
v -0.32997206 -0.02246650 -0.80350274
v -0.32911509 -0.03311557 -0.78845960
v -0.32187369 -0.04054752 -0.78078181
v -0.30820501 -0.05260154 -0.76819378
v -0.32015973 -0.05260154 -0.76301575
v -0.39840120 0.04057277 -0.85925603
v -0.20421158 -0.04077150 -0.82109028
v -0.18762919 -0.05260154 -0.80787730
v -0.19002871 -0.05078936 -0.80997533
v -0.21003899 -0.02307734 -0.84412366
v -0.21003899 -0.01558430 -0.85412264
v -0.21003899 -0.00556643 -0.86729097
v -0.19542763 0.00076600 -0.87898624
v -0.18925744 -0.00609583 -0.87139767
v -0.21055317 -0.03417437 -0.82863414
v -0.20395449 0.01929498 -0.90090364
v -0.19002871 0.02615682 -0.91237569
v -0.19002871 0.03617468 -0.92460662
v -0.17001843 0.03456613 -0.92652607
v -0.15000817 0.03312046 -0.92831159
v -0.15000817 0.04140760 -0.93831062
v -0.14979392 0.05283041 -0.95161283
v -0.14298101 0.05954971 -0.96045125
v -0.13004074 0.06842733 -0.97143227
v -0.19002871 0.08512378 -0.97607464
v -0.21192431 0.09062139 -0.97518188
v -0.22996356 0.08999018 -0.97049487
v -0.24890262 0.08903319 -0.96527219
v -0.26998410 0.09455116 -0.96362054
v -0.14962253 0.07001553 -0.96991456
v -0.17001843 0.07172590 -0.96803975
v -0.19002871 0.07359916 -0.96607566
v -0.21003899 0.07567603 -0.96397763
v -0.22996356 0.07805833 -0.96174574
v -0.41665468 0.08182521 -0.89840388
v -0.43872169 0.07724387 -0.88286972
v -0.37466311 0.08263967 -0.91773230
v -0.32997206 0.09434755 -0.94397968
v -0.32997206 0.08435004 -0.93643576
v -0.35028228 0.09068248 -0.93344498
v -0.36879283 0.08958295 -0.92527616
v -0.26998410 0.08455366 -0.95638913
v -0.29102275 0.09060103 -0.95433575
v -0.31009033 0.08876849 -0.94670260
v -0.43872169 0.04071530 -0.83903486
v -0.43872169 0.04102073 -0.83943665
v -0.43872169 0.05535524 -0.85769373
v -0.43872169 0.05855200 -0.86175579
v -0.42998058 0.05673982 -0.86398774
v -0.40911335 0.05376704 -0.87059420
v -0.39103127 0.04600930 -0.86934435
v -0.36999261 0.04354556 -0.87554908
v -0.36999261 0.03564528 -0.86555004
v -0.34998232 0.02234921 -0.85689020
v -0.34998232 0.01483581 -0.84689122
v -0.32997206 0.00174335 -0.83756179
v -0.32997206 -0.00542390 -0.82756281
v -0.32997206 -0.01542141 -0.81350172
v -0.30996180 -0.02539855 -0.80765408
v -0.30996180 -0.03539605 -0.79328054
v -0.30996180 -0.04219680 -0.78328156
v -0.28999436 -0.04482344 -0.78720975
v -0.29350796 -0.05260154 -0.77399677
v -0.40187192 0.05924429 -0.88086104
v -0.19002871 -0.05260154 -0.80729699
v -0.21055317 -0.04608586 -0.81158227
v -0.21753748 -0.03950909 -0.81930470
v -0.22996356 -0.02108191 -0.84144533
v -0.22996356 -0.01360923 -0.85144436
v -0.22996356 -0.00361172 -0.86474657
v -0.22996356 0.00398312 -0.87474555
v -0.21003899 0.00206914 -0.87728995
v -0.21038178 0.02666586 -0.90853679
v -0.21003899 0.03794614 -0.92246395
v -0.21728039 0.02051668 -0.89934129
v -0.19002871 0.04456363 -0.93460560
v -0.17001843 0.04291435 -0.93652505
v -0.17001843 0.05289149 -0.94808638
v -0.15630691 0.06056779 -0.95933527
v -0.24153267 0.07954472 -0.96036196
v -0.25485855 0.08172341 -0.95857644
v -0.17001843 0.06172839 -0.95808542
v -0.19002871 0.06358129 -0.95616591
v -0.21003899 0.06567853 -0.95402330
v -0.22996356 0.06806082 -0.95165747
v -0.40332878 0.07844520 -0.90152860
v -0.42998058 0.07518736 -0.88505703
v -0.42998058 0.06518985 -0.87398672
v -0.43872169 0.06751107 -0.87197798
v -0.36129436 0.07944292 -0.92049986
v -0.31681755 0.08129581 -0.93884623
v -0.30344883 0.07875063 -0.94116747
v -0.41519785 0.06193201 -0.87769169
v -0.38996005 0.05706561 -0.88353932
v -0.35628107 0.04122434 -0.87845057
v -0.36999261 0.05352270 -0.88786924
v -0.34976810 0.03330371 -0.87104058
v -0.33841324 0.02049631 -0.85934532
v -0.33104327 0.01247388 -0.85157824
v -0.31943133 0.00015515 -0.83974910
v -0.30996180 -0.01835346 -0.81765312
v -0.29950675 -0.01986022 -0.81979573
v -0.28999436 -0.03808378 -0.79720873
v -0.27743974 -0.05260154 -0.78002298
v -0.28999436 -0.05260154 -0.77538055
v -0.27825388 -0.03957017 -0.79935139
v -0.26492798 -0.04119909 -0.80176187
v -0.38996005 0.06565817 -0.89353830
v -0.36999261 0.06183020 -0.89786822
v -0.20001242 -0.05260154 -0.80466336
v -0.21021038 -0.05260154 -0.80194038
v -0.21740894 -0.05260154 -0.79988706
v -0.22996356 -0.04506778 -0.80743092
v -0.22996356 -0.03824667 -0.81742990
v -0.22996356 -0.02932832 -0.82997328
v -0.24011867 -0.02002311 -0.84001690
v -0.24997383 -0.00145340 -0.86193436
v -0.24997383 0.00614144 -0.87193334
v -0.24997383 0.01613895 -0.88496774
v -0.22996356 0.01398063 -0.88773531
v -0.22353627 0.03924927 -0.92090166
v -0.21003899 0.04643689 -0.93246293
v -0.22996356 0.02179945 -0.89773434
v -0.19002871 0.05454078 -0.94616693
v -0.24791710 0.07048385 -0.94942552
v -0.26998410 0.07355843 -0.94639015
v -0.28999436 0.07655158 -0.94331008
v -0.21003899 0.05641404 -0.94402432
v -0.22996356 0.05851127 -0.94165850
v -0.24097563 0.05975332 -0.94023001
v -0.38996005 0.07565567 -0.90447474
v -0.35195339 0.06584142 -0.90956348
v -0.36879283 0.07313085 -0.91063482
v -0.34998232 0.07728459 -0.92268717
v -0.32997206 0.07370096 -0.92643678
v -0.28999436 0.06655407 -0.93286473
v -0.30957615 0.07005625 -0.92982930
v -0.35992318 0.05999766 -0.89996624
v -0.35143918 0.04951148 -0.89059216
v -0.34295517 0.03904566 -0.88117349
v -0.33104327 0.02591248 -0.86916578
v -0.32508734 0.01848052 -0.86197901
v -0.31167573 0.00510301 -0.84939098
v -0.30610543 -0.00173847 -0.84233809
v -0.29166546 -0.01505490 -0.82934833
v -0.28613800 -0.02161131 -0.82225084
v -0.26321402 -0.05260154 -0.78511173
v -0.27096963 -0.03466304 -0.80903792
v -0.24997383 -0.03604763 -0.81426060
v -0.24997383 -0.04292982 -0.80426157
v -0.24920255 -0.05260154 -0.78997731
v -0.25245905 -0.05260154 -0.78886133
v -0.22996356 -0.05260154 -0.79618204
v -0.24804564 -0.02484879 -0.83073217
v -0.25344455 -0.01847564 -0.83787429
v -0.26085734 -0.00021135 -0.86028272
v -0.26998410 0.01854161 -0.88184309
v -0.24997383 0.02399850 -0.89496672
v -0.23013495 0.04721063 -0.92853481
v -0.23013495 0.03299829 -0.91148293
v -0.23690502 0.04067458 -0.91916072
v -0.24997383 0.03399600 -0.90733159
v -0.25430155 0.06144333 -0.93839985
v -0.26998410 0.06356093 -0.93607867
v -0.24855983 0.05360414 -0.93103456
v -0.32997206 0.06370346 -0.91576821
v -0.31566066 0.06134152 -0.91844654
v -0.28999436 0.05747284 -0.92286575
v -0.30233476 0.05926465 -0.92081237
v -0.34659731 0.05777826 -0.90259993
v -0.32997206 0.04511339 -0.89371687
v -0.32997206 0.03700951 -0.88371789
v -0.30996180 0.02399850 -0.87487948
v -0.30996180 0.01626112 -0.86488050
v -0.28999436 0.00349445 -0.85532784
v -0.28999436 -0.00391715 -0.84532887
v -0.26998410 -0.01645985 -0.83510673
v -0.26998410 -0.02364746 -0.82510769
v -0.23403417 -0.05260154 -0.79488754
v -0.26852724 -0.00530173 -0.85081941
v -0.26852724 0.00770928 -0.86813909
v -0.27418327 0.00143793 -0.85805082
v -0.28048199 0.01988547 -0.88014680
v -0.26998410 0.02648260 -0.89184207
v -0.26998410 0.03648011 -0.90429616
v -0.24997383 0.04220169 -0.91733056
v -0.26998410 0.05472403 -0.92607969
v -0.30940476 0.05315619 -0.91103655
v -0.32997206 0.05509054 -0.90576923
v -0.26998410 0.04472652 -0.91429514
v -0.29123700 0.04619255 -0.90907246
v -0.29877833 0.04034880 -0.89956450
v -0.30996180 0.04201844 -0.89751112
v -0.30996180 0.03399600 -0.88751215
v -0.29380789 0.02167728 -0.87782562
v -0.28828043 0.01471364 -0.87068349
v -0.28960872 0.03010695 -0.88987797
v -0.28545243 0.03851626 -0.90179640
f 1 2 3
f 1 3 6
f 1 6 13
f 1 13 20
f 1 20 29
f 1 29 46
f 1 46 68
f 1 68 95
f 1 95 135
f 1 135 141
f 1 141 140
f 1 140 182
f 1 182 181
f 1 181 234
f 1 234 238
f 1 238 298
f 1 298 369
f 1 369 368
f 1 368 426
f 1 426 425
f 1 425 484
f 1 484 526
f 1 526 525
f 1 525 568
f 1 568 573
f 1 573 572
f 1 572 600
f 1 600 574
f 1 574 533
f 1 533 532
f 1 532 531
f 1 531 486
f 1 486 429
f 1 429 373
f 1 373 372
f 1 372 303
f 1 303 301
f 1 301 242
f 1 242 241
f 1 241 187
f 1 187 144
f 1 144 101
f 1 101 73
f 1 73 48
f 1 48 31
f 1 31 21
f 1 21 14
f 1 14 8
f 1 8 4
f 1 4 9
f 1 9 16
f 1 16 24
f 1 24 34
f 1 34 37
f 1 37 53
f 1 53 81
f 1 81 114
f 1 114 116
f 1 116 115
f 1 115 158
f 1 158 202
f 1 202 203
f 1 203 257
f 1 257 318
f 1 318 319
f 1 319 321
f 1 321 387
f 1 387 400
f 1 400 339
f 1 339 272
f 1 272 271
f 1 271 210
f 1 210 164
f 1 164 121
f 1 121 86
f 1 86 59
f 1 59 58
f 1 58 55
f 1 55 38
f 1 38 25
f 1 25 17
f 1 17 10
f 1 10 5
f 1 5 2
f 2 6 3
f 2 5 7
f 2 7 12
f 2 12 11
f 2 11 18
f 2 18 28
f 2 28 44
f 2 44 67
f 2 67 94
f 2 94 134
f 2 134 176
f 2 176 229
f 2 229 277
f 2 277 276
f 2 276 341
f 2 341 403
f 2 403 457
f 2 457 510
f 2 510 469
f 2 469 468
f 2 468 467
f 2 467 466
f 2 466 410
f 2 410 409
f 2 409 354
f 2 354 287
f 2 287 230
f 2 230 178
f 2 178 177
f 2 177 136
f 2 136 97
f 2 97 70
f 2 70 47
f 2 47 30
f 2 30 19
f 2 19 13
f 2 13 6
f 4 8 9
f 5 10 11
f 5 11 12
f 5 12 7
f 8 14 15
f 8 15 9
f 9 15 16
f 10 17 11
f 11 17 18
f 13 19 20
f 14 21 15
f 15 21 22
f 15 22 33
f 15 33 23
f 15 23 24
f 15 24 16
f 17 25 26
f 17 26 27
f 17 27 18
f 18 27 28
f 19 29 20
f 19 30 29
f 21 31 22
f 22 32 50
f 22 50 33
f 22 31 32
f 23 34 24
f 23 33 35
f 23 35 36
f 23 36 37
f 23 37 34
f 25 38 39
f 25 39 40
f 25 40 41
f 25 41 26
f 26 41 27
f 27 42 28
f 27 41 42
f 28 42 43
f 28 43 44
f 29 45 46
f 29 30 45
f 30 47 45
f 31 48 32
f 32 49 50
f 32 48 49
f 33 50 51
f 33 51 35
f 35 51 78
f 35 78 52
f 35 52 54
f 35 54 36
f 36 53 37
f 36 54 53
f 38 55 39
f 39 56 57
f 39 57 40
f 39 55 58
f 39 58 59
f 39 59 60
f 39 60 56
f 40 57 61
f 40 61 41
f 41 61 62
f 41 62 63
f 41 63 64
f 41 64 42
f 42 64 43
f 43 65 44
f 43 64 66
f 43 66 65
f 44 65 67
f 45 68 46
f 45 47 69
f 45 69 68
f 47 70 71
f 47 71 72
f 47 72 69
f 48 73 74
f 48 74 49
f 49 75 76
f 49 76 50
f 49 74 75
f 50 76 77
f 50 77 51
f 51 77 107
f 51 107 78
f 52 78 79
f 52 79 80
f 52 80 54
f 53 54 81
f 54 80 82
f 54 82 81
f 56 60 83
f 56 83 84
f 56 84 85
f 56 85 57
f 57 85 61
f 59 86 60
f 60 86 87
f 60 87 117
f 60 117 83
f 61 88 62
f 61 85 88
f 62 88 89
f 62 89 90
f 62 90 63
f 63 90 64
f 64 90 66
f 65 66 91
f 65 91 67
f 66 90 92
f 66 92 93
f 66 93 91
f 67 91 94
f 68 69 95
f 69 72 96
f 69 96 95
f 70 97 98
f 70 98 71
f 71 98 72
f 72 99 96
f 72 98 100
f 72 100 99
f 73 101 102
f 73 102 75
f 73 75 74
f 75 103 104
f 75 104 76
f 75 102 103
f 76 104 105
f 76 105 77
f 77 105 106
f 77 106 107
f 78 107 108
f 78 108 79
f 79 108 109
f 79 109 80
f 80 109 110
f 80 110 111
f 80 111 112
f 80 112 113
f 80 113 82
f 81 82 114
f 82 113 115
f 82 115 116
f 82 116 114
f 83 117 118
f 83 118 84
f 84 118 119
f 84 119 120
f 84 120 85
f 85 120 88
f 86 121 122
f 86 122 87
f 87 122 123
f 87 123 117
f 88 124 89
f 88 120 125
f 88 125 124
f 89 124 126
f 89 126 127
f 89 127 90
f 90 127 92
f 91 128 94
f 91 93 129
f 91 129 128
f 92 130 93
f 92 127 131
f 92 131 130
f 93 130 132
f 93 132 133
f 93 133 129
f 94 128 134
f 95 96 135
f 96 99 135
f 97 136 98
f 98 136 137
f 98 137 138
f 98 138 100
f 99 139 140
f 99 140 141
f 99 141 135
f 99 100 142
f 99 142 139
f 100 138 143
f 100 143 142
f 101 144 102
f 102 144 145
f 102 145 103
f 103 146 147
f 103 147 104
f 103 145 146
f 104 147 148
f 104 148 105
f 105 148 149
f 105 149 150
f 105 150 106
f 106 150 151
f 106 151 108
f 106 108 107
f 108 151 152
f 108 152 153
f 108 153 111
f 108 111 110
f 108 110 109
f 111 154 112
f 111 153 155
f 111 155 156
f 111 156 199
f 111 199 154
f 112 154 113
f 113 154 157
f 113 157 158
f 113 158 115
f 117 159 118
f 117 123 160
f 117 160 159
f 118 159 161
f 118 161 162
f 118 162 119
f 119 162 163
f 119 163 125
f 119 125 120
f 121 164 165
f 121 165 122
f 122 165 166
f 122 166 123
f 123 166 160
f 124 125 163
f 124 163 167
f 124 167 126
f 126 168 127
f 126 167 169
f 126 169 168
f 127 168 170
f 127 170 131
f 128 129 134
f 129 133 171
f 129 171 134
f 130 131 132
f 131 170 172
f 131 172 173
f 131 173 132
f 132 173 133
f 133 174 171
f 133 173 175
f 133 175 174
f 134 171 176
f 136 177 137
f 137 177 178
f 137 178 179
f 137 179 138
f 138 179 180
f 138 180 143
f 139 181 182
f 139 182 140
f 139 142 183
f 139 183 184
f 139 184 181
f 142 143 185
f 142 185 183
f 143 180 186
f 143 186 185
f 144 187 145
f 145 187 188
f 145 188 146
f 146 189 190
f 146 190 191
f 146 191 147
f 146 188 189
f 147 191 148
f 148 191 192
f 148 192 149
f 149 192 193
f 149 193 150
f 150 193 249
f 150 249 194
f 150 194 195
f 150 195 151
f 151 195 152
f 152 195 196
f 152 196 197
f 152 197 198
f 152 198 155
f 152 155 153
f 154 199 200
f 154 200 157
f 155 198 156
f 156 201 256
f 156 256 199
f 156 198 253
f 156 253 201
f 157 202 158
f 157 200 203
f 157 203 202
f 159 204 161
f 159 160 205
f 159 205 204
f 160 166 206
f 160 206 205
f 161 204 207
f 161 207 208
f 161 208 209
f 161 209 162
f 162 209 163
f 163 209 167
f 164 210 165
f 165 210 211
f 165 211 212
f 165 212 166
f 166 212 213
f 166 213 206
f 167 209 169
f 168 169 170
f 169 209 214
f 169 214 170
f 170 214 215
f 170 215 172
f 171 216 176
f 171 174 217
f 171 217 218
f 171 218 219
f 171 219 216
f 172 215 173
f 173 215 220
f 173 220 175
f 174 175 221
f 174 221 222
f 174 222 223
f 174 223 217
f 175 220 224
f 175 224 225
f 175 225 226
f 175 226 227
f 175 227 221
f 176 228 229
f 176 216 228
f 178 230 231
f 178 231 179
f 179 231 180
f 180 231 232
f 180 232 233
f 180 233 186
f 181 184 234
f 183 185 235
f 183 235 236
f 183 236 237
f 183 237 184
f 184 237 238
f 184 238 234
f 185 186 235
f 186 233 239
f 186 239 240
f 186 240 235
f 187 241 188
f 188 241 242
f 188 242 243
f 188 243 189
f 189 244 190
f 189 243 245
f 189 245 244
f 190 244 246
f 190 246 191
f 191 246 247
f 191 247 192
f 192 247 193
f 193 247 248
f 193 248 310
f 193 310 249
f 194 249 250
f 194 250 196
f 194 196 195
f 196 250 251
f 196 251 252
f 196 252 197
f 197 253 198
f 197 252 254
f 197 254 255
f 197 255 253
f 199 256 258
f 199 258 200
f 200 257 203
f 200 258 257
f 201 253 259
f 201 259 260
f 201 260 256
f 204 261 262
f 204 262 263
f 204 263 207
f 204 205 264
f 204 264 265
f 204 265 261
f 205 206 266
f 205 266 332
f 205 332 264
f 206 213 267
f 206 267 266
f 207 263 268
f 207 268 269
f 207 269 270
f 207 270 208
f 208 270 209
f 209 270 269
f 209 269 215
f 209 215 214
f 210 271 211
f 211 271 272
f 211 272 273
f 211 273 274
f 211 274 212
f 212 274 275
f 212 275 213
f 213 275 337
f 213 337 267
f 215 269 220
f 216 219 228
f 217 223 218
f 218 223 219
f 219 276 277
f 219 277 229
f 219 229 228
f 219 223 285
f 219 285 278
f 219 278 276
f 220 269 268
f 220 268 279
f 220 279 280
f 220 280 281
f 220 281 282
f 220 282 283
f 220 283 284
f 220 284 224
f 221 227 226
f 221 226 223
f 221 223 222
f 223 226 286
f 223 286 285
f 224 284 282
f 224 282 226
f 224 226 225
f 226 282 330
f 226 330 286
f 230 287 288
f 230 288 231
f 231 288 232
f 232 288 289
f 232 289 290
f 232 290 291
f 232 291 239
f 232 239 233
f 235 240 292
f 235 292 293
f 235 293 294
f 235 294 295
f 235 295 236
f 236 295 296
f 236 296 237
f 237 296 297
f 237 297 238
f 238 297 298
f 239 291 299
f 239 299 300
f 239 300 292
f 239 292 240
f 242 301 243
f 243 302 245
f 243 301 303
f 243 303 302
f 244 245 304
f 244 304 305
f 244 305 246
f 245 302 306
f 245 306 304
f 246 305 247
f 247 307 308
f 247 308 248
f 247 305 307
f 248 308 309
f 248 309 310
f 249 310 311
f 249 311 250
f 250 311 312
f 250 312 251
f 251 312 252
f 252 312 313
f 252 313 254
f 253 255 259
f 254 313 314
f 254 314 315
f 254 315 316
f 254 316 255
f 255 316 317
f 255 317 259
f 256 260 320
f 256 320 258
f 257 258 318
f 258 319 318
f 258 320 321
f 258 321 319
f 259 317 322
f 259 322 260
f 260 322 320
f 261 323 324
f 261 324 262
f 261 265 325
f 261 325 323
f 262 324 326
f 262 326 327
f 262 327 328
f 262 328 329
f 262 329 330
f 262 330 282
f 262 282 263
f 263 282 280
f 263 280 279
f 263 279 331
f 263 331 268
f 264 332 265
f 265 332 333
f 265 333 334
f 265 334 335
f 265 335 325
f 266 267 336
f 266 336 394
f 266 394 332
f 267 337 338
f 267 338 336
f 268 331 279
f 272 339 273
f 273 339 340
f 273 340 322
f 273 322 274
f 274 322 317
f 274 317 275
f 275 317 316
f 275 316 337
f 276 278 342
f 276 342 341
f 278 285 343
f 278 343 344
f 278 344 345
f 278 345 342
f 280 282 281
f 282 284 283
f 285 286 346
f 285 346 347
f 285 347 348
f 285 348 349
f 285 349 343
f 286 350 351
f 286 351 346
f 286 330 352
f 286 352 353
f 286 353 350
f 287 354 289
f 287 289 288
f 289 354 355
f 289 355 290
f 290 355 356
f 290 356 357
f 290 357 358
f 290 358 299
f 290 299 291
f 292 300 293
f 293 359 294
f 293 300 360
f 293 360 361
f 293 361 362
f 293 362 363
f 293 363 359
f 294 364 295
f 294 359 364
f 295 364 365
f 295 365 296
f 296 365 366
f 296 366 297
f 297 367 368
f 297 368 369
f 297 369 298
f 297 366 367
f 299 358 370
f 299 370 360
f 299 360 300
f 302 371 306
f 302 303 372
f 302 372 373
f 302 373 371
f 304 374 375
f 304 375 376
f 304 376 305
f 304 306 374
f 305 376 307
f 306 371 377
f 306 377 374
f 307 378 308
f 307 376 378
f 308 378 379
f 308 379 309
f 309 379 380
f 309 380 381
f 309 381 310
f 310 381 311
f 311 381 382
f 311 382 383
f 311 383 312
f 312 383 382
f 312 382 384
f 312 384 313
f 313 384 385
f 313 385 314
f 314 385 386
f 314 386 338
f 314 338 315
f 315 338 337
f 315 337 316
f 320 387 321
f 320 322 340
f 320 340 400
f 320 400 387
f 323 325 324
f 324 325 326
f 325 335 388
f 325 388 389
f 325 389 390
f 325 390 326
f 326 390 328
f 326 328 327
f 328 390 329
f 329 390 391
f 329 391 330
f 330 391 390
f 330 390 392
f 330 392 393
f 330 393 352
f 332 394 395
f 332 395 333
f 333 395 334
f 334 395 396
f 334 396 397
f 334 397 335
f 335 397 398
f 335 398 399
f 335 399 388
f 336 338 394
f 338 386 394
f 339 400 340
f 341 342 344
f 341 344 401
f 341 401 402
f 341 402 403
f 342 345 344
f 343 349 344
f 344 404 405
f 344 405 401
f 344 349 348
f 344 348 406
f 344 406 407
f 344 407 404
f 346 351 350
f 346 350 348
f 346 348 347
f 348 350 406
f 350 353 352
f 350 352 390
f 350 390 408
f 350 408 406
f 352 393 390
f 354 409 355
f 355 409 410
f 355 410 411
f 355 411 356
f 356 411 357
f 357 411 412
f 357 412 413
f 357 413 414
f 357 414 358
f 358 414 370
f 359 363 364
f 360 370 361
f 361 415 416
f 361 416 417
f 361 417 418
f 361 418 419
f 361 419 362
f 361 370 415
f 362 419 363
f 363 419 420
f 363 420 421
f 363 421 364
f 364 421 365
f 365 421 366
f 366 421 422
f 366 422 423
f 366 423 424
f 366 424 367
f 367 425 426
f 367 426 368
f 367 424 425
f 370 414 427
f 370 427 415
f 371 428 377
f 371 373 429
f 371 429 430
f 371 430 428
f 374 431 432
f 374 432 375
f 374 377 431
f 375 432 433
f 375 433 434
f 375 434 435
f 375 435 376
f 376 435 378
f 377 428 436
f 377 436 431
f 378 435 434
f 378 434 379
f 379 437 438
f 379 438 380
f 379 434 437
f 380 438 439
f 380 439 440
f 380 440 441
f 380 441 381
f 381 441 382
f 382 441 442
f 382 442 443
f 382 443 444
f 382 444 385
f 382 385 384
f 385 444 445
f 385 445 386
f 386 445 395
f 386 395 394
f 388 399 446
f 388 446 389
f 389 446 447
f 389 447 390
f 390 447 448
f 390 448 449
f 390 449 450
f 390 450 408
f 390 393 392
f 395 445 396
f 396 398 397
f 396 445 451
f 396 451 452
f 396 452 398
f 398 452 453
f 398 453 454
f 398 454 399
f 399 454 455
f 399 455 446
f 401 405 456
f 401 456 402
f 402 456 457
f 402 457 403
f 404 407 458
f 404 458 456
f 404 456 405
f 406 459 460
f 406 460 461
f 406 461 458
f 406 458 462
f 406 462 407
f 406 408 459
f 407 462 458
f 408 450 463
f 408 463 464
f 408 464 465
f 408 465 459
f 410 466 411
f 411 466 467
f 411 467 412
f 412 468 469
f 412 469 470
f 412 470 413
f 412 467 468
f 413 470 471
f 413 471 427
f 413 427 414
f 415 427 416
f 416 427 472
f 416 472 473
f 416 473 474
f 416 474 417
f 417 475 418
f 417 474 475
f 418 475 476
f 418 476 419
f 419 477 478
f 419 478 420
f 419 476 477
f 420 478 479
f 420 479 421
f 421 479 422
f 422 479 522
f 422 522 480
f 422 480 481
f 422 481 424
f 422 424 423
f 424 481 482
f 424 482 425
f 425 482 483
f 425 483 484
f 427 471 485
f 427 485 472
f 428 430 486
f 428 486 487
f 428 487 488
f 428 488 436
f 429 486 430
f 431 489 490
f 431 490 432
f 431 436 489
f 432 490 491
f 432 491 492
f 432 492 433
f 433 492 493
f 433 493 434
f 434 493 437
f 436 488 489
f 437 494 495
f 437 495 438
f 437 493 496
f 437 496 494
f 438 495 439
f 439 495 497
f 439 497 498
f 439 498 440
f 440 498 442
f 440 442 441
f 442 498 443
f 443 499 500
f 443 500 444
f 443 498 499
f 444 500 451
f 444 451 445
f 446 455 501
f 446 501 447
f 447 501 448
f 448 501 449
f 449 501 502
f 449 502 450
f 450 502 463
f 451 500 452
f 452 500 503
f 452 503 504
f 452 504 453
f 453 504 454
f 454 504 505
f 454 505 455
f 455 505 506
f 455 506 501
f 456 458 507
f 456 507 457
f 457 507 508
f 457 508 509
f 457 509 510
f 458 511 507
f 458 461 511
f 459 512 460
f 459 465 512
f 460 512 511
f 460 511 461
f 463 502 513
f 463 513 464
f 464 513 512
f 464 512 465
f 469 510 509
f 469 509 514
f 469 514 470
f 470 514 471
f 471 514 485
f 472 485 515
f 472 515 473
f 473 516 474
f 473 515 517
f 473 517 516
f 474 516 518
f 474 518 475
f 475 518 519
f 475 519 476
f 476 519 477
f 477 519 520
f 477 520 521
f 477 521 478
f 478 521 522
f 478 522 479
f 480 522 523
f 480 523 481
f 481 524 482
f 481 523 524
f 482 524 483
f 483 525 526
f 483 526 484
f 483 524 527
f 483 527 528
f 483 528 525
f 485 529 530
f 485 530 515
f 485 514 529
f 486 531 487
f 487 531 532
f 487 532 533
f 487 533 534
f 487 534 488
f 488 534 535
f 488 535 536
f 488 536 489
f 489 537 490
f 489 536 537
f 490 537 538
f 490 538 491
f 491 538 539
f 491 539 492
f 492 539 540
f 492 540 541
f 492 541 493
f 493 541 496
f 494 542 495
f 494 496 542
f 495 542 543
f 495 543 497
f 496 541 544
f 496 544 542
f 497 543 549
f 497 549 545
f 497 545 499
f 497 499 498
f 499 545 503
f 499 503 500
f 501 506 546
f 501 546 547
f 501 547 502
f 502 547 548
f 502 548 513
f 503 545 504
f 504 545 549
f 504 549 505
f 505 549 550
f 505 550 506
f 506 550 551
f 506 551 546
f 507 511 552
f 507 552 529
f 507 529 514
f 507 514 508
f 508 514 509
f 511 553 554
f 511 554 552
f 511 512 555
f 511 555 553
f 512 513 556
f 512 556 555
f 513 548 557
f 513 557 558
f 513 558 556
f 515 530 517
f 516 517 559
f 516 559 560
f 516 560 561
f 516 561 518
f 517 530 559
f 518 561 519
f 519 561 562
f 519 562 563
f 519 563 520
f 520 563 521
f 521 563 564
f 521 564 565
f 521 565 523
f 521 523 522
f 523 565 566
f 523 566 567
f 523 567 524
f 524 567 527
f 525 528 568
f 527 569 528
f 527 567 569
f 528 569 570
f 528 570 571
f 528 571 572
f 528 572 573
f 528 573 568
f 529 552 530
f 530 552 554
f 530 554 553
f 530 553 559
f 533 574 534
f 534 574 571
f 534 571 535
f 535 571 570
f 535 570 575
f 535 575 537
f 535 537 536
f 537 575 576
f 537 576 577
f 537 577 538
f 538 577 539
f 539 577 540
f 540 578 579
f 540 579 544
f 540 544 541
f 540 577 578
f 542 580 549
f 542 549 543
f 542 544 581
f 542 581 582
f 542 582 580
f 544 579 583
f 544 583 582
f 544 582 581
f 546 551 584
f 546 584 547
f 547 584 585
f 547 585 548
f 548 585 557
f 549 580 550
f 550 580 551
f 551 580 582
f 551 582 586
f 551 586 584
f 553 555 587
f 553 587 559
f 555 556 587
f 556 558 588
f 556 588 587
f 557 585 589
f 557 589 590
f 557 590 588
f 557 588 558
f 559 587 591
f 559 591 560
f 560 591 561
f 561 591 592
f 561 592 593
f 561 593 562
f 562 594 563
f 562 593 594
f 563 594 595
f 563 595 564
f 564 596 565
f 564 595 596
f 565 596 597
f 565 597 566
f 566 597 598
f 566 598 567
f 567 598 599
f 567 599 569
f 569 599 570
f 570 599 575
f 571 574 600
f 571 600 572
f 575 599 576
f 576 599 598
f 576 598 601
f 576 601 577
f 577 602 578
f 577 601 603
f 577 603 602
f 578 604 605
f 578 605 579
f 578 602 604
f 579 605 606
f 579 606 583
f 582 583 607
f 582 607 586
f 583 606 607
f 584 586 608
f 584 608 585
f 585 608 589
f 586 607 608
f 587 588 591
f 588 590 609
f 588 609 610
f 588 610 591
f 589 608 611
f 589 611 612
f 589 612 590
f 590 612 613
f 590 613 609
f 591 610 592
f 592 614 593
f 592 610 614
f 593 614 615
f 593 615 594
f 594 616 595
f 594 615 616
f 595 616 617
f 595 617 596
f 596 603 597
f 596 617 603
f 597 603 601
f 597 601 598
f 602 603 604
f 603 617 604
f 604 618 619
f 604 619 605
f 604 617 616
f 604 616 618
f 605 619 606
f 606 619 611
f 606 611 607
f 607 611 608
f 609 613 614
f 609 614 610
f 611 619 612
f 612 619 613
f 613 618 616
f 613 616 615
f 613 615 614
f 613 619 618
