v -0.95990050 0.10999402 0.31204814
v -0.95712662 0.12619352 0.31204814
v -0.95924008 0.10654940 0.31204814
v -0.95857960 0.10999402 0.31592020
v -0.94121015 0.12339848 0.36314142
v -0.95633411 0.13064200 0.31204814
v -0.94986188 0.08970033 0.31204814
v -0.94622946 0.09235761 0.33001098
v -0.94266313 0.09631398 0.35001296
v -0.94054973 0.09908935 0.36151469
v -0.95362633 0.10999402 0.33001098
v -0.93823820 0.13672420 0.35608459
v -0.94352168 0.13003182 0.34964639
v -0.95039022 0.12999246 0.33001098
v -0.94636154 0.10999402 0.35001296
v -0.94134223 0.10999402 0.36348510
v -0.93731362 0.10999402 0.37349755
v -0.93037903 0.10999402 0.39001697
v -0.92232174 0.12583923 0.40507001
v -0.92588806 0.13148838 0.39141458
v -0.91941583 0.13916495 0.39902130
v -0.95593786 0.13135061 0.31204814
v -0.94094598 0.14093646 0.34274992
v -0.94821078 0.08786976 0.31204814
v -0.93731362 0.08233871 0.33001098
v -0.93368125 0.08631477 0.35001296
v -0.92952049 0.09015305 0.36898392
v -0.92463326 0.09412912 0.39001697
v -0.92166126 0.09761310 0.40374112
v -0.92298216 0.10999402 0.40660512
v -0.90680152 0.13174428 0.43171644
v -0.89966881 0.13957831 0.43950644
v -0.91835916 0.10999402 0.41661757
v -0.90257472 0.12625259 0.44507402
v -0.92225569 0.14197969 0.38568664
v -0.90283895 0.14225526 0.42621762
v -0.94603133 0.14422362 0.31204814
v -0.94305938 0.14258988 0.33001098
v -0.92542577 0.14388900 0.37001497
v -0.94041765 0.07962238 0.31204814
v -0.93942702 0.08044909 0.31832594
v -0.92119896 0.07901219 0.36311853
v -0.91849124 0.08121675 0.37643027
v -0.91551924 0.08412990 0.39001697
v -0.89914048 0.08068529 0.41822138
v -0.89616847 0.08350003 0.42999804
v -0.90541458 0.09349924 0.42999804
v -0.90191430 0.09729816 0.44385970
v -0.88646013 0.13123250 0.47121638
v -0.87912929 0.13871223 0.47868562
v -0.88269567 0.14215684 0.46535096
v -0.91175479 0.10999402 0.42999804
v -0.90343332 0.10999402 0.44670075
v -0.89821589 0.10999402 0.45671320
v -0.88223338 0.12538651 0.48388660
v -0.90666944 0.14430234 0.41001898
v -0.88679034 0.14422362 0.44997713
v -0.92998278 0.14825873 0.33001098
v -0.92998278 0.14999089 0.31204814
v -0.91162264 0.14556208 0.39141458
v -0.90997159 0.14965627 0.37001497
v -0.93275660 0.07367796 0.31204814
v -0.93070924 0.07210329 0.31204814
v -0.91433048 0.06428894 0.33001098
v -0.92734104 0.07428816 0.33001098
v -0.92364264 0.07708322 0.35001296
v -0.90898097 0.06606045 0.35070032
v -0.89914048 0.06062781 0.35782588
v -0.91109431 0.07340240 0.36987749
v -0.90554667 0.07570536 0.39001697
v -0.90217847 0.07824454 0.40488672
v -0.89147943 0.07235917 0.41093543
v -0.88612992 0.07537074 0.42999804
v -0.88236547 0.07814612 0.44466162
v -0.87886512 0.08084276 0.45799628
v -0.89042270 0.08907046 0.45093945
v -0.88500714 0.09403070 0.46997914
v -0.88150686 0.09786898 0.48274100
v -0.87569499 0.13123250 0.49032483
v -0.85779727 0.13575971 0.51662755
v -0.84049386 0.14046407 0.54079950
v -0.86189193 0.14160571 0.50329292
v -0.86578852 0.14375120 0.48998114
v -0.89108312 0.10999402 0.46997914
v -0.88282776 0.10999402 0.48498636
v -0.86090130 0.12243398 0.52146196
v -0.86473179 0.12946099 0.50998312
v -0.89180964 0.14573924 0.43171644
v -0.88996041 0.15004992 0.41001898
v -0.87146825 0.14564082 0.47121638
v -0.86994922 0.15006961 0.44997713
v -0.90997159 0.15058139 0.35001296
v -0.90997159 0.14977436 0.33001098
v -0.90997159 0.14806190 0.31204814
v -0.91743451 0.06192692 0.31204814
v -0.90845263 0.05511643 0.31204814
v -0.90429187 0.05671079 0.33001098
v -0.90165013 0.05869883 0.34449124
v -0.89147943 0.05297093 0.35070032
v -0.87694985 0.04220406 0.35001296
v -0.84320164 0.01769811 0.35001296
v -0.88659221 0.05519516 0.37001497
v -0.89656478 0.06249774 0.37001497
v -0.88976228 0.06456451 0.39198738
v -0.87992179 0.05999794 0.39996070
v -0.87747824 0.06176945 0.41001898
v -0.87001526 0.06430862 0.43192264
v -0.87133616 0.07245759 0.45080197
v -0.86559039 0.07588252 0.46997914
v -0.86182588 0.07857916 0.48322216
v -0.85792935 0.08164978 0.49655682
v -0.87556291 0.08403149 0.46997914
v -0.86975110 0.08975938 0.48963746
v -0.86341095 0.09592032 0.50998312
v -0.86024088 0.09956177 0.52045381
v -0.84366393 0.14258988 0.52998513
v -0.84287143 0.12999246 0.54457998
v -0.84188080 0.12999246 0.54609215
v -0.83296490 0.14268830 0.54609215
v -0.85066456 0.14505032 0.50998312
v -0.84993809 0.14959720 0.48998114
v -0.87701589 0.10999402 0.49497592
v -0.86790192 0.10999402 0.50998312
v -0.86090130 0.10999402 0.52143902
v -0.85456109 0.10999402 0.53145146
v -0.84518296 0.10999402 0.54609215
v -0.84386206 0.11814298 0.54609215
v -0.84993809 0.15083727 0.46997914
v -0.82999295 0.15079790 0.50998312
v -0.80998176 0.15077822 0.52998513
v -0.78977245 0.14896733 0.54609215
v -0.89630061 0.14229463 0.31204814
v -0.77260113 0.14288513 0.54609215
v -0.28526631 -0.05024932 0.54609215
v -0.89398909 0.04425114 0.31204814
v -0.88183707 0.03864134 0.32492456
v -0.88910186 0.04566835 0.33095035
v -0.87926137 0.04049160 0.33825922
v -0.85720289 0.02202848 0.33001098
v -0.84723032 0.01478495 0.33001098
v -0.83309698 0.00478574 0.33001098
v -0.82840788 0.00704934 0.34902775
v -0.84069198 0.01946962 0.36169797
v -0.88295984 0.05781307 0.38662601
v -0.83772004 0.02161512 0.37503266
v -0.83415365 0.02409524 0.39001697
v -0.86750567 0.05464403 0.41001898
v -0.86334491 0.05759655 0.42658418
v -0.85991061 0.06001762 0.43989596
v -0.85720289 0.06196629 0.44997713
v -0.84973991 0.06503692 0.47114766
v -0.83917296 0.06054908 0.47859398
v -0.85073060 0.07346145 0.48993531
v -0.84386206 0.07714226 0.50998312
v -0.84055990 0.07956333 0.52088916
v -0.85390067 0.08592110 0.50998312
v -0.83620101 0.08328351 0.53422379
v -0.84267330 0.09660923 0.54416752
v -0.84194684 0.09859727 0.54609215
v -0.84386206 0.10530934 0.54609215
v -0.82959670 0.14430234 0.54609215
v -0.82999295 0.14831778 0.52998513
v -0.80998176 0.15028614 0.54609215
v -0.52810818 -0.05024932 0.31204814
v -0.61535162 -0.05024932 0.54609215
v -0.88414860 0.03692888 0.31204814
v -0.85944831 0.02041443 0.31850925
v -0.85264587 0.01380077 0.31204814
v -0.83659732 0.00236467 0.31204814
v -0.82761538 -0.00385532 0.31204814
v -0.82305837 -0.00214286 0.33001098
v -0.82068080 -0.00048944 0.34171891
v -0.81784093 0.00149859 0.35505357
v -0.83058733 0.01474558 0.36902976
v -0.81440669 0.00384093 0.37001497
v -0.80139613 -0.00096185 0.38293722
v -0.82411504 0.01710760 0.39001697
v -0.84339976 0.03753907 0.41001898
v -0.82114315 0.01919405 0.40229768
v -0.84062594 0.03954679 0.42129156
v -0.83712566 0.04198754 0.43460333
v -0.84716427 0.05489991 0.44997713
v -0.84293747 0.05789180 0.46525931
v -0.83580476 0.06287172 0.48998114
v -0.82002038 0.03996014 0.46012706
v -0.80971760 0.03600376 0.46807745
v -0.81618989 0.04263709 0.47346175
v -0.80284905 0.03803116 0.48482600
v -0.82906830 0.06663127 0.50979984
v -0.81770885 0.06155293 0.51635265
v -0.82972878 0.07541011 0.52854168
v -0.82286024 0.07789023 0.54428208
v -0.82226586 0.07834296 0.54609215
v -0.83217239 0.08729894 0.54609215
v -0.83923900 0.09442437 0.54609215
v -0.75820369 -0.05024932 0.31204814
v -0.63714600 -0.03847859 0.54609215
v -0.63985378 -0.03995485 0.53988302
v -0.62796593 -0.05024932 0.53145146
v -0.86849630 0.02539435 0.31204814
v -0.86057109 0.01956804 0.31204814
v -0.81202912 -0.01460251 0.31204814
v -0.80033940 -0.02025167 0.32098371
v -0.80819857 -0.01275226 0.32859045
v -0.79756558 -0.01840142 0.33431840
v -0.81070828 -0.00519380 0.34902775
v -0.80443412 -0.00302861 0.37001497
v -0.79809391 0.00126239 0.39627188
v -0.80879301 0.00643915 0.38976493
v -0.78871578 -0.01363802 0.36955673
v -0.77081800 -0.02554654 0.36955673
v -0.76454389 -0.02306641 0.39001697
v -0.81064218 0.01445033 0.40937743
v -0.81770885 0.02157575 0.41563237
v -0.83025712 0.03507863 0.42878371
v -0.80390579 0.01730444 0.42999804
v -0.80080175 0.01944994 0.44145396
v -0.83289886 0.04492038 0.44997713
v -0.79888648 0.04076716 0.49816066
v -0.82186961 0.05869883 0.50301796
v -0.80846274 0.02759890 0.44887736
v -0.79697120 0.02202848 0.45478863
v -0.79016870 0.02413461 0.47169754
v -0.77966779 0.02019791 0.47951046
v -0.79129148 0.03267725 0.49089763
v -0.79512197 0.04330634 0.50998312
v -0.78131890 0.03911375 0.52201182
v -0.80331135 0.05769497 0.52998513
v -0.81328392 0.06458420 0.52998513
v -0.80000919 0.05995857 0.54004341
v -0.79796183 0.06137578 0.54609215
v -0.75153327 -0.05024932 0.32849878
v -0.76328903 -0.04217909 0.33001098
v -0.76791209 -0.04389155 0.31204814
v -0.65147740 -0.03038868 0.54609215
v -0.66455400 -0.02292863 0.54609215
v -0.65114719 -0.03719916 0.53193265
v -0.64526933 -0.04296643 0.52654839
v -0.63192856 -0.04788730 0.53193265
v -0.63173044 -0.05024932 0.52689207
v -0.80311322 -0.02070440 0.31204814
v -0.80205655 -0.02141300 0.31204814
v -0.79406530 -0.01611814 0.35001296
v -0.76077938 -0.04054536 0.34192511
v -0.78448898 -0.00296956 0.41001898
v -0.79446155 0.00368346 0.41001898
v -0.76137376 -0.02092091 0.40264136
v -0.78118682 -0.02080281 0.36259153
v -0.75780743 -0.03859669 0.35525978
v -0.75430715 -0.03631341 0.37001497
v -0.74129653 -0.04082093 0.38254774
v -0.74875945 -0.03361677 0.38953581
v -0.78871578 0.00681313 0.42933363
v -0.77755439 0.00163637 0.43554270
v -0.77345973 0.00437238 0.44997713
v -0.79016870 0.01515894 0.44887736
v -0.77649772 0.02232373 0.48998114
v -0.76229835 0.01844608 0.50365949
v -0.78514946 0.03651553 0.50998312
v -0.76038313 -0.00025324 0.46065405
v -0.78363043 0.01754064 0.46617579
v -0.77002549 0.00996249 0.47007078
v -0.76652515 0.01563134 0.48998114
v -0.77689397 0.04210564 0.53534651
v -0.76936501 0.02598486 0.51018935
v -0.75800556 0.02130019 0.51699412
v -0.79188585 0.05724225 0.54609215
v -0.74882549 -0.05024932 0.33470789
v -0.69783992 -0.00326481 0.54609215
v -0.67809296 -0.01889351 0.53759187
v -0.67082816 -0.02639292 0.53053504
v -0.65861011 -0.03920688 0.51818556
v -0.64427865 -0.05024932 0.51124328
v -0.75067472 -0.04499383 0.34916523
v -0.78118682 -0.00080438 0.42223096
v -0.75780743 -0.01855889 0.41597605
v -0.73779625 -0.03861637 0.39588240
v -0.75067472 -0.02546780 0.40958363
v -0.74228722 -0.05024932 0.34957764
v -0.74433458 -0.04280896 0.37001497
v -0.73297507 -0.05024932 0.36921304
v -0.72927666 -0.05024932 0.37663648
v -0.72254020 -0.05024932 0.38976493
v -0.73066354 -0.04521035 0.38953581
v -0.75384480 -0.01601972 0.42999804
v -0.76342112 -0.00228064 0.44997713
v -0.75080681 0.01370236 0.51018935
v -0.74975014 0.00496288 0.49085179
v -0.73872083 0.00077030 0.49809194
v -0.75628841 0.00238435 0.47398871
v -0.74070215 -0.02044851 0.44117901
v -0.73660743 -0.01786997 0.45449078
v -0.74975014 -0.00403247 0.46837533
v -0.77009153 0.03482275 0.52920616
v -0.75358063 0.02419366 0.52998513
v -0.76355320 0.03763749 0.54510695
v -0.77227092 0.04397557 0.54609215
v -0.74354202 0.01769811 0.52998513
v -0.70160443 -0.00100121 0.54609215
v -0.70266110 -0.00163108 0.54348016
v -0.68324435 -0.02192477 0.52425718
v -0.66356337 -0.04210036 0.50485086
v -0.65075094 -0.05024932 0.50290340
v -0.65114719 -0.04656851 0.51089960
v -0.69658512 -0.01794870 0.51529866
v -0.67010170 -0.03558511 0.51089960
v -0.74387223 -0.02251527 0.42999804
v -0.71217138 -0.05024932 0.40894210
v -0.72392714 -0.04247434 0.41001898
v -0.73389965 -0.03613625 0.41001898
v -0.73469222 0.00330947 0.50998312
v -0.74294764 -0.00190666 0.48475724
v -0.73125792 -0.00682753 0.49085179
v -0.70530283 -0.02334198 0.48998114
v -0.70134026 -0.02084218 0.50196403
v -0.72471964 -0.00291051 0.50998312
v -0.72841805 -0.03282943 0.42880663
v -0.71686047 -0.03800619 0.43462625
v -0.71012402 -0.03584100 0.45142058
v -0.72993708 -0.01552764 0.47112474
v -0.72326666 -0.02208224 0.46521348
v -0.76025105 0.03592502 0.54609215
v -0.74004173 0.01996171 0.54011214
v -0.76460993 0.03881850 0.54609215
v -0.72082305 -0.00052881 0.52118701
v -0.72848409 0.00762016 0.52870208
v -0.70536888 0.00128207 0.54609215
v -0.71124679 0.00488415 0.54609215
v -0.71600187 0.00246308 0.53452170
v -0.70959568 -0.00407184 0.52870208
v -0.66012913 -0.05024932 0.49011862
v -0.68991470 -0.02456236 0.50918126
v -0.67690414 -0.03816365 0.49559453
v -0.67010170 -0.04477731 0.48933962
v -0.72075701 -0.04046662 0.42131448
v -0.70886922 -0.05024932 0.41473880
v -0.69935894 -0.03962024 0.45902729
v -0.71144491 -0.02718026 0.47112474
v -0.69566047 -0.03741568 0.46997914
v -0.68892407 -0.03357740 0.48933962
v -0.71012402 -0.04440332 0.42880663
v -0.70351970 -0.04219877 0.44569263
v -0.74618375 0.02673283 0.54609215
v -0.73178631 0.01758001 0.54609215
v -0.73779625 0.02135924 0.54609215
v -0.66937518 -0.05024932 0.47705889
v -0.68152720 -0.04093903 0.48225987
v -0.69982123 -0.05024932 0.43004388
v -0.69103748 -0.05024932 0.44436374
v -0.68681067 -0.05024932 0.45098525
v -0.68099886 -0.05024932 0.45980629
v -0.67452657 -0.05024932 0.46956673
v -0.68568796 -0.04341915 0.46997914
f 1 2 6
f 1 6 22
f 1 22 37
f 1 37 59
f 1 59 94
f 1 94 132
f 1 132 164
f 1 164 196
f 1 196 234
f 1 234 242
f 1 242 241
f 1 241 202
f 1 202 170
f 1 170 169
f 1 169 168
f 1 168 201
f 1 201 200
f 1 200 166
f 1 166 135
f 1 135 96
f 1 96 95
f 1 95 63
f 1 63 62
f 1 62 40
f 1 40 24
f 1 24 7
f 1 7 3
f 1 3 4
f 1 4 5
f 1 5 2
f 2 5 6
f 3 7 8
f 3 8 9
f 3 9 10
f 3 10 4
f 4 10 11
f 4 11 5
f 5 12 13
f 5 13 14
f 5 14 6
f 5 11 15
f 5 15 16
f 5 16 17
f 5 17 18
f 5 18 19
f 5 19 20
f 5 20 21
f 5 21 12
f 6 14 23
f 6 23 22
f 7 24 25
f 7 25 8
f 8 25 9
f 9 25 26
f 9 26 10
f 10 16 15
f 10 15 11
f 10 26 27
f 10 27 28
f 10 28 29
f 10 29 18
f 10 18 17
f 10 17 16
f 12 23 14
f 12 14 13
f 12 21 23
f 18 29 30
f 18 30 19
f 19 31 32
f 19 32 21
f 19 21 20
f 19 30 33
f 19 33 34
f 19 34 31
f 21 35 23
f 21 32 36
f 21 36 35
f 22 23 38
f 22 38 37
f 23 35 39
f 23 39 38
f 24 40 41
f 24 41 25
f 25 41 42
f 25 42 43
f 25 43 26
f 26 43 27
f 27 43 28
f 28 43 44
f 28 44 29
f 29 33 30
f 29 44 45
f 29 45 46
f 29 46 47
f 29 47 48
f 29 48 33
f 31 34 32
f 32 34 49
f 32 49 50
f 32 50 51
f 32 51 36
f 33 48 52
f 33 52 34
f 34 53 54
f 34 54 55
f 34 55 49
f 34 52 53
f 35 36 56
f 35 56 39
f 36 51 57
f 36 57 56
f 37 38 39
f 37 39 58
f 37 58 59
f 39 56 60
f 39 60 61
f 39 61 58
f 40 62 41
f 41 62 63
f 41 63 64
f 41 64 65
f 41 65 66
f 41 66 42
f 42 66 67
f 42 67 68
f 42 68 69
f 42 69 43
f 43 69 70
f 43 70 71
f 43 71 45
f 43 45 44
f 45 71 72
f 45 72 73
f 45 73 74
f 45 74 75
f 45 75 46
f 46 76 48
f 46 48 47
f 46 75 76
f 48 54 53
f 48 53 52
f 48 76 77
f 48 77 78
f 48 78 54
f 49 55 50
f 50 55 79
f 50 79 80
f 50 80 81
f 50 81 82
f 50 82 51
f 51 82 83
f 51 83 57
f 54 78 84
f 54 84 55
f 55 84 85
f 55 85 86
f 55 86 87
f 55 87 79
f 56 57 88
f 56 88 89
f 56 89 61
f 56 61 60
f 57 83 90
f 57 90 91
f 57 91 88
f 58 61 59
f 59 61 92
f 59 92 93
f 59 93 94
f 61 89 92
f 63 95 64
f 64 67 66
f 64 66 65
f 64 95 96
f 64 96 97
f 64 97 98
f 64 98 67
f 67 98 68
f 68 98 99
f 68 99 100
f 68 100 101
f 68 101 102
f 68 102 103
f 68 103 69
f 69 103 70
f 70 103 104
f 70 104 71
f 71 104 72
f 72 104 105
f 72 105 106
f 72 106 73
f 73 106 107
f 73 107 74
f 74 107 108
f 74 108 75
f 75 108 109
f 75 109 110
f 75 110 111
f 75 111 112
f 75 112 76
f 76 112 77
f 77 112 78
f 78 85 84
f 78 112 113
f 78 113 114
f 78 114 115
f 78 115 85
f 79 87 80
f 80 87 86
f 80 86 81
f 81 116 82
f 81 86 117
f 81 117 118
f 81 118 119
f 81 119 116
f 82 116 83
f 83 116 120
f 83 120 121
f 83 121 90
f 85 115 122
f 85 122 86
f 86 122 123
f 86 123 124
f 86 124 125
f 86 125 126
f 86 126 127
f 86 127 118
f 86 118 117
f 88 91 89
f 89 91 128
f 89 128 92
f 90 121 91
f 91 121 129
f 91 129 128
f 92 128 130
f 92 130 93
f 93 130 131
f 93 131 94
f 94 131 133
f 94 133 134
f 94 134 132
f 96 135 97
f 97 135 136
f 97 136 137
f 97 137 98
f 98 137 138
f 98 138 99
f 99 138 139
f 99 139 100
f 100 139 140
f 100 140 101
f 101 140 141
f 101 141 142
f 101 142 143
f 101 143 102
f 102 144 103
f 102 143 144
f 103 144 104
f 104 144 105
f 105 144 145
f 105 145 146
f 105 146 147
f 105 147 106
f 106 147 148
f 106 148 107
f 107 148 149
f 107 149 108
f 108 149 150
f 108 150 109
f 109 150 151
f 109 151 110
f 110 151 152
f 110 152 153
f 110 153 154
f 110 154 155
f 110 155 111
f 111 156 114
f 111 114 113
f 111 113 112
f 111 155 157
f 111 157 156
f 114 156 158
f 114 158 115
f 115 126 125
f 115 125 124
f 115 124 123
f 115 123 122
f 115 158 159
f 115 159 160
f 115 160 126
f 116 119 161
f 116 161 120
f 118 127 126
f 118 126 160
f 118 160 159
f 118 159 195
f 118 195 194
f 118 194 193
f 118 193 231
f 118 231 267
f 118 267 297
f 118 297 324
f 118 324 322
f 118 322 343
f 118 343 345
f 118 345 344
f 118 344 328
f 118 328 327
f 118 327 299
f 118 299 269
f 118 269 236
f 118 236 235
f 118 235 197
f 118 197 165
f 118 165 134
f 118 134 133
f 118 133 131
f 118 131 163
f 118 163 161
f 118 161 119
f 120 161 162
f 120 162 121
f 121 162 163
f 121 163 129
f 128 129 130
f 129 163 130
f 130 163 131
f 132 134 164
f 134 165 199
f 134 199 240
f 134 240 273
f 134 273 303
f 134 303 331
f 134 331 346
f 134 346 352
f 134 352 351
f 134 351 350
f 134 350 349
f 134 349 348
f 134 348 336
f 134 336 308
f 134 308 283
f 134 283 282
f 134 282 281
f 134 281 279
f 134 279 268
f 134 268 232
f 134 232 196
f 134 196 164
f 135 166 136
f 136 138 137
f 136 166 167
f 136 167 138
f 138 167 139
f 139 167 140
f 140 167 168
f 140 168 169
f 140 169 141
f 141 169 170
f 141 170 171
f 141 171 172
f 141 172 142
f 142 172 173
f 142 173 143
f 143 173 174
f 143 174 145
f 143 145 144
f 145 174 175
f 145 175 176
f 145 176 177
f 145 177 146
f 146 178 147
f 146 177 179
f 146 179 178
f 147 178 180
f 147 180 148
f 148 180 149
f 149 180 181
f 149 181 182
f 149 182 150
f 150 182 183
f 150 183 151
f 151 183 152
f 152 184 153
f 152 183 185
f 152 185 186
f 152 186 187
f 152 187 188
f 152 188 184
f 153 184 154
f 154 184 189
f 154 189 155
f 155 189 190
f 155 190 191
f 155 191 192
f 155 192 193
f 155 193 157
f 156 157 158
f 157 194 195
f 157 195 158
f 157 193 194
f 158 195 159
f 161 163 162
f 165 197 198
f 165 198 199
f 166 200 167
f 167 200 201
f 167 201 168
f 170 202 203
f 170 203 171
f 171 203 204
f 171 204 172
f 172 204 205
f 172 205 206
f 172 206 173
f 173 206 207
f 173 207 175
f 173 175 174
f 175 207 176
f 176 208 209
f 176 209 177
f 176 207 210
f 176 210 211
f 176 211 212
f 176 212 208
f 177 209 179
f 178 179 180
f 179 209 208
f 179 208 213
f 179 213 214
f 179 214 180
f 180 215 181
f 180 214 215
f 181 215 216
f 181 216 217
f 181 217 218
f 181 218 182
f 182 218 183
f 183 218 185
f 184 188 219
f 184 219 220
f 184 220 189
f 185 221 186
f 185 218 221
f 186 188 187
f 186 221 222
f 186 222 223
f 186 223 188
f 188 223 224
f 188 224 225
f 188 225 219
f 189 220 190
f 190 220 219
f 190 219 226
f 190 226 227
f 190 227 228
f 190 228 229
f 190 229 191
f 191 229 230
f 191 230 192
f 192 230 231
f 192 231 193
f 196 232 233
f 196 233 234
f 197 235 198
f 198 235 236
f 198 236 237
f 198 237 238
f 198 238 239
f 198 239 199
f 199 239 240
f 202 241 203
f 203 205 204
f 203 241 242
f 203 242 234
f 203 234 233
f 203 233 205
f 205 243 206
f 205 233 244
f 205 244 243
f 206 243 207
f 207 243 210
f 208 245 246
f 208 246 213
f 208 212 247
f 208 247 245
f 210 243 248
f 210 248 211
f 211 249 250
f 211 250 212
f 211 248 249
f 212 250 251
f 212 251 252
f 212 252 247
f 213 216 214
f 213 246 216
f 214 216 215
f 216 246 253
f 216 253 217
f 217 253 254
f 217 254 255
f 217 255 256
f 217 256 222
f 217 222 221
f 217 221 218
f 219 225 257
f 219 257 258
f 219 258 259
f 219 259 226
f 222 256 260
f 222 260 261
f 222 261 223
f 223 261 224
f 224 257 225
f 224 261 262
f 224 262 263
f 224 263 257
f 226 259 227
f 227 264 230
f 227 230 228
f 227 259 265
f 227 265 266
f 227 266 264
f 228 230 229
f 230 264 267
f 230 267 231
f 232 244 233
f 232 268 244
f 236 269 270
f 236 270 271
f 236 271 272
f 236 272 237
f 237 272 238
f 238 273 240
f 238 240 239
f 238 272 273
f 243 244 249
f 243 249 248
f 244 268 274
f 244 274 249
f 245 275 246
f 245 247 276
f 245 276 275
f 246 275 253
f 247 252 277
f 247 277 278
f 247 278 276
f 249 274 279
f 249 279 280
f 249 280 250
f 250 280 251
f 251 280 281
f 251 281 282
f 251 282 283
f 251 283 284
f 251 284 277
f 251 277 252
f 253 275 254
f 254 275 276
f 254 276 285
f 254 285 286
f 254 286 255
f 255 286 260
f 255 260 256
f 257 263 258
f 258 287 266
f 258 266 265
f 258 265 259
f 258 263 288
f 258 288 289
f 258 289 287
f 260 290 263
f 260 263 262
f 260 262 261
f 260 286 291
f 260 291 292
f 260 292 293
f 260 293 290
f 263 290 288
f 264 266 294
f 264 294 295
f 264 295 296
f 264 296 297
f 264 297 267
f 266 287 298
f 266 298 295
f 266 295 294
f 268 279 274
f 269 299 300
f 269 300 270
f 270 300 301
f 270 301 271
f 271 301 272
f 272 302 303
f 272 303 304
f 272 304 273
f 272 301 305
f 272 305 306
f 272 306 302
f 273 304 303
f 276 278 307
f 276 307 285
f 277 284 283
f 277 283 308
f 277 308 309
f 277 309 310
f 277 310 278
f 278 310 307
f 279 281 280
f 285 307 291
f 285 291 286
f 287 289 311
f 287 311 298
f 288 312 289
f 288 290 312
f 289 312 313
f 289 313 314
f 289 314 315
f 289 315 316
f 289 316 311
f 290 293 312
f 291 307 317
f 291 317 318
f 291 318 319
f 291 319 292
f 292 320 312
f 292 312 293
f 292 319 321
f 292 321 320
f 295 322 296
f 295 298 323
f 295 323 322
f 296 322 324
f 296 324 297
f 298 311 325
f 298 325 326
f 298 326 323
f 299 327 300
f 300 327 328
f 300 328 329
f 300 329 330
f 300 330 305
f 300 305 301
f 302 331 303
f 302 306 305
f 302 305 332
f 302 332 333
f 302 333 334
f 302 334 331
f 305 330 325
f 305 325 315
f 305 315 332
f 307 310 335
f 307 335 317
f 308 335 309
f 308 336 335
f 309 335 310
f 311 316 325
f 312 320 337
f 312 337 338
f 312 338 313
f 313 338 314
f 314 338 337
f 314 337 339
f 314 339 315
f 315 339 340
f 315 340 333
f 315 333 332
f 315 325 316
f 317 335 318
f 318 335 341
f 318 341 342
f 318 342 319
f 319 342 337
f 319 337 321
f 320 321 337
f 322 323 343
f 323 326 329
f 323 329 344
f 323 344 345
f 323 345 343
f 325 330 329
f 325 329 326
f 328 344 329
f 331 334 346
f 333 340 347
f 333 347 334
f 334 347 346
f 335 336 341
f 336 348 341
f 337 349 350
f 337 350 351
f 337 351 352
f 337 352 353
f 337 353 339
f 337 342 349
f 339 353 347
f 339 347 340
f 341 348 342
f 342 348 349
f 346 347 352
f 347 353 352
