v -0.33713394 0.10999791 -0.94978064
v -0.33713394 0.11725608 -0.94867945
v -0.33713394 0.09426202 -0.94437945
v -0.35000566 0.09717315 -0.94196725
v -0.36020049 0.09988759 -0.94002706
v -0.35000566 0.10999791 -0.94490385
v -0.36162436 0.12181949 -0.94060385
v -0.33713394 0.12964809 -0.94663429
v -0.33713394 0.08782998 -0.93892586
v -0.33713394 0.08426973 -0.93588442
v -0.35000566 0.08718087 -0.93341982
v -0.37586296 0.08157496 -0.91821259
v -0.39004463 0.09491113 -0.92377108
v -0.36133957 0.10999791 -0.94049901
v -0.40251762 0.09829434 -0.92109668
v -0.40473884 0.10999791 -0.92209303
v -0.39004463 0.10999791 -0.92854297
v -0.37136355 0.10999791 -0.93635637
v -0.35461897 0.13515565 -0.93761492
v -0.34880960 0.12907767 -0.94259655
v -0.40382758 0.12439624 -0.92172599
v -0.39050025 0.13063160 -0.92476737
v -0.33713394 0.13663089 -0.94359291
v -0.34129161 0.14046651 -0.94044656
v -0.35000566 0.07714924 -0.92340398
v -0.36253563 0.07913589 -0.92099184
v -0.33713394 0.07524127 -0.92586863
v -0.39004463 0.07579202 -0.90515536
v -0.40439713 0.07832943 -0.90200901
v -0.41772446 0.08094552 -0.89886272
v -0.39004463 0.08491883 -0.91517115
v -0.41014951 0.08961993 -0.90997970
v -0.43002662 0.09412433 -0.90457857
v -0.44284135 0.09788127 -0.90143222
v -0.43002662 0.10999791 -0.91013706
v -0.41476285 0.10999791 -0.91747844
v -0.39744869 0.13773242 -0.91863209
v -0.44398046 0.12506503 -0.90206146
v -0.43099487 0.13102499 -0.90578461
v -0.43828499 0.13840118 -0.89896762
v -0.33713394 0.14105661 -0.94112825
v -0.38412136 0.14152870 -0.92167354
v -0.37005362 0.14347601 -0.92445278
v -0.35074607 0.06611445 -0.90903580
v -0.33713394 0.06880922 -0.91768819
v -0.35792232 0.06062656 -0.89912492
v -0.37005362 0.06251486 -0.89666033
v -0.36954102 0.07349065 -0.91092360
v -0.39004463 0.06579973 -0.89236033
v -0.40023947 0.05991844 -0.88008970
v -0.40901044 0.07032380 -0.88947618
v -0.43002662 0.07535928 -0.88585794
v -0.44437915 0.07817207 -0.88223970
v -0.45770648 0.08108321 -0.87872624
v -0.43002662 0.08413205 -0.89587373
v -0.47000861 0.09465542 -0.88423234
v -0.48196906 0.09845170 -0.88103360
v -0.44511956 0.10999791 -0.90263832
v -0.42495769 0.14192209 -0.90227121
v -0.48293728 0.12394384 -0.88161039
v -0.47735575 0.13728000 -0.87835920
v -0.50252962 0.14121398 -0.86136907
v -0.46402842 0.14174506 -0.88208234
v -0.33713394 0.14294493 -0.93787706
v -0.41003561 0.14398742 -0.90567976
v -0.39050025 0.14526597 -0.91118580
v -0.37005362 0.14937696 -0.90997970
v -0.33713394 0.14650518 -0.93022102
v -0.34880960 0.14438082 -0.93053567
v -0.33713394 0.06483591 -0.91260165
v -0.34453803 0.05863990 -0.90174687
v -0.35074607 0.05273894 -0.89146888
v -0.37005362 0.05500098 -0.88664448
v -0.39004463 0.05822683 -0.88234454
v -0.40815613 0.05535503 -0.87012637
v -0.41356680 0.06229850 -0.87689090
v -0.38161534 0.03950113 -0.86068738
v -0.39494270 0.04168448 -0.85769838
v -0.41003561 0.04428090 -0.85413253
v -0.43002662 0.06534732 -0.87280071
v -0.44910634 0.07032380 -0.86944461
v -0.47000861 0.07583136 -0.86535442
v -0.44044930 0.05982009 -0.86021543
v -0.48310816 0.07860481 -0.86173618
v -0.49643549 0.08183067 -0.85785568
v -0.47000861 0.08464345 -0.87531775
v -0.48920226 0.09013134 -0.86949706
v -0.51004761 0.09636669 -0.86294222
v -0.52001464 0.09998594 -0.85995322
v -0.48367769 0.10999791 -0.88197744
v -0.45508659 0.10999791 -0.89734197
v -0.45001763 0.14384973 -0.88580549
v -0.52103978 0.12162279 -0.86058253
v -0.50953501 0.12897933 -0.86393857
v -0.51585698 0.13495895 -0.85733128
v -0.49005657 0.14329898 -0.86483002
v -0.54000562 0.13995510 -0.83992171
v -0.52667832 0.14274822 -0.84395945
v -0.43099487 0.14550200 -0.89136398
v -0.41003561 0.14984904 -0.88994813
v -0.35000566 0.15089154 -0.90997970
v -0.33713394 0.14892456 -0.92282718
v -0.33713394 0.05757773 -0.90316272
v -0.33901343 0.04030759 -0.87956530
v -0.33713394 0.05120469 -0.89472008
v -0.33713394 0.04154679 -0.88192505
v -0.35000566 0.04195986 -0.87731045
v -0.35000566 0.03454432 -0.86734712
v -0.35000566 0.02453236 -0.85381794
v -0.37005362 0.04502836 -0.87316775
v -0.43002662 0.05789245 -0.86283737
v -0.37603381 0.02126717 -0.83819121
v -0.38896248 0.03454432 -0.85061920
v -0.37005362 0.03765216 -0.86315203
v -0.36965492 0.02689275 -0.84867895
v -0.39004463 0.02354887 -0.83504486
v -0.41003561 0.03698339 -0.84411681
v -0.42228082 0.03916674 -0.84112775
v -0.45377663 0.06249519 -0.85654473
v -0.47148943 0.06487525 -0.84993744
v -0.42940015 0.04731006 -0.84867895
v -0.43560815 0.04166481 -0.83766681
v -0.44830900 0.05545338 -0.84993744
v -0.47917831 0.06035118 -0.83950216
v -0.48988575 0.07331362 -0.85072404
v -0.51004761 0.07714924 -0.84374970
v -0.52075505 0.07960797 -0.84044605
v -0.53413934 0.08362062 -0.83609366
v -0.51004761 0.08635473 -0.85376549
v -0.52707696 0.09180328 -0.84804964
v -0.54598582 0.10999791 -0.84395945
v -0.53077900 0.10999791 -0.85397524
v -0.52081198 0.10999791 -0.86047763
v -0.51004761 0.10999791 -0.86682272
v -0.49364471 0.10999791 -0.87636656
v -0.54347986 0.09695679 -0.84228140
v -0.57987374 0.10122515 -0.81983769
v -0.47046429 0.14522663 -0.87101781
v -0.45001763 0.14965235 -0.86996901
v -0.54450500 0.12661894 -0.84301555
v -0.58072805 0.12124906 -0.82046694
v -0.50953501 0.14461686 -0.85035694
v -0.56973583 0.12874329 -0.82450473
v -0.57617170 0.13456556 -0.81705844
v -0.59872568 0.13846019 -0.79896712
v -0.56284434 0.14154837 -0.82188278
v -0.55002964 0.14379072 -0.82639253
v -0.39004463 0.15091121 -0.88994813
v -0.51004761 0.15059650 -0.82995832
v -0.33713394 0.15061617 -0.90997970
v -0.76998764 0.15089154 -0.59005153
v -0.84995162 0.15061617 -0.47001946
v -0.86999959 0.15039980 -0.43000880
v -0.33713394 0.04005188 -0.87993240
v -0.33713394 0.02618463 -0.86126423
v -0.35000566 0.01719550 -0.84380215
v -0.36270648 0.01916249 -0.84112775
v -0.33713394 0.02262439 -0.85643983
v -0.39004463 0.01642838 -0.82502913
v -0.36965492 0.01408767 -0.83090222
v -0.40371367 0.01871008 -0.82177794
v -0.41026342 0.02622397 -0.82906687
v -0.41704100 0.02107047 -0.81847429
v -0.42940015 0.03426895 -0.83058763
v -0.46585095 0.05761707 -0.84322530
v -0.45001763 0.03729810 -0.82377058
v -0.47450805 0.04227458 -0.81669140
v -0.49005657 0.05555173 -0.82623518
v -0.49005657 0.06269189 -0.83619857
v -0.46118069 0.03954047 -0.82062423
v -0.51010454 0.06656685 -0.82927662
v -0.51682520 0.06141335 -0.81794989
v -0.52850085 0.07535928 -0.82964373
v -0.54416329 0.07789669 -0.82277423
v -0.55749065 0.08143727 -0.81821209
v -0.55048525 0.08920686 -0.83027297
v -0.55595285 0.10999791 -0.83719486
v -0.58072805 0.11456131 -0.82046694
v -0.56654638 0.09477343 -0.82445228
v -0.60225683 0.09782226 -0.80164146
v -0.62703198 0.10999791 -0.78543794
v -0.61404639 0.10999791 -0.79545373
v -0.60407937 0.10999791 -0.80295241
v -0.58847386 0.10873903 -0.81427920
v -0.49005657 0.14902291 -0.84998989
v -0.60316807 0.12512404 -0.80227071
v -0.53197503 0.14609210 -0.83195102
v -0.62463993 0.12998249 -0.78355014
v -0.62099481 0.14062387 -0.78071845
v -0.58539832 0.14257120 -0.80373901
v -0.56973583 0.14475456 -0.81024140
v -0.55002964 0.14961301 -0.80997920
v -0.53003860 0.15077353 -0.80997920
v -0.59001160 0.15083253 -0.76996851
v -0.57002062 0.15053749 -0.78994763
v -0.33713394 0.14929828 -0.90284806
v -0.86999959 0.14896390 -0.41406745
v -0.70995766 0.15028179 -0.67002046
v -0.72994864 0.15016377 -0.65004134
v -0.78997862 0.15073419 -0.57001996
v -0.82996064 0.15057683 -0.51003015
v -0.86999959 0.14982937 -0.45004034
v -0.88588989 0.14994739 -0.41406745
v -0.34305722 -0.00090076 -0.82130599
v -0.34983477 0.00643609 -0.82875228
v -0.33713394 0.01528753 -0.84642410
v -0.33713394 0.00885548 -0.83750951
v -0.35638455 0.00112523 -0.81836939
v -0.38440612 -0.00139251 -0.80200851
v -0.39061415 0.00560996 -0.80919266
v -0.39773345 0.00077117 -0.79886222
v -0.37005362 0.00322990 -0.81527555
v -0.41026342 0.01355658 -0.81108046
v -0.41003561 0.00289552 -0.79571593
v -0.43002662 0.01650706 -0.80505002
v -0.43002662 0.02345052 -0.81501329
v -0.44278443 0.01890678 -0.80158901
v -0.48555720 0.03765216 -0.80337197
v -0.49136657 0.04473331 -0.81003165
v -0.46869868 0.03525244 -0.81003165
v -0.50349784 0.05846287 -0.82214499
v -0.45616871 0.02158188 -0.79770857
v -0.51010454 0.05342739 -0.81076580
v -0.51004761 0.04294335 -0.79566348
v -0.53003860 0.05747938 -0.80358171
v -0.53003860 0.06448185 -0.81354505
v -0.54889053 0.07052050 -0.80919266
v -0.57002062 0.07722792 -0.80379146
v -0.58032936 0.07982434 -0.80017316
v -0.59365672 0.08448610 -0.79508662
v -0.58818907 0.09068210 -0.80499756
v -0.60897744 0.09034771 -0.78916109
v -0.62418425 0.09618966 -0.78323549
v -0.63699901 0.10999791 -0.77751970
v -0.68051219 0.12113105 -0.74044555
v -0.63454998 0.12998249 -0.77557945
v -0.64651042 0.12998249 -0.76556367
v -0.64240968 0.14150903 -0.76199788
v -0.62856978 0.14339733 -0.76918197
v -0.61000264 0.14288592 -0.78475624
v -0.59126461 0.14583638 -0.79136348
v -0.61000264 0.14849183 -0.76996851
v -0.62999362 0.14947531 -0.74998939
v -0.64998466 0.15000640 -0.72995782
v -0.66997564 0.15024245 -0.70997870
v -0.33713394 0.14479390 -0.88963354
v -0.86567104 0.14780338 -0.41406745
v -0.71035635 0.14508894 -0.69036669
v -0.73023343 0.14495125 -0.67023021
v -0.74999660 0.14979003 -0.63000977
v -0.80996966 0.14986871 -0.55004084
v -0.76998764 0.14896390 -0.61003065
v -0.84995162 0.14929828 -0.49005103
v -0.87125260 0.14544299 -0.47091094
v -0.88634551 0.14402676 -0.45004034
v -0.89158535 0.14554134 -0.43142465
v -0.90354574 0.14442016 -0.41406745
v -0.89027536 0.14902291 -0.41406745
v -0.35000566 -0.02381615 -0.78543794
v -0.33713394 0.00501986 -0.83210832
v -0.33713394 -0.00176624 -0.82251203
v -0.33713394 -0.01876100 -0.79823297
v -0.33713394 -0.03219552 -0.77898800
v -0.33713394 -0.03610981 -0.77337706
v -0.37802723 -0.01935109 -0.77904040
v -0.36469990 -0.02149511 -0.78213429
v -0.39004463 -0.02418988 -0.76614052
v -0.40468192 -0.02167214 -0.76241738
v -0.35097387 -0.03471325 -0.76933926
v -0.42393249 -0.00141218 -0.78208184
v -0.43036836 0.00580666 -0.78921354
v -0.43725985 0.00100721 -0.77846360
v -0.44967592 0.01414668 -0.79062939
v -0.47000861 0.02441434 -0.79356593
v -0.48065913 0.01975259 -0.78035140
v -0.48977184 0.03011860 -0.78984278
v -0.49888453 0.04048462 -0.79928172
v -0.45001763 0.00350528 -0.77479291
v -0.47000861 0.01754956 -0.78355014
v -0.51004761 0.03609824 -0.78570014
v -0.52246368 0.03889136 -0.78160989
v -0.53579098 0.04199920 -0.77704775
v -0.54023343 0.05987910 -0.80012077
v -0.55361772 0.06314430 -0.79540128
v -0.56973583 0.06692091 -0.78921354
v -0.57622862 0.06190510 -0.77710021
v -0.59103680 0.06485558 -0.77028316
v -0.58818907 0.07626410 -0.78905618
v -0.60237074 0.07868349 -0.78176725
v -0.61569810 0.08285350 -0.77647090
v -0.63073403 0.08895116 -0.77054536
v -0.64542830 0.09504882 -0.76461977
v -0.67971486 0.10189392 -0.73976386
v -0.64884555 0.10999791 -0.76750392
v -0.68051219 0.11523009 -0.74044555
v -0.70107275 0.10999791 -0.72104329
v -0.70107275 0.12227190 -0.72099084
v -0.68882757 0.12836955 -0.72896153
v -0.67663932 0.13446721 -0.73687977
v -0.66997564 0.12866461 -0.74584675
v -0.65653437 0.12998249 -0.75696373
v -0.66331196 0.14200076 -0.74291021
v -0.64941508 0.14430214 -0.74972719
v -0.66997564 0.14481357 -0.73011518
v -0.69030839 0.14504960 -0.71034580
v -0.33713394 0.14310229 -0.88606769
v -0.85371065 0.14329898 -0.41406745
v -0.70397747 0.14237449 -0.70394826
v -0.72379756 0.14233515 -0.68396914
v -0.74321902 0.14215812 -0.66367537
v -0.74993968 0.14455785 -0.64972675
v -0.81059611 0.14510861 -0.57022971
v -0.82996064 0.14794107 -0.53000927
v -0.76941806 0.14379072 -0.62896103
v -0.78565007 0.14325964 -0.61003065
v -0.79174423 0.14609210 -0.59178203
v -0.85052121 0.14483324 -0.50982040
v -0.86538631 0.14353502 -0.49005103
v -0.88241565 0.14198110 -0.46482807
v -0.90257752 0.14213845 -0.42565638
v -0.90536833 0.14363337 -0.41406745
v -0.34493670 -0.04153869 -0.76220763
v -0.33713394 -0.04271889 -0.76388562
v -0.35826403 -0.03943402 -0.75916618
v -0.37005362 -0.03752605 -0.75633448
v -0.38520348 -0.04173540 -0.74259555
v -0.39112675 -0.03504764 -0.74951744
v -0.39853084 -0.03947336 -0.73918706
v -0.41800922 -0.01925275 -0.75885153
v -0.43002662 -0.01703005 -0.75554788
v -0.44306919 -0.02120006 -0.74180895
v -0.45001763 -0.00320214 -0.76477712
v -0.47536236 0.00193169 -0.75706863
v -0.48840493 0.01583828 -0.76970637
v -0.49398643 0.02256538 -0.77620876
v -0.46203500 -0.00080242 -0.76121128
v -0.51061714 0.02549619 -0.76970637
v -0.50435215 0.01806098 -0.76288933
v -0.51767951 0.02107047 -0.75837958
v -0.52946907 0.03446564 -0.77023071
v -0.54513150 0.03751447 -0.76367587
v -0.55111176 0.04481199 -0.77023071
v -0.54815012 0.05625985 -0.78921354
v -0.56284434 0.05856122 -0.78208184
v -0.58505660 0.05744004 -0.76378077
v -0.56973583 0.05405682 -0.77028316
v -0.59838390 0.06082325 -0.75869423
v -0.60943305 0.07437579 -0.76986367
v -0.62401342 0.07775901 -0.76315153
v -0.63728380 0.08171265 -0.75775033
v -0.65852779 0.08092585 -0.73871511
v -0.66638750 0.09426202 -0.74558455
v -0.70038933 0.09951387 -0.72036159
v -0.68831497 0.10913243 -0.73268467
v -0.67185515 0.10913243 -0.74747235
v -0.65881258 0.10999791 -0.75895643
v -0.71109676 0.10999791 -0.71123725
v -0.69719988 0.13560806 -0.71726769
v -0.72123462 0.10999791 -0.70122147
v -0.72112072 0.12244893 -0.70116901
v -0.68387252 0.14227614 -0.72356033
v -0.33713394 -0.05003607 -0.51742399
v -0.45332098 -0.05003607 -0.41406745
v -0.71730477 0.13578510 -0.69728857
v -0.73712492 0.13525400 -0.67699480
v -0.76235574 0.14172539 -0.64285725
v -0.80433118 0.14282690 -0.58627594
v -0.82244265 0.14190242 -0.56367493
v -0.82944804 0.14343667 -0.54836285
v -0.78120768 0.14099760 -0.62156719
v -0.84340191 0.14237449 -0.53000927
v -0.86168426 0.14146969 -0.50300336
v -0.87882757 0.13812581 -0.47819990
v -0.89933115 0.13905029 -0.43897581
v -0.91487968 0.13126102 -0.41406745
v -0.34778443 -0.05003607 -0.74841624
v -0.33713394 -0.05003607 -0.75324059
v -0.35068911 -0.05003607 -0.74705285
v -0.36133957 -0.05003607 -0.74196631
v -0.37005362 -0.04427281 -0.74631870
v -0.37648946 -0.05003607 -0.73452002
v -0.39078504 -0.05003607 -0.72712618
v -0.40103680 -0.05003607 -0.72151524
v -0.41003561 -0.04389908 -0.72597253
v -0.41003561 -0.03738835 -0.73598826
v -0.38810816 -0.05003607 -0.72854197
v -0.43002662 -0.02367847 -0.74553216
v -0.43019748 -0.03426085 -0.72927612
v -0.43703201 -0.03884392 -0.71815914
v -0.44984674 -0.02572413 -0.73058712
v -0.45639652 -0.01852496 -0.73766631
v -0.44984674 -0.01368617 -0.74909794
v -0.48584196 -0.00241534 -0.74369675
v -0.49153739 0.00419373 -0.75019914
v -0.49916929 0.00035810 -0.73939681
v -0.51061714 0.01306484 -0.75103819
v -0.53003860 0.01739220 -0.74401140
v -0.53003860 0.02392260 -0.75397474
v -0.54040432 0.01981160 -0.74028826
v -0.54946005 0.03029563 -0.74956989
v -0.55845886 0.04076000 -0.75879908
v -0.57002062 0.04367114 -0.75439423
v -0.58050025 0.03977650 -0.74034071
v -0.59382755 0.04314005 -0.73504442
v -0.60658538 0.05645655 -0.74537480
v -0.61199605 0.06318364 -0.75119549
v -0.63033533 0.07286121 -0.75061870
v -0.64520049 0.07695254 -0.74443090
v -0.66604578 0.07642145 -0.72539568
v -0.67937315 0.08037510 -0.71941769
v -0.67288029 0.08731855 -0.73257977
v -0.68996668 0.09491113 -0.72508103
v -0.69178921 0.08407303 -0.71165675
v -0.70819205 0.09546188 -0.70830071
v -0.72049421 0.09937619 -0.70048732
v -0.74014348 0.09978925 -0.68019354
v -0.73120165 0.10999791 -0.69078618
v -0.74082696 0.12191784 -0.68092769
v -0.70631260 -0.05003607 -0.41406745
v -0.74868667 0.12783846 -0.66860461
v -0.75654638 0.13377877 -0.65617669
v -0.79960394 0.13952237 -0.59959537
v -0.84032637 0.14030915 -0.54054946
v -0.78428316 0.12998249 -0.62550008
v -0.77619565 0.12998249 -0.63546342
v -0.87518245 0.13086763 -0.49010348
v -0.88190305 0.12478964 -0.48344377
v -0.88594687 0.13086763 -0.47091094
v -0.90234971 0.12571412 -0.44458675
v -0.85758352 0.13531302 -0.51632279
v -0.90639353 0.13141838 -0.43142465
v -0.91875261 0.11259433 -0.41406745
v -0.37062314 -0.05003607 -0.73740411
v -0.41020650 -0.05003607 -0.71632379
v -0.42364773 -0.04136167 -0.72209203
v -0.43014053 -0.05003607 -0.70442021
v -0.43919629 -0.05003607 -0.69865197
v -0.45001763 -0.04246318 -0.70394826
v -0.45001763 -0.03624751 -0.71396405
v -0.41481978 -0.05003607 -0.71364945
v -0.42074305 -0.05003607 -0.71013606
v -0.42609677 -0.05003607 -0.70688486
v -0.47000861 -0.02210487 -0.72329813
v -0.47000861 -0.01571217 -0.73326147
v -0.48003262 -0.02000020 -0.71999449
v -0.49341691 -0.01718741 -0.71543235
v -0.51004761 -0.00351686 -0.72555298
v -0.51004761 0.00279717 -0.73556876
v -0.54826403 0.01656607 -0.72906637
v -0.55373168 0.02307679 -0.73514926
v -0.52183717 -0.00082209 -0.72130549
v -0.53516448 0.00226608 -0.71627134
v -0.57002062 0.03714074 -0.74437845
v -0.56227481 0.01886744 -0.72182983
v -0.60208595 0.03893070 -0.72172499
v -0.61991268 0.06003646 -0.73986876
v -0.62999362 0.06275091 -0.73562121
v -0.64981377 0.07000908 -0.72985297
v -0.65442711 0.06308529 -0.71490794
v -0.67054516 0.06959601 -0.71050310
v -0.68632156 0.07612641 -0.70609826
v -0.69964892 0.08021773 -0.69964832
v -0.71166629 0.08397468 -0.69178253
v -0.72829700 0.09571759 -0.68805939
v -0.73900443 0.08068982 -0.65890348
v -0.74469984 0.09536353 -0.67002046
v -0.76508951 0.09471443 -0.64610845
v -0.78371364 0.09583561 -0.62481838
v -0.75945103 0.10472639 -0.65942788
v -0.75227481 0.11082404 -0.66813266
v -0.74071306 0.10999791 -0.68082285
v -0.73137254 0.08450577 -0.67169851
v -0.76013452 0.11806255 -0.66026688
v -0.76013452 0.12044260 -0.66026688
v -0.71115369 -0.04704626 -0.41406745
v -0.71969688 -0.03982742 -0.41952106
v -0.70209795 -0.05003607 -0.42130399
v -0.76503259 0.12825154 -0.64972675
v -0.79521847 0.13171344 -0.61034530
v -0.80285037 0.12618619 -0.60384291
v -0.82101882 0.12256695 -0.58150405
v -0.81771541 0.13590312 -0.57699430
v -0.83605480 0.12998249 -0.55428839
v -0.84271842 0.12998249 -0.54427260
v -0.86071604 0.12197685 -0.52125204
v -0.82551819 0.12954974 -0.57022971
v -0.86430418 0.12917602 -0.50982040
v -0.88241565 0.10999791 -0.48428279
v -0.89027536 0.10999791 -0.47001946
v -0.89785033 0.10999791 -0.45607078
v -0.90309012 0.10999791 -0.44605502
v -0.91117764 0.10999791 -0.43000880
v -0.91806912 0.10999791 -0.41600767
v -0.91898042 0.10999791 -0.41406745
v -0.44893551 -0.05003607 -0.69225448
v -0.46066809 -0.04027983 -0.70043486
v -0.48806319 -0.02324573 -0.70924461
v -0.50287133 -0.02127874 -0.70206046
v -0.52912736 -0.00450035 -0.70976895
v -0.54370767 -0.00176624 -0.70295197
v -0.55020046 0.00557062 -0.70976895
v -0.55703503 0.00147929 -0.69744587
v -0.56939411 0.01511050 -0.70976895
v -0.58368969 0.01817900 -0.70300436
v -0.59023947 0.02561421 -0.70976895
v -0.59701699 0.02154255 -0.69734102
v -0.60926223 0.03535078 -0.70950675
v -0.61541331 0.04249094 -0.71590430
v -0.64109975 0.05936769 -0.72093838
v -0.62999362 0.05639754 -0.72565788
v -0.66171724 0.05901363 -0.70158851
v -0.67504460 0.06279024 -0.69519103
v -0.69076401 0.06945832 -0.69073373
v -0.69520646 0.06279024 -0.67515945
v -0.70608473 0.07612641 -0.68632889
v -0.71941209 0.08035543 -0.67945945
v -0.74475682 0.07681485 -0.64558405
v -0.75808418 0.08137826 -0.63777071
v -0.75210392 0.08769228 -0.65250599
v -0.72567707 0.07636245 -0.66614002
v -0.73000562 0.06991073 -0.65004134
v -0.77101278 0.08859710 -0.63132077
v -0.78952301 0.08995432 -0.60945386
v -0.80210996 0.09738953 -0.60289901
v -0.77687913 0.08249944 -0.61600864
v -0.76668429 0.11082404 -0.65166694
v -0.77824605 0.10999791 -0.63792801
v -0.78616267 0.10999791 -0.62791222
v -0.79612970 0.10999791 -0.61506474
v -0.72693008 -0.03723100 -0.41406745
v -0.71662134 -0.03789977 -0.43000880
v -0.70659733 -0.04409578 -0.43000880
v -0.73029041 -0.03512632 -0.41406745
v -0.74367470 -0.02234092 -0.42644298
v -0.73985875 -0.01990185 -0.43976238
v -0.70243967 -0.04149935 -0.44395748
v -0.69383955 -0.05003607 -0.43488559
v -0.80370462 0.10999791 -0.60504901
v -0.81372863 0.10999791 -0.59146738
v -0.82101882 0.10999791 -0.58145159
v -0.82893544 0.10999791 -0.57001996
v -0.83787727 0.10999791 -0.55685788
v -0.84437013 0.10999791 -0.54689455
v -0.86060214 0.10999791 -0.52104229
v -0.86720884 0.10999791 -0.51003015
v -0.87660635 0.10999791 -0.49429858
v -0.86003256 0.09988759 -0.52015084
v -0.88127661 0.09817632 -0.48229012
v -0.90178019 0.09746820 -0.44348553
v -0.90514052 0.09365225 -0.43000880
v -0.90935516 0.09001333 -0.41406745
v -0.45104280 -0.05003607 -0.69083863
v -0.46192110 -0.05003607 -0.68323499
v -0.47405240 -0.03746703 -0.69571543
v -0.49005657 -0.03437886 -0.68942279
v -0.49672025 -0.03854888 -0.67751920
v -0.50970590 -0.02521271 -0.69020933
v -0.51619869 -0.01822991 -0.69697392
v -0.53077900 -0.01539745 -0.69020933
v -0.53795528 -0.01899704 -0.67825335
v -0.56478083 -0.00239567 -0.68412650
v -0.59023947 0.01408767 -0.69041908
v -0.60442108 0.01766758 -0.68402159
v -0.61068606 0.02472906 -0.69041908
v -0.62293130 0.03845862 -0.70253241
v -0.63620168 0.04203854 -0.69650197
v -0.64861774 0.05624018 -0.70892996
v -0.64998466 0.04573647 -0.68989474
v -0.65664828 0.04184184 -0.67678505
v -0.66900742 0.05584678 -0.68910813
v -0.68187910 0.05889561 -0.68192405
v -0.68911231 0.05582711 -0.66907656
v -0.70164227 0.05899396 -0.66178763
v -0.71052718 0.06957635 -0.67064971
v -0.74908537 0.07048116 -0.62901348
v -0.76355177 0.07750329 -0.62445128
v -0.73439109 0.06347869 -0.63352317
v -0.71496964 0.06302628 -0.65455109
v -0.72106379 0.05934802 -0.64123166
v -0.79533231 0.08407303 -0.59372222
v -0.80780536 0.09180328 -0.58711499
v -0.82027841 0.09955321 -0.58045524
v -0.78200501 0.07854580 -0.60268927
v -0.80023044 0.07980467 -0.58035040
v -0.74823105 -0.02381615 -0.41406745
v -0.75643247 -0.01864298 -0.41406745
v -0.75700200 -0.01809222 -0.41459182
v -0.75016749 -0.01620392 -0.43189660
v -0.73666930 -0.01793487 -0.45004034
v -0.72670227 -0.02417021 -0.45004034
v -0.76355177 -0.00231700 -0.44615990
v -0.75967884 0.00020075 -0.45953175
v -0.70944506 -0.03469358 -0.45040745
v -0.69816810 -0.03894228 -0.45727688
v -0.68672025 -0.05003607 -0.44600260
v -0.86305118 0.09630768 -0.51003015
v -0.84249061 0.09681910 -0.54401040
v -0.86954397 0.09001333 -0.48931688
v -0.87546724 0.08430907 -0.47001946
v -0.88463688 0.09430136 -0.47001946
v -0.89033234 0.08918719 -0.45077449
v -0.89614165 0.08364029 -0.43000880
v -0.90519744 0.08539091 -0.41406745
v -0.47473586 -0.05003607 -0.67405826
v -0.48339292 -0.04142068 -0.68239599
v -0.49746066 -0.05003607 -0.65664864
v -0.50514954 -0.04234516 -0.66419977
v -0.51107275 -0.03599180 -0.67054486
v -0.52462792 -0.02216388 -0.68365455
v -0.48003262 -0.05003607 -0.67007291
v -0.49005657 -0.04543333 -0.67054486
v -0.53077900 -0.02651092 -0.67096436
v -0.54558718 -0.02275398 -0.66493392
v -0.55139649 -0.01651864 -0.67096436
v -0.55897146 -0.01944944 -0.65906078
v -0.57810813 0.00098754 -0.67830580
v -0.61068606 0.01345823 -0.67075461
v -0.61774844 0.02122783 -0.67788625
v -0.59132159 0.00354462 -0.67096436
v -0.59883958 0.00061381 -0.65890348
v -0.64332098 0.03816358 -0.68318260
v -0.66336894 0.03812424 -0.66341323
v -0.66997564 0.04555944 -0.67007291
v -0.63079101 0.02427666 -0.67075461
v -0.64998466 0.03440663 -0.67007291
v -0.67669624 0.04184184 -0.65659618
v -0.70898944 0.05622051 -0.64873040
v -0.68979579 0.04573647 -0.64998889
v -0.69640249 0.04205821 -0.63609266
v -0.74014348 0.05989877 -0.62020373
v -0.77010155 0.07410041 -0.60961115
v -0.75415432 0.06371473 -0.61003065
v -0.72863871 0.05706631 -0.62812197
v -0.70938814 0.04636591 -0.62969518
v -0.81822801 0.08135859 -0.55743468
v -0.81384254 0.08568596 -0.57001996
v -0.82386649 0.09569792 -0.57001996
v -0.78918123 0.07612641 -0.58821619
v -0.75876760 0.06076425 -0.59844172
v -0.77027237 0.06471789 -0.59104788
v -0.78912431 0.06690124 -0.56965292
v -0.80381858 0.07722792 -0.57001996
v -0.77363271 -0.00743116 -0.41406745
v -0.78058112 -0.00038935 -0.42114666
v -0.77015847 -0.00450035 -0.42869782
v -0.72237372 -0.02149511 -0.46377927
v -0.77015847 0.00403637 -0.45171839
v -0.75631857 0.00230542 -0.47001946
v -0.74635154 -0.00400860 -0.47001946
v -0.78325802 0.01786428 -0.46545732
v -0.77921426 0.02050004 -0.47877675
v -0.69378257 -0.03638519 -0.47001946
v -0.67151344 -0.05003607 -0.46860364
v -0.67812014 -0.05003607 -0.45885006
v -0.68392950 -0.05003607 -0.45025009
v -0.71081197 -0.02601918 -0.47028166
v -0.70369267 -0.02226223 -0.49005103
v -0.85359675 0.08631539 -0.51003015
v -0.85775441 0.08183067 -0.49639612
v -0.83041626 0.08908884 -0.55072254
v -0.83599782 0.08348294 -0.53394222
v -0.87888449 0.08088651 -0.45801103
v -0.89910328 0.08072916 -0.41810521
v -0.89483178 0.07608707 -0.41406745
v -0.50794029 -0.05003607 -0.64810109
v -0.48544329 -0.05003607 -0.66598272
v -0.51847684 -0.03925699 -0.65869373
v -0.55139649 -0.02733706 -0.65145719
v -0.53169030 -0.03705397 -0.65124744
v -0.56609076 -0.02306870 -0.64568895
v -0.62469685 0.01749055 -0.66451442
v -0.57941812 -0.01966581 -0.63939631
v -0.59183419 -0.01748246 -0.63163537
v -0.60567409 -0.00298577 -0.64558405
v -0.61142647 0.00319057 -0.65135229
v -0.63796723 0.02109014 -0.65806448
v -0.64457399 0.01745122 -0.64474505
v -0.68307519 0.03826193 -0.64327675
v -0.65790129 0.02116882 -0.63782316
v -0.66410935 0.01766758 -0.62450373
v -0.68979579 0.03497706 -0.62969518
v -0.70238268 0.03859631 -0.62277323
v -0.74418724 0.05736136 -0.61003065
v -0.71571004 0.04254996 -0.61495990
v -0.72129160 0.03920608 -0.60164046
v -0.82267046 0.07801472 -0.54411530
v -0.84032637 0.07972600 -0.52057034
v -0.77710694 0.06186576 -0.57610285
v -0.76377958 0.05753839 -0.58512229
v -0.73592889 0.04247127 -0.59005153
v -0.75124961 0.05248323 -0.59104788
v -0.79635751 0.06241652 -0.55004084
v -0.81093788 0.07276286 -0.55046034
v -0.78883958 0.00254146 -0.41406745
v -0.78832698 0.00741959 -0.42869782
v -0.77687913 0.00201038 -0.43446606
v -0.80040127 0.01973292 -0.44075871
v -0.72943604 -0.01449264 -0.47028166
v -0.71804518 -0.01880034 -0.47709870
v -0.78992164 0.01575961 -0.44846720
v -0.79658532 0.02227033 -0.45413059
v -0.74207997 -0.00133350 -0.48323402
v -0.76560211 0.01636937 -0.49005103
v -0.78992164 0.02461104 -0.47127801
v -0.80250859 0.03824226 -0.48428279
v -0.79846483 0.04099604 -0.49765465
v -0.77562612 0.02284076 -0.49005103
v -0.68017048 -0.04012246 -0.48034990
v -0.66838092 -0.05003607 -0.47306091
v -0.71365970 -0.01610557 -0.49005103
v -0.72431016 -0.00267105 -0.50625455
v -0.70016152 -0.02009855 -0.50027657
v -0.86174119 0.07864415 -0.48302427
v -0.88241565 0.07813273 -0.44469160
v -0.86550021 0.07591004 -0.47001946
v -0.87130958 0.07244814 -0.45082694
v -0.88611770 0.07535928 -0.43000880
v -0.89056015 0.07288088 -0.41406745
v -0.51135755 -0.05003607 -0.64516455
v -0.51910335 -0.05003607 -0.63850486
v -0.52610874 -0.04295493 -0.64537430
v -0.55196607 -0.03764407 -0.63174027
v -0.53943610 -0.03970940 -0.63950115
v -0.55993968 -0.03992577 -0.61988914
v -0.59963691 -0.01980350 -0.61967939
v -0.61142647 -0.00743116 -0.63142562
v -0.61900145 0.00055480 -0.63897681
v -0.63079101 0.01330087 -0.65082794
v -0.63124663 0.00319057 -0.63142562
v -0.63882154 0.00063348 -0.61878788
v -0.65072507 0.01345823 -0.63069147
v -0.65095288 0.00356429 -0.61128920
v -0.67743665 0.02144420 -0.61716235
v -0.70938814 0.03580319 -0.60898191
v -0.68996668 0.02516180 -0.61029285
v -0.69668728 0.02189660 -0.59613442
v -0.70221186 0.01867075 -0.58281499
v -0.72590488 0.03641296 -0.59005153
v -0.79983175 0.06005613 -0.53986776
v -0.81048226 0.06387208 -0.53194952
v -0.82956195 0.07567400 -0.52838367
v -0.82899243 0.06690124 -0.50961065
v -0.84357274 0.07732627 -0.51003015
v -0.78189111 0.05871858 -0.56273103
v -0.77027237 0.05441088 -0.56965292
v -0.73991567 0.04005188 -0.57993090
v -0.75090790 0.04321873 -0.57196021
v -0.71553922 0.02266373 -0.57437241
v -0.78633356 0.05580744 -0.55004084
v -0.79556018 0.00698685 -0.41406745
v -0.80319208 0.01778560 -0.43000880
v -0.84038329 0.03973716 -0.42077959
v -0.83679521 0.04213689 -0.43409902
v -0.85991865 0.06003646 -0.43991971
v -0.84716088 0.05507966 -0.45004034
v -0.84294623 0.05797113 -0.46514267
v -0.73057514 -0.00568054 -0.48994619
v -0.80672324 0.03539013 -0.47001946
v -0.74925619 0.00596401 -0.48994619
v -0.73763752 0.00145962 -0.49655342
v -0.76161534 0.01896579 -0.50247902
v -0.83907336 0.06060689 -0.47846210
v -0.82164526 0.05887594 -0.50268877
v -0.81048226 0.05421418 -0.50961065
v -0.80410331 0.05716466 -0.52654833
v -0.79447806 0.04363180 -0.51003015
v -0.78445405 0.03706206 -0.51003015
v -0.83554220 0.06300661 -0.49005103
v -0.66257155 -0.05003607 -0.48118889
v -0.75022447 0.01483512 -0.50950575
v -0.73057514 0.00358396 -0.51176065
v -0.71963990 0.00020075 -0.51957399
v -0.69520646 -0.01722675 -0.51364845
v -0.68911231 -0.02310804 -0.50819480
v -0.66200203 -0.04116497 -0.50274122
v -0.65328801 -0.05003607 -0.49382663
v -0.70585692 -0.00361521 -0.53000927
v -0.85063511 0.07358900 -0.48984128
v -0.84972382 0.06509162 -0.47106826
v -0.86999959 0.06430482 -0.43194902
v -0.85712790 0.06196411 -0.45004034
v -0.87609375 0.06223949 -0.41406745
v -0.87922621 0.06454086 -0.41406745
v -0.52935517 -0.05003607 -0.62943298
v -0.53129160 -0.05003607 -0.62765002
v -0.54655540 -0.04326964 -0.62618178
v -0.53863871 -0.05003607 -0.62078059
v -0.55008656 -0.05003607 -0.60992581
v -0.56005359 -0.05003607 -0.60006732
v -0.57007760 -0.05003607 -0.58994669
v -0.59189111 -0.03780142 -0.59193933
v -0.60607278 -0.02320639 -0.60630751
v -0.61165428 -0.01744312 -0.61181355
v -0.62549424 -0.00292676 -0.62565738
v -0.64491570 -0.00274973 -0.60546851
v -0.61940008 -0.01966581 -0.59933317
v -0.65824306 0.00096787 -0.59807467
v -0.68330300 0.01810032 -0.60384291
v -0.66399544 -0.00231700 -0.58475524
v -0.65795827 -0.01885935 -0.55764449
v -0.68290430 -0.00168756 -0.56357002
v -0.68973881 0.00539359 -0.57012486
v -0.70933115 0.01621201 -0.56865656
v -0.69623160 0.00216773 -0.55538958
v -0.77630955 0.04237293 -0.53457147
v -0.78080899 0.03948146 -0.52125204
v -0.81748760 0.06170840 -0.51600814
v -0.76975977 0.04532341 -0.55056524
v -0.75819802 0.04111405 -0.55759203
v -0.74487072 0.03694405 -0.56661147
v -0.72077900 0.01953622 -0.56105298
v -0.76298225 0.03808490 -0.54427260
v -0.80854577 0.01577928 -0.41406745
v -0.84203500 0.03857664 -0.41406745
v -0.86646843 0.05547305 -0.41406745
v -0.86333597 0.05763674 -0.42660028
v -0.76896244 0.02673539 -0.50950575
v -0.75705898 0.02183759 -0.51579845
v -0.74373162 0.01764791 -0.52539468
v -0.73906136 0.02057872 -0.53876656
v -0.68911231 -0.01376485 -0.52953732
v -0.68187910 -0.02110171 -0.52251053
v -0.70152843 -0.00092043 -0.54207015
v -0.65693307 -0.03827350 -0.51606059
v -0.64508653 -0.05003607 -0.50452411
v -0.58790433 -0.05003607 -0.57143581
v -0.59975082 -0.03984709 -0.57977355
v -0.61165428 -0.02763210 -0.59162468
v -0.63130361 -0.01706939 -0.59162468
v -0.63882154 -0.01937076 -0.57872480
v -0.65095288 -0.00666403 -0.59083813
v -0.62555116 -0.02297035 -0.58601379
v -0.65078199 -0.01634160 -0.57127851
v -0.64463091 -0.02257695 -0.56540537
v -0.65078199 -0.02613720 -0.55056524
v -0.66342586 -0.02196719 -0.54427260
v -0.68973881 -0.00444134 -0.54925430
v -0.76975977 0.03562617 -0.52875078
v -0.73484671 0.02313580 -0.55004084
v -0.72487974 0.01699881 -0.55004084
v -0.75022447 0.02429632 -0.53126782
v -0.67675322 -0.01813156 -0.53588241
v -0.67003262 -0.02481931 -0.52953732
v -0.65015548 -0.03555906 -0.53074342
v -0.64360577 -0.04203045 -0.52455568
v -0.64064413 -0.05003607 -0.51018751
v -0.59183419 -0.05003607 -0.56724072
v -0.59901041 -0.05003607 -0.55947983
v -0.60578799 -0.04309262 -0.56640172
v -0.61148345 -0.03740802 -0.57185531
v -0.63130361 -0.02704201 -0.57127851
v -0.61911535 -0.03951270 -0.55900788
v -0.62492466 -0.04265988 -0.54568845
v -0.63819510 -0.03902096 -0.53787506
v -0.62725979 -0.05003607 -0.52696788
v -0.63568908 -0.05003607 -0.51642770
v -0.60874963 -0.05003607 -0.54867744
v -0.61769146 -0.05003607 -0.53834701
v -0.62384254 -0.05003607 -0.53105807
f 1 2 8
f 1 8 23
f 1 23 41
f 1 41 64
f 1 64 68
f 1 68 102
f 1 102 150
f 1 150 196
f 1 196 246
f 1 246 306
f 1 306 362
f 1 362 377
f 1 377 323
f 1 323 264
f 1 264 263
f 1 263 262
f 1 262 261
f 1 261 260
f 1 260 207
f 1 207 206
f 1 206 158
f 1 158 155
f 1 155 154
f 1 154 106
f 1 106 105
f 1 105 103
f 1 103 70
f 1 70 45
f 1 45 27
f 1 27 10
f 1 10 9
f 1 9 3
f 1 3 4
f 1 4 5
f 1 5 6
f 1 6 7
f 1 7 2
f 2 7 8
f 3 9 4
f 4 9 10
f 4 10 11
f 4 11 12
f 4 12 13
f 4 13 5
f 5 14 6
f 5 13 15
f 5 15 16
f 5 16 17
f 5 17 18
f 5 18 14
f 6 14 7
f 7 19 20
f 7 20 8
f 7 14 18
f 7 18 17
f 7 17 16
f 7 16 21
f 7 21 22
f 7 22 19
f 8 20 24
f 8 24 23
f 10 25 26
f 10 26 12
f 10 12 11
f 10 27 25
f 12 28 29
f 12 29 30
f 12 30 31
f 12 31 13
f 12 26 28
f 13 31 15
f 15 31 32
f 15 32 33
f 15 33 34
f 15 34 35
f 15 35 36
f 15 36 16
f 16 36 21
f 19 24 20
f 19 22 37
f 19 37 24
f 21 36 35
f 21 35 38
f 21 38 39
f 21 39 40
f 21 40 37
f 21 37 22
f 23 24 41
f 24 37 42
f 24 42 43
f 24 43 41
f 25 44 26
f 25 27 45
f 25 45 44
f 26 44 46
f 26 46 47
f 26 47 48
f 26 48 28
f 28 49 29
f 28 48 47
f 28 47 49
f 29 49 50
f 29 50 51
f 29 51 52
f 29 52 30
f 30 52 53
f 30 53 54
f 30 54 55
f 30 55 32
f 30 32 31
f 32 55 33
f 33 55 34
f 34 55 54
f 34 54 56
f 34 56 57
f 34 57 58
f 34 58 35
f 35 58 38
f 37 40 59
f 37 59 42
f 38 40 39
f 38 58 60
f 38 60 40
f 40 60 61
f 40 61 62
f 40 62 63
f 40 63 59
f 41 43 64
f 42 59 65
f 42 65 43
f 43 65 66
f 43 66 67
f 43 67 68
f 43 68 69
f 43 69 64
f 44 45 70
f 44 70 71
f 44 71 46
f 46 71 72
f 46 72 73
f 46 73 47
f 47 73 74
f 47 74 49
f 49 74 50
f 50 75 76
f 50 76 51
f 50 74 77
f 50 77 78
f 50 78 79
f 50 79 75
f 51 76 52
f 52 76 80
f 52 80 53
f 53 81 82
f 53 82 54
f 53 80 83
f 53 83 81
f 54 82 84
f 54 84 85
f 54 85 86
f 54 86 56
f 56 86 57
f 57 86 87
f 57 87 88
f 57 88 89
f 57 89 90
f 57 90 91
f 57 91 58
f 58 91 60
f 59 63 92
f 59 92 65
f 60 91 90
f 60 90 93
f 60 93 94
f 60 94 61
f 61 94 95
f 61 95 62
f 62 96 63
f 62 95 97
f 62 97 98
f 62 98 96
f 63 96 92
f 64 69 68
f 65 92 99
f 65 99 100
f 65 100 67
f 65 67 66
f 67 100 101
f 67 101 102
f 67 102 68
f 70 103 71
f 71 104 72
f 71 103 105
f 71 105 106
f 71 106 104
f 72 104 107
f 72 107 73
f 73 107 108
f 73 108 109
f 73 109 110
f 73 110 74
f 74 110 77
f 75 79 111
f 75 111 76
f 76 111 80
f 77 112 113
f 77 113 78
f 77 110 114
f 77 114 115
f 77 115 112
f 78 113 116
f 78 116 117
f 78 117 79
f 79 117 118
f 79 118 111
f 80 111 83
f 81 119 82
f 81 83 119
f 82 119 120
f 82 120 84
f 83 111 121
f 83 121 122
f 83 122 123
f 83 123 119
f 84 124 125
f 84 125 126
f 84 126 85
f 84 120 124
f 85 87 86
f 85 126 127
f 85 127 128
f 85 128 129
f 85 129 88
f 85 88 87
f 88 129 130
f 88 130 89
f 89 131 132
f 89 132 133
f 89 133 134
f 89 134 135
f 89 135 90
f 89 130 136
f 89 136 137
f 89 137 131
f 90 135 93
f 92 96 138
f 92 138 139
f 92 139 99
f 93 140 97
f 93 97 95
f 93 95 94
f 93 135 134
f 93 134 133
f 93 133 132
f 93 132 131
f 93 131 141
f 93 141 140
f 96 98 142
f 96 142 138
f 97 140 141
f 97 141 143
f 97 143 144
f 97 144 145
f 97 145 146
f 97 146 98
f 98 146 147
f 98 147 142
f 99 139 100
f 100 148 101
f 100 139 149
f 100 149 148
f 101 150 102
f 101 148 151
f 101 151 152
f 101 152 153
f 101 153 150
f 104 108 107
f 104 106 154
f 104 154 155
f 104 155 108
f 108 155 109
f 109 156 157
f 109 157 114
f 109 114 110
f 109 155 158
f 109 158 206
f 109 206 156
f 111 118 121
f 112 159 116
f 112 116 113
f 112 115 157
f 112 157 160
f 112 160 159
f 114 157 115
f 116 159 161
f 116 161 117
f 117 162 118
f 117 161 162
f 118 162 163
f 118 163 164
f 118 164 122
f 118 122 121
f 119 123 165
f 119 165 120
f 120 165 124
f 122 164 166
f 122 166 123
f 123 166 165
f 124 167 168
f 124 168 169
f 124 169 125
f 124 165 170
f 124 170 167
f 125 169 126
f 126 171 127
f 126 169 171
f 127 171 172
f 127 172 173
f 127 173 174
f 127 174 175
f 127 175 128
f 128 130 129
f 128 175 176
f 128 176 136
f 128 136 130
f 131 177 178
f 131 178 141
f 131 137 177
f 136 176 179
f 136 179 180
f 136 180 137
f 137 180 181
f 137 181 182
f 137 182 183
f 137 183 184
f 137 184 178
f 137 178 177
f 138 142 185
f 138 185 139
f 139 185 149
f 141 178 183
f 141 183 182
f 141 182 181
f 141 181 186
f 141 186 145
f 141 145 144
f 141 144 143
f 142 147 187
f 142 187 185
f 145 186 188
f 145 188 189
f 145 189 146
f 146 189 190
f 146 190 147
f 147 190 191
f 147 191 192
f 147 192 187
f 148 149 193
f 148 193 194
f 148 194 151
f 149 185 192
f 149 192 195
f 149 195 194
f 149 194 193
f 150 153 197
f 150 197 196
f 151 198 199
f 151 199 200
f 151 200 152
f 151 194 198
f 152 200 201
f 152 201 202
f 152 202 203
f 152 203 153
f 153 203 197
f 156 204 205
f 156 205 157
f 156 206 207
f 156 207 204
f 157 208 160
f 157 205 208
f 159 209 210
f 159 210 211
f 159 211 161
f 159 160 212
f 159 212 209
f 160 208 212
f 161 211 213
f 161 213 163
f 161 163 162
f 163 213 214
f 163 214 215
f 163 215 216
f 163 216 164
f 164 216 166
f 165 166 170
f 166 216 217
f 166 217 170
f 167 218 219
f 167 219 168
f 167 170 220
f 167 220 218
f 168 219 221
f 168 221 169
f 169 221 171
f 170 222 220
f 170 217 222
f 171 221 172
f 172 221 223
f 172 223 224
f 172 224 225
f 172 225 226
f 172 226 173
f 173 226 174
f 174 227 228
f 174 228 229
f 174 229 175
f 174 226 227
f 175 179 176
f 175 229 230
f 175 230 231
f 175 231 179
f 178 184 183
f 179 231 180
f 180 231 230
f 180 230 232
f 180 232 233
f 180 233 234
f 180 234 181
f 181 234 186
f 185 187 192
f 186 234 235
f 186 235 236
f 186 236 188
f 188 236 189
f 189 236 237
f 189 237 238
f 189 238 239
f 189 239 240
f 189 240 190
f 190 240 191
f 191 240 241
f 191 241 242
f 191 242 192
f 192 242 243
f 192 243 195
f 194 244 245
f 194 245 198
f 194 195 244
f 195 243 244
f 196 197 247
f 196 247 246
f 197 203 258
f 197 258 257
f 197 257 321
f 197 321 375
f 197 375 432
f 197 432 494
f 197 494 551
f 197 551 603
f 197 603 664
f 197 664 718
f 197 718 783
f 197 783 782
f 197 782 815
f 197 815 814
f 197 814 813
f 197 813 750
f 197 750 694
f 197 694 643
f 197 643 586
f 197 586 585
f 197 585 533
f 197 533 530
f 197 530 475
f 197 475 419
f 197 419 363
f 197 363 307
f 197 307 247
f 198 248 199
f 198 245 248
f 199 248 249
f 199 249 250
f 199 250 200
f 200 251 201
f 200 250 252
f 200 252 251
f 201 253 202
f 201 251 253
f 202 254 255
f 202 255 256
f 202 256 257
f 202 257 258
f 202 258 203
f 202 253 254
f 204 259 208
f 204 208 205
f 204 207 260
f 204 260 261
f 204 261 262
f 204 262 263
f 204 263 264
f 204 264 259
f 208 259 212
f 209 265 211
f 209 211 210
f 209 212 266
f 209 266 265
f 211 267 268
f 211 268 214
f 211 214 213
f 211 265 267
f 212 259 269
f 212 269 266
f 214 270 215
f 214 268 270
f 215 271 272
f 215 272 217
f 215 217 216
f 215 270 271
f 217 272 273
f 217 273 222
f 218 220 274
f 218 274 275
f 218 275 276
f 218 276 277
f 218 277 219
f 219 277 221
f 220 222 274
f 221 277 223
f 222 273 278
f 222 278 279
f 222 279 274
f 223 277 224
f 224 280 281
f 224 281 225
f 224 277 280
f 225 282 283
f 225 283 226
f 225 281 282
f 226 283 227
f 227 283 284
f 227 284 228
f 228 284 229
f 229 284 285
f 229 285 286
f 229 286 287
f 229 287 288
f 229 288 289
f 229 289 290
f 229 290 230
f 230 290 232
f 232 290 233
f 233 290 291
f 233 291 292
f 233 292 293
f 233 293 234
f 234 293 294
f 234 294 235
f 235 295 296
f 235 296 297
f 235 297 298
f 235 298 299
f 235 299 300
f 235 300 301
f 235 301 237
f 235 237 236
f 235 294 295
f 237 301 238
f 238 301 299
f 238 299 302
f 238 302 303
f 238 303 239
f 239 242 241
f 239 241 240
f 239 303 242
f 242 303 243
f 243 303 304
f 243 304 244
f 244 304 305
f 244 305 245
f 245 305 248
f 246 247 307
f 246 307 306
f 248 305 308
f 248 308 309
f 248 309 249
f 249 309 310
f 249 310 311
f 249 311 250
f 250 311 252
f 251 312 313
f 251 313 253
f 251 252 312
f 252 311 314
f 252 314 315
f 252 315 316
f 252 316 312
f 253 313 317
f 253 317 318
f 253 318 254
f 254 318 255
f 255 318 319
f 255 319 320
f 255 320 321
f 255 321 257
f 255 257 256
f 259 264 322
f 259 322 269
f 264 323 322
f 265 266 324
f 265 324 325
f 265 325 267
f 266 269 324
f 267 326 327
f 267 327 268
f 267 325 326
f 268 327 328
f 268 328 329
f 268 329 270
f 269 322 324
f 270 329 272
f 270 272 271
f 272 330 331
f 272 331 332
f 272 332 278
f 272 278 273
f 272 329 330
f 274 279 275
f 275 333 334
f 275 334 335
f 275 335 276
f 275 279 336
f 275 336 333
f 276 335 277
f 277 335 280
f 278 332 336
f 278 336 279
f 280 337 281
f 280 335 338
f 280 338 337
f 281 337 339
f 281 339 340
f 281 340 282
f 282 340 341
f 282 341 342
f 282 342 343
f 282 343 283
f 283 343 284
f 284 344 285
f 284 343 344
f 285 344 286
f 286 345 287
f 286 344 346
f 286 346 345
f 287 347 289
f 287 289 288
f 287 345 347
f 289 347 348
f 289 348 349
f 289 349 350
f 289 350 290
f 290 350 291
f 291 350 292
f 292 350 351
f 292 351 352
f 292 352 353
f 292 353 293
f 293 353 296
f 293 296 354
f 293 354 295
f 293 295 355
f 293 355 356
f 293 356 294
f 294 356 295
f 295 356 355
f 295 354 296
f 296 353 357
f 296 357 297
f 297 358 299
f 297 299 298
f 297 357 359
f 297 359 360
f 297 360 358
f 299 358 302
f 299 301 300
f 302 358 361
f 302 361 304
f 302 304 303
f 304 361 305
f 305 361 308
f 306 307 362
f 307 363 362
f 308 364 309
f 308 361 358
f 308 358 364
f 309 364 365
f 309 365 310
f 310 365 366
f 310 366 311
f 311 366 314
f 312 316 315
f 312 315 367
f 312 367 368
f 312 368 369
f 312 369 313
f 313 369 317
f 314 366 370
f 314 370 315
f 315 370 367
f 317 369 371
f 317 371 318
f 318 371 372
f 318 372 319
f 319 372 373
f 319 373 374
f 319 374 320
f 320 374 375
f 320 375 321
f 322 376 324
f 322 323 377
f 322 377 376
f 324 378 379
f 324 379 325
f 324 376 378
f 325 379 380
f 325 380 326
f 326 381 328
f 326 328 327
f 326 380 381
f 328 382 383
f 328 383 384
f 328 384 385
f 328 385 329
f 328 381 386
f 328 386 382
f 329 385 330
f 330 387 331
f 330 385 387
f 331 387 388
f 331 388 389
f 331 389 390
f 331 390 391
f 331 391 392
f 331 392 332
f 332 392 336
f 333 393 394
f 333 394 334
f 333 336 391
f 333 391 393
f 334 394 338
f 334 338 335
f 336 392 391
f 337 338 339
f 338 394 395
f 338 395 396
f 338 396 339
f 339 396 397
f 339 397 398
f 339 398 340
f 340 398 341
f 341 399 400
f 341 400 401
f 341 401 342
f 341 398 399
f 342 401 344
f 342 344 343
f 344 401 346
f 345 346 401
f 345 401 402
f 345 402 347
f 347 402 403
f 347 403 404
f 347 404 405
f 347 405 406
f 347 406 349
f 347 349 348
f 349 406 407
f 349 407 408
f 349 408 350
f 350 408 351
f 351 409 410
f 351 410 411
f 351 411 352
f 351 408 409
f 352 411 412
f 352 412 353
f 353 412 410
f 353 410 413
f 353 413 414
f 353 414 415
f 353 415 357
f 357 415 359
f 358 360 364
f 359 415 416
f 359 416 417
f 359 417 418
f 359 418 360
f 360 418 365
f 360 365 364
f 362 363 419
f 362 419 477
f 362 477 537
f 362 537 595
f 362 595 655
f 362 655 654
f 362 654 653
f 362 653 709
f 362 709 769
f 362 769 776
f 362 776 825
f 362 825 846
f 362 846 856
f 362 856 855
f 362 855 859
f 362 859 858
f 362 858 857
f 362 857 848
f 362 848 847
f 362 847 826
f 362 826 790
f 362 790 789
f 362 789 788
f 362 788 787
f 362 787 785
f 362 785 784
f 362 784 720
f 362 720 719
f 362 719 665
f 362 665 606
f 362 606 666
f 362 666 610
f 362 610 604
f 362 604 553
f 362 553 552
f 362 552 495
f 362 495 437
f 362 437 436
f 362 436 442
f 362 442 441
f 362 441 440
f 362 440 434
f 362 434 383
f 362 383 382
f 362 382 386
f 362 386 381
f 362 381 433
f 362 433 379
f 362 379 378
f 362 378 376
f 362 376 377
f 365 418 420
f 365 420 421
f 365 421 366
f 366 421 370
f 367 370 368
f 368 370 422
f 368 422 423
f 368 423 371
f 368 371 369
f 370 424 422
f 370 421 425
f 370 425 424
f 371 423 372
f 372 423 373
f 373 426 427
f 373 427 428
f 373 428 429
f 373 429 374
f 373 423 430
f 373 430 426
f 374 429 431
f 374 431 375
f 375 431 429
f 375 429 432
f 379 433 380
f 380 433 381
f 383 434 384
f 384 434 435
f 384 435 388
f 384 388 385
f 385 388 387
f 388 435 389
f 389 436 437
f 389 437 438
f 389 438 439
f 389 439 390
f 389 435 440
f 389 440 441
f 389 441 442
f 389 442 436
f 390 439 443
f 390 443 391
f 391 443 444
f 391 444 393
f 393 395 394
f 393 444 395
f 395 444 443
f 395 443 445
f 395 445 446
f 395 446 447
f 395 447 448
f 395 448 396
f 396 448 397
f 397 448 399
f 397 399 398
f 399 449 450
f 399 450 400
f 399 448 451
f 399 451 452
f 399 452 449
f 400 450 453
f 400 453 401
f 401 453 402
f 402 453 403
f 403 453 450
f 403 450 454
f 403 454 404
f 404 455 405
f 404 454 455
f 405 456 406
f 405 455 456
f 406 456 457
f 406 457 407
f 407 457 408
f 408 458 409
f 408 457 458
f 409 458 459
f 409 459 460
f 409 460 410
f 410 460 461
f 410 461 462
f 410 462 413
f 410 412 411
f 413 462 414
f 414 462 415
f 415 462 463
f 415 463 464
f 415 464 416
f 416 465 466
f 416 466 467
f 416 467 468
f 416 468 469
f 416 469 470
f 416 470 471
f 416 471 417
f 416 464 472
f 416 472 465
f 417 471 418
f 418 471 473
f 418 473 474
f 418 474 420
f 419 475 476
f 419 476 477
f 420 474 421
f 421 474 478
f 421 478 425
f 422 424 479
f 422 479 480
f 422 480 481
f 422 481 482
f 422 482 423
f 423 483 484
f 423 484 485
f 423 485 430
f 423 482 486
f 423 486 483
f 424 480 479
f 424 425 474
f 424 474 480
f 425 478 474
f 426 487 427
f 426 430 487
f 427 488 489
f 427 489 490
f 427 490 429
f 427 429 428
f 427 487 485
f 427 485 488
f 429 490 491
f 429 491 492
f 429 492 432
f 430 485 487
f 432 492 493
f 432 493 494
f 434 440 435
f 437 495 438
f 438 495 496
f 438 496 439
f 439 496 443
f 443 496 445
f 445 496 446
f 446 497 498
f 446 498 447
f 446 496 497
f 447 451 448
f 447 498 451
f 449 454 450
f 449 452 454
f 451 499 452
f 451 498 499
f 452 499 500
f 452 500 501
f 452 501 454
f 454 501 502
f 454 502 503
f 454 503 504
f 454 504 505
f 454 505 455
f 455 505 506
f 455 506 507
f 455 507 508
f 455 508 509
f 455 509 510
f 455 510 456
f 456 510 457
f 457 510 509
f 457 509 458
f 458 509 459
f 459 511 460
f 459 509 511
f 460 512 461
f 460 511 512
f 461 513 462
f 461 512 513
f 462 513 514
f 462 514 515
f 462 515 516
f 462 516 463
f 463 516 464
f 464 516 472
f 465 517 518
f 465 518 519
f 465 519 466
f 465 472 516
f 465 516 520
f 465 520 521
f 465 521 517
f 466 519 467
f 467 519 518
f 467 518 522
f 467 522 468
f 468 523 524
f 468 524 469
f 468 522 525
f 468 525 523
f 469 526 473
f 469 473 470
f 469 524 527
f 469 527 526
f 470 473 471
f 473 526 527
f 473 527 474
f 474 527 528
f 474 528 529
f 474 529 481
f 474 481 480
f 475 530 476
f 476 531 532
f 476 532 477
f 476 530 533
f 476 533 534
f 476 534 535
f 476 535 531
f 477 532 536
f 477 536 537
f 481 529 538
f 481 538 539
f 481 539 540
f 481 540 541
f 481 541 542
f 481 542 485
f 481 485 484
f 481 484 483
f 481 483 486
f 481 486 482
f 485 542 543
f 485 543 544
f 485 544 545
f 485 545 546
f 485 546 488
f 488 546 547
f 488 547 548
f 488 548 489
f 489 548 490
f 490 549 491
f 490 548 549
f 491 549 492
f 492 549 493
f 493 549 494
f 494 549 550
f 494 550 551
f 495 552 496
f 496 552 553
f 496 553 554
f 496 554 497
f 497 554 498
f 498 554 555
f 498 555 556
f 498 556 557
f 498 557 558
f 498 558 499
f 499 558 500
f 500 502 501
f 500 558 559
f 500 559 560
f 500 560 502
f 502 561 562
f 502 562 506
f 502 506 504
f 502 504 503
f 502 560 561
f 504 506 505
f 506 562 563
f 506 563 564
f 506 564 565
f 506 565 507
f 507 565 508
f 508 565 509
f 509 566 567
f 509 567 511
f 509 565 566
f 511 567 566
f 511 566 568
f 511 568 569
f 511 569 570
f 511 570 571
f 511 571 512
f 512 571 513
f 513 571 514
f 514 571 572
f 514 572 573
f 514 573 574
f 514 574 515
f 515 574 516
f 516 574 520
f 517 575 576
f 517 576 518
f 517 521 577
f 517 577 575
f 518 576 525
f 518 525 522
f 520 574 578
f 520 578 521
f 521 578 579
f 521 579 577
f 523 580 524
f 523 525 580
f 524 528 527
f 524 580 581
f 524 581 582
f 524 582 528
f 525 576 583
f 525 583 584
f 525 584 580
f 528 582 529
f 529 582 538
f 531 536 532
f 531 535 536
f 533 585 534
f 534 585 586
f 534 586 587
f 534 587 588
f 534 588 535
f 535 589 590
f 535 590 536
f 535 588 591
f 535 591 592
f 535 592 589
f 536 590 593
f 536 593 594
f 536 594 595
f 536 595 537
f 538 582 539
f 539 582 540
f 540 582 541
f 541 582 542
f 542 547 543
f 542 582 547
f 543 547 544
f 544 547 545
f 545 547 546
f 547 596 548
f 547 582 597
f 547 597 596
f 548 598 599
f 548 599 600
f 548 600 549
f 548 596 598
f 549 601 602
f 549 602 550
f 549 600 601
f 550 602 551
f 551 602 603
f 553 604 605
f 553 605 554
f 554 605 555
f 555 605 556
f 556 606 607
f 556 607 608
f 556 608 609
f 556 609 557
f 556 605 604
f 556 604 610
f 556 610 611
f 556 611 606
f 557 609 558
f 558 609 559
f 559 609 560
f 560 609 608
f 560 608 612
f 560 612 613
f 560 613 614
f 560 614 561
f 561 614 615
f 561 615 616
f 561 616 562
f 562 616 563
f 563 617 618
f 563 618 564
f 563 616 619
f 563 619 620
f 563 620 617
f 564 618 566
f 564 566 565
f 566 621 568
f 566 618 621
f 568 621 569
f 569 622 623
f 569 623 571
f 569 571 570
f 569 621 624
f 569 624 625
f 569 625 622
f 571 623 626
f 571 626 572
f 572 626 573
f 573 627 579
f 573 579 578
f 573 578 574
f 573 626 628
f 573 628 629
f 573 629 627
f 575 577 630
f 575 630 576
f 576 631 583
f 576 630 632
f 576 632 631
f 577 579 630
f 579 633 630
f 579 627 629
f 579 629 634
f 579 634 633
f 580 584 635
f 580 635 636
f 580 636 581
f 581 636 637
f 581 637 582
f 582 637 597
f 583 638 584
f 583 631 639
f 583 639 640
f 583 640 638
f 584 638 641
f 584 641 642
f 584 642 635
f 586 643 587
f 587 643 644
f 587 644 645
f 587 645 588
f 588 645 591
f 589 592 646
f 589 646 590
f 590 646 593
f 591 645 647
f 591 647 592
f 592 648 649
f 592 649 646
f 592 647 650
f 592 650 651
f 592 651 648
f 593 646 594
f 594 652 653
f 594 653 654
f 594 654 655
f 594 655 595
f 594 646 656
f 594 656 657
f 594 657 652
f 596 597 658
f 596 658 659
f 596 659 598
f 597 660 661
f 597 661 658
f 597 637 660
f 598 659 599
f 599 662 600
f 599 659 662
f 600 662 601
f 601 662 602
f 602 663 603
f 602 662 663
f 603 663 664
f 606 665 607
f 606 611 666
f 607 665 667
f 607 667 608
f 608 667 612
f 610 666 611
f 612 667 613
f 613 668 615
f 613 615 614
f 613 667 669
f 613 669 668
f 615 668 670
f 615 670 620
f 615 620 619
f 615 619 616
f 617 671 618
f 617 620 671
f 618 671 624
f 618 624 621
f 620 672 673
f 620 673 674
f 620 674 675
f 620 675 671
f 620 670 672
f 622 625 676
f 622 676 677
f 622 677 626
f 622 626 623
f 624 671 676
f 624 676 625
f 626 678 628
f 626 677 679
f 626 679 678
f 628 678 629
f 629 678 680
f 629 680 681
f 629 681 682
f 629 682 634
f 630 683 639
f 630 639 632
f 630 633 684
f 630 684 685
f 630 685 683
f 631 632 639
f 633 634 682
f 633 682 684
f 635 686 687
f 635 687 661
f 635 661 660
f 635 660 637
f 635 637 636
f 635 642 686
f 638 640 688
f 638 688 641
f 639 689 688
f 639 688 640
f 639 683 690
f 639 690 691
f 639 691 689
f 641 688 692
f 641 692 642
f 642 693 686
f 642 692 693
f 643 694 644
f 644 694 695
f 644 695 645
f 645 696 647
f 645 695 697
f 645 697 696
f 646 649 698
f 646 698 699
f 646 699 656
f 647 696 697
f 647 697 700
f 647 700 701
f 647 701 650
f 648 702 649
f 648 651 703
f 648 703 702
f 649 702 698
f 650 701 704
f 650 704 651
f 651 704 705
f 651 705 706
f 651 706 707
f 651 707 703
f 652 708 653
f 652 657 708
f 653 708 709
f 656 699 657
f 657 699 710
f 657 710 711
f 657 711 712
f 657 712 708
f 658 661 659
f 659 713 662
f 659 661 687
f 659 687 713
f 662 714 663
f 662 713 715
f 662 715 716
f 662 716 714
f 663 714 717
f 663 717 718
f 663 718 664
f 665 719 667
f 667 719 720
f 667 720 721
f 667 721 669
f 668 722 670
f 668 669 723
f 668 723 722
f 669 721 723
f 670 722 724
f 670 724 672
f 671 675 676
f 672 724 673
f 673 725 674
f 673 724 725
f 674 726 727
f 674 727 675
f 674 725 726
f 675 727 728
f 675 728 676
f 676 728 677
f 677 728 727
f 677 727 729
f 677 729 730
f 677 730 731
f 677 731 679
f 678 679 680
f 679 731 680
f 680 731 730
f 680 730 732
f 680 732 733
f 680 733 681
f 681 733 682
f 682 734 684
f 682 733 735
f 682 735 736
f 682 736 734
f 683 685 690
f 684 734 685
f 685 734 736
f 685 736 737
f 685 737 738
f 685 738 690
f 686 693 739
f 686 739 740
f 686 740 741
f 686 741 687
f 687 741 740
f 687 740 742
f 687 742 743
f 687 743 713
f 688 744 692
f 688 689 745
f 688 745 744
f 689 691 746
f 689 746 747
f 689 747 745
f 690 746 691
f 690 738 748
f 690 748 746
f 692 744 749
f 692 749 739
f 692 739 693
f 694 750 695
f 695 750 697
f 697 701 700
f 697 750 751
f 697 751 752
f 697 752 753
f 697 753 754
f 697 754 755
f 697 755 756
f 697 756 701
f 698 702 699
f 699 702 757
f 699 757 710
f 701 758 704
f 701 756 758
f 702 703 759
f 702 759 760
f 702 760 757
f 703 707 761
f 703 761 759
f 704 758 705
f 705 758 762
f 705 762 706
f 706 763 764
f 706 764 765
f 706 765 766
f 706 766 767
f 706 767 707
f 706 762 768
f 706 768 763
f 707 767 761
f 708 712 769
f 708 769 709
f 710 757 760
f 710 760 711
f 711 760 770
f 711 770 771
f 711 771 772
f 711 772 712
f 712 773 774
f 712 774 775
f 712 775 776
f 712 776 769
f 712 772 777
f 712 777 773
f 713 743 778
f 713 778 779
f 713 779 715
f 714 716 754
f 714 754 780
f 714 780 717
f 715 779 781
f 715 781 716
f 716 781 754
f 717 780 782
f 717 782 783
f 717 783 718
f 720 784 721
f 721 784 723
f 722 723 785
f 722 785 786
f 722 786 724
f 723 784 785
f 724 786 787
f 724 787 788
f 724 788 789
f 724 789 725
f 725 790 791
f 725 791 792
f 725 792 793
f 725 793 730
f 725 730 794
f 725 794 726
f 725 789 790
f 726 794 727
f 727 794 730
f 727 730 729
f 730 795 732
f 730 793 796
f 730 796 795
f 732 797 733
f 732 795 797
f 733 798 735
f 733 797 798
f 735 798 736
f 736 798 797
f 736 797 799
f 736 799 800
f 736 800 801
f 736 801 802
f 736 802 737
f 737 803 748
f 737 748 738
f 737 802 804
f 737 804 803
f 739 749 805
f 739 805 806
f 739 806 766
f 739 766 765
f 739 765 740
f 740 765 807
f 740 807 742
f 742 807 768
f 742 768 743
f 743 768 778
f 744 745 808
f 744 808 749
f 745 747 809
f 745 809 808
f 746 810 747
f 746 748 811
f 746 811 810
f 747 810 809
f 748 803 811
f 749 808 812
f 749 812 805
f 750 813 751
f 751 813 752
f 752 814 815
f 752 815 816
f 752 816 754
f 752 754 753
f 752 813 814
f 754 781 755
f 754 816 780
f 755 781 756
f 756 781 779
f 756 779 762
f 756 762 758
f 759 761 760
f 760 761 770
f 761 767 817
f 761 817 818
f 761 818 770
f 762 779 778
f 762 778 768
f 763 807 764
f 763 768 807
f 764 807 765
f 766 806 767
f 767 806 817
f 770 819 771
f 770 818 819
f 771 819 772
f 772 819 820
f 772 820 777
f 773 821 822
f 773 822 775
f 773 775 774
f 773 777 823
f 773 823 821
f 775 824 776
f 775 822 824
f 776 824 825
f 777 820 823
f 780 816 782
f 782 816 815
f 785 787 786
f 790 826 827
f 790 827 791
f 791 827 792
f 792 828 796
f 792 796 793
f 792 827 828
f 795 796 829
f 795 829 830
f 795 830 831
f 795 831 797
f 796 828 832
f 796 832 829
f 797 831 833
f 797 833 799
f 799 833 800
f 800 833 834
f 800 834 835
f 800 835 836
f 800 836 804
f 800 804 801
f 801 804 802
f 803 804 823
f 803 823 811
f 804 836 837
f 804 837 823
f 805 812 838
f 805 838 817
f 805 817 806
f 808 809 812
f 809 810 820
f 809 820 812
f 810 811 839
f 810 839 820
f 811 823 840
f 811 840 839
f 812 820 841
f 812 841 818
f 812 818 838
f 817 838 818
f 818 841 819
f 819 841 820
f 820 839 840
f 820 840 823
f 821 842 822
f 821 823 842
f 822 842 843
f 822 843 824
f 823 837 842
f 824 844 845
f 824 845 825
f 824 843 844
f 825 845 846
f 826 847 827
f 827 847 848
f 827 848 849
f 827 849 850
f 827 850 832
f 827 832 828
f 829 832 830
f 830 832 851
f 830 851 834
f 830 834 833
f 830 833 831
f 832 850 851
f 834 851 852
f 834 852 853
f 834 853 854
f 834 854 835
f 835 854 836
f 836 854 844
f 836 844 843
f 836 843 842
f 836 842 837
f 844 854 845
f 845 854 855
f 845 855 856
f 845 856 846
f 848 857 849
f 849 857 852
f 849 852 850
f 850 852 851
f 852 857 853
f 853 857 858
f 853 858 854
f 854 858 859
f 854 859 855
