v 0.60466200 -0.05025132 0.00098626
v 0.52752972 -0.05025132 0.30788466
v 0.52752972 -0.02939501 0.43345517
v 0.95260465 0.14442074 0.00098626
v 0.81552774 -0.05025132 0.00098626
v 0.52752972 -0.05025132 0.43345517
v 0.83831894 0.14097749 0.43345517
v 0.84180355 0.14268929 0.43345517
v 0.84585321 0.14463718 0.43345517
v 0.84905529 0.14575870 0.43345517
v 0.96042144 0.14693925 0.00098626
v 0.82489848 -0.04354189 0.00098626
v 0.81557482 -0.05025132 0.01000398
v 0.69304854 -0.05025132 0.43345517
v 0.86647832 0.15018575 0.43345517
v 0.96998060 0.15000866 0.00098626
v 0.82941908 -0.04029538 0.00098626
v 0.81510395 -0.05025132 0.03002921
v 0.83492851 -0.03634055 0.01000398
v 0.83469307 -0.03618315 0.03002921
v 0.69521463 -0.05025132 0.42989889
v 0.70463252 -0.04295161 0.43345517
v 0.86996293 0.15024477 0.43345517
v 0.86996293 0.15038250 0.42998356
v 0.96998060 0.15069732 0.09002025
v 0.97897458 0.14835590 0.00098626
v 0.85334045 -0.02309876 0.00098626
v 0.81482142 -0.05025132 0.03608336
v 0.84881985 -0.02634526 0.01000398
v 0.84806645 -0.02583369 0.05001211
v 0.82419217 -0.04303031 0.05001211
v 0.85856736 -0.01896685 0.03002921
v 0.70095956 -0.05025132 0.42037314
v 0.70566845 -0.04362059 0.42998356
v 0.73406333 -0.02425963 0.43345517
v 0.88865739 0.14593577 0.43345517
v 0.88997591 0.14947742 0.40995830
v 0.90998882 0.15034315 0.34996730
v 0.94996762 0.15059894 0.22998521
v 0.96998060 0.15075634 0.11000314
v 0.98999351 0.14632930 0.00098626
v 0.86497146 -0.01469720 0.00098626
v 0.85880280 -0.01914393 0.01000398
v 0.81406796 -0.05025132 0.05115519
v 0.82343876 -0.04247940 0.07003735
v 0.81265533 -0.05025132 0.07003735
v 0.85804939 -0.01861268 0.05001211
v 0.85729593 -0.01804209 0.07003735
v 0.81355000 -0.05025132 0.05818309
v 0.86996293 -0.01105719 0.01000398
v 0.88258290 -0.00188828 0.01000398
v 0.86996293 -0.01068335 0.03002921
v 0.88182944 -0.00135703 0.05001211
v 0.86996293 -0.00997502 0.05001211
v 0.70661026 -0.05025132 0.41067803
v 0.73142630 -0.02687651 0.43095732
v 0.74286902 -0.02181984 0.42490315
v 0.74602395 -0.01660576 0.43345517
v 0.89068222 0.14518809 0.43345517
v 0.89138854 0.14538486 0.43104196
v 0.90593916 0.14394853 0.40995830
v 0.90998882 0.14924131 0.36999252
v 0.92995465 0.14994964 0.30995914
v 0.94996762 0.14969385 0.24996811
v 0.96998060 0.14994964 0.15001127
v 0.96998060 0.15052024 0.13002838
v 0.98999351 0.14613253 0.03002921
v 0.98999351 0.14632930 0.01000398
v 0.99479663 0.14383048 0.00098626
v 0.88258290 -0.00190796 0.00098626
v 0.82240278 -0.04177106 0.09002025
v 0.81053627 -0.05025132 0.09099399
v 0.88102895 -0.00076676 0.07003735
v 0.88036966 -0.00029454 0.08388144
v 0.85625994 -0.01729441 0.09002025
v 0.83243281 -0.03453038 0.09002025
v 0.89261287 0.00545079 0.00098626
v 0.89256579 0.00547046 0.01000398
v 0.89233035 0.00566722 0.03002921
v 0.88230032 -0.00171120 0.03002921
v 0.89181238 0.00602138 0.05001211
v 0.89105892 0.00657230 0.07003735
v 0.70830548 -0.05025132 0.40775681
v 0.74701285 -0.02455477 0.40995830
v 0.75704288 -0.01804209 0.40995830
v 0.74974406 -0.01513007 0.43095732
v 0.72973108 -0.03529774 0.41101673
v 0.75214559 -0.01263125 0.43345517
v 0.90024137 0.13977727 0.43345517
v 0.90236038 0.14196128 0.42507249
v 0.92194951 0.14170548 0.38464099
v 0.92496324 0.14359435 0.36999252
v 0.91130733 0.14522746 0.39077979
v 0.92995465 0.14792304 0.32998437
v 0.94996762 0.14782465 0.26999336
v 0.96734357 0.14489296 0.22998521
v 0.96998060 0.14749017 0.19001941
v 0.96998060 0.14896585 0.17003652
v 0.98617929 0.14463718 0.13002838
v 0.98730940 0.14503071 0.11000314
v 0.98839247 0.14526680 0.09002025
v 0.98938131 0.14540453 0.07003735
v 0.99192417 0.14457816 0.05132455
v 1.00054145 0.14058396 0.03002921
v 1.00068283 0.14076105 0.01000398
v 1.00068283 0.14076105 0.00098626
v 0.82117844 -0.04086598 0.11000314
v 0.80997121 -0.04893304 0.11000314
v 0.80846435 -0.05025132 0.10742061
v 0.88823360 0.00594268 0.09035894
v 0.87966335 0.00023670 0.09721748
v 0.90608042 0.01544607 0.00098626
v 0.90603334 0.01546575 0.01000398
v 0.90575081 0.01566251 0.03002921
v 0.90527987 0.01601667 0.05001211
v 0.90457356 0.01656760 0.07003735
v 0.90363181 0.01727592 0.09002025
v 0.71461546 -0.05025132 0.39628357
v 0.72290313 -0.04183009 0.40504727
v 0.73702991 -0.03807202 0.38997543
v 0.75986820 -0.01989160 0.39967051
v 0.80300200 0.01800393 0.42558056
v 0.79381961 0.01477710 0.43345517
v 0.76669616 -0.00440678 0.42998356
v 0.76570731 -0.00375748 0.43345517
v 0.90363181 0.13355973 0.43345517
v 0.91888869 0.13820320 0.39797705
v 0.94073814 0.14074138 0.34209266
v 0.94276297 0.14235479 0.32998437
v 0.94605923 0.14424366 0.30995914
v 0.96484780 0.14386982 0.24996811
v 0.98179996 0.14178419 0.19001941
v 0.98344809 0.14312214 0.17003652
v 0.98490787 0.14404690 0.15001127
v 0.99988222 0.13985597 0.05890281
v 1.00025892 0.14030851 0.04556677
v 1.00501502 0.12999842 0.03002921
v 1.00534463 0.12999842 0.01000398
v 1.00327265 0.13483864 0.00098626
v 0.82033086 -0.04023635 0.12219610
v 0.87886280 0.00080730 0.11000314
v 0.80813473 -0.05025132 0.11000314
v 0.90254873 0.01812198 0.11000314
v 0.88997591 0.00891372 0.11000314
v 0.93946671 0.04039495 0.00098626
v 0.93941963 0.04041463 0.01000398
v 0.93918419 0.04061139 0.03002921
v 0.93871331 0.04096555 0.05001211
v 0.93795985 0.04149679 0.07003735
v 0.94996762 0.05176755 0.09002025
v 0.91366178 0.02473304 0.09002025
v 0.95999765 0.05997234 0.10013871
v 0.71772331 -0.05025132 0.39056814
v 0.73980820 -0.03984284 0.37951827
v 0.76321155 -0.02213465 0.38633448
v 0.81981289 0.02012891 0.39958584
v 0.83968455 0.04019819 0.41944173
v 0.80686331 0.02341476 0.43345517
v 0.83685917 0.04208707 0.42998356
v 0.90518570 0.12995905 0.43345517
v 0.90593916 0.13110025 0.43104196
v 0.92190242 0.12488271 0.40407354
v 0.92524576 0.13092317 0.39077979
v 0.93795985 0.13613725 0.35542870
v 0.94313967 0.12966391 0.34924757
v 0.94982636 0.12999842 0.32998437
v 0.95849079 0.13733748 0.29603040
v 0.96075106 0.14078073 0.28269434
v 0.96239918 0.14219739 0.26999336
v 0.98062277 0.14066267 0.20327079
v 0.99733943 0.13470092 0.11000314
v 0.99837542 0.13718006 0.09002025
v 0.99936426 0.13900991 0.07003735
v 1.00256634 0.12718478 0.09002025
v 1.00336683 0.12901461 0.07003735
v 1.00336683 0.13190696 0.05132455
v 1.00727522 0.10998815 0.05001211
v 1.00812292 0.10998815 0.03002921
v 1.00854671 0.10998815 0.01000398
v 1.00534463 0.12999842 0.00098626
v 0.81157225 -0.04574557 0.12930866
v 0.87745011 0.00183044 0.13002838
v 0.90123022 0.01910577 0.13002838
v 0.88997591 0.01092065 0.13002838
v 0.80521518 -0.05025132 0.12960503
v 0.93598211 0.04295280 0.11000314
v 0.95924419 0.06054294 0.11347475
v 0.94817823 0.05389253 0.13002838
v 0.93471068 0.04389724 0.13002838
v 0.92472780 0.03649915 0.13002838
v 0.95693684 0.05359739 0.00098626
v 0.96268171 0.05794574 0.01000398
v 0.96244627 0.05814250 0.03002921
v 0.96197540 0.05849666 0.05001211
v 0.96131611 0.05898856 0.07003735
v 0.94996762 0.05046894 0.07003735
v 0.96046853 0.05961818 0.09002025
v 0.97045147 0.06721303 0.09002025
v 0.96800280 0.06676048 0.10809800
v 0.95152158 0.05434507 0.10809800
v 0.72780043 -0.05025132 0.37122029
v 0.74310446 -0.04200717 0.36618221
v 0.74988532 -0.03576995 0.37168598
v 0.76721418 -0.02483023 0.36999252
v 0.79979992 0.00011865 0.37960294
v 0.87966335 0.06020845 0.39928949
v 0.84307498 0.03793548 0.40610570
v 0.86694920 0.05526983 0.40995830
v 0.86294663 0.05798509 0.42558056
v 0.85164523 0.05243652 0.43133831
v 0.83356297 0.04116230 0.43345517
v 0.90862322 0.10998815 0.43345517
v 0.91041267 0.10998815 0.42998356
v 0.91766441 0.10998815 0.41520804
v 0.92242038 0.10998815 0.40521663
v 0.94097358 0.12279708 0.36241424
v 0.93489909 0.12966391 0.36944216
v 0.96145737 0.12401698 0.30437070
v 0.96338809 0.13041160 0.28959522
v 0.96894461 0.12999842 0.26999336
v 0.97732651 0.13448448 0.22998521
v 0.97902167 0.13839996 0.21660684
v 0.98340100 0.13104123 0.20995998
v 0.98763907 0.12999842 0.19001941
v 0.99107659 0.12999842 0.17003652
v 0.99409026 0.12999842 0.15001127
v 0.99686855 0.12930976 0.13163719
v 1.00072980 0.12218713 0.12609106
v 1.00162458 0.12470563 0.11000314
v 1.00600386 0.10998815 0.07003735
v 1.00181293 0.09708084 0.09002025
v 1.00261343 0.09595932 0.07003735
v 1.00322556 0.09511326 0.05001211
v 1.00364935 0.09458202 0.03002921
v 1.00849962 0.10998815 0.00098626
v 1.00708687 0.11899965 0.00098626
v 1.00383770 0.09432624 0.01000398
v 1.00383770 0.09432624 0.00098626
v 1.00595677 0.10138984 0.00098626
v 0.87580204 0.00299131 0.15001127
v 0.81924778 -0.03946900 0.13553214
v 0.80799347 -0.04574557 0.15001127
v 0.90033555 0.01975507 0.14213666
v 0.89152986 0.01424585 0.14929156
v 0.80304909 -0.05025132 0.14200965
v 0.96998060 0.07038082 0.13002838
v 0.95816118 0.06132997 0.13002838
v 0.94671845 0.05499437 0.15001127
v 0.96268171 0.05794574 0.00098626
v 0.96720231 0.06136932 0.00098626
v 0.97266465 0.06552091 0.01000398
v 0.97242922 0.06569799 0.03002921
v 0.97195828 0.06605215 0.05001211
v 0.97129905 0.06656373 0.07003735
v 0.98424864 0.07655901 0.07003735
v 0.98340100 0.07722799 0.09002025
v 0.98231792 0.07805438 0.11000314
v 0.72902477 -0.05025132 0.36876476
v 0.73481673 -0.05025132 0.35703748
v 0.73783046 -0.05025132 0.35068703
v 0.74691868 -0.04452568 0.34996730
v 0.75694871 -0.03795397 0.34996730
v 0.77969283 -0.01981290 0.35936600
v 0.80290782 -0.00198666 0.36630923
v 0.82687628 0.01536737 0.36999252
v 0.83685917 0.02211616 0.36999252
v 0.85955620 0.04029657 0.37905258
v 0.88267708 0.05810314 0.38595343
v 0.88959920 0.06487161 0.39154187
v 0.90203071 0.07836919 0.40441221
v 0.89134145 0.07268289 0.41063571
v 0.87697923 0.06205797 0.40995830
v 0.86977458 0.06475355 0.43133831
v 0.86685503 0.06353366 0.43345517
v 0.85381132 0.05465988 0.43345517
v 0.90801108 0.10670230 0.43345517
v 0.92133737 0.09802528 0.40288812
v 0.92929542 0.10998815 0.38997543
v 0.93682969 0.10998815 0.37240571
v 0.94097358 0.10998815 0.36241424
v 0.94572961 0.10998815 0.34996730
v 0.95302844 0.10998815 0.32998437
v 0.95830244 0.10998815 0.31503955
v 0.96164578 0.10998815 0.30504811
v 0.96630758 0.10998815 0.28997624
v 0.98029310 0.12090820 0.24116209
v 0.97506618 0.12854239 0.24869801
v 0.98156452 0.12448920 0.22998521
v 0.99941134 0.10998815 0.13578618
v 1.00068283 0.10998815 0.12579471
v 1.00247216 0.10998815 0.11000314
v 1.00440288 0.10998815 0.09002025
v 0.99423152 0.10998815 0.17003652
v 0.99738652 0.10998815 0.15001127
v 1.00016475 0.09963870 0.12168806
v 1.00082397 0.09859588 0.11000314
v 0.99338394 0.08708555 0.09002025
v 0.99423152 0.08594435 0.07003735
v 0.99489081 0.08511798 0.05001211
v 0.99536169 0.08456706 0.03002921
v 0.99559712 0.08433095 0.01000398
v 1.00011766 0.08982049 0.00098626
v 0.89920539 0.02056178 0.15547271
v 0.88785684 0.01430488 0.17003652
v 0.87396550 0.00430959 0.17003652
v 0.80601573 -0.04430924 0.17003652
v 0.79763383 -0.05025132 0.17003652
v 0.80163640 -0.05025132 0.15001127
v 0.93320382 0.04499908 0.15001127
v 0.90819943 0.02642515 0.14929156
v 0.95670140 0.06243181 0.15001127
v 0.98109365 0.07903817 0.13002838
v 0.98029310 0.07972682 0.14226368
v 0.97158158 0.07378473 0.14937623
v 0.94502324 0.05625362 0.17003652
v 0.97266465 0.06552091 0.00098626
v 0.97977513 0.07101045 0.00098626
v 0.98556709 0.07551620 0.01000398
v 0.98533165 0.07569328 0.03002921
v 0.98490787 0.07604745 0.05001211
v 0.74216264 -0.05025132 0.34116125
v 0.75949150 -0.03964608 0.33874807
v 0.78265941 -0.02181984 0.34603000
v 0.83944911 0.02036502 0.35873097
v 0.86949205 0.04472362 0.37143195
v 0.88611460 0.05566335 0.36999252
v 0.89609748 0.06276630 0.36999252
v 0.90527987 0.07592939 0.38997543
v 0.91827655 0.08139925 0.37591964
v 0.89887577 0.08088769 0.41774827
v 0.88578492 0.07567361 0.42998356
v 0.86991584 0.06567831 0.43345517
v 0.88489026 0.07634258 0.43345517
v 0.87184650 0.06703594 0.43345517
v 0.90391433 0.09501489 0.43345517
v 0.92416269 0.09456235 0.38997543
v 0.94031429 0.09948128 0.36076313
v 0.90476191 0.09399175 0.42998356
v 0.91526282 0.08456706 0.38997543
v 0.96075106 0.09881231 0.30233854
v 0.97205251 0.10998815 0.26999336
v 0.98029310 0.11675662 0.24116209
v 0.98665017 0.10998815 0.21000232
v 0.99065274 0.10998815 0.19001941
v 0.98118782 0.09812366 0.22520117
v 0.98283595 0.09584127 0.21000232
v 0.98481369 0.09346050 0.19001941
v 0.98660308 0.09165034 0.17003652
v 0.98674434 0.08834480 0.14937623
v 0.97930425 0.08057287 0.15559971
v 0.99248922 0.09178806 0.12901230
v 0.99234796 0.08860059 0.11000314
v 0.98556709 0.07551620 0.00098626
v 0.99008769 0.07949071 0.00098626
v 0.99555004 0.08433095 0.00098626
v 0.93150866 0.04627801 0.17003652
v 0.92147863 0.03887992 0.17003652
v 0.90998882 0.03041934 0.17003652
v 0.89788687 0.02154556 0.17003652
v 0.88587910 0.01576089 0.19001941
v 0.80380249 -0.04273517 0.19001941
v 0.87189358 0.00576559 0.19001941
v 0.79320741 -0.05025132 0.18951137
v 0.96804988 0.07368635 0.17003652
v 0.95500618 0.06369106 0.17003652
v 0.95312262 0.06512740 0.19001941
v 0.94309258 0.05767028 0.19001941
v 0.92039555 0.03970630 0.18201779
v 0.74677742 -0.05025132 0.33083111
v 0.75172180 -0.04688676 0.33125448
v 0.76226979 -0.04151528 0.32541203
v 0.78604984 -0.02412190 0.32998437
v 0.83167934 0.01294725 0.35123739
v 0.84222734 0.01845647 0.34539491
v 0.87580204 0.04285442 0.34996730
v 0.89129436 0.05365642 0.35013664
v 0.89882869 0.06083808 0.35695285
v 0.91097772 0.07372571 0.36952680
v 0.92100775 0.07915622 0.36258361
v 0.93706518 0.08261915 0.32998437
v 0.93339217 0.08679041 0.34996730
v 0.94233918 0.09678571 0.34996730
v 0.89576787 0.08399646 0.42998356
v 0.89237744 0.08259948 0.43345517
v 0.89732182 0.08771518 0.43345517
v 0.94596505 0.09261444 0.32998437
v 0.95373476 0.08627885 0.28997624
v 0.96263462 0.09627414 0.28997624
v 0.97963387 0.10341644 0.23853722
v 0.97765613 0.11004718 0.24869801
v 0.98198831 0.11004718 0.23112831
v 0.97412443 0.08584598 0.21000232
v 0.96546000 0.09292926 0.26999336
v 0.95877331 0.08100574 0.25538722
v 0.97619635 0.08346521 0.19001941
v 0.97807992 0.08165504 0.17003652
v 0.89586204 0.02298190 0.19001941
v 0.89369595 0.02455596 0.21000232
v 0.88366592 0.01735463 0.21000232
v 0.80135387 -0.04096436 0.21000232
v 0.86054510 -0.00037324 0.20229705
v 0.86831480 0.00631652 0.20940961
v 0.88126439 0.01908609 0.22998521
v 0.78854561 -0.05025132 0.20809716
v 0.96621341 0.07512268 0.19001941
v 0.94883746 0.06538318 0.21186513
v 0.94139737 0.05892953 0.20640370
v 0.96414149 0.07669675 0.21000232
v 0.91902995 0.04070976 0.19535384
v 0.74823719 -0.05025132 0.32744420
v 0.76537764 -0.04360091 0.30995914
v 0.77536058 -0.03683244 0.30995914
v 0.75332284 -0.05025132 0.31525123
v 0.79871690 -0.01912425 0.31664833
v 0.79603279 -0.01731408 0.32998437
v 0.84528816 0.01633148 0.32998437
v 0.87853318 0.04098523 0.33616555
v 0.88861030 0.04637638 0.32968801
v 0.90132439 0.05900823 0.34361678
v 0.90881157 0.06636697 0.35013664
v 0.92336220 0.07732637 0.34996730
v 0.93923128 0.08059255 0.31783378
v 0.89477897 0.08496056 0.43345517
v 0.95670140 0.08293396 0.26999336
v 0.96046853 0.07956941 0.24205115
v 0.94375181 0.07705091 0.28997624
v 0.94671845 0.07480787 0.26999336
v 0.95123905 0.07398149 0.24920605
v 0.96188122 0.07844789 0.22998521
v 0.91742897 0.04189031 0.21000232
v 0.90504444 0.03628271 0.22998521
v 0.89124727 0.02628742 0.22998521
v 0.80003536 -0.04001992 0.22016311
v 0.86996293 0.01109773 0.22998521
v 0.87999296 0.01999118 0.24006134
v 0.78802758 -0.05025132 0.21000232
v 0.94996762 0.06939703 0.22998521
v 0.93989050 0.06003137 0.21969742
v 0.93193245 0.05286939 0.21186513
v 0.77818596 -0.03876067 0.29497197
v 0.75534767 -0.05025132 0.31021318
v 0.75953859 -0.05025132 0.29941732
v 0.79122967 -0.02599110 0.30995914
v 0.80121261 -0.02085572 0.30331230
v 0.83450472 0.00373899 0.30995914
v 0.85814357 0.02130945 0.31482786
v 0.87114018 0.03417741 0.32968801
v 0.88102895 0.03927343 0.32282948
v 0.90377307 0.05721774 0.32998437
v 0.91380304 0.06455680 0.32998437
v 0.92703515 0.07455209 0.32998437
v 0.93155575 0.07289933 0.31067887
v 0.94144446 0.07882173 0.30449772
v 0.93617046 0.06278598 0.24996811
v 0.91926539 0.06050359 0.29768151
v 0.92877746 0.06595378 0.29061130
v 0.93343925 0.06481259 0.26999336
v 0.91507447 0.04362178 0.22998521
v 0.91253161 0.04547130 0.24996811
v 0.90250164 0.03815191 0.24996811
v 0.79815179 -0.03874099 0.23349915
v 0.79090005 -0.04482081 0.22808006
v 0.78280067 -0.05025132 0.22901148
v 0.88799816 0.02731056 0.24802063
v 0.87815648 0.02130945 0.25339738
v 0.87085766 0.01513126 0.24802063
v 0.93866622 0.06093645 0.22998521
v 0.92868328 0.05359739 0.22998521
v 0.76325864 -0.05025132 0.28942588
v 0.76603693 -0.05025132 0.28180528
v 0.78054041 -0.04039376 0.28163594
v 0.78831017 -0.03325146 0.28896016
v 0.80356705 -0.02248881 0.28997624
v 0.86054510 0.01961734 0.30149183
v 0.88328922 0.03769937 0.30995914
v 0.89327216 0.04474330 0.30995914
v 0.90725768 0.05473859 0.30995914
v 0.91724056 0.06199895 0.30995914
v 0.92345637 0.05747352 0.26999336
v 0.92618752 0.05546659 0.24996811
v 0.92133737 0.05900823 0.28434548
v 0.89661551 0.04240188 0.28997624
v 0.91154277 0.05332193 0.29061130
v 0.90075934 0.03943084 0.26271144
v 0.79575026 -0.03704888 0.24996811
v 0.78576732 -0.04397475 0.24996811
v 0.77973992 -0.05025132 0.23955330
v 0.85432929 0.00391607 0.24996811
v 0.89129436 0.03409871 0.26961231
v 0.87566078 0.02306060 0.26999336
v 0.86567783 0.01601667 0.26999336
v 0.77013367 -0.05025132 0.26999336
v 0.78251815 -0.04175139 0.26999336
v 0.79254818 -0.03484520 0.26999336
v 0.84999710 0.00960237 0.28997624
v 0.86247575 0.01825971 0.28997624
v 0.87245870 0.02530364 0.28997624
v 0.89882869 0.04084750 0.27604750
v 0.77399498 -0.05025132 0.25822377
v 0.77634948 -0.05025132 0.25085717
v 0.84914947 0.00488019 0.27160215
f 1 2 3
f 1 3 4
f 1 4 11
f 1 11 16
f 1 16 26
f 1 26 41
f 1 41 69
f 1 69 106
f 1 106 139
f 1 139 180
f 1 180 236
f 1 236 235
f 1 235 239
f 1 239 238
f 1 238 302
f 1 302 355
f 1 355 354
f 1 354 353
f 1 353 317
f 1 317 316
f 1 316 250
f 1 250 249
f 1 249 191
f 1 191 145
f 1 145 112
f 1 112 77
f 1 77 70
f 1 70 42
f 1 42 27
f 1 27 17
f 1 17 12
f 1 12 5
f 1 5 13
f 1 13 18
f 1 18 28
f 1 28 44
f 1 44 49
f 1 49 46
f 1 46 72
f 1 72 109
f 1 109 142
f 1 142 185
f 1 185 245
f 1 245 308
f 1 308 307
f 1 307 363
f 1 363 404
f 1 404 436
f 1 436 463
f 1 463 487
f 1 487 500
f 1 500 499
f 1 499 492
f 1 492 470
f 1 470 469
f 1 469 442
f 1 442 441
f 1 441 413
f 1 413 410
f 1 410 369
f 1 369 321
f 1 321 260
f 1 260 259
f 1 259 258
f 1 258 201
f 1 201 153
f 1 153 118
f 1 118 83
f 1 83 55
f 1 55 33
f 1 33 21
f 1 21 14
f 1 14 6
f 1 6 2
f 2 6 3
f 3 6 14
f 3 14 22
f 3 22 35
f 3 35 58
f 3 58 88
f 3 88 125
f 3 125 123
f 3 123 158
f 3 158 211
f 3 211 275
f 3 275 274
f 3 274 332
f 3 332 334
f 3 334 333
f 3 333 384
f 3 384 423
f 3 423 385
f 3 385 335
f 3 335 276
f 3 276 212
f 3 212 160
f 3 160 126
f 3 126 89
f 3 89 59
f 3 59 36
f 3 36 23
f 3 23 15
f 3 15 10
f 3 10 9
f 3 9 8
f 3 8 7
f 3 7 4
f 4 7 8
f 4 8 9
f 4 9 10
f 4 10 11
f 5 12 13
f 10 15 16
f 10 16 11
f 12 17 13
f 13 17 19
f 13 19 20
f 13 20 18
f 14 21 22
f 15 23 24
f 15 24 16
f 16 25 26
f 16 24 25
f 17 27 19
f 18 20 28
f 19 29 20
f 19 27 29
f 20 30 31
f 20 31 28
f 20 29 32
f 20 32 30
f 21 33 34
f 21 34 22
f 22 34 35
f 23 36 37
f 23 37 38
f 23 38 24
f 24 38 39
f 24 39 40
f 24 40 25
f 25 40 41
f 25 41 26
f 27 42 43
f 27 43 29
f 28 31 44
f 29 43 32
f 30 45 46
f 30 46 31
f 30 32 47
f 30 47 48
f 30 48 45
f 31 46 49
f 31 49 44
f 32 43 50
f 32 50 51
f 32 51 52
f 32 52 53
f 32 53 54
f 32 54 47
f 33 55 56
f 33 56 35
f 33 35 34
f 35 56 57
f 35 57 58
f 36 59 60
f 36 60 61
f 36 61 37
f 37 61 62
f 37 62 38
f 38 62 63
f 38 63 39
f 39 63 64
f 39 64 65
f 39 65 66
f 39 66 40
f 40 66 67
f 40 67 68
f 40 68 41
f 41 68 69
f 42 50 43
f 42 70 50
f 45 71 46
f 45 48 71
f 46 71 72
f 47 54 48
f 48 54 53
f 48 53 73
f 48 73 74
f 48 74 75
f 48 75 76
f 48 76 71
f 50 70 51
f 51 70 77
f 51 77 78
f 51 78 79
f 51 79 80
f 51 80 52
f 52 80 53
f 53 80 79
f 53 79 81
f 53 81 82
f 53 82 73
f 55 83 57
f 55 57 56
f 57 84 85
f 57 85 86
f 57 86 58
f 57 83 87
f 57 87 84
f 58 86 88
f 59 89 90
f 59 90 61
f 59 61 60
f 61 90 91
f 61 91 92
f 61 92 93
f 61 93 62
f 62 93 92
f 62 92 94
f 62 94 63
f 63 94 95
f 63 95 64
f 64 95 96
f 64 96 97
f 64 97 98
f 64 98 65
f 65 98 99
f 65 99 100
f 65 100 101
f 65 101 66
f 66 101 102
f 66 102 67
f 67 102 103
f 67 103 104
f 67 104 105
f 67 105 68
f 68 105 69
f 69 105 106
f 71 76 72
f 72 76 107
f 72 107 108
f 72 108 109
f 73 82 74
f 74 82 110
f 74 110 111
f 74 111 75
f 75 111 76
f 76 111 107
f 77 112 113
f 77 113 78
f 78 113 79
f 79 113 114
f 79 114 115
f 79 115 81
f 81 115 116
f 81 116 82
f 82 116 117
f 82 117 110
f 83 118 119
f 83 119 87
f 84 87 119
f 84 119 120
f 84 120 121
f 84 121 85
f 85 121 122
f 85 122 123
f 85 123 124
f 85 124 86
f 86 124 88
f 88 124 125
f 89 126 127
f 89 127 90
f 90 127 91
f 91 127 128
f 91 128 92
f 92 128 129
f 92 129 130
f 92 130 94
f 94 130 95
f 95 130 131
f 95 131 96
f 96 131 132
f 96 132 133
f 96 133 97
f 97 133 134
f 97 134 98
f 98 134 99
f 99 134 135
f 99 135 100
f 100 135 136
f 100 136 101
f 101 136 102
f 102 136 103
f 103 136 104
f 104 136 137
f 104 137 138
f 104 138 105
f 105 138 139
f 105 139 106
f 107 140 108
f 107 111 141
f 107 141 140
f 108 140 142
f 108 142 109
f 110 117 143
f 110 143 111
f 111 143 144
f 111 144 141
f 112 145 146
f 112 146 113
f 113 146 147
f 113 147 114
f 114 147 148
f 114 148 115
f 115 148 116
f 116 148 149
f 116 149 150
f 116 150 151
f 116 151 117
f 117 151 152
f 117 152 143
f 118 153 120
f 118 120 119
f 120 154 121
f 120 153 154
f 121 154 155
f 121 155 156
f 121 156 157
f 121 157 122
f 122 158 123
f 122 157 159
f 122 159 158
f 123 125 124
f 126 160 161
f 126 161 127
f 127 162 163
f 127 163 164
f 127 164 128
f 127 161 162
f 128 164 165
f 128 165 166
f 128 166 167
f 128 167 168
f 128 168 129
f 129 168 130
f 130 168 169
f 130 169 131
f 131 169 170
f 131 170 132
f 132 170 171
f 132 171 172
f 132 172 133
f 133 172 173
f 133 173 135
f 133 135 134
f 135 173 174
f 135 174 175
f 135 175 176
f 135 176 136
f 136 176 137
f 137 176 175
f 137 175 177
f 137 177 178
f 137 178 179
f 137 179 138
f 138 180 139
f 138 179 180
f 140 181 142
f 140 141 182
f 140 182 181
f 141 144 183
f 141 183 184
f 141 184 182
f 142 181 185
f 143 152 186
f 143 186 187
f 143 187 188
f 143 188 189
f 143 189 190
f 143 190 183
f 143 183 144
f 145 191 192
f 145 192 146
f 146 192 193
f 146 193 147
f 147 193 194
f 147 194 148
f 148 194 195
f 148 195 196
f 148 196 149
f 149 196 150
f 150 196 197
f 150 197 152
f 150 152 151
f 152 197 198
f 152 198 199
f 152 199 187
f 152 187 200
f 152 200 186
f 153 201 154
f 154 202 203
f 154 203 155
f 154 201 202
f 155 203 204
f 155 204 205
f 155 205 156
f 156 206 207
f 156 207 157
f 156 205 206
f 157 207 208
f 157 208 209
f 157 209 210
f 157 210 159
f 158 159 211
f 159 210 211
f 160 212 162
f 160 162 161
f 162 212 213
f 162 213 214
f 162 214 215
f 162 215 216
f 162 216 163
f 163 216 217
f 163 217 164
f 164 217 216
f 164 216 165
f 165 218 166
f 165 216 218
f 166 218 167
f 167 218 219
f 167 219 168
f 168 219 220
f 168 220 221
f 168 221 222
f 168 222 170
f 168 170 169
f 170 222 223
f 170 223 224
f 170 224 225
f 170 225 226
f 170 226 171
f 171 226 227
f 171 227 228
f 171 228 229
f 171 229 172
f 172 229 174
f 172 174 173
f 174 229 177
f 174 177 175
f 177 229 230
f 177 230 231
f 177 231 232
f 177 232 178
f 178 232 233
f 178 233 234
f 178 234 179
f 179 235 236
f 179 236 180
f 179 234 237
f 179 237 238
f 179 238 239
f 179 239 235
f 181 182 240
f 181 240 241
f 181 241 242
f 181 242 185
f 182 184 243
f 182 243 244
f 182 244 240
f 183 190 243
f 183 243 184
f 185 242 245
f 186 200 187
f 187 199 246
f 187 246 247
f 187 247 188
f 188 247 311
f 188 311 248
f 188 248 189
f 189 248 190
f 190 248 243
f 191 249 192
f 192 249 250
f 192 250 251
f 192 251 252
f 192 252 193
f 193 252 253
f 193 253 194
f 194 253 195
f 195 253 254
f 195 254 197
f 195 197 196
f 197 254 198
f 198 254 255
f 198 255 256
f 198 256 199
f 199 256 257
f 199 257 246
f 201 258 202
f 202 259 260
f 202 260 261
f 202 261 262
f 202 262 204
f 202 204 203
f 202 258 259
f 204 263 205
f 204 262 263
f 205 263 264
f 205 264 206
f 206 265 266
f 206 266 267
f 206 267 268
f 206 268 269
f 206 269 270
f 206 270 271
f 206 271 272
f 206 272 208
f 206 208 207
f 206 264 265
f 208 272 209
f 209 272 273
f 209 273 274
f 209 274 275
f 209 275 210
f 210 275 211
f 212 276 213
f 213 276 277
f 213 277 214
f 214 277 215
f 215 277 278
f 215 278 216
f 216 278 279
f 216 279 280
f 216 280 281
f 216 281 282
f 216 282 218
f 218 282 283
f 218 283 284
f 218 284 285
f 218 285 286
f 218 286 219
f 219 286 220
f 220 286 287
f 220 287 221
f 221 287 286
f 221 286 222
f 222 286 288
f 222 288 223
f 223 288 224
f 224 288 286
f 224 286 228
f 224 228 225
f 225 228 226
f 226 228 227
f 228 289 290
f 228 290 291
f 228 291 292
f 228 292 230
f 228 230 229
f 228 286 293
f 228 293 294
f 228 294 289
f 230 292 295
f 230 295 296
f 230 296 231
f 231 296 297
f 231 297 298
f 231 298 232
f 232 298 299
f 232 299 233
f 233 299 300
f 233 300 234
f 234 300 301
f 234 301 237
f 237 301 238
f 238 301 302
f 240 244 303
f 240 303 304
f 240 304 305
f 240 305 242
f 240 242 241
f 242 306 307
f 242 307 308
f 242 308 245
f 242 305 306
f 243 248 309
f 243 309 310
f 243 310 303
f 243 303 244
f 246 311 247
f 246 257 312
f 246 312 313
f 246 313 314
f 246 314 311
f 248 311 365
f 248 365 315
f 248 315 309
f 250 316 251
f 251 316 317
f 251 317 318
f 251 318 319
f 251 319 252
f 252 319 320
f 252 320 253
f 253 320 255
f 253 255 254
f 255 320 299
f 255 299 298
f 255 298 256
f 256 298 257
f 257 298 297
f 257 297 312
f 260 321 322
f 260 322 261
f 261 322 262
f 262 322 263
f 263 322 323
f 263 323 324
f 263 324 264
f 264 324 266
f 264 266 265
f 266 324 267
f 267 324 268
f 268 325 326
f 268 326 327
f 268 327 269
f 268 324 325
f 269 327 328
f 269 328 270
f 270 328 329
f 270 329 330
f 270 330 271
f 271 331 272
f 271 330 331
f 272 331 273
f 273 332 274
f 273 331 333
f 273 333 334
f 273 334 332
f 276 335 277
f 277 336 337
f 277 337 278
f 277 335 338
f 277 338 330
f 277 330 339
f 277 339 336
f 278 337 279
f 279 337 280
f 280 337 281
f 281 337 282
f 282 337 283
f 283 337 340
f 283 340 284
f 284 340 285
f 285 340 341
f 285 341 286
f 286 342 343
f 286 343 344
f 286 344 293
f 286 341 342
f 289 294 295
f 289 295 290
f 290 295 291
f 291 295 292
f 293 344 295
f 293 295 294
f 295 344 345
f 295 345 346
f 295 346 347
f 295 347 348
f 295 348 349
f 295 349 350
f 295 350 351
f 295 351 352
f 295 352 296
f 296 352 297
f 297 352 313
f 297 313 312
f 299 320 300
f 300 320 319
f 300 319 301
f 301 319 318
f 301 318 353
f 301 353 354
f 301 354 355
f 301 355 302
f 303 310 315
f 303 315 356
f 303 356 357
f 303 357 358
f 303 358 359
f 303 359 304
f 304 360 305
f 304 359 360
f 305 360 306
f 306 361 307
f 306 360 362
f 306 362 361
f 307 361 363
f 309 315 310
f 311 314 364
f 311 364 365
f 313 350 314
f 313 352 350
f 314 350 364
f 315 365 366
f 315 366 367
f 315 367 368
f 315 368 356
f 317 353 318
f 321 369 322
f 322 369 370
f 322 370 371
f 322 371 372
f 322 372 324
f 322 324 323
f 324 373 374
f 324 374 326
f 324 326 325
f 324 372 373
f 326 374 375
f 326 375 376
f 326 376 377
f 326 377 327
f 327 377 378
f 327 378 328
f 328 378 379
f 328 379 329
f 329 336 339
f 329 339 330
f 329 379 380
f 329 380 381
f 329 381 382
f 329 382 336
f 330 338 383
f 330 383 384
f 330 384 333
f 330 333 331
f 335 385 383
f 335 383 338
f 336 382 337
f 337 382 340
f 340 382 386
f 340 386 380
f 340 380 387
f 340 387 388
f 340 388 345
f 340 345 389
f 340 389 341
f 341 389 390
f 341 390 342
f 342 390 389
f 342 389 391
f 342 391 343
f 343 391 389
f 343 389 344
f 344 389 345
f 345 392 346
f 345 388 393
f 345 393 394
f 345 394 392
f 346 392 395
f 346 395 347
f 347 395 396
f 347 396 348
f 348 396 350
f 348 350 349
f 350 396 364
f 350 352 351
f 356 368 357
f 357 368 358
f 358 368 359
f 359 368 397
f 359 397 360
f 360 397 398
f 360 398 399
f 360 399 362
f 361 400 363
f 361 362 401
f 361 401 402
f 361 402 403
f 361 403 400
f 362 399 401
f 363 400 404
f 364 405 365
f 364 396 405
f 365 405 366
f 366 406 407
f 366 407 367
f 366 405 408
f 366 408 406
f 367 407 409
f 367 409 368
f 368 409 397
f 369 410 370
f 370 410 371
f 371 411 412
f 371 412 372
f 371 410 413
f 371 413 411
f 372 412 414
f 372 414 415
f 372 415 374
f 372 374 373
f 374 416 375
f 374 415 416
f 375 417 376
f 375 416 417
f 376 417 418
f 376 418 419
f 376 419 377
f 377 419 420
f 377 420 379
f 377 379 378
f 379 421 422
f 379 422 380
f 379 420 421
f 380 422 387
f 380 386 382
f 380 382 381
f 383 385 423
f 383 423 384
f 387 424 388
f 387 422 424
f 388 424 393
f 392 394 425
f 392 425 395
f 393 424 394
f 394 424 426
f 394 426 427
f 394 427 428
f 394 428 425
f 395 425 429
f 395 429 408
f 395 408 396
f 396 408 405
f 397 409 398
f 398 409 430
f 398 430 431
f 398 431 432
f 398 432 403
f 398 403 399
f 399 403 402
f 399 402 401
f 400 433 404
f 400 403 434
f 400 434 435
f 400 435 433
f 403 432 435
f 403 435 434
f 404 433 436
f 406 408 429
f 406 429 437
f 406 437 438
f 406 438 407
f 407 438 439
f 407 439 430
f 407 430 409
f 411 440 412
f 411 413 441
f 411 441 442
f 411 442 440
f 412 440 443
f 412 443 414
f 414 443 444
f 414 444 445
f 414 445 416
f 414 416 415
f 416 445 446
f 416 446 447
f 416 447 417
f 417 447 446
f 417 446 448
f 417 448 418
f 418 448 449
f 418 449 419
f 419 449 450
f 419 450 420
f 420 450 451
f 420 451 421
f 421 451 422
f 422 451 452
f 422 452 453
f 422 453 424
f 424 453 426
f 425 428 454
f 425 454 437
f 425 437 429
f 426 453 455
f 426 455 456
f 426 456 457
f 426 457 427
f 427 457 454
f 427 454 428
f 430 439 438
f 430 438 458
f 430 458 431
f 431 458 459
f 431 459 460
f 431 460 435
f 431 435 432
f 433 461 462
f 433 462 463
f 433 463 436
f 433 435 461
f 435 460 464
f 435 464 465
f 435 465 466
f 435 466 461
f 437 454 467
f 437 467 438
f 438 467 468
f 438 468 458
f 440 442 469
f 440 469 470
f 440 470 471
f 440 471 472
f 440 472 444
f 440 444 443
f 444 472 473
f 444 473 474
f 444 474 445
f 445 474 446
f 446 474 448
f 448 475 476
f 448 476 449
f 448 474 475
f 449 477 478
f 449 478 450
f 449 476 477
f 450 478 452
f 450 452 451
f 452 478 455
f 452 455 453
f 454 457 479
f 454 479 480
f 454 480 468
f 454 468 467
f 455 481 456
f 455 478 477
f 455 477 482
f 455 482 483
f 455 483 481
f 456 481 457
f 457 481 479
f 458 468 480
f 458 480 459
f 459 484 460
f 459 480 479
f 459 479 484
f 460 484 464
f 461 485 486
f 461 486 487
f 461 487 463
f 461 463 462
f 461 466 465
f 461 465 488
f 461 488 485
f 464 484 465
f 465 484 489
f 465 489 490
f 465 490 491
f 465 491 488
f 470 492 471
f 471 492 493
f 471 493 494
f 471 494 474
f 471 474 473
f 471 473 472
f 474 495 496
f 474 496 497
f 474 497 476
f 474 476 475
f 474 494 495
f 476 497 482
f 476 482 477
f 479 481 498
f 479 498 484
f 481 483 498
f 482 498 483
f 482 497 490
f 482 490 498
f 484 498 489
f 485 494 486
f 485 488 491
f 485 491 494
f 486 499 500
f 486 500 487
f 486 494 499
f 489 498 490
f 490 497 496
f 490 496 491
f 491 496 501
f 491 501 494
f 492 499 493
f 493 499 494
f 494 501 496
f 494 496 495
