v -0.00017273 -0.05001637 -0.61637783
v -0.33713391 -0.05001637 -0.51747000
v -0.00017273 -0.05001637 -0.82560593
v -0.00017273 0.14490390 -0.95200956
v -0.33713391 -0.05001637 -0.75327897
v -0.33713391 0.14311111 -0.88608706
v -0.01000187 -0.05001637 -0.82560593
v -0.00017273 -0.04331809 -0.83461064
v -0.00017273 0.15071565 -0.96997088
v -0.33713391 0.14929718 -0.90284455
v -0.33713391 0.14478569 -0.88965040
v -0.33713391 -0.04976027 -0.75366420
v -0.33047122 -0.05001637 -0.75621635
v -0.03002296 -0.05001637 -0.82512438
v -0.03002296 -0.04692334 -0.82931376
v -0.01000187 -0.03965373 -0.83952236
v -0.00017273 -0.03965373 -0.83952236
v -0.00017273 0.14691338 -0.98995471
v -0.09002025 0.15120816 -0.96997088
v -0.33713391 0.15061714 -0.90997130
v -0.32997644 0.15045953 -0.90997130
v -0.33713391 -0.04879493 -0.75510883
v -0.33713391 -0.04611561 -0.75900924
v -0.32997644 -0.04379091 -0.76546186
v -0.32031223 -0.05001637 -0.76055020
v -0.04338135 -0.05001637 -0.82454652
v -0.05001107 -0.04660813 -0.82888037
v -0.05001107 -0.03916121 -0.83889633
v -0.03002296 -0.03947642 -0.83928156
v -0.03002296 0.01357799 -0.90833408
v -0.01000187 0.01342038 -0.90852666
v -0.00017273 0.00343205 -0.89552516
v -0.00017273 0.14110163 -1.00103009
v -0.01000187 0.14691338 -0.98995471
v -0.11000836 0.15118846 -0.96997088
v -0.20998186 0.15114906 -0.94998705
v -0.28996727 0.15097176 -0.92995512
v -0.30998835 0.15014431 -0.92995512
v -0.33713391 0.14892286 -0.92282832
v -0.33713391 -0.04270736 -0.76392096
v -0.33713391 -0.03220680 -0.77899307
v -0.33713391 -0.01877082 -0.79825455
v -0.32997644 -0.03683650 -0.77542973
v -0.31605732 -0.03886569 -0.77836710
v -0.30962551 -0.04582009 -0.77099955
v -0.30975747 -0.05001637 -0.76488400
v -0.05001107 -0.05001637 -0.82425761
v -0.06257784 -0.05001637 -0.82348716
v -0.07003215 -0.04613531 -0.82825434
v -0.07003215 -0.03870808 -0.83827037
v -0.07003215 0.00431858 -0.89432132
v -0.05001107 0.01387350 -0.90794885
v -0.03002296 0.02130072 -0.91830188
v -0.00017273 0.00851487 -0.90212226
v -0.01000187 0.02114311 -0.91849452
v -0.00017273 0.02114311 -0.91849452
v -0.00017273 0.12999034 -1.00618255
v -0.01000187 0.14110163 -1.00103009
v -0.03002296 0.14673607 -0.98995471
v -0.13002944 0.15087324 -0.96997088
v -0.22996996 0.15095206 -0.94998705
v -0.32997644 0.14781961 -0.92995512
v -0.24999106 0.14980941 -0.94998705
v -0.26997915 0.14778021 -0.94998705
v -0.33713391 0.14651936 -0.93019587
v -0.33713391 -0.00176898 -0.82252407
v -0.30273193 -0.04077668 -0.78106368
v -0.32997644 -0.00281313 -0.82401681
v -0.30494183 -0.05001637 -0.76685834
v -0.07003215 -0.05001637 -0.82300562
v -0.08147749 -0.05001637 -0.82199436
v -0.09002025 -0.04546548 -0.82738757
v -0.09002025 -0.03803825 -0.83735543
v -0.08629310 -0.02048479 -0.86061370
v -0.09002025 0.00494901 -0.89345455
v -0.09002025 0.01495705 -0.90650421
v -0.07003215 0.01432662 -0.90732282
v -0.07003215 0.02204935 -0.91733885
v -0.05001107 0.02159623 -0.91791666
v -0.03002296 0.03911030 -0.94112676
v -0.01000187 0.03895269 -0.94131941
v -0.00017273 0.03895269 -0.94131941
v -0.00017273 0.12015962 -1.00772345
v -0.01000187 0.10999398 -1.00936067
v -0.01000187 0.12999034 -1.00618255
v -0.03002296 0.14094402 -1.00083745
v -0.05001107 0.14630266 -0.98995471
v -0.09002025 0.14549491 -0.98879898
v -0.11000836 0.14523882 -0.98759514
v -0.15001754 0.15018372 -0.96997088
v -0.30998835 0.14421436 -0.94570136
v -0.16997267 0.14900166 -0.96997088
v -0.18999375 0.14736649 -0.96997088
v -0.22996996 0.14498270 -0.96703351
v -0.24999106 0.14384004 -0.96462584
v -0.33713391 0.14295352 -0.93790048
v -0.33713391 0.00884978 -0.83749986
v -0.32997644 0.00422008 -0.83398467
v -0.28996727 -0.03541804 -0.79348737
v -0.28996727 -0.04245125 -0.78347135
v -0.29260594 -0.05001637 -0.77167368
v -0.30998835 -0.01563838 -0.81380826
v -0.30998835 -0.00565005 -0.82796544
v -0.29989535 0.00002380 -0.83995575
v -0.09002025 -0.05001637 -0.82117575
v -0.10001431 -0.05001637 -0.82002008
v -0.11000836 -0.04459864 -0.82623190
v -0.11000836 -0.03717142 -0.83619976
v -0.11000836 -0.02716339 -0.84934568
v -0.09961850 -0.01995287 -0.85993952
v -0.11000836 0.01576478 -0.90549302
v -0.09002025 0.02267978 -0.91652024
v -0.07817912 0.04011504 -0.93982661
v -0.06485372 0.03974072 -0.94030815
v -0.05001107 0.03942551 -0.94074154
v -0.03002296 0.04703004 -0.95109463
v -0.01000187 0.05684106 -0.96390349
v -0.01000187 0.04687243 -0.95133537
v -0.00017273 0.04297166 -0.94642371
v -0.00017273 0.10999398 -1.00931251
v -0.00017273 0.10215303 -1.00680852
v -0.01000187 0.09403628 -1.00416005
v -0.03002296 0.09425299 -1.00396740
v -0.03002296 0.10999398 -1.00897539
v -0.03002296 0.12999034 -1.00584543
v -0.05001107 0.14056970 -1.00050032
v -0.06973530 0.14464778 -0.99173635
v -0.06287470 0.14021508 -1.00016332
v -0.13002944 0.14480539 -0.98629498
v -0.32997644 0.14206697 -0.94237876
v -0.26997915 0.14198816 -0.96212184
v -0.28188628 0.14056970 -0.96053272
v -0.15001754 0.14409617 -0.98485041
v -0.16997267 0.14303231 -0.98326135
v -0.18999375 0.14153504 -0.98152781
v -0.20216474 0.14045149 -0.98042023
v -0.33713391 0.14106223 -0.94117492
v -0.33713391 0.01529196 -0.84645647
v -0.32997644 0.01422811 -0.84790111
v -0.30998835 0.00142256 -0.83798140
v -0.28996727 -0.02541000 -0.80764455
v -0.27901667 -0.01975586 -0.81963485
v -0.26997915 -0.03795945 -0.79709888
v -0.26997915 -0.04501236 -0.78708291
v -0.26997915 -0.05001637 -0.77995616
v -0.27792823 -0.05001637 -0.77706695
v -0.28937355 -0.05001637 -0.77287757
v -0.31183544 0.01208072 -0.85194600
v -0.30642611 0.01824709 -0.86234725
v -0.29194629 0.00487021 -0.84934568
v -0.28656995 -0.00167048 -0.84226710
v -0.11000836 -0.05001637 -0.81881624
v -0.13002944 -0.04353479 -0.82478732
v -0.13002944 -0.03614698 -0.83480328
v -0.13002944 -0.02613894 -0.84804559
v -0.13002944 0.00674179 -0.89114320
v -0.13002944 0.01674983 -0.90419281
v -0.13002944 0.02449226 -0.91420883
v -0.11000836 0.02350722 -0.91546082
v -0.11000836 0.03349555 -0.92831790
v -0.11000836 0.04131679 -0.93833387
v -0.09002025 0.04050906 -0.93934512
v -0.09002025 0.04896072 -0.94998705
v -0.09002025 0.05843683 -0.96188104
v -0.07003215 0.05782611 -0.96265149
v -0.05001107 0.05733359 -0.96327752
v -0.03002296 0.05701837 -0.96366274
v -0.01000187 0.06493812 -0.97391951
v -0.00017273 0.05684106 -0.96390349
v -0.00017273 0.09403628 -1.00416005
v -0.01000187 0.08402824 -0.99592578
v -0.05001107 0.09474552 -1.00358224
v -0.03002296 0.08426466 -0.99568498
v -0.05001107 0.10999398 -1.00820494
v -0.05001107 0.12999034 -1.00512314
v -0.06973530 0.13164522 -1.00329328
v -0.07620010 0.13940735 -0.99958545
v -0.21549013 0.13792980 -0.97883117
v -0.22996996 0.13385171 -0.97704947
v -0.24840784 0.12831578 -0.97478628
v -0.26997915 0.12999034 -0.96842992
v -0.28914267 0.13006914 -0.96303672
v -0.29524463 0.13680685 -0.95822138
v -0.09002025 0.13800859 -0.99881494
v -0.11000836 0.13542777 -0.99756300
v -0.13002944 0.13203923 -0.99626285
v -0.16997267 0.12999034 -0.99077332
v -0.18999375 0.12999034 -0.98716176
v -0.20928921 0.13075867 -0.98311687
v -0.33713391 0.13662952 -0.94363075
v -0.33713391 0.02262068 -0.85642433
v -0.32997644 0.02155683 -0.85786891
v -0.31975150 0.02007927 -0.85989141
v -0.26569128 -0.02141073 -0.82199436
v -0.27139747 -0.02722248 -0.81178576
v -0.25777519 -0.03947642 -0.79921764
v -0.25045282 -0.05001637 -0.78674585
v -0.31183544 0.02500448 -0.86937767
v -0.30998835 0.03621427 -0.88497949
v -0.28996727 0.02354662 -0.87525243
v -0.28996727 0.01608000 -0.86523646
v -0.26997915 0.00358965 -0.85507601
v -0.26997915 -0.00371936 -0.84510815
v -0.11828727 -0.05001637 -0.81761241
v -0.13002944 -0.05001637 -0.81587887
v -0.13623038 -0.05001637 -0.81481946
v -0.15001754 -0.04225424 -0.82310194
v -0.15001754 -0.03488612 -0.83306974
v -0.15001754 -0.02489778 -0.84645647
v -0.14177163 -0.00021261 -0.88026041
v -0.15001754 0.01793187 -0.90265191
v -0.15001754 0.02567431 -0.91266787
v -0.15001754 0.03568235 -0.92557311
v -0.13002944 0.03450029 -0.92706585
v -0.13002944 0.04230183 -0.93708187
v -0.11000836 0.05057620 -0.94998705
v -0.12181652 0.05979620 -0.96019566
v -0.11000836 0.05924457 -0.96086979
v -0.09002025 0.06669150 -0.97189701
v -0.07003215 0.06600197 -0.97266746
v -0.05001107 0.06547004 -0.97324532
v -0.03002296 0.06511542 -0.97367871
v -0.00017273 0.07002094 -0.97998685
v -0.00017273 0.06493812 -0.97387135
v -0.03002296 0.07512346 -0.98571718
v -0.01000187 0.07492645 -0.98590976
v -0.00017273 0.07494615 -0.98590976
v -0.00017273 0.08404794 -0.99592578
v -0.00017273 0.07957585 -0.99101406
v -0.07003215 0.09553355 -1.00300431
v -0.05001107 0.08475718 -0.99525160
v -0.05001107 0.07547808 -0.98528373
v -0.07003215 0.10999398 -1.00695300
v -0.09002025 0.12800056 -1.00305247
v -0.09002025 0.09665649 -1.00213754
v -0.22996996 0.12384368 -0.98138332
v -0.24072264 0.12053394 -0.98017949
v -0.30385339 0.12346936 -0.96125507
v -0.11000836 0.12543944 -1.00199318
v -0.13002944 0.12203120 -1.00069296
v -0.14015543 0.12006111 -1.00001884
v -0.14810450 0.12802026 -0.99525160
v -0.32997644 0.12999034 -0.94907212
v -0.33713391 0.12965542 -0.94661629
v -0.33713391 0.03838136 -0.87770826
v -0.32562262 0.03838136 -0.88213843
v -0.24999106 -0.02328231 -0.82454652
v -0.25065073 -0.03431480 -0.80884838
v -0.24999106 -0.01607180 -0.83456254
v -0.24441680 -0.04103278 -0.80143273
v -0.24656075 -0.05001637 -0.78799784
v -0.30998835 0.04379910 -0.89499545
v -0.28815317 0.03479581 -0.89070976
v -0.27380526 0.02151743 -0.87794906
v -0.29986235 0.06001290 -0.91993910
v -0.26826400 0.01479944 -0.87077415
v -0.24999106 0.00126495 -0.85825413
v -0.24999106 -0.00608347 -0.84823817
v -0.14902803 -0.05001637 -0.81255627
v -0.15427244 -0.05001637 -0.81154501
v -0.16997267 -0.04081608 -0.82112759
v -0.16997267 -0.03348736 -0.83109546
v -0.16997267 -0.02347932 -0.84462667
v -0.16997267 -0.00592586 -0.86783677
v -0.16997267 0.00163927 -0.87780458
v -0.15509704 0.00063452 -0.87915289
v -0.14906102 -0.00596526 -0.87149644
v -0.14906102 0.00672209 -0.88815767
v -0.16997267 0.01089867 -0.88998747
v -0.16997267 0.01927153 -0.90091836
v -0.16997267 0.02701397 -0.91093439
v -0.16997267 0.04480384 -0.93385553
v -0.15001754 0.04346418 -0.93554091
v -0.16997267 0.03702201 -0.92383957
v -0.15001754 0.05345252 -0.94820535
v -0.13514191 0.06052513 -0.95932889
v -0.12910590 0.05370863 -0.95157611
v -0.12910590 0.06718402 -0.96814102
v -0.11000836 0.06753863 -0.97088581
v -0.09002025 0.07667983 -0.98379099
v -0.07003215 0.07601000 -0.98465776
v -0.07003215 0.08552551 -0.99462557
v -0.09002025 0.08664846 -0.99380696
v -0.09002025 0.10999398 -1.00521946
v -0.11000836 0.09819316 -1.00107825
v -0.12270707 0.09937522 -1.00035596
v -0.11000836 0.08820483 -0.99279577
v -0.28996727 0.10999398 -0.96592593
v -0.18999375 0.10999398 -0.99033993
v -0.20998186 0.10999398 -0.98634315
v -0.24072264 0.11779551 -0.98017949
v -0.30448008 0.10999398 -0.96144766
v -0.31447411 0.10999398 -0.95807689
v -0.32997644 0.10999398 -0.95244288
v -0.33713391 0.10999398 -0.94974631
v -0.33713391 0.11724389 -0.94868690
v -0.14015543 0.11972620 -1.00001884
v -0.33713391 0.04003624 -0.87992334
v -0.33713391 0.05120662 -0.89475471
v -0.33713391 0.05757000 -0.90318161
v -0.32997644 0.05654555 -0.90452993
v -0.22996996 -0.02548881 -0.82758021
v -0.22996996 -0.03547715 -0.81366378
v -0.22996996 -0.01821920 -0.83754802
v -0.22996996 -0.04260886 -0.80364782
v -0.22964013 -0.05001637 -0.79334289
v -0.23369712 -0.05001637 -0.79209089
v -0.30998835 0.05376773 -0.90814143
v -0.28023708 0.03993773 -0.90005159
v -0.26047987 0.01990196 -0.88011599
v -0.26826400 0.02786111 -0.88806134
v -0.30998835 0.06139196 -0.91815746
v -0.31094486 0.07226683 -0.93159235
v -0.30494183 0.07859081 -0.94165647
v -0.29191330 0.06531243 -0.92923278
v -0.28653696 0.05835803 -0.92210603
v -0.24999106 0.00999243 -0.86995554
v -0.23946926 0.00012230 -0.85984325
v -0.16825752 -0.05001637 -0.80875212
v -0.18026358 -0.04004774 -0.82002008
v -0.18999375 -0.02190325 -0.84255600
v -0.18999375 -0.01441693 -0.85252386
v -0.18999375 0.00311683 -0.87583029
v -0.18013164 0.01998076 -0.90000343
v -0.18999375 0.03849957 -0.92191344
v -0.18999375 0.04630111 -0.93192941
v -0.18999375 0.05628944 -0.94464201
v -0.16997267 0.05479218 -0.94651997
v -0.15001754 0.06145107 -0.95817322
v -0.15044634 0.07281846 -0.97170442
v -0.14408049 0.07943795 -0.98056471
v -0.13002944 0.07859081 -0.98157597
v -0.11000836 0.07754666 -0.98277974
v -0.11000836 0.10999398 -1.00310063
v -0.16997267 0.09141607 -0.98653579
v -0.18999375 0.09336645 -0.98470592
v -0.20998186 0.09588816 -0.98273164
v -0.22495645 0.09819316 -0.98109436
v -0.16997267 0.10999398 -0.99404776
v -0.13603248 0.10638872 -0.99939281
v -0.12963364 0.11182615 -1.00078928
v -0.15740590 0.08036388 -0.97955346
v -0.16997267 0.08142774 -0.97849411
v -0.30210525 0.09888269 -0.96067721
v -0.26997915 0.10999398 -0.97170442
v -0.23095948 0.11066380 -0.98176855
v -0.23831484 0.10445803 -0.97955346
v -0.24840784 0.11066380 -0.97753102
v -0.33713391 0.09427269 -0.94440126
v -0.14810450 0.11182615 -0.99799633
v -0.33713391 0.06483962 -0.91261977
v -0.32997644 0.06418949 -0.91449773
v -0.20998186 -0.03746693 -0.81645668
v -0.21727125 -0.01949975 -0.83928156
v -0.20998186 -0.05001637 -0.79892874
v -0.21763408 -0.05001637 -0.79676181
v -0.26997915 0.03869658 -0.90168881
v -0.24999106 0.02638354 -0.89167285
v -0.24999106 0.01873961 -0.88165689
v -0.26997915 0.05634854 -0.92465818
v -0.32997644 0.07417782 -0.92721033
v -0.31826723 0.08052149 -0.93939322
v -0.28996727 0.07662073 -0.94406414
v -0.26997915 0.08278710 -0.95706570
v -0.26997915 0.06416979 -0.93467414
v -0.22611088 -0.00121736 -0.86162490
v -0.22996996 0.01663162 -0.88440168
v -0.18131906 -0.05001637 -0.80591100
v -0.19358897 -0.03892479 -0.81847918
v -0.18814668 -0.03289633 -0.82801360
v -0.18893827 -0.05001637 -0.80417746
v -0.20394585 -0.02072120 -0.84096694
v -0.20998186 0.00477171 -0.87361521
v -0.20998186 0.01477974 -0.88685751
v -0.19345704 0.02102491 -0.89865518
v -0.18808070 0.01448423 -0.89119136
v -0.18808070 0.02740799 -0.90799701
v -0.20282441 0.03952401 -0.92061329
v -0.20998186 0.05796402 -0.94252324
v -0.20998186 0.06602167 -0.95253921
v -0.18999375 0.06432739 -0.95460981
v -0.16997267 0.06281042 -0.95648783
v -0.16997267 0.07281846 -0.96847808
v -0.18999375 0.08337812 -0.97661608
v -0.20998186 0.08588013 -0.97459364
v -0.23095948 0.09092355 -0.97363055
v -0.25648883 0.08085641 -0.95903999
v -0.24989210 0.08850034 -0.96693718
v -0.26997915 0.09279513 -0.96534812
v -0.28996727 0.09630188 -0.96250701
v -0.18999375 0.07433543 -0.96660012
v -0.20998186 0.07601000 -0.96457767
v -0.28996727 0.08629385 -0.95403194
v -0.32997644 0.08264919 -0.93722630
v -0.32997644 0.09265722 -0.94574952
v -0.33713391 0.08426466 -0.93587804
v -0.33713391 0.07524166 -0.92586201
v -0.20084539 -0.05001637 -0.80124009
v -0.21034469 -0.02639505 -0.83157694
v -0.22996996 0.02427555 -0.89441764
v -0.24999106 0.04409461 -0.91469038
v -0.24999106 0.05408294 -0.92754740
v -0.26997915 0.07417782 -0.94709784
v -0.24999106 0.06190418 -0.93751526
v -0.20998186 -0.00271462 -0.86359924
v -0.21034469 -0.01386531 -0.84857523
v -0.20998186 0.02240397 -0.89687347
v -0.21614981 0.04068637 -0.91912049
v -0.20968501 0.04679363 -0.92836607
v -0.20968501 0.03363346 -0.91146410
v -0.22383501 0.05922487 -0.94093418
v -0.23029980 0.06665209 -0.94854248
v -0.22996996 0.07790128 -0.96236259
v -0.24316344 0.07928034 -0.96077353
v -0.24989210 0.07309427 -0.95138353
v -0.22996996 0.03428359 -0.90737098
v -0.22996996 0.04202602 -0.91738701
v -0.23719339 0.06054483 -0.93924880
v -0.23029980 0.05313731 -0.93154418
f 1 2 5
f 1 5 13
f 1 13 25
f 1 25 46
f 1 46 69
f 1 69 101
f 1 101 147
f 1 147 146
f 1 146 145
f 1 145 197
f 1 197 251
f 1 251 307
f 1 307 306
f 1 306 356
f 1 356 355
f 1 355 398
f 1 398 371
f 1 371 368
f 1 368 319
f 1 319 260
f 1 260 259
f 1 259 206
f 1 206 205
f 1 205 204
f 1 204 152
f 1 152 106
f 1 106 105
f 1 105 71
f 1 71 70
f 1 70 48
f 1 48 47
f 1 47 26
f 1 26 14
f 1 14 7
f 1 7 3
f 1 3 8
f 1 8 17
f 1 17 32
f 1 32 54
f 1 54 56
f 1 56 82
f 1 82 119
f 1 119 169
f 1 169 224
f 1 224 223
f 1 223 227
f 1 227 229
f 1 229 228
f 1 228 170
f 1 170 121
f 1 121 120
f 1 120 83
f 1 83 57
f 1 57 33
f 1 33 18
f 1 18 9
f 1 9 4
f 1 4 2
f 2 4 6
f 2 6 11
f 2 11 10
f 2 10 20
f 2 20 39
f 2 39 65
f 2 65 96
f 2 96 137
f 2 137 190
f 2 190 244
f 2 244 296
f 2 296 295
f 2 295 349
f 2 349 396
f 2 396 397
f 2 397 351
f 2 351 300
f 2 300 299
f 2 299 298
f 2 298 245
f 2 245 191
f 2 191 138
f 2 138 97
f 2 97 66
f 2 66 42
f 2 42 41
f 2 41 40
f 2 40 23
f 2 23 22
f 2 22 12
f 2 12 5
f 3 7 8
f 4 9 10
f 4 10 11
f 4 11 6
f 5 12 13
f 7 14 15
f 7 15 16
f 7 16 8
f 8 16 17
f 9 18 19
f 9 19 20
f 9 20 21
f 9 21 10
f 10 21 20
f 12 22 13
f 13 22 23
f 13 23 24
f 13 24 25
f 14 26 27
f 14 27 15
f 15 27 28
f 15 28 29
f 15 29 16
f 16 29 30
f 16 30 31
f 16 31 17
f 17 31 32
f 18 33 58
f 18 58 34
f 18 34 19
f 19 34 35
f 19 35 36
f 19 36 37
f 19 37 20
f 20 37 38
f 20 38 39
f 23 40 24
f 24 40 41
f 24 41 42
f 24 42 43
f 24 43 44
f 24 44 25
f 25 44 45
f 25 45 46
f 26 47 27
f 27 47 48
f 27 48 49
f 27 49 50
f 27 50 28
f 28 50 51
f 28 51 52
f 28 52 29
f 29 52 30
f 30 52 79
f 30 79 53
f 30 53 55
f 30 55 31
f 31 54 32
f 31 55 56
f 31 56 54
f 33 57 85
f 33 85 58
f 34 58 59
f 34 59 35
f 35 59 60
f 35 60 61
f 35 61 36
f 36 61 37
f 37 61 38
f 38 62 39
f 38 61 63
f 38 63 64
f 38 64 62
f 39 62 65
f 42 66 44
f 42 44 43
f 44 67 45
f 44 66 68
f 44 68 67
f 45 67 69
f 45 69 46
f 48 70 49
f 49 70 71
f 49 71 72
f 49 72 50
f 50 73 74
f 50 74 75
f 50 75 76
f 50 76 51
f 50 72 73
f 51 76 77
f 51 77 52
f 52 77 78
f 52 78 79
f 53 79 80
f 53 80 81
f 53 81 55
f 55 81 82
f 55 82 56
f 57 83 84
f 57 84 85
f 58 86 59
f 58 85 86
f 59 86 87
f 59 87 60
f 60 87 88
f 60 88 89
f 60 89 90
f 60 90 61
f 61 90 63
f 62 64 91
f 62 91 65
f 63 90 92
f 63 92 93
f 63 93 94
f 63 94 64
f 64 94 95
f 64 95 91
f 65 91 96
f 66 97 98
f 66 98 68
f 67 99 100
f 67 100 101
f 67 101 69
f 67 68 102
f 67 102 103
f 67 103 104
f 67 104 99
f 68 103 102
f 68 98 103
f 71 105 72
f 72 105 106
f 72 106 107
f 72 107 108
f 72 108 73
f 73 108 109
f 73 109 110
f 73 110 111
f 73 111 75
f 73 75 74
f 75 111 76
f 76 111 112
f 76 112 78
f 76 78 77
f 78 112 113
f 78 113 114
f 78 114 79
f 79 114 115
f 79 115 80
f 80 115 116
f 80 116 117
f 80 117 118
f 80 118 81
f 81 118 119
f 81 119 82
f 83 120 84
f 84 120 121
f 84 121 122
f 84 122 123
f 84 123 124
f 84 124 125
f 84 125 85
f 85 125 86
f 86 125 126
f 86 126 87
f 87 126 127
f 87 127 88
f 88 127 126
f 88 126 128
f 88 128 89
f 89 128 129
f 89 129 90
f 90 129 92
f 91 130 96
f 91 95 131
f 91 131 132
f 91 132 130
f 92 129 133
f 92 133 93
f 93 133 134
f 93 134 94
f 94 134 135
f 94 135 95
f 95 135 136
f 95 136 131
f 96 130 137
f 97 138 139
f 97 139 98
f 98 139 140
f 98 140 103
f 99 141 142
f 99 142 143
f 99 143 144
f 99 144 100
f 99 104 141
f 100 144 145
f 100 145 146
f 100 146 147
f 100 147 101
f 103 140 104
f 104 140 139
f 104 139 148
f 104 148 149
f 104 149 150
f 104 150 151
f 104 151 142
f 104 142 141
f 106 152 107
f 107 152 153
f 107 153 154
f 107 154 108
f 108 154 155
f 108 155 109
f 109 155 156
f 109 156 111
f 109 111 110
f 111 156 157
f 111 157 158
f 111 158 159
f 111 159 112
f 112 159 160
f 112 160 161
f 112 161 162
f 112 162 113
f 113 162 163
f 113 163 164
f 113 164 165
f 113 165 114
f 114 165 166
f 114 166 115
f 115 166 116
f 116 166 167
f 116 167 117
f 117 167 222
f 117 222 168
f 117 168 169
f 117 169 119
f 117 119 118
f 121 170 122
f 122 170 171
f 122 171 123
f 123 172 124
f 123 171 173
f 123 173 172
f 124 174 175
f 124 175 125
f 124 172 174
f 125 175 126
f 126 175 128
f 128 175 176
f 128 176 177
f 128 177 133
f 128 133 129
f 130 132 137
f 131 136 132
f 132 136 178
f 132 178 179
f 132 179 180
f 132 180 181
f 132 181 182
f 132 182 183
f 132 183 137
f 133 177 134
f 134 177 184
f 134 184 135
f 135 184 185
f 135 185 136
f 136 185 186
f 136 186 187
f 136 187 188
f 136 188 189
f 136 189 178
f 137 183 190
f 138 191 192
f 138 192 139
f 139 192 193
f 139 193 148
f 142 194 195
f 142 195 143
f 142 151 194
f 143 195 196
f 143 196 144
f 144 196 145
f 145 196 197
f 148 193 149
f 149 198 199
f 149 199 200
f 149 200 201
f 149 201 150
f 149 193 198
f 150 201 202
f 150 202 151
f 151 202 203
f 151 203 194
f 152 204 153
f 153 204 205
f 153 205 206
f 153 206 207
f 153 207 154
f 154 208 209
f 154 209 155
f 154 207 208
f 155 209 210
f 155 210 156
f 156 210 211
f 156 211 157
f 157 211 212
f 157 212 158
f 158 212 213
f 158 213 214
f 158 214 160
f 158 160 159
f 160 214 215
f 160 215 161
f 161 216 163
f 161 163 162
f 161 215 217
f 161 217 216
f 163 216 218
f 163 218 164
f 164 218 219
f 164 219 220
f 164 220 165
f 165 220 221
f 165 221 166
f 166 221 222
f 166 222 167
f 168 223 224
f 168 224 169
f 168 222 225
f 168 225 226
f 168 226 227
f 168 227 223
f 170 228 171
f 171 228 229
f 171 229 226
f 171 226 225
f 171 225 173
f 172 230 174
f 172 173 231
f 172 231 230
f 173 225 232
f 173 232 231
f 174 233 234
f 174 234 175
f 174 230 235
f 174 235 233
f 175 234 176
f 176 234 177
f 177 234 184
f 178 189 236
f 178 236 179
f 179 236 237
f 179 237 180
f 180 237 181
f 181 237 182
f 182 237 238
f 182 238 183
f 183 238 190
f 184 234 239
f 184 239 185
f 185 239 186
f 186 239 240
f 186 240 241
f 186 241 242
f 186 242 187
f 187 242 241
f 187 241 188
f 188 241 236
f 188 236 189
f 190 238 243
f 190 243 244
f 191 245 192
f 192 245 193
f 193 245 246
f 193 246 198
f 194 247 248
f 194 248 196
f 194 196 195
f 194 203 249
f 194 249 247
f 196 248 250
f 196 250 197
f 197 250 251
f 198 246 199
f 199 246 252
f 199 252 200
f 200 253 254
f 200 254 201
f 200 252 255
f 200 255 253
f 201 254 256
f 201 256 202
f 202 257 258
f 202 258 203
f 202 256 257
f 203 258 249
f 206 259 207
f 207 259 260
f 207 260 261
f 207 261 262
f 207 262 208
f 208 262 263
f 208 263 209
f 209 263 264
f 209 264 265
f 209 265 266
f 209 266 267
f 209 267 210
f 210 267 268
f 210 268 211
f 211 268 266
f 211 266 269
f 211 269 270
f 211 270 271
f 211 271 212
f 212 271 274
f 212 274 213
f 213 272 273
f 213 273 215
f 213 215 214
f 213 274 272
f 215 273 275
f 215 275 276
f 215 276 277
f 215 277 217
f 216 217 218
f 217 276 278
f 217 278 279
f 217 279 218
f 217 277 276
f 218 279 219
f 219 279 280
f 219 280 281
f 219 281 220
f 220 281 232
f 220 232 221
f 221 232 225
f 221 225 222
f 226 229 227
f 230 231 282
f 230 282 283
f 230 283 235
f 231 232 281
f 231 281 282
f 233 284 241
f 233 241 240
f 233 240 239
f 233 239 234
f 233 235 285
f 233 285 286
f 233 286 284
f 235 283 287
f 235 287 285
f 236 241 237
f 237 288 238
f 237 241 289
f 237 289 290
f 237 290 291
f 237 291 288
f 238 288 292
f 238 292 293
f 238 293 294
f 238 294 295
f 238 295 296
f 238 296 244
f 238 244 243
f 241 284 297
f 241 297 289
f 245 298 246
f 246 298 299
f 246 299 300
f 246 300 301
f 246 301 252
f 247 302 303
f 247 303 250
f 247 250 248
f 247 249 302
f 249 258 304
f 249 304 302
f 250 303 305
f 250 305 306
f 250 306 307
f 250 307 251
f 252 301 308
f 252 308 255
f 253 309 254
f 253 255 309
f 254 310 256
f 254 309 311
f 254 311 310
f 255 312 313
f 255 313 314
f 255 314 315
f 255 315 316
f 255 316 309
f 255 308 312
f 256 310 257
f 257 310 317
f 257 317 318
f 257 318 258
f 258 318 304
f 260 319 261
f 261 319 320
f 261 320 262
f 262 321 263
f 262 320 321
f 263 321 322
f 263 322 323
f 263 323 264
f 264 323 324
f 264 324 265
f 265 324 269
f 265 269 266
f 266 268 267
f 269 324 270
f 270 324 271
f 271 324 274
f 272 274 324
f 272 324 325
f 272 325 326
f 272 326 327
f 272 327 328
f 272 328 275
f 272 275 273
f 275 328 329
f 275 329 276
f 276 329 330
f 276 330 331
f 276 331 278
f 278 331 332
f 278 332 333
f 278 333 279
f 279 333 280
f 280 333 282
f 280 282 281
f 282 333 283
f 283 333 332
f 283 332 287
f 284 334 297
f 284 286 334
f 285 287 286
f 286 335 336
f 286 336 337
f 286 337 338
f 286 338 289
f 286 289 339
f 286 339 340
f 286 340 341
f 286 341 334
f 286 287 342
f 286 342 343
f 286 343 335
f 287 332 331
f 287 331 342
f 288 344 292
f 288 291 345
f 288 345 344
f 289 297 339
f 289 338 290
f 290 346 291
f 290 338 347
f 290 347 346
f 291 347 348
f 291 348 345
f 291 346 347
f 292 344 293
f 293 344 294
f 294 344 295
f 295 344 349
f 297 340 350
f 297 350 339
f 297 334 341
f 297 341 340
f 300 351 352
f 300 352 301
f 301 352 312
f 301 312 308
f 302 353 303
f 302 304 354
f 302 354 353
f 303 353 355
f 303 355 356
f 303 356 306
f 303 306 305
f 304 318 354
f 309 357 311
f 309 316 357
f 310 358 359
f 310 359 317
f 310 311 357
f 310 357 360
f 310 360 358
f 312 352 361
f 312 361 313
f 313 361 362
f 313 362 314
f 314 363 315
f 314 362 364
f 314 364 363
f 315 365 316
f 315 363 365
f 316 365 360
f 316 360 357
f 317 359 318
f 318 366 354
f 318 359 367
f 318 367 366
f 319 368 320
f 320 369 370
f 320 370 321
f 320 368 371
f 320 371 369
f 321 370 372
f 321 372 373
f 321 373 322
f 322 373 323
f 323 373 374
f 323 374 375
f 323 375 376
f 323 376 324
f 324 376 375
f 324 375 377
f 324 377 325
f 325 378 326
f 325 377 378
f 326 378 327
f 327 379 380
f 327 380 381
f 327 381 382
f 327 382 328
f 327 378 379
f 328 382 329
f 329 382 383
f 329 383 330
f 330 342 331
f 330 383 342
f 335 343 336
f 336 343 384
f 336 384 337
f 337 384 385
f 337 385 338
f 338 385 386
f 338 386 387
f 338 387 388
f 338 388 389
f 338 389 390
f 338 390 344
f 338 344 347
f 339 350 340
f 342 383 391
f 342 391 343
f 343 391 392
f 343 392 384
f 344 345 347
f 344 390 393
f 344 393 394
f 344 394 395
f 344 395 349
f 345 348 347
f 349 395 394
f 349 394 396
f 351 397 352
f 352 397 361
f 353 369 398
f 353 398 355
f 353 354 399
f 353 399 372
f 353 372 369
f 354 372 399
f 354 366 372
f 358 400 367
f 358 367 359
f 358 360 401
f 358 401 400
f 360 365 402
f 360 402 401
f 361 397 362
f 362 394 393
f 362 393 364
f 362 397 394
f 363 403 365
f 363 364 387
f 363 387 403
f 364 390 389
f 364 389 387
f 364 393 390
f 365 403 404
f 365 404 402
f 366 405 406
f 366 406 372
f 366 367 373
f 366 373 405
f 367 374 373
f 367 400 407
f 367 407 374
f 369 372 370
f 369 371 398
f 372 406 405
f 372 405 373
f 374 407 375
f 375 407 378
f 375 378 377
f 378 408 409
f 378 409 379
f 378 407 410
f 378 410 408
f 379 411 380
f 379 409 408
f 379 408 411
f 380 411 412
f 380 412 413
f 380 413 392
f 380 392 381
f 381 392 391
f 381 391 383
f 381 383 382
f 384 392 413
f 384 413 414
f 384 414 385
f 385 414 387
f 385 387 386
f 387 389 388
f 387 414 415
f 387 415 403
f 394 397 396
f 400 416 408
f 400 408 407
f 400 401 416
f 401 402 417
f 401 417 416
f 402 404 418
f 402 418 417
f 403 415 404
f 404 415 418
f 407 408 410
f 408 417 419
f 408 419 411
f 408 416 417
f 411 418 412
f 411 419 418
f 412 418 414
f 412 414 413
f 414 418 415
f 417 418 419
