v 0.44692123 0.10999335 -0.90056241
v 0.44692123 0.09289442 -0.89373183
v 0.44692123 0.11943400 -0.90001452
v 0.48220825 0.12309665 -0.88120306
v 0.45406646 0.10999335 -0.89676356
v 0.48113048 0.09904455 -0.88061863
v 0.47003344 0.09538189 -0.88361382
v 0.44955578 0.08989770 -0.88971388
v 0.44692123 0.08921218 -0.89044440
v 0.44692123 0.12773862 -0.89807856
v 0.47673959 0.13643500 -0.87802523
v 0.48935348 0.12985396 -0.87393421
v 0.50919247 0.12830663 -0.86323178
v 0.52032942 0.12051125 -0.86016351
v 0.48248768 0.10999335 -0.88134921
v 0.47003344 0.10999335 -0.88814318
v 0.47003344 0.12985396 -0.88467312
v 0.49250698 0.10999335 -0.87568748
v 0.51929158 0.10454833 -0.85954255
v 0.54304248 0.09728177 -0.84197301
v 0.50595915 0.09557776 -0.86348748
v 0.48843539 0.09064198 -0.86907607
v 0.47003344 0.08539283 -0.87477434
v 0.45698041 0.08145596 -0.87831742
v 0.44692123 0.08484441 -0.88624382
v 0.44692123 0.13230225 -0.89595997
v 0.46340716 0.14150786 -0.88175094
v 0.50200731 0.14099863 -0.86107665
v 0.51533973 0.13383001 -0.85702217
v 0.53948981 0.13943172 -0.83959877
v 0.54396057 0.12609337 -0.84263051
v 0.58036530 0.12062877 -0.82023942
v 0.52032942 0.11788667 -0.86016351
v 0.51158750 0.11071804 -0.86465633
v 0.52819318 0.11071804 -0.85450178
v 0.54523790 0.10999335 -0.84347063
v 0.57948709 0.10390198 -0.81958199
v 0.60184085 0.09814358 -0.80135494
v 0.56615466 0.09499016 -0.82418436
v 0.55006796 0.08946680 -0.82999218
v 0.53358203 0.08396302 -0.83583647
v 0.52815324 0.09036777 -0.84500480
v 0.51158750 0.08932969 -0.85428262
v 0.49574029 0.08223942 -0.85746050
v 0.48240787 0.07890972 -0.86133236
v 0.47003344 0.07626556 -0.86476588
v 0.44692123 0.07561921 -0.87641799
v 0.44692123 0.14385824 -0.88617074
v 0.45003480 0.14358403 -0.88525760
v 0.49003208 0.14307478 -0.86432755
v 0.52615738 0.14264388 -0.84368980
v 0.56252217 0.14139035 -0.82166398
v 0.59840798 0.13796273 -0.79872501
v 0.57585460 0.13396710 -0.81687897
v 0.58036530 0.11724032 -0.82023942
v 0.60271907 0.12464398 -0.80201244
v 0.62619054 0.10999335 -0.78488123
v 0.61341697 0.10999335 -0.79485315
v 0.60339767 0.10999335 -0.80256033
v 0.55525720 0.10999335 -0.83674967
v 0.57170320 0.11034590 -0.82553589
v 0.58822906 0.11034590 -0.81381071
v 0.63616991 0.10999335 -0.77684534
v 0.62367570 0.09651791 -0.78287226
v 0.60858691 0.09066157 -0.78889924
v 0.59333849 0.08480524 -0.79488969
v 0.58802944 0.09087702 -0.80456936
v 0.57170320 0.08899672 -0.81454122
v 0.55713332 0.08165182 -0.81797475
v 0.52024961 0.07986946 -0.84014666
v 0.48947322 0.07391520 -0.85044730
v 0.47099146 0.06543428 -0.84968024
v 0.51003075 0.07757785 -0.84321493
v 0.45019448 0.07281835 -0.87097549
v 0.45003480 0.06218294 -0.85694909
v 0.44692123 0.06157576 -0.85778922
v 0.44692123 0.14959705 -0.86998928
v 0.45003480 0.14938161 -0.86998928
v 0.47003344 0.14503342 -0.87079287
v 0.50919247 0.14442626 -0.85019159
v 0.55002803 0.14362320 -0.82597417
v 0.58507556 0.14248720 -0.80354661
v 0.62056220 0.14037186 -0.78042495
v 0.60962480 0.13077453 -0.79364777
v 0.62387532 0.12999107 -0.78301841
v 0.63385469 0.12999107 -0.77490938
v 0.64578998 0.12999107 -0.76490098
v 0.64806527 0.10999335 -0.76683688
v 0.63030201 0.08927093 -0.77019739
v 0.61533296 0.08317956 -0.77622437
v 0.69979835 0.10182582 -0.71979010
v 0.64499164 0.09534272 -0.76417041
v 0.58000600 0.07998698 -0.79996693
v 0.54380089 0.07812627 -0.82250410
v 0.52815324 0.07585425 -0.82948077
v 0.51593852 0.06175204 -0.81742686
v 0.50959164 0.06711871 -0.82893288
v 0.49003208 0.06320143 -0.83543468
v 0.47829634 0.06069437 -0.83897781
v 0.46496391 0.05797186 -0.84281313
v 0.45003480 0.05501432 -0.84694070
v 0.44692123 0.05652247 -0.85073954
v 0.44692123 0.14908782 -0.84975326
v 0.45003480 0.14971457 -0.84997249
v 0.47003344 0.15071347 -0.84997249
v 0.51003075 0.15055679 -0.82999218
v 0.49003208 0.14881361 -0.84997249
v 0.53170592 0.14599316 -0.83174545
v 0.55002803 0.14942077 -0.80997533
v 0.56950772 0.14460252 -0.81012142
v 0.59106314 0.14575812 -0.79123700
v 0.61002398 0.14266348 -0.78436989
v 0.62834609 0.14305520 -0.76895547
v 0.64191800 0.14123365 -0.76157701
v 0.65572947 0.12999107 -0.75617099
v 0.70043701 0.12098132 -0.72041106
v 0.65800476 0.10999335 -0.75825304
v 0.63692832 0.08200438 -0.75741291
v 0.60200053 0.07887056 -0.78155732
v 0.70043701 0.11514457 -0.72041106
v 0.72051549 0.11496829 -0.70054030
v 0.71979696 0.10162996 -0.69980979
v 0.70646453 0.09391291 -0.70649421
v 0.68646586 0.09403043 -0.72592664
v 0.66582859 0.09457885 -0.74513984
v 0.66930139 0.10999335 -0.74828118
v 0.67932069 0.10999335 -0.73936856
v 0.65149820 0.08829162 -0.75127637
v 0.57561511 0.06214377 -0.77669919
v 0.56938797 0.06729499 -0.78897232
v 0.57002664 0.07751909 -0.80347353
v 0.58802944 0.07661812 -0.78893578
v 0.55026752 0.07303381 -0.81077892
v 0.53952974 0.06022430 -0.79963821
v 0.53170592 0.06406324 -0.81045020
v 0.52619731 0.05720799 -0.80409449
v 0.50959164 0.05427003 -0.81045020
v 0.50260609 0.05887284 -0.82159096
v 0.49003208 0.05620909 -0.82542628
v 0.47099146 0.05242891 -0.83138019
v 0.45997423 0.04003072 -0.81994724
v 0.45199075 0.04402635 -0.83024788
v 0.44692123 0.04345834 -0.83222032
v 0.44692123 0.05419169 -0.84745210
v 0.44692123 0.14348610 -0.83368140
v 0.78917348 0.14513135 -0.52740216
v 0.80997050 0.15047845 -0.52740216
v 0.80997050 0.15077224 -0.53003210
v 0.53002936 0.15079182 -0.80997533
v 0.76997322 0.15088975 -0.59000951
v 0.59002531 0.15085059 -0.76997823
v 0.57002664 0.15049803 -0.78999507
v 0.61002398 0.14824560 -0.76997823
v 0.64914304 0.14395617 -0.74941349
v 0.66690636 0.12999107 -0.74619913
v 0.66267508 0.14168414 -0.74240035
v 0.69652510 0.13430008 -0.71668530
v 0.68989879 0.12858084 -0.72596318
v 0.70858014 0.12773862 -0.70861280
v 0.72051549 0.12115760 -0.70054030
v 0.67692560 0.12999107 -0.73714042
v 0.65808457 0.08124050 -0.73830926
v 0.64479208 0.07720571 -0.74408054
v 0.62359589 0.07796958 -0.76289201
v 0.60922563 0.07477699 -0.76972252
v 0.59780920 0.06110569 -0.75825304
v 0.59070390 0.06527759 -0.77001476
v 0.74007505 0.11892475 -0.68015826
v 0.73931658 0.10558641 -0.67928159
v 0.78306615 0.09641998 -0.62383354
v 0.76426500 0.09538189 -0.64505577
v 0.74522436 0.09461802 -0.66594923
v 0.72598416 0.09418713 -0.68647742
v 0.71261179 0.08737105 -0.69279659
v 0.69911975 0.08057457 -0.69911575
v 0.69277287 0.08729271 -0.71277690
v 0.67892146 0.08069209 -0.71898651
v 0.67237502 0.08762568 -0.73213625
v 0.58447677 0.05777600 -0.76336682
v 0.56938797 0.05472052 -0.77001476
v 0.56228268 0.05889242 -0.78163034
v 0.55002803 0.06267260 -0.79598546
v 0.55002803 0.05597405 -0.78597707
v 0.53461987 0.04243984 -0.77629739
v 0.53042853 0.04982392 -0.79025072
v 0.52128744 0.03944312 -0.78082675
v 0.51003075 0.04367379 -0.79448789
v 0.49757648 0.04102962 -0.79846931
v 0.49055099 0.04559325 -0.80957353
v 0.47003344 0.04206770 -0.81691551
v 0.47003344 0.03531040 -0.80694360
v 0.45454547 0.02220709 -0.79671603
v 0.44692123 0.02581099 -0.80657834
v 0.44692123 0.03679896 -0.82268673
v 0.44692123 0.03777828 -0.82411128
v 0.44692123 -0.02591670 -0.52740216
v 0.78701794 0.14405411 -0.52740216
v 0.83136624 0.14689413 -0.52740216
v 0.80997050 0.14955789 -0.55001241
v 0.78997183 0.15065473 -0.57002926
v 0.70997727 0.14998879 -0.67000371
v 0.68997860 0.15002796 -0.69002056
v 0.66997999 0.14991045 -0.71000081
v 0.65002126 0.14967540 -0.72998112
v 0.63002259 0.14924450 -0.74999797
v 0.66958082 0.14440666 -0.72976196
v 0.68319267 0.14195836 -0.72293139
v 0.70339090 0.14211506 -0.70335293
v 0.71672332 0.13449594 -0.69670498
v 0.72849900 0.12736648 -0.68841338
v 0.74007505 0.12025663 -0.68015826
v 0.66558903 0.07669646 -0.72497690
v 0.64930272 0.07029171 -0.72936016
v 0.63002259 0.06316226 -0.73491228
v 0.63018227 0.07330802 -0.75043625
v 0.61162066 0.06365192 -0.75094765
v 0.61940455 0.06032223 -0.73944163
v 0.60607213 0.05685544 -0.74492067
v 0.59070390 0.05291857 -0.75094765
v 0.76693946 0.10999335 -0.64823359
v 0.75843704 0.10999335 -0.65824205
v 0.74682111 0.11134481 -0.67157441
v 0.77691883 0.10999335 -0.63636231
v 0.80150801 0.09800647 -0.60206342
v 0.78893399 0.09056364 -0.60867482
v 0.77620029 0.08310121 -0.61524969
v 0.77021271 0.08923176 -0.63033539
v 0.75731939 0.08204355 -0.63683718
v 0.75129187 0.08833079 -0.65155756
v 0.73819894 0.08127968 -0.65802288
v 0.73209155 0.08772361 -0.67234147
v 0.71875912 0.08084878 -0.67869717
v 0.69013828 0.06982164 -0.69016665
v 0.68578732 0.07646143 -0.70569062
v 0.70542669 0.07652019 -0.68578339
v 0.66997999 0.06991957 -0.71003735
v 0.57174313 0.04353669 -0.75087458
v 0.55749261 0.04120590 -0.75810695
v 0.55050701 0.04551491 -0.76975906
v 0.54416013 0.03805249 -0.76296502
v 0.52879190 0.03552584 -0.76975906
v 0.51609820 0.02171743 -0.75733989
v 0.50967145 0.02663362 -0.76906508
v 0.51003075 0.03699483 -0.78447950
v 0.49055099 0.03313630 -0.79105437
v 0.48424405 0.03822877 -0.80263340
v 0.49003208 0.02275551 -0.77582258
v 0.47139063 0.02451829 -0.79003155
v 0.45003480 0.00457933 -0.77308303
v 0.44871753 0.01539102 -0.79003155
v 0.44692123 0.01637034 -0.79255193
v 0.44692123 -0.04920494 -0.52740216
v 0.84070694 0.14344692 -0.52740216
v 0.83172548 0.14601275 -0.53163934
v 0.82597739 0.14372113 -0.55001241
v 0.81024992 0.14475921 -0.56966394
v 0.79132903 0.14585605 -0.59121490
v 0.76997322 0.14834353 -0.61002636
v 0.74997455 0.14926410 -0.63000661
v 0.72997594 0.14975375 -0.65002346
v 0.71001720 0.14473963 -0.69002056
v 0.68989879 0.14466128 -0.71003735
v 0.72315001 0.14205629 -0.68337262
v 0.74247009 0.14176250 -0.66288096
v 0.73648244 0.13359496 -0.67621332
v 0.74514455 0.12814994 -0.66974807
v 0.75636137 0.12999107 -0.65586776
v 0.76494360 0.12999107 -0.64589590
v 0.77492297 0.12999107 -0.63398808
v 0.78318590 0.12999107 -0.62401617
v 0.80222654 0.12501612 -0.60297662
v 0.78510189 0.10999335 -0.62635392
v 0.65381342 0.06335812 -0.71431100
v 0.64052087 0.05973464 -0.72041106
v 0.63002259 0.05697295 -0.72490388
v 0.60112238 0.03942354 -0.72092241
v 0.59002531 0.04283157 -0.73542368
v 0.57956696 0.04022658 -0.73962426
v 0.56623453 0.03693607 -0.74477458
v 0.79591954 0.08363006 -0.59000951
v 0.79512119 0.10999335 -0.61378860
v 0.80282527 0.10999335 -0.60378021
v 0.81967044 0.10292266 -0.57956278
v 0.84182465 0.09751680 -0.54288965
v 0.82410127 0.09516644 -0.56623042
v 0.80589890 0.09363870 -0.59000951
v 0.79975164 0.08016326 -0.57970887
v 0.78146946 0.07894890 -0.60191733
v 0.76286793 0.07800876 -0.62350482
v 0.74398696 0.07728405 -0.64469051
v 0.72486651 0.07683357 -0.66536480
v 0.69452924 0.06320143 -0.67435044
v 0.68119681 0.05930374 -0.68121755
v 0.67437088 0.06312308 -0.69454992
v 0.70981759 0.07001750 -0.66985762
v 0.66103846 0.05940167 -0.70101517
v 0.55050701 0.03323423 -0.75087458
v 0.53913057 0.02042473 -0.73933202
v 0.53146642 0.02410697 -0.75039977
v 0.52579814 0.01740842 -0.74400753
v 0.50967145 0.01443129 -0.75039977
v 0.50276577 0.01881864 -0.76175964
v 0.47893503 0.02044431 -0.77932918
v 0.49003208 0.01613531 -0.76585066
v 0.46560261 0.01774139 -0.78338367
v 0.46951449 0.01022021 -0.76968604
v 0.46009398 -0.00002348 -0.76000637
v 0.45003480 -0.00206046 -0.76307464
v 0.44692123 0.00397215 -0.77399623
v 0.44692123 -0.04920494 -0.69137204
v 0.62738806 -0.04920494 -0.52740216
v 0.84585631 0.13784522 -0.52740216
v 0.83950943 0.13929461 -0.53938305
v 0.82178605 0.14150786 -0.56276035
v 0.80378330 0.14260471 -0.58537060
v 0.78458297 0.14274181 -0.61002636
v 0.76893532 0.14311396 -0.62839943
v 0.74949557 0.14397576 -0.64918333
v 0.72985613 0.14450459 -0.66974807
v 0.76159054 0.14123365 -0.64195096
v 0.78051144 0.14045021 -0.62069225
v 0.79392368 0.13100955 -0.60980719
v 0.79891336 0.13835445 -0.59870297
v 0.80965114 0.12965810 -0.58960772
v 0.82034904 0.12096173 -0.58054900
v 0.64830482 0.05695337 -0.70861280
v 0.63541144 0.04245943 -0.69579184
v 0.62207901 0.03891429 -0.70185530
v 0.60870671 0.03623096 -0.70912421
v 0.59597301 0.02205040 -0.69655889
v 0.58958620 0.02653569 -0.70930684
v 0.57449740 0.02275551 -0.71547991
v 0.59002531 0.03662268 -0.72541523
v 0.57038593 0.02984579 -0.73027337
v 0.56116498 0.01944541 -0.72088587
v 0.55002803 0.02301013 -0.73516798
v 0.81771445 0.08182810 -0.55673337
v 0.81404209 0.10973872 -0.58832926
v 0.82034904 0.11626100 -0.58054900
v 0.82557821 0.10973872 -0.57174599
v 0.83671522 0.10999335 -0.55505311
v 0.84322172 0.10999335 -0.54504472
v 0.85459822 0.11124688 -0.52740216
v 0.84681433 0.09236559 -0.52740216
v 0.84593612 0.09316863 -0.53003210
v 0.83659542 0.08317956 -0.53003210
v 0.82984936 0.08968225 -0.54982978
v 0.79053068 0.06956701 -0.57079631
v 0.77651966 0.06226128 -0.57525259
v 0.78590029 0.07591301 -0.59000951
v 0.82222515 0.07832213 -0.54340100
v 0.80438209 0.07685316 -0.56637651
v 0.76989335 0.06547345 -0.59055740
v 0.75807780 0.06122321 -0.59757060
v 0.76969379 0.07491410 -0.60914969
v 0.75081283 0.06376944 -0.61156046
v 0.73935652 0.06038099 -0.61926770
v 0.75037372 0.07342553 -0.63011622
v 0.73472607 0.06326019 -0.63000661
v 0.72921747 0.07038964 -0.64918333
v 0.71424842 0.06349523 -0.65367615
v 0.68870127 0.05660081 -0.66861570
v 0.70091599 0.05944084 -0.66101807
v 0.67592770 0.04228316 -0.65579474
v 0.66259527 0.03854215 -0.66262525
v 0.64954221 0.03519288 -0.66960192
v 0.66862279 0.05658123 -0.68874210
v 0.64255667 0.03860091 -0.68245947
v 0.53354210 0.00293407 -0.71515113
v 0.52020967 -0.00008224 -0.72011882
v 0.51003075 0.00391339 -0.73374343
v 0.55002803 0.01676207 -0.72519606
v 0.49729705 0.00115171 -0.73816317
v 0.49039134 0.00559782 -0.74952310
v 0.47342640 0.00269903 -0.75584227
v 0.46807748 -0.00360779 -0.74952310
v 0.44863766 -0.01226498 -0.74839073
v 0.44692123 -0.01408651 -0.74663746
v 0.44692123 -0.00125742 -0.76610637
v 0.44692123 -0.04362281 -0.70039421
v 0.45103273 -0.04920494 -0.68863255
v 0.62463373 -0.04920494 -0.53076267
v 0.63074112 -0.04595359 -0.53047043
v 0.64199781 -0.04109617 -0.52740216
v 0.85088587 0.13030446 -0.52740216
v 0.85220319 0.12740566 -0.52740216
v 0.84246331 0.12595627 -0.54383934
v 0.82418108 0.12858084 -0.56966394
v 0.81711572 0.13430008 -0.57609272
v 0.85471797 0.11228496 -0.52740216
v 0.61688977 0.02167826 -0.67705345
v 0.61014372 0.02557595 -0.68994749
v 0.60355735 0.01815271 -0.68322653
v 0.58958620 0.01499929 -0.68994749
v 0.58264059 0.01870112 -0.70218402
v 0.56870937 0.01613531 -0.70930684
v 0.55569631 0.00207227 -0.69648582
v 0.54942924 0.00665549 -0.70912421
v 0.83743370 0.08237652 -0.52740216
v 0.85423899 0.11163861 -0.52805966
v 0.83887076 0.08388467 -0.52740216
v 0.79552037 0.06296639 -0.55001241
v 0.78134966 0.05908829 -0.56192023
v 0.75787824 0.04136259 -0.55713516
v 0.76318723 0.05791310 -0.58423823
v 0.82661605 0.07520790 -0.53003210
v 0.81020999 0.06443538 -0.53142011
v 0.81064910 0.07336678 -0.55004895
v 0.73943633 0.04034410 -0.57934362
v 0.74474537 0.05699254 -0.60593534
v 0.73504543 0.04300785 -0.59000951
v 0.72063524 0.03961940 -0.60078502
v 0.71496695 0.04300785 -0.61411738
v 0.72470683 0.05711006 -0.63000661
v 0.72027600 0.05981299 -0.64034379
v 0.70854026 0.05705130 -0.64819705
v 0.69560701 0.04251819 -0.63523000
v 0.68937987 0.04653340 -0.64947551
v 0.68227458 0.03869884 -0.64246237
v 0.65712655 0.02158033 -0.63701981
v 0.65030068 0.02498836 -0.65035218
v 0.63720775 0.02152157 -0.65725577
v 0.63034195 0.02508629 -0.67022288
v 0.52811337 -0.00317689 -0.70912421
v 0.54236388 -0.00110073 -0.70185530
v 0.50096947 -0.02041292 -0.70072299
v 0.51003075 -0.00233467 -0.72373497
v 0.49003208 -0.01663275 -0.71449369
v 0.49039134 -0.00629112 -0.73089433
v 0.47801691 -0.01915939 -0.71862119
v 0.44692123 -0.04050858 -0.70536190
v 0.48396462 -0.00162956 -0.74250990
v 0.45438579 -0.01769041 -0.73637336
v 0.44692123 -0.02339005 -0.73224580
v 0.46955442 -0.04920494 -0.67544627
v 0.49003208 -0.02276329 -0.70452178
v 0.62455392 -0.04248680 -0.54526389
v 0.63788635 -0.03880455 -0.53744709
v 0.61118156 -0.04920494 -0.54657888
v 0.65002126 -0.03522024 -0.53047043
v 0.64682788 -0.03839324 -0.52740216
v 0.62387532 0.01793725 -0.66372108
v 0.61014372 0.01429418 -0.67022288
v 0.59788907 0.00107336 -0.65805936
v 0.59074384 0.00442263 -0.67044204
v 0.57705212 0.00148468 -0.67741871
v 0.57022625 0.00536278 -0.68991095
v 0.54942924 -0.00474380 -0.68991095
v 0.56367981 -0.00180584 -0.68315345
v 0.82713503 0.07442445 -0.52740216
v 0.79931253 0.06042016 -0.53901780
v 0.76262838 0.03824835 -0.54380280
v 0.75069308 0.04377172 -0.57159990
v 0.73891741 0.02065977 -0.53857946
v 0.74454582 0.03713193 -0.56597471
v 0.81192648 0.06380861 -0.52740216
v 0.73456645 0.02332352 -0.55001241
v 0.72043562 0.01971962 -0.56060523
v 0.71504676 0.02297096 -0.57393759
v 0.72506607 0.03693607 -0.59000951
v 0.70171434 0.01899492 -0.58208317
v 0.70897931 0.03658351 -0.60849220
v 0.70163453 0.03903181 -0.62189764
v 0.70897931 0.04719934 -0.62913001
v 0.68937987 0.03576088 -0.62913001
v 0.67001992 0.02528216 -0.63022578
v 0.66339362 0.01809395 -0.62368745
v 0.65030068 0.01421584 -0.63022578
v 0.64383405 0.01789808 -0.64392340
v 0.63034195 0.01407873 -0.65035218
v 0.61094207 0.00399173 -0.65086353
v 0.51430190 -0.01743579 -0.69568223
v 0.53637624 -0.01833677 -0.67712653
v 0.52982980 -0.01412569 -0.68943614
v 0.50859368 -0.02370344 -0.68943614
v 0.48891440 -0.04415164 -0.66971153
v 0.47805685 -0.04920494 -0.66927320
v 0.63074112 -0.03627791 -0.55118126
v 0.65054017 -0.02574042 -0.55026811
v 0.66307425 -0.02176438 -0.54380280
v 0.61126143 -0.04697209 -0.55118126
v 0.60703015 -0.04920494 -0.55129087
v 0.65137845 -0.03582742 -0.52740216
v 0.66986024 -0.02450648 -0.52930158
v 0.66978037 -0.02540746 -0.52740216
v 0.60487461 -0.00256971 -0.64472699
v 0.59142244 -0.01680902 -0.63121200
v 0.59074384 -0.00648699 -0.65086353
v 0.57118428 -0.01629978 -0.65086353
v 0.58455664 -0.00227591 -0.66408634
v 0.55777204 -0.01890477 -0.65805936
v 0.54443955 -0.02213652 -0.66379416
v 0.80314463 0.05787393 -0.52740216
v 0.79799527 0.05442672 -0.52740216
v 0.77101105 0.03638764 -0.52740216
v 0.76957405 0.03589799 -0.52842492
v 0.75185066 0.02385235 -0.52740216
v 0.75021410 0.02447911 -0.53116447
v 0.74610257 0.02015052 -0.52740216
v 0.74294907 0.01815271 -0.52740216
v 0.73919684 0.01584151 -0.52740216
v 0.73121333 0.01094491 -0.52740216
v 0.73133314 0.01270768 -0.53116447
v 0.71660358 0.00205268 -0.52740216
v 0.71560562 0.00264027 -0.53003210
v 0.70123535 -0.00074817 -0.54164773
v 0.72454715 0.01723214 -0.55001241
v 0.69588643 0.00240524 -0.55498010
v 0.70901924 0.01666414 -0.56838548
v 0.69600618 0.02232461 -0.59541553
v 0.68949962 0.00589162 -0.56984657
v 0.67688572 0.00177847 -0.57642144
v 0.68267375 0.01846609 -0.60304964
v 0.67672604 0.02187412 -0.61638200
v 0.65764546 0.00130840 -0.59742451
v 0.65061998 0.00426595 -0.61079341
v 0.67001992 0.01470550 -0.60984367
v 0.63808590 0.00105378 -0.61798924
v 0.63086087 0.00395256 -0.63091981
v 0.61820704 0.00097543 -0.63818866
v 0.51054966 -0.04920494 -0.64410603
v 0.51015049 -0.04571856 -0.65049827
v 0.50284559 -0.04920494 -0.65027910
v 0.50356412 -0.04164458 -0.66280788
v 0.52304381 -0.02137265 -0.68234986
v 0.48963290 -0.04920494 -0.66057974
v 0.64423323 -0.02231281 -0.56480587
v 0.65752572 -0.01861098 -0.55713516
v 0.61876589 -0.03931380 -0.55859625
v 0.66986024 -0.01483080 -0.55026811
v 0.67644662 -0.01794504 -0.53551114
v 0.60543346 -0.04293729 -0.56597471
v 0.59158212 -0.04920494 -0.56820285
v 0.67960006 -0.01978616 -0.52740216
v 0.59900677 -0.01947278 -0.61901200
v 0.61094207 -0.00678078 -0.63091981
v 0.58567429 -0.02284164 -0.62536770
v 0.57860893 -0.01927691 -0.63870007
v 0.56527650 -0.02260660 -0.64472699
v 0.55066669 -0.02636719 -0.65086353
v 0.53833222 -0.03919628 -0.63859046
v 0.52499980 -0.04236928 -0.64417911
v 0.70650446 -0.00399952 -0.52740216
v 0.70562625 -0.00337275 -0.53003210
v 0.68898070 -0.01347934 -0.52930158
v 0.68949962 -0.00411703 -0.54898965
v 0.68255401 -0.00147287 -0.56305254
v 0.67013967 -0.00529222 -0.56984657
v 0.66355330 -0.00202129 -0.58409214
v 0.67013967 0.00493188 -0.59044784
v 0.65061998 -0.00611485 -0.59044784
v 0.64435297 -0.00241302 -0.60465688
v 0.63086087 -0.00662410 -0.61079341
v 0.62475348 -0.00256971 -0.62485629
v 0.52611744 -0.04920494 -0.63106591
v 0.63102055 -0.02662181 -0.57090586
v 0.63832545 -0.01908105 -0.57813823
v 0.65054017 -0.01584929 -0.57090586
v 0.59162199 -0.04752050 -0.57159990
v 0.59932607 -0.03962719 -0.57930708
v 0.61126143 -0.03700261 -0.57159990
v 0.58830887 -0.04920494 -0.57163644
v 0.68702471 -0.01545756 -0.52740216
v 0.61134124 -0.01684820 -0.61141437
v 0.60551327 -0.02291998 -0.60567963
v 0.59162199 -0.03733557 -0.59165323
v 0.57162338 -0.04767720 -0.59165323
v 0.56862956 -0.04920494 -0.59165323
v 0.56603491 -0.04309398 -0.60582572
v 0.55154490 -0.04920494 -0.60816348
v 0.55146503 -0.04748133 -0.61148739
v 0.54575688 -0.04287853 -0.62525809
v 0.53118700 -0.04920494 -0.62668264
v 0.53102732 -0.04681540 -0.63113898
v 0.68969917 -0.01389065 -0.52740216
v 0.63102055 -0.01651523 -0.59128797
v 0.61888564 -0.01937484 -0.59877598
v 0.62499303 -0.02270453 -0.58544362
v 0.57166326 -0.04920494 -0.58862150
v 0.58599365 -0.04311357 -0.58606458
v 0.54799223 -0.04920494 -0.61148739
f 1 2 9
f 1 9 25
f 1 25 47
f 1 47 76
f 1 76 102
f 1 102 144
f 1 144 143
f 1 143 195
f 1 195 194
f 1 194 193
f 1 193 251
f 1 251 309
f 1 309 379
f 1 379 378
f 1 378 434
f 1 434 431
f 1 431 380
f 1 380 310
f 1 310 252
f 1 252 196
f 1 196 145
f 1 145 103
f 1 103 77
f 1 77 48
f 1 48 26
f 1 26 10
f 1 10 3
f 1 3 4
f 1 4 5
f 1 5 6
f 1 6 2
f 2 6 7
f 2 7 8
f 2 8 9
f 3 10 4
f 4 11 12
f 4 12 13
f 4 13 14
f 4 14 15
f 4 15 16
f 4 16 5
f 4 10 17
f 4 17 11
f 5 16 6
f 6 15 18
f 6 18 19
f 6 19 20
f 6 20 21
f 6 21 22
f 6 22 23
f 6 23 7
f 6 16 15
f 7 23 24
f 7 24 8
f 8 24 9
f 9 24 25
f 10 26 11
f 10 11 17
f 11 26 27
f 11 27 28
f 11 28 29
f 11 29 12
f 12 29 13
f 13 29 14
f 14 29 30
f 14 30 31
f 14 31 32
f 14 32 55
f 14 55 33
f 14 33 15
f 15 33 18
f 18 33 34
f 18 34 19
f 19 34 33
f 19 33 35
f 19 35 36
f 19 36 37
f 19 37 20
f 20 37 38
f 20 38 39
f 20 39 40
f 20 40 41
f 20 41 42
f 20 42 21
f 21 42 41
f 21 41 43
f 21 43 44
f 21 44 22
f 22 44 23
f 23 44 24
f 24 44 45
f 24 45 46
f 24 46 47
f 24 47 25
f 26 48 49
f 26 49 27
f 27 50 28
f 27 49 50
f 28 51 30
f 28 30 29
f 28 50 51
f 30 52 53
f 30 53 54
f 30 54 32
f 30 32 31
f 30 51 52
f 32 54 53
f 32 53 56
f 32 56 57
f 32 57 58
f 32 58 59
f 32 59 55
f 33 55 36
f 33 36 35
f 36 55 60
f 36 60 37
f 37 60 61
f 37 61 55
f 37 55 62
f 37 62 59
f 37 59 38
f 38 59 58
f 38 58 57
f 38 57 63
f 38 63 64
f 38 64 65
f 38 65 66
f 38 66 67
f 38 67 39
f 39 67 68
f 39 68 69
f 39 69 40
f 40 69 41
f 41 70 44
f 41 44 43
f 41 69 70
f 44 70 45
f 45 71 72
f 45 72 46
f 45 70 73
f 45 73 71
f 46 74 47
f 46 72 75
f 46 75 74
f 47 74 76
f 48 77 78
f 48 78 49
f 49 78 79
f 49 79 50
f 50 79 80
f 50 80 51
f 51 80 81
f 51 81 52
f 52 81 82
f 52 82 83
f 52 83 53
f 53 83 84
f 53 84 56
f 55 61 60
f 55 59 62
f 56 84 85
f 56 85 86
f 56 86 63
f 56 63 57
f 63 86 87
f 63 87 88
f 63 88 64
f 64 89 90
f 64 90 65
f 64 88 91
f 64 91 92
f 64 92 89
f 65 90 66
f 66 90 93
f 66 93 67
f 67 93 68
f 68 93 69
f 69 94 70
f 69 93 94
f 70 94 95
f 70 95 96
f 70 96 97
f 70 97 73
f 71 98 99
f 71 99 72
f 71 73 98
f 72 99 100
f 72 100 75
f 73 97 98
f 74 75 76
f 75 101 102
f 75 102 76
f 75 100 101
f 77 103 104
f 77 104 105
f 77 105 78
f 78 105 106
f 78 106 107
f 78 107 79
f 79 107 80
f 80 108 81
f 80 107 108
f 81 109 110
f 81 110 82
f 81 108 109
f 82 110 111
f 82 111 112
f 82 112 83
f 83 112 113
f 83 113 114
f 83 114 87
f 83 87 86
f 83 86 85
f 83 85 84
f 87 114 115
f 87 115 116
f 87 116 88
f 88 116 117
f 88 117 91
f 89 92 118
f 89 118 90
f 90 119 93
f 90 118 119
f 91 120 121
f 91 121 122
f 91 122 123
f 91 123 124
f 91 124 125
f 91 125 92
f 91 117 126
f 91 126 127
f 91 127 120
f 92 125 128
f 92 128 118
f 93 129 130
f 93 130 131
f 93 131 94
f 93 119 132
f 93 132 129
f 94 131 133
f 94 133 134
f 94 134 135
f 94 135 95
f 95 135 96
f 96 135 136
f 96 136 137
f 96 137 138
f 96 138 97
f 97 138 98
f 98 139 99
f 98 138 139
f 99 140 100
f 99 139 140
f 100 140 141
f 100 141 142
f 100 142 101
f 101 143 144
f 101 144 102
f 101 142 143
f 103 145 146
f 103 146 147
f 103 147 104
f 104 147 148
f 104 148 105
f 105 149 106
f 105 148 150
f 105 150 149
f 106 149 151
f 106 151 152
f 106 152 109
f 106 109 107
f 107 109 108
f 109 152 153
f 109 153 111
f 109 111 110
f 111 153 112
f 112 153 113
f 113 153 154
f 113 154 114
f 114 155 115
f 114 154 156
f 114 156 157
f 114 157 155
f 115 155 116
f 116 158 157
f 116 157 159
f 116 159 160
f 116 160 121
f 116 121 120
f 116 120 127
f 116 127 126
f 116 126 117
f 116 155 161
f 116 161 158
f 118 128 162
f 118 162 163
f 118 163 164
f 118 164 119
f 119 164 165
f 119 165 166
f 119 166 167
f 119 167 132
f 121 160 211
f 121 211 168
f 121 168 122
f 122 168 169
f 122 169 170
f 122 170 171
f 122 171 172
f 122 172 173
f 122 173 123
f 123 174 175
f 123 175 176
f 123 176 124
f 123 173 174
f 124 177 178
f 124 178 125
f 124 176 177
f 125 178 162
f 125 162 128
f 129 132 167
f 129 167 179
f 129 179 180
f 129 180 181
f 129 181 130
f 130 181 182
f 130 182 131
f 131 182 133
f 133 182 134
f 134 182 183
f 134 183 184
f 134 184 185
f 134 185 136
f 134 136 135
f 136 186 187
f 136 187 137
f 136 185 186
f 137 187 188
f 137 188 138
f 138 188 189
f 138 189 139
f 139 190 140
f 139 189 190
f 140 190 141
f 141 190 191
f 141 191 192
f 141 192 193
f 141 193 194
f 141 194 195
f 141 195 142
f 142 195 143
f 145 196 197
f 145 197 146
f 146 197 196
f 146 196 252
f 146 252 311
f 146 311 384
f 146 384 441
f 146 441 483
f 146 483 485
f 146 485 534
f 146 534 563
f 146 563 575
f 146 575 543
f 146 543 504
f 146 504 502
f 146 502 501
f 146 501 500
f 146 500 499
f 146 499 497
f 146 497 495
f 146 495 494
f 146 494 493
f 146 493 456
f 146 456 450
f 146 450 399
f 146 399 401
f 146 401 344
f 146 344 343
f 146 343 390
f 146 390 386
f 146 386 385
f 146 385 312
f 146 312 253
f 146 253 198
f 146 198 147
f 147 198 148
f 148 198 199
f 148 199 200
f 148 200 150
f 149 150 151
f 150 200 260
f 150 260 201
f 150 201 202
f 150 202 151
f 151 202 203
f 151 203 204
f 151 204 152
f 152 204 205
f 152 205 153
f 153 205 154
f 154 206 156
f 154 205 206
f 155 157 161
f 156 206 207
f 156 207 157
f 157 208 209
f 157 209 159
f 157 158 161
f 157 207 208
f 159 209 160
f 160 209 210
f 160 210 211
f 162 178 177
f 162 177 212
f 162 212 163
f 163 212 213
f 163 213 214
f 163 214 215
f 163 215 164
f 164 215 216
f 164 216 165
f 165 216 166
f 166 216 217
f 166 217 218
f 166 218 219
f 166 219 179
f 166 179 167
f 168 211 220
f 168 220 221
f 168 221 222
f 168 222 169
f 169 222 221
f 169 221 220
f 169 220 170
f 170 220 223
f 170 223 224
f 170 224 225
f 170 225 226
f 170 226 227
f 170 227 171
f 171 227 228
f 171 228 229
f 171 229 172
f 172 230 231
f 172 231 173
f 172 229 230
f 173 232 174
f 173 231 232
f 174 232 175
f 175 233 234
f 175 234 177
f 175 177 176
f 175 232 235
f 175 235 233
f 177 234 236
f 177 236 212
f 179 237 238
f 179 238 180
f 179 219 237
f 180 238 181
f 181 238 239
f 181 239 183
f 181 183 182
f 183 240 184
f 183 239 240
f 184 241 186
f 184 186 185
f 184 240 241
f 186 241 242
f 186 242 243
f 186 243 244
f 186 244 187
f 187 244 188
f 188 245 246
f 188 246 189
f 188 244 247
f 188 247 245
f 189 246 190
f 190 246 191
f 191 246 248
f 191 248 192
f 192 248 249
f 192 249 250
f 192 250 251
f 192 251 193
f 198 253 254
f 198 254 199
f 199 254 255
f 199 255 256
f 199 256 257
f 199 257 258
f 199 258 200
f 200 258 259
f 200 259 260
f 201 260 261
f 201 261 202
f 202 261 262
f 202 262 203
f 203 262 204
f 204 262 206
f 204 206 205
f 206 262 207
f 207 262 208
f 208 262 261
f 208 261 263
f 208 263 209
f 209 263 264
f 209 264 265
f 209 265 210
f 210 265 211
f 211 265 266
f 211 266 267
f 211 267 268
f 211 268 269
f 211 269 270
f 211 270 271
f 211 271 272
f 211 272 223
f 211 223 220
f 212 236 273
f 212 273 213
f 213 273 274
f 213 274 214
f 214 217 215
f 214 274 217
f 215 217 216
f 217 274 275
f 217 275 276
f 217 276 218
f 218 276 277
f 218 277 219
f 219 277 278
f 219 278 279
f 219 279 237
f 223 272 224
f 224 280 225
f 224 272 281
f 224 281 282
f 224 282 283
f 224 283 284
f 224 284 285
f 224 285 286
f 224 286 280
f 225 280 226
f 226 280 287
f 226 287 288
f 226 288 289
f 226 289 228
f 226 228 227
f 228 289 290
f 228 290 230
f 228 230 229
f 230 290 291
f 230 291 232
f 230 232 231
f 232 291 235
f 233 235 292
f 233 292 293
f 233 293 294
f 233 294 234
f 234 294 236
f 235 295 292
f 235 291 295
f 236 294 296
f 236 296 273
f 237 279 238
f 238 297 240
f 238 240 239
f 238 279 297
f 240 297 298
f 240 298 299
f 240 299 241
f 241 299 242
f 242 299 300
f 242 300 301
f 242 301 302
f 242 302 243
f 243 302 244
f 244 302 247
f 245 247 303
f 245 303 246
f 246 303 248
f 247 304 303
f 247 302 304
f 248 303 305
f 248 305 249
f 249 305 303
f 249 303 306
f 249 306 307
f 249 307 308
f 249 308 309
f 249 309 251
f 249 251 250
f 252 310 381
f 252 381 435
f 252 435 477
f 252 477 526
f 252 526 523
f 252 523 521
f 252 521 555
f 252 555 573
f 252 573 581
f 252 581 570
f 252 570 568
f 252 568 579
f 252 579 562
f 252 562 533
f 252 533 482
f 252 482 439
f 252 439 382
f 252 382 311
f 253 312 313
f 253 313 314
f 253 314 255
f 253 255 254
f 255 314 256
f 256 315 257
f 256 314 315
f 257 315 316
f 257 316 258
f 258 316 317
f 258 317 318
f 258 318 259
f 259 318 319
f 259 319 260
f 260 319 261
f 261 319 263
f 263 319 264
f 264 319 318
f 264 318 320
f 264 320 265
f 265 320 267
f 265 267 266
f 267 320 321
f 267 321 268
f 268 321 269
f 269 321 270
f 270 321 322
f 270 322 271
f 271 322 323
f 271 323 324
f 271 324 325
f 271 325 281
f 271 281 272
f 273 326 274
f 273 296 326
f 274 326 327
f 274 327 328
f 274 328 329
f 274 329 276
f 274 276 275
f 276 329 330
f 276 330 331
f 276 331 332
f 276 332 333
f 276 333 277
f 277 333 334
f 277 334 278
f 278 334 279
f 279 334 335
f 279 335 336
f 279 336 297
f 280 286 337
f 280 337 287
f 281 325 282
f 282 338 283
f 282 325 339
f 282 339 338
f 283 338 339
f 283 339 340
f 283 340 341
f 283 341 342
f 283 342 284
f 284 342 343
f 284 343 344
f 284 344 345
f 284 345 346
f 284 346 347
f 284 347 285
f 285 347 337
f 285 337 286
f 287 348 349
f 287 349 350
f 287 350 288
f 287 337 351
f 287 351 352
f 287 352 348
f 288 350 353
f 288 353 354
f 288 354 355
f 288 355 289
f 289 356 357
f 289 357 358
f 289 358 290
f 289 355 356
f 290 359 360
f 290 360 291
f 290 358 359
f 291 360 361
f 291 361 295
f 292 362 293
f 292 295 363
f 292 363 362
f 293 364 365
f 293 365 366
f 293 366 367
f 293 367 294
f 293 362 364
f 294 367 296
f 295 361 363
f 296 367 368
f 296 368 327
f 296 327 326
f 297 336 298
f 298 369 370
f 298 370 371
f 298 371 300
f 298 300 299
f 298 336 372
f 298 372 369
f 300 371 373
f 300 373 301
f 301 373 302
f 302 373 374
f 302 374 304
f 303 375 306
f 303 304 375
f 304 374 375
f 306 375 307
f 307 375 376
f 307 376 377
f 307 377 308
f 308 377 378
f 308 378 379
f 308 379 309
f 310 380 381
f 311 382 383
f 311 383 384
f 312 385 313
f 313 385 386
f 313 386 387
f 313 387 325
f 313 325 388
f 313 388 389
f 313 389 323
f 313 323 314
f 314 323 321
f 314 321 315
f 315 321 316
f 316 321 317
f 317 320 318
f 317 321 320
f 321 323 322
f 323 389 324
f 324 389 325
f 325 387 390
f 325 390 339
f 325 389 388
f 327 368 391
f 327 391 392
f 327 392 328
f 328 392 330
f 328 330 329
f 330 392 393
f 330 393 394
f 330 394 395
f 330 395 331
f 331 395 332
f 332 395 396
f 332 396 335
f 332 335 333
f 333 335 334
f 335 397 398
f 335 398 372
f 335 372 336
f 335 396 397
f 337 347 346
f 337 346 399
f 337 399 351
f 339 390 342
f 339 342 341
f 339 341 340
f 342 390 400
f 342 400 343
f 343 400 390
f 344 401 346
f 344 346 345
f 346 401 399
f 348 352 402
f 348 402 403
f 348 403 349
f 349 353 350
f 349 403 404
f 349 404 405
f 349 405 353
f 351 399 406
f 351 406 407
f 351 407 408
f 351 408 352
f 352 408 402
f 353 405 354
f 354 356 355
f 354 405 409
f 354 409 410
f 354 410 357
f 354 357 356
f 357 410 409
f 357 409 411
f 357 411 412
f 357 412 413
f 357 413 414
f 357 414 415
f 357 415 359
f 357 359 358
f 359 415 360
f 360 415 361
f 361 415 363
f 362 363 364
f 363 415 416
f 363 416 417
f 363 417 418
f 363 418 364
f 364 418 419
f 364 419 420
f 364 420 421
f 364 421 365
f 365 421 422
f 365 422 366
f 366 422 368
f 366 368 367
f 368 422 423
f 368 423 391
f 369 424 370
f 369 372 425
f 369 425 424
f 370 424 426
f 370 426 427
f 370 427 371
f 371 427 373
f 372 398 425
f 373 427 428
f 373 428 429
f 373 429 430
f 373 430 380
f 373 380 431
f 373 431 432
f 373 432 374
f 374 432 375
f 375 432 376
f 376 433 377
f 376 432 433
f 377 434 378
f 377 433 434
f 380 430 381
f 381 430 428
f 381 428 436
f 381 436 426
f 381 426 435
f 382 437 438
f 382 438 383
f 382 439 437
f 383 438 384
f 384 438 440
f 384 440 441
f 386 390 387
f 391 442 443
f 391 443 393
f 391 393 392
f 391 423 442
f 393 444 445
f 393 445 446
f 393 446 394
f 393 443 444
f 394 446 447
f 394 447 395
f 395 447 397
f 395 397 396
f 397 448 425
f 397 425 398
f 397 447 449
f 397 449 448
f 399 450 406
f 402 408 451
f 402 451 452
f 402 452 403
f 403 452 404
f 404 453 405
f 404 452 454
f 404 454 455
f 404 455 453
f 405 453 409
f 406 450 456
f 406 456 407
f 407 456 451
f 407 451 408
f 409 453 455
f 409 455 457
f 409 457 458
f 409 458 459
f 409 459 460
f 409 460 412
f 409 412 411
f 412 460 461
f 412 461 462
f 412 462 413
f 413 462 463
f 413 463 464
f 413 464 414
f 414 464 415
f 415 464 417
f 415 417 416
f 417 465 419
f 417 419 418
f 417 464 463
f 417 463 465
f 419 466 420
f 419 465 466
f 420 466 467
f 420 467 468
f 420 468 469
f 420 469 421
f 421 469 422
f 422 469 470
f 422 470 471
f 422 471 442
f 422 442 423
f 424 472 426
f 424 425 472
f 425 448 473
f 425 473 474
f 425 474 472
f 426 472 475
f 426 475 476
f 426 476 477
f 426 477 435
f 426 436 428
f 426 428 427
f 428 430 429
f 431 434 432
f 432 434 433
f 437 439 478
f 437 478 438
f 438 478 479
f 438 479 480
f 438 480 440
f 439 481 478
f 439 482 481
f 440 483 441
f 440 480 484
f 440 484 485
f 440 485 483
f 442 471 444
f 442 444 443
f 444 471 486
f 444 486 487
f 444 487 488
f 444 488 489
f 444 489 490
f 444 490 445
f 445 490 446
f 446 490 491
f 446 491 449
f 446 449 447
f 448 449 473
f 449 491 492
f 449 492 473
f 451 456 493
f 451 493 494
f 451 494 495
f 451 495 452
f 452 495 496
f 452 496 497
f 452 497 498
f 452 498 454
f 454 498 499
f 454 499 500
f 454 500 501
f 454 501 502
f 454 502 503
f 454 503 504
f 454 504 505
f 454 505 506
f 454 506 507
f 454 507 457
f 454 457 455
f 457 507 458
f 458 507 506
f 458 506 508
f 458 508 509
f 458 509 459
f 459 509 461
f 459 461 460
f 461 510 462
f 461 509 508
f 461 508 511
f 461 511 512
f 461 512 510
f 462 510 463
f 463 510 513
f 463 513 514
f 463 514 465
f 465 514 466
f 466 514 467
f 467 515 516
f 467 516 468
f 467 514 517
f 467 517 515
f 468 516 518
f 468 518 469
f 469 518 519
f 469 519 520
f 469 520 470
f 470 520 471
f 471 520 486
f 472 474 475
f 473 521 522
f 473 522 523
f 473 523 524
f 473 524 525
f 473 525 474
f 473 492 521
f 474 525 475
f 475 525 524
f 475 524 476
f 476 526 477
f 476 524 526
f 478 527 528
f 478 528 479
f 478 481 529
f 478 529 527
f 479 528 480
f 480 528 530
f 480 530 531
f 480 531 484
f 481 482 532
f 481 532 529
f 482 533 532
f 484 531 485
f 485 531 534
f 486 535 487
f 486 520 536
f 486 536 535
f 487 535 537
f 487 537 538
f 487 538 488
f 488 538 489
f 489 538 539
f 489 539 491
f 489 491 490
f 491 540 492
f 491 539 540
f 492 540 541
f 492 541 542
f 492 542 521
f 495 497 496
f 497 499 498
f 502 504 503
f 504 543 544
f 504 544 505
f 505 544 506
f 506 544 545
f 506 545 531
f 506 531 546
f 506 546 508
f 508 546 547
f 508 547 511
f 510 512 513
f 511 547 512
f 512 547 548
f 512 548 549
f 512 549 550
f 512 550 513
f 513 550 515
f 513 515 517
f 513 517 514
f 515 550 549
f 515 549 551
f 515 551 552
f 515 552 516
f 516 552 518
f 518 552 553
f 518 553 554
f 518 554 519
f 519 554 520
f 520 554 536
f 521 523 522
f 521 542 555
f 523 526 524
f 527 529 556
f 527 556 557
f 527 557 558
f 527 558 528
f 528 548 547
f 528 547 530
f 528 558 548
f 529 532 556
f 530 547 546
f 530 546 531
f 531 545 534
f 532 533 559
f 532 559 560
f 532 560 561
f 532 561 556
f 533 562 559
f 534 545 563
f 535 536 554
f 535 554 564
f 535 564 565
f 535 565 566
f 535 566 567
f 535 567 568
f 535 568 569
f 535 569 570
f 535 570 537
f 537 570 571
f 537 571 538
f 538 571 572
f 538 572 539
f 539 572 541
f 539 541 540
f 541 573 574
f 541 574 555
f 541 555 542
f 541 572 573
f 543 575 544
f 544 575 545
f 545 575 563
f 548 558 549
f 549 558 551
f 551 558 557
f 551 557 576
f 551 576 552
f 552 576 577
f 552 577 553
f 553 577 564
f 553 564 554
f 555 574 573
f 556 561 557
f 557 561 578
f 557 578 576
f 559 562 579
f 559 579 580
f 559 580 560
f 560 565 577
f 560 577 578
f 560 578 561
f 560 580 566
f 560 566 565
f 564 577 565
f 566 580 567
f 567 580 579
f 567 579 568
f 568 570 569
f 570 581 571
f 571 581 572
f 572 581 573
f 576 578 577
