v 0.44692123 -0.02590194 -0.52740216
v -0.00017273 -0.04920493 -0.62057394
v 0.32635117 -0.04920493 -0.52740216
v 0.44692123 -0.04920493 -0.52740216
v 0.44692123 0.14349592 -0.83366615
v -0.00017273 0.14490822 -0.95202971
v -0.00017273 -0.04920493 -0.82673132
v 0.44692123 -0.04920493 -0.69138455
v 0.44692123 0.14910591 -0.84975302
v -0.00017273 0.14777206 -0.96085155
v -0.00017273 -0.04332034 -0.83460963
v 0.01002429 -0.04920493 -0.82673132
v 0.43002829 -0.04920493 -0.70237643
v 0.44534570 -0.04228072 -0.70360303
v 0.44692123 -0.04361457 -0.70039505
v 0.44692123 0.14959627 -0.86999130
v 0.42998451 0.15079281 -0.86999130
v -0.00017273 0.15071435 -0.96995640
v -0.00017273 -0.03965227 -0.83951592
v 0.01002429 -0.03965227 -0.83951592
v 0.03002448 -0.04689032 -0.82927877
v 0.03002448 -0.04920493 -0.82616520
v 0.03002448 -0.03943650 -0.83928001
v 0.41856211 -0.04920493 -0.70945275
v 0.42897797 -0.04469340 -0.71020758
v 0.43492985 -0.03804381 -0.71695369
v 0.44692123 -0.02499963 -0.72973830
v 0.44692123 -0.04051534 -0.70534849
v 0.44692123 0.14386861 -0.88617253
v 0.43055347 0.14530054 -0.89112598
v 0.40998435 0.14961590 -0.88999379
v 0.38998413 0.15083206 -0.88999379
v 0.21002620 0.15106744 -0.94995397
v 0.09002505 0.15118513 -0.96995640
v 0.07002486 0.15110666 -0.96995640
v -0.00017273 0.14690898 -0.98995888
v -0.00017273 -0.03555267 -0.84484673
v 0.01002429 0.00342296 -0.89551330
v 0.03002448 0.00359950 -0.89527744
v 0.05002467 -0.03908343 -0.83880824
v 0.03479478 -0.04920493 -0.82592934
v 0.05002467 -0.04651763 -0.82880706
v 0.05002467 0.01393677 -0.90782619
v 0.40954667 -0.04920493 -0.71487796
v 0.42162558 -0.04063304 -0.72101080
v 0.44101310 -0.02040964 -0.74068302
v 0.44692123 -0.02337156 -0.73228574
v 0.44692123 0.13231519 -0.89593792
v 0.43755573 0.13763094 -0.89857972
v 0.42425144 0.14173055 -0.90197641
v 0.40998435 0.14377053 -0.90513718
v 0.36998397 0.14885090 -0.90999627
v 0.34998375 0.15063590 -0.90999627
v 0.28998321 0.15075359 -0.92999870
v 0.22998263 0.15081243 -0.94995397
v 0.11002525 0.15106744 -0.96995640
v 0.01002429 0.14690898 -0.98995888
v -0.00017273 0.14406475 -0.99538410
v -0.00017273 0.00850333 -0.90211791
v 0.01002429 0.01342677 -0.90848660
v 0.03002448 0.01360331 -0.90825075
v 0.07002486 0.00440373 -0.89423960
v 0.07002486 -0.02955038 -0.84998888
v 0.07002486 -0.03861266 -0.83814782
v 0.07002486 -0.04920493 -0.82390076
v 0.05002467 -0.04920493 -0.82517451
v 0.05002467 0.02166520 -0.91782737
v 0.07002486 0.02211636 -0.91726124
v 0.07002486 0.01440754 -0.90726006
v 0.38998413 -0.04920493 -0.72605860
v 0.40998435 -0.04286918 -0.72440743
v 0.42998451 -0.02252810 -0.74389094
v 0.42998451 -0.01595697 -0.75389218
v 0.44692123 -0.00126510 -0.76615787
v 0.44692123 -0.01260275 -0.74893874
v 0.44692123 -0.01409352 -0.74667430
v 0.44692123 0.12774482 -0.89806080
v 0.44324505 0.12429252 -0.90169334
v 0.43055347 0.13056943 -0.90513718
v 0.39637369 0.13674825 -0.91825199
v 0.38302565 0.14116170 -0.92122400
v 0.36998397 0.14304477 -0.92377150
v 0.38980907 0.14496706 -0.91093975
v 0.32998359 0.14714438 -0.92999870
v 0.30998337 0.14971396 -0.92999870
v 0.24998282 0.14959627 -0.94995397
v 0.17002583 0.14881167 -0.96995640
v 0.15002564 0.14994936 -0.96995640
v 0.13002545 0.15067512 -0.96995640
v 0.03002448 0.14671284 -0.98995888
v 0.01002429 0.14110285 -1.00099802
v -0.00017273 0.14110285 -1.00099802
v -0.00017273 0.01734983 -0.91358161
v 0.01002429 0.02115520 -0.91848785
v 0.03002448 0.02135136 -0.91825199
v 0.09002505 0.00503141 -0.89339042
v 0.08551736 -0.02042926 -0.86055624
v 0.09002505 -0.03794574 -0.83725148
v 0.09002505 -0.04920493 -0.82210809
v 0.03002448 0.03049209 -0.92999870
v 0.05002467 0.03113940 -0.92999870
v 0.09002505 0.02276366 -0.91641212
v 0.09002505 0.01503523 -0.90641087
v 0.06429178 0.03978975 -0.94028294
v 0.07763982 0.04014283 -0.93981123
v 0.38219413 -0.04920493 -0.73025721
v 0.38998413 -0.04598802 -0.73096484
v 0.39668006 -0.03880881 -0.73822987
v 0.40998435 -0.03631767 -0.73440868
v 0.41611129 -0.01854619 -0.75785494
v 0.42919677 -0.00522739 -0.77045083
v 0.43536752 0.00171643 -0.77738565
v 0.40967798 -0.02568617 -0.75073141
v 0.44692123 0.01636907 -0.79257619
v 0.44692123 0.11942793 -0.89999503
v 0.44692123 0.10999297 -0.90056109
v 0.44398904 0.10999297 -0.90207076
v 0.42998451 0.10999297 -0.90900552
v 0.40285081 0.12342945 -0.92127120
v 0.40972173 0.13003981 -0.91509122
v 0.38980907 0.13003981 -0.92396021
v 0.34009308 0.14004362 -0.93999994
v 0.32998359 0.14153439 -0.94174540
v 0.30998337 0.14388824 -0.94509488
v 0.34805816 0.14392745 -0.93028176
v 0.26998299 0.14736015 -0.94995397
v 0.22998263 0.14490822 -0.96688998
v 0.19002602 0.14722283 -0.96995640
v 0.15002564 0.14396669 -0.98462802
v 0.13002545 0.14467284 -0.98604333
v 0.11002525 0.14514360 -0.98736423
v 0.09002505 0.14543784 -0.98859078
v 0.05002467 0.14626168 -0.98995888
v 0.03002448 0.14092630 -1.00085640
v 0.01002429 0.12998097 -1.00614011
v -0.00017273 0.12998097 -1.00618732
v -0.00017273 0.13564980 -1.00354540
v -0.00017273 0.02115520 -0.91848785
v 0.01002429 0.03009979 -0.92999870
v 0.09133798 -0.02660809 -0.85192311
v 0.11002525 0.01583945 -0.90537304
v 0.11002525 0.00583564 -0.89230537
v 0.11002525 -0.02705923 -0.84918690
v 0.11002525 -0.03706305 -0.83607209
v 0.11002525 -0.04449725 -0.82607085
v 0.11002525 -0.04920493 -0.81970215
v 0.03002448 0.03914245 -0.94108498
v 0.05002467 0.03947591 -0.94066036
v 0.11002525 0.02358750 -0.91537428
v 0.09002505 0.03276747 -0.92924386
v 0.11002525 0.04137859 -0.93825442
v 0.11002525 0.03359132 -0.92825317
v 0.05002467 0.04742011 -0.95066160
v 0.05002467 0.05740431 -0.96321034
v 0.07002486 0.05785546 -0.96259701
v 0.07059380 0.04638050 -0.94816130
v 0.09002505 0.04057436 -0.93924510
v 0.09002505 0.05850276 -0.96179503
v 0.09002505 0.04906780 -0.94995397
v 0.37007147 -0.04920493 -0.73662591
v 0.38333201 -0.04118226 -0.74181521
v 0.38998413 -0.03396383 -0.74908030
v 0.40280703 -0.02103733 -0.76158184
v 0.42206323 -0.00075510 -0.78111249
v 0.42919677 0.00697333 -0.78866059
v 0.44118813 0.01954675 -0.80069041
v 0.44692123 0.02580403 -0.80654013
v 0.44210720 0.09836108 -0.90108001
v 0.44692123 0.09288841 -0.89372063
v 0.41335416 0.10999297 -0.91693103
v 0.40162539 0.09883185 -0.92070508
v 0.40337595 0.10999297 -0.92150706
v 0.36048716 0.12056562 -0.94018865
v 0.34805816 0.12833327 -0.94179261
v 0.32998359 0.12998097 -0.94783103
v 0.30271855 0.12254676 -0.96089870
v 0.29418457 0.13588518 -0.95783228
v 0.28083649 0.14027901 -0.96023822
v 0.26998299 0.14165208 -0.96174788
v 0.24998282 0.14369208 -0.96438968
v 0.19002602 0.14143631 -0.98142010
v 0.17002583 0.14288785 -0.98307121
v 0.07549538 0.13923940 -0.99948835
v 0.06214733 0.14018093 -1.00014877
v 0.06932464 0.14461398 -0.99170434
v 0.05002467 0.14053401 -1.00047898
v 0.03002448 0.12998097 -1.00580990
v 0.01002429 0.10999297 -1.00930083
v -0.00017273 0.10999297 -1.00934803
v -0.00017273 0.03009979 -0.92999870
v -0.00017273 0.03459170 -0.93575412
v 0.01002429 0.03894629 -0.94132084
v 0.13002545 0.01682022 -0.90409929
v 0.13002545 0.00681641 -0.89103162
v 0.13002545 -0.00918969 -0.86999130
v 0.13002545 -0.02600001 -0.84786600
v 0.13002545 -0.03600382 -0.83465683
v 0.13002545 -0.04341841 -0.82465559
v 0.12052863 -0.04920493 -0.81814533
v 0.03002448 0.04706703 -0.95108616
v 0.13002545 0.02456827 -0.91410053
v 0.13002545 0.04235936 -0.93698066
v 0.11002525 0.05930699 -0.96080434
v 0.12140391 0.05983660 -0.96014392
v 0.12884381 0.05377547 -0.95155793
v 0.13002545 0.03457208 -0.92697942
v 0.03002448 0.05705123 -0.96363491
v 0.03002448 0.06517197 -0.97363615
v 0.05002467 0.06554466 -0.97321153
v 0.07002486 0.06607427 -0.97259825
v 0.09002505 0.06676081 -0.97179627
v 0.35002753 -0.04920493 -0.74657995
v 0.36998397 -0.04349687 -0.74521190
v 0.36998397 -0.03676882 -0.75521308
v 0.38998413 -0.02333233 -0.76493126
v 0.39624241 0.00128489 -0.79809570
v 0.40998435 0.00375642 -0.79441601
v 0.40998435 -0.00299125 -0.78441483
v 0.42998451 0.01744791 -0.80375677
v 0.42998451 0.02423481 -0.81375802
v 0.44657111 0.03739668 -0.82375926
v 0.44692123 0.03778899 -0.82413667
v 0.44692123 0.03678861 -0.82267421
v 0.42998451 0.09473225 -0.90405214
v 0.42998451 0.08472843 -0.89532465
v 0.44692123 0.08922035 -0.89046556
v 0.38998413 0.09553647 -0.92320538
v 0.34586996 0.09667416 -0.94226432
v 0.35921800 0.10387298 -0.93966967
v 0.40928411 0.09004419 -0.90966600
v 0.38998413 0.08553267 -0.91471380
v 0.38998413 0.10999297 -0.92726249
v 0.36048716 0.11721140 -0.94018865
v 0.31309062 0.10999297 -0.95750207
v 0.30306867 0.10999297 -0.96104026
v 0.28998321 0.10999297 -0.96519166
v 0.24035472 0.12029100 -0.98009920
v 0.28849521 0.12952980 -0.96250266
v 0.26998299 0.12998097 -0.96778631
v 0.24818850 0.12817636 -0.97453249
v 0.22998263 0.13357057 -0.97689122
v 0.21523413 0.13778786 -0.97873110
v 0.20188607 0.14039670 -0.98033506
v 0.11002525 0.13500249 -0.99736547
v 0.09002505 0.13767016 -0.99859202
v 0.09002505 0.12766635 -1.00293219
v 0.06932464 0.13153058 -1.00316799
v 0.05002467 0.12998097 -1.00496078
v 0.03002448 0.10999297 -1.00892341
v 0.03002448 0.09430071 -1.00397003
v 0.01002429 0.09404571 -1.00415874
v -0.00017273 0.09404571 -1.00415874
v -0.00017273 0.03894629 -0.94132084
v -0.00017273 0.05193163 -0.95773792
v 0.01002429 0.04687088 -0.95132208
v 0.15002564 0.03574900 -0.92546982
v 0.15002564 0.02574519 -0.91254371
v 0.15002564 0.01801676 -0.90254247
v 0.14127281 -0.00014703 -0.88018125
v 0.15002564 -0.01717312 -0.85626322
v 0.15002564 -0.02474463 -0.84626198
v 0.15002564 -0.03472883 -0.83291131
v 0.15002564 -0.04212380 -0.82291007
v 0.14083517 -0.04920493 -0.81484306
v 0.13002545 -0.04920493 -0.81673008
v 0.15002564 0.04351666 -0.93547106
v 0.15002564 0.05350086 -0.94811410
v 0.11002525 0.06762388 -0.97080559
v 0.13002545 0.07864769 -0.98151445
v 0.12884381 0.06727081 -0.96806937
v 0.13475196 0.06056237 -0.95924759
v 0.01002429 0.05685508 -0.96387076
v 0.01002429 0.06493659 -0.97387201
v 0.03002448 0.07517578 -0.98566592
v 0.05002467 0.07554847 -0.98519415
v 0.07002486 0.07607809 -0.98458087
v 0.09002505 0.07676462 -0.98373169
v 0.34215000 -0.04920493 -0.75025970
v 0.35007131 -0.04612532 -0.75110883
v 0.35676718 -0.03896573 -0.75851542
v 0.37659234 -0.01886003 -0.77832913
v 0.38293815 -0.00099048 -0.80144519
v 0.38972157 0.00640449 -0.80885178
v 0.40232563 0.01917406 -0.82116461
v 0.41562992 0.02156713 -0.81767362
v 0.40937164 0.01450561 -0.81059724
v 0.42867160 0.03512131 -0.83022231
v 0.43449223 0.04204552 -0.83706278
v 0.44692123 0.04345782 -0.83220369
v 0.41694283 0.08127614 -0.89853257
v 0.44692123 0.08484612 -0.88626689
v 0.44359517 0.07845154 -0.88187957
v 0.37523565 0.08188422 -0.91796893
v 0.32998359 0.09302571 -0.94523638
v 0.30136186 0.09920454 -0.96047413
v 0.32998359 0.08304152 -0.93693352
v 0.32998359 0.10999297 -0.95132208
v 0.35151550 0.11032642 -0.94316065
v 0.26998299 0.10999297 -0.97118300
v 0.24035472 0.11872178 -0.98009920
v 0.21002620 0.10999297 -0.98618484
v 0.19002602 0.10999297 -0.99019474
v 0.12604290 0.12235061 -1.00080919
v 0.22998263 0.12356676 -0.98127854
v 0.20915091 0.13066751 -0.98302406
v 0.19002602 0.12998097 -0.98693967
v 0.17002583 0.12998097 -0.99047780
v 0.15002564 0.12998097 -0.99373293
v 0.13164471 0.12941211 -0.99679935
v 0.11002525 0.12499868 -1.00179994
v 0.07002486 0.10999297 -1.00680053
v 0.05002467 0.10999297 -1.00807428
v 0.07002486 0.09557571 -1.00293219
v 0.05002467 0.09479109 -1.00354540
v 0.03002448 0.08429690 -0.99566710
v 0.01002429 0.08406152 -0.99590302
v -0.00017273 0.08404190 -0.99590302
v -0.00017273 0.08912227 -1.00010157
v -0.00017273 0.05685508 -0.96387076
v 0.17002583 0.03706323 -0.92377150
v 0.16634963 0.01911521 -0.90112722
v 0.14875647 0.00683603 -0.88810676
v 0.15457709 0.00071605 -0.87904906
v 0.17002583 0.00175566 -0.87763381
v 0.17002583 -0.01580004 -0.85442340
v 0.17002583 -0.02331271 -0.84442216
v 0.16634963 -0.04094688 -0.82130611
v 0.14893153 -0.04920493 -0.81338060
v 0.17002583 0.04485051 -0.93377274
v 0.17002583 0.05483470 -0.94646299
v 0.15002564 0.06150391 -0.95811534
v 0.11002525 0.07762770 -0.98269385
v 0.09002505 0.08672920 -0.99373293
v 0.14394242 0.07947154 -0.98057091
v -0.00017273 0.06095468 -0.96896571
v -0.00017273 0.06493659 -0.97387201
v -0.00017273 0.07001695 -0.98000479
v 0.01002429 0.07494040 -0.98590177
v 0.05002467 0.08480690 -0.99519539
v 0.07002486 0.08557190 -0.99458206
v 0.32998359 -0.04920493 -0.75577921
v 0.34341913 -0.04110380 -0.76162899
v 0.35554183 0.00138297 -0.81795663
v 0.36324430 -0.02107657 -0.78158426
v 0.36998397 0.00371719 -0.81456000
v 0.38998413 0.01705560 -0.82423103
v 0.38998413 0.02407789 -0.83423221
v 0.40998435 0.03755361 -0.84338427
v 0.40937164 0.02700057 -0.82871270
v 0.42114419 0.03957398 -0.84060097
v 0.44692123 0.05652162 -0.85074371
v 0.44692123 0.05418739 -0.84744138
v 0.43961263 0.06013083 -0.85980141
v 0.40359479 0.07860846 -0.90164614
v 0.42998451 0.07578386 -0.88532341
v 0.44692123 0.07562693 -0.87640721
v 0.36193138 0.07931461 -0.92075229
v 0.28998321 0.08668996 -0.95382237
v 0.28998321 0.09669378 -0.96221960
v 0.22473094 0.09824339 -0.98108983
v 0.23807898 0.10538337 -0.97948587
v 0.31772962 0.08068769 -0.93919790
v 0.24818850 0.11122873 -0.97731578
v 0.23085791 0.11122873 -0.98170316
v 0.12223543 0.09947915 -1.00029039
v 0.17002583 0.10999297 -0.99382728
v 0.15002564 0.10999297 -0.99722391
v 0.13619617 0.10999297 -0.99939400
v 0.12621796 0.10999297 -1.00080919
v 0.11002525 0.10999297 -1.00283778
v 0.09002505 0.10999297 -1.00505507
v 0.11002525 0.09832186 -1.00099802
v 0.09002505 0.09673301 -1.00208306
v -0.00017273 0.07956961 -0.99099672
v 0.19002602 0.03857360 -0.92183733
v 0.17969769 0.02005675 -0.89990067
v 0.17182015 0.02568634 -0.90867531
v 0.17182015 0.01287754 -0.89192796
v 0.19002602 0.00326604 -0.87565243
v 0.19002602 -0.00426624 -0.86565119
v 0.19002602 -0.01427005 -0.85230047
v 0.19002602 -0.02174349 -0.84229928
v 0.17182015 -0.03461114 -0.82875985
v 0.17965391 -0.03992689 -0.81989086
v 0.17142627 -0.04920493 -0.80885178
v 0.16328615 -0.04920493 -0.81050289
v 0.19002602 0.04636088 -0.93183851
v 0.19002602 0.05634508 -0.94457597
v 0.17002583 0.06285736 -0.95646417
v 0.19002602 0.06434812 -0.95457721
v 0.15037574 0.07288079 -0.97170192
v 0.17002583 0.07284155 -0.96844679
v 0.11002525 0.08831804 -0.99269509
v 0.15724671 0.08039346 -0.97953308
v -0.00017273 0.07494040 -0.98590177
v 0.30928317 -0.04920493 -0.76478976
v 0.32998359 -0.04316341 -0.76460105
v 0.34223753 -0.00067664 -0.82097590
v 0.34932733 0.00685564 -0.82857114
v 0.36184382 0.01940944 -0.84083682
v 0.36910868 0.01460369 -0.83064687
v 0.37519187 0.02158674 -0.83777040
v 0.38840863 0.03510169 -0.85031909
v 0.39405420 0.04202590 -0.85720676
v 0.40998435 0.04479166 -0.85338551
v 0.42626458 0.05769853 -0.86310369
v 0.44692123 0.06158237 -0.85777283
v 0.40998435 0.06213159 -0.87711483
v 0.43173510 0.06472082 -0.86984980
v 0.44692123 0.07139003 -0.87079334
v 0.38998413 0.07617616 -0.90471256
v 0.41015941 0.07286117 -0.89107883
v 0.39155966 0.06509351 -0.88961637
v 0.34998375 0.07741193 -0.92311108
v 0.36915243 0.07386155 -0.91075104
v 0.35733613 0.06079775 -0.89890999
v 0.35037765 0.06640773 -0.90895838
v 0.26998299 0.08298267 -0.95693594
v 0.26998299 0.09298648 -0.96514452
v 0.21002620 0.08592497 -0.97457963
v 0.21002620 0.09592878 -0.98264664
v 0.24976400 0.08855343 -0.96679568
v 0.25628483 0.08094268 -0.95896453
v 0.32998359 0.07439117 -0.92693228
v 0.31063986 0.07250810 -0.93150830
v 0.30442536 0.07872615 -0.94146234
v 0.19002602 0.09339841 -0.98467517
v 0.17002583 0.09143688 -0.98646790
v 0.17002583 0.08143307 -0.97844803
v 0.20245501 0.03959360 -0.92051637
v 0.19002602 0.02943287 -0.90999627
v 0.19002602 0.02088059 -0.89886278
v 0.19002602 0.01326985 -0.88886154
v 0.21002620 0.01493715 -0.88664430
v 0.21002620 0.00493334 -0.87338799
v 0.21002620 -0.00255971 -0.86338675
v 0.20328653 -0.02058619 -0.84078962
v 0.19002602 -0.03080576 -0.82998645
v 0.19002602 -0.03904419 -0.81866431
v 0.19002602 -0.04630186 -0.80866307
v 0.19002602 -0.04920493 -0.80465311
v 0.17624032 -0.04920493 -0.80776674
v 0.21002620 0.05803199 -0.94245303
v 0.19002602 0.07435194 -0.96660697
v 0.21002620 0.06603505 -0.95245427
v 0.21002620 0.07603885 -0.96457839
v 0.29803580 -0.04920493 -0.76936579
v 0.30149317 -0.04043688 -0.78059357
v 0.32998359 -0.00246163 -0.82352334
v 0.32998359 0.00452142 -0.83352458
v 0.34998375 0.01754599 -0.84338427
v 0.34998375 0.02482327 -0.85338551
v 0.36998397 0.03800476 -0.86267912
v 0.38070616 0.03975052 -0.86032033
v 0.39926213 0.06022891 -0.87966233
v 0.40998435 0.05477585 -0.86711359
v 0.36998397 0.06283775 -0.89622098
v 0.38595784 0.05797315 -0.88268155
v 0.32998359 0.06438736 -0.91424203
v 0.34398809 0.05875776 -0.90159899
v 0.36998397 0.05534470 -0.88621974
v 0.34998375 0.04220244 -0.87702048
v 0.33847380 0.04043706 -0.87937927
v 0.19002602 0.08339459 -0.97660816
v 0.24293679 0.07931461 -0.96075720
v 0.28998321 0.07678424 -0.94382113
v 0.26998299 0.07429309 -0.94693470
v 0.24976400 0.07319463 -0.95136923
v 0.30998337 0.06158237 -0.91792172
v 0.29939246 0.06015045 -0.91976160
v 0.29160246 0.06552505 -0.92919672
v 0.20945726 0.04689050 -0.92830038
v 0.21575929 0.04075090 -0.91900676
v 0.20945726 0.03380708 -0.91141152
v 0.21002620 0.02256751 -0.89664555
v 0.22998263 0.01682022 -0.88419116
v 0.22556245 -0.00108856 -0.86145258
v 0.21663457 -0.01937003 -0.83913851
v 0.20998244 -0.01366198 -0.84847927
v 0.20998244 -0.02615693 -0.83144885
v 0.21002620 -0.03723959 -0.81616396
v 0.19711579 -0.04920493 -0.80286044
v 0.22359307 0.05926776 -0.94089627
v 0.23015769 0.06672158 -0.94853872
v 0.22998263 0.07794154 -0.96231401
v 0.28902039 -0.04920493 -0.77299833
v 0.30998337 -0.00530585 -0.82758045
v 0.30998337 0.00167720 -0.83758169
v 0.32998359 0.01452523 -0.84753573
v 0.32998359 0.02180251 -0.85753697
v 0.34998375 0.03482708 -0.86701930
v 0.36998397 0.04536050 -0.87268037
v 0.32998359 0.05671777 -0.90424085
v 0.33107769 0.04565473 -0.88919181
v 0.33107769 0.03255170 -0.87164247
v 0.32512575 0.03851476 -0.88197392
v 0.23689735 0.06060160 -0.93919790
v 0.26998299 0.06428928 -0.93452752
v 0.24998282 0.06199429 -0.93740523
v 0.30998337 0.05391278 -0.90792048
v 0.28604442 0.05844392 -0.92197883
v 0.28998321 0.04130013 -0.89829671
v 0.29160246 0.05208855 -0.91183609
v 0.23015769 0.05324586 -0.93150830
v 0.22998263 0.04212397 -0.91721410
v 0.22998263 0.02445058 -0.89419240
v 0.24656922 0.01854637 -0.88192677
v 0.23886673 0.00022566 -0.85965985
v 0.23129556 0.00558065 -0.86885911
v 0.22998263 -0.01803619 -0.83725148
v 0.21002620 -0.04445802 -0.80616277
v 0.21002620 -0.04920493 -0.79955816
v 0.26998299 -0.04920493 -0.78012180
v 0.29926118 0.00020605 -0.83970463
v 0.31917384 0.02023328 -0.85965985
v 0.30998337 0.04392859 -0.89480567
v 0.30998337 0.03639630 -0.88480449
v 0.24998282 0.05418739 -0.92740405
v 0.24998282 0.04420320 -0.91452509
v 0.26998299 0.05646277 -0.92452633
v 0.27991745 0.04002514 -0.89994782
v 0.28998321 0.03372862 -0.88829547
v 0.24998282 0.03653361 -0.90452385
v 0.25195220 0.02523519 -0.88914460
v 0.25991726 0.02001752 -0.87994540
v 0.25195220 0.01228908 -0.87197268
v 0.24998282 0.00146143 -0.85800874
v 0.24998282 -0.00585508 -0.84800750
v 0.24998282 -0.01585890 -0.83418506
v 0.22998263 -0.02523501 -0.82725024
v 0.22945745 -0.04920493 -0.79394430
v 0.25007033 -0.04920493 -0.78724533
v 0.26998299 -0.04465418 -0.78658485
v 0.27816689 -0.01952696 -0.81932473
v 0.29155871 -0.00732623 -0.83182627
v 0.28591314 -0.00150048 -0.84206337
v 0.29155871 0.00514911 -0.84923404
v 0.30582580 0.01838944 -0.86216021
v 0.31147137 0.02525480 -0.86928368
v 0.28998321 0.02374443 -0.87499195
v 0.26656941 0.03843630 -0.90202355
v 0.26998299 0.02123366 -0.87834144
v 0.27195239 0.03204171 -0.89197516
v 0.26998299 0.01379946 -0.86834019
v 0.26998299 0.00379565 -0.85480082
v 0.26998299 -0.00348163 -0.84479958
v 0.24998282 -0.02299887 -0.82418382
v 0.24354950 -0.04084881 -0.80120933
v 0.22998263 -0.03523882 -0.81328624
v 0.26481885 -0.02119426 -0.82168353
v 0.27090204 -0.01450544 -0.82899576
v 0.28998321 0.01631022 -0.86499071
f 1 2 3
f 1 3 4
f 1 4 8
f 1 8 15
f 1 15 28
f 1 28 27
f 1 27 47
f 1 47 76
f 1 76 75
f 1 75 74
f 1 74 114
f 1 114 167
f 1 167 223
f 1 223 222
f 1 222 289
f 1 289 352
f 1 352 351
f 1 351 407
f 1 407 410
f 1 410 356
f 1 356 291
f 1 291 226
f 1 226 169
f 1 169 116
f 1 116 115
f 1 115 77
f 1 77 48
f 1 48 29
f 1 29 16
f 1 16 9
f 1 9 5
f 1 5 6
f 1 6 2
f 2 6 10
f 2 10 18
f 2 18 36
f 2 36 58
f 2 58 92
f 2 92 137
f 2 137 136
f 2 136 189
f 2 189 252
f 2 252 318
f 2 318 317
f 2 317 374
f 2 374 395
f 2 395 337
f 2 337 336
f 2 336 335
f 2 335 319
f 2 319 254
f 2 254 253
f 2 253 191
f 2 191 190
f 2 190 138
f 2 138 93
f 2 93 59
f 2 59 37
f 2 37 19
f 2 19 11
f 2 11 7
f 2 7 12
f 2 12 22
f 2 22 41
f 2 41 66
f 2 66 65
f 2 65 99
f 2 99 146
f 2 146 199
f 2 199 265
f 2 265 264
f 2 264 328
f 2 328 386
f 2 386 385
f 2 385 442
f 2 442 441
f 2 441 482
f 2 482 512
f 2 512 531
f 2 531 532
f 2 532 513
f 2 513 486
f 2 486 447
f 2 447 396
f 2 396 341
f 2 341 278
f 2 278 212
f 2 212 160
f 2 160 106
f 2 106 70
f 2 70 44
f 2 44 24
f 2 24 13
f 2 13 8
f 2 8 4
f 2 4 3
f 5 9 6
f 6 9 10
f 7 11 12
f 8 13 14
f 8 14 15
f 9 16 17
f 9 17 18
f 9 18 10
f 11 19 20
f 11 20 12
f 12 21 22
f 12 20 23
f 12 23 21
f 13 24 25
f 13 25 14
f 14 25 26
f 14 26 27
f 14 27 28
f 14 28 15
f 16 29 30
f 16 30 31
f 16 31 17
f 17 31 32
f 17 32 33
f 17 33 34
f 17 34 35
f 17 35 18
f 18 35 36
f 19 37 20
f 20 37 38
f 20 38 39
f 20 39 23
f 21 23 40
f 21 40 22
f 22 40 42
f 22 42 41
f 23 39 43
f 23 43 40
f 24 44 45
f 24 45 25
f 25 45 26
f 26 45 46
f 26 46 27
f 27 46 47
f 29 48 49
f 29 49 50
f 29 50 51
f 29 51 30
f 30 51 31
f 31 51 52
f 31 52 53
f 31 53 32
f 32 53 54
f 32 54 33
f 33 54 55
f 33 55 56
f 33 56 34
f 34 56 57
f 34 57 36
f 34 36 35
f 36 57 58
f 37 59 38
f 38 59 60
f 38 60 61
f 38 61 39
f 39 61 43
f 40 62 63
f 40 63 64
f 40 64 65
f 40 65 42
f 40 43 62
f 41 42 66
f 42 65 66
f 43 61 67
f 43 67 68
f 43 68 69
f 43 69 62
f 44 70 71
f 44 71 45
f 45 71 46
f 46 72 73
f 46 73 74
f 46 74 75
f 46 75 76
f 46 76 47
f 46 71 72
f 48 77 78
f 48 78 49
f 49 78 79
f 49 79 80
f 49 80 50
f 50 80 81
f 50 81 51
f 51 81 82
f 51 82 83
f 51 83 52
f 52 83 82
f 52 82 84
f 52 84 85
f 52 85 53
f 53 85 54
f 54 85 55
f 55 86 87
f 55 87 88
f 55 88 89
f 55 89 56
f 55 85 86
f 56 89 90
f 56 90 57
f 57 90 91
f 57 91 58
f 58 91 92
f 59 93 60
f 60 93 94
f 60 94 61
f 61 94 95
f 61 95 67
f 62 96 63
f 62 69 103
f 62 103 96
f 63 96 97
f 63 97 64
f 64 97 98
f 64 98 99
f 64 99 65
f 67 95 100
f 67 100 101
f 67 101 68
f 68 102 103
f 68 103 69
f 68 101 104
f 68 104 105
f 68 105 102
f 70 106 107
f 70 107 108
f 70 108 71
f 71 108 109
f 71 109 72
f 72 109 73
f 73 110 111
f 73 111 112
f 73 112 74
f 73 109 113
f 73 113 110
f 74 112 114
f 77 115 78
f 78 115 116
f 78 116 117
f 78 117 118
f 78 118 119
f 78 119 79
f 79 119 120
f 79 120 80
f 80 119 121
f 80 121 122
f 80 122 81
f 80 120 119
f 81 122 82
f 82 122 123
f 82 123 124
f 82 124 125
f 82 125 84
f 84 125 124
f 84 124 126
f 84 126 85
f 85 126 86
f 86 126 127
f 86 127 128
f 86 128 87
f 87 128 129
f 87 129 130
f 87 130 88
f 88 130 131
f 88 131 132
f 88 132 89
f 89 132 133
f 89 133 90
f 90 133 134
f 90 134 91
f 91 135 136
f 91 136 137
f 91 137 92
f 91 134 135
f 93 138 94
f 94 138 190
f 94 190 139
f 94 139 95
f 95 139 100
f 96 140 98
f 96 98 97
f 96 103 141
f 96 141 140
f 98 140 142
f 98 142 143
f 98 143 144
f 98 144 99
f 99 145 146
f 99 144 145
f 100 139 147
f 100 147 101
f 101 147 148
f 101 148 104
f 102 149 141
f 102 141 103
f 102 105 150
f 102 150 151
f 102 151 152
f 102 152 149
f 104 148 153
f 104 153 154
f 104 154 155
f 104 155 156
f 104 156 105
f 105 157 150
f 105 156 155
f 105 155 158
f 105 158 159
f 105 159 157
f 106 160 161
f 106 161 107
f 107 161 108
f 108 161 162
f 108 162 163
f 108 163 113
f 108 113 109
f 110 113 163
f 110 163 112
f 110 112 111
f 112 163 164
f 112 164 165
f 112 165 166
f 112 166 114
f 114 166 167
f 116 168 117
f 116 169 168
f 117 168 118
f 118 170 119
f 118 168 171
f 118 171 170
f 119 170 172
f 119 172 173
f 119 173 121
f 121 173 122
f 122 173 174
f 122 174 175
f 122 175 176
f 122 176 177
f 122 177 178
f 122 178 123
f 123 178 124
f 124 178 179
f 124 179 180
f 124 180 126
f 126 180 127
f 127 180 181
f 127 181 182
f 127 182 128
f 128 182 129
f 129 182 183
f 129 183 184
f 129 184 130
f 130 184 131
f 131 184 132
f 132 184 185
f 132 185 133
f 133 185 186
f 133 186 134
f 134 186 187
f 134 187 135
f 135 187 188
f 135 188 189
f 135 189 136
f 139 190 191
f 139 191 192
f 139 192 147
f 140 141 142
f 141 149 201
f 141 201 193
f 141 193 194
f 141 194 142
f 142 194 143
f 143 194 144
f 144 194 195
f 144 195 196
f 144 196 197
f 144 197 145
f 145 198 146
f 145 197 198
f 146 198 199
f 147 192 255
f 147 255 200
f 147 200 148
f 148 200 153
f 149 152 206
f 149 206 201
f 150 157 151
f 151 202 206
f 151 206 152
f 151 157 159
f 151 159 203
f 151 203 204
f 151 204 205
f 151 205 202
f 153 200 207
f 153 207 154
f 154 207 208
f 154 208 209
f 154 209 155
f 155 209 210
f 155 210 158
f 158 210 211
f 158 211 203
f 158 203 159
f 160 212 213
f 160 213 161
f 161 213 214
f 161 214 215
f 161 215 162
f 162 215 163
f 163 215 216
f 163 216 217
f 163 217 218
f 163 218 164
f 164 218 219
f 164 219 165
f 165 219 166
f 166 219 220
f 166 220 221
f 166 221 222
f 166 222 223
f 166 223 167
f 168 224 171
f 168 169 225
f 168 225 224
f 169 226 225
f 170 171 172
f 171 227 228
f 171 228 229
f 171 229 172
f 171 224 230
f 171 230 231
f 171 231 227
f 172 229 232
f 172 232 233
f 172 233 173
f 173 233 234
f 173 234 176
f 173 176 174
f 174 176 175
f 176 234 235
f 176 235 236
f 176 236 237
f 176 237 238
f 176 238 177
f 177 238 178
f 178 238 239
f 178 239 240
f 178 240 241
f 178 241 242
f 178 242 243
f 178 243 179
f 179 243 180
f 180 243 181
f 181 243 244
f 181 244 245
f 181 245 183
f 181 183 182
f 183 245 246
f 183 246 247
f 183 247 184
f 184 186 185
f 184 247 248
f 184 248 187
f 184 187 186
f 187 248 312
f 187 312 249
f 187 249 188
f 188 249 250
f 188 250 251
f 188 251 189
f 189 251 252
f 191 253 192
f 192 253 254
f 192 254 255
f 193 201 256
f 193 256 257
f 193 257 258
f 193 258 259
f 193 259 194
f 194 259 195
f 195 259 196
f 196 259 197
f 197 259 260
f 197 260 261
f 197 261 262
f 197 262 198
f 198 263 264
f 198 264 265
f 198 265 199
f 198 262 263
f 200 255 272
f 200 272 207
f 201 206 266
f 201 266 256
f 202 266 206
f 202 205 267
f 202 267 266
f 203 211 268
f 203 268 204
f 204 268 269
f 204 269 270
f 204 270 271
f 204 271 205
f 205 271 267
f 207 272 273
f 207 273 208
f 208 273 338
f 208 338 274
f 208 274 209
f 209 274 275
f 209 275 276
f 209 276 210
f 210 276 211
f 211 276 277
f 211 277 268
f 212 278 279
f 212 279 280
f 212 280 213
f 213 280 214
f 214 280 281
f 214 281 215
f 215 281 216
f 216 281 282
f 216 282 283
f 216 283 284
f 216 284 285
f 216 285 286
f 216 286 217
f 217 286 285
f 217 285 219
f 217 219 218
f 219 285 220
f 220 285 287
f 220 287 222
f 220 222 221
f 222 287 288
f 222 288 289
f 224 225 290
f 224 290 230
f 225 226 291
f 225 291 292
f 225 292 290
f 227 231 293
f 227 293 228
f 228 294 295
f 228 295 229
f 228 293 296
f 228 296 294
f 229 233 232
f 229 295 297
f 229 297 298
f 229 298 233
f 230 290 231
f 231 290 293
f 233 298 297
f 233 297 234
f 234 297 295
f 234 295 235
f 235 295 236
f 236 299 300
f 236 300 237
f 236 295 299
f 237 300 301
f 237 301 302
f 237 302 303
f 237 303 304
f 237 304 241
f 237 241 240
f 237 240 239
f 237 239 238
f 241 304 242
f 242 304 305
f 242 305 243
f 243 305 306
f 243 306 307
f 243 307 308
f 243 308 244
f 244 308 309
f 244 309 303
f 244 303 310
f 244 310 245
f 245 310 246
f 246 310 311
f 246 311 312
f 246 312 248
f 246 248 247
f 249 312 313
f 249 313 314
f 249 314 250
f 250 314 315
f 250 315 316
f 250 316 251
f 251 316 317
f 251 317 318
f 251 318 252
f 254 319 272
f 254 272 255
f 256 266 320
f 256 320 257
f 257 320 258
f 258 320 321
f 258 321 322
f 258 322 259
f 259 322 260
f 260 322 323
f 260 323 324
f 260 324 261
f 261 325 326
f 261 326 262
f 261 324 325
f 262 327 263
f 262 326 327
f 263 327 328
f 263 328 264
f 266 329 320
f 266 267 330
f 266 330 329
f 267 271 331
f 267 331 330
f 268 277 332
f 268 332 269
f 269 332 333
f 269 333 334
f 269 334 271
f 269 271 270
f 271 334 331
f 272 319 335
f 272 335 273
f 273 336 337
f 273 337 338
f 273 335 336
f 274 338 316
f 274 316 315
f 274 315 275
f 275 315 339
f 275 339 276
f 276 339 340
f 276 340 277
f 277 340 332
f 278 341 342
f 278 342 279
f 279 342 280
f 280 342 343
f 280 343 344
f 280 344 282
f 280 282 281
f 282 345 346
f 282 346 283
f 282 344 345
f 283 346 284
f 284 346 347
f 284 347 348
f 284 348 349
f 284 349 285
f 285 349 350
f 285 350 287
f 287 350 288
f 288 351 352
f 288 352 289
f 288 350 353
f 288 353 351
f 290 354 293
f 290 292 355
f 290 355 354
f 291 356 292
f 292 356 353
f 292 353 355
f 293 354 357
f 293 357 296
f 294 296 295
f 295 358 359
f 295 359 360
f 295 360 361
f 295 361 299
f 295 296 362
f 295 362 358
f 296 357 362
f 299 361 363
f 299 363 300
f 300 363 361
f 300 361 364
f 300 364 301
f 301 364 361
f 301 361 360
f 301 360 302
f 302 360 365
f 302 365 366
f 302 366 303
f 303 309 308
f 303 308 307
f 303 307 306
f 303 306 304
f 303 366 367
f 303 367 368
f 303 368 369
f 303 369 370
f 303 370 371
f 303 371 311
f 303 311 310
f 304 306 305
f 311 371 365
f 311 365 372
f 311 372 373
f 311 373 312
f 312 373 313
f 313 373 333
f 313 333 340
f 313 340 314
f 314 340 339
f 314 339 315
f 316 338 317
f 317 338 374
f 320 329 387
f 320 387 375
f 320 375 376
f 320 376 377
f 320 377 321
f 321 377 376
f 321 376 378
f 321 378 324
f 321 324 323
f 321 323 322
f 324 379 325
f 324 378 376
f 324 376 379
f 325 379 380
f 325 380 326
f 326 380 381
f 326 381 382
f 326 382 383
f 326 383 327
f 327 383 384
f 327 384 385
f 327 385 386
f 327 386 328
f 329 330 388
f 329 388 387
f 330 331 389
f 330 389 390
f 330 390 388
f 331 334 391
f 331 391 392
f 331 392 389
f 332 340 333
f 333 373 393
f 333 393 334
f 334 393 394
f 334 394 391
f 337 395 338
f 338 395 374
f 341 396 397
f 341 397 342
f 342 397 398
f 342 398 343
f 343 398 399
f 343 399 400
f 343 400 401
f 343 401 345
f 343 345 344
f 345 401 346
f 346 401 402
f 346 402 347
f 347 402 403
f 347 403 348
f 348 350 349
f 348 403 404
f 348 404 405
f 348 405 406
f 348 406 353
f 348 353 350
f 351 353 407
f 353 406 408
f 353 408 409
f 353 409 355
f 353 356 410
f 353 410 407
f 354 411 357
f 354 355 412
f 354 412 413
f 354 413 411
f 355 409 408
f 355 408 412
f 357 414 362
f 357 411 415
f 357 415 416
f 357 416 417
f 357 417 414
f 358 418 359
f 358 362 418
f 359 418 419
f 359 419 360
f 360 420 421
f 360 421 365
f 360 419 422
f 360 422 423
f 360 423 420
f 362 414 424
f 362 424 425
f 362 425 426
f 362 426 418
f 365 393 372
f 365 371 370
f 365 370 369
f 365 369 368
f 365 368 367
f 365 367 366
f 365 421 427
f 365 427 428
f 365 428 429
f 365 429 394
f 365 394 393
f 372 393 373
f 375 387 430
f 375 430 431
f 375 431 376
f 376 431 432
f 376 432 433
f 376 433 379
f 379 433 434
f 379 434 435
f 379 435 380
f 380 435 381
f 381 435 436
f 381 436 382
f 382 436 437
f 382 437 438
f 382 438 384
f 382 384 383
f 384 438 439
f 384 439 440
f 384 440 441
f 384 441 442
f 384 442 385
f 387 388 443
f 387 443 430
f 388 390 445
f 388 445 443
f 389 392 444
f 389 444 390
f 390 444 446
f 390 446 445
f 391 394 392
f 392 394 429
f 392 429 444
f 396 447 448
f 396 448 449
f 396 449 398
f 396 398 397
f 398 449 450
f 398 450 451
f 398 451 399
f 399 451 400
f 400 402 401
f 400 451 452
f 400 452 453
f 400 453 454
f 400 454 402
f 402 454 403
f 403 454 404
f 404 454 455
f 404 455 456
f 404 456 405
f 405 456 406
f 406 456 408
f 408 455 412
f 408 456 455
f 411 413 457
f 411 457 415
f 412 455 413
f 413 455 458
f 413 458 457
f 414 417 459
f 414 459 424
f 415 457 416
f 416 460 417
f 416 457 461
f 416 461 462
f 416 462 463
f 416 463 460
f 417 460 459
f 418 423 419
f 418 426 423
f 419 423 422
f 420 464 427
f 420 427 421
f 420 423 465
f 420 465 464
f 423 426 466
f 423 466 467
f 423 467 468
f 423 468 465
f 424 459 469
f 424 469 425
f 425 469 470
f 425 470 471
f 425 471 426
f 426 471 466
f 427 464 429
f 427 429 428
f 429 464 446
f 429 446 444
f 430 443 472
f 430 472 473
f 430 473 474
f 430 474 475
f 430 475 432
f 430 432 431
f 432 475 434
f 432 434 433
f 434 476 435
f 434 475 506
f 434 506 476
f 435 477 436
f 435 476 477
f 436 477 478
f 436 478 479
f 436 479 437
f 437 479 478
f 437 478 480
f 437 480 439
f 437 439 438
f 439 480 440
f 440 480 481
f 440 481 441
f 441 481 482
f 443 445 483
f 443 483 473
f 443 473 472
f 445 484 483
f 445 446 485
f 445 485 484
f 446 464 485
f 447 486 448
f 448 486 487
f 448 487 449
f 449 487 488
f 449 488 450
f 450 488 489
f 450 489 451
f 451 489 490
f 451 490 452
f 452 490 491
f 452 491 453
f 453 491 492
f 453 492 454
f 454 492 461
f 454 461 458
f 454 458 455
f 457 458 461
f 459 460 493
f 459 493 500
f 459 500 469
f 460 463 494
f 460 494 493
f 461 492 491
f 461 491 462
f 462 491 463
f 463 491 490
f 463 490 495
f 463 495 496
f 463 496 494
f 464 465 485
f 465 468 497
f 465 497 484
f 465 484 485
f 466 471 498
f 466 498 467
f 467 498 468
f 468 498 499
f 468 499 497
f 469 500 470
f 470 501 471
f 470 500 502
f 470 502 503
f 470 503 501
f 471 501 498
f 473 475 474
f 473 483 504
f 473 504 505
f 473 505 506
f 473 506 475
f 476 506 507
f 476 507 508
f 476 508 509
f 476 509 477
f 477 509 508
f 477 508 478
f 478 481 480
f 478 508 510
f 478 510 511
f 478 511 481
f 481 511 482
f 482 511 512
f 483 497 504
f 483 484 497
f 486 513 514
f 486 514 488
f 486 488 487
f 488 514 515
f 488 515 489
f 489 515 490
f 490 515 495
f 493 494 496
f 493 496 516
f 493 516 500
f 495 515 496
f 496 517 516
f 496 515 517
f 497 499 518
f 497 518 519
f 497 519 505
f 497 505 504
f 498 501 520
f 498 520 499
f 499 520 518
f 500 516 502
f 501 503 502
f 501 502 521
f 501 521 520
f 502 516 522
f 502 522 521
f 505 519 506
f 506 519 523
f 506 523 507
f 507 523 524
f 507 524 525
f 507 525 526
f 507 526 508
f 508 526 527
f 508 527 528
f 508 528 510
f 510 528 529
f 510 529 530
f 510 530 511
f 511 530 512
f 512 530 531
f 513 532 533
f 513 533 534
f 513 534 535
f 513 535 514
f 514 535 536
f 514 536 537
f 514 537 538
f 514 538 515
f 515 538 539
f 515 539 517
f 516 517 522
f 517 539 538
f 517 538 540
f 517 540 522
f 518 520 519
f 519 520 523
f 520 521 541
f 520 541 523
f 521 522 542
f 521 542 543
f 521 543 541
f 522 540 542
f 523 541 525
f 523 525 524
f 525 541 543
f 525 543 542
f 525 542 544
f 525 544 527
f 525 527 526
f 527 544 545
f 527 545 528
f 528 546 529
f 528 545 546
f 529 546 547
f 529 547 548
f 529 548 531
f 529 531 549
f 529 549 530
f 530 549 531
f 531 548 532
f 532 548 547
f 532 547 550
f 532 550 534
f 532 534 533
f 534 550 551
f 534 551 536
f 534 536 535
f 536 546 545
f 536 545 537
f 536 551 546
f 537 545 552
f 537 552 538
f 538 552 540
f 540 552 544
f 540 544 542
f 544 552 545
f 546 551 550
f 546 550 547
