v 0.00001785 0.10998118 1.00932956
v 0.00001785 0.12004739 1.00783312
v -0.01002140 0.10998118 1.00937498
v 0.00001785 0.10202689 1.00679004
v 0.00001785 0.12999518 1.00629127
v -0.01002140 0.12999518 1.00629127
v -0.03001337 0.12999518 1.00597382
v -0.03001337 0.10998118 1.00901222
v -0.03001337 0.09421077 1.00402379
v -0.01002140 0.09397392 1.00415993
v 0.00001785 0.09397392 1.00415993
v 0.00001785 0.13564016 1.00370634
v -0.01002140 0.14120619 1.00112152
v -0.03001337 0.14106803 1.00098550
v -0.05000533 0.12999518 1.00533891
v -0.05000533 0.14075223 1.00066805
v -0.05000533 0.10998118 1.00833201
v -0.05000533 0.09468447 1.00366104
v -0.03001337 0.08420376 0.99581569
v -0.01002140 0.08396691 0.99604243
v 0.00001785 0.08396691 0.99604243
v 0.00001785 0.14120619 1.00112152
v 0.00001785 0.14412737 0.99549824
v -0.01002140 0.14698933 0.98996568
v -0.03001337 0.14685117 0.98996568
v -0.05000533 0.14651562 0.98996568
v -0.07142529 0.13190974 1.00347960
v -0.09003253 0.12881093 1.00329828
v -0.06571330 0.14037721 1.00030518
v -0.07904127 0.13986403 0.99989706
v -0.09003253 0.14564717 0.98928547
v -0.07004057 0.10998118 1.00719821
v -0.09003253 0.09646086 1.00230050
v -0.07004057 0.09541477 1.00307155
v -0.05000533 0.08467747 0.99536222
v -0.05000533 0.07528234 0.98538548
v -0.03001337 0.07488758 0.98579359
v -0.01002140 0.07467046 0.98606575
v 0.00001785 0.07934830 0.99109942
v 0.00001785 0.14698933 0.98996568
v -0.11002450 0.15139082 0.96996689
v -0.13001646 0.15109476 0.96996689
v -0.09003253 0.13879819 0.99930751
v -0.11002450 0.12632397 1.00225520
v -0.11002450 0.14541031 0.98806107
v -0.13001646 0.14497608 0.98670059
v -0.15000843 0.14432475 0.98520410
v -0.17000039 0.14329839 0.98361689
v -0.15000843 0.15044342 0.96996689
v -0.09003253 0.10998118 1.00561106
v -0.11002450 0.09796093 1.00125754
v -0.09003253 0.08645386 0.99391103
v -0.07004057 0.08540776 0.99472731
v -0.07004057 0.07585473 0.98475063
v -0.07004057 0.06584772 0.97300529
v -0.05000533 0.06529507 0.97364014
v -0.03001337 0.06490031 0.97409368
v 0.00001785 0.07467046 0.98606575
v -0.01002140 0.06468320 0.97432041
v 0.00001785 0.15064080 0.96996689
v -0.09003253 0.15137109 0.96996689
v -0.28999546 0.15131187 0.92996931
v -0.21002759 0.15133162 0.94996810
v -0.22997630 0.15127242 0.94996810
v -0.11002450 0.13633099 0.99808311
v -0.19003563 0.14191675 0.98189366
v -0.13001646 0.12288962 1.00098550
v -0.17000039 0.14933811 0.96996689
v -0.19003563 0.14781831 0.96996689
v -0.22997630 0.14521295 0.96760881
v -0.24996826 0.15026578 0.94996810
v -0.14126736 0.12061979 1.00016916
v -0.11002450 0.10998118 1.00352502
v -0.12352557 0.09922414 1.00044131
v -0.11002450 0.08795393 0.99286801
v -0.13001646 0.07849957 0.98162150
v -0.11002450 0.07743374 0.98289132
v -0.09003253 0.07656528 0.98388898
v -0.09003253 0.06655828 0.97214365
v -0.09003253 0.05818950 0.96216691
v -0.07004057 0.05749868 0.96298319
v -0.05000533 0.05696576 0.96366346
v -0.03001337 0.05661049 0.96407157
v -0.01002140 0.05641311 0.96434367
v 0.00001785 0.06468320 0.97432041
v 0.00001785 0.06057776 0.96937740
v 0.00001785 0.14485766 0.95223558
v -0.44196901 0.14797622 0.84942997
v -0.42998248 0.15103555 0.86997294
v -0.34997135 0.15099609 0.90997052
v -0.30998743 0.15044342 0.92996931
v -0.38999856 0.15101582 0.88997173
v -0.13001646 0.13287689 0.99667734
v -0.20366652 0.14073248 0.98066920
v -0.24996826 0.14416684 0.96511459
v -0.26996022 0.14837097 0.94996810
v -0.14126736 0.11777756 1.00016916
v -0.14875352 0.12835696 0.99563432
v -0.17000039 0.12999518 0.99137151
v -0.19003563 0.12999518 0.98778898
v -0.21020068 0.13117945 0.98357153
v -0.22997630 0.12500155 0.98180294
v -0.24174646 0.12135008 0.98044246
v -0.21002759 0.10998118 0.98692733
v -0.19003563 0.10998118 0.99082732
v -0.13014628 0.11065225 1.00103080
v -0.13689682 0.10443489 0.99948895
v -0.22590867 0.09794119 0.98130411
v -0.21002759 0.09559241 0.98298198
v -0.19003563 0.09322388 0.98493201
v -0.17000039 0.09130933 0.98674595
v -0.17000039 0.08132206 0.97858316
v -0.15779752 0.08031544 0.97962618
v -0.13014628 0.09152645 0.99304944
v -0.14446953 0.07938777 0.98066920
v -0.12975684 0.06705172 0.96819830
v -0.12296302 0.05965009 0.96039832
v -0.11002450 0.06744647 0.97114599
v -0.11002450 0.05901849 0.96116924
v -0.09574452 0.04030716 0.93958324
v -0.08946998 0.04674165 0.94810879
v -0.07004057 0.04753115 0.95069373
v -0.05000533 0.04699824 0.95132858
v -0.03001337 0.04664296 0.95178205
v -0.01002140 0.04644558 0.95200878
v 0.00001785 0.05145895 0.95822155
v 0.00001785 0.05641311 0.96434367
v -0.44196901 0.14252862 0.83555323
v 0.00001785 -0.05024932 0.61592925
v -0.44196901 -0.02241919 0.54609215
v -0.44196901 0.15056184 0.86997294
v -0.40999052 0.15016709 0.88997173
v -0.36996332 0.14955524 0.90997052
v -0.32997939 0.14817360 0.92996931
v -0.21699449 0.13864028 0.97921807
v -0.26996022 0.14241019 0.96257508
v -0.28294203 0.14089039 0.96085179
v -0.30998743 0.14444317 0.94615883
v -0.17000039 0.10998118 0.99450058
v -0.14875352 0.11065225 0.99821919
v -0.22997630 0.13498881 0.97758549
v -0.24174646 0.11503402 0.98044246
v -0.24905953 0.12881093 0.97536337
v -0.26996022 0.12999518 0.96928668
v -0.28977910 0.13046889 0.96352738
v -0.30453506 0.12413310 0.96148670
v -0.28999546 0.10998118 0.96665645
v -0.26996022 0.10998118 0.97241575
v -0.23153411 0.10901403 0.98221105
v -0.23923664 0.10169135 0.97980762
v -0.30280417 0.09855306 0.96089715
v -0.28999546 0.09588847 0.96284717
v -0.26996022 0.09249359 0.96570414
v -0.25689188 0.08071020 0.95917392
v -0.23153411 0.09075667 0.97386688
v -0.21002759 0.08558540 0.97468317
v -0.19003563 0.08321688 0.97672385
v -0.19003563 0.07421650 0.96670181
v -0.17000039 0.07265722 0.96856111
v -0.15070079 0.07265722 0.97178084
v -0.13629100 0.06041986 0.95944601
v -0.12975684 0.05335377 0.95164603
v -0.13001646 0.04194539 0.93749720
v -0.11002450 0.04091903 0.93881232
v -0.11002450 0.03312264 0.92883563
v -0.09003253 0.02230640 0.91695422
v -0.08946998 0.03375425 0.93173790
v -0.08241655 0.03983346 0.94017279
v -0.07004057 0.03945844 0.94067162
v -0.05000533 0.03892552 0.94130647
v -0.03001337 0.03858998 0.94176000
v 0.00001785 0.04644558 0.95200878
v -0.01002140 0.03841234 0.94198674
v 0.00001785 0.04243883 0.94702041
v -0.28519219 -0.05024932 0.54609215
v 0.00001785 -0.05024932 0.82439744
v -0.44196901 -0.05024932 0.54609215
v -0.44196901 0.14491686 0.88874727
v -0.43145376 0.14578533 0.89169496
v -0.40999052 0.14422604 0.90620655
v -0.36996332 0.14365366 0.92479956
v -0.32997939 0.14235097 0.94271231
v -0.34183609 0.14067328 0.94067162
v -0.29626998 0.13747576 0.95858437
v -0.24905953 0.10901403 0.97794831
v -0.32997939 0.10998118 0.95327854
v -0.31552631 0.10998118 0.95844829
v -0.30553034 0.10998118 0.96180415
v -0.32997939 0.12999518 0.94983208
v -0.34910589 0.12952149 0.94307512
v -0.36226079 0.12253434 0.94089836
v -0.32997939 0.09219752 0.94615883
v -0.32997939 0.08219052 0.93763328
v -0.28999546 0.08588147 0.95436692
v -0.36100587 0.09932283 0.94039953
v -0.34997135 0.09648061 0.94248557
v -0.26996022 0.08250633 0.95731461
v -0.28999546 0.07638764 0.94434488
v -0.26996022 0.07397965 0.94733787
v -0.25014135 0.07291381 0.95150995
v -0.24356391 0.07921013 0.96085179
v -0.22997630 0.07782850 0.96248436
v -0.21002759 0.07595342 0.96466112
v -0.19003563 0.06422924 0.95482039
v -0.17000039 0.06266996 0.95672506
v -0.15000843 0.06128832 0.95840299
v -0.15000843 0.05315639 0.94842625
v -0.15000843 0.04316913 0.93595535
v -0.13001646 0.03412927 0.92752051
v -0.13001646 0.02414200 0.91459608
v -0.11002450 0.02311564 0.91586584
v -0.11002450 0.01555611 0.90588915
v -0.09911979 -0.01993224 0.85990548
v -0.09003253 0.01476660 0.90693212
v -0.07004057 0.01411526 0.90783912
v -0.07004057 0.02165505 0.91781586
v -0.07004057 0.03108967 0.92996931
v -0.05000533 0.03008304 0.92996931
v -0.03001337 0.02941196 0.92996931
v -0.01002140 0.02907642 0.92996931
v 0.00001785 0.03377399 0.93604606
v 0.00001785 0.03841234 0.94198674
v 0.00001785 -0.04673601 0.82915902
v -0.00292468 -0.05024932 0.82439744
v -0.44196901 -0.05024932 0.69601512
v -0.44196901 0.13731787 0.89876938
v -0.43911302 0.13921268 0.89949495
v -0.42578503 0.14217333 0.90262401
v -0.38471931 0.14169963 0.92189723
v -0.35516405 0.13587701 0.93786001
v -0.39804727 0.13838370 0.91899490
v -0.34997135 0.10998118 0.94584137
v -0.37247312 0.10998118 0.93681699
v -0.36247715 0.10998118 0.94098908
v -0.39082074 0.13102154 0.92525303
v -0.40445161 0.12504104 0.92198795
v -0.40570652 0.10998118 0.92257750
v -0.38999856 0.10998118 0.92942512
v -0.31898814 0.08029570 0.93962860
v -0.34997135 0.08647360 0.93386930
v -0.37649751 0.08128259 0.91849607
v -0.36316949 0.07893381 0.92126238
v -0.40315345 0.09788197 0.92139840
v -0.38999856 0.09438841 0.92425537
v -0.30566016 0.07842062 0.94185066
v -0.28999546 0.06640038 0.93182862
v -0.26996022 0.06397264 0.93491232
v -0.24996826 0.06172255 0.93776929
v -0.23776537 0.06043960 0.93940187
v -0.23066865 0.06653854 0.94865298
v -0.21002759 0.06594641 0.95273435
v -0.19003563 0.05607757 0.94484371
v -0.17000039 0.05453803 0.94670302
v -0.17000039 0.04455076 0.93418676
v -0.15000843 0.03535300 0.92597860
v -0.15000843 0.02534600 0.91300887
v -0.13001646 0.01652326 0.90457404
v -0.11002450 -0.01945854 0.85927063
v -0.11002450 -0.02695885 0.84924853
v -0.11002450 -0.03696586 0.83587068
v -0.09003253 -0.03777511 0.83700436
v -0.08579181 -0.02040595 0.86054039
v -0.05000533 0.01364155 0.90847397
v -0.05000533 0.02116161 0.91845071
v -0.07004057 -0.02932738 0.84997410
v -0.03001337 0.02082607 0.91890419
v -0.01002140 0.02066817 0.91908562
v 0.00001785 0.02489203 0.92457283
v 0.00001785 -0.03937386 0.83913577
v -0.01002140 -0.05024932 0.82435209
v -0.01002140 -0.03935412 0.83913577
v -0.43006903 -0.05024932 0.70386046
v -0.44196901 -0.05009142 0.69628721
v -0.44196901 0.13222554 0.90099144
v -0.44196901 0.12699506 0.90321356
v -0.43145376 0.13153473 0.90643334
v -0.42998248 0.10998118 0.91110420
v -0.41570252 0.10998118 0.91795188
v -0.34997135 0.07686135 0.92384720
v -0.32997939 0.07392043 0.92761117
v -0.32997939 0.06391343 0.91491354
v -0.31383869 0.06166333 0.91781586
v -0.30972779 0.07003211 0.92987859
v -0.38999856 0.08438140 0.91550303
v -0.41799596 0.08078915 0.89899611
v -0.40466797 0.07822324 0.90217054
v -0.38999856 0.07565735 0.90552634
v -0.36987677 0.07322961 0.91110420
v -0.35840952 0.06047907 0.89931357
v -0.35105318 0.06578851 0.90919960
v -0.44196901 0.09878992 0.90262401
v -0.44196901 0.09723064 0.90203446
v -0.42998248 0.09379628 0.90502751
v -0.41059634 0.08933556 0.91024262
v -0.30051070 0.05984747 0.92017400
v -0.28999546 0.05852504 0.92185187
v -0.26996022 0.05611704 0.92493558
v -0.24996826 0.05388669 0.92779255
v -0.23066865 0.05291954 0.93164718
v -0.22443739 0.05911717 0.94107974
v -0.21002759 0.05777501 0.94271231
v -0.19003563 0.04609030 0.93223673
v -0.17000039 0.03673464 0.92421001
v -0.17000039 0.02672764 0.91119492
v -0.17000039 0.01906942 0.90121818
v -0.15000843 0.01772726 0.90298682
v -0.13001646 -0.02595223 0.84793341
v -0.13001646 -0.03593950 0.83451021
v -0.11002450 -0.04434776 0.82589394
v -0.09003253 -0.05024932 0.82008928
v -0.07951728 -0.05024932 0.82099628
v -0.07004057 -0.05024932 0.82181257
v -0.07004057 -0.03840671 0.83786601
v -0.05000533 0.00363455 0.89514148
v -0.05000533 -0.03025505 0.84997410
v -0.03001337 -0.03919622 0.83890903
v -0.01002140 -0.03124193 0.84997410
v 0.00001785 0.01316785 0.90910888
v 0.00001785 0.02066817 0.91908562
v 0.00001785 -0.02652463 0.85627759
v -0.01716138 -0.05024932 0.82421601
v -0.41998649 -0.05024932 0.71011859
v -0.43015558 -0.04588729 0.71088952
v -0.43694937 -0.03882121 0.71814531
v -0.44196901 -0.04018310 0.71256739
v -0.44196901 0.10998118 0.90507287
v -0.34508154 0.05840661 0.90203446
v -0.32997939 0.05619600 0.90489149
v -0.30829978 0.05463672 0.91069609
v -0.42998248 0.08378927 0.89600313
v -0.44196901 0.07911144 0.88452989
v -0.44196901 0.07772981 0.88289732
v -0.42998248 0.07538103 0.88598102
v -0.40908182 0.07028870 0.88951826
v -0.40012437 0.05992642 0.88004035
v -0.38999856 0.06565034 0.89237523
v -0.36996332 0.06233441 0.89681935
v -0.36996332 0.05491304 0.88684267
v -0.34997135 0.03430691 0.86766016
v -0.35105318 0.05242610 0.89160430
v -0.44196901 0.08702625 0.89260197
v -0.29440928 0.04137300 0.89817983
v -0.28865400 0.04766932 0.90820193
v -0.28108129 0.03973477 0.90031123
v -0.26996022 0.03843208 0.90203446
v -0.24996826 0.04389942 0.91495889
v -0.22997630 0.04184670 0.91763449
v -0.21686468 0.04058349 0.91926700
v -0.21011414 0.04658375 0.92847282
v -0.20353670 0.03937949 0.92076349
v -0.19003563 0.03825444 0.92221469
v -0.18860763 0.02714213 0.90811121
v -0.18099165 0.01985892 0.90017521
v -0.17000039 -0.01588602 0.85450900
v -0.15000843 -0.01724792 0.85632294
v -0.15000843 -0.02472850 0.84630084
v -0.15000843 -0.03473550 0.83283228
v -0.14888334 -0.05024932 0.81201720
v -0.13001646 -0.05024932 0.81510091
v -0.11002450 -0.05024932 0.81786722
v -0.10111033 -0.05024932 0.81886488
v -0.12317938 -0.05024932 0.81605327
v -0.05840023 -0.05024932 0.82253814
v -0.05000533 -0.03888042 0.83845556
v -0.05000533 -0.04624257 0.82847881
v -0.03762935 -0.05024932 0.82358116
v -0.03001337 -0.05024932 0.82389861
v -0.41007707 -0.05024932 0.71610463
v -0.42357814 -0.04136736 0.72222668
v -0.44196901 -0.03779484 0.71646738
v -0.43015558 -0.03434075 0.72934645
v -0.44196901 -0.02149152 0.74227083
v -0.33962917 0.04010978 0.87985897
v -0.33179682 0.04502447 0.88947290
v -0.30998743 0.03586618 0.88548219
v -0.30998743 0.04342572 0.89545894
v -0.44196901 0.06213704 0.86203688
v -0.44015157 0.05992642 0.86004156
v -0.42998248 0.06539375 0.87264848
v -0.41349560 0.06233441 0.87677521
v -0.38999856 0.05820924 0.88239849
v -0.40808654 0.05544596 0.87006360
v -0.40999052 0.04437312 0.85401016
v -0.39493164 0.04172827 0.85763806
v -0.38896000 0.03450428 0.85056365
v -0.38896000 0.04761010 0.86843109
v -0.36996332 0.03754389 0.86330664
v -0.34997135 0.02429990 0.85410082
v -0.33387393 0.02181295 0.85750198
v -0.28999546 0.02329328 0.87559617
v -0.28865400 0.03446481 0.89087868
v -0.27420095 0.02137873 0.87813568
v -0.26082969 0.01979971 0.88026708
v -0.24996826 0.03618199 0.90493679
v -0.24996826 0.02617498 0.89183104
v -0.22997630 0.03410953 0.90761238
v -0.22997630 0.02410253 0.89459729
v -0.21002759 0.02224718 0.89704609
v -0.21011414 0.03341871 0.91155773
v -0.19431962 0.02090502 0.89876938
v -0.18860763 0.01437185 0.89128685
v -0.19003563 -0.01440569 0.85246831
v -0.17000039 -0.02336660 0.84448695
v -0.17000039 -0.03337360 0.83097297
v -0.15000843 -0.04209766 0.82285559
v -0.17000039 -0.05024932 0.80802655
v -0.05000533 -0.05024932 0.82303697
v -0.39090729 -0.05024932 0.72716969
v -0.40999052 -0.04393326 0.72621739
v -0.40999052 -0.03757773 0.73623943
v -0.42998248 -0.02382056 0.74580806
v -0.44196901 -0.02091912 0.74313247
v -0.32630122 0.03815576 0.88244385
v -0.32050267 0.01985892 0.86017758
v -0.30998743 0.01841807 0.86212760
v -0.44196901 0.05891979 0.85768342
v -0.44196901 0.04305070 0.83577996
v -0.43530503 0.04176775 0.83754855
v -0.42920357 0.04749168 0.84861368
v -0.42998248 0.05803160 0.86267179
v -0.38160366 0.03945844 0.86072177
v -0.42197704 0.03926107 0.84099507
v -0.40999052 0.03707018 0.84398806
v -0.38999856 0.02354987 0.83509976
v -0.37623787 0.02124056 0.83827412
v -0.36974695 0.02676711 0.84874970
v -0.36290988 0.01904968 0.84126717
v -0.34997135 0.01699696 0.84412414
v -0.32829174 0.01508240 0.85051829
v -0.28999546 0.01585218 0.86557412
v -0.26848894 0.01462844 0.87087989
v -0.26996022 0.00343717 0.85527992
v -0.24996826 0.00116734 0.85840899
v -0.23975591 0.00004229 0.85990548
v -0.24996826 0.01861545 0.88185430
v -0.22997630 0.01656273 0.88457525
v -0.21002759 0.01472713 0.88702404
v -0.21002759 0.00472012 0.87364614
v -0.21002759 -0.00274072 0.86366946
v -0.19003563 0.00308190 0.87586826
v -0.19003563 -0.02184679 0.84249157
v -0.18003964 -0.03998572 0.81999862
v -0.18891054 -0.05024932 0.80399048
v -0.38389713 -0.05024932 0.73097903
v -0.39886945 -0.03961071 0.73941386
v -0.41098580 -0.02715623 0.75147665
v -0.41829887 -0.01937959 0.75909525
v -0.42998248 -0.01716897 0.75578475
v -0.44196901 -0.00058931 0.77360684
v -0.31383869 0.00168052 0.83763927
v -0.30829978 0.00773999 0.84811485
v -0.30051070 -0.00013535 0.84017879
v -0.28999546 0.00584517 0.85196948
v -0.44196901 0.01918784 0.80244863
v -0.42998248 0.02353013 0.81501025
v -0.42920357 0.03438586 0.83051950
v -0.41695744 0.02110240 0.81845677
v -0.41016361 0.02631315 0.82906836
v -0.40362942 0.01871414 0.82181257
v -0.38999856 0.01636535 0.82507765
v -0.36974695 0.01389815 0.83097297
v -0.35014445 0.00618071 0.82893229
v -0.34356701 -0.00112223 0.82158577
v -0.32997939 0.00397009 0.83441949
v -0.26996022 -0.00382629 0.84525788
v -0.25849298 -0.03965019 0.79950094
v -0.24996826 -0.02338634 0.82466954
v -0.22997630 -0.01823480 0.83759391
v -0.21725413 -0.01947828 0.83927184
v -0.22642793 -0.00124066 0.86167407
v -0.22997630 -0.03552501 0.81383115
v -0.21037377 -0.01387277 0.84856832
v -0.20392615 -0.02070201 0.84090436
v -0.19336763 -0.03890015 0.81850207
v -0.21002759 -0.05024932 0.79895675
v -0.37065569 -0.05024932 0.73791736
v -0.38554147 -0.04192002 0.74290574
v -0.39129674 -0.03532764 0.74975336
v -0.40497088 -0.02182706 0.76272315
v -0.42405415 -0.00151698 0.78217775
v -0.43738210 0.00096997 0.77854985
v -0.44196901 0.00187790 0.77723473
v -0.32383466 -0.02113624 0.80158699
v -0.30384272 -0.04107130 0.78149754
v -0.28999546 -0.00141830 0.84194738
v -0.28999546 -0.03576186 0.79405910
v -0.26996022 -0.04541359 0.78757423
v -0.26996022 -0.03824881 0.79755098
v -0.44196901 0.01873388 0.80181372
v -0.42998248 0.01646404 0.80503350
v -0.40999052 0.00280557 0.79591841
v -0.41016361 0.01346391 0.81106490
v -0.39796072 0.00069363 0.79900211
v -0.39077747 0.00550963 0.80929631
v -0.38463277 -0.00153672 0.80217654
v -0.36996332 0.00308190 0.81559980
v -0.35689497 0.00096997 0.81859279
v -0.35014445 -0.00639219 0.81115562
v -0.34997135 -0.02419558 0.78594166
v -0.32997939 -0.03730140 0.77614635
v -0.27169111 -0.01499782 0.82924974
v -0.25074717 -0.05024932 0.78721148
v -0.25109333 -0.04695313 0.79170096
v -0.24516499 -0.04116999 0.80158699
v -0.21037377 -0.02638646 0.83156252
v -0.21002759 -0.03745930 0.81650674
v -0.23001957 -0.05024932 0.79351491
v -0.35100991 -0.05024932 0.74775803
v -0.36996332 -0.04456487 0.74680573
v -0.36996332 -0.03783432 0.75682777
v -0.38999856 -0.02445217 0.76653242
v -0.38999856 -0.01760320 0.77650917
v -0.40999052 -0.00408288 0.78589636
v -0.43041521 0.00574648 0.78929752
v -0.31717068 -0.03919622 0.77882195
v -0.31029034 -0.04642021 0.77133942
v -0.31020379 -0.05024932 0.76589751
v -0.29968852 -0.05024932 0.76997894
v -0.28990892 -0.05024932 0.77369756
v -0.28999546 -0.04288717 0.78403705
v -0.26996022 -0.05024932 0.78077191
v -0.37857458 -0.01951775 0.77932078
v -0.36524659 -0.02172837 0.78244984
v -0.35135609 -0.03514999 0.76961613
v -0.34564409 -0.04182133 0.76267779
v -0.32997939 -0.04424907 0.76616961
v -0.24101081 -0.05024932 0.79020447
v -0.34421611 -0.05024932 0.75097781
v -0.35135609 -0.04742683 0.75174874
v -0.35897207 -0.03966992 0.75954872
v -0.33075830 -0.05024932 0.75709987
v -0.28147075 -0.05024932 0.77669054
f 1 2 3
f 1 3 4
f 1 4 11
f 1 11 21
f 1 21 39
f 1 39 58
f 1 58 85
f 1 85 86
f 1 86 127
f 1 127 126
f 1 126 172
f 1 172 174
f 1 174 222
f 1 222 221
f 1 221 268
f 1 268 319
f 1 319 318
f 1 318 320
f 1 320 269
f 1 269 223
f 1 223 176
f 1 176 129
f 1 129 87
f 1 87 60
f 1 60 40
f 1 40 23
f 1 23 22
f 1 22 12
f 1 12 5
f 1 5 2
f 2 5 6
f 2 6 3
f 3 6 7
f 3 7 8
f 3 8 9
f 3 9 10
f 3 10 4
f 4 10 11
f 5 12 6
f 6 12 13
f 6 13 14
f 6 14 7
f 7 15 8
f 7 14 16
f 7 16 15
f 8 15 17
f 8 17 18
f 8 18 9
f 9 18 19
f 9 19 20
f 9 20 10
f 10 20 21
f 10 21 11
f 12 22 13
f 13 23 24
f 13 24 25
f 13 25 14
f 13 22 23
f 14 25 26
f 14 26 16
f 15 27 28
f 15 28 17
f 15 16 29
f 15 29 30
f 15 30 27
f 16 26 31
f 16 31 29
f 17 28 32
f 17 32 33
f 17 33 34
f 17 34 18
f 18 34 35
f 18 35 19
f 19 35 36
f 19 36 37
f 19 37 38
f 19 38 20
f 20 38 39
f 20 39 21
f 23 40 24
f 24 40 41
f 24 41 25
f 25 41 42
f 25 42 26
f 26 42 31
f 27 30 28
f 28 30 43
f 28 43 44
f 28 44 32
f 29 31 45
f 29 45 30
f 30 45 46
f 30 46 47
f 30 47 48
f 30 48 43
f 31 42 49
f 31 49 45
f 32 44 50
f 32 50 51
f 32 51 33
f 33 51 75
f 33 75 52
f 33 52 53
f 33 53 34
f 34 53 35
f 35 53 54
f 35 54 36
f 36 54 55
f 36 55 56
f 36 56 57
f 36 57 37
f 37 57 38
f 38 58 39
f 38 57 59
f 38 59 85
f 38 85 58
f 40 60 61
f 40 61 41
f 41 61 62
f 41 62 63
f 41 63 64
f 41 64 42
f 42 64 49
f 43 65 44
f 43 48 66
f 43 66 65
f 44 65 67
f 44 67 50
f 45 49 46
f 46 49 68
f 46 68 47
f 47 68 69
f 47 69 48
f 48 69 70
f 48 70 66
f 49 64 71
f 49 71 68
f 50 67 72
f 50 72 73
f 50 73 74
f 50 74 51
f 51 74 75
f 52 75 76
f 52 76 77
f 52 77 78
f 52 78 53
f 53 78 54
f 54 78 79
f 54 79 55
f 55 79 80
f 55 80 81
f 55 81 82
f 55 82 56
f 56 82 57
f 57 82 83
f 57 83 84
f 57 84 59
f 59 84 86
f 59 86 85
f 60 87 88
f 60 88 89
f 60 89 61
f 61 89 62
f 62 90 91
f 62 91 64
f 62 64 63
f 62 89 92
f 62 92 90
f 64 91 71
f 65 93 67
f 65 66 94
f 65 94 93
f 66 70 95
f 66 95 94
f 67 93 72
f 68 71 69
f 69 71 70
f 70 71 96
f 70 96 95
f 71 91 96
f 72 97 73
f 72 93 98
f 72 98 99
f 72 99 100
f 72 100 101
f 72 101 102
f 72 102 103
f 72 103 104
f 72 104 105
f 72 105 97
f 73 97 106
f 73 106 107
f 73 107 74
f 74 107 108
f 74 108 109
f 74 109 110
f 74 110 111
f 74 111 112
f 74 112 113
f 74 113 114
f 74 114 75
f 75 114 113
f 75 113 115
f 75 115 76
f 76 115 116
f 76 116 117
f 76 117 77
f 77 117 118
f 77 118 79
f 77 79 78
f 79 118 119
f 79 119 80
f 80 119 120
f 80 120 121
f 80 121 81
f 81 121 122
f 81 122 82
f 82 122 123
f 82 123 124
f 82 124 83
f 83 124 84
f 84 124 125
f 84 125 126
f 84 126 127
f 84 127 86
f 87 128 88
f 87 129 130
f 87 130 128
f 88 128 130
f 88 130 177
f 88 177 225
f 88 225 273
f 88 273 325
f 88 325 370
f 88 370 372
f 88 372 412
f 88 412 449
f 88 449 482
f 88 482 489
f 88 489 454
f 88 454 417
f 88 417 416
f 88 416 377
f 88 377 332
f 88 332 331
f 88 331 341
f 88 341 292
f 88 292 291
f 88 291 326
f 88 326 275
f 88 275 274
f 88 274 226
f 88 226 178
f 88 178 131
f 88 131 89
f 89 131 92
f 90 92 131
f 90 131 132
f 90 132 91
f 91 132 133
f 91 133 134
f 91 134 96
f 93 94 99
f 93 99 98
f 94 135 99
f 94 95 136
f 94 136 137
f 94 137 135
f 95 96 138
f 95 138 136
f 96 134 138
f 97 105 139
f 97 139 140
f 97 140 107
f 97 107 106
f 99 135 100
f 100 135 101
f 101 135 102
f 102 135 141
f 102 141 103
f 103 142 104
f 103 141 143
f 103 143 144
f 103 144 145
f 103 145 146
f 103 146 147
f 103 147 148
f 103 148 142
f 104 142 149
f 104 149 150
f 104 150 105
f 105 150 107
f 105 107 139
f 107 140 139
f 107 150 108
f 108 150 151
f 108 151 152
f 108 152 153
f 108 153 154
f 108 154 155
f 108 155 156
f 108 156 109
f 109 156 157
f 109 157 110
f 110 157 112
f 110 112 111
f 112 157 158
f 112 158 159
f 112 159 113
f 113 159 160
f 113 160 115
f 115 160 161
f 115 161 116
f 116 161 117
f 117 119 118
f 117 161 162
f 117 162 163
f 117 163 164
f 117 164 119
f 119 164 120
f 120 164 165
f 120 165 166
f 120 166 167
f 120 167 168
f 120 168 121
f 121 168 122
f 122 168 169
f 122 169 170
f 122 170 123
f 123 170 124
f 124 170 171
f 124 171 125
f 125 172 126
f 125 171 173
f 125 173 174
f 125 174 172
f 129 175 130
f 129 176 224
f 129 224 270
f 129 270 321
f 129 321 367
f 129 367 366
f 129 366 407
f 129 407 363
f 129 363 312
f 129 312 311
f 129 311 310
f 129 310 361
f 129 361 360
f 129 360 362
f 129 362 359
f 129 359 358
f 129 358 406
f 129 406 443
f 129 443 475
f 129 475 507
f 129 507 527
f 129 527 502
f 129 502 521
f 129 521 532
f 129 532 519
f 129 519 518
f 129 518 517
f 129 517 531
f 129 531 528
f 129 528 508
f 129 508 476
f 129 476 444
f 129 444 408
f 129 408 368
f 129 368 322
f 129 322 272
f 129 272 225
f 129 225 177
f 129 177 175
f 130 175 177
f 131 178 132
f 132 178 179
f 132 179 180
f 132 180 133
f 133 180 181
f 133 181 134
f 134 181 138
f 135 137 141
f 136 138 137
f 137 145 144
f 137 144 141
f 137 138 182
f 137 182 183
f 137 183 184
f 137 184 145
f 138 181 182
f 141 144 143
f 142 185 150
f 142 150 149
f 142 148 185
f 145 184 146
f 146 186 187
f 146 187 188
f 146 188 147
f 146 184 189
f 146 189 190
f 146 190 191
f 146 191 186
f 147 188 151
f 147 151 150
f 147 150 148
f 148 150 185
f 151 192 193
f 151 193 194
f 151 194 152
f 151 188 187
f 151 187 195
f 151 195 196
f 151 196 192
f 152 194 197
f 152 197 153
f 153 197 154
f 154 197 198
f 154 198 199
f 154 199 200
f 154 200 201
f 154 201 156
f 154 156 155
f 156 201 202
f 156 202 157
f 157 202 203
f 157 203 158
f 158 203 204
f 158 204 205
f 158 205 159
f 159 205 160
f 160 205 206
f 160 206 161
f 161 206 207
f 161 207 163
f 161 163 162
f 163 208 255
f 163 255 209
f 163 209 164
f 163 207 208
f 164 209 165
f 165 209 210
f 165 210 211
f 165 211 166
f 166 211 212
f 166 212 213
f 166 213 214
f 166 214 215
f 166 215 216
f 166 216 217
f 166 217 168
f 166 168 167
f 168 217 169
f 169 217 170
f 170 217 218
f 170 218 171
f 171 218 219
f 171 219 173
f 173 219 220
f 173 220 221
f 173 221 222
f 173 222 174
f 176 223 224
f 178 226 227
f 178 227 228
f 178 228 180
f 178 180 179
f 180 228 229
f 180 229 181
f 181 229 183
f 181 183 182
f 183 230 190
f 183 190 189
f 183 189 184
f 183 229 231
f 183 231 230
f 186 191 232
f 186 232 195
f 186 195 187
f 190 230 191
f 191 233 234
f 191 234 232
f 191 230 231
f 191 231 235
f 191 235 236
f 191 236 237
f 191 237 238
f 191 238 233
f 192 196 193
f 193 239 194
f 193 196 240
f 193 240 241
f 193 241 242
f 193 242 239
f 194 239 197
f 195 232 234
f 195 234 233
f 195 233 238
f 195 238 237
f 195 237 243
f 195 243 244
f 195 244 196
f 196 244 240
f 197 239 245
f 197 245 198
f 198 245 246
f 198 246 247
f 198 247 199
f 199 247 248
f 199 248 200
f 200 248 249
f 200 249 250
f 200 250 201
f 201 250 202
f 202 250 251
f 202 251 203
f 203 251 204
f 204 251 252
f 204 252 205
f 205 252 253
f 205 253 207
f 205 207 206
f 207 253 208
f 208 254 303
f 208 303 255
f 208 253 254
f 209 255 210
f 210 256 306
f 210 306 257
f 210 257 211
f 210 255 256
f 211 257 212
f 212 257 258
f 212 258 213
f 213 258 259
f 213 259 260
f 213 260 261
f 213 261 262
f 213 262 214
f 214 262 215
f 215 263 264
f 215 264 216
f 215 262 265
f 215 265 263
f 216 264 218
f 216 218 217
f 218 264 266
f 218 266 219
f 219 266 220
f 220 266 267
f 220 267 268
f 220 268 221
f 223 269 224
f 224 269 271
f 224 271 270
f 225 272 273
f 226 274 227
f 227 274 275
f 227 275 276
f 227 276 236
f 227 236 231
f 227 231 229
f 227 229 228
f 231 236 235
f 236 276 275
f 236 275 277
f 236 277 278
f 236 278 237
f 237 278 243
f 239 242 279
f 239 279 280
f 239 280 281
f 239 281 282
f 239 282 283
f 239 283 245
f 240 244 241
f 241 284 285
f 241 285 286
f 241 286 287
f 241 287 242
f 241 244 284
f 242 287 288
f 242 288 289
f 242 289 290
f 242 290 279
f 243 278 277
f 243 277 291
f 243 291 292
f 243 292 293
f 243 293 294
f 243 294 284
f 243 284 244
f 245 283 295
f 245 295 246
f 246 295 296
f 246 296 247
f 247 296 297
f 247 297 248
f 248 297 298
f 248 298 249
f 249 298 299
f 249 299 300
f 249 300 250
f 250 300 251
f 251 300 301
f 251 301 252
f 252 301 302
f 252 302 254
f 252 254 253
f 254 302 303
f 255 303 256
f 256 304 305
f 256 305 306
f 256 303 304
f 257 306 307
f 257 307 258
f 258 307 259
f 259 307 260
f 260 307 308
f 260 308 309
f 260 309 261
f 261 309 310
f 261 310 311
f 261 311 312
f 261 312 313
f 261 313 262
f 262 313 265
f 263 266 264
f 263 265 314
f 263 314 266
f 265 313 315
f 265 315 314
f 266 314 316
f 266 316 317
f 266 317 267
f 267 318 319
f 267 319 268
f 267 317 320
f 267 320 318
f 269 320 317
f 269 317 271
f 270 271 321
f 271 316 321
f 271 317 316
f 272 322 323
f 272 323 324
f 272 324 273
f 273 324 325
f 275 326 277
f 277 326 291
f 279 290 327
f 279 327 281
f 279 281 280
f 281 327 328
f 281 328 329
f 281 329 282
f 282 329 295
f 282 295 283
f 284 294 285
f 285 294 330
f 285 330 331
f 285 331 332
f 285 332 333
f 285 333 286
f 286 333 334
f 286 334 335
f 286 335 336
f 286 336 287
f 287 336 337
f 287 337 288
f 288 337 289
f 289 327 290
f 289 337 338
f 289 338 339
f 289 339 340
f 289 340 327
f 292 341 330
f 292 330 293
f 293 330 294
f 295 329 342
f 295 342 296
f 296 342 343
f 296 343 344
f 296 344 297
f 297 344 345
f 297 345 346
f 297 346 298
f 298 346 347
f 298 347 299
f 299 347 348
f 299 348 300
f 300 348 349
f 300 349 301
f 301 349 350
f 301 350 302
f 302 350 351
f 302 351 303
f 303 351 352
f 303 352 353
f 303 353 304
f 304 353 305
f 305 353 354
f 305 354 355
f 305 355 306
f 306 355 307
f 307 355 356
f 307 356 308
f 308 356 357
f 308 357 358
f 308 358 359
f 308 359 309
f 309 360 361
f 309 361 310
f 309 359 362
f 309 362 360
f 312 363 313
f 313 363 364
f 313 364 315
f 314 315 316
f 315 364 316
f 316 364 365
f 316 365 366
f 316 366 367
f 316 367 321
f 322 368 369
f 322 369 324
f 322 324 323
f 324 370 325
f 324 369 371
f 324 371 372
f 324 372 370
f 327 340 373
f 327 373 374
f 327 374 328
f 328 374 375
f 328 375 376
f 328 376 329
f 329 376 342
f 330 341 331
f 332 377 378
f 332 378 379
f 332 379 333
f 333 379 380
f 333 380 334
f 334 380 335
f 335 381 336
f 335 380 382
f 335 382 383
f 335 383 384
f 335 384 385
f 335 385 386
f 335 386 381
f 336 381 337
f 337 381 338
f 338 381 387
f 338 387 388
f 338 388 339
f 339 389 373
f 339 373 340
f 339 388 389
f 342 376 375
f 342 375 390
f 342 390 391
f 342 391 344
f 342 344 343
f 344 391 392
f 344 392 393
f 344 393 345
f 345 394 346
f 345 393 395
f 345 395 394
f 346 394 396
f 346 396 347
f 347 396 348
f 348 350 349
f 348 396 397
f 348 397 398
f 348 398 399
f 348 399 350
f 350 399 398
f 350 398 400
f 350 400 352
f 350 352 351
f 352 400 353
f 353 400 401
f 353 401 402
f 353 402 354
f 354 402 403
f 354 403 356
f 354 356 355
f 356 403 357
f 357 404 405
f 357 405 358
f 357 403 404
f 358 405 404
f 358 404 406
f 363 407 365
f 363 365 364
f 365 407 366
f 368 408 409
f 368 409 369
f 369 409 410
f 369 410 371
f 371 410 411
f 371 411 372
f 372 411 412
f 373 413 374
f 373 389 414
f 373 414 413
f 374 413 375
f 375 413 414
f 375 414 415
f 375 415 390
f 377 416 378
f 378 416 417
f 378 417 418
f 378 418 419
f 378 419 420
f 378 420 379
f 379 420 380
f 380 420 383
f 380 383 382
f 381 386 421
f 381 421 387
f 383 422 423
f 383 423 424
f 383 424 384
f 383 420 422
f 384 424 385
f 385 424 425
f 385 425 421
f 385 421 386
f 387 421 426
f 387 426 427
f 387 427 388
f 388 427 428
f 388 428 389
f 389 428 429
f 389 429 414
f 390 415 430
f 390 430 392
f 390 392 391
f 392 430 431
f 392 431 393
f 393 431 432
f 393 432 433
f 393 433 434
f 393 434 435
f 393 435 395
f 394 395 397
f 394 397 396
f 395 435 397
f 397 435 436
f 397 436 398
f 398 436 437
f 398 437 400
f 400 437 438
f 400 438 439
f 400 439 440
f 400 440 401
f 401 440 402
f 402 441 403
f 402 440 439
f 402 439 441
f 403 441 404
f 404 441 442
f 404 442 406
f 406 442 443
f 408 444 445
f 408 445 409
f 409 445 410
f 410 445 446
f 410 446 411
f 411 446 447
f 411 447 448
f 411 448 412
f 412 448 449
f 414 429 450
f 414 450 451
f 414 451 415
f 415 451 452
f 415 452 453
f 415 453 430
f 417 454 455
f 417 455 418
f 418 455 456
f 418 456 419
f 419 456 422
f 419 422 420
f 421 425 426
f 422 456 457
f 422 457 458
f 422 458 423
f 423 458 459
f 423 459 424
f 424 459 460
f 424 460 425
f 425 427 426
f 425 460 461
f 425 461 427
f 427 461 462
f 427 462 428
f 428 462 463
f 428 463 464
f 428 464 429
f 429 464 450
f 430 453 432
f 430 432 431
f 432 453 485
f 432 485 465
f 432 465 466
f 432 466 467
f 432 467 433
f 433 467 434
f 434 468 469
f 434 469 470
f 434 470 436
f 434 436 435
f 434 467 471
f 434 471 468
f 436 470 437
f 437 470 438
f 438 470 439
f 439 470 472
f 439 472 473
f 439 473 441
f 441 473 474
f 441 474 442
f 442 474 443
f 443 474 475
f 444 476 477
f 444 477 445
f 445 477 478
f 445 478 479
f 445 479 446
f 446 479 447
f 447 479 480
f 447 480 481
f 447 481 448
f 448 481 449
f 449 481 482
f 450 452 451
f 450 464 483
f 450 483 484
f 450 484 452
f 452 485 453
f 452 484 486
f 452 486 487
f 452 487 488
f 452 488 466
f 452 466 485
f 454 489 455
f 455 489 490
f 455 490 457
f 455 457 456
f 457 459 458
f 457 490 491
f 457 491 492
f 457 492 459
f 459 492 493
f 459 493 460
f 460 493 494
f 460 494 495
f 460 495 496
f 460 496 461
f 461 496 497
f 461 497 462
f 462 497 463
f 463 497 498
f 463 498 499
f 463 499 500
f 463 500 483
f 463 483 464
f 465 485 501
f 465 501 466
f 466 488 487
f 466 487 502
f 466 502 503
f 466 503 504
f 466 504 467
f 466 501 485
f 467 504 471
f 468 471 475
f 468 475 469
f 469 505 473
f 469 473 472
f 469 472 470
f 469 475 506
f 469 506 505
f 471 504 507
f 471 507 475
f 473 505 506
f 473 506 474
f 474 506 475
f 476 508 509
f 476 509 477
f 477 509 510
f 477 510 511
f 477 511 478
f 478 511 479
f 479 511 512
f 479 512 493
f 479 493 491
f 479 491 513
f 479 513 480
f 480 513 491
f 480 491 490
f 480 490 514
f 480 514 481
f 481 514 489
f 481 489 482
f 483 500 515
f 483 515 484
f 484 515 516
f 484 516 517
f 484 517 518
f 484 518 519
f 484 519 520
f 484 520 486
f 486 520 487
f 487 520 521
f 487 521 502
f 489 514 490
f 491 493 492
f 493 495 494
f 493 512 522
f 493 522 495
f 495 522 523
f 495 523 496
f 496 523 497
f 497 523 499
f 497 499 498
f 499 523 524
f 499 524 525
f 499 525 500
f 500 525 526
f 500 526 517
f 500 517 515
f 502 527 504
f 502 504 503
f 504 527 507
f 508 528 529
f 508 529 530
f 508 530 510
f 508 510 509
f 510 530 511
f 511 530 522
f 511 522 512
f 515 517 516
f 517 526 531
f 519 532 520
f 520 532 521
f 522 530 523
f 523 530 524
f 524 530 525
f 525 530 528
f 525 528 531
f 525 531 526
f 528 530 529
