v 0.32644111 -0.04920493 -0.52740216
v 0.62738991 -0.04920493 -0.52740216
v 0.53609711 -0.04920493 -0.30051363
v 0.89716101 0.14177760 -0.30051363
v 0.90917158 0.14703920 -0.30051363
v 0.78919035 0.14514190 -0.52740216
v 0.64201421 -0.04108759 -0.52740216
v 0.64338326 -0.04185043 -0.52407080
v 0.63050145 -0.04920493 -0.52358222
v 0.76050192 -0.04920493 -0.30051363
v 0.92995673 0.15028614 -0.30051363
v 0.90998065 0.14856488 -0.31001914
v 0.80997550 0.14850619 -0.50999022
v 0.80997550 0.15048173 -0.52740216
v 0.64680600 -0.03838833 -0.52740216
v 0.64157856 -0.04920493 -0.50992358
v 0.65134883 -0.03582598 -0.52740216
v 0.66976917 -0.02540057 -0.52740216
v 0.65663844 -0.03811449 -0.51576459
v 0.75683028 -0.04920493 -0.31024122
v 0.76529366 -0.04359125 -0.31001914
v 0.77711755 -0.03803625 -0.30051363
v 0.94794148 0.14424214 -0.30051363
v 0.92995673 0.14987537 -0.31001914
v 0.90998065 0.15052086 -0.35001779
v 0.90998065 0.15014923 -0.33000737
v 0.82995164 0.15052086 -0.50999022
v 0.83138293 0.14688273 -0.52740216
v 0.84999001 0.15061866 -0.46999153
v 0.64997977 -0.04466704 -0.50945717
v 0.64954412 -0.04920493 -0.49968517
v 0.67960167 -0.01978689 -0.52740216
v 0.68165529 -0.02096049 -0.52213860
v 0.66908467 -0.03379176 -0.50945717
v 0.66180360 -0.04106802 -0.50241691
v 0.76224434 -0.04151791 -0.32547671
v 0.75085610 -0.04920493 -0.32503250
v 0.77531284 -0.03682353 -0.31001914
v 0.79877394 -0.01916098 -0.31685954
v 0.79124397 -0.02600693 -0.31010798
v 0.80126315 -0.02090181 -0.30351186
v 0.80182326 -0.02125388 -0.30051363
v 0.95354223 0.13915658 -0.30051363
v 0.94551444 0.14404655 -0.31001914
v 0.92995673 0.14752820 -0.33000737
v 0.90998065 0.14905387 -0.37000602
v 0.88994223 0.14944506 -0.41000468
v 0.86996615 0.14940596 -0.44998112
v 0.84999001 0.14887783 -0.48997977
v 0.85017669 0.14443773 -0.50916845
v 0.84071755 0.14344019 -0.52740216
v 0.65782082 -0.04920493 -0.48889151
v 0.68700719 -0.01546416 -0.52740216
v 0.68968308 -0.01389937 -0.52740216
v 0.69621736 -0.01779179 -0.50999022
v 0.68619817 -0.02364019 -0.50999022
v 0.67518330 -0.03721473 -0.49351102
v 0.66908467 -0.04306313 -0.48811421
v 0.74836683 -0.04920493 -0.33102897
v 0.75166512 -0.04693599 -0.33129549
v 0.75944400 -0.03965972 -0.33882439
v 0.76933873 -0.03510227 -0.33129549
v 0.79609799 -0.01738103 -0.33000737
v 0.81146902 -0.00664266 -0.33074027
v 0.82173717 -0.00122458 -0.32454389
v 0.85515517 0.02334261 -0.33000737
v 0.85808003 0.02132794 -0.31488293
v 0.85086119 0.01481451 -0.30893087
v 0.86069369 0.01948932 -0.30051363
v 0.95721388 0.13397321 -0.30051363
v 0.94034934 0.14036930 -0.34097868
v 0.94215405 0.14191452 -0.33000737
v 0.92429376 0.14334239 -0.37000602
v 0.91110075 0.14506365 -0.39032736
v 0.90543777 0.14375314 -0.41000468
v 0.89118683 0.14527881 -0.43061474
v 0.87089956 0.14512233 -0.47019142
v 0.84358019 0.14261867 -0.52602518
v 0.86448979 0.14312723 -0.48997977
v 0.84582055 0.13784607 -0.52740216
v 0.66840011 -0.04920493 -0.47458884
v 0.70648545 -0.00400208 -0.52740216
v 0.69995117 -0.01998249 -0.49997389
v 0.68009955 -0.04007047 -0.48018554
v 0.69005650 -0.03001671 -0.49009082
v 0.74593985 -0.04920493 -0.33658126
v 0.74699777 -0.04464749 -0.35001779
v 0.75701696 -0.03801669 -0.35001779
v 0.77985573 -0.01990426 -0.35970098
v 0.78962600 -0.01560108 -0.35181671
v 0.78271836 -0.02182112 -0.34635329
v 0.80661500 -0.00456932 -0.35001779
v 0.81912345 0.00059449 -0.33786941
v 0.84208667 0.01853088 -0.34515399
v 0.86548549 0.03615432 -0.35001779
v 0.87550467 0.04311763 -0.35001779
v 0.87836730 0.04114209 -0.33580393
v 0.87102401 0.03427657 -0.32947433
v 0.88091874 0.03934258 -0.32247847
v 0.88315904 0.03775823 -0.31001914
v 0.88477707 0.03658464 -0.30051363
v 0.96007651 0.12742066 -0.30051363
v 0.96107221 0.12303925 -0.30317873
v 0.94221628 0.12877029 -0.34859639
v 0.93748665 0.13463825 -0.35432637
v 0.91850626 0.13735707 -0.39721221
v 0.92155558 0.14146465 -0.38386452
v 0.90201509 0.14177760 -0.42435178
v 0.88533717 0.14365534 -0.44998112
v 0.86112934 0.14103433 -0.50197268
v 0.85086119 0.13031551 -0.52740216
v 0.88185221 0.14162111 -0.46363974
v 0.67263180 -0.04920493 -0.46868122
v 0.71656686 0.00204192 -0.52740216
v 0.71955395 0.00026197 -0.51940686
v 0.71077937 -0.01687247 -0.49197859
v 0.70468074 -0.02281867 -0.48664838
v 0.72434574 -0.00265245 -0.50608140
v 0.68364668 -0.04218294 -0.46999153
v 0.69366586 -0.03625630 -0.46999153
v 0.73977900 -0.04920493 -0.35066184
v 0.75241190 -0.03502403 -0.37000602
v 0.76753402 -0.02502894 -0.37000602
v 0.78999937 -0.00998740 -0.37000602
v 0.80238330 -0.00163534 -0.37000602
v 0.81663418 0.00231576 -0.35001779
v 0.83934850 0.02044775 -0.35850167
v 0.88558608 0.05600759 -0.37000602
v 0.89106238 0.05397336 -0.34975129
v 0.90108156 0.05915672 -0.34293306
v 0.90350860 0.05741590 -0.33000737
v 0.90711796 0.05483399 -0.31001914
v 0.89000452 0.04032058 -0.30051363
v 0.96138334 0.12431064 -0.30051363
v 0.96194345 0.12041823 -0.30051363
v 0.96213013 0.10999282 -0.30051363
v 0.96113443 0.10999282 -0.30346745
v 0.95764947 0.10999282 -0.31348377
v 0.94041157 0.12129842 -0.36110014
v 0.92448044 0.13041332 -0.39032736
v 0.92149329 0.12401724 -0.40323088
v 0.90525103 0.13060892 -0.43061474
v 0.89859235 0.13768959 -0.43767726
v 0.87811840 0.13661379 -0.47698742
v 0.85695982 0.13346466 -0.51529819
v 0.85216808 0.12740110 -0.52740216
v 0.86000919 0.12012482 -0.52007318
v 0.67866820 -0.04920493 -0.45981976
v 0.73119116 0.01096122 -0.52740216
v 0.73056883 0.00360671 -0.51163369
v 0.74289054 0.01813969 -0.52740216
v 0.74369955 0.01767025 -0.52522564
v 0.73766315 0.00141600 -0.49666470
v 0.71799815 -0.01880890 -0.47705406
v 0.69808429 -0.03885777 -0.45704362
v 0.71077937 -0.02590913 -0.47023585
v 0.74239272 -0.04159614 -0.37000602
v 0.73156452 -0.04920493 -0.36816266
v 0.74002790 -0.04001179 -0.38008896
v 0.76286668 -0.02191892 -0.39001644
v 0.77288586 -0.01526856 -0.39001644
v 0.80008078 -0.00009011 -0.38031104
v 0.82684004 0.01528395 -0.37000602
v 0.86934382 0.04507362 -0.37116089
v 0.88228786 0.05833521 -0.38524148
v 0.89560527 0.06316650 -0.37000602
v 0.89846790 0.06107359 -0.35625857
v 0.90867376 0.06678507 -0.34975129
v 0.91352779 0.06477041 -0.33000737
v 0.91707492 0.06209071 -0.31001914
v 0.90929604 0.05411028 -0.30051363
v 0.91875517 0.06089755 -0.30051363
v 0.96063662 0.09900017 -0.30051363
v 0.96044993 0.09919577 -0.30146861
v 0.95167530 0.10999282 -0.33000737
v 0.94041157 0.11511751 -0.36110014
v 0.92790312 0.10999282 -0.39001644
v 0.92180449 0.10999282 -0.40396377
v 0.91713715 0.10999282 -0.41395789
v 0.90935826 0.10999282 -0.42999288
v 0.90170389 0.12436932 -0.44329616
v 0.87401116 0.12996344 -0.48931348
v 0.88477707 0.12996344 -0.47019142
v 0.88122994 0.12327397 -0.48218435
v 0.86312073 0.12806612 -0.50916845
v 0.85465729 0.11228132 -0.52740216
v 0.86000919 0.11942067 -0.52007318
v 0.88147885 0.10999282 -0.48258412
v 0.68520248 -0.04920493 -0.45015877
v 0.74606431 0.02015435 -0.52740216
v 0.75701696 0.02189518 -0.51569796
v 0.75023377 0.01483407 -0.50941277
v 0.74220598 -0.00140062 -0.48331702
v 0.72944868 -0.01456441 -0.47023585
v 0.72241658 -0.02148860 -0.46370637
v 0.70231599 -0.04142010 -0.44371814
v 0.73069328 -0.04920493 -0.37000602
v 0.76031518 -0.02021721 -0.40069905
v 0.72994649 -0.04382597 -0.38806203
v 0.73654300 -0.03784065 -0.39341444
v 0.79696923 0.00204192 -0.39363652
v 0.79018605 -0.00425636 -0.38819531
v 0.80804634 0.00792944 -0.38819531
v 0.87930077 0.06044768 -0.39856696
v 0.87158412 0.05276065 -0.39114910
v 0.85160798 0.03279003 -0.37116089
v 0.88938218 0.06535720 -0.39114910
v 0.90462875 0.07634985 -0.39001644
v 0.91072738 0.07419826 -0.36900660
v 0.92062211 0.07945987 -0.36165538
v 0.92286241 0.07767992 -0.35001779
v 0.92665851 0.07476550 -0.33000737
v 0.93138802 0.07302467 -0.31039667
v 0.94128275 0.07889263 -0.30400047
v 0.94184285 0.07846232 -0.30051363
v 0.95148861 0.08849652 -0.30051363
v 0.93904245 0.08080950 -0.31732595
v 0.93667769 0.08311756 -0.33000737
v 0.94532776 0.09311265 -0.33000737
v 0.94234073 0.09669211 -0.34624225
v 0.93978924 0.10177767 -0.35956770
v 0.94346082 0.10905394 -0.35175011
v 0.93673992 0.10905394 -0.36867347
v 0.92087102 0.09856986 -0.40207601
v 0.90120602 0.09811997 -0.44243002
v 0.90220177 0.10999282 -0.44429559
v 0.89691210 0.10999282 -0.45431191
v 0.88838649 0.10999282 -0.46999153
v 0.85459507 0.11124465 -0.52740216
v 0.87562913 0.10999282 -0.49257824
v 0.86455202 0.11165541 -0.51143378
v 0.85938686 0.10608084 -0.51907372
v 0.88066983 0.09892193 -0.48125157
v 0.69018096 -0.04920493 -0.44231898
v 0.75023377 0.02281450 -0.52740216
v 0.76149762 0.01898076 -0.50235027
v 0.75185180 0.02385117 -0.52740216
v 0.76952541 0.03543061 -0.52740216
v 0.76890308 0.02701987 -0.50941277
v 0.74930036 0.00595389 -0.48997977
v 0.75645691 0.00227664 -0.46999153
v 0.74643773 -0.00409988 -0.46999153
v 0.73666745 -0.01796783 -0.44998112
v 0.72671050 -0.02410962 -0.44998112
v 0.70642322 -0.04398245 -0.42999288
v 0.69783533 -0.04920493 -0.43001509
v 0.72067410 -0.04920493 -0.38955006
v 0.75010931 -0.02418786 -0.40842780
v 0.75683028 -0.01798739 -0.41400230
v 0.78029132 -0.00020747 -0.42062062
v 0.78296727 -0.00200697 -0.41000468
v 0.79298645 0.00474118 -0.41000468
v 0.81999469 0.01997831 -0.40007719
v 0.86654341 0.05542079 -0.41000468
v 0.87656260 0.06238410 -0.41000468
v 0.89112461 0.07310291 -0.41022676
v 0.90164167 0.07867748 -0.40371948
v 0.91788393 0.08184617 -0.37500307
v 0.92348468 0.09532292 -0.39001644
v 0.91464794 0.08532783 -0.39001644
v 0.90973169 0.08986571 -0.40956047
v 0.90431762 0.09448184 -0.42999288
v 0.89535630 0.08446719 -0.42999288
v 0.88981777 0.08972879 -0.44973680
v 0.88378137 0.09518600 -0.46999153
v 0.84681618 0.09236938 -0.52740216
v 0.86343187 0.09567499 -0.50572604
v 0.87475789 0.08519091 -0.46999153
v 0.86903262 0.09062855 -0.48842514
v 0.77543736 0.02306877 -0.48997977
v 0.76541817 0.01637930 -0.48997977
v 0.81706983 0.06195379 -0.51534259
v 0.77817547 0.04120077 -0.52740216
v 0.78041577 0.03969466 -0.52067280
v 0.80313009 0.05786578 -0.52740216
v 0.77904671 0.02064335 -0.47840881
v 0.75969291 0.00018373 -0.45953104
v 0.73977900 -0.01988469 -0.43969828
v 0.70885020 -0.04920493 -0.41127059
v 0.71127725 -0.04920493 -0.40696201
v 0.72322559 -0.04204602 -0.40591818
v 0.72994649 -0.03588466 -0.41155931
v 0.74351287 -0.02225143 -0.42637280
v 0.75010931 -0.01610964 -0.43181404
v 0.77008545 -0.00429548 -0.42837161
v 0.77680641 0.00215928 -0.43394613
v 0.78819466 0.00785120 -0.42837161
v 0.80256999 0.01819837 -0.42999288
v 0.81675863 0.02222770 -0.41340268
v 0.81003773 0.01579250 -0.40805027
v 0.86274731 0.05804181 -0.42555106
v 0.86965495 0.06496601 -0.43132544
v 0.88539940 0.07591953 -0.42999288
v 0.89859235 0.08116157 -0.41702276
v 0.87836730 0.08133762 -0.45704362
v 0.83885062 0.08388039 -0.52740216
v 0.85733324 0.08233517 -0.49559867
v 0.82123929 0.05913717 -0.50199491
v 0.80568159 0.05958704 -0.52740216
v 0.81190467 0.06381197 -0.52740216
v 0.81420720 0.06541588 -0.52740216
v 0.82715124 0.07443298 -0.52740216
v 0.83057392 0.06948434 -0.51094520
v 0.83486784 0.06344034 -0.48997977
v 0.78296727 0.01798321 -0.46508333
v 0.82491094 0.05665306 -0.48997977
v 0.83860171 0.06091711 -0.47765368
v 0.78975046 0.02498564 -0.47105759
v 0.77008545 0.00417394 -0.45171344
v 0.76342678 -0.00230037 -0.44618335
v 0.71171284 -0.04732718 -0.41155931
v 0.80001855 0.01997831 -0.44005364
v 0.85938686 0.06038900 -0.43887654
v 0.88191444 0.07850143 -0.44371814
v 0.86480093 0.07640853 -0.46999153
v 0.86131603 0.07897087 -0.48225099
v 0.83741933 0.08237429 -0.52740216
v 0.83990860 0.08004666 -0.51987326
v 0.84401584 0.07701488 -0.50652558
v 0.85036337 0.07413958 -0.48935792
v 0.79628468 0.02250154 -0.45340133
v 0.84246004 0.05831565 -0.46430600
v 0.84942991 0.06567016 -0.47059119
v 0.85639977 0.06246234 -0.44998112
v 0.87102401 0.07308335 -0.45022541
f 1 2 9
f 1 9 16
f 1 16 31
f 1 31 52
f 1 52 81
f 1 81 113
f 1 113 148
f 1 148 189
f 1 189 234
f 1 234 246
f 1 246 279
f 1 279 280
f 1 280 247
f 1 247 197
f 1 197 158
f 1 158 121
f 1 121 86
f 1 86 59
f 1 59 37
f 1 37 20
f 1 20 10
f 1 10 3
f 1 3 4
f 1 4 5
f 1 5 6
f 1 6 14
f 1 14 28
f 1 28 51
f 1 51 80
f 1 80 111
f 1 111 146
f 1 146 186
f 1 186 229
f 1 229 266
f 1 266 296
f 1 296 317
f 1 317 302
f 1 302 301
f 1 301 300
f 1 300 299
f 1 299 275
f 1 275 273
f 1 273 238
f 1 238 237
f 1 237 235
f 1 235 190
f 1 190 151
f 1 151 149
f 1 149 114
f 1 114 82
f 1 82 54
f 1 54 53
f 1 53 32
f 1 32 18
f 1 18 17
f 1 17 15
f 1 15 7
f 1 7 2
f 2 7 8
f 2 8 9
f 3 10 22
f 3 22 42
f 3 42 69
f 3 69 101
f 3 101 133
f 3 133 171
f 3 171 172
f 3 172 215
f 3 215 216
f 3 216 173
f 3 173 136
f 3 136 135
f 3 135 134
f 3 134 102
f 3 102 70
f 3 70 43
f 3 43 23
f 3 23 11
f 3 11 5
f 3 5 4
f 5 11 12
f 5 12 13
f 5 13 6
f 6 13 14
f 7 15 8
f 8 16 9
f 8 15 17
f 8 17 18
f 8 18 19
f 8 19 16
f 10 20 21
f 10 21 22
f 11 23 24
f 11 24 25
f 11 25 14
f 11 14 26
f 11 26 12
f 12 26 14
f 12 14 13
f 14 27 28
f 14 25 29
f 14 29 27
f 16 19 30
f 16 30 31
f 18 32 19
f 19 32 33
f 19 33 34
f 19 34 35
f 19 35 30
f 20 36 21
f 20 37 36
f 21 38 22
f 21 36 39
f 21 39 38
f 22 38 40
f 22 40 41
f 22 41 42
f 23 43 44
f 23 44 24
f 24 44 45
f 24 45 46
f 24 46 25
f 25 46 47
f 25 47 29
f 27 29 48
f 27 48 49
f 27 49 28
f 28 49 50
f 28 50 51
f 29 47 48
f 30 35 31
f 31 35 52
f 32 53 33
f 33 53 54
f 33 54 55
f 33 55 56
f 33 56 34
f 34 56 57
f 34 57 35
f 35 57 58
f 35 58 52
f 36 37 59
f 36 59 60
f 36 60 61
f 36 61 62
f 36 62 63
f 36 63 39
f 38 39 40
f 39 41 40
f 39 63 64
f 39 64 65
f 39 65 66
f 39 66 67
f 39 67 41
f 41 67 68
f 41 68 69
f 41 69 42
f 43 70 71
f 43 71 72
f 43 72 44
f 44 72 73
f 44 73 45
f 45 73 46
f 46 73 74
f 46 74 75
f 46 75 47
f 47 75 76
f 47 76 48
f 48 77 49
f 48 76 77
f 49 77 50
f 50 78 51
f 50 77 79
f 50 79 78
f 51 78 80
f 52 58 81
f 54 82 55
f 55 82 83
f 55 83 56
f 56 83 57
f 57 84 58
f 57 83 85
f 57 85 84
f 58 84 81
f 59 86 87
f 59 87 61
f 59 61 60
f 61 87 88
f 61 88 89
f 61 89 90
f 61 90 91
f 61 91 62
f 62 91 63
f 63 90 92
f 63 92 93
f 63 93 64
f 63 91 90
f 64 93 66
f 64 66 65
f 66 94 95
f 66 95 96
f 66 96 97
f 66 97 98
f 66 98 67
f 66 93 94
f 67 98 99
f 67 99 69
f 67 69 68
f 69 99 100
f 69 100 101
f 70 102 103
f 70 103 71
f 71 103 104
f 71 104 105
f 71 105 106
f 71 106 107
f 71 107 73
f 71 73 72
f 73 107 75
f 73 75 74
f 75 107 108
f 75 108 109
f 75 109 76
f 76 109 77
f 77 109 79
f 78 79 110
f 78 110 111
f 78 111 80
f 79 109 112
f 79 112 110
f 81 84 113
f 82 114 115
f 82 115 83
f 83 116 117
f 83 117 85
f 83 115 118
f 83 118 116
f 84 119 113
f 84 85 117
f 84 117 120
f 84 120 119
f 86 121 87
f 87 121 122
f 87 122 123
f 87 123 88
f 88 123 89
f 89 123 124
f 89 124 125
f 89 125 90
f 90 125 92
f 92 125 126
f 92 126 93
f 93 126 94
f 94 127 95
f 94 126 127
f 95 127 96
f 96 127 128
f 96 128 129
f 96 129 97
f 97 129 130
f 97 130 99
f 97 99 98
f 99 130 131
f 99 131 132
f 99 132 100
f 100 132 101
f 101 132 133
f 102 134 103
f 103 134 135
f 103 135 136
f 103 136 137
f 103 137 138
f 103 138 139
f 103 139 104
f 104 139 105
f 105 140 106
f 105 139 140
f 106 140 141
f 106 141 142
f 106 142 143
f 106 143 108
f 106 108 107
f 108 143 112
f 108 112 109
f 110 112 144
f 110 144 145
f 110 145 111
f 111 145 147
f 111 147 146
f 112 143 144
f 113 119 148
f 114 149 115
f 115 150 118
f 115 149 151
f 115 151 152
f 115 152 150
f 116 118 153
f 116 153 154
f 116 154 117
f 117 154 120
f 118 150 153
f 119 120 155
f 119 155 148
f 120 154 156
f 120 156 155
f 121 157 122
f 121 158 157
f 122 157 159
f 122 159 160
f 122 160 123
f 123 160 161
f 123 161 162
f 123 162 124
f 124 162 125
f 125 162 163
f 125 163 127
f 125 127 126
f 127 164 128
f 127 163 164
f 128 165 166
f 128 166 167
f 128 167 129
f 128 164 165
f 129 167 130
f 130 167 168
f 130 168 169
f 130 169 131
f 131 169 170
f 131 170 132
f 132 171 133
f 132 170 172
f 132 172 171
f 136 173 174
f 136 174 137
f 137 174 138
f 138 175 139
f 138 174 175
f 139 175 176
f 139 176 177
f 139 177 178
f 139 178 141
f 139 141 140
f 141 178 179
f 141 179 180
f 141 180 181
f 141 181 142
f 142 181 143
f 143 181 144
f 144 182 145
f 144 181 183
f 144 183 184
f 144 184 182
f 145 182 185
f 145 185 147
f 146 147 186
f 147 187 186
f 147 185 184
f 147 184 188
f 147 188 187
f 148 155 189
f 150 152 153
f 151 190 152
f 152 190 191
f 152 191 192
f 152 192 153
f 153 192 193
f 153 193 154
f 154 193 194
f 154 194 195
f 154 195 156
f 155 196 189
f 155 156 195
f 155 195 196
f 157 158 197
f 157 197 159
f 159 198 160
f 159 197 199
f 159 199 200
f 159 200 198
f 160 198 161
f 161 198 201
f 161 201 202
f 161 202 162
f 162 202 201
f 162 201 203
f 162 203 204
f 162 204 205
f 162 205 165
f 162 165 163
f 163 165 206
f 163 206 164
f 164 206 165
f 165 205 204
f 165 204 207
f 165 207 166
f 166 208 209
f 166 209 167
f 166 207 208
f 167 209 168
f 168 209 210
f 168 210 211
f 168 211 212
f 168 212 169
f 169 212 213
f 169 213 170
f 170 213 172
f 172 213 214
f 172 214 215
f 173 216 217
f 173 217 218
f 173 218 219
f 173 219 174
f 174 219 220
f 174 220 221
f 174 221 175
f 175 221 222
f 175 222 176
f 176 221 223
f 176 223 177
f 176 222 221
f 177 223 221
f 177 221 224
f 177 224 178
f 178 224 179
f 179 224 180
f 180 225 226
f 180 226 181
f 180 224 225
f 181 226 227
f 181 227 184
f 181 184 183
f 182 184 185
f 184 227 228
f 184 228 188
f 186 187 229
f 187 188 230
f 187 230 231
f 187 231 232
f 187 232 229
f 188 228 233
f 188 233 230
f 189 196 234
f 190 235 191
f 191 236 192
f 191 235 237
f 191 237 238
f 191 238 239
f 191 239 236
f 192 236 193
f 193 236 240
f 193 240 241
f 193 241 242
f 193 242 194
f 194 242 195
f 195 242 243
f 195 243 244
f 195 244 196
f 196 245 246
f 196 246 234
f 196 244 245
f 197 247 199
f 198 200 248
f 198 248 249
f 198 249 250
f 198 250 251
f 198 251 201
f 199 247 248
f 199 248 200
f 201 251 252
f 201 252 253
f 201 253 203
f 203 253 204
f 204 254 255
f 204 255 256
f 204 256 207
f 204 253 254
f 207 256 257
f 207 257 208
f 208 257 258
f 208 258 210
f 208 210 209
f 210 258 218
f 210 218 217
f 210 217 211
f 211 217 212
f 212 217 213
f 213 217 214
f 214 217 216
f 214 216 215
f 218 258 220
f 218 220 219
f 220 258 259
f 220 259 224
f 220 224 221
f 224 259 260
f 224 260 261
f 224 261 262
f 224 262 225
f 225 227 226
f 225 262 263
f 225 263 264
f 225 264 265
f 225 265 233
f 225 233 227
f 227 233 228
f 229 232 266
f 230 233 232
f 230 232 231
f 232 233 267
f 232 267 266
f 233 268 269
f 233 269 267
f 233 265 268
f 236 270 271
f 236 271 241
f 236 241 240
f 236 239 272
f 236 272 270
f 238 273 274
f 238 274 239
f 239 274 275
f 239 275 272
f 241 271 276
f 241 276 277
f 241 277 242
f 242 277 243
f 243 278 244
f 243 277 278
f 244 278 245
f 245 279 246
f 245 278 279
f 247 280 281
f 247 281 282
f 247 282 248
f 248 283 249
f 248 282 283
f 249 283 284
f 249 284 285
f 249 285 250
f 250 285 286
f 250 286 287
f 250 287 252
f 250 252 251
f 252 287 288
f 252 288 289
f 252 289 290
f 252 290 253
f 253 290 289
f 253 289 254
f 254 291 255
f 254 289 291
f 255 291 292
f 255 292 293
f 255 293 256
f 256 293 294
f 256 294 257
f 257 294 258
f 258 260 259
f 258 294 260
f 260 294 261
f 261 294 262
f 262 294 263
f 263 294 295
f 263 295 264
f 264 295 265
f 265 295 268
f 266 267 297
f 266 297 296
f 267 269 297
f 268 295 297
f 268 297 269
f 270 276 271
f 270 272 298
f 270 298 276
f 272 275 299
f 272 299 300
f 272 300 301
f 272 301 302
f 272 302 303
f 272 303 304
f 272 304 298
f 273 275 274
f 276 305 277
f 276 298 306
f 276 306 307
f 276 307 308
f 276 308 305
f 277 305 309
f 277 309 310
f 277 310 278
f 278 311 279
f 278 310 284
f 278 284 283
f 278 283 311
f 279 311 280
f 280 311 283
f 280 283 282
f 280 282 281
f 284 310 285
f 285 310 286
f 286 310 309
f 286 309 312
f 286 312 287
f 287 312 288
f 288 312 313
f 288 313 291
f 288 291 289
f 291 313 292
f 292 313 314
f 292 314 293
f 293 314 294
f 294 314 295
f 295 315 316
f 295 316 297
f 295 314 315
f 296 297 317
f 297 316 318
f 297 318 317
f 298 304 306
f 302 317 318
f 302 318 303
f 303 318 319
f 303 319 304
f 304 319 320
f 304 320 307
f 304 307 306
f 305 321 309
f 305 308 307
f 305 307 322
f 305 322 321
f 307 320 323
f 307 323 322
f 309 321 312
f 312 321 322
f 312 322 324
f 312 324 313
f 313 324 325
f 313 325 314
f 314 325 315
f 315 324 323
f 315 323 316
f 315 325 324
f 316 323 320
f 316 320 319
f 316 319 318
f 322 323 324
