v 0.90866107 0.10998163 0.43349749
v 0.90802675 0.10669146 0.43349749
v 0.90519106 0.12995903 0.43349749
v 0.90205687 0.12517154 0.44397771
v 0.90272844 0.10998163 0.44522047
v 0.90153450 0.09776665 0.44298357
v 0.90392244 0.09502813 0.43349749
v 0.90362394 0.13354471 0.43349749
v 0.89903462 0.13848981 0.43842691
v 0.88534111 0.13035306 0.47048903
v 0.88153529 0.12391064 0.48266762
v 0.89735556 0.10998163 0.45520359
v 0.88097560 0.09857441 0.48171490
v 0.88418448 0.09483111 0.47003335
v 0.89004242 0.08947228 0.45019132
v 0.89478105 0.08496062 0.43349749
v 0.89731824 0.08771884 0.43349749
v 0.90026587 0.13977042 0.43349749
v 0.88213229 0.14179969 0.46415117
v 0.87840110 0.13724861 0.47748965
v 0.88925886 0.10998163 0.47003335
v 0.87440872 0.13035306 0.48962685
v 0.86351365 0.12842230 0.50938606
v 0.86023021 0.12069929 0.52044624
v 0.88187110 0.10998163 0.48328900
v 0.87485647 0.08482271 0.47003335
v 0.85959589 0.10381503 0.51941061
v 0.84202200 0.09733322 0.54318792
v 0.86366290 0.09556007 0.50607216
v 0.85731989 0.08222210 0.49563330
v 0.87851304 0.08117792 0.45739907
v 0.89239311 0.08259644 0.43349749
v 0.89071405 0.14518836 0.43349749
v 0.88590080 0.14384864 0.45002562
v 0.86478227 0.14325759 0.49004108
v 0.86131227 0.14114952 0.50226116
v 0.83982062 0.13975072 0.53979117
v 0.85709602 0.13403726 0.51559961
v 0.86023021 0.11715300 0.52044624
v 0.84269363 0.12643245 0.54426497
v 0.82049304 0.12138885 0.58075941
v 0.87597585 0.10998163 0.49327216
v 0.86493152 0.11027715 0.51166439
v 0.85459614 0.11027715 0.52827537
v 0.84355181 0.10998163 0.54554909
v 0.83702219 0.10998163 0.55557370
v 0.81974679 0.10198279 0.57968235
v 0.82429886 0.09512664 0.56634390
v 0.82989562 0.08957079 0.54994005
v 0.83653718 0.08306927 0.53001517
v 0.80153859 0.09802277 0.60209268
v 0.83985794 0.08007463 0.51982486
v 0.86131227 0.07899104 0.48229483
v 0.88213229 0.07836059 0.44406056
v 0.86485690 0.07644954 0.47003335
v 0.88485610 0.07633133 0.43349749
v 0.88866186 0.14593701 0.43349749
v 0.86996865 0.14960150 0.45002562
v 0.87105066 0.14526716 0.47048903
v 0.85026795 0.14453819 0.50938606
v 0.84377569 0.14266655 0.52645266
v 0.82202286 0.14168146 0.56311285
v 0.79922527 0.13882473 0.59911019
v 0.81735885 0.13470711 0.57645130
v 0.82456005 0.12881634 0.56986493
v 0.83616406 0.13185039 0.55056137
v 0.82049304 0.11532076 0.58075941
v 0.80235946 0.12550648 0.60316974
v 0.78530794 0.10998163 0.62678134
v 0.79530752 0.10998163 0.61393994
v 0.80291915 0.10998163 0.60395676
v 0.82594061 0.10919356 0.57181185
v 0.81418735 0.10919356 0.58846426
v 0.81769466 0.08178867 0.55669212
v 0.80594140 0.09372783 0.59003836
v 0.77736050 0.10998163 0.63676453
v 0.78310651 0.09638754 0.62400591
v 0.78888988 0.09053617 0.60863769
v 0.79571795 0.08371942 0.59003836
v 0.83045530 0.06959339 0.51079446
v 0.84396219 0.07711940 0.50648636
v 0.82217205 0.07840000 0.54335362
v 0.82653755 0.07536595 0.53001517
v 0.84937245 0.06581069 0.47040617
v 0.85037988 0.07430207 0.48937833
v 0.87108797 0.07300176 0.45043987
v 0.86993134 0.06567278 0.43349749
v 0.85631245 0.06248112 0.45002562
v 0.86996865 0.15025166 0.43349749
v 0.84996945 0.15062599 0.47003335
v 0.82997024 0.15054718 0.51000738
v 0.84996945 0.14903015 0.49004108
v 0.83187318 0.14607492 0.53187919
v 0.82638830 0.14388806 0.55002290
v 0.81041884 0.14493224 0.56986493
v 0.80400121 0.14272565 0.58577168
v 0.78079319 0.14067669 0.62106484
v 0.78355426 0.12999843 0.62458587
v 0.79441202 0.13129874 0.60992181
v 0.77549487 0.12999843 0.63456905
v 0.74053365 0.12131004 0.68059099
v 0.80433697 0.07694208 0.56617820
v 0.79959840 0.08027165 0.57951671
v 0.76736093 0.10998163 0.64877743
v 0.73967546 0.10219951 0.67963821
v 0.76445055 0.09524485 0.64533925
v 0.77030855 0.08915706 0.63042665
v 0.77612919 0.08304957 0.61514121
v 0.81683648 0.06206739 0.51506114
v 0.82105273 0.05928946 0.50172263
v 0.83455962 0.06362382 0.49004108
v 0.81060541 0.07355341 0.55002290
v 0.81008303 0.06462859 0.53125787
v 0.83836544 0.06106260 0.47732395
v 0.84232050 0.05844229 0.46398547
v 0.85940933 0.06037305 0.43896544
v 0.86687171 0.06352530 0.43349749
v 0.84631288 0.05576288 0.45002562
v 0.86649859 0.15019256 0.43349749
v 0.78997189 0.15066539 0.57003063
v 0.52748269 0.15086240 0.81248462
v 0.59001744 0.15102002 0.76998371
v 0.76997274 0.15070480 0.59003836
v 0.80997109 0.14960150 0.55002290
v 0.76997274 0.14857703 0.61000466
v 0.79153901 0.14595671 0.59144676
v 0.78504676 0.14296207 0.61000466
v 0.76918918 0.14345461 0.62864542
v 0.76198798 0.14152387 0.64243954
v 0.73702633 0.13464801 0.67673856
v 0.75698817 0.12999843 0.65656513
v 0.76549530 0.12999843 0.64654052
v 0.72892964 0.12832379 0.68887573
v 0.72087026 0.12201929 0.70088869
v 0.74053365 0.11553747 0.68059099
v 0.74594384 0.12877694 0.67002785
v 0.79038233 0.06967220 0.57056916
v 0.79519558 0.06313127 0.55002290
v 0.78135288 0.07905015 0.60180277
v 0.78571832 0.07609491 0.59003836
v 0.75892842 0.10998163 0.65876061
v 0.72004938 0.09991412 0.70006019
v 0.74747366 0.10931177 0.67176771
v 0.74553347 0.09453559 0.66629970
v 0.75142872 0.08823109 0.65167707
v 0.75736129 0.08192658 0.63684732
v 0.80351615 0.05767393 0.52541709
v 0.81008303 0.05513243 0.50905466
v 0.82456005 0.05694498 0.49004108
v 0.79754621 0.04159744 0.49608898
v 0.80165052 0.03889833 0.48275048
v 0.80549365 0.03635683 0.47003335
v 0.79911333 0.06055037 0.53871417
v 0.83101499 0.05343809 0.47040617
v 0.81900054 0.04067147 0.45826897
v 0.82276905 0.03816937 0.44493049
v 0.79937452 0.02039855 0.43896544
v 0.83567899 0.04256282 0.43349749
v 0.85381258 0.05465959 0.43349749
v 0.82967174 0.04502552 0.45097837
v 0.84903663 0.14575970 0.43349749
v 0.52748269 0.15052748 0.80999917
v 0.71001250 0.15019256 0.66998643
v 0.72997439 0.14997584 0.64997870
v 0.74997354 0.14950299 0.63001239
v 0.52748269 0.14853762 0.82996547
v 0.55001909 0.15001523 0.80999917
v 0.57001829 0.15084270 0.78999144
v 0.63001579 0.14991674 0.74997598
v 0.65001500 0.15005463 0.72996825
v 0.67001414 0.15015316 0.70996052
v 0.69001335 0.15019256 0.68999422
v 0.74978697 0.14434119 0.64944023
v 0.74295890 0.14205581 0.66344148
v 0.72366863 0.14233163 0.68386346
v 0.71725100 0.13535726 0.69720197
v 0.72072101 0.10998163 0.70072299
v 0.70090842 0.12188138 0.72081357
v 0.71072143 0.10998163 0.71070611
v 0.78112900 0.05925006 0.56162155
v 0.77624112 0.06240232 0.57496005
v 0.78519601 0.05661005 0.55002290
v 0.76280886 0.07810447 0.62350887
v 0.76967424 0.07510983 0.60909337
v 0.75780904 0.06135813 0.59720469
v 0.76974887 0.06569248 0.59032834
v 0.70008755 0.09991412 0.72002649
v 0.70807230 0.09624963 0.70801359
v 0.69911742 0.08056717 0.69906604
v 0.71131843 0.08474390 0.69144404
v 0.72478801 0.09550097 0.68999422
v 0.73228770 0.08764003 0.67251331
v 0.73825765 0.08119762 0.65801495
v 0.74400365 0.07737552 0.64471787
v 0.77993500 0.04002132 0.51999056
v 0.76068205 0.01955138 0.50110126
v 0.79053158 0.04358730 0.51199573
v 0.79146439 0.05235451 0.53125787
v 0.76415205 0.01728570 0.49004108
v 0.77415168 0.02382662 0.49004108
v 0.79053158 0.03440637 0.48966828
v 0.77814406 0.02120631 0.47699258
v 0.78221107 0.01856630 0.46365410
v 0.76213723 0.03862251 0.54306364
v 0.76657736 0.03574608 0.53001517
v 0.79620302 0.02248691 0.45002562
v 0.76258498 -0.00170663 0.44451624
v 0.76568186 -0.00375559 0.43349749
v 0.79381502 0.01478359 0.43349749
v 0.80683690 0.02341289 0.43349749
v 0.84586513 0.14463671 0.43349749
v 0.52748269 0.14548388 0.79077852
v 0.71034831 0.14505044 0.69032556
v 0.73019826 0.14483371 0.67002785
v 0.52748269 0.14780867 0.83257520
v 0.53001988 0.14820269 0.82996547
v 0.61001658 0.14920747 0.76998371
v 0.64964187 0.14447910 0.74976885
v 0.67001414 0.14475492 0.73009253
v 0.69027454 0.14497164 0.71025050
v 0.70393068 0.14231193 0.70378834
v 0.69706529 0.13521935 0.71712685
v 0.70072186 0.10998163 0.72064787
v 0.68881935 0.12814648 0.72880840
v 0.68053609 0.12109332 0.74044847
v 0.68053609 0.11573449 0.74044847
v 0.76974887 0.05538855 0.56899500
v 0.75739861 0.04163685 0.55640215
v 0.76292080 0.05810737 0.58386618
v 0.73911577 0.06053066 0.61899364
v 0.75068247 0.06399814 0.61141306
v 0.75042129 0.07361251 0.63013667
v 0.75068247 0.05347750 0.59032834
v 0.74448872 0.05714199 0.60565513
v 0.68833429 0.10942999 0.73237085
v 0.67971528 0.10239652 0.73970282
v 0.64557487 0.09500843 0.76468146
v 0.66635758 0.09437798 0.74566787
v 0.69001335 0.09542216 0.72479028
v 0.69146848 0.08468480 0.71136892
v 0.67896903 0.08064598 0.71899092
v 0.68579710 0.07650864 0.70565242
v 0.69012529 0.06986921 0.69007707
v 0.70553505 0.07656775 0.68572754
v 0.71881813 0.08074448 0.67872691
v 0.72489995 0.07688297 0.66538841
v 0.72915351 0.07046026 0.64906740
v 0.72008669 0.05991992 0.64011985
v 0.73441452 0.06342679 0.63001239
v 0.75631660 0.02236870 0.51443976
v 0.74978697 0.01574897 0.50868183
v 0.73683977 0.00193816 0.49526051
v 0.74870497 0.00700147 0.48917121
v 0.74120528 -0.00076095 0.48192203
v 0.75493604 0.00325817 0.47003335
v 0.77086824 0.01373941 0.47019905
v 0.75866723 0.00085458 0.45785475
v 0.76956230 0.00524803 0.45072985
v 0.75042129 0.03424875 0.54985720
v 0.73829490 0.02104870 0.53767854
v 0.74978697 0.02522543 0.53063649
v 0.73896652 -0.01933954 0.43830267
v 0.74598116 -0.01660102 0.43349749
v 0.74989891 -0.01405951 0.43349749
v 0.75120485 -0.00669113 0.45072985
v 0.84179813 0.14268625 0.43349749
v 0.52748269 0.14495194 0.78945291
v 0.52748269 0.14282417 0.84446383
v 0.53001988 0.14250894 0.84359396
v 0.54837734 0.14351371 0.82942700
v 0.57013023 0.14516865 0.81057912
v 0.61001658 0.14339551 0.78564191
v 0.62897104 0.14386836 0.76936233
v 0.59177113 0.14621283 0.79177266
v 0.64270186 0.14170116 0.76232028
v 0.66333532 0.14199670 0.74297535
v 0.68374491 0.14221340 0.72346467
v 0.67665565 0.13443129 0.73680317
v 0.67001414 0.12865873 0.74595785
v 0.65688038 0.12999843 0.75710088
v 0.64688075 0.12999843 0.76588273
v 0.63520217 0.12999843 0.77590734
v 0.62520254 0.12999843 0.78410923
v 0.60352433 0.12613693 0.80262572
v 0.63725430 0.10998163 0.77768856
v 0.64904487 0.10998163 0.76770538
v 0.65904444 0.10998163 0.75913066
v 0.67184246 0.10942999 0.74757338
v 0.75042129 0.04419805 0.57131475
v 0.74407828 0.03744041 0.56551540
v 0.73907846 0.04057296 0.57885391
v 0.71486306 0.04311447 0.61385709
v 0.72975051 0.05012823 0.60975611
v 0.72441489 0.05727990 0.63001239
v 0.72038519 0.03976520 0.60051858
v 0.73460102 0.04329178 0.59003836
v 0.62430710 0.09611171 0.78336364
v 0.63079935 0.08890094 0.77060509
v 0.63732892 0.08167046 0.75772226
v 0.65195519 0.08803406 0.75167435
v 0.65837282 0.08104001 0.73846012
v 0.67266327 0.08752183 0.73241222
v 0.66564864 0.07668596 0.72516310
v 0.67001414 0.06992832 0.71000195
v 0.67441696 0.06317067 0.69442654
v 0.68113309 0.05934857 0.68112946
v 0.69449073 0.06324948 0.67421168
v 0.70986325 0.07006623 0.66982079
v 0.71419144 0.06354500 0.65341687
v 0.70083380 0.05948648 0.66087317
v 0.70852005 0.05720109 0.64803177
v 0.69557279 0.04258252 0.63510752
v 0.70893049 0.04738971 0.62905967
v 0.74295890 0.01811316 0.52434009
v 0.73008633 0.00444027 0.51104301
v 0.72351944 -0.00215976 0.50507796
v 0.69937861 -0.01961536 0.49911290
v 0.67978984 -0.03984889 0.47968513
v 0.69053572 -0.03644051 0.47181457
v 0.69755036 -0.03846978 0.45623922
v 0.70180386 -0.04112948 0.44290072
v 0.74493647 -0.00314484 0.47003335
v 0.73098177 0.02311736 0.55196983
v 0.72497457 0.01699017 0.54658473
v 0.70064723 -0.00036692 0.54086822
v 0.70463961 -0.00280992 0.53001517
v 0.73098177 0.01348329 0.53063649
v 0.73534727 -0.01707386 0.45002562
v 0.70463961 -0.04294203 0.43349749
v 0.73400408 -0.02426494 0.43349749
v 0.83832812 0.14097221 0.43349749
v 0.52748269 -0.02940705 0.43349749
v 0.52748269 0.14120863 0.84620368
v 0.54061651 0.14036146 0.84036291
v 0.56356329 0.14187849 0.82238495
v 0.58624893 0.14288327 0.80432415
v 0.62158328 0.14103132 0.78120959
v 0.59960657 0.13947490 0.79964322
v 0.61012852 0.13167307 0.79508662
v 0.58117449 0.12215721 0.82081079
v 0.62725472 0.10998163 0.78572476
v 0.60240501 0.09772725 0.80175585
v 0.72460145 0.03722370 0.59003836
v 0.71594512 0.02242781 0.57003063
v 0.71990013 0.02004392 0.55992317
v 0.70150542 0.03911505 0.62176907
v 0.70893049 0.03679026 0.60830629
v 0.70881855 0.02725470 0.58900273
v 0.60904652 0.09026035 0.78920442
v 0.61568803 0.08279344 0.77652872
v 0.62400860 0.07774985 0.76319021
v 0.64501518 0.07709970 0.74438375
v 0.64072430 0.05960469 0.72060645
v 0.65404463 0.06336769 0.71435142
v 0.64952993 0.07022384 0.72955400
v 0.66109663 0.05938797 0.70101297
v 0.66867089 0.05657065 0.68866861
v 0.64281380 0.03844519 0.68274498
v 0.65613413 0.04222789 0.67603433
v 0.66960371 0.04632583 0.66961366
v 0.68870741 0.05668886 0.66849518
v 0.67598403 0.04230670 0.65569520
v 0.68225247 0.03874072 0.64239812
v 0.65729082 0.02158064 0.63705444
v 0.66333532 0.01809346 0.62371600
v 0.71885544 0.00071667 0.51841646
v 0.69542354 -0.01725117 0.51000738
v 0.66173089 -0.04101128 0.50230259
v 0.67609596 -0.03762261 0.49004108
v 0.66165626 -0.05025132 0.48076212
v 0.66956639 -0.05025132 0.46949485
v 0.68422997 -0.04258741 0.46634662
v 0.66609639 -0.04367099 0.49004108
v 0.68206590 -0.05025132 0.45072985
v 0.68587172 -0.05025132 0.44488907
v 0.69292367 -0.05025132 0.43370461
v 0.71031100 0.00985820 0.55039573
v 0.69538623 0.00272623 0.55416524
v 0.66273832 -0.02160522 0.54343647
v 0.65669382 -0.03801664 0.51564109
v 0.68120772 -0.02069895 0.52156466
v 0.69303560 -0.05025132 0.43349749
v 0.52748269 -0.05025132 0.43349749
v 0.52748269 0.12995903 0.85337001
v 0.52882594 0.12930888 0.85287291
v 0.54419839 0.12999843 0.84276545
v 0.55419803 0.12999843 0.83593053
v 0.57688367 0.13547547 0.81766260
v 0.57013023 0.12928918 0.82524318
v 0.52748269 0.12804797 0.85423988
v 0.53113925 0.10998163 0.85440558
v 0.54662371 0.10998163 0.84438103
v 0.55662328 0.10998163 0.83762890
v 0.57001829 0.10998163 0.82826710
v 0.58091331 0.10998163 0.82064509
v 0.60445714 0.10998163 0.80328852
v 0.61445671 0.10998163 0.79570794
v 0.58005518 0.09993382 0.82002378
v 0.57001829 0.09599350 0.82350338
v 0.57001829 0.08598511 0.81385159
v 0.59363669 0.08440898 0.79508662
v 0.70135617 0.01923615 0.58162928
v 0.70594549 0.01645823 0.57003063
v 0.67669296 0.02193527 0.61617684
v 0.68949097 0.02609230 0.60971469
v 0.69579667 0.02246721 0.59496778
v 0.58027905 0.07983822 0.80018175
v 0.60236770 0.07869552 0.78174812
v 0.59844995 0.06080649 0.75871640
v 0.61188221 0.06321008 0.75121868
v 0.63038892 0.07298206 0.75059736
v 0.60941964 0.07436118 0.76990086
v 0.61979234 0.06009723 0.73978567
v 0.63001579 0.06289485 0.73531193
v 0.63001579 0.05664945 0.72532874
v 0.60191995 0.03895743 0.72164202
v 0.61527759 0.04260223 0.71567702
v 0.62259072 0.03858310 0.70233852
v 0.63594836 0.04226730 0.69604206
v 0.64844787 0.05674796 0.70859349
v 0.61747897 0.02140333 0.67748415
v 0.63053817 0.02473289 0.67048353
v 0.63755280 0.02138362 0.65743500
v 0.64967918 0.03497772 0.66961366
v 0.66266370 0.03850430 0.66269583
v 0.65038812 0.02485110 0.65047580
v 0.64393312 0.01777824 0.64413798
v 0.63098592 0.00367190 0.63121372
v 0.65038812 0.01409404 0.63021952
v 0.63829905 0.00095309 0.61812377
v 0.65053737 0.00426295 0.61087459
v 0.65001500 -0.04471517 0.50938606
v 0.64467937 -0.05025132 0.50391811
v 0.65273875 -0.05025132 0.49318931
v 0.67687953 -0.05025132 0.45855895
v 0.65736544 -0.01843327 0.55677497
v 0.65042543 -0.02566375 0.55006433
v 0.63800055 -0.03882440 0.53755426
v 0.64333612 -0.04193725 0.52421582
v 0.52748269 -0.05025132 0.63017809
v 0.52748269 0.10998163 0.85668391
v 0.52748269 0.10663236 0.85626966
v 0.54382527 0.09674217 0.84251696
v 0.55069071 0.08905855 0.83042115
v 0.55755609 0.08137494 0.81828398
v 0.66326070 -0.00188394 0.58386618
v 0.65758932 0.00140622 0.59720469
v 0.56983173 0.06683517 0.78928721
v 0.57636130 0.06181127 0.77723289
v 0.58818913 0.07621312 0.78903872
v 0.57001829 0.07717850 0.80386847
v 0.59106219 0.06480591 0.77035654
v 0.60647202 0.05647214 0.74537790
v 0.58509225 0.05737841 0.76393580
v 0.58061481 0.03970610 0.74044847
v 0.59393519 0.04315387 0.73498052
v 0.59020400 0.02561946 0.70983624
v 0.59699476 0.02158064 0.69728482
v 0.60915846 0.03547025 0.70938057
v 0.58837569 0.03651444 0.72897404
v 0.61050165 0.02492991 0.69036698
v 0.60415864 0.01773883 0.68394631
v 0.61050165 0.01364090 0.67048353
v 0.62423247 0.01767973 0.66414571
v 0.61124790 0.00343549 0.65126288
v 0.63053817 0.01370001 0.65047580
v 0.61871028 0.00073637 0.63866997
v 0.62497866 -0.00275081 0.62533152
v 0.64423162 -0.00239618 0.60478526
v 0.61147177 -0.01721177 0.61178589
v 0.61908340 -0.01947745 0.59898591
v 0.63102323 -0.01656162 0.59140533
v 0.63535142 -0.05025132 0.51605529
v 0.64400774 -0.02231448 0.56476980
v 0.62468016 -0.04264651 0.54550767
v 0.62691891 -0.05025132 0.52661836
v 0.52890056 -0.05025132 0.62897682
v 0.52748269 -0.04248890 0.64446932
v 0.52748269 0.09171826 0.84810913
v 0.53419882 0.08340420 0.83617908
v 0.52748269 0.08147344 0.83833313
v 0.54419839 0.07788776 0.82284057
v 0.63833636 -0.01904402 0.57810825
v 0.55367565 0.06305247 0.79554224
v 0.56304091 0.05848170 0.78220379
v 0.56983173 0.05395034 0.77035654
v 0.54893702 0.07046026 0.80925357
v 0.57001829 0.04358730 0.75449121
v 0.55378759 0.02303856 0.73518765
v 0.56942129 0.02695917 0.72909832
v 0.57568967 0.02219139 0.71638119
v 0.57001829 0.03706608 0.74450803
v 0.58367443 0.01817227 0.70304275
v 0.59020400 0.01413344 0.69036698
v 0.59124875 0.00363250 0.67093921
v 0.59874845 0.00065756 0.65876061
v 0.60538995 -0.00294783 0.64542210
v 0.61124790 -0.00730187 0.63121372
v 0.59960657 -0.01977298 0.61961502
v 0.60576308 -0.02318135 0.60627651
v 0.61147177 -0.02751569 0.59140533
v 0.62501597 -0.02280702 0.58564740
v 0.61900878 -0.03941545 0.55884618
v 0.60852414 -0.05025132 0.54844880
v 0.61128521 -0.05025132 0.54521769
v 0.61736703 -0.05025132 0.53809279
v 0.53117657 -0.05025132 0.62690562
v 0.53166163 -0.04749310 0.63171077
v 0.53938520 -0.03969127 0.63945705
v 0.53166163 -0.03687394 0.65101433
v 0.52748269 -0.03754380 0.65325123
v 0.52748269 0.07591760 0.83112538
v 0.52852744 0.07534625 0.82967556
v 0.53001988 0.06451038 0.81360304
v 0.54035532 0.05984111 0.80018175
v 0.54822814 0.05615691 0.78928721
v 0.55113840 0.04471029 0.77023226
v 0.55852616 0.04073058 0.75888211
v 0.54046726 0.01980750 0.74028277
v 0.54826546 0.01659614 0.72909832
v 0.56233203 0.01886182 0.72184914
v 0.56942129 0.01513822 0.70983624
v 0.55680984 0.00154413 0.69732624
v 0.57080179 0.00442056 0.69036698
v 0.57800299 0.00101219 0.67822981
v 0.58542806 -0.00275081 0.66489130
v 0.57949549 -0.01973357 0.63953990
v 0.59177113 -0.01748759 0.63171077
v 0.59177113 -0.02785062 0.61178589
v 0.59184575 -0.03781962 0.59198529
v 0.59975582 -0.03984889 0.57972383
v 0.58628625 -0.02324045 0.62620139
v 0.61139715 -0.03726798 0.57185328
v 0.60568845 -0.04311935 0.56638533
v 0.59878576 -0.05025132 0.55930185
v 0.53830314 -0.05025132 0.62040204
v 0.54658639 -0.04321785 0.62615997
v 0.55195928 -0.03766201 0.63171077
v 0.56617510 -0.02310254 0.64562923
v 0.55132496 -0.02729898 0.65138716
v 0.54554164 -0.02266911 0.66464275
v 0.53748226 -0.01884700 0.67798126
v 0.53050494 -0.02617599 0.67077351
v 0.52748269 -0.02926914 0.66779101
v 0.52748269 0.07485371 0.82967556
v 0.52748269 0.06391934 0.81443155
v 0.53001988 0.05745722 0.80357850
v 0.52946019 0.04715329 0.78895587
v 0.53576595 0.04195207 0.77706718
v 0.54520583 0.03751922 0.76372874
v 0.53001988 0.01744331 0.74392807
v 0.52890056 0.00735610 0.72860128
v 0.53483313 0.00233220 0.71609122
v 0.53001988 0.02398423 0.75395268
v 0.55009371 0.00564206 0.70962912
v 0.54348952 -0.00162782 0.70275277
v 0.56468266 -0.00229767 0.68398774
v 0.55886197 -0.01941834 0.65896767
v 0.57169729 -0.01715267 0.65138716
v 0.55994403 -0.03994739 0.61994642
v 0.57199579 -0.03789843 0.61195159
v 0.57998055 -0.03996710 0.59998012
v 0.58643550 -0.04333606 0.58664161
v 0.58766675 -0.05025132 0.57139760
v 0.58949506 -0.05025132 0.56945068
v 0.59180844 -0.05025132 0.56696522
v 0.54957134 -0.05025132 0.60988039
v 0.53050494 -0.01506430 0.68991137
v 0.52748269 -0.01829536 0.68672168
v 0.52748269 -0.02414673 0.67665571
v 0.52748269 -0.02759450 0.67069066
v 0.52748269 0.05694498 0.80448979
v 0.52748269 0.05562497 0.80258429
v 0.52748269 0.04605000 0.78862447
v 0.52748269 0.04008042 0.77988404
v 0.52748269 0.03233770 0.76828533
v 0.52748269 0.01563076 0.74280965
v 0.52748269 0.00704087 0.72909832
v 0.52748269 0.02341289 0.75482255
v 0.52748269 0.01691137 0.74483943
v 0.52748269 0.00585878 0.72719282
v 0.52748269 0.00069696 0.71882522
v 0.52748269 -0.00558784 0.70830357
v 0.52748269 -0.01565535 0.69123691
v 0.55013102 -0.05025132 0.60934186
v 0.55983210 -0.05025132 0.59985584
v 0.56666017 -0.04337547 0.60660791
v 0.56986904 -0.05025132 0.58987266
v 0.58083868 -0.05025132 0.57852250
f 1 2 7
f 1 7 17
f 1 17 16
f 1 16 32
f 1 32 56
f 1 56 87
f 1 87 117
f 1 117 159
f 1 159 158
f 1 158 210
f 1 210 209
f 1 209 208
f 1 208 264
f 1 264 263
f 1 263 330
f 1 330 329
f 1 329 382
f 1 382 383
f 1 383 332
f 1 332 331
f 1 331 266
f 1 266 211
f 1 211 161
f 1 161 119
f 1 119 89
f 1 89 57
f 1 57 33
f 1 33 18
f 1 18 8
f 1 8 3
f 1 3 4
f 1 4 5
f 1 5 6
f 1 6 2
f 2 6 7
f 3 8 9
f 3 9 4
f 4 9 10
f 4 10 11
f 4 11 5
f 5 11 12
f 5 12 13
f 5 13 6
f 6 13 14
f 6 14 15
f 6 15 16
f 6 16 17
f 6 17 7
f 8 18 9
f 9 19 20
f 9 20 10
f 9 18 19
f 10 20 11
f 11 21 12
f 11 20 22
f 11 22 23
f 11 23 24
f 11 24 25
f 11 25 21
f 12 21 13
f 13 26 14
f 13 21 25
f 13 25 27
f 13 27 28
f 13 28 29
f 13 29 30
f 13 30 26
f 14 26 31
f 14 31 15
f 15 31 16
f 16 31 32
f 18 33 34
f 18 34 19
f 19 34 35
f 19 35 36
f 19 36 20
f 20 36 37
f 20 37 38
f 20 38 23
f 20 23 22
f 23 38 37
f 23 37 24
f 24 39 25
f 24 37 40
f 24 40 41
f 24 41 67
f 24 67 39
f 25 39 42
f 25 42 27
f 26 30 31
f 27 42 43
f 27 43 39
f 27 39 44
f 27 44 45
f 27 45 46
f 27 46 47
f 27 47 28
f 28 48 49
f 28 49 50
f 28 50 29
f 28 47 51
f 28 51 48
f 29 50 30
f 30 50 52
f 30 52 53
f 30 53 31
f 31 54 32
f 31 53 55
f 31 55 54
f 32 54 56
f 33 57 34
f 34 58 59
f 34 59 35
f 34 57 58
f 35 60 61
f 35 61 36
f 35 59 60
f 36 61 37
f 37 61 62
f 37 62 63
f 37 63 64
f 37 64 65
f 37 65 66
f 37 66 40
f 39 43 42
f 39 67 46
f 39 46 45
f 39 45 44
f 40 66 41
f 41 64 63
f 41 63 68
f 41 68 69
f 41 69 70
f 41 70 71
f 41 71 67
f 41 66 65
f 41 65 64
f 46 67 72
f 46 72 47
f 47 67 73
f 47 73 71
f 47 71 70
f 47 70 51
f 47 72 67
f 48 74 49
f 48 51 75
f 48 75 74
f 49 74 50
f 50 74 52
f 51 70 69
f 51 69 76
f 51 76 77
f 51 77 78
f 51 78 79
f 51 79 75
f 52 80 81
f 52 81 53
f 52 74 82
f 52 82 83
f 52 83 80
f 53 84 55
f 53 81 85
f 53 85 84
f 54 55 86
f 54 86 87
f 54 87 56
f 55 84 88
f 55 88 86
f 57 89 58
f 58 90 91
f 58 91 92
f 58 92 59
f 58 89 90
f 59 92 60
f 60 92 93
f 60 93 94
f 60 94 61
f 61 94 62
f 62 94 95
f 62 95 96
f 62 96 97
f 62 97 63
f 63 97 98
f 63 98 99
f 63 99 68
f 67 71 73
f 68 99 98
f 68 98 100
f 68 100 101
f 68 101 76
f 68 76 69
f 74 102 82
f 74 75 79
f 74 79 103
f 74 103 102
f 76 104 105
f 76 105 77
f 76 101 104
f 77 106 107
f 77 107 108
f 77 108 78
f 77 105 106
f 78 108 79
f 79 108 103
f 80 83 109
f 80 109 110
f 80 110 111
f 80 111 81
f 81 111 85
f 82 102 112
f 82 112 113
f 82 113 83
f 83 113 109
f 84 85 111
f 84 111 114
f 84 114 115
f 84 115 88
f 86 88 116
f 86 116 87
f 87 116 117
f 88 118 116
f 88 115 118
f 89 119 90
f 90 120 91
f 90 119 121
f 90 121 122
f 90 122 123
f 90 123 120
f 91 120 124
f 91 124 92
f 92 124 93
f 93 124 94
f 94 124 95
f 95 124 125
f 95 125 126
f 95 126 96
f 96 126 127
f 96 127 97
f 97 127 128
f 97 128 129
f 97 129 130
f 97 130 131
f 97 131 132
f 97 132 100
f 97 100 98
f 100 132 101
f 101 133 134
f 101 134 135
f 101 135 104
f 101 132 131
f 101 131 136
f 101 136 130
f 101 130 133
f 102 137 138
f 102 138 112
f 102 103 137
f 103 108 139
f 103 139 140
f 103 140 137
f 104 135 141
f 104 141 105
f 105 135 142
f 105 142 106
f 105 141 143
f 105 143 135
f 106 144 145
f 106 145 146
f 106 146 107
f 106 142 144
f 107 146 108
f 108 146 139
f 109 147 148
f 109 148 110
f 109 113 147
f 110 149 114
f 110 114 111
f 110 148 150
f 110 150 151
f 110 151 152
f 110 152 149
f 112 138 153
f 112 153 113
f 113 153 147
f 114 154 115
f 114 149 154
f 115 154 155
f 115 155 118
f 116 118 156
f 116 156 157
f 116 157 158
f 116 158 159
f 116 159 117
f 118 155 160
f 118 160 156
f 119 161 162
f 119 162 121
f 120 123 163
f 120 163 164
f 120 164 165
f 120 165 125
f 120 125 124
f 121 162 212
f 121 212 267
f 121 267 332
f 121 332 383
f 121 383 440
f 121 440 478
f 121 478 511
f 121 511 544
f 121 544 571
f 121 571 570
f 121 570 569
f 121 569 584
f 121 584 583
f 121 583 582
f 121 582 581
f 121 581 578
f 121 578 577
f 121 577 580
f 121 580 579
f 121 579 576
f 121 576 575
f 121 575 574
f 121 574 573
f 121 573 572
f 121 572 546
f 121 546 545
f 121 545 512
f 121 512 481
f 121 481 479
f 121 479 442
f 121 442 441
f 121 441 390
f 121 390 384
f 121 384 333
f 121 333 268
f 121 268 215
f 121 215 166
f 121 166 167
f 121 167 168
f 121 168 122
f 122 168 169
f 122 169 170
f 122 170 171
f 122 171 172
f 122 172 163
f 122 163 123
f 125 165 173
f 125 173 128
f 125 128 126
f 126 128 127
f 128 173 129
f 129 173 174
f 129 174 130
f 130 136 131
f 130 174 175
f 130 175 176
f 130 176 133
f 133 176 134
f 134 177 135
f 134 176 178
f 134 178 179
f 134 179 177
f 135 143 141
f 135 177 142
f 137 180 138
f 137 140 181
f 137 181 180
f 138 182 153
f 138 180 182
f 139 146 183
f 139 183 184
f 139 184 185
f 139 185 186
f 139 186 140
f 140 186 181
f 142 177 187
f 142 187 188
f 142 188 189
f 142 189 190
f 142 190 191
f 142 191 144
f 144 192 193
f 144 193 145
f 144 191 192
f 145 193 146
f 146 193 194
f 146 194 183
f 147 195 196
f 147 196 197
f 147 197 148
f 147 153 198
f 147 198 195
f 148 196 150
f 148 197 196
f 149 152 154
f 150 196 199
f 150 199 200
f 150 200 201
f 150 201 151
f 151 202 152
f 151 201 200
f 151 200 202
f 152 202 203
f 152 203 155
f 152 155 154
f 153 204 205
f 153 205 198
f 153 182 204
f 155 206 157
f 155 157 156
f 155 156 160
f 155 203 206
f 157 206 207
f 157 207 208
f 157 208 209
f 157 209 210
f 157 210 158
f 161 211 212
f 161 212 162
f 163 172 213
f 163 213 164
f 164 213 214
f 164 214 165
f 165 214 173
f 166 215 216
f 166 216 167
f 167 216 217
f 167 217 168
f 168 217 169
f 169 217 218
f 169 218 219
f 169 219 220
f 169 220 170
f 170 220 213
f 170 213 171
f 171 213 172
f 173 214 174
f 174 214 175
f 175 213 221
f 175 221 176
f 175 214 213
f 176 221 222
f 176 222 178
f 177 179 187
f 178 223 179
f 178 222 224
f 178 224 225
f 178 225 226
f 178 226 223
f 179 223 187
f 180 181 227
f 180 227 228
f 180 228 204
f 180 204 182
f 181 186 229
f 181 229 227
f 183 230 231
f 183 231 184
f 183 194 232
f 183 232 230
f 184 231 185
f 185 233 229
f 185 229 186
f 185 231 234
f 185 234 233
f 187 223 235
f 187 235 236
f 187 236 237
f 187 237 238
f 187 238 239
f 187 239 240
f 187 240 188
f 188 240 189
f 189 240 241
f 189 241 242
f 189 242 243
f 189 243 244
f 189 244 245
f 189 245 190
f 190 245 191
f 191 245 192
f 192 245 193
f 193 245 246
f 193 246 194
f 194 247 248
f 194 248 249
f 194 249 232
f 194 246 247
f 195 250 196
f 195 198 205
f 195 205 250
f 196 251 252
f 196 252 253
f 196 253 199
f 196 250 251
f 199 253 254
f 199 254 255
f 199 255 202
f 199 202 200
f 202 255 256
f 202 256 203
f 203 256 257
f 203 257 258
f 203 258 206
f 204 259 260
f 204 260 261
f 204 261 205
f 204 228 259
f 205 261 250
f 206 258 207
f 207 262 263
f 207 263 264
f 207 264 208
f 207 258 257
f 207 257 265
f 207 265 262
f 211 266 267
f 211 267 212
f 213 220 221
f 215 268 269
f 215 269 270
f 215 270 216
f 216 270 271
f 216 271 217
f 217 272 273
f 217 273 218
f 217 271 274
f 217 274 272
f 218 273 275
f 218 275 276
f 218 276 277
f 218 277 219
f 219 277 220
f 220 277 221
f 221 277 222
f 222 277 276
f 222 276 278
f 222 278 224
f 223 226 235
f 224 278 225
f 225 278 279
f 225 279 280
f 225 280 281
f 225 281 282
f 225 282 283
f 225 283 284
f 225 284 285
f 225 285 286
f 225 286 287
f 225 287 226
f 226 236 235
f 226 287 288
f 226 288 236
f 227 289 290
f 227 290 228
f 227 229 289
f 228 290 259
f 229 291 289
f 229 233 291
f 230 292 293
f 230 293 234
f 230 234 231
f 230 232 249
f 230 249 248
f 230 248 294
f 230 294 292
f 233 234 291
f 234 293 295
f 234 295 296
f 234 296 291
f 236 288 287
f 236 287 286
f 236 286 285
f 236 285 297
f 236 297 237
f 237 297 298
f 237 298 299
f 237 299 300
f 237 300 238
f 238 300 301
f 238 301 302
f 238 302 239
f 239 302 241
f 239 241 240
f 241 302 301
f 241 301 303
f 241 303 304
f 241 304 242
f 242 305 243
f 242 304 305
f 243 306 307
f 243 307 244
f 243 305 306
f 244 307 308
f 244 308 245
f 245 308 246
f 246 308 309
f 246 309 247
f 247 309 248
f 248 309 310
f 248 310 311
f 248 311 312
f 248 312 313
f 248 313 294
f 250 261 314
f 250 314 251
f 251 314 252
f 252 314 315
f 252 315 316
f 252 316 317
f 252 317 318
f 252 318 319
f 252 319 320
f 252 320 254
f 252 254 253
f 254 320 321
f 254 321 322
f 254 322 255
f 255 322 257
f 255 257 256
f 257 322 265
f 259 290 260
f 260 290 323
f 260 323 324
f 260 324 325
f 260 325 326
f 260 326 327
f 260 327 314
f 260 314 261
f 262 265 328
f 262 328 321
f 262 321 329
f 262 329 330
f 262 330 263
f 265 322 328
f 266 331 267
f 267 331 332
f 268 333 269
f 269 333 334
f 269 334 335
f 269 335 270
f 270 335 336
f 270 336 271
f 271 336 272
f 271 272 274
f 272 337 273
f 272 336 337
f 273 337 275
f 275 337 281
f 275 281 280
f 275 280 278
f 275 278 276
f 278 280 279
f 281 337 282
f 282 337 283
f 283 337 338
f 283 338 339
f 283 339 284
f 284 339 338
f 284 338 340
f 284 340 341
f 284 341 285
f 285 341 342
f 285 342 297
f 289 291 290
f 290 291 323
f 291 296 343
f 291 343 344
f 291 344 345
f 291 345 323
f 292 294 313
f 292 313 346
f 292 346 347
f 292 347 295
f 292 295 293
f 295 348 343
f 295 343 296
f 295 347 348
f 297 342 349
f 297 349 350
f 297 350 298
f 298 350 299
f 299 350 351
f 299 351 352
f 299 352 301
f 299 301 300
f 301 352 303
f 303 353 354
f 303 354 304
f 303 352 355
f 303 355 353
f 304 354 356
f 304 356 305
f 305 356 357
f 305 357 306
f 306 357 358
f 306 358 359
f 306 359 360
f 306 360 361
f 306 361 307
f 307 361 310
f 307 310 308
f 308 310 309
f 310 362 363
f 310 363 312
f 310 312 311
f 310 361 362
f 312 363 364
f 312 364 365
f 312 365 346
f 312 346 313
f 314 366 315
f 314 327 366
f 315 366 317
f 315 317 316
f 317 366 367
f 317 367 368
f 317 368 369
f 317 369 318
f 318 370 371
f 318 371 372
f 318 372 319
f 318 369 373
f 318 373 370
f 319 372 320
f 320 374 375
f 320 375 321
f 320 372 374
f 321 328 322
f 321 375 376
f 321 376 329
f 323 345 324
f 324 377 325
f 324 345 377
f 325 377 378
f 325 378 379
f 325 379 380
f 325 380 381
f 325 381 326
f 326 381 368
f 326 368 367
f 326 367 327
f 327 367 366
f 329 376 382
f 333 384 334
f 334 384 385
f 334 385 386
f 334 386 387
f 334 387 388
f 334 388 338
f 334 338 335
f 335 338 336
f 336 338 337
f 338 388 340
f 340 389 387
f 340 387 386
f 340 386 390
f 340 390 391
f 340 391 392
f 340 392 393
f 340 393 394
f 340 394 395
f 340 395 396
f 340 396 397
f 340 397 341
f 340 388 389
f 341 397 398
f 341 398 342
f 342 398 399
f 342 399 400
f 342 400 401
f 342 401 349
f 343 348 402
f 343 402 344
f 344 403 345
f 344 402 403
f 345 403 377
f 346 365 404
f 346 404 405
f 346 405 406
f 346 406 347
f 347 406 348
f 348 406 402
f 349 401 350
f 350 401 407
f 350 407 408
f 350 408 351
f 351 409 410
f 351 410 411
f 351 411 352
f 351 408 412
f 351 412 409
f 352 411 413
f 352 413 414
f 352 414 355
f 353 355 414
f 353 414 415
f 353 415 416
f 353 416 417
f 353 417 418
f 353 418 419
f 353 419 420
f 353 420 354
f 354 420 356
f 356 420 419
f 356 419 358
f 356 358 357
f 358 421 422
f 358 422 423
f 358 423 424
f 358 424 359
f 358 419 421
f 359 424 425
f 359 425 360
f 360 425 361
f 361 425 362
f 362 425 426
f 362 426 364
f 362 364 363
f 364 426 427
f 364 427 428
f 364 428 429
f 364 429 365
f 365 430 431
f 365 431 404
f 365 429 430
f 368 432 433
f 368 433 434
f 368 434 373
f 368 373 369
f 368 381 380
f 368 380 432
f 370 373 434
f 370 434 433
f 370 433 473
f 370 473 476
f 370 476 506
f 370 506 505
f 370 505 504
f 370 504 535
f 370 535 566
f 370 566 565
f 370 565 564
f 370 564 589
f 370 589 588
f 370 588 586
f 370 586 585
f 370 585 567
f 370 567 536
f 370 536 507
f 370 507 477
f 370 477 440
f 370 440 383
f 370 383 382
f 370 382 376
f 370 376 375
f 370 375 374
f 370 374 435
f 370 435 371
f 371 435 372
f 372 435 374
f 377 403 378
f 378 403 402
f 378 402 379
f 379 436 437
f 379 437 438
f 379 438 439
f 379 439 380
f 379 402 436
f 380 439 432
f 384 390 385
f 385 390 386
f 387 389 388
f 390 441 391
f 391 441 442
f 391 442 392
f 392 442 398
f 392 398 393
f 393 398 394
f 394 398 395
f 395 398 396
f 396 398 397
f 398 442 443
f 398 443 399
f 399 443 444
f 399 444 445
f 399 445 400
f 400 445 401
f 401 445 407
f 402 406 446
f 402 446 436
f 404 431 447
f 404 447 405
f 405 447 406
f 406 447 446
f 407 448 449
f 407 449 450
f 407 450 408
f 407 445 451
f 407 451 448
f 408 450 452
f 408 452 412
f 409 453 410
f 409 412 452
f 409 452 454
f 409 454 455
f 409 455 456
f 409 456 453
f 410 453 413
f 410 413 411
f 413 416 414
f 413 453 416
f 414 416 415
f 416 457 458
f 416 458 459
f 416 459 417
f 416 453 456
f 416 456 460
f 416 460 457
f 417 459 418
f 418 459 458
f 418 458 461
f 418 461 419
f 419 461 421
f 421 461 462
f 421 462 463
f 421 463 464
f 421 464 422
f 422 464 423
f 423 425 424
f 423 464 465
f 423 465 466
f 423 466 427
f 423 427 426
f 423 426 425
f 427 467 428
f 427 466 467
f 428 467 468
f 428 468 430
f 428 430 429
f 430 469 431
f 430 468 470
f 430 470 471
f 430 471 472
f 430 472 469
f 431 469 447
f 432 439 473
f 432 473 433
f 436 474 437
f 436 446 474
f 437 474 438
f 438 474 475
f 438 475 476
f 438 476 439
f 439 476 473
f 440 477 478
f 442 479 443
f 443 479 480
f 443 480 444
f 444 480 445
f 445 480 481
f 445 481 482
f 445 482 451
f 446 447 483
f 446 483 474
f 447 469 483
f 448 451 484
f 448 484 485
f 448 485 449
f 449 485 486
f 449 486 454
f 449 454 452
f 449 452 450
f 451 482 487
f 451 487 484
f 454 486 488
f 454 488 455
f 455 489 490
f 455 490 491
f 455 491 460
f 455 460 456
f 455 488 492
f 455 492 489
f 457 460 491
f 457 491 493
f 457 493 458
f 458 494 495
f 458 495 462
f 458 462 461
f 458 493 494
f 462 495 496
f 462 496 463
f 463 496 464
f 464 496 465
f 465 496 497
f 465 497 467
f 465 467 466
f 467 497 498
f 467 498 468
f 468 499 470
f 468 498 499
f 469 472 483
f 470 499 500
f 470 500 471
f 471 501 502
f 471 502 472
f 471 500 501
f 472 502 483
f 474 503 475
f 474 483 503
f 475 503 504
f 475 504 505
f 475 505 506
f 475 506 476
f 477 507 508
f 477 508 478
f 478 508 509
f 478 509 510
f 478 510 511
f 479 481 480
f 481 512 482
f 482 512 513
f 482 513 514
f 482 514 515
f 482 515 487
f 483 502 503
f 484 515 516
f 484 516 485
f 484 487 515
f 485 517 518
f 485 518 486
f 485 516 517
f 486 518 488
f 488 518 492
f 489 492 518
f 489 518 519
f 489 519 520
f 489 520 521
f 489 521 490
f 490 521 491
f 491 521 522
f 491 522 493
f 493 523 524
f 493 524 525
f 493 525 494
f 493 522 523
f 494 525 495
f 495 526 496
f 495 525 526
f 496 526 527
f 496 527 528
f 496 528 497
f 497 528 499
f 497 499 498
f 499 529 530
f 499 530 531
f 499 531 500
f 499 528 532
f 499 532 529
f 500 531 501
f 501 531 533
f 501 533 502
f 502 533 503
f 503 533 534
f 503 534 504
f 504 534 535
f 507 536 508
f 508 536 509
f 509 536 537
f 509 537 538
f 509 538 539
f 509 539 540
f 509 540 541
f 509 541 510
f 510 541 542
f 510 542 511
f 511 542 543
f 511 543 544
f 512 545 513
f 513 545 514
f 514 546 515
f 514 545 546
f 515 546 547
f 515 547 548
f 515 548 549
f 515 549 516
f 516 549 517
f 517 549 550
f 517 550 518
f 518 550 519
f 519 551 552
f 519 552 553
f 519 553 520
f 519 550 554
f 519 554 551
f 520 553 521
f 521 553 555
f 521 555 523
f 521 523 522
f 523 555 556
f 523 556 542
f 523 542 541
f 523 541 557
f 523 557 524
f 524 557 525
f 525 557 558
f 525 558 526
f 526 558 559
f 526 559 527
f 527 532 528
f 527 559 539
f 527 539 538
f 527 538 560
f 527 560 532
f 529 561 562
f 529 562 530
f 529 532 561
f 530 562 563
f 530 563 531
f 531 563 564
f 531 564 565
f 531 565 566
f 531 566 535
f 531 535 534
f 531 534 533
f 532 560 561
f 536 567 537
f 537 567 560
f 537 560 538
f 539 559 558
f 539 558 540
f 540 558 541
f 541 558 557
f 542 556 568
f 542 568 569
f 542 569 570
f 542 570 571
f 542 571 543
f 543 571 544
f 546 572 547
f 547 572 573
f 547 573 548
f 548 574 575
f 548 575 549
f 548 573 574
f 549 575 576
f 549 576 554
f 549 554 550
f 551 577 578
f 551 578 552
f 551 554 579
f 551 579 580
f 551 580 577
f 552 578 581
f 552 581 582
f 552 582 553
f 553 582 583
f 553 583 556
f 553 556 555
f 554 576 579
f 556 583 584
f 556 584 568
f 560 567 585
f 560 585 586
f 560 586 587
f 560 587 561
f 561 587 562
f 562 588 563
f 562 587 588
f 563 588 589
f 563 589 564
f 568 584 569
f 586 588 587
