v 0.30097985 0.10999390 0.96251774
v 0.28999186 0.10999390 0.96594393
v 0.30097985 0.09868457 0.96080470
v 0.30097985 0.12082956 0.96219367
v 0.24109071 0.12086903 0.98025048
v 0.26998952 0.10999390 0.97182393
v 0.28999186 0.08636864 0.95399868
v 0.30097985 0.09781614 0.96006387
v 0.23858672 0.10346094 0.97964859
v 0.22524202 0.09811220 0.98117644
v 0.28999186 0.09635560 0.96247149
v 0.30097985 0.12485592 0.96163809
v 0.28940266 0.13014546 0.96316594
v 0.26998952 0.12998755 0.96876818
v 0.24866155 0.12852702 0.97511125
v 0.22998485 0.13448760 0.97747248
v 0.22998485 0.12448092 0.98154688
v 0.14125580 0.12061245 1.00015926
v 0.18998018 0.10999390 0.99076045
v 0.20998251 0.10999390 0.98668611
v 0.24109071 0.11678346 0.98025048
v 0.24866155 0.11007286 0.97765768
v 0.30097985 0.08818445 0.95182258
v 0.26998952 0.08283570 0.95705444
v 0.30097985 0.07805934 0.94223857
v 0.23113373 0.11007286 0.98196352
v 0.26998952 0.09282266 0.96538836
v 0.13671918 0.10456622 0.99946475
v 0.12340393 0.09923720 1.00043702
v 0.20998251 0.09576349 0.98284322
v 0.20998251 0.08575679 0.97460192
v 0.25637966 0.08086200 0.95899904
v 0.30097985 0.13444814 0.95756376
v 0.29567733 0.13691527 0.95839715
v 0.28233263 0.14072451 0.96066582
v 0.21672851 0.13843502 0.97913927
v 0.21001197 0.13105336 0.98344511
v 0.18998018 0.12998755 0.98779726
v 0.16997784 0.12998755 0.99140865
v 0.14876771 0.12834938 0.99566817
v 0.13000265 0.13284943 0.99668676
v 0.13000265 0.12284274 1.00094628
v 0.09002744 0.10999390 1.00553000
v 0.11000030 0.10999390 1.00344646
v 0.14125580 0.11788873 1.00015926
v 0.16997784 0.10999390 0.99446440
v 0.28999186 0.07659879 0.94399798
v 0.30097985 0.07454614 0.93788648
v 0.14876771 0.11072418 0.99821466
v 0.13003209 0.11072418 1.00103891
v 0.16997784 0.09134238 0.98668611
v 0.18998018 0.09327662 0.98483413
v 0.07002510 0.10999390 1.00715041
v 0.11000030 0.09799378 1.00122416
v 0.11000030 0.08800682 0.99289024
v 0.15766418 0.08032911 0.97960228
v 0.16997784 0.08133569 0.97853738
v 0.18998018 0.08326992 0.97668540
v 0.24303496 0.07930277 0.96075839
v 0.24981043 0.07300665 0.95140588
v 0.26998952 0.07411192 0.94705373
v 0.30097985 0.13967845 0.95372087
v 0.30097985 0.14455351 0.94811863
v 0.26998952 0.14222454 0.96233261
v 0.20338380 0.14070478 0.98066717
v 0.11000030 0.13622448 0.99802947
v 0.11000030 0.12621778 1.00219643
v 0.26998952 0.06410524 0.93478441
v 0.29196554 0.06528946 0.92927474
v 0.30097985 0.06114467 0.92107975
v 0.09002744 0.12866518 1.00321496
v 0.05002277 0.12998755 1.00534475
v 0.05002277 0.10999390 1.00830793
v 0.09002744 0.09649376 1.00224268
v 0.09002744 0.08650680 0.99395514
v 0.13000265 0.07851329 0.98163944
v 0.14434893 0.07940146 0.98062086
v 0.15059415 0.07267112 0.97177768
v 0.16997784 0.07267112 0.96853673
v 0.18998018 0.07423035 0.96668470
v 0.20998251 0.07598695 0.96460128
v 0.22998485 0.07794092 0.96233261
v 0.23063293 0.06661184 0.94862795
v 0.23776188 0.06043414 0.93941432
v 0.24998719 0.06177626 0.93770123
v 0.30097985 0.14790881 0.93918282
v 0.26998952 0.14816539 0.94997060
v 0.24998719 0.14407982 0.96492535
v 0.18998018 0.14188901 0.98187095
v 0.09002744 0.13867188 0.99923325
v 0.26998952 0.05623015 0.92478371
v 0.28663358 0.05828280 0.92214465
v 0.29997829 0.05999992 0.91996855
v 0.30097985 0.06013808 0.91978335
v 0.07117398 0.13186258 1.00344646
v 0.07859753 0.13977714 0.99983513
v 0.03002043 0.12998755 1.00599301
v 0.03002043 0.10999390 1.00900245
v 0.06525282 0.14036925 1.00029814
v 0.05002277 0.14076400 1.00066853
v 0.05002277 0.09467795 1.00363171
v 0.07002510 0.09540822 1.00307608
v 0.07002510 0.08542126 0.99478853
v 0.09002744 0.07651985 0.98395443
v 0.11000030 0.07742775 0.98288953
v 0.11000030 0.06742106 0.97117579
v 0.12973751 0.06706579 0.96821260
v 0.13624784 0.06041440 0.95946199
v 0.15000497 0.06130257 0.95839715
v 0.16997784 0.06268416 0.95673037
v 0.18998018 0.06422365 0.95483208
v 0.20998251 0.06598026 0.95274860
v 0.22441718 0.05909202 0.94108111
v 0.23063293 0.05293405 0.93163604
v 0.22998485 0.04186156 0.91760731
v 0.24998719 0.04395369 0.91487563
v 0.24998719 0.05394065 0.92770058
v 0.30097985 0.15073121 0.92996925
v 0.24998719 0.15019831 0.94997060
v 0.22998485 0.14520484 0.96747184
v 0.16997784 0.14331007 0.98363030
v 0.26998952 0.04624319 0.91191244
v 0.28074187 0.03980891 0.90024495
v 0.29408658 0.04152603 0.89797628
v 0.30097985 0.04245368 0.89677250
v 0.15000497 0.14431667 0.98520452
v 0.13000265 0.14496799 0.98668611
v 0.01001810 0.12998755 1.00631702
v 0.03002043 0.14107978 1.00099266
v 0.01001810 0.10999390 1.00932658
v 0.03002043 0.09420426 1.00400209
v 0.11000030 0.14538246 0.98802876
v 0.09002744 0.14559957 0.98923254
v 0.07117398 0.14479035 0.99191797
v 0.05002277 0.14650747 0.98997337
v 0.03002043 0.08419757 0.99580705
v 0.05002277 0.08467126 0.99539042
v 0.07002510 0.07580931 0.98478782
v 0.09002744 0.06651316 0.97224069
v 0.11000030 0.05901307 0.96117508
v 0.12290314 0.05966439 0.96038800
v 0.12973751 0.05336827 0.95168370
v 0.15000497 0.05317090 0.94839644
v 0.16997784 0.05453276 0.94672966
v 0.18998018 0.05607225 0.94483137
v 0.20998251 0.05776964 0.94274789
v 0.21681689 0.04057865 0.91922778
v 0.22998485 0.03412464 0.90760660
v 0.24998719 0.03623650 0.90487492
v 0.28999186 0.15124437 0.92996925
v 0.22998485 0.15130359 0.94997060
v 0.30097985 0.15002067 0.91894996
v 0.16997784 0.14938909 0.96997201
v 0.18998018 0.14784959 0.96997201
v 0.26998952 0.03852600 0.90191174
v 0.27390748 0.02143370 0.87806755
v 0.28999186 0.02342714 0.87538218
v 0.28843054 0.03463780 0.89079988
v 0.30097985 0.03039433 0.88079917
v 0.15000497 0.15047464 0.96997201
v 0.00009058 0.12998755 1.00631702
v 0.01001810 0.14121795 1.00113153
v 0.03002043 0.14686275 0.98997337
v 0.00009058 0.10999390 1.00932658
v 0.00009058 0.10203987 1.00678003
v 0.01001810 0.09396741 1.00418735
v 0.01001810 0.08398046 0.99603856
v 0.13000265 0.15110621 0.96997201
v 0.03002043 0.07488167 0.98580641
v 0.05002277 0.07527641 0.98538971
v 0.05002277 0.06526972 0.97367597
v 0.07002510 0.06580262 0.97302777
v 0.09002744 0.05812490 0.96223998
v 0.09609589 0.04030234 0.93959951
v 0.11000030 0.04995376 0.94997060
v 0.11000030 0.04093392 0.93881243
v 0.13000265 0.04197998 0.93746972
v 0.15000497 0.04318395 0.93594187
v 0.16997784 0.04456554 0.93418252
v 0.18998018 0.04608529 0.93223792
v 0.20347218 0.03939443 0.92080194
v 0.21007089 0.03345357 0.91154206
v 0.20998251 0.02228239 0.89695770
v 0.22998485 0.02413768 0.89450383
v 0.24998719 0.02622981 0.89172590
v 0.20998251 0.15138254 0.94997060
v 0.00009058 0.15063253 0.96997201
v 0.09002744 0.15136281 0.96997201
v 0.11000030 0.15136281 0.96997201
v 0.30097985 0.14753380 0.90918076
v 0.26056278 0.01987447 0.88015103
v 0.26833984 0.01480205 0.87084484
v 0.26998952 0.00359140 0.85501039
v 0.28999186 0.01600601 0.86538148
v 0.30097985 0.01744681 0.86343688
v 0.30097985 0.02488769 0.87343758
v 0.00009058 0.14121795 1.00113153
v 0.01001810 0.14700091 0.98997337
v 0.00009058 0.09396741 1.00418735
v 0.00009058 0.08901341 1.00015926
v 0.00009058 0.08398046 0.99603856
v 0.00009058 0.07936198 0.99108458
v 0.01001810 0.07466456 0.98603791
v 0.03002043 0.06487498 0.97409260
v 0.05002277 0.05696042 0.96367526
v 0.07002510 0.05747358 0.96302706
v 0.08278064 0.03980891 0.94024771
v 0.08967393 0.03371015 0.93177491
v 0.11000030 0.03315752 0.92881179
v 0.13000265 0.03418384 0.92746907
v 0.15000497 0.03538781 0.92594117
v 0.16997784 0.03672992 0.92418182
v 0.18998018 0.03824968 0.92223722
v 0.18859562 0.02715745 0.90811586
v 0.19431058 0.02094027 0.89876342
v 0.20998251 0.01482178 0.88695705
v 0.22998485 0.01665733 0.88450313
v 0.24998719 0.01870999 0.88172519
v 0.00009058 0.14700091 0.98997337
v 0.00009058 0.14484957 0.95223927
v 0.30097985 0.14404035 0.90061539
v 0.23920536 0.00015714 0.85977924
v 0.24998719 0.00134137 0.85815877
v 0.24998719 -0.00594161 0.84815806
v 0.24998719 -0.01592856 0.83436084
v 0.26998952 -0.00363237 0.84500968
v 0.28999186 -0.00122445 0.84167612
v 0.28999186 0.00601905 0.85167682
v 0.30000776 -0.00000075 0.83996308
v 0.30097985 0.00098610 0.84098166
v 0.00009058 0.07468430 0.98603791
v 0.00009058 0.06971056 0.98025048
v 0.01001810 0.06467761 0.97432411
v 0.03002043 0.05660515 0.96409196
v 0.03002043 0.04663793 0.95177627
v 0.05002277 0.04697346 0.95131332
v 0.07002510 0.04748663 0.95071137
v 0.07002510 0.03943390 0.94071072
v 0.07002510 0.03106539 0.92996925
v 0.07002510 0.02163107 0.91783881
v 0.09002744 0.02230213 0.91695911
v 0.11000030 0.02315083 0.91584790
v 0.13000265 0.02417715 0.91450524
v 0.15000497 0.02538111 0.91293103
v 0.16997784 0.02674297 0.91121793
v 0.18099533 0.01985474 0.90019870
v 0.18998018 -0.00428370 0.86575186
v 0.18998018 -0.01429038 0.85227871
v 0.20998251 -0.00258631 0.86348319
v 0.22586066 -0.00112576 0.86153865
v 0.30097985 0.14208639 0.89677250
v 0.30097985 -0.05025132 0.53642374
v 0.00009058 -0.05025132 0.61591995
v 0.21649285 -0.01936281 0.83912969
v 0.22998485 -0.01806016 0.83727771
v 0.22998485 -0.02528393 0.82732332
v 0.23328421 -0.05025132 0.79176533
v 0.24424276 -0.04097490 0.80134928
v 0.24998719 -0.02313259 0.82436013
v 0.25054687 -0.03416561 0.80880350
v 0.25755802 -0.03943541 0.79917324
v 0.27128568 -0.01474434 0.82908267
v 0.26998952 -0.03791565 0.79708976
v 0.26998952 -0.04504073 0.78708905
v 0.26998952 -0.05025132 0.77977377
v 0.28999186 -0.04249465 0.78352404
v 0.28946161 -0.05025132 0.77273625
v 0.29255474 -0.05025132 0.77157873
v 0.30097985 -0.04103411 0.78144056
v 0.30097985 -0.00055339 0.83880556
v 0.00009058 0.06467761 0.97432411
v 0.00009058 0.06057230 0.96937013
v 0.01001810 0.05642752 0.96432346
v 0.01001810 0.04644056 0.95200777
v 0.03002043 0.03858521 0.94177562
v 0.05002277 0.03894048 0.94131261
v 0.05002277 0.03009827 0.92996925
v 0.07002510 0.01409151 0.90783811
v 0.05002277 0.02115738 0.91844070
v 0.09002744 0.01476257 0.90695840
v 0.11000030 0.01561126 0.90584719
v 0.13000265 0.01657838 0.90450454
v 0.15000497 0.01776261 0.90293038
v 0.16997784 0.01908499 0.90121728
v 0.16997784 -0.00580345 0.86778903
v 0.16997784 -0.01581014 0.85431588
v 0.16997784 -0.02321154 0.84431523
v 0.18998018 -0.02167205 0.84227806
v 0.20317760 -0.02056678 0.84075016
v 0.30097985 -0.05025132 0.76824516
v 0.00009058 -0.05025132 0.82436013
v 0.20998251 -0.04448809 0.80616444
v 0.21705255 -0.05025132 0.79630268
v 0.22963133 -0.05025132 0.79283023
v 0.24621649 -0.05025132 0.78778356
v 0.25034070 -0.05025132 0.78644085
v 0.26162329 -0.05025132 0.78264433
v 0.30097985 -0.04243544 0.77944964
v 0.00009058 0.05642752 0.96432346
v 0.00009058 0.05145378 0.95821190
v 0.00009058 0.04644056 0.95200777
v 0.01001810 0.03840758 0.94200706
v 0.03002043 0.02940748 0.92996925
v 0.03002043 0.02082185 0.91890365
v 0.05002277 0.01363756 0.90843999
v 0.07002510 -0.02090231 0.86121452
v 0.08575594 -0.02042861 0.86056632
v 0.09907120 -0.01991545 0.85987186
v 0.11000030 -0.01940229 0.85922366
v 0.13000265 -0.02583657 0.84783399
v 0.14900339 0.00659143 0.88816082
v 0.15000497 -0.01715226 0.85616791
v 0.15000497 -0.02459314 0.84616721
v 0.15000497 -0.03459983 0.83260143
v 0.16573583 -0.04081700 0.82111919
v 0.17142132 -0.03448141 0.82866597
v 0.17905107 -0.03984988 0.81977648
v 0.18998018 -0.05025132 0.80310869
v 0.01001810 -0.05025132 0.82436013
v 0.00009058 -0.04302755 0.83417565
v 0.20020229 -0.05025132 0.80060852
v 0.20998251 -0.05025132 0.79820096
v 0.00009058 0.03840758 0.94200706
v 0.00009058 0.03376937 0.93603444
v 0.01001810 0.02907194 0.92996925
v 0.01001810 0.02066395 0.91908884
v 0.03002043 0.01330203 0.90890300
v 0.05002277 -0.02135625 0.86181641
v 0.05002277 -0.03886303 0.83843517
v 0.07002510 -0.03838934 0.83783329
v 0.09002744 -0.03773802 0.83690727
v 0.09144144 -0.02646816 0.85190833
v 0.11000030 -0.03688932 0.83574980
v 0.11000030 -0.02688263 0.84922296
v 0.13000265 -0.03584326 0.83431453
v 0.13786806 -0.05025132 0.81329459
v 0.15000497 -0.05025132 0.81121111
v 0.15439430 -0.05025132 0.81037772
v 0.17097944 -0.05025132 0.80718303
v 0.18308689 -0.05025132 0.80459028
v 0.02277364 -0.05025132 0.82408237
v 0.01001810 -0.03937619 0.83912969
v 0.00009058 -0.03935646 0.83912969
v 0.00009058 0.02907194 0.92996925
v 0.00009058 0.02066395 0.91908884
v 0.01001810 -0.02186942 0.86246461
v 0.03002043 0.00329534 0.89556873
v 0.03002043 -0.03919856 0.83889818
v 0.04221626 -0.05025132 0.82334155
v 0.05002277 -0.05025132 0.82297117
v 0.07002510 -0.04573153 0.82783258
v 0.08030612 -0.05025132 0.82074881
v 0.09002744 -0.05025132 0.81986910
v 0.11000030 -0.05025132 0.81750780
v 0.11718819 -0.05025132 0.81648922
v 0.13106315 -0.05025132 0.81445205
v 0.03002043 -0.05025132 0.82389712
v 0.00009058 -0.02652737 0.85626048
v 0.00009058 -0.03527088 0.84459299
v 0.00009058 -0.02186942 0.86246461
v 0.07002510 -0.05025132 0.82167476
f 1 2 3
f 1 3 8
f 1 8 23
f 1 23 25
f 1 25 48
f 1 48 70
f 1 70 94
f 1 94 125
f 1 125 159
f 1 159 196
f 1 196 195
f 1 195 230
f 1 230 270
f 1 270 269
f 1 269 298
f 1 298 290
f 1 290 252
f 1 252 251
f 1 251 221
f 1 221 190
f 1 190 152
f 1 152 118
f 1 118 86
f 1 86 63
f 1 63 62
f 1 62 33
f 1 33 12
f 1 12 4
f 1 4 2
f 2 4 5
f 2 5 6
f 2 6 3
f 3 7 8
f 3 6 9
f 3 9 10
f 3 10 11
f 3 11 7
f 4 12 5
f 5 13 14
f 5 14 15
f 5 15 16
f 5 16 17
f 5 17 18
f 5 18 19
f 5 19 20
f 5 20 21
f 5 21 6
f 5 12 13
f 6 21 22
f 6 22 9
f 7 23 8
f 7 11 24
f 7 24 25
f 7 25 23
f 9 22 21
f 9 21 26
f 9 26 20
f 9 20 19
f 9 19 10
f 10 27 11
f 10 19 28
f 10 28 29
f 10 29 30
f 10 30 31
f 10 31 32
f 10 32 27
f 11 27 24
f 12 33 34
f 12 34 13
f 13 34 35
f 13 35 14
f 14 16 15
f 14 35 16
f 16 36 17
f 16 35 36
f 17 36 37
f 17 37 38
f 17 38 18
f 18 38 39
f 18 39 40
f 18 40 41
f 18 41 42
f 18 42 43
f 18 43 44
f 18 44 45
f 18 45 19
f 19 45 46
f 19 46 28
f 20 26 21
f 24 32 47
f 24 47 25
f 24 27 32
f 25 47 48
f 28 46 49
f 28 49 45
f 28 45 50
f 28 50 44
f 28 44 29
f 29 51 52
f 29 52 30
f 29 44 43
f 29 43 53
f 29 53 54
f 29 54 55
f 29 55 56
f 29 56 57
f 29 57 51
f 30 52 58
f 30 58 31
f 31 58 59
f 31 59 32
f 32 59 60
f 32 60 61
f 32 61 47
f 33 62 34
f 34 62 35
f 35 62 63
f 35 63 64
f 35 64 65
f 35 65 36
f 36 65 38
f 36 38 37
f 38 65 39
f 39 41 40
f 39 65 41
f 41 66 42
f 41 65 66
f 42 67 53
f 42 53 43
f 42 66 67
f 44 50 45
f 45 49 46
f 47 61 68
f 47 68 69
f 47 69 48
f 48 69 70
f 51 57 58
f 51 58 52
f 53 67 71
f 53 71 72
f 53 72 73
f 53 73 74
f 53 74 54
f 54 74 75
f 54 75 55
f 55 75 76
f 55 76 77
f 55 77 56
f 56 77 78
f 56 78 79
f 56 79 57
f 57 79 80
f 57 80 58
f 58 80 81
f 58 81 82
f 58 82 59
f 59 83 84
f 59 84 60
f 59 82 83
f 60 84 85
f 60 85 61
f 61 85 68
f 63 86 87
f 63 87 88
f 63 88 64
f 64 88 65
f 65 88 89
f 65 89 66
f 66 90 67
f 66 89 90
f 67 90 71
f 68 85 91
f 68 91 92
f 68 92 69
f 69 92 93
f 69 93 70
f 70 93 94
f 71 95 72
f 71 90 96
f 71 96 95
f 72 97 98
f 72 98 73
f 72 95 96
f 72 96 99
f 72 99 100
f 72 100 97
f 73 98 101
f 73 101 102
f 73 102 74
f 74 102 103
f 74 103 75
f 75 103 104
f 75 104 105
f 75 105 76
f 76 105 106
f 76 106 107
f 76 107 108
f 76 108 77
f 77 108 78
f 78 108 109
f 78 109 110
f 78 110 79
f 79 110 80
f 80 110 111
f 80 111 112
f 80 112 81
f 81 112 82
f 82 112 83
f 83 112 113
f 83 113 84
f 84 114 115
f 84 115 116
f 84 116 117
f 84 117 85
f 84 113 114
f 85 117 91
f 86 118 87
f 87 118 119
f 87 119 120
f 87 120 88
f 88 120 89
f 89 120 121
f 89 121 90
f 90 121 96
f 91 117 116
f 91 116 122
f 91 122 123
f 91 123 92
f 92 123 93
f 93 123 124
f 93 124 125
f 93 125 94
f 96 121 126
f 96 126 127
f 96 127 99
f 97 128 130
f 97 130 98
f 97 100 129
f 97 129 128
f 98 130 131
f 98 131 101
f 99 127 132
f 99 132 133
f 99 133 100
f 100 133 134
f 100 134 135
f 100 135 129
f 101 131 136
f 101 136 137
f 101 137 102
f 102 137 103
f 103 137 138
f 103 138 104
f 104 138 139
f 104 139 106
f 104 106 105
f 106 139 140
f 106 140 141
f 106 141 107
f 107 141 108
f 108 141 142
f 108 142 143
f 108 143 109
f 109 143 144
f 109 144 110
f 110 144 145
f 110 145 111
f 111 145 146
f 111 146 112
f 112 146 113
f 113 146 147
f 113 147 115
f 113 115 114
f 115 148 116
f 115 147 148
f 116 148 149
f 116 149 155
f 116 155 122
f 118 150 151
f 118 151 119
f 118 152 150
f 119 151 153
f 119 153 154
f 119 154 120
f 120 154 121
f 121 154 126
f 122 155 123
f 123 155 156
f 123 156 157
f 123 157 158
f 123 158 124
f 124 158 157
f 124 157 159
f 124 159 125
f 126 154 153
f 126 153 127
f 127 153 160
f 127 160 132
f 128 161 164
f 128 164 130
f 128 129 162
f 128 162 197
f 128 197 161
f 129 135 163
f 129 163 162
f 130 164 165
f 130 165 166
f 130 166 131
f 131 166 167
f 131 167 136
f 132 160 133
f 133 160 168
f 133 168 135
f 133 135 134
f 135 168 163
f 136 167 203
f 136 203 169
f 136 169 170
f 136 170 137
f 137 170 138
f 138 171 172
f 138 172 139
f 138 170 171
f 139 172 173
f 139 173 140
f 140 174 175
f 140 175 141
f 140 173 174
f 141 175 176
f 141 176 142
f 142 176 177
f 142 177 143
f 143 177 178
f 143 178 144
f 144 178 179
f 144 179 145
f 145 179 180
f 145 180 146
f 146 180 181
f 146 181 147
f 147 181 182
f 147 182 183
f 147 183 148
f 148 183 184
f 148 184 149
f 149 184 185
f 149 185 155
f 150 186 151
f 150 152 187
f 150 187 188
f 150 188 186
f 151 186 189
f 151 189 168
f 151 168 160
f 151 160 153
f 152 190 187
f 155 185 191
f 155 191 156
f 156 191 192
f 156 192 193
f 156 193 194
f 156 194 157
f 157 194 195
f 157 195 196
f 157 196 159
f 161 197 219
f 161 219 187
f 161 187 220
f 161 220 253
f 161 253 291
f 161 291 320
f 161 320 343
f 161 343 359
f 161 359 358
f 161 358 360
f 161 360 345
f 161 345 344
f 161 344 324
f 161 324 323
f 161 323 301
f 161 301 300
f 161 300 299
f 161 299 272
f 161 272 271
f 161 271 232
f 161 232 231
f 161 231 202
f 161 202 201
f 161 201 200
f 161 200 199
f 161 199 165
f 161 165 164
f 162 163 198
f 162 198 219
f 162 219 197
f 163 168 189
f 163 189 198
f 165 199 166
f 166 199 200
f 166 200 167
f 167 201 202
f 167 202 203
f 167 200 201
f 169 203 204
f 169 204 171
f 169 171 170
f 171 204 205
f 171 205 206
f 171 206 172
f 172 206 173
f 173 206 207
f 173 207 174
f 174 207 208
f 174 208 209
f 174 209 176
f 174 176 175
f 176 209 210
f 176 210 177
f 177 210 211
f 177 211 178
f 178 211 212
f 178 212 179
f 179 212 213
f 179 213 180
f 180 213 181
f 181 213 214
f 181 214 215
f 181 215 182
f 182 215 183
f 183 215 216
f 183 216 217
f 183 217 184
f 184 217 218
f 184 218 185
f 185 218 191
f 186 188 189
f 187 219 188
f 187 190 220
f 188 219 198
f 188 198 189
f 190 221 220
f 191 218 222
f 191 222 223
f 191 223 192
f 192 223 193
f 193 224 225
f 193 225 226
f 193 226 227
f 193 227 228
f 193 228 194
f 193 223 224
f 194 228 229
f 194 229 230
f 194 230 195
f 202 231 203
f 203 231 232
f 203 232 233
f 203 233 204
f 204 233 234
f 204 234 205
f 205 234 235
f 205 235 236
f 205 236 237
f 205 237 206
f 206 237 207
f 207 237 238
f 207 238 239
f 207 239 240
f 207 240 208
f 208 240 241
f 208 241 209
f 209 241 242
f 209 242 243
f 209 243 210
f 210 243 211
f 211 243 244
f 211 244 245
f 211 245 212
f 212 245 246
f 212 246 213
f 213 246 214
f 214 246 215
f 215 246 247
f 215 247 248
f 215 248 216
f 216 248 249
f 216 249 217
f 217 249 250
f 217 250 222
f 217 222 218
f 220 221 251
f 220 251 252
f 220 252 253
f 222 250 254
f 222 254 255
f 222 255 256
f 222 256 225
f 222 225 224
f 222 224 223
f 225 256 257
f 225 257 258
f 225 258 259
f 225 259 226
f 226 259 260
f 226 260 261
f 226 261 262
f 226 262 227
f 227 229 228
f 227 262 261
f 227 261 263
f 227 263 229
f 229 263 264
f 229 264 265
f 229 265 266
f 229 266 267
f 229 267 268
f 229 268 269
f 229 269 270
f 229 270 230
f 232 271 233
f 233 271 272
f 233 272 273
f 233 273 234
f 234 273 274
f 234 274 235
f 235 274 275
f 235 275 236
f 236 275 276
f 236 276 238
f 236 238 237
f 238 276 277
f 238 277 239
f 239 277 240
f 240 278 280
f 240 280 241
f 240 277 279
f 240 279 278
f 241 280 281
f 241 281 242
f 242 281 282
f 242 282 243
f 243 282 283
f 243 283 244
f 244 283 284
f 244 284 245
f 245 284 246
f 246 284 285
f 246 285 286
f 246 286 248
f 246 248 247
f 248 286 287
f 248 287 288
f 248 288 289
f 248 289 249
f 249 289 254
f 249 254 250
f 252 290 268
f 252 268 267
f 252 267 265
f 252 265 297
f 252 297 296
f 252 296 295
f 252 295 257
f 252 257 294
f 252 294 293
f 252 293 322
f 252 322 321
f 252 321 318
f 252 318 340
f 252 340 339
f 252 339 338
f 252 338 337
f 252 337 336
f 252 336 356
f 252 356 355
f 252 355 354
f 252 354 353
f 252 353 352
f 252 352 361
f 252 361 350
f 252 350 349
f 252 349 357
f 252 357 341
f 252 341 319
f 252 319 291
f 252 291 253
f 254 289 292
f 254 292 293
f 254 293 256
f 254 256 255
f 256 293 294
f 256 294 257
f 257 295 258
f 258 260 259
f 258 295 260
f 260 295 261
f 261 295 296
f 261 296 297
f 261 297 263
f 263 297 264
f 264 297 265
f 265 267 266
f 268 290 298
f 268 298 269
f 272 299 273
f 273 299 300
f 273 300 274
f 274 300 301
f 274 301 323
f 274 323 302
f 274 302 275
f 275 302 303
f 275 303 277
f 275 277 276
f 277 303 304
f 277 304 279
f 278 279 305
f 278 305 328
f 278 328 306
f 278 306 307
f 278 307 280
f 279 304 327
f 279 327 305
f 280 307 308
f 280 308 281
f 281 308 309
f 281 309 282
f 282 309 310
f 282 310 283
f 283 310 311
f 283 311 284
f 284 311 312
f 284 312 285
f 285 312 313
f 285 313 286
f 286 313 287
f 287 313 314
f 287 314 315
f 287 315 316
f 287 316 288
f 288 316 317
f 288 317 318
f 288 318 289
f 289 318 292
f 291 319 320
f 292 318 321
f 292 321 322
f 292 322 293
f 302 323 324
f 302 324 325
f 302 325 304
f 302 304 303
f 304 326 327
f 304 325 326
f 305 327 328
f 306 328 329
f 306 329 330
f 306 330 307
f 307 330 331
f 307 331 332
f 307 332 308
f 308 332 331
f 308 331 333
f 308 333 334
f 308 334 309
f 309 334 310
f 310 334 333
f 310 333 335
f 310 335 313
f 310 313 312
f 310 312 311
f 313 335 314
f 314 335 336
f 314 336 337
f 314 337 315
f 315 337 338
f 315 338 339
f 315 339 316
f 316 339 317
f 317 339 340
f 317 340 318
f 319 341 342
f 319 342 320
f 320 342 343
f 324 344 325
f 325 344 345
f 325 345 326
f 326 345 360
f 326 360 346
f 326 346 327
f 327 346 347
f 327 347 328
f 328 348 329
f 328 347 348
f 329 348 349
f 329 349 350
f 329 350 330
f 330 350 351
f 330 351 352
f 330 352 353
f 330 353 331
f 331 353 333
f 333 353 354
f 333 354 355
f 333 355 335
f 335 355 356
f 335 356 336
f 341 357 348
f 341 348 342
f 342 348 347
f 342 347 346
f 342 346 358
f 342 358 359
f 342 359 343
f 346 360 358
f 348 357 349
f 350 361 351
f 351 361 352
