v -0.84522980 0.10998854 0.54609215
v -0.84455884 0.10998854 0.54714638
v -0.82119304 0.12305269 0.58172458
v -0.84388781 0.11814624 0.54609215
v -0.84199333 0.09859927 0.54609215
v -0.82040364 0.09938746 0.58063519
v -0.83804643 0.10998854 0.55712628
v -0.80299771 0.12663892 0.60396850
v -0.79995859 0.13997895 0.59999758
v -0.81799603 0.13637301 0.57736719
v -0.82577145 0.12983108 0.57044446
v -0.83630973 0.12998872 0.55459619
v -0.84191442 0.12998872 0.54609215
v -0.82928419 0.10998854 0.57002282
v -0.82123250 0.10998854 0.58175969
v -0.81393069 0.10998854 0.59173959
v -0.80394500 0.10998854 0.60516322
v -0.79616952 0.10998854 0.61517829
v -0.76017362 0.12049109 0.66026342
v -0.83923048 0.09442189 0.54609215
v -0.81400967 0.08547601 0.57002282
v -0.80793136 0.09166326 0.58724165
v -0.80220836 0.09725936 0.60294938
v -0.82403481 0.09548595 0.57002282
v -0.79545909 0.13197887 0.61039919
v -0.78432882 0.12998872 0.62543929
v -0.80469489 0.14299375 0.58667940
v -0.82265341 0.14204794 0.56404895
v -0.77615869 0.12998872 0.63541913
v -0.75666088 0.13381141 0.65622228
v -0.78125018 0.14100358 0.62160897
v -0.83299434 0.14269818 0.54609215
v -0.78618383 0.10998854 0.62779367
v -0.74095213 0.12218568 0.68106657
v -0.74880648 0.12799855 0.66869718
v -0.76502836 0.12829411 0.64975643
v -0.77817160 0.10998854 0.63780868
v -0.76017362 0.11790979 0.66026342
v -0.83220494 0.08728883 0.54609215
v -0.83058673 0.08892431 0.55090642
v -0.81835127 0.08123951 0.55765337
v -0.79538018 0.08391935 0.59384799
v -0.78953874 0.08987013 0.60952067
v -0.78369725 0.09580122 0.62473649
v -0.74024165 0.09966332 0.68029350
v -0.75950265 0.10456977 0.65945524
v -0.78590757 0.14330903 0.61001265
v -0.79198581 0.14624500 0.59202075
v -0.81081265 0.14537801 0.57044446
v -0.82959998 0.14370312 0.54851687
v -0.76238388 0.14173266 0.64290404
v -0.73736042 0.13552570 0.67716599
v -0.82963943 0.14429426 0.54609215
v -0.74087316 0.10998854 0.68099630
v -0.73144007 0.10998854 0.69101131
v -0.72141486 0.10998854 0.70148319
v -0.72133589 0.12293446 0.70137775
v -0.72934818 0.12922023 0.68935972
v -0.76664656 0.11073731 0.65168917
v -0.75239819 0.11073731 0.66817003
v -0.82225871 0.07834294 0.54609215
v -0.80402392 0.07712126 0.57002282
v -0.80035329 0.07972226 0.58052981
v -0.77686912 0.08248091 0.61605680
v -0.77094871 0.08858933 0.63123745
v -0.76506782 0.09469776 0.64610183
v -0.73140055 0.08437255 0.67175436
v -0.72832197 0.09554506 0.68816495
v -0.72058600 0.09926923 0.70060468
v -0.74478066 0.09524949 0.67003250
v -0.76940942 0.14380164 0.62895334
v -0.76996201 0.14898396 0.61001265
v -0.80998379 0.15018594 0.55002791
v -0.74332029 0.14222527 0.66384774
v -0.74999058 0.14460954 0.64975643
v -0.71766526 0.13625479 0.69765288
v -0.80998379 0.15030417 0.54609215
v -0.71135020 0.10998854 0.71149820
v -0.70128554 0.12279653 0.72126722
v -0.70949513 0.12953550 0.70953035
v -0.81748295 0.07499316 0.54609215
v -0.80919439 0.07050051 0.54886830
v -0.79541963 0.06311128 0.55340135
v -0.78926241 0.06679604 0.56977683
v -0.77730328 0.06181077 0.57631296
v -0.78922296 0.07603750 0.58833098
v -0.78207904 0.07852028 0.60273856
v -0.76352853 0.07753505 0.62442023
v -0.75808173 0.08137745 0.63777357
v -0.75212193 0.08768292 0.65253258
v -0.73901814 0.08064838 0.65892810
v -0.71955979 0.08027399 0.67955554
v -0.71170545 0.08386023 0.69181955
v -0.69962788 0.08021487 0.69969100
v -0.70827162 0.09534802 0.70837069
v -0.70045668 0.09940717 0.72049415
v -0.73041385 0.14512184 0.67031360
v -0.74999058 0.14971302 0.63000751
v -0.78997290 0.15093471 0.57002282
v -0.72401983 0.14248143 0.68433464
v -0.69753599 0.13613655 0.71764779
v -0.70432466 0.14254054 0.70432955
v -0.78997290 0.14989036 0.55002791
v -0.78977555 0.14896426 0.54609215
v -0.70132500 0.10998854 0.72130239
v -0.68080103 0.12177189 0.74073505
v -0.68916851 0.12894437 0.72920901
v -0.80631316 0.06719013 0.54609215
v -0.79794568 0.06137727 0.54609215
v -0.78926241 0.05637230 0.54806006
v -0.78211850 0.05855951 0.56295955
v -0.77035666 0.05394864 0.56977683
v -0.76396269 0.05731812 0.58530891
v -0.77035666 0.06460883 0.59121251
v -0.75891060 0.06068761 0.59866226
v -0.77011991 0.07404733 0.60962605
v -0.75433218 0.06366301 0.61001265
v -0.74912226 0.07052021 0.62902361
v -0.74474114 0.07684539 0.64560986
v -0.73001915 0.06992907 0.65007269
v -0.72567755 0.07637247 0.66623729
v -0.71060026 0.06957439 0.67070013
v -0.69524676 0.06277630 0.67516297
v -0.70621920 0.07611632 0.68633765
v -0.69078672 0.06945616 0.69080049
v -0.68632674 0.07613602 0.70605141
v -0.67930120 0.08041193 0.71940482
v -0.69177347 0.08403757 0.71163875
v -0.68999738 0.09487510 0.72534353
v -0.67993271 0.10019535 0.73996192
v -0.71060026 0.14533859 0.69058967
v -0.72997969 0.15020564 0.65000242
v -0.70996881 0.15050121 0.67003250
v -0.68999738 0.15056032 0.69002742
v -0.59002185 0.15089530 0.76997191
v -0.47003540 0.15105294 0.84998667
v -0.67701197 0.13509220 0.73718584
v -0.64295006 0.14181148 0.76248699
v -0.66367137 0.14218587 0.74330032
v -0.68419540 0.14240262 0.72390276
v -0.69051045 0.14527950 0.71058452
v -0.45002452 0.14965391 0.84998667
v -0.44205174 0.14797902 0.84945953
v -0.77260643 0.14289522 0.54609215
v -0.44205174 0.14252084 0.83557910
v -0.68849754 0.10811660 0.73300415
v -0.68080103 0.11353537 0.74073505
v -0.66007972 0.12023493 0.76006228
v -0.65625119 0.13355525 0.75661850
v -0.79186738 0.05723931 0.54609215
v -0.76321274 0.03784997 0.54609215
v -0.77011991 0.04484511 0.55108213
v -0.75887114 0.04074655 0.55846161
v -0.75456899 0.04354461 0.57002282
v -0.74051797 0.03966280 0.58070552
v -0.74434650 0.05716049 0.61001265
v -0.73511070 0.04303228 0.59405887
v -0.74016273 0.05986002 0.62023848
v -0.73436075 0.06350537 0.63359189
v -0.72102016 0.05932799 0.64121735
v -0.71502084 0.06303246 0.65453553
v -0.70168024 0.05897331 0.66180962
v -0.68912905 0.05576146 0.66911882
v -0.68190616 0.05887479 0.68190998
v -0.67503852 0.06281571 0.69526333
v -0.67049956 0.06961380 0.71051425
v -0.65451455 0.06309158 0.71497709
v -0.66596061 0.07643159 0.72541380
v -0.65854037 0.08090454 0.73869687
v -0.66663158 0.09424455 0.74590069
v -0.64579183 0.09491451 0.76491165
v -0.62459683 0.09593915 0.78360635
v -0.65913242 0.10583086 0.75921893
v -0.66007972 0.11915118 0.76006228
v -0.66998649 0.15046179 0.71002233
v -0.57001096 0.15077707 0.78996682
v -0.51001775 0.15095441 0.82999176
v -0.45002452 0.15024504 0.86998153
v -0.44205174 0.15056032 0.86998153
v -0.62901741 0.14393958 0.76947993
v -0.64973873 0.14468834 0.74997699
v -0.62171561 0.14108241 0.78132224
v -0.67018384 0.14504303 0.73029834
v -0.63000417 0.14994948 0.74997699
v -0.64997560 0.15030417 0.72998208
v -0.44205174 -0.02242642 0.54609215
v -0.62767547 0.10998854 0.78606617
v -0.61492693 0.10998854 0.79608124
v -0.58141756 0.12252067 0.82099581
v -0.60383606 0.12632366 0.80282819
v -0.62550467 0.12998872 0.78434432
v -0.63552982 0.12998872 0.77622688
v -0.64973873 0.12813649 0.76501709
v -0.74620152 0.02673657 0.54609215
v -0.73783404 0.02135722 0.54609215
v -0.73507118 0.02309122 0.55347168
v -0.74454379 0.03706179 0.57002282
v -0.72173059 0.01891385 0.56225675
v -0.71644175 0.02220451 0.57557499
v -0.72907186 0.03645094 0.58843637
v -0.72177005 0.03889432 0.60214114
v -0.72907186 0.04718995 0.60927469
v -0.71608651 0.04240174 0.61545938
v -0.72859824 0.05696344 0.62814510
v -0.70965302 0.04620473 0.62986696
v -0.70898205 0.05613585 0.64873737
v -0.69670713 0.04194853 0.63643825
v -0.68336654 0.03802731 0.64357173
v -0.67693305 0.04175149 0.65692508
v -0.66363192 0.03790909 0.66363692
v -0.65688270 0.04177119 0.67695516
v -0.64358157 0.03798790 0.68345612
v -0.66903919 0.05578116 0.68914890
v -0.66169792 0.05899302 0.70165890
v -0.64871258 0.05613585 0.70900321
v -0.64121342 0.05930829 0.72109151
v -0.64985716 0.07000789 0.72987664
v -0.64523929 0.07690451 0.74453020
v -0.63750333 0.08157449 0.75788355
v -0.65218586 0.08789967 0.75187457
v -0.63103032 0.08874697 0.77081525
v -0.61595309 0.08259913 0.77668369
v -0.60936177 0.09002777 0.78947484
v -0.60277039 0.09743670 0.80201995
v -0.63766116 0.10998854 0.77801907
v -0.65147543 0.11148609 0.76649296
v -0.55000007 0.15002829 0.80999684
v -0.49000683 0.14965391 0.84998667
v -0.47106159 0.14569329 0.87138718
v -0.45002452 0.14425485 0.88656783
v -0.44205174 0.14492480 0.88878167
v -0.61003274 0.14338785 0.78578508
v -0.61003274 0.14914158 0.76997191
v -0.59973127 0.13964397 0.79973584
v -0.58639067 0.14283612 0.80437434
v -0.44205174 -0.05024932 0.54609215
v -0.58039135 0.09960420 0.82025784
v -0.60494119 0.10998854 0.80363643
v -0.59136379 0.10998854 0.81365144
v -0.58137810 0.10998854 0.82096064
v -0.57001096 0.10998854 0.82890236
v -0.55702555 0.10998854 0.83793348
v -0.52154273 0.12248126 0.86091530
v -0.54447436 0.12998872 0.84292340
v -0.55446005 0.12998872 0.83610618
v -0.57020831 0.12949610 0.82549375
v -0.57699698 0.13584098 0.81772774
v -0.61030900 0.13178183 0.79534328
v -0.73175579 0.01757393 0.54609215
v -0.72903240 0.01678575 0.54809517
v -0.70957410 0.00573146 0.55009818
v -0.70539033 0.00127822 0.54609215
v -0.69741756 0.00151468 0.55684513
v -0.70985037 0.01511086 0.56935513
v -0.70310116 0.01810596 0.58379787
v -0.70985037 0.02553459 0.59029883
v -0.69749653 0.02147544 0.59711611
v -0.70965302 0.03520956 0.60927469
v -0.70274591 0.03832288 0.62312001
v -0.67819607 0.02104194 0.61805975
v -0.67089427 0.02393852 0.63109690
v -0.65850091 0.02084490 0.63851154
v -0.65112019 0.02372177 0.65116209
v -0.63856900 0.02080549 0.65861183
v -0.65013343 0.03402728 0.67017305
v -0.63647711 0.04192883 0.69677436
v -0.63114876 0.02389911 0.67094612
v -0.61812389 0.02104194 0.67825532
v -0.63347745 0.06356449 0.73437464
v -0.62988573 0.04618502 0.70967090
v -0.61559790 0.04240174 0.71610159
v -0.60225731 0.03881550 0.72193491
v -0.62013686 0.05991913 0.74010253
v -0.62882006 0.07059903 0.74899304
v -0.62416267 0.07763357 0.76336551
v -0.60261250 0.07852028 0.78198993
v -0.58050972 0.07972226 0.80033320
v -0.59385037 0.08411638 0.79534328
v -0.57001096 0.08561394 0.81410825
v -0.57001096 0.09560417 0.82387733
v -0.53002864 0.14833370 0.82999176
v -0.51001775 0.14508244 0.85068947
v -0.49000683 0.14376223 0.86562413
v -0.46510175 0.14212675 0.88256180
v -0.44205174 0.13731882 0.89876157
v -0.57020831 0.14516126 0.81062937
v -0.59183741 0.14614649 0.79182923
v -0.54076421 0.14043215 0.84046358
v -0.56365639 0.14192970 0.82247168
v -0.44205174 -0.05024932 0.69600129
v -0.61532158 -0.05024932 0.54609215
v -0.54415858 0.09653029 0.84271258
v -0.52043760 0.09962392 0.86021250
v -0.54700041 0.10998854 0.84461015
v -0.53148896 0.10998854 0.85459006
v -0.52146381 0.10998854 0.86088020
v -0.51001775 0.10998854 0.86755687
v -0.49423003 0.10998854 0.87665826
v -0.48424435 0.10998854 0.88235098
v -0.48349440 0.12496404 0.88192928
v -0.51001775 0.12947640 0.86456990
v -0.51664853 0.13582128 0.85782295
v -0.52892351 0.12947640 0.85304385
v -0.72899294 0.01585963 0.54609215
v -0.71123183 0.00488416 0.54609215
v -0.70164078 -0.00100751 0.54609215
v -0.68407696 -0.00240654 0.56496263
v -0.69043154 0.00427332 0.57097161
v -0.69785172 -0.00325384 0.54609215
v -0.66453969 -0.02293874 0.54609215
v -0.65940869 -0.01966777 0.55934012
v -0.67855132 0.00084472 0.57831597
v -0.69051045 0.01390887 0.59029883
v -0.68415594 0.01755423 0.60470641
v -0.69051045 0.02450995 0.61082083
v -0.65932977 0.00037181 0.59932995
v -0.65159380 0.00261814 0.61187506
v -0.66485548 0.01721925 0.62515813
v -0.65112019 0.01264778 0.63109690
v -0.64519978 0.01710102 0.64525849
v -0.63189864 0.00240139 0.63190514
v -0.61982107 0.00011565 0.63981169
v -0.61188775 0.00251961 0.65175945
v -0.59953392 0.00025358 0.65959579
v -0.62522835 0.01717984 0.66490197
v -0.61086160 0.02443114 0.69062477
v -0.62313652 0.03832288 0.70278335
v -0.60478330 0.01745570 0.68436980
v -0.60936177 0.03511103 0.70967090
v -0.59732366 0.02137692 0.69772315
v -0.59041655 0.02535725 0.70998716
v -0.57597077 0.02208629 0.71666384
v -0.56263018 0.01867739 0.72214574
v -0.58848250 0.03629331 0.72913867
v -0.59412664 0.04301258 0.73521799
v -0.61003274 0.05718019 0.74431938
v -0.61003274 0.06372212 0.75429922
v -0.59874451 0.06064820 0.75897294
v -0.60959858 0.07408674 0.77000701
v -0.59124535 0.06454971 0.77046382
v -0.58832467 0.07597838 0.78919369
v -0.57660228 0.06171225 0.77742165
v -0.56997144 0.06665811 0.78940451
v -0.57001096 0.07702273 0.80409324
v -0.55781496 0.08120011 0.81846571
v -0.55098677 0.08886520 0.83062428
v -0.54846072 0.14360461 0.82946461
v -0.53002864 0.14259966 0.84373164
v -0.50330794 0.14159472 0.86186409
v -0.47840288 0.13830405 0.87897754
v -0.44205174 0.13221534 0.90101057
v -0.44465670 0.12589017 0.90241617
v -0.44205174 -0.04018027 0.71258754
v -0.44880098 -0.05024932 0.69160873
v -0.61287451 -0.05024932 0.54893857
v -0.62692553 -0.04404237 0.54609215
v -0.53444916 0.08319028 0.83638728
v -0.52742362 0.09140709 0.84833503
v -0.51001775 0.09599826 0.86323458
v -0.48219192 0.09826429 0.88119137
v -0.47003540 0.10998854 0.89015216
v -0.45598435 0.10998854 0.89777768
v -0.65151489 -0.03038708 0.54609215
v -0.65163326 -0.02774666 0.55160922
v -0.63552982 -0.03755955 0.55002791
v -0.64476562 -0.02270228 0.57002282
v -0.65475136 -0.01702736 0.57002282
v -0.66521066 -0.00303709 0.58597660
v -0.67113107 0.00326839 0.59159905
v -0.64026612 -0.02014069 0.58028382
v -0.64602864 -0.00337207 0.60646343
v -0.63979250 0.00013535 0.61978167
v -0.62645191 -0.00349029 0.62649351
v -0.61030900 -0.01015045 0.63028866
v -0.60648048 -0.00345088 0.64624238
v -0.58623278 -0.00309620 0.66542912
v -0.57857573 0.00072649 0.67878246
v -0.59171903 0.00305164 0.67126238
v -0.59369248 -0.01679090 0.63411897
v -0.58994287 -0.00995340 0.64993215
v -0.57001096 -0.01714558 0.65492213
v -0.55955160 -0.01974659 0.65959579
v -0.59041655 0.01369213 0.69062477
v -0.57115555 0.00401716 0.69069505
v -0.55738080 0.00129793 0.69782859
v -0.58398306 0.01800743 0.70331049
v -0.56957680 0.01477588 0.70998716
v -0.55043423 0.00521914 0.70995200
v -0.54850018 0.01621431 0.72924411
v -0.54084319 0.01960351 0.74059451
v -0.55418378 0.02291388 0.73542881
v -0.58078605 0.03962339 0.74059451
v -0.57001096 0.03688445 0.74477619
v -0.58540392 0.05725901 0.76410341
v -0.56997144 0.05373188 0.77046382
v -0.56326169 0.05838217 0.78234130
v -0.55390751 0.06297334 0.79565954
v -0.54921067 0.07036258 0.80939943
v -0.54451382 0.07773209 0.82303393
v -0.52110857 0.07946610 0.84067446
v -0.44205174 0.12701333 0.90318930
v -0.44595918 0.10998854 0.90308386
v -0.44205174 0.10998854 0.90505171
v -0.44205174 -0.03779601 0.71645302
v -0.45002452 -0.03618024 0.71381748
v -0.45002452 -0.04232807 0.70380247
v -0.46044439 -0.04018027 0.70032352
v -0.45318204 -0.05024932 0.68858665
v -0.62076837 -0.04039702 0.56085116
v -0.62550467 -0.04297832 0.55002791
v -0.60857236 -0.05024932 0.55368251
v -0.63722700 -0.03848568 0.54609215
v -0.49651927 0.08171242 0.85796356
v -0.51001775 0.08600803 0.85395753
v -0.47003540 0.08449078 0.87535805
v -0.47003540 0.09448101 0.88449454
v -0.44331473 0.09759434 0.90171337
v -0.62846482 -0.03241666 0.56851178
v -0.61457169 -0.03708664 0.57416940
v -0.62842536 -0.02254464 0.58819044
v -0.63399053 -0.01671208 0.59363717
v -0.62068939 -0.02033773 0.60070038
v -0.61409807 -0.01683031 0.61401862
v -0.60079694 -0.02039684 0.62076557
v -0.56523514 -0.00258388 0.68447518
v -0.58035189 -0.02014069 0.64030367
v -0.56081462 -0.04039702 0.62076557
v -0.57001096 -0.02272199 0.64490706
v -0.55343390 -0.03679108 0.63411897
v -0.54009324 -0.04002263 0.64009285
v -0.54621100 -0.02297815 0.66521823
v -0.55173671 -0.01690913 0.67112184
v -0.55043423 -0.00618982 0.69069505
v -0.54404020 -0.00191392 0.70324022
v -0.53547537 0.00208611 0.71659356
v -0.54550058 0.03735736 0.76392770
v -0.55880165 0.04058891 0.75907832
v -0.52931815 0.00693344 0.72892785
v -0.51001775 0.00257873 0.73588568
v -0.53002864 0.01710102 0.74438965
v -0.53002864 0.02372177 0.75440466
v -0.55130255 0.04449043 0.77035844
v -0.54834235 0.05595851 0.78940451
v -0.54056692 0.05972208 0.80036837
v -0.53002864 0.06431326 0.81382716
v -0.52868664 0.07513109 0.82981604
v -0.51696432 0.06133786 0.81807911
v -0.51017559 0.06640194 0.82932407
v -0.51001775 0.07700302 0.84397763
v -0.44205174 0.09879632 0.90262699
v -0.44205174 -0.02148060 0.74224609
v -0.44315687 -0.02126385 0.74192983
v -0.44990611 -0.02571709 0.73061460
v -0.46668053 -0.02276140 0.72439474
v -0.48002112 -0.01998305 0.72000217
v -0.46829876 -0.04343153 0.68939489
v -0.49000683 -0.01791406 0.71659356
v -0.49000683 -0.02400279 0.70661366
v -0.47378498 -0.03738222 0.69564986
v -0.46940389 -0.05024932 0.67720115
v -0.60873026 -0.04297832 0.56851178
v -0.59448183 -0.05024932 0.56875777
v -0.48317868 0.07861880 0.86172354
v -0.45772099 0.08104247 0.87873149
v -0.45053762 0.08931841 0.89022243
v -0.44205174 0.08703268 0.89261198
v -0.44205174 0.09721995 0.90202963
v -0.60123110 -0.04061377 0.58126771
v -0.60849345 -0.02278110 0.60843134
v -0.59448183 -0.03720488 0.59458596
v -0.58871937 -0.03281075 0.60867727
v -0.56851113 -0.04293892 0.60867727
v -0.55378908 -0.05024932 0.60864216
v -0.54853970 -0.05024932 0.61352670
v -0.54806602 -0.04244630 0.62846136
v -0.53200209 -0.05024932 0.62821537
v -0.52852881 -0.05024932 0.63123745
v -0.53002864 -0.04236748 0.64427453
v -0.53002864 -0.03679108 0.65428960
v -0.53819877 -0.01913575 0.67853647
v -0.53089696 -0.01560862 0.69027340
v -0.52931815 -0.00469227 0.70995200
v -0.52217424 -0.00094840 0.72158349
v -0.53606743 0.04185001 0.77728111
v -0.49947944 0.00023388 0.73961055
v -0.51080710 0.01282512 0.75113660
v -0.51799047 0.02092372 0.75858641
v -0.52963394 0.04693380 0.78908825
v -0.53002864 0.05727872 0.80384725
v -0.51017559 0.05325897 0.81084019
v -0.50362372 0.05840188 0.82219058
v -0.51001775 0.04277612 0.79594064
v -0.49000683 0.06269749 0.83624673
v -0.48992789 0.07331827 0.85075974
v -0.44205174 -0.00057401 0.77355623
v -0.45002452 -0.00327354 0.76487654
v -0.46210212 -0.00084988 0.76125705
v -0.47544271 0.00186936 0.75714564
v -0.49170399 0.00401716 0.75029325
v -0.48613885 -0.00248536 0.74382740
v -0.45649746 -0.01854461 0.73771298
v -0.48329705 -0.04136255 0.68233162
v -0.50287378 -0.02126385 0.70215082
v -0.47946855 -0.05024932 0.66999733
v -0.58879828 -0.05024932 0.57459104
v -0.47141683 0.06492411 0.84988123
v -0.47003540 0.07586016 0.86537814
v -0.44438040 0.07818530 0.88228071
v -0.44205174 0.07911142 0.88452971
v -0.57454991 -0.05024932 0.58882296
v -0.58871937 -0.04311626 0.58875263
v -0.56878740 -0.05024932 0.59444541
v -0.51084661 -0.05024932 0.64603156
v -0.51874042 -0.03941179 0.65896326
v -0.52485818 -0.02220967 0.68377239
v -0.51621437 -0.01826875 0.69712579
v -0.51001775 -0.00364793 0.72587061
v -0.52272683 0.03877609 0.78181422
v -0.50464988 0.01794832 0.76304924
v -0.51080710 0.02527843 0.76983130
v -0.49912423 0.04039187 0.79941958
v -0.49146718 0.04466777 0.81003201
v -0.49000683 0.05552500 0.82623172
v -0.51001775 0.03591892 0.78592563
v -0.47903439 0.06039204 0.83944452
v -0.44205174 0.00186936 0.77721083
v -0.45002452 0.00344573 0.77489156
v -0.46928549 0.00709108 0.76874197
v -0.48850700 0.01568229 0.76983130
v -0.49659818 -0.03854479 0.67755252
v -0.50974143 -0.02522447 0.69027340
v -0.49059886 -0.05024932 0.66177452
v -0.46569377 0.05769251 0.84316939
v -0.45349783 0.06253985 0.85648763
v -0.44895884 0.07036258 0.86938417
v -0.44205174 0.06212605 0.86203980
v -0.44205174 0.07773209 0.88287807
v -0.50445259 -0.05024932 0.65112692
v -0.50539982 -0.04242659 0.66419917
v -0.51124126 -0.03610142 0.67052448
v -0.49415112 0.02246067 0.77636743
v -0.48996735 0.03002724 0.78993165
v -0.48578364 0.03761352 0.80342555
v -0.47437704 0.04230321 0.81674379
v -0.46103644 0.03958398 0.82057410
v -0.44205174 0.01873650 0.80180913
v -0.44970876 0.01408622 0.79063445
v -0.45618170 0.02155426 0.79776800
v -0.47003540 0.01747541 0.78367662
v -0.48081052 0.01968233 0.78044373
v -0.45002452 0.03739677 0.82359618
v -0.45002452 0.04460865 0.83361119
v -0.44813001 0.05562353 0.84988123
v -0.44205174 0.05893390 0.85768241
v -0.47003540 0.02435232 0.79365653
v -0.46865398 0.03524897 0.81003201
v -0.44205174 0.03623419 0.82626688
v -0.44205174 0.03978102 0.83122164
v -0.44205174 0.04305199 0.83575475
f 1 2 3
f 1 3 4
f 1 4 13
f 1 13 32
f 1 32 53
f 1 53 77
f 1 77 104
f 1 104 144
f 1 144 186
f 1 186 236
f 1 236 291
f 1 291 356
f 1 356 412
f 1 412 363
f 1 363 310
f 1 310 309
f 1 309 306
f 1 306 252
f 1 252 305
f 1 305 304
f 1 304 249
f 1 249 195
f 1 195 194
f 1 194 151
f 1 151 150
f 1 150 109
f 1 109 108
f 1 108 81
f 1 81 61
f 1 61 39
f 1 39 20
f 1 20 5
f 1 5 6
f 1 6 2
f 2 6 7
f 2 7 3
f 3 8 9
f 3 9 10
f 3 10 11
f 3 11 12
f 3 12 13
f 3 13 4
f 3 7 14
f 3 14 15
f 3 15 16
f 3 16 17
f 3 17 18
f 3 18 19
f 3 19 8
f 5 20 6
f 6 21 22
f 6 22 23
f 6 23 18
f 6 18 17
f 6 17 16
f 6 16 15
f 6 15 14
f 6 14 7
f 6 20 24
f 6 24 21
f 8 25 9
f 8 19 26
f 8 26 25
f 9 27 28
f 9 28 10
f 9 25 26
f 9 26 29
f 9 29 30
f 9 30 31
f 9 31 27
f 10 28 13
f 10 13 12
f 10 12 11
f 13 28 32
f 18 23 33
f 18 33 19
f 19 34 35
f 19 35 30
f 19 30 36
f 19 36 29
f 19 29 26
f 19 33 37
f 19 37 38
f 19 38 34
f 20 39 40
f 20 40 24
f 21 24 41
f 21 41 42
f 21 42 22
f 22 42 23
f 23 42 43
f 23 43 44
f 23 44 45
f 23 45 46
f 23 46 33
f 24 40 41
f 27 31 47
f 27 47 48
f 27 48 49
f 27 49 28
f 28 49 50
f 28 50 32
f 29 36 30
f 30 51 31
f 30 35 52
f 30 52 51
f 31 51 47
f 32 50 53
f 33 46 37
f 34 38 54
f 34 54 55
f 34 55 56
f 34 56 57
f 34 57 58
f 34 58 52
f 34 52 35
f 37 46 59
f 37 59 38
f 38 59 46
f 38 46 60
f 38 60 54
f 39 61 41
f 39 41 40
f 41 61 62
f 41 62 63
f 41 63 42
f 42 63 64
f 42 64 43
f 43 64 44
f 44 64 65
f 44 65 66
f 44 66 45
f 45 67 68
f 45 68 69
f 45 69 56
f 45 56 55
f 45 55 54
f 45 54 46
f 45 66 70
f 45 70 67
f 46 54 60
f 47 51 71
f 47 71 72
f 47 72 48
f 48 72 49
f 49 53 50
f 49 72 73
f 49 73 53
f 51 52 74
f 51 74 75
f 51 75 71
f 52 58 76
f 52 76 74
f 53 73 77
f 56 69 78
f 56 78 57
f 57 78 79
f 57 79 80
f 57 80 76
f 57 76 58
f 61 81 82
f 61 82 62
f 62 82 83
f 62 83 84
f 62 84 63
f 63 84 85
f 63 85 86
f 63 86 87
f 63 87 64
f 64 87 88
f 64 88 89
f 64 89 65
f 65 89 66
f 66 89 90
f 66 90 70
f 67 70 91
f 67 91 92
f 67 92 68
f 68 92 69
f 69 92 93
f 69 93 94
f 69 94 95
f 69 95 96
f 69 96 78
f 70 90 91
f 71 75 72
f 72 75 97
f 72 97 98
f 72 98 99
f 72 99 73
f 73 99 77
f 74 76 100
f 74 100 97
f 74 97 75
f 76 80 101
f 76 101 102
f 76 102 100
f 77 99 103
f 77 103 104
f 78 96 105
f 78 105 79
f 79 101 80
f 79 105 106
f 79 106 107
f 79 107 101
f 81 108 82
f 82 108 109
f 82 109 83
f 83 110 111
f 83 111 84
f 83 109 110
f 84 111 85
f 85 111 112
f 85 112 113
f 85 113 114
f 85 114 86
f 86 114 87
f 87 114 115
f 87 115 116
f 87 116 88
f 88 116 117
f 88 117 118
f 88 118 119
f 88 119 89
f 89 119 91
f 89 91 90
f 91 120 121
f 91 121 92
f 91 119 120
f 92 122 123
f 92 123 124
f 92 124 94
f 92 94 93
f 92 121 122
f 94 125 126
f 94 126 127
f 94 127 128
f 94 128 95
f 94 124 125
f 95 128 96
f 96 128 127
f 96 127 129
f 96 129 130
f 96 130 105
f 97 100 131
f 97 131 132
f 97 132 98
f 98 132 99
f 99 132 133
f 99 133 134
f 99 134 135
f 99 135 136
f 99 136 103
f 100 102 131
f 101 107 137
f 101 137 138
f 101 138 139
f 101 139 140
f 101 140 102
f 102 140 141
f 102 141 131
f 103 136 142
f 103 142 143
f 103 143 104
f 104 143 145
f 104 145 144
f 105 130 146
f 105 146 147
f 105 147 106
f 106 147 174
f 106 174 148
f 106 148 149
f 106 149 137
f 106 137 107
f 109 150 110
f 110 150 151
f 110 151 152
f 110 152 111
f 111 152 153
f 111 153 112
f 112 153 154
f 112 154 113
f 113 115 114
f 113 154 155
f 113 155 115
f 115 156 117
f 115 117 116
f 115 155 157
f 115 157 156
f 117 156 158
f 117 158 118
f 118 158 119
f 119 158 159
f 119 159 120
f 120 159 160
f 120 160 161
f 120 161 121
f 121 161 122
f 122 161 162
f 122 162 123
f 123 125 124
f 123 162 163
f 123 163 164
f 123 164 125
f 125 164 165
f 125 165 126
f 126 165 166
f 126 166 127
f 127 166 167
f 127 167 168
f 127 168 169
f 127 169 170
f 127 170 129
f 129 170 130
f 130 147 146
f 130 170 171
f 130 171 172
f 130 172 173
f 130 173 174
f 130 174 147
f 131 133 132
f 131 141 134
f 131 134 133
f 134 141 175
f 134 175 135
f 135 175 176
f 135 176 177
f 135 177 136
f 136 177 178
f 136 178 179
f 136 179 142
f 137 149 138
f 138 180 181
f 138 181 139
f 138 149 182
f 138 182 180
f 139 181 140
f 140 181 183
f 140 183 141
f 141 183 184
f 141 184 185
f 141 185 175
f 142 179 143
f 143 179 231
f 143 231 285
f 143 285 351
f 143 351 401
f 143 401 403
f 143 403 450
f 143 450 467
f 143 467 466
f 143 466 509
f 143 509 537
f 143 537 536
f 143 536 554
f 143 554 559
f 143 559 558
f 143 558 557
f 143 557 546
f 143 546 526
f 143 526 495
f 143 495 451
f 143 451 404
f 143 404 353
f 143 353 290
f 143 290 236
f 143 236 186
f 143 186 145
f 144 145 186
f 148 174 187
f 148 187 188
f 148 188 189
f 148 189 190
f 148 190 191
f 148 191 192
f 148 192 193
f 148 193 149
f 149 193 192
f 149 192 182
f 151 194 153
f 151 153 152
f 153 194 195
f 153 195 196
f 153 196 197
f 153 197 154
f 154 197 155
f 155 196 198
f 155 198 199
f 155 199 200
f 155 200 157
f 155 197 196
f 156 157 158
f 157 200 201
f 157 201 202
f 157 202 158
f 158 202 203
f 158 203 204
f 158 204 160
f 158 160 159
f 160 203 205
f 160 205 206
f 160 206 161
f 160 204 203
f 161 206 162
f 162 206 207
f 162 207 208
f 162 208 209
f 162 209 163
f 163 209 164
f 164 209 210
f 164 210 211
f 164 211 212
f 164 212 213
f 164 213 165
f 165 213 214
f 165 214 166
f 166 214 167
f 167 214 215
f 167 215 216
f 167 216 168
f 168 216 217
f 168 217 218
f 168 218 169
f 169 218 219
f 169 219 220
f 169 220 170
f 170 220 171
f 171 220 219
f 171 219 221
f 171 221 172
f 172 222 223
f 172 223 224
f 172 224 173
f 172 221 222
f 173 224 225
f 173 225 226
f 173 226 174
f 174 226 225
f 174 225 187
f 175 185 176
f 176 227 177
f 176 185 184
f 176 184 227
f 177 227 228
f 177 228 178
f 178 229 230
f 178 230 231
f 178 231 179
f 178 228 229
f 180 182 232
f 180 232 233
f 180 233 181
f 181 233 184
f 181 184 183
f 182 191 234
f 182 234 235
f 182 235 232
f 182 192 191
f 184 233 227
f 187 225 224
f 187 224 237
f 187 237 188
f 188 237 238
f 188 238 189
f 189 234 190
f 189 238 239
f 189 239 240
f 189 240 241
f 189 241 242
f 189 242 243
f 189 243 244
f 189 244 245
f 189 245 246
f 189 246 247
f 189 247 234
f 190 234 248
f 190 248 191
f 191 248 234
f 195 249 250
f 195 250 196
f 196 250 198
f 198 251 252
f 198 252 253
f 198 253 254
f 198 254 199
f 198 250 251
f 199 254 255
f 199 255 200
f 200 255 256
f 200 256 201
f 201 256 257
f 201 257 258
f 201 258 203
f 201 203 202
f 203 258 259
f 203 259 205
f 205 259 207
f 205 207 206
f 207 259 260
f 207 260 208
f 208 260 261
f 208 261 262
f 208 262 209
f 209 262 263
f 209 263 210
f 210 263 264
f 210 264 265
f 210 265 211
f 211 265 212
f 212 266 214
f 212 214 213
f 212 265 264
f 212 264 267
f 212 267 268
f 212 268 266
f 214 266 215
f 215 266 216
f 216 269 218
f 216 218 217
f 216 266 270
f 216 270 271
f 216 271 272
f 216 272 273
f 216 273 269
f 218 269 274
f 218 274 275
f 218 275 219
f 219 275 276
f 219 276 222
f 219 222 221
f 222 276 277
f 222 277 278
f 222 278 223
f 223 278 224
f 224 278 279
f 224 279 280
f 224 280 237
f 227 281 228
f 227 233 281
f 228 281 282
f 228 282 229
f 229 283 230
f 229 282 283
f 230 283 284
f 230 284 285
f 230 285 231
f 232 235 286
f 232 286 287
f 232 287 233
f 233 287 286
f 233 286 281
f 234 247 288
f 234 288 289
f 234 289 235
f 235 289 286
f 236 290 354
f 236 354 408
f 236 408 460
f 236 460 504
f 236 504 532
f 236 532 538
f 236 538 513
f 236 513 477
f 236 477 476
f 236 476 474
f 236 474 473
f 236 473 512
f 236 512 510
f 236 510 505
f 236 505 462
f 236 462 411
f 236 411 355
f 236 355 291
f 237 240 239
f 237 239 238
f 237 280 292
f 237 292 293
f 237 293 242
f 237 242 241
f 237 241 240
f 242 293 294
f 242 294 243
f 243 294 295
f 243 295 296
f 243 296 297
f 243 297 298
f 243 298 299
f 243 299 300
f 243 300 301
f 243 301 302
f 243 302 303
f 243 303 244
f 244 288 245
f 244 303 288
f 245 288 246
f 246 288 247
f 249 304 250
f 250 304 305
f 250 305 252
f 250 252 251
f 252 306 253
f 253 307 308
f 253 308 255
f 253 255 254
f 253 306 309
f 253 309 310
f 253 310 311
f 253 311 307
f 255 308 312
f 255 312 313
f 255 313 257
f 255 257 256
f 257 313 314
f 257 314 315
f 257 315 259
f 257 259 258
f 259 315 260
f 260 315 314
f 260 314 316
f 260 316 317
f 260 317 318
f 260 318 261
f 261 318 262
f 262 318 319
f 262 319 320
f 262 320 263
f 263 320 264
f 264 320 321
f 264 321 322
f 264 322 323
f 264 323 324
f 264 324 325
f 264 325 267
f 266 268 326
f 266 326 327
f 266 327 270
f 267 325 268
f 268 325 324
f 268 324 328
f 268 328 326
f 269 273 274
f 270 327 271
f 271 327 329
f 271 329 272
f 272 330 331
f 272 331 332
f 272 332 333
f 272 333 334
f 272 334 335
f 272 335 336
f 272 336 273
f 272 329 330
f 273 336 337
f 273 337 274
f 274 337 275
f 275 337 338
f 275 338 339
f 275 339 276
f 276 338 340
f 276 340 341
f 276 341 277
f 276 339 338
f 277 341 342
f 277 342 343
f 277 343 344
f 277 344 345
f 277 345 278
f 278 345 279
f 279 345 280
f 280 345 346
f 280 346 292
f 281 286 347
f 281 347 282
f 282 347 348
f 282 348 283
f 283 348 349
f 283 349 284
f 284 349 350
f 284 350 285
f 285 350 352
f 285 352 351
f 286 289 347
f 288 303 302
f 288 302 350
f 288 350 349
f 288 349 348
f 288 348 289
f 289 348 347
f 290 353 354
f 291 355 356
f 292 346 357
f 292 357 358
f 292 358 293
f 293 358 359
f 293 359 360
f 293 360 299
f 293 299 298
f 293 298 297
f 293 297 296
f 293 296 295
f 293 295 294
f 299 360 361
f 299 361 300
f 300 361 362
f 300 362 352
f 300 352 350
f 300 350 301
f 301 350 302
f 307 312 308
f 307 311 312
f 310 363 364
f 310 364 311
f 311 364 365
f 311 365 366
f 311 366 367
f 311 367 368
f 311 368 312
f 312 368 369
f 312 369 313
f 313 369 314
f 314 369 316
f 316 369 368
f 316 368 370
f 316 370 371
f 316 371 317
f 317 371 372
f 317 372 318
f 318 372 319
f 319 372 320
f 320 372 321
f 321 372 373
f 321 373 322
f 322 373 374
f 322 374 375
f 322 375 324
f 322 324 323
f 324 376 377
f 324 377 378
f 324 378 330
f 324 330 328
f 324 375 379
f 324 379 380
f 324 380 381
f 324 381 382
f 324 382 376
f 326 328 330
f 326 330 327
f 327 330 329
f 330 378 383
f 330 383 384
f 330 384 385
f 330 385 386
f 330 386 332
f 330 332 331
f 332 387 333
f 332 386 387
f 333 387 385
f 333 385 388
f 333 388 389
f 333 389 390
f 333 390 391
f 333 391 392
f 333 392 335
f 333 335 334
f 335 338 336
f 335 392 338
f 336 338 337
f 338 392 393
f 338 393 394
f 338 394 342
f 338 342 340
f 340 342 341
f 342 395 396
f 342 396 343
f 342 394 395
f 343 396 397
f 343 397 344
f 344 397 398
f 344 398 399
f 344 399 345
f 345 399 400
f 345 400 357
f 345 357 346
f 351 352 401
f 352 402 403
f 352 403 401
f 352 362 402
f 353 404 405
f 353 405 406
f 353 406 354
f 354 406 407
f 354 407 408
f 355 409 410
f 355 410 356
f 355 411 409
f 356 410 412
f 357 400 413
f 357 413 414
f 357 414 358
f 358 414 359
f 359 414 413
f 359 413 360
f 360 415 416
f 360 416 417
f 360 417 362
f 360 362 361
f 360 413 415
f 362 417 402
f 363 412 364
f 364 412 365
f 365 418 366
f 365 412 410
f 365 410 409
f 365 409 418
f 366 418 370
f 366 370 367
f 367 370 368
f 370 418 419
f 370 419 420
f 370 420 421
f 370 421 371
f 371 421 372
f 372 421 422
f 372 422 423
f 372 423 373
f 373 423 424
f 373 424 374
f 374 424 375
f 375 424 379
f 376 382 377
f 377 382 425
f 377 425 385
f 377 385 384
f 377 384 383
f 377 383 378
f 379 426 380
f 379 424 427
f 379 427 426
f 380 426 381
f 381 428 382
f 381 426 428
f 382 428 429
f 382 429 430
f 382 430 431
f 382 431 432
f 382 432 425
f 385 387 386
f 385 425 432
f 385 432 433
f 385 433 434
f 385 434 388
f 388 434 435
f 388 435 389
f 389 435 390
f 390 436 437
f 390 437 393
f 390 393 391
f 390 435 438
f 390 438 439
f 390 439 440
f 390 440 441
f 390 441 436
f 391 393 392
f 393 437 394
f 394 437 395
f 395 437 396
f 396 437 442
f 396 442 443
f 396 443 397
f 397 443 444
f 397 444 398
f 398 444 399
f 399 444 445
f 399 445 446
f 399 446 400
f 400 446 447
f 400 447 448
f 400 448 449
f 400 449 413
f 402 417 450
f 402 450 403
f 404 451 452
f 404 452 453
f 404 453 454
f 404 454 405
f 405 454 455
f 405 455 407
f 405 407 406
f 407 456 408
f 407 455 457
f 407 457 458
f 407 458 459
f 407 459 456
f 408 456 460
f 409 411 461
f 409 461 419
f 409 419 418
f 411 462 461
f 413 449 463
f 413 463 464
f 413 464 415
f 415 464 465
f 415 465 417
f 415 417 416
f 417 466 467
f 417 467 450
f 417 465 466
f 419 422 420
f 419 461 468
f 419 468 422
f 420 422 421
f 422 468 469
f 422 469 424
f 422 424 423
f 424 469 468
f 424 468 470
f 424 470 471
f 424 471 472
f 424 472 427
f 426 427 429
f 426 429 428
f 427 472 473
f 427 473 474
f 427 474 475
f 427 475 429
f 429 475 430
f 430 475 474
f 430 474 476
f 430 476 477
f 430 477 478
f 430 478 479
f 430 479 431
f 431 479 480
f 431 480 432
f 432 480 433
f 433 480 434
f 434 480 481
f 434 481 482
f 434 482 435
f 435 482 483
f 435 483 438
f 436 441 484
f 436 484 442
f 436 442 437
f 438 483 439
f 439 485 440
f 439 483 485
f 440 485 486
f 440 486 487
f 440 487 441
f 441 487 484
f 442 484 443
f 443 484 444
f 444 484 488
f 444 488 489
f 444 489 445
f 445 489 447
f 445 447 446
f 447 490 491
f 447 491 448
f 447 489 492
f 447 492 490
f 448 491 493
f 448 493 449
f 449 493 494
f 449 494 463
f 451 495 452
f 452 495 496
f 452 496 497
f 452 497 498
f 452 498 499
f 452 499 500
f 452 500 485
f 452 485 501
f 452 501 453
f 453 501 485
f 453 485 454
f 454 485 455
f 455 485 457
f 456 459 502
f 456 502 460
f 457 485 503
f 457 503 458
f 458 503 502
f 458 502 459
f 460 502 504
f 461 462 468
f 462 505 468
f 463 494 506
f 463 506 507
f 463 507 464
f 464 507 508
f 464 508 509
f 464 509 466
f 464 466 465
f 468 505 510
f 468 510 511
f 468 511 470
f 470 511 510
f 470 510 512
f 470 512 471
f 471 512 472
f 472 512 473
f 477 513 478
f 478 513 514
f 478 514 479
f 479 514 480
f 480 514 515
f 480 515 481
f 481 515 516
f 481 516 482
f 482 516 483
f 483 516 503
f 483 503 517
f 483 517 485
f 484 487 518
f 484 518 488
f 485 499 519
f 485 519 486
f 485 517 503
f 485 500 499
f 486 519 487
f 487 519 520
f 487 520 518
f 488 518 489
f 489 518 492
f 490 492 521
f 490 521 491
f 491 521 522
f 491 522 523
f 491 523 493
f 492 524 521
f 492 518 524
f 493 523 525
f 493 525 494
f 494 525 506
f 495 526 496
f 496 527 497
f 496 526 527
f 497 527 528
f 497 528 529
f 497 529 498
f 498 529 499
f 499 529 519
f 502 503 530
f 502 530 504
f 503 531 530
f 503 516 531
f 504 530 532
f 506 525 533
f 506 533 534
f 506 534 507
f 507 534 535
f 507 535 508
f 508 536 537
f 508 537 509
f 508 535 536
f 513 538 514
f 514 538 539
f 514 539 540
f 514 540 515
f 515 540 531
f 515 531 516
f 518 520 524
f 519 529 541
f 519 541 524
f 519 524 520
f 521 541 542
f 521 542 543
f 521 543 522
f 521 524 541
f 522 543 523
f 523 543 544
f 523 544 525
f 525 544 545
f 525 545 533
f 526 546 547
f 526 547 527
f 527 547 548
f 527 548 549
f 527 549 528
f 528 549 550
f 528 550 529
f 529 550 541
f 530 531 539
f 530 539 532
f 531 540 539
f 532 539 538
f 533 545 551
f 533 551 552
f 533 552 553
f 533 553 534
f 534 553 554
f 534 554 536
f 534 536 535
f 541 550 542
f 542 550 543
f 543 550 555
f 543 555 548
f 543 548 556
f 543 556 544
f 544 556 545
f 545 556 548
f 545 548 546
f 545 546 551
f 546 557 551
f 546 548 547
f 548 555 549
f 549 555 550
f 551 557 558
f 551 558 552
f 552 558 559
f 552 559 553
f 553 559 554
