v -0.91893393 0.10999955 -0.41406745
v -0.91871655 0.11259727 -0.41406745
v -0.90936822 0.09002462 -0.41406745
v -0.92148840 0.09777843 -0.40334171
v -0.92273849 0.10999955 -0.40598249
v -0.92214060 0.12536943 -0.40460116
v -0.91485763 0.13125366 -0.41406745
v -0.90518320 0.08539988 -0.41406745
v -0.91029215 0.08925711 -0.41069534
v -0.92436898 0.09433448 -0.38997516
v -0.94040245 0.09927410 -0.36112940
v -0.91545546 0.08433717 -0.38997516
v -0.92974973 0.10999955 -0.38997516
v -0.94105464 0.12292914 -0.36259201
v -0.92551035 0.13121431 -0.39107209
v -0.91915131 0.13871229 -0.39846635
v -0.91648817 0.13121431 -0.41077662
v -0.90534627 0.14363222 -0.41406745
v -0.90213960 0.07827581 -0.40476370
v -0.89480221 0.07609136 -0.41406745
v -0.94252211 0.09651893 -0.34999740
v -0.91844475 0.08130649 -0.37624294
v -0.96094698 0.09852627 -0.30290976
v -0.95850122 0.10999955 -0.31578878
v -0.95344663 0.10999955 -0.32996789
v -0.94605494 0.10999955 -0.34999740
v -0.94110900 0.10999955 -0.36279514
v -0.93697834 0.10999955 -0.37278959
v -0.96154487 0.12428704 -0.30477864
v -0.94328302 0.12975800 -0.34938797
v -0.93806535 0.13627200 -0.35568529
v -0.94083726 0.14083770 -0.34235936
v -0.92208624 0.14182168 -0.38509983
v -0.90632457 0.14416358 -0.40996403
v -0.90355271 0.14441940 -0.41406745
v -0.90545499 0.07575680 -0.38997516
v -0.89056289 0.07288357 -0.41406745
v -0.89143252 0.07239157 -0.41085786
v -0.87991017 0.06001302 -0.39988834
v -0.88974762 0.06461807 -0.39192528
v -0.93360859 0.08652163 -0.34999740
v -0.93735880 0.08236920 -0.32996789
v -0.94621795 0.09236650 -0.32996789
v -0.91105306 0.07345428 -0.36974251
v -0.92110795 0.07906301 -0.36291704
v -0.95404446 0.08587219 -0.28999013
v -0.96290362 0.09588918 -0.28999013
v -0.97991538 0.10076976 -0.23969288
v -0.96681684 0.10999955 -0.28999013
v -0.96187097 0.10999955 -0.30579433
v -0.98045886 0.12147284 -0.24196804
v -0.96361017 0.13056487 -0.28986824
v -0.95860994 0.13762990 -0.29644993
v -0.95665330 0.13056487 -0.31087279
v -0.95018554 0.12999415 -0.32996789
v -0.96089262 0.14089674 -0.28308338
v -0.94295692 0.14251047 -0.32996789
v -0.92507553 0.14376998 -0.36998627
v -0.91148788 0.14544275 -0.39107209
v -0.90996611 0.14961487 -0.36998627
v -0.88996506 0.14985102 -0.40996403
v -0.89029115 0.14902447 -0.41406745
v -0.89654148 0.06251235 -0.36998627
v -0.87920362 0.06453936 -0.41406745
v -0.87746441 0.06176452 -0.40996403
v -0.88295382 0.05786793 -0.38656241
v -0.86746389 0.05477821 -0.40996403
v -0.85306096 0.04478090 -0.40996403
v -0.85702854 0.04206510 -0.39371294
v -0.85018039 0.03549207 -0.38822818
v -0.83724493 0.02187369 -0.37421155
v -0.86018085 0.03988065 -0.38038701
v -0.93942416 0.08042090 -0.31842959
v -0.89909595 0.06064277 -0.35775730
v -0.90898776 0.06607438 -0.35064745
v -0.92360806 0.07711471 -0.34999740
v -0.95708811 0.08258568 -0.26996058
v -0.96583855 0.09258299 -0.26996058
v -0.98143721 0.09779811 -0.22636695
v -0.99116594 0.10999955 -0.19000506
v -0.98725271 0.10999955 -0.20999394
v -0.98236114 0.10846453 -0.23181108
v -0.98045886 0.11409294 -0.24196804
v -0.97812182 0.10846453 -0.24915916
v -0.97263241 0.10999955 -0.26996058
v -1.00073171 0.12231907 -0.12638190
v -0.98806798 0.12999415 -0.19000506
v -0.98187196 0.12519231 -0.22998284
v -0.97757828 0.13518962 -0.22998284
v -0.97540426 0.12887242 -0.24915916
v -0.96942568 0.12999415 -0.26996058
v -0.97920883 0.13877133 -0.21730696
v -0.98073065 0.14081803 -0.20402166
v -0.96263188 0.14241208 -0.26996058
v -0.94627231 0.14441940 -0.30997899
v -0.92996711 0.14829633 -0.32996789
v -0.92996711 0.15038237 -0.30997899
v -0.90996611 0.15079564 -0.34999740
v -0.88996506 0.15057917 -0.38997516
v -0.88588876 0.14994942 -0.41406745
v -0.88654095 0.05525052 -0.36998627
v -0.87605131 0.06223683 -0.41406745
v -0.87398595 0.06076085 -0.41406745
v -0.86643124 0.05546700 -0.41406745
v -0.84039724 0.01972860 -0.36084503
v -0.87246412 0.04527289 -0.36998627
v -0.84827811 0.04287197 -0.41406745
v -0.84306043 0.03787331 -0.40996403
v -0.83338600 0.02447141 -0.38997516
v -0.80083001 -0.00056121 -0.38172770
v -0.92735827 0.07426114 -0.32996789
v -0.91436851 0.06426384 -0.32996789
v -0.93165201 0.07247029 -0.31103534
v -0.94165254 0.07863005 -0.30510366
v -0.87675786 0.04228158 -0.34999740
v -0.89143252 0.05302671 -0.35064745
v -0.90170479 0.05869447 -0.34443140
v -0.95899034 0.08079482 -0.25635028
v -0.94404393 0.07676047 -0.28999013
v -0.97453463 0.08541956 -0.20999394
v -0.98317641 0.09541687 -0.20999394
v -1.00018811 0.09958897 -0.12195348
v -0.99453568 0.10999955 -0.17001618
v -0.99741626 0.13489442 -0.11000890
v -0.99698150 0.12938410 -0.13182604
v -0.99426395 0.12999415 -0.15002730
v -0.99138331 0.12999415 -0.17001618
v -0.99757934 0.10999955 -0.15002730
v -0.99948156 0.10999955 -0.13625446
v -1.00073171 0.10999955 -0.12621939
v -1.00252521 0.10999955 -0.11000890
v -1.00448179 0.10999955 -0.09002002
v -1.00605798 0.10999955 -0.07003114
v -1.00165558 0.12489711 -0.11000890
v -0.98371994 0.13125366 -0.21035960
v -0.98203504 0.14197913 -0.19000506
v -0.96513200 0.14408486 -0.24997172
v -0.94996816 0.14825696 -0.26996058
v -0.92996711 0.15101212 -0.28999013
v -0.94996816 0.15016589 -0.24997172
v -0.94996816 0.15095308 -0.22998284
v -0.86996400 0.14896543 -0.41406745
v -0.96996921 0.15091372 -0.09002002
v -0.96996921 0.15014622 0.00098628
v -0.85273486 0.02514052 -0.34999740
v -0.86675733 0.03513783 -0.34999740
v -0.81724387 0.00187907 -0.35369450
v -0.81034136 -0.00445780 -0.34820977
v -0.84273434 0.01809518 -0.34999740
v -0.80354750 -0.00241111 -0.36998627
v -0.84202778 0.03858178 -0.41406745
v -0.82061362 0.01957116 -0.40122905
v -0.80849344 0.00713356 -0.38900009
v -0.81034136 0.01512354 -0.40874520
v -0.79746026 0.00166260 -0.39505363
v -0.79050332 -0.00493012 -0.38900009
v -0.76349109 -0.02230732 -0.38997516
v -0.77735049 -0.01825330 -0.37453657
v -0.77039361 -0.02468857 -0.36872679
v -0.78832930 -0.01290041 -0.36872679
v -0.90436798 0.05668714 -0.32996789
v -0.91784692 0.06160708 -0.30997899
v -0.91964048 0.06022950 -0.29896885
v -0.92904317 0.06556270 -0.29137146
v -0.85686553 0.02222792 -0.32996789
v -0.87920362 0.04054976 -0.33801219
v -0.88175809 0.03871954 -0.32468626
v -0.88904107 0.04570585 -0.33078045
v -0.94708759 0.07447763 -0.26996058
v -0.95138127 0.07353300 -0.24980921
v -0.96072960 0.07935820 -0.24302436
v -0.97654563 0.08313671 -0.19000506
v -0.98507869 0.09313402 -0.19000506
v -1.00084043 0.09854594 -0.11000890
v -0.98676354 0.09140220 -0.17001618
v -0.98692656 0.08825344 -0.14994603
v -0.97948056 0.08042090 -0.15660900
v -0.99247038 0.08854864 -0.11000890
v -0.99855763 0.13747247 -0.09002002
v -1.00181866 0.09706996 -0.09002002
v -1.00730813 0.10999955 -0.05000162
v -1.00263393 0.12745547 -0.09002002
v -0.99942726 0.13906652 -0.07429706
v -0.98361123 0.14325830 -0.17001618
v -0.96757776 0.14502949 -0.22998284
v -0.96996921 0.15093341 -0.11000890
v -0.96996921 0.14778465 -0.19000506
v -0.96996921 0.14920159 -0.17001618
v -0.96996921 0.15012653 -0.15002730
v -0.96996921 0.15069725 -0.13003841
v -0.86567032 0.14780432 -0.41406745
v -0.98997021 0.14646611 0.00098628
v -0.95241392 0.14455718 0.00098628
v -0.79316652 -0.01547845 -0.34999740
v -0.79751456 -0.01837137 -0.32996789
v -0.82012445 -0.00010858 -0.34036860
v -0.83224463 0.00520495 -0.32996789
v -0.84686500 0.01522193 -0.32996789
v -0.80854774 0.01577297 -0.41406745
v -0.79555798 0.00697613 -0.41406745
v -0.79245996 0.00490975 -0.41406745
v -0.76061052 -0.02041807 -0.40122905
v -0.74821854 -0.03263918 -0.38839066
v -0.74033773 -0.04023556 -0.38067138
v -0.75305575 -0.03557146 -0.36998627
v -0.78055716 -0.02037871 -0.36121064
v -0.75702333 -0.03809047 -0.35369450
v -0.90784639 0.05405006 -0.30997899
v -0.89442182 0.04407243 -0.30997899
v -0.89784586 0.04159278 -0.28999013
v -0.89963949 0.04027424 -0.27881747
v -0.92170584 0.05865512 -0.28564292
v -0.93404341 0.06448032 -0.26996058
v -0.85920256 0.02055514 -0.31794205
v -0.87154019 0.03301242 -0.33078045
v -0.88442129 0.03677125 -0.30997899
v -0.86898565 0.02573092 -0.31075093
v -0.93681532 0.06239427 -0.24997172
v -0.93877190 0.06091829 -0.23481753
v -0.94817460 0.06705836 -0.22888589
v -0.96225142 0.07811838 -0.22998284
v -0.97833920 0.08140489 -0.17001618
v -0.96453416 0.07638656 -0.20999394
v -0.96654510 0.07483186 -0.19000506
v -0.98040450 0.07959436 -0.14324245
v -0.96833867 0.07341492 -0.17001618
v -0.95719677 0.06211875 -0.15002730
v -0.97165406 0.07347396 -0.14994603
v -0.99344867 0.08707266 -0.09002002
v -1.00257957 0.09596790 -0.07003114
v -0.99426395 0.08595091 -0.07003114
v -1.00812340 0.10999955 -0.03001274
v -1.00442755 0.12999415 -0.05000162
v -1.00317740 0.09514135 -0.05000162
v -1.00279701 0.13143077 -0.06856853
v -1.00002503 0.14007020 -0.06097113
v -0.98502433 0.14412421 -0.15002730
v -0.98997021 0.14632834 -0.03001274
v -0.98997021 0.14646611 -0.01002386
v -0.98627436 0.14471461 -0.13003841
v -0.98741579 0.14508852 -0.11000890
v -0.98855710 0.14534436 -0.09002002
v -0.98997021 0.14593476 -0.05000162
v -0.85371315 0.14329767 -0.41406745
v -1.00078607 0.14087707 0.00098628
v -0.61011356 -0.05003607 0.00098628
v -0.45336628 -0.05003607 -0.41406745
v -0.78316599 -0.02207117 -0.34999740
v -0.76012135 -0.04009780 -0.34032798
v -0.77235025 -0.03496139 -0.32996789
v -0.79974294 -0.01982768 -0.31936401
v -0.83621228 0.00254818 -0.30997899
v -0.85153913 0.01331300 -0.31075093
v -0.77360028 -0.00742944 -0.41406745
v -0.76838261 -0.01272329 -0.40870458
v -0.75800169 -0.01762354 -0.41406745
v -0.75642550 -0.01864690 -0.41406745
v -0.73680490 -0.03799208 -0.39403793
v -0.74305522 -0.04194770 -0.36998627
v -0.73011976 -0.04409279 -0.38839066
v -0.71984750 -0.05003607 -0.38993454
v -0.72473907 -0.05003607 -0.38067138
v -0.73033720 -0.05003607 -0.36998627
v -0.74012029 -0.05003607 -0.34999740
v -0.76805651 -0.03252111 -0.34820977
v -0.75022954 -0.04413215 -0.34820977
v -0.87414896 0.02425493 -0.28999013
v -0.88784540 0.03427192 -0.28999013
v -0.87730134 0.02193273 -0.26996058
v -0.87925798 0.02053547 -0.25736597
v -0.90159607 0.03877858 -0.26549155
v -0.86164832 0.01880365 -0.30461612
v -0.90371573 0.03714516 -0.24997172
v -0.90627027 0.03519687 -0.22998284
v -0.94034809 0.05971782 -0.22149162
v -0.95159864 0.06636957 -0.20999394
v -0.95366400 0.06483455 -0.19000506
v -0.95551193 0.06341761 -0.17001618
v -0.98127413 0.07888588 -0.13003841
v -0.95871860 0.06097732 -0.13003841
v -0.96996921 0.06985289 -0.13003841
v -0.94871807 0.05322351 -0.13003841
v -0.90034604 0.01972860 -0.16205314
v -0.91132486 0.02667554 -0.15002730
v -0.98246986 0.07790190 -0.11000890
v -0.99491614 0.08514404 -0.05000162
v -0.98344815 0.07709503 -0.09002002
v -0.98426342 0.07644559 -0.07003114
v -1.00850379 0.10999955 -0.01002386
v -1.00518847 0.12999415 -0.03001274
v -1.00361228 0.09462968 -0.03001274
v -1.00029683 0.14036539 -0.05000162
v -1.00067735 0.14073929 -0.03001274
v -1.00078607 0.14087707 -0.01002386
v -0.99165511 0.14443910 -0.06856853
v -1.00551450 0.12999415 0.00098628
v -0.81751561 -0.05003607 0.00098628
v -0.70636857 -0.05003607 -0.41406745
v -0.76234972 -0.04155411 -0.32996789
v -0.74457705 -0.05003607 -0.34044987
v -0.74930555 -0.05003607 -0.32996789
v -0.74952298 -0.05003607 -0.32948035
v -0.75745815 -0.05003607 -0.31062904
v -0.76642603 -0.04428959 -0.30997899
v -0.80229747 -0.02157918 -0.30603808
v -0.83876669 0.00083605 -0.29649055
v -0.73033720 -0.03511883 -0.41406745
v -0.73011976 -0.03610282 -0.41167039
v -0.72348899 -0.04216418 -0.40614504
v -0.71560818 -0.05003607 -0.39761317
v -0.86414850 0.01701279 -0.28999013
v -0.86730081 0.01472994 -0.26996058
v -0.88110590 0.01917756 -0.24404006
v -0.88866061 0.02602611 -0.25041863
v -0.85626763 0.00260722 -0.24997172
v -0.87154019 0.01358852 -0.25041863
v -0.84860420 0.00611022 -0.28986824
v -0.89295435 0.02517988 -0.22998284
v -0.90860730 0.03340601 -0.20999394
v -0.89540011 0.02338903 -0.20999394
v -0.91980356 0.04015616 -0.19902444
v -0.91186833 0.03289434 -0.19142704
v -0.89909595 0.02067322 -0.17537905
v -0.96823001 0.06650733 -0.11004953
v -0.95958823 0.06028853 -0.11675312
v -0.91284668 0.02551444 -0.13003841
v -0.93708706 0.04222254 -0.11000890
v -0.89143252 0.01419859 -0.16924426
v -0.87773615 0.00162324 -0.15002730
v -0.88996506 0.01057752 -0.15002730
v -0.90132433 0.01896109 -0.15002730
v -0.97100186 0.06709772 -0.09002002
v -0.98491561 0.07595360 -0.05000162
v -0.99529660 0.08463237 -0.03001274
v -0.97181714 0.06644829 -0.07003114
v -1.00377536 0.09439352 -0.01002386
v -1.00638413 0.10295421 0.00098628
v -1.00850379 0.10999955 0.00098628
v -1.00687325 0.12098084 0.00098628
v -1.00551450 0.12999415 -0.01002386
v -0.99551404 0.08439621 -0.01002386
v -0.83615792 -0.03740168 0.00098628
v -0.81751561 -0.05003607 -0.01002386
v -0.70799905 -0.05003607 -0.41126412
v -0.71120572 -0.04704475 -0.41406745
v -0.75425148 -0.05003607 -0.31834832
v -0.76126271 -0.05003607 -0.30083776
v -0.77892667 -0.03929093 -0.29714060
v -0.77137190 -0.04602141 -0.29027450
v -0.78881848 -0.03443004 -0.29027450
v -0.80517805 -0.02356683 -0.28999013
v -0.84104943 -0.00073833 -0.28312400
v -0.72696745 -0.03722456 -0.41406745
v -0.71424937 -0.04515550 -0.41406745
v -0.71126008 -0.05003607 -0.40545434
v -0.85322398 0.00473263 -0.26996058
v -0.88295382 0.01783934 -0.22998284
v -0.85849601 0.00105252 -0.23420812
v -0.84626710 -0.00433972 -0.24997172
v -0.89762849 0.02177529 -0.19000506
v -0.88539958 0.01606816 -0.20999394
v -0.88762796 0.01445442 -0.19000506
v -0.96034914 0.05967846 -0.10342719
v -0.95176172 0.05357774 -0.11004953
v -0.90284616 0.01779998 -0.13003841
v -0.91415107 0.02451077 -0.11000890
v -0.90529191 0.01593041 -0.09002002
v -0.91529244 0.02366454 -0.09002002
v -0.87583387 0.00296146 -0.17001618
v -0.86773562 -0.00554019 -0.15002730
v -0.87904054 0.00065893 -0.13389805
v -0.88800842 0.00664157 -0.12833205
v -0.96100134 0.05916679 -0.09002002
v -0.98529607 0.07561905 -0.03001274
v -0.97246933 0.06595629 -0.05000162
v -0.96181661 0.05851736 -0.07003114
v -1.00377536 0.09439352 0.00098628
v -0.99926424 0.08890288 0.00098628
v -0.98551345 0.07546161 -0.01002386
v -0.99100292 0.08036187 0.00098628
v -0.99551404 0.08439621 0.00098628
v -0.84240824 -0.03307214 0.00098628
v -0.83615792 -0.03740168 -0.01002386
v -0.81702650 -0.05003607 -0.03001274
v -0.76533902 -0.05003607 -0.29015261
v -0.76713258 -0.05003607 -0.28527728
v -0.78137243 -0.04092436 -0.28377405
v -0.79376441 -0.03588634 -0.26996058
v -0.81077611 -0.02476729 -0.26825422
v -0.84322345 -0.00221431 -0.26996058
v -0.86811608 0.00691709 -0.22852023
v -0.86018085 -0.00014794 -0.22088221
v -0.87154019 0.00607086 -0.20999394
v -0.83452737 -0.01626565 -0.22998284
v -0.83713621 -0.01805650 -0.20999394
v -0.82012445 -0.02010319 -0.26045370
v -0.83170116 -0.01433703 -0.24997172
v -0.79903638 -0.03936966 -0.23664579
v -0.87376857 0.00443744 -0.19000506
v -0.93817407 0.04139598 -0.09002002
v -0.94996816 0.05054706 -0.09002002
v -0.90415055 0.01679631 -0.11000890
v -0.88007319 -0.00004954 -0.12057213
v -0.89078033 0.00677933 -0.11000890
v -0.89192164 0.00593310 -0.09002002
v -0.89289999 0.00526399 -0.07003114
v -0.90610719 0.01526130 -0.07003114
v -0.92904317 0.03299274 -0.07003114
v -0.93904364 0.04072687 -0.07003114
v -0.86583334 -0.00418229 -0.17001618
v -0.85365880 -0.01553749 -0.15002730
v -0.85534370 -0.01671828 -0.13003841
v -0.87143147 -0.00540243 -0.12833205
v -0.97284979 0.06562174 -0.03001274
v -0.96246880 0.05802536 -0.05000162
v -0.98551345 0.07548130 0.00098628
v -0.97301280 0.06546430 -0.01002386
v -0.97866529 0.06999064 0.00098628
v -0.84996295 -0.02779797 0.00098628
v -0.84996295 -0.02777829 -0.01002386
v -0.84996295 -0.02740438 -0.03001274
v -0.83588612 -0.03720488 -0.03001274
v -0.81604815 -0.05003607 -0.05000162
v -0.77164370 -0.05003607 -0.27260143
v -0.79702544 -0.03803144 -0.24997172
v -0.77283937 -0.05003607 -0.26902616
v -0.77903539 -0.05003607 -0.24997172
v -0.86153966 -0.00109257 -0.20999394
v -0.84996295 -0.00916126 -0.20999394
v -0.80088431 -0.04058980 -0.22327924
v -0.82713568 -0.02492473 -0.20999394
v -0.83892977 -0.01929633 -0.19544919
v -0.80996090 -0.02921491 -0.24997172
v -0.78490525 -0.05003607 -0.22998284
v -0.86376804 -0.00270630 -0.19000506
v -0.85681117 -0.01774163 -0.11000890
v -0.86996400 -0.00831503 -0.11000890
v -0.88077974 -0.00056121 -0.11000890
v -0.88192117 -0.00142712 -0.09002002
v -0.88289946 -0.00211591 -0.07003114
v -0.89360654 0.00473263 -0.05000162
v -0.90681374 0.01472994 -0.05000162
v -0.91681427 0.02248376 -0.05000162
v -0.93969589 0.04023488 -0.05000162
v -0.85170221 -0.01417959 -0.17001618
v -0.84365827 -0.02254348 -0.15002730
v -0.84534317 -0.02372427 -0.13003841
v -0.96284926 0.05771049 -0.03001274
v -0.96306670 0.05757273 -0.01002386
v -0.93996763 0.04001841 -0.03919463
v -0.97301280 0.06548399 0.00098628
v -0.85474581 -0.02445242 0.00098628
v -0.86050701 -0.02037871 -0.01002386
v -0.86023521 -0.02020159 -0.03001274
v -0.86007220 -0.02004416 -0.04118539
v -0.83534265 -0.03685065 -0.05000162
v -0.81550467 -0.05003607 -0.05690835
v -0.83458173 -0.03631929 -0.07003114
v -0.79017723 -0.05003607 -0.21023771
v -0.80256921 -0.04177058 -0.20999394
v -0.81256974 -0.03492203 -0.20999394
v -0.84045160 -0.02031967 -0.18212327
v -0.84822375 -0.01374663 -0.18927376
v -0.80501497 -0.04340400 -0.19000506
v -0.81501549 -0.03655545 -0.19000506
v -0.85800683 -0.01860753 -0.09002002
v -0.86996400 -0.01004685 -0.09002002
v -0.84681064 -0.02474761 -0.11000890
v -0.86996400 -0.01142443 -0.07003114
v -0.85963738 -0.01974896 -0.05455194
v -0.88360602 -0.00264727 -0.05000162
v -0.89404136 0.00439808 -0.03001274
v -0.90719420 0.01441507 -0.03001274
v -0.84170169 -0.02118558 -0.17001618
v -0.82996190 -0.02925427 -0.17001618
v -0.81876570 -0.03917286 -0.15348066
v -0.82800531 -0.03354445 -0.14811780
v -0.82001573 -0.03999941 -0.14015475
v -0.83077717 -0.03372157 -0.13003841
v -0.83229899 -0.03474492 -0.11000890
v -0.94013071 0.03988065 -0.02582808
v -0.95600104 0.05210176 0.00098628
v -0.96301234 0.05759241 0.00098628
v -0.96850175 0.06192195 0.00098628
v -0.94023937 0.03978225 -0.01002386
v -0.94023937 0.03980193 0.00098628
v -0.93197811 0.03366185 -0.03151597
v -0.86050701 -0.02037871 0.00098628
v -0.87050748 -0.01313657 -0.01002386
v -0.88404083 -0.00296214 -0.03001274
v -0.85175651 -0.02551512 -0.04874216
v -0.81447196 -0.05003607 -0.06990924
v -0.84898466 -0.02632199 -0.07003114
v -0.84800637 -0.02561352 -0.09002002
v -0.83354908 -0.03561082 -0.09002002
v -0.81246102 -0.05003607 -0.09002002
v -0.81376541 -0.05003607 -0.07718164
v -0.79343832 -0.05003607 -0.19719619
v -0.80713463 -0.04489966 -0.17001618
v -0.81713516 -0.03805111 -0.17001618
v -0.79512316 -0.05003607 -0.19016758
v -0.79773200 -0.05003607 -0.17850739
v -0.79957992 -0.05003607 -0.17001618
v -0.85898519 -0.01929633 -0.07003114
v -0.88425821 -0.00313926 -0.01002386
v -0.89425874 0.00424064 -0.01002386
v -0.90741158 0.01423795 -0.01002386
v -0.91719472 0.02216888 -0.03001274
v -0.80142784 -0.05003607 -0.16099681
v -0.81126529 -0.04501774 -0.14811780
v -0.80376494 -0.05003607 -0.14897098
v -0.80517805 -0.05003607 -0.14080478
v -0.80697161 -0.05003607 -0.13003841
v -0.80756944 -0.05003607 -0.12609752
v -0.80996090 -0.05003607 -0.10972451
v -0.91741210 0.02201145 -0.01002386
v -0.90741158 0.01423795 0.00098628
v -0.87050748 -0.01313657 0.00098628
v -0.88425821 -0.00313926 0.00098628
v -0.89425874 0.00424064 0.00098628
f 1 2 7
f 1 7 18
f 1 18 35
f 1 35 62
f 1 62 100
f 1 100 142
f 1 142 191
f 1 191 244
f 1 244 247
f 1 247 298
f 1 298 345
f 1 345 354
f 1 354 353
f 1 353 307
f 1 307 257
f 1 257 256
f 1 256 254
f 1 254 201
f 1 201 200
f 1 200 199
f 1 199 151
f 1 151 107
f 1 107 104
f 1 104 103
f 1 103 102
f 1 102 64
f 1 64 37
f 1 37 20
f 1 20 8
f 1 8 3
f 1 3 4
f 1 4 5
f 1 5 6
f 1 6 2
f 2 6 7
f 3 8 9
f 3 9 4
f 4 10 11
f 4 11 5
f 4 9 12
f 4 12 10
f 5 11 13
f 5 13 14
f 5 14 6
f 6 14 15
f 6 15 16
f 6 16 17
f 6 17 7
f 7 17 16
f 7 16 18
f 8 19 12
f 8 12 9
f 8 20 19
f 10 21 11
f 10 12 22
f 10 22 21
f 11 21 23
f 11 23 24
f 11 24 25
f 11 25 26
f 11 26 27
f 11 27 28
f 11 28 13
f 12 19 22
f 13 28 14
f 14 28 27
f 14 27 26
f 14 26 25
f 14 25 24
f 14 24 29
f 14 29 30
f 14 30 31
f 14 31 16
f 14 16 15
f 16 31 32
f 16 32 33
f 16 33 18
f 18 34 35
f 18 33 34
f 19 36 22
f 19 20 37
f 19 37 38
f 19 38 39
f 19 39 40
f 19 40 36
f 21 22 41
f 21 41 42
f 21 42 43
f 21 43 23
f 22 36 44
f 22 44 45
f 22 45 42
f 22 42 41
f 23 43 42
f 23 42 46
f 23 46 47
f 23 47 48
f 23 48 49
f 23 49 50
f 23 50 24
f 24 50 29
f 29 50 49
f 29 49 51
f 29 51 52
f 29 52 53
f 29 53 54
f 29 54 55
f 29 55 30
f 30 32 31
f 30 55 32
f 32 55 53
f 32 53 56
f 32 56 57
f 32 57 58
f 32 58 33
f 33 58 34
f 34 59 60
f 34 60 61
f 34 61 35
f 34 58 59
f 35 61 62
f 36 40 63
f 36 63 44
f 37 64 65
f 37 65 38
f 38 65 39
f 39 66 40
f 39 65 67
f 39 67 68
f 39 68 69
f 39 69 70
f 39 70 71
f 39 71 72
f 39 72 66
f 40 66 63
f 42 73 46
f 42 45 73
f 44 63 74
f 44 74 45
f 45 74 75
f 45 75 76
f 45 76 73
f 46 77 47
f 46 73 77
f 47 77 78
f 47 78 79
f 47 79 48
f 48 79 80
f 48 80 81
f 48 81 82
f 48 82 83
f 48 83 84
f 48 84 85
f 48 85 49
f 49 85 51
f 51 83 81
f 51 81 80
f 51 80 86
f 51 86 87
f 51 87 88
f 51 88 89
f 51 89 90
f 51 90 91
f 51 91 52
f 51 85 83
f 52 56 53
f 52 91 56
f 53 55 54
f 56 91 89
f 56 89 92
f 56 92 93
f 56 93 94
f 56 94 95
f 56 95 57
f 57 95 58
f 58 96 60
f 58 60 59
f 58 95 96
f 60 96 97
f 60 97 98
f 60 98 61
f 61 99 100
f 61 100 62
f 61 98 99
f 63 66 101
f 63 101 74
f 64 102 65
f 65 102 103
f 65 103 104
f 65 104 67
f 66 72 105
f 66 105 106
f 66 106 101
f 67 104 68
f 68 107 108
f 68 108 109
f 68 109 69
f 68 104 107
f 69 109 70
f 70 109 71
f 71 105 72
f 71 109 110
f 71 110 105
f 73 76 111
f 73 111 112
f 73 112 113
f 73 113 114
f 73 114 77
f 74 101 115
f 74 115 116
f 74 116 117
f 74 117 75
f 75 117 76
f 76 117 112
f 76 112 111
f 77 118 78
f 77 114 119
f 77 119 118
f 78 118 79
f 79 118 120
f 79 120 121
f 79 121 122
f 79 122 80
f 80 122 123
f 80 123 86
f 81 83 82
f 83 85 84
f 86 124 125
f 86 125 126
f 86 126 127
f 86 127 87
f 86 123 128
f 86 128 129
f 86 129 130
f 86 130 131
f 86 131 132
f 86 132 133
f 86 133 134
f 86 134 124
f 87 127 93
f 87 93 92
f 87 92 135
f 87 135 88
f 88 135 92
f 88 92 89
f 89 91 90
f 93 127 126
f 93 126 124
f 93 124 136
f 93 136 137
f 93 137 94
f 94 137 95
f 95 137 138
f 95 138 96
f 96 138 97
f 97 139 98
f 97 138 140
f 97 140 141
f 97 141 139
f 98 139 99
f 99 142 100
f 99 139 143
f 99 143 144
f 99 144 142
f 101 106 105
f 101 105 145
f 101 145 146
f 101 146 115
f 105 147 148
f 105 148 149
f 105 149 145
f 105 110 150
f 105 150 147
f 107 151 108
f 108 152 153
f 108 153 109
f 108 151 154
f 108 154 152
f 109 153 110
f 110 153 155
f 110 155 156
f 110 156 157
f 110 157 158
f 110 158 159
f 110 159 160
f 110 160 150
f 112 117 161
f 112 161 162
f 112 162 113
f 113 162 114
f 114 162 163
f 114 163 164
f 114 164 119
f 115 146 165
f 115 165 166
f 115 166 116
f 116 166 117
f 117 166 167
f 117 167 168
f 117 168 161
f 118 119 169
f 118 169 170
f 118 170 171
f 118 171 120
f 119 164 169
f 120 172 121
f 120 171 172
f 121 172 173
f 121 173 122
f 122 174 133
f 122 133 132
f 122 132 131
f 122 131 130
f 122 130 129
f 122 129 128
f 122 128 123
f 122 173 175
f 122 175 176
f 122 176 177
f 122 177 178
f 122 178 174
f 124 126 125
f 124 134 179
f 124 179 136
f 133 174 180
f 133 180 181
f 133 181 182
f 133 182 134
f 134 182 179
f 136 179 183
f 136 183 184
f 136 184 185
f 136 185 137
f 137 185 138
f 138 185 140
f 139 141 186
f 139 186 143
f 140 185 187
f 140 187 188
f 140 188 189
f 140 189 141
f 141 189 190
f 141 190 186
f 142 144 191
f 143 186 192
f 143 192 144
f 144 192 245
f 144 245 296
f 144 296 339
f 144 339 338
f 144 338 337
f 144 337 377
f 144 377 378
f 144 378 381
f 144 381 380
f 144 380 416
f 144 416 418
f 144 418 451
f 144 451 484
f 144 484 483
f 144 483 482
f 144 482 486
f 144 486 517
f 144 517 520
f 144 520 519
f 144 519 518
f 144 518 488
f 144 488 452
f 144 452 419
f 144 419 382
f 144 382 342
f 144 342 297
f 144 297 246
f 144 246 193
f 144 193 191
f 145 149 165
f 145 165 146
f 147 150 148
f 148 150 194
f 148 194 195
f 148 195 196
f 148 196 149
f 149 196 197
f 149 197 198
f 149 198 165
f 150 160 194
f 151 199 154
f 152 154 155
f 152 155 153
f 154 199 200
f 154 200 155
f 155 200 201
f 155 201 202
f 155 202 156
f 156 202 157
f 157 202 203
f 157 203 204
f 157 204 205
f 157 205 159
f 157 159 158
f 159 206 160
f 159 205 207
f 159 207 206
f 160 206 194
f 161 208 162
f 161 168 167
f 161 167 209
f 161 209 208
f 162 208 163
f 163 208 210
f 163 210 211
f 163 211 164
f 164 212 213
f 164 213 169
f 164 211 212
f 165 214 215
f 165 215 166
f 165 198 214
f 166 215 167
f 167 216 209
f 167 215 214
f 167 214 217
f 167 217 216
f 169 213 218
f 169 218 170
f 170 218 171
f 171 218 219
f 171 219 220
f 171 220 221
f 171 221 172
f 172 222 173
f 172 221 223
f 172 223 224
f 172 224 222
f 173 222 175
f 174 178 229
f 174 229 180
f 175 222 177
f 175 177 176
f 177 225 178
f 177 222 226
f 177 226 227
f 177 227 228
f 177 228 225
f 178 225 229
f 179 182 183
f 180 230 181
f 180 229 231
f 180 231 230
f 181 232 233
f 181 233 182
f 181 230 234
f 181 234 232
f 182 235 183
f 182 233 235
f 183 235 236
f 183 236 184
f 184 236 237
f 184 237 187
f 184 187 185
f 186 190 238
f 186 238 239
f 186 239 192
f 187 237 188
f 188 237 240
f 188 240 189
f 189 240 241
f 189 241 242
f 189 242 190
f 190 242 243
f 190 243 238
f 191 193 244
f 192 239 294
f 192 294 245
f 193 246 247
f 193 247 244
f 194 206 248
f 194 248 249
f 194 249 195
f 195 249 250
f 195 250 251
f 195 251 197
f 195 197 196
f 197 252 198
f 197 251 252
f 198 252 253
f 198 253 214
f 201 254 255
f 201 255 202
f 202 255 256
f 202 256 257
f 202 257 258
f 202 258 203
f 203 258 204
f 204 259 205
f 204 258 260
f 204 260 261
f 204 261 262
f 204 262 263
f 204 263 259
f 205 259 264
f 205 264 207
f 206 207 265
f 206 265 248
f 207 249 265
f 207 264 266
f 207 266 249
f 208 209 210
f 209 216 267
f 209 267 268
f 209 268 210
f 210 268 211
f 211 268 267
f 211 267 269
f 211 269 270
f 211 270 271
f 211 271 213
f 211 213 212
f 213 271 218
f 214 272 217
f 214 253 272
f 216 217 272
f 216 272 267
f 218 271 273
f 218 273 219
f 219 273 274
f 219 274 275
f 219 275 220
f 220 276 221
f 220 275 276
f 221 276 223
f 222 224 226
f 223 276 277
f 223 277 224
f 224 277 278
f 224 278 226
f 225 279 229
f 225 228 280
f 225 280 281
f 225 281 279
f 226 278 227
f 227 282 280
f 227 280 228
f 227 278 283
f 227 283 284
f 227 284 282
f 229 279 285
f 229 285 231
f 230 231 286
f 230 286 234
f 231 285 287
f 231 287 288
f 231 288 286
f 232 289 290
f 232 290 233
f 232 234 291
f 232 291 289
f 233 290 236
f 233 236 235
f 234 286 291
f 236 290 292
f 236 292 242
f 236 242 241
f 236 241 240
f 236 240 237
f 238 243 293
f 238 293 294
f 238 294 239
f 242 292 295
f 242 295 243
f 243 295 292
f 243 292 293
f 245 294 340
f 245 340 296
f 246 297 343
f 246 343 384
f 246 384 423
f 246 423 457
f 246 457 492
f 246 492 497
f 246 497 496
f 246 496 515
f 246 515 514
f 246 514 513
f 246 513 512
f 246 512 511
f 246 511 509
f 246 509 503
f 246 503 502
f 246 502 501
f 246 501 498
f 246 498 459
f 246 459 434
f 246 434 427
f 246 427 426
f 246 426 424
f 246 424 386
f 246 386 385
f 246 385 347
f 246 347 303
f 246 303 346
f 246 346 302
f 246 302 301
f 246 301 300
f 246 300 264
f 246 264 263
f 246 263 262
f 246 262 261
f 246 261 310
f 246 310 355
f 246 355 344
f 246 344 298
f 246 298 247
f 248 265 249
f 249 299 250
f 249 266 300
f 249 300 301
f 249 301 302
f 249 302 299
f 250 299 251
f 251 299 303
f 251 303 304
f 251 304 305
f 251 305 252
f 252 306 253
f 252 305 306
f 253 306 272
f 254 256 255
f 257 307 308
f 257 308 258
f 258 308 261
f 258 261 260
f 259 263 264
f 261 308 309
f 261 309 310
f 264 300 266
f 267 272 311
f 267 311 269
f 269 311 312
f 269 312 270
f 270 313 314
f 270 314 271
f 270 312 315
f 270 315 316
f 270 316 313
f 271 314 273
f 272 306 317
f 272 317 311
f 273 314 318
f 273 318 274
f 274 319 275
f 274 318 320
f 274 320 319
f 275 319 276
f 276 319 321
f 276 321 277
f 277 321 322
f 277 322 323
f 277 323 283
f 277 283 278
f 279 281 324
f 279 324 285
f 280 282 325
f 280 325 281
f 281 325 324
f 282 284 326
f 282 326 327
f 282 327 325
f 283 323 328
f 283 328 329
f 283 329 330
f 283 330 331
f 283 331 284
f 284 331 365
f 284 365 326
f 285 324 332
f 285 332 287
f 286 288 333
f 286 333 334
f 286 334 291
f 287 332 335
f 287 335 288
f 288 335 375
f 288 375 333
f 289 291 336
f 289 336 337
f 289 337 338
f 289 338 339
f 289 339 340
f 289 340 290
f 290 340 293
f 290 293 292
f 291 334 341
f 291 341 336
f 293 340 294
f 296 340 339
f 297 342 383
f 297 383 343
f 298 344 345
f 299 302 346
f 299 346 303
f 303 347 304
f 304 347 305
f 305 347 348
f 305 348 349
f 305 349 350
f 305 350 351
f 305 351 306
f 306 352 317
f 306 351 352
f 307 353 308
f 308 353 354
f 308 354 344
f 308 344 355
f 308 355 309
f 309 355 310
f 311 317 352
f 311 352 356
f 311 356 312
f 312 356 315
f 313 357 318
f 313 318 314
f 313 316 358
f 313 358 357
f 315 356 390
f 315 390 359
f 315 359 358
f 315 358 316
f 318 357 320
f 319 320 360
f 319 360 321
f 320 357 361
f 320 361 362
f 320 362 360
f 321 360 322
f 322 360 323
f 323 360 362
f 323 362 328
f 324 325 363
f 324 363 332
f 325 327 364
f 325 364 363
f 326 365 402
f 326 402 366
f 326 366 327
f 327 366 367
f 327 367 368
f 327 368 364
f 328 362 369
f 328 369 329
f 329 369 370
f 329 370 371
f 329 371 330
f 330 371 331
f 331 371 372
f 331 372 365
f 332 363 373
f 332 373 376
f 332 376 335
f 333 374 334
f 333 375 414
f 333 414 374
f 334 374 341
f 335 376 415
f 335 415 375
f 336 377 337
f 336 341 378
f 336 378 377
f 341 374 379
f 341 379 380
f 341 380 381
f 341 381 378
f 342 382 383
f 343 383 384
f 344 354 345
f 347 385 349
f 347 349 348
f 349 385 386
f 349 386 350
f 350 386 387
f 350 387 388
f 350 388 351
f 351 388 389
f 351 389 352
f 352 390 356
f 352 389 390
f 357 358 391
f 357 391 392
f 357 392 393
f 357 393 361
f 358 392 391
f 358 359 394
f 358 394 395
f 358 395 392
f 359 390 396
f 359 396 397
f 359 397 398
f 359 398 394
f 361 393 399
f 361 399 362
f 362 399 369
f 363 364 368
f 363 368 400
f 363 400 401
f 363 401 373
f 365 372 403
f 365 403 404
f 365 404 402
f 366 402 367
f 367 402 404
f 367 404 405
f 367 405 406
f 367 406 407
f 367 407 408
f 367 408 409
f 367 409 368
f 368 409 400
f 369 399 435
f 369 435 410
f 369 410 370
f 370 410 411
f 370 411 412
f 370 412 371
f 371 403 372
f 371 412 413
f 371 413 403
f 373 401 376
f 374 414 379
f 375 415 414
f 376 401 409
f 376 409 444
f 376 444 415
f 379 416 380
f 379 414 417
f 379 417 418
f 379 418 416
f 382 419 420
f 382 420 383
f 383 420 421
f 383 421 422
f 383 422 384
f 384 422 423
f 386 424 387
f 387 424 388
f 388 425 389
f 388 424 426
f 388 426 427
f 388 427 425
f 389 425 396
f 389 396 390
f 392 428 393
f 392 395 429
f 392 429 428
f 393 428 399
f 394 398 430
f 394 430 395
f 395 430 431
f 395 431 432
f 395 432 429
f 396 425 433
f 396 433 397
f 397 433 398
f 398 433 425
f 398 425 427
f 398 427 434
f 398 434 430
f 399 428 435
f 400 409 401
f 403 413 412
f 403 412 436
f 403 436 437
f 403 437 438
f 403 438 404
f 404 438 439
f 404 439 405
f 405 439 440
f 405 440 406
f 406 440 471
f 406 471 441
f 406 441 442
f 406 442 407
f 407 442 408
f 408 442 409
f 409 442 443
f 409 443 444
f 410 435 445
f 410 445 411
f 411 445 474
f 411 474 446
f 411 446 447
f 411 447 412
f 412 447 468
f 412 468 436
f 414 415 448
f 414 448 449
f 414 449 417
f 415 444 450
f 415 450 448
f 417 449 451
f 417 451 418
f 419 452 420
f 420 452 453
f 420 453 454
f 420 454 421
f 421 454 455
f 421 455 422
f 422 456 423
f 422 455 456
f 423 456 458
f 423 458 457
f 428 429 432
f 428 432 435
f 430 434 459
f 430 459 460
f 430 460 461
f 430 461 431
f 431 461 432
f 432 462 463
f 432 463 435
f 432 461 460
f 432 460 464
f 432 464 465
f 432 465 462
f 435 463 462
f 435 462 445
f 436 466 467
f 436 467 437
f 436 468 494
f 436 494 466
f 437 467 438
f 438 467 439
f 439 467 440
f 440 467 469
f 440 469 470
f 440 470 471
f 441 471 472
f 441 472 442
f 442 472 473
f 442 473 450
f 442 450 443
f 443 450 444
f 445 462 474
f 446 474 475
f 446 475 476
f 446 476 477
f 446 477 478
f 446 478 447
f 447 478 479
f 447 479 480
f 447 480 468
f 448 450 481
f 448 481 449
f 449 482 483
f 449 483 484
f 449 484 451
f 449 481 485
f 449 485 486
f 449 486 482
f 450 473 487
f 450 487 481
f 452 488 453
f 453 488 518
f 453 518 489
f 453 489 490
f 453 490 454
f 454 490 455
f 455 470 491
f 455 491 456
f 455 490 471
f 455 471 470
f 456 491 470
f 456 470 458
f 457 458 492
f 458 470 493
f 458 493 494
f 458 494 495
f 458 495 496
f 458 496 497
f 458 497 492
f 459 498 460
f 460 498 464
f 462 465 464
f 462 464 499
f 462 499 500
f 462 500 475
f 462 475 474
f 464 498 501
f 464 501 502
f 464 502 503
f 464 503 499
f 466 504 467
f 466 494 493
f 466 493 504
f 467 504 469
f 468 480 495
f 468 495 494
f 469 504 470
f 470 504 493
f 471 490 472
f 472 490 505
f 472 505 506
f 472 506 507
f 472 507 473
f 473 507 508
f 473 508 487
f 475 500 476
f 476 500 509
f 476 509 510
f 476 510 477
f 477 510 478
f 478 510 511
f 478 511 512
f 478 512 513
f 478 513 479
f 479 513 514
f 479 514 480
f 480 514 515
f 480 515 496
f 480 496 495
f 481 487 508
f 481 508 507
f 481 507 516
f 481 516 485
f 485 516 517
f 485 517 486
f 489 518 519
f 489 519 505
f 489 505 490
f 499 503 509
f 499 509 500
f 505 519 520
f 505 520 506
f 506 520 517
f 506 517 507
f 507 517 516
f 509 511 510
