v -1.00853181 0.10998702 0.00098628
v -1.00857890 0.10998702 0.01002881
v -1.00688565 0.12097398 0.00098628
v -1.00641525 0.10295773 0.00098628
v -1.00382841 0.09437294 0.01002881
v -1.00364029 0.09462890 0.03000155
v -1.00820255 0.10998702 0.03000155
v -1.00519240 0.12999195 0.03000155
v -1.00552166 0.12999195 0.01002881
v -1.00552166 0.12999195 0.00098628
v -1.00378132 0.09439263 0.00098628
v -0.99550331 0.08439016 0.00098628
v -0.99550331 0.08439016 0.01002881
v -1.00321698 0.09516053 0.05000474
v -0.99526811 0.08462644 0.03000155
v -1.00740302 0.10998702 0.05000474
v -1.00448692 0.12999195 0.05000474
v -1.00030077 0.14032915 0.05000474
v -1.00063002 0.14070326 0.03000155
v -1.00077116 0.14086077 0.01002881
v -1.00293469 0.13595799 0.00098628
v -0.99103498 0.08035373 0.00098628
v -0.98553199 0.07549033 0.01002881
v -1.00260544 0.09596781 0.07000794
v -0.99479777 0.08515806 0.05000474
v -0.98524976 0.07568723 0.03000155
v -0.98482645 0.07604165 0.05000474
v -1.00185299 0.09705076 0.09001113
v -1.00618005 0.10998702 0.07000794
v -1.00274658 0.12766854 0.09001113
v -1.00284064 0.13146868 0.06854652
v -1.00001860 0.14005348 0.06087406
v -0.98863626 0.14531069 0.09001113
v -0.99164647 0.14438526 0.06854652
v -0.98995322 0.14586201 0.05000474
v -0.98995322 0.14627549 0.03000155
v -0.98995322 0.14645270 0.01002881
v -0.99592662 0.14340076 0.00098628
v -1.00077116 0.14088047 0.00098628
v -0.98553199 0.07547064 0.00098628
v -0.97866493 0.06997716 0.00098628
v -0.97302079 0.06548786 0.01002881
v -0.99418634 0.08596535 0.07000794
v -0.98416799 0.07655358 0.07000794
v -0.97273862 0.06568477 0.03000155
v -0.97231531 0.06603918 0.05000474
v -1.00091219 0.09850781 0.11001432
v -0.99333972 0.08704829 0.09001113
v -1.00462794 0.10998702 0.09001113
v -1.00063002 0.12187972 0.13001750
v -1.00175881 0.12518762 0.11001432
v -1.00025380 0.09955138 0.12210148
v -0.99865460 0.13767101 0.09001113
v -0.99945420 0.13912806 0.07420952
v -0.98506165 0.14414898 0.15002069
v -0.98637861 0.14473969 0.13001750
v -0.98755443 0.14509410 0.11001432
v -0.96996355 0.15013471 0.15002069
v -0.96996355 0.15070572 0.13001750
v -0.98995322 0.14647239 0.00098628
v -0.96996355 0.15088293 0.11001432
v -0.97302079 0.06546817 0.00098628
v -0.96300244 0.05761191 0.01002881
v -0.98332137 0.07722304 0.09001113
v -0.98233366 0.07803033 0.11001432
v -0.97165680 0.06655112 0.07000794
v -0.94009674 0.03993038 0.02293803
v -0.96272027 0.05782849 0.03000155
v -0.93986154 0.04010759 0.03627349
v -0.96229696 0.05816322 0.05000474
v -0.99235201 0.08850534 0.11001432
v -0.98115778 0.07901482 0.13001750
v -1.00269961 0.10998702 0.11001432
v -0.99997157 0.11987135 0.14009522
v -0.99997157 0.12002887 0.14009522
v -0.99550331 0.12800327 0.14807214
v -0.99634993 0.13188219 0.13001750
v -0.99752575 0.13519008 0.11001432
v -0.99936008 0.10652160 0.13543694
v -1.00063002 0.11191663 0.12925635
v -0.97932345 0.08053094 0.15580548
v -0.98684895 0.08830845 0.14950311
v -0.98670787 0.09157697 0.16999345
v -0.98496759 0.09330969 0.18999663
v -0.98299211 0.09561340 0.20999981
v -0.98129886 0.09795649 0.22598410
v -0.99094093 0.10998702 0.18999663
v -0.99446851 0.10998702 0.16999345
v -0.98200440 0.14198309 0.18999663
v -0.98360360 0.14326294 0.16999345
v -0.96996355 0.14775223 0.18999663
v -0.96996355 0.14918959 0.16999345
v -0.94997394 0.14997719 0.24997576
v -0.94997394 0.15078448 0.22997257
v -0.96996355 0.15080416 0.09001113
v -0.96996355 0.15015441 0.00098628
v -0.94997394 0.15078448 0.20999981
v -0.92998427 0.15064666 0.28998214
v -0.96300244 0.05759222 0.00098628
v -0.95599437 0.05209874 0.00098628
v -0.92998427 0.03183784 0.01002881
v -0.97081017 0.06722058 0.09001113
v -0.96812922 0.06666926 0.10931405
v -0.96163845 0.05867516 0.07000794
v -0.91714388 0.02222917 0.03000155
v -0.93191272 0.03372806 0.02975799
v -0.94804549 0.04632960 0.02975799
v -0.90740776 0.01425476 0.01002881
v -0.90712553 0.01443197 0.03000155
v -0.92951393 0.03258605 0.05000474
v -0.90670222 0.01480608 0.05000474
v -0.98031116 0.07968427 0.14247003
v -0.95947492 0.06038818 0.11549464
v -0.96996355 0.07013468 0.13001750
v -0.99804318 0.11191663 0.14807214
v -0.98802483 0.12999195 0.18999663
v -0.99136424 0.12999195 0.16999345
v -0.98045224 0.12150561 0.24202928
v -0.98186326 0.12524669 0.22997257
v -0.98078150 0.14082140 0.20409325
v -0.97160977 0.07360010 0.14950311
v -0.96817625 0.07348196 0.16999345
v -0.97819459 0.08157451 0.16999345
v -0.97636026 0.08332691 0.18999663
v -0.97433782 0.08561093 0.20999981
v -0.96577752 0.09267960 0.26997894
v -0.96295547 0.09592844 0.28998214
v -0.97979379 0.10146129 0.23931956
v -0.95891047 0.08086567 0.25597367
v -0.98703706 0.10998702 0.20999981
v -0.96521312 0.14407022 0.24997576
v -0.96765888 0.14499566 0.22997257
v -0.94997394 0.14822480 0.26997894
v -0.92998427 0.15017408 0.30998534
v -0.95241976 0.14456248 0.00098628
v -0.90999466 0.14806727 0.31202522
v -0.92307019 0.02642312 0.00098628
v -0.96079183 0.05934462 0.09001113
v -0.96022743 0.05979748 0.10215919
v -0.94997394 0.04957843 0.07000794
v -0.94997394 0.05089765 0.09001113
v -0.90740776 0.01423507 0.00098628
v -0.90021145 0.00874159 0.00098628
v -0.89428514 0.00425230 0.01002881
v -0.89405000 0.00444920 0.03000155
v -0.92885548 0.03311768 0.07000794
v -0.89353257 0.00480361 0.05000474
v -0.90599674 0.01533771 0.07000794
v -0.91601503 0.02311521 0.07000794
v -0.95853424 0.06111671 0.13001750
v -0.90406829 0.01685383 0.11001432
v -0.98369765 0.13129148 0.21045652
v -0.97927642 0.13883272 0.21742871
v -0.98045224 0.11479136 0.24202928
v -0.97273862 0.10998702 0.26997894
v -0.96695340 0.10998702 0.28998214
v -0.96163845 0.12445909 0.30490080
v -0.96380210 0.13068110 0.29001260
v -0.96963435 0.12999195 0.26997894
v -0.97546661 0.12888932 0.24921459
v -0.97767723 0.13524915 0.22997257
v -0.96098000 0.14097890 0.28337529
v -0.96272027 0.14247534 0.26997894
v -0.95707613 0.06221934 0.15002069
v -0.96638894 0.07487994 0.18999663
v -0.95542991 0.06347949 0.16999345
v -0.96436650 0.07647482 0.20999981
v -0.96215588 0.07824691 0.22997257
v -0.96065074 0.07944800 0.24263820
v -0.95693505 0.08267714 0.26997894
v -0.96093297 0.09852751 0.30295223
v -0.95397186 0.08592597 0.28998214
v -0.97805351 0.10886469 0.24921459
v -0.98228657 0.10886469 0.23158622
v -0.95133793 0.07367886 0.24957995
v -0.94696373 0.07458460 0.26997894
v -0.94395351 0.07684893 0.28998214
v -0.94635230 0.14440495 0.30998534
v -0.92998427 0.14997719 0.31202522
v -0.89630765 0.14229813 0.31202522
v -0.52812195 -0.05022964 0.31202522
v -0.60878599 -0.05022964 0.00098628
v -0.93798018 0.04156464 0.09001113
v -0.90515012 0.01602685 0.09001113
v -0.89428514 0.00425230 0.00098628
v -0.88426679 -0.00313141 0.01002881
v -0.88403165 -0.00295420 0.03000155
v -0.88356131 -0.00261948 0.05000474
v -0.89282709 0.00533524 0.07000794
v -0.91276968 0.02563552 0.13001750
v -0.89188635 0.00602439 0.09001113
v -0.89075756 0.00687105 0.11001432
v -0.88008076 -0.00007948 0.12082274
v -0.90275133 0.01787770 0.13001750
v -0.96192068 0.10998702 0.30590552
v -0.95989823 0.10998702 0.31202522
v -0.95637059 0.13064173 0.31202522
v -0.95674688 0.13068110 0.31092915
v -0.95872235 0.13778916 0.29671076
v -0.94602305 0.14422774 0.31202522
v -0.90124625 0.01903941 0.15002069
v -0.95359558 0.06487748 0.18999663
v -0.90025854 0.01978762 0.16162072
v -0.89903563 0.02071305 0.17495617
v -0.95147902 0.06647236 0.20999981
v -0.94813961 0.06720088 0.22863293
v -0.90613782 0.03524419 0.22997257
v -0.90364498 0.03719348 0.24997576
v -0.94160181 0.07869978 0.30496168
v -0.94042593 0.07962520 0.31202522
v -0.95928675 0.10654129 0.31202522
v -0.94823366 0.08787527 0.31202522
v -0.94987988 0.08970644 0.31202522
v -0.93393517 0.06458212 0.26997894
v -0.89964706 0.04026511 0.27880836
v -0.92899656 0.06564538 0.29126087
v -0.75821447 -0.05022964 0.31202522
v -0.81724268 -0.05022964 0.00098628
v -0.88426679 -0.00313141 0.00098628
v -0.87674129 -0.00862489 0.00098628
v -0.87053275 -0.01313388 0.01002881
v -0.87029755 -0.01295667 0.03000155
v -0.86009109 -0.02008441 0.04208872
v -0.88280874 -0.00208785 0.07000794
v -0.86803991 -0.01398055 0.04927403
v -0.85971481 -0.01978906 0.05542418
v -0.86996835 -0.01149962 0.07000794
v -0.88191509 -0.00141839 0.09001113
v -0.88078624 -0.00059142 0.11001432
v -0.87914002 0.00064905 0.13412775
v -0.88802958 0.00667415 0.12849519
v -0.85708088 -0.01789884 0.11001432
v -0.87147343 -0.00555327 0.12849519
v -0.95594728 0.13135055 0.31202522
v -0.88995796 0.01063182 0.15002069
v -0.89757752 0.02183537 0.18999663
v -0.87782311 0.00159416 0.15002069
v -0.87603575 0.00291338 0.16999345
v -0.89141607 0.01419569 0.16895826
v -0.88755924 0.01437290 0.18999663
v -0.94023782 0.05979748 0.22108226
v -0.89541399 0.02344994 0.20999981
v -0.89301521 0.02524172 0.22997257
v -0.88116252 0.01913786 0.24428231
v -0.88868803 0.02604901 0.25055423
v -0.90152848 0.03880806 0.26547289
v -0.91958970 0.06027004 0.29878110
v -0.93163049 0.07255653 0.31099004
v -0.93068981 0.07210366 0.31202522
v -0.89179230 0.03276326 0.27128813
v -0.87749386 0.02183537 0.26997894
v -0.87438959 0.02415878 0.28998214
v -0.89785975 0.04160402 0.28998214
v -0.76517558 -0.04570096 0.31202522
v -0.75906110 -0.05022964 0.30998534
v -0.81724268 -0.05022964 0.01002881
v -0.81808931 -0.04965863 0.00098628
v -0.87053275 -0.01313388 0.00098628
v -0.86601746 -0.01640240 0.00098628
v -0.86051440 -0.02037976 0.01002881
v -0.86027920 -0.02022224 0.03000155
v -0.84997869 -0.02750750 0.03000155
v -0.83553910 -0.03695865 0.05000474
v -0.85181302 -0.02561727 0.04927403
v -0.85915041 -0.01939526 0.07000794
v -0.84917909 -0.02646393 0.07000794
v -0.86996835 -0.01016071 0.09001113
v -0.85566986 -0.01687496 0.13001750
v -0.86780477 -0.00573048 0.15002069
v -0.85820973 -0.01872580 0.09001113
v -0.84823841 -0.02581417 0.09001113
v -0.84706253 -0.02498719 0.11001432
v -0.84565151 -0.02400270 0.13001750
v -0.87406033 0.00437044 0.18999663
v -0.86601746 -0.00441126 0.16999345
v -0.88539565 0.01598747 0.20999981
v -0.88299686 0.01775956 0.22997257
v -0.86827511 0.00673322 0.22912008
v -0.85877413 0.00088533 0.23520932
v -0.87156749 0.01334903 0.25055423
v -0.87932819 0.02049646 0.25761777
v -0.91775537 0.06166802 0.30998534
v -0.90778404 0.05406772 0.30998534
v -0.91742611 0.06194368 0.31202522
v -0.86752254 0.01447135 0.26997894
v -0.88450199 0.03666186 0.30998534
v -0.89452028 0.04408495 0.30998534
v -0.86437124 0.01677507 0.28998214
v -0.86183137 0.01866530 0.30514437
v -0.76795059 -0.04388949 0.31202522
v -0.76733917 -0.04481491 0.30998534
v -0.76630437 -0.05022964 0.29074329
v -0.81681943 -0.05022964 0.03000155
v -0.83619761 -0.03741152 0.01002881
v -0.82617927 -0.04418484 0.00098628
v -0.86051440 -0.02037976 0.00098628
v -0.84997869 -0.02780285 0.01002881
v -0.83596241 -0.03727369 0.03000155
v -0.83478653 -0.03646640 0.07000794
v -0.81625497 -0.05022964 0.04281943
v -0.81592572 -0.05022964 0.05000474
v -0.82481527 -0.04323973 0.07000794
v -0.85402364 -0.01573294 0.15002069
v -0.84405231 -0.02286068 0.15002069
v -0.83384585 -0.03581663 0.09001113
v -0.83262300 -0.03498966 0.11001432
v -0.83121192 -0.03400517 0.13001750
v -0.87184972 0.00598501 0.20999981
v -0.86404198 -0.00295420 0.18999663
v -0.86183137 -0.00135932 0.20999981
v -0.85218930 -0.01441372 0.16999345
v -0.86046737 -0.00033545 0.22190431
v -0.85124862 -0.00557296 0.22912008
v -0.83520985 -0.01669775 0.22997257
v -0.84673333 -0.00476567 0.24997576
v -0.85670459 0.00234238 0.24997576
v -0.90844250 0.05511129 0.31202522
v -0.85378850 0.00446888 0.26997894
v -0.86060846 0.01955134 0.31202522
v -0.88412571 0.03691783 0.31202522
v -0.89395589 0.04424247 0.31202522
v -0.84889692 0.00572904 0.29068238
v -0.83920777 0.00053091 0.29780680
v -0.85167193 0.01285678 0.31108141
v -0.80209762 -0.02142332 0.31202522
v -0.77947402 -0.03965616 0.29856798
v -0.78911608 -0.03510780 0.29113910
v -0.78187281 -0.04123136 0.28523251
v -0.77359474 -0.05022964 0.26946136
v -0.84240615 -0.03307974 0.00098628
v -0.83615053 -0.03741152 0.00098628
v -0.85472918 -0.02445557 0.00098628
v -0.84997869 -0.02778316 0.00098628
v -0.81503206 -0.05022964 0.06221370
v -0.81442064 -0.05022964 0.07009927
v -0.81291556 -0.05022964 0.08608356
v -0.81253928 -0.05022964 0.09001113
v -0.84217095 -0.02154146 0.16999345
v -0.82029992 -0.04020748 0.14173931
v -0.82815468 -0.03392641 0.14904642
v -0.82998908 -0.02994905 0.16999345
v -0.82265168 -0.04180236 0.11001432
v -0.82119358 -0.04083756 0.13001750
v -0.84080696 -0.02057666 0.18381605
v -0.84847361 -0.01409868 0.19027065
v -0.83934891 -0.01955278 0.19712105
v -0.84997869 -0.00984567 0.20999981
v -0.83779675 -0.01848953 0.20999981
v -0.83238780 -0.01476814 0.24997576
v -0.82519156 -0.02354983 0.22997257
v -0.79941666 -0.03963648 0.23801038
v -0.82236946 -0.02163991 0.24997576
v -0.84377015 -0.00265886 0.26997894
v -0.84146547 -0.00104428 0.28447136
v -0.85143673 0.01295523 0.31202522
v -0.83154118 -0.00647869 0.29068238
v -0.81606686 -0.01730814 0.28998214
v -0.81249225 -0.01482721 0.30998534
v -0.83699715 0.00208641 0.30998534
v -0.81202191 -0.01461062 0.31202522
v -0.80247390 -0.02167929 0.30998534
v -0.80609554 -0.02412084 0.28998214
v -0.79447806 -0.03636795 0.26997894
v -0.77975625 -0.05022964 0.24997576
v -0.81014049 -0.05022964 0.11001432
v -0.81145746 -0.04524809 0.14904642
v -0.81907707 -0.03938051 0.15507478
v -0.80999941 -0.04837879 0.13001750
v -0.80722439 -0.05022964 0.13001750
v -0.81761897 -0.03837632 0.16999345
v -0.80999941 -0.05022964 0.11101905
v -0.83158821 -0.02589293 0.19027065
v -0.81545538 -0.03693896 0.18999663
v -0.81310368 -0.03532439 0.20999981
v -0.82777846 -0.02532192 0.20999981
v -0.80125099 -0.04083756 0.22467491
v -0.82058215 -0.02041914 0.26197159
v -0.82834285 -0.01352768 0.26915690
v -0.80872947 -0.03463524 0.23079461
v -0.79165596 -0.04603569 0.23079461
v -0.78535336 -0.05022964 0.23049015
v -0.79762936 -0.03845508 0.24997576
v -0.80999941 -0.03008687 0.24997576
v -0.81851262 -0.01898178 0.27527660
v -0.83657384 0.00236207 0.31202522
v -0.82660258 -0.00456877 0.31202522
v -0.81108117 -0.02534162 0.26915690
v -0.80388492 -0.05022964 0.14947267
v -0.80760062 -0.04511026 0.16999345
v -0.80548412 -0.04367290 0.18999663
v -0.80313236 -0.04209771 0.20999981
v -0.79076231 -0.05022964 0.20999981
v -0.80190945 -0.05022964 0.15964171
v -0.79988700 -0.05022964 0.16999345
v -0.79546577 -0.05022964 0.19042288
v -0.79113859 -0.05022964 0.20850796
f 1 2 3
f 1 3 10
f 1 10 21
f 1 21 39
f 1 39 38
f 1 38 60
f 1 60 96
f 1 96 135
f 1 135 182
f 1 182 218
f 1 218 257
f 1 257 295
f 1 295 331
f 1 331 330
f 1 330 333
f 1 333 332
f 1 332 296
f 1 296 259
f 1 259 258
f 1 258 220
f 1 220 219
f 1 219 185
f 1 185 143
f 1 143 142
f 1 142 137
f 1 137 100
f 1 100 99
f 1 99 62
f 1 62 41
f 1 41 40
f 1 40 22
f 1 22 12
f 1 12 11
f 1 11 4
f 1 4 2
f 2 4 5
f 2 5 6
f 2 6 7
f 2 7 8
f 2 8 9
f 2 9 10
f 2 10 3
f 4 11 5
f 5 11 12
f 5 12 13
f 5 13 6
f 6 14 7
f 6 13 15
f 6 15 14
f 7 14 16
f 7 16 17
f 7 17 8
f 8 17 18
f 8 18 19
f 8 19 9
f 9 19 20
f 9 20 21
f 9 21 10
f 12 22 13
f 13 22 23
f 13 23 15
f 14 24 16
f 14 15 25
f 14 25 43
f 14 43 24
f 15 23 26
f 15 26 27
f 15 27 25
f 16 24 28
f 16 28 29
f 16 29 30
f 16 30 17
f 17 30 31
f 17 31 32
f 17 32 18
f 18 32 33
f 18 33 34
f 18 34 35
f 18 35 19
f 19 35 36
f 19 36 20
f 20 36 37
f 20 37 38
f 20 38 39
f 20 39 21
f 22 40 23
f 23 40 41
f 23 41 42
f 23 42 45
f 23 45 26
f 24 43 28
f 25 27 44
f 25 44 43
f 26 45 46
f 26 46 27
f 27 46 66
f 27 66 44
f 28 47 29
f 28 43 48
f 28 48 47
f 29 49 50
f 29 50 51
f 29 51 30
f 29 47 52
f 29 52 49
f 30 51 53
f 30 53 54
f 30 54 31
f 31 54 32
f 32 54 55
f 32 55 56
f 32 56 57
f 32 57 33
f 33 35 34
f 33 57 58
f 33 58 59
f 33 59 35
f 35 59 36
f 36 59 37
f 37 60 38
f 37 59 61
f 37 61 60
f 41 62 42
f 42 62 99
f 42 99 63
f 42 63 45
f 43 44 64
f 43 64 65
f 43 65 48
f 44 66 102
f 44 102 64
f 45 63 67
f 45 67 68
f 45 68 69
f 45 69 70
f 45 70 46
f 46 70 104
f 46 104 66
f 47 48 71
f 47 71 52
f 48 65 72
f 48 72 71
f 49 52 73
f 49 73 74
f 49 74 75
f 49 75 50
f 50 75 76
f 50 76 77
f 50 77 78
f 50 78 51
f 51 78 53
f 52 79 80
f 52 80 73
f 52 71 81
f 52 81 82
f 52 82 83
f 52 83 84
f 52 84 85
f 52 85 86
f 52 86 87
f 52 87 88
f 52 88 79
f 53 78 89
f 53 89 90
f 53 90 54
f 54 90 55
f 55 90 91
f 55 91 92
f 55 92 56
f 56 92 58
f 56 58 57
f 58 92 93
f 58 93 94
f 58 94 59
f 59 94 61
f 60 61 95
f 60 95 96
f 61 94 97
f 61 97 98
f 61 98 95
f 63 99 100
f 63 100 101
f 63 101 67
f 64 102 65
f 65 102 103
f 65 103 72
f 66 104 138
f 66 138 102
f 67 105 106
f 67 106 69
f 67 69 107
f 67 107 68
f 67 101 108
f 67 108 109
f 67 109 105
f 68 107 69
f 69 110 70
f 69 106 105
f 69 105 109
f 69 109 111
f 69 111 110
f 70 110 104
f 71 72 112
f 71 112 81
f 72 103 113
f 72 113 114
f 72 114 112
f 73 80 74
f 74 80 79
f 74 79 115
f 74 115 88
f 74 88 87
f 74 87 75
f 75 116 117
f 75 117 76
f 75 87 118
f 75 118 119
f 75 119 116
f 76 117 77
f 77 117 120
f 77 120 78
f 78 120 89
f 79 88 115
f 81 112 121
f 81 121 122
f 81 122 123
f 81 123 82
f 82 123 83
f 83 123 84
f 84 123 124
f 84 124 85
f 85 124 125
f 85 125 86
f 86 126 127
f 86 127 128
f 86 128 87
f 86 125 129
f 86 129 126
f 87 130 118
f 87 128 130
f 89 120 131
f 89 131 132
f 89 132 90
f 90 132 91
f 91 132 133
f 91 133 93
f 91 93 92
f 93 133 134
f 93 134 94
f 94 134 98
f 94 98 97
f 95 98 96
f 96 98 136
f 96 136 135
f 98 134 136
f 100 137 101
f 101 137 108
f 102 138 139
f 102 139 103
f 103 139 113
f 104 110 140
f 104 140 141
f 104 141 138
f 108 142 143
f 108 143 144
f 108 144 145
f 108 145 109
f 108 137 142
f 109 145 111
f 110 146 140
f 110 111 146
f 111 145 147
f 111 147 189
f 111 189 148
f 111 148 149
f 111 149 146
f 112 114 121
f 113 150 114
f 113 139 151
f 113 151 150
f 114 150 121
f 116 119 152
f 116 152 153
f 116 153 120
f 116 120 117
f 118 154 155
f 118 155 156
f 118 156 157
f 118 157 158
f 118 158 159
f 118 159 160
f 118 160 161
f 118 161 153
f 118 153 119
f 118 130 154
f 119 153 152
f 120 153 162
f 120 162 163
f 120 163 131
f 121 150 164
f 121 164 122
f 122 165 123
f 122 164 166
f 122 166 165
f 123 165 124
f 124 165 167
f 124 167 168
f 124 168 169
f 124 169 125
f 125 169 129
f 126 129 170
f 126 170 127
f 127 171 128
f 127 170 172
f 127 172 171
f 128 155 173
f 128 173 154
f 128 154 174
f 128 174 130
f 128 171 155
f 129 175 176
f 129 176 177
f 129 177 170
f 129 169 175
f 130 174 154
f 131 163 133
f 131 133 132
f 133 178 179
f 133 179 134
f 133 163 178
f 134 179 136
f 135 136 180
f 135 180 181
f 135 181 182
f 136 179 200
f 136 200 234
f 136 234 197
f 136 197 196
f 136 196 211
f 136 211 213
f 136 213 212
f 136 212 210
f 136 210 249
f 136 249 284
f 136 284 317
f 136 317 321
f 136 321 320
f 136 320 319
f 136 319 355
f 136 355 385
f 136 385 386
f 136 386 360
f 136 360 325
f 136 325 290
f 136 290 254
f 136 254 217
f 136 217 181
f 136 181 180
f 138 141 139
f 139 141 183
f 139 183 184
f 139 184 151
f 140 146 141
f 141 146 149
f 141 149 183
f 143 185 144
f 144 185 219
f 144 219 186
f 144 186 187
f 144 187 145
f 145 187 188
f 145 188 147
f 147 188 189
f 148 189 184
f 148 184 149
f 149 184 183
f 150 151 190
f 150 190 164
f 151 184 191
f 151 191 192
f 151 192 193
f 151 193 194
f 151 194 190
f 153 161 162
f 154 173 155
f 155 171 156
f 156 171 195
f 156 195 157
f 157 195 196
f 157 196 197
f 157 197 198
f 157 198 199
f 157 199 158
f 158 199 162
f 158 162 159
f 159 162 161
f 159 161 160
f 162 199 200
f 162 200 163
f 163 200 178
f 164 190 194
f 164 194 201
f 164 201 166
f 165 166 202
f 165 202 167
f 166 201 203
f 166 203 204
f 166 204 202
f 167 202 205
f 167 205 168
f 168 205 206
f 168 206 169
f 169 206 207
f 169 207 208
f 169 208 175
f 170 177 209
f 170 209 210
f 170 210 172
f 171 211 196
f 171 196 195
f 171 172 212
f 171 212 213
f 171 213 211
f 172 210 212
f 175 214 176
f 175 208 214
f 176 214 215
f 176 215 216
f 176 216 177
f 177 216 209
f 178 200 179
f 181 217 255
f 181 255 292
f 181 292 329
f 181 329 364
f 181 364 381
f 181 381 392
f 181 392 396
f 181 396 395
f 181 395 394
f 181 394 393
f 181 393 388
f 181 388 369
f 181 369 371
f 181 371 365
f 181 365 337
f 181 337 336
f 181 336 335
f 181 335 334
f 181 334 301
f 181 301 300
f 181 300 293
f 181 293 256
f 181 256 218
f 181 218 182
f 184 189 191
f 186 219 220
f 186 220 221
f 186 221 222
f 186 222 187
f 187 222 223
f 187 223 188
f 188 224 189
f 188 223 225
f 188 225 226
f 188 226 227
f 188 227 224
f 189 224 228
f 189 228 191
f 191 228 229
f 191 229 192
f 192 229 193
f 193 230 231
f 193 231 194
f 193 229 232
f 193 232 233
f 193 233 230
f 194 231 230
f 194 230 201
f 197 234 199
f 197 199 198
f 199 234 200
f 201 230 235
f 201 235 203
f 202 204 236
f 202 236 205
f 203 235 237
f 203 237 238
f 203 238 239
f 203 239 204
f 204 239 238
f 204 238 240
f 204 240 236
f 205 241 206
f 205 236 242
f 205 242 241
f 206 241 242
f 206 242 207
f 207 242 243
f 207 243 208
f 208 243 244
f 208 244 245
f 208 245 246
f 208 246 214
f 209 216 247
f 209 247 248
f 209 248 210
f 210 248 249
f 214 246 215
f 215 246 250
f 215 250 251
f 215 251 252
f 215 252 253
f 215 253 247
f 215 247 216
f 217 254 255
f 218 256 257
f 220 258 221
f 221 258 259
f 221 259 260
f 221 260 261
f 221 261 222
f 222 261 223
f 223 226 225
f 223 261 262
f 223 262 263
f 223 263 264
f 223 264 226
f 224 227 228
f 226 265 227
f 226 264 266
f 226 266 265
f 227 265 267
f 227 267 228
f 228 267 229
f 229 267 232
f 230 237 235
f 230 233 268
f 230 268 269
f 230 269 237
f 232 267 270
f 232 270 271
f 232 271 272
f 232 272 273
f 232 273 268
f 232 268 233
f 236 240 276
f 236 276 242
f 237 269 275
f 237 275 238
f 238 274 240
f 238 275 309
f 238 309 274
f 240 274 276
f 242 276 277
f 242 277 243
f 243 277 244
f 244 277 278
f 244 278 279
f 244 279 280
f 244 280 281
f 244 281 245
f 245 281 246
f 246 281 250
f 247 282 248
f 247 253 283
f 247 283 282
f 248 282 249
f 249 282 284
f 250 281 251
f 251 281 285
f 251 285 252
f 252 286 287
f 252 287 253
f 252 285 288
f 252 288 289
f 252 289 286
f 253 287 283
f 254 290 255
f 255 290 291
f 255 291 292
f 256 293 294
f 256 294 257
f 257 294 295
f 259 296 260
f 260 296 297
f 260 297 262
f 260 262 261
f 262 297 294
f 262 294 298
f 262 298 263
f 263 299 266
f 263 266 264
f 263 298 300
f 263 300 301
f 263 301 302
f 263 302 299
f 265 270 267
f 265 266 271
f 265 271 270
f 266 299 305
f 266 305 271
f 268 303 269
f 268 273 304
f 268 304 303
f 269 303 275
f 271 305 272
f 272 305 306
f 272 306 307
f 272 307 273
f 273 307 304
f 274 308 276
f 274 309 310
f 274 310 308
f 275 303 311
f 275 311 309
f 276 308 312
f 276 312 277
f 277 312 278
f 278 312 279
f 279 312 313
f 279 313 314
f 279 314 315
f 279 315 316
f 279 316 280
f 280 316 281
f 281 316 285
f 282 283 284
f 283 287 317
f 283 317 284
f 285 316 318
f 285 318 288
f 286 289 319
f 286 319 320
f 286 320 287
f 287 321 317
f 287 320 321
f 288 318 322
f 288 322 289
f 289 322 323
f 289 323 324
f 289 324 319
f 290 325 291
f 291 326 292
f 291 325 326
f 292 326 327
f 292 327 328
f 292 328 329
f 293 300 298
f 293 298 294
f 294 297 330
f 294 330 331
f 294 331 295
f 296 332 297
f 297 333 330
f 297 332 333
f 299 302 305
f 301 334 302
f 302 334 335
f 302 335 336
f 302 336 337
f 302 337 305
f 303 304 311
f 304 338 311
f 304 307 339
f 304 339 340
f 304 340 341
f 304 341 338
f 305 337 342
f 305 342 306
f 306 342 307
f 307 342 343
f 307 343 339
f 308 310 312
f 309 311 344
f 309 344 345
f 309 345 310
f 310 345 346
f 310 346 347
f 310 347 312
f 311 338 344
f 312 347 348
f 312 348 313
f 313 348 314
f 314 349 315
f 314 348 350
f 314 350 351
f 314 351 352
f 314 352 349
f 315 349 353
f 315 353 318
f 315 318 316
f 318 353 354
f 318 354 322
f 319 324 355
f 322 354 323
f 323 354 356
f 323 356 357
f 323 357 358
f 323 358 359
f 323 359 324
f 324 359 355
f 325 360 358
f 325 358 361
f 325 361 326
f 326 361 327
f 327 361 362
f 327 362 363
f 327 363 328
f 328 363 329
f 329 363 364
f 337 365 342
f 338 341 344
f 339 366 367
f 339 367 340
f 339 343 368
f 339 368 369
f 339 369 366
f 340 367 341
f 341 367 370
f 341 370 344
f 342 365 371
f 342 371 343
f 343 371 368
f 344 372 346
f 344 346 345
f 344 370 373
f 344 373 372
f 346 372 373
f 346 373 374
f 346 374 375
f 346 375 348
f 346 348 347
f 348 375 376
f 348 376 350
f 349 352 377
f 349 377 378
f 349 378 353
f 350 376 379
f 350 379 351
f 351 376 380
f 351 380 381
f 351 381 364
f 351 364 382
f 351 382 383
f 351 383 352
f 351 379 376
f 352 383 377
f 353 378 384
f 353 384 354
f 354 384 356
f 355 359 385
f 356 384 357
f 357 384 362
f 357 362 361
f 357 361 358
f 358 360 386
f 358 386 359
f 359 386 385
f 362 384 363
f 363 384 387
f 363 387 382
f 363 382 364
f 366 369 388
f 366 388 389
f 366 389 367
f 367 389 370
f 368 371 369
f 370 389 390
f 370 390 373
f 373 390 391
f 373 391 374
f 374 391 376
f 374 376 375
f 376 392 381
f 376 381 380
f 376 391 392
f 377 384 378
f 377 383 382
f 377 382 387
f 377 387 384
f 388 393 389
f 389 393 394
f 389 394 390
f 390 394 395
f 390 395 391
f 391 395 396
f 391 396 392
