v 0.52746052 0.10998255 0.85666180
v 0.52746052 0.10663368 0.85627735
v 0.52746052 0.12806648 0.85422683
v 0.52131987 0.12217640 0.86076283
v 0.52109820 0.10998255 0.86063468
v 0.52014494 0.09983742 0.86005795
v 0.52746052 0.09172133 0.84807527
v 0.52746052 0.12995762 0.85339379
v 0.49358708 0.10998255 0.87639791
v 0.50999177 0.10998255 0.86704248
v 0.51644278 0.13551280 0.85768706
v 0.50985873 0.12930754 0.86422300
v 0.48296836 0.12432362 0.88165236
v 0.48356691 0.10998255 0.88197273
v 0.48179343 0.09853727 0.88094747
v 0.50999177 0.09625216 0.86300552
v 0.52717233 0.09162283 0.84820342
v 0.52746052 0.08147770 0.83833539
v 0.52746052 0.14120591 0.84621704
v 0.50309736 0.14150138 0.86165988
v 0.47784746 0.13766003 0.87864065
v 0.47070917 0.13058800 0.88549709
v 0.44395182 0.12524949 0.90202928
v 0.44497156 0.10998255 0.90254188
v 0.45496956 0.10998255 0.89728749
v 0.46999979 0.10998255 0.88927770
v 0.44268820 0.09796600 0.90132439
v 0.46999979 0.09477471 0.88408732
v 0.46999979 0.08478718 0.87518042
v 0.48904252 0.09018478 0.86941338
v 0.49631381 0.08181259 0.85781521
v 0.50999177 0.08624493 0.85377824
v 0.52085435 0.07956687 0.84051406
v 0.52746052 0.07592251 0.83115864
v 0.52746052 0.14282124 0.84448689
v 0.48999578 0.14362891 0.86524832
v 0.46452418 0.14195447 0.88229311
v 0.43856487 0.13858590 0.89914572
v 0.43113843 0.13115928 0.90580988
v 0.40376031 0.12454031 0.92170131
v 0.42998564 0.10998255 0.90997499
v 0.42998564 0.09424283 0.90446424
v 0.42998564 0.08425531 0.89568555
v 0.45007032 0.08955441 0.88998252
v 0.40240803 0.09832058 0.92106056
v 0.45745242 0.08116252 0.87864065
v 0.48299053 0.07868041 0.86165988
v 0.50999177 0.07714386 0.84378207
v 0.51001394 0.06658506 0.82923627
v 0.51668668 0.06144354 0.81789440
v 0.52746052 0.06392565 0.81443417
v 0.50985873 0.14498815 0.85063839
v 0.52746052 0.14780515 0.83256835
v 0.47070917 0.14552003 0.87120759
v 0.44998163 0.14408198 0.88607377
v 0.42524159 0.14207266 0.90241373
v 0.39764181 0.13787672 0.91875374
v 0.39059225 0.13072589 0.92477709
v 0.36172885 0.12197941 0.94066852
v 0.40462491 0.10998255 0.92208576
v 0.41460073 0.10998255 0.91740811
v 0.40996751 0.08967260 0.90991092
v 0.41750479 0.08102462 0.89876127
v 0.39001584 0.09491260 0.92381591
v 0.39001584 0.08490538 0.91510129
v 0.36033225 0.09977832 0.94009185
v 0.46999979 0.07594221 0.86518419
v 0.44412917 0.07826672 0.88210088
v 0.47132990 0.06502882 0.84986949
v 0.47888935 0.06043888 0.83936065
v 0.48977411 0.07344040 0.85070252
v 0.48999578 0.06278310 0.83602858
v 0.50334120 0.05852805 0.82205951
v 0.51001394 0.05348504 0.81071758
v 0.52746052 0.05695211 0.80450201
v 0.48999578 0.14949930 0.84999764
v 0.52746052 0.14855373 0.82994115
v 0.44998163 0.15003118 0.86999011
v 0.43113843 0.14571702 0.89145637
v 0.41001183 0.14416078 0.90587395
v 0.38429639 0.14158018 0.92170131
v 0.34151119 0.14055583 0.94054031
v 0.35483444 0.13531581 0.93765682
v 0.34891546 0.12918934 0.94271898
v 0.30382472 0.12357505 0.96123767
v 0.33000574 0.10998255 0.95252299
v 0.35000172 0.10998255 0.94508994
v 0.36152935 0.10998255 0.94060445
v 0.37154949 0.10998255 0.93643934
v 0.39001584 0.10998255 0.92855769
v 0.37593886 0.08155650 0.91824108
v 0.40420368 0.07840462 0.90190113
v 0.42998564 0.07548913 0.88568926
v 0.35000172 0.09702043 0.94207823
v 0.30207342 0.09891156 0.96066093
v 0.45352858 0.06256641 0.85640550
v 0.44882888 0.07042641 0.86934930
v 0.42998564 0.06548190 0.87268138
v 0.44020534 0.05990700 0.86005795
v 0.46556610 0.05774008 0.84307718
v 0.46082205 0.03967585 0.82045752
v 0.47414529 0.04237465 0.81661284
v 0.48999578 0.05567166 0.82603234
v 0.49123722 0.04485676 0.80994868
v 0.49875233 0.04054262 0.79918349
v 0.50999177 0.04298533 0.79559511
v 0.52746052 0.04672819 0.78963584
v 0.50999177 0.15089794 0.82994115
v 0.52746052 0.15085854 0.81251180
v 0.41001183 0.15010998 0.88998252
v 0.37001988 0.14944020 0.90997499
v 0.39059225 0.14536244 0.91125655
v 0.37001988 0.14355011 0.92458487
v 0.33000574 0.14221056 0.94246268
v 0.30100936 0.13966936 0.95374048
v 0.30100936 0.13444905 0.95752108
v 0.33000574 0.12999701 0.94925499
v 0.30100936 0.12485550 0.96162212
v 0.30100936 0.12081715 0.96219885
v 0.30100936 0.10998255 0.96251923
v 0.30442327 0.10998255 0.96142989
v 0.31442130 0.10998255 0.95803374
v 0.35000172 0.08701320 0.93349171
v 0.33000574 0.08258086 0.93727237
v 0.36259341 0.07911380 0.92099643
v 0.39001584 0.07588311 0.90510499
v 0.39196667 0.06473333 0.88979030
v 0.41052172 0.07249483 0.89126408
v 0.33000574 0.09256840 0.94579482
v 0.30100936 0.09869487 0.96078908
v 0.30100936 0.09780841 0.96008426
v 0.44811949 0.05563226 0.84986949
v 0.41001183 0.06179813 0.87755132
v 0.41001183 0.05437151 0.86755514
v 0.42998564 0.05801587 0.86262107
v 0.42918760 0.04747676 0.84858793
v 0.43530610 0.04176398 0.83750236
v 0.44998163 0.04464007 0.83346546
v 0.44998163 0.03750893 0.82346922
v 0.44244435 0.01903101 0.80136216
v 0.45578977 0.02169042 0.79751748
v 0.46849233 0.03544051 0.80994868
v 0.48540691 0.03772562 0.80328453
v 0.48957458 0.03018080 0.78969991
v 0.49376443 0.02263598 0.77605122
v 0.50999177 0.03616938 0.78559887
v 0.52238393 0.03892728 0.78156197
v 0.52746052 0.04485676 0.78688049
v 0.46999979 0.15095703 0.84999764
v 0.52746052 0.15054336 0.80994868
v 0.30100936 0.15003118 0.91894591
v 0.33000574 0.15064186 0.90997499
v 0.35000172 0.15095703 0.90997499
v 0.42998564 0.15097673 0.86999011
v 0.31000975 0.15032667 0.92996740
v 0.33000574 0.14798245 0.92996740
v 0.31000975 0.14435777 0.94585884
v 0.30100936 0.14455476 0.94810164
v 0.30100936 0.08819516 0.95181811
v 0.31827861 0.08051244 0.93938696
v 0.35000172 0.07712416 0.92349553
v 0.35077763 0.06607287 0.90907788
v 0.35796022 0.06061618 0.89914572
v 0.36955434 0.07349950 0.91093612
v 0.37001988 0.06254671 0.89658260
v 0.38660190 0.05775978 0.88293391
v 0.39992517 0.06002520 0.87992227
v 0.39487076 0.04174428 0.85762298
v 0.41001183 0.04440368 0.85397053
v 0.41001183 0.03709525 0.84397429
v 0.42198282 0.03926217 0.84096259
v 0.42918760 0.03447524 0.83051783
v 0.42998564 0.02364064 0.81475455
v 0.42998564 0.01670650 0.80475831
v 0.43005216 0.00606889 0.78905916
v 0.43674704 0.00118348 0.77816582
v 0.44947177 0.01442138 0.79046887
v 0.46999979 0.01773086 0.78329206
v 0.46999979 0.02456651 0.79335237
v 0.48041898 0.01983869 0.78021634
v 0.48824447 0.01605643 0.76964337
v 0.50411713 0.01818395 0.76272291
v 0.51047945 0.02561057 0.76964337
v 0.51746255 0.02113884 0.75823742
v 0.52746052 0.03360847 0.77015603
v 0.52746052 0.04006984 0.77983183
v 0.52746052 0.14548063 0.79078925
v 0.50999177 0.14837644 0.80994868
v 0.31000975 0.14902651 0.90997499
v 0.30100936 0.14752936 0.90920603
v 0.30100936 0.15074034 0.92996740
v 0.30100936 0.14790365 0.93913066
v 0.30100936 0.07806973 0.94227052
v 0.30495533 0.07858191 0.94162965
v 0.31098515 0.07225844 0.93163347
v 0.33000574 0.07414958 0.92721206
v 0.33000574 0.06416205 0.91458863
v 0.34463695 0.05856745 0.90183699
v 0.37001988 0.05504128 0.88658637
v 0.33922783 0.04022743 0.87966591
v 0.35000172 0.04190187 0.87742317
v 0.35000172 0.03443585 0.86742699
v 0.37001988 0.04505375 0.87319398
v 0.38152534 0.03949856 0.86063468
v 0.39072526 0.04976188 0.87031049
v 0.38892961 0.03457374 0.85057437
v 0.39001584 0.02360125 0.83493924
v 0.40342781 0.01879462 0.82167500
v 0.41005617 0.02637884 0.82897997
v 0.41672888 0.02117824 0.81827885
v 0.41001183 0.00309430 0.79540288
v 0.41005617 0.01375161 0.81097394
v 0.42340162 -0.00121984 0.78181827
v 0.40395984 -0.02143129 0.76214623
v 0.43005216 -0.00606586 0.77092493
v 0.42998564 -0.01666407 0.75484127
v 0.44222265 -0.02087971 0.74132073
v 0.44998163 -0.00285488 0.76432490
v 0.44998163 0.00376408 0.77432108
v 0.46148708 -0.00058946 0.76086462
v 0.47481036 0.00208964 0.75676364
v 0.49121505 0.00449295 0.75003541
v 0.49868584 0.00055310 0.73907799
v 0.51047945 0.01331823 0.75093251
v 0.52746052 0.01692319 0.74484503
v 0.52746052 0.02261628 0.75355971
v 0.52746052 0.14494875 0.78944361
v 0.30100936 0.14404258 0.90055549
v 0.30100936 0.06859438 0.93041599
v 0.30100936 0.06114806 0.92106056
v 0.31000975 0.06136475 0.91817701
v 0.33000574 0.05643993 0.90459239
v 0.33153537 0.04530984 0.88934171
v 0.32967320 0.03010201 0.86986196
v 0.33344185 0.02190711 0.85736668
v 0.35000172 0.02442862 0.85397053
v 0.32590455 0.03831660 0.88222909
v 0.37001988 0.03762713 0.86319780
v 0.36968735 0.02685163 0.84871608
v 0.37613839 0.02127673 0.83820724
v 0.39001584 0.01650951 0.82494301
v 0.39043707 0.00573401 0.80917972
v 0.39739797 0.00088799 0.79867089
v 0.41001183 -0.00364285 0.78540665
v 0.39001584 -0.02387400 0.76573461
v 0.38438505 -0.04150485 0.74228191
v 0.39770833 -0.03918033 0.73869354
v 0.41036654 -0.02641521 0.75106066
v 0.42998564 -0.02320422 0.74484503
v 0.45554593 -0.01820061 0.73715568
v 0.46889138 -0.00460811 0.75003541
v 0.44931659 -0.01321669 0.74881792
v 0.41001183 -0.03693461 0.73516923
v 0.42952013 -0.03362514 0.72888958
v 0.43586031 -0.03843176 0.71741951
v 0.48536256 -0.00218510 0.74343532
v 0.46583211 -0.02237685 0.72382736
v 0.49121505 -0.00724781 0.73145270
v 0.48999578 -0.01741264 0.71568942
v 0.50999177 -0.00315037 0.72510892
v 0.50999177 0.00301551 0.73510516
v 0.52746052 0.00658108 0.72837692
v 0.52746052 -0.05023162 0.30789477
v 0.30100936 0.14209236 0.89677483
v 0.30100936 0.06014340 0.91977894
v 0.31000975 0.05364263 0.90818077
v 0.31000975 0.04365510 0.89517289
v 0.32009643 0.01997658 0.85999388
v 0.32805490 0.01528815 0.85044622
v 0.35000172 0.01712019 0.84397429
v 0.36279294 0.01910981 0.84121889
v 0.31000975 0.03609058 0.88517666
v 0.36968735 0.01404710 0.83090228
v 0.37001988 0.00323220 0.81526721
v 0.38405252 -0.00133803 0.80193889
v 0.35796022 -0.03931823 0.75900638
v 0.37001988 -0.03728920 0.75593060
v 0.37001988 -0.04400665 0.74593437
v 0.36068693 -0.05023162 0.74132073
v 0.37522948 -0.05023162 0.73369545
v 0.38141447 -0.05023162 0.73036337
v 0.38675708 -0.05023162 0.72747982
v 0.39041489 -0.05023162 0.72542930
v 0.41001183 -0.04329748 0.72517300
v 0.42253703 -0.04095326 0.72152054
v 0.41761562 -0.05023162 0.70953786
v 0.42428836 -0.05023162 0.70543689
v 0.43058419 -0.05023162 0.70152807
v 0.43832102 -0.05023162 0.69659406
v 0.44616866 -0.04252921 0.70409125
v 0.47917753 -0.01965836 0.71940595
v 0.46999979 -0.03762409 0.69601738
v 0.48999578 -0.02344061 0.70569319
v 0.50205541 -0.02089941 0.70146400
v 0.50921583 -0.01331519 0.70889711
v 0.52145290 -0.00064856 0.72100794
v 0.52746052 0.00071069 0.71876514
v 0.52746052 -0.05023162 0.63020891
v 0.30100936 -0.05023162 0.53639817
v 0.30100936 0.05190910 0.90907788
v 0.30100936 0.04245345 0.89677483
v 0.31000975 0.02608335 0.87184834
v 0.31000975 0.01861733 0.86185217
v 0.30100936 0.00013942 0.83980918
v 0.31335720 0.00181385 0.83743829
v 0.33000574 0.00413837 0.83410621
v 0.34321815 -0.00098344 0.82135463
v 0.34993520 0.00632498 0.82878768
v 0.35654142 0.00108498 0.81840700
v 0.30100936 0.03039750 0.88075525
v 0.30100936 0.02490140 0.87345034
v 0.34463695 -0.04148515 0.76214623
v 0.35077763 -0.04680395 0.75138104
v 0.35053375 -0.05023162 0.74638295
v 0.39983651 -0.05023162 0.72004676
v 0.40970147 -0.05023162 0.71434379
v 0.44929442 -0.05023162 0.68935323
v 0.45168862 -0.04778891 0.69178820
v 0.46068901 -0.05023162 0.68153566
v 0.46999979 -0.04365207 0.68602115
v 0.48944157 -0.03366454 0.68903279
v 0.51537871 -0.01796421 0.69652998
v 0.48944157 -0.04487342 0.67012972
v 0.49573743 -0.03817567 0.67685795
v 0.52746052 -0.00480510 0.70960200
v 0.52746052 -0.04948305 0.63161862
v 0.52588660 -0.05023162 0.63155454
v 0.30100936 -0.05023162 0.76816958
v 0.30100936 0.01743538 0.86345410
v 0.30100936 -0.04103206 0.78143382
v 0.30280501 -0.04079567 0.78111339
v 0.33000574 -0.00289427 0.82410997
v 0.31612825 -0.03886514 0.77835804
v 0.33000574 -0.03681642 0.77541041
v 0.33000574 -0.04375056 0.76541424
v 0.33539268 -0.05023162 0.75355971
v 0.34727499 -0.05023162 0.74798489
v 0.45126742 -0.05023162 0.68800759
v 0.46975595 -0.05023162 0.67519188
v 0.48241416 -0.04103206 0.68166381
v 0.52413523 -0.02188437 0.68320167
v 0.50462699 -0.04209583 0.66352963
v 0.47764793 -0.05023162 0.66955298
v 0.48407680 -0.05023162 0.66487527
v 0.49017313 -0.05023162 0.66032571
v 0.52746052 -0.01829910 0.68672597
v 0.52746052 -0.04248981 0.64443427
v 0.51857096 -0.05023162 0.63777012
v 0.30486667 -0.05023162 0.76669580
v 0.30100936 -0.04243071 0.77944738
v 0.30967721 -0.04585838 0.77098906
v 0.30981022 -0.05023162 0.76464528
v 0.32000774 -0.05023162 0.76028794
v 0.33047128 -0.05023162 0.75573838
v 0.47325855 -0.05023162 0.67269284
v 0.51797241 -0.03908183 0.65833926
v 0.52746052 -0.02413009 0.67666566
v 0.49646896 -0.05023162 0.65558392
v 0.50708771 -0.05023162 0.64731783
v 0.52604175 -0.04282470 0.64501101
v 0.52746052 -0.03754529 0.65321302
v 0.51110017 -0.05023162 0.64398575
v 0.52746052 -0.02927160 0.66775882
f 1 2 7
f 1 7 18
f 1 18 34
f 1 34 51
f 1 51 75
f 1 75 107
f 1 107 148
f 1 148 186
f 1 186 185
f 1 185 226
f 1 226 225
f 1 225 262
f 1 262 297
f 1 297 325
f 1 325 346
f 1 346 357
f 1 357 363
f 1 363 361
f 1 361 347
f 1 347 326
f 1 326 298
f 1 298 263
f 1 263 227
f 1 227 187
f 1 187 150
f 1 150 109
f 1 109 77
f 1 77 53
f 1 53 35
f 1 35 19
f 1 19 8
f 1 8 3
f 1 3 4
f 1 4 5
f 1 5 2
f 2 5 6
f 2 6 7
f 3 8 4
f 4 9 10
f 4 10 5
f 4 8 11
f 4 11 12
f 4 12 13
f 4 13 14
f 4 14 9
f 5 10 6
f 6 10 9
f 6 9 14
f 6 14 15
f 6 15 16
f 6 16 17
f 6 17 7
f 7 17 18
f 8 19 11
f 11 20 21
f 11 21 12
f 11 19 20
f 12 21 13
f 13 22 23
f 13 23 24
f 13 24 25
f 13 25 26
f 13 26 14
f 13 21 22
f 14 26 15
f 15 26 25
f 15 25 24
f 15 24 27
f 15 27 28
f 15 28 29
f 15 29 30
f 15 30 16
f 16 30 31
f 16 31 32
f 16 32 17
f 17 32 18
f 18 33 34
f 18 32 33
f 19 35 20
f 20 36 37
f 20 37 21
f 20 35 36
f 21 37 38
f 21 38 22
f 22 38 23
f 23 38 39
f 23 39 40
f 23 40 41
f 23 41 24
f 24 41 27
f 27 42 43
f 27 43 44
f 27 44 28
f 27 41 45
f 27 45 42
f 28 44 46
f 28 46 29
f 29 46 31
f 29 31 30
f 31 46 47
f 31 47 33
f 31 33 32
f 33 47 48
f 33 48 49
f 33 49 50
f 33 50 51
f 33 51 34
f 35 52 36
f 35 53 52
f 36 52 54
f 36 54 55
f 36 55 37
f 37 55 56
f 37 56 38
f 38 56 57
f 38 57 40
f 38 40 39
f 40 57 58
f 40 58 59
f 40 59 60
f 40 60 61
f 40 61 41
f 41 61 45
f 42 62 63
f 42 63 43
f 42 45 62
f 43 63 46
f 43 46 44
f 45 64 65
f 45 65 62
f 45 61 60
f 45 60 66
f 45 66 64
f 46 67 47
f 46 63 68
f 46 68 67
f 47 67 69
f 47 69 70
f 47 70 71
f 47 71 48
f 48 71 72
f 48 72 49
f 49 73 50
f 49 72 73
f 50 73 74
f 50 74 75
f 50 75 51
f 52 53 76
f 52 76 54
f 53 77 76
f 54 76 78
f 54 78 55
f 55 79 80
f 55 80 56
f 55 78 79
f 56 80 81
f 56 81 57
f 57 81 82
f 57 82 83
f 57 83 59
f 57 59 58
f 59 84 85
f 59 85 86
f 59 86 87
f 59 87 88
f 59 88 89
f 59 89 90
f 59 90 60
f 59 83 84
f 60 90 66
f 62 65 63
f 63 65 91
f 63 91 92
f 63 92 93
f 63 93 68
f 64 91 65
f 64 66 94
f 64 94 91
f 66 88 87
f 66 87 86
f 66 86 95
f 66 95 94
f 66 90 89
f 66 89 88
f 67 96 69
f 67 68 97
f 67 97 96
f 68 93 98
f 68 98 99
f 68 99 97
f 69 96 70
f 70 72 71
f 70 96 100
f 70 100 101
f 70 101 102
f 70 102 103
f 70 103 72
f 72 103 73
f 73 103 104
f 73 104 105
f 73 105 74
f 74 105 106
f 74 106 75
f 75 106 107
f 76 77 108
f 76 108 78
f 77 109 108
f 78 110 79
f 78 108 110
f 79 110 80
f 80 111 112
f 80 112 113
f 80 113 81
f 80 110 111
f 81 113 82
f 82 114 115
f 82 115 116
f 82 116 117
f 82 117 84
f 82 84 83
f 82 113 114
f 84 117 85
f 85 116 118
f 85 118 119
f 85 119 120
f 85 120 121
f 85 121 122
f 85 122 86
f 85 117 116
f 86 122 95
f 91 94 123
f 91 123 124
f 91 124 125
f 91 125 126
f 91 126 92
f 92 126 127
f 92 127 128
f 92 128 93
f 93 128 98
f 94 95 129
f 94 129 124
f 94 124 123
f 95 122 121
f 95 121 120
f 95 120 130
f 95 130 131
f 95 131 129
f 96 97 99
f 96 99 132
f 96 132 100
f 98 133 134
f 98 134 135
f 98 135 99
f 98 128 133
f 99 135 136
f 99 136 137
f 99 137 132
f 100 132 138
f 100 138 101
f 101 139 140
f 101 140 141
f 101 141 142
f 101 142 102
f 101 138 139
f 102 142 143
f 102 143 104
f 102 104 103
f 104 143 105
f 105 143 144
f 105 144 145
f 105 145 146
f 105 146 106
f 106 146 147
f 106 147 107
f 107 147 148
f 108 109 149
f 108 149 110
f 109 150 151
f 109 151 152
f 109 152 153
f 109 153 154
f 109 154 149
f 110 153 155
f 110 155 111
f 110 149 154
f 110 154 153
f 111 155 156
f 111 156 113
f 111 113 112
f 113 156 157
f 113 157 114
f 114 157 115
f 115 157 158
f 115 158 192
f 115 192 191
f 115 191 151
f 115 151 190
f 115 190 228
f 115 228 264
f 115 264 299
f 115 299 328
f 115 328 350
f 115 350 330
f 115 330 304
f 115 304 329
f 115 329 311
f 115 311 310
f 115 310 301
f 115 301 300
f 115 300 265
f 115 265 230
f 115 230 229
f 115 229 193
f 115 193 159
f 115 159 131
f 115 131 130
f 115 130 120
f 115 120 119
f 115 119 118
f 115 118 116
f 124 129 131
f 124 131 159
f 124 159 160
f 124 160 125
f 125 160 161
f 125 161 162
f 125 162 163
f 125 163 164
f 125 164 126
f 126 164 165
f 126 165 127
f 127 166 167
f 127 167 133
f 127 133 128
f 127 165 166
f 132 137 138
f 133 167 134
f 134 167 168
f 134 168 169
f 134 169 135
f 135 169 170
f 135 170 171
f 135 171 136
f 136 171 137
f 137 171 172
f 137 172 173
f 137 173 139
f 137 139 138
f 139 173 140
f 140 174 175
f 140 175 176
f 140 176 177
f 140 177 141
f 140 173 174
f 141 177 178
f 141 178 179
f 141 179 142
f 142 179 143
f 143 179 180
f 143 180 144
f 144 180 145
f 145 180 181
f 145 181 182
f 145 182 183
f 145 183 146
f 146 183 147
f 147 183 184
f 147 184 185
f 147 185 186
f 147 186 148
f 150 187 188
f 150 188 189
f 150 189 151
f 151 189 190
f 151 191 152
f 152 191 153
f 153 191 155
f 155 191 192
f 155 192 158
f 155 158 157
f 155 157 156
f 159 193 194
f 159 194 160
f 160 194 195
f 160 195 196
f 160 196 161
f 161 196 197
f 161 197 162
f 162 198 163
f 162 197 198
f 163 199 165
f 163 165 164
f 163 198 200
f 163 200 201
f 163 201 202
f 163 202 199
f 165 199 166
f 166 199 203
f 166 203 204
f 166 204 205
f 166 205 167
f 167 205 168
f 168 205 204
f 168 204 206
f 168 206 207
f 168 207 170
f 168 170 169
f 170 207 208
f 170 208 209
f 170 209 171
f 171 209 210
f 171 210 172
f 172 210 173
f 173 210 174
f 174 211 175
f 174 210 212
f 174 212 211
f 175 211 213
f 175 213 176
f 176 213 214
f 176 214 215
f 176 215 216
f 176 216 217
f 176 217 218
f 176 218 219
f 176 219 177
f 177 219 178
f 178 219 180
f 178 180 179
f 180 219 220
f 180 220 221
f 180 221 181
f 181 221 222
f 181 222 182
f 182 222 223
f 182 223 224
f 182 224 184
f 182 184 183
f 184 224 225
f 184 225 226
f 184 226 185
f 187 227 190
f 187 190 189
f 187 189 188
f 190 227 228
f 193 229 194
f 194 229 230
f 194 230 195
f 195 230 231
f 195 231 197
f 195 197 196
f 197 231 266
f 197 266 232
f 197 232 198
f 198 232 233
f 198 233 200
f 199 202 203
f 200 234 235
f 200 235 236
f 200 236 202
f 200 202 201
f 200 233 237
f 200 237 234
f 202 236 203
f 203 236 238
f 203 238 204
f 204 238 239
f 204 239 240
f 204 240 206
f 206 240 207
f 207 240 241
f 207 241 208
f 208 241 242
f 208 242 243
f 208 243 212
f 208 212 210
f 208 210 209
f 211 212 243
f 211 243 244
f 211 244 213
f 213 244 214
f 214 245 246
f 214 246 247
f 214 247 248
f 214 248 215
f 214 244 243
f 214 243 245
f 215 248 216
f 216 248 249
f 216 249 217
f 217 250 251
f 217 251 221
f 217 221 252
f 217 252 218
f 217 249 253
f 217 253 254
f 217 254 255
f 217 255 250
f 218 220 219
f 218 252 220
f 220 252 221
f 221 251 256
f 221 256 222
f 222 256 223
f 223 225 224
f 223 256 257
f 223 257 258
f 223 258 259
f 223 259 260
f 223 260 261
f 223 261 225
f 225 261 262
f 227 263 228
f 228 263 264
f 230 265 231
f 231 265 266
f 232 266 267
f 232 267 237
f 232 237 233
f 234 268 235
f 234 237 268
f 235 268 269
f 235 269 270
f 235 270 236
f 236 270 271
f 236 271 238
f 237 267 272
f 237 272 268
f 238 271 239
f 239 271 240
f 240 271 273
f 240 273 241
f 241 274 242
f 241 273 274
f 242 274 275
f 242 275 243
f 243 275 276
f 243 276 245
f 245 276 277
f 245 277 278
f 245 278 246
f 246 278 279
f 246 279 280
f 246 280 281
f 246 281 247
f 247 281 282
f 247 282 283
f 247 283 284
f 247 284 253
f 247 253 248
f 248 253 249
f 250 256 251
f 250 255 257
f 250 257 256
f 253 284 285
f 253 285 254
f 254 285 255
f 255 285 286
f 255 286 287
f 255 287 288
f 255 288 289
f 255 289 290
f 255 290 257
f 257 290 291
f 257 291 258
f 258 291 259
f 259 291 292
f 259 292 320
f 259 320 293
f 259 293 294
f 259 294 260
f 260 294 295
f 260 295 296
f 260 296 261
f 261 296 262
f 262 296 297
f 263 298 327
f 263 327 348
f 263 348 362
f 263 362 359
f 263 359 358
f 263 358 345
f 263 345 344
f 263 344 343
f 263 343 355
f 263 355 339
f 263 339 319
f 263 319 338
f 263 338 317
f 263 317 289
f 263 289 288
f 263 288 287
f 263 287 286
f 263 286 316
f 263 316 315
f 263 315 283
f 263 283 282
f 263 282 281
f 263 281 280
f 263 280 279
f 263 279 314
f 263 314 337
f 263 337 336
f 263 336 354
f 263 354 353
f 263 353 352
f 263 352 349
f 263 349 328
f 263 328 299
f 263 299 264
f 265 300 266
f 266 300 301
f 266 301 267
f 267 301 272
f 268 272 302
f 268 302 303
f 268 303 304
f 268 304 305
f 268 305 269
f 269 305 306
f 269 306 270
f 270 306 307
f 270 307 308
f 270 308 271
f 271 308 309
f 271 309 273
f 272 310 311
f 272 311 302
f 272 301 310
f 273 309 274
f 274 309 312
f 274 312 276
f 274 276 275
f 276 312 313
f 276 313 314
f 276 314 279
f 276 279 278
f 276 278 277
f 283 315 284
f 284 315 316
f 284 316 285
f 285 316 286
f 289 317 290
f 290 317 318
f 290 318 291
f 291 318 292
f 292 318 319
f 292 319 320
f 293 320 321
f 293 321 294
f 294 322 295
f 294 321 323
f 294 323 324
f 294 324 322
f 295 322 325
f 295 325 296
f 296 325 297
f 298 326 327
f 302 311 329
f 302 329 303
f 303 329 304
f 304 330 331
f 304 331 305
f 305 331 306
f 306 331 332
f 306 332 307
f 307 309 308
f 307 332 333
f 307 333 334
f 307 334 335
f 307 335 309
f 309 335 312
f 312 335 336
f 312 336 337
f 312 337 313
f 313 337 314
f 317 338 318
f 318 338 319
f 319 339 320
f 320 339 340
f 320 340 321
f 321 340 323
f 322 341 325
f 322 324 342
f 322 342 341
f 323 340 343
f 323 343 344
f 323 344 345
f 323 345 342
f 323 342 324
f 325 341 346
f 326 347 348
f 326 348 327
f 328 349 350
f 330 350 331
f 331 350 349
f 331 349 351
f 331 351 333
f 331 333 332
f 333 351 352
f 333 352 335
f 333 335 334
f 335 352 353
f 335 353 354
f 335 354 336
f 339 355 340
f 340 355 343
f 341 342 356
f 341 356 357
f 341 357 346
f 342 345 358
f 342 358 359
f 342 359 356
f 347 360 348
f 347 361 356
f 347 356 360
f 348 360 362
f 349 352 351
f 356 361 363
f 356 363 357
f 356 359 360
f 359 362 360
