v 0.72237849 -0.48576379 0.21082141
v 0.78847271 -0.37373680 0.21082141
v 0.89553165 -0.48576379 0.21082141
v 0.45018226 -0.48576379 0.46102482
v 0.43749452 -0.48575050 0.46483037
v 0.43749452 -0.35002625 0.53319275
v 0.92548060 -0.37373680 0.21082141
v 0.63567895 -0.34998637 0.43062627
v 0.90354753 -0.47166240 0.21082141
v 0.89533496 -0.48576379 0.21164669
v 0.43749452 -0.48576379 0.48697594
v 0.43749452 -0.34998637 0.56093198
v 0.44998556 -0.34998637 0.52952474
v 0.93988955 -0.37377667 0.21082141
v 0.63567895 -0.34998637 0.60416853
v 0.90438354 -0.47008079 0.21082141
v 0.89862978 -0.47753686 0.21632339
v 0.89041722 -0.48576379 0.22480565
v 0.43749452 -0.48576379 0.63094491
v 0.43749452 -0.34998637 0.67922497
v 0.93851256 -0.37373680 0.21522300
v 0.93679136 -0.38524652 0.21082141
v 0.63174474 -0.34998637 0.60636932
v 0.63189226 -0.35163441 0.60595667
v 0.63567895 -0.35535580 0.60302228
v 0.66287398 -0.37373680 0.58179373
v 0.66980797 -0.37373680 0.57711703
v 0.68702000 -0.37373680 0.56501263
v 0.69513428 -0.37373680 0.55909795
v 0.69700301 -0.37373680 0.55772245
v 0.71495271 -0.37373680 0.54364651
v 0.71977210 -0.37373680 0.53979510
v 0.72444391 -0.37373680 0.53576034
v 0.74126256 -0.37373680 0.52113420
v 0.74770474 -0.37373680 0.51512784
v 0.76181865 -0.37373680 0.50173962
v 0.76860511 -0.37373680 0.49495381
v 0.78158790 -0.37373680 0.48165733
v 0.79535753 -0.37373680 0.46643513
v 0.80052114 -0.37373680 0.46061218
v 0.81881511 -0.37373680 0.43851247
v 0.83450264 -0.37373680 0.41751319
v 0.83656812 -0.37373680 0.41467047
v 0.84350210 -0.37373680 0.40499613
v 0.85245234 -0.37373680 0.39179134
v 0.85663241 -0.37373680 0.38555574
v 0.86012399 -0.37373680 0.38028300
v 0.86366475 -0.37373680 0.37446004
v 0.87428707 -0.37373680 0.35657853
v 0.87620497 -0.37373680 0.35327733
v 0.88186038 -0.37373680 0.34341958
v 0.88726985 -0.37373680 0.33347014
v 0.88904023 -0.37373680 0.33012310
v 0.89513826 -0.37373680 0.31838548
v 0.89725286 -0.37373680 0.31430483
v 0.90207219 -0.37373680 0.30449295
v 0.90718663 -0.37373680 0.29344308
v 0.90866196 -0.37373680 0.29014188
v 0.91466159 -0.37373680 0.27657029
v 0.91653037 -0.37373680 0.27226040
v 0.92085791 -0.37373680 0.26221925
v 0.92425120 -0.37373680 0.25373697
v 0.92572647 -0.37373680 0.24988559
v 0.93172610 -0.37373680 0.23397565
v 0.93369323 -0.37373680 0.22870290
v 0.93836504 -0.37373680 0.21568149
v 0.90212142 -0.46419305 0.22586019
v 0.91441572 -0.44917458 0.21082141
v 0.89661354 -0.47051939 0.23154560
v 0.88269639 -0.48440814 0.24663025
v 0.88328648 -0.48576379 0.24300809
v 0.45028061 -0.48576379 0.62796468
v 0.43749452 -0.47417432 0.63759315
v 0.43749452 -0.35350841 0.67849135
v 0.44870692 -0.34998637 0.67670321
v 0.93566030 -0.38943306 0.21082141
v 0.61320490 -0.34998637 0.61645633
v 0.61320490 -0.35002625 0.61645633
v 0.62736797 -0.37001541 0.60407680
v 0.63567895 -0.36293149 0.60123414
v 0.65018624 -0.37373680 0.58963406
v 0.66110361 -0.38230926 0.58064747
v 0.66867685 -0.38937989 0.57331145
v 0.68372512 -0.39000458 0.56262839
v 0.69370812 -0.39000458 0.55520070
v 0.70659256 -0.39000458 0.54520541
v 0.71913278 -0.37757778 0.53924489
v 0.74013144 -0.38042200 0.52012545
v 0.76054001 -0.38152513 0.50050169
v 0.78040767 -0.38116628 0.48037353
v 0.79973429 -0.37922582 0.45969519
v 0.81861842 -0.37522534 0.43823737
v 0.82388037 -0.39000458 0.42521599
v 0.84173173 -0.38556549 0.40256608
v 0.85948467 -0.37832206 0.37927428
v 0.86381233 -0.39000458 0.36639044
v 0.88068008 -0.38234913 0.34131050
v 0.88431925 -0.38940647 0.33053574
v 0.89523661 -0.38983178 0.30912378
v 0.90084279 -0.38305354 0.30187950
v 0.92007113 -0.38032895 0.26029354
v 0.90399015 -0.38983178 0.29064626
v 0.92213655 -0.38819703 0.24924369
v 0.92882466 -0.39000458 0.23003255
v 0.90595722 -0.45158020 0.23154560
v 0.89961338 -0.45930207 0.23920254
v 0.91584188 -0.44585192 0.21082141
v 0.91844827 -0.43603012 0.21554394
v 0.88751578 -0.47195479 0.25194883
v 0.87989330 -0.47991589 0.25992674
v 0.87807369 -0.48576379 0.25561684
v 0.88136858 -0.48576379 0.24777649
v 0.45175594 -0.46978840 0.63658446
v 0.47004986 -0.48576379 0.62296700
v 0.47004986 -0.48539165 0.62319624
v 0.43749452 -0.47026688 0.63965642
v 0.43749452 -0.36920467 0.67500675
v 0.45003474 -0.37001541 0.67220992
v 0.46980399 -0.34998637 0.67152214
v 0.92931640 -0.40999371 0.21082141
v 0.92297256 -0.40946209 0.22971159
v 0.60317278 -0.34998637 0.62154567
v 0.60317278 -0.35002625 0.62154567
v 0.60076308 -0.36150938 0.62035358
v 0.60843474 -0.36889899 0.61443889
v 0.62338459 -0.38624331 0.60183018
v 0.63567895 -0.37200901 0.59889579
v 0.65072715 -0.38937989 0.58491153
v 0.65785789 -0.39563981 0.57863009
v 0.68106955 -0.40196615 0.56070274
v 0.70300263 -0.40611285 0.54236269
v 0.71657556 -0.39000458 0.53708994
v 0.73049271 -0.38826349 0.52576500
v 0.73747587 -0.39376581 0.51769543
v 0.74908173 -0.38763881 0.50912148
v 0.75803196 -0.39484236 0.49802577
v 0.76924443 -0.38801095 0.48922259
v 0.77794880 -0.39451009 0.47776008
v 0.78650564 -0.38870206 0.47065333
v 0.79781640 -0.39000458 0.45749438
v 0.80622572 -0.39000458 0.44749907
v 0.81620872 -0.39000458 0.43516544
v 0.82147068 -0.40397304 0.42200649
v 0.83484685 -0.39134693 0.40953529
v 0.84719038 -0.39134693 0.39174548
v 0.83956790 -0.39890930 0.39949414
v 0.85766518 -0.39000458 0.37638575
v 0.87423790 -0.38940647 0.34878403
v 0.86150098 -0.40423885 0.36253905
v 0.87861466 -0.39567968 0.33755079
v 0.88220459 -0.40633878 0.32425427
v 0.89887571 -0.39638409 0.29770714
v 0.91436654 -0.38819703 0.26817974
v 0.91810399 -0.39365950 0.25538760
v 0.90192467 -0.40575400 0.28431892
v 0.92075956 -0.40243134 0.24204524
v 0.90266234 -0.44597155 0.24663025
v 0.89789212 -0.45158020 0.25199470
v 0.88053256 -0.46104315 0.28120112
v 0.88304061 -0.46572146 0.27001375
v 0.92184150 -0.43116575 0.21082141
v 0.92272669 -0.42885315 0.21082141
v 0.92100549 -0.42271289 0.22283410
v 0.91579270 -0.42962402 0.22971159
v 0.87763113 -0.47572935 0.27001375
v 0.86036992 -0.48059371 0.30077910
v 0.86292708 -0.48472711 0.29005021
v 0.87364775 -0.48576379 0.26565799
v 0.47004986 -0.46998778 0.63163269
v 0.45957512 -0.45975396 0.63988566
v 0.44624805 -0.46299690 0.64144456
v 0.48003286 -0.48576379 0.62003261
v 0.48391786 -0.48205569 0.62117887
v 0.43749452 -0.46488416 0.64240742
v 0.43749452 -0.39001784 0.66987157
v 0.45003474 -0.39001784 0.66716641
v 0.46970564 -0.38971215 0.66239798
v 0.47004986 -0.37001541 0.66721225
v 0.48957324 -0.36887240 0.66198540
v 0.49006504 -0.35002625 0.66583675
v 0.49006504 -0.34998637 0.66583675
v 0.91854662 -0.41576186 0.23613060
v 0.58999324 -0.34998637 0.62782711
v 0.58999324 -0.35002625 0.62782711
v 0.59033751 -0.36889899 0.62337965
v 0.59722233 -0.37482661 0.61865711
v 0.61187714 -0.39174563 0.60632348
v 0.61974549 -0.39956054 0.59985864
v 0.63002354 -0.39174563 0.59637403
v 0.63567895 -0.37373680 0.59839141
v 0.64379317 -0.41002029 0.58225220
v 0.63567895 -0.39110768 0.59325624
v 0.65382534 -0.41002029 0.57601660
v 0.67049646 -0.40918300 0.56528771
v 0.67743045 -0.41529670 0.55813515
v 0.69036406 -0.41071141 0.55024892
v 0.70978910 -0.41166833 0.53447652
v 0.72380459 -0.41002029 0.52328914
v 0.69970775 -0.41943008 0.53970343
v 0.73383677 -0.41002029 0.51444006
v 0.74475414 -0.41002029 0.50444478
v 0.75478631 -0.41002029 0.49486214
v 0.76476926 -0.41002029 0.48486683
v 0.77475226 -0.41002029 0.47432134
v 0.78394842 -0.41002029 0.46432602
v 0.79388225 -0.41002029 0.45304692
v 0.80248827 -0.41002029 0.44305164
v 0.81335640 -0.41039243 0.42920494
v 0.81891346 -0.41730359 0.41856772
v 0.82688016 -0.41039243 0.41114002
v 0.83745331 -0.41002029 0.39642218
v 0.84419060 -0.41002029 0.38638103
v 0.85481286 -0.41053864 0.36959994
v 0.85904211 -0.41756940 0.35845840
v 0.86582857 -0.41053864 0.35112238
v 0.87679511 -0.41181454 0.33053574
v 0.88658136 -0.41181454 0.31192064
v 0.87984407 -0.41965604 0.31980684
v 0.89705616 -0.41145569 0.29064626
v 0.90556383 -0.41145569 0.27157265
v 0.91554677 -0.40946209 0.24924369
v 0.89961338 -0.41907123 0.27932131
v 0.90625226 -0.43194988 0.25199470
v 0.89990842 -0.43991101 0.25997257
v 0.89076144 -0.44998533 0.27001375
v 0.88279474 -0.44864297 0.28872055
v 0.87728691 -0.45441112 0.29454350
v 0.86056662 -0.46110961 0.32113647
v 0.86292708 -0.46865872 0.30848187
v 0.86228782 -0.48576379 0.29005021
v 0.85682917 -0.47444016 0.31412143
v 0.84350210 -0.48537835 0.32627168
v 0.85432112 -0.48576379 0.30582261
v 0.85894376 -0.48576379 0.29683599
v 0.49036008 -0.47097129 0.62503028
v 0.47004986 -0.45652434 0.63841844
v 0.45175594 -0.45183271 0.64520425
v 0.47004986 -0.44651645 0.64282006
v 0.43749452 -0.45063657 0.64887226
v 0.48721275 -0.48576379 0.61783183
v 0.49719572 -0.47828114 0.61902392
v 0.43749452 -0.40976778 0.66414034
v 0.44855940 -0.40940893 0.66189367
v 0.46282083 -0.40236488 0.66070157
v 0.47614786 -0.39617142 0.65891343
v 0.48259008 -0.38285419 0.66074741
v 0.49591714 -0.37478673 0.65873003
v 0.50108075 -0.36145622 0.66028893
v 0.50452316 -0.34998637 0.66143513
v 0.56806016 -0.34998637 0.63768488
v 0.55935580 -0.35866517 0.63965642
v 0.57002729 -0.37001541 0.63227457
v 0.58389527 -0.38620344 0.62177491
v 0.59033751 -0.39171904 0.61709821
v 0.60622174 -0.41000700 0.60320568
v 0.61625391 -0.41000700 0.59793293
v 0.63002354 -0.41000700 0.59023011
v 0.63567895 -0.41002029 0.58697474
v 0.64054751 -0.42073259 0.58028066
v 0.66415256 -0.42636782 0.56281185
v 0.68657744 -0.42999616 0.54488444
v 0.67049646 -0.43181700 0.55584264
v 0.72095233 -0.42179582 0.52081323
v 0.69656038 -0.42999616 0.53727335
v 0.71037918 -0.42907912 0.52631521
v 0.74165595 -0.42325780 0.50155622
v 0.76172030 -0.42351031 0.48174903
v 0.78119451 -0.42260656 0.46129993
v 0.80032444 -0.42082560 0.44043818
v 0.81611037 -0.42999616 0.41476217
v 0.82333940 -0.42999616 0.40476689
v 0.80509466 -0.42849433 0.42998439
v 0.84153497 -0.42360336 0.38234624
v 0.85643572 -0.42999616 0.35405678
v 0.86223865 -0.42999616 0.34406149
v 0.84605932 -0.43014237 0.37079203
v 0.88274556 -0.42999616 0.30559334
v 0.89026970 -0.42999616 0.29005021
v 0.87000865 -0.42999616 0.33003139
v 0.87772948 -0.42999616 0.31563449
v 0.90251482 -0.42658046 0.26597893
v 0.89794135 -0.43194988 0.27157265
v 0.88043422 -0.44108057 0.30105418
v 0.87295926 -0.44864297 0.30866528
v 0.86268121 -0.44817778 0.32870173
v 0.85687828 -0.45362696 0.33447886
v 0.84350210 -0.46619993 0.34598720
v 0.85014105 -0.47032005 0.33035234
v 0.83966625 -0.47954375 0.33956820
v 0.84305948 -0.48576379 0.32659262
v 0.84404302 -0.48576379 0.32480448
v 0.83794504 -0.48576379 0.33544168
v 0.51003098 -0.46398038 0.62205005
v 0.48996669 -0.44936067 0.63566744
v 0.48327857 -0.44227675 0.64098608
v 0.44855940 -0.42829496 0.65542883
v 0.43749452 -0.43139169 0.65671259
v 0.47004986 -0.42998287 0.64942247
v 0.49252391 -0.48576379 0.61604369
v 0.51042444 -0.48576379 0.60962468
v 0.52709550 -0.48576379 0.60348076
v 0.51003098 -0.47400156 0.61673141
v 0.43749452 -0.42142367 0.66051817
v 0.44083858 -0.42051992 0.66015136
v 0.45421481 -0.41568211 0.65859246
v 0.46970564 -0.40940893 0.65662092
v 0.49006504 -0.41000700 0.65061456
v 0.48957324 -0.38971215 0.65675843
v 0.51003098 -0.39001784 0.65015608
v 0.50865400 -0.36887240 0.65602487
v 0.53004616 -0.37001541 0.64832205
v 0.53004616 -0.35002625 0.65267783
v 0.51450610 -0.35002625 0.65808809
v 0.51450610 -0.34998637 0.65808809
v 0.56142128 -0.34998637 0.64057338
v 0.55384797 -0.34998637 0.64359951
v 0.55153662 -0.34998637 0.64451653
v 0.55158579 -0.35119581 0.64424139
v 0.54597962 -0.37001541 0.64236158
v 0.55601174 -0.37001541 0.63832676
v 0.57179767 -0.39171904 0.62558043
v 0.57966602 -0.39952067 0.61980337
v 0.58999324 -0.41000700 0.61122942
v 0.60189414 -0.42243379 0.60091317
v 0.60917240 -0.42945126 0.59417319
v 0.63567895 -0.42410842 0.58165616
v 0.65982497 -0.43968505 0.55983156
v 0.63567895 -0.43410298 0.57739210
v 0.68239737 -0.44336659 0.54172081
v 0.71731323 -0.43512636 0.51764959
v 0.72955835 -0.42918545 0.50957996
v 0.70398617 -0.44610444 0.52324325
v 0.73816437 -0.43657506 0.49820918
v 0.75001609 -0.43003604 0.49000204
v 0.75837624 -0.43684086 0.47831029
v 0.76988369 -0.42973036 0.46978217
v 0.77799797 -0.43592381 0.45776948
v 0.78921038 -0.42837471 0.44910383
v 0.79722625 -0.43414286 0.43663263
v 0.82078218 -0.44158563 0.40119058
v 0.80253744 -0.44492158 0.42329028
v 0.83386338 -0.43014237 0.38945299
v 0.83858436 -0.43692061 0.37794465
v 0.86012399 -0.44029644 0.34030178
v 0.84286278 -0.44581205 0.36460227
v 0.84984595 -0.44971952 0.34979272
v 0.83951873 -0.45914260 0.35932952
v 0.83696151 -0.47171557 0.35158089
v 0.82230669 -0.48355752 0.36368528
v 0.83189625 -0.48576379 0.34566623
v 0.52055490 -0.46035203 0.62012434
v 0.51003098 -0.44999862 0.62865239
v 0.49660560 -0.43722630 0.63887697
v 0.48996669 -0.43031514 0.64350784
v 0.43749452 -0.42450711 0.65937191
v 0.53004616 -0.48576379 0.60233450
v 0.53004616 -0.48479357 0.60293055
v 0.54150444 -0.48107219 0.60059220
v 0.52832496 -0.46822011 0.61287999
v 0.50427723 -0.42388245 0.64144456
v 0.51062113 -0.41051206 0.64382875
v 0.52370226 -0.40415913 0.64130700
v 0.53024286 -0.38967228 0.64314103
v 0.54199624 -0.38280103 0.64071095
v 0.53004616 -0.34998637 0.65267783
v 0.54917610 -0.38967228 0.63580501
v 0.55001211 -0.41000700 0.62911093
v 0.56569970 -0.41000700 0.62246263
v 0.57568264 -0.41000700 0.61801523
v 0.58984572 -0.42945126 0.60393929
v 0.59643549 -0.43575102 0.59816217
v 0.62235188 -0.44271535 0.58128935
v 0.62938422 -0.42844117 0.58339846
v 0.65574324 -0.44998533 0.55712640
v 0.66430008 -0.46514997 0.54300463
v 0.67059481 -0.45001191 0.54676431
v 0.64571112 -0.44998533 0.56359124
v 0.63567895 -0.44977269 0.56982684
v 0.67762715 -0.45669711 0.53819036
v 0.69100338 -0.45139414 0.53071684
v 0.72409970 -0.44998533 0.50366533
v 0.71037918 -0.45164666 0.51471519
v 0.69960940 -0.45943499 0.51966697
v 0.73408264 -0.44998533 0.49444947
v 0.74460661 -0.44998533 0.48450002
v 0.75458956 -0.44998533 0.47445887
v 0.76422834 -0.44998533 0.46446359
v 0.77421129 -0.44998533 0.45350543
v 0.78311241 -0.44998533 0.44360182
v 0.79388225 -0.45095554 0.42998439
v 0.79904586 -0.45825213 0.41879699
v 0.81729060 -0.45491615 0.39623877
v 0.82476556 -0.44894865 0.38977394
v 0.83602715 -0.45148718 0.37079203
v 0.82191324 -0.46334243 0.38289642
v 0.82629001 -0.47000107 0.37024182
v 0.81797910 -0.47667298 0.37707347
v 0.81940520 -0.48576379 0.36588609
v 0.82156903 -0.48576379 0.36253905
v 0.53383279 -0.45484972 0.61755669
v 0.52832496 -0.44889548 0.62241679
v 0.54165196 -0.44151917 0.62067449
v 0.51062113 -0.43031514 0.63676786
v 0.53761947 -0.48576379 0.59926260
v 0.54612708 -0.48576379 0.59564042
v 0.55488068 -0.47584894 0.59765780
v 0.54893023 -0.46950930 0.60371000
v 0.51765347 -0.41748965 0.63915205
v 0.53024286 -0.41051206 0.63676786
v 0.53702933 -0.39613155 0.63883114
v 0.54902858 -0.42882660 0.62269193
v 0.56122452 -0.42138383 0.62049115
v 0.56874865 -0.42882660 0.61407208
v 0.58305925 -0.44308746 0.60141754
v 0.58984572 -0.44985241 0.59481514
v 0.60986090 -0.44962648 0.58463645
v 0.61640143 -0.45604587 0.57798815
v 0.62938422 -0.44962648 0.57367826
v 0.64118677 -0.46125582 0.56065685
v 0.64994037 -0.46986815 0.54988211
v 0.65869391 -0.47848052 0.53906155
v 0.67059481 -0.47107762 0.53484333
v 0.68554467 -0.46998778 0.52425200
v 0.72065723 -0.46093684 0.50059336
v 0.69547850 -0.46998778 0.51636577
v 0.70251083 -0.48295945 0.50210643
v 0.70949399 -0.46856567 0.50540763
v 0.74111503 -0.46166781 0.48101541
v 0.76093346 -0.46148175 0.46097898
v 0.78026009 -0.46041849 0.44030064
v 0.78453851 -0.46824670 0.42915908
v 0.78158790 -0.48224175 0.42196062
v 0.79545587 -0.46998778 0.41412029
v 0.80002940 -0.48004881 0.40013602
v 0.80302918 -0.46998778 0.40417084
v 0.81320888 -0.47000107 0.38977394
v 0.80593067 -0.48576379 0.38592252
v 0.56294572 -0.46253172 0.60127997
v 0.54902858 -0.44889548 0.61407208
v 0.53004616 -0.42998287 0.62975281
v 0.55502820 -0.43470106 0.61783183
v 0.57509255 -0.48576379 0.58234394
v 0.58256745 -0.48200253 0.58124352
v 0.56978136 -0.46950930 0.59431076
v 0.56978136 -0.44985241 0.60439777
v 0.57627279 -0.45644459 0.59820801
v 0.60307443 -0.46298361 0.58161032
v 0.60986090 -0.46977511 0.57404506
v 0.62889248 -0.46873844 0.56372881
v 0.63567895 -0.46461836 0.56203234
v 0.63484293 -0.47459963 0.55680549
v 0.63567895 -0.47433382 0.55643868
v 0.65441549 -0.48576379 0.53695244
v 0.67364377 -0.48576379 0.52305984
v 0.68106955 -0.48116523 0.52076739
v 0.64536685 -0.48517901 0.54346311
v 0.64595699 -0.48576379 0.54268366
v 0.71583790 -0.47428066 0.49619177
v 0.72857481 -0.46796760 0.48862654
v 0.70123225 -0.48576379 0.50105190
v 0.70546150 -0.48576379 0.49738386
v 0.72311610 -0.48387653 0.48289528
v 0.68583977 -0.48576379 0.51366061
v 0.69587189 -0.48576379 0.50545347
v 0.73644316 -0.47498506 0.47652212
v 0.74883586 -0.46823341 0.46872762
v 0.75650752 -0.47479898 0.45630229
v 0.76845759 -0.46762204 0.44827852
v 0.77603090 -0.47376233 0.43530297
v 0.78591549 -0.48576379 0.41315743
v 0.76270384 -0.48367715 0.44300577
v 0.77593249 -0.48576379 0.42562863
v 0.78030932 -0.48576379 0.42035589
v 0.79147255 -0.48576379 0.40586728
v 0.79796392 -0.48576379 0.39729333
v 0.80204564 -0.48576379 0.39156207
v 0.58005941 -0.48576379 0.58000559
v 0.58620661 -0.48576379 0.57693362
v 0.59589452 -0.47632742 0.57789648
v 0.58955067 -0.46977511 0.58463645
v 0.62146670 -0.48133799 0.56084025
v 0.67890579 -0.48576379 0.51907092
v 0.64349812 -0.48576379 0.54424256
v 0.72232926 -0.48576379 0.48216167
v 0.72518158 -0.48576379 0.47945651
v 0.74318045 -0.48412904 0.46317977
v 0.74500000 -0.48576379 0.45997027
v 0.75896633 -0.48576379 0.44520658
v 0.76186782 -0.48576379 0.44213462
v 0.76511353 -0.48576379 0.43832907
v 0.59127188 -0.48576379 0.57427430
v 0.61364752 -0.48576379 0.56230748
v 0.61890948 -0.48576379 0.55932724
v 0.62584347 -0.48576379 0.55520070
v 0.74254113 -0.48576379 0.46253788
f 1 2 7
f 1 7 14
f 1 14 22
f 1 22 76
f 1 76 120
f 1 120 162
f 1 162 161
f 1 161 107
f 1 107 68
f 1 68 16
f 1 16 9
f 1 9 3
f 1 3 10
f 1 10 18
f 1 18 71
f 1 71 112
f 1 112 111
f 1 111 168
f 1 168 230
f 1 230 234
f 1 234 233
f 1 233 291
f 1 291 290
f 1 290 292
f 1 292 350
f 1 350 399
f 1 399 398
f 1 398 437
f 1 437 476
f 1 476 475
f 1 475 474
f 1 474 470
f 1 470 473
f 1 473 472
f 1 472 490
f 1 490 489
f 1 489 488
f 1 488 487
f 1 487 495
f 1 495 485
f 1 485 484
f 1 484 461
f 1 461 460
f 1 460 464
f 1 464 463
f 1 463 482
f 1 482 454
f 1 454 453
f 1 453 457
f 1 457 483
f 1 483 494
f 1 494 493
f 1 493 492
f 1 492 491
f 1 491 478
f 1 478 477
f 1 477 442
f 1 442 405
f 1 405 404
f 1 404 356
f 1 356 301
f 1 301 300
f 1 300 299
f 1 299 240
f 1 240 172
f 1 172 114
f 1 114 72
f 1 72 19
f 1 19 11
f 1 11 4
f 1 4 5
f 1 5 6
f 1 6 2
f 2 6 8
f 2 8 7
f 3 9 10
f 4 11 5
f 5 11 19
f 5 19 73
f 5 73 116
f 5 116 174
f 5 174 239
f 5 239 297
f 5 297 355
f 5 355 303
f 5 303 242
f 5 242 175
f 5 175 117
f 5 117 74
f 5 74 20
f 5 20 12
f 5 12 6
f 6 12 13
f 6 13 8
f 7 8 14
f 8 13 12
f 8 12 20
f 8 20 75
f 8 75 119
f 8 119 181
f 8 181 249
f 8 249 314
f 8 314 365
f 8 365 317
f 8 317 316
f 8 316 315
f 8 315 250
f 8 250 183
f 8 183 122
f 8 122 77
f 8 77 23
f 8 23 15
f 8 15 14
f 9 16 17
f 9 17 10
f 10 17 18
f 14 21 22
f 14 15 21
f 15 23 24
f 15 24 25
f 15 25 26
f 15 26 27
f 15 27 28
f 15 28 29
f 15 29 30
f 15 30 31
f 15 31 32
f 15 32 33
f 15 33 34
f 15 34 35
f 15 35 36
f 15 36 37
f 15 37 38
f 15 38 39
f 15 39 40
f 15 40 41
f 15 41 42
f 15 42 43
f 15 43 44
f 15 44 45
f 15 45 46
f 15 46 47
f 15 47 48
f 15 48 49
f 15 49 50
f 15 50 51
f 15 51 52
f 15 52 53
f 15 53 54
f 15 54 55
f 15 55 56
f 15 56 57
f 15 57 58
f 15 58 59
f 15 59 60
f 15 60 61
f 15 61 62
f 15 62 63
f 15 63 64
f 15 64 65
f 15 65 66
f 15 66 21
f 16 67 17
f 16 68 67
f 17 69 70
f 17 70 18
f 17 67 69
f 18 70 71
f 19 72 73
f 20 74 75
f 21 66 76
f 21 76 22
f 23 77 78
f 23 78 24
f 24 78 79
f 24 79 25
f 25 79 80
f 25 80 26
f 26 81 82
f 26 82 27
f 26 80 81
f 27 82 83
f 27 83 84
f 27 84 28
f 28 84 29
f 29 84 30
f 30 84 85
f 30 85 86
f 30 86 87
f 30 87 31
f 31 87 32
f 32 87 33
f 33 87 34
f 34 87 88
f 34 88 35
f 35 88 89
f 35 89 36
f 36 89 37
f 37 89 90
f 37 90 38
f 38 90 91
f 38 91 39
f 39 91 40
f 40 91 41
f 41 91 92
f 41 92 42
f 42 92 93
f 42 93 94
f 42 94 43
f 43 94 44
f 44 94 45
f 45 94 46
f 46 94 95
f 46 95 47
f 47 95 48
f 48 95 96
f 48 96 49
f 49 96 97
f 49 97 50
f 50 97 51
f 51 97 52
f 52 97 53
f 53 97 98
f 53 98 54
f 54 98 55
f 55 98 99
f 55 99 100
f 55 100 56
f 56 100 57
f 57 100 58
f 58 101 59
f 58 100 102
f 58 102 101
f 59 101 60
f 60 101 61
f 61 101 62
f 62 101 63
f 63 101 64
f 64 101 103
f 64 103 104
f 64 104 65
f 65 104 66
f 66 104 76
f 67 68 105
f 67 105 106
f 67 106 69
f 68 107 108
f 68 108 105
f 69 106 109
f 69 109 110
f 69 110 70
f 70 110 111
f 70 111 112
f 70 112 71
f 72 113 73
f 72 114 115
f 72 115 113
f 73 113 116
f 74 117 118
f 74 118 75
f 75 118 119
f 76 104 121
f 76 121 120
f 77 122 123
f 77 123 78
f 78 123 124
f 78 124 79
f 79 124 125
f 79 125 126
f 79 126 127
f 79 127 80
f 80 127 81
f 81 127 82
f 82 127 128
f 82 128 129
f 82 129 83
f 83 129 130
f 83 130 84
f 84 130 85
f 85 131 86
f 85 130 131
f 86 131 132
f 86 132 87
f 87 132 133
f 87 133 88
f 88 133 134
f 88 134 135
f 88 135 89
f 89 135 136
f 89 136 137
f 89 137 90
f 90 137 138
f 90 138 139
f 90 139 91
f 91 139 140
f 91 140 141
f 91 141 92
f 92 141 142
f 92 142 93
f 93 142 143
f 93 143 144
f 93 144 94
f 94 145 95
f 94 144 146
f 94 146 145
f 95 145 147
f 95 147 96
f 96 148 97
f 96 147 149
f 96 149 148
f 97 148 150
f 97 150 98
f 98 150 151
f 98 151 99
f 99 152 100
f 99 151 152
f 100 152 102
f 101 102 153
f 101 153 154
f 101 154 103
f 102 152 155
f 102 155 153
f 103 154 156
f 103 156 104
f 104 156 121
f 105 157 106
f 105 108 157
f 106 157 158
f 106 158 159
f 106 159 160
f 106 160 109
f 107 161 108
f 108 161 162
f 108 162 163
f 108 163 164
f 108 164 157
f 109 160 110
f 110 160 165
f 110 165 166
f 110 166 167
f 110 167 168
f 110 168 111
f 113 115 169
f 113 169 170
f 113 170 171
f 113 171 116
f 114 172 173
f 114 173 115
f 115 173 169
f 116 171 174
f 117 175 118
f 118 175 176
f 118 176 177
f 118 177 178
f 118 178 119
f 119 178 179
f 119 179 180
f 119 180 181
f 120 121 163
f 120 163 162
f 121 156 182
f 121 182 163
f 122 183 184
f 122 184 123
f 123 184 124
f 124 184 185
f 124 185 186
f 124 186 125
f 125 186 187
f 125 187 126
f 126 187 188
f 126 188 189
f 126 189 190
f 126 190 127
f 127 190 128
f 128 191 129
f 128 190 192
f 128 192 191
f 129 191 193
f 129 193 194
f 129 194 130
f 130 195 196
f 130 196 131
f 130 194 195
f 131 197 198
f 131 198 132
f 131 196 199
f 131 199 197
f 132 198 134
f 132 134 133
f 134 198 200
f 134 200 201
f 134 201 136
f 134 136 135
f 136 201 202
f 136 202 203
f 136 203 138
f 136 138 137
f 138 203 204
f 138 204 205
f 138 205 140
f 138 140 139
f 140 205 206
f 140 206 207
f 140 207 141
f 141 207 142
f 142 207 143
f 143 207 208
f 143 208 209
f 143 209 210
f 143 210 146
f 143 146 144
f 145 146 147
f 146 210 211
f 146 211 212
f 146 212 147
f 147 212 213
f 147 213 149
f 148 149 150
f 149 213 214
f 149 214 215
f 149 215 150
f 150 215 216
f 150 216 151
f 151 217 152
f 151 216 218
f 151 218 217
f 152 217 219
f 152 219 155
f 153 155 154
f 154 155 220
f 154 220 221
f 154 221 156
f 155 219 222
f 155 222 220
f 156 221 182
f 157 164 223
f 157 223 224
f 157 224 158
f 158 225 159
f 158 224 225
f 159 165 160
f 159 225 226
f 159 226 227
f 159 227 228
f 159 228 229
f 159 229 166
f 159 166 165
f 163 182 164
f 164 182 223
f 166 230 167
f 166 229 228
f 166 228 231
f 166 231 232
f 166 232 233
f 166 233 234
f 166 234 230
f 167 230 168
f 169 173 235
f 169 235 236
f 169 236 170
f 170 237 171
f 170 236 238
f 170 238 237
f 171 237 239
f 171 239 174
f 172 240 173
f 173 240 241
f 173 241 235
f 175 242 243
f 175 243 176
f 176 243 244
f 176 244 177
f 177 245 246
f 177 246 178
f 177 244 245
f 178 246 179
f 179 247 248
f 179 248 180
f 179 246 247
f 180 248 249
f 180 249 181
f 182 221 223
f 183 250 184
f 184 250 251
f 184 251 252
f 184 252 185
f 185 252 253
f 185 253 186
f 186 253 254
f 186 254 187
f 187 254 188
f 188 254 255
f 188 255 256
f 188 256 257
f 188 257 258
f 188 258 191
f 188 191 192
f 188 192 189
f 189 192 190
f 191 259 193
f 191 258 259
f 193 260 194
f 193 259 260
f 194 260 195
f 195 261 199
f 195 199 196
f 195 260 262
f 195 262 261
f 197 199 263
f 197 263 198
f 198 263 200
f 199 261 264
f 199 264 265
f 199 265 263
f 200 266 201
f 200 263 266
f 201 266 202
f 202 267 203
f 202 266 267
f 203 267 204
f 204 268 205
f 204 267 268
f 205 268 206
f 206 268 269
f 206 269 207
f 207 269 208
f 208 269 209
f 209 270 271
f 209 271 211
f 209 211 210
f 209 269 272
f 209 272 270
f 211 273 212
f 211 271 273
f 212 273 213
f 213 273 214
f 214 274 275
f 214 275 218
f 214 218 215
f 214 273 276
f 214 276 274
f 215 218 216
f 217 218 219
f 218 277 278
f 218 278 219
f 218 275 279
f 218 279 280
f 218 280 277
f 219 278 222
f 220 222 281
f 220 281 221
f 221 281 223
f 222 224 281
f 222 278 282
f 222 282 224
f 223 281 224
f 224 282 278
f 224 278 283
f 224 283 226
f 224 226 225
f 226 283 227
f 227 283 284
f 227 284 228
f 228 285 286
f 228 286 287
f 228 287 288
f 228 288 231
f 228 284 285
f 231 288 289
f 231 289 232
f 232 290 291
f 232 291 233
f 232 289 292
f 232 292 290
f 235 241 293
f 235 293 294
f 235 294 236
f 236 294 295
f 236 295 238
f 237 238 296
f 237 296 297
f 237 297 239
f 238 295 298
f 238 298 296
f 240 299 241
f 241 299 300
f 241 300 301
f 241 301 302
f 241 302 293
f 242 303 304
f 242 304 243
f 243 304 305
f 243 305 244
f 244 305 306
f 244 306 245
f 245 306 307
f 245 307 308
f 245 308 246
f 246 308 247
f 247 308 309
f 247 309 310
f 247 310 248
f 248 310 311
f 248 311 312
f 248 312 313
f 248 313 249
f 249 313 314
f 250 315 251
f 251 315 316
f 251 316 317
f 251 317 318
f 251 318 319
f 251 319 320
f 251 320 252
f 252 320 321
f 252 321 253
f 253 321 322
f 253 322 254
f 254 322 255
f 255 322 323
f 255 323 324
f 255 324 256
f 256 324 325
f 256 325 326
f 256 326 259
f 256 259 257
f 257 259 258
f 259 327 260
f 259 326 328
f 259 328 327
f 260 327 262
f 261 262 329
f 261 329 264
f 262 327 329
f 263 265 330
f 263 330 331
f 263 331 266
f 264 332 330
f 264 330 265
f 264 329 332
f 266 331 333
f 266 333 334
f 266 334 267
f 267 334 335
f 267 335 336
f 267 336 268
f 268 336 337
f 268 337 338
f 268 338 269
f 269 338 339
f 269 339 272
f 270 340 271
f 270 272 341
f 270 341 340
f 271 340 342
f 271 342 273
f 272 339 341
f 273 342 343
f 273 343 276
f 274 344 275
f 274 276 345
f 274 345 344
f 275 344 279
f 276 343 345
f 277 280 283
f 277 283 278
f 279 344 280
f 280 344 283
f 283 344 285
f 283 285 284
f 285 344 286
f 286 344 346
f 286 346 347
f 286 347 287
f 287 347 348
f 287 348 289
f 287 289 288
f 289 348 349
f 289 349 350
f 289 350 292
f 293 302 351
f 293 351 352
f 293 352 294
f 294 353 295
f 294 352 353
f 295 353 354
f 295 354 298
f 296 305 304
f 296 304 355
f 296 355 297
f 296 298 305
f 298 354 307
f 298 307 306
f 298 306 305
f 301 356 357
f 301 357 302
f 302 357 358
f 302 358 359
f 302 359 351
f 303 355 304
f 307 354 360
f 307 360 361
f 307 361 309
f 307 309 308
f 309 361 362
f 309 362 363
f 309 363 311
f 309 311 310
f 311 363 364
f 311 364 319
f 311 319 312
f 312 319 318
f 312 318 317
f 312 317 365
f 312 365 314
f 312 314 313
f 319 364 320
f 320 366 321
f 320 364 366
f 321 366 367
f 321 367 368
f 321 368 322
f 322 368 369
f 322 369 323
f 323 369 324
f 324 369 370
f 324 370 371
f 324 371 325
f 325 372 373
f 325 373 326
f 325 371 372
f 326 373 328
f 327 374 375
f 327 375 376
f 327 376 329
f 327 328 377
f 327 377 374
f 328 378 377
f 328 373 372
f 328 372 378
f 329 376 379
f 329 379 380
f 329 380 332
f 330 381 333
f 330 333 331
f 330 332 382
f 330 382 381
f 332 380 383
f 332 383 382
f 333 381 384
f 333 384 385
f 333 385 335
f 333 335 334
f 335 385 386
f 335 386 387
f 335 387 337
f 335 337 336
f 337 387 388
f 337 388 389
f 337 389 339
f 337 339 338
f 339 389 390
f 339 390 341
f 340 341 391
f 340 391 392
f 340 392 393
f 340 393 343
f 340 343 342
f 341 390 391
f 343 393 394
f 343 394 345
f 344 345 346
f 345 394 347
f 345 347 346
f 347 394 395
f 347 395 396
f 347 396 348
f 348 396 349
f 349 397 398
f 349 398 399
f 349 399 350
f 349 396 397
f 351 359 400
f 351 400 401
f 351 401 352
f 352 401 402
f 352 402 403
f 352 403 353
f 353 360 354
f 353 403 360
f 356 404 358
f 356 358 357
f 358 404 405
f 358 405 406
f 358 406 407
f 358 407 359
f 359 407 400
f 360 403 408
f 360 408 361
f 361 408 362
f 362 408 409
f 362 409 410
f 362 410 363
f 363 410 364
f 364 410 366
f 366 410 367
f 367 410 409
f 367 409 411
f 367 411 412
f 367 412 368
f 368 412 369
f 369 412 370
f 370 412 413
f 370 413 414
f 370 414 371
f 371 414 415
f 371 415 416
f 371 416 372
f 372 416 417
f 372 417 418
f 372 418 378
f 374 377 419
f 374 419 375
f 375 419 420
f 375 420 421
f 375 421 422
f 375 422 379
f 375 379 376
f 377 378 419
f 378 418 419
f 379 422 423
f 379 423 383
f 379 383 380
f 381 382 424
f 381 424 384
f 382 383 424
f 383 425 426
f 383 426 427
f 383 427 424
f 383 423 425
f 384 428 385
f 384 424 428
f 385 428 386
f 386 429 387
f 386 428 429
f 387 429 388
f 388 429 430
f 388 430 389
f 389 430 390
f 390 430 391
f 391 431 432
f 391 432 433
f 391 433 434
f 391 434 435
f 391 435 392
f 391 430 431
f 392 395 393
f 392 435 395
f 393 395 394
f 395 435 436
f 395 436 397
f 395 397 396
f 397 436 434
f 397 434 437
f 397 437 398
f 400 402 401
f 400 407 438
f 400 438 439
f 400 439 402
f 402 440 403
f 402 439 441
f 402 441 411
f 402 411 440
f 403 440 408
f 405 442 443
f 405 443 406
f 406 443 444
f 406 444 438
f 406 438 407
f 408 440 409
f 409 440 411
f 411 441 412
f 412 441 413
f 413 441 414
f 414 441 445
f 414 445 446
f 414 446 415
f 415 447 416
f 415 446 447
f 416 447 417
f 417 447 448
f 417 448 449
f 417 449 450
f 417 450 419
f 417 419 418
f 419 450 451
f 419 451 452
f 419 452 420
f 420 452 421
f 421 453 454
f 421 454 455
f 421 455 422
f 421 452 456
f 421 456 457
f 421 457 453
f 422 455 423
f 423 455 425
f 424 458 459
f 424 459 428
f 424 427 458
f 425 455 426
f 426 460 461
f 426 461 462
f 426 462 458
f 426 458 427
f 426 455 463
f 426 463 464
f 426 464 460
f 428 459 465
f 428 465 466
f 428 466 429
f 429 466 467
f 429 467 468
f 429 468 430
f 430 468 469
f 430 469 431
f 431 469 432
f 432 470 434
f 432 434 433
f 432 469 471
f 432 471 472
f 432 472 473
f 432 473 470
f 434 470 474
f 434 474 475
f 434 475 476
f 434 476 437
f 434 436 435
f 438 444 446
f 438 446 445
f 438 445 439
f 439 445 441
f 442 477 443
f 443 477 478
f 443 478 479
f 443 479 480
f 443 480 444
f 444 480 446
f 446 480 447
f 447 480 479
f 447 479 448
f 448 481 449
f 448 479 481
f 449 451 450
f 449 481 451
f 451 481 456
f 451 456 452
f 454 482 455
f 455 482 463
f 456 483 457
f 456 481 483
f 458 462 459
f 459 462 465
f 461 484 462
f 462 484 485
f 462 485 486
f 462 486 465
f 465 486 467
f 465 467 466
f 467 471 468
f 467 486 471
f 468 471 469
f 471 486 487
f 471 487 488
f 471 488 489
f 471 489 490
f 471 490 472
f 478 491 479
f 479 491 492
f 479 492 481
f 481 492 493
f 481 493 494
f 481 494 483
f 485 495 486
f 486 495 487
