v -0.48102283 0.38981318 0.10872949
v -0.48005164 0.40981370 0.10872949
v -0.44461736 0.46833801 -0.11767434
v -0.44461736 0.45970142 -0.12025699
v -0.44461736 0.25901419 -0.12025699
v -0.48046368 0.37015355 0.10872949
v -0.42545813 0.34947118 0.14897144
v -0.42545813 0.34992576 0.14897144
v -0.42516384 0.36935809 0.14897144
v -0.41624641 0.60970545 0.14897144
v -0.44461736 0.48436117 -0.10460296
v -0.41462773 0.62993330 0.14897144
v -0.41963091 0.63709253 0.11771607
v -0.42063153 0.64163816 0.10438114
v -0.42157331 0.64402455 0.08999208
v -0.42272109 0.64686555 0.06993698
v -0.42851889 0.62981963 0.04996094
v -0.42978442 0.62981963 0.02995856
v -0.43049073 0.62981963 0.00998253
v -0.43063790 0.62981963 -0.00999351
v -0.43019643 0.62981963 -0.02996954
v -0.42922524 0.62981963 -0.04997193
v -0.42775372 0.62981963 -0.06997432
v -0.42578188 0.62981963 -0.08997670
v -0.42180875 0.62981963 -0.12025699
v -0.41415685 -0.42316324 -0.12025699
v -0.45197499 -0.34986582 0.10872949
v -0.42484009 0.32981157 0.14897144
v -0.42330971 0.62981963 -0.10997909
v -0.42027837 0.64072901 -0.12025699
v -0.40933025 0.64891106 0.14897144
v -0.40906537 0.64982015 0.14897144
v -0.41268533 0.64982015 0.12999684
v -0.41639355 0.64891106 0.11062694
v -0.41651127 0.64936560 0.10872949
v -0.41721761 0.65402484 0.08999208
v -0.41845369 0.65686584 0.06993698
v -0.41948375 0.65891135 0.04996094
v -0.42363346 0.64891106 0.04996094
v -0.42522269 0.64993382 0.00998253
v -0.42534041 0.64993382 -0.00999351
v -0.42489895 0.64993382 -0.02996954
v -0.42322141 0.64788830 -0.06997432
v -0.42222080 0.64550185 -0.08997670
v -0.42101413 0.64243358 -0.10997909
v -0.36474308 -0.48032385 -0.12025699
v -0.41415685 -0.42759520 -0.11493357
v -0.45038575 -0.36986634 0.10872949
v -0.38584474 -0.24986312 0.14897144
v -0.38740456 -0.22986257 0.14897144
v -0.38881722 -0.21088481 0.14897144
v -0.39158368 -0.17088372 0.14897144
v -0.39299634 -0.14986044 0.14897144
v -0.41651127 0.65254754 -0.10997909
v -0.41595209 0.65027475 -0.12025699
v -0.40279669 0.66197962 0.14897144
v -0.40235522 0.66266143 0.14897144
v -0.40415049 0.66447967 0.12999684
v -0.40579858 0.66607058 0.10999446
v -0.41995466 0.65982044 0.03968304
v -0.42360401 0.65186566 0.03180331
v -0.42030782 0.66038865 0.02634811
v -0.42057270 0.66072953 0.00998253
v -0.42063153 0.66072953 -0.00999351
v -0.42039609 0.66050225 -0.02996954
v -0.42010179 0.66016138 -0.04222397
v -0.42325085 0.65152478 -0.04931309
v -0.41960147 0.65925223 -0.05555889
v -0.41895401 0.65788859 -0.06997432
v -0.41783565 0.65561581 -0.08997670
v -0.18036126 -0.48032385 -0.12025699
v -0.36483139 -0.48032385 -0.12009887
v -0.41415685 -0.43032253 -0.11140218
v -0.41415685 -0.42929977 -0.11277257
v -0.41415685 -0.43282259 0.08999208
v -0.43608254 -0.38952598 0.10872949
v -0.35803294 -0.42054951 0.14897144
v -0.35935733 -0.41714036 0.14897144
v -0.36197662 -0.40986741 0.14897144
v -0.36335987 -0.40589005 0.14897144
v -0.36718583 -0.39236695 0.14897144
v -0.37716275 -0.32861525 0.14897144
v -0.37928176 -0.31463760 0.14897144
v -0.37981150 -0.31043294 0.14897144
v -0.38045895 -0.30520552 0.14897144
v -0.38204822 -0.29145515 0.14897144
v -0.38413778 -0.26986367 0.14897144
v -0.41415685 -0.43861818 -0.09624886
v -0.41415685 -0.44248194 -0.08810560
v -0.41415685 -0.44361836 -0.08481140
v -0.41415685 -0.44657296 -0.07532410
v -0.41415685 -0.44793665 -0.07055409
v -0.41415685 -0.45214128 -0.04997193
v -0.41415685 -0.45441407 -0.02996954
v -0.41415685 -0.45509589 -0.01028340
v -0.41415685 -0.45509589 -0.00999351
v -0.41415685 -0.45486861 0.00252446
v -0.41415685 -0.45464134 0.00998253
v -0.41415685 -0.45282310 0.02995856
v -0.41415685 -0.44998217 0.04561260
v -0.41415685 -0.44918668 0.04996094
v -0.41415685 -0.44498199 0.06442907
v -0.41415685 -0.44214100 0.07157090
v -0.40571028 0.66584331 -0.12025699
v -0.38987672 0.67209351 0.14897144
v -0.38919979 0.67254806 0.14897144
v -0.39037701 0.67607087 0.10872949
v -0.40721124 0.66709334 0.08999208
v -0.40844733 0.66777521 0.06993698
v -0.40947741 0.66822976 0.04996094
v -0.41194955 0.66720700 0.03180331
v -0.40997770 0.66970706 0.00998253
v -0.40997770 0.66970706 -0.00999351
v -0.40997770 0.66925251 -0.02996954
v -0.41177297 0.66686606 -0.04931309
v -0.40894765 0.66800249 -0.06997432
v -0.40782928 0.66743428 -0.08997670
v -0.40650493 0.66652519 -0.10997909
v -0.18100873 -0.48032385 0.10872949
v -0.28301471 0.50993001 -0.12025699
v -0.27436215 0.50993001 0.14897144
v -0.27244917 0.48981586 0.14897144
v -0.36939311 -0.48032385 -0.10997909
v -0.41415685 -0.42407233 0.10208838
v -0.37148267 -0.48032385 0.08999208
v -0.36403677 -0.48032385 0.10530352
v -0.39858812 -0.42054951 0.11863844
v -0.39926502 -0.41850400 0.11942905
v -0.37145323 -0.46850538 0.10872949
v -0.21176356 -0.42054951 0.14897144
v -0.36165291 -0.48032385 0.10872949
v -0.37451401 -0.48032385 -0.09580085
v -0.37657413 -0.48032385 -0.08973952
v -0.37945834 -0.48032385 -0.08001504
v -0.37960547 -0.48032385 -0.07938255
v -0.38213649 -0.48032385 -0.06694365
v -0.38257796 -0.48032385 -0.06446641
v -0.38490295 -0.48032385 -0.04997193
v -0.38543272 -0.48032385 -0.04472756
v -0.38687479 -0.48032385 -0.02996954
v -0.38716912 -0.48032385 -0.02298583
v -0.38769886 -0.48032385 -0.00999351
v -0.38731626 -0.48032385 0.00998253
v -0.38575643 -0.48032385 0.02995856
v -0.38284284 -0.48032385 0.04996094
v -0.38054726 -0.48032385 0.06176736
v -0.37716275 -0.48032385 0.07396908
v -0.38911152 0.67641181 -0.12025699
v -0.38796374 0.67550266 0.12807304
v -0.37569124 0.67925280 0.14897144
v -0.37998807 0.67982095 0.12014060
v -0.39105392 0.67698002 0.08999208
v -0.39178967 0.67777544 0.06993698
v -0.39246660 0.67834365 0.04996094
v -0.39308465 0.67868459 0.02995856
v -0.39329064 0.67879820 0.00998253
v -0.39308465 0.67879820 -0.00999351
v -0.39267260 0.67879820 -0.02996954
v -0.39223114 0.67845732 -0.04997193
v -0.39170140 0.67811638 -0.06997432
v -0.39102450 0.67743456 -0.08997670
v -0.39040646 0.67652541 -0.10997909
v -0.27065390 0.46981531 0.14897144
v -0.26906466 0.44981480 0.14897144
v -0.26765200 0.42981425 0.14897144
v -0.28395647 0.51868027 -0.12025699
v -0.28513369 0.52924871 -0.12025699
v -0.27668715 0.53061241 0.14897144
v -0.38010579 0.67993462 -0.12025699
v -0.36633235 0.68050283 0.14897144
v -0.38101813 0.67982095 0.10872949
v -0.37966433 0.68004823 0.10872949
v -0.38104758 0.68016189 0.08999208
v -0.38178334 0.68027556 0.06993698
v -0.38248965 0.68038917 0.04996094
v -0.38304883 0.68038917 0.02995856
v -0.38325486 0.68038917 0.00998253
v -0.38169503 0.68027556 -0.06997432
v -0.38101813 0.68016189 -0.08997670
v -0.28778243 0.54993111 -0.12025699
v -0.27918875 0.54981744 0.14897144
v -0.36998171 0.68038917 -0.10997909
v -0.37030545 0.68027556 -0.12025699
v -0.34993958 0.68050283 0.14897144
v -0.36998171 0.68061644 0.06993698
v -0.29081377 0.56993163 -0.12025699
v -0.28233781 0.57072711 0.14897144
v -0.35720891 0.68027556 -0.12025699
v -0.34684938 0.68016189 0.14897144
v -0.29452202 0.59084129 -0.12025699
v -0.28254381 0.57197714 0.14897144
v -0.34234652 0.67959368 0.14512381
v -0.34723198 0.67868459 -0.12025699
v -0.33563638 0.67709363 0.14897144
v -0.29811254 0.60754633 -0.12025699
v -0.28578117 0.58981860 0.14897144
v -0.33172211 0.67538905 0.14897144
v -0.33872658 0.67459357 -0.12025699
v -0.29884830 0.61095548 -0.12025699
v -0.29019573 0.60970545 0.14897144
v -0.31524107 0.66470695 0.14897144
v -0.32919109 0.66913885 -0.12025699
v -0.30052584 0.61731929 -0.12025699
v -0.29043117 0.61061460 0.14897144
v -0.30444008 0.64925200 0.14897144
v -0.31909645 0.66095686 -0.12025699
v -0.32312843 0.66447967 -0.12025699
v -0.30417520 0.62981963 -0.12025699
v -0.29643500 0.63118333 0.14897144
v -0.31306320 0.65050203 -0.12025699
v -0.30858979 0.64016080 -0.12025699
f 1 2 3
f 1 3 4
f 1 4 5
f 1 5 6
f 1 6 7
f 1 7 8
f 1 8 9
f 1 9 10
f 1 10 2
f 2 11 3
f 2 10 12
f 2 12 13
f 2 13 14
f 2 14 15
f 2 15 16
f 2 16 17
f 2 17 18
f 2 18 19
f 2 19 20
f 2 20 21
f 2 21 22
f 2 22 23
f 2 23 24
f 2 24 11
f 3 11 25
f 3 25 4
f 4 25 30
f 4 30 55
f 4 55 104
f 4 104 148
f 4 148 169
f 4 169 183
f 4 183 188
f 4 188 193
f 4 193 198
f 4 198 202
f 4 202 207
f 4 207 206
f 4 206 210
f 4 210 211
f 4 211 208
f 4 208 203
f 4 203 199
f 4 199 195
f 4 195 190
f 4 190 186
f 4 186 180
f 4 180 167
f 4 167 166
f 4 166 120
f 4 120 71
f 4 71 46
f 4 46 26
f 4 26 5
f 5 26 27
f 5 27 6
f 6 28 7
f 6 27 28
f 7 28 53
f 7 53 52
f 7 52 51
f 7 51 50
f 7 50 49
f 7 49 87
f 7 87 86
f 7 86 85
f 7 85 84
f 7 84 83
f 7 83 82
f 7 82 81
f 7 81 80
f 7 80 79
f 7 79 78
f 7 78 77
f 7 77 130
f 7 130 165
f 7 165 164
f 7 164 163
f 7 163 122
f 7 122 121
f 7 121 168
f 7 168 181
f 7 181 187
f 7 187 191
f 7 191 196
f 7 196 200
f 7 200 204
f 7 204 209
f 7 209 205
f 7 205 201
f 7 201 197
f 7 197 194
f 7 194 189
f 7 189 184
f 7 184 170
f 7 170 150
f 7 150 106
f 7 106 105
f 7 105 57
f 7 57 56
f 7 56 32
f 7 32 31
f 7 31 12
f 7 12 10
f 7 10 9
f 7 9 8
f 11 24 29
f 11 29 30
f 11 30 25
f 12 31 13
f 13 31 32
f 13 32 14
f 14 32 33
f 14 33 34
f 14 34 35
f 14 35 36
f 14 36 15
f 15 36 37
f 15 37 16
f 16 37 38
f 16 38 39
f 16 39 17
f 17 39 18
f 18 39 40
f 18 40 19
f 19 40 20
f 20 40 41
f 20 41 42
f 20 42 21
f 21 42 22
f 22 42 43
f 22 43 23
f 23 43 44
f 23 44 45
f 23 45 24
f 24 45 30
f 24 30 29
f 26 46 47
f 26 47 48
f 26 48 27
f 27 48 49
f 27 49 50
f 27 50 51
f 27 51 52
f 27 52 53
f 27 53 28
f 30 45 54
f 30 54 55
f 32 56 33
f 33 56 36
f 33 36 35
f 33 35 34
f 36 56 57
f 36 57 58
f 36 58 37
f 37 58 59
f 37 59 38
f 38 60 39
f 38 59 60
f 39 60 61
f 39 61 40
f 40 61 62
f 40 62 63
f 40 63 41
f 41 63 64
f 41 64 65
f 41 65 42
f 42 65 66
f 42 66 67
f 42 67 43
f 43 67 68
f 43 68 69
f 43 69 44
f 44 69 70
f 44 70 45
f 45 70 54
f 46 71 119
f 46 119 131
f 46 131 126
f 46 126 125
f 46 125 147
f 46 147 146
f 46 146 145
f 46 145 144
f 46 144 143
f 46 143 142
f 46 142 141
f 46 141 140
f 46 140 139
f 46 139 138
f 46 138 137
f 46 137 136
f 46 136 135
f 46 135 134
f 46 134 133
f 46 133 132
f 46 132 123
f 46 123 72
f 46 72 73
f 46 73 74
f 46 74 47
f 47 74 48
f 48 75 76
f 48 76 77
f 48 77 78
f 48 78 79
f 48 79 80
f 48 80 81
f 48 81 82
f 48 82 83
f 48 83 84
f 48 84 85
f 48 85 86
f 48 86 87
f 48 87 49
f 48 74 73
f 48 73 88
f 48 88 89
f 48 89 90
f 48 90 91
f 48 91 92
f 48 92 93
f 48 93 94
f 48 94 95
f 48 95 96
f 48 96 97
f 48 97 98
f 48 98 99
f 48 99 100
f 48 100 101
f 48 101 102
f 48 102 103
f 48 103 75
f 54 70 104
f 54 104 55
f 57 105 58
f 58 105 59
f 59 105 106
f 59 106 107
f 59 107 108
f 59 108 60
f 60 62 61
f 60 108 109
f 60 109 110
f 60 110 62
f 62 110 111
f 62 111 112
f 62 112 63
f 63 112 64
f 64 112 113
f 64 113 65
f 65 113 114
f 65 114 115
f 65 115 66
f 66 68 67
f 66 115 116
f 66 116 117
f 66 117 68
f 68 117 118
f 68 118 69
f 69 118 104
f 69 104 70
f 71 120 121
f 71 121 122
f 71 122 119
f 72 123 88
f 72 88 73
f 75 124 76
f 75 103 125
f 75 125 126
f 75 126 124
f 76 127 128
f 76 128 77
f 76 124 129
f 76 129 127
f 77 128 131
f 77 131 119
f 77 119 130
f 88 123 89
f 89 123 132
f 89 132 133
f 89 133 90
f 90 133 91
f 91 133 134
f 91 134 92
f 92 134 135
f 92 135 93
f 93 135 136
f 93 136 137
f 93 137 138
f 93 138 94
f 94 138 139
f 94 139 140
f 94 140 141
f 94 141 142
f 94 142 95
f 95 142 96
f 96 142 97
f 97 142 143
f 97 143 98
f 98 143 144
f 98 144 99
f 99 144 145
f 99 145 100
f 100 145 101
f 101 145 146
f 101 146 147
f 101 147 102
f 102 147 125
f 102 125 103
f 104 118 148
f 106 149 107
f 106 150 149
f 107 149 151
f 107 151 152
f 107 152 109
f 107 109 108
f 109 152 153
f 109 153 110
f 110 112 111
f 110 153 154
f 110 154 112
f 112 154 155
f 112 155 156
f 112 156 113
f 113 156 157
f 113 157 158
f 113 158 114
f 114 116 115
f 114 158 159
f 114 159 160
f 114 160 116
f 116 160 161
f 116 161 117
f 117 161 162
f 117 162 118
f 118 162 148
f 119 122 163
f 119 163 164
f 119 164 165
f 119 165 130
f 120 166 121
f 121 166 167
f 121 167 168
f 124 126 131
f 124 131 129
f 127 129 131
f 127 131 128
f 148 162 169
f 149 150 151
f 150 170 151
f 151 171 155
f 151 155 154
f 151 154 153
f 151 153 152
f 151 170 172
f 151 172 173
f 151 173 171
f 155 171 173
f 155 173 174
f 155 174 175
f 155 175 156
f 156 175 176
f 156 176 177
f 156 177 157
f 157 177 158
f 158 169 159
f 158 177 178
f 158 178 179
f 158 179 169
f 159 169 160
f 160 169 161
f 161 169 162
f 167 180 168
f 168 180 181
f 169 179 182
f 169 182 183
f 170 184 185
f 170 185 175
f 170 175 174
f 170 174 173
f 170 173 172
f 175 185 176
f 176 185 177
f 177 185 182
f 177 182 178
f 178 182 179
f 180 186 187
f 180 187 181
f 182 185 188
f 182 188 183
f 184 189 188
f 184 188 185
f 186 190 191
f 186 191 187
f 188 189 192
f 188 192 193
f 189 194 192
f 190 195 196
f 190 196 191
f 192 194 193
f 193 194 197
f 193 197 198
f 195 199 196
f 196 199 200
f 197 201 202
f 197 202 198
f 199 203 204
f 199 204 200
f 201 205 206
f 201 206 207
f 201 207 202
f 203 208 209
f 203 209 204
f 205 209 210
f 205 210 206
f 208 211 209
f 209 211 210
