v 0.29000539 -0.30869213 -0.70227623
v 0.31002176 -0.30869213 -0.70190793
v 0.29000539 -0.31000912 -0.70211512
v 0.27001274 -0.30869213 -0.70204604
v 0.31002176 -0.31000912 -0.70174682
v 0.32863724 -0.30869213 -0.70107937
v 0.32087287 -0.32033721 -0.70004362
v 0.31002176 -0.32155025 -0.70022774
v 0.29000539 -0.32267660 -0.70041192
v 0.27001274 -0.32194880 -0.70029682
v 0.27001274 -0.31000912 -0.70188493
v 0.26870680 -0.30869213 -0.70200002
v 0.33333862 -0.30869213 -0.70078015
v 0.32851851 -0.31045967 -0.70087218
v 0.33421713 -0.31740862 -0.69965231
v 0.32851851 -0.32820457 -0.69838643
v 0.31002176 -0.33154905 -0.69866264
v 0.29000539 -0.33267546 -0.69884676
v 0.27001274 -0.33194762 -0.69873166
v 0.25785568 -0.32075310 -0.70011270
v 0.25070867 -0.31092757 -0.70103335
v 0.25063744 -0.30869213 -0.70128649
v 0.35010204 -0.30869213 -0.69958329
v 0.35164541 -0.31045967 -0.69921505
v 0.34998330 -0.33000678 -0.69661415
v 0.32999066 -0.35000443 -0.69463480
v 0.31002176 -0.35000443 -0.69553238
v 0.29000539 -0.35000443 -0.69587767
v 0.27001274 -0.35000443 -0.69562447
v 0.25002009 -0.35000443 -0.69481891
v 0.25070867 -0.32844716 -0.69852453
v 0.24451143 -0.31818840 -0.69974440
v 0.23458633 -0.30869213 -0.70029682
v 0.24375162 -0.30869213 -0.70087218
v 0.35288012 -0.30869213 -0.69933009
v 0.36867002 -0.30869213 -0.69776499
v 0.36999971 -0.33000678 -0.69463480
v 0.34998330 -0.35000443 -0.69323075
v 0.32999066 -0.37000206 -0.69060689
v 0.31002176 -0.37000206 -0.69150454
v 0.29000539 -0.37000206 -0.69184977
v 0.27001274 -0.37000206 -0.69159663
v 0.25002009 -0.37000206 -0.69076800
v 0.23000370 -0.35000443 -0.69346094
v 0.23000370 -0.33000678 -0.69691336
v 0.23000370 -0.31430674 -0.69923806
v 0.23000370 -0.30869213 -0.69997460
v 0.38866267 -0.30869213 -0.69521016
v 0.36999971 -0.31000912 -0.69744277
v 0.36999971 -0.35000443 -0.69125134
v 0.38999236 -0.33000678 -0.69207996
v 0.34998330 -0.37000206 -0.68917990
v 0.32999066 -0.39001703 -0.68584251
v 0.31002176 -0.39001703 -0.68674016
v 0.29000539 -0.39001703 -0.68710840
v 0.27001274 -0.39001703 -0.68685520
v 0.25002009 -0.39001703 -0.68600363
v 0.23000370 -0.37000206 -0.68938702
v 0.21001107 -0.35000443 -0.69159663
v 0.21001107 -0.33000678 -0.69504905
v 0.21134073 -0.30869213 -0.69827133
v 0.22537357 -0.30869213 -0.69960630
v 0.38999236 -0.30869213 -0.69502604
v 0.38999236 -0.31000912 -0.69488794
v 0.38999236 -0.35000443 -0.68867350
v 0.38999236 -0.37000206 -0.68464565
v 0.36999971 -0.37000206 -0.68720049
v 0.40998498 -0.33000678 -0.68890369
v 0.34998330 -0.39001703 -0.68441546
v 0.34998330 -0.40308309 -0.68091697
v 0.32999066 -0.40547448 -0.68163049
v 0.31002176 -0.40698212 -0.68209082
v 0.29000539 -0.40757132 -0.68227494
v 0.27001274 -0.40713808 -0.68213683
v 0.25002009 -0.40575176 -0.68172258
v 0.23000370 -0.40339503 -0.68100905
v 0.23000370 -0.39001703 -0.68459964
v 0.21001107 -0.37000206 -0.68747663
v 0.19246407 -0.35246515 -0.68894970
v 0.19246407 -0.35000443 -0.68945611
v 0.19246407 -0.33000678 -0.69293153
v 0.19246407 -0.30983585 -0.69587767
v 0.20901379 -0.30869213 -0.69799519
v 0.40867907 -0.30869213 -0.69207996
v 0.40998498 -0.30869213 -0.69187278
v 0.40998498 -0.31000912 -0.69171166
v 0.40998498 -0.35000443 -0.68549722
v 0.40910643 -0.36969015 -0.68165350
v 0.40186447 -0.38133523 -0.68031853
v 0.38999236 -0.38478369 -0.68121618
v 0.36976224 -0.39103946 -0.68220592
v 0.42997763 -0.31000912 -0.68800604
v 0.42997763 -0.33000678 -0.68517500
v 0.36292392 -0.40110758 -0.68031853
v 0.34998330 -0.41308191 -0.67787880
v 0.32999066 -0.41547331 -0.67861533
v 0.31002176 -0.41699827 -0.67907566
v 0.29000539 -0.41757011 -0.67923677
v 0.27001274 -0.41713691 -0.67912173
v 0.25002009 -0.41575059 -0.67868441
v 0.23000370 -0.41339386 -0.67797089
v 0.21632703 -0.40131554 -0.68038762
v 0.20979735 -0.39126474 -0.68234402
v 0.19246407 -0.38617000 -0.68151540
v 0.19246407 -0.37000206 -0.68533611
v 0.19246407 -0.30869213 -0.69601578
v 0.42867169 -0.30869213 -0.68839729
v 0.42985892 -0.34976181 -0.68181461
v 0.42311555 -0.36281055 -0.68061775
v 0.41520873 -0.37615386 -0.67912173
v 0.38999236 -0.39478251 -0.67863834
v 0.40910643 -0.38880402 -0.67709625
v 0.37626818 -0.39836961 -0.67955899
v 0.42997763 -0.30869213 -0.68814415
v 0.43470272 -0.30869213 -0.68713140
v 0.43501142 -0.31000912 -0.68692428
v 0.43501142 -0.32952157 -0.68416232
v 0.43501142 -0.33529210 -0.68328768
v 0.36976224 -0.40866303 -0.67725736
v 0.36999971 -0.42999500 -0.67023736
v 0.34998330 -0.42999500 -0.67223978
v 0.32999066 -0.42999500 -0.67368984
v 0.31002176 -0.42999500 -0.67463350
v 0.29000539 -0.42999500 -0.67497873
v 0.27001274 -0.42999500 -0.67470253
v 0.25002009 -0.42999500 -0.67387396
v 0.23000370 -0.42999500 -0.67242396
v 0.21001107 -0.42999500 -0.67044449
v 0.20979735 -0.40878433 -0.67739546
v 0.20298277 -0.39875084 -0.67967409
v 0.19246407 -0.38797224 -0.68105507
v 0.19246407 -0.30869213 -0.55156475
v 0.43501142 -0.34691986 -0.68128526
v 0.43501142 -0.35483921 -0.67981219
v 0.43501142 -0.35915413 -0.67893755
v 0.42985892 -0.36969015 -0.67771769
v 0.42997763 -0.39001703 -0.67276919
v 0.40998498 -0.40999737 -0.67097390
v 0.38999236 -0.40999737 -0.67424226
v 0.43501142 -0.30869213 -0.68706238
v 0.38999236 -0.42999500 -0.66765952
v 0.38999236 -0.44501925 -0.66204351
v 0.36999971 -0.44813845 -0.66333246
v 0.35107553 -0.45179486 -0.66374671
v 0.32999066 -0.44999266 -0.66604841
v 0.31002176 -0.44999266 -0.66699207
v 0.29000539 -0.44999266 -0.66733730
v 0.27001274 -0.44999266 -0.66708410
v 0.25002009 -0.44999266 -0.66623253
v 0.22850782 -0.45188153 -0.66386181
v 0.21001107 -0.44839838 -0.66344750
v 0.19246407 -0.44569507 -0.66234273
v 0.19246407 -0.42999500 -0.66823494
v 0.19246407 -0.41245806 -0.67403507
v 0.19246407 -0.40984139 -0.67488670
v 0.19246407 -0.39608219 -0.67896056
v 0.19246407 -0.48572502 -0.47954643
v 0.43501142 -0.48567301 -0.46716359
v 0.43501142 -0.30869213 -0.54116136
v 0.43501142 -0.36977679 -0.67656690
v 0.42997763 -0.40999737 -0.66713017
v 0.43501142 -0.39001703 -0.67166436
v 0.42997763 -0.42585337 -0.66202050
v 0.41100597 -0.43148530 -0.66370070
v 0.40499869 -0.44219461 -0.66089272
v 0.38999236 -0.45501804 -0.65790057
v 0.36999971 -0.45813727 -0.65921253
v 0.35846001 -0.45967954 -0.65985698
v 0.34511575 -0.46092725 -0.66043240
v 0.32999066 -0.46205363 -0.66096175
v 0.31002176 -0.46305871 -0.66144508
v 0.29000539 -0.46345729 -0.66160619
v 0.27001274 -0.46319735 -0.66146815
v 0.25002009 -0.46227890 -0.66105384
v 0.23415893 -0.46111786 -0.66050142
v 0.22083843 -0.45981818 -0.65992600
v 0.21001107 -0.45839721 -0.65930456
v 0.19246407 -0.44692543 -0.66183639
v 0.19246407 -0.48572502 -0.64340025
v 0.43470272 -0.48572502 -0.46720964
v 0.43501142 -0.48572502 -0.46808425
v 0.43501142 -0.41003203 -0.66597933
v 0.43501142 -0.41469350 -0.66459835
v 0.42997763 -0.43585220 -0.65852201
v 0.41834295 -0.43916205 -0.65969586
v 0.43501142 -0.42431110 -0.66149116
v 0.41100597 -0.44931683 -0.65681881
v 0.40998498 -0.46999031 -0.64761221
v 0.38999236 -0.46999031 -0.65085757
v 0.36999971 -0.46999031 -0.65350443
v 0.35107553 -0.46855199 -0.65617436
v 0.32999066 -0.47205245 -0.65610528
v 0.31002176 -0.47305754 -0.65661168
v 0.29000539 -0.47345608 -0.65681881
v 0.27001274 -0.47319615 -0.65670371
v 0.25002009 -0.47227773 -0.65626639
v 0.22850782 -0.46865597 -0.65638149
v 0.21001107 -0.46999031 -0.65382665
v 0.19246407 -0.46999031 -0.65152502
v 0.19246407 -0.45713219 -0.65750933
v 0.19246407 -0.45569390 -0.65817678
v 0.21001107 -0.48572502 -0.64565587
v 0.43501142 -0.48572502 -0.63405555
v 0.42997763 -0.44999266 -0.65283698
v 0.43501142 -0.43413663 -0.65796959
v 0.43501142 -0.43940464 -0.65592116
v 0.43501142 -0.44999266 -0.65168613
v 0.42883790 -0.47066614 -0.64363039
v 0.42140597 -0.48050898 -0.64029300
v 0.40998498 -0.48236319 -0.64132875
v 0.38999236 -0.48520514 -0.64296293
v 0.38555217 -0.48572502 -0.64326215
v 0.36999971 -0.48572502 -0.64521855
v 0.36819515 -0.48572502 -0.64540267
v 0.34893855 -0.48572502 -0.64724398
v 0.32999066 -0.48572502 -0.64876306
v 0.32493314 -0.48572502 -0.64903927
v 0.34286004 -0.48572502 -0.64775032
v 0.31002176 -0.48572502 -0.64979881
v 0.30484551 -0.48572502 -0.64991391
v 0.29000539 -0.48572502 -0.65023613
v 0.27001274 -0.48572502 -0.65000594
v 0.25002009 -0.48572502 -0.64913130
v 0.23009868 -0.48572502 -0.64756620
v 0.43475023 -0.47778833 -0.63886601
v 0.43501142 -0.47801363 -0.63865888
v 0.43028629 -0.48572502 -0.63520640
v 0.43501142 -0.45354509 -0.65009803
v 0.43501142 -0.46875995 -0.64314705
v 0.42636850 -0.48572502 -0.63608104
v 0.40998498 -0.48572502 -0.63932633
v 0.39141700 -0.48572502 -0.64243352
v 0.38999236 -0.48572502 -0.64266372
v 0.43501142 -0.47771901 -0.63881999
f 1 2 5
f 1 5 3
f 1 3 11
f 1 11 4
f 1 4 12
f 1 12 22
f 1 22 34
f 1 34 33
f 1 33 47
f 1 47 62
f 1 62 61
f 1 61 83
f 1 83 106
f 1 106 132
f 1 132 159
f 1 159 140
f 1 140 115
f 1 115 114
f 1 114 107
f 1 107 85
f 1 85 84
f 1 84 63
f 1 63 48
f 1 48 36
f 1 36 35
f 1 35 23
f 1 23 13
f 1 13 6
f 1 6 2
f 2 6 7
f 2 7 5
f 3 5 8
f 3 8 9
f 3 9 10
f 3 10 11
f 4 11 12
f 5 7 8
f 6 13 14
f 6 14 7
f 7 14 15
f 7 15 16
f 7 16 17
f 7 17 8
f 8 17 18
f 8 18 9
f 9 18 19
f 9 19 10
f 10 19 20
f 10 20 11
f 11 20 12
f 12 20 21
f 12 21 22
f 13 15 14
f 13 23 15
f 15 23 24
f 15 24 25
f 15 25 16
f 16 26 17
f 16 25 26
f 17 27 18
f 17 26 27
f 18 27 28
f 18 28 19
f 19 28 29
f 19 29 30
f 19 30 31
f 19 31 20
f 20 31 32
f 20 32 21
f 21 32 33
f 21 33 34
f 21 34 22
f 23 35 24
f 24 35 36
f 24 36 37
f 24 37 25
f 25 38 26
f 25 37 50
f 25 50 38
f 26 38 39
f 26 39 40
f 26 40 27
f 27 40 41
f 27 41 28
f 28 41 42
f 28 42 29
f 29 42 30
f 30 42 43
f 30 43 44
f 30 44 45
f 30 45 31
f 31 45 32
f 32 45 46
f 32 46 33
f 33 46 47
f 36 48 64
f 36 64 49
f 36 49 37
f 37 49 64
f 37 64 51
f 37 51 50
f 38 52 39
f 38 50 67
f 38 67 52
f 39 52 69
f 39 69 53
f 39 53 54
f 39 54 40
f 40 54 55
f 40 55 41
f 41 55 56
f 41 56 42
f 42 56 43
f 43 56 57
f 43 57 58
f 43 58 44
f 44 58 59
f 44 59 60
f 44 60 45
f 45 60 46
f 46 60 61
f 46 61 62
f 46 62 47
f 48 63 64
f 50 51 65
f 50 65 66
f 50 66 67
f 51 64 86
f 51 86 68
f 51 68 87
f 51 87 65
f 52 67 69
f 53 69 70
f 53 70 71
f 53 71 54
f 54 72 55
f 54 71 72
f 55 72 73
f 55 73 56
f 56 73 74
f 56 74 75
f 56 75 57
f 57 75 76
f 57 76 77
f 57 77 58
f 58 77 78
f 58 78 59
f 59 78 79
f 59 79 80
f 59 80 81
f 59 81 60
f 60 81 82
f 60 82 61
f 61 82 83
f 63 84 64
f 64 84 85
f 64 85 86
f 65 87 66
f 66 87 88
f 66 88 89
f 66 89 90
f 66 90 67
f 67 90 91
f 67 91 69
f 68 86 92
f 68 92 93
f 68 93 87
f 69 91 94
f 69 94 70
f 70 94 95
f 70 95 96
f 70 96 71
f 71 96 97
f 71 97 72
f 72 97 73
f 73 97 98
f 73 98 99
f 73 99 74
f 74 99 75
f 75 99 100
f 75 100 101
f 75 101 76
f 76 101 102
f 76 102 77
f 77 102 103
f 77 103 78
f 78 103 104
f 78 104 105
f 78 105 79
f 79 105 104
f 79 104 131
f 79 131 156
f 79 156 155
f 79 155 154
f 79 154 153
f 79 153 152
f 79 152 178
f 79 178 201
f 79 201 200
f 79 200 199
f 79 199 179
f 79 179 157
f 79 157 132
f 79 132 106
f 79 106 82
f 79 82 81
f 79 81 80
f 82 106 83
f 85 107 92
f 85 92 86
f 87 93 108
f 87 108 109
f 87 109 88
f 88 109 110
f 88 110 89
f 89 111 90
f 89 110 112
f 89 112 111
f 90 111 113
f 90 113 91
f 91 113 94
f 92 114 115
f 92 115 116
f 92 116 117
f 92 117 93
f 92 107 114
f 93 117 118
f 93 118 108
f 94 113 119
f 94 119 95
f 95 119 120
f 95 120 121
f 95 121 96
f 96 121 122
f 96 122 97
f 97 123 98
f 97 122 123
f 98 123 124
f 98 124 99
f 99 124 125
f 99 125 126
f 99 126 100
f 100 126 127
f 100 127 101
f 101 127 128
f 101 128 129
f 101 129 102
f 102 129 130
f 102 130 103
f 103 130 104
f 104 130 131
f 108 118 133
f 108 133 134
f 108 134 109
f 109 134 135
f 109 135 136
f 109 136 110
f 110 136 137
f 110 137 112
f 111 112 138
f 111 138 139
f 111 139 113
f 112 137 138
f 113 139 119
f 115 140 116
f 116 140 159
f 116 159 158
f 116 158 181
f 116 181 203
f 116 203 226
f 116 226 234
f 116 234 229
f 116 229 228
f 116 228 207
f 116 207 206
f 116 206 205
f 116 205 186
f 116 186 183
f 116 183 182
f 116 182 162
f 116 162 160
f 116 160 135
f 116 135 134
f 116 134 133
f 116 133 118
f 116 118 117
f 119 139 120
f 120 139 141
f 120 141 142
f 120 142 143
f 120 143 121
f 121 144 145
f 121 145 122
f 121 143 144
f 122 145 146
f 122 146 123
f 123 146 147
f 123 147 124
f 124 147 148
f 124 148 125
f 125 148 126
f 126 148 149
f 126 149 127
f 127 150 151
f 127 151 128
f 127 149 150
f 128 151 152
f 128 152 153
f 128 153 154
f 128 154 129
f 129 154 155
f 129 155 130
f 130 155 156
f 130 156 131
f 132 157 158
f 132 158 159
f 135 160 136
f 136 160 137
f 137 161 138
f 137 160 162
f 137 162 161
f 138 161 163
f 138 163 164
f 138 164 141
f 138 141 139
f 141 164 165
f 141 165 142
f 142 165 166
f 142 166 167
f 142 167 143
f 143 167 168
f 143 168 144
f 144 168 169
f 144 169 145
f 145 169 170
f 145 170 146
f 146 171 147
f 146 170 171
f 147 171 172
f 147 172 173
f 147 173 148
f 148 173 174
f 148 174 149
f 149 174 175
f 149 175 150
f 150 176 151
f 150 175 176
f 151 176 177
f 151 177 178
f 151 178 152
f 157 179 202
f 157 202 224
f 157 224 223
f 157 223 222
f 157 222 221
f 157 221 220
f 157 220 219
f 157 219 217
f 157 217 216
f 157 216 218
f 157 218 215
f 157 215 214
f 157 214 213
f 157 213 212
f 157 212 233
f 157 233 232
f 157 232 231
f 157 231 230
f 157 230 227
f 157 227 203
f 157 203 181
f 157 181 180
f 157 180 158
f 158 180 181
f 161 162 182
f 161 182 183
f 161 183 163
f 163 184 185
f 163 185 164
f 163 183 186
f 163 186 184
f 164 185 165
f 165 185 187
f 165 187 166
f 166 187 188
f 166 188 189
f 166 189 167
f 167 189 190
f 167 190 168
f 168 191 169
f 168 190 191
f 169 191 192
f 169 192 170
f 170 192 193
f 170 193 171
f 171 193 194
f 171 194 172
f 172 194 195
f 172 195 173
f 173 195 174
f 174 196 175
f 174 195 196
f 175 196 197
f 175 197 176
f 176 197 198
f 176 198 177
f 177 198 199
f 177 199 200
f 177 200 201
f 177 201 178
f 179 199 198
f 179 198 202
f 184 204 185
f 184 186 205
f 184 205 206
f 184 206 207
f 184 207 204
f 185 204 187
f 187 204 188
f 188 204 208
f 188 208 209
f 188 209 210
f 188 210 189
f 189 211 190
f 189 210 211
f 190 211 212
f 190 212 213
f 190 213 214
f 190 214 191
f 191 214 215
f 191 215 192
f 192 216 217
f 192 217 193
f 192 215 218
f 192 218 216
f 193 219 220
f 193 220 221
f 193 221 194
f 193 217 219
f 194 221 222
f 194 222 195
f 195 222 223
f 195 223 196
f 196 223 224
f 196 224 197
f 197 202 198
f 197 224 202
f 203 225 226
f 203 227 225
f 204 207 228
f 204 228 229
f 204 229 208
f 208 229 225
f 208 225 209
f 209 225 227
f 209 227 230
f 209 230 231
f 209 231 210
f 210 231 232
f 210 232 211
f 211 232 233
f 211 233 212
f 225 229 234
f 225 234 226
