v 0.94995081 0.68033600 -0.00206757
v 0.94547379 0.68033600 -0.00206757
v 0.95645976 0.68023515 -0.00206757
v 0.94995081 0.68033600 -0.07005097
v 0.92997634 0.68053770 -0.15001722
v 0.86998397 0.68104190 -0.30999005
v 0.93865490 0.68023515 -0.00206757
v 0.96073020 0.68003345 -0.00206757
v 0.96073020 0.68003345 -0.01001577
v 0.96062684 0.68003345 -0.03002751
v 0.96045470 0.68003345 -0.05003923
v 0.94189215 0.68033600 -0.15001722
v 0.88358724 0.68053770 -0.30999005
v 0.87008727 0.68073934 -0.32963866
v 0.84997499 0.68084019 -0.34997314
v 0.81116247 0.68053770 -0.41424471
v 0.79318541 0.68043685 -0.41424471
v 0.79466629 0.68043685 -0.40996802
v 0.78877723 0.68023515 -0.41424471
v 0.78288823 0.67932755 -0.41424471
v 0.92863321 0.67761326 -0.00206757
v 0.96469063 0.67902505 -0.00206757
v 0.97071743 0.67731071 -0.01001577
v 0.96000695 0.67993259 -0.08025856
v 0.90214980 0.68033600 -0.27000692
v 0.94075567 0.68013430 -0.16446117
v 0.90060002 0.68013430 -0.28211078
v 0.88110769 0.68023515 -0.32282013
v 0.86282068 0.68033600 -0.34997314
v 0.84894186 0.68043685 -0.36829036
v 0.82362932 0.68033600 -0.40657893
v 0.83020711 0.68053770 -0.38983524
v 0.81426197 0.68033600 -0.41424471
v 0.76987034 0.67428541 -0.41424471
v 0.75127339 0.66440284 -0.41424471
v 0.92167658 0.67368037 -0.00206757
v 0.97071743 0.67731071 -0.00206757
v 0.97061414 0.67710900 -0.03002751
v 0.98824680 0.66732723 -0.01001577
v 0.95552993 0.67942840 -0.11003409
v 0.97047639 0.67680651 -0.05003923
v 0.97016644 0.67610061 -0.07005097
v 0.96799678 0.67599976 -0.08816643
v 0.95346361 0.67882335 -0.13000548
v 0.93834496 0.67983180 -0.17781577
v 0.91726840 0.67963010 -0.24128041
v 0.91530538 0.67922670 -0.24999519
v 0.91213703 0.67761326 -0.27000692
v 0.89701843 0.67952925 -0.29542506
v 0.87680280 0.67952925 -0.33613440
v 0.86023778 0.68003345 -0.36046320
v 0.84157193 0.68023515 -0.38309741
v 0.83692271 0.67963010 -0.39641166
v 0.82724541 0.67892420 -0.41424471
v 0.74807060 0.66238594 -0.41424471
v 0.91110384 0.66762978 -0.00206757
v 0.98824680 0.66732723 -0.00206757
v 0.98790240 0.66712558 -0.03002751
v 0.99823403 0.65673876 -0.01001577
v 0.98724806 0.66672218 -0.05003923
v 0.98631823 0.66611713 -0.07005097
v 0.96995980 0.67327696 -0.11003409
v 0.95187938 0.67771405 -0.15001722
v 0.94843554 0.67680651 -0.17067449
v 0.92835772 0.67700815 -0.23034656
v 0.92997634 0.67307532 -0.24999519
v 0.90834880 0.67579806 -0.28925207
v 0.89357454 0.67821831 -0.30999005
v 0.88864976 0.67599976 -0.32963866
v 0.87280792 0.67801660 -0.34997314
v 0.85493422 0.67892420 -0.37377745
v 0.83020711 0.67852080 -0.41194499
v 0.83017272 0.67781490 -0.41424471
v 0.90111661 0.65804970 -0.00206757
v 0.90507710 0.66188174 -0.00206757
v 0.73767006 0.64998227 -0.41424471
v 0.99823403 0.65673876 -0.00206757
v 0.99788964 0.65613365 -0.03002751
v 1.00298655 0.64675534 -0.01001577
v 1.00271106 0.64615023 -0.03002751
v 0.99726975 0.65482271 -0.05003923
v 0.98507839 0.66520953 -0.09002236
v 0.98349422 0.66379774 -0.11003409
v 0.96995980 0.67075592 -0.13000548
v 0.94995081 0.67327696 -0.19000033
v 0.94747126 0.66631883 -0.22998345
v 0.94382071 0.66369689 -0.24999519
v 0.93111283 0.66702473 -0.27004728
v 0.92567146 0.66500783 -0.28997830
v 0.91151714 0.66793233 -0.31107938
v 0.90624797 0.66541123 -0.32996142
v 0.89126712 0.66783148 -0.35073972
v 0.86812425 0.67499131 -0.36829036
v 0.84894186 0.67710900 -0.38983524
v 0.85166252 0.66853738 -0.41154152
v 0.85076708 0.66783148 -0.41424471
v 0.72699404 0.63233477 -0.41424471
v 0.89901584 0.65411687 -0.00206757
v 1.00298655 0.64675534 -0.00206757
v 1.00760138 0.62991452 -0.01001577
v 1.00705040 0.62991452 -0.03002751
v 1.00209117 0.64483929 -0.05003923
v 1.00119579 0.64272153 -0.07005097
v 0.99630547 0.65280586 -0.07005097
v 0.99193174 0.64988142 -0.11003409
v 0.98163450 0.66178089 -0.13000548
v 0.97123402 0.66652054 -0.14921029
v 0.96675694 0.66611713 -0.16998860
v 0.96393299 0.66389859 -0.19000033
v 0.95170724 0.66762978 -0.21122245
v 0.96166003 0.66168004 -0.20541260
v 0.95955926 0.65915895 -0.21872686
v 0.94130671 0.66137755 -0.26343048
v 0.92226207 0.66228509 -0.30514848
v 0.90239084 0.66238594 -0.34456676
v 0.88524032 0.66450369 -0.36998489
v 0.87029392 0.66621798 -0.38947213
v 0.86388826 0.66329354 -0.40589303
v 0.85434872 0.66531038 -0.41424471
v 0.89584750 0.64806628 -0.00206757
v 0.72430784 0.62648582 -0.41424471
v 1.00756693 0.62991452 -0.00206757
v 1.00963330 0.60984677 -0.01001577
v 1.00908232 0.60984677 -0.03002751
v 1.00794578 0.60984677 -0.05003923
v 1.00587940 0.62991452 -0.05003923
v 1.00043809 0.64100724 -0.08332489
v 0.99575442 0.64857048 -0.09002236
v 0.98817790 0.64988142 -0.13000548
v 0.98042917 0.66046989 -0.14198831
v 0.97874165 0.65774715 -0.15534291
v 0.97674423 0.65381432 -0.16998860
v 0.97416133 0.64836878 -0.18866891
v 0.96572381 0.65149492 -0.21122245
v 0.96258986 0.64544433 -0.22998345
v 0.95749295 0.65542781 -0.22998345
v 0.93858606 0.65754545 -0.27678508
v 0.91923141 0.65875560 -0.31850308
v 0.89877480 0.65804970 -0.35792136
v 0.88152093 0.66147840 -0.38249224
v 0.86561024 0.65431851 -0.41424471
v 0.89140487 0.63717520 -0.00206757
v 0.71783334 0.60994762 -0.41424471
v 0.88847756 0.62991452 -0.00206757
v 1.00959885 0.60984677 -0.00206757
v 1.01014984 0.58987987 -0.01001577
v 1.00959885 0.58987987 -0.03002751
v 1.00842786 0.58987987 -0.05003923
v 1.00667155 0.58987987 -0.07005097
v 1.00615501 0.60984677 -0.07005097
v 1.00408864 0.62991452 -0.07005097
v 1.00154018 0.63011622 -0.09002236
v 0.99947381 0.63697350 -0.09667949
v 0.98370087 0.65058732 -0.14921029
v 0.98177230 0.64383084 -0.16998860
v 0.98029143 0.64060390 -0.18108381
v 0.96062684 0.64141059 -0.24128041
v 0.96048909 0.64171314 -0.24128041
v 0.95535773 0.65149492 -0.24128041
v 0.94485390 0.65058732 -0.27004728
v 0.94202989 0.64423418 -0.28477365
v 0.93600309 0.65058732 -0.29086593
v 0.92642915 0.65119243 -0.31107938
v 0.92264086 0.64544433 -0.32532161
v 0.91657966 0.65119243 -0.33117181
v 0.90648907 0.65078902 -0.35073972
v 0.90235639 0.64473844 -0.36421537
v 0.89533091 0.65078902 -0.37050939
v 0.88468933 0.64927638 -0.38947213
v 0.87718165 0.65542781 -0.39580649
v 0.88107324 0.64211655 -0.40161633
v 0.86833090 0.64937723 -0.41424471
v 0.71135885 0.58998072 -0.41424471
v 0.88262296 0.60914087 -0.00206757
v 1.01011539 0.58987987 -0.00206757
v 1.01018429 0.58191329 -0.00206757
v 1.01028764 0.56991303 -0.00206757
v 1.01028764 0.56991303 -0.01001577
v 1.00973654 0.56991303 -0.03002751
v 1.00860012 0.56991303 -0.05003923
v 1.00680923 0.56991303 -0.07005097
v 1.00429523 0.56991303 -0.09002236
v 1.00412309 0.58987987 -0.09002236
v 1.00360644 0.60984677 -0.09002236
v 1.00057590 0.62366223 -0.10353835
v 0.99837178 0.63011622 -0.11015513
v 0.99465239 0.62991452 -0.13000548
v 0.96076465 0.64090639 -0.24128041
v 0.99020982 0.62991452 -0.15001722
v 0.98518175 0.62991452 -0.16998860
v 0.98125571 0.62991452 -0.18435186
v 0.97829396 0.62991452 -0.19431739
v 0.97343808 0.62991452 -0.20997173
v 0.96055800 0.64120895 -0.24160317
v 0.93913704 0.63425076 -0.29808789
v 0.91930032 0.63566256 -0.33867621
v 0.90438831 0.62991452 -0.36776584
v 0.89867145 0.62991452 -0.37773138
v 0.87518418 0.63062042 -0.41424471
v 0.89116383 0.62991452 -0.38995630
v 0.88245082 0.62991452 -0.40375471
v 0.87539083 0.62991452 -0.41424471
v 0.70650297 0.57243407 -0.41424471
v 0.70509100 0.56668603 -0.41424471
v 0.88093549 0.60208189 -0.00206757
v 1.01035643 0.54197949 -0.00206757
v 1.01035643 0.54994607 -0.01001577
v 1.00983989 0.54994607 -0.03002751
v 1.00870347 0.54994607 -0.05003923
v 1.00698149 0.52997923 -0.07005097
v 1.00450194 0.52997923 -0.09002236
v 1.00133348 0.58987987 -0.10769401
v 1.00147128 0.54994607 -0.10846059
v 1.00140238 0.56991303 -0.10813782
v 1.00109243 0.60984677 -0.10636258
v 0.99933606 0.60984677 -0.11636845
v 0.99661541 0.60984677 -0.13000548
v 0.96675694 0.62991452 -0.22998345
v 0.96276206 0.62991452 -0.24128041
v 0.96162558 0.62991452 -0.24438706
v 0.95783734 0.62991452 -0.25439292
v 0.95167279 0.62991452 -0.27000692
v 0.99213839 0.60984677 -0.15001722
v 0.98711032 0.60984677 -0.16998860
v 0.98221999 0.60984677 -0.18753922
v 0.97922385 0.60984677 -0.19754508
v 0.97526336 0.60984677 -0.20997173
v 0.94313192 0.62860358 -0.29086593
v 0.94010133 0.62093949 -0.30030695
v 0.93524545 0.62860358 -0.30817446
v 0.92398399 0.62941033 -0.33117181
v 0.92033345 0.62235129 -0.34065318
v 0.91509879 0.62941033 -0.34839964
v 0.90538704 0.60994762 -0.36946040
v 0.89967018 0.60994762 -0.37946627
v 0.89312685 0.60994762 -0.38995630
v 0.88344949 0.60994762 -0.40528786
v 0.87752604 0.60994762 -0.41424471
v 0.70333457 0.55912280 -0.41424471
v 0.87959236 0.59593046 -0.00206757
v 0.70123386 0.54984522 -0.41424471
v 1.01080418 0.26990527 -0.00206757
v 1.01087308 0.24993840 -0.01001577
v 1.01080418 0.28997302 -0.01001577
v 1.01035643 0.28997302 -0.03002751
v 1.00877225 0.52997923 -0.05003923
v 1.00922000 0.30993992 -0.05003923
v 1.00711918 0.48994455 -0.07005097
v 1.00150573 0.52997923 -0.10870267
v 1.00463963 0.48994455 -0.09002236
v 0.99954271 0.58987987 -0.11769988
v 0.99974930 0.52997923 -0.11870854
v 0.99968046 0.54994607 -0.11846645
v 0.99961162 0.56991303 -0.11814369
v 0.99702871 0.58987987 -0.13000548
v 0.96854782 0.60984677 -0.22998345
v 0.96314090 0.62557828 -0.24128041
v 0.96252102 0.60994762 -0.24672714
v 0.95873272 0.60994762 -0.25673300
v 0.95346361 0.60994762 -0.27000692
v 0.99255162 0.58987987 -0.15001722
v 0.98748910 0.58987987 -0.16998860
v 0.98239219 0.58987987 -0.18818475
v 0.97943044 0.58987987 -0.19819061
v 0.97564220 0.58987987 -0.20997173
v 0.94506055 0.60994762 -0.28997830
v 0.94030797 0.60994762 -0.30079108
v 0.93565875 0.60994762 -0.31075662
v 0.92636025 0.60994762 -0.32996142
v 0.92064345 0.60994762 -0.34129870
v 0.91533983 0.60994762 -0.35130459
v 0.91554648 0.58998072 -0.35166770
v 0.90555924 0.58998072 -0.36978316
v 0.89984238 0.58998072 -0.37978902
v 0.89357454 0.58998072 -0.38995630
v 0.88365614 0.58998072 -0.40561062
v 0.87797374 0.58998072 -0.41424471
v 0.87759495 0.60772908 -0.41424471
v 0.87831813 0.58957732 -0.00206757
v 0.69792771 0.53360951 -0.41424471
v 1.01080418 0.24993840 -0.00206757
v 1.01035643 0.26990527 -0.03002751
v 1.01076972 0.22987065 -0.00206757
v 1.01080418 0.22987065 -0.01001577
v 1.01028764 0.22987065 -0.03002751
v 1.00922000 0.26990527 -0.05003923
v 1.00742924 0.32990682 -0.07005097
v 1.00494957 0.34987372 -0.09002236
v 1.00157464 0.48994455 -0.10906578
v 0.99978375 0.50991142 -0.11891026
v 1.00171232 0.38990837 -0.10967097
v 0.99737304 0.52997923 -0.13000548
v 0.99716640 0.56991303 -0.13000548
v 0.96448398 0.60994762 -0.24128041
v 0.96889216 0.58987987 -0.22998345
v 0.96482837 0.58998072 -0.24128041
v 0.96269321 0.58998072 -0.24717095
v 0.95890492 0.58998072 -0.25717682
v 0.95377356 0.58998072 -0.27000692
v 0.94540489 0.58998072 -0.28997830
v 0.99265492 0.56991303 -0.15001722
v 0.98769575 0.54994607 -0.16998860
v 0.98252994 0.52997923 -0.18866891
v 0.97949934 0.56991303 -0.19835201
v 0.97577995 0.56991303 -0.20997173
v 0.94051462 0.58998072 -0.30115420
v 0.93583095 0.58998072 -0.31116009
v 0.92670465 0.58998072 -0.32996142
v 0.92088449 0.58998072 -0.34166184
v 0.91561532 0.56991303 -0.35178876
v 0.90562809 0.56991303 -0.36990422
v 0.89994568 0.56991303 -0.37991005
v 0.89371228 0.56991303 -0.38995630
v 0.88375944 0.56991303 -0.40573168
v 0.87800819 0.58705628 -0.41424471
v 0.87611407 0.57777870 -0.00206757
v 0.69720447 0.52997923 -0.41424471
v 1.01073527 0.22200489 -0.00206757
v 1.01063204 0.20193715 -0.00206757
v 1.01070094 0.20990375 -0.01001577
v 1.01056314 0.18983601 -0.01001577
v 1.01014984 0.20990375 -0.03002751
v 1.00904787 0.22987065 -0.05003923
v 1.00915110 0.24993840 -0.05003923
v 1.00736034 0.26990527 -0.07005097
v 1.00742924 0.30993992 -0.07005097
v 1.00178123 0.32990682 -0.10991305
v 1.00174677 0.34987372 -0.10991305
v 1.00494957 0.30993992 -0.09002236
v 0.99981821 0.48994455 -0.11907165
v 0.99751079 0.48994455 -0.13000548
v 0.99992156 0.38990837 -0.11967684
v 0.99282718 0.52997923 -0.15001722
v 0.96902990 0.56991303 -0.22998345
v 0.96500057 0.56295478 -0.24128041
v 0.96276206 0.56991303 -0.24733233
v 0.95900822 0.54984522 -0.25745922
v 0.95391130 0.56991303 -0.27000692
v 0.94550824 0.56991303 -0.28997830
v 0.98779905 0.50991142 -0.16998860
v 0.99296486 0.48994455 -0.15001722
v 0.97960263 0.50991142 -0.19879581
v 0.97956818 0.52997923 -0.19867477
v 0.98256439 0.48994455 -0.18887064
v 0.97588325 0.54994607 -0.20997173
v 0.94054902 0.56991303 -0.30127525
v 0.93589979 0.56991303 -0.31128111
v 0.92687684 0.56991303 -0.32996142
v 0.92091894 0.56991303 -0.34178287
v 0.91564977 0.54984522 -0.35186943
v 0.91568422 0.52997923 -0.35190976
v 0.90562809 0.54984522 -0.36994454
v 0.90452605 0.52897072 -0.37196186
v 0.89998013 0.52171004 -0.37999076
v 0.89378119 0.54984522 -0.38995630
v 0.88379389 0.54984522 -0.40581235
v 0.87814593 0.56991303 -0.41424471
v 0.87466764 0.56991303 -0.00206757
v 0.69369173 0.50981057 -0.41424471
v 1.01052868 0.18983601 -0.00206757
v 1.01039088 0.16986911 -0.01001577
v 1.00997770 0.18983601 -0.03002751
v 1.00891006 0.20990375 -0.05003923
v 1.00711918 0.22987065 -0.07005097
v 1.00725698 0.24993840 -0.07005097
v 1.00481188 0.26990527 -0.09002236
v 0.99995595 0.32990682 -0.11991892
v 1.00174677 0.30993992 -0.10983236
v 1.00171232 0.28997302 -0.10967097
v 0.99775189 0.34987372 -0.13000548
v 0.96923655 0.52997923 -0.22998345
v 0.96506947 0.54994607 -0.24128041
v 0.96289980 0.50981057 -0.24765511
v 0.95904267 0.52997923 -0.25758028
v 0.95404905 0.52997923 -0.27000692
v 0.94564599 0.52997923 -0.28997830
v 0.94061792 0.52997923 -0.30143663
v 0.98786795 0.46987680 -0.16998860
v 0.99299932 0.46987680 -0.15001722
v 0.97602099 0.50991142 -0.20997173
v 0.97595215 0.52997923 -0.20997173
v 0.98259878 0.46987680 -0.18887064
v 0.97963709 0.46987680 -0.19887650
v 0.97608989 0.46987680 -0.20997173
v 0.97605544 0.48994455 -0.20997173
v 0.93593425 0.52997923 -0.31144249
v 0.92095339 0.54984522 -0.34186357
v 0.93596870 0.50981057 -0.31148285
v 0.92694569 0.52997923 -0.32996142
v 0.92098778 0.52997923 -0.34190392
v 0.91568422 0.50981057 -0.35195011
v 0.90452605 0.51061738 -0.37196186
v 0.90566254 0.48994455 -0.36994454
v 0.89998013 0.51767635 -0.37999076
v 0.89502096 0.52897072 -0.38797933
v 0.88382834 0.52997923 -0.40581235
v 0.89378119 0.48994455 -0.38995630
v 0.87828368 0.52997923 -0.41424471
v 0.87267017 0.55791271 -0.00206757
v 0.69062668 0.48994455 -0.41424471
v 0.87139595 0.54994607 -0.00206757
v 1.01035643 0.16986911 -0.00206757
v 1.01028764 0.16210420 -0.00206757
v 1.01001215 0.14213730 -0.00206757
v 1.00983989 0.13003615 -0.01001577
v 1.00977099 0.16986911 -0.03002751
v 1.00870347 0.18983601 -0.05003923
v 1.00694704 0.20990375 -0.07005097
v 1.00453639 0.22987065 -0.09002236
v 1.00470853 0.24993840 -0.09002236
v 1.00167787 0.26990527 -0.10938855
v 0.99992156 0.30993992 -0.11983823
v 0.99771744 0.30993992 -0.13000548
v 0.99775189 0.32990682 -0.13000548
v 0.99988711 0.28997302 -0.11967684
v 0.99313712 0.36984062 -0.15001722
v 0.96930546 0.50991142 -0.22998345
v 0.96517277 0.52281934 -0.24128041
v 0.96933985 0.48994455 -0.22998345
v 0.96527612 0.46997765 -0.24128041
v 0.96289980 0.48994455 -0.24769545
v 0.95907712 0.48994455 -0.25770131
v 0.95411795 0.50981057 -0.27000692
v 0.95415235 0.48994455 -0.27000692
v 0.94571483 0.48994455 -0.28997830
v 0.94065237 0.50981057 -0.30147699
v 0.98797131 0.36984062 -0.16998860
v 0.98259878 0.34987372 -0.18887064
v 0.97963709 0.36984062 -0.19887650
v 0.97608989 0.42984217 -0.20997173
v 0.94065237 0.46997765 -0.30147699
v 0.94065237 0.44990990 -0.30143663
v 0.93589979 0.40997612 -0.31136182
v 0.92698014 0.48994455 -0.32996142
v 0.92698014 0.50981057 -0.32996142
v 0.92098778 0.50981057 -0.34194428
v 0.91568422 0.48994455 -0.35195011
v 0.90562809 0.42984217 -0.36982352
v 0.89998013 0.50436509 -0.37995040
v 0.89502096 0.51061738 -0.38797933
v 0.88379389 0.48994455 -0.40581235
v 0.87828368 0.50668448 -0.41424471
v 0.88369060 0.42984217 -0.40569133
v 0.89984238 0.38990837 -0.37970835
v 0.89347118 0.38990837 -0.38995630
v 0.68797487 0.46997765 -0.41424471
v 0.86857194 0.52997923 -0.00206757
v 1.00983989 0.13003615 -0.00206757
v 1.00946105 0.11017010 -0.01001577
v 1.00918555 0.13003615 -0.03002751
v 1.00949550 0.15010390 -0.03002751
v 1.00846231 0.16986911 -0.05003923
v 1.00674045 0.18983601 -0.07005097
v 1.00432968 0.20990375 -0.09002236
v 1.00150573 0.22987065 -0.10850094
v 1.00160909 0.24993840 -0.10898509
v 0.99985266 0.26990527 -0.11939442
v 0.99754524 0.26990527 -0.13000548
v 0.99299932 0.28997302 -0.15001722
v 0.99313712 0.32990682 -0.15001722
v 0.96933985 0.42984217 -0.22998345
v 0.96527612 0.46261612 -0.24128041
v 0.96289980 0.44990990 -0.24769545
v 0.95907712 0.42984217 -0.25770131
v 0.95415235 0.44990990 -0.27000692
v 0.94571483 0.46997765 -0.28997830
v 0.98797131 0.34987372 -0.16998860
v 0.98259878 0.32990682 -0.18878995
v 0.97960263 0.32990682 -0.19879581
v 0.97605544 0.36984062 -0.20997173
v 0.94564599 0.40997612 -0.28997830
v 0.94061792 0.40997612 -0.30135596
v 0.92694569 0.46997765 -0.32996142
v 0.93586534 0.38990837 -0.31132147
v 0.92677355 0.38990837 -0.32996142
v 0.92098778 0.46997765 -0.34190392
v 0.92098778 0.48994455 -0.34194428
v 0.92088449 0.38990837 -0.34170216
v 0.91554648 0.38990837 -0.35170805
v 0.90559363 0.40997612 -0.36978316
v 0.87807709 0.42701855 -0.41424471
v 0.87824929 0.48671758 -0.41424471
v 0.88362169 0.38990837 -0.40557027
v 0.90555924 0.38990837 -0.36970246
v 0.90552479 0.36994147 -0.36962178
v 0.89977348 0.36994147 -0.37962765
v 0.89326459 0.34997457 -0.38995630
v 0.68608075 0.45273352 -0.41424471
v 0.86612678 0.50991142 -0.00206757
v 0.86709106 0.51787806 -0.00206757
v 1.00946105 0.11017010 -0.00206757
v 1.00877225 0.11017010 -0.03002751
v 1.00901341 0.09010235 -0.01001577
v 1.00780797 0.13003615 -0.05003923
v 1.00818682 0.15010390 -0.05003923
v 1.00643051 0.16986911 -0.07005097
v 1.00405419 0.18983601 -0.09002236
v 1.00140238 0.20990375 -0.10785539
v 1.00126469 0.18983601 -0.10708882
v 0.99968046 0.22987065 -0.11850680
v 0.99978375 0.24993840 -0.11899096
v 0.99740750 0.24993840 -0.13000548
v 0.99289602 0.26990527 -0.15001722
v 0.98779905 0.28997302 -0.16998860
v 0.98793685 0.32990682 -0.16998860
v 0.96927100 0.34987372 -0.22998345
v 0.96524167 0.40997612 -0.24128041
v 0.96289980 0.40997612 -0.24765511
v 0.95904267 0.36994147 -0.25758028
v 0.95404905 0.38990837 -0.27000692
v 0.98256439 0.30993992 -0.18862855
v 0.97956818 0.30993992 -0.19863443
v 0.97598660 0.32990682 -0.20997173
v 0.95394576 0.34997457 -0.27000692
v 0.94557709 0.38990837 -0.28997830
v 0.94058347 0.38990837 -0.30131561
v 0.94051462 0.34997457 -0.30111387
v 0.93583095 0.36994147 -0.31120044
v 0.92660135 0.34997457 -0.32996142
v 0.92085004 0.36994147 -0.34162149
v 0.91547757 0.34997457 -0.35154665
v 0.87800819 0.40997612 -0.41424471
v 0.88341510 0.32990682 -0.40528786
v 0.87780154 0.36731955 -0.41424471
v 0.87790489 0.38728645 -0.41424471
v 0.90545589 0.34997457 -0.36954108
v 0.89963573 0.32990682 -0.37942591
v 0.89312685 0.32990682 -0.38995630
v 0.68546087 0.44698545 -0.41424471
v 0.86399162 0.48994455 -0.00206757
v 1.00901341 0.09010235 -0.00206757
v 1.00739479 0.11017010 -0.05003923
v 1.00832462 0.09010235 -0.03002751
v 1.00849676 0.07013545 -0.01001577
v 1.00574172 0.13003615 -0.07005097
v 1.00612056 0.15010390 -0.07005097
v 1.00374424 0.16986911 -0.09002236
v 1.00112689 0.16986911 -0.10620120
v 0.99957716 0.20990375 -0.11786126
v 0.99943936 0.18983601 -0.11709468
v 0.99695981 0.20990375 -0.13000548
v 0.99720085 0.22987065 -0.13000548
v 0.99255162 0.22987065 -0.15001722
v 0.98766130 0.26990527 -0.16998860
v 0.98249549 0.28997302 -0.18842682
v 0.96513832 0.34987372 -0.24128041
v 0.96520722 0.38264769 -0.24128041
v 0.96906435 0.30993992 -0.22998345
v 0.96500057 0.32294866 -0.24128041
v 0.96286535 0.36994147 -0.24757442
v 0.95900822 0.34997457 -0.25749958
v 0.97949934 0.28997302 -0.19843270
v 0.97588325 0.30993992 -0.20997173
v 0.95897382 0.32990682 -0.25737855
v 0.95384240 0.32990682 -0.27000692
v 0.94533604 0.32990682 -0.28997830
v 0.94550824 0.36994147 -0.28997830
v 0.93576205 0.34997457 -0.31111974
v 0.94037688 0.30983907 -0.30087179
v 0.93565875 0.30983907 -0.31087765
v 0.92078120 0.34997457 -0.34154081
v 0.92632580 0.30983907 -0.32996142
v 0.92064345 0.30983907 -0.34129870
v 0.91540873 0.32990682 -0.35142562
v 0.88334620 0.30983907 -0.40512645
v 0.87752604 0.32788998 -0.41424471
v 0.90538704 0.32990682 -0.36942005
v 0.89956689 0.30983907 -0.37926453
v 0.89267910 0.28987217 -0.38995630
v 0.68391109 0.42984217 -0.41424471
v 0.86288953 0.47784340 -0.00206757
v 1.00849676 0.07013545 -0.00206757
v 1.00529397 0.11017010 -0.07005097
v 1.00691259 0.09010235 -0.05003923
v 1.00777364 0.07013545 -0.03002751
v 1.00791132 0.05016855 -0.01001577
v 1.00302100 0.13003615 -0.09002236
v 1.00339985 0.15010390 -0.09002236
v 1.00095475 0.15010390 -0.10527324
v 0.99926722 0.16986911 -0.11620706
v 0.99668431 0.18983601 -0.13000548
v 0.99602997 0.15010390 -0.13000548
v 0.99637437 0.16986911 -0.13000548
v 0.99231052 0.20990375 -0.15001722
v 0.98728251 0.22987065 -0.16998860
v 0.98748910 0.24993840 -0.16998860
v 0.98235774 0.24993840 -0.18786198
v 0.98242664 0.26990527 -0.18814440
v 0.96279651 0.32990682 -0.24737269
v 0.96283096 0.34997457 -0.24749371
v 0.96276206 0.30983907 -0.24721129
v 0.97574550 0.28997302 -0.20997173
v 0.96889216 0.28997302 -0.22998345
v 0.97943044 0.26990527 -0.19815028
v 0.95880163 0.28987217 -0.25697508
v 0.95370466 0.30983907 -0.27000692
v 0.94516385 0.30983907 -0.28997830
v 0.94017023 0.26980445 -0.30042797
v 0.93545210 0.26980445 -0.31043386
v 0.92615360 0.28987217 -0.32996142
v 0.92057455 0.28987217 -0.34109700
v 0.91533983 0.30983907 -0.35126424
v 0.89219695 0.24993840 -0.38995630
v 0.88293290 0.24993840 -0.40452129
v 0.87707835 0.28856122 -0.41424471
v 0.87731940 0.30822560 -0.41424471
v 0.90531814 0.30983907 -0.36925864
v 0.90521485 0.28987217 -0.36909729
v 0.90511155 0.26980445 -0.36889553
v 0.89932579 0.26980445 -0.37890142
v 0.68298125 0.41874945 -0.41424471
v 0.86220080 0.46987680 -0.00206757
v 1.00791132 0.05016855 -0.00206757
v 1.00481188 0.09010235 -0.07005097
v 1.00636160 0.07013545 -0.05003923
v 1.00718808 0.05016855 -0.03002751
v 1.00729144 0.03010081 -0.01001577
v 1.00050700 0.11017010 -0.10297350
v 1.00074804 0.13003615 -0.10418389
v 1.00205672 0.09010235 -0.09002236
v 1.00026596 0.09010235 -0.10164207
v 0.99888837 0.13003615 -0.11418975
v 0.99909502 0.15010390 -0.11523876
v 0.99200058 0.18983601 -0.15001722
v 0.99561667 0.13003615 -0.13000548
v 0.99134624 0.15010390 -0.15001722
v 0.99169064 0.16986911 -0.15001722
v 0.98704141 0.20990375 -0.16998860
v 0.98211670 0.20990375 -0.18705505
v 0.97918940 0.22987065 -0.19750473
v 0.96475953 0.28997302 -0.24128041
v 0.96265876 0.28987217 -0.24696922
v 0.97536665 0.24993840 -0.20997173
v 0.96851337 0.24993840 -0.22998345
v 0.95859498 0.24993840 -0.25641024
v 0.95305032 0.24993840 -0.27000692
v 0.94454396 0.24993840 -0.28997830
v 0.94475055 0.26980445 -0.28997830
v 0.93999803 0.23894651 -0.30002451
v 0.92591256 0.26980445 -0.32996142
v 0.93610644 0.23138329 -0.30801308
v 0.92567146 0.24993840 -0.32996142
v 0.91509879 0.26980445 -0.35086077
v 0.92033345 0.24993840 -0.34061283
v 0.89905030 0.22997150 -0.37841725
v 0.89150822 0.20990375 -0.38995630
v 0.88258857 0.20990375 -0.40399677
v 0.87618291 0.22987065 -0.41424471
v 0.87649286 0.24923249 -0.41424471
v 0.87680280 0.26899770 -0.41424471
v 0.90483600 0.22997150 -0.36841139
v 0.68229246 0.40997612 -0.41424471
v 0.86058217 0.44869980 -0.00206757
v 1.00729144 0.03010081 -0.00206757
v 1.00426078 0.07013545 -0.07005097
v 1.00126469 0.06983292 -0.09171690
v 1.00577617 0.05016855 -0.05003923
v 1.00656819 0.03010081 -0.03002751
v 1.00663710 0.01013391 -0.00206757
v 1.00594831 -0.00993383 -0.00206757
v 1.00591385 -0.00993383 -0.01001577
v 1.00591385 0.01013391 -0.03002751
v 0.99864733 0.11017010 -0.11297937
v 0.99988711 0.06297561 -0.09950373
v 0.99840623 0.09010235 -0.11160760
v 1.00005925 0.07628687 -0.10063342
v 0.99847507 0.06983292 -0.10837989
v 0.99468684 0.09010235 -0.13000548
v 0.99516898 0.11017010 -0.13000548
v 0.98673147 0.18983601 -0.16998860
v 0.99093300 0.13003615 -0.15001722
v 0.99051976 0.11017010 -0.15001722
v 0.98607713 0.15010390 -0.16998860
v 0.98642153 0.16986911 -0.16998860
v 0.98197889 0.18983601 -0.18657090
v 0.97905159 0.20990375 -0.19706093
v 0.97485006 0.20990375 -0.20997173
v 0.97512561 0.22987065 -0.20997173
v 0.96469063 0.28321654 -0.24128041
v 0.96455288 0.26980445 -0.24128041
v 0.96434629 0.24993840 -0.24128041
v 0.96245211 0.24993840 -0.24640438
v 0.96823782 0.22987065 -0.22998345
v 0.96217662 0.20990375 -0.24567814
v 0.95828503 0.20990375 -0.25568402
v 0.95246488 0.20990375 -0.27000692
v 0.94416511 0.20990375 -0.28953451
v 0.93975693 0.20990375 -0.29954037
v 0.93448782 0.18983601 -0.30999005
v 0.92539597 0.22997150 -0.32996142
v 0.92019570 0.22997150 -0.34037077
v 0.91482329 0.22997150 -0.35037661
v 0.89887810 0.20990375 -0.37813485
v 0.88241637 0.18983601 -0.40367401
v 0.89832705 0.15000305 -0.37716651
v 0.88995844 0.13003615 -0.38995630
v 0.87580413 0.20990375 -0.41424471
v 0.91437554 0.18983601 -0.34997314
v 0.90431941 0.16986911 -0.36752379
v 0.68088049 0.38990837 -0.41424471
v 0.85941124 0.43145564 -0.00206757
v 1.00515628 0.03010081 -0.05003923
v 1.00302100 0.03010081 -0.07005097
v 1.00005925 -0.02213582 -0.08054100
v 1.00057590 0.01013391 -0.08417215
v 1.00088584 0.03010081 -0.08627016
v 1.00119579 0.05016855 -0.08824713
v 0.99943936 0.03010081 -0.09627602
v 0.99971491 0.05016855 -0.09825299
v 1.00494957 -0.03786732 -0.00206757
v 1.00519061 -0.02990073 -0.01001577
v 1.00374424 -0.04996847 -0.03002751
v 1.00519061 -0.00993383 -0.03002751
v 1.00377870 -0.00993383 -0.05003923
v 0.99702871 0.03010081 -0.11003409
v 0.99761415 0.05016855 -0.11003409
v 0.99417025 0.07013545 -0.13000548
v 0.99361920 0.05016855 -0.13000548
v 0.99003762 0.09010235 -0.15001722
v 0.98566389 0.13003615 -0.16998860
v 0.98525059 0.11017010 -0.16998860
v 0.98163450 0.15010390 -0.18544121
v 0.98142791 0.13003615 -0.18479566
v 0.98180676 0.16986911 -0.18600605
v 0.97891384 0.18983601 -0.19657677
v 0.97454011 0.18983601 -0.20997173
v 0.96796232 0.20990375 -0.22998345
v 0.96765238 0.18983601 -0.22998345
v 0.96348530 0.18983601 -0.24128041
v 0.96200442 0.18983601 -0.24523433
v 0.95811284 0.18983601 -0.25524020
v 0.95181054 0.16986911 -0.27000692
v 0.94382071 0.16986911 -0.28872758
v 0.93958473 0.18983601 -0.29913691
v 0.92484498 0.18983601 -0.32975969
v 0.92408729 0.20859279 -0.33193839
v 0.93410897 0.16986911 -0.30999005
v 0.92450058 0.15000305 -0.32899311
v 0.92467278 0.16986911 -0.32939658
v 0.91995466 0.20123126 -0.33992696
v 0.91571867 0.20859279 -0.34807688
v 0.87542528 0.19054191 -0.41424471
v 0.88200307 0.15000305 -0.40306881
v 0.90394062 0.13003615 -0.36683789
v 0.89812046 0.13003615 -0.37684375
v 0.88179648 0.13003615 -0.40274602
v 0.88951075 0.11006925 -0.38995630
v 0.88134873 0.09000151 -0.40206015
v 0.91967916 0.16986911 -0.33936208
v 0.91399670 0.16986911 -0.34997314
v 0.67964071 0.36994147 -0.41424471
v 0.85817146 0.40987527 -0.00206757
v 1.00074804 -0.04996847 -0.06654085
v 1.00240111 0.01013391 -0.07005097
v 0.99864733 -0.02929567 -0.08836816
v 0.99878502 -0.00993383 -0.09191863
v 1.00092030 -0.02929567 -0.07126136
v 0.99981821 -0.03544709 -0.07876576
v 0.99692535 -0.06993537 -0.09002236
v 0.99506569 -0.02990073 -0.11003409
v 0.99575442 -0.00993383 -0.11003409
v 0.99640876 0.01013391 -0.11003409
v 1.00450194 -0.04996847 -0.00206757
v 1.00370979 -0.06993537 -0.01001577
v 1.00233221 -0.04996847 -0.05003923
v 1.00298655 -0.06993537 -0.03002751
v 0.99988711 -0.13750014 -0.03821780
v 1.00012815 -0.12418887 -0.04209103
v 1.00043809 -0.10997000 -0.04543976
v 1.00012815 -0.08324663 -0.06117480
v 0.99244833 0.01013391 -0.13000548
v 0.99303377 0.03010081 -0.13000548
v 0.98952103 0.07013545 -0.15001722
v 0.98838454 0.03010081 -0.15001722
v 0.98476845 0.09010235 -0.16998860
v 0.98098016 0.09010235 -0.18330285
v 0.97856951 0.15010390 -0.19544707
v 0.97815621 0.11017010 -0.19411565
v 0.97836286 0.13003615 -0.19480154
v 0.97874165 0.16986911 -0.19601192
v 0.97423017 0.16986911 -0.20997173
v 0.96730798 0.16986911 -0.22998345
v 0.96314090 0.16986911 -0.24128041
v 0.96183223 0.16986911 -0.24479052
v 0.95794064 0.16986911 -0.25479639
v 0.94364852 0.15000305 -0.28828377
v 0.95776844 0.15000305 -0.25435257
v 0.95105290 0.13003615 -0.27000692
v 0.93920594 0.15000305 -0.29828963
v 0.93373019 0.15000305 -0.30999005
v 0.92429394 0.13003615 -0.32858965
v 0.91926587 0.13003615 -0.33859551
v 0.87456429 0.15000305 -0.41424471
v 0.91323906 0.13003615 -0.34997314
v 0.90369952 0.11006925 -0.36647478
v 0.89791381 0.11006925 -0.37644029
v 0.87511533 0.13003615 -0.41275191
v 0.88902861 0.09000151 -0.38995630
v 0.88110769 0.07003461 -0.40169704
v 0.87318677 0.09000151 -0.41424471
v 0.87487423 0.11006925 -0.41242915
v 0.67884862 0.35471418 -0.41424471
v 0.85713828 0.38990837 -0.00206757
v 0.99954271 -0.04996847 -0.07654671
v 0.99764860 -0.04996847 -0.09002236
v 0.99434245 -0.04996847 -0.11003409
v 0.99534118 -0.10997000 -0.09002236
v 0.99286157 -0.08990228 -0.11003409
v 0.99361920 -0.06993537 -0.11003409
v 0.99041641 -0.04996847 -0.13000548
v 0.99110520 -0.02990073 -0.13000548
v 1.00374424 -0.06993537 -0.00206757
v 1.00216007 -0.10997000 -0.01001577
v 1.00074804 -0.09000310 -0.05112858
v 1.00023150 -0.14576924 -0.02486318
v 1.00140238 -0.10997000 -0.03002751
v 0.99968046 -0.15141645 -0.03095546
v 0.99888837 -0.16987070 -0.03002751
v 0.99751079 -0.16987070 -0.05003923
v 0.99840623 -0.14990380 -0.05003923
v 0.99930167 -0.13044113 -0.04927266
v 1.00054145 -0.13044113 -0.03095546
v 0.99985266 -0.09665874 -0.05851194
v 0.99637437 -0.14990380 -0.07005097
v 0.99802738 -0.10997000 -0.07005097
v 0.99895728 -0.09000310 -0.06871955
v 0.98711032 -0.00993383 -0.15001722
v 0.98776466 0.01013391 -0.15001722
v 0.98425186 0.07013545 -0.16998860
v 0.98311543 0.03010081 -0.16998860
v 0.97791517 0.09010235 -0.19330873
v 0.98070467 0.07013545 -0.18245558
v 0.97347254 0.13003615 -0.20997173
v 0.97302485 0.11017010 -0.20997173
v 0.97254270 0.09010235 -0.20997173
v 0.96279651 0.15010390 -0.24128041
v 0.96655035 0.13003615 -0.22998345
v 0.96241766 0.13003615 -0.24128041
v 0.96145338 0.13003615 -0.24382222
v 0.94344193 0.13003615 -0.28783995
v 0.95756179 0.13003615 -0.25382808
v 0.95735520 0.11006925 -0.25326324
v 0.95060515 0.11006925 -0.27000692
v 0.94323528 0.11006925 -0.28735581
v 0.93899930 0.13003615 -0.29784584
v 0.93290365 0.11006925 -0.30999005
v 0.92405283 0.11006925 -0.32818618
v 0.91902483 0.11006925 -0.33815169
v 0.91279137 0.11006925 -0.34997314
v 0.87370336 0.11248948 -0.41424471
v 0.90345848 0.09000151 -0.36607131
v 0.89767271 0.09000151 -0.37603682
v 0.88799542 0.05006771 -0.38995630
v 0.87439209 0.07003461 -0.41170290
v 0.88055664 0.03010081 -0.40084976
v 0.87208474 0.05006771 -0.41424471
v 0.67860752 0.34997457 -0.41424471
v 0.85620844 0.36984062 -0.00206757
v 0.99916387 -0.06993537 -0.07335937
v 0.99454910 -0.12983605 -0.09002236
v 0.99124295 -0.12983605 -0.11003409
v 0.98807460 -0.10997000 -0.13000548
v 0.98965877 -0.06993537 -0.13000548
v 0.98500955 -0.06993537 -0.15001722
v 0.98573273 -0.04996847 -0.15001722
v 1.00140238 -0.12983605 -0.00206757
v 1.00009370 -0.16230750 -0.00525491
v 1.00043809 -0.15141645 -0.01118581
v 0.99992156 -0.15918136 -0.01856917
v 0.99788964 -0.18983760 -0.03002751
v 0.99651206 -0.18983760 -0.05003923
v 0.99544448 -0.16987070 -0.07005097
v 0.99368811 -0.14990380 -0.09002236
v 0.98197889 -0.02990073 -0.16712402
v 0.97998148 0.01981483 -0.18003482
v 0.98042917 0.05016855 -0.18148728
v 0.98228884 -0.00993383 -0.16833439
v 0.97977483 0.00650357 -0.17926824
v 0.97736412 0.05016855 -0.19153349
v 0.97144067 0.05016855 -0.20997173
v 0.96610260 0.11017010 -0.22998345
v 0.96506947 0.07013545 -0.22998345
v 0.96558607 0.09010235 -0.22998345
v 0.96196997 0.11006925 -0.24128041
v 0.96121234 0.11006925 -0.24325737
v 0.96148783 0.09000151 -0.24128041
v 0.95711410 0.09000151 -0.25261769
v 0.95012301 0.09000151 -0.27000692
v 0.94299418 0.09000151 -0.28679097
v 0.93879265 0.11006925 -0.29736167
v 0.93238705 0.09000151 -0.30999005
v 0.92381179 0.09000151 -0.32770205
v 0.91857708 0.07003461 -0.33714306
v 0.91230923 0.09000151 -0.34997314
v 0.90290743 0.05006771 -0.36514336
v 0.89739722 0.07003461 -0.37559301
v 0.89712173 0.05006771 -0.37510887
v 0.88682449 0.01003307 -0.38995630
v 0.87384111 0.03010081 -0.41085565
v 0.88024670 0.01003307 -0.40036559
v 0.87163699 0.03453790 -0.41424471
v 0.67767769 0.32990682 -0.41424471
v 0.85538191 0.34987372 -0.00206757
v 0.98724806 -0.12983605 -0.13000548
v 0.99034756 -0.14990380 -0.11003409
v 0.98342538 -0.10997000 -0.15001722
v 0.98046362 -0.10997000 -0.16179831
v 0.98125571 -0.06993537 -0.16458221
v 0.98160011 -0.04996847 -0.16591363
v 1.00009370 -0.16230750 -0.00206757
v 0.99868172 -0.18983760 -0.00206757
v 0.99864733 -0.18983760 -0.01001577
v 0.99961162 -0.16936648 -0.01118581
v 0.99682206 -0.20990536 -0.03002751
v 0.99541008 -0.20990536 -0.05003923
v 0.99337816 -0.20990536 -0.07005097
v 0.99444580 -0.18983760 -0.07005097
v 0.99275827 -0.16987070 -0.09002236
v 0.98945212 -0.16987070 -0.11003409
v 0.97881055 -0.04996847 -0.17591950
v 0.97915494 -0.02990073 -0.17712988
v 0.97949934 -0.00993383 -0.17829992
v 0.97529781 -0.02990073 -0.19000033
v 0.97595215 -0.00993383 -0.19000033
v 0.97708863 0.03010081 -0.19052483
v 0.97460902 -0.04996847 -0.19000033
v 0.97082078 0.03010081 -0.20997173
v 0.96389854 0.03010081 -0.22998345
v 0.96190107 0.10714480 -0.24128041
v 0.95997250 0.01991567 -0.23998931
v 0.96038580 0.05016855 -0.24128041
v 0.96069574 0.07003461 -0.24192594
v 0.95683861 0.07003461 -0.25193182
v 0.94957203 0.07003461 -0.27000692
v 0.94216764 0.03010081 -0.28493503
v 0.94271868 0.07003461 -0.28622609
v 0.93827605 0.07003461 -0.29623199
v 0.93187046 0.07003461 -0.30999005
v 0.92353630 0.07003461 -0.32717752
v 0.92298526 0.03010081 -0.32604784
v 0.91826713 0.05006771 -0.33661854
v 0.91120720 0.05006771 -0.34997314
v 0.90232199 0.01003307 -0.36409435
v 0.89653623 0.01003307 -0.37410021
v 0.89622629 -0.00993383 -0.37353536
v 0.88503373 -0.00922793 -0.39181221
v 0.88004005 -0.00216892 -0.40008318
v 0.87353116 0.01003307 -0.41037148
v 0.87091380 0.01003307 -0.41424471
v 0.67692006 0.30983907 -0.41424471
v 0.85462421 0.32990682 -0.00206757
v 0.98635268 -0.14990380 -0.13000548
v 0.98208225 -0.14990380 -0.14860509
v 0.98211670 -0.13064280 -0.15179245
v 0.97987819 -0.13790351 -0.15965997
v 0.97770852 -0.10997000 -0.17176384
v 0.97777736 -0.13064280 -0.16841510
v 0.97808731 -0.08990228 -0.17321630
v 0.97846615 -0.06993537 -0.17458807
v 0.99757969 -0.20990536 -0.00206757
v 0.99757969 -0.20990536 -0.01001577
v 0.99561667 -0.22987226 -0.03002751
v 0.99420470 -0.22987226 -0.05003923
v 0.99213839 -0.22987226 -0.07005097
v 0.98945212 -0.22987226 -0.09002236
v 0.99065751 -0.20990536 -0.09002236
v 0.99175954 -0.18983760 -0.09002236
v 0.98845339 -0.18983760 -0.11003409
v 0.98542279 -0.16987070 -0.13000548
v 0.97388577 -0.06993537 -0.19000033
v 0.96823782 -0.04996847 -0.20997173
v 0.96958095 -0.00993383 -0.20997173
v 0.96310645 -0.00993383 -0.22869237
v 0.95976591 0.00660442 -0.23942447
v 0.95945597 0.01860473 -0.24128041
v 0.95625311 0.03010081 -0.25039864
v 0.94785005 0.01003307 -0.27000692
v 0.94843554 0.03010081 -0.27000692
v 0.94185770 0.01003307 -0.28424913
v 0.93772507 0.03010081 -0.29494089
v 0.93073398 0.03010081 -0.30999005
v 0.92270976 0.01003307 -0.32544264
v 0.91737175 -0.00993383 -0.33480299
v 0.91000181 0.01003307 -0.34997314
v 0.90938193 -0.00993383 -0.34997314
v 0.90166765 -0.02990073 -0.36292431
v 0.89588189 -0.02990073 -0.37293017
v 0.88586020 -0.02990073 -0.38931072
v 0.87955791 -0.02990073 -0.39931661
v 0.87242907 -0.02990073 -0.40996802
v 0.87446100 -0.00922793 -0.40803140
v 0.86974287 -0.02415268 -0.41424471
v 0.67636901 0.29229242 -0.41424471
v 0.85393548 0.30993992 -0.00206757
v 0.98160011 -0.16987070 -0.14670882
v 0.97960263 -0.14990380 -0.15861095
v 0.97915494 -0.16987070 -0.15671469
v 0.97557330 -0.16987070 -0.16998860
v 0.97650313 -0.14990380 -0.16998860
v 0.97237051 -0.10997000 -0.19000033
v 0.97071743 -0.14990380 -0.19000033
v 0.99709755 -0.21787193 -0.00206757
v 0.99633992 -0.22987226 -0.00206757
v 0.99630547 -0.22987226 -0.01001577
v 0.99417025 -0.24993998 -0.03002751
v 0.99275827 -0.24993998 -0.05003923
v 0.99072635 -0.24993998 -0.07005097
v 0.98800570 -0.24993998 -0.09002236
v 0.98466516 -0.24993998 -0.11003409
v 0.98607713 -0.22987226 -0.11003409
v 0.98735136 -0.20990536 -0.11003409
v 0.98442405 -0.18983760 -0.13000548
v 0.98111796 -0.18983760 -0.14465116
v 0.96751463 -0.06993537 -0.20997173
v 0.96245211 -0.04996847 -0.22687680
v 0.96279651 -0.02990073 -0.22776441
v 0.95918041 -0.02990073 -0.23781063
v 0.95852607 -0.00993383 -0.24128041
v 0.95518553 -0.00993383 -0.24999519
v 0.94723016 -0.00993383 -0.27000692
v 0.94123781 -0.02990073 -0.28279668
v 0.93741512 0.01003307 -0.29425502
v 0.93014854 0.01003307 -0.30999005
v 0.92202097 -0.02990073 -0.32415158
v 0.91668296 -0.04996847 -0.33343118
v 0.90800440 -0.04996847 -0.34997314
v 0.90128881 -0.04996847 -0.36231911
v 0.89550310 -0.04996847 -0.37232497
v 0.88548142 -0.04996847 -0.38874590
v 0.87917912 -0.04996847 -0.39875177
v 0.86881304 -0.04996847 -0.41424471
v 0.85331559 0.28997302 -0.00206757
v 0.85355663 0.29783878 -0.00206757
v 0.67571467 0.26980445 -0.41424471
v 0.85273010 0.26990527 -0.00206757
v 0.97867280 -0.18983760 -0.15465704
v 0.97457457 -0.18983760 -0.16998860
v 0.96978760 -0.16987070 -0.19000033
v 0.96596491 -0.10997000 -0.20997173
v 0.96675694 -0.08990228 -0.20997173
v 0.96517277 -0.12983605 -0.20997173
v 0.96279651 -0.17027408 -0.21174696
v 0.96431184 -0.14990380 -0.20997173
v 0.99485904 -0.24993998 -0.00206757
v 0.99485904 -0.24993998 -0.01001577
v 0.99241388 -0.26990688 -0.03002751
v 0.99103630 -0.26990688 -0.05003923
v 0.98900443 -0.26990688 -0.07005097
v 0.98631823 -0.26990688 -0.09002236
v 0.98297763 -0.26990688 -0.11003409
v 0.98056692 -0.26990688 -0.12278350
v 0.98139346 -0.24993998 -0.12665674
v 0.98180676 -0.22977141 -0.13137725
v 0.98332202 -0.20990536 -0.13000548
v 0.98056692 -0.20990536 -0.14239177
v 0.96207333 -0.06993537 -0.22586814
v 0.96169448 -0.08990228 -0.22481914
v 0.95849168 -0.06993537 -0.23587400
v 0.95883608 -0.04996847 -0.23684230
v 0.95742404 -0.04321200 -0.24128041
v 0.95787174 -0.02990073 -0.24128041
v 0.95453119 -0.02990073 -0.24999519
v 0.95384240 -0.04996847 -0.24999519
v 0.94585264 -0.04996847 -0.27000692
v 0.94051462 -0.06993537 -0.28122318
v 0.93676078 -0.02990073 -0.29280254
v 0.93607199 -0.06993537 -0.29122904
v 0.93641639 -0.04996847 -0.29203597
v 0.92880541 -0.02990073 -0.30999005
v 0.92811662 -0.04996847 -0.30999005
v 0.92167658 -0.04996847 -0.32342535
v 0.92133218 -0.06993537 -0.32269910
v 0.91626966 -0.06993537 -0.33270496
v 0.90724671 -0.06993537 -0.34997314
v 0.90090996 -0.06993537 -0.36163324
v 0.90053117 -0.08990228 -0.36090699
v 0.89508981 -0.06993537 -0.37163907
v 0.88510257 -0.06993537 -0.38810036
v 0.87876582 -0.06993537 -0.39810622
v 0.87087935 -0.06993537 -0.40996802
v 0.86715996 -0.08990228 -0.41424471
v 0.65904629 -0.34916943 -0.41424471
v 0.83544183 -0.34906858 -0.00206757
v 0.97808731 -0.20990536 -0.15243798
v 0.97350699 -0.20990536 -0.16998860
v 0.96878886 -0.18983760 -0.19000033
v 0.96286535 -0.18983760 -0.20864029
v 0.96131563 -0.10997000 -0.22368944
v 0.96048909 -0.14990380 -0.22138971
v 0.96090239 -0.12983605 -0.22255975
v 0.95983475 -0.17713138 -0.21957412
v 0.96017915 -0.16382012 -0.22050209
v 0.99310267 -0.26990688 -0.00206757
v 0.99310267 -0.26990688 -0.01001577
v 0.99031311 -0.28987378 -0.03002751
v 0.98893559 -0.28987378 -0.05003923
v 0.98690367 -0.28987378 -0.07005097
v 0.98425186 -0.28987378 -0.09002236
v 0.98115242 -0.28846198 -0.10987271
v 0.98005033 -0.28079793 -0.12048376
v 0.97843170 -0.26990688 -0.13278937
v 0.97922385 -0.24993998 -0.13666260
v 0.97974038 -0.23632619 -0.13892201
v 0.98018813 -0.22301492 -0.14081827
v 0.95645976 -0.06993537 -0.24128041
v 0.95718300 -0.04996847 -0.24128041
v 0.95769954 -0.10997000 -0.23369530
v 0.95566767 -0.08990228 -0.24128041
v 0.95315367 -0.06993537 -0.24999519
v 0.94516385 -0.06993537 -0.27000692
v 0.94020468 -0.08576772 -0.28053728
v 0.92663574 -0.08990228 -0.30999005
v 0.92739344 -0.06993537 -0.30999005
v 0.93651968 -0.09131408 -0.28832412
v 0.93417788 -0.12993690 -0.28997830
v 0.92054009 -0.10997000 -0.32112560
v 0.91589087 -0.08990228 -0.33189803
v 0.90642017 -0.08990228 -0.34997314
v 0.89533091 -0.11087760 -0.36820966
v 0.89467657 -0.08990228 -0.37091285
v 0.90507710 -0.12993690 -0.34936798
v 0.89963573 -0.12993690 -0.35937384
v 0.88424158 -0.10997000 -0.38672858
v 0.87787044 -0.10997000 -0.39673445
v 0.86912298 -0.10997000 -0.40996802
v 0.87001836 -0.08990228 -0.40996802
v 0.86626458 -0.10997000 -0.41424471
v 0.84253621 -0.34916943 -0.41424471
v 0.78281933 -0.34916943 -0.24128041
v 0.98180676 -0.34906858 -0.00206757
v 0.97784626 -0.22977141 -0.14852440
v 0.97230160 -0.22987226 -0.16998860
v 0.96768683 -0.20990536 -0.19000033
v 0.96651590 -0.22987226 -0.19000033
v 0.96231437 -0.20990536 -0.20706679
v 0.95952481 -0.18983760 -0.21860582
v 0.95687306 -0.14990380 -0.23139557
v 0.95728630 -0.12983605 -0.23256561
v 0.95546103 -0.18983760 -0.22998345
v 0.95704520 -0.17027408 -0.22828892
v 0.99227613 -0.27787349 -0.00206757
v 0.99100190 -0.28987378 -0.01001577
v 0.98779905 -0.30994153 -0.03002751
v 0.98642153 -0.30994153 -0.05003923
v 0.98438966 -0.30994153 -0.07005097
v 0.98160011 -0.31034490 -0.09058721
v 0.98049808 -0.30399179 -0.10309454
v 0.97932714 -0.29410920 -0.11640880
v 0.97753632 -0.28846198 -0.12827060
v 0.97247380 -0.28987378 -0.15001722
v 0.97447127 -0.26990688 -0.15001722
v 0.97608989 -0.24993998 -0.15001722
v 0.95156944 -0.10997000 -0.24999519
v 0.95401460 -0.12993690 -0.24128041
v 0.94354522 -0.09131408 -0.27194354
v 0.93930924 -0.12993690 -0.27835858
v 0.92580926 -0.10997000 -0.30999005
v 0.92401844 -0.13134870 -0.31192666
v 0.93331689 -0.14990380 -0.28997830
v 0.92019570 -0.12549981 -0.32048005
v 0.91602862 -0.13134870 -0.32826689
v 0.91547757 -0.10997000 -0.33109111
v 0.89343679 -0.12993690 -0.36998489
v 0.88379389 -0.12993690 -0.38600236
v 0.90462935 -0.14990380 -0.34852070
v 0.89915359 -0.14990380 -0.35852656
v 0.89250690 -0.14990380 -0.36998489
v 0.87742275 -0.12993690 -0.39600819
v 0.86536914 -0.12993690 -0.41424471
v 0.84339720 -0.34574080 -0.41424471
v 0.84443033 -0.34916943 -0.41174325
v 0.93496996 -0.34916943 -0.24128041
v 0.98180676 -0.34906858 -0.01013681
v 0.98397636 -0.33747166 -0.00206757
v 0.97092408 -0.24993998 -0.16998860
v 0.96513832 -0.24993998 -0.19000033
v 0.96104014 -0.24993998 -0.20323390
v 0.96169448 -0.22987226 -0.20529155
v 0.95897382 -0.20990536 -0.21703231
v 0.95842278 -0.22987226 -0.21525708
v 0.95439345 -0.20990536 -0.22998345
v 0.94895208 -0.16997156 -0.24999519
v 0.95315367 -0.14990380 -0.24128041
v 0.95122504 -0.18993846 -0.24128041
v 0.99100190 -0.28987378 -0.00206757
v 0.98848784 -0.30994153 -0.01001577
v 0.98469961 -0.32990843 -0.03002751
v 0.98335648 -0.32990843 -0.05003923
v 0.98135900 -0.33021095 -0.06948613
v 0.98060137 -0.32365617 -0.08429319
v 0.97960263 -0.31730306 -0.09764779
v 0.97843170 -0.31034490 -0.10987271
v 0.97457457 -0.30994153 -0.13000548
v 0.97002864 -0.30994153 -0.15001722
v 0.96489727 -0.30994153 -0.16998860
v 0.96730798 -0.28987378 -0.16998860
v 0.96930546 -0.26990688 -0.16998860
v 0.94382071 -0.10997000 -0.26936138
v 0.94984752 -0.14990380 -0.24999519
v 0.94299418 -0.14990380 -0.26730371
v 0.94340748 -0.12993690 -0.26835272
v 0.93886155 -0.14990380 -0.27730960
v 0.92439723 -0.14990380 -0.30934450
v 0.91967916 -0.14990380 -0.31935036
v 0.91992021 -0.13891193 -0.31987488
v 0.93841386 -0.16997156 -0.27617991
v 0.93235260 -0.16997156 -0.28997830
v 0.92391509 -0.16997156 -0.30837619
v 0.91430670 -0.14990380 -0.32996142
v 0.88331175 -0.14990380 -0.38527611
v 0.90414721 -0.16997156 -0.34763306
v 0.89867145 -0.16997156 -0.35763896
v 0.89150822 -0.16997156 -0.36998489
v 0.87694061 -0.14990380 -0.39528197
v 0.86433595 -0.15040803 -0.41424471
v 0.84663445 -0.32990843 -0.41424471
v 0.84966505 -0.32990843 -0.40996802
v 0.85841250 -0.32990843 -0.39762205
v 0.85644948 -0.34916943 -0.39475748
v 0.84515357 -0.34916943 -0.41073459
v 0.93775952 -0.34906858 -0.23401807
v 0.94127226 -0.34906858 -0.22457705
v 0.94144446 -0.34906858 -0.22409290
v 0.94626588 -0.34906858 -0.20997173
v 0.95270592 -0.34906858 -0.18995999
v 0.95814729 -0.34906858 -0.17103760
v 0.95893937 -0.34906858 -0.16821337
v 0.96227992 -0.34906858 -0.15510084
v 0.96324420 -0.34906858 -0.15110657
v 0.96803123 -0.34906858 -0.13000548
v 0.97175062 -0.34906858 -0.11084101
v 0.97188836 -0.34906858 -0.11003409
v 0.97516000 -0.34906858 -0.09006271
v 0.97788072 -0.34906858 -0.06948613
v 0.97980928 -0.34906858 -0.05003923
v 0.98115242 -0.34906858 -0.03002751
v 0.93159497 -0.34916943 -0.24991450
v 0.93910259 -0.33484972 -0.23764923
v 0.98146236 -0.34745508 -0.03002751
v 0.98538834 -0.32990843 -0.01001577
v 0.98538834 -0.32990843 -0.00206757
v 0.96286535 -0.27101615 -0.19177556
v 0.96045470 -0.26516727 -0.20141831
v 0.95769954 -0.24993998 -0.21319942
v 0.95184499 -0.24993998 -0.22998345
v 0.95318806 -0.22987226 -0.22998345
v 0.95015746 -0.20990536 -0.24128041
v 0.94898653 -0.22987226 -0.24128041
v 0.94251204 -0.16997156 -0.26621437
v 0.94795340 -0.18993846 -0.24999519
v 0.94202989 -0.18993846 -0.26500398
v 0.99000317 -0.29784039 -0.00206757
v 0.98845339 -0.30994153 -0.00206757
v 0.98724806 -0.31790811 -0.00206757
v 0.98080802 -0.34412730 -0.05003923
v 0.98025697 -0.34140450 -0.06246588
v 0.97949934 -0.33696741 -0.07578014
v 0.97856951 -0.33021095 -0.09058721
v 0.97543555 -0.32990843 -0.11003409
v 0.97154397 -0.32990843 -0.13000548
v 0.96703249 -0.32990843 -0.15001722
v 0.96203887 -0.32900083 -0.17023067
v 0.96024805 -0.32174015 -0.18100312
v 0.96107459 -0.30994153 -0.18366598
v 0.96227992 -0.28987378 -0.18761991
v 0.91919696 -0.16997156 -0.31838205
v 0.91334242 -0.16997156 -0.32996142
v 0.93789726 -0.18993846 -0.27500987
v 0.93135387 -0.18993846 -0.28997830
v 0.92343295 -0.18993846 -0.30732718
v 0.87642401 -0.16997156 -0.39443469
v 0.88224417 -0.18993846 -0.38354123
v 0.91230923 -0.18993846 -0.32996142
v 0.90359622 -0.18993846 -0.34670511
v 0.89815485 -0.18993846 -0.35671097
v 0.89037174 -0.18993846 -0.36998489
v 0.86643672 -0.16997156 -0.40952420
v 0.86350948 -0.16543362 -0.41424471
v 0.84770203 -0.32395869 -0.41424471
v 0.85954899 -0.31730306 -0.39935696
v 0.86495590 -0.32990843 -0.38765654
v 0.86309618 -0.34916943 -0.38475162
v 0.94271868 -0.32890001 -0.23058864
v 0.94977862 -0.32990843 -0.20997173
v 0.95673525 -0.32900083 -0.18858822
v 0.95918041 -0.33505142 -0.17704919
v 0.96097124 -0.34503484 -0.16369459
v 0.92412174 -0.34916943 -0.26823169
v 0.92319191 -0.34896773 -0.27061212
v 0.93589979 -0.32890001 -0.24838133
v 0.93803501 -0.33293372 -0.24128041
v 0.94023907 -0.32153848 -0.24067521
v 0.95986921 -0.27847853 -0.19960274
v 0.95745850 -0.27101615 -0.20880167
v 0.95022637 -0.26990688 -0.22998345
v 0.94840109 -0.23864558 -0.24128041
v 0.94330418 -0.26990688 -0.24846202
v 0.94354522 -0.25125095 -0.25185111
v 0.94688576 -0.20990536 -0.24999519
v 0.94571483 -0.22987226 -0.24999519
v 0.94147891 -0.20990536 -0.26371291
v 0.95800948 -0.30994153 -0.19367184
v 0.95921487 -0.28987378 -0.19762577
v 0.91868043 -0.18993846 -0.31733304
v 0.93734622 -0.20990536 -0.27371877
v 0.93028629 -0.20990536 -0.28997830
v 0.92291635 -0.20990536 -0.30615714
v 0.87583852 -0.18993846 -0.39354709
v 0.88920081 -0.20990536 -0.36998489
v 0.88158983 -0.20990536 -0.38257292
v 0.87521863 -0.20990536 -0.39253843
v 0.91120720 -0.20990536 -0.32996142
v 0.90307963 -0.20990536 -0.34565610
v 0.89756942 -0.20990536 -0.35566199
v 0.86581683 -0.18993846 -0.40867692
v 0.86209744 -0.18993846 -0.41424471
v 0.85011274 -0.31024405 -0.41424471
v 0.85417652 -0.31034490 -0.40851554
v 0.86058217 -0.30389094 -0.40084976
v 0.86564463 -0.31034490 -0.39157015
v 0.87663066 -0.30994153 -0.37454402
v 0.87497759 -0.32990843 -0.37192151
v 0.87370336 -0.34856439 -0.36816931
v 0.86922628 -0.34916943 -0.37502819
v 0.94578373 -0.30994153 -0.22998345
v 0.95274037 -0.30994153 -0.20997173
v 0.92308855 -0.34916943 -0.27073315
v 0.92033345 -0.34170705 -0.28077936
v 0.92687684 -0.32990843 -0.27000692
v 0.91533983 -0.34916943 -0.28848550
v 0.93989468 -0.32214352 -0.24128041
v 0.93707073 -0.30994153 -0.25273871
v 0.94048017 -0.31810981 -0.24128041
v 0.95515108 -0.28987378 -0.20997173
v 0.94822890 -0.28987378 -0.22998345
v 0.94402736 -0.28997463 -0.24128041
v 0.93937814 -0.26990688 -0.25846788
v 0.93986028 -0.25871333 -0.25975898
v 0.94227099 -0.28997463 -0.24587987
v 0.94037688 -0.24540207 -0.26096937
v 0.94089341 -0.22987226 -0.26226044
v 0.91812938 -0.20990536 -0.31616300
v 0.93676078 -0.22987226 -0.27226630
v 0.92904651 -0.22987226 -0.28997830
v 0.92226207 -0.22987226 -0.30486608
v 0.91750950 -0.22987226 -0.31487194
v 0.86519694 -0.20990536 -0.40770864
v 0.88782322 -0.22987226 -0.36998489
v 0.88090104 -0.22987226 -0.38144320
v 0.87449545 -0.22987226 -0.39144909
v 0.86450815 -0.22987226 -0.40665960
v 0.90996742 -0.22987226 -0.32996142
v 0.90239084 -0.22987226 -0.34444571
v 0.89688063 -0.22987226 -0.35445160
v 0.86075437 -0.20990536 -0.41424471
v 0.85310894 -0.28997463 -0.41424471
v 0.85452092 -0.28997463 -0.41226774
v 0.86151201 -0.28997463 -0.40226188
v 0.86953622 -0.28997463 -0.38995630
v 0.87800819 -0.28997463 -0.37676305
v 0.88272631 -0.30994153 -0.36453813
v 0.88114214 -0.32990843 -0.36191565
v 0.88410383 -0.28997463 -0.36679754
v 0.88017786 -0.34090030 -0.36030179
v 0.87418550 -0.34916943 -0.36712033
v 0.87377220 -0.34916943 -0.36780620
v 0.94158220 -0.30994153 -0.24128041
v 0.91678625 -0.32990843 -0.29300427
v 0.92133218 -0.32990843 -0.28299841
v 0.92994189 -0.30994153 -0.27000692
v 0.90466380 -0.34916943 -0.31124076
v 0.94103122 -0.30994153 -0.24273287
v 0.93249035 -0.28997463 -0.27000692
v 0.93831050 -0.28997463 -0.25588572
v 0.93459111 -0.26990688 -0.27000692
v 0.93676078 -0.25125095 -0.26859480
v 0.92763448 -0.24993998 -0.28997830
v 0.92157328 -0.24993998 -0.30333292
v 0.91675186 -0.24993998 -0.31333879
v 0.90845209 -0.24993998 -0.32996142
v 0.89612299 -0.24993998 -0.35303947
v 0.88510257 -0.25054505 -0.37176013
v 0.88034999 -0.24429280 -0.38055560
v 0.87483984 -0.25054505 -0.38830209
v 0.86368167 -0.24993998 -0.40540889
v 0.85934234 -0.22987226 -0.41424471
v 0.86030662 -0.21625847 -0.41424471
v 0.90166765 -0.24993998 -0.34303361
v 0.85558856 -0.26990688 -0.41424471
v 0.85576069 -0.26990688 -0.41400266
v 0.86271733 -0.26990688 -0.40399677
v 0.87187809 -0.26990688 -0.38995630
v 0.87914467 -0.26990688 -0.37865934
v 0.89109492 -0.30994153 -0.34997314
v 0.88792658 -0.32990843 -0.34997314
v 0.88520586 -0.26990688 -0.36865348
v 0.89519316 -0.26990688 -0.35142562
v 0.89488322 -0.28896621 -0.34819794
v 0.88403499 -0.34856439 -0.35069939
v 0.88344949 -0.34916943 -0.35146597
v 0.90879649 -0.32990843 -0.30999005
v 0.91833603 -0.30994153 -0.29643369
v 0.92284751 -0.30994153 -0.28642786
v 0.90376842 -0.34916943 -0.31313705
v 0.92343295 -0.28886536 -0.29118869
v 0.92594701 -0.26990688 -0.28997830
v 0.92071229 -0.26990688 -0.30155766
v 0.91589087 -0.26990688 -0.31152320
v 0.90669572 -0.26990688 -0.32996142
v 0.87976456 -0.25760406 -0.37966800
v 0.85762042 -0.24993998 -0.41424471
v 0.85896355 -0.23430935 -0.41424471
v 0.90073776 -0.26990688 -0.34141976
v 0.85741377 -0.25205770 -0.41424471
v 0.89936024 -0.29491594 -0.33879727
v 0.89832705 -0.30994153 -0.33686063
v 0.89677733 -0.32990843 -0.33387500
v 0.90018678 -0.28160468 -0.34033042
v 0.88796097 -0.34916943 -0.34331602
v 0.88420719 -0.34916943 -0.35013455
v 0.90073776 -0.34382474 -0.32148871
v 0.90194315 -0.32990843 -0.32386914
v 0.90352732 -0.30994153 -0.32689512
v 0.91186154 -0.30994153 -0.30999005
v 0.91933477 -0.29481509 -0.29865274
v 0.89650184 -0.34916943 -0.32754064
v 0.92016125 -0.28150383 -0.30038762
v 0.91547757 -0.28886536 -0.30821481
v 0.90397501 -0.28896621 -0.33125252
f 1 2 7
f 1 7 21
f 1 21 36
f 1 36 56
f 1 56 75
f 1 75 74
f 1 74 98
f 1 98 120
f 1 120 142
f 1 142 144
f 1 144 174
f 1 174 205
f 1 205 240
f 1 240 279
f 1 279 316
f 1 316 358
f 1 358 399
f 1 399 401
f 1 401 447
f 1 447 490
f 1 490 489
f 1 489 530
f 1 530 571
f 1 571 612
f 1 612 653
f 1 653 701
f 1 701 752
f 1 752 803
f 1 803 858
f 1 858 903
f 1 903 951
f 1 951 994
f 1 994 1033
f 1 1033 1032
f 1 1032 1035
f 1 1035 1083
f 1 1083 1130
f 1 1130 1174
f 1 1174 1241
f 1 1241 1254
f 1 1254 1253
f 1 1253 1252
f 1 1252 1185
f 1 1185 1141
f 1 1141 1093
f 1 1093 1044
f 1 1044 1003
f 1 1003 1002
f 1 1002 960
f 1 960 911
f 1 911 910
f 1 910 866
f 1 866 812
f 1 812 763
f 1 763 710
f 1 710 660
f 1 660 659
f 1 659 654
f 1 654 613
f 1 613 572
f 1 572 531
f 1 531 491
f 1 491 448
f 1 448 404
f 1 404 403
f 1 403 402
f 1 402 360
f 1 360 319
f 1 319 318
f 1 318 283
f 1 283 281
f 1 281 242
f 1 242 206
f 1 206 177
f 1 177 176
f 1 176 175
f 1 175 145
f 1 145 122
f 1 122 99
f 1 99 77
f 1 77 57
f 1 57 37
f 1 37 22
f 1 22 8
f 1 8 3
f 1 3 4
f 1 4 5
f 1 5 6
f 1 6 2
f 2 6 7
f 3 8 9
f 3 9 10
f 3 10 11
f 3 11 4
f 4 11 12
f 4 12 5
f 5 12 6
f 6 13 14
f 6 14 15
f 6 15 16
f 6 16 17
f 6 17 18
f 6 18 7
f 6 12 13
f 7 18 19
f 7 19 20
f 7 20 21
f 8 22 9
f 9 22 10
f 10 22 11
f 11 22 23
f 11 23 24
f 11 24 12
f 12 25 13
f 12 24 26
f 12 26 25
f 13 25 27
f 13 27 28
f 13 28 14
f 14 28 29
f 14 29 30
f 14 30 31
f 14 31 32
f 14 32 16
f 14 16 15
f 16 32 31
f 16 31 33
f 16 33 54
f 16 54 73
f 16 73 96
f 16 96 119
f 16 119 141
f 16 141 172
f 16 172 199
f 16 199 202
f 16 202 238
f 16 238 278
f 16 278 277
f 16 277 315
f 16 315 357
f 16 357 398
f 16 398 442
f 16 442 482
f 16 482 481
f 16 481 522
f 16 522 525
f 16 525 524
f 16 524 566
f 16 566 606
f 16 606 605
f 16 605 650
f 16 650 649
f 16 649 648
f 16 648 697
f 16 697 742
f 16 742 793
f 16 793 850
f 16 850 800
f 16 800 856
f 16 856 901
f 16 901 949
f 16 949 992
f 16 992 1031
f 16 1031 1081
f 16 1081 1127
f 16 1127 1169
f 16 1169 1215
f 16 1215 1278
f 16 1278 1316
f 16 1316 1355
f 16 1355 1387
f 16 1387 1386
f 16 1386 1412
f 16 1412 1411
f 16 1411 1414
f 16 1414 1389
f 16 1389 1356
f 16 1356 1317
f 16 1317 1279
f 16 1279 1216
f 16 1216 1170
f 16 1170 1128
f 16 1128 1082
f 16 1082 1034
f 16 1034 993
f 16 993 950
f 16 950 902
f 16 902 857
f 16 857 802
f 16 802 751
f 16 751 700
f 16 700 652
f 16 652 611
f 16 611 570
f 16 570 529
f 16 529 488
f 16 488 446
f 16 446 400
f 16 400 359
f 16 359 317
f 16 317 280
f 16 280 241
f 16 241 239
f 16 239 204
f 16 204 203
f 16 203 173
f 16 173 143
f 16 143 121
f 16 121 97
f 16 97 76
f 16 76 55
f 16 55 35
f 16 35 34
f 16 34 20
f 16 20 19
f 16 19 17
f 17 19 18
f 20 34 21
f 21 34 35
f 21 35 36
f 22 37 23
f 23 38 24
f 23 37 57
f 23 57 39
f 23 39 38
f 24 40 26
f 24 38 41
f 24 41 42
f 24 42 43
f 24 43 44
f 24 44 40
f 25 26 27
f 26 40 44
f 26 44 45
f 26 45 27
f 27 45 46
f 27 46 47
f 27 47 48
f 27 48 49
f 27 49 28
f 28 49 50
f 28 50 51
f 28 51 29
f 29 51 30
f 30 51 52
f 30 52 31
f 31 52 51
f 31 51 53
f 31 53 54
f 31 54 33
f 35 55 56
f 35 56 36
f 38 39 41
f 39 58 41
f 39 57 77
f 39 77 59
f 39 59 58
f 41 58 60
f 41 60 42
f 42 60 61
f 42 61 62
f 42 62 43
f 43 62 44
f 44 62 63
f 44 63 45
f 45 63 64
f 45 64 65
f 45 65 46
f 46 65 47
f 47 65 48
f 48 65 66
f 48 66 67
f 48 67 49
f 49 67 68
f 49 68 50
f 50 68 69
f 50 69 70
f 50 70 51
f 51 70 71
f 51 71 72
f 51 72 54
f 51 54 53
f 54 72 73
f 55 74 75
f 55 75 56
f 55 76 74
f 58 59 78
f 58 78 60
f 59 77 99
f 59 99 79
f 59 79 80
f 59 80 78
f 60 78 61
f 61 78 81
f 61 81 82
f 61 82 62
f 62 82 83
f 62 83 84
f 62 84 63
f 63 84 64
f 64 84 85
f 64 85 65
f 65 85 66
f 66 85 86
f 66 86 87
f 66 87 88
f 66 88 67
f 67 69 68
f 67 88 89
f 67 89 90
f 67 90 69
f 69 90 91
f 69 91 92
f 69 92 93
f 69 93 70
f 70 93 94
f 70 94 71
f 71 94 72
f 72 94 73
f 73 94 95
f 73 95 96
f 74 76 97
f 74 97 98
f 78 80 102
f 78 102 81
f 79 99 100
f 79 100 80
f 80 100 101
f 80 101 102
f 81 102 103
f 81 103 104
f 81 104 82
f 82 104 83
f 83 104 105
f 83 105 106
f 83 106 107
f 83 107 84
f 84 107 108
f 84 108 85
f 85 108 109
f 85 109 110
f 85 110 86
f 86 110 109
f 86 109 111
f 86 111 87
f 87 111 112
f 87 112 113
f 87 113 89
f 87 89 88
f 89 113 114
f 89 114 91
f 89 91 90
f 91 114 115
f 91 115 92
f 92 115 116
f 92 116 93
f 93 116 117
f 93 117 95
f 93 95 94
f 95 117 118
f 95 118 96
f 96 118 119
f 97 120 98
f 97 121 120
f 99 122 100
f 100 122 145
f 100 145 123
f 100 123 124
f 100 124 101
f 101 124 125
f 101 125 126
f 101 126 102
f 102 126 103
f 103 126 127
f 103 127 104
f 104 127 128
f 104 128 105
f 105 129 130
f 105 130 106
f 105 128 127
f 105 127 129
f 106 130 107
f 107 130 108
f 108 130 109
f 109 130 111
f 111 130 131
f 111 131 112
f 112 131 132
f 112 132 133
f 112 133 134
f 112 134 135
f 112 135 136
f 112 136 137
f 112 137 113
f 113 137 114
f 114 137 138
f 114 138 115
f 115 138 139
f 115 139 140
f 115 140 116
f 116 140 117
f 117 140 118
f 118 140 141
f 118 141 119
f 120 121 142
f 121 143 144
f 121 144 142
f 123 145 175
f 123 175 146
f 123 146 147
f 123 147 124
f 124 147 125
f 125 147 148
f 125 148 149
f 125 149 150
f 125 150 151
f 125 151 126
f 126 151 127
f 127 151 152
f 127 152 153
f 127 153 129
f 129 154 130
f 129 153 155
f 129 155 154
f 130 154 131
f 131 154 155
f 131 155 132
f 132 155 156
f 132 156 133
f 133 156 134
f 134 156 135
f 135 156 157
f 135 157 158
f 135 158 136
f 136 159 137
f 136 158 159
f 137 159 160
f 137 160 161
f 137 161 162
f 137 162 138
f 138 162 161
f 138 161 163
f 138 163 164
f 138 164 165
f 138 165 166
f 138 166 139
f 139 166 167
f 139 167 168
f 139 168 169
f 139 169 170
f 139 170 140
f 140 170 141
f 141 170 171
f 141 171 172
f 143 173 144
f 144 173 174
f 146 175 176
f 146 176 177
f 146 177 178
f 146 178 179
f 146 179 147
f 147 179 180
f 147 180 148
f 148 180 149
f 149 180 181
f 149 181 182
f 149 182 183
f 149 183 184
f 149 184 150
f 150 184 185
f 150 185 151
f 151 185 152
f 152 185 153
f 153 185 186
f 153 186 187
f 153 187 155
f 155 187 156
f 156 188 157
f 156 187 189
f 156 189 190
f 156 190 191
f 156 191 192
f 156 192 193
f 156 193 188
f 157 161 158
f 157 188 194
f 157 194 161
f 158 161 160
f 158 160 159
f 161 194 195
f 161 195 164
f 161 164 163
f 164 195 196
f 164 196 167
f 164 167 166
f 164 166 165
f 167 171 169
f 167 169 168
f 167 196 197
f 167 197 198
f 167 198 171
f 169 171 170
f 171 199 172
f 171 198 200
f 171 200 201
f 171 201 202
f 171 202 199
f 173 203 174
f 174 203 204
f 174 204 205
f 177 206 207
f 177 207 178
f 178 207 208
f 178 208 179
f 179 208 209
f 179 209 180
f 180 209 181
f 181 209 210
f 181 210 211
f 181 211 182
f 182 212 183
f 182 211 213
f 182 213 214
f 182 214 212
f 183 212 215
f 183 215 184
f 184 215 185
f 185 215 216
f 185 216 217
f 185 217 187
f 185 187 186
f 187 217 189
f 188 193 218
f 188 218 219
f 188 219 220
f 188 220 221
f 188 221 222
f 188 222 195
f 188 195 194
f 189 217 223
f 189 223 224
f 189 224 190
f 190 224 191
f 191 224 225
f 191 225 192
f 192 225 226
f 192 226 193
f 193 226 227
f 193 227 218
f 195 222 228
f 195 228 229
f 195 229 230
f 195 230 196
f 196 230 231
f 196 231 232
f 196 232 233
f 196 233 197
f 197 233 232
f 197 232 234
f 197 234 235
f 197 235 198
f 198 235 200
f 200 235 236
f 200 236 237
f 200 237 201
f 201 237 238
f 201 238 202
f 204 239 205
f 205 239 241
f 205 241 240
f 206 242 243
f 206 243 244
f 206 244 207
f 207 244 245
f 207 245 208
f 208 246 209
f 208 245 247
f 208 247 246
f 209 246 210
f 210 246 248
f 210 248 250
f 210 250 211
f 211 249 213
f 211 250 249
f 212 214 254
f 212 254 251
f 212 251 216
f 212 216 215
f 213 249 252
f 213 252 253
f 213 253 254
f 213 254 214
f 216 251 217
f 217 251 255
f 217 255 261
f 217 261 223
f 218 227 256
f 218 256 219
f 219 256 257
f 219 257 258
f 219 258 220
f 220 258 259
f 220 259 221
f 221 259 222
f 222 259 260
f 222 260 229
f 222 229 228
f 223 261 224
f 224 261 262
f 224 262 225
f 225 262 263
f 225 263 264
f 225 264 226
f 226 264 227
f 227 264 265
f 227 265 256
f 229 260 266
f 229 266 267
f 229 267 268
f 229 268 269
f 229 269 232
f 229 232 231
f 229 231 230
f 232 269 270
f 232 270 271
f 232 271 234
f 234 271 272
f 234 272 273
f 234 273 274
f 234 274 235
f 235 274 275
f 235 275 236
f 236 275 237
f 237 275 276
f 237 276 277
f 237 277 278
f 237 278 238
f 240 241 280
f 240 280 279
f 242 281 243
f 243 282 245
f 243 245 244
f 243 281 283
f 243 283 284
f 243 284 285
f 243 285 282
f 245 282 286
f 245 286 247
f 246 247 248
f 247 286 326
f 247 326 287
f 247 287 248
f 248 287 288
f 248 288 250
f 249 250 289
f 249 289 290
f 249 290 252
f 250 288 291
f 250 291 289
f 251 254 255
f 252 290 292
f 252 292 293
f 252 293 253
f 253 293 254
f 254 293 255
f 255 293 261
f 256 294 257
f 256 265 295
f 256 295 296
f 256 296 294
f 257 294 258
f 258 294 296
f 258 296 297
f 258 297 298
f 258 298 259
f 259 298 260
f 260 298 299
f 260 299 300
f 260 300 266
f 261 293 292
f 261 292 301
f 261 301 302
f 261 302 262
f 262 302 263
f 263 302 303
f 263 303 304
f 263 304 264
f 264 304 305
f 264 305 265
f 265 305 334
f 265 334 295
f 266 300 306
f 266 306 267
f 267 306 268
f 268 306 307
f 268 307 269
f 269 307 308
f 269 308 309
f 269 309 270
f 270 309 271
f 271 309 272
f 272 309 310
f 272 310 311
f 272 311 273
f 273 311 312
f 273 312 274
f 274 312 275
f 275 312 313
f 275 313 314
f 275 314 276
f 276 314 315
f 276 315 277
f 279 280 317
f 279 317 316
f 282 285 286
f 283 318 284
f 284 318 319
f 284 319 320
f 284 320 285
f 285 320 321
f 285 321 322
f 285 322 363
f 285 363 323
f 285 323 324
f 285 324 286
f 286 324 325
f 286 325 326
f 287 326 329
f 287 329 288
f 288 327 328
f 288 328 291
f 288 329 327
f 289 291 330
f 289 330 290
f 290 330 331
f 290 331 292
f 291 328 332
f 291 332 330
f 292 333 301
f 292 331 341
f 292 341 333
f 295 334 296
f 296 334 335
f 296 335 297
f 297 335 336
f 297 336 298
f 298 336 337
f 298 337 338
f 298 338 299
f 299 338 300
f 300 338 339
f 300 339 306
f 301 333 302
f 302 340 303
f 302 333 341
f 302 341 340
f 303 342 343
f 303 343 304
f 303 340 344
f 303 344 342
f 304 343 345
f 304 345 305
f 305 345 371
f 305 371 334
f 306 339 346
f 306 346 347
f 306 347 307
f 307 347 348
f 307 348 308
f 308 348 309
f 309 348 349
f 309 349 310
f 310 349 387
f 310 387 350
f 310 350 311
f 311 350 351
f 311 351 352
f 311 352 353
f 311 353 354
f 311 354 312
f 312 354 355
f 312 355 313
f 313 355 356
f 313 356 314
f 314 357 315
f 314 356 357
f 316 317 358
f 317 359 358
f 319 360 321
f 319 321 320
f 321 360 402
f 321 402 361
f 321 361 362
f 321 362 322
f 322 362 363
f 323 363 364
f 323 364 365
f 323 365 325
f 323 325 324
f 325 365 410
f 325 410 366
f 325 366 329
f 325 329 326
f 327 367 332
f 327 332 328
f 327 329 368
f 327 368 412
f 327 412 367
f 329 366 369
f 329 369 368
f 330 332 331
f 331 332 370
f 331 370 341
f 332 367 370
f 334 371 372
f 334 372 335
f 335 372 336
f 336 372 373
f 336 373 337
f 337 373 374
f 337 374 338
f 338 374 375
f 338 375 376
f 338 376 339
f 339 376 377
f 339 377 346
f 340 341 378
f 340 378 344
f 341 370 379
f 341 379 378
f 342 380 381
f 342 381 345
f 342 345 343
f 342 344 382
f 342 382 383
f 342 383 384
f 342 384 385
f 342 385 380
f 344 378 382
f 345 381 371
f 346 377 347
f 347 377 386
f 347 386 348
f 348 387 349
f 348 386 388
f 348 388 389
f 348 389 390
f 348 390 387
f 350 387 390
f 350 390 351
f 351 390 436
f 351 436 391
f 351 391 352
f 352 391 353
f 353 392 394
f 353 394 354
f 353 391 393
f 353 393 392
f 354 394 440
f 354 440 395
f 354 395 355
f 355 396 356
f 355 395 440
f 355 440 397
f 355 397 396
f 356 396 398
f 356 398 357
f 358 359 399
f 359 400 401
f 359 401 399
f 361 402 403
f 361 403 404
f 361 404 405
f 361 405 406
f 361 406 362
f 362 406 407
f 362 407 363
f 363 407 453
f 363 453 408
f 363 408 364
f 364 408 409
f 364 409 410
f 364 410 365
f 366 410 411
f 366 411 369
f 367 412 413
f 367 413 414
f 367 414 370
f 368 369 415
f 368 415 412
f 369 411 457
f 369 457 415
f 370 414 460
f 370 460 416
f 370 416 379
f 371 381 380
f 371 380 417
f 371 417 418
f 371 418 372
f 372 418 373
f 373 419 420
f 373 420 421
f 373 421 422
f 373 422 374
f 373 418 417
f 373 417 419
f 374 422 423
f 374 423 375
f 375 423 376
f 376 423 424
f 376 424 425
f 376 425 426
f 376 426 377
f 377 426 388
f 377 388 386
f 378 379 416
f 378 416 427
f 378 427 382
f 380 385 419
f 380 419 417
f 382 427 467
f 382 467 428
f 382 428 429
f 382 429 383
f 383 429 430
f 383 430 384
f 384 430 461
f 384 461 419
f 384 419 385
f 388 426 431
f 388 431 432
f 388 432 433
f 388 433 434
f 388 434 435
f 388 435 389
f 389 435 390
f 390 435 436
f 391 436 477
f 391 477 437
f 391 437 393
f 392 393 394
f 393 437 438
f 393 438 394
f 394 438 439
f 394 439 397
f 394 397 440
f 396 397 441
f 396 441 442
f 396 442 398
f 397 443 441
f 397 439 444
f 397 444 445
f 397 445 443
f 400 446 447
f 400 447 401
f 404 448 405
f 405 448 491
f 405 491 449
f 405 449 450
f 405 450 451
f 405 451 406
f 406 451 495
f 406 495 452
f 406 452 407
f 407 452 453
f 408 453 409
f 409 453 454
f 409 454 455
f 409 455 456
f 409 456 410
f 410 456 411
f 411 456 501
f 411 501 457
f 412 415 413
f 413 415 458
f 413 458 459
f 413 459 460
f 413 460 414
f 415 457 458
f 416 460 467
f 416 467 427
f 419 461 462
f 419 462 420
f 420 462 463
f 420 463 421
f 421 463 464
f 421 464 422
f 422 464 465
f 422 465 424
f 422 424 423
f 424 465 466
f 424 466 425
f 425 466 431
f 425 431 426
f 428 467 468
f 428 468 429
f 429 468 469
f 429 469 470
f 429 470 430
f 430 470 461
f 431 466 432
f 432 471 472
f 432 472 433
f 432 466 471
f 433 473 434
f 433 472 516
f 433 516 474
f 433 474 475
f 433 475 473
f 434 473 476
f 434 476 477
f 434 477 436
f 434 436 435
f 437 477 476
f 437 476 478
f 437 478 479
f 437 479 438
f 438 480 444
f 438 444 439
f 438 479 480
f 441 443 481
f 441 481 482
f 441 482 442
f 443 445 483
f 443 483 481
f 444 484 485
f 444 485 526
f 444 526 486
f 444 486 487
f 444 487 445
f 444 480 484
f 445 487 483
f 446 488 489
f 446 489 490
f 446 490 447
f 449 492 450
f 449 491 531
f 449 531 493
f 449 493 533
f 449 533 492
f 450 492 532
f 450 532 494
f 450 494 495
f 450 495 451
f 452 495 453
f 453 495 496
f 453 496 537
f 453 537 497
f 453 497 454
f 454 498 455
f 454 497 499
f 454 499 498
f 455 498 539
f 455 539 500
f 455 500 501
f 455 501 456
f 457 501 502
f 457 502 458
f 458 502 503
f 458 503 459
f 459 503 504
f 459 504 505
f 459 505 460
f 460 505 467
f 461 470 506
f 461 506 507
f 461 507 462
f 462 507 508
f 462 508 463
f 463 508 464
f 464 508 509
f 464 509 465
f 465 509 510
f 465 510 471
f 465 471 466
f 467 505 468
f 468 505 504
f 468 504 511
f 468 511 512
f 468 512 469
f 469 512 513
f 469 513 470
f 470 513 506
f 471 510 514
f 471 514 515
f 471 515 516
f 471 516 472
f 473 475 476
f 474 516 517
f 474 517 518
f 474 518 519
f 474 519 475
f 475 519 520
f 475 520 478
f 475 478 476
f 478 520 521
f 478 521 479
f 479 521 485
f 479 485 484
f 479 484 480
f 481 483 522
f 483 487 523
f 483 523 524
f 483 524 525
f 483 525 522
f 485 521 526
f 486 526 527
f 486 527 487
f 487 527 528
f 487 528 523
f 488 529 489
f 489 529 530
f 492 533 532
f 493 534 533
f 493 531 572
f 493 572 534
f 494 532 535
f 494 535 536
f 494 536 495
f 495 536 496
f 496 536 537
f 497 537 538
f 497 538 499
f 498 499 540
f 498 540 539
f 499 538 540
f 500 539 541
f 500 541 542
f 500 542 501
f 501 542 502
f 502 542 543
f 502 543 503
f 503 544 504
f 503 543 544
f 504 544 545
f 504 545 511
f 506 546 547
f 506 547 507
f 506 513 553
f 506 553 548
f 506 548 549
f 506 549 546
f 507 547 508
f 508 547 550
f 508 550 509
f 509 550 590
f 509 590 551
f 509 551 514
f 509 514 510
f 511 545 552
f 511 552 512
f 512 552 553
f 512 553 513
f 514 551 554
f 514 554 555
f 514 555 556
f 514 556 557
f 514 557 515
f 515 557 516
f 516 557 517
f 517 558 518
f 517 557 556
f 517 556 559
f 517 559 560
f 517 560 558
f 518 558 519
f 519 561 520
f 519 558 560
f 519 560 562
f 519 562 563
f 519 563 561
f 520 561 521
f 521 561 563
f 521 563 564
f 521 564 567
f 521 567 526
f 523 528 565
f 523 565 566
f 523 566 524
f 526 567 527
f 527 567 607
f 527 607 568
f 527 568 528
f 528 568 569
f 528 569 565
f 529 570 571
f 529 571 530
f 532 573 535
f 532 533 574
f 532 574 614
f 532 614 573
f 533 534 575
f 533 575 615
f 533 615 574
f 534 572 613
f 534 613 576
f 534 576 616
f 534 616 575
f 535 573 577
f 535 577 578
f 535 578 536
f 536 578 537
f 537 578 579
f 537 579 538
f 538 579 580
f 538 580 540
f 539 540 581
f 539 581 541
f 540 580 582
f 540 582 583
f 540 583 581
f 541 584 543
f 541 543 542
f 541 581 584
f 543 584 628
f 543 628 585
f 543 585 586
f 543 586 544
f 544 586 587
f 544 587 588
f 544 588 545
f 545 588 594
f 545 594 552
f 546 589 590
f 546 590 550
f 546 550 547
f 546 549 591
f 546 591 589
f 548 591 549
f 548 553 592
f 548 592 593
f 548 593 591
f 551 590 589
f 551 589 554
f 552 592 553
f 552 594 592
f 554 589 591
f 554 591 595
f 554 595 596
f 554 596 555
f 555 596 556
f 556 596 597
f 556 597 559
f 559 597 598
f 559 598 599
f 559 599 560
f 560 599 600
f 560 600 562
f 562 600 601
f 562 601 563
f 563 601 602
f 563 602 564
f 564 602 607
f 564 607 567
f 565 569 603
f 565 603 604
f 565 604 605
f 565 605 606
f 565 606 566
f 568 607 608
f 568 608 609
f 568 609 610
f 568 610 569
f 569 610 603
f 570 611 612
f 570 612 571
f 573 614 577
f 574 615 655
f 574 655 614
f 575 616 657
f 575 657 615
f 576 613 654
f 576 654 617
f 576 617 658
f 576 658 616
f 577 618 619
f 577 619 579
f 577 579 578
f 577 614 620
f 577 620 621
f 577 621 618
f 579 619 622
f 579 622 623
f 579 623 580
f 580 623 582
f 581 583 627
f 581 627 624
f 581 624 584
f 582 623 625
f 582 625 671
f 582 671 626
f 582 626 627
f 582 627 583
f 584 624 670
f 584 670 628
f 585 628 629
f 585 629 587
f 585 587 586
f 587 594 588
f 587 629 630
f 587 630 594
f 591 593 631
f 591 631 632
f 591 632 595
f 592 594 633
f 592 633 634
f 592 634 593
f 593 634 631
f 594 630 633
f 595 632 682
f 595 682 635
f 595 635 636
f 595 636 596
f 596 636 637
f 596 637 638
f 596 638 597
f 597 638 598
f 598 638 637
f 598 637 639
f 598 639 599
f 599 640 600
f 599 639 641
f 599 641 642
f 599 642 640
f 600 640 601
f 601 643 602
f 601 640 644
f 601 644 643
f 602 643 609
f 602 609 608
f 602 608 607
f 603 645 646
f 603 646 647
f 603 647 604
f 603 610 645
f 604 647 648
f 604 648 649
f 604 649 650
f 604 650 605
f 609 643 692
f 609 692 651
f 609 651 645
f 609 645 610
f 611 652 612
f 612 652 653
f 614 655 656
f 614 656 620
f 615 657 655
f 616 658 702
f 616 702 657
f 617 654 659
f 617 659 660
f 617 660 661
f 617 661 662
f 617 662 658
f 618 663 622
f 618 622 619
f 618 621 663
f 620 656 664
f 620 664 621
f 621 665 663
f 621 664 666
f 621 666 667
f 621 667 665
f 622 663 668
f 622 668 669
f 622 669 625
f 622 625 623
f 624 627 674
f 624 674 670
f 625 669 672
f 625 672 671
f 626 671 720
f 626 720 673
f 626 673 674
f 626 674 627
f 628 670 675
f 628 675 629
f 629 675 725
f 629 725 676
f 629 676 630
f 630 676 677
f 630 677 678
f 630 678 633
f 631 634 679
f 631 679 632
f 632 679 680
f 632 680 681
f 632 681 682
f 633 678 634
f 634 678 683
f 634 683 684
f 634 684 681
f 634 681 680
f 634 680 679
f 635 682 684
f 635 684 685
f 635 685 686
f 635 686 636
f 636 686 687
f 636 687 637
f 637 687 639
f 639 687 688
f 639 688 641
f 640 642 644
f 641 688 689
f 641 689 690
f 641 690 642
f 642 690 691
f 642 691 644
f 643 644 691
f 643 691 692
f 645 651 693
f 645 693 646
f 646 694 647
f 646 693 695
f 646 695 696
f 646 696 694
f 647 697 648
f 647 694 697
f 651 692 698
f 651 698 699
f 651 699 693
f 652 700 653
f 653 700 701
f 655 657 702
f 655 702 703
f 655 703 704
f 655 704 705
f 655 705 706
f 655 706 707
f 655 707 656
f 656 707 708
f 656 708 709
f 656 709 664
f 658 662 702
f 660 710 661
f 661 710 711
f 661 711 712
f 661 712 713
f 661 713 662
f 662 713 714
f 662 714 702
f 663 665 668
f 664 667 666
f 664 709 715
f 664 715 716
f 664 716 667
f 665 717 668
f 665 667 716
f 665 716 718
f 665 718 717
f 668 719 672
f 668 672 669
f 668 717 773
f 668 773 719
f 670 674 675
f 671 672 721
f 671 721 720
f 672 719 775
f 672 775 721
f 673 722 674
f 673 720 723
f 673 723 722
f 674 722 724
f 674 724 675
f 675 724 780
f 675 780 725
f 676 725 677
f 677 725 726
f 677 726 728
f 677 728 727
f 677 727 683
f 677 683 678
f 681 684 682
f 683 727 684
f 684 727 728
f 684 728 729
f 684 729 730
f 684 730 731
f 684 731 685
f 685 731 732
f 685 732 686
f 686 732 687
f 687 732 733
f 687 733 734
f 687 734 688
f 688 734 689
f 689 735 736
f 689 736 690
f 689 734 737
f 689 737 738
f 689 738 739
f 689 739 735
f 690 736 691
f 691 736 740
f 691 740 741
f 691 741 692
f 692 741 698
f 693 699 695
f 694 742 697
f 694 696 743
f 694 743 742
f 695 699 744
f 695 744 745
f 695 745 696
f 696 746 743
f 696 745 747
f 696 747 748
f 696 748 746
f 698 741 740
f 698 740 749
f 698 749 750
f 698 750 699
f 699 750 744
f 700 751 701
f 701 751 752
f 702 714 753
f 702 753 754
f 702 754 703
f 703 754 704
f 704 755 756
f 704 756 705
f 704 754 757
f 704 757 758
f 704 758 759
f 704 759 755
f 705 756 708
f 705 708 706
f 706 708 707
f 708 756 760
f 708 760 761
f 708 761 762
f 708 762 715
f 708 715 709
f 710 763 764
f 710 764 711
f 711 764 712
f 712 765 714
f 712 714 713
f 712 764 766
f 712 766 767
f 712 767 768
f 712 768 769
f 712 769 765
f 714 765 770
f 714 770 753
f 715 762 771
f 715 771 772
f 715 772 718
f 715 718 716
f 717 718 773
f 718 772 774
f 718 774 773
f 719 773 829
f 719 829 775
f 720 721 723
f 721 775 776
f 721 776 723
f 722 777 780
f 722 780 724
f 722 723 779
f 722 779 777
f 723 778 779
f 723 776 778
f 725 780 781
f 725 781 726
f 726 781 728
f 728 781 782
f 728 782 783
f 728 783 729
f 729 783 784
f 729 784 730
f 730 784 785
f 730 785 731
f 731 785 732
f 732 786 733
f 732 785 787
f 732 787 788
f 732 788 786
f 733 786 734
f 734 786 789
f 734 789 790
f 734 790 737
f 735 739 736
f 736 739 740
f 737 790 738
f 738 749 739
f 738 790 791
f 738 791 792
f 738 792 749
f 739 749 740
f 742 743 746
f 742 746 793
f 744 750 794
f 744 794 795
f 744 795 796
f 744 796 745
f 745 796 747
f 746 797 793
f 746 748 797
f 747 796 798
f 747 798 799
f 747 799 748
f 748 799 800
f 748 800 801
f 748 801 797
f 749 792 794
f 749 794 750
f 751 802 752
f 752 802 803
f 753 770 804
f 753 804 758
f 753 758 757
f 753 757 754
f 755 759 805
f 755 805 756
f 756 805 806
f 756 806 760
f 758 804 807
f 758 807 759
f 759 807 808
f 759 808 809
f 759 809 806
f 759 806 805
f 760 806 810
f 760 810 761
f 761 810 811
f 761 811 771
f 761 771 762
f 763 812 764
f 764 812 813
f 764 813 766
f 765 769 814
f 765 814 770
f 766 813 815
f 766 815 816
f 766 816 767
f 767 815 817
f 767 817 818
f 767 818 819
f 767 819 820
f 767 820 821
f 767 821 768
f 767 816 822
f 767 822 815
f 768 821 769
f 769 821 814
f 770 814 823
f 770 823 824
f 770 824 825
f 770 825 826
f 770 826 804
f 771 811 827
f 771 827 828
f 771 828 774
f 771 774 772
f 773 774 830
f 773 830 829
f 774 828 830
f 775 829 832
f 775 832 776
f 776 831 778
f 776 832 831
f 777 781 780
f 777 779 833
f 777 833 781
f 778 834 833
f 778 833 779
f 778 831 835
f 778 835 834
f 781 833 837
f 781 837 782
f 782 836 783
f 782 837 838
f 782 838 836
f 783 836 784
f 784 787 785
f 784 836 839
f 784 839 787
f 786 788 840
f 786 840 845
f 786 845 789
f 787 839 841
f 787 841 788
f 788 841 842
f 788 842 843
f 788 843 844
f 788 844 840
f 789 845 846
f 789 846 790
f 790 846 791
f 791 846 847
f 791 847 792
f 792 847 848
f 792 848 849
f 792 849 794
f 793 797 850
f 794 849 795
f 795 849 851
f 795 851 852
f 795 852 796
f 796 852 798
f 797 801 800
f 797 800 850
f 798 852 853
f 798 853 799
f 799 854 800
f 799 853 855
f 799 855 899
f 799 899 854
f 800 854 856
f 802 857 803
f 803 857 902
f 803 902 858
f 804 826 859
f 804 859 825
f 804 825 807
f 806 809 810
f 807 825 860
f 807 860 808
f 808 860 861
f 808 861 862
f 808 862 863
f 808 863 810
f 808 810 809
f 810 863 864
f 810 864 865
f 810 865 827
f 810 827 811
f 812 866 813
f 813 866 867
f 813 867 868
f 813 868 869
f 813 869 815
f 814 821 823
f 815 869 818
f 815 818 817
f 815 822 816
f 818 869 870
f 818 870 871
f 818 871 819
f 819 871 917
f 819 917 872
f 819 872 824
f 819 824 820
f 820 824 823
f 820 823 821
f 824 872 918
f 824 918 873
f 824 873 860
f 824 860 825
f 825 859 826
f 827 865 874
f 827 874 828
f 828 874 830
f 829 830 875
f 829 875 876
f 829 876 832
f 830 874 877
f 830 877 878
f 830 878 875
f 831 832 879
f 831 879 880
f 831 880 835
f 832 876 879
f 833 834 881
f 833 881 837
f 834 835 881
f 835 882 883
f 835 883 881
f 835 880 882
f 836 838 839
f 837 881 884
f 837 884 838
f 838 884 839
f 839 884 885
f 839 885 842
f 839 842 841
f 840 844 890
f 840 890 845
f 842 885 886
f 842 886 887
f 842 887 888
f 842 888 843
f 843 888 889
f 843 889 844
f 844 889 890
f 845 890 846
f 846 890 891
f 846 891 892
f 846 892 847
f 847 892 893
f 847 893 848
f 848 893 894
f 848 894 849
f 849 894 851
f 851 894 895
f 851 895 896
f 851 896 852
f 852 896 853
f 853 896 897
f 853 897 898
f 853 898 855
f 854 899 856
f 855 898 900
f 855 900 948
f 855 948 899
f 856 899 901
f 858 902 903
f 860 873 861
f 861 904 862
f 861 873 905
f 861 905 952
f 861 952 904
f 862 906 864
f 862 864 863
f 862 904 906
f 864 906 907
f 864 907 908
f 864 908 865
f 865 908 909
f 865 909 874
f 866 910 867
f 867 910 911
f 867 911 912
f 867 912 913
f 867 913 869
f 867 869 868
f 869 913 912
f 869 912 870
f 870 912 961
f 870 961 914
f 870 914 871
f 871 914 915
f 871 915 916
f 871 916 917
f 872 917 967
f 872 967 918
f 873 918 919
f 873 919 905
f 874 909 920
f 874 920 921
f 874 921 922
f 874 922 878
f 874 878 877
f 875 878 923
f 875 923 924
f 875 924 925
f 875 925 876
f 876 925 879
f 878 922 926
f 878 926 923
f 879 925 880
f 880 925 927
f 880 927 928
f 880 928 882
f 881 883 886
f 881 886 929
f 881 929 884
f 882 886 883
f 882 928 930
f 882 930 931
f 882 931 886
f 884 929 885
f 885 929 886
f 886 931 932
f 886 932 933
f 886 933 887
f 887 933 934
f 887 934 888
f 888 934 935
f 888 935 936
f 888 936 889
f 889 936 937
f 889 937 890
f 890 937 938
f 890 938 891
f 891 938 892
f 892 938 939
f 892 939 893
f 893 939 940
f 893 940 941
f 893 941 942
f 893 942 894
f 894 942 895
f 895 897 896
f 895 942 943
f 895 943 944
f 895 944 897
f 897 944 898
f 898 944 945
f 898 945 946
f 898 946 947
f 898 947 900
f 899 948 949
f 899 949 901
f 900 947 948
f 902 950 951
f 902 951 903
f 904 952 953
f 904 953 906
f 905 919 952
f 906 953 954
f 906 954 955
f 906 955 907
f 907 956 908
f 907 955 957
f 907 957 956
f 908 956 958
f 908 958 959
f 908 959 920
f 908 920 909
f 911 960 961
f 911 961 912
f 914 961 962
f 914 962 963
f 914 963 915
f 915 963 916
f 916 963 964
f 916 964 965
f 916 965 966
f 916 966 967
f 916 967 917
f 918 967 968
f 918 968 919
f 919 968 1012
f 919 1012 969
f 919 969 952
f 920 959 970
f 920 970 926
f 920 926 921
f 921 926 922
f 923 926 971
f 923 971 972
f 923 972 924
f 924 972 925
f 925 972 927
f 926 970 1014
f 926 1014 971
f 927 972 973
f 927 973 928
f 928 973 974
f 928 974 930
f 930 974 975
f 930 975 931
f 931 933 932
f 931 975 933
f 933 975 976
f 933 976 977
f 933 977 978
f 933 978 934
f 934 978 935
f 935 978 977
f 935 977 979
f 935 979 1022
f 935 1022 980
f 935 980 937
f 935 937 936
f 937 980 981
f 937 981 938
f 938 981 982
f 938 982 940
f 938 940 939
f 940 982 941
f 941 982 983
f 941 983 984
f 941 984 942
f 942 984 943
f 943 984 985
f 943 985 986
f 943 986 945
f 943 945 944
f 945 986 987
f 945 987 988
f 945 988 946
f 946 988 989
f 946 989 947
f 947 989 990
f 947 990 991
f 947 991 948
f 948 991 949
f 949 991 992
f 950 993 994
f 950 994 951
f 952 969 995
f 952 995 953
f 953 996 955
f 953 955 954
f 953 995 997
f 953 997 996
f 955 996 998
f 955 998 999
f 955 999 957
f 956 1000 958
f 956 957 999
f 956 999 1001
f 956 1001 1000
f 958 1000 959
f 959 1000 970
f 960 1002 961
f 961 1002 1003
f 961 1003 1004
f 961 1004 962
f 962 1004 1045
f 962 1045 1005
f 962 1005 1006
f 962 1006 963
f 963 1006 1007
f 963 1007 964
f 964 1007 965
f 965 1007 1008
f 965 1008 1009
f 965 1009 1010
f 965 1010 1011
f 965 1011 966
f 966 1011 968
f 966 968 967
f 968 1011 1054
f 968 1054 1012
f 969 1012 1013
f 969 1013 995
f 970 1000 1014
f 971 1014 1015
f 971 1015 972
f 972 1015 1016
f 972 1016 973
f 973 1016 1017
f 973 1017 974
f 974 1017 1018
f 974 1018 975
f 975 1018 1019
f 975 1019 976
f 976 1019 977
f 977 1019 1020
f 977 1020 1021
f 977 1021 979
f 979 1021 1022
f 980 1022 1023
f 980 1023 981
f 981 1023 982
f 982 1023 1024
f 982 1024 983
f 983 1024 1025
f 983 1025 1026
f 983 1026 985
f 983 985 984
f 985 1026 986
f 986 1026 1027
f 986 1027 1028
f 986 1028 987
f 987 1028 1029
f 987 1029 988
f 988 1029 1030
f 988 1030 989
f 989 1030 1031
f 989 1031 990
f 990 992 991
f 990 1031 992
f 993 1032 1033
f 993 1033 994
f 993 1034 1035
f 993 1035 1032
f 995 1013 1036
f 995 1036 997
f 996 997 998
f 997 1036 1037
f 997 1037 998
f 998 1038 1001
f 998 1001 999
f 998 1037 1086
f 998 1086 1038
f 1000 1039 1040
f 1000 1040 1014
f 1000 1001 1041
f 1000 1041 1039
f 1001 1038 1042
f 1001 1042 1043
f 1001 1043 1041
f 1003 1044 1045
f 1003 1045 1004
f 1005 1045 1094
f 1005 1094 1046
f 1005 1046 1047
f 1005 1047 1006
f 1006 1047 1048
f 1006 1048 1007
f 1007 1048 1049
f 1007 1049 1008
f 1008 1049 1050
f 1008 1050 1009
f 1009 1050 1051
f 1009 1051 1052
f 1009 1052 1010
f 1010 1052 1053
f 1010 1053 1011
f 1011 1053 1054
f 1012 1054 1055
f 1012 1055 1013
f 1013 1055 1036
f 1014 1056 1015
f 1014 1040 1057
f 1014 1057 1056
f 1015 1056 1058
f 1015 1058 1059
f 1015 1059 1017
f 1015 1017 1016
f 1017 1059 1060
f 1017 1060 1061
f 1017 1061 1018
f 1018 1061 1062
f 1018 1062 1019
f 1019 1062 1020
f 1020 1062 1063
f 1020 1063 1064
f 1020 1064 1065
f 1020 1065 1021
f 1021 1066 1022
f 1021 1065 1067
f 1021 1067 1068
f 1021 1068 1066
f 1022 1066 1023
f 1023 1066 1069
f 1023 1069 1024
f 1024 1069 1070
f 1024 1070 1071
f 1024 1071 1025
f 1025 1071 1072
f 1025 1072 1073
f 1025 1073 1074
f 1025 1074 1026
f 1026 1074 1075
f 1026 1075 1027
f 1027 1075 1028
f 1028 1075 1076
f 1028 1076 1077
f 1028 1077 1078
f 1028 1078 1029
f 1029 1078 1030
f 1030 1078 1079
f 1030 1079 1080
f 1030 1080 1031
f 1031 1080 1081
f 1034 1082 1083
f 1034 1083 1035
f 1036 1055 1084
f 1036 1084 1085
f 1036 1085 1037
f 1037 1085 1086
f 1038 1086 1087
f 1038 1087 1042
f 1039 1088 1040
f 1039 1041 1088
f 1040 1088 1057
f 1041 1043 1089
f 1041 1089 1090
f 1041 1090 1088
f 1042 1091 1092
f 1042 1092 1043
f 1042 1087 1091
f 1043 1092 1089
f 1044 1093 1094
f 1044 1094 1045
f 1046 1094 1142
f 1046 1142 1095
f 1046 1095 1096
f 1046 1096 1047
f 1047 1096 1097
f 1047 1097 1048
f 1048 1097 1098
f 1048 1098 1049
f 1049 1098 1099
f 1049 1099 1050
f 1050 1099 1100
f 1050 1100 1051
f 1051 1100 1101
f 1051 1101 1052
f 1052 1101 1102
f 1052 1102 1103
f 1052 1103 1053
f 1053 1104 1054
f 1053 1103 1104
f 1054 1104 1055
f 1055 1104 1084
f 1056 1057 1058
f 1057 1088 1058
f 1058 1105 1106
f 1058 1106 1060
f 1058 1060 1059
f 1058 1088 1107
f 1058 1107 1108
f 1058 1108 1105
f 1060 1062 1061
f 1060 1106 1109
f 1060 1109 1063
f 1060 1063 1062
f 1063 1109 1110
f 1063 1110 1064
f 1064 1110 1065
f 1065 1110 1111
f 1065 1111 1067
f 1066 1068 1070
f 1066 1070 1069
f 1067 1112 1113
f 1067 1113 1070
f 1067 1070 1068
f 1067 1111 1114
f 1067 1114 1115
f 1067 1115 1112
f 1070 1113 1072
f 1070 1072 1071
f 1072 1113 1112
f 1072 1112 1116
f 1072 1116 1117
f 1072 1117 1073
f 1073 1117 1074
f 1074 1117 1118
f 1074 1118 1076
f 1074 1076 1075
f 1076 1119 1120
f 1076 1120 1077
f 1076 1118 1121
f 1076 1121 1122
f 1076 1122 1119
f 1077 1120 1123
f 1077 1123 1078
f 1078 1123 1079
f 1079 1123 1124
f 1079 1124 1125
f 1079 1125 1126
f 1079 1126 1080
f 1080 1126 1081
f 1081 1126 1125
f 1081 1125 1127
f 1082 1128 1171
f 1082 1171 1220
f 1082 1220 1219
f 1082 1219 1282
f 1082 1282 1324
f 1082 1324 1366
f 1082 1366 1365
f 1082 1365 1400
f 1082 1400 1420
f 1082 1420 1419
f 1082 1419 1426
f 1082 1426 1404
f 1082 1404 1371
f 1082 1371 1330
f 1082 1330 1327
f 1082 1327 1288
f 1082 1288 1237
f 1082 1237 1172
f 1082 1172 1129
f 1082 1129 1083
f 1083 1129 1172
f 1083 1172 1130
f 1084 1104 1131
f 1084 1131 1132
f 1084 1132 1085
f 1085 1133 1086
f 1085 1132 1134
f 1085 1134 1133
f 1086 1133 1135
f 1086 1135 1087
f 1087 1136 1091
f 1087 1135 1179
f 1087 1179 1136
f 1088 1090 1138
f 1088 1138 1107
f 1089 1092 1137
f 1089 1137 1138
f 1089 1138 1090
f 1091 1136 1139
f 1091 1139 1092
f 1092 1139 1140
f 1092 1140 1137
f 1093 1141 1094
f 1094 1141 1142
f 1095 1142 1186
f 1095 1186 1143
f 1095 1143 1144
f 1095 1144 1096
f 1096 1144 1145
f 1096 1145 1097
f 1097 1145 1098
f 1098 1145 1146
f 1098 1146 1147
f 1098 1147 1099
f 1099 1147 1148
f 1099 1148 1100
f 1100 1148 1149
f 1100 1149 1101
f 1101 1149 1150
f 1101 1150 1151
f 1101 1151 1102
f 1102 1152 1103
f 1102 1151 1152
f 1103 1152 1131
f 1103 1131 1104
f 1105 1109 1106
f 1105 1108 1153
f 1105 1153 1109
f 1107 1153 1108
f 1107 1138 1154
f 1107 1154 1153
f 1109 1153 1155
f 1109 1155 1110
f 1110 1155 1111
f 1111 1155 1156
f 1111 1156 1115
f 1111 1115 1114
f 1112 1157 1158
f 1112 1158 1116
f 1112 1115 1157
f 1115 1156 1159
f 1115 1159 1158
f 1115 1158 1157
f 1116 1160 1161
f 1116 1161 1162
f 1116 1162 1117
f 1116 1158 1160
f 1117 1162 1121
f 1117 1121 1118
f 1119 1122 1163
f 1119 1163 1120
f 1120 1163 1164
f 1120 1164 1123
f 1121 1161 1165
f 1121 1165 1122
f 1121 1162 1161
f 1122 1165 1166
f 1122 1166 1167
f 1122 1167 1163
f 1123 1164 1168
f 1123 1168 1124
f 1124 1168 1169
f 1124 1169 1125
f 1125 1169 1127
f 1128 1170 1171
f 1130 1172 1173
f 1130 1173 1174
f 1131 1152 1132
f 1132 1152 1175
f 1132 1175 1176
f 1132 1176 1134
f 1133 1134 1135
f 1134 1176 1177
f 1134 1177 1178
f 1134 1178 1135
f 1135 1178 1180
f 1135 1180 1179
f 1136 1179 1181
f 1136 1181 1139
f 1137 1140 1182
f 1137 1182 1183
f 1137 1183 1154
f 1137 1154 1138
f 1139 1181 1184
f 1139 1184 1182
f 1139 1182 1140
f 1141 1185 1142
f 1142 1185 1186
f 1143 1186 1240
f 1143 1240 1187
f 1143 1187 1188
f 1143 1188 1144
f 1144 1188 1189
f 1144 1189 1145
f 1145 1189 1190
f 1145 1190 1146
f 1146 1190 1191
f 1146 1191 1147
f 1147 1191 1192
f 1147 1192 1148
f 1148 1192 1193
f 1148 1193 1149
f 1149 1193 1150
f 1150 1193 1194
f 1150 1194 1195
f 1150 1195 1196
f 1150 1196 1197
f 1150 1197 1151
f 1151 1197 1175
f 1151 1175 1152
f 1153 1198 1155
f 1153 1154 1183
f 1153 1183 1199
f 1153 1199 1200
f 1153 1200 1201
f 1153 1201 1198
f 1155 1198 1201
f 1155 1201 1156
f 1156 1201 1200
f 1156 1200 1202
f 1156 1202 1159
f 1158 1159 1203
f 1158 1203 1204
f 1158 1204 1205
f 1158 1205 1160
f 1159 1202 1206
f 1159 1206 1207
f 1159 1207 1208
f 1159 1208 1203
f 1160 1205 1161
f 1161 1205 1204
f 1161 1204 1209
f 1161 1209 1165
f 1163 1167 1210
f 1163 1210 1164
f 1164 1210 1214
f 1164 1214 1168
f 1165 1211 1212
f 1165 1212 1166
f 1165 1209 1211
f 1166 1212 1167
f 1167 1212 1213
f 1167 1213 1210
f 1168 1214 1169
f 1169 1214 1215
f 1170 1216 1217
f 1170 1217 1218
f 1170 1218 1219
f 1170 1219 1220
f 1170 1220 1171
f 1172 1221 1222
f 1172 1222 1223
f 1172 1223 1224
f 1172 1224 1225
f 1172 1225 1226
f 1172 1226 1227
f 1172 1227 1228
f 1172 1228 1229
f 1172 1229 1230
f 1172 1230 1231
f 1172 1231 1232
f 1172 1232 1233
f 1172 1233 1234
f 1172 1234 1235
f 1172 1235 1236
f 1172 1236 1173
f 1172 1237 1238
f 1172 1238 1221
f 1173 1236 1239
f 1173 1239 1240
f 1173 1240 1174
f 1174 1240 1241
f 1175 1197 1176
f 1176 1197 1242
f 1176 1242 1243
f 1176 1243 1177
f 1177 1243 1244
f 1177 1244 1180
f 1177 1180 1178
f 1179 1180 1181
f 1180 1244 1245
f 1180 1245 1246
f 1180 1246 1181
f 1181 1247 1184
f 1181 1246 1248
f 1181 1248 1247
f 1182 1249 1200
f 1182 1200 1199
f 1182 1199 1183
f 1182 1184 1250
f 1182 1250 1251
f 1182 1251 1249
f 1184 1247 1299
f 1184 1299 1250
f 1185 1252 1186
f 1186 1252 1253
f 1186 1253 1254
f 1186 1254 1241
f 1186 1241 1240
f 1187 1240 1239
f 1187 1239 1255
f 1187 1255 1188
f 1188 1255 1256
f 1188 1256 1189
f 1189 1256 1257
f 1189 1257 1190
f 1190 1257 1258
f 1190 1258 1191
f 1191 1258 1259
f 1191 1259 1192
f 1192 1259 1193
f 1193 1259 1260
f 1193 1260 1261
f 1193 1261 1194
f 1194 1261 1262
f 1194 1262 1195
f 1195 1262 1263
f 1195 1263 1264
f 1195 1264 1196
f 1196 1264 1265
f 1196 1265 1197
f 1197 1265 1242
f 1200 1249 1206
f 1200 1206 1202
f 1203 1208 1266
f 1203 1266 1204
f 1204 1266 1267
f 1204 1267 1209
f 1206 1249 1251
f 1206 1251 1268
f 1206 1268 1269
f 1206 1269 1207
f 1207 1269 1270
f 1207 1270 1208
f 1208 1270 1266
f 1209 1267 1211
f 1210 1271 1214
f 1210 1213 1272
f 1210 1272 1271
f 1211 1267 1273
f 1211 1273 1274
f 1211 1274 1275
f 1211 1275 1212
f 1212 1275 1213
f 1213 1275 1276
f 1213 1276 1272
f 1214 1271 1277
f 1214 1277 1215
f 1215 1277 1278
f 1216 1279 1280
f 1216 1280 1217
f 1217 1280 1218
f 1218 1280 1281
f 1218 1281 1282
f 1218 1282 1219
f 1221 1238 1222
f 1222 1238 1283
f 1222 1283 1223
f 1223 1283 1284
f 1223 1284 1224
f 1224 1284 1225
f 1225 1284 1285
f 1225 1285 1286
f 1225 1286 1226
f 1226 1286 1227
f 1227 1286 1287
f 1227 1287 1228
f 1228 1287 1229
f 1229 1287 1261
f 1229 1261 1230
f 1230 1261 1260
f 1230 1260 1259
f 1230 1259 1231
f 1231 1259 1232
f 1232 1259 1258
f 1232 1258 1233
f 1233 1258 1257
f 1233 1257 1234
f 1234 1257 1256
f 1234 1256 1235
f 1235 1256 1255
f 1235 1255 1236
f 1236 1255 1239
f 1237 1288 1289
f 1237 1289 1290
f 1237 1290 1291
f 1237 1291 1238
f 1238 1291 1292
f 1238 1292 1283
f 1242 1293 1243
f 1242 1265 1293
f 1243 1293 1294
f 1243 1294 1244
f 1244 1294 1295
f 1244 1295 1245
f 1245 1296 1246
f 1245 1295 1297
f 1245 1297 1298
f 1245 1298 1296
f 1246 1296 1248
f 1247 1248 1300
f 1247 1300 1299
f 1248 1296 1300
f 1250 1299 1301
f 1250 1301 1251
f 1251 1301 1305
f 1251 1305 1268
f 1261 1287 1262
f 1262 1287 1286
f 1262 1286 1263
f 1263 1286 1285
f 1263 1285 1302
f 1263 1302 1264
f 1264 1302 1303
f 1264 1303 1265
f 1265 1303 1293
f 1266 1270 1304
f 1266 1304 1273
f 1266 1273 1267
f 1268 1305 1306
f 1268 1306 1269
f 1269 1306 1307
f 1269 1307 1270
f 1270 1307 1304
f 1271 1272 1308
f 1271 1308 1277
f 1272 1276 1309
f 1272 1309 1310
f 1272 1310 1311
f 1272 1311 1308
f 1273 1304 1312
f 1273 1312 1313
f 1273 1313 1274
f 1274 1313 1275
f 1275 1313 1314
f 1275 1314 1309
f 1275 1309 1276
f 1277 1308 1315
f 1277 1315 1316
f 1277 1316 1278
f 1279 1317 1280
f 1280 1317 1318
f 1280 1318 1319
f 1280 1319 1320
f 1280 1320 1321
f 1280 1321 1281
f 1281 1321 1322
f 1281 1322 1282
f 1282 1323 1324
f 1282 1322 1323
f 1283 1292 1325
f 1283 1325 1284
f 1284 1325 1326
f 1284 1326 1302
f 1284 1302 1285
f 1288 1327 1289
f 1289 1328 1329
f 1289 1329 1290
f 1289 1327 1330
f 1289 1330 1328
f 1290 1331 1291
f 1290 1329 1331
f 1291 1331 1292
f 1292 1331 1329
f 1292 1329 1332
f 1292 1332 1333
f 1292 1333 1325
f 1293 1303 1334
f 1293 1334 1294
f 1294 1334 1335
f 1294 1335 1295
f 1295 1335 1336
f 1295 1336 1297
f 1296 1298 1300
f 1297 1337 1338
f 1297 1338 1298
f 1297 1336 1339
f 1297 1339 1337
f 1298 1338 1340
f 1298 1340 1300
f 1299 1300 1341
f 1299 1341 1301
f 1300 1340 1341
f 1301 1341 1343
f 1301 1343 1305
f 1302 1326 1303
f 1303 1326 1334
f 1304 1307 1342
f 1304 1342 1312
f 1305 1343 1306
f 1306 1343 1344
f 1306 1344 1307
f 1307 1344 1345
f 1307 1345 1346
f 1307 1346 1342
f 1308 1311 1347
f 1308 1347 1315
f 1309 1314 1348
f 1309 1348 1349
f 1309 1349 1310
f 1310 1349 1311
f 1311 1349 1350
f 1311 1350 1351
f 1311 1351 1347
f 1312 1342 1352
f 1312 1352 1313
f 1313 1352 1353
f 1313 1353 1354
f 1313 1354 1314
f 1314 1354 1348
f 1315 1347 1316
f 1316 1347 1355
f 1317 1356 1357
f 1317 1357 1318
f 1318 1357 1319
f 1319 1357 1358
f 1319 1358 1359
f 1319 1359 1320
f 1320 1359 1360
f 1320 1360 1321
f 1321 1361 1362
f 1321 1362 1322
f 1321 1360 1363
f 1321 1363 1361
f 1322 1362 1364
f 1322 1364 1323
f 1323 1365 1366
f 1323 1366 1324
f 1323 1364 1365
f 1325 1333 1367
f 1325 1367 1336
f 1325 1336 1335
f 1325 1335 1326
f 1326 1335 1334
f 1328 1330 1368
f 1328 1368 1369
f 1328 1369 1329
f 1329 1369 1370
f 1329 1370 1332
f 1330 1371 1368
f 1332 1372 1333
f 1332 1370 1373
f 1332 1373 1374
f 1332 1374 1339
f 1332 1339 1372
f 1333 1372 1367
f 1336 1367 1372
f 1336 1372 1339
f 1337 1375 1338
f 1337 1339 1374
f 1337 1374 1373
f 1337 1373 1375
f 1338 1376 1340
f 1338 1375 1376
f 1340 1343 1341
f 1340 1376 1343
f 1342 1346 1352
f 1343 1376 1377
f 1343 1377 1344
f 1344 1377 1378
f 1344 1378 1345
f 1345 1378 1346
f 1346 1378 1379
f 1346 1379 1380
f 1346 1380 1352
f 1347 1351 1355
f 1348 1354 1381
f 1348 1381 1382
f 1348 1382 1383
f 1348 1383 1349
f 1349 1383 1350
f 1350 1383 1384
f 1350 1384 1385
f 1350 1385 1351
f 1351 1386 1387
f 1351 1387 1355
f 1351 1385 1386
f 1352 1380 1388
f 1352 1388 1353
f 1353 1388 1354
f 1354 1388 1381
f 1356 1389 1357
f 1357 1389 1390
f 1357 1390 1358
f 1358 1390 1391
f 1358 1391 1392
f 1358 1392 1359
f 1359 1392 1393
f 1359 1393 1360
f 1360 1393 1363
f 1361 1363 1394
f 1361 1394 1362
f 1362 1394 1395
f 1362 1395 1364
f 1363 1393 1396
f 1363 1396 1397
f 1363 1397 1398
f 1363 1398 1394
f 1364 1395 1399
f 1364 1399 1400
f 1364 1400 1365
f 1368 1371 1401
f 1368 1401 1402
f 1368 1402 1369
f 1369 1402 1403
f 1369 1403 1370
f 1370 1403 1373
f 1371 1404 1401
f 1373 1403 1405
f 1373 1405 1406
f 1373 1406 1375
f 1375 1406 1377
f 1375 1377 1376
f 1377 1406 1407
f 1377 1407 1378
f 1378 1407 1379
f 1379 1407 1408
f 1379 1408 1409
f 1379 1409 1380
f 1380 1409 1388
f 1381 1388 1413
f 1381 1413 1397
f 1381 1397 1396
f 1381 1396 1382
f 1382 1396 1410
f 1382 1410 1383
f 1383 1410 1384
f 1384 1410 1392
f 1384 1392 1391
f 1384 1391 1385
f 1385 1391 1411
f 1385 1411 1412
f 1385 1412 1386
f 1388 1409 1413
f 1389 1414 1390
f 1390 1414 1391
f 1391 1414 1411
f 1392 1410 1393
f 1393 1410 1396
f 1394 1398 1415
f 1394 1415 1416
f 1394 1416 1395
f 1395 1417 1399
f 1395 1416 1417
f 1397 1413 1418
f 1397 1418 1398
f 1398 1418 1415
f 1399 1419 1420
f 1399 1420 1400
f 1399 1417 1419
f 1401 1404 1421
f 1401 1421 1422
f 1401 1422 1423
f 1401 1423 1424
f 1401 1424 1402
f 1402 1424 1425
f 1402 1425 1403
f 1403 1425 1405
f 1404 1426 1421
f 1405 1427 1406
f 1405 1425 1427
f 1406 1427 1407
f 1407 1427 1408
f 1408 1427 1428
f 1408 1428 1409
f 1409 1418 1413
f 1409 1428 1429
f 1409 1429 1418
f 1415 1423 1416
f 1415 1418 1429
f 1415 1429 1423
f 1416 1423 1417
f 1417 1422 1421
f 1417 1421 1426
f 1417 1426 1419
f 1417 1423 1422
f 1423 1429 1428
f 1423 1428 1424
f 1424 1428 1425
f 1425 1428 1427
