v -0.73106062 -0.16148171 0.00999655
v -0.73119742 -0.16148171 -0.00999763
v -0.73265702 -0.16148171 0.01941084
v -0.41419250 -0.27059689 0.01062417
v -0.73315877 -0.16148171 -0.02111547
v -0.41419250 -0.27082694 -0.00999763
v -0.41419250 -0.27180451 -0.03003664
v -0.73448151 -0.16148171 0.02999072
v -0.41419250 -0.27094191 0.01389676
v -0.73813051 -0.16148171 0.04211723
v -0.73475522 -0.16148171 -0.02999181
v -0.41419250 -0.27723870 -0.04998598
v -0.74497235 -0.16148171 -0.05532075
v -0.74369520 -0.16148171 -0.05316891
v -0.74132335 -0.16148171 -0.04886523
v -0.73826736 -0.16148171 -0.04189417
v -0.73680776 -0.16148171 -0.03770256
v -0.41419250 -0.27384591 0.02886997
v -0.74351275 -0.16148171 0.05336956
v -0.41419250 -0.28436929 -0.07112332
v -0.75372988 -0.16148171 -0.06661791
v -0.41419250 -0.28925717 0.06928422
v -0.75363863 -0.16148171 0.06670648
v -0.41419250 -0.29377130 -0.09087093
v -0.76485926 -0.16148171 -0.07621153
v -0.75838232 -0.16148171 -0.07080951
v -0.41419250 -0.29066604 0.07201883
v -0.76508731 -0.16148171 0.07621044
v -0.41419250 -0.29681906 -0.09497288
v -0.76828015 -0.16148171 -0.07854268
v -0.41419250 -0.29771036 0.08208317
v -0.77525884 -0.16148171 0.08145556
v -0.41419250 -0.30846375 -0.10911673
v -0.77507639 -0.16148171 -0.08161354
v -0.41419250 -0.29975179 0.08416776
v -0.79035652 -0.16148171 0.08383155
v -0.41419250 -0.32999927 0.10828631
v -0.41419250 -0.31800953 0.10153939
v -0.41419250 -0.31010264 0.09416485
v -0.41419250 -0.30981511 -0.11055130
v -0.77940953 -0.16148171 -0.08257738
v -0.41419250 -0.31338042 -0.11391355
v -0.41419250 -0.31401294 -0.11442909
v -0.41419250 -0.32125854 -0.12025699
v -0.80996978 -0.16148171 0.08495229
v -0.41419250 -0.33117813 0.10873461
v -0.79847550 -0.16148171 -0.08513269
v -0.41419250 -0.42318565 -0.12025699
v -0.41816074 -0.32099977 -0.12025699
v -0.82940054 -0.16148171 0.08338325
v -0.80996978 -0.17002116 0.08488505
v -0.45045418 -0.36996505 0.10873461
v -0.45205063 -0.34998214 0.10873461
v -0.45008928 -0.34848702 0.10873461
v -0.43001992 -0.33796367 0.10873461
v -0.41419250 -0.41455996 0.10873461
v -0.81849921 -0.16148171 -0.08488613
v -0.41711167 -0.42051169 -0.12025699
v -0.41419250 -0.42764229 -0.11494464
v -0.69826543 -0.27870506 -0.07872200
v -0.72152764 -0.26102236 -0.08073935
v -0.77954638 -0.21961898 -0.07977551
v -0.80084729 -0.20072868 -0.08040313
v -0.82141840 -0.18129209 -0.08067212
v -0.42700952 -0.32252365 -0.12025699
v -0.82899004 -0.16924484 0.08217283
v -0.41920984 -0.40972954 0.10873461
v -0.43617755 -0.38963166 0.10873461
v -0.84249127 -0.16148171 0.08098483
v -0.41419250 -0.41470373 0.10866736
v -0.80846453 -0.18885395 0.08174695
v -0.80075610 -0.20064242 0.08033480
v -0.77890784 -0.21907267 0.07955028
v -0.74291980 -0.24187329 0.08102967
v -0.83656168 -0.16148171 -0.08210666
v -0.44365799 -0.32640523 -0.12025699
v -0.45930296 -0.33235696 -0.12025699
v -0.46564305 -0.33580723 -0.12025699
v -0.47280419 -0.34998214 -0.12025699
v -0.47139019 -0.35740027 -0.12025699
v -0.46655530 -0.36777985 -0.12025699
v -0.45802581 -0.38040215 -0.12025699
v -0.84185266 -0.16176923 -0.08085144
v -0.41419250 -0.42939615 -0.11279280
v -0.70551777 -0.28342044 -0.06538508
v -0.74228120 -0.26156867 -0.06242630
v -0.72891682 -0.26513395 -0.06944220
v -0.73484641 -0.25601947 -0.07576323
v -0.75724202 -0.23773296 -0.07822888
v -0.76495051 -0.24362719 -0.06489195
v -0.78999162 -0.22424811 -0.06507127
v -0.80020875 -0.22022277 -0.06029688
v -0.78999162 -0.21524861 -0.07506835
v -0.81416607 -0.19463319 -0.07493387
v -0.83473718 -0.17511033 -0.07574081
v -0.84217197 -0.16208550 0.08091760
v -0.82164645 -0.18143584 0.08069344
v -0.85275400 -0.16148171 0.07381204
v -0.41419250 -0.42036793 0.10472232
v -0.71988559 -0.25995854 0.07995375
v -0.83496523 -0.17542660 0.07645701
v -0.81407487 -0.19477694 0.07551558
v -0.78999162 -0.21478859 0.07517935
v -0.78999162 -0.22444937 0.06515986
v -0.76495051 -0.24345468 0.06453224
v -0.75628418 -0.23701414 0.07786915
v -0.84198952 -0.16148171 -0.08087385
v -0.46099061 -0.37629056 -0.12025699
v -0.45912051 -0.37890702 -0.12025699
v -0.85216105 -0.16148171 -0.07298377
v -0.84240007 -0.16148171 -0.08064969
v -0.41419250 -0.43031624 -0.11142549
v -0.68111521 -0.30067188 -0.06121589
v -0.71883655 -0.27928013 -0.05792089
v -0.74606705 -0.26412761 -0.04998598
v -0.75610173 -0.25728455 -0.04998598
v -0.77831489 -0.23876804 -0.05684497
v -0.80271745 -0.22229294 -0.04998598
v -0.81270647 -0.21383974 -0.04998598
v -0.82438320 -0.20383394 -0.04998598
v -0.82132721 -0.20118871 -0.06159695
v -0.80718744 -0.20762923 -0.06760417
v -0.78898811 -0.23307508 -0.05009805
v -0.84203517 -0.18189588 -0.06240389
v -0.84860331 -0.16869855 -0.06928529
v -0.84915066 -0.16918734 0.06995666
v -0.86142033 -0.16148171 0.06612369
v -0.41419250 -0.42407697 0.10212217
v -0.74187070 -0.26125237 0.06184243
v -0.72996593 -0.26493269 0.06634785
v -0.70446867 -0.28264415 0.06385978
v -0.84276497 -0.18255718 0.06312008
v -0.82192016 -0.20167750 0.06217865
v -0.80732423 -0.20783052 0.06809622
v -0.80057365 -0.22048154 0.06067685
v -0.77826929 -0.23879680 0.05700079
v -0.86228698 -0.16231553 -0.06282978
v -0.86265188 -0.16148171 -0.06323324
v -0.41419250 -0.43871194 -0.09625053
v -0.68439931 -0.30254078 -0.04998598
v -0.69443399 -0.29673278 -0.04998598
v -0.41419250 -0.44256473 -0.08811389
v -0.71131051 -0.28629568 -0.05074809
v -0.72239429 -0.28152281 -0.04460638
v -0.72941858 -0.27485225 -0.05074809
v -0.75915772 -0.25946975 -0.03705253
v -0.78169018 -0.24129826 -0.04350805
v -0.77097130 -0.24661744 -0.05009805
v -0.80636638 -0.22525445 -0.02999181
v -0.81635547 -0.21697375 -0.02999181
v -0.82807779 -0.20699668 -0.02999181
v -0.83806688 -0.19834223 -0.02999181
v -0.83437228 -0.19500697 -0.04998598
v -0.84541047 -0.18500113 -0.04998598
v -0.85539955 -0.17568538 -0.04998598
v -0.86287993 -0.16297683 0.06345631
v -0.86356413 -0.16148171 0.06412876
v -0.41419250 -0.43290395 0.08999567
v -0.75569123 -0.25711206 0.04998490
v -0.74565649 -0.26369634 0.04998490
v -0.71778744 -0.27867630 0.05648525
v -0.67951882 -0.29978055 0.05935437
v -0.85640299 -0.17660545 0.04998490
v -0.84641391 -0.18589246 0.04998490
v -0.83528453 -0.19586954 0.04998490
v -0.82524985 -0.20452398 0.04998490
v -0.81329942 -0.21452981 0.04998490
v -0.80331039 -0.22263798 0.04998490
v -0.78907937 -0.23339134 0.05018663
v -0.78182703 -0.24138451 0.04366387
v -0.77097130 -0.24653119 0.05018663
v -0.86561668 -0.16567956 -0.04998598
v -0.86972177 -0.16148171 -0.04998598
v -0.86388338 -0.16148171 -0.06130555
v -0.65935820 -0.31964841 -0.03770256
v -0.69844788 -0.29911923 -0.02999181
v -0.41419250 -0.44664758 -0.07533734
v -0.41419250 -0.44802767 -0.07056294
v -0.70998776 -0.29216117 -0.02999181
v -0.72485733 -0.28304666 -0.02999181
v -0.73489201 -0.27674991 -0.02999181
v -0.75149488 -0.26582402 -0.03021595
v -0.76093662 -0.26070610 -0.02371561
v -0.76855385 -0.25400680 -0.03021595
v -0.78383398 -0.24290839 -0.02999181
v -0.79382300 -0.23526025 -0.02999181
v -0.80814528 -0.22660580 -0.00999763
v -0.81813431 -0.21849763 -0.00999763
v -0.83957207 -0.19966483 -0.01625141
v -0.86014318 -0.18019949 -0.02075683
v -0.85111201 -0.18678379 -0.02844517
v -0.85850120 -0.17861812 -0.03409375
v -0.87131822 -0.16148171 0.04998490
v -0.86643767 -0.16659963 0.04998490
v -0.41419250 -0.43327773 0.08932322
v -0.75902092 -0.25938347 0.03678247
v -0.72909927 -0.27416220 0.04989524
v -0.72180134 -0.28112027 0.04314832
v -0.71067196 -0.28531811 0.04989524
v -0.69028330 -0.29650277 0.05162119
v -0.68380636 -0.30213824 0.04601745
v -0.41419250 -0.44509494 0.06444257
v -0.41419250 -0.44221973 0.07159296
v -0.41419250 -0.43396777 0.08795591
v -0.85909414 -0.17916441 0.03579621
v -0.83875108 -0.19891727 0.02999072
v -0.82871640 -0.20748548 0.02999072
v -0.81685722 -0.21746254 0.02999072
v -0.80686814 -0.22551320 0.02999072
v -0.79405105 -0.23551902 0.02999072
v -0.78406203 -0.24302340 0.02999072
v -0.87314272 -0.16148171 -0.04052685
v -0.66866308 -0.31559435 -0.03061943
v -0.68845880 -0.30478346 -0.02999181
v -0.41419250 -0.45222554 -0.04998598
v -0.69986182 -0.29992431 -0.01808944
v -0.73657966 -0.27787125 -0.00999763
v -0.74998969 -0.26918805 -0.00999763
v -0.76184887 -0.26130989 -0.00999763
v -0.77188355 -0.25420806 -0.00999763
v -0.78556722 -0.24420224 -0.00999763
v -0.79555631 -0.23661162 -0.00999763
v -0.80832773 -0.22672081 0.00999655
v -0.81831682 -0.21867014 0.00999655
v -0.84025627 -0.20026864 -0.00293691
v -0.83172679 -0.20693919 -0.00975106
v -0.84814715 -0.19239050 -0.00975106
v -0.86073613 -0.18074580 -0.00999763
v -0.87072527 -0.17065372 -0.00999763
v -0.87884420 -0.16148171 -0.01905329
v -0.87847930 -0.16148171 -0.02145169
v -0.86935687 -0.16935985 -0.02725718
v -0.87601626 -0.16148171 -0.03196432
v -0.87683725 -0.16148171 0.03366678
v -0.76855385 -0.25403553 0.03005797
v -0.76093662 -0.26067734 0.02344554
v -0.75140369 -0.26562274 0.03005797
v -0.73434466 -0.27654862 0.02999072
v -0.72435558 -0.28264415 0.02999072
v -0.70998776 -0.29124108 0.02999072
v -0.69744438 -0.29860169 0.02999072
v -0.68745530 -0.30415091 0.02999072
v -0.41419250 -0.44920653 0.04998490
v -0.86972177 -0.16979115 0.02880273
v -0.86046249 -0.18048702 0.02245928
v -0.85143125 -0.18741634 0.02947518
v -0.83989137 -0.19992360 0.01844700
v -0.79569316 -0.23669788 0.00999655
v -0.78565842 -0.24425974 0.00999655
v -0.66113704 -0.32062599 -0.02436564
v -0.41419250 -0.45435321 -0.03055218
v -0.67199278 -0.31568059 -0.00999763
v -0.69187969 -0.30466846 -0.01084940
v -0.70027232 -0.30021182 -0.00477494
v -0.70816326 -0.29520893 -0.01084940
v -0.72654498 -0.28405300 -0.00999763
v -0.70027232 -0.30021182 0.00262201
v -0.73644286 -0.27784249 0.00999655
v -0.74998969 -0.26913053 0.00999655
v -0.76184887 -0.26130989 0.00999655
v -0.77183795 -0.25426555 0.00999655
v -0.83190924 -0.20708296 0.01107247
v -0.84025627 -0.20026864 0.00513249
v -0.86096424 -0.18097581 0.00999655
v -0.87095332 -0.17085497 0.00999655
v -0.87980211 -0.16148171 -0.00833892
v -0.87975645 -0.16148171 -0.00999763
v -0.87907231 -0.16148171 0.02263860
v -0.72645378 -0.28396675 0.00999655
v -0.69945133 -0.29972303 0.01593652
v -0.66045290 -0.32025221 0.02138336
v -0.41419250 -0.45282933 0.02999072
v -0.41419250 -0.45009786 0.04565880
v -0.84814715 -0.19273552 0.01107247
v -0.41419250 -0.45441073 -0.02999181
v -0.41419250 -0.45521578 -0.00999763
v -0.67149103 -0.31545058 0.00999655
v -0.69165164 -0.30449593 0.00957066
v -0.70816326 -0.29497889 0.00957066
v -0.41419250 -0.45469823 0.00999655
v -0.88012135 -0.16148171 0.00999655
v -0.41419250 -0.45303059 0.02830960
f 1 2 5
f 1 5 11
f 1 11 17
f 1 17 16
f 1 16 15
f 1 15 14
f 1 14 13
f 1 13 21
f 1 21 26
f 1 26 25
f 1 25 30
f 1 30 34
f 1 34 41
f 1 41 47
f 1 47 57
f 1 57 75
f 1 75 107
f 1 107 111
f 1 111 110
f 1 110 138
f 1 138 174
f 1 174 173
f 1 173 212
f 1 212 233
f 1 233 231
f 1 231 230
f 1 230 267
f 1 267 266
f 1 266 281
f 1 281 268
f 1 268 234
f 1 234 193
f 1 193 157
f 1 157 127
f 1 127 98
f 1 98 69
f 1 69 50
f 1 50 45
f 1 45 36
f 1 36 32
f 1 32 28
f 1 28 23
f 1 23 19
f 1 19 10
f 1 10 8
f 1 8 3
f 1 3 4
f 1 4 2
f 2 4 6
f 2 6 7
f 2 7 5
f 3 8 4
f 4 9 18
f 4 18 22
f 4 22 27
f 4 27 31
f 4 31 35
f 4 35 39
f 4 39 38
f 4 38 37
f 4 37 46
f 4 46 56
f 4 56 70
f 4 70 99
f 4 99 128
f 4 128 158
f 4 158 195
f 4 195 204
f 4 204 203
f 4 203 202
f 4 202 243
f 4 243 273
f 4 273 272
f 4 272 282
f 4 282 280
f 4 280 276
f 4 276 275
f 4 275 251
f 4 251 215
f 4 215 178
f 4 178 177
f 4 177 142
f 4 142 139
f 4 139 112
f 4 112 84
f 4 84 59
f 4 59 48
f 4 48 44
f 4 44 43
f 4 43 42
f 4 42 40
f 4 40 33
f 4 33 29
f 4 29 24
f 4 24 20
f 4 20 12
f 4 12 7
f 4 7 6
f 4 8 10
f 4 10 9
f 5 7 11
f 7 12 13
f 7 13 14
f 7 14 15
f 7 15 16
f 7 16 17
f 7 17 11
f 9 10 19
f 9 19 18
f 12 20 21
f 12 21 13
f 18 19 23
f 18 23 22
f 20 24 25
f 20 25 26
f 20 26 21
f 22 23 28
f 22 28 27
f 24 29 30
f 24 30 25
f 27 28 31
f 28 32 31
f 29 33 34
f 29 34 30
f 31 32 35
f 32 36 37
f 32 37 38
f 32 38 39
f 32 39 35
f 33 40 34
f 34 40 42
f 34 42 43
f 34 43 44
f 34 44 41
f 36 45 46
f 36 46 37
f 41 44 47
f 44 48 58
f 44 58 82
f 44 82 109
f 44 109 108
f 44 108 81
f 44 81 80
f 44 80 79
f 44 79 78
f 44 78 77
f 44 77 76
f 44 76 65
f 44 65 49
f 44 49 47
f 45 50 51
f 45 51 52
f 45 52 53
f 45 53 54
f 45 54 55
f 45 55 46
f 46 55 54
f 46 54 53
f 46 53 52
f 46 52 68
f 46 68 67
f 46 67 56
f 47 49 57
f 48 59 60
f 48 60 61
f 48 61 62
f 48 62 63
f 48 63 64
f 48 64 58
f 49 65 57
f 50 66 67
f 50 67 68
f 50 68 51
f 50 69 66
f 51 68 52
f 56 67 66
f 56 66 71
f 56 71 72
f 56 72 73
f 56 73 74
f 56 74 70
f 57 65 76
f 57 76 77
f 57 77 78
f 57 78 79
f 57 79 80
f 57 80 81
f 57 81 75
f 58 64 83
f 58 83 82
f 59 84 60
f 60 85 86
f 60 86 87
f 60 87 88
f 60 88 61
f 60 84 85
f 61 88 89
f 61 89 62
f 62 89 90
f 62 90 91
f 62 91 92
f 62 92 93
f 62 93 63
f 63 93 94
f 63 94 95
f 63 95 64
f 64 95 83
f 66 69 96
f 66 96 97
f 66 97 71
f 69 98 96
f 70 74 100
f 70 100 99
f 71 97 72
f 72 97 101
f 72 101 102
f 72 102 103
f 72 103 73
f 73 103 104
f 73 104 105
f 73 105 106
f 73 106 100
f 73 100 74
f 75 83 107
f 75 81 108
f 75 108 109
f 75 109 82
f 75 82 83
f 83 95 110
f 83 110 111
f 83 111 107
f 84 112 85
f 85 113 114
f 85 114 86
f 85 112 113
f 86 115 116
f 86 116 117
f 86 117 90
f 86 90 88
f 86 88 87
f 86 114 115
f 88 90 89
f 90 117 92
f 90 92 91
f 92 118 119
f 92 119 120
f 92 120 121
f 92 121 122
f 92 122 93
f 92 117 123
f 92 123 118
f 93 122 94
f 94 122 121
f 94 121 124
f 94 124 95
f 95 124 125
f 95 125 110
f 96 98 101
f 96 101 97
f 98 126 101
f 98 127 126
f 99 100 128
f 100 106 105
f 100 105 129
f 100 129 130
f 100 130 131
f 100 131 128
f 101 126 132
f 101 132 102
f 102 133 134
f 102 134 103
f 102 132 133
f 103 134 135
f 103 135 104
f 104 135 105
f 105 135 136
f 105 136 129
f 110 125 137
f 110 137 138
f 112 139 113
f 113 140 141
f 113 141 114
f 113 139 142
f 113 142 140
f 114 141 143
f 114 143 144
f 114 144 145
f 114 145 115
f 115 145 144
f 115 144 146
f 115 146 116
f 116 146 147
f 116 147 148
f 116 148 117
f 117 148 147
f 117 147 123
f 118 149 150
f 118 150 119
f 118 123 147
f 118 147 149
f 119 150 151
f 119 151 120
f 120 151 152
f 120 152 153
f 120 153 121
f 121 153 154
f 121 154 124
f 124 154 155
f 124 155 137
f 124 137 125
f 126 127 156
f 126 156 132
f 127 157 156
f 128 131 158
f 129 136 159
f 129 159 160
f 129 160 161
f 129 161 131
f 129 131 130
f 131 161 162
f 131 162 158
f 132 156 163
f 132 163 164
f 132 164 165
f 132 165 133
f 133 166 135
f 133 135 134
f 133 165 166
f 135 166 167
f 135 167 168
f 135 168 169
f 135 169 136
f 136 169 170
f 136 170 171
f 136 171 159
f 137 172 173
f 137 173 174
f 137 174 138
f 137 155 172
f 140 175 176
f 140 176 141
f 140 142 177
f 140 177 178
f 140 178 175
f 141 176 144
f 141 144 143
f 144 176 179
f 144 179 180
f 144 180 181
f 144 181 146
f 146 181 182
f 146 182 183
f 146 183 184
f 146 184 185
f 146 185 147
f 147 185 186
f 147 186 149
f 149 186 187
f 149 187 188
f 149 188 150
f 150 188 189
f 150 189 151
f 151 189 152
f 152 189 190
f 152 190 191
f 152 191 192
f 152 192 153
f 153 192 154
f 154 192 155
f 155 192 172
f 156 157 193
f 156 193 194
f 156 194 163
f 158 162 195
f 159 171 170
f 159 170 196
f 159 196 160
f 160 197 161
f 160 196 198
f 160 198 197
f 161 198 199
f 161 199 200
f 161 200 162
f 161 197 198
f 162 200 201
f 162 201 202
f 162 202 203
f 162 203 204
f 162 204 195
f 163 194 205
f 163 205 164
f 164 205 165
f 165 205 206
f 165 206 166
f 166 207 208
f 166 208 167
f 166 206 207
f 167 208 168
f 168 208 209
f 168 209 170
f 168 170 169
f 170 209 210
f 170 210 211
f 170 211 196
f 172 212 173
f 172 192 212
f 175 213 214
f 175 214 176
f 175 178 215
f 175 215 213
f 176 216 179
f 176 214 216
f 179 216 180
f 180 216 217
f 180 217 181
f 181 217 183
f 181 183 182
f 183 217 218
f 183 218 219
f 183 219 220
f 183 220 221
f 183 221 185
f 183 185 184
f 185 221 222
f 185 222 186
f 186 222 187
f 187 222 223
f 187 223 224
f 187 224 188
f 188 224 225
f 188 225 226
f 188 226 189
f 189 226 225
f 189 225 227
f 189 227 228
f 189 228 190
f 190 228 229
f 190 229 230
f 190 230 231
f 190 231 232
f 190 232 192
f 190 192 191
f 192 232 233
f 192 233 212
f 193 234 194
f 194 234 205
f 196 211 235
f 196 235 236
f 196 236 237
f 196 237 238
f 196 238 198
f 198 239 240
f 198 240 241
f 198 241 201
f 198 201 199
f 198 238 239
f 199 201 200
f 201 241 242
f 201 242 243
f 201 243 202
f 205 234 244
f 205 244 245
f 205 245 246
f 205 246 206
f 206 246 245
f 206 245 247
f 206 247 207
f 207 247 208
f 208 224 223
f 208 223 209
f 208 247 224
f 209 223 248
f 209 248 210
f 210 248 249
f 210 249 211
f 211 249 236
f 211 236 235
f 213 250 214
f 213 215 250
f 214 250 216
f 215 251 250
f 216 250 252
f 216 252 253
f 216 253 254
f 216 254 255
f 216 255 256
f 216 256 217
f 217 256 257
f 217 257 258
f 217 258 259
f 217 259 218
f 218 259 260
f 218 260 219
f 219 260 261
f 219 261 220
f 220 261 249
f 220 249 221
f 221 249 248
f 221 248 222
f 222 248 223
f 224 247 262
f 224 262 263
f 224 263 225
f 225 263 264
f 225 264 228
f 225 228 227
f 228 264 229
f 229 265 266
f 229 266 267
f 229 267 230
f 229 264 265
f 231 233 232
f 234 268 244
f 236 260 259
f 236 259 258
f 236 258 238
f 236 238 237
f 236 249 261
f 236 261 260
f 238 258 269
f 238 269 270
f 238 270 239
f 239 270 240
f 240 270 241
f 241 270 242
f 242 270 271
f 242 271 272
f 242 272 273
f 242 273 243
f 244 268 245
f 245 264 247
f 245 268 265
f 245 265 264
f 247 274 263
f 247 263 262
f 247 264 274
f 250 251 275
f 250 275 252
f 252 276 257
f 252 257 254
f 252 254 253
f 252 275 276
f 254 257 256
f 254 256 255
f 257 277 278
f 257 278 270
f 257 270 279
f 257 279 269
f 257 269 258
f 257 276 280
f 257 280 277
f 263 274 264
f 265 268 281
f 265 281 266
f 269 279 270
f 270 278 277
f 270 277 282
f 270 282 271
f 271 282 272
f 277 280 282
