v -0.40891349 -0.42074925 0.10878950
v -0.40296739 -0.42887923 0.10878950
v -0.26220444 -0.50314605 0.29652938
v -0.26096812 -0.50136358 0.30202046
v -0.26473594 -0.48974931 0.30921376
v -0.26179233 -0.48291788 0.32349056
v -0.26556015 -0.47012603 0.33007985
v -0.27880633 -0.45765683 0.31772494
v -0.27556837 -0.45059955 0.33035442
v -0.27845311 -0.43644464 0.33727318
v -0.28122008 -0.42311242 0.34232497
v -0.28169107 -0.42074925 0.34309372
v -0.22111177 -0.42074925 0.10878950
v -0.37147087 -0.46854520 0.10878950
v -0.27698129 -0.50314605 0.26325345
v -0.26514804 -0.50314605 0.29004991
v -0.25873101 -0.50314605 0.30366778
v -0.24230570 -0.50314605 0.33425307
v -0.24048066 -0.50067800 0.34095219
v -0.25749469 -0.49625009 0.31530887
v -0.25372687 -0.48974931 0.33007985
v -0.25820112 -0.47688490 0.33683389
v -0.26191008 -0.46355268 0.34342319
v -0.26508915 -0.44972846 0.35001248
v -0.26132137 -0.44287282 0.36231247
v -0.27439094 -0.42987129 0.34935355
v -0.26338190 -0.42821786 0.36939597
v -0.26026165 -0.42074925 0.37966427
v -0.15011215 -0.50314605 0.10878950
v 0.19240518 -0.42074925 0.52391481
v 0.19240518 -0.50314605 0.44940093
v -0.36099166 -0.48113540 0.10878950
v -0.28216204 -0.50314605 0.25007489
v -0.23712496 -0.50314605 0.34314862
v -0.22240695 -0.50314605 0.36697990
v -0.23647738 -0.49480635 0.35418570
v -0.24377750 -0.48887825 0.34852988
v -0.25431558 -0.47012603 0.35001248
v -0.24089277 -0.48147413 0.36154372
v -0.25802451 -0.45620504 0.35676649
v -0.25355023 -0.44972846 0.36939597
v -0.24336539 -0.45001075 0.38515535
v -0.25720030 -0.43369433 0.37560087
v -0.25967294 -0.42074925 0.38065267
v -0.30276725 -0.50314605 0.10878950
v 0.19240518 -0.42074925 0.66964799
v 0.19240518 -0.50314605 0.63082612
v -0.35157216 -0.48873305 0.10878950
v -0.28922668 -0.50314605 0.22926371
v -0.34880516 -0.49087846 0.10878950
v -0.33744287 -0.49854067 0.10878950
v -0.21687299 -0.50314605 0.37527141
v -0.21881577 -0.49830678 0.37818170
v -0.22994259 -0.48989448 0.36989015
v -0.24371862 -0.46863392 0.36895669
v -0.22340779 -0.48497456 0.38499063
v -0.23671286 -0.47439265 0.37488705
v -0.24053954 -0.46107659 0.38092723
v -0.23671286 -0.45001075 0.39509419
v -0.23947984 -0.43896914 0.39926741
v -0.24301216 -0.42074925 0.40536252
v -0.24236457 -0.42563692 0.40349555
v -0.32761124 -0.50314605 0.10884443
v -0.32837659 -0.50262177 0.10878950
v 0.18999143 -0.42074925 0.66931856
v 0.18999143 -0.43000841 0.66635334
v 0.19240518 -0.42754844 0.66745156
v 0.19069789 -0.50314605 0.63060641
v 0.19240518 -0.49445954 0.63664663
v -0.29511389 -0.50314605 0.21119808
v -0.32872981 -0.50250888 0.10878950
v -0.20162514 -0.50314605 0.39729062
v -0.20080094 -0.50098449 0.40102455
v -0.21504796 -0.49098334 0.39092097
v -0.21881577 -0.47807053 0.39827901
v -0.22976597 -0.46956146 0.38954821
v -0.22276020 -0.46473831 0.40382501
v -0.22623365 -0.44968814 0.41030449
v -0.22140613 -0.44280830 0.42189065
v -0.23518218 -0.43138760 0.41008484
v -0.24042180 -0.42074925 0.40915135
v 0.17980658 -0.42074925 0.66783595
v 0.17009269 -0.43103272 0.66300380
v 0.17680408 -0.44126779 0.66047788
v 0.18999143 -0.44354224 0.66141140
v 0.19240518 -0.43000841 0.66662788
v 0.18999143 -0.49420145 0.63648188
v 0.17603876 -0.50314605 0.62840998
v 0.19240518 -0.48445836 0.64252210
v -0.19732749 -0.50314605 0.40311116
v -0.20050657 -0.48072407 0.42057279
v -0.20403889 -0.48842657 0.40860224
v -0.18272723 -0.50314605 0.42183575
v -0.18231513 -0.50276697 0.42276922
v -0.19567907 -0.49405628 0.41436788
v -0.21434149 -0.47083580 0.41030449
v -0.21793270 -0.45614052 0.41716832
v -0.22440861 -0.43000841 0.42573440
v -0.21045595 -0.45083344 0.43051165
v -0.20297921 -0.44553444 0.44352549
v -0.21675524 -0.43000841 0.43578306
v -0.23677173 -0.42074925 0.41420314
v 0.17003380 -0.42074925 0.66635334
v 0.15543355 -0.42074925 0.66388237
v 0.14995845 -0.42479005 0.66163099
v 0.16349901 -0.43838036 0.65937966
v 0.17009269 -0.44876868 0.65624976
v 0.18999143 -0.45354342 0.65723813
v 0.19240518 -0.45389831 0.65740287
v 0.19240518 -0.44390520 0.66152120
v 0.19240518 -0.44188076 0.66228998
v 0.18999143 -0.48420027 0.64235735
v 0.16997494 -0.48152253 0.64081985
v 0.16997494 -0.49152371 0.63488948
v 0.16997494 -0.50314605 0.62742162
v 0.19240518 -0.48245007 0.64356542
v -0.18873218 -0.48824912 0.42837012
v -0.18178529 -0.48244199 0.44204289
v -0.19585569 -0.46998891 0.43484959
v -0.20386228 -0.46998891 0.42485583
v -0.18166754 -0.50314605 0.42315358
v -0.17666341 -0.49577421 0.43611252
v -0.19938801 -0.45886666 0.43918753
v -0.22040531 -0.42074925 0.43644199
v -0.19414839 -0.45132542 0.45011479
v -0.19732749 -0.43446055 0.45686880
v -0.20568731 -0.42867759 0.45011479
v -0.21881577 -0.42074925 0.43841878
v 0.13853729 -0.42074925 0.66069752
v 0.13788970 -0.42134610 0.66042298
v 0.14995845 -0.43479124 0.65811670
v 0.14995845 -0.45001075 0.65207654
v 0.16997494 -0.46998891 0.64664042
v 0.18999143 -0.46998891 0.64966047
v 0.19240518 -0.46998891 0.64993501
v 0.15984894 -0.48003042 0.63999617
v 0.15190123 -0.48801523 0.63357162
v 0.15007620 -0.50314605 0.62368768
v 0.15178348 -0.50314605 0.62401712
v -0.18031348 -0.46047974 0.46027327
v -0.18484662 -0.46827903 0.44918129
v -0.16959877 -0.48949927 0.44951075
v -0.16247526 -0.48322436 0.46257952
v -0.17583922 -0.47379583 0.45538622
v -0.16282851 -0.50314605 0.44473353
v -0.15711790 -0.49655658 0.45697862
v -0.18319821 -0.45001075 0.46351302
v -0.20050657 -0.42112833 0.46054780
v -0.17784086 -0.43575102 0.47767997
v -0.18920314 -0.42843562 0.46911389
v -0.20056546 -0.42074925 0.46060273
v 0.13753647 -0.42074925 0.66047788
v 0.12664515 -0.42074925 0.65795195
v 0.12005147 -0.42074925 0.65641451
v 0.13070731 -0.42881471 0.65619481
v 0.12994197 -0.45001075 0.64790332
v 0.15190123 -0.47043252 0.64318097
v 0.12994197 -0.46381885 0.64186311
v 0.14648502 -0.47739303 0.63862342
v 0.12864679 -0.49174148 0.62621355
v 0.13441625 -0.50187975 0.62127161
v 0.14242284 -0.50314605 0.62215018
v -0.17383756 -0.45001075 0.47350675
v -0.16824472 -0.46736765 0.46807060
v -0.16059136 -0.46094754 0.48059025
v -0.14987665 -0.48990256 0.46988267
v -0.14263541 -0.48324853 0.48251212
v -0.15594047 -0.47426361 0.47592282
v -0.14422494 -0.50314605 0.46417195
v -0.14298862 -0.50314605 0.46543488
v -0.13698369 -0.49658075 0.47707596
v -0.18113768 -0.42241880 0.48119426
v -0.18149093 -0.42074925 0.48152372
v -0.16382933 -0.45001075 0.48382998
v -0.15776551 -0.43570262 0.49783224
v -0.16948104 -0.42906475 0.48948580
v 0.10980774 -0.42074925 0.65377879
v 0.10998437 -0.43000841 0.65081358
v 0.11074971 -0.45034143 0.64323592
v 0.11793208 -0.46104431 0.64049041
v 0.12994197 -0.47381195 0.63681138
v 0.10998437 -0.48722482 0.62434661
v 0.12105231 -0.49958113 0.61967921
v 0.13335656 -0.50314605 0.62011850
v -0.14816937 -0.46738377 0.48822284
v -0.14033939 -0.46051198 0.50024831
v -0.15358558 -0.45001075 0.49382374
v -0.12956582 -0.48951542 0.48954070
v -0.12208907 -0.48245814 0.50178581
v -0.13545302 -0.47382808 0.49580052
v -0.13398121 -0.50314605 0.47400096
v -0.12391410 -0.50314605 0.48350051
v -0.12314877 -0.50314605 0.48421437
v -0.18019573 -0.42074925 0.48284158
v -0.16118008 -0.42237848 0.50107193
v -0.14357735 -0.45001075 0.50321347
v -0.13692482 -0.43442827 0.51732552
v -0.14917019 -0.42840338 0.50919878
v 0.08932029 -0.42074925 0.64817786
v 0.08867270 -0.43140373 0.64449883
v 0.09450103 -0.44389713 0.64158857
v 0.10462701 -0.45722130 0.63878810
v 0.11074971 -0.46860972 0.63472474
v 0.10998437 -0.49721792 0.61819661
v 0.09338246 -0.48336953 0.62198544
v 0.12387817 -0.50314605 0.61781222
v 0.11746112 -0.50314605 0.61610997
v -0.12927145 -0.46829516 0.50491571
v -0.11926322 -0.45896342 0.51935726
v -0.13015454 -0.45138189 0.51419562
v -0.11602525 -0.49579036 0.49662417
v -0.10837189 -0.48826528 0.50864965
v -0.10071854 -0.48073211 0.52045548
v -0.11496556 -0.46998891 0.51589787
v -0.10330890 -0.50314605 0.50123668
v -0.16153331 -0.42074925 0.50140142
v -0.14057487 -0.42109606 0.52045548
v -0.16012038 -0.42074925 0.50271928
v -0.12361974 -0.44563121 0.52292645
v -0.13015454 -0.42866147 0.52561706
v 0.07884108 -0.42074925 0.64504796
v 0.07377808 -0.42566919 0.64197296
v 0.08119595 -0.43900141 0.63955688
v 0.08867270 -0.45034143 0.63708591
v 0.06995140 -0.46669820 0.62346804
v 0.08802511 -0.47195691 0.62648815
v 0.09797448 -0.50314605 0.61039925
v 0.10945451 -0.50314605 0.61380374
v 0.08802511 -0.49001548 0.61616492
v 0.08949691 -0.50314605 0.60776353
v 0.08007739 -0.47992557 0.61995375
v -0.10501619 -0.46998891 0.52380502
v -0.09724508 -0.45609212 0.53791708
v -0.11055016 -0.45086569 0.53039432
v -0.10277905 -0.50258148 0.50217021
v -0.09430148 -0.49406433 0.51551348
v -0.08859091 -0.48843464 0.52396977
v -0.07834718 -0.47803825 0.53874075
v -0.09035707 -0.47081965 0.53429294
v -0.10136613 -0.50314605 0.50277418
v -0.12179471 -0.42074925 0.53594029
v -0.14063375 -0.42074925 0.52051038
v -0.10189597 -0.44275990 0.54132152
v -0.11573090 -0.43000841 0.53665411
v 0.07183531 -0.42074925 0.64290643
v 0.06129722 -0.42074925 0.63961184
v 0.06824411 -0.43140373 0.63807428
v 0.06995140 -0.45001075 0.63121045
v 0.06995140 -0.47669134 0.61814171
v 0.05688182 -0.46232674 0.62116182
v 0.06995140 -0.48999128 0.61006981
v 0.05976655 -0.50009727 0.60007608
v 0.06995140 -0.50254112 0.60183322
v 0.07260065 -0.50314605 0.60227251
v -0.08394001 -0.46470603 0.54269433
v -0.07510921 -0.45001075 0.55664164
v -0.09035707 -0.44966394 0.54609877
v -0.08317468 -0.50314605 0.51688623
v -0.08093754 -0.50082320 0.52062017
v -0.07104705 -0.49098334 0.53489697
v -0.06969298 -0.46956950 0.54972291
v -0.06486548 -0.48503101 0.54346305
v -0.05503386 -0.47444105 0.55669653
v -0.06486548 -0.47117454 0.55202913
v -0.11838014 -0.42074925 0.53868580
v -0.10578153 -0.43000841 0.54423183
v -0.07923025 -0.43875137 0.55944210
v -0.09000383 -0.43125856 0.55504924
v 0.05917783 -0.42074925 0.63884306
v 0.04999380 -0.43000841 0.63197923
v 0.05011153 -0.45008335 0.62401712
v 0.05011153 -0.46939206 0.61468232
v 0.03633548 -0.48261943 0.60161352
v 0.05187769 -0.48956379 0.60359037
v 0.04357675 -0.45680189 0.61852610
v 0.05699956 -0.50314605 0.59650683
v 0.06995140 -0.50314605 0.60139394
v 0.04646148 -0.49595165 0.59727561
v 0.03327414 -0.50314605 0.58640325
v -0.06486548 -0.46486735 0.55576307
v -0.06092106 -0.46112499 0.56059521
v -0.06486548 -0.45000270 0.56356037
v -0.07558019 -0.50314605 0.52259696
v -0.06486548 -0.49452406 0.53676397
v -0.05821295 -0.49830678 0.53874075
v -0.04997087 -0.48996708 0.54994255
v -0.04172879 -0.48162737 0.56103450
v -0.04902891 -0.46865812 0.56388986
v -0.10065966 -0.42074925 0.55175459
v -0.08335129 -0.42541915 0.56218761
v -0.04219976 -0.44290507 0.58129656
v -0.05656453 -0.43000841 0.57778227
v -0.07157689 -0.43125856 0.56756890
v 0.04946394 -0.42074925 0.63494438
v 0.02991845 -0.42971805 0.62385243
v 0.03657098 -0.44346967 0.62143636
v 0.02980070 -0.47049704 0.60540241
v 0.02303042 -0.47749788 0.59859347
v 0.02980070 -0.48956379 0.59414572
v 0.02991845 -0.45008335 0.61556089
v 0.01543593 -0.46416566 0.60221756
v 0.01802629 -0.50131518 0.58096713
v 0.02403124 -0.50314605 0.58233988
v -0.03690128 -0.45623729 0.57811177
v -0.04932328 -0.44974461 0.57355416
v -0.06616066 -0.50314605 0.52924120
v -0.06486548 -0.50233948 0.53083360
v -0.05615243 -0.50314605 0.53621483
v -0.04520223 -0.50314605 0.54357290
v -0.04384818 -0.50314605 0.54445148
v -0.03431091 -0.49495959 0.55647695
v -0.02100584 -0.50076675 0.56054032
v -0.02860033 -0.48896697 0.56394476
v -0.01700255 -0.47706234 0.57827652
v -0.03013100 -0.47023895 0.57448763
v -0.09394825 -0.42074925 0.55653185
v -0.06486548 -0.42462873 0.57465237
v -0.06092106 -0.42074925 0.57877070
v -0.07881815 -0.42074925 0.56696486
v -0.08511745 -0.42074925 0.56273675
v -0.03013100 -0.44974461 0.58503050
v -0.01706142 -0.43600911 0.59837383
v -0.02913018 -0.42961320 0.59420061
v -0.04655629 -0.43000841 0.58393228
v -0.05956700 -0.42074925 0.57964927
v 0.02997731 -0.42074925 0.62692744
v 0.01779081 -0.42285433 0.62099707
v 0.02320704 -0.43618655 0.61852610
v 0.00925437 -0.47049704 0.59568322
v -0.00369747 -0.48311949 0.58195549
v 0.01078504 -0.48987031 0.58492070
v 0.00925437 -0.45063180 0.60562205
v 0.00213086 -0.45771328 0.59892291
v 0.01626014 -0.50314605 0.57866085
v 0.00466235 -0.49645171 0.57756263
v -0.00717092 -0.50314605 0.56630594
v -0.02359621 -0.46373013 0.58201039
v -0.02324298 -0.50314605 0.55730057
v -0.01441218 -0.50314605 0.56235236
v -0.01023226 -0.48987031 0.57388365
v -0.01023226 -0.47023895 0.58574438
v -0.01023226 -0.45063180 0.59557337
v -0.00375634 -0.44438913 0.60188812
v -0.01023226 -0.42961320 0.60441399
v -0.02188892 -0.42267689 0.60095465
v -0.03219152 -0.42074925 0.59573811
v -0.04161105 -0.42074925 0.59030193
v 0.01979245 -0.42074925 0.62253457
v 0.01708435 -0.42074925 0.62132651
v 0.00737046 -0.42074925 0.61649436
v -0.00410958 -0.42074925 0.61072874
v 0.01066729 -0.42971805 0.61495686
v -0.02006389 -0.42074925 0.60254705
v -0.02247764 -0.42074925 0.60128409
f 1 2 3
f 1 3 4
f 1 4 5
f 1 5 6
f 1 6 7
f 1 7 8
f 1 8 9
f 1 9 10
f 1 10 11
f 1 11 12
f 1 12 28
f 1 28 44
f 1 44 61
f 1 61 81
f 1 81 102
f 1 102 124
f 1 124 128
f 1 128 151
f 1 151 173
f 1 173 194
f 1 194 216
f 1 216 218
f 1 218 242
f 1 242 241
f 1 241 265
f 1 265 289
f 1 289 316
f 1 316 320
f 1 320 319
f 1 319 318
f 1 318 325
f 1 325 347
f 1 347 346
f 1 346 354
f 1 354 353
f 1 353 351
f 1 351 350
f 1 350 349
f 1 349 348
f 1 348 326
f 1 326 294
f 1 294 269
f 1 269 246
f 1 246 245
f 1 245 221
f 1 221 199
f 1 199 177
f 1 177 154
f 1 154 153
f 1 153 152
f 1 152 129
f 1 129 104
f 1 104 103
f 1 103 82
f 1 82 65
f 1 65 46
f 1 46 30
f 1 30 13
f 1 13 29
f 1 29 45
f 1 45 64
f 1 64 71
f 1 71 51
f 1 51 50
f 1 50 48
f 1 48 32
f 1 32 14
f 1 14 2
f 2 14 15
f 2 15 16
f 2 16 3
f 3 16 15
f 3 15 33
f 3 33 49
f 3 49 70
f 3 70 63
f 3 63 45
f 3 45 29
f 3 29 31
f 3 31 47
f 3 47 68
f 3 68 88
f 3 88 115
f 3 115 139
f 3 139 138
f 3 138 162
f 3 162 184
f 3 184 206
f 3 206 207
f 3 207 228
f 3 228 227
f 3 227 230
f 3 230 254
f 3 254 277
f 3 277 276
f 3 276 279
f 3 279 303
f 3 303 334
f 3 334 336
f 3 336 339
f 3 339 338
f 3 338 310
f 3 310 309
f 3 309 308
f 3 308 306
f 3 306 283
f 3 283 258
f 3 258 240
f 3 240 215
f 3 215 193
f 3 193 192
f 3 192 191
f 3 191 170
f 3 170 169
f 3 169 145
f 3 145 121
f 3 121 93
f 3 93 90
f 3 90 72
f 3 72 52
f 3 52 35
f 3 35 34
f 3 34 18
f 3 18 17
f 3 17 4
f 4 17 18
f 4 18 19
f 4 19 20
f 4 20 5
f 5 20 6
f 6 20 21
f 6 21 22
f 6 22 7
f 7 22 23
f 7 23 8
f 8 23 9
f 9 23 24
f 9 24 10
f 10 24 25
f 10 25 26
f 10 26 11
f 11 26 27
f 11 27 12
f 12 27 28
f 13 30 31
f 13 31 29
f 14 32 15
f 15 32 33
f 18 34 19
f 19 34 35
f 19 35 36
f 19 36 37
f 19 37 22
f 19 22 21
f 19 21 20
f 22 38 23
f 22 37 39
f 22 39 38
f 23 38 40
f 23 40 24
f 24 40 25
f 25 27 26
f 25 40 41
f 25 41 42
f 25 42 43
f 25 43 27
f 27 43 44
f 27 44 28
f 30 46 67
f 30 67 86
f 30 86 111
f 30 111 110
f 30 110 109
f 30 109 135
f 30 135 116
f 30 116 89
f 30 89 69
f 30 69 47
f 30 47 31
f 32 48 33
f 33 48 50
f 33 50 51
f 33 51 49
f 35 52 53
f 35 53 36
f 36 39 37
f 36 53 54
f 36 54 39
f 38 39 55
f 38 55 40
f 39 54 56
f 39 56 57
f 39 57 55
f 40 55 58
f 40 58 41
f 41 58 42
f 42 58 59
f 42 59 60
f 42 60 43
f 43 60 44
f 44 60 62
f 44 62 61
f 45 63 64
f 46 65 66
f 46 66 67
f 47 69 68
f 49 51 70
f 51 71 63
f 51 63 70
f 52 72 53
f 53 72 73
f 53 73 74
f 53 74 56
f 53 56 54
f 55 57 58
f 56 74 75
f 56 75 57
f 57 75 76
f 57 76 58
f 58 76 77
f 58 77 59
f 59 77 78
f 59 78 60
f 60 78 79
f 60 79 80
f 60 80 62
f 61 62 81
f 62 80 81
f 63 71 64
f 65 82 66
f 66 82 83
f 66 83 84
f 66 84 85
f 66 85 86
f 66 86 67
f 68 69 87
f 68 87 88
f 69 89 112
f 69 112 87
f 72 90 73
f 73 91 92
f 73 92 75
f 73 75 74
f 73 90 93
f 73 93 94
f 73 94 95
f 73 95 91
f 75 92 91
f 75 91 96
f 75 96 77
f 75 77 76
f 77 96 97
f 77 97 78
f 78 97 79
f 79 98 80
f 79 97 99
f 79 99 100
f 79 100 101
f 79 101 98
f 80 98 102
f 80 102 81
f 82 103 83
f 83 103 104
f 83 104 105
f 83 105 106
f 83 106 84
f 84 106 107
f 84 107 108
f 84 108 85
f 85 108 109
f 85 109 110
f 85 110 111
f 85 111 86
f 87 112 113
f 87 113 114
f 87 114 115
f 87 115 88
f 89 116 112
f 91 95 117
f 91 117 118
f 91 118 119
f 91 119 120
f 91 120 96
f 93 121 94
f 94 117 95
f 94 121 122
f 94 122 117
f 96 120 97
f 97 120 123
f 97 123 99
f 98 101 124
f 98 124 102
f 99 123 100
f 100 123 125
f 100 125 126
f 100 126 127
f 100 127 101
f 101 127 128
f 101 128 124
f 104 129 130
f 104 130 105
f 105 130 131
f 105 131 106
f 106 131 132
f 106 132 107
f 107 133 108
f 107 132 133
f 108 134 109
f 108 133 134
f 109 134 135
f 112 116 134
f 112 134 113
f 113 133 136
f 113 136 114
f 113 134 133
f 114 136 137
f 114 137 138
f 114 138 139
f 114 139 115
f 116 135 134
f 117 122 118
f 118 140 141
f 118 141 123
f 118 123 119
f 118 122 142
f 118 142 143
f 118 143 144
f 118 144 140
f 119 123 120
f 121 145 122
f 122 145 146
f 122 146 142
f 123 141 140
f 123 140 125
f 125 140 147
f 125 147 126
f 126 148 127
f 126 147 149
f 126 149 150
f 126 150 148
f 127 148 128
f 128 148 151
f 129 152 130
f 130 152 153
f 130 153 154
f 130 154 155
f 130 155 131
f 131 155 156
f 131 156 132
f 132 157 133
f 132 156 158
f 132 158 157
f 133 157 136
f 136 157 159
f 136 159 137
f 137 159 160
f 137 160 161
f 137 161 162
f 137 162 138
f 140 163 147
f 140 144 164
f 140 164 165
f 140 165 163
f 142 146 143
f 143 164 144
f 143 146 166
f 143 166 167
f 143 167 168
f 143 168 164
f 145 169 146
f 146 169 170
f 146 170 171
f 146 171 166
f 147 163 149
f 148 150 172
f 148 172 173
f 148 173 151
f 149 163 174
f 149 174 175
f 149 175 176
f 149 176 172
f 149 172 150
f 154 177 178
f 154 178 155
f 155 178 179
f 155 179 156
f 156 179 180
f 156 180 158
f 157 158 159
f 158 180 181
f 158 181 159
f 159 181 160
f 160 181 182
f 160 182 183
f 160 183 161
f 161 183 184
f 161 184 162
f 163 165 174
f 164 168 165
f 165 168 185
f 165 185 186
f 165 186 187
f 165 187 174
f 166 171 167
f 167 171 188
f 167 188 189
f 167 189 190
f 167 190 185
f 167 185 168
f 170 191 171
f 171 191 192
f 171 192 193
f 171 193 188
f 172 194 173
f 172 176 195
f 172 195 194
f 174 187 175
f 175 187 196
f 175 196 197
f 175 197 198
f 175 198 195
f 175 195 176
f 177 199 178
f 178 199 200
f 178 200 201
f 178 201 179
f 179 201 202
f 179 202 180
f 180 202 203
f 180 203 181
f 181 203 182
f 182 204 183
f 182 203 205
f 182 205 204
f 183 206 184
f 183 204 207
f 183 207 206
f 185 190 186
f 186 190 208
f 186 208 209
f 186 209 210
f 186 210 196
f 186 196 187
f 188 193 211
f 188 211 189
f 189 208 190
f 189 211 212
f 189 212 213
f 189 213 214
f 189 214 208
f 193 215 211
f 194 195 216
f 195 198 217
f 195 217 218
f 195 218 216
f 196 210 197
f 197 210 219
f 197 219 220
f 197 220 217
f 197 217 198
f 199 221 222
f 199 222 200
f 200 222 223
f 200 223 201
f 201 223 224
f 201 224 202
f 202 224 225
f 202 225 226
f 202 226 203
f 203 226 205
f 204 227 228
f 204 228 207
f 204 205 229
f 204 229 230
f 204 230 227
f 205 226 231
f 205 231 229
f 208 214 209
f 209 219 210
f 209 214 232
f 209 232 233
f 209 233 234
f 209 234 219
f 211 215 235
f 211 235 212
f 212 235 236
f 212 236 213
f 213 232 214
f 213 236 237
f 213 237 238
f 213 238 239
f 213 239 232
f 215 240 235
f 217 220 241
f 217 241 242
f 217 242 218
f 219 234 243
f 219 243 244
f 219 244 220
f 220 244 241
f 221 245 222
f 222 245 246
f 222 246 247
f 222 247 223
f 223 247 248
f 223 248 224
f 224 248 225
f 225 249 231
f 225 231 226
f 225 248 250
f 225 250 249
f 229 231 251
f 229 251 252
f 229 252 253
f 229 253 230
f 230 253 254
f 231 249 251
f 232 239 233
f 233 243 234
f 233 239 255
f 233 255 256
f 233 256 257
f 233 257 243
f 235 240 258
f 235 258 259
f 235 259 236
f 236 259 237
f 237 259 260
f 237 260 238
f 238 261 255
f 238 255 239
f 238 260 262
f 238 262 263
f 238 263 264
f 238 264 261
f 241 244 265
f 243 266 244
f 243 257 267
f 243 267 268
f 243 268 266
f 244 266 265
f 246 269 247
f 247 269 270
f 247 270 271
f 247 271 248
f 248 271 250
f 249 250 272
f 249 272 273
f 249 273 274
f 249 274 251
f 250 271 275
f 250 275 272
f 251 274 252
f 252 276 277
f 252 277 253
f 252 274 278
f 252 278 279
f 252 279 276
f 253 277 254
f 255 261 280
f 255 280 281
f 255 281 256
f 256 267 257
f 256 281 282
f 256 282 267
f 258 283 259
f 259 284 260
f 259 283 285
f 259 285 284
f 260 284 262
f 261 264 280
f 262 285 286
f 262 286 287
f 262 287 263
f 262 284 285
f 263 287 288
f 263 288 281
f 263 281 280
f 263 280 264
f 265 266 289
f 266 268 289
f 267 290 268
f 267 282 291
f 267 291 292
f 267 292 293
f 267 293 290
f 268 290 289
f 269 294 270
f 270 294 295
f 270 295 296
f 270 296 271
f 271 296 275
f 272 275 297
f 272 297 273
f 273 278 274
f 273 297 298
f 273 298 299
f 273 299 278
f 275 296 300
f 275 300 301
f 275 301 297
f 278 299 302
f 278 302 303
f 278 303 279
f 281 288 304
f 281 304 305
f 281 305 282
f 282 305 291
f 283 306 307
f 283 307 285
f 285 308 309
f 285 309 310
f 285 310 311
f 285 311 286
f 285 307 308
f 286 311 287
f 287 311 312
f 287 312 313
f 287 313 314
f 287 314 315
f 287 315 288
f 288 315 304
f 289 290 316
f 290 293 317
f 290 317 318
f 290 318 319
f 290 319 320
f 290 320 316
f 291 304 321
f 291 321 322
f 291 322 323
f 291 323 324
f 291 324 292
f 291 305 304
f 292 324 325
f 292 325 317
f 292 317 293
f 294 326 295
f 295 327 328
f 295 328 296
f 295 326 327
f 296 328 300
f 297 301 298
f 298 301 329
f 298 329 330
f 298 330 331
f 298 331 299
f 299 331 302
f 300 328 332
f 300 332 301
f 301 332 333
f 301 333 329
f 302 334 303
f 302 331 335
f 302 335 336
f 302 336 334
f 304 315 337
f 304 337 321
f 306 308 307
f 310 338 312
f 310 312 311
f 312 338 339
f 312 339 336
f 312 336 335
f 312 335 340
f 312 340 313
f 313 340 314
f 314 340 330
f 314 330 341
f 314 341 337
f 314 337 315
f 317 325 318
f 321 337 342
f 321 342 322
f 322 342 343
f 322 343 344
f 322 344 345
f 322 345 323
f 323 346 347
f 323 347 324
f 323 345 346
f 324 347 325
f 326 348 327
f 327 348 349
f 327 349 350
f 327 350 351
f 327 351 352
f 327 352 328
f 328 352 343
f 328 343 332
f 329 333 341
f 329 341 330
f 330 335 331
f 330 340 335
f 332 343 333
f 333 343 342
f 333 342 337
f 333 337 341
f 343 352 344
f 344 352 351
f 344 351 345
f 345 351 353
f 345 353 354
f 345 354 346
