v -0.06413931 -0.42083102 -0.39922068
v -0.06413931 -0.42083102 -0.57554418
v 0.19246405 -0.42083102 -0.52621984
v 0.19246405 0.36926568 -0.56213468
v 0.19246405 0.38996124 -0.56310368
v 0.19246405 0.40990227 -0.56422895
v 0.19246405 0.42995113 -0.56547928
v 0.19246405 0.43243033 -0.56563556
v -0.06413931 0.36991242 -0.45098308
v -0.05881433 -0.42083102 -0.57923257
v -0.06413931 -0.41630387 -0.57745087
v 0.19246405 -0.42083102 -0.67125458
v 0.19246405 0.44999999 -0.56688583
v -0.06413931 0.39017683 -0.45232716
v -0.05713144 -0.42083102 -0.58029532
v -0.06413931 -0.41554934 -0.57776344
v -0.05941716 -0.41889083 -0.57960767
v 0.19133376 -0.42083102 -0.67112958
v 0.19246405 -0.41242343 -0.67403650
v 0.19246405 0.46994102 -0.56847996
v -0.06413931 0.40990227 -0.45382750
v -0.06413931 0.40127915 -0.45313984
v -0.05163065 -0.41134554 -0.58714068
v -0.03563061 -0.40994430 -0.59742439
v -0.02359919 -0.42083102 -0.60051888
v -0.06413931 -0.40638721 -0.58107674
v -0.06315972 -0.40563267 -0.58201444
v 0.18997739 -0.42083102 -0.67094201
v 0.18997739 -0.40994430 -0.67453665
v 0.19246405 -0.40983647 -0.67488045
v -0.06413931 0.44892210 -0.45704705
v -0.06413931 0.42995113 -0.45545292
v 0.19246405 0.47242022 -0.56869876
v -0.03912199 -0.39830303 -0.59945613
v -0.02563373 -0.40994430 -0.60320705
v -0.02226795 -0.42083102 -0.60126907
v -0.06413931 -0.40455478 -0.58173317
v -0.06413931 -0.40186006 -0.58263963
v 0.18080941 -0.42083102 -0.66950417
v 0.16998363 -0.40994430 -0.67137963
v 0.18997739 -0.39539272 -0.67878765
v 0.19246405 -0.39603943 -0.67894393
v -0.06413931 0.46994102 -0.45929757
v 0.19246405 0.48998988 -0.57029289
v 0.19246405 0.50993091 -0.57232463
v -0.06413931 -0.39011103 -0.58642179
v -0.04947051 -0.39097333 -0.59533018
v -0.04246265 -0.38493711 -0.60148787
v -0.03146106 -0.39097333 -0.60602021
v -0.00815175 -0.40821964 -0.61330324
v -0.01320042 -0.38989544 -0.61642897
v 0.00440715 -0.41371691 -0.61786681
v -0.00930717 -0.42083102 -0.60805196
v 0.16928034 -0.42083102 -0.66766000
v 0.14998987 -0.42083102 -0.66403413
v 0.14998987 -0.40994430 -0.66756624
v 0.17033528 -0.38903314 -0.67738104
v 0.17721754 -0.38181126 -0.68044430
v 0.18997739 -0.38536829 -0.68138206
v 0.19246405 -0.38795525 -0.68106943
v -0.06413931 0.48998988 -0.46157938
v 0.19246405 0.51241010 -0.57260597
v -0.06413931 -0.37081671 -0.59201688
v -0.05587555 -0.36995441 -0.59745568
v -0.01731975 -0.37448156 -0.61858571
v -0.04587867 -0.36995441 -0.60351962
v -0.02829622 -0.36866093 -0.61395961
v -0.00026476 -0.40035105 -0.62011737
v -0.00320354 -0.38989544 -0.62164897
v 0.01066148 -0.40821964 -0.62268049
v 0.01679022 -0.42083102 -0.62127388
v 0.01488127 -0.42083102 -0.62036741
v 0.00719522 -0.42083102 -0.61655402
v 0.13574809 -0.42083102 -0.66106468
v 0.12994587 -0.41048324 -0.66294008
v 0.12999611 -0.38989544 -0.66881651
v 0.14998987 -0.38989544 -0.67325509
v 0.16388001 -0.37696069 -0.67931902
v 0.17033528 -0.37017000 -0.68194467
v 0.18997739 -0.36995441 -0.68503916
v 0.19246405 -0.38612282 -0.68150705
v -0.06413931 0.50982314 -0.46407998
v 0.19246405 0.52997977 -0.57463771
v -0.06413931 -0.35292369 -0.59661174
v -0.05871386 -0.35648072 -0.59920609
v -0.02050970 -0.36111569 -0.62027365
v -0.01038723 -0.36866093 -0.62358695
v -0.05122876 -0.34990555 -0.60514504
v 0.01000841 -0.38989544 -0.62799424
v 0.01186713 -0.36822981 -0.63452703
v 0.03000218 -0.40994430 -0.63080740
v 0.03012777 -0.39075774 -0.63674635
v 0.03005241 -0.42083102 -0.62696272
v 0.13250789 -0.42083102 -0.66031450
v 0.11507614 -0.40412366 -0.66125220
v 0.12323942 -0.41748953 -0.65918922
v 0.10904787 -0.39086556 -0.66334647
v 0.10997723 -0.36995441 -0.66875398
v 0.12999611 -0.36995441 -0.67372394
v 0.14953774 -0.37017000 -0.67803746
v 0.15591767 -0.36370260 -0.68081939
v 0.16998363 -0.34990555 -0.68607068
v 0.19246405 -0.36995441 -0.68532050
v 0.18997739 -0.34990555 -0.68916512
v 0.19246405 -0.35238475 -0.68894637
v 0.19246405 0.54981303 -0.57726336
v -0.06413931 0.52997977 -0.46695566
v -0.06413931 -0.34580958 -0.59823710
v -0.06115028 -0.34322262 -0.60070646
v -0.03269183 -0.34990555 -0.61586630
v -0.02269495 -0.34990555 -0.62146139
v -0.00998535 -0.34990555 -0.62799424
v 0.00747152 -0.34990555 -0.63652754
v -0.04999799 -0.32996452 -0.60992742
v -0.03625856 -0.32996452 -0.61789805
v 0.02354690 -0.37372702 -0.63849676
v 0.01977924 -0.36036116 -0.64009088
v 0.04884052 -0.41166890 -0.63793409
v 0.04941823 -0.42083102 -0.63493341
v 0.04138054 -0.39808744 -0.63946575
v 0.03688445 -0.38472158 -0.64127868
v 0.12512326 -0.42083102 -0.65847027
v 0.10904787 -0.41048324 -0.65772009
v 0.10173859 -0.39819521 -0.65953302
v 0.10955022 -0.42083102 -0.65434432
v 0.09566008 -0.38493711 -0.66128349
v 0.08940575 -0.37006217 -0.66294008
v 0.08998346 -0.34990555 -0.66737866
v 0.10997723 -0.34990555 -0.67294252
v 0.13009658 -0.35022897 -0.67788118
v 0.14258012 -0.35712749 -0.67944407
v 0.14953774 -0.35022897 -0.68219471
v 0.14998987 -0.32996452 -0.68585181
v 0.16998363 -0.32996452 -0.68957150
v 0.18997739 -0.32996452 -0.69263470
v 0.19246405 -0.33244365 -0.69250971
v 0.19246405 -0.34990555 -0.68944645
v 0.19246405 0.56533468 -0.57957637
v 0.19246405 0.57395786 -0.58098298
v -0.06413931 0.55078310 -0.47045648
v -0.06413931 -0.33998895 -0.59948742
v -0.06331041 -0.32996452 -0.60201925
v -0.02626168 -0.32996452 -0.62339938
v -0.00998535 -0.32996452 -0.63183892
v 0.00335220 -0.32996452 -0.63843423
v 0.01746840 -0.34990555 -0.64115363
v -0.06413931 -0.32425165 -0.60251939
v -0.06413931 -0.30980790 -0.60498869
v -0.03861963 -0.31498176 -0.61921090
v 0.03012777 -0.36822981 -0.64252895
v 0.03000218 -0.34990555 -0.64640492
v 0.06044494 -0.41953754 -0.63984084
v 0.06129894 -0.42083102 -0.63965327
v 0.04884052 -0.39075774 -0.64421690
v 0.05471808 -0.40617168 -0.64196634
v 0.05002106 -0.36995441 -0.64993697
v 0.08998346 -0.40994430 -0.65240633
v 0.08940575 -0.39086556 -0.65778261
v 0.08933040 -0.42083102 -0.64849913
v 0.08234765 -0.37685293 -0.65928298
v 0.07744969 -0.36348706 -0.66081458
v 0.07317966 -0.34990555 -0.66218996
v 0.08998346 -0.32996452 -0.67097330
v 0.11138383 -0.32888663 -0.67706847
v 0.12351571 -0.33492285 -0.67916274
v 0.13685326 -0.34376156 -0.68072563
v 0.13009658 -0.32888663 -0.68166333
v 0.14998987 -0.30991566 -0.68882132
v 0.16998363 -0.30991566 -0.69250971
v 0.18997739 -0.30991566 -0.69554168
v 0.19246405 -0.31239486 -0.69547915
v 0.19246405 -0.32996452 -0.69291604
v 0.19246405 0.57676041 -0.58148307
v 0.19246405 0.58991069 -0.58392119
v -0.06413931 0.56996965 -0.47436368
v -0.06413931 -0.32996452 -0.60148787
v -0.06413931 -0.32867104 -0.60173798
v -0.03115965 -0.30894560 -0.62418079
v -0.00860387 -0.31013125 -0.63574612
v 0.00099113 -0.31681418 -0.63952827
v 0.01334908 -0.32996452 -0.64299786
v 0.03000218 -0.32996452 -0.65009326
v -0.04823975 -0.30894560 -0.61452228
v -0.06413931 -0.29417843 -0.60727054
v -0.04042811 -0.30161589 -0.62024236
v 0.05002106 -0.34990555 -0.65421927
v 0.05024712 -0.33179694 -0.65765762
v 0.06825657 -0.41166890 -0.64493579
v 0.07184841 -0.42083102 -0.64306033
v 0.06325813 -0.42083102 -0.64030969
v 0.06998970 -0.38989544 -0.65190619
v 0.07046694 -0.37006217 -0.65703243
v 0.06318278 -0.34990555 -0.65893912
v 0.06011841 -0.33977336 -0.65993941
v 0.06805563 -0.33179694 -0.66384655
v 0.06998970 -0.30991566 -0.66781628
v 0.08998346 -0.30991566 -0.67403650
v 0.10578255 -0.30991566 -0.67850631
v 0.11896940 -0.32155693 -0.68025672
v 0.12999611 -0.30991566 -0.68444526
v 0.12999611 -0.28997463 -0.68691462
v 0.14998987 -0.28997463 -0.69122815
v 0.16998363 -0.28997463 -0.69494778
v 0.19140911 -0.28868115 -0.69829232
v 0.19246405 -0.28975904 -0.69829232
v 0.19246405 -0.30980790 -0.69585425
v 0.19246405 0.59238988 -0.58445257
v -0.06413931 0.57600588 -0.47570777
v 0.19246405 0.60995954 -0.58826596
v -0.02997911 -0.28997463 -0.62743163
v -0.01279854 -0.28997463 -0.63640249
v -0.00101829 -0.30355608 -0.64049721
v 0.00860182 -0.31013125 -0.64393556
v 0.03000218 -0.30991566 -0.65318775
v 0.04371649 -0.30991566 -0.65862656
v -0.06413931 -0.28997463 -0.60786444
v -0.05178136 -0.28997463 -0.61520994
v -0.04178447 -0.28997463 -0.62099254
v 0.05705404 -0.32640749 -0.66106468
v 0.05371337 -0.30991566 -0.66228372
v 0.06998970 -0.28997463 -0.67031687
v 0.09159100 -0.28900450 -0.67709976
v 0.10206512 -0.29504073 -0.67944407
v 0.11577944 -0.30991566 -0.68106943
v 0.10922369 -0.28900450 -0.68194467
v 0.10997723 -0.26992577 -0.68400764
v 0.12999611 -0.26992577 -0.68888384
v 0.14998987 -0.26992577 -0.69319737
v 0.16998363 -0.26992577 -0.69688570
v 0.18533060 -0.26992577 -0.69926131
v 0.19246405 -0.27574641 -0.69969893
v 0.19246405 -0.28760326 -0.69854236
v -0.06413931 0.58829385 -0.47858346
v 0.19246405 0.63011616 -0.59389234
v -0.02997911 -0.26992577 -0.62974465
v -0.01508426 -0.26992577 -0.63755906
v -0.00280166 -0.28997463 -0.64137244
v 0.01000841 -0.28997463 -0.64721757
v 0.03155948 -0.28954345 -0.65637600
v 0.04122983 -0.29590303 -0.65953302
v -0.06413931 -0.27078813 -0.61020875
v -0.05384101 -0.26992577 -0.61642897
v -0.04384413 -0.26992577 -0.62218034
v 0.04874005 -0.28954345 -0.66300261
v 0.05002106 -0.26992577 -0.66540945
v 0.06998970 -0.26992577 -0.67231739
v 0.08747169 -0.26992577 -0.67775619
v 0.09930217 -0.28178263 -0.68019426
v 0.09746857 -0.26992577 -0.68072563
v 0.10997723 -0.24998476 -0.68560177
v 0.12999611 -0.24998476 -0.69044673
v 0.14998987 -0.24998476 -0.69472897
v 0.17106369 -0.25020033 -0.69857365
v 0.18143734 -0.25709885 -0.69979268
v 0.19246405 -0.26992577 -0.70023030
v -0.06413931 0.60985172 -0.48486620
v 0.19246405 0.63184083 -0.59445494
v -0.04557726 -0.24998476 -0.62314934
v -0.02997911 -0.24998476 -0.63165134
v -0.01699321 -0.24998476 -0.63849676
v -0.00508738 -0.26992577 -0.64246643
v 0.01000841 -0.26992577 -0.64937437
v 0.02774158 -0.26992577 -0.65687615
v 0.03927064 -0.28253716 -0.66028321
v -0.06413931 -0.24998476 -0.61236548
v -0.05557414 -0.24998476 -0.61746049
v 0.03776357 -0.26992577 -0.66087711
v 0.05002106 -0.24998476 -0.66706610
v 0.06998970 -0.24998476 -0.67394274
v 0.08473384 -0.24998476 -0.67856884
v 0.09473073 -0.24998476 -0.68150705
v 0.10997723 -0.22993590 -0.68691462
v 0.12999611 -0.22993590 -0.69172823
v 0.14998987 -0.22993590 -0.69597924
v 0.16596478 -0.22993590 -0.69897997
v 0.17844832 -0.24373294 -0.70023030
v 0.18887222 -0.25020033 -0.70126176
v 0.19246405 -0.26723105 -0.70044911
v -0.06413931 0.61308545 -0.48602271
v -0.06413931 0.62968498 -0.49196166
v 0.19246405 0.64315867 -0.59851843
v -0.05708121 -0.22993590 -0.61833566
v -0.04708432 -0.22993590 -0.62396204
v -0.02997911 -0.22993590 -0.63330799
v -0.01860075 -0.22993590 -0.63930947
v -0.00697121 -0.24998476 -0.64337289
v 0.01000841 -0.24998476 -0.65112478
v 0.02563168 -0.24998476 -0.65775138
v -0.06413931 -0.23812790 -0.61342824
v 0.03562856 -0.24998476 -0.66168982
v 0.03382008 -0.22993590 -0.66240871
v 0.05002106 -0.22993590 -0.66844141
v 0.06998970 -0.22993590 -0.67528683
v 0.08247325 -0.22993590 -0.67925650
v 0.09247012 -0.22993590 -0.68216348
v 0.10997723 -0.20999487 -0.68803990
v 0.12999611 -0.20999487 -0.69282228
v 0.14998987 -0.20999487 -0.69707328
v 0.16079052 -0.19716792 -0.69985521
v 0.16272458 -0.20999487 -0.69951135
v 0.17596167 -0.22993590 -0.70063663
v 0.18997739 -0.22993590 -0.70266837
v 0.19246405 -0.25020033 -0.70169938
v -0.06413931 0.63604462 -0.49474356
v 0.19246405 0.64412880 -0.59898728
v -0.06413931 -0.22993590 -0.61414719
v -0.06413931 -0.21904917 -0.61502236
v -0.05843757 -0.20999487 -0.61911714
v -0.04844069 -0.20999487 -0.62471223
v -0.02827110 -0.21010263 -0.63565230
v -0.01958034 -0.21689339 -0.63977832
v -0.00860387 -0.22993590 -0.64412308
v 0.01000841 -0.22993590 -0.65262514
v 0.02382320 -0.22993590 -0.65847027
v 0.02224078 -0.20999487 -0.65909541
v 0.03223766 -0.20999487 -0.66300261
v 0.05002106 -0.20999487 -0.66966045
v 0.07179818 -0.20891695 -0.67713100
v 0.08096617 -0.21495317 -0.67969412
v 0.06514197 -0.14995612 -0.67835003
v 0.08857687 -0.20891695 -0.68225724
v 0.08998346 -0.18994601 -0.68369508
v 0.08998346 -0.14995612 -0.68585181
v 0.08998346 -0.10996625 -0.68797737
v 0.10997723 -0.18994601 -0.68910265
v 0.10997723 -0.14995612 -0.69116563
v 0.12999611 -0.16989718 -0.69488525
v 0.15139645 -0.19026940 -0.69835484
v 0.14486584 -0.14995612 -0.69904250
v 0.14730227 -0.16989718 -0.69854236
v 0.15900716 -0.18380202 -0.70016778
v 0.16998363 -0.16989718 -0.70266837
v 0.16847655 -0.19026940 -0.70144933
v 0.17274658 -0.20999487 -0.70116800
v 0.18997739 -0.20999487 -0.70373112
v 0.19246405 -0.21236624 -0.70388740
v 0.19246405 -0.22993590 -0.70294970
v 0.19246405 0.65296751 -0.60355091
v -0.06413931 0.64337426 -0.49858823
v -0.06413931 -0.20999487 -0.61574131
v -0.05939204 -0.19501211 -0.61964846
v -0.05163065 -0.18897592 -0.62439960
v -0.03131035 -0.18994601 -0.63540226
v -0.02045947 -0.20363529 -0.64021593
v -0.01174359 -0.21010263 -0.64396679
v -0.00998535 -0.18994601 -0.64609230
v 0.01000841 -0.20999487 -0.65390670
v 0.02098489 -0.19350307 -0.65959555
v 0.01998018 -0.18013717 -0.66000187
v 0.02859558 -0.18800582 -0.66287762
v 0.03000218 -0.16989718 -0.66447175
v 0.03000218 -0.14995612 -0.66562825
v 0.05002106 -0.14995612 -0.67313004
v 0.06165059 -0.10996625 -0.67947531
v 0.07968517 -0.20158727 -0.68006921
v 0.07516397 -0.14995612 -0.68150705
v 0.07338060 -0.12990730 -0.68203843
v 0.07162236 -0.10996625 -0.68256980
v 0.06828170 -0.09024078 -0.68260109
v 0.08998346 -0.08991741 -0.68900883
v 0.10997723 -0.12990730 -0.69219708
v 0.12999611 -0.14995612 -0.69588554
v 0.14245453 -0.12990730 -0.69951135
v 0.15486272 -0.14995612 -0.70098048
v 0.15729915 -0.16989718 -0.70051157
v 0.16998363 -0.14995612 -0.70357484
v 0.18997739 -0.16989718 -0.70563781
v 0.18997739 -0.18994601 -0.70470011
v 0.19246405 -0.18994601 -0.70501268
v 0.19246405 -0.20999487 -0.70401245
v 0.19246405 0.65490776 -0.60489494
v -0.06413931 0.65318310 -0.50487101
v -0.06413931 0.64854819 -0.50177652
v -0.06413931 -0.19759907 -0.61664778
v -0.06019581 -0.18175401 -0.62011737
v -0.04999799 -0.16989718 -0.62652516
v -0.02131347 -0.18994601 -0.64065349
v -0.03249089 -0.16989718 -0.63602740
v -0.00998535 -0.16989718 -0.64731139
v 0.00794876 -0.14995612 -0.65659481
v 0.00930512 -0.16989718 -0.65600097
v 0.01199272 -0.18800582 -0.65609473
v 0.01794564 -0.14995612 -0.66084588
v 0.03000218 -0.10996625 -0.66784751
v 0.03000218 -0.12990730 -0.66675353
v 0.05002106 -0.10996625 -0.67538059
v 0.06049518 -0.09703150 -0.67981917
v 0.05946534 -0.08366561 -0.68019426
v 0.06998970 -0.06997636 -0.68413270
v 0.08998346 -0.06997636 -0.68997782
v 0.10997723 -0.08991741 -0.69419760
v 0.10997723 -0.10996625 -0.69319737
v 0.12999611 -0.12990730 -0.69685447
v 0.13157853 -0.10985845 -0.69816732
v 0.13928969 -0.10317551 -0.70013654
v 0.14084700 -0.11643361 -0.69982398
v 0.16998363 -0.12990730 -0.70448130
v 0.14850792 -0.10985845 -0.70157439
v 0.14998987 -0.08991741 -0.70273089
v 0.18997739 -0.14995612 -0.70654428
v 0.19246405 -0.16989718 -0.70595038
v -0.06413931 0.65544671 -0.50649637
v 0.19246405 0.66622567 -0.61367834
v -0.06413931 -0.18531106 -0.61752295
v -0.06413931 -0.17733465 -0.61805433
v -0.06413931 -0.16407655 -0.61892956
v -0.06084888 -0.16989718 -0.62049246
v -0.04999799 -0.14995612 -0.62777543
v -0.03364631 -0.14995612 -0.63665259
v -0.02249401 -0.16989718 -0.64127868
v -0.00998535 -0.14995612 -0.64846790
v 0.01666463 -0.12990730 -0.66140848
v 0.00410573 -0.08991741 -0.65822023
v 0.01410262 -0.08991741 -0.66250253
v 0.03000218 -0.08991741 -0.66894156
v 0.05167883 -0.09024078 -0.67706847
v 0.04848887 -0.06997636 -0.67694348
v 0.05851087 -0.06997636 -0.68050683
v 0.06998970 -0.04992752 -0.68503916
v 0.10997723 -0.06997636 -0.69513535
v 0.08998346 -0.04992752 -0.69082177
v 0.12580143 -0.06997636 -0.69876122
v 0.12786108 -0.08991741 -0.69829232
v 0.13785797 -0.08991741 -0.70041782
v 0.14998987 -0.06997636 -0.70357484
v 0.16998363 -0.10996625 -0.70532525
v 0.18997739 -0.12990730 -0.70741951
v 0.19246405 -0.15243529 -0.70673186
v -0.06413931 0.66363871 -0.51365435
v 0.19246405 0.66762692 -0.61592883
v -0.06413931 0.66568673 -0.51665509
v -0.06413931 -0.14596792 -0.62005484
v -0.06192894 -0.14995612 -0.62111759
v -0.06295878 -0.12990730 -0.62171149
v -0.04999799 -0.12990730 -0.62893194
v -0.02364942 -0.14995612 -0.64187258
v -0.04999799 -0.08991741 -0.63121378
v -0.03683627 -0.08991741 -0.63834047
v -0.00998535 -0.12990730 -0.64956188
v -0.00998535 -0.08991741 -0.65171868
v 0.00290008 -0.06997636 -0.65872037
v 0.01289696 -0.06997636 -0.66300261
v 0.03000218 -0.06997636 -0.66997302
v 0.03000218 -0.04992752 -0.67094201
v 0.04718275 -0.04992752 -0.67741233
v 0.05717963 -0.04992752 -0.68097568
v 0.05597397 -0.02998647 -0.68141329
v 0.06998970 -0.02998647 -0.68585181
v 0.08998346 -0.02998647 -0.69163448
v 0.10997723 -0.04992752 -0.69594800
v 0.12386736 -0.04992752 -0.69916755
v 0.13579831 -0.06997636 -0.70085543
v 0.16998363 -0.06997636 -0.70698190
v 0.16998363 -0.08991741 -0.70616925
v 0.14998987 -0.04992752 -0.70435631
v 0.18997739 -0.10996625 -0.70826346
v 0.19246405 -0.13238646 -0.70760703
v 0.19246405 0.67635787 -0.62996346
v -0.06413931 0.67323196 -0.53090847
v -0.06413931 -0.12785928 -0.62114882
v -0.06413931 -0.10640919 -0.62239915
v -0.02683938 -0.08991741 -0.64349794
v -0.06413931 -0.08991741 -0.62330562
v -0.04999799 -0.06997636 -0.63227654
v -0.03784098 -0.06997636 -0.63887185
v -0.00998535 -0.06997636 -0.65275013
v 0.00179490 -0.04992752 -0.65922046
v 0.01179178 -0.04992752 -0.66350275
v 0.03000218 -0.02998647 -0.67181724
v 0.04595198 -0.02998647 -0.67788118
v 0.04482167 -0.00993763 -0.67828751
v 0.05481856 -0.00993763 -0.68178838
v 0.06998970 -0.00993763 -0.68663329
v 0.10997723 -0.02998647 -0.69672942
v 0.06998970 0.01000343 -0.68735218
v 0.08998346 0.01000343 -0.69307232
v 0.10887204 0.01000343 -0.69788599
v 0.12077788 -0.01521932 -0.69982398
v 0.12205888 -0.02998647 -0.69954264
v 0.13386425 -0.04992752 -0.70126176
v 0.16998363 -0.04992752 -0.70773208
v 0.18997739 -0.06997636 -0.70985758
v 0.18997739 -0.08991741 -0.70907617
v 0.13205576 -0.02998647 -0.70163691
v 0.14998987 -0.02998647 -0.70507520
v 0.19246405 -0.11244540 -0.70845103
v 0.19246405 0.67711240 -0.63196397
v -0.06413931 0.67678899 -0.53925425
v -0.02784409 -0.06997636 -0.64399809
v -0.06413931 -0.06997636 -0.62436837
v -0.04999799 -0.04992752 -0.63327676
v -0.03879546 -0.04992752 -0.63937199
v -0.00998535 -0.04992752 -0.65371913
v 0.00073995 -0.02998647 -0.65965807
v 0.01073683 -0.02998647 -0.66394037
v 0.03000218 -0.00993763 -0.67266119
v 0.04374161 0.01000343 -0.67866266
v 0.05373849 0.01000343 -0.68216348
v 0.11181083 -0.00907531 -0.69791722
v 0.05275889 0.03005226 -0.68250728
v 0.06998970 0.03005226 -0.68800861
v 0.08998346 0.03005226 -0.69369745
v 0.10756592 0.03005226 -0.69819856
v 0.11886892 0.01000343 -0.70023030
v 0.11969781 -0.00185342 -0.70004272
v 0.12846392 -0.00907531 -0.70160562
v 0.18997739 -0.04992752 -0.71057653
v 0.16998363 -0.02998647 -0.70841974
v 0.19246405 -0.04992752 -0.71088910
v 0.19246405 -0.06997636 -0.71013892
v 0.19246405 -0.07245551 -0.71004516
v 0.19246405 -0.09239656 -0.70926368
v 0.12999611 0.01000343 -0.70254338
v 0.14998987 -0.00993763 -0.70576286
v 0.19246405 0.68002272 -0.63971579
v -0.06413931 0.67905259 -0.54694355
v -0.02879857 -0.04992752 -0.64449817
v -0.06413931 -0.04992752 -0.62536860
v -0.06413931 -0.01381804 -0.62705648
v -0.05047522 -0.00993763 -0.63483965
v -0.04803880 -0.02847742 -0.63533974
v -0.04005134 -0.02082436 -0.64002836
v -0.00998535 -0.02998647 -0.65462559
v 0.00016224 -0.01845299 -0.65990812
v 0.01000841 0.01000343 -0.66528440
v 0.03000218 0.01000343 -0.67344260
v 0.03000218 0.03005226 -0.67416155
v 0.04276202 0.03005226 -0.67900646
v 0.04185778 0.05010110 -0.67935032
v 0.05185466 0.05010110 -0.68278861
v 0.06998970 0.05010110 -0.68860251
v 0.08998346 0.05010110 -0.69429135
v 0.11756280 0.03005226 -0.70054287
v 0.10638538 0.05010110 -0.69847989
v 0.12999611 0.03005226 -0.70316851
v 0.18997739 -0.02998647 -0.71126419
v 0.16998363 -0.00993763 -0.70910740
v 0.19246405 -0.02998647 -0.71157676
v 0.14998987 0.01000343 -0.70638800
v 0.19246405 0.68023825 -0.64987445
v -0.06413931 0.68002272 -0.55610204
v -0.06413931 0.67948377 -0.54991305
v -0.03168712 -0.02847742 -0.64396679
v -0.02997911 -0.00993763 -0.64562345
v -0.01111565 0.01000343 -0.65578216
v -0.06413931 0.01000343 -0.62811929
v -0.05127899 0.01000343 -0.63527721
v -0.04128212 0.01000343 -0.64068478
v -0.02997911 0.01000343 -0.64646739
v -0.00825222 -0.01101552 -0.65625101
v -0.00044059 -0.00508711 -0.66018945
v -0.00109365 0.01000343 -0.66050202
v 0.01000841 0.03005226 -0.66603458
v 0.03000218 0.05010110 -0.67481798
v 0.04102889 0.07004215 -0.67963159
v 0.05102577 0.07004215 -0.68306994
v 0.06998970 0.07004215 -0.68913388
v 0.08998346 0.07004215 -0.69482273
v 0.10414989 0.09009099 -0.69901127
v 0.10525508 0.07004215 -0.69876122
v 0.11638226 0.05010110 -0.70082420
v 0.12999611 0.07004215 -0.70423126
v 0.14998987 0.03005226 -0.70701319
v 0.18997739 -0.00993763 -0.71192062
v 0.16998363 0.01000343 -0.70973253
v 0.19246405 -0.00993763 -0.71223319
v 0.19246405 0.68023825 -0.66228372
v 0.16998363 0.68034607 -0.64999950
v 0.01068659 0.68013048 -0.60967737
v -0.06413931 0.68002272 -0.57482523
v -0.02997911 0.03005226 -0.64724886
v -0.01191942 0.03005226 -0.65615726
v -0.00192253 0.03005226 -0.66087711
v -0.06413931 0.03005226 -0.62896323
v -0.05205765 0.03005226 -0.63571483
v -0.04203565 0.03005226 -0.64109111
v -0.00265095 0.05010110 -0.66122097
v 0.01000841 0.05010110 -0.66669101
v 0.01000841 0.07004215 -0.66731614
v 0.03000218 0.07004215 -0.67541182
v 0.04042606 0.08556383 -0.67985040
v 0.04826281 0.09138446 -0.68269485
v 0.05002106 0.11003204 -0.68372631
v 0.06998970 0.09009099 -0.68966526
v 0.08998346 0.09009099 -0.69532287
v 0.10317031 0.11003204 -0.69923007
v 0.11414678 0.09009099 -0.70135558
v 0.12999611 0.11003204 -0.70523149
v 0.14998987 0.11003204 -0.70910740
v 0.14998987 0.09009099 -0.70860732
v 0.14998987 0.07004215 -0.70807594
v 0.16998363 0.03005226 -0.71032643
v 0.16998363 0.07004215 -0.71145171
v 0.18997739 0.01000343 -0.71254575
v 0.18997739 0.03005226 -0.71317089
v 0.19246405 0.01000343 -0.71285832
v 0.18997739 0.68023825 -0.66212744
v 0.19246405 0.68013048 -0.66350275
v 0.01782005 0.68002272 -0.62033617
v 0.05002106 0.68013048 -0.62374324
v -0.02171536 0.68002272 -0.60042512
v -0.06047211 0.67991489 -0.58013904
v -0.06413931 0.67883700 -0.58385867
v -0.02997911 0.05010110 -0.64799905
v -0.01264783 0.05010110 -0.65653235
v -0.06413931 0.04352594 -0.62952584
v -0.06413931 0.06325141 -0.63030732
v -0.05348936 0.07004215 -0.63649631
v -0.04349248 0.07004215 -0.64184129
v -0.01335113 0.07004215 -0.65687615
v -0.00335425 0.07004215 -0.66153353
v 0.01000841 0.09009099 -0.66791004
v 0.02960029 0.11003204 -0.67631829
v 0.03196136 0.09138446 -0.67675591
v 0.03992371 0.09882194 -0.68000668
v 0.06998970 0.11003204 -0.69013411
v 0.05002106 0.12997308 -0.68416393
v 0.08998346 0.11003204 -0.69579172
v 0.10226606 0.12997308 -0.69944882
v 0.11316718 0.11003204 -0.70157439
v 0.12999611 0.12997308 -0.70566911
v 0.14998987 0.12997308 -0.70957625
v 0.16998363 0.11003204 -0.71248323
v 0.16998363 0.09009099 -0.71198308
v 0.18997739 0.11003204 -0.71535891
v 0.18997739 0.07004215 -0.71429616
v 0.19246405 0.02757310 -0.71338969
v 0.16998363 0.68013048 -0.66103339
v 0.19246405 0.67894483 -0.67228609
v 0.15533996 0.68002272 -0.66034573
v 0.06632251 0.67991489 -0.63699639
v 0.05002106 0.67959154 -0.63374561
v 0.03000218 0.67883700 -0.63127625
v 0.00448250 0.67980713 -0.61614764
v -0.00998535 0.67926818 -0.61242801
v -0.03505290 0.67980713 -0.59483004
v -0.04999799 0.67916036 -0.59123540
v -0.06413931 0.67786694 -0.58879733
v -0.02997911 0.07004215 -0.64871794
v -0.06413931 0.07004215 -0.63055736
v -0.06413931 0.08297689 -0.63102621
v -0.05414242 0.09009099 -0.63684011
v -0.04414555 0.09009099 -0.64218515
v -0.02997911 0.09009099 -0.64937437
v -0.01400419 0.09009099 -0.65718871
v -0.00400731 0.09009099 -0.66181481
v -0.00458502 0.11003204 -0.66209614
v 0.01000841 0.11003204 -0.66841018
v 0.01000841 0.12997308 -0.66887903
v 0.02904770 0.12997308 -0.67653710
v 0.03959718 0.11003204 -0.68013173
v 0.06998970 0.12997308 -0.69057173
v 0.03904458 0.12997308 -0.68035054
v 0.05002106 0.14991413 -0.68453902
v 0.08998346 0.12997308 -0.69622934
v 0.10143718 0.14991413 -0.69963640
v 0.11226295 0.12997308 -0.70179319
v 0.12999611 0.14991413 -0.70607543
v 0.14998987 0.14991413 -0.70998263
v 0.16998363 0.14991413 -0.71338969
v 0.16998363 0.12997308 -0.71295208
v 0.18997739 0.12997308 -0.71582776
v 0.19246405 0.11003204 -0.71564025
v 0.19246405 0.09009099 -0.71514010
v 0.19246405 0.06756300 -0.71451497
v 0.19246405 0.67797470 -0.67431784
v 0.16998363 0.67829806 -0.67100453
v 0.14202753 0.67991489 -0.65890789
v 0.12999611 0.67980713 -0.65609473
v 0.08998346 0.67862141 -0.65049964
v 0.07179818 0.67775911 -0.64799905
v 0.05002106 0.67484879 -0.64999950
v 0.01068659 0.67754352 -0.62821305
v -0.02902463 0.67797470 -0.60823953
v -0.06413931 0.67657346 -0.59304833
v -0.06413931 0.09009099 -0.63127625
v -0.06413931 0.10270236 -0.63171387
v -0.05472013 0.11003204 -0.63715267
v -0.04472325 0.11003204 -0.64249772
v -0.02997911 0.11003204 -0.64996827
v -0.01458190 0.11003204 -0.65747005
v -0.01513449 0.12997308 -0.65775138
v -0.00513761 0.12997308 -0.66231495
v -0.00563997 0.14991413 -0.66253376
v -0.00609209 0.16996297 -0.66275257
v 0.01000841 0.14991413 -0.66928536
v 0.01000841 0.16996297 -0.66969174
v 0.02852023 0.14991413 -0.67672467
v 0.06998970 0.14991413 -0.69094682
v 0.03851711 0.14991413 -0.68053806
v 0.05002106 0.16996297 -0.68491411
v 0.08998346 0.14991413 -0.69660443
v 0.10015617 0.18225098 -0.69994897
v 0.10060829 0.16996297 -0.69982398
v 0.11143406 0.14991413 -0.70198071
v 0.12999611 0.18990403 -0.70682561
v 0.14998987 0.18990403 -0.71073282
v 0.16998363 0.16996297 -0.71379602
v 0.18997739 0.14991413 -0.71626538
v 0.19246405 0.12997308 -0.71610910
v 0.19246405 0.67042941 -0.68997782
v 0.12999611 0.67581892 -0.66997302
v 0.14921121 0.67786694 -0.66819137
v 0.10997723 0.67355531 -0.66997302
v 0.08998346 0.67021388 -0.66997302
v 0.03000218 0.67086059 -0.64999950
v -0.00998535 0.67323196 -0.62999469
v -0.04999799 0.67344755 -0.60998994
v -0.06413931 0.66838145 -0.61036503
v -0.06413931 0.12232003 -0.63230777
v -0.05524760 0.12997308 -0.63746524
v -0.04525073 0.12997308 -0.64277905
v -0.02997911 0.12997308 -0.65053087
v -0.02997911 0.14991413 -0.65099972
v -0.01563685 0.14991413 -0.65797019
v -0.01608897 0.16996297 -0.65818894
v -0.01646574 0.18990403 -0.65837651
v -0.00646885 0.18990403 -0.66290885
v 0.01000841 0.18990403 -0.67000431
v 0.02761599 0.18990403 -0.67706847
v 0.02804299 0.16996297 -0.67691219
v 0.06998970 0.16996297 -0.69132191
v 0.03803987 0.16996297 -0.68072563
v 0.05002106 0.18990403 -0.68522668
v 0.08998346 0.16996297 -0.69697952
v 0.11063029 0.16996297 -0.70216823
v 0.09970405 0.19550908 -0.70007402
v 0.10997723 0.20995286 -0.70273089
v 0.12999611 0.20995286 -0.70713818
v 0.14998987 0.20995286 -0.71107662
v 0.16998363 0.18990403 -0.71413988
v 0.18997739 0.18990403 -0.71701556
v 0.19246405 0.16748382 -0.71689051
v 0.19246405 0.14991413 -0.71654671
v 0.19246405 0.66924375 -0.69147819
v 0.18997739 0.67021388 -0.68997782
v 0.14998987 0.66730356 -0.68788362
v 0.12999611 0.66590226 -0.68591440
v 0.10997723 0.66406983 -0.68372631
v 0.07187354 0.66590226 -0.67075449
v 0.05002106 0.66514772 -0.66525316
v 0.01184201 0.66568673 -0.65040588
v -0.00998535 0.66396207 -0.64396679
v -0.02972793 0.66687238 -0.63086993
v -0.04999799 0.66428542 -0.62468094
v -0.06413931 0.66590226 -0.61442846
v -0.06413931 0.12997308 -0.63252658
v -0.05572484 0.14991413 -0.63771534
v -0.04615497 0.16996297 -0.64324790
v -0.02997911 0.16996297 -0.65143734
v -0.02997911 0.18990403 -0.65181243
v -0.02997911 0.20995286 -0.65215629
v -0.01684251 0.20995286 -0.65853280
v -0.00682051 0.20995286 -0.66306514
v 0.01000841 0.20995286 -0.67031687
v 0.02723922 0.20995286 -0.67722476
v 0.03761287 0.18990403 -0.68088192
v 0.06998970 0.18990403 -0.69163448
v 0.08928017 0.20995286 -0.69744837
v 0.09181707 0.18925729 -0.69782346
v 0.03723610 0.20995286 -0.68103820
v 0.05002106 0.20995286 -0.68550801
v 0.06998970 0.20995286 -0.69194704
v 0.08877781 0.22989392 -0.69760466
v 0.09877469 0.22989392 -0.70032406
v 0.10997723 0.22989392 -0.70301223
v 0.12999611 0.22989392 -0.70741951
v 0.14998987 0.22989392 -0.71135795
v 0.16998363 0.20995286 -0.71445245
v 0.16998363 0.22989392 -0.71473378
v 0.18997739 0.22989392 -0.71757817
v 0.19246405 0.20995286 -0.71760947
v 0.19246405 0.18990403 -0.71729690
v 0.19246405 0.66148293 -0.70119929
v 0.17071205 0.66687238 -0.69150949
v 0.17784551 0.66040504 -0.70029283
v 0.16450796 0.65846479 -0.69919878
v 0.08998346 0.66148293 -0.68131953
v 0.07981075 0.65997386 -0.68003798
v 0.03000218 0.66202188 -0.66187733
v 0.01970388 0.66008162 -0.66009569
v -0.02289589 0.66137511 -0.64127868
v -0.06255689 0.66137511 -0.62139893
v -0.06413931 0.66256082 -0.61896080
v -0.06413931 0.14991413 -0.63302672
v -0.05615185 0.16996297 -0.63793409
v -0.04653174 0.18990403 -0.64343542
v -0.04685827 0.20995286 -0.64359170
v -0.04713456 0.22989392 -0.64374799
v -0.02997911 0.22989392 -0.65243757
v -0.01711880 0.22989392 -0.65868908
v -0.00712192 0.22989392 -0.66319019
v 0.01000841 0.22989392 -0.67056692
v 0.02691269 0.22989392 -0.67734981
v 0.03690957 0.22989392 -0.68116319
v 0.05002106 0.22989392 -0.68575805
v 0.06998970 0.22989392 -0.69219708
v 0.08837593 0.24994275 -0.69769841
v 0.09837280 0.24994275 -0.70041782
v 0.10997723 0.24994275 -0.70323098
v 0.12999611 0.24994275 -0.70766956
v 0.14998987 0.24994275 -0.71157676
v 0.16998363 0.24994275 -0.71495259
v 0.18997739 0.26999158 -0.71795332
v 0.19246405 0.24994275 -0.71807832
v 0.19246405 0.24670908 -0.71804708
v 0.19246405 0.22698361 -0.71782827
v 0.19246405 0.65986609 -0.70201194
v 0.18997739 0.66126734 -0.70107424
v 0.19246405 0.64994943 -0.70670056
v 0.18997739 0.64994943 -0.70645052
v 0.17071205 0.65102732 -0.70332479
v 0.14998987 0.64563787 -0.70226204
v 0.14998987 0.65555447 -0.69788599
v 0.12929282 0.64941049 -0.69644815
v 0.10997723 0.64994943 -0.69185328
v 0.08998346 0.64994943 -0.68694586
v 0.07187354 0.64930272 -0.68225724
v 0.05728010 0.64229637 -0.68088192
v 0.06647321 0.65555447 -0.67791247
v 0.05037270 0.64930272 -0.67541182
v 0.03000218 0.64994943 -0.66812885
v 0.01184201 0.64854819 -0.66206491
v -0.00094295 0.64100289 -0.66037703
v 0.00636633 0.65426099 -0.65734500
v -0.03623344 0.65641683 -0.63815290
v -0.06413931 0.65868038 -0.62199283
v -0.06413931 0.16996297 -0.63346428
v -0.06413931 0.18149644 -0.63371438
v -0.05652861 0.18990403 -0.63812166
v -0.05685515 0.20995286 -0.63830924
v -0.05713144 0.22989392 -0.63846552
v -0.04736062 0.24994275 -0.64387304
v -0.02997911 0.24994275 -0.65265638
v -0.01734486 0.24994275 -0.65878284
v -0.00734798 0.24994275 -0.66328394
v 0.02666151 0.24994275 -0.67744356
v 0.01000841 0.28993264 -0.67103577
v 0.03668351 0.24994275 -0.68125701
v 0.05002106 0.24994275 -0.68594563
v 0.06998970 0.26999158 -0.69257224
v 0.08802427 0.26999158 -0.69779217
v 0.09804627 0.26999158 -0.70051157
v 0.10997723 0.26999158 -0.70341855
v 0.12999611 0.26999158 -0.70785713
v 0.14998987 0.26999158 -0.71176434
v 0.16998363 0.28993264 -0.71526515
v 0.19246405 0.26999158 -0.71823460
v 0.18997739 0.28993264 -0.71807832
v 0.19246405 0.28637558 -0.71835965
v 0.19246405 0.64747030 -0.70741951
v 0.19246405 0.62990057 -0.71248323
v 0.18997739 0.62990057 -0.71220189
v 0.16998363 0.62990057 -0.70935750
v 0.13549690 0.64229637 -0.70088673
v 0.12218447 0.63690692 -0.69954264
v 0.08998346 0.62990057 -0.69272852
v 0.06998970 0.62990057 -0.68710214
v 0.05368825 0.62990057 -0.68206966
v 0.04369137 0.62990057 -0.67875642
v 0.03000218 0.62990057 -0.67394274
v -0.04263847 0.64315867 -0.64130992
v -0.02972793 0.64984167 -0.64412308
v -0.00855363 0.64854819 -0.65375042
v 0.01000841 0.62990057 -0.66644096
v -0.00312819 0.62990057 -0.66128349
v -0.01315019 0.62990057 -0.65715748
v -0.02997911 0.62990057 -0.64978069
v -0.04957099 0.64984167 -0.63449579
v -0.06413931 0.64941049 -0.62693149
v -0.06413931 0.20122191 -0.63408947
v -0.06413931 0.20995286 -0.63424575
v -0.06413931 0.22989392 -0.63455832
v -0.06413931 0.24078065 -0.63468337
v -0.06413931 0.26072168 -0.63490212
v -0.05735750 0.24994275 -0.63855928
v -0.04753645 0.26999158 -0.64396679
v -0.02997911 0.26999158 -0.65284395
v -0.01754580 0.26999158 -0.65887666
v -0.00769963 0.28993264 -0.66344023
v 0.02646057 0.26999158 -0.67750609
v 0.03645745 0.26999158 -0.68131953
v 0.01000841 0.30998147 -0.67112958
v 0.02618427 0.30998147 -0.67763114
v 0.02630986 0.28993264 -0.67756861
v 0.05002106 0.26999158 -0.68610191
v 0.06998970 0.28993264 -0.69269723
v 0.08779822 0.28993264 -0.69785476
v 0.09779510 0.28993264 -0.70057416
v 0.10997723 0.28993264 -0.70354360
v 0.12999611 0.28993264 -0.70801342
v 0.14998987 0.28993264 -0.71188933
v 0.14998987 0.30998147 -0.71201438
v 0.16998363 0.30998147 -0.71535891
v 0.19246405 0.30620885 -0.71845341
v 0.18997739 0.32992253 -0.71820337
v 0.19246405 0.62752920 -0.71273327
v 0.18997739 0.60995954 -0.71423364
v 0.16998363 0.60995954 -0.71142048
v 0.14998987 0.62990057 -0.70601296
v 0.12929282 0.63011616 -0.70201194
v 0.11768839 0.62364882 -0.70051157
v 0.11060517 0.63011616 -0.69788599
v 0.08998346 0.60995954 -0.69479150
v 0.06998970 0.60995954 -0.68913388
v 0.04097865 0.61362439 -0.67966288
v -0.04525073 0.62990057 -0.64262271
v -0.05524760 0.62990057 -0.63752776
v -0.06413931 0.62990057 -0.63274539
v -0.06413931 0.64186525 -0.62918204
v 0.01000841 0.60995954 -0.66834766
v -0.00541391 0.60995954 -0.66222119
v -0.01541079 0.60995954 -0.65806395
v -0.02997911 0.60995954 -0.65149987
v -0.06413931 0.26999158 -0.63499594
v -0.05753332 0.26999158 -0.63865304
v -0.05768403 0.28993264 -0.63874680
v -0.04768715 0.28993264 -0.64402932
v -0.02997911 0.28993264 -0.65300024
v -0.01769651 0.28993264 -0.65893912
v -0.01779698 0.30998147 -0.65900165
v -0.00780010 0.30998147 -0.66347146
v 0.03630674 0.28993264 -0.68138206
v 0.05002106 0.28993264 -0.68622696
v -0.00785033 0.32992253 -0.66350275
v 0.01000841 0.32992253 -0.67116082
v 0.01000841 0.34997135 -0.67119211
v 0.02613404 0.34997135 -0.67766237
v 0.03613092 0.32992253 -0.68144453
v 0.03618115 0.30998147 -0.68141329
v 0.06998970 0.30998147 -0.69275975
v 0.08764751 0.30998147 -0.69788599
v 0.09764439 0.30998147 -0.70063663
v 0.10997723 0.30998147 -0.70363736
v 0.12999611 0.30998147 -0.70810717
v 0.14998987 0.32992253 -0.71204561
v 0.16998363 0.32992253 -0.71539021
v 0.19246405 0.32992253 -0.71851593
v 0.18997739 0.34997135 -0.71817207
v 0.19246405 0.60995954 -0.71451497
v 0.19246405 0.60748035 -0.71464002
v 0.18997739 0.58991069 -0.71507758
v 0.16998363 0.58991069 -0.71229565
v 0.14998987 0.58991069 -0.70898241
v 0.14998987 0.60995954 -0.70807594
v 0.12999611 0.60995954 -0.70423126
v 0.11532731 0.60995954 -0.70107424
v 0.10533044 0.60995954 -0.69872993
v 0.10342148 0.58991069 -0.69916755
v 0.08998346 0.58991069 -0.69566667
v 0.06998970 0.58991069 -0.69000912
v 0.04858934 0.60812712 -0.68247604
v 0.03997394 0.60025847 -0.68000668
v 0.03198648 0.60812712 -0.67669338
v -0.04683315 0.60995954 -0.64343542
v -0.05685515 0.60995954 -0.63837171
v -0.06413931 0.62106186 -0.63349557
v 0.02955006 0.58991069 -0.67647457
v 0.01000841 0.58991069 -0.66906655
v -0.00616744 0.58991069 -0.66256499
v -0.01616433 0.58991069 -0.65834528
v -0.02997911 0.58991069 -0.65206254
v -0.06413931 0.28993264 -0.63515222
v -0.06413931 0.30998147 -0.63527721
v -0.05778451 0.30998147 -0.63880932
v -0.04778762 0.30998147 -0.64409184
v -0.02997911 0.30998147 -0.65309399
v -0.02997911 0.32992253 -0.65315652
v -0.01784722 0.32992253 -0.65903294
v 0.05002106 0.30998147 -0.68628943
v -0.00787545 0.34997135 -0.66350275
v -0.00787545 0.36991242 -0.66350275
v 0.01000841 0.36991242 -0.67116082
v 0.02618427 0.36991242 -0.67763114
v 0.03613092 0.34997135 -0.68144453
v 0.05002106 0.32992253 -0.68632072
v 0.06998970 0.34997135 -0.69275975
v 0.08759727 0.32992253 -0.69788599
v 0.09759416 0.32992253 -0.70063663
v 0.10997723 0.32992253 -0.70366859
v 0.12999611 0.32992253 -0.70813847
v 0.14998987 0.34997135 -0.71204561
v 0.16998363 0.34997135 -0.71535891
v 0.19246405 0.34997135 -0.71848464
v 0.16998363 0.36991242 -0.71532768
v 0.18997739 0.36991242 -0.71810961
v 0.19246405 0.58991069 -0.71535891
v 0.18997739 0.56996965 -0.71560895
v 0.16998363 0.56996965 -0.71282709
v 0.14998987 0.56996965 -0.70954502
v 0.12999611 0.58991069 -0.70513773
v 0.11341836 0.58991069 -0.70151186
v 0.11231318 0.56996965 -0.70179319
v 0.10229118 0.56996965 -0.69941759
v 0.08998346 0.56996965 -0.69616681
v 0.06998970 0.56996965 -0.69050920
v 0.05002106 0.58991069 -0.68369508
v 0.03954694 0.58991069 -0.68016297
v -0.04728527 0.58991069 -0.64368552
v -0.06413931 0.60995954 -0.63443327
v -0.05728215 0.58991069 -0.63859051
v 0.03891899 0.56996965 -0.68038177
v 0.02892211 0.56996965 -0.67666215
v 0.01000841 0.56996965 -0.66941041
v -0.00649397 0.56996965 -0.66272128
v -0.01649085 0.56996965 -0.65850157
v -0.02997911 0.56996965 -0.65231258
v -0.06413931 0.32992253 -0.63533974
v -0.05785986 0.32992253 -0.63884056
v -0.04786298 0.32992253 -0.64412308
v -0.01787233 0.34997135 -0.65903294
v -0.02997911 0.36991242 -0.65315652
v -0.01787233 0.36991242 -0.65903294
v -0.01777186 0.40990227 -0.65900165
v -0.00782522 0.38996124 -0.66347146
v -0.00777498 0.40990227 -0.66344023
v 0.01000841 0.38996124 -0.67109829
v 0.02628474 0.38996124 -0.67759985
v 0.03618115 0.36991242 -0.68141329
v 0.05002106 0.36991242 -0.68628943
v 0.05002106 0.34997135 -0.68632072
v 0.06998970 0.38996124 -0.69263470
v 0.08769774 0.36991242 -0.69785476
v 0.08762239 0.34997135 -0.69788599
v 0.09761927 0.34997135 -0.70063663
v 0.10997723 0.34997135 -0.70366859
v 0.12999611 0.34997135 -0.70813847
v 0.14998987 0.36991242 -0.71198308
v 0.19246405 0.36991242 -0.71842217
v 0.16998363 0.38996124 -0.71523392
v 0.18997739 0.38996124 -0.71801579
v 0.19246405 0.56996965 -0.71589029
v 0.18997739 0.54992080 -0.71604657
v 0.16998363 0.54992080 -0.71326464
v 0.14998987 0.54992080 -0.70995140
v 0.12999611 0.56996965 -0.70570034
v 0.11153453 0.54992080 -0.70201194
v 0.10153764 0.54992080 -0.69960511
v 0.10080923 0.52997977 -0.69979268
v 0.08998346 0.54992080 -0.69654191
v 0.06998970 0.54992080 -0.69085306
v 0.05002106 0.56996965 -0.68416393
v -0.04746109 0.56996965 -0.64377928
v -0.06413931 0.58991069 -0.63487089
v -0.05745798 0.56996965 -0.63868427
v -0.06413931 0.58053303 -0.63496464
v 0.05002106 0.52997977 -0.68478906
v 0.03851711 0.54992080 -0.68053806
v 0.03814034 0.52997977 -0.68069434
v 0.02814346 0.52997977 -0.67694348
v 0.02776669 0.50993091 -0.67706847
v 0.02744016 0.48998988 -0.67719352
v 0.01000841 0.50993091 -0.67012930
v 0.01000841 0.46994102 -0.67053568
v -0.00692098 0.52997977 -0.66294008
v -0.00712192 0.50993091 -0.66303390
v -0.01711880 0.50993091 -0.65875161
v -0.02997911 0.54992080 -0.65246886
v -0.06413931 0.34027031 -0.63537103
v -0.06413931 0.36031914 -0.63540226
v -0.05788498 0.36991242 -0.63887185
v -0.04786298 0.36991242 -0.64412308
v -0.04786298 0.40990227 -0.64409184
v -0.04781274 0.46994102 -0.64402932
v -0.02997911 0.38996124 -0.65312529
v -0.02997911 0.40990227 -0.65309399
v -0.02997911 0.44999999 -0.65296900
v -0.02997911 0.46994102 -0.65290648
v -0.02997911 0.48998988 -0.65281266
v -0.02997911 0.50993091 -0.65271890
v -0.01754580 0.44999999 -0.65890789
v -0.00767451 0.42995113 -0.66337770
v 0.01000841 0.40990227 -0.67100453
v 0.02641033 0.40990227 -0.67756861
v 0.03628162 0.38996124 -0.68138206
v 0.05002106 0.38996124 -0.68619567
v 0.05002106 0.40990227 -0.68610191
v 0.06998970 0.40990227 -0.69250971
v 0.08784845 0.38996124 -0.69782346
v 0.09769462 0.36991242 -0.70060539
v 0.10997723 0.38996124 -0.70354360
v 0.12999611 0.36991242 -0.70807594
v 0.14998987 0.38996124 -0.71188933
v 0.19246405 0.38618863 -0.71832836
v 0.14998987 0.42995113 -0.71157676
v 0.16998363 0.40990227 -0.71507758
v 0.18997739 0.40990227 -0.71785951
v 0.19246405 0.40634525 -0.71817207
v 0.19246405 0.54744166 -0.71635914
v 0.19246405 0.52997977 -0.71667171
v 0.18997739 0.52997977 -0.71639043
v 0.16998363 0.52997977 -0.71360850
v 0.12999611 0.54992080 -0.70607543
v 0.14998987 0.52997977 -0.71029520
v 0.12999611 0.52997977 -0.70641929
v 0.11080611 0.52997977 -0.70216823
v 0.10028176 0.51478142 -0.69991773
v 0.09194265 0.50885302 -0.69772971
v 0.08998346 0.52997977 -0.69685447
v 0.06998970 0.52997977 -0.69116563
v -0.04758668 0.54992080 -0.64387304
v -0.05758356 0.54992080 -0.63874680
v -0.06413931 0.56048417 -0.63512093
v -0.06413931 0.56996965 -0.63505840
v 0.06998970 0.50993091 -0.69144696
v 0.06998970 0.48998988 -0.69169700
v 0.05002106 0.48998988 -0.68528920
v 0.03776357 0.50993091 -0.68081939
v 0.03743704 0.48998988 -0.68094444
v 0.03713563 0.46994102 -0.68106943
v 0.02683733 0.44999999 -0.67741233
v 0.01000841 0.44999999 -0.67072320
v -0.00727262 0.48998988 -0.66312766
v -0.00742333 0.46994102 -0.66322142
v -0.00754892 0.44999999 -0.66331518
v -0.01726951 0.48998988 -0.65881413
v -0.02997911 0.52997977 -0.65259385
v -0.06413931 0.48998988 -0.63540226
v -0.05785986 0.42995113 -0.63887185
v -0.05780962 0.48998988 -0.63884056
v -0.05775939 0.50993091 -0.63884056
v -0.04781274 0.48998988 -0.64399809
v -0.04776251 0.50993091 -0.64396679
v -0.04768715 0.52997977 -0.64393556
v 0.01000841 0.42995113 -0.67087948
v 0.03660816 0.42995113 -0.68125701
v 0.03640721 0.40990227 -0.68131953
v 0.05002106 0.42995113 -0.68594563
v 0.06998970 0.42995113 -0.69235343
v 0.08807451 0.40990227 -0.69776094
v 0.09807140 0.40990227 -0.70051157
v 0.09787045 0.38996124 -0.70057416
v 0.10997723 0.40990227 -0.70341855
v 0.12999611 0.38996124 -0.70798218
v 0.12999611 0.40990227 -0.70785713
v 0.12999611 0.42995113 -0.70766956
v 0.12999611 0.44999999 -0.70745075
v 0.12999611 0.48998988 -0.70701319
v 0.14998987 0.48998988 -0.71088910
v 0.16998363 0.46994102 -0.71445245
v 0.16998363 0.44999999 -0.71467125
v 0.16998363 0.42995113 -0.71489006
v 0.18997739 0.42995113 -0.71767199
v 0.19246405 0.40990227 -0.71814084
v 0.19246405 0.50734395 -0.71704686
v 0.18997739 0.50993091 -0.71673423
v 0.16998363 0.50993091 -0.71395230
v 0.14998987 0.50993091 -0.71060777
v 0.12999611 0.50993091 -0.70673186
v 0.10997723 0.48998988 -0.70254338
v 0.10816874 0.50885302 -0.70185566
v 0.09990499 0.50141555 -0.70001149
v 0.08963181 0.48998988 -0.69735461
v -0.06413931 0.54043531 -0.63524598
v 0.08875269 0.44999999 -0.69757342
v 0.06998970 0.44999999 -0.69213462
v 0.05002106 0.44999999 -0.68575805
v 0.05002106 0.46994102 -0.68553925
v 0.03685933 0.44999999 -0.68116319
v -0.06413931 0.50993091 -0.63537103
v -0.06413931 0.52038652 -0.63533974
v 0.08835080 0.42995113 -0.69766718
v 0.09837280 0.42995113 -0.70041782
v 0.09874958 0.44999999 -0.70032406
v 0.10997723 0.42995113 -0.70323098
v 0.10997723 0.44999999 -0.70301223
v 0.10997723 0.46994102 -0.70279342
v 0.16998363 0.48998988 -0.71420240
v 0.18997739 0.46994102 -0.71723437
v 0.18997739 0.44999999 -0.71745318
v 0.19246405 0.42995113 -0.71795332
v 0.19246405 0.48998988 -0.71726561
v 0.18997739 0.48998988 -0.71698427
v 0.09917657 0.46994102 -0.70019901
v 0.19246405 0.46994102 -0.71751571
v 0.19246405 0.44999999 -0.71773446
f 1 2 10
f 1 10 15
f 1 15 25
f 1 25 36
f 1 36 53
f 1 53 73
f 1 73 72
f 1 72 71
f 1 71 93
f 1 93 119
f 1 119 153
f 1 153 190
f 1 190 189
f 1 189 159
f 1 159 125
f 1 125 122
f 1 122 94
f 1 94 74
f 1 74 55
f 1 55 54
f 1 54 39
f 1 39 28
f 1 28 18
f 1 18 12
f 1 12 3
f 1 3 4
f 1 4 5
f 1 5 6
f 1 6 7
f 1 7 8
f 1 8 9
f 1 9 14
f 1 14 22
f 1 22 21
f 1 21 32
f 1 32 31
f 1 31 43
f 1 43 61
f 1 61 82
f 1 82 107
f 1 107 140
f 1 140 175
f 1 175 208
f 1 208 233
f 1 233 256
f 1 256 279
f 1 279 280
f 1 280 304
f 1 304 339
f 1 339 373
f 1 373 372
f 1 372 402
f 1 402 429
f 1 429 431
f 1 431 459
f 1 459 488
f 1 488 516
f 1 516 542
f 1 542 541
f 1 541 570
f 1 570 603
f 1 603 638
f 1 638 675
f 1 675 709
f 1 709 746
f 1 746 784
f 1 784 827
f 1 827 870
f 1 870 910
f 1 910 909
f 1 909 957
f 1 957 1000
f 1 1000 1044
f 1 1044 1046
f 1 1046 1104
f 1 1104 1103
f 1 1103 1154
f 1 1154 1161
f 1 1161 1160
f 1 1160 1118
f 1 1118 1060
f 1 1060 1059
f 1 1059 1008
f 1 1008 964
f 1 964 963
f 1 963 915
f 1 915 875
f 1 875 874
f 1 874 873
f 1 873 872
f 1 872 871
f 1 871 829
f 1 829 828
f 1 828 785
f 1 785 747
f 1 747 710
f 1 710 677
f 1 677 676
f 1 676 641
f 1 641 640
f 1 640 607
f 1 607 606
f 1 606 574
f 1 574 546
f 1 546 519
f 1 519 518
f 1 518 490
f 1 490 463
f 1 463 461
f 1 461 460
f 1 460 432
f 1 432 406
f 1 406 405
f 1 405 404
f 1 404 374
f 1 374 340
f 1 340 307
f 1 307 306
f 1 306 289
f 1 289 265
f 1 265 241
f 1 241 216
f 1 216 184
f 1 184 148
f 1 148 147
f 1 147 177
f 1 177 176
f 1 176 141
f 1 141 108
f 1 108 84
f 1 84 63
f 1 63 46
f 1 46 38
f 1 38 37
f 1 37 26
f 1 26 16
f 1 16 11
f 1 11 2
f 2 11 10
f 3 12 19
f 3 19 30
f 3 30 42
f 3 42 60
f 3 60 81
f 3 81 103
f 3 103 105
f 3 105 137
f 3 137 136
f 3 136 172
f 3 172 171
f 3 171 206
f 3 206 205
f 3 205 232
f 3 232 231
f 3 231 255
f 3 255 278
f 3 278 303
f 3 303 337
f 3 337 336
f 3 336 370
f 3 370 369
f 3 369 401
f 3 401 428
f 3 428 457
f 3 457 486
f 3 486 512
f 3 512 511
f 3 511 510
f 3 510 509
f 3 509 538
f 3 538 566
f 3 566 596
f 3 596 627
f 3 627 665
f 3 665 664
f 3 664 663
f 3 663 700
f 3 700 734
f 3 734 733
f 3 733 773
f 3 773 772
f 3 772 807
f 3 807 806
f 3 806 805
f 3 805 848
f 3 848 850
f 3 850 895
f 3 895 938
f 3 938 984
f 3 984 1029
f 3 1029 1084
f 3 1084 1088
f 3 1088 1144
f 3 1144 1171
f 3 1171 1176
f 3 1176 1175
f 3 1175 1172
f 3 1172 1145
f 3 1145 1090
f 3 1090 1089
f 3 1089 1032
f 3 1032 987
f 3 987 941
f 3 941 940
f 3 940 897
f 3 897 852
f 3 852 851
f 3 851 810
f 3 810 808
f 3 808 774
f 3 774 735
f 3 735 701
f 3 701 666
f 3 666 629
f 3 629 598
f 3 598 567
f 3 567 540
f 3 540 515
f 3 515 487
f 3 487 458
f 3 458 430
f 3 430 403
f 3 403 371
f 3 371 338
f 3 338 305
f 3 305 281
f 3 281 257
f 3 257 234
f 3 234 209
f 3 209 207
f 3 207 174
f 3 174 173
f 3 173 139
f 3 139 138
f 3 138 106
f 3 106 83
f 3 83 62
f 3 62 45
f 3 45 44
f 3 44 33
f 3 33 20
f 3 20 13
f 3 13 8
f 3 8 7
f 3 7 6
f 3 6 5
f 3 5 4
f 8 13 14
f 8 14 9
f 10 11 16
f 10 16 17
f 10 17 15
f 12 18 19
f 13 20 21
f 13 21 22
f 13 22 14
f 15 17 23
f 15 23 24
f 15 24 25
f 16 26 27
f 16 27 17
f 17 27 23
f 18 28 29
f 18 29 19
f 19 29 30
f 20 31 32
f 20 32 21
f 20 33 31
f 23 27 34
f 23 34 24
f 24 35 25
f 24 34 35
f 25 35 36
f 26 37 27
f 27 37 38
f 27 38 34
f 28 39 29
f 29 39 40
f 29 40 41
f 29 41 42
f 29 42 30
f 31 33 44
f 31 44 45
f 31 45 43
f 34 38 46
f 34 46 47
f 34 47 48
f 34 48 49
f 34 49 35
f 35 50 36
f 35 49 51
f 35 51 50
f 36 50 52
f 36 52 53
f 39 54 40
f 40 54 55
f 40 55 56
f 40 56 57
f 40 57 41
f 41 57 58
f 41 58 59
f 41 59 60
f 41 60 42
f 43 45 62
f 43 62 61
f 46 63 64
f 46 64 48
f 46 48 47
f 48 65 49
f 48 64 66
f 48 66 67
f 48 67 65
f 49 65 51
f 50 51 68
f 50 68 52
f 51 65 69
f 51 69 68
f 52 68 70
f 52 70 71
f 52 71 72
f 52 72 73
f 52 73 53
f 55 74 56
f 56 74 75
f 56 75 76
f 56 76 77
f 56 77 57
f 57 77 78
f 57 78 58
f 58 78 79
f 58 79 80
f 58 80 59
f 59 81 60
f 59 80 81
f 61 62 83
f 61 83 82
f 63 84 85
f 63 85 64
f 64 85 66
f 65 67 86
f 65 86 87
f 65 87 69
f 66 85 88
f 66 88 86
f 66 86 67
f 68 69 89
f 68 89 70
f 69 87 90
f 69 90 89
f 70 91 71
f 70 89 92
f 70 92 91
f 71 91 93
f 74 94 75
f 75 95 76
f 75 94 96
f 75 96 95
f 76 97 98
f 76 98 99
f 76 99 100
f 76 100 77
f 76 95 97
f 77 100 78
f 78 100 101
f 78 101 79
f 79 101 102
f 79 102 80
f 80 103 81
f 80 102 104
f 80 104 105
f 80 105 103
f 82 83 106
f 82 106 107
f 84 108 109
f 84 109 85
f 85 109 88
f 86 88 110
f 86 110 111
f 86 111 112
f 86 112 87
f 87 112 113
f 87 113 90
f 88 109 114
f 88 114 115
f 88 115 110
f 89 90 116
f 89 116 92
f 90 113 117
f 90 117 116
f 91 118 119
f 91 119 93
f 91 92 120
f 91 120 118
f 92 116 121
f 92 121 120
f 94 122 96
f 95 96 123
f 95 123 124
f 95 124 97
f 96 122 125
f 96 125 123
f 97 124 126
f 97 126 98
f 98 126 127
f 98 127 128
f 98 128 129
f 98 129 130
f 98 130 99
f 99 130 131
f 99 131 100
f 100 131 101
f 101 131 132
f 101 132 102
f 102 132 133
f 102 133 134
f 102 134 104
f 104 134 135
f 104 135 136
f 104 136 137
f 104 137 105
f 106 138 107
f 107 138 139
f 107 139 140
f 108 141 109
f 109 141 142
f 109 142 114
f 110 115 111
f 111 115 143
f 111 143 144
f 111 144 112
f 112 144 145
f 112 145 113
f 113 146 117
f 113 145 146
f 114 142 147
f 114 147 148
f 114 148 149
f 114 149 115
f 115 149 143
f 116 117 150
f 116 150 121
f 117 146 151
f 117 151 150
f 118 152 119
f 118 120 152
f 119 152 153
f 120 121 154
f 120 154 155
f 120 155 152
f 121 150 156
f 121 156 154
f 123 157 124
f 123 125 157
f 124 158 126
f 124 157 158
f 125 159 157
f 126 160 127
f 126 158 160
f 127 160 161
f 127 161 128
f 128 161 162
f 128 162 163
f 128 163 129
f 129 163 164
f 129 164 165
f 129 165 130
f 130 165 166
f 130 166 131
f 131 166 132
f 132 166 133
f 133 167 168
f 133 168 134
f 133 166 167
f 134 168 169
f 134 169 135
f 135 169 170
f 135 170 206
f 135 206 171
f 135 171 172
f 135 172 136
f 139 173 140
f 140 173 174
f 140 174 175
f 141 176 142
f 142 176 177
f 142 177 147
f 143 149 178
f 143 178 179
f 143 179 144
f 144 179 180
f 144 180 145
f 145 180 181
f 145 181 146
f 146 181 182
f 146 182 151
f 148 183 149
f 148 184 185
f 148 185 183
f 149 183 185
f 149 185 178
f 150 151 156
f 151 186 156
f 151 182 187
f 151 187 186
f 152 155 188
f 152 188 189
f 152 189 190
f 152 190 153
f 154 191 155
f 154 156 191
f 155 191 188
f 156 192 191
f 156 186 193
f 156 193 192
f 157 159 189
f 157 189 188
f 157 188 191
f 157 191 158
f 158 191 160
f 160 192 161
f 160 191 192
f 161 193 162
f 161 192 193
f 162 193 194
f 162 194 195
f 162 195 163
f 163 196 197
f 163 197 198
f 163 198 164
f 163 195 196
f 164 198 199
f 164 199 165
f 165 199 167
f 165 167 166
f 167 199 200
f 167 200 168
f 168 200 201
f 168 201 202
f 168 202 203
f 168 203 169
f 169 203 170
f 170 203 204
f 170 204 205
f 170 205 206
f 174 207 175
f 175 207 209
f 175 209 208
f 178 185 210
f 178 210 211
f 178 211 179
f 179 211 212
f 179 212 180
f 180 212 213
f 180 213 181
f 181 213 214
f 181 214 182
f 182 214 215
f 182 215 187
f 184 216 217
f 184 217 185
f 185 217 218
f 185 218 210
f 186 187 194
f 186 194 193
f 187 215 219
f 187 219 194
f 194 219 195
f 195 219 196
f 196 219 220
f 196 220 221
f 196 221 197
f 197 221 222
f 197 222 223
f 197 223 198
f 198 224 199
f 198 223 224
f 199 224 200
f 200 224 201
f 201 225 226
f 201 226 227
f 201 227 228
f 201 228 202
f 201 224 225
f 202 228 203
f 203 228 229
f 203 229 230
f 203 230 204
f 204 230 231
f 204 231 232
f 204 232 205
f 208 209 233
f 209 234 233
f 210 218 235
f 210 235 236
f 210 236 211
f 211 236 237
f 211 237 212
f 212 237 238
f 212 238 213
f 213 238 214
f 214 238 239
f 214 239 240
f 214 240 215
f 215 220 219
f 215 240 220
f 216 241 217
f 217 241 242
f 217 242 218
f 218 242 243
f 218 243 235
f 220 240 244
f 220 244 221
f 221 244 245
f 221 245 246
f 221 246 247
f 221 247 222
f 222 247 248
f 222 248 223
f 223 248 225
f 223 225 224
f 225 248 226
f 226 249 250
f 226 250 227
f 226 248 249
f 227 250 251
f 227 251 228
f 228 251 252
f 228 252 229
f 229 252 253
f 229 253 254
f 229 254 230
f 230 254 255
f 230 255 231
f 233 234 256
f 234 257 256
f 235 243 258
f 235 258 259
f 235 259 260
f 235 260 236
f 236 260 261
f 236 261 237
f 237 261 262
f 237 262 238
f 238 262 263
f 238 263 239
f 239 263 264
f 239 264 240
f 240 264 244
f 241 265 242
f 242 265 266
f 242 266 243
f 243 266 258
f 244 264 245
f 245 264 267
f 245 267 268
f 245 268 246
f 246 268 269
f 246 269 270
f 246 270 247
f 247 270 249
f 247 249 248
f 249 270 271
f 249 271 250
f 250 271 272
f 250 272 251
f 251 272 273
f 251 273 252
f 252 273 274
f 252 274 275
f 252 275 253
f 253 275 276
f 253 276 254
f 254 276 277
f 254 277 278
f 254 278 255
f 256 257 279
f 257 280 279
f 257 281 280
f 258 266 282
f 258 282 283
f 258 283 284
f 258 284 259
f 259 284 285
f 259 285 260
f 260 285 286
f 260 286 261
f 261 286 262
f 262 286 287
f 262 287 288
f 262 288 263
f 263 267 264
f 263 288 267
f 265 289 266
f 266 289 282
f 267 288 290
f 267 290 268
f 268 290 291
f 268 291 292
f 268 292 269
f 269 292 293
f 269 293 294
f 269 294 270
f 270 294 271
f 271 294 295
f 271 295 272
f 272 295 296
f 272 296 273
f 273 296 297
f 273 297 298
f 273 298 274
f 274 298 299
f 274 299 300
f 274 300 275
f 275 301 276
f 275 300 301
f 276 301 302
f 276 302 277
f 277 303 278
f 277 302 303
f 280 281 304
f 281 305 304
f 282 306 307
f 282 307 308
f 282 308 283
f 282 289 306
f 283 308 309
f 283 309 284
f 284 309 310
f 284 310 311
f 284 311 285
f 285 311 312
f 285 312 286
f 286 312 313
f 286 313 287
f 287 313 288
f 288 313 314
f 288 314 291
f 288 291 290
f 291 314 315
f 291 315 316
f 291 316 317
f 291 317 292
f 292 317 293
f 293 318 319
f 293 319 294
f 293 317 320
f 293 320 318
f 294 319 295
f 295 319 321
f 295 321 322
f 295 322 296
f 296 322 323
f 296 323 324
f 296 324 325
f 296 325 297
f 297 325 326
f 297 326 361
f 297 361 327
f 297 327 298
f 298 328 299
f 298 327 329
f 298 329 330
f 298 330 328
f 299 328 331
f 299 331 332
f 299 332 333
f 299 333 334
f 299 334 300
f 300 334 301
f 301 334 335
f 301 335 302
f 302 335 336
f 302 336 337
f 302 337 303
f 304 305 338
f 304 338 339
f 307 340 308
f 308 340 341
f 308 341 309
f 309 341 342
f 309 342 343
f 309 343 310
f 310 343 344
f 310 344 311
f 311 344 345
f 311 345 312
f 312 345 346
f 312 346 313
f 313 346 347
f 313 347 315
f 313 315 314
f 315 347 348
f 315 348 316
f 316 348 349
f 316 349 350
f 316 350 351
f 316 351 352
f 316 352 353
f 316 353 317
f 317 353 354
f 317 354 320
f 318 355 319
f 318 320 355
f 319 355 321
f 320 354 355
f 321 355 322
f 322 355 323
f 323 356 324
f 323 355 356
f 324 356 357
f 324 357 358
f 324 358 359
f 324 359 360
f 324 360 361
f 324 361 326
f 324 326 325
f 327 361 392
f 327 392 362
f 327 362 329
f 328 330 329
f 328 329 331
f 329 362 363
f 329 363 364
f 329 364 365
f 329 365 331
f 331 365 332
f 332 365 366
f 332 366 400
f 332 400 367
f 332 367 368
f 332 368 334
f 332 334 333
f 334 368 335
f 335 368 369
f 335 369 370
f 335 370 336
f 338 371 372
f 338 372 373
f 338 373 339
f 340 374 341
f 341 374 375
f 341 375 342
f 342 375 376
f 342 376 343
f 343 377 344
f 343 376 378
f 343 378 410
f 343 410 377
f 344 377 346
f 344 346 345
f 346 377 379
f 346 379 347
f 347 379 380
f 347 380 381
f 347 381 382
f 347 382 349
f 347 349 348
f 349 383 384
f 349 384 385
f 349 385 352
f 349 352 350
f 349 382 380
f 349 380 383
f 350 352 351
f 352 385 386
f 352 386 353
f 353 386 387
f 353 387 354
f 354 387 356
f 354 356 355
f 356 387 357
f 357 387 359
f 357 359 358
f 359 387 388
f 359 388 389
f 359 389 360
f 360 389 390
f 360 390 391
f 360 391 392
f 360 392 361
f 362 392 391
f 362 391 393
f 362 393 394
f 362 394 395
f 362 395 396
f 362 396 363
f 363 396 395
f 363 395 364
f 364 397 365
f 364 395 398
f 364 398 399
f 364 399 397
f 365 397 366
f 366 397 400
f 367 400 401
f 367 401 369
f 367 369 368
f 371 402 372
f 371 403 402
f 374 404 375
f 375 404 405
f 375 405 406
f 375 406 407
f 375 407 408
f 375 408 376
f 376 408 409
f 376 409 378
f 377 410 379
f 378 409 410
f 379 410 411
f 379 411 380
f 380 412 383
f 380 382 381
f 380 411 413
f 380 413 414
f 380 414 412
f 383 412 415
f 383 415 384
f 384 386 385
f 384 415 386
f 386 415 416
f 386 416 387
f 387 416 388
f 388 416 417
f 388 417 418
f 388 418 419
f 388 419 389
f 389 419 390
f 390 420 391
f 390 419 421
f 390 421 420
f 391 420 422
f 391 422 423
f 391 423 393
f 393 423 394
f 394 423 395
f 395 423 422
f 395 422 424
f 395 424 425
f 395 425 399
f 395 399 398
f 397 426 456
f 397 456 427
f 397 427 400
f 397 399 425
f 397 425 426
f 400 428 401
f 400 427 457
f 400 457 428
f 402 403 429
f 403 430 431
f 403 431 429
f 406 432 433
f 406 433 407
f 407 433 408
f 408 433 434
f 408 434 435
f 408 435 409
f 409 436 410
f 409 435 437
f 409 437 438
f 409 438 436
f 410 436 411
f 411 436 439
f 411 439 413
f 412 414 415
f 413 440 441
f 413 441 442
f 413 442 414
f 413 439 440
f 414 442 443
f 414 443 415
f 415 443 417
f 415 417 416
f 417 443 444
f 417 444 445
f 417 445 446
f 417 446 418
f 418 446 419
f 419 446 447
f 419 447 448
f 419 448 449
f 419 449 421
f 420 421 449
f 420 449 450
f 420 450 451
f 420 451 422
f 422 452 424
f 422 451 480
f 422 480 452
f 424 452 425
f 425 453 454
f 425 454 426
f 425 452 455
f 425 455 453
f 426 454 456
f 427 456 486
f 427 486 457
f 430 458 431
f 431 458 459
f 432 460 433
f 433 460 434
f 434 460 461
f 434 461 435
f 435 461 437
f 436 438 462
f 436 462 440
f 436 440 439
f 437 461 463
f 437 463 490
f 437 490 464
f 437 464 465
f 437 465 438
f 438 465 462
f 440 462 466
f 440 466 441
f 441 466 467
f 441 467 468
f 441 468 442
f 442 468 444
f 442 444 443
f 444 468 469
f 444 469 470
f 444 470 445
f 445 470 446
f 446 470 447
f 447 470 471
f 447 471 472
f 447 472 473
f 447 473 448
f 448 473 449
f 449 474 450
f 449 473 475
f 449 475 476
f 449 476 477
f 449 477 474
f 450 474 478
f 450 478 479
f 450 479 451
f 451 479 484
f 451 484 480
f 452 480 455
f 453 455 481
f 453 481 482
f 453 482 483
f 453 483 456
f 453 456 454
f 455 480 484
f 455 484 485
f 455 485 481
f 456 483 512
f 456 512 486
f 458 487 488
f 458 488 459
f 462 465 489
f 462 489 466
f 464 490 518
f 464 518 491
f 464 491 492
f 464 492 465
f 465 492 517
f 465 517 489
f 466 489 493
f 466 493 467
f 467 493 494
f 467 494 495
f 467 495 468
f 468 495 469
f 469 495 496
f 469 496 470
f 470 496 471
f 471 496 497
f 471 497 498
f 471 498 472
f 472 498 473
f 473 498 475
f 474 477 499
f 474 499 478
f 475 498 500
f 475 500 501
f 475 501 476
f 476 501 502
f 476 502 503
f 476 503 477
f 477 503 533
f 477 533 504
f 477 504 505
f 477 505 499
f 478 484 479
f 478 499 505
f 478 505 506
f 478 506 484
f 481 507 482
f 481 485 508
f 481 508 536
f 481 536 507
f 482 507 509
f 482 509 510
f 482 510 511
f 482 511 512
f 482 512 483
f 484 506 513
f 484 513 514
f 484 514 485
f 485 514 537
f 485 537 508
f 487 515 488
f 488 515 516
f 489 517 493
f 491 518 519
f 491 519 520
f 491 520 521
f 491 521 492
f 492 521 522
f 492 522 517
f 493 517 523
f 493 523 494
f 494 523 524
f 494 524 495
f 495 524 525
f 495 525 496
f 496 525 526
f 496 526 497
f 497 526 527
f 497 527 528
f 497 528 500
f 497 500 498
f 500 528 529
f 500 529 530
f 500 530 531
f 500 531 501
f 501 531 532
f 501 532 502
f 502 532 503
f 503 532 534
f 503 534 561
f 503 561 533
f 504 533 535
f 504 535 505
f 505 535 513
f 505 513 506
f 507 536 538
f 507 538 509
f 508 537 536
f 513 535 563
f 513 563 539
f 513 539 514
f 514 539 565
f 514 565 537
f 515 540 541
f 515 541 542
f 515 542 516
f 517 522 543
f 517 543 544
f 517 544 545
f 517 545 523
f 519 546 520
f 520 522 521
f 520 546 547
f 520 547 522
f 522 544 543
f 522 547 548
f 522 548 549
f 522 549 544
f 523 545 550
f 523 550 524
f 524 550 551
f 524 551 525
f 525 552 553
f 525 553 526
f 525 551 552
f 526 553 527
f 527 553 578
f 527 578 554
f 527 554 529
f 527 529 528
f 529 554 555
f 529 555 556
f 529 556 530
f 530 556 531
f 531 556 557
f 531 557 558
f 531 558 532
f 532 558 559
f 532 559 560
f 532 560 534
f 533 561 562
f 533 562 535
f 534 560 561
f 535 562 591
f 535 591 563
f 536 537 564
f 536 564 566
f 536 566 538
f 537 565 594
f 537 594 564
f 539 563 565
f 540 567 568
f 540 568 541
f 541 568 569
f 541 569 570
f 544 549 545
f 545 549 571
f 545 571 572
f 545 572 573
f 545 573 552
f 545 552 551
f 545 551 550
f 546 574 575
f 546 575 547
f 547 575 548
f 548 575 576
f 548 576 549
f 549 576 571
f 552 573 553
f 553 573 577
f 553 577 578
f 554 578 579
f 554 579 580
f 554 580 555
f 555 580 581
f 555 581 556
f 556 581 582
f 556 582 583
f 556 583 584
f 556 584 557
f 557 584 558
f 558 584 585
f 558 585 559
f 559 585 586
f 559 586 620
f 559 620 587
f 559 587 560
f 560 587 561
f 561 587 562
f 562 587 588
f 562 588 589
f 562 589 590
f 562 590 591
f 563 592 565
f 563 591 593
f 563 593 592
f 564 594 596
f 564 596 566
f 565 592 595
f 565 595 594
f 567 597 568
f 567 598 597
f 568 597 599
f 568 599 600
f 568 600 569
f 569 600 599
f 569 599 601
f 569 601 570
f 570 601 602
f 570 602 603
f 571 576 604
f 571 604 572
f 572 604 605
f 572 605 573
f 573 605 577
f 574 606 575
f 575 606 607
f 575 607 608
f 575 608 576
f 576 608 609
f 576 609 604
f 577 605 610
f 577 610 611
f 577 611 579
f 577 579 578
f 579 611 612
f 579 612 580
f 580 612 613
f 580 613 614
f 580 614 581
f 581 614 615
f 581 615 582
f 582 615 583
f 583 616 584
f 583 615 617
f 583 617 652
f 583 652 616
f 584 616 618
f 584 618 585
f 585 618 586
f 586 618 619
f 586 619 657
f 586 657 620
f 587 620 621
f 587 621 588
f 588 621 622
f 588 622 589
f 589 622 661
f 589 661 623
f 589 623 624
f 589 624 590
f 590 624 593
f 590 593 591
f 592 593 626
f 592 626 595
f 593 624 625
f 593 625 626
f 594 595 596
f 595 627 596
f 595 626 665
f 595 665 627
f 597 598 628
f 597 628 599
f 598 629 630
f 598 630 628
f 599 628 630
f 599 630 631
f 599 631 632
f 599 632 633
f 599 633 634
f 599 634 601
f 601 634 635
f 601 635 636
f 601 636 602
f 602 636 635
f 602 635 637
f 602 637 603
f 603 637 638
f 604 609 639
f 604 639 605
f 605 639 610
f 607 640 608
f 608 640 641
f 608 641 642
f 608 642 643
f 608 643 609
f 609 643 639
f 610 639 644
f 610 644 645
f 610 645 611
f 611 645 646
f 611 646 612
f 612 646 647
f 612 647 648
f 612 648 613
f 613 648 649
f 613 649 650
f 613 650 653
f 613 653 651
f 613 651 615
f 613 615 614
f 615 651 617
f 616 652 655
f 616 655 618
f 617 653 654
f 617 654 689
f 617 689 652
f 617 651 653
f 618 655 619
f 619 655 656
f 619 656 695
f 619 695 657
f 620 657 621
f 621 657 658
f 621 658 659
f 621 659 622
f 622 659 660
f 622 660 661
f 623 661 662
f 623 662 625
f 623 625 624
f 625 662 700
f 625 700 663
f 625 663 664
f 625 664 626
f 626 664 665
f 629 666 667
f 629 667 668
f 629 668 630
f 630 668 631
f 631 668 669
f 631 669 670
f 631 670 632
f 632 670 633
f 633 670 671
f 633 671 672
f 633 672 673
f 633 673 635
f 633 635 634
f 635 673 674
f 635 674 637
f 637 674 638
f 638 674 675
f 639 643 644
f 641 676 642
f 642 676 677
f 642 677 678
f 642 678 679
f 642 679 643
f 643 679 644
f 644 679 680
f 644 680 645
f 645 680 681
f 645 681 647
f 645 647 646
f 647 681 682
f 647 682 683
f 647 683 649
f 647 649 648
f 649 683 684
f 649 684 685
f 649 685 686
f 649 686 650
f 650 686 687
f 650 687 688
f 650 688 690
f 650 690 653
f 652 689 692
f 652 692 655
f 653 690 691
f 653 691 654
f 654 691 722
f 654 722 689
f 655 692 693
f 655 693 694
f 655 694 656
f 656 694 695
f 657 695 696
f 657 696 658
f 658 696 697
f 658 697 659
f 659 697 698
f 659 698 660
f 660 698 699
f 660 699 662
f 660 662 661
f 662 699 734
f 662 734 700
f 666 701 667
f 667 701 702
f 667 702 703
f 667 703 668
f 668 703 670
f 668 670 669
f 670 703 702
f 670 702 671
f 671 702 672
f 672 702 704
f 672 704 705
f 672 705 706
f 672 706 707
f 672 707 673
f 673 707 674
f 674 707 708
f 674 708 675
f 675 708 709
f 677 710 711
f 677 711 678
f 678 711 679
f 679 711 712
f 679 712 713
f 679 713 680
f 680 713 681
f 681 713 682
f 682 713 714
f 682 714 715
f 682 715 684
f 682 684 683
f 684 715 716
f 684 716 685
f 685 716 717
f 685 717 718
f 685 718 687
f 685 687 686
f 687 718 719
f 687 719 720
f 687 720 721
f 687 721 688
f 688 721 723
f 688 723 690
f 689 722 725
f 689 725 692
f 690 723 691
f 691 723 724
f 691 724 758
f 691 758 722
f 692 725 693
f 693 726 695
f 693 695 694
f 693 725 727
f 693 727 728
f 693 728 726
f 695 726 696
f 696 726 728
f 696 728 729
f 696 729 730
f 696 730 697
f 697 730 731
f 697 731 698
f 698 731 732
f 698 732 699
f 699 732 733
f 699 733 734
f 701 735 736
f 701 736 702
f 702 736 737
f 702 737 704
f 704 737 738
f 704 738 739
f 704 739 705
f 705 740 741
f 705 741 706
f 705 739 740
f 706 742 707
f 706 741 742
f 707 742 743
f 707 743 744
f 707 744 708
f 708 744 745
f 708 745 746
f 708 746 709
f 710 747 711
f 711 747 748
f 711 748 712
f 712 748 749
f 712 749 714
f 712 714 713
f 714 749 750
f 714 750 716
f 714 716 715
f 716 750 751
f 716 751 717
f 717 751 752
f 717 752 753
f 717 753 718
f 718 753 754
f 718 754 755
f 718 755 719
f 719 755 720
f 720 755 756
f 720 756 761
f 720 761 757
f 720 757 723
f 720 723 721
f 722 758 759
f 722 759 760
f 722 760 725
f 723 757 724
f 724 757 761
f 724 761 762
f 724 762 763
f 724 763 758
f 725 760 727
f 727 759 764
f 727 764 765
f 727 765 766
f 727 766 728
f 727 760 759
f 728 766 767
f 728 767 729
f 729 767 768
f 729 768 730
f 730 768 770
f 730 770 769
f 730 769 731
f 731 769 732
f 732 769 770
f 732 770 771
f 732 771 772
f 732 772 773
f 732 773 733
f 735 774 736
f 736 774 775
f 736 775 737
f 737 775 776
f 737 776 738
f 738 776 739
f 739 776 777
f 739 777 778
f 739 778 740
f 740 778 741
f 741 778 779
f 741 779 780
f 741 780 742
f 742 780 743
f 743 780 781
f 743 781 782
f 743 782 744
f 744 782 745
f 745 782 783
f 745 783 784
f 745 784 746
f 747 785 748
f 748 785 786
f 748 786 749
f 749 786 830
f 749 830 787
f 749 787 750
f 750 787 751
f 751 787 752
f 752 788 789
f 752 789 790
f 752 790 791
f 752 791 753
f 752 787 788
f 753 791 754
f 754 791 792
f 754 792 755
f 755 792 793
f 755 793 794
f 755 794 756
f 756 794 795
f 756 795 761
f 758 763 759
f 759 763 764
f 761 795 796
f 761 796 762
f 762 796 797
f 762 797 763
f 763 797 764
f 764 797 798
f 764 798 799
f 764 799 765
f 765 799 800
f 765 800 766
f 766 800 801
f 766 801 767
f 767 801 768
f 768 801 802
f 768 802 803
f 768 803 770
f 770 803 771
f 771 803 804
f 771 804 805
f 771 805 806
f 771 806 807
f 771 807 772
f 774 808 809
f 774 809 776
f 774 776 775
f 776 809 808
f 776 808 810
f 776 810 811
f 776 811 812
f 776 812 777
f 777 812 813
f 777 813 814
f 777 814 778
f 778 814 779
f 779 814 815
f 779 815 816
f 779 816 817
f 779 817 818
f 779 818 819
f 779 819 820
f 779 820 781
f 779 781 780
f 781 820 821
f 781 821 822
f 781 822 823
f 781 823 824
f 781 824 825
f 781 825 826
f 781 826 782
f 782 826 783
f 783 826 827
f 783 827 784
f 785 828 786
f 786 828 829
f 786 829 830
f 787 830 831
f 787 831 788
f 788 831 832
f 788 832 789
f 789 832 833
f 789 833 790
f 790 833 834
f 790 834 791
f 791 834 835
f 791 835 836
f 791 836 792
f 792 836 793
f 793 837 794
f 793 836 838
f 793 838 837
f 794 837 795
f 795 837 839
f 795 839 840
f 795 840 796
f 796 840 841
f 796 841 797
f 797 841 842
f 797 842 798
f 798 842 799
f 799 842 843
f 799 843 844
f 799 844 800
f 800 844 845
f 800 845 801
f 801 845 846
f 801 846 802
f 802 846 803
f 803 846 847
f 803 847 804
f 804 848 805
f 804 847 849
f 804 849 850
f 804 850 848
f 810 851 811
f 811 851 852
f 811 852 853
f 811 853 813
f 811 813 812
f 813 853 854
f 813 854 855
f 813 855 814
f 814 855 815
f 815 855 816
f 816 855 817
f 817 855 856
f 817 856 819
f 817 819 818
f 819 824 822
f 819 822 821
f 819 821 820
f 819 856 857
f 819 857 858
f 819 858 859
f 819 859 860
f 819 860 861
f 819 861 824
f 822 824 823
f 824 862 863
f 824 863 864
f 824 864 825
f 824 861 865
f 824 865 866
f 824 866 867
f 824 867 868
f 824 868 862
f 825 864 863
f 825 863 826
f 826 863 862
f 826 862 869
f 826 869 870
f 826 870 827
f 829 871 830
f 830 871 831
f 831 871 872
f 831 872 873
f 831 873 832
f 832 873 874
f 832 874 875
f 832 875 876
f 832 876 833
f 833 876 916
f 833 916 877
f 833 877 878
f 833 878 834
f 834 878 879
f 834 879 835
f 835 879 836
f 836 879 880
f 836 880 838
f 837 881 882
f 837 882 839
f 837 838 881
f 838 880 883
f 838 883 884
f 838 884 885
f 838 885 881
f 839 882 886
f 839 886 840
f 840 886 841
f 841 886 924
f 841 924 887
f 841 887 888
f 841 888 842
f 842 888 889
f 842 889 843
f 843 889 890
f 843 890 844
f 844 890 891
f 844 891 845
f 845 891 846
f 846 891 892
f 846 892 847
f 847 892 893
f 847 893 894
f 847 894 849
f 849 895 850
f 849 894 896
f 849 896 895
f 852 897 853
f 853 897 898
f 853 898 899
f 853 899 854
f 854 900 855
f 854 899 945
f 854 945 900
f 855 900 856
f 856 900 901
f 856 901 902
f 856 902 903
f 856 903 857
f 857 902 904
f 857 904 858
f 857 903 902
f 858 904 905
f 858 905 859
f 859 905 906
f 859 906 860
f 860 906 861
f 861 906 865
f 862 868 907
f 862 907 908
f 862 908 909
f 862 909 910
f 862 910 870
f 862 870 869
f 865 906 911
f 865 911 866
f 866 911 912
f 866 912 867
f 867 912 913
f 867 913 868
f 868 913 914
f 868 914 907
f 875 915 876
f 876 915 916
f 877 916 917
f 877 917 918
f 877 918 919
f 877 919 878
f 878 919 879
f 879 919 920
f 879 920 880
f 880 920 921
f 880 921 922
f 880 922 883
f 881 885 923
f 881 923 882
f 882 923 924
f 882 924 886
f 883 922 925
f 883 925 926
f 883 926 884
f 884 926 927
f 884 927 928
f 884 928 929
f 884 929 930
f 884 930 923
f 884 923 885
f 887 924 970
f 887 970 931
f 887 931 932
f 887 932 888
f 888 932 933
f 888 933 889
f 889 933 890
f 890 933 934
f 890 934 935
f 890 935 891
f 891 935 893
f 891 893 892
f 893 935 981
f 893 981 936
f 893 936 937
f 893 937 894
f 894 937 896
f 895 896 938
f 896 937 983
f 896 983 939
f 896 939 984
f 896 984 938
f 897 940 898
f 898 940 941
f 898 941 942
f 898 942 943
f 898 943 899
f 899 943 944
f 899 944 945
f 900 945 902
f 900 902 901
f 902 945 946
f 902 946 947
f 902 947 948
f 902 948 904
f 904 948 949
f 904 949 950
f 904 950 951
f 904 951 905
f 905 951 952
f 905 952 906
f 906 952 953
f 906 953 954
f 906 954 911
f 907 914 955
f 907 955 956
f 907 956 908
f 908 956 909
f 909 956 957
f 911 954 953
f 911 953 958
f 911 958 959
f 911 959 912
f 912 959 960
f 912 960 913
f 913 960 961
f 913 961 914
f 914 961 962
f 914 962 955
f 915 963 917
f 915 917 916
f 917 963 964
f 917 964 965
f 917 965 966
f 917 966 918
f 918 966 919
f 919 966 967
f 919 967 921
f 919 921 920
f 921 967 968
f 921 968 969
f 921 969 925
f 921 925 922
f 923 930 924
f 924 930 970
f 925 969 1011
f 925 1011 971
f 925 971 927
f 925 927 926
f 927 971 972
f 927 972 973
f 927 973 928
f 928 973 974
f 928 974 1019
f 928 1019 975
f 928 975 929
f 929 975 1021
f 929 1021 976
f 929 976 970
f 929 970 930
f 931 970 976
f 931 976 1021
f 931 1021 977
f 931 977 978
f 931 978 932
f 932 978 979
f 932 979 933
f 933 979 980
f 933 980 934
f 934 980 981
f 934 981 935
f 936 981 1027
f 936 1027 982
f 936 982 937
f 937 982 983
f 939 983 985
f 939 985 986
f 939 986 1029
f 939 1029 984
f 941 987 942
f 942 987 1032
f 942 1032 988
f 942 988 989
f 942 989 943
f 943 989 990
f 943 990 944
f 944 990 1036
f 944 1036 991
f 944 991 946
f 944 946 945
f 946 991 947
f 947 991 992
f 947 992 949
f 947 949 948
f 949 992 993
f 949 993 994
f 949 994 950
f 950 994 995
f 950 995 996
f 950 996 951
f 951 996 997
f 951 997 952
f 952 997 953
f 953 997 998
f 953 998 958
f 955 962 999
f 955 999 956
f 956 1000 957
f 956 999 1001
f 956 1001 1000
f 958 998 1002
f 958 1002 1003
f 958 1003 959
f 959 1003 1004
f 959 1004 960
f 960 1004 1005
f 960 1005 1006
f 960 1006 961
f 961 1006 962
f 962 1006 1007
f 962 1007 999
f 964 1008 1009
f 964 1009 965
f 965 1009 1010
f 965 1010 966
f 966 1010 967
f 967 1010 968
f 968 1011 969
f 968 1010 1062
f 968 1062 1012
f 968 1012 1013
f 968 1013 1011
f 971 1011 1013
f 971 1013 972
f 972 1013 1014
f 972 1014 1015
f 972 1015 973
f 973 1015 1016
f 973 1016 1017
f 973 1017 974
f 974 1017 1018
f 974 1018 1075
f 974 1075 1019
f 975 1019 1020
f 975 1020 1021
f 977 1021 1020
f 977 1020 1022
f 977 1022 1023
f 977 1023 1024
f 977 1024 978
f 978 1024 1025
f 978 1025 979
f 979 1025 1026
f 979 1026 980
f 980 1026 1027
f 980 1027 981
f 982 1027 1082
f 982 1082 1028
f 982 1028 985
f 982 985 983
f 985 1028 1083
f 985 1083 1030
f 985 1030 1031
f 985 1031 986
f 986 1031 1029
f 988 1032 1033
f 988 1033 1034
f 988 1034 989
f 989 1034 990
f 990 1034 1035
f 990 1035 1036
f 991 1036 992
f 992 1036 993
f 993 1036 1037
f 993 1037 994
f 994 1037 1038
f 994 1038 995
f 995 1038 1039
f 995 1039 1040
f 995 1040 996
f 996 1040 1041
f 996 1041 1042
f 996 1042 997
f 997 1042 998
f 998 1042 1002
f 999 1007 1043
f 999 1043 1045
f 999 1045 1001
f 1000 1001 1044
f 1001 1045 1046
f 1001 1046 1044
f 1002 1042 1047
f 1002 1047 1048
f 1002 1048 1003
f 1003 1048 1049
f 1003 1049 1050
f 1003 1050 1004
f 1004 1050 1051
f 1004 1051 1052
f 1004 1052 1053
f 1004 1053 1005
f 1005 1053 1054
f 1005 1054 1055
f 1005 1055 1006
f 1006 1055 1056
f 1006 1056 1057
f 1006 1057 1007
f 1007 1057 1058
f 1007 1058 1043
f 1008 1059 1009
f 1009 1059 1060
f 1009 1060 1061
f 1009 1061 1010
f 1010 1061 1062
f 1012 1062 1063
f 1012 1063 1064
f 1012 1064 1122
f 1012 1122 1065
f 1012 1065 1013
f 1013 1065 1066
f 1013 1066 1014
f 1014 1016 1015
f 1014 1066 1067
f 1014 1067 1068
f 1014 1068 1069
f 1014 1069 1070
f 1014 1070 1071
f 1014 1071 1016
f 1016 1071 1072
f 1016 1072 1073
f 1016 1073 1017
f 1017 1073 1074
f 1017 1074 1018
f 1018 1074 1075
f 1019 1075 1020
f 1020 1075 1076
f 1020 1076 1022
f 1022 1076 1077
f 1022 1077 1078
f 1022 1078 1079
f 1022 1079 1023
f 1023 1079 1080
f 1023 1080 1025
f 1023 1025 1024
f 1025 1080 1026
f 1026 1080 1081
f 1026 1081 1027
f 1027 1081 1082
f 1028 1082 1134
f 1028 1134 1083
f 1029 1031 1084
f 1030 1083 1085
f 1030 1085 1086
f 1030 1086 1087
f 1030 1087 1031
f 1031 1087 1088
f 1031 1088 1084
f 1032 1089 1033
f 1033 1089 1090
f 1033 1090 1091
f 1033 1091 1092
f 1033 1092 1034
f 1034 1092 1094
f 1034 1094 1035
f 1035 1093 1036
f 1035 1094 1095
f 1035 1095 1093
f 1036 1093 1037
f 1037 1093 1095
f 1037 1095 1096
f 1037 1096 1039
f 1037 1039 1038
f 1039 1096 1097
f 1039 1097 1040
f 1040 1097 1098
f 1040 1098 1099
f 1040 1099 1100
f 1040 1100 1041
f 1041 1100 1042
f 1042 1100 1047
f 1043 1058 1101
f 1043 1101 1045
f 1045 1101 1102
f 1045 1102 1103
f 1045 1103 1104
f 1045 1104 1046
f 1047 1049 1048
f 1047 1100 1105
f 1047 1105 1106
f 1047 1106 1107
f 1047 1107 1108
f 1047 1108 1049
f 1049 1108 1051
f 1049 1051 1050
f 1051 1108 1109
f 1051 1109 1052
f 1052 1109 1110
f 1052 1110 1111
f 1052 1111 1053
f 1053 1111 1054
f 1054 1111 1112
f 1054 1112 1055
f 1055 1112 1056
f 1056 1112 1113
f 1056 1113 1057
f 1057 1113 1114
f 1057 1114 1115
f 1057 1115 1116
f 1057 1116 1058
f 1058 1117 1101
f 1058 1116 1117
f 1060 1118 1061
f 1061 1119 1062
f 1061 1118 1119
f 1062 1119 1063
f 1063 1119 1120
f 1063 1120 1121
f 1063 1121 1064
f 1064 1121 1122
f 1065 1122 1066
f 1066 1122 1123
f 1066 1123 1067
f 1067 1123 1068
f 1068 1123 1124
f 1068 1124 1069
f 1069 1124 1070
f 1070 1124 1101
f 1070 1101 1117
f 1070 1117 1116
f 1070 1116 1071
f 1071 1116 1072
f 1072 1116 1115
f 1072 1115 1073
f 1073 1115 1125
f 1073 1125 1074
f 1074 1126 1127
f 1074 1127 1075
f 1074 1125 1112
f 1074 1112 1111
f 1074 1111 1126
f 1075 1127 1077
f 1075 1077 1076
f 1077 1127 1126
f 1077 1126 1128
f 1077 1128 1129
f 1077 1129 1078
f 1078 1129 1130
f 1078 1130 1079
f 1079 1130 1131
f 1079 1131 1132
f 1079 1132 1080
f 1080 1132 1081
f 1081 1132 1131
f 1081 1131 1133
f 1081 1133 1135
f 1081 1135 1134
f 1081 1134 1082
f 1083 1134 1135
f 1083 1135 1085
f 1085 1135 1136
f 1085 1136 1137
f 1085 1137 1138
f 1085 1138 1139
f 1085 1139 1140
f 1085 1140 1141
f 1085 1141 1142
f 1085 1142 1086
f 1086 1142 1143
f 1086 1143 1087
f 1087 1143 1171
f 1087 1171 1144
f 1087 1144 1088
f 1090 1145 1146
f 1090 1146 1091
f 1091 1146 1147
f 1091 1147 1092
f 1092 1147 1094
f 1094 1147 1148
f 1094 1148 1149
f 1094 1149 1095
f 1095 1149 1096
f 1096 1149 1138
f 1096 1138 1150
f 1096 1150 1151
f 1096 1151 1097
f 1097 1151 1150
f 1097 1150 1152
f 1097 1152 1098
f 1098 1152 1153
f 1098 1153 1100
f 1098 1100 1099
f 1100 1153 1105
f 1101 1124 1102
f 1102 1124 1121
f 1102 1121 1154
f 1102 1154 1103
f 1105 1153 1106
f 1106 1153 1155
f 1106 1155 1156
f 1106 1156 1157
f 1106 1157 1158
f 1106 1158 1107
f 1107 1158 1108
f 1108 1158 1109
f 1109 1158 1110
f 1110 1158 1157
f 1110 1157 1159
f 1110 1159 1111
f 1111 1159 1126
f 1112 1114 1113
f 1112 1125 1114
f 1114 1125 1115
f 1118 1160 1121
f 1118 1121 1120
f 1118 1120 1119
f 1121 1124 1123
f 1121 1123 1122
f 1121 1160 1161
f 1121 1161 1154
f 1126 1159 1128
f 1128 1159 1157
f 1128 1157 1129
f 1129 1157 1156
f 1129 1156 1155
f 1129 1155 1162
f 1129 1162 1130
f 1130 1162 1131
f 1131 1162 1163
f 1131 1163 1133
f 1133 1163 1164
f 1133 1164 1165
f 1133 1165 1136
f 1133 1136 1135
f 1136 1165 1166
f 1136 1166 1137
f 1137 1166 1138
f 1138 1149 1148
f 1138 1148 1139
f 1138 1166 1167
f 1138 1167 1150
f 1139 1148 1147
f 1139 1147 1168
f 1139 1168 1140
f 1140 1169 1170
f 1140 1170 1141
f 1140 1168 1173
f 1140 1173 1169
f 1141 1170 1143
f 1141 1143 1142
f 1143 1170 1176
f 1143 1176 1171
f 1145 1172 1146
f 1146 1172 1173
f 1146 1173 1168
f 1146 1168 1147
f 1150 1167 1152
f 1152 1167 1174
f 1152 1174 1153
f 1153 1174 1164
f 1153 1164 1155
f 1155 1164 1162
f 1162 1164 1163
f 1164 1174 1167
f 1164 1167 1166
f 1164 1166 1165
f 1169 1173 1172
f 1169 1172 1175
f 1169 1175 1176
f 1169 1176 1170
