v 0.19240445 -0.42083919 -0.67124695
v 0.19240445 -0.42083919 -0.52617085
v 0.19240445 -0.43001488 -0.66822678
v 0.18995956 -0.42083919 -0.67092335
v 0.19240445 -0.50408858 -0.45174518
v -0.21965213 -0.42083919 -0.12028134
v 0.19240445 -0.44571784 -0.66229427
v 0.18995956 -0.44534299 -0.66213250
v 0.17427635 -0.44240940 -0.66094601
v 0.18995956 -0.43001488 -0.66784930
v 0.18077624 -0.42083919 -0.66946721
v -0.14708008 -0.50408858 -0.12028134
v 0.19240445 -0.50408858 -0.63198471
v -0.41667598 -0.42083919 -0.12028134
v 0.19240445 -0.44694835 -0.66180891
v 0.18995956 -0.45534173 -0.65797973
v 0.19240445 -0.45571658 -0.65819550
v 0.16855168 -0.44945005 -0.65700901
v 0.16097844 -0.43952468 -0.65975952
v 0.16855168 -0.43171799 -0.66385829
v 0.16926727 -0.42083919 -0.66763353
v -0.32919598 -0.50408858 -0.12028134
v 0.19240445 -0.49588263 -0.63748574
v 0.19127145 -0.50408858 -0.63187683
v -0.27719694 -0.42083919 -0.35434464
v -0.27552724 -0.43080533 -0.35008404
v -0.26193115 -0.44394952 -0.36313552
v -0.26616502 -0.45037904 -0.35062337
v -0.25853214 -0.45728117 -0.35768840
v -0.26246786 -0.46445224 -0.34436730
v -0.25859177 -0.47778386 -0.33767977
v -0.26228896 -0.48361850 -0.32435864
v -0.25787619 -0.49695012 -0.31599924
v -0.26127520 -0.50180686 -0.30267814
v -0.26055962 -0.50408858 -0.30062872
v -0.26300454 -0.50408858 -0.29545128
v -0.36193389 -0.48211095 -0.12308577
v -0.36467695 -0.48039150 -0.12028134
v 0.18995956 -0.46999350 -0.65113044
v 0.16992322 -0.46999350 -0.64789456
v 0.19240445 -0.46999350 -0.65145403
v 0.14994654 -0.45001233 -0.65312588
v 0.14994654 -0.43637103 -0.65862691
v 0.14994654 -0.42637232 -0.66224039
v 0.14994654 -0.42083919 -0.66402012
v -0.34022787 -0.50058454 -0.12028134
v -0.28274271 -0.50408858 -0.24885435
v 0.19240445 -0.48588389 -0.64325643
v 0.18995956 -0.49559739 -0.63732398
v 0.18995956 -0.48559868 -0.64314854
v 0.18942288 -0.50408858 -0.63160717
v -0.27242640 -0.42083919 -0.36221868
v -0.26544943 -0.42796135 -0.36896011
v -0.26443571 -0.42895553 -0.36993089
v -0.25465608 -0.45090872 -0.36896011
v -0.25763768 -0.43492052 -0.37651056
v -0.25429827 -0.45037904 -0.36993089
v -0.24088109 -0.46160826 -0.38141832
v -0.24445900 -0.46895042 -0.36922976
v -0.25507349 -0.47066987 -0.35062337
v -0.24123889 -0.48190722 -0.36200294
v -0.24439937 -0.48913530 -0.34878969
v -0.24076185 -0.50101644 -0.34129319
v -0.25435790 -0.49016207 -0.33061472
v -0.24583054 -0.50408858 -0.32818779
v -0.25388086 -0.50408858 -0.31324872
v -0.25841287 -0.50408858 -0.30478147
v -0.26676136 -0.50408858 -0.28714582
v -0.36253020 -0.48278731 -0.12028134
v 0.16992322 -0.48267323 -0.64147669
v 0.15805647 -0.48071748 -0.64034414
v 0.15078136 -0.47075948 -0.64379573
v 0.12996984 -0.46444407 -0.64217782
v 0.12996984 -0.45001233 -0.64854169
v 0.13652933 -0.42230600 -0.66078424
v 0.12991020 -0.42938742 -0.65657759
v 0.13569450 -0.42083919 -0.66105390
v -0.34064531 -0.50040525 -0.12028134
v -0.27910516 -0.50408858 -0.25834632
v 0.16992322 -0.50408858 -0.62820947
v 0.16992322 -0.49267194 -0.63559812
v -0.26139447 -0.42083919 -0.38033968
v -0.26061925 -0.42158890 -0.38109472
v -0.25024331 -0.43056899 -0.39037097
v -0.23974809 -0.43954098 -0.39970115
v -0.24392232 -0.45001233 -0.38584071
v -0.23694539 -0.45001233 -0.39576414
v -0.22281262 -0.46471298 -0.40385389
v -0.22984919 -0.46982238 -0.38988560
v -0.23688576 -0.47492358 -0.37537798
v -0.22352821 -0.48503640 -0.38503176
v -0.23169778 -0.48893160 -0.36896011
v -0.23658760 -0.49523884 -0.35466823
v -0.22334930 -0.50408858 -0.36486131
v -0.23646833 -0.50408858 -0.34420550
v -0.23968846 -0.50408858 -0.33886626
v -0.24314710 -0.50408858 -0.33298773
v -0.27666026 -0.50408858 -0.26444060
v -0.36020458 -0.48492232 -0.12028134
v 0.15078136 -0.48842636 -0.63419592
v 0.14469892 -0.47793868 -0.63888800
v 0.11756638 -0.46133119 -0.64061379
v 0.12996984 -0.47444281 -0.63710821
v 0.11052982 -0.45039535 -0.64341819
v 0.10993350 -0.43001488 -0.65129220
v 0.13241473 -0.42083919 -0.66029882
v 0.12508002 -0.42083919 -0.65846515
v -0.34100309 -0.50016081 -0.12028134
v 0.15000618 -0.50408858 -0.62427247
v -0.26079816 -0.42083919 -0.38125652
v -0.24720207 -0.42083919 -0.40072584
v -0.24272969 -0.42620933 -0.40385389
v -0.23545459 -0.43173429 -0.41032568
v -0.22144109 -0.44275978 -0.42186704
v -0.22645018 -0.44966194 -0.41027176
v -0.21869802 -0.47804463 -0.39829892
v -0.21774390 -0.45609143 -0.41717499
v -0.21398710 -0.47082469 -0.41027176
v -0.21476232 -0.49101770 -0.39101815
v -0.21875766 -0.49836802 -0.37834424
v -0.23002809 -0.49013764 -0.37020054
v -0.23056477 -0.49052876 -0.36896011
v -0.21577606 -0.50408858 -0.37580943
v 0.13354775 -0.50236917 -0.62157589
v 0.12812123 -0.49192223 -0.62669945
v 0.11052982 -0.46878746 -0.63484311
v 0.10420883 -0.45732191 -0.63878012
v 0.10993350 -0.48750553 -0.62448823
v 0.09448884 -0.44399029 -0.64163852
v 0.08864491 -0.43140835 -0.64465868
v 0.10080982 -0.42083919 -0.65183157
v 0.10945644 -0.42083919 -0.65431243
v 0.14356592 -0.50408858 -0.62276244
v -0.24356455 -0.42083919 -0.40590328
v -0.23700503 -0.42083919 -0.41474807
v -0.23265189 -0.42083919 -0.42057270
v -0.22448233 -0.43001488 -0.42580408
v -0.21655127 -0.43001488 -0.43578142
v -0.20271666 -0.44488665 -0.44317004
v -0.21023029 -0.45048496 -0.43033433
v -0.20015249 -0.48024485 -0.42019516
v -0.20361114 -0.48814115 -0.40838414
v -0.19890022 -0.45821831 -0.43874764
v -0.20343225 -0.46999350 -0.42424005
v -0.20039102 -0.50057638 -0.40061799
v -0.20337263 -0.50408858 -0.39274397
v -0.20689091 -0.50408858 -0.38799798
v 0.13575414 -0.50408858 -0.62092876
v 0.12024983 -0.49988374 -0.61990404
v 0.09353473 -0.48344737 -0.62206131
v 0.08810822 -0.47188404 -0.62648368
v 0.08864491 -0.45039535 -0.63705432
v 0.06992049 -0.46638352 -0.62324780
v 0.10993350 -0.49750426 -0.61839396
v 0.08113129 -0.43900314 -0.63958907
v 0.08930086 -0.42083919 -0.64848781
v 0.07373693 -0.42567149 -0.64201599
v -0.21875766 -0.42083919 -0.43847799
v -0.20540011 -0.42832804 -0.44991150
v -0.19681311 -0.43386930 -0.45649117
v -0.18345556 -0.44596231 -0.46371800
v -0.19114807 -0.45209029 -0.45131373
v -0.19502415 -0.46999350 -0.43421739
v -0.18112990 -0.48150793 -0.44122851
v -0.18804722 -0.48754627 -0.42779952
v -0.18172623 -0.50208396 -0.42208278
v -0.19502415 -0.49357647 -0.41393912
v -0.17951985 -0.45929396 -0.45951134
v -0.18500599 -0.46999350 -0.44559699
v -0.18393260 -0.50408858 -0.41728288
v -0.19466636 -0.50408858 -0.40401569
v -0.19931765 -0.50408858 -0.39808321
v 0.12370848 -0.50408858 -0.61780071
v 0.10921792 -0.50408858 -0.61348617
v 0.08810822 -0.49006429 -0.61612880
v 0.08023680 -0.47980478 -0.61985010
v 0.06992049 -0.45001233 -0.63101393
v 0.06992049 -0.47638226 -0.61801642
v 0.05727852 -0.46204829 -0.62098265
v 0.08959902 -0.50408858 -0.60728401
v 0.06819116 -0.43140835 -0.63802505
v 0.06318208 -0.42083919 -0.64029020
v 0.07182870 -0.42083919 -0.64304072
v -0.20015249 -0.42083919 -0.46015853
v -0.18870316 -0.42757019 -0.46867973
v -0.17707494 -0.43460271 -0.47703913
v -0.16377702 -0.44608456 -0.48367271
v -0.17576304 -0.46999350 -0.45557433
v -0.16151100 -0.48192352 -0.46150681
v -0.16866684 -0.48838562 -0.44861716
v -0.17582268 -0.49484771 -0.43540388
v -0.16246513 -0.50284994 -0.44268468
v -0.16192843 -0.50408858 -0.44209141
v -0.17820795 -0.50408858 -0.42402431
v -0.18083176 -0.50408858 -0.42100415
v -0.15954316 -0.45941618 -0.47962785
v -0.16580451 -0.46999350 -0.46587527
v 0.07642036 -0.50408858 -0.60291559
v 0.06992049 -0.50253212 -0.60178304
v 0.05984268 -0.50002229 -0.60000324
v 0.06992049 -0.48999095 -0.60987276
v 0.05036121 -0.44987381 -0.62384105
v 0.04994378 -0.43001488 -0.63187683
v 0.05191164 -0.48942867 -0.60340095
v 0.03664587 -0.48237985 -0.60145938
v 0.05036121 -0.46921119 -0.61434907
v 0.04398059 -0.45644999 -0.61834002
v 0.06121422 -0.42083919 -0.63958907
v -0.18107027 -0.42083919 -0.48032895
v -0.18059322 -0.42126292 -0.48065254
v -0.16872647 -0.42777392 -0.48885015
v -0.15680009 -0.43427676 -0.49704775
v -0.14344254 -0.44544894 -0.50314206
v -0.15155247 -0.45243257 -0.49143887
v -0.15566708 -0.46999350 -0.47585261
v -0.14135543 -0.48166275 -0.48129973
v -0.14869015 -0.48845896 -0.46878758
v -0.15602487 -0.49525514 -0.45600578
v -0.14385995 -0.50408858 -0.46042818
v -0.13914904 -0.45878059 -0.49925897
v -0.14570855 -0.46999350 -0.48539853
v 0.06992049 -0.50408858 -0.60065043
v 0.06318208 -0.50408858 -0.59816957
v 0.05608588 -0.50408858 -0.59536517
v 0.02996709 -0.50408858 -0.58398557
v 0.04654477 -0.49571151 -0.59719884
v 0.03676514 -0.44311833 -0.62136018
v 0.03002673 -0.42967263 -0.62378711
v 0.03002673 -0.42083919 -0.62696910
v 0.04934747 -0.42083919 -0.63489699
v 0.02996709 -0.48942867 -0.59390897
v 0.02334795 -0.47722974 -0.59843922
v 0.02996709 -0.47033575 -0.60512674
v 0.01571507 -0.46389809 -0.60205269
v 0.03002673 -0.44987381 -0.61526591
v -0.16055690 -0.42083919 -0.50039154
v -0.15006168 -0.42857251 -0.50605434
v -0.13676375 -0.43001488 -0.51721817
v -0.12263099 -0.44399029 -0.52217990
v -0.13086019 -0.45138949 -0.51080030
v -0.13485554 -0.46999350 -0.49537587
v -0.12066314 -0.48086417 -0.50066119
v -0.12817676 -0.48792925 -0.48836476
v -0.13563076 -0.49499437 -0.47596049
v -0.14266732 -0.50294775 -0.46263939
v -0.14213063 -0.50408858 -0.46215397
v -0.11803933 -0.45732191 -0.51840472
v -0.12489700 -0.46999350 -0.50427461
v 0.02764145 -0.50408858 -0.58296084
v 0.01827923 -0.50115496 -0.58080357
v 0.02340759 -0.43611026 -0.61844790
v 0.01768292 -0.42277864 -0.62103659
v 0.01672881 -0.42083919 -0.62125230
v 0.01094452 -0.48963240 -0.58457881
v -0.00324789 -0.48273027 -0.58172041
v 0.00939408 -0.47033575 -0.59536517
v 0.00235751 -0.45744416 -0.59876281
v 0.00939408 -0.45046866 -0.60539639
v -0.13938756 -0.42083919 -0.51948333
v -0.13819492 -0.42083919 -0.52050805
v -0.12674560 -0.43001488 -0.52568543
v -0.11452105 -0.43001488 -0.53566283
v -0.10110387 -0.44158635 -0.54078633
v -0.10957161 -0.44945005 -0.52967644
v -0.11088350 -0.47159067 -0.51516879
v -0.09943417 -0.47933215 -0.51953727
v -0.10879639 -0.48851600 -0.50481391
v -0.11469994 -0.49419579 -0.49542981
v -0.12227320 -0.50241804 -0.48210871
v -0.14034167 -0.50408858 -0.46382588
v -0.09633332 -0.45491800 -0.53711897
v -0.10474142 -0.46600053 -0.52379787
v 0.02078377 -0.50408858 -0.57972497
v 0.01553617 -0.50408858 -0.57713628
v -0.01052298 -0.50408858 -0.56306010
v 0.00492169 -0.49606189 -0.57735199
v 0.01058672 -0.42967263 -0.61488837
v -0.00360568 -0.44411251 -0.60183692
v 0.00712807 -0.42083919 -0.61650634
v 0.01482058 -0.42083919 -0.62033546
v -0.00992666 -0.48963240 -0.57336104
v -0.02835292 -0.48861378 -0.56338370
v -0.01654580 -0.47658595 -0.57799911
v -0.00992666 -0.46994460 -0.58533382
v -0.02310532 -0.46325433 -0.58177435
v -0.01016518 -0.45046866 -0.59525728
v -0.11714486 -0.42083919 -0.53776616
v -0.11410363 -0.42083919 -0.54013914
v -0.10456252 -0.43001488 -0.54342896
v -0.08965454 -0.43066680 -0.55416137
v -0.07856300 -0.43776450 -0.55896127
v -0.07415024 -0.45001233 -0.55588716
v -0.08977380 -0.44895297 -0.54515481
v -0.10140203 -0.50134242 -0.50114655
v -0.09120497 -0.47150919 -0.53091681
v -0.07742999 -0.47701785 -0.53808975
v -0.08613626 -0.48647875 -0.52476859
v -0.07981527 -0.49981040 -0.51986086
v -0.09168202 -0.49188149 -0.51630133
v -0.11857602 -0.50408858 -0.48388845
v -0.12143835 -0.50408858 -0.48135364
v -0.12394290 -0.50408858 -0.47908852
v -0.08297577 -0.46368623 -0.54213464
v -0.01773844 -0.50408858 -0.55896127
v -0.02048151 -0.50037265 -0.56025565
v -0.01016518 -0.42950964 -0.60437173
v -0.01690359 -0.43584135 -0.59822351
v -0.02179341 -0.42250973 -0.60097402
v -0.00938997 -0.42083919 -0.60798514
v -0.03383906 -0.49436691 -0.55604899
v -0.04105452 -0.48103529 -0.56063318
v -0.02990335 -0.46994460 -0.57390034
v -0.03646287 -0.45559433 -0.57778341
v -0.02990335 -0.44936043 -0.58463275
v -0.10754412 -0.42083919 -0.54504693
v -0.09305356 -0.42083919 -0.55577934
v -0.08625552 -0.42083919 -0.56079495
v -0.08273724 -0.42443287 -0.56181967
v -0.07116865 -0.43066680 -0.56699711
v -0.04171047 -0.44226271 -0.58101934
v -0.06419171 -0.45001233 -0.56273651
v -0.06031564 -0.46036962 -0.56014776
v -0.10408547 -0.50408858 -0.49640059
v -0.09669111 -0.50408858 -0.50254881
v -0.09991123 -0.50408858 -0.49990612
v -0.06884300 -0.46868151 -0.54919964
v -0.05441207 -0.47368497 -0.55621076
v -0.06413208 -0.48417261 -0.54283571
v -0.07194386 -0.49199557 -0.53145611
v -0.05739367 -0.49750426 -0.53814363
v -0.07033379 -0.50408858 -0.52336639
v -0.07695294 -0.50408858 -0.51840472
v -0.02399980 -0.50408858 -0.55513215
v -0.04373796 -0.50408858 -0.54251212
v -0.04409575 -0.50350183 -0.54272783
v -0.02912814 -0.42950964 -0.59385502
v -0.02364200 -0.42083919 -0.60048866
v -0.02233010 -0.42083919 -0.60124367
v -0.04588471 -0.43001488 -0.58360803
v -0.03205010 -0.42083919 -0.59541905
v -0.04922410 -0.48926568 -0.54941535
v -0.04862778 -0.46820888 -0.56322187
v -0.04898557 -0.44936043 -0.57292956
v -0.08375098 -0.42083919 -0.56257468
v -0.05882484 -0.42083919 -0.57918566
v -0.05584324 -0.43001488 -0.57729805
v -0.05459097 -0.50408858 -0.53474599
v -0.05715514 -0.42083919 -0.58026427
f 1 2 5
f 1 5 13
f 1 13 23
f 1 23 48
f 1 48 41
f 1 41 17
f 1 17 15
f 1 15 7
f 1 7 3
f 1 3 4
f 1 4 11
f 1 11 21
f 1 21 45
f 1 45 77
f 1 77 106
f 1 106 107
f 1 107 132
f 1 132 131
f 1 131 156
f 1 156 183
f 1 183 182
f 1 182 208
f 1 208 230
f 1 230 229
f 1 229 253
f 1 253 280
f 1 280 279
f 1 279 309
f 1 309 338
f 1 338 337
f 1 337 340
f 1 340 348
f 1 348 345
f 1 345 344
f 1 344 317
f 1 317 316
f 1 316 315
f 1 315 288
f 1 288 287
f 1 287 260
f 1 260 259
f 1 259 236
f 1 236 209
f 1 209 184
f 1 184 158
f 1 158 136
f 1 136 135
f 1 135 134
f 1 134 111
f 1 111 110
f 1 110 82
f 1 82 52
f 1 52 25
f 1 25 14
f 1 14 6
f 1 6 2
f 2 6 5
f 3 7 8
f 3 8 9
f 3 9 10
f 3 10 4
f 4 10 11
f 5 12 22
f 5 22 47
f 5 47 79
f 5 79 98
f 5 98 68
f 5 68 36
f 5 36 35
f 5 35 67
f 5 67 66
f 5 66 65
f 5 65 97
f 5 97 96
f 5 96 95
f 5 95 94
f 5 94 123
f 5 123 147
f 5 147 146
f 5 146 172
f 5 172 171
f 5 171 170
f 5 170 195
f 5 195 194
f 5 194 193
f 5 193 219
f 5 219 246
f 5 246 270
f 5 270 302
f 5 302 301
f 5 301 300
f 5 300 323
f 5 323 325
f 5 325 324
f 5 324 332
f 5 332 331
f 5 331 347
f 5 347 334
f 5 334 333
f 5 333 304
f 5 304 275
f 5 275 274
f 5 274 273
f 5 273 249
f 5 249 225
f 5 225 224
f 5 224 223
f 5 223 222
f 5 222 198
f 5 198 180
f 5 180 174
f 5 174 173
f 5 173 148
f 5 148 133
f 5 133 109
f 5 109 80
f 5 80 51
f 5 51 24
f 5 24 13
f 5 6 12
f 6 14 38
f 6 38 69
f 6 69 99
f 6 99 108
f 6 108 78
f 6 78 46
f 6 46 22
f 6 22 12
f 7 15 8
f 8 16 9
f 8 15 17
f 8 17 16
f 9 16 18
f 9 18 19
f 9 19 20
f 9 20 10
f 10 20 21
f 10 21 11
f 13 24 23
f 14 25 26
f 14 26 27
f 14 27 28
f 14 28 29
f 14 29 30
f 14 30 31
f 14 31 32
f 14 32 33
f 14 33 34
f 14 34 35
f 14 35 36
f 14 36 37
f 14 37 38
f 16 39 40
f 16 40 18
f 16 17 39
f 17 41 39
f 18 40 42
f 18 42 19
f 19 42 43
f 19 43 44
f 19 44 20
f 20 44 21
f 21 44 45
f 22 46 47
f 23 24 49
f 23 49 50
f 23 50 48
f 24 51 49
f 25 52 53
f 25 53 26
f 26 53 54
f 26 54 27
f 27 55 29
f 27 29 28
f 27 54 56
f 27 56 57
f 27 57 55
f 29 55 58
f 29 58 59
f 29 59 60
f 29 60 30
f 30 60 31
f 31 60 61
f 31 61 62
f 31 62 63
f 31 63 64
f 31 64 32
f 32 64 33
f 33 64 63
f 33 63 65
f 33 65 66
f 33 66 67
f 33 67 34
f 34 67 35
f 36 68 37
f 37 69 38
f 37 68 69
f 39 41 50
f 39 50 70
f 39 70 40
f 40 70 71
f 40 71 72
f 40 72 42
f 41 48 50
f 42 72 73
f 42 73 74
f 42 74 43
f 43 75 44
f 43 74 76
f 43 76 75
f 44 75 45
f 45 75 77
f 46 78 79
f 46 79 47
f 49 51 80
f 49 80 81
f 49 81 70
f 49 70 50
f 52 82 53
f 53 82 83
f 53 83 54
f 54 83 56
f 55 57 58
f 56 83 84
f 56 84 85
f 56 85 86
f 56 86 57
f 57 86 58
f 58 86 85
f 58 85 87
f 58 87 88
f 58 88 89
f 58 89 90
f 58 90 59
f 59 90 61
f 59 61 60
f 61 90 91
f 61 91 92
f 61 92 93
f 61 93 62
f 62 93 63
f 63 93 94
f 63 94 95
f 63 95 96
f 63 96 97
f 63 97 65
f 68 98 69
f 69 98 99
f 70 81 71
f 71 100 101
f 71 101 72
f 71 81 100
f 72 101 73
f 73 102 74
f 73 101 103
f 73 103 102
f 74 102 104
f 74 104 105
f 74 105 76
f 75 76 106
f 75 106 77
f 76 105 107
f 76 107 106
f 78 108 98
f 78 98 79
f 80 109 81
f 81 109 100
f 82 110 83
f 83 110 111
f 83 111 112
f 83 112 84
f 84 112 85
f 85 112 113
f 85 113 114
f 85 114 115
f 85 115 87
f 87 115 88
f 88 116 89
f 88 115 117
f 88 117 118
f 88 118 116
f 89 116 90
f 90 116 91
f 91 116 119
f 91 119 120
f 91 120 121
f 91 121 92
f 92 121 122
f 92 122 93
f 93 122 120
f 93 120 94
f 94 120 123
f 98 108 99
f 100 109 124
f 100 124 125
f 100 125 101
f 101 125 103
f 102 126 127
f 102 127 104
f 102 103 126
f 103 125 128
f 103 128 126
f 104 127 129
f 104 129 105
f 105 129 130
f 105 130 131
f 105 131 132
f 105 132 107
f 109 133 124
f 111 134 112
f 112 134 135
f 112 135 113
f 113 136 137
f 113 137 114
f 113 135 136
f 114 137 138
f 114 138 139
f 114 139 140
f 114 140 117
f 114 117 115
f 116 118 141
f 116 141 142
f 116 142 119
f 117 140 143
f 117 143 144
f 117 144 118
f 118 144 141
f 119 142 145
f 119 145 120
f 120 122 121
f 120 145 146
f 120 146 147
f 120 147 123
f 124 133 148
f 124 148 149
f 124 149 125
f 125 149 128
f 126 128 150
f 126 150 151
f 126 151 127
f 127 152 129
f 127 151 153
f 127 153 152
f 128 149 154
f 128 154 150
f 129 152 155
f 129 155 130
f 130 156 131
f 130 155 157
f 130 157 156
f 136 158 137
f 137 158 138
f 138 159 139
f 138 158 159
f 139 160 161
f 139 161 162
f 139 162 143
f 139 143 140
f 139 159 160
f 141 144 143
f 141 143 163
f 141 163 164
f 141 164 165
f 141 165 166
f 141 166 167
f 141 167 145
f 141 145 142
f 143 162 168
f 143 168 169
f 143 169 163
f 145 167 166
f 145 166 170
f 145 170 171
f 145 171 172
f 145 172 146
f 148 173 149
f 149 173 174
f 149 174 154
f 150 154 175
f 150 175 176
f 150 176 151
f 151 176 153
f 152 153 177
f 152 177 155
f 153 178 179
f 153 179 177
f 153 176 178
f 154 174 180
f 154 180 175
f 155 177 181
f 155 181 182
f 155 182 157
f 156 157 183
f 157 182 183
f 158 184 159
f 159 184 160
f 160 184 185
f 160 185 186
f 160 186 161
f 161 186 187
f 161 187 168
f 161 168 162
f 163 169 164
f 164 166 165
f 164 169 168
f 164 168 188
f 164 188 189
f 164 189 190
f 164 190 191
f 164 191 166
f 166 191 192
f 166 192 193
f 166 193 194
f 166 194 195
f 166 195 170
f 168 187 196
f 168 196 197
f 168 197 188
f 175 180 198
f 175 198 199
f 175 199 200
f 175 200 201
f 175 201 176
f 176 201 178
f 177 179 202
f 177 202 203
f 177 203 181
f 178 201 204
f 178 204 205
f 178 205 206
f 178 206 179
f 179 206 207
f 179 207 202
f 181 203 208
f 181 208 182
f 184 209 210
f 184 210 185
f 185 210 186
f 186 210 211
f 186 211 212
f 186 212 187
f 187 212 213
f 187 213 214
f 187 214 196
f 188 197 189
f 189 197 215
f 189 215 216
f 189 216 217
f 189 217 218
f 189 218 190
f 190 218 192
f 190 192 191
f 192 218 219
f 192 219 193
f 196 214 220
f 196 220 221
f 196 221 215
f 196 215 197
f 198 222 199
f 199 222 200
f 200 223 224
f 200 224 225
f 200 225 226
f 200 226 204
f 200 204 201
f 200 222 223
f 202 207 227
f 202 227 203
f 203 227 228
f 203 228 229
f 203 229 230
f 203 230 208
f 204 226 205
f 205 226 231
f 205 231 232
f 205 232 233
f 205 233 206
f 206 233 207
f 207 233 234
f 207 234 235
f 207 235 227
f 209 236 210
f 210 236 211
f 211 236 212
f 212 237 238
f 212 238 213
f 212 236 237
f 213 238 239
f 213 239 240
f 213 240 220
f 213 220 214
f 215 221 216
f 216 220 241
f 216 241 242
f 216 242 243
f 216 243 244
f 216 244 217
f 216 221 220
f 217 244 245
f 217 245 218
f 218 245 219
f 219 245 246
f 220 240 247
f 220 247 248
f 220 248 242
f 220 242 241
f 225 249 226
f 226 249 250
f 226 250 231
f 227 235 251
f 227 251 228
f 228 251 252
f 228 252 229
f 229 252 253
f 231 250 254
f 231 254 232
f 232 254 255
f 232 255 256
f 232 256 234
f 232 234 233
f 234 256 257
f 234 257 258
f 234 258 235
f 235 258 251
f 236 259 237
f 237 259 238
f 238 259 260
f 238 260 261
f 238 261 239
f 239 262 263
f 239 263 264
f 239 264 247
f 239 247 240
f 239 261 262
f 242 248 265
f 242 265 266
f 242 266 267
f 242 267 268
f 242 268 243
f 243 268 269
f 243 269 244
f 244 269 245
f 245 269 270
f 245 270 246
f 247 264 271
f 247 271 272
f 247 272 265
f 247 265 248
f 249 273 250
f 250 273 274
f 250 274 275
f 250 275 276
f 250 276 254
f 251 277 252
f 251 258 278
f 251 278 277
f 252 277 279
f 252 279 280
f 252 280 253
f 254 276 255
f 255 281 282
f 255 282 283
f 255 283 284
f 255 284 256
f 255 276 281
f 256 284 257
f 257 284 285
f 257 285 286
f 257 286 278
f 257 278 258
f 260 287 261
f 261 287 262
f 262 287 288
f 262 288 289
f 262 289 263
f 263 289 290
f 263 290 291
f 263 291 292
f 263 292 293
f 263 293 271
f 263 271 264
f 265 272 266
f 266 294 267
f 266 272 295
f 266 295 296
f 266 296 297
f 266 297 298
f 266 298 299
f 266 299 294
f 267 294 268
f 268 294 269
f 269 294 300
f 269 300 301
f 269 301 302
f 269 302 270
f 271 293 303
f 271 303 272
f 272 303 295
f 275 304 305
f 275 305 276
f 276 305 281
f 277 278 306
f 277 306 279
f 278 286 307
f 278 307 306
f 279 306 308
f 279 308 309
f 281 305 282
f 282 310 311
f 282 311 283
f 282 305 310
f 283 285 284
f 283 311 312
f 283 312 285
f 285 312 313
f 285 313 314
f 285 314 286
f 286 314 307
f 288 315 289
f 289 315 316
f 289 316 290
f 290 316 317
f 290 317 318
f 290 318 291
f 291 318 319
f 291 319 320
f 291 320 321
f 291 321 292
f 292 303 293
f 292 321 322
f 292 322 303
f 294 323 300
f 294 299 298
f 294 298 324
f 294 324 325
f 294 325 323
f 295 303 296
f 296 303 326
f 296 326 327
f 296 327 328
f 296 328 329
f 296 329 297
f 297 329 298
f 298 329 330
f 298 330 331
f 298 331 332
f 298 332 324
f 303 322 326
f 304 333 305
f 305 333 334
f 305 334 335
f 305 335 310
f 306 307 308
f 307 314 320
f 307 320 336
f 307 336 308
f 308 337 338
f 308 338 309
f 308 336 339
f 308 339 340
f 308 340 337
f 310 335 330
f 310 330 341
f 310 341 311
f 311 341 328
f 311 328 327
f 311 327 342
f 311 342 312
f 312 342 313
f 313 320 314
f 313 342 322
f 313 322 343
f 313 343 320
f 317 344 318
f 318 344 345
f 318 345 319
f 319 345 346
f 319 346 320
f 320 343 321
f 320 346 339
f 320 339 336
f 321 343 322
f 322 342 327
f 322 327 326
f 328 341 330
f 328 330 329
f 330 335 334
f 330 334 347
f 330 347 331
f 339 346 348
f 339 348 340
f 345 348 346
