v 0.38999423 0.46208107 -0.88998812
v 0.42998010 0.46200031 -0.86997080
v 0.43325555 0.46187916 -0.86997080
v 0.40892372 0.46131381 -0.88994837
v 0.36995876 0.46143496 -0.90658301
v 0.32997286 0.46119267 -0.92365545
v 0.28998697 0.46163687 -0.92998302
v 0.26999402 0.46175802 -0.92998302
v 0.19002225 0.46163687 -0.94996053
v 0.05002908 0.46151572 -0.96997786
v -0.00127196 0.46151572 -0.96997786
v 0.43325555 0.46111190 -0.85373408
v 0.43325555 0.46074846 -0.88230753
v 0.42998010 0.46095037 -0.88294429
v 0.38999423 0.46090999 -0.90244424
v 0.34575450 0.46062732 -0.92150652
v 0.28998697 0.46050617 -0.94120544
v 0.26999402 0.46111190 -0.94327486
v 0.24995854 0.46127343 -0.94578195
v 0.21001519 0.46155611 -0.94996053
v 0.07002203 0.46147534 -0.96997786
v 0.01000066 0.46090999 -0.98215544
v -0.00127196 0.46090999 -0.98215544
v -0.00127196 0.46054655 -0.95803910
v 0.43325555 0.45893127 -0.84386474
v 0.43325555 0.45420659 -0.89225650
v 0.42998010 0.45509499 -0.89293307
v 0.41487908 0.45852745 -0.89655447
v 0.40152207 0.46030426 -0.90057385
v 0.35911149 0.45986006 -0.91939729
v 0.30053642 0.46006197 -0.94013095
v 0.22281918 0.46022350 -0.96042687
v 0.21001519 0.46062732 -0.96134216
v 0.19002225 0.46103114 -0.96261561
v 0.17002930 0.46123305 -0.96388912
v 0.09001498 0.46139458 -0.96997786
v 0.03003615 0.46086961 -0.98199624
v 0.01000066 0.45444888 -0.99214423
v -0.00127196 0.45448923 -0.99214423
v -0.00127196 0.45812362 -0.98649317
v -0.00127196 0.45735639 -0.94805038
v 0.43325555 0.45339894 -0.83009535
v 0.43325555 0.44411105 -0.90308100
v 0.42998010 0.44508022 -0.90383708
v 0.40807295 0.44972417 -0.90901059
v 0.38999423 0.45412582 -0.91247284
v 0.36995876 0.45832556 -0.91657180
v 0.32997286 0.44617054 -0.94462788
v 0.36995876 0.44831079 -0.92703813
v 0.26999402 0.44604939 -0.96432686
v 0.26999402 0.45602375 -0.95330340
v 0.24995854 0.45844668 -0.95577073
v 0.23613364 0.45953700 -0.95811868
v 0.30832091 0.45121831 -0.94661772
v 0.19002225 0.44503987 -0.98334932
v 0.19002225 0.45505458 -0.97264421
v 0.17002930 0.45699292 -0.97391766
v 0.11770733 0.45986006 -0.97921050
v 0.24995854 0.44847232 -0.96695340
v 0.10439289 0.46018311 -0.98032480
v 0.09001498 0.46042541 -0.98080236
v 0.07002203 0.46066770 -0.98135948
v 0.05002908 0.46078885 -0.98171765
v 0.01000066 0.44447452 -1.00284934
v 0.03003615 0.45412582 -0.99198502
v -0.00127196 0.44447452 -1.00288904
v -0.00127196 0.45230860 -0.93782282
v 0.43325555 0.44439375 -0.81334126
v -0.00127196 0.44843194 -0.92998302
v 0.43325555 0.42997736 -0.90749836
v 0.40126684 0.44092089 -0.92055142
v 0.38999423 0.44411105 -0.92289937
v 0.34507391 0.44285923 -0.94188201
v 0.29977074 0.43954790 -0.95990956
v 0.28645629 0.44298035 -0.96193910
v 0.22150050 0.44055742 -0.98032480
v 0.21001519 0.44237465 -0.98147887
v 0.10047937 0.44007283 -1.00002384
v 0.17002930 0.44701856 -0.98510033
v 0.15003635 0.44843194 -0.98669219
v 0.13000086 0.44940111 -0.98812479
v 0.07002203 0.44245541 -1.00145638
v 0.07002203 0.45247012 -0.99134827
v 0.05002908 0.45347971 -0.99174625
v 0.01000066 0.42997736 -1.00738597
v 0.03003615 0.44411105 -1.00261045
v -0.00127196 0.42997736 -1.00738597
v 0.43325555 0.43672115 -0.80347186
v -0.00127196 0.44427258 -0.92361569
v -0.00127196 0.44108242 -0.91876060
v 0.43325555 0.40998822 -0.90861261
v 0.42998010 0.42997736 -0.90909016
v 0.41334769 0.42997736 -0.91692996
v 0.40335122 0.42997736 -0.92150652
v 0.38999423 0.42997736 -0.92727691
v 0.35843089 0.43591350 -0.93937486
v 0.30253571 0.42622179 -0.96082485
v 0.29185864 0.43171376 -0.96337175
v 0.26999402 0.42997736 -0.97001767
v 0.24995854 0.42997736 -0.97535032
v 0.32997286 0.42997736 -0.95075643
v 0.30951199 0.43171376 -0.95768094
v 0.23528287 0.42997736 -0.97889215
v 0.22528639 0.42997736 -0.98116052
v 0.21001519 0.42997736 -0.98434418
v 0.19002225 0.42997736 -0.98816460
v 0.17002930 0.42997736 -0.99166667
v 0.10830639 0.42892742 -1.00074005
v 0.09001498 0.42997736 -1.00261045
v 0.07002203 0.42997736 -1.00444114
v 0.09001498 0.44100165 -1.00058091
v 0.15003635 0.42997736 -0.99489009
v 0.11379382 0.43490395 -0.99918807
v 0.05002908 0.42997736 -1.00583398
v 0.03003615 0.42997736 -1.00682890
v 0.05002908 0.44346493 -1.00213289
v 0.01000066 0.40998822 -1.00901771
v -0.00127196 0.42129520 -1.00810230
v 0.43325555 0.42674679 -0.79372191
v -0.00127196 0.43486357 -0.91306978
v 0.43325555 0.38999909 -0.90781671
v 0.42998010 0.38999909 -0.90944833
v 0.42998010 0.40998822 -0.91020447
v 0.41466635 0.40998822 -0.91752690
v 0.38999423 0.40998822 -0.92855036
v 0.40466988 0.40998822 -0.92210340
v 0.36851245 0.42953312 -0.93623096
v 0.36085558 0.42258742 -0.94032991
v 0.35102925 0.42953312 -0.94307590
v 0.30364174 0.40998822 -0.96118301
v 0.28998697 0.40998822 -0.96540135
v 0.26999402 0.40998822 -0.97125137
v 0.32997286 0.40998822 -0.95218909
v 0.31363821 0.40998822 -0.95787990
v 0.24995854 0.40998822 -0.97662377
v 0.23817547 0.40998822 -0.97956872
v 0.22817899 0.40998822 -0.98183703
v 0.21001519 0.40998822 -0.98569727
v 0.19002225 0.40998822 -0.98959726
v 0.17002930 0.40998822 -0.99317890
v 0.12162085 0.42157787 -1.00018299
v 0.09001498 0.40998822 -1.00408292
v 0.07002203 0.40998822 -1.00599313
v 0.05002908 0.40998822 -1.00746560
v 0.12897995 0.42892742 -0.99807376
v 0.03003615 0.40998822 -1.00846052
v 0.01000066 0.38999909 -1.00846052
v -0.00127196 0.40130609 -1.00881863
v -0.00127196 0.40998822 -1.00901771
v 0.03003615 0.38999909 -1.00798297
v 0.43325555 0.41350144 -0.78305662
v -0.00127196 0.43005812 -0.90873200
v -0.00127196 0.42008373 -0.89989734
v 0.43325555 0.38495135 -0.90745854
v 0.42998010 0.36996961 -0.90801567
v 0.41245437 0.36996961 -0.91649222
v 0.41394323 0.38999909 -0.91716874
v 0.40394676 0.38999909 -0.92178506
v 0.38999423 0.38999909 -0.92791361
v 0.37055427 0.38999909 -0.93611157
v 0.37123489 0.40998822 -0.93642998
v 0.36123842 0.40998822 -0.94048911
v 0.34996581 0.40998822 -0.94478709
v 0.30274841 0.38999909 -0.96086460
v 0.28998697 0.38999909 -0.96480441
v 0.26999402 0.38999909 -0.97061461
v 0.24995854 0.38999909 -0.97602689
v 0.34996581 0.38999909 -0.94426972
v 0.32997286 0.38999909 -0.95163196
v 0.31274489 0.38999909 -0.95756155
v 0.23694186 0.38999909 -0.97929013
v 0.22690284 0.38999909 -0.98155850
v 0.21001519 0.38999909 -0.98521972
v 0.19002225 0.38999909 -0.98915946
v 0.17002930 0.38999909 -0.99278092
v 0.15003635 0.40998822 -0.99640238
v 0.13259569 0.40998822 -0.99894929
v 0.12259922 0.40998822 -1.00034213
v 0.11000793 0.40998822 -1.00185442
v 0.09001498 0.38999909 -1.00372481
v 0.07002203 0.38999909 -1.00559521
v 0.05002908 0.38999909 -1.00702786
v 0.01000066 0.36996961 -1.00710750
v -0.00127196 0.38999909 -1.00850034
v 0.03003615 0.36996961 -1.00666964
v 0.05002908 0.36996961 -1.00575435
v 0.43325555 0.40595001 -0.77792293
v -0.00127196 0.41438985 -0.89643508
v 0.43325555 0.40449625 -0.77696782
v 0.43325555 0.36996961 -0.90638405
v 0.43325555 0.36411420 -0.90582693
v 0.42998010 0.34998047 -0.90610546
v 0.40862596 0.34897092 -0.91633302
v 0.40105414 0.35494748 -0.92047179
v 0.40245789 0.36996961 -0.92110854
v 0.38999423 0.36996961 -0.92664015
v 0.36800200 0.37186754 -0.93611157
v 0.36000481 0.37982282 -0.93997180
v 0.36055779 0.38999909 -0.94021058
v 0.30134466 0.37376553 -0.96042687
v 0.29190117 0.36823317 -0.96289420
v 0.26999402 0.36996961 -0.96938097
v 0.24995854 0.36996961 -0.97475338
v 0.35124195 0.37186754 -0.94275749
v 0.32997286 0.36996961 -0.95043808
v 0.30878884 0.36823317 -0.95756155
v 0.23421942 0.36996961 -0.97865337
v 0.22418040 0.36996961 -0.98096156
v 0.21001519 0.36996961 -0.98398602
v 0.19002225 0.36996961 -0.98796564
v 0.17002930 0.36996961 -0.99162686
v 0.15003635 0.36996961 -0.99489009
v 0.15003635 0.38999909 -0.99600440
v 0.12183354 0.39395654 -1.00022280
v 0.09001498 0.36996961 -1.00257075
v 0.11187960 0.38834345 -1.00121760
v 0.11979171 0.38059008 -0.99994421
v 0.10668994 0.36996961 -1.00077987
v 0.07002203 0.36996961 -1.00440133
v 0.01000066 0.34998047 -1.00523710
v -0.00127196 0.36128744 -1.00631154
v -0.00127196 0.36996961 -1.00710750
v -0.00127196 0.38127658 -1.00790334
v 0.03003615 0.34998047 -1.00479925
v 0.05002908 0.34998047 -1.00396359
v 0.07002203 0.34998047 -1.00265026
v -0.00127196 0.40998822 -0.89376879
v 0.43325555 0.39064521 -0.76876986
v 0.43325555 0.34998047 -0.90447384
v 0.43325555 0.34666914 -0.90415549
v 0.40998715 0.32999134 -0.91354734
v 0.39960784 0.34162140 -0.91983509
v 0.39178082 0.34897092 -0.92397386
v 0.36995876 0.34998047 -0.93344527
v 0.35872865 0.36649674 -0.93949425
v 0.29985583 0.36039907 -0.95994931
v 0.28824291 0.34998047 -0.96241665
v 0.26999402 0.34998047 -0.96766973
v 0.24995854 0.34998047 -0.97304213
v 0.34686053 0.34998047 -0.94259834
v 0.32997286 0.34998047 -0.94876671
v 0.30997992 0.34998047 -0.95565134
v 0.22898722 0.34949589 -0.97809625
v 0.22171319 0.35583588 -0.98036462
v 0.21133387 0.34949589 -0.98195642
v 0.19002225 0.34998047 -0.98629421
v 0.17002930 0.34998047 -0.98995543
v 0.15003635 0.34998047 -0.99329829
v 0.13000086 0.36996961 -0.99783498
v 0.12910756 0.38834345 -0.99898911
v 0.10247867 0.35692620 -1.00026250
v 0.08992991 0.35014200 -1.00089931
v 0.11668642 0.36996961 -0.99958599
v 0.01000066 0.32999134 -1.00300848
v -0.00127196 0.34129834 -1.00428200
v -0.00127196 0.34998047 -1.00523710
v 0.03003615 0.32999134 -1.00257075
v 0.06819290 0.33039516 -1.00066054
v 0.06032333 0.31981507 -0.99998397
v 0.05002908 0.32999134 -1.00173497
v 0.08320887 0.33734089 -1.00030231
v -0.00127196 0.39197782 -0.88385957
v 0.43325555 0.38676852 -0.76662087
v 0.43325555 0.33378726 -0.90264326
v 0.43100104 0.33184892 -0.90351874
v 0.40998715 0.30996186 -0.91084123
v 0.39803395 0.32999134 -0.91911876
v 0.43325555 0.33019328 -0.90220547
v 0.42610914 0.30996186 -0.90304118
v 0.38803747 0.32999134 -0.92353606
v 0.36995876 0.32999134 -0.93125647
v 0.35685700 0.34998047 -0.93877792
v 0.29823938 0.34998047 -0.95947176
v 0.29475123 0.32999134 -0.95843709
v 0.28471223 0.32999134 -0.96138197
v 0.26999402 0.32999134 -0.96560031
v 0.24995854 0.32999134 -0.97093296
v 0.34405297 0.32999134 -0.94152379
v 0.32997286 0.32999134 -0.94665748
v 0.30997992 0.32999134 -0.95354217
v 0.22996560 0.32999134 -0.97578812
v 0.21882059 0.34250981 -0.97972786
v 0.20554867 0.32999134 -0.98112071
v 0.19002225 0.32999134 -0.98422480
v 0.17002930 0.32999134 -0.98788601
v 0.15003635 0.32999134 -0.99122888
v 0.13000086 0.34998047 -0.99620336
v 0.09652332 0.34360012 -0.99962580
v 0.10949747 0.35014200 -0.99882990
v 0.03003615 0.31492886 -1.00066054
v 0.01000066 0.31343472 -1.00089931
v -0.00127196 0.32280335 -1.00209320
v -0.00127196 0.32999134 -1.00300848
v 0.05002908 0.31787676 -1.00026250
v 0.07363778 0.32401481 -0.99950641
v 0.06819290 0.31190020 -0.99831253
v 0.05002908 0.30786198 -0.99890947
v 0.08992991 0.33039516 -0.99882990
v -0.00127196 0.38196307 -0.87904429
v 0.43325555 0.04953796 -0.60250264
v 0.43325555 0.36871776 -0.75746787
v 0.43325555 0.37606728 -0.76104945
v 0.40998715 0.28997272 -0.90765750
v 0.39505628 0.30996186 -0.91776568
v 0.42291880 0.28997272 -0.90144938
v 0.38505980 0.30996186 -0.92222279
v 0.43325555 0.30996186 -0.89945960
v 0.43325555 0.28997272 -0.89627588
v 0.36995876 0.30996186 -0.92866975
v 0.35404944 0.32999134 -0.93770343
v 0.28909367 0.30959842 -0.95752180
v 0.28181964 0.31597880 -0.96054626
v 0.30997992 0.30996186 -0.95099521
v 0.24995854 0.30996186 -0.96842587
v 0.27118510 0.30959842 -0.96269524
v 0.34167087 0.31533268 -0.94060850
v 0.33150423 0.30919459 -0.94343400
v 0.22996560 0.30996186 -0.97328091
v 0.21554515 0.32999134 -0.97905135
v 0.20189039 0.31706911 -0.98036462
v 0.19044763 0.31024453 -0.98167789
v 0.17002930 0.30996186 -0.98541868
v 0.15003635 0.30996186 -0.98876154
v 0.13000086 0.32999134 -0.99413395
v 0.11000793 0.32999134 -0.99664116
v 0.03003615 0.30491412 -0.99930745
v 0.01000066 0.30341995 -0.99950641
v -0.00127196 0.30907345 -1.00030231
v -0.00127196 0.31343472 -1.00089931
v 0.09001498 0.30996186 -0.99624318
v 0.07002203 0.28997272 -0.99496973
v 0.05002908 0.28997272 -0.99620336
v 0.11000793 0.30996186 -0.99417377
v -0.00127196 0.37517887 -0.87617898
v 0.43325555 0.04953796 -0.82424533
v -0.00127196 0.36996961 -0.87399018
v -0.00127196 0.04953796 -0.74258417
v 0.41088048 0.27075088 -0.90375751
v 0.38935614 0.28831708 -0.91692996
v 0.42074934 0.27793887 -0.90037489
v 0.38229483 0.29384941 -0.92098916
v 0.43325555 0.27087203 -0.89269429
v 0.42844874 0.27075088 -0.89512181
v 0.37183040 0.28831708 -0.92449117
v 0.34996581 0.28997272 -0.93360442
v 0.34898740 0.30919459 -0.93694729
v 0.27867180 0.30265272 -0.95963097
v 0.28998697 0.28997272 -0.95429832
v 0.32648474 0.28997272 -0.94231975
v 0.30997992 0.28997272 -0.94797075
v 0.26518720 0.28997272 -0.96146154
v 0.24995854 0.28997272 -0.96548092
v 0.33920366 0.30200660 -0.93969321
v 0.22996560 0.28997272 -0.97033608
v 0.21001519 0.28997272 -0.97475338
v 0.20912188 0.31024453 -0.97789729
v 0.19738135 0.30374300 -0.97948909
v 0.15003635 0.28997272 -0.98581666
v 0.18402436 0.29514164 -0.98076260
v 0.17105022 0.28908435 -0.98215544
v 0.13000086 0.30996186 -0.99166667
v 0.03003615 0.28997272 -0.99699926
v 0.01000066 0.28997272 -0.99739724
v -0.00127196 0.30341995 -0.99950641
v 0.09001498 0.28997272 -0.99329829
v 0.07002203 0.26998362 -0.99154723
v 0.05002908 0.26998362 -0.99274111
v 0.11000793 0.28997272 -0.99118912
v 0.13000086 0.28997272 -0.98872173
v 0.43019283 0.04953796 -0.82587695
v 0.43325555 0.05087057 -0.82480246
v -0.00127196 0.04953796 -0.93356466
v 0.40488261 0.25003487 -0.90232486
v 0.38999423 0.26998362 -0.91330856
v 0.41811198 0.26461279 -0.89910138
v 0.37978506 0.28052333 -0.91987485
v 0.43325555 0.26469356 -0.89142078
v 0.43325555 0.25003487 -0.88839632
v 0.36744899 0.26998362 -0.92309833
v 0.34996581 0.26998362 -0.93010241
v 0.33648121 0.28997272 -0.93873811
v 0.27518368 0.28997272 -0.95863605
v 0.28998697 0.26998362 -0.95087588
v 0.32278389 0.27454680 -0.94096667
v 0.31159636 0.26873177 -0.94375241
v 0.26157147 0.27749467 -0.96042687
v 0.25025630 0.27046821 -0.96213806
v 0.22996560 0.26998362 -0.96695340
v 0.21001519 0.26998362 -0.97141051
v 0.19044763 0.28908435 -0.97857380
v 0.16505232 0.27486986 -0.98088193
v 0.15092966 0.26893368 -0.98211563
v 0.13000086 0.26998362 -0.98533911
v 0.17840932 0.28181556 -0.97968805
v 0.03003615 0.26998362 -0.99353707
v 0.01000066 0.26998362 -0.99393499
v -0.00127196 0.28997272 -0.99739724
v 0.09001498 0.26998362 -0.98987579
v 0.11000793 0.26998362 -0.98780644
v 0.07002203 0.25003487 -0.98768705
v 0.09001498 0.25003487 -0.98605543
v 0.05002908 0.25003487 -0.98888093
v 0.41721866 0.06359091 -0.83857185
v 0.43325555 0.06617537 -0.83113003
v 0.41049764 0.04953796 -0.83614433
v -0.00127196 0.05002254 -0.93376362
v 0.00940512 0.04953796 -0.93360442
v 0.41487908 0.25003487 -0.89750957
v 0.40173477 0.23650689 -0.90081263
v 0.38999423 0.25003487 -0.90920955
v 0.37744546 0.26998362 -0.91887999
v 0.42998010 0.25003487 -0.89002794
v 0.43325555 0.24619858 -0.88752079
v 0.36268473 0.25003487 -0.92110854
v 0.34996581 0.25003487 -0.92612278
v 0.32967508 0.26873177 -0.93742484
v 0.26893055 0.27046821 -0.95708400
v 0.28998697 0.25003487 -0.94693607
v 0.26999402 0.25003487 -0.95282584
v 0.30585372 0.25003487 -0.94196159
v 0.31929576 0.26122072 -0.93977278
v 0.25706241 0.26416859 -0.95923299
v 0.24374796 0.25528455 -0.96094424
v 0.23094398 0.24918686 -0.96273506
v 0.21001519 0.25003487 -0.96762991
v 0.19002225 0.25003487 -0.97168911
v 0.19002225 0.26998362 -0.97542989
v 0.15820369 0.26154378 -0.97968805
v 0.17105022 0.26893368 -0.97877276
v 0.14488924 0.25621334 -0.98072278
v 0.12940533 0.24975221 -0.98159826
v 0.03003615 0.25003487 -0.98967683
v 0.01000066 0.25003487 -0.99007481
v -0.00127196 0.26130149 -0.99226356
v -0.00127196 0.26998362 -0.99393499
v 0.11000793 0.25003487 -0.98398602
v 0.08231556 0.21910222 -0.98020542
v 0.07002203 0.23000538 -0.98346865
v 0.08941944 0.22911698 -0.98171765
v 0.11000793 0.23537619 -0.98100138
v 0.05002908 0.23000538 -0.98466253
v 0.42232323 0.07691699 -0.84119838
v 0.42938459 0.07017319 -0.83479124
v 0.40390420 0.05531259 -0.84199429
v 0.41032749 0.07017319 -0.84470046
v 0.43325555 0.07033472 -0.83280146
v 0.40994465 0.04953796 -0.83642286
v -0.00127196 0.05769514 -0.93658912
v 0.01000066 0.04953796 -0.93360442
v -0.00127196 0.06355053 -0.93873811
v 0.43325555 0.23097456 -0.88397896
v 0.39833170 0.22318082 -0.89922082
v 0.39097261 0.22992462 -0.90415549
v 0.40900880 0.22992462 -0.89567894
v 0.36804453 0.23190334 -0.91474116
v 0.37268120 0.25003487 -0.91685039
v 0.36008990 0.23985860 -0.92003405
v 0.34966803 0.23190334 -0.92222279
v 0.32997286 0.23000538 -0.92914730
v 0.32997286 0.25003487 -0.93356466
v 0.30181259 0.23731454 -0.94060850
v 0.29019964 0.23040920 -0.94259834
v 0.26999402 0.23000538 -0.94848812
v 0.24995854 0.23000538 -0.95397997
v 0.25025630 0.24918686 -0.95803910
v 0.31585017 0.25003487 -0.93857896
v 0.23826054 0.24195847 -0.95959115
v 0.22494608 0.23481084 -0.96114320
v 0.19002225 0.23000538 -0.96751052
v 0.21112117 0.22891507 -0.96293402
v 0.17002930 0.25003487 -0.97539014
v 0.15092966 0.24975221 -0.97849417
v 0.13565844 0.24292764 -0.97940952
v 0.12230146 0.23864713 -0.98028505
v 0.03003615 0.23000538 -0.98545849
v 0.01000066 0.23000538 -0.98585641
v -0.00127196 0.25003487 -0.99007481
v 0.09567256 0.22184820 -0.97956872
v 0.08941944 0.21147001 -0.97777784
v 0.09001498 0.19002715 -0.97256458
v 0.07002203 0.20718952 -0.97829521
v 0.07002203 0.21716389 -0.98064315
v 0.11000793 0.22536144 -0.97881258
v 0.05002908 0.21470058 -0.98124015
v 0.42938459 0.09157568 -0.84314841
v 0.43325555 0.09420051 -0.84215349
v 0.43325555 0.08810282 -0.83980554
v 0.43325555 0.07982451 -0.83658206
v 0.40854087 0.09129301 -0.85373408
v 0.39173830 0.04953796 -0.84549636
v 0.39093006 0.04953796 -0.84589434
v 0.38939869 0.07029434 -0.85504735
v 0.39565182 0.08547799 -0.85795248
v 0.01000066 0.06355053 -0.93873811
v 0.03003615 0.06411588 -0.93853915
v 0.03003615 0.05002254 -0.93336570
v 0.03050406 0.04953796 -0.93316668
v -0.00127196 0.06920402 -0.94072789
v 0.43325555 0.22778437 -0.88318306
v 0.43117118 0.22972271 -0.88469529
v 0.39467341 0.21001627 -0.89754939
v 0.38467693 0.21001627 -0.90208608
v 0.40998715 0.21001627 -0.89022690
v 0.36995876 0.21001627 -0.90853304
v 0.35609129 0.22649214 -0.91844219
v 0.34277683 0.21562937 -0.92106873
v 0.30997992 0.21001627 -0.93141568
v 0.30908662 0.23040920 -0.93654931
v 0.33103630 0.20941053 -0.92385447
v 0.29700577 0.22398844 -0.93905646
v 0.28369132 0.21538708 -0.94108605
v 0.24995854 0.21001627 -0.94936359
v 0.27097240 0.20924900 -0.94335443
v 0.22996560 0.21001627 -0.95433807
v 0.23094398 0.22891507 -0.95843709
v 0.21852282 0.22148477 -0.95967078
v 0.20520838 0.21514478 -0.96114320
v 0.19074538 0.20908748 -0.96265543
v 0.17002930 0.21001627 -0.96675444
v 0.17002930 0.23000538 -0.97121155
v 0.15003635 0.23000538 -0.97455442
v 0.12940533 0.23117647 -0.97773808
v 0.13000086 0.21001627 -0.97292280
v 0.03003615 0.21304491 -0.98159826
v 0.01000066 0.21223727 -0.98179728
v -0.00127196 0.22229241 -0.98410541
v -0.00127196 0.23000538 -0.98585641
v 0.11000793 0.21001627 -0.97535032
v 0.11000793 0.19002715 -0.97057486
v 0.09001498 0.17003801 -0.96743095
v 0.07002203 0.19002715 -0.97411668
v 0.05002908 0.20468584 -0.97889215
v 0.40088400 0.09880407 -0.86041981
v 0.43325555 0.10667858 -0.84669024
v 0.37004381 0.04953796 -0.85568410
v 0.37672234 0.06383321 -0.85850960
v 0.38233736 0.07715929 -0.86109632
v 0.38939869 0.09129301 -0.86304635
v 0.01000066 0.07352489 -0.94224012
v 0.03003615 0.07413062 -0.94204116
v 0.05002908 0.07514018 -0.94168299
v 0.05002908 0.06516582 -0.93818098
v 0.05002908 0.04953796 -0.93245035
v -0.00127196 0.07356527 -0.94224012
v 0.43325555 0.21986948 -0.88119328
v 0.42530090 0.21001627 -0.88266569
v 0.41083795 0.19006753 -0.88445652
v 0.38871807 0.19079441 -0.89512181
v 0.38123137 0.19798240 -0.90053403
v 0.42181277 0.19677094 -0.88091469
v 0.37021399 0.19079441 -0.90335959
v 0.34996581 0.19002715 -0.91159731
v 0.34966803 0.20941053 -0.91681057
v 0.33843794 0.20230329 -0.91939729
v 0.32406005 0.19002715 -0.92146671
v 0.30997992 0.19002715 -0.92636156
v 0.28998697 0.19002715 -0.93284833
v 0.29019964 0.20924900 -0.93762386
v 0.27833152 0.20206100 -0.93949425
v 0.26497450 0.19430764 -0.94144422
v 0.25144738 0.18857339 -0.94371259
v 0.22996560 0.19002715 -0.94944322
v 0.21001519 0.19002715 -0.95401973
v 0.21112117 0.20908748 -0.95839727
v 0.19789180 0.20177832 -0.95955133
v 0.18453482 0.19652864 -0.96086460
v 0.16939121 0.18990600 -0.96201873
v 0.15003635 0.21001627 -0.97009730
v 0.13000086 0.19002715 -0.96814728
v 0.03003615 0.20307055 -0.97925031
v 0.01000066 0.20222253 -0.97944927
v -0.00127196 0.20787601 -0.98080236
v -0.00127196 0.21219689 -0.98179728
v 0.11000793 0.17003801 -0.96544117
v 0.13068148 0.16870540 -0.96261561
v 0.11000793 0.15481398 -0.96142179
v 0.09401356 0.14185134 -0.95947176
v 0.08839853 0.14912012 -0.96193910
v 0.07002203 0.15000853 -0.96361053
v 0.07002203 0.17003801 -0.96898299
v 0.05002908 0.19002715 -0.97527075
v 0.40475500 0.11003028 -0.86236978
v 0.41479397 0.11003028 -0.85735554
v 0.38999423 0.11003028 -0.86945349
v 0.42998010 0.11003028 -0.84955555
v 0.43325555 0.11003028 -0.84784430
v 0.36340785 0.05632214 -0.86153412
v 0.35047626 0.04953796 -0.86427999
v 0.35026357 0.04978025 -0.86447901
v 0.37004381 0.07029434 -0.86404121
v 0.36995876 0.09000078 -0.87148309
v 0.37089458 0.10821308 -0.87757182
v 0.01000066 0.09000078 -0.94781160
v 0.03003615 0.09000078 -0.94741362
v -0.00127196 0.09000078 -0.94781160
v 0.05002908 0.09000078 -0.94669729
v 0.07002203 0.07675546 -0.94112587
v 0.07002203 0.06678109 -0.93758404
v 0.07002203 0.04953796 -0.93129629
v 0.43325555 0.21001627 -0.87868613
v 0.40411690 0.17003801 -0.88202900
v 0.41806942 0.18340448 -0.87900448
v 0.38999423 0.17003801 -0.88863510
v 0.37706262 0.18465632 -0.89870346
v 0.43325555 0.20335323 -0.87689531
v 0.42908680 0.19006753 -0.87534326
v 0.36374816 0.17431852 -0.90160853
v 0.35158223 0.16862464 -0.90499121
v 0.32814372 0.17177445 -0.91497993
v 0.33405653 0.19002715 -0.91776568
v 0.32027414 0.17960857 -0.92007387
v 0.30895901 0.17177445 -0.92182487
v 0.30164242 0.15808493 -0.92055142
v 0.28998697 0.17003801 -0.92751569
v 0.26999402 0.17003801 -0.93360442
v 0.27097240 0.18857339 -0.93822074
v 0.25906169 0.18098156 -0.93973303
v 0.24574725 0.17427814 -0.94152379
v 0.23894115 0.16095206 -0.93973303
v 0.23132682 0.16858426 -0.94355345
v 0.21001519 0.17003801 -0.94888604
v 0.19002225 0.17003801 -0.95306462
v 0.19074538 0.18990600 -0.95799935
v 0.17564434 0.18320256 -0.95919323
v 0.16232988 0.17843749 -0.96038705
v 0.15003635 0.19002715 -0.96528196
v 0.15003635 0.17464158 -0.96138197
v 0.03003615 0.19002715 -0.97602689
v 0.01000066 0.19002715 -0.97642481
v -0.00127196 0.20222253 -0.97944927
v 0.12447090 0.15792340 -0.96054626
v 0.13778535 0.16111359 -0.95967078
v 0.11000793 0.14483961 -0.95863605
v 0.08839853 0.13191736 -0.95708400
v 0.08065657 0.13983224 -0.96002889
v 0.11000793 0.13001940 -0.95441771
v 0.07002203 0.13854001 -0.96038705
v 0.05002908 0.13660169 -0.96098399
v 0.05002908 0.15000853 -0.96472484
v 0.05002908 0.17003801 -0.97013706
v 0.41126332 0.12909061 -0.86559325
v 0.41879258 0.12182184 -0.85938513
v 0.38978153 0.12949443 -0.87613916
v 0.37816861 0.12250833 -0.87916368
v 0.42989504 0.12909061 -0.85616165
v 0.43325555 0.12460820 -0.85285860
v 0.34830680 0.07166733 -0.87395042
v 0.33048332 0.04953796 -0.87239838
v 0.33401400 0.06605422 -0.87765145
v 0.35519800 0.09000078 -0.87796980
v 0.35970706 0.10037898 -0.87988001
v 0.36481163 0.11370505 -0.88214839
v 0.01000066 0.11003028 -0.95417893
v 0.03003615 0.11003028 -0.95378095
v 0.05002908 0.11003028 -0.95310444
v -0.00127196 0.11003028 -0.95417893
v 0.07002203 0.09000078 -0.94554317
v 0.08605893 0.07849190 -0.94052893
v 0.09163143 0.07110198 -0.93742484
v 0.09001498 0.05002254 -0.92990345
v 0.07053249 0.04953796 -0.93125647
v 0.41411337 0.17003801 -0.87705445
v 0.40075639 0.15881181 -0.88035756
v 0.42998010 0.17003801 -0.86905551
v 0.38978153 0.15130074 -0.88310349
v 0.36995876 0.15000853 -0.89165956
v 0.37021399 0.16862464 -0.89711159
v 0.43325555 0.19018868 -0.87323409
v 0.43325555 0.18437365 -0.87156266
v 0.43325555 0.16660555 -0.86638921
v 0.35928166 0.16099244 -0.89969838
v 0.34524405 0.15000853 -0.90208608
v 0.32997286 0.15000853 -0.90797591
v 0.31495687 0.16628249 -0.91824323
v 0.29555947 0.14475885 -0.91860139
v 0.28930634 0.15085654 -0.92230242
v 0.30895901 0.15085654 -0.91585547
v 0.26999402 0.15000853 -0.92799324
v 0.24995854 0.15000853 -0.93368405
v 0.25144738 0.16858426 -0.93845952
v 0.23132682 0.14920089 -0.93822074
v 0.22558416 0.15533894 -0.94132483
v 0.24995854 0.13001940 -0.92783403
v 0.19002225 0.15000853 -0.94761258
v 0.21052565 0.14920089 -0.94303608
v 0.17002930 0.15000853 -0.95139319
v 0.16939121 0.17104757 -0.95720339
v 0.15003635 0.16466720 -0.95875543
v 0.03003615 0.17003801 -0.97085339
v 0.01000066 0.17003801 -0.97125137
v -0.00127196 0.18134500 -0.97419626
v -0.00127196 0.19002715 -0.97642481
v 0.13068148 0.15077578 -0.95776057
v 0.15003635 0.15000853 -0.95477587
v 0.13000086 0.13001940 -0.95195031
v 0.09001498 0.11003028 -0.95039833
v 0.07002203 0.12856564 -0.95752180
v 0.11000793 0.11003028 -0.94840848
v 0.05002908 0.12658693 -0.95807892
v 0.03003615 0.13534984 -0.96134216
v 0.03003615 0.15000853 -0.96544117
v 0.39633241 0.14548573 -0.87828815
v 0.40841326 0.15130074 -0.87418920
v 0.42321655 0.13514793 -0.86161369
v 0.38297543 0.13583443 -0.88135242
v 0.37089458 0.12949443 -0.88473511
v 0.43325555 0.13736893 -0.85719633
v 0.34056485 0.07942069 -0.88019836
v 0.32856908 0.04953796 -0.87315452
v 0.32839894 0.05159745 -0.87406981
v 0.32069951 0.05935080 -0.88023818
v 0.32839894 0.07166733 -0.88198918
v 0.34520152 0.09000078 -0.88214839
v 0.35179496 0.10821308 -0.88584936
v 0.34860456 0.13127124 -0.89484322
v 0.01000066 0.12472935 -0.95859623
v 0.03003615 0.12537546 -0.95843709
v -0.00127196 0.11834899 -0.95668602
v 0.07002203 0.11003028 -0.95195031
v 0.09163143 0.08810282 -0.94323504
v 0.09937338 0.08018793 -0.93993199
v 0.11000793 0.04953796 -0.92767483
v 0.09061052 0.04953796 -0.92966467
v 0.43325555 0.15368329 -0.86244941
v 0.35524052 0.15000853 -0.89802694
v 0.34099025 0.13874193 -0.90037489
v 0.32924971 0.13127124 -0.90244424
v 0.30997992 0.13001940 -0.90912998
v 0.28930634 0.13066551 -0.91625345
v 0.28220248 0.13773237 -0.92067075
v 0.26935595 0.13066551 -0.92246157
v 0.22996560 0.13001940 -0.93292791
v 0.21750191 0.14197248 -0.93941462
v 0.26225206 0.11782402 -0.92067075
v 0.24881001 0.11071678 -0.92214322
v 0.22996560 0.11003028 -0.92675954
v 0.20423000 0.13680360 -0.94092691
v 0.18887371 0.13010016 -0.94208097
v 0.17002930 0.13001940 -0.94562280
v 0.15003635 0.13001940 -0.94908506
v 0.01000066 0.15000853 -0.96583909
v -0.00127196 0.16131550 -0.96890342
v -0.00127196 0.17003801 -0.97125137
v 0.13000086 0.11003028 -0.94594115
v 0.13000086 0.09577541 -0.94140446
v 0.11000793 0.09201989 -0.94263810
v 0.01000066 0.13470373 -0.96154118
v 0.43325555 0.14847401 -0.86081779
v 0.32997286 0.09000078 -0.88823712
v 0.32291150 0.04953796 -0.87534326
v 0.31002244 0.04953796 -0.88023818
v 0.30806568 0.05159745 -0.88182998
v 0.30997992 0.07001166 -0.88831675
v 0.32924971 0.11055525 -0.89567894
v 0.33546028 0.12541585 -0.89822590
v -0.00127196 0.12472935 -0.95859623
v -0.00127196 0.13038284 -0.96026766
v 0.11000793 0.08200513 -0.93933505
v 0.11000793 0.07001166 -0.93511665
v 0.13000086 0.07001166 -0.93260956
v 0.13051133 0.04953796 -0.92508811
v 0.32210329 0.11758173 -0.90077281
v 0.30959707 0.11055525 -0.90296161
v 0.28998697 0.11003028 -0.90940857
v 0.27560908 0.12440629 -0.91864121
v 0.21052565 0.13010016 -0.93750441
v 0.26935595 0.11071678 -0.91617382
v 0.25472280 0.10449794 -0.91852182
v 0.24140836 0.09888484 -0.92035240
v 0.22996560 0.09472547 -0.92178506
v 0.21001519 0.11003028 -0.93141568
v 0.19478652 0.12347750 -0.93893707
v 0.18142954 0.11915663 -0.94025034
v 0.17002930 0.11572415 -0.94132483
v 0.15650216 0.10183272 -0.93941462
v 0.14990874 0.10910149 -0.94271767
v 0.14314517 0.09852140 -0.94048911
v -0.00127196 0.15000853 -0.96583909
v 0.13000086 0.08576067 -0.93806159
v -0.00127196 0.13470373 -0.96150136
v -0.00127196 0.14338586 -0.96396869
v 0.30959707 0.09036422 -0.89599735
v 0.31602034 0.10425565 -0.89854425
v 0.30666193 0.04953796 -0.88151163
v 0.28998697 0.05002254 -0.88752079
v 0.28943396 0.07073854 -0.89575857
v 0.29572964 0.08394347 -0.89858407
v 0.15003635 0.07001166 -0.92962486
v 0.14833483 0.04953796 -0.92242181
v 0.30270588 0.09726955 -0.90093201
v 0.28943396 0.09036422 -0.90292180
v 0.26999402 0.09000078 -0.90901059
v 0.24881001 0.09133339 -0.91569626
v 0.22996560 0.08475111 -0.91836262
v 0.21886313 0.08075328 -0.91971564
v 0.21137641 0.08846626 -0.92405343
v 0.19002225 0.09000078 -0.92914730
v 0.18887371 0.11148404 -0.93639016
v 0.17002930 0.10570940 -0.93818098
v 0.17002930 0.09000078 -0.93300748
v 0.14990874 0.09113148 -0.93690753
v 0.29045489 0.04953796 -0.88716263
v 0.28998697 0.04953796 -0.88732183
v 0.27131271 0.04953796 -0.89341056
v 0.27463067 0.06451970 -0.89830548
v 0.28241515 0.07788616 -0.90077281
v 0.17002930 0.07001166 -0.92608303
v 0.17002930 0.05664520 -0.92126775
v 0.17002930 0.04953796 -0.91856158
v 0.26876041 0.07073854 -0.90244424
v 0.24995854 0.07001166 -0.90773714
v 0.22996560 0.07001166 -0.91302997
v 0.21137641 0.06989051 -0.91752690
v 0.20559122 0.07647279 -0.92122793
v 0.18870355 0.06989051 -0.92242181
v 0.26893055 0.04953796 -0.89416671
v 0.26131624 0.05898736 -0.90037489
v 0.18113177 0.05943155 -0.92019320
v 0.18870355 0.05167821 -0.91569626
v 0.18087652 0.04953796 -0.91641259
v 0.24995854 0.05486839 -0.90200651
v 0.23430449 0.04953796 -0.90415549
v 0.23115666 0.04953796 -0.90499121
v 0.20997265 0.04953796 -0.91020447
v 0.19444621 0.06314671 -0.91884017
v 0.26348567 0.04953796 -0.89583814
v 0.24995854 0.04953796 -0.89989734
v 0.18883118 0.04953796 -0.91482079
f 1 2 3
f 1 3 4
f 1 4 5
f 1 5 6
f 1 6 7
f 1 7 8
f 1 8 9
f 1 9 10
f 1 10 11
f 1 11 2
f 2 12 3
f 2 11 12
f 3 12 25
f 3 25 42
f 3 42 68
f 3 68 88
f 3 88 119
f 3 119 151
f 3 151 187
f 3 187 189
f 3 189 228
f 3 228 263
f 3 263 302
f 3 302 301
f 3 301 300
f 3 300 335
f 3 335 371
f 3 371 404
f 3 404 446
f 3 446 488
f 3 488 487
f 3 487 486
f 3 486 534
f 3 534 586
f 3 586 646
f 3 646 707
f 3 707 748
f 3 748 724
f 3 724 670
f 3 670 669
f 3 669 668
f 3 668 605
f 3 605 600
f 3 600 545
f 3 545 499
f 3 499 451
f 3 451 413
f 3 413 378
f 3 378 377
f 3 377 342
f 3 342 308
f 3 308 307
f 3 307 268
f 3 268 264
f 3 264 230
f 3 230 229
f 3 229 191
f 3 191 190
f 3 190 154
f 3 154 121
f 3 121 91
f 3 91 70
f 3 70 43
f 3 43 26
f 3 26 13
f 3 13 14
f 3 14 4
f 4 15 5
f 4 14 15
f 5 15 16
f 5 16 6
f 6 16 17
f 6 17 18
f 6 18 7
f 7 18 19
f 7 19 20
f 7 20 8
f 8 20 9
f 9 20 36
f 9 36 21
f 9 21 10
f 10 21 22
f 10 22 23
f 10 23 11
f 11 23 40
f 11 40 39
f 11 39 66
f 11 66 87
f 11 87 118
f 11 118 149
f 11 149 148
f 11 148 184
f 11 184 223
f 11 223 222
f 11 222 221
f 11 221 256
f 11 256 255
f 11 255 293
f 11 293 292
f 11 292 329
f 11 329 328
f 11 328 364
f 11 364 397
f 11 397 435
f 11 435 434
f 11 434 477
f 11 477 527
f 11 527 526
f 11 526 573
f 11 573 572
f 11 572 630
f 11 630 692
f 11 692 691
f 11 691 743
f 11 743 742
f 11 742 778
f 11 778 781
f 11 781 780
f 11 780 757
f 11 757 756
f 11 756 718
f 11 718 656
f 11 656 595
f 11 595 544
f 11 544 498
f 11 498 450
f 11 450 448
f 11 448 406
f 11 406 372
f 11 372 337
f 11 337 336
f 11 336 334
f 11 334 299
f 11 299 262
f 11 262 227
f 11 227 188
f 11 188 153
f 11 153 152
f 11 152 120
f 11 120 90
f 11 90 89
f 11 89 69
f 11 69 67
f 11 67 41
f 11 41 24
f 11 24 12
f 12 24 25
f 13 26 27
f 13 27 28
f 13 28 29
f 13 29 14
f 14 29 15
f 15 29 16
f 16 30 31
f 16 31 17
f 16 29 30
f 17 31 32
f 17 32 18
f 18 32 33
f 18 33 34
f 18 34 19
f 19 34 35
f 19 35 20
f 20 35 36
f 21 36 37
f 21 37 22
f 22 38 39
f 22 39 40
f 22 40 23
f 22 37 38
f 24 41 25
f 25 41 42
f 26 43 44
f 26 44 27
f 27 44 28
f 28 45 46
f 28 46 29
f 28 44 45
f 29 46 47
f 29 47 30
f 30 48 31
f 30 47 49
f 30 49 48
f 31 50 51
f 31 51 52
f 31 52 53
f 31 53 32
f 31 48 54
f 31 54 50
f 32 55 56
f 32 56 57
f 32 57 58
f 32 58 33
f 32 53 59
f 32 59 55
f 33 58 60
f 33 60 34
f 34 60 61
f 34 61 35
f 35 61 62
f 35 62 36
f 36 62 63
f 36 63 37
f 37 63 38
f 38 64 39
f 38 63 62
f 38 62 65
f 38 65 64
f 39 64 66
f 41 67 42
f 42 67 69
f 42 69 68
f 43 70 71
f 43 71 44
f 44 71 72
f 44 72 45
f 45 72 46
f 46 72 49
f 46 49 47
f 48 49 73
f 48 73 74
f 48 74 75
f 48 75 50
f 48 50 54
f 49 72 73
f 50 59 51
f 50 75 76
f 50 76 77
f 50 77 59
f 51 59 52
f 52 59 53
f 55 77 78
f 55 78 79
f 55 79 56
f 55 59 77
f 56 79 57
f 57 79 58
f 58 79 80
f 58 80 81
f 58 81 82
f 58 82 60
f 60 82 83
f 60 83 84
f 60 84 61
f 61 84 65
f 61 65 62
f 64 85 66
f 64 65 86
f 64 86 85
f 65 84 86
f 66 85 87
f 68 69 89
f 68 89 90
f 68 90 88
f 70 91 123
f 70 123 92
f 70 92 71
f 71 92 93
f 71 93 94
f 71 94 95
f 71 95 96
f 71 96 73
f 71 73 72
f 73 96 74
f 74 97 98
f 74 98 99
f 74 99 100
f 74 100 76
f 74 76 75
f 74 96 101
f 74 101 102
f 74 102 97
f 76 103 104
f 76 104 105
f 76 105 106
f 76 106 107
f 76 107 78
f 76 78 77
f 76 100 103
f 78 108 109
f 78 109 110
f 78 110 111
f 78 111 80
f 78 80 79
f 78 107 112
f 78 112 113
f 78 113 108
f 80 111 81
f 81 111 82
f 82 111 114
f 82 114 115
f 82 115 116
f 82 116 83
f 83 116 84
f 84 116 86
f 85 117 118
f 85 118 87
f 85 86 115
f 85 115 146
f 85 146 117
f 86 116 115
f 88 90 119
f 90 120 119
f 91 121 122
f 91 122 123
f 92 123 124
f 92 124 93
f 93 124 126
f 93 126 94
f 94 125 95
f 94 126 125
f 95 127 96
f 95 125 128
f 95 128 127
f 96 128 129
f 96 129 101
f 96 127 128
f 97 130 131
f 97 131 132
f 97 132 99
f 97 99 98
f 97 102 101
f 97 101 128
f 97 128 133
f 97 133 134
f 97 134 130
f 99 132 135
f 99 135 100
f 100 135 136
f 100 136 103
f 101 129 128
f 103 136 137
f 103 137 104
f 104 137 138
f 104 138 105
f 105 138 139
f 105 139 106
f 106 139 140
f 106 140 107
f 107 140 141
f 107 141 112
f 108 113 141
f 108 141 109
f 109 141 142
f 109 142 143
f 109 143 110
f 110 143 144
f 110 144 114
f 110 114 111
f 112 141 145
f 112 145 113
f 113 145 141
f 114 144 146
f 114 146 115
f 117 147 148
f 117 148 149
f 117 149 118
f 117 146 150
f 117 150 147
f 119 120 152
f 119 152 153
f 119 153 151
f 121 154 122
f 122 154 155
f 122 155 156
f 122 156 157
f 122 157 123
f 123 157 124
f 124 157 158
f 124 158 126
f 125 126 158
f 125 158 159
f 125 159 160
f 125 160 161
f 125 161 128
f 128 162 163
f 128 163 133
f 128 161 162
f 130 164 131
f 130 134 170
f 130 170 164
f 131 164 165
f 131 165 132
f 132 165 166
f 132 166 167
f 132 167 135
f 133 163 168
f 133 168 169
f 133 169 134
f 134 169 170
f 135 167 171
f 135 171 136
f 136 171 137
f 137 172 173
f 137 173 138
f 137 171 172
f 138 173 174
f 138 174 139
f 139 174 175
f 139 175 140
f 140 175 213
f 140 213 176
f 140 176 141
f 141 176 177
f 141 177 178
f 141 178 179
f 141 179 142
f 142 180 143
f 142 179 180
f 143 181 144
f 143 180 181
f 144 182 146
f 144 181 182
f 146 182 150
f 147 183 184
f 147 184 148
f 147 150 185
f 147 185 183
f 150 182 186
f 150 186 185
f 151 153 187
f 153 188 189
f 153 189 187
f 154 190 155
f 155 190 191
f 155 191 192
f 155 192 156
f 156 193 194
f 156 194 195
f 156 195 158
f 156 158 157
f 156 192 193
f 158 195 196
f 158 196 159
f 159 196 197
f 159 197 198
f 159 198 160
f 160 198 199
f 160 199 161
f 161 199 162
f 162 199 168
f 162 168 163
f 164 200 165
f 164 170 200
f 165 200 201
f 165 201 202
f 165 202 166
f 166 202 167
f 167 202 203
f 167 203 171
f 168 199 198
f 168 198 204
f 168 204 169
f 169 205 170
f 169 204 205
f 170 206 200
f 170 205 206
f 171 207 208
f 171 208 172
f 171 203 207
f 172 208 173
f 173 209 210
f 173 210 174
f 173 208 209
f 174 210 211
f 174 211 175
f 175 211 212
f 175 212 213
f 176 213 214
f 176 214 177
f 177 214 178
f 178 214 179
f 179 214 180
f 180 215 181
f 180 214 216
f 180 216 217
f 180 217 218
f 180 218 215
f 181 219 182
f 181 215 219
f 182 219 186
f 183 220 221
f 183 221 222
f 183 222 223
f 183 223 184
f 183 185 224
f 183 224 220
f 185 186 225
f 185 225 224
f 186 219 226
f 186 226 225
f 188 227 189
f 189 227 228
f 191 229 192
f 192 229 230
f 192 230 193
f 193 230 231
f 193 231 232
f 193 232 194
f 194 232 233
f 194 233 196
f 194 196 195
f 196 234 197
f 196 233 234
f 197 234 235
f 197 235 198
f 198 235 204
f 200 236 201
f 200 206 236
f 201 236 202
f 202 236 237
f 202 237 238
f 202 238 239
f 202 239 203
f 203 239 207
f 204 235 240
f 204 240 205
f 205 241 242
f 205 242 206
f 205 240 241
f 206 242 236
f 207 243 244
f 207 244 208
f 207 239 243
f 208 244 209
f 209 244 245
f 209 245 246
f 209 246 210
f 210 246 247
f 210 247 211
f 211 247 248
f 211 248 212
f 212 248 249
f 212 249 217
f 212 217 213
f 213 217 250
f 213 250 214
f 214 217 216
f 214 250 217
f 215 218 251
f 215 251 252
f 215 252 219
f 217 249 253
f 217 253 218
f 218 253 251
f 219 252 226
f 220 254 255
f 220 255 256
f 220 256 221
f 220 224 257
f 220 257 254
f 224 225 260
f 224 260 257
f 225 226 258
f 225 258 259
f 225 259 260
f 226 252 261
f 226 261 258
f 227 262 263
f 227 263 228
f 230 264 265
f 230 265 231
f 231 266 267
f 231 267 232
f 231 265 268
f 231 268 269
f 231 269 266
f 232 267 270
f 232 270 234
f 232 234 233
f 234 271 272
f 234 272 235
f 234 270 271
f 235 272 240
f 236 273 237
f 236 242 273
f 237 273 274
f 237 274 275
f 237 275 238
f 238 275 276
f 238 276 239
f 239 276 277
f 239 277 243
f 240 272 310
f 240 310 278
f 240 278 241
f 241 279 280
f 241 280 242
f 241 278 279
f 242 280 273
f 243 277 281
f 243 281 282
f 243 282 244
f 244 282 245
f 245 282 283
f 245 283 246
f 246 283 284
f 246 284 285
f 246 285 247
f 247 285 286
f 247 286 248
f 248 286 324
f 248 324 287
f 248 287 249
f 249 287 253
f 251 288 252
f 251 253 289
f 251 289 288
f 252 288 261
f 253 287 289
f 254 257 290
f 254 290 291
f 254 291 292
f 254 292 293
f 254 293 255
f 257 260 294
f 257 294 290
f 258 261 295
f 258 295 259
f 259 295 296
f 259 296 297
f 259 297 294
f 259 294 260
f 261 288 298
f 261 298 295
f 262 299 300
f 262 300 301
f 262 301 302
f 262 302 263
f 264 268 265
f 266 303 304
f 266 304 267
f 266 269 305
f 266 305 303
f 267 304 306
f 267 306 270
f 268 307 269
f 269 307 308
f 269 308 305
f 270 306 271
f 271 306 309
f 271 309 310
f 271 310 272
f 273 280 274
f 274 311 312
f 274 312 275
f 274 280 313
f 274 313 311
f 275 312 276
f 276 314 277
f 276 312 315
f 276 315 314
f 277 314 318
f 277 318 281
f 278 310 316
f 278 316 279
f 279 313 280
f 279 316 317
f 279 317 313
f 281 318 319
f 281 319 282
f 282 319 283
f 283 320 284
f 283 319 320
f 284 320 321
f 284 321 322
f 284 322 285
f 285 322 323
f 285 323 286
f 286 323 361
f 286 361 324
f 287 324 289
f 288 289 325
f 288 325 298
f 289 324 325
f 290 294 297
f 290 297 326
f 290 326 291
f 291 326 327
f 291 327 328
f 291 328 329
f 291 329 292
f 295 298 330
f 295 330 296
f 296 330 331
f 296 331 297
f 297 331 332
f 297 332 326
f 298 325 333
f 298 333 330
f 299 334 300
f 300 334 336
f 300 336 337
f 300 337 372
f 300 372 407
f 300 407 449
f 300 449 497
f 300 497 543
f 300 543 599
f 300 599 661
f 300 661 723
f 300 723 722
f 300 722 761
f 300 761 789
f 300 789 809
f 300 809 820
f 300 820 828
f 300 828 824
f 300 824 823
f 300 823 822
f 300 822 827
f 300 827 826
f 300 826 816
f 300 816 804
f 300 804 803
f 300 803 802
f 300 802 784
f 300 784 751
f 300 751 750
f 300 750 709
f 300 709 648
f 300 648 588
f 300 588 535
f 300 535 491
f 300 491 490
f 300 490 447
f 300 447 405
f 300 405 370
f 300 370 335
f 303 338 339
f 303 339 304
f 303 305 340
f 303 340 338
f 304 339 341
f 304 341 306
f 305 308 340
f 306 341 309
f 308 342 343
f 308 343 340
f 309 341 344
f 309 344 345
f 309 345 346
f 309 346 310
f 310 346 316
f 311 347 312
f 311 313 348
f 311 348 347
f 312 347 315
f 313 317 349
f 313 349 350
f 313 350 348
f 314 315 351
f 314 351 352
f 314 352 354
f 314 354 318
f 315 347 351
f 316 346 353
f 316 353 317
f 317 353 349
f 318 354 355
f 318 355 356
f 318 356 319
f 319 356 320
f 320 357 321
f 320 356 357
f 321 357 322
f 322 358 323
f 322 357 359
f 322 359 360
f 322 360 358
f 323 358 369
f 323 369 361
f 324 361 333
f 324 333 325
f 326 332 362
f 326 362 327
f 327 362 363
f 327 363 397
f 327 397 364
f 327 364 328
f 330 365 331
f 330 333 365
f 331 365 398
f 331 398 366
f 331 366 332
f 332 366 367
f 332 367 395
f 332 395 362
f 333 368 365
f 333 361 369
f 333 369 368
f 335 370 371
f 338 373 374
f 338 374 339
f 338 340 375
f 338 375 373
f 339 374 376
f 339 376 341
f 340 343 375
f 341 376 344
f 342 377 343
f 343 377 378
f 343 378 375
f 344 379 345
f 344 376 379
f 345 380 381
f 345 381 353
f 345 353 346
f 345 379 380
f 347 382 351
f 347 348 382
f 348 383 382
f 348 350 383
f 349 384 350
f 349 353 381
f 349 381 384
f 350 384 385
f 350 385 383
f 351 386 352
f 351 382 386
f 352 386 387
f 352 387 354
f 354 388 389
f 354 389 355
f 354 387 388
f 355 389 390
f 355 390 357
f 355 357 356
f 357 390 359
f 358 360 391
f 358 391 392
f 358 392 393
f 358 393 369
f 359 390 394
f 359 394 360
f 360 394 391
f 362 395 396
f 362 396 363
f 363 396 435
f 363 435 397
f 365 368 399
f 365 399 398
f 366 400 402
f 366 402 367
f 366 398 401
f 366 401 400
f 367 402 432
f 367 432 395
f 368 369 393
f 368 393 399
f 370 403 404
f 370 404 371
f 370 405 403
f 372 406 407
f 373 375 408
f 373 408 409
f 373 409 410
f 373 410 374
f 374 410 411
f 374 411 376
f 375 378 412
f 375 412 408
f 376 411 379
f 378 413 412
f 379 411 414
f 379 414 380
f 380 415 416
f 380 416 381
f 380 414 415
f 381 416 384
f 382 383 417
f 382 417 386
f 383 418 419
f 383 419 417
f 383 385 420
f 383 420 418
f 384 416 421
f 384 421 385
f 385 421 420
f 386 417 422
f 386 422 387
f 387 423 388
f 387 422 423
f 388 424 425
f 388 425 389
f 388 423 424
f 389 425 426
f 389 426 427
f 389 427 390
f 390 427 394
f 391 428 392
f 391 394 429
f 391 429 428
f 392 430 393
f 392 428 430
f 393 431 399
f 393 430 431
f 394 427 429
f 395 432 433
f 395 433 396
f 396 433 434
f 396 434 435
f 398 399 436
f 398 436 401
f 399 431 436
f 400 401 437
f 400 437 438
f 400 438 441
f 400 441 402
f 401 439 437
f 401 436 440
f 401 440 439
f 402 441 475
f 402 475 432
f 403 442 443
f 403 443 404
f 403 405 444
f 403 444 445
f 403 445 442
f 404 443 446
f 405 447 444
f 406 448 407
f 407 448 450
f 407 450 494
f 407 494 449
f 408 412 413
f 408 413 451
f 408 451 409
f 409 452 453
f 409 453 410
f 409 451 454
f 409 454 452
f 410 455 456
f 410 456 411
f 410 453 455
f 411 456 414
f 414 456 457
f 414 457 415
f 415 457 458
f 415 458 459
f 415 459 460
f 415 460 416
f 416 460 421
f 417 419 422
f 418 420 461
f 418 461 462
f 418 462 463
f 418 463 419
f 419 463 464
f 419 464 465
f 419 465 422
f 420 421 466
f 420 466 461
f 421 460 466
f 422 465 423
f 423 465 467
f 423 467 424
f 424 467 468
f 424 468 425
f 425 469 426
f 425 468 470
f 425 470 469
f 426 469 520
f 426 520 471
f 426 471 429
f 426 429 427
f 428 429 471
f 428 471 472
f 428 472 430
f 430 472 473
f 430 473 431
f 431 473 474
f 431 474 436
f 432 475 476
f 432 476 433
f 433 476 527
f 433 527 477
f 433 477 434
f 436 474 440
f 437 439 478
f 437 478 479
f 437 479 480
f 437 480 481
f 437 481 482
f 437 482 438
f 438 482 441
f 439 440 478
f 440 483 478
f 440 474 483
f 441 482 484
f 441 484 475
f 442 485 486
f 442 486 487
f 442 487 488
f 442 488 443
f 442 445 489
f 442 489 485
f 443 488 446
f 444 447 490
f 444 490 491
f 444 491 492
f 444 492 445
f 445 492 493
f 445 493 489
f 449 494 495
f 449 495 496
f 449 496 497
f 450 498 494
f 451 499 500
f 451 500 454
f 452 501 502
f 452 502 453
f 452 454 503
f 452 503 501
f 453 502 455
f 454 500 503
f 455 502 504
f 455 504 505
f 455 505 457
f 455 457 456
f 457 505 458
f 458 505 506
f 458 506 459
f 459 507 508
f 459 508 466
f 459 466 460
f 459 506 509
f 459 509 507
f 461 510 462
f 461 466 508
f 461 508 510
f 462 510 511
f 462 511 463
f 463 512 464
f 463 511 513
f 463 513 512
f 464 512 514
f 464 514 515
f 464 515 467
f 464 467 465
f 467 515 468
f 468 516 470
f 468 515 516
f 469 470 517
f 469 517 518
f 469 518 519
f 469 519 520
f 470 516 517
f 471 520 521
f 471 521 472
f 472 521 473
f 473 522 474
f 473 521 522
f 474 522 523
f 474 523 483
f 475 484 524
f 475 524 476
f 476 524 525
f 476 525 526
f 476 526 527
f 478 483 528
f 478 528 479
f 479 528 529
f 479 529 480
f 480 530 580
f 480 580 531
f 480 531 481
f 480 529 574
f 480 574 530
f 481 531 532
f 481 532 482
f 482 532 484
f 483 523 528
f 484 532 524
f 485 489 486
f 486 489 533
f 486 533 534
f 489 493 533
f 491 535 536
f 491 536 492
f 492 536 537
f 492 537 493
f 493 537 538
f 493 538 533
f 494 539 495
f 494 498 539
f 495 540 541
f 495 541 542
f 495 542 543
f 495 543 496
f 495 539 540
f 496 543 497
f 498 544 539
f 499 545 546
f 499 546 503
f 499 503 500
f 501 503 547
f 501 547 548
f 501 548 549
f 501 549 502
f 502 549 504
f 503 546 550
f 503 550 547
f 504 549 551
f 504 551 552
f 504 552 553
f 504 553 505
f 505 553 506
f 506 553 554
f 506 554 509
f 507 509 555
f 507 555 556
f 507 556 557
f 507 557 558
f 507 558 510
f 507 510 508
f 509 554 555
f 510 558 511
f 511 559 513
f 511 558 559
f 512 513 560
f 512 560 561
f 512 561 562
f 512 562 514
f 513 559 560
f 514 562 563
f 514 563 564
f 514 564 516
f 514 516 515
f 516 564 517
f 517 565 518
f 517 564 565
f 518 565 566
f 518 566 519
f 519 567 568
f 519 568 521
f 519 521 520
f 519 566 567
f 521 568 522
f 522 568 523
f 523 569 529
f 523 529 528
f 523 568 569
f 524 532 570
f 524 570 571
f 524 571 525
f 525 571 572
f 525 572 573
f 525 573 526
f 529 569 575
f 529 575 574
f 530 574 576
f 530 576 577
f 530 577 578
f 530 578 579
f 530 579 580
f 531 580 640
f 531 640 581
f 531 581 532
f 532 581 570
f 533 582 583
f 533 583 534
f 533 538 584
f 533 584 582
f 534 585 586
f 534 583 585
f 535 587 536
f 535 588 589
f 535 589 587
f 536 587 590
f 536 590 537
f 537 590 591
f 537 591 538
f 538 591 592
f 538 592 584
f 539 593 594
f 539 594 540
f 539 544 595
f 539 595 593
f 540 594 541
f 541 596 597
f 541 597 542
f 541 594 596
f 542 597 598
f 542 598 599
f 542 599 543
f 545 600 546
f 546 600 550
f 547 601 548
f 547 550 602
f 547 602 601
f 548 603 604
f 548 604 549
f 548 601 603
f 549 604 551
f 550 600 605
f 550 605 606
f 550 606 602
f 551 607 552
f 551 604 607
f 552 608 609
f 552 609 610
f 552 610 554
f 552 554 553
f 552 607 608
f 554 610 555
f 555 611 556
f 555 610 611
f 556 611 612
f 556 612 613
f 556 613 557
f 557 613 614
f 557 614 615
f 557 615 616
f 557 616 559
f 557 559 558
f 559 616 560
f 560 617 561
f 560 616 617
f 561 618 562
f 561 617 618
f 562 618 619
f 562 619 620
f 562 620 621
f 562 621 563
f 563 621 622
f 563 622 565
f 563 565 564
f 565 623 566
f 565 622 623
f 566 623 624
f 566 624 567
f 567 625 626
f 567 626 568
f 567 624 625
f 568 626 569
f 569 626 627
f 569 627 575
f 570 581 628
f 570 628 571
f 571 628 629
f 571 629 692
f 571 692 630
f 571 630 572
f 574 575 631
f 574 631 576
f 575 627 632
f 575 632 631
f 576 633 577
f 576 631 633
f 577 634 635
f 577 635 578
f 577 633 636
f 577 636 634
f 578 635 579
f 579 635 637
f 579 637 638
f 579 638 639
f 579 639 640
f 579 640 580
f 581 640 628
f 582 641 642
f 582 642 583
f 582 584 643
f 582 643 641
f 583 642 585
f 584 592 644
f 584 644 643
f 585 642 645
f 585 645 586
f 586 645 646
f 587 589 647
f 587 647 590
f 588 648 589
f 589 648 649
f 589 649 647
f 590 647 650
f 590 650 591
f 591 650 651
f 591 651 592
f 592 651 652
f 592 652 644
f 593 653 654
f 593 654 594
f 593 595 656
f 593 656 653
f 594 654 655
f 594 655 596
f 596 655 719
f 596 719 657
f 596 657 597
f 597 657 658
f 597 658 598
f 598 658 659
f 598 659 660
f 598 660 661
f 598 661 599
f 601 602 662
f 601 662 663
f 601 663 603
f 602 606 664
f 602 664 662
f 603 665 666
f 603 666 667
f 603 667 604
f 603 663 665
f 604 667 607
f 605 668 606
f 606 668 669
f 606 669 670
f 606 670 664
f 607 667 671
f 607 671 608
f 608 671 672
f 608 672 609
f 609 673 674
f 609 674 611
f 609 611 610
f 609 672 673
f 611 674 612
f 612 674 613
f 613 675 676
f 613 676 614
f 613 674 677
f 613 677 675
f 614 676 678
f 614 678 615
f 615 678 679
f 615 679 680
f 615 680 617
f 615 617 616
f 617 680 618
f 618 680 619
f 619 681 682
f 619 682 620
f 619 680 679
f 619 679 683
f 619 683 681
f 620 682 621
f 621 684 622
f 621 682 685
f 621 685 684
f 622 684 686
f 622 686 687
f 622 687 624
f 622 624 623
f 624 687 625
f 625 687 688
f 625 688 627
f 625 627 626
f 627 688 632
f 628 640 689
f 628 689 690
f 628 690 629
f 629 690 691
f 629 691 692
f 631 632 693
f 631 693 633
f 632 688 694
f 632 694 693
f 633 693 695
f 633 695 636
f 634 696 697
f 634 697 635
f 634 636 696
f 635 697 637
f 636 698 696
f 636 695 744
f 636 744 698
f 637 697 638
f 638 697 699
f 638 699 700
f 638 700 701
f 638 701 639
f 639 701 689
f 639 689 640
f 641 643 702
f 641 702 703
f 641 703 704
f 641 704 642
f 642 704 645
f 643 644 705
f 643 705 702
f 644 652 706
f 644 706 705
f 645 704 707
f 645 707 646
f 647 649 708
f 647 708 650
f 648 709 710
f 648 710 649
f 649 710 711
f 649 711 712
f 649 712 708
f 650 708 713
f 650 713 651
f 651 713 714
f 651 714 652
f 652 714 715
f 652 715 706
f 653 716 717
f 653 717 654
f 653 656 718
f 653 718 716
f 654 717 655
f 655 699 697
f 655 697 719
f 655 717 699
f 657 719 696
f 657 696 720
f 657 720 658
f 658 720 721
f 658 721 659
f 659 721 722
f 659 722 660
f 660 722 723
f 660 723 661
f 662 664 670
f 662 670 663
f 663 670 724
f 663 724 703
f 663 703 702
f 663 702 665
f 665 705 666
f 665 702 705
f 666 705 706
f 666 706 725
f 666 725 671
f 666 671 667
f 671 725 672
f 672 725 726
f 672 726 673
f 673 727 728
f 673 728 677
f 673 677 674
f 673 726 727
f 675 729 730
f 675 730 676
f 675 677 728
f 675 728 729
f 676 730 678
f 678 731 683
f 678 683 679
f 678 730 731
f 681 683 732
f 681 732 733
f 681 733 682
f 682 733 685
f 683 731 734
f 683 734 735
f 683 735 736
f 683 736 732
f 684 685 737
f 684 737 738
f 684 738 739
f 684 739 686
f 685 733 737
f 686 739 740
f 686 740 694
f 686 694 688
f 686 688 687
f 689 701 741
f 689 741 690
f 690 741 742
f 690 742 743
f 690 743 691
f 693 694 695
f 694 740 695
f 695 740 744
f 696 719 697
f 696 698 720
f 698 744 745
f 698 745 746
f 698 746 721
f 698 721 720
f 699 717 700
f 700 717 747
f 700 747 741
f 700 741 701
f 703 724 748
f 703 748 704
f 704 748 707
f 706 715 725
f 708 712 749
f 708 749 713
f 709 750 710
f 710 750 711
f 711 750 751
f 711 751 752
f 711 752 753
f 711 753 712
f 712 753 749
f 713 749 754
f 713 754 714
f 714 754 755
f 714 755 715
f 715 755 726
f 715 726 725
f 716 747 717
f 716 718 756
f 716 756 757
f 716 757 747
f 721 746 758
f 721 758 759
f 721 759 722
f 722 759 760
f 722 760 761
f 726 755 727
f 727 762 728
f 727 755 762
f 728 763 764
f 728 764 729
f 728 762 763
f 729 764 765
f 729 765 730
f 730 765 731
f 731 765 734
f 732 736 766
f 732 766 733
f 733 766 737
f 734 765 767
f 734 767 768
f 734 768 735
f 735 768 769
f 735 769 736
f 736 769 770
f 736 770 771
f 736 771 766
f 737 772 738
f 737 766 772
f 738 773 739
f 738 772 773
f 739 774 740
f 739 773 774
f 740 774 775
f 740 775 776
f 740 776 777
f 740 777 744
f 741 747 778
f 741 778 742
f 744 777 745
f 745 777 779
f 745 779 758
f 745 758 746
f 747 757 780
f 747 780 781
f 747 781 778
f 749 753 782
f 749 782 783
f 749 783 754
f 751 784 752
f 752 784 785
f 752 785 753
f 753 785 786
f 753 786 787
f 753 787 782
f 754 783 762
f 754 762 755
f 758 779 760
f 758 760 759
f 760 779 788
f 760 788 761
f 761 788 789
f 762 783 763
f 763 783 790
f 763 790 764
f 764 791 792
f 764 792 767
f 764 767 765
f 764 790 791
f 766 771 772
f 767 792 768
f 768 793 769
f 768 792 793
f 769 794 770
f 769 793 794
f 770 794 795
f 770 795 796
f 770 796 771
f 771 797 798
f 771 798 772
f 771 796 797
f 772 798 773
f 773 798 799
f 773 799 774
f 774 799 775
f 775 799 800
f 775 800 801
f 775 801 777
f 775 777 776
f 777 801 788
f 777 788 779
f 782 787 790
f 782 790 783
f 784 802 785
f 785 803 804
f 785 804 805
f 785 805 786
f 785 802 803
f 786 805 806
f 786 806 787
f 787 806 791
f 787 791 790
f 788 801 800
f 788 800 807
f 788 807 808
f 788 808 789
f 789 808 809
f 791 806 792
f 792 810 811
f 792 811 793
f 792 806 810
f 793 811 794
f 794 811 812
f 794 812 795
f 795 813 814
f 795 814 796
f 795 812 813
f 796 814 797
f 797 814 815
f 797 815 807
f 797 807 800
f 797 800 799
f 797 799 798
f 804 816 817
f 804 817 805
f 805 817 810
f 805 810 806
f 807 815 818
f 807 818 808
f 808 818 809
f 809 818 819
f 809 819 820
f 810 817 811
f 811 821 822
f 811 822 823
f 811 823 812
f 811 817 821
f 812 823 824
f 812 824 813
f 813 824 825
f 813 825 814
f 814 825 815
f 815 825 818
f 816 826 817
f 817 826 827
f 817 827 821
f 818 825 819
f 819 828 820
f 819 825 824
f 819 824 828
f 821 827 822
