v 0.89817655 -0.02228051 0.00098470
v 0.89667463 -0.02524394 0.00098470
v 0.89817655 -0.02228051 -0.01002629
v 0.69723421 -0.02228051 0.00098470
v 0.89421690 -0.03001118 0.00098470
v 0.89772141 -0.02228051 -0.03002192
v 0.89417136 -0.03001118 -0.01002629
v 0.58203942 -0.02228051 -0.38956112
v 0.43325558 -0.22624122 0.00098470
v 0.88447696 -0.04826413 0.00098470
v 0.88447696 -0.04826413 -0.01002629
v 0.89717525 -0.02228051 -0.04298277
v 0.89371622 -0.03001118 -0.03002192
v 0.43325558 -0.15748125 -0.38956112
v 0.81006229 -0.02228051 -0.38956112
v 0.76978278 -0.08970909 -0.38959935
v 0.43325558 -0.46103868 0.00098470
v 0.88201922 -0.05277368 0.00098470
v 0.87901533 -0.05827105 0.00098470
v 0.87896985 -0.05822811 -0.01002629
v 0.87874228 -0.05784157 -0.03002192
v 0.88424939 -0.04783465 -0.03002192
v 0.89285147 -0.03001118 -0.05001757
v 0.89685667 -0.02228051 -0.05001757
v 0.88383979 -0.04701865 -0.05001757
v 0.43325558 -0.33958134 -0.38956112
v 0.81725347 -0.02228051 -0.37442100
v 0.80519235 -0.03138551 -0.38956112
v 0.80018586 -0.04040463 -0.38956112
v 0.79445118 -0.05028270 -0.38956112
v 0.78225350 -0.07046832 -0.38956112
v 0.77811182 -0.07708234 -0.38956112
v 0.78034198 -0.08056113 -0.38069117
v 0.76254618 -0.10371017 -0.38512614
v 0.76145381 -0.10207815 -0.38956112
v 0.75681144 -0.10860626 -0.38956112
v 0.75517297 -0.11088252 -0.38956112
v 0.74429524 -0.12561373 -0.38956112
v 0.73651242 -0.13566360 -0.38956112
v 0.73637587 -0.13583538 -0.38956112
v 0.72522503 -0.14936405 -0.38956112
v 0.71807939 -0.15782484 -0.38956112
v 0.70852154 -0.16851892 -0.38956112
v 0.70665550 -0.17058043 -0.38956112
v 0.69900924 -0.17899826 -0.38956112
v 0.68781292 -0.19033657 -0.38956112
v 0.67902875 -0.19909799 -0.38956112
v 0.66869718 -0.20880428 -0.38956112
v 0.65818357 -0.21842465 -0.38956112
v 0.65003663 -0.22525340 -0.38956112
v 0.64926291 -0.22589763 -0.38956112
v 0.63588190 -0.23676351 -0.38956112
v 0.62582344 -0.24440828 -0.38956112
v 0.61080396 -0.25531709 -0.38956112
v 0.60215640 -0.26141575 -0.38956112
v 0.59482872 -0.26605415 -0.38956112
v 0.59141517 -0.26820153 -0.38956112
v 0.57630467 -0.27756423 -0.38956112
v 0.56610966 -0.28340518 -0.38956112
v 0.54735804 -0.29345506 -0.38956112
v 0.54581058 -0.29427105 -0.38956112
v 0.53729957 -0.29860884 -0.38956112
v 0.53065461 -0.30182993 -0.38956112
v 0.52837890 -0.30290365 -0.38956112
v 0.51003695 -0.31114969 -0.38956112
v 0.49265075 -0.31836498 -0.38956112
v 0.48427629 -0.32158607 -0.38956112
v 0.47804093 -0.32390529 -0.38956112
v 0.47421777 -0.32532257 -0.38956112
v 0.45701367 -0.33150709 -0.38956112
v 0.44832057 -0.33459938 -0.38956112
v 0.43603191 -0.33872238 -0.38956112
v 0.43325558 -0.46099573 -0.01002629
v 0.43944544 -0.45983613 -0.01002629
v 0.43949091 -0.45983613 0.00098470
v 0.87218833 -0.07003884 0.00098470
v 0.87214279 -0.07003884 -0.01002629
v 0.87828714 -0.05702555 -0.05001757
v 0.87168765 -0.07003884 -0.03002192
v 0.87077737 -0.07003884 -0.05001757
v 0.89153159 -0.03001118 -0.07001320
v 0.89549124 -0.02228051 -0.07001320
v 0.88315707 -0.04581609 -0.07001320
v 0.43325558 -0.44768181 -0.12808850
v 0.82121313 -0.02228051 -0.36570400
v 0.82166827 -0.02313948 -0.36375412
v 0.81506878 -0.02988233 -0.37025368
v 0.80168784 -0.04298152 -0.38352036
v 0.78361893 -0.06917988 -0.38841414
v 0.79781914 -0.05633838 -0.37526214
v 0.79294920 -0.06887925 -0.36914492
v 0.78284520 -0.08434057 -0.36998606
v 0.77620023 -0.09434749 -0.36998606
v 0.77902204 -0.09859936 -0.35782808
v 0.76555002 -0.11023830 -0.36925963
v 0.75781274 -0.11702410 -0.37545329
v 0.73937976 -0.13927123 -0.37874129
v 0.72540712 -0.14983648 -0.38849062
v 0.72044611 -0.16053057 -0.38084409
v 0.70897669 -0.16890545 -0.38810828
v 0.70110285 -0.18123157 -0.38206753
v 0.68926930 -0.18934876 -0.38875824
v 0.68116790 -0.20120245 -0.38210577
v 0.66073233 -0.22065796 -0.38122642
v 0.65003663 -0.22572583 -0.38872001
v 0.63929546 -0.23946925 -0.37877953
v 0.61685729 -0.25776514 -0.37480336
v 0.60352176 -0.26231766 -0.38535553
v 0.59036839 -0.27627578 -0.37166828
v 0.57967269 -0.27975458 -0.37942949
v 0.54835933 -0.29336914 -0.38845238
v 0.57179886 -0.28701282 -0.37166828
v 0.54057658 -0.30024084 -0.38076764
v 0.43325558 -0.46073806 -0.03002192
v 0.43858066 -0.45957845 -0.03002192
v 0.68540066 -0.28383467 -0.05001757
v 0.68599236 -0.28422120 -0.03002192
v 0.68621993 -0.28439298 -0.01002629
v 0.68621993 -0.28439298 0.00098470
v 0.86317664 -0.08515659 0.00098470
v 0.86313111 -0.08515659 -0.01002629
v 0.87760442 -0.05578005 -0.07001320
v 0.86290354 -0.08477005 -0.03002192
v 0.86244839 -0.08403993 -0.05001757
v 0.86176574 -0.08288033 -0.07001320
v 0.86936647 -0.07003884 -0.07001320
v 0.88971102 -0.03001118 -0.09000885
v 0.88224679 -0.04414111 -0.09000885
v 0.89367068 -0.02228051 -0.09000885
v 0.87669414 -0.05414803 -0.09000885
v 0.43325558 -0.44862667 -0.12487696
v 0.55427611 -0.29706270 -0.36998606
v 0.55846339 -0.29921010 -0.35759866
v 0.56961417 -0.29560244 -0.35056388
v 0.59036839 -0.28452185 -0.34930223
v 0.60129166 -0.28078535 -0.34219095
v 0.60461414 -0.28280392 -0.32999474
v 0.61094052 -0.28529489 -0.30984619
v 0.62154514 -0.28095713 -0.30311725
v 0.82189584 -0.02228051 -0.36417469
v 0.81802720 -0.03645340 -0.35538119
v 0.82808566 -0.02228051 -0.34941691
v 0.82417154 -0.02988233 -0.34922576
v 0.80437315 -0.04981028 -0.36914492
v 0.80086857 -0.06149216 -0.36191899
v 0.79731852 -0.07575095 -0.34999040
v 0.79968524 -0.07953037 -0.33920881
v 0.78703243 -0.09116933 -0.35067859
v 0.77437967 -0.10972293 -0.35067859
v 0.76099873 -0.12140481 -0.36214834
v 0.78193492 -0.10289417 -0.34448493
v 0.75021195 -0.13033803 -0.37044483
v 0.73414570 -0.14996532 -0.37124771
v 0.74261123 -0.14326541 -0.36539811
v 0.71425629 -0.17367271 -0.36998606
v 0.72317696 -0.16366577 -0.36998606
v 0.69445789 -0.19450255 -0.36998606
v 0.70424330 -0.18449563 -0.36998606
v 0.68444490 -0.20433766 -0.36998606
v 0.67379475 -0.21430163 -0.36998606
v 0.66382724 -0.22336370 -0.36998606
v 0.65654510 -0.23719299 -0.35358426
v 0.64994562 -0.23435842 -0.37124771
v 0.67770886 -0.21790928 -0.35553414
v 0.64320964 -0.24243267 -0.36543638
v 0.63010168 -0.25007743 -0.37013897
v 0.61012125 -0.26476568 -0.36887729
v 0.62090796 -0.26059973 -0.36149842
v 0.59728646 -0.27833730 -0.35553414
v 0.58395094 -0.28224558 -0.36608630
v 0.43325558 -0.46009383 -0.05001757
v 0.43726078 -0.45902014 -0.05001757
v 0.68453592 -0.28323340 -0.07001320
v 0.69541365 -0.27661937 -0.05001757
v 0.69595981 -0.27700591 -0.03002192
v 0.69623291 -0.27722067 -0.01002629
v 0.69618738 -0.27717769 0.00098470
v 0.86035478 -0.08966614 0.00098470
v 0.85689574 -0.09516349 -0.01002629
v 0.86754596 -0.07003884 -0.09000885
v 0.85666817 -0.09477697 -0.03002192
v 0.85621303 -0.09400390 -0.05001757
v 0.85548484 -0.09288725 -0.07001320
v 0.86080992 -0.08142009 -0.09000885
v 0.88743532 -0.03001118 -0.11000448
v 0.89266944 -0.02228051 -0.09891704
v 0.88110900 -0.04207960 -0.11000448
v 0.87555635 -0.05208652 -0.11000448
v 0.86458755 -0.07141317 -0.10908690
v 0.43325558 -0.45253494 -0.11000448
v 0.62459457 -0.28288981 -0.28996524
v 0.63793004 -0.27863795 -0.27501631
v 0.64075190 -0.28044176 -0.26171136
v 0.60880136 -0.27326941 -0.34930223
v 0.61462712 -0.27653348 -0.32999474
v 0.61822265 -0.27885267 -0.31642219
v 0.62891835 -0.27387071 -0.30984619
v 0.63460755 -0.27640465 -0.28996524
v 0.82084900 -0.04156423 -0.34207624
v 0.81356686 -0.04895131 -0.34922576
v 0.83541334 -0.02228051 -0.33137113
v 0.80341733 -0.06574403 -0.34999040
v 0.79800123 -0.09705321 -0.31489289
v 0.79577106 -0.09022446 -0.33152407
v 0.81752652 -0.05578005 -0.32999474
v 0.80742252 -0.07171382 -0.33152407
v 0.81611562 -0.07021064 -0.31149018
v 0.80232501 -0.08369635 -0.32586563
v 0.77729255 -0.11620809 -0.33355039
v 0.76372951 -0.12505540 -0.34999040
v 0.75899613 -0.13871291 -0.33764127
v 0.75617427 -0.13506232 -0.34999040
v 0.78402853 -0.10972293 -0.32812136
v 0.73710406 -0.15657935 -0.35385188
v 0.74511445 -0.14996532 -0.34830815
v 0.71785182 -0.17766687 -0.35553414
v 0.72904819 -0.16899136 -0.34804052
v 0.69809896 -0.19811019 -0.35622233
v 0.70961392 -0.18964940 -0.34922576
v 0.66892475 -0.22911873 -0.34788761
v 0.66018617 -0.24015641 -0.34027934
v 0.68958795 -0.20966324 -0.34922576
v 0.68107688 -0.22104450 -0.34219095
v 0.63415241 -0.25570363 -0.34999040
v 0.64994562 -0.24462302 -0.34815523
v 0.63797557 -0.25849527 -0.33607376
v 0.62413943 -0.26283303 -0.34999040
v 0.43325558 -0.45880538 -0.07001320
v 0.43562227 -0.45794642 -0.07001320
v 0.68194163 -0.28138661 -0.11000448
v 0.68339807 -0.28241739 -0.09000885
v 0.69454890 -0.27597517 -0.07001320
v 0.70738375 -0.26596823 -0.07001320
v 0.70820296 -0.26661247 -0.05001757
v 0.70870364 -0.26704195 -0.03002192
v 0.70897669 -0.26721373 -0.01002629
v 0.70319647 -0.27172330 0.00098470
v 0.85689574 -0.09516349 0.00098470
v 0.84729242 -0.11002356 0.00098470
v 0.84724689 -0.11002356 -0.01002629
v 0.86021823 -0.08038934 -0.10178448
v 0.84542632 -0.11199917 -0.03120713
v 0.84620005 -0.10946523 -0.05001757
v 0.84547186 -0.10839152 -0.07001320
v 0.85452902 -0.09138407 -0.09000885
v 0.84456158 -0.10697424 -0.09000885
v 0.89139503 -0.02228051 -0.11000448
v 0.88033521 -0.04061937 -0.12235361
v 0.88415837 -0.03129962 -0.12942663
v 0.86422342 -0.06724721 -0.13000011
v 0.87501013 -0.04839298 -0.12942663
v 0.85935348 -0.07897206 -0.11512765
v 0.43325558 -0.45292148 -0.10828402
v 0.64302754 -0.28190202 -0.24997397
v 0.65672714 -0.27777898 -0.22997832
v 0.65900284 -0.27932513 -0.21697925
v 0.65081036 -0.26553875 -0.28927708
v 0.66091436 -0.26068562 -0.28216580
v 0.64844370 -0.27314058 -0.26901379
v 0.65299505 -0.27528799 -0.24997397
v 0.63078439 -0.26579645 -0.32965067
v 0.64143461 -0.26098627 -0.32273057
v 0.64462054 -0.26321957 -0.30999911
v 0.83322871 -0.02846505 -0.32858014
v 0.82321572 -0.04577315 -0.32999474
v 0.83891791 -0.02228051 -0.32250118
v 0.80464619 -0.09022446 -0.30892861
v 0.80059552 -0.10091855 -0.30154973
v 0.78006887 -0.12015932 -0.32020724
v 0.81966567 -0.05947360 -0.31913671
v 0.82212341 -0.06363957 -0.30579352
v 0.81816375 -0.07699645 -0.29470608
v 0.76955521 -0.12943611 -0.32892424
v 0.75339794 -0.14940700 -0.33056825
v 0.74019897 -0.16031583 -0.34050870
v 0.76177239 -0.14232056 -0.32429808
v 0.72103781 -0.18114567 -0.34219095
v 0.70137596 -0.20141719 -0.34287915
v 0.67261136 -0.23367125 -0.32999474
v 0.67734480 -0.23775132 -0.30999911
v 0.66268939 -0.24213202 -0.32999474
v 0.65458798 -0.25596133 -0.30999911
v 0.64889878 -0.25282612 -0.32965067
v 0.68398976 -0.22366433 -0.32999474
v 0.69400275 -0.21438754 -0.32999474
v 0.43325558 -0.45652914 -0.09000885
v 0.43393826 -0.45618552 -0.09000885
v 0.67952943 -0.27966869 -0.13764665
v 0.68075830 -0.28052765 -0.12430347
v 0.69195461 -0.27404249 -0.11000448
v 0.69341105 -0.27511621 -0.09000885
v 0.70633692 -0.26510927 -0.09000885
v 0.71739674 -0.25780809 -0.07001320
v 0.71821594 -0.25849527 -0.05001757
v 0.71871662 -0.25892475 -0.03002192
v 0.71894419 -0.25913948 -0.01002629
v 0.70893121 -0.26721373 0.00098470
v 0.84346926 -0.11582156 0.00098470
v 0.84032881 -0.12054585 -0.01002629
v 0.84014678 -0.12028816 -0.02535754
v 0.85434699 -0.08824885 -0.10908690
v 0.83991921 -0.11994458 -0.03866249
v 0.83960062 -0.11947215 -0.05001757
v 0.83887237 -0.11839844 -0.07001320
v 0.83791661 -0.11698116 -0.09000885
v 0.84337825 -0.10521336 -0.11000448
v 0.88870972 -0.02228051 -0.12961781
v 0.87933397 -0.03881554 -0.13569678
v 0.88343012 -0.02666122 -0.15003400
v 0.88743532 -0.02228051 -0.13814366
v 0.85830665 -0.07725413 -0.13000011
v 0.85675919 -0.07459134 -0.15003400
v 0.86263049 -0.06458443 -0.15003400
v 0.87086844 -0.05002502 -0.15003400
v 0.85034180 -0.09000972 -0.13000011
v 0.43325558 -0.45519775 -0.09761713
v 0.66118747 -0.28074241 -0.20363608
v 0.66710424 -0.26528108 -0.24997397
v 0.67156458 -0.26691312 -0.23074298
v 0.68148649 -0.26115805 -0.22458753
v 0.66865170 -0.27391365 -0.21017385
v 0.65804702 -0.25849527 -0.29547074
v 0.67033571 -0.25029218 -0.29076815
v 0.68248779 -0.24208908 -0.28606552
v 0.67329407 -0.25471583 -0.26996961
v 0.66337210 -0.26248944 -0.26996961
v 0.83700633 -0.03452073 -0.30999911
v 0.84119356 -0.02228051 -0.31646043
v 0.81297517 -0.08846359 -0.28881827
v 0.80259812 -0.10396788 -0.28996524
v 0.79577106 -0.11397478 -0.28996524
v 0.78202593 -0.12286505 -0.30999911
v 0.77465278 -0.13287196 -0.30999911
v 0.82685679 -0.05169998 -0.31149018
v 0.83923650 -0.03864375 -0.29776469
v 0.83545887 -0.04963848 -0.29065344
v 0.82417154 -0.07021064 -0.28881827
v 0.82043940 -0.08077587 -0.28136292
v 0.75662941 -0.15593511 -0.30999911
v 0.74247468 -0.16297862 -0.32999474
v 0.73373610 -0.17298552 -0.32999474
v 0.76463979 -0.14592820 -0.30999911
v 0.71434730 -0.19411601 -0.32999474
v 0.72376859 -0.18410909 -0.32999474
v 0.70433432 -0.20438062 -0.32999474
v 0.69054371 -0.22649890 -0.30873746
v 0.67975700 -0.23981282 -0.29940870
v 0.66733181 -0.24595441 -0.30999911
v 0.69755280 -0.21773748 -0.31454879
v 0.66314453 -0.28207380 -0.19002528
v 0.66573882 -0.28387761 -0.17002964
v 0.67816401 -0.27868089 -0.15003400
v 0.68999755 -0.26991946 -0.15003400
v 0.68845010 -0.27399954 -0.13057362
v 0.70337856 -0.26274714 -0.13000011
v 0.70497149 -0.26403558 -0.11000448
v 0.71634990 -0.25686324 -0.09000885
v 0.72763723 -0.24689926 -0.09000885
v 0.72868407 -0.24780118 -0.07001320
v 0.72945780 -0.24848835 -0.05001757
v 0.73983490 -0.23989873 -0.03648323
v 0.73191553 -0.24719991 -0.02990723
v 0.74006248 -0.24011347 -0.02317829
v 0.72995842 -0.24934731 -0.01002629
v 0.74019897 -0.24024230 0.00098470
v 0.73560214 -0.24432237 0.00098470
v 0.72499746 -0.25372803 0.00098470
v 0.71894419 -0.25909653 0.00098470
v 0.71343702 -0.26356316 0.00098470
v 0.84032881 -0.12054585 0.00098470
v 0.83336526 -0.13055277 -0.01002629
v 0.83445758 -0.12819062 -0.03120713
v 0.84201282 -0.10310891 -0.13000011
v 0.83227289 -0.13003740 -0.05001757
v 0.83081651 -0.13003740 -0.07001320
v 0.82890493 -0.13003740 -0.09000885
v 0.83673322 -0.11522028 -0.11000448
v 0.82558244 -0.13154057 -0.10939276
v 0.87819612 -0.03662519 -0.15003400
v 0.88165510 -0.02322537 -0.17002964
v 0.88561481 -0.02228051 -0.15003400
v 0.84592700 -0.09177060 -0.15110451
v 0.85589445 -0.06926577 -0.17178833
v 0.86117405 -0.06209344 -0.16632108
v 0.83973718 -0.09963010 -0.15852162
v 0.84492570 -0.08790527 -0.17002964
v 0.86586189 -0.05195768 -0.17178833
v 0.84082949 -0.10134803 -0.14517847
v 0.67306650 -0.27507326 -0.19002528
v 0.67711723 -0.25776514 -0.24997397
v 0.67930186 -0.25944012 -0.23793070
v 0.68885970 -0.25355622 -0.23074298
v 0.69372964 -0.25497353 -0.20998269
v 0.68376219 -0.26287597 -0.20998269
v 0.68567377 -0.24475186 -0.26996961
v 0.69568676 -0.23624814 -0.26996961
v 0.84237695 -0.02451381 -0.30999911
v 0.84351480 -0.02228051 -0.30999911
v 0.79836535 -0.11771128 -0.27509278
v 0.81593359 -0.09366031 -0.26996961
v 0.80510134 -0.11062483 -0.26905203
v 0.78471124 -0.13020918 -0.28828302
v 0.77770215 -0.13699499 -0.29382673
v 0.84560841 -0.03117077 -0.29065344
v 0.84146667 -0.04272382 -0.28445977
v 0.83818972 -0.05685376 -0.26996961
v 0.83045238 -0.07003884 -0.26996961
v 0.82225990 -0.08365341 -0.26996961
v 0.75908715 -0.15894148 -0.29764998
v 0.74538755 -0.17019390 -0.30812573
v 0.73728615 -0.17702265 -0.31355476
v 0.76964629 -0.14962174 -0.28908589
v 0.71771532 -0.19763775 -0.31462526
v 0.72891164 -0.18887633 -0.30743754
v 0.72053713 -0.20060118 -0.30128211
v 0.70911324 -0.20914786 -0.30793455
v 0.70051116 -0.22052911 -0.30124384
v 0.68949687 -0.23401482 -0.29164749
v 0.67575181 -0.27700591 -0.17002964
v 0.69118088 -0.26571056 -0.16876796
v 0.70028359 -0.26021320 -0.16127437
v 0.70146698 -0.26120099 -0.15003400
v 0.71339154 -0.25437224 -0.13000011
v 0.71498448 -0.25574657 -0.11000448
v 0.72631735 -0.24573967 -0.11000448
v 0.73765022 -0.23779427 -0.09000885
v 0.73865151 -0.23878208 -0.07001320
v 0.73947078 -0.23951219 -0.05001757
v 0.74952930 -0.22954822 -0.05001757
v 0.75990635 -0.21992785 -0.03743905
v 0.76013392 -0.22018553 -0.02409588
v 0.74019897 -0.24024230 -0.01002629
v 0.75021195 -0.23032129 -0.01002629
v 0.75021195 -0.23032129 0.00098470
v 0.83336526 -0.13055277 0.00098470
v 0.82335228 -0.14463976 -0.01002629
v 0.82307917 -0.14429617 -0.03002192
v 0.82262403 -0.14365195 -0.05001757
v 0.83536786 -0.11311582 -0.13000011
v 0.82189584 -0.14266413 -0.07001320
v 0.82094002 -0.14133275 -0.09000885
v 0.82025737 -0.14043084 -0.10231973
v 0.82540035 -0.12780409 -0.13000011
v 0.81939256 -0.13922828 -0.11566291
v 0.87637556 -0.03323229 -0.17002964
v 0.88115448 -0.02228051 -0.17496164
v 0.88183719 -0.02228051 -0.17148247
v 0.88211024 -0.02228051 -0.17002964
v 0.88470453 -0.02228051 -0.15523362
v 0.87947047 -0.02228051 -0.18352574
v 0.85989964 -0.05990309 -0.17966425
v 0.84287757 -0.08464120 -0.19002528
v 0.85170722 -0.07003884 -0.19002528
v 0.83486718 -0.10882100 -0.15110451
v 0.82198685 -0.12295095 -0.17002964
v 0.83063442 -0.11002356 -0.17002964
v 0.83859932 -0.09791218 -0.17002964
v 0.86435997 -0.04792055 -0.19002528
v 0.68662953 -0.26506633 -0.19002528
v 0.69104433 -0.24659863 -0.24936225
v 0.70073873 -0.24071474 -0.24225098
v 0.70269585 -0.24234676 -0.22997832
v 0.69664252 -0.25729272 -0.19002528
v 0.70569974 -0.24496660 -0.20998269
v 0.69841754 -0.23865323 -0.25559416
v 0.70274132 -0.22263357 -0.28996524
v 0.70656449 -0.22624122 -0.26996961
v 0.85015976 -0.02228051 -0.29084459
v 0.80054998 -0.12084649 -0.26174960
v 0.79258513 -0.12849125 -0.26905203
v 0.78015989 -0.14025904 -0.28052181
v 0.81834579 -0.09743975 -0.25437072
v 0.85634959 -0.02228051 -0.27207240
v 0.85407388 -0.02855094 -0.26889908
v 0.84383339 -0.04684685 -0.26996961
v 0.83982819 -0.05977423 -0.25945565
v 0.83609605 -0.06982410 -0.25165620
v 0.82439911 -0.09048216 -0.24863583
v 0.75307935 -0.16916314 -0.29057696
v 0.74006248 -0.18011492 -0.30021158
v 0.76159036 -0.16194785 -0.28430682
v 0.71275431 -0.21284139 -0.28996524
v 0.73273480 -0.19226924 -0.28996524
v 0.72272182 -0.20283449 -0.28996524
v 0.69864511 -0.25892475 -0.17461754
v 0.72131085 -0.24123012 -0.16586229
v 0.71147996 -0.25269726 -0.15003400
v 0.72294939 -0.24269035 -0.15003400
v 0.72476989 -0.24436533 -0.13000011
v 0.73633033 -0.23654877 -0.11000448
v 0.74647987 -0.22654185 -0.11000448
v 0.74770874 -0.22778735 -0.09000885
v 0.74871004 -0.22877516 -0.07001320
v 0.75872302 -0.21872529 -0.07001320
v 0.75949675 -0.21954131 -0.05001757
v 0.76864499 -0.20953439 -0.05001757
v 0.77865797 -0.19849671 -0.05001757
v 0.77915859 -0.19909799 -0.03002192
v 0.76741612 -0.21198243 -0.03048071
v 0.77938616 -0.19935568 -0.01002629
v 0.76027048 -0.22031437 -0.01002629
v 0.75571913 -0.22482392 0.00098470
v 0.82335228 -0.14463976 0.00098470
v 0.82002980 -0.14914930 0.00098470
v 0.81593359 -0.15464666 0.00098470
v 0.81588805 -0.15464666 -0.01002629
v 0.81566048 -0.15430309 -0.03002192
v 0.81515980 -0.15365887 -0.05001757
v 0.82380742 -0.12552783 -0.15003400
v 0.81438613 -0.15267105 -0.07001320
v 0.81343031 -0.15133967 -0.09000885
v 0.81347585 -0.14824739 -0.10939276
v 0.81839132 -0.13781101 -0.13000011
v 0.80928856 -0.15000826 -0.13000011
v 0.87491912 -0.02855094 -0.18937533
v 0.87737685 -0.02228051 -0.19312212
v 0.85880733 -0.05792746 -0.19002528
v 0.84119356 -0.08193548 -0.20493598
v 0.83655119 -0.09464812 -0.19002528
v 0.84592700 -0.07162791 -0.21097673
v 0.81679833 -0.13553475 -0.15003400
v 0.81493223 -0.13291492 -0.17002964
v 0.82066697 -0.12101828 -0.18325812
v 0.82567346 -0.11135495 -0.18994881
v 0.86208427 -0.04384048 -0.20998269
v 0.70984143 -0.22993475 -0.24959165
v 0.72117436 -0.22121629 -0.24358913
v 0.71270883 -0.23324177 -0.22997832
v 0.71566719 -0.23603339 -0.20998269
v 0.70838505 -0.24728580 -0.19002528
v 0.71839797 -0.23856734 -0.19002528
v 0.71894419 -0.21898298 -0.25689405
v 0.71657747 -0.21666378 -0.26996961
v 0.81283861 -0.10830563 -0.24863583
v 0.80227947 -0.12329453 -0.24997397
v 0.79508835 -0.13330144 -0.24997397
v 0.78188944 -0.14253530 -0.26996961
v 0.77406108 -0.15254220 -0.26996961
v 0.82030284 -0.10048907 -0.24106577
v 0.85926247 -0.02228051 -0.26282012
v 0.85680473 -0.03409125 -0.24997397
v 0.84651864 -0.05187178 -0.25165620
v 0.84178525 -0.06303829 -0.24615070
v 0.83805311 -0.07678171 -0.22997832
v 0.74201953 -0.18230528 -0.28996524
v 0.76404810 -0.16495422 -0.26996961
v 0.75562811 -0.17496115 -0.26996961
v 0.73646688 -0.19630636 -0.26996961
v 0.72649944 -0.20665687 -0.26996961
v 0.71976340 -0.23985578 -0.17916723
v 0.72877508 -0.23289818 -0.17152071
v 0.73296237 -0.23328471 -0.15003400
v 0.73478287 -0.23504558 -0.13000011
v 0.74497795 -0.22503866 -0.13000011
v 0.75649285 -0.21632020 -0.11000448
v 0.75772172 -0.21765159 -0.09000885
v 0.76791674 -0.20871837 -0.07001320
v 0.77792972 -0.19763775 -0.07001320
v 0.78712344 -0.18853275 -0.05001757
v 0.78762412 -0.18909107 -0.03002192
v 0.78789723 -0.18934876 -0.01002629
v 0.77406108 -0.20519662 0.00098470
v 0.78407407 -0.19385833 0.00098470
v 0.77938616 -0.19935568 0.00098470
v 0.76450324 -0.21567598 0.00098470
v 0.76022494 -0.22031437 0.00098470
v 0.80592060 -0.16748816 0.00098470
v 0.80592060 -0.16748816 -0.01002629
v 0.80564749 -0.16714458 -0.03002192
v 0.80514681 -0.16654330 -0.05001757
v 0.80441862 -0.16559845 -0.07001320
v 0.80341733 -0.16439590 -0.09000885
v 0.80223399 -0.16289271 -0.11000448
v 0.80086857 -0.16113183 -0.13000011
v 0.80004930 -0.16014403 -0.14055231
v 0.80546546 -0.15121081 -0.14835176
v 0.86945748 -0.03001118 -0.20998269
v 0.87346268 -0.02228051 -0.20998269
v 0.85648614 -0.05384739 -0.20998269
v 0.83514029 -0.08919372 -0.21097673
v 0.83955508 -0.07931563 -0.21827915
v 0.82426250 -0.10650180 -0.20998269
v 0.84396994 -0.06677479 -0.22997832
v 0.80491924 -0.14661537 -0.17002964
v 0.80287117 -0.14386669 -0.19002528
v 0.81383991 -0.12862010 -0.18994881
v 0.81921053 -0.11891382 -0.19656305
v 0.86058235 -0.04113474 -0.22229357
v 0.73000395 -0.21009272 -0.25008866
v 0.74106377 -0.20115951 -0.24328327
v 0.73328096 -0.21327087 -0.22997832
v 0.72331345 -0.22323485 -0.22997832
v 0.72622633 -0.22602648 -0.20998269
v 0.73105079 -0.22692838 -0.18819012
v 0.73883361 -0.19884031 -0.25662643
v 0.79795569 -0.13725267 -0.22997832
v 0.81506878 -0.11268634 -0.22997832
v 0.80505580 -0.12724575 -0.22997832
v 0.78507537 -0.14661537 -0.24997397
v 0.77729255 -0.15662229 -0.24997397
v 0.82981521 -0.09000972 -0.22997832
v 0.82175928 -0.10272238 -0.22997832
v 0.86117405 -0.02228051 -0.25643528
v 0.86212981 -0.02408433 -0.24997397
v 0.85885286 -0.03787069 -0.23563674
v 0.85448354 -0.04869361 -0.22936660
v 0.74561512 -0.18629944 -0.26996961
v 0.76605070 -0.17079517 -0.24867406
v 0.75822234 -0.17796752 -0.25448540
v 0.74006248 -0.22009963 -0.18035243
v 0.74115479 -0.22121629 -0.17002964
v 0.74320292 -0.22327779 -0.15003400
v 0.75499094 -0.21477406 -0.13000011
v 0.76427567 -0.20476714 -0.13000011
v 0.76573211 -0.20631328 -0.11000448
v 0.76691544 -0.20764467 -0.09000885
v 0.77692842 -0.19647816 -0.09000885
v 0.78639525 -0.18763083 -0.07001320
v 0.79713643 -0.17655022 -0.05001757
v 0.79763710 -0.17715150 -0.03002192
v 0.79791021 -0.17749508 -0.01002629
v 0.78789723 -0.18934876 0.00098470
v 0.80232501 -0.17199773 0.00098470
v 0.79640824 -0.17560536 -0.07001320
v 0.79540694 -0.17440280 -0.09000885
v 0.79417807 -0.17289963 -0.11000448
v 0.79276717 -0.17113876 -0.13000011
v 0.79891145 -0.15864085 -0.15389550
v 0.78275418 -0.18337898 -0.13000011
v 0.78111571 -0.18140337 -0.15003400
v 0.86422342 -0.03074129 -0.22936660
v 0.86854720 -0.02228051 -0.22955777
v 0.81761754 -0.11650872 -0.20998269
v 0.79736400 -0.15662229 -0.17002964
v 0.79522491 -0.15387361 -0.19002528
v 0.80118716 -0.14163339 -0.20489775
v 0.80683082 -0.13166942 -0.21093850
v 0.74966580 -0.18964940 -0.24890345
v 0.76036149 -0.18045850 -0.24114224
v 0.75303382 -0.19226924 -0.22997832
v 0.74306637 -0.20326397 -0.22997832
v 0.73619378 -0.21623430 -0.20998269
v 0.73842394 -0.21842465 -0.19365737
v 0.79954869 -0.13940008 -0.21824092
v 0.78698695 -0.15142557 -0.23032242
v 0.77920413 -0.15907033 -0.23724252
v 0.86304009 -0.02228051 -0.24997397
v 0.74670744 -0.21108052 -0.18819012
v 0.75967878 -0.19965632 -0.17859374
v 0.75276077 -0.20876132 -0.17113838
v 0.75321591 -0.21288434 -0.15003400
v 0.76254618 -0.20287743 -0.15003400
v 0.77428865 -0.19338590 -0.13000011
v 0.77569956 -0.19506086 -0.11000448
v 0.78421062 -0.18505394 -0.11000448
v 0.78539395 -0.18647124 -0.09000885
v 0.79791021 -0.17749508 0.00098470
v 0.78015989 -0.18020082 -0.16085382
v 0.78598565 -0.17118171 -0.16850033
v 0.77255917 -0.19136733 -0.15003400
v 0.78521192 -0.16650036 -0.19002528
v 0.78284520 -0.16357988 -0.20998269
v 0.79399604 -0.14897752 -0.21093850
v 0.76190895 -0.18226233 -0.22997832
v 0.78107017 -0.16134658 -0.22389935
v 0.75581014 -0.19536151 -0.20998269
v 0.74584270 -0.20622739 -0.20998269
v 0.75831342 -0.19819608 -0.19002528
v 0.76700652 -0.18818916 -0.19002528
v 0.77879453 -0.17856878 -0.17419699
v 0.76991934 -0.18995005 -0.16972378
v 0.76108974 -0.20124540 -0.16525057
v 0.77701944 -0.17650726 -0.19002528
v 0.77460724 -0.17354384 -0.20998269
v 0.76459426 -0.18535459 -0.20998269
f 1 2 3
f 1 3 6
f 1 6 12
f 1 12 24
f 1 24 82
f 1 82 129
f 1 129 186
f 1 186 247
f 1 247 307
f 1 307 310
f 1 310 381
f 1 381 449
f 1 449 448
f 1 448 447
f 1 447 446
f 1 446 450
f 1 450 516
f 1 516 578
f 1 578 632
f 1 632 647
f 1 647 603
f 1 603 540
f 1 540 473
f 1 473 468
f 1 468 398
f 1 398 328
f 1 328 266
f 1 266 201
f 1 201 142
f 1 142 140
f 1 140 85
f 1 85 27
f 1 27 15
f 1 15 8
f 1 8 4
f 1 4 9
f 1 9 17
f 1 17 75
f 1 75 119
f 1 119 177
f 1 177 237
f 1 237 297
f 1 297 369
f 1 369 368
f 1 368 367
f 1 367 366
f 1 366 365
f 1 365 434
f 1 434 502
f 1 502 566
f 1 566 565
f 1 565 562
f 1 562 564
f 1 564 563
f 1 563 622
f 1 622 657
f 1 657 623
f 1 623 567
f 1 567 505
f 1 505 504
f 1 504 503
f 1 503 435
f 1 435 370
f 1 370 298
f 1 298 239
f 1 239 238
f 1 238 178
f 1 178 120
f 1 120 76
f 1 76 19
f 1 19 18
f 1 18 10
f 1 10 5
f 1 5 2
f 2 5 3
f 3 5 7
f 3 7 13
f 3 13 6
f 4 8 9
f 5 10 11
f 5 11 7
f 6 13 12
f 7 11 13
f 8 14 9
f 8 15 16
f 8 16 14
f 9 14 26
f 9 26 84
f 9 84 131
f 9 131 190
f 9 190 253
f 9 253 316
f 9 316 286
f 9 286 228
f 9 228 171
f 9 171 114
f 9 114 73
f 9 73 17
f 10 18 11
f 11 18 19
f 11 19 20
f 11 20 21
f 11 21 22
f 11 22 13
f 12 13 23
f 12 23 24
f 13 22 25
f 13 25 23
f 14 16 26
f 15 27 28
f 15 28 16
f 16 28 29
f 16 29 30
f 16 30 31
f 16 31 32
f 16 32 33
f 16 33 34
f 16 34 35
f 16 35 36
f 16 36 37
f 16 37 38
f 16 38 39
f 16 39 40
f 16 40 41
f 16 41 42
f 16 42 43
f 16 43 44
f 16 44 45
f 16 45 46
f 16 46 47
f 16 47 48
f 16 48 49
f 16 49 50
f 16 50 51
f 16 51 52
f 16 52 53
f 16 53 54
f 16 54 55
f 16 55 56
f 16 56 57
f 16 57 58
f 16 58 59
f 16 59 60
f 16 60 61
f 16 61 62
f 16 62 63
f 16 63 64
f 16 64 65
f 16 65 66
f 16 66 67
f 16 67 68
f 16 68 69
f 16 69 70
f 16 70 71
f 16 71 72
f 16 72 26
f 17 73 74
f 17 74 75
f 19 76 77
f 19 77 20
f 20 77 21
f 21 78 25
f 21 25 22
f 21 77 79
f 21 79 80
f 21 80 78
f 23 81 24
f 23 25 83
f 23 83 81
f 24 81 82
f 25 78 83
f 26 72 84
f 27 85 86
f 27 86 87
f 27 87 28
f 28 87 88
f 28 88 29
f 29 88 30
f 30 89 31
f 30 88 90
f 30 90 89
f 31 89 33
f 31 33 32
f 33 89 90
f 33 90 91
f 33 91 92
f 33 92 93
f 33 93 34
f 34 93 94
f 34 94 95
f 34 95 96
f 34 96 36
f 34 36 35
f 36 96 37
f 37 96 38
f 38 96 97
f 38 97 39
f 39 97 40
f 40 97 41
f 41 97 98
f 41 98 42
f 42 99 100
f 42 100 43
f 42 98 99
f 43 100 44
f 44 100 45
f 45 101 102
f 45 102 46
f 45 100 101
f 46 102 47
f 47 102 103
f 47 103 48
f 48 104 49
f 48 103 104
f 49 105 50
f 49 104 105
f 50 105 51
f 51 105 52
f 52 106 53
f 52 105 106
f 53 106 107
f 53 107 54
f 54 107 55
f 55 108 56
f 55 107 108
f 56 108 109
f 56 109 57
f 57 109 110
f 57 110 58
f 58 110 59
f 59 111 60
f 59 110 112
f 59 112 111
f 60 111 61
f 61 111 113
f 61 113 62
f 62 113 84
f 62 84 63
f 63 84 64
f 64 84 65
f 65 84 66
f 66 84 67
f 67 84 68
f 68 84 69
f 69 84 70
f 70 84 71
f 71 84 72
f 73 114 74
f 74 114 115
f 74 115 116
f 74 116 117
f 74 117 118
f 74 118 75
f 75 118 119
f 76 120 121
f 76 121 77
f 77 121 79
f 78 122 83
f 78 80 122
f 79 121 123
f 79 123 124
f 79 124 80
f 80 124 125
f 80 125 126
f 80 126 122
f 81 127 129
f 81 129 82
f 81 83 128
f 81 128 127
f 83 122 130
f 83 130 128
f 84 113 132
f 84 132 133
f 84 133 134
f 84 134 135
f 84 135 136
f 84 136 137
f 84 137 138
f 84 138 139
f 84 139 131
f 85 140 86
f 86 141 87
f 86 140 142
f 86 142 143
f 86 143 141
f 87 144 88
f 87 141 144
f 88 144 90
f 90 144 145
f 90 145 91
f 91 145 146
f 91 146 92
f 92 146 147
f 92 147 148
f 92 148 94
f 92 94 93
f 94 149 150
f 94 150 95
f 94 148 151
f 94 151 149
f 95 150 96
f 96 152 97
f 96 150 152
f 97 153 99
f 97 99 98
f 97 152 154
f 97 154 153
f 99 155 101
f 99 101 100
f 99 153 156
f 99 156 155
f 101 157 103
f 101 103 102
f 101 155 158
f 101 158 157
f 103 159 160
f 103 160 104
f 103 157 159
f 104 161 162
f 104 162 163
f 104 163 106
f 104 106 105
f 104 160 164
f 104 164 161
f 106 165 166
f 106 166 107
f 106 163 162
f 106 162 165
f 107 167 108
f 107 166 168
f 107 168 167
f 108 167 109
f 109 167 169
f 109 169 110
f 110 169 170
f 110 170 112
f 111 132 113
f 111 112 132
f 112 170 134
f 112 134 133
f 112 133 132
f 114 171 115
f 115 171 172
f 115 172 173
f 115 173 116
f 116 173 174
f 116 174 117
f 117 174 175
f 117 175 176
f 117 176 118
f 118 176 119
f 119 176 177
f 120 178 179
f 120 179 121
f 121 179 181
f 121 181 123
f 122 126 180
f 122 180 130
f 123 181 124
f 124 181 182
f 124 182 125
f 125 182 183
f 125 183 184
f 125 184 126
f 126 184 180
f 127 185 186
f 127 186 129
f 127 128 187
f 127 187 185
f 128 130 188
f 128 188 187
f 130 180 189
f 130 189 188
f 131 139 191
f 131 191 192
f 131 192 193
f 131 193 190
f 134 170 135
f 135 170 136
f 136 170 169
f 136 169 194
f 136 194 195
f 136 195 196
f 136 196 137
f 137 196 138
f 138 196 139
f 139 197 198
f 139 198 191
f 139 196 197
f 141 143 199
f 141 199 200
f 141 200 145
f 141 145 144
f 142 201 143
f 143 201 199
f 145 202 147
f 145 147 146
f 145 200 202
f 147 203 204
f 147 204 151
f 147 151 148
f 147 202 205
f 147 205 206
f 147 206 207
f 147 207 208
f 147 208 203
f 149 151 209
f 149 209 150
f 150 209 210
f 150 210 211
f 150 211 212
f 150 212 154
f 150 154 152
f 151 204 203
f 151 203 213
f 151 213 209
f 153 154 214
f 153 214 156
f 154 212 211
f 154 211 215
f 154 215 214
f 155 156 216
f 155 216 158
f 156 214 217
f 156 217 216
f 157 158 218
f 157 218 159
f 158 216 219
f 158 219 218
f 159 164 160
f 159 218 164
f 161 220 162
f 161 164 220
f 162 220 221
f 162 221 165
f 164 218 222
f 164 222 223
f 164 223 220
f 165 224 168
f 165 168 166
f 165 221 225
f 165 225 224
f 167 168 194
f 167 194 169
f 168 224 226
f 168 226 227
f 168 227 194
f 171 228 172
f 172 228 229
f 172 229 230
f 172 230 231
f 172 231 173
f 173 231 232
f 173 232 174
f 174 232 233
f 174 233 234
f 174 234 235
f 174 235 175
f 175 235 176
f 176 236 237
f 176 237 177
f 176 235 236
f 178 238 179
f 179 238 239
f 179 239 240
f 179 240 181
f 180 184 241
f 180 241 189
f 181 240 242
f 181 242 243
f 181 243 182
f 182 243 244
f 182 244 183
f 183 245 184
f 183 244 246
f 183 246 245
f 184 245 241
f 185 247 186
f 185 187 248
f 185 248 249
f 185 249 247
f 187 188 248
f 188 189 250
f 188 250 251
f 188 251 248
f 189 241 252
f 189 252 250
f 190 193 254
f 190 254 255
f 190 255 256
f 190 256 253
f 191 198 192
f 192 198 257
f 192 257 258
f 192 258 259
f 192 259 193
f 193 259 260
f 193 260 254
f 194 227 195
f 195 227 261
f 195 261 196
f 196 261 262
f 196 262 263
f 196 263 197
f 197 263 198
f 198 263 257
f 199 205 200
f 199 201 264
f 199 264 265
f 199 265 205
f 200 205 202
f 201 266 264
f 203 208 267
f 203 267 268
f 203 268 269
f 203 269 213
f 205 265 270
f 205 270 206
f 206 270 207
f 207 270 271
f 207 271 272
f 207 272 267
f 207 267 208
f 209 273 211
f 209 211 210
f 209 213 269
f 209 269 273
f 211 274 275
f 211 275 215
f 211 273 276
f 211 276 274
f 214 215 275
f 214 275 217
f 216 277 219
f 216 217 277
f 217 275 277
f 218 219 278
f 218 278 222
f 219 277 278
f 220 223 221
f 221 223 279
f 221 279 280
f 221 280 281
f 221 281 282
f 221 282 283
f 221 283 226
f 221 226 224
f 221 224 225
f 222 278 223
f 223 284 279
f 223 278 285
f 223 285 284
f 226 262 261
f 226 261 227
f 226 283 262
f 228 286 229
f 229 286 287
f 229 287 288
f 229 288 289
f 229 289 230
f 230 289 290
f 230 290 291
f 230 291 231
f 231 291 232
f 232 291 292
f 232 292 233
f 233 292 293
f 233 293 294
f 233 294 234
f 234 294 295
f 234 295 235
f 235 295 296
f 235 296 236
f 236 296 297
f 236 297 237
f 239 298 299
f 239 299 240
f 240 299 300
f 240 300 242
f 241 245 246
f 241 246 301
f 241 301 252
f 242 300 302
f 242 302 243
f 243 302 303
f 243 303 304
f 243 304 244
f 244 304 246
f 246 304 305
f 246 305 377
f 246 377 306
f 246 306 301
f 247 249 307
f 248 251 308
f 248 308 249
f 249 308 309
f 249 309 310
f 249 310 307
f 250 252 311
f 250 311 312
f 250 312 313
f 250 313 251
f 251 313 314
f 251 314 308
f 252 301 315
f 252 315 311
f 253 256 317
f 253 317 316
f 254 260 255
f 255 260 318
f 255 318 319
f 255 319 256
f 256 319 320
f 256 320 321
f 256 321 317
f 257 322 258
f 257 263 322
f 258 323 324
f 258 324 325
f 258 325 326
f 258 326 259
f 258 322 323
f 259 326 260
f 260 326 318
f 262 283 282
f 262 282 263
f 263 282 322
f 264 266 327
f 264 327 265
f 265 327 270
f 266 328 327
f 267 272 268
f 268 272 329
f 268 329 330
f 268 330 331
f 268 331 332
f 268 332 269
f 269 332 333
f 269 333 276
f 269 276 273
f 270 327 334
f 270 334 271
f 271 334 335
f 271 335 336
f 271 336 337
f 271 337 272
f 272 337 338
f 272 338 329
f 274 276 339
f 274 339 340
f 274 340 275
f 275 340 341
f 275 341 277
f 276 333 342
f 276 342 339
f 277 343 278
f 277 341 344
f 277 344 343
f 278 343 345
f 278 345 285
f 279 284 280
f 280 284 346
f 280 346 347
f 280 347 348
f 280 348 281
f 281 348 282
f 282 348 322
f 284 285 349
f 284 349 346
f 285 345 349
f 286 316 287
f 287 316 350
f 287 350 351
f 287 351 352
f 287 352 288
f 288 352 353
f 288 353 354
f 288 354 289
f 289 354 290
f 290 354 355
f 290 355 356
f 290 356 291
f 291 356 292
f 292 356 357
f 292 357 293
f 293 357 358
f 293 358 359
f 293 359 294
f 294 359 360
f 294 360 361
f 294 361 295
f 295 361 362
f 295 362 363
f 295 363 296
f 296 364 365
f 296 365 366
f 296 366 367
f 296 367 368
f 296 368 369
f 296 369 297
f 296 363 364
f 298 370 299
f 299 370 435
f 299 435 371
f 299 371 300
f 300 371 372
f 300 372 302
f 301 306 373
f 301 373 315
f 302 372 374
f 302 374 303
f 303 374 375
f 303 375 304
f 304 375 376
f 304 376 305
f 305 376 378
f 305 378 377
f 306 377 439
f 306 439 373
f 308 379 309
f 308 314 379
f 309 379 380
f 309 380 381
f 309 381 310
f 311 315 382
f 311 382 312
f 312 383 384
f 312 384 313
f 312 382 385
f 312 385 386
f 312 386 383
f 313 384 314
f 314 384 387
f 314 387 379
f 315 373 388
f 315 388 382
f 316 317 350
f 317 321 389
f 317 389 350
f 318 326 390
f 318 390 391
f 318 391 319
f 319 391 320
f 320 391 392
f 320 392 393
f 320 393 394
f 320 394 321
f 321 394 389
f 322 348 347
f 322 347 323
f 323 347 324
f 324 395 325
f 324 347 396
f 324 396 395
f 325 395 390
f 325 390 326
f 327 328 397
f 327 397 335
f 327 335 334
f 328 398 397
f 329 338 330
f 330 399 331
f 330 338 400
f 330 400 401
f 330 401 399
f 331 402 332
f 331 399 402
f 332 402 403
f 332 403 333
f 333 403 342
f 335 397 404
f 335 404 405
f 335 405 336
f 336 405 406
f 336 406 337
f 337 406 338
f 338 406 407
f 338 407 408
f 338 408 400
f 339 409 410
f 339 410 340
f 339 342 409
f 340 410 411
f 340 411 341
f 341 411 344
f 342 403 412
f 342 412 409
f 343 344 413
f 343 413 345
f 344 411 414
f 344 414 413
f 345 413 415
f 345 415 416
f 345 416 349
f 346 349 417
f 346 417 347
f 347 417 418
f 347 418 396
f 349 416 417
f 350 389 419
f 350 419 351
f 351 419 352
f 352 419 353
f 353 420 421
f 353 421 422
f 353 422 355
f 353 355 354
f 353 419 420
f 355 422 423
f 355 423 424
f 355 424 356
f 356 424 357
f 357 424 358
f 358 425 426
f 358 426 427
f 358 427 359
f 358 424 425
f 359 427 428
f 359 428 360
f 360 428 361
f 361 363 362
f 361 428 429
f 361 429 430
f 361 430 431
f 361 431 363
f 363 432 364
f 363 431 433
f 363 433 432
f 364 432 365
f 365 432 433
f 365 433 434
f 371 435 503
f 371 503 436
f 371 436 437
f 371 437 372
f 372 437 438
f 372 438 374
f 373 439 388
f 374 438 440
f 374 440 375
f 375 440 441
f 375 441 376
f 376 441 442
f 376 442 378
f 377 378 443
f 377 443 439
f 378 442 444
f 378 444 443
f 379 445 380
f 379 387 445
f 380 446 447
f 380 447 448
f 380 448 449
f 380 449 381
f 380 445 450
f 380 450 446
f 382 388 385
f 383 451 384
f 383 386 452
f 383 452 453
f 383 453 451
f 384 451 387
f 385 454 455
f 385 455 456
f 385 456 457
f 385 457 386
f 385 388 454
f 386 457 519
f 386 519 452
f 387 451 458
f 387 458 445
f 388 439 454
f 389 394 459
f 389 459 419
f 390 395 460
f 390 460 391
f 391 460 461
f 391 461 392
f 392 461 462
f 392 462 393
f 393 463 394
f 393 462 464
f 393 464 463
f 394 463 459
f 395 396 465
f 395 465 460
f 396 418 466
f 396 466 467
f 396 467 465
f 397 398 468
f 397 468 404
f 399 401 469
f 399 469 470
f 399 470 471
f 399 471 402
f 400 408 472
f 400 472 401
f 401 472 469
f 402 471 403
f 403 471 412
f 404 468 473
f 404 473 474
f 404 474 405
f 405 474 475
f 405 475 406
f 406 475 476
f 406 476 407
f 407 476 408
f 408 476 477
f 408 477 478
f 408 478 472
f 409 479 480
f 409 480 410
f 409 412 481
f 409 481 479
f 410 480 411
f 411 480 414
f 412 471 481
f 413 414 415
f 414 480 415
f 415 482 417
f 415 417 416
f 415 480 483
f 415 483 484
f 415 484 482
f 417 482 466
f 417 466 418
f 419 459 420
f 420 459 485
f 420 485 421
f 421 485 486
f 421 486 487
f 421 487 422
f 422 487 423
f 423 487 488
f 423 488 489
f 423 489 424
f 424 489 425
f 425 489 490
f 425 490 426
f 426 490 491
f 426 491 492
f 426 492 493
f 426 493 427
f 427 493 429
f 427 429 428
f 429 493 494
f 429 494 495
f 429 495 430
f 430 495 496
f 430 496 497
f 430 497 498
f 430 498 499
f 430 499 431
f 431 499 498
f 431 498 500
f 431 500 501
f 431 501 433
f 433 501 434
f 434 501 502
f 436 503 504
f 436 504 505
f 436 505 506
f 436 506 507
f 436 507 437
f 437 507 438
f 438 507 508
f 438 508 440
f 439 443 509
f 439 509 454
f 440 508 510
f 440 510 511
f 440 511 441
f 441 511 442
f 442 511 512
f 442 512 444
f 443 444 513
f 443 513 521
f 443 521 509
f 444 512 514
f 444 514 513
f 445 458 515
f 445 515 450
f 450 515 516
f 451 453 517
f 451 517 458
f 452 518 453
f 452 519 518
f 453 518 520
f 453 520 517
f 454 509 455
f 455 509 521
f 455 521 522
f 455 522 523
f 455 523 456
f 456 523 524
f 456 524 457
f 457 524 519
f 458 525 515
f 458 517 525
f 459 463 485
f 460 465 461
f 461 465 526
f 461 526 527
f 461 527 528
f 461 528 462
f 462 528 529
f 462 529 464
f 463 464 530
f 463 530 485
f 464 529 531
f 464 531 530
f 465 467 532
f 465 532 526
f 466 482 533
f 466 533 467
f 467 533 532
f 469 472 534
f 469 534 535
f 469 535 536
f 469 536 470
f 470 536 537
f 470 537 471
f 471 537 538
f 471 538 481
f 472 478 539
f 472 539 534
f 473 540 474
f 474 540 541
f 474 541 475
f 475 542 476
f 475 541 542
f 476 542 543
f 476 543 477
f 477 543 544
f 477 544 478
f 478 544 539
f 479 481 545
f 479 545 480
f 480 545 483
f 481 538 546
f 481 546 547
f 481 547 545
f 482 484 533
f 483 545 548
f 483 548 484
f 484 548 549
f 484 549 533
f 485 530 550
f 485 550 486
f 486 550 551
f 486 551 552
f 486 552 488
f 486 488 487
f 488 552 553
f 488 553 489
f 489 553 490
f 490 553 554
f 490 554 491
f 491 554 555
f 491 555 556
f 491 556 492
f 492 556 494
f 492 494 493
f 494 556 616
f 494 616 557
f 494 557 495
f 495 557 496
f 496 557 497
f 497 557 558
f 497 558 559
f 497 559 498
f 498 559 560
f 498 560 561
f 498 561 500
f 500 562 565
f 500 565 501
f 500 561 563
f 500 563 564
f 500 564 562
f 501 565 566
f 501 566 502
f 505 567 568
f 505 568 506
f 506 568 507
f 507 568 569
f 507 569 570
f 507 570 508
f 508 570 571
f 508 571 510
f 510 571 572
f 510 572 511
f 511 572 573
f 511 573 512
f 512 573 574
f 512 574 514
f 513 514 575
f 513 575 576
f 513 576 521
f 514 574 575
f 515 525 577
f 515 577 516
f 516 577 578
f 517 579 525
f 517 520 579
f 518 519 580
f 518 580 581
f 518 581 520
f 519 524 582
f 519 582 580
f 520 581 583
f 520 583 579
f 521 576 584
f 521 584 522
f 522 584 585
f 522 585 586
f 522 586 523
f 523 587 524
f 523 586 587
f 524 587 582
f 525 579 588
f 525 588 577
f 526 532 527
f 527 589 590
f 527 590 591
f 527 591 592
f 527 592 528
f 527 532 589
f 528 592 529
f 529 592 593
f 529 593 531
f 530 531 550
f 531 593 594
f 531 594 550
f 532 533 549
f 532 549 595
f 532 595 589
f 534 539 535
f 535 596 536
f 535 539 597
f 535 597 598
f 535 598 596
f 536 599 537
f 536 596 599
f 537 599 600
f 537 600 538
f 538 600 546
f 539 544 601
f 539 601 602
f 539 602 597
f 540 603 541
f 541 603 604
f 541 604 605
f 541 605 542
f 542 605 543
f 543 605 606
f 543 606 583
f 543 583 544
f 544 583 581
f 544 581 601
f 545 547 607
f 545 607 548
f 546 600 608
f 546 608 609
f 546 609 547
f 547 609 607
f 548 595 549
f 548 607 595
f 550 594 610
f 550 610 551
f 551 610 611
f 551 611 552
f 552 611 612
f 552 612 553
f 553 612 554
f 554 612 613
f 554 613 555
f 555 613 614
f 555 614 615
f 555 615 556
f 556 615 616
f 557 616 558
f 558 616 617
f 558 617 656
f 558 656 618
f 558 618 559
f 559 618 619
f 559 619 620
f 559 620 560
f 560 620 621
f 560 621 561
f 561 621 657
f 561 657 622
f 561 622 563
f 567 623 568
f 568 623 621
f 568 621 620
f 568 620 569
f 569 620 619
f 569 619 570
f 570 619 624
f 570 624 571
f 571 624 625
f 571 625 572
f 572 625 573
f 573 625 626
f 573 626 574
f 574 626 627
f 574 627 575
f 575 628 576
f 575 627 629
f 575 629 630
f 575 630 628
f 576 628 584
f 577 588 631
f 577 631 578
f 578 631 632
f 579 606 588
f 579 583 606
f 580 582 602
f 580 602 581
f 581 602 601
f 582 587 633
f 582 633 602
f 584 628 634
f 584 634 585
f 585 634 635
f 585 635 636
f 585 636 586
f 586 636 587
f 587 636 637
f 587 637 633
f 588 606 605
f 588 605 631
f 589 595 590
f 590 638 639
f 590 639 640
f 590 640 641
f 590 641 591
f 590 595 638
f 591 642 592
f 591 641 642
f 592 642 593
f 593 642 643
f 593 643 594
f 594 643 610
f 595 607 638
f 596 598 644
f 596 644 645
f 596 645 646
f 596 646 599
f 597 602 633
f 597 633 598
f 598 633 637
f 598 637 644
f 599 646 600
f 600 646 608
f 603 647 604
f 604 647 632
f 604 632 605
f 605 632 631
f 607 609 638
f 608 639 609
f 608 646 639
f 609 639 638
f 610 643 648
f 610 648 649
f 610 649 650
f 610 650 611
f 611 650 651
f 611 651 612
f 612 651 613
f 613 651 652
f 613 652 614
f 614 652 653
f 614 653 654
f 614 654 615
f 615 654 617
f 615 617 616
f 617 654 655
f 617 655 656
f 618 656 624
f 618 624 619
f 621 623 657
f 624 656 625
f 625 656 655
f 625 655 626
f 626 655 629
f 626 629 627
f 628 630 658
f 628 658 659
f 628 659 634
f 629 655 653
f 629 653 630
f 630 653 660
f 630 660 658
f 634 659 661
f 634 661 635
f 635 661 662
f 635 662 636
f 636 644 637
f 636 662 663
f 636 663 644
f 639 664 640
f 639 646 665
f 639 665 664
f 640 666 641
f 640 664 666
f 641 666 667
f 641 667 642
f 642 667 643
f 643 667 648
f 644 663 665
f 644 665 645
f 645 665 646
f 648 667 668
f 648 668 649
f 649 668 669
f 649 669 670
f 649 670 671
f 649 671 672
f 649 672 650
f 650 672 651
f 651 672 652
f 652 672 660
f 652 660 653
f 653 655 654
f 658 660 672
f 658 672 671
f 658 671 670
f 658 670 659
f 659 670 661
f 661 670 673
f 661 673 662
f 662 665 663
f 662 673 674
f 662 674 665
f 664 674 675
f 664 675 666
f 664 665 674
f 666 668 667
f 666 675 668
f 668 675 669
f 669 675 673
f 669 673 670
f 673 675 674
