v 0.29665151 -0.22872353 0.30579299
v -0.00092705 -0.24617106 0.30579299
v 0.29665151 -0.46185258 0.30579299
v 0.29665151 -0.24845776 0.00098470
v -0.00092705 -0.25312263 0.00098470
v -0.00092705 -0.43036473 0.30579299
v 0.28992212 -0.46228707 0.30579299
v 0.29665151 -0.46182972 0.28977084
v 0.29665151 -0.42949578 0.00098470
v -0.00092705 -0.39565262 0.00098470
v 0.27119055 -0.46130377 0.30579299
v 0.28965995 -0.46146387 0.28965151
v 0.29665151 -0.46068639 0.27535990
v 0.29609799 -0.46066350 0.27559859
f 1 2 6
f 1 6 11
f 1 11 7
f 1 7 3
f 1 3 8
f 1 8 13
f 1 13 9
f 1 9 4
f 1 4 5
f 1 5 2
f 2 5 10
f 2 10 6
f 3 7 8
f 4 9 10
f 4 10 5
f 6 10 9
f 6 9 11
f 7 11 12
f 7 12 8
f 8 12 13
f 9 13 14
f 9 14 11
f 11 14 12
f 12 14 13
