v -0.34907800 -0.02722368 -0.60408401
v -0.34907800 -0.02722368 -0.82929558
v -0.00131449 -0.02722368 -0.69609529
v -0.00131449 0.38193631 -0.87904751
v -0.00131449 0.39193916 -0.88384426
v -0.34907800 0.37226847 -0.80206090
v -0.33226171 -0.02722368 -0.83647096
v -0.34907800 -0.01209973 -0.83722419
v -0.33767423 -0.01813017 -0.83904779
v -0.00131449 -0.02722368 -0.90108895
v -0.00131449 0.39978829 -0.88816535
v -0.34907800 0.39189130 -0.81181306
v -0.32797253 -0.02722368 -0.83821523
v -0.34907800 -0.00334124 -0.84166420
v -0.33059371 -0.01090322 -0.84550953
v -0.32436419 -0.02334696 -0.84170383
v -0.34563982 -0.00482492 -0.84237778
v -0.01002900 -0.02722368 -0.90104932
v -0.00131449 -0.02473491 -0.90227824
v -0.00131449 0.40998259 -0.89379466
v -0.34907800 0.39428431 -0.81320053
v -0.32174301 -0.02722368 -0.84071279
v -0.34907800 0.00316779 -0.84475636
v -0.30942017 -0.00908452 -0.85462743
v -0.33021924 0.01010758 -0.85573745
v -0.31568372 0.00350282 -0.85835385
v -0.31554753 -0.02722368 -0.84309137
v -0.03001112 -0.02722368 -0.90057361
v -0.03001112 -0.02420846 -0.90204042
v -0.01002900 -0.02468707 -0.90223861
v -0.01002900 -0.00999387 -0.90909684
v -0.00131449 -0.00999387 -0.90913647
v -0.00131449 0.41438577 -0.89645076
v -0.34907800 0.40964758 -0.82227880
v -0.34907800 0.00876747 -0.84737277
v -0.28998271 -0.01616788 -0.85811603
v -0.30924994 -0.02722368 -0.84546989
v -0.30233961 -0.00180972 -0.86085141
v -0.33702746 0.02264704 -0.85878992
v -0.32368338 0.01685591 -0.86144602
v -0.30942017 0.01010758 -0.86374533
v -0.05002725 -0.02722368 -0.89978075
v -0.05002725 -0.02339482 -0.90160429
v -0.05002725 -0.00999387 -0.90782827
v -0.03001112 -0.00999387 -0.90862113
v -0.03001112 0.00800170 -0.91658938
v -0.01002900 0.00747524 -0.91682720
v -0.00131449 0.00747524 -0.91682720
v -0.00131449 0.42008117 -0.89989966
v -0.34907800 0.41079623 -0.82299238
v -0.34907800 0.02886891 -0.85653031
v -0.27963424 -0.01975742 -0.85986030
v -0.28998271 -0.02722368 -0.85244709
v -0.28998271 -0.00616503 -0.86299211
v -0.28998271 0.01001185 -0.87064320
v -0.34907800 0.03107050 -0.85752136
v -0.34417608 0.03600013 -0.86172354
v -0.33021924 0.02963468 -0.86453819
v -0.30829680 0.03174055 -0.87385428
v -0.28998271 0.02542295 -0.87762034
v -0.07000937 -0.02722368 -0.89851218
v -0.07000937 -0.02210259 -0.90100968
v -0.07000937 -0.00999387 -0.90659934
v -0.05002725 0.00895892 -0.91619295
v -0.03001112 0.01800457 -0.92083114
v -0.01002900 0.01747809 -0.92102939
v -0.00131449 0.01747809 -0.92106903
v -0.34907800 0.41127485 -0.82330948
v -0.00131449 0.42443648 -0.90374506
v -0.34907800 0.42615947 -0.83448881
v -0.27177075 -0.01186043 -0.86628246
v -0.26632416 -0.02401701 -0.86204064
v -0.27415362 -0.02722368 -0.85783851
v -0.27115801 0.00977255 -0.87678784
v -0.27864704 0.02101979 -0.87956285
v -0.34907800 0.03839317 -0.86069280
v -0.34907800 0.04964040 -0.86541033
v -0.32868740 0.05136338 -0.87436962
v -0.31384549 0.04557225 -0.87765998
v -0.30050141 0.03958967 -0.88015747
v -0.28998271 0.03542581 -0.88198107
v -0.07630696 -0.02722368 -0.89799684
v -0.08440873 -0.02085821 -0.90041506
v -0.09063824 -0.01166898 -0.90402257
v -0.09002551 0.01001185 -0.91369545
v -0.06909025 0.01183055 -0.91623259
v -0.06180546 0.01972754 -0.92011756
v -0.05002725 0.01896177 -0.92043471
v -0.03001112 0.03001757 -0.92562795
v -0.01002900 0.03001757 -0.92606401
v -0.00131449 0.03001757 -0.92606401
v -0.00131449 0.43008405 -0.90874004
v -0.00131449 0.43487009 -0.91310078
v -0.00131449 0.44104409 -0.91873008
v -0.34907800 0.43606660 -0.84384453
v -0.24920151 -0.00870164 -0.87484533
v -0.25532889 0.00297634 -0.87861145
v -0.24923556 -0.02722368 -0.86560851
v -0.25774583 -0.02722368 -0.86303174
v -0.26370302 -0.02722368 -0.86120814
v -0.26904744 -0.02722368 -0.85950351
v -0.26530296 0.01628159 -0.88166392
v -0.27115801 0.02862962 -0.88519216
v -0.34907800 0.06567369 -0.87179285
v -0.33447438 0.06567369 -0.87781858
v -0.32116431 0.05892535 -0.88043499
v -0.30829680 0.05136338 -0.88213962
v -0.28998271 0.05002329 -0.88804644
v -0.26911554 0.05117193 -0.89530110
v -0.08958297 -0.02722368 -0.89680755
v -0.09771879 -0.01947026 -0.89974111
v -0.09169352 -0.02722368 -0.89660931
v -0.11000761 -0.00793587 -0.90362608
v -0.11000761 0.01001185 -0.91155469
v -0.09002551 0.02255131 -0.91896796
v -0.07511552 0.02092406 -0.91960222
v -0.06909025 0.02858175 -0.92309082
v -0.05002725 0.03001757 -0.92483509
v -0.03001112 0.05002329 -0.93331867
v -0.01002900 0.05002329 -0.93375474
v -0.00131449 0.04136051 -0.93042475
v -0.00131449 0.44846249 -0.92998868
v -0.34907800 0.44420290 -0.85391384
v -0.34907800 0.43664092 -0.84439957
v -0.22996831 -0.01454063 -0.87738252
v -0.24198481 -0.00118752 -0.88055390
v -0.24920151 0.00977255 -0.88348752
v -0.22996831 -0.02722368 -0.87099999
v -0.24998446 0.03001757 -0.89216930
v -0.34907800 0.07136910 -0.87405246
v -0.32868740 0.07141696 -0.88225859
v -0.34090814 0.07897893 -0.88035572
v -0.30999887 0.07002901 -0.88879967
v -0.28974444 0.07045974 -0.89609396
v -0.27517486 0.06404643 -0.89847255
v -0.26186478 0.05859032 -0.90057361
v -0.11000761 -0.01793872 -0.89902753
v -0.11000761 -0.02722368 -0.89450824
v -0.13002375 -0.00501637 -0.90231788
v -0.13002375 0.01001185 -0.90889865
v -0.11000761 0.02523151 -0.91789758
v -0.11000761 0.03523436 -0.92190152
v -0.09002551 0.03255418 -0.92293221
v -0.07000937 0.05002329 -0.93125725
v -0.05002725 0.05002329 -0.93248618
v -0.05002725 0.06533866 -0.93811548
v -0.03001112 0.06419002 -0.93851191
v -0.01002900 0.06356782 -0.93874979
v -0.00131449 0.05002329 -0.93375474
v -0.34907800 0.44453794 -0.85450852
v -0.00131449 0.45736456 -0.94806588
v -0.34907800 0.45296139 -0.86996925
v -0.21638593 -0.01817802 -0.87912679
v -0.22996831 -0.00453776 -0.88213962
v -0.22996831 0.01001185 -0.88879967
v -0.21083724 -0.02722368 -0.87591571
v -0.23136400 0.03001757 -0.89716434
v -0.24998446 0.04442360 -0.89819503
v -0.23898920 0.04064260 -0.89974111
v -0.34907800 0.08366926 -0.87865108
v -0.32998097 0.09003471 -0.88856179
v -0.34907800 0.09151839 -0.88150537
v -0.34853333 0.09199700 -0.88190180
v -0.30972654 0.09022616 -0.89621288
v -0.29624626 0.08371712 -0.89871037
v -0.28290218 0.07739952 -0.90093040
v -0.26911554 0.07045974 -0.90271431
v -0.24998446 0.07002901 -0.90810579
v -0.24998446 0.05437860 -0.90219897
v -0.13002375 -0.02722368 -0.89177287
v -0.13002375 -0.01501922 -0.89767969
v -0.14615922 -0.00228831 -0.90104932
v -0.15170792 0.00814529 -0.90465683
v -0.15000586 0.03001757 -0.91417116
v -0.13189602 0.03068762 -0.91726327
v -0.12648349 0.03781883 -0.92087078
v -0.11000761 0.05002329 -0.92753083
v -0.09002551 0.05002329 -0.92963189
v -0.07000937 0.06710951 -0.93748116
v -0.05002725 0.07534152 -0.94164371
v -0.03001112 0.07419287 -0.94200051
v -0.01002900 0.07357068 -0.94223833
v -0.00131449 0.06921537 -0.94073188
v -0.00131449 0.06356782 -0.93874979
v -0.00131449 0.45875251 -0.95238698
v -0.34907800 0.45875251 -0.88483536
v -0.34907800 0.45334429 -0.87080175
v -0.20981601 -0.01090322 -0.88412178
v -0.20304184 -0.02143255 -0.88071251
v -0.21396902 0.02331708 -0.89859146
v -0.20838627 0.01183055 -0.89486504
v -0.20831820 -0.02722368 -0.87651032
v -0.22564510 0.03667018 -0.90136647
v -0.23136400 0.04839602 -0.90465683
v -0.34907800 0.11004043 -0.88788784
v -0.32926610 0.11051904 -0.89581645
v -0.31619433 0.10420144 -0.89863110
v -0.30285025 0.09702235 -0.90100968
v -0.28974444 0.09022616 -0.90307111
v -0.26996657 0.09003471 -0.90929508
v -0.24879302 0.09137481 -0.91583616
v -0.22996831 0.08477005 -0.91841292
v -0.22996831 0.07002901 -0.91321969
v -0.15024415 -0.02722368 -0.88844287
v -0.15170792 -0.00937168 -0.89676785
v -0.15950331 0.00024830 -0.89989966
v -0.17002201 0.01254846 -0.90322971
v -0.17002201 0.03001757 -0.91056365
v -0.15000586 0.04231773 -0.91908687
v -0.13982758 0.04011615 -0.91995901
v -0.13189602 0.04806100 -0.92404222
v -0.13002375 0.07002901 -0.93232763
v -0.11000761 0.07002901 -0.93482512
v -0.09094462 0.07127337 -0.93724334
v -0.08491935 0.07878748 -0.94041479
v -0.07000937 0.07711236 -0.94100940
v -0.05002725 0.09003471 -0.94655943
v -0.03001112 0.09003471 -0.94735229
v -0.01002900 0.09003471 -0.94778836
v -0.00131449 0.08285563 -0.94537014
v -0.00131449 0.07357068 -0.94223833
v -0.00131449 0.46057123 -0.95805585
v -0.34907800 0.45889610 -0.88531107
v -0.18997006 -0.00999387 -0.88899785
v -0.18997006 -0.02425632 -0.88209999
v -0.18997006 -0.02722368 -0.88063323
v -0.19715273 -0.02722368 -0.87908715
v -0.20065896 0.01967968 -0.90013754
v -0.20838627 0.03001757 -0.90263504
v -0.18997006 0.00714022 -0.89684719
v -0.20998621 0.05002329 -0.91032577
v -0.33546156 0.12545153 -0.89827430
v -0.34907800 0.13124266 -0.89474607
v -0.32211748 0.11755454 -0.90077186
v -0.30972654 0.11051904 -0.90295219
v -0.28998271 0.11004043 -0.90945363
v -0.26921767 0.11080620 -0.91619295
v -0.25468212 0.10468005 -0.91853189
v -0.24133803 0.09888892 -0.92035544
v -0.21880284 0.08079763 -0.91972113
v -0.22996831 0.09477291 -0.92170328
v -0.21127978 0.06998114 -0.91754079
v -0.15279722 -0.02722368 -0.88796717
v -0.17002201 -0.00999387 -0.89304143
v -0.17002201 0.00254560 -0.89886898
v -0.18997006 0.01714307 -0.90124756
v -0.18997006 0.03001757 -0.90659934
v -0.17002201 0.04696020 -0.91730297
v -0.17002201 0.05696307 -0.92114830
v -0.15000586 0.05232058 -0.92289257
v -0.15000586 0.07002901 -0.92935437
v -0.13002375 0.08625373 -0.93791723
v -0.11000761 0.08247274 -0.93914616
v -0.09826344 0.08051047 -0.93982011
v -0.09094462 0.08831173 -0.94307083
v -0.07000937 0.09003471 -0.94533050
v -0.05002725 0.11004043 -0.95298159
v -0.03001112 0.11004043 -0.95377445
v -0.01002900 0.11004043 -0.95417088
v -0.00131449 0.10132981 -0.95139587
v -0.00131449 0.09003471 -0.94778836
v -0.00131449 0.46148056 -0.96998841
v -0.34907800 0.46104980 -0.89538038
v -0.34907800 0.46100196 -0.89486504
v -0.17985988 -0.02722368 -0.88273430
v -0.18642980 -0.02722368 -0.88138640
v -0.18847226 0.05179413 -0.91555864
v -0.19412307 0.06328066 -0.91880935
v -0.34094217 0.13880463 -0.90037537
v -0.32926610 0.13129053 -0.90239716
v -0.34907800 0.14521796 -0.89902753
v -0.30999887 0.13004614 -0.90893829
v -0.28913167 0.13081191 -0.91611362
v -0.27534506 0.12468576 -0.91857153
v -0.26203501 0.11803315 -0.92059332
v -0.24879302 0.11080620 -0.92202044
v -0.22996831 0.13004614 -0.93256545
v -0.22996831 0.11004043 -0.92653972
v -0.21127978 0.08850318 -0.92396295
v -0.20549279 0.07658589 -0.92118794
v -0.20998621 0.11004043 -0.93117797
v -0.16866036 -0.02722368 -0.88495427
v -0.17189427 -0.02722368 -0.88432002
v -0.18077898 0.05959539 -0.92015719
v -0.17002201 0.07002901 -0.92586583
v -0.17002201 0.09003471 -0.93272406
v -0.14949524 0.09127909 -0.93672800
v -0.14248279 0.09884106 -0.94037515
v -0.13002375 0.09625659 -0.94124728
v -0.11000761 0.09247560 -0.94247621
v -0.11000761 0.11004043 -0.94810551
v -0.09002551 0.11004043 -0.95012730
v -0.07000937 0.11004043 -0.95175266
v -0.07000937 0.12875392 -0.95742160
v -0.05002725 0.12669590 -0.95801628
v -0.03001112 0.12540367 -0.95841265
v -0.01002900 0.12473363 -0.95861089
v -0.00131449 0.11004043 -0.95417088
v -0.03001112 0.46152842 -0.96998841
v -0.26996657 0.46171987 -0.92998868
v -0.32998097 0.46157628 -0.90996897
v -0.00131449 0.46124125 -0.97526091
v -0.34907800 0.46124125 -0.91151506
v -0.18847226 0.06998114 -0.92229795
v -0.34907800 0.15000400 -0.90045470
v -0.34907800 0.15306708 -0.90136647
v -0.34516329 0.15000400 -0.90200078
v -0.32998097 0.15000400 -0.90774900
v -0.30870527 0.15120052 -0.91563791
v -0.30118221 0.15861890 -0.92039508
v -0.29522502 0.14526582 -0.91845256
v -0.28188094 0.13803886 -0.92055368
v -0.26921767 0.13081191 -0.92225832
v -0.24998446 0.15000400 -0.93323940
v -0.24998446 0.13004614 -0.92745155
v -0.23102358 0.14942968 -0.93795693
v -0.21706675 0.14234632 -0.93930477
v -0.21022449 0.13028544 -0.93732262
v -0.18997006 0.09003471 -0.92891830
v -0.19415712 0.12382428 -0.93882906
v -0.18850631 0.11171555 -0.93621260
v -0.17002201 0.10625944 -0.93803620
v -0.15582688 0.10219130 -0.93930477
v -0.14949524 0.10932253 -0.94255549
v -0.13002375 0.11004043 -0.94560802
v -0.13002375 0.13004614 -0.95171303
v -0.11000761 0.13004614 -0.95417088
v -0.08805113 0.13200843 -0.95694590
v -0.08008552 0.14000115 -0.95999837
v -0.07000937 0.13875677 -0.96035516
v -0.05002725 0.13669877 -0.96094984
v -0.03001112 0.13540652 -0.96130657
v -0.01002900 0.13473648 -0.96150482
v -0.00131449 0.13038117 -0.96027589
v -0.00131449 0.12473363 -0.95861089
v -0.05002725 0.46152842 -0.96998841
v -0.00131449 0.46090624 -0.98215878
v -0.18997006 0.46157628 -0.94996870
v -0.20998621 0.46152842 -0.94996870
v -0.28998271 0.46152842 -0.92998868
v -0.34907800 0.46119338 -0.91314042
v -0.34907800 0.16881320 -0.90584612
v -0.32998097 0.17000972 -0.91345757
v -0.31990480 0.18015616 -0.91995901
v -0.31578583 0.17000972 -0.91853189
v -0.28913167 0.15120052 -0.92206007
v -0.30581182 0.17000972 -0.92194116
v -0.28998271 0.19001544 -0.93236727
v -0.28998271 0.17000972 -0.92701542
v -0.26996657 0.15000400 -0.92753083
v -0.25846070 0.18159197 -0.93958229
v -0.25107378 0.16890892 -0.93815511
v -0.23837645 0.16149053 -0.93958229
v -0.22503236 0.15569940 -0.94120765
v -0.20372266 0.13717738 -0.94081122
v -0.21022449 0.14942968 -0.94287264
v -0.18084706 0.11946896 -0.94013727
v -0.18850631 0.13028544 -0.94188154
v -0.17002201 0.11626230 -0.94116795
v -0.15000586 0.13004614 -0.94877946
v -0.15000586 0.15000400 -0.95456731
v -0.13046628 0.15086550 -0.95765948
v -0.11000761 0.14512223 -0.95853162
v -0.09339558 0.14205915 -0.95940375
v -0.08805113 0.14923823 -0.96190125
v -0.07000937 0.17000972 -0.96895766
v -0.07000937 0.15000400 -0.96348697
v -0.05002725 0.15000400 -0.96471590
v -0.03001112 0.15000400 -0.96546912
v -0.01002900 0.15000400 -0.96582592
v -0.00131449 0.14339924 -0.96396267
v -0.07000937 0.46148056 -0.96998841
v -0.01002900 0.46090624 -0.98215878
v -0.03001112 0.46090624 -0.98203987
v -0.00131449 0.45813030 -0.98647988
v -0.01002900 0.45449293 -0.99214882
v -0.09002551 0.46138483 -0.96998841
v -0.15000586 0.46124125 -0.96546912
v -0.17002201 0.46119338 -0.96392304
v -0.24998446 0.46128911 -0.94576657
v -0.26996657 0.46114552 -0.94326907
v -0.32998097 0.46109766 -0.92348725
v -0.34907800 0.46095410 -0.91627222
v -0.34907800 0.18991971 -0.91171330
v -0.33086604 0.18810101 -0.91809577
v -0.33815080 0.20265062 -0.91932476
v -0.32480672 0.19346139 -0.92170328
v -0.30999887 0.21002115 -0.93101943
v -0.31193918 0.18810101 -0.92471617
v -0.26996657 0.17000972 -0.93308079
v -0.27068144 0.18896250 -0.93791723
v -0.28994867 0.20959041 -0.93736225
v -0.27779600 0.20265062 -0.93934441
v -0.26448596 0.19494507 -0.94128692
v -0.25107378 0.18896250 -0.94346726
v -0.24515063 0.17484364 -0.94136620
v -0.22996831 0.19001544 -0.94913620
v -0.23102358 0.16890892 -0.94334835
v -0.20998621 0.17000972 -0.94858122
v -0.18997006 0.15000400 -0.94731265
v -0.18997006 0.17000972 -0.95282304
v -0.17002201 0.13004614 -0.94533050
v -0.17002201 0.15000400 -0.95111835
v -0.15000586 0.16498436 -0.95869017
v -0.13741067 0.16129909 -0.95964158
v -0.12406657 0.15814030 -0.96051371
v -0.11000761 0.15512508 -0.96134627
v -0.09002551 0.17000972 -0.96737194
v -0.07000937 0.19001544 -0.97411126
v -0.05002725 0.17000972 -0.97014701
v -0.03001112 0.17000972 -0.97090018
v -0.00131449 0.15000400 -0.96582592
v -0.01002900 0.17000972 -0.97125697
v -0.00131449 0.16134696 -0.96891809
v -0.05002725 0.46081051 -0.98176235
v -0.00131449 0.45444506 -0.99214882
v -0.00131449 0.45013762 -0.99678707
v -0.01002900 0.44449008 -1.00289202
v -0.03001112 0.45420575 -0.99202991
v -0.07000937 0.46066692 -0.98136592
v -0.09002551 0.46042764 -0.98085058
v -0.18997006 0.46100196 -0.96257520
v -0.20998621 0.46061909 -0.96130657
v -0.22275162 0.46023619 -0.96043444
v -0.28998271 0.46052337 -0.94116795
v -0.34608239 0.46061909 -0.92146546
v -0.34907800 0.45650306 -0.92558831
v -0.34907800 0.20930324 -0.91678756
v -0.34907800 0.21006902 -0.91698581
v -0.34261018 0.21600372 -0.92098975
v -0.33086604 0.20959041 -0.92364579
v -0.32998097 0.22997901 -0.92891830
v -0.30890954 0.23064905 -0.93637121
v -0.29658669 0.22442718 -0.93894798
v -0.28324258 0.21595587 -0.94096977
v -0.27068144 0.20959041 -0.94311047
v -0.24998446 0.21002115 -0.94901729
v -0.20998621 0.19001544 -0.95377445
v -0.22996831 0.21002115 -0.95409161
v -0.19756122 0.20202844 -0.95952266
v -0.19054876 0.19006330 -0.95789731
v -0.17529836 0.18341067 -0.95912623
v -0.16920502 0.17120624 -0.95706481
v -0.16198832 0.17867248 -0.96035516
v -0.15000586 0.17498723 -0.96130657
v -0.15000586 0.19001544 -0.96519160
v -0.13002375 0.19001544 -0.96808553
v -0.13046628 0.16881320 -0.96253550
v -0.11000761 0.17000972 -0.96535015
v -0.09002551 0.19001544 -0.97252554
v -0.05002725 0.19001544 -0.97530055
v -0.07000937 0.20714952 -0.97831345
v -0.05002725 0.20466077 -0.97890806
v -0.03001112 0.19001544 -0.97605377
v -0.00131449 0.17000972 -0.97125697
v -0.01002900 0.19001544 -0.97641057
v -0.00131449 0.18135267 -0.97419059
v -0.00131449 0.44449008 -1.00285244
v -0.03001112 0.44420290 -1.00269389
v -0.00131449 0.42998832 -1.00741136
v -0.01002900 0.42998832 -1.00741136
v -0.05002725 0.45358357 -0.99175239
v -0.10476529 0.46018833 -0.98037487
v -0.11810938 0.45985329 -0.97930449
v -0.23606166 0.45951828 -0.95809555
v -0.30039927 0.46004474 -0.94009763
v -0.17002201 0.45707738 -0.97391307
v -0.18997006 0.45511511 -0.97256517
v -0.18997006 0.44516009 -0.98350668
v -0.24998446 0.44841462 -0.96705484
v -0.32998097 0.45631161 -0.93351692
v -0.34907800 0.45224348 -0.93105900
v -0.34907800 0.22107694 -0.91972113
v -0.34907800 0.23079264 -0.92206007
v -0.34907800 0.24998473 -0.92642081
v -0.32998097 0.24998473 -0.93343759
v -0.31554753 0.24998473 -0.93851191
v -0.30152261 0.23778027 -0.94049406
v -0.28994867 0.23064905 -0.94239694
v -0.26996657 0.22997901 -0.94818479
v -0.24998446 0.22997901 -0.95369518
v -0.21093936 0.20920752 -0.95829374
v -0.23081934 0.22902180 -0.95829374
v -0.21825819 0.22169913 -0.95960194
v -0.20491409 0.21533367 -0.96106875
v -0.18997006 0.22997901 -0.96745127
v -0.19054876 0.20920752 -0.96257520
v -0.18425117 0.19676377 -0.96079123
v -0.16920502 0.19006330 -0.96190125
v -0.17002201 0.21002115 -0.96665841
v -0.15000586 0.21002115 -0.97002804
v -0.11000761 0.19001544 -0.97050375
v -0.13002375 0.21002115 -0.97292197
v -0.11000761 0.21002115 -0.97537982
v -0.08944681 0.21145697 -0.97775841
v -0.08240031 0.21901894 -0.98021626
v -0.03001112 0.20298564 -0.97926486
v -0.07000937 0.21715237 -0.98065233
v -0.05002725 0.21461576 -0.98124701
v -0.03001112 0.21298851 -0.98164344
v -0.01002900 0.20221987 -0.97946310
v -0.00131449 0.19001544 -0.97641057
v -0.00131449 0.19690736 -0.97815484
v -0.03001112 0.42998832 -1.00701487
v -0.05002725 0.44358072 -1.00225782
v -0.00131449 0.42127770 -1.00812495
v -0.01002900 0.40998259 -1.00907636
v -0.07000937 0.45262635 -0.99135596
v -0.07000937 0.44262350 -1.00158381
v -0.13002375 0.44941968 -0.98830342
v -0.15000586 0.44846249 -0.98687631
v -0.17002201 0.44707453 -0.98529059
v -0.24998446 0.45841748 -0.95575660
v -0.26996657 0.45602447 -0.95329875
v -0.26996657 0.44602162 -0.96443838
v -0.32998097 0.44630876 -0.94489443
v -0.10136118 0.44023049 -1.00011706
v -0.20998621 0.44252777 -0.98160380
v -0.34907800 0.45066407 -0.93288261
v -0.34907800 0.26994258 -0.93050402
v -0.32967460 0.26879394 -0.93744159
v -0.31918994 0.26137555 -0.93970120
v -0.30557352 0.24998473 -0.94184190
v -0.28998271 0.24998473 -0.94671798
v -0.26996657 0.24998473 -0.95262480
v -0.25015467 0.24931468 -0.95789731
v -0.23800200 0.24218345 -0.95952266
v -0.22469196 0.23500437 -0.96106875
v -0.21093936 0.22902180 -0.96285266
v -0.17002201 0.22997901 -0.97121733
v -0.20998621 0.24998473 -0.96757019
v -0.18997006 0.24998473 -0.97169304
v -0.15000586 0.22997901 -0.97458696
v -0.12958121 0.23103194 -0.97779810
v -0.12260281 0.23840247 -0.98033524
v -0.11000761 0.22514509 -0.97882879
v -0.09574441 0.22174700 -0.97958201
v -0.08944681 0.22902180 -0.98176235
v -0.09002551 0.24998473 -0.98616272
v -0.07000937 0.24998473 -0.98778808
v -0.07000937 0.22997901 -0.98354632
v -0.05002725 0.22997901 -0.98469591
v -0.03001112 0.22997901 -0.98548877
v -0.01002900 0.22997901 -0.98584557
v -0.01002900 0.21222274 -0.98180199
v -0.00131449 0.20221987 -0.97946310
v -0.00131449 0.20786743 -0.98081094
v -0.05002725 0.42998832 -1.00610316
v -0.03001112 0.40998259 -1.00860059
v -0.00131449 0.40998259 -1.00903666
v -0.00131449 0.40127197 -1.00879884
v -0.00131449 0.38997686 -1.00848174
v -0.01002900 0.38997686 -1.00848174
v -0.03001112 0.38997686 -1.00804567
v -0.09002551 0.44123554 -1.00071168
v -0.22179846 0.44066122 -0.98037487
v -0.28998271 0.44238418 -0.96158409
v -0.30026311 0.44013476 -0.96007764
v -0.34594619 0.44305426 -0.94211942
v -0.34907800 0.44697881 -0.93676764
v -0.07000937 0.42998832 -1.00475526
v -0.09002551 0.42998832 -1.00293171
v -0.10881618 0.42946184 -1.00094950
v -0.11470528 0.43573159 -0.99932420
v -0.34907800 0.28899109 -0.93399262
v -0.33665299 0.28999615 -0.93878943
v -0.32283235 0.27468076 -0.94096977
v -0.31149668 0.26879394 -0.94366550
v -0.28998271 0.26999044 -0.95072192
v -0.26891130 0.27056476 -0.95702517
v -0.25689480 0.26429504 -0.95916587
v -0.24358474 0.25553656 -0.96091020
v -0.23081934 0.24931468 -0.96269411
v -0.17002201 0.24998473 -0.97545910
v -0.15112922 0.24955398 -0.97855127
v -0.22996831 0.26999044 -0.96693587
v -0.20998621 0.26999044 -0.97145522
v -0.18997006 0.26999044 -0.97557807
v -0.13594690 0.24261419 -0.97942340
v -0.11000761 0.23514795 -0.98104882
v -0.12958121 0.24955398 -0.98168308
v -0.11000761 0.24998473 -0.98414093
v -0.09002551 0.26999044 -0.99004775
v -0.07000937 0.26999044 -0.99163347
v -0.05002725 0.26999044 -0.99282277
v -0.05002725 0.24998473 -0.98893774
v -0.03001112 0.24998473 -0.98969096
v -0.01002900 0.24998473 -0.99008739
v -0.00131449 0.22997901 -0.98584557
v -0.00131449 0.22222559 -0.98410130
v -0.05002725 0.40998259 -1.00768888
v -0.05002725 0.38997686 -1.00717354
v -0.00131449 0.38131410 -1.00788713
v -0.01002900 0.36997116 -1.00713384
v -0.03001112 0.36997116 -1.00669777
v -0.05002725 0.36997116 -1.00586534
v -0.17002201 0.42998832 -0.99202991
v -0.18997006 0.42998832 -0.98850167
v -0.20998621 0.42998832 -0.98457700
v -0.22574723 0.42998832 -0.98124701
v -0.23572126 0.42998832 -0.97898734
v -0.24998446 0.42998832 -0.97553843
v -0.26996657 0.42998832 -0.97030556
v -0.28998271 0.42998832 -0.96455729
v -0.30244172 0.42998832 -0.96079123
v -0.31244981 0.42998832 -0.95738196
v -0.32998097 0.42998832 -0.95131660
v -0.34907800 0.43070620 -0.94437909
v -0.34907800 0.43625805 -0.94287264
v -0.07000937 0.40998259 -1.00630140
v -0.09002551 0.40998259 -1.00443816
v -0.12250068 0.42242634 -1.00031531
v -0.12951314 0.42946184 -0.99829346
v -0.15000586 0.42998832 -0.99524099
v -0.34907800 0.30894893 -0.93720371
v -0.33941033 0.30143481 -0.93978047
v -0.32667899 0.28999615 -0.94231761
v -0.30999887 0.28999615 -0.94798660
v -0.28998271 0.28999615 -0.95428979
v -0.27520889 0.28999615 -0.95861089
v -0.26152438 0.27764812 -0.96039480
v -0.25015467 0.27056476 -0.96209943
v -0.17128152 0.26874608 -0.97882879
v -0.15851612 0.26127982 -0.97974056
v -0.14520606 0.25596729 -0.98081094
v -0.22996831 0.28999615 -0.97042447
v -0.20998621 0.28999615 -0.97490412
v -0.19061685 0.28879964 -0.97867024
v -0.17877056 0.28133339 -0.97974056
v -0.13002375 0.26999044 -0.98556811
v -0.11000761 0.26999044 -0.98802596
v -0.09002551 0.28999615 -0.99345702
v -0.07000937 0.28999615 -0.99508238
v -0.05002725 0.28999615 -0.99627167
v -0.03001112 0.26999044 -0.99357593
v -0.01002900 0.26999044 -0.99393272
v -0.00131449 0.26127982 -0.99226773
v -0.00131449 0.24998473 -0.99008739
v -0.07000937 0.38997686 -1.00582564
v -0.07000937 0.36997116 -1.00455701
v -0.00131449 0.36997116 -1.00709414
v -0.00131449 0.36130840 -1.00630140
v -0.00131449 0.34996545 -1.00523102
v -0.01002900 0.34996545 -1.00523102
v -0.03001112 0.34996545 -1.00483453
v -0.05002725 0.34996545 -1.00404167
v -0.07000937 0.34996545 -1.00277317
v -0.17002201 0.40998259 -0.99349666
v -0.18997006 0.40998259 -0.98988914
v -0.20998621 0.40998259 -0.98592484
v -0.22853859 0.40998259 -0.98192096
v -0.23851262 0.40998259 -0.97966129
v -0.24998446 0.40998259 -0.97680700
v -0.26996657 0.40998259 -0.97153449
v -0.28998271 0.40998259 -0.96578628
v -0.30424592 0.40998259 -0.96138591
v -0.31425399 0.40998259 -0.95805585
v -0.32998097 0.40998259 -0.95262480
v -0.34907800 0.42840892 -0.94453764
v -0.09002551 0.38997686 -1.00400209
v -0.11000761 0.40998259 -1.00221813
v -0.12379424 0.40998259 -1.00051343
v -0.13380231 0.40998259 -0.99912596
v -0.15000586 0.40998259 -0.99674737
v -0.34907800 0.32330710 -0.93914616
v -0.34196341 0.31474006 -0.94073188
v -0.33161491 0.30885321 -0.94354653
v -0.30999887 0.30995402 -0.95111835
v -0.28916574 0.30947542 -0.95754051
v -0.27874917 0.30248776 -0.95964158
v -0.26520082 0.28999615 -0.96146518
v -0.24998446 0.28999615 -0.96550876
v -0.16546050 0.27458507 -0.98096949
v -0.15112922 0.26874608 -0.98227775
v -0.24998446 0.30995402 -0.96852160
v -0.22996831 0.30995402 -0.97339773
v -0.20927134 0.30990615 -0.97803593
v -0.19773144 0.30320567 -0.97954237
v -0.18438733 0.29468650 -0.98085058
v -0.17128152 0.28879964 -0.98231733
v -0.15000586 0.28999615 -0.98608345
v -0.13002375 0.28999615 -0.98897737
v -0.11000761 0.28999615 -0.99143523
v -0.09002551 0.30995402 -0.99643028
v -0.06847751 0.31172484 -0.99841237
v -0.05002725 0.30756098 -0.99892777
v -0.03001112 0.30483294 -0.99928457
v -0.03001112 0.28999615 -0.99702489
v -0.01002900 0.28999615 -0.99738169
v -0.00131449 0.28128552 -0.99591488
v -0.00131449 0.26999044 -0.99393272
v -0.09002551 0.36997116 -1.00281274
v -0.09033187 0.34967828 -1.00102878
v -0.00131449 0.34130269 -1.00427961
v -0.01002900 0.32995972 -1.00301099
v -0.03001112 0.32995972 -1.00261450
v -0.05002725 0.32995972 -1.00186133
v -0.06847751 0.33010331 -1.00075138
v -0.08386408 0.33685166 -1.00035489
v -0.15000586 0.38997686 -0.99631131
v -0.17002201 0.38997686 -0.99302095
v -0.18997006 0.38997686 -0.98937380
v -0.20998621 0.38997686 -0.98540950
v -0.22724503 0.38997686 -0.98164344
v -0.23725310 0.38997686 -0.97934413
v -0.24998446 0.38997686 -0.97621238
v -0.26996657 0.38997686 -0.97090018
v -0.28998271 0.38997686 -0.96511233
v -0.30329275 0.38997686 -0.96106875
v -0.31326681 0.38997686 -0.95777839
v -0.32998097 0.38997686 -0.95199049
v -0.34907800 0.40998259 -0.94572693
v -0.11000761 0.38997686 -1.00178206
v -0.10987145 0.37135911 -1.00075138
v -0.12056034 0.37896895 -1.00003779
v -0.12233047 0.38997686 -1.00031531
v -0.13230450 0.38997686 -0.99892777
v -0.34907800 0.32995972 -0.94001836
v -0.34455055 0.32995972 -0.94172299
v -0.32998097 0.32995972 -0.94695586
v -0.30999887 0.32995972 -0.95373482
v -0.29495269 0.32995972 -0.95849192
v -0.28194901 0.31579301 -0.96055341
v -0.27126011 0.30947542 -0.96273375
v -0.26996657 0.32995972 -0.96570694
v -0.24998446 0.32995972 -0.97105879
v -0.22996831 0.32995972 -0.97593486
v -0.21597743 0.32995972 -0.97910631
v -0.20215677 0.31655878 -0.98045415
v -0.19061685 0.30990615 -0.98184168
v -0.17002201 0.30995402 -0.98568702
v -0.15000586 0.30995402 -0.98905665
v -0.13002375 0.30995402 -0.99195063
v -0.11000761 0.30995402 -0.99440849
v -0.09033187 0.33010331 -0.99896741
v -0.07409429 0.32354641 -0.99956203
v -0.06078424 0.31957400 -1.00003779
v -0.05002725 0.31756383 -1.00031531
v -0.03001112 0.31478792 -1.00071168
v -0.01002900 0.30344498 -0.99948275
v -0.00131449 0.29760599 -0.99857098
v -0.00131449 0.28999615 -0.99738169
v -0.10309727 0.35613945 -1.00035489
v -0.09720817 0.34283423 -0.99972063
v -0.00131449 0.32995972 -1.00301099
v -0.00131449 0.31339997 -1.00090992
v -0.01002900 0.31344783 -1.00090992
v -0.15000586 0.36997116 -0.99516165
v -0.17002201 0.36997116 -0.99187130
v -0.18997006 0.36997116 -0.98818451
v -0.20998621 0.36997116 -0.98418057
v -0.22455579 0.36997116 -0.98104882
v -0.23456386 0.36997116 -0.97870988
v -0.24998446 0.36997116 -0.97494376
v -0.26996657 0.36997116 -0.96963161
v -0.28998271 0.36997116 -0.96384376
v -0.30135244 0.36997116 -0.96043444
v -0.31136048 0.36997116 -0.95714408
v -0.32998097 0.36997116 -0.95080125
v -0.34907800 0.38906753 -0.94501334
v -0.34907800 0.38997686 -0.94505298
v -0.11644137 0.36561584 -0.99956203
v -0.12832171 0.37135911 -0.99841237
v -0.34907800 0.34996545 -0.94219869
v -0.34747806 0.34996545 -0.94279337
v -0.32998097 0.34996545 -0.94909656
v -0.30805850 0.35168844 -0.95666838
v -0.29798236 0.34618446 -0.95936412
v -0.28494462 0.32995972 -0.96146518
v -0.26996657 0.34996545 -0.96784770
v -0.24998446 0.34996545 -0.97319949
v -0.22915134 0.34910396 -0.97815484
v -0.21914326 0.34187701 -0.97978020
v -0.20596936 0.32995972 -0.98124701
v -0.18997006 0.32995972 -0.98445809
v -0.17002201 0.32995972 -0.98818451
v -0.15000586 0.32995972 -0.99151456
v -0.13002375 0.32995972 -0.99440849
v -0.11000761 0.32995972 -0.99690598
v -0.00131449 0.30344498 -0.99948275
v -0.10987145 0.34967828 -0.99896741
v -0.13002375 0.34996545 -0.99646991
v -0.15000586 0.34996545 -0.99353635
v -0.17002201 0.34996545 -0.99020630
v -0.18997006 0.34996545 -0.98651952
v -0.21148401 0.34910396 -0.98211914
v -0.22193462 0.35523009 -0.98041451
v -0.29076564 0.35168844 -0.96205986
v -0.30012694 0.35948968 -0.96003807
v -0.34907800 0.37044978 -0.94386369
v -0.34907800 0.36820030 -0.94370514
v -0.34907800 0.35810173 -0.94287264
f 1 2 7
f 1 7 13
f 1 13 22
f 1 22 27
f 1 27 37
f 1 37 53
f 1 53 73
f 1 73 101
f 1 101 100
f 1 100 99
f 1 99 98
f 1 98 128
f 1 128 156
f 1 156 192
f 1 192 227
f 1 227 226
f 1 226 266
f 1 266 265
f 1 265 283
f 1 283 282
f 1 282 243
f 1 243 204
f 1 204 170
f 1 170 138
f 1 138 112
f 1 112 110
f 1 110 82
f 1 82 61
f 1 61 42
f 1 42 28
f 1 28 18
f 1 18 10
f 1 10 3
f 1 3 4
f 1 4 5
f 1 5 6
f 1 6 12
f 1 12 21
f 1 21 34
f 1 34 50
f 1 50 68
f 1 68 70
f 1 70 95
f 1 95 124
f 1 124 123
f 1 123 150
f 1 150 152
f 1 152 187
f 1 187 186
f 1 186 223
f 1 223 264
f 1 264 263
f 1 263 303
f 1 303 341
f 1 341 383
f 1 383 427
f 1 427 472
f 1 472 519
f 1 519 560
f 1 560 609
f 1 609 608
f 1 608 659
f 1 659 712
f 1 712 761
f 1 761 760
f 1 760 790
f 1 790 791
f 1 791 792
f 1 792 764
f 1 764 718
f 1 718 665
f 1 665 615
f 1 615 565
f 1 565 520
f 1 520 475
f 1 475 474
f 1 474 473
f 1 473 429
f 1 429 428
f 1 428 384
f 1 384 342
f 1 342 306
f 1 306 305
f 1 305 271
f 1 271 233
f 1 233 195
f 1 195 162
f 1 162 160
f 1 160 130
f 1 130 104
f 1 104 77
f 1 77 76
f 1 76 56
f 1 56 51
f 1 51 35
f 1 35 23
f 1 23 14
f 1 14 8
f 1 8 2
f 2 8 9
f 2 9 7
f 3 10 19
f 3 19 32
f 3 32 48
f 3 48 67
f 3 67 91
f 3 91 121
f 3 121 149
f 3 149 184
f 3 184 183
f 3 183 221
f 3 221 220
f 3 220 261
f 3 261 260
f 3 260 298
f 3 298 335
f 3 335 334
f 3 334 371
f 3 371 412
f 3 412 414
f 3 414 455
f 3 455 457
f 3 457 502
f 3 502 503
f 3 503 546
f 3 546 547
f 3 547 590
f 3 590 589
f 3 589 638
f 3 638 637
f 3 637 691
f 3 691 690
f 3 690 742
f 3 742 741
f 3 741 780
f 3 780 746
f 3 746 745
f 3 745 694
f 3 694 643
f 3 643 642
f 3 642 641
f 3 641 593
f 3 593 552
f 3 552 551
f 3 551 550
f 3 550 506
f 3 506 460
f 3 460 458
f 3 458 417
f 3 417 416
f 3 416 375
f 3 375 337
f 3 337 302
f 3 302 262
f 3 262 222
f 3 222 185
f 3 185 151
f 3 151 122
f 3 122 94
f 3 94 93
f 3 93 92
f 3 92 69
f 3 69 49
f 3 49 33
f 3 33 20
f 3 20 11
f 3 11 5
f 3 5 4
f 5 11 12
f 5 12 6
f 7 9 13
f 8 14 9
f 9 15 16
f 9 16 13
f 9 14 17
f 9 17 15
f 10 18 19
f 11 20 12
f 12 20 21
f 13 16 22
f 14 23 17
f 15 24 16
f 15 17 25
f 15 25 26
f 15 26 24
f 16 24 27
f 16 27 22
f 17 23 25
f 18 28 29
f 18 29 30
f 18 30 19
f 19 30 31
f 19 31 32
f 20 33 34
f 20 34 21
f 23 35 25
f 24 36 37
f 24 37 27
f 24 26 38
f 24 38 36
f 25 39 40
f 25 40 26
f 25 35 39
f 26 40 41
f 26 41 38
f 28 42 29
f 29 43 44
f 29 44 45
f 29 45 31
f 29 31 30
f 29 42 43
f 31 45 46
f 31 46 47
f 31 47 32
f 32 47 48
f 33 49 34
f 34 49 50
f 35 51 39
f 36 52 53
f 36 53 37
f 36 38 54
f 36 54 52
f 38 41 55
f 38 55 54
f 39 51 56
f 39 56 57
f 39 57 58
f 39 58 40
f 40 58 59
f 40 59 41
f 41 59 60
f 41 60 55
f 42 61 62
f 42 62 43
f 43 62 44
f 44 62 63
f 44 63 64
f 44 64 46
f 44 46 45
f 46 64 88
f 46 88 65
f 46 65 47
f 47 65 66
f 47 66 67
f 47 67 48
f 49 68 50
f 49 69 70
f 49 70 68
f 52 54 71
f 52 71 72
f 52 72 73
f 52 73 53
f 54 55 74
f 54 74 71
f 55 60 75
f 55 75 74
f 56 76 57
f 57 76 77
f 57 77 78
f 57 78 58
f 58 78 79
f 58 79 59
f 59 79 80
f 59 80 60
f 60 80 81
f 60 81 75
f 61 82 62
f 62 83 63
f 62 82 83
f 63 83 84
f 63 84 85
f 63 85 86
f 63 86 64
f 64 86 87
f 64 87 88
f 65 88 89
f 65 89 90
f 65 90 66
f 66 90 67
f 67 90 91
f 69 92 70
f 70 92 93
f 70 93 94
f 70 94 95
f 71 96 72
f 71 74 97
f 71 97 96
f 72 96 98
f 72 98 99
f 72 99 100
f 72 100 101
f 72 101 73
f 74 75 102
f 74 102 97
f 75 81 103
f 75 103 102
f 77 104 105
f 77 105 78
f 78 105 106
f 78 106 79
f 79 106 107
f 79 107 80
f 80 107 108
f 80 108 81
f 81 108 109
f 81 109 103
f 82 110 83
f 83 111 84
f 83 110 112
f 83 112 111
f 84 111 113
f 84 113 85
f 85 113 114
f 85 114 115
f 85 115 116
f 85 116 86
f 86 116 87
f 87 116 117
f 87 117 118
f 87 118 88
f 88 118 89
f 89 118 119
f 89 119 120
f 89 120 90
f 90 120 121
f 90 121 91
f 94 122 123
f 94 123 124
f 94 124 95
f 96 125 98
f 96 97 126
f 96 126 125
f 97 102 127
f 97 127 126
f 98 125 128
f 102 103 129
f 102 129 127
f 103 109 129
f 104 130 105
f 105 131 106
f 105 130 132
f 105 132 131
f 106 131 133
f 106 133 107
f 107 133 134
f 107 134 108
f 108 134 135
f 108 135 109
f 109 135 136
f 109 136 129
f 111 137 113
f 111 112 138
f 111 138 137
f 113 139 114
f 113 137 139
f 114 140 141
f 114 141 115
f 114 139 140
f 115 141 142
f 115 142 143
f 115 143 116
f 116 143 117
f 117 143 144
f 117 144 118
f 118 144 145
f 118 145 119
f 119 145 146
f 119 146 147
f 119 147 148
f 119 148 120
f 120 149 121
f 120 148 184
f 120 184 149
f 122 150 123
f 122 151 152
f 122 152 150
f 125 153 128
f 125 126 154
f 125 154 153
f 126 127 155
f 126 155 154
f 127 129 155
f 128 153 156
f 129 157 155
f 129 136 158
f 129 158 159
f 129 159 157
f 130 160 132
f 131 132 161
f 131 161 133
f 132 160 162
f 132 162 163
f 132 163 161
f 133 161 164
f 133 164 165
f 133 165 134
f 134 165 166
f 134 166 135
f 135 166 167
f 135 167 136
f 136 167 168
f 136 168 169
f 136 169 158
f 137 138 170
f 137 170 171
f 137 171 139
f 139 172 140
f 139 171 172
f 140 172 173
f 140 173 174
f 140 174 175
f 140 175 141
f 141 175 176
f 141 176 142
f 142 176 177
f 142 177 178
f 142 178 143
f 143 178 144
f 144 178 179
f 144 179 146
f 144 146 145
f 146 179 216
f 146 216 180
f 146 180 147
f 147 180 181
f 147 181 182
f 147 182 148
f 148 182 183
f 148 183 184
f 151 185 186
f 151 186 187
f 151 187 152
f 153 154 188
f 153 188 189
f 153 189 156
f 154 155 188
f 155 157 190
f 155 190 191
f 155 191 188
f 156 189 192
f 157 159 193
f 157 193 190
f 158 169 159
f 159 169 194
f 159 194 193
f 161 163 195
f 161 195 196
f 161 196 197
f 161 197 164
f 162 195 163
f 164 197 198
f 164 198 165
f 165 198 199
f 165 199 166
f 166 199 200
f 166 200 167
f 167 200 168
f 168 200 201
f 168 201 202
f 168 202 203
f 168 203 169
f 169 203 194
f 170 204 171
f 171 204 205
f 171 205 172
f 172 206 173
f 172 205 206
f 173 206 207
f 173 207 174
f 174 208 209
f 174 209 210
f 174 210 175
f 174 207 208
f 175 210 176
f 176 210 211
f 176 211 177
f 177 211 212
f 177 212 213
f 177 213 178
f 178 213 214
f 178 214 179
f 179 214 215
f 179 215 216
f 180 216 217
f 180 217 218
f 180 218 181
f 181 218 182
f 182 218 219
f 182 219 220
f 182 220 221
f 182 221 183
f 185 222 186
f 186 222 223
f 188 224 189
f 188 191 224
f 189 224 225
f 189 225 226
f 189 226 227
f 189 227 192
f 190 228 191
f 190 193 229
f 190 229 228
f 191 228 230
f 191 230 224
f 193 194 231
f 193 231 229
f 194 203 231
f 195 232 196
f 195 233 232
f 196 232 234
f 196 234 197
f 197 234 235
f 197 235 198
f 198 235 236
f 198 236 199
f 199 236 200
f 200 236 237
f 200 237 238
f 200 238 201
f 201 238 239
f 201 239 202
f 202 240 203
f 202 239 241
f 202 241 240
f 203 240 242
f 203 242 231
f 204 243 205
f 205 243 244
f 205 244 206
f 206 245 207
f 206 244 245
f 207 245 246
f 207 246 208
f 208 247 248
f 208 248 209
f 208 246 247
f 209 248 249
f 209 249 250
f 209 250 210
f 210 250 251
f 210 251 211
f 211 251 212
f 212 251 252
f 212 252 253
f 212 253 213
f 213 253 254
f 213 254 214
f 214 254 215
f 215 254 255
f 215 255 256
f 215 256 216
f 216 256 217
f 217 256 293
f 217 293 257
f 217 257 258
f 217 258 218
f 218 258 219
f 219 258 259
f 219 259 260
f 219 260 261
f 219 261 220
f 222 262 263
f 222 263 264
f 222 264 223
f 224 244 265
f 224 265 225
f 224 230 245
f 224 245 244
f 225 265 266
f 225 266 226
f 228 246 230
f 228 229 247
f 228 247 246
f 229 231 247
f 230 246 245
f 231 267 247
f 231 242 268
f 231 268 267
f 232 233 269
f 232 269 270
f 232 270 234
f 233 271 269
f 234 270 272
f 234 272 235
f 235 272 236
f 236 272 273
f 236 273 274
f 236 274 237
f 237 274 275
f 237 275 238
f 238 275 276
f 238 276 239
f 239 276 277
f 239 277 278
f 239 278 241
f 240 241 279
f 240 279 280
f 240 280 242
f 241 278 281
f 241 281 279
f 242 280 268
f 243 282 244
f 244 282 283
f 244 283 265
f 247 267 248
f 248 267 284
f 248 284 249
f 249 284 285
f 249 285 251
f 249 251 250
f 251 285 286
f 251 286 287
f 251 287 288
f 251 288 252
f 252 288 289
f 252 289 290
f 252 290 253
f 253 290 254
f 254 290 255
f 255 290 291
f 255 291 292
f 255 292 256
f 256 292 293
f 257 293 294
f 257 294 295
f 257 295 258
f 258 295 296
f 258 296 297
f 258 297 259
f 259 297 335
f 259 335 298
f 259 298 260
f 262 299 300
f 262 300 301
f 262 301 263
f 262 302 299
f 263 301 303
f 267 268 284
f 268 280 304
f 268 304 284
f 269 271 305
f 269 305 306
f 269 306 307
f 269 307 308
f 269 308 270
f 270 308 272
f 272 308 309
f 272 309 310
f 272 310 311
f 272 311 273
f 273 311 312
f 273 312 274
f 274 312 313
f 274 313 275
f 275 313 314
f 275 314 315
f 275 315 276
f 276 315 277
f 277 315 316
f 277 316 317
f 277 317 318
f 277 318 278
f 278 318 281
f 279 319 280
f 279 281 319
f 280 319 304
f 281 318 320
f 281 320 321
f 281 321 319
f 284 304 285
f 285 304 319
f 285 319 286
f 286 319 322
f 286 322 323
f 286 323 287
f 287 323 288
f 288 323 324
f 288 324 325
f 288 325 289
f 289 325 291
f 289 291 290
f 291 325 326
f 291 326 327
f 291 327 292
f 292 327 328
f 292 328 293
f 293 328 294
f 294 328 329
f 294 329 330
f 294 330 331
f 294 331 295
f 295 331 296
f 296 331 332
f 296 332 333
f 296 333 297
f 297 333 334
f 297 334 335
f 299 336 300
f 299 302 337
f 299 337 373
f 299 373 336
f 300 336 338
f 300 338 339
f 300 339 340
f 300 340 301
f 301 340 341
f 301 341 303
f 306 342 307
f 307 342 343
f 307 343 308
f 308 343 344
f 308 344 345
f 308 345 309
f 309 345 310
f 310 346 311
f 310 345 344
f 310 344 347
f 310 347 348
f 310 348 349
f 310 349 346
f 311 346 312
f 312 346 350
f 312 350 313
f 313 350 314
f 314 350 351
f 314 351 352
f 314 352 353
f 314 353 315
f 315 353 316
f 316 354 317
f 316 353 354
f 317 355 318
f 317 354 356
f 317 356 355
f 318 355 320
f 319 321 322
f 320 357 321
f 320 355 358
f 320 358 357
f 321 357 322
f 322 357 359
f 322 359 323
f 323 359 360
f 323 360 324
f 324 360 326
f 324 326 325
f 326 360 361
f 326 361 362
f 326 362 363
f 326 363 327
f 327 363 364
f 327 364 328
f 328 364 329
f 329 364 365
f 329 365 366
f 329 366 367
f 329 367 330
f 330 367 368
f 330 368 331
f 331 368 369
f 331 369 332
f 332 369 333
f 333 369 370
f 333 370 371
f 333 371 334
f 336 372 339
f 336 339 338
f 336 373 374
f 336 374 372
f 337 375 376
f 337 376 373
f 339 372 377
f 339 377 378
f 339 378 379
f 339 379 380
f 339 380 340
f 340 380 381
f 340 381 382
f 340 382 341
f 341 382 383
f 342 384 343
f 343 384 385
f 343 385 344
f 344 385 386
f 344 386 387
f 344 387 388
f 344 388 389
f 344 389 347
f 346 349 390
f 346 390 350
f 347 389 348
f 348 391 390
f 348 390 349
f 348 389 388
f 348 388 392
f 348 392 393
f 348 393 391
f 350 390 351
f 351 391 394
f 351 394 395
f 351 395 396
f 351 396 352
f 351 390 391
f 352 396 353
f 353 396 397
f 353 397 398
f 353 398 354
f 354 398 399
f 354 399 356
f 355 356 400
f 355 400 358
f 356 399 401
f 356 401 400
f 357 358 402
f 357 402 359
f 358 400 403
f 358 403 402
f 359 402 360
f 360 402 403
f 360 403 361
f 361 403 404
f 361 404 405
f 361 405 362
f 362 405 406
f 362 406 363
f 363 406 407
f 363 407 364
f 364 407 365
f 365 407 408
f 365 408 366
f 366 408 450
f 366 450 409
f 366 409 451
f 366 451 410
f 366 410 368
f 366 368 367
f 368 410 411
f 368 411 369
f 369 411 413
f 369 413 370
f 370 412 371
f 370 413 414
f 370 414 412
f 372 374 377
f 373 376 374
f 374 376 415
f 374 415 377
f 375 416 376
f 376 416 417
f 376 417 418
f 376 418 419
f 376 419 415
f 377 415 378
f 378 415 379
f 379 415 420
f 379 420 421
f 379 421 422
f 379 422 380
f 380 422 381
f 381 422 423
f 381 423 424
f 381 424 425
f 381 425 382
f 382 425 426
f 382 426 383
f 383 426 427
f 384 428 386
f 384 386 385
f 386 428 429
f 386 429 430
f 386 430 431
f 386 431 387
f 387 431 388
f 388 431 432
f 388 432 433
f 388 433 434
f 388 434 392
f 391 393 394
f 392 434 435
f 392 435 393
f 393 435 436
f 393 436 394
f 394 436 437
f 394 437 395
f 395 437 397
f 395 397 396
f 397 438 399
f 397 399 398
f 397 437 439
f 397 439 438
f 399 438 401
f 400 401 403
f 401 438 440
f 401 440 441
f 401 441 442
f 401 442 443
f 401 443 403
f 403 443 404
f 404 443 444
f 404 444 445
f 404 445 405
f 405 445 446
f 405 446 447
f 405 447 448
f 405 448 406
f 406 448 449
f 406 449 407
f 407 449 408
f 408 449 492
f 408 492 450
f 409 450 452
f 409 452 453
f 409 453 451
f 410 451 454
f 410 454 411
f 411 454 456
f 411 456 413
f 413 455 414
f 413 456 457
f 413 457 455
f 415 419 420
f 417 458 418
f 418 459 419
f 418 458 460
f 418 460 461
f 418 461 459
f 419 462 463
f 419 463 421
f 419 421 420
f 419 459 462
f 421 463 422
f 422 463 423
f 423 463 464
f 423 464 424
f 424 465 466
f 424 466 425
f 424 464 467
f 424 467 468
f 424 468 469
f 424 469 470
f 424 470 465
f 425 466 426
f 426 466 471
f 426 471 427
f 427 471 472
f 429 473 430
f 430 473 474
f 430 474 432
f 430 432 431
f 432 474 475
f 432 475 476
f 432 476 477
f 432 477 433
f 433 477 478
f 433 478 434
f 434 479 435
f 434 478 479
f 435 479 480
f 435 480 436
f 436 480 437
f 437 480 481
f 437 481 439
f 438 439 482
f 438 482 440
f 439 481 483
f 439 483 484
f 439 484 482
f 440 482 485
f 440 485 486
f 440 486 487
f 440 487 488
f 440 488 441
f 441 488 442
f 442 488 489
f 442 489 444
f 442 444 443
f 444 489 490
f 444 490 446
f 444 446 445
f 446 490 491
f 446 491 493
f 446 493 447
f 447 492 449
f 447 449 448
f 447 493 494
f 447 494 492
f 450 492 494
f 450 494 495
f 450 495 496
f 450 496 452
f 451 453 497
f 451 497 454
f 452 496 498
f 452 498 499
f 452 499 453
f 453 499 500
f 453 500 497
f 454 497 501
f 454 501 456
f 456 502 457
f 456 501 503
f 456 503 502
f 459 461 504
f 459 504 505
f 459 505 462
f 460 506 507
f 460 507 461
f 461 507 504
f 462 508 463
f 462 505 508
f 463 508 509
f 463 509 464
f 464 509 510
f 464 510 511
f 464 511 512
f 464 512 467
f 465 513 466
f 465 470 513
f 466 513 514
f 466 514 515
f 466 515 516
f 466 516 471
f 467 512 468
f 468 512 469
f 469 512 517
f 469 517 518
f 469 518 470
f 470 518 515
f 470 515 514
f 470 514 513
f 471 516 519
f 471 519 472
f 475 520 521
f 475 521 476
f 476 521 522
f 476 522 477
f 477 522 523
f 477 523 478
f 478 523 524
f 478 524 479
f 479 524 480
f 480 524 525
f 480 525 481
f 481 525 526
f 481 526 527
f 481 527 483
f 482 484 485
f 483 527 528
f 483 528 484
f 484 528 529
f 484 529 485
f 485 529 486
f 486 530 490
f 486 490 487
f 486 529 531
f 486 531 532
f 486 532 574
f 486 574 530
f 487 490 488
f 488 490 489
f 490 530 533
f 490 533 491
f 491 533 534
f 491 534 493
f 493 534 494
f 494 534 535
f 494 535 536
f 494 536 537
f 494 537 495
f 495 537 496
f 496 537 538
f 496 538 539
f 496 539 540
f 496 540 541
f 496 541 498
f 497 500 501
f 498 541 499
f 499 541 542
f 499 542 543
f 499 543 500
f 500 543 544
f 500 544 545
f 500 545 501
f 501 546 503
f 501 545 547
f 501 547 546
f 504 548 505
f 504 507 549
f 504 549 591
f 504 591 548
f 505 548 509
f 505 509 508
f 506 550 507
f 507 550 551
f 507 551 552
f 507 552 553
f 507 553 554
f 507 554 549
f 509 548 555
f 509 555 510
f 510 555 511
f 511 555 517
f 511 517 512
f 515 518 556
f 515 556 557
f 515 557 516
f 516 557 558
f 516 558 559
f 516 559 560
f 516 560 519
f 517 556 518
f 517 555 561
f 517 561 562
f 517 562 563
f 517 563 564
f 517 564 556
f 520 565 566
f 520 566 521
f 521 566 567
f 521 567 522
f 522 567 568
f 522 568 523
f 523 568 569
f 523 569 524
f 524 569 525
f 525 569 570
f 525 570 571
f 525 571 526
f 526 571 572
f 526 572 527
f 527 572 573
f 527 573 528
f 528 573 531
f 528 531 529
f 530 574 575
f 530 575 533
f 531 573 576
f 531 576 577
f 531 577 578
f 531 578 532
f 532 578 574
f 533 575 579
f 533 579 534
f 534 579 535
f 535 580 536
f 535 579 581
f 535 581 582
f 535 582 580
f 536 580 537
f 537 580 538
f 538 580 539
f 539 582 631
f 539 631 583
f 539 583 540
f 539 580 582
f 540 583 584
f 540 584 585
f 540 585 586
f 540 586 542
f 540 542 541
f 542 586 543
f 543 586 587
f 543 587 588
f 543 588 544
f 544 589 590
f 544 590 545
f 544 588 638
f 544 638 589
f 545 590 547
f 548 561 555
f 548 591 561
f 549 554 592
f 549 592 591
f 552 593 594
f 552 594 553
f 553 594 595
f 553 595 554
f 554 595 596
f 554 596 592
f 556 564 597
f 556 597 598
f 556 598 599
f 556 599 600
f 556 600 601
f 556 601 602
f 556 602 558
f 556 558 557
f 558 602 603
f 558 603 604
f 558 604 605
f 558 605 606
f 558 606 607
f 558 607 608
f 558 608 609
f 558 609 559
f 559 609 560
f 561 591 610
f 561 610 562
f 562 610 611
f 562 611 612
f 562 612 563
f 563 612 564
f 564 612 613
f 564 613 614
f 564 614 597
f 565 615 616
f 565 616 566
f 566 616 617
f 566 617 567
f 567 617 618
f 567 618 568
f 568 618 569
f 569 618 619
f 569 619 570
f 570 619 620
f 570 620 621
f 570 621 571
f 571 621 622
f 571 622 572
f 572 622 576
f 572 576 573
f 574 578 623
f 574 623 624
f 574 624 575
f 575 624 625
f 575 625 579
f 576 622 626
f 576 626 577
f 577 626 627
f 577 627 578
f 578 627 628
f 578 628 629
f 578 629 623
f 579 625 581
f 581 625 630
f 581 630 631
f 581 631 582
f 583 631 683
f 583 683 632
f 583 632 633
f 583 633 584
f 584 633 634
f 584 634 585
f 585 634 688
f 585 688 635
f 585 635 587
f 585 587 586
f 587 635 588
f 588 635 636
f 588 636 637
f 588 637 638
f 591 592 639
f 591 639 610
f 592 596 640
f 592 640 639
f 593 641 594
f 594 641 642
f 594 642 643
f 594 643 644
f 594 644 645
f 594 645 595
f 595 645 646
f 595 646 596
f 596 646 647
f 596 647 640
f 597 614 612
f 597 612 648
f 597 648 598
f 598 648 649
f 598 649 599
f 599 649 650
f 599 650 600
f 600 650 651
f 600 651 652
f 600 652 601
f 601 652 602
f 602 652 653
f 602 653 603
f 603 653 654
f 603 654 655
f 603 655 604
f 604 655 605
f 605 655 656
f 605 656 657
f 605 657 606
f 606 657 658
f 606 658 607
f 607 658 659
f 607 659 608
f 610 639 660
f 610 660 611
f 611 661 612
f 611 660 713
f 611 713 661
f 612 661 662
f 612 662 663
f 612 663 664
f 612 664 648
f 612 614 613
f 615 665 666
f 615 666 616
f 616 666 667
f 616 667 668
f 616 668 617
f 617 668 618
f 618 668 619
f 619 668 669
f 619 669 670
f 619 670 620
f 620 670 671
f 620 671 621
f 621 671 672
f 621 672 622
f 622 672 626
f 623 629 673
f 623 673 624
f 624 673 674
f 624 674 625
f 625 674 630
f 626 672 675
f 626 675 676
f 626 676 677
f 626 677 627
f 627 677 678
f 627 678 628
f 628 678 679
f 628 679 629
f 629 679 680
f 629 680 673
f 630 674 681
f 630 681 682
f 630 682 683
f 630 683 631
f 632 683 734
f 632 734 684
f 632 684 633
f 633 684 685
f 633 685 686
f 633 686 634
f 634 686 687
f 634 687 688
f 635 688 689
f 635 689 636
f 636 689 690
f 636 690 691
f 636 691 637
f 639 640 692
f 639 692 660
f 640 647 693
f 640 693 692
f 643 694 644
f 644 694 695
f 644 695 696
f 644 696 645
f 645 696 697
f 645 697 646
f 646 697 698
f 646 698 647
f 647 698 699
f 647 699 693
f 648 664 700
f 648 700 701
f 648 701 649
f 649 701 702
f 649 702 703
f 649 703 650
f 650 703 651
f 651 703 704
f 651 704 652
f 652 704 705
f 652 705 706
f 652 706 653
f 653 706 654
f 654 706 707
f 654 707 655
f 655 707 708
f 655 708 709
f 655 709 656
f 656 709 710
f 656 710 657
f 657 710 658
f 658 710 711
f 658 711 712
f 658 712 659
f 660 692 714
f 660 714 715
f 660 715 713
f 661 713 716
f 661 716 662
f 662 716 663
f 663 716 717
f 663 717 664
f 664 717 700
f 665 718 666
f 666 718 719
f 666 719 720
f 666 720 667
f 667 720 668
f 668 720 721
f 668 721 722
f 668 722 669
f 669 722 723
f 669 723 670
f 670 723 724
f 670 724 671
f 671 724 675
f 671 675 672
f 673 680 681
f 673 681 674
f 675 725 726
f 675 726 727
f 675 727 676
f 675 724 725
f 676 727 728
f 676 728 677
f 677 728 729
f 677 729 678
f 678 729 730
f 678 730 679
f 679 730 731
f 679 731 680
f 680 731 681
f 681 731 732
f 681 732 733
f 681 733 682
f 682 733 734
f 682 734 683
f 684 734 735
f 684 735 736
f 684 736 685
f 685 736 737
f 685 737 686
f 686 737 738
f 686 738 739
f 686 739 687
f 687 740 688
f 687 739 740
f 688 740 689
f 689 740 741
f 689 741 742
f 689 742 690
f 692 743 714
f 692 693 743
f 693 699 744
f 693 744 743
f 694 745 695
f 695 745 746
f 695 746 747
f 695 747 739
f 695 739 696
f 696 739 738
f 696 738 697
f 697 738 737
f 697 737 698
f 698 737 736
f 698 736 699
f 699 736 735
f 699 735 744
f 700 717 715
f 700 715 748
f 700 748 749
f 700 749 701
f 701 749 702
f 702 749 750
f 702 750 703
f 703 750 751
f 703 751 752
f 703 752 704
f 704 752 705
f 705 752 753
f 705 753 754
f 705 754 706
f 706 754 755
f 706 755 707
f 707 755 756
f 707 756 708
f 708 756 757
f 708 757 709
f 709 757 758
f 709 758 710
f 710 758 759
f 710 759 711
f 711 759 760
f 711 760 761
f 711 761 712
f 713 715 716
f 714 743 762
f 714 762 715
f 715 762 763
f 715 763 748
f 715 717 716
f 718 764 719
f 719 764 765
f 719 765 766
f 719 766 720
f 720 766 721
f 721 766 767
f 721 767 768
f 721 768 722
f 722 769 723
f 722 768 769
f 723 769 725
f 723 725 724
f 725 769 770
f 725 770 771
f 725 771 726
f 726 771 727
f 727 771 772
f 727 772 773
f 727 773 728
f 728 774 729
f 728 773 774
f 729 774 775
f 729 775 730
f 730 775 776
f 730 776 731
f 731 776 732
f 732 776 777
f 732 777 778
f 732 778 733
f 733 778 779
f 733 779 734
f 734 779 735
f 735 779 744
f 739 747 740
f 740 780 741
f 740 747 746
f 740 746 780
f 743 744 781
f 743 781 762
f 744 779 781
f 748 763 782
f 748 782 783
f 748 783 749
f 749 783 784
f 749 784 785
f 749 785 750
f 750 785 751
f 751 785 786
f 751 786 787
f 751 787 752
f 752 787 753
f 753 787 772
f 753 772 771
f 753 771 754
f 754 771 755
f 755 771 770
f 755 770 788
f 755 788 789
f 755 789 756
f 756 789 757
f 757 789 758
f 758 789 766
f 758 766 759
f 759 790 760
f 759 766 765
f 759 765 791
f 759 791 790
f 762 781 782
f 762 782 763
f 764 792 765
f 765 792 791
f 766 789 767
f 767 789 768
f 768 789 788
f 768 788 769
f 769 788 770
f 772 787 773
f 773 787 786
f 773 786 774
f 774 786 775
f 775 786 785
f 775 785 776
f 776 785 784
f 776 784 783
f 776 783 777
f 777 783 782
f 777 782 778
f 778 782 781
f 778 781 779
