v -0.75023532 0.06540430 0.00098470
v -0.61202759 0.06540430 -0.43273267
v -0.94114399 0.06540430 0.00098470
v -0.50874221 -0.19677198 0.00098470
v -0.83328694 0.06540430 -0.43273267
v -0.50874221 -0.06908873 -0.43273267
v -0.94114399 0.06540430 -0.01005353
v -0.93953550 0.06106307 -0.01005353
v -0.93949312 0.06110562 0.00098470
v -0.50874221 -0.36939973 0.00098470
v -0.83921319 0.06174403 -0.41846788
v -0.83997512 0.06540430 -0.41991132
v -0.82642949 0.04906084 -0.43273267
v -0.50874221 -0.29496038 -0.43273267
v -0.94097471 0.06540430 -0.01816238
v -0.93932378 0.06165892 -0.03004970
v -0.93470985 0.04999718 -0.03004970
v -0.93513316 0.04999718 -0.01005353
v -0.93754596 0.05608341 0.00098470
v -0.58040702 -0.34011769 0.00098470
v -0.58036470 -0.34011769 -0.01005353
v -0.50874221 -0.36931461 -0.01005353
v -0.84247255 0.06540430 -0.41481680
v -0.82685280 0.04855010 -0.43145901
v -0.83709669 0.04846498 -0.41108078
v -0.84247255 0.05412561 -0.40513712
v -0.81783646 0.03007859 -0.43273267
v -0.82300073 0.03339836 -0.42581254
v -0.50874221 -0.29581159 -0.43073732
v -0.51001209 -0.29436451 -0.43273267
v -0.94067836 0.06540430 -0.03004970
v -0.93983179 0.06540430 -0.05004588
v -0.93885815 0.06280807 -0.05004588
v -0.93386322 0.04999718 -0.05004588
v -0.92645550 0.02999347 -0.03004970
v -0.92687881 0.02999347 -0.01005353
v -0.93509078 0.04999718 0.00098470
v -0.58586764 -0.33781940 0.00098470
v -0.59039694 -0.33590415 -0.01005353
v -0.58019537 -0.34003258 -0.02283239
v -0.50874221 -0.36888897 -0.02826661
v -0.57985675 -0.33990490 -0.03616318
v -0.84497005 0.06540430 -0.40959483
v -0.83959413 0.04076143 -0.39919344
v -0.85893899 0.06259526 -0.37758398
v -0.85229313 0.06540430 -0.39414132
v -0.84649396 0.04846498 -0.39150915
v -0.81690520 0.02807821 -0.43273267
v -0.81991065 0.02007674 -0.41986889
v -0.82753009 0.02803566 -0.41188741
v -0.50988513 -0.29551369 -0.43010047
v -0.50874221 -0.29649258 -0.42903912
v -0.51644629 -0.29823759 -0.41553849
v -0.53049988 -0.28517133 -0.43010047
v -0.52939928 -0.28461805 -0.43273267
v -0.93847722 0.06540430 -0.07004204
v -0.93822324 0.06459562 -0.07004204
v -0.93250871 0.04999718 -0.07004204
v -0.92357701 0.02829103 -0.07029676
v -0.92560887 0.02999347 -0.05004588
v -0.92065626 0.01837429 -0.05004588
v -0.92107952 0.01748051 -0.03004970
v -0.92124885 0.01705490 -0.01005353
v -0.92124885 0.01709746 0.00098470
v -0.92683643 0.02999347 0.00098470
v -0.59039694 -0.33590415 0.00098470
v -0.58815342 -0.33649999 -0.02971007
v -0.61003810 -0.32722169 -0.01005353
v -0.61003810 -0.32692376 -0.03004970
v -0.50874221 -0.36884642 -0.03004970
v -0.59005833 -0.33509549 -0.05004588
v -0.57926410 -0.33964953 -0.05004588
v -0.56927419 -0.34369284 -0.05004588
v -0.83967882 0.02054492 -0.37936711
v -0.84272659 0.03386652 -0.38586265
v -0.86384928 0.06540430 -0.36866850
v -0.86122483 0.06540430 -0.37478197
v -0.85944694 0.06540430 -0.37881517
v -0.85775375 0.06540430 -0.38255119
v -0.85644150 0.04931620 -0.37053651
v -0.86181742 0.05557267 -0.36425322
v -0.80678833 0.00722329 -0.43273267
v -0.81792116 0.00798939 -0.41188741
v -0.81995296 0.00003047 -0.39991516
v -0.82317007 0.01335208 -0.40653813
v -0.50874221 -0.30002517 -0.42016608
v -0.50874221 -0.30321723 -0.41171759
v -0.52177989 -0.30079126 -0.40220773
v -0.52910298 -0.29440710 -0.40934011
v -0.54286027 -0.28151107 -0.42352000
v -0.53316665 -0.28261769 -0.43273267
v -0.93839258 0.06540430 -0.07127322
v -0.93669939 0.06540430 -0.09003821
v -0.93073082 0.04999718 -0.09003821
v -0.92336535 0.03190872 -0.09003821
v -0.91972500 0.02045979 -0.07713199
v -0.92023295 0.01926808 -0.06380120
v -0.91604227 0.00837244 -0.05004588
v -0.91642326 0.00747865 -0.03004970
v -0.91663492 0.00705305 -0.01005353
v -0.91659260 0.00709561 0.00098470
v -0.61003810 -0.32722169 0.00098470
v -0.61575264 -0.32458290 0.00098470
v -0.62269479 -0.32126313 -0.01005353
v -0.62235618 -0.32113546 -0.03004970
v -0.62167889 -0.32079497 -0.05004588
v -0.61003810 -0.32624280 -0.05004588
v -0.50874221 -0.36812288 -0.05004588
v -0.59005833 -0.33411658 -0.07004204
v -0.57812119 -0.33918136 -0.07004204
v -0.84666324 0.02833359 -0.37159789
v -0.82304311 -0.00609833 -0.38658440
v -0.83730829 0.00862780 -0.37159789
v -0.84264189 0.01441611 -0.36599386
v -0.86986017 0.06540430 -0.35448861
v -0.85898131 0.04220849 -0.35763028
v -0.86490750 0.04931620 -0.35058278
v -0.79768735 -0.01035443 -0.43273267
v -0.80327493 -0.00631113 -0.42627954
v -0.80780423 -0.01180151 -0.41171759
v -0.80310559 -0.02576154 -0.40624094
v -0.81762481 -0.01167382 -0.39193368
v -0.81961435 -0.01946251 -0.37928218
v -0.50874221 -0.30406845 -0.40934011
v -0.50988513 -0.30355772 -0.40934011
v -0.54019344 -0.30002517 -0.38017374
v -0.53511381 -0.29751405 -0.39350450
v -0.51005447 -0.31032494 -0.38998076
v -0.52910298 -0.30245113 -0.38811278
v -0.54810917 -0.29291746 -0.38811278
v -0.54971772 -0.28385195 -0.40895802
v -0.56127381 -0.28065985 -0.40165582
v -0.55619425 -0.27780828 -0.41498661
v -0.54501909 -0.27619094 -0.43273267
v -0.93648767 0.06540430 -0.09194867
v -0.92852962 0.04999718 -0.11003438
v -0.92226481 0.03454751 -0.11003438
v -0.91909003 0.02190687 -0.09003821
v -0.91362947 0.00998977 -0.09003821
v -0.91612697 0.01156452 -0.07029676
v -0.90457082 -0.01201431 -0.07195251
v -0.90706831 -0.01005651 -0.05004588
v -0.90787256 -0.01005651 -0.03004970
v -0.90825355 -0.01005651 -0.01005353
v -0.90821123 -0.01005651 0.00098470
v -0.62269479 -0.32126313 0.00098470
v -0.63268471 -0.31615579 -0.01005353
v -0.63234603 -0.31598556 -0.03004970
v -0.63166875 -0.31568766 -0.05004588
v -0.62070525 -0.32028425 -0.07004204
v -0.61003810 -0.32522130 -0.07004204
v -0.50874221 -0.36718655 -0.06838632
v -0.59005833 -0.33292487 -0.09003821
v -0.57663965 -0.33858550 -0.09003821
v -0.85627222 0.02952529 -0.35058278
v -0.82706445 -0.01167382 -0.37155542
v -0.83938247 0.00109449 -0.35864919
v -0.84619761 0.00862780 -0.35117716
v -0.87781823 0.06540430 -0.33500192
v -0.86173278 0.03595202 -0.34429950
v -0.87438947 0.05123144 -0.32880354
v -0.79743338 -0.01180151 -0.43175620
v -0.78668153 -0.03040071 -0.43273267
v -0.79971921 -0.01963276 -0.41957170
v -0.79713708 -0.03150729 -0.41171759
v -0.79942286 -0.03908317 -0.39889628
v -0.80729628 -0.03150729 -0.39133930
v -0.80263996 -0.04474379 -0.38560793
v -0.81682056 -0.03099656 -0.37155542
v -0.82257748 -0.02499545 -0.36595142
v -0.50874221 -0.31134641 -0.38862222
v -0.53003424 -0.30811176 -0.36998460
v -0.54370683 -0.30177015 -0.36998460
v -0.55809909 -0.29900369 -0.35707837
v -0.55369675 -0.29674795 -0.36998460
v -0.51005447 -0.31666654 -0.37066388
v -0.56542218 -0.28300071 -0.38998076
v -0.57930648 -0.27951074 -0.37881517
v -0.57541209 -0.27716985 -0.38998076
v -0.56876624 -0.27295631 -0.40895802
v -0.56935889 -0.26372057 -0.42844474
v -0.56724238 -0.26299703 -0.43273267
v -0.54971772 -0.27465874 -0.43010047
v -0.54980236 -0.27338192 -0.43273267
v -0.93441355 0.06540430 -0.11003438
v -0.92582053 0.04999718 -0.13003056
v -0.92091024 0.03769703 -0.13003056
v -0.93174672 0.06540430 -0.13003056
v -0.91798949 0.02454565 -0.11003438
v -0.91134363 0.00998977 -0.11003438
v -0.90330088 -0.00673674 -0.11003438
v -0.90444386 -0.00899248 -0.09003821
v -0.89991450 -0.02005836 -0.07984908
v -0.90046477 -0.02103727 -0.06651831
v -0.90097278 -0.02197361 -0.05004588
v -0.90139604 -0.02273971 -0.03004970
v -0.90156537 -0.02312276 -0.01005353
v -0.90520579 -0.01592994 0.00098470
v -0.62815535 -0.31845409 0.00098470
v -0.63268471 -0.31611323 0.00098470
v -0.65004003 -0.30674982 -0.01005353
v -0.65004003 -0.30636674 -0.03004970
v -0.65190256 -0.30462176 -0.05034305
v -0.64915109 -0.30513251 -0.07004204
v -0.63069516 -0.31513435 -0.07004204
v -0.62011266 -0.31994373 -0.08035854
v -0.61147732 -0.32347631 -0.08821265
v -0.56664973 -0.34258622 -0.09003821
v -0.56487191 -0.34194782 -0.11003438
v -0.50874221 -0.36573946 -0.08855230
v -0.59005833 -0.33139268 -0.11003438
v -0.57486176 -0.33781940 -0.11003438
v -0.85876966 0.02258784 -0.33695483
v -0.83650404 -0.01065236 -0.35117716
v -0.84221864 -0.00439589 -0.34527594
v -0.85551023 0.01020257 -0.33016208
v -0.88044268 0.05872220 -0.32128903
v -0.88154328 0.06540430 -0.32527977
v -0.86444187 0.02952529 -0.33016208
v -0.87764889 0.04540057 -0.31368965
v -0.78528464 -0.03282668 -0.43273267
v -0.78270251 -0.04461610 -0.42500591
v -0.78659689 -0.05078746 -0.41052884
v -0.79624814 -0.05087259 -0.39133930
v -0.81902170 -0.03831707 -0.35775763
v -0.79878795 -0.05806541 -0.37741417
v -0.80611104 -0.05087259 -0.37045160
v -0.50874221 -0.31692189 -0.37147051
v -0.52880669 -0.31513435 -0.34913933
v -0.55090296 -0.30470687 -0.35024315
v -0.51670027 -0.31858179 -0.35525280
v -0.56241673 -0.30117431 -0.34374759
v -0.56948590 -0.29521576 -0.35024315
v -0.57156003 -0.28661841 -0.37125826
v -0.50874221 -0.32019910 -0.36077192
v -0.59691578 -0.27806365 -0.35491318
v -0.59014297 -0.27585047 -0.37125826
v -0.59128588 -0.26704031 -0.39087230
v -0.58358181 -0.28202182 -0.36548442
v -0.58455539 -0.26282677 -0.40997696
v -0.58066100 -0.26035821 -0.42080289
v -0.57397288 -0.25874090 -0.43273267
v -0.92273045 0.04940133 -0.14858326
v -0.92010593 0.03961228 -0.14098388
v -0.93111181 0.06540430 -0.13414866
v -0.91659260 0.02765261 -0.13003056
v -0.90859216 0.00998977 -0.13003056
v -0.90194637 -0.00405540 -0.13003056
v -0.89826363 -0.01673859 -0.11003438
v -0.89940655 -0.01899433 -0.09003821
v -0.89348030 -0.03006022 -0.09003821
v -0.89589316 -0.02865570 -0.07195251
v -0.89555454 -0.03197546 -0.05004588
v -0.89597780 -0.03274156 -0.03004970
v -0.89855993 -0.02857058 0.00098470
v -0.90156537 -0.02303764 0.00098470
v -0.89614713 -0.03308205 -0.01005353
v -0.65004003 -0.30670726 0.00098470
v -0.66091883 -0.30049333 0.00098470
v -0.66091883 -0.30049333 -0.01005353
v -0.66066486 -0.30032307 -0.03004970
v -0.66032624 -0.30011028 -0.04384749
v -0.65981829 -0.29985493 -0.05717826
v -0.65914100 -0.29938674 -0.07004204
v -0.64788121 -0.30445153 -0.09003821
v -0.62807071 -0.31521946 -0.08821265
v -0.61905438 -0.31951815 -0.09368932
v -0.60762525 -0.32347631 -0.11003438
v -0.56275541 -0.34101146 -0.13003056
v -0.55005634 -0.34603369 -0.13003056
v -0.50874221 -0.36433494 -0.10638328
v -0.57274532 -0.33696818 -0.13003056
v -0.60563576 -0.32262510 -0.13003056
v -0.59005833 -0.32956254 -0.13003056
v -0.86135179 0.01701234 -0.32362404
v -0.83874756 -0.01771751 -0.33691239
v -0.82592154 -0.03099656 -0.35066772
v -0.84505475 -0.01065236 -0.33016208
v -0.85817707 0.00369072 -0.31513309
v -0.88209355 0.05123144 -0.30817053
v -0.88734245 0.06540430 -0.30957153
v -0.88552225 0.06540430 -0.31462365
v -0.87371218 0.03178103 -0.30817053
v -0.88010406 0.03969739 -0.30031642
v -0.77652234 -0.04797843 -0.43273267
v -0.77872348 -0.05793773 -0.41757631
v -0.78215224 -0.06359835 -0.40424556
v -0.80183572 -0.06308761 -0.36408341
v -0.81533897 -0.05002137 -0.35066772
v -0.82181549 -0.04329671 -0.34442687
v -0.78536928 -0.07015275 -0.38959867
v -0.78126329 -0.08206986 -0.38267857
v -0.79468191 -0.06985483 -0.37045160
v -0.55005634 -0.31113359 -0.32999226
v -0.52135658 -0.32053959 -0.34192204
v -0.53515619 -0.31785825 -0.32999226
v -0.50874221 -0.32271022 -0.35215360
v -0.57647032 -0.29810989 -0.32999226
v -0.56652278 -0.30325979 -0.32999226
v -0.59001595 -0.29061916 -0.32999226
v -0.59014297 -0.28414989 -0.34892708
v -0.60093713 -0.28053218 -0.34153992
v -0.60859889 -0.27282864 -0.34892708
v -0.60995340 -0.26431641 -0.36854112
v -0.60322297 -0.26206067 -0.38484377
v -0.59882063 -0.25912395 -0.39817452
v -0.59454525 -0.25631493 -0.40997696
v -0.58976197 -0.24980308 -0.42959100
v -0.58002603 -0.25474018 -0.43273267
v -0.91900539 0.04233618 -0.15431465
v -0.92869896 0.06540430 -0.14968708
v -0.92751372 0.06540430 -0.15656474
v -0.92154515 0.05591317 -0.16998044
v -0.91544962 0.03173847 -0.14858326
v -0.90452850 0.00832988 -0.15096073
v -0.90076113 -0.00167197 -0.14493215
v -0.89686674 -0.01401469 -0.13003056
v -0.88844305 -0.03006022 -0.13003056
v -0.89119452 -0.03006022 -0.11003438
v -0.88289785 -0.04525452 -0.11003438
v -0.88399839 -0.04721233 -0.09003821
v -0.88492966 -0.04874453 -0.07004204
v -0.88450634 -0.05176637 -0.04932414
v -0.88628423 -0.05006392 -0.03004970
v -0.89610481 -0.03299693 0.00098470
v -0.88662285 -0.05006392 -0.01005353
v -0.88658053 -0.05006392 0.00098470
v -0.67090875 -0.29398149 0.00098470
v -0.67095107 -0.29398149 -0.01005353
v -0.67069709 -0.29385382 -0.03004970
v -0.66824198 -0.29470503 -0.05034305
v -0.67006212 -0.29232162 -0.07004204
v -0.65787107 -0.29866320 -0.09003821
v -0.64631498 -0.30351517 -0.11003438
v -0.63006020 -0.31232530 -0.11003438
v -0.61761516 -0.31879461 -0.11003438
v -0.56106222 -0.34041563 -0.14387080
v -0.50874221 -0.36190897 -0.13003056
v -0.55158025 -0.34339491 -0.15032390
v -0.56868160 -0.33649999 -0.15032390
v -0.59005833 -0.32743448 -0.14998427
v -0.60330760 -0.32147592 -0.14998427
v -0.61562568 -0.31781569 -0.13003056
v -0.86346829 0.01020257 -0.30906209
v -0.83502251 -0.02963460 -0.33016208
v -0.84141433 -0.02265459 -0.32358161
v -0.86058986 -0.00137405 -0.30180234
v -0.85407102 -0.00882223 -0.30906209
v -0.89259142 0.06540430 -0.29466993
v -0.88793510 0.04995462 -0.28999990
v -0.87735260 0.02573736 -0.28999990
v -0.88183957 0.03573921 -0.28999990
v -0.77377087 -0.05253246 -0.43273267
v -0.76424658 -0.06806726 -0.43273267
v -0.76505089 -0.06976970 -0.42933631
v -0.76119882 -0.08189961 -0.42224634
v -0.77474445 -0.07015275 -0.41052884
v -0.77800387 -0.07691997 -0.39600933
v -0.79768735 -0.07645179 -0.35482827
v -0.80429083 -0.06985483 -0.34888461
v -0.81800580 -0.05661833 -0.33500192
v -0.82414365 -0.05002137 -0.32901579
v -0.77309358 -0.08930524 -0.38959867
v -0.77690327 -0.09539148 -0.37333852
v -0.78342211 -0.08930524 -0.36798924
v -0.57181406 -0.30581346 -0.31152445
v -0.53888124 -0.31947559 -0.31806248
v -0.54963303 -0.31653887 -0.31080273
v -0.50874221 -0.32351887 -0.34918177
v -0.51005447 -0.32815802 -0.32999226
v -0.52516627 -0.32211435 -0.32999226
v -0.57960278 -0.29972723 -0.31925121
v -0.61080003 -0.28495854 -0.30948663
v -0.60415423 -0.28244743 -0.32999226
v -0.58993131 -0.29636490 -0.31152445
v -0.61414409 -0.27619094 -0.32999226
v -0.62366837 -0.26248628 -0.34998843
v -0.62057829 -0.26035821 -0.36089927
v -0.61655694 -0.25750664 -0.37423009
v -0.60995340 -0.25461248 -0.39087230
v -0.62146723 -0.24103549 -0.40216529
v -0.61020744 -0.24567465 -0.40929765
v -0.60364628 -0.24256769 -0.42500591
v -0.59297907 -0.24601515 -0.43273267
v -0.91756618 0.04591131 -0.16998044
v -0.91083568 0.02999347 -0.16998044
v -0.92510092 0.06540430 -0.16998044
v -0.92416966 0.06540430 -0.17499009
v -0.92035997 0.05889244 -0.18208003
v -0.90321624 0.01292647 -0.16998044
v -0.89966053 0.00058377 -0.15826294
v -0.89602017 -0.00903504 -0.15096073
v -0.88454866 -0.03137961 -0.15006918
v -0.88052732 -0.04108354 -0.14340380
v -0.88154328 -0.04287110 -0.13003056
v -0.87722558 -0.05525637 -0.11003438
v -0.87832618 -0.05721419 -0.09003821
v -0.87921512 -0.05874638 -0.07004204
v -0.87972307 -0.05959760 -0.05552253
v -0.88006169 -0.06023602 -0.04219174
v -0.88027334 -0.06053395 -0.03004970
v -0.88044268 -0.06087444 -0.01005353
v -0.88378674 -0.05495845 0.00098470
v -0.68568194 -0.28393707 0.00098470
v -0.68572426 -0.28402221 -0.01005353
v -0.68547028 -0.28385195 -0.03004970
v -0.68496233 -0.28346890 -0.05004588
v -0.68411577 -0.28283048 -0.07004204
v -0.67006212 -0.29074684 -0.09003821
v -0.65630490 -0.29772687 -0.11003438
v -0.63006020 -0.31028238 -0.13003056
v -0.64441013 -0.30245113 -0.13003056
v -0.55928433 -0.33969209 -0.15720157
v -0.50874221 -0.35973835 -0.14998427
v -0.57007849 -0.33364841 -0.16998044
v -0.60136044 -0.32058215 -0.16475850
v -0.59170914 -0.32415730 -0.17087199
v -0.61329752 -0.31662399 -0.14998427
v -0.87002945 0.00994720 -0.28999990
v -0.83773160 -0.03601877 -0.31407174
v -0.84331918 -0.02963460 -0.30842525
v -0.85754210 -0.01533408 -0.28999990
v -0.86262172 -0.00533223 -0.28999990
v -0.89419997 0.06540430 -0.28999990
v -0.89517355 0.05110377 -0.26911220
v -0.89847529 0.06374441 -0.27522567
v -0.87934208 0.02131101 -0.27807015
v -0.88492966 0.02875920 -0.27085283
v -0.76094484 -0.07325971 -0.43273267
v -0.75328308 -0.08475120 -0.43273267
v -0.74782252 -0.09271013 -0.43273267
v -0.75662720 -0.09526379 -0.41379786
v -0.76369631 -0.08917756 -0.40827876
v -0.77999336 -0.10007320 -0.36000776
v -0.80060816 -0.08109096 -0.34149748
v -0.81313783 -0.06870568 -0.32901579
v -0.82058793 -0.06117237 -0.32167113
v -0.83290601 -0.04831892 -0.30842525
v -0.84022909 -0.04053024 -0.30074096
v -0.76022524 -0.10041368 -0.40046710
v -0.76284969 -0.10411650 -0.38998076
v -0.76941085 -0.10926639 -0.36875343
v -0.57003617 -0.31232530 -0.28999990
v -0.58324313 -0.30164248 -0.30592042
v -0.53134644 -0.32437009 -0.31080273
v -0.54273325 -0.32113546 -0.30473170
v -0.55678684 -0.31853923 -0.28999990
v -0.50874221 -0.32862622 -0.32994980
v -0.50874221 -0.33381867 -0.30863753
v -0.51005447 -0.33300999 -0.30999610
v -0.59738141 -0.29849297 -0.28999990
v -0.61003810 -0.29112989 -0.28999990
v -0.62129790 -0.28074497 -0.30248159
v -0.61791146 -0.27857438 -0.31581238
v -0.63061053 -0.26542300 -0.32927054
v -0.63767964 -0.25827274 -0.33551139
v -0.63370061 -0.25533602 -0.34998843
v -0.64292860 -0.24218464 -0.36497495
v -0.62980622 -0.24984564 -0.36960250
v -0.63903421 -0.23920536 -0.37830573
v -0.62536156 -0.24392965 -0.38998076
v -0.63535148 -0.23635378 -0.38998076
v -0.64322490 -0.22256398 -0.40492481
v -0.63018721 -0.23009729 -0.41018921
v -0.61698020 -0.23767316 -0.41549605
v -0.60758293 -0.23554513 -0.43273267
v -0.90677202 0.02999347 -0.19001907
v -0.91583061 0.05131657 -0.18925488
v -0.90118444 0.01735283 -0.19001907
v -0.92188382 0.06540430 -0.18645287
v -0.91896307 0.06251013 -0.19545327
v -0.92057157 0.06540430 -0.19290599
v -0.89851761 0.00292462 -0.16998044
v -0.89199877 -0.01005651 -0.16998044
v -0.88344812 -0.02669789 -0.16998044
v -0.87938440 -0.03904060 -0.15673457
v -0.87510908 -0.04861685 -0.15006918
v -0.86431491 -0.06742885 -0.14998427
v -0.87587100 -0.05287296 -0.13003056
v -0.86499220 -0.07155727 -0.12994564
v -0.86854792 -0.07006764 -0.11003438
v -0.87074912 -0.07006764 -0.09003821
v -0.87248462 -0.07006764 -0.07004204
v -0.87493974 -0.06815238 -0.04932414
v -0.87426245 -0.07057837 -0.03004970
v -0.88040036 -0.06087444 0.00098470
v -0.87443179 -0.07087629 -0.01005353
v -0.87443179 -0.07087629 0.00098470
v -0.87714094 -0.06636482 0.00098470
v -0.69118488 -0.27997887 0.00098470
v -0.69567186 -0.27674425 0.00098470
v -0.69571418 -0.27674425 -0.01005353
v -0.69546020 -0.27661657 -0.03004970
v -0.69495225 -0.27614838 -0.05004588
v -0.69410563 -0.27559510 -0.07004204
v -0.68297285 -0.28202182 -0.09003821
v -0.68157595 -0.28108549 -0.11003438
v -0.67006212 -0.28878903 -0.11003438
v -0.67158604 -0.28542671 -0.12964846
v -0.65439999 -0.29653513 -0.13003056
v -0.63006020 -0.30785638 -0.14998427
v -0.64220893 -0.30121687 -0.14998427
v -0.55733716 -0.33892599 -0.16998044
v -0.54734725 -0.34275648 -0.16998044
v -0.53007656 -0.34935343 -0.16998044
v -0.50874221 -0.35731238 -0.17087199
v -0.57007849 -0.33105218 -0.19001907
v -0.60885286 -0.31602812 -0.17087199
v -0.59949791 -0.31968838 -0.17813174
v -0.58760315 -0.32339120 -0.19001907
v -0.63137245 -0.30445153 -0.16955590
v -0.87633663 0.01007488 -0.27085283
v -0.85948926 -0.01912202 -0.27853715
v -0.84966868 -0.03001766 -0.28999990
v -0.86566949 -0.01150359 -0.27110755
v -0.89788270 0.06540430 -0.27891922
v -0.90054947 0.05859451 -0.26189488
v -0.89809430 0.04442167 -0.25000757
v -0.89957589 0.06540430 -0.27369732
v -0.89877158 0.06540430 -0.27620214
v -0.88141626 0.01684210 -0.26469690
v -0.89174479 0.02999347 -0.25000757
v -0.73601240 -0.10896847 -0.43273267
v -0.74333555 -0.10454211 -0.42585498
v -0.76191843 -0.12263057 -0.36421075
v -0.77512544 -0.11322457 -0.34998843
v -0.78215224 -0.10318016 -0.34998843
v -0.79633278 -0.09462538 -0.32999226
v -0.80293632 -0.08462352 -0.32999226
v -0.81677824 -0.07483447 -0.30999610
v -0.82278907 -0.06483262 -0.30999610
v -0.83637702 -0.05376674 -0.28999990
v -0.84209162 -0.04376488 -0.28999990
v -0.74930406 -0.10913870 -0.40874577
v -0.75556892 -0.11411835 -0.38998076
v -0.75878602 -0.11845958 -0.37754154
v -0.59196317 -0.30577090 -0.27182931
v -0.58734918 -0.30372798 -0.28999990
v -0.55966532 -0.31981605 -0.27925888
v -0.56965518 -0.31679422 -0.27157456
v -0.59992123 -0.29989749 -0.27972588
v -0.53003424 -0.32973278 -0.28999990
v -0.54679692 -0.32283789 -0.28999990
v -0.50874221 -0.33756405 -0.29195285
v -0.50984275 -0.33730865 -0.29118866
v -0.63061053 -0.28444779 -0.26864520
v -0.62417632 -0.28257513 -0.28999990
v -0.60969943 -0.29619467 -0.27182931
v -0.63420856 -0.27610582 -0.28999990
v -0.62879032 -0.27346703 -0.30948663
v -0.64119303 -0.26074129 -0.32218060
v -0.65054798 -0.25035638 -0.33092627
v -0.65990293 -0.23984379 -0.33967194
v -0.64711922 -0.24537674 -0.34998843
v -0.65710914 -0.23758805 -0.34998843
v -0.64974374 -0.23397036 -0.37096107
v -0.66062254 -0.22043593 -0.38093793
v -0.64995539 -0.22533046 -0.38853729
v -0.65655887 -0.21698849 -0.39426869
v -0.64995539 -0.21362616 -0.41095340
v -0.63886487 -0.21903142 -0.41825563
v -0.62485361 -0.22375569 -0.42997313
v -0.61198527 -0.23218280 -0.43273267
v -0.61020744 -0.23448110 -0.43099201
v -0.90266597 0.03003603 -0.20827459
v -0.90004152 0.01973625 -0.20042047
v -0.91066635 0.04999718 -0.21001524
v -0.89644343 0.00735098 -0.19001907
v -0.91951334 0.06540430 -0.19778828
v -0.91633856 0.06540430 -0.21154360
v -0.88785040 -0.01005651 -0.19001907
v -0.88137394 -0.02273971 -0.19001907
v -0.87608266 -0.03274156 -0.19001907
v -0.87811452 -0.03665718 -0.16998044
v -0.87070674 -0.05006392 -0.16998044
v -0.86249471 -0.06436445 -0.16998044
v -0.85652620 -0.07436630 -0.16998044
v -0.85834634 -0.07738814 -0.14998427
v -0.85944694 -0.07926083 -0.13661104
v -0.86042053 -0.08079302 -0.12328026
v -0.86126715 -0.08211242 -0.11003438
v -0.86232543 -0.08381486 -0.09003821
v -0.86321431 -0.08521938 -0.07004204
v -0.86384928 -0.08624084 -0.05004588
v -0.86427259 -0.08679414 -0.03004970
v -0.86444187 -0.08709206 -0.01005353
v -0.86444187 -0.08709206 0.00098470
v -0.70845556 -0.26674241 0.00098470
v -0.70849788 -0.26678497 -0.01005353
v -0.70828623 -0.26657215 -0.03004970
v -0.70777828 -0.26618910 -0.05004588
v -0.70701629 -0.26555067 -0.07004204
v -0.70595807 -0.26469946 -0.09003821
v -0.69296271 -0.27474388 -0.09003821
v -0.68051767 -0.28031939 -0.12272834
v -0.69156581 -0.27367985 -0.11003438
v -0.67929012 -0.27942559 -0.13605912
v -0.66781867 -0.28517133 -0.14998427
v -0.65224117 -0.29521576 -0.14998427
v -0.64072740 -0.30032307 -0.16255087
v -0.55412006 -0.33764917 -0.19001907
v -0.54413015 -0.34156477 -0.19001907
v -0.53007656 -0.34688491 -0.19001907
v -0.50874221 -0.35501409 -0.18857561
v -0.57007849 -0.32803035 -0.21001524
v -0.54899812 -0.33671281 -0.21056715
v -0.61003810 -0.31258067 -0.19001907
v -0.59759307 -0.31883717 -0.19001907
v -0.58413208 -0.32185900 -0.21001524
v -0.62684315 -0.30377054 -0.19001907
v -0.63890719 -0.29934418 -0.17588165
v -0.87828386 0.00352047 -0.25408322
v -0.85606056 -0.02988997 -0.27110755
v -0.86156344 -0.02312276 -0.26520637
v -0.87422013 -0.00865199 -0.24720557
v -0.90224266 0.05442353 -0.25000757
v -0.90651798 0.06540430 -0.25000757
v -0.90516341 0.06540430 -0.25476250
v -0.90186167 0.06540430 -0.26609790
v -0.89373434 0.03263226 -0.24720557
v -0.89966053 0.04063374 -0.23884198
v -0.88255918 0.00837244 -0.24720557
v -0.73372662 -0.11199030 -0.43273267
v -0.73834056 -0.11790629 -0.41702443
v -0.75345242 -0.12961058 -0.37049407
v -0.75747377 -0.13684598 -0.34998843
v -0.76513553 -0.12688668 -0.34998843
v -0.77821553 -0.11756580 -0.33568120
v -0.78566563 -0.11054322 -0.32939789
v -0.79891491 -0.09845588 -0.31721339
v -0.80632269 -0.09109281 -0.31033573
v -0.81906402 -0.07862241 -0.29751441
v -0.82596385 -0.07121678 -0.29050937
v -0.83870518 -0.05785260 -0.27611724
v -0.84488541 -0.05074491 -0.26966411
v -0.74193865 -0.12258801 -0.40369365
v -0.74456310 -0.12956803 -0.38824013
v -0.74016076 -0.14029342 -0.38038599
v -0.59001595 -0.31160176 -0.25000757
v -0.60284197 -0.30147225 -0.26639509
v -0.56275541 -0.32122058 -0.26597056
v -0.55183423 -0.32471058 -0.27157456
v -0.57630098 -0.31824130 -0.25000757
v -0.61626065 -0.29776943 -0.25000757
v -0.50874221 -0.33794707 -0.29021218
v -0.51720822 -0.33888343 -0.26996130
v -0.53003424 -0.33390379 -0.26996130
v -0.63006020 -0.28947002 -0.25000757
v -0.64047343 -0.28023425 -0.26108825
v -0.63767964 -0.27844667 -0.27441904
v -0.66066486 -0.26044336 -0.28142408
v -0.65063262 -0.26512507 -0.28881118
v -0.64415616 -0.26282677 -0.30999610
v -0.65414602 -0.25550628 -0.30999610
v -0.66316235 -0.24248257 -0.32634115
v -0.66989285 -0.23465133 -0.33181781
v -0.68403107 -0.22341521 -0.32999226
v -0.68111032 -0.22086155 -0.34196448
v -0.67061245 -0.22660729 -0.34918177
v -0.66362798 -0.22303216 -0.36998460
v -0.67759693 -0.21779715 -0.35529527
v -0.67361790 -0.21426457 -0.36998460
v -0.68136430 -0.20119832 -0.38225400
v -0.66904622 -0.20907213 -0.38824013
v -0.66312003 -0.20273052 -0.40997696
v -0.66007227 -0.19996405 -0.41999626
v -0.63484353 -0.21571165 -0.42997313
v -0.63145709 -0.21694592 -0.43273267
v -0.64940506 -0.20456065 -0.42797774
v -0.64720392 -0.20375198 -0.43273267
v -0.63636738 -0.21286006 -0.43273267
v -0.62388003 -0.22298959 -0.43273267
v -0.89839065 0.02339651 -0.21375126
v -0.90135372 0.03667556 -0.22551121
v -0.89436924 0.01181988 -0.20827459
v -0.90474015 0.04837985 -0.23128505
v -0.91172457 0.06540430 -0.23026614
v -0.88340580 -0.01043956 -0.20861423
v -0.88018870 -0.02048397 -0.20097238
v -0.86376464 -0.04687184 -0.21001524
v -0.86550015 -0.05163869 -0.19095308
v -0.86101317 -0.06181078 -0.18488204
v -0.85534096 -0.06908873 -0.19095308
v -0.84446210 -0.08709206 -0.19001907
v -0.84564734 -0.09151842 -0.17032008
v -0.85034597 -0.09002878 -0.14998427
v -0.84192228 -0.10300991 -0.14998427
v -0.85449433 -0.08849658 -0.12994564
v -0.85483301 -0.09211427 -0.11003438
v -0.85593355 -0.09381671 -0.09003821
v -0.85682249 -0.09517867 -0.07004204
v -0.85745740 -0.09620014 -0.05004588
v -0.85783839 -0.09679599 -0.03004970
v -0.85805005 -0.09713648 -0.01005353
v -0.85800773 -0.09709392 0.00098470
v -0.71844542 -0.25865579 0.00098470
v -0.71848774 -0.25865579 -0.01005353
v -0.71827614 -0.25848556 -0.03004970
v -0.71781051 -0.25805992 -0.05004588
v -0.71700621 -0.25742152 -0.07004204
v -0.71599030 -0.25652772 -0.09003821
v -0.70468819 -0.26363543 -0.11003438
v -0.68834877 -0.27363729 -0.12964846
v -0.70307964 -0.26244372 -0.13003056
v -0.67780858 -0.27836156 -0.14998427
v -0.69004196 -0.26929605 -0.14998427
v -0.66540587 -0.28359658 -0.16998044
v -0.64843148 -0.29449221 -0.16955590
v -0.54163265 -0.34058589 -0.20424139
v -0.53147346 -0.34348002 -0.21056715
v -0.50874221 -0.35199225 -0.21001524
v -0.57143307 -0.32411474 -0.23035105
v -0.55005634 -0.33326536 -0.22996895
v -0.53909290 -0.33956438 -0.21748726
v -0.61003810 -0.30917579 -0.21001524
v -0.59416431 -0.31713471 -0.21001524
v -0.58159226 -0.32062471 -0.22394039
v -0.63687539 -0.29815248 -0.19001907
v -0.62366837 -0.30198297 -0.21001524
v -0.65004003 -0.28993818 -0.19001907
v -0.88014638 -0.00048026 -0.24070999
v -0.87502444 -0.00703467 -0.24720557
v -0.85800773 -0.03644438 -0.25331905
v -0.86304498 -0.02988997 -0.24796975
v -0.87654829 -0.01333371 -0.22996895
v -0.86363763 -0.02916644 -0.24720557
v -0.90262365 0.05352975 -0.24720557
v -0.89686674 0.03003603 -0.23128505
v -0.88797742 0.00998977 -0.22996895
v -0.72382134 -0.12467350 -0.43273267
v -0.71954602 -0.13956988 -0.41923207
v -0.73080581 -0.13105766 -0.41146284
v -0.74274290 -0.14331526 -0.36998460
v -0.74651027 -0.15050808 -0.34922424
v -0.75980192 -0.13986781 -0.33967194
v -0.77038443 -0.13063206 -0.33101118
v -0.78092462 -0.12135374 -0.32235041
v -0.79400462 -0.10935152 -0.31033573
v -0.80145472 -0.10220125 -0.30392507
v -0.82139218 -0.08232523 -0.28418362
v -0.81461942 -0.08939037 -0.29050937
v -0.83417588 -0.06896105 -0.26966411
v -0.84086406 -0.06155542 -0.26278645
v -0.73660505 -0.13590963 -0.39371678
v -0.72331339 -0.14382599 -0.40590128
v -0.72115457 -0.16123347 -0.38208419
v -0.73419225 -0.15327455 -0.36998460
v -0.58988899 -0.31224018 -0.24720557
v -0.60622835 -0.30334491 -0.25000757
v -0.61681092 -0.29810989 -0.24720557
v -0.55005634 -0.33024353 -0.24720557
v -0.56631112 -0.32279533 -0.25000757
v -0.57901013 -0.31947559 -0.23727116
v -0.62768972 -0.29159808 -0.24720557
v -0.50874221 -0.34224576 -0.26873010
v -0.51987505 -0.33990490 -0.25960234
v -0.52978027 -0.33747891 -0.25174820
v -0.64318252 -0.28202182 -0.24720557
v -0.64267457 -0.28163877 -0.25000757
v -0.65266448 -0.27491412 -0.25000757
v -0.64830446 -0.27274349 -0.26864520
v -0.66290838 -0.26210323 -0.26996130
v -0.67675030 -0.25742152 -0.25000757
v -0.67294061 -0.25439969 -0.26996130
v -0.68238020 -0.24184415 -0.28549972
v -0.67010450 -0.25005844 -0.29012728
v -0.65770179 -0.25823018 -0.29471239
v -0.66701436 -0.24554697 -0.30999610
v -0.67954409 -0.23954585 -0.29883051
v -0.67700428 -0.23737524 -0.30999610
v -0.69761902 -0.21779715 -0.31470856
v -0.69402099 -0.21456251 -0.32999226
v -0.69059223 -0.22622424 -0.30880737
v -0.70172507 -0.20158137 -0.34336549
v -0.68970329 -0.20966798 -0.34935161
v -0.69833863 -0.19834673 -0.35669628
v -0.68475068 -0.20422016 -0.36998460
v -0.69478291 -0.19498441 -0.36998460
v -0.70164037 -0.18157767 -0.38284838
v -0.68957633 -0.18957916 -0.38921660
v -0.67746991 -0.19753808 -0.39558479
v -0.67310989 -0.19349477 -0.40997696
v -0.68047535 -0.18038596 -0.42063308
v -0.66815728 -0.18817464 -0.42700130
v -0.66637945 -0.18634450 -0.43273267
v -0.65685517 -0.19519721 -0.43273267
v -0.65490800 -0.19698478 -0.43273267
v -0.88158560 -0.00333185 -0.22996895
v -0.87853783 -0.01729189 -0.21430317
v -0.87417781 -0.02827265 -0.20861423
v -0.86126715 -0.04240293 -0.22996895
v -0.85813475 -0.05691626 -0.21001524
v -0.85957396 -0.05938480 -0.19821283
v -0.85034597 -0.07006764 -0.21001524
v -0.84213394 -0.08343181 -0.21001524
v -0.83802795 -0.09709392 -0.19001907
v -0.83938247 -0.09922197 -0.17719774
v -0.84069473 -0.10113722 -0.16386697
v -0.83514947 -0.11301176 -0.14998427
v -0.84348851 -0.10526565 -0.13003056
v -0.84484309 -0.10726602 -0.11003438
v -0.84594363 -0.10888334 -0.09003821
v -0.84560502 -0.11186261 -0.07029676
v -0.84814483 -0.11003248 -0.05004588
v -0.84890676 -0.11003248 -0.03004970
v -0.84928775 -0.11003248 -0.01005353
v -0.85407102 -0.10292479 0.00098470
v -0.72356737 -0.25414431 0.00098470
v -0.73973745 -0.23980123 -0.01005353
v -0.73956817 -0.23958842 -0.03004970
v -0.72911263 -0.24810064 -0.05004588
v -0.72835070 -0.24737710 -0.07004204
v -0.72733474 -0.24656844 -0.09003821
v -0.71467805 -0.25546372 -0.11003438
v -0.72610718 -0.24546185 -0.11003438
v -0.70121711 -0.26091152 -0.14998427
v -0.71311188 -0.25410175 -0.13003056
v -0.67539573 -0.27670169 -0.16998044
v -0.70011652 -0.26006031 -0.16034321
v -0.66278136 -0.28185159 -0.19001907
v -0.52652085 -0.34237343 -0.22996895
v -0.50874221 -0.34914064 -0.22839813
v -0.53121948 -0.33773428 -0.24720557
v -0.53651071 -0.33858550 -0.22996895
v -0.62134022 -0.30070615 -0.22347338
v -0.61135030 -0.30470687 -0.23009631
v -0.58895773 -0.31594300 -0.23035105
v -0.63365829 -0.29623723 -0.21001524
v -0.65130991 -0.28534159 -0.20971805
v -0.85373241 -0.04725489 -0.24720557
v -0.85995489 -0.04006207 -0.23998827
v -0.86274868 -0.03086888 -0.24720557
v -0.86787063 -0.03006022 -0.22996895
v -0.71543998 -0.13484560 -0.43273267
v -0.71349281 -0.13710134 -0.43273267
v -0.70447654 -0.14748624 -0.43273267
v -0.70536542 -0.14948662 -0.42831737
v -0.70037049 -0.16033968 -0.42050570
v -0.71446639 -0.15029527 -0.41150531
v -0.73783261 -0.15744554 -0.35538018
v -0.74088037 -0.16106322 -0.34204939
v -0.76259571 -0.14331526 -0.32634115
v -0.75476468 -0.14999734 -0.33181781
v -0.77584505 -0.13459024 -0.30999610
v -0.78329515 -0.12458838 -0.30999610
v -0.79701006 -0.11582080 -0.28999990
v -0.80395222 -0.10586150 -0.28999990
v -0.81728619 -0.09594477 -0.26996130
v -0.82367802 -0.08594292 -0.26996130
v -0.83675802 -0.07474935 -0.25000757
v -0.84276891 -0.06474750 -0.25000757
v -0.71747184 -0.15714760 -0.39541498
v -0.70341825 -0.16357432 -0.40997696
v -0.70955610 -0.16949032 -0.38913167
v -0.71497434 -0.17464021 -0.36998460
v -0.72424465 -0.16463836 -0.36998460
v -0.61888510 -0.29930162 -0.23680416
v -0.62883264 -0.29483271 -0.23009631
v -0.64635730 -0.28406477 -0.22996895
v -0.50874221 -0.34535271 -0.25149348
v -0.52410805 -0.34045818 -0.24720557
v -0.52110261 -0.34160733 -0.24720557
v -0.65634722 -0.27751034 -0.22996895
v -0.64457941 -0.28108549 -0.24720557
v -0.65317243 -0.27529716 -0.24720557
v -0.66532117 -0.26665726 -0.24720557
v -0.66671807 -0.26491225 -0.25000757
v -0.67725825 -0.25784713 -0.24720557
v -0.66942722 -0.26372057 -0.24720557
v -0.69368231 -0.24473831 -0.24720557
v -0.68551266 -0.24439782 -0.26996130
v -0.69550252 -0.23609841 -0.26996130
v -0.68944931 -0.23380011 -0.29127356
v -0.70062447 -0.22052106 -0.30137777
v -0.70934445 -0.20932749 -0.30842525
v -0.70485747 -0.20456065 -0.32999226
v -0.71484739 -0.19477160 -0.32999226
v -0.72157788 -0.18166278 -0.34336549
v -0.71002173 -0.18996221 -0.35003090
v -0.71840310 -0.17825790 -0.35669628
v -0.70502681 -0.18498255 -0.36998460
v -0.69783068 -0.17774718 -0.39617914
v -0.68369246 -0.18345036 -0.40997696
v -0.69368231 -0.17353362 -0.40997696
v -0.68657088 -0.16651104 -0.43273267
v -0.67852819 -0.17464021 -0.43273267
v -0.67471844 -0.17834303 -0.43273267
v -0.85559493 -0.05240478 -0.22996895
v -0.84484309 -0.07087629 -0.22941704
v -0.84056771 -0.08104839 -0.22236955
v -0.83569980 -0.09343366 -0.21001524
v -0.82465160 -0.11075602 -0.20844442
v -0.82012230 -0.12024715 -0.20071766
v -0.82935023 -0.11003248 -0.19001907
v -0.82130754 -0.12194959 -0.19001907
v -0.83434522 -0.10871309 -0.17032008
v -0.82333940 -0.12488630 -0.16998044
v -0.82515955 -0.12735485 -0.14998427
v -0.83671570 -0.11526750 -0.13003056
v -0.83802795 -0.11726788 -0.11003438
v -0.83912849 -0.11884263 -0.09003821
v -0.83972114 -0.11969385 -0.07717444
v -0.84022909 -0.12045996 -0.06384365
v -0.84061009 -0.12101325 -0.05004588
v -0.84103334 -0.12152398 -0.03004970
v -0.84120268 -0.12177934 -0.01005353
v -0.84116036 -0.12177934 0.00098470
v -0.73973745 -0.23975867 0.00098470
v -0.76005590 -0.22009546 0.00098470
v -0.76009822 -0.22009546 -0.01005353
v -0.76001358 -0.22001033 -0.02228048
v -0.75188619 -0.22771388 -0.02937043
v -0.75984424 -0.21984008 -0.03561127
v -0.74947339 -0.22920352 -0.05004588
v -0.73910254 -0.23912024 -0.05004588
v -0.73834056 -0.23848183 -0.07004204
v -0.73736697 -0.23754549 -0.09003821
v -0.72466797 -0.24405733 -0.13003056
v -0.73609710 -0.23639634 -0.11003438
v -0.71120697 -0.25248444 -0.14998427
v -0.72284776 -0.24244002 -0.14998427
v -0.69110018 -0.26538044 -0.16819733
v -0.68635923 -0.26469946 -0.19001907
v -0.67277128 -0.27474388 -0.19001907
v -0.69850796 -0.25869834 -0.17367400
v -0.72123921 -0.24103549 -0.16539533
v -0.70993710 -0.24993077 -0.16955590
v -0.66091883 -0.28053218 -0.20284039
v -0.50874221 -0.34607625 -0.24720557
v -0.65876001 -0.27908510 -0.21612872
v -0.84306520 -0.06559872 -0.24720557
v -0.69808465 -0.15450881 -0.43273267
v -0.69478291 -0.15799883 -0.43273267
v -0.72966290 -0.16966057 -0.34935161
v -0.73457319 -0.17404436 -0.32999226
v -0.74354720 -0.16404250 -0.32999226
v -0.75777006 -0.15731785 -0.30999610
v -0.76585513 -0.14731599 -0.30999610
v -0.77851182 -0.13812280 -0.29598603
v -0.78617358 -0.13088742 -0.28957537
v -0.79916888 -0.11897032 -0.27764559
v -0.80666137 -0.11139444 -0.27059811
v -0.81923336 -0.09896661 -0.25756451
v -0.82901162 -0.08841146 -0.24720557
v -0.83878988 -0.07815424 -0.23570034
v -0.84200692 -0.06738628 -0.24720557
v -0.67145902 -0.26657215 -0.23026614
v -0.67907846 -0.25925165 -0.23710135
v -0.70075148 -0.24056733 -0.24194118
v -0.69833863 -0.23852439 -0.25527197
v -0.70680469 -0.22609656 -0.26996130
v -0.70295262 -0.22260654 -0.28999990
v -0.71294254 -0.21324311 -0.28999990
v -0.72094291 -0.20085783 -0.30214196
v -0.71806449 -0.19804880 -0.31547275
v -0.72462565 -0.18472719 -0.32999226
v -0.83379495 -0.08862426 -0.22941704
v -0.82312775 -0.10479748 -0.22996895
v -0.81847143 -0.11790629 -0.21404843
v -0.81246054 -0.12820607 -0.20844442
v -0.80170870 -0.14237891 -0.21001524
v -0.81406909 -0.13190888 -0.19001907
v -0.81618559 -0.13488816 -0.16998044
v -0.81800580 -0.13735670 -0.14998427
v -0.81923336 -0.13901658 -0.13495530
v -0.82549822 -0.13148327 -0.12896919
v -0.82896930 -0.13007876 -0.11003438
v -0.83117044 -0.13007876 -0.09003821
v -0.83413357 -0.12824863 -0.07029676
v -0.82283145 -0.14386855 -0.07004204
v -0.83345628 -0.13097253 -0.05004588
v -0.83383727 -0.13152583 -0.03004970
v -0.83396423 -0.13182376 -0.01005353
v -0.83392191 -0.13173863 0.00098470
v -0.77495611 -0.20413505 0.00098470
v -0.77944309 -0.19941077 -0.01005353
v -0.76958019 -0.20996591 -0.01005353
v -0.77931613 -0.19928308 -0.03004970
v -0.76746368 -0.21192372 -0.02937043
v -0.77893513 -0.19877234 -0.05004588
v -0.76890290 -0.20945518 -0.05004588
v -0.75946331 -0.21945703 -0.05004588
v -0.74875379 -0.22847998 -0.07004204
v -0.74778020 -0.22754364 -0.09003821
v -0.74659497 -0.22639449 -0.11003438
v -0.73457319 -0.23490670 -0.13003056
v -0.74511337 -0.22490485 -0.13003056
v -0.73275298 -0.23328939 -0.14998427
v -0.69634914 -0.25708103 -0.19001907
v -0.68343848 -0.26252884 -0.21001524
v -0.66858059 -0.27355218 -0.20971805
v -0.70832855 -0.24703661 -0.19001907
v -0.71975768 -0.23971611 -0.17872611
v -0.74130368 -0.22128716 -0.16998044
v -0.73783261 -0.17766204 -0.31492084
v -0.74655259 -0.17055434 -0.30893472
v -0.75980192 -0.15978639 -0.29963714
v -0.78092462 -0.14122976 -0.28265524
v -0.77038443 -0.15055063 -0.29114619
v -0.79400462 -0.12918498 -0.27059811
v -0.80137008 -0.12199216 -0.26431483
v -0.82355106 -0.09696624 -0.24720557
v -0.81440777 -0.10913870 -0.25051704
v -0.81800580 -0.10530820 -0.24720557
v -0.82118058 -0.10190332 -0.24423373
v -0.68127960 -0.26091152 -0.22377056
v -0.68881440 -0.25329310 -0.23026614
v -0.70701629 -0.23328939 -0.24720557
v -0.70265633 -0.24214208 -0.22996895
v -0.71264625 -0.23328939 -0.22996895
v -0.72140855 -0.22124460 -0.24397901
v -0.71908039 -0.21911654 -0.25735223
v -0.71679455 -0.21690336 -0.26996130
v -0.72331339 -0.20324126 -0.28999990
v -0.73330331 -0.19302660 -0.28999990
v -0.74058408 -0.18064132 -0.30159006
v -0.72936660 -0.18932378 -0.30851018
v -0.81635493 -0.11479933 -0.22996895
v -0.80530679 -0.13088742 -0.22873777
v -0.80031180 -0.14050622 -0.22126573
v -0.79387766 -0.15229565 -0.21001524
v -0.79629046 -0.15536004 -0.19001907
v -0.80407917 -0.14544331 -0.19001907
v -0.80615336 -0.14812465 -0.16998044
v -0.80687296 -0.15182747 -0.15083337
v -0.82016462 -0.14033598 -0.12166698
v -0.81305319 -0.14825234 -0.12896919
v -0.82088423 -0.14127232 -0.11003438
v -0.82198483 -0.14276196 -0.09003821
v -0.82346636 -0.14467721 -0.05004588
v -0.81516969 -0.15374272 -0.07004204
v -0.82380503 -0.14518794 -0.03004970
v -0.82397437 -0.14540075 -0.01005353
v -0.82943493 -0.13786744 0.00098470
v -0.77940077 -0.19932564 0.00098470
v -0.78333747 -0.19485673 0.00098470
v -0.78816307 -0.18936634 -0.01005353
v -0.78799379 -0.18928123 -0.03004970
v -0.78765512 -0.18877049 -0.05004588
v -0.78697783 -0.18808952 -0.07004204
v -0.77825785 -0.19804880 -0.07004204
v -0.76822561 -0.20873164 -0.07004204
v -0.75874370 -0.21873349 -0.07004204
v -0.75781244 -0.21775459 -0.09003821
v -0.75658482 -0.21652031 -0.11003438
v -0.75510329 -0.21511580 -0.13003056
v -0.74333555 -0.22324497 -0.14998427
v -0.69342834 -0.25474018 -0.21001524
v -0.70561939 -0.24473831 -0.21001524
v -0.71831846 -0.23839670 -0.19001907
v -0.73110211 -0.22682010 -0.18844824
v -0.74016076 -0.22013801 -0.18080640
v -0.75336778 -0.21332824 -0.14998427
v -0.75133592 -0.21120018 -0.16998044
v -0.75417203 -0.16961801 -0.29178300
v -0.76225710 -0.16268055 -0.28630635
v -0.78308350 -0.14399624 -0.26996130
v -0.77512544 -0.15391296 -0.26996130
v -0.79620582 -0.13501585 -0.25000757
v -0.80357122 -0.12501399 -0.25000757
v -0.80534911 -0.12360948 -0.24720557
v -0.71560931 -0.23601329 -0.21001524
v -0.72360969 -0.22324497 -0.22996895
v -0.73351496 -0.21371129 -0.22996895
v -0.74143070 -0.20149626 -0.24453092
v -0.73681670 -0.20515651 -0.24720557
v -0.72547221 -0.21622239 -0.24720557
v -0.73927182 -0.19919795 -0.25786170
v -0.72703844 -0.20690151 -0.26996130
v -0.73707068 -0.19698478 -0.26996130
v -0.74282759 -0.18306731 -0.28999990
v -0.80378288 -0.12582265 -0.24720557
v -0.79849160 -0.13808024 -0.23459652
v -0.79011029 -0.15025271 -0.23056331
v -0.78172892 -0.16212726 -0.22648767
v -0.78388774 -0.16472349 -0.21001524
v -0.79844928 -0.15804139 -0.16998044
v -0.78630054 -0.16761763 -0.19001907
v -0.79959220 -0.15953103 -0.15805067
v -0.80073512 -0.16097811 -0.14471988
v -0.81318015 -0.15127417 -0.11003438
v -0.80187804 -0.16234006 -0.13003056
v -0.81428075 -0.15267870 -0.09003821
v -0.81576228 -0.15459394 -0.05004588
v -0.81614327 -0.15506211 -0.03004970
v -0.80429083 -0.16536190 -0.09003821
v -0.80513746 -0.16642593 -0.07004204
v -0.81631261 -0.15531749 -0.01005353
v -0.81974131 -0.15076344 0.00098470
v -0.82393199 -0.14527306 0.00098470
v -0.79811066 -0.17778973 0.00098470
v -0.79815298 -0.17778973 -0.01005353
v -0.79802597 -0.17761949 -0.03004970
v -0.79764503 -0.17719388 -0.05004588
v -0.79701006 -0.17642778 -0.07004204
v -0.78613126 -0.18702549 -0.09003821
v -0.77732658 -0.19702734 -0.09003821
v -0.76733667 -0.20775273 -0.09003821
v -0.76619375 -0.20656103 -0.11003438
v -0.76479685 -0.20511395 -0.13003056
v -0.76314598 -0.20328382 -0.14998427
v -0.73850989 -0.21852069 -0.19409472
v -0.72640347 -0.22596887 -0.21001524
v -0.76005590 -0.20004918 -0.18046676
v -0.74930406 -0.20928493 -0.18725951
v -0.76115650 -0.20119832 -0.16998044
v -0.75650018 -0.17604473 -0.26996130
v -0.76513553 -0.16604286 -0.26996130
v -0.79662907 -0.13561170 -0.24720557
v -0.77834249 -0.15795627 -0.25000757
v -0.78452271 -0.15127417 -0.24720557
v -0.78621590 -0.14799698 -0.25000757
v -0.73639339 -0.21647775 -0.21001524
v -0.74363184 -0.20366687 -0.22996895
v -0.75362176 -0.19315428 -0.22996895
v -0.76094484 -0.18106693 -0.24312991
v -0.74532503 -0.19643149 -0.24720557
v -0.75015068 -0.19013244 -0.25051704
v -0.75878602 -0.17868352 -0.25646070
v -0.74646795 -0.18694037 -0.26996130
v -0.78845942 -0.14620940 -0.24720557
v -0.77990872 -0.15987152 -0.23981844
v -0.77423650 -0.16927752 -0.23187941
v -0.77550638 -0.17472534 -0.21001524
v -0.77796155 -0.17761949 -0.19001907
v -0.77940077 -0.17932193 -0.17728265
v -0.78723180 -0.17157581 -0.17036253
v -0.78075534 -0.18085413 -0.16390942
v -0.79341203 -0.16855398 -0.15083337
v -0.79362369 -0.17234191 -0.13003056
v -0.80319029 -0.16399994 -0.11003438
v -0.79497826 -0.17400180 -0.11003438
v -0.80577242 -0.16719203 -0.05004588
v -0.80615336 -0.16761763 -0.03004970
v -0.79612112 -0.17536375 -0.09003821
v -0.81627023 -0.15518980 0.00098470
v -0.80632269 -0.16778788 -0.01005353
v -0.80628037 -0.16778788 0.00098470
v -0.81178325 -0.16085042 0.00098470
v -0.78498834 -0.18574865 -0.11003438
v -0.77618366 -0.19575050 -0.11003438
v -0.77482909 -0.19417575 -0.13003056
v -0.77313590 -0.19234562 -0.14998427
v -0.74642563 -0.20647590 -0.21001524
v -0.77258563 -0.18851513 -0.17036253
v -0.76640540 -0.19098367 -0.18827842
v -0.75844735 -0.19834673 -0.19379753
v -0.76725203 -0.17119277 -0.24988021
v -0.77876580 -0.15850957 -0.24720557
v -0.75641555 -0.19613355 -0.21001524
v -0.76284969 -0.18319499 -0.22996895
v -0.76475453 -0.17510839 -0.24720557
v -0.75497627 -0.18608914 -0.24720557
v -0.77063841 -0.16817093 -0.24720557
v -0.76551652 -0.18613170 -0.21001524
v -0.78202522 -0.18234377 -0.14998427
v -0.78363377 -0.18421645 -0.13003056
f 1 2 5
f 1 5 12
f 1 12 23
f 1 23 43
f 1 43 46
f 1 46 79
f 1 79 78
f 1 78 77
f 1 77 76
f 1 76 115
f 1 115 159
f 1 159 218
f 1 218 282
f 1 282 281
f 1 281 349
f 1 349 424
f 1 424 516
f 1 516 520
f 1 520 519
f 1 519 619
f 1 619 618
f 1 618 617
f 1 617 677
f 1 677 570
f 1 570 569
f 1 569 472
f 1 472 470
f 1 470 388
f 1 388 387
f 1 387 312
f 1 312 311
f 1 311 245
f 1 245 188
f 1 188 185
f 1 185 135
f 1 135 93
f 1 93 92
f 1 92 56
f 1 56 32
f 1 32 31
f 1 31 15
f 1 15 7
f 1 7 3
f 1 3 9
f 1 9 19
f 1 19 37
f 1 37 65
f 1 65 64
f 1 64 101
f 1 101 145
f 1 145 198
f 1 198 256
f 1 256 255
f 1 255 325
f 1 325 327
f 1 327 403
f 1 403 486
f 1 486 489
f 1 489 488
f 1 488 587
f 1 587 695
f 1 695 807
f 1 807 907
f 1 907 974
f 1 974 1034
f 1 1034 1090
f 1 1090 1089
f 1 1089 1136
f 1 1136 1139
f 1 1139 1138
f 1 1138 1091
f 1 1091 1036
f 1 1036 1035
f 1 1035 975
f 1 975 909
f 1 909 908
f 1 908 808
f 1 808 696
f 1 696 588
f 1 588 491
f 1 491 490
f 1 490 404
f 1 404 328
f 1 328 259
f 1 259 258
f 1 258 200
f 1 200 199
f 1 199 146
f 1 146 103
f 1 103 102
f 1 102 66
f 1 66 38
f 1 38 20
f 1 20 10
f 1 10 4
f 1 4 2
f 2 4 6
f 2 6 14
f 2 14 30
f 2 30 55
f 2 55 91
f 2 91 134
f 2 134 184
f 2 184 182
f 2 182 242
f 2 242 309
f 2 309 384
f 2 384 466
f 2 466 563
f 2 563 672
f 2 672 668
f 2 668 671
f 2 671 670
f 2 670 787
f 2 787 786
f 2 786 785
f 2 785 887
f 2 887 886
f 2 886 885
f 2 885 933
f 2 933 932
f 2 932 836
f 2 836 835
f 2 835 834
f 2 834 730
f 2 730 623
f 2 623 523
f 2 523 431
f 2 431 430
f 2 430 429
f 2 429 354
f 2 354 353
f 2 353 285
f 2 285 221
f 2 221 163
f 2 163 118
f 2 118 82
f 2 82 48
f 2 48 27
f 2 27 13
f 2 13 5
f 3 7 8
f 3 8 9
f 4 10 22
f 4 22 41
f 4 41 70
f 4 70 108
f 4 108 152
f 4 152 210
f 4 210 271
f 4 271 338
f 4 338 414
f 4 414 506
f 4 506 604
f 4 604 711
f 4 711 822
f 4 822 929
f 4 929 860
f 4 860 755
f 4 755 645
f 4 645 544
f 4 544 449
f 4 449 448
f 4 448 369
f 4 369 297
f 4 297 235
f 4 235 228
f 4 228 171
f 4 171 124
f 4 124 87
f 4 87 86
f 4 86 52
f 4 52 29
f 4 29 14
f 4 14 6
f 5 11 12
f 5 13 11
f 7 15 8
f 8 16 17
f 8 17 18
f 8 18 19
f 8 19 9
f 8 15 16
f 10 20 21
f 10 21 22
f 11 23 12
f 11 13 24
f 11 24 25
f 11 25 26
f 11 26 23
f 13 27 28
f 13 28 24
f 14 29 30
f 15 31 16
f 16 31 32
f 16 32 33
f 16 33 34
f 16 34 17
f 17 34 60
f 17 60 35
f 17 35 36
f 17 36 18
f 18 36 65
f 18 65 37
f 18 37 19
f 20 38 39
f 20 39 21
f 21 39 40
f 21 40 22
f 22 40 42
f 22 42 41
f 23 26 43
f 24 28 25
f 25 28 44
f 25 44 26
f 26 45 46
f 26 46 43
f 26 44 47
f 26 47 45
f 27 48 49
f 27 49 28
f 28 49 50
f 28 50 44
f 29 51 30
f 29 52 53
f 29 53 51
f 30 51 53
f 30 53 54
f 30 54 55
f 32 56 57
f 32 57 33
f 33 57 34
f 34 58 59
f 34 59 60
f 34 57 58
f 35 60 61
f 35 61 62
f 35 62 36
f 36 62 63
f 36 63 64
f 36 64 65
f 38 66 39
f 39 67 40
f 39 66 102
f 39 102 68
f 39 68 69
f 39 69 67
f 40 67 42
f 41 42 70
f 42 67 71
f 42 71 72
f 42 72 73
f 42 73 70
f 44 50 74
f 44 74 75
f 44 75 47
f 45 76 77
f 45 77 78
f 45 78 79
f 45 79 46
f 45 47 80
f 45 80 81
f 45 81 76
f 47 75 80
f 48 82 49
f 49 82 83
f 49 83 84
f 49 84 85
f 49 85 50
f 50 85 74
f 52 86 53
f 53 86 87
f 53 87 88
f 53 88 89
f 53 89 54
f 54 89 90
f 54 90 55
f 55 90 91
f 56 92 57
f 57 92 93
f 57 93 94
f 57 94 58
f 58 94 95
f 58 95 59
f 59 95 96
f 59 96 97
f 59 97 60
f 60 97 61
f 61 97 98
f 61 98 62
f 62 98 99
f 62 99 100
f 62 100 63
f 63 100 64
f 64 100 101
f 67 69 71
f 68 102 103
f 68 103 104
f 68 104 105
f 68 105 69
f 69 105 106
f 69 106 107
f 69 107 71
f 70 73 108
f 71 109 110
f 71 110 72
f 71 107 109
f 72 110 73
f 73 110 108
f 74 111 75
f 74 85 84
f 74 84 112
f 74 112 113
f 74 113 114
f 74 114 111
f 75 111 80
f 76 81 115
f 80 111 116
f 80 116 81
f 81 116 117
f 81 117 115
f 82 118 119
f 82 119 83
f 83 119 84
f 84 119 120
f 84 120 121
f 84 121 122
f 84 122 123
f 84 123 112
f 87 124 125
f 87 125 88
f 88 126 127
f 88 127 89
f 88 125 124
f 88 124 128
f 88 128 129
f 88 129 126
f 89 130 131
f 89 131 90
f 89 127 130
f 90 132 133
f 90 133 134
f 90 134 91
f 90 131 132
f 93 135 136
f 93 136 94
f 94 136 137
f 94 137 95
f 95 138 96
f 95 137 189
f 95 189 138
f 96 138 139
f 96 139 140
f 96 140 97
f 97 140 98
f 98 140 141
f 98 141 142
f 98 142 99
f 99 142 143
f 99 143 100
f 100 143 144
f 100 144 145
f 100 145 101
f 103 146 104
f 104 146 147
f 104 147 105
f 105 147 148
f 105 148 149
f 105 149 106
f 106 149 150
f 106 150 107
f 107 150 151
f 107 151 109
f 108 110 152
f 109 151 153
f 109 153 110
f 110 153 154
f 110 154 152
f 111 114 155
f 111 155 116
f 112 123 113
f 113 123 156
f 113 156 157
f 113 157 114
f 114 157 158
f 114 158 155
f 115 117 159
f 116 160 117
f 116 155 160
f 117 160 161
f 117 161 159
f 118 162 119
f 118 163 162
f 119 162 164
f 119 164 120
f 120 164 121
f 121 164 165
f 121 165 166
f 121 166 167
f 121 167 122
f 122 167 123
f 123 167 168
f 123 168 169
f 123 169 170
f 123 170 156
f 124 171 128
f 126 129 172
f 126 172 173
f 126 173 174
f 126 174 175
f 126 175 130
f 126 130 127
f 128 171 176
f 128 176 172
f 128 172 129
f 130 177 132
f 130 132 131
f 130 175 177
f 132 177 178
f 132 178 179
f 132 179 180
f 132 180 133
f 133 180 181
f 133 181 182
f 133 182 183
f 133 183 134
f 134 183 184
f 135 185 136
f 136 186 187
f 136 187 137
f 136 185 188
f 136 188 186
f 137 187 189
f 138 189 190
f 138 190 139
f 139 190 191
f 139 191 192
f 139 192 140
f 140 192 141
f 141 192 193
f 141 193 194
f 141 194 142
f 142 194 195
f 142 195 196
f 142 196 143
f 143 196 144
f 144 196 197
f 144 197 198
f 144 198 145
f 146 199 147
f 147 200 258
f 147 258 201
f 147 201 148
f 147 199 200
f 148 201 202
f 148 202 149
f 149 202 203
f 149 203 204
f 149 204 205
f 149 205 150
f 150 206 207
f 150 207 151
f 150 205 206
f 151 207 153
f 152 208 209
f 152 209 210
f 152 154 208
f 153 207 211
f 153 211 212
f 153 212 154
f 154 212 209
f 154 209 208
f 155 213 160
f 155 158 213
f 156 170 157
f 157 170 214
f 157 214 215
f 157 215 158
f 158 216 213
f 158 215 216
f 159 161 217
f 159 217 218
f 160 213 219
f 160 219 161
f 161 219 220
f 161 220 217
f 162 163 164
f 163 221 222
f 163 222 165
f 163 165 164
f 165 222 166
f 166 222 223
f 166 223 224
f 166 224 168
f 166 168 167
f 168 225 169
f 168 224 226
f 168 226 227
f 168 227 225
f 169 225 170
f 170 225 214
f 171 228 176
f 172 229 230
f 172 230 173
f 172 176 231
f 172 231 229
f 173 230 174
f 174 230 232
f 174 232 233
f 174 233 234
f 174 234 175
f 175 234 177
f 176 228 235
f 176 235 231
f 177 234 178
f 178 236 237
f 178 237 238
f 178 238 179
f 178 234 239
f 178 239 236
f 179 238 240
f 179 240 180
f 180 240 241
f 180 241 181
f 181 241 182
f 182 241 242
f 182 184 183
f 186 243 244
f 186 244 187
f 186 188 245
f 186 245 243
f 187 244 246
f 187 246 189
f 189 246 247
f 189 247 190
f 190 247 248
f 190 248 191
f 191 248 249
f 191 249 250
f 191 250 192
f 192 250 193
f 193 251 252
f 193 252 194
f 193 250 251
f 194 252 253
f 194 253 195
f 195 253 254
f 195 254 196
f 196 254 197
f 197 255 256
f 197 256 198
f 197 254 257
f 197 257 255
f 201 258 259
f 201 259 260
f 201 260 261
f 201 261 202
f 202 261 262
f 202 262 203
f 203 262 263
f 203 263 204
f 204 263 264
f 204 264 265
f 204 265 205
f 205 265 266
f 205 266 206
f 206 266 267
f 206 267 207
f 207 268 211
f 207 267 268
f 209 269 270
f 209 270 271
f 209 271 210
f 209 212 272
f 209 272 269
f 211 268 273
f 211 273 274
f 211 274 272
f 211 272 212
f 213 275 219
f 213 216 275
f 214 276 215
f 214 225 277
f 214 277 276
f 215 276 278
f 215 278 216
f 216 278 279
f 216 279 275
f 217 220 280
f 217 280 281
f 217 281 282
f 217 282 218
f 219 275 283
f 219 283 220
f 220 283 284
f 220 284 280
f 221 285 222
f 222 285 286
f 222 286 223
f 223 286 287
f 223 287 224
f 224 287 226
f 225 227 288
f 225 288 289
f 225 289 290
f 225 290 277
f 226 287 291
f 226 291 292
f 226 292 293
f 226 293 288
f 226 288 227
f 229 294 230
f 229 231 295
f 229 295 296
f 229 296 294
f 230 294 232
f 231 235 297
f 231 297 295
f 232 298 233
f 232 294 299
f 232 299 298
f 233 300 301
f 233 301 239
f 233 239 234
f 233 298 300
f 236 239 302
f 236 302 303
f 236 303 304
f 236 304 237
f 237 304 305
f 237 305 238
f 238 305 306
f 238 306 240
f 239 301 302
f 240 306 241
f 241 306 307
f 241 307 308
f 241 308 309
f 241 309 242
f 243 310 244
f 243 245 311
f 243 311 312
f 243 312 313
f 243 313 310
f 244 310 314
f 244 314 246
f 246 314 315
f 246 315 247
f 247 315 316
f 247 316 248
f 248 317 249
f 248 316 317
f 249 317 318
f 249 318 319
f 249 319 250
f 250 319 251
f 251 319 320
f 251 320 321
f 251 321 252
f 252 321 322
f 252 322 253
f 253 322 323
f 253 323 324
f 253 324 254
f 254 324 257
f 255 257 325
f 257 324 326
f 257 326 327
f 257 327 325
f 259 328 329
f 259 329 260
f 260 329 330
f 260 330 261
f 261 330 262
f 262 330 331
f 262 331 263
f 263 331 332
f 263 332 264
f 264 333 265
f 264 332 333
f 265 334 335
f 265 335 266
f 265 333 410
f 265 410 334
f 266 335 267
f 267 335 336
f 267 336 268
f 268 336 273
f 269 272 337
f 269 337 270
f 270 337 271
f 271 337 339
f 271 339 338
f 272 340 337
f 272 274 341
f 272 341 340
f 273 342 341
f 273 341 274
f 273 336 343
f 273 343 342
f 275 279 344
f 275 344 283
f 276 277 290
f 276 290 345
f 276 345 346
f 276 346 278
f 278 346 279
f 279 347 344
f 279 346 348
f 279 348 347
f 280 349 281
f 280 284 350
f 280 350 349
f 283 344 351
f 283 351 284
f 284 352 350
f 284 351 352
f 285 353 286
f 286 353 354
f 286 354 355
f 286 355 356
f 286 356 357
f 286 357 287
f 287 357 358
f 287 358 291
f 288 293 359
f 288 359 360
f 288 360 289
f 289 360 361
f 289 361 290
f 290 361 362
f 290 362 345
f 291 358 292
f 292 359 293
f 292 358 363
f 292 363 364
f 292 364 365
f 292 365 359
f 294 366 299
f 294 296 367
f 294 367 368
f 294 368 366
f 295 367 296
f 295 297 369
f 295 369 370
f 295 370 371
f 295 371 367
f 298 299 372
f 298 372 300
f 299 366 372
f 300 373 374
f 300 374 302
f 300 302 301
f 300 372 375
f 300 375 373
f 302 374 376
f 302 376 303
f 303 376 377
f 303 377 378
f 303 378 304
f 304 378 305
f 305 378 379
f 305 379 306
f 306 379 380
f 306 380 381
f 306 381 382
f 306 382 383
f 306 383 307
f 307 383 308
f 308 383 384
f 308 384 309
f 310 313 385
f 310 385 386
f 310 386 314
f 312 387 313
f 313 387 388
f 313 388 389
f 313 389 385
f 314 386 390
f 314 390 315
f 315 391 316
f 315 390 391
f 316 391 392
f 316 392 317
f 317 392 393
f 317 393 394
f 317 394 318
f 318 394 395
f 318 395 319
f 319 395 320
f 320 395 479
f 320 479 396
f 320 396 397
f 320 397 321
f 321 397 322
f 322 397 398
f 322 398 399
f 322 399 323
f 323 399 400
f 323 400 324
f 324 400 401
f 324 401 402
f 324 402 326
f 326 402 403
f 326 403 327
f 328 404 405
f 328 405 329
f 329 405 330
f 330 405 406
f 330 406 407
f 330 407 331
f 331 407 332
f 332 407 408
f 332 408 409
f 332 409 333
f 333 409 410
f 334 411 335
f 334 410 412
f 334 412 411
f 335 411 343
f 335 343 336
f 337 340 413
f 337 413 339
f 338 339 414
f 339 413 414
f 340 341 415
f 340 415 413
f 341 342 416
f 341 416 417
f 341 417 415
f 342 343 418
f 342 418 416
f 343 411 418
f 344 347 419
f 344 419 351
f 345 362 420
f 345 420 346
f 346 420 421
f 346 421 348
f 347 348 422
f 347 422 423
f 347 423 419
f 348 421 422
f 349 350 424
f 350 352 425
f 350 425 426
f 350 426 424
f 351 427 352
f 351 419 427
f 352 427 428
f 352 428 425
f 354 429 355
f 355 429 356
f 356 358 357
f 356 429 430
f 356 430 431
f 356 431 432
f 356 432 433
f 356 433 358
f 358 433 363
f 359 365 434
f 359 434 435
f 359 435 360
f 360 435 361
f 361 435 436
f 361 436 437
f 361 437 362
f 362 438 439
f 362 439 420
f 362 437 438
f 363 433 440
f 363 440 441
f 363 441 364
f 364 441 442
f 364 442 434
f 364 434 365
f 366 368 443
f 366 443 444
f 366 444 372
f 367 371 445
f 367 445 446
f 367 446 368
f 368 446 447
f 368 447 443
f 369 448 370
f 370 445 371
f 370 448 449
f 370 449 450
f 370 450 445
f 372 444 375
f 373 375 451
f 373 451 452
f 373 452 453
f 373 453 454
f 373 454 374
f 374 454 376
f 375 444 451
f 376 455 377
f 376 454 455
f 377 456 378
f 377 455 456
f 378 456 457
f 378 457 458
f 378 458 459
f 378 459 379
f 379 459 460
f 379 460 461
f 379 461 380
f 380 461 381
f 381 461 460
f 381 460 462
f 381 462 463
f 381 463 464
f 381 464 465
f 381 465 382
f 382 465 383
f 383 465 466
f 383 466 384
f 385 467 386
f 385 389 468
f 385 468 467
f 386 467 469
f 386 469 390
f 388 470 389
f 389 471 468
f 389 470 472
f 389 472 471
f 390 473 391
f 390 469 473
f 391 473 474
f 391 474 475
f 391 475 392
f 392 475 476
f 392 476 393
f 393 476 394
f 394 476 477
f 394 477 478
f 394 478 479
f 394 479 395
f 396 479 480
f 396 480 481
f 396 481 397
f 397 481 482
f 397 482 398
f 398 482 483
f 398 483 399
f 399 483 484
f 399 484 400
f 400 484 485
f 400 485 401
f 401 485 402
f 402 486 403
f 402 485 487
f 402 487 488
f 402 488 489
f 402 489 486
f 404 490 405
f 405 490 491
f 405 491 492
f 405 492 493
f 405 493 406
f 406 493 407
f 407 493 494
f 407 494 495
f 407 495 408
f 408 496 409
f 408 495 496
f 409 496 497
f 409 497 498
f 409 498 410
f 410 498 499
f 410 499 500
f 410 500 412
f 411 412 501
f 411 501 418
f 412 500 502
f 412 502 501
f 413 415 503
f 413 503 504
f 413 504 505
f 413 505 414
f 414 505 506
f 415 417 507
f 415 507 503
f 416 418 508
f 416 508 509
f 416 509 417
f 417 510 507
f 417 509 510
f 418 501 511
f 418 511 508
f 419 423 512
f 419 512 427
f 420 439 421
f 421 439 422
f 422 513 423
f 422 439 514
f 422 514 513
f 423 513 515
f 423 515 512
f 424 426 516
f 425 517 426
f 425 428 518
f 425 518 517
f 426 517 519
f 426 519 520
f 426 520 516
f 427 512 521
f 427 521 428
f 428 521 522
f 428 522 518
f 431 523 524
f 431 524 432
f 432 524 440
f 432 440 433
f 434 442 525
f 434 525 526
f 434 526 527
f 434 527 435
f 435 527 528
f 435 528 529
f 435 529 436
f 436 529 530
f 436 530 437
f 437 530 531
f 437 531 438
f 438 531 439
f 439 531 532
f 439 532 533
f 439 533 514
f 440 524 534
f 440 534 535
f 440 535 536
f 440 536 441
f 441 536 442
f 442 536 525
f 443 537 538
f 443 538 444
f 443 447 539
f 443 539 540
f 443 540 537
f 444 541 451
f 444 538 541
f 445 450 542
f 445 542 446
f 446 542 543
f 446 543 447
f 447 543 539
f 449 544 450
f 450 544 545
f 450 545 542
f 451 541 452
f 452 546 547
f 452 547 453
f 452 541 548
f 452 548 546
f 453 547 549
f 453 549 550
f 453 550 454
f 454 550 455
f 455 550 551
f 455 551 456
f 456 551 552
f 456 552 553
f 456 553 554
f 456 554 457
f 457 554 458
f 458 554 555
f 458 555 556
f 458 556 460
f 458 460 459
f 460 556 557
f 460 557 558
f 460 558 462
f 462 558 463
f 463 558 557
f 463 557 559
f 463 559 560
f 463 560 561
f 463 561 464
f 464 561 465
f 465 561 562
f 465 562 563
f 465 563 564
f 465 564 466
f 466 564 563
f 467 565 566
f 467 566 469
f 467 468 567
f 467 567 565
f 468 471 567
f 469 566 568
f 469 568 473
f 471 472 569
f 471 569 570
f 471 570 567
f 473 568 571
f 473 571 474
f 474 571 572
f 474 572 475
f 475 572 573
f 475 573 574
f 475 574 476
f 476 574 575
f 476 575 477
f 477 575 576
f 477 576 478
f 478 576 577
f 478 577 578
f 478 578 579
f 478 579 480
f 478 480 479
f 480 579 580
f 480 580 481
f 481 580 581
f 481 581 482
f 482 581 582
f 482 582 583
f 482 583 483
f 483 583 584
f 483 584 484
f 484 584 485
f 485 584 585
f 485 585 586
f 485 586 487
f 487 586 587
f 487 587 488
f 491 588 589
f 491 589 492
f 492 589 493
f 493 589 590
f 493 590 591
f 493 591 494
f 494 591 495
f 495 591 592
f 495 592 593
f 495 593 594
f 495 594 496
f 496 594 497
f 497 595 498
f 497 594 596
f 497 596 595
f 498 595 499
f 499 595 597
f 499 597 598
f 499 598 500
f 500 598 599
f 500 599 502
f 501 502 600
f 501 600 511
f 502 599 600
f 503 507 601
f 503 601 602
f 503 602 504
f 504 602 505
f 505 602 603
f 505 603 506
f 506 603 604
f 507 510 605
f 507 605 606
f 507 606 601
f 508 511 607
f 508 607 509
f 509 607 608
f 509 608 510
f 510 609 605
f 510 608 609
f 511 610 607
f 511 600 611
f 511 611 610
f 512 612 521
f 512 515 612
f 513 514 613
f 513 613 614
f 513 614 515
f 514 533 613
f 515 614 615
f 515 615 612
f 517 616 617
f 517 617 618
f 517 618 619
f 517 619 519
f 517 518 616
f 518 522 620
f 518 620 621
f 518 621 616
f 521 612 622
f 521 622 522
f 522 622 620
f 523 623 624
f 523 624 524
f 524 624 534
f 525 536 625
f 525 625 626
f 525 626 627
f 525 627 526
f 526 627 628
f 526 628 527
f 527 628 629
f 527 629 528
f 528 629 630
f 528 630 529
f 529 630 631
f 529 631 530
f 530 632 531
f 530 631 632
f 531 632 633
f 531 633 532
f 532 633 634
f 532 634 533
f 533 635 613
f 533 634 635
f 534 624 636
f 534 636 535
f 535 636 536
f 536 636 637
f 536 637 638
f 536 638 625
f 537 540 639
f 537 639 640
f 537 640 541
f 537 541 538
f 539 641 540
f 539 543 642
f 539 642 641
f 540 641 643
f 540 643 639
f 541 640 644
f 541 644 548
f 542 642 543
f 542 545 645
f 542 645 646
f 542 646 647
f 542 647 642
f 544 645 545
f 546 648 649
f 546 649 650
f 546 650 547
f 546 548 644
f 546 644 648
f 547 650 549
f 549 651 652
f 549 652 653
f 549 653 550
f 549 650 651
f 550 653 551
f 551 653 654
f 551 654 552
f 552 655 553
f 552 654 655
f 553 655 656
f 553 656 657
f 553 657 658
f 553 658 659
f 553 659 555
f 553 555 554
f 555 659 660
f 555 660 556
f 556 660 557
f 557 660 661
f 557 661 662
f 557 662 663
f 557 663 664
f 557 664 559
f 559 664 665
f 559 665 666
f 559 666 560
f 560 666 561
f 561 667 668
f 561 668 562
f 561 666 669
f 561 669 670
f 561 670 671
f 561 671 667
f 562 668 672
f 562 672 563
f 565 673 566
f 565 567 674
f 565 674 673
f 566 673 675
f 566 675 568
f 567 676 674
f 567 570 677
f 567 677 676
f 568 675 678
f 568 678 571
f 571 678 679
f 571 679 572
f 572 679 573
f 573 679 680
f 573 680 681
f 573 681 574
f 574 681 575
f 575 681 682
f 575 682 576
f 576 682 577
f 577 682 683
f 577 683 684
f 577 684 685
f 577 685 578
f 578 685 686
f 578 686 579
f 579 686 687
f 579 687 688
f 579 688 580
f 580 688 689
f 580 689 581
f 581 689 690
f 581 690 582
f 582 690 583
f 583 690 691
f 583 691 692
f 583 692 584
f 584 692 585
f 585 692 693
f 585 693 694
f 585 694 586
f 586 694 587
f 587 694 695
f 588 696 589
f 589 696 697
f 589 697 698
f 589 698 590
f 590 698 591
f 591 698 699
f 591 699 592
f 592 699 700
f 592 700 593
f 593 700 701
f 593 701 702
f 593 702 594
f 594 702 596
f 595 596 703
f 595 703 597
f 596 702 704
f 596 704 703
f 597 705 598
f 597 703 706
f 597 706 705
f 598 705 707
f 598 707 599
f 599 707 708
f 599 708 600
f 600 708 611
f 601 606 709
f 601 709 602
f 602 709 603
f 603 709 710
f 603 710 604
f 604 710 711
f 605 609 712
f 605 712 713
f 605 713 606
f 606 713 714
f 606 714 709
f 607 610 715
f 607 715 608
f 608 716 609
f 608 715 716
f 609 716 717
f 609 717 712
f 610 611 718
f 610 718 719
f 610 719 715
f 611 708 720
f 611 720 718
f 612 721 622
f 612 615 722
f 612 722 721
f 613 635 723
f 613 723 614
f 614 723 724
f 614 724 615
f 615 725 721
f 615 721 722
f 615 724 726
f 615 726 725
f 616 727 677
f 616 677 617
f 616 621 727
f 620 622 728
f 620 728 621
f 621 728 674
f 621 674 676
f 621 676 727
f 622 721 729
f 622 729 728
f 623 730 624
f 624 730 731
f 624 731 732
f 624 732 636
f 625 638 733
f 625 733 626
f 626 733 734
f 626 734 735
f 626 735 627
f 627 735 628
f 628 735 736
f 628 736 737
f 628 737 629
f 629 737 630
f 630 737 738
f 630 738 739
f 630 739 631
f 631 739 632
f 632 740 633
f 632 739 741
f 632 741 740
f 633 740 742
f 633 742 634
f 634 742 743
f 634 743 635
f 635 743 723
f 636 732 744
f 636 744 637
f 637 744 638
f 638 744 745
f 638 745 746
f 638 746 747
f 638 747 733
f 639 748 749
f 639 749 640
f 639 643 748
f 640 750 644
f 640 749 750
f 641 642 751
f 641 751 752
f 641 752 643
f 642 647 751
f 643 752 753
f 643 753 748
f 644 750 754
f 644 754 648
f 645 755 646
f 646 756 647
f 646 755 756
f 647 756 757
f 647 757 751
f 648 754 758
f 648 758 759
f 648 759 649
f 649 759 760
f 649 760 761
f 649 761 650
f 650 761 651
f 651 762 763
f 651 763 764
f 651 764 765
f 651 765 766
f 651 766 767
f 651 767 652
f 651 761 762
f 652 767 653
f 653 767 654
f 654 767 768
f 654 768 655
f 655 768 769
f 655 769 770
f 655 770 656
f 656 770 657
f 657 771 772
f 657 772 658
f 657 770 773
f 657 773 771
f 658 772 774
f 658 774 775
f 658 775 661
f 658 661 659
f 659 661 660
f 661 775 776
f 661 776 777
f 661 777 662
f 662 777 663
f 663 665 664
f 663 777 778
f 663 778 779
f 663 779 780
f 663 780 781
f 663 781 665
f 665 781 666
f 666 670 669
f 666 781 782
f 666 782 783
f 666 783 784
f 666 784 785
f 666 785 786
f 666 786 787
f 666 787 670
f 667 671 668
f 673 674 728
f 673 728 729
f 673 729 675
f 675 729 788
f 675 788 678
f 676 677 727
f 678 789 679
f 678 788 789
f 679 790 680
f 679 789 790
f 680 790 791
f 680 791 792
f 680 792 793
f 680 793 681
f 681 793 682
f 682 793 683
f 683 794 795
f 683 795 684
f 683 793 794
f 684 796 797
f 684 797 685
f 684 795 891
f 684 891 796
f 685 797 798
f 685 798 686
f 686 798 687
f 687 798 799
f 687 799 899
f 687 899 800
f 687 800 688
f 688 800 689
f 689 800 801
f 689 801 690
f 690 801 802
f 690 802 691
f 691 802 803
f 691 803 692
f 692 803 804
f 692 804 693
f 693 804 805
f 693 805 694
f 694 805 806
f 694 806 807
f 694 807 695
f 696 808 697
f 697 808 809
f 697 809 698
f 698 809 810
f 698 810 811
f 698 811 699
f 699 811 700
f 700 811 812
f 700 812 813
f 700 813 701
f 701 814 702
f 701 813 815
f 701 815 814
f 702 814 704
f 703 704 816
f 703 816 706
f 704 814 817
f 704 817 816
f 705 818 707
f 705 706 819
f 705 819 818
f 706 816 819
f 707 818 820
f 707 820 708
f 708 820 720
f 709 714 710
f 710 714 821
f 710 821 711
f 711 821 822
f 712 752 751
f 712 751 713
f 712 717 753
f 712 753 752
f 713 823 824
f 713 824 714
f 713 751 823
f 714 824 821
f 715 719 825
f 715 825 826
f 715 826 827
f 715 827 716
f 716 827 753
f 716 753 717
f 718 828 719
f 718 720 829
f 718 829 828
f 719 828 825
f 720 820 829
f 721 725 788
f 721 788 729
f 723 743 830
f 723 830 831
f 723 831 832
f 723 832 724
f 724 832 726
f 725 789 788
f 725 726 831
f 725 831 833
f 725 833 789
f 726 832 831
f 730 834 731
f 731 834 835
f 731 835 836
f 731 836 837
f 731 837 838
f 731 838 839
f 731 839 745
f 731 745 744
f 731 744 732
f 733 747 840
f 733 840 734
f 734 840 841
f 734 841 735
f 735 842 736
f 735 841 843
f 735 843 842
f 736 842 844
f 736 844 737
f 737 844 845
f 737 845 738
f 738 845 846
f 738 846 739
f 739 846 847
f 739 847 741
f 740 741 848
f 740 848 849
f 740 849 742
f 741 847 848
f 742 849 743
f 743 849 850
f 743 850 851
f 743 851 830
f 745 839 852
f 745 852 746
f 746 853 854
f 746 854 779
f 746 779 855
f 746 855 856
f 746 856 747
f 746 852 853
f 747 856 840
f 748 826 749
f 748 753 827
f 748 827 826
f 749 826 857
f 749 857 750
f 750 857 754
f 751 757 823
f 754 858 859
f 754 859 758
f 754 857 858
f 755 860 756
f 756 861 823
f 756 823 757
f 756 860 862
f 756 862 861
f 758 863 864
f 758 864 759
f 758 859 863
f 759 864 760
f 760 865 866
f 760 866 867
f 760 867 762
f 760 762 761
f 760 864 865
f 762 868 763
f 762 867 869
f 762 869 868
f 763 868 870
f 763 870 871
f 763 871 764
f 764 871 765
f 765 871 872
f 765 872 873
f 765 873 769
f 765 769 766
f 766 769 768
f 766 768 767
f 769 873 874
f 769 874 773
f 769 773 770
f 771 773 874
f 771 874 875
f 771 875 876
f 771 876 772
f 772 876 774
f 774 876 877
f 774 877 878
f 774 878 879
f 774 879 776
f 774 776 775
f 776 879 880
f 776 880 881
f 776 881 778
f 776 778 777
f 778 881 779
f 779 881 880
f 779 880 855
f 779 854 882
f 779 882 780
f 780 882 883
f 780 883 781
f 781 883 782
f 782 883 783
f 783 785 784
f 783 883 882
f 783 882 884
f 783 884 838
f 783 838 885
f 783 885 886
f 783 886 887
f 783 887 785
f 789 833 790
f 790 833 791
f 791 833 831
f 791 831 888
f 791 888 792
f 792 888 889
f 792 889 794
f 792 794 793
f 794 889 890
f 794 890 795
f 795 890 891
f 796 891 892
f 796 892 893
f 796 893 894
f 796 894 797
f 797 894 895
f 797 895 896
f 797 896 798
f 798 896 799
f 799 896 897
f 799 897 898
f 799 898 899
f 800 899 801
f 801 899 900
f 801 900 802
f 802 900 901
f 802 901 902
f 802 902 803
f 803 902 903
f 803 903 804
f 804 903 904
f 804 904 905
f 804 905 805
f 805 905 806
f 806 905 906
f 806 906 907
f 806 907 807
f 808 908 809
f 809 908 909
f 809 909 910
f 809 910 911
f 809 911 810
f 810 911 912
f 810 912 913
f 810 913 914
f 810 914 915
f 810 915 811
f 811 915 916
f 811 916 812
f 812 916 813
f 813 916 917
f 813 917 815
f 814 815 918
f 814 918 817
f 815 917 919
f 815 919 918
f 816 817 920
f 816 920 819
f 817 918 921
f 817 921 920
f 818 819 922
f 818 922 923
f 818 923 924
f 818 924 820
f 819 925 922
f 819 920 926
f 819 926 927
f 819 927 925
f 820 924 928
f 820 928 829
f 821 862 822
f 821 824 862
f 822 862 929
f 823 861 824
f 824 861 862
f 825 828 858
f 825 858 857
f 825 857 826
f 828 829 859
f 828 859 858
f 829 928 930
f 829 930 859
f 830 851 831
f 831 851 931
f 831 931 888
f 836 932 838
f 836 838 837
f 838 884 882
f 838 882 853
f 838 853 852
f 838 852 839
f 838 932 933
f 838 933 885
f 840 856 880
f 840 880 934
f 840 934 841
f 841 934 878
f 841 878 935
f 841 935 936
f 841 936 843
f 842 843 937
f 842 937 938
f 842 938 844
f 843 936 937
f 844 938 939
f 844 939 845
f 845 939 940
f 845 940 846
f 846 940 941
f 846 941 847
f 847 942 848
f 847 941 942
f 848 943 849
f 848 942 943
f 849 943 944
f 849 944 850
f 850 945 946
f 850 946 851
f 850 944 945
f 851 946 931
f 853 882 854
f 855 880 856
f 859 930 863
f 860 929 862
f 863 930 947
f 863 947 869
f 863 869 866
f 863 866 865
f 863 865 864
f 866 869 867
f 868 869 948
f 868 948 870
f 869 947 948
f 870 949 950
f 870 950 871
f 870 948 949
f 871 950 872
f 872 950 951
f 872 951 952
f 872 952 873
f 873 952 874
f 874 952 953
f 874 953 954
f 874 954 875
f 875 954 955
f 875 955 876
f 876 955 877
f 877 955 956
f 877 956 878
f 878 956 935
f 878 934 880
f 878 880 879
f 888 931 889
f 889 945 890
f 889 931 946
f 889 946 945
f 890 945 957
f 890 957 958
f 890 958 891
f 891 958 892
f 892 958 959
f 892 959 893
f 893 959 960
f 893 960 961
f 893 961 962
f 893 962 895
f 893 895 894
f 895 962 963
f 895 963 897
f 895 897 896
f 897 963 964
f 897 964 898
f 898 964 965
f 898 965 966
f 898 966 899
f 899 966 900
f 900 966 967
f 900 967 901
f 901 967 968
f 901 968 902
f 902 968 969
f 902 969 903
f 903 969 970
f 903 970 971
f 903 971 904
f 904 971 905
f 905 971 972
f 905 972 906
f 906 972 973
f 906 973 907
f 907 973 974
f 909 975 976
f 909 976 977
f 909 977 910
f 910 977 978
f 910 978 911
f 911 978 979
f 911 979 913
f 911 913 912
f 913 979 978
f 913 978 980
f 913 980 981
f 913 981 982
f 913 982 914
f 914 983 916
f 914 916 915
f 914 982 1043
f 914 1043 983
f 916 983 984
f 916 984 917
f 917 984 985
f 917 985 919
f 918 919 986
f 918 986 988
f 918 988 921
f 919 985 987
f 919 987 986
f 920 921 926
f 921 988 926
f 922 925 923
f 923 925 989
f 923 989 990
f 923 990 924
f 924 990 991
f 924 991 928
f 925 927 992
f 925 992 989
f 926 993 927
f 926 988 994
f 926 994 993
f 927 993 992
f 928 991 930
f 930 991 947
f 935 956 995
f 935 995 936
f 936 995 937
f 937 995 996
f 937 996 997
f 937 997 938
f 938 997 939
f 939 998 940
f 939 997 999
f 939 999 998
f 940 998 941
f 941 998 1000
f 941 1000 1001
f 941 1001 942
f 942 1001 943
f 943 1002 944
f 943 1001 1003
f 943 1003 1004
f 943 1004 1005
f 943 1005 1002
f 944 1002 945
f 945 1002 957
f 947 991 1006
f 947 1006 948
f 948 1006 1007
f 948 1007 949
f 949 1008 950
f 949 1007 1009
f 949 1009 1010
f 949 1010 1011
f 949 1011 1008
f 950 1008 1012
f 950 1012 951
f 951 1012 1013
f 951 1013 952
f 952 1013 953
f 953 1014 954
f 953 1013 1014
f 954 1014 1015
f 954 1015 1016
f 954 1016 1017
f 954 1017 955
f 955 1017 995
f 955 995 956
f 957 1002 1005
f 957 1005 958
f 958 1005 1018
f 958 1018 959
f 959 1019 1020
f 959 1020 960
f 959 1018 1019
f 960 1020 961
f 961 1020 1021
f 961 1021 1022
f 961 1022 1023
f 961 1023 962
f 962 1023 963
f 963 1023 1024
f 963 1024 964
f 964 1024 1025
f 964 1025 965
f 965 1026 966
f 965 1025 1027
f 965 1027 1026
f 966 1026 967
f 967 1026 1028
f 967 1028 968
f 968 1028 1029
f 968 1029 969
f 969 1029 970
f 970 1030 971
f 970 1029 1031
f 970 1031 1030
f 971 1030 972
f 972 1030 1032
f 972 1032 973
f 973 1032 1033
f 973 1033 1034
f 973 1034 974
f 975 1035 976
f 976 1035 1036
f 976 1036 1037
f 976 1037 978
f 976 978 977
f 978 1037 1038
f 978 1038 1039
f 978 1039 980
f 980 1039 1040
f 980 1040 1041
f 980 1041 1042
f 980 1042 981
f 981 1042 982
f 982 1042 1043
f 983 1043 984
f 984 1043 1044
f 984 1044 985
f 985 1044 1045
f 985 1045 1046
f 985 1046 987
f 986 987 988
f 987 1046 1047
f 987 1047 988
f 988 1047 994
f 989 1048 990
f 989 992 1049
f 989 1049 1048
f 990 1048 1006
f 990 1006 991
f 992 993 1050
f 992 1050 1049
f 993 1051 1050
f 993 994 1052
f 993 1052 1051
f 994 1047 1053
f 994 1053 1054
f 994 1054 1052
f 995 1017 1016
f 995 1016 996
f 996 1016 997
f 997 1016 1055
f 997 1055 1056
f 997 1056 999
f 998 1057 1000
f 998 999 1058
f 998 1058 1057
f 999 1056 1058
f 1000 1057 1059
f 1000 1059 1001
f 1001 1059 1060
f 1001 1060 1003
f 1003 1060 1061
f 1003 1061 1004
f 1004 1061 1018
f 1004 1018 1005
f 1006 1048 1007
f 1007 1048 1009
f 1008 1011 1012
f 1009 1048 1049
f 1009 1049 1062
f 1009 1062 1010
f 1010 1062 1063
f 1010 1063 1011
f 1011 1063 1064
f 1011 1064 1065
f 1011 1065 1066
f 1011 1066 1067
f 1011 1067 1012
f 1012 1067 1066
f 1012 1066 1068
f 1012 1068 1069
f 1012 1069 1013
f 1013 1069 1014
f 1014 1069 1070
f 1014 1070 1015
f 1015 1070 1071
f 1015 1071 1016
f 1016 1071 1055
f 1018 1061 1072
f 1018 1072 1019
f 1019 1072 1073
f 1019 1073 1020
f 1020 1073 1074
f 1020 1074 1075
f 1020 1075 1021
f 1021 1075 1076
f 1021 1076 1022
f 1022 1077 1023
f 1022 1076 1078
f 1022 1078 1077
f 1023 1077 1024
f 1024 1077 1079
f 1024 1079 1025
f 1025 1079 1080
f 1025 1080 1027
f 1026 1027 1081
f 1026 1081 1028
f 1027 1080 1082
f 1027 1082 1081
f 1028 1081 1029
f 1029 1081 1083
f 1029 1083 1031
f 1030 1031 1084
f 1030 1084 1085
f 1030 1085 1032
f 1031 1083 1086
f 1031 1086 1087
f 1031 1087 1084
f 1032 1085 1088
f 1032 1088 1033
f 1033 1088 1089
f 1033 1089 1090
f 1033 1090 1034
f 1036 1091 1037
f 1037 1091 1092
f 1037 1092 1038
f 1038 1092 1093
f 1038 1093 1094
f 1038 1094 1039
f 1039 1094 1040
f 1040 1094 1095
f 1040 1095 1096
f 1040 1096 1041
f 1041 1096 1097
f 1041 1097 1098
f 1041 1098 1042
f 1042 1098 1043
f 1043 1098 1044
f 1044 1098 1099
f 1044 1099 1045
f 1045 1099 1100
f 1045 1100 1046
f 1046 1100 1101
f 1046 1101 1053
f 1046 1053 1047
f 1049 1050 1062
f 1050 1051 1102
f 1050 1102 1103
f 1050 1103 1062
f 1051 1052 1102
f 1052 1054 1104
f 1052 1104 1105
f 1052 1105 1102
f 1053 1101 1106
f 1053 1106 1054
f 1054 1106 1104
f 1055 1071 1107
f 1055 1107 1056
f 1056 1107 1108
f 1056 1108 1058
f 1057 1109 1059
f 1057 1058 1110
f 1057 1110 1111
f 1057 1111 1112
f 1057 1112 1109
f 1058 1108 1110
f 1059 1109 1060
f 1060 1072 1061
f 1060 1109 1073
f 1060 1073 1072
f 1062 1103 1063
f 1063 1103 1113
f 1063 1113 1064
f 1064 1114 1065
f 1064 1113 1114
f 1065 1114 1115
f 1065 1115 1116
f 1065 1116 1117
f 1065 1117 1068
f 1065 1068 1066
f 1068 1117 1118
f 1068 1118 1119
f 1068 1119 1120
f 1068 1120 1070
f 1068 1070 1069
f 1070 1120 1071
f 1071 1120 1107
f 1073 1109 1121
f 1073 1121 1111
f 1073 1111 1122
f 1073 1122 1074
f 1074 1122 1075
f 1075 1122 1123
f 1075 1123 1124
f 1075 1124 1076
f 1076 1124 1125
f 1076 1125 1078
f 1077 1078 1126
f 1077 1126 1127
f 1077 1127 1079
f 1078 1125 1126
f 1079 1127 1128
f 1079 1128 1129
f 1079 1129 1080
f 1080 1129 1130
f 1080 1130 1082
f 1081 1082 1131
f 1081 1131 1083
f 1082 1130 1132
f 1082 1132 1131
f 1083 1131 1086
f 1084 1087 1133
f 1084 1133 1085
f 1085 1133 1134
f 1085 1134 1088
f 1086 1131 1135
f 1086 1135 1095
f 1086 1095 1087
f 1087 1095 1094
f 1087 1094 1133
f 1088 1136 1089
f 1088 1134 1137
f 1088 1137 1138
f 1088 1138 1139
f 1088 1139 1136
f 1091 1138 1137
f 1091 1137 1092
f 1092 1137 1093
f 1093 1137 1134
f 1093 1134 1133
f 1093 1133 1094
f 1095 1135 1096
f 1096 1135 1140
f 1096 1140 1141
f 1096 1141 1097
f 1097 1141 1099
f 1097 1099 1098
f 1099 1141 1100
f 1100 1141 1142
f 1100 1142 1101
f 1101 1142 1143
f 1101 1143 1106
f 1102 1113 1103
f 1102 1105 1144
f 1102 1144 1113
f 1104 1106 1145
f 1104 1145 1126
f 1104 1126 1146
f 1104 1146 1147
f 1104 1147 1105
f 1105 1147 1144
f 1106 1143 1145
f 1107 1120 1119
f 1107 1119 1108
f 1108 1148 1110
f 1108 1119 1148
f 1109 1112 1121
f 1110 1148 1149
f 1110 1149 1111
f 1111 1121 1112
f 1111 1149 1122
f 1113 1144 1114
f 1114 1144 1150
f 1114 1150 1115
f 1115 1150 1151
f 1115 1151 1116
f 1116 1152 1119
f 1116 1119 1153
f 1116 1153 1117
f 1116 1151 1123
f 1116 1123 1122
f 1116 1122 1154
f 1116 1154 1152
f 1117 1153 1118
f 1118 1153 1119
f 1119 1152 1148
f 1122 1149 1154
f 1123 1151 1124
f 1124 1151 1155
f 1124 1155 1125
f 1125 1155 1146
f 1125 1146 1126
f 1126 1145 1128
f 1126 1128 1127
f 1128 1145 1143
f 1128 1143 1156
f 1128 1156 1129
f 1129 1156 1130
f 1130 1156 1157
f 1130 1157 1132
f 1131 1132 1135
f 1132 1157 1140
f 1132 1140 1135
f 1140 1157 1141
f 1141 1157 1142
f 1142 1157 1156
f 1142 1156 1143
f 1144 1147 1150
f 1146 1155 1147
f 1147 1155 1150
f 1148 1154 1149
f 1148 1152 1154
f 1150 1155 1151
