v -0.00095618 -0.36744964 0.51492798
v -0.00095618 -0.19177964 0.51492798
v 0.01002368 -0.36742407 0.51492798
v 0.01002368 -0.34070671 0.58171600
v -0.00095618 -0.34070671 0.58171600
v -0.00095618 -0.10625845 0.63234937
v 0.37479317 -0.10625845 0.51492798
v 0.03001530 -0.36711729 0.51492798
v 0.03001530 -0.34057885 0.58138222
v 0.01002368 -0.33646259 0.59172922
v -0.00095618 -0.33878917 0.58625531
v -0.00095618 -0.10625845 0.85584390
v 0.52814865 -0.10625845 0.51492798
v 0.03643750 -0.36693829 0.51492798
v 0.05000694 -0.34459287 0.57000059
v 0.05000694 -0.34029764 0.58074808
v 0.03001530 -0.33630919 0.59139544
v 0.01002368 -0.32835788 0.61001998
v -0.00095618 -0.33280653 0.60000676
v -0.00095618 -0.33646259 0.59172922
v -0.00095618 -0.10802257 0.85467565
v 0.00696796 -0.10625845 0.85587728
v 0.52814865 -0.10625845 0.67557299
v 0.52814865 -0.24641606 0.51492798
v 0.05000694 -0.36652923 0.51492798
v 0.06228159 -0.34009308 0.58024740
v 0.05000694 -0.33602795 0.59076124
v 0.03001530 -0.32805109 0.61001998
v 0.01002368 -0.32188946 0.62383819
v -0.00095618 -0.32835788 0.61001998
v -0.00095618 -0.11668973 0.84890139
v 0.00862530 -0.10802257 0.85470903
v 0.00986829 -0.10625845 0.85584390
v 0.52814865 -0.10815039 0.67407101
v 0.52498937 -0.10625845 0.67804295
v 0.52457500 -0.24286227 0.52470756
v 0.52680206 -0.24723420 0.51492798
v 0.52814865 -0.24173732 0.52287179
v 0.05689524 -0.36624801 0.51492798
v 0.06937706 -0.34318668 0.57173622
v 0.07564387 -0.33978629 0.57951307
v 0.06937706 -0.33636034 0.58815783
v 0.07005036 -0.32661933 0.61001998
v 0.05000694 -0.32746306 0.61001998
v 0.03001530 -0.32173607 0.62350440
v 0.01002368 -0.31682724 0.63385135
v -0.00095618 -0.32188946 0.62383819
v -0.00095618 -0.12492227 0.84339416
v 0.01002368 -0.12494784 0.84342754
v 0.03001530 -0.11001678 0.85297346
v 0.03001530 -0.10625845 0.85540998
v 0.52814865 -0.11142296 0.67146760
v 0.52120852 -0.10625845 0.68098015
v 0.51602936 -0.11628067 0.67704159
v 0.51799744 -0.23874600 0.53805846
v 0.50903749 -0.24950965 0.52911335
v 0.51307726 -0.25556901 0.51492798
v 0.52814865 -0.23580581 0.53231758
v 0.07005036 -0.36565995 0.51492798
v 0.09004198 -0.34336564 0.56849861
v 0.09004198 -0.33937722 0.57847840
v 0.09004198 -0.33441722 0.59002697
v 0.07005036 -0.32099462 0.62203580
v 0.09004198 -0.32544327 0.61001998
v 0.05000694 -0.32142925 0.62287021
v 0.03001530 -0.31664824 0.63348424
v 0.03001530 -0.30775100 0.65000600
v 0.01002368 -0.30810893 0.65000600
v -0.00095618 -0.30810893 0.65000600
v -0.00095618 -0.31682724 0.63381797
v -0.00095618 -0.13039358 0.83952236
v 0.01002368 -0.13494448 0.83635151
v 0.03001530 -0.12466660 0.84322727
v 0.05000694 -0.11001678 0.85213900
v 0.03680003 -0.10625845 0.85514295
v 0.52814865 -0.11602499 0.66772932
v 0.50919282 -0.10625845 0.68982512
v 0.50831240 -0.10845721 0.68879044
v 0.51002151 -0.13006121 0.67006576
v 0.52462679 -0.12433423 0.66369069
v 0.52814865 -0.12267239 0.66228884
v 0.50271887 -0.12244228 0.68201482
v 0.52131212 -0.22092588 0.56128907
v 0.51079839 -0.23488539 0.55064172
v 0.49743611 -0.23846476 0.55771774
v 0.50463521 -0.24278556 0.54440016
v 0.52814865 -0.22478648 0.54893947
v 0.48997810 -0.25700074 0.53498775
v 0.50012928 -0.26009434 0.52016824
v 0.51048768 -0.25707746 0.51492798
v 0.07766375 -0.36522532 0.51492798
v 0.09004198 -0.36443275 0.51492798
v 0.11003362 -0.34270090 0.56676298
v 0.11003362 -0.33866134 0.57674277
v 0.11003362 -0.33295992 0.59002697
v 0.07005036 -0.31585568 0.63201565
v 0.05000694 -0.31631589 0.63288343
v 0.09004198 -0.32038102 0.62080085
v 0.10822091 -0.32344905 0.61132169
v 0.10034855 -0.32002309 0.62006652
v 0.05000694 -0.30708626 0.65000600
v 0.05000694 -0.30074567 0.66125417
v 0.03001530 -0.30107802 0.66182154
v 0.01002368 -0.30128258 0.66215533
v -0.00095618 -0.30125701 0.66212195
v -0.00095618 -0.13491893 0.83631814
v -0.00095618 -0.14849493 0.82633835
v 0.01002368 -0.14852050 0.82633835
v 0.03001530 -0.13466325 0.83615124
v 0.05000694 -0.12405299 0.84279335
v 0.05000694 -0.10625845 0.85457551
v 0.07005036 -0.12315816 0.84215915
v 0.07005036 -0.11001678 0.85090405
v 0.05622195 -0.10625845 0.85420841
v 0.50618893 -0.10625845 0.69202805
v 0.51732421 -0.13768014 0.65794981
v 0.49495012 -0.13578819 0.67640746
v 0.50401366 -0.14338155 0.66305649
v 0.52814865 -0.12793916 0.65771616
v 0.49655566 -0.10625845 0.69890374
v 0.48997810 -0.11541139 0.69643384
v 0.47987872 -0.11993673 0.69990510
v 0.48894227 -0.12947318 0.68581986
v 0.52364278 -0.20267114 0.58338487
v 0.51395774 -0.21599148 0.57460666
v 0.50064719 -0.22044012 0.58061457
v 0.50836420 -0.22391720 0.56876564
v 0.52814865 -0.22409618 0.54994082
v 0.52814865 -0.21852259 0.55795133
v 0.52814865 -0.21095480 0.56819820
v 0.52814865 -0.20819359 0.57186973
v 0.49044424 -0.23406726 0.57016748
v 0.48412561 -0.24237649 0.56359214
v 0.49044424 -0.24702966 0.55064172
v 0.47977513 -0.25986424 0.53982747
v 0.48997810 -0.26280442 0.52500796
v 0.49484652 -0.26566792 0.51492798
v 0.50359935 -0.26104030 0.51492798
v 0.09889838 -0.36379358 0.51492798
v 0.11003362 -0.34927160 0.55000758
v 0.13002524 -0.34185719 0.56462681
v 0.13002524 -0.33776650 0.57464004
v 0.13002524 -0.33111912 0.59002697
v 0.13002524 -0.32334679 0.60714954
v 0.07165590 -0.30491307 0.65197527
v 0.09004198 -0.31521651 0.63081402
v 0.09004198 -0.30521986 0.64923829
v 0.11371082 -0.31943506 0.61886495
v 0.10822091 -0.31516540 0.62804371
v 0.06611419 -0.30036217 0.66061997
v 0.05000694 -0.29450735 0.67126733
v 0.03001530 -0.29489085 0.67183477
v 0.01002368 -0.29509538 0.67213517
v -0.00095618 -0.29847020 0.66666126
v -0.00095618 -0.15849158 0.81879508
v 0.01002368 -0.15851715 0.81882846
v 0.03001530 -0.14823925 0.82613808
v 0.05000694 -0.14767680 0.82570416
v 0.05000694 -0.13404965 0.83571738
v 0.07005036 -0.13315481 0.83508319
v 0.09004198 -0.12193094 0.84132475
v 0.07005036 -0.10625845 0.85334057
v 0.09004198 -0.11001678 0.84920180
v 0.51090199 -0.15079594 0.65074027
v 0.52555907 -0.14489000 0.64459884
v 0.52814865 -0.14376506 0.64353079
v 0.52814865 -0.13941869 0.64746934
v 0.52814865 -0.13318038 0.65311009
v 0.48158783 -0.14131063 0.68114704
v 0.48868331 -0.14900626 0.66909784
v 0.49577880 -0.15670189 0.65688169
v 0.48935661 -0.10625845 0.70381021
v 0.47195458 -0.11178090 0.71132010
v 0.45636523 -0.11697097 0.71769518
v 0.46651644 -0.12553588 0.70437765
v 0.45854050 -0.13888177 0.69903725
v 0.47190279 -0.13133955 0.69606668
v 0.51623654 -0.19730209 0.59673578
v 0.50841600 -0.20901172 0.58865851
v 0.52814865 -0.20100929 0.58131546
v 0.50287426 -0.20200640 0.60244334
v 0.48997810 -0.21624714 0.59510028
v 0.47941259 -0.21967311 0.59957290
v 0.48997810 -0.22373824 0.58512050
v 0.47630507 -0.23785116 0.57694304
v 0.46299458 -0.24171175 0.58251709
v 0.46977931 -0.24610926 0.57016748
v 0.45890304 -0.25942960 0.55908620
v 0.47185099 -0.25702631 0.55147618
v 0.46641284 -0.26336691 0.54576862
v 0.47019362 -0.27016768 0.53021479
v 0.48904586 -0.26868480 0.51492798
v 0.47501028 -0.27597135 0.51492798
v 0.11495383 -0.36254078 0.51492798
v 0.13002524 -0.34758419 0.55000758
v 0.15001687 -0.34086010 0.56212354
v 0.15001687 -0.33669269 0.57213670
v 0.15001687 -0.32894593 0.59002697
v 0.13002524 -0.31859136 0.61716270
v 0.15001687 -0.32224742 0.60474634
v 0.07942466 -0.29995310 0.65995240
v 0.11003362 -0.30437616 0.64766955
v 0.09004198 -0.29951847 0.65921813
v 0.13002524 -0.31191838 0.63001299
v 0.07165590 -0.29514652 0.66836351
v 0.05000694 -0.28451070 0.68665427
v 0.07005036 -0.28397381 0.68585324
v 0.03001530 -0.28486863 0.68722171
v 0.01002368 -0.28509873 0.68752211
v -0.00095618 -0.29054448 0.67911100
v -0.00095618 -0.29506981 0.67213517
v -0.00095618 -0.16480660 0.81372172
v -0.00095618 -0.17002223 0.80951619
v 0.01002368 -0.17002223 0.80954957
v 0.03001530 -0.15823591 0.81862819
v 0.05000694 -0.15767343 0.81819427
v 0.07005036 -0.14683309 0.82507002
v 0.09004198 -0.14565700 0.82420218
v 0.09004198 -0.13192759 0.83418202
v 0.10449189 -0.12080600 0.84055710
v 0.09004198 -0.10625845 0.85160494
v 0.11070690 -0.11175533 0.84573054
v 0.09496221 -0.10625845 0.85107094
v 0.51779032 -0.15821034 0.63825715
v 0.50447983 -0.16352825 0.64356416
v 0.52814865 -0.14762565 0.63982594
v 0.46998650 -0.14588711 0.68515229
v 0.45978349 -0.15987219 0.67987871
v 0.46998650 -0.15588376 0.67624056
v 0.48241651 -0.16186640 0.66178817
v 0.48909765 -0.16935751 0.64937180
v 0.47407803 -0.10625845 0.71402365
v 0.46662003 -0.10625845 0.71899688
v 0.46252847 -0.10625845 0.72170043
v 0.44605869 -0.10625845 0.73208082
v 0.44305474 -0.12244228 0.72186732
v 0.45077175 -0.13064924 0.71048570
v 0.44523001 -0.14391845 0.70327616
v 0.45248085 -0.15189531 0.69162750
v 0.52814865 -0.19553798 0.58799094
v 0.52814865 -0.19213758 0.59212971
v 0.52814865 -0.18745884 0.59773713
v 0.52514470 -0.18398175 0.60457945
v 0.51017690 -0.19016893 0.61018687
v 0.49474293 -0.19638169 0.61579424
v 0.48143247 -0.20095816 0.62113464
v 0.48883867 -0.20558576 0.60948592
v 0.47164381 -0.21550570 0.61092114
v 0.45755646 -0.21854816 0.61819744
v 0.46610209 -0.22368711 0.60484648
v 0.47122949 -0.23079470 0.59102827
v 0.45460433 -0.23700745 0.59583461
v 0.44129384 -0.24068908 0.60100812
v 0.44875187 -0.24457525 0.58949292
v 0.45134145 -0.25582466 0.57070148
v 0.44554076 -0.26277885 0.56449330
v 0.45134145 -0.26761100 0.55147618
v 0.44999486 -0.27742869 0.53525478
v 0.47231710 -0.27735198 0.51492798
v 0.47371548 -0.27663609 0.51492798
v 0.46056038 -0.28029215 0.52056879
v 0.13085391 -0.36103237 0.51492798
v 0.15001687 -0.34558997 0.55000758
v 0.16177359 -0.34019536 0.56055480
v 0.16907623 -0.33602795 0.56833172
v 0.17000848 -0.32649150 0.59002697
v 0.15001687 -0.31741527 0.61472619
v 0.17000848 -0.32096907 0.60207617
v 0.09004198 -0.29274324 0.67003238
v 0.11003362 -0.29859805 0.65768278
v 0.13002524 -0.30330235 0.64576709
v 0.15001687 -0.30946398 0.63001299
v 0.05000694 -0.27765879 0.69666749
v 0.03001530 -0.27806786 0.69723487
v 0.07005036 -0.27709630 0.69586641
v 0.09004198 -0.28320679 0.68475175
v 0.01002368 -0.27827239 0.69753528
v -0.00095618 -0.27827239 0.69753528
v -0.00095618 -0.28507316 0.68752211
v -0.00095618 -0.18083702 0.80067116
v 0.01002368 -0.18086259 0.80070454
v 0.03001530 -0.18060693 0.80050433
v 0.03001530 -0.17002223 0.80911565
v 0.05057664 -0.17191419 0.80667913
v 0.05756854 -0.17986548 0.79983675
v 0.07005036 -0.16933194 0.80754691
v 0.07005036 -0.15682973 0.81752670
v 0.09004198 -0.15565366 0.81665891
v 0.11003362 -0.14414856 0.82306737
v 0.11070690 -0.12850162 0.83428216
v 0.11785416 -0.11960436 0.83968925
v 0.13002524 -0.10825267 0.84539676
v 0.11049974 -0.10625845 0.84930193
v 0.51095378 -0.17081481 0.63081402
v 0.52576625 -0.16472989 0.62490624
v 0.52814865 -0.16375835 0.62390494
v 0.52814865 -0.15383840 0.63381797
v 0.49572700 -0.17687416 0.63668847
v 0.46004248 -0.18007001 0.66008592
v 0.46801841 -0.16912740 0.66502577
v 0.43590748 -0.15723880 0.69753528
v 0.44642121 -0.16449979 0.68425113
v 0.45185935 -0.17068698 0.67467183
v 0.47340474 -0.17521231 0.65517950
v 0.48236471 -0.18173186 0.64182854
v 0.43585569 -0.10625845 0.73825562
v 0.42995143 -0.11426088 0.73571891
v 0.41835007 -0.11876065 0.73905665
v 0.42850125 -0.12947318 0.72487128
v 0.43414658 -0.13578819 0.71659374
v 0.42083609 -0.14059477 0.72046548
v 0.42834589 -0.14892957 0.70905048
v 0.52814865 -0.18283124 0.60324436
v 0.51742774 -0.17807581 0.61789703
v 0.50411725 -0.18303578 0.62337089
v 0.48857972 -0.18906955 0.62891155
v 0.46998650 -0.19599818 0.63552022
v 0.45931739 -0.19960311 0.63955891
v 0.46998650 -0.20463979 0.62550706
v 0.45175576 -0.21110821 0.63131469
v 0.44419417 -0.22243433 0.62307048
v 0.44942516 -0.22972089 0.60958606
v 0.42995143 -0.23621488 0.61492646
v 0.41835007 -0.23918064 0.61893171
v 0.42995143 -0.24350144 0.60494661
v 0.43021041 -0.25395828 0.58962643
v 0.43699512 -0.25856033 0.57781088
v 0.43021041 -0.26612812 0.57070148
v 0.43181592 -0.27704519 0.55100888
v 0.43968830 -0.27985752 0.53979409
v 0.46423757 -0.28134042 0.51492798
v 0.45486328 -0.28553337 0.51492798
v 0.44999486 -0.28264433 0.52527499
v 0.44999486 -0.28768098 0.51492798
v 0.14442335 -0.35962617 0.51492798
v 0.15001687 -0.35326004 0.53001451
v 0.16907623 -0.34300771 0.55110902
v 0.17513588 -0.33937722 0.55848539
v 0.19000012 -0.33252528 0.57000059
v 0.18886070 -0.32342348 0.59099489
v 0.18145448 -0.32020205 0.60044068
v 0.17000848 -0.31606022 0.61208940
v 0.11003362 -0.29085129 0.67003238
v 0.13002524 -0.29744753 0.65578026
v 0.15001687 -0.30202401 0.64353079
v 0.17161404 -0.30539882 0.63191551
v 0.16602053 -0.30089906 0.64159489
v 0.07005036 -0.26709965 0.70931745
v 0.05057664 -0.26625594 0.71188754
v 0.03001530 -0.26853141 0.70998502
v 0.01002368 -0.26896605 0.70998502
v 0.09004198 -0.27630374 0.69473159
v 0.09004198 -0.26628152 0.70824939
v 0.11003362 -0.28223526 0.68331653
v -0.00095618 -0.26894048 0.70998502
v -0.00095618 -0.19083367 0.79195970
v 0.01002368 -0.19085924 0.79195970
v 0.03001530 -0.19060357 0.79172605
v 0.04425804 -0.18027455 0.80020392
v 0.05057664 -0.18817472 0.79292762
v 0.05000694 -0.20141836 0.78127897
v 0.07005036 -0.20072806 0.78061140
v 0.07005036 -0.19001552 0.79005718
v 0.07005036 -0.17932858 0.79940283
v 0.09004198 -0.16823256 0.80664575
v 0.11003362 -0.16685194 0.80551088
v 0.11003362 -0.15414521 0.81549072
v 0.13002524 -0.14230774 0.82166553
v 0.13002524 -0.13001007 0.83051050
v 0.13002524 -0.11827488 0.83878809
v 0.13002524 -0.10625845 0.84666514
v 0.14628786 -0.10625845 0.84409505
v 0.52814865 -0.16736329 0.62006652
v 0.46801841 -0.18482545 0.64910483
v 0.43647718 -0.17782013 0.67787606
v 0.44999486 -0.18334258 0.66345704
v 0.45160040 -0.19441304 0.65050668
v 0.42953712 -0.16974100 0.68972498
v 0.42254519 -0.16168743 0.70150721
v 0.42834589 -0.10625845 0.74249452
v 0.41001159 -0.11004235 0.75000441
v 0.40498781 -0.12361836 0.74276155
v 0.41099566 -0.13016348 0.73425031
v 0.39535451 -0.13693869 0.73755467
v 0.40995979 -0.14425083 0.72350281
v 0.40995979 -0.15424748 0.71505839
v 0.52814865 -0.17876610 0.60771692
v 0.52814865 -0.17347378 0.61352456
v 0.43601108 -0.19771117 0.65751588
v 0.44600689 -0.20366824 0.64416498
v 0.43450910 -0.21701415 0.63638806
v 0.42870843 -0.22537452 0.62984610
v 0.42119861 -0.22067022 0.64079386
v 0.41099566 -0.23432292 0.62994623
v 0.40498781 -0.24237649 0.62323737
v 0.40954548 -0.24984202 0.60975295
v 0.41410315 -0.25730756 0.59600151
v 0.42368463 -0.26170504 0.58268392
v 0.41058129 -0.27520436 0.56983370
v 0.41767678 -0.27906495 0.55835187
v 0.42637780 -0.28264433 0.54500097
v 0.43181592 -0.28709295 0.53188366
v 0.43155700 -0.29542777 0.51492798
v 0.15001687 -0.35903814 0.51492798
v 0.17000848 -0.35098457 0.53001451
v 0.19000012 -0.34234297 0.54596889
v 0.19000012 -0.33838010 0.55598211
v 0.21004353 -0.33692279 0.55241072
v 0.21004353 -0.32955953 0.57000059
v 0.21004353 -0.32263091 0.58572125
v 0.19476497 -0.31920496 0.59830451
v 0.18886070 -0.31516540 0.60828435
v 0.19000012 -0.30452955 0.62824398
v 0.13002524 -0.28847358 0.67003238
v 0.15001687 -0.29609251 0.65354401
v 0.17938280 -0.29987639 0.63982594
v 0.17161404 -0.29555559 0.64897132
v 0.07005036 -0.25945517 0.71929729
v 0.05762033 -0.25986424 0.71983135
v 0.04425804 -0.26019660 0.72023183
v 0.03001530 -0.26045227 0.72056562
v 0.01002368 -0.26068237 0.72083265
v 0.11003362 -0.27525550 0.69326299
v 0.11003362 -0.26525885 0.70688093
v 0.09004198 -0.25858590 0.71826261
v 0.13002524 -0.28100803 0.68148082
v -0.00095618 -0.26065680 0.72079927
v -0.00095618 -0.20215979 0.78194654
v 0.01002368 -0.20218536 0.78194654
v 0.03001530 -0.20192969 0.78174627
v 0.05000694 -0.21144058 0.77186656
v 0.07005036 -0.21072470 0.77119899
v 0.08165172 -0.20019114 0.78014416
v 0.09004198 -0.17822920 0.79850167
v 0.11003362 -0.17684859 0.79733348
v 0.13002524 -0.16511339 0.80410904
v 0.13002524 -0.15230438 0.81408888
v 0.14349109 -0.14085042 0.82059741
v 0.15012044 -0.13154408 0.82607132
v 0.15001687 -0.11582046 0.83715260
v 0.15001687 -0.10625845 0.84349430
v 0.42311493 -0.18188527 0.68191469
v 0.42958888 -0.18981099 0.66976535
v 0.40995979 -0.17557025 0.69573289
v 0.39737439 -0.15838930 0.71859634
v 0.40995979 -0.16557360 0.70507854
v 0.39835846 -0.17909847 0.69910401
v 0.41135818 -0.10625845 0.75197369
v 0.40638617 -0.10625845 0.75467724
v 0.39758158 -0.10625845 0.75945020
v 0.38996819 -0.11553922 0.75674665
v 0.37914371 -0.11942539 0.75955033
v 0.38919130 -0.13016348 0.74603254
v 0.38204405 -0.14133620 0.74105930
v 0.38970923 -0.14987554 0.72984451
v 0.42270058 -0.20152062 0.66165465
v 0.42860484 -0.20926739 0.64913815
v 0.40995979 -0.21499437 0.65424490
v 0.39690828 -0.21844590 0.65821683
v 0.40995979 -0.22348258 0.64423174
v 0.39426690 -0.23731425 0.63655496
v 0.38095641 -0.24043341 0.64059359
v 0.38856980 -0.24488205 0.62994623
v 0.38996819 -0.25577354 0.61395848
v 0.40079266 -0.26034999 0.60054082
v 0.40845785 -0.26395494 0.58962643
v 0.39452586 -0.27786332 0.57640898
v 0.40436631 -0.28172392 0.56305808
v 0.41058129 -0.28573790 0.55100888
v 0.41078848 -0.29624590 0.53018141
v 0.41798753 -0.29926279 0.51839924
v 0.42435792 -0.29834238 0.51492798
v 0.17000848 -0.35671157 0.51492798
v 0.17208016 -0.35645589 0.51492798
v 0.19000012 -0.34845346 0.53001451
v 0.21004353 -0.34093678 0.54243088
v 0.22097160 -0.34014422 0.54039490
v 0.22858499 -0.33569559 0.54823858
v 0.23003516 -0.32628697 0.57000059
v 0.23003516 -0.32094350 0.58208317
v 0.21004353 -0.31795216 0.59573448
v 0.21004353 -0.31081903 0.61001998
v 0.19000012 -0.29898155 0.63825715
v 0.21004353 -0.30284214 0.62510651
v 0.14887744 -0.28499648 0.67130071
v 0.14147122 -0.28021547 0.68034595
v 0.17000848 -0.28451070 0.66689491
v 0.19000012 -0.29177171 0.65000600
v 0.07005036 -0.25030223 0.72997802
v 0.08988661 -0.24705523 0.73174703
v 0.08310188 -0.24030557 0.74032497
v 0.05057664 -0.25308901 0.72814226
v 0.07005036 -0.24084248 0.74092579
v 0.03001530 -0.25188738 0.73054546
v -0.00095618 -0.25679621 0.72533858
v 0.01002368 -0.25211748 0.73081249
v 0.13002524 -0.27395159 0.69146061
v 0.13002524 -0.26395494 0.70514530
v 0.11003362 -0.25748652 0.71686077
v 0.11003362 -0.24746430 0.72860956
v -0.00095618 -0.21215644 0.77253413
v 0.01002368 -0.21218202 0.77253413
v 0.03001530 -0.21192634 0.77230048
v 0.05000694 -0.22192299 0.76185334
v 0.07005036 -0.22125825 0.76121920
v 0.08517356 -0.22056794 0.76055163
v 0.09009378 -0.21000883 0.76999742
v 0.09496221 -0.19942415 0.77944320
v 0.08900614 -0.19165182 0.78688633
v 0.11003362 -0.18837926 0.78732026
v 0.13002524 -0.18671741 0.78588504
v 0.13002524 -0.17511004 0.79586482
v 0.15001687 -0.16299134 0.80240679
v 0.15012044 -0.14852050 0.81355482
v 0.15685338 -0.13921416 0.81939584
v 0.17000848 -0.12742782 0.82527030
v 0.17000848 -0.11298254 0.83525008
v 0.17000848 -0.10625845 0.83972263
v 0.16488111 -0.10625845 0.84069061
v 0.40995979 -0.18566917 0.68571973
v 0.40995979 -0.19566581 0.67547286
v 0.38406390 -0.16245444 0.72213435
v 0.39121118 -0.17076367 0.71065259
v 0.36997655 -0.17651622 0.71672726
v 0.38504797 -0.18283124 0.70274216
v 0.39157373 -0.19091037 0.69089317
v 0.39809948 -0.19901508 0.67894411
v 0.38939846 -0.10625845 0.76368910
v 0.37194464 -0.10625845 0.77246737
v 0.37049448 -0.11040029 0.77026445
v 0.36578143 -0.12379733 0.76285470
v 0.37147850 -0.13029131 0.75504440
v 0.38701606 -0.10625845 0.76489067
v 0.35516411 -0.13714322 0.75774795
v 0.36997655 -0.14504340 0.74413002
v 0.36997655 -0.15506561 0.73578566
v 0.40995979 -0.20497215 0.66545969
v 0.39084864 -0.21049459 0.67049968
v 0.38359779 -0.22176959 0.66205519
v 0.38893235 -0.22954193 0.64940518
v 0.36997655 -0.23493654 0.65371084
v 0.35557842 -0.23813239 0.65768278
v 0.36997655 -0.24278556 0.64369768
v 0.37002835 -0.25342137 0.62921190
v 0.37670949 -0.25863701 0.61806393
v 0.38996819 -0.26257432 0.60394531
v 0.38872516 -0.27280107 0.58849162
v 0.38121536 -0.28044558 0.58081484
v 0.38872516 -0.28382039 0.56983370
v 0.38945025 -0.29463518 0.54907298
v 0.39582065 -0.29852134 0.53695703
v 0.40462524 -0.30166608 0.52360612
v 0.40887219 -0.30399266 0.51492798
v 0.41456926 -0.30197287 0.51492798
v 0.18979296 -0.35418043 0.51492798
v 0.21004353 -0.34569222 0.53001451
v 0.21444583 -0.35070333 0.51492798
v 0.22967263 -0.34837675 0.51492798
v 0.22858499 -0.34267533 0.53054857
v 0.23428209 -0.33904484 0.53755784
v 0.21004353 -0.35136807 0.51492798
v 0.25002679 -0.33117026 0.55000758
v 0.24816228 -0.32283545 0.57033432
v 0.24023814 -0.32002309 0.58011389
v 0.23003516 -0.31616250 0.59206295
v 0.23184788 -0.30573121 0.61195588
v 0.22640973 -0.30130816 0.62233621
v 0.21004353 -0.29714075 0.63511974
v 0.15478170 -0.27916723 0.67881060
v 0.14887744 -0.27341467 0.68818963
v 0.17000848 -0.27786332 0.67690808
v 0.19000012 -0.28277215 0.66422474
v 0.21164909 -0.28645378 0.65190852
v 0.20605557 -0.28123814 0.66188830
v 0.09646416 -0.23961526 0.73955733
v 0.09081885 -0.23010439 0.75007117
v 0.07005036 -0.23125491 0.75090563
v 0.05000694 -0.24145609 0.74159336
v 0.05000694 -0.23191965 0.75160652
v 0.03001530 -0.24189073 0.74206060
v -0.00095618 -0.25209191 0.73081249
v 0.01002368 -0.24212082 0.74229425
v -0.00095618 -0.24759214 0.73598593
v 0.15001687 -0.26239535 0.70310932
v 0.13002524 -0.25608033 0.71512514
v 0.13002524 -0.24605812 0.72697407
v 0.11003362 -0.23874600 0.73862278
v -0.00095618 -0.22256216 0.76252091
v 0.01002368 -0.22258773 0.76252091
v 0.03001530 -0.22235763 0.76232064
v 0.09848404 -0.21985207 0.75981736
v 0.11003362 -0.20906286 0.76849544
v 0.11003362 -0.19837590 0.77850866
v 0.13002524 -0.19671406 0.77700669
v 0.15001687 -0.18472320 0.78411603
v 0.15001687 -0.17298800 0.79409587
v 0.16488111 -0.16125280 0.80097157
v 0.17094074 -0.15171635 0.80707961
v 0.17000848 -0.13745004 0.81812751
v 0.19000012 -0.12451320 0.82316750
v 0.18984474 -0.10858503 0.83404851
v 0.17731112 -0.10625845 0.83825403
v 0.35770190 -0.15874724 0.73888975
v 0.36997655 -0.16651958 0.72580588
v 0.35915208 -0.17955868 0.71956432
v 0.36997655 -0.18687081 0.70674741
v 0.36997655 -0.19686745 0.69673425
v 0.38478899 -0.20251773 0.68271577
v 0.36661008 -0.10625845 0.77513754
v 0.34998494 -0.11523242 0.77657276
v 0.34905267 -0.13029131 0.76575851
v 0.34180182 -0.14105496 0.76081866
v 0.34977776 -0.14990111 0.74987090
v 0.36997655 -0.21624714 0.67580664
v 0.35806444 -0.21913621 0.67904425
v 0.36997655 -0.22493988 0.66582686
v 0.35019210 -0.23012996 0.67009914
v 0.34226796 -0.24091917 0.66118741
v 0.34936342 -0.24610926 0.65060675
v 0.34998494 -0.25694960 0.63575387
v 0.36339900 -0.26137269 0.62200242
v 0.37002835 -0.26605141 0.61085439
v 0.36997655 -0.27653384 0.59429926
v 0.35702860 -0.27896270 0.59827113
v 0.36997655 -0.28246534 0.58431941
v 0.36997655 -0.29044223 0.57000059
v 0.36997655 -0.29795888 0.55601549
v 0.38245839 -0.30084795 0.54176337
v 0.38945025 -0.30383927 0.53018141
v 0.39525095 -0.30862027 0.51492798
v 0.23702705 -0.34714955 0.51492798
v 0.25002679 -0.34152484 0.52400661
v 0.25002679 -0.33763868 0.53401983
v 0.26929334 -0.33602795 0.52867949
v 0.26996663 -0.32723296 0.55000758
v 0.26996663 -0.32150596 0.56342524
v 0.25354862 -0.31869361 0.57717669
v 0.24816228 -0.31452620 0.58805770
v 0.25002679 -0.30414605 0.60781705
v 0.23977202 -0.29992753 0.61993301
v 0.23184788 -0.29601580 0.62941217
v 0.23003516 -0.28507316 0.64796996
v 0.17140687 -0.26692069 0.69182777
v 0.16560619 -0.26104030 0.70134032
v 0.19000012 -0.27599692 0.67420453
v 0.19000012 -0.26600027 0.68818963
v 0.21941784 -0.27985752 0.65981895
v 0.21164909 -0.27505097 0.66913122
v 0.11003362 -0.22877492 0.74903649
v 0.03001530 -0.23235428 0.75204045
v 0.01002368 -0.23258437 0.75230747
v -0.00095618 -0.24209526 0.74229425
v 0.15001687 -0.25439292 0.71308911
v 0.15001687 -0.24439627 0.72503817
v 0.13002524 -0.23726311 0.73698729
v 0.13002524 -0.22729203 0.74750113
v -0.00095618 -0.22805904 0.75691354
v 0.11003362 -0.21905950 0.75904965
v 0.13002524 -0.20747770 0.76702684
v 0.15001687 -0.20561132 0.76522446
v 0.15001687 -0.19471984 0.77523768
v 0.17000848 -0.18244773 0.78211337
v 0.17094074 -0.16874389 0.79346168
v 0.17819160 -0.15953982 0.79960310
v 0.19000012 -0.14785576 0.80601156
v 0.19000012 -0.13450985 0.81599140
v 0.20579661 -0.12200765 0.82139850
v 0.18772128 -0.10625845 0.83605111
v 0.19134670 -0.10625845 0.83528346
v 0.34439141 -0.16237774 0.74202722
v 0.35174584 -0.17096820 0.73084587
v 0.35925567 -0.19965425 0.69963807
v 0.34578979 -0.18293351 0.72276855
v 0.35252273 -0.19129388 0.71125335
v 0.36997655 -0.20625050 0.68675441
v 0.35770190 -0.10625845 0.77937645
v 0.34998494 -0.10625845 0.78288108
v 0.33817640 -0.11893962 0.77920955
v 0.33087376 -0.12965214 0.77420294
v 0.32999331 -0.14417413 0.76335537
v 0.32999331 -0.15419635 0.75517792
v 0.35200480 -0.21098037 0.69099331
v 0.34475395 -0.22212753 0.68241537
v 0.32999331 -0.23519219 0.67420453
v 0.32999331 -0.24332246 0.66419137
v 0.33082196 -0.25421396 0.64947194
v 0.33807281 -0.25927621 0.63902485
v 0.34998494 -0.26390380 0.62577409
v 0.35019210 -0.27451405 0.60928565
v 0.34371811 -0.28126371 0.60214293
v 0.35019210 -0.28548223 0.59096152
v 0.35153869 -0.29660383 0.57016748
v 0.35930744 -0.29977411 0.55958688
v 0.36997655 -0.30289328 0.54600227
v 0.36997655 -0.31025654 0.53001451
v 0.38986459 -0.31040996 0.51492798
v 0.25002679 -0.34492522 0.51492798
v 0.25541314 -0.34397924 0.51492798
v 0.26224965 -0.34042546 0.52113616
v 0.27550834 -0.33909598 0.51763153
v 0.28995824 -0.33122137 0.53001451
v 0.28136081 -0.32030433 0.56072170
v 0.28881884 -0.32306555 0.55037475
v 0.26996663 -0.31690395 0.57340503
v 0.26996663 -0.30879924 0.59002697
v 0.25002679 -0.29875144 0.61779690
v 0.26996663 -0.30187061 0.60351139
v 0.25002679 -0.29154158 0.63001299
v 0.23003516 -0.27863032 0.65798318
v 0.25002679 -0.28277215 0.64433187
v 0.17896846 -0.25978753 0.69970483
v 0.17140687 -0.25385600 0.70878345
v 0.21004353 -0.26390380 0.68528581
v 0.19000012 -0.25861147 0.69820285
v 0.23003516 -0.27016768 0.67003238
v -0.00095618 -0.23258437 0.75227410
v 0.17000848 -0.24247876 0.72286868
v 0.15001687 -0.23549901 0.73505139
v 0.15001687 -0.22550236 0.74566537
v 0.13002524 -0.21747436 0.75748092
v 0.15001687 -0.21560797 0.75564516
v 0.17000848 -0.20346370 0.76322186
v 0.17000848 -0.19244438 0.77320164
v 0.18311182 -0.18083702 0.78071153
v 0.18984474 -0.17142841 0.78701985
v 0.19000012 -0.15785241 0.79826802
v 0.21004353 -0.14476216 0.80364180
v 0.21149370 -0.12919194 0.81478977
v 0.21910709 -0.11968106 0.81976300
v 0.21149370 -0.11183202 0.82690573
v 0.21097580 -0.10625845 0.83071077
v 0.32999331 -0.16600823 0.74516469
v 0.32999331 -0.17603046 0.73638648
v 0.34594518 -0.20282453 0.70290905
v 0.32999331 -0.18669184 0.72637326
v 0.32999331 -0.19668849 0.71666050
v 0.33014867 -0.10625845 0.79142565
v 0.32911283 -0.10950544 0.78962326
v 0.32481411 -0.12274908 0.78201330
v 0.30994987 -0.13668303 0.77744055
v 0.30932838 -0.15071926 0.76649284
v 0.31554338 -0.15787798 0.75821525
v 0.32999331 -0.21640055 0.69599992
v 0.32999331 -0.22519556 0.68598676
v 0.31502548 -0.23813239 0.67774254
v 0.30901763 -0.24595585 0.67066658
v 0.30994987 -0.25697517 0.65598053
v 0.32476234 -0.26170504 0.64242935
v 0.33082196 -0.26702297 0.63141483
v 0.32999331 -0.27747980 0.61596113
v 0.31828836 -0.27947402 0.61916536
v 0.32999331 -0.28351361 0.60598129
v 0.32880208 -0.29384261 0.58849162
v 0.33470637 -0.29836795 0.57694304
v 0.34594518 -0.30184504 0.56362551
v 0.35153869 -0.30585903 0.55174315
v 0.35039926 -0.31631589 0.52961403
v 0.35733935 -0.31925607 0.51819897
v 0.36391690 -0.31861693 0.51492798
v 0.37147850 -0.31626475 0.51492798
v 0.26639301 -0.34190834 0.51492798
v 0.27312592 -0.34057885 0.51492798
v 0.28540057 -0.33807331 0.51492798
v 0.28995824 -0.33710176 0.51492798
v 0.29151201 -0.33676940 0.51492798
v 0.30896583 -0.33285767 0.51492798
v 0.30994987 -0.32672161 0.53001451
v 0.30994987 -0.32132700 0.54313183
v 0.29472309 -0.31877032 0.55725044
v 0.28881884 -0.31490970 0.56843185
v 0.28902599 -0.30391598 0.59056097
v 0.28177515 -0.30043888 0.60087460
v 0.26996663 -0.29632258 0.61352456
v 0.27027738 -0.28568679 0.63128132
v 0.26380339 -0.28103361 0.64162827
v 0.25002679 -0.27615035 0.65431166
v 0.18451019 -0.24097031 0.72113305
v 0.19072521 -0.24748987 0.71165389
v 0.21004353 -0.25633600 0.69526565
v 0.23003516 -0.26152608 0.68208158
v 0.21004353 -0.24633935 0.70764863
v 0.24842125 -0.26502874 0.67066658
v 0.24070427 -0.26017103 0.68027920
v 0.17000848 -0.23350479 0.73284847
v 0.17000848 -0.22350813 0.74356258
v 0.17000848 -0.21346036 0.75357580
v 0.18616752 -0.20154619 0.76141948
v 0.19947802 -0.19988436 0.75985074
v 0.19642231 -0.17902178 0.77914280
v 0.21004353 -0.16700535 0.78581828
v 0.21004353 -0.15478438 0.79583144
v 0.22568466 -0.14210321 0.80157238
v 0.23143354 -0.13179976 0.80758029
v 0.23003516 -0.11750787 0.81826103
v 0.23003516 -0.10751122 0.82500327
v 0.23003516 -0.10625845 0.82583767
v 0.31777042 -0.17899621 0.73905665
v 0.32999331 -0.20640390 0.70668066
v 0.31834015 -0.19932187 0.71929729
v 0.32600534 -0.10625845 0.79319465
v 0.31518084 -0.10625845 0.79756707
v 0.30994987 -0.11288027 0.79496366
v 0.30994987 -0.12668639 0.78495049
v 0.29897001 -0.13952096 0.77961010
v 0.30218112 -0.16104826 0.76085204
v 0.30994987 -0.17002223 0.74997103
v 0.31756327 -0.21905950 0.69890374
v 0.30963913 -0.22989985 0.68982512
v 0.30166319 -0.24061237 0.68077987
v 0.29736447 -0.25914836 0.65888435
v 0.30994987 -0.26421061 0.64596736
v 0.31098571 -0.27505097 0.62947893
v 0.30497786 -0.28149381 0.62243634
v 0.31098571 -0.28617254 0.61148858
v 0.30994987 -0.29660383 0.59379858
v 0.32139587 -0.30041331 0.58081484
v 0.32880208 -0.30360916 0.57016748
v 0.32818058 -0.31432167 0.54813844
v 0.33367050 -0.31828454 0.53602248
v 0.34402886 -0.32109690 0.52267152
v 0.34822401 -0.32303998 0.51492798
v 0.35423183 -0.32140371 0.51492798
v 0.32952717 -0.32792324 0.51492798
v 0.32818058 -0.32242638 0.52961403
v 0.32036003 -0.32007423 0.54022801
v 0.30994987 -0.31690395 0.55311167
v 0.30994987 -0.30887592 0.57000059
v 0.29508564 -0.29870033 0.59760362
v 0.30994987 -0.30197287 0.58381879
v 0.28902599 -0.29414940 0.60851800
v 0.28995824 -0.28364143 0.62590754
v 0.27711388 -0.27919281 0.63879120
v 0.27027738 -0.27420723 0.64897132
v 0.26996663 -0.26336691 0.66462523
v 0.19782068 -0.23948744 0.71939743
v 0.19072521 -0.23271221 0.72867632
v 0.23003516 -0.25375375 0.69202805
v 0.23003516 -0.24375710 0.70451117
v 0.21004353 -0.23795342 0.71762842
v 0.25401476 -0.25827909 0.67777592
v 0.24976783 -0.24994428 0.68989187
v 0.24546911 -0.24160948 0.70194107
v 0.19000012 -0.22125825 0.74125957
v 0.19170925 -0.20893502 0.75290823
v 0.20015131 -0.22005661 0.74002463
v 0.20812725 -0.21092923 0.74676681
v 0.21004353 -0.19835034 0.75844890
v 0.21004353 -0.18835369 0.76742738
v 0.21004353 -0.17700200 0.77740717
v 0.23003516 -0.16375835 0.78308135
v 0.23143354 -0.14926194 0.79429615
v 0.23904693 -0.13964880 0.79970324
v 0.25002679 -0.12735112 0.80534399
v 0.25002679 -0.11323821 0.81535721
v 0.24577987 -0.10625845 0.82133174
v 0.30440816 -0.18196197 0.74176025
v 0.31140006 -0.19062914 0.73057884
v 0.30502966 -0.20210867 0.72210097
v 0.31129646 -0.21057130 0.71055245
v 0.30622086 -0.10625845 0.80100495
v 0.29425699 -0.11712437 0.79793423
v 0.28995824 -0.13001007 0.78995705
v 0.26996663 -0.13297583 0.79469663
v 0.28560776 -0.14253785 0.78197992
v 0.29135662 -0.14951760 0.77426970
v 0.28995824 -0.16373278 0.76312172
v 0.28995824 -0.17375499 0.75454372
v 0.30425277 -0.22166732 0.70180756
v 0.28995824 -0.23427179 0.69319624
v 0.26996663 -0.23772332 0.69730163
v 0.28995824 -0.24258102 0.68321639
v 0.29042438 -0.25357479 0.66903108
v 0.26996663 -0.25585023 0.67460507
v 0.28400218 -0.26124483 0.66172141
v 0.29042438 -0.26661390 0.65134108
v 0.28995824 -0.27732641 0.63588738
v 0.33537966 -0.32641482 0.51492798
v 0.20812725 -0.22639720 0.73087925
v 0.23003516 -0.23524334 0.71452433
v 0.23003516 -0.22524668 0.72563899
v 0.25877962 -0.23961526 0.69953793
v 0.26996663 -0.24585359 0.68728846
v 0.25126979 -0.23355591 0.70915061
v 0.21346179 -0.21819022 0.73812211
v 0.23003516 -0.20576473 0.74559861
v 0.23003516 -0.19528231 0.75557840
v 0.23003516 -0.18526009 0.76465708
v 0.23003516 -0.17375499 0.77463686
v 0.24350102 -0.16135506 0.78107870
v 0.25013039 -0.15125614 0.78705323
v 0.25002679 -0.13737333 0.79796761
v 0.26996663 -0.12297919 0.80213976
v 0.25624180 -0.10625845 0.81816089
v 0.25002679 -0.10625845 0.82009679
v 0.26872364 -0.10838050 0.81265366
v 0.28995824 -0.18495329 0.74453056
v 0.28995824 -0.19494994 0.73508477
v 0.28995824 -0.20507443 0.72510493
v 0.28995824 -0.21507107 0.71475798
v 0.30016124 -0.10625845 0.80317450
v 0.28855988 -0.11027245 0.80464309
v 0.28094649 -0.12047363 0.80030406
v 0.26996663 -0.14596382 0.78468347
v 0.26996663 -0.15596046 0.77670628
v 0.26799855 -0.17038018 0.76535797
v 0.27333310 -0.17728323 0.75761443
v 0.28995824 -0.22427514 0.70474476
v 0.26862004 -0.22644833 0.71068597
v 0.25002679 -0.22220422 0.72233462
v 0.23003516 -0.21576138 0.73561883
v 0.26116201 -0.22041455 0.72039872
v 0.25002679 -0.20251773 0.74242777
v 0.25002679 -0.19183078 0.75240761
v 0.25002679 -0.18183413 0.76158637
v 0.25013039 -0.16882059 0.77266765
v 0.25686330 -0.15874724 0.77894253
v 0.26670375 -0.10625845 0.81475639
v 0.26986304 -0.10625845 0.81368834
v 0.26007441 -0.18001889 0.75998425
v 0.26732525 -0.18899286 0.74903649
v 0.26142099 -0.20052353 0.74049187
v 0.27467969 -0.19796683 0.73802197
v 0.26789495 -0.20926739 0.72921038
v 0.27442071 -0.21798569 0.71782869
v 0.28887063 -0.10625845 0.80721313
v 0.25002679 -0.21251439 0.73234785
f 1 2 7
f 1 7 13
f 1 13 24
f 1 24 37
f 1 37 57
f 1 57 90
f 1 90 138
f 1 138 137
f 1 137 192
f 1 192 193
f 1 193 260
f 1 260 259
f 1 259 331
f 1 331 332
f 1 332 334
f 1 334 403
f 1 403 472
f 1 472 554
f 1 554 553
f 1 553 630
f 1 630 696
f 1 696 760
f 1 760 759
f 1 759 822
f 1 822 821
f 1 821 877
f 1 877 823
f 1 823 766
f 1 766 765
f 1 765 764
f 1 764 763
f 1 763 762
f 1 762 761
f 1 761 698
f 1 698 697
f 1 697 631
f 1 631 558
f 1 558 557
f 1 557 561
f 1 561 555
f 1 555 474
f 1 474 473
f 1 473 404
f 1 404 335
f 1 335 262
f 1 262 194
f 1 194 139
f 1 139 92
f 1 92 91
f 1 91 59
f 1 59 39
f 1 39 25
f 1 25 14
f 1 14 8
f 1 8 3
f 1 3 4
f 1 4 5
f 1 5 11
f 1 11 20
f 1 20 19
f 1 19 30
f 1 30 47
f 1 47 70
f 1 70 69
f 1 69 105
f 1 105 154
f 1 154 211
f 1 211 210
f 1 210 279
f 1 279 278
f 1 278 355
f 1 355 427
f 1 427 495
f 1 495 581
f 1 581 583
f 1 583 652
f 1 652 716
f 1 716 657
f 1 657 588
f 1 588 501
f 1 501 428
f 1 428 356
f 1 356 280
f 1 280 213
f 1 213 212
f 1 212 155
f 1 155 107
f 1 107 106
f 1 106 71
f 1 71 48
f 1 48 31
f 1 31 21
f 1 21 12
f 1 12 6
f 1 6 2
f 2 6 7
f 3 8 9
f 3 9 4
f 4 9 10
f 4 10 11
f 4 11 5
f 6 12 22
f 6 22 33
f 6 33 51
f 6 51 75
f 6 75 111
f 6 111 114
f 6 114 162
f 6 162 221
f 6 221 223
f 6 223 293
f 6 293 371
f 6 371 372
f 6 372 441
f 6 441 519
f 6 519 518
f 6 518 602
f 6 602 668
f 6 668 669
f 6 669 731
f 6 731 796
f 6 796 855
f 6 855 894
f 6 894 893
f 6 893 917
f 6 917 918
f 6 918 925
f 6 925 900
f 6 900 860
f 6 860 801
f 6 801 800
f 6 800 737
f 6 737 677
f 6 677 676
f 6 676 609
f 6 609 529
f 6 529 533
f 6 533 528
f 6 528 450
f 6 450 449
f 6 449 448
f 6 448 380
f 6 380 306
f 6 306 235
f 6 235 234
f 6 234 233
f 6 233 232
f 6 232 172
f 6 172 120
f 6 120 115
f 6 115 77
f 6 77 53
f 6 53 35
f 6 35 23
f 6 23 13
f 6 13 7
f 8 14 15
f 8 15 9
f 9 15 16
f 9 16 27
f 9 27 17
f 9 17 10
f 10 17 18
f 10 18 19
f 10 19 20
f 10 20 11
f 12 21 22
f 13 23 34
f 13 34 52
f 13 52 76
f 13 76 81
f 13 81 119
f 13 119 168
f 13 168 167
f 13 167 166
f 13 166 226
f 13 226 297
f 13 297 296
f 13 296 373
f 13 373 388
f 13 388 387
f 13 387 313
f 13 313 242
f 13 242 241
f 13 241 240
f 13 240 180
f 13 180 131
f 13 131 130
f 13 130 129
f 13 129 128
f 13 128 87
f 13 87 58
f 13 58 38
f 13 38 24
f 14 25 15
f 15 25 26
f 15 26 16
f 16 26 27
f 17 27 28
f 17 28 18
f 18 28 29
f 18 29 47
f 18 47 30
f 18 30 19
f 21 31 32
f 21 32 22
f 22 32 33
f 23 35 34
f 24 36 37
f 24 38 36
f 25 39 40
f 25 40 26
f 26 40 41
f 26 41 42
f 26 42 27
f 27 42 43
f 27 43 44
f 27 44 28
f 28 44 45
f 28 45 29
f 29 45 46
f 29 46 47
f 31 48 49
f 31 49 32
f 32 49 50
f 32 50 33
f 33 50 51
f 34 35 52
f 35 53 54
f 35 54 52
f 36 55 56
f 36 56 57
f 36 57 37
f 36 38 55
f 38 58 55
f 39 59 40
f 40 59 41
f 41 59 60
f 41 60 61
f 41 61 62
f 41 62 42
f 42 62 43
f 43 63 44
f 43 62 64
f 43 64 63
f 44 63 65
f 44 65 45
f 45 65 66
f 45 66 46
f 46 66 67
f 46 67 68
f 46 68 69
f 46 69 70
f 46 70 47
f 48 71 49
f 49 72 109
f 49 109 73
f 49 73 50
f 49 71 72
f 50 73 74
f 50 74 75
f 50 75 51
f 52 54 76
f 53 77 78
f 53 78 54
f 54 79 80
f 54 80 81
f 54 81 76
f 54 78 82
f 54 82 79
f 55 83 84
f 55 84 85
f 55 85 86
f 55 86 56
f 55 58 87
f 55 87 83
f 56 86 88
f 56 88 89
f 56 89 57
f 57 89 90
f 59 91 60
f 60 91 92
f 60 92 93
f 60 93 61
f 61 93 94
f 61 94 95
f 61 95 62
f 62 95 64
f 63 96 97
f 63 97 65
f 63 64 98
f 63 98 96
f 64 95 99
f 64 99 100
f 64 100 98
f 65 97 66
f 66 97 67
f 67 97 101
f 67 101 102
f 67 102 103
f 67 103 104
f 67 104 68
f 68 104 69
f 69 104 105
f 71 106 72
f 72 106 107
f 72 107 108
f 72 108 157
f 72 157 109
f 73 109 159
f 73 159 110
f 73 110 74
f 74 111 75
f 74 110 112
f 74 112 113
f 74 113 114
f 74 114 111
f 77 115 78
f 78 115 82
f 79 116 80
f 79 82 117
f 79 117 118
f 79 118 116
f 80 116 119
f 80 119 81
f 82 115 120
f 82 120 121
f 82 121 122
f 82 122 123
f 82 123 117
f 83 124 125
f 83 125 126
f 83 126 127
f 83 127 85
f 83 85 84
f 83 87 128
f 83 128 129
f 83 129 130
f 83 130 131
f 83 131 124
f 85 127 126
f 85 126 132
f 85 132 133
f 85 133 134
f 85 134 86
f 86 134 135
f 86 135 88
f 88 135 89
f 89 135 136
f 89 136 137
f 89 137 138
f 89 138 90
f 92 139 140
f 92 140 93
f 93 140 141
f 93 141 94
f 94 141 142
f 94 142 95
f 95 142 143
f 95 143 144
f 95 144 99
f 96 145 101
f 96 101 97
f 96 98 146
f 96 146 147
f 96 147 145
f 98 100 146
f 99 144 148
f 99 148 100
f 100 148 149
f 100 149 146
f 101 145 150
f 101 150 102
f 102 150 151
f 102 151 152
f 102 152 103
f 103 152 104
f 104 152 153
f 104 153 154
f 104 154 105
f 107 155 156
f 107 156 108
f 108 156 215
f 108 215 157
f 109 157 158
f 109 158 159
f 110 159 160
f 110 160 112
f 112 160 161
f 112 161 113
f 113 162 114
f 113 161 163
f 113 163 162
f 116 118 164
f 116 164 165
f 116 165 166
f 116 166 167
f 116 167 168
f 116 168 119
f 117 123 169
f 117 169 118
f 118 169 170
f 118 170 171
f 118 171 164
f 120 172 122
f 120 122 121
f 122 173 174
f 122 174 175
f 122 175 176
f 122 176 177
f 122 177 123
f 122 172 173
f 123 177 169
f 124 178 179
f 124 179 125
f 124 131 180
f 124 180 178
f 125 179 126
f 126 179 181
f 126 181 182
f 126 182 183
f 126 183 184
f 126 184 132
f 132 184 185
f 132 185 133
f 133 185 186
f 133 186 187
f 133 187 188
f 133 188 189
f 133 189 134
f 134 189 135
f 135 189 188
f 135 188 190
f 135 190 191
f 135 191 136
f 136 192 137
f 136 191 193
f 136 193 192
f 139 194 140
f 140 194 195
f 140 195 141
f 141 195 196
f 141 196 142
f 142 196 197
f 142 197 143
f 143 197 198
f 143 198 144
f 144 199 148
f 144 198 200
f 144 200 199
f 145 147 201
f 145 201 150
f 146 149 202
f 146 202 147
f 147 203 201
f 147 202 203
f 148 199 204
f 148 204 149
f 149 204 202
f 150 201 205
f 150 205 151
f 151 206 152
f 151 205 207
f 151 207 206
f 152 206 208
f 152 208 209
f 152 209 153
f 153 209 210
f 153 210 211
f 153 211 154
f 155 212 156
f 156 212 213
f 156 213 214
f 156 214 215
f 157 215 216
f 157 216 158
f 158 216 217
f 158 217 159
f 159 217 160
f 160 217 218
f 160 218 219
f 160 219 161
f 161 219 220
f 161 220 163
f 162 163 221
f 163 220 222
f 163 222 223
f 163 223 221
f 164 224 165
f 164 171 225
f 164 225 224
f 165 224 226
f 165 226 166
f 169 177 176
f 169 176 227
f 169 227 228
f 169 228 229
f 169 229 170
f 170 229 230
f 170 230 171
f 171 230 231
f 171 231 225
f 172 232 173
f 173 232 233
f 173 233 234
f 173 234 174
f 174 176 175
f 174 234 235
f 174 235 236
f 174 236 237
f 174 237 176
f 176 228 227
f 176 237 238
f 176 238 239
f 176 239 228
f 178 180 240
f 178 240 241
f 178 241 242
f 178 242 243
f 178 243 244
f 178 244 181
f 178 181 179
f 181 245 246
f 181 246 247
f 181 247 183
f 181 183 182
f 181 244 245
f 183 248 249
f 183 249 250
f 183 250 251
f 183 251 184
f 183 247 246
f 183 246 248
f 184 251 185
f 185 251 186
f 186 252 253
f 186 253 254
f 186 254 255
f 186 255 188
f 186 188 187
f 186 251 252
f 188 255 256
f 188 256 257
f 188 257 190
f 190 257 258
f 190 258 191
f 191 259 260
f 191 260 193
f 191 258 261
f 191 261 259
f 194 262 195
f 195 262 263
f 195 263 196
f 196 263 264
f 196 264 197
f 197 264 265
f 197 265 198
f 198 265 266
f 198 266 200
f 199 200 267
f 199 267 204
f 200 266 268
f 200 268 267
f 201 203 269
f 201 269 205
f 202 270 203
f 202 204 271
f 202 271 270
f 203 270 269
f 204 267 272
f 204 272 271
f 205 269 207
f 206 273 274
f 206 274 208
f 206 207 273
f 207 275 273
f 207 269 276
f 207 276 275
f 208 274 209
f 209 274 277
f 209 277 278
f 209 278 279
f 209 279 210
f 213 280 281
f 213 281 214
f 214 281 282
f 214 282 283
f 214 283 215
f 215 283 284
f 215 284 216
f 216 284 285
f 216 285 286
f 216 286 287
f 216 287 217
f 217 287 288
f 217 288 218
f 218 288 289
f 218 289 219
f 219 289 220
f 220 289 290
f 220 290 291
f 220 291 222
f 222 291 292
f 222 292 293
f 222 293 223
f 224 225 294
f 224 294 295
f 224 295 296
f 224 296 297
f 224 297 226
f 225 231 298
f 225 298 294
f 228 299 300
f 228 300 230
f 228 230 229
f 228 239 301
f 228 301 302
f 228 302 303
f 228 303 299
f 230 300 299
f 230 299 304
f 230 304 231
f 231 304 305
f 231 305 298
f 235 306 236
f 236 306 307
f 236 307 308
f 236 308 309
f 236 309 310
f 236 310 238
f 236 238 237
f 238 310 311
f 238 311 312
f 238 312 301
f 238 301 239
f 242 313 243
f 243 314 244
f 243 313 314
f 244 314 315
f 244 315 245
f 245 315 316
f 245 316 246
f 246 316 317
f 246 317 318
f 246 318 319
f 246 319 249
f 246 249 248
f 249 319 318
f 249 318 320
f 249 320 321
f 249 321 322
f 249 322 250
f 250 322 252
f 250 252 251
f 252 322 253
f 253 323 324
f 253 324 325
f 253 325 326
f 253 326 327
f 253 327 254
f 253 322 321
f 253 321 323
f 254 327 255
f 255 327 256
f 256 327 328
f 256 328 329
f 256 329 257
f 257 329 330
f 257 330 258
f 258 330 261
f 259 261 331
f 261 332 331
f 261 330 333
f 261 333 334
f 261 334 332
f 262 335 336
f 262 336 263
f 263 336 337
f 263 337 264
f 264 337 338
f 264 338 265
f 265 338 339
f 265 339 266
f 266 339 340
f 266 340 341
f 266 341 268
f 267 268 342
f 267 342 272
f 268 341 342
f 269 270 343
f 269 343 276
f 270 271 344
f 270 344 343
f 271 272 345
f 271 345 344
f 272 342 346
f 272 346 347
f 272 347 345
f 273 275 348
f 273 348 349
f 273 349 274
f 274 349 350
f 274 350 351
f 274 351 277
f 275 276 352
f 275 352 353
f 275 353 348
f 276 343 354
f 276 354 352
f 277 351 278
f 278 351 355
f 280 356 281
f 281 356 357
f 281 357 282
f 282 358 359
f 282 359 283
f 282 357 358
f 283 359 284
f 284 359 285
f 285 359 360
f 285 360 361
f 285 361 362
f 285 362 363
f 285 363 364
f 285 364 286
f 286 364 434
f 286 434 365
f 286 365 287
f 287 365 288
f 288 365 366
f 288 366 367
f 288 367 289
f 289 367 437
f 289 437 368
f 289 368 290
f 290 368 291
f 291 368 369
f 291 369 370
f 291 370 292
f 292 371 293
f 292 370 372
f 292 372 371
f 294 314 295
f 294 298 314
f 295 314 296
f 296 314 373
f 298 315 314
f 298 305 315
f 299 318 374
f 299 374 305
f 299 305 304
f 299 303 375
f 299 375 376
f 299 376 377
f 299 377 318
f 301 378 375
f 301 375 302
f 301 312 379
f 301 379 378
f 302 375 303
f 305 316 315
f 305 374 318
f 305 318 317
f 305 317 316
f 306 380 308
f 306 308 307
f 308 311 309
f 308 380 381
f 308 381 382
f 308 382 383
f 308 383 311
f 309 311 310
f 311 379 312
f 311 383 384
f 311 384 385
f 311 385 386
f 311 386 379
f 313 387 314
f 314 387 388
f 314 388 373
f 318 377 389
f 318 389 390
f 318 390 320
f 320 390 391
f 320 391 321
f 321 391 392
f 321 392 323
f 323 392 324
f 324 392 393
f 324 393 394
f 324 394 395
f 324 395 396
f 324 396 325
f 325 396 397
f 325 397 326
f 326 397 398
f 326 398 327
f 327 398 328
f 328 398 399
f 328 399 400
f 328 400 329
f 329 400 330
f 330 400 401
f 330 401 402
f 330 402 333
f 333 402 334
f 334 402 403
f 335 404 336
f 336 404 405
f 336 405 337
f 337 405 406
f 337 406 338
f 338 406 407
f 338 407 339
f 339 407 408
f 339 408 409
f 339 409 410
f 339 410 340
f 340 410 411
f 340 411 341
f 341 411 412
f 341 412 342
f 342 412 413
f 342 413 346
f 343 344 414
f 343 414 354
f 344 345 415
f 344 415 414
f 345 347 415
f 346 413 416
f 346 416 347
f 347 416 417
f 347 417 415
f 348 418 419
f 348 419 349
f 348 353 418
f 349 419 420
f 349 420 350
f 350 420 421
f 350 421 351
f 351 421 422
f 351 422 355
f 352 354 423
f 352 423 424
f 352 424 353
f 353 425 418
f 353 424 425
f 354 414 426
f 354 426 423
f 355 422 427
f 356 428 429
f 356 429 357
f 357 429 430
f 357 430 358
f 358 430 359
f 359 430 361
f 359 361 360
f 361 431 362
f 361 430 431
f 362 432 433
f 362 433 363
f 362 431 432
f 363 433 364
f 364 433 434
f 365 434 366
f 366 434 435
f 366 435 436
f 366 436 367
f 367 436 437
f 368 437 438
f 368 438 369
f 369 438 439
f 369 439 370
f 370 439 440
f 370 440 441
f 370 441 372
f 375 378 442
f 375 442 443
f 375 443 389
f 375 389 376
f 376 389 377
f 378 379 444
f 378 444 442
f 379 386 445
f 379 445 446
f 379 446 447
f 379 447 444
f 380 448 381
f 381 448 449
f 381 449 450
f 381 450 451
f 381 451 382
f 382 451 452
f 382 452 453
f 382 453 384
f 382 384 383
f 384 445 385
f 384 453 454
f 384 454 455
f 384 455 445
f 385 445 386
f 389 443 456
f 389 456 457
f 389 457 390
f 390 457 391
f 391 457 393
f 391 393 392
f 393 457 456
f 393 456 458
f 393 458 459
f 393 459 460
f 393 460 394
f 394 460 461
f 394 461 395
f 395 461 462
f 395 462 463
f 395 463 464
f 395 464 465
f 395 465 396
f 396 465 397
f 397 465 398
f 398 465 466
f 398 466 399
f 399 466 467
f 399 467 468
f 399 468 400
f 400 468 469
f 400 469 401
f 401 469 470
f 401 470 402
f 402 470 471
f 402 471 403
f 403 471 472
f 404 473 405
f 405 473 474
f 405 474 475
f 405 475 406
f 406 475 556
f 406 556 476
f 406 476 407
f 407 476 408
f 408 476 477
f 408 477 478
f 408 478 409
f 409 478 479
f 409 479 410
f 410 479 480
f 410 480 481
f 410 481 411
f 411 481 482
f 411 482 412
f 412 482 413
f 413 483 416
f 413 482 484
f 413 484 483
f 414 415 485
f 414 485 486
f 414 486 426
f 415 417 487
f 415 487 485
f 416 483 488
f 416 488 417
f 417 488 487
f 418 489 419
f 418 425 490
f 418 490 491
f 418 491 489
f 419 492 420
f 419 489 493
f 419 493 492
f 420 494 421
f 420 492 494
f 421 494 496
f 421 496 422
f 422 495 427
f 422 496 495
f 423 426 497
f 423 497 498
f 423 498 424
f 424 499 425
f 424 498 499
f 425 499 500
f 425 500 490
f 426 486 497
f 428 501 502
f 428 502 429
f 429 502 430
f 430 502 503
f 430 503 431
f 431 503 504
f 431 504 505
f 431 505 432
f 432 505 506
f 432 506 433
f 433 506 507
f 433 507 508
f 433 508 509
f 433 509 434
f 434 508 510
f 434 510 435
f 434 509 508
f 435 510 511
f 435 511 512
f 435 512 436
f 436 512 513
f 436 513 437
f 437 513 514
f 437 514 438
f 438 514 515
f 438 515 439
f 439 515 516
f 439 516 440
f 440 516 517
f 440 517 518
f 440 518 519
f 440 519 441
f 442 444 447
f 442 447 520
f 442 520 521
f 442 521 443
f 443 521 456
f 445 455 522
f 445 522 523
f 445 523 447
f 445 447 446
f 447 523 524
f 447 524 525
f 447 525 526
f 447 526 527
f 447 527 520
f 450 528 451
f 451 528 452
f 452 529 530
f 452 530 531
f 452 531 532
f 452 532 454
f 452 454 453
f 452 528 533
f 452 533 529
f 454 532 534
f 454 534 535
f 454 535 536
f 454 536 455
f 455 536 522
f 456 521 527
f 456 527 537
f 456 537 458
f 458 537 459
f 459 527 538
f 459 538 539
f 459 539 540
f 459 540 460
f 459 537 527
f 460 540 461
f 461 540 462
f 462 540 541
f 462 541 542
f 462 542 543
f 462 543 544
f 462 544 545
f 462 545 463
f 463 545 464
f 464 545 465
f 465 545 546
f 465 546 547
f 465 547 466
f 466 547 467
f 467 547 548
f 467 548 468
f 468 548 549
f 468 549 550
f 468 550 469
f 469 550 551
f 469 551 470
f 470 551 471
f 471 551 552
f 471 552 553
f 471 553 554
f 471 554 472
f 474 555 475
f 475 555 556
f 476 556 477
f 477 557 558
f 477 558 559
f 477 559 560
f 477 560 478
f 477 556 561
f 477 561 557
f 478 560 562
f 478 562 479
f 479 562 563
f 479 563 564
f 479 564 480
f 480 564 565
f 480 565 481
f 481 565 482
f 482 565 566
f 482 566 567
f 482 567 484
f 483 484 568
f 483 568 488
f 484 567 568
f 485 487 569
f 485 569 486
f 486 569 570
f 486 570 497
f 487 571 569
f 487 488 572
f 487 572 571
f 488 568 573
f 488 573 574
f 488 574 572
f 489 491 493
f 490 500 575
f 490 575 491
f 491 575 576
f 491 576 506
f 491 506 577
f 491 577 493
f 492 493 578
f 492 578 494
f 493 577 579
f 493 579 578
f 494 578 580
f 494 580 496
f 495 496 581
f 496 580 582
f 496 582 583
f 496 583 581
f 497 570 584
f 497 584 498
f 498 585 499
f 498 584 585
f 499 585 586
f 499 586 500
f 500 587 575
f 500 586 587
f 501 588 589
f 501 589 502
f 502 589 590
f 502 590 503
f 503 590 504
f 504 590 579
f 504 579 505
f 505 577 506
f 505 579 577
f 506 576 591
f 506 591 507
f 507 591 508
f 508 591 592
f 508 592 593
f 508 593 510
f 510 593 511
f 511 593 594
f 511 594 661
f 511 661 595
f 511 595 512
f 512 595 596
f 512 596 513
f 513 596 597
f 513 597 514
f 514 597 515
f 515 597 598
f 515 598 599
f 515 599 516
f 516 599 600
f 516 600 517
f 517 600 601
f 517 601 602
f 517 602 518
f 520 527 521
f 522 536 603
f 522 603 604
f 522 604 524
f 522 524 523
f 524 604 605
f 524 605 525
f 525 605 606
f 525 606 607
f 525 607 526
f 526 607 527
f 527 607 608
f 527 608 538
f 529 609 530
f 530 609 531
f 531 609 610
f 531 610 611
f 531 611 534
f 531 534 532
f 534 611 612
f 534 612 613
f 534 613 603
f 534 603 535
f 535 603 536
f 538 608 614
f 538 614 539
f 539 614 615
f 539 615 616
f 539 616 541
f 539 541 540
f 541 616 542
f 542 617 618
f 542 618 619
f 542 619 543
f 542 616 617
f 543 619 620
f 543 620 544
f 544 620 621
f 544 621 545
f 545 621 622
f 545 622 546
f 546 622 623
f 546 623 547
f 547 623 548
f 548 623 624
f 548 624 625
f 548 625 626
f 548 626 549
f 549 626 627
f 549 627 550
f 550 627 628
f 550 628 551
f 551 628 629
f 551 629 552
f 552 629 630
f 552 630 553
f 555 561 556
f 558 631 559
f 559 631 632
f 559 632 560
f 560 632 633
f 560 633 562
f 562 633 634
f 562 634 635
f 562 635 636
f 562 636 563
f 563 636 637
f 563 637 564
f 564 637 638
f 564 638 565
f 565 638 566
f 566 638 639
f 566 639 640
f 566 640 567
f 567 640 641
f 567 641 568
f 568 641 642
f 568 642 573
f 569 571 643
f 569 643 570
f 570 643 644
f 570 644 584
f 571 572 645
f 571 645 646
f 571 646 643
f 572 574 645
f 573 642 647
f 573 647 574
f 574 647 648
f 574 648 645
f 575 587 649
f 575 649 591
f 575 591 576
f 578 579 580
f 579 590 650
f 579 650 580
f 580 650 651
f 580 651 582
f 582 651 652
f 582 652 583
f 584 653 585
f 584 644 653
f 585 653 654
f 585 654 586
f 586 655 587
f 586 654 655
f 587 655 656
f 587 656 649
f 588 657 589
f 589 657 651
f 589 651 590
f 590 651 650
f 591 649 658
f 591 658 592
f 592 658 659
f 592 659 593
f 593 659 594
f 594 659 660
f 594 660 661
f 595 661 662
f 595 662 596
f 596 662 663
f 596 663 597
f 597 663 664
f 597 664 598
f 598 664 665
f 598 665 599
f 599 665 666
f 599 666 600
f 600 666 667
f 600 667 601
f 601 668 602
f 601 667 669
f 601 669 668
f 603 613 670
f 603 670 671
f 603 671 605
f 603 605 604
f 605 672 606
f 605 671 673
f 605 673 674
f 605 674 672
f 606 672 607
f 607 672 608
f 608 672 675
f 608 675 614
f 609 676 610
f 610 676 677
f 610 677 678
f 610 678 611
f 611 678 612
f 612 670 613
f 612 678 679
f 612 679 680
f 612 680 681
f 612 681 670
f 614 675 615
f 615 675 672
f 615 672 682
f 615 682 683
f 615 683 617
f 615 617 616
f 617 683 618
f 618 683 684
f 618 684 685
f 618 685 686
f 618 686 687
f 618 687 619
f 619 687 620
f 620 687 621
f 621 687 688
f 621 688 689
f 621 689 622
f 622 689 624
f 622 624 623
f 624 689 690
f 624 690 691
f 624 691 625
f 625 691 626
f 626 691 692
f 626 692 693
f 626 693 627
f 627 693 628
f 628 693 694
f 628 694 695
f 628 695 629
f 629 695 696
f 629 696 630
f 631 697 632
f 632 697 698
f 632 698 699
f 632 699 633
f 633 699 634
f 634 700 701
f 634 701 635
f 634 699 700
f 635 702 636
f 635 701 703
f 635 703 702
f 636 702 637
f 637 702 704
f 637 704 705
f 637 705 638
f 638 705 639
f 639 706 640
f 639 705 707
f 639 707 706
f 640 706 708
f 640 708 641
f 641 708 642
f 642 709 647
f 642 708 710
f 642 710 709
f 643 711 644
f 643 646 711
f 644 711 712
f 644 712 653
f 645 648 713
f 645 713 646
f 646 713 714
f 646 714 711
f 647 709 715
f 647 715 648
f 648 715 713
f 649 656 658
f 651 657 716
f 651 716 652
f 653 712 717
f 653 717 654
f 654 718 655
f 654 717 718
f 655 718 719
f 655 719 656
f 656 720 658
f 656 719 720
f 658 720 659
f 659 720 660
f 660 720 721
f 660 721 722
f 660 722 661
f 661 722 723
f 661 723 662
f 662 723 724
f 662 724 663
f 663 724 664
f 664 724 725
f 664 725 726
f 664 726 665
f 665 726 727
f 665 727 666
f 666 727 728
f 666 728 667
f 667 728 729
f 667 729 730
f 667 730 669
f 669 730 731
f 670 681 732
f 670 732 733
f 670 733 671
f 671 733 673
f 672 674 734
f 672 734 682
f 673 733 735
f 673 735 736
f 673 736 674
f 674 736 734
f 677 737 678
f 678 737 738
f 678 738 739
f 678 739 679
f 679 739 740
f 679 740 680
f 680 740 741
f 680 741 742
f 680 742 681
f 681 742 732
f 682 734 743
f 682 743 683
f 683 743 744
f 683 744 684
f 684 744 745
f 684 745 685
f 685 745 746
f 685 746 747
f 685 747 686
f 686 747 748
f 686 748 687
f 687 748 749
f 687 749 688
f 688 749 750
f 688 750 689
f 689 750 690
f 690 750 751
f 690 751 752
f 690 752 753
f 690 753 691
f 691 753 754
f 691 754 692
f 692 754 693
f 693 754 755
f 693 755 756
f 693 756 694
f 694 756 695
f 695 756 757
f 695 757 758
f 695 758 759
f 695 759 760
f 695 760 696
f 698 761 699
f 699 761 762
f 699 762 700
f 700 762 763
f 700 763 701
f 701 763 764
f 701 764 765
f 701 765 766
f 701 766 767
f 701 767 768
f 701 768 703
f 702 703 769
f 702 769 770
f 702 770 704
f 703 768 769
f 704 770 705
f 705 770 771
f 705 771 772
f 705 772 707
f 706 707 773
f 706 773 708
f 707 772 773
f 708 773 774
f 708 774 775
f 708 775 710
f 709 710 776
f 709 776 715
f 710 775 776
f 711 777 712
f 711 714 778
f 711 778 777
f 712 777 717
f 713 779 714
f 713 715 780
f 713 780 779
f 714 779 781
f 714 781 778
f 715 776 782
f 715 782 783
f 715 783 780
f 717 777 784
f 717 784 718
f 718 784 785
f 718 785 719
f 719 721 720
f 719 785 721
f 721 785 786
f 721 786 722
f 722 786 787
f 722 787 723
f 723 787 724
f 724 787 788
f 724 788 789
f 724 789 725
f 725 789 726
f 726 789 790
f 726 790 791
f 726 791 727
f 727 791 792
f 727 792 728
f 728 792 729
f 729 792 793
f 729 793 794
f 729 794 795
f 729 795 796
f 729 796 730
f 730 796 731
f 732 742 797
f 732 797 733
f 733 797 735
f 734 736 798
f 734 798 743
f 735 797 799
f 735 799 736
f 736 799 798
f 737 800 738
f 738 800 739
f 739 800 801
f 739 801 802
f 739 802 803
f 739 803 740
f 740 803 804
f 740 804 741
f 741 805 742
f 741 804 805
f 742 805 806
f 742 806 797
f 743 798 807
f 743 807 744
f 744 807 745
f 745 807 808
f 745 808 809
f 745 809 746
f 746 809 810
f 746 810 747
f 747 811 748
f 747 810 811
f 748 811 812
f 748 812 749
f 749 812 751
f 749 751 750
f 751 812 813
f 751 813 814
f 751 814 752
f 752 814 815
f 752 815 753
f 753 816 754
f 753 815 816
f 754 816 755
f 755 816 817
f 755 817 818
f 755 818 756
f 756 818 819
f 756 819 757
f 757 820 758
f 757 819 820
f 758 820 821
f 758 821 822
f 758 822 759
f 766 823 767
f 767 823 824
f 767 824 825
f 767 825 768
f 768 825 826
f 768 826 769
f 769 826 827
f 769 827 770
f 770 827 771
f 771 828 772
f 771 827 829
f 771 829 828
f 772 828 830
f 772 830 773
f 773 830 831
f 773 831 774
f 774 831 832
f 774 832 775
f 775 832 833
f 775 833 776
f 776 833 834
f 776 834 782
f 777 778 835
f 777 835 836
f 777 836 784
f 778 781 835
f 779 780 837
f 779 837 838
f 779 838 781
f 780 783 837
f 781 839 835
f 781 838 839
f 782 840 783
f 782 834 840
f 783 840 841
f 783 841 842
f 783 842 837
f 784 836 843
f 784 843 785
f 785 843 786
f 786 843 844
f 786 844 787
f 787 844 788
f 788 844 845
f 788 845 846
f 788 846 847
f 788 847 848
f 788 848 789
f 789 848 849
f 789 849 790
f 790 849 850
f 790 850 791
f 791 850 851
f 791 851 792
f 792 851 852
f 792 852 793
f 793 852 853
f 793 853 794
f 794 853 854
f 794 854 855
f 794 855 795
f 795 855 796
f 797 806 856
f 797 856 857
f 797 857 799
f 798 799 807
f 799 857 858
f 799 858 859
f 799 859 807
f 801 860 802
f 802 860 861
f 802 861 803
f 803 861 804
f 804 861 862
f 804 862 863
f 804 863 864
f 804 864 865
f 804 865 805
f 805 856 806
f 805 865 866
f 805 866 867
f 805 867 856
f 807 859 868
f 807 868 808
f 808 868 809
f 809 868 869
f 809 869 870
f 809 870 871
f 809 871 872
f 809 872 810
f 810 872 873
f 810 873 874
f 810 874 875
f 810 875 811
f 811 875 876
f 811 876 812
f 812 876 813
f 813 876 831
f 813 831 830
f 813 830 814
f 814 830 828
f 814 828 815
f 815 828 816
f 816 828 829
f 816 829 827
f 816 827 817
f 817 827 818
f 818 825 819
f 818 827 826
f 818 826 825
f 819 825 824
f 819 824 820
f 820 824 877
f 820 877 821
f 823 877 824
f 831 876 832
f 832 876 875
f 832 875 833
f 833 875 834
f 834 875 874
f 834 874 873
f 834 873 840
f 835 878 845
f 835 845 836
f 835 839 878
f 836 845 843
f 837 842 838
f 838 879 839
f 838 842 879
f 839 879 880
f 839 880 878
f 840 881 841
f 840 873 882
f 840 882 881
f 841 881 842
f 842 881 883
f 842 883 879
f 843 845 844
f 845 878 884
f 845 884 846
f 846 884 885
f 846 885 847
f 847 885 886
f 847 886 887
f 847 887 848
f 848 887 849
f 849 887 888
f 849 888 850
f 850 888 889
f 850 889 851
f 851 889 852
f 852 889 890
f 852 890 891
f 852 891 853
f 853 891 892
f 853 892 854
f 854 893 894
f 854 894 855
f 854 892 895
f 854 895 893
f 856 858 857
f 856 867 896
f 856 896 897
f 856 897 858
f 858 897 898
f 858 898 899
f 858 899 859
f 859 899 868
f 860 900 901
f 860 901 861
f 861 901 902
f 861 902 862
f 862 902 863
f 863 903 864
f 863 902 892
f 863 892 891
f 863 891 903
f 864 903 904
f 864 904 865
f 865 904 866
f 866 904 905
f 866 905 906
f 866 906 867
f 867 906 896
f 868 899 907
f 868 907 869
f 869 907 870
f 870 907 908
f 870 908 881
f 870 881 871
f 871 881 882
f 871 882 873
f 871 873 872
f 878 880 884
f 879 883 909
f 879 909 880
f 880 910 884
f 880 909 910
f 881 911 883
f 881 908 911
f 883 911 909
f 884 910 885
f 885 910 912
f 885 912 886
f 886 912 913
f 886 913 914
f 886 914 887
f 887 914 888
f 888 914 915
f 888 915 889
f 889 915 916
f 889 916 890
f 890 916 903
f 890 903 891
f 892 902 895
f 893 895 917
f 895 902 901
f 895 901 918
f 895 918 917
f 896 906 919
f 896 919 920
f 896 920 921
f 896 921 922
f 896 922 897
f 897 922 898
f 898 922 921
f 898 921 923
f 898 923 911
f 898 911 924
f 898 924 899
f 899 924 907
f 900 925 901
f 901 925 918
f 903 916 904
f 904 916 905
f 905 916 919
f 905 919 906
f 907 924 911
f 907 911 908
f 909 911 926
f 909 926 910
f 910 926 912
f 911 921 926
f 911 923 921
f 912 926 921
f 912 921 913
f 913 921 919
f 913 919 914
f 914 919 915
f 915 919 916
f 919 921 920
