v -0.00092660 0.40998375 1.00894856
v 0.01001790 0.40998375 1.00890470
v 0.01001790 0.42996338 1.00785327
v -0.00092660 0.42996338 1.00785327
v -0.00092660 0.38994849 1.00785327
v 0.01001790 0.38994849 1.00785327
v 0.03001379 0.40998375 1.00846660
v 0.03001379 0.42996338 1.00737143
v 0.03001379 0.44476724 1.00299060
v 0.01001790 0.44510114 1.00320971
v -0.00092660 0.44510114 1.00325346
v -0.00092660 0.43680876 1.00579441
v -0.00092660 0.36996889 1.00601339
v 0.01001790 0.36996889 1.00601339
v 0.03001379 0.38994849 1.00741529
v 0.05000969 0.40998375 1.00759053
v 0.05000969 0.42996338 1.00649524
v 0.07000558 0.44326457 1.00193930
v 0.05000969 0.44415504 1.00255251
v 0.05000969 0.45417267 0.99247670
v 0.03001379 0.45478487 0.99278337
v 0.01001790 0.45511878 0.99291480
v -0.00092660 0.45511878 0.99295861
v -0.00092660 0.34998924 1.00377917
v 0.03001379 0.36996889 1.00557530
v 0.01001790 0.34998924 1.00377917
v 0.05000969 0.36996889 1.00474298
v 0.05000969 0.38994849 1.00653911
v 0.07000558 0.38994849 1.00522482
v 0.07000558 0.40998375 1.00623250
v 0.07000558 0.42996338 1.00518107
v 0.09000148 0.44192889 1.00110686
v 0.12301245 0.46012759 0.98025429
v 0.09000148 0.45194653 0.99146914
v 0.07000558 0.45322657 0.99203861
v 0.11002695 0.46040589 0.98078001
v 0.09000148 0.46073979 0.98148090
v 0.07000558 0.46096241 0.98200661
v 0.05000969 0.46112937 0.98244464
v 0.03001379 0.46118501 0.98279512
v 0.01001790 0.46124068 0.98292655
v -0.00092660 0.45790148 0.98844635
v -0.00092660 0.33935943 1.00242114
v 0.03001379 0.34998924 1.00334108
v 0.01001790 0.33051050 1.00128210
v 0.03001379 0.33201316 1.00106311
v 0.07000558 0.36996889 1.00347257
v 0.05000969 0.34998924 1.00250876
v 0.07050844 0.34887618 1.00115073
v 0.09180584 0.36818796 1.00145733
v 0.09000148 0.38994849 1.00351632
v 0.09000148 0.40998375 1.00452387
v 0.09000148 0.42996338 1.00351632
v 0.10405184 0.44076017 1.00040603
v 0.15001874 0.44910821 0.98743880
v 0.12981579 0.45183522 0.98726356
v 0.13635290 0.45973802 0.97885239
v 0.22997272 0.46040589 0.96075970
v 0.20997684 0.46101806 0.96224916
v 0.18998094 0.46135199 0.96365106
v 0.11002695 0.46185288 0.96995938
v 0.09000148 0.46207547 0.96995938
v 0.07000558 0.46218678 0.96995938
v 0.03001379 0.46229810 0.96995938
v -0.00092660 0.46124068 0.98297036
v -0.00092660 0.33056617 1.00128210
v 0.05000969 0.33496279 1.00066876
v -0.00092660 0.32505646 1.00053740
v 0.01001790 0.32049286 0.99992406
v 0.03001379 0.32199553 0.99970508
v 0.08630401 0.35477546 1.00058126
v 0.06417838 0.33785677 1.00027454
v 0.07751883 0.34147426 0.99979270
v 0.09964447 0.36034083 0.99992406
v 0.10570831 0.37364203 1.00062501
v 0.11904876 0.38154483 0.99988025
v 0.11141719 0.38889107 1.00123835
v 0.11002695 0.40998375 1.00246501
v 0.12419564 0.42434239 1.00053740
v 0.11044106 0.43057558 1.00136971
v 0.11736272 0.43764359 0.99966121
v 0.20997684 0.44359851 0.98222566
v 0.18998094 0.44604725 0.98415321
v 0.16998504 0.44782817 0.98586172
v 0.24005941 0.45996064 0.96001494
v 0.16998504 0.45784581 0.97517252
v 0.28998998 0.46085110 0.94196606
v 0.26999408 0.46140763 0.94433171
v 0.22997272 0.46179721 0.94998294
v 0.20997684 0.46218678 0.94998294
v 0.26999408 0.46213114 0.92996264
v -0.00092660 0.46224245 0.96995938
v 0.05000969 0.32494515 0.99931079
v -0.00092660 0.31470490 0.99904794
v 0.01001790 0.30997437 0.99834698
v 0.03001379 0.30997437 0.99790889
v 0.05000969 0.30997437 0.99712038
v 0.09180584 0.34887618 0.99939835
v 0.07050844 0.33067748 0.99887270
v 0.09000148 0.32995397 0.99716419
v 0.11141719 0.36818796 0.99944222
v 0.11002695 0.34998924 0.99764609
v 0.12960872 0.38889107 0.99900413
v 0.12268707 0.39484602 1.00031829
v 0.13002284 0.36996889 0.99729562
v 0.15001874 0.36996889 0.99444807
v 0.15001874 0.38994849 0.99620038
v 0.12514219 0.40998375 1.00062501
v 0.15001874 0.42996338 0.99624419
v 0.13052569 0.43057558 0.99887270
v 0.13514014 0.40998375 0.99935460
v 0.15001874 0.40998375 0.99720800
v 0.16998504 0.42996338 0.99304622
v 0.22382015 0.44142801 0.98082376
v 0.26999408 0.44682640 0.96505290
v 0.24804594 0.45127869 0.96619189
v 0.18998094 0.45606491 0.97363925
v 0.26999408 0.45684403 0.95431995
v 0.30123028 0.45968238 0.94157177
v 0.30123028 0.46035022 0.94069564
v 0.30123028 0.46112937 0.93530726
v 0.30123028 0.46163025 0.93026930
v 0.28998998 0.46201983 0.92996264
v 0.30123028 0.46163025 0.91835356
v 0.30123028 0.46124068 0.91143185
v -0.00092660 0.46101806 0.95664173
v 0.07000558 0.30997437 0.99593759
v -0.00092660 0.29901060 0.99659467
v 0.01001790 0.28999475 0.99514902
v 0.03001379 0.28999475 0.99475473
v 0.05000969 0.28999475 0.99396622
v 0.11002695 0.32995397 0.99514902
v 0.09000148 0.30997437 0.99436045
v 0.13002284 0.34998924 0.99514902
v 0.13002284 0.32995397 0.99269575
v 0.16998504 0.36996889 0.99120629
v 0.15001874 0.34998924 0.99230146
v 0.16998504 0.38994849 0.99295861
v 0.16998504 0.40998375 0.99400997
v 0.18998094 0.42996338 0.98949778
v 0.23716059 0.43436003 0.97933429
v 0.30123028 0.44092715 0.96054065
v 0.28998998 0.44337589 0.96220535
v 0.20997684 0.42996338 0.98568648
v 0.30123028 0.44738296 0.95449513
v 0.28998998 0.45333788 0.95195431
v 0.30123028 0.45133436 0.95042098
v 0.30123028 0.45990500 0.90407211
v 0.30123028 0.45945975 0.90227598
v -0.00092660 0.45773450 0.94660974
v 0.07000558 0.28999475 0.99278337
v -0.00092660 0.28999475 0.99514902
v -0.00092660 0.27903098 0.99326527
v 0.01001790 0.26995945 0.99168819
v 0.03001379 0.26995945 0.99125010
v 0.05000969 0.26995945 0.99050534
v 0.11002695 0.30997437 0.99234527
v 0.13002284 0.30997437 0.98993587
v 0.09000148 0.28999475 0.99120629
v 0.11002695 0.28999475 0.98923492
v 0.15001874 0.32995397 0.98984826
v 0.18998094 0.36996889 0.98757023
v 0.16998504 0.34998924 0.98901588
v 0.18998094 0.34998924 0.98542362
v 0.18998094 0.38994849 0.98932254
v 0.18998094 0.40998375 0.99041772
v 0.30123028 0.44053757 0.96062827
v 0.23029810 0.42862770 0.98152471
v 0.24044394 0.42105883 0.98007905
v 0.24825299 0.42862770 0.97723150
v 0.26999408 0.42996338 0.97127366
v 0.30123028 0.45751190 0.89723808
v 0.30123028 0.45467356 0.89079827
v 0.30123028 0.44849601 0.87923294
v -0.00092660 0.44877428 0.92996264
v 0.07000558 0.26995945 0.98932254
v -0.00092660 0.26995945 0.99168819
v -0.00092660 0.25899571 0.98962921
v 0.01001790 0.24997985 0.98792070
v 0.03001379 0.24997985 0.98752642
v 0.05000969 0.24997985 0.98673785
v 0.07000558 0.24997985 0.98559886
v 0.13002284 0.28999475 0.98682547
v 0.15001874 0.30997437 0.98708832
v 0.09000148 0.26995945 0.98774546
v 0.11002695 0.26995945 0.98577410
v 0.13002284 0.26995945 0.98340845
v 0.16998504 0.32995397 0.98656261
v 0.20997684 0.36996889 0.98367131
v 0.19181488 0.32822871 0.98240089
v 0.20397215 0.33373842 0.98078001
v 0.21039096 0.35087973 0.98152471
v 0.20997684 0.38994849 0.98542362
v 0.20997684 0.40998375 0.98647499
v 0.28998998 0.42996338 0.96553481
v 0.30123028 0.42996338 0.96211773
v 0.24044394 0.41688481 0.98007905
v 0.26999408 0.40998375 0.97206217
v 0.30123028 0.44426635 0.87217987
v -0.00092660 0.44103843 0.91883540
v -0.00092660 0.24997985 0.98792070
v 0.01001790 0.22994457 0.98380274
v 0.03001379 0.22994457 0.98340845
v 0.05000969 0.22994457 0.98266375
v 0.06826038 0.22916542 0.98143709
v 0.07376221 0.22193046 0.97955334
v 0.09000148 0.23495339 0.98104280
v 0.09000148 0.24997985 0.98402178
v 0.14845100 0.27101690 0.98099899
v 0.15001874 0.28999475 0.98397797
v 0.16897933 0.29116347 0.98108661
v 0.16998504 0.30997437 0.98380274
v 0.11026359 0.24897808 0.98183137
v 0.13002284 0.25576782 0.98078001
v 0.14076027 0.25938529 0.98007905
v 0.18563272 0.30997437 0.98104280
v 0.22361308 0.36996889 0.98078001
v 0.22092134 0.35811466 0.98016667
v 0.19968309 0.32038158 0.97990382
v 0.21039096 0.32822871 0.97876477
v 0.21731260 0.34481347 0.97942191
v 0.22748803 0.38994849 0.98165613
v 0.23940866 0.40352798 0.97986001
v 0.23162919 0.41009510 0.98183137
v 0.28998998 0.40998375 0.96623570
v 0.30123028 0.42601198 0.96224916
v 0.24825299 0.41009510 0.97784483
v 0.24999820 0.38994849 0.97631156
v 0.26999408 0.38994849 0.97096699
v 0.30123028 0.43942448 0.86609054
v 0.30123028 0.43680876 0.86319923
v 0.30123028 0.43252346 0.85925651
v 0.30123028 0.42773724 0.85496330
v -0.00092660 0.42996338 0.90924144
v -0.00092660 0.22994457 0.98380274
v -0.00092660 0.22243135 0.98218185
v 0.01001790 0.21614249 0.98082376
v 0.03001379 0.21697730 0.98064852
v 0.05000969 0.21870255 0.98025429
v 0.06042175 0.21987128 0.97999144
v 0.09000148 0.22493576 0.97894001
v 0.06826038 0.21191283 0.97771341
v 0.09000148 0.20996496 0.97569823
v 0.10375604 0.23801434 0.98038572
v 0.16164356 0.27836317 0.98025429
v 0.15407115 0.26500630 0.97907144
v 0.17498402 0.28531983 0.97911525
v 0.18113661 0.29862103 0.98021048
v 0.11709650 0.24163181 0.97964096
v 0.13002284 0.24575017 0.97885239
v 0.15001874 0.22994457 0.97285074
v 0.14845100 0.25164944 0.97740674
v 0.19563067 0.30997437 0.97915906
v 0.23361103 0.36996889 0.97854578
v 0.22855291 0.35087973 0.97762579
v 0.20997684 0.30997437 0.97631156
v 0.22997272 0.32995397 0.97473449
v 0.22997272 0.30997437 0.97197455
v 0.23748598 0.38994849 0.97942191
v 0.30123028 0.40998375 0.96277487
v 0.28998998 0.38994849 0.96514052
v 0.30123028 0.40497494 0.96251202
v 0.24999820 0.36996889 0.97455925
v 0.26999408 0.36996889 0.96925843
v 0.30123028 0.41972315 0.84852350
v -0.00092660 0.41933358 0.90039223
v -0.00092660 0.42517719 0.90525490
v -0.00092660 0.21614249 0.98082376
v 0.01001790 0.20612486 0.97858953
v 0.03001379 0.20701532 0.97841436
v 0.05000969 0.20868492 0.97802007
v 0.07000558 0.18998533 0.97258788
v 0.11002695 0.20996496 0.97372687
v 0.11026359 0.23077938 0.97819531
v 0.09000148 0.18998533 0.97109842
v 0.11002695 0.18998533 0.96917081
v 0.16897933 0.27101690 0.97771341
v 0.16998504 0.24997985 0.97363925
v 0.18998094 0.26995945 0.97377068
v 0.18867943 0.29116347 0.97758198
v 0.13002284 0.22994457 0.97565442
v 0.13002284 0.20996496 0.97136128
v 0.15001874 0.20996496 0.96851373
v 0.16998504 0.22994457 0.96960890
v 0.20997684 0.28999475 0.97324502
v 0.24999820 0.34998924 0.97241265
v 0.24999820 0.32995397 0.96991557
v 0.22997272 0.28999475 0.96886420
v 0.24999820 0.30997437 0.96715569
v 0.29164645 0.36902276 0.96281868
v 0.30123028 0.37492204 0.96049684
v 0.30123028 0.38994849 0.96167970
v 0.26999408 0.34998924 0.96706808
v 0.28723907 0.34998924 0.96211773
v 0.29942590 0.36173216 0.95979595
v 0.30123028 0.41287774 0.84396750
v 0.30123028 0.40731239 0.84059429
v -0.00092660 0.41482562 0.89771992
v -0.00092660 0.20612486 0.97858953
v -0.00092660 0.19727595 0.97653061
v 0.01001790 0.18998533 0.97482204
v 0.03001379 0.18998533 0.97447163
v 0.05000969 0.18998533 0.97372687
v 0.07000558 0.17000571 0.96772516
v 0.09000148 0.17000571 0.96623570
v 0.11002695 0.17000571 0.96430814
v 0.12200674 0.15904197 0.96023399
v 0.13002284 0.18998533 0.96676141
v 0.18998094 0.24997985 0.97004700
v 0.20997684 0.26995945 0.96987176
v 0.15001874 0.18998533 0.96395767
v 0.16806236 0.19082013 0.96124160
v 0.16998504 0.20996496 0.96527195
v 0.18944851 0.21007626 0.96181107
v 0.18998094 0.22994457 0.96601665
v 0.26999408 0.32995397 0.96457100
v 0.27028990 0.31125438 0.96194255
v 0.25189131 0.28815818 0.96325678
v 0.22997272 0.26995945 0.96549094
v 0.26381195 0.29355657 0.96102256
v 0.30123028 0.36312348 0.95935786
v 0.28306833 0.32995397 0.96089113
v 0.29723704 0.34998924 0.95918262
v 0.30123028 0.34998924 0.95791221
v 0.30123028 0.40313840 0.83814102
v -0.00092660 0.40931594 0.89452195
v -0.00092660 0.18998533 0.97482204
v 0.01001790 0.17000571 0.96995938
v 0.03001379 0.17000571 0.96956515
v 0.05000969 0.17000571 0.96882039
v 0.05000969 0.15002610 0.96373868
v 0.07006474 0.14852345 0.96220535
v 0.07674976 0.14084326 0.95975208
v 0.09000148 0.15275311 0.96185493
v 0.11002695 0.15642625 0.96089113
v 0.11002695 0.14646426 0.95830643
v 0.12919460 0.15141743 0.95729887
v 0.13531761 0.16249248 0.95935786
v 0.12919460 0.16950484 0.96189868
v 0.20997684 0.24997985 0.96610427
v 0.22976567 0.25053638 0.96189868
v 0.15001874 0.17679544 0.96075970
v 0.16013500 0.17985639 0.96001494
v 0.18243811 0.19805509 0.96045303
v 0.20326224 0.21686599 0.96067208
v 0.19577856 0.20350914 0.95918262
v 0.20994726 0.23000023 0.96207392
v 0.28055406 0.31882328 0.96014637
v 0.27712280 0.30546641 0.95918262
v 0.25981867 0.28025538 0.95992732
v 0.24624157 0.26995945 0.96154821
v 0.24183419 0.25760439 0.96045303
v 0.27028990 0.28815818 0.95835024
v 0.29306626 0.32995397 0.95795596
v 0.30123028 0.32995397 0.95541513
v 0.30123028 -0.10625845 0.56144953
v -0.00092660 0.39028242 0.88448989
v -0.00092660 0.17000571 0.96995938
v 0.01001790 0.15002610 0.96483386
v 0.03001379 0.15002610 0.96443957
v 0.05000969 0.13794927 0.96054065
v 0.06340931 0.13922930 0.96019018
v 0.07006474 0.13154912 0.95764935
v 0.09000148 0.13004647 0.95576560
v 0.09000148 0.14279114 0.95927024
v 0.11002695 0.13004647 0.95383805
v 0.13002284 0.13004647 0.95142859
v 0.15001874 0.15002610 0.95401323
v 0.15001874 0.16677780 0.95830643
v 0.22296233 0.23667865 0.96067208
v 0.23630279 0.24430318 0.95913881
v 0.16998504 0.15002610 0.95072764
v 0.16806236 0.17195359 0.95664173
v 0.18998094 0.17000571 0.95226097
v 0.17344588 0.18469825 0.95883214
v 0.18944851 0.19082013 0.95743030
v 0.20994726 0.21007626 0.95773697
v 0.21660268 0.22337745 0.95927024
v 0.20997684 0.18998533 0.95309329
v 0.28833354 0.31125438 0.95677316
v 0.28998998 0.28999475 0.95300567
v 0.25623953 0.26995945 0.95900738
v 0.26999408 0.26995945 0.95528370
v 0.24908122 0.25053638 0.95716745
v 0.28998998 0.26995945 0.94954485
v 0.30123028 0.31047523 0.95269901
v 0.30123028 0.32238510 0.95436370
v 0.30123028 -0.10625845 0.80278796
v -0.00092660 -0.10625845 0.63237470
v -0.00092660 0.15002610 0.96483386
v 0.01001790 0.13594575 0.96111017
v 0.03001379 0.13666925 0.96089113
v 0.03001379 0.12665161 0.95813119
v 0.05000969 0.12798730 0.95778072
v 0.07000558 0.11001120 0.95151621
v 0.09000148 0.11001120 0.95002675
v 0.11002695 0.11001120 0.94809920
v 0.15001874 0.13004647 0.94862485
v 0.13002284 0.11001120 0.94568974
v 0.22976567 0.23000023 0.95764935
v 0.24999820 0.22994457 0.95269901
v 0.18998094 0.15002610 0.94709158
v 0.16998504 0.13004647 0.94529545
v 0.20997684 0.17000571 0.94818681
v 0.21030220 0.14941390 0.94279838
v 0.22997272 0.20996496 0.95322472
v 0.22997272 0.18998533 0.94858110
v 0.30123028 0.30118111 0.95129716
v 0.30123028 0.28999475 0.94954485
v 0.26999408 0.24997985 0.95147240
v 0.28998998 0.24997985 0.94568974
v 0.30123028 0.24997985 0.94222891
v 0.30123028 0.26995945 0.94604021
v 0.30123028 0.28120148 0.94801158
v 0.30016541 -0.10625845 0.80318218
v 0.30123028 -0.10586888 0.80305082
v -0.00092660 -0.10625845 0.85583949
v -0.00092660 0.13594575 0.96111017
v 0.01001790 0.12598376 0.95835024
v 0.03001379 0.11001120 0.95335615
v 0.05000969 0.11001120 0.95265520
v 0.07000558 0.09003158 0.94533926
v 0.09153962 0.08813936 0.94310510
v 0.09923035 0.08023655 0.93990707
v 0.11002695 0.09209076 0.94253558
v 0.13002284 0.09587520 0.94130892
v 0.14984125 0.10917640 0.94262320
v 0.16998504 0.11585481 0.94122136
v 0.14303792 0.09860222 0.94043279
v 0.24999820 0.20996496 0.94827443
v 0.26999408 0.22994457 0.94726682
v 0.18873858 0.13021344 0.94192225
v 0.20385383 0.13700317 0.94082701
v 0.18122534 0.11924969 0.94021374
v 0.22485542 0.15564710 0.94113374
v 0.23091927 0.16905960 0.94314885
v 0.21719429 0.14234591 0.93933761
v 0.23819590 0.16171333 0.93955660
v 0.24476258 0.17501453 0.94126511
v 0.25085601 0.18920618 0.94314885
v 0.28948712 0.23139156 0.94187844
v 0.30066827 0.23896044 0.94021374
v 0.30123028 0.23940568 0.94012612
v 0.28889555 -0.10625845 0.80721253
v 0.28998998 -0.09312421 0.81557989
v 0.30123028 -0.09006327 0.81347710
v 0.00984043 -0.10625845 0.85583949
v -0.00060122 -0.09996960 0.86000121
v -0.00092660 -0.09963569 0.86022025
v -0.00092660 0.12598376 0.95835024
v 0.01001790 0.11001120 0.95375043
v 0.03001379 0.09003158 0.94722301
v 0.05000969 0.09003158 0.94647825
v 0.07000558 0.07689735 0.94104612
v 0.08588989 0.07862260 0.94047660
v 0.09153962 0.07116503 0.93741000
v 0.11002695 0.07005196 0.93513203
v 0.11002695 0.08207312 0.93929374
v 0.13002284 0.08585756 0.93806714
v 0.15634879 0.10188578 0.93942517
v 0.16998504 0.10583718 0.93819857
v 0.14984125 0.09114465 0.93697196
v 0.26390067 0.19538373 0.94113374
v 0.27031946 0.21002060 0.94271076
v 0.28247672 0.21675467 0.94073945
v 0.19456580 0.12364632 0.93894327
v 0.21030220 0.13021344 0.93745387
v 0.18873858 0.11156949 0.93644625
v 0.23091927 0.14941390 0.93802333
v 0.22997272 0.13004647 0.93285400
v 0.24999820 0.15002610 0.93329203
v 0.25085601 0.16905960 0.93806714
v 0.25807345 0.18202688 0.93946898
v 0.29581720 0.22565925 0.93872428
v 0.30123028 0.23840392 0.93990707
v 0.26987576 -0.10625845 0.81369615
v 0.27460852 -0.09718692 0.81820834
v 0.30049080 -0.08026823 0.82017970
v 0.28998998 -0.08310658 0.82197583
v 0.30123028 -0.08099174 0.81939119
v 0.03001379 -0.10625845 0.85540140
v 0.01433654 -0.09991395 0.85991359
v 0.00102566 -0.09996960 0.86000121
v 0.00862765 -0.09189984 0.86482012
v -0.00092660 -0.08433095 0.86933231
v -0.00092660 0.11001120 0.95375043
v 0.01001790 0.09003158 0.94761729
v 0.03001379 0.07411467 0.94200987
v 0.05000969 0.07522774 0.94161558
v 0.05000969 0.06521010 0.93815476
v 0.07000558 0.06693536 0.93758523
v 0.09000148 0.05001669 0.92983127
v 0.11002695 0.05001669 0.92781603
v 0.13002284 0.07005196 0.93263495
v 0.15001874 0.07005196 0.92978740
v 0.16998504 0.09003158 0.93316066
v 0.18998094 0.09003158 0.92943692
v 0.27724111 0.20345348 0.93916237
v 0.27031946 0.18920618 0.93771666
v 0.28948712 0.21002060 0.93701577
v 0.20997684 0.11001120 0.93162739
v 0.24999820 0.13004647 0.92768466
v 0.22997272 0.11001120 0.92693990
v 0.26999408 0.15002610 0.92759705
v 0.26999408 0.17000571 0.93289781
v 0.30123028 0.21002060 0.93329203
v 0.26671076 -0.10625845 0.81474751
v 0.26126808 -0.10058179 0.82039875
v 0.26875174 -0.09028590 0.82451671
v 0.30123028 -0.08004564 0.82000452
v 0.30123028 -0.07926649 0.82048637
v 0.30123028 -0.06974973 0.82600617
v 0.28998998 -0.05628157 0.83787817
v 0.28998998 -0.06997234 0.82986128
v 0.27150267 -0.06997234 0.83608204
v 0.25334072 -0.07659513 0.83796579
v 0.03678755 -0.10625845 0.85513854
v 0.03001379 -0.09958002 0.85973835
v 0.03001379 -0.08961803 0.86582768
v 0.01001790 -0.07308894 0.87599117
v -0.00092660 -0.07308894 0.87599117
v -0.00092660 0.09003158 0.94761729
v 0.01001790 0.07355813 0.94218510
v 0.01001790 0.06354050 0.93876809
v 0.03001379 0.06415268 0.93854904
v 0.05000969 0.05001669 0.93263495
v 0.07000558 0.05001669 0.93140829
v 0.09000148 0.03243017 0.92304099
v 0.11002695 0.03499024 0.92198956
v 0.13002284 0.03810683 0.92076296
v 0.13002284 0.05001669 0.92531902
v 0.16998504 0.07005196 0.92637038
v 0.14827353 0.04957145 0.92251527
v 0.16998504 0.05630554 0.92142010
v 0.21175161 0.08819501 0.92426759
v 0.18903439 0.06960673 0.92264670
v 0.20627937 0.07606254 0.92137629
v 0.28998998 0.18998533 0.93197781
v 0.22997272 0.09409428 0.92194581
v 0.24905165 0.11067904 0.92220867
v 0.26227379 0.11774704 0.92067534
v 0.26937291 0.13076997 0.92234004
v 0.24177504 0.09854657 0.92045629
v 0.28916174 0.15119481 0.92203343
v 0.30123028 0.15854108 0.92032492
v 0.28998998 0.17000571 0.92685229
v 0.28191471 0.13794927 0.92058772
v 0.30123028 0.20122735 0.93114549
v 0.25623953 -0.10625845 0.81816459
v 0.24798678 -0.08794844 0.83248979
v 0.24999820 -0.10319752 0.82215106
v 0.30123028 -0.05233017 0.83608204
v 0.27916381 -0.05950947 0.83971810
v 0.30123028 -0.04437171 0.84068191
v 0.30123028 -0.04281342 0.84155804
v 0.28998998 -0.04626393 0.84344178
v 0.26582336 -0.06329392 0.84190851
v 0.24798678 -0.06997234 0.84344178
v 0.24000025 -0.07998997 0.83998096
v 0.05000969 -0.10625845 0.85456902
v 0.05000969 -0.09891218 0.85934412
v 0.05000969 -0.08895019 0.86538959
v 0.03001379 -0.07275501 0.87581593
v 0.01001790 -0.06307131 0.88177383
v -0.00092660 -0.06307131 0.88173002
v -0.00092660 0.07355813 0.94218510
v -0.00092660 0.06354050 0.93876809
v 0.01001790 0.05001669 0.93381774
v 0.03001379 0.05001669 0.93337965
v 0.05000969 0.03003706 0.92488092
v 0.06902945 0.02853441 0.92312860
v 0.07503413 0.02090989 0.91962397
v 0.09000148 0.02246818 0.91896683
v 0.11002695 0.02502824 0.91795927
v 0.13002284 0.02808920 0.91668880
v 0.14046448 0.03983209 0.92006207
v 0.18172820 0.05914386 0.92032492
v 0.15377536 0.04261476 0.91896683
v 0.16998504 0.04628789 0.91756499
v 0.21959025 0.08029221 0.91988683
v 0.19506866 0.06270569 0.91901064
v 0.21175161 0.06960673 0.91787165
v 0.30123028 0.15887500 0.92041254
v 0.30123028 0.17000571 0.92326003
v 0.30123028 0.17946681 0.92566943
v 0.30123028 0.18915053 0.92812270
v 0.22997272 0.08407665 0.91861635
v 0.25511551 0.10444584 0.91861635
v 0.26937291 0.11067904 0.91629457
v 0.27561426 0.12459242 0.91866016
v 0.24905165 0.09114465 0.91594410
v 0.29525518 0.14529555 0.91848493
v 0.30123028 0.13032474 0.91208899
v 0.28916174 0.13076997 0.91620696
v 0.24999820 -0.10625845 0.82009208
v 0.22997272 -0.09212247 0.83503067
v 0.22997272 -0.10625845 0.82583094
v 0.23579994 -0.10625845 0.82416624
v 0.24573871 -0.10625845 0.82131875
v 0.27150267 -0.05166233 0.84650838
v 0.30123028 -0.02962352 0.84843588
v 0.28842226 -0.02823219 0.85356146
v 0.26999408 -0.03374189 0.85671562
v 0.25626910 -0.03791590 0.85890603
v 0.24976155 -0.04893531 0.85478806
v 0.22997272 -0.05477893 0.85715371
v 0.22997272 -0.06997234 0.84847975
v 0.22997272 -0.08210480 0.84129518
v 0.07000558 -0.10625845 0.85334241
v 0.07000558 -0.09791040 0.85873079
v 0.07000558 -0.08794844 0.86477631
v 0.05000969 -0.07203153 0.87537783
v 0.03001379 -0.06273739 0.88155478
v 0.01001790 -0.04999273 0.88887072
v -0.00092660 -0.04999273 0.88882691
v -0.00092660 0.05001669 0.93381774
v -0.00092660 0.03905293 0.92956841
v 0.01001790 0.03003706 0.92606378
v 0.03001379 0.03003706 0.92562568
v 0.03001379 0.01807155 0.92080677
v 0.05000969 0.01901767 0.92041254
v 0.06169368 0.01974116 0.92010581
v 0.06902945 0.01183836 0.91616315
v 0.09000148 0.01000179 0.91366607
v 0.11002695 0.01000179 0.91156328
v 0.13002284 0.01000179 0.90902239
v 0.14827353 0.03192928 0.91554981
v 0.15001874 0.01000179 0.90599966
v 0.18903439 0.05146368 0.91594410
v 0.16998504 0.03003706 0.91103756
v 0.18998094 0.03003706 0.90718246
v 0.22997272 0.07005196 0.91366607
v 0.20997684 0.05001669 0.91094995
v 0.24999820 0.07005196 0.90836531
v 0.26999408 0.09003158 0.90946048
v 0.28998998 0.11001120 0.90967953
v 0.30123028 0.11023381 0.90599966
v 0.20997684 -0.09618515 0.83757150
v 0.21092339 -0.10625845 0.83069366
v 0.30123028 -0.01309443 0.85689086
v 0.29407197 -0.01593275 0.85798609
v 0.28073153 -0.02044070 0.86022025
v 0.26999408 -0.02377991 0.86192876
v 0.24976155 -0.03073660 0.86446965
v 0.24292865 -0.04158904 0.86083359
v 0.21571529 -0.05811813 0.85894984
v 0.22997272 -0.04476129 0.86258590
v 0.20941481 -0.06858100 0.85443759
v 0.20997684 -0.08616751 0.84383607
v 0.07559615 -0.10625845 0.85286051
v 0.09000148 -0.09651908 0.85785460
v 0.09000148 -0.08655709 0.86394393
v 0.09000148 -0.10625845 0.85159010
v 0.07000558 -0.07097411 0.87476456
v 0.07000558 -0.06095646 0.88054717
v 0.05000969 -0.06201389 0.88111669
v 0.05000969 -0.04999273 0.88764411
v 0.03001379 -0.04999273 0.88843262
v 0.03001379 -0.03379755 0.89688760
v 0.01001790 -0.03418712 0.89706284
v -0.00092660 -0.03413147 0.89706284
v -0.00092660 0.03003706 0.92606378
v 0.01001790 0.01762633 0.92102581
v 0.03001379 0.00810957 0.91651356
v 0.05000969 0.00900003 0.91611934
v 0.07000558 -0.00997783 0.90639395
v 0.09029727 -0.01164743 0.90394068
v 0.11002695 -0.00780734 0.90359020
v 0.13002284 -0.00502467 0.90231979
v 0.15001874 -0.00174111 0.90078652
v 0.16001669 0.00003980 0.89999795
v 0.16800320 0.00972353 0.90275788
v 0.18998094 0.01651326 0.90153122
v 0.20891196 0.02970314 0.90302074
v 0.20154661 0.01918462 0.90034842
v 0.23180667 0.04812446 0.90499210
v 0.24999820 0.05391243 0.90236360
v 0.22636400 0.03615895 0.90157503
v 0.26925460 0.07038588 0.90280169
v 0.26209632 0.05836471 0.90065509
v 0.28315705 0.07723127 0.90096176
v 0.29646796 0.08329750 0.89885896
v 0.28987166 0.09003158 0.90319598
v 0.30123028 0.09565259 0.90144360
v 0.19631100 -0.09874523 0.83919239
v 0.19358966 -0.10625845 0.83472401
v 0.30123028 -0.00585946 0.86043930
v 0.30123028 -0.00368898 0.86149073
v 0.28842226 -0.00953260 0.86298019
v 0.26999408 -0.00997783 0.86871904
v 0.24970239 -0.00903171 0.87529022
v 0.22997272 -0.02995744 0.87029612
v 0.22997272 -0.01526491 0.87769967
v 0.20941481 -0.05088317 0.86438203
v 0.20240442 -0.06095646 0.86052692
v 0.21033180 -0.02906699 0.87568450
v 0.18998094 -0.07331157 0.85605848
v 0.18977389 -0.09123200 0.84523791
v 0.11002695 -0.09473816 0.85675943
v 0.09494129 -0.10625845 0.85106438
v 0.11002695 -0.08477619 0.86284876
v 0.11002695 -0.06997234 0.87152272
v 0.08887744 -0.06813578 0.87485218
v 0.08145294 -0.06023297 0.88010913
v 0.07000558 -0.04999273 0.88641745
v 0.05000969 -0.03296274 0.89649332
v 0.05000969 -0.02300076 0.90148741
v 0.03001379 -0.02377991 0.90188169
v 0.01001790 -0.02416947 0.90205693
v -0.00092660 -0.02416947 0.90205693
v -0.00092660 0.02324733 0.92330384
v -0.00092660 0.01762633 0.92098200
v -0.00092660 0.01217228 0.91866016
v -0.00092660 0.00760868 0.91668880
v 0.01001790 0.00760868 0.91668880
v 0.03001379 -0.00997783 0.90840912
v 0.05000969 -0.00997783 0.90757674
v 0.07000558 -0.02177638 0.90087414
v 0.08381931 -0.02066331 0.90034842
v 0.09715977 -0.01938328 0.89969128
v 0.11002695 -0.01782498 0.89899039
v 0.13002284 -0.01504230 0.89767611
v 0.15001874 -0.01175874 0.89614284
v 0.16800320 -0.00797430 0.89474100
v 0.17335713 0.00282249 0.89872754
v 0.18998094 0.00649562 0.89710665
v 0.21488707 0.02285776 0.89877135
v 0.20891196 0.01156010 0.89522290
v 0.23967487 0.04022166 0.89991033
v 0.24999820 0.04389480 0.89846468
v 0.23180667 0.02970314 0.89750087
v 0.27543676 0.06393007 0.89855230
v 0.26925460 0.05101845 0.89552957
v 0.28998998 0.05001669 0.88860786
v 0.28987166 0.07038588 0.89631808
v 0.30123028 0.07016326 0.89241916
v 0.30123028 0.08569060 0.89802659
v 0.18297055 -0.10097137 0.84059429
v 0.18770330 -0.10625845 0.83603823
v 0.19131203 -0.10625845 0.83524966
v 0.30123028 0.00972353 0.86766762
v 0.28998998 0.01000179 0.87169796
v 0.27170971 0.00944525 0.87730539
v 0.25618035 0.00243291 0.87888247
v 0.24283990 -0.00168546 0.88081002
v 0.21722387 -0.01865979 0.87932056
v 0.22997272 -0.00524728 0.88247478
v 0.18998094 -0.04999273 0.86920094
v 0.18998094 -0.03474365 0.87730539
v 0.18998094 -0.06329392 0.86188495
v 0.20391299 -0.02177638 0.88089764
v 0.16998504 -0.07676208 0.85811746
v 0.16998504 -0.08995196 0.85005683
v 0.13002284 -0.09256768 0.85540140
v 0.13002284 -0.08255005 0.86153454
v 0.11047064 -0.10625845 0.84931207
v 0.13002284 -0.10625845 0.84668356
v 0.13002284 -0.06997234 0.86885047
v 0.11002695 -0.05750595 0.87861967
v 0.09479339 -0.05906425 0.87949580
v 0.08887744 -0.05143972 0.88409567
v 0.07000558 -0.03173836 0.89587998
v 0.01001790 -0.00997783 0.90875959
v -0.00092660 -0.00997783 0.90875959
v -0.00092660 -0.00201938 0.91235185
v 0.09029727 -0.02839915 0.89587998
v 0.11002695 -0.02995744 0.89298868
v 0.13002284 -0.02995744 0.89036018
v 0.15001874 -0.02995744 0.88724983
v 0.16859481 -0.03068094 0.88361377
v 0.18998094 -0.00997783 0.88948405
v 0.18998094 -0.02472602 0.88238716
v 0.21033180 -0.01114656 0.88448989
v 0.22997272 0.01000179 0.88944024
v 0.24999820 0.03003706 0.89272583
v 0.27170971 0.02825615 0.88554132
v 0.24970239 0.00944525 0.88387662
v 0.28998998 0.03437804 0.88229954
v 0.30123028 0.03877467 0.88050342
v 0.30123028 0.05051756 0.88501561
v 0.16998504 -0.10291925 0.84190851
v 0.16998504 -0.10625845 0.83971810
v 0.17726165 -0.10625845 0.83822864
v 0.28998998 0.02441606 0.87813777
v 0.30123028 0.02853441 0.87603498
v 0.27951878 0.02035335 0.87984627
v 0.26620787 0.01573411 0.88190526
v 0.17436284 -0.03786024 0.87888247
v 0.16859481 -0.04821181 0.87445790
v 0.16998504 -0.06680009 0.86390013
v 0.15649669 -0.07893255 0.85938793
v 0.14993000 -0.08850497 0.85465664
v 0.15001874 -0.10625845 0.84348559
v 0.14318582 -0.08088043 0.86052692
v 0.14626211 -0.10625845 0.84409893
v 0.14927924 -0.10625845 0.84361702
v 0.14993000 -0.07136369 0.86490774
v 0.13002284 -0.05500154 0.87730539
v 0.13002284 -0.04503956 0.88264996
v 0.11002695 -0.04748832 0.88396424
v 0.15001874 -0.04208992 0.88111669
v 0.16102239 -0.04036467 0.88015294
v 0.15001874 -0.05210756 0.87572831
f 1 2 3
f 1 3 4
f 1 4 12
f 1 12 11
f 1 11 23
f 1 23 42
f 1 42 65
f 1 65 92
f 1 92 126
f 1 126 150
f 1 150 175
f 1 175 200
f 1 200 234
f 1 234 267
f 1 267 266
f 1 266 298
f 1 298 326
f 1 326 357
f 1 357 389
f 1 389 417
f 1 417 449
f 1 449 485
f 1 485 521
f 1 521 565
f 1 565 615
f 1 615 661
f 1 661 710
f 1 710 764
f 1 764 765
f 1 765 714
f 1 714 713
f 1 713 712
f 1 712 711
f 1 711 662
f 1 662 617
f 1 617 616
f 1 616 567
f 1 567 566
f 1 566 522
f 1 522 486
f 1 486 450
f 1 450 418
f 1 418 390
f 1 390 358
f 1 358 327
f 1 327 300
f 1 300 299
f 1 299 268
f 1 268 236
f 1 236 235
f 1 235 201
f 1 201 178
f 1 178 177
f 1 177 153
f 1 153 152
f 1 152 128
f 1 128 94
f 1 94 68
f 1 68 66
f 1 66 43
f 1 43 24
f 1 24 13
f 1 13 5
f 1 5 6
f 1 6 2
f 2 6 15
f 2 15 7
f 2 7 3
f 3 7 8
f 3 8 9
f 3 9 10
f 3 10 11
f 3 11 12
f 3 12 4
f 5 13 14
f 5 14 6
f 6 14 25
f 6 25 15
f 7 15 28
f 7 28 16
f 7 16 17
f 7 17 8
f 8 17 18
f 8 18 19
f 8 19 9
f 9 19 20
f 9 20 21
f 9 21 10
f 10 21 22
f 10 22 23
f 10 23 11
f 13 24 26
f 13 26 14
f 14 26 44
f 14 44 25
f 15 25 27
f 15 27 28
f 16 28 29
f 16 29 30
f 16 30 31
f 16 31 17
f 17 31 32
f 17 32 18
f 18 32 33
f 18 33 34
f 18 34 35
f 18 35 19
f 19 35 20
f 20 35 33
f 20 33 36
f 20 36 37
f 20 37 21
f 21 37 38
f 21 38 39
f 21 39 22
f 22 39 40
f 22 40 41
f 22 41 42
f 22 42 23
f 24 43 26
f 25 44 48
f 25 48 27
f 26 43 45
f 26 45 46
f 26 46 44
f 27 47 28
f 27 48 49
f 27 49 47
f 28 47 29
f 29 47 50
f 29 50 51
f 29 51 52
f 29 52 30
f 30 52 53
f 30 53 31
f 31 54 32
f 31 53 54
f 32 54 55
f 32 55 56
f 32 56 33
f 33 57 58
f 33 58 59
f 33 59 60
f 33 60 36
f 33 35 34
f 33 56 55
f 33 55 57
f 36 60 37
f 37 60 61
f 37 61 38
f 38 61 62
f 38 62 39
f 39 62 63
f 39 63 40
f 40 63 41
f 41 63 64
f 41 64 65
f 41 65 42
f 43 66 45
f 44 46 67
f 44 67 48
f 45 66 68
f 45 68 69
f 45 69 70
f 45 70 46
f 46 70 93
f 46 93 67
f 47 49 71
f 47 71 50
f 48 67 72
f 48 72 49
f 49 72 73
f 49 73 71
f 50 71 74
f 50 74 75
f 50 75 51
f 51 75 76
f 51 76 77
f 51 77 78
f 51 78 52
f 52 78 79
f 52 79 53
f 53 79 80
f 53 80 81
f 53 81 54
f 54 82 83
f 54 83 84
f 54 84 55
f 54 81 82
f 55 84 57
f 57 85 58
f 57 84 86
f 57 86 85
f 58 85 87
f 58 87 88
f 58 88 59
f 59 88 89
f 59 89 60
f 60 89 90
f 60 90 61
f 61 90 62
f 62 90 63
f 63 90 64
f 64 90 91
f 64 91 92
f 64 92 65
f 67 93 72
f 68 94 69
f 69 94 95
f 69 95 96
f 69 96 70
f 70 96 97
f 70 97 93
f 71 73 98
f 71 98 74
f 72 93 99
f 72 99 73
f 73 99 100
f 73 100 98
f 74 101 75
f 74 98 102
f 74 102 101
f 75 101 76
f 76 103 104
f 76 104 77
f 76 101 105
f 76 105 106
f 76 106 107
f 76 107 103
f 77 104 78
f 78 104 108
f 78 108 79
f 79 109 110
f 79 110 81
f 79 81 80
f 79 108 111
f 79 111 112
f 79 112 109
f 81 110 109
f 81 109 113
f 81 113 114
f 81 114 82
f 82 114 115
f 82 115 116
f 82 116 85
f 82 85 83
f 83 85 117
f 83 117 84
f 84 117 86
f 85 116 115
f 85 115 118
f 85 118 119
f 85 119 120
f 85 120 87
f 85 86 117
f 87 120 121
f 87 121 88
f 88 122 123
f 88 123 89
f 88 121 122
f 89 123 90
f 90 123 91
f 91 123 124
f 91 124 125
f 91 125 92
f 92 125 126
f 93 97 127
f 93 127 99
f 94 128 95
f 95 128 129
f 95 129 130
f 95 130 96
f 96 130 131
f 96 131 97
f 97 131 151
f 97 151 127
f 98 100 132
f 98 132 102
f 99 127 133
f 99 133 100
f 100 133 157
f 100 157 132
f 101 102 134
f 101 134 105
f 102 132 135
f 102 135 134
f 103 107 104
f 104 107 111
f 104 111 108
f 105 134 137
f 105 137 106
f 106 136 138
f 106 138 107
f 106 137 136
f 107 138 139
f 107 139 112
f 107 112 111
f 109 112 139
f 109 139 113
f 113 140 114
f 113 139 140
f 114 141 142
f 114 142 143
f 114 143 115
f 114 140 144
f 114 144 141
f 115 145 146
f 115 146 118
f 115 143 145
f 118 146 119
f 119 146 147
f 119 147 145
f 119 145 142
f 119 142 167
f 119 167 196
f 119 196 226
f 119 226 260
f 119 260 262
f 119 262 292
f 119 292 291
f 119 291 321
f 119 321 324
f 119 324 355
f 119 355 387
f 119 387 386
f 119 386 408
f 119 408 409
f 119 409 414
f 119 414 413
f 119 413 412
f 119 412 443
f 119 443 475
f 119 475 506
f 119 506 548
f 119 548 586
f 119 586 585
f 119 585 584
f 119 584 583
f 119 583 545
f 119 545 593
f 119 593 637
f 119 637 684
f 119 684 737
f 119 737 736
f 119 736 780
f 119 780 779
f 119 779 785
f 119 785 741
f 119 741 688
f 119 688 687
f 119 687 640
f 119 640 601
f 119 601 555
f 119 555 554
f 119 554 552
f 119 552 512
f 119 512 511
f 119 511 510
f 119 510 480
f 119 480 446
f 119 446 416
f 119 416 388
f 119 388 356
f 119 356 325
f 119 325 297
f 119 297 296
f 119 296 265
f 119 265 233
f 119 233 232
f 119 232 231
f 119 231 230
f 119 230 199
f 119 199 174
f 119 174 173
f 119 173 172
f 119 172 149
f 119 149 148
f 119 148 125
f 119 125 124
f 119 124 122
f 119 122 121
f 119 121 120
f 122 124 123
f 125 148 126
f 126 148 149
f 126 149 150
f 127 151 159
f 127 159 133
f 128 152 129
f 129 152 153
f 129 153 154
f 129 154 130
f 130 154 155
f 130 155 156
f 130 156 131
f 131 156 176
f 131 176 151
f 132 157 158
f 132 158 135
f 133 159 160
f 133 160 157
f 134 135 161
f 134 161 137
f 135 158 184
f 135 184 161
f 136 162 165
f 136 165 138
f 136 137 163
f 136 163 164
f 136 164 162
f 137 161 188
f 137 188 163
f 138 165 166
f 138 166 139
f 139 166 140
f 140 166 144
f 141 167 142
f 141 144 168
f 141 168 169
f 141 169 170
f 141 170 171
f 141 171 167
f 142 145 143
f 144 166 169
f 144 169 168
f 145 147 146
f 149 172 150
f 150 172 173
f 150 173 174
f 150 174 175
f 151 176 185
f 151 185 159
f 153 177 154
f 154 177 178
f 154 178 179
f 154 179 180
f 154 180 155
f 155 180 156
f 156 180 181
f 156 181 182
f 156 182 176
f 157 160 183
f 157 183 158
f 158 183 210
f 158 210 184
f 159 185 186
f 159 186 160
f 160 186 187
f 160 187 183
f 161 184 212
f 161 212 188
f 162 189 193
f 162 193 165
f 162 164 189
f 163 188 164
f 164 188 190
f 164 190 191
f 164 191 192
f 164 192 189
f 165 193 166
f 166 194 169
f 166 193 194
f 167 171 195
f 167 195 196
f 169 197 198
f 169 198 171
f 169 171 170
f 169 194 197
f 171 198 195
f 174 199 175
f 175 199 200
f 176 182 208
f 176 208 185
f 178 201 179
f 179 201 235
f 179 235 202
f 179 202 203
f 179 203 180
f 180 203 204
f 180 204 181
f 181 204 182
f 182 204 205
f 182 205 206
f 182 206 207
f 182 207 208
f 183 187 209
f 183 209 210
f 184 210 211
f 184 211 212
f 185 208 186
f 186 208 213
f 186 213 214
f 186 214 187
f 187 214 215
f 187 215 209
f 188 212 216
f 188 216 190
f 189 217 193
f 189 192 218
f 189 218 217
f 190 216 219
f 190 219 191
f 191 219 220
f 191 220 221
f 191 221 192
f 192 221 218
f 193 217 222
f 193 222 223
f 193 223 194
f 194 223 224
f 194 224 197
f 195 198 225
f 195 225 196
f 196 225 226
f 197 224 223
f 197 223 227
f 197 227 198
f 198 223 228
f 198 228 229
f 198 229 261
f 198 261 225
f 198 227 223
f 199 230 200
f 200 230 231
f 200 231 232
f 200 232 233
f 200 233 234
f 202 235 236
f 202 236 237
f 202 237 238
f 202 238 203
f 203 238 204
f 204 238 239
f 204 239 240
f 204 240 205
f 205 240 206
f 206 241 207
f 206 240 242
f 206 242 243
f 206 243 241
f 207 244 208
f 207 241 244
f 208 244 213
f 209 245 210
f 209 215 246
f 209 246 245
f 210 245 211
f 211 245 247
f 211 247 248
f 211 248 212
f 212 248 216
f 213 244 249
f 213 249 214
f 214 249 250
f 214 250 215
f 215 250 251
f 215 251 252
f 215 252 246
f 216 248 253
f 216 253 219
f 217 254 259
f 217 259 222
f 217 218 254
f 218 221 255
f 218 255 254
f 219 253 256
f 219 256 220
f 220 257 221
f 220 256 258
f 220 258 257
f 221 257 255
f 222 259 223
f 223 259 228
f 225 260 226
f 225 261 262
f 225 262 260
f 228 259 263
f 228 263 264
f 228 264 229
f 229 264 261
f 233 265 266
f 233 266 267
f 233 267 234
f 236 268 237
f 237 268 299
f 237 299 269
f 237 269 238
f 238 269 270
f 238 270 271
f 238 271 239
f 239 271 240
f 240 271 272
f 240 272 242
f 241 243 273
f 241 273 274
f 241 274 244
f 242 272 243
f 243 272 275
f 243 275 276
f 243 276 273
f 244 274 249
f 245 246 277
f 245 277 247
f 246 252 278
f 246 278 277
f 247 277 279
f 247 279 280
f 247 280 248
f 248 280 253
f 249 274 281
f 249 281 250
f 250 281 251
f 251 281 282
f 251 282 283
f 251 283 313
f 251 313 284
f 251 284 278
f 251 278 252
f 253 280 285
f 253 285 256
f 254 263 259
f 254 255 286
f 254 286 263
f 255 257 286
f 256 285 258
f 257 258 289
f 257 289 287
f 257 287 286
f 258 285 288
f 258 288 289
f 261 264 290
f 261 290 291
f 261 291 292
f 261 292 262
f 263 286 264
f 264 286 293
f 264 293 294
f 264 294 295
f 264 295 290
f 265 296 266
f 266 296 297
f 266 297 298
f 269 299 300
f 269 300 301
f 269 301 302
f 269 302 270
f 270 302 303
f 270 303 271
f 271 303 272
f 272 303 304
f 272 304 305
f 272 305 275
f 273 276 282
f 273 282 274
f 274 282 281
f 275 305 306
f 275 306 276
f 276 306 307
f 276 307 308
f 276 308 282
f 277 278 279
f 278 284 315
f 278 315 309
f 278 309 279
f 279 309 310
f 279 310 285
f 279 285 280
f 282 308 311
f 282 311 283
f 283 311 312
f 283 312 313
f 284 313 314
f 284 314 315
f 285 310 319
f 285 319 288
f 286 287 316
f 286 316 293
f 287 289 317
f 287 317 316
f 288 318 289
f 288 319 318
f 289 318 320
f 289 320 317
f 290 295 291
f 291 295 321
f 293 316 322
f 293 322 294
f 294 323 295
f 294 322 354
f 294 354 323
f 295 323 324
f 295 324 321
f 297 325 298
f 298 325 326
f 300 327 301
f 301 327 358
f 301 358 328
f 301 328 302
f 302 328 329
f 302 329 330
f 302 330 303
f 303 330 304
f 304 330 331
f 304 331 332
f 304 332 333
f 304 333 334
f 304 334 305
f 305 334 335
f 305 335 306
f 306 335 307
f 307 335 336
f 307 336 337
f 307 337 338
f 307 338 339
f 307 339 308
f 308 339 338
f 308 338 311
f 309 340 310
f 309 315 340
f 310 340 341
f 310 341 319
f 311 338 342
f 311 342 343
f 311 343 312
f 312 344 313
f 312 343 344
f 313 344 314
f 314 345 315
f 314 344 346
f 314 346 345
f 315 345 347
f 315 347 340
f 316 317 348
f 316 348 322
f 317 320 349
f 317 349 348
f 318 350 320
f 318 319 351
f 318 351 350
f 319 341 352
f 319 352 351
f 320 350 353
f 320 353 349
f 322 348 354
f 323 354 355
f 323 355 324
f 325 356 326
f 326 356 357
f 328 358 390
f 328 390 359
f 328 359 360
f 328 360 329
f 329 360 331
f 329 331 330
f 331 360 361
f 331 361 362
f 331 362 332
f 332 362 333
f 333 362 363
f 333 363 364
f 333 364 365
f 333 365 334
f 334 365 336
f 334 336 335
f 336 365 366
f 336 366 367
f 336 367 337
f 337 368 338
f 337 367 368
f 338 368 369
f 338 369 342
f 340 347 370
f 340 370 341
f 341 370 371
f 341 371 352
f 342 369 343
f 343 369 368
f 343 368 372
f 343 372 373
f 343 373 374
f 343 374 375
f 343 375 344
f 344 375 376
f 344 376 346
f 345 346 377
f 345 377 378
f 345 378 347
f 346 376 379
f 346 379 377
f 347 378 370
f 348 349 380
f 348 380 354
f 349 353 381
f 349 381 380
f 350 351 382
f 350 382 383
f 350 383 353
f 351 352 382
f 352 371 384
f 352 384 382
f 353 383 385
f 353 385 381
f 354 380 386
f 354 386 387
f 354 387 355
f 356 388 415
f 356 415 444
f 356 444 476
f 356 476 507
f 356 507 549
f 356 549 595
f 356 595 599
f 356 599 598
f 356 598 597
f 356 597 639
f 356 639 686
f 356 686 740
f 356 740 739
f 356 739 783
f 356 783 782
f 356 782 793
f 356 793 796
f 356 796 795
f 356 795 757
f 356 757 756
f 356 756 700
f 356 700 653
f 356 653 650
f 356 650 609
f 356 609 560
f 356 560 517
f 356 517 481
f 356 481 447
f 356 447 417
f 356 417 389
f 356 389 357
f 359 390 418
f 359 418 391
f 359 391 360
f 360 391 392
f 360 392 361
f 361 392 393
f 361 393 394
f 361 394 362
f 362 394 363
f 363 394 395
f 363 395 364
f 364 366 365
f 364 395 396
f 364 396 397
f 364 397 366
f 366 397 399
f 366 399 367
f 367 398 368
f 367 399 398
f 368 398 372
f 370 378 400
f 370 400 371
f 371 400 401
f 371 401 384
f 372 402 374
f 372 374 373
f 372 398 403
f 372 403 402
f 374 404 379
f 374 379 376
f 374 376 375
f 374 402 405
f 374 405 404
f 377 379 406
f 377 406 378
f 378 406 400
f 379 407 406
f 379 404 407
f 380 381 408
f 380 408 386
f 381 409 408
f 381 385 409
f 382 384 410
f 382 410 383
f 383 410 385
f 384 401 410
f 385 410 411
f 385 411 412
f 385 412 413
f 385 413 414
f 385 414 409
f 388 416 415
f 391 418 450
f 391 450 419
f 391 419 393
f 391 393 392
f 393 419 420
f 393 420 421
f 393 421 394
f 394 421 395
f 395 421 453
f 395 453 422
f 395 422 396
f 396 422 423
f 396 423 397
f 397 423 424
f 397 424 425
f 397 425 426
f 397 426 399
f 398 399 427
f 398 427 428
f 398 428 403
f 399 426 429
f 399 429 427
f 400 406 401
f 401 406 430
f 401 430 431
f 401 431 410
f 402 403 432
f 402 432 433
f 402 433 405
f 403 428 434
f 403 434 432
f 404 405 435
f 404 435 436
f 404 436 407
f 405 433 437
f 405 437 435
f 406 407 430
f 407 436 438
f 407 438 439
f 407 439 440
f 407 440 430
f 410 431 411
f 411 431 441
f 411 441 442
f 411 442 412
f 412 442 443
f 415 416 445
f 415 445 444
f 416 446 445
f 417 447 483
f 417 483 448
f 417 448 449
f 419 450 486
f 419 486 451
f 419 451 420
f 420 451 487
f 420 487 452
f 420 452 421
f 421 452 453
f 422 453 454
f 422 454 455
f 422 455 423
f 423 455 424
f 424 455 456
f 424 456 457
f 424 457 458
f 424 458 425
f 425 458 459
f 425 459 426
f 426 459 429
f 427 429 460
f 427 460 428
f 428 460 461
f 428 461 434
f 429 459 462
f 429 462 460
f 430 440 463
f 430 463 464
f 430 464 431
f 431 464 465
f 431 465 441
f 432 434 466
f 432 466 433
f 433 466 467
f 433 467 437
f 434 461 468
f 434 468 466
f 435 437 469
f 435 469 438
f 435 438 436
f 437 467 470
f 437 470 469
f 438 469 471
f 438 471 472
f 438 472 439
f 439 472 473
f 439 473 440
f 440 473 463
f 441 465 442
f 442 465 474
f 442 474 475
f 442 475 443
f 444 445 477
f 444 477 476
f 445 446 478
f 445 478 479
f 445 479 477
f 446 480 478
f 447 481 482
f 447 482 483
f 448 483 449
f 449 483 484
f 449 484 485
f 451 486 522
f 451 522 487
f 452 487 488
f 452 488 453
f 453 488 489
f 453 489 454
f 454 489 490
f 454 490 491
f 454 491 455
f 455 491 456
f 456 491 492
f 456 492 493
f 456 493 457
f 457 494 458
f 457 493 531
f 457 531 494
f 458 494 459
f 459 494 495
f 459 495 462
f 460 462 496
f 460 496 461
f 461 496 497
f 461 497 468
f 462 495 496
f 463 498 464
f 463 473 499
f 463 499 498
f 464 498 465
f 465 498 500
f 465 500 474
f 466 468 501
f 466 501 467
f 467 501 470
f 468 497 501
f 469 470 471
f 470 502 471
f 470 501 503
f 470 503 502
f 471 502 504
f 471 504 505
f 471 505 473
f 471 473 472
f 473 505 499
f 474 500 506
f 474 506 475
f 476 477 508
f 476 508 507
f 477 479 509
f 477 509 508
f 478 480 510
f 478 510 511
f 478 511 512
f 478 512 513
f 478 513 514
f 478 514 515
f 478 515 479
f 479 515 516
f 479 516 509
f 481 517 518
f 481 518 482
f 482 518 519
f 482 519 484
f 482 484 483
f 484 519 520
f 484 520 485
f 485 520 521
f 487 522 566
f 487 566 523
f 487 523 488
f 488 523 524
f 488 524 525
f 488 525 490
f 488 490 489
f 490 525 526
f 490 526 491
f 491 526 527
f 491 527 492
f 492 527 528
f 492 528 493
f 493 528 529
f 493 529 530
f 493 530 531
f 494 531 495
f 495 532 496
f 495 531 533
f 495 533 534
f 495 534 532
f 496 532 497
f 497 535 501
f 497 532 536
f 497 536 537
f 497 537 535
f 498 499 538
f 498 538 500
f 499 505 538
f 500 538 506
f 501 535 539
f 501 539 503
f 502 503 540
f 502 540 541
f 502 541 542
f 502 542 504
f 503 539 543
f 503 543 540
f 504 544 545
f 504 545 546
f 504 546 505
f 504 542 547
f 504 547 544
f 505 546 538
f 506 538 548
f 507 508 549
f 508 509 516
f 508 516 550
f 508 550 551
f 508 551 549
f 512 552 513
f 513 553 514
f 513 552 554
f 513 554 555
f 513 555 556
f 513 556 553
f 514 553 515
f 515 553 557
f 515 557 516
f 516 557 558
f 516 558 559
f 516 559 550
f 517 560 561
f 517 561 518
f 518 561 519
f 519 561 562
f 519 562 563
f 519 563 520
f 520 563 564
f 520 564 521
f 521 564 565
f 523 566 567
f 523 567 524
f 524 567 616
f 524 616 568
f 524 568 569
f 524 569 525
f 525 569 526
f 526 569 619
f 526 619 570
f 526 570 527
f 527 570 571
f 527 571 528
f 528 571 572
f 528 572 573
f 528 573 574
f 528 574 529
f 529 574 530
f 530 574 575
f 530 575 576
f 530 576 531
f 531 576 533
f 532 534 577
f 532 577 536
f 533 576 578
f 533 578 534
f 534 578 579
f 534 579 577
f 535 537 580
f 535 580 539
f 536 577 581
f 536 581 537
f 537 581 582
f 537 582 580
f 538 546 583
f 538 583 584
f 538 584 585
f 538 585 586
f 538 586 548
f 539 580 587
f 539 587 543
f 540 543 588
f 540 588 541
f 541 588 589
f 541 589 590
f 541 590 542
f 542 590 547
f 543 587 591
f 543 591 588
f 544 547 592
f 544 592 545
f 545 583 546
f 545 592 593
f 547 590 594
f 547 594 592
f 549 551 595
f 550 559 551
f 551 559 596
f 551 596 597
f 551 597 598
f 551 598 599
f 551 599 595
f 553 556 600
f 553 600 557
f 555 601 602
f 555 602 556
f 556 602 603
f 556 603 604
f 556 604 600
f 557 600 604
f 557 604 605
f 557 605 558
f 558 605 606
f 558 606 559
f 559 606 607
f 559 607 608
f 559 608 596
f 560 609 561
f 561 609 610
f 561 610 611
f 561 611 562
f 562 611 612
f 562 612 563
f 563 612 656
f 563 656 613
f 563 613 564
f 564 613 614
f 564 614 615
f 564 615 565
f 568 616 617
f 568 617 618
f 568 618 619
f 568 619 569
f 570 619 620
f 570 620 621
f 570 621 622
f 570 622 571
f 571 622 572
f 572 622 623
f 572 623 624
f 572 624 573
f 573 624 574
f 574 624 625
f 574 625 626
f 574 626 575
f 575 627 576
f 575 626 628
f 575 628 627
f 576 627 578
f 577 579 629
f 577 629 581
f 578 627 630
f 578 630 579
f 579 630 631
f 579 631 629
f 580 582 632
f 580 632 587
f 581 629 633
f 581 633 582
f 582 633 632
f 587 632 634
f 587 634 591
f 588 591 635
f 588 635 589
f 589 636 590
f 589 635 636
f 590 636 594
f 591 634 635
f 592 594 593
f 593 594 636
f 593 636 637
f 596 608 649
f 596 649 638
f 596 638 597
f 597 638 639
f 601 640 641
f 601 641 602
f 602 641 642
f 602 642 603
f 603 642 643
f 603 643 604
f 604 643 644
f 604 644 645
f 604 645 605
f 605 645 606
f 606 646 607
f 606 645 647
f 606 647 646
f 607 648 608
f 607 646 648
f 608 648 649
f 609 650 610
f 610 651 652
f 610 652 611
f 610 650 653
f 610 653 651
f 611 652 654
f 611 654 612
f 612 654 655
f 612 655 656
f 613 656 657
f 613 657 658
f 613 658 614
f 614 658 659
f 614 659 660
f 614 660 661
f 614 661 615
f 617 662 618
f 618 662 663
f 618 663 620
f 618 620 619
f 620 663 664
f 620 664 665
f 620 665 621
f 621 665 622
f 622 665 623
f 623 665 666
f 623 666 624
f 624 666 667
f 624 667 668
f 624 668 625
f 625 668 669
f 625 669 626
f 626 669 670
f 626 670 628
f 627 628 630
f 628 670 671
f 628 671 672
f 628 672 630
f 629 631 633
f 630 672 673
f 630 673 631
f 631 674 633
f 631 673 675
f 631 675 674
f 632 633 676
f 632 676 677
f 632 677 634
f 633 674 678
f 633 678 676
f 634 679 635
f 634 677 680
f 634 680 679
f 635 679 681
f 635 681 682
f 635 682 683
f 635 683 636
f 636 683 684
f 636 684 637
f 638 649 685
f 638 685 639
f 639 685 686
f 640 687 641
f 641 687 688
f 641 688 689
f 641 689 642
f 642 689 690
f 642 690 643
f 643 690 691
f 643 691 644
f 644 692 645
f 644 691 693
f 644 693 692
f 645 692 647
f 646 647 694
f 646 694 695
f 646 695 648
f 647 692 696
f 647 696 694
f 648 695 697
f 648 697 649
f 649 698 685
f 649 697 698
f 651 699 701
f 651 701 652
f 651 653 700
f 651 700 699
f 652 701 702
f 652 702 703
f 652 703 654
f 654 703 704
f 654 704 655
f 655 704 705
f 655 705 657
f 655 657 656
f 657 705 706
f 657 706 659
f 657 659 658
f 659 706 707
f 659 707 708
f 659 708 709
f 659 709 660
f 660 709 710
f 660 710 661
f 662 711 663
f 663 711 712
f 663 712 713
f 663 713 714
f 663 714 715
f 663 715 664
f 664 715 716
f 664 716 665
f 665 716 717
f 665 717 666
f 666 717 707
f 666 707 718
f 666 718 719
f 666 719 667
f 667 719 720
f 667 720 668
f 668 720 721
f 668 721 669
f 669 721 722
f 669 722 723
f 669 723 670
f 670 723 671
f 671 723 724
f 671 724 725
f 671 725 672
f 672 725 673
f 673 725 726
f 673 726 675
f 674 675 727
f 674 727 678
f 675 726 728
f 675 728 727
f 676 678 729
f 676 729 677
f 677 729 730
f 677 730 680
f 678 727 731
f 678 731 729
f 679 680 732
f 679 732 681
f 680 730 733
f 680 733 734
f 680 734 732
f 681 732 735
f 681 735 682
f 682 735 736
f 682 736 737
f 682 737 684
f 682 684 683
f 685 738 739
f 685 739 740
f 685 740 686
f 685 698 738
f 688 741 742
f 688 742 689
f 689 742 690
f 690 742 743
f 690 743 744
f 690 744 691
f 691 744 745
f 691 745 693
f 692 693 746
f 692 746 696
f 693 745 747
f 693 747 746
f 694 748 695
f 694 696 749
f 694 749 748
f 695 748 750
f 695 750 697
f 696 746 751
f 696 751 749
f 697 750 752
f 697 752 698
f 698 752 753
f 698 753 738
f 699 754 755
f 699 755 701
f 699 700 756
f 699 756 757
f 699 757 754
f 701 755 702
f 702 758 759
f 702 759 760
f 702 760 703
f 702 755 758
f 703 760 704
f 704 760 761
f 704 761 705
f 705 761 762
f 705 762 706
f 706 762 718
f 706 718 707
f 707 717 716
f 707 716 708
f 708 716 709
f 709 716 763
f 709 763 764
f 709 764 710
f 714 765 715
f 715 765 763
f 715 763 716
f 718 762 719
f 719 762 766
f 719 766 720
f 720 766 767
f 720 767 721
f 721 767 768
f 721 768 722
f 722 768 769
f 722 769 723
f 723 769 770
f 723 770 724
f 724 771 725
f 724 770 772
f 724 772 771
f 725 771 726
f 726 771 773
f 726 773 728
f 727 728 774
f 727 774 731
f 728 747 774
f 728 773 747
f 729 731 775
f 729 775 730
f 730 775 776
f 730 776 733
f 731 774 777
f 731 777 775
f 732 734 735
f 733 776 778
f 733 778 734
f 734 778 779
f 734 779 780
f 734 780 736
f 734 736 735
f 738 781 782
f 738 782 783
f 738 783 739
f 738 753 781
f 741 784 742
f 741 785 784
f 742 784 786
f 742 786 743
f 743 786 787
f 743 787 744
f 744 787 777
f 744 777 745
f 745 777 774
f 745 774 747
f 746 747 773
f 746 773 751
f 748 749 788
f 748 788 789
f 748 789 750
f 749 751 772
f 749 772 788
f 750 789 790
f 750 790 752
f 751 773 771
f 751 771 772
f 752 790 791
f 752 791 753
f 753 792 793
f 753 793 781
f 753 791 792
f 754 792 794
f 754 794 755
f 754 757 795
f 754 795 796
f 754 796 792
f 755 794 758
f 758 794 797
f 758 797 798
f 758 798 759
f 759 798 799
f 759 799 800
f 759 800 760
f 760 800 761
f 761 800 766
f 761 766 762
f 763 765 764
f 766 800 767
f 767 800 799
f 767 799 768
f 768 799 801
f 768 801 769
f 769 801 802
f 769 802 770
f 770 802 788
f 770 788 772
f 775 777 787
f 775 787 776
f 776 787 786
f 776 786 778
f 778 786 779
f 779 786 784
f 779 784 785
f 781 793 782
f 788 802 789
f 789 802 803
f 789 803 790
f 790 803 797
f 790 797 791
f 791 797 794
f 791 794 792
f 792 796 793
f 797 803 798
f 798 803 801
f 798 801 799
f 801 803 802
