v -0.41001412 -0.46286881 0.09003273
v -0.42698014 -0.46184948 0.05005674
v -0.42808041 -0.46181434 0.03004542
v -0.42854252 -0.46181434 0.01003410
v -0.42843249 -0.46177918 0.00103134
v -0.41001412 -0.46272820 0.07002141
v -0.31849444 -0.46237671 0.28146967
v -0.33002517 -0.46244702 0.26994801
v -0.37003064 -0.46255249 0.21000734
v -0.39001140 -0.46262276 0.16998470
v -0.41001412 -0.46269307 0.11004405
v -0.43809280 -0.45938903 0.03004542
v -0.43853289 -0.45956478 0.01003410
v -0.42552781 -0.46177918 0.07002141
v -0.43395582 -0.46054894 0.00103134
v -0.41826609 -0.46195492 0.00103134
v -0.41001412 -0.46209553 0.00103134
v -0.30421305 -0.46167374 0.30637887
v -0.34509873 -0.46107620 0.26994801
v -0.35159028 -0.46184948 0.25147602
v -0.30883414 -0.46118164 0.30880448
v -0.32881486 -0.46111134 0.28855991
v -0.36994264 -0.46149799 0.22917902
v -0.39034146 -0.46160343 0.18938962
v -0.40633926 -0.46167374 0.15002003
v -0.42231506 -0.46107620 0.11004405
v -0.42394343 -0.46156830 0.09003273
v -0.43699253 -0.45879149 0.05005674
v -0.44715893 -0.44880909 0.05005674
v -0.44790712 -0.44937146 0.03004542
v -0.44823718 -0.44954723 0.01003410
v -0.44821519 -0.44954723 0.00103134
v -0.44286790 -0.45503050 0.00103134
v -0.43844488 -0.45952964 0.00103134
v -0.39898953 -0.46026775 0.00103134
v -0.31849444 -0.46149799 0.25987238
v -0.31849444 -0.46086532 0.25334188
v -0.31849444 -0.43555778 0.00103134
v -0.30421305 -0.22543505 0.30637887
v -0.30421305 -0.46114647 0.31332919
v -0.36323103 -0.46100590 0.24583180
v -0.34085172 -0.46030289 0.28100321
v -0.30421305 -0.46068954 0.31650114
v -0.32135510 -0.46044350 0.30138770
v -0.38365188 -0.46111134 0.21000734
v -0.40281841 -0.46107620 0.16998470
v -0.42097273 -0.46051380 0.12455108
v -0.43551818 -0.45773703 0.07002141
v -0.44594866 -0.44771945 0.07002141
v -0.52899635 -0.35271078 0.15002003
v -0.52899635 -0.35460886 0.13136145
v -0.52899635 -0.35583907 0.11755412
v -0.52899635 -0.35647178 0.11013733
v -0.52899635 -0.35671782 0.10677879
v -0.52899635 -0.35791290 0.09003273
v -0.52899635 -0.35907280 0.07002141
v -0.52899635 -0.35949463 0.06031895
v -0.52899635 -0.35991639 0.05005674
v -0.52899635 -0.36044365 0.03004542
v -0.52899635 -0.36061940 0.01003410
v -0.52899635 -0.36058426 0.00103134
v -0.38897714 -0.45731521 0.00103134
v -0.37003064 -0.45148042 0.00103134
v -0.31849444 -0.24694644 0.00103134
v -0.30421305 -0.16522422 0.47747797
v -0.35933611 -0.45977569 0.25917268
v -0.38096726 -0.46040836 0.22190218
v -0.33469027 -0.45720977 0.29429746
v -0.50265610 -0.27917838 0.47747797
v -0.51885194 -0.27945957 0.45867944
v -0.52901834 -0.27675307 0.45224226
v -0.30421305 -0.45692855 0.32415116
v -0.31473154 -0.45742065 0.31472859
v -0.31886852 -0.45931873 0.30637887
v -0.40088198 -0.46040836 0.18229936
v -0.43232742 -0.45351911 0.11004405
v -0.43395582 -0.45601469 0.09003273
v -0.41888222 -0.45963508 0.13789196
v -0.44434226 -0.44603229 0.09003273
v -0.52899635 -0.34311503 0.22003633
v -0.52899635 -0.34462643 0.21056710
v -0.52899635 -0.34771958 0.18994938
v -0.52899635 -0.35025033 0.17082435
v -0.52901834 -0.32589185 0.30637887
v -0.52899635 -0.18589205 0.00103134
v -0.42286518 -0.10378319 0.47747797
v -0.30421305 -0.34733295 0.47747797
v -0.37656620 -0.45844001 0.23524307
v -0.52901834 -0.27791300 0.44967669
v -0.52901834 -0.28462651 0.43419009
v -0.52901834 -0.28620824 0.43027180
v -0.52901834 -0.29460895 0.40937418
v -0.39722911 -0.45886177 0.19564024
v -0.52901834 -0.30174425 0.38996929
v -0.50049961 -0.28030315 0.47747797
v -0.51130414 -0.27436292 0.47747797
v -0.51130414 -0.27728030 0.47169381
v -0.52901834 -0.26554042 0.47537887
v -0.52901834 -0.26778999 0.47080755
v -0.30421305 -0.45288640 0.33119476
v -0.46071416 -0.29903775 0.47747797
v -0.47134268 -0.29415199 0.47747797
v -0.49752888 -0.28177944 0.47747797
v -0.41635165 -0.45822909 0.15002003
v -0.52901834 -0.30694637 0.37438935
v -0.52901834 -0.31411681 0.35139269
v -0.52901834 -0.31492525 0.34878045
v -0.52899635 -0.33397621 0.26994801
v -0.52899635 -0.33749112 0.25208241
v -0.52899635 -0.34146300 0.23001866
v -0.52901834 -0.32009220 0.32998195
v -0.52901834 -0.32343140 0.31668773
v -0.52901834 -0.32497796 0.31034380
v -0.52899635 -0.32944193 0.29093891
v -0.52901834 -0.12937191 0.30637887
v -0.52901834 -0.10378319 0.35549754
v -0.52901834 -0.10378319 0.47747797
v -0.30936226 -0.34620816 0.47747797
v -0.52901834 -0.29481983 0.40881443
v -0.52901834 -0.30466163 0.38143295
v -0.52813816 -0.26497805 0.47747797
v -0.52901834 -0.26445082 0.47747797
v -0.32679039 -0.34209570 0.47747797
v -0.33836514 -0.33917829 0.47747797
v -0.35112816 -0.33569852 0.47747797
v -0.36248285 -0.33249992 0.47747797
v -0.37049276 -0.33021522 0.47747797
v -0.38349783 -0.32638395 0.47747797
v -0.39003339 -0.32441556 0.47747797
v -0.40240031 -0.32054913 0.47747797
v -0.41265476 -0.31710452 0.47747797
v -0.42959878 -0.31105882 0.47747797
v -0.44854528 -0.30399382 0.47747797
v -0.45747939 -0.30040857 0.47747797
v -0.45926180 -0.29967043 0.47747797
f 1 2 3
f 1 3 4
f 1 4 5
f 1 5 6
f 1 6 7
f 1 7 8
f 1 8 9
f 1 9 10
f 1 10 11
f 1 11 2
f 2 12 13
f 2 13 3
f 2 11 14
f 2 14 12
f 3 13 4
f 4 13 15
f 4 15 5
f 5 15 34
f 5 34 33
f 5 33 32
f 5 32 61
f 5 61 85
f 5 85 64
f 5 64 38
f 5 38 63
f 5 63 62
f 5 62 35
f 5 35 17
f 5 17 16
f 5 16 6
f 6 16 17
f 6 17 7
f 7 18 8
f 7 17 18
f 8 19 20
f 8 20 9
f 8 18 21
f 8 21 22
f 8 22 19
f 9 20 23
f 9 23 24
f 9 24 10
f 10 24 25
f 10 25 11
f 11 25 26
f 11 26 27
f 11 27 14
f 12 14 27
f 12 27 28
f 12 28 29
f 12 29 30
f 12 30 13
f 13 30 31
f 13 31 32
f 13 32 33
f 13 33 34
f 13 34 15
f 17 35 36
f 17 36 18
f 18 36 37
f 18 37 38
f 18 38 64
f 18 64 39
f 18 39 65
f 18 65 87
f 18 87 100
f 18 100 72
f 18 72 43
f 18 43 40
f 18 40 21
f 19 41 20
f 19 22 42
f 19 42 41
f 20 41 23
f 21 40 43
f 21 43 44
f 21 44 22
f 22 44 42
f 23 45 24
f 23 41 45
f 24 45 46
f 24 46 25
f 25 46 47
f 25 47 26
f 26 47 28
f 26 28 27
f 28 47 48
f 28 48 49
f 28 49 29
f 29 49 50
f 29 50 51
f 29 51 52
f 29 52 53
f 29 53 54
f 29 54 55
f 29 55 30
f 30 56 57
f 30 57 58
f 30 58 31
f 30 55 56
f 31 58 59
f 31 59 60
f 31 60 32
f 32 60 61
f 35 62 36
f 36 62 37
f 37 62 63
f 37 63 38
f 39 64 65
f 41 42 66
f 41 66 67
f 41 67 45
f 42 44 68
f 42 68 69
f 42 69 70
f 42 70 71
f 42 71 66
f 43 72 73
f 43 73 74
f 43 74 44
f 44 74 68
f 45 67 75
f 45 75 46
f 46 75 47
f 47 76 77
f 47 77 48
f 47 75 78
f 47 78 76
f 48 77 49
f 49 77 79
f 49 79 80
f 49 80 81
f 49 81 82
f 49 82 83
f 49 83 50
f 50 83 84
f 50 84 51
f 51 84 52
f 52 84 53
f 53 84 54
f 54 84 55
f 55 84 56
f 56 84 57
f 57 84 58
f 58 84 59
f 59 84 60
f 60 84 61
f 61 84 115
f 61 115 85
f 64 85 86
f 64 86 65
f 65 86 117
f 65 117 122
f 65 122 121
f 65 121 96
f 65 96 69
f 65 69 95
f 65 95 103
f 65 103 102
f 65 102 101
f 65 101 135
f 65 135 134
f 65 134 133
f 65 133 132
f 65 132 131
f 65 131 130
f 65 130 129
f 65 129 128
f 65 128 127
f 65 127 126
f 65 126 125
f 65 125 124
f 65 124 123
f 65 123 118
f 65 118 87
f 66 88 67
f 66 71 89
f 66 89 90
f 66 90 91
f 66 91 92
f 66 92 88
f 67 93 75
f 67 88 94
f 67 94 93
f 68 74 73
f 68 73 95
f 68 95 69
f 69 96 97
f 69 97 70
f 70 97 98
f 70 98 99
f 70 99 71
f 71 99 98
f 71 98 122
f 71 122 117
f 71 117 116
f 71 116 115
f 71 115 84
f 71 84 113
f 71 113 112
f 71 112 111
f 71 111 107
f 71 107 106
f 71 106 105
f 71 105 120
f 71 120 94
f 71 94 119
f 71 119 92
f 71 92 91
f 71 91 90
f 71 90 89
f 72 100 101
f 72 101 73
f 73 101 102
f 73 102 103
f 73 103 95
f 75 104 78
f 75 93 105
f 75 105 106
f 75 106 107
f 75 107 104
f 76 78 108
f 76 108 77
f 77 108 109
f 77 109 110
f 77 110 79
f 78 104 107
f 78 107 111
f 78 111 112
f 78 112 113
f 78 113 84
f 78 84 114
f 78 114 108
f 79 110 80
f 80 110 84
f 80 84 81
f 81 84 82
f 82 84 83
f 84 110 109
f 84 109 108
f 84 108 114
f 85 115 116
f 85 116 86
f 86 116 117
f 87 118 100
f 88 92 119
f 88 119 94
f 93 94 120
f 93 120 105
f 96 121 97
f 97 121 98
f 98 121 122
f 100 118 123
f 100 123 124
f 100 124 125
f 100 125 126
f 100 126 127
f 100 127 128
f 100 128 129
f 100 129 130
f 100 130 131
f 100 131 132
f 100 132 133
f 100 133 134
f 100 134 135
f 100 135 101
