v 0.52812648 0.07474302 0.53863204
v 0.52812648 0.36895141 0.69603205
v 0.52812648 0.07474302 0.78069013
v 0.30123031 0.07474302 0.69640577
v 0.30123031 0.36842042 0.82200193
v 0.30123031 0.37926784 0.82669359
v 0.30123031 0.38920501 0.83113617
v 0.30123031 0.39792848 0.83545423
v 0.30123031 0.40316257 0.83815295
v 0.52812648 0.39045665 0.70769900
v 0.52812648 0.08395953 0.78442687
v 0.52792656 0.07474302 0.78085619
v 0.30123031 0.07474302 0.89403808
v 0.30123031 0.40733466 0.84060264
v 0.52812648 0.39239097 0.70877850
v 0.52812648 0.08851092 0.78625369
v 0.51411062 0.09002805 0.79617685
v 0.50493705 0.07474302 0.79601079
v 0.30325159 0.07474302 0.89337373
v 0.30123031 0.08566631 0.89802396
v 0.30123031 0.41291010 0.84396565
v 0.52812648 0.40600717 0.71737301
v 0.52812648 0.09048317 0.78704256
v 0.51808661 0.10334080 0.79875106
v 0.50411522 0.09002805 0.80257082
v 0.50071681 0.07887718 0.80045336
v 0.49933964 0.07474302 0.79958147
v 0.30998185 0.07474302 0.89109021
v 0.30320716 0.09666546 0.90109634
v 0.30123031 0.09272094 0.90043205
v 0.30993742 0.08999011 0.89644623
v 0.30123031 0.41969922 0.84853280
v 0.52812648 0.40832078 0.71890926
v 0.52812648 0.10940930 0.79430848
v 0.52184045 0.11665358 0.80120069
v 0.51084548 0.11001615 0.80576783
v 0.49374220 0.11001615 0.81627226
v 0.48827803 0.09154516 0.81274307
v 0.49474174 0.07474302 0.80240476
v 0.47621688 0.08593181 0.81776690
v 0.31475744 0.07474302 0.88938791
v 0.30993742 0.11035751 0.90313083
v 0.30123031 0.11020580 0.90599567
v 0.30123031 0.09567933 0.90142852
v 0.31653440 0.10394765 0.89872974
v 0.33001712 0.09002805 0.88918030
v 0.30123031 0.42773998 0.85496831
v 0.52812648 0.41165847 0.72131735
v 0.52812648 0.11088851 0.79484820
v 0.52812648 0.12287378 0.79920775
v 0.52812648 0.13000427 0.80169892
v 0.52539438 0.13000427 0.80348426
v 0.50891304 0.13030770 0.81403017
v 0.49782920 0.12385993 0.81872189
v 0.48374677 0.11001615 0.82216799
v 0.48048159 0.09924458 0.82025808
v 0.47181889 0.07474302 0.81602311
v 0.46973094 0.09154516 0.82366270
v 0.46288964 0.07569121 0.82166976
v 0.32939517 0.07474302 0.88407338
v 0.34183395 0.07804276 0.88071036
v 0.32237619 0.11726043 0.90084726
v 0.31000406 0.13000427 0.90906811
v 0.30123031 0.12124288 0.90935874
v 0.32943961 0.11035751 0.89607251
v 0.34909728 0.09146930 0.88237113
v 0.30123031 0.43251893 0.85928631
v 0.52812648 0.42648834 0.73373169
v 0.52812648 0.41825795 0.72679794
v 0.52812648 0.13929667 0.80477136
v 0.52812648 0.14695814 0.80730402
v 0.51486588 0.15003031 0.81681198
v 0.50151640 0.13717268 0.82092243
v 0.49069914 0.13030770 0.82499129
v 0.45951343 0.12082566 0.83973068
v 0.46999750 0.11001615 0.83005667
v 0.46391141 0.07474302 0.82067329
v 0.45615938 0.11001615 0.83790386
v 0.44920701 0.09017976 0.83470684
v 0.46109048 0.07474302 0.82229257
v 0.46255645 0.07474302 0.82146215
v 0.45053974 0.07474302 0.82814682
v 0.33612543 0.07474302 0.88162374
v 0.34025687 0.07474302 0.88008755
v 0.34512132 0.07474302 0.87817764
v 0.35069656 0.07474302 0.87589407
v 0.35516116 0.08581802 0.87801158
v 0.32943961 0.13118005 0.90246654
v 0.33572561 0.12526326 0.89839762
v 0.33001712 0.15003031 0.90773946
v 0.30869356 0.15116817 0.91566968
v 0.30123031 0.14790635 0.91724741
v 0.30123031 0.13034563 0.91209900
v 0.35000798 0.11001615 0.88805926
v 0.36071420 0.09913079 0.88029516
v 0.30123031 0.43680480 0.86318916
v 0.52812648 0.42857438 0.73584914
v 0.52812648 0.14968896 0.80817598
v 0.51828653 0.16349480 0.81892949
v 0.50484824 0.15003031 0.82295686
v 0.49307582 0.17001843 0.83603549
v 0.48816696 0.15166122 0.83321214
v 0.47663891 0.14612372 0.83811146
v 0.46997529 0.12848715 0.83628458
v 0.46331167 0.13413844 0.84184819
v 0.45171699 0.12848715 0.84629077
v 0.44616395 0.11001615 0.84325987
v 0.44203252 0.09696889 0.84105933
v 0.43747905 0.08361819 0.83869272
v 0.43332541 0.07474302 0.83744711
v 0.37039864 0.07474302 0.86754870
v 0.36842176 0.09146930 0.87435788
v 0.34110093 0.13857603 0.90039051
v 0.34867525 0.13118005 0.89515913
v 0.33001712 0.17001843 0.91326153
v 0.34525460 0.15003031 0.90205133
v 0.31551266 0.17001843 0.91840994
v 0.30123031 0.15852621 0.92031986
v 0.36480120 0.11001615 0.88203895
v 0.37479663 0.11001615 0.87772095
v 0.30123031 0.43942183 0.86609554
v 0.52812648 0.43369469 0.74120516
v 0.52812648 0.17081493 0.81486058
v 0.52150726 0.17684549 0.82096392
v 0.51095653 0.17009428 0.82540649
v 0.49711841 0.18579653 0.83836055
v 0.48305818 0.17001843 0.84168208
v 0.48030388 0.15943649 0.84014589
v 0.46997529 0.15166122 0.84350896
v 0.44876277 0.15067509 0.85463619
v 0.43743461 0.14441696 0.85870504
v 0.43046004 0.12806994 0.85716885
v 0.42999360 0.11001615 0.85160524
v 0.43048227 0.09017976 0.84458846
v 0.42426288 0.07474302 0.84213883
v 0.38308173 0.07474302 0.86202663
v 0.39001188 0.11001615 0.87099481
v 0.39041170 0.09014182 0.86418563
v 0.35525003 0.15003031 0.89810699
v 0.37142038 0.12886643 0.88506985
v 0.35156283 0.16869095 0.90475011
v 0.35000798 0.19000655 0.91097796
v 0.33770251 0.20343310 0.91915733
v 0.33061683 0.18837565 0.91782868
v 0.32437527 0.19395107 0.92156541
v 0.31955525 0.18063831 0.91982162
v 0.35924819 0.16114326 0.89968473
v 0.30551723 0.17001843 0.92189759
v 0.30123031 0.17001843 0.92326772
v 0.37903914 0.12139459 0.87954783
v 0.30123031 0.44427663 0.87219888
v 0.52812648 0.43824607 0.74664420
v 0.52812648 0.18352085 0.81868035
v 0.52455032 0.19000655 0.82287383
v 0.50822443 0.19148575 0.83329517
v 0.50040579 0.19914722 0.84022892
v 0.49027711 0.19148575 0.84379959
v 0.46999750 0.17001843 0.84890652
v 0.45462677 0.17001843 0.85716885
v 0.44127733 0.15776765 0.86065650
v 0.43046004 0.15067509 0.86401951
v 0.42410740 0.13341780 0.86202663
v 0.41993153 0.12010504 0.85995066
v 0.41659972 0.11001615 0.85828984
v 0.40222850 0.09685510 0.86107165
v 0.40933639 0.09014182 0.85517591
v 0.39734188 0.08354233 0.85874659
v 0.41089121 0.07474302 0.84878194
v 0.38445887 0.07474302 0.86140382
v 0.39016736 0.12886643 0.87684906
v 0.40662649 0.11001615 0.86323071
v 0.37002105 0.15003031 0.89192057
v 0.38361481 0.13474528 0.88158226
v 0.36357954 0.17445603 0.90147007
v 0.34925276 0.21007052 0.91637552
v 0.37015432 0.19095476 0.90313083
v 0.37002105 0.21003260 0.90803009
v 0.34210047 0.21674588 0.92077655
v 0.33061683 0.21007052 0.92330921
v 0.31000406 0.21003260 0.93049210
v 0.31173658 0.18837565 0.92451334
v 0.37015432 0.16869095 0.89711052
v 0.37690678 0.18492419 0.89868826
v 0.30123031 0.18917213 0.92812550
v 0.30123031 0.44848666 0.87921566
v 0.52812648 0.44370770 0.75391012
v 0.52812648 0.44287330 0.75253999
v 0.52812648 0.19000655 0.82054871
v 0.52812648 0.19406486 0.82171130
v 0.52812648 0.20221940 0.82399487
v 0.52812648 0.21086702 0.82636148
v 0.51282233 0.21003260 0.83562028
v 0.50282693 0.21003260 0.84168208
v 0.48998836 0.21003260 0.84894800
v 0.47497299 0.21003260 0.85725188
v 0.46902016 0.19000655 0.85509288
v 0.45824733 0.18329328 0.85907876
v 0.44463134 0.17001843 0.86235875
v 0.42999360 0.17001843 0.86974919
v 0.41464505 0.17001843 0.87738878
v 0.40871444 0.15086474 0.87477309
v 0.41197962 0.12806994 0.86634463
v 0.39312157 0.07474302 0.85741794
v 0.39694205 0.14475831 0.87859285
v 0.39016736 0.15086474 0.88340908
v 0.39001188 0.17001843 0.88888967
v 0.35613850 0.23002072 0.91849297
v 0.38110486 0.19823696 0.90043205
v 0.37002105 0.23002072 0.91288787
v 0.38456994 0.21003260 0.90192676
v 0.34614307 0.23002072 0.92231280
v 0.33001712 0.23002072 0.92820853
v 0.30123031 0.21003260 0.93327391
v 0.30123031 0.20123327 0.93115640
v 0.30840480 0.23142406 0.93593115
v 0.30123031 0.23946482 0.94012463
v 0.30123031 0.22816223 0.93750888
v 0.38865694 0.19095476 0.89515913
v 0.30123031 0.45466894 0.89079952
v 0.52812648 0.45186228 0.76993656
v 0.52812648 0.23002072 0.83134377
v 0.51710927 0.23002072 0.83823597
v 0.50711381 0.23002072 0.84421480
v 0.48876667 0.23028621 0.85480225
v 0.47823817 0.22380051 0.85903722
v 0.46497756 0.21003260 0.86264938
v 0.46171242 0.19664398 0.86090559
v 0.45093957 0.19000655 0.86464232
v 0.42919394 0.18981692 0.87560344
v 0.41833225 0.18298985 0.87917411
v 0.41102448 0.18981692 0.88457167
v 0.40464965 0.17001843 0.88220501
v 0.40116233 0.15810901 0.88054425
v 0.35944811 0.24101987 0.91973859
v 0.39456534 0.21003260 0.89756721
v 0.39098921 0.22990693 0.90400273
v 0.39001188 0.25000882 0.90894353
v 0.36982113 0.24864341 0.91716439
v 0.39831918 0.22315572 0.89922798
v 0.35167387 0.24864341 0.92434722
v 0.33001712 0.25000882 0.93256807
v 0.31415772 0.25000882 0.93804860
v 0.30416229 0.25000882 0.94132864
v 0.30123031 0.25000882 0.94224209
v 0.30123031 0.45751357 0.89723504
v 0.52812648 0.45284837 0.77213711
v 0.52812648 0.24970540 0.83616000
v 0.51946378 0.24139915 0.83964765
v 0.51166731 0.24887098 0.84604168
v 0.49398652 0.25000882 0.85662907
v 0.48128122 0.23715121 0.86069798
v 0.47093040 0.23028621 0.86455929
v 0.44922924 0.22945179 0.87576956
v 0.44998443 0.21003260 0.87045503
v 0.43556881 0.21003260 0.87776244
v 0.42197505 0.19634055 0.88095945
v 0.41000274 0.21003260 0.89038438
v 0.36300203 0.25437057 0.92119175
v 0.40176207 0.23646849 0.90080571
v 0.39001188 0.26999694 0.91309547
v 0.37686235 0.26999694 0.91870058
v 0.40498281 0.25000882 0.90230042
v 0.40906984 0.22990693 0.89578187
v 0.35000798 0.26999694 0.92928803
v 0.32908422 0.26992109 0.93684459
v 0.31822252 0.26324573 0.93937725
v 0.31093696 0.26992109 0.94298947
v 0.30123031 0.26995903 0.94602036
v 0.30123031 0.45948583 0.90225887
v 0.52812648 0.45819625 0.78641981
v 0.52812648 0.26218376 0.83898336
v 0.52195150 0.25474983 0.84118390
v 0.50997919 0.26999694 0.85164678
v 0.49785143 0.26999694 0.85878813
v 0.48399109 0.25000882 0.86219269
v 0.46999750 0.25000882 0.86979073
v 0.45533755 0.25000882 0.87755489
v 0.44205475 0.23574786 0.88104248
v 0.43878955 0.22243509 0.87938172
v 0.42557338 0.21003260 0.88274479
v 0.43125966 0.22945179 0.88482076
v 0.36686692 0.26999694 0.92276949
v 0.41495603 0.25000882 0.89756721
v 0.41093564 0.27052793 0.90379512
v 0.41000274 0.28998506 0.90782249
v 0.38936773 0.28873342 0.91683221
v 0.37948337 0.28122368 0.91978008
v 0.41819897 0.26423186 0.89914495
v 0.42999360 0.25000882 0.89030135
v 0.35000798 0.28998506 0.93285871
v 0.33512589 0.28998506 0.93825626
v 0.32182088 0.27655852 0.94062281
v 0.31000406 0.28998506 0.94680923
v 0.30123031 0.28122368 0.94801331
v 0.30123031 0.45990300 0.90408576
v 0.52812648 0.45872724 0.78812206
v 0.52812648 0.26999694 0.84068567
v 0.52463913 0.26999694 0.84284467
v 0.50915736 0.28835416 0.85579872
v 0.49978387 0.28057888 0.85986757
v 0.48785600 0.26999694 0.86431020
v 0.46853149 0.27052793 0.87493914
v 0.45835838 0.26426980 0.87913263
v 0.44531989 0.25000882 0.88270330
v 0.37168694 0.28873342 0.92422271
v 0.42099771 0.27754465 0.90047359
v 0.41000274 0.30997318 0.91114408
v 0.39516509 0.30997318 0.91787022
v 0.42330775 0.28998506 0.90159458
v 0.38225988 0.29453644 0.92094266
v 0.42859423 0.27052793 0.89532518
v 0.37002105 0.30997318 0.92837459
v 0.34869745 0.31027660 0.93659544
v 0.33836886 0.30382884 0.93941879
v 0.32513046 0.28998506 0.94174385
v 0.31000406 0.30997318 0.94992316
v 0.30123031 0.28998506 0.94954950
v 0.30123031 0.46123052 0.91143471
v 0.52812648 0.46062365 0.79642594
v 0.52812648 0.28998506 0.84467149
v 0.52785993 0.28998506 0.84483761
v 0.51428837 0.30997318 0.85662907
v 0.50193846 0.29392958 0.86111319
v 0.49187636 0.28835416 0.86568034
v 0.46086836 0.27758259 0.88046122
v 0.45100620 0.27052793 0.88415647
v 0.43332541 0.28998506 0.89669532
v 0.42675063 0.30997318 0.90325534
v 0.40804806 0.33189565 0.91525447
v 0.39796379 0.32647192 0.91907430
v 0.38514745 0.30997318 0.92218822
v 0.43674606 0.30997318 0.89839762
v 0.37002105 0.32999924 0.93123949
v 0.35356191 0.32999924 0.93759191
v 0.34116757 0.31714159 0.94041526
v 0.33103889 0.31027660 0.94290638
v 0.31000406 0.32999924 0.95270497
v 0.30123031 0.32241359 0.95436573
v 0.30123031 0.31050417 0.95270497
v 0.30123031 0.30121177 0.95129335
v 0.33001712 0.32999924 0.94602036
v 0.30123031 0.46160978 0.91836846
v 0.33001712 0.46210286 0.90998149
v 0.52812648 0.46183735 0.81000280
v 0.52812648 0.46073744 0.79725635
v 0.52812648 0.29138839 0.84492064
v 0.52812648 0.30910084 0.84803456
v 0.52812648 0.32760975 0.85094094
v 0.51686496 0.32999924 0.85812378
v 0.50429291 0.30997318 0.86248332
v 0.48998836 0.30997318 0.87045503
v 0.47621688 0.30997318 0.87797010
v 0.47301835 0.28998506 0.87622625
v 0.46302292 0.28998506 0.88158226
v 0.44998443 0.28998506 0.88830841
v 0.43132630 0.33030266 0.90400273
v 0.43890062 0.32385486 0.89943558
v 0.42999360 0.34998733 0.90719974
v 0.41135767 0.34998733 0.91600180
v 0.40005174 0.33982262 0.91998768
v 0.39078930 0.33189565 0.92289406
v 0.44998443 0.30997318 0.89167148
v 0.37002105 0.34998733 0.93373060
v 0.35693812 0.34998733 0.93883753
v 0.34356648 0.32999924 0.94128716
v 0.31000406 0.34998733 0.95511311
v 0.30123031 0.34998733 0.95789492
v 0.30123031 0.33959505 0.95660782
v 0.30123031 0.32999924 0.95540375
v 0.33001712 0.34998733 0.94847000
v 0.30123031 0.46160978 0.93024302
v 0.35000798 0.46198907 0.90998149
v 0.39001188 0.46217871 0.88996917
v 0.42999360 0.46221662 0.86999834
v 0.52812648 0.46195114 0.81182969
v 0.52812648 0.32999924 0.85127306
v 0.51868635 0.34630832 0.85920328
v 0.50684732 0.32999924 0.86393648
v 0.48812252 0.33147842 0.87469006
v 0.47846031 0.32582712 0.87917411
v 0.46622145 0.30997318 0.88328457
v 0.44074422 0.33716765 0.90034902
v 0.44845182 0.33030266 0.89544976
v 0.42999360 0.36997545 0.90935874
v 0.41368994 0.36997545 0.91708136
v 0.44232127 0.34998733 0.90117943
v 0.40136224 0.34998733 0.92061049
v 0.39001188 0.34998733 0.92546827
v 0.39001188 0.36997545 0.92754424
v 0.36837733 0.37039268 0.93647087
v 0.35898164 0.36402076 0.93958485
v 0.34694272 0.34998733 0.94249117
v 0.30887124 0.36902726 0.95747972
v 0.30123031 0.36311048 0.95934808
v 0.33001712 0.36997545 0.95050442
v 0.30123031 0.46111673 0.93530834
v 0.33001712 0.46130636 0.92455482
v 0.36848840 0.46126842 0.90989846
v 0.39001188 0.46107879 0.90308928
v 0.40958071 0.46145809 0.89034283
v 0.44962904 0.46145809 0.87020594
v 0.50997919 0.46187529 0.82997364
v 0.52812648 0.46104085 0.82831287
v 0.52812648 0.35055625 0.85401338
v 0.52803761 0.35176998 0.85422099
v 0.52006346 0.35965902 0.86003369
v 0.51122308 0.35176998 0.86418563
v 0.49134329 0.34998733 0.87522978
v 0.48019284 0.33917785 0.88008755
v 0.47108591 0.33147842 0.88386583
v 0.45231670 0.34998733 0.89603102
v 0.44445363 0.36997545 0.90225887
v 0.42999360 0.38996357 0.91106105
v 0.41548911 0.38996357 0.91791171
v 0.40369451 0.36997545 0.92164850
v 0.39001188 0.38996357 0.92916346
v 0.37182021 0.38996357 0.93672001
v 0.36062533 0.37733352 0.94020766
v 0.35138512 0.37039268 0.94298947
v 0.31326923 0.38996357 0.95777035
v 0.30143023 0.37505782 0.96042758
v 0.30123031 0.37376827 0.96038604
v 0.35000798 0.38996357 0.94510692
v 0.33001712 0.38996357 0.95216525
v 0.30123031 0.46035814 0.94070590
v 0.35000798 0.46069950 0.92164850
v 0.36080304 0.46013057 0.92023683
v 0.40262833 0.46043402 0.90093029
v 0.42999360 0.46115464 0.88386583
v 0.46999750 0.46100295 0.86335522
v 0.48896658 0.46130636 0.84977841
v 0.52805984 0.46100295 0.82906020
v 0.52812648 0.46100295 0.82897717
v 0.52812648 0.35188374 0.85417944
v 0.52812648 0.36735842 0.85588175
v 0.52088535 0.36997545 0.86053193
v 0.50997919 0.36997545 0.86684287
v 0.49327573 0.36997545 0.87626779
v 0.48328030 0.36997545 0.88178986
v 0.48134786 0.34998733 0.88071036
v 0.46999750 0.34998733 0.88677216
v 0.45444906 0.36997545 0.89711052
v 0.44611955 0.38996357 0.90308928
v 0.45611498 0.38996357 0.89798242
v 0.42999360 0.40998963 0.91214055
v 0.41662192 0.40998963 0.91845149
v 0.40551591 0.38996357 0.92243731
v 0.39001188 0.40998963 0.93015993
v 0.37308630 0.40998963 0.93721825
v 0.36182478 0.38996357 0.94070590
v 0.31500179 0.40998963 0.95835161
v 0.30327380 0.38996357 0.96105039
v 0.30123031 0.38996357 0.96167314
v 0.35000798 0.40998963 0.94610339
v 0.33001712 0.40998963 0.95324475
v 0.30123031 0.45971340 0.94157779
v 0.30229646 0.46032023 0.94058132
v 0.31562370 0.45914447 0.93742585
v 0.33001712 0.45717221 0.93456101
v 0.33001712 0.44715917 0.94564664
v 0.36728895 0.44935900 0.92883134
v 0.39001188 0.44533861 0.92401505
v 0.37415248 0.45846176 0.91650009
v 0.41593337 0.45899275 0.89727658
v 0.44272110 0.46054780 0.88116705
v 0.48161441 0.46035814 0.86073953
v 0.50997919 0.46069950 0.84230489
v 0.52812648 0.46092707 0.82914323
v 0.52010792 0.46001679 0.84006286
v 0.52812648 0.36997545 0.85613084
v 0.52812648 0.38268137 0.85721034
v 0.52228469 0.38996357 0.86136228
v 0.50997919 0.38996357 0.86850363
v 0.49478614 0.38996357 0.87709814
v 0.48479074 0.38996357 0.88262022
v 0.46999750 0.38996357 0.89059198
v 0.46999750 0.36997545 0.88893116
v 0.44718572 0.40998963 0.90362906
v 0.45718116 0.40998963 0.89852214
v 0.44629723 0.42997774 0.90321386
v 0.42999360 0.42997774 0.91118556
v 0.41566682 0.42997774 0.91795325
v 0.40567139 0.42997774 0.92252040
v 0.40664873 0.40998963 0.92293561
v 0.39001188 0.42997774 0.92928803
v 0.37204233 0.42997774 0.93672001
v 0.36204690 0.42997774 0.94078892
v 0.36309087 0.40998963 0.94120407
v 0.31400222 0.42997774 0.95797795
v 0.30500636 0.40998963 0.96163166
v 0.30123031 0.40998963 0.96279418
v 0.35000798 0.42997774 0.94531453
v 0.33001712 0.42997774 0.95245588
v 0.30123031 0.45133126 0.95042139
v 0.35000798 0.44298708 0.94207603
v 0.30123031 0.44738674 0.95449030
v 0.30123031 0.44093895 0.96055216
v 0.40289488 0.44196302 0.92127478
v 0.42999360 0.44617304 0.90495765
v 0.40942523 0.45049685 0.90956634
v 0.39001188 0.45531374 0.91309547
v 0.36042541 0.44025624 0.94016612
v 0.42999360 0.45614815 0.89383048
v 0.45604834 0.45891690 0.87701511
v 0.52812648 0.45023137 0.84612471
v 0.49494165 0.45838588 0.85633844
v 0.50997919 0.45436552 0.85231107
v 0.50997919 0.44435251 0.86356282
v 0.52712691 0.44894180 0.84820068
v 0.52812648 0.38996357 0.85779166
v 0.52812648 0.40998963 0.85882962
v 0.52312875 0.40998963 0.86186051
v 0.50997919 0.40998963 0.86950010
v 0.49574128 0.40998963 0.87763792
v 0.48572364 0.40998963 0.88311845
v 0.46999750 0.40998963 0.89167148
v 0.45629266 0.42997774 0.89802396
v 0.44338745 0.44253194 0.90171915
v 0.30158567 0.44086310 0.96046913
v 0.30400681 0.42997774 0.96125799
v 0.30123031 0.42997774 0.96212989
v 0.30123031 0.44052178 0.96063519
v 0.46999750 0.44564205 0.88469619
v 0.44971788 0.45072442 0.88972008
v 0.46999750 0.45565507 0.87336141
v 0.52812648 0.44863838 0.84791005
v 0.48870006 0.45015550 0.86916792
v 0.52081871 0.44074932 0.86049038
v 0.48245847 0.44196302 0.88133311
v 0.52812648 0.42997774 0.85779166
v 0.52230692 0.42997774 0.86140382
v 0.50997919 0.42997774 0.86850363
v 0.49485278 0.42997774 0.87709814
v 0.48485738 0.42997774 0.88266176
v 0.46999750 0.42997774 0.89067501
f 1 2 10
f 1 10 15
f 1 15 22
f 1 22 33
f 1 33 48
f 1 48 69
f 1 69 68
f 1 68 97
f 1 97 122
f 1 122 152
f 1 152 187
f 1 187 186
f 1 186 220
f 1 220 246
f 1 246 270
f 1 270 296
f 1 296 319
f 1 319 345
f 1 345 344
f 1 344 375
f 1 375 403
f 1 403 433
f 1 433 468
f 1 468 505
f 1 505 526
f 1 526 530
f 1 530 511
f 1 511 510
f 1 510 471
f 1 471 470
f 1 470 435
f 1 435 434
f 1 434 404
f 1 404 376
f 1 376 348
f 1 348 347
f 1 347 346
f 1 346 320
f 1 320 297
f 1 297 271
f 1 271 247
f 1 247 221
f 1 221 191
f 1 191 190
f 1 190 189
f 1 189 188
f 1 188 153
f 1 153 123
f 1 123 98
f 1 98 71
f 1 71 70
f 1 70 51
f 1 51 50
f 1 50 49
f 1 49 34
f 1 34 23
f 1 23 16
f 1 16 11
f 1 11 3
f 1 3 12
f 1 12 18
f 1 18 27
f 1 27 39
f 1 39 57
f 1 57 77
f 1 77 81
f 1 81 80
f 1 80 82
f 1 82 110
f 1 110 135
f 1 135 168
f 1 168 203
f 1 203 169
f 1 169 136
f 1 136 111
f 1 111 86
f 1 86 85
f 1 85 84
f 1 84 83
f 1 83 60
f 1 60 41
f 1 41 28
f 1 28 19
f 1 19 13
f 1 13 4
f 1 4 5
f 1 5 6
f 1 6 7
f 1 7 8
f 1 8 9
f 1 9 2
f 2 9 10
f 3 11 12
f 4 13 20
f 4 20 30
f 4 30 44
f 4 44 43
f 4 43 64
f 4 64 93
f 4 93 92
f 4 92 118
f 4 118 149
f 4 149 184
f 4 184 214
f 4 214 213
f 4 213 217
f 4 217 216
f 4 216 244
f 4 244 268
f 4 268 294
f 4 294 317
f 4 317 340
f 4 340 339
f 4 339 338
f 4 338 369
f 4 369 368
f 4 368 367
f 4 367 394
f 4 394 422
f 4 422 453
f 4 453 491
f 4 491 521
f 4 521 522
f 4 522 497
f 4 497 496
f 4 496 494
f 4 494 456
f 4 456 425
f 4 425 396
f 4 396 371
f 4 371 342
f 4 342 318
f 4 318 295
f 4 295 269
f 4 269 245
f 4 245 219
f 4 219 185
f 4 185 151
f 4 151 121
f 4 121 96
f 4 96 67
f 4 67 47
f 4 47 32
f 4 32 21
f 4 21 14
f 4 14 9
f 4 9 8
f 4 8 7
f 4 7 6
f 4 6 5
f 9 14 15
f 9 15 10
f 11 16 17
f 11 17 12
f 12 17 18
f 13 19 20
f 14 21 15
f 15 21 22
f 16 23 17
f 17 23 24
f 17 24 25
f 17 25 26
f 17 26 18
f 18 26 27
f 19 28 20
f 20 29 30
f 20 28 31
f 20 31 29
f 21 32 33
f 21 33 22
f 23 34 24
f 24 35 36
f 24 36 25
f 24 34 35
f 25 36 37
f 25 37 38
f 25 38 26
f 26 39 27
f 26 38 40
f 26 40 39
f 28 41 31
f 29 42 43
f 29 43 44
f 29 44 30
f 29 31 45
f 29 45 42
f 31 41 46
f 31 46 45
f 32 47 48
f 32 48 33
f 34 49 35
f 35 49 50
f 35 50 51
f 35 51 52
f 35 52 53
f 35 53 54
f 35 54 36
f 36 54 37
f 37 54 55
f 37 55 56
f 37 56 38
f 38 56 40
f 39 40 57
f 40 56 58
f 40 58 59
f 40 59 57
f 41 60 61
f 41 61 46
f 42 45 62
f 42 62 63
f 42 63 64
f 42 64 43
f 45 46 65
f 45 65 62
f 46 61 66
f 46 66 65
f 47 67 68
f 47 68 69
f 47 69 48
f 51 70 52
f 52 70 71
f 52 71 72
f 52 72 53
f 53 72 73
f 53 73 54
f 54 73 74
f 54 74 55
f 55 74 75
f 55 75 76
f 55 76 56
f 56 76 58
f 57 59 77
f 58 76 78
f 58 78 79
f 58 79 59
f 59 80 81
f 59 81 77
f 59 79 82
f 59 82 80
f 60 83 61
f 61 83 84
f 61 84 85
f 61 85 86
f 61 86 87
f 61 87 66
f 62 88 63
f 62 65 89
f 62 89 88
f 63 90 91
f 63 91 92
f 63 92 93
f 63 93 64
f 63 88 90
f 65 66 94
f 65 94 89
f 66 87 95
f 66 95 94
f 67 96 68
f 68 96 97
f 71 98 99
f 71 99 72
f 72 99 100
f 72 100 73
f 73 100 101
f 73 101 102
f 73 102 103
f 73 103 74
f 74 103 104
f 74 104 75
f 75 78 76
f 75 104 105
f 75 105 106
f 75 106 107
f 75 107 78
f 78 107 108
f 78 108 79
f 79 108 109
f 79 109 82
f 82 109 110
f 86 111 87
f 87 111 112
f 87 112 95
f 88 89 113
f 88 113 90
f 89 94 114
f 89 114 113
f 90 115 91
f 90 113 116
f 90 116 115
f 91 115 117
f 91 117 118
f 91 118 92
f 94 95 119
f 94 119 114
f 95 112 120
f 95 120 119
f 96 121 122
f 96 122 97
f 98 123 99
f 99 123 124
f 99 124 125
f 99 125 100
f 100 125 101
f 101 126 127
f 101 127 128
f 101 128 102
f 101 125 126
f 102 128 103
f 103 128 129
f 103 129 105
f 103 105 104
f 105 129 130
f 105 130 106
f 106 130 131
f 106 131 132
f 106 132 107
f 107 132 133
f 107 133 108
f 108 133 134
f 108 134 109
f 109 134 135
f 109 135 110
f 111 136 112
f 112 137 120
f 112 136 138
f 112 138 137
f 113 114 139
f 113 139 116
f 114 119 140
f 114 140 139
f 115 116 141
f 115 141 142
f 115 142 143
f 115 143 144
f 115 144 145
f 115 145 146
f 115 146 117
f 116 139 147
f 116 147 141
f 117 146 148
f 117 148 118
f 118 148 149
f 119 120 150
f 119 150 140
f 120 137 150
f 121 151 152
f 121 152 122
f 123 153 124
f 124 154 155
f 124 155 125
f 124 153 154
f 125 155 126
f 126 155 156
f 126 156 157
f 126 157 127
f 127 157 158
f 127 158 128
f 128 158 129
f 129 158 130
f 130 158 159
f 130 159 160
f 130 160 131
f 131 160 161
f 131 161 162
f 131 162 132
f 132 162 163
f 132 163 133
f 133 163 164
f 133 164 165
f 133 165 134
f 134 165 166
f 134 166 135
f 135 166 167
f 135 167 168
f 136 169 167
f 136 167 138
f 137 170 150
f 137 138 165
f 137 165 171
f 137 171 170
f 138 167 165
f 139 140 172
f 139 172 147
f 140 150 173
f 140 173 172
f 141 147 174
f 141 174 142
f 142 175 143
f 142 174 176
f 142 176 177
f 142 177 175
f 143 178 179
f 143 179 145
f 143 145 144
f 143 175 178
f 145 179 180
f 145 180 181
f 145 181 146
f 146 181 148
f 147 172 182
f 147 182 183
f 147 183 174
f 148 181 184
f 148 184 149
f 150 170 173
f 151 185 186
f 151 186 187
f 151 187 152
f 153 188 154
f 154 188 189
f 154 189 190
f 154 190 191
f 154 191 192
f 154 192 156
f 154 156 155
f 156 193 194
f 156 194 157
f 156 192 193
f 157 194 195
f 157 195 196
f 157 196 158
f 158 196 197
f 158 197 159
f 159 197 160
f 160 197 198
f 160 198 199
f 160 199 200
f 160 200 161
f 161 200 201
f 161 201 162
f 162 201 202
f 162 202 163
f 163 202 171
f 163 171 164
f 164 171 165
f 165 167 166
f 167 169 203
f 167 203 168
f 170 171 202
f 170 202 204
f 170 204 173
f 172 173 205
f 172 205 206
f 172 206 182
f 173 204 205
f 174 183 176
f 175 177 207
f 175 207 178
f 176 183 208
f 176 208 177
f 177 209 207
f 177 208 210
f 177 210 209
f 178 207 211
f 178 211 212
f 178 212 179
f 179 212 180
f 180 213 214
f 180 214 181
f 180 212 215
f 180 215 216
f 180 216 217
f 180 217 213
f 181 214 184
f 182 206 183
f 183 206 218
f 183 218 208
f 185 219 186
f 186 219 220
f 191 221 222
f 191 222 192
f 192 222 193
f 193 222 223
f 193 223 224
f 193 224 194
f 194 224 225
f 194 225 195
f 195 225 226
f 195 226 227
f 195 227 196
f 196 227 197
f 197 227 228
f 197 228 198
f 198 228 229
f 198 229 199
f 199 229 230
f 199 230 200
f 200 230 231
f 200 231 232
f 200 232 233
f 200 233 201
f 201 233 204
f 201 204 202
f 204 233 205
f 205 233 206
f 206 233 232
f 206 232 218
f 207 234 211
f 207 209 234
f 208 218 235
f 208 235 210
f 209 210 236
f 209 236 237
f 209 237 238
f 209 238 234
f 210 235 239
f 210 239 236
f 211 234 240
f 211 240 241
f 211 241 212
f 212 241 242
f 212 242 215
f 215 242 216
f 216 242 243
f 216 243 244
f 218 232 235
f 219 245 246
f 219 246 220
f 221 247 248
f 221 248 222
f 222 248 223
f 223 248 249
f 223 249 250
f 223 250 224
f 224 250 251
f 224 251 225
f 225 251 252
f 225 252 226
f 226 252 253
f 226 253 254
f 226 254 227
f 227 254 228
f 228 254 255
f 228 255 229
f 229 255 256
f 229 256 230
f 230 256 231
f 231 256 257
f 231 257 235
f 231 235 232
f 234 238 258
f 234 258 240
f 235 257 239
f 236 239 259
f 236 259 237
f 237 260 261
f 237 261 238
f 237 259 262
f 237 262 260
f 238 261 258
f 239 257 263
f 239 263 259
f 240 264 241
f 240 258 264
f 241 264 265
f 241 265 266
f 241 266 242
f 242 266 243
f 243 267 244
f 243 266 267
f 244 267 268
f 245 269 246
f 246 269 270
f 247 271 272
f 247 272 248
f 248 272 249
f 249 272 273
f 249 273 274
f 249 274 250
f 250 274 275
f 250 275 251
f 251 275 276
f 251 276 252
f 252 276 277
f 252 277 253
f 253 277 278
f 253 278 279
f 253 279 254
f 254 279 255
f 255 279 280
f 255 280 256
f 256 280 257
f 257 280 279
f 257 279 281
f 257 281 263
f 258 261 282
f 258 282 264
f 259 263 283
f 259 283 262
f 260 262 284
f 260 284 285
f 260 285 286
f 260 286 287
f 260 287 261
f 261 287 282
f 262 283 288
f 262 288 284
f 263 281 278
f 263 278 289
f 263 289 283
f 264 290 291
f 264 291 265
f 264 282 290
f 265 291 292
f 265 292 266
f 266 292 267
f 267 293 294
f 267 294 268
f 267 292 293
f 269 295 319
f 269 319 296
f 269 296 270
f 271 297 298
f 271 298 272
f 272 298 273
f 273 299 300
f 273 300 274
f 273 298 299
f 274 300 301
f 274 301 275
f 275 301 302
f 275 302 276
f 276 302 303
f 276 303 277
f 277 303 304
f 277 304 278
f 278 304 289
f 278 281 279
f 282 287 305
f 282 305 290
f 283 289 288
f 284 288 306
f 284 306 285
f 285 307 308
f 285 308 286
f 285 306 309
f 285 309 307
f 286 308 310
f 286 310 287
f 287 310 305
f 288 289 311
f 288 311 306
f 289 304 311
f 290 305 312
f 290 312 313
f 290 313 314
f 290 314 291
f 291 314 315
f 291 315 292
f 292 315 293
f 293 315 316
f 293 316 317
f 293 317 294
f 295 318 319
f 297 320 321
f 297 321 298
f 298 321 299
f 299 322 323
f 299 323 300
f 299 321 322
f 300 323 324
f 300 324 302
f 300 302 301
f 302 324 325
f 302 325 303
f 303 325 326
f 303 326 304
f 304 326 311
f 305 310 312
f 306 311 326
f 306 326 327
f 306 327 309
f 307 309 328
f 307 328 329
f 307 329 330
f 307 330 308
f 308 330 331
f 308 331 310
f 309 327 332
f 309 332 328
f 310 331 312
f 312 333 334
f 312 334 313
f 312 331 333
f 313 334 335
f 313 335 314
f 314 335 336
f 314 336 315
f 315 336 316
f 316 337 338
f 316 338 339
f 316 339 340
f 316 340 317
f 316 336 341
f 316 341 337
f 318 342 343
f 318 343 344
f 318 344 345
f 318 345 319
f 320 346 321
f 321 346 347
f 321 347 322
f 322 347 348
f 322 348 349
f 322 349 350
f 322 350 323
f 323 350 351
f 323 351 324
f 324 351 352
f 324 352 353
f 324 353 325
f 325 354 355
f 325 355 326
f 325 353 354
f 326 355 327
f 327 355 332
f 328 356 329
f 328 332 357
f 328 357 356
f 329 356 358
f 329 358 359
f 329 359 360
f 329 360 330
f 330 360 361
f 330 361 331
f 331 361 333
f 332 355 362
f 332 362 357
f 333 361 363
f 333 363 364
f 333 364 334
f 334 364 365
f 334 365 335
f 335 365 341
f 335 341 336
f 337 366 367
f 337 367 368
f 337 368 369
f 337 369 338
f 337 341 370
f 337 370 366
f 341 365 370
f 342 371 343
f 343 371 372
f 343 372 373
f 343 373 374
f 343 374 375
f 343 375 344
f 348 376 349
f 349 376 377
f 349 377 378
f 349 378 350
f 350 378 379
f 350 379 351
f 351 379 380
f 351 380 352
f 352 380 381
f 352 381 354
f 352 354 353
f 354 381 362
f 354 362 355
f 356 357 382
f 356 382 358
f 357 362 383
f 357 383 382
f 358 384 385
f 358 385 359
f 358 382 386
f 358 386 384
f 359 385 387
f 359 387 360
f 360 387 388
f 360 388 361
f 361 388 363
f 362 381 383
f 363 388 389
f 363 389 390
f 363 390 391
f 363 391 364
f 364 391 392
f 364 392 365
f 365 392 370
f 366 370 393
f 366 393 394
f 366 394 367
f 370 395 393
f 370 392 395
f 371 396 397
f 371 397 372
f 372 398 399
f 372 399 400
f 372 400 373
f 372 397 398
f 373 400 374
f 374 401 402
f 374 402 375
f 374 400 401
f 375 402 403
f 376 404 377
f 377 404 405
f 377 405 406
f 377 406 407
f 377 407 378
f 378 407 408
f 378 408 379
f 379 408 409
f 379 409 380
f 380 409 410
f 380 410 381
f 381 410 383
f 382 383 410
f 382 410 411
f 382 411 386
f 384 386 412
f 384 412 413
f 384 413 385
f 385 414 415
f 385 415 387
f 385 413 414
f 386 411 442
f 386 442 412
f 387 415 389
f 387 389 388
f 389 416 417
f 389 417 390
f 389 415 416
f 390 417 418
f 390 418 391
f 391 418 419
f 391 419 392
f 392 419 395
f 393 395 420
f 393 420 421
f 393 421 422
f 393 422 394
f 395 419 423
f 395 423 424
f 395 424 420
f 396 425 397
f 397 425 426
f 397 426 399
f 397 399 398
f 399 426 427
f 399 427 428
f 399 428 429
f 399 429 400
f 400 429 401
f 401 430 431
f 401 431 402
f 401 429 430
f 402 432 403
f 402 431 432
f 403 432 433
f 404 434 405
f 405 434 406
f 406 434 435
f 406 435 436
f 406 436 437
f 406 437 407
f 407 437 408
f 408 438 439
f 408 439 440
f 408 440 409
f 408 437 438
f 409 440 441
f 409 441 411
f 409 411 410
f 411 441 442
f 412 443 413
f 412 442 444
f 412 444 443
f 413 443 445
f 413 445 414
f 414 446 447
f 414 447 415
f 414 445 446
f 415 447 416
f 416 448 449
f 416 449 417
f 416 447 448
f 417 449 488
f 417 488 450
f 417 450 418
f 418 450 423
f 418 423 419
f 420 424 451
f 420 451 490
f 420 490 452
f 420 452 421
f 421 452 422
f 422 452 453
f 423 450 454
f 423 454 455
f 423 455 424
f 424 455 451
f 425 456 457
f 425 457 426
f 426 457 427
f 427 457 458
f 427 458 459
f 427 459 460
f 427 460 461
f 427 461 462
f 427 462 463
f 427 463 464
f 427 464 428
f 428 464 465
f 428 465 429
f 429 465 430
f 430 466 467
f 430 467 431
f 430 465 466
f 431 467 432
f 432 468 433
f 432 467 469
f 432 469 468
f 435 470 436
f 436 470 471
f 436 471 472
f 436 472 473
f 436 473 437
f 437 473 474
f 437 474 438
f 438 474 475
f 438 475 439
f 439 475 476
f 439 476 477
f 439 477 440
f 440 477 441
f 441 477 442
f 442 477 444
f 443 478 445
f 443 444 479
f 443 479 478
f 444 477 476
f 444 476 479
f 445 478 480
f 445 480 481
f 445 481 482
f 445 482 446
f 446 482 483
f 446 483 484
f 446 484 447
f 447 484 448
f 448 484 483
f 448 483 485
f 448 485 449
f 449 485 486
f 449 486 487
f 449 487 488
f 450 488 454
f 451 489 520
f 451 520 490
f 451 455 489
f 452 490 491
f 452 491 453
f 454 488 492
f 454 492 493
f 454 493 455
f 455 493 489
f 456 460 457
f 456 494 460
f 457 460 458
f 458 460 459
f 460 495 461
f 460 494 496
f 460 496 497
f 460 497 495
f 461 495 462
f 462 498 499
f 462 499 500
f 462 500 501
f 462 501 463
f 462 495 502
f 462 502 498
f 463 501 464
f 464 503 504
f 464 504 465
f 464 501 500
f 464 500 499
f 464 499 503
f 465 504 466
f 466 504 469
f 466 469 467
f 468 469 505
f 469 504 506
f 469 506 507
f 469 507 508
f 469 508 509
f 469 509 505
f 471 510 472
f 472 510 511
f 472 511 512
f 472 512 513
f 472 513 473
f 473 513 514
f 473 514 474
f 474 514 475
f 475 515 516
f 475 516 476
f 475 514 515
f 476 516 479
f 478 479 480
f 479 517 480
f 479 516 517
f 480 517 518
f 480 518 481
f 481 518 498
f 481 498 482
f 482 498 483
f 483 498 502
f 483 502 485
f 485 502 486
f 486 502 487
f 487 502 492
f 487 492 488
f 489 519 520
f 489 493 519
f 490 520 521
f 490 521 491
f 492 502 493
f 493 502 519
f 495 497 502
f 497 522 519
f 497 519 502
f 498 518 499
f 499 518 523
f 499 523 524
f 499 524 503
f 503 524 504
f 504 525 506
f 504 524 525
f 505 509 526
f 506 525 527
f 506 527 507
f 507 527 508
f 508 528 526
f 508 526 509
f 508 527 523
f 508 523 529
f 508 529 528
f 511 530 531
f 511 531 512
f 512 531 513
f 513 532 514
f 513 531 532
f 514 532 533
f 514 533 534
f 514 534 515
f 515 534 516
f 516 534 535
f 516 535 517
f 517 535 529
f 517 529 518
f 518 529 523
f 519 522 520
f 520 522 521
f 523 527 525
f 523 525 524
f 526 528 530
f 528 529 534
f 528 534 533
f 528 533 532
f 528 532 531
f 528 531 530
f 529 535 534
