v 0.52812648 0.07474300 0.78069699
v 0.52792656 0.07474300 0.78085560
v 0.52812648 0.06999472 0.77868849
v 0.52812648 0.07474300 0.53866982
v 0.52001905 0.05994892 0.78000987
v 0.52483904 0.07474300 0.78291696
v 0.52315092 0.06999472 0.78212416
v 0.52812648 0.06616776 0.77704996
v 0.52812648 -0.10625845 0.35409695
v 0.30123031 0.07474300 0.69639182
v 0.50842434 0.07130581 0.79232532
v 0.49625215 0.06552993 0.79766381
v 0.50931287 0.05197607 0.78344554
v 0.50218278 0.03693396 0.78138417
v 0.51551002 0.04662541 0.77694428
v 0.52812648 0.04981455 0.76975584
v 0.52812648 0.05215325 0.77081299
v 0.50946832 0.07474300 0.79301244
v 0.30123031 -0.10625845 0.56145072
v 0.52812648 -0.10625845 0.67551374
v 0.30123031 0.07474300 0.89407295
v 0.50493705 0.07474300 0.79597235
v 0.49933964 0.07474300 0.79956657
v 0.48292491 0.05583848 0.80178654
v 0.48974401 0.04949563 0.79480958
v 0.48974401 0.07130581 0.80400646
v 0.49727392 0.02361044 0.77821279
v 0.50931287 0.03016590 0.77335006
v 0.47817153 0.04251496 0.79887944
v 0.49036595 0.03016590 0.78566551
v 0.52439481 0.02998872 0.76304317
v 0.52812648 0.03319558 0.76198602
v 0.30123031 -0.10625845 0.80279076
v 0.52812648 -0.10030539 0.68021792
v 0.52626061 -0.10625845 0.67699373
v 0.30123031 0.07013646 0.89243442
v 0.31000406 0.06999472 0.88942164
v 0.30998185 0.07474300 0.89111304
v 0.49474174 0.07474300 0.80236793
v 0.46973094 0.06941004 0.81515908
v 0.45833617 0.06234078 0.81901753
v 0.47090819 0.04949563 0.80622643
v 0.47181889 0.07474300 0.81600475
v 0.49036595 0.00902898 0.77530575
v 0.50222719 -0.00282399 0.76145744
v 0.50933504 0.01150942 0.76410025
v 0.52057433 0.01919880 0.76040035
v 0.48392445 0.01505291 0.78244126
v 0.47090819 0.02814611 0.79671240
v 0.46484432 0.03358537 0.80289650
v 0.45977995 0.02026184 0.79983085
v 0.52812648 0.02509871 0.75802183
v 0.30627245 -0.10625845 0.80099368
v 0.30123031 -0.10588638 0.80305505
v 0.52812648 -0.08928514 0.68846345
v 0.52295107 -0.10292757 0.68222648
v 0.52124071 -0.10625845 0.68095791
v 0.30123031 0.05050553 0.88503456
v 0.30884904 0.05084215 0.88260323
v 0.32204300 0.05808860 0.88070041
v 0.32921749 0.07079200 0.88276184
v 0.33612543 0.07474300 0.88165182
v 0.46391141 0.07474300 0.82065606
v 0.46255645 0.07474300 0.82144892
v 0.46109048 0.07474300 0.82229459
v 0.45100620 0.06941004 0.82588881
v 0.44376507 0.04999172 0.82208323
v 0.45376050 0.04999172 0.81648046
v 0.47859356 0.00171168 0.77911133
v 0.49007720 -0.00969836 0.76568592
v 0.49678522 -0.01614751 0.75786328
v 0.51104540 -0.01134608 0.75072771
v 0.51555443 0.00585756 0.75691187
v 0.52812648 0.01019833 0.75035775
v 0.47115254 0.00902898 0.78735685
v 0.44001123 0.03996364 0.81996894
v 0.44989559 0.03011274 0.80992633
v 0.45549303 0.00998572 0.79734665
v 0.44549760 0.00998572 0.80310792
v 0.31000406 -0.10625845 0.79956657
v 0.31000406 -0.10287441 0.80194509
v 0.30123031 -0.09008242 0.81346768
v 0.52812648 -0.08855872 0.68899202
v 0.52064097 -0.08067445 0.70046175
v 0.51397735 -0.09401570 0.69559902
v 0.50065017 -0.10060659 0.70046175
v 0.50620317 -0.10625845 0.69205767
v 0.30123031 0.03861712 0.88043612
v 0.30140799 0.03881201 0.88048899
v 0.31473523 0.04474736 0.87811047
v 0.32921749 0.05084215 0.87515056
v 0.33537024 0.06466177 0.87826908
v 0.34025687 0.07474300 0.88011897
v 0.45053974 0.07474300 0.82810879
v 0.43332541 0.07474300 0.83746427
v 0.43048227 0.06864819 0.83661854
v 0.42999360 0.04999172 0.82937729
v 0.47115254 -0.01178902 0.77667999
v 0.46526635 -0.00629661 0.78323412
v 0.49007720 -0.03030375 0.75411052
v 0.50089449 -0.04100509 0.74057937
v 0.50558120 -0.02998484 0.74385643
v 0.51986355 -0.01985046 0.73989224
v 0.48345801 -0.02383688 0.76219743
v 0.52508342 -0.00652694 0.74359214
v 0.52812648 -0.00454258 0.74248219
v 0.43434715 0.02662241 0.81700903
v 0.41468948 0.04999172 0.83730572
v 0.42861643 0.03197308 0.82240033
v 0.44087750 -0.00099909 0.80046511
v 0.31522390 -0.10625845 0.79755807
v 0.32008833 -0.10003963 0.79998946
v 0.30831593 -0.08816893 0.81214631
v 0.30123031 -0.08102880 0.81938756
v 0.52812648 -0.07659945 0.69760752
v 0.52812648 -0.06807736 0.70347452
v 0.51766455 -0.05741145 0.71832705
v 0.51060116 -0.07073497 0.71441573
v 0.49787363 -0.07789282 0.71853846
v 0.50837994 -0.08839926 0.70368594
v 0.49658534 -0.10625845 0.69892895
v 0.49072134 -0.09056079 0.71436286
v 0.47739410 -0.09761234 0.71827418
v 0.48998836 -0.10539030 0.70405596
v 0.30123031 0.02848274 0.87604910
v 0.30884904 0.03128210 0.87462199
v 0.33108330 0.02880165 0.86537218
v 0.34560999 0.03466613 0.86225367
v 0.35136291 0.04864519 0.86563647
v 0.34909728 0.07079200 0.87509769
v 0.34512132 0.07474300 0.87816334
v 0.42457384 0.07474300 0.84200990
v 0.42412961 0.07442409 0.84211558
v 0.41915411 0.06110056 0.83952564
v 0.45964667 -0.01960241 0.77974564
v 0.45027319 -0.01031847 0.79010534
v 0.47739410 -0.03717812 0.75828612
v 0.48128122 -0.06127385 0.74084365
v 0.49460846 -0.05432861 0.73635089
v 0.50433731 -0.06456929 0.72303122
v 0.50929064 -0.04920827 0.72947967
v 0.52357298 -0.04408793 0.72255552
v 0.51557666 -0.02998484 0.73687947
v 0.48876667 -0.04860588 0.74385643
v 0.52812648 -0.02978995 0.72794682
v 0.52812648 -0.01398598 0.73724949
v 0.47044176 -0.03030375 0.76674306
v 0.42101991 0.01886217 0.82049751
v 0.42861643 0.01131453 0.81288624
v 0.40467185 0.04999172 0.84232700
v 0.40040714 0.03953843 0.84015989
v 0.40824798 0.03172503 0.83270723
v 0.43445820 -0.01432262 0.79702950
v 0.41475612 0.00552093 0.81732619
v 0.42866087 -0.00859988 0.80305505
v 0.32604116 -0.10625845 0.79317105
v 0.33343777 -0.09587602 0.79724091
v 0.32806247 -0.08951546 0.80358362
v 0.31384674 -0.07610336 0.81764328
v 0.30123031 -0.08005434 0.82002181
v 0.52812648 -0.05156469 0.71441573
v 0.48958853 -0.06958333 0.72969109
v 0.47446212 -0.07461509 0.73635089
v 0.48454639 -0.08427110 0.72303122
v 0.48938861 -0.10625845 0.70379168
v 0.46926451 -0.08932057 0.72947967
v 0.46406689 -0.10361855 0.72266126
v 0.46662128 -0.10625845 0.71901417
v 0.30123031 0.00970224 0.86764503
v 0.31013733 0.00945420 0.86447364
v 0.32515270 0.01577933 0.86188370
v 0.33847991 0.02132489 0.85939950
v 0.35136291 0.02880165 0.85733807
v 0.35893720 0.04107985 0.85950518
v 0.36511219 0.05442109 0.86220086
v 0.35069656 0.07474300 0.87589049
v 0.37106499 0.06909113 0.86521363
v 0.42426288 0.07474300 0.84216845
v 0.41151315 0.06864819 0.84623837
v 0.43983352 -0.03985346 0.77990419
v 0.45178363 -0.03191604 0.77736712
v 0.46406689 -0.04422967 0.76256746
v 0.44631946 -0.02651222 0.78365695
v 0.47044176 -0.05053708 0.75458622
v 0.45751432 -0.05755319 0.75844467
v 0.46866477 -0.06876834 0.74401504
v 0.52812648 -0.04851729 0.71637136
v 0.52812648 -0.04139487 0.72091699
v 0.39405447 0.02619719 0.83719999
v 0.40886992 0.01131453 0.82303464
v 0.39041170 0.06909113 0.85654527
v 0.39001188 0.04999172 0.84925115
v 0.38843483 0.03172503 0.84227419
v 0.42113099 -0.02107296 0.80057085
v 0.43048227 -0.03046321 0.79026395
v 0.40142888 -0.00142431 0.82065606
v 0.40886992 -0.00886564 0.81315053
v 0.33017260 -0.10625845 0.79142678
v 0.35027450 -0.08951546 0.79412246
v 0.34376639 -0.08253479 0.80162799
v 0.34911948 -0.10625845 0.78328693
v 0.32417536 -0.06276212 0.82160747
v 0.30831593 -0.06965420 0.82356316
v 0.30123031 -0.07927477 0.82049751
v 0.33050579 -0.06965420 0.81494766
v 0.46111268 -0.08104652 0.74068511
v 0.45573735 -0.10625845 0.72599113
v 0.46255645 -0.10625845 0.72165698
v 0.45360500 -0.09438775 0.73598093
v 0.44025555 -0.10021681 0.74015653
v 0.30123031 -0.00370986 0.86151373
v 0.30354035 -0.00264682 0.86124945
v 0.31686759 0.00243809 0.85881805
v 0.33108330 0.00945420 0.85675669
v 0.35000798 0.00998572 0.84946257
v 0.36833292 0.01156258 0.84232700
v 0.37002105 0.02998872 0.84983253
v 0.37106499 0.04864519 0.85723239
v 0.37843940 0.06182698 0.85929376
v 0.37039864 0.07474300 0.86753929
v 0.38308173 0.07474300 0.86204231
v 0.41089121 0.07474300 0.84877545
v 0.39312157 0.07474300 0.85739094
v 0.41904303 -0.05916547 0.77948135
v 0.43190384 -0.05149382 0.77710283
v 0.44418710 -0.06387831 0.76246172
v 0.41397870 -0.03439648 0.79681808
v 0.42650628 -0.04582424 0.78349841
v 0.45049530 -0.07032747 0.75442761
v 0.38843483 0.01156258 0.83302438
v 0.38072723 0.01928739 0.84031850
v 0.38445887 0.07474300 0.86140800
v 0.40065145 -0.04054444 0.80030656
v 0.39438766 -0.01476555 0.81727332
v 0.40838125 -0.02863831 0.80289650
v 0.38863474 -0.00886564 0.82298177
v 0.37386373 0.00596386 0.83714712
v 0.36053649 -0.00048529 0.84021276
v 0.35711583 -0.07791054 0.79866803
v 0.36195806 -0.10133301 0.78090847
v 0.35027450 -0.07073497 0.80601501
v 0.33750260 -0.05826189 0.81896472
v 0.35771555 -0.10625845 0.77937561
v 0.33050579 -0.05096230 0.82588881
v 0.31000406 -0.04931457 0.83471578
v 0.30123031 -0.05236198 0.83609003
v 0.44816306 -0.08862959 0.74343359
v 0.44918481 -0.10625845 0.73011392
v 0.41500044 -0.09608863 0.75722897
v 0.42999360 -0.10423866 0.74306363
v 0.43583536 -0.10625845 0.73825371
v 0.44607511 -0.10625845 0.73206961
v 0.43674606 -0.07721956 0.75812757
v 0.42341882 -0.08274740 0.76188034
v 0.30123031 -0.00588911 0.86045659
v 0.30123031 -0.01313555 0.85686243
v 0.31013733 -0.00959206 0.85543525
v 0.33154976 -0.01164728 0.84644979
v 0.35000798 -0.00493237 0.84243274
v 0.41144651 -0.07085899 0.77609855
v 0.43003801 -0.07032747 0.76632023
v 0.40571582 -0.06478190 0.78296983
v 0.38863474 -0.02854973 0.81267488
v 0.37002105 -0.03563670 0.81759048
v 0.39001188 -0.04497380 0.80289650
v 0.37928346 -0.05941352 0.79961944
v 0.39001188 -0.05496644 0.79697663
v 0.38106042 -0.02091351 0.82044470
v 0.36833292 -0.00829868 0.83270723
v 0.35000798 -0.01492501 0.83741140
v 0.37002105 -0.02564406 0.82298177
v 0.36917698 -0.08994068 0.78503120
v 0.38430339 -0.08322577 0.78212416
v 0.37157589 -0.07073497 0.79628950
v 0.36593401 -0.06456929 0.80273795
v 0.36662260 -0.10625845 0.77509427
v 0.37197569 -0.10625845 0.77245152
v 0.37528530 -0.09656700 0.77763140
v 0.35196263 -0.05096230 0.81700903
v 0.35995898 -0.03994204 0.81996894
v 0.34660953 -0.04493836 0.82277036
v 0.33154976 -0.03056952 0.83672428
v 0.31666768 -0.03763878 0.83873284
v 0.30331823 -0.04219216 0.84116417
v 0.30123031 -0.04438912 0.84068847
v 0.40644881 -0.10625845 0.75469190
v 0.42301899 -0.10625845 0.74549496
v 0.40902540 -0.08963948 0.76494598
v 0.40169543 -0.10127985 0.76087606
v 0.42999360 -0.10625845 0.74158365
v 0.39763063 -0.07810543 0.77874136
v 0.30123031 -0.02964821 0.84840548
v 0.31000406 -0.03056952 0.84486413
v 0.32590789 -0.02429754 0.84222132
v 0.33923513 -0.01940752 0.83968425
v 0.39058942 -0.07085899 0.78688115
v 0.37157589 -0.05163556 0.80775928
v 0.35196263 -0.03196919 0.82763308
v 0.39058942 -0.08994068 0.77440715
v 0.38707989 -0.10625845 0.76489311
v 0.30123031 -0.04282999 0.84153420
v 0.39760840 -0.10625845 0.75944895
v 0.38943437 -0.10625845 0.76367742
f 1 2 3
f 1 3 8
f 1 8 17
f 1 17 16
f 1 16 32
f 1 32 52
f 1 52 74
f 1 74 106
f 1 106 146
f 1 146 145
f 1 145 188
f 1 188 187
f 1 187 161
f 1 161 116
f 1 116 115
f 1 115 83
f 1 83 55
f 1 55 34
f 1 34 20
f 1 20 9
f 1 9 4
f 1 4 10
f 1 10 21
f 1 21 38
f 1 38 62
f 1 62 93
f 1 93 131
f 1 131 176
f 1 176 220
f 1 220 221
f 1 221 232
f 1 232 223
f 1 223 222
f 1 222 178
f 1 178 132
f 1 132 95
f 1 95 94
f 1 94 65
f 1 65 64
f 1 64 63
f 1 63 43
f 1 43 39
f 1 39 23
f 1 23 22
f 1 22 18
f 1 18 6
f 1 6 2
f 2 5 3
f 2 6 7
f 2 7 5
f 3 5 8
f 4 9 10
f 5 7 11
f 5 11 12
f 5 12 13
f 5 13 14
f 5 14 15
f 5 15 16
f 5 16 17
f 5 17 8
f 6 18 11
f 6 11 7
f 9 19 10
f 9 20 35
f 9 35 57
f 9 57 87
f 9 87 121
f 9 121 165
f 9 165 168
f 9 168 208
f 9 208 207
f 9 207 248
f 9 248 252
f 9 252 251
f 9 251 290
f 9 290 287
f 9 287 286
f 9 286 302
f 9 302 303
f 9 303 300
f 9 300 277
f 9 277 276
f 9 276 243
f 9 243 201
f 9 201 198
f 9 198 156
f 9 156 111
f 9 111 80
f 9 80 53
f 9 53 33
f 9 33 19
f 10 19 33
f 10 33 54
f 10 54 82
f 10 82 114
f 10 114 160
f 10 160 204
f 10 204 246
f 10 246 285
f 10 285 301
f 10 301 292
f 10 292 256
f 10 256 255
f 10 255 211
f 10 211 169
f 10 169 125
f 10 125 88
f 10 88 58
f 10 58 36
f 10 36 21
f 11 18 22
f 11 22 23
f 11 23 12
f 12 24 25
f 12 25 13
f 12 23 26
f 12 26 24
f 13 25 14
f 14 27 28
f 14 28 15
f 14 25 29
f 14 29 30
f 14 30 27
f 15 28 31
f 15 31 32
f 15 32 16
f 20 34 35
f 21 36 37
f 21 37 38
f 23 39 26
f 24 29 25
f 24 26 40
f 24 40 41
f 24 41 42
f 24 42 29
f 26 43 40
f 26 39 43
f 27 44 45
f 27 45 46
f 27 46 47
f 27 47 28
f 27 30 48
f 27 48 44
f 28 47 31
f 29 49 30
f 29 42 50
f 29 50 49
f 30 49 51
f 30 51 48
f 31 47 52
f 31 52 32
f 33 53 54
f 34 55 56
f 34 56 57
f 34 57 35
f 36 58 59
f 36 59 37
f 37 59 60
f 37 60 61
f 37 61 38
f 38 61 62
f 40 43 63
f 40 63 64
f 40 64 41
f 41 64 65
f 41 65 66
f 41 66 67
f 41 67 68
f 41 68 42
f 42 68 50
f 44 48 69
f 44 69 45
f 45 69 70
f 45 70 71
f 45 71 72
f 45 72 73
f 45 73 46
f 46 73 47
f 47 73 74
f 47 74 52
f 48 51 75
f 48 75 69
f 49 50 51
f 50 68 76
f 50 76 77
f 50 77 51
f 51 78 75
f 51 77 79
f 51 79 78
f 53 80 81
f 53 81 54
f 54 81 82
f 55 83 84
f 55 84 85
f 55 85 56
f 56 85 86
f 56 86 57
f 57 86 87
f 58 88 89
f 58 89 59
f 59 89 90
f 59 90 60
f 60 90 91
f 60 91 92
f 60 92 61
f 61 92 62
f 62 92 93
f 65 94 66
f 66 94 95
f 66 95 96
f 66 96 67
f 67 76 68
f 67 96 97
f 67 97 76
f 69 98 70
f 69 75 99
f 69 99 98
f 70 98 71
f 71 100 101
f 71 101 102
f 71 102 103
f 71 103 72
f 71 98 104
f 71 104 100
f 72 105 73
f 72 103 105
f 73 105 74
f 74 105 106
f 75 78 99
f 76 107 77
f 76 97 108
f 76 108 109
f 76 109 107
f 77 107 79
f 78 79 110
f 78 110 99
f 79 107 110
f 80 111 81
f 81 111 112
f 81 112 113
f 81 113 114
f 81 114 82
f 83 115 84
f 84 116 117
f 84 117 118
f 84 118 119
f 84 119 120
f 84 120 86
f 84 86 85
f 84 115 116
f 86 121 87
f 86 120 119
f 86 119 122
f 86 122 123
f 86 123 124
f 86 124 121
f 88 125 89
f 89 125 126
f 89 126 90
f 90 126 127
f 90 127 91
f 91 127 128
f 91 128 129
f 91 129 92
f 92 129 130
f 92 130 93
f 93 130 131
f 95 132 96
f 96 132 133
f 96 133 134
f 96 134 97
f 97 134 108
f 98 99 135
f 98 135 104
f 99 110 136
f 99 136 135
f 100 104 137
f 100 137 101
f 101 138 139
f 101 139 140
f 101 140 141
f 101 141 142
f 101 142 143
f 101 143 102
f 101 137 144
f 101 144 138
f 102 143 103
f 103 143 145
f 103 145 146
f 103 146 105
f 104 135 147
f 104 147 137
f 105 146 106
f 107 109 148
f 107 148 149
f 107 149 110
f 108 134 150
f 108 150 151
f 108 151 109
f 109 151 152
f 109 152 148
f 110 153 136
f 110 149 154
f 110 154 155
f 110 155 153
f 111 156 112
f 112 156 157
f 112 157 158
f 112 158 113
f 113 158 159
f 113 159 160
f 113 160 114
f 116 161 117
f 117 161 142
f 117 142 141
f 117 141 140
f 117 140 118
f 118 140 119
f 119 140 162
f 119 162 163
f 119 163 164
f 119 164 122
f 121 124 165
f 122 164 123
f 123 164 166
f 123 166 167
f 123 167 168
f 123 168 124
f 124 168 165
f 125 169 170
f 125 170 126
f 126 170 171
f 126 171 127
f 127 171 172
f 127 172 128
f 128 172 173
f 128 173 174
f 128 174 129
f 129 174 175
f 129 175 130
f 130 176 131
f 130 175 177
f 130 177 176
f 132 178 133
f 133 178 179
f 133 179 134
f 134 179 150
f 135 180 181
f 135 181 182
f 135 182 147
f 135 136 153
f 135 153 183
f 135 183 180
f 137 184 144
f 137 147 182
f 137 182 184
f 138 163 162
f 138 162 140
f 138 140 139
f 138 144 184
f 138 184 185
f 138 185 186
f 138 186 163
f 142 161 187
f 142 187 188
f 142 188 143
f 143 188 145
f 148 154 149
f 148 152 189
f 148 189 190
f 148 190 154
f 150 179 191
f 150 191 192
f 150 192 151
f 151 189 152
f 151 192 193
f 151 193 189
f 153 155 194
f 153 194 195
f 153 195 180
f 153 180 183
f 154 190 196
f 154 196 197
f 154 197 155
f 155 197 194
f 156 198 157
f 157 199 200
f 157 200 158
f 157 198 201
f 157 201 199
f 158 200 159
f 159 202 203
f 159 203 204
f 159 204 160
f 159 200 205
f 159 205 202
f 163 186 206
f 163 206 164
f 164 206 166
f 166 206 167
f 167 207 208
f 167 208 168
f 167 206 209
f 167 209 210
f 167 210 207
f 169 211 212
f 169 212 170
f 170 212 213
f 170 213 171
f 171 213 214
f 171 214 172
f 172 214 215
f 172 215 173
f 173 215 216
f 173 216 217
f 173 217 174
f 174 217 193
f 174 193 218
f 174 218 175
f 175 218 219
f 175 219 177
f 176 177 220
f 177 219 221
f 177 221 220
f 178 222 179
f 179 222 223
f 179 223 191
f 180 224 225
f 180 225 226
f 180 226 185
f 180 185 182
f 180 182 181
f 180 195 227
f 180 227 228
f 180 228 224
f 182 185 184
f 185 229 206
f 185 206 186
f 185 226 229
f 189 230 196
f 189 196 190
f 189 193 231
f 189 231 230
f 191 223 232
f 191 232 221
f 191 221 219
f 191 219 192
f 192 219 218
f 192 218 193
f 193 217 231
f 194 233 227
f 194 227 195
f 194 197 234
f 194 234 235
f 194 235 233
f 196 236 234
f 196 234 197
f 196 230 237
f 196 237 238
f 196 238 236
f 199 239 200
f 199 201 240
f 199 240 239
f 200 239 241
f 200 241 242
f 200 242 205
f 201 243 240
f 202 205 242
f 202 242 244
f 202 244 245
f 202 245 203
f 203 245 246
f 203 246 204
f 206 229 247
f 206 247 209
f 207 210 248
f 209 247 210
f 210 249 250
f 210 250 251
f 210 251 252
f 210 252 248
f 210 247 253
f 210 253 254
f 210 254 249
f 211 255 212
f 212 255 256
f 212 256 257
f 212 257 213
f 213 257 258
f 213 258 214
f 214 258 259
f 214 259 215
f 215 259 238
f 215 238 216
f 216 238 231
f 216 231 217
f 224 260 261
f 224 261 226
f 224 226 225
f 224 228 233
f 224 233 262
f 224 262 260
f 226 261 253
f 226 253 229
f 227 233 228
f 229 253 247
f 230 231 237
f 231 238 237
f 233 235 234
f 233 234 263
f 233 263 264
f 233 264 265
f 233 265 266
f 233 266 267
f 233 267 262
f 234 236 268
f 234 268 263
f 236 238 269
f 236 269 268
f 238 259 270
f 238 270 271
f 238 271 269
f 239 240 272
f 239 272 273
f 239 273 274
f 239 274 275
f 239 275 241
f 240 243 276
f 240 276 277
f 240 277 278
f 240 278 272
f 241 279 242
f 241 275 279
f 242 279 280
f 242 280 281
f 242 281 244
f 244 282 283
f 244 283 245
f 244 281 282
f 245 283 284
f 245 284 285
f 245 285 246
f 249 286 287
f 249 287 250
f 249 254 288
f 249 288 289
f 249 289 286
f 250 290 251
f 250 287 290
f 253 261 254
f 254 261 260
f 254 260 291
f 254 291 288
f 256 292 293
f 256 293 257
f 257 293 294
f 257 294 258
f 258 294 295
f 258 295 259
f 259 295 270
f 260 262 291
f 262 267 296
f 262 296 291
f 263 268 264
f 264 268 280
f 264 280 265
f 265 280 297
f 265 297 266
f 266 297 275
f 266 275 274
f 266 274 296
f 266 296 267
f 268 269 271
f 268 271 280
f 270 295 298
f 270 298 280
f 270 280 271
f 272 278 273
f 273 296 274
f 273 278 299
f 273 299 291
f 273 291 296
f 275 297 280
f 275 280 279
f 277 300 278
f 278 300 299
f 280 298 281
f 281 298 295
f 281 295 282
f 282 295 283
f 283 295 294
f 283 294 293
f 283 293 284
f 284 293 292
f 284 292 301
f 284 301 285
f 286 289 302
f 288 291 299
f 288 299 289
f 289 299 300
f 289 300 303
f 289 303 302
