v 0.52814865 -0.36122310 0.01002528
v 0.52814865 -0.36098140 0.03002992
v 0.52814865 -0.36114252 0.00098473
v 0.57595509 -0.34220856 0.00098473
v 0.57000291 -0.34454513 0.01002528
v 0.58053732 -0.34019434 0.03002992
v 0.52814865 -0.36041743 0.05000250
v 0.58020663 -0.34003323 0.04205194
v 0.55006778 -0.35179645 0.05000250
v 0.52814865 -0.18574169 0.00098473
v 0.58082080 -0.34019434 0.01002528
v 0.59078830 -0.33608526 0.00098473
v 0.59083557 -0.33608526 0.01002528
v 0.59050488 -0.33600473 0.03002992
v 0.52814865 -0.35953116 0.07000715
v 0.58814287 -0.33640754 0.04923309
v 0.57963979 -0.33979148 0.05538837
v 0.57179803 -0.34317541 0.04923309
v 0.56877470 -0.34349769 0.07000715
v 0.55006778 -0.35091013 0.07000715
v 0.52814865 -0.11991601 0.32849658
v 0.82282907 0.39452332 0.32849658
v 0.83312726 0.41184586 0.32849658
v 0.90049088 0.41909719 0.00098473
v 0.61006206 -0.32762545 0.00098473
v 0.61006206 -0.32770598 0.01002528
v 0.61006206 -0.32738370 0.03002992
v 0.61006206 -0.32681972 0.05000250
v 0.52814865 -0.35896713 0.07936829
v 0.55006778 -0.34978217 0.09001178
v 0.59003246 -0.33471560 0.07000715
v 0.57878947 -0.33938867 0.07000715
v 0.56735748 -0.34285313 0.09001178
v 0.57737231 -0.33882463 0.09001178
v 0.52814865 -0.32045472 0.32849658
v 0.83912671 0.42086971 0.32849658
v 0.90535653 0.42505932 0.00098473
v 0.62310016 -0.32150209 0.00098473
v 0.62310016 -0.32150209 0.01002528
v 0.62286401 -0.32134098 0.03002992
v 0.61006206 -0.32585287 0.07000715
v 0.62224984 -0.32101870 0.05000250
v 0.62125784 -0.32053524 0.07000715
v 0.52814865 -0.35832256 0.09001178
v 0.56556237 -0.34220856 0.11001642
v 0.55006778 -0.34833193 0.11001642
v 0.52814865 -0.35800034 0.09478853
v 0.59003246 -0.33350706 0.09001178
v 0.57552993 -0.33809954 0.11001642
v 0.52814865 -0.32303292 0.31836602
v 0.52932966 -0.31997126 0.32849658
v 0.84696847 0.42941010 0.32849658
v 0.91886711 0.44093162 0.00098473
v 0.90937191 0.42989355 0.00098473
v 0.62763518 -0.31924617 0.00098473
v 0.63311493 -0.31634563 0.01002528
v 0.63283151 -0.31618446 0.03002992
v 0.63226461 -0.31586224 0.05000250
v 0.62045479 -0.32013243 0.08289475
v 0.61166823 -0.32383865 0.08972325
v 0.63122535 -0.31529820 0.07000715
v 0.56343663 -0.34132230 0.13005312
v 0.55006778 -0.34655935 0.13005312
v 0.52814865 -0.35534149 0.12777695
v 0.52814865 -0.35687232 0.11030495
v 0.60821974 -0.32383865 0.11001642
v 0.59003246 -0.33197623 0.11001642
v 0.57340419 -0.33721328 0.13005312
v 0.53821069 -0.31916559 0.31689131
v 0.52814865 -0.32504719 0.31009489
v 0.53476220 -0.31763476 0.32849658
v 0.85835320 0.44117332 0.32849658
v 0.85906178 0.44165677 0.32849658
v 0.92996836 0.44834405 0.00098473
v 0.63311493 -0.31634563 0.00098473
v 0.65007395 -0.30724120 0.01002528
v 0.65007395 -0.30683839 0.03002992
v 0.65007395 -0.30611324 0.05000250
v 0.65158564 -0.30426013 0.06821185
v 0.62829649 -0.31545937 0.08972325
v 0.61946273 -0.31964898 0.09619912
v 0.64818436 -0.30458242 0.09001178
v 0.56149977 -0.34051663 0.14531307
v 0.55176842 -0.34373945 0.15121187
v 0.52814865 -0.35300499 0.15002570
v 0.59003246 -0.33012307 0.13005312
v 0.61823452 -0.31908500 0.11001642
v 0.60614121 -0.32287180 0.13005312
v 0.56891638 -0.33681041 0.15121187
v 0.54926473 -0.31594276 0.31012693
v 0.54869783 -0.31135029 0.32849658
v 0.54208434 -0.32077700 0.30355489
v 0.52814865 -0.32972026 0.29005820
v 0.53003824 -0.32899511 0.28999406
v 0.86992687 0.44826353 0.32849658
v 0.87148577 0.44906920 0.32849658
v 0.94787216 0.45728731 0.00098473
v 0.65007395 -0.30724120 0.00098473
v 0.66141146 -0.30079561 0.00098473
v 0.66136420 -0.30079561 0.01002528
v 0.66108078 -0.30055392 0.03002992
v 0.66051388 -0.30023164 0.05000250
v 0.66008878 -0.29998994 0.06035747
v 0.65928566 -0.29950649 0.07369389
v 0.63004440 -0.31280053 0.11001642
v 0.65815192 -0.29878139 0.09001178
v 0.64648378 -0.30369616 0.11001642
v 0.55961019 -0.33979148 0.15861744
v 0.52814865 -0.35099071 0.16746564
v 0.60377920 -0.32174385 0.15002570
v 0.59003246 -0.32786715 0.15002570
v 0.61615598 -0.31803757 0.13005312
v 0.57000291 -0.33399045 0.16999829
v 0.57000291 -0.31143087 0.28999406
v 0.57146734 -0.30522698 0.31092840
v 0.55578381 -0.31803757 0.28999406
v 0.56617653 -0.30297101 0.32849658
v 0.54581624 -0.32238835 0.28999406
v 0.55904335 -0.31948787 0.27803615
v 0.52814865 -0.33407104 0.26998943
v 0.55143774 -0.32432204 0.27079087
v 0.89099574 0.45777076 0.32849658
v 0.95788693 0.46059072 0.00098473
v 0.67137903 -0.29435003 0.00098473
v 0.67137903 -0.29435003 0.01002528
v 0.67109555 -0.29410833 0.03002992
v 0.67048144 -0.29370546 0.05000250
v 0.66807222 -0.29418886 0.06821185
v 0.67005628 -0.29104668 0.09001178
v 0.64459419 -0.30256814 0.13005312
v 0.63004440 -0.31062514 0.13005312
v 0.65649855 -0.29781455 0.11001642
v 0.67005628 -0.28903240 0.11001642
v 0.55781507 -0.33906639 0.16999829
v 0.54780030 -0.34301430 0.16999829
v 0.52814865 -0.35066843 0.16999829
v 0.61374676 -0.31682903 0.15002570
v 0.60165340 -0.32077700 0.16547801
v 0.59182757 -0.32432204 0.17128062
v 0.55441386 -0.33769667 0.18997087
v 0.57000291 -0.33117050 0.18997087
v 0.56938881 -0.31626505 0.27079087
v 0.59168589 -0.30538809 0.27120766
v 0.58658397 -0.30329329 0.28999406
v 0.58271039 -0.30135959 0.30490136
v 0.57907289 -0.29942596 0.31823778
v 0.57619131 -0.29789507 0.32849658
v 0.56230283 -0.32093811 0.26469973
v 0.57571888 -0.31795704 0.24998477
v 0.52814865 -0.33761609 0.25251740
v 0.55006778 -0.32923681 0.24998477
v 0.89912093 0.46018785 0.32849658
v 0.90809643 0.46107411 0.32849658
v 0.96998030 0.46171868 0.00098473
v 0.68625945 -0.28435934 0.00098473
v 0.68621224 -0.28427875 0.01002528
v 0.68592882 -0.28411764 0.03002992
v 0.68536192 -0.28371477 0.05000250
v 0.68441713 -0.28307021 0.07000715
v 0.68323612 -0.28218395 0.09001178
v 0.63004440 -0.30812746 0.15002570
v 0.65456176 -0.29668653 0.13005312
v 0.64227945 -0.30127907 0.15002570
v 0.68172449 -0.28113657 0.11001642
v 0.68068522 -0.28033084 0.12325667
v 0.67166245 -0.28556788 0.12995695
v 0.54439908 -0.34172517 0.18997087
v 0.52814865 -0.34800965 0.18981057
v 0.60902280 -0.31618446 0.17128062
v 0.59966934 -0.31981015 0.17884649
v 0.58776498 -0.32343578 0.18997087
v 0.57000291 -0.32802826 0.20997550
v 0.54907578 -0.33664924 0.21058461
v 0.54175365 -0.34059721 0.20433317
v 0.59003246 -0.31102800 0.24998477
v 0.60245645 -0.30127907 0.26534089
v 0.59938592 -0.29958707 0.27867734
v 0.59655154 -0.29805624 0.28999406
v 0.58960736 -0.29588085 0.31092840
v 0.58866251 -0.29104668 0.32849658
v 0.56575131 -0.32246894 0.24998477
v 0.57869500 -0.31932670 0.23680866
v 0.53641558 -0.33850235 0.22998014
v 0.52814865 -0.34003323 0.23943746
v 0.55006778 -0.33294302 0.22998014
v 0.57123113 -0.32391924 0.23007631
v 0.92429960 0.46107411 0.32849658
v 0.92996836 0.46147698 0.28999406
v 0.92996836 0.46147698 0.26998943
v 0.91258419 0.46115470 0.30999869
v 0.96998030 0.46187985 0.05000250
v 0.97569627 0.46147698 0.00098473
v 0.69627428 -0.27718860 0.00098473
v 0.69622701 -0.27718860 0.01002528
v 0.69594359 -0.27694690 0.03002992
v 0.69532949 -0.27646351 0.05000250
v 0.69443190 -0.27573836 0.07000715
v 0.69320369 -0.27493268 0.09001178
v 0.64072055 -0.30031222 0.16249654
v 0.63131988 -0.30450183 0.16942123
v 0.66788328 -0.28524560 0.15002570
v 0.65229422 -0.29523629 0.15002570
v 0.69173926 -0.27380466 0.11001642
v 0.67940974 -0.27952516 0.13662516
v 0.68838525 -0.27372408 0.12995695
v 0.53150266 -0.34365886 0.21058461
v 0.52814865 -0.34535080 0.20744286
v 0.61006206 -0.31263942 0.18997087
v 0.58412755 -0.32182437 0.20997550
v 0.59777975 -0.31884331 0.18997087
v 0.58148211 -0.32061583 0.22347222
v 0.53910822 -0.33954978 0.21766959
v 0.60571599 -0.30305159 0.24998477
v 0.58889872 -0.31578165 0.23007631
v 0.61856520 -0.29910368 0.23623160
v 0.61573082 -0.29741168 0.24998477
v 0.60949516 -0.29571974 0.27120766
v 0.61006206 -0.29032153 0.28999406
v 0.61053443 -0.28443992 0.30900487
v 0.60250372 -0.28323138 0.32849658
v 0.52814865 -0.34172517 0.22998014
v 0.94347888 0.46107411 0.26998943
v 0.93412542 0.45712620 0.32849658
v 0.93686533 0.45897931 0.31442279
v 0.94026661 0.46010727 0.30108637
v 0.94140035 0.46051013 0.28999406
v 0.94995070 0.46163809 0.20997550
v 0.94995070 0.46171868 0.18997087
v 0.96998030 0.46171868 0.09001178
v 0.98264050 0.46107411 0.03002992
v 0.98278219 0.46107411 0.01002528
v 0.98278219 0.46107411 0.00098473
v 0.70326573 -0.27170986 0.00098473
v 0.70898169 -0.26711738 0.01002528
v 0.70869827 -0.26695621 0.03002992
v 0.70817864 -0.26647282 0.05000250
v 0.70732832 -0.26574767 0.07000715
v 0.70619458 -0.26486140 0.09001178
v 0.70487183 -0.26381397 0.11001642
v 0.63883096 -0.29926479 0.17576885
v 0.64842057 -0.29443061 0.16942123
v 0.62669039 -0.30369616 0.18997087
v 0.67789805 -0.27839714 0.15002570
v 0.66542685 -0.28355366 0.16999829
v 0.70321846 -0.26244432 0.13005312
v 0.69003862 -0.26945388 0.15002570
v 0.52814865 -0.34285313 0.22311957
v 0.59414232 -0.31715131 0.20997550
v 0.61006206 -0.30909431 0.20997550
v 0.61114860 -0.30450183 0.22972366
v 0.62116337 -0.30055392 0.22289516
v 0.62867445 -0.29451114 0.22972366
v 0.63004440 -0.28887129 0.24998477
v 0.63032782 -0.28395647 0.26813000
v 0.62352532 -0.28218395 0.28999406
v 0.62087989 -0.28049201 0.30169550
v 0.61752594 -0.27839714 0.31503192
v 0.60410988 -0.28226453 0.32849658
v 0.96322501 0.46115470 0.18997087
v 0.96067411 0.46034902 0.22430575
v 0.96180785 0.46075183 0.20997550
v 0.94584084 0.44705492 0.32849658
v 0.95141512 0.45325881 0.28999406
v 0.96511459 0.44657153 0.26998943
v 0.95344645 0.45656222 0.26998943
v 0.95869005 0.45970446 0.23764217
v 0.96487844 0.46131581 0.16999829
v 0.96998030 0.46155757 0.11001642
v 0.98235703 0.46099353 0.05000250
v 0.99279702 0.45543420 0.01002528
v 0.99279702 0.45543420 0.00098473
v 0.71351671 -0.26349175 0.00098473
v 0.71899647 -0.25906038 0.01002528
v 0.71871305 -0.25881869 0.03002992
v 0.71814620 -0.25833523 0.05000250
v 0.71734309 -0.25769067 0.07000715
v 0.71620935 -0.25672382 0.09001178
v 0.71483940 -0.25559586 0.11001642
v 0.63670516 -0.29797566 0.18997087
v 0.65007395 -0.28975755 0.18997087
v 0.66268694 -0.28178108 0.18997087
v 0.62338364 -0.30192357 0.20997550
v 0.67544162 -0.27670521 0.16999829
v 0.70128167 -0.26091349 0.15002570
v 0.71318603 -0.25422615 0.13005312
v 0.69112515 -0.26542538 0.16826712
v 0.70019513 -0.26002723 0.16054095
v 0.63339841 -0.29596144 0.20997550
v 0.64605862 -0.28379536 0.22998014
v 0.64223218 -0.28129768 0.24998477
v 0.64010644 -0.28000855 0.26021153
v 0.63722479 -0.27807486 0.27354795
v 0.63354015 -0.27565777 0.28999406
v 0.62853271 -0.27307957 0.30900487
v 0.63004440 -0.26550597 0.32849658
v 0.61398292 -0.27614123 0.32849658
v 0.98018402 0.46002674 0.12251932
v 0.98070365 0.46034902 0.11001642
v 0.98136503 0.46067131 0.09001178
v 0.97323978 0.45607877 0.18997087
v 0.97484595 0.45785135 0.16999829
v 0.97687727 0.45905989 0.15002570
v 0.97867239 0.45962387 0.13588780
v 0.95325744 0.42989355 0.32849658
v 0.96053237 0.44077051 0.30163139
v 0.96228021 0.44326818 0.28999406
v 0.98089260 0.44149560 0.22420958
v 0.98240429 0.44367099 0.20997550
v 0.96776003 0.44874692 0.24998477
v 0.97177541 0.45366168 0.20997550
v 0.98193192 0.46083242 0.07000715
v 0.99265528 0.45519251 0.03002992
v 1.00375652 0.44544357 0.01002528
v 1.00375652 0.44544357 0.00098473
v 0.71899647 -0.25906038 0.00098473
v 0.73562479 -0.24431606 0.00098473
v 0.74020708 -0.24012642 0.01002528
v 0.74011254 -0.24004586 0.02288082
v 0.73987639 -0.23980413 0.03621726
v 0.72948366 -0.24834456 0.05000250
v 0.72868061 -0.24769999 0.07000715
v 0.72764134 -0.24673317 0.09001178
v 0.72636586 -0.24552460 0.11001642
v 0.72485417 -0.24415492 0.13005312
v 0.66084456 -0.28049201 0.20253788
v 0.65120769 -0.28508449 0.20952669
v 0.67270172 -0.27477151 0.18997087
v 0.68640119 -0.26478082 0.18997087
v 0.71124917 -0.25253421 0.15002570
v 0.72296458 -0.24254353 0.15002570
v 0.69854176 -0.25873810 0.17381327
v 0.72131121 -0.24109326 0.16563830
v 0.70997375 -0.24995597 0.16970976
v 0.65862435 -0.27904171 0.21587431
v 0.65607339 -0.27734977 0.22998014
v 0.65219975 -0.27469093 0.24998477
v 0.64808989 -0.27235442 0.26813000
v 0.65049911 -0.26470029 0.28851935
v 0.64374387 -0.26244432 0.30999869
v 0.64086223 -0.26051062 0.32160395
v 0.63117814 -0.26470029 0.32849658
v 0.98788404 0.44906920 0.15002570
v 1.00167799 0.44262362 0.09001178
v 0.99133253 0.45269483 0.09001178
v 0.99189943 0.45382285 0.07000715
v 0.99237180 0.45470911 0.05000250
v 0.98438835 0.44608814 0.18997087
v 0.98623067 0.44778007 0.16999829
v 0.95812315 0.42989355 0.31458309
v 0.95458019 0.40991217 0.32849658
v 0.95878452 0.40991217 0.31647456
v 0.96147716 0.42989355 0.30461282
v 0.96601218 0.42989355 0.28999406
v 0.97177541 0.42989355 0.26998943
v 0.97938097 0.43609744 0.23754600
v 0.98641968 0.42989355 0.20997550
v 0.99043500 0.42989355 0.18997087
v 0.99407244 0.42989355 0.16999829
v 1.00002468 0.44004536 0.12056375
v 1.00352037 0.44520181 0.03002992
v 1.00914192 0.42989355 0.01002528
v 1.00914192 0.42989355 0.00098473
v 0.74020708 -0.24012642 0.00098473
v 0.75022185 -0.23021631 0.01002528
v 0.76028389 -0.22022565 0.01002528
v 0.76014215 -0.22006451 0.02400288
v 0.75990593 -0.21982278 0.03733931
v 0.74956048 -0.22949119 0.05000250
v 0.73949844 -0.23948185 0.05000250
v 0.73869538 -0.23875673 0.07000715
v 0.73765612 -0.23770933 0.09001178
v 0.73633343 -0.23650078 0.11001642
v 0.73477447 -0.23505051 0.13005312
v 0.66854465 -0.27348238 0.20952669
v 0.69636875 -0.25704610 0.18997087
v 0.68342507 -0.26252490 0.20997550
v 0.73293215 -0.23335855 0.15002570
v 0.71979958 -0.23972358 0.17894267
v 0.70836759 -0.24697487 0.18997087
v 0.72877508 -0.23295571 0.17137681
v 0.68129933 -0.26091349 0.22372869
v 0.67142624 -0.26639223 0.23023662
v 0.66660780 -0.26470029 0.24998477
v 0.66263968 -0.26188034 0.26998943
v 0.66041940 -0.26018834 0.28085732
v 0.65744334 -0.25801295 0.29416168
v 0.65371144 -0.25527358 0.30999869
v 0.65073532 -0.25076169 0.32849658
v 0.64813715 -0.25261480 0.32849658
v 1.00063872 0.44101220 0.11001642
v 1.00252831 0.44391274 0.07000715
v 1.00663817 0.42989355 0.07000715
v 1.00791359 0.42989355 0.05000250
v 1.00314248 0.44471842 0.05000250
v 0.95387161 0.38993084 0.32849658
v 0.95845383 0.38993084 0.31541663
v 0.96209127 0.40991217 0.30647224
v 0.96728766 0.40991217 0.28999406
v 0.97314537 0.40991217 0.26998943
v 0.98032576 0.42280340 0.24155334
v 0.97744411 0.42965186 0.24892685
v 0.98193192 0.42965186 0.23049308
v 0.98778963 0.40991217 0.20997550
v 0.99189943 0.40991217 0.18997087
v 1.00011909 0.42119199 0.14117749
v 0.99907982 0.43456662 0.13390017
v 0.99780440 0.42868501 0.14874335
v 1.00078046 0.42868501 0.12838607
v 1.00285900 0.42989355 0.11001642
v 1.00493753 0.42989355 0.09001178
v 1.00876403 0.42989355 0.03002992
v 1.01074803 0.40991217 0.01002528
v 1.01070082 0.40991217 0.00098473
v 0.75022185 -0.23021631 0.00098473
v 0.76028389 -0.22022565 0.00098473
v 0.76453543 -0.21563314 0.00098473
v 0.77936864 -0.19927745 0.01002528
v 0.76746428 -0.21192692 0.03041463
v 0.75957525 -0.21950050 0.05000250
v 0.76878697 -0.20950983 0.05000250
v 0.74885190 -0.22876607 0.07000715
v 0.74785984 -0.22771864 0.09001178
v 0.74663162 -0.22651009 0.11001642
v 0.74516720 -0.22505985 0.13005312
v 0.74341935 -0.22328730 0.15002570
v 0.70562768 -0.24471892 0.20997550
v 0.69343990 -0.25470960 0.20997550
v 0.74138802 -0.22127305 0.16999829
v 0.71838236 -0.23843445 0.18997087
v 0.74015981 -0.22014506 0.18073796
v 0.73113704 -0.22683237 0.18846411
v 0.67898458 -0.25914097 0.23703307
v 0.70255709 -0.24214067 0.22998014
v 0.68876314 -0.25317878 0.23023662
v 0.67662263 -0.25728786 0.24998477
v 0.67260724 -0.25422615 0.26998943
v 0.68224412 -0.24173783 0.28524935
v 0.66991460 -0.24987538 0.28970551
v 0.66689122 -0.24528290 0.30999869
v 0.66306484 -0.24230181 0.32625246
v 0.65654576 -0.24633031 0.32849658
v 1.00814986 0.40991217 0.07000715
v 1.00947261 0.40991217 0.05000250
v 0.95273781 0.37204432 0.32849658
v 0.96176058 0.38993084 0.30541432
v 0.95779246 0.36994946 0.31342900
v 0.96657902 0.38993084 0.28999406
v 0.97791654 0.40991217 0.25203654
v 0.97243673 0.38993084 0.26998943
v 0.98027849 0.39379817 0.24116863
v 0.98046744 0.40991217 0.24203423
v 0.98334908 0.40991217 0.22998014
v 0.98727000 0.38993084 0.20997550
v 0.99133253 0.38993084 0.18997087
v 0.99558413 0.40991217 0.16999829
v 0.99865472 0.40991217 0.15153246
v 1.00016642 0.40991217 0.14153014
v 1.00177252 0.40991217 0.13005312
v 1.00432348 0.40991217 0.11001642
v 1.00644922 0.40991217 0.09001178
v 1.01032281 0.40991217 0.03002992
v 1.01018119 0.38993084 0.01002528
v 1.01018119 0.38993084 0.00098473
v 1.01041734 0.39895469 0.00098473
v 0.77936864 -0.19927745 0.00098473
v 0.78409261 -0.19379869 0.00098473
v 0.78791898 -0.18928677 0.01002528
v 0.77917969 -0.19903573 0.03002992
v 0.77875453 -0.19855231 0.05000250
v 0.75886667 -0.21877538 0.07000715
v 0.76807839 -0.20878471 0.07000715
v 0.75787467 -0.21772797 0.09001178
v 0.75664639 -0.21643884 0.11001642
v 0.75513476 -0.21490802 0.13005312
v 0.75338691 -0.21305491 0.15002570
v 0.71564245 -0.23601736 0.20997550
v 0.75305623 -0.20878471 0.17166534
v 0.73850644 -0.21845309 0.19410643
v 0.75990593 -0.19984142 0.17945561
v 0.74700958 -0.21104066 0.18846411
v 0.72636586 -0.22594611 0.20997550
v 0.70066756 -0.24044870 0.24174568
v 0.69093621 -0.24616916 0.24902302
v 0.71257192 -0.23319741 0.22998014
v 0.68536192 -0.24423550 0.26998943
v 0.67940974 -0.23948185 0.29858580
v 0.69532949 -0.23593678 0.26998943
v 0.68937731 -0.23368083 0.29114819
v 0.67685878 -0.23730649 0.30999869
v 0.66580474 -0.23915960 0.32849658
v 0.67090660 -0.23505051 0.32849658
v 1.00758302 0.38993084 0.07000715
v 1.00885844 0.38993084 0.05000250
v 1.00975597 0.38993084 0.03002992
v 0.95259613 0.36994946 0.32849658
v 0.96109927 0.36994946 0.30342668
v 0.95075381 0.34988755 0.32849658
v 0.95736730 0.34916240 0.30887663
v 0.96043789 0.35528576 0.30150312
v 0.96525633 0.36994946 0.28999406
v 0.97111404 0.36994946 0.26998943
v 0.97654659 0.36994946 0.24998477
v 0.97805822 0.38823885 0.24870244
v 0.97990060 0.38050413 0.23988628
v 0.98221534 0.38823885 0.23190367
v 0.98188466 0.36994946 0.22812074
v 0.98594725 0.36994946 0.20997550
v 0.99005711 0.36994946 0.18997087
v 0.99497002 0.38993084 0.16999829
v 0.99374175 0.36994946 0.16999829
v 1.00011909 0.39718211 0.14085691
v 1.00375652 0.38993084 0.11001642
v 1.00588238 0.38993084 0.09001178
v 1.00885844 0.36994946 0.01002528
v 1.00885844 0.36994946 0.00098473
v 0.78791898 -0.18928677 0.00098473
v 0.79788655 -0.17744298 0.01002528
v 0.79769760 -0.17720127 0.03002992
v 0.78768283 -0.18904506 0.03002992
v 0.77804595 -0.19774662 0.07000715
v 0.78725767 -0.18856163 0.05000250
v 0.78659630 -0.18775594 0.07000715
v 0.76713359 -0.20773728 0.09001178
v 0.76595259 -0.20644818 0.11001642
v 0.76453543 -0.20483677 0.13005312
v 0.76288205 -0.20306425 0.15002570
v 0.76127589 -0.20137225 0.16608712
v 0.72348422 -0.22320674 0.22998014
v 0.73638064 -0.21635829 0.20997550
v 0.74611199 -0.20636760 0.20997550
v 0.75863045 -0.19847174 0.18997087
v 0.78045517 -0.18050463 0.16240036
v 0.77903795 -0.17889324 0.17567268
v 0.76751155 -0.18848106 0.18997087
v 0.69821107 -0.23835389 0.25508213
v 0.72131121 -0.22119249 0.24376538
v 0.70983201 -0.22981347 0.24940772
v 0.70057309 -0.22038679 0.30118257
v 0.69060552 -0.22610725 0.30868429
v 0.70666695 -0.22594611 0.26998943
v 0.70279330 -0.22248159 0.28999406
v 0.68351960 -0.22449584 0.32849658
v 1.00630748 0.36994946 0.07000715
v 1.00758302 0.36994946 0.05000250
v 1.00843334 0.36994946 0.03002992
v 0.94843906 0.32998675 0.32849658
v 0.95476913 0.32998675 0.30999869
v 0.95972931 0.34199172 0.29929107
v 0.96284711 0.34916240 0.29156494
v 0.96927166 0.34996814 0.26998943
v 0.97952271 0.36994946 0.23812306
v 0.97465700 0.34996814 0.24998477
v 0.98098707 0.34996814 0.22427368
v 0.98410493 0.34996814 0.20997550
v 0.98821473 0.34996814 0.18997087
v 0.99194670 0.34996814 0.16999829
v 0.99856019 0.39025313 0.14851893
v 0.99700129 0.36994946 0.15002570
v 0.99974120 0.38388807 0.13867691
v 1.00111115 0.39025313 0.13120723
v 1.00063872 0.36994946 0.12498784
v 1.00243390 0.36994946 0.11001642
v 1.00460684 0.36994946 0.09001178
v 1.00701606 0.34996814 0.01002528
v 1.00786638 0.35899198 0.00098473
v 0.79788655 -0.17744298 0.00098473
v 0.80591726 -0.16745231 0.01002528
v 0.79727244 -0.17671785 0.05000250
v 0.80572832 -0.16721059 0.03002992
v 0.77705389 -0.19669920 0.09001178
v 0.78569877 -0.18670852 0.09001178
v 0.79661107 -0.17583159 0.07000715
v 0.77592015 -0.19532952 0.11001642
v 0.77450299 -0.19371812 0.13005312
v 0.77280235 -0.19178444 0.15002570
v 0.73345178 -0.21345775 0.22998014
v 0.74332488 -0.20338650 0.22998014
v 0.75612676 -0.19565180 0.20997550
v 0.78659630 -0.17131966 0.16938916
v 0.78154165 -0.18179376 0.15002570
v 0.80039024 -0.16052328 0.14258808
v 0.79925650 -0.15907302 0.15592450
v 0.78574598 -0.16696888 0.18997087
v 0.77747905 -0.17695956 0.18997087
v 0.76500779 -0.18566112 0.20997550
v 0.71904373 -0.21893652 0.25710183
v 0.74124634 -0.20129170 0.24392569
v 0.73019224 -0.21015440 0.25049773
v 0.69759697 -0.21772797 0.31451899
v 0.71276087 -0.21297435 0.28999406
v 0.72079158 -0.20072772 0.30179167
v 0.70926511 -0.20918755 0.30813929
v 0.71668172 -0.21668057 0.26998943
v 0.68536192 -0.22288446 0.32849658
v 1.00446510 0.34996814 0.07000715
v 1.00574064 0.34996814 0.05000250
v 1.00659096 0.34996814 0.03002992
v 0.94574642 0.30992484 0.32849658
v 0.95902073 0.32998675 0.29685462
v 0.95202923 0.30992484 0.30999869
v 0.96204400 0.32998675 0.28682023
v 0.96695697 0.32998675 0.26998943
v 0.97857785 0.34996814 0.23427601
v 0.97234225 0.32998675 0.24998477
v 0.98027849 0.33731866 0.22138840
v 0.98179018 0.33038962 0.21058461
v 0.98599446 0.32998675 0.18997087
v 0.99520624 0.34996814 0.15002570
v 0.98967916 0.32998675 0.16999829
v 0.99298596 0.32998675 0.15002570
v 0.99926883 0.36994946 0.13499016
v 1.00011909 0.35818624 0.12136520
v 1.00082767 0.35085440 0.10943937
v 1.00276458 0.34996814 0.09001178
v 1.00701606 0.34996814 0.00098473
v 1.00474858 0.32998675 0.01002528
v 1.00578785 0.33893001 0.00098473
v 0.80591726 -0.16745231 0.00098473
v 0.81593210 -0.15464167 0.01002528
v 0.80530316 -0.16664660 0.05000250
v 0.80468905 -0.16584091 0.07000715
v 0.81574309 -0.15439996 0.03002992
v 0.79571354 -0.17470360 0.09001178
v 0.78456497 -0.18533884 0.11001642
v 0.80379152 -0.16479349 0.09001178
v 0.78319508 -0.18372744 0.13005312
v 0.75333965 -0.19259013 0.22998014
v 0.76236242 -0.18259946 0.22998014
v 0.79788655 -0.15730049 0.16999829
v 0.80133504 -0.16173184 0.13005312
v 0.81021607 -0.14996861 0.13005312
v 0.81886095 -0.13836654 0.13005312
v 0.80605900 -0.15141888 0.14954482
v 0.79320985 -0.17164195 0.13005312
v 0.81725478 -0.13619114 0.15002570
v 0.80544490 -0.14730981 0.16999829
v 0.79576075 -0.15456110 0.18997087
v 0.78333676 -0.16406836 0.20997550
v 0.77497536 -0.17405903 0.20997550
v 0.72683823 -0.20668988 0.26998943
v 0.76061451 -0.18066578 0.24203423
v 0.74993843 -0.18985076 0.24963214
v 0.73907328 -0.19895516 0.25726211
v 0.70610011 -0.20378937 0.32849658
v 0.69438469 -0.21474688 0.32849658
v 0.72310632 -0.20298366 0.28999406
v 0.73307389 -0.19275127 0.28999406
v 0.74049050 -0.18042406 0.30115050
v 0.72924745 -0.18920620 0.30813929
v 0.71800447 -0.19790776 0.31509602
v 1.00073326 0.33063132 0.08866531
v 1.00007188 0.31919038 0.08109946
v 1.00219762 0.32998675 0.07000715
v 1.00347316 0.32998675 0.05000250
v 1.00432348 0.32998675 0.03002992
v 0.94314820 0.29324687 0.32849658
v 0.95807588 0.30799115 0.28989789
v 0.96091032 0.31330878 0.28316554
v 0.94886422 0.28994349 0.30999869
v 0.95524156 0.28994349 0.28999406
v 0.96336675 0.30799115 0.27194500
v 0.96960235 0.30992484 0.24998477
v 0.97763312 0.33038962 0.22882602
v 0.97456253 0.30992484 0.22998014
v 0.97942817 0.32402456 0.21763754
v 0.98089260 0.31355047 0.20430110
v 0.98264050 0.30807173 0.19186233
v 0.98698652 0.30992484 0.16999829
v 0.99591482 0.32998675 0.13005312
v 0.99837124 0.35085440 0.12880284
v 0.99034053 0.30992484 0.15002570
v 0.99945778 0.34481162 0.11572287
v 1.00021362 0.33772147 0.10238644
v 1.00474858 0.32998675 0.00098473
v 1.00210321 0.30992484 0.01002528
v 1.00215042 0.30992484 0.00098473
v 0.81593210 -0.15456110 0.00098473
v 0.82334870 -0.14465100 0.01002528
v 0.81531793 -0.15383598 0.05000250
v 0.81465662 -0.15294971 0.07000715
v 0.82315969 -0.14432871 0.03002992
v 0.82273459 -0.14384530 0.05000250
v 0.79453254 -0.17333391 0.11001642
v 0.80265772 -0.16342381 0.11001642
v 0.81380630 -0.15174116 0.09001178
v 0.78135270 -0.16173184 0.22504310
v 0.80341357 -0.14457043 0.18997087
v 0.81971121 -0.13965566 0.11777464
v 0.82575792 -0.12837586 0.13005312
v 0.82419896 -0.12620047 0.15002570
v 0.81545967 -0.13353235 0.16999829
v 0.80147678 -0.14199218 0.20619257
v 0.79457980 -0.14924349 0.21167462
v 0.73680580 -0.19661863 0.26998943
v 0.76666123 -0.17091681 0.24921536
v 0.75858325 -0.17824867 0.25537065
v 0.77951038 -0.15939531 0.23841158
v 0.74611199 -0.18662795 0.26998943
v 0.71507561 -0.19484609 0.32849658
v 0.74256903 -0.18276060 0.28999406
v 0.75381207 -0.16938598 0.29137260
v 0.75962251 -0.15955645 0.29893845
v 0.74625373 -0.17043339 0.30868429
v 0.73775059 -0.17744298 0.31448692
v 0.72381490 -0.18590283 0.32849658
v 0.99941051 0.32434684 0.09443589
v 1.00049710 0.31628984 0.07000715
v 0.99822950 0.31145567 0.08866531
v 0.99903262 0.30629921 0.07000715
v 1.00111115 0.31185853 0.05000250
v 0.99997741 0.30001473 0.03987195
v 1.00134730 0.30799115 0.03192139
v 0.94286478 0.29147431 0.32849658
v 0.95996547 0.30001473 0.27992761
v 0.94097519 0.26996213 0.32295042
v 0.94532120 0.26996213 0.30999869
v 0.95911515 0.28994349 0.27694616
v 0.95165133 0.26996213 0.28999406
v 0.96190232 0.28994349 0.26694384
v 0.96648455 0.28994349 0.24998477
v 0.97144473 0.28994349 0.22998014
v 0.97871959 0.30807173 0.21058461
v 0.97990060 0.30017588 0.19981289
v 0.98103434 0.28994349 0.18548264
v 0.98386872 0.28994349 0.16999829
v 0.99856019 0.33063132 0.10943937
v 0.99322212 0.30992484 0.13005312
v 0.99577308 0.30992484 0.11001642
v 0.98722273 0.28994349 0.15002570
v 0.99015158 0.28994349 0.13005312
v 1.00016642 0.29864505 0.02653553
v 1.00030804 0.29767820 0.01002528
v 1.00115836 0.30323756 0.00098473
v 0.82334870 -0.14457043 0.00098473
v 0.83336347 -0.13055125 0.00098473
v 0.83336347 -0.13055125 0.01002528
v 0.83317453 -0.13030954 0.03002992
v 0.82207322 -0.14295903 0.07000715
v 0.83997703 -0.11999658 0.04057724
v 0.83397758 -0.12797301 0.04833545
v 0.83123767 -0.12998725 0.07000715
v 0.81394804 -0.14843778 0.11068965
v 0.82122290 -0.14175048 0.09001178
v 0.82046705 -0.14070307 0.10447027
v 0.79982340 -0.13981681 0.21952900
v 0.78754109 -0.15166059 0.23103808
v 0.81446767 -0.12885928 0.19074027
v 0.82594687 -0.13175981 0.11068965
v 0.83709538 -0.11556524 0.11001642
v 0.83577269 -0.11363156 0.13005312
v 0.82240391 -0.12354167 0.16999829
v 0.83530027 -0.10895850 0.15191716
v 0.83992976 -0.09993465 0.15983567
v 0.83142662 -0.11000590 0.16999829
v 0.82098669 -0.12144685 0.18461706
v 0.81952226 -0.11935203 0.19798554
v 0.80738169 -0.13184036 0.21167462
v 0.77776253 -0.15721992 0.24998477
v 0.76462990 -0.16551863 0.26998943
v 0.75612676 -0.17542873 0.26998943
v 0.78555703 -0.14722924 0.24998477
v 0.76203173 -0.16237639 0.28560203
v 0.78059685 -0.14078364 0.28181908
v 0.77828217 -0.13772199 0.29512346
v 0.76557469 -0.14690696 0.30999869
v 0.75749671 -0.15689763 0.30999869
v 0.74285245 -0.16519634 0.32849658
v 0.73472726 -0.17413960 0.32849658
v 0.72570449 -0.18388858 0.32849658
v 0.72480696 -0.18485542 0.32849658
v 0.99969399 0.30186784 0.05000250
v 0.99478102 0.28994349 0.09001178
v 0.99648166 0.28994349 0.07000715
v 0.99775714 0.28994349 0.05000250
v 0.99879640 0.29123259 0.03192139
v 0.94196725 0.28639841 0.32849658
v 0.93903840 0.26996213 0.32849658
v 0.94003040 0.25964916 0.32019335
v 0.94187272 0.25175333 0.30951780
v 0.95755625 0.26955926 0.26957265
v 0.96072131 0.27592432 0.26264799
v 0.94763595 0.24998078 0.28999406
v 0.95354092 0.24998078 0.26998943
v 0.96261090 0.26955926 0.25081831
v 0.96790171 0.26996213 0.22998014
v 0.97248399 0.26996213 0.20997550
v 0.97597969 0.28994349 0.20997550
v 0.97909749 0.28994349 0.19548497
v 0.98013675 0.27898598 0.18083413
v 0.99265528 0.28994349 0.11001642
v 0.98089260 0.27141237 0.16826712
v 0.98004234 0.25956860 0.16050890
v 0.98363250 0.26996213 0.15002570
v 0.98660862 0.26996213 0.13005312
v 0.98915952 0.26996213 0.11001642
v 0.99870193 0.28760695 0.01002528
v 0.99959946 0.29308569 0.00098473
v 1.00030804 0.29759765 0.00098473
v 0.84035492 -0.12048000 0.00098473
v 0.84035492 -0.12056057 0.01002528
v 0.84016597 -0.12023829 0.03002992
v 0.84692121 -0.11000590 0.03002992
v 0.85627466 -0.09413362 0.05000250
v 0.84503162 -0.11161731 0.04833545
v 0.83959907 -0.11943260 0.05391367
v 0.83907944 -0.11862689 0.07000715
v 0.82944256 -0.12998725 0.09001178
v 0.80553937 -0.12789243 0.22998014
v 0.79840618 -0.13788311 0.22998014
v 0.83818191 -0.11725721 0.09001178
v 0.84361446 -0.10557456 0.11001642
v 0.84229171 -0.10364087 0.13005312
v 0.84101629 -0.10162662 0.14646718
v 0.84621263 -0.09195822 0.15191716
v 0.85693598 -0.07495797 0.15002570
v 0.84517336 -0.08833258 0.16999829
v 0.83893776 -0.09840383 0.16999829
v 0.82613581 -0.11161731 0.19074027
v 0.82462412 -0.10718596 0.20997550
v 0.81805784 -0.11717664 0.20997550
v 0.78248644 -0.14328131 0.26998943
v 0.77459747 -0.15327199 0.26998943
v 0.79552460 -0.13393518 0.24998477
v 0.79325706 -0.12877871 0.26976502
v 0.79878414 -0.11830461 0.27627292
v 0.78555703 -0.13063182 0.28906435
v 0.78295887 -0.12410565 0.30999869
v 0.77554226 -0.13409632 0.30999869
v 0.76245689 -0.14303960 0.32602805
v 0.75499302 -0.15085489 0.32849658
v 0.99123812 0.26996213 0.09001178
v 0.99293870 0.26996213 0.07000715
v 0.99421418 0.26996213 0.05000250
v 0.99511170 0.26996213 0.03002992
v 0.93540090 0.25175333 0.32849658
v 0.93861318 0.24627456 0.31586546
v 0.94083345 0.23636445 0.30256107
v 0.95944583 0.26263025 0.25806358
v 0.94300652 0.22983828 0.29060316
v 0.94910038 0.22999942 0.26998943
v 0.95453298 0.22999942 0.24998477
v 0.95840657 0.24844995 0.25081831
v 0.96119374 0.25408983 0.24472715
v 0.96322501 0.24844995 0.23155102
v 0.96851587 0.24998078 0.20997550
v 0.97720790 0.27141237 0.18846411
v 0.97886133 0.26569194 0.17378122
v 0.97701895 0.25175333 0.16826712
v 0.97876686 0.24571057 0.15002570
v 0.98089260 0.25562066 0.15002570
v 0.98221534 0.24869165 0.13082252
v 0.98509693 0.24998078 0.11001642
v 0.98727000 0.24998078 0.09001178
v 0.99558413 0.26996213 0.01002528
v 0.99563134 0.26996213 0.00098473
v 0.99870193 0.28760695 0.00098473
v 0.84347272 -0.11580694 0.00098473
v 0.84729916 -0.11000590 0.01002528
v 0.85693598 -0.09518103 0.01002528
v 0.85669982 -0.09477818 0.03002992
v 0.86293542 -0.08478750 0.03002992
v 0.86246306 -0.08406237 0.05000250
v 0.86180168 -0.08301497 0.07000715
v 0.85561329 -0.09300564 0.07000715
v 0.84559852 -0.10855564 0.07000715
v 0.84470093 -0.10726653 0.09001178
v 0.80275226 -0.12394451 0.24998477
v 0.81550694 -0.11330928 0.22998014
v 0.85471576 -0.09155537 0.09001178
v 0.85457402 -0.08833258 0.10963172
v 0.85948694 -0.07914761 0.11601140
v 0.85084212 -0.08994398 0.13005312
v 0.85854214 -0.07753620 0.13005312
v 0.86288822 -0.06496728 0.15002570
v 0.85518813 -0.07189631 0.16999829
v 0.84314203 -0.08510979 0.18997087
v 0.83690643 -0.09510046 0.18997087
v 0.83558375 -0.08938000 0.21157843
v 0.82212043 -0.10331860 0.22998014
v 0.80086267 -0.12128571 0.26293650
v 0.80572832 -0.11097275 0.26976502
v 0.80322462 -0.10493000 0.28999406
v 0.79646939 -0.11492068 0.28999406
v 0.78069139 -0.12096342 0.32189250
v 0.79354054 -0.10895850 0.30977428
v 0.76666123 -0.13627172 0.32849658
v 0.75896114 -0.14602068 0.32849658
v 0.98892331 0.24998078 0.07000715
v 0.99024606 0.24998078 0.05000250
v 0.99114358 0.24998078 0.03002992
v 0.93091315 0.23169139 0.32849658
v 0.93695986 0.22983828 0.30951780
v 0.93922734 0.22298983 0.29765609
v 0.94125861 0.21469112 0.28431967
v 0.94357336 0.20880951 0.27123970
v 0.94966727 0.21001807 0.24998477
v 0.95873725 0.22830746 0.23155102
v 0.95977652 0.24079579 0.23927717
v 0.96138269 0.23386678 0.22594073
v 0.96331954 0.22830746 0.21164256
v 0.96823239 0.22999942 0.18997087
v 0.97262573 0.24998078 0.18997087
v 0.97191709 0.22999942 0.16999829
v 0.97527111 0.22999942 0.15002570
v 0.97966439 0.24127921 0.13800368
v 0.98060918 0.23725072 0.12463520
v 0.98145950 0.23330279 0.11001642
v 0.98235703 0.22830746 0.09119795
v 0.98453009 0.22999942 0.07000715
v 0.99161601 0.24998078 0.01002528
v 0.99345833 0.25892404 0.00098473
v 0.85693598 -0.09510046 0.00098473
v 0.86312437 -0.08510979 0.00098473
v 0.86312437 -0.08510979 0.01002528
v 0.87219441 -0.06996262 0.01002528
v 0.87172198 -0.06996262 0.03002992
v 0.87087166 -0.06996262 0.05000250
v 0.86950171 -0.06996262 0.07000715
v 0.86095136 -0.08156469 0.09001178
v 0.81342840 -0.10855564 0.24921536
v 0.82056153 -0.10090150 0.24206628
v 0.86029005 -0.08051729 0.10267498
v 0.86477780 -0.07149345 0.10963172
v 0.86439985 -0.06754553 0.13005312
v 0.87521774 -0.04853101 0.12995695
v 0.87129682 -0.04998127 0.15002570
v 0.86109310 -0.06190562 0.16999829
v 0.86010104 -0.06021366 0.18051355
v 0.85372370 -0.06810951 0.18830381
v 0.84139419 -0.08220926 0.20593610
v 0.83978808 -0.07971159 0.21927252
v 0.81867194 -0.09792040 0.25540271
v 0.81645173 -0.09445590 0.26998943
v 0.81375903 -0.08881600 0.28951317
v 0.80105162 -0.10154606 0.30294579
v 0.77280235 -0.12805358 0.32849658
v 0.78550977 -0.11032818 0.32849658
v 0.79859513 -0.09783983 0.31628221
v 0.98585278 0.22999942 0.05000250
v 0.98675030 0.22999942 0.03002992
v 0.98727000 0.22999942 0.01002528
v 0.92600024 0.21154889 0.32849658
v 0.93195242 0.21001807 0.30999869
v 0.93785739 0.20880951 0.29060316
v 0.93960524 0.20139708 0.27870938
v 0.94149482 0.19430691 0.26540503
v 0.94371510 0.18858644 0.25136331
v 0.94947833 0.18995614 0.22998014
v 0.95467466 0.21001807 0.22998014
v 0.95982379 0.22049215 0.21943283
v 0.96128821 0.21469112 0.20609640
v 0.96294159 0.20880951 0.19093263
v 0.96714592 0.21001807 0.16999829
v 0.97815275 0.23032171 0.13082252
v 0.97045267 0.21001807 0.15002570
v 0.97342879 0.21001807 0.13005312
v 0.97919202 0.22339268 0.11001642
v 0.97980613 0.22057272 0.09866764
v 0.98046744 0.21791393 0.08533121
v 0.98112881 0.21533568 0.07000715
v 0.99166322 0.24998078 0.00098473
v 0.87214714 -0.06996262 0.00098473
v 0.87899691 -0.05819941 0.00098473
v 0.87899691 -0.05819941 0.01002528
v 0.87876070 -0.05787712 0.03002992
v 0.87833554 -0.05707143 0.05000250
v 0.87767416 -0.05586287 0.07000715
v 0.86775386 -0.06996262 0.09001178
v 0.83841813 -0.07737507 0.22998014
v 0.82486033 -0.09074968 0.24921536
v 0.87677664 -0.05425148 0.09001178
v 0.87569010 -0.05231780 0.11001642
v 0.88041407 -0.04079629 0.12325667
v 0.87946928 -0.03902375 0.13662516
v 0.86775386 -0.04998127 0.16999829
v 0.87838280 -0.03700950 0.15002570
v 0.87663490 -0.03362557 0.16999829
v 0.86373854 -0.05054526 0.18830381
v 0.85863662 -0.05763542 0.19381791
v 0.84630710 -0.07181574 0.21157843
v 0.84432304 -0.06738438 0.22998014
v 0.83567822 -0.07278258 0.24998477
v 0.82273459 -0.08446522 0.26998943
v 0.82079774 -0.08132300 0.28252438
v 0.81857747 -0.07761677 0.29582876
v 0.80553937 -0.09066911 0.30977428
v 0.79623318 -0.09421419 0.32849658
v 0.80341357 -0.08301497 0.32849658
v 0.98179018 0.21259630 0.05000250
v 0.98221534 0.21082376 0.03002992
v 0.97990060 0.20002739 0.01855290
v 0.98197913 0.20808439 0.01114734
v 0.98004234 0.19970511 0.00521648
v 0.98075092 0.20252505 0.00098473
v 0.98727000 0.22999942 0.00098473
v 0.92533886 0.20889008 0.32849658
v 0.92170143 0.18995614 0.32497013
v 0.92670882 0.18995614 0.30999869
v 0.93308616 0.18995614 0.28999406
v 0.93828255 0.18858644 0.27123970
v 0.93969971 0.18093230 0.25896123
v 0.94144762 0.17472841 0.24562480
v 0.95410776 0.18995614 0.20997550
v 0.94343162 0.16884680 0.23100603
v 0.94862801 0.16997477 0.20997550
v 0.95859551 0.20880951 0.21164256
v 0.95958757 0.20139708 0.19820996
v 0.95802867 0.18971443 0.19093263
v 0.96091032 0.19632116 0.18490559
v 0.96209127 0.18971443 0.16932505
v 0.96539807 0.18995614 0.15002570
v 0.96837413 0.18995614 0.13005312
v 0.97597969 0.21001807 0.11001642
v 0.97815275 0.21074319 0.09119795
v 0.97867239 0.20526443 0.07000715
v 0.88447666 -0.04820873 0.00098473
v 0.88447666 -0.04820873 0.01002528
v 0.88428771 -0.04788645 0.03002992
v 0.88386256 -0.04708075 0.05000250
v 0.88315398 -0.04587220 0.07000715
v 0.88230366 -0.04426080 0.09001178
v 0.88121712 -0.04232712 0.11001642
v 0.88773620 -0.02999991 0.11001642
v 0.88438219 -0.03145017 0.12995695
v 0.88362634 -0.02701882 0.15002570
v 0.88187850 -0.02363488 0.16999829
v 0.88060302 -0.02121779 0.18311030
v 0.87521774 -0.02871079 0.18981057
v 0.86241579 -0.04434137 0.20997550
v 0.85679430 -0.05433205 0.20997550
v 0.84158313 -0.06271133 0.24998477
v 0.86080968 -0.04152142 0.22327986
v 0.85490471 -0.04885329 0.22994807
v 0.84885806 -0.04998127 0.24998477
v 0.84011871 -0.06021366 0.26043594
v 0.82486033 -0.07060719 0.28951317
v 0.83804017 -0.05658801 0.27377236
v 0.82197875 -0.06343646 0.30999869
v 0.81607378 -0.07350770 0.30999869
v 0.81267256 -0.06770667 0.32849658
v 0.97928649 0.20260562 0.05000250
v 0.97975886 0.20075251 0.03002992
v 0.97697175 0.18995614 0.03002992
v 0.97210610 0.16997477 0.01002528
v 0.97786927 0.19180925 0.01114734
v 0.97933370 0.19688515 0.00098473
v 0.92307138 0.20002739 0.32849658
v 0.92047322 0.18995614 0.32849658
v 0.92023700 0.17899862 0.32077044
v 0.92193764 0.17142504 0.30903694
v 0.92755914 0.16997477 0.28999406
v 0.93346411 0.16997477 0.26998943
v 0.92765367 0.14999342 0.26998943
v 0.93828255 0.16884680 0.25136331
v 0.93955803 0.16135380 0.23834747
v 0.94116414 0.15587503 0.22501104
v 0.93922734 0.14250042 0.21654753
v 0.94272304 0.14951000 0.20994344
v 0.94706911 0.14999342 0.18997087
v 0.95278507 0.16997477 0.18997087
v 0.95916241 0.18294655 0.17554444
v 0.96039069 0.17851520 0.16227213
v 0.96133542 0.17488955 0.15002570
v 0.95958757 0.16135380 0.13739456
v 0.97087783 0.18995614 0.11001642
v 0.96261090 0.16876623 0.13040577
v 0.96553975 0.16997477 0.11001642
v 0.97300363 0.18995614 0.09001178
v 0.97475147 0.18995614 0.07000715
v 0.97607422 0.18995614 0.05000250
v 0.89416081 -0.02999991 0.00098473
v 0.89420801 -0.02999991 0.01002528
v 0.89378285 -0.02999991 0.03002992
v 0.89293253 -0.02999991 0.05000250
v 0.89156258 -0.02999991 0.07000715
v 0.88986200 -0.02999991 0.09001178
v 0.89751482 -0.01501390 0.09001178
v 0.89642829 -0.01283851 0.11001642
v 0.89586139 -0.00864887 0.13034165
v 0.89222395 -0.00993799 0.15002570
v 0.88872826 -0.00993799 0.16999829
v 0.88424051 -0.01106597 0.18981057
v 0.87923306 -0.01847841 0.19644672
v 0.87011588 -0.02999991 0.20997550
v 0.85906178 -0.03837919 0.23661630
v 0.86468327 -0.03096675 0.22994807
v 0.84351999 -0.04998127 0.26825824
v 0.85721946 -0.03491468 0.24998477
v 0.83610338 -0.04998127 0.29134053
v 0.84181935 -0.04329396 0.28556997
v 0.83959907 -0.03934603 0.29890639
v 0.82967877 -0.04998127 0.30999869
v 0.82013637 -0.06029423 0.32044983
v 0.82330143 -0.04949785 0.32827216
v 0.82325423 -0.04941728 0.32849658
v 0.97163367 0.16997477 0.03002992
v 0.96596491 0.14999342 0.03002992
v 0.96639007 0.14999342 0.01002528
v 0.96643734 0.14999342 0.00098473
v 0.96898824 0.15893669 0.00098473
v 0.97210610 0.16997477 0.00098473
v 0.91522962 0.17094162 0.32849658
v 0.91834742 0.16570458 0.31506395
v 0.92052042 0.15805042 0.30172753
v 0.92226833 0.15087970 0.28919259
v 0.93308616 0.14999342 0.24998477
v 0.92056769 0.13806906 0.28197938
v 0.92207938 0.13081777 0.26880324
v 0.92694503 0.13001207 0.24998477
v 0.93781012 0.14951000 0.23100603
v 0.93691260 0.13057606 0.20994344
v 0.94069177 0.13774678 0.20321111
v 0.93199968 0.13001207 0.22998014
v 0.95089549 0.14999342 0.16999829
v 0.94206172 0.13339600 0.18997087
v 0.95703661 0.17110276 0.16932505
v 0.95859551 0.16489887 0.15002570
v 0.95429677 0.14999342 0.15002570
v 0.95750904 0.15079913 0.13040577
v 0.96053237 0.15805042 0.12402608
v 0.96138269 0.15514991 0.11001642
v 0.96766555 0.16997477 0.09001178
v 0.96941340 0.16997477 0.07000715
v 0.97073615 0.16997477 0.05000250
v 0.89666450 -0.02524628 0.00098473
v 0.89964056 -0.01936468 0.01002528
v 0.89945161 -0.01904240 0.03002992
v 0.89902645 -0.01815613 0.05000250
v 0.89836514 -0.01678643 0.07000715
v 0.90242767 -0.00502322 0.09001178
v 0.90134120 -0.00284783 0.11001642
v 0.90049088 -0.00107529 0.12389785
v 0.89959335 0.00085839 0.13723427
v 0.89855409 0.00303378 0.15002570
v 0.89680618 0.00674000 0.16999829
v 0.89524728 0.01149363 0.18913734
v 0.88263434 -0.00542607 0.20997550
v 0.87767416 -0.01541675 0.20997550
v 0.86255753 -0.02492400 0.24998477
v 0.87578458 -0.00921286 0.23039690
v 0.85466850 -0.02887193 0.26957265
v 0.86076242 -0.02145950 0.26264799
v 0.84630710 -0.03161132 0.29134053
v 0.84309483 -0.02572970 0.30999869
v 0.83761501 -0.03572038 0.30999869
v 0.84082735 -0.02162063 0.32237336
v 0.83435547 -0.02927478 0.32849658
v 0.96506739 0.14999342 0.05000250
v 0.96105200 0.13645767 0.05000250
v 0.96147716 0.13508798 0.03002992
v 0.96171337 0.13436285 0.01002528
v 0.96176058 0.13436285 0.00098473
v 0.90956092 0.15160483 0.32849658
v 0.91593826 0.15087970 0.30903694
v 0.91853642 0.14475638 0.29528373
v 0.91603267 0.13081777 0.28919259
v 0.91844189 0.12469445 0.27470204
v 0.92033148 0.11881284 0.26136562
v 0.92184317 0.11430092 0.24998477
v 0.92444134 0.10809703 0.23174337
v 0.93889666 0.12340533 0.18997087
v 0.93015730 0.10995014 0.20997550
v 0.94385684 0.12807840 0.17182563
v 0.94820285 0.13001207 0.15002570
v 0.93988872 0.12010197 0.17974412
v 0.95122617 0.13001207 0.13005312
v 0.95845383 0.14507866 0.11001642
v 0.95935136 0.14209756 0.09373059
v 0.96199679 0.14926830 0.08824855
v 0.96379191 0.14999342 0.07000715
v 0.89964056 -0.01936468 0.00098473
v 0.90238047 -0.01388592 0.00098473
v 0.90455347 -0.00937400 0.01002528
v 0.90436453 -0.00905172 0.03002992
v 0.90393937 -0.00816545 0.05000250
v 0.90327799 -0.00679576 0.07000715
v 0.91126150 0.01004337 0.07000715
v 0.90951365 0.01004337 0.09001178
v 0.90738785 0.01004337 0.11001642
v 0.90408111 0.00851254 0.13034165
v 0.90323079 0.01302446 0.15002570
v 0.90148294 0.01673068 0.16999829
v 0.90034914 0.01914778 0.18195619
v 0.89897919 0.02220944 0.19526055
v 0.89005095 0.01004337 0.20997550
v 0.88098097 -0.00204213 0.22401722
v 0.87016308 -0.00993799 0.24998477
v 0.87928033 0.00142238 0.23735365
v 0.85873109 -0.01759213 0.27598441
v 0.86421090 -0.01058255 0.26957265
v 0.85712498 -0.01058255 0.29194963
v 0.85131449 -0.00993799 0.30999869
v 0.83506411 -0.02798566 0.32849658
v 0.84375620 -0.01162996 0.32849658
v 0.96039069 0.13855249 0.07000715
v 0.95793420 0.12646699 0.05000250
v 0.95835936 0.12509730 0.03002992
v 0.95859551 0.12437217 0.01002528
v 0.95859551 0.12429160 0.00098473
v 0.90908849 0.15007401 0.32849658
v 0.90913570 0.13001207 0.30999869
v 0.90894675 0.10995014 0.28999406
v 0.91565478 0.11131984 0.26880324
v 0.91848916 0.10431024 0.24998477
v 0.91985911 0.10028175 0.23959775
v 0.92146528 0.09576983 0.22626133
v 0.93445611 0.10995014 0.18997087
v 0.92307138 0.08940480 0.20965491
v 0.94111693 0.11647631 0.16637565
v 0.94201446 0.10986958 0.14803806
v 0.93790460 0.10986958 0.17182563
v 0.95382434 0.13001207 0.11001642
v 0.94475436 0.10995014 0.13005312
v 0.95996547 0.13984162 0.08039417
v 0.95675319 0.13194576 0.08824855
v 0.90875781 -0.00067244 0.00098473
v 0.91385967 0.01004337 0.01002528
v 0.91343451 0.01004337 0.03002992
v 0.91258419 0.01004337 0.05000250
v 0.91858363 0.02309570 0.05000250
v 0.91792226 0.02462653 0.07000715
v 0.91858363 0.03002472 0.09001178
v 0.91617441 0.03002472 0.11229259
v 0.91400141 0.03002472 0.12915547
v 0.91088361 0.03002472 0.14992952
v 0.90748233 0.03002472 0.16993417
v 0.90341973 0.02929959 0.18913734
v 0.90058535 0.03002472 0.20372406
v 0.89921540 0.03002472 0.20997550
v 0.88452393 0.00883482 0.23039690
v 0.89831787 0.03002472 0.21375844
v 0.89458597 0.03002472 0.22917867
v 0.87753248 0.00504803 0.24998477
v 0.88230366 0.01503871 0.24998477
v 0.86208510 -0.00421752 0.28659582
v 0.87493432 0.01117135 0.26928413
v 0.85991210 0.00005269 0.29990020
v 0.85821146 0.00367834 0.30999869
v 0.85485744 0.01052679 0.32849658
v 0.95727283 0.12856181 0.07000715
v 0.95127344 0.10995014 0.07000715
v 0.95254886 0.10995014 0.05000250
v 0.95344645 0.10995014 0.03002992
v 0.95387161 0.10995014 0.01002528
v 0.95387161 0.10995014 0.00098473
v 0.90304184 0.13073720 0.32849658
v 0.90242767 0.12880352 0.32849658
v 0.90082157 0.11736258 0.32246953
v 0.90285289 0.11043356 0.30945370
v 0.90077436 0.09778408 0.30246490
v 0.90242767 0.09061335 0.28883994
v 0.90786028 0.08996879 0.26998943
v 0.91338730 0.08996879 0.24998477
v 0.91787505 0.08940480 0.23174337
v 0.91910326 0.08239521 0.21606666
v 0.92741746 0.08996879 0.18997087
v 0.93129110 0.08996879 0.16999829
v 0.92056769 0.07836671 0.20276229
v 0.93889666 0.10318227 0.15342392
v 0.93998313 0.09995946 0.14005545
v 0.94735253 0.10995014 0.11001642
v 0.94947833 0.10995014 0.09001178
v 0.94069177 0.09802578 0.13005312
v 0.91385967 0.01004337 0.00098473
v 0.91626889 0.01528042 0.00098473
v 0.91919774 0.02172602 0.01002528
v 0.91900879 0.02212887 0.03002992
v 0.92165422 0.03002472 0.05000250
v 0.92033148 0.03002472 0.07000715
v 0.92231560 0.03461721 0.07000715
v 0.92141801 0.03663146 0.09001178
v 0.92061496 0.03856514 0.10572055
v 0.91981184 0.04033768 0.11905698
v 0.91910326 0.04211022 0.13005312
v 0.91763884 0.04581644 0.15002570
v 0.91636336 0.05105349 0.17003034
v 0.91206455 0.05000608 0.18997087
v 0.90323079 0.03002472 0.19147763
v 0.90176636 0.03590633 0.20997550
v 0.90039641 0.03904856 0.22183722
v 0.88920063 0.03002472 0.24992067
v 0.89879024 0.04291592 0.23514161
v 0.88060302 0.01866436 0.26216710
v 0.86633670 0.00802912 0.29194963
v 0.87857175 0.02293457 0.27547145
v 0.86302990 0.01366902 0.30999869
v 0.86085689 0.01818094 0.32240543
v 0.85551882 0.01189648 0.32849658
v 0.94305372 0.09141905 0.09001178
v 0.94343162 0.08803511 0.07183449
v 0.94560468 0.08996879 0.05000250
v 0.94645500 0.08996879 0.03002992
v 0.94692737 0.08996879 0.01002528
v 0.94692737 0.08996879 0.00098473
v 0.89661723 0.11140041 0.32849658
v 0.89855409 0.10406853 0.31580132
v 0.89576691 0.09061335 0.30945370
v 0.89831787 0.08440946 0.29477081
v 0.90039641 0.07885014 0.28143439
v 0.90204978 0.07449935 0.26998943
v 0.90478969 0.06829546 0.25149155
v 0.91097808 0.06998743 0.22998014
v 0.91617441 0.07103485 0.20965491
v 0.92189038 0.07490221 0.18997087
v 0.93577886 0.09198304 0.14803806
v 0.92340207 0.06885946 0.17003034
v 0.92727572 0.06998743 0.15002570
v 0.91806400 0.06491153 0.18997087
v 0.93705428 0.08803511 0.13005312
v 0.94196725 0.09440014 0.11001642
v 0.91919774 0.02172602 0.00098473
v 0.92165422 0.02720477 0.00098473
v 0.92292964 0.03010529 0.01002528
v 0.92250454 0.03002472 0.03002992
v 0.93011010 0.05000608 0.05000250
v 0.92878735 0.05000608 0.07000715
v 0.92703950 0.05000608 0.09001178
v 0.92396891 0.04823354 0.11142701
v 0.92321312 0.05210090 0.13005312
v 0.92170143 0.05572655 0.15002570
v 0.92056769 0.05846593 0.16345830
v 0.91938674 0.06152759 0.17673062
v 0.90771854 0.05000608 0.20997550
v 0.90308905 0.04976437 0.22905043
v 0.88348466 0.03002472 0.26995736
v 0.89727861 0.04976437 0.25149155
v 0.89212948 0.05000608 0.26998943
v 0.90153015 0.05620997 0.24581715
v 0.87687111 0.03002472 0.29127640
v 0.88022512 0.03002472 0.28066498
v 0.87068272 0.03002472 0.30993459
v 0.86406916 0.03002472 0.32849658
v 0.86331332 0.02841332 0.32849658
v 0.93941629 0.08142837 0.09001178
v 0.93993592 0.08005868 0.07972094
v 0.94045556 0.07868899 0.06638451
v 0.94097519 0.07731930 0.05000250
v 0.94140035 0.07619132 0.03002992
v 0.94163656 0.07562733 0.01002528
v 0.94163656 0.07562733 0.00098473
v 0.89609760 0.10995014 0.32849658
v 0.88886994 0.09004936 0.32849658
v 0.88301224 0.07474107 0.32849658
v 0.88764173 0.06998743 0.30999869
v 0.89510560 0.07127655 0.28883994
v 0.89817613 0.06450868 0.26998943
v 0.89973503 0.06056075 0.25915357
v 0.93025184 0.06998743 0.13005312
v 0.93832976 0.08440946 0.11001642
v 0.92292964 0.03010529 0.00098473
v 0.93138558 0.05000608 0.01002528
v 0.93096042 0.05000608 0.03002992
v 0.93752670 0.06620064 0.03002992
v 0.93705428 0.06732862 0.05000250
v 0.93710154 0.07119598 0.07183449
v 0.93502301 0.06998743 0.09001178
v 0.93285000 0.06998743 0.11001642
v 0.88164228 0.03630918 0.28521731
v 0.88509077 0.04871696 0.29111612
v 0.87951654 0.04114338 0.29855374
v 0.87757969 0.04565530 0.30999869
v 0.87403673 0.05266489 0.32849658
v 0.93771565 0.06563666 0.01002528
v 0.93988872 0.07111541 0.00098473
v 0.88183129 0.07167941 0.32849658
v 0.88003618 0.05975505 0.32025748
v 0.88183129 0.05556541 0.30999869
v 0.93138558 0.05000608 0.00098473
v 0.93426716 0.05709624 0.00098473
v 0.93771565 0.06563666 0.00098473
f 1 2 7
f 1 7 15
f 1 15 29
f 1 29 44
f 1 44 47
f 1 47 65
f 1 65 64
f 1 64 85
f 1 85 109
f 1 109 136
f 1 136 168
f 1 168 207
f 1 207 247
f 1 247 221
f 1 221 184
f 1 184 150
f 1 150 120
f 1 120 93
f 1 93 70
f 1 70 50
f 1 50 35
f 1 35 21
f 1 21 10
f 1 10 3
f 1 3 4
f 1 4 5
f 1 5 6
f 1 6 2
f 2 6 8
f 2 8 9
f 2 9 7
f 3 10 24
f 3 24 37
f 3 37 54
f 3 54 53
f 3 53 74
f 3 74 97
f 3 97 123
f 3 123 154
f 3 154 192
f 3 192 232
f 3 232 271
f 3 271 314
f 3 314 362
f 3 362 413
f 3 413 464
f 3 464 463
f 3 463 515
f 3 515 565
f 3 565 615
f 3 615 617
f 3 617 674
f 3 674 676
f 3 676 733
f 3 733 798
f 3 798 797
f 3 797 856
f 3 856 855
f 3 855 911
f 3 911 961
f 3 961 995
f 3 995 994
f 3 994 1046
f 3 1046 1101
f 3 1101 1100
f 3 1100 1099
f 3 1099 1152
f 3 1152 1199
f 3 1199 1245
f 3 1245 1294
f 3 1294 1340
f 3 1340 1364
f 3 1364 1370
f 3 1370 1369
f 3 1369 1368
f 3 1368 1350
f 3 1350 1312
f 3 1312 1311
f 3 1311 1265
f 3 1265 1264
f 3 1264 1216
f 3 1216 1172
f 3 1172 1171
f 3 1171 1125
f 3 1125 1071
f 3 1071 1016
f 3 1016 963
f 3 963 962
f 3 962 913
f 3 913 912
f 3 912 857
f 3 857 799
f 3 799 735
f 3 735 734
f 3 734 677
f 3 677 618
f 3 618 566
f 3 566 516
f 3 516 466
f 3 466 465
f 3 465 416
f 3 416 415
f 3 415 414
f 3 414 363
f 3 363 316
f 3 316 315
f 3 315 272
f 3 272 233
f 3 233 193
f 3 193 155
f 3 155 124
f 3 124 99
f 3 99 98
f 3 98 75
f 3 75 55
f 3 55 38
f 3 38 25
f 3 25 12
f 3 12 4
f 4 11 6
f 4 6 5
f 4 12 13
f 4 13 11
f 6 11 13
f 6 13 14
f 6 14 8
f 7 9 20
f 7 20 15
f 8 14 16
f 8 16 17
f 8 17 18
f 8 18 9
f 9 18 17
f 9 17 19
f 9 19 20
f 10 21 22
f 10 22 23
f 10 23 24
f 12 25 26
f 12 26 13
f 13 26 14
f 14 26 27
f 14 27 28
f 14 28 16
f 15 20 30
f 15 30 29
f 16 28 31
f 16 31 17
f 17 31 32
f 17 32 19
f 19 33 30
f 19 30 20
f 19 32 34
f 19 34 33
f 21 35 51
f 21 51 71
f 21 71 91
f 21 91 117
f 21 117 147
f 21 147 180
f 21 180 220
f 21 220 258
f 21 258 296
f 21 296 295
f 21 295 341
f 21 341 389
f 21 389 388
f 21 388 441
f 21 441 490
f 21 490 491
f 21 491 542
f 21 542 594
f 21 594 645
f 21 645 644
f 21 644 699
f 21 699 705
f 21 705 770
f 21 770 769
f 21 769 768
f 21 768 767
f 21 767 830
f 21 830 887
f 21 887 886
f 21 886 936
f 21 936 937
f 21 937 987
f 21 987 988
f 21 988 1040
f 21 1040 1095
f 21 1095 1147
f 21 1147 1193
f 21 1193 1194
f 21 1194 1239
f 21 1239 1288
f 21 1288 1333
f 21 1333 1332
f 21 1332 1362
f 21 1362 1365
f 21 1365 1343
f 21 1343 1342
f 21 1342 1341
f 21 1341 1295
f 21 1295 1247
f 21 1247 1246
f 21 1246 1200
f 21 1200 1153
f 21 1153 1102
f 21 1102 1048
f 21 1048 1047
f 21 1047 996
f 21 996 942
f 21 942 891
f 21 891 835
f 21 835 777
f 21 777 776
f 21 776 713
f 21 713 656
f 21 656 598
f 21 598 546
f 21 546 497
f 21 497 495
f 21 495 444
f 21 444 395
f 21 395 350
f 21 350 304
f 21 304 262
f 21 262 223
f 21 223 187
f 21 187 153
f 21 153 152
f 21 152 122
f 21 122 96
f 21 96 95
f 21 95 73
f 21 73 72
f 21 72 52
f 21 52 36
f 21 36 23
f 21 23 22
f 23 36 24
f 24 36 37
f 25 38 26
f 26 38 39
f 26 39 40
f 26 40 27
f 27 40 28
f 28 41 31
f 28 40 42
f 28 42 43
f 28 43 41
f 29 30 44
f 30 33 45
f 30 45 46
f 30 46 47
f 30 47 44
f 31 48 34
f 31 34 32
f 31 41 48
f 33 34 45
f 34 48 49
f 34 49 45
f 35 50 51
f 36 52 53
f 36 53 54
f 36 54 37
f 38 55 39
f 39 55 56
f 39 56 40
f 40 56 57
f 40 57 58
f 40 58 42
f 41 43 59
f 41 59 60
f 41 60 48
f 42 58 43
f 43 58 61
f 43 61 59
f 45 62 46
f 45 49 68
f 45 68 62
f 46 62 63
f 46 63 64
f 46 64 65
f 46 65 47
f 48 60 66
f 48 66 67
f 48 67 49
f 49 67 68
f 50 69 51
f 50 70 69
f 51 69 71
f 52 72 53
f 53 72 73
f 53 73 74
f 55 75 56
f 56 75 98
f 56 98 76
f 56 76 57
f 57 76 77
f 57 77 58
f 58 77 78
f 58 78 79
f 58 79 61
f 59 61 80
f 59 80 81
f 59 81 60
f 60 81 66
f 61 79 82
f 61 82 80
f 62 83 84
f 62 84 63
f 62 68 83
f 63 84 64
f 64 84 85
f 66 86 67
f 66 81 87
f 66 87 88
f 66 88 86
f 67 86 68
f 68 86 89
f 68 89 83
f 69 90 91
f 69 91 71
f 69 70 92
f 69 92 90
f 70 93 94
f 70 94 92
f 73 95 74
f 74 95 96
f 74 96 97
f 76 98 99
f 76 99 100
f 76 100 77
f 77 100 101
f 77 101 102
f 77 102 78
f 78 102 103
f 78 103 79
f 79 103 104
f 79 104 82
f 80 82 105
f 80 105 81
f 81 105 87
f 82 104 106
f 82 106 107
f 82 107 105
f 83 89 108
f 83 108 84
f 84 109 85
f 84 108 109
f 86 88 110
f 86 110 111
f 86 111 89
f 87 105 112
f 87 112 88
f 88 112 110
f 89 111 113
f 89 113 108
f 90 114 115
f 90 115 91
f 90 92 116
f 90 116 114
f 91 115 117
f 92 118 119
f 92 119 116
f 92 94 118
f 93 120 94
f 94 120 121
f 94 121 118
f 96 122 97
f 97 122 123
f 99 124 125
f 99 125 100
f 100 125 126
f 100 126 101
f 101 126 102
f 102 126 127
f 102 127 103
f 103 127 128
f 103 128 104
f 104 128 129
f 104 129 106
f 105 107 130
f 105 130 131
f 105 131 112
f 106 132 107
f 106 129 133
f 106 133 132
f 107 132 130
f 108 113 134
f 108 134 135
f 108 135 109
f 109 135 136
f 110 112 137
f 110 137 138
f 110 138 111
f 111 139 113
f 111 138 139
f 112 131 137
f 113 140 134
f 113 139 141
f 113 141 140
f 114 116 119
f 114 119 142
f 114 142 143
f 114 143 144
f 114 144 145
f 114 145 115
f 115 145 117
f 117 145 146
f 117 146 147
f 118 121 119
f 119 121 148
f 119 148 149
f 119 149 142
f 120 150 151
f 120 151 121
f 121 151 148
f 122 152 123
f 123 152 153
f 123 153 154
f 124 155 125
f 125 155 156
f 125 156 157
f 125 157 126
f 126 157 158
f 126 158 127
f 127 158 128
f 128 158 159
f 128 159 129
f 129 159 160
f 129 160 133
f 130 161 131
f 130 132 162
f 130 162 163
f 130 163 161
f 131 161 137
f 132 133 162
f 133 160 164
f 133 164 165
f 133 165 166
f 133 166 162
f 134 140 167
f 134 167 135
f 135 167 136
f 136 167 168
f 137 169 138
f 137 161 169
f 138 169 170
f 138 170 139
f 139 171 141
f 139 170 171
f 140 141 172
f 140 172 173
f 140 173 174
f 140 174 167
f 141 171 172
f 142 149 143
f 143 175 176
f 143 176 177
f 143 177 144
f 143 149 175
f 144 177 145
f 145 177 178
f 145 178 179
f 145 179 146
f 146 179 147
f 147 179 180
f 148 181 149
f 148 151 181
f 149 181 182
f 149 182 175
f 150 183 151
f 150 184 183
f 151 185 186
f 151 186 181
f 151 183 185
f 153 187 188
f 153 188 189
f 153 189 190
f 153 190 154
f 154 190 191
f 154 191 192
f 155 193 194
f 155 194 156
f 156 194 157
f 157 194 195
f 157 195 158
f 158 195 196
f 158 196 159
f 159 196 197
f 159 197 198
f 159 198 160
f 160 198 164
f 161 163 199
f 161 199 200
f 161 200 169
f 162 166 201
f 162 201 202
f 162 202 163
f 163 202 199
f 164 198 203
f 164 203 165
f 165 204 166
f 165 203 205
f 165 205 204
f 166 204 201
f 167 174 206
f 167 206 168
f 168 206 207
f 169 200 208
f 169 208 170
f 170 209 171
f 170 208 210
f 170 210 209
f 171 209 172
f 172 185 173
f 172 209 211
f 172 211 186
f 172 186 185
f 173 212 174
f 173 185 212
f 174 212 206
f 175 213 176
f 175 182 214
f 175 214 213
f 176 213 215
f 176 215 216
f 176 216 217
f 176 217 177
f 177 217 218
f 177 218 178
f 178 218 179
f 179 218 219
f 179 219 220
f 179 220 180
f 181 186 182
f 182 186 211
f 182 211 214
f 183 184 221
f 183 221 212
f 183 212 185
f 187 222 188
f 187 223 224
f 187 224 225
f 187 225 226
f 187 226 222
f 188 227 228
f 188 228 189
f 188 222 227
f 189 228 191
f 189 191 190
f 191 229 230
f 191 230 231
f 191 231 232
f 191 232 192
f 191 228 227
f 191 227 229
f 193 233 194
f 194 233 234
f 194 234 235
f 194 235 195
f 195 235 236
f 195 236 196
f 196 236 237
f 196 237 197
f 197 237 198
f 198 237 238
f 198 238 239
f 198 239 203
f 199 240 200
f 199 202 241
f 199 241 240
f 200 240 242
f 200 242 208
f 201 204 243
f 201 243 283
f 201 283 244
f 201 244 202
f 202 244 241
f 203 239 245
f 203 245 205
f 204 205 246
f 204 246 243
f 205 245 246
f 206 247 207
f 206 212 221
f 206 221 247
f 208 248 210
f 208 242 249
f 208 249 248
f 209 210 248
f 209 248 211
f 211 248 214
f 213 214 250
f 213 250 215
f 214 248 249
f 214 249 250
f 215 250 251
f 215 251 252
f 215 252 253
f 215 253 216
f 216 253 217
f 217 253 254
f 217 254 218
f 218 254 255
f 218 255 256
f 218 256 219
f 219 256 257
f 219 257 220
f 220 257 258
f 222 259 227
f 222 226 260
f 222 260 261
f 222 261 259
f 223 225 224
f 223 262 225
f 225 262 263
f 225 263 264
f 225 264 265
f 225 265 266
f 225 266 260
f 225 260 226
f 227 259 267
f 227 267 229
f 229 267 268
f 229 268 269
f 229 269 230
f 230 269 270
f 230 270 231
f 231 270 271
f 231 271 232
f 233 272 234
f 234 272 273
f 234 273 235
f 235 273 274
f 235 274 236
f 236 274 275
f 236 275 276
f 236 276 237
f 237 276 238
f 238 276 277
f 238 277 239
f 239 277 278
f 239 278 285
f 239 285 245
f 240 279 242
f 240 241 280
f 240 280 279
f 241 244 281
f 241 281 280
f 242 282 249
f 242 279 282
f 243 246 283
f 244 283 281
f 245 284 246
f 245 285 284
f 246 286 283
f 246 284 287
f 246 287 286
f 249 282 251
f 249 251 250
f 251 288 252
f 251 282 288
f 252 289 253
f 252 288 289
f 253 289 290
f 253 290 291
f 253 291 254
f 254 291 255
f 255 291 292
f 255 292 256
f 256 292 293
f 256 293 294
f 256 294 257
f 257 294 295
f 257 295 296
f 257 296 258
f 259 261 297
f 259 297 298
f 259 298 299
f 259 299 267
f 260 266 300
f 260 300 301
f 260 301 302
f 260 302 303
f 260 303 297
f 260 297 261
f 262 304 305
f 262 305 306
f 262 306 264
f 262 264 263
f 264 306 307
f 264 307 308
f 264 308 309
f 264 309 266
f 264 266 265
f 266 309 310
f 266 310 300
f 267 299 268
f 268 299 311
f 268 311 269
f 269 311 312
f 269 312 270
f 270 312 313
f 270 313 314
f 270 314 271
f 272 315 273
f 273 315 316
f 273 316 317
f 273 317 318
f 273 318 274
f 274 318 319
f 274 319 320
f 274 320 275
f 275 320 321
f 275 321 276
f 276 321 322
f 276 322 277
f 277 322 323
f 277 323 278
f 278 323 324
f 278 324 285
f 279 288 282
f 279 280 288
f 280 281 325
f 280 325 326
f 280 326 288
f 281 283 327
f 281 327 325
f 283 286 328
f 283 328 327
f 284 285 329
f 284 329 287
f 285 324 330
f 285 330 329
f 286 287 331
f 286 331 328
f 287 329 332
f 287 332 333
f 287 333 331
f 288 326 289
f 289 326 334
f 289 334 335
f 289 335 290
f 290 335 336
f 290 336 291
f 291 336 337
f 291 337 292
f 292 337 338
f 292 338 293
f 293 338 294
f 294 338 339
f 294 339 340
f 294 340 295
f 295 340 341
f 297 303 342
f 297 342 343
f 297 343 344
f 297 344 345
f 297 345 346
f 297 346 298
f 298 346 299
f 299 346 312
f 299 312 311
f 300 310 347
f 300 347 348
f 300 348 301
f 301 348 303
f 301 303 302
f 303 348 342
f 304 349 305
f 304 350 351
f 304 351 349
f 305 349 352
f 305 352 353
f 305 353 354
f 305 354 355
f 305 355 307
f 305 307 306
f 307 355 356
f 307 356 357
f 307 357 358
f 307 358 359
f 307 359 308
f 308 347 310
f 308 310 309
f 308 359 347
f 312 346 360
f 312 360 313
f 313 360 361
f 313 361 362
f 313 362 314
f 316 363 317
f 317 363 414
f 317 414 364
f 317 364 318
f 318 364 365
f 318 365 366
f 318 366 367
f 318 367 319
f 319 367 368
f 319 368 369
f 319 369 320
f 320 369 321
f 321 369 370
f 321 370 322
f 322 370 371
f 322 371 323
f 323 371 372
f 323 372 324
f 324 372 373
f 324 373 330
f 325 334 326
f 325 327 374
f 325 374 334
f 327 328 374
f 328 331 375
f 328 375 376
f 328 376 374
f 329 330 332
f 330 373 377
f 330 377 332
f 331 333 378
f 331 378 379
f 331 379 375
f 332 378 333
f 332 377 380
f 332 380 378
f 334 374 381
f 334 381 382
f 334 382 335
f 335 382 383
f 335 383 336
f 336 383 384
f 336 384 337
f 337 384 338
f 338 384 385
f 338 385 386
f 338 386 339
f 339 386 387
f 339 387 340
f 340 387 388
f 340 388 389
f 340 389 341
f 342 348 359
f 342 359 390
f 342 390 343
f 343 391 344
f 343 390 392
f 343 392 393
f 343 393 391
f 344 391 345
f 345 391 394
f 345 394 346
f 346 394 360
f 347 359 348
f 349 351 352
f 350 395 396
f 350 396 351
f 351 396 445
f 351 445 397
f 351 397 352
f 352 397 398
f 352 398 353
f 353 398 399
f 353 399 354
f 354 399 400
f 354 400 401
f 354 401 355
f 355 401 400
f 355 400 402
f 355 402 356
f 356 402 400
f 356 400 403
f 356 403 404
f 356 404 357
f 357 404 405
f 357 405 358
f 358 406 359
f 358 405 407
f 358 407 406
f 359 406 408
f 359 408 409
f 359 409 410
f 359 410 392
f 359 392 390
f 360 394 411
f 360 411 361
f 361 411 412
f 361 412 362
f 362 412 413
f 364 414 415
f 364 415 365
f 365 415 416
f 365 416 417
f 365 417 418
f 365 418 366
f 366 418 367
f 367 419 368
f 367 418 420
f 367 420 419
f 368 419 470
f 368 470 421
f 368 421 369
f 369 421 370
f 370 421 422
f 370 422 371
f 371 422 423
f 371 423 372
f 372 423 424
f 372 424 373
f 373 424 425
f 373 425 377
f 374 376 381
f 375 379 426
f 375 426 427
f 375 427 376
f 376 427 381
f 377 425 428
f 377 428 380
f 378 429 379
f 378 380 430
f 378 430 431
f 378 431 429
f 379 429 426
f 380 428 430
f 381 432 382
f 381 427 433
f 381 433 434
f 381 434 432
f 382 432 383
f 383 432 435
f 383 435 384
f 384 435 436
f 384 436 385
f 385 436 437
f 385 437 438
f 385 438 386
f 386 438 439
f 386 439 387
f 387 439 440
f 387 440 388
f 388 440 441
f 391 393 394
f 392 410 460
f 392 460 442
f 392 442 443
f 392 443 393
f 393 443 461
f 393 461 411
f 393 411 394
f 395 444 396
f 396 444 446
f 396 446 496
f 396 496 445
f 397 445 398
f 398 445 447
f 398 447 449
f 398 449 399
f 399 448 400
f 399 449 450
f 399 450 448
f 400 448 451
f 400 451 452
f 400 452 403
f 403 452 453
f 403 453 404
f 404 453 454
f 404 454 455
f 404 455 405
f 405 408 406
f 405 406 407
f 405 455 456
f 405 456 457
f 405 457 458
f 405 458 459
f 405 459 409
f 405 409 408
f 409 459 460
f 409 460 410
f 411 461 412
f 412 461 494
f 412 494 462
f 412 462 463
f 412 463 464
f 412 464 413
f 416 465 417
f 417 465 466
f 417 466 467
f 417 467 468
f 417 468 418
f 418 468 469
f 418 469 420
f 419 420 471
f 419 471 470
f 420 469 471
f 421 470 472
f 421 472 422
f 422 472 423
f 423 472 473
f 423 473 424
f 424 473 474
f 424 474 425
f 425 474 475
f 425 475 428
f 426 429 476
f 426 476 433
f 426 433 427
f 428 475 477
f 428 477 430
f 429 431 476
f 430 478 431
f 430 477 479
f 430 479 480
f 430 480 478
f 431 478 481
f 431 481 476
f 432 434 482
f 432 482 483
f 432 483 435
f 433 482 434
f 433 476 484
f 433 484 482
f 435 483 485
f 435 485 436
f 436 485 437
f 437 486 438
f 437 485 487
f 437 487 488
f 437 488 486
f 438 486 439
f 439 486 489
f 439 489 440
f 440 490 441
f 440 489 491
f 440 491 490
f 442 460 513
f 442 513 492
f 442 492 443
f 443 492 493
f 443 493 494
f 443 494 461
f 444 495 446
f 445 496 447
f 446 495 497
f 446 497 498
f 446 498 499
f 446 499 496
f 447 496 500
f 447 500 501
f 447 501 449
f 448 450 451
f 449 501 502
f 449 502 503
f 449 503 450
f 450 452 451
f 450 503 504
f 450 504 505
f 450 505 452
f 452 505 453
f 453 505 506
f 453 506 507
f 453 507 508
f 453 508 454
f 454 509 455
f 454 508 510
f 454 510 509
f 455 511 456
f 455 509 511
f 456 511 457
f 457 511 458
f 458 511 459
f 459 511 512
f 459 512 513
f 459 513 460
f 462 494 545
f 462 545 514
f 462 514 515
f 462 515 463
f 466 516 467
f 467 516 566
f 467 566 517
f 467 517 518
f 467 518 519
f 467 519 468
f 468 519 521
f 468 521 469
f 469 520 471
f 469 521 522
f 469 522 520
f 470 471 523
f 470 523 472
f 471 520 523
f 472 523 524
f 472 524 473
f 473 524 525
f 473 525 474
f 474 525 526
f 474 526 475
f 475 526 527
f 475 527 477
f 476 481 528
f 476 528 484
f 477 527 479
f 478 529 481
f 478 480 530
f 478 530 529
f 479 531 480
f 479 527 532
f 479 532 533
f 479 533 534
f 479 534 531
f 480 531 530
f 481 529 528
f 482 535 483
f 482 484 536
f 482 536 537
f 482 537 535
f 483 535 485
f 484 528 536
f 485 535 487
f 486 488 538
f 486 538 539
f 486 539 489
f 487 540 541
f 487 541 488
f 487 535 540
f 488 541 538
f 489 539 542
f 489 542 491
f 492 513 563
f 492 563 543
f 492 543 544
f 492 544 493
f 493 544 494
f 494 544 545
f 496 499 500
f 497 546 547
f 497 547 498
f 498 547 548
f 498 548 499
f 499 548 549
f 499 549 500
f 500 549 550
f 500 550 501
f 501 550 502
f 502 551 504
f 502 504 503
f 502 550 552
f 502 552 551
f 504 551 506
f 504 506 505
f 506 551 553
f 506 553 507
f 507 553 554
f 507 554 555
f 507 555 508
f 508 555 556
f 508 556 510
f 509 510 557
f 509 557 511
f 510 558 557
f 510 556 608
f 510 608 558
f 511 557 559
f 511 559 560
f 511 560 512
f 512 561 562
f 512 562 563
f 512 563 513
f 512 560 561
f 514 545 597
f 514 597 564
f 514 564 565
f 514 565 515
f 517 566 618
f 517 618 567
f 517 567 569
f 517 569 518
f 518 568 521
f 518 521 519
f 518 569 568
f 520 570 523
f 520 522 571
f 520 571 570
f 521 568 522
f 522 568 572
f 522 572 571
f 523 570 524
f 524 570 573
f 524 573 574
f 524 574 525
f 525 574 526
f 526 574 575
f 526 575 532
f 526 532 527
f 528 529 576
f 528 576 536
f 529 530 577
f 529 577 576
f 530 531 578
f 530 578 577
f 531 534 585
f 531 585 578
f 532 579 533
f 532 575 580
f 532 580 581
f 532 581 582
f 532 582 579
f 533 579 583
f 533 583 584
f 533 584 534
f 534 584 585
f 535 537 540
f 536 586 537
f 536 576 587
f 536 587 588
f 536 588 586
f 537 586 540
f 538 589 542
f 538 542 539
f 538 541 590
f 538 590 591
f 538 591 592
f 538 592 589
f 540 586 593
f 540 593 541
f 541 593 590
f 542 589 594
f 543 563 614
f 543 614 595
f 543 595 596
f 543 596 544
f 544 596 597
f 544 597 545
f 546 598 547
f 547 599 548
f 547 598 600
f 547 600 599
f 548 599 601
f 548 601 549
f 549 601 550
f 550 601 602
f 550 602 604
f 550 604 552
f 551 552 603
f 551 603 553
f 552 604 603
f 553 603 605
f 553 605 554
f 554 605 606
f 554 606 607
f 554 607 555
f 555 607 556
f 556 607 609
f 556 609 610
f 556 610 608
f 557 558 559
f 558 611 559
f 558 608 611
f 559 611 561
f 559 561 560
f 561 611 612
f 561 612 562
f 562 612 613
f 562 613 563
f 563 613 614
f 564 615 565
f 564 597 655
f 564 655 616
f 564 616 617
f 564 617 615
f 567 619 622
f 567 622 569
f 567 618 619
f 568 569 620
f 568 620 621
f 568 621 572
f 569 622 679
f 569 679 620
f 570 571 624
f 570 624 573
f 571 572 623
f 571 623 624
f 572 621 625
f 572 625 623
f 573 624 626
f 573 626 574
f 574 626 580
f 574 580 575
f 576 577 587
f 577 578 627
f 577 627 587
f 578 585 628
f 578 628 627
f 579 582 629
f 579 629 583
f 580 626 581
f 581 630 631
f 581 631 632
f 581 632 633
f 581 633 582
f 581 626 634
f 581 634 630
f 582 633 635
f 582 635 636
f 582 636 629
f 583 629 637
f 583 637 638
f 583 638 584
f 584 639 585
f 584 638 639
f 585 639 628
f 586 588 640
f 586 640 593
f 587 627 641
f 587 641 642
f 587 642 643
f 587 643 588
f 588 643 640
f 589 592 644
f 589 644 645
f 589 645 594
f 590 646 591
f 590 593 646
f 591 646 647
f 591 647 648
f 591 648 649
f 591 649 650
f 591 650 592
f 592 650 644
f 593 640 646
f 595 614 651
f 595 651 652
f 595 652 653
f 595 653 654
f 595 654 596
f 596 654 655
f 596 655 597
f 598 656 600
f 599 600 657
f 599 657 658
f 599 658 601
f 600 656 659
f 600 659 660
f 600 660 657
f 601 658 602
f 602 658 661
f 602 661 662
f 602 662 604
f 603 604 663
f 603 663 605
f 604 662 664
f 604 664 663
f 605 663 665
f 605 665 606
f 606 665 666
f 606 666 607
f 607 666 667
f 607 667 668
f 607 668 609
f 608 610 669
f 608 669 670
f 608 670 611
f 609 668 671
f 609 671 610
f 610 671 669
f 611 670 612
f 612 670 672
f 612 672 613
f 613 672 673
f 613 673 614
f 614 673 651
f 616 674 617
f 616 655 675
f 616 675 676
f 616 676 674
f 618 677 619
f 619 677 734
f 619 734 678
f 619 678 622
f 620 679 621
f 621 679 680
f 621 680 625
f 622 678 681
f 622 681 682
f 622 682 679
f 623 683 624
f 623 625 684
f 623 684 683
f 624 683 626
f 625 680 685
f 625 685 684
f 626 683 634
f 627 628 641
f 628 639 686
f 628 686 641
f 629 636 687
f 629 687 637
f 630 684 688
f 630 688 631
f 630 634 683
f 630 683 684
f 631 688 632
f 632 688 689
f 632 689 690
f 632 690 635
f 632 635 633
f 635 690 751
f 635 751 691
f 635 691 636
f 636 691 687
f 637 687 692
f 637 692 693
f 637 693 638
f 638 693 686
f 638 686 639
f 640 643 694
f 640 694 646
f 641 695 696
f 641 696 642
f 641 686 697
f 641 697 695
f 642 696 698
f 642 698 643
f 643 698 694
f 644 650 699
f 646 694 647
f 647 694 700
f 647 700 648
f 648 701 702
f 648 702 703
f 648 703 704
f 648 704 649
f 648 700 701
f 649 704 705
f 649 705 650
f 650 705 699
f 651 706 652
f 651 673 706
f 652 707 653
f 652 706 708
f 652 708 709
f 652 709 707
f 653 707 654
f 654 707 710
f 654 710 655
f 655 710 711
f 655 711 712
f 655 712 675
f 656 713 659
f 657 660 714
f 657 714 658
f 658 714 661
f 659 715 716
f 659 716 660
f 659 713 715
f 660 717 714
f 660 716 718
f 660 718 717
f 661 714 662
f 662 714 719
f 662 719 720
f 662 720 721
f 662 721 664
f 663 664 665
f 664 721 722
f 664 722 665
f 665 722 666
f 666 722 723
f 666 723 667
f 667 723 724
f 667 724 668
f 668 724 725
f 668 725 729
f 668 729 671
f 669 726 672
f 669 672 670
f 669 671 727
f 669 727 728
f 669 728 726
f 671 729 730
f 671 730 727
f 672 726 673
f 673 726 706
f 675 712 731
f 675 731 732
f 675 732 676
f 676 732 733
f 678 734 735
f 678 735 736
f 678 736 737
f 678 737 681
f 679 682 738
f 679 738 680
f 680 738 743
f 680 743 685
f 681 737 682
f 682 737 739
f 682 739 740
f 682 740 741
f 682 741 738
f 684 685 742
f 684 742 688
f 685 743 744
f 685 744 742
f 686 693 745
f 686 745 746
f 686 746 697
f 687 691 747
f 687 747 692
f 688 744 748
f 688 748 749
f 688 749 689
f 688 742 744
f 689 749 750
f 689 750 690
f 690 750 752
f 690 752 753
f 690 753 754
f 690 754 751
f 691 751 755
f 691 755 747
f 692 747 756
f 692 756 757
f 692 757 745
f 692 745 693
f 694 698 700
f 695 697 758
f 695 758 759
f 695 759 696
f 696 759 760
f 696 760 698
f 697 746 761
f 697 761 758
f 698 760 700
f 700 760 762
f 700 762 701
f 701 762 702
f 702 762 763
f 702 763 764
f 702 764 765
f 702 765 766
f 702 766 703
f 703 766 767
f 703 767 704
f 704 767 768
f 704 768 769
f 704 769 770
f 704 770 705
f 706 726 728
f 706 728 708
f 707 709 771
f 707 771 710
f 708 728 772
f 708 772 709
f 709 772 773
f 709 773 771
f 710 771 711
f 711 774 775
f 711 775 731
f 711 731 712
f 711 771 774
f 713 776 715
f 714 717 719
f 715 776 777
f 715 777 778
f 715 778 716
f 716 778 779
f 716 779 718
f 717 718 780
f 717 780 781
f 717 781 719
f 718 779 782
f 718 782 783
f 718 783 780
f 719 781 720
f 720 781 784
f 720 784 785
f 720 785 721
f 721 785 786
f 721 786 787
f 721 787 722
f 722 787 723
f 723 787 788
f 723 788 724
f 724 788 789
f 724 789 725
f 725 789 729
f 727 730 728
f 728 730 790
f 728 790 772
f 729 789 791
f 729 791 792
f 729 792 793
f 729 793 794
f 729 794 730
f 730 794 795
f 730 795 790
f 731 775 796
f 731 796 732
f 732 797 798
f 732 798 733
f 732 796 797
f 735 799 800
f 735 800 736
f 736 800 737
f 737 800 801
f 737 801 739
f 738 741 743
f 739 801 802
f 739 802 803
f 739 803 804
f 739 804 805
f 739 805 740
f 740 805 741
f 741 805 806
f 741 806 807
f 741 807 743
f 743 807 744
f 744 807 748
f 745 757 808
f 745 808 809
f 745 809 746
f 746 809 761
f 747 755 756
f 748 807 810
f 748 810 749
f 749 810 866
f 749 866 811
f 749 811 812
f 749 812 750
f 750 812 813
f 750 813 752
f 751 754 755
f 752 813 753
f 753 813 814
f 753 814 815
f 753 815 816
f 753 816 817
f 753 817 754
f 754 817 818
f 754 818 755
f 755 818 756
f 756 818 819
f 756 819 820
f 756 820 757
f 757 820 808
f 758 761 821
f 758 821 822
f 758 822 759
f 759 822 762
f 759 762 760
f 761 809 823
f 761 823 821
f 762 822 763
f 763 821 824
f 763 824 825
f 763 825 826
f 763 826 764
f 763 822 821
f 764 826 827
f 764 827 828
f 764 828 765
f 765 828 829
f 765 829 766
f 766 830 767
f 766 829 830
f 771 773 774
f 772 790 795
f 772 795 831
f 772 831 832
f 772 832 773
f 773 832 833
f 773 833 774
f 774 833 834
f 774 834 775
f 775 834 796
f 777 835 778
f 778 835 836
f 778 836 779
f 779 836 837
f 779 837 782
f 780 838 781
f 780 783 838
f 781 838 784
f 782 837 839
f 782 839 783
f 783 839 840
f 783 840 841
f 783 841 842
f 783 842 838
f 784 838 843
f 784 843 785
f 785 843 844
f 785 844 845
f 785 845 786
f 786 845 846
f 786 846 788
f 786 788 787
f 788 846 789
f 789 846 847
f 789 847 792
f 789 792 791
f 792 847 848
f 792 848 849
f 792 849 850
f 792 850 793
f 793 850 794
f 794 850 851
f 794 851 795
f 795 851 852
f 795 852 853
f 795 853 831
f 796 834 854
f 796 854 855
f 796 855 856
f 796 856 797
f 799 857 800
f 800 857 858
f 800 858 802
f 800 802 801
f 802 858 859
f 802 859 860
f 802 860 803
f 803 860 861
f 803 861 862
f 803 862 863
f 803 863 864
f 803 864 865
f 803 865 806
f 803 806 805
f 803 805 804
f 806 865 866
f 806 866 810
f 806 810 807
f 808 867 809
f 808 820 868
f 808 868 867
f 809 867 823
f 811 869 870
f 811 870 812
f 811 866 869
f 812 814 813
f 812 870 871
f 812 871 872
f 812 872 814
f 814 872 873
f 814 873 815
f 815 873 874
f 815 874 875
f 815 875 816
f 816 875 876
f 816 876 817
f 817 877 818
f 817 876 877
f 818 877 819
f 819 877 878
f 819 878 879
f 819 879 820
f 820 879 868
f 821 823 824
f 823 867 880
f 823 880 824
f 824 880 825
f 825 881 882
f 825 882 883
f 825 883 826
f 825 880 881
f 826 883 827
f 827 884 828
f 827 883 885
f 827 885 884
f 828 886 829
f 828 884 886
f 829 886 887
f 829 887 830
f 831 853 832
f 832 853 888
f 832 888 889
f 832 889 833
f 833 889 890
f 833 890 834
f 834 890 910
f 834 910 854
f 835 891 836
f 836 891 892
f 836 892 837
f 837 892 893
f 837 893 839
f 838 842 843
f 839 893 894
f 839 894 840
f 840 894 895
f 840 895 896
f 840 896 841
f 841 897 898
f 841 898 842
f 841 896 897
f 842 898 843
f 843 898 844
f 844 898 899
f 844 899 845
f 845 899 900
f 845 900 901
f 845 901 902
f 845 902 846
f 846 902 847
f 847 902 848
f 848 902 903
f 848 903 849
f 849 903 904
f 849 904 905
f 849 905 850
f 850 905 851
f 851 905 906
f 851 906 852
f 852 906 907
f 852 907 853
f 853 907 908
f 853 908 909
f 853 909 888
f 854 910 911
f 854 911 855
f 857 912 858
f 858 912 859
f 859 912 913
f 859 913 914
f 859 914 861
f 859 861 860
f 861 914 915
f 861 915 916
f 861 916 917
f 861 917 862
f 862 917 863
f 863 917 918
f 863 918 919
f 863 919 864
f 864 869 866
f 864 866 865
f 864 919 869
f 867 868 920
f 867 920 880
f 868 879 921
f 868 921 920
f 869 919 922
f 869 922 870
f 870 922 871
f 871 922 923
f 871 923 924
f 871 924 873
f 871 873 872
f 873 924 874
f 874 924 925
f 874 925 926
f 874 926 927
f 874 927 875
f 875 927 928
f 875 928 876
f 876 928 929
f 876 929 930
f 876 930 877
f 877 930 878
f 878 930 931
f 878 931 879
f 879 931 921
f 880 920 881
f 881 920 932
f 881 932 933
f 881 933 882
f 882 933 934
f 882 934 935
f 882 935 883
f 883 935 885
f 884 936 886
f 884 885 937
f 884 937 936
f 885 935 938
f 885 938 937
f 888 909 939
f 888 939 889
f 889 939 940
f 889 940 890
f 890 940 941
f 890 941 910
f 891 942 892
f 892 942 943
f 892 943 893
f 893 943 944
f 893 944 894
f 894 944 945
f 894 945 895
f 895 945 946
f 895 946 896
f 896 946 947
f 896 947 948
f 896 948 949
f 896 949 897
f 897 949 950
f 897 950 899
f 897 899 898
f 899 950 900
f 900 950 951
f 900 951 901
f 901 951 952
f 901 952 953
f 901 953 903
f 901 903 902
f 903 953 904
f 904 954 905
f 904 953 955
f 904 955 956
f 904 956 954
f 905 954 906
f 906 954 956
f 906 956 957
f 906 957 907
f 907 957 958
f 907 958 908
f 908 958 959
f 908 959 909
f 909 959 960
f 909 960 939
f 910 941 961
f 910 961 911
f 913 962 915
f 913 915 914
f 915 962 963
f 915 963 964
f 915 964 965
f 915 965 916
f 916 965 917
f 917 965 966
f 917 966 967
f 917 967 918
f 918 968 919
f 918 967 968
f 919 968 922
f 920 921 932
f 921 931 969
f 921 969 970
f 921 970 932
f 922 968 923
f 923 968 971
f 923 971 972
f 923 972 924
f 924 972 925
f 925 972 973
f 925 973 974
f 925 974 926
f 926 975 927
f 926 974 976
f 926 976 975
f 927 975 928
f 928 975 977
f 928 977 978
f 928 978 979
f 928 979 929
f 929 980 930
f 929 979 980
f 930 980 931
f 931 980 981
f 931 981 969
f 932 970 982
f 932 982 983
f 932 983 933
f 933 983 984
f 933 984 934
f 934 984 985
f 934 985 986
f 934 986 935
f 935 986 938
f 937 938 987
f 938 986 988
f 938 988 987
f 939 960 989
f 939 989 940
f 940 989 990
f 940 990 941
f 941 990 991
f 941 991 992
f 941 992 993
f 941 993 994
f 941 994 995
f 941 995 961
f 942 996 943
f 943 996 997
f 943 997 998
f 943 998 944
f 944 998 999
f 944 999 945
f 945 999 1000
f 945 1000 946
f 946 1000 1001
f 946 1001 947
f 947 1001 1002
f 947 1002 948
f 948 1003 949
f 948 1002 1004
f 948 1004 1005
f 948 1005 1003
f 949 1003 950
f 950 1003 1006
f 950 1006 951
f 951 1006 1007
f 951 1007 952
f 952 1007 1008
f 952 1008 1009
f 952 1009 953
f 953 1009 1010
f 953 1010 1011
f 953 1011 955
f 955 1011 1012
f 955 1012 956
f 956 1012 1013
f 956 1013 957
f 957 1013 958
f 958 1013 1014
f 958 1014 959
f 959 1014 1015
f 959 1015 960
f 960 1015 989
f 963 1016 1017
f 963 1017 964
f 964 1017 1018
f 964 1018 965
f 965 1018 1019
f 965 1019 966
f 966 1019 967
f 967 1019 1020
f 967 1020 1021
f 967 1021 971
f 967 971 968
f 969 981 982
f 969 982 970
f 971 1021 1022
f 971 1022 972
f 972 1022 973
f 973 1022 1023
f 973 1023 1024
f 973 1024 974
f 974 1024 1025
f 974 1025 976
f 975 976 977
f 976 1025 1026
f 976 1026 977
f 977 1026 1027
f 977 1027 1028
f 977 1028 978
f 978 1028 1029
f 978 1029 979
f 979 1029 1030
f 979 1030 980
f 980 1030 981
f 981 1031 982
f 981 1030 1032
f 981 1032 1033
f 981 1033 1034
f 981 1034 1031
f 982 1031 1035
f 982 1035 983
f 983 1035 984
f 984 1036 985
f 984 1035 1037
f 984 1037 1036
f 985 1036 1038
f 985 1038 1039
f 985 1039 986
f 986 1039 988
f 988 1039 1040
f 989 1015 1041
f 989 1041 1042
f 989 1042 990
f 990 1042 991
f 991 993 992
f 991 1042 1043
f 991 1043 1044
f 991 1044 1045
f 991 1045 993
f 993 1045 1044
f 993 1044 1046
f 993 1046 994
f 996 1047 997
f 997 1048 1049
f 997 1049 998
f 997 1047 1048
f 998 1049 1050
f 998 1050 999
f 999 1050 1051
f 999 1051 1000
f 1000 1051 1052
f 1000 1052 1001
f 1001 1052 1053
f 1001 1053 1054
f 1001 1054 1002
f 1002 1054 1055
f 1002 1055 1004
f 1003 1008 1007
f 1003 1007 1006
f 1003 1005 1008
f 1004 1055 1056
f 1004 1056 1005
f 1005 1056 1057
f 1005 1057 1058
f 1005 1058 1059
f 1005 1059 1060
f 1005 1060 1008
f 1008 1061 1009
f 1008 1060 1061
f 1009 1061 1010
f 1010 1061 1062
f 1010 1062 1011
f 1011 1062 1063
f 1011 1063 1064
f 1011 1064 1012
f 1012 1065 1013
f 1012 1064 1066
f 1012 1066 1067
f 1012 1067 1065
f 1013 1065 1068
f 1013 1068 1014
f 1014 1068 1015
f 1015 1068 1069
f 1015 1069 1070
f 1015 1070 1041
f 1016 1071 1072
f 1016 1072 1017
f 1017 1072 1018
f 1018 1072 1073
f 1018 1073 1074
f 1018 1074 1019
f 1019 1074 1020
f 1020 1074 1075
f 1020 1075 1076
f 1020 1076 1021
f 1021 1076 1022
f 1022 1076 1023
f 1023 1076 1077
f 1023 1077 1078
f 1023 1078 1024
f 1024 1078 1079
f 1024 1079 1025
f 1025 1079 1080
f 1025 1080 1026
f 1026 1080 1081
f 1026 1081 1027
f 1027 1081 1082
f 1027 1082 1083
f 1027 1083 1028
f 1028 1083 1084
f 1028 1084 1029
f 1029 1032 1030
f 1029 1084 1032
f 1031 1034 1035
f 1032 1085 1033
f 1032 1084 1086
f 1032 1086 1085
f 1033 1085 1034
f 1034 1087 1035
f 1034 1085 1088
f 1034 1088 1087
f 1035 1087 1037
f 1036 1037 1089
f 1036 1089 1038
f 1037 1087 1090
f 1037 1090 1089
f 1038 1089 1091
f 1038 1091 1092
f 1038 1092 1093
f 1038 1093 1039
f 1039 1093 1040
f 1040 1093 1094
f 1040 1094 1095
f 1041 1070 1042
f 1042 1070 1043
f 1043 1070 1124
f 1043 1124 1096
f 1043 1096 1044
f 1044 1096 1097
f 1044 1097 1098
f 1044 1098 1099
f 1044 1099 1100
f 1044 1100 1101
f 1044 1101 1046
f 1048 1102 1049
f 1049 1102 1103
f 1049 1103 1050
f 1050 1103 1104
f 1050 1104 1051
f 1051 1104 1105
f 1051 1105 1052
f 1052 1105 1053
f 1053 1106 1054
f 1053 1105 1107
f 1053 1107 1108
f 1053 1108 1109
f 1053 1109 1106
f 1054 1106 1055
f 1055 1106 1110
f 1055 1110 1056
f 1056 1110 1057
f 1057 1111 1112
f 1057 1112 1058
f 1057 1110 1113
f 1057 1113 1111
f 1058 1112 1059
f 1059 1114 1060
f 1059 1112 1115
f 1059 1115 1114
f 1060 1114 1116
f 1060 1116 1061
f 1061 1116 1062
f 1062 1116 1114
f 1062 1114 1117
f 1062 1117 1063
f 1063 1117 1064
f 1064 1117 1118
f 1064 1118 1119
f 1064 1119 1120
f 1064 1120 1066
f 1065 1067 1122
f 1065 1122 1068
f 1066 1120 1067
f 1067 1120 1121
f 1067 1121 1122
f 1068 1122 1123
f 1068 1123 1069
f 1069 1123 1124
f 1069 1124 1070
f 1071 1125 1072
f 1072 1125 1126
f 1072 1126 1127
f 1072 1127 1073
f 1073 1127 1074
f 1074 1127 1128
f 1074 1128 1129
f 1074 1129 1075
f 1075 1129 1076
f 1076 1129 1077
f 1077 1129 1176
f 1077 1176 1130
f 1077 1130 1131
f 1077 1131 1078
f 1078 1131 1132
f 1078 1132 1079
f 1079 1132 1133
f 1079 1133 1080
f 1080 1133 1134
f 1080 1134 1081
f 1081 1134 1135
f 1081 1135 1082
f 1082 1135 1136
f 1082 1136 1137
f 1082 1137 1083
f 1083 1137 1138
f 1083 1138 1084
f 1084 1138 1086
f 1085 1086 1139
f 1085 1139 1088
f 1086 1138 1140
f 1086 1140 1139
f 1087 1088 1141
f 1087 1141 1090
f 1088 1139 1142
f 1088 1142 1141
f 1089 1090 1091
f 1090 1143 1091
f 1090 1141 1143
f 1091 1143 1144
f 1091 1144 1145
f 1091 1145 1092
f 1092 1145 1094
f 1092 1094 1093
f 1094 1145 1146
f 1094 1146 1147
f 1094 1147 1095
f 1096 1124 1148
f 1096 1148 1097
f 1097 1148 1149
f 1097 1149 1150
f 1097 1150 1151
f 1097 1151 1098
f 1098 1151 1152
f 1098 1152 1099
f 1102 1153 1103
f 1103 1153 1154
f 1103 1154 1104
f 1104 1154 1155
f 1104 1155 1105
f 1105 1155 1107
f 1106 1109 1110
f 1107 1155 1156
f 1107 1156 1157
f 1107 1157 1108
f 1108 1157 1158
f 1108 1158 1109
f 1109 1158 1159
f 1109 1159 1160
f 1109 1160 1113
f 1109 1113 1110
f 1111 1161 1112
f 1111 1113 1160
f 1111 1160 1162
f 1111 1162 1161
f 1112 1161 1115
f 1114 1115 1163
f 1114 1163 1164
f 1114 1164 1118
f 1114 1118 1117
f 1115 1161 1165
f 1115 1165 1163
f 1118 1164 1166
f 1118 1166 1119
f 1119 1166 1167
f 1119 1167 1120
f 1120 1167 1121
f 1121 1167 1168
f 1121 1168 1169
f 1121 1169 1122
f 1122 1169 1123
f 1123 1169 1170
f 1123 1170 1124
f 1124 1170 1148
f 1125 1171 1126
f 1126 1172 1173
f 1126 1173 1174
f 1126 1174 1127
f 1126 1171 1172
f 1127 1174 1175
f 1127 1175 1128
f 1128 1175 1176
f 1128 1176 1129
f 1130 1176 1177
f 1130 1177 1178
f 1130 1178 1131
f 1131 1178 1179
f 1131 1179 1132
f 1132 1179 1180
f 1132 1180 1133
f 1133 1180 1181
f 1133 1181 1134
f 1134 1181 1182
f 1134 1182 1135
f 1135 1182 1183
f 1135 1183 1136
f 1136 1183 1184
f 1136 1184 1185
f 1136 1185 1137
f 1137 1185 1186
f 1137 1186 1138
f 1138 1186 1140
f 1139 1140 1187
f 1139 1187 1142
f 1140 1186 1188
f 1140 1188 1187
f 1141 1142 1189
f 1141 1189 1143
f 1142 1187 1190
f 1142 1190 1189
f 1143 1189 1191
f 1143 1191 1144
f 1144 1191 1192
f 1144 1192 1146
f 1144 1146 1145
f 1146 1193 1147
f 1146 1192 1194
f 1146 1194 1193
f 1148 1170 1149
f 1149 1195 1240
f 1149 1240 1196
f 1149 1196 1197
f 1149 1197 1150
f 1149 1170 1195
f 1150 1197 1198
f 1150 1198 1151
f 1151 1198 1152
f 1152 1198 1199
f 1153 1200 1154
f 1154 1200 1201
f 1154 1201 1155
f 1155 1201 1156
f 1156 1201 1202
f 1156 1202 1157
f 1157 1203 1158
f 1157 1202 1203
f 1158 1203 1204
f 1158 1204 1159
f 1159 1204 1205
f 1159 1205 1160
f 1160 1205 1206
f 1160 1206 1162
f 1161 1162 1207
f 1161 1207 1165
f 1162 1206 1208
f 1162 1208 1207
f 1163 1165 1209
f 1163 1209 1164
f 1164 1209 1210
f 1164 1210 1166
f 1165 1207 1211
f 1165 1211 1209
f 1166 1212 1167
f 1166 1210 1213
f 1166 1213 1261
f 1166 1261 1212
f 1167 1212 1168
f 1168 1214 1169
f 1168 1212 1215
f 1168 1215 1214
f 1169 1214 1170
f 1170 1214 1195
f 1172 1216 1173
f 1173 1216 1217
f 1173 1217 1174
f 1174 1217 1218
f 1174 1218 1175
f 1175 1218 1219
f 1175 1219 1176
f 1176 1219 1177
f 1177 1219 1220
f 1177 1220 1221
f 1177 1221 1178
f 1178 1221 1222
f 1178 1222 1179
f 1179 1222 1223
f 1179 1223 1180
f 1180 1223 1224
f 1180 1224 1181
f 1181 1224 1225
f 1181 1225 1226
f 1181 1226 1182
f 1182 1226 1183
f 1183 1226 1227
f 1183 1227 1184
f 1184 1227 1228
f 1184 1228 1229
f 1184 1229 1185
f 1185 1230 1186
f 1185 1229 1231
f 1185 1231 1232
f 1185 1232 1230
f 1186 1230 1188
f 1187 1188 1233
f 1187 1233 1190
f 1188 1230 1234
f 1188 1234 1233
f 1189 1190 1235
f 1189 1235 1191
f 1190 1233 1236
f 1190 1236 1235
f 1191 1235 1237
f 1191 1237 1192
f 1192 1237 1238
f 1192 1238 1194
f 1194 1238 1239
f 1195 1214 1240
f 1196 1240 1241
f 1196 1241 1242
f 1196 1242 1243
f 1196 1243 1197
f 1197 1243 1198
f 1198 1243 1244
f 1198 1244 1199
f 1199 1244 1245
f 1200 1246 1201
f 1201 1247 1248
f 1201 1248 1249
f 1201 1249 1202
f 1201 1246 1247
f 1202 1250 1251
f 1202 1251 1252
f 1202 1252 1203
f 1202 1249 1250
f 1203 1252 1204
f 1204 1252 1253
f 1204 1253 1205
f 1205 1253 1254
f 1205 1254 1206
f 1206 1254 1255
f 1206 1255 1208
f 1207 1208 1256
f 1207 1256 1257
f 1207 1257 1211
f 1208 1255 1258
f 1208 1258 1256
f 1209 1211 1259
f 1209 1259 1210
f 1210 1259 1260
f 1210 1260 1213
f 1211 1257 1259
f 1212 1261 1262
f 1212 1262 1215
f 1213 1260 1263
f 1213 1263 1261
f 1214 1215 1240
f 1215 1262 1241
f 1215 1241 1240
f 1216 1264 1217
f 1217 1264 1265
f 1217 1265 1266
f 1217 1266 1267
f 1217 1267 1218
f 1218 1267 1219
f 1219 1267 1220
f 1220 1267 1268
f 1220 1268 1269
f 1220 1269 1221
f 1221 1269 1222
f 1222 1269 1270
f 1222 1270 1271
f 1222 1271 1272
f 1222 1272 1223
f 1223 1272 1273
f 1223 1273 1224
f 1224 1273 1274
f 1224 1274 1225
f 1225 1274 1275
f 1225 1275 1226
f 1226 1275 1276
f 1226 1276 1277
f 1226 1277 1227
f 1227 1278 1228
f 1227 1277 1278
f 1228 1278 1279
f 1228 1279 1229
f 1229 1279 1280
f 1229 1280 1231
f 1230 1232 1234
f 1231 1280 1232
f 1232 1281 1234
f 1232 1280 1282
f 1232 1282 1281
f 1233 1234 1283
f 1233 1283 1236
f 1234 1281 1283
f 1235 1236 1284
f 1235 1284 1237
f 1236 1283 1285
f 1236 1285 1284
f 1237 1284 1286
f 1237 1286 1238
f 1238 1286 1287
f 1238 1287 1239
f 1239 1287 1288
f 1241 1262 1289
f 1241 1289 1290
f 1241 1290 1291
f 1241 1291 1242
f 1242 1291 1243
f 1243 1291 1292
f 1243 1292 1293
f 1243 1293 1244
f 1244 1293 1294
f 1244 1294 1245
f 1247 1295 1248
f 1248 1295 1296
f 1248 1296 1249
f 1249 1296 1250
f 1250 1296 1297
f 1250 1297 1298
f 1250 1298 1251
f 1251 1298 1299
f 1251 1299 1252
f 1252 1299 1300
f 1252 1300 1253
f 1253 1300 1301
f 1253 1301 1302
f 1253 1302 1254
f 1254 1302 1255
f 1255 1302 1303
f 1255 1303 1258
f 1256 1258 1304
f 1256 1304 1257
f 1257 1305 1259
f 1257 1304 1306
f 1257 1306 1307
f 1257 1307 1305
f 1258 1303 1308
f 1258 1308 1304
f 1259 1305 1260
f 1260 1305 1307
f 1260 1307 1309
f 1260 1309 1263
f 1261 1263 1310
f 1261 1310 1262
f 1262 1310 1289
f 1263 1309 1349
f 1263 1349 1310
f 1265 1311 1266
f 1266 1311 1312
f 1266 1312 1313
f 1266 1313 1267
f 1267 1314 1268
f 1267 1313 1314
f 1268 1314 1352
f 1268 1352 1315
f 1268 1315 1270
f 1268 1270 1269
f 1270 1315 1316
f 1270 1316 1271
f 1271 1316 1317
f 1271 1317 1272
f 1272 1317 1318
f 1272 1318 1273
f 1273 1318 1319
f 1273 1319 1274
f 1274 1319 1275
f 1275 1319 1320
f 1275 1320 1321
f 1275 1321 1276
f 1276 1321 1322
f 1276 1322 1277
f 1277 1322 1308
f 1277 1308 1323
f 1277 1323 1279
f 1277 1279 1278
f 1279 1323 1280
f 1280 1323 1324
f 1280 1324 1282
f 1281 1325 1283
f 1281 1282 1326
f 1281 1326 1327
f 1281 1327 1325
f 1282 1324 1328
f 1282 1328 1326
f 1283 1325 1285
f 1284 1285 1329
f 1284 1329 1286
f 1285 1325 1330
f 1285 1330 1329
f 1286 1329 1331
f 1286 1331 1287
f 1287 1331 1332
f 1287 1332 1333
f 1287 1333 1288
f 1289 1334 1335
f 1289 1335 1290
f 1289 1310 1349
f 1289 1349 1334
f 1290 1335 1336
f 1290 1336 1291
f 1291 1336 1337
f 1291 1337 1292
f 1292 1337 1338
f 1292 1338 1293
f 1293 1338 1339
f 1293 1339 1340
f 1293 1340 1294
f 1295 1341 1296
f 1296 1341 1342
f 1296 1342 1297
f 1297 1342 1343
f 1297 1343 1344
f 1297 1344 1298
f 1298 1344 1345
f 1298 1345 1299
f 1299 1345 1346
f 1299 1346 1300
f 1300 1346 1347
f 1300 1347 1301
f 1301 1347 1328
f 1301 1328 1302
f 1302 1328 1324
f 1302 1324 1323
f 1302 1323 1303
f 1303 1323 1308
f 1304 1308 1322
f 1304 1322 1306
f 1306 1322 1321
f 1306 1321 1307
f 1307 1321 1320
f 1307 1320 1348
f 1307 1348 1309
f 1309 1348 1349
f 1312 1350 1313
f 1313 1350 1368
f 1313 1368 1351
f 1313 1351 1314
f 1314 1351 1352
f 1315 1352 1353
f 1315 1353 1354
f 1315 1354 1316
f 1316 1354 1355
f 1316 1355 1317
f 1317 1355 1356
f 1317 1356 1357
f 1317 1357 1318
f 1318 1357 1319
f 1319 1357 1348
f 1319 1348 1320
f 1325 1327 1358
f 1325 1358 1330
f 1326 1328 1347
f 1326 1347 1327
f 1327 1359 1358
f 1327 1347 1346
f 1327 1346 1359
f 1329 1330 1358
f 1329 1358 1360
f 1329 1360 1331
f 1331 1360 1361
f 1331 1361 1332
f 1332 1361 1362
f 1334 1349 1357
f 1334 1357 1356
f 1334 1356 1335
f 1335 1356 1355
f 1335 1355 1336
f 1336 1355 1354
f 1336 1354 1337
f 1337 1354 1353
f 1337 1353 1338
f 1338 1353 1339
f 1339 1353 1363
f 1339 1363 1364
f 1339 1364 1340
f 1343 1365 1344
f 1344 1365 1366
f 1344 1366 1367
f 1344 1367 1345
f 1345 1367 1359
f 1345 1359 1346
f 1348 1357 1349
f 1351 1368 1369
f 1351 1369 1363
f 1351 1363 1353
f 1351 1353 1352
f 1358 1359 1360
f 1359 1367 1360
f 1360 1367 1361
f 1361 1367 1366
f 1361 1366 1362
f 1362 1366 1365
f 1363 1370 1364
f 1363 1369 1370
