v -0.52901834 -0.26439747 0.47756177
v -0.52901834 -0.10378321 0.47756177
v -0.52813959 -0.26494348 0.47756177
v -0.52901834 -0.25821891 0.48946393
v -0.52901834 -0.10378321 0.67368644
v -0.42289937 -0.10378321 0.47756177
v -0.50265658 -0.27911112 0.47756177
v -0.52483147 -0.26284564 0.48548412
v -0.51888716 -0.25933966 0.49883682
v -0.52901834 -0.25660959 0.49247664
v -0.52901834 -0.10950197 0.66918600
v -0.52379769 -0.10378321 0.67785221
v -0.00100785 -0.10378321 0.63489300
v -0.00095618 -0.20876154 0.47756177
v -0.50048566 -0.28026062 0.47756177
v -0.49955523 -0.27977207 0.47957027
v -0.51128876 -0.26744366 0.49128643
v -0.50555122 -0.26307556 0.50568056
v -0.49893492 -0.25942588 0.51899606
v -0.51128876 -0.25655213 0.51140845
v -0.52901834 -0.24666640 0.51003230
v -0.52901834 -0.12895732 0.65263456
v -0.52322912 -0.12297989 0.66256541
v -0.51459694 -0.11496212 0.67588091
v -0.51785338 -0.10378321 0.68238991
v -0.00095618 -0.10378321 0.64344764
v -0.00095618 -0.10381193 0.63489300
v -0.00095618 -0.39725125 0.47756177
v -0.49753931 -0.28172624 0.47756177
v -0.48621926 -0.28307691 0.48641402
v -0.47970635 -0.27985829 0.49976671
v -0.49175006 -0.27764550 0.49184436
v -0.49133652 -0.26755860 0.51140845
v -0.48559898 -0.26298934 0.52520746
v -0.47836244 -0.25910977 0.53856015
v -0.49133652 -0.25635096 0.53115857
v -0.50332856 -0.24203965 0.54313505
v -0.50999653 -0.24617785 0.53007990
v -0.52338421 -0.24218334 0.52345937
v -0.52901834 -0.24545942 0.51207793
v -0.52901834 -0.13027924 0.65148157
v -0.51578581 -0.13631412 0.65668875
v -0.50854921 -0.12875615 0.66888845
v -0.50131267 -0.12116943 0.68097651
v -0.52901834 -0.13091147 0.65092367
v -0.50875598 -0.10898471 0.68510509
v -0.50363868 -0.10378321 0.69302744
v -0.00095618 -0.10378321 0.85749990
v -0.00938159 -0.39733750 0.47756177
v -0.00095618 -0.31681481 0.63381433
v -0.48957908 -0.28554833 0.47756177
v -0.47133261 -0.29414088 0.47756177
v -0.47179782 -0.28733006 0.49184436
v -0.46637040 -0.28304815 0.50612688
v -0.45934060 -0.27968585 0.51944238
v -0.47179782 -0.27753055 0.51166880
v -0.47102249 -0.26721376 0.53115857
v -0.48957908 -0.24563184 0.54990441
v -0.46502650 -0.26264450 0.54443681
v -0.45732471 -0.25859249 0.55778956
v -0.47102249 -0.25554630 0.55068547
v -0.51666451 -0.23793018 0.53681207
v -0.49598861 -0.23764279 0.55648774
v -0.52901834 -0.23390692 0.53060061
v -0.52901834 -0.23491274 0.52903849
v -0.52410781 -0.14352727 0.64337325
v -0.50244987 -0.14206165 0.66189593
v -0.49335244 -0.13450366 0.67521143
v -0.48802841 -0.12872741 0.68402642
v -0.47856918 -0.11878422 0.69901568
v -0.49164668 -0.11128370 0.69574261
v -0.49660891 -0.10378321 0.69819742
v -0.52901834 -0.13321048 0.64880359
v -0.00095618 -0.10803637 0.85467315
v -0.00426432 -0.10378321 0.85746270
v -0.00839949 -0.10803637 0.85463595
v -0.01000187 -0.39733750 0.47756177
v -0.00095618 -0.30810732 0.65003097
v -0.01000187 -0.31681481 0.63381433
v -0.46068454 -0.29908371 0.47756177
v -0.45866865 -0.29945731 0.47875202
v -0.45117363 -0.29707208 0.49102607
v -0.45158714 -0.28701395 0.51166880
v -0.44600466 -0.28270331 0.52520746
v -0.43814784 -0.27919734 0.53856015
v -0.45158714 -0.27692705 0.53112137
v -0.48265266 -0.24155112 0.56229001
v -0.45039827 -0.26629415 0.55068547
v -0.44398874 -0.26198351 0.56318271
v -0.45039827 -0.25425312 0.56991482
v -0.46135652 -0.24080393 0.58114743
v -0.46879983 -0.24459729 0.56939411
v -0.51997268 -0.21999793 0.56002116
v -0.52901834 -0.22321653 0.54663128
v -0.52901834 -0.22396372 0.54551548
v -0.52901834 -0.23344712 0.53130734
v -0.51165062 -0.23111938 0.55157810
v -0.49087134 -0.23060210 0.57080746
v -0.50663668 -0.22430857 0.56593508
v -0.51609588 -0.15686148 0.63686424
v -0.50281167 -0.16223541 0.64225739
v -0.50927287 -0.14944720 0.64947307
v -0.52901834 -0.14878625 0.63414907
v -0.49407610 -0.15539588 0.65557289
v -0.48074013 -0.16059738 0.66059411
v -0.48704630 -0.14772294 0.66788417
v -0.48001650 -0.14005002 0.68000948
v -0.47112584 -0.13062409 0.69425482
v -0.48606420 -0.10544997 0.70414847
v -0.46523324 -0.12435929 0.70351619
v -0.45505035 -0.11593920 0.71686888
v -0.47071236 -0.11068022 0.71050864
v -0.48673618 -0.10378321 0.70496672
v -0.01000187 -0.12490532 0.84340334
v -0.00095618 -0.11668637 0.84890807
v -0.01129413 -0.10378321 0.85735112
v -0.02018474 -0.10378321 0.85716510
v -0.03000580 -0.11001925 0.85281342
v -0.03000580 -0.31661364 0.63347960
v -0.05000971 -0.31629753 0.63288450
v -0.01072553 -0.39730874 0.47756177
v -0.00095618 -0.30126777 0.66211909
v -0.01000187 -0.30807859 0.65003097
v -0.45928890 -0.29968721 0.47756177
v -0.45747977 -0.30043438 0.47756177
v -0.44533271 -0.30215865 0.48503780
v -0.43809614 -0.29925615 0.49839050
v -0.43085957 -0.29643986 0.51044142
v -0.43085957 -0.28612310 0.53112137
v -0.42481187 -0.28204235 0.54376733
v -0.41612798 -0.27836394 0.55712003
v -0.43085957 -0.27572009 0.55027634
v -0.47469246 -0.23689562 0.57564270
v -0.42915380 -0.26477107 0.56991482
v -0.42191726 -0.26092023 0.58144498
v -0.43525320 -0.25767288 0.57653540
v -0.44998479 -0.24387886 0.58557355
v -0.46435452 -0.22267053 0.60346395
v -0.46952349 -0.22979745 0.58966494
v -0.43944007 -0.23974064 0.59963292
v -0.44998479 -0.23680942 0.59557879
v -0.49909002 -0.21945192 0.57928777
v -0.51196074 -0.21663564 0.57158858
v -0.52219534 -0.20160589 0.58200294
v -0.52901834 -0.20634758 0.56958008
v -0.52901834 -0.21683681 0.55563229
v -0.48575407 -0.22356139 0.58482969
v -0.52901834 -0.15062544 0.63232660
v -0.52901834 -0.15148756 0.63147110
v -0.52901834 -0.15421763 0.62875593
v -0.52415955 -0.16341366 0.62354875
v -0.50927287 -0.16947728 0.62942547
v -0.50239813 -0.18180570 0.62198663
v -0.49397272 -0.17556965 0.63533932
v -0.48063678 -0.18048377 0.64050931
v -0.48735642 -0.16806915 0.64805973
v -0.46998870 -0.17453510 0.65445709
v -0.45820343 -0.17878826 0.65877163
v -0.46998870 -0.16453442 0.66446233
v -0.45804834 -0.15858576 0.67867047
v -0.46998870 -0.15398774 0.67439318
v -0.46998870 -0.14398706 0.68354291
v -0.45701456 -0.13769352 0.69801140
v -0.48425505 -0.10378321 0.70664048
v -0.44936448 -0.12956080 0.70961601
v -0.46047777 -0.10378321 0.72252238
v -0.46404439 -0.10378321 0.72021633
v -0.44171441 -0.12139933 0.72107178
v -0.44900268 -0.10955945 0.72546071
v -0.01000187 -0.13490599 0.83633643
v -0.00095618 -0.12493405 0.84340334
v -0.03000580 -0.12456046 0.84314293
v -0.03000580 -0.10378321 0.85686755
v -0.05000971 -0.11001925 0.85192072
v -0.05000971 -0.12389950 0.84269661
v -0.03000580 -0.30767626 0.65003097
v -0.05000971 -0.30701530 0.65003097
v -0.07001364 -0.31580898 0.63199186
v -0.07001364 -0.32098174 0.62198663
v -0.05000971 -0.32141280 0.62287927
v -0.03000580 -0.39633167 0.47756177
v -0.00095618 -0.29508922 0.67208713
v -0.01000187 -0.30123904 0.66211909
v -0.03000580 -0.30103788 0.66178435
v -0.44853747 -0.30399784 0.47756177
v -0.43085957 -0.30514735 0.49102607
v -0.42476016 -0.30181378 0.50404400
v -0.41669661 -0.29873887 0.51735950
v -0.41002861 -0.29529035 0.52959639
v -0.40966678 -0.28471494 0.55027634
v -0.40279204 -0.28112274 0.56202966
v -0.40966678 -0.27390963 0.56920815
v -0.40997693 -0.26359284 0.58564794
v -0.39907038 -0.25959831 0.59940976
v -0.40997693 -0.25701192 0.59561598
v -0.43070450 -0.25040227 0.59055758
v -0.44936448 -0.22626272 0.61008447
v -0.44233468 -0.22137734 0.62172627
v -0.45567065 -0.21741155 0.61677945
v -0.47200459 -0.21134792 0.61160946
v -0.47769046 -0.21858980 0.59814519
v -0.42610413 -0.24310294 0.60431939
v -0.41648984 -0.23824629 0.61767209
v -0.43168661 -0.23560244 0.61060524
v -0.49143994 -0.21534245 0.59089231
v -0.50120926 -0.20088744 0.60108352
v -0.50870430 -0.20514061 0.58921862
v -0.51454520 -0.19611701 0.59531844
v -0.52901834 -0.18907630 0.59092951
v -0.52901834 -0.19062814 0.58906978
v -0.52901834 -0.20594525 0.57010078
v -0.52901834 -0.16875884 0.61372954
v -0.51573408 -0.17674789 0.61648190
v -0.52901834 -0.17117280 0.61116314
v -0.48999262 -0.19620323 0.61558920
v -0.47965467 -0.19979542 0.61975497
v -0.48839021 -0.18525422 0.62920231
v -0.52359092 -0.18278278 0.60316640
v -0.50849754 -0.18896136 0.60878271
v -0.47174615 -0.19519740 0.63091320
v -0.45742810 -0.19838728 0.63816607
v -0.46998870 -0.18416218 0.64445186
v -0.45112193 -0.19080056 0.65084928
v -0.44486749 -0.18321384 0.66334647
v -0.45143208 -0.17102912 0.67097127
v -0.44471240 -0.16329871 0.68309659
v -0.45086348 -0.15068293 0.69057262
v -0.44367862 -0.14275134 0.70236313
v -0.44342017 -0.10378321 0.73323429
v -0.43597686 -0.10378321 0.73777199
v -0.42998084 -0.13576812 0.71653414
v -0.42998084 -0.12576744 0.72456807
v -0.41705841 -0.11780713 0.73832989
v -0.43137646 -0.11068022 0.73527998
v -0.03000580 -0.13453239 0.83607602
v -0.03000580 -0.14815402 0.82607085
v -0.01000187 -0.14847013 0.82633120
v -0.00095618 -0.14234902 0.83086890
v -0.00095618 -0.13493472 0.83633643
v -0.03817277 -0.10378321 0.85649562
v -0.05000971 -0.10378321 0.85593772
v -0.05900373 -0.10378321 0.85534263
v -0.07001364 -0.11001925 0.85054457
v -0.07001364 -0.12292242 0.84198993
v -0.07001364 -0.13292310 0.83492303
v -0.05000971 -0.13390017 0.83559251
v -0.05000971 -0.30069304 0.66118926
v -0.06541325 -0.30031943 0.66055691
v -0.07125419 -0.30485997 0.65192789
v -0.09001756 -0.31517676 0.63080162
v -0.09001756 -0.32037827 0.62079638
v -0.04835564 -0.39475110 0.47756177
v -0.10040720 -0.32000467 0.62008971
v -0.00095618 -0.28508854 0.68752271
v -0.01000187 -0.29506046 0.67208713
v -0.03000580 -0.29485929 0.67175239
v -0.42961901 -0.31106728 0.47756177
v -0.41261309 -0.31713092 0.47756177
v -0.40827116 -0.31431463 0.48827368
v -0.41002861 -0.30434269 0.51044142
v -0.40336064 -0.30123904 0.52267826
v -0.39457339 -0.29802042 0.53599375
v -0.38873243 -0.29370981 0.54856539
v -0.38997298 -0.28362292 0.56645578
v -0.37984180 -0.27991578 0.57992005
v -0.38997298 -0.27784666 0.57646102
v -0.39142030 -0.26778850 0.59167337
v -0.38573444 -0.26247206 0.60372430
v -0.37518975 -0.25793153 0.61707699
v -0.39142030 -0.25546008 0.61027044
v -0.40315390 -0.24155112 0.62209821
v -0.40987355 -0.24655145 0.61060524
v -0.42998084 -0.22471090 0.62592918
v -0.41922939 -0.21962434 0.63954222
v -0.42998084 -0.21660690 0.63593441
v -0.44409215 -0.20252550 0.64288974
v -0.44988137 -0.20996852 0.62994617
v -0.46631873 -0.20407732 0.62485057
v -0.48999262 -0.20459460 0.60562122
v -0.41121748 -0.23068830 0.63080162
v -0.52901834 -0.17324191 0.60889429
v -0.43416771 -0.19654807 0.65624243
v -0.42775819 -0.18870272 0.66859084
v -0.42129695 -0.18082863 0.68082774
v -0.43463293 -0.17663294 0.67662477
v -0.42775819 -0.16861516 0.68863851
v -0.42088348 -0.16062611 0.70054060
v -0.43421942 -0.15608558 0.69644928
v -0.42853355 -0.14964837 0.70552462
v -0.41943616 -0.13961895 0.71965843
v -0.42563891 -0.10447291 0.74323952
v -0.42481187 -0.10378321 0.74420655
v -0.41157931 -0.13117011 0.73089105
v -0.40372247 -0.12269253 0.74204928
v -0.40873638 -0.10909966 0.74930215
v -0.05000971 -0.14755052 0.82558733
v -0.05000971 -0.15755120 0.81811130
v -0.03000580 -0.15815468 0.81855762
v -0.01000187 -0.15847079 0.81878078
v -0.00095618 -0.15849954 0.81881797
v -0.00095618 -0.14849886 0.82633120
v -0.07001364 -0.10378321 0.85456157
v -0.09001756 -0.11001925 0.84872210
v -0.09001756 -0.12160049 0.84109724
v -0.09001756 -0.13160117 0.83399320
v -0.09001756 -0.14542395 0.82398796
v -0.07001364 -0.14665966 0.82491779
v -0.05000971 -0.29445699 0.67115724
v -0.07125419 -0.29506046 0.66829330
v -0.07874919 -0.29991710 0.65988743
v -0.09001756 -0.30517608 0.64910114
v -0.11002149 -0.30431396 0.64750177
v -0.10826403 -0.31509054 0.62804925
v -0.05000971 -0.39460742 0.47756177
v -0.11374314 -0.31942993 0.61886233
v -0.00095618 -0.27824900 0.69752789
v -0.01000187 -0.27824900 0.69749069
v -0.01000187 -0.28505978 0.68752271
v -0.03000580 -0.28485864 0.68718791
v -0.40237853 -0.32057941 0.47756177
v -0.40046602 -0.32014835 0.48042575
v -0.38997298 -0.31784937 0.49467111
v -0.38997298 -0.31144089 0.51003230
v -0.38873243 -0.30313572 0.52959639
v -0.38123745 -0.30043438 0.54094058
v -0.36996907 -0.29727325 0.55473959
v -0.37188160 -0.28724384 0.57196051
v -0.36650586 -0.28235847 0.58408582
v -0.35575441 -0.27842140 0.59743845
v -0.37188160 -0.27652472 0.59048319
v -0.36909035 -0.26502970 0.61027044
v -0.36185378 -0.26077655 0.62113118
v -0.37058938 -0.25031608 0.63039249
v -0.38997298 -0.24465477 0.62626392
v -0.37927324 -0.23971191 0.63961661
v -0.38997298 -0.23709679 0.63626915
v -0.40589345 -0.22310159 0.64378238
v -0.39524537 -0.21752650 0.65713507
v -0.41152763 -0.21459527 0.65029132
v -0.42083177 -0.20051387 0.66055691
v -0.42848185 -0.20557168 0.64973342
v -0.40997693 -0.19416286 0.67383522
v -0.40997693 -0.18416218 0.68421239
v -0.39674437 -0.17812729 0.69812304
v -0.40997693 -0.17404656 0.69421762
v -0.40997693 -0.16404589 0.70370215
v -0.39586562 -0.15743625 0.71772432
v -0.41163099 -0.15048176 0.71478599
v -0.40610021 -0.14410201 0.72345221
v -0.39405650 -0.13602675 0.73680490
v -0.40372247 -0.10378321 0.75595987
v -0.38842231 -0.12961829 0.74483883
v -0.37792930 -0.11858305 0.75893545
v -0.38997298 -0.11421494 0.75577390
v -0.07001364 -0.15666033 0.81740463
v -0.07001364 -0.16921866 0.80743659
v -0.05672938 -0.17979407 0.79981178
v -0.05006140 -0.17189124 0.80658114
v -0.04339343 -0.18022513 0.80018371
v -0.03000580 -0.17002329 0.80899870
v -0.01000187 -0.17002329 0.80948222
v -0.00095618 -0.16482180 0.81372237
v -0.09001756 -0.10378321 0.85270184
v -0.09983860 -0.10378321 0.85158598
v -0.10991810 -0.11159982 0.84541178
v -0.10314675 -0.12059468 0.84039056
v -0.11002149 -0.14390084 0.82283497
v -0.09001756 -0.15542462 0.81651193
v -0.05000971 -0.28445631 0.68659282
v -0.07001364 -0.28388155 0.68573737
v -0.09001756 -0.29256031 0.66996706
v -0.09001756 -0.29945731 0.65910637
v -0.11002149 -0.29850897 0.65750700
v -0.13002540 -0.30322194 0.64560491
v -0.13002540 -0.31184322 0.63002056
v -0.06624028 -0.39253831 0.47756177
v -0.13002540 -0.31859654 0.61718857
v -0.13002540 -0.32339570 0.60718334
v -0.15002933 -0.32227495 0.60480291
v -0.00095618 -0.27405331 0.70314419
v -0.01000187 -0.26890928 0.70998794
v -0.03000580 -0.27801910 0.69719315
v -0.38997298 -0.32443026 0.47756177
v -0.38997298 -0.32178640 0.48466587
v -0.37885970 -0.31965983 0.49917158
v -0.37131301 -0.31727460 0.51044142
v -0.36996907 -0.30914187 0.53000551
v -0.36996907 -0.30230233 0.54473442
v -0.35797706 -0.29934236 0.55871940
v -0.35079220 -0.29583639 0.56980324
v -0.34944826 -0.28474367 0.59048319
v -0.34241846 -0.28086412 0.60145545
v -0.34944826 -0.27356476 0.60889429
v -0.34996516 -0.26310429 0.62455302
v -0.33668089 -0.25873616 0.63827765
v -0.34996516 -0.25603485 0.63455826
v -0.36593729 -0.24267188 0.64348483
v -0.38190940 -0.22097501 0.66115206
v -0.38914597 -0.22626272 0.65029132
v -0.35420370 -0.23747037 0.65680033
v -0.37157145 -0.23488399 0.65010536
v -0.38919765 -0.20962366 0.66952074
v -0.40997693 -0.20353131 0.66386724
v -0.39648592 -0.19807117 0.67792660
v -0.38997298 -0.19002464 0.68997747
v -0.38340840 -0.18197814 0.70191681
v -0.38966286 -0.16985089 0.70980197
v -0.38252968 -0.16157445 0.72136933
v -0.38831893 -0.14898740 0.72906852
v -0.38072056 -0.14050981 0.74037552
v -0.39116186 -0.10378321 0.76269203
v -0.37074444 -0.12984818 0.75387704
v -0.36459336 -0.12306611 0.76232010
v -0.36934879 -0.10958819 0.76968455
v -0.38919765 -0.10378321 0.76369625
v -0.09001756 -0.16806915 0.80650675
v -0.09001756 -0.17806983 0.79836118
v -0.07001364 -0.17919058 0.79929107
v -0.05006140 -0.18815671 0.79285645
v -0.07001364 -0.19002464 0.78984374
v -0.07001364 -0.20062882 0.78054523
v -0.05000971 -0.20137599 0.78121471
v -0.03000580 -0.19054192 0.79166627
v -0.03000580 -0.18054125 0.80044407
v -0.01000187 -0.18082863 0.80066723
v -0.00095618 -0.17002329 0.80951941
v -0.10996979 -0.10378321 0.85039580
v -0.11648269 -0.11933023 0.83953512
v -0.13002540 -0.10786393 0.84511423
v -0.10991810 -0.12835383 0.83399320
v -0.11002149 -0.15390152 0.81535894
v -0.13002540 -0.14200416 0.82145876
v -0.11002149 -0.16663226 0.80535370
v -0.05000971 -0.27761677 0.69659805
v -0.07001364 -0.27701327 0.69574261
v -0.09001756 -0.28310564 0.68458432
v -0.11002149 -0.29060614 0.66996706
v -0.13002540 -0.29733074 0.65561008
v -0.15002933 -0.30195749 0.64337325
v -0.15002933 -0.30937177 0.63002056
v -0.07001364 -0.39204976 0.47756177
v -0.17003325 -0.32098174 0.60208774
v -0.15002933 -0.31738955 0.61477095
v -0.00095618 -0.26893800 0.70998794
v -0.01000187 -0.26063287 0.72077423
v -0.03000580 -0.26040295 0.72051388
v -0.03000580 -0.26844949 0.70998794
v -0.00095618 -0.26066160 0.72081143
v -0.05011310 -0.26620793 0.71184766
v -0.38340840 -0.32638443 0.47756177
v -0.37131301 -0.32480386 0.49150959
v -0.36552376 -0.32161397 0.50408119
v -0.35632300 -0.31891266 0.51739669
v -0.34975839 -0.31572276 0.52926165
v -0.35079220 -0.30526230 0.55124336
v -0.34464112 -0.30149770 0.56295955
v -0.33368289 -0.29799169 0.57631224
v -0.32820380 -0.29316378 0.58813995
v -0.32996124 -0.28293321 0.60495168
v -0.32996124 -0.27681211 0.61495692
v -0.32996124 -0.26617920 0.63098758
v -0.32334495 -0.26120761 0.64169949
v -0.32996124 -0.25324729 0.64902675
v -0.34086776 -0.24040161 0.66051972
v -0.34851784 -0.24508584 0.65010536
v -0.36996907 -0.22382003 0.66449952
v -0.35658145 -0.21841738 0.67818695
v -0.36996907 -0.21508381 0.67446756
v -0.38314995 -0.20172083 0.68179476
v -0.34872460 -0.22948134 0.66933477
v -0.36996907 -0.19562848 0.69544506
v -0.36996907 -0.18562780 0.70552462
v -0.35756356 -0.17873079 0.71876574
v -0.36996907 -0.17522481 0.71552986
v -0.36996907 -0.16522413 0.72467965
v -0.35632300 -0.15792479 0.73818111
v -0.36996907 -0.15381531 0.73468482
v -0.36996907 -0.14381464 0.74312794
v -0.35404864 -0.13640034 0.75711292
v -0.36381799 -0.10378321 0.77656543
v -0.34841448 -0.12984818 0.76484931
v -0.33714610 -0.11832441 0.77875990
v -0.34996516 -0.11415747 0.77582157
v -0.08097185 -0.20014027 0.78009892
v -0.11002149 -0.17663294 0.79713380
v -0.11002149 -0.18818545 0.78712857
v -0.09430781 -0.19930688 0.77935499
v -0.07001364 -0.21062949 0.77109790
v -0.05000971 -0.21137667 0.77180457
v -0.03000580 -0.20186453 0.78166103
v -0.01000187 -0.19082931 0.79192662
v -0.00095618 -0.18631750 0.79590642
v -0.00095618 -0.18082863 0.80066723
v -0.00095618 -0.17594324 0.80468422
v -0.12402940 -0.10378321 0.84849888
v -0.13002540 -0.11786461 0.83853090
v -0.13002540 -0.13002060 0.83001339
v -0.13002540 -0.10378321 0.84768063
v -0.15002933 -0.10539250 0.84347773
v -0.13002540 -0.15200484 0.81390834
v -0.13002540 -0.16487928 0.80390310
v -0.14263770 -0.14065351 0.82045454
v -0.07001364 -0.26701260 0.70920688
v -0.09001756 -0.26617920 0.70812821
v -0.09001756 -0.27617988 0.69455236
v -0.11002149 -0.28209981 0.68309659
v -0.13002540 -0.28822091 0.66996706
v -0.15002933 -0.29595134 0.65337849
v -0.16553624 -0.30083671 0.64143914
v -0.17132549 -0.30531979 0.63184309
v -0.17003325 -0.31603891 0.61209297
v -0.18140498 -0.32020584 0.60045123
v -0.18884830 -0.32342446 0.59096670
v -0.19003716 -0.33253425 0.57002640
v -0.21004109 -0.32943061 0.57002640
v -0.11090021 -0.38523895 0.47756177
v -0.01000187 -0.25209779 0.73077947
v -0.03000580 -0.25183916 0.73051912
v -0.04354849 -0.26017305 0.72021633
v -0.00095618 -0.25209779 0.73081666
v -0.05683276 -0.25982821 0.71977001
v -0.37043428 -0.33023524 0.47756177
v -0.36247408 -0.33250552 0.47756177
v -0.34996516 -0.33141351 0.49002182
v -0.34975839 -0.32356814 0.51044142
v -0.34298706 -0.32086679 0.52204597
v -0.32996124 -0.31836665 0.53629136
v -0.32996124 -0.31213057 0.55001599
v -0.32820380 -0.30304950 0.56980324
v -0.32034695 -0.30008954 0.58021760
v -0.30995733 -0.29609501 0.59297520
v -0.31016406 -0.28554833 0.61108875
v -0.31698713 -0.27902490 0.61849034
v -0.31016406 -0.27422574 0.62909067
v -0.30995733 -0.26350662 0.64497256
v -0.30995733 -0.25623602 0.65497780
v -0.32996124 -0.24252819 0.66319770
v -0.34324551 -0.22152102 0.68172038
v -0.31367898 -0.23761407 0.67707115
v -0.32996124 -0.23433799 0.67316574
v -0.35048205 -0.21028464 0.69023788
v -0.35771862 -0.19887581 0.69879252
v -0.36996907 -0.20508313 0.68543983
v -0.35099894 -0.19054192 0.71050864
v -0.34427929 -0.18223676 0.72211325
v -0.35027531 -0.17019573 0.73014718
v -0.34298706 -0.16168940 0.74141699
v -0.34851784 -0.14918856 0.74926496
v -0.34071270 -0.14042360 0.76031160
v -0.35110232 -0.10378321 0.78262806
v -0.33027136 -0.12933090 0.77340394
v -0.32381016 -0.12220399 0.78158665
v -0.33027136 -0.11099634 0.78683102
v -0.34996516 -0.10378321 0.78314883
v -0.34996516 -0.10415679 0.78288841
v -0.08443508 -0.22051521 0.76046038
v -0.07001364 -0.22114743 0.76112986
v -0.09777102 -0.21976803 0.75971651
v -0.13002540 -0.17487994 0.79564601
v -0.13002540 -0.18648992 0.78567803
v -0.11002149 -0.19818611 0.77835077
v -0.11002149 -0.20890523 0.76834553
v -0.05000971 -0.22183713 0.76179940
v -0.03000580 -0.21186520 0.77225089
v -0.01000187 -0.20215189 0.78192139
v -0.00095618 -0.20215189 0.78195858
v -0.15002933 -0.11539318 0.83685714
v -0.14961579 -0.13140000 0.82577330
v -0.14765160 -0.10378321 0.84485388
v -0.14992595 -0.10378321 0.84448195
v -0.16114262 -0.10378321 0.84243625
v -0.17003325 -0.10378321 0.84076250
v -0.14961579 -0.14838392 0.81331325
v -0.15002933 -0.16272396 0.80219221
v -0.15597364 -0.13901547 0.81926429
v -0.07001364 -0.25936842 0.71921206
v -0.09001756 -0.25847754 0.71813345
v -0.11002149 -0.26511592 0.70671487
v -0.11002149 -0.27511659 0.69306463
v -0.13002540 -0.28086412 0.68127406
v -0.14088024 -0.28011692 0.68019545
v -0.14853032 -0.28482988 0.67115724
v -0.17003325 -0.28437009 0.66661960
v -0.17132549 -0.29537657 0.64887798
v -0.17887220 -0.29980215 0.63969100
v -0.19003716 -0.30445766 0.62797487
v -0.18884830 -0.31506181 0.60829920
v -0.19474092 -0.31914255 0.59825677
v -0.21004109 -0.32253358 0.58553636
v -0.22627166 -0.32115418 0.58248645
v -0.23175077 -0.32486132 0.57192332
v -0.22849432 -0.33555171 0.54819345
v -0.23407681 -0.33897147 0.53744435
v -0.25004894 -0.33750585 0.53379929
v -0.25004894 -0.34147164 0.52379411
v -0.26183417 -0.34035087 0.52093017
v -0.25004894 -0.34667313 0.51003230
v -0.25004894 -0.35402995 0.49002182
v -0.23717819 -0.36101317 0.47756177
v -0.01000187 -0.24212587 0.74227244
v -0.00095618 -0.24761474 0.73598665
v -0.03000580 -0.24186723 0.74201208
v -0.05000971 -0.24143615 0.74152857
v -0.05011310 -0.25301740 0.72810149
v -0.07001364 -0.25014365 0.72999841
v -0.35110232 -0.33569539 0.47756177
v -0.33761132 -0.33940253 0.47756177
v -0.33037475 -0.33681616 0.48964989
v -0.32996124 -0.32914323 0.51003230
v -0.32996124 -0.32261980 0.52628613
v -0.31936485 -0.31983227 0.53967601
v -0.31161138 -0.31713092 0.55009037
v -0.30995733 -0.30807859 0.57002640
v -0.30995733 -0.30155516 0.58296996
v -0.29414025 -0.29839402 0.59706652
v -0.28845438 -0.29353738 0.60826200
v -0.30365115 -0.28112274 0.62180066
v -0.28995338 -0.27672589 0.63500458
v -0.28959158 -0.26589182 0.65096086
v -0.29605278 -0.25867870 0.65825093
v -0.30819988 -0.24508584 0.67022741
v -0.34438267 -0.20215189 0.70221436
v -0.32996124 -0.22433731 0.68499351
v -0.32996124 -0.21545739 0.69496149
v -0.30034304 -0.24014297 0.68015826
v -0.30825156 -0.22939512 0.68919641
v -0.32996124 -0.19565721 0.71564144
v -0.32996124 -0.18565655 0.72542351
v -0.32996124 -0.17499490 0.73539156
v -0.32996124 -0.16499422 0.74435532
v -0.32996124 -0.15329804 0.75436056
v -0.32996124 -0.14329736 0.76265484
v -0.30995733 -0.13596928 0.77686298
v -0.30995733 -0.12596861 0.78441340
v -0.31140462 -0.10999052 0.79531127
v -0.31590164 -0.10378321 0.79784048
v -0.33011630 -0.10378321 0.79185224
v -0.32329327 -0.10378321 0.79479057
v -0.09001756 -0.23002735 0.74997163
v -0.08226410 -0.24025792 0.74022675
v -0.07001364 -0.23114811 0.75078988
v -0.05000971 -0.23183781 0.75153381
v -0.09560005 -0.23953947 0.73944569
v -0.11002149 -0.21890591 0.75889826
v -0.11002149 -0.22859047 0.74889302
v -0.15002933 -0.17272463 0.79386073
v -0.15002933 -0.18447830 0.78385550
v -0.13002540 -0.19649060 0.77682579
v -0.13002540 -0.20729592 0.76682055
v -0.03000580 -0.23232636 0.75201732
v -0.03000580 -0.22232568 0.76224571
v -0.01000187 -0.21215257 0.77251130
v -0.00095618 -0.20764078 0.77678859
v -0.17003325 -0.11251943 0.83496022
v -0.17003325 -0.12708938 0.82495499
v -0.18491989 -0.10378321 0.83771259
v -0.16408893 -0.16105717 0.80081600
v -0.17003325 -0.13709004 0.81785095
v -0.17044675 -0.15160252 0.80680430
v -0.08939728 -0.24695377 0.73167211
v -0.11002149 -0.24735610 0.72843623
v -0.11002149 -0.25732803 0.71668291
v -0.13002540 -0.26379400 0.70496672
v -0.13002540 -0.27379465 0.69127929
v -0.14853032 -0.27319118 0.68811780
v -0.15421620 -0.27902490 0.67859608
v -0.17003325 -0.27767423 0.67658758
v -0.19003716 -0.28255963 0.66386724
v -0.19003716 -0.29138204 0.65003097
v -0.19003716 -0.29879636 0.63798010
v -0.21004109 -0.30267593 0.62473899
v -0.21004109 -0.31055000 0.61001009
v -0.21004109 -0.31784937 0.59554160
v -0.23175077 -0.31672859 0.58951616
v -0.23960760 -0.31991845 0.57984567
v -0.25004894 -0.32336697 0.56753439
v -0.25004894 -0.33089620 0.55001599
v -0.26907074 -0.33581033 0.52859211
v -0.27511844 -0.33900023 0.51739669
v -0.26907074 -0.34282231 0.51044142
v -0.25004894 -0.35854176 0.47756177
v -0.26994947 -0.35015038 0.49002182
v -0.01000187 -0.23255625 0.75227767
v -0.00095618 -0.24212587 0.74227244
v -0.00095618 -0.23781523 0.74681014
v -0.07001364 -0.24077520 0.74078470
v -0.32675648 -0.34210387 0.47756177
v -0.32391354 -0.34098309 0.48276895
v -0.31378236 -0.33854041 0.49608445
v -0.30825156 -0.33523560 0.50817257
v -0.31161138 -0.32500499 0.53182805
v -0.30608058 -0.32149902 0.54346979
v -0.29398519 -0.31853905 0.55678529
v -0.28835100 -0.31451580 0.56824112
v -0.28845438 -0.30350929 0.59026003
v -0.28080431 -0.30020449 0.60041404
v -0.28995338 -0.28313437 0.62503654
v -0.26994947 -0.29589385 0.61287403
v -0.27584210 -0.27882373 0.63820326
v -0.26948425 -0.27353603 0.64865482
v -0.28271684 -0.26086277 0.66118926
v -0.28959158 -0.25273001 0.66870242
v -0.32996124 -0.20545672 0.70563620
v -0.31621176 -0.21844611 0.69823462
v -0.28995338 -0.24192470 0.68235272
v -0.26994947 -0.23709679 0.69648647
v -0.28995338 -0.23353332 0.69232070
v -0.30287582 -0.22114743 0.70124733
v -0.31693542 -0.19867465 0.71861696
v -0.31636685 -0.17832845 0.73844147
v -0.30882013 -0.16947728 0.74948812
v -0.31455770 -0.15729256 0.75770801
v -0.30871677 -0.15039554 0.76581633
v -0.29806867 -0.13910168 0.77928060
v -0.29351997 -0.11665763 0.79761732
v -0.30613229 -0.10378321 0.80174589
v -0.11002149 -0.23859113 0.73844147
v -0.13002540 -0.21729660 0.75729889
v -0.13002540 -0.22706738 0.74729365
v -0.17044675 -0.16864389 0.79315400
v -0.17003325 -0.18215056 0.78184700
v -0.15002933 -0.19447897 0.77500331
v -0.15002933 -0.20537052 0.76499808
v -0.01000187 -0.22255558 0.76250607
v -0.00095618 -0.21787135 0.76704377
v -0.00095618 -0.21215257 0.77251130
v -0.18926182 -0.10840996 0.83369565
v -0.19003716 -0.12410067 0.82287216
v -0.19205306 -0.10378321 0.83611327
v -0.17742488 -0.15930419 0.79943985
v -0.19003716 -0.13410133 0.81569368
v -0.19003716 -0.14749303 0.80568844
v -0.13002540 -0.24591923 0.72676247
v -0.13002540 -0.25589114 0.71493477
v -0.15002933 -0.26221341 0.70288384
v -0.17086029 -0.26666775 0.69168842
v -0.19003716 -0.26574814 0.68778306
v -0.19003716 -0.27574882 0.67383522
v -0.20507887 -0.28106529 0.66163558
v -0.21102320 -0.28615183 0.65170473
v -0.21004109 -0.29687095 0.63474423
v -0.22549632 -0.30115283 0.62206101
v -0.23133725 -0.30549219 0.61175823
v -0.25004894 -0.31273407 0.59003687
v -0.25004894 -0.31882644 0.57753962
v -0.26994947 -0.32129788 0.56292236
v -0.26994947 -0.32684422 0.55001599
v -0.28995338 -0.33078128 0.53000551
v -0.28995338 -0.33741963 0.51326817
v -0.28995338 -0.34121299 0.50326294
v -0.27046636 -0.35448974 0.47756177
v -0.28995338 -0.34604090 0.49002182
v -0.00095618 -0.23258498 0.75227767
v -0.00095618 -0.22804445 0.75692695
v -0.30933705 -0.34621334 0.47756177
v -0.30825156 -0.34216136 0.48964989
v -0.30044642 -0.34009224 0.50028741
v -0.28835100 -0.32276347 0.55009037
v -0.28064924 -0.32014835 0.56035590
v -0.26994947 -0.31664237 0.57292753
v -0.26994947 -0.30819353 0.59003687
v -0.26994947 -0.30155516 0.60286885
v -0.26948425 -0.28511727 0.63095039
v -0.25004894 -0.29839402 0.61722577
v -0.25004894 -0.29072109 0.63002056
v -0.26255783 -0.28069168 0.64110440
v -0.26994947 -0.26281691 0.66386724
v -0.25004894 -0.27566260 0.65360165
v -0.26994947 -0.25523019 0.67383522
v -0.30990562 -0.20999727 0.70995075
v -0.26994947 -0.24525826 0.68648124
v -0.25749224 -0.23922336 0.69901568
v -0.26994947 -0.22709611 0.70790505
v -0.28995338 -0.22353265 0.70392531
v -0.28995338 -0.21427916 0.71393049
v -0.30359948 -0.20154841 0.72155529
v -0.30995733 -0.19002464 0.72999841
v -0.30303091 -0.18140337 0.74126822
v -0.30122176 -0.16062611 0.76049757
v -0.29083213 -0.14933226 0.77370149
v -0.28473273 -0.14223407 0.78173542
v -0.28018403 -0.12010615 0.80007213
v -0.28809255 -0.10999052 0.80416346
v -0.30447820 -0.10378321 0.80237818
v -0.13002540 -0.23706806 0.73676771
v -0.15002933 -0.21537119 0.75540197
v -0.15002933 -0.22525690 0.74543393
v -0.18223202 -0.18062747 0.78050804
v -0.17003325 -0.19215123 0.77292043
v -0.17003325 -0.20315772 0.76295239
v -0.00095618 -0.22258431 0.76250607
v -0.20171905 -0.10378321 0.83388162
v -0.20487212 -0.12168671 0.82116121
v -0.19003716 -0.15749371 0.79798925
v -0.18936521 -0.17125902 0.78668225
v -0.21091981 -0.12901479 0.81435466
v -0.21004109 -0.14433190 0.80330801
v -0.15002933 -0.24419497 0.72479123
v -0.15002933 -0.25416690 0.71285188
v -0.16470921 -0.26089150 0.70113575
v -0.17804515 -0.25959831 0.69946200
v -0.19003716 -0.25827637 0.69778824
v -0.21004109 -0.26353535 0.68473315
v -0.21102320 -0.27459931 0.66896284
v -0.21841481 -0.27962840 0.65947831
v -0.23004501 -0.28471494 0.64739019
v -0.23133725 -0.29560649 0.62923950
v -0.23883227 -0.29971594 0.61956900
v -0.25004894 -0.30388290 0.60722053
v -0.28245839 -0.35201833 0.47756177
v -0.28995338 -0.35046649 0.47756177
v -0.25004894 -0.28230098 0.64363360
v -0.25004894 -0.26566193 0.66780978
v -0.25004894 -0.25830510 0.67781502
v -0.23004501 -0.27824900 0.65739542
v -0.25051415 -0.24744232 0.69139087
v -0.24415630 -0.24129248 0.70150769
v -0.25201315 -0.23068830 0.71069461
v -0.25986999 -0.21996920 0.71991879
v -0.26994947 -0.21807252 0.71791029
v -0.28995338 -0.20427848 0.72430766
v -0.28995338 -0.19416286 0.73431289
v -0.28995338 -0.18416218 0.74387181
v -0.28995338 -0.17312697 0.75383985
v -0.28995338 -0.16312629 0.76265484
v -0.26994947 -0.15551083 0.77630508
v -0.26994947 -0.14551015 0.78433901
v -0.26994947 -0.13249204 0.79430705
v -0.26994947 -0.12249136 0.80178308
v -0.26405683 -0.10378321 0.81666070
v -0.28142458 -0.10378321 0.81063527
v -0.28922975 -0.10378321 0.80784571
v -0.15002933 -0.23525758 0.73475921
v -0.17003325 -0.21315840 0.75324470
v -0.17003325 -0.22318780 0.74323952
v -0.19556797 -0.17875952 0.77890867
v -0.19846259 -0.19959426 0.75960493
v -0.18517834 -0.20134725 0.76124144
v -0.21050629 -0.10378321 0.83176154
v -0.21091981 -0.11162856 0.82647997
v -0.21820806 -0.11935897 0.81952465
v -0.21004109 -0.15433258 0.79549724
v -0.21004109 -0.16657479 0.78549206
v -0.22487605 -0.14180300 0.80133677
v -0.17003325 -0.24221207 0.72248518
v -0.17086029 -0.25350595 0.70868617
v -0.18331751 -0.24077520 0.72084862
v -0.18998548 -0.24709746 0.71143854
v -0.21004109 -0.24591923 0.70708680
v -0.21004109 -0.25589114 0.69473833
v -0.22616827 -0.26158118 0.68209231
v -0.23175077 -0.26752988 0.67186397
v -0.23950423 -0.25985694 0.67982352
v -0.23175077 -0.25454050 0.68923360
v -0.23004501 -0.24330410 0.70388812
v -0.23004501 -0.23465410 0.71389329
v -0.24653403 -0.22215325 0.72226202
v -0.25190976 -0.21350324 0.72936606
v -0.26028350 -0.20011154 0.74007797
v -0.26814035 -0.20652002 0.73051912
v -0.27356777 -0.19749641 0.73754877
v -0.26814035 -0.19051319 0.74617785
v -0.25904295 -0.17965040 0.75964212
v -0.26994947 -0.17738011 0.75763363
v -0.26994947 -0.16737944 0.76629984
v -0.25609663 -0.15847079 0.77872270
v -0.25004894 -0.13688889 0.79761732
v -0.25004894 -0.12688822 0.80501896
v -0.25004894 -0.11272058 0.81502420
v -0.25004894 -0.10378321 0.82104963
v -0.17003325 -0.23318848 0.73249042
v -0.18564354 -0.22137734 0.74141699
v -0.21004109 -0.17657547 0.77701175
v -0.21004109 -0.18789807 0.76704377
v -0.21004109 -0.19789875 0.75800556
v -0.21004109 -0.20818679 0.74800032
v -0.19897950 -0.21973929 0.73970604
v -0.19205306 -0.21054327 0.75049233
v -0.22435914 -0.10378321 0.82819092
v -0.23004501 -0.10700181 0.82465744
v -0.23004501 -0.11700249 0.81792533
v -0.23092374 -0.13160117 0.80713904
v -0.23092374 -0.14907360 0.79386073
v -0.23004501 -0.16329871 0.78270245
v -0.23821199 -0.13933158 0.79947704
v -0.19112265 -0.23028599 0.73025876
v -0.19660176 -0.23919463 0.71906328
v -0.21004109 -0.23747037 0.71705484
v -0.23004501 -0.22465342 0.72501439
v -0.23004501 -0.21519876 0.73501956
v -0.25004894 -0.20192200 0.74182612
v -0.25144455 -0.18924874 0.75328189
v -0.24570699 -0.18206434 0.76179940
v -0.25087598 -0.17033941 0.77027965
v -0.24276069 -0.16105717 0.78084278
v -0.24968711 -0.15108524 0.78660786
v -0.24503502 -0.10378321 0.82250023
v -0.23004501 -0.17329937 0.77422220
v -0.23004501 -0.18476567 0.76421702
v -0.23004501 -0.19476634 0.75506723
v -0.23004501 -0.20519808 0.74506199
v -0.21004109 -0.21818747 0.73810673
v -0.21004109 -0.22746970 0.72810149
v -0.23030347 -0.10378321 0.82662874
f 1 2 6
f 1 6 14
f 1 14 28
f 1 28 49
f 1 49 77
f 1 77 121
f 1 121 181
f 1 181 252
f 1 252 314
f 1 314 376
f 1 376 441
f 1 441 516
f 1 516 599
f 1 599 681
f 1 681 751
f 1 751 810
f 1 810 811
f 1 811 755
f 1 755 687
f 1 687 607
f 1 607 606
f 1 606 523
f 1 523 522
f 1 522 450
f 1 450 383
f 1 383 320
f 1 320 258
f 1 258 257
f 1 257 185
f 1 185 125
f 1 125 124
f 1 124 80
f 1 80 52
f 1 52 51
f 1 51 29
f 1 29 15
f 1 15 7
f 1 7 3
f 1 3 4
f 1 4 10
f 1 10 21
f 1 21 40
f 1 40 65
f 1 65 64
f 1 64 96
f 1 96 95
f 1 95 94
f 1 94 146
f 1 146 145
f 1 145 211
f 1 211 210
f 1 210 209
f 1 209 281
f 1 281 214
f 1 214 212
f 1 212 150
f 1 150 149
f 1 149 148
f 1 148 103
f 1 103 73
f 1 73 45
f 1 45 41
f 1 41 22
f 1 22 11
f 1 11 5
f 1 5 2
f 2 5 12
f 2 12 25
f 2 25 47
f 2 47 72
f 2 72 113
f 2 113 164
f 2 164 167
f 2 167 166
f 2 166 229
f 2 229 230
f 2 230 292
f 2 292 351
f 2 351 411
f 2 411 415
f 2 415 480
f 2 480 550
f 2 550 554
f 2 554 637
f 2 637 638
f 2 638 636
f 2 636 716
f 2 716 784
f 2 784 832
f 2 832 831
f 2 831 830
f 2 830 870
f 2 870 897
f 2 897 904
f 2 904 879
f 2 879 839
f 2 839 792
f 2 792 729
f 2 729 656
f 2 656 572
f 2 572 571
f 2 571 570
f 2 570 569
f 2 569 498
f 2 498 495
f 2 495 427
f 2 427 364
f 2 364 363
f 2 363 302
f 2 302 242
f 2 242 241
f 2 241 240
f 2 240 173
f 2 173 117
f 2 117 116
f 2 116 75
f 2 75 48
f 2 48 26
f 2 26 13
f 2 13 6
f 3 7 8
f 3 8 4
f 4 8 9
f 4 9 10
f 5 11 12
f 6 13 14
f 7 15 16
f 7 16 17
f 7 17 8
f 8 17 9
f 9 17 18
f 9 18 19
f 9 19 20
f 9 20 21
f 9 21 10
f 11 22 23
f 11 23 24
f 11 24 12
f 12 24 25
f 13 26 27
f 13 27 14
f 14 27 26
f 14 26 48
f 14 48 74
f 14 74 115
f 14 115 171
f 14 171 239
f 14 239 238
f 14 238 301
f 14 301 300
f 14 300 362
f 14 362 426
f 14 426 494
f 14 494 493
f 14 493 492
f 14 492 566
f 14 566 653
f 14 653 726
f 14 726 725
f 14 725 791
f 14 791 754
f 14 754 753
f 14 753 685
f 14 685 684
f 14 684 601
f 14 601 520
f 14 520 448
f 14 448 444
f 14 444 380
f 14 380 316
f 14 316 254
f 14 254 182
f 14 182 122
f 14 122 78
f 14 78 50
f 14 50 28
f 15 29 16
f 16 29 30
f 16 30 31
f 16 31 32
f 16 32 17
f 17 32 18
f 18 32 31
f 18 31 33
f 18 33 19
f 19 33 34
f 19 34 35
f 19 35 36
f 19 36 37
f 19 37 38
f 19 38 39
f 19 39 20
f 20 39 21
f 21 39 40
f 22 41 23
f 23 42 43
f 23 43 44
f 23 44 24
f 23 41 45
f 23 45 42
f 24 44 25
f 25 44 46
f 25 46 47
f 28 50 49
f 29 51 30
f 30 52 53
f 30 53 31
f 30 51 52
f 31 53 54
f 31 54 55
f 31 55 56
f 31 56 33
f 33 56 34
f 34 56 55
f 34 55 57
f 34 57 35
f 35 58 37
f 35 37 36
f 35 57 59
f 35 59 60
f 35 60 61
f 35 61 58
f 37 62 38
f 37 58 63
f 37 63 62
f 38 62 39
f 39 62 64
f 39 64 65
f 39 65 40
f 42 45 66
f 42 66 67
f 42 67 43
f 43 67 44
f 44 47 46
f 44 67 68
f 44 68 69
f 44 69 70
f 44 70 71
f 44 71 72
f 44 72 47
f 45 73 66
f 48 75 76
f 48 76 74
f 49 50 79
f 49 79 77
f 50 78 79
f 52 80 53
f 53 80 81
f 53 81 82
f 53 82 54
f 54 82 83
f 54 83 55
f 55 83 84
f 55 84 85
f 55 85 86
f 55 86 57
f 57 86 59
f 58 61 87
f 58 87 63
f 59 86 88
f 59 88 60
f 60 88 89
f 60 89 90
f 60 90 91
f 60 91 92
f 60 92 87
f 60 87 61
f 62 93 94
f 62 94 95
f 62 95 96
f 62 96 64
f 62 63 97
f 62 97 93
f 63 87 98
f 63 98 99
f 63 99 93
f 63 93 97
f 66 100 101
f 66 101 102
f 66 102 67
f 66 73 103
f 66 103 100
f 67 102 101
f 67 101 104
f 67 104 105
f 67 105 106
f 67 106 107
f 67 107 68
f 68 107 69
f 69 107 108
f 69 108 70
f 70 109 72
f 70 72 71
f 70 108 110
f 70 110 111
f 70 111 112
f 70 112 109
f 72 109 113
f 74 76 114
f 74 114 115
f 75 116 76
f 76 116 117
f 76 117 118
f 76 118 114
f 77 119 120
f 77 120 121
f 77 79 119
f 78 122 183
f 78 183 123
f 78 123 79
f 79 123 119
f 80 124 81
f 81 124 125
f 81 125 126
f 81 126 127
f 81 127 82
f 82 127 83
f 83 127 128
f 83 128 84
f 84 128 129
f 84 129 85
f 85 89 88
f 85 88 86
f 85 129 130
f 85 130 131
f 85 131 132
f 85 132 89
f 87 133 98
f 87 92 91
f 87 91 133
f 89 132 134
f 89 134 135
f 89 135 136
f 89 136 90
f 90 137 91
f 90 136 137
f 91 138 139
f 91 139 133
f 91 137 140
f 91 140 141
f 91 141 138
f 93 99 142
f 93 142 143
f 93 143 144
f 93 144 145
f 93 145 146
f 93 146 94
f 98 142 99
f 98 133 147
f 98 147 142
f 100 103 148
f 100 148 149
f 100 149 150
f 100 150 151
f 100 151 101
f 101 151 152
f 101 152 153
f 101 153 154
f 101 154 155
f 101 155 156
f 101 156 105
f 101 105 104
f 105 107 106
f 105 156 155
f 105 155 157
f 105 157 158
f 105 158 159
f 105 159 160
f 105 160 161
f 105 161 107
f 107 161 162
f 107 162 163
f 107 163 108
f 108 163 110
f 109 112 164
f 109 164 113
f 110 163 165
f 110 165 111
f 111 166 167
f 111 167 112
f 111 165 168
f 111 168 169
f 111 169 166
f 112 167 164
f 114 170 239
f 114 239 171
f 114 171 115
f 114 118 172
f 114 172 170
f 117 173 118
f 118 173 174
f 118 174 175
f 118 175 172
f 119 123 176
f 119 176 120
f 120 177 178
f 120 178 179
f 120 179 180
f 120 180 121
f 120 176 177
f 121 180 179
f 121 179 181
f 122 182 255
f 122 255 183
f 123 183 184
f 123 184 176
f 125 185 126
f 126 185 186
f 126 186 127
f 127 186 187
f 127 187 188
f 127 188 128
f 128 188 129
f 129 188 189
f 129 189 130
f 130 189 190
f 130 190 131
f 131 190 191
f 131 191 192
f 131 192 134
f 131 134 132
f 133 139 147
f 134 192 135
f 135 192 193
f 135 193 194
f 135 194 195
f 135 195 196
f 135 196 136
f 136 196 140
f 136 140 137
f 138 141 197
f 138 197 198
f 138 198 199
f 138 199 200
f 138 200 201
f 138 201 139
f 139 201 147
f 140 196 202
f 140 202 203
f 140 203 204
f 140 204 198
f 140 198 197
f 140 197 141
f 142 147 201
f 142 201 205
f 142 205 206
f 142 206 207
f 142 207 144
f 142 144 143
f 144 207 206
f 144 206 208
f 144 208 209
f 144 209 210
f 144 210 211
f 144 211 145
f 150 212 151
f 151 213 152
f 151 212 214
f 151 214 213
f 152 213 153
f 153 206 215
f 153 215 216
f 153 216 217
f 153 217 155
f 153 155 154
f 153 213 218
f 153 218 219
f 153 219 206
f 155 217 216
f 155 216 220
f 155 220 221
f 155 221 222
f 155 222 158
f 155 158 157
f 158 221 223
f 158 223 224
f 158 224 225
f 158 225 160
f 158 160 159
f 158 222 221
f 160 225 226
f 160 226 227
f 160 227 163
f 160 163 162
f 160 162 161
f 163 227 228
f 163 228 165
f 165 228 168
f 166 169 229
f 168 230 229
f 168 229 169
f 168 228 231
f 168 231 232
f 168 232 233
f 168 233 234
f 168 234 230
f 170 172 235
f 170 235 236
f 170 236 237
f 170 237 238
f 170 238 239
f 172 175 235
f 173 240 174
f 174 241 242
f 174 242 243
f 174 243 244
f 174 244 175
f 174 240 241
f 175 244 245
f 175 245 246
f 175 246 235
f 176 184 177
f 177 247 248
f 177 248 249
f 177 249 178
f 177 184 247
f 178 249 250
f 178 250 251
f 178 251 179
f 179 251 181
f 181 251 253
f 181 253 252
f 182 254 318
f 182 318 255
f 183 255 256
f 183 256 184
f 184 256 247
f 185 257 186
f 186 257 258
f 186 258 259
f 186 259 260
f 186 260 187
f 187 260 188
f 188 260 261
f 188 261 189
f 189 261 262
f 189 262 190
f 190 262 263
f 190 263 191
f 191 263 264
f 191 264 265
f 191 265 266
f 191 266 192
f 192 266 193
f 193 266 267
f 193 267 194
f 194 267 268
f 194 268 269
f 194 269 270
f 194 270 271
f 194 271 272
f 194 272 195
f 195 272 202
f 195 202 196
f 198 204 203
f 198 203 273
f 198 273 274
f 198 274 275
f 198 275 276
f 198 276 277
f 198 277 199
f 199 277 278
f 199 278 200
f 200 216 279
f 200 279 201
f 200 278 216
f 201 279 206
f 201 206 205
f 202 272 203
f 203 272 271
f 203 271 280
f 203 280 273
f 206 219 218
f 206 218 208
f 206 279 216
f 206 216 215
f 208 218 209
f 209 218 281
f 213 214 218
f 214 281 218
f 216 278 221
f 216 221 220
f 221 277 276
f 221 276 223
f 221 278 277
f 223 276 282
f 223 282 224
f 224 282 283
f 224 283 284
f 224 284 285
f 224 285 226
f 224 226 225
f 226 285 286
f 226 286 287
f 226 287 288
f 226 288 227
f 227 288 228
f 228 288 289
f 228 289 290
f 228 290 231
f 230 234 233
f 230 233 291
f 230 291 292
f 231 290 232
f 232 290 293
f 232 293 233
f 233 293 294
f 233 294 295
f 233 295 292
f 233 292 291
f 235 246 296
f 235 296 236
f 236 296 297
f 236 297 298
f 236 298 237
f 237 298 299
f 237 299 300
f 237 300 301
f 237 301 238
f 242 302 243
f 243 302 303
f 243 303 304
f 243 304 244
f 244 304 245
f 245 304 305
f 245 305 306
f 245 306 307
f 245 307 246
f 246 307 296
f 247 308 248
f 247 256 308
f 248 309 310
f 248 310 249
f 248 308 309
f 249 310 311
f 249 311 250
f 250 311 312
f 250 312 313
f 250 313 253
f 250 253 251
f 252 253 314
f 253 313 315
f 253 315 314
f 254 316 317
f 254 317 318
f 255 318 319
f 255 319 256
f 256 319 369
f 256 369 308
f 258 320 321
f 258 321 259
f 259 321 322
f 259 322 323
f 259 323 260
f 260 323 261
f 261 323 324
f 261 324 325
f 261 325 262
f 262 325 263
f 263 325 326
f 263 326 264
f 264 326 327
f 264 327 265
f 265 267 266
f 265 327 328
f 265 328 329
f 265 329 330
f 265 330 267
f 267 330 268
f 268 330 331
f 268 331 269
f 269 331 332
f 269 332 333
f 269 333 334
f 269 334 270
f 270 334 271
f 271 334 335
f 271 335 336
f 271 336 280
f 273 280 274
f 274 280 337
f 274 337 338
f 274 338 339
f 274 339 340
f 274 340 341
f 274 341 275
f 275 341 276
f 276 341 340
f 276 340 282
f 280 336 337
f 282 340 283
f 283 340 284
f 284 340 342
f 284 342 343
f 284 343 344
f 284 344 345
f 284 345 287
f 284 287 286
f 284 286 285
f 287 345 344
f 287 344 346
f 287 346 347
f 287 347 348
f 287 348 290
f 287 290 289
f 287 289 288
f 290 348 349
f 290 349 350
f 290 350 293
f 292 295 351
f 293 350 294
f 294 351 295
f 294 350 352
f 294 352 353
f 294 353 354
f 294 354 351
f 296 307 297
f 297 307 355
f 297 355 356
f 297 356 357
f 297 357 358
f 297 358 298
f 298 358 359
f 298 359 360
f 298 360 361
f 298 361 299
f 299 361 300
f 300 361 362
f 302 363 303
f 303 363 364
f 303 364 365
f 303 365 366
f 303 366 304
f 304 366 305
f 305 366 367
f 305 367 306
f 306 367 431
f 306 431 368
f 306 368 307
f 307 368 355
f 308 369 370
f 308 370 309
f 309 371 310
f 309 370 371
f 310 371 372
f 310 372 311
f 311 372 312
f 312 372 373
f 312 373 374
f 312 374 375
f 312 375 313
f 313 375 315
f 314 315 377
f 314 377 378
f 314 378 379
f 314 379 376
f 315 375 377
f 316 380 317
f 317 381 382
f 317 382 319
f 317 319 318
f 317 380 381
f 319 382 434
f 319 434 369
f 320 383 321
f 321 383 384
f 321 384 385
f 321 385 322
f 322 385 323
f 323 385 386
f 323 386 387
f 323 387 324
f 324 387 325
f 325 387 388
f 325 388 389
f 325 389 326
f 326 389 327
f 327 389 390
f 327 390 328
f 328 390 391
f 328 391 392
f 328 392 329
f 329 392 393
f 329 393 331
f 329 331 330
f 331 393 332
f 332 393 394
f 332 394 395
f 332 395 396
f 332 396 333
f 333 396 397
f 333 397 335
f 333 335 334
f 335 398 399
f 335 399 336
f 335 397 400
f 335 400 401
f 335 401 398
f 336 399 337
f 337 399 338
f 338 399 398
f 338 398 402
f 338 402 403
f 338 403 340
f 338 340 339
f 340 403 404
f 340 404 342
f 342 404 343
f 343 404 405
f 343 405 344
f 344 405 406
f 344 406 407
f 344 407 346
f 346 407 347
f 347 407 408
f 347 408 409
f 347 409 349
f 347 349 348
f 349 409 410
f 349 410 350
f 350 410 352
f 351 354 411
f 352 410 353
f 353 412 413
f 353 413 414
f 353 414 415
f 353 415 411
f 353 411 354
f 353 410 412
f 355 368 416
f 355 416 356
f 356 416 417
f 356 417 418
f 356 418 357
f 357 419 359
f 357 359 358
f 357 418 420
f 357 420 421
f 357 421 422
f 357 422 419
f 359 422 423
f 359 423 424
f 359 424 360
f 359 419 422
f 360 424 361
f 361 424 425
f 361 425 426
f 361 426 362
f 364 427 365
f 365 428 366
f 365 427 429
f 365 429 428
f 366 428 430
f 366 430 367
f 367 430 432
f 367 432 431
f 368 431 433
f 368 433 416
f 369 434 370
f 370 435 436
f 370 436 371
f 370 434 435
f 371 436 437
f 371 437 372
f 372 437 373
f 373 437 438
f 373 438 374
f 374 438 439
f 374 439 440
f 374 440 375
f 375 440 377
f 376 379 442
f 376 442 441
f 377 440 443
f 377 443 379
f 377 379 378
f 379 443 442
f 380 444 381
f 381 445 446
f 381 446 447
f 381 447 382
f 381 444 448
f 381 448 445
f 382 447 449
f 382 449 434
f 383 450 451
f 383 451 384
f 384 451 385
f 385 451 452
f 385 452 453
f 385 453 386
f 386 453 387
f 387 453 454
f 387 454 455
f 387 455 388
f 388 455 389
f 389 455 456
f 389 456 390
f 390 456 457
f 390 457 391
f 391 457 458
f 391 458 392
f 392 458 459
f 392 459 460
f 392 460 393
f 393 460 394
f 394 460 461
f 394 461 395
f 395 461 462
f 395 462 463
f 395 463 464
f 395 464 465
f 395 465 396
f 396 465 397
f 397 465 464
f 397 464 400
f 398 401 466
f 398 466 467
f 398 467 468
f 398 468 469
f 398 469 402
f 400 464 470
f 400 470 466
f 400 466 401
f 402 469 404
f 402 404 403
f 404 469 405
f 405 469 471
f 405 471 406
f 406 471 472
f 406 472 473
f 406 473 474
f 406 474 407
f 407 474 408
f 408 410 409
f 408 474 475
f 408 475 476
f 408 476 477
f 408 477 410
f 410 477 478
f 410 478 479
f 410 479 412
f 412 479 413
f 413 480 414
f 413 479 481
f 413 481 482
f 413 482 483
f 413 483 480
f 414 480 415
f 416 433 417
f 417 484 418
f 417 433 485
f 417 485 486
f 417 486 487
f 417 487 484
f 418 484 420
f 420 484 421
f 421 484 488
f 421 488 489
f 421 489 422
f 422 489 564
f 422 564 490
f 422 490 423
f 423 490 565
f 423 565 491
f 423 491 424
f 424 491 425
f 425 491 492
f 425 492 493
f 425 493 494
f 425 494 426
f 427 495 429
f 428 429 496
f 428 496 497
f 428 497 432
f 428 432 430
f 429 498 499
f 429 499 496
f 429 495 498
f 431 432 500
f 431 500 501
f 431 501 433
f 432 497 502
f 432 502 500
f 433 501 485
f 434 449 503
f 434 503 435
f 435 503 504
f 435 504 505
f 435 505 436
f 436 505 506
f 436 506 437
f 437 506 507
f 437 507 438
f 438 507 508
f 438 508 439
f 439 508 509
f 439 509 440
f 440 509 510
f 440 510 511
f 440 511 443
f 441 442 512
f 441 512 513
f 441 513 514
f 441 514 515
f 441 515 516
f 442 443 511
f 442 511 512
f 445 517 446
f 445 448 517
f 446 518 519
f 446 519 447
f 446 517 518
f 447 519 449
f 448 520 517
f 449 521 503
f 449 519 521
f 450 522 451
f 451 522 523
f 451 523 524
f 451 524 452
f 452 524 525
f 452 525 526
f 452 526 453
f 453 526 454
f 454 526 527
f 454 527 528
f 454 528 455
f 455 528 456
f 456 528 529
f 456 529 457
f 457 529 530
f 457 530 458
f 458 530 531
f 458 531 459
f 459 531 532
f 459 532 533
f 459 533 460
f 460 533 461
f 461 533 534
f 461 534 462
f 462 534 535
f 462 535 536
f 462 536 463
f 463 536 537
f 463 537 464
f 464 538 470
f 464 537 539
f 464 539 540
f 464 540 538
f 466 470 467
f 467 470 538
f 467 538 541
f 467 541 542
f 467 542 543
f 467 543 468
f 468 543 469
f 469 543 542
f 469 542 471
f 471 542 472
f 472 542 544
f 472 544 473
f 473 475 474
f 473 544 545
f 473 545 546
f 473 546 476
f 473 476 475
f 476 546 547
f 476 547 548
f 476 548 478
f 476 478 477
f 478 548 479
f 479 548 549
f 479 549 481
f 480 483 550
f 481 549 482
f 482 551 552
f 482 552 553
f 482 553 554
f 482 554 555
f 482 555 483
f 482 549 551
f 483 555 550
f 484 556 557
f 484 557 488
f 484 487 558
f 484 558 556
f 485 501 559
f 485 559 560
f 485 560 486
f 486 561 487
f 486 560 561
f 487 561 562
f 487 562 558
f 488 557 489
f 489 557 563
f 489 563 651
f 489 651 564
f 490 564 652
f 490 652 565
f 491 565 566
f 491 566 492
f 496 499 567
f 496 567 568
f 496 568 497
f 497 568 502
f 498 569 499
f 499 569 570
f 499 570 571
f 499 571 572
f 499 572 567
f 500 502 573
f 500 573 574
f 500 574 501
f 501 574 559
f 502 568 575
f 502 575 573
f 503 576 504
f 503 521 576
f 504 577 578
f 504 578 505
f 504 576 577
f 505 578 579
f 505 579 506
f 506 579 580
f 506 580 507
f 507 580 581
f 507 581 582
f 507 582 508
f 508 582 583
f 508 583 584
f 508 584 509
f 509 584 585
f 509 585 510
f 510 585 586
f 510 586 511
f 511 586 587
f 511 587 512
f 512 587 588
f 512 588 513
f 513 588 589
f 513 589 515
f 513 515 514
f 515 589 590
f 515 590 591
f 515 591 592
f 515 592 516
f 516 592 593
f 516 593 594
f 516 594 595
f 516 595 596
f 516 596 597
f 516 597 598
f 516 598 599
f 517 600 602
f 517 602 518
f 517 520 601
f 517 601 600
f 518 602 603
f 518 603 519
f 519 603 604
f 519 604 521
f 521 604 603
f 521 603 605
f 521 605 576
f 523 606 524
f 524 606 607
f 524 607 608
f 524 608 609
f 524 609 525
f 525 609 526
f 526 609 610
f 526 610 611
f 526 611 527
f 527 611 528
f 528 611 612
f 528 612 613
f 528 613 529
f 529 613 530
f 530 613 614
f 530 614 615
f 530 615 531
f 531 615 532
f 532 615 616
f 532 616 617
f 532 617 533
f 533 617 534
f 534 617 618
f 534 618 535
f 535 618 619
f 535 619 620
f 535 620 536
f 536 621 537
f 536 620 621
f 537 621 539
f 538 622 541
f 538 540 623
f 538 623 624
f 538 624 622
f 539 621 625
f 539 625 626
f 539 626 623
f 539 623 540
f 541 622 542
f 542 622 544
f 544 622 545
f 545 547 546
f 545 622 627
f 545 627 628
f 545 628 629
f 545 629 547
f 547 549 548
f 547 629 630
f 547 630 631
f 547 631 549
f 549 631 632
f 549 632 551
f 550 555 554
f 551 632 633
f 551 633 552
f 552 633 634
f 552 634 635
f 552 635 636
f 552 636 553
f 553 637 554
f 553 636 638
f 553 638 637
f 556 639 640
f 556 640 641
f 556 641 557
f 556 558 639
f 557 641 642
f 557 642 563
f 558 643 639
f 558 562 644
f 558 644 645
f 558 645 643
f 559 574 646
f 559 646 647
f 559 647 560
f 560 647 722
f 560 722 648
f 560 648 561
f 561 648 649
f 561 649 562
f 562 649 644
f 563 642 650
f 563 650 651
f 564 651 652
f 565 652 566
f 566 652 653
f 567 572 654
f 567 654 655
f 567 655 568
f 568 655 575
f 572 656 654
f 573 575 657
f 573 657 574
f 574 657 646
f 575 655 658
f 575 658 659
f 575 659 657
f 576 605 577
f 577 605 660
f 577 660 661
f 577 661 662
f 577 662 578
f 578 662 663
f 578 663 579
f 579 663 664
f 579 664 580
f 580 664 581
f 581 664 665
f 581 665 666
f 581 666 583
f 581 583 582
f 583 667 668
f 583 668 669
f 583 669 584
f 583 666 667
f 584 669 585
f 585 669 670
f 585 670 586
f 586 670 671
f 586 671 672
f 586 672 587
f 587 672 588
f 588 672 673
f 588 673 589
f 589 673 590
f 590 673 674
f 590 674 675
f 590 675 591
f 591 675 676
f 591 676 677
f 591 677 592
f 592 677 593
f 593 677 594
f 594 677 678
f 594 678 596
f 594 596 595
f 596 678 679
f 596 679 680
f 596 680 597
f 597 680 598
f 598 681 599
f 598 680 682
f 598 682 681
f 600 683 650
f 600 650 602
f 600 601 684
f 600 684 685
f 600 685 683
f 602 650 603
f 603 650 642
f 603 642 686
f 603 686 605
f 605 686 640
f 605 640 660
f 607 687 688
f 607 688 608
f 608 688 689
f 608 689 609
f 609 689 690
f 609 690 691
f 609 691 610
f 610 691 611
f 611 691 692
f 611 692 612
f 612 692 693
f 612 693 613
f 613 693 694
f 613 694 695
f 613 695 614
f 614 695 615
f 615 695 696
f 615 696 616
f 616 697 617
f 616 696 698
f 616 698 697
f 617 697 618
f 618 697 699
f 618 699 619
f 619 699 700
f 619 700 701
f 619 701 620
f 620 701 702
f 620 702 625
f 620 625 621
f 622 624 703
f 622 703 627
f 623 626 704
f 623 704 624
f 624 704 703
f 625 702 705
f 625 705 706
f 625 706 707
f 625 707 708
f 625 708 626
f 626 708 704
f 627 703 709
f 627 709 628
f 628 709 710
f 628 710 629
f 629 710 630
f 630 710 711
f 630 711 712
f 630 712 631
f 631 712 632
f 632 712 713
f 632 713 633
f 633 713 714
f 633 714 634
f 634 714 715
f 634 715 635
f 635 716 636
f 635 715 716
f 639 643 640
f 640 643 660
f 640 686 641
f 641 686 642
f 643 645 717
f 643 717 661
f 643 661 660
f 644 649 718
f 644 718 719
f 644 719 645
f 645 719 717
f 646 657 720
f 646 720 721
f 646 721 647
f 647 721 722
f 648 722 723
f 648 723 649
f 649 723 718
f 650 683 724
f 650 724 651
f 651 724 652
f 652 724 725
f 652 725 726
f 652 726 653
f 654 656 727
f 654 727 728
f 654 728 655
f 655 728 658
f 656 729 727
f 657 659 730
f 657 730 720
f 658 728 731
f 658 731 732
f 658 732 659
f 659 732 730
f 661 717 733
f 661 733 662
f 662 733 734
f 662 734 663
f 663 734 735
f 663 735 664
f 664 735 665
f 665 735 736
f 665 736 667
f 665 667 666
f 667 736 737
f 667 737 738
f 667 738 668
f 668 738 739
f 668 739 669
f 669 739 740
f 669 740 741
f 669 741 670
f 670 741 671
f 671 741 742
f 671 742 672
f 672 742 743
f 672 743 674
f 672 674 673
f 674 743 744
f 674 744 675
f 675 744 745
f 675 745 676
f 676 745 746
f 676 746 677
f 677 746 747
f 677 747 678
f 678 747 748
f 678 748 679
f 679 748 749
f 679 749 750
f 679 750 680
f 680 750 682
f 681 682 751
f 682 750 752
f 682 752 751
f 683 685 753
f 683 753 754
f 683 754 724
f 687 755 688
f 688 755 756
f 688 756 689
f 689 756 757
f 689 757 690
f 690 757 749
f 690 749 748
f 690 748 691
f 691 748 692
f 692 748 758
f 692 758 759
f 692 759 693
f 693 759 694
f 694 759 760
f 694 760 761
f 694 761 695
f 695 761 696
f 696 761 762
f 696 762 698
f 697 698 763
f 697 763 699
f 698 762 764
f 698 764 765
f 698 765 763
f 699 763 766
f 699 766 700
f 700 767 701
f 700 766 768
f 700 768 767
f 701 767 769
f 701 769 702
f 702 769 705
f 703 704 770
f 703 770 709
f 704 708 770
f 705 769 771
f 705 771 772
f 705 772 706
f 706 773 774
f 706 774 707
f 706 772 773
f 707 774 708
f 708 774 775
f 708 775 776
f 708 776 770
f 709 770 776
f 709 776 777
f 709 777 710
f 710 777 778
f 710 778 711
f 711 778 779
f 711 779 712
f 712 779 713
f 713 779 714
f 714 779 780
f 714 780 781
f 714 781 782
f 714 782 715
f 715 782 783
f 715 783 784
f 715 784 716
f 717 719 785
f 717 785 733
f 718 723 786
f 718 786 787
f 718 787 719
f 719 787 785
f 720 730 788
f 720 788 721
f 721 788 789
f 721 789 722
f 722 789 790
f 722 790 723
f 723 790 786
f 724 754 791
f 724 791 725
f 727 729 792
f 727 792 793
f 727 793 728
f 728 793 731
f 730 732 794
f 730 794 795
f 730 795 788
f 731 793 796
f 731 796 797
f 731 797 732
f 732 797 794
f 733 785 798
f 733 798 734
f 734 798 799
f 734 799 735
f 735 799 800
f 735 800 736
f 736 801 737
f 736 800 801
f 737 802 803
f 737 803 738
f 737 801 802
f 738 803 804
f 738 804 739
f 739 804 805
f 739 805 740
f 740 805 806
f 740 806 741
f 741 806 807
f 741 807 742
f 742 807 808
f 742 808 743
f 743 808 809
f 743 809 744
f 744 809 761
f 744 761 760
f 744 760 745
f 745 760 746
f 746 760 759
f 746 759 747
f 747 759 758
f 747 758 748
f 749 757 750
f 750 757 752
f 751 752 810
f 752 757 756
f 752 756 811
f 752 811 810
f 755 811 756
f 761 809 762
f 762 809 764
f 763 765 766
f 764 809 808
f 764 808 765
f 765 808 807
f 765 807 806
f 765 806 812
f 765 812 766
f 766 812 768
f 767 768 813
f 767 813 814
f 767 814 769
f 768 812 815
f 768 815 813
f 769 814 771
f 771 814 816
f 771 816 772
f 772 816 817
f 772 817 818
f 772 818 819
f 772 819 773
f 773 819 774
f 774 819 820
f 774 820 775
f 775 821 776
f 775 820 821
f 776 778 777
f 776 821 822
f 776 822 778
f 778 822 823
f 778 823 824
f 778 824 779
f 779 824 825
f 779 825 780
f 780 825 826
f 780 826 781
f 781 826 827
f 781 827 828
f 781 828 782
f 782 828 829
f 782 829 830
f 782 830 783
f 783 831 832
f 783 832 784
f 783 830 831
f 785 787 833
f 785 833 798
f 786 790 834
f 786 834 835
f 786 835 787
f 787 835 833
f 788 795 836
f 788 836 837
f 788 837 838
f 788 838 789
f 789 838 790
f 790 838 834
f 792 839 840
f 792 840 793
f 793 840 841
f 793 841 796
f 794 797 842
f 794 842 843
f 794 843 836
f 794 836 795
f 796 841 844
f 796 844 797
f 797 844 842
f 798 833 845
f 798 845 799
f 799 845 846
f 799 846 800
f 800 846 801
f 801 846 847
f 801 847 848
f 801 848 802
f 802 848 849
f 802 849 850
f 802 850 803
f 803 850 851
f 803 851 804
f 804 851 805
f 805 851 852
f 805 852 815
f 805 815 806
f 806 815 812
f 813 815 852
f 813 852 853
f 813 853 814
f 814 853 816
f 816 853 817
f 817 853 854
f 817 854 855
f 817 855 856
f 817 856 857
f 817 857 818
f 818 857 819
f 819 857 858
f 819 858 859
f 819 859 860
f 819 860 821
f 819 821 820
f 821 860 859
f 821 859 861
f 821 861 822
f 822 861 823
f 823 861 862
f 823 862 863
f 823 863 864
f 823 864 824
f 824 864 825
f 825 864 865
f 825 865 826
f 826 865 866
f 826 866 827
f 827 866 867
f 827 867 828
f 828 867 829
f 829 867 868
f 829 868 869
f 829 869 830
f 830 869 870
f 833 835 871
f 833 871 845
f 834 838 872
f 834 872 835
f 835 872 871
f 836 843 873
f 836 873 874
f 836 874 837
f 837 874 875
f 837 875 876
f 837 876 877
f 837 877 878
f 837 878 838
f 838 878 872
f 839 879 880
f 839 880 841
f 839 841 840
f 841 880 881
f 841 881 882
f 841 882 844
f 842 844 883
f 842 883 884
f 842 884 843
f 843 884 898
f 843 898 873
f 844 882 885
f 844 885 883
f 845 871 847
f 845 847 846
f 847 871 872
f 847 872 886
f 847 886 887
f 847 887 848
f 848 887 849
f 849 888 855
f 849 855 850
f 849 887 888
f 850 855 854
f 850 854 851
f 851 854 853
f 851 853 852
f 855 888 856
f 856 889 857
f 856 888 889
f 857 889 890
f 857 890 858
f 858 891 859
f 858 890 891
f 859 862 861
f 859 891 892
f 859 892 863
f 859 863 862
f 863 892 893
f 863 893 894
f 863 894 866
f 863 866 865
f 863 865 864
f 866 894 895
f 866 895 896
f 866 896 867
f 867 896 885
f 867 885 868
f 868 885 881
f 868 881 869
f 869 881 870
f 870 881 897
f 872 878 877
f 872 877 886
f 873 898 899
f 873 899 874
f 874 899 875
f 875 899 900
f 875 900 901
f 875 901 876
f 876 901 902
f 876 902 877
f 877 887 886
f 877 902 903
f 877 903 887
f 879 904 880
f 880 904 897
f 880 897 881
f 881 885 882
f 883 885 895
f 883 895 884
f 884 895 898
f 885 896 895
f 887 903 888
f 888 903 889
f 889 903 902
f 889 902 890
f 890 901 891
f 890 902 901
f 891 901 900
f 891 900 892
f 892 900 893
f 893 895 894
f 893 900 899
f 893 899 898
f 893 898 895
