v -0.52901834 0.07622331 0.54118168
v -0.30377698 0.07622331 0.69587219
v -0.52901834 0.07622331 0.77954435
v -0.52901834 0.37804574 0.70090079
v -0.30377698 0.40390110 0.83770269
v -0.30377698 0.38887244 0.83015984
v -0.30377698 0.37289739 0.82311159
v -0.30377698 0.07622331 0.89248121
v -0.52438831 0.07622331 0.78267694
v -0.52901834 0.08803426 0.78440809
v -0.52901834 0.38902387 0.70683610
v -0.30377698 0.41374356 0.84351444
v -0.52901834 0.39031094 0.70753682
v -0.30377698 0.08814782 0.89680904
v -0.30379903 0.07622331 0.89256364
v -0.52233779 0.07622331 0.78403711
v -0.52901834 0.09227407 0.78613919
v -0.30377698 0.42854506 0.85464323
v -0.52901834 0.40628600 0.71742910
v -0.52901834 0.41075295 0.72056168
v -0.52901834 0.41491705 0.72352934
v -0.30377698 0.09609748 0.89961189
v -0.30931100 0.09064628 0.89573741
v -0.30979607 0.07622331 0.89042032
v -0.50381756 0.07622331 0.79607272
v -0.50009149 0.07989530 0.80002964
v -0.51321000 0.09000275 0.79561931
v -0.52901834 0.11055832 0.79318744
v -0.51753139 0.10427429 0.79838091
v -0.30377698 0.43744114 0.86255705
v -0.52901834 0.42661446 0.73362774
v -0.30377698 0.10075372 0.90113693
v -0.31550646 0.10514496 0.89833415
v -0.33001399 0.09000275 0.88782358
v -0.32390672 0.07622331 0.88522685
v -0.49510866 0.07622331 0.80151343
v -0.48631155 0.07622331 0.80674815
v -0.48999357 0.09000275 0.81000435
v -0.50322229 0.09000275 0.80200809
v -0.52901834 0.11123972 0.79343474
v -0.52134567 0.11759944 0.80085397
v -0.51052016 0.11055832 0.80518186
v -0.30377698 0.44459581 0.87137765
v -0.52901834 0.43270919 0.73985159
v -0.52901834 0.43649474 0.74380851
v -0.30377698 0.11078544 0.90426946
v -0.30931100 0.11108829 0.90249711
v -0.32134914 0.11847013 0.90047747
v -0.32880133 0.11108829 0.89528400
v -0.34498450 0.09000275 0.88201189
v -0.34050879 0.07944104 0.88019830
v -0.33548185 0.07622331 0.88089895
v -0.47145128 0.07622331 0.81548631
v -0.47650024 0.09000275 0.81795937
v -0.47987357 0.10022375 0.81989658
v -0.49036837 0.10813555 0.81659919
v -0.52901834 0.13001607 0.80023569
v -0.52469695 0.13001607 0.80303854
v -0.50864607 0.13084890 0.81346661
v -0.49729142 0.12471630 0.81841278
v -0.30377698 0.45561182 0.89083248
v -0.52901834 0.44293019 0.75217575
v -0.30377698 0.11650164 0.90604186
v -0.30377698 0.13035677 0.91032851
v -0.31001654 0.13001607 0.90810275
v -0.32880133 0.13194671 0.90179640
v -0.34011191 0.13989638 0.90002406
v -0.33466607 0.12657122 0.89796317
v -0.35168707 0.10843840 0.88543296
v -0.35946998 0.10071586 0.87974489
v -0.35499427 0.09000275 0.87789011
v -0.34996733 0.07622331 0.87496364
v -0.34377187 0.07622331 0.87760156
v -0.46289667 0.07622331 0.82043242
v -0.46212500 0.07694256 0.82117438
v -0.46649051 0.09000275 0.82368863
v -0.45506969 0.11002834 0.83729053
v -0.47191429 0.10813555 0.82719219
v -0.48395243 0.11354890 0.82224602
v -0.52901834 0.14390907 0.80489331
v -0.51422417 0.15000382 0.81639308
v -0.50106162 0.13804145 0.82063854
v -0.46966538 0.12914540 0.83568305
v -0.49036837 0.13084890 0.82443058
v -0.30377698 0.45905668 0.89874631
v -0.52901834 0.45216694 0.76994061
v -0.30377698 0.13652723 0.91218328
v -0.30823064 0.15174517 0.91510975
v -0.33001399 0.15000382 0.90670133
v -0.33001399 0.17002940 0.91230696
v -0.34374982 0.15000382 0.90146667
v -0.35375959 0.15000382 0.89742732
v -0.34807122 0.13194671 0.89433599
v -0.36447486 0.11404103 0.88192940
v -0.37069237 0.10843840 0.87735426
v -0.39000633 0.11002834 0.86927557
v -0.40103027 0.09863381 0.86045492
v -0.38949922 0.09121412 0.86305165
v -0.37000889 0.09000275 0.87133646
v -0.37007502 0.07622331 0.86626667
v -0.46084625 0.07622331 0.82158655
v -0.44995457 0.07622331 0.82756311
v -0.44874194 0.09094913 0.83386946
v -0.44122359 0.09821740 0.84062916
v -0.44505993 0.11002834 0.84269005
v -0.45886192 0.12187713 0.83935142
v -0.52901834 0.15011738 0.80695421
v -0.52901834 0.15223730 0.80765492
v -0.50421447 0.15000382 0.82257575
v -0.51788414 0.16435108 0.81866008
v -0.48999357 0.15000382 0.83086056
v -0.46280849 0.13524014 0.84153599
v -0.47698531 0.15000382 0.83827972
v -0.30377698 0.45985162 0.90072477
v -0.52901834 0.45833743 0.78572702
v -0.30377698 0.15617427 0.91791260
v -0.31438202 0.17002940 0.91799504
v -0.35001144 0.19001715 0.91003996
v -0.35093743 0.16957514 0.90410459
v -0.31881365 0.18165107 0.91956127
v -0.33019036 0.18899505 0.91733551
v -0.35823530 0.16260973 0.89924091
v -0.37000889 0.15000382 0.89062637
v -0.37069237 0.12986465 0.88423765
v -0.37779179 0.12308851 0.87900293
v -0.38952127 0.12986465 0.87591159
v -0.40508708 0.11002834 0.86239219
v -0.41507480 0.11002834 0.85761094
v -0.40863681 0.09121412 0.85414863
v -0.39582697 0.08530866 0.85806429
v -0.38248798 0.07705614 0.86111444
v -0.38092259 0.07622331 0.86148536
v -0.44470716 0.07622331 0.83036596
v -0.43643922 0.08489224 0.83819735
v -0.42986894 0.09094913 0.84367931
v -0.42997918 0.11002834 0.85031533
v -0.43004531 0.12888041 0.85653925
v -0.45129949 0.12914540 0.84574020
v -0.52901834 0.16745523 0.81247741
v -0.51071858 0.17059724 0.82492518
v -0.48999357 0.16817448 0.83646619
v -0.52110314 0.17767623 0.82067972
v -0.52901834 0.17059724 0.81346661
v -0.47985151 0.16030052 0.83988726
v -0.46697554 0.15000382 0.84384418
v -0.44847736 0.15117735 0.85414863
v -0.30377698 0.46155512 0.90999877
v -0.52901834 0.46079803 0.79574299
v -0.30377698 0.16847733 0.92129242
v -0.30439430 0.17002940 0.92149854
v -0.37000889 0.21000490 0.90707231
v -0.36963406 0.19172065 0.90249711
v -0.36271101 0.17593488 0.90109575
v -0.33698112 0.20451583 0.91886061
v -0.34884289 0.21072415 0.91581047
v -0.31129533 0.18899505 0.92409527
v -0.32364213 0.19497623 0.92129242
v -0.36963406 0.16957514 0.89639688
v -0.39000633 0.17002940 0.88769990
v -0.38952127 0.15174517 0.88258892
v -0.38255414 0.13641366 0.88110507
v -0.41145894 0.12888041 0.86548352
v -0.39587107 0.14621826 0.87813741
v -0.41904342 0.12142286 0.85954815
v -0.42321047 0.07622331 0.84157717
v -0.41009197 0.07622331 0.84784228
v -0.40446976 0.07622331 0.85052145
v -0.39201269 0.07622331 0.85637438
v -0.38339195 0.07622331 0.86037248
v -0.43271312 0.07622331 0.83671349
v -0.42340890 0.13478588 0.86165023
v -0.43674788 0.14527187 0.85839403
v -0.49746779 0.19001715 0.83852708
v -0.50999099 0.19001715 0.83102542
v -0.48333508 0.17362568 0.84186572
v -0.52901834 0.19001715 0.81923711
v -0.52392530 0.19001715 0.82245213
v -0.47189224 0.16817448 0.84660578
v -0.45405549 0.17002940 0.85686898
v -0.44080469 0.15859702 0.86041373
v -0.52901834 0.46227437 0.80996311
v -0.33001399 0.46265292 0.90999877
v -0.30377698 0.46200940 0.93064892
v -0.30377698 0.17002940 0.92170465
v -0.35508245 0.23003048 0.91803622
v -0.37000889 0.23003048 0.91193599
v -0.38336989 0.21000490 0.90142548
v -0.38032728 0.19951889 0.90010649
v -0.37602794 0.18619373 0.89829290
v -0.33019036 0.21072415 0.92285872
v -0.34139070 0.21784098 0.92050934
v -0.30377698 0.18933575 0.92665076
v -0.31001654 0.21000490 0.92982453
v -0.38819841 0.19172065 0.89450085
v -0.41062111 0.19035785 0.88399029
v -0.40349963 0.17002940 0.88159966
v -0.40030271 0.15954342 0.88011587
v -0.40819585 0.15174517 0.87405682
v -0.43004531 0.15117735 0.86342263
v -0.48745805 0.19001715 0.84421515
v -0.49995920 0.20008673 0.83996969
v -0.50974846 0.20807426 0.83617765
v -0.45791388 0.18392241 0.85888869
v -0.46882758 0.19035785 0.85472566
v -0.52901834 0.20682502 0.82389474
v -0.44404572 0.17002940 0.86206245
v -0.42997918 0.17002940 0.86898702
v -0.52901834 0.46166870 0.82179260
v -0.50999099 0.46235010 0.82999498
v -0.46999609 0.46261507 0.84998560
v -0.42997918 0.46288007 0.86997628
v -0.39000633 0.46288007 0.88996691
v -0.35001144 0.46261507 0.90999877
v -0.33001399 0.46163082 0.92562032
v -0.30377698 0.46057087 0.94103575
v -0.34507269 0.23003048 0.92195195
v -0.35872036 0.24233355 0.91947889
v -0.39051342 0.23078759 0.90340388
v -0.36941358 0.24941254 0.91663480
v -0.39752465 0.22465499 0.89886993
v -0.39337966 0.21000490 0.89705634
v -0.33001399 0.23003048 0.92755759
v -0.30377698 0.21015631 0.93188542
v -0.30377698 0.21697031 0.93349290
v -0.30377698 0.23010619 0.93658423
v -0.30807632 0.23192325 0.93559504
v -0.42155686 0.19728541 0.88073409
v -0.41767645 0.18396026 0.87887931
v -0.41000378 0.21000490 0.88947231
v -0.41350940 0.17002940 0.87690085
v -0.50291359 0.21341190 0.84170085
v -0.47442773 0.21000490 0.85691023
v -0.49197787 0.20807426 0.84656453
v -0.51638490 0.23003048 0.83778512
v -0.52901834 0.21136770 0.82513130
v -0.45074829 0.19035785 0.86437064
v -0.46137539 0.19724756 0.86074346
v -0.42892087 0.19035785 0.87525213
v -0.52901834 0.46125227 0.82896453
v -0.48953056 0.46163082 0.85015047
v -0.45048371 0.46185797 0.87084186
v -0.42997918 0.46151727 0.88506198
v -0.41055498 0.46185797 0.89099735
v -0.36923718 0.46163082 0.91036975
v -0.39000633 0.46140373 0.90410459
v -0.35001144 0.46102515 0.92232287
v -0.36207163 0.46034375 0.92063296
v -0.31724826 0.45943522 0.93831539
v -0.30377698 0.45133412 0.95059830
v -0.33001399 0.25001821 0.93196785
v -0.35124612 0.24941254 0.92393041
v -0.36233622 0.25565869 0.92092150
v -0.39000633 0.25001821 0.90802032
v -0.40105233 0.23798016 0.90047747
v -0.37587363 0.26996809 0.91828358
v -0.40863681 0.23078759 0.89524281
v -0.30377698 0.23620094 0.93798566
v -0.31334576 0.25001821 0.93773836
v -0.42501840 0.21000490 0.88238281
v -0.43502814 0.21000490 0.87756032
v -0.50637513 0.23003048 0.84380293
v -0.48847225 0.23090115 0.85431349
v -0.46444005 0.21000490 0.86239219
v -0.47786722 0.22484428 0.85880625
v -0.51892042 0.24278781 0.83935142
v -0.52901834 0.23116615 0.83020109
v -0.52901834 0.23003048 0.82991254
v -0.44999868 0.21000490 0.87001747
v -0.52901834 0.45837528 0.83729053
v -0.52064013 0.46015447 0.84034067
v -0.50999099 0.46094942 0.84297860
v -0.46999609 0.46129012 0.86449432
v -0.44413391 0.46076018 0.88176453
v -0.40424928 0.46072233 0.90150791
v -0.37541062 0.45879167 0.91729432
v -0.33001399 0.45754242 0.93559504
v -0.41756621 0.45943522 0.89833415
v -0.33001399 0.44751072 0.94573462
v -0.30377698 0.44334662 0.95797634
v -0.31768921 0.26413834 0.93918097
v -0.32882339 0.27046022 0.93650180
v -0.35001144 0.26996809 0.92862922
v -0.36588591 0.26996809 0.92236412
v -0.39000633 0.26996809 0.91222453
v -0.40396264 0.25001821 0.90179640
v -0.41395035 0.25001821 0.89713883
v -0.37885007 0.28268757 0.91947889
v -0.42997918 0.25001821 0.88955474
v -0.43108156 0.22984120 0.88440251
v -0.43846762 0.22306506 0.87925029
v -0.30377698 0.25001821 0.94095337
v -0.49323460 0.25001821 0.85616827
v -0.51135796 0.24967752 0.84545165
v -0.48079959 0.23816943 0.86041373
v -0.44902855 0.22984120 0.87549943
v -0.47070163 0.23090115 0.86420578
v -0.52145588 0.25611296 0.84087646
v -0.52901834 0.24967752 0.83465260
v -0.52901834 0.45106912 0.84520435
v -0.50999099 0.45462757 0.85299450
v -0.49590239 0.45867813 0.85695142
v -0.45747289 0.45932165 0.87809616
v -0.48258546 0.46057087 0.86123806
v -0.39000633 0.45587680 0.91407931
v -0.39000633 0.44588292 0.92421889
v -0.42997918 0.45678532 0.89507794
v -0.42997918 0.44675362 0.90529990
v -0.35001144 0.44319516 0.94210744
v -0.30377698 0.43948534 0.96024328
v -0.31061184 0.27046022 0.94272572
v -0.32137120 0.27742565 0.94045871
v -0.33451176 0.28999370 0.93802691
v -0.35001144 0.28999370 0.93229759
v -0.37130970 0.28961515 0.92380673
v -0.41000378 0.28999370 0.90694863
v -0.41055498 0.27144447 0.90323901
v -0.38899213 0.28961515 0.91634631
v -0.41754416 0.26576614 0.89882874
v -0.38162813 0.29601273 0.92067420
v -0.42821532 0.27144447 0.89491308
v -0.44477332 0.25001821 0.88238281
v -0.44173071 0.23639022 0.88085777
v -0.30377698 0.27030879 0.94482780
v -0.48322487 0.25001821 0.86177391
v -0.48708323 0.26996809 0.86395848
v -0.49707094 0.26996809 0.85835284
v -0.50999099 0.26996809 0.85072756
v -0.46999609 0.25001821 0.86911070
v -0.45478305 0.25001821 0.87727183
v -0.52385914 0.26996809 0.84240156
v -0.52901834 0.26996809 0.83918655
v -0.52901834 0.44857067 0.84784228
v -0.52740884 0.44906279 0.84833694
v -0.50999099 0.44459581 0.86366993
v -0.48935416 0.45050132 0.86948162
v -0.46999609 0.45625535 0.87451023
v -0.46999609 0.44626147 0.88502073
v -0.40334532 0.44236237 0.92145729
v -0.36048418 0.44031817 0.94017023
v -0.44380319 0.44293019 0.90192008
v -0.33001399 0.42998359 0.95261800
v -0.31447020 0.42998359 0.95805871
v -0.30448252 0.42998359 0.96147978
v -0.30377698 0.43297416 0.96123254
v -0.31001654 0.28999370 0.94639409
v -0.32450199 0.28999370 0.94157159
v -0.33797327 0.30468166 0.93926340
v -0.34849012 0.31081426 0.93625450
v -0.37000889 0.30998144 0.92772245
v -0.42607668 0.30998144 0.90286809
v -0.42246082 0.28999370 0.90113693
v -0.42036629 0.27909130 0.90014768
v -0.39426157 0.30998144 0.91745919
v -0.41000378 0.30998144 0.91032851
v -0.38425183 0.30998144 0.92182827
v -0.43247059 0.28999370 0.89639688
v -0.45077035 0.27106592 0.88378423
v -0.45795795 0.26516044 0.87892056
v -0.30377698 0.28999370 0.94833136
v -0.46832046 0.27106592 0.87451023
v -0.46055961 0.27844775 0.88028073
v -0.47250956 0.28999370 0.87587041
v -0.49153692 0.28931230 0.86519498
v -0.49925369 0.28219545 0.85954815
v -0.50884449 0.28931230 0.85522026
v -0.52901834 0.28999370 0.84314346
v -0.52705610 0.28999370 0.84433877
v -0.52901834 0.43308774 0.85670412
v -0.52083856 0.44081026 0.86049616
v -0.48280594 0.44236237 0.88155848
v -0.41630948 0.42998359 0.91828358
v -0.40632176 0.42998359 0.92277628
v -0.42997918 0.42998359 0.91181237
v -0.37221366 0.42998359 0.93683159
v -0.36220393 0.42998359 0.94082969
v -0.35001144 0.42998359 0.94540489
v -0.39000633 0.42998359 0.92965966
v -0.45683351 0.42998359 0.89833415
v -0.44682378 0.42998359 0.90348637
v -0.35001144 0.40999585 0.94618797
v -0.33001399 0.40999585 0.95335990
v -0.31535214 0.40999585 0.95842969
v -0.30534238 0.40999585 0.96176833
v -0.30377698 0.41200221 0.96218050
v -0.30377698 0.42998359 0.96168590
v -0.30377698 0.31047356 0.95158756
v -0.31001654 0.30998144 0.94956785
v -0.33078566 0.31081426 0.94272572
v -0.34081745 0.31800681 0.94029385
v -0.35307610 0.32996917 0.93736738
v -0.37000889 0.32996917 0.93069011
v -0.41000378 0.32996917 0.91337860
v -0.43851170 0.32482082 0.89928210
v -0.43608645 0.30998144 0.89812803
v -0.39767900 0.32996917 0.91894305
v -0.38766924 0.32996917 0.92331213
v -0.44999868 0.28999370 0.88774115
v -0.46249983 0.28999370 0.88135237
v -0.47564036 0.30998144 0.87760156
v -0.48999357 0.30998144 0.86964655
v -0.50139230 0.29555848 0.86078471
v -0.51351869 0.30998144 0.85612708
v -0.52901834 0.29896545 0.84475094
v -0.52901834 0.42998359 0.85723996
v -0.52227169 0.42998359 0.86136174
v -0.50999099 0.42998359 0.86865729
v -0.49526301 0.42998359 0.87727183
v -0.48527530 0.42998359 0.88291866
v -0.46999609 0.42998359 0.89124465
v -0.41703704 0.40999585 0.91865450
v -0.40704936 0.40999585 0.92310601
v -0.39000633 0.40999585 0.93040156
v -0.42997918 0.40999585 0.91251302
v -0.37320581 0.40999585 0.93724376
v -0.36319607 0.40999585 0.94124186
v -0.45751700 0.40999585 0.89870507
v -0.46999609 0.40999585 0.89198661
v -0.44750726 0.40999585 0.90381610
v -0.36176297 0.38997024 0.94066483
v -0.35001144 0.38997024 0.94503391
v -0.33001399 0.38997024 0.95216459
v -0.31341192 0.38997024 0.95781142
v -0.30377698 0.38997024 0.96098518
v -0.30377698 0.39383152 0.96123254
v -0.30377698 0.40999585 0.96222174
v -0.30377698 0.31713614 0.95253557
v -0.31001654 0.32996917 0.95241189
v -0.33001399 0.32996917 0.94573462
v -0.34306633 0.32996917 0.94111824
v -0.35653761 0.34999478 0.93864512
v -0.37000889 0.34999478 0.93328685
v -0.42997918 0.34999478 0.90678376
v -0.43110362 0.33087772 0.90365124
v -0.39953101 0.34166655 0.91976738
v -0.40883523 0.34897268 0.91646993
v -0.44051805 0.33814597 0.90023017
v -0.44830096 0.33087772 0.89520156
v -0.44999868 0.30998144 0.89116222
v -0.39172605 0.34897268 0.92405403
v -0.46563062 0.30998144 0.88304234
v -0.47841841 0.32996917 0.87912661
v -0.48999357 0.32996917 0.87269664
v -0.50617671 0.32996917 0.86358750
v -0.50350893 0.30998144 0.86202121
v -0.51618648 0.32996917 0.85773456
v -0.52901834 0.31319916 0.84722400
v -0.52901834 0.31005716 0.84668821
v -0.52901834 0.40999585 0.85810554
v -0.52297723 0.40999585 0.86177391
v -0.50999099 0.40999585 0.86948162
v -0.49590239 0.40999585 0.87768400
v -0.48591471 0.40999585 0.88328964
v -0.42997918 0.38997024 0.91115284
v -0.41555983 0.38997024 0.91795379
v -0.40555009 0.38997024 0.92248774
v -0.39000633 0.38997024 0.92912382
v -0.37177271 0.38997024 0.93666673
v -0.44627255 0.38997024 0.90315664
v -0.46999609 0.38997024 0.89070880
v -0.45626026 0.38997024 0.89804560
v -0.36055031 0.37785646 0.94021142
v -0.35126817 0.37070176 0.94293177
v -0.33001399 0.36998251 0.95043343
v -0.30377698 0.37350309 0.95950139
v -0.30377698 0.38856959 0.96086156
v -0.30377698 0.32996917 0.95434916
v -0.30377698 0.33947092 0.95558566
v -0.31001654 0.34999478 0.95496738
v -0.33001399 0.34999478 0.94829011
v -0.34652787 0.34999478 0.94239599
v -0.35876444 0.36453131 0.93951070
v -0.36833322 0.37070176 0.93629575
v -0.39000633 0.36998251 0.92722780
v -0.41335505 0.36998251 0.91692334
v -0.42997918 0.36998251 0.90917444
v -0.44203937 0.34999478 0.90101326
v -0.40140510 0.35499170 0.92059171
v -0.45202708 0.34999478 0.89586103
v -0.46840864 0.32996917 0.88452613
v -0.40334532 0.36998251 0.92149854
v -0.47982949 0.34068230 0.87990975
v -0.48880297 0.34840482 0.87591159
v -0.50851381 0.34999478 0.86494768
v -0.51850152 0.34999478 0.85909474
v -0.52901834 0.33167267 0.85015047
v -0.52901834 0.32996917 0.84990317
v -0.52901834 0.39663285 0.85732239
v -0.52200711 0.38997024 0.86119688
v -0.50999099 0.38997024 0.86828631
v -0.49475589 0.38997024 0.87706572
v -0.48474616 0.38997024 0.88263011
v -0.44437644 0.36998251 0.90220857
v -0.48302642 0.36998251 0.88164091
v -0.46999609 0.36998251 0.88873035
v -0.45436415 0.36998251 0.89705634
v -0.30889210 0.36926326 0.95739925
v -0.30377698 0.36543983 0.95863581
v -0.30377698 0.34999478 0.95690465
v -0.30377698 0.35699806 0.95772898
v -0.47189224 0.34840482 0.88514441
v -0.48135078 0.35400748 0.88073409
v -0.49301413 0.36998251 0.87611771
v -0.51182097 0.36884683 0.86523622
v -0.51971412 0.36142716 0.85983670
v -0.52901834 0.34999478 0.85266477
v -0.52901834 0.38997024 0.85691023
v -0.52092677 0.37475231 0.86053741
v -0.52855533 0.36884683 0.85522026
v -0.52901834 0.36888471 0.85493177
f 1 2 8
f 1 8 15
f 1 15 24
f 1 24 35
f 1 35 52
f 1 52 73
f 1 73 72
f 1 72 100
f 1 100 132
f 1 132 169
f 1 169 168
f 1 168 167
f 1 167 166
f 1 166 165
f 1 165 170
f 1 170 133
f 1 133 102
f 1 102 101
f 1 101 74
f 1 74 53
f 1 53 37
f 1 37 36
f 1 36 25
f 1 25 16
f 1 16 9
f 1 9 3
f 1 3 10
f 1 10 17
f 1 17 28
f 1 28 40
f 1 40 57
f 1 57 80
f 1 80 107
f 1 107 108
f 1 108 139
f 1 139 143
f 1 143 176
f 1 176 205
f 1 205 235
f 1 235 267
f 1 267 266
f 1 266 298
f 1 298 331
f 1 331 366
f 1 366 403
f 1 403 447
f 1 447 446
f 1 446 486
f 1 486 485
f 1 485 505
f 1 505 509
f 1 509 506
f 1 506 487
f 1 487 448
f 1 448 404
f 1 404 368
f 1 368 332
f 1 332 299
f 1 299 269
f 1 269 239
f 1 239 208
f 1 208 181
f 1 181 148
f 1 148 115
f 1 115 86
f 1 86 62
f 1 62 45
f 1 45 44
f 1 44 31
f 1 31 21
f 1 21 20
f 1 20 19
f 1 19 13
f 1 13 11
f 1 11 4
f 1 4 5
f 1 5 6
f 1 6 7
f 1 7 2
f 2 7 6
f 2 6 5
f 2 5 12
f 2 12 18
f 2 18 30
f 2 30 43
f 2 43 61
f 2 61 85
f 2 85 114
f 2 114 147
f 2 147 183
f 2 183 215
f 2 215 249
f 2 249 279
f 2 279 309
f 2 309 344
f 2 344 385
f 2 385 384
f 2 384 425
f 2 425 424
f 2 424 423
f 2 423 465
f 2 465 464
f 2 464 497
f 2 497 499
f 2 499 498
f 2 498 467
f 2 467 466
f 2 466 426
f 2 426 386
f 2 386 359
f 2 359 323
f 2 323 291
f 2 291 257
f 2 257 225
f 2 225 224
f 2 224 223
f 2 223 192
f 2 192 184
f 2 184 149
f 2 149 116
f 2 116 87
f 2 87 64
f 2 64 63
f 2 63 46
f 2 46 32
f 2 32 22
f 2 22 14
f 2 14 8
f 3 9 10
f 4 11 5
f 5 11 13
f 5 13 12
f 8 14 15
f 9 16 17
f 9 17 10
f 12 13 19
f 12 19 20
f 12 20 21
f 12 21 18
f 14 22 23
f 14 23 15
f 15 23 24
f 16 25 26
f 16 26 27
f 16 27 17
f 17 27 29
f 17 29 28
f 18 21 31
f 18 31 30
f 22 32 33
f 22 33 23
f 23 34 35
f 23 35 24
f 23 33 34
f 25 36 26
f 26 36 37
f 26 37 38
f 26 38 39
f 26 39 27
f 27 39 29
f 28 29 41
f 28 41 40
f 29 39 42
f 29 42 41
f 30 31 44
f 30 44 45
f 30 45 43
f 32 46 47
f 32 47 33
f 33 47 48
f 33 48 49
f 33 49 34
f 34 49 50
f 34 50 51
f 34 51 35
f 35 51 52
f 37 53 54
f 37 54 38
f 38 54 55
f 38 55 56
f 38 56 39
f 39 56 42
f 40 41 57
f 41 58 57
f 41 42 59
f 41 59 58
f 42 56 60
f 42 60 59
f 43 45 62
f 43 62 61
f 46 63 47
f 47 63 64
f 47 64 65
f 47 65 48
f 48 66 67
f 48 67 68
f 48 68 49
f 48 65 66
f 49 69 50
f 49 68 69
f 50 70 71
f 50 71 51
f 50 69 70
f 51 71 72
f 51 72 73
f 51 73 52
f 53 74 75
f 53 75 54
f 54 75 76
f 54 76 55
f 55 76 77
f 55 77 78
f 55 78 79
f 55 79 56
f 56 79 60
f 57 58 80
f 58 59 81
f 58 81 80
f 59 60 82
f 59 82 81
f 60 79 83
f 60 83 84
f 60 84 82
f 61 62 86
f 61 86 85
f 64 87 65
f 65 87 88
f 65 88 89
f 65 89 67
f 65 67 66
f 67 89 90
f 67 90 91
f 67 91 92
f 67 92 93
f 67 93 68
f 68 93 69
f 69 93 94
f 69 94 70
f 70 94 95
f 70 95 96
f 70 96 97
f 70 97 98
f 70 98 99
f 70 99 71
f 71 99 100
f 71 100 72
f 74 101 75
f 75 101 102
f 75 102 103
f 75 103 76
f 76 103 77
f 77 103 104
f 77 104 105
f 77 105 106
f 77 106 78
f 78 106 79
f 79 106 83
f 80 81 107
f 81 108 107
f 81 82 109
f 81 109 110
f 81 110 108
f 82 84 111
f 82 111 109
f 83 106 112
f 83 112 113
f 83 113 84
f 84 113 111
f 85 86 114
f 86 115 114
f 87 116 88
f 88 116 117
f 88 117 89
f 89 117 90
f 90 118 119
f 90 119 91
f 90 117 120
f 90 120 121
f 90 121 118
f 91 122 92
f 91 119 122
f 92 122 123
f 92 123 124
f 92 124 93
f 93 124 94
f 94 124 125
f 94 125 95
f 95 125 96
f 96 125 126
f 96 126 127
f 96 127 97
f 97 127 128
f 97 128 129
f 97 129 130
f 97 130 98
f 98 131 99
f 98 130 131
f 99 131 100
f 100 131 132
f 102 133 134
f 102 134 103
f 103 134 104
f 104 134 135
f 104 135 136
f 104 136 105
f 105 136 137
f 105 137 138
f 105 138 106
f 106 138 112
f 108 110 139
f 109 140 110
f 109 111 141
f 109 141 140
f 110 140 142
f 110 142 143
f 110 143 139
f 111 113 144
f 111 144 141
f 112 145 113
f 112 138 146
f 112 146 145
f 113 145 144
f 114 115 148
f 114 148 147
f 116 149 117
f 117 149 150
f 117 150 120
f 118 151 152
f 118 152 153
f 118 153 119
f 118 121 154
f 118 154 155
f 118 155 151
f 119 153 122
f 120 150 156
f 120 156 157
f 120 157 121
f 121 157 154
f 122 153 158
f 122 158 123
f 123 158 159
f 123 159 160
f 123 160 161
f 123 161 124
f 124 161 125
f 125 161 126
f 126 162 127
f 126 161 163
f 126 163 162
f 127 162 164
f 127 164 128
f 128 164 136
f 128 136 135
f 128 135 129
f 129 135 165
f 129 165 130
f 130 165 166
f 130 166 167
f 130 167 168
f 130 168 131
f 131 168 169
f 131 169 132
f 133 170 134
f 134 165 135
f 134 170 165
f 136 164 137
f 137 164 171
f 137 171 172
f 137 172 138
f 138 172 146
f 140 141 173
f 140 173 174
f 140 174 142
f 141 144 175
f 141 175 173
f 142 176 143
f 142 174 177
f 142 177 176
f 144 145 178
f 144 178 175
f 145 146 179
f 145 179 178
f 146 172 180
f 146 180 179
f 147 181 182
f 147 182 183
f 147 148 181
f 149 184 150
f 150 184 156
f 151 155 185
f 151 185 186
f 151 186 187
f 151 187 188
f 151 188 152
f 152 188 189
f 152 189 153
f 153 189 158
f 154 157 190
f 154 190 191
f 154 191 155
f 155 191 185
f 156 192 193
f 156 193 157
f 156 184 192
f 157 193 190
f 158 189 159
f 159 189 188
f 159 188 194
f 159 194 195
f 159 195 196
f 159 196 197
f 159 197 160
f 160 197 163
f 160 163 161
f 162 171 164
f 162 163 198
f 162 198 171
f 163 197 198
f 171 198 199
f 171 199 172
f 172 199 180
f 173 175 200
f 173 200 201
f 173 201 174
f 174 201 202
f 174 202 177
f 175 178 203
f 175 203 204
f 175 204 200
f 176 177 205
f 177 202 205
f 178 179 203
f 179 180 206
f 179 206 203
f 180 199 207
f 180 207 206
f 181 208 209
f 181 209 210
f 181 210 211
f 181 211 182
f 182 212 213
f 182 213 183
f 182 211 212
f 183 213 214
f 183 214 215
f 185 191 216
f 185 216 217
f 185 217 186
f 186 218 187
f 186 217 219
f 186 219 218
f 187 220 221
f 187 221 188
f 187 218 220
f 188 221 194
f 190 193 222
f 190 222 191
f 191 222 216
f 192 223 193
f 193 223 224
f 193 224 225
f 193 225 226
f 193 226 222
f 194 221 195
f 195 227 228
f 195 228 196
f 195 221 229
f 195 229 227
f 196 228 230
f 196 230 197
f 197 230 198
f 198 230 199
f 199 230 207
f 200 204 201
f 201 231 202
f 201 204 232
f 201 232 233
f 201 233 231
f 202 231 234
f 202 234 235
f 202 235 205
f 203 206 236
f 203 236 237
f 203 237 204
f 204 237 232
f 206 207 238
f 206 238 236
f 207 230 228
f 207 228 238
f 208 239 209
f 209 239 240
f 209 240 241
f 209 241 210
f 210 241 211
f 211 241 242
f 211 242 212
f 212 242 243
f 212 243 213
f 213 244 214
f 213 243 245
f 213 245 244
f 214 246 215
f 214 244 245
f 214 245 246
f 215 246 247
f 215 247 248
f 215 248 249
f 216 222 250
f 216 250 251
f 216 251 217
f 217 251 252
f 217 252 219
f 218 219 253
f 218 253 254
f 218 254 220
f 219 252 255
f 219 255 253
f 220 254 256
f 220 256 229
f 220 229 221
f 222 226 250
f 225 257 226
f 226 257 258
f 226 258 250
f 227 229 259
f 227 259 260
f 227 260 238
f 227 238 228
f 229 256 259
f 231 261 234
f 231 233 262
f 231 262 261
f 232 237 263
f 232 263 264
f 232 264 233
f 233 264 262
f 234 261 265
f 234 265 266
f 234 266 267
f 234 267 235
f 236 238 260
f 236 260 268
f 236 268 237
f 237 268 263
f 239 269 270
f 239 270 271
f 239 271 240
f 240 272 241
f 240 271 272
f 241 272 242
f 242 272 273
f 242 273 274
f 242 274 245
f 242 245 243
f 245 274 247
f 245 247 246
f 247 275 276
f 247 276 248
f 247 274 277
f 247 277 275
f 248 278 249
f 248 276 278
f 249 278 279
f 250 258 280
f 250 280 281
f 250 281 282
f 250 282 251
f 251 282 252
f 252 282 283
f 252 283 255
f 253 284 285
f 253 285 254
f 253 255 284
f 254 285 286
f 254 286 256
f 255 283 287
f 255 287 284
f 256 288 289
f 256 289 290
f 256 290 259
f 256 286 288
f 257 291 258
f 258 291 280
f 259 290 260
f 260 290 268
f 261 262 292
f 261 292 293
f 261 293 265
f 262 264 294
f 262 294 292
f 263 268 295
f 263 295 296
f 263 296 264
f 264 296 294
f 265 293 297
f 265 297 298
f 265 298 266
f 268 290 295
f 269 299 300
f 269 300 301
f 269 301 270
f 270 301 302
f 270 302 303
f 270 303 271
f 271 303 272
f 272 303 273
f 273 277 274
f 273 303 302
f 273 302 277
f 275 304 305
f 275 305 278
f 275 278 276
f 275 277 304
f 277 302 306
f 277 306 307
f 277 307 305
f 277 305 304
f 278 305 308
f 278 308 279
f 279 308 309
f 280 291 310
f 280 310 311
f 280 311 281
f 281 311 312
f 281 312 282
f 282 312 313
f 282 313 283
f 283 313 314
f 283 314 287
f 284 315 316
f 284 316 285
f 284 287 317
f 284 317 315
f 285 318 286
f 285 316 318
f 286 318 288
f 287 319 317
f 287 314 319
f 288 318 320
f 288 320 321
f 288 321 322
f 288 322 289
f 289 322 290
f 290 322 295
f 291 323 310
f 292 294 324
f 292 324 325
f 292 325 326
f 292 326 293
f 293 326 327
f 293 327 297
f 294 296 328
f 294 328 324
f 295 329 296
f 295 322 329
f 296 329 328
f 297 330 331
f 297 331 298
f 297 327 330
f 299 332 333
f 299 333 300
f 300 333 334
f 300 334 301
f 301 334 335
f 301 335 336
f 301 336 302
f 302 336 337
f 302 337 306
f 305 307 338
f 305 338 339
f 305 339 308
f 306 337 307
f 307 337 340
f 307 340 338
f 308 339 309
f 309 339 341
f 309 341 342
f 309 342 343
f 309 343 344
f 310 323 345
f 310 345 311
f 311 345 346
f 311 346 312
f 312 346 347
f 312 347 313
f 313 348 349
f 313 349 314
f 313 347 348
f 314 349 319
f 315 350 351
f 315 351 352
f 315 352 316
f 315 317 353
f 315 353 354
f 315 354 350
f 316 352 318
f 317 319 353
f 318 352 320
f 319 355 353
f 319 349 355
f 320 356 357
f 320 357 321
f 320 352 356
f 321 357 358
f 321 358 329
f 321 329 322
f 323 359 345
f 324 328 325
f 325 328 360
f 325 360 361
f 325 361 362
f 325 362 363
f 325 363 364
f 325 364 326
f 326 364 327
f 327 364 365
f 327 365 330
f 328 329 358
f 328 358 360
f 330 366 331
f 330 365 367
f 330 367 366
f 332 368 369
f 332 369 334
f 332 334 333
f 334 369 370
f 334 370 337
f 334 337 335
f 335 337 336
f 337 370 340
f 338 371 372
f 338 372 339
f 338 340 373
f 338 373 371
f 339 374 375
f 339 375 376
f 339 376 341
f 339 372 377
f 339 377 374
f 340 378 379
f 340 379 373
f 340 370 378
f 341 380 381
f 341 381 342
f 341 376 380
f 342 382 343
f 342 381 382
f 343 383 384
f 343 384 385
f 343 385 344
f 343 382 383
f 345 359 386
f 345 386 387
f 345 387 346
f 346 388 347
f 346 387 388
f 347 388 389
f 347 389 348
f 348 389 390
f 348 390 349
f 349 390 391
f 349 391 355
f 350 354 392
f 350 392 393
f 350 393 394
f 350 394 356
f 350 356 351
f 351 356 352
f 353 355 396
f 353 396 395
f 353 395 392
f 353 392 354
f 355 391 396
f 356 397 357
f 356 394 397
f 357 361 358
f 357 397 361
f 358 361 360
f 361 397 398
f 361 398 362
f 362 399 400
f 362 400 363
f 362 398 399
f 363 401 364
f 363 400 401
f 364 401 365
f 365 401 402
f 365 402 367
f 366 367 403
f 367 402 403
f 368 404 369
f 369 404 405
f 369 405 406
f 369 406 407
f 369 407 408
f 369 408 370
f 370 408 409
f 370 409 378
f 371 410 372
f 371 373 410
f 372 411 412
f 372 412 377
f 372 410 411
f 373 379 413
f 373 413 410
f 374 414 415
f 374 415 375
f 374 377 414
f 375 415 376
f 376 415 380
f 377 412 414
f 378 416 379
f 378 409 417
f 378 417 416
f 379 418 413
f 379 416 418
f 380 415 419
f 380 419 420
f 380 420 381
f 381 420 421
f 381 421 382
f 382 421 422
f 382 422 383
f 383 423 424
f 383 424 425
f 383 425 384
f 383 422 423
f 386 426 427
f 386 427 387
f 387 427 428
f 387 428 388
f 388 428 389
f 389 428 429
f 389 429 390
f 390 429 470
f 390 470 430
f 390 430 391
f 391 431 396
f 391 430 431
f 392 432 433
f 392 433 393
f 392 395 434
f 392 434 435
f 392 435 432
f 393 433 436
f 393 436 437
f 393 437 438
f 393 438 394
f 394 438 397
f 395 396 434
f 396 431 439
f 396 439 434
f 397 438 398
f 398 438 440
f 398 440 399
f 399 440 441
f 399 441 400
f 400 441 442
f 400 442 443
f 400 443 444
f 400 444 401
f 401 444 402
f 402 445 446
f 402 446 447
f 402 447 403
f 402 444 445
f 404 448 405
f 405 449 406
f 405 448 449
f 406 449 450
f 406 450 407
f 407 450 451
f 407 451 408
f 408 452 417
f 408 417 409
f 408 451 452
f 410 413 453
f 410 453 454
f 410 454 455
f 410 455 411
f 411 455 412
f 412 455 456
f 412 456 457
f 412 457 414
f 413 418 458
f 413 458 453
f 414 457 419
f 414 419 415
f 416 417 459
f 416 459 460
f 416 460 458
f 416 458 418
f 417 452 459
f 419 457 461
f 419 461 420
f 420 461 462
f 420 462 421
f 421 463 422
f 421 462 463
f 422 464 465
f 422 465 423
f 422 463 464
f 426 466 427
f 427 466 467
f 427 467 468
f 427 468 469
f 427 469 428
f 428 469 429
f 429 469 470
f 430 470 471
f 430 471 431
f 431 472 473
f 431 473 439
f 431 471 472
f 432 435 474
f 432 474 475
f 432 475 476
f 432 476 436
f 432 436 433
f 434 477 435
f 434 439 477
f 435 477 474
f 436 476 478
f 436 478 437
f 437 478 479
f 437 479 440
f 437 440 438
f 439 473 480
f 439 480 477
f 440 479 441
f 441 479 481
f 441 481 442
f 442 481 443
f 443 481 482
f 443 482 483
f 443 483 445
f 443 445 444
f 445 484 485
f 445 485 486
f 445 486 446
f 445 483 484
f 448 487 488
f 448 488 449
f 449 488 450
f 450 488 489
f 450 489 451
f 451 489 490
f 451 490 452
f 452 491 459
f 452 490 491
f 453 458 492
f 453 492 475
f 453 475 454
f 454 474 480
f 454 480 455
f 454 475 474
f 455 473 456
f 455 480 473
f 456 473 461
f 456 461 457
f 458 460 492
f 459 491 493
f 459 493 494
f 459 494 460
f 460 495 492
f 460 494 495
f 461 473 472
f 461 472 471
f 461 471 462
f 462 471 470
f 462 470 469
f 462 469 463
f 463 469 468
f 463 468 496
f 463 496 464
f 464 496 497
f 467 498 468
f 468 498 499
f 468 499 497
f 468 497 496
f 474 477 480
f 475 492 476
f 476 492 495
f 476 495 478
f 478 500 479
f 478 495 500
f 479 500 481
f 481 501 482
f 481 500 501
f 482 502 483
f 482 501 502
f 483 502 503
f 483 503 504
f 483 504 484
f 484 504 505
f 484 505 485
f 487 506 488
f 488 506 507
f 488 507 489
f 489 507 503
f 489 503 490
f 490 503 502
f 490 502 491
f 491 502 493
f 493 501 494
f 493 502 501
f 494 501 500
f 494 500 495
f 503 507 504
f 504 508 505
f 504 507 508
f 505 508 509
f 506 509 508
f 506 508 507
