v 0.41001618 -0.46261054 0.09002355
v 0.41001618 -0.46184313 0.00098473
v 0.42070931 -0.46177340 0.00098473
v 0.42944282 -0.46170360 0.00098473
v 0.42951542 -0.46170360 0.01003952
v 0.42874125 -0.46170360 0.03006068
v 0.42726550 -0.46170360 0.05003154
v 0.41001618 -0.46243614 0.11004470
v 0.37002581 -0.46243614 0.20999959
v 0.35001853 -0.46254078 0.23002075
v 0.31002817 -0.46254078 0.28993329
v 0.29004508 -0.46247101 0.31000477
v 0.39966175 -0.46009904 0.00098473
v 0.28099704 -0.46205243 0.30970293
v 0.43396685 -0.46086645 0.00098473
v 0.43950695 -0.45985490 0.01003952
v 0.43873280 -0.45964560 0.03006068
v 0.42552364 -0.46163386 0.07005270
v 0.42208830 -0.46093622 0.11004470
v 0.40575829 -0.46152920 0.15003672
v 0.39003310 -0.46233147 0.17000757
v 0.42380595 -0.46142456 0.09002355
v 0.38325918 -0.46100599 0.20999959
v 0.36971131 -0.46138966 0.22886375
v 0.35113138 -0.46177340 0.25099769
v 0.33001125 -0.46243614 0.26996246
v 0.39017823 -0.46145946 0.18902265
v 0.30898789 -0.46138966 0.30577919
v 0.28099704 -0.46159899 0.32922107
v 0.29669803 -0.42947286 0.00098473
v 0.28099704 -0.46191290 0.30794227
v 0.28099704 -0.46170360 0.30577919
v 0.43945858 -0.45982000 0.00098473
v 0.44874853 -0.44984382 0.00098473
v 0.44877273 -0.44984382 0.01003952
v 0.44843403 -0.44963452 0.03006068
v 0.44761148 -0.44904155 0.05003154
v 0.43728125 -0.45905262 0.05003154
v 0.42078188 -0.46037811 0.12367721
v 0.40239552 -0.46090132 0.17000757
v 0.38074315 -0.46030834 0.22141869
v 0.40062946 -0.46027344 0.18167821
v 0.36286479 -0.46086645 0.24496116
v 0.34426069 -0.46093622 0.26996246
v 0.32872903 -0.46104085 0.28832355
v 0.30877015 -0.46114552 0.30874717
v 0.28844836 -0.46104085 0.32866770
v 0.28099704 -0.46023858 0.34013712
v 0.29669803 -0.24847139 0.00098473
v 0.28099704 -0.23127469 0.30577919
v 0.52814865 -0.36117437 0.00098473
v 0.52814865 -0.36120927 0.01003952
v 0.52814865 -0.36103484 0.02447690
v 0.52814865 -0.36096507 0.03006068
v 0.52814865 -0.36040699 0.05003154
v 0.52814865 -0.35953492 0.07005270
v 0.52814865 -0.35838383 0.09002355
v 0.52814865 -0.35688391 0.11029623
v 0.44630510 -0.44796020 0.07005270
v 0.52814865 -0.35534912 0.12780216
v 0.52814865 -0.35304692 0.15003672
v 0.52814865 -0.35067496 0.17000757
v 0.43551517 -0.45793641 0.07005270
v 0.41841102 -0.45950606 0.13700788
v 0.43379751 -0.45622718 0.09002355
v 0.43207982 -0.45361105 0.11004470
v 0.37619492 -0.45825034 0.23474936
v 0.35855851 -0.45957583 0.25824153
v 0.39692798 -0.45873868 0.19505918
v 0.52814865 -0.29946855 0.39859086
v 0.52814865 -0.29524785 0.41031176
v 0.41572565 -0.45797127 0.15003672
v 0.52814865 -0.31495604 0.34894037
v 0.52814865 -0.30874708 0.37001795
v 0.34048665 -0.46016884 0.28057668
v 0.32118094 -0.46037811 0.30125180
v 0.31368124 -0.46086645 0.30577919
v 0.30127043 -0.46037811 0.32112205
v 0.28099704 -0.46013394 0.34043893
v 0.52814865 -0.18585864 0.00098473
v 0.28099704 -0.15160474 0.51489466
v 0.37484014 -0.10629334 0.51489466
v 0.44458741 -0.44621611 0.09002355
v 0.52814865 -0.34826812 0.18796626
v 0.52814865 -0.34798908 0.18987782
v 0.52814865 -0.34540781 0.20748436
v 0.52814865 -0.34495437 0.21050262
v 0.52814865 -0.34202430 0.22826008
v 0.52814865 -0.32974592 0.29003391
v 0.52814865 -0.32503688 0.31010538
v 0.52814865 -0.32301372 0.31835529
v 0.52814865 -0.32106036 0.32630339
v 0.52814865 -0.31875816 0.33510667
v 0.52814865 -0.33804777 0.25019282
v 0.52814865 -0.33759430 0.25255713
v 0.52814865 -0.33407125 0.26996246
v 0.52814865 -0.28855056 0.42771709
v 0.52814865 -0.28439963 0.43843195
v 0.52814865 -0.28192300 0.44446850
v 0.52814865 -0.27787673 0.45387542
v 0.52814865 -0.30229396 0.39039123
v 0.51977801 -0.27993476 0.45976102
v 0.51525402 -0.27752790 0.46997282
v 0.50054491 -0.28031844 0.48058707
v 0.31460056 -0.45720387 0.31458247
v 0.47233632 -0.27738839 0.51489466
v 0.46420759 -0.28136489 0.51489466
v 0.45489347 -0.28551584 0.51489466
v 0.44998235 -0.28764361 0.51489466
v 0.43653128 -0.29329446 0.51489466
v 0.43154758 -0.29538736 0.51489466
v 0.42436239 -0.29831743 0.51489466
v 0.41456440 -0.30194515 0.51489466
v 0.40887913 -0.30396828 0.51489466
v 0.39530706 -0.30857268 0.51489466
v 0.38991213 -0.31038654 0.51489466
v 0.37154993 -0.31624666 0.51489466
v 0.36395347 -0.31858373 0.51489466
v 0.35427642 -0.32137430 0.51489466
v 0.34827667 -0.32301372 0.51489466
v 0.33545458 -0.32639727 0.51489466
v 0.32957578 -0.32789716 0.51489466
v 0.30901206 -0.33285040 0.51489466
v 0.29156920 -0.33675715 0.51489466
v 0.28547266 -0.33804777 0.51489466
v 0.28099704 -0.33895469 0.51489466
v 0.52814865 -0.10629334 0.35407144
v 0.52814865 -0.10629334 0.51489466
v 0.52814865 -0.34003603 0.23947798
v 0.52814865 -0.27124920 0.46806127
v 0.52814865 -0.26978415 0.47112983
v 0.52814865 -0.26528442 0.48033553
v 0.52442300 -0.26263338 0.48994368
v 0.50831074 -0.27233052 0.48833394
v 0.49410966 -0.27703956 0.49391770
v 0.48077953 -0.28042310 0.50075912
v 0.47373950 -0.27669075 0.51489466
v 0.52814865 -0.24648315 0.51489466
v 0.52814865 -0.26186600 0.48722723
v 0.51999575 -0.26005214 0.50000453
v 0.50806880 -0.26228458 0.50800300
v 0.48844859 -0.27247006 0.50845569
v 0.47502169 -0.27602798 0.51489466
v 0.51496369 -0.25443619 0.51489466
v 0.51346374 -0.25625002 0.51333523
v 0.52814865 -0.25045967 0.50805330
v 0.52814865 -0.25813365 0.49437046
v 0.51048803 -0.25708720 0.51489466
v 0.50359315 -0.26106372 0.51489466
v 0.49485964 -0.26570299 0.51489466
v 0.48905340 -0.26873770 0.51489466
v 0.51305246 -0.25558728 0.51489466
f 1 2 3
f 1 3 4
f 1 4 5
f 1 5 6
f 1 6 7
f 1 7 8
f 1 8 9
f 1 9 10
f 1 10 11
f 1 11 12
f 1 12 2
f 2 13 30
f 2 30 49
f 2 49 80
f 2 80 51
f 2 51 34
f 2 34 33
f 2 33 15
f 2 15 4
f 2 4 3
f 2 12 14
f 2 14 13
f 4 15 16
f 4 16 5
f 5 16 6
f 6 16 7
f 7 16 17
f 7 17 18
f 7 18 8
f 8 19 20
f 8 20 21
f 8 21 9
f 8 18 22
f 8 22 19
f 9 23 24
f 9 24 25
f 9 25 26
f 9 26 10
f 9 21 27
f 9 27 23
f 10 26 11
f 11 26 28
f 11 28 12
f 12 29 14
f 12 28 29
f 13 14 31
f 13 31 32
f 13 32 30
f 14 29 48
f 14 48 79
f 14 79 126
f 14 126 81
f 14 81 50
f 14 50 32
f 14 32 31
f 15 33 16
f 16 33 34
f 16 34 35
f 16 35 36
f 16 36 17
f 17 36 37
f 17 37 38
f 17 38 19
f 17 19 22
f 17 22 18
f 19 39 20
f 19 38 39
f 20 39 40
f 20 40 27
f 20 27 21
f 23 41 24
f 23 27 40
f 23 40 42
f 23 42 41
f 24 41 43
f 24 43 25
f 25 44 26
f 25 43 44
f 26 44 45
f 26 45 28
f 28 45 46
f 28 46 29
f 29 46 47
f 29 47 48
f 30 32 50
f 30 50 49
f 34 51 52
f 34 52 35
f 35 53 54
f 35 54 55
f 35 55 36
f 35 52 53
f 36 55 56
f 36 56 57
f 36 57 58
f 36 58 37
f 37 59 38
f 37 58 60
f 37 60 61
f 37 61 62
f 37 62 59
f 38 59 63
f 38 63 39
f 39 64 42
f 39 42 40
f 39 63 65
f 39 65 66
f 39 66 64
f 41 67 68
f 41 68 43
f 41 42 69
f 41 69 70
f 41 70 71
f 41 71 67
f 42 64 72
f 42 72 73
f 42 73 74
f 42 74 69
f 43 68 75
f 43 75 44
f 44 75 45
f 45 75 76
f 45 76 77
f 45 77 46
f 46 78 47
f 46 77 78
f 47 78 48
f 48 78 79
f 49 50 81
f 49 81 82
f 49 82 80
f 51 80 127
f 51 127 128
f 51 128 138
f 51 138 146
f 51 146 147
f 51 147 139
f 51 139 132
f 51 132 131
f 51 131 130
f 51 130 100
f 51 100 99
f 51 99 98
f 51 98 97
f 51 97 71
f 51 71 70
f 51 70 101
f 51 101 74
f 51 74 73
f 51 73 93
f 51 93 92
f 51 92 91
f 51 91 90
f 51 90 89
f 51 89 96
f 51 96 95
f 51 95 94
f 51 94 129
f 51 129 88
f 51 88 87
f 51 87 86
f 51 86 85
f 51 85 84
f 51 84 62
f 51 62 61
f 51 61 60
f 51 60 58
f 51 58 57
f 51 57 56
f 51 56 55
f 51 55 54
f 51 54 53
f 51 53 52
f 59 83 65
f 59 65 63
f 59 62 84
f 59 84 85
f 59 85 86
f 59 86 87
f 59 87 88
f 59 88 83
f 64 66 89
f 64 89 90
f 64 90 91
f 64 91 92
f 64 92 93
f 64 93 73
f 64 73 72
f 65 83 94
f 65 94 95
f 65 95 96
f 65 96 66
f 66 96 89
f 67 71 97
f 67 97 98
f 67 98 68
f 68 98 99
f 68 99 100
f 68 100 75
f 69 74 101
f 69 101 70
f 75 100 102
f 75 102 103
f 75 103 104
f 75 104 76
f 76 104 105
f 76 105 78
f 76 78 77
f 78 105 106
f 78 106 107
f 78 107 79
f 79 107 108
f 79 108 109
f 79 109 110
f 79 110 111
f 79 111 112
f 79 112 113
f 79 113 114
f 79 114 115
f 79 115 116
f 79 116 117
f 79 117 118
f 79 118 119
f 79 119 120
f 79 120 121
f 79 121 122
f 79 122 123
f 79 123 124
f 79 124 125
f 79 125 126
f 80 82 127
f 81 126 125
f 81 125 124
f 81 124 123
f 81 123 122
f 81 122 121
f 81 121 120
f 81 120 119
f 81 119 118
f 81 118 117
f 81 117 116
f 81 116 115
f 81 115 114
f 81 114 113
f 81 113 112
f 81 112 111
f 81 111 110
f 81 110 109
f 81 109 108
f 81 108 107
f 81 107 106
f 81 106 137
f 81 137 143
f 81 143 151
f 81 151 150
f 81 150 149
f 81 149 148
f 81 148 152
f 81 152 144
f 81 144 138
f 81 138 128
f 81 128 82
f 82 128 127
f 83 88 129
f 83 129 94
f 100 130 102
f 102 130 131
f 102 131 103
f 103 131 132
f 103 132 133
f 103 133 134
f 103 134 104
f 104 134 135
f 104 135 105
f 105 135 136
f 105 136 106
f 106 136 137
f 132 139 133
f 133 140 134
f 133 139 140
f 134 140 135
f 135 140 141
f 135 141 142
f 135 142 136
f 136 142 137
f 137 142 143
f 138 144 145
f 138 145 146
f 139 147 140
f 140 147 146
f 140 146 145
f 140 145 148
f 140 148 149
f 140 149 141
f 141 149 150
f 141 150 142
f 142 150 151
f 142 151 143
f 144 152 145
f 145 152 148
