v -0.00131449 -0.46072018 -0.43273270
v -0.01002900 -0.46067774 -0.43273270
v -0.00131449 -0.45940477 -0.43809667
v -0.00131449 -0.22801709 -0.43273270
v -0.03001112 -0.46033829 -0.43273270
v -0.01002900 -0.45936233 -0.43805081
v -0.01002900 -0.27876708 -0.69822669
v -0.00131449 -0.27876708 -0.69827253
v -0.34907800 -0.02722366 -0.60410488
v -0.34907800 -0.17383002 -0.43273270
v -0.00131449 -0.02722366 -0.69602603
v -0.05002725 -0.45953208 -0.43273270
v -0.03001112 -0.45906532 -0.43736315
v -0.03001112 -0.27855492 -0.69790572
v -0.01002900 -0.27002585 -0.70996320
v -0.00131449 -0.27006829 -0.70996320
v -0.34907800 -0.02722366 -0.82925439
v -0.34907800 -0.35022441 -0.43273270
v -0.00131449 -0.02722366 -0.90109503
v -0.07000937 -0.45800447 -0.43273270
v -0.05002725 -0.45834392 -0.43617114
v -0.07000937 -0.27749407 -0.69648451
v -0.05002725 -0.27813056 -0.69730973
v -0.05002725 -0.26871043 -0.70996320
v -0.03001112 -0.26955909 -0.70996320
v -0.03001112 -0.26098761 -0.72124135
v -0.01002900 -0.26124221 -0.72151643
v -0.00131449 -0.26510361 -0.71651918
v -0.33226171 -0.02722366 -0.83645225
v -0.34907800 -0.03104265 -0.82728302
v -0.34907800 -0.34492028 -0.44955817
v -0.12539417 -0.44667482 -0.43273270
v -0.00131449 -0.02913316 -0.90017813
v -0.01002900 -0.02722366 -0.90104920
v -0.09002551 -0.45541605 -0.43273270
v -0.07000937 -0.45711339 -0.43470407
v -0.11000761 -0.28258604 -0.68383104
v -0.09002551 -0.28360444 -0.68529809
v -0.09002551 -0.27668786 -0.69529253
v -0.09002551 -0.26667362 -0.70872539
v -0.06963491 -0.26612201 -0.71175122
v -0.06269053 -0.26018137 -0.72023273
v -0.05002725 -0.26056325 -0.72069120
v -0.03001112 -0.25245854 -0.73123574
v -0.01002900 -0.25275558 -0.73151082
v -0.00131449 -0.26124221 -0.72156227
v -0.32797253 -0.02722366 -0.83819437
v -0.33059371 -0.03002425 -0.83567286
v -0.34907800 -0.03511623 -0.82512832
v -0.34907800 -0.34305322 -0.45528889
v -0.11000761 -0.45087570 -0.43273270
v -0.34907800 -0.34076184 -0.46230334
v -0.34907800 -0.33766422 -0.47124332
v -0.34907800 -0.33083248 -0.48999429
v -0.34907800 -0.32315210 -0.51002896
v -0.34907800 -0.31958771 -0.51901478
v -0.34907800 -0.31542927 -0.52873415
v -0.34907800 -0.30533019 -0.55092359
v -0.34907800 -0.30409962 -0.55353677
v -0.34907800 -0.30049282 -0.56105554
v -0.34907800 -0.29607978 -0.56944537
v -0.34907800 -0.29574031 -0.57008719
v -0.32998097 -0.29837117 -0.57696408
v -0.32998097 -0.29115754 -0.59003019
v -0.32998097 -0.28275579 -0.60465503
v -0.31003290 -0.28542906 -0.61098182
v -0.30336085 -0.28105846 -0.62175560
v -0.28998271 -0.28309524 -0.62505651
v -0.26972827 -0.28521690 -0.63097066
v -0.26288602 -0.28080386 -0.64128596
v -0.00131449 -0.03477676 -0.89742738
v -0.01002900 -0.03473432 -0.89738154
v -0.03001112 -0.03426756 -0.89715230
v -0.03001112 -0.02722366 -0.90054488
v -0.09458701 -0.45448253 -0.43273270
v -0.09002551 -0.45516145 -0.43314531
v -0.14302744 -0.28046438 -0.68066764
v -0.13002375 -0.28135550 -0.68199718
v -0.11000761 -0.27558458 -0.69382542
v -0.11000761 -0.26557037 -0.70725834
v -0.09002551 -0.25899324 -0.71871978
v -0.07603463 -0.25967216 -0.71959090
v -0.06963491 -0.25284046 -0.72811824
v -0.07000937 -0.24134108 -0.74141353
v -0.05002725 -0.24206243 -0.74223876
v -0.05002725 -0.25199178 -0.73068559
v -0.03001112 -0.24252920 -0.74274307
v -0.01002900 -0.24278380 -0.74306399
v -0.00131449 -0.24282624 -0.74306399
v -0.00131449 -0.25275558 -0.73155665
v -0.32174301 -0.02722366 -0.84071589
v -0.31541139 -0.03668624 -0.83824021
v -0.32957247 -0.05030727 -0.82489908
v -0.34489095 -0.04385744 -0.82214832
v -0.34907800 -0.04220255 -0.82123137
v -0.24998446 -0.28250119 -0.64394504
v -0.22996831 -0.28491986 -0.64784193
v -0.21934751 -0.27982789 -0.65980774
v -0.34907800 -0.28458041 -0.59030527
v -0.34206551 -0.28071898 -0.60126245
v -0.32998097 -0.27660298 -0.61464947
v -0.31670493 -0.27889436 -0.61827129
v -0.31003290 -0.27409944 -0.62909096
v -0.28998271 -0.27677271 -0.63505089
v -0.27619606 -0.27889436 -0.63830596
v -0.26972827 -0.27371752 -0.64880472
v -0.24998446 -0.27592406 -0.65393949
v -0.00131449 -0.05001023 -0.88963354
v -0.01002900 -0.05001023 -0.88958770
v -0.05002725 -0.03341889 -0.89673966
v -0.05002725 -0.02722366 -0.89976549
v -0.03001112 -0.05001023 -0.88908339
v -0.05002725 -0.05001023 -0.88830400
v -0.20600341 -0.28131306 -0.66200835
v -0.18997006 -0.28292552 -0.66448402
v -0.17002201 -0.27817300 -0.67727506
v -0.15637153 -0.27936113 -0.67906302
v -0.14983565 -0.27371752 -0.68841565
v -0.13002375 -0.27422673 -0.69199163
v -0.13002375 -0.26421252 -0.70542449
v -0.11000761 -0.25776267 -0.71725273
v -0.11000761 -0.24779090 -0.72898930
v -0.09884214 -0.23989835 -0.73985481
v -0.08549804 -0.24061972 -0.74063420
v -0.07000937 -0.23204823 -0.75145382
v -0.05002725 -0.23276959 -0.75223321
v -0.03001112 -0.23327878 -0.75273752
v -0.01002900 -0.23353338 -0.75305843
v -0.00131449 -0.23357582 -0.75305843
v -0.31554753 -0.02722366 -0.84309989
v -0.30924994 -0.03002425 -0.84406269
v -0.30206728 -0.04143876 -0.84076178
v -0.30924994 -0.04886454 -0.83379316
v -0.32262808 -0.06180665 -0.82104802
v -0.33597219 -0.05718143 -0.81829727
v -0.34907800 -0.04831292 -0.81770122
v -0.22996831 -0.27851248 -0.65783638
v -0.22996831 -0.26998341 -0.66998553
v -0.21158615 -0.27507538 -0.66916031
v -0.34907800 -0.27944601 -0.59910768
v -0.34907800 -0.27333564 -0.60882705
v -0.34907800 -0.26353359 -0.62386453
v -0.32987884 -0.26599470 -0.63087893
v -0.32310468 -0.26111490 -0.64165276
v -0.30999887 -0.26344872 -0.64495367
v -0.28977847 -0.26599470 -0.65100533
v -0.28293622 -0.26094517 -0.66136652
v -0.26996657 -0.26298195 -0.66416311
v -0.24814624 -0.26476416 -0.67048985
v -0.00131449 -0.05616304 -0.88637847
v -0.01002900 -0.06401317 -0.88216066
v -0.03001112 -0.06354640 -0.88193142
v -0.07000937 -0.03214590 -0.89614367
v -0.07000937 -0.05001023 -0.88706619
v -0.07000937 -0.02722366 -0.89852768
v -0.05002725 -0.06282504 -0.88151884
v -0.18997006 -0.27617866 -0.67443258
v -0.18997006 -0.26620686 -0.68823224
v -0.17151982 -0.26722527 -0.69185406
v -0.15000586 -0.26260006 -0.70331556
v -0.13002375 -0.25627753 -0.71541888
v -0.13002375 -0.24630575 -0.72724718
v -0.11000761 -0.23913455 -0.73898375
v -0.10912254 -0.22746545 -0.75154549
v -0.10187180 -0.22029427 -0.76025623
v -0.09002551 -0.22101562 -0.76098979
v -0.09131907 -0.23272716 -0.74838215
v -0.07000937 -0.22203402 -0.76199841
v -0.05002725 -0.22279781 -0.76277781
v -0.03001112 -0.22326458 -0.76328206
v -0.01002900 -0.22356161 -0.76355714
v -0.00131449 -0.22793221 -0.75901842
v -0.30924994 -0.02722366 -0.84543806
v -0.28998271 -0.02722366 -0.85245246
v -0.28998271 -0.05522951 -0.83727747
v -0.28998271 -0.03002425 -0.85098541
v -0.28998271 -0.04525773 -0.84287065
v -0.30999887 -0.06596509 -0.82356954
v -0.30999887 -0.07593687 -0.81747198
v -0.32957247 -0.06910513 -0.81371266
v -0.34192938 -0.08136830 -0.80087578
v -0.34907800 -0.07012352 -0.80463517
v -0.34907800 -0.05119836 -0.81600493
v -0.24024871 -0.26005408 -0.68007165
v -0.22996831 -0.26141194 -0.68185967
v -0.20998621 -0.26395792 -0.68520641
v -0.34907800 -0.26302439 -0.62459803
v -0.33644876 -0.25865379 -0.63812262
v -0.32987884 -0.25309503 -0.64898807
v -0.30999887 -0.25623509 -0.65494806
v -0.29628029 -0.25873864 -0.65829480
v -0.28977847 -0.25288287 -0.66879356
v -0.26996657 -0.25547129 -0.67411166
v -0.25359282 -0.25805971 -0.67750430
v -0.00131449 -0.06405559 -0.88216066
v -0.01002900 -0.07402737 -0.87665915
v -0.03001112 -0.07356061 -0.87638408
v -0.09063824 -0.02858153 -0.89605200
v -0.08958297 -0.02722366 -0.89683139
v -0.07630696 -0.02722366 -0.89802337
v -0.09005955 -0.05166513 -0.88440710
v -0.07000937 -0.06167935 -0.88087696
v -0.08342154 -0.06066094 -0.88032681
v -0.05002725 -0.07279681 -0.87597144
v -0.18997006 -0.25861135 -0.69822669
v -0.17914501 -0.25979948 -0.69973958
v -0.16583495 -0.26111490 -0.70143586
v -0.15000586 -0.25453776 -0.71331000
v -0.15000586 -0.24452356 -0.72522992
v -0.13002375 -0.23756453 -0.73724157
v -0.13002375 -0.22755033 -0.74796951
v -0.11518185 -0.21927586 -0.75924766
v -0.10912254 -0.21159548 -0.76749992
v -0.09972721 -0.19996881 -0.77992415
v -0.09182968 -0.20849785 -0.77277219
v -0.08638311 -0.20081747 -0.78070354
v -0.07000937 -0.21172278 -0.77199280
v -0.05002725 -0.21252900 -0.77277219
v -0.03001112 -0.21303821 -0.77327651
v -0.01002900 -0.21333523 -0.77355158
v -0.00131449 -0.21779071 -0.76924205
v -0.00131449 -0.22356161 -0.76355714
v -0.27415362 -0.02722366 -0.85781646
v -0.27177075 -0.03044859 -0.85694540
v -0.27810237 -0.05892119 -0.83934051
v -0.29141244 -0.07169355 -0.82700795
v -0.29900360 -0.07945880 -0.81962675
v -0.27085164 -0.05136810 -0.84598821
v -0.31095201 -0.09142494 -0.80715668
v -0.32998097 -0.08527215 -0.80339730
v -0.32998097 -0.09528635 -0.79684132
v -0.34907800 -0.08875166 -0.79276103
v -0.34907800 -0.07882231 -0.79922533
v -0.24896324 -0.24970040 -0.68960762
v -0.24436769 -0.24138351 -0.70157343
v -0.22996831 -0.25343451 -0.69185406
v -0.20998621 -0.25615022 -0.69520080
v -0.34907800 -0.25636238 -0.63413399
v -0.34907800 -0.25606537 -0.63454664
v -0.34907800 -0.24948823 -0.64344072
v -0.34839717 -0.24490546 -0.64999670
v -0.34066987 -0.24032268 -0.66040373
v -0.32998097 -0.24244434 -0.66310865
v -0.30829680 -0.24511762 -0.67021477
v -0.30050141 -0.24023782 -0.68020922
v -0.28998271 -0.24210487 -0.68245566
v -0.26996657 -0.24545708 -0.68667346
v -0.25771177 -0.23930429 -0.69914359
v -0.00131449 -0.07406981 -0.87665915
v -0.00131449 -0.09002465 -0.86744410
v -0.01002900 -0.09002465 -0.86739826
v -0.03001112 -0.09002465 -0.86684811
v -0.11000761 -0.04788859 -0.88413203
v -0.11000761 -0.03002425 -0.89316368
v -0.09169352 -0.02722366 -0.89660215
v -0.09676564 -0.05938795 -0.87963915
v -0.07000937 -0.07165112 -0.87532961
v -0.09005955 -0.06838377 -0.87532961
v -0.05026554 -0.09184927 -0.86487675
v -0.07000937 -0.08896382 -0.86528933
v -0.20998621 -0.24617845 -0.70735002
v -0.19745910 -0.23938915 -0.71926993
v -0.19048068 -0.24745144 -0.71156782
v -0.18411501 -0.24100161 -0.72110379
v -0.17151982 -0.25390127 -0.70886290
v -0.17002201 -0.24257164 -0.72289181
v -0.15000586 -0.23569748 -0.73522437
v -0.15000586 -0.22568327 -0.74595231
v -0.13002375 -0.21800287 -0.75796396
v -0.13002375 -0.20798866 -0.76754576
v -0.11000761 -0.19916257 -0.77919066
v -0.11000761 -0.18914837 -0.78790134
v -0.09002551 -0.17909172 -0.79922533
v -0.09182968 -0.19199139 -0.78780967
v -0.07000937 -0.20170856 -0.78152877
v -0.07872388 -0.17989795 -0.79986715
v -0.05002725 -0.20251480 -0.78226233
v -0.03001112 -0.20302399 -0.78276658
v -0.01002900 -0.20336345 -0.78304172
v -0.00131449 -0.21337767 -0.77355158
v -0.00131449 -0.20773406 -0.77896142
v -0.26904744 -0.02722366 -0.85951275
v -0.25539699 -0.03736518 -0.85859585
v -0.27085164 -0.06965676 -0.83544362
v -0.26475829 -0.06278260 -0.84158695
v -0.28569353 -0.08323535 -0.82201076
v -0.29141244 -0.08993979 -0.81559229
v -0.30496079 -0.10292432 -0.80193019
v -0.24923556 -0.04869482 -0.85428631
v -0.31830487 -0.09897803 -0.79931700
v -0.32984477 -0.11073200 -0.78625089
v -0.33641469 -0.11790320 -0.77845711
v -0.34907800 -0.10453677 -0.78217059
v -0.34907800 -0.10385785 -0.78262907
v -0.22996831 -0.24346273 -0.70404911
v -0.24654631 -0.22220375 -0.72229576
v -0.22996831 -0.23480637 -0.71404350
v -0.34907800 -0.24460843 -0.64999670
v -0.34907800 -0.23845562 -0.65806562
v -0.34853333 -0.22941738 -0.66920614
v -0.34305274 -0.22143996 -0.68158460
v -0.32998097 -0.23425475 -0.67305720
v -0.31381145 -0.23760696 -0.67704582
v -0.30826277 -0.22937495 -0.68919498
v -0.30268002 -0.22114292 -0.70120662
v -0.28998271 -0.23353338 -0.69249594
v -0.26996657 -0.23714019 -0.69666791
v -0.26996657 -0.22716843 -0.70790017
v -0.25985637 -0.21999723 -0.71991181
v -0.00131449 -0.10126942 -0.86075056
v -0.01002900 -0.10122699 -0.86070478
v -0.03001112 -0.10080266 -0.86047554
v -0.04372966 -0.10033590 -0.86020041
v -0.13002375 -0.04525773 -0.88271081
v -0.13002375 -0.03002425 -0.89041293
v -0.11000761 -0.05786036 -0.87881392
v -0.13002375 -0.05522951 -0.87743855
v -0.11371808 -0.02722366 -0.89398891
v -0.11000761 -0.02722366 -0.89449322
v -0.11000761 -0.07003866 -0.87207454
v -0.09002551 -0.08743623 -0.86441827
v -0.11000761 -0.08548431 -0.86322629
v -0.05707376 -0.09974183 -0.85983366
v -0.07000937 -0.09897803 -0.85932934
v -0.20998621 -0.23773426 -0.71734440
v -0.20998621 -0.22772005 -0.72830158
v -0.19960369 -0.21991237 -0.73985481
v -0.19184232 -0.23052064 -0.73050225
v -0.17002201 -0.23353338 -0.73288620
v -0.17002201 -0.22351918 -0.74366003
v -0.15000586 -0.21596609 -0.75594676
v -0.15000586 -0.20595187 -0.76562023
v -0.13002375 -0.19733796 -0.77758604
v -0.13002375 -0.18736617 -0.78634262
v -0.11000761 -0.17752171 -0.79789579
v -0.11000761 -0.16754992 -0.80605638
v -0.09002551 -0.16911995 -0.80734003
v -0.06537978 -0.18057689 -0.80046314
v -0.05002725 -0.19122759 -0.79225671
v -0.09002551 -0.15668705 -0.81733447
v -0.07000937 -0.15796004 -0.81838894
v -0.03001112 -0.19182165 -0.79276103
v -0.00131449 -0.20336345 -0.78308755
v -0.01002900 -0.19216111 -0.79303610
v -0.00131449 -0.19220355 -0.79308194
v -0.26370302 -0.02722366 -0.86120903
v -0.25774583 -0.02722366 -0.86304289
v -0.24923556 -0.03044859 -0.86400568
v -0.24205288 -0.04118416 -0.86061305
v -0.26809430 -0.08993979 -0.82384461
v -0.24998446 -0.07674310 -0.83805686
v -0.24998446 -0.06672888 -0.84387928
v -0.27350682 -0.09655935 -0.81770122
v -0.28998271 -0.10695545 -0.80472684
v -0.28998271 -0.11696967 -0.79784995
v -0.31095201 -0.10975604 -0.79477823
v -0.22996831 -0.05421112 -0.85676199
v -0.32310468 -0.12180704 -0.78129953
v -0.34907800 -0.12163731 -0.76988387
v -0.34907800 -0.11382961 -0.77561462
v -0.34026134 -0.14018057 -0.76011872
v -0.34907800 -0.13076043 -0.76314455
v -0.34815890 -0.12965716 -0.76438236
v -0.34907800 -0.12927526 -0.76424485
v -0.25192481 -0.21350497 -0.72940189
v -0.22996831 -0.21532959 -0.73513263
v -0.22996831 -0.22483461 -0.72513825
v -0.34907800 -0.22865358 -0.66980219
v -0.34907800 -0.22003967 -0.67997998
v -0.34907800 -0.21197738 -0.68873656
v -0.34400588 -0.20200559 -0.70203185
v -0.32998097 -0.21524473 -0.69483405
v -0.32998097 -0.22428298 -0.68483967
v -0.31602412 -0.21834233 -0.69813496
v -0.30972654 -0.20994058 -0.70987153
v -0.30339488 -0.20149639 -0.72147053
v -0.28998271 -0.21422634 -0.71386015
v -0.28998271 -0.22351918 -0.70386571
v -0.26996657 -0.21808773 -0.71789455
v -0.28998271 -0.20421211 -0.72426718
v -0.26812834 -0.20650351 -0.73050225
v -0.26019678 -0.20009610 -0.74008405
v -0.00131449 -0.10559760 -0.85799980
v -0.01002900 -0.11119877 -0.85437799
v -0.03001112 -0.11077444 -0.85410291
v -0.05026554 -0.10822845 -0.85479063
v -0.15000586 -0.04207525 -0.88106036
v -0.15000586 -0.03002425 -0.88711202
v -0.15024415 -0.02722366 -0.88844156
v -0.13295129 -0.02722366 -0.89128399
v -0.13002375 -0.02722366 -0.89174247
v -0.13002375 -0.07003866 -0.86923212
v -0.15031223 -0.07148139 -0.86501426
v -0.15000586 -0.05208947 -0.87574220
v -0.13002375 -0.08310805 -0.86180508
v -0.09002551 -0.09745045 -0.85841244
v -0.11000761 -0.09549852 -0.85722047
v -0.07000937 -0.11001064 -0.85226905
v -0.09002551 -0.11001064 -0.85038942
v -0.20998621 -0.21838477 -0.73829603
v -0.20998621 -0.20841299 -0.74824458
v -0.19926327 -0.19984150 -0.75979781
v -0.19276144 -0.21078925 -0.75072026
v -0.18625960 -0.22160968 -0.74164277
v -0.17002201 -0.21363227 -0.75365442
v -0.17002201 -0.20361805 -0.76341963
v -0.15000586 -0.19517386 -0.77561462
v -0.15000586 -0.18520209 -0.78446293
v -0.13002375 -0.17561221 -0.79633701
v -0.13002375 -0.16559801 -0.80449760
v -0.11000761 -0.15498972 -0.81605077
v -0.05002725 -0.15893599 -0.81912243
v -0.05002725 -0.17001104 -0.81013668
v -0.05002725 -0.18121338 -0.80101329
v -0.11000761 -0.14501795 -0.82375288
v -0.09002551 -0.14667284 -0.82503659
v -0.07000937 -0.14798826 -0.82599938
v -0.03001112 -0.18180744 -0.80151761
v -0.01002900 -0.18214691 -0.80179268
v -0.00131449 -0.18218935 -0.80183852
v -0.24923556 -0.02722366 -0.86561024
v -0.22996831 -0.03002425 -0.86964470
v -0.22996831 -0.04419690 -0.86221766
v -0.26019678 -0.10012373 -0.82003939
v -0.23905727 -0.07958610 -0.83970731
v -0.24998446 -0.09002465 -0.82971287
v -0.23143208 -0.07177842 -0.84635496
v -0.27936190 -0.11972782 -0.79977548
v -0.29045928 -0.13126962 -0.78716785
v -0.29743770 -0.13878028 -0.77900726
v -0.30999887 -0.12541386 -0.78395861
v -0.21509238 -0.05781794 -0.85873336
v -0.30999887 -0.13542807 -0.77648574
v -0.34907800 -0.13750729 -0.75800979
v -0.32998097 -0.14293873 -0.76231933
v -0.31418592 -0.15706894 -0.75755131
v -0.32998097 -0.15295294 -0.75406706
v -0.34261018 -0.16148198 -0.74123019
v -0.34907800 -0.15965736 -0.73967141
v -0.34907800 -0.14870963 -0.74879473
v -0.24998446 -0.20192073 -0.74182618
v -0.22996831 -0.20531538 -0.74517292
v -0.34907800 -0.20073260 -0.70074821
v -0.34907800 -0.19313708 -0.70835865
v -0.34390375 -0.18206204 -0.72192901
v -0.32998097 -0.19547090 -0.71541888
v -0.32998097 -0.20527294 -0.70542449
v -0.31673896 -0.19856852 -0.71849060
v -0.30979460 -0.18995459 -0.72990620
v -0.30285025 -0.18134068 -0.74118435
v -0.28998271 -0.19407061 -0.73426157
v -0.27354088 -0.19746526 -0.73747081
v -0.28998271 -0.18409882 -0.74375170
v -0.26812834 -0.19046380 -0.74608982
v -0.25886917 -0.17960092 -0.75961441
v -0.25131208 -0.18927567 -0.75324184
v -0.00131449 -0.11124121 -0.85437799
v -0.00131449 -0.11786076 -0.85006845
v -0.00131449 -0.12651712 -0.84438360
v -0.01002900 -0.12647468 -0.84433770
v -0.03001112 -0.12605035 -0.84410852
v -0.05002725 -0.12537143 -0.84360421
v -0.07000937 -0.12435303 -0.84291649
v -0.16062666 -0.04025063 -0.88009757
v -0.16838804 -0.03057589 -0.88339853
v -0.16866036 -0.02722366 -0.88495725
v -0.14384443 -0.08119857 -0.86065888
v -0.15715449 -0.07911934 -0.85946691
v -0.17002201 -0.06685618 -0.86382228
v -0.16838804 -0.04814318 -0.87432098
v -0.13002375 -0.09307984 -0.85579920
v -0.11000761 -0.11001064 -0.84800541
v -0.12825362 -0.11111391 -0.84465867
v -0.09002551 -0.12291030 -0.84195375
v -0.11000761 -0.12112811 -0.84076178
v -0.20998621 -0.19814418 -0.75823903
v -0.20998621 -0.18817240 -0.76731652
v -0.19667615 -0.17904928 -0.77914476
v -0.18333206 -0.18095878 -0.78079522
v -0.18595321 -0.20162369 -0.76149410
v -0.17002201 -0.19271275 -0.77341402
v -0.17002201 -0.18274097 -0.78230816
v -0.15000586 -0.17332083 -0.79445732
v -0.15000586 -0.16330661 -0.80261791
v -0.13002375 -0.15299538 -0.81449199
v -0.13002375 -0.14298116 -0.82224000
v -0.03001112 -0.15957250 -0.81962675
v -0.05002725 -0.14892179 -0.82673287
v -0.03001112 -0.17001104 -0.81114525
v -0.11000761 -0.13114232 -0.83374733
v -0.09002551 -0.13292451 -0.83503103
v -0.07000937 -0.13432480 -0.83599377
v -0.05002725 -0.13538563 -0.83672732
v -0.01533942 -0.15991196 -0.81985599
v -0.00921203 -0.16805911 -0.81334585
v -0.00199533 -0.16008168 -0.82003939
v -0.00131449 -0.16008168 -0.82003939
v -0.22996831 -0.02722366 -0.87102008
v -0.21213080 -0.02722366 -0.87555885
v -0.20981601 -0.02887855 -0.87532961
v -0.20906711 -0.05068918 -0.86409736
v -0.24998446 -0.10249998 -0.82168984
v -0.24998446 -0.11251420 -0.81476712
v -0.26605183 -0.12295274 -0.80206776
v -0.22571318 -0.08259887 -0.84154117
v -0.23143208 -0.08955789 -0.83558118
v -0.20906711 -0.06846865 -0.85414875
v -0.27160054 -0.12978446 -0.79509914
v -0.28409362 -0.14196277 -0.78148293
v -0.29045928 -0.14917639 -0.77336818
v -0.30087584 -0.16046360 -0.76034796
v -0.30850106 -0.15023722 -0.76543683
v -0.20178232 -0.06078824 -0.86042964
v -0.32998097 -0.16474934 -0.74407262
v -0.32998097 -0.17476355 -0.73522437
v -0.34907800 -0.17175080 -0.72880590
v -0.34907800 -0.17068997 -0.72976869
v -0.22996831 -0.19487683 -0.75516737
v -0.34907800 -0.18070418 -0.72064531
v -0.32998097 -0.18545669 -0.72522992
v -0.31619433 -0.17820063 -0.73834187
v -0.28998271 -0.17289649 -0.75374615
v -0.26996657 -0.17726710 -0.75755131
v -0.26996657 -0.16725290 -0.76612455
v -0.25587356 -0.15834194 -0.77864051
v -0.25073338 -0.17030807 -0.77025068
v -0.24555913 -0.18210447 -0.76186085
v -0.00131449 -0.13084529 -0.84140360
v -0.01002900 -0.13644646 -0.83746088
v -0.03001112 -0.13606456 -0.83718574
v -0.17397077 -0.03761977 -0.87876809
v -0.18642980 -0.02722366 -0.88138127
v -0.17985988 -0.02722366 -0.88271081
v -0.17189427 -0.02722366 -0.88431543
v -0.15031223 -0.08870922 -0.85492814
v -0.17002201 -0.09002465 -0.85025185
v -0.17002201 -0.07682796 -0.85813737
v -0.18997006 -0.06312206 -0.86171335
v -0.18997006 -0.05001023 -0.86881948
v -0.15000586 -0.10627653 -0.84406269
v -0.12042418 -0.12010971 -0.84002823
v -0.13373423 -0.11849727 -0.83897376
v -0.22996831 -0.18486263 -0.76433653
v -0.20998621 -0.17688520 -0.77731097
v -0.20998621 -0.16691342 -0.78560907
v -0.19000411 -0.17145377 -0.78707612
v -0.17832802 -0.15957250 -0.79959208
v -0.17100920 -0.16886535 -0.79363209
v -0.16501796 -0.16139713 -0.80110502
v -0.15082285 -0.14875206 -0.81385016
v -0.14469546 -0.14124140 -0.82091045
v -0.12825362 -0.12808713 -0.83315134
v -0.03001112 -0.14955829 -0.82719135
v -0.00921203 -0.15193453 -0.82599938
v -0.00131449 -0.14234465 -0.83319718
v -0.20831820 -0.02722366 -0.87652159
v -0.19715273 -0.02722366 -0.87908900
v -0.18997006 -0.03431000 -0.87707174
v -0.22996831 -0.11696967 -0.81783879
v -0.22996831 -0.10695545 -0.82466984
v -0.24998446 -0.12660198 -0.80472684
v -0.24998446 -0.13657376 -0.79743731
v -0.20998621 -0.09596528 -0.83741498
v -0.20998621 -0.08595107 -0.84360421
v -0.18997006 -0.07313628 -0.85598260
v -0.26996657 -0.14523011 -0.78400445
v -0.26996657 -0.15520188 -0.77611893
v -0.28998271 -0.16292471 -0.76241100
v -0.24954192 -0.15100101 -0.78643429
v -0.24256352 -0.16105765 -0.78079522
v -0.22996831 -0.17340568 -0.77433097
v -0.00131449 -0.13648888 -0.83750671
v -0.18997006 -0.02722366 -0.88064772
v -0.17002201 -0.10322134 -0.84204543
v -0.18302569 -0.10109968 -0.84067005
v -0.18979986 -0.09121278 -0.84520882
v -0.15000586 -0.11629073 -0.83750671
v -0.15082285 -0.13169396 -0.82654953
v -0.22996831 -0.16339147 -0.78272074
v -0.20998621 -0.15443809 -0.79564935
v -0.18997006 -0.15779030 -0.79821670
v -0.18997006 -0.14777610 -0.80591881
v -0.17002201 -0.13767701 -0.81825137
v -0.15800551 -0.13945921 -0.81958091
v -0.21832627 -0.11938836 -0.81953508
v -0.23071721 -0.13152422 -0.80706495
v -0.23789988 -0.13920462 -0.79936284
v -0.21100745 -0.11162309 -0.82673287
v -0.19633575 -0.09868100 -0.83915716
v -0.23071721 -0.14909153 -0.79381549
v -0.17002201 -0.11323556 -0.83544362
v -0.18979986 -0.10865279 -0.83402240
v -0.17002201 -0.12766281 -0.82544923
v -0.22455579 -0.14179303 -0.80133426
v -0.20998621 -0.14446631 -0.80335146
v -0.18997006 -0.13449454 -0.81591326
v -0.18997006 -0.12448033 -0.82320273
v -0.20501621 -0.12189191 -0.82132304
v -0.21100745 -0.12914798 -0.81440032
f 1 2 3
f 1 3 8
f 1 8 16
f 1 16 28
f 1 28 46
f 1 46 90
f 1 90 89
f 1 89 129
f 1 129 172
f 1 172 222
f 1 222 221
f 1 221 280
f 1 280 281
f 1 281 343
f 1 343 345
f 1 345 420
f 1 420 497
f 1 497 555
f 1 555 572
f 1 572 528
f 1 528 459
f 1 459 458
f 1 458 457
f 1 457 383
f 1 383 310
f 1 310 250
f 1 250 249
f 1 249 195
f 1 195 150
f 1 150 108
f 1 108 71
f 1 71 33
f 1 33 19
f 1 19 11
f 1 11 4
f 1 4 10
f 1 10 18
f 1 18 32
f 1 32 51
f 1 51 75
f 1 75 35
f 1 35 20
f 1 20 12
f 1 12 5
f 1 5 2
f 2 5 6
f 2 6 3
f 3 6 7
f 3 7 8
f 4 9 10
f 4 11 9
f 5 12 13
f 5 13 6
f 6 13 14
f 6 14 7
f 7 14 15
f 7 15 16
f 7 16 8
f 9 17 30
f 9 30 49
f 9 49 95
f 9 95 136
f 9 136 183
f 9 183 182
f 9 182 233
f 9 233 232
f 9 232 294
f 9 294 293
f 9 293 360
f 9 360 359
f 9 359 364
f 9 364 362
f 9 362 434
f 9 434 440
f 9 440 439
f 9 439 517
f 9 517 516
f 9 516 519
f 9 519 444
f 9 444 443
f 9 443 370
f 9 370 369
f 9 369 368
f 9 368 299
f 9 299 298
f 9 298 240
f 9 240 239
f 9 239 238
f 9 238 187
f 9 187 142
f 9 142 141
f 9 141 140
f 9 140 99
f 9 99 62
f 9 62 61
f 9 61 60
f 9 60 59
f 9 59 58
f 9 58 57
f 9 57 56
f 9 56 55
f 9 55 54
f 9 54 53
f 9 53 52
f 9 52 50
f 9 50 31
f 9 31 18
f 9 18 10
f 9 11 19
f 9 19 34
f 9 34 74
f 9 74 111
f 9 111 155
f 9 155 200
f 9 200 199
f 9 199 255
f 9 255 319
f 9 319 318
f 9 318 391
f 9 391 390
f 9 390 389
f 9 389 466
f 9 466 534
f 9 534 533
f 9 533 532
f 9 532 573
f 9 573 557
f 9 557 556
f 9 556 499
f 9 499 498
f 9 498 421
f 9 421 347
f 9 347 346
f 9 346 282
f 9 282 223
f 9 223 174
f 9 174 173
f 9 173 130
f 9 130 91
f 9 91 47
f 9 47 29
f 9 29 17
f 12 20 21
f 12 21 13
f 13 21 22
f 13 22 23
f 13 23 14
f 14 23 24
f 14 24 25
f 14 25 15
f 15 25 26
f 15 26 27
f 15 27 28
f 15 28 16
f 17 29 30
f 18 31 32
f 19 33 34
f 20 35 36
f 20 36 21
f 21 36 37
f 21 37 38
f 21 38 22
f 22 38 39
f 22 39 40
f 22 40 41
f 22 41 24
f 22 24 23
f 24 41 42
f 24 42 43
f 24 43 25
f 25 43 26
f 26 43 44
f 26 44 45
f 26 45 27
f 27 46 28
f 27 45 90
f 27 90 46
f 29 47 48
f 29 48 49
f 29 49 30
f 31 50 32
f 32 50 52
f 32 52 53
f 32 53 54
f 32 54 55
f 32 55 56
f 32 56 57
f 32 57 58
f 32 58 59
f 32 59 60
f 32 60 61
f 32 61 62
f 32 62 63
f 32 63 64
f 32 64 65
f 32 65 66
f 32 66 67
f 32 67 68
f 32 68 69
f 32 69 70
f 32 70 51
f 33 71 34
f 34 71 72
f 34 72 73
f 34 73 74
f 35 75 76
f 35 76 36
f 36 76 77
f 36 77 78
f 36 78 37
f 37 78 79
f 37 79 39
f 37 39 38
f 39 79 80
f 39 80 40
f 40 80 81
f 40 81 82
f 40 82 41
f 41 82 42
f 42 82 83
f 42 83 84
f 42 84 85
f 42 85 86
f 42 86 43
f 43 86 44
f 44 86 85
f 44 85 87
f 44 87 45
f 45 87 88
f 45 88 89
f 45 89 90
f 47 91 48
f 48 91 92
f 48 92 93
f 48 93 94
f 48 94 49
f 49 94 95
f 51 70 96
f 51 96 97
f 51 97 98
f 51 98 75
f 62 99 63
f 63 99 64
f 64 99 100
f 64 100 65
f 65 100 101
f 65 101 102
f 65 102 66
f 66 102 67
f 67 102 103
f 67 103 104
f 67 104 68
f 68 104 105
f 68 105 69
f 69 105 70
f 70 105 106
f 70 106 107
f 70 107 96
f 71 108 109
f 71 109 72
f 72 109 73
f 73 110 111
f 73 111 74
f 73 109 112
f 73 112 113
f 73 113 110
f 75 98 114
f 75 114 76
f 76 114 115
f 76 115 116
f 76 116 117
f 76 117 77
f 77 117 118
f 77 118 119
f 77 119 78
f 78 119 79
f 79 119 120
f 79 120 80
f 80 120 121
f 80 121 81
f 81 121 122
f 81 122 123
f 81 123 124
f 81 124 82
f 82 124 84
f 82 84 83
f 84 124 125
f 84 125 85
f 85 125 126
f 85 126 127
f 85 127 87
f 87 127 128
f 87 128 88
f 88 128 129
f 88 129 89
f 91 130 92
f 92 130 131
f 92 131 132
f 92 132 133
f 92 133 93
f 93 133 134
f 93 134 135
f 93 135 94
f 94 135 136
f 94 136 95
f 96 107 137
f 96 137 97
f 97 137 98
f 98 137 138
f 98 138 139
f 98 139 114
f 99 140 100
f 100 141 101
f 100 140 141
f 101 142 143
f 101 143 102
f 101 141 142
f 102 143 103
f 103 143 144
f 103 144 145
f 103 145 104
f 104 145 146
f 104 146 105
f 105 146 106
f 106 146 147
f 106 147 148
f 106 148 107
f 107 148 149
f 107 149 138
f 107 138 137
f 108 150 109
f 109 150 151
f 109 151 152
f 109 152 112
f 110 153 111
f 110 113 154
f 110 154 153
f 111 153 155
f 112 152 113
f 113 152 156
f 113 156 154
f 114 139 157
f 114 157 115
f 115 157 116
f 116 157 158
f 116 158 159
f 116 159 118
f 116 118 117
f 118 159 160
f 118 160 119
f 119 160 120
f 120 160 161
f 120 161 121
f 121 161 162
f 121 162 122
f 122 162 163
f 122 163 123
f 123 163 164
f 123 164 165
f 123 165 166
f 123 166 167
f 123 167 124
f 124 167 166
f 124 166 125
f 125 166 168
f 125 168 169
f 125 169 126
f 126 169 127
f 127 169 170
f 127 170 128
f 128 170 171
f 128 171 172
f 128 172 129
f 130 173 131
f 131 173 174
f 131 174 132
f 132 175 133
f 132 174 176
f 132 176 177
f 132 177 175
f 133 175 178
f 133 178 134
f 134 178 179
f 134 179 180
f 134 180 135
f 135 180 181
f 135 181 182
f 135 182 183
f 135 183 136
f 138 149 184
f 138 184 185
f 138 185 186
f 138 186 139
f 139 186 157
f 142 187 188
f 142 188 143
f 143 188 144
f 144 189 190
f 144 190 145
f 144 188 189
f 145 190 191
f 145 191 146
f 146 191 147
f 147 191 192
f 147 192 193
f 147 193 148
f 148 193 194
f 148 194 149
f 149 194 184
f 150 195 151
f 151 195 249
f 151 249 196
f 151 196 152
f 152 196 197
f 152 197 156
f 153 198 199
f 153 199 200
f 153 200 155
f 153 154 201
f 153 201 198
f 154 156 202
f 154 202 203
f 154 203 201
f 156 197 204
f 156 204 257
f 156 257 202
f 157 186 158
f 158 186 205
f 158 205 206
f 158 206 159
f 159 206 207
f 159 207 160
f 160 207 208
f 160 208 161
f 161 208 209
f 161 209 162
f 162 209 210
f 162 210 163
f 163 210 211
f 163 211 212
f 163 212 164
f 164 212 165
f 165 212 213
f 165 213 214
f 165 214 215
f 165 215 166
f 166 215 216
f 166 216 217
f 166 217 168
f 168 217 218
f 168 218 169
f 169 218 219
f 169 219 170
f 170 219 220
f 170 220 171
f 171 220 221
f 171 221 222
f 171 222 172
f 174 223 224
f 174 224 176
f 175 177 225
f 175 225 226
f 175 226 227
f 175 227 178
f 176 224 177
f 177 224 228
f 177 228 225
f 178 227 179
f 179 229 230
f 179 230 180
f 179 227 229
f 180 230 181
f 181 230 231
f 181 231 232
f 181 232 233
f 181 233 182
f 184 234 235
f 184 235 236
f 184 236 185
f 184 194 234
f 185 236 237
f 185 237 186
f 186 237 205
f 187 238 188
f 188 238 239
f 188 239 240
f 188 240 241
f 188 241 242
f 188 242 189
f 189 242 243
f 189 243 190
f 190 243 244
f 190 244 191
f 191 244 245
f 191 245 192
f 192 245 246
f 192 246 193
f 193 246 247
f 193 247 194
f 194 247 248
f 194 248 234
f 196 249 250
f 196 250 251
f 196 251 197
f 197 251 252
f 197 252 204
f 198 201 253
f 198 253 254
f 198 254 255
f 198 255 199
f 201 203 256
f 201 256 253
f 202 257 203
f 203 257 258
f 203 258 256
f 204 252 259
f 204 259 260
f 204 260 257
f 205 237 261
f 205 261 262
f 205 262 263
f 205 263 264
f 205 264 206
f 206 264 265
f 206 265 207
f 207 265 208
f 208 266 209
f 208 265 266
f 209 266 267
f 209 267 210
f 210 267 268
f 210 268 211
f 211 268 269
f 211 269 212
f 212 269 270
f 212 270 271
f 212 271 213
f 213 271 214
f 214 216 215
f 214 271 272
f 214 272 273
f 214 273 274
f 214 274 216
f 216 275 217
f 216 274 276
f 216 276 275
f 217 275 218
f 218 275 277
f 218 277 278
f 218 278 219
f 219 278 279
f 219 279 220
f 220 280 221
f 220 279 281
f 220 281 280
f 223 282 224
f 224 282 283
f 224 283 228
f 225 284 226
f 225 228 285
f 225 285 284
f 226 284 286
f 226 286 227
f 227 286 287
f 227 287 288
f 227 288 229
f 228 283 289
f 228 289 285
f 229 288 290
f 229 290 230
f 230 290 231
f 231 290 291
f 231 291 292
f 231 292 293
f 231 293 294
f 231 294 232
f 234 248 235
f 235 295 236
f 235 248 296
f 235 296 297
f 235 297 295
f 236 295 237
f 237 295 261
f 240 298 241
f 241 298 299
f 241 299 242
f 242 299 300
f 242 300 301
f 242 301 302
f 242 302 303
f 242 303 243
f 243 303 245
f 243 245 244
f 245 304 305
f 245 305 306
f 245 306 246
f 245 303 304
f 246 306 307
f 246 307 248
f 246 248 247
f 248 307 308
f 248 308 309
f 248 309 296
f 250 310 251
f 251 310 311
f 251 311 312
f 251 312 252
f 252 312 313
f 252 313 259
f 253 314 315
f 253 315 254
f 253 256 316
f 253 316 317
f 253 317 314
f 254 318 319
f 254 319 255
f 254 315 318
f 256 258 320
f 256 320 316
f 257 260 321
f 257 321 258
f 258 321 322
f 258 322 320
f 259 313 323
f 259 323 260
f 260 323 324
f 260 324 321
f 261 295 325
f 261 325 262
f 262 325 326
f 262 326 327
f 262 327 328
f 262 328 264
f 262 264 263
f 264 266 265
f 264 328 329
f 264 329 266
f 266 329 267
f 267 329 330
f 267 330 268
f 268 330 331
f 268 331 269
f 269 331 332
f 269 332 270
f 270 332 333
f 270 333 271
f 271 333 334
f 271 334 272
f 272 335 273
f 272 334 335
f 273 335 336
f 273 336 337
f 273 337 276
f 273 276 274
f 275 276 338
f 275 338 339
f 275 339 277
f 276 337 340
f 276 340 341
f 276 341 338
f 277 339 342
f 277 342 278
f 278 342 344
f 278 344 279
f 279 343 281
f 279 344 345
f 279 345 343
f 282 346 283
f 283 346 347
f 283 347 348
f 283 348 349
f 283 349 289
f 284 350 286
f 284 285 351
f 284 351 350
f 285 289 352
f 285 352 351
f 286 353 287
f 286 350 353
f 287 353 354
f 287 354 288
f 288 354 355
f 288 355 356
f 288 356 290
f 289 349 357
f 289 357 352
f 290 356 358
f 290 358 291
f 291 358 292
f 292 359 360
f 292 360 293
f 292 358 361
f 292 361 362
f 292 362 363
f 292 363 364
f 292 364 359
f 295 297 325
f 296 309 365
f 296 365 366
f 296 366 367
f 296 367 297
f 297 367 325
f 299 368 300
f 300 368 369
f 300 369 301
f 301 369 370
f 301 370 371
f 301 371 372
f 301 372 373
f 301 373 302
f 302 373 303
f 303 373 304
f 304 373 305
f 305 374 375
f 305 375 376
f 305 376 377
f 305 377 378
f 305 378 306
f 305 373 374
f 306 378 307
f 307 378 308
f 308 378 309
f 309 379 380
f 309 380 381
f 309 381 382
f 309 382 365
f 309 378 379
f 310 383 384
f 310 384 311
f 311 384 312
f 312 384 385
f 312 385 313
f 313 385 386
f 313 386 323
f 314 387 315
f 314 317 387
f 315 387 388
f 315 388 389
f 315 389 390
f 315 390 391
f 315 391 318
f 316 320 317
f 317 320 392
f 317 392 393
f 317 393 394
f 317 394 387
f 320 322 395
f 320 395 392
f 321 324 396
f 321 396 397
f 321 397 322
f 322 397 395
f 323 386 398
f 323 398 324
f 324 398 399
f 324 399 396
f 325 367 326
f 326 367 400
f 326 400 327
f 327 401 402
f 327 402 403
f 327 403 404
f 327 404 328
f 327 400 401
f 328 404 329
f 329 404 330
f 330 404 405
f 330 405 331
f 331 405 406
f 331 406 332
f 332 406 407
f 332 407 333
f 333 407 408
f 333 408 334
f 334 408 409
f 334 409 335
f 335 409 336
f 336 409 410
f 336 410 411
f 336 411 340
f 336 340 337
f 338 341 412
f 338 412 413
f 338 413 414
f 338 414 339
f 339 414 418
f 339 418 342
f 340 411 415
f 340 415 416
f 340 416 341
f 341 416 417
f 341 417 412
f 342 418 419
f 342 419 344
f 344 419 420
f 344 420 345
f 347 421 348
f 348 421 422
f 348 422 349
f 349 422 423
f 349 423 357
f 350 351 424
f 350 424 353
f 351 425 426
f 351 426 424
f 351 352 425
f 352 357 427
f 352 427 425
f 353 424 354
f 354 428 355
f 354 424 428
f 355 428 429
f 355 429 430
f 355 430 431
f 355 431 356
f 356 431 358
f 357 432 427
f 357 423 432
f 358 431 433
f 358 433 361
f 361 434 362
f 361 433 435
f 361 435 436
f 361 436 437
f 361 437 438
f 361 438 439
f 361 439 440
f 361 440 434
f 362 364 363
f 365 382 441
f 365 441 366
f 366 441 442
f 366 442 400
f 366 400 367
f 370 443 371
f 371 443 444
f 371 444 445
f 371 445 446
f 371 446 447
f 371 447 372
f 372 447 374
f 372 374 373
f 374 447 375
f 375 447 448
f 375 448 376
f 376 449 450
f 376 450 451
f 376 451 380
f 376 380 377
f 376 448 449
f 377 380 379
f 377 379 378
f 380 451 452
f 380 452 382
f 380 382 381
f 382 452 453
f 382 453 454
f 382 454 455
f 382 455 456
f 382 456 441
f 383 457 384
f 384 457 458
f 384 458 459
f 384 459 460
f 384 460 461
f 384 461 385
f 385 461 462
f 385 462 386
f 386 462 463
f 386 463 398
f 387 394 464
f 387 464 388
f 388 464 465
f 388 465 389
f 389 465 466
f 392 395 467
f 392 467 393
f 393 467 468
f 393 468 469
f 393 469 394
f 394 470 464
f 394 469 470
f 395 397 471
f 395 471 467
f 396 399 472
f 396 472 397
f 397 472 473
f 397 473 471
f 398 463 399
f 399 463 474
f 399 474 475
f 399 475 472
f 400 442 401
f 401 442 476
f 401 476 402
f 402 476 477
f 402 477 478
f 402 478 479
f 402 479 480
f 402 480 403
f 403 480 405
f 403 405 404
f 405 480 406
f 406 480 481
f 406 481 407
f 407 481 482
f 407 482 408
f 408 482 483
f 408 483 409
f 409 483 484
f 409 484 410
f 410 484 485
f 410 485 411
f 411 485 486
f 411 486 415
f 412 487 413
f 412 417 488
f 412 488 487
f 413 487 489
f 413 489 414
f 414 489 418
f 415 490 491
f 415 491 416
f 415 486 490
f 416 491 492
f 416 492 417
f 417 492 493
f 417 493 488
f 418 489 494
f 418 494 419
f 419 494 495
f 419 495 496
f 419 496 420
f 420 496 497
f 421 498 422
f 422 498 499
f 422 499 500
f 422 500 501
f 422 501 423
f 423 501 432
f 424 502 503
f 424 503 504
f 424 504 428
f 424 426 502
f 425 505 506
f 425 506 502
f 425 502 426
f 425 427 505
f 427 432 507
f 427 507 505
f 428 504 508
f 428 508 429
f 429 509 430
f 429 508 509
f 430 510 511
f 430 511 512
f 430 512 433
f 430 433 431
f 430 509 510
f 432 513 507
f 432 501 513
f 433 512 435
f 435 512 436
f 436 512 511
f 436 511 514
f 436 514 437
f 437 514 438
f 438 514 515
f 438 515 445
f 438 445 516
f 438 516 517
f 438 517 439
f 441 456 518
f 441 518 442
f 442 518 476
f 444 519 445
f 445 519 516
f 445 515 520
f 445 520 446
f 446 520 448
f 446 448 447
f 448 520 449
f 449 520 521
f 449 521 450
f 450 453 451
f 450 521 511
f 450 511 522
f 450 522 453
f 451 453 452
f 453 522 523
f 453 523 455
f 453 455 454
f 455 523 524
f 455 524 525
f 455 525 526
f 455 526 527
f 455 527 456
f 456 527 518
f 459 528 460
f 460 528 529
f 460 529 461
f 461 529 530
f 461 530 493
f 461 493 462
f 462 493 463
f 463 493 492
f 463 492 491
f 463 491 474
f 464 470 531
f 464 531 465
f 465 532 533
f 465 533 534
f 465 534 466
f 465 531 532
f 467 471 535
f 467 535 468
f 468 535 536
f 468 536 537
f 468 537 469
f 469 538 470
f 469 537 538
f 470 538 539
f 470 539 531
f 471 473 540
f 471 540 535
f 472 475 541
f 472 541 473
f 473 541 542
f 473 542 540
f 474 491 475
f 475 491 490
f 475 490 541
f 476 518 543
f 476 543 477
f 477 543 544
f 477 544 478
f 478 544 545
f 478 545 546
f 478 546 479
f 479 546 547
f 479 547 548
f 479 548 482
f 479 482 481
f 479 481 480
f 482 548 483
f 483 548 549
f 483 549 484
f 484 549 550
f 484 550 551
f 484 551 485
f 485 551 486
f 486 551 552
f 486 552 490
f 487 494 489
f 487 488 553
f 487 553 494
f 488 493 530
f 488 530 553
f 490 552 541
f 494 496 495
f 494 553 554
f 494 554 496
f 496 554 555
f 496 555 497
f 499 556 500
f 500 556 557
f 500 557 558
f 500 558 501
f 501 558 539
f 501 539 513
f 502 559 503
f 502 506 560
f 502 560 559
f 503 559 561
f 503 561 504
f 504 561 562
f 504 562 508
f 505 563 506
f 505 507 564
f 505 564 563
f 506 563 560
f 507 513 565
f 507 565 564
f 508 562 566
f 508 566 509
f 509 566 567
f 509 567 510
f 510 567 568
f 510 568 511
f 511 568 522
f 511 521 514
f 513 539 538
f 513 538 565
f 514 521 515
f 515 521 520
f 518 527 543
f 522 568 523
f 523 568 524
f 524 568 567
f 524 567 525
f 525 567 566
f 525 566 562
f 525 562 569
f 525 569 570
f 525 570 526
f 526 570 527
f 527 570 571
f 527 571 543
f 528 572 529
f 529 572 555
f 529 555 554
f 529 554 553
f 529 553 530
f 531 558 573
f 531 573 532
f 531 539 558
f 535 540 574
f 535 574 536
f 536 574 575
f 536 575 576
f 536 576 565
f 536 565 537
f 537 565 538
f 540 542 577
f 540 577 574
f 541 552 542
f 542 552 551
f 542 551 578
f 542 578 577
f 543 571 544
f 544 571 579
f 544 579 545
f 545 579 580
f 545 580 581
f 545 581 546
f 546 581 547
f 547 582 583
f 547 583 584
f 547 584 549
f 547 549 548
f 547 581 582
f 549 584 550
f 550 584 551
f 551 584 578
f 557 573 558
f 559 560 585
f 559 585 586
f 559 586 587
f 559 587 561
f 560 563 588
f 560 588 585
f 561 587 562
f 562 587 569
f 563 564 589
f 563 589 588
f 564 565 576
f 564 576 589
f 569 587 570
f 570 587 590
f 570 590 579
f 570 579 571
f 574 577 591
f 574 591 575
f 575 591 592
f 575 592 589
f 575 589 576
f 577 578 593
f 577 593 591
f 578 584 593
f 579 590 580
f 580 590 594
f 580 594 595
f 580 595 581
f 581 595 582
f 582 595 596
f 582 596 583
f 583 596 597
f 583 597 593
f 583 593 584
f 585 598 599
f 585 599 594
f 585 594 586
f 585 588 598
f 586 594 587
f 587 594 590
f 588 589 598
f 589 592 598
f 591 593 597
f 591 597 592
f 592 597 598
f 594 599 595
f 595 599 598
f 595 598 596
f 596 598 597
