v 0.52812648 -0.10625845 0.35409698
v 0.52812648 -0.10625845 0.67548627
v 0.30123031 -0.10625845 0.56150448
v 0.30123031 0.40312102 0.83814716
v 0.30123031 0.40729445 0.84059000
v 0.30123031 0.41285902 0.84392667
v 0.30123031 0.41964775 0.84851456
v 0.52812648 0.40829605 0.71886247
v 0.52623862 -0.10625845 0.67697585
v 0.52812648 -0.10030439 0.68019331
v 0.30123031 -0.10625845 0.80275500
v 0.30123031 0.42771637 0.85494947
v 0.52812648 0.41163480 0.72130537
v 0.52292937 -0.10291973 0.68221909
v 0.52121919 -0.10625845 0.68090826
v 0.52812648 -0.08923092 0.68841571
v 0.30629417 -0.10625845 0.80096751
v 0.30123031 -0.10586894 0.80305290
v 0.52812648 0.42643654 0.73369861
v 0.52812648 0.41825664 0.72678697
v 0.30123031 0.43250188 0.85923940
v 0.52812648 -0.08850753 0.68895197
v 0.52061951 -0.08066151 0.70045143
v 0.51395655 -0.09396079 0.69556564
v 0.50063062 -0.10058260 0.70045143
v 0.50618309 -0.10625845 0.69205028
v 0.31002542 -0.10286409 0.80192083
v 0.31002542 -0.10625845 0.79953754
v 0.30123031 -0.08099538 0.81937855
v 0.52812648 0.42855105 0.73584354
v 0.30123031 0.43678659 0.86317188
v 0.52812648 -0.07659936 0.69759142
v 0.52812648 -0.06802996 0.70343053
v 0.51764339 -0.05740166 0.71832627
v 0.51058066 -0.07070094 0.71439379
v 0.49785441 -0.07787922 0.71850502
v 0.50835967 -0.08839622 0.70366889
v 0.48937023 -0.10625845 0.70378804
v 0.49656624 -0.10625845 0.69890225
v 0.49070281 -0.09051076 0.71433419
v 0.47737688 -0.09757775 0.71826667
v 0.31524473 -0.10625845 0.79751170
v 0.32010871 -0.10002616 0.79995459
v 0.30833748 -0.08811802 0.81210947
v 0.31386775 -0.07609856 0.81759107
v 0.30123031 -0.08004940 0.81997442
v 0.52812648 0.43367043 0.74114645
v 0.30123031 0.43940192 0.86609143
v 0.52812648 -0.05155887 0.71439379
v 0.52812648 -0.04849836 0.71636003
v 0.52812648 -0.04137573 0.72088832
v 0.52355123 -0.04404671 0.72249705
v 0.50927031 -0.04916611 0.72946823
v 0.50431746 -0.06452428 0.72297370
v 0.48452848 -0.08422282 0.72297370
v 0.48126364 -0.06124119 0.74078894
v 0.47444519 -0.07459614 0.73632026
v 0.46660510 -0.10625845 0.71898168
v 0.46924809 -0.08928657 0.72946823
v 0.46405095 -0.10358748 0.72261620
v 0.32606095 -0.10625845 0.79316217
v 0.33345684 -0.09585273 0.79721379
v 0.32808205 -0.08950913 0.80352956
v 0.30123031 -0.07927036 0.82045102
v 0.34378445 -0.08249781 0.80162293
v 0.33052516 -0.06964368 0.81490988
v 0.32419533 -0.06274362 0.82158315
v 0.30833748 -0.06964368 0.82354939
v 0.52812648 0.43823338 0.74662805
v 0.30123031 0.44424310 0.87216890
v 0.52812648 -0.02974580 0.72791904
v 0.51555568 -0.02996840 0.73685646
v 0.50087494 -0.04098621 0.74055064
v 0.49458957 -0.05428550 0.73632026
v 0.46109706 -0.08099538 0.74066979
v 0.48874834 -0.04855400 0.74382764
v 0.47042519 -0.05050160 0.75455254
v 0.45749906 -0.05751294 0.75842541
v 0.46864840 -0.06875335 0.74400640
v 0.46254069 -0.10625845 0.72160327
v 0.45572227 -0.10625845 0.72595286
v 0.45359010 -0.09435031 0.73596275
v 0.34913704 -0.10625845 0.78327143
v 0.35029194 -0.08950913 0.79411548
v 0.30123031 -0.05233790 0.83606172
v 0.35713258 -0.07787922 0.79864377
v 0.35029194 -0.07070094 0.80597246
v 0.33752126 -0.05823633 0.81896150
v 0.33052516 -0.05094677 0.82587308
v 0.31002542 -0.04927740 0.83469135
v 0.52812648 0.44285196 0.75252676
v 0.30123031 0.44847217 0.87919962
v 0.52812648 0.44368663 0.75389713
v 0.52812648 -0.01394247 0.73721397
v 0.51984221 -0.01984090 0.73983562
v 0.50556123 -0.02996840 0.74382764
v 0.49005872 -0.03030226 0.75407588
v 0.47737688 -0.03714667 0.75824666
v 0.45048073 -0.07031143 0.75437379
v 0.43673280 -0.07721147 0.75812751
v 0.44814870 -0.08861881 0.74341059
v 0.46405095 -0.04421365 0.76253664
v 0.43981999 -0.03981765 0.77987522
v 0.44417313 -0.06385654 0.76241750
v 0.44024196 -0.10019308 0.74013352
v 0.44606096 -0.10625845 0.73203027
v 0.35773227 -0.10625845 0.77933896
v 0.36197436 -0.10130599 0.78088814
v 0.30123031 -0.04438059 0.84064960
v 0.36919254 -0.08989865 0.78499931
v 0.38431749 -0.08322120 0.78207976
v 0.37159121 -0.07070094 0.79626048
v 0.37929806 -0.05940489 0.79959708
v 0.36594993 -0.06452428 0.80269539
v 0.35197991 -0.05094677 0.81699526
v 0.35997546 -0.03992894 0.81991482
v 0.34662732 -0.04493704 0.82271522
v 0.33156902 -0.03052485 0.83671713
v 0.31668839 -0.03759183 0.83868337
v 0.30334026 -0.04215477 0.84112626
v 0.30123031 0.45464882 0.89075869
v 0.52812648 0.45181090 0.76992488
v 0.52812648 -0.00453837 0.74245727
v 0.52506149 -0.00648595 0.74358934
v 0.51102483 -0.01132712 0.75067967
v 0.49676612 -0.01611264 0.75782961
v 0.48344019 -0.02379173 0.76217914
v 0.47042519 -0.03030226 0.76670742
v 0.43002543 -0.07031143 0.76629037
v 0.42340687 -0.08272037 0.76182163
v 0.45963120 -0.01956266 0.77969646
v 0.45176890 -0.03191598 0.77731317
v 0.44630527 -0.02646272 0.78362894
v 0.43444520 -0.01427634 0.79697549
v 0.43046963 -0.03041355 0.79024261
v 0.41398990 -0.03436439 0.79679668
v 0.40066397 -0.04054105 0.80025250
v 0.42649406 -0.04577173 0.78345019
v 0.41903153 -0.05912666 0.77945817
v 0.43189105 -0.05144757 0.77707481
v 0.43582219 -0.10625845 0.73822689
v 0.41498932 -0.09607533 0.75717419
v 0.42998099 -0.10419956 0.74305308
v 0.42998099 -0.10625845 0.74156350
v 0.36663842 -0.10625845 0.77504903
v 0.37199101 -0.10625845 0.77242738
v 0.37530029 -0.09652048 0.77761108
v 0.30123031 -0.04282251 0.84148377
v 0.39060289 -0.07081223 0.78684640
v 0.39060289 -0.08989865 0.77439362
v 0.39764342 -0.07810181 0.77868354
v 0.39002544 -0.04493704 0.80287415
v 0.39002544 -0.05495325 0.79697549
v 0.38864842 -0.02852160 0.81264573
v 0.38107485 -0.02089816 0.82039148
v 0.37003654 -0.02562803 0.82295352
v 0.35002542 -0.01488844 0.83737254
v 0.35197991 -0.03191598 0.82760096
v 0.33925363 -0.01939574 0.83963668
v 0.32592770 -0.02429254 0.84219873
v 0.31002542 -0.03052485 0.84482038
v 0.30123031 -0.02963452 0.84839535
v 0.30123031 0.45748675 0.89719361
v 0.52812648 0.45281252 0.77212948
v 0.52812648 0.01020771 0.75032216
v 0.51553345 0.00586735 0.75687629
v 0.50220752 -0.00281335 0.76140457
v 0.49005872 -0.00965776 0.76563495
v 0.47113591 -0.01177229 0.77665776
v 0.41145796 -0.07081223 0.77606189
v 0.40903708 -0.08962044 0.76491994
v 0.46525031 -0.00626338 0.78321183
v 0.45025861 -0.01026987 0.79006386
v 0.44086385 -0.00097705 0.80043125
v 0.42864841 -0.00854485 0.80305290
v 0.42111927 -0.02106510 0.80055046
v 0.40839300 -0.02863289 0.80287415
v 0.40572780 -0.06474687 0.78291392
v 0.40170783 -0.10125035 0.76086831
v 0.40646073 -0.10625845 0.75467169
v 0.38709372 -0.10625845 0.76486039
v 0.38944796 -0.10625845 0.76366872
v 0.39440078 -0.01472150 0.81723356
v 0.38864842 -0.00882308 0.82295352
v 0.36834857 -0.00826661 0.83266550
v 0.36055291 -0.00047624 0.84017295
v 0.35002542 -0.00492789 0.84237748
v 0.33156902 -0.01160535 0.84642911
v 0.31015867 -0.00954647 0.85542613
v 0.30123031 -0.01310778 0.85685611
v 0.30123031 0.45943433 0.90225816
v 0.52812648 0.45815450 0.78636974
v 0.52812648 0.02512072 0.75800836
v 0.52055287 0.01922229 0.76039165
v 0.50931472 0.01154320 0.76408577
v 0.49034747 0.00903915 0.77528733
v 0.47857624 0.00174958 0.77910066
v 0.47113591 0.00903915 0.78732306
v 0.45547795 0.01004077 0.79733294
v 0.45976445 0.02027956 0.79977584
v 0.44548351 0.01004077 0.80305290
v 0.43433413 0.02662314 0.81699526
v 0.42860398 0.01132062 0.81288403
v 0.41474503 0.00553349 0.81729317
v 0.40888160 -0.00882308 0.81312239
v 0.39762121 -0.10625845 0.75943834
v 0.40144131 -0.00142221 0.82062984
v 0.36834857 0.01159884 0.84231794
v 0.35002542 0.01004077 0.84940827
v 0.37387884 0.00597864 0.83713424
v 0.33849850 0.02133682 0.85935855
v 0.33110261 0.00948432 0.85673696
v 0.31688827 0.00247298 0.85876274
v 0.30356234 -0.00264642 0.86120564
v 0.30123031 -0.00370368 0.86150360
v 0.30123031 0.45987952 0.90404564
v 0.52812648 0.45871094 0.78809762
v 0.52812648 0.03324497 0.76194084
v 0.52437299 0.03001752 0.76301330
v 0.50929248 0.03018446 0.77332109
v 0.49725473 0.02361830 0.77820688
v 0.48390660 0.01510452 0.78243726
v 0.46482831 0.03363448 0.80287415
v 0.44988105 0.03012882 0.80990493
v 0.49034747 0.03018446 0.78565472
v 0.47089159 0.02818123 0.79667753
v 0.43999767 0.03997809 0.81991482
v 0.42860398 0.03202076 0.82235771
v 0.42100820 0.01888841 0.82045102
v 0.40888160 0.01132062 0.82301313
v 0.39406762 0.02623363 0.83719379
v 0.38844854 0.01159884 0.83302301
v 0.38074169 0.01933359 0.84029210
v 0.37003654 0.03001752 0.84982538
v 0.35138023 0.02884898 0.85733277
v 0.34562787 0.03469175 0.86221856
v 0.33110261 0.02884898 0.86531687
v 0.30887052 0.03129737 0.87461174
v 0.32517257 0.01582791 0.86186105
v 0.31015867 0.00948432 0.86442310
v 0.30123031 0.00970690 0.86764061
v 0.30123031 0.46121499 0.91143394
v 0.52812648 0.46060291 0.79637963
v 0.52812648 0.04982735 0.76974612
v 0.51548904 0.04665555 0.77689606
v 0.50216311 0.03697322 0.78136480
v 0.47815424 0.04253778 0.79882252
v 0.47089159 0.04954912 0.80621076
v 0.45374557 0.04999429 0.81645900
v 0.44375113 0.04999429 0.82205981
v 0.42998099 0.04999429 0.82932889
v 0.41467839 0.04999429 0.83725339
v 0.40825975 0.03174254 0.83266550
v 0.40041965 0.03958857 0.84011334
v 0.38844854 0.03174254 0.84225833
v 0.37108040 0.04865879 0.85721362
v 0.35895380 0.04109100 0.85947776
v 0.35138023 0.04865879 0.86561477
v 0.32923698 0.05088462 0.87514800
v 0.31475613 0.04476361 0.87806755
v 0.30123031 0.02851510 0.87604177
v 0.30140799 0.03886518 0.88045084
v 0.30123031 0.46160451 0.91834545
v 0.33003652 0.46204969 0.90994430
v 0.52812648 0.46182710 0.80996448
v 0.52812648 0.46071419 0.79721379
v 0.52812648 0.06618714 0.77701527
v 0.51999766 0.05995484 0.77999437
v 0.50929248 0.05199753 0.78339058
v 0.49623308 0.06557504 0.79763091
v 0.48972559 0.04954912 0.79477090
v 0.48290715 0.05589271 0.80174208
v 0.45832083 0.06234760 0.81896150
v 0.45099154 0.06941459 0.82587308
v 0.43046963 0.06869119 0.83659798
v 0.41914257 0.06112340 0.83951753
v 0.40468395 0.04999429 0.84231794
v 0.39002544 0.04999429 0.84922951
v 0.37845409 0.06184679 0.85923940
v 0.36512816 0.05444593 0.86215895
v 0.34911484 0.07080573 0.87508845
v 0.33538911 0.06468471 0.87824631
v 0.32206318 0.05811854 0.88068920
v 0.30887052 0.05088462 0.88259584
v 0.30123031 0.03864259 0.88039130
v 0.30123031 0.05055074 0.88497913
v 0.30123031 0.46160451 0.93020248
v 0.39002544 0.46216097 0.88992453
v 0.42998099 0.46221662 0.86996430
v 0.52812648 0.46193838 0.81181157
v 0.35002542 0.46193838 0.90994430
v 0.52812648 0.07002669 0.77868354
v 0.52790439 0.07475656 0.78082854
v 0.52481723 0.07475656 0.78291392
v 0.52312922 0.07002669 0.78207976
v 0.50840408 0.07130653 0.79226840
v 0.50491714 0.07475656 0.79596257
v 0.50069726 0.07892998 0.80043125
v 0.49472281 0.07475656 0.80239749
v 0.48972559 0.07130653 0.80400622
v 0.46971449 0.06941459 0.81514817
v 0.46287385 0.07570253 0.82164270
v 0.44919255 0.09022603 0.83469135
v 0.43746573 0.08365985 0.83868337
v 0.42425084 0.07475656 0.84213918
v 0.41152459 0.06869119 0.84619081
v 0.39313480 0.07475656 0.85739237
v 0.39042521 0.06913636 0.85649860
v 0.38309595 0.07475656 0.86203980
v 0.37108040 0.06913636 0.86519766
v 0.35071394 0.07475656 0.87586302
v 0.34185219 0.07809529 0.88068920
v 0.34027529 0.07475656 0.88009340
v 0.33614427 0.07475656 0.88164252
v 0.32923698 0.07080573 0.88271499
v 0.31002542 0.07002669 0.88938826
v 0.30123031 0.07013798 0.89242697
v 0.30123031 0.46110371 0.93526697
v 0.33003652 0.46127063 0.92454207
v 0.40959233 0.46143758 0.89034164
v 0.44961452 0.46143758 0.87020266
v 0.50995880 0.46182710 0.82992470
v 0.52812648 0.46099243 0.82897139
v 0.36850405 0.46121499 0.90988475
v 0.39002544 0.46104807 0.90303272
v 0.52812648 0.07475656 0.78064978
v 0.52812648 0.08399373 0.78440350
v 0.52812648 0.08855666 0.78625059
v 0.51408982 0.09005909 0.79614127
v 0.51806539 0.10335838 0.79870337
v 0.50409538 0.09005909 0.80251664
v 0.48825973 0.09156152 0.81270528
v 0.47619978 0.08594132 0.81771028
v 0.46971449 0.09156152 0.82360893
v 0.45614424 0.11003585 0.83784920
v 0.44201875 0.09701478 0.84100711
v 0.43046963 0.09022603 0.84458208
v 0.40934801 0.09017038 0.85512823
v 0.39735469 0.08354856 0.85870320
v 0.41090271 0.07475656 0.84875286
v 0.39042521 0.09017038 0.86418480
v 0.36843741 0.09150588 0.87431383
v 0.37041411 0.07475656 0.86752141
v 0.35517812 0.08583003 0.87800801
v 0.34911484 0.09150588 0.88235754
v 0.33003652 0.09005909 0.88914996
v 0.30995882 0.09000345 0.89641905
v 0.31000322 0.07475656 0.89105660
v 0.30123031 0.08571874 0.89796817
v 0.30123031 0.46032467 0.94068903
v 0.35002542 0.46065855 0.92162251
v 0.42998099 0.46110371 0.88384712
v 0.46998101 0.46099243 0.86335063
v 0.48894823 0.46127063 0.84976578
v 0.52803767 0.46099243 0.82903099
v 0.52008653 0.45999080 0.84005380
v 0.52812648 0.45019719 0.84607160
v 0.36081943 0.46010208 0.92019260
v 0.40264064 0.46038032 0.90088773
v 0.44270727 0.46054724 0.88116586
v 0.52812648 0.09050426 0.78702515
v 0.52181888 0.11665767 0.80114627
v 0.51082498 0.11003585 0.80573416
v 0.52812648 0.10942375 0.79429424
v 0.49372336 0.11003585 0.81622070
v 0.48046407 0.09929626 0.82021272
v 0.46998101 0.11003585 0.83004391
v 0.45949793 0.12083109 0.83969629
v 0.44614980 0.11003585 0.84321165
v 0.42998099 0.11003585 0.85155326
v 0.41658846 0.11003585 0.85828608
v 0.40224087 0.09690350 0.86102688
v 0.39002544 0.11003585 0.87097722
v 0.37481165 0.11003585 0.87771010
v 0.36073059 0.09918497 0.88027215
v 0.35002542 0.11003585 0.88801789
v 0.32945907 0.11036972 0.89606154
v 0.31655514 0.10397048 0.89868319
v 0.30322921 0.09668092 0.90106648
v 0.30123031 0.09273008 0.90041107
v 0.30231860 0.46026903 0.94056988
v 0.30123031 0.45971256 0.94152319
v 0.48159677 0.46032467 0.86072898
v 0.50995880 0.46065855 0.84225833
v 0.49492270 0.45837706 0.85631984
v 0.50995880 0.45431495 0.85226822
v 0.50995880 0.44429874 0.86352938
v 0.52710479 0.44891733 0.84815705
v 0.45603320 0.45887789 0.87699509
v 0.52812648 0.44858345 0.84785914
v 0.37416756 0.45843273 0.91649842
v 0.41592214 0.45898917 0.89725322
v 0.31564453 0.45910046 0.93741196
v 0.33003652 0.45715287 0.93455201
v 0.33003652 0.44713667 0.94563437
v 0.39002544 0.44530037 0.92400587
v 0.52812648 0.12288997 0.79918003
v 0.52812648 0.13001260 0.80168247
v 0.52537245 0.13001260 0.80346996
v 0.50889271 0.13034648 0.81401610
v 0.49780998 0.12389159 0.81866360
v 0.48372892 0.11003585 0.82211936
v 0.49068061 0.13034648 0.82497936
v 0.46995878 0.12851018 0.83624047
v 0.46329582 0.13418603 0.84184128
v 0.45170227 0.12851018 0.84625041
v 0.43044740 0.12812066 0.85715401
v 0.41991994 0.12010770 0.85989481
v 0.40663841 0.11003585 0.86317188
v 0.41199100 0.12812066 0.86632979
v 0.39018089 0.12889969 0.87681633
v 0.37905374 0.12144319 0.87949753
v 0.36481720 0.11003585 0.88200003
v 0.34869283 0.13118117 0.89510822
v 0.33574447 0.12528273 0.89838529
v 0.32239634 0.11726977 0.90082818
v 0.30995882 0.11036972 0.90309232
v 0.30123031 0.09573494 0.90142399
v 0.30123031 0.11025843 0.90595227
v 0.30123031 0.45131010 0.95040101
v 0.46998101 0.45565045 0.87336051
v 0.48868173 0.45014152 0.86913013
v 0.46998101 0.44563425 0.88468122
v 0.48244074 0.44196165 0.88128501
v 0.52079719 0.44073743 0.86043108
v 0.42998099 0.45609561 0.89379740
v 0.44970340 0.45069799 0.88968623
v 0.52812648 0.42994219 0.85774982
v 0.39002544 0.45526093 0.91304266
v 0.40943685 0.45047539 0.90952724
v 0.42998099 0.44613504 0.90493941
v 0.30123031 0.44735926 0.95445263
v 0.30123031 0.44090438 0.96053004
v 0.35002542 0.44296324 0.94205940
v 0.36044186 0.44023663 0.94015276
v 0.40290716 0.44196165 0.92126501
v 0.52812648 0.14698450 0.80728328
v 0.51484495 0.15004501 0.81675696
v 0.50149679 0.13719088 0.82086813
v 0.48814869 0.15171437 0.83320177
v 0.47662175 0.14614981 0.83808756
v 0.48028639 0.15944912 0.84011334
v 0.46995878 0.15171437 0.84345001
v 0.46998101 0.17002177 0.84887201
v 0.44874835 0.15071276 0.85459197
v 0.43742132 0.14442481 0.85870320
v 0.42409539 0.13346264 0.86198020
v 0.40872616 0.15087970 0.87473094
v 0.39695489 0.14475867 0.87854421
v 0.38362896 0.13479812 0.88152337
v 0.37143576 0.12889969 0.88503873
v 0.35526696 0.15004501 0.89808738
v 0.34111926 0.13858202 0.90035152
v 0.32945907 0.13118117 0.90243691
v 0.31002542 0.13001260 0.90905058
v 0.30123031 0.12127625 0.90934849
v 0.44337356 0.44251809 0.90166235
v 0.45627749 0.42994219 0.89796817
v 0.46998101 0.42994219 0.89063954
v 0.48483941 0.42994219 0.88265544
v 0.49483386 0.42994219 0.87705469
v 0.50995880 0.42994219 0.86847472
v 0.52228528 0.42994219 0.86138439
v 0.52812648 0.40996546 0.85882235
v 0.30123031 0.44051486 0.96058965
v 0.31402320 0.42994219 0.95796800
v 0.30160788 0.44084874 0.96041089
v 0.37205762 0.42994219 0.93669701
v 0.39002544 0.42994219 0.92924917
v 0.40568340 0.42994219 0.92251629
v 0.33003652 0.42994219 0.95242679
v 0.35002542 0.42994219 0.94527686
v 0.36206317 0.42994219 0.94074857
v 0.41565564 0.42994219 0.91792846
v 0.42998099 0.42994219 0.91113597
v 0.52812648 0.17085645 0.81485027
v 0.51826531 0.16351123 0.81890190
v 0.50482833 0.15004501 0.82295352
v 0.49305707 0.17002177 0.83600217
v 0.48304042 0.17002177 0.84166253
v 0.49025863 0.19144531 0.84374791
v 0.46900377 0.18999852 0.85506862
v 0.45823199 0.18326542 0.85906065
v 0.45461178 0.17002177 0.85715401
v 0.44126362 0.15777974 0.86060983
v 0.43044740 0.15071276 0.86400604
v 0.41465619 0.17002177 0.87735260
v 0.40117478 0.15811361 0.88051045
v 0.39018089 0.15087970 0.88337040
v 0.37003654 0.15004501 0.89189076
v 0.35926473 0.16117412 0.89963651
v 0.34527251 0.15004501 0.90201986
v 0.33003652 0.15004501 0.90768015
v 0.30871505 0.15121357 0.91566432
v 0.30123031 0.15855879 0.92031169
v 0.30123031 0.13034648 0.91208935
v 0.44628304 0.42994219 0.90321147
v 0.46998101 0.40996546 0.89165246
v 0.45716590 0.40996546 0.89850444
v 0.48570561 0.40996546 0.88307250
v 0.49572226 0.40996546 0.87759089
v 0.50995880 0.40996546 0.86948764
v 0.52310705 0.40996546 0.86180151
v 0.52812648 0.38993305 0.85774982
v 0.52226305 0.38993305 0.86132479
v 0.30123031 0.42994219 0.96207923
v 0.30402875 0.42994219 0.96124506
v 0.31502265 0.40996546 0.95832551
v 0.33003652 0.40996546 0.95320141
v 0.37310150 0.40996546 0.93717360
v 0.39002544 0.40996546 0.93014288
v 0.41661066 0.40996546 0.91840506
v 0.40666062 0.40996546 0.92293334
v 0.35002542 0.40996546 0.94605148
v 0.36310706 0.40996546 0.94116569
v 0.42998099 0.40996546 0.91208935
v 0.52812648 0.18348800 0.81866360
v 0.52148569 0.17686617 0.82092774
v 0.51093602 0.17013305 0.82539642
v 0.49709928 0.18576945 0.83832586
v 0.48996991 0.21003093 0.84893161
v 0.47495601 0.21003093 0.85721362
v 0.50038636 0.19912440 0.84017295
v 0.46169671 0.19662035 0.86084819
v 0.44996989 0.21003093 0.87044096
v 0.45092493 0.18999852 0.86460185
v 0.42918146 0.18977594 0.87556511
v 0.44461733 0.17002177 0.86233771
v 0.42998099 0.17002177 0.86972600
v 0.41832080 0.18298718 0.87914002
v 0.41103598 0.18977594 0.88456208
v 0.40466174 0.17002177 0.88217878
v 0.39002544 0.17002177 0.88885206
v 0.37016979 0.16874191 0.89707446
v 0.37692159 0.18487912 0.89868319
v 0.36359566 0.17447340 0.90142399
v 0.35002542 0.18999852 0.91095722
v 0.35158011 0.16874191 0.90470105
v 0.33003652 0.17002177 0.91322136
v 0.31553349 0.17002177 0.91840506
v 0.30553904 0.17002177 0.92186087
v 0.30123031 0.18916383 0.92811704
v 0.44717145 0.40996546 0.90362859
v 0.46998101 0.38993305 0.89057994
v 0.48477280 0.38993305 0.88259584
v 0.45609984 0.38993305 0.89796817
v 0.49476725 0.38993305 0.87705469
v 0.50995880 0.38993305 0.86847472
v 0.52812648 0.38264346 0.85715401
v 0.52086383 0.36995625 0.86049068
v 0.30123031 0.40996546 0.96273464
v 0.30502820 0.40996546 0.96160257
v 0.31329030 0.38993305 0.95772970
v 0.33003652 0.38993305 0.95212889
v 0.35002542 0.38993305 0.94509816
v 0.37183553 0.38993305 0.93669701
v 0.39002544 0.38993305 0.92912996
v 0.41547796 0.38993305 0.91786885
v 0.40552792 0.38993305 0.92239714
v 0.36184108 0.38993305 0.94068903
v 0.42998099 0.38993305 0.91101682
v 0.52812648 0.19406065 0.82170230
v 0.52452850 0.18999852 0.82283437
v 0.50820422 0.19144531 0.83326137
v 0.50280720 0.21003093 0.84166253
v 0.48874834 0.23028591 0.85477072
v 0.47822088 0.22377539 0.85900110
v 0.46496156 0.21003093 0.86263561
v 0.51280165 0.21003093 0.83558506
v 0.44921476 0.22945122 0.87574387
v 0.43877611 0.22238424 0.87937838
v 0.42196324 0.19628647 0.88092756
v 0.41001433 0.21003093 0.89034164
v 0.39457846 0.21003093 0.89755112
v 0.38867062 0.19094449 0.89510822
v 0.38111925 0.19823407 0.90041107
v 0.37016979 0.19094449 0.90309232
v 0.34927028 0.21003093 0.91631967
v 0.33772117 0.20340911 0.91912007
v 0.37003654 0.21003093 0.90797812
v 0.33063620 0.18832916 0.91780925
v 0.32439524 0.19394936 0.92156297
v 0.31957567 0.18059443 0.91977549
v 0.31175780 0.18832916 0.92448252
v 0.30123031 0.20118329 0.93115580
v 0.44610539 0.38993305 0.90303272
v 0.46998101 0.36995625 0.88891160
v 0.48326251 0.36995625 0.88176167
v 0.45443410 0.36995625 0.89707446
v 0.44443965 0.36995625 0.90225816
v 0.49325696 0.36995625 0.87622046
v 0.50995880 0.36995625 0.86680645
v 0.52812648 0.36995625 0.85608155
v 0.52004206 0.35960621 0.86001396
v 0.52812648 0.36734092 0.85584319
v 0.30123031 0.38993305 0.96166217
v 0.30329585 0.38993305 0.96100676
v 0.30889273 0.36901030 0.95743179
v 0.33003652 0.36995625 0.95046055
v 0.30145240 0.37502003 0.96041089
v 0.35140243 0.37034580 0.94295317
v 0.36064175 0.37730148 0.94015276
v 0.36839300 0.37034580 0.93645865
v 0.39002544 0.36995625 0.92752123
v 0.40370670 0.36995625 0.92162251
v 0.41370115 0.36995625 0.91703469
v 0.42998099 0.36995625 0.90934849
v 0.52812648 0.20218490 0.82396644
v 0.51708817 0.23000768 0.83820671
v 0.50709373 0.23000768 0.84416497
v 0.49396768 0.24998444 0.85661781
v 0.48126364 0.23713031 0.86066937
v 0.47091383 0.23028591 0.86454231
v 0.52812648 0.21086562 0.82634974
v 0.45532247 0.24998444 0.87753129
v 0.44204098 0.23573917 0.88098711
v 0.43124697 0.22945122 0.88480043
v 0.40908152 0.22989640 0.89576364
v 0.42556125 0.21003093 0.88271499
v 0.39833191 0.22310764 0.89921945
v 0.38458401 0.21003093 0.90190065
v 0.35615537 0.23000768 0.91846466
v 0.34211871 0.21670839 0.92072880
v 0.33063620 0.21003093 0.92329085
v 0.37003654 0.23000768 0.91286385
v 0.31002542 0.21003093 0.93044078
v 0.30123031 0.21003093 0.93324119
v 0.46998101 0.34997952 0.88676667
v 0.48133025 0.34997952 0.88068920
v 0.49132469 0.34997952 0.87520760
v 0.45230192 0.34997952 0.89600194
v 0.44230750 0.34997952 0.90112609
v 0.51120257 0.35176018 0.86418480
v 0.51866508 0.34630692 0.85917985
v 0.52812648 0.35187146 0.85417485
v 0.30123031 0.37374020 0.96035135
v 0.30123031 0.36305624 0.95933843
v 0.31002542 0.34997952 0.95510805
v 0.33003652 0.34997952 0.94843477
v 0.34696046 0.34997952 0.94247651
v 0.35899821 0.36400220 0.93955696
v 0.37003654 0.34997952 0.93371785
v 0.39002544 0.34997952 0.92543584
v 0.40137467 0.34997952 0.92060965
v 0.41136912 0.34997952 0.91596222
v 0.42998099 0.34997952 0.90714395
v 0.51944244 0.24135938 0.83963668
v 0.52812648 0.23000768 0.83129513
v 0.51164675 0.24881589 0.84601206
v 0.49783218 0.26996121 0.85876274
v 0.48397323 0.24998444 0.86215895
v 0.46998101 0.24998444 0.86978555
v 0.45834303 0.26422971 0.87908047
v 0.44530582 0.24998444 0.88265544
v 0.42998099 0.24998444 0.89028203
v 0.41494492 0.24998444 0.89755112
v 0.40177447 0.23646256 0.90076858
v 0.39100266 0.22989640 0.90398604
v 0.35946462 0.24096987 0.91971588
v 0.34616092 0.23000768 0.92227793
v 0.33003652 0.23000768 0.92817664
v 0.36983663 0.24859330 0.91715384
v 0.30842632 0.23139882 0.93592238
v 0.30123031 0.22811574 0.93747151
v 0.47106928 0.33144954 0.88384712
v 0.48017535 0.33912861 0.88003379
v 0.48810428 0.33144954 0.87467134
v 0.50682718 0.32994711 0.86388689
v 0.44843742 0.33028099 0.89540613
v 0.44073057 0.33712539 0.90029192
v 0.51684386 0.32994711 0.85810733
v 0.52812648 0.32994711 0.85125530
v 0.30123031 0.34997952 0.95784885
v 0.30123031 0.33957380 0.95659763
v 0.31002542 0.32994711 0.95266515
v 0.33003652 0.32994711 0.94599187
v 0.34358457 0.32994711 0.94128484
v 0.35695490 0.34997952 0.93878233
v 0.37003654 0.32994711 0.93121541
v 0.39080277 0.33189470 0.92287380
v 0.35357901 0.32994711 0.93759072
v 0.40006429 0.33979636 0.91995424
v 0.40805984 0.33189470 0.91524720
v 0.43131360 0.33028099 0.90398604
v 0.52812648 0.24965057 0.83612132
v 0.52812648 0.26217082 0.83898127
v 0.52192992 0.25471431 0.84112626
v 0.50995880 0.26996121 0.85161281
v 0.49976444 0.28053385 0.85983527
v 0.48783773 0.26996121 0.86430395
v 0.46851516 0.27051765 0.87490970
v 0.46085274 0.27752900 0.88045084
v 0.45099154 0.27051765 0.88414502
v 0.42858177 0.27051765 0.89528698
v 0.41818756 0.26422971 0.89910030
v 0.40499488 0.24998444 0.90225816
v 0.39002544 0.24998444 0.90893143
v 0.36301821 0.25432479 0.92114592
v 0.35169119 0.24859330 0.92430377
v 0.33003652 0.24998444 0.93252623
v 0.31417868 0.24998444 0.93800783
v 0.37687719 0.26996121 0.91864341
v 0.30123031 0.23941179 0.94009316
v 0.46620533 0.30997038 0.88325125
v 0.47844297 0.32577372 0.87914002
v 0.48996991 0.30997038 0.87044096
v 0.50427306 0.30997038 0.86245692
v 0.44996989 0.30997038 0.89165246
v 0.43888718 0.32382610 0.89939821
v 0.51426750 0.30997038 0.85661781
v 0.52812648 0.32755435 0.85089785
v 0.30123031 0.32994711 0.95534635
v 0.30123031 0.32237932 0.95433342
v 0.30123031 0.31047118 0.95266515
v 0.31002542 0.30997038 0.94986475
v 0.33105820 0.31024858 0.94289362
v 0.34118590 0.31709298 0.94039106
v 0.37003654 0.30997038 0.92835540
v 0.38516146 0.30997038 0.92215878
v 0.39797658 0.32644147 0.91906047
v 0.34871504 0.31024858 0.93657780
v 0.41001433 0.30997038 0.91113597
v 0.42673835 0.30997038 0.90321147
v 0.52812648 0.26996121 0.84064960
v 0.52461731 0.26996121 0.84279460
v 0.50913703 0.28832424 0.85578364
v 0.50191879 0.29388881 0.86108649
v 0.49185774 0.28832424 0.86567438
v 0.46300709 0.28993797 0.88152337
v 0.44996989 0.28993797 0.88825619
v 0.47300154 0.28993797 0.87622046
v 0.43331248 0.28993797 0.89665735
v 0.42098600 0.27752900 0.90047067
v 0.41094714 0.27051765 0.90374774
v 0.39002544 0.26996121 0.91304266
v 0.36688274 0.26996121 0.92275465
v 0.35002542 0.26996121 0.92924917
v 0.32910371 0.26990557 0.93681616
v 0.31824309 0.26322809 0.93931866
v 0.30418423 0.24998444 0.94128484
v 0.37949795 0.28120160 0.91977549
v 0.30123031 0.24998444 0.94223821
v 0.47619978 0.30997038 0.87794840
v 0.43673280 0.30997038 0.89838529
v 0.52783775 0.28993797 0.84482038
v 0.52812648 0.30908003 0.84797829
v 0.30123031 0.28993797 0.94950724
v 0.31002542 0.28993797 0.94676650
v 0.32515037 0.28993797 0.94170189
v 0.33838746 0.30379370 0.93937820
v 0.35002542 0.28993797 0.93282413
v 0.37170228 0.28871375 0.92418456
v 0.38227418 0.29450089 0.92090756
v 0.39517811 0.30997038 0.91786885
v 0.41001433 0.28993797 0.90779936
v 0.42329583 0.28993797 0.90154314
v 0.52812648 0.28993797 0.84464169
v 0.38938135 0.28871375 0.91679633
v 0.33514482 0.28993797 0.93824613
v 0.32184109 0.27652737 0.94056988
v 0.31095824 0.26990557 0.94295317
v 0.30123031 0.26990557 0.94599187
f 1 2 9
f 1 9 15
f 1 15 26
f 1 26 39
f 1 39 38
f 1 38 58
f 1 58 80
f 1 80 81
f 1 81 106
f 1 106 141
f 1 141 144
f 1 144 180
f 1 180 206
f 1 206 182
f 1 182 181
f 1 181 146
f 1 146 145
f 1 145 107
f 1 107 83
f 1 83 61
f 1 61 42
f 1 42 28
f 1 28 17
f 1 17 11
f 1 11 3
f 1 3 4
f 1 4 5
f 1 5 6
f 1 6 7
f 1 7 8
f 1 8 13
f 1 13 20
f 1 20 19
f 1 19 30
f 1 30 47
f 1 47 69
f 1 69 91
f 1 91 93
f 1 93 122
f 1 122 164
f 1 164 192
f 1 192 217
f 1 217 243
f 1 243 266
f 1 266 265
f 1 265 290
f 1 290 323
f 1 323 357
f 1 357 390
f 1 390 428
f 1 428 464
f 1 464 504
f 1 504 549
f 1 549 593
f 1 593 595
f 1 595 635
f 1 635 672
f 1 672 711
f 1 711 746
f 1 746 757
f 1 757 724
f 1 724 686
f 1 686 685
f 1 685 648
f 1 648 614
f 1 614 608
f 1 608 562
f 1 562 517
f 1 517 476
f 1 476 437
f 1 437 398
f 1 398 397
f 1 397 364
f 1 364 361
f 1 361 328
f 1 328 327
f 1 327 326
f 1 326 292
f 1 292 267
f 1 267 244
f 1 244 218
f 1 218 193
f 1 193 165
f 1 165 123
f 1 123 94
f 1 94 71
f 1 71 51
f 1 51 50
f 1 50 49
f 1 49 33
f 1 33 32
f 1 32 22
f 1 22 16
f 1 16 10
f 1 10 2
f 2 10 9
f 3 11 18
f 3 18 29
f 3 29 46
f 3 46 64
f 3 64 85
f 3 85 109
f 3 109 148
f 3 148 162
f 3 162 190
f 3 190 215
f 3 215 241
f 3 241 261
f 3 261 285
f 3 285 286
f 3 286 317
f 3 317 349
f 3 349 380
f 3 380 418
f 3 418 419
f 3 419 456
f 3 456 496
f 3 496 495
f 3 495 542
f 3 542 585
f 3 585 627
f 3 627 664
f 3 664 703
f 3 703 742
f 3 742 762
f 3 762 747
f 3 747 714
f 3 714 713
f 3 713 712
f 3 712 674
f 3 674 673
f 3 673 637
f 3 637 636
f 3 636 596
f 3 596 551
f 3 551 506
f 3 506 465
f 3 465 433
f 3 433 432
f 3 432 420
f 3 420 382
f 3 382 350
f 3 350 318
f 3 318 287
f 3 287 263
f 3 263 242
f 3 242 216
f 3 216 191
f 3 191 163
f 3 163 121
f 3 121 92
f 3 92 70
f 3 70 48
f 3 48 31
f 3 31 21
f 3 21 12
f 3 12 7
f 3 7 6
f 3 6 5
f 3 5 4
f 7 12 13
f 7 13 8
f 9 10 14
f 9 14 15
f 10 16 14
f 11 17 18
f 12 19 20
f 12 20 13
f 12 21 19
f 14 16 22
f 14 22 23
f 14 23 24
f 14 24 25
f 14 25 26
f 14 26 15
f 17 27 18
f 17 28 27
f 18 27 29
f 19 21 31
f 19 31 30
f 22 32 23
f 23 33 34
f 23 34 35
f 23 35 36
f 23 36 37
f 23 37 25
f 23 25 24
f 23 32 33
f 25 38 39
f 25 39 26
f 25 37 36
f 25 36 40
f 25 40 41
f 25 41 38
f 27 28 42
f 27 42 43
f 27 43 44
f 27 44 29
f 29 45 46
f 29 44 45
f 30 31 47
f 31 48 47
f 33 49 34
f 34 49 50
f 34 50 51
f 34 51 52
f 34 52 53
f 34 53 54
f 34 54 35
f 35 54 36
f 36 55 40
f 36 54 56
f 36 56 57
f 36 57 55
f 38 41 58
f 40 55 41
f 41 55 59
f 41 59 60
f 41 60 58
f 42 61 43
f 43 61 62
f 43 62 63
f 43 63 44
f 44 63 45
f 45 64 46
f 45 63 65
f 45 65 66
f 45 66 67
f 45 67 68
f 45 68 64
f 47 48 69
f 48 70 69
f 51 71 72
f 51 72 73
f 51 73 52
f 52 73 53
f 53 73 74
f 53 74 54
f 54 74 56
f 55 57 75
f 55 75 59
f 56 74 73
f 56 73 76
f 56 76 77
f 56 77 78
f 56 78 79
f 56 79 57
f 57 79 75
f 58 60 80
f 59 75 60
f 60 81 80
f 60 75 82
f 60 82 81
f 61 83 62
f 62 84 65
f 62 65 63
f 62 83 84
f 64 68 85
f 65 84 86
f 65 86 87
f 65 87 88
f 65 88 66
f 66 88 67
f 67 89 90
f 67 90 68
f 67 88 89
f 68 90 85
f 69 70 91
f 70 92 93
f 70 93 91
f 71 94 95
f 71 95 72
f 72 95 96
f 72 96 73
f 73 96 97
f 73 97 98
f 73 98 76
f 75 79 78
f 75 78 99
f 75 99 100
f 75 100 101
f 75 101 82
f 76 98 77
f 77 98 102
f 77 102 78
f 78 102 103
f 78 103 104
f 78 104 99
f 81 82 105
f 81 105 106
f 82 101 105
f 83 107 108
f 83 108 84
f 84 108 86
f 85 90 109
f 86 108 110
f 86 110 111
f 86 111 112
f 86 112 113
f 86 113 114
f 86 114 87
f 87 115 88
f 87 114 115
f 88 115 116
f 88 116 117
f 88 117 89
f 89 117 118
f 89 118 119
f 89 119 90
f 90 119 120
f 90 120 109
f 92 121 93
f 93 121 122
f 94 123 124
f 94 124 95
f 95 124 125
f 95 125 126
f 95 126 96
f 96 126 97
f 97 126 127
f 97 127 98
f 98 127 128
f 98 128 102
f 99 104 100
f 100 104 129
f 100 129 130
f 100 130 105
f 100 105 101
f 102 128 131
f 102 131 132
f 102 132 103
f 103 132 131
f 103 131 133
f 103 133 134
f 103 134 135
f 103 135 136
f 103 136 137
f 103 137 138
f 103 138 139
f 103 139 140
f 103 140 104
f 104 140 129
f 105 141 106
f 105 130 142
f 105 142 143
f 105 143 144
f 105 144 141
f 107 145 108
f 108 145 146
f 108 146 147
f 108 147 110
f 109 120 148
f 110 147 111
f 111 149 112
f 111 147 150
f 111 150 151
f 111 151 149
f 112 149 113
f 113 152 116
f 113 116 114
f 113 149 153
f 113 153 152
f 114 116 115
f 116 154 155
f 116 155 156
f 116 156 157
f 116 157 158
f 116 158 117
f 116 152 154
f 117 158 159
f 117 159 118
f 118 159 160
f 118 160 119
f 119 160 161
f 119 161 120
f 120 161 162
f 120 162 148
f 121 163 164
f 121 164 122
f 123 165 124
f 124 165 166
f 124 166 167
f 124 167 125
f 125 167 126
f 126 167 168
f 126 168 169
f 126 169 127
f 127 169 131
f 127 131 128
f 129 140 139
f 129 139 170
f 129 170 130
f 130 171 142
f 130 170 151
f 130 151 171
f 131 169 172
f 131 172 173
f 131 173 133
f 133 173 134
f 134 173 174
f 134 174 175
f 134 175 176
f 134 176 135
f 135 176 136
f 136 176 137
f 137 176 177
f 137 177 154
f 137 154 152
f 137 152 153
f 137 153 178
f 137 178 139
f 137 139 138
f 139 178 170
f 142 171 179
f 142 179 180
f 142 180 143
f 143 180 144
f 146 181 147
f 147 181 182
f 147 182 150
f 149 151 178
f 149 178 153
f 150 182 179
f 150 179 171
f 150 171 151
f 151 170 178
f 154 183 155
f 154 177 183
f 155 183 184
f 155 184 185
f 155 185 156
f 156 185 186
f 156 186 157
f 157 186 187
f 157 187 159
f 157 159 158
f 159 187 188
f 159 188 160
f 160 188 189
f 160 189 161
f 161 189 190
f 161 190 162
f 163 191 164
f 164 191 192
f 165 193 194
f 165 194 166
f 166 194 195
f 166 195 167
f 167 195 196
f 167 196 197
f 167 197 168
f 168 197 169
f 169 197 172
f 172 197 198
f 172 198 199
f 172 199 174
f 172 174 173
f 174 199 200
f 174 200 201
f 174 201 202
f 174 202 203
f 174 203 204
f 174 204 175
f 175 204 205
f 175 205 176
f 176 205 183
f 176 183 177
f 179 182 206
f 179 206 180
f 183 205 207
f 183 207 184
f 184 207 186
f 184 186 185
f 186 208 209
f 186 209 187
f 186 207 210
f 186 210 208
f 187 209 211
f 187 211 212
f 187 212 188
f 188 212 213
f 188 213 189
f 189 213 214
f 189 214 190
f 190 214 215
f 191 216 217
f 191 217 192
f 193 218 219
f 193 219 194
f 194 219 220
f 194 220 221
f 194 221 195
f 195 221 196
f 196 221 222
f 196 222 197
f 197 222 198
f 198 222 200
f 198 200 199
f 200 223 224
f 200 224 201
f 200 222 225
f 200 225 226
f 200 226 223
f 201 224 202
f 202 227 228
f 202 228 229
f 202 229 203
f 202 224 227
f 203 229 204
f 204 229 230
f 204 230 207
f 204 207 205
f 207 230 231
f 207 231 232
f 207 232 210
f 208 210 233
f 208 233 234
f 208 234 235
f 208 235 209
f 209 235 211
f 210 232 233
f 211 235 236
f 211 236 237
f 211 237 238
f 211 238 239
f 211 239 212
f 212 239 213
f 213 239 240
f 213 240 214
f 214 240 241
f 214 241 215
f 216 242 243
f 216 243 217
f 218 244 219
f 219 244 245
f 219 245 246
f 219 246 220
f 220 246 221
f 221 246 225
f 221 225 222
f 223 226 247
f 223 247 248
f 223 248 249
f 223 249 224
f 224 249 227
f 225 246 247
f 225 247 226
f 227 249 250
f 227 250 251
f 227 251 252
f 227 252 228
f 228 253 229
f 228 252 254
f 228 254 253
f 229 253 230
f 230 253 231
f 231 254 255
f 231 255 233
f 231 233 232
f 231 253 254
f 233 255 234
f 234 255 256
f 234 256 257
f 234 257 235
f 235 257 236
f 236 257 258
f 236 258 259
f 236 259 237
f 237 259 260
f 237 260 238
f 238 261 240
f 238 240 239
f 238 260 262
f 238 262 261
f 240 261 241
f 242 263 264
f 242 264 265
f 242 265 266
f 242 266 243
f 244 267 268
f 244 268 245
f 245 268 246
f 246 268 269
f 246 269 270
f 246 270 271
f 246 271 247
f 247 272 248
f 247 271 272
f 248 273 249
f 248 272 273
f 249 273 250
f 250 274 275
f 250 275 251
f 250 273 274
f 251 275 276
f 251 276 252
f 252 276 277
f 252 277 254
f 254 277 278
f 254 278 255
f 255 278 256
f 256 278 279
f 256 279 280
f 256 280 257
f 257 280 258
f 258 281 282
f 258 282 259
f 258 280 281
f 259 282 283
f 259 283 260
f 260 283 284
f 260 284 262
f 261 262 285
f 262 284 286
f 262 286 285
f 263 287 264
f 264 288 289
f 264 289 290
f 264 290 265
f 264 287 291
f 264 291 288
f 267 292 268
f 268 293 294
f 268 294 295
f 268 295 296
f 268 296 270
f 268 270 269
f 268 292 293
f 270 296 297
f 270 297 298
f 270 298 299
f 270 299 272
f 270 272 271
f 272 299 300
f 272 300 301
f 272 301 273
f 273 301 302
f 273 302 274
f 274 302 303
f 274 303 304
f 274 304 275
f 275 304 305
f 275 305 276
f 276 305 306
f 276 306 277
f 277 306 307
f 277 307 308
f 277 308 278
f 278 308 279
f 279 309 310
f 279 310 280
f 279 308 309
f 280 310 281
f 281 310 311
f 281 311 312
f 281 312 313
f 281 313 282
f 282 313 314
f 282 314 315
f 282 315 283
f 283 315 316
f 283 316 284
f 284 316 317
f 284 317 286
f 287 318 319
f 287 319 291
f 288 320 289
f 288 291 320
f 289 320 321
f 289 321 322
f 289 322 290
f 290 322 323
f 291 324 325
f 291 325 320
f 291 319 324
f 292 326 293
f 293 326 327
f 293 327 328
f 293 328 294
f 294 328 329
f 294 329 298
f 294 298 297
f 294 297 296
f 294 296 295
f 298 329 330
f 298 330 331
f 298 331 332
f 298 332 299
f 299 332 333
f 299 333 302
f 299 302 301
f 299 301 300
f 302 333 334
f 302 334 303
f 303 334 335
f 303 335 336
f 303 336 304
f 304 336 337
f 304 337 305
f 305 337 338
f 305 338 339
f 305 339 340
f 305 340 306
f 306 340 339
f 306 339 307
f 307 339 309
f 307 309 308
f 309 339 341
f 309 341 342
f 309 342 343
f 309 343 310
f 310 343 344
f 310 344 311
f 311 344 312
f 312 344 345
f 312 345 346
f 312 346 314
f 312 314 313
f 314 346 347
f 314 347 348
f 314 348 316
f 314 316 315
f 316 348 349
f 316 349 317
f 318 350 319
f 319 350 351
f 319 351 325
f 319 325 324
f 320 352 321
f 320 325 352
f 321 353 354
f 321 354 322
f 321 352 353
f 322 354 355
f 322 355 323
f 323 355 356
f 323 356 357
f 325 351 358
f 325 358 359
f 325 359 360
f 325 360 352
f 328 361 329
f 329 361 330
f 330 362 363
f 330 363 331
f 330 361 364
f 330 364 362
f 331 363 365
f 331 365 332
f 332 365 366
f 332 366 333
f 333 366 334
f 334 367 335
f 334 366 367
f 335 368 369
f 335 369 336
f 335 367 368
f 336 369 370
f 336 370 337
f 337 370 371
f 337 371 372
f 337 372 338
f 338 372 339
f 339 372 341
f 341 373 374
f 341 374 342
f 341 372 373
f 342 374 375
f 342 375 344
f 342 344 343
f 344 375 345
f 345 375 376
f 345 376 377
f 345 377 346
f 346 377 378
f 346 378 347
f 347 349 348
f 347 378 379
f 347 379 380
f 347 380 349
f 350 381 351
f 350 382 381
f 351 381 358
f 352 360 353
f 353 360 383
f 353 383 384
f 353 384 355
f 353 355 354
f 355 384 356
f 356 385 386
f 356 386 387
f 356 387 388
f 356 388 357
f 356 384 383
f 356 383 389
f 356 389 385
f 357 388 390
f 358 391 392
f 358 392 359
f 358 381 393
f 358 393 394
f 358 394 395
f 358 395 396
f 358 396 391
f 359 392 360
f 360 392 389
f 360 389 383
f 362 364 397
f 362 397 398
f 362 398 399
f 362 399 400
f 362 400 363
f 363 400 401
f 363 401 365
f 365 401 402
f 365 402 366
f 366 402 367
f 367 402 403
f 367 403 368
f 368 403 404
f 368 404 405
f 368 405 406
f 368 406 369
f 369 406 407
f 369 407 370
f 370 407 408
f 370 408 371
f 371 408 409
f 371 409 372
f 372 409 373
f 373 409 410
f 373 410 411
f 373 411 412
f 373 412 374
f 374 412 413
f 374 413 375
f 375 413 376
f 376 414 415
f 376 415 377
f 376 413 414
f 377 415 416
f 377 416 378
f 378 416 417
f 378 417 379
f 379 418 380
f 379 417 419
f 379 419 418
f 381 382 395
f 381 395 393
f 382 420 395
f 385 389 421
f 385 421 422
f 385 422 387
f 385 387 386
f 387 422 423
f 387 423 424
f 387 424 425
f 387 425 388
f 388 425 390
f 389 392 426
f 389 426 427
f 389 427 421
f 390 425 428
f 391 396 429
f 391 429 392
f 392 429 396
f 392 396 430
f 392 430 431
f 392 431 426
f 393 395 394
f 395 420 432
f 395 432 433
f 395 433 434
f 395 434 396
f 396 434 435
f 396 435 436
f 396 436 431
f 396 431 430
f 398 437 399
f 399 437 438
f 399 438 400
f 400 438 439
f 400 439 401
f 401 439 403
f 401 403 402
f 403 439 440
f 403 440 441
f 403 441 404
f 404 441 405
f 405 441 442
f 405 442 443
f 405 443 444
f 405 444 445
f 405 445 446
f 405 446 406
f 406 446 407
f 407 446 447
f 407 447 408
f 408 447 410
f 408 410 409
f 410 448 449
f 410 449 411
f 410 447 448
f 411 449 450
f 411 450 412
f 412 450 451
f 412 451 413
f 413 451 414
f 414 452 453
f 414 453 415
f 414 451 452
f 415 453 454
f 415 454 416
f 416 454 455
f 416 455 417
f 417 455 456
f 417 456 419
f 421 427 423
f 421 423 422
f 423 427 431
f 423 431 457
f 423 457 424
f 424 457 458
f 424 458 459
f 424 459 460
f 424 460 425
f 425 460 461
f 425 461 462
f 425 462 463
f 425 463 428
f 426 431 427
f 428 463 464
f 431 436 457
f 433 465 466
f 433 466 467
f 433 467 435
f 433 435 434
f 435 468 469
f 435 469 470
f 435 470 436
f 435 467 471
f 435 471 472
f 435 472 473
f 435 473 468
f 436 470 474
f 436 474 475
f 436 475 457
f 437 476 477
f 437 477 438
f 438 477 478
f 438 478 439
f 439 478 440
f 440 478 479
f 440 479 442
f 440 442 441
f 442 480 444
f 442 444 443
f 442 479 480
f 444 481 482
f 444 482 483
f 444 483 484
f 444 484 445
f 444 480 481
f 445 484 485
f 445 485 446
f 446 485 486
f 446 486 448
f 446 448 447
f 448 486 487
f 448 487 488
f 448 488 449
f 449 488 489
f 449 489 450
f 450 489 490
f 450 490 451
f 451 490 452
f 452 490 491
f 452 491 492
f 452 492 453
f 453 492 493
f 453 493 454
f 454 493 494
f 454 494 455
f 455 494 495
f 455 495 496
f 455 496 456
f 457 475 497
f 457 497 458
f 458 498 459
f 458 497 499
f 458 499 498
f 459 498 460
f 460 500 501
f 460 501 461
f 460 498 500
f 461 501 462
f 462 501 502
f 462 502 463
f 463 503 464
f 463 502 503
f 464 503 505
f 464 505 504
f 465 506 507
f 465 507 466
f 466 507 552
f 466 552 508
f 466 508 509
f 466 509 471
f 466 471 467
f 468 473 510
f 468 510 469
f 469 510 511
f 469 511 470
f 470 512 474
f 470 511 513
f 470 513 512
f 471 509 514
f 471 514 472
f 472 514 515
f 472 515 473
f 473 515 510
f 474 516 475
f 474 512 516
f 475 516 497
f 476 517 518
f 476 518 477
f 477 518 519
f 477 519 478
f 478 519 479
f 479 519 520
f 479 520 480
f 480 520 481
f 481 521 522
f 481 522 482
f 481 520 523
f 481 523 521
f 482 522 524
f 482 524 483
f 483 524 525
f 483 525 526
f 483 526 527
f 483 527 528
f 483 528 485
f 483 485 484
f 485 528 529
f 485 529 486
f 486 529 487
f 487 529 530
f 487 530 531
f 487 531 532
f 487 532 488
f 488 532 533
f 488 533 489
f 489 533 490
f 490 534 491
f 490 533 535
f 490 535 534
f 491 535 536
f 491 536 537
f 491 537 538
f 491 538 492
f 491 534 535
f 492 538 539
f 492 539 493
f 493 539 494
f 494 539 540
f 494 540 495
f 495 540 541
f 495 541 542
f 497 543 499
f 497 516 543
f 498 544 545
f 498 545 500
f 498 499 544
f 499 543 546
f 499 546 544
f 500 545 501
f 501 545 547
f 501 547 548
f 501 548 502
f 502 548 505
f 502 505 503
f 504 505 549
f 505 550 549
f 505 548 550
f 506 551 552
f 506 552 507
f 508 552 597
f 508 597 553
f 508 553 554
f 508 554 509
f 509 554 555
f 509 555 514
f 510 556 511
f 510 515 560
f 510 560 556
f 511 557 513
f 511 556 557
f 512 558 516
f 512 513 559
f 512 559 558
f 513 557 559
f 514 555 560
f 514 560 515
f 516 561 543
f 516 558 561
f 517 562 563
f 517 563 518
f 518 563 564
f 518 564 519
f 519 564 520
f 520 564 523
f 521 523 565
f 521 565 566
f 521 566 567
f 521 567 522
f 522 567 568
f 522 568 524
f 523 564 569
f 523 569 565
f 524 568 525
f 525 570 571
f 525 571 527
f 525 527 526
f 525 568 570
f 527 529 528
f 527 571 572
f 527 572 530
f 527 530 529
f 530 572 531
f 531 573 574
f 531 574 532
f 531 572 573
f 532 574 575
f 532 575 533
f 533 575 535
f 535 576 577
f 535 577 536
f 535 575 576
f 536 577 537
f 537 578 579
f 537 579 539
f 537 539 538
f 537 577 580
f 537 580 578
f 539 579 581
f 539 581 582
f 539 582 583
f 539 583 540
f 540 583 541
f 541 583 584
f 541 584 542
f 542 584 585
f 543 586 546
f 543 561 586
f 544 587 588
f 544 588 545
f 544 546 587
f 545 588 591
f 545 591 547
f 546 589 587
f 546 586 590
f 546 590 589
f 547 591 592
f 547 592 548
f 548 592 550
f 549 550 593
f 550 592 594
f 550 594 595
f 550 595 593
f 551 596 552
f 552 596 597
f 553 598 599
f 553 599 554
f 553 597 600
f 553 600 598
f 554 599 555
f 555 599 601
f 555 601 602
f 555 602 560
f 556 560 602
f 556 602 603
f 556 603 604
f 556 604 557
f 557 604 605
f 557 605 559
f 558 606 607
f 558 607 561
f 558 559 605
f 558 605 606
f 561 607 590
f 561 590 586
f 562 608 563
f 563 608 569
f 563 569 564
f 565 569 609
f 565 609 610
f 565 610 566
f 566 610 611
f 566 611 612
f 566 612 567
f 567 612 613
f 567 613 568
f 568 613 570
f 569 608 614
f 569 614 609
f 570 613 615
f 570 615 616
f 570 616 571
f 571 616 617
f 571 617 618
f 571 618 573
f 571 573 619
f 571 619 572
f 572 619 573
f 573 618 620
f 573 620 574
f 574 620 621
f 574 621 576
f 574 576 575
f 576 621 580
f 576 580 577
f 578 622 623
f 578 623 579
f 578 580 622
f 579 623 624
f 579 624 582
f 579 582 581
f 580 621 625
f 580 625 622
f 582 624 626
f 582 626 584
f 582 584 583
f 584 626 585
f 585 626 627
f 587 628 629
f 587 629 588
f 587 589 628
f 588 629 630
f 588 630 591
f 589 631 628
f 589 590 631
f 590 607 632
f 590 632 631
f 591 630 592
f 592 633 594
f 592 630 633
f 594 633 634
f 594 634 635
f 594 635 595
f 596 636 600
f 596 600 597
f 598 600 637
f 598 637 638
f 598 638 639
f 598 639 599
f 599 639 640
f 599 640 601
f 600 636 637
f 601 640 641
f 601 641 602
f 602 641 603
f 603 641 642
f 603 642 604
f 604 642 643
f 604 643 644
f 604 644 605
f 605 644 606
f 606 644 645
f 606 645 607
f 607 646 632
f 607 645 646
f 609 647 610
f 609 614 648
f 609 648 647
f 610 649 611
f 610 647 649
f 611 649 650
f 611 650 690
f 611 690 651
f 611 651 612
f 612 651 652
f 612 652 613
f 613 652 615
f 615 653 654
f 615 654 616
f 615 652 653
f 616 654 655
f 616 655 617
f 617 655 618
f 618 655 656
f 618 656 657
f 618 657 620
f 620 657 658
f 620 658 621
f 621 658 625
f 622 659 660
f 622 660 623
f 622 625 659
f 623 660 661
f 623 661 624
f 624 661 626
f 625 662 659
f 625 658 662
f 626 661 663
f 626 663 664
f 626 664 627
f 628 631 665
f 628 665 666
f 628 666 629
f 629 666 630
f 630 667 668
f 630 668 633
f 630 666 667
f 631 669 665
f 631 632 670
f 631 670 669
f 632 646 670
f 633 668 634
f 634 668 671
f 634 671 635
f 635 671 672
f 637 673 638
f 638 673 674
f 638 674 675
f 638 675 676
f 638 676 639
f 639 676 677
f 639 677 640
f 640 677 681
f 640 681 678
f 640 678 641
f 641 678 642
f 642 679 680
f 642 680 643
f 642 678 681
f 642 681 679
f 643 680 682
f 643 682 644
f 644 682 645
f 645 682 683
f 645 683 646
f 646 684 670
f 646 683 684
f 647 648 685
f 647 685 686
f 647 686 687
f 647 687 649
f 649 688 650
f 649 687 688
f 650 689 690
f 650 688 689
f 651 690 652
f 652 690 691
f 652 691 653
f 653 692 693
f 653 693 654
f 653 691 692
f 654 693 655
f 655 693 694
f 655 694 695
f 655 695 656
f 656 695 696
f 656 696 657
f 657 696 697
f 657 697 658
f 658 697 662
f 659 698 699
f 659 699 660
f 659 662 698
f 660 699 661
f 661 699 700
f 661 700 701
f 661 701 663
f 662 702 698
f 662 697 702
f 663 701 703
f 663 703 664
f 665 704 705
f 665 705 666
f 665 669 704
f 666 705 667
f 667 706 707
f 667 707 668
f 667 705 706
f 668 707 671
f 669 708 704
f 669 670 709
f 669 709 708
f 670 684 709
f 671 707 710
f 671 710 711
f 671 711 672
f 674 712 675
f 675 712 713
f 675 713 714
f 675 714 715
f 675 715 716
f 675 716 676
f 676 716 717
f 676 717 677
f 677 717 681
f 679 681 718
f 679 718 719
f 679 719 680
f 680 719 720
f 680 720 682
f 681 717 721
f 681 721 718
f 682 720 683
f 683 722 723
f 683 723 684
f 683 720 722
f 684 723 709
f 686 724 725
f 686 725 687
f 687 725 688
f 688 725 726
f 688 726 689
f 689 727 728
f 689 728 690
f 689 726 727
f 690 728 692
f 690 692 691
f 692 729 730
f 692 730 693
f 692 728 731
f 692 731 729
f 693 730 732
f 693 732 733
f 693 733 694
f 694 733 695
f 695 733 734
f 695 734 696
f 696 734 735
f 696 735 697
f 697 735 702
f 698 702 736
f 698 736 737
f 698 737 699
f 699 737 700
f 700 737 738
f 700 738 739
f 700 739 701
f 701 739 740
f 701 740 703
f 702 741 736
f 702 735 741
f 703 740 742
f 704 729 731
f 704 731 743
f 704 743 705
f 704 708 729
f 705 743 706
f 706 728 727
f 706 727 707
f 706 743 728
f 707 727 710
f 708 709 744
f 708 744 730
f 708 730 729
f 709 723 744
f 710 726 745
f 710 745 746
f 710 746 711
f 710 727 726
f 714 747 715
f 715 747 748
f 715 748 716
f 716 748 749
f 716 749 750
f 716 750 717
f 717 750 721
f 718 721 751
f 718 751 752
f 718 752 753
f 718 753 719
f 719 753 754
f 719 754 720
f 720 754 722
f 721 750 751
f 722 754 755
f 722 755 756
f 722 756 723
f 723 756 744
f 724 757 745
f 724 745 725
f 725 745 726
f 728 743 731
f 730 744 732
f 732 744 756
f 732 756 733
f 733 756 755
f 733 755 734
f 734 755 735
f 735 758 741
f 735 755 758
f 736 741 752
f 736 752 751
f 736 751 737
f 737 751 759
f 737 759 738
f 738 759 760
f 738 760 739
f 739 760 761
f 739 761 742
f 739 742 740
f 741 753 752
f 741 758 753
f 742 761 762
f 745 757 746
f 747 762 748
f 748 762 761
f 748 761 760
f 748 760 749
f 749 760 759
f 749 759 750
f 750 759 751
f 753 758 754
f 754 758 755
