v -0.52901834 -0.10378319 0.35552073
v -0.30377698 -0.10378319 0.56111968
v -0.52901834 -0.10378319 0.67365867
v -0.52901834 0.41073996 0.72051531
v -0.30377698 0.41373521 0.84350646
v -0.30377698 0.40386188 0.83768648
v -0.30377698 -0.10378319 0.80258858
v -0.52377093 -0.10378319 0.67781579
v -0.52901834 -0.08897316 0.68529862
v -0.52901834 0.41490006 0.72348464
v -0.30377698 0.42848977 0.85461187
v -0.30377698 -0.10300663 0.80312306
v -0.30615816 -0.10378319 0.80169779
v -0.51786208 -0.10378319 0.68232924
v -0.52167642 -0.10156447 0.68120086
v -0.49943006 -0.09945667 0.69955158
v -0.51955980 -0.07948810 0.69961095
v -0.52901834 -0.07333115 0.69681972
v -0.52901834 0.42660385 0.73358047
v -0.30377698 0.43742016 0.86251038
v -0.30377698 -0.08392558 0.81547564
v -0.31144965 -0.09163564 0.80757713
v -0.31907821 -0.09940121 0.79955983
v -0.31594741 -0.10378319 0.79777819
v -0.50364119 -0.10378319 0.69301897
v -0.50622082 -0.08614430 0.70448071
v -0.49660793 -0.10378319 0.69818562
v -0.48670840 -0.10378319 0.70495582
v -0.49142668 -0.09135830 0.71095395
v -0.49678430 -0.07682562 0.71784288
v -0.51144618 -0.07150069 0.71101332
v -0.52577728 -0.06617574 0.70418376
v -0.52901834 -0.06928195 0.69961095
v -0.52901834 0.43270537 0.73981619
v -0.30377698 0.44457555 0.87135911
v -0.52901834 0.43647721 0.74379510
v -0.30377698 -0.07837874 0.81897950
v -0.31003857 -0.07638189 0.81779176
v -0.33003604 -0.08592242 0.80377632
v -0.33003604 -0.09590670 0.79724371
v -0.32331142 -0.10378319 0.79474944
v -0.48423904 -0.10378319 0.70661867
v -0.47621363 -0.09651685 0.71742713
v -0.48344535 -0.08320448 0.72223753
v -0.50331050 -0.06345779 0.72229689
v -0.46003047 -0.07998732 0.73993492
v -0.47336945 -0.07344207 0.73559964
v -0.48011610 -0.06007424 0.73999435
v -0.51664948 -0.05630240 0.71754593
v -0.52901834 -0.05663520 0.70828152
v -0.30377698 0.45555827 0.89077878
v -0.52901834 0.44291151 0.75216872
v -0.30377698 -0.06822807 0.82491821
v -0.31003857 -0.06639761 0.82373047
v -0.32985964 -0.06922649 0.81410974
v -0.32309094 -0.06207108 0.82117683
v -0.34260333 -0.08176231 0.80110389
v -0.34957045 -0.08908412 0.79314601
v -0.35001144 -0.10378319 0.78310955
v -0.33016831 -0.10378319 0.79178011
v -0.46406522 -0.10378319 0.72015893
v -0.46287465 -0.10256287 0.72188121
v -0.46814409 -0.08825210 0.72871077
v -0.50996894 -0.04975715 0.72651339
v -0.49504253 -0.04997902 0.73666865
v -0.49993718 -0.03993927 0.73987556
v -0.44999868 -0.09440905 0.73595601
v -0.43899676 -0.09917933 0.73940045
v -0.44999868 -0.08436930 0.74302310
v -0.44975615 -0.06961477 0.75305957
v -0.45623821 -0.05630240 0.75769174
v -0.46798974 -0.06806165 0.74260736
v -0.46973154 -0.04975715 0.75317830
v -0.48503277 -0.04997902 0.74320126
v -0.52269059 -0.04299003 0.72188121
v -0.52901834 -0.04914699 0.71327001
v -0.30377698 0.45905277 0.89873666
v -0.52901834 0.45211923 0.76992553
v -0.30377698 -0.06295858 0.82794696
v -0.30377698 -0.05075558 0.83495468
v -0.30937713 -0.04892512 0.83394510
v -0.33645198 -0.05741176 0.81850439
v -0.32985964 -0.05042276 0.82503700
v -0.35594231 -0.07693657 0.79807514
v -0.34957045 -0.07016945 0.80508286
v -0.36081490 -0.10051057 0.78031832
v -0.35115790 -0.10378319 0.78257507
v -0.46049348 -0.10378319 0.72247505
v -0.51909679 -0.01886135 0.73934108
v -0.51144618 -0.03195184 0.73666865
v -0.46289667 -0.04299003 0.76178950
v -0.47621363 -0.03594556 0.75757301
v -0.49118415 -0.03128622 0.75074345
v -0.50575781 -0.02657144 0.74391389
v -0.44345045 -0.10378319 0.73316479
v -0.43597621 -0.10378319 0.73773760
v -0.42479792 -0.10378319 0.74415147
v -0.41386214 -0.09507468 0.75650400
v -0.42208603 -0.08170682 0.76113623
v -0.43542501 -0.07599360 0.75733542
v -0.44289923 -0.06268124 0.76167071
v -0.44975615 -0.04975715 0.76553088
v -0.52901834 -0.03034326 0.72514749
v -0.30377698 0.45982933 0.90069646
v -0.52901834 0.45833167 0.78572261
v -0.30377698 -0.04310095 0.83928996
v -0.30377698 -0.03905179 0.84154665
v -0.31561670 -0.03672211 0.83828038
v -0.35115790 -0.05042276 0.81601012
v -0.36465123 -0.06362420 0.80217290
v -0.34522703 -0.04404391 0.82224578
v -0.33074155 -0.03001046 0.83578610
v -0.37082464 -0.07016945 0.79516518
v -0.38301712 -0.08226153 0.78150606
v -0.36848757 -0.08936146 0.78394097
v -0.37417594 -0.09562936 0.77699262
v -0.36390162 -0.10378319 0.77651751
v -0.52901834 -0.00982003 0.73738128
v -0.52901834 -0.01237157 0.73589659
v -0.52901834 -0.02856828 0.72621650
v -0.51025558 -0.01031925 0.75014955
v -0.52438831 -0.00554898 0.74308246
v -0.46973154 -0.02956672 0.76535273
v -0.43835738 -0.03838617 0.77907121
v -0.45099083 -0.03100888 0.77592367
v -0.45833278 -0.01814027 0.77895242
v -0.48238704 -0.02263319 0.76143318
v -0.49572602 -0.01503405 0.75721663
v -0.41070929 -0.10378319 0.75204998
v -0.40052319 -0.10034415 0.76018602
v -0.40832812 -0.08902863 0.76368988
v -0.39635611 -0.07699203 0.77806163
v -0.41066521 -0.07016945 0.77473593
v -0.42922953 -0.06961477 0.76499641
v -0.41767645 -0.05791098 0.77871490
v -0.43101543 -0.05075558 0.77568614
v -0.30377698 0.46154884 0.90996087
v -0.52901834 0.46077228 0.79569966
v -0.30937713 -0.03001046 0.84410036
v -0.30377698 -0.03001046 0.84617889
v -0.32452404 -0.02340974 0.84172481
v -0.35856602 -0.03877445 0.81927645
v -0.37082464 -0.05097745 0.80662692
v -0.37799022 -0.05829924 0.79896593
v -0.33786303 -0.01819573 0.83905244
v -0.35115790 -0.03123076 0.82652169
v -0.38980788 -0.07016945 0.78566319
v -0.38980788 -0.08936146 0.77319187
v -0.38923466 -0.10378319 0.76368988
v -0.52901834 0.00576654 0.74593306
v -0.50139230 -0.00172168 0.76089865
v -0.51601011 0.01003759 0.75727606
v -0.52901834 0.01136883 0.74896181
v -0.44499379 -0.02507380 0.78281260
v -0.42501840 -0.04459861 0.78269380
v -0.41961664 -0.01963791 0.79979736
v -0.45099083 -0.01087393 0.78708851
v -0.46419752 -0.00482789 0.78245628
v -0.47052526 -0.01087393 0.77538919
v -0.48942029 -0.00898801 0.76452130
v -0.40374216 -0.10378319 0.75591016
v -0.39117485 -0.10378319 0.76268029
v -0.40438154 -0.06367967 0.78227812
v -0.41066521 -0.05075558 0.78667277
v -0.33003604 0.46260273 0.90996087
v -0.30377698 0.46199259 0.93062770
v -0.52901834 0.46226993 0.80995262
v -0.30377698 -0.01115127 0.85568082
v -0.30942124 -0.00904348 0.85461187
v -0.33074155 -0.01092939 0.84546626
v -0.37953356 -0.01952697 0.81969213
v -0.37172860 -0.03123076 0.81713849
v -0.38583928 -0.04493141 0.80282617
v -0.36621663 -0.02540660 0.82278025
v -0.39150557 -0.05097745 0.79647171
v -0.39917824 -0.03921819 0.79950047
v -0.34560186 -0.00488336 0.84231871
v -0.35137838 -0.01092939 0.83685505
v -0.47753650 0.00293766 0.77841794
v -0.48979512 0.00976025 0.77426082
v -0.50602239 0.01003759 0.76392746
v -0.51991254 0.02007733 0.75994849
v -0.52901834 0.02673352 0.75686032
v -0.43169892 -0.01176143 0.79742187
v -0.43950385 0.00049706 0.79967862
v -0.41183373 -0.03150810 0.79718435
v -0.40634382 -0.02585034 0.80318248
v -0.41183373 -0.01176143 0.80781466
v -0.42616490 -0.00632554 0.80318248
v -0.45118925 0.00831807 0.79688740
v -0.47052526 0.00976025 0.78613830
v -0.35003346 0.46260273 0.90996087
v -0.42997918 0.46288007 0.86993384
v -0.39002836 0.46288007 0.88994735
v -0.33003604 0.46160430 0.92557979
v -0.30377698 0.46055040 0.94102049
v -0.52901834 0.46165976 0.82177067
v -0.50996894 0.46232539 0.82996613
v -0.46997407 0.46260273 0.84997964
v -0.30377698 -0.00327478 0.85954106
v -0.31570488 0.00360328 0.85829389
v -0.33016831 0.01014853 0.85568082
v -0.39194652 -0.01170595 0.81773233
v -0.39150557 -0.03150810 0.80745834
v -0.37172860 -0.01170595 0.82723433
v -0.38656685 -0.00621460 0.82301784
v -0.35894084 0.00105174 0.83946812
v -0.35137838 0.00865088 0.84617889
v -0.48300436 0.01630549 0.78180301
v -0.49632132 0.02473666 0.77764589
v -0.52901834 0.02967334 0.75834501
v -0.50139230 0.03810450 0.78085279
v -0.52471900 0.03338970 0.76321477
v -0.43169892 0.00831807 0.80763650
v -0.44532451 0.01386489 0.80300426
v -0.39988378 0.00016424 0.81987029
v -0.41181171 0.00809620 0.81773233
v -0.45866349 0.02163044 0.79914415
v -0.41057703 0.46182618 0.89095694
v -0.39002836 0.46138242 0.90408152
v -0.45046166 0.46182618 0.87082464
v -0.42997918 0.46149337 0.88501823
v -0.35003346 0.46099415 0.92231345
v -0.36209369 0.46032852 0.92059124
v -0.31727028 0.45938557 0.93828863
v -0.30377698 0.45128721 0.95058179
v -0.52901834 0.46121603 0.82895654
v -0.48953056 0.46160430 0.85009843
v -0.30377698 0.00060800 0.86138201
v -0.30942124 0.01014853 0.86363876
v -0.32359803 0.01691565 0.86132264
v -0.33693701 0.02279527 0.85870963
v -0.37148610 0.00865088 0.83727080
v -0.36577567 0.01436411 0.84255624
v -0.35040829 0.02967334 0.85609657
v -0.47034886 0.02900772 0.79564023
v -0.48979512 0.03089364 0.78465360
v -0.52901834 0.04487163 0.76564968
v -0.47729397 0.04359585 0.79837209
v -0.48931009 0.05014111 0.79391801
v -0.50560349 0.05003017 0.78358465
v -0.51559114 0.05003017 0.77705204
v -0.51940548 0.06090194 0.77954632
v -0.52901834 0.05152781 0.76873779
v -0.41959462 0.02046561 0.81975150
v -0.43127999 0.02828662 0.81731665
v -0.43882036 0.04137713 0.81933582
v -0.45118925 0.02900772 0.80680507
v -0.39194652 0.00809620 0.82741249
v -0.40629971 0.01347661 0.82307720
v -0.46395499 0.03499828 0.80229163
v -0.40427130 0.46071681 0.90146852
v -0.46997407 0.46127149 0.86447018
v -0.44411188 0.46071681 0.88175189
v -0.41756621 0.45938557 0.89832097
v -0.37543267 0.45877543 0.91726553
v -0.33003604 0.45749965 0.93555683
v -0.33003604 0.44745991 0.94571209
v -0.30377698 0.44329980 0.95794582
v -0.52901834 0.45833167 0.83727080
v -0.52061808 0.46010667 0.84029955
v -0.50996894 0.46093869 0.84297198
v -0.30377698 0.01009305 0.86565793
v -0.30823064 0.03183660 0.87373459
v -0.33016831 0.02967334 0.86441082
v -0.34397030 0.03616312 0.86161959
v -0.37911466 0.02096483 0.83952749
v -0.37148610 0.02856398 0.84629762
v -0.35730928 0.04287477 0.85876900
v -0.47034886 0.05014111 0.80532038
v -0.48221064 0.05690823 0.80128205
v -0.49554962 0.06655969 0.79718435
v -0.50972641 0.07038700 0.78982031
v -0.52363867 0.07426978 0.78239691
v -0.52901834 0.06772453 0.77598304
v -0.41181171 0.02828662 0.82717490
v -0.42548141 0.03377798 0.82278025
v -0.45043963 0.04886533 0.81612891
v -0.43127999 0.04886533 0.82634354
v -0.44404572 0.05474497 0.82218641
v -0.39128509 0.02856398 0.83721137
v -0.48256341 0.46055040 0.86120391
v -0.45745087 0.45927465 0.87806988
v -0.42997918 0.44673881 0.90526927
v -0.39002836 0.44585133 0.92421383
v -0.39002836 0.45583561 0.91405857
v -0.42997918 0.45677856 0.89505464
v -0.35003346 0.44318885 0.94208944
v -0.30377698 0.43947250 0.96020257
v -0.52901834 0.45106533 0.84516931
v -0.50996894 0.45461529 0.85294902
v -0.49588034 0.45866448 0.85692799
v -0.30377698 0.03627405 0.87729788
v -0.31365442 0.04592551 0.87759477
v -0.32849267 0.05158328 0.87415034
v -0.35040829 0.04969735 0.86447018
v -0.38544241 0.03427720 0.84249687
v -0.36350474 0.05618714 0.86150080
v -0.37011912 0.04969735 0.85585904
v -0.45740676 0.06361988 0.81850439
v -0.48931009 0.07194011 0.80324185
v -0.49508661 0.07621116 0.80151963
v -0.46926853 0.07016513 0.81434727
v -0.50379556 0.07621116 0.79605597
v -0.50006944 0.07992753 0.79997551
v -0.52901834 0.09229694 0.78613830
v -0.52901834 0.06955498 0.77675509
v -0.51321000 0.09002275 0.79558086
v -0.39875934 0.04137713 0.83934933
v -0.41073135 0.04886533 0.83661753
v -0.42986894 0.06961045 0.83560795
v -0.41783077 0.06267692 0.83887422
v -0.45043963 0.07016513 0.82491821
v -0.46997407 0.44623959 0.88501823
v -0.46997407 0.45622388 0.87450665
v -0.44378117 0.44291151 0.90188420
v -0.40336734 0.44235682 0.92142260
v -0.36048418 0.44030452 0.94012964
v -0.33003604 0.42993194 0.95260096
v -0.31447020 0.42993194 0.95800519
v -0.30450457 0.42993194 0.96144974
v -0.30377698 0.43292722 0.96121216
v -0.52901834 0.44856927 0.84784174
v -0.50996894 0.44457555 0.86363876
v -0.48933211 0.45045519 0.86945873
v -0.30377698 0.04492709 0.88086110
v -0.32079795 0.05929336 0.88020784
v -0.33413693 0.06611595 0.87765419
v -0.34833580 0.07166277 0.87397218
v -0.39128509 0.04886533 0.84588194
v -0.37682167 0.06373081 0.85853148
v -0.37011912 0.07027607 0.86405444
v -0.46287465 0.07621116 0.82040477
v -0.46084625 0.07621116 0.82153314
v -0.48628950 0.07621116 0.80674571
v -0.48999357 0.09002275 0.80995262
v -0.47145128 0.07621116 0.81547564
v -0.50320023 0.09002275 0.80199468
v -0.51753139 0.10427808 0.79837209
v -0.52901834 0.11060145 0.79314601
v -0.40453589 0.05474497 0.84208119
v -0.42310023 0.07598929 0.84154665
v -0.43643922 0.08491968 0.83816159
v -0.41073135 0.06961045 0.84505051
v -0.44995457 0.07626663 0.82753128
v -0.48278388 0.44235682 0.88151431
v -0.45681146 0.42993194 0.89832097
v -0.44682378 0.42993194 0.90342826
v -0.42997918 0.42993194 0.91180187
v -0.41633153 0.42993194 0.91827512
v -0.40632176 0.42993194 0.92272913
v -0.39002836 0.42993194 0.92961812
v -0.37221366 0.42993194 0.93680394
v -0.36222598 0.42993194 0.94078290
v -0.35003346 0.42993194 0.94535577
v -0.33003604 0.40996340 0.95331365
v -0.31537417 0.40996340 0.95842093
v -0.35003346 0.40996340 0.94618714
v -0.30534238 0.40996340 0.96174663
v -0.30377698 0.40996340 0.96222174
v -0.30377698 0.42993194 0.96162784
v -0.52901834 0.43303818 0.85669041
v -0.52081650 0.44080371 0.86049122
v -0.30377698 0.05119500 0.88323659
v -0.30823064 0.05158328 0.88181126
v -0.32849267 0.07166277 0.88187069
v -0.33548185 0.07621116 0.88092047
v -0.31003857 0.06999873 0.88810635
v -0.34053084 0.07948378 0.88014841
v -0.34379393 0.07621116 0.87759477
v -0.35501629 0.09002275 0.87783235
v -0.38949922 0.07027607 0.85526514
v -0.38339195 0.07621116 0.86037242
v -0.37007502 0.07621116 0.86625183
v -0.46649051 0.09002275 0.82367110
v -0.44874194 0.09096571 0.83382630
v -0.47650024 0.09002275 0.81791049
v -0.47985151 0.10022890 0.81987029
v -0.49034631 0.10816085 0.81654459
v -0.51052016 0.11060145 0.80514222
v -0.52134567 0.11764592 0.80080694
v -0.52901834 0.13007081 0.80021310
v -0.41011402 0.07621116 0.84784174
v -0.40865886 0.09124305 0.85413677
v -0.42986894 0.09096571 0.84362525
v -0.44120154 0.09823205 0.84059650
v -0.40449178 0.07621116 0.85051417
v -0.48525327 0.42993194 0.88288027
v -0.46997407 0.42993194 0.89119446
v -0.45751700 0.40996340 0.89867729
v -0.46997407 0.40996340 0.89196652
v -0.44750726 0.40996340 0.90378463
v -0.42997918 0.40996340 0.91245514
v -0.41701502 0.40996340 0.91863143
v -0.40707141 0.40996340 0.92308545
v -0.39002836 0.40996340 0.93039012
v -0.37320581 0.40996340 0.93721968
v -0.36319607 0.40996340 0.94119859
v -0.33003604 0.38993937 0.95212591
v -0.30377698 0.38993937 0.96097457
v -0.31343395 0.38993937 0.95776772
v -0.36178499 0.38993937 0.94066417
v -0.35003346 0.38993937 0.94499940
v -0.52901834 0.42993194 0.85722494
v -0.52227169 0.42993194 0.86132264
v -0.50996894 0.42993194 0.86862731
v -0.49526301 0.42993194 0.87723845
v -0.30377698 0.05607621 0.88507760
v -0.30981809 0.07621116 0.89042246
v -0.33003604 0.09002275 0.88780940
v -0.30382109 0.07621116 0.89256036
v -0.35946998 0.10072811 0.87973273
v -0.34498450 0.09002275 0.88198948
v -0.37003094 0.09002275 0.87129974
v -0.39582697 0.08536342 0.85805637
v -0.38949922 0.09124305 0.86304486
v -0.45506969 0.11004677 0.83727080
v -0.47191429 0.10816085 0.82717490
v -0.48395243 0.11359674 0.82224578
v -0.49729142 0.12474585 0.81838560
v -0.50862402 0.13090283 0.81345648
v -0.52467489 0.13007081 0.80300426
v -0.52901834 0.15225808 0.80763650
v -0.42997918 0.11004677 0.85027659
v -0.40103027 0.09867579 0.86043185
v -0.41509685 0.11004677 0.85758126
v -0.44503787 0.11004677 0.84267503
v -0.49588034 0.40996340 0.87765419
v -0.48591471 0.40996340 0.88323659
v -0.44625053 0.38993937 0.90313137
v -0.46997407 0.38993937 0.89065999
v -0.45623821 0.38993937 0.89802402
v -0.48474616 0.38993937 0.88258332
v -0.42997918 0.38993937 0.91114867
v -0.41555983 0.38993937 0.91791880
v -0.40555009 0.38993937 0.92243218
v -0.39002836 0.38993937 0.92908359
v -0.37177271 0.38993937 0.93662578
v -0.35129023 0.37069190 0.94292086
v -0.33003604 0.36997080 0.95040369
v -0.30377698 0.38855267 0.96085584
v -0.30377698 0.37346530 0.95948994
v -0.36055031 0.37784731 0.94018900
v -0.52901834 0.40996340 0.85805637
v -0.52297723 0.40996340 0.86173838
v -0.50996894 0.40996340 0.86945873
v -0.30377698 0.07027607 0.89036310
v -0.30931100 0.09068837 0.89570791
v -0.31550646 0.10516557 0.89832097
v -0.32880133 0.11110067 0.89523280
v -0.30377698 0.07615569 0.89250100
v -0.30377698 0.08819230 0.89677691
v -0.30377698 0.09612425 0.89956808
v -0.37781385 0.12313727 0.87896073
v -0.37071440 0.10849366 0.87729788
v -0.39002836 0.11004677 0.86922115
v -0.35170913 0.10849366 0.88537455
v -0.34809327 0.13195671 0.89428264
v -0.36449689 0.11409595 0.88187069
v -0.45883986 0.12191696 0.83934933
v -0.46964335 0.12918331 0.83566731
v -0.50106162 0.13805822 0.82058293
v -0.49034631 0.13090283 0.82438374
v -0.48999357 0.15003936 0.83085692
v -0.51420218 0.15003936 0.81636643
v -0.51786208 0.16440561 0.81862319
v -0.52901834 0.17061806 0.81345648
v -0.41904342 0.12147322 0.85954106
v -0.43002325 0.12890597 0.85651231
v -0.40508708 0.11004677 0.86239159
v -0.45127743 0.12918331 0.84570378
v -0.50996894 0.38993937 0.86827099
v -0.49473387 0.38993937 0.87706029
v -0.44435441 0.36997080 0.90218115
v -0.46997407 0.36997080 0.88870025
v -0.48300436 0.36997080 0.88163310
v -0.45436415 0.36997080 0.89701444
v -0.49301413 0.36997080 0.87611008
v -0.42997918 0.36997080 0.90912950
v -0.41337711 0.36997080 0.91690922
v -0.40336734 0.36997080 0.92148203
v -0.39002836 0.36997080 0.92718321
v -0.34654990 0.34994680 0.94238639
v -0.33003604 0.34994680 0.94826567
v -0.35876444 0.36447948 0.93947637
v -0.31003857 0.34994680 0.95491707
v -0.30891412 0.36924973 0.95735198
v -0.30377698 0.35699123 0.95770830
v -0.36833322 0.37069190 0.93626946
v -0.52901834 0.39659554 0.85728431
v -0.52200711 0.38993937 0.86114448
v -0.30377698 0.10078358 0.90111220
v -0.30931100 0.11110067 0.90247810
v -0.32134914 0.11847794 0.90045893
v -0.33466607 0.12657630 0.89790523
v -0.37071440 0.12990439 0.88418674
v -0.38257617 0.13644964 0.88109863
v -0.38954332 0.12990439 0.87587255
v -0.34011191 0.13994414 0.89998382
v -0.35378161 0.15003936 0.89737076
v -0.37003094 0.15003936 0.89060062
v -0.46278644 0.13528481 0.84148729
v -0.47698531 0.15003936 0.83822095
v -0.50421447 0.15003936 0.82254273
v -0.47982949 0.16030097 0.83988380
v -0.48999357 0.16817746 0.83643937
v -0.52110314 0.17771800 0.82064235
v -0.51071858 0.17061806 0.82491821
v -0.52901834 0.18997647 0.81921703
v -0.41148099 0.12890597 0.86547977
v -0.42340890 0.13484105 0.86161959
v -0.43674788 0.14532456 0.85835326
v -0.44847736 0.15120418 0.85413677
v -0.52092677 0.37474108 0.86049122
v -0.51179892 0.36880597 0.86518282
v -0.44203937 0.34994680 0.90099341
v -0.48135078 0.35399598 0.88068295
v -0.47189224 0.34839368 0.88513696
v -0.45202708 0.34994680 0.89582670
v -0.48880297 0.34839368 0.87587255
v -0.50851381 0.34994680 0.86494529
v -0.42997918 0.34994680 0.90675396
v -0.40885729 0.34894836 0.91643411
v -0.40142715 0.35493892 0.92059124
v -0.39172605 0.34894836 0.92403567
v -0.37003094 0.34994680 0.93324071
v -0.35655966 0.34994680 0.93864501
v -0.35309815 0.32992277 0.93733847
v -0.34306633 0.32992277 0.94107985
v -0.33003604 0.32992277 0.94571209
v -0.31003857 0.32992277 0.95236343
v -0.30377698 0.33946329 0.95557034
v -0.30377698 0.34994680 0.95687687
v -0.52901834 0.38993937 0.85686862
v -0.30377698 0.11082333 0.90425968
v -0.30377698 0.11653655 0.90604132
v -0.30377698 0.13040361 0.91031718
v -0.31003857 0.13007081 0.90806049
v -0.32880133 0.13195671 0.90176547
v -0.38954332 0.15175886 0.88258332
v -0.39589310 0.14626752 0.87812924
v -0.33003604 0.15003936 0.90669459
v -0.34374982 0.15003936 0.90140909
v -0.35825735 0.16263063 0.89921176
v -0.36963406 0.16961963 0.89636117
v -0.39002836 0.17006338 0.88769066
v -0.46695349 0.15003936 0.84380341
v -0.47189224 0.16817746 0.84659457
v -0.48331302 0.17366882 0.84184361
v -0.49744576 0.18997647 0.83851790
v -0.50996894 0.18997647 0.83097571
v -0.52392530 0.18997647 0.82242393
v -0.49993718 0.20007168 0.83994323
v -0.52901834 0.20678334 0.82384926
v -0.40821788 0.15175886 0.87403154
v -0.43002325 0.15120418 0.86340117
v -0.44080469 0.15863693 0.86037242
v -0.45405549 0.17006338 0.85686862
v -0.52853328 0.36880597 0.85520577
v -0.51969206 0.36137325 0.85977858
v -0.44049603 0.33813205 0.90022135
v -0.47982949 0.34062815 0.87985152
v -0.46838662 0.32992277 0.88448370
v -0.44827893 0.33086574 0.89517343
v -0.50615466 0.32992277 0.86357939
v -0.51850152 0.34994680 0.85906595
v -0.51618648 0.32992277 0.85769999
v -0.41002581 0.32992277 0.91334593
v -0.39953101 0.34162655 0.91975975
v -0.38766924 0.32992277 0.92326367
v -0.37003094 0.32992277 0.93068707
v -0.34849012 0.31078625 0.93621010
v -0.34081745 0.31799710 0.94024843
v -0.37003094 0.30995423 0.92771769
v -0.31003857 0.30995423 0.94951284
v -0.33080772 0.31078625 0.94268334
v -0.30377698 0.32992277 0.95432323
v -0.52901834 0.36886144 0.85490882
v -0.30377698 0.13656057 0.91215825
v -0.30823064 0.15175886 0.91506815
v -0.40032473 0.15957989 0.88008904
v -0.31438202 0.17006338 0.91797817
v -0.33003604 0.17006338 0.91227698
v -0.35093743 0.16961963 0.90408152
v -0.35003346 0.18997647 0.91002023
v -0.36271101 0.17594300 0.90105277
v -0.37602794 0.18614917 0.89826155
v -0.38032728 0.19951700 0.90010262
v -0.38822043 0.19169599 0.89446080
v -0.41062111 0.19030927 0.88394922
v -0.40349963 0.17006338 0.88157374
v -0.45791388 0.18387496 0.85888779
v -0.46882758 0.19030927 0.85467124
v -0.48745805 0.18997647 0.84415972
v -0.50972641 0.20805910 0.83614242
v -0.52901834 0.21133173 0.82509637
v -0.46137539 0.19724280 0.86072880
v -0.49197787 0.20805910 0.84653521
v -0.50289160 0.21338405 0.84166545
v -0.41353142 0.17006338 0.87688214
v -0.42997918 0.17006338 0.86898363
v -0.44402367 0.17006338 0.86203527
v -0.52901834 0.34994680 0.85265207
v -0.43848965 0.32481968 0.89927113
v -0.43110362 0.33086574 0.90360641
v -0.47841841 0.32992277 0.87907946
v -0.48999357 0.32992277 0.87266564
v -0.46560857 0.30995423 0.88299906
v -0.44999868 0.30995423 0.89113510
v -0.48999357 0.30995423 0.86963689
v -0.50350893 0.30995423 0.86197591
v -0.52901834 0.32992277 0.84986091
v -0.52901834 0.31317139 0.84718847
v -0.51351869 0.30995423 0.85609657
v -0.41002581 0.30995423 0.91031718
v -0.39770103 0.32992277 0.91892838
v -0.42605466 0.30995423 0.90283442
v -0.38427386 0.30995423 0.92177892
v -0.33797327 0.30462927 0.93923885
v -0.35003346 0.28998566 0.93229055
v -0.37130970 0.28959739 0.92379814
v -0.38165018 0.29597622 0.92065060
v -0.32450199 0.28998566 0.94155490
v -0.31003857 0.28998566 0.94636536
v -0.30377698 0.28998566 0.94832510
v -0.30377698 0.31045341 0.95153201
v -0.30377698 0.15619633 0.91785944
v -0.30439430 0.17006338 0.92148203
v -0.31883571 0.18160076 0.91952229
v -0.33019036 0.18897805 0.91732490
v -0.33698112 0.20450914 0.91880959
v -0.34884289 0.21072158 0.91578084
v -0.37003094 0.21000049 0.90705091
v -0.36963406 0.19169599 0.90247810
v -0.38336989 0.21000049 0.90140909
v -0.39340171 0.21000049 0.89701444
v -0.42153484 0.19724280 0.88068295
v -0.41767645 0.18393043 0.87884194
v -0.41002581 0.21000049 0.88947225
v -0.45074829 0.19030927 0.86435139
v -0.51638490 0.23002452 0.83774590
v -0.52901834 0.23002452 0.82990676
v -0.46444005 0.21000049 0.86239159
v -0.47440571 0.21000049 0.85686862
v -0.44999868 0.21000049 0.86999321
v -0.47786722 0.22481051 0.85876900
v -0.50635308 0.23002452 0.84374404
v -0.48847225 0.23085654 0.85425556
v -0.42889881 0.19030927 0.87521929
v -0.43608645 0.30995423 0.89808345
v -0.47561833 0.30995423 0.87759477
v -0.46249983 0.28998566 0.88133621
v -0.44999868 0.28998566 0.88769066
v -0.50137025 0.29553246 0.86072880
v -0.49153692 0.28926456 0.86518282
v -0.52901834 0.31000966 0.84665400
v -0.52705610 0.28998566 0.84433788
v -0.50882244 0.28926456 0.85520577
v -0.39428362 0.30995423 0.91744369
v -0.41002581 0.28998566 0.90693212
v -0.42243880 0.28998566 0.90111220
v -0.33453381 0.28998566 0.93799174
v -0.35003346 0.26996163 0.92860854
v -0.37885007 0.28266385 0.91946286
v -0.36588591 0.26996163 0.92231345
v -0.38901415 0.28959739 0.91631532
v -0.32137120 0.27739435 0.94042659
v -0.31063387 0.27040538 0.94268334
v -0.30377698 0.27029443 0.94482124
v -0.30377698 0.16851027 0.92124450
v -0.30377698 0.17006338 0.92166018
v -0.30377698 0.18931085 0.92664874
v -0.31131735 0.18897805 0.92409503
v -0.32364213 0.19496861 0.92124450
v -0.33019036 0.21072158 0.92284793
v -0.34139070 0.21782151 0.92047244
v -0.35510451 0.23002452 0.91797817
v -0.37003094 0.23002452 0.91192067
v -0.39752465 0.22464409 0.89885545
v -0.39051342 0.23074560 0.90336889
v -0.43500608 0.21000049 0.87753540
v -0.42501840 0.21000049 0.88234580
v -0.40865886 0.23074560 0.89523280
v -0.43846762 0.22303551 0.87919825
v -0.51892042 0.24278221 0.83934933
v -0.52901834 0.24966025 0.83459836
v -0.44900650 0.22980264 0.87545681
v -0.47067958 0.23085654 0.86417323
v -0.48079959 0.23812288 0.86037242
v -0.49323460 0.24999307 0.85615599
v -0.43247059 0.28998566 0.89636117
v -0.46053755 0.27839279 0.88026720
v -0.45077035 0.27101552 0.88377106
v -0.49925369 0.28216463 0.85954106
v -0.52901834 0.29891604 0.84469420
v -0.52901834 0.28998566 0.84309077
v -0.52901834 0.26996163 0.83917117
v -0.52385914 0.26996163 0.84237808
v -0.42036629 0.27905840 0.90010262
v -0.41057703 0.27140379 0.90319073
v -0.39002836 0.26996163 0.91221762
v -0.32882339 0.27040538 0.93644762
v -0.33003604 0.24999307 0.93193424
v -0.36235824 0.25565082 0.92088819
v -0.35126817 0.24938291 0.92391694
v -0.37589568 0.26996163 0.91827512
v -0.31771126 0.26413748 0.93917942
v -0.30377698 0.24999307 0.94090164
v -0.30377698 0.21011142 0.93187481
v -0.31003857 0.21000049 0.92979622
v -0.33003604 0.23002452 0.92753953
v -0.34507269 0.23002452 0.92189777
v -0.35874239 0.24228299 0.91946286
v -0.36943564 0.24938291 0.91661227
v -0.39002836 0.24999307 0.90800107
v -0.40107438 0.23795646 0.90045893
v -0.41397238 0.24999307 0.89713323
v -0.42997918 0.24999307 0.88953161
v -0.43108156 0.22980264 0.88436496
v -0.44173071 0.23634788 0.88080168
v -0.51133591 0.24966025 0.84540683
v -0.52143383 0.25609457 0.84083402
v -0.45476100 0.24999307 0.87723845
v -0.46997407 0.24999307 0.86910236
v -0.48322487 0.24999307 0.86173838
v -0.50996894 0.26996163 0.85069233
v -0.48706120 0.26996163 0.86393571
v -0.49707094 0.26996163 0.85829389
v -0.42819330 0.27140379 0.89487648
v -0.45793590 0.26513588 0.87890130
v -0.46829844 0.27101552 0.87450665
v -0.44477332 0.24999307 0.88234580
v -0.41754416 0.26574606 0.89879608
v -0.40396264 0.24999307 0.90176547
v -0.30807632 0.23191044 0.93555683
v -0.31334576 0.24999307 0.93769479
v -0.30377698 0.23618148 0.93793231
v -0.30377698 0.21693403 0.93347824
v -0.30377698 0.23007998 0.93656641
f 1 2 7
f 1 7 13
f 1 13 24
f 1 24 41
f 1 41 60
f 1 60 59
f 1 59 87
f 1 87 117
f 1 117 149
f 1 149 162
f 1 162 161
f 1 161 129
f 1 129 97
f 1 97 96
f 1 96 95
f 1 95 88
f 1 88 61
f 1 61 42
f 1 42 28
f 1 28 27
f 1 27 25
f 1 25 14
f 1 14 8
f 1 8 3
f 1 3 9
f 1 9 18
f 1 18 33
f 1 33 50
f 1 50 76
f 1 76 103
f 1 103 120
f 1 120 119
f 1 119 118
f 1 118 150
f 1 150 153
f 1 153 183
f 1 183 211
f 1 211 238
f 1 238 244
f 1 244 275
f 1 275 307
f 1 307 306
f 1 306 340
f 1 340 382
f 1 382 423
f 1 423 467
f 1 467 509
f 1 509 554
f 1 554 596
f 1 596 642
f 1 642 686
f 1 686 697
f 1 697 696
f 1 696 695
f 1 695 656
f 1 656 613
f 1 613 612
f 1 612 603
f 1 603 578
f 1 578 534
f 1 534 490
f 1 490 444
f 1 444 404
f 1 404 362
f 1 362 323
f 1 323 290
f 1 290 260
f 1 260 227
f 1 227 197
f 1 197 167
f 1 167 138
f 1 138 105
f 1 105 78
f 1 78 52
f 1 52 36
f 1 36 34
f 1 34 19
f 1 19 10
f 1 10 4
f 1 4 5
f 1 5 6
f 1 6 2
f 2 6 5
f 2 5 11
f 2 11 20
f 2 20 35
f 2 35 51
f 2 51 77
f 2 77 104
f 2 104 137
f 2 137 166
f 2 166 196
f 2 196 226
f 2 226 259
f 2 259 289
f 2 289 322
f 2 322 361
f 2 361 360
f 2 360 400
f 2 400 441
f 2 441 442
f 2 442 488
f 2 488 533
f 2 533 532
f 2 532 577
f 2 577 626
f 2 626 625
f 2 625 669
f 2 669 708
f 2 708 737
f 2 737 739
f 2 739 738
f 2 738 709
f 2 709 672
f 2 672 671
f 2 671 670
f 2 670 627
f 2 627 579
f 2 579 537
f 2 537 536
f 2 536 535
f 2 535 492
f 2 492 453
f 2 453 452
f 2 452 451
f 2 451 447
f 2 447 408
f 2 408 364
f 2 364 326
f 2 326 293
f 2 293 263
f 2 263 229
f 2 229 200
f 2 200 168
f 2 168 140
f 2 140 107
f 2 107 106
f 2 106 80
f 2 80 79
f 2 79 53
f 2 53 37
f 2 37 21
f 2 21 12
f 2 12 7
f 3 8 9
f 4 10 5
f 5 10 11
f 7 12 13
f 8 14 15
f 8 15 9
f 9 15 16
f 9 16 17
f 9 17 18
f 10 19 11
f 11 19 20
f 12 21 22
f 12 22 13
f 13 22 23
f 13 23 24
f 14 25 15
f 15 25 16
f 16 26 17
f 16 25 27
f 16 27 28
f 16 28 29
f 16 29 30
f 16 30 26
f 17 26 30
f 17 30 31
f 17 31 32
f 17 32 18
f 18 32 33
f 19 34 20
f 20 34 36
f 20 36 35
f 21 37 38
f 21 38 22
f 22 38 39
f 22 39 23
f 23 39 40
f 23 40 41
f 23 41 24
f 28 42 43
f 28 43 29
f 29 43 44
f 29 44 30
f 30 45 31
f 30 44 46
f 30 46 47
f 30 47 48
f 30 48 45
f 31 45 49
f 31 49 32
f 32 50 33
f 32 49 50
f 35 36 52
f 35 52 51
f 37 53 54
f 37 54 38
f 38 55 39
f 38 54 56
f 38 56 55
f 39 57 40
f 39 55 57
f 40 58 59
f 40 59 60
f 40 60 41
f 40 57 58
f 42 61 62
f 42 62 43
f 43 62 63
f 43 63 44
f 44 63 46
f 45 64 49
f 45 48 65
f 45 65 66
f 45 66 64
f 46 67 68
f 46 68 69
f 46 69 70
f 46 70 71
f 46 71 72
f 46 72 47
f 46 63 62
f 46 62 67
f 47 72 48
f 48 72 71
f 48 71 73
f 48 73 74
f 48 74 66
f 48 66 65
f 49 64 75
f 49 75 76
f 49 76 50
f 51 52 78
f 51 78 77
f 53 79 54
f 54 79 80
f 54 80 81
f 54 81 56
f 55 56 82
f 55 82 57
f 56 81 83
f 56 83 82
f 57 84 58
f 57 82 85
f 57 85 84
f 58 84 86
f 58 86 59
f 59 86 87
f 61 88 62
f 62 88 68
f 62 68 67
f 64 66 75
f 66 89 90
f 66 90 75
f 66 74 73
f 66 73 91
f 66 91 92
f 66 92 93
f 66 93 94
f 66 94 89
f 68 88 95
f 68 95 96
f 68 96 97
f 68 97 98
f 68 98 99
f 68 99 100
f 68 100 69
f 69 100 70
f 70 100 101
f 70 101 71
f 71 101 102
f 71 102 91
f 71 91 73
f 75 103 76
f 75 90 89
f 75 89 103
f 77 78 104
f 78 105 104
f 80 106 81
f 81 106 107
f 81 107 108
f 81 108 83
f 82 109 110
f 82 110 85
f 82 83 111
f 82 111 109
f 83 108 112
f 83 112 111
f 84 113 114
f 84 114 115
f 84 115 86
f 84 85 110
f 84 110 113
f 86 116 117
f 86 117 87
f 86 115 116
f 89 118 119
f 89 119 120
f 89 120 103
f 89 94 121
f 89 121 122
f 89 122 118
f 91 123 92
f 91 102 124
f 91 124 125
f 91 125 126
f 91 126 123
f 92 123 127
f 92 127 93
f 93 127 128
f 93 128 94
f 94 128 121
f 97 129 98
f 98 130 131
f 98 131 99
f 98 129 130
f 99 131 132
f 99 132 133
f 99 133 134
f 99 134 100
f 100 134 101
f 101 134 135
f 101 135 136
f 101 136 124
f 101 124 102
f 104 105 138
f 104 138 137
f 107 139 108
f 107 140 139
f 108 139 141
f 108 141 112
f 109 111 142
f 109 142 143
f 109 143 110
f 110 144 113
f 110 143 144
f 111 112 145
f 111 145 146
f 111 146 142
f 112 141 145
f 113 144 147
f 113 147 114
f 114 147 132
f 114 132 148
f 114 148 116
f 114 116 115
f 116 148 149
f 116 149 117
f 118 122 150
f 121 128 151
f 121 151 122
f 122 151 152
f 122 152 153
f 122 153 150
f 123 126 127
f 124 154 125
f 124 136 155
f 124 155 156
f 124 156 154
f 125 154 126
f 126 154 157
f 126 157 158
f 126 158 159
f 126 159 127
f 127 159 128
f 128 159 160
f 128 160 151
f 129 161 130
f 130 161 162
f 130 162 149
f 130 149 148
f 130 148 131
f 131 148 132
f 132 147 163
f 132 163 133
f 133 163 134
f 134 163 135
f 135 163 164
f 135 164 155
f 135 155 136
f 137 165 166
f 137 138 167
f 137 167 165
f 139 140 168
f 139 168 141
f 141 168 169
f 141 169 170
f 141 170 145
f 142 171 172
f 142 172 173
f 142 173 143
f 142 146 174
f 142 174 171
f 143 173 144
f 144 175 163
f 144 163 147
f 144 173 176
f 144 176 175
f 145 170 177
f 145 177 178
f 145 178 146
f 146 178 174
f 151 160 179
f 151 179 180
f 151 180 181
f 151 181 182
f 151 182 152
f 152 182 153
f 153 182 183
f 154 156 184
f 154 184 185
f 154 185 157
f 155 164 176
f 155 176 186
f 155 186 156
f 156 185 184
f 156 186 176
f 156 176 187
f 156 187 188
f 156 188 189
f 156 189 185
f 157 185 190
f 157 190 158
f 158 190 191
f 158 191 179
f 158 179 159
f 159 179 160
f 163 175 176
f 163 176 164
f 165 192 166
f 165 167 193
f 165 193 194
f 165 194 192
f 166 192 195
f 166 195 196
f 167 197 198
f 167 198 199
f 167 199 193
f 168 200 169
f 169 200 201
f 169 201 170
f 170 201 202
f 170 202 177
f 171 203 187
f 171 187 204
f 171 204 172
f 171 174 205
f 171 205 206
f 171 206 203
f 172 204 173
f 173 204 176
f 174 178 205
f 176 204 187
f 177 207 178
f 177 202 208
f 177 208 207
f 178 207 205
f 179 191 209
f 179 209 180
f 180 209 210
f 180 210 181
f 181 210 182
f 182 211 183
f 182 210 212
f 182 212 213
f 182 213 211
f 185 189 214
f 185 214 215
f 185 215 190
f 187 203 188
f 188 203 216
f 188 216 217
f 188 217 189
f 189 217 214
f 190 215 218
f 190 218 191
f 191 218 209
f 192 194 219
f 192 219 220
f 192 220 195
f 193 199 221
f 193 221 222
f 193 222 194
f 194 222 219
f 195 220 223
f 195 223 196
f 196 223 224
f 196 224 225
f 196 225 226
f 197 227 198
f 198 227 228
f 198 228 221
f 198 221 199
f 200 229 201
f 201 229 230
f 201 230 231
f 201 231 202
f 202 231 232
f 202 232 208
f 203 206 216
f 205 207 206
f 206 207 216
f 207 233 216
f 207 208 234
f 207 234 233
f 208 232 235
f 208 235 234
f 209 218 236
f 209 236 237
f 209 237 210
f 210 237 212
f 211 213 238
f 212 237 239
f 212 239 240
f 212 240 241
f 212 241 242
f 212 242 213
f 213 242 243
f 213 243 244
f 213 244 238
f 214 217 245
f 214 245 246
f 214 246 215
f 215 246 247
f 215 247 248
f 215 248 218
f 216 233 249
f 216 249 250
f 216 250 217
f 217 250 245
f 218 248 251
f 218 251 236
f 219 222 220
f 220 252 223
f 220 222 252
f 221 228 253
f 221 253 222
f 222 253 254
f 222 254 252
f 223 252 224
f 224 252 255
f 224 255 256
f 224 256 257
f 224 257 225
f 225 257 258
f 225 258 226
f 226 258 259
f 227 260 261
f 227 261 262
f 227 262 228
f 228 262 253
f 229 263 230
f 230 263 264
f 230 264 231
f 231 264 265
f 231 265 232
f 232 265 266
f 232 266 235
f 233 234 267
f 233 267 249
f 234 235 268
f 234 268 267
f 235 266 269
f 235 269 268
f 236 251 239
f 236 239 237
f 239 251 270
f 239 270 271
f 239 271 240
f 240 271 272
f 240 272 241
f 241 243 242
f 241 272 243
f 243 272 273
f 243 273 274
f 243 274 275
f 243 275 244
f 245 250 276
f 245 276 277
f 245 277 246
f 246 277 247
f 247 278 251
f 247 251 248
f 247 277 279
f 247 279 280
f 247 280 278
f 249 267 250
f 250 267 281
f 250 281 276
f 251 278 270
f 252 254 255
f 253 282 254
f 253 262 282
f 254 282 283
f 254 283 255
f 255 284 285
f 255 285 286
f 255 286 256
f 255 283 287
f 255 287 284
f 256 286 285
f 256 285 258
f 256 258 257
f 258 288 259
f 258 285 288
f 259 288 289
f 260 290 291
f 260 291 292
f 260 292 261
f 261 292 283
f 261 283 282
f 261 282 262
f 263 293 264
f 264 293 294
f 264 294 265
f 265 295 266
f 265 294 295
f 266 295 296
f 266 296 269
f 267 268 297
f 267 297 281
f 268 269 297
f 269 296 298
f 269 298 299
f 269 299 297
f 270 278 300
f 270 300 271
f 271 301 302
f 271 302 272
f 271 300 303
f 271 303 301
f 272 304 273
f 272 302 305
f 272 305 304
f 273 304 274
f 274 306 307
f 274 307 275
f 274 304 308
f 274 308 306
f 276 281 309
f 276 309 277
f 277 309 310
f 277 310 279
f 278 280 300
f 279 311 280
f 279 310 312
f 279 312 311
f 280 311 313
f 280 313 300
f 281 297 309
f 283 314 287
f 283 292 315
f 283 315 314
f 284 287 314
f 284 314 316
f 284 316 317
f 284 317 285
f 285 318 288
f 285 317 318
f 288 318 289
f 289 319 320
f 289 320 321
f 289 321 322
f 289 318 319
f 290 323 291
f 291 323 324
f 291 324 292
f 292 324 325
f 292 325 315
f 293 326 294
f 294 326 327
f 294 327 295
f 295 327 328
f 295 328 296
f 296 328 329
f 296 329 298
f 297 299 330
f 297 330 309
f 298 331 299
f 298 329 332
f 298 332 331
f 299 331 330
f 300 333 303
f 300 313 334
f 300 334 333
f 301 303 335
f 301 335 302
f 302 335 336
f 302 336 305
f 303 333 337
f 303 337 335
f 304 305 308
f 305 336 338
f 305 338 308
f 306 308 339
f 306 339 340
f 308 338 339
f 309 330 341
f 309 341 310
f 310 341 312
f 311 312 342
f 311 342 343
f 311 343 313
f 312 341 344
f 312 344 342
f 313 345 334
f 313 343 345
f 314 315 325
f 314 325 324
f 314 324 346
f 314 346 316
f 316 347 348
f 316 348 349
f 316 349 317
f 316 346 347
f 317 349 350
f 317 350 351
f 317 351 318
f 318 351 352
f 318 352 353
f 318 353 354
f 318 354 355
f 318 355 319
f 319 356 357
f 319 357 320
f 319 355 358
f 319 358 356
f 320 357 321
f 321 359 360
f 321 360 361
f 321 361 322
f 321 357 359
f 323 362 363
f 323 363 324
f 324 363 346
f 326 364 365
f 326 365 327
f 327 366 367
f 327 367 328
f 327 365 368
f 327 368 366
f 328 367 369
f 328 369 370
f 328 370 329
f 329 370 371
f 329 371 332
f 330 331 372
f 330 372 341
f 331 332 373
f 331 373 372
f 332 371 374
f 332 374 373
f 333 334 375
f 333 375 337
f 334 345 376
f 334 376 375
f 335 337 377
f 335 377 336
f 336 377 378
f 336 378 379
f 336 379 338
f 337 375 377
f 338 379 380
f 338 380 339
f 339 380 381
f 339 381 340
f 340 381 382
f 341 372 344
f 342 344 383
f 342 383 384
f 342 384 385
f 342 385 343
f 343 385 386
f 343 386 376
f 343 376 345
f 344 372 387
f 344 387 383
f 346 388 389
f 346 389 347
f 346 363 388
f 347 390 348
f 347 389 391
f 347 391 390
f 348 390 392
f 348 392 349
f 349 393 394
f 349 394 350
f 349 392 393
f 350 394 395
f 350 395 351
f 351 395 396
f 351 396 352
f 352 396 397
f 352 397 353
f 353 397 354
f 354 398 358
f 354 358 355
f 354 397 398
f 356 358 403
f 356 403 399
f 356 399 357
f 357 400 359
f 357 399 401
f 357 401 400
f 358 398 402
f 358 402 403
f 359 400 360
f 362 404 363
f 363 404 405
f 363 405 406
f 363 406 407
f 363 407 388
f 364 408 365
f 365 408 368
f 366 368 367
f 367 368 409
f 367 409 410
f 367 410 369
f 368 408 411
f 368 411 409
f 369 412 371
f 369 371 370
f 369 410 413
f 369 413 412
f 371 412 414
f 371 414 374
f 372 373 415
f 372 415 387
f 373 416 415
f 373 374 414
f 373 414 416
f 375 376 417
f 375 417 418
f 375 418 378
f 375 378 377
f 376 386 417
f 378 418 419
f 378 419 379
f 379 419 420
f 379 420 380
f 380 420 421
f 380 421 381
f 381 422 382
f 381 421 422
f 382 422 423
f 383 387 415
f 383 415 384
f 384 424 385
f 384 415 425
f 384 425 426
f 384 426 424
f 385 424 386
f 386 424 427
f 386 427 417
f 388 407 428
f 388 428 429
f 388 429 391
f 388 391 389
f 390 430 392
f 390 391 431
f 390 431 432
f 390 432 430
f 391 429 433
f 391 433 431
f 392 430 393
f 393 430 434
f 393 434 394
f 394 434 435
f 394 435 436
f 394 436 395
f 395 436 396
f 396 436 437
f 396 437 438
f 396 438 397
f 397 438 402
f 397 402 398
f 399 403 439
f 399 439 440
f 399 440 401
f 400 401 441
f 401 442 441
f 401 440 442
f 402 438 443
f 402 443 403
f 403 443 439
f 404 444 445
f 404 445 405
f 405 445 406
f 406 446 407
f 406 445 446
f 407 446 428
f 408 447 411
f 409 411 448
f 409 448 410
f 410 448 449
f 410 449 450
f 410 450 413
f 411 451 452
f 411 452 453
f 411 453 448
f 411 447 451
f 412 454 455
f 412 455 456
f 412 456 425
f 412 425 416
f 412 416 414
f 412 413 457
f 412 457 458
f 412 458 459
f 412 459 454
f 413 450 457
f 415 416 425
f 417 427 460
f 417 460 418
f 418 460 419
f 419 460 461
f 419 461 420
f 420 462 421
f 420 461 463
f 420 463 464
f 420 464 462
f 421 462 465
f 421 465 422
f 422 465 423
f 423 465 466
f 423 466 467
f 424 426 468
f 424 468 469
f 424 469 427
f 425 456 470
f 425 470 426
f 426 470 468
f 427 469 471
f 427 471 460
f 428 446 472
f 428 472 473
f 428 473 429
f 429 473 433
f 430 432 474
f 430 474 434
f 431 475 432
f 431 433 476
f 431 476 475
f 432 475 477
f 432 477 474
f 433 473 478
f 433 478 476
f 434 474 479
f 434 479 435
f 435 479 480
f 435 480 481
f 435 481 436
f 436 481 437
f 437 481 482
f 437 482 443
f 437 443 438
f 439 483 484
f 439 484 440
f 439 443 485
f 439 485 483
f 440 484 486
f 440 486 487
f 440 487 442
f 442 487 486
f 442 486 488
f 443 482 489
f 443 489 485
f 444 490 445
f 445 490 491
f 445 491 446
f 446 491 472
f 448 453 449
f 449 453 492
f 449 492 493
f 449 493 494
f 449 494 450
f 450 494 495
f 450 495 457
f 454 459 496
f 454 496 497
f 454 497 498
f 454 498 456
f 454 456 455
f 456 498 470
f 457 495 458
f 458 495 499
f 458 499 500
f 458 500 501
f 458 501 496
f 458 496 459
f 460 471 502
f 460 502 461
f 461 464 463
f 461 502 503
f 461 503 464
f 462 464 504
f 462 504 465
f 464 503 505
f 464 505 506
f 464 506 504
f 465 504 466
f 466 507 467
f 466 504 508
f 466 508 507
f 467 507 509
f 468 470 510
f 468 510 511
f 468 511 469
f 469 511 512
f 469 512 471
f 470 498 510
f 471 512 513
f 471 513 502
f 472 491 514
f 472 514 473
f 473 514 515
f 473 515 478
f 474 516 479
f 474 477 516
f 475 476 517
f 475 517 518
f 475 518 477
f 476 478 517
f 477 518 519
f 477 519 516
f 478 520 517
f 478 515 521
f 478 521 520
f 479 516 522
f 479 522 480
f 480 523 524
f 480 524 481
f 480 522 523
f 481 524 482
f 482 525 526
f 482 526 489
f 482 524 525
f 483 485 527
f 483 527 528
f 483 528 529
f 483 529 484
f 484 529 530
f 484 530 531
f 484 531 486
f 485 489 526
f 485 526 527
f 486 531 532
f 486 532 533
f 486 533 488
f 490 534 491
f 491 534 514
f 492 535 493
f 493 535 536
f 493 536 537
f 493 537 538
f 493 538 494
f 494 538 539
f 494 539 499
f 494 499 495
f 496 501 497
f 497 501 540
f 497 540 541
f 497 541 498
f 498 541 510
f 499 539 542
f 499 542 543
f 499 543 544
f 499 544 500
f 500 544 501
f 501 544 545
f 501 545 546
f 501 546 540
f 502 547 505
f 502 505 503
f 502 513 547
f 504 506 508
f 505 547 548
f 505 548 549
f 505 549 506
f 506 549 550
f 506 550 508
f 507 508 551
f 507 551 552
f 507 552 509
f 508 550 553
f 508 553 551
f 509 552 554
f 510 541 555
f 510 555 511
f 511 555 556
f 511 556 512
f 512 556 557
f 512 557 513
f 513 558 547
f 513 557 558
f 514 534 559
f 514 559 560
f 514 560 515
f 515 560 521
f 516 561 522
f 516 519 561
f 517 562 518
f 517 520 562
f 518 563 519
f 518 562 563
f 519 563 564
f 519 564 561
f 520 521 565
f 520 565 562
f 521 560 566
f 521 566 567
f 521 567 565
f 522 561 568
f 522 568 523
f 523 568 569
f 523 569 524
f 524 569 525
f 525 570 571
f 525 571 526
f 525 569 570
f 526 571 527
f 527 571 528
f 528 572 573
f 528 573 529
f 528 571 574
f 528 574 572
f 529 573 530
f 530 575 531
f 530 573 576
f 530 576 575
f 531 577 532
f 531 575 577
f 534 578 559
f 537 579 538
f 538 542 539
f 538 579 580
f 538 580 542
f 540 581 541
f 540 546 581
f 541 581 555
f 542 580 582
f 542 582 583
f 542 583 543
f 543 583 584
f 543 584 544
f 544 584 585
f 544 585 586
f 544 586 545
f 545 587 546
f 545 586 587
f 546 587 588
f 546 588 589
f 546 589 590
f 546 590 591
f 546 591 581
f 547 558 548
f 548 558 592
f 548 592 549
f 549 592 593
f 549 593 594
f 549 594 550
f 550 594 553
f 551 553 552
f 552 553 595
f 552 595 596
f 552 596 554
f 553 594 593
f 553 593 597
f 553 597 598
f 553 598 599
f 553 599 595
f 555 600 556
f 555 581 600
f 556 600 601
f 556 601 557
f 557 601 602
f 557 602 558
f 558 602 592
f 559 578 603
f 559 603 560
f 560 603 566
f 561 604 605
f 561 605 568
f 561 564 604
f 562 606 563
f 562 565 607
f 562 607 606
f 563 606 608
f 563 608 564
f 564 608 609
f 564 609 604
f 565 610 607
f 565 567 611
f 565 611 610
f 566 603 567
f 567 603 612
f 567 612 613
f 567 613 614
f 567 614 611
f 568 615 616
f 568 616 569
f 568 605 604
f 568 604 617
f 568 617 615
f 569 616 570
f 570 616 618
f 570 618 571
f 571 618 574
f 572 619 573
f 572 574 620
f 572 620 619
f 573 619 576
f 574 621 620
f 574 618 622
f 574 622 621
f 575 576 623
f 575 623 624
f 575 624 625
f 575 625 626
f 575 626 577
f 576 619 623
f 579 627 580
f 580 627 582
f 581 591 600
f 582 628 629
f 582 629 583
f 582 627 628
f 583 629 630
f 583 630 585
f 583 585 584
f 585 630 631
f 585 631 632
f 585 632 633
f 585 633 634
f 585 634 586
f 586 634 587
f 587 634 588
f 588 634 633
f 588 633 635
f 588 635 636
f 588 636 589
f 589 636 590
f 590 637 638
f 590 638 600
f 590 600 591
f 590 636 639
f 590 639 637
f 592 602 640
f 592 640 597
f 592 597 593
f 595 599 641
f 595 641 596
f 596 641 642
f 597 643 644
f 597 644 598
f 597 640 645
f 597 645 643
f 598 644 646
f 598 646 599
f 599 647 641
f 599 646 648
f 599 648 647
f 600 638 601
f 601 638 649
f 601 649 602
f 602 649 640
f 604 609 650
f 604 650 617
f 606 651 608
f 606 607 610
f 606 610 651
f 608 651 652
f 608 652 609
f 609 653 650
f 609 652 653
f 610 611 654
f 610 654 655
f 610 655 651
f 611 614 654
f 613 656 614
f 614 656 657
f 614 657 658
f 614 658 654
f 615 659 616
f 615 617 660
f 615 660 659
f 616 659 618
f 617 650 691
f 617 691 661
f 617 661 660
f 618 659 622
f 619 620 662
f 619 662 623
f 620 621 663
f 620 663 662
f 621 622 664
f 621 664 665
f 621 665 663
f 622 659 666
f 622 666 664
f 623 662 667
f 623 667 624
f 624 667 668
f 624 668 669
f 624 669 625
f 627 670 628
f 628 670 671
f 628 671 672
f 628 672 673
f 628 673 629
f 629 673 674
f 629 674 630
f 630 674 631
f 631 674 675
f 631 675 676
f 631 676 632
f 632 676 677
f 632 677 633
f 633 677 678
f 633 678 635
f 635 679 636
f 635 678 680
f 635 680 679
f 636 679 639
f 637 681 649
f 637 649 638
f 637 639 682
f 637 682 681
f 639 679 683
f 639 683 684
f 639 684 682
f 640 649 681
f 640 681 645
f 641 647 685
f 641 685 642
f 642 685 686
f 643 646 644
f 643 645 687
f 643 687 688
f 643 688 646
f 645 681 684
f 645 684 687
f 646 688 689
f 646 689 648
f 647 648 690
f 647 690 685
f 648 689 690
f 650 653 691
f 651 655 652
f 652 655 692
f 652 692 653
f 653 692 693
f 653 693 691
f 654 694 655
f 654 658 694
f 655 694 692
f 656 695 657
f 657 695 696
f 657 696 697
f 657 697 698
f 657 698 658
f 658 698 694
f 659 660 666
f 660 661 699
f 660 699 700
f 660 700 701
f 660 701 666
f 661 691 699
f 662 702 667
f 662 663 702
f 663 703 702
f 663 665 704
f 663 704 705
f 663 705 703
f 664 706 665
f 664 666 701
f 664 701 706
f 665 706 704
f 667 702 707
f 667 707 668
f 668 708 669
f 668 707 708
f 672 709 710
f 672 710 673
f 673 710 674
f 674 710 675
f 675 710 711
f 675 711 676
f 676 712 713
f 676 713 677
f 676 711 712
f 677 713 678
f 678 713 714
f 678 714 715
f 678 715 680
f 679 680 716
f 679 716 683
f 680 715 716
f 681 682 684
f 683 717 718
f 683 718 719
f 683 719 684
f 683 716 717
f 684 719 720
f 684 720 687
f 685 690 721
f 685 721 722
f 685 722 686
f 686 722 697
f 687 723 688
f 687 720 723
f 688 723 724
f 688 724 689
f 689 724 725
f 689 725 690
f 690 726 721
f 690 725 727
f 690 727 728
f 690 728 726
f 691 693 729
f 691 729 699
f 692 730 693
f 692 694 727
f 692 727 731
f 692 731 730
f 693 730 732
f 693 732 729
f 694 728 727
f 694 698 726
f 694 726 728
f 697 722 698
f 698 722 726
f 699 733 700
f 699 729 733
f 700 733 734
f 700 734 701
f 701 734 715
f 701 715 706
f 702 703 707
f 703 705 711
f 703 711 735
f 703 735 736
f 703 736 707
f 704 706 714
f 704 714 713
f 704 713 705
f 705 713 712
f 705 712 711
f 706 715 714
f 707 736 708
f 708 736 737
f 709 738 710
f 710 738 739
f 710 739 735
f 710 735 711
f 715 734 716
f 716 734 717
f 717 734 733
f 717 733 718
f 718 733 729
f 718 729 732
f 718 732 720
f 718 720 719
f 720 732 723
f 721 726 722
f 723 732 730
f 723 730 724
f 724 727 725
f 724 730 731
f 724 731 727
f 735 739 737
f 735 737 736
