v -0.40997738 -0.46251613 -0.07004204
v -0.40997738 -0.46209246 0.00098468
v -0.41825363 -0.46197689 0.00098468
v -0.42844585 -0.46178430 0.00098468
v -0.42832735 -0.46178430 -0.01005353
v -0.40997738 -0.46247762 -0.09003821
v -0.35002884 -0.46232355 -0.22996894
v -0.31003022 -0.46220800 -0.28999990
v -0.39899504 -0.46028215 0.00098468
v -0.30688959 -0.46213096 -0.28978762
v -0.30688959 -0.46147618 -0.26923954
v -0.43393701 -0.46059030 0.00098468
v -0.43844056 -0.45955032 0.00098468
v -0.43832207 -0.45947331 -0.01005353
v -0.42753726 -0.46174580 -0.03004970
v -0.42631260 -0.46174580 -0.05004588
v -0.42481142 -0.46159172 -0.07004204
v -0.40997738 -0.46216947 -0.11003438
v -0.39002743 -0.46224654 -0.16998044
v -0.37001827 -0.46220800 -0.21001522
v -0.33165911 -0.46170729 -0.27157456
v -0.32476550 -0.46085989 -0.28999990
v -0.30817351 -0.46074435 -0.30817050
v -0.30688959 -0.46082139 -0.30829787
v -0.35056216 -0.46155322 -0.25030476
v -0.38900033 -0.45727783 0.00098468
v -0.30688959 -0.46016660 -0.25641823
v -0.44819826 -0.44953591 0.00098468
v -0.44815874 -0.44945890 -0.01005353
v -0.44768471 -0.44915074 -0.03004970
v -0.43753195 -0.45916516 -0.03004970
v -0.42319173 -0.46132213 -0.09003821
v -0.40527630 -0.46143764 -0.14998427
v -0.38994843 -0.46136063 -0.18874541
v -0.36940593 -0.46116805 -0.22839811
v -0.34426114 -0.46093693 -0.26597053
v -0.33940205 -0.45981994 -0.27930132
v -0.32030147 -0.46008956 -0.30027395
v -0.30688959 -0.46062881 -0.31008098
v -0.36231482 -0.46070582 -0.24380916
v -0.30688959 -0.43235734 0.00098468
v -0.50868011 -0.36934358 0.00098468
v -0.50868011 -0.36930504 -0.00907707
v -0.50868011 -0.36888137 -0.03004970
v -0.50868011 -0.36814955 -0.05004588
v -0.50868011 -0.36714810 -0.06842875
v -0.50868011 -0.36576149 -0.08855230
v -0.50868011 -0.36564595 -0.09008066
v -0.50868011 -0.36433637 -0.10638327
v -0.44685510 -0.44845742 -0.05004588
v -0.43632707 -0.45847183 -0.05004588
v -0.42155227 -0.46070582 -0.11003438
v -0.40215543 -0.46082139 -0.16998044
v -0.42046589 -0.46024364 -0.12238870
v -0.40047646 -0.46020514 -0.18123093
v -0.38271904 -0.46082139 -0.21001522
v -0.38042778 -0.46016660 -0.22071381
v -0.50868011 -0.29496729 -0.43273264
v -0.35759401 -0.45924219 -0.25713995
v -0.30688959 -0.45816374 -0.31691617
v -0.30688959 -0.24797657 0.00098468
v -0.50868011 -0.19682604 0.00098468
v -0.50868011 -0.36190981 -0.13003054
v -0.44555143 -0.44726342 -0.07004204
v -0.50868011 -0.35975283 -0.14998427
v -0.50868011 -0.35721073 -0.17142388
v -0.50868011 -0.35501525 -0.18857560
v -0.43480614 -0.45727783 -0.07004204
v -0.41793758 -0.45931923 -0.13571948
v -0.43320620 -0.45535198 -0.09003821
v -0.43154699 -0.45265579 -0.11003438
v -0.50868011 -0.33352280 -0.30999607
v -0.39654574 -0.45851037 -0.19456170
v -0.41523150 -0.45770150 -0.14998427
v -0.50868011 -0.32019591 -0.36077189
v -0.50868011 -0.31757677 -0.36947513
v -0.50868011 -0.31083629 -0.39006567
v -0.37564769 -0.45781708 -0.23404458
v -0.50868011 -0.30317140 -0.41171753
v -0.50868011 -0.30005154 -0.42016605
v -0.50868011 -0.29650795 -0.42903906
v -0.50868011 -0.29581466 -0.43073726
v -0.50868011 -0.06902669 -0.43273264
v -0.50500613 -0.29673907 -0.43273264
v -0.30688959 -0.44980553 -0.32854879
v -0.49295717 -0.30220848 -0.43273264
v -0.48912522 -0.30382618 -0.43273264
v -0.47261223 -0.31056666 -0.43273264
v -0.46862224 -0.31218436 -0.43273264
v -0.45623749 -0.31711456 -0.43273264
v -0.30688959 -0.18939225 -0.43273264
v -0.44385272 -0.44537610 -0.09003821
v -0.50868011 -0.35228056 -0.20793495
v -0.50868011 -0.34916067 -0.22839811
v -0.50868011 -0.34580970 -0.24864900
v -0.50868011 -0.34530896 -0.25149348
v -0.50868011 -0.34272835 -0.26597053
v -0.50868011 -0.34199652 -0.26996127
v -0.50868011 -0.32863113 -0.32994980
v -0.50868011 -0.32350838 -0.34922421
v -0.50868011 -0.33383092 -0.30863750
v -0.50868011 -0.30401877 -0.40934008
v -0.50868011 -0.32269952 -0.35215360
v -0.45303759 -0.31834710 -0.43273264
v -0.44551194 -0.32112032 -0.43273264
v -0.30688959 -0.44795674 -0.33096868
v -0.30688959 -0.36071578 -0.43273264
v -0.50868011 -0.34018621 -0.27913147
v -0.50868011 -0.33756706 -0.29195282
v -0.43271238 -0.32551125 -0.43273264
v -0.42971000 -0.32651269 -0.43273264
v -0.40847617 -0.33329168 -0.43273264
v -0.39571613 -0.33725893 -0.43273264
v -0.39002743 -0.33899218 -0.43273264
v -0.37142068 -0.34426901 -0.43273264
v -0.35293245 -0.34923771 -0.43273264
v -0.35014737 -0.34996954 -0.43273264
v -0.33298251 -0.35439897 -0.43273264
v -0.32952583 -0.35528487 -0.43273264
v -0.31003022 -0.35998395 -0.43273264
f 1 2 3
f 1 3 4
f 1 4 5
f 1 5 6
f 1 6 7
f 1 7 8
f 1 8 2
f 2 9 26
f 2 26 41
f 2 41 61
f 2 61 62
f 2 62 42
f 2 42 28
f 2 28 13
f 2 13 12
f 2 12 4
f 2 4 3
f 2 8 10
f 2 10 11
f 2 11 9
f 4 12 5
f 5 12 13
f 5 13 14
f 5 14 15
f 5 15 16
f 5 16 6
f 6 16 17
f 6 17 18
f 6 18 19
f 6 19 7
f 7 19 20
f 7 20 8
f 8 21 22
f 8 22 23
f 8 23 24
f 8 24 10
f 8 20 25
f 8 25 21
f 9 11 27
f 9 27 26
f 10 24 39
f 10 39 60
f 10 60 85
f 10 85 106
f 10 106 107
f 10 107 91
f 10 91 61
f 10 61 41
f 10 41 27
f 10 27 11
f 13 28 29
f 13 29 14
f 14 29 30
f 14 30 31
f 14 31 16
f 14 16 15
f 16 31 17
f 17 32 18
f 17 31 32
f 18 33 19
f 18 32 33
f 19 33 34
f 19 34 20
f 20 35 25
f 20 34 35
f 21 36 22
f 21 25 36
f 22 36 37
f 22 37 38
f 22 38 23
f 23 38 39
f 23 39 24
f 25 35 40
f 25 40 36
f 26 27 41
f 28 42 43
f 28 43 29
f 29 43 44
f 29 44 45
f 29 45 30
f 30 45 46
f 30 46 47
f 30 47 48
f 30 48 49
f 30 49 50
f 30 50 31
f 31 50 51
f 31 51 32
f 32 51 52
f 32 52 33
f 33 53 34
f 33 52 54
f 33 54 53
f 34 53 55
f 34 55 56
f 34 56 35
f 35 56 57
f 35 57 40
f 36 40 37
f 37 58 38
f 37 40 59
f 37 59 58
f 38 60 39
f 38 58 60
f 40 57 59
f 42 62 83
f 42 83 58
f 42 58 82
f 42 82 81
f 42 81 80
f 42 80 79
f 42 79 102
f 42 102 77
f 42 77 76
f 42 76 75
f 42 75 103
f 42 103 100
f 42 100 99
f 42 99 72
f 42 72 101
f 42 101 109
f 42 109 108
f 42 108 98
f 42 98 97
f 42 97 96
f 42 96 95
f 42 95 94
f 42 94 93
f 42 93 67
f 42 67 66
f 42 66 65
f 42 65 63
f 42 63 49
f 42 49 48
f 42 48 47
f 42 47 46
f 42 46 45
f 42 45 44
f 42 44 43
f 49 63 50
f 50 64 51
f 50 63 65
f 50 65 66
f 50 66 67
f 50 67 64
f 51 64 68
f 51 68 54
f 51 54 52
f 53 54 55
f 54 69 55
f 54 68 70
f 54 70 71
f 54 71 72
f 54 72 69
f 55 73 57
f 55 57 56
f 55 69 74
f 55 74 75
f 55 75 76
f 55 76 77
f 55 77 73
f 57 78 59
f 57 73 79
f 57 79 80
f 57 80 81
f 57 81 78
f 58 83 91
f 58 91 107
f 58 107 120
f 58 120 119
f 58 119 118
f 58 118 117
f 58 117 116
f 58 116 115
f 58 115 114
f 58 114 113
f 58 113 112
f 58 112 111
f 58 111 110
f 58 110 105
f 58 105 104
f 58 104 90
f 58 90 89
f 58 89 88
f 58 88 87
f 58 87 86
f 58 86 84
f 58 84 60
f 58 59 82
f 59 78 82
f 60 84 86
f 60 86 87
f 60 87 88
f 60 88 89
f 60 89 90
f 60 90 85
f 61 91 83
f 61 83 62
f 64 92 70
f 64 70 68
f 64 67 93
f 64 93 94
f 64 94 95
f 64 95 96
f 64 96 97
f 64 97 98
f 64 98 92
f 69 72 99
f 69 99 100
f 69 100 74
f 70 92 71
f 71 92 101
f 71 101 72
f 73 77 102
f 73 102 79
f 74 100 103
f 74 103 75
f 78 81 82
f 85 90 104
f 85 104 105
f 85 105 106
f 92 98 108
f 92 108 109
f 92 109 101
f 105 110 106
f 106 110 111
f 106 111 112
f 106 112 113
f 106 113 114
f 106 114 115
f 106 115 116
f 106 116 117
f 106 117 118
f 106 118 119
f 106 119 120
f 106 120 107
