v 0.00702216 -0.39302009 -0.47919038
v 0.01004207 -0.39302009 -0.47919038
v -0.00127198 -0.39293346 -0.47919038
v -0.00127198 -0.31690988 -0.63385147
v 0.03007559 -0.39219704 -0.47919038
v 0.01004207 -0.31690988 -0.63385147
v 0.03007559 -0.31677991 -0.63358456
v 0.05006659 -0.32141498 -0.62299806
v 0.07005757 -0.32102513 -0.62219739
v -0.00127198 -0.21134324 -0.47919038
v -0.00127198 -0.30837619 -0.65004259
v 0.05006659 -0.39046431 -0.47919038
v 0.09004857 -0.32041866 -0.62099642
v 0.10110741 -0.32007211 -0.62019575
v 0.11442056 -0.31950897 -0.61903924
v 0.01004207 -0.30837619 -0.65004259
v 0.03007559 -0.30807295 -0.65004259
v 0.05006659 -0.30750981 -0.65004259
v 0.05006659 -0.31647670 -0.63300633
v 0.07005757 -0.31608683 -0.63220567
v 0.36758304 -0.13982476 -0.47919038
v 0.43317050 -0.09897564 -0.47923487
v 0.43325555 0.04951942 -0.60253668
v -0.00127198 0.04951942 -0.74251902
v -0.00127198 -0.30144525 -0.66249734
v 0.01004207 -0.30144525 -0.66254181
v 0.06095530 -0.38907814 -0.47919038
v 0.13003054 -0.31872925 -0.61739343
v 0.13003054 -0.32332098 -0.60738516
v 0.15006407 -0.32228136 -0.60502768
v 0.17005506 -0.32656986 -0.59003747
v 0.09004857 -0.31543708 -0.63100469
v 0.10867847 -0.31543708 -0.62815785
v 0.13003054 -0.31240478 -0.63002610
v 0.03007559 -0.30131531 -0.66231942
v 0.07005757 -0.30668676 -0.65004259
v 0.05006659 -0.30101207 -0.66183013
v 0.43325555 -0.13982476 -0.47919038
v 0.43325555 -0.09940881 -0.47923487
v 0.43325555 0.04951942 -0.82418644
v -0.00127198 0.04951942 -0.93352121
v -0.00127198 -0.29806644 -0.66819096
v 0.01004207 -0.29546732 -0.67255008
v 0.10965675 -0.38245043 -0.47919038
v 0.18932296 -0.32353759 -0.59119403
v 0.19004604 -0.33259112 -0.57002097
v 0.15006407 -0.31755966 -0.61499143
v 0.17005506 -0.32106844 -0.60235876
v 0.18217725 -0.32024539 -0.60066849
v 0.08983590 -0.30447751 -0.65173292
v 0.11003955 -0.30465081 -0.64848578
v 0.13003054 -0.30365449 -0.64657307
v 0.15006407 -0.30997896 -0.63002610
v 0.03007559 -0.29529405 -0.67228323
v 0.07005757 -0.30057889 -0.66102946
v 0.08303045 -0.30018902 -0.66036224
v 0.05006659 -0.29499084 -0.67179394
v 0.43325555 -0.30859277 -0.47919038
v 0.43325555 0.04705027 -0.82320786
v 0.43066099 0.04951942 -0.82556534
v 0.01004207 0.04951942 -0.93356568
v -0.00127198 0.02998288 -0.92604840
v -0.00127198 -0.29542401 -0.67250562
v -0.00127198 -0.28979266 -0.68144631
v 0.01004207 -0.28546080 -0.68829644
v 0.03007559 -0.28528753 -0.68807405
v 0.23083617 -0.36092126 -0.47919038
v 0.21003704 -0.32977539 -0.57002097
v 0.21003704 -0.33696625 -0.55258435
v 0.22113842 -0.34017181 -0.54052997
v 0.23445156 -0.33904552 -0.53763866
v 0.24993394 -0.34142804 -0.52393848
v 0.24993394 -0.34649628 -0.51006031
v 0.19549039 -0.31929237 -0.59857786
v 0.21003704 -0.32275784 -0.58616763
v 0.17005506 -0.31626010 -0.61236703
v 0.18932296 -0.31543708 -0.60840821
v 0.09634360 -0.29966921 -0.65951711
v 0.11003955 -0.29906273 -0.65844953
v 0.15006407 -0.30239826 -0.64430451
v 0.13003054 -0.29793647 -0.65658134
v 0.17005506 -0.30724990 -0.63002610
v 0.07005757 -0.29447103 -0.67103773
v 0.08983590 -0.29486087 -0.66823542
v 0.05006659 -0.28498432 -0.68754023
v 0.43108633 -0.30941582 -0.47919038
v 0.43325555 -0.30430424 -0.48968795
v 0.42453611 0.03466125 -0.82231826
v 0.40990439 0.04951942 -0.83637428
v 0.43015057 0.04951942 -0.82583225
v 0.43325555 0.03357829 -0.81724739
v 0.03054348 0.04951942 -0.93312085
v 0.03007559 0.02998288 -0.92564803
v 0.01004207 0.02998288 -0.92604840
v 0.01004207 0.01737726 -0.92102200
v -0.00127198 0.01742058 -0.92102200
v -0.00127198 -0.28546080 -0.68825197
v 0.01004207 -0.27878979 -0.69830471
v 0.03007559 -0.27861652 -0.69803780
v 0.23806696 -0.35962170 -0.47919038
v 0.22994295 -0.32648322 -0.57002097
v 0.22866693 -0.33570999 -0.54835862
v 0.24993394 -0.33124822 -0.55000442
v 0.24993394 -0.33765933 -0.53394675
v 0.26180094 -0.34034508 -0.52104717
v 0.26996747 -0.34983176 -0.49004379
v 0.24993394 -0.35745579 -0.47919038
v 0.21003704 -0.31816611 -0.59617591
v 0.22994295 -0.32106844 -0.58243120
v 0.21003704 -0.31127852 -0.61000955
v 0.18868496 -0.30391440 -0.63100469
v 0.11003955 -0.29191524 -0.67001468
v 0.13003054 -0.28966269 -0.67001468
v 0.17005506 -0.30096877 -0.64181358
v 0.15006407 -0.29659361 -0.65431279
v 0.18111390 -0.30014569 -0.64034569
v 0.07005757 -0.28446448 -0.68673956
v 0.09004857 -0.28377140 -0.68562758
v 0.05006659 -0.27822667 -0.69754851
v 0.41747546 -0.31435412 -0.47919038
v 0.40807542 -0.31405085 -0.48817557
v 0.43053338 -0.30482408 -0.49079996
v 0.40981930 -0.30408767 -0.51028275
v 0.42423835 -0.30161852 -0.50369954
v 0.43325555 -0.30265817 -0.49351335
v 0.41870892 0.02131923 -0.81929350
v 0.41122293 0.02881329 -0.82654393
v 0.39820755 0.04193872 -0.83908767
v 0.39169982 0.04951942 -0.84544849
v 0.43325555 0.02621418 -0.81377786
v 0.05006659 0.04951942 -0.93240917
v 0.05006659 0.02998288 -0.92489183
v 0.05006659 0.01876344 -0.92044377
v 0.03007559 0.01785375 -0.92079961
v 0.03007559 0.00784723 -0.91661835
v 0.01004207 0.00737074 -0.91679627
v -0.00127198 0.01304543 -0.91924274
v -0.00127198 -0.28164881 -0.69394553
v -0.00127198 -0.27874649 -0.69826025
v -0.00127198 -0.27003950 -0.70995879
v 0.01004207 -0.27008283 -0.70995879
v 0.03007559 -0.26969296 -0.70995879
v 0.05006659 -0.26895654 -0.70995879
v 0.24066153 -0.32011545 -0.58034062
v 0.24836019 -0.32293111 -0.57042128
v 0.26996747 -0.32726294 -0.55000442
v 0.26996747 -0.32154495 -0.56357121
v 0.26907426 -0.33596992 -0.52860898
v 0.27515662 -0.33895886 -0.51735520
v 0.26907426 -0.34272757 -0.51041615
v 0.28995845 -0.34575987 -0.49004379
v 0.27009505 -0.35355714 -0.47919038
v 0.22994295 -0.31634673 -0.59243947
v 0.22994295 -0.30755311 -0.61000955
v 0.21003704 -0.30309135 -0.62580037
v 0.19442704 -0.29897612 -0.63834405
v 0.11003955 -0.28281841 -0.68420416
v 0.13003054 -0.28164881 -0.68246937
v 0.14444958 -0.28065249 -0.68095702
v 0.15070207 -0.28567740 -0.67166048
v 0.17005506 -0.29507747 -0.65182185
v 0.17005506 -0.28507096 -0.66792405
v 0.18868496 -0.29408115 -0.64821887
v 0.07005757 -0.27766353 -0.69674784
v 0.09004857 -0.27688378 -0.69563586
v 0.07082319 -0.26635745 -0.71182698
v 0.41160575 -0.31647670 -0.47919038
v 0.38995594 -0.31764629 -0.49431399
v 0.38995594 -0.31110525 -0.51006031
v 0.40016410 -0.32002878 -0.48021346
v 0.40305641 -0.30114204 -0.52255952
v 0.43325555 -0.29724339 -0.50561219
v 0.41636956 -0.29858625 -0.51704389
v 0.43325555 0.00680760 -0.80461472
v 0.41122293 0.00845370 -0.81702501
v 0.40539578 0.01408507 -0.82271856
v 0.39089167 0.02876996 -0.83673012
v 0.37868440 0.02127591 -0.83935452
v 0.38489437 0.03461793 -0.84233475
v 0.39089167 0.04951942 -0.84584880
v 0.07005757 0.04951942 -0.93125266
v 0.06967478 0.02838010 -0.92320156
v 0.06278425 0.01954317 -0.92013240
v 0.05006659 0.00875692 -0.91621804
v 0.05006659 -0.01004322 -0.90798903
v 0.03007559 -0.01004322 -0.90874517
v 0.01004207 -0.01004322 -0.90910101
v -0.00127198 -0.00016664 -0.91346020
v -0.00127198 0.00741406 -0.91679627
v -0.00127198 -0.26510122 -0.71649748
v 0.01004207 -0.26128921 -0.72156835
v 0.03007559 -0.26107264 -0.72130150
v 0.05006659 -0.26068276 -0.72081220
v 0.06465575 -0.26029289 -0.72036737
v 0.24836019 -0.31470066 -0.58821374
v 0.25397468 -0.31872925 -0.57736039
v 0.28876752 -0.32297444 -0.55031580
v 0.28995845 -0.33094501 -0.53007686
v 0.28132403 -0.32028872 -0.56076884
v 0.26996747 -0.31699651 -0.57357943
v 0.28995845 -0.33739942 -0.51312953
v 0.28995845 -0.34108147 -0.50312126
v 0.30803540 -0.34199116 -0.48955449
v 0.30076209 -0.34714603 -0.47919038
v 0.28995845 -0.34948522 -0.47919038
v 0.30012408 -0.33999851 -0.50014102
v 0.22994295 -0.30118534 -0.62219739
v 0.24040632 -0.30005908 -0.62019575
v 0.24823257 -0.30348122 -0.61045438
v 0.21003704 -0.29754663 -0.63576412
v 0.21003704 -0.28892627 -0.65004259
v 0.11003955 -0.27588749 -0.69421244
v 0.13003054 -0.27458793 -0.69247764
v 0.15070207 -0.27419806 -0.68860781
v 0.15780526 -0.27961284 -0.67948914
v 0.19004604 -0.28333822 -0.66516620
v 0.17005506 -0.27857322 -0.67793232
v 0.09004857 -0.26692060 -0.70906913
v 0.07796891 -0.25985971 -0.71978909
v 0.40084463 -0.32020205 -0.47919038
v 0.37842923 -0.31950897 -0.49885106
v 0.37102830 -0.31712645 -0.51041615
v 0.36992240 -0.30915591 -0.53007686
v 0.38872245 -0.30304801 -0.52958757
v 0.38995594 -0.32163155 -0.48430574
v 0.39459214 -0.29797977 -0.53590393
v 0.40981930 -0.29516411 -0.52958757
v 0.43053338 -0.29611710 -0.51028275
v 0.43325555 -0.29490420 -0.51041615
v 0.42521662 -0.00549479 -0.80274653
v 0.39918581 0.00074303 -0.81956041
v 0.43325555 -0.00770402 -0.79727530
v 0.38587266 -0.00584134 -0.82285202
v 0.37115589 0.00875692 -0.83695257
v 0.35852331 0.00126286 -0.83931005
v 0.36532873 0.01460488 -0.84242374
v 0.37115589 0.02876996 -0.84611571
v 0.37022012 0.04951942 -0.85554570
v 0.09064405 0.04951942 -0.92960685
v 0.09004857 0.03214879 -0.92302364
v 0.07609741 0.02062613 -0.91964304
v 0.06967478 0.01170257 -0.91635144
v 0.07005757 -0.01004322 -0.90683252
v 0.07005757 -0.02247556 -0.90109444
v 0.05006659 -0.02368847 -0.90167266
v 0.03007559 -0.02446820 -0.90207303
v 0.01004207 -0.02485806 -0.90225095
v -0.00127198 -0.01004322 -0.90905654
v -0.00127198 -0.26124591 -0.72152388
v -0.00127198 -0.25648087 -0.72717297
v -0.00127198 -0.25279883 -0.73153216
v 0.01004207 -0.25279883 -0.73157662
v 0.03007559 -0.25262555 -0.73130971
v 0.05006659 -0.25219238 -0.73082042
v 0.07005757 -0.24162272 -0.74176282
v 0.07082319 -0.25318870 -0.72819608
v 0.26996747 -0.30902594 -0.59003747
v 0.30650419 -0.32158825 -0.54382157
v 0.31190601 -0.32505372 -0.53198957
v 0.30803540 -0.33519018 -0.50810313
v 0.28876752 -0.31491724 -0.56846410
v 0.29463720 -0.31868595 -0.55712140
v 0.32364541 -0.34090820 -0.48257095
v 0.30905622 -0.34532666 -0.47919038
v 0.31343722 -0.33843905 -0.49591529
v 0.22994295 -0.29542401 -0.63220567
v 0.24823257 -0.29356134 -0.62815785
v 0.25371948 -0.29849961 -0.61739343
v 0.26996747 -0.30200839 -0.60373771
v 0.21003704 -0.28134558 -0.66214150
v 0.22092575 -0.28017598 -0.66036224
v 0.22853933 -0.28446448 -0.65079880
v 0.11003955 -0.26588094 -0.70769024
v 0.13003054 -0.26462471 -0.70599997
v 0.15006407 -0.26302195 -0.70395380
v 0.17005506 -0.26982290 -0.68998671
v 0.19004604 -0.27666721 -0.67517447
v 0.18868496 -0.26549107 -0.69109875
v 0.09004857 -0.25929657 -0.71907741
v 0.09004857 -0.24079967 -0.74082869
v 0.09004857 -0.25006980 -0.72997528
v 0.38178939 -0.32596338 -0.47919038
v 0.36511606 -0.32154495 -0.50405538
v 0.35631150 -0.31890252 -0.51735520
v 0.34976128 -0.31582692 -0.52932066
v 0.35112238 -0.30551717 -0.55147231
v 0.36992240 -0.30235493 -0.54506701
v 0.38123646 -0.30040562 -0.54097474
v 0.37102830 -0.32466385 -0.49133375
v 0.38872245 -0.29377791 -0.54862553
v 0.40960664 -0.28468108 -0.55027133
v 0.42457861 -0.28195202 -0.54373258
v 0.43070352 -0.28589398 -0.53101099
v 0.43325555 -0.28528753 -0.53003240
v 0.41122293 -0.01129945 -0.80715013
v 0.41870892 -0.01883683 -0.79927701
v 0.39148715 -0.01151603 -0.81715840
v 0.43325555 -0.01121281 -0.79540712
v 0.37902468 -0.01918337 -0.81947148
v 0.37141109 -0.01151603 -0.82694429
v 0.36571154 -0.02520461 -0.82267410
v 0.35107982 -0.01082294 -0.83659673
v 0.34521013 -0.00467175 -0.84220135
v 0.35107982 0.00875692 -0.84598225
v 0.35022914 0.02976628 -0.85590154
v 0.35707712 0.04293504 -0.85870385
v 0.35044181 0.04951942 -0.86421955
v 0.11003955 0.04951942 -0.92760521
v 0.11003955 0.03474788 -0.92200059
v 0.09004857 0.02214226 -0.91906482
v 0.09004857 0.00996983 -0.91399395
v 0.09149472 -0.01190589 -0.90416360
v 0.08579516 -0.02117601 -0.90051615
v 0.07005757 -0.03248207 -0.89629042
v 0.05006659 -0.03369500 -0.89686871
v 0.03007559 -0.03447472 -0.89722455
v -0.00127198 -0.02477142 -0.90220642
v -0.00127198 -0.01645432 -0.90607631
v 0.01004207 -0.03482127 -0.89740247
v -0.00127198 -0.02914657 -0.90011585
v -0.00127198 -0.24279231 -0.74305278
v 0.01004207 -0.24279231 -0.74309725
v 0.03007559 -0.24261904 -0.74287486
v 0.05006659 -0.24222916 -0.74243003
v 0.05006659 -0.23295906 -0.75243831
v 0.07005757 -0.23230928 -0.75177109
v 0.28191954 -0.30049226 -0.60097986
v 0.28910777 -0.30395770 -0.59061575
v 0.31190601 -0.31742969 -0.55031580
v 0.31985986 -0.31994218 -0.53999615
v 0.32994044 -0.32908231 -0.51006031
v 0.30994946 -0.30872273 -0.57002097
v 0.33623546 -0.33891556 -0.47919038
v 0.32551688 -0.34160131 -0.47919038
v 0.33015311 -0.33670634 -0.48955449
v 0.24993394 -0.28303498 -0.64492726
v 0.26435298 -0.28117231 -0.64194703
v 0.27060547 -0.28589398 -0.63140500
v 0.26996747 -0.29642034 -0.61374599
v 0.21003704 -0.27450129 -0.67210531
v 0.23428142 -0.27861652 -0.65791577
v 0.22853933 -0.27285519 -0.66823542
v 0.11003955 -0.25817031 -0.71769851
v 0.13003054 -0.25678411 -0.71596372
v 0.17005506 -0.26124591 -0.70164078
v 0.15006407 -0.25509471 -0.71391761
v 0.18111390 -0.26020625 -0.70026189
v 0.21003704 -0.26453808 -0.68611687
v 0.19442704 -0.25877675 -0.69843817
v 0.10157529 -0.24019322 -0.74016148
v 0.10897621 -0.24669096 -0.73148769
v 0.09004857 -0.23144293 -0.75083697
v 0.37043282 -0.32934225 -0.47919038
v 0.34993142 -0.33124822 -0.49004379
v 0.34976128 -0.32349426 -0.51041615
v 0.34299839 -0.32085186 -0.52220368
v 0.32994044 -0.31855598 -0.53661561
v 0.32994044 -0.31257805 -0.55000442
v 0.34529519 -0.30170518 -0.56343776
v 0.35860837 -0.29949594 -0.55912304
v 0.36992240 -0.29745996 -0.55507529
v 0.36073506 -0.33215791 -0.47919038
v 0.36992240 -0.28953272 -0.57002097
v 0.38808444 -0.28299168 -0.56930923
v 0.40275866 -0.28112897 -0.56214780
v 0.41607183 -0.27831328 -0.55707693
v 0.43325555 -0.28351149 -0.53354639
v 0.43325555 -0.27679715 -0.54613459
v 0.40539578 -0.02537788 -0.80279100
v 0.43325555 -0.03330512 -0.78348619
v 0.41122293 -0.03122585 -0.79651916
v 0.39110434 -0.03122585 -0.80697227
v 0.37141109 -0.03113921 -0.81675810
v 0.35086715 -0.03113921 -0.82627708
v 0.35818303 -0.03850332 -0.81911558
v 0.33746895 -0.01801378 -0.83890975
v 0.33045083 -0.01082294 -0.84527051
v 0.32994044 0.01022974 -0.85545671
v 0.33661827 0.02296531 -0.85861492
v 0.34372145 0.03630733 -0.86155063
v 0.35022914 0.04951942 -0.86430848
v 0.11080517 0.04951942 -0.92751622
v 0.13003054 0.04951942 -0.92511427
v 0.13003054 0.03795344 -0.92071062
v 0.11003955 0.02474137 -0.91799724
v 0.11003955 0.00996983 -0.91185886
v 0.11003955 -0.00848375 -0.90380776
v 0.09915084 -0.01983315 -0.89984894
v 0.09149472 -0.02871339 -0.89629042
v 0.09115445 -0.05184535 -0.88463640
v 0.07005757 -0.05002598 -0.88739419
v 0.05006659 -0.05002598 -0.88855076
v 0.03007559 -0.05002598 -0.88930690
v 0.01004207 -0.05002598 -0.88966274
v -0.00127198 -0.04136233 -0.89402193
v -0.00127198 -0.03477795 -0.89735800
v -0.00127198 -0.23352221 -0.75306106
v 0.01004207 -0.23356551 -0.75310552
v 0.03007559 -0.23334892 -0.75283861
v 0.03007559 -0.22338572 -0.76338065
v 0.05006659 -0.22295254 -0.76298034
v 0.07005757 -0.22234608 -0.76235759
v 0.28910777 -0.29416779 -0.60858613
v 0.29523265 -0.29867288 -0.59764379
v 0.30994946 -0.30192176 -0.58381015
v 0.32994044 -0.32258457 -0.52660733
v 0.32122096 -0.30036229 -0.58074093
v 0.32870695 -0.30343789 -0.57010990
v 0.35082465 -0.33497360 -0.47919038
v 0.24993394 -0.27658057 -0.65489107
v 0.27770865 -0.27930963 -0.63901126
v 0.27060547 -0.27458793 -0.64919746
v 0.28995845 -0.28368476 -0.62611175
v 0.24912579 -0.26562104 -0.67090428
v 0.22994295 -0.26211226 -0.68282527
v 0.24189502 -0.26055279 -0.68073463
v 0.13003054 -0.24682091 -0.72792917
v 0.15006407 -0.24513149 -0.72592753
v 0.17005506 -0.25318870 -0.71160460
v 0.18638812 -0.24144945 -0.72165734
v 0.19042885 -0.25011310 -0.71004772
v 0.21003704 -0.25691408 -0.69608063
v 0.19970126 -0.23988998 -0.71987808
v 0.21003704 -0.24690755 -0.70826846
v 0.11493097 -0.23932685 -0.73918289
v 0.10442507 -0.22061336 -0.76057833
v 0.09004857 -0.22143640 -0.76137900
v 0.33453411 -0.29828304 -0.57678211
v 0.35112238 -0.29624707 -0.57010990
v 0.34988889 -0.28524423 -0.59074920
v 0.36992240 -0.28199536 -0.58354324
v 0.38017309 -0.28004602 -0.58020717
v 0.39348626 -0.27736029 -0.57549214
v 0.40960664 -0.27402478 -0.56930923
v 0.43070352 -0.27558425 -0.55027133
v 0.42925736 -0.26479799 -0.56993198
v 0.43325555 -0.27437133 -0.55031580
v 0.39850527 -0.03867659 -0.79918802
v 0.43325555 -0.04565084 -0.77645814
v 0.42428088 -0.04409137 -0.78228515
v 0.38519213 -0.04469784 -0.80256861
v 0.34482735 -0.04396142 -0.82214034
v 0.37051788 -0.05080571 -0.80626053
v 0.36422285 -0.06349797 -0.80199033
v 0.35086715 -0.05037253 -0.81573504
v 0.33045083 -0.03001294 -0.83557367
v 0.32415581 -0.02334192 -0.84162307
v 0.30922636 -0.00900358 -0.85447812
v 0.31539381 0.00373200 -0.85821456
v 0.32326257 0.01707403 -0.86123931
v 0.32994044 0.02976628 -0.86421955
v 0.32853681 0.04951942 -0.87311578
v 0.33045083 0.04951942 -0.87235957
v 0.14819257 0.04951942 -0.92240089
v 0.14045137 0.03981613 -0.91999894
v 0.13003054 0.02794692 -0.91670734
v 0.13003054 0.00996983 -0.90923446
v 0.13003054 -0.00558142 -0.90247333
v 0.11003955 -0.01849027 -0.89922619
v 0.11003955 -0.03005625 -0.89362156
v 0.11003955 -0.04846653 -0.88432503
v 0.09855537 -0.05972928 -0.87978792
v 0.08519968 -0.06094219 -0.88045514
v 0.07005757 -0.06206846 -0.88103342
v 0.05006659 -0.06310810 -0.88161165
v 0.03007559 -0.06380119 -0.88201201
v 0.01004207 -0.06410442 -0.88218993
v -0.00127198 -0.06406111 -0.88214540
v -0.00127198 -0.05002598 -0.88957381
v -0.00127198 -0.22355899 -0.76355863
v 0.01004207 -0.22355899 -0.76360309
v 0.01004207 -0.21337920 -0.77361137
v 0.03007559 -0.21316260 -0.77338892
v 0.05006659 -0.21272942 -0.77294415
v 0.07005757 -0.21203634 -0.77232140
v 0.31084266 -0.28615391 -0.61147743
v 0.30994946 -0.29655027 -0.59377390
v 0.32870695 -0.29369128 -0.58848065
v 0.26996747 -0.26375836 -0.66521072
v 0.28995845 -0.27749026 -0.63612002
v 0.29076660 -0.26687726 -0.65151048
v 0.28464168 -0.26150581 -0.66209704
v 0.30476028 -0.28147554 -0.62250876
v 0.25525069 -0.25860348 -0.67819923
v 0.22994295 -0.25427166 -0.69283354
v 0.25065702 -0.25024307 -0.69025362
v 0.13003054 -0.23815726 -0.73789299
v 0.15006407 -0.23633789 -0.73593581
v 0.17005506 -0.24318218 -0.72365898
v 0.17005506 -0.23430192 -0.73366725
v 0.19183247 -0.23352221 -0.72899669
v 0.22994295 -0.24426514 -0.70506585
v 0.20187050 -0.22048339 -0.74047285
v 0.20914382 -0.22711110 -0.73108733
v 0.21003704 -0.23850380 -0.71827674
v 0.11778075 -0.21966034 -0.75964427
v 0.13003054 -0.22815073 -0.74856842
v 0.09004857 -0.21104002 -0.77138728
v 0.10242596 -0.20034041 -0.78028351
v 0.34321105 -0.28112897 -0.60195845
v 0.35652420 -0.27870315 -0.59791064
v 0.36992240 -0.27606076 -0.59355152
v 0.38987088 -0.26999620 -0.58999300
v 0.39961118 -0.25985971 -0.59982336
v 0.40994692 -0.26380166 -0.58607864
v 0.42211163 -0.26102930 -0.58167505
v 0.43325555 -0.26029289 -0.57415771
v 0.43325555 -0.26397496 -0.56810826
v 0.41024464 -0.05045916 -0.78615505
v 0.39110434 -0.05080571 -0.79607433
v 0.43325555 -0.05314489 -0.77205449
v 0.41713518 -0.05739009 -0.77841532
v 0.37757853 -0.05799654 -0.79878771
v 0.33623546 -0.05726013 -0.81835943
v 0.32972777 -0.05037253 -0.82494265
v 0.37051788 -0.07008234 -0.79491782
v 0.35571605 -0.07683999 -0.79798704
v 0.34942102 -0.07008234 -0.80488163
v 0.31543633 -0.03668395 -0.83819801
v 0.30926889 -0.03001294 -0.84398055
v 0.28995845 -0.01606445 -0.85803664
v 0.30208063 -0.00168279 -0.86074996
v 0.30922636 0.01022974 -0.86350781
v 0.30803540 0.03193219 -0.87356055
v 0.31339470 0.04596731 -0.87751937
v 0.32287979 0.04951942 -0.87529534
v 0.14900072 0.04951942 -0.92226744
v 0.15376453 0.04271844 -0.91893137
v 0.14827764 0.03188887 -0.91550630
v 0.15006407 0.00996983 -0.90607631
v 0.15006407 -0.00207265 -0.90087199
v 0.13003054 -0.01558796 -0.89789176
v 0.13003054 -0.03005625 -0.89095271
v 0.13003054 -0.04586743 -0.88299060
v 0.11003955 -0.05842973 -0.87912071
v 0.11003955 -0.06999571 -0.87275994
v 0.09115445 -0.06856620 -0.87565118
v 0.07005757 -0.07203167 -0.87551773
v 0.05006659 -0.07311463 -0.87609601
v 0.03007559 -0.07380772 -0.87649632
v 0.01004207 -0.07411094 -0.87667423
v -0.00127198 -0.07406762 -0.87662977
v -0.00127198 -0.21333589 -0.77356684
v -0.00127198 -0.20332935 -0.78308582
v 0.01004207 -0.20337269 -0.78308582
v 0.03007559 -0.20315608 -0.78290790
v 0.05006659 -0.20272291 -0.78246307
v 0.07005757 -0.20202981 -0.78184038
v 0.09004857 -0.20107681 -0.78095073
v 0.31811598 -0.27939624 -0.61903924
v 0.32994044 -0.28338152 -0.60578382
v 0.26996747 -0.25630760 -0.67517447
v 0.30994946 -0.26427817 -0.64621723
v 0.31084266 -0.27502111 -0.62949228
v 0.29799739 -0.25933990 -0.65907228
v 0.29076660 -0.25396842 -0.66921401
v 0.25941902 -0.23980334 -0.69981706
v 0.26996747 -0.24630108 -0.68771815
v 0.24606335 -0.24188262 -0.70221907
v 0.15006407 -0.22633137 -0.74665576
v 0.17005506 -0.22429541 -0.74447620
v 0.19004604 -0.22199954 -0.74202973
v 0.22994295 -0.23564479 -0.71502960
v 0.21518365 -0.21857738 -0.73851568
v 0.19004604 -0.21203634 -0.75203800
v 0.20161530 -0.20047036 -0.76040041
v 0.22994295 -0.22563827 -0.72614992
v 0.13003054 -0.21862072 -0.75857669
v 0.11573911 -0.19934408 -0.77939391
v 0.13003054 -0.20861419 -0.76827359
v 0.08205217 -0.18024072 -0.80016661
v 0.09540785 -0.17937435 -0.79945493
v 0.10948661 -0.19163343 -0.78704464
v 0.32994044 -0.27731699 -0.61579210
v 0.34988889 -0.27411142 -0.60920888
v 0.36953962 -0.26553440 -0.61049885
v 0.38625547 -0.26267540 -0.60413802
v 0.40994692 -0.25734726 -0.59608692
v 0.37591970 -0.25825694 -0.61748236
v 0.39174235 -0.25596106 -0.61049885
v 0.40369442 -0.24183930 -0.62255323
v 0.41020215 -0.24699418 -0.61081022
v 0.42640758 -0.24326882 -0.60467184
v 0.43325555 -0.24781722 -0.59310669
v 0.43325555 -0.25414169 -0.58367670
v 0.40382200 -0.06345465 -0.78201830
v 0.43325555 -0.06726666 -0.76355863
v 0.38965821 -0.07008234 -0.78535438
v 0.38276768 -0.08225478 -0.78139555
v 0.34240291 -0.08173496 -0.80105627
v 0.32972777 -0.06925929 -0.81400025
v 0.32287979 -0.06211178 -0.82116175
v 0.30926889 -0.04894303 -0.83392781
v 0.36839119 -0.08935898 -0.78384203
v 0.36069253 -0.10053509 -0.78028351
v 0.34942102 -0.08905575 -0.79304963
v 0.30212319 -0.04157892 -0.84077793
v 0.28995845 -0.03005625 -0.85100859
v 0.27958015 -0.01978983 -0.85981590
v 0.28995845 -0.00610125 -0.86284059
v 0.28995845 0.00996983 -0.87026894
v 0.30008155 0.03985944 -0.87996584
v 0.30663180 0.04951942 -0.88143373
v 0.30999199 0.04951942 -0.88018829
v 0.17005506 0.04951942 -0.91853106
v 0.17005506 0.04657377 -0.91741902
v 0.17005506 0.02998288 -0.91079134
v 0.16818357 0.00970992 -0.90269578
v 0.16031477 -0.00016664 -0.89998239
v 0.15006407 -0.01207918 -0.89624596
v 0.15006407 -0.03005625 -0.88766110
v 0.15006407 -0.04274851 -0.88134480
v 0.13003054 -0.05587395 -0.87774181
v 0.13003054 -0.06999571 -0.87004656
v 0.13003054 -0.08385756 -0.86221790
v 0.11003955 -0.08619674 -0.86359680
v 0.09004857 -0.08801611 -0.86466432
v 0.07005757 -0.08940230 -0.86550951
v 0.05206569 -0.09200139 -0.86506468
v 0.03007559 -0.09000875 -0.86711079
v 0.01004207 -0.09000875 -0.86746663
v -0.00127198 -0.09000875 -0.86737770
v -0.00127198 -0.19215325 -0.79309410
v 0.01004207 -0.19219656 -0.79309410
v 0.03007559 -0.19197997 -0.79291618
v 0.05006659 -0.19150347 -0.79247135
v 0.07005757 -0.19076706 -0.79184866
v 0.32458115 -0.26172239 -0.64248079
v 0.33070606 -0.26687726 -0.63136053
v 0.28995845 -0.24296558 -0.68358141
v 0.30994946 -0.25717399 -0.65618104
v 0.30212319 -0.24079967 -0.68095702
v 0.30922636 -0.24621445 -0.67068189
v 0.26996747 -0.23798397 -0.69772643
v 0.25163531 -0.23386875 -0.70929158
v 0.24993394 -0.22247604 -0.72263592
v 0.26146066 -0.22057003 -0.72054529
v 0.15006407 -0.21671471 -0.75666404
v 0.17005506 -0.21450548 -0.75443995
v 0.22994295 -0.21623820 -0.73611373
v 0.21492845 -0.19839108 -0.75848776
v 0.22994295 -0.20623168 -0.74612200
v 0.19004604 -0.20202981 -0.76191282
v 0.19153473 -0.18899101 -0.77338892
v 0.19914833 -0.17972089 -0.77970529
v 0.20897368 -0.19102697 -0.76685023
v 0.15006407 -0.20670819 -0.76640540
v 0.13003054 -0.19813117 -0.77828187
v 0.13003054 -0.18812464 -0.78708917
v 0.07005757 -0.18080385 -0.80065590
v 0.07005757 -0.17006092 -0.80946320
v 0.08924042 -0.17166370 -0.80643845
v 0.11003955 -0.17829140 -0.79856527
v 0.11003955 -0.16837151 -0.80666089
v 0.34993142 -0.26362839 -0.62544453
v 0.36260656 -0.26111594 -0.62166363
v 0.36953962 -0.25284216 -0.62900299
v 0.38804191 -0.24413517 -0.62953681
v 0.41700757 -0.23850380 -0.61801618
v 0.39344370 -0.23681438 -0.63594210
v 0.43325555 -0.23668444 -0.60894203
v 0.41024464 -0.07008234 -0.77445650
v 0.39612335 -0.07679667 -0.77792603
v 0.42904469 -0.06943257 -0.76453722
v 0.43325555 -0.07372108 -0.75955528
v 0.38965821 -0.08935898 -0.77312207
v 0.37400568 -0.09555349 -0.77699190
v 0.34993142 -0.10417382 -0.78281897
v 0.32994044 -0.09590004 -0.79727530
v 0.32994044 -0.08589351 -0.80372512
v 0.30994946 -0.07649345 -0.81782568
v 0.30994946 -0.06648692 -0.82374167
v 0.29978383 -0.07991559 -0.81987178
v 0.28995845 -0.05557072 -0.83748633
v 0.36936945 -0.10958861 -0.76965255
v 0.36469072 -0.12319055 -0.76231313
v 0.34993142 -0.11418035 -0.77583539
v 0.28995845 -0.04556420 -0.84295750
v 0.27171135 -0.03053276 -0.85701358
v 0.26622447 -0.02420829 -0.86199546
v 0.27171135 -0.01186258 -0.86617672
v 0.27086067 0.00988320 -0.87658530
v 0.27813399 0.02131923 -0.87934315
v 0.28995845 0.02591096 -0.87734145
v 0.28995845 0.03591748 -0.88165617
v 0.29042631 0.04951942 -0.88712734
v 0.18090123 0.04951942 -0.91635144
v 0.18885510 0.04951942 -0.91475016
v 0.19004604 0.02998288 -0.90678799
v 0.19004604 0.01672748 -0.90131682
v 0.17362791 0.00286563 -0.89869243
v 0.16818357 -0.00809389 -0.89473361
v 0.16911930 -0.03083599 -0.88370228
v 0.16180345 -0.04071255 -0.88027722
v 0.15006407 -0.05275504 -0.87609601
v 0.15142515 -0.07181507 -0.86550951
v 0.14568307 -0.08173496 -0.86092794
v 0.13003054 -0.09386408 -0.85621291
v 0.11003955 -0.09615994 -0.85763633
v 0.09004857 -0.09802263 -0.85870385
v 0.07005757 -0.09940881 -0.85959351
v 0.06006208 -0.10001528 -0.85994935
v 0.04670641 -0.10053509 -0.86026073
v 0.03007559 -0.10101159 -0.86057204
v 0.01004207 -0.10127150 -0.86074996
v -0.00127198 -0.09490371 -0.86448640
v -0.00127198 -0.18652187 -0.79803151
v 0.01004207 -0.18219005 -0.80185688
v 0.03007559 -0.18201678 -0.80163449
v 0.05006659 -0.18149695 -0.80127865
v 0.33789429 -0.25920993 -0.63892233
v 0.33070606 -0.25422832 -0.64950883
v 0.28995845 -0.23438856 -0.69358969
v 0.32994044 -0.24331212 -0.66423213
v 0.30416483 -0.22169632 -0.70190769
v 0.30977932 -0.22992678 -0.68994224
v 0.31543633 -0.23820058 -0.67784333
v 0.28995845 -0.22442536 -0.70488793
v 0.24993394 -0.21285938 -0.73264420
v 0.26184347 -0.20073026 -0.74065077
v 0.26830864 -0.20939392 -0.72935259
v 0.27481633 -0.21805757 -0.71792090
v 0.17005506 -0.20449895 -0.76427031
v 0.24993394 -0.20285286 -0.74274141
v 0.22994295 -0.19592193 -0.75608575
v 0.22994295 -0.18587209 -0.76524889
v 0.17005506 -0.19371270 -0.77427858
v 0.18583518 -0.18162690 -0.78139555
v 0.21003704 -0.17790154 -0.77819288
v 0.19008857 -0.17006092 -0.78998041
v 0.19438452 -0.15827835 -0.79856527
v 0.21003704 -0.16793832 -0.78646642
v 0.15006407 -0.19609521 -0.77641368
v 0.15006407 -0.18604536 -0.78526545
v 0.13003054 -0.17651534 -0.79709744
v 0.05006659 -0.17006092 -0.81066418
v 0.05006659 -0.15931799 -0.81938249
v 0.07005757 -0.15849495 -0.81875974
v 0.09004857 -0.15736867 -0.81787014
v 0.13003054 -0.16655214 -0.80519301
v 0.11003955 -0.15580921 -0.81666911
v 0.34993142 -0.25674081 -0.63545281
v 0.36992240 -0.24240243 -0.64314801
v 0.38013059 -0.24006325 -0.64012331
v 0.43325555 -0.22420877 -0.62544453
v 0.41177589 -0.23096642 -0.63127154
v 0.41989988 -0.21996358 -0.63998985
v 0.38804191 -0.22906041 -0.64888608
v 0.40654421 -0.22347236 -0.64430451
v 0.42177138 -0.08156168 -0.76097870
v 0.40820301 -0.08896911 -0.76351410
v 0.43325555 -0.08169165 -0.75435102
v 0.40037677 -0.10036182 -0.76017803
v 0.38995594 -0.10426046 -0.76289135
v 0.33725628 -0.11833890 -0.77877116
v 0.33032322 -0.11101811 -0.78682226
v 0.31905171 -0.09945214 -0.79958838
v 0.30573857 -0.10343742 -0.80225724
v 0.29187250 -0.09026866 -0.81613535
v 0.28647065 -0.08377092 -0.82227373
v 0.27115843 -0.06995239 -0.83588499
v 0.29187250 -0.07194503 -0.82738912
v 0.27864441 -0.05920946 -0.83948797
v 0.37800387 -0.11864213 -0.75893253
v 0.37077308 -0.12990488 -0.75408411
v 0.35435498 -0.13653257 -0.75724226
v 0.34163728 -0.13982476 -0.76084524
v 0.34857035 -0.12990488 -0.76493752
v 0.27115843 -0.05154212 -0.84616017
v 0.25580364 -0.03755032 -0.85865939
v 0.24946606 -0.03053276 -0.86408609
v 0.24908327 -0.00874366 -0.87476158
v 0.25512308 0.00312555 -0.87849796
v 0.26477832 0.01646757 -0.88147819
v 0.27086067 0.02881329 -0.88490325
v 0.27128601 0.04951942 -0.89335471
v 0.21058998 0.04951942 -0.91003513
v 0.20863341 0.02993956 -0.90269578
v 0.20097728 0.01945654 -0.90016031
v 0.19004604 0.00676428 -0.89695764
v 0.19004604 -0.01004322 -0.88935137
v 0.19004604 -0.02485806 -0.88232338
v 0.17515914 -0.03802682 -0.87894279
v 0.16911930 -0.04842321 -0.87476158
v 0.17005506 -0.06769983 -0.86421955
v 0.15903875 -0.07969900 -0.85972691
v 0.15142515 -0.08905575 -0.85550117
v 0.15006407 -0.10716279 -0.84451437
v 0.12964773 -0.11145130 -0.84522605
v 0.11003955 -0.11002179 -0.84887350
v 0.09004857 -0.11002179 -0.85109758
v 0.07005757 -0.11002179 -0.85283232
v 0.07005757 -0.12483664 -0.84322441
v 0.05206569 -0.10833238 -0.85505641
v 0.03007559 -0.11101811 -0.85421127
v 0.01004207 -0.11127803 -0.85438919
v -0.00127198 -0.10560333 -0.85794771
v -0.00127198 -0.10122818 -0.86070549
v -0.00127198 -0.18214673 -0.80181241
v -0.00127198 -0.16066086 -0.81956041
v 0.01004207 -0.17006092 -0.81186515
v 0.02012263 -0.16001108 -0.81996071
v 0.02807650 -0.16802497 -0.81319958
v 0.03343579 -0.15979449 -0.81978279
v 0.34920835 -0.24595454 -0.65048742
v 0.34202009 -0.24088630 -0.66116291
v 0.31747797 -0.21892394 -0.69888294
v 0.28995845 -0.21515524 -0.71485168
v 0.30484536 -0.20211644 -0.72210211
v 0.32994044 -0.22520509 -0.68589443
v 0.32994044 -0.23516829 -0.67424035
v 0.27515662 -0.19808784 -0.73811537
v 0.24993394 -0.19232652 -0.75274968
v 0.26065251 -0.18028404 -0.76022249
v 0.26792583 -0.18920760 -0.74919116
v 0.28995845 -0.20514873 -0.72517133
v 0.24993394 -0.18232000 -0.76200175
v 0.22994295 -0.17439274 -0.77521265
v 0.17005506 -0.18370618 -0.78321928
v 0.17005506 -0.17179365 -0.79322755
v 0.22994295 -0.16442955 -0.78357512
v 0.18102883 -0.16031431 -0.80016661
v 0.21003704 -0.15559262 -0.79647470
v 0.18864243 -0.15095757 -0.80554885
v 0.18966323 -0.13982476 -0.81373340
v 0.19842525 -0.13982476 -0.81150931
v 0.21003704 -0.14558610 -0.80416989
v 0.15006407 -0.17434943 -0.79527366
v 0.15006407 -0.16438623 -0.80341375
v 0.05006659 -0.14931147 -0.82698876
v 0.07005757 -0.14848842 -0.82636601
v 0.09004857 -0.14731883 -0.82547641
v 0.11003955 -0.14580269 -0.82431990
v 0.13003054 -0.15390320 -0.81520128
v 0.35537577 -0.23794067 -0.65742648
v 0.36992240 -0.23447520 -0.65315628
v 0.38268262 -0.22134976 -0.66165221
v 0.43325555 -0.21827416 -0.63287288
v 0.39599577 -0.21792762 -0.65760440
v 0.41190350 -0.21528521 -0.65057641
v 0.42147362 -0.20086022 -0.66098499
v 0.43325555 -0.20532200 -0.64817441
v 0.42993790 -0.21714789 -0.63656479
v 0.43325555 -0.09330094 -0.74661124
v 0.41373247 -0.09490371 -0.75648606
v 0.42559946 -0.10447706 -0.74314171
v 0.40871343 -0.10911211 -0.74928015
v 0.38995594 -0.11426698 -0.75581884
v 0.33032322 -0.12938505 -0.77356684
v 0.32390061 -0.12232418 -0.78161794
v 0.31139559 -0.11006512 -0.79540712
v 0.29387158 -0.11677945 -0.79767567
v 0.28829962 -0.11006512 -0.80430335
v 0.27460366 -0.09706963 -0.81804806
v 0.26873398 -0.09026866 -0.82445335
v 0.25363439 -0.07658008 -0.83793116
v 0.26533127 -0.06323805 -0.84175652
v 0.40373695 -0.12280069 -0.74207419
v 0.38855231 -0.12968829 -0.74496543
v 0.38013059 -0.13982476 -0.74167383
v 0.37022012 -0.13982476 -0.74670023
v 0.36094773 -0.13982476 -0.75137073
v 0.35299388 -0.13982476 -0.75528508
v 0.34899569 -0.14948474 -0.74950254
v 0.34363639 -0.16209036 -0.74171835
v 0.32994044 -0.15377325 -0.75484025
v 0.32994044 -0.14376673 -0.76289135
v 0.33006802 -0.13982476 -0.76587164
v 0.24946606 -0.04889971 -0.85461158
v 0.24249049 -0.04149228 -0.86070549
v 0.22994295 -0.03005625 -0.86986864
v 0.22994295 -0.01463495 -0.87738597
v 0.24180995 -0.00120628 -0.88045514
v 0.24908327 0.00988320 -0.88330197
v 0.24993394 0.02998288 -0.89179784
v 0.24993394 0.04479772 -0.89802521
v 0.26345977 0.04951942 -0.89580119
v 0.26890412 0.04951942 -0.89411086
v 0.23113391 0.04951942 -0.90491980
v 0.23121898 0.04847978 -0.90451944
v 0.22534928 0.03661057 -0.90131682
v 0.21433297 0.02326854 -0.89855897
v 0.20863341 0.01165925 -0.89491153
v 0.21012209 -0.01103954 -0.88423604
v 0.20352933 -0.02178247 -0.88081098
v 0.19004604 -0.03486459 -0.87738597
v 0.19004604 -0.05002598 -0.86951280
v 0.19004604 -0.06388783 -0.86208439
v 0.17005506 -0.07770636 -0.85861492
v 0.17005506 -0.09000875 -0.85127550
v 0.17005506 -0.10413051 -0.84255719
v 0.15006407 -0.11716931 -0.83806455
v 0.13607037 -0.11907531 -0.83931005
v 0.12275723 -0.12063477 -0.84033310
v 0.11003955 -0.12189101 -0.84117830
v 0.09004857 -0.12353709 -0.84233475
v 0.05006659 -0.12574632 -0.84384716
v 0.07005757 -0.13484317 -0.83632982
v 0.03007559 -0.12630947 -0.84420300
v 0.01004207 -0.12656938 -0.84438092
v -0.00127198 -0.11123471 -0.85434473
v -0.00127198 -0.15117416 -0.82663292
v 0.01004207 -0.15004788 -0.82756704
v 0.01004207 -0.16005440 -0.82000524
v 0.02960773 -0.13982476 -0.83481747
v 0.02807650 -0.15186724 -0.82587671
v 0.34431693 -0.22204286 -0.68229145
v 0.34984636 -0.22997010 -0.66997015
v 0.32994044 -0.20618837 -0.70640028
v 0.32994044 -0.21619488 -0.69590271
v 0.31815851 -0.19921413 -0.71916640
v 0.28995845 -0.19505557 -0.73517960
v 0.31118292 -0.19059378 -0.73050910
v 0.28995845 -0.18504904 -0.74465412
v 0.27400818 -0.17742503 -0.75768709
v 0.25048688 -0.16906461 -0.77312207
v 0.25746247 -0.15901476 -0.77912700
v 0.26839370 -0.17049411 -0.76569366
v 0.24414931 -0.16174382 -0.78135109
v 0.17005506 -0.16183046 -0.80141211
v 0.23181444 -0.14952806 -0.79478437
v 0.16069758 -0.14021464 -0.82009417
v 0.17311750 -0.13982476 -0.81764770
v 0.17583968 -0.13982476 -0.81702501
v 0.22641262 -0.14255382 -0.80185688
v 0.19004604 -0.13562289 -0.81675810
v 0.21003704 -0.13207079 -0.81417817
v 0.21003704 -0.13982476 -0.80848461
v 0.22211669 -0.13982476 -0.80510402
v 0.15006407 -0.15156402 -0.81342202
v 0.03539236 -0.13982476 -0.83459508
v 0.05006659 -0.13982476 -0.83401680
v 0.07005757 -0.13982476 -0.83277130
v 0.07796891 -0.13982476 -0.83205962
v 0.09004857 -0.13982476 -0.83094758
v 0.10025673 -0.13982476 -0.82979107
v 0.11003955 -0.13982476 -0.82863456
v 0.12322510 -0.13982476 -0.82676637
v 0.13003054 -0.14389668 -0.82285202
v 0.15006407 -0.14160082 -0.82111728
v 0.36992240 -0.22451200 -0.66529965
v 0.35767263 -0.21888062 -0.67877746
v 0.36992240 -0.21576171 -0.67530793
v 0.38995594 -0.21004370 -0.67001468
v 0.43325555 -0.21602161 -0.63554174
v 0.39727178 -0.19852103 -0.67842162
v 0.40994692 -0.20410909 -0.66454351
v 0.43325555 -0.19492561 -0.65969503
v 0.43325555 -0.19938740 -0.65489107
v 0.40994692 -0.19475234 -0.67455173
v 0.42189896 -0.18119372 -0.68117946
v 0.42832160 -0.18903433 -0.66899163
v 0.43325555 -0.10789920 -0.73633611
v 0.41705012 -0.11781909 -0.73829329
v 0.30994946 -0.13627267 -0.77712536
v 0.30994946 -0.12626615 -0.78455371
v 0.28055844 -0.12033154 -0.80016661
v 0.29833764 -0.13982476 -0.77926046
v 0.26873398 -0.10846233 -0.81248790
v 0.26129052 -0.10070837 -0.82040554
v 0.24814752 -0.08810274 -0.83259338
v 0.24027872 -0.08017550 -0.84002173
v 0.24814752 -0.06995239 -0.84340233
v 0.43325555 -0.12475000 -0.72365898
v 0.41164827 -0.13129106 -0.73090941
v 0.39961118 -0.13982476 -0.73099840
v 0.39433694 -0.13614272 -0.73686987
v 0.38098127 -0.14073445 -0.74051732
v 0.36992240 -0.14424323 -0.74336416
v 0.35694954 -0.15827835 -0.73851568
v 0.32994044 -0.16568577 -0.74483204
v 0.31543633 -0.15771522 -0.75804293
v 0.35103732 -0.17062406 -0.73050910
v 0.34512508 -0.18270986 -0.72250247
v 0.32994044 -0.17564899 -0.73611373
v 0.30922636 -0.15061101 -0.76622748
v 0.30977932 -0.13982476 -0.77445650
v 0.31939200 -0.13982476 -0.77040869
v 0.22994295 -0.05474767 -0.85710251
v 0.22994295 -0.04474115 -0.86244029
v 0.21012209 -0.02910325 -0.87551773
v 0.21675740 -0.01836032 -0.87912071
v 0.22994295 -0.00462843 -0.88210094
v 0.22994295 0.00996983 -0.88868415
v 0.23870496 0.04076913 -0.89962655
v 0.24993394 0.04951942 -0.89984894
v 0.23428142 0.04951942 -0.90411913
v 0.23121898 0.02993956 -0.89700216
v 0.20973930 -0.05093566 -0.86444193
v 0.20284878 -0.06128874 -0.86066103
v 0.19004604 -0.07389435 -0.85647976
v 0.19089672 -0.09156821 -0.84580433
v 0.18477182 -0.10166137 -0.84100032
v 0.17005506 -0.11413703 -0.83610737
v 0.16843876 -0.13090120 -0.82494265
v 0.16103785 -0.13982476 -0.82031661
v 0.15006407 -0.12999152 -0.82921284
v 0.15006407 -0.13982476 -0.82236272
v 0.12964773 -0.12838875 -0.83388335
v 0.11003955 -0.13185421 -0.83428371
v 0.09004857 -0.13354361 -0.83544016
v 0.05006659 -0.13575286 -0.83695257
v 0.03007559 -0.13631599 -0.83735287
v -0.00127198 -0.12648274 -0.84433645
v 0.01004207 -0.13653257 -0.83753079
v -0.00127198 -0.13648926 -0.83748633
v -0.00127198 -0.13085788 -0.84135616
v -0.00127198 -0.13982476 -0.83508432
v 0.01004207 -0.13982476 -0.83512884
v 0.01387013 -0.13982476 -0.83508432
v 0.34525269 -0.20259295 -0.70270836
v 0.35146266 -0.21073678 -0.69078737
v 0.32994044 -0.19644175 -0.71636409
v 0.31752050 -0.17881122 -0.73891604
v 0.32994044 -0.18639192 -0.72610545
v 0.30416483 -0.18193012 -0.74176282
v 0.28995845 -0.17387293 -0.75461787
v 0.28995845 -0.16390973 -0.76320273
v 0.26996747 -0.15619908 -0.77690297
v 0.25048688 -0.15143406 -0.78740048
v 0.26996747 -0.14623587 -0.78477609
v 0.24036379 -0.13982476 -0.79981077
v 0.17401072 -0.13822199 -0.81862628
v 0.23959817 -0.13982476 -0.80003315
v 0.19004604 -0.12561637 -0.82387507
v 0.21003704 -0.12206428 -0.82138413
v 0.22020267 -0.12011495 -0.82000524
v 0.12994547 -0.13982476 -0.82578778
v 0.35856581 -0.19930077 -0.69928330
v 0.36992240 -0.20575517 -0.68616134
v 0.38391608 -0.20211644 -0.68224698
v 0.36992240 -0.19622517 -0.69616961
v 0.39063647 -0.19042051 -0.69038707
v 0.39735687 -0.17842135 -0.69852710
v 0.40994692 -0.18478914 -0.68478245
v 0.43325555 -0.18747488 -0.66747922
v 0.43325555 -0.17465267 -0.68051225
v 0.43325555 -0.18050063 -0.67468518
v 0.40994692 -0.17443606 -0.69479066
v 0.43325555 -0.11262089 -0.73282212
v 0.28625798 -0.13982476 -0.78375304
v 0.26996747 -0.13293716 -0.79473990
v 0.26996747 -0.12293064 -0.80203485
v 0.28532225 -0.14264046 -0.78197384
v 0.30212319 -0.16113736 -0.76088971
v 0.24993394 -0.11344394 -0.81542367
v 0.24993394 -0.10343742 -0.82222927
v 0.22994295 -0.09252121 -0.83526230
v 0.22994295 -0.08255801 -0.84144515
v 0.22994295 -0.06999571 -0.84865111
v 0.41951707 -0.13982476 -0.71970016
v 0.43325555 -0.13492981 -0.71551889
v 0.42993790 -0.13596945 -0.71667540
v 0.40624645 -0.14437318 -0.72356999
v 0.38867992 -0.14922483 -0.72926360
v 0.36992240 -0.15424976 -0.73513514
v 0.38298035 -0.16191709 -0.72165734
v 0.36992240 -0.16581573 -0.72512686
v 0.35843822 -0.17915776 -0.71921086
v 0.35184544 -0.19098365 -0.71093738
v 0.21611939 -0.05821314 -0.85897076
v 0.20973930 -0.06878279 -0.85470057
v 0.21003704 -0.08688983 -0.84411401
v 0.19808498 -0.09932218 -0.83948797
v 0.19089672 -0.10902547 -0.83481747
v 0.24993394 -0.13765885 -0.79820943
v 0.26996747 -0.13982476 -0.78962457
v 0.23351581 -0.11725594 -0.81800354
v 0.24993394 -0.12765233 -0.80541539
v 0.21003704 -0.11002179 -0.82943523
v 0.22811399 -0.11036834 -0.82423091
v 0.36992240 -0.18621863 -0.70613337
v 0.38400117 -0.18232000 -0.70226353
v 0.36992240 -0.17577894 -0.71609718
v 0.39016861 -0.17019089 -0.71009219
v 0.40994692 -0.16447286 -0.70404279
v 0.42121845 -0.16087745 -0.70075119
v 0.42819402 -0.16893464 -0.68896365
v 0.43325555 -0.16737519 -0.68731785
v 0.21003704 -0.09689636 -0.83797562
v 0.43325555 -0.13982476 -0.71151561
v 0.43325555 -0.14779533 -0.70484346
v 0.42870444 -0.14983130 -0.70582199
v 0.41173333 -0.15061101 -0.71507412
v 0.43325555 -0.13761553 -0.71333933
v 0.39633602 -0.15771522 -0.71792090
v 0.43325555 -0.15485620 -0.69883847
v 0.43325555 -0.15901476 -0.69510204
f 1 2 5
f 1 5 12
f 1 12 27
f 1 27 44
f 1 44 67
f 1 67 100
f 1 100 107
f 1 107 152
f 1 152 205
f 1 205 204
f 1 204 264
f 1 264 334
f 1 334 333
f 1 333 409
f 1 409 362
f 1 362 353
f 1 353 282
f 1 282 220
f 1 220 167
f 1 167 120
f 1 120 86
f 1 86 58
f 1 58 38
f 1 38 21
f 1 21 10
f 1 10 3
f 1 3 4
f 1 4 6
f 1 6 2
f 2 6 7
f 2 7 8
f 2 8 9
f 2 9 5
f 3 10 24
f 3 24 41
f 3 41 62
f 3 62 96
f 3 96 137
f 3 137 189
f 3 189 188
f 3 188 248
f 3 248 318
f 3 318 317
f 3 317 320
f 3 320 396
f 3 396 395
f 3 395 469
f 3 469 468
f 3 468 542
f 3 542 622
f 3 622 706
f 3 706 798
f 3 798 797
f 3 797 901
f 3 901 1004
f 3 1004 1007
f 3 1007 1006
f 3 1006 1008
f 3 1008 902
f 3 902 800
f 3 800 799
f 3 799 707
f 3 707 623
f 3 623 544
f 3 544 543
f 3 543 470
f 3 470 397
f 3 397 321
f 3 321 251
f 3 251 250
f 3 250 249
f 3 249 190
f 3 190 140
f 3 140 139
f 3 139 138
f 3 138 97
f 3 97 64
f 3 64 63
f 3 63 42
f 3 42 25
f 3 25 11
f 3 11 4
f 4 11 16
f 4 16 6
f 5 9 13
f 5 13 14
f 5 14 15
f 5 15 12
f 6 16 7
f 7 16 17
f 7 17 18
f 7 18 19
f 7 19 8
f 8 19 20
f 8 20 9
f 9 20 13
f 10 21 22
f 10 22 23
f 10 23 24
f 11 25 26
f 11 26 16
f 12 15 28
f 12 28 29
f 12 29 30
f 12 30 31
f 12 31 27
f 13 20 32
f 13 32 14
f 14 32 33
f 14 33 15
f 15 33 34
f 15 34 28
f 16 26 35
f 16 35 17
f 17 35 18
f 18 36 20
f 18 20 19
f 18 35 37
f 18 37 36
f 20 36 32
f 21 38 22
f 22 38 39
f 22 39 23
f 23 39 38
f 23 38 58
f 23 58 87
f 23 87 125
f 23 125 172
f 23 172 229
f 23 229 294
f 23 294 367
f 23 367 368
f 23 368 437
f 23 437 508
f 23 508 507
f 23 507 585
f 23 585 584
f 23 584 661
f 23 661 745
f 23 745 838
f 23 838 945
f 23 945 842
f 23 842 949
f 23 949 948
f 23 948 1036
f 23 1036 1038
f 23 1038 1037
f 23 1037 1079
f 23 1079 1088
f 23 1088 1087
f 23 1087 1082
f 23 1082 1081
f 23 1081 1085
f 23 1085 1052
f 23 1052 964
f 23 964 1040
f 23 1040 953
f 23 953 844
f 23 844 752
f 23 752 665
f 23 665 587
f 23 587 511
f 23 511 439
f 23 439 370
f 23 370 298
f 23 298 232
f 23 232 174
f 23 174 130
f 23 130 91
f 23 91 59
f 23 59 40
f 23 40 60
f 23 60 90
f 23 90 89
f 23 89 129
f 23 129 180
f 23 180 238
f 23 238 307
f 23 307 381
f 23 381 453
f 23 453 452
f 23 452 526
f 23 526 604
f 23 604 603
f 23 603 686
f 23 686 776
f 23 776 878
f 23 878 877
f 23 877 986
f 23 986 987
f 23 987 879
f 23 879 777
f 23 777 688
f 23 688 687
f 23 687 605
f 23 605 527
f 23 527 454
f 23 454 383
f 23 383 382
f 23 382 308
f 23 308 239
f 23 239 181
f 23 181 131
f 23 131 92
f 23 92 61
f 23 61 41
f 23 41 24
f 25 42 26
f 26 42 43
f 26 43 35
f 27 31 45
f 27 45 46
f 27 46 44
f 28 47 30
f 28 30 29
f 28 34 47
f 30 48 31
f 30 47 48
f 31 48 49
f 31 49 45
f 32 36 50
f 32 50 51
f 32 51 33
f 33 51 34
f 34 51 52
f 34 52 53
f 34 53 47
f 35 43 54
f 35 54 57
f 35 57 37
f 36 37 55
f 36 55 56
f 36 56 50
f 37 57 55
f 40 59 60
f 41 61 62
f 42 63 43
f 43 63 64
f 43 64 65
f 43 65 66
f 43 66 54
f 44 46 68
f 44 68 69
f 44 69 70
f 44 70 71
f 44 71 72
f 44 72 73
f 44 73 67
f 45 49 74
f 45 74 75
f 45 75 68
f 45 68 46
f 47 76 48
f 47 53 76
f 48 76 49
f 49 76 77
f 49 77 74
f 50 56 78
f 50 78 51
f 51 78 79
f 51 79 52
f 52 80 53
f 52 79 81
f 52 81 80
f 53 82 76
f 53 80 82
f 54 66 57
f 55 57 83
f 55 83 56
f 56 83 84
f 56 84 78
f 57 66 85
f 57 85 83
f 58 86 87
f 59 88 89
f 59 89 90
f 59 90 60
f 59 91 88
f 61 92 93
f 61 93 94
f 61 94 62
f 62 94 95
f 62 95 96
f 64 97 65
f 65 97 98
f 65 98 66
f 66 98 99
f 66 99 85
f 67 73 100
f 68 75 101
f 68 101 102
f 68 102 70
f 68 70 69
f 70 102 71
f 71 102 103
f 71 103 104
f 71 104 72
f 72 105 73
f 72 104 105
f 73 105 106
f 73 106 107
f 73 107 100
f 74 108 75
f 74 77 108
f 75 109 101
f 75 108 109
f 76 82 77
f 77 110 108
f 77 82 111
f 77 111 110
f 78 84 112
f 78 112 79
f 79 112 113
f 79 113 81
f 80 114 82
f 80 81 115
f 80 115 114
f 81 113 115
f 82 114 116
f 82 116 111
f 83 85 117
f 83 117 118
f 83 118 84
f 84 118 112
f 85 99 119
f 85 119 117
f 86 120 87
f 87 121 122
f 87 122 123
f 87 123 124
f 87 124 125
f 87 120 121
f 88 91 126
f 88 126 127
f 88 127 128
f 88 128 89
f 89 128 129
f 91 130 126
f 92 131 93
f 93 131 132
f 93 132 133
f 93 133 134
f 93 134 95
f 93 95 94
f 95 134 135
f 95 135 136
f 95 136 137
f 95 137 96
f 97 138 98
f 98 138 139
f 98 139 140
f 98 140 141
f 98 141 99
f 99 141 142
f 99 142 143
f 99 143 119
f 101 109 144
f 101 144 145
f 101 145 103
f 101 103 102
f 103 146 104
f 103 145 147
f 103 147 146
f 104 148 105
f 104 146 148
f 105 149 150
f 105 150 106
f 105 148 149
f 106 150 151
f 106 151 152
f 106 152 107
f 108 110 153
f 108 153 109
f 109 153 144
f 110 154 153
f 110 111 155
f 110 155 154
f 111 116 156
f 111 156 155
f 112 118 157
f 112 157 113
f 113 157 158
f 113 158 159
f 113 159 160
f 113 160 115
f 114 115 161
f 114 161 116
f 115 160 162
f 115 162 161
f 116 161 163
f 116 163 156
f 117 119 164
f 117 164 118
f 118 164 165
f 118 165 157
f 119 143 166
f 119 166 164
f 120 167 121
f 121 168 169
f 121 169 123
f 121 123 122
f 121 167 170
f 121 170 168
f 123 169 171
f 123 171 124
f 124 172 125
f 124 171 173
f 124 173 172
f 126 130 174
f 126 174 175
f 126 175 176
f 126 176 127
f 127 176 177
f 127 177 128
f 128 178 179
f 128 179 180
f 128 180 129
f 128 177 178
f 131 181 182
f 131 182 132
f 132 182 183
f 132 183 133
f 133 183 184
f 133 184 135
f 133 135 134
f 135 184 185
f 135 185 186
f 135 186 136
f 136 186 187
f 136 187 188
f 136 188 189
f 136 189 137
f 140 190 141
f 141 190 191
f 141 191 142
f 142 191 192
f 142 192 143
f 143 192 193
f 143 193 194
f 143 194 166
f 144 153 195
f 144 195 196
f 144 196 145
f 145 196 147
f 146 197 198
f 146 198 148
f 146 147 199
f 146 199 197
f 147 196 200
f 147 200 199
f 148 198 149
f 149 201 202
f 149 202 150
f 149 198 201
f 150 202 151
f 151 203 204
f 151 204 205
f 151 205 152
f 151 202 206
f 151 206 203
f 153 154 195
f 154 155 207
f 154 207 208
f 154 208 209
f 154 209 195
f 155 156 210
f 155 210 207
f 156 163 211
f 156 211 210
f 157 165 212
f 157 212 158
f 158 212 213
f 158 213 159
f 159 213 214
f 159 214 215
f 159 215 160
f 160 215 162
f 161 162 216
f 161 216 163
f 162 215 217
f 162 217 216
f 163 216 211
f 164 166 218
f 164 218 165
f 165 218 212
f 166 194 219
f 166 219 218
f 167 220 170
f 168 221 222
f 168 222 169
f 168 170 221
f 169 222 223
f 169 223 224
f 169 224 171
f 170 225 221
f 170 220 225
f 171 224 226
f 171 226 227
f 171 227 173
f 172 173 228
f 172 228 229
f 173 227 228
f 174 230 231
f 174 231 175
f 174 232 230
f 175 231 176
f 176 231 178
f 176 178 177
f 178 231 233
f 178 233 234
f 178 234 235
f 178 235 236
f 178 236 237
f 178 237 179
f 179 237 238
f 179 238 180
f 181 239 240
f 181 240 182
f 182 240 241
f 182 241 183
f 183 241 242
f 183 242 184
f 184 242 243
f 184 243 185
f 185 243 244
f 185 244 245
f 185 245 246
f 185 246 186
f 186 246 247
f 186 247 187
f 187 247 248
f 187 248 188
f 190 249 191
f 191 249 250
f 191 250 251
f 191 251 252
f 191 252 253
f 191 253 192
f 192 253 193
f 193 253 254
f 193 254 194
f 194 254 255
f 194 255 256
f 194 256 219
f 195 209 257
f 195 257 196
f 196 257 200
f 197 258 198
f 197 199 258
f 198 258 259
f 198 259 260
f 198 260 201
f 199 200 261
f 199 261 262
f 199 262 258
f 200 257 261
f 201 260 206
f 201 206 202
f 203 206 263
f 203 263 264
f 203 264 204
f 206 265 263
f 206 260 265
f 207 210 266
f 207 266 208
f 208 266 267
f 208 267 268
f 208 268 209
f 209 268 269
f 209 269 257
f 210 211 266
f 211 216 270
f 211 270 271
f 211 271 272
f 211 272 266
f 212 218 273
f 212 273 274
f 212 274 213
f 213 274 275
f 213 275 214
f 214 276 215
f 214 275 276
f 215 276 217
f 216 217 277
f 216 277 270
f 217 276 278
f 217 278 277
f 218 219 279
f 218 279 273
f 219 256 255
f 219 255 280
f 219 280 281
f 219 281 279
f 220 282 225
f 221 283 284
f 221 284 222
f 221 225 283
f 222 284 223
f 223 285 286
f 223 286 287
f 223 287 288
f 223 288 224
f 223 284 285
f 224 288 226
f 225 282 289
f 225 289 283
f 226 288 290
f 226 290 291
f 226 291 227
f 227 291 292
f 227 292 293
f 227 293 228
f 228 293 229
f 229 293 294
f 230 295 231
f 230 232 296
f 230 296 295
f 231 295 297
f 231 297 233
f 232 298 296
f 233 297 299
f 233 299 300
f 233 300 235
f 233 235 234
f 235 300 301
f 235 301 302
f 235 302 303
f 235 303 304
f 235 304 236
f 236 304 305
f 236 305 306
f 236 306 237
f 237 306 238
f 238 306 307
f 239 308 309
f 239 309 240
f 240 309 310
f 240 310 241
f 241 310 311
f 241 311 242
f 242 311 243
f 243 311 312
f 243 312 313
f 243 313 244
f 244 313 314
f 244 314 315
f 244 315 245
f 245 315 246
f 246 315 316
f 246 316 247
f 247 317 318
f 247 318 248
f 247 316 319
f 247 319 320
f 247 320 317
f 251 321 322
f 251 322 252
f 252 322 323
f 252 323 253
f 253 323 324
f 253 324 254
f 254 324 255
f 255 324 325
f 255 325 326
f 255 326 280
f 257 269 327
f 257 327 328
f 257 328 261
f 258 262 329
f 258 329 330
f 258 330 259
f 259 330 331
f 259 331 260
f 260 331 265
f 261 332 329
f 261 329 262
f 261 328 332
f 263 333 334
f 263 334 264
f 263 265 335
f 263 335 333
f 265 331 335
f 266 272 336
f 266 336 267
f 267 336 337
f 267 337 338
f 267 338 268
f 268 338 339
f 268 339 269
f 269 339 327
f 270 277 340
f 270 340 271
f 271 341 272
f 271 340 342
f 271 342 341
f 272 341 336
f 273 279 343
f 273 343 274
f 274 343 344
f 274 344 275
f 275 345 276
f 275 344 346
f 275 346 345
f 276 345 347
f 276 347 278
f 277 348 340
f 277 278 348
f 278 347 349
f 278 349 348
f 279 281 350
f 279 350 351
f 279 351 343
f 280 350 281
f 280 326 352
f 280 352 350
f 282 353 289
f 283 289 354
f 283 354 355
f 283 355 284
f 284 355 356
f 284 356 285
f 285 357 358
f 285 358 286
f 285 356 357
f 286 358 359
f 286 359 360
f 286 360 287
f 287 360 288
f 288 360 361
f 288 361 290
f 289 353 362
f 289 362 354
f 290 361 363
f 290 363 364
f 290 364 365
f 290 365 291
f 291 365 366
f 291 366 292
f 292 367 293
f 292 366 368
f 292 368 367
f 293 367 294
f 295 296 369
f 295 369 297
f 296 298 370
f 296 370 371
f 296 371 369
f 297 369 299
f 299 369 372
f 299 372 373
f 299 373 301
f 299 301 300
f 301 374 302
f 301 373 375
f 301 375 374
f 302 376 303
f 302 374 376
f 303 376 377
f 303 377 378
f 303 378 379
f 303 379 304
f 304 379 305
f 305 379 380
f 305 380 306
f 306 380 307
f 307 380 381
f 308 382 309
f 309 382 383
f 309 383 384
f 309 384 456
f 309 456 385
f 309 385 310
f 310 385 386
f 310 386 311
f 311 386 387
f 311 387 312
f 312 387 388
f 312 388 313
f 313 388 389
f 313 389 314
f 314 389 390
f 314 390 391
f 314 391 315
f 315 391 392
f 315 392 393
f 315 393 316
f 316 393 394
f 316 394 319
f 319 394 395
f 319 395 396
f 319 396 320
f 321 397 398
f 321 398 322
f 322 398 323
f 323 398 399
f 323 399 325
f 323 325 324
f 325 399 400
f 325 400 401
f 325 401 402
f 325 402 326
f 326 402 352
f 327 339 403
f 327 403 404
f 327 404 328
f 328 404 405
f 328 405 332
f 329 332 358
f 329 358 330
f 330 357 356
f 330 356 406
f 330 406 331
f 330 358 357
f 331 406 356
f 331 356 354
f 331 354 335
f 332 405 407
f 332 407 408
f 332 408 358
f 333 335 354
f 333 354 409
f 336 341 410
f 336 410 337
f 337 411 338
f 337 410 412
f 337 412 411
f 338 411 413
f 338 413 339
f 339 413 403
f 340 348 342
f 341 342 414
f 341 414 410
f 342 348 415
f 342 415 416
f 342 416 414
f 343 351 417
f 343 417 344
f 344 417 418
f 344 418 346
f 345 346 419
f 345 419 347
f 346 418 419
f 347 419 420
f 347 420 421
f 347 421 349
f 348 349 422
f 348 422 415
f 349 421 423
f 349 423 424
f 349 424 422
f 350 425 351
f 350 352 426
f 350 426 425
f 351 425 417
f 352 402 427
f 352 427 426
f 354 356 355
f 354 362 409
f 358 408 359
f 359 408 428
f 359 428 429
f 359 429 360
f 360 429 363
f 360 363 361
f 363 429 430
f 363 430 431
f 363 431 432
f 363 432 364
f 364 432 433
f 364 433 365
f 365 433 434
f 365 434 366
f 366 435 368
f 366 434 436
f 366 436 435
f 368 435 437
f 369 371 438
f 369 438 372
f 370 439 440
f 370 440 371
f 371 440 438
f 372 438 441
f 372 441 373
f 373 441 375
f 374 375 442
f 374 442 376
f 375 441 443
f 375 443 444
f 375 444 445
f 375 445 442
f 376 442 446
f 376 446 447
f 376 447 377
f 377 448 449
f 377 449 378
f 377 447 448
f 378 449 450
f 378 450 379
f 379 450 451
f 379 451 380
f 380 451 452
f 380 452 453
f 380 453 381
f 383 454 455
f 383 455 384
f 384 455 456
f 385 456 386
f 386 457 458
f 386 458 387
f 386 456 457
f 387 458 532
f 387 532 459
f 387 459 388
f 388 459 460
f 388 460 389
f 389 460 461
f 389 461 390
f 390 461 462
f 390 462 463
f 390 463 391
f 391 463 464
f 391 464 392
f 392 464 465
f 392 465 466
f 392 466 393
f 393 466 394
f 394 466 467
f 394 467 468
f 394 468 469
f 394 469 395
f 397 470 398
f 398 470 471
f 398 471 400
f 398 400 399
f 400 471 472
f 400 472 473
f 400 473 401
f 401 473 474
f 401 474 402
f 402 474 475
f 402 475 427
f 403 413 476
f 403 476 404
f 404 477 407
f 404 407 405
f 404 476 477
f 407 477 478
f 407 478 428
f 407 428 408
f 410 414 479
f 410 479 412
f 411 480 413
f 411 412 481
f 411 481 480
f 412 479 482
f 412 482 481
f 413 483 476
f 413 480 483
f 414 416 484
f 414 484 479
f 415 422 485
f 415 485 416
f 416 485 486
f 416 486 484
f 417 425 487
f 417 487 418
f 418 487 488
f 418 488 489
f 418 489 419
f 419 489 420
f 420 489 490
f 420 490 491
f 420 491 423
f 420 423 421
f 422 424 492
f 422 492 485
f 423 491 493
f 423 493 494
f 423 494 495
f 423 495 424
f 424 495 492
f 425 426 496
f 425 496 497
f 425 497 487
f 426 427 498
f 426 498 499
f 426 499 496
f 427 475 498
f 428 478 430
f 428 430 429
f 430 500 501
f 430 501 431
f 430 478 500
f 431 501 432
f 432 501 502
f 432 502 503
f 432 503 433
f 433 503 504
f 433 504 505
f 433 505 434
f 434 505 506
f 434 506 436
f 435 436 437
f 436 506 507
f 436 507 508
f 436 508 437
f 438 440 509
f 438 509 510
f 438 510 441
f 439 511 512
f 439 512 440
f 440 512 509
f 441 510 513
f 441 513 443
f 442 445 514
f 442 514 515
f 442 515 446
f 443 513 444
f 444 513 516
f 444 516 517
f 444 517 518
f 444 518 445
f 445 518 514
f 446 519 447
f 446 515 519
f 447 519 520
f 447 520 448
f 448 520 521
f 448 521 522
f 448 522 449
f 449 522 523
f 449 523 450
f 450 523 524
f 450 524 451
f 451 524 525
f 451 525 452
f 452 525 526
f 454 527 528
f 454 528 455
f 455 528 529
f 455 529 456
f 456 529 457
f 457 529 530
f 457 530 531
f 457 531 458
f 458 531 532
f 459 532 533
f 459 533 460
f 460 533 534
f 460 534 461
f 461 534 535
f 461 535 462
f 462 535 536
f 462 536 537
f 462 537 463
f 463 537 538
f 463 538 464
f 464 538 539
f 464 539 465
f 465 539 540
f 465 540 466
f 466 540 541
f 466 541 467
f 467 541 542
f 467 542 468
f 470 543 472
f 470 472 471
f 472 543 544
f 472 544 545
f 472 545 546
f 472 546 473
f 473 546 547
f 473 547 474
f 474 547 548
f 474 548 475
f 475 548 549
f 475 549 498
f 476 483 550
f 476 550 551
f 476 551 478
f 476 478 477
f 478 551 500
f 479 484 552
f 479 552 482
f 480 481 553
f 480 553 554
f 480 554 483
f 481 482 555
f 481 555 553
f 482 552 556
f 482 556 555
f 483 554 550
f 484 486 557
f 484 557 558
f 484 558 552
f 485 492 559
f 485 559 486
f 486 559 557
f 487 497 560
f 487 560 488
f 488 490 489
f 488 560 561
f 488 561 490
f 490 561 562
f 490 562 491
f 491 562 493
f 492 495 563
f 492 563 559
f 493 564 494
f 493 562 565
f 493 565 566
f 493 566 564
f 494 564 567
f 494 567 495
f 495 567 563
f 496 568 497
f 496 499 569
f 496 569 570
f 496 570 568
f 497 568 560
f 498 549 499
f 499 549 571
f 499 571 572
f 499 572 573
f 499 573 569
f 500 551 574
f 500 574 575
f 500 575 501
f 501 575 576
f 501 576 502
f 502 576 577
f 502 577 504
f 502 504 503
f 504 578 506
f 504 506 505
f 504 577 579
f 504 579 580
f 504 580 581
f 504 581 582
f 504 582 583
f 504 583 578
f 506 578 584
f 506 584 585
f 506 585 507
f 509 512 586
f 509 586 510
f 510 586 513
f 511 587 512
f 512 587 586
f 513 586 588
f 513 588 589
f 513 589 516
f 514 518 590
f 514 590 591
f 514 591 592
f 514 592 515
f 515 592 593
f 515 593 519
f 516 589 517
f 517 590 518
f 517 589 594
f 517 594 595
f 517 595 596
f 517 596 590
f 519 597 520
f 519 593 597
f 520 598 521
f 520 597 598
f 521 599 600
f 521 600 522
f 521 598 599
f 522 600 601
f 522 601 523
f 523 601 602
f 523 602 524
f 524 602 525
f 525 602 603
f 525 603 604
f 525 604 526
f 527 605 528
f 528 605 606
f 528 606 607
f 528 607 529
f 529 607 530
f 530 608 609
f 530 609 531
f 530 607 608
f 531 609 610
f 531 610 532
f 532 610 611
f 532 611 533
f 533 611 612
f 533 612 534
f 534 612 695
f 534 695 613
f 534 613 535
f 535 613 614
f 535 614 536
f 536 614 615
f 536 615 616
f 536 616 537
f 537 616 617
f 537 617 538
f 538 617 618
f 538 618 539
f 539 618 619
f 539 619 620
f 539 620 540
f 540 620 621
f 540 621 541
f 541 621 542
f 542 621 622
f 544 623 624
f 544 624 545
f 545 624 625
f 545 625 546
f 546 625 547
f 547 625 626
f 547 626 548
f 548 626 627
f 548 627 571
f 548 571 549
f 550 574 551
f 550 554 628
f 550 628 629
f 550 629 574
f 552 558 630
f 552 630 556
f 553 555 631
f 553 631 628
f 553 628 554
f 555 556 632
f 555 632 633
f 555 633 631
f 556 630 632
f 557 634 558
f 557 559 563
f 557 563 635
f 557 635 636
f 557 636 637
f 557 637 634
f 558 634 630
f 560 568 638
f 560 638 561
f 561 638 639
f 561 639 562
f 562 639 565
f 563 567 636
f 563 636 635
f 564 640 567
f 564 566 641
f 564 641 642
f 564 642 640
f 565 639 643
f 565 643 566
f 566 643 644
f 566 644 645
f 566 645 646
f 566 646 641
f 567 640 636
f 568 570 647
f 568 647 638
f 569 648 570
f 569 573 649
f 569 649 648
f 570 648 647
f 571 627 650
f 571 650 651
f 571 651 652
f 571 652 572
f 572 653 573
f 572 652 654
f 572 654 653
f 573 653 649
f 574 655 575
f 574 629 655
f 575 655 656
f 575 656 576
f 576 656 577
f 577 656 579
f 578 583 584
f 579 656 657
f 579 657 658
f 579 658 580
f 580 658 581
f 581 659 582
f 581 658 660
f 581 660 659
f 582 659 583
f 583 661 584
f 583 659 661
f 586 587 662
f 586 662 663
f 586 663 588
f 587 664 662
f 587 665 664
f 588 663 589
f 589 663 666
f 589 666 667
f 589 667 594
f 590 596 668
f 590 668 669
f 590 669 670
f 590 670 591
f 591 670 671
f 591 671 592
f 592 672 593
f 592 671 673
f 592 673 672
f 593 672 674
f 593 674 597
f 594 667 595
f 595 667 675
f 595 675 676
f 595 676 677
f 595 677 668
f 595 668 596
f 597 674 678
f 597 678 598
f 598 678 679
f 598 679 599
f 599 679 680
f 599 680 681
f 599 681 600
f 600 681 682
f 600 682 601
f 601 682 683
f 601 683 684
f 601 684 602
f 602 684 683
f 602 683 685
f 602 685 686
f 602 686 603
f 605 687 606
f 606 687 688
f 606 688 689
f 606 689 607
f 607 689 690
f 607 690 608
f 608 690 691
f 608 691 609
f 609 691 692
f 609 692 610
f 610 692 693
f 610 693 611
f 611 693 694
f 611 694 612
f 612 694 695
f 613 695 696
f 613 696 614
f 614 696 697
f 614 697 615
f 615 697 698
f 615 698 699
f 615 699 616
f 616 699 700
f 616 700 617
f 617 700 701
f 617 701 618
f 618 701 702
f 618 702 619
f 619 702 703
f 619 703 620
f 620 703 704
f 620 704 621
f 621 704 705
f 621 705 706
f 621 706 622
f 623 707 624
f 624 707 708
f 624 708 625
f 625 708 709
f 625 709 710
f 625 710 626
f 626 710 650
f 626 650 627
f 628 711 629
f 628 631 712
f 628 712 711
f 629 711 655
f 630 634 713
f 630 713 632
f 631 633 714
f 631 714 712
f 632 713 715
f 632 715 716
f 632 716 717
f 632 717 633
f 633 717 714
f 634 718 713
f 634 637 718
f 636 640 719
f 636 719 637
f 637 719 720
f 637 720 721
f 637 721 722
f 637 722 718
f 638 647 723
f 638 723 639
f 639 723 643
f 640 642 724
f 640 724 719
f 641 725 642
f 641 646 726
f 641 726 725
f 642 725 724
f 643 723 727
f 643 727 644
f 644 727 728
f 644 728 645
f 645 729 646
f 645 728 730
f 645 730 731
f 645 731 732
f 645 732 729
f 646 729 726
f 647 648 733
f 647 733 723
f 648 649 734
f 648 734 733
f 649 653 735
f 649 735 734
f 650 710 736
f 650 736 651
f 651 736 737
f 651 737 738
f 651 738 739
f 651 739 652
f 652 739 654
f 653 654 735
f 654 740 735
f 654 739 741
f 654 741 740
f 655 711 742
f 655 742 656
f 656 742 657
f 657 742 743
f 657 743 744
f 657 744 658
f 658 744 660
f 659 745 661
f 659 660 746
f 659 746 747
f 659 747 745
f 660 744 748
f 660 748 749
f 660 749 747
f 660 747 746
f 662 664 665
f 662 665 750
f 662 750 663
f 663 750 751
f 663 751 666
f 665 752 750
f 666 751 753
f 666 753 667
f 667 753 754
f 667 754 675
f 668 677 755
f 668 755 756
f 668 756 669
f 669 756 757
f 669 757 670
f 670 673 671
f 670 757 673
f 672 673 674
f 673 757 758
f 673 758 759
f 673 759 760
f 673 760 761
f 673 761 762
f 673 762 674
f 674 763 678
f 674 762 763
f 675 754 764
f 675 764 676
f 676 764 765
f 676 765 766
f 676 766 767
f 676 767 768
f 676 768 755
f 676 755 677
f 678 769 679
f 678 763 769
f 679 770 680
f 679 769 770
f 680 770 771
f 680 771 772
f 680 772 681
f 681 772 773
f 681 773 682
f 682 773 774
f 682 774 683
f 683 774 775
f 683 775 685
f 685 775 776
f 685 776 686
f 688 777 689
f 689 777 778
f 689 778 779
f 689 779 690
f 690 779 780
f 690 780 691
f 691 780 781
f 691 781 692
f 692 781 782
f 692 782 693
f 693 782 783
f 693 783 694
f 694 783 784
f 694 784 695
f 695 784 785
f 695 785 696
f 696 785 786
f 696 786 697
f 697 786 787
f 697 787 698
f 698 787 788
f 698 788 789
f 698 789 699
f 699 789 790
f 699 790 700
f 700 790 791
f 700 791 701
f 701 791 792
f 701 792 702
f 702 792 793
f 702 793 794
f 702 794 703
f 703 794 795
f 703 795 704
f 704 795 796
f 704 796 705
f 705 796 797
f 705 797 798
f 705 798 706
f 707 799 708
f 708 799 800
f 708 800 801
f 708 801 709
f 709 801 802
f 709 802 803
f 709 803 804
f 709 804 710
f 710 804 736
f 711 712 805
f 711 805 742
f 712 714 806
f 712 806 805
f 713 718 715
f 714 717 806
f 715 807 716
f 715 718 808
f 715 808 809
f 715 809 807
f 716 810 717
f 716 807 810
f 717 810 811
f 717 811 806
f 718 722 808
f 719 724 720
f 720 812 721
f 720 724 813
f 720 813 814
f 720 814 815
f 720 815 812
f 721 816 722
f 721 812 816
f 722 816 808
f 723 733 727
f 724 725 813
f 725 726 817
f 725 817 813
f 726 729 818
f 726 818 817
f 727 733 819
f 727 819 728
f 728 819 820
f 728 820 730
f 729 732 821
f 729 821 818
f 730 820 822
f 730 822 731
f 731 823 732
f 731 822 824
f 731 824 825
f 731 825 826
f 731 826 827
f 731 827 823
f 732 823 821
f 733 734 819
f 734 735 828
f 734 828 819
f 735 740 829
f 735 829 828
f 736 804 737
f 737 804 830
f 737 830 831
f 737 831 738
f 738 831 739
f 739 831 832
f 739 832 833
f 739 833 741
f 740 741 834
f 740 834 829
f 741 833 939
f 741 939 834
f 742 805 743
f 743 805 835
f 743 835 744
f 744 835 836
f 744 836 837
f 744 837 748
f 745 747 838
f 747 749 839
f 747 839 840
f 747 840 841
f 747 841 842
f 747 842 843
f 747 843 838
f 748 837 749
f 749 837 839
f 750 752 844
f 750 844 845
f 750 845 751
f 751 845 753
f 753 845 846
f 753 846 847
f 753 847 848
f 753 848 754
f 754 848 764
f 755 849 850
f 755 850 756
f 755 768 767
f 755 767 849
f 756 851 757
f 756 850 851
f 757 851 758
f 758 851 852
f 758 852 853
f 758 853 854
f 758 854 759
f 759 854 760
f 760 854 855
f 760 855 856
f 760 856 761
f 761 856 857
f 761 857 763
f 761 763 762
f 763 857 769
f 764 848 858
f 764 858 859
f 764 859 860
f 764 860 765
f 765 860 861
f 765 861 766
f 766 861 862
f 766 862 863
f 766 863 767
f 767 863 864
f 767 864 865
f 767 865 866
f 767 866 867
f 767 867 868
f 767 868 849
f 769 857 869
f 769 869 770
f 770 870 771
f 770 869 870
f 771 870 871
f 771 871 872
f 771 872 772
f 772 872 873
f 772 873 773
f 773 873 874
f 773 874 774
f 774 874 875
f 774 875 775
f 775 875 876
f 775 876 877
f 775 877 878
f 775 878 776
f 777 879 880
f 777 880 881
f 777 881 778
f 778 881 882
f 778 882 779
f 779 882 883
f 779 883 780
f 780 883 781
f 781 883 884
f 781 884 885
f 781 885 782
f 782 885 886
f 782 886 783
f 783 886 887
f 783 887 784
f 784 887 888
f 784 888 785
f 785 888 991
f 785 991 889
f 785 889 786
f 786 889 890
f 786 890 787
f 787 890 891
f 787 891 788
f 788 891 994
f 788 994 892
f 788 892 893
f 788 893 789
f 789 893 894
f 789 894 790
f 790 894 895
f 790 895 791
f 791 895 896
f 791 896 792
f 792 896 793
f 793 897 794
f 793 896 1001
f 793 1001 898
f 793 898 1002
f 793 1002 897
f 794 897 795
f 795 897 899
f 795 899 900
f 795 900 796
f 796 900 901
f 796 901 797
f 800 902 903
f 800 903 904
f 800 904 801
f 801 904 802
f 802 804 803
f 802 904 903
f 802 903 905
f 802 905 906
f 802 906 804
f 804 906 905
f 804 905 830
f 805 806 835
f 806 811 907
f 806 907 908
f 806 908 835
f 807 909 910
f 807 910 810
f 807 809 911
f 807 911 909
f 808 816 809
f 809 816 912
f 809 912 913
f 809 913 911
f 810 907 811
f 810 910 907
f 812 912 816
f 812 815 914
f 812 914 912
f 813 817 814
f 814 915 914
f 814 914 815
f 814 817 916
f 814 916 917
f 814 917 918
f 814 918 915
f 817 818 916
f 818 821 919
f 818 919 916
f 819 828 820
f 820 828 920
f 820 920 822
f 821 823 921
f 821 921 919
f 822 920 922
f 822 922 923
f 822 923 924
f 822 924 824
f 823 827 925
f 823 925 921
f 824 924 825
f 825 924 926
f 825 926 826
f 826 926 927
f 826 927 928
f 826 928 827
f 827 928 929
f 827 929 925
f 828 829 920
f 829 834 930
f 829 930 920
f 830 905 931
f 830 931 932
f 830 932 831
f 831 932 933
f 831 933 832
f 832 933 934
f 832 934 935
f 832 935 833
f 833 935 936
f 833 936 937
f 833 937 938
f 833 938 939
f 834 939 940
f 834 940 930
f 835 908 941
f 835 941 836
f 836 941 837
f 837 941 942
f 837 942 943
f 837 943 944
f 837 944 839
f 838 843 945
f 839 841 840
f 839 944 946
f 839 946 947
f 839 947 841
f 841 948 949
f 841 949 842
f 841 947 946
f 841 946 950
f 841 950 951
f 841 951 952
f 841 952 948
f 842 945 843
f 844 846 845
f 844 953 846
f 846 953 954
f 846 954 847
f 847 954 858
f 847 858 848
f 849 868 850
f 850 868 955
f 850 955 956
f 850 956 851
f 851 956 852
f 852 957 853
f 852 956 958
f 852 958 957
f 853 959 854
f 853 957 959
f 854 959 960
f 854 960 855
f 855 960 961
f 855 961 856
f 856 962 963
f 856 963 857
f 856 961 962
f 857 963 869
f 858 954 964
f 858 964 965
f 858 965 966
f 858 966 967
f 858 967 859
f 859 967 968
f 859 968 860
f 860 969 861
f 860 968 969
f 861 969 862
f 862 969 970
f 862 970 864
f 862 864 863
f 864 970 865
f 865 971 972
f 865 972 866
f 865 970 973
f 865 973 974
f 865 974 975
f 865 975 971
f 866 972 867
f 867 976 977
f 867 977 978
f 867 978 868
f 867 972 976
f 868 978 955
f 869 963 979
f 869 979 870
f 870 980 871
f 870 979 980
f 871 980 981
f 871 981 982
f 871 982 872
f 872 982 983
f 872 983 873
f 873 983 984
f 873 984 874
f 874 984 985
f 874 985 875
f 875 985 876
f 876 985 986
f 876 986 877
f 879 987 880
f 880 987 985
f 880 985 881
f 881 985 882
f 882 985 988
f 882 988 984
f 882 984 883
f 883 984 983
f 883 983 884
f 884 983 982
f 884 982 885
f 885 982 981
f 885 981 886
f 886 981 989
f 886 989 887
f 887 989 990
f 887 990 888
f 888 990 991
f 889 991 992
f 889 992 890
f 890 992 993
f 890 993 891
f 891 993 994
f 892 994 995
f 892 995 996
f 892 996 997
f 892 997 893
f 893 997 998
f 893 998 999
f 893 999 894
f 894 999 1000
f 894 1000 895
f 895 1000 1001
f 895 1001 896
f 897 1002 1003
f 897 1003 899
f 898 1001 934
f 898 934 933
f 898 933 1002
f 899 1003 900
f 900 1004 901
f 900 1003 1005
f 900 1005 1006
f 900 1006 1007
f 900 1007 1004
f 902 1008 903
f 903 1008 1009
f 903 1009 1010
f 903 1010 905
f 905 1010 1003
f 905 1003 931
f 907 942 908
f 907 910 1011
f 907 1011 1012
f 907 1012 942
f 908 942 941
f 909 1013 1011
f 909 1011 910
f 909 911 1013
f 911 913 1014
f 911 1014 1015
f 911 1015 1013
f 912 914 1016
f 912 1016 913
f 913 1016 1014
f 914 915 1017
f 914 1017 1016
f 915 918 1018
f 915 1018 1017
f 916 919 917
f 917 1019 918
f 917 919 1020
f 917 1020 1021
f 917 1021 1019
f 918 1019 1018
f 919 921 1022
f 919 1022 1020
f 920 930 922
f 921 925 1022
f 922 930 940
f 922 940 996
f 922 996 923
f 923 996 1023
f 923 1023 924
f 924 1023 926
f 925 1024 1022
f 925 929 1024
f 926 1023 1025
f 926 1025 1026
f 926 1026 927
f 927 929 928
f 927 1026 1027
f 927 1027 929
f 929 1027 1024
f 931 1003 932
f 932 1003 1002
f 932 1002 933
f 934 1001 935
f 935 1001 936
f 936 1001 1000
f 936 1000 937
f 937 1000 938
f 938 1028 939
f 938 1000 999
f 938 999 1028
f 939 1028 940
f 940 1028 999
f 940 999 998
f 940 998 996
f 942 1012 1029
f 942 1029 1030
f 942 1030 943
f 943 1030 1031
f 943 1031 944
f 944 1031 946
f 946 1031 1032
f 946 1032 1033
f 946 1033 1034
f 946 1034 1035
f 946 1035 951
f 946 951 950
f 948 952 1036
f 951 1037 1038
f 951 1038 1036
f 951 1036 952
f 951 1035 1034
f 951 1034 1039
f 951 1039 1037
f 953 1040 954
f 954 1040 964
f 955 977 958
f 955 958 956
f 955 978 977
f 957 958 1041
f 957 1041 1042
f 957 1042 1043
f 957 1043 959
f 958 1044 1041
f 958 977 976
f 958 976 1045
f 958 1045 1044
f 959 1043 960
f 960 1043 1046
f 960 1046 1047
f 960 1047 961
f 961 1047 1048
f 961 1048 962
f 962 1049 1050
f 962 1050 979
f 962 979 963
f 962 1048 1049
f 964 1051 965
f 964 1052 1053
f 964 1053 1051
f 965 1051 966
f 966 968 967
f 966 1051 1054
f 966 1054 1055
f 966 1055 968
f 968 1055 1056
f 968 1056 969
f 969 1056 970
f 970 1056 1057
f 970 1057 1058
f 970 1058 1059
f 970 1059 973
f 971 975 1014
f 971 1014 972
f 972 1014 1045
f 972 1045 976
f 973 1059 974
f 974 1015 975
f 974 1059 1060
f 974 1060 1011
f 974 1011 1013
f 974 1013 1015
f 975 1015 1014
f 979 1061 980
f 979 1050 1061
f 980 1061 989
f 980 989 981
f 984 988 985
f 985 987 986
f 989 1061 990
f 990 1061 1062
f 990 1062 991
f 991 1062 1063
f 991 1063 992
f 992 1063 1064
f 992 1064 993
f 993 1064 1065
f 993 1065 994
f 994 1065 1025
f 994 1025 995
f 995 1025 1023
f 995 1023 996
f 996 998 997
f 1003 1010 1005
f 1005 1010 1009
f 1005 1009 1008
f 1005 1008 1006
f 1011 1029 1012
f 1011 1060 1029
f 1014 1016 1045
f 1016 1017 1045
f 1017 1018 1045
f 1018 1019 1045
f 1019 1021 1044
f 1019 1044 1045
f 1020 1022 1021
f 1021 1022 1066
f 1021 1066 1067
f 1021 1067 1044
f 1022 1024 1027
f 1022 1027 1068
f 1022 1068 1069
f 1022 1069 1066
f 1025 1065 1026
f 1026 1065 1070
f 1026 1070 1027
f 1027 1070 1071
f 1027 1071 1068
f 1029 1032 1031
f 1029 1031 1030
f 1029 1060 1059
f 1029 1059 1072
f 1029 1072 1032
f 1032 1072 1073
f 1032 1073 1033
f 1033 1073 1034
f 1034 1073 1074
f 1034 1074 1075
f 1034 1075 1076
f 1034 1076 1077
f 1034 1077 1039
f 1037 1039 1078
f 1037 1078 1079
f 1039 1077 1078
f 1041 1067 1042
f 1041 1044 1067
f 1042 1067 1066
f 1042 1066 1043
f 1043 1066 1069
f 1043 1069 1046
f 1046 1069 1068
f 1046 1068 1047
f 1047 1071 1048
f 1047 1068 1071
f 1048 1071 1080
f 1048 1080 1049
f 1049 1080 1063
f 1049 1063 1062
f 1049 1062 1050
f 1050 1062 1061
f 1051 1053 1081
f 1051 1081 1082
f 1051 1082 1083
f 1051 1083 1084
f 1051 1084 1054
f 1052 1085 1053
f 1053 1085 1081
f 1054 1084 1086
f 1054 1086 1055
f 1055 1086 1057
f 1055 1057 1056
f 1057 1059 1058
f 1057 1086 1075
f 1057 1075 1074
f 1057 1074 1059
f 1059 1074 1073
f 1059 1073 1072
f 1063 1080 1064
f 1064 1080 1070
f 1064 1070 1065
f 1070 1080 1071
f 1075 1086 1076
f 1076 1086 1077
f 1077 1087 1088
f 1077 1088 1079
f 1077 1079 1078
f 1077 1086 1084
f 1077 1084 1083
f 1077 1083 1087
f 1082 1087 1083
