v -0.01002657 0.40998155 1.00894988
v -0.03000516 0.42999765 1.00745928
v -0.03000516 0.40998155 1.00846767
v -0.01002657 0.38996547 1.00785387
v -0.00095618 0.38996547 1.00785387
v -0.00095618 0.39900321 1.00833607
v -0.00095618 0.40998155 1.00890601
v -0.01002657 0.42999765 1.00789773
v -0.05001339 0.42999765 1.00667012
v -0.03000516 0.44485724 1.00307512
v -0.05001339 0.44430277 1.00263679
v -0.05001339 0.40998155 1.00759077
v -0.03000516 0.38996547 1.00737166
v -0.01002657 0.36994940 1.00601256
v -0.00095618 0.36994940 1.00601256
v -0.00095618 0.42999765 1.00785387
v -0.00095618 0.43681753 1.00579333
v -0.00095618 0.44513446 1.00325060
v -0.01002657 0.44513446 1.00325060
v -0.07002161 0.44341564 1.00202298
v -0.09000020 0.44208494 1.00118995
v -0.07002161 0.42999765 1.00539875
v -0.03000516 0.45489299 0.99286020
v -0.05001339 0.45433855 0.99259716
v -0.07002161 0.45339596 0.99215877
v -0.07002161 0.40998155 1.00631940
v -0.05001339 0.38996547 1.00649476
v -0.05001339 0.36994940 1.00469732
v -0.03000516 0.36994940 1.00553024
v -0.03000516 0.34998876 1.00329435
v -0.01002657 0.34998876 1.00373280
v -0.00095618 0.34998876 1.00377667
v -0.00095618 0.45511478 0.99294788
v -0.01002657 0.45511478 0.99299175
v -0.09000020 0.45206526 0.99154496
v -0.12311011 0.46016040 0.98027784
v -0.10443576 0.44086510 1.00048852
v -0.15002488 0.44912660 0.98751158
v -0.09000020 0.42999765 1.00368893
v -0.05001339 0.46115842 0.98260140
v -0.07002161 0.46104753 0.98216295
v -0.09000020 0.46077031 0.98154920
v -0.11000842 0.46043763 0.98080391
v -0.09000020 0.40998155 1.00460958
v -0.09000020 0.38996547 1.00360131
v -0.07002161 0.38996547 1.00522339
v -0.07002161 0.36994940 1.00351357
v -0.05001339 0.34998876 1.00250530
v -0.05001339 0.33507371 1.00066388
v -0.03000516 0.33213505 1.00105846
v -0.01002657 0.33058256 1.00127769
v -0.00095618 0.33934307 1.00241756
v -0.00095618 0.46126932 0.98295212
v -0.01002657 0.46126932 0.98295212
v -0.03000516 0.46121389 0.98286444
v -0.20999026 0.46115842 0.96252215
v -0.22999850 0.46054852 0.96103156
v -0.24102525 0.46010494 0.96019864
v -0.13641928 0.45971683 0.97891873
v -0.16997382 0.44796222 0.98593330
v -0.18998204 0.44624341 0.98426735
v -0.20999026 0.44385922 0.98238218
v -0.11777458 0.43798190 0.99969941
v -0.12444399 0.42461938 1.00057626
v -0.11066054 0.43077388 1.00145304
v -0.07002161 0.46226737 0.96997517
v -0.09000020 0.46210101 0.96997517
v -0.11000842 0.46187922 0.96997517
v -0.18998204 0.46143568 0.96388125
v -0.11000842 0.40998155 1.00254905
v -0.11154979 0.38869020 1.00127769
v -0.10591786 0.37349796 1.00062013
v -0.09189727 0.36806422 1.00149691
v -0.08650246 0.35486799 1.00057626
v -0.07043660 0.34887981 1.00114620
v -0.06403396 0.33790147 1.00026929
v -0.05001339 0.32509339 0.99926102
v -0.03000516 0.32215473 0.99969941
v -0.00095618 0.33052713 1.00127769
v -0.01002657 0.32060224 0.99987477
v -0.00095618 0.32054681 0.99991858
v -0.00095618 0.46226737 0.96997517
v -0.03000516 0.46232280 0.96997517
v -0.05001339 0.46232280 0.96997517
v -0.22999850 0.46215647 0.94998366
v -0.26998532 0.46165743 0.94520497
v -0.28999352 0.46115842 0.94270599
v -0.24861357 0.45145535 0.96642405
v -0.18998204 0.45627916 0.97387701
v -0.16997382 0.45794255 0.97536761
v -0.30377698 0.46054852 0.94104004
v -0.25436407 0.45905146 0.95765579
v -0.26998532 0.44729689 0.96528417
v -0.22424799 0.44158590 0.98093545
v -0.13066877 0.43077388 0.99895412
v -0.16997382 0.42999765 0.99321091
v -0.15002488 0.42999765 0.99632365
v -0.13555966 0.40998155 0.99939251
v -0.12557037 0.40998155 1.00070775
v -0.15002488 0.40998155 0.99733198
v -0.20999026 0.46243370 0.94998366
v -0.12299154 0.39451206 1.00035703
v -0.11922703 0.38120496 0.99987477
v -0.11154979 0.36806422 0.99943638
v -0.09984128 0.36013541 0.99996245
v -0.09189727 0.34887981 0.99939251
v -0.07737278 0.34150547 0.99978709
v -0.07043660 0.33074892 0.99882257
v -0.07002161 0.30995655 0.99588525
v -0.05001339 0.30995655 0.99706894
v -0.03000516 0.30995655 0.99785811
v -0.01002657 0.30995655 0.99829650
v -0.00095618 0.31472492 0.99904180
v -0.00095618 0.46171290 0.96396893
v -0.30377698 0.46154654 0.91000056
v -0.26998532 0.46260002 0.92999208
v -0.28999352 0.46265548 0.92999208
v -0.30377698 0.46199012 0.93064976
v -0.30377698 0.45134446 0.95059741
v -0.28999352 0.45378408 0.95270181
v -0.26998532 0.45727721 0.95520073
v -0.28999352 0.44380376 0.96243453
v -0.30190954 0.44108689 0.96063703
v -0.23758680 0.43498781 0.97940099
v -0.20999026 0.42999765 0.98593330
v -0.18998204 0.42999765 0.98974746
v -0.16997382 0.40998155 0.99413157
v -0.15002488 0.38996547 0.99623597
v -0.12980916 0.38869020 0.99904180
v -0.13001665 0.36994940 0.99733198
v -0.13001665 0.34998876 0.99513996
v -0.11000842 0.34998876 0.99763888
v -0.11000842 0.32997265 0.99509609
v -0.09000020 0.32997265 0.99715662
v -0.09000020 0.30995655 0.99430692
v -0.07002161 0.28999591 0.99272871
v -0.05001339 0.28999591 0.99391240
v -0.03000516 0.28999591 0.99470150
v -0.00095618 0.30995655 0.99829650
v -0.01002657 0.28999591 0.99513996
v -0.00095618 0.29903364 0.99658668
v -0.00095618 0.46099210 0.95664746
v -0.30377698 0.45982772 0.90075010
v -0.30377698 0.44336018 0.95796269
v -0.30377698 0.43947896 0.96024245
v -0.30377698 0.43299174 0.96125078
v -0.28999352 0.42999765 0.96594179
v -0.26998532 0.42999765 0.97164112
v -0.24840607 0.42894417 0.97742814
v -0.24066955 0.42162526 0.98014629
v -0.23053205 0.42894417 0.98163688
v -0.20999026 0.40998155 0.98667860
v -0.18998204 0.40998155 0.99058044
v -0.16997382 0.38996547 0.99299175
v -0.15002488 0.36994940 0.99443847
v -0.15002488 0.34998876 0.99224645
v -0.13001665 0.32997265 0.99264097
v -0.11000842 0.30995655 0.99224645
v -0.09000020 0.28999591 0.99115038
v -0.07002161 0.26997983 0.98926520
v -0.05001339 0.26997983 0.99044895
v -0.03000516 0.26997983 0.99123812
v -0.01002657 0.26997983 0.99167651
v -0.00095618 0.27901757 0.99325478
v -0.00095618 0.28999591 0.99513996
v -0.00095618 0.45772076 0.94660789
v -0.30377698 0.45905146 0.89873344
v -0.30377698 0.42999765 0.96168923
v -0.28999352 0.40998155 0.96651173
v -0.26998532 0.40998155 0.97225487
v -0.24066955 0.41591430 0.98014629
v -0.23168808 0.40953797 0.98194379
v -0.23951352 0.40255177 0.97988325
v -0.22750857 0.38996547 0.98172456
v -0.20999026 0.38996547 0.98549491
v -0.18998204 0.38996547 0.98944062
v -0.16997382 0.36994940 0.99119425
v -0.16997382 0.34998876 0.98895836
v -0.15002488 0.32997265 0.98970366
v -0.13001665 0.30995655 0.98979133
v -0.11000842 0.28999591 0.98908985
v -0.11000842 0.26997983 0.98562646
v -0.09000020 0.26997983 0.98764312
v -0.09000020 0.24996375 0.98391664
v -0.07002161 0.24996375 0.98549491
v -0.05001339 0.24996375 0.98667860
v -0.03000516 0.24996375 0.98746777
v -0.01002657 0.24996375 0.98790616
v -0.00095618 0.25900149 0.98961598
v -0.00095618 0.26997983 0.99167651
v -0.00095618 0.45367318 0.93911105
v -0.30377698 0.45561382 0.89079821
v -0.30377698 0.40998155 0.96225911
v -0.30339164 0.38996547 0.96111929
v -0.28999352 0.38996547 0.96524036
v -0.26998532 0.38996547 0.97102737
v -0.24840607 0.40953797 0.97795427
v -0.23752752 0.38996547 0.97940099
v -0.24997708 0.38996547 0.97633213
v -0.23340730 0.36994940 0.97848034
v -0.22341801 0.36994940 0.98076010
v -0.20999026 0.36994940 0.98360974
v -0.18998204 0.36994940 0.98759925
v -0.18998204 0.34998876 0.98531955
v -0.19149378 0.32864195 0.98229450
v -0.16997382 0.32997265 0.98637176
v -0.16997382 0.30995655 0.98356593
v -0.15002488 0.30995655 0.98685396
v -0.15002488 0.28999591 0.98374128
v -0.13001665 0.28999591 0.98663479
v -0.13001665 0.26997983 0.98317134
v -0.13001665 0.25639552 0.98067236
v -0.10991950 0.24918750 0.98172456
v -0.10319081 0.23826459 0.98032165
v -0.09000020 0.23532595 0.98097926
v -0.07002161 0.23161104 0.98176843
v -0.05199939 0.22795160 0.98207533
v -0.03000516 0.22994766 0.98339051
v -0.00095618 0.24996375 0.98790616
v -0.01002657 0.22994766 0.98378509
v -0.00095618 0.22994766 0.98382896
v -0.00095618 0.44873849 0.92999208
v -0.30377698 0.44458002 0.87137657
v -0.30377698 0.38996547 0.96098775
v -0.30377698 0.37349796 0.95949715
v -0.30143529 0.37543857 0.96046162
v -0.29153490 0.36922860 0.96278524
v -0.26998532 0.36994940 0.96914220
v -0.24997708 0.36994940 0.97444695
v -0.24997708 0.34998876 0.97216725
v -0.22842747 0.35115314 0.97747201
v -0.22072060 0.35858291 0.98014629
v -0.21013847 0.35115314 0.98146152
v -0.20358764 0.33446380 0.98071623
v -0.19917101 0.32110125 0.97983938
v -0.18482436 0.30995655 0.98089159
v -0.18058559 0.29925543 0.98010242
v -0.16861029 0.29154843 0.98093545
v -0.16102199 0.27896214 0.98014629
v -0.14812779 0.27136600 0.98084772
v -0.14021343 0.25983319 0.98001480
v -0.13001665 0.24635974 0.97874337
v -0.11649998 0.24197949 0.97957635
v -0.10991950 0.23094569 0.97804189
v -0.11000842 0.20998701 0.97348243
v -0.09000020 0.20998701 0.97549915
v -0.09000020 0.22534563 0.97883105
v -0.07002161 0.22157528 0.97962022
v -0.06000268 0.21996734 0.97997093
v -0.04666386 0.21847029 0.98032165
v -0.03000516 0.21708414 0.98062855
v -0.01002657 0.21614155 0.98084772
v -0.00095618 0.21614155 0.98084772
v -0.00095618 0.44103146 0.91885650
v -0.30377698 0.43742743 0.86256456
v -0.30377698 0.36545825 0.95866418
v -0.29924178 0.36207601 0.95976019
v -0.28688115 0.34998876 0.96203995
v -0.26998532 0.34998876 0.96686244
v -0.24997708 0.32997265 0.96966827
v -0.22999850 0.32997265 0.97444695
v -0.21692646 0.34527582 0.97935712
v -0.21013847 0.32864195 0.97856802
v -0.20999026 0.30995655 0.97598135
v -0.19481367 0.30995655 0.97900641
v -0.18835175 0.29154843 0.97738433
v -0.17436081 0.28594834 0.97900641
v -0.16861029 0.27136600 0.97751582
v -0.15349297 0.26565504 0.97896260
v -0.16997382 0.24996375 0.97330707
v -0.14812779 0.25190437 0.97720897
v -0.15002488 0.22994766 0.97251797
v -0.13001665 0.22994766 0.97536761
v -0.13001665 0.20998701 0.97107118
v -0.11000842 0.18997093 0.96896684
v -0.09000020 0.18997093 0.97093964
v -0.07002161 0.20998701 0.97707742
v -0.07002161 0.18997093 0.97247410
v -0.05001339 0.18997093 0.97365785
v -0.05199939 0.21109594 0.97839266
v -0.03000516 0.20710382 0.97839266
v -0.01002657 0.20616123 0.97861183
v -0.00095618 0.21065238 0.97962022
v -0.00095618 0.42999765 0.90925527
v -0.30377698 0.42855605 0.85462928
v -0.30377698 0.35697496 0.95774353
v -0.29690009 0.34998876 0.95905876
v -0.28264236 0.32997265 0.96076852
v -0.26998532 0.32997265 0.96431965
v -0.27001494 0.31167540 0.96173304
v -0.24997708 0.30995655 0.96681857
v -0.22999850 0.30995655 0.97164112
v -0.20999026 0.28999591 0.97286868
v -0.18998204 0.26997983 0.97343862
v -0.18998204 0.24996375 0.96971214
v -0.16997382 0.22994766 0.96927369
v -0.15002488 0.20998701 0.96822155
v -0.13001665 0.18997093 0.96651173
v -0.12894954 0.16967762 0.96177685
v -0.12153909 0.15925372 0.96015477
v -0.11000842 0.17001028 0.96414429
v -0.09000020 0.17001028 0.96611714
v -0.07002161 0.17001028 0.96765161
v -0.05001339 0.17001028 0.96879148
v -0.03000516 0.18997093 0.97440314
v -0.00095618 0.20616123 0.97861183
v -0.01002657 0.18997093 0.97479767
v -0.00095618 0.18997093 0.97484154
v -0.00095618 0.19728982 0.97655129
v -0.00095618 0.41935199 0.90039939
v -0.30377698 0.41369647 0.84349370
v -0.30377698 0.34998876 0.95691049
v -0.30377698 0.33945397 0.95559525
v -0.29263166 0.32997265 0.95778733
v -0.28024137 0.31949332 0.96006709
v -0.27671400 0.30613077 0.95905876
v -0.26337516 0.29432073 0.96090007
v -0.25160739 0.28855431 0.96304828
v -0.22999850 0.28999591 0.96852839
v -0.20999026 0.26997983 0.96949291
v -0.20999026 0.24996375 0.96576643
v -0.18998204 0.22994766 0.96567875
v -0.18912244 0.21037515 0.96164536
v -0.16997382 0.20998701 0.96497726
v -0.16997382 0.19401851 0.96138233
v -0.15962882 0.18021239 0.95993555
v -0.15180339 0.18814121 0.96296060
v -0.14631964 0.17605393 0.96094394
v -0.13487791 0.16274683 0.95932180
v -0.11000842 0.15670319 0.96081239
v -0.12894954 0.15154669 0.95721740
v -0.11000842 0.14672287 0.95822573
v -0.09000020 0.15298830 0.96182072
v -0.07654281 0.14090101 0.95976019
v -0.06993268 0.14855260 0.96217144
v -0.06320400 0.13923763 0.96019864
v -0.05001339 0.15004964 0.96370590
v -0.03000516 0.17001028 0.96953678
v -0.01002657 0.17001028 0.96993130
v -0.00095618 0.17904802 0.97216725
v -0.00095618 0.41480538 0.89772511
v -0.30377698 0.40393794 0.83770663
v -0.30377698 0.32997265 0.95436776
v -0.28812611 0.31167540 0.95655978
v -0.28999352 0.28999591 0.95261407
v -0.27001494 0.28855431 0.95809424
v -0.25934389 0.28095818 0.95980406
v -0.24550116 0.26997983 0.96138233
v -0.22999850 0.26997983 0.96510881
v -0.22246948 0.23721111 0.96054935
v -0.20966421 0.23033579 0.96186459
v -0.22946495 0.25096178 0.96164536
v -0.20275767 0.21730593 0.96054935
v -0.19522864 0.20399883 0.95910257
v -0.18188983 0.19845420 0.96033013
v -0.16997382 0.18398274 0.95901489
v -0.16997382 0.17001028 0.95563912
v -0.15002488 0.15004964 0.95388550
v -0.15180339 0.16967762 0.95853263
v -0.09000020 0.14295253 0.95923412
v -0.13001665 0.13003355 0.95134270
v -0.11000842 0.13003355 0.95375395
v -0.09000020 0.13003355 0.95568299
v -0.06993268 0.13153061 0.95761198
v -0.05001339 0.13801782 0.96054935
v -0.05001339 0.12798205 0.95778733
v -0.03000516 0.15004964 0.96445119
v -0.00095618 0.17001028 0.96993130
v -0.01002657 0.15004964 0.96480191
v -0.00095618 0.15004964 0.96484578
v -0.00095618 0.40931621 0.89452469
v -0.30377698 -0.10378319 0.56106949
v -0.30377698 0.31045559 0.95156193
v -0.30377698 0.28999591 0.94831765
v -0.28999352 0.26997983 0.94910681
v -0.26998532 0.26997983 0.95489383
v -0.25552011 0.26997983 0.95883954
v -0.24132167 0.25822523 0.96033013
v -0.23580828 0.24491814 0.95901489
v -0.22946495 0.23033579 0.95743662
v -0.21609649 0.22390401 0.95914644
v -0.20966421 0.21037515 0.95756817
v -0.20999026 0.18997093 0.95278949
v -0.18998204 0.17001028 0.95200032
v -0.18912244 0.19107985 0.95721740
v -0.16997382 0.15004964 0.95055354
v -0.15002488 0.13003355 0.94849300
v -0.13001665 0.11001747 0.94555569
v -0.11000842 0.11001747 0.94796693
v -0.09000020 0.11001747 0.94993979
v -0.07002161 0.11001747 0.95147425
v -0.03000516 0.13668710 0.96090007
v -0.05001339 0.11001747 0.95261407
v -0.03000516 0.11001747 0.95335937
v -0.03000516 0.12665135 0.95813811
v -0.01002657 0.13596630 0.96107543
v -0.00095618 0.14234263 0.96278524
v -0.00095618 0.39029816 0.88452893
v -0.00098582 -0.10378319 0.63489783
v -0.30377698 -0.10378319 0.80263376
v -0.30377698 0.27025706 0.94485426
v -0.30377698 0.24996375 0.94095236
v -0.28999352 0.24996375 0.94520497
v -0.26998532 0.24996375 0.95103586
v -0.24879141 0.25096178 0.95695436
v -0.24997708 0.22994766 0.95230722
v -0.22999850 0.20998701 0.95287716
v -0.22999850 0.18997093 0.94823003
v -0.20999026 0.17001028 0.94792312
v -0.18998204 0.15004964 0.94682705
v -0.18847030 0.13042168 0.94174153
v -0.16997382 0.13003355 0.94507343
v -0.16997382 0.11622745 0.94112772
v -0.14960989 0.10929667 0.94253063
v -0.14270334 0.09870644 0.94042629
v -0.13001665 0.09604502 0.94125926
v -0.11000842 0.09227468 0.94248682
v -0.09883346 0.08035374 0.93990016
v -0.09130444 0.08822710 0.94305676
v -0.07002161 0.09000138 0.94529265
v -0.05001339 0.09000138 0.94647634
v -0.01002657 0.12598598 0.95835727
v -0.01002657 0.11001747 0.95375395
v -0.03000516 0.09000138 0.94722164
v -0.00095618 0.13596630 0.96107543
v -0.00095618 0.13047713 0.95958483
v -0.00095618 -0.09934747 0.63941348
v -0.00095618 -0.10378319 0.64344686
v -0.28925249 -0.10378319 0.80785090
v -0.29174238 -0.09003252 0.81600535
v -0.29956782 -0.07971951 0.81981951
v -0.30377698 -0.08393344 0.81552309
v -0.30377698 0.23615764 0.93797117
v -0.30010140 0.23981708 0.94003171
v -0.28913391 0.23188828 0.94160998
v -0.26998532 0.22994766 0.94682705
v -0.24997708 0.20998701 0.94787925
v -0.25054026 0.18958281 0.94292521
v -0.24425621 0.17549947 0.94112772
v -0.23065062 0.16928948 0.94296908
v -0.22442584 0.15603784 0.94104004
v -0.21001992 0.14966153 0.94261837
v -0.20340979 0.13735247 0.94073319
v -0.19410226 0.12404536 0.93884802
v -0.18076344 0.11949877 0.94011939
v -0.16997382 0.10624713 0.93810272
v -0.15598288 0.10214411 0.93933022
v -0.14960989 0.09122120 0.93683130
v -0.15002488 0.07004074 0.92955369
v -0.13001665 0.08600926 0.93801504
v -0.11000842 0.08223891 0.93924260
v -0.11000842 0.07004074 0.93498999
v -0.09130444 0.07120511 0.93735743
v -0.08552428 0.07869035 0.94042629
v -0.07002161 0.07697152 0.94104004
v -0.05001339 0.07525268 0.94160998
v -0.03000516 0.07414376 0.94200456
v -0.00095618 0.12598598 0.95835727
v -0.00095618 0.11001747 0.95375395
v -0.01002657 0.09000138 0.94761622
v -0.01002657 0.07353386 0.94222379
v -0.00095618 -0.10378319 0.85747898
v -0.28142703 -0.10378319 0.81061286
v -0.27389804 -0.09679696 0.81793433
v -0.28625867 -0.08343443 0.82214308
v -0.29174238 -0.07184616 0.82727247
v -0.30377698 -0.06297477 0.82801777
v -0.30377698 -0.06824215 0.82494891
v -0.30377698 -0.07838881 0.81903034
v -0.30377698 0.23005855 0.93656826
v -0.29526979 0.22645456 0.93854111
v -0.28193095 0.21747226 0.94055784
v -0.27001494 0.21048604 0.94244295
v -0.26337516 0.19595912 0.94095236
v -0.25756538 0.18259658 0.93933022
v -0.25054026 0.16928948 0.93783963
v -0.23773500 0.16219237 0.93941796
v -0.23065062 0.14966153 0.93779582
v -0.21671897 0.14273074 0.93924260
v -0.21001992 0.13042168 0.93726969
v -0.20999026 0.11001747 0.93121964
v -0.18847030 0.11173631 0.93626142
v -0.18998204 0.09000138 0.92907143
v -0.16997382 0.09000138 0.93292946
v -0.13001665 0.07004074 0.93253487
v -0.16997382 0.07004074 0.92609024
v -0.16997382 0.05667820 0.92126775
v -0.14809816 0.04969198 0.92240763
v -0.11000842 0.05002466 0.92771238
v -0.09000020 0.05002466 0.92977291
v -0.07002161 0.06699120 0.93753278
v -0.05001339 0.06527236 0.93814653
v -0.03000516 0.06416344 0.93854111
v -0.00095618 0.09000138 0.94761622
v -0.00095618 0.07353386 0.94222379
v -0.01002657 0.06355353 0.93876034
v -0.00095618 -0.10167623 0.85888189
v -0.00427607 -0.10378319 0.85747898
v -0.27048922 -0.10378319 0.81442702
v -0.26058885 -0.10029006 0.82017022
v -0.26832536 -0.09003252 0.82407206
v -0.26399767 -0.10378319 0.81666291
v -0.27102277 -0.06968376 0.83560228
v -0.27834430 -0.05898263 0.83941644
v -0.28999352 -0.05537863 0.83744359
v -0.30377698 -0.05077659 0.83498847
v -0.30377698 0.21691780 0.93349940
v -0.30377698 0.21009791 0.93187726
v -0.28913391 0.21048604 0.93669981
v -0.27668434 0.20410971 0.93902338
v -0.27001494 0.18958281 0.93740124
v -0.26998532 0.17001028 0.93240339
v -0.24997708 0.15004964 0.93284178
v -0.22999850 0.13003355 0.93244720
v -0.22999850 0.11001747 0.92648482
v -0.22999850 0.09493610 0.92166233
v -0.21129450 0.08850434 0.92402971
v -0.20551436 0.07647251 0.92126775
v -0.18861851 0.06992985 0.92245144
v -0.13001665 0.05002466 0.92516959
v -0.18105985 0.05945051 0.92017174
v -0.16997382 0.04669788 0.91740972
v -0.15346332 0.04281664 0.91890031
v -0.14015415 0.03998889 0.91999632
v -0.13001665 0.03827006 0.92069781
v -0.11000842 0.03522050 0.92196918
v -0.07002161 0.05002466 0.93135118
v -0.09000020 0.03261453 0.92297757
v -0.05001339 0.05002466 0.93257874
v -0.03000516 0.05002466 0.93336785
v -0.00095618 0.06355353 0.93876034
v -0.01002657 0.05002466 0.93380630
v -0.00095618 0.05612373 0.93604219
v -0.00095618 -0.10034552 0.85975873
v -0.01127154 -0.10378319 0.85734743
v -0.01393929 -0.09984651 0.85989022
v -0.24997708 -0.10267425 0.82179236
v -0.24997708 -0.08997709 0.82990295
v -0.24997708 -0.07678089 0.83810121
v -0.24997708 -0.10378319 0.82104707
v -0.26503512 -0.06280842 0.84165233
v -0.27102277 -0.05138651 0.84603643
v -0.28999352 -0.04539831 0.84296757
v -0.30223560 -0.04151706 0.84081936
v -0.30377698 -0.04312500 0.83932877
v -0.28999352 0.18997093 0.93139505
v -0.30377698 0.18930557 0.92666018
v -0.28999352 0.17001028 0.92622179
v -0.26998532 0.15004964 0.92701089
v -0.24997708 0.13003355 0.92718625
v -0.24861357 0.11107095 0.92188150
v -0.24105489 0.09915001 0.92025936
v -0.21885318 0.08079731 0.91973329
v -0.21129450 0.06992985 0.91754127
v -0.19439867 0.06316541 0.91885650
v -0.18861851 0.05168805 0.91565609
v -0.18998204 0.03000857 0.90666866
v -0.16997382 0.03000857 0.91065818
v -0.14809816 0.03200462 0.91534919
v -0.13001665 0.01004793 0.90872920
v -0.13001665 0.02828974 0.91653287
v -0.11000842 0.02518474 0.91784811
v -0.09000020 0.02263421 0.91890031
v -0.06874701 0.02862240 0.92306519
v -0.05001339 0.03000857 0.92481887
v -0.07458645 0.02102627 0.91955793
v -0.03000516 0.03000857 0.92560798
v -0.00095618 0.05002466 0.93380630
v -0.01002657 0.03000857 0.92604643
v -0.00095618 0.03904630 0.92955369
v -0.00095618 -0.09962472 0.86019713
v -0.02016407 -0.10378319 0.85712826
v -0.00836663 -0.09186223 0.86480045
v -0.03000516 -0.08947805 0.86572111
v -0.03000516 -0.09945837 0.85967100
v -0.03000516 -0.10378319 0.85686517
v -0.23139167 -0.08942261 0.83555841
v -0.24496761 -0.10378319 0.82249379
v -0.23023564 -0.10378319 0.82665873
v -0.23897997 -0.07949772 0.83972335
v -0.24997708 -0.06680055 0.84393209
v -0.24920639 -0.04861419 0.85432243
v -0.25537190 -0.03735860 0.85861886
v -0.27182311 -0.03042783 0.85699672
v -0.28999352 -0.02998425 0.85112202
v -0.30377698 -0.03902198 0.84156466
v -0.30377698 0.17084198 0.92192537
v -0.30377698 0.16845779 0.92131156
v -0.30033851 0.15958640 0.92008400
v -0.28871894 0.15176848 0.92161846
v -0.28118992 0.13873862 0.92034709
v -0.26894784 0.13125338 0.92196918
v -0.26156703 0.11844529 0.92047858
v -0.25439370 0.10508276 0.91837424
v -0.24861357 0.09149843 0.91552454
v -0.22999850 0.08495577 0.91828656
v -0.22999850 0.07004074 0.91298175
v -0.20999026 0.05002466 0.91035128
v -0.20835997 0.03006402 0.90267909
v -0.20062345 0.01969557 0.90013635
v -0.18998204 0.01714504 0.90123236
v -0.16997382 0.01265389 0.90320522
v -0.15153661 0.00821820 0.90460813
v -0.11000842 0.01004793 0.91135967
v -0.14590466 -0.00209481 0.90096933
v -0.13001665 -0.00464533 0.90215302
v -0.09000020 0.01004793 0.91346401
v -0.06124763 0.01980646 0.92008400
v -0.05001339 0.01908566 0.92039090
v -0.06874701 0.01187764 0.91609448
v -0.03000516 0.01814307 0.92078549
v -0.00095618 0.03000857 0.92604643
v -0.01002657 0.01764405 0.92100465
v -0.00095618 -0.09191769 0.86480045
v -0.01002657 -0.07306597 0.87597990
v -0.05001339 -0.08870181 0.86528265
v -0.03000516 -0.07262242 0.87571687
v -0.05001339 -0.09873757 0.85918880
v -0.05001339 -0.10378319 0.85594451
v -0.20999026 -0.09557715 0.83722442
v -0.22567078 -0.08243638 0.84147698
v -0.22433691 -0.10378319 0.82819313
v -0.23139167 -0.07167983 0.84625566
v -0.22999850 -0.05404791 0.85673368
v -0.24203306 -0.04107350 0.86059171
v -0.24920639 -0.03042783 0.86396742
v -0.26639864 -0.02399606 0.86203843
v -0.27973747 -0.01978216 0.85989022
v -0.30377698 -0.03003970 0.84616798
v -0.28999352 -0.01623359 0.85813659
v -0.30377698 0.15620418 0.91793585
v -0.29452872 0.14622386 0.91819882
v -0.28871894 0.13125338 0.91569990
v -0.27490586 0.12537608 0.91837424
v -0.26894784 0.11107095 0.91583145
v -0.26998532 0.09000138 0.90859765
v -0.26868105 0.07087243 0.90228456
v -0.24997708 0.07004074 0.90758932
v -0.24997708 0.05495936 0.90197766
v -0.23118417 0.04852760 0.90456426
v -0.22531509 0.03671756 0.90136391
v -0.21396227 0.02341047 0.89855808
v -0.20835997 0.01182219 0.89478773
v -0.18998204 0.00716472 0.89680439
v -0.16997382 0.00261813 0.89882112
v -0.15921384 0.00034483 0.89982945
v -0.11000842 -0.00741763 0.90346825
v -0.15153661 -0.00924736 0.89662904
v -0.13001665 -0.01462565 0.89741820
v -0.11000842 -0.01739796 0.89877725
v -0.08952593 -0.01146522 0.90377516
v -0.07002161 -0.00996816 0.90614259
v -0.05001339 0.00910534 0.91605067
v -0.03000516 0.00810730 0.91648906
v -0.05001339 -0.00996816 0.90745783
v -0.00095618 0.01764405 0.92100465
v -0.01002657 0.00760829 0.91670823
v -0.00095618 -0.08432156 0.86931604
v -0.00095618 -0.07306597 0.87597990
v -0.00095618 -0.06857483 0.87861037
v -0.01002657 -0.06303021 0.88172311
v -0.07002161 -0.08759290 0.86458123
v -0.07002161 -0.09762865 0.85853118
v -0.05001339 -0.07179072 0.87527847
v -0.03000516 -0.06258664 0.88146007
v -0.05001339 -0.06181039 0.88102162
v -0.05896521 -0.10378319 0.85533077
v -0.20999026 -0.08559683 0.84344983
v -0.21043490 -0.10378319 0.83174425
v -0.19534722 -0.09834945 0.83897805
v -0.20871568 -0.06829759 0.85397172
v -0.21452546 -0.05759647 0.85866266
v -0.20871568 -0.05055481 0.86392361
v -0.22999850 -0.04401214 0.86216998
v -0.22999850 -0.02998425 0.86949146
v -0.22999850 -0.01440386 0.87729514
v -0.24191451 -0.00115222 0.88053936
v -0.24914712 -0.00863746 0.87479621
v -0.27182311 -0.01185334 0.86629105
v -0.28999352 -0.00619783 0.86300296
v -0.30377698 -0.02604757 0.84818465
v -0.30377698 -0.01113254 0.85568148
v -0.30232453 -0.00181757 0.86085474
v -0.30377698 0.14993876 0.91609448
v -0.30377698 0.13657621 0.91214877
v -0.30377698 0.13036624 0.91030747
v -0.28999352 0.11001747 0.90877301
v -0.28925249 0.09066673 0.90263528
v -0.28210881 0.07813589 0.90066242
v -0.27449086 0.06477335 0.89820731
v -0.26115203 0.05906238 0.90035552
v -0.24997708 0.04497905 0.89803195
v -0.23865390 0.04087603 0.89961022
v -0.23118417 0.03006402 0.89702362
v -0.22999850 0.01004793 0.88869381
v -0.22999850 -0.00442354 0.88211763
v -0.20966421 -0.01085530 0.88404667
v -0.18998204 -0.00996816 0.88886917
v -0.16997382 -0.00996816 0.89290255
v -0.09586927 -0.01911679 0.89956641
v -0.16997382 -0.02798820 0.88404667
v -0.15192196 -0.03192487 0.88536191
v -0.13001665 -0.02998425 0.88983369
v -0.11000842 -0.02998425 0.89250797
v -0.08253046 -0.02044751 0.90022403
v -0.07002161 -0.02150097 0.90075010
v -0.03000516 -0.00996816 0.90829074
v -0.05001339 -0.02283169 0.90136391
v -0.00095618 0.00760829 0.91670823
v -0.01002657 -0.00996816 0.90872920
v -0.00095618 -0.00996816 0.90877301
v -0.00095618 -0.06308565 0.88172311
v -0.00095618 -0.05715291 0.88496733
v -0.01002657 -0.04994489 0.88882536
v -0.09000020 -0.08615127 0.86370438
v -0.07185940 -0.06851938 0.87567300
v -0.07995162 -0.10378319 0.85366482
v -0.07002161 -0.10378319 0.85454160
v -0.09000020 -0.09613159 0.85761046
v -0.06643495 -0.06086780 0.88049555
v -0.03000516 -0.04994489 0.88829923
v -0.05001339 -0.04994489 0.88742244
v -0.18921135 -0.09097511 0.84480888
v -0.18998204 -0.07262242 0.85568148
v -0.20169055 -0.10378319 0.83384866
v -0.19202733 -0.10378319 0.83612835
v -0.18491329 -0.10378319 0.83770663
v -0.18200840 -0.10062274 0.84042478
v -0.20121630 -0.06047969 0.86028481
v -0.18998204 -0.04994489 0.86843926
v -0.18998204 -0.03403182 0.87694442
v -0.20966421 -0.02876444 0.87519073
v -0.21612613 -0.01806332 0.87904876
v -0.25525331 0.00306170 0.87861037
v -0.24914712 0.00988159 0.88338906
v -0.27102277 0.00988159 0.87672520
v -0.28999352 0.01004793 0.87054360
v -0.30377698 -0.00325917 0.85958338
v -0.30377698 0.01010337 0.86567724
v -0.30377698 0.00062206 0.86142468
v -0.30377698 0.11650468 0.90605485
v -0.30377698 0.11079372 0.90430123
v -0.30214667 0.09770840 0.90075010
v -0.29544765 0.08440131 0.89847040
v -0.28925249 0.07087243 0.89566457
v -0.28999352 0.05002466 0.88751012
v -0.26868105 0.05146626 0.89496309
v -0.27102277 0.02873330 0.88496733
v -0.24997708 0.03000857 0.89185035
v -0.20278731 -0.02127920 0.88062704
v -0.18998204 -0.02405150 0.88202995
v -0.08952593 -0.02826542 0.89562070
v -0.16997382 -0.03802396 0.87896109
v -0.15983632 -0.03990912 0.87996942
v -0.14655678 -0.04207154 0.88110930
v -0.13001665 -0.04445572 0.88238072
v -0.11000842 -0.04695080 0.88373977
v -0.07002161 -0.03148130 0.89570838
v -0.05001339 -0.03281201 0.89636600
v -0.03000516 -0.02366339 0.90180230
v -0.01002657 -0.02410695 0.90202153
v -0.00095618 -0.01773064 0.90509039
v -0.00095618 -0.04994489 0.88882536
v -0.00095618 -0.04284778 0.89255184
v -0.01002657 -0.03414272 0.89706749
v -0.03000516 -0.03364371 0.89680439
v -0.11000842 -0.08426613 0.86256456
v -0.09000020 -0.06996098 0.87317407
v -0.07977377 -0.05992521 0.87996942
v -0.09000020 -0.10378319 0.85270029
v -0.11000842 -0.09424645 0.85647064
v -0.09984128 -0.10378319 0.85160428
v -0.07185940 -0.05194096 0.88487965
v -0.16997382 -0.08997709 0.84941220
v -0.16997382 -0.07617095 0.85774201
v -0.18998204 -0.06258664 0.86146849
v -0.16997382 -0.10378319 0.84077555
v -0.16997382 -0.10250792 0.84160852
v -0.16997382 -0.04994489 0.87251645
v -0.26503512 0.01642424 0.88159156
v -0.27837396 0.02124806 0.87944335
v -0.28999352 0.02573921 0.87751436
v -0.30030888 0.03976710 0.88010097
v -0.30377698 0.03627399 0.87729514
v -0.30377698 0.10075795 0.90114468
v -0.30377698 0.09610046 0.89961022
v -0.30377698 0.07619527 0.89255184
v -0.30377698 0.07026252 0.89040363
v -0.30377698 0.08817165 0.89680439
v -0.30377698 0.05606829 0.88505501
v -0.30377698 0.05118902 0.88321370
v -0.28999352 0.03571953 0.88181078
v -0.09000020 -0.04900230 0.88483578
v -0.15192196 -0.04922409 0.87628680
v -0.13001665 -0.05443604 0.87694442
v -0.11000842 -0.05693112 0.87830347
v -0.09000020 -0.05898263 0.87944335
v -0.00095618 -0.02416240 0.90202153
v -0.00095618 -0.03414272 0.89706749
v -0.00095618 -0.02965158 0.89930338
v -0.13001665 -0.08199281 0.86120546
v -0.13001665 -0.09202859 0.85511154
v -0.11000842 -0.06996098 0.87089431
v -0.12402900 -0.10378319 0.84849155
v -0.10994914 -0.10378319 0.85042059
v -0.14993595 -0.10378319 0.84450203
v -0.14913562 -0.08831370 0.85427856
v -0.15518256 -0.07855514 0.85914493
v -0.16997382 -0.06613520 0.86352903
v -0.16111091 -0.10378319 0.84244150
v -0.30377698 0.04497905 0.88084626
v -0.14913562 -0.07112536 0.86449355
v -0.13001665 -0.06996098 0.86817622
v -0.14187337 -0.08049577 0.86028481
v -0.13001665 -0.10378319 0.84765857
f 1 2 3
f 1 3 13
f 1 13 4
f 1 4 5
f 1 5 6
f 1 6 7
f 1 7 16
f 1 16 8
f 1 8 2
f 2 9 3
f 2 8 10
f 2 10 11
f 2 11 9
f 3 12 27
f 3 27 13
f 3 9 12
f 4 13 29
f 4 29 14
f 4 14 15
f 4 15 5
f 5 15 32
f 5 32 52
f 5 52 79
f 5 79 81
f 5 81 113
f 5 113 139
f 5 139 141
f 5 141 165
f 5 165 164
f 5 164 190
f 5 190 189
f 5 189 219
f 5 219 221
f 5 221 253
f 5 253 283
f 5 283 306
f 5 306 309
f 5 309 308
f 5 308 340
f 5 340 368
f 5 368 370
f 5 370 397
f 5 397 425
f 5 425 426
f 5 426 458
f 5 458 459
f 5 459 494
f 5 494 495
f 5 495 531
f 5 531 533
f 5 533 568
f 5 568 570
f 5 570 612
f 5 612 656
f 5 656 709
f 5 709 711
f 5 711 762
f 5 762 798
f 5 798 800
f 5 800 799
f 5 799 764
f 5 764 763
f 5 763 713
f 5 713 712
f 5 712 660
f 5 660 659
f 5 659 658
f 5 658 614
f 5 614 571
f 5 571 534
f 5 534 497
f 5 497 462
f 5 462 428
f 5 428 427
f 5 427 398
f 5 398 371
f 5 371 341
f 5 341 310
f 5 310 284
f 5 284 254
f 5 254 222
f 5 222 191
f 5 191 166
f 5 166 142
f 5 142 114
f 5 114 82
f 5 82 53
f 5 53 33
f 5 33 18
f 5 18 17
f 5 17 16
f 5 16 7
f 5 7 6
f 8 17 18
f 8 18 19
f 8 19 10
f 8 16 17
f 9 11 20
f 9 20 21
f 9 21 22
f 9 22 26
f 9 26 12
f 10 19 23
f 10 23 24
f 10 24 11
f 11 24 25
f 11 25 20
f 12 26 46
f 12 46 27
f 13 27 28
f 13 28 29
f 14 29 30
f 14 30 31
f 14 31 32
f 14 32 15
f 18 33 34
f 18 34 19
f 19 34 23
f 20 25 35
f 20 35 36
f 20 36 21
f 21 37 22
f 21 36 38
f 21 38 37
f 22 37 39
f 22 39 44
f 22 44 26
f 23 34 40
f 23 40 41
f 23 41 42
f 23 42 24
f 24 42 43
f 24 43 36
f 24 36 25
f 25 36 35
f 26 44 45
f 26 45 46
f 27 46 47
f 27 47 28
f 28 47 48
f 28 48 29
f 29 48 30
f 30 48 49
f 30 49 50
f 30 50 31
f 31 50 51
f 31 51 32
f 32 51 52
f 33 53 34
f 34 53 54
f 34 54 55
f 34 55 40
f 36 43 56
f 36 56 57
f 36 57 58
f 36 58 59
f 36 59 38
f 37 38 60
f 37 60 61
f 37 61 62
f 37 62 63
f 37 63 39
f 38 59 60
f 39 64 44
f 39 63 65
f 39 65 64
f 40 55 66
f 40 66 41
f 41 66 67
f 41 67 68
f 41 68 69
f 41 69 42
f 42 69 43
f 43 69 56
f 44 70 45
f 44 64 70
f 45 71 72
f 45 72 73
f 45 73 47
f 45 47 46
f 45 70 71
f 47 73 74
f 47 74 75
f 47 75 48
f 48 75 76
f 48 76 49
f 49 76 77
f 49 77 78
f 49 78 50
f 50 78 51
f 51 79 52
f 51 78 80
f 51 80 81
f 51 81 79
f 53 82 83
f 53 83 84
f 53 84 54
f 54 84 66
f 54 66 55
f 56 69 85
f 56 85 86
f 56 86 57
f 57 86 87
f 57 87 58
f 58 88 62
f 58 62 61
f 58 61 89
f 58 89 90
f 58 90 59
f 58 87 91
f 58 91 92
f 58 92 93
f 58 93 88
f 59 90 60
f 60 90 89
f 60 89 61
f 62 88 93
f 62 93 94
f 62 94 63
f 63 95 64
f 63 64 65
f 63 94 96
f 63 96 97
f 63 97 95
f 64 98 99
f 64 99 70
f 64 95 97
f 64 97 100
f 64 100 98
f 66 84 101
f 66 101 67
f 67 101 68
f 68 101 69
f 69 101 85
f 70 99 102
f 70 102 71
f 71 103 72
f 71 102 103
f 72 103 104
f 72 104 105
f 72 105 73
f 73 105 74
f 74 105 106
f 74 106 107
f 74 107 75
f 75 107 76
f 76 107 108
f 76 108 109
f 76 109 77
f 77 109 110
f 77 110 78
f 78 110 111
f 78 111 112
f 78 112 80
f 80 112 81
f 81 112 113
f 82 114 115
f 82 115 116
f 82 116 117
f 82 117 83
f 83 117 84
f 84 117 101
f 85 101 117
f 85 117 86
f 86 117 87
f 87 117 118
f 87 118 91
f 91 118 115
f 91 115 143
f 91 143 167
f 91 167 192
f 91 192 223
f 91 223 255
f 91 255 285
f 91 285 311
f 91 311 342
f 91 342 372
f 91 372 400
f 91 400 432
f 91 432 469
f 91 469 468
f 91 468 467
f 91 467 506
f 91 506 545
f 91 545 586
f 91 586 629
f 91 629 681
f 91 681 682
f 91 682 738
f 91 738 740
f 91 740 739
f 91 739 784
f 91 784 811
f 91 811 791
f 91 791 790
f 91 790 788
f 91 788 787
f 91 787 789
f 91 789 786
f 91 786 785
f 91 785 742
f 91 742 741
f 91 741 686
f 91 686 685
f 91 685 684
f 91 684 631
f 91 631 588
f 91 588 587
f 91 587 547
f 91 547 508
f 91 508 507
f 91 507 470
f 91 470 433
f 91 433 402
f 91 402 401
f 91 401 374
f 91 374 373
f 91 373 343
f 91 343 313
f 91 313 312
f 91 312 286
f 91 286 256
f 91 256 225
f 91 225 224
f 91 224 193
f 91 193 168
f 91 168 146
f 91 146 145
f 91 145 144
f 91 144 119
f 91 119 120
f 91 120 121
f 91 121 92
f 92 121 93
f 93 122 94
f 93 121 120
f 93 120 122
f 94 122 123
f 94 123 124
f 94 124 125
f 94 125 126
f 94 126 96
f 96 126 127
f 96 127 100
f 96 100 97
f 98 100 102
f 98 102 99
f 100 127 128
f 100 128 102
f 102 128 129
f 102 129 103
f 103 129 130
f 103 130 104
f 104 131 132
f 104 132 105
f 104 130 131
f 105 132 106
f 106 132 133
f 106 133 134
f 106 134 107
f 107 134 108
f 108 134 135
f 108 135 109
f 109 135 159
f 109 159 136
f 109 136 137
f 109 137 110
f 110 137 138
f 110 138 111
f 111 138 140
f 111 140 112
f 112 139 113
f 112 140 141
f 112 141 139
f 114 142 115
f 115 118 117
f 115 117 116
f 115 142 143
f 119 144 122
f 119 122 120
f 122 144 123
f 123 144 145
f 123 145 146
f 123 146 147
f 123 147 148
f 123 148 124
f 124 148 149
f 124 149 150
f 124 150 151
f 124 151 125
f 125 151 150
f 125 150 152
f 125 152 153
f 125 153 126
f 126 153 127
f 127 153 176
f 127 176 154
f 127 154 128
f 128 154 177
f 128 177 155
f 128 155 130
f 128 130 129
f 130 155 156
f 130 156 131
f 131 156 157
f 131 157 132
f 132 157 133
f 133 157 180
f 133 180 158
f 133 158 135
f 133 135 134
f 135 158 181
f 135 181 159
f 136 159 160
f 136 160 161
f 136 161 137
f 137 161 162
f 137 162 138
f 138 162 163
f 138 163 140
f 140 163 164
f 140 164 165
f 140 165 141
f 142 166 143
f 143 166 167
f 146 168 147
f 147 168 193
f 147 193 169
f 147 169 170
f 147 170 148
f 148 170 150
f 148 150 149
f 150 171 152
f 150 170 171
f 152 172 173
f 152 173 174
f 152 174 175
f 152 175 176
f 152 176 153
f 152 171 172
f 154 176 177
f 155 177 156
f 156 178 179
f 156 179 157
f 156 177 178
f 157 179 208
f 157 208 180
f 158 180 210
f 158 210 181
f 159 181 182
f 159 182 183
f 159 183 160
f 160 183 184
f 160 184 185
f 160 185 186
f 160 186 161
f 161 186 187
f 161 187 162
f 162 187 188
f 162 188 163
f 163 188 189
f 163 189 190
f 163 190 164
f 166 191 192
f 166 192 167
f 169 193 194
f 169 194 195
f 169 195 196
f 169 196 170
f 170 196 197
f 170 197 171
f 171 197 173
f 171 173 172
f 173 198 174
f 173 197 196
f 173 196 199
f 173 199 198
f 174 198 200
f 174 200 201
f 174 201 175
f 175 201 202
f 175 202 203
f 175 203 176
f 176 203 177
f 177 203 178
f 178 204 205
f 178 205 206
f 178 206 179
f 178 203 204
f 179 206 207
f 179 207 208
f 180 208 209
f 180 209 210
f 181 210 211
f 181 211 182
f 182 211 212
f 182 212 213
f 182 213 184
f 182 184 183
f 184 213 214
f 184 214 215
f 184 215 185
f 185 215 216
f 185 216 186
f 186 216 217
f 186 217 218
f 186 218 187
f 187 218 188
f 188 219 189
f 188 218 220
f 188 220 221
f 188 221 219
f 191 222 192
f 192 222 223
f 193 224 194
f 194 224 225
f 194 225 226
f 194 226 195
f 195 226 227
f 195 227 228
f 195 228 196
f 196 228 229
f 196 229 199
f 198 199 229
f 198 229 200
f 200 229 230
f 200 230 231
f 200 231 232
f 200 232 201
f 201 232 202
f 202 232 233
f 202 233 203
f 203 233 204
f 204 233 234
f 204 234 205
f 205 234 235
f 205 235 236
f 205 236 206
f 206 236 207
f 207 236 237
f 207 237 238
f 207 238 208
f 208 238 209
f 209 238 239
f 209 239 240
f 209 240 210
f 210 240 241
f 210 241 211
f 211 241 212
f 212 241 242
f 212 242 243
f 212 243 213
f 213 243 214
f 214 243 244
f 214 244 245
f 214 245 246
f 214 246 247
f 214 247 215
f 215 247 248
f 215 248 216
f 216 248 249
f 216 249 217
f 217 249 250
f 217 250 218
f 218 250 251
f 218 251 252
f 218 252 220
f 220 252 221
f 221 252 253
f 222 254 223
f 223 254 255
f 225 256 226
f 226 256 257
f 226 257 227
f 227 257 228
f 228 257 258
f 228 258 259
f 228 259 230
f 228 230 229
f 230 259 260
f 230 260 231
f 231 260 261
f 231 261 262
f 231 262 232
f 232 262 233
f 233 262 234
f 234 262 263
f 234 263 235
f 235 264 265
f 235 265 237
f 235 237 236
f 235 263 264
f 237 266 267
f 237 267 238
f 237 265 266
f 238 267 239
f 239 267 268
f 239 268 269
f 239 269 240
f 240 269 241
f 241 269 270
f 241 270 271
f 241 271 272
f 241 272 242
f 242 272 273
f 242 273 243
f 243 273 244
f 244 273 274
f 244 274 245
f 245 274 275
f 245 275 246
f 246 275 276
f 246 276 277
f 246 277 248
f 246 248 247
f 248 277 249
f 249 277 278
f 249 278 279
f 249 279 280
f 249 280 250
f 250 280 279
f 250 279 281
f 250 281 251
f 251 281 282
f 251 282 252
f 252 282 283
f 252 283 253
f 254 284 285
f 254 285 255
f 256 286 257
f 257 286 287
f 257 287 258
f 258 287 288
f 258 288 259
f 259 288 289
f 259 289 260
f 260 289 290
f 260 290 291
f 260 291 292
f 260 292 261
f 261 292 264
f 261 264 263
f 261 263 262
f 264 292 319
f 264 319 293
f 264 293 265
f 265 293 266
f 266 293 294
f 266 294 267
f 267 294 268
f 268 294 270
f 268 270 269
f 270 294 295
f 270 295 322
f 270 322 296
f 270 296 272
f 270 272 271
f 272 296 324
f 272 324 297
f 272 297 274
f 272 274 273
f 274 297 298
f 274 298 275
f 275 298 299
f 275 299 300
f 275 300 301
f 275 301 302
f 275 302 276
f 276 302 303
f 276 303 278
f 276 278 277
f 278 303 279
f 279 303 304
f 279 304 338
f 279 338 305
f 279 305 281
f 281 305 282
f 282 306 283
f 282 305 307
f 282 307 308
f 282 308 309
f 282 309 306
f 284 310 285
f 285 310 311
f 286 312 287
f 287 312 313
f 287 313 314
f 287 314 288
f 288 314 315
f 288 315 289
f 289 315 290
f 290 315 316
f 290 316 317
f 290 317 291
f 291 317 318
f 291 318 319
f 291 319 292
f 293 319 320
f 293 320 294
f 294 320 321
f 294 321 295
f 295 321 322
f 296 322 323
f 296 323 324
f 297 324 325
f 297 325 326
f 297 326 327
f 297 327 298
f 298 327 328
f 298 328 329
f 298 329 299
f 299 329 300
f 300 330 301
f 300 329 331
f 300 331 332
f 300 332 330
f 301 330 302
f 302 330 333
f 302 333 303
f 303 333 334
f 303 334 335
f 303 335 336
f 303 336 337
f 303 337 304
f 304 337 367
f 304 367 338
f 305 338 339
f 305 339 307
f 307 339 308
f 308 339 340
f 310 341 342
f 310 342 311
f 313 343 314
f 314 343 344
f 314 344 315
f 315 344 316
f 316 344 345
f 316 345 346
f 316 346 317
f 317 346 347
f 317 347 318
f 318 347 348
f 318 348 319
f 319 348 349
f 319 349 320
f 320 349 321
f 321 350 351
f 321 351 322
f 321 349 352
f 321 352 350
f 322 353 323
f 322 351 353
f 323 353 354
f 323 354 355
f 323 355 324
f 324 355 325
f 325 355 356
f 325 356 326
f 326 356 357
f 326 357 358
f 326 358 359
f 326 359 328
f 326 328 327
f 328 359 329
f 329 359 358
f 329 358 331
f 330 332 360
f 330 360 333
f 331 358 361
f 331 361 332
f 332 361 362
f 332 362 360
f 333 360 334
f 334 336 335
f 334 360 363
f 334 363 364
f 334 364 336
f 336 365 337
f 336 364 366
f 336 366 365
f 337 365 367
f 338 367 339
f 339 368 340
f 339 367 369
f 339 369 370
f 339 370 368
f 341 371 342
f 342 371 372
f 343 373 344
f 344 373 345
f 345 373 374
f 345 374 375
f 345 375 376
f 345 376 346
f 346 376 347
f 347 376 377
f 347 377 348
f 348 377 378
f 348 378 349
f 349 378 352
f 350 379 380
f 350 380 381
f 350 381 351
f 350 352 379
f 351 381 353
f 352 378 379
f 353 381 382
f 353 382 354
f 354 382 383
f 354 383 384
f 354 384 385
f 354 385 355
f 355 385 384
f 355 384 356
f 356 384 357
f 357 384 386
f 357 386 358
f 358 386 387
f 358 387 361
f 360 362 363
f 361 387 388
f 361 388 389
f 361 389 362
f 362 389 390
f 362 390 363
f 363 390 391
f 363 391 364
f 364 391 366
f 365 366 395
f 365 395 392
f 365 392 367
f 366 391 393
f 366 393 394
f 366 394 395
f 367 392 396
f 367 396 369
f 369 396 370
f 370 396 397
f 371 398 372
f 372 398 399
f 372 399 428
f 372 428 462
f 372 462 498
f 372 498 535
f 372 535 572
f 372 572 576
f 372 576 619
f 372 619 667
f 372 667 718
f 372 718 717
f 372 717 770
f 372 770 772
f 372 772 805
f 372 805 804
f 372 804 815
f 372 815 806
f 372 806 810
f 372 810 777
f 372 777 727
f 372 727 726
f 372 726 725
f 372 725 669
f 372 669 622
f 372 622 579
f 372 579 578
f 372 578 540
f 372 540 502
f 372 502 499
f 372 499 463
f 372 463 429
f 372 429 400
f 374 401 375
f 375 401 402
f 375 402 403
f 375 403 404
f 375 404 376
f 376 404 377
f 377 404 405
f 377 405 378
f 378 405 379
f 379 405 406
f 379 406 380
f 380 406 407
f 380 407 381
f 381 407 382
f 382 407 383
f 383 407 408
f 383 408 409
f 383 409 384
f 384 409 410
f 384 410 386
f 386 410 411
f 386 411 412
f 386 412 387
f 387 412 413
f 387 413 414
f 387 414 388
f 388 414 415
f 388 415 416
f 388 416 389
f 389 416 417
f 389 417 390
f 390 417 418
f 390 418 419
f 390 419 420
f 390 420 391
f 391 420 421
f 391 421 393
f 392 395 422
f 392 422 396
f 393 421 424
f 393 424 394
f 394 423 422
f 394 422 395
f 394 424 460
f 394 460 423
f 396 425 397
f 396 422 426
f 396 426 425
f 398 427 399
f 399 427 428
f 400 429 430
f 400 430 431
f 400 431 432
f 402 433 434
f 402 434 403
f 403 434 435
f 403 435 436
f 403 436 404
f 404 436 406
f 404 406 405
f 406 436 437
f 406 437 407
f 407 437 408
f 408 437 438
f 408 438 439
f 408 439 440
f 408 440 409
f 409 440 441
f 409 441 442
f 409 442 410
f 410 442 443
f 410 443 411
f 411 443 444
f 411 444 445
f 411 445 412
f 412 445 413
f 413 445 446
f 413 446 447
f 413 447 414
f 414 447 415
f 415 447 448
f 415 448 449
f 415 449 450
f 415 450 416
f 416 450 451
f 416 451 417
f 417 451 418
f 418 451 452
f 418 452 453
f 418 453 454
f 418 454 419
f 419 454 420
f 420 454 455
f 420 455 421
f 421 455 456
f 421 456 457
f 421 457 424
f 422 423 459
f 422 459 458
f 422 458 426
f 423 460 494
f 423 494 459
f 424 457 461
f 424 461 460
f 429 463 464
f 429 464 430
f 430 464 465
f 430 465 431
f 431 466 467
f 431 467 468
f 431 468 469
f 431 469 432
f 431 465 466
f 433 470 434
f 434 470 471
f 434 471 435
f 435 471 472
f 435 472 436
f 436 472 473
f 436 473 437
f 437 474 438
f 437 473 474
f 438 475 439
f 438 474 475
f 439 475 476
f 439 476 477
f 439 477 440
f 440 477 441
f 441 478 479
f 441 479 442
f 441 477 478
f 442 479 443
f 443 479 480
f 443 480 444
f 444 481 482
f 444 482 445
f 444 480 481
f 445 482 446
f 446 483 484
f 446 484 447
f 446 482 483
f 447 484 448
f 448 484 449
f 449 485 450
f 449 484 486
f 449 486 487
f 449 487 488
f 449 488 485
f 450 485 451
f 451 485 452
f 452 485 489
f 452 489 453
f 453 455 454
f 453 489 490
f 453 490 491
f 453 491 455
f 455 491 492
f 455 492 456
f 456 492 493
f 456 493 457
f 457 493 496
f 457 496 461
f 460 461 495
f 460 495 494
f 461 496 531
f 461 531 495
f 462 497 498
f 463 499 464
f 464 500 501
f 464 501 465
f 464 499 502
f 464 502 500
f 465 501 503
f 465 503 466
f 466 503 504
f 466 504 505
f 466 505 467
f 467 505 506
f 470 507 471
f 471 507 508
f 471 508 509
f 471 509 472
f 472 509 510
f 472 510 473
f 473 510 474
f 474 510 511
f 474 511 475
f 475 511 512
f 475 512 476
f 476 513 477
f 476 512 513
f 477 513 478
f 478 513 514
f 478 514 479
f 479 514 480
f 480 514 481
f 481 514 515
f 481 515 516
f 481 516 517
f 481 517 483
f 481 483 482
f 483 517 518
f 483 518 519
f 483 519 486
f 483 486 484
f 485 488 520
f 485 520 489
f 486 519 521
f 486 521 487
f 487 521 522
f 487 522 523
f 487 523 488
f 488 523 524
f 488 524 520
f 489 520 525
f 489 525 526
f 489 526 490
f 490 527 491
f 490 526 528
f 490 528 527
f 491 527 492
f 492 527 529
f 492 529 493
f 493 529 530
f 493 530 496
f 496 530 532
f 496 532 533
f 496 533 531
f 497 534 498
f 498 534 536
f 498 536 535
f 500 537 538
f 500 538 539
f 500 539 501
f 500 502 540
f 500 540 537
f 501 539 503
f 503 539 541
f 503 541 504
f 504 541 542
f 504 542 543
f 504 543 505
f 505 543 544
f 505 544 506
f 506 544 545
f 508 546 509
f 508 547 546
f 509 546 510
f 510 546 511
f 511 546 512
f 512 546 548
f 512 548 549
f 512 549 513
f 513 549 550
f 513 550 514
f 514 550 515
f 515 550 551
f 515 551 552
f 515 552 516
f 516 552 553
f 516 553 517
f 517 553 518
f 518 553 554
f 518 554 555
f 518 555 519
f 519 555 521
f 520 524 525
f 521 555 556
f 521 556 522
f 522 556 557
f 522 557 558
f 522 558 523
f 523 558 559
f 523 559 524
f 524 559 560
f 524 560 561
f 524 561 525
f 525 561 562
f 525 562 526
f 526 562 563
f 526 563 528
f 527 528 564
f 527 564 565
f 527 565 529
f 528 563 566
f 528 566 564
f 529 565 567
f 529 567 530
f 530 567 569
f 530 569 532
f 532 568 533
f 532 569 570
f 532 570 568
f 534 571 536
f 535 536 572
f 536 571 573
f 536 573 574
f 536 574 575
f 536 575 576
f 536 576 572
f 537 577 538
f 537 540 578
f 537 578 579
f 537 579 577
f 538 577 580
f 538 580 539
f 539 580 581
f 539 581 541
f 541 582 583
f 541 583 542
f 541 581 582
f 542 583 584
f 542 584 543
f 543 584 585
f 543 585 544
f 544 586 545
f 544 585 586
f 546 547 587
f 546 587 588
f 546 588 548
f 548 588 589
f 548 589 590
f 548 590 549
f 549 590 591
f 549 591 592
f 549 592 550
f 550 592 593
f 550 593 551
f 551 593 594
f 551 594 552
f 552 594 595
f 552 595 596
f 552 596 553
f 553 596 597
f 553 597 554
f 554 597 598
f 554 598 555
f 555 598 556
f 556 598 557
f 557 598 599
f 557 599 600
f 557 600 601
f 557 601 558
f 558 601 602
f 558 602 603
f 558 603 559
f 559 603 560
f 560 604 562
f 560 562 561
f 560 603 605
f 560 605 606
f 560 606 604
f 562 604 563
f 563 604 607
f 563 607 566
f 564 566 608
f 564 608 565
f 565 608 609
f 565 609 567
f 566 607 610
f 566 610 608
f 567 609 611
f 567 611 569
f 569 612 570
f 569 611 613
f 569 613 656
f 569 656 612
f 571 614 573
f 573 614 615
f 573 615 574
f 574 616 575
f 574 615 617
f 574 617 616
f 575 618 619
f 575 619 576
f 575 616 618
f 577 620 621
f 577 621 580
f 577 579 620
f 579 622 620
f 580 623 624
f 580 624 581
f 580 621 623
f 581 624 625
f 581 625 582
f 582 625 583
f 583 625 626
f 583 626 627
f 583 627 584
f 584 627 628
f 584 628 585
f 585 629 586
f 585 628 630
f 585 630 629
f 588 631 589
f 589 631 632
f 589 632 590
f 590 632 591
f 591 632 633
f 591 633 634
f 591 634 592
f 592 634 593
f 593 634 635
f 593 635 594
f 594 636 595
f 594 635 636
f 595 636 637
f 595 637 638
f 595 638 596
f 596 638 597
f 597 638 639
f 597 639 640
f 597 640 598
f 598 640 641
f 598 641 599
f 599 641 642
f 599 642 600
f 600 642 643
f 600 643 644
f 600 644 601
f 601 644 645
f 601 645 602
f 602 645 646
f 602 646 603
f 603 646 605
f 604 606 647
f 604 647 607
f 605 648 649
f 605 649 606
f 605 646 648
f 606 649 650
f 606 650 647
f 607 647 651
f 607 651 652
f 607 652 610
f 608 610 653
f 608 653 609
f 609 653 654
f 609 654 611
f 610 652 655
f 610 655 653
f 611 654 657
f 611 657 613
f 613 657 709
f 613 709 656
f 614 658 615
f 615 659 660
f 615 660 661
f 615 661 665
f 615 665 617
f 615 658 659
f 616 662 663
f 616 663 618
f 616 617 664
f 616 664 662
f 617 665 666
f 617 666 664
f 618 663 619
f 619 663 667
f 620 668 621
f 620 622 669
f 620 669 670
f 620 670 668
f 621 668 671
f 621 671 623
f 623 671 672
f 623 672 624
f 624 672 673
f 624 673 674
f 624 674 625
f 625 674 675
f 625 675 626
f 626 675 676
f 626 676 677
f 626 677 678
f 626 678 627
f 627 679 628
f 627 678 679
f 628 679 680
f 628 680 630
f 629 630 681
f 630 682 681
f 630 680 683
f 630 683 682
f 631 684 632
f 632 685 686
f 632 686 633
f 632 684 685
f 633 686 687
f 633 687 634
f 634 687 635
f 635 687 636
f 636 688 689
f 636 689 637
f 636 687 688
f 637 689 690
f 637 690 691
f 637 691 638
f 638 691 639
f 639 691 692
f 639 692 693
f 639 693 640
f 640 693 641
f 641 693 694
f 641 694 642
f 642 695 643
f 642 694 695
f 643 695 696
f 643 696 697
f 643 697 644
f 644 698 645
f 644 697 698
f 645 698 699
f 645 699 646
f 646 699 648
f 647 650 700
f 647 700 651
f 648 699 701
f 648 701 702
f 648 702 703
f 648 703 649
f 649 703 650
f 650 703 704
f 650 704 700
f 651 700 705
f 651 705 652
f 652 705 706
f 652 706 655
f 653 655 654
f 654 655 707
f 654 707 657
f 655 706 708
f 655 708 707
f 657 707 710
f 657 710 711
f 657 711 709
f 660 712 661
f 661 712 713
f 661 713 714
f 661 714 665
f 662 715 663
f 662 664 716
f 662 716 715
f 663 717 718
f 663 718 667
f 663 715 719
f 663 719 717
f 664 666 720
f 664 720 716
f 665 714 721
f 665 721 666
f 666 721 722
f 666 722 720
f 668 670 723
f 668 723 724
f 668 724 671
f 669 725 670
f 670 725 726
f 670 726 727
f 670 727 728
f 670 728 723
f 671 724 729
f 671 729 672
f 672 729 673
f 673 729 730
f 673 730 731
f 673 731 732
f 673 732 674
f 674 732 675
f 675 732 733
f 675 733 676
f 676 733 696
f 676 696 677
f 677 734 678
f 677 696 695
f 677 695 735
f 677 735 734
f 678 734 679
f 679 734 736
f 679 736 680
f 680 736 737
f 680 737 683
f 682 683 738
f 683 737 739
f 683 739 740
f 683 740 738
f 686 741 687
f 687 741 742
f 687 742 743
f 687 743 688
f 688 743 744
f 688 744 689
f 689 744 745
f 689 745 690
f 690 746 691
f 690 745 746
f 691 746 747
f 691 747 692
f 692 748 749
f 692 749 693
f 692 747 748
f 693 749 694
f 694 749 735
f 694 735 695
f 696 733 697
f 697 733 750
f 697 750 698
f 698 750 751
f 698 751 699
f 699 751 701
f 700 704 752
f 700 752 705
f 701 751 753
f 701 753 754
f 701 754 702
f 702 754 755
f 702 755 703
f 703 755 756
f 703 756 704
f 704 756 757
f 704 757 752
f 705 752 758
f 705 758 706
f 706 758 759
f 706 759 708
f 707 708 760
f 707 760 710
f 708 759 766
f 708 766 760
f 710 760 761
f 710 761 762
f 710 762 711
f 713 763 714
f 714 763 764
f 714 764 765
f 714 765 766
f 714 766 721
f 715 767 771
f 715 771 719
f 715 716 768
f 715 768 767
f 716 720 769
f 716 769 768
f 717 719 770
f 719 771 772
f 719 772 770
f 720 722 773
f 720 773 769
f 721 766 759
f 721 759 722
f 722 759 758
f 722 758 773
f 723 774 775
f 723 775 724
f 723 728 774
f 724 775 809
f 724 809 776
f 724 776 729
f 727 777 728
f 728 777 778
f 728 778 774
f 729 776 730
f 730 776 779
f 730 779 753
f 730 753 731
f 731 753 751
f 731 751 750
f 731 750 732
f 732 750 733
f 734 735 780
f 734 780 736
f 735 749 780
f 736 780 781
f 736 781 737
f 737 781 782
f 737 782 783
f 737 783 739
f 739 783 784
f 742 785 743
f 743 785 786
f 743 786 744
f 744 787 788
f 744 788 745
f 744 786 789
f 744 789 787
f 745 788 790
f 745 790 791
f 745 791 783
f 745 783 746
f 746 783 747
f 747 783 792
f 747 792 748
f 748 792 781
f 748 781 780
f 748 780 749
f 752 757 793
f 752 793 758
f 753 779 754
f 754 779 794
f 754 794 755
f 755 794 795
f 755 795 756
f 756 795 796
f 756 796 757
f 757 796 797
f 757 797 793
f 758 793 773
f 760 766 765
f 760 765 761
f 761 798 762
f 761 765 798
f 764 799 765
f 765 799 800
f 765 800 798
f 767 801 802
f 767 802 771
f 767 768 803
f 767 803 801
f 768 769 797
f 768 797 803
f 769 773 793
f 769 793 797
f 771 802 804
f 771 804 805
f 771 805 772
f 774 778 806
f 774 806 807
f 774 807 808
f 774 808 775
f 775 808 809
f 776 809 779
f 777 810 778
f 778 810 806
f 779 809 794
f 781 792 782
f 782 792 783
f 783 791 811
f 783 811 784
f 794 809 812
f 794 812 795
f 795 812 813
f 795 813 796
f 796 813 803
f 796 803 797
f 801 814 802
f 801 803 813
f 801 813 814
f 802 814 807
f 802 807 806
f 802 806 815
f 802 815 804
f 807 814 808
f 808 812 809
f 808 814 812
f 812 814 813
