v -0.00122470 -0.39291668 -0.47919032
v -0.00122470 -0.21139091 -0.47919032
v 0.01007744 -0.39302355 -0.47919032
v 0.01007744 -0.43580464 -0.45808631
v -0.00122470 -0.43576902 -0.45803931
v -0.12533087 -0.44666910 -0.43270510
v -0.15018107 -0.43502098 -0.43270510
v -0.30688953 -0.36071509 -0.43270510
v -0.30688953 -0.18937699 -0.43270510
v 0.43311065 -0.09897032 -0.47919032
v 0.03007353 -0.39220425 -0.47919032
v 0.03007353 -0.43498534 -0.45766330
v 0.03007353 -0.44916260 -0.44769883
v 0.01007744 -0.44937631 -0.44807482
v -0.00122470 -0.44937631 -0.44807482
v -0.08997546 -0.45543194 -0.43270510
v -0.09453978 -0.45447016 -0.43270510
v -0.10997155 -0.45087242 -0.43270510
v -0.12750435 -0.44962567 -0.42917991
v -0.14996372 -0.44681159 -0.42560774
v -0.30239767 -0.44246581 -0.34213173
v -0.30688953 -0.44795147 -0.33094522
v -0.16655469 -0.44349882 -0.42255259
v -0.17988540 -0.43993670 -0.41992047
v -0.20995198 -0.44360569 -0.40290564
v -0.22052963 -0.44043541 -0.40027353
v -0.22828175 -0.44652662 -0.38988602
v -0.24516250 -0.44389066 -0.38316470
v -0.26994026 -0.44513738 -0.36492783
v -0.28109747 -0.44114780 -0.36088565
v -0.28863227 -0.44606355 -0.34922910
v -0.30688953 -0.24797392 0.00098470
v 0.43325555 -0.22624496 0.00098470
v 0.43325555 -0.09911281 -0.47890830
v 0.43325555 -0.09943339 -0.47919032
v 0.05014206 -0.39045882 -0.47919032
v 0.06100951 -0.38906959 -0.47919032
v 0.07006571 -0.38782284 -0.47919032
v 0.10955074 -0.38237280 -0.47919032
v 0.05014206 -0.43313304 -0.45686424
v 0.05014206 -0.44852141 -0.44689977
v 0.03007353 -0.45917216 -0.43754631
v 0.01007744 -0.45935026 -0.43806335
v -0.06997937 -0.45799667 -0.43270510
v -0.00122470 -0.45372212 -0.44370362
v -0.12098388 -0.46009833 -0.42020249
v -0.10997155 -0.45222601 -0.43129504
v -0.13431461 -0.45895845 -0.41714734
v -0.14996372 -0.45682114 -0.41413921
v -0.17894356 -0.45981336 -0.39928651
v -0.30688953 -0.44980377 -0.32854810
v -0.28993636 -0.45671430 -0.33451739
v -0.18995591 -0.44816521 -0.40765288
v -0.21169077 -0.45482635 -0.38941601
v -0.21951534 -0.45988458 -0.37959254
v -0.22994809 -0.45785418 -0.37611437
v -0.25088602 -0.45144236 -0.37042710
v -0.25660956 -0.45902967 -0.35721946
v -0.27146173 -0.45600188 -0.35035715
v -0.30688953 -0.43238500 0.00098470
v 0.43325555 -0.46098885 0.00098470
v 0.43325555 -0.30856562 -0.47919032
v 0.23083137 -0.36092883 -0.47919032
v 0.07006571 -0.44738153 -0.44563073
v 0.24988560 -0.35743794 -0.47919032
v 0.27002659 -0.35355523 -0.47919032
v 0.05014206 -0.45849535 -0.43646526
v 0.03007353 -0.46187937 -0.42758185
v 0.08998935 -0.46148753 -0.42358667
v 0.07006571 -0.46173689 -0.42513773
v 0.05014206 -0.46184376 -0.42650080
v 0.01007744 -0.46184376 -0.42805189
v -0.00129715 -0.46070388 -0.43270510
v -0.00535432 -0.46070388 -0.43270510
v -0.00122470 -0.45935026 -0.43801636
v -0.08997546 -0.46130943 -0.42311662
v -0.10997155 -0.46063262 -0.42128354
v -0.04998328 -0.45952839 -0.43270510
v -0.14996372 -0.46130943 -0.40412772
v -0.16561283 -0.46070388 -0.40168360
v -0.20611216 -0.46084636 -0.38241267
v -0.18995591 -0.45817477 -0.39627835
v -0.30688953 -0.45813915 -0.31689155
v -0.27906889 -0.45977771 -0.33912361
v -0.30015177 -0.46006268 -0.32018170
v -0.24335127 -0.46070388 -0.36187270
v -0.30688953 -0.46016955 -0.25644663
v 0.40992677 -0.46184376 0.00098470
v 0.42941570 -0.46173689 0.00098470
v 0.43325555 -0.46098885 -0.01006083
v 0.42325747 -0.44438934 -0.17000949
v 0.40920228 -0.44994625 -0.18852839
v 0.39659607 -0.45849535 -0.19492069
v 0.39275622 -0.45507571 -0.21000841
v 0.38036734 -0.46016955 -0.22081894
v 0.37551320 -0.45764044 -0.23416758
v 0.35740083 -0.45913655 -0.25701067
v 0.33921599 -0.45981336 -0.27919573
v 0.32030660 -0.46013394 -0.30044076
v 0.30060035 -0.46020517 -0.32069874
v 0.28016955 -0.46006268 -0.34020466
v 0.25792754 -0.45945713 -0.35834754
v 0.23416404 -0.45788980 -0.37597337
v 0.22076087 -0.46020517 -0.38039160
v 0.43108207 -0.30938491 -0.47919032
v 0.43325555 -0.31269768 -0.46903783
v 0.07006571 -0.45742673 -0.43510222
v 0.28995025 -0.34945878 -0.47919032
v 0.08998935 -0.44560048 -0.44398564
v 0.08998935 -0.45561004 -0.43359813
v 0.10998543 -0.46091759 -0.42189458
v -0.00999110 -0.46184376 -0.42795786
v -0.00129715 -0.46184376 -0.42800486
v 0.08998935 -0.46287677 -0.40995601
v 0.10998543 -0.46255618 -0.40995601
v -0.00999110 -0.46066827 -0.43270510
v -0.02998719 -0.46184376 -0.42729983
v -0.02998719 -0.46034765 -0.43270510
v -0.06997937 -0.46163002 -0.42462069
v -0.08997546 -0.46269867 -0.40995601
v -0.10997155 -0.46219996 -0.40995601
v -0.18995591 -0.46145192 -0.38626689
v -0.22994809 -0.46134505 -0.36610290
v -0.30688953 -0.46063262 -0.31002921
v -0.26573819 -0.46098885 -0.34387082
v -0.28993636 -0.46084636 -0.32450590
v -0.24994417 -0.46166563 -0.35035715
v -0.30688953 -0.46145192 -0.26923126
v -0.30688953 -0.46212873 -0.28977123
v 0.40992677 -0.46248493 -0.07003571
v 0.40992677 -0.46262741 -0.09005867
v 0.42847389 -0.46177250 -0.03003679
v 0.42927080 -0.46173689 -0.01006083
v 0.43325555 -0.46073949 -0.03003679
v 0.42680752 -0.44805834 -0.15003353
v 0.41239005 -0.45439893 -0.17000949
v 0.40058076 -0.46031204 -0.18161905
v 0.38275820 -0.46091759 -0.21000841
v 0.36928254 -0.46130943 -0.22852731
v 0.36225492 -0.46077511 -0.24366203
v 0.34407008 -0.46102446 -0.26584709
v 0.32472605 -0.46091759 -0.29000625
v 0.30835244 -0.46091759 -0.30824313
v 0.28806657 -0.46088198 -0.32840711
v 0.27517051 -0.46049014 -0.34199074
v 0.24459679 -0.46088198 -0.36262473
v 0.22844052 -0.46134505 -0.36953408
v 0.20996588 -0.46091759 -0.38264769
v 0.18069625 -0.46009833 -0.40022653
v 0.19402698 -0.45821038 -0.39641935
v 0.41159314 -0.31647354 -0.47919032
v 0.43325555 -0.31725720 -0.45752227
v 0.12288146 -0.46034765 -0.42062551
v 0.30900449 -0.34532672 -0.47919032
v 0.32545054 -0.34158650 -0.47919032
v 0.33624554 -0.33891490 -0.47919032
v 0.10998543 -0.44289327 -0.44191754
v 0.10998543 -0.45286721 -0.43190604
v 0.15005007 -0.46155879 -0.40520877
v -0.06997937 -0.46276990 -0.40995601
v 0.20996588 -0.46248493 -0.37000409
v 0.22988953 -0.46273428 -0.34998113
v 0.34986603 -0.46269867 -0.23003137
v -0.22994809 -0.46262741 -0.34998113
v 0.16997370 -0.46230683 -0.38998005
v -0.04998328 -0.46177250 -0.42612478
v -0.14996372 -0.46237808 -0.38998005
v -0.21169077 -0.46170127 -0.37174317
v -0.30688953 -0.46081072 -0.30824313
v -0.27146173 -0.46177250 -0.33146223
v -0.28993636 -0.46223557 -0.30998221
v 0.36986214 -0.46248493 -0.21000841
v 0.38993067 -0.46237808 -0.17000949
v 0.40992677 -0.46244931 -0.11003463
v 0.42716980 -0.46177250 -0.05005975
v 0.43325555 -0.46006268 -0.05005975
v 0.42550343 -0.46163002 -0.07003571
v 0.42383713 -0.46145192 -0.09005867
v 0.43325555 -0.44766650 -0.12813050
v 0.43325555 -0.44859266 -0.12488733
v 0.41847581 -0.45956400 -0.13729593
v 0.41579521 -0.45806789 -0.15003353
v 0.42072177 -0.46045452 -0.12394729
v 0.40239203 -0.46095324 -0.17000949
v 0.38993067 -0.46145192 -0.18899840
v 0.35037321 -0.46177250 -0.25019535
v 0.32704443 -0.46127382 -0.28356695
v 0.30994633 -0.46241370 -0.29000625
v 0.28995025 -0.46255618 -0.30998221
v 0.27517051 -0.46202186 -0.32953516
v 0.27517051 -0.46088198 -0.33945262
v 0.26988170 -0.46088198 -0.34391785
v 0.25075501 -0.46187937 -0.35101518
v 0.18844835 -0.46134505 -0.38983905
v 0.16997370 -0.46077511 -0.40187162
v 0.13621220 -0.45931464 -0.41794640
v 0.15005007 -0.45749795 -0.41522026
v 0.40079814 -0.32017815 -0.47919032
v 0.12911212 -0.45008874 -0.42964995
v 0.35080791 -0.33492532 -0.47919032
v 0.15005007 -0.44752401 -0.42631280
v 0.36066103 -0.33214688 -0.47919032
v 0.37036932 -0.32936841 -0.47919032
v 0.26988170 -0.46248493 -0.33000517
v 0.40579712 -0.46155879 -0.15003353
v 0.42209828 -0.46098885 -0.11003463
v 0.43325555 -0.45878032 -0.07003571
v 0.43325555 -0.45251098 -0.11003463
v 0.43209636 -0.45357963 -0.11003463
v 0.43325555 -0.45518258 -0.09762603
v 0.43325555 -0.45650056 -0.09005867
v 0.38993067 -0.32352653 -0.47919032
v 0.43325555 -0.45290282 -0.10829554
f 1 2 10
f 1 10 35
f 1 35 62
f 1 62 105
f 1 105 151
f 1 151 198
f 1 198 212
f 1 212 203
f 1 203 202
f 1 202 200
f 1 200 156
f 1 156 155
f 1 155 154
f 1 154 108
f 1 108 66
f 1 66 65
f 1 65 63
f 1 63 39
f 1 39 38
f 1 38 37
f 1 37 36
f 1 36 11
f 1 11 3
f 1 3 4
f 1 4 5
f 1 5 6
f 1 6 7
f 1 7 8
f 1 8 9
f 1 9 2
f 2 9 10
f 3 11 4
f 4 11 12
f 4 12 13
f 4 13 14
f 4 14 15
f 4 15 5
f 5 15 16
f 5 16 17
f 5 17 18
f 5 18 6
f 6 18 19
f 6 19 20
f 6 20 7
f 7 20 8
f 8 21 22
f 8 22 51
f 8 51 83
f 8 83 124
f 8 124 169
f 8 169 129
f 8 129 128
f 8 128 87
f 8 87 60
f 8 60 32
f 8 32 9
f 8 20 23
f 8 23 24
f 8 24 25
f 8 25 26
f 8 26 27
f 8 27 28
f 8 28 29
f 8 29 30
f 8 30 31
f 8 31 21
f 9 32 10
f 10 33 34
f 10 34 35
f 10 32 33
f 11 36 12
f 12 36 37
f 12 37 38
f 12 38 39
f 12 39 40
f 12 40 41
f 12 41 13
f 13 42 43
f 13 43 14
f 13 41 42
f 14 43 15
f 15 44 16
f 15 43 45
f 15 45 44
f 16 44 46
f 16 46 17
f 17 46 47
f 17 47 18
f 18 47 46
f 18 46 19
f 19 46 20
f 20 46 48
f 20 48 49
f 20 49 50
f 20 50 23
f 21 51 22
f 21 31 52
f 21 52 51
f 23 50 53
f 23 53 24
f 24 53 25
f 25 53 54
f 25 54 55
f 25 55 27
f 25 27 26
f 27 55 56
f 27 56 28
f 28 57 29
f 28 56 57
f 29 57 58
f 29 58 59
f 29 59 31
f 29 31 30
f 31 59 52
f 32 60 88
f 32 88 89
f 32 89 61
f 32 61 33
f 33 61 90
f 33 90 134
f 33 134 176
f 33 176 207
f 33 207 211
f 33 211 210
f 33 210 213
f 33 213 208
f 33 208 180
f 33 180 179
f 33 179 152
f 33 152 106
f 33 106 62
f 33 62 35
f 33 35 34
f 39 63 40
f 40 64 41
f 40 63 65
f 40 65 66
f 40 66 64
f 41 64 67
f 41 67 42
f 42 68 43
f 42 67 69
f 42 69 70
f 42 70 71
f 42 71 68
f 43 68 72
f 43 72 73
f 43 73 74
f 43 74 75
f 43 75 45
f 44 76 77
f 44 77 46
f 44 45 75
f 44 75 78
f 44 78 76
f 46 79 80
f 46 80 50
f 46 50 48
f 46 77 79
f 48 50 49
f 50 80 81
f 50 81 55
f 50 55 82
f 50 82 53
f 51 52 83
f 52 59 84
f 52 84 85
f 52 85 83
f 53 82 54
f 54 82 55
f 55 86 58
f 55 58 56
f 55 81 86
f 56 58 57
f 58 84 59
f 58 86 84
f 60 87 88
f 61 89 90
f 62 91 92
f 62 92 93
f 62 93 94
f 62 94 95
f 62 95 96
f 62 96 97
f 62 97 98
f 62 98 99
f 62 99 100
f 62 100 101
f 62 101 102
f 62 102 103
f 62 103 104
f 62 104 105
f 62 106 91
f 64 107 67
f 64 66 108
f 64 108 109
f 64 109 110
f 64 110 107
f 67 107 111
f 67 111 69
f 68 112 113
f 68 113 72
f 68 71 114
f 68 114 112
f 69 111 115
f 69 115 70
f 70 115 114
f 70 114 71
f 72 113 74
f 72 74 73
f 74 113 112
f 74 112 116
f 74 116 75
f 75 116 117
f 75 117 118
f 75 118 78
f 76 78 119
f 76 119 120
f 76 120 121
f 76 121 79
f 76 79 77
f 78 118 119
f 79 122 80
f 79 121 122
f 80 122 81
f 81 122 123
f 81 123 86
f 83 85 124
f 84 86 125
f 84 125 85
f 85 125 126
f 85 126 124
f 86 123 127
f 86 127 125
f 87 128 88
f 88 128 129
f 88 129 130
f 88 130 89
f 89 130 131
f 89 131 132
f 89 132 133
f 89 133 90
f 90 133 132
f 90 132 134
f 91 106 135
f 91 135 136
f 91 136 92
f 92 136 137
f 92 137 93
f 93 137 95
f 93 95 94
f 95 137 138
f 95 138 139
f 95 139 140
f 95 140 97
f 95 97 96
f 97 140 98
f 98 141 99
f 98 140 141
f 99 141 142
f 99 142 143
f 99 143 100
f 100 143 144
f 100 144 101
f 101 144 145
f 101 145 146
f 101 146 102
f 102 146 104
f 102 104 103
f 104 146 147
f 104 147 148
f 104 148 149
f 104 149 150
f 104 150 105
f 105 150 151
f 106 152 135
f 107 110 153
f 107 153 111
f 108 154 109
f 109 154 155
f 109 155 156
f 109 156 157
f 109 157 158
f 109 158 110
f 110 158 153
f 111 153 159
f 111 159 115
f 112 114 160
f 112 160 117
f 112 117 116
f 114 115 161
f 114 161 162
f 114 162 163
f 114 163 131
f 114 131 164
f 114 164 160
f 115 159 165
f 115 165 161
f 117 160 120
f 117 120 166
f 117 166 118
f 118 166 119
f 119 166 120
f 120 160 164
f 120 164 167
f 120 167 121
f 121 167 122
f 122 164 168
f 122 168 123
f 122 167 164
f 123 164 127
f 123 168 164
f 124 126 169
f 125 127 170
f 125 170 126
f 126 170 171
f 126 171 169
f 127 171 170
f 127 164 171
f 129 169 171
f 129 171 164
f 129 164 131
f 129 131 130
f 131 163 172
f 131 172 173
f 131 173 174
f 131 174 175
f 131 175 132
f 132 175 134
f 134 175 177
f 134 177 178
f 134 178 176
f 135 152 179
f 135 179 180
f 135 180 181
f 135 181 182
f 135 182 136
f 136 182 137
f 137 182 181
f 137 181 183
f 137 183 184
f 137 184 185
f 137 185 138
f 138 185 172
f 138 172 139
f 139 172 186
f 139 186 140
f 140 186 141
f 141 186 187
f 141 187 142
f 142 187 143
f 143 187 188
f 143 188 189
f 143 189 144
f 144 189 190
f 144 190 191
f 144 191 145
f 145 191 192
f 145 192 146
f 146 192 193
f 146 193 147
f 147 161 148
f 147 193 161
f 148 161 194
f 148 194 195
f 148 195 149
f 149 195 153
f 149 153 196
f 149 196 197
f 149 197 198
f 149 198 151
f 149 151 150
f 153 158 199
f 153 199 196
f 153 195 159
f 156 200 157
f 157 201 199
f 157 199 158
f 157 200 202
f 157 202 203
f 157 203 201
f 159 195 194
f 159 194 165
f 161 193 204
f 161 204 162
f 161 165 194
f 162 204 189
f 162 189 163
f 163 189 188
f 163 188 172
f 172 185 173
f 172 188 186
f 173 185 205
f 173 205 174
f 174 205 206
f 174 206 178
f 174 178 177
f 174 177 175
f 176 178 206
f 176 206 207
f 180 208 181
f 181 208 209
f 181 209 183
f 183 206 205
f 183 205 184
f 183 209 210
f 183 210 211
f 183 211 207
f 183 207 206
f 184 205 185
f 186 188 187
f 189 204 190
f 190 204 191
f 191 204 192
f 192 204 193
f 196 199 201
f 196 201 197
f 197 201 198
f 198 201 212
f 201 203 212
f 208 213 209
f 209 213 210
