v -0.46584240 0.05215430 -0.57971698
v -0.34912485 -0.17377332 -0.43273270
v -0.34912485 -0.05681097 -0.57971698
v -0.73268569 0.05215430 -0.57971698
v -0.60387933 0.05215430 -0.43273270
v -0.34912485 -0.35026082 -0.43273270
v -0.34912485 -0.29042053 -0.57971698
v -0.72710985 0.04100566 -0.57971698
v -0.73282623 0.05215430 -0.57957309
v -0.82775593 0.05215430 -0.43273270
v -0.35015565 -0.34998506 -0.43273270
v -0.36632088 -0.34171221 -0.44532311
v -0.34912485 -0.34443045 -0.45109314
v -0.34912485 -0.29573879 -0.57007629
v -0.35048366 -0.29554182 -0.56957269
v -0.36796081 -0.28380227 -0.57971698
v -0.72382993 0.03470252 -0.57971698
v -0.72968692 0.03056610 -0.56960148
v -0.74069798 0.03856319 -0.56093925
v -0.73573124 0.04998760 -0.57459450
v -0.73629355 0.05215430 -0.57527077
v -0.82410115 0.05215430 -0.43975455
v -0.82569420 0.04734817 -0.43273270
v -0.37142813 -0.34427285 -0.43273270
v -0.35835540 -0.33954549 -0.45866179
v -0.37274009 -0.34391832 -0.43273270
v -0.37962788 -0.33986068 -0.43966821
v -0.34912485 -0.34076673 -0.46228781
v -0.34912485 -0.29680246 -0.56806183
v -0.35746515 -0.29912671 -0.55827725
v -0.37161559 -0.28687501 -0.57173103
v -0.37939364 -0.27974463 -0.57955867
v -0.37887821 -0.27982342 -0.57971698
v -0.71975350 0.02698120 -0.57971698
v -0.71858209 0.02256902 -0.57826370
v -0.72308022 0.00996277 -0.56390339
v -0.73723066 0.02524784 -0.55633473
v -0.74514925 0.03115702 -0.54980212
v -0.75897169 0.04210870 -0.53853548
v -0.75419241 0.04923911 -0.54980212
v -0.74543041 0.05215430 -0.56345731
v -0.74350929 0.04998760 -0.56459409
v -0.74416530 0.05215430 -0.56509769
v -0.82199264 0.05215430 -0.44372594
v -0.81955612 0.04096626 -0.43917900
v -0.81786931 0.03013276 -0.43273270
v -0.37180299 -0.33824551 -0.45119387
v -0.37002248 -0.33221811 -0.47000036
v -0.35104591 -0.33745760 -0.47033131
v -0.39002985 -0.33899397 -0.43273270
v -0.39002985 -0.33832428 -0.43486226
v -0.39002985 -0.33328179 -0.45001394
v -0.34912485 -0.33765459 -0.47122344
v -0.34912485 -0.30050552 -0.56099677
v -0.34912485 -0.30535108 -0.55089569
v -0.37002248 -0.30188435 -0.54390258
v -0.38037759 -0.30011159 -0.54027653
v -0.37002248 -0.29692063 -0.55390298
v -0.39002985 -0.28321135 -0.56581712
v -0.40207177 -0.28084767 -0.56151479
v -0.39002985 -0.27757791 -0.57581753
v -0.39035785 -0.27505666 -0.57971698
v -0.71769184 0.02319932 -0.57971698
v -0.71600503 0.02016595 -0.57971698
v -0.71019495 0.00996277 -0.57971698
v -0.71502107 0.00996277 -0.57390380
v -0.72017521 -0.00039800 -0.56026298
v -0.73362279 0.00949003 -0.54980212
v -0.74219739 0.01579316 -0.54299611
v -0.75794089 0.05215430 -0.54657894
v -0.75587922 0.02997519 -0.53416121
v -0.76281387 0.02997519 -0.52416080
v -0.76731205 0.04923911 -0.53112513
v -0.76131451 0.05215430 -0.54191691
v -0.75475466 0.05215430 -0.55093884
v -0.82030582 0.05215430 -0.44687712
v -0.81655741 0.04856940 -0.45076218
v -0.80254751 0.03450556 -0.46444619
v -0.80713940 0.02871455 -0.45139530
v -0.80310977 0.01370524 -0.44565406
v -0.81627625 0.02678423 -0.43273270
v -0.38604712 -0.32189676 -0.48493621
v -0.37067845 -0.32426041 -0.49096522
v -0.34912485 -0.33083934 -0.48997238
v -0.39162296 -0.32508773 -0.47168389
v -0.39569941 -0.33730000 -0.43273270
v -0.40853786 -0.33332115 -0.43273270
v -0.41003725 -0.32701805 -0.45001394
v -0.34912485 -0.31531787 -0.52895236
v -0.37002248 -0.30826625 -0.52998835
v -0.38824934 -0.30247527 -0.52908188
v -0.40230608 -0.30082071 -0.52181536
v -0.39373147 -0.29766911 -0.53513968
v -0.38824934 -0.29317814 -0.54816175
v -0.40924072 -0.28411740 -0.54987407
v -0.42395341 -0.28167495 -0.54312557
v -0.41542566 -0.27801126 -0.55644983
v -0.40924072 -0.27348089 -0.56891078
v -0.39832333 -0.27166873 -0.57971698
v -0.70490021 0.00074445 -0.57971698
v -0.72139347 -0.02230136 -0.54181617
v -0.72411108 -0.00823751 -0.54909706
v -0.73863631 0.00247779 -0.53811818
v -0.70255744 -0.00327380 -0.57971698
v -0.70878923 -0.00807993 -0.56855106
v -0.70283854 -0.02454685 -0.56351489
v -0.71619248 -0.01371334 -0.55515486
v -0.74945998 0.01098701 -0.52922577
v -0.76018995 0.01953563 -0.52033329
v -0.77298158 0.03052671 -0.50908107
v -0.78113449 0.03757833 -0.50181460
v -0.77752656 0.04998760 -0.51623243
v -0.76482868 0.05215430 -0.53673685
v -0.77804196 0.05215430 -0.51699507
v -0.77063876 0.05215430 -0.52811778
v -0.81711966 0.05215430 -0.45257521
v -0.80826390 0.05215430 -0.46828806
v -0.80582744 0.04975124 -0.47067666
v -0.79865849 0.04289658 -0.47778484
v -0.79612827 0.02871455 -0.47067666
v -0.79940820 0.02119020 -0.45899272
v -0.80681139 0.00724454 -0.43273270
v -0.80746734 0.00858395 -0.43273270
v -0.79978305 0.00038989 -0.43963945
v -0.37780052 -0.31929672 -0.49827486
v -0.39940101 -0.31976944 -0.47946838
v -0.36444664 -0.32130584 -0.50335419
v -0.34931225 -0.32307860 -0.51000196
v -0.34912485 -0.32319677 -0.50980049
v -0.41003725 -0.32173920 -0.46476275
v -0.42976350 -0.32654530 -0.43273270
v -0.42025179 -0.32004523 -0.46023017
v -0.42817041 -0.32166040 -0.44838798
v -0.34912485 -0.31957248 -0.51896632
v -0.35545033 -0.31862700 -0.51667851
v -0.37067845 -0.31665730 -0.51000196
v -0.39002985 -0.31031477 -0.50998759
v -0.40938127 -0.30357832 -0.50980049
v -0.42353171 -0.30133283 -0.50300890
v -0.41561309 -0.29829943 -0.51633316
v -0.40938127 -0.29459634 -0.52908188
v -0.43037263 -0.28529924 -0.53062147
v -0.43730727 -0.27875975 -0.53771532
v -0.43037263 -0.27505666 -0.54987407
v -0.42892009 -0.26422316 -0.56960148
v -0.42015809 -0.26213527 -0.57971698
v -0.40975612 -0.26674443 -0.57971698
v -0.71000749 -0.03006208 -0.55004674
v -0.71722329 -0.03561671 -0.53626198
v -0.72584474 -0.02939238 -0.52975816
v -0.73952663 -0.01926798 -0.51936924
v -0.73573124 -0.01158604 -0.53086609
v -0.74336874 -0.00595263 -0.52477950
v -0.69974607 -0.00788295 -0.57971698
v -0.69730961 -0.01576187 -0.57683915
v -0.69857472 -0.03786220 -0.55827725
v -0.69126523 -0.03199241 -0.57151520
v -0.75667578 0.00618088 -0.51511008
v -0.76356357 0.01169612 -0.50906664
v -0.77790141 0.02426298 -0.49670646
v -0.78516406 0.03052671 -0.49002993
v -0.79439461 0.04975124 -0.48964143
v -0.78586686 0.05215430 -0.50483626
v -0.78399265 0.04998760 -0.50623202
v -0.78469551 0.05215430 -0.50666368
v -0.80072016 0.05215430 -0.48120946
v -0.79711223 0.05215430 -0.48705140
v -0.78207159 0.01583254 -0.48336780
v -0.78652287 0.00949003 -0.47071981
v -0.79711223 0.00822940 -0.45139530
v -0.78268069 -0.00500716 -0.46453252
v -0.79772139 -0.01028603 -0.43273270
v -0.77907282 -0.01832251 -0.45838839
v -0.78282130 -0.02513777 -0.44506413
v -0.79640943 -0.01272848 -0.43273270
v -0.39162296 -0.31772095 -0.49096522
v -0.41003725 -0.31795731 -0.47476315
v -0.41003725 -0.31181175 -0.49000117
v -0.34912485 -0.32299981 -0.51030415
v -0.43276227 -0.32556045 -0.43273270
v -0.44068089 -0.32020280 -0.44064668
v -0.43360567 -0.31772095 -0.45397094
v -0.42817041 -0.31417543 -0.46814418
v -0.43013835 -0.30432680 -0.49034649
v -0.43683872 -0.29873276 -0.49723884
v -0.43013835 -0.29554182 -0.50980049
v -0.44489789 -0.28222647 -0.52437663
v -0.45825177 -0.27915370 -0.51834762
v -0.45094228 -0.27608091 -0.53062147
v -0.45000517 -0.26556259 -0.55024815
v -0.44330481 -0.26162314 -0.56268030
v -0.42517164 -0.25981098 -0.57971698
v -0.42240715 -0.26111099 -0.57971698
v -0.72209626 -0.04329864 -0.52292335
v -0.70386940 -0.04585928 -0.54493862
v -0.69941813 -0.05921403 -0.53925490
v -0.71080405 -0.05125634 -0.53109634
v -0.73624671 -0.03002269 -0.51464963
v -0.74008888 -0.04022587 -0.50018859
v -0.74313450 -0.03002269 -0.50466359
v -0.75742549 -0.01548611 -0.49608773
v -0.75039709 -0.01071936 -0.51056314
v -0.69562280 -0.01442245 -0.57971698
v -0.69234288 -0.01962253 -0.57971698
v -0.67959815 -0.03943798 -0.57952988
v -0.68442428 -0.05003510 -0.56527036
v -0.68067580 -0.06098679 -0.56080973
v -0.69520110 -0.05153210 -0.55096763
v -0.76112705 -0.00213136 -0.50178581
v -0.77466840 0.00949003 -0.49002993
v -0.77869797 0.00251719 -0.47785679
v -0.77569920 -0.01099513 -0.47071981
v -0.76173621 -0.02308924 -0.48274907
v -0.76567209 -0.02986511 -0.46998596
v -0.76197046 -0.04333804 -0.46330944
v -0.77607405 -0.03108634 -0.45103556
v -0.77911967 -0.03845312 -0.43838757
v -0.78666341 -0.03037724 -0.43273270
v -0.44555390 -0.32114828 -0.43273270
v -0.45398790 -0.31772095 -0.43362480
v -0.44841206 -0.31437242 -0.44838798
v -0.45052058 -0.30476016 -0.47057593
v -0.44424194 -0.30168736 -0.48390019
v -0.45754895 -0.29892975 -0.47762656
v -0.45052058 -0.29609334 -0.49034649
v -0.45094228 -0.28604776 -0.51100922
v -0.46523327 -0.28246284 -0.50502336
v -0.47858715 -0.27927187 -0.49860582
v -0.47113711 -0.27651426 -0.51100922
v -0.47052798 -0.26627168 -0.53060710
v -0.46420246 -0.26217467 -0.54374433
v -0.45661181 -0.25819582 -0.55708295
v -0.43487078 -0.25744730 -0.57600462
v -0.45000517 -0.25366545 -0.56960148
v -0.43365252 -0.25551698 -0.57971698
v -0.71769184 -0.05661400 -0.51682240
v -0.72893721 -0.04841993 -0.50849110
v -0.69974607 -0.07969919 -0.51968580
v -0.70438480 -0.06634444 -0.52593064
v -0.68484598 -0.06858993 -0.54895318
v -0.68128496 -0.08170831 -0.54158592
v -0.69627875 -0.07182028 -0.53155679
v -0.73577815 -0.05354122 -0.49391499
v -0.74036998 -0.06059284 -0.48059070
v -0.74304080 -0.04814417 -0.48834643
v -0.75789404 -0.03640460 -0.47663373
v -0.75325531 -0.02986511 -0.48965582
v -0.76496923 -0.00930116 -0.48965582
v -0.67973870 -0.03892585 -0.57971698
v -0.67950445 -0.03928040 -0.57971698
v -0.66610372 -0.05834735 -0.57971698
v -0.67589653 -0.05003510 -0.57525635
v -0.66268325 -0.06311409 -0.57971698
v -0.66868079 -0.06823538 -0.56849349
v -0.66244894 -0.08316591 -0.56282419
v -0.67575598 -0.07430214 -0.55491024
v -0.76571894 -0.04999571 -0.44988444
v -0.75367701 -0.04999571 -0.46998596
v -0.75789404 -0.05665339 -0.45646024
v -0.76178306 -0.06287772 -0.44312158
v -0.77382499 -0.05247757 -0.43273270
v -0.77654260 -0.04790780 -0.43273270
v -0.78530461 -0.03278030 -0.43273270
v -0.45309764 -0.31835127 -0.43273270
v -0.45628384 -0.31713003 -0.43273270
v -0.46865374 -0.31224510 -0.43273270
v -0.47057483 -0.30476016 -0.45051757
v -0.46429616 -0.30180556 -0.46428791
v -0.47765005 -0.29892975 -0.45751065
v -0.47057483 -0.29629031 -0.47057593
v -0.47113711 -0.28640229 -0.49116668
v -0.48542809 -0.28258103 -0.48526716
v -0.49873510 -0.27935067 -0.47872013
v -0.49123818 -0.27671123 -0.49116668
v -0.49076962 -0.26654744 -0.51079333
v -0.48463154 -0.26241103 -0.52436227
v -0.47755632 -0.25862914 -0.53770089
v -0.47052798 -0.25480789 -0.55024815
v -0.48196077 -0.24113798 -0.56168747
v -0.46851319 -0.24389559 -0.56901151
v -0.44114944 -0.25165629 -0.57971698
v -0.45993859 -0.24161071 -0.57971698
v -0.45000517 -0.24692896 -0.57971698
v -0.72247112 -0.06362622 -0.50349808
v -0.71113205 -0.07166270 -0.51158476
v -0.69969922 -0.09963282 -0.49959865
v -0.70452535 -0.08631747 -0.50634712
v -0.71787924 -0.07698096 -0.49700862
v -0.68545508 -0.08903569 -0.52908188
v -0.68137866 -0.10176013 -0.52180099
v -0.69651306 -0.09179331 -0.51180059
v -0.66928989 -0.08911448 -0.54914021
v -0.67613083 -0.09506306 -0.53512526
v -0.72917151 -0.06878690 -0.48879248
v -0.72251797 -0.08359925 -0.48366997
v -0.73587185 -0.07394759 -0.47368395
v -0.74018258 -0.08032950 -0.46034530
v -0.74308765 -0.06835356 -0.46821612
v -0.65973133 -0.06709294 -0.57971698
v -0.65649825 -0.07552337 -0.57616287
v -0.65017277 -0.09021753 -0.57017702
v -0.65715426 -0.09652065 -0.55670887
v -0.75334901 -0.06973238 -0.44988444
v -0.76426637 -0.06803840 -0.43273270
v -0.75751919 -0.07619307 -0.43561050
v -0.76098651 -0.07323848 -0.43273270
v -0.48917654 -0.30385405 -0.43273270
v -0.48392871 -0.30168736 -0.44418639
v -0.49728256 -0.29877216 -0.43693429
v -0.49034792 -0.29613274 -0.45051757
v -0.49123818 -0.28644168 -0.47123781
v -0.50506061 -0.28250223 -0.46538147
v -0.51836765 -0.27911431 -0.45817256
v -0.51105815 -0.27655366 -0.47123781
v -0.51077700 -0.26662624 -0.49072060
v -0.50459206 -0.26252919 -0.50467801
v -0.49798542 -0.25886551 -0.51798791
v -0.49076962 -0.25543818 -0.53060710
v -0.50253040 -0.24153191 -0.54236299
v -0.48917654 -0.24480167 -0.54941362
v -0.49526778 -0.23708034 -0.55570161
v -0.49020737 -0.23010750 -0.57014823
v -0.47418272 -0.23648942 -0.57502615
v -0.46312475 -0.23979856 -0.57971698
v -0.46148482 -0.24074402 -0.57971698
v -0.68522084 -0.10904811 -0.50876451
v -0.68095696 -0.12114224 -0.50129658
v -0.69585705 -0.11141178 -0.49177101
v -0.69913697 -0.11901493 -0.47879207
v -0.70438480 -0.10566019 -0.48627439
v -0.71769184 -0.09691460 -0.47660494
v -0.71113205 -0.09159634 -0.49164152
v -0.66277695 -0.10341470 -0.54337019
v -0.66933674 -0.10924508 -0.52918255
v -0.67589653 -0.11507548 -0.51460648
v -0.72898406 -0.08864175 -0.46847510
v -0.72209626 -0.10282378 -0.46326628
v -0.73619986 -0.09478729 -0.45001394
v -0.73952663 -0.09939645 -0.43922216
v -0.74327505 -0.08478108 -0.45001394
v -0.65453035 -0.07379001 -0.57971698
v -0.64989161 -0.07969919 -0.57971698
v -0.64511234 -0.08568716 -0.57971698
v -0.63766229 -0.09726915 -0.57752985
v -0.64380038 -0.10439956 -0.56420559
v -0.65045387 -0.11054511 -0.55052155
v -0.74786693 -0.09269938 -0.43273270
v -0.75330216 -0.08470229 -0.43273270
v -0.49301872 -0.30219948 -0.43273270
v -0.50506061 -0.29676306 -0.43273270
v -0.50998050 -0.29435998 -0.43273270
v -0.51105815 -0.28608713 -0.45090607
v -0.52413088 -0.28214768 -0.44483387
v -0.53748477 -0.27860218 -0.43689114
v -0.53050327 -0.27584457 -0.45090607
v -0.53055012 -0.26615351 -0.47037446
v -0.52427149 -0.26245040 -0.48451892
v -0.51794595 -0.25878674 -0.49785760
v -0.51077700 -0.25551698 -0.51079333
v -0.50951195 -0.24515621 -0.52947038
v -0.52244413 -0.24153191 -0.52246290
v -0.51583743 -0.23727730 -0.53580153
v -0.51082391 -0.23050144 -0.55073738
v -0.50576347 -0.22376499 -0.56528473
v -0.49845397 -0.21895885 -0.57862341
v -0.47975856 -0.22971356 -0.57971698
v -0.67997301 -0.14005160 -0.48002952
v -0.68404943 -0.12870598 -0.48801547
v -0.66254264 -0.12291498 -0.52322549
v -0.66882133 -0.12870598 -0.50844795
v -0.66174614 -0.14190315 -0.50230384
v -0.67505312 -0.13445759 -0.49335381
v -0.70358825 -0.12433319 -0.46546781
v -0.71694213 -0.11613913 -0.45516524
v -0.71066350 -0.11089966 -0.47103637
v -0.69426399 -0.13059692 -0.47128099
v -0.65710741 -0.11673005 -0.53654981
v -0.72565728 -0.10967842 -0.44909304
v -0.73605925 -0.10896932 -0.43273270
v -0.72111231 -0.12141800 -0.44182658
v -0.63972396 -0.09226604 -0.57971698
v -0.63649088 -0.09616610 -0.57971698
v -0.63349211 -0.09967221 -0.57971698
v -0.63110250 -0.11129360 -0.57122743
v -0.63789654 -0.11771491 -0.55765855
v -0.51237011 -0.29317814 -0.43273270
v -0.52937877 -0.28466892 -0.43273270
v -0.53317404 -0.28265983 -0.43273270
v -0.54498172 -0.27619910 -0.43273270
v -0.55229115 -0.27194449 -0.43273270
v -0.55008894 -0.26520804 -0.44966862
v -0.54343545 -0.26201707 -0.46395695
v -0.53757846 -0.25851095 -0.47729561
v -0.53055012 -0.25520182 -0.49072060
v -0.52947247 -0.24499863 -0.50932568
v -0.54212350 -0.24133494 -0.50223184
v -0.53575110 -0.23719852 -0.51555616
v -0.53083128 -0.23058024 -0.53083730
v -0.53926528 -0.21943158 -0.53919739
v -0.52591145 -0.22396195 -0.54577315
v -0.51911736 -0.21935280 -0.55911183
v -0.49775115 -0.21856490 -0.57971698
v -0.49583006 -0.21978614 -0.57971698
v -0.51147985 -0.21561033 -0.57116985
v -0.51991391 -0.20331922 -0.57971698
v -0.49953166 -0.21738307 -0.57971698
v -0.68344033 -0.14375469 -0.47000036
v -0.69791871 -0.13764854 -0.45687753
v -0.66769677 -0.14761536 -0.48693630
v -0.66034043 -0.16033979 -0.48050436
v -0.67402232 -0.15372151 -0.47000036
v -0.65012592 -0.13016358 -0.53014666
v -0.65645140 -0.13626973 -0.51561368
v -0.64314443 -0.14320317 -0.52375787
v -0.64914191 -0.14915174 -0.50896597
v -0.64183247 -0.16175799 -0.50233257
v -0.65518630 -0.15517911 -0.49384305
v -0.70958579 -0.12953326 -0.44935206
v -0.64375353 -0.12409683 -0.54433429
v -0.73371649 -0.11200270 -0.43273270
v -0.71745753 -0.13236967 -0.43273270
v -0.72378308 -0.12468775 -0.43273270
v -0.70222944 -0.14253347 -0.44353887
v -0.71539593 -0.13481213 -0.43273270
v -0.61971653 -0.11503609 -0.57971698
v -0.61831087 -0.11822703 -0.57823491
v -0.62454271 -0.12476653 -0.56491065
v -0.63100874 -0.13110904 -0.55114031
v -0.56723815 -0.26304132 -0.43273270
v -0.56222457 -0.26134735 -0.44276187
v -0.55678934 -0.25795943 -0.45610052
v -0.55008894 -0.25445333 -0.47037446
v -0.56142807 -0.24094100 -0.48161232
v -0.54929245 -0.24448651 -0.48896515
v -0.55543053 -0.23688337 -0.49493662
v -0.55051064 -0.23034388 -0.51051998
v -0.54559082 -0.22384378 -0.52587306
v -0.53158098 -0.21604365 -0.55147123
v -0.55894470 -0.21919522 -0.51882243
v -0.55135405 -0.21588609 -0.53151363
v -0.56156862 -0.20119192 -0.54161471
v -0.54905814 -0.20513137 -0.54896754
v -0.54174864 -0.20127070 -0.56171626
v -0.52244413 -0.20154648 -0.57971698
v -0.52891016 -0.20501319 -0.56902587
v -0.67833304 -0.15825188 -0.45756820
v -0.69032812 -0.15037298 -0.45056075
v -0.64759570 -0.16770656 -0.48695067
v -0.64000505 -0.18003705 -0.48007271
v -0.65373379 -0.17404909 -0.47000036
v -0.65827882 -0.17834309 -0.45755380
v -0.66404206 -0.16404288 -0.47000036
v -0.63747483 -0.13741218 -0.53708220
v -0.63025910 -0.15025479 -0.53030491
v -0.63635033 -0.15647912 -0.51564246
v -0.62304330 -0.16278225 -0.52352768
v -0.62880653 -0.16892780 -0.50860620
v -0.63461667 -0.17511274 -0.49339697
v -0.70438480 -0.14753658 -0.43273270
v -0.71347481 -0.13705762 -0.43273270
v -0.69609135 -0.15584882 -0.43389821
v -0.61751431 -0.11747854 -0.57971698
v -0.61535895 -0.11972404 -0.57971698
v -0.59970915 -0.13567881 -0.57971698
v -0.59835035 -0.13843644 -0.57835001
v -0.61151677 -0.13162118 -0.57163030
v -0.61807662 -0.13812128 -0.55794632
v -0.57398540 -0.25874734 -0.43273270
v -0.57557845 -0.25705338 -0.43417159
v -0.56934667 -0.25311393 -0.44966862
v -0.58026403 -0.24015310 -0.46028775
v -0.56887811 -0.24342287 -0.46817294
v -0.57473505 -0.23625305 -0.47362641
v -0.58401251 -0.22289830 -0.48466283
v -0.56986207 -0.22987114 -0.48979971
v -0.56494224 -0.22352862 -0.50549817
v -0.57824922 -0.21864370 -0.49798709
v -0.57098663 -0.21517697 -0.51129699
v -0.58096689 -0.20071918 -0.52103835
v -0.56892496 -0.20465864 -0.52862144
v -0.55510253 -0.19611003 -0.55495340
v -0.57487565 -0.19583426 -0.53437704
v -0.58302855 -0.18247952 -0.54318315
v -0.56915921 -0.18929477 -0.54906827
v -0.54924554 -0.18941295 -0.56924176
v -0.53481400 -0.19603124 -0.57504052
v -0.52488059 -0.19977371 -0.57971698
v -0.67055500 -0.17058237 -0.45089167
v -0.68278432 -0.16282165 -0.44424394
v -0.64375353 -0.18338560 -0.47000036
v -0.62126279 -0.18114009 -0.50156999
v -0.62875968 -0.18421288 -0.48804426
v -0.61901373 -0.19914341 -0.47876331
v -0.63044649 -0.19421908 -0.47126660
v -0.63747483 -0.19780399 -0.45653218
v -0.65026647 -0.19024023 -0.45037368
v -0.66277695 -0.18267649 -0.44422954
v -0.62412101 -0.14406985 -0.54460764
v -0.61718637 -0.15738520 -0.53685194
v -0.60387933 -0.16349135 -0.54423356
v -0.60973626 -0.16979448 -0.52974373
v -0.61564010 -0.17609760 -0.51489425
v -0.69801241 -0.15450940 -0.43273270
v -0.69473255 -0.15801552 -0.43273270
v -0.59764749 -0.13772734 -0.57971698
v -0.59553897 -0.13973646 -0.57971698
v -0.58752668 -0.14730020 -0.57971698
v -0.57787442 -0.15805490 -0.57784641
v -0.59136885 -0.15127905 -0.57142889
v -0.60476959 -0.14458197 -0.56501132
v -0.61100137 -0.15096389 -0.55109715
v -0.57998288 -0.25480789 -0.43273270
v -0.59877205 -0.23912886 -0.43838757
v -0.58429360 -0.24291073 -0.45001394
v -0.59422702 -0.23585910 -0.45001394
v -0.60261422 -0.22199222 -0.46338138
v -0.58874494 -0.22912264 -0.46850389
v -0.59727263 -0.21793459 -0.47672006
v -0.59038490 -0.21403453 -0.49079257
v -0.60013086 -0.20012827 -0.50021738
v -0.58855748 -0.20371316 -0.50811702
v -0.59427392 -0.19532213 -0.51352727
v -0.58860433 -0.18890083 -0.52850628
v -0.56339598 -0.18279468 -0.56344295
v -0.57674986 -0.17716126 -0.55652177
v -0.60228622 -0.18196739 -0.52262115
v -0.59628868 -0.17680670 -0.53595984
v -0.55060440 -0.17976129 -0.57971698
v -0.54484111 -0.18437046 -0.57971698
v -0.53978074 -0.18834931 -0.57971698
v -0.55674249 -0.17724004 -0.57678163
v -0.53279918 -0.19370696 -0.57971698
v -0.67613083 -0.17617640 -0.43401331
v -0.68648595 -0.16652474 -0.43273270
v -0.60790890 -0.18823111 -0.50754142
v -0.61437500 -0.19524334 -0.49000117
v -0.62412101 -0.20343740 -0.46543902
v -0.60439473 -0.20355558 -0.49000117
v -0.61081398 -0.21068600 -0.47107953
v -0.62918139 -0.20934659 -0.44889161
v -0.64220726 -0.20190102 -0.44320792
v -0.65556115 -0.19599184 -0.43336582
v -0.65682626 -0.19524334 -0.43273270
v -0.66629112 -0.18637958 -0.43273270
v -0.59769434 -0.15789732 -0.55757219
v -0.59033799 -0.17030661 -0.55037767
v -0.57979548 -0.15450940 -0.57971698
v -0.57698417 -0.15710944 -0.57971698
v -0.57403225 -0.15974887 -0.57971698
v -0.56662905 -0.16617018 -0.57971698
v -0.57065862 -0.17054297 -0.57063746
v -0.58438736 -0.16384591 -0.56450772
v -0.59291506 -0.24602289 -0.43273270
v -0.60954887 -0.22510439 -0.44874772
v -0.60753405 -0.23558334 -0.43273270
v -0.62088794 -0.22069222 -0.44125101
v -0.61592126 -0.21675277 -0.45457530
v -0.55538368 -0.17578244 -0.57971698
v -0.55978811 -0.17207935 -0.57971698
v -0.67463142 -0.17838249 -0.43273270
v -0.67842674 -0.17467940 -0.43273270
v -0.64712715 -0.20375256 -0.43273270
v -0.63143045 -0.21694973 -0.43273270
v -0.63635033 -0.21285270 -0.43273270
v -0.65481150 -0.19701609 -0.43273270
v -0.61011112 -0.23361361 -0.43273270
v -0.62383986 -0.22305588 -0.43273270
f 1 2 3
f 1 3 7
f 1 7 16
f 1 16 33
f 1 33 62
f 1 62 99
f 1 99 147
f 1 147 146
f 1 146 193
f 1 193 192
f 1 192 235
f 1 235 281
f 1 281 283
f 1 283 282
f 1 282 325
f 1 325 324
f 1 324 366
f 1 366 403
f 1 403 402
f 1 402 406
f 1 406 405
f 1 405 444
f 1 444 487
f 1 487 532
f 1 532 530
f 1 530 529
f 1 529 528
f 1 528 558
f 1 558 559
f 1 559 550
f 1 550 549
f 1 549 548
f 1 548 547
f 1 547 507
f 1 507 506
f 1 506 505
f 1 505 464
f 1 464 463
f 1 463 462
f 1 462 425
f 1 425 383
f 1 383 382
f 1 382 381
f 1 381 343
f 1 343 342
f 1 342 341
f 1 341 299
f 1 299 253
f 1 253 251
f 1 251 250
f 1 250 249
f 1 249 204
f 1 204 203
f 1 203 154
f 1 154 104
f 1 104 100
f 1 100 65
f 1 65 64
f 1 64 63
f 1 63 34
f 1 34 17
f 1 17 8
f 1 8 4
f 1 4 9
f 1 9 21
f 1 21 43
f 1 43 41
f 1 41 75
f 1 75 70
f 1 70 74
f 1 74 113
f 1 113 115
f 1 115 114
f 1 114 165
f 1 165 163
f 1 163 167
f 1 167 166
f 1 166 117
f 1 117 116
f 1 116 76
f 1 76 44
f 1 44 22
f 1 22 10
f 1 10 5
f 1 5 2
f 2 6 13
f 2 13 28
f 2 28 53
f 2 53 84
f 2 84 129
f 2 129 179
f 2 179 134
f 2 134 89
f 2 89 55
f 2 55 54
f 2 54 29
f 2 29 14
f 2 14 7
f 2 7 3
f 2 5 10
f 2 10 23
f 2 23 46
f 2 46 81
f 2 81 123
f 2 123 122
f 2 122 172
f 2 172 175
f 2 175 218
f 2 218 263
f 2 263 262
f 2 262 261
f 2 261 304
f 2 304 306
f 2 306 348
f 2 348 347
f 2 347 379
f 2 379 420
f 2 420 422
f 2 422 421
f 2 421 424
f 2 424 460
f 2 460 459
f 2 459 503
f 2 503 504
f 2 504 534
f 2 534 561
f 2 561 560
f 2 560 544
f 2 544 543
f 2 543 565
f 2 565 562
f 2 562 564
f 2 564 563
f 2 563 567
f 2 567 566
f 2 566 555
f 2 555 553
f 2 553 512
f 2 512 468
f 2 468 429
f 2 429 390
f 2 390 389
f 2 389 388
f 2 388 387
f 2 387 386
f 2 386 351
f 2 351 350
f 2 350 349
f 2 349 307
f 2 307 266
f 2 266 265
f 2 265 264
f 2 264 219
f 2 219 180
f 2 180 131
f 2 131 87
f 2 87 86
f 2 86 50
f 2 50 26
f 2 26 24
f 2 24 11
f 2 11 6
f 4 8 9
f 6 11 12
f 6 12 13
f 7 14 15
f 7 15 16
f 8 17 18
f 8 18 19
f 8 19 20
f 8 20 21
f 8 21 9
f 10 22 23
f 11 24 12
f 12 25 13
f 12 24 26
f 12 26 27
f 12 27 25
f 13 25 28
f 14 29 15
f 15 29 30
f 15 30 31
f 15 31 16
f 16 31 32
f 16 32 33
f 17 34 35
f 17 35 18
f 18 35 36
f 18 36 37
f 18 37 19
f 19 38 39
f 19 39 40
f 19 40 41
f 19 41 42
f 19 42 21
f 19 21 20
f 19 37 38
f 21 42 43
f 22 44 45
f 22 45 23
f 23 45 46
f 25 27 47
f 25 47 48
f 25 48 49
f 25 49 28
f 26 50 27
f 27 50 51
f 27 51 52
f 27 52 47
f 28 49 53
f 29 54 30
f 30 54 55
f 30 55 56
f 30 56 57
f 30 57 58
f 30 58 31
f 31 58 59
f 31 59 32
f 32 59 60
f 32 60 61
f 32 61 62
f 32 62 33
f 34 63 35
f 35 63 64
f 35 64 65
f 35 65 66
f 35 66 36
f 36 66 67
f 36 67 68
f 36 68 37
f 37 69 38
f 37 68 69
f 38 69 39
f 39 70 40
f 39 69 71
f 39 71 72
f 39 72 73
f 39 73 74
f 39 74 70
f 40 70 75
f 40 75 41
f 41 43 42
f 44 76 45
f 45 76 77
f 45 77 78
f 45 78 79
f 45 79 80
f 45 80 46
f 46 80 81
f 47 52 48
f 48 82 83
f 48 83 84
f 48 84 49
f 48 52 85
f 48 85 82
f 49 84 53
f 50 86 51
f 51 86 52
f 52 86 87
f 52 87 88
f 52 88 85
f 55 89 90
f 55 90 56
f 56 90 57
f 57 91 92
f 57 92 93
f 57 93 94
f 57 94 58
f 57 90 91
f 58 94 59
f 59 94 60
f 60 95 96
f 60 96 97
f 60 97 98
f 60 98 61
f 60 94 95
f 61 98 99
f 61 99 62
f 65 100 66
f 66 100 67
f 67 101 102
f 67 102 103
f 67 103 68
f 67 100 104
f 67 104 105
f 67 105 106
f 67 106 107
f 67 107 101
f 68 103 69
f 69 108 71
f 69 103 108
f 71 109 72
f 71 108 109
f 72 109 110
f 72 110 111
f 72 111 112
f 72 112 73
f 73 113 74
f 73 112 114
f 73 114 115
f 73 115 113
f 76 116 77
f 77 116 117
f 77 117 78
f 78 117 118
f 78 118 119
f 78 119 120
f 78 120 121
f 78 121 79
f 79 121 80
f 80 122 123
f 80 123 81
f 80 121 124
f 80 124 122
f 82 125 83
f 82 85 126
f 82 126 125
f 83 125 127
f 83 127 84
f 84 128 129
f 84 127 128
f 85 88 130
f 85 130 126
f 87 131 88
f 88 132 130
f 88 131 133
f 88 133 132
f 89 134 135
f 89 135 90
f 90 136 137
f 90 137 91
f 90 135 136
f 91 137 92
f 92 137 138
f 92 138 139
f 92 139 140
f 92 140 141
f 92 141 93
f 93 141 95
f 93 95 94
f 95 141 96
f 96 142 143
f 96 143 144
f 96 144 97
f 96 141 142
f 97 144 145
f 97 145 98
f 98 145 146
f 98 146 147
f 98 147 99
f 101 107 106
f 101 106 148
f 101 148 149
f 101 149 150
f 101 150 151
f 101 151 152
f 101 152 103
f 101 103 102
f 103 152 153
f 103 153 108
f 104 154 155
f 104 155 105
f 105 155 106
f 106 156 148
f 106 155 157
f 106 157 156
f 108 153 158
f 108 158 109
f 109 158 159
f 109 159 160
f 109 160 110
f 110 160 111
f 111 161 119
f 111 119 162
f 111 162 163
f 111 163 164
f 111 164 114
f 111 114 112
f 111 160 161
f 114 164 165
f 117 166 118
f 118 166 119
f 119 166 167
f 119 167 162
f 119 161 120
f 120 161 168
f 120 168 169
f 120 169 121
f 121 170 124
f 121 169 171
f 121 171 170
f 122 124 172
f 124 170 171
f 124 171 173
f 124 173 174
f 124 174 175
f 124 175 172
f 125 136 135
f 125 135 127
f 125 126 176
f 125 176 137
f 125 137 136
f 126 130 132
f 126 132 177
f 126 177 178
f 126 178 176
f 127 135 134
f 127 134 128
f 128 134 179
f 128 179 129
f 131 180 133
f 132 133 181
f 132 181 182
f 132 182 183
f 132 183 177
f 133 180 181
f 137 176 178
f 137 178 138
f 138 178 139
f 139 184 185
f 139 185 140
f 139 178 184
f 140 185 186
f 140 186 142
f 140 142 141
f 142 186 187
f 142 187 143
f 143 187 188
f 143 188 189
f 143 189 190
f 143 190 191
f 143 191 144
f 144 191 145
f 145 192 193
f 145 193 146
f 145 191 192
f 148 156 149
f 149 194 150
f 149 156 195
f 149 195 196
f 149 196 197
f 149 197 194
f 150 194 198
f 150 198 151
f 151 198 199
f 151 199 200
f 151 200 201
f 151 201 202
f 151 202 153
f 151 153 152
f 153 202 158
f 154 203 155
f 155 203 204
f 155 204 205
f 155 205 157
f 156 196 195
f 156 157 205
f 156 205 206
f 156 206 207
f 156 207 208
f 156 208 196
f 158 209 159
f 158 202 209
f 159 209 210
f 159 210 160
f 160 210 168
f 160 168 161
f 162 167 163
f 163 165 164
f 168 210 211
f 168 211 169
f 169 211 171
f 171 211 212
f 171 212 173
f 173 212 213
f 173 213 214
f 173 214 215
f 173 215 216
f 173 216 174
f 174 216 217
f 174 217 175
f 175 217 218
f 177 183 178
f 178 183 184
f 180 219 181
f 181 219 220
f 181 220 221
f 181 221 182
f 182 221 183
f 183 221 222
f 183 222 223
f 183 223 184
f 184 223 185
f 185 223 224
f 185 224 225
f 185 225 226
f 185 226 187
f 185 187 186
f 187 226 188
f 188 226 227
f 188 227 228
f 188 228 229
f 188 229 230
f 188 230 189
f 189 230 231
f 189 231 190
f 190 231 232
f 190 232 191
f 191 233 192
f 191 232 234
f 191 234 233
f 192 233 235
f 194 197 236
f 194 236 237
f 194 237 199
f 194 199 198
f 196 238 239
f 196 239 236
f 196 236 197
f 196 208 207
f 196 207 240
f 196 240 241
f 196 241 242
f 196 242 238
f 199 237 243
f 199 243 244
f 199 244 245
f 199 245 246
f 199 246 247
f 199 247 200
f 200 247 201
f 201 213 248
f 201 248 209
f 201 209 202
f 201 247 213
f 204 249 205
f 205 249 250
f 205 250 251
f 205 251 252
f 205 252 207
f 205 207 206
f 207 241 240
f 207 252 251
f 207 251 253
f 207 253 254
f 207 254 255
f 207 255 256
f 207 256 241
f 209 248 211
f 209 211 210
f 211 248 213
f 211 213 212
f 213 247 246
f 213 246 214
f 214 246 215
f 215 257 217
f 215 217 216
f 215 246 258
f 215 258 259
f 215 259 257
f 217 257 260
f 217 260 261
f 217 261 262
f 217 262 263
f 217 263 218
f 219 264 220
f 220 264 265
f 220 265 266
f 220 266 221
f 221 266 267
f 221 267 268
f 221 268 222
f 222 268 224
f 222 224 223
f 224 268 269
f 224 269 270
f 224 270 271
f 224 271 225
f 225 271 227
f 225 227 226
f 227 271 272
f 227 272 228
f 228 272 273
f 228 273 274
f 228 274 275
f 228 275 229
f 229 275 276
f 229 276 230
f 230 276 277
f 230 277 231
f 231 277 232
f 232 277 278
f 232 278 279
f 232 279 280
f 232 280 234
f 233 234 281
f 233 281 235
f 234 280 282
f 234 282 283
f 234 283 281
f 236 284 237
f 236 239 238
f 236 238 285
f 236 285 284
f 237 284 243
f 238 286 287
f 238 287 288
f 238 288 285
f 238 242 241
f 238 241 289
f 238 289 290
f 238 290 291
f 238 291 286
f 241 256 255
f 241 255 292
f 241 292 293
f 241 293 289
f 243 284 244
f 244 284 294
f 244 294 295
f 244 295 296
f 244 296 297
f 244 297 298
f 244 298 259
f 244 259 258
f 244 258 246
f 244 246 245
f 253 299 254
f 254 299 255
f 255 299 300
f 255 300 301
f 255 301 302
f 255 302 292
f 257 259 260
f 259 298 297
f 259 297 303
f 259 303 260
f 260 304 261
f 260 303 305
f 260 305 306
f 260 306 304
f 266 307 308
f 266 308 267
f 267 308 269
f 267 269 268
f 269 308 309
f 269 309 310
f 269 310 311
f 269 311 270
f 270 311 272
f 270 272 271
f 272 311 273
f 273 312 313
f 273 313 314
f 273 314 315
f 273 315 316
f 273 316 274
f 273 311 312
f 274 316 275
f 275 316 317
f 275 317 276
f 276 317 277
f 277 317 318
f 277 318 319
f 277 319 320
f 277 320 278
f 278 320 279
f 279 320 319
f 279 319 321
f 279 321 322
f 279 322 323
f 279 323 324
f 279 324 325
f 279 325 280
f 280 325 282
f 284 285 288
f 284 288 294
f 286 291 290
f 286 290 326
f 286 326 327
f 286 327 328
f 286 328 329
f 286 329 330
f 286 330 331
f 286 331 332
f 286 332 288
f 286 288 287
f 288 295 294
f 288 332 295
f 289 293 290
f 290 293 333
f 290 333 334
f 290 334 335
f 290 335 327
f 290 327 326
f 292 302 333
f 292 333 293
f 295 332 331
f 295 331 336
f 295 336 297
f 295 297 296
f 297 336 337
f 297 337 338
f 297 338 339
f 297 339 340
f 297 340 305
f 297 305 303
f 299 341 300
f 300 341 342
f 300 342 343
f 300 343 301
f 301 343 344
f 301 344 302
f 302 344 345
f 302 345 346
f 302 346 333
f 305 340 339
f 305 339 347
f 305 347 348
f 305 348 306
f 307 349 309
f 307 309 308
f 309 349 350
f 309 350 351
f 309 351 352
f 309 352 310
f 310 352 312
f 310 312 311
f 312 352 313
f 313 352 353
f 313 353 354
f 313 354 355
f 313 355 356
f 313 356 314
f 314 356 357
f 314 357 315
f 315 357 358
f 315 358 316
f 316 358 317
f 317 358 359
f 317 359 360
f 317 360 319
f 317 319 318
f 319 360 361
f 319 361 362
f 319 362 363
f 319 363 321
f 321 363 364
f 321 364 322
f 322 364 365
f 322 365 366
f 322 366 323
f 323 366 324
f 327 367 368
f 327 368 329
f 327 329 328
f 327 335 369
f 327 369 370
f 327 370 371
f 327 371 372
f 327 372 367
f 329 373 374
f 329 374 375
f 329 375 330
f 329 368 367
f 329 367 376
f 329 376 373
f 330 375 331
f 331 337 336
f 331 375 337
f 333 346 377
f 333 377 334
f 334 377 369
f 334 369 335
f 337 378 339
f 337 339 338
f 337 375 374
f 337 374 378
f 339 379 347
f 339 378 380
f 339 380 379
f 343 381 344
f 344 381 382
f 344 382 383
f 344 383 345
f 345 383 384
f 345 384 385
f 345 385 346
f 346 385 377
f 351 386 352
f 352 386 353
f 353 386 387
f 353 387 354
f 354 387 388
f 354 388 389
f 354 389 390
f 354 390 391
f 354 391 355
f 355 391 392
f 355 392 356
f 356 392 393
f 356 393 357
f 357 393 358
f 358 393 394
f 358 394 395
f 358 395 361
f 358 361 359
f 359 361 360
f 361 395 396
f 361 396 397
f 361 397 398
f 361 398 362
f 362 398 399
f 362 399 400
f 362 400 363
f 363 400 401
f 363 401 364
f 364 401 365
f 365 402 403
f 365 403 366
f 365 401 404
f 365 404 405
f 365 405 406
f 365 406 402
f 367 407 408
f 367 408 376
f 367 372 371
f 367 371 409
f 367 409 410
f 367 410 411
f 367 411 407
f 369 377 412
f 369 412 413
f 369 413 371
f 369 371 370
f 371 413 414
f 371 414 415
f 371 415 416
f 371 416 417
f 371 417 410
f 371 410 409
f 373 418 380
f 373 380 374
f 373 376 408
f 373 408 418
f 374 380 378
f 377 385 419
f 377 419 412
f 379 380 420
f 380 421 422
f 380 422 420
f 380 418 423
f 380 423 424
f 380 424 421
f 383 425 426
f 383 426 384
f 384 426 385
f 385 426 427
f 385 427 428
f 385 428 419
f 390 429 430
f 390 430 391
f 391 430 431
f 391 431 392
f 392 431 393
f 393 431 432
f 393 432 433
f 393 433 434
f 393 434 394
f 394 434 396
f 394 396 395
f 396 434 433
f 396 433 435
f 396 435 436
f 396 436 397
f 397 436 437
f 397 437 398
f 398 437 399
f 399 438 401
f 399 401 400
f 399 437 439
f 399 439 440
f 399 440 441
f 399 441 442
f 399 442 443
f 399 443 438
f 401 444 405
f 401 405 404
f 401 438 443
f 401 443 445
f 401 445 444
f 407 411 446
f 407 446 408
f 408 446 447
f 408 447 423
f 408 423 418
f 410 417 416
f 410 416 448
f 410 448 449
f 410 449 450
f 410 450 451
f 410 451 452
f 410 452 446
f 410 446 411
f 412 419 453
f 412 453 414
f 412 414 413
f 414 416 415
f 414 453 454
f 414 454 455
f 414 455 416
f 416 449 448
f 416 455 456
f 416 456 457
f 416 457 458
f 416 458 449
f 419 428 453
f 423 459 460
f 423 460 424
f 423 447 461
f 423 461 459
f 425 462 426
f 426 462 463
f 426 463 464
f 426 464 465
f 426 465 466
f 426 466 427
f 427 466 467
f 427 467 428
f 428 467 453
f 429 468 469
f 429 469 430
f 430 469 470
f 430 470 431
f 431 470 471
f 431 471 472
f 431 472 433
f 431 433 432
f 433 472 471
f 433 471 473
f 433 473 474
f 433 474 475
f 433 475 435
f 435 475 476
f 435 476 439
f 435 439 436
f 436 439 437
f 439 476 477
f 439 477 478
f 439 478 479
f 439 479 480
f 439 480 441
f 439 441 440
f 441 481 443
f 441 443 442
f 441 480 479
f 441 479 482
f 441 482 483
f 441 483 484
f 441 484 481
f 443 481 485
f 443 485 486
f 443 486 487
f 443 487 444
f 443 444 445
f 446 452 451
f 446 451 488
f 446 488 489
f 446 489 447
f 447 489 461
f 449 490 451
f 449 451 450
f 449 458 491
f 449 491 492
f 449 492 493
f 449 493 494
f 449 494 495
f 449 495 490
f 451 490 495
f 451 495 496
f 451 496 497
f 451 497 488
f 453 467 498
f 453 498 454
f 454 498 499
f 454 499 456
f 454 456 455
f 456 499 500
f 456 500 501
f 456 501 502
f 456 502 457
f 457 502 491
f 457 491 458
f 459 461 503
f 461 489 504
f 461 504 503
f 464 505 465
f 465 505 506
f 465 506 507
f 465 507 508
f 465 508 509
f 465 509 510
f 465 510 467
f 465 467 466
f 467 510 511
f 467 511 498
f 468 512 469
f 469 512 513
f 469 513 514
f 469 514 470
f 470 514 471
f 471 514 513
f 471 513 515
f 471 515 516
f 471 516 517
f 471 517 473
f 473 517 474
f 474 477 476
f 474 476 475
f 474 517 518
f 474 518 477
f 477 518 519
f 477 519 520
f 477 520 521
f 477 521 478
f 478 521 479
f 479 521 520
f 479 520 522
f 479 522 523
f 479 523 482
f 481 484 524
f 481 524 485
f 482 523 483
f 483 525 524
f 483 524 484
f 483 523 526
f 483 526 527
f 483 527 525
f 485 528 529
f 485 529 530
f 485 530 486
f 485 524 531
f 485 531 528
f 486 530 532
f 486 532 487
f 488 497 533
f 488 533 489
f 489 534 504
f 489 533 534
f 491 502 526
f 491 526 535
f 491 535 520
f 491 520 536
f 491 536 492
f 492 536 493
f 493 537 495
f 493 495 494
f 493 536 520
f 493 520 538
f 493 538 518
f 493 518 539
f 493 539 537
f 495 537 540
f 495 540 541
f 495 541 496
f 496 541 542
f 496 542 543
f 496 543 497
f 497 544 533
f 497 543 544
f 498 511 499
f 499 511 545
f 499 545 500
f 500 545 546
f 500 546 527
f 500 527 501
f 501 527 526
f 501 526 502
f 507 547 508
f 508 547 548
f 508 548 549
f 508 549 550
f 508 550 551
f 508 551 552
f 508 552 545
f 508 545 509
f 509 545 510
f 510 545 511
f 512 553 513
f 513 554 516
f 513 516 515
f 513 553 555
f 513 555 556
f 513 556 554
f 516 554 556
f 516 556 557
f 516 557 539
f 516 539 518
f 516 518 517
f 518 538 519
f 519 538 520
f 520 535 526
f 520 526 522
f 522 526 523
f 524 525 551
f 524 551 531
f 525 527 546
f 525 546 545
f 525 545 552
f 525 552 551
f 528 531 558
f 531 551 559
f 531 559 558
f 533 544 560
f 533 560 561
f 533 561 534
f 537 539 557
f 537 557 540
f 540 557 556
f 540 556 541
f 541 562 542
f 541 556 563
f 541 563 564
f 541 564 562
f 542 562 565
f 542 565 543
f 550 559 551
f 555 566 556
f 556 567 563
f 556 566 567
