v -0.00091040 -0.39559403 0.00098473
v -0.00091040 -0.25315216 0.00098473
v 0.29665154 -0.42949137 0.00098473
v -0.31846231 -0.43555206 0.00103503
v 0.29665154 -0.24846196 0.00098473
v -0.31846231 -0.24700010 0.00103503
v 0.29665154 -0.46064767 0.27534503
v -0.31846231 -0.46086085 0.25336200
v 0.28093648 -0.15158200 0.51489466
v 0.29665154 -0.22872660 0.30572888
v -0.31846231 -0.22269635 0.30633256
v -0.30419236 -0.16519576 0.47746819
v 0.29665154 -0.46177453 0.28973210
v -0.31846231 -0.46150044 0.25985128
v -0.00097061 -0.19184460 0.51489466
v 0.28093648 -0.33897668 0.51489466
v 0.29665154 -0.46183544 0.30572888
v -0.31846231 -0.45939898 0.30633256
v -0.30419236 -0.34732157 0.47746819
v 0.28984767 -0.46226183 0.30572888
v -0.31846231 -0.46238363 0.28143185
v -0.00097061 -0.36739194 0.51489466
v 0.27304888 -0.34056038 0.51489466
v 0.09000795 -0.44679028 0.44502181
v 0.10999795 -0.44441473 0.44305995
v 0.10999795 -0.45443469 0.43259662
v 0.13901956 -0.45979491 0.41946718
v 0.14997794 -0.45863760 0.41705257
v 0.16996793 -0.45537883 0.41322944
v 0.19628006 -0.45909441 0.39758477
v 0.20994793 -0.45629248 0.39406344
v 0.23559774 -0.45860714 0.37675872
v 0.25907999 -0.45976445 0.35925281
v 0.26991791 -0.45677978 0.35482600
v 0.28063542 -0.46019083 0.34053954
v 0.28093648 -0.46009946 0.34038863
v 0.28093648 -0.46022129 0.34013712
v 0.28093648 -0.46159178 0.32922107
v 0.26991791 -0.46241409 0.32992533
v -0.31846231 -0.46058676 0.30306277
v -0.30130225 -0.46040404 0.32122266
v -0.29419738 -0.45714524 0.33455333
v -0.30419236 -0.45288143 0.33118293
v -0.26993239 -0.45702344 0.35522842
v -0.25957614 -0.45988625 0.35955462
v -0.23591328 -0.45875943 0.37695995
v -0.20996240 -0.45662749 0.39416406
v -0.20996240 -0.44660753 0.40588498
v -0.19021325 -0.45081043 0.40990934
v -0.16992220 -0.44557202 0.42439699
v -0.14999242 -0.44858718 0.42781770
v -0.12530598 -0.44203916 0.44134960
v -0.11001243 -0.44447562 0.44316056
v -0.09002243 -0.44682074 0.44522303
v 0.22993793 -0.46268821 0.34999678
v -0.20996240 -0.46265775 0.36996764
v -0.26993239 -0.46250546 0.32997561
v -0.31117684 -0.46116543 0.30633256
v -0.31846231 -0.46113497 0.29898810
v -0.06997222 -0.44834352 0.44683278
v -0.02999223 -0.43765354 0.45890585
v -0.01006245 -0.43853673 0.45930827
v 0.01004797 -0.36736149 0.51489466
v 0.26636547 -0.34186998 0.51489466
v 0.07001796 -0.44825214 0.44668186
v 0.09000795 -0.45677978 0.43425667
v 0.25528669 -0.34394097 0.51489466
v 0.24992792 -0.34488511 0.51489466
v 0.22957666 -0.34832659 0.51489466
v 0.12571298 -0.46052584 0.42112723
v 0.16996793 -0.46116543 0.40321887
v 0.18291326 -0.46046492 0.40110606
v 0.22229114 -0.46046492 0.38118553
v 0.24577336 -0.46098268 0.36342806
v 0.26991791 -0.46098268 0.34486574
v 0.25143319 -0.46189636 0.35155621
v 0.20994793 -0.46271867 0.36996764
v -0.31292289 -0.46095222 0.30633256
v -0.30419236 -0.46070856 0.31649405
v -0.28847730 -0.46110451 0.32876831
v -0.28083056 -0.46028221 0.34074077
v -0.24620932 -0.46104360 0.36367959
v -0.22260667 -0.46055630 0.38133645
v -0.26993239 -0.46107405 0.34526816
v -0.19617413 -0.45918578 0.39758477
v -0.16992220 -0.45559201 0.41297790
v -0.14999242 -0.45857668 0.41665012
v -0.13867278 -0.45979491 0.41921568
v -0.11001243 -0.45449561 0.43254632
v -0.09002243 -0.45684069 0.43425667
v -0.16992220 -0.46241409 0.38993847
v -0.18967135 -0.46156132 0.39054215
v -0.20996240 -0.46125680 0.38420379
v -0.22953093 -0.46168315 0.37016886
v -0.25174874 -0.46192682 0.35175744
v 0.09000795 -0.46271867 0.41000995
v -0.09002243 -0.46256638 0.40995964
v -0.11001243 -0.46247500 0.40995964
v -0.06997222 -0.45830256 0.43591672
v -0.04998223 -0.45924670 0.43762708
v -0.04998223 -0.44922674 0.44809037
v -0.02999223 -0.44971400 0.44889528
v -0.00837655 -0.45193732 0.44743645
v 0.00830185 -0.45193732 0.44743645
v -0.00097061 -0.43850631 0.45930827
v 0.02997775 -0.36708739 0.51489466
v 0.04996775 -0.44919628 0.44793949
v 0.04996775 -0.45915532 0.43752646
v 0.07001796 -0.45824164 0.43591672
v 0.20994793 -0.35131127 0.51489466
v 0.18971708 -0.35414368 0.51489466
v 0.16996793 -0.35667151 0.51489466
v 0.14997794 -0.46165270 0.40704200
v 0.10999795 -0.46110451 0.42263636
v 0.16996793 -0.46259683 0.38993847
v 0.18977730 -0.46159178 0.39054215
v 0.20994793 -0.46119589 0.38410318
v 0.22933581 -0.46159178 0.37001795
v 0.10999795 -0.46268821 0.41000995
v -0.18286753 -0.46043450 0.40095514
v -0.12536618 -0.46052584 0.42107692
v -0.14999242 -0.46156132 0.40663958
v -0.16992220 -0.46107405 0.40296733
v 0.02997775 -0.46162224 0.42892441
v -0.02999223 -0.46168315 0.42902502
v -0.04998223 -0.46168315 0.42756617
v -0.06997222 -0.46168315 0.42590615
v -0.09002243 -0.46153086 0.42424610
v -0.11001243 -0.46110451 0.42248544
v -0.02999223 -0.45973399 0.43903559
v -0.01385573 -0.45991671 0.43973988
v -0.00103082 -0.45955127 0.44039381
v 0.01384125 -0.45988625 0.43973988
v 0.02997775 -0.44968358 0.44879466
v 0.01004797 -0.43844539 0.45920765
v 0.04996775 -0.36647826 0.51489466
v 0.14997794 -0.35901660 0.51489466
v 0.12462918 -0.36160535 0.51489466
v 0.11493523 -0.36251903 0.51489466
v 0.10999795 -0.36291495 0.51489466
v 0.02997775 -0.45967308 0.43893498
v 0.09000795 -0.46150044 0.42429641
v 0.07001796 -0.46162224 0.42590615
v 0.04996775 -0.46165270 0.42751589
v 0.00830185 -0.46128726 0.43184209
v -0.00103082 -0.46131769 0.43184209
v -0.00837655 -0.46131769 0.43184209
v -0.00097061 -0.46000808 0.43953866
v -0.00054914 -0.45991671 0.43999138
v 0.00053466 -0.45991671 0.43999138
v 0.09885895 -0.36376771 0.51489466
v 0.09000795 -0.36437681 0.51489466
v 0.07760452 -0.36516866 0.51489466
v 0.07001796 -0.36559504 0.51489466
v 0.05689199 -0.36623463 0.51489466
f 1 2 5
f 1 5 3
f 1 3 4
f 1 4 6
f 1 6 2
f 2 6 5
f 3 5 10
f 3 10 17
f 3 17 13
f 3 13 7
f 3 7 4
f 4 8 14
f 4 14 21
f 4 21 59
f 4 59 40
f 4 40 18
f 4 18 11
f 4 11 6
f 4 7 8
f 5 9 10
f 5 6 9
f 6 11 12
f 6 12 9
f 7 13 14
f 7 14 8
f 9 15 22
f 9 22 63
f 9 63 106
f 9 106 136
f 9 136 155
f 9 155 154
f 9 154 153
f 9 153 152
f 9 152 151
f 9 151 140
f 9 140 139
f 9 139 138
f 9 138 137
f 9 137 112
f 9 112 111
f 9 111 110
f 9 110 69
f 9 69 68
f 9 68 67
f 9 67 64
f 9 64 23
f 9 23 16
f 9 16 17
f 9 17 10
f 9 12 15
f 11 18 19
f 11 19 12
f 12 19 22
f 12 22 15
f 13 17 20
f 13 20 21
f 13 21 14
f 16 23 24
f 16 24 25
f 16 25 26
f 16 26 27
f 16 27 28
f 16 28 29
f 16 29 30
f 16 30 31
f 16 31 32
f 16 32 33
f 16 33 34
f 16 34 35
f 16 35 36
f 16 36 17
f 17 36 37
f 17 37 38
f 17 38 39
f 17 39 20
f 18 40 41
f 18 41 42
f 18 42 43
f 18 43 19
f 19 43 42
f 19 42 44
f 19 44 45
f 19 45 46
f 19 46 47
f 19 47 48
f 19 48 49
f 19 49 50
f 19 50 51
f 19 51 52
f 19 52 53
f 19 53 54
f 19 54 22
f 20 39 55
f 20 55 21
f 21 56 57
f 21 57 58
f 21 58 59
f 21 55 56
f 22 54 60
f 22 60 61
f 22 61 62
f 22 62 63
f 23 64 24
f 24 65 109
f 24 109 66
f 24 66 26
f 24 26 25
f 24 64 67
f 24 67 68
f 24 68 69
f 24 69 65
f 26 66 27
f 27 70 71
f 27 71 72
f 27 72 28
f 27 66 70
f 28 72 30
f 28 30 29
f 30 72 73
f 30 73 32
f 30 32 31
f 32 73 33
f 33 73 74
f 33 74 75
f 33 75 35
f 33 35 34
f 35 75 37
f 35 37 36
f 37 75 38
f 38 75 76
f 38 76 39
f 39 76 77
f 39 77 55
f 40 59 78
f 40 78 79
f 40 79 41
f 41 80 81
f 41 81 42
f 41 79 80
f 42 81 45
f 42 45 44
f 45 82 83
f 45 83 46
f 45 81 84
f 45 84 82
f 46 83 47
f 47 83 85
f 47 85 48
f 48 85 49
f 49 85 86
f 49 86 50
f 50 86 87
f 50 87 88
f 50 88 51
f 51 88 53
f 51 53 52
f 53 88 89
f 53 89 54
f 54 89 90
f 54 90 60
f 55 77 56
f 56 91 92
f 56 92 93
f 56 93 94
f 56 94 95
f 56 95 57
f 56 77 96
f 56 96 97
f 56 97 98
f 56 98 91
f 57 84 80
f 57 80 58
f 57 95 84
f 58 78 59
f 58 80 78
f 60 90 99
f 60 99 100
f 60 100 101
f 60 101 61
f 61 101 102
f 61 102 62
f 62 102 103
f 62 103 104
f 62 104 105
f 62 105 63
f 63 105 106
f 65 107 108
f 65 108 109
f 65 69 110
f 65 110 111
f 65 111 112
f 65 112 107
f 66 109 70
f 70 113 71
f 70 109 108
f 70 108 114
f 70 114 113
f 71 115 116
f 71 116 117
f 71 117 72
f 71 113 115
f 72 117 73
f 73 117 118
f 73 118 74
f 74 76 75
f 74 118 76
f 76 118 77
f 77 117 116
f 77 116 115
f 77 115 119
f 77 119 96
f 77 118 117
f 78 80 79
f 80 84 81
f 82 84 95
f 82 95 94
f 82 94 83
f 83 94 93
f 83 93 120
f 83 120 85
f 85 120 87
f 85 87 86
f 87 120 88
f 88 120 121
f 88 121 90
f 88 90 89
f 90 121 99
f 91 122 92
f 91 98 122
f 92 122 123
f 92 123 93
f 93 123 120
f 96 119 124
f 96 124 125
f 96 125 97
f 97 125 126
f 97 126 98
f 98 126 127
f 98 127 128
f 98 128 129
f 98 129 122
f 99 121 100
f 100 130 101
f 100 121 129
f 100 129 128
f 100 128 130
f 101 130 102
f 102 131 103
f 102 130 131
f 103 131 132
f 103 132 104
f 104 133 134
f 104 134 135
f 104 135 105
f 104 132 133
f 105 135 106
f 106 135 136
f 107 112 137
f 107 137 138
f 107 138 139
f 107 139 140
f 107 140 134
f 107 134 141
f 107 141 108
f 108 141 114
f 113 114 119
f 113 119 115
f 114 141 142
f 114 142 119
f 119 142 143
f 119 143 144
f 119 144 124
f 120 123 121
f 121 123 122
f 121 122 129
f 124 144 133
f 124 133 145
f 124 145 146
f 124 146 125
f 125 146 147
f 125 147 131
f 125 131 126
f 126 131 127
f 127 131 130
f 127 130 128
f 131 147 148
f 131 148 149
f 131 149 132
f 132 149 150
f 132 150 133
f 133 150 148
f 133 148 145
f 133 144 143
f 133 143 142
f 133 142 141
f 133 141 134
f 134 140 151
f 134 151 135
f 135 151 152
f 135 152 153
f 135 153 154
f 135 154 155
f 135 155 136
f 145 148 146
f 146 148 147
f 148 150 149
