v -0.00092858 -0.46134803 0.40807188
v 0.27120358 -0.46131757 0.30579299
v 0.28097287 -0.46174401 0.30579299
v 0.28097287 -0.46207905 0.30972284
v 0.03000744 -0.46192676 0.41001633
v -0.00092858 -0.46134803 0.41902229
v -0.00092858 -0.45997739 0.40010980
v -0.00092858 -0.45942914 0.39834955
v -0.00092858 -0.43034098 0.30579299
v 0.28097287 -0.23126222 0.30579299
v 0.26998934 -0.46247500 0.33000669
v 0.22997396 -0.46268821 0.35000399
v 0.07002282 -0.46250546 0.41001633
v 0.28097287 -0.46165264 0.32922891
v -0.00092858 -0.46131757 0.43185577
v -0.00092858 -0.24615657 0.30579299
v 0.28097287 -0.15158199 0.51489466
v 0.20999387 -0.46271867 0.37000129
v 0.25147188 -0.46192676 0.35155958
v 0.09000292 -0.46271867 0.41001633
v 0.26998934 -0.46101299 0.34486651
v 0.28097287 -0.46025151 0.34013838
v 0.03000744 -0.46168309 0.42896977
v 0.00831635 -0.46131757 0.43185577
v -0.00092858 -0.46022105 0.43863067
v -0.00092858 -0.19178760 0.51489466
v 0.28097287 -0.33899501 0.51489466
v 0.16997848 -0.46265775 0.39001906
v 0.11001061 -0.46268821 0.41001633
v 0.22939444 -0.46165264 0.37006268
v 0.18979299 -0.46165264 0.39059216
v 0.24581453 -0.46101299 0.36345151
v 0.28066930 -0.46022105 0.34056821
v 0.25914380 -0.45979464 0.35925555
v 0.28097287 -0.46016014 0.34044540
v 0.05001514 -0.46171355 0.42753699
v 0.01386331 -0.45994693 0.43975642
v -0.00092858 -0.46006876 0.43955174
v -0.00092858 -0.36744353 0.51489466
v 0.27310777 -0.34057888 0.51489466
v 0.09000292 -0.44681919 0.44509858
v 0.11001061 -0.44447386 0.44307226
v 0.11001061 -0.45446435 0.43263355
v 0.13904245 -0.45985556 0.41949305
v 0.14999840 -0.45866764 0.41705734
v 0.16997848 -0.45540857 0.41325030
v 0.19633344 -0.45915499 0.39763317
v 0.20999387 -0.45635277 0.39411265
v 0.23565891 -0.45863718 0.37677622
v 0.26998934 -0.45680967 0.35487539
v 0.16997848 -0.46119574 0.40326187
v 0.14999840 -0.46171355 0.40708941
v 0.13142574 -0.46177447 0.41169471
v 0.11001061 -0.46113482 0.42264512
v 0.09000292 -0.46153080 0.42430305
v 0.07002282 -0.46168309 0.42594048
v 0.22232965 -0.46052563 0.38119730
v 0.20999387 -0.46122620 0.38410378
v 0.00053404 -0.45997739 0.44000205
v 0.03000744 -0.45973372 0.43897864
v 0.03000744 -0.44971275 0.44884425
v 0.00831635 -0.45196670 0.44745243
v -0.00051463 -0.45997739 0.44000205
v -0.00092858 -0.45955098 0.44041139
v -0.00092858 -0.43853438 0.45932388
v 0.01002735 -0.36741307 0.51489466
v 0.26640177 -0.34191906 0.51489466
v 0.07002282 -0.44831169 0.44671556
v 0.07002282 -0.45830214 0.43592891
v 0.09000292 -0.45680967 0.43429145
v 0.25536302 -0.34395981 0.51489466
v 0.24998164 -0.34493449 0.51489466
v 0.22964281 -0.34837633 0.51489466
v 0.12571320 -0.46058655 0.42117143
v 0.18297659 -0.46052563 0.40111274
v 0.05001514 -0.45921591 0.43754587
v 0.05001514 -0.44922543 0.44798458
v 0.11001061 -0.36293563 0.51489466
v 0.09888910 -0.36378849 0.51489466
v 0.01002735 -0.43847346 0.45930341
v -0.00092858 -0.45196670 0.44747287
v 0.01618144 -0.36732170 0.51489466
v 0.21440935 -0.35069120 0.51489466
v 0.20999387 -0.35136127 0.51489466
v 0.19561592 -0.35337156 0.51489466
v 0.18973780 -0.35416350 0.51489466
v 0.16997848 -0.35672203 0.51489466
v 0.14999840 -0.35903692 0.51489466
v 0.13084620 -0.36101672 0.51489466
v 0.12463692 -0.36162591 0.51489466
v 0.11492284 -0.36253968 0.51489466
v 0.09000292 -0.36442810 0.51489466
v 0.07763955 -0.36522004 0.51489466
v 0.07002282 -0.36564648 0.51489466
v 0.05688674 -0.36625564 0.51489466
v 0.05001514 -0.36652976 0.51489466
v 0.03643750 -0.36692575 0.51489466
v 0.03000744 -0.36710849 0.51489466
f 1 2 3
f 1 3 4
f 1 4 5
f 1 5 6
f 1 6 15
f 1 15 25
f 1 25 38
f 1 38 64
f 1 64 81
f 1 81 65
f 1 65 39
f 1 39 26
f 1 26 16
f 1 16 9
f 1 9 8
f 1 8 7
f 1 7 2
f 2 7 8
f 2 8 9
f 2 9 16
f 2 16 10
f 2 10 3
f 3 10 17
f 3 17 27
f 3 27 35
f 3 35 22
f 3 22 14
f 3 14 4
f 4 11 12
f 4 12 13
f 4 13 5
f 4 14 11
f 5 13 15
f 5 15 6
f 10 16 17
f 11 18 12
f 11 14 19
f 11 19 18
f 12 18 20
f 12 20 13
f 13 20 15
f 14 21 19
f 14 22 21
f 15 20 23
f 15 23 24
f 15 24 25
f 16 26 17
f 17 26 39
f 17 39 66
f 17 66 82
f 17 82 98
f 17 98 97
f 17 97 96
f 17 96 95
f 17 95 94
f 17 94 93
f 17 93 92
f 17 92 79
f 17 79 78
f 17 78 91
f 17 91 90
f 17 90 89
f 17 89 88
f 17 88 87
f 17 87 86
f 17 86 85
f 17 85 84
f 17 84 83
f 17 83 73
f 17 73 72
f 17 72 71
f 17 71 67
f 17 67 40
f 17 40 27
f 18 28 29
f 18 29 20
f 18 19 30
f 18 30 31
f 18 31 28
f 19 21 32
f 19 32 30
f 20 29 23
f 21 22 33
f 21 33 34
f 21 34 32
f 22 35 33
f 23 29 36
f 23 36 37
f 23 37 38
f 23 38 24
f 24 38 25
f 27 40 41
f 27 41 42
f 27 42 43
f 27 43 44
f 27 44 45
f 27 45 46
f 27 46 47
f 27 47 48
f 27 48 49
f 27 49 34
f 27 34 50
f 27 50 35
f 28 31 51
f 28 51 52
f 28 52 29
f 29 52 53
f 29 53 54
f 29 54 55
f 29 55 56
f 29 56 36
f 30 32 57
f 30 57 58
f 30 58 31
f 31 58 51
f 32 34 57
f 33 35 34
f 34 49 57
f 34 35 50
f 36 56 37
f 37 59 38
f 37 56 60
f 37 60 61
f 37 61 62
f 37 62 59
f 38 59 63
f 38 63 64
f 39 65 66
f 40 67 41
f 41 68 69
f 41 69 70
f 41 70 43
f 41 43 42
f 41 67 71
f 41 71 72
f 41 72 73
f 41 73 68
f 43 70 44
f 44 70 74
f 44 74 51
f 44 51 75
f 44 75 45
f 45 75 47
f 45 47 46
f 47 75 57
f 47 57 49
f 47 49 48
f 51 58 75
f 51 74 52
f 52 74 54
f 52 54 53
f 54 74 76
f 54 76 60
f 54 60 55
f 55 60 56
f 57 75 58
f 59 62 64
f 59 64 63
f 60 76 77
f 60 77 61
f 61 77 78
f 61 78 79
f 61 79 80
f 61 80 62
f 62 80 65
f 62 65 81
f 62 81 64
f 65 80 66
f 66 80 82
f 68 77 76
f 68 76 69
f 68 73 83
f 68 83 84
f 68 84 85
f 68 85 86
f 68 86 87
f 68 87 77
f 69 76 74
f 69 74 70
f 77 88 89
f 77 89 90
f 77 90 91
f 77 91 78
f 77 87 88
f 79 92 80
f 80 92 93
f 80 93 94
f 80 94 95
f 80 95 96
f 80 96 97
f 80 97 98
f 80 98 82
