v -0.50868011 -0.34274065 -0.26600114
v -0.50868011 -0.34200931 -0.27000010
v -0.35329250 -0.45756119 -0.26600114
v -0.50868011 -0.16025186 -0.26600114
v -0.50868011 -0.34020022 -0.27915686
v -0.33938545 -0.45983219 -0.27933639
v -0.34424502 -0.46094847 -0.26600114
v -0.50868011 -0.33758277 -0.29198611
v -0.50868011 -0.33384910 -0.30865112
v -0.50868011 -0.33354115 -0.31000584
v -0.50868011 -0.32865274 -0.32996795
v -0.50868011 -0.32353333 -0.34922817
v -0.50868011 -0.32272500 -0.35216615
v -0.50868011 -0.32022306 -0.36080062
v -0.50868011 -0.31760561 -0.36948404
v -0.50868011 -0.31695127 -0.37149167
v -0.50868011 -0.31086957 -0.39009902
v -0.50868011 -0.30405658 -0.40937555
v -0.50868011 -0.30320975 -0.41172594
v -0.50868011 -0.30005345 -0.42018086
v -0.50868011 -0.29651222 -0.42904383
v -0.50868011 -0.29581937 -0.43075767
v -0.50868011 -0.29497254 -0.43273264
v -0.50868011 -0.06902669 -0.43273264
v -0.30688959 -0.23400182 -0.26600114
v -0.32028300 -0.46010163 -0.30029413
v -0.32474750 -0.46087146 -0.29001114
v -0.33164176 -0.46171826 -0.27159965
v -0.33120716 -0.46179527 -0.26600114
v -0.50502557 -0.29674315 -0.43273264
v -0.30688959 -0.45817703 -0.31692648
v -0.30688959 -0.18939000 -0.43273264
v -0.30688959 -0.46110243 -0.26600114
v -0.30688959 -0.46064052 -0.31008747
v -0.30815387 -0.46075600 -0.30817777
v -0.31001076 -0.46221867 -0.29001114
v -0.30854893 -0.46160281 -0.26859638
v -0.30951691 -0.46144885 -0.26600114
v -0.49297541 -0.30220896 -0.43273264
v -0.30688959 -0.44982436 -0.32856423
v -0.48914307 -0.30386412 -0.43273264
v -0.47262844 -0.31060016 -0.43273264
v -0.46863806 -0.31221679 -0.43273264
v -0.45625210 -0.31714374 -0.43273264
v -0.30688959 -0.36071625 -0.43273264
v -0.30738342 -0.46117938 -0.26600114
v -0.30688959 -0.46121788 -0.26696414
v -0.30688959 -0.46083295 -0.30830836
v -0.30688959 -0.46214169 -0.28981528
v -0.30688959 -0.46148732 -0.26926559
v -0.30688959 -0.44797677 -0.33099625
v -0.45305189 -0.31837547 -0.43273264
v -0.44552550 -0.32114685 -0.43273264
v -0.31001076 -0.35998490 -0.43273264
v -0.43272468 -0.32553491 -0.43273264
v -0.42972201 -0.32653567 -0.43273264
v -0.40848613 -0.33331022 -0.43273264
v -0.39570507 -0.33727485 -0.43273264
v -0.39001581 -0.33900696 -0.43273264
v -0.37140724 -0.34428033 -0.43273264
v -0.35291716 -0.34924573 -0.43273264
v -0.35013181 -0.34997708 -0.43273264
v -0.33296531 -0.35440361 -0.43273264
v -0.32950830 -0.35528892 -0.43273264
f 1 2 3
f 1 3 7
f 1 7 29
f 1 29 38
f 1 38 46
f 1 46 33
f 1 33 25
f 1 25 4
f 1 4 24
f 1 24 23
f 1 23 22
f 1 22 21
f 1 21 20
f 1 20 19
f 1 19 18
f 1 18 17
f 1 17 16
f 1 16 15
f 1 15 14
f 1 14 13
f 1 13 12
f 1 12 11
f 1 11 10
f 1 10 9
f 1 9 8
f 1 8 5
f 1 5 2
f 2 5 3
f 3 6 7
f 3 5 8
f 3 8 9
f 3 9 10
f 3 10 11
f 3 11 12
f 3 12 13
f 3 13 14
f 3 14 15
f 3 15 16
f 3 16 17
f 3 17 18
f 3 18 19
f 3 19 20
f 3 20 21
f 3 21 22
f 3 22 23
f 3 23 6
f 4 25 24
f 6 26 27
f 6 27 7
f 6 23 26
f 7 27 28
f 7 28 29
f 23 30 31
f 23 31 26
f 23 24 32
f 23 32 45
f 23 45 54
f 23 54 64
f 23 64 63
f 23 63 62
f 23 62 61
f 23 61 60
f 23 60 59
f 23 59 58
f 23 58 57
f 23 57 56
f 23 56 55
f 23 55 53
f 23 53 52
f 23 52 44
f 23 44 43
f 23 43 42
f 23 42 41
f 23 41 39
f 23 39 30
f 24 25 32
f 25 33 47
f 25 47 50
f 25 50 49
f 25 49 48
f 25 48 34
f 25 34 31
f 25 31 40
f 25 40 51
f 25 51 45
f 25 45 32
f 26 31 34
f 26 34 35
f 26 35 27
f 27 35 36
f 27 36 28
f 28 36 29
f 29 36 37
f 29 37 38
f 30 39 31
f 31 39 41
f 31 41 42
f 31 42 43
f 31 43 44
f 31 44 40
f 33 46 47
f 34 48 35
f 35 48 36
f 36 49 37
f 36 48 49
f 37 50 38
f 37 49 50
f 38 50 46
f 40 44 52
f 40 52 53
f 40 53 51
f 45 51 54
f 46 50 47
f 51 53 55
f 51 55 56
f 51 56 57
f 51 57 58
f 51 58 59
f 51 59 60
f 51 60 61
f 51 61 62
f 51 62 63
f 51 63 64
f 51 64 54
