v -1.01066661 0.40995497 0.01001754
v -1.01024234 0.40995497 0.03000511
v -1.00920522 0.42992276 0.01001754
v -1.01061952 0.40995497 0.00098470
v -1.01033664 0.40093726 0.00098470
v -1.00991237 0.38998717 0.01001754
v -1.00948811 0.38998717 0.03000511
v -1.00939381 0.40995497 0.05002470
v -1.00797951 0.42992276 0.05002470
v -1.00878096 0.42992276 0.03000511
v -1.00359523 0.44522068 0.03000511
v -1.00373662 0.44546223 0.01001754
v -1.00373662 0.44546223 0.00098470
v -1.00618804 0.43845740 0.00098470
v -1.00915802 0.42992276 0.00098470
v -1.00991237 0.38998717 0.00098470
v -1.00929952 0.38088894 0.00098470
v -1.00854516 0.36993885 0.01001754
v -1.00863945 0.38998717 0.05002470
v -1.00812089 0.36993885 0.03000511
v -1.00731945 0.38998717 0.07001226
v -1.00802660 0.40995497 0.07001226
v -1.00665951 0.42992276 0.07001226
v -1.00166237 0.44264418 0.09003186
v -1.00255811 0.44393241 0.07001226
v -1.00321805 0.44481811 0.05002470
v -0.99232811 0.45480201 0.05002470
v -0.99261099 0.45528510 0.03000511
v -0.99265814 0.45544612 0.01001754
v -0.99265814 0.45544612 0.00098470
v -1.00854516 0.36993885 0.00098470
v -1.00680089 0.34997106 0.00098470
v -1.00675380 0.34997106 0.01001754
v -1.00717807 0.36993885 0.05002470
v -1.00590515 0.36993885 0.07001226
v -1.00628233 0.34997106 0.03000511
v -1.00557518 0.38998717 0.09003186
v -1.00628233 0.40995497 0.09003186
v -1.00486803 0.42992276 0.09003186
v -0.99996525 0.43998718 0.12023742
v -1.00057805 0.44095337 0.11005145
v -0.98780245 0.44908541 0.15005861
v -0.98021245 0.46003550 0.12276790
v -0.99185669 0.45391634 0.07001226
v -0.98068386 0.46035755 0.11005145
v -0.98129672 0.46059909 0.09003186
v -0.98186243 0.46084064 0.07001226
v -0.98233390 0.46092117 0.05002470
v -0.98256958 0.46100166 0.03000511
v -0.98266387 0.46108219 0.01001754
v -0.98266387 0.46100166 0.00098470
v -1.00463235 0.32992274 0.00098470
v -1.00463235 0.32992274 0.01001754
v -1.00533950 0.34997106 0.05002470
v -1.00416088 0.36993885 0.09003186
v -1.00406671 0.34997106 0.07001226
v -1.00411379 0.32992274 0.03000511
v -1.00321805 0.32992274 0.05002470
v -1.00335956 0.38998717 0.11005145
v -1.00199234 0.36993885 0.11005145
v -1.00401950 0.40995497 0.11005145
v -1.00005949 0.42050248 0.14057733
v -1.00269949 0.42992276 0.11005145
v -1.00062525 0.42831245 0.12814917
v -0.99906951 0.43386802 0.13359450
v -0.99393094 0.42992276 0.16998212
v -0.98096675 0.44159749 0.22449948
v -0.98242819 0.44377139 0.20998928
v -0.98440814 0.44618687 0.18993765
v -0.98619956 0.44787768 0.16998212
v -0.97875106 0.45971343 0.13615701
v -0.96088398 0.46043807 0.22590886
v -0.96206254 0.46084064 0.20998928
v -0.96338254 0.46116272 0.18993765
v -0.96998250 0.46148476 0.11005145
v -0.96998250 0.46164581 0.09003186
v -0.96998250 0.46164581 0.05002470
v -0.96998250 0.46156529 0.00098470
v -1.00218093 0.30995494 0.00098470
v -1.00213385 0.30995494 0.01001754
v -1.00232232 0.34997106 0.09003186
v -1.00053096 0.35182291 0.10870614
v -1.00189805 0.32992274 0.07001226
v -1.00053096 0.33121097 0.08804592
v -1.00128520 0.30802256 0.03167073
v -0.99991810 0.30013207 0.03942232
v -1.00095522 0.31228989 0.05002470
v -1.00034237 0.31712079 0.07001226
v -1.00104952 0.38998717 0.12786089
v -0.99991810 0.40142035 0.13987264
v -1.00038958 0.36993885 0.12308822
v -0.99996525 0.35979393 0.12014133
v -1.00114381 0.40882775 0.13192886
v -1.00005949 0.41478589 0.14057733
v -0.99765527 0.42831245 0.14836095
v -0.99520385 0.40995497 0.16998212
v -0.99157381 0.40995497 0.18993765
v -0.99030101 0.42992276 0.18993765
v -0.96083683 0.44135594 0.30265599
v -0.96272254 0.44393241 0.28997156
v -0.96545684 0.44707254 0.26998401
v -0.98638815 0.42992276 0.20998928
v -0.97945815 0.43652502 0.23785655
v -0.95956397 0.45987445 0.23926593
v -0.97342390 0.45617077 0.18993765
v -0.94061261 0.46027705 0.30281615
v -0.94197977 0.46076012 0.28997156
v -0.94419545 0.46124321 0.26998401
v -0.94994688 0.46188736 0.20998928
v -0.90992278 0.46164581 0.32821700
v -0.95814967 0.46051860 0.00098470
v -1.00038958 0.29715300 0.00098470
v -1.00034237 0.29731405 0.01001754
v -1.00020099 0.29852176 0.02609728
v -1.00010669 0.33877942 0.10117877
v -0.99930525 0.34650889 0.11453585
v -0.99996525 0.31993884 0.08007011
v -0.99930525 0.32541388 0.09339515
v -0.99963522 0.30222547 0.05002470
v -0.99883378 0.29111436 0.03167073
v -0.99779665 0.28998715 0.05002470
v -0.99897522 0.30713689 0.07001226
v -0.99963522 0.38998717 0.13785467
v -0.99873954 0.40882775 0.14836095
v -0.99779665 0.38998717 0.15005861
v -0.99449670 0.38998717 0.16998212
v -0.99897522 0.36993885 0.13304996
v -0.99807954 0.35182291 0.12808511
v -0.99081957 0.38998717 0.18993765
v -0.98761386 0.40995497 0.20998928
v -0.94782543 0.44530118 0.32821700
v -0.94650543 0.44779715 0.32821700
v -0.97233963 0.42992276 0.26998401
v -0.96682394 0.42992276 0.28997156
v -0.96192110 0.42992276 0.30611536
v -0.95866823 0.42992276 0.31610915
v -0.95451975 0.42992276 0.32821700
v -0.94513834 0.44908541 0.32821700
v -0.95197403 0.45391634 0.28997156
v -0.95423687 0.45713693 0.26998401
v -0.98040104 0.42315948 0.24173234
v -0.98195672 0.42984223 0.23071356
v -0.97766674 0.42984223 0.24903549
v -0.93783122 0.45939136 0.31614119
v -0.92661124 0.46100166 0.32821700
v -0.92547983 0.46124321 0.32821700
v -0.92995840 0.46180683 0.28997156
v -0.89865565 0.46027705 0.32821700
v -0.89040571 0.45762002 0.32821700
v -0.95263398 0.45866674 0.00098470
v -0.99888098 0.28724962 0.00098470
v -0.99883378 0.28733015 0.01001754
v -0.99543953 0.26993883 0.03000511
v -0.99553382 0.30995494 0.11005145
v -0.99831522 0.33121097 0.10870614
v -0.99548668 0.32992274 0.13000698
v -0.99812669 0.31188729 0.08804592
v -0.99647665 0.28998715 0.07001226
v -0.99449670 0.26993883 0.05002470
v -0.99477953 0.28998715 0.09003186
v -0.99642956 0.36993885 0.15005861
v -0.99312955 0.36993885 0.16998212
v -0.99463809 0.34997106 0.15005861
v -0.98681241 0.38998717 0.20998928
v -0.98945242 0.36993885 0.18993765
v -0.98322958 0.40995497 0.22994481
v -0.97342390 0.40995497 0.26998401
v -0.96786106 0.40995497 0.28997156
v -0.96243966 0.40995497 0.30771694
v -0.95923400 0.40995497 0.31767869
v -0.95555687 0.40995497 0.32821700
v -0.93533266 0.45778108 0.32821700
v -0.98044819 0.40995497 0.24205266
v -0.97804391 0.40995497 0.25207847
v -0.88870859 0.45697591 0.32821700
v -0.94815546 0.45713693 0.00098470
v -0.99600524 0.26993883 0.00098470
v -0.99595809 0.26993883 0.01001754
v -0.99176240 0.24997103 0.03000511
v -0.99294096 0.30995494 0.13000698
v -0.99261099 0.28998715 0.11005145
v -0.99251670 0.32992274 0.15005861
v -0.99317670 0.26993883 0.07001226
v -0.99081957 0.24997103 0.05002470
v -0.99143243 0.26993883 0.09003186
v -0.98931098 0.26993883 0.11005145
v -0.99129099 0.34997106 0.16998212
v -0.98539817 0.36993885 0.20998928
v -0.98162675 0.36993885 0.22715807
v -0.98200387 0.38942355 0.23161045
v -0.98021245 0.39570376 0.24102765
v -0.98761386 0.34997106 0.18993765
v -0.97252822 0.38998717 0.26998401
v -0.96687108 0.38998717 0.28997156
v -0.96192110 0.38998717 0.30614740
v -0.95876253 0.38998717 0.31614119
v -0.95461398 0.38998717 0.32821700
v -0.95546257 0.40737846 0.32821700
v -0.86806011 0.44683099 0.32821700
v -0.93995261 0.45286962 0.00098470
v -0.99435526 0.26092112 0.00098470
v -0.99223381 0.24997103 0.01001754
v -0.98766100 0.23000322 0.03000511
v -0.98676527 0.23000322 0.05002470
v -0.99001813 0.28998715 0.13000698
v -0.98997098 0.30995494 0.15005861
v -0.98916960 0.32992274 0.16998212
v -0.98949957 0.24997103 0.07001226
v -0.98775530 0.24997103 0.09003186
v -0.98553956 0.24997103 0.11005145
v -0.98242819 0.24828021 0.13157652
v -0.98671818 0.26993883 0.13000698
v -0.98355961 0.34997106 0.20998928
v -0.98073101 0.34997106 0.22312213
v -0.97931671 0.36993885 0.23718390
v -0.97978818 0.38241872 0.23936203
v -0.97794962 0.38942355 0.24858706
v -0.98549247 0.32992274 0.18993765
v -0.97620535 0.36993885 0.24996440
v -0.97101963 0.36993885 0.26998401
v -0.96531534 0.36993885 0.28997156
v -0.96111965 0.36993885 0.30368099
v -0.95791399 0.36993885 0.31364274
v -0.95301116 0.36993885 0.32821700
v -0.84967446 0.43169409 0.32821700
v -0.86014009 0.43982616 0.32033730
v -0.91944557 0.44038975 0.00098470
v -0.92524409 0.44441551 0.00098470
v -0.92995840 0.44763613 0.00098470
v -0.99228096 0.24997103 0.00098470
v -0.99044240 0.24095331 0.00098470
v -0.98813242 0.23000322 0.01001754
v -0.98318243 0.20995492 0.03000511
v -0.98539817 0.23000322 0.07001226
v -0.98016530 0.19924638 0.04342625
v -0.98190957 0.20850565 0.05005673
v -0.97978818 0.20077617 0.05675129
v -0.98162675 0.21285346 0.07001226
v -0.98704815 0.28998715 0.15005861
v -0.98662388 0.30995494 0.16998212
v -0.98242819 0.30834463 0.19166735
v -0.98365390 0.23000322 0.09003186
v -0.98153245 0.22968116 0.10896239
v -0.98077816 0.23620291 0.12587494
v -0.97983533 0.24055074 0.13919999
v -0.98096675 0.25480193 0.15005861
v -0.98374814 0.26993883 0.15005861
v -0.98148531 0.33113047 0.21021350
v -0.98011816 0.33861840 0.22062369
v -0.97832674 0.34997106 0.23314795
v -0.98073101 0.31406122 0.20371112
v -0.97422534 0.34997106 0.24996440
v -0.96903968 0.34997106 0.26998401
v -0.96276969 0.34932694 0.29144502
v -0.96045971 0.35560712 0.30150285
v -0.95734829 0.34932694 0.30887008
v -0.95093685 0.34989053 0.32821700
v -0.84910876 0.43113050 0.32821700
v -0.84859014 0.43056688 0.32821700
v -0.91062987 0.42992276 0.00098470
v -0.98817956 0.23000322 0.00098470
v -0.98374814 0.20995492 0.00098470
v -0.98365390 0.20995492 0.01001754
v -0.98063672 0.19715299 0.01001754
v -0.98040104 0.19819967 0.03000511
v -0.98073101 0.21663769 0.09003186
v -0.97794962 0.18813527 0.03000511
v -0.97790247 0.19151691 0.05005673
v -0.97926962 0.20278905 0.07001226
v -0.97620535 0.18998712 0.07001226
v -0.97842103 0.20665379 0.09003186
v -0.98091960 0.27138811 0.16844462
v -0.98370099 0.28998715 0.16998212
v -0.98096675 0.28998715 0.18513295
v -0.97983533 0.30069569 0.19941893
v -0.98011816 0.21921417 0.10156315
v -0.97936392 0.22283737 0.11488819
v -0.97860962 0.22968116 0.13157652
v -0.97898674 0.24489856 0.15005861
v -0.97592247 0.23000322 0.15005861
v -0.98007101 0.25923029 0.16085318
v -0.97931671 0.32525286 0.21703617
v -0.97743106 0.33113047 0.22837527
v -0.97860962 0.30834463 0.21021350
v -0.97196251 0.32992274 0.24996440
v -0.96668255 0.32992274 0.26998401
v -0.96192110 0.32992274 0.28651217
v -0.95965827 0.34232211 0.29910052
v -0.95466113 0.32992274 0.30995911
v -0.94843829 0.32992274 0.32821700
v -0.83425879 0.41228992 0.32821700
v -0.90115422 0.41800651 0.00098470
v -0.98068386 0.19707246 0.00098470
v -0.97818530 0.18716908 0.01001754
v -0.97332966 0.17001933 0.03000511
v -0.97238678 0.17001933 0.05002470
v -0.97441393 0.18998712 0.09003186
v -0.97106677 0.17001933 0.07001226
v -0.96932250 0.17001933 0.09003186
v -0.97224534 0.18998712 0.11005145
v -0.97752535 0.21148470 0.10896239
v -0.98011816 0.27911758 0.18071263
v -0.97893959 0.26575202 0.17411417
v -0.97898674 0.28998715 0.19515876
v -0.97592247 0.28998715 0.20998928
v -0.97446108 0.20995492 0.13000698
v -0.97724247 0.25150082 0.16844462
v -0.97252822 0.23000322 0.16998212
v -0.97144389 0.20995492 0.15005861
v -0.96814394 0.20995492 0.16998212
v -0.97431964 0.30995494 0.22994481
v -0.96932250 0.30995494 0.24996440
v -0.96324110 0.30826411 0.27180979
v -0.96088398 0.31390020 0.28289264
v -0.95890397 0.32992274 0.29653800
v -0.95183259 0.30995494 0.30995911
v -0.94565690 0.30995494 0.32821700
v -0.94820261 0.32815140 0.32821700
v -0.83341026 0.41092116 0.32821700
v -0.52905726 -0.18577787 0.00098470
v -0.97818530 0.18708856 0.00098470
v -0.97380108 0.17001933 0.00098470
v -0.97375393 0.17001933 0.01001754
v -0.96833253 0.14997101 0.01001754
v -0.96786106 0.14997101 0.03000511
v -0.96696538 0.14997101 0.05002470
v -0.96564537 0.14997101 0.07001226
v -0.96390110 0.14997101 0.09003186
v -0.96003538 0.13974556 0.10047408
v -0.96715391 0.17001933 0.11005145
v -0.96965253 0.18998712 0.13000698
v -0.97728962 0.27138811 0.18840015
v -0.97295249 0.24997103 0.18993765
v -0.97130251 0.28998715 0.22994481
v -0.97257537 0.26993883 0.20998928
v -0.96668255 0.18998712 0.15005861
v -0.96880394 0.23000322 0.18993765
v -0.96281683 0.18877938 0.17091103
v -0.95965827 0.18121095 0.17821418
v -0.96097827 0.19586474 0.18993765
v -0.96432537 0.20995492 0.18993765
v -0.96630538 0.28998715 0.24996440
v -0.96182680 0.28998715 0.26658869
v -0.95984685 0.30053467 0.27965748
v -0.95796114 0.30826411 0.28974736
v -0.95499110 0.28998715 0.28997156
v -0.94862688 0.28998715 0.30995911
v -0.94537401 0.30818361 0.32821700
v -0.82332170 0.39344934 0.32821700
v -0.52905726 -0.11886965 0.32821700
v -0.52905726 -0.36057663 0.00098470
v -0.97134966 0.16092110 0.00098470
v -0.96837962 0.14997101 0.00098470
v -0.96272254 0.13056681 0.01001754
v -0.96248680 0.13137197 0.03000511
v -0.96206254 0.13282123 0.05002470
v -0.96140254 0.13507567 0.07001226
v -0.96055400 0.13805473 0.09003186
v -0.95923400 0.14264411 0.11379912
v -0.96177971 0.14956844 0.10832176
v -0.95753682 0.12807083 0.09003186
v -0.95192689 0.10995489 0.09003186
v -0.94971114 0.10995489 0.11005145
v -0.95668828 0.13185506 0.10832176
v -0.96093112 0.15649274 0.13000698
v -0.96456110 0.17001933 0.13000698
v -0.96880394 0.24997103 0.20998928
v -0.96795535 0.26993883 0.22994481
v -0.96177971 0.17001933 0.14871329
v -0.96083683 0.17670208 0.16485710
v -0.96097827 0.21172625 0.20797130
v -0.96460825 0.23000322 0.20998928
v -0.95796114 0.17001933 0.17091103
v -0.95258689 0.14997101 0.16998212
v -0.95428401 0.17001933 0.18993765
v -0.95847970 0.18588084 0.18993765
v -0.95994115 0.19997102 0.20002753
v -0.96258110 0.26961678 0.25082925
v -0.96064824 0.27613851 0.26242459
v -0.95899826 0.28998715 0.27655041
v -0.95145547 0.26993883 0.28997156
v -0.94273406 0.29175848 0.32821700
v -0.94405401 0.26800644 0.31194508
v -0.94117832 0.27340099 0.32341230
v -0.52905726 -0.32047999 0.32821700
v -0.52905726 -0.36065716 0.01001754
v -0.55003572 -0.35228354 0.00098470
v -0.96276969 0.13056681 0.00098470
v -0.95979971 0.12058292 0.01001754
v -0.95956397 0.12138806 0.03000511
v -0.95909256 0.12283734 0.05002470
v -0.95843256 0.12509176 0.07001226
v -0.95810258 0.14642833 0.13000698
v -0.95324683 0.13000321 0.13000698
v -0.95371830 0.10995489 0.07001226
v -0.94711828 0.08998709 0.07001226
v -0.94523263 0.08998709 0.09003186
v -0.94273406 0.08894040 0.10928270
v -0.94183832 0.09457646 0.13000698
v -0.94697690 0.10995489 0.13000698
v -0.96012968 0.15931079 0.14118592
v -0.96008253 0.21961676 0.22033539
v -0.96338254 0.24819969 0.23177060
v -0.96121395 0.25367475 0.24467923
v -0.95904541 0.16333655 0.15447894
v -0.95847970 0.20625120 0.21332054
v -0.94867402 0.14997101 0.18993765
v -0.95673543 0.15158132 0.14871329
v -0.95018256 0.13000321 0.15005861
v -0.94669402 0.13000321 0.16998212
v -0.94268692 0.12952012 0.18971343
v -0.94999403 0.17001933 0.20998928
v -0.95616972 0.19191949 0.20797130
v -0.95942253 0.26277298 0.25803632
v -0.95748973 0.26961678 0.26947150
v -0.95352972 0.24997103 0.26998401
v -0.94754261 0.24997103 0.28997156
v -0.94221544 0.24997103 0.30669194
v -0.94032979 0.27815139 0.32821700
v -0.93995261 0.26003546 0.31988883
v -0.93877405 0.26953626 0.32821700
v -0.53528011 -0.31782299 0.32821700
v -0.53848577 -0.31927228 0.31726229
v -0.52905726 -0.32450578 0.31226540
v -0.52905726 -0.36057663 0.01760897
v -0.57002425 -0.34431252 0.01001754
v -0.57002425 -0.34431252 0.00098470
v -0.95979971 0.12050240 0.00098470
v -0.95645255 0.10995489 0.01001754
v -0.95598114 0.10995489 0.03000511
v -0.95503831 0.10995489 0.05002470
v -0.94843829 0.08998709 0.05002470
v -0.94249833 0.07315939 0.05002470
v -0.94179118 0.07509176 0.07001226
v -0.94089550 0.07750722 0.09003186
v -0.94023550 0.07927856 0.10210768
v -0.93938690 0.08161350 0.11543272
v -0.93834978 0.08451205 0.13000698
v -0.94075406 0.09771656 0.14467734
v -0.94329977 0.10858613 0.15082736
v -0.95046544 0.18998712 0.22994481
v -0.95621681 0.21172625 0.22818309
v -0.95022976 0.20995492 0.24996440
v -0.95871544 0.23000322 0.23500577
v -0.95984685 0.24047022 0.23958623
v -0.96116686 0.23000322 0.22497995
v -0.95847970 0.24819969 0.25082925
v -0.94122547 0.13588083 0.20547286
v -0.94362974 0.14852172 0.21123850
v -0.94179118 0.11438324 0.16998212
v -0.94056547 0.11808694 0.18285872
v -0.93915123 0.12251528 0.19621579
v -0.94164979 0.15423831 0.22661355
v -0.94414830 0.16800644 0.23196279
v -0.94923973 0.23000322 0.26998401
v -0.94296974 0.22984220 0.29064423
v -0.94075406 0.23644446 0.30233568
v -0.93886834 0.24997103 0.31671774
v -0.93820834 0.26655719 0.32821700
v -0.93438983 0.24819969 0.32821700
v -0.93476695 0.24997103 0.32821700
v -0.54932857 -0.31605166 0.31034350
v -0.55201572 -0.30993250 0.32821700
v -0.54221004 -0.32096308 0.30393723
v -0.53004724 -0.32925618 0.28997156
v -0.52905726 -0.32965875 0.29000360
v -0.52905726 -0.36041561 0.03000511
v -0.55003572 -0.35204199 0.03000511
v -0.58025420 -0.34004521 0.02407931
v -0.58039558 -0.34012574 0.01001754
v -0.58039558 -0.34004521 0.00098470
v -0.95645255 0.10995489 0.00098470
v -0.94989973 0.08998709 0.01001754
v -0.94938117 0.08998709 0.03000511
v -0.94296974 0.07187115 0.03000511
v -0.93924546 0.06180673 0.03000511
v -0.93877405 0.06317549 0.05002470
v -0.93806696 0.06502734 0.07001226
v -0.93712407 0.06752332 0.09003186
v -0.93641692 0.07154909 0.10928270
v -0.93297553 0.07001929 0.13000698
v -0.93717122 0.09063122 0.15082736
v -0.92976981 0.07001929 0.15005861
v -0.93962264 0.10101769 0.15803443
v -0.94523263 0.18998712 0.24996440
v -0.94131976 0.17501128 0.24996440
v -0.94127262 0.18998712 0.26441056
v -0.94381833 0.20858616 0.27152151
v -0.95480257 0.23000322 0.24996440
v -0.93966979 0.14095329 0.21876587
v -0.93792552 0.12952012 0.21123850
v -0.93849123 0.10431882 0.16998212
v -0.93674695 0.11084056 0.18971343
v -0.93193841 0.10995489 0.20998928
v -0.93995261 0.16003542 0.23993859
v -0.93863261 0.14852172 0.23196279
v -0.94131976 0.21422222 0.28439811
v -0.93924546 0.22315943 0.29772314
v -0.93688834 0.22984220 0.30941460
v -0.93038267 0.23000322 0.32821700
v -0.55597574 -0.31806454 0.28997156
v -0.57134426 -0.30518210 0.31066382
v -0.57002425 -0.31130126 0.28997156
v -0.56601709 -0.30300817 0.32821700
v -0.55908716 -0.31951383 0.27802387
v -0.54593432 -0.32249287 0.28997156
v -0.55145001 -0.32434472 0.27078480
v -0.52905726 -0.33392605 0.26998401
v -0.52905726 -0.35985199 0.05002470
v -0.55003572 -0.35155892 0.05002470
v -0.57195711 -0.34326583 0.03045355
v -0.57992417 -0.33988419 0.03743638
v -0.58812702 -0.33650255 0.03045355
v -0.59038985 -0.33585843 0.01001754
v -0.58586419 -0.33779079 0.00098470
v -0.94989973 0.08998709 0.00098470
v -0.94325262 0.07106599 0.00098470
v -0.94325262 0.07114651 0.01001754
v -0.93952835 0.06116261 0.01001754
v -0.93509692 0.05005150 0.01001754
v -0.93453121 0.05005150 0.03000511
v -0.93358839 0.05005150 0.05002470
v -0.93212694 0.05005150 0.07001226
v -0.93024123 0.05005150 0.09003186
v -0.92788410 0.05005150 0.11005145
v -0.92420697 0.04819964 0.13164058
v -0.92298126 0.05238644 0.15005861
v -0.93354124 0.08998709 0.16998212
v -0.92118984 0.05689530 0.16998212
v -0.92618698 0.07001929 0.16998212
v -0.93995261 0.17992270 0.25999022
v -0.93830264 0.18998712 0.27443635
v -0.93971694 0.20093720 0.27917701
v -0.93344694 0.13000321 0.22994481
v -0.92703557 0.10995489 0.22994481
v -0.92953408 0.08998709 0.18993765
v -0.92420697 0.08837679 0.21136662
v -0.91972840 0.08064732 0.21892603
v -0.92184985 0.09465698 0.22994481
v -0.93858552 0.16502737 0.24996440
v -0.93420124 0.14997101 0.24996440
v -0.92816699 0.13000321 0.24996440
v -0.93797266 0.20858616 0.29064423
v -0.93198550 0.20995492 0.30995911
v -0.92538553 0.20898873 0.32821700
v -0.58242273 -0.30123684 0.30444974
v -0.58609986 -0.30308869 0.28997156
v -0.59147412 -0.30518210 0.27075276
v -0.56936425 -0.31621268 0.27078480
v -0.57601136 -0.29769418 0.32821700
v -0.57888705 -0.29930446 0.31780681
v -0.56224567 -0.32096308 0.26469883
v -0.55003572 -0.32925618 0.24996440
v -0.52905726 -0.33746874 0.25211051
v -0.52905726 -0.35944942 0.06027474
v -0.55003572 -0.35075375 0.07001226
v -0.56837422 -0.34342685 0.07001226
v -0.56945848 -0.34374893 0.05002470
v -0.57945275 -0.33964264 0.05002470
v -0.59005988 -0.33521429 0.05002470
v -0.61004835 -0.32692122 0.03000511
v -0.59034270 -0.33585843 0.00098470
v -0.61004835 -0.32716277 0.01001754
v -0.59925270 -0.33199370 0.00098470
v -0.94122547 0.06559095 0.00098470
v -0.93952835 0.06116261 0.00098470
v -0.93754834 0.05609014 0.00098470
v -0.93514407 0.05005150 0.00098470
v -0.92684698 0.03000318 0.01001754
v -0.92642272 0.03048627 0.03000511
v -0.92637557 0.03040576 0.03038949
v -0.92543268 0.03040576 0.05002470
v -0.92307556 0.03274070 0.09003186
v -0.92401838 0.03040576 0.06898727
v -0.92321700 0.03040576 0.07795604
v -0.92194414 0.03547822 0.11005145
v -0.92085987 0.03797420 0.12603509
v -0.91986984 0.04030914 0.13939217
v -0.91897416 0.04248305 0.15005861
v -0.91718274 0.04691140 0.16998212
v -0.92015272 0.05947179 0.18093684
v -0.92246270 0.06985826 0.18856031
v -0.92844981 0.14997101 0.26998401
v -0.93533266 0.17195168 0.26796603
v -0.93344694 0.18998712 0.28997156
v -0.92802554 0.17001933 0.28997156
v -0.92222703 0.11051850 0.24887533
v -0.92034125 0.09884378 0.24144407
v -0.92128414 0.07654104 0.20563301
v -0.91746557 0.06985826 0.21136662
v -0.91289276 0.07001929 0.22994481
v -0.91831416 0.08459257 0.22994481
v -0.92265129 0.13032526 0.26950353
v -0.92076558 0.11768436 0.26255274
v -0.92684698 0.18998712 0.30995911
v -0.92123699 0.19264412 0.32821700
v -0.58944702 -0.29552025 0.31066382
v -0.59609413 -0.29777467 0.28997156
v -0.59906411 -0.29938498 0.27789575
v -0.59005988 -0.31065711 0.24996440
v -0.60208124 -0.30107582 0.26457071
v -0.57553995 -0.31782299 0.24996440
v -0.58996558 -0.28980365 0.32821700
v -0.56549853 -0.32249287 0.24996440
v -0.55003572 -0.33295986 0.22994481
v -0.53650582 -0.33851543 0.22994481
v -0.52905726 -0.34141397 0.22994481
v -0.52905726 -0.35904685 0.07001226
v -0.55003572 -0.34962654 0.09003186
v -0.56695998 -0.34278274 0.09003186
v -0.57695419 -0.33867645 0.09003186
v -0.57841563 -0.33924007 0.07001226
v -0.59005988 -0.33424813 0.07001226
v -0.61004835 -0.32627711 0.05002470
v -0.62169260 -0.32080206 0.05002470
v -0.62230539 -0.32112411 0.03000511
v -0.62268257 -0.32128516 0.01001754
v -0.61004835 -0.32716277 0.00098470
v -0.92703557 0.03040576 0.00098470
v -0.92434841 0.02420608 0.00098470
v -0.92123699 0.01728176 0.01001754
v -0.92095411 0.01784537 0.03000511
v -0.92048270 0.01889207 0.05002470
v -0.92010558 0.01977774 0.06149193
v -0.92208558 0.03040576 0.09003186
v -0.91949272 0.02106598 0.07484900
v -0.91977561 0.03040576 0.11005145
v -0.91760701 0.02541381 0.11005145
v -0.91680562 0.03040576 0.13125621
v -0.91378844 0.03040576 0.15005861
v -0.91015846 0.03040576 0.16998212
v -0.91539133 0.05166180 0.18856031
v -0.90582132 0.03040576 0.19112282
v -0.91878557 0.06317549 0.19429392
v -0.92260414 0.15053461 0.28958720
v -0.92081273 0.13716906 0.28266841
v -0.92208558 0.17130756 0.30922240
v -0.92062414 0.15761995 0.30201536
v -0.91854990 0.10431882 0.25480115
v -0.91567415 0.09127533 0.24887533
v -0.90992278 0.05005150 0.20998928
v -0.90431279 0.04884376 0.23071356
v -0.90186137 0.05536551 0.24996440
v -0.90756559 0.07001929 0.24996440
v -0.91878557 0.12388404 0.27587777
v -0.91633415 0.11051850 0.26950353
v -0.92170841 0.18998712 0.32485372
v -0.92024702 0.17895652 0.32075369
v -0.92052984 0.18998712 0.32821700
v -0.60354269 -0.28191316 0.32821700
v -0.61028409 -0.28400657 0.30845365
v -0.61004835 -0.28956211 0.28997156
v -0.60924691 -0.29527870 0.27075276
v -0.60514551 -0.30276662 0.24996440
v -0.61089694 -0.30413538 0.22901590
v -0.61004835 -0.30848321 0.20998928
v -0.58873987 -0.31548804 0.22972059
v -0.61513972 -0.29705003 0.24996440
v -0.57846278 -0.31919175 0.23622295
v -0.57110852 -0.32378113 0.22972059
v -0.57002425 -0.32780689 0.20998928
v -0.54904574 -0.33666357 0.21062991
v -0.53914577 -0.33964264 0.21767680
v -0.52905726 -0.34310481 0.22001509
v -0.52905726 -0.35791963 0.09003186
v -0.55003572 -0.34817725 0.11005145
v -0.56521571 -0.34205809 0.11005145
v -0.52905726 -0.35647035 0.11014755
v -0.57520992 -0.33795181 0.11005145
v -0.59005988 -0.33304039 0.09003186
v -0.61004835 -0.32531092 0.07001226
v -0.62008971 -0.31999689 0.08035839
v -0.62070256 -0.32023844 0.07001226
v -0.63168681 -0.31556857 0.05002470
v -0.63234681 -0.31597114 0.03000511
v -0.63267684 -0.31613216 0.01001754
v -0.62268257 -0.32128516 0.00098470
v -0.92123699 0.01720124 0.00098470
v -0.91873842 0.01172620 0.00098470
v -0.91656989 0.00721735 0.01001754
v -0.91628700 0.00786147 0.03000511
v -0.91581559 0.00890817 0.05002470
v -0.91576844 0.01188723 0.06889117
v -0.91873842 0.02275680 0.09003186
v -0.91289276 0.01003538 0.09003186
v -0.91058278 0.01003538 0.11005145
v -0.90780133 0.01003538 0.13000698
v -0.90398276 0.00882765 0.14989845
v -0.90280426 0.01406115 0.16998212
v -0.90120137 0.01736227 0.18567748
v -0.90289849 0.03338482 0.20998928
v -0.90407705 0.03040576 0.19909862
v -0.89973998 0.02050237 0.19903456
v -0.91869128 0.14433494 0.29602548
v -0.91647559 0.13032526 0.28958720
v -0.91836131 0.16559097 0.31534040
v -0.91609848 0.15053461 0.30922240
v -0.90916848 0.08998709 0.26998401
v -0.90115422 0.03741059 0.22449948
v -0.89940995 0.04135584 0.23785655
v -0.90030563 0.05914973 0.26111132
v -0.90242708 0.07058290 0.26860666
v -0.90978134 0.10995489 0.28997156
v -0.90313423 0.09006761 0.28958720
v -0.91534418 0.17106602 0.32821700
v -0.91911554 0.18475363 0.32821700
v -0.62046689 -0.28022233 0.30079818
v -0.61339545 -0.27563298 0.32821700
v -0.61707258 -0.27804843 0.31412321
v -0.62291825 -0.28175214 0.28997156
v -0.62739682 -0.28457016 0.26998401
v -0.61815691 -0.29882139 0.23506983
v -0.62070256 -0.30035117 0.22177681
v -0.61004835 -0.31202587 0.18993765
v -0.59722555 -0.31862813 0.18993765
v -0.59364271 -0.31685680 0.20998928
v -0.62277687 -0.30147839 0.20998928
v -0.62607682 -0.30341074 0.18993765
v -0.58119702 -0.32047999 0.22286588
v -0.63187540 -0.28658304 0.25150192
v -0.57002425 -0.33094698 0.18993765
v -0.55437285 -0.33762977 0.18993765
v -0.58364844 -0.32160720 0.20998928
v -0.58723128 -0.32329804 0.18993765
v -0.54173863 -0.34060884 0.20438379
v -0.52905726 -0.34463459 0.21053381
v -0.55003572 -0.34648645 0.13000698
v -0.56314141 -0.34117243 0.13000698
v -0.52905726 -0.35469902 0.13000698
v -0.53004724 -0.35437694 0.13000698
v -0.57308853 -0.33698565 0.13000698
v -0.59005988 -0.32965875 0.13000698
v -0.59005988 -0.33151060 0.11005145
v -0.61146259 -0.32345906 0.08820608
v -0.61900544 -0.31943330 0.09368344
v -0.62805682 -0.31508547 0.08820608
v -0.63069683 -0.31500494 0.07001226
v -0.64894104 -0.30502105 0.07001226
v -0.65186387 -0.30453795 0.04948017
v -0.65007246 -0.30622879 0.03000511
v -0.65007246 -0.30663136 0.01001754
v -0.63267684 -0.31613216 0.00098470
v -0.65007246 -0.30671188 0.00098470
v -0.91661704 0.00721735 0.00098470
v -0.90817845 -0.00993242 0.01001754
v -0.90761280 -0.00993242 0.03000511
v -0.90662277 -0.00993242 0.05002470
v -0.90421849 -0.01170375 0.07026852
v -0.90412420 -0.00824159 0.09003186
v -0.90294564 -0.00590665 0.11005145
v -0.90153134 -0.00308862 0.13000698
v -0.90049422 -0.00107573 0.14313984
v -0.89931566 0.00133973 0.15643285
v -0.89804280 0.00407725 0.16998212
v -0.89662850 0.01043796 0.19141109
v -0.90157855 0.03040576 0.20998928
v -0.89219713 0.01003538 0.20998928
v -0.89846706 0.02340093 0.20998928
v -0.90959275 0.13000321 0.30995911
v -0.90322852 0.11011592 0.30989507
v -0.90926278 0.15005152 0.32821700
v -0.90087140 0.07766825 0.28273249
v -0.89639282 0.03040576 0.23071356
v -0.89771283 0.04546212 0.24996440
v -0.89092427 0.03000318 0.24996440
v -0.89101857 0.03040576 0.25028473
v -0.89478999 0.05150077 0.26860666
v -0.89823139 0.06430271 0.27443635
v -0.90105993 0.09691141 0.30320051
v -0.89865565 0.08354586 0.29605752
v -0.62829256 -0.27241236 0.30845365
v -0.64762104 -0.26524648 0.28997156
v -0.63291252 -0.27523038 0.28997156
v -0.63739109 -0.27820945 0.26998401
v -0.63036680 -0.26428032 0.32821700
v -0.64040822 -0.26017404 0.32059354
v -0.63974822 -0.27973926 0.25915739
v -0.62843394 -0.29399046 0.22901590
v -0.63277113 -0.29560077 0.20998928
v -0.60877550 -0.31581011 0.17052665
v -0.59929979 -0.31959432 0.17750949
v -0.63607109 -0.29761365 0.18993765
v -0.63107395 -0.30413538 0.16857274
v -0.63842821 -0.29898241 0.17433839
v -0.64234108 -0.28143007 0.24586439
v -0.64535820 -0.28336245 0.22994481
v -0.57002425 -0.33376503 0.16998212
v -0.59161556 -0.32410318 0.17052665
v -0.55776715 -0.33899853 0.16998212
v -0.54437864 -0.34165552 0.18993765
v -0.52905726 -0.34769419 0.18987359
v -0.52905726 -0.34753314 0.19096266
v -0.55173290 -0.34366840 0.15098752
v -0.56134999 -0.34044778 0.14499766
v -0.52905726 -0.35268614 0.15005861
v -0.56879854 -0.33658305 0.15098752
v -0.59005988 -0.32740432 0.15005861
v -0.60311836 -0.32144618 0.15005861
v -0.60547549 -0.32257339 0.13000698
v -0.60754979 -0.32353958 0.11005145
v -0.61754405 -0.31870866 0.11005145
v -0.63003683 -0.31210640 0.11005145
v -0.64757389 -0.30429640 0.09003186
v -0.65893525 -0.29922396 0.07001226
v -0.65973669 -0.29970706 0.05585441
v -0.66020811 -0.30002910 0.04249734
v -0.66053814 -0.30027065 0.03000511
v -0.66086811 -0.30043167 0.01001754
v -0.66086811 -0.30051219 0.00098470
v -0.90822566 -0.00993242 0.00098470
v -0.90153134 -0.02297590 0.01001754
v -0.90124851 -0.02241229 0.03000511
v -0.90077710 -0.02144611 0.05002470
v -0.90025854 -0.02056044 0.06370209
v -0.89969277 -0.01951374 0.07705916
v -0.89903283 -0.01822549 0.09003186
v -0.89785421 -0.01589055 0.11005145
v -0.89648712 -0.01307251 0.13000698
v -0.89545000 -0.00864417 0.14989845
v -0.89101857 -0.00993242 0.16998212
v -0.88555002 -0.01186479 0.19173141
v -0.87989289 -0.01983580 0.19957909
v -0.88366431 -0.00735593 0.20998928
v -0.88163716 -0.00333016 0.22635730
v -0.88573861 0.00810301 0.23180263
v -0.90096569 0.11687921 0.32273963
v -0.90247422 0.12782928 0.32821700
v -0.89874995 0.10359418 0.31652555
v -0.89587426 0.07058290 0.28958720
v -0.88319290 0.01325599 0.24996440
v -0.88451290 0.02911751 0.27033633
v -0.88116574 0.01744279 0.26393008
v -0.88210857 0.03523668 0.28657624
v -0.88592714 0.04811913 0.29192549
v -0.89625138 0.09006761 0.30989507
v -0.88870859 0.07001929 0.30995911
v -0.64290679 -0.26194537 0.30995911
v -0.65756816 -0.25808063 0.28997156
v -0.65992528 -0.25985196 0.27959341
v -0.65195817 -0.26766196 0.27174571
v -0.63842821 -0.25872475 0.32821700
v -0.65092105 -0.24946550 0.32821700
v -0.65294814 -0.25469899 0.30995911
v -0.66261238 -0.26186484 0.26626837
v -0.64941245 -0.27514988 0.25150192
v -0.65535241 -0.27676019 0.22994481
v -0.65092105 -0.28457016 0.20864396
v -0.65007246 -0.28899851 0.18993765
v -0.61311263 -0.31645423 0.15005861
v -0.60123265 -0.32056051 0.16428053
v -0.63003683 -0.30743653 0.15005861
v -0.64031392 -0.30010962 0.16107740
v -0.64823389 -0.29399046 0.16857274
v -0.65813386 -0.27869254 0.21440960
v -0.55960572 -0.33972317 0.15829067
v -0.54772574 -0.34302428 0.16998212
v -0.52905726 -0.35035118 0.16998212
v -0.61551690 -0.31766197 0.13000698
v -0.63003683 -0.31001300 0.13000698
v -0.64592391 -0.30333024 0.11005145
v -0.65756816 -0.29841879 0.09003186
v -0.67006093 -0.29028675 0.09003186
v -0.67006093 -0.29197758 0.07001226
v -0.66817522 -0.29447356 0.04948017
v -0.67053235 -0.29374892 0.03000511
v -0.67086238 -0.29390994 0.01001754
v -0.67090952 -0.29390994 0.00098470
v -0.90157855 -0.02297590 0.00098470
v -0.89610994 -0.03295980 0.01001754
v -0.89582711 -0.03239619 0.03000511
v -0.89530855 -0.03143001 0.05002470
v -0.89549708 -0.02837043 0.07026852
v -0.89271569 -0.02998073 0.09003186
v -0.89040571 -0.02998073 0.11005145
v -0.88757718 -0.02998073 0.13000698
v -0.88022292 -0.04044772 0.14150624
v -0.88399428 -0.03094692 0.14890549
v -0.88295716 -0.02563290 0.16998212
v -0.88130718 -0.02249280 0.18628608
v -0.87862003 -0.01742034 0.20998928
v -0.87635720 -0.02949764 0.19173141
v -0.86329865 -0.04576173 0.20998928
v -0.87192577 -0.02998073 0.20998928
v -0.87989289 0.00021251 0.23968235
v -0.87682861 -0.01001293 0.23180263
v -0.89997566 0.12001931 0.32821700
v -0.89714712 0.11156520 0.32821700
v -0.89639282 0.10939129 0.32821700
v -0.88960427 0.08998709 0.32821700
v -0.88234431 0.05423829 0.30995911
v -0.87909144 0.02187113 0.27728716
v -0.87838435 0.00327209 0.24996440
v -0.87583864 0.01051847 0.27033633
v -0.87994003 0.04014811 0.29990128
v -0.87857288 0.03040576 0.29080439
v -0.88253289 0.07114651 0.32821700
v -0.88036430 0.05890818 0.32113808
v -0.66600668 -0.24471509 0.30995911
v -0.67133379 -0.24729156 0.29032391
v -0.68170518 -0.24133343 0.28391764
v -0.66958952 -0.25477949 0.27174571
v -0.66171670 -0.24125293 0.32821700
v -0.66247100 -0.24189705 0.32501388
v -0.66577095 -0.26419979 0.24996440
v -0.67576522 -0.25663134 0.24996440
v -0.67109805 -0.26572958 0.22927216
v -0.66039670 -0.28022233 0.20105253
v -0.66199952 -0.28126904 0.18993765
v -0.66478097 -0.28320140 0.16998212
v -0.64168108 -0.30091476 0.15005861
v -0.64394391 -0.30228353 0.13000698
v -0.65167528 -0.29479560 0.15005861
v -0.66826952 -0.27281493 0.20864396
v -0.65591812 -0.29745263 0.11005145
v -0.67006093 -0.28827387 0.11005145
v -0.68264800 -0.28183264 0.09003186
v -0.68382657 -0.28263780 0.07001226
v -0.68472230 -0.28328192 0.05002470
v -0.68533516 -0.28368449 0.03000511
v -0.68566513 -0.28392604 0.01001754
v -0.68566513 -0.28392604 0.00098470
v -0.89610994 -0.03295980 0.00098470
v -0.88663429 -0.04994853 0.00098470
v -0.88658714 -0.04994853 0.01001754
v -0.88484287 -0.05196141 0.03192699
v -0.88531429 -0.04946544 0.05002470
v -0.88460714 -0.04817719 0.07001226
v -0.88361716 -0.04648637 0.09003186
v -0.88248575 -0.04447349 0.11005145
v -0.88107145 -0.04197751 0.13000698
v -0.87541437 -0.05204193 0.13000698
v -0.87447149 -0.04825771 0.14890549
v -0.87904429 -0.03827381 0.15486331
v -0.87763005 -0.03561680 0.16998212
v -0.86575007 -0.03159104 0.23112997
v -0.86485440 -0.05115626 0.18980953
v -0.85915011 -0.05856367 0.19637595
v -0.85750014 -0.05582615 0.20998928
v -0.86136580 -0.04246061 0.22523621
v -0.87178433 -0.00993242 0.24996440
v -0.86329865 -0.02627703 0.24996440
v -0.86928582 0.01003538 0.28997156
v -0.87763005 0.02911751 0.29192549
v -0.86509007 -0.01105963 0.27046448
v -0.85919726 -0.01846704 0.27747935
v -0.86216724 -0.00445738 0.28997156
v -0.87814862 0.04433491 0.30995911
v -0.87791288 0.03040576 0.29282236
v -0.87183148 0.03000318 0.30995911
v -0.87904429 0.06228982 0.32821700
v -0.87475431 0.05182283 0.32821700
v -0.67600089 -0.23658302 0.30995911
v -0.67882949 -0.23899850 0.29721063
v -0.68443942 -0.24358788 0.26998401
v -0.69080371 -0.23062491 0.29179734
v -0.69448084 -0.23521426 0.26998401
v -0.67039096 -0.23408705 0.32821700
v -0.67845231 -0.25872475 0.23545420
v -0.69061512 -0.24535921 0.24807456
v -0.68076229 -0.26049608 0.22212917
v -0.67204094 -0.27426422 0.18993765
v -0.66727954 -0.28481171 0.15005861
v -0.67477518 -0.27619657 0.16998212
v -0.67722660 -0.27796790 0.15005861
v -0.65393817 -0.29624489 0.13000698
v -0.68269515 -0.26194537 0.20998928
v -0.67142808 -0.28505325 0.12869370
v -0.68024373 -0.28006130 0.12113430
v -0.68118662 -0.28070542 0.11005145
v -0.69118083 -0.27337855 0.11005145
v -0.69264227 -0.27442524 0.09003186
v -0.69386798 -0.27531090 0.07001226
v -0.69476366 -0.27603555 0.05002470
v -0.69532943 -0.27643812 0.03000511
v -0.69565940 -0.27667966 0.01001754
v -0.69565940 -0.27667966 0.00098470
v -0.88380575 -0.05485997 0.00098470
v -0.88041145 -0.06073758 0.01001754
v -0.88017577 -0.06041552 0.02654572
v -0.87994003 -0.05993243 0.03983873
v -0.87965715 -0.05944934 0.05002470
v -0.87890291 -0.05816109 0.07001226
v -0.87796003 -0.05655079 0.09003186
v -0.87678146 -0.05445739 0.11005145
v -0.86443007 -0.07112406 0.12869370
v -0.86377013 -0.06637365 0.15005861
v -0.86193156 -0.06331407 0.16998212
v -0.86956865 -0.04994853 0.16998212
v -0.85957444 -0.03932051 0.23856124
v -0.86061156 -0.06114016 0.18301888
v -0.85453016 -0.06862808 0.18980953
v -0.84892017 -0.06999684 0.20998928
v -0.85566157 -0.04946544 0.23112997
v -0.84010446 -0.08014177 0.22046353
v -0.84397018 -0.07031891 0.22824714
v -0.86127156 -0.02233177 0.26412225
v -0.85792440 -0.03626093 0.24996440
v -0.86311013 0.01043796 0.30864584
v -0.86037582 -0.00075367 0.30105442
v -0.85707587 -0.01444127 0.28997156
v -0.85542583 -0.02941713 0.27046448
v -0.84217876 -0.04382937 0.28644812
v -0.84698731 -0.03191310 0.29186141
v -0.86504292 0.02968112 0.32821700
v -0.86122441 0.01736227 0.32331622
v -0.68349659 -0.22297594 0.32821700
v -0.68764514 -0.22659913 0.30995911
v -0.69994938 -0.21983585 0.29974112
v -0.69763941 -0.23787129 0.25348786
v -0.70013797 -0.24004519 0.24016282
v -0.70258939 -0.22225130 0.28641608
v -0.70574790 -0.22514987 0.26998401
v -0.69273657 -0.25405487 0.20998928
v -0.68566513 -0.26419979 0.18993765
v -0.68835229 -0.26621267 0.16998212
v -0.67897093 -0.27917564 0.13452341
v -0.69184083 -0.26693732 0.15121174
v -0.69565940 -0.25647032 0.18993765
v -0.68816370 -0.27313700 0.12869370
v -0.70258939 -0.26202586 0.13000698
v -0.70423937 -0.26331413 0.11005145
v -0.70565367 -0.26444134 0.09003186
v -0.70673794 -0.26532701 0.07001226
v -0.70758647 -0.26605165 0.05002470
v -0.70810509 -0.26645422 0.03000511
v -0.70843506 -0.26669577 0.01001754
v -0.70843506 -0.26669577 0.00098470
v -0.88041145 -0.06073758 0.00098470
v -0.87715864 -0.06629314 0.00098470
v -0.87442434 -0.07072148 0.01001754
v -0.87532008 -0.06822551 0.03192699
v -0.87334007 -0.06999684 0.05002470
v -0.87187862 -0.06999684 0.07001226
v -0.87004006 -0.06999684 0.09003186
v -0.86768293 -0.06999684 0.11005145
v -0.86014009 -0.08022229 0.12110227
v -0.85910296 -0.07853147 0.13442731
v -0.85778296 -0.07643807 0.15005861
v -0.85589731 -0.07329797 0.16998212
v -0.84208447 -0.06347510 0.24996440
v -0.85005158 -0.04994853 0.24996440
v -0.84378159 -0.08585836 0.18993765
v -0.84137732 -0.08223517 0.20998928
v -0.83491880 -0.09221907 0.20998928
v -0.82228458 -0.10341071 0.22994481
v -0.83279741 -0.08811279 0.22824714
v -0.83826590 -0.07724322 0.23378858
v -0.84415877 -0.05027059 0.26876682
v -0.85797155 0.00407725 0.31437945
v -0.85363442 -0.00840263 0.30864584
v -0.83991593 -0.03988411 0.29977316
v -0.84354591 -0.02651858 0.30995911
v -0.83826590 -0.05711439 0.27466059
v -0.83656877 -0.05027059 0.29186141
v -0.86032867 0.01937516 0.32821700
v -0.85556728 0.00971332 0.32821700
v -0.85688728 0.01237033 0.32821700
v -0.69768655 -0.21774244 0.30995911
v -0.69344372 -0.21387771 0.32821700
v -0.71046221 -0.20630929 0.30816537
v -0.72017360 -0.20010960 0.30031770
v -0.70956647 -0.21363616 0.29186141
v -0.71574217 -0.21589059 0.26998401
v -0.70928365 -0.22925615 0.24775425
v -0.72078645 -0.22064102 0.24205266
v -0.72267216 -0.22241235 0.22994481
v -0.71173507 -0.23239625 0.22994481
v -0.71484643 -0.23521426 0.20998928
v -0.70174080 -0.24141395 0.22994481
v -0.71842933 -0.21838656 0.25537771
v -0.70485222 -0.24407095 0.20998928
v -0.69834656 -0.25864422 0.16998212
v -0.69976079 -0.25969094 0.15873910
v -0.70117509 -0.26081815 0.14538203
v -0.70763361 -0.24648643 0.18993765
v -0.71263075 -0.25365227 0.13000698
v -0.71428072 -0.25502104 0.11005145
v -0.71564788 -0.25622877 0.09003186
v -0.71673214 -0.25719497 0.07001226
v -0.71758074 -0.25791961 0.05002470
v -0.71809930 -0.25832218 0.03000511
v -0.71842933 -0.25856373 0.01001754
v -0.71842933 -0.25864422 0.00098470
v -0.87442434 -0.07080200 0.00098470
v -0.86994576 -0.07812889 0.00098470
v -0.86443007 -0.08698557 0.01001754
v -0.86414725 -0.08658300 0.03000511
v -0.86367583 -0.08577785 0.05002470
v -0.86292154 -0.08465064 0.07001226
v -0.86197865 -0.08320135 0.09003186
v -0.86084723 -0.08134951 0.11005145
v -0.85434157 -0.09141392 0.11005145
v -0.84293306 -0.10437688 0.13000698
v -0.85382301 -0.08811279 0.12869370
v -0.84910876 -0.08996464 0.15005861
v -0.84024590 -0.10043164 0.16146177
v -0.84486592 -0.09101135 0.16882899
v -0.83590877 -0.07345900 0.24996440
v -0.84038734 -0.06065707 0.26133552
v -0.83892596 -0.09841876 0.17472276
v -0.83727592 -0.09584226 0.18993765
v -0.82492453 -0.10727544 0.20998928
v -0.81544888 -0.11339460 0.22994481
v -0.82063460 -0.10091473 0.24218079
v -0.82511312 -0.09076980 0.24929175
v -0.84387589 -0.01331406 0.32821700
v -0.84543163 -0.01025448 0.32821700
v -0.84114164 -0.02217074 0.32309198
v -0.83803022 -0.03650247 0.30995911
v -0.82219028 -0.06363613 0.30995911
v -0.83029884 -0.04994853 0.30995911
v -0.82355744 -0.04978750 0.32821700
v -0.82087028 -0.08143002 0.28260434
v -0.82511312 -0.07064097 0.28958720
v -0.70433366 -0.20373279 0.32821700
v -0.71739215 -0.19729157 0.31364274
v -0.73365641 -0.18956210 0.29179734
v -0.72220069 -0.20212248 0.28997156
v -0.73987919 -0.17981973 0.29967707
v -0.72601926 -0.20582619 0.26998401
v -0.72960210 -0.20961040 0.24887533
v -0.74077493 -0.20075372 0.24230891
v -0.73266637 -0.21267000 0.22994481
v -0.73563635 -0.21564907 0.20998928
v -0.72568929 -0.22523037 0.20998928
v -0.71767503 -0.23779076 0.18993765
v -0.71932501 -0.23932055 0.17696495
v -0.72088075 -0.24068931 0.16373600
v -0.72234213 -0.24197757 0.15005861
v -0.70871794 -0.25341073 0.15121174
v -0.72418070 -0.24366838 0.13000698
v -0.72573644 -0.24503714 0.11005145
v -0.72710353 -0.24624488 0.09003186
v -0.72814071 -0.24713054 0.07001226
v -0.73898351 -0.23899850 0.05002470
v -0.72946066 -0.24833828 0.03000511
v -0.72974354 -0.24857983 0.01001754
v -0.73978490 -0.23972315 0.00098470
v -0.86443007 -0.08698557 0.00098470
v -0.85801870 -0.09696947 0.00098470
v -0.85797155 -0.09696947 0.01001754
v -0.85768872 -0.09656690 0.03000511
v -0.85721725 -0.09576175 0.05002470
v -0.85646302 -0.09463453 0.07001226
v -0.85552013 -0.09318526 0.09003186
v -0.84434736 -0.10638976 0.11005145
v -0.83746451 -0.11645418 0.11005145
v -0.83609736 -0.11436078 0.13000698
v -0.84128308 -0.10196142 0.15005861
v -0.83444738 -0.11194533 0.15005861
v -0.83345735 -0.10824162 0.16882899
v -0.82289743 -0.08457011 0.26998401
v -0.82105887 -0.12152664 0.18481264
v -0.82648027 -0.11162326 0.19089860
v -0.81955028 -0.11943325 0.19816971
v -0.81808889 -0.11725934 0.20998928
v -0.80540752 -0.12748478 0.22994481
v -0.80257893 -0.12353954 0.24996440
v -0.81323320 -0.10856368 0.24929175
v -0.81860745 -0.09793566 0.25550583
v -0.84019876 -0.02031890 0.32821700
v -0.83619165 -0.02756527 0.32821700
v -0.83487165 -0.02990022 0.32821700
v -0.81860745 -0.07772632 0.29596144
v -0.81606174 -0.07370055 0.30995911
v -0.82021028 -0.06041552 0.32065761
v -0.81874889 -0.05791955 0.32821700
v -0.81639171 -0.09455402 0.26998401
v -0.81365746 -0.08883743 0.28958720
v -0.71418649 -0.19399044 0.32821700
v -0.72370929 -0.18408705 0.32821700
v -0.73775780 -0.17748480 0.30995911
v -0.73596638 -0.19576177 0.26998401
v -0.74242491 -0.18255726 0.28635201
v -0.74676204 -0.16750090 0.30995911
v -0.75916058 -0.15904678 0.29775518
v -0.75081629 -0.17088254 0.29208565
v -0.73851210 -0.19841878 0.25569803
v -0.74944919 -0.18932055 0.24826674
v -0.76029199 -0.18022232 0.24083546
v -0.75265485 -0.19197755 0.22994481
v -0.74266064 -0.20268610 0.22994481
v -0.73837066 -0.21830606 0.18993765
v -0.74553633 -0.20566514 0.20998928
v -0.72837639 -0.22772634 0.18993765
v -0.73978490 -0.21975532 0.17891887
v -0.74124634 -0.22120461 0.16562586
v -0.73228925 -0.23271829 0.15005861
v -0.73412782 -0.23448965 0.13000698
v -0.73573065 -0.23593891 0.11005145
v -0.73705065 -0.23714665 0.09003186
v -0.73813492 -0.23819333 0.07001226
v -0.73945493 -0.23940107 0.03000511
v -0.74850631 -0.22820944 0.07001226
v -0.75930196 -0.21919173 0.05002470
v -0.75982058 -0.21975532 0.03000511
v -0.73973781 -0.23972315 0.01001754
v -0.76010340 -0.22007740 0.00098470
v -0.84920299 -0.11001296 0.00098470
v -0.84915590 -0.11001296 0.01001754
v -0.84863734 -0.11001296 0.03000511
v -0.84760016 -0.11001296 0.05002470
v -0.84519589 -0.11154275 0.06834663
v -0.84552592 -0.10808060 0.09003186
v -0.83864307 -0.11806449 0.09003186
v -0.83015740 -0.12998076 0.09003186
v -0.82633883 -0.13183261 0.11104443
v -0.81973886 -0.13972311 0.11837961
v -0.82605600 -0.12853149 0.13000698
v -0.82445312 -0.12627704 0.15005861
v -0.82256740 -0.12362005 0.16998212
v -0.81530744 -0.13360395 0.16998212
v -0.80319178 -0.14423196 0.18993765
v -0.81431746 -0.12885354 0.19089860
v -0.80135322 -0.14181651 0.20547286
v -0.80729318 -0.13175209 0.21123850
v -0.79965609 -0.13956209 0.21876587
v -0.79810041 -0.13746868 0.22994481
v -0.79522467 -0.13360395 0.24996440
v -0.80069321 -0.12104355 0.26236054
v -0.80554891 -0.11081810 0.26940745
v -0.80088180 -0.10131730 0.30249584
v -0.80536038 -0.09060876 0.30944663
v -0.80248463 -0.08400650 0.32821700
v -0.81229031 -0.06846705 0.32821700
v -0.80309749 -0.10453792 0.28997156
v -0.73469353 -0.17233181 0.32821700
v -0.74294347 -0.16323358 0.32821700
v -0.74544203 -0.18577787 0.26998401
v -0.75538915 -0.17474727 0.26998401
v -0.75670916 -0.15614824 0.30995911
v -0.76500624 -0.14616433 0.30995911
v -0.76981479 -0.14970700 0.28936297
v -0.76165909 -0.16186482 0.28443015
v -0.75812340 -0.17780685 0.25416052
v -0.76189482 -0.18199365 0.22994481
v -0.76609051 -0.17064099 0.24849096
v -0.77924335 -0.15912730 0.23737608
v -0.77302051 -0.16878913 0.23039325
v -0.75557768 -0.19511765 0.20998928
v -0.74817634 -0.20832217 0.18993765
v -0.75817055 -0.19793569 0.18993765
v -0.75963199 -0.19954598 0.17811808
v -0.76104629 -0.20107579 0.16479304
v -0.74284917 -0.22273439 0.15005861
v -0.75289059 -0.21258947 0.15005861
v -0.74464059 -0.22450575 0.13000698
v -0.74614918 -0.22595501 0.11005145
v -0.74746919 -0.22716275 0.09003186
v -0.76000911 -0.21991637 0.01908241
v -0.75850058 -0.21838656 0.07001226
v -0.76788193 -0.20840266 0.07001226
v -0.76863623 -0.20920783 0.05002470
v -0.76910764 -0.20977142 0.03000511
v -0.76759911 -0.21194535 0.01145895
v -0.77495337 -0.20413536 0.00098470
v -0.84114164 -0.12168768 0.00098470
v -0.84114164 -0.12160717 0.01001754
v -0.84085876 -0.12120458 0.03000511
v -0.84034020 -0.12047994 0.05002470
v -0.84001023 -0.12007737 0.06059505
v -0.83944452 -0.11927222 0.07392009
v -0.82058746 -0.14085032 0.10505456
v -0.83359879 -0.12804839 0.06834663
v -0.82143599 -0.14197753 0.09003186
v -0.81884313 -0.13851538 0.13000698
v -0.81389320 -0.14849928 0.11104443
v -0.80257893 -0.16315307 0.11005145
v -0.80111754 -0.16146225 0.13000698
v -0.81007463 -0.14994855 0.13000698
v -0.81724030 -0.13626096 0.15005861
v -0.80536038 -0.14688897 0.16998212
v -0.79753470 -0.15695338 0.16998212
v -0.79536611 -0.15421587 0.18993765
v -0.78292048 -0.16363616 0.20998928
v -0.79414040 -0.14906289 0.21123850
v -0.78108191 -0.16138174 0.22405104
v -0.78518331 -0.14672793 0.24996440
v -0.79282039 -0.12861200 0.26940745
v -0.78207189 -0.14270218 0.26998401
v -0.79857183 -0.11798397 0.27568558
v -0.79838324 -0.09761360 0.31582087
v -0.79612041 -0.11452182 0.28997156
v -0.79305613 -0.10880522 0.30944663
v -0.79593182 -0.09390989 0.32821700
v -0.75736916 -0.14640588 0.32821700
v -0.76411051 -0.16484389 0.26998401
v -0.76208341 -0.14246063 0.32485372
v -0.77495337 -0.13336240 0.30995911
v -0.77792335 -0.13730764 0.29419971
v -0.78028047 -0.14044775 0.28087467
v -0.77410477 -0.15268607 0.26998401
v -0.77457619 -0.17353955 0.20998928
v -0.76462913 -0.18513376 0.20998928
v -0.77731049 -0.15671185 0.24996440
v -0.76712763 -0.18795179 0.18993765
v -0.77881902 -0.17861201 0.17449854
v -0.78023332 -0.18022232 0.16123755
v -0.76250768 -0.20260558 0.15005861
v -0.75463486 -0.21444133 0.13000698
v -0.75619054 -0.21597111 0.11005145
v -0.75746340 -0.21733987 0.09003186
v -0.76684481 -0.20735598 0.09003186
v -0.77782905 -0.19753310 0.07001226
v -0.77858335 -0.19841878 0.05002470
v -0.77910191 -0.19890186 0.03000511
v -0.77933758 -0.19930445 0.01001754
v -0.77938473 -0.19930445 0.00098470
v -0.83392882 -0.13167158 0.00098470
v -0.83388168 -0.13167158 0.01001754
v -0.83364594 -0.13118848 0.03000511
v -0.83312738 -0.13054436 0.05002470
v -0.81370461 -0.15196143 0.09003186
v -0.82237887 -0.14318527 0.07001226
v -0.81469458 -0.15316917 0.07001226
v -0.80022180 -0.16033503 0.14157030
v -0.80592608 -0.15131731 0.14896955
v -0.80375749 -0.16468285 0.09003186
v -0.79432899 -0.17313696 0.11005145
v -0.79286754 -0.17144614 0.13000698
v -0.79904324 -0.15880524 0.15486331
v -0.78617328 -0.17112409 0.16866884
v -0.78537190 -0.16653471 0.18993765
v -0.77707475 -0.17651860 0.18993765
v -0.78508902 -0.13038333 0.28849810
v -0.78037477 -0.12056047 0.32097793
v -0.78447616 -0.11057657 0.32821700
v -0.78249615 -0.12337850 0.30995911
v -0.76132911 -0.14165547 0.32821700
v -0.77019191 -0.13006127 0.32821700
v -0.78122330 -0.18143004 0.15005861
v -0.77240765 -0.19141394 0.15005861
v -0.76420480 -0.20445743 0.13000698
v -0.77415192 -0.19334631 0.13000698
v -0.76566625 -0.20598722 0.11005145
v -0.77683908 -0.19640589 0.09003186
v -0.78650331 -0.18754920 0.07001226
v -0.79725182 -0.17667964 0.05002470
v -0.79777038 -0.17732376 0.03000511
v -0.78777617 -0.18891796 0.03000511
v -0.78810614 -0.18932055 0.01001754
v -0.78334475 -0.19487610 0.00098470
v -0.82393456 -0.14519815 0.00098470
v -0.82388741 -0.14519815 0.01001754
v -0.82360458 -0.14479557 0.03000511
v -0.82313311 -0.14415145 0.05002470
v -0.81544888 -0.15413535 0.05002470
v -0.80470037 -0.16572955 0.07001226
v -0.79645038 -0.17579398 0.07001226
v -0.79550755 -0.17458624 0.09003186
v -0.78551328 -0.18642199 0.09003186
v -0.78428757 -0.18497272 0.11005145
v -0.78287333 -0.18336241 0.13000698
v -0.77886617 -0.11846706 0.32821700
v -0.77561337 -0.19495662 0.11005145
v -0.80540752 -0.16669574 0.05002470
v -0.80592608 -0.16733986 0.03000511
v -0.80625606 -0.16774245 0.01001754
v -0.79805326 -0.17772634 0.01001754
v -0.79362184 -0.18295984 0.00098470
v -0.81629747 -0.15526256 0.00098470
v -0.81625032 -0.15518205 0.01001754
v -0.81592029 -0.15477948 0.03000511
v -0.80625606 -0.16774245 0.00098470
v -0.79810041 -0.17772634 0.00098470
f 1 2 10
f 1 10 3
f 1 3 15
f 1 15 4
f 1 4 5
f 1 5 6
f 1 6 7
f 1 7 2
f 2 7 19
f 2 19 8
f 2 8 9
f 2 9 10
f 3 10 11
f 3 11 12
f 3 12 13
f 3 13 14
f 3 14 15
f 4 15 14
f 4 14 13
f 4 13 30
f 4 30 51
f 4 51 78
f 4 78 111
f 4 111 150
f 4 150 176
f 4 176 200
f 4 200 229
f 4 229 228
f 4 228 227
f 4 227 260
f 4 260 292
f 4 292 320
f 4 320 351
f 4 351 387
f 4 387 427
f 4 427 471
f 4 471 515
f 4 515 562
f 4 562 564
f 4 564 618
f 4 618 677
f 4 677 742
f 4 742 743
f 4 743 809
f 4 809 867
f 4 867 921
f 4 921 976
f 4 976 1027
f 4 1027 1083
f 4 1083 1138
f 4 1138 1198
f 4 1198 1256
f 4 1256 1308
f 4 1308 1342
f 4 1342 1360
f 4 1360 1365
f 4 1365 1364
f 4 1364 1361
f 4 1361 1343
f 4 1343 1309
f 4 1309 1257
f 4 1257 1199
f 4 1199 1140
f 4 1140 1139
f 4 1139 1085
f 4 1085 1084
f 4 1084 1029
f 4 1029 1028
f 4 1028 977
f 4 977 923
f 4 923 922
f 4 922 868
f 4 868 810
f 4 810 744
f 4 744 679
f 4 679 678
f 4 678 620
f 4 620 619
f 4 619 568
f 4 568 567
f 4 567 566
f 4 566 565
f 4 565 517
f 4 517 516
f 4 516 472
f 4 472 428
f 4 428 388
f 4 388 353
f 4 353 352
f 4 352 322
f 4 322 321
f 4 321 293
f 4 293 262
f 4 262 261
f 4 261 231
f 4 231 230
f 4 230 201
f 4 201 177
f 4 177 151
f 4 151 112
f 4 112 79
f 4 79 52
f 4 52 32
f 4 32 31
f 4 31 17
f 4 17 16
f 4 16 5
f 5 16 6
f 6 16 17
f 6 17 18
f 6 18 20
f 6 20 7
f 7 20 19
f 8 19 21
f 8 21 22
f 8 22 23
f 8 23 9
f 9 23 24
f 9 24 25
f 9 25 26
f 9 26 10
f 10 26 11
f 11 26 27
f 11 27 28
f 11 28 12
f 12 28 29
f 12 29 30
f 12 30 13
f 17 31 18
f 18 31 32
f 18 32 33
f 18 33 20
f 19 20 34
f 19 34 35
f 19 35 21
f 20 33 36
f 20 36 54
f 20 54 34
f 21 37 38
f 21 38 22
f 21 35 55
f 21 55 37
f 22 38 23
f 23 39 40
f 23 40 41
f 23 41 24
f 23 38 39
f 24 41 42
f 24 42 43
f 24 43 25
f 25 43 44
f 25 44 26
f 26 44 27
f 27 44 43
f 27 43 45
f 27 45 28
f 28 45 46
f 28 46 47
f 28 47 48
f 28 48 49
f 28 49 29
f 29 49 50
f 29 50 30
f 30 50 51
f 32 52 53
f 32 53 33
f 33 53 36
f 34 54 56
f 34 56 35
f 35 56 81
f 35 81 55
f 36 53 57
f 36 57 58
f 36 58 54
f 37 59 38
f 37 55 60
f 37 60 59
f 38 59 61
f 38 61 62
f 38 62 63
f 38 63 39
f 39 63 40
f 40 63 64
f 40 64 65
f 40 65 66
f 40 66 67
f 40 67 68
f 40 68 69
f 40 69 70
f 40 70 41
f 41 70 42
f 42 70 71
f 42 71 43
f 43 71 72
f 43 72 73
f 43 73 45
f 45 73 74
f 45 74 46
f 46 74 47
f 47 74 75
f 47 75 76
f 47 76 48
f 48 76 49
f 49 76 50
f 50 76 77
f 50 77 78
f 50 78 51
f 52 79 53
f 53 79 80
f 53 80 57
f 54 58 56
f 55 81 82
f 55 82 60
f 56 58 83
f 56 83 84
f 56 84 81
f 57 80 85
f 57 85 58
f 58 85 86
f 58 86 87
f 58 87 88
f 58 88 83
f 59 89 90
f 59 90 61
f 59 60 91
f 59 91 89
f 60 82 92
f 60 92 91
f 61 90 93
f 61 93 94
f 61 94 62
f 62 95 65
f 62 65 64
f 62 64 63
f 62 94 96
f 62 96 97
f 62 97 98
f 62 98 66
f 62 66 95
f 65 95 66
f 66 98 67
f 67 99 100
f 67 100 101
f 67 101 68
f 67 98 102
f 67 102 103
f 67 103 99
f 68 101 104
f 68 104 69
f 69 104 105
f 69 105 70
f 70 105 71
f 71 105 104
f 71 104 72
f 72 104 106
f 72 106 107
f 72 107 108
f 72 108 73
f 73 108 74
f 74 108 109
f 74 109 75
f 75 109 76
f 76 109 77
f 77 109 78
f 78 109 110
f 78 110 111
f 79 112 80
f 80 112 113
f 80 113 114
f 80 114 85
f 81 84 115
f 81 115 82
f 82 115 116
f 82 116 92
f 83 88 117
f 83 117 84
f 84 117 118
f 84 118 115
f 85 114 86
f 86 119 87
f 86 114 120
f 86 120 121
f 86 121 119
f 87 119 88
f 88 119 122
f 88 122 117
f 89 123 90
f 89 91 123
f 90 96 124
f 90 124 94
f 90 94 93
f 90 123 125
f 90 125 126
f 90 126 96
f 91 92 127
f 91 127 123
f 92 116 128
f 92 128 127
f 94 124 96
f 96 126 97
f 97 126 129
f 97 129 130
f 97 130 102
f 97 102 98
f 99 131 132
f 99 132 100
f 99 103 133
f 99 133 134
f 99 134 135
f 99 135 136
f 99 136 137
f 99 137 131
f 100 132 138
f 100 138 139
f 100 139 101
f 101 139 140
f 101 140 104
f 102 130 141
f 102 141 142
f 102 142 103
f 103 142 141
f 103 141 143
f 103 143 133
f 104 140 106
f 106 140 144
f 106 144 145
f 106 145 146
f 106 146 107
f 107 146 108
f 108 146 147
f 108 147 109
f 109 147 110
f 110 148 111
f 110 147 146
f 110 146 145
f 110 145 172
f 110 172 138
f 110 138 132
f 110 132 131
f 110 131 137
f 110 137 171
f 110 171 198
f 110 198 197
f 110 197 224
f 110 224 257
f 110 257 290
f 110 290 318
f 110 318 317
f 110 317 348
f 110 348 382
f 110 382 419
f 110 419 421
f 110 421 459
f 110 459 461
f 110 461 460
f 110 460 500
f 110 500 545
f 110 545 596
f 110 596 649
f 110 649 706
f 110 706 705
f 110 705 761
f 110 761 827
f 110 827 886
f 110 886 887
f 110 887 888
f 110 888 889
f 110 889 896
f 110 896 950
f 110 950 951
f 110 951 1004
f 110 1004 1055
f 110 1055 1057
f 110 1057 1056
f 110 1056 1107
f 110 1107 1106
f 110 1106 1161
f 110 1161 1162
f 110 1162 1163
f 110 1163 1112
f 110 1112 1167
f 110 1167 1225
f 110 1225 1224
f 110 1224 1285
f 110 1285 1327
f 110 1327 1354
f 110 1354 1330
f 110 1330 1329
f 110 1329 1286
f 110 1286 1228
f 110 1228 1227
f 110 1227 1171
f 110 1171 1170
f 110 1170 1115
f 110 1115 1059
f 110 1059 1006
f 110 1006 957
f 110 957 902
f 110 902 842
f 110 842 841
f 110 841 775
f 110 775 708
f 110 708 650
f 110 650 603
f 110 603 550
f 110 550 504
f 110 504 463
f 110 463 422
f 110 422 385
f 110 385 350
f 110 350 349
f 110 349 319
f 110 319 291
f 110 291 259
f 110 259 258
f 110 258 225
f 110 225 199
f 110 199 175
f 110 175 149
f 110 149 148
f 111 148 149
f 111 149 150
f 112 151 152
f 112 152 113
f 113 152 114
f 114 152 153
f 114 153 120
f 115 118 154
f 115 154 155
f 115 155 116
f 116 155 156
f 116 156 128
f 117 122 157
f 117 157 118
f 118 157 154
f 119 121 158
f 119 158 122
f 120 153 121
f 121 153 159
f 121 159 183
f 121 183 158
f 122 158 160
f 122 160 157
f 123 127 161
f 123 161 125
f 125 161 162
f 125 162 126
f 126 162 165
f 126 165 129
f 127 128 163
f 127 163 161
f 128 156 163
f 129 164 130
f 129 165 164
f 130 166 141
f 130 164 166
f 133 143 141
f 133 141 167
f 133 167 134
f 134 167 168
f 134 168 135
f 135 168 169
f 135 169 170
f 135 170 136
f 136 170 137
f 137 170 171
f 138 172 144
f 138 144 139
f 139 144 140
f 141 166 173
f 141 173 174
f 141 174 167
f 144 172 145
f 149 175 176
f 149 176 150
f 151 177 178
f 151 178 152
f 152 178 153
f 153 178 179
f 153 179 184
f 153 184 159
f 154 180 156
f 154 156 155
f 154 157 160
f 154 160 181
f 154 181 205
f 154 205 180
f 156 182 163
f 156 180 206
f 156 206 182
f 158 183 160
f 159 184 208
f 159 208 183
f 160 183 185
f 160 185 186
f 160 186 181
f 161 163 162
f 162 163 187
f 162 187 192
f 162 192 165
f 163 182 207
f 163 207 187
f 164 165 188
f 164 188 189
f 164 189 190
f 164 190 191
f 164 191 166
f 165 192 213
f 165 213 188
f 166 191 173
f 167 174 193
f 167 193 168
f 168 193 194
f 168 194 169
f 169 194 195
f 169 195 196
f 169 196 170
f 170 196 197
f 170 197 198
f 170 198 171
f 173 191 174
f 174 191 193
f 175 199 176
f 176 199 200
f 177 201 178
f 178 201 202
f 178 202 179
f 179 202 232
f 179 232 203
f 179 203 204
f 179 204 184
f 180 205 239
f 180 239 206
f 181 186 212
f 181 212 205
f 182 206 240
f 182 240 207
f 183 208 209
f 183 209 185
f 184 204 208
f 185 209 186
f 186 209 210
f 186 210 211
f 186 211 212
f 187 207 218
f 187 218 192
f 188 213 214
f 188 214 189
f 189 215 216
f 189 216 190
f 189 214 215
f 190 216 191
f 191 216 217
f 191 217 193
f 192 218 213
f 193 217 219
f 193 219 220
f 193 220 194
f 194 220 221
f 194 221 195
f 195 221 222
f 195 222 196
f 196 222 223
f 196 223 224
f 196 224 197
f 199 225 226
f 199 226 227
f 199 227 228
f 199 228 229
f 199 229 200
f 201 230 202
f 202 230 231
f 202 231 232
f 203 232 263
f 203 263 233
f 203 233 204
f 204 234 208
f 204 233 235
f 204 235 236
f 204 236 237
f 204 237 238
f 204 238 234
f 205 212 247
f 205 247 239
f 206 239 273
f 206 273 240
f 207 240 241
f 207 241 218
f 208 234 242
f 208 242 209
f 209 242 243
f 209 243 210
f 210 243 244
f 210 244 211
f 211 244 245
f 211 245 246
f 211 246 212
f 212 246 247
f 213 218 248
f 213 248 249
f 213 249 214
f 214 249 250
f 214 250 215
f 215 219 216
f 215 250 219
f 216 219 217
f 218 241 251
f 218 251 248
f 219 250 252
f 219 252 253
f 219 253 220
f 220 253 221
f 221 253 254
f 221 254 255
f 221 255 222
f 222 255 223
f 223 255 256
f 223 256 257
f 223 257 224
f 225 258 227
f 225 227 226
f 227 258 259
f 227 259 260
f 231 261 232
f 232 261 262
f 232 262 263
f 233 263 264
f 233 264 265
f 233 265 235
f 234 238 266
f 234 266 242
f 235 237 236
f 235 265 267
f 235 267 268
f 235 268 237
f 237 269 238
f 237 268 270
f 237 270 269
f 238 269 271
f 238 271 266
f 239 247 272
f 239 272 273
f 240 273 274
f 240 274 241
f 241 274 275
f 241 275 251
f 242 266 276
f 242 276 243
f 243 276 277
f 243 277 244
f 244 277 278
f 244 278 245
f 245 279 246
f 245 278 280
f 245 280 279
f 246 281 247
f 246 279 281
f 247 281 272
f 248 251 282
f 248 282 249
f 249 282 283
f 249 283 250
f 250 283 252
f 251 275 284
f 251 284 282
f 252 283 285
f 252 285 253
f 253 285 286
f 253 286 287
f 253 287 254
f 254 287 288
f 254 288 255
f 255 288 256
f 256 288 289
f 256 289 257
f 257 289 290
f 259 291 292
f 259 292 260
f 262 293 264
f 262 264 263
f 264 293 294
f 264 294 267
f 264 267 265
f 266 271 276
f 267 294 295
f 267 295 268
f 268 295 296
f 268 296 270
f 269 270 271
f 270 297 271
f 270 296 298
f 270 298 299
f 270 299 297
f 271 297 300
f 271 300 301
f 271 301 276
f 272 302 273
f 272 281 303
f 272 303 302
f 273 302 274
f 274 304 275
f 274 302 304
f 275 304 305
f 275 305 284
f 276 301 277
f 277 301 306
f 277 306 278
f 278 306 280
f 279 280 307
f 279 307 281
f 280 308 307
f 280 306 309
f 280 309 310
f 280 310 308
f 281 307 303
f 282 284 311
f 282 311 283
f 283 311 285
f 284 305 311
f 285 311 312
f 285 312 286
f 286 312 313
f 286 313 314
f 286 314 287
f 287 315 288
f 287 314 315
f 288 315 289
f 289 315 316
f 289 316 317
f 289 317 318
f 289 318 290
f 291 319 292
f 292 319 320
f 293 321 294
f 294 321 322
f 294 322 323
f 294 323 295
f 295 323 324
f 295 324 325
f 295 325 326
f 295 326 296
f 296 326 327
f 296 327 298
f 297 299 330
f 297 330 300
f 298 327 328
f 298 328 299
f 299 328 329
f 299 329 330
f 300 331 306
f 300 306 301
f 300 330 366
f 300 366 331
f 302 303 332
f 302 332 304
f 303 307 333
f 303 333 332
f 304 332 305
f 305 334 311
f 305 332 335
f 305 335 368
f 305 368 334
f 306 331 336
f 306 336 309
f 307 308 333
f 308 337 333
f 308 310 337
f 309 336 310
f 310 336 338
f 310 338 339
f 310 339 340
f 310 340 341
f 310 341 337
f 311 334 342
f 311 342 312
f 312 342 313
f 313 342 343
f 313 343 344
f 313 344 314
f 314 344 345
f 314 345 315
f 315 345 316
f 316 345 346
f 316 346 347
f 316 347 348
f 316 348 317
f 319 349 320
f 320 350 385
f 320 385 424
f 320 424 466
f 320 466 508
f 320 508 554
f 320 554 607
f 320 607 664
f 320 664 726
f 320 726 792
f 320 792 791
f 320 791 857
f 320 857 795
f 320 795 729
f 320 729 668
f 320 668 665
f 320 665 608
f 320 608 555
f 320 555 509
f 320 509 467
f 320 467 425
f 320 425 386
f 320 386 351
f 320 349 350
f 322 352 323
f 323 352 324
f 324 353 388
f 324 388 354
f 324 354 355
f 324 355 325
f 324 352 353
f 325 355 356
f 325 356 326
f 326 356 357
f 326 357 327
f 327 357 358
f 327 358 328
f 328 358 329
f 329 359 360
f 329 360 330
f 329 358 361
f 329 361 362
f 329 362 363
f 329 363 364
f 329 364 359
f 330 365 366
f 330 360 359
f 330 359 365
f 331 366 336
f 332 333 335
f 333 367 335
f 333 337 367
f 334 368 342
f 335 367 368
f 336 366 369
f 336 369 370
f 336 370 338
f 337 341 371
f 337 371 372
f 337 372 367
f 338 370 339
f 339 370 373
f 339 373 374
f 339 374 375
f 339 375 376
f 339 376 340
f 340 377 341
f 340 376 377
f 341 377 371
f 342 368 378
f 342 378 379
f 342 379 343
f 343 380 344
f 343 379 380
f 344 380 346
f 344 346 345
f 346 380 381
f 346 381 347
f 347 382 348
f 347 381 383
f 347 383 384
f 347 384 382
f 351 386 387
f 354 388 389
f 354 389 390
f 354 390 355
f 355 390 356
f 356 390 391
f 356 391 392
f 356 392 357
f 357 392 358
f 358 392 361
f 359 393 365
f 359 364 394
f 359 394 393
f 361 392 362
f 362 395 396
f 362 396 397
f 362 397 363
f 362 392 395
f 363 397 398
f 363 398 399
f 363 399 400
f 363 400 394
f 363 394 364
f 365 401 366
f 365 393 401
f 366 401 369
f 367 372 402
f 367 402 403
f 367 403 368
f 368 403 404
f 368 404 378
f 369 401 405
f 369 405 370
f 370 405 373
f 371 402 372
f 371 377 406
f 371 406 402
f 373 405 374
f 374 407 375
f 374 405 408
f 374 408 409
f 374 409 410
f 374 410 411
f 374 411 407
f 375 412 376
f 375 407 412
f 376 412 413
f 376 413 377
f 377 413 406
f 378 404 414
f 378 414 379
f 379 414 415
f 379 415 380
f 380 415 381
f 381 415 416
f 381 416 417
f 381 417 418
f 381 418 383
f 382 384 419
f 383 418 420
f 383 420 384
f 384 420 421
f 384 421 419
f 385 422 423
f 385 423 424
f 386 425 426
f 386 426 427
f 386 427 387
f 388 428 389
f 389 428 429
f 389 429 430
f 389 430 390
f 390 430 391
f 391 430 431
f 391 431 395
f 391 395 392
f 393 394 409
f 393 409 408
f 393 408 401
f 394 400 409
f 395 431 432
f 395 432 396
f 396 432 433
f 396 433 434
f 396 434 435
f 396 435 397
f 397 435 436
f 397 436 398
f 398 436 437
f 398 437 399
f 399 437 438
f 399 438 439
f 399 439 400
f 400 439 440
f 400 440 409
f 401 408 405
f 402 406 441
f 402 441 442
f 402 442 443
f 402 443 444
f 402 444 445
f 402 445 446
f 402 446 403
f 403 446 445
f 403 445 404
f 404 445 447
f 404 447 414
f 406 413 441
f 407 411 448
f 407 448 449
f 407 449 412
f 409 440 450
f 409 450 410
f 410 450 451
f 410 451 411
f 411 451 452
f 411 452 448
f 412 449 453
f 412 453 454
f 412 454 441
f 412 441 413
f 414 447 416
f 414 416 415
f 416 447 455
f 416 455 417
f 417 455 456
f 417 456 457
f 417 457 418
f 418 457 458
f 418 458 420
f 420 459 421
f 420 458 460
f 420 460 461
f 420 461 459
f 422 462 423
f 422 463 462
f 423 462 464
f 423 464 424
f 424 465 466
f 424 464 465
f 425 467 468
f 425 468 426
f 426 468 469
f 426 469 470
f 426 470 427
f 427 470 471
f 428 472 429
f 429 472 516
f 429 516 473
f 429 473 430
f 430 473 474
f 430 474 432
f 430 432 431
f 432 474 433
f 433 475 476
f 433 476 477
f 433 477 478
f 433 478 434
f 433 474 475
f 434 478 435
f 435 478 479
f 435 479 436
f 436 479 480
f 436 480 437
f 437 480 481
f 437 481 438
f 438 482 439
f 438 481 483
f 438 483 482
f 439 482 484
f 439 484 440
f 440 484 450
f 441 485 443
f 441 443 442
f 441 454 486
f 441 486 485
f 443 485 487
f 443 487 488
f 443 488 455
f 443 455 489
f 443 489 444
f 444 489 445
f 445 489 447
f 447 489 455
f 448 490 449
f 448 452 491
f 448 491 490
f 449 490 453
f 450 484 492
f 450 492 451
f 451 492 493
f 451 493 452
f 452 493 494
f 452 494 491
f 453 495 454
f 453 490 496
f 453 496 495
f 454 495 486
f 455 488 497
f 455 497 456
f 456 497 498
f 456 498 457
f 457 498 499
f 457 499 458
f 458 499 500
f 458 500 460
f 462 501 464
f 462 463 502
f 462 502 503
f 462 503 501
f 463 504 502
f 464 501 505
f 464 505 506
f 464 506 465
f 465 506 505
f 465 505 507
f 465 507 508
f 465 508 466
f 467 509 510
f 467 510 468
f 468 510 511
f 468 511 469
f 469 512 513
f 469 513 514
f 469 514 470
f 469 511 512
f 470 514 515
f 470 515 471
f 473 516 517
f 473 517 518
f 473 518 474
f 474 518 475
f 475 518 476
f 476 518 519
f 476 519 520
f 476 520 521
f 476 521 522
f 476 522 477
f 477 522 478
f 478 522 523
f 478 523 524
f 478 524 479
f 479 524 525
f 479 525 480
f 480 525 526
f 480 526 481
f 481 526 527
f 481 527 483
f 482 483 528
f 482 528 484
f 483 527 529
f 483 529 530
f 483 530 528
f 484 528 492
f 485 486 531
f 485 531 487
f 486 495 531
f 487 532 533
f 487 533 488
f 487 531 532
f 488 533 497
f 490 491 534
f 490 534 496
f 491 494 535
f 491 535 534
f 492 528 536
f 492 536 493
f 493 536 494
f 494 536 537
f 494 537 538
f 494 538 539
f 494 539 535
f 495 540 531
f 495 496 541
f 495 541 540
f 496 534 542
f 496 542 541
f 497 533 543
f 497 543 498
f 498 543 544
f 498 544 499
f 499 544 500
f 500 544 545
f 501 503 505
f 502 504 546
f 502 546 503
f 503 546 547
f 503 547 548
f 503 548 549
f 503 549 505
f 504 550 551
f 504 551 546
f 505 549 552
f 505 552 507
f 507 553 508
f 507 552 553
f 508 553 554
f 509 555 510
f 510 556 557
f 510 557 558
f 510 558 512
f 510 512 511
f 510 555 556
f 512 559 560
f 512 560 513
f 512 558 559
f 513 560 561
f 513 561 514
f 514 562 515
f 514 561 563
f 514 563 564
f 514 564 562
f 517 565 518
f 518 565 519
f 519 565 566
f 519 566 567
f 519 567 568
f 519 568 520
f 520 568 569
f 520 569 521
f 521 569 570
f 521 570 571
f 521 571 522
f 522 571 572
f 522 572 523
f 523 573 524
f 523 572 574
f 523 574 575
f 523 575 573
f 524 573 576
f 524 576 525
f 525 576 577
f 525 577 526
f 526 577 578
f 526 578 527
f 527 578 579
f 527 579 580
f 527 580 529
f 528 530 581
f 528 581 582
f 528 582 536
f 529 581 530
f 529 580 581
f 531 540 583
f 531 583 584
f 531 584 532
f 532 585 533
f 532 584 586
f 532 586 585
f 533 585 543
f 534 535 587
f 534 587 542
f 535 539 588
f 535 588 587
f 536 582 589
f 536 589 537
f 537 589 538
f 538 589 590
f 538 590 591
f 538 591 592
f 538 592 539
f 539 592 588
f 540 541 583
f 541 542 593
f 541 593 583
f 542 587 594
f 542 594 593
f 543 585 544
f 544 585 595
f 544 595 596
f 544 596 545
f 546 551 597
f 546 597 598
f 546 598 599
f 546 599 547
f 547 599 548
f 548 600 549
f 548 599 601
f 548 601 600
f 549 602 552
f 549 600 602
f 550 603 551
f 551 603 597
f 552 602 604
f 552 604 553
f 553 605 606
f 553 606 554
f 553 604 605
f 554 606 607
f 555 608 556
f 556 608 665
f 556 665 609
f 556 609 557
f 557 609 610
f 557 610 611
f 557 611 612
f 557 612 559
f 557 559 558
f 559 612 560
f 560 613 671
f 560 671 614
f 560 614 561
f 560 612 613
f 561 614 615
f 561 615 616
f 561 616 617
f 561 617 563
f 563 617 677
f 563 677 618
f 563 618 564
f 568 619 569
f 569 619 620
f 569 620 621
f 569 621 622
f 569 622 570
f 570 622 571
f 571 622 623
f 571 623 572
f 572 623 624
f 572 624 574
f 573 575 625
f 573 625 576
f 574 624 626
f 574 626 575
f 575 626 625
f 576 625 627
f 576 627 577
f 577 627 628
f 577 628 629
f 577 629 578
f 578 629 630
f 578 630 579
f 579 630 631
f 579 631 580
f 580 632 581
f 580 631 633
f 580 633 632
f 581 634 582
f 581 632 634
f 582 634 589
f 583 635 584
f 583 593 636
f 583 636 635
f 584 635 586
f 585 586 637
f 585 637 595
f 586 635 638
f 586 638 637
f 587 588 639
f 587 639 594
f 588 592 640
f 588 640 639
f 589 634 590
f 590 634 641
f 590 641 642
f 590 642 591
f 591 643 644
f 591 644 592
f 591 642 643
f 592 644 640
f 593 594 645
f 593 645 636
f 594 639 646
f 594 646 645
f 595 647 596
f 595 637 648
f 595 648 647
f 596 647 648
f 596 648 649
f 597 603 650
f 597 650 651
f 597 651 598
f 598 651 652
f 598 652 599
f 599 652 653
f 599 653 601
f 600 601 654
f 600 654 655
f 600 655 656
f 600 656 657
f 600 657 602
f 601 653 658
f 601 658 654
f 602 657 659
f 602 659 604
f 604 659 660
f 604 660 605
f 605 660 661
f 605 661 662
f 605 662 663
f 605 663 606
f 606 663 607
f 607 663 664
f 609 666 667
f 609 667 610
f 609 665 668
f 609 668 666
f 610 667 669
f 610 669 611
f 611 669 670
f 611 670 613
f 611 613 612
f 613 670 671
f 614 671 615
f 615 672 673
f 615 673 737
f 615 737 674
f 615 674 675
f 615 675 616
f 615 671 672
f 616 675 617
f 617 675 676
f 617 676 742
f 617 742 677
f 620 678 621
f 621 678 679
f 621 679 680
f 621 680 622
f 622 680 681
f 622 681 682
f 622 682 623
f 623 682 624
f 624 682 683
f 624 683 626
f 625 626 684
f 625 684 628
f 625 628 627
f 626 683 685
f 626 685 684
f 628 684 686
f 628 686 687
f 628 687 629
f 629 687 630
f 630 687 688
f 630 688 689
f 630 689 631
f 631 689 690
f 631 690 633
f 632 691 641
f 632 641 634
f 632 633 692
f 632 692 691
f 633 690 693
f 633 693 692
f 635 636 694
f 635 694 638
f 636 645 695
f 636 695 694
f 637 638 696
f 637 696 648
f 638 694 697
f 638 697 696
f 639 640 698
f 639 698 646
f 640 644 698
f 641 691 699
f 641 699 642
f 642 699 700
f 642 700 643
f 643 701 644
f 643 700 701
f 644 701 702
f 644 702 698
f 645 646 703
f 645 703 695
f 646 698 704
f 646 704 703
f 648 696 705
f 648 705 706
f 648 706 649
f 650 707 651
f 650 708 709
f 650 709 707
f 651 707 652
f 652 707 710
f 652 710 711
f 652 711 653
f 653 711 658
f 654 658 712
f 654 712 713
f 654 713 655
f 655 713 656
f 656 714 715
f 656 715 716
f 656 716 657
f 656 713 717
f 656 717 718
f 656 718 714
f 657 716 719
f 657 719 659
f 658 711 720
f 658 720 712
f 659 719 660
f 660 719 661
f 661 721 722
f 661 722 662
f 661 719 723
f 661 723 724
f 661 724 721
f 662 722 725
f 662 725 663
f 663 725 726
f 663 726 664
f 666 727 667
f 666 668 727
f 667 727 728
f 667 728 669
f 668 729 730
f 668 730 727
f 669 731 732
f 669 732 733
f 669 733 670
f 669 728 731
f 670 733 734
f 670 734 671
f 671 734 672
f 672 734 735
f 672 735 736
f 672 736 737
f 672 737 673
f 674 737 738
f 674 738 739
f 674 739 675
f 675 739 740
f 675 740 741
f 675 741 676
f 676 741 743
f 676 743 742
f 679 744 680
f 680 744 810
f 680 810 745
f 680 745 746
f 680 746 681
f 681 746 682
f 682 746 747
f 682 747 748
f 682 748 683
f 683 748 749
f 683 749 685
f 684 685 686
f 685 750 686
f 685 749 750
f 686 750 751
f 686 751 687
f 687 751 752
f 687 752 688
f 688 752 753
f 688 753 689
f 689 753 754
f 689 754 690
f 690 754 755
f 690 755 693
f 691 692 693
f 691 693 756
f 691 756 699
f 693 755 757
f 693 757 758
f 693 758 756
f 694 695 759
f 694 759 697
f 695 703 760
f 695 760 759
f 696 697 761
f 696 761 705
f 697 759 761
f 698 702 762
f 698 762 704
f 699 756 758
f 699 758 763
f 699 763 700
f 700 764 701
f 700 763 765
f 700 765 766
f 700 766 764
f 701 764 767
f 701 767 768
f 701 768 762
f 701 762 702
f 703 704 769
f 703 769 760
f 704 762 770
f 704 770 769
f 707 709 771
f 707 771 772
f 707 772 773
f 707 773 774
f 707 774 710
f 708 775 709
f 709 775 776
f 709 776 771
f 710 774 711
f 711 774 777
f 711 777 720
f 712 720 778
f 712 778 713
f 713 778 779
f 713 779 717
f 714 718 780
f 714 780 781
f 714 781 715
f 715 781 724
f 715 724 723
f 715 723 716
f 716 723 719
f 717 779 782
f 717 782 718
f 718 783 780
f 718 782 784
f 718 784 783
f 720 777 785
f 720 785 786
f 720 786 778
f 721 787 789
f 721 789 722
f 721 724 788
f 721 788 787
f 722 789 790
f 722 790 725
f 724 781 788
f 725 790 791
f 725 791 792
f 725 792 726
f 727 793 794
f 727 794 728
f 727 730 793
f 728 794 731
f 729 795 730
f 730 795 793
f 731 794 732
f 732 794 796
f 732 796 797
f 732 797 798
f 732 798 799
f 732 799 800
f 732 800 733
f 733 800 734
f 734 800 735
f 735 801 802
f 735 802 736
f 735 800 801
f 736 802 803
f 736 803 737
f 737 803 738
f 738 803 804
f 738 804 805
f 738 805 739
f 739 805 806
f 739 806 740
f 740 806 807
f 740 807 741
f 741 807 808
f 741 808 809
f 741 809 743
f 745 810 868
f 745 868 811
f 745 811 746
f 746 811 812
f 746 812 813
f 746 813 747
f 747 813 814
f 747 814 748
f 748 815 749
f 748 814 815
f 749 815 816
f 749 816 817
f 749 817 750
f 750 817 818
f 750 818 751
f 751 818 752
f 752 818 819
f 752 819 753
f 753 819 820
f 753 820 754
f 754 820 821
f 754 821 755
f 755 821 822
f 755 822 823
f 755 823 757
f 757 823 824
f 757 824 825
f 757 825 758
f 758 825 763
f 759 760 826
f 759 826 827
f 759 827 761
f 760 769 828
f 760 828 826
f 762 768 829
f 762 829 770
f 763 825 830
f 763 830 765
f 764 766 831
f 764 831 767
f 765 830 832
f 765 832 766
f 766 832 831
f 767 833 834
f 767 834 768
f 767 831 833
f 768 834 829
f 769 770 835
f 769 835 828
f 770 829 836
f 770 836 835
f 771 776 837
f 771 837 772
f 772 837 838
f 772 838 839
f 772 839 840
f 772 840 774
f 772 774 773
f 774 840 777
f 775 841 776
f 776 841 842
f 776 842 843
f 776 843 837
f 777 840 844
f 777 844 845
f 777 845 846
f 777 846 785
f 778 786 779
f 779 786 847
f 779 847 848
f 779 848 782
f 780 849 850
f 780 850 781
f 780 783 851
f 780 851 849
f 781 850 788
f 782 848 784
f 783 784 852
f 783 852 851
f 784 848 853
f 784 853 852
f 785 846 786
f 786 846 854
f 786 854 847
f 787 788 797
f 787 797 855
f 787 855 789
f 788 850 797
f 789 855 856
f 789 856 790
f 790 856 791
f 791 856 857
f 793 795 855
f 793 855 794
f 794 855 796
f 795 857 856
f 795 856 855
f 796 855 797
f 797 850 798
f 798 850 849
f 798 849 858
f 798 858 799
f 799 858 801
f 799 801 800
f 801 858 859
f 801 859 802
f 802 859 860
f 802 860 803
f 803 860 914
f 803 914 861
f 803 861 804
f 804 861 862
f 804 862 863
f 804 863 805
f 805 863 864
f 805 864 806
f 806 864 865
f 806 865 807
f 807 865 866
f 807 866 808
f 808 866 809
f 809 866 867
f 811 868 869
f 811 869 870
f 811 870 812
f 812 870 813
f 813 870 871
f 813 871 814
f 814 871 872
f 814 872 815
f 815 872 873
f 815 873 816
f 816 873 874
f 816 874 817
f 817 874 875
f 817 875 818
f 818 875 876
f 818 876 877
f 818 877 819
f 819 877 878
f 819 878 820
f 820 878 879
f 820 879 821
f 821 879 822
f 822 880 823
f 822 879 881
f 822 881 882
f 822 882 883
f 822 883 880
f 823 880 824
f 824 884 825
f 824 880 885
f 824 885 884
f 825 884 830
f 826 886 827
f 826 828 887
f 826 887 886
f 828 888 887
f 828 835 889
f 828 889 888
f 829 834 890
f 829 890 836
f 830 884 832
f 831 832 891
f 831 891 833
f 832 884 892
f 832 892 893
f 832 893 891
f 833 894 834
f 833 891 895
f 833 895 894
f 834 894 890
f 835 836 889
f 836 896 889
f 836 890 897
f 836 897 896
f 837 843 838
f 838 843 898
f 838 898 839
f 839 844 840
f 839 898 899
f 839 899 900
f 839 900 901
f 839 901 844
f 842 902 903
f 842 903 843
f 843 903 898
f 844 904 845
f 844 901 905
f 844 905 904
f 845 904 846
f 846 904 906
f 846 906 854
f 847 854 907
f 847 907 848
f 848 907 908
f 848 908 909
f 848 909 853
f 849 851 859
f 849 859 858
f 851 852 910
f 851 910 911
f 851 911 859
f 852 853 912
f 852 912 910
f 853 909 912
f 854 906 913
f 854 913 907
f 859 911 860
f 860 911 914
f 861 914 915
f 861 915 862
f 862 915 916
f 862 916 863
f 863 916 917
f 863 917 918
f 863 918 864
f 864 918 865
f 865 918 919
f 865 919 920
f 865 920 866
f 866 920 867
f 867 920 921
f 868 922 869
f 869 922 923
f 869 923 924
f 869 924 925
f 869 925 870
f 870 925 926
f 870 926 871
f 871 926 927
f 871 927 872
f 872 927 873
f 873 927 928
f 873 928 929
f 873 929 874
f 874 929 930
f 874 930 875
f 875 930 876
f 876 930 931
f 876 931 932
f 876 932 933
f 876 933 877
f 877 933 878
f 878 933 934
f 878 934 879
f 879 934 881
f 880 883 935
f 880 935 885
f 881 934 936
f 881 936 882
f 882 936 937
f 882 937 938
f 882 938 939
f 882 939 883
f 883 939 935
f 884 885 940
f 884 940 892
f 885 935 941
f 885 941 940
f 890 894 897
f 891 893 942
f 891 942 943
f 891 943 895
f 892 940 944
f 892 944 893
f 893 944 945
f 893 945 946
f 893 946 942
f 894 947 897
f 894 895 948
f 894 948 949
f 894 949 947
f 895 943 948
f 896 897 950
f 897 947 951
f 897 951 950
f 898 903 952
f 898 952 953
f 898 953 900
f 898 900 899
f 900 954 901
f 900 953 955
f 900 955 956
f 900 956 954
f 901 954 905
f 902 957 903
f 903 957 952
f 904 905 958
f 904 958 906
f 905 954 959
f 905 959 958
f 906 958 960
f 906 960 913
f 907 913 961
f 907 961 908
f 908 961 909
f 909 962 912
f 909 961 963
f 909 963 964
f 909 964 962
f 910 912 965
f 910 965 911
f 911 965 914
f 912 962 965
f 913 960 966
f 913 966 961
f 914 965 915
f 915 967 968
f 915 968 969
f 915 969 916
f 915 965 967
f 916 969 970
f 916 970 971
f 916 971 972
f 916 972 917
f 917 972 973
f 917 973 918
f 918 973 919
f 919 973 974
f 919 974 975
f 919 975 920
f 920 975 976
f 920 976 921
f 923 977 978
f 923 978 924
f 924 979 925
f 924 978 979
f 925 979 980
f 925 980 926
f 926 980 981
f 926 981 927
f 927 981 982
f 927 982 983
f 927 983 928
f 928 983 929
f 929 983 984
f 929 984 931
f 929 931 930
f 931 984 985
f 931 985 986
f 931 986 932
f 932 986 987
f 932 987 988
f 932 988 933
f 933 988 934
f 934 988 936
f 935 939 989
f 935 989 941
f 936 988 990
f 936 990 937
f 937 990 991
f 937 991 992
f 937 992 938
f 938 993 939
f 938 992 994
f 938 994 995
f 938 995 993
f 939 993 989
f 940 941 996
f 940 996 944
f 941 989 997
f 941 997 996
f 942 998 943
f 942 946 999
f 942 999 998
f 943 949 948
f 943 998 949
f 944 996 945
f 945 1000 999
f 945 999 946
f 945 996 1001
f 945 1001 1002
f 945 1002 1003
f 945 1003 1000
f 947 949 1004
f 947 1004 951
f 949 998 1005
f 949 1005 1004
f 952 957 1006
f 952 1006 1007
f 952 1007 953
f 953 1007 1008
f 953 1008 955
f 954 956 1009
f 954 1009 1010
f 954 1010 959
f 955 1008 956
f 956 1008 1011
f 956 1011 1012
f 956 1012 1009
f 958 959 1010
f 958 1010 960
f 960 1010 1013
f 960 1013 966
f 961 966 1014
f 961 1014 1015
f 961 1015 963
f 962 964 1016
f 962 1016 967
f 962 967 965
f 963 1015 964
f 964 1015 1017
f 964 1017 1016
f 966 1013 1018
f 966 1018 1014
f 967 1016 968
f 968 1016 1019
f 968 1019 970
f 968 970 969
f 970 1019 1020
f 970 1020 1021
f 970 1021 1022
f 970 1022 971
f 971 1022 972
f 972 1022 1023
f 972 1023 973
f 973 1023 1024
f 973 1024 974
f 974 1024 1025
f 974 1025 1026
f 974 1026 975
f 975 1026 1027
f 975 1027 976
f 977 1028 978
f 978 1028 1029
f 978 1029 1030
f 978 1030 979
f 979 1030 1031
f 979 1031 980
f 980 1031 1032
f 980 1032 981
f 981 1032 1033
f 981 1033 982
f 982 1033 1034
f 982 1034 983
f 983 1034 1035
f 983 1035 984
f 984 1035 985
f 985 1035 1036
f 985 1036 1037
f 985 1037 986
f 986 1037 1038
f 986 1038 987
f 987 1038 1039
f 987 1039 990
f 987 990 988
f 989 993 1040
f 989 1040 1041
f 989 1041 997
f 990 1039 991
f 991 1039 1042
f 991 1042 1043
f 991 1043 992
f 992 1043 994
f 993 995 1040
f 994 1043 1044
f 994 1044 1045
f 994 1045 1046
f 994 1046 1047
f 994 1047 995
f 995 1047 1040
f 996 997 1001
f 997 1041 1048
f 997 1048 1001
f 998 999 1049
f 998 1049 1005
f 999 1000 1050
f 999 1050 1049
f 1000 1003 1051
f 1000 1051 1052
f 1000 1052 1050
f 1001 1048 1002
f 1002 1048 1053
f 1002 1053 1054
f 1002 1054 1051
f 1002 1051 1003
f 1004 1005 1055
f 1005 1049 1056
f 1005 1056 1057
f 1005 1057 1055
f 1006 1058 1008
f 1006 1008 1007
f 1006 1059 1058
f 1008 1058 1060
f 1008 1060 1061
f 1008 1061 1062
f 1008 1062 1063
f 1008 1063 1011
f 1009 1012 1010
f 1010 1012 1064
f 1010 1064 1065
f 1010 1065 1066
f 1010 1066 1067
f 1010 1067 1068
f 1010 1068 1069
f 1010 1069 1013
f 1011 1063 1012
f 1012 1063 1070
f 1012 1070 1065
f 1012 1065 1064
f 1013 1069 1071
f 1013 1071 1018
f 1014 1018 1072
f 1014 1072 1015
f 1015 1072 1073
f 1015 1073 1017
f 1016 1017 1074
f 1016 1074 1019
f 1017 1073 1074
f 1018 1071 1075
f 1018 1075 1072
f 1019 1074 1020
f 1020 1074 1076
f 1020 1076 1077
f 1020 1077 1021
f 1021 1077 1078
f 1021 1078 1022
f 1022 1078 1079
f 1022 1079 1023
f 1023 1079 1080
f 1023 1080 1024
f 1024 1080 1081
f 1024 1081 1025
f 1025 1081 1082
f 1025 1082 1026
f 1026 1082 1083
f 1026 1083 1027
f 1029 1084 1030
f 1030 1084 1085
f 1030 1085 1086
f 1030 1086 1087
f 1030 1087 1031
f 1031 1087 1088
f 1031 1088 1032
f 1032 1088 1089
f 1032 1089 1033
f 1033 1089 1090
f 1033 1090 1034
f 1034 1090 1091
f 1034 1091 1035
f 1035 1091 1036
f 1036 1091 1092
f 1036 1092 1093
f 1036 1093 1094
f 1036 1094 1037
f 1037 1094 1095
f 1037 1095 1038
f 1038 1095 1096
f 1038 1096 1097
f 1038 1097 1039
f 1039 1097 1042
f 1040 1047 1098
f 1040 1098 1099
f 1040 1099 1041
f 1041 1099 1048
f 1042 1097 1100
f 1042 1100 1101
f 1042 1101 1044
f 1042 1044 1043
f 1044 1101 1102
f 1044 1102 1045
f 1045 1102 1156
f 1045 1156 1103
f 1045 1103 1104
f 1045 1104 1046
f 1046 1104 1047
f 1047 1104 1105
f 1047 1105 1098
f 1048 1099 1053
f 1049 1050 1106
f 1049 1106 1107
f 1049 1107 1056
f 1050 1052 1108
f 1050 1108 1106
f 1051 1109 1108
f 1051 1108 1052
f 1051 1054 1110
f 1051 1110 1111
f 1051 1111 1112
f 1051 1112 1109
f 1053 1099 1113
f 1053 1113 1114
f 1053 1114 1054
f 1054 1114 1110
f 1058 1059 1115
f 1058 1115 1060
f 1060 1115 1116
f 1060 1116 1061
f 1061 1117 1118
f 1061 1118 1062
f 1061 1116 1119
f 1061 1119 1117
f 1062 1118 1063
f 1063 1118 1120
f 1063 1120 1070
f 1065 1070 1121
f 1065 1121 1122
f 1065 1122 1123
f 1065 1123 1066
f 1066 1123 1124
f 1066 1124 1125
f 1066 1125 1068
f 1066 1068 1067
f 1068 1125 1126
f 1068 1126 1071
f 1068 1071 1069
f 1070 1120 1121
f 1071 1126 1075
f 1072 1075 1127
f 1072 1127 1128
f 1072 1128 1073
f 1073 1128 1129
f 1073 1129 1130
f 1073 1130 1074
f 1074 1130 1076
f 1075 1126 1127
f 1076 1130 1129
f 1076 1129 1131
f 1076 1131 1077
f 1077 1131 1132
f 1077 1132 1133
f 1077 1133 1078
f 1078 1133 1079
f 1079 1133 1134
f 1079 1134 1080
f 1080 1134 1135
f 1080 1135 1136
f 1080 1136 1081
f 1081 1136 1082
f 1082 1136 1137
f 1082 1137 1083
f 1083 1137 1138
f 1085 1139 1086
f 1086 1139 1140
f 1086 1140 1141
f 1086 1141 1142
f 1086 1142 1087
f 1087 1142 1143
f 1087 1143 1088
f 1088 1143 1144
f 1088 1144 1089
f 1089 1144 1145
f 1089 1145 1090
f 1090 1145 1092
f 1090 1092 1091
f 1092 1145 1146
f 1092 1146 1093
f 1093 1146 1147
f 1093 1147 1148
f 1093 1148 1150
f 1093 1150 1149
f 1093 1149 1094
f 1094 1149 1095
f 1095 1149 1096
f 1096 1100 1097
f 1096 1149 1150
f 1096 1150 1151
f 1096 1151 1100
f 1098 1105 1152
f 1098 1152 1099
f 1099 1152 1113
f 1100 1151 1153
f 1100 1153 1154
f 1100 1154 1101
f 1101 1154 1155
f 1101 1155 1102
f 1102 1155 1156
f 1103 1156 1157
f 1103 1157 1158
f 1103 1158 1104
f 1104 1158 1159
f 1104 1159 1160
f 1104 1160 1105
f 1105 1160 1152
f 1106 1108 1161
f 1108 1162 1161
f 1108 1109 1162
f 1109 1112 1163
f 1109 1163 1162
f 1110 1114 1164
f 1110 1164 1165
f 1110 1165 1166
f 1110 1166 1111
f 1111 1166 1112
f 1112 1166 1167
f 1113 1152 1168
f 1113 1168 1169
f 1113 1169 1164
f 1113 1164 1114
f 1115 1170 1116
f 1116 1170 1171
f 1116 1171 1172
f 1116 1172 1119
f 1117 1173 1118
f 1117 1119 1174
f 1117 1174 1173
f 1118 1173 1120
f 1119 1172 1175
f 1119 1175 1176
f 1119 1176 1177
f 1119 1177 1174
f 1120 1173 1178
f 1120 1178 1121
f 1121 1178 1122
f 1122 1178 1179
f 1122 1179 1180
f 1122 1180 1181
f 1122 1181 1182
f 1122 1182 1123
f 1123 1182 1124
f 1124 1183 1125
f 1124 1182 1184
f 1124 1184 1183
f 1125 1185 1126
f 1125 1183 1186
f 1125 1186 1185
f 1126 1185 1186
f 1126 1186 1127
f 1127 1186 1128
f 1128 1186 1187
f 1128 1187 1188
f 1128 1188 1129
f 1129 1188 1189
f 1129 1189 1131
f 1131 1189 1190
f 1131 1190 1132
f 1132 1190 1133
f 1133 1190 1191
f 1133 1191 1192
f 1133 1192 1134
f 1134 1192 1135
f 1135 1193 1136
f 1135 1192 1194
f 1135 1194 1195
f 1135 1195 1196
f 1135 1196 1193
f 1136 1193 1197
f 1136 1197 1137
f 1137 1197 1138
f 1138 1197 1198
f 1140 1199 1200
f 1140 1200 1141
f 1141 1200 1201
f 1141 1201 1142
f 1142 1201 1143
f 1143 1201 1202
f 1143 1202 1203
f 1143 1203 1144
f 1144 1203 1204
f 1144 1204 1145
f 1145 1204 1146
f 1146 1204 1147
f 1147 1204 1205
f 1147 1205 1206
f 1147 1206 1207
f 1147 1207 1208
f 1147 1208 1209
f 1147 1209 1148
f 1148 1209 1210
f 1148 1210 1150
f 1150 1210 1211
f 1150 1211 1151
f 1151 1211 1153
f 1152 1160 1168
f 1153 1211 1212
f 1153 1212 1213
f 1153 1213 1214
f 1153 1214 1155
f 1153 1155 1154
f 1155 1214 1215
f 1155 1215 1216
f 1155 1216 1156
f 1156 1216 1217
f 1156 1217 1157
f 1157 1217 1218
f 1157 1218 1219
f 1157 1219 1158
f 1158 1219 1220
f 1158 1220 1159
f 1159 1221 1160
f 1159 1220 1221
f 1160 1221 1168
f 1164 1169 1222
f 1164 1222 1223
f 1164 1223 1165
f 1165 1223 1224
f 1165 1224 1225
f 1165 1225 1166
f 1166 1225 1167
f 1168 1221 1226
f 1168 1226 1169
f 1169 1226 1222
f 1171 1227 1172
f 1172 1227 1228
f 1172 1228 1175
f 1173 1174 1229
f 1173 1229 1178
f 1174 1177 1230
f 1174 1230 1229
f 1175 1228 1231
f 1175 1231 1176
f 1176 1231 1232
f 1176 1232 1233
f 1176 1233 1234
f 1176 1234 1177
f 1177 1234 1230
f 1178 1229 1179
f 1179 1229 1235
f 1179 1235 1180
f 1180 1236 1181
f 1180 1235 1237
f 1180 1237 1238
f 1180 1238 1239
f 1180 1239 1236
f 1181 1240 1182
f 1181 1236 1240
f 1182 1240 1184
f 1183 1184 1241
f 1183 1241 1186
f 1184 1240 1242
f 1184 1242 1241
f 1186 1241 1243
f 1186 1243 1244
f 1186 1244 1187
f 1187 1245 1188
f 1187 1244 1246
f 1187 1246 1245
f 1188 1245 1189
f 1189 1245 1247
f 1189 1247 1190
f 1190 1247 1248
f 1190 1248 1249
f 1190 1249 1191
f 1191 1249 1192
f 1192 1249 1194
f 1193 1196 1250
f 1193 1250 1197
f 1194 1249 1302
f 1194 1302 1251
f 1194 1251 1195
f 1195 1251 1252
f 1195 1252 1253
f 1195 1253 1196
f 1196 1253 1254
f 1196 1254 1250
f 1197 1250 1198
f 1198 1250 1255
f 1198 1255 1256
f 1199 1257 1200
f 1200 1257 1258
f 1200 1258 1201
f 1201 1258 1259
f 1201 1259 1260
f 1201 1260 1202
f 1202 1260 1261
f 1202 1261 1203
f 1203 1261 1262
f 1203 1262 1204
f 1204 1262 1205
f 1205 1262 1206
f 1206 1263 1207
f 1206 1262 1264
f 1206 1264 1265
f 1206 1265 1263
f 1207 1263 1208
f 1208 1266 1209
f 1208 1263 1267
f 1208 1267 1268
f 1208 1268 1269
f 1208 1269 1270
f 1208 1270 1266
f 1209 1266 1271
f 1209 1271 1210
f 1210 1271 1211
f 1211 1271 1212
f 1212 1271 1272
f 1212 1272 1213
f 1213 1272 1273
f 1213 1273 1274
f 1213 1274 1215
f 1213 1215 1214
f 1215 1274 1275
f 1215 1275 1276
f 1215 1276 1217
f 1215 1217 1216
f 1217 1276 1277
f 1217 1277 1238
f 1217 1238 1218
f 1218 1238 1278
f 1218 1278 1219
f 1219 1279 1220
f 1219 1278 1280
f 1219 1280 1279
f 1220 1279 1281
f 1220 1281 1221
f 1221 1281 1226
f 1222 1282 1223
f 1222 1226 1283
f 1222 1283 1284
f 1222 1284 1282
f 1223 1282 1224
f 1224 1282 1285
f 1226 1281 1283
f 1228 1286 1231
f 1229 1230 1235
f 1230 1234 1287
f 1230 1287 1235
f 1231 1286 1288
f 1231 1288 1232
f 1232 1288 1289
f 1232 1289 1290
f 1232 1290 1233
f 1233 1290 1291
f 1233 1291 1234
f 1234 1291 1292
f 1234 1292 1287
f 1235 1287 1237
f 1236 1239 1277
f 1236 1277 1293
f 1236 1293 1294
f 1236 1294 1240
f 1237 1287 1295
f 1237 1295 1238
f 1238 1295 1278
f 1238 1277 1239
f 1240 1294 1242
f 1241 1242 1243
f 1242 1294 1296
f 1242 1296 1243
f 1243 1296 1297
f 1243 1297 1298
f 1243 1298 1244
f 1244 1299 1246
f 1244 1298 1299
f 1245 1246 1300
f 1245 1300 1247
f 1246 1299 1300
f 1247 1300 1301
f 1247 1301 1248
f 1248 1301 1302
f 1248 1302 1249
f 1250 1254 1255
f 1251 1302 1303
f 1251 1303 1252
f 1252 1303 1304
f 1252 1304 1305
f 1252 1305 1253
f 1253 1305 1254
f 1254 1305 1306
f 1254 1306 1307
f 1254 1307 1255
f 1255 1307 1256
f 1256 1307 1308
f 1257 1309 1310
f 1257 1310 1258
f 1258 1310 1259
f 1259 1310 1311
f 1259 1311 1312
f 1259 1312 1260
f 1260 1312 1261
f 1261 1312 1264
f 1261 1264 1262
f 1263 1265 1313
f 1263 1313 1268
f 1263 1268 1267
f 1264 1312 1314
f 1264 1314 1265
f 1265 1314 1315
f 1265 1315 1313
f 1266 1270 1316
f 1266 1316 1317
f 1266 1317 1271
f 1268 1313 1318
f 1268 1318 1319
f 1268 1319 1320
f 1268 1320 1269
f 1269 1316 1270
f 1269 1320 1316
f 1271 1317 1272
f 1272 1317 1321
f 1272 1321 1273
f 1273 1321 1298
f 1273 1298 1322
f 1273 1322 1297
f 1273 1297 1323
f 1273 1323 1274
f 1274 1323 1275
f 1275 1277 1276
f 1275 1323 1324
f 1275 1324 1293
f 1275 1293 1277
f 1278 1295 1280
f 1279 1280 1291
f 1279 1291 1281
f 1280 1295 1292
f 1280 1292 1291
f 1281 1291 1325
f 1281 1325 1283
f 1282 1284 1326
f 1282 1326 1327
f 1282 1327 1285
f 1283 1325 1328
f 1283 1328 1284
f 1284 1328 1326
f 1286 1329 1288
f 1287 1292 1295
f 1288 1329 1330
f 1288 1330 1326
f 1288 1326 1289
f 1289 1326 1328
f 1289 1328 1290
f 1290 1328 1325
f 1290 1325 1291
f 1293 1324 1294
f 1294 1324 1296
f 1296 1324 1297
f 1297 1324 1323
f 1297 1322 1298
f 1298 1331 1332
f 1298 1332 1299
f 1298 1321 1316
f 1298 1316 1331
f 1299 1333 1300
f 1299 1332 1334
f 1299 1334 1333
f 1300 1333 1301
f 1301 1333 1335
f 1301 1335 1302
f 1302 1335 1303
f 1303 1335 1336
f 1303 1336 1304
f 1304 1336 1351
f 1304 1351 1337
f 1304 1337 1305
f 1305 1337 1338
f 1305 1338 1339
f 1305 1339 1340
f 1305 1340 1306
f 1306 1340 1341
f 1306 1341 1307
f 1307 1341 1342
f 1307 1342 1308
f 1309 1343 1344
f 1309 1344 1310
f 1310 1344 1345
f 1310 1345 1311
f 1311 1345 1346
f 1311 1346 1312
f 1312 1346 1314
f 1313 1315 1318
f 1314 1346 1347
f 1314 1347 1315
f 1315 1347 1348
f 1315 1348 1318
f 1316 1321 1317
f 1316 1320 1331
f 1318 1348 1349
f 1318 1349 1350
f 1318 1350 1319
f 1319 1350 1351
f 1319 1351 1352
f 1319 1352 1353
f 1319 1353 1320
f 1320 1353 1331
f 1326 1330 1354
f 1326 1354 1327
f 1331 1353 1334
f 1331 1334 1332
f 1333 1334 1355
f 1333 1355 1335
f 1334 1353 1355
f 1335 1355 1336
f 1336 1355 1352
f 1336 1352 1351
f 1337 1351 1349
f 1337 1349 1338
f 1338 1349 1348
f 1338 1348 1356
f 1338 1356 1357
f 1338 1357 1339
f 1339 1357 1358
f 1339 1358 1359
f 1339 1359 1341
f 1339 1341 1340
f 1341 1359 1360
f 1341 1360 1342
f 1343 1361 1344
f 1344 1361 1362
f 1344 1362 1345
f 1345 1362 1363
f 1345 1363 1347
f 1345 1347 1346
f 1347 1363 1357
f 1347 1357 1356
f 1347 1356 1348
f 1349 1351 1350
f 1352 1355 1353
f 1357 1363 1362
f 1357 1362 1358
f 1358 1364 1365
f 1358 1365 1359
f 1358 1362 1361
f 1358 1361 1364
f 1359 1365 1360
