v 0.58203816 -0.02228053 -0.38956091
v 0.66387403 -0.02228053 -0.38959914
v 0.69727987 -0.02228053 0.00098470
v 0.87992072 0.38014233 0.00098470
v 0.88206100 0.38464528 0.00098470
v 0.88470495 0.39014366 0.00098470
v 0.79288089 0.39047545 -0.38956091
v 0.68187791 -0.02228053 -0.38959914
v 0.79376221 0.39208704 -0.38956091
v 0.80437988 0.40962490 -0.38956091
v 0.80488354 0.41043070 -0.38956091
v 0.81566906 0.42469800 -0.38956091
v 0.82519561 0.43441492 -0.38956091
v 0.82578313 0.43498370 -0.38956091
v 0.83547753 0.44313645 -0.38956091
v 0.84995615 0.45138398 -0.38956091
v 0.86623943 0.45825693 -0.38956091
v 0.87622762 0.46081650 -0.38956091
v 0.88995087 0.46171710 -0.38956091
v 0.89821839 -0.02228053 0.00098470
v 0.89469314 0.40915090 0.00098470
v 0.84483618 0.05000392 -0.38956091
v 0.84030378 0.03943379 -0.38956091
v 0.83619100 0.03038047 -0.38956091
v 0.83564538 0.02919547 -0.38956091
v 0.82624477 0.00933503 -0.38956091
v 0.82087296 -0.00170909 -0.38956091
v 0.81634051 -0.01047802 -0.38956091
v 0.81004548 -0.02228053 -0.38956091
v 0.90275079 0.46086389 -0.38956091
v 0.90296066 0.46081650 -0.38956091
v 0.91269702 0.45503375 -0.38956091
v 0.92373437 0.44507983 -0.38956091
v 0.92394423 0.44470063 -0.38956091
v 0.92910612 0.43000674 -0.38956091
v 0.92914814 0.42948535 -0.38956091
v 0.93044913 0.40995669 -0.38956091
v 0.93044913 0.40953010 -0.38956091
v 0.92960978 0.38995406 -0.38956091
v 0.92801499 0.36995143 -0.38956091
v 0.92587471 0.34956956 -0.38956091
v 0.92356646 0.33127332 -0.38956091
v 0.92339861 0.33004093 -0.38956091
v 0.92125833 0.31506264 -0.38956091
v 0.92050290 0.30999088 -0.38956091
v 0.91936982 0.30283353 -0.38956091
v 0.91701961 0.28894544 -0.38956091
v 0.91693568 0.28847146 -0.38956091
v 0.91601241 0.28368407 -0.38956091
v 0.91336846 0.26998559 -0.38956091
v 0.91328454 0.26955900 -0.38956091
v 0.90908784 0.24993555 -0.38956091
v 0.90900391 0.24955635 -0.38956091
v 0.90409374 0.22898492 -0.38956091
v 0.90350622 0.22666234 -0.38956091
v 0.90065247 0.21552342 -0.38956091
v 0.89918363 0.21002506 -0.38956091
v 0.89821839 0.20647009 -0.38956091
v 0.89519674 0.19552077 -0.38956091
v 0.89402163 0.19139701 -0.38956091
v 0.88927937 0.17528114 -0.38956091
v 0.88760066 0.16964057 -0.38956091
v 0.88201904 0.15162872 -0.38956091
v 0.87912333 0.14271760 -0.38956091
v 0.87543023 0.13157868 -0.38956091
v 0.87505251 0.13044108 -0.38956091
v 0.86737251 0.10830545 -0.38956091
v 0.86179090 0.09285317 -0.38956091
v 0.86074173 0.09000920 -0.38956091
v 0.85897911 0.08541143 -0.38956091
v 0.85385913 0.07218695 -0.38956091
v 0.89729512 0.41365385 0.00098470
v 0.90048456 0.41915223 0.00098470
v 0.90539473 0.42512459 0.00098470
v 0.90942359 0.42995936 0.00098470
v 0.91458553 0.43602651 0.00098470
v 0.91886616 0.44095606 0.00098470
v 0.92998743 0.44835040 0.00098470
v 0.93808711 0.45242679 0.00098470
v 0.94790745 0.45735633 0.00098470
v 0.95340514 0.45915753 0.00098470
v 0.95789558 0.46062690 0.00098470
v 0.96998215 0.46176451 0.00098470
v 0.90996915 0.46185929 -0.32999456
v 0.92998743 0.46190670 -0.28996509
v 0.90996915 0.46171710 -0.34999019
v 0.89817637 -0.02228053 -0.01002629
v 0.89968723 -0.01938914 -0.01002629
v 0.89968723 -0.01938914 0.00098470
v 0.85444665 0.05095191 -0.36899179
v 0.84164667 0.03630543 -0.38363487
v 0.85398501 0.07133375 -0.38856685
v 0.85780406 0.06550360 -0.37499431
v 0.83862507 0.02298613 -0.37694415
v 0.83547753 0.00999862 -0.37013876
v 0.82209003 -0.00412646 -0.38443774
v 0.81864870 -0.01744576 -0.37705886
v 0.81726378 -0.02228053 -0.37442082
v 0.92138422 0.46053210 -0.34999019
v 0.92004126 0.46001071 -0.36016005
v 0.92423797 0.46124309 -0.32999456
v 0.91618025 0.45825693 -0.37350321
v 0.94240975 0.44346824 -0.34654927
v 0.93993366 0.43972367 -0.35989243
v 0.92633629 0.45095739 -0.36807421
v 0.93724775 0.43180794 -0.36941236
v 0.94094086 0.42640436 -0.36237755
v 0.93728971 0.40995669 -0.37327385
v 0.93682814 0.38995406 -0.37220332
v 0.94035333 0.37611336 -0.36092472
v 0.93666023 0.36966699 -0.36853302
v 0.93145633 0.32999352 -0.36998582
v 0.93397433 0.34999615 -0.36998582
v 0.92226553 0.30999088 -0.38543180
v 0.92100650 0.29411200 -0.38241142
v 0.91697764 0.28842404 -0.38944620
v 0.91983140 0.28074530 -0.37965867
v 0.91878223 0.26998559 -0.37698239
v 0.91714555 0.24870317 -0.36979467
v 0.91265506 0.22998030 -0.36998582
v 0.90170163 0.21002506 -0.38390249
v 0.90027475 0.19907574 -0.38061449
v 0.89460921 0.19144441 -0.38833746
v 0.89834428 0.18570906 -0.37610304
v 0.89628786 0.16968799 -0.36964172
v 0.89007676 0.15001714 -0.36998582
v 0.88084400 0.13740882 -0.38195264
v 0.87861973 0.12408953 -0.37682945
v 0.87643743 0.10944305 -0.37010053
v 0.86254632 0.09000920 -0.38562295
v 0.86044794 0.07887028 -0.38099682
v 0.98282409 0.46114832 0.00098470
v 0.96998215 0.46176451 -0.07001317
v 0.92998743 0.46195412 -0.26996946
v 0.94996381 0.46171710 -0.20998257
v 0.96473622 0.46133789 -0.17002955
v 0.96322542 0.46114832 -0.19002518
v 0.94643855 0.46138531 -0.24997383
v 0.94379461 0.46124309 -0.26996946
v 0.89775670 -0.02228053 -0.03002192
v 0.89947736 -0.01891515 -0.03002192
v 0.90459734 -0.00938782 -0.01002629
v 0.90459734 -0.00938782 0.00098470
v 0.86069977 0.05825146 -0.36165112
v 0.85792994 0.04493216 -0.35503691
v 0.84471029 0.02981167 -0.37013876
v 0.86267221 0.07133375 -0.36899179
v 0.84156275 0.01668197 -0.36360100
v 0.83837324 0.00336267 -0.35618389
v 0.82527953 -0.01047802 -0.37025344
v 0.82120872 -0.02228053 -0.36570379
v 0.94165432 0.46072170 -0.28996509
v 0.94039530 0.46020031 -0.30162603
v 0.93720579 0.45901531 -0.31496918
v 0.93426812 0.45688233 -0.32999456
v 0.94534743 0.44688100 -0.32999456
v 0.96028769 0.44052947 -0.30097607
v 0.95223004 0.42995936 -0.32999456
v 0.94404644 0.43180794 -0.35190183
v 0.95357299 0.40995669 -0.32999456
v 0.94631267 0.40995669 -0.34999019
v 0.94127661 0.40995669 -0.36329514
v 0.94085693 0.38995406 -0.36218637
v 0.95105493 0.36999881 -0.32999456
v 0.94320709 0.36966699 -0.35155773
v 0.93972385 0.36279407 -0.35924250
v 0.94547331 0.38995406 -0.34999019
v 0.93770939 0.32999352 -0.35392815
v 0.92856061 0.30999088 -0.36998582
v 0.93896842 0.34999615 -0.35729262
v 0.92432189 0.28842404 -0.37178278
v 0.92276913 0.26998559 -0.36700368
v 0.92117435 0.25453332 -0.36298928
v 0.91970551 0.24121402 -0.35924250
v 0.91836256 0.22998030 -0.35568684
v 0.90753508 0.21002506 -0.36998582
v 0.90262491 0.19144441 -0.36964172
v 0.90111411 0.17613433 -0.36275989
v 0.89914167 0.16281503 -0.35790434
v 0.89754689 0.14850035 -0.35071662
v 0.89188135 0.13001448 -0.34999019
v 0.88365579 0.13044108 -0.37010053
v 0.88147348 0.11574720 -0.36348629
v 0.87912333 0.10242791 -0.35790434
v 0.86938697 0.09000920 -0.36998582
v 0.99281222 0.45550776 0.00098470
v 0.99281222 0.45546034 -0.01002629
v 0.98265618 0.46110091 -0.03002192
v 0.96998215 0.46166968 -0.09000880
v 0.98194277 0.46091130 -0.07001317
v 0.98139715 0.46067429 -0.09000880
v 0.98068374 0.46034253 -0.11000443
v 0.98018014 0.46010551 -0.12204769
v 0.96171463 0.46076912 -0.20998257
v 0.96062344 0.46034253 -0.22393745
v 0.89687538 -0.02228053 -0.05001754
v 0.89901572 -0.01806195 -0.05001754
v 0.90438753 -0.00891383 -0.03002192
v 0.91387212 0.01004602 -0.01002629
v 0.91387212 0.01004602 0.00098470
v 0.86288208 0.05095191 -0.34899616
v 0.87710893 0.08901381 -0.35075486
v 0.87010038 0.07000656 -0.34999019
v 0.86065781 0.03843841 -0.34169376
v 0.85436273 0.03109147 -0.34899616
v 0.84429061 0.00999862 -0.34968436
v 0.84118503 -0.00232528 -0.34284073
v 0.83468014 -0.00938782 -0.34968436
v 0.82188016 -0.02228053 -0.36417449
v 0.95865101 0.45967892 -0.23728062
v 0.95642674 0.45873094 -0.24997383
v 0.95378280 0.45650315 -0.26996946
v 0.96482015 0.44650182 -0.26996946
v 0.96196640 0.44294685 -0.28996509
v 0.98080963 0.44133526 -0.22351690
v 0.97917295 0.43484151 -0.23682183
v 0.97115719 0.42995936 -0.26996946
v 0.96540773 0.42995936 -0.28996509
v 0.96121097 0.42995936 -0.30369058
v 0.95785362 0.42995936 -0.31370750
v 0.95852506 0.40995669 -0.31558090
v 0.95269167 0.38995406 -0.32999456
v 0.95726609 0.36999881 -0.31183410
v 0.96007788 0.35919172 -0.30024964
v 0.94891465 0.34999615 -0.32999456
v 0.94270349 0.34999615 -0.34731394
v 0.94144452 0.32999352 -0.34391123
v 0.94052124 0.31648463 -0.34138787
v 0.93670219 0.30989608 -0.34884322
v 0.93300909 0.28998822 -0.34999019
v 0.92931598 0.26998559 -0.34999019
v 0.92427993 0.24870317 -0.35155773
v 0.92213964 0.22998030 -0.34566993
v 0.92058682 0.21760900 -0.34165549
v 0.91597044 0.21054646 -0.34899616
v 0.91009504 0.19002242 -0.34999019
v 0.90400982 0.16968799 -0.35071662
v 0.90178555 0.15418831 -0.34456119
v 0.89972919 0.14086901 -0.33928508
v 0.89796656 0.13001448 -0.33458248
v 0.88453710 0.10944305 -0.35075486
v 0.88185120 0.09503356 -0.34459943
v 1.00376558 0.44550642 0.00098470
v 0.99264437 0.45522335 -0.03002192
v 0.98240435 0.46100610 -0.05001754
v 1.00376558 0.44545901 -0.01002629
v 0.99239254 0.45470196 -0.05001754
v 0.97476637 0.45778292 -0.17002955
v 0.97845948 0.45963150 -0.13539085
v 0.99193090 0.45384878 -0.07001317
v 0.99138534 0.45261636 -0.09000880
v 1.00162530 0.44261503 -0.09000880
v 0.98777616 0.44901401 -0.15003392
v 0.98613942 0.44778162 -0.17002955
v 0.97321355 0.45602915 -0.19002518
v 0.89607805 -0.02228053 -0.06164025
v 0.89834428 -0.01668736 -0.07001317
v 0.90392590 -0.00806063 -0.05001754
v 0.91341043 0.01004602 -0.03002192
v 0.91924387 0.02170633 -0.01002629
v 0.91924387 0.02170633 0.00098470
v 0.87001646 0.05000392 -0.32999456
v 0.87727678 0.06905857 -0.33098865
v 0.87933314 0.08171427 -0.33836752
v 0.86254632 0.03109147 -0.32846528
v 0.85772008 0.02511911 -0.33416194
v 0.85360730 0.01161021 -0.32846528
v 0.84319949 -0.00938782 -0.32857996
v 0.83774376 -0.01564458 -0.33431485
v 0.82809132 -0.02228053 -0.34941673
v 0.97174472 0.45351696 -0.20998257
v 0.96750605 0.44872960 -0.24997383
v 0.98227847 0.44351566 -0.20998257
v 0.99998862 0.44000804 -0.12009782
v 0.99390340 0.42995936 -0.17002955
v 0.99025226 0.42995936 -0.19002518
v 0.98613942 0.42995936 -0.20998257
v 0.98169094 0.42891657 -0.23009290
v 0.98018014 0.42152220 -0.24083625
v 0.97707456 0.42891657 -0.24848276
v 0.97250015 0.40995669 -0.26996946
v 0.96670866 0.40995669 -0.28996509
v 0.96184051 0.40995669 -0.30556399
v 0.95806348 0.38995406 -0.31428099
v 0.96058148 0.36999881 -0.30181718
v 0.96213424 0.35151297 -0.29065329
v 0.95928049 0.34587240 -0.29776454
v 0.95655262 0.35151297 -0.30812556
v 0.96427459 0.36999881 -0.28996509
v 0.95327920 0.32999352 -0.30999896
v 0.94639659 0.32999352 -0.32999456
v 0.94316512 0.30989608 -0.33117980
v 0.93951398 0.30316535 -0.33863515
v 0.93838090 0.28998822 -0.33550006
v 0.93687010 0.26974860 -0.32919168
v 0.93246353 0.24998295 -0.32999456
v 0.92780519 0.22998030 -0.32999456
v 0.92293698 0.21054646 -0.33014750
v 0.91886616 0.20424230 -0.33695292
v 0.91727144 0.18916923 -0.33014750
v 0.91189963 0.17001978 -0.32999456
v 0.90493309 0.14850035 -0.33156210
v 0.90170163 0.13001448 -0.32460380
v 0.90006495 0.11982357 -0.32016879
v 0.89427346 0.11190783 -0.32808295
v 0.88491476 0.08901381 -0.33098865
v 1.00913739 0.42995936 0.00098470
v 1.00913739 0.42995936 -0.01002629
v 1.00355577 0.44522202 -0.03002192
v 1.00309420 0.44470063 -0.05001754
v 1.00246465 0.44384742 -0.07001317
v 1.00783646 0.42995936 -0.05001754
v 1.00653553 0.42995936 -0.07001317
v 1.00057614 0.44095606 -0.11000443
v 0.98433489 0.44602782 -0.19002518
v 0.89549053 -0.02228053 -0.07001317
v 0.89746296 -0.01488619 -0.09000880
v 0.90325439 -0.00668605 -0.07001317
v 0.91252917 0.01004602 -0.05001754
v 0.91857243 0.02322312 -0.05001754
v 0.91899210 0.02222773 -0.03002192
v 0.92365044 0.03170766 -0.01002629
v 0.92365044 0.03170766 0.00098470
v 0.87929118 0.06171162 -0.31814247
v 0.87689906 0.04952991 -0.31087831
v 0.88193512 0.07507832 -0.32502437
v 0.86888337 0.03000127 -0.30999896
v 0.86028010 0.01933636 -0.32081878
v 0.85746831 0.00525866 -0.30999896
v 0.84987223 -0.00995661 -0.30999896
v 0.84038770 -0.02071634 -0.32097170
v 0.83543557 -0.02228053 -0.33137095
v 1.00481486 0.42995936 -0.09000880
v 1.00267446 0.42995936 -0.11000443
v 1.00066006 0.42844254 -0.12805021
v 1.00011444 0.42081124 -0.14078164
v 0.99902338 0.43413052 -0.13344099
v 0.99768043 0.42844254 -0.14846638
v 0.99167913 0.40995669 -0.19002518
v 0.98752439 0.40995669 -0.20998257
v 0.98290801 0.40995669 -0.22997820
v 0.98022211 0.40995669 -0.24091271
v 0.97762012 0.40995669 -0.25092965
v 0.98009622 0.39810681 -0.24041569
v 0.97170275 0.38995406 -0.26996946
v 0.96586931 0.38995406 -0.28996509
v 0.96137887 0.38995406 -0.30426407
v 0.96809363 0.34999615 -0.26996946
v 0.96137887 0.32999352 -0.28449783
v 0.95827329 0.32999352 -0.29451478
v 0.97014999 0.36999881 -0.26996946
v 0.95042545 0.30999088 -0.30999896
v 0.94194806 0.28998822 -0.32548314
v 0.94068909 0.27628976 -0.32204223
v 0.93938810 0.26292306 -0.31825718
v 0.93800318 0.24998295 -0.31408983
v 0.93569499 0.23154449 -0.30831671
v 0.92977762 0.21002506 -0.30999896
v 0.92125833 0.19528377 -0.32360974
v 0.91945374 0.18191709 -0.31844833
v 0.91811079 0.16831338 -0.31106946
v 0.91311669 0.15001714 -0.30999896
v 0.90686357 0.13001448 -0.30999896
v 0.90153378 0.11190783 -0.30820203
v 0.90010691 0.09967873 -0.30036435
v 0.89771473 0.10650427 -0.31370750
v 0.89439934 0.09181039 -0.30820203
v 1.01001871 0.41901004 0.00098470
v 1.01069021 0.40995669 -0.01002629
v 1.00871778 0.42995936 -0.03002192
v 1.01022863 0.40995669 -0.03002192
v 1.00930524 0.40995669 -0.05001754
v 1.00796235 0.40995669 -0.07001317
v 0.89456725 -0.02228053 -0.08025949
v 0.89632982 -0.01261100 -0.11000443
v 0.90237308 -0.00488485 -0.09000880
v 0.89368594 -0.02228053 -0.09000880
v 0.91118622 0.01004602 -0.07001317
v 0.91790092 0.02478731 -0.07001317
v 0.92293698 0.03322445 -0.05001754
v 0.92339861 0.03222905 -0.03002192
v 0.93095273 0.05000392 -0.03002192
v 0.93141437 0.05000392 -0.01002629
v 0.93141437 0.05000392 0.00098470
v 0.88172531 0.05583407 -0.30479932
v 0.88478887 0.06905857 -0.31087831
v 0.87895548 0.04251477 -0.29692340
v 0.87593383 0.03038047 -0.29015625
v 0.86225253 0.01525998 -0.30999896
v 0.85952467 0.00099270 -0.29856741
v 0.84353524 -0.02228053 -0.30999896
v 0.84118503 -0.02228053 -0.31646025
v 0.83891881 -0.02228053 -0.32250100
v 1.00624168 0.40995669 -0.09000880
v 1.00410140 0.40995669 -0.11000443
v 1.00154138 0.40995669 -0.13000005
v 1.00007248 0.40995669 -0.14066695
v 0.99851978 0.40995669 -0.15068388
v 0.99537224 0.40995669 -0.17002955
v 0.99465877 0.38995406 -0.17002955
v 0.99092370 0.38995406 -0.19002518
v 0.98676896 0.38995406 -0.20998257
v 0.98190081 0.39085466 -0.23127811
v 0.97967649 0.38478750 -0.23880991
v 0.97762012 0.39085466 -0.24825336
v 0.97560573 0.36999881 -0.24997383
v 0.97354931 0.34999615 -0.24997383
v 0.97111523 0.32999352 -0.24997383
v 0.96561754 0.32999352 -0.26996946
v 0.96045560 0.31676903 -0.28155392
v 0.95718217 0.31008568 -0.28893280
v 0.94719398 0.28998822 -0.30999896
v 0.94316512 0.26974860 -0.31095475
v 0.94131857 0.24998295 -0.30407292
v 0.94014347 0.23922324 -0.30051726
v 0.93854874 0.22590394 -0.29547057
v 0.93666023 0.21040426 -0.28927690
v 0.93107861 0.19002242 -0.28996509
v 0.92394423 0.18916923 -0.31106946
v 0.92171991 0.17385915 -0.30514342
v 0.91983140 0.16053985 -0.29952323
v 0.91861439 0.14807375 -0.29172379
v 0.91353637 0.13001448 -0.28996509
v 0.90698946 0.11001185 -0.28996509
v 0.90178555 0.09493876 -0.28996509
v 0.89989704 0.08029227 -0.27964228
v 0.89817637 0.08493744 -0.28996509
v 1.01069021 0.40995669 0.00098470
v 1.01018667 0.38995406 0.00098470
v 1.01014459 0.38995406 -0.01002629
v 1.00964105 0.38995406 -0.03002192
v 1.00871778 0.38995406 -0.05001754
v 1.00737476 0.38995406 -0.07001317
v 0.89565837 -0.00853463 -0.12988536
v 0.90040064 -0.00090329 -0.12315643
v 0.90123999 -0.00260967 -0.11000443
v 0.89137775 -0.02228053 -0.11000443
v 0.88873380 -0.02228053 -0.12961772
v 0.90938163 0.01004602 -0.09000880
v 0.91697764 0.02682549 -0.09000880
v 0.92138422 0.03682682 -0.09000880
v 0.92226553 0.03478864 -0.07001317
v 0.93002939 0.05000392 -0.05001754
v 0.93754154 0.06626199 -0.03002192
v 0.93775141 0.06569318 -0.01002629
v 0.93426812 0.05706646 0.00098470
v 0.88411742 0.04952991 -0.29015625
v 0.89242691 0.07000656 -0.28996509
v 0.88117969 0.03730081 -0.28358024
v 0.87824202 0.02393411 -0.27432796
v 0.86560988 0.00862403 -0.29115030
v 0.86174893 -0.00346287 -0.28522426
v 0.85641915 -0.01005141 -0.29115030
v 0.85016602 -0.02228053 -0.29084444
v 1.00557017 0.38995406 -0.09000880
v 1.00342989 0.38995406 -0.11000443
v 0.99998862 0.39967099 -0.14013168
v 0.99835187 0.39180264 -0.14808406
v 0.99658924 0.36999881 -0.15003392
v 0.99323189 0.36999881 -0.17002955
v 0.98945487 0.36999881 -0.19002518
v 0.98530012 0.36999881 -0.20998257
v 0.98152304 0.36999881 -0.22634611
v 0.97908896 0.36999881 -0.23636304
v 0.97808176 0.34999615 -0.23223393
v 0.97699064 0.33198431 -0.22799011
v 0.97342342 0.30999088 -0.22997820
v 0.96826148 0.30999088 -0.24997383
v 0.96251196 0.31008568 -0.27088705
v 0.95944834 0.30344975 -0.27811301
v 0.95357299 0.28998822 -0.28996509
v 0.94992185 0.26998559 -0.28996509
v 0.94576710 0.24998295 -0.28996509
v 0.94182217 0.23154449 -0.28927690
v 0.94064713 0.21732460 -0.28216565
v 0.93896842 0.20400532 -0.27658370
v 0.93720579 0.18983282 -0.26993123
v 0.92453176 0.16831338 -0.29172379
v 0.92192978 0.15342990 -0.28621829
v 0.91995734 0.14006321 -0.27990991
v 0.91861439 0.12826070 -0.27195755
v 0.91324258 0.11001185 -0.26996946
v 0.90505898 0.08820802 -0.27176639
v 0.91210949 0.09000920 -0.24997383
v 0.90186948 0.07503092 -0.26633736
v 0.89935148 0.06171162 -0.25769681
v 0.89792460 0.06901117 -0.27176639
v 1.00947320 0.37900475 0.00098470
v 1.00884366 0.36999881 -0.01002629
v 1.00834012 0.36999881 -0.03002192
v 1.00741673 0.36999881 -0.05001754
v 1.00603187 0.36999881 -0.07001317
v 0.88562822 -0.02228053 -0.15003392
v 0.89183939 -0.00995661 -0.15003392
v 0.89947736 0.00108750 -0.13646136
v 0.90388393 0.00867143 -0.12988536
v 0.90715736 0.01004602 -0.11000443
v 0.91655797 0.03118625 -0.11088378
v 0.92058682 0.03867540 -0.10480480
v 0.92688191 0.05000392 -0.09000880
v 0.92868650 0.05000392 -0.07001317
v 0.93707991 0.06744698 -0.05001754
v 0.94144452 0.07626331 -0.03002192
v 0.94165432 0.07569452 -0.01002629
v 0.93775141 0.06569318 0.00098470
v 0.89083213 0.05000392 -0.26996946
v 0.88285840 0.03038047 -0.26859307
v 0.88029838 0.01933636 -0.26098481
v 0.87425512 0.01161021 -0.26859307
v 0.86359549 -0.01005141 -0.26889896
v 0.85834962 -0.01678216 -0.27482498
v 0.85637712 -0.02228053 -0.27207226
v 1.00422728 0.36999881 -0.09000880
v 1.00091183 0.39180264 -0.13057354
v 1.00208700 0.36999881 -0.11000443
v 1.00045025 0.36999881 -0.12346229
v 0.99965286 0.38635170 -0.13764657
v 0.99906534 0.36999881 -0.13344099
v 0.99474269 0.34999615 -0.15003392
v 0.99130142 0.34999615 -0.17002955
v 0.98748243 0.34999615 -0.19002518
v 0.98328567 0.34999615 -0.20998257
v 0.98051584 0.34999615 -0.22225523
v 0.97997028 0.33999485 -0.21999951
v 0.97908896 0.32662815 -0.21609978
v 0.97812372 0.30942208 -0.20967671
v 0.97493422 0.28998822 -0.20998257
v 0.97019196 0.28998822 -0.22997820
v 0.96503001 0.28998822 -0.24997383
v 0.96116900 0.28998822 -0.26415810
v 0.95831525 0.28998822 -0.27417505
v 0.95176840 0.24998295 -0.26996946
v 0.95655262 0.27131277 -0.26844016
v 0.94727790 0.22998030 -0.26996946
v 0.94253564 0.21040426 -0.26993123
v 0.94094086 0.19637397 -0.26324052
v 0.93917823 0.18305467 -0.25708508
v 0.93170810 0.17001978 -0.26996946
v 0.92474157 0.14807375 -0.27195755
v 0.92197174 0.13375905 -0.26660499
v 0.91987336 0.12039236 -0.25953197
v 0.91819471 0.10887425 -0.25173253
v 0.91722947 0.09000920 -0.23081931
v 0.91005307 0.07000656 -0.22997820
v 0.90413570 0.06901117 -0.25062379
v 0.91949570 0.10147991 -0.23808351
v 0.90119803 0.05701905 -0.24435365
v 0.89666557 0.05019352 -0.25062379
v 1.00888562 0.36999881 0.00098470
v 1.00699711 0.34999615 -0.01002629
v 1.00653553 0.34999615 -0.03002192
v 1.00561213 0.34999615 -0.05001754
v 1.00422728 0.34999615 -0.07001317
v 0.88210297 -0.02228053 -0.17002955
v 0.88827217 -0.00995661 -0.17002955
v 0.89838624 0.00341007 -0.15003392
v 0.90300262 0.01341140 -0.15003392
v 0.91349441 0.03000127 -0.13000005
v 0.91974747 0.04057139 -0.11814796
v 0.92386025 0.04834493 -0.11088378
v 0.93489760 0.07000656 -0.09000880
v 0.93707991 0.07128635 -0.07158071
v 0.94043726 0.07877550 -0.06599875
v 0.94098282 0.07744829 -0.05001754
v 0.94559920 0.09000920 -0.05001754
v 0.94648051 0.09000920 -0.03002192
v 0.94694221 0.09000920 -0.01002629
v 0.94404644 0.08214086 0.00098470
v 0.94165432 0.07569452 0.00098470
v 0.88818824 0.03000127 -0.24997383
v 0.88185120 0.01601838 -0.24997383
v 0.87715089 0.00601706 -0.24997383
v 0.86926103 -0.00995661 -0.24997383
v 0.86044794 -0.02085853 -0.26148182
v 0.85927290 -0.02228053 -0.26281998
v 1.00242269 0.34999615 -0.09000880
v 1.00057614 0.35174996 -0.10881922
v 1.00003052 0.35957089 -0.12028899
v 0.99814206 0.35174996 -0.12820312
v 0.99549812 0.32999352 -0.13000005
v 0.99247646 0.32999352 -0.15003392
v 0.98903519 0.32999352 -0.17002955
v 0.98517418 0.32999352 -0.19002518
v 0.98122931 0.33198431 -0.20967671
v 0.98059976 0.31567883 -0.20279485
v 0.97963452 0.30235955 -0.19824518
v 0.97879523 0.28832924 -0.19098099
v 0.97132504 0.26998559 -0.20998257
v 0.96658278 0.26998559 -0.22997820
v 0.96175659 0.27131277 -0.24962974
v 0.96020377 0.27884933 -0.26075542
v 0.95890284 0.26553002 -0.25605279
v 0.95743394 0.24988815 -0.24962974
v 0.95290148 0.22998030 -0.24997383
v 0.94811726 0.21002506 -0.24997383
v 0.94287133 0.18983282 -0.25024146
v 0.94102478 0.17622912 -0.24374193
v 0.93737364 0.16978277 -0.25024146
v 0.93175006 0.15001714 -0.24997383
v 0.92453176 0.12826070 -0.25173253
v 0.92171991 0.11479921 -0.24622704
v 0.91878223 0.08332585 -0.21495281
v 0.92117435 0.09664515 -0.22474034
v 0.91571867 0.07142855 -0.20895030
v 0.90258294 0.05019352 -0.22848713
v 0.92381829 0.10887425 -0.23081931
v 0.89847016 0.04365236 -0.23414555
v 1.00703907 0.34999615 0.00098470
v 1.00477290 0.32999352 -0.01002629
v 1.00431120 0.32999352 -0.03002192
v 1.00338793 0.32999352 -0.05001754
v 1.00200295 0.32999352 -0.07001317
v 1.00057614 0.33117852 -0.08813541
v 0.88117969 -0.02228053 -0.17496155
v 0.88046628 -0.02090593 -0.18226397
v 0.88394952 -0.01085721 -0.18937522
v 0.89662361 0.00720204 -0.17002955
v 0.90128195 0.01720338 -0.17002955
v 0.91043079 0.03000127 -0.15003392
v 0.91890812 0.04260957 -0.13000005
v 0.92302096 0.05261089 -0.13000005
v 0.93263137 0.07000656 -0.11000443
v 0.93938810 0.08161947 -0.09000880
v 0.93993366 0.08019748 -0.07930368
v 0.94341695 0.08811322 -0.07158071
v 0.95122284 0.11001185 -0.07001317
v 0.95256579 0.11001185 -0.05001754
v 0.95344710 0.11001185 -0.03002192
v 0.94694221 0.09000920 0.00098470
v 0.95390868 0.11001185 -0.01002629
v 0.89473510 0.03175506 -0.22848713
v 0.88411742 0.00919284 -0.22982527
v 0.87903941 0.00198808 -0.23636304
v 0.87530434 -0.00891383 -0.22982527
v 0.86300796 -0.02228053 -0.24997383
v 0.86116141 -0.02228053 -0.25643513
v 1.00015640 0.33866766 -0.10136387
v 0.99935907 0.34625161 -0.11470703
v 0.99835187 0.33117852 -0.10881922
v 0.99545616 0.30999088 -0.11000443
v 0.99285418 0.30999088 -0.13000005
v 0.98979056 0.30999088 -0.15003392
v 0.98630732 0.30999088 -0.17002955
v 0.98215258 0.30942208 -0.19098099
v 0.98097754 0.29392242 -0.18497849
v 0.97988635 0.28060311 -0.17947298
v 0.97568965 0.26998559 -0.19002518
v 0.97174472 0.24998295 -0.19002518
v 0.96733820 0.24998295 -0.20998257
v 0.96242803 0.24988815 -0.23036052
v 0.96070737 0.25647670 -0.24270964
v 0.95932245 0.24315740 -0.23728062
v 0.95793754 0.22936411 -0.23036052
v 0.95340514 0.21002506 -0.22997820
v 0.94832706 0.19002242 -0.22997820
v 0.94278741 0.16978277 -0.23009290
v 0.93917823 0.16290984 -0.23682183
v 0.93716383 0.15020673 -0.23009290
v 0.93095273 0.13001448 -0.22997820
v 0.92260122 0.09000920 -0.20895030
v 0.92037702 0.07901248 -0.20160964
v 0.92931598 0.11001185 -0.20998257
v 0.90698946 0.05000392 -0.20998257
v 0.90019083 0.03952859 -0.22080238
v 0.93640840 0.13110468 -0.20925616
v 1.00477290 0.32999352 0.00098470
v 1.00334597 0.31899682 0.00098470
v 1.00217092 0.30999088 -0.01002629
v 1.00137353 0.30800009 -0.03193355
v 0.99998862 0.29998955 -0.03984769
v 1.00107980 0.31202906 -0.05001754
v 1.00040829 0.31691122 -0.07001317
v 0.99998862 0.31985000 -0.08022127
v 0.99935907 0.32530096 -0.09352619
v 0.87945908 -0.02228053 -0.18352564
v 0.87740266 -0.02228053 -0.19312201
v 0.87903941 -0.01810935 -0.19556890
v 0.88235480 -0.00474265 -0.20998257
v 0.89498687 0.01170501 -0.18868704
v 0.90019083 0.01952595 -0.18111698
v 0.90690553 0.03000127 -0.17002955
v 0.91739732 0.04630674 -0.15003392
v 0.92146814 0.05630806 -0.15003392
v 0.92994547 0.07000656 -0.13000005
v 0.93825495 0.08474784 -0.11000443
v 0.94190609 0.09474917 -0.11000443
v 0.94299728 0.09162079 -0.09000880
v 0.94941825 0.11001185 -0.09000880
v 0.95676249 0.13191047 -0.08832657
v 0.95726609 0.12854511 -0.07001317
v 0.95793754 0.12641212 -0.05001754
v 0.95839918 0.12503752 -0.03002192
v 0.95390868 0.11001185 0.00098470
v 0.95860904 0.12437394 -0.01002629
v 0.89704329 0.02663590 -0.20998257
v 0.88940525 0.01004602 -0.20998257
v 0.88076007 -0.00156689 -0.22305810
v 0.87736070 -0.01474398 -0.20998257
v 0.86854762 -0.02228053 -0.22955765
v 0.99810010 0.31188688 -0.08813541
v 0.99465877 0.28998822 -0.09000880
v 0.99243450 0.28998822 -0.11000443
v 0.98979056 0.28998822 -0.13000005
v 0.98668504 0.28998822 -0.15003392
v 0.98261422 0.28832924 -0.17167355
v 0.98110342 0.27387238 -0.16612983
v 0.97988635 0.26055306 -0.15936266
v 0.97904700 0.26832661 -0.17167355
v 0.97568965 0.24998295 -0.17002955
v 0.96738017 0.22998030 -0.19002518
v 0.96267986 0.22936411 -0.21063253
v 0.96095920 0.23562086 -0.22397569
v 0.95944834 0.22230157 -0.21770555
v 0.95797956 0.20950367 -0.21063253
v 0.95319527 0.19002242 -0.20998257
v 0.94778150 0.17001978 -0.20998257
v 0.94085693 0.15698488 -0.22347866
v 0.93888450 0.14366558 -0.21541160
v 0.93380648 0.11001185 -0.19002518
v 0.92679799 0.09000920 -0.19002518
v 0.92159402 0.07583672 -0.19002518
v 0.91773307 0.06583539 -0.19002518
v 0.93859071 0.12437394 -0.19002518
v 0.94047922 0.13845162 -0.20206843
v 0.91143799 0.05000392 -0.19002518
v 0.90144980 0.03663722 -0.20998257
v 1.00212896 0.30999088 0.00098470
v 1.00036633 0.29761958 -0.01002629
v 1.00019848 0.29861498 -0.02654275
v 1.00116372 0.30321273 0.00098470
v 1.00036633 0.29766697 0.00098470
v 0.99969482 0.30202776 -0.05001754
v 0.99881351 0.29117322 -0.03193355
v 0.99524629 0.26998559 -0.03002192
v 0.99436498 0.26998559 -0.05001754
v 0.99780631 0.28998822 -0.05001754
v 0.99902338 0.30690992 -0.07001317
v 0.87345779 -0.02228053 -0.20998257
v 0.89880592 0.02265432 -0.19442192
v 0.90304458 0.02962208 -0.18868704
v 0.91601241 0.05133110 -0.16949429
v 0.92041898 0.05891505 -0.16245949
v 0.92688191 0.07000656 -0.15003392
v 0.93745762 0.09062539 -0.13160583
v 0.94081497 0.09764054 -0.12598564
v 0.94719398 0.11001185 -0.11000443
v 0.95374084 0.13001448 -0.11000443
v 0.95936441 0.14205399 -0.09387029
v 0.96003592 0.13987361 -0.08052713
v 0.96045560 0.13854642 -0.07001317
v 0.96112704 0.13641344 -0.05001754
v 0.96154672 0.13503885 -0.03002192
v 0.95860904 0.12437394 0.00098470
v 0.96175659 0.13437524 -0.01002629
v 0.99642140 0.28998822 -0.07001317
v 0.99302208 0.26998559 -0.07001317
v 0.99121749 0.26998559 -0.09000880
v 0.98899323 0.26998559 -0.11000443
v 0.98626536 0.26998559 -0.13000005
v 0.98261422 0.26832661 -0.15163969
v 0.98097754 0.25519690 -0.14601950
v 0.97879523 0.24908236 -0.15163969
v 0.97132504 0.22998030 -0.17002955
v 0.96666670 0.21002506 -0.17002955
v 0.96251196 0.20950367 -0.19029281
v 0.96100116 0.21585521 -0.20436239
v 0.95936441 0.20248853 -0.19709820
v 0.95764381 0.19021201 -0.19029281
v 0.95223004 0.17001978 -0.19002518
v 0.94652247 0.15001714 -0.19002518
v 0.94228381 0.15020673 -0.20925616
v 0.93976581 0.12072416 -0.17886128
v 0.93762547 0.11015404 -0.17132945
v 0.93078482 0.09000920 -0.17002955
v 0.92314684 0.06924817 -0.16949429
v 0.91920191 0.06209081 -0.17580266
v 0.94178021 0.13437524 -0.19002518
v 0.99872959 0.28761825 -0.01002629
v 0.99872959 0.28766567 0.00098470
v 0.99566597 0.26998559 -0.01002629
v 0.99130142 0.24998295 -0.03002192
v 0.99042010 0.24998295 -0.05001754
v 0.93435204 0.09000920 -0.15003392
v 0.93989170 0.10034232 -0.13932881
v 0.94366872 0.10821066 -0.13160583
v 0.95105493 0.13001448 -0.13000005
v 0.95844114 0.14518237 -0.11000443
v 0.96142083 0.15518369 -0.11000443
v 0.96205032 0.14925873 -0.08832657
v 0.96389687 0.15001714 -0.07001317
v 0.96519786 0.15001714 -0.05001754
v 0.96607918 0.15001714 -0.03002192
v 0.96175659 0.13437524 0.00098470
v 0.96645689 0.15001714 -0.01002629
v 0.98907715 0.24998295 -0.07001317
v 0.98731452 0.24998295 -0.09000880
v 0.98504829 0.24998295 -0.11000443
v 0.98211062 0.24908236 -0.13042063
v 0.97959256 0.24187762 -0.13734071
v 0.97489226 0.22998030 -0.15003392
v 0.97019196 0.21002506 -0.15003392
v 0.96515590 0.19002242 -0.15003392
v 0.96184051 0.19021201 -0.16899727
v 0.96074939 0.19699016 -0.18379328
v 0.95902872 0.18367086 -0.17496155
v 0.95680445 0.17134696 -0.16899727
v 0.95050937 0.15001714 -0.17002955
v 0.94102478 0.11693219 -0.16551811
v 0.94362676 0.12845030 -0.17132945
v 0.93896842 0.10294930 -0.15003392
v 0.99562401 0.26998559 0.00098470
v 0.99172109 0.24998295 -0.01002629
v 0.98693681 0.22998030 -0.03002192
v 0.98605549 0.22998030 -0.05001754
v 0.94236779 0.11295062 -0.15003392
v 0.94794941 0.13001448 -0.15003392
v 0.95743394 0.15091772 -0.13026768
v 0.96053952 0.15816987 -0.12380638
v 0.96561754 0.17001978 -0.11000443
v 0.96784180 0.17001978 -0.09000880
v 0.96960443 0.17001978 -0.07001317
v 0.97094738 0.17001978 -0.05001754
v 0.97178674 0.17001978 -0.03002192
v 0.96645689 0.15001714 0.00098470
v 0.97216439 0.17001978 -0.01002629
v 0.98471260 0.22998030 -0.07001317
v 0.98240435 0.22822653 -0.09142341
v 0.97988635 0.22040558 -0.09903169
v 0.98148108 0.23334569 -0.11000443
v 0.98055780 0.23737465 -0.12399755
v 0.97803980 0.23040691 -0.13042063
v 0.97333950 0.21002506 -0.13000005
v 0.96830344 0.19002242 -0.13000005
v 0.96125293 0.17532854 -0.15003392
v 0.96028769 0.17893091 -0.16161838
v 0.95852506 0.16532722 -0.15003392
v 0.95407659 0.15001714 -0.15003392
v 0.99167913 0.24998295 0.00098470
v 0.98731452 0.22998030 -0.01002629
v 0.98001224 0.19992894 -0.02073140
v 0.98185879 0.20846087 -0.02845438
v 0.97980243 0.20078214 -0.03403634
v 0.98190081 0.21225284 -0.05001754
v 0.98122931 0.21495463 -0.07001317
v 0.95957428 0.16153523 -0.13711131
v 0.96259594 0.16892958 -0.13026768
v 0.97098935 0.19002242 -0.11000443
v 0.97317159 0.19002242 -0.09000880
v 0.97497618 0.19002242 -0.07001317
v 0.97627717 0.19002242 -0.05001754
v 0.97770405 0.19196580 -0.02845438
v 0.96901691 0.15902306 0.00098470
v 0.97745228 0.18973802 -0.01002629
v 0.97451454 0.17893091 0.00098470
v 0.97212243 0.17001978 0.00098470
v 0.98055780 0.21770380 -0.08568852
v 0.97921491 0.22339176 -0.11000443
v 0.97824967 0.21064126 -0.09142341
v 0.97602540 0.21002506 -0.11000443
v 0.98727256 0.22998030 0.00098470
v 0.98458666 0.21860440 0.00098470
v 0.98257226 0.21002506 -0.01002629
v 0.98005426 0.19973934 -0.01002629
v 0.97942472 0.20225152 -0.05001754
v 0.97875321 0.20495330 -0.07001317
v 0.97934079 0.19694276 0.00098470
v 0.97770405 0.19082822 0.00098470
v 0.98076767 0.20258331 0.00098470
v 0.98005426 0.19973934 0.00098470
f 1 2 8
f 1 8 29
f 1 29 98
f 1 98 151
f 1 151 209
f 1 209 270
f 1 270 332
f 1 332 393
f 1 393 392
f 1 392 391
f 1 391 454
f 1 454 512
f 1 512 575
f 1 575 636
f 1 636 635
f 1 635 699
f 1 699 738
f 1 738 676
f 1 676 675
f 1 675 614
f 1 614 554
f 1 554 493
f 1 493 438
f 1 438 437
f 1 437 377
f 1 377 374
f 1 374 316
f 1 316 256
f 1 256 196
f 1 196 140
f 1 140 87
f 1 87 20
f 1 20 3
f 1 3 4
f 1 4 5
f 1 5 6
f 1 6 7
f 1 7 2
f 2 7 9
f 2 9 10
f 2 10 11
f 2 11 12
f 2 12 13
f 2 13 14
f 2 14 15
f 2 15 16
f 2 16 17
f 2 17 18
f 2 18 19
f 2 19 8
f 3 20 89
f 3 89 143
f 3 143 200
f 3 200 261
f 3 261 323
f 3 323 384
f 3 384 446
f 3 446 505
f 3 505 569
f 3 569 568
f 3 568 629
f 3 629 693
f 3 693 753
f 3 753 793
f 3 793 824
f 3 824 852
f 3 852 855
f 3 855 854
f 3 854 867
f 3 867 866
f 3 866 869
f 3 869 868
f 3 868 861
f 3 861 860
f 3 860 838
f 3 838 811
f 3 811 779
f 3 779 731
f 3 731 730
f 3 730 727
f 3 727 667
f 3 667 666
f 3 666 608
f 3 608 549
f 3 549 488
f 3 488 429
f 3 429 428
f 3 428 368
f 3 368 307
f 3 307 243
f 3 243 186
f 3 186 132
f 3 132 83
f 3 83 82
f 3 82 81
f 3 81 80
f 3 80 79
f 3 79 78
f 3 78 77
f 3 77 76
f 3 76 75
f 3 75 74
f 3 74 73
f 3 73 72
f 3 72 21
f 3 21 6
f 3 6 5
f 3 5 4
f 6 21 7
f 7 21 9
f 8 22 23
f 8 23 24
f 8 24 25
f 8 25 26
f 8 26 27
f 8 27 28
f 8 28 29
f 8 19 30
f 8 30 31
f 8 31 32
f 8 32 33
f 8 33 34
f 8 34 35
f 8 35 36
f 8 36 37
f 8 37 38
f 8 38 39
f 8 39 40
f 8 40 41
f 8 41 42
f 8 42 43
f 8 43 44
f 8 44 45
f 8 45 46
f 8 46 47
f 8 47 48
f 8 48 49
f 8 49 50
f 8 50 51
f 8 51 52
f 8 52 53
f 8 53 54
f 8 54 55
f 8 55 56
f 8 56 57
f 8 57 58
f 8 58 59
f 8 59 60
f 8 60 61
f 8 61 62
f 8 62 63
f 8 63 64
f 8 64 65
f 8 65 66
f 8 66 67
f 8 67 68
f 8 68 69
f 8 69 70
f 8 70 71
f 8 71 22
f 9 21 72
f 9 72 73
f 9 73 10
f 10 73 11
f 11 73 12
f 12 74 75
f 12 75 76
f 12 76 77
f 12 77 13
f 12 73 74
f 13 77 14
f 14 77 15
f 15 77 78
f 15 78 16
f 16 79 80
f 16 80 17
f 16 78 79
f 17 80 81
f 17 81 82
f 17 82 18
f 18 82 83
f 18 83 19
f 19 83 84
f 19 84 85
f 19 85 86
f 19 86 30
f 20 87 88
f 20 88 89
f 22 90 91
f 22 91 23
f 22 71 92
f 22 92 93
f 22 93 90
f 23 91 24
f 24 91 94
f 24 94 25
f 25 94 26
f 26 95 96
f 26 96 27
f 26 94 95
f 27 96 28
f 28 96 97
f 28 97 29
f 29 97 98
f 30 99 100
f 30 100 31
f 30 86 101
f 30 101 99
f 31 100 102
f 31 102 32
f 32 102 33
f 33 103 104
f 33 104 34
f 33 102 100
f 33 100 105
f 33 105 103
f 34 104 35
f 35 106 107
f 35 107 36
f 35 104 106
f 36 107 37
f 37 108 38
f 37 107 108
f 38 108 39
f 39 108 109
f 39 109 40
f 40 109 110
f 40 110 111
f 40 111 41
f 41 112 42
f 41 111 113
f 41 113 112
f 42 112 43
f 43 112 114
f 43 114 44
f 44 114 45
f 45 114 46
f 46 115 47
f 46 114 115
f 47 116 48
f 47 115 116
f 48 116 49
f 49 116 117
f 49 117 50
f 50 117 51
f 51 117 118
f 51 118 52
f 52 119 53
f 52 118 119
f 53 119 120
f 53 120 54
f 54 120 121
f 54 121 55
f 55 121 56
f 56 121 122
f 56 122 57
f 57 122 58
f 58 122 59
f 59 123 60
f 59 122 123
f 60 123 61
f 61 123 124
f 61 124 62
f 62 124 125
f 62 125 126
f 62 126 63
f 63 126 127
f 63 127 64
f 64 127 65
f 65 127 66
f 66 127 128
f 66 128 67
f 67 128 129
f 67 129 130
f 67 130 68
f 68 130 69
f 69 130 131
f 69 131 70
f 70 131 71
f 71 131 92
f 83 132 133
f 83 133 134
f 83 134 84
f 84 134 85
f 85 134 133
f 85 133 135
f 85 135 136
f 85 136 137
f 85 137 138
f 85 138 139
f 85 139 101
f 85 101 86
f 87 140 88
f 88 140 141
f 88 141 198
f 88 198 142
f 88 142 143
f 88 143 89
f 90 144 145
f 90 145 91
f 90 93 144
f 91 145 146
f 91 146 94
f 92 131 93
f 93 131 147
f 93 147 144
f 94 146 148
f 94 148 95
f 95 148 149
f 95 149 150
f 95 150 96
f 96 150 97
f 97 150 151
f 97 151 98
f 99 101 152
f 99 152 153
f 99 153 100
f 100 154 155
f 100 155 156
f 100 156 105
f 100 153 154
f 101 139 152
f 103 157 104
f 103 105 156
f 103 156 157
f 104 157 158
f 104 158 159
f 104 159 107
f 104 107 106
f 107 159 158
f 107 158 160
f 107 160 161
f 107 161 162
f 107 162 108
f 108 162 163
f 108 163 109
f 109 163 110
f 110 164 165
f 110 165 166
f 110 166 111
f 110 163 167
f 110 167 164
f 111 166 113
f 112 168 169
f 112 169 114
f 112 113 170
f 112 170 168
f 113 166 170
f 114 169 115
f 115 171 117
f 115 117 116
f 115 169 171
f 117 171 172
f 117 172 118
f 118 172 173
f 118 173 119
f 119 174 120
f 119 173 174
f 120 175 176
f 120 176 122
f 120 122 121
f 120 174 175
f 122 176 177
f 122 177 124
f 122 124 123
f 124 177 178
f 124 178 125
f 125 178 179
f 125 179 126
f 126 179 180
f 126 180 181
f 126 181 182
f 126 182 127
f 127 182 128
f 128 183 129
f 128 182 183
f 129 183 184
f 129 184 185
f 129 185 130
f 130 185 131
f 131 185 147
f 132 186 187
f 132 187 188
f 132 188 133
f 133 188 189
f 133 189 135
f 135 189 136
f 136 189 190
f 136 190 191
f 136 191 137
f 137 139 138
f 137 191 192
f 137 192 193
f 137 193 194
f 137 194 139
f 139 194 195
f 139 195 152
f 140 196 141
f 141 196 197
f 141 197 258
f 141 258 198
f 142 198 199
f 142 199 200
f 142 200 143
f 144 201 145
f 144 147 202
f 144 202 203
f 144 203 201
f 145 204 205
f 145 205 146
f 145 201 204
f 146 205 148
f 147 185 202
f 148 206 149
f 148 205 206
f 149 206 207
f 149 207 208
f 149 208 150
f 150 208 209
f 150 209 151
f 152 195 153
f 153 195 210
f 153 210 211
f 153 211 212
f 153 212 213
f 153 213 156
f 153 156 154
f 154 156 155
f 156 213 214
f 156 214 157
f 157 214 215
f 157 215 216
f 157 216 217
f 157 217 218
f 157 218 219
f 157 219 220
f 157 220 158
f 158 220 160
f 160 221 222
f 160 222 167
f 160 167 161
f 160 220 221
f 161 167 163
f 161 163 162
f 164 167 222
f 164 222 223
f 164 223 224
f 164 224 225
f 164 225 226
f 164 226 166
f 164 166 165
f 166 226 170
f 168 227 228
f 168 228 229
f 168 229 169
f 168 170 226
f 168 226 227
f 169 229 230
f 169 230 171
f 171 230 172
f 172 230 231
f 172 231 173
f 173 231 232
f 173 232 174
f 174 232 233
f 174 233 175
f 175 233 234
f 175 234 235
f 175 235 176
f 176 235 236
f 176 236 177
f 177 236 178
f 178 237 179
f 178 236 237
f 179 238 180
f 179 237 238
f 180 238 239
f 180 239 181
f 181 240 241
f 181 241 183
f 181 183 182
f 181 239 240
f 183 241 184
f 184 241 242
f 184 242 202
f 184 202 185
f 186 243 246
f 186 246 187
f 187 244 245
f 187 245 188
f 187 246 244
f 188 245 189
f 189 245 190
f 190 245 244
f 190 244 191
f 191 244 247
f 191 247 192
f 192 247 193
f 193 248 249
f 193 249 195
f 193 195 194
f 193 247 250
f 193 250 251
f 193 251 252
f 193 252 253
f 193 253 254
f 193 254 248
f 195 249 248
f 195 248 255
f 195 255 210
f 196 256 257
f 196 257 197
f 197 257 318
f 197 318 258
f 198 258 259
f 198 259 199
f 199 259 260
f 199 260 261
f 199 261 200
f 201 262 204
f 201 203 263
f 201 263 262
f 202 264 203
f 202 242 264
f 203 264 263
f 204 265 266
f 204 266 205
f 204 262 265
f 205 266 206
f 206 267 207
f 206 266 267
f 207 268 269
f 207 269 270
f 207 270 208
f 207 267 268
f 208 270 209
f 210 255 271
f 210 271 272
f 210 272 212
f 210 212 211
f 212 272 213
f 213 272 273
f 213 273 215
f 213 215 214
f 215 274 275
f 215 275 276
f 215 276 277
f 215 277 216
f 215 273 274
f 216 277 278
f 216 278 279
f 216 279 280
f 216 280 217
f 217 280 279
f 217 279 218
f 218 279 281
f 218 281 282
f 218 282 219
f 219 282 283
f 219 283 221
f 219 221 220
f 221 283 347
f 221 347 284
f 221 284 222
f 222 284 223
f 223 285 224
f 223 284 347
f 223 347 285
f 224 286 287
f 224 287 288
f 224 288 225
f 224 285 289
f 224 289 286
f 225 288 290
f 225 290 291
f 225 291 227
f 225 227 226
f 227 291 228
f 228 291 292
f 228 292 293
f 228 293 229
f 229 293 230
f 230 293 294
f 230 294 231
f 231 295 296
f 231 296 232
f 231 294 295
f 232 296 233
f 233 297 234
f 233 296 297
f 234 297 298
f 234 298 299
f 234 299 235
f 235 299 236
f 236 300 301
f 236 301 237
f 236 299 300
f 237 301 238
f 238 302 239
f 238 301 302
f 239 302 303
f 239 303 304
f 239 304 240
f 240 304 305
f 240 305 241
f 241 305 242
f 242 305 306
f 242 306 264
f 243 307 308
f 243 308 246
f 244 246 309
f 244 309 247
f 246 308 309
f 247 309 310
f 247 310 250
f 248 254 255
f 250 310 311
f 250 311 251
f 251 311 252
f 252 311 312
f 252 312 313
f 252 313 314
f 252 314 253
f 253 314 254
f 254 314 274
f 254 274 315
f 254 315 255
f 255 315 271
f 256 316 257
f 257 316 317
f 257 317 376
f 257 376 318
f 258 318 319
f 258 319 259
f 259 319 320
f 259 320 321
f 259 321 260
f 260 321 381
f 260 381 322
f 260 322 323
f 260 323 261
f 262 263 324
f 262 324 325
f 262 325 265
f 263 264 326
f 263 326 324
f 264 306 326
f 265 325 327
f 265 327 328
f 265 328 266
f 266 328 267
f 267 328 329
f 267 329 268
f 268 329 330
f 268 330 331
f 268 331 269
f 269 331 332
f 269 332 270
f 271 315 272
f 272 315 273
f 273 315 274
f 274 314 313
f 274 313 333
f 274 333 334
f 274 334 335
f 274 335 336
f 274 336 337
f 274 337 275
f 275 337 338
f 275 338 336
f 275 336 276
f 276 336 339
f 276 339 277
f 277 339 340
f 277 340 279
f 277 279 278
f 279 340 341
f 279 341 342
f 279 342 343
f 279 343 281
f 281 343 344
f 281 344 345
f 281 345 282
f 282 345 346
f 282 346 283
f 283 346 347
f 285 347 346
f 285 346 289
f 286 289 348
f 286 348 349
f 286 349 287
f 287 349 350
f 287 350 290
f 287 290 288
f 289 351 348
f 289 346 351
f 290 350 352
f 290 352 292
f 290 292 291
f 292 353 293
f 292 352 353
f 293 353 294
f 294 353 354
f 294 354 295
f 295 355 296
f 295 354 355
f 296 355 356
f 296 356 297
f 297 356 357
f 297 357 298
f 298 358 359
f 298 359 299
f 298 357 358
f 299 359 300
f 300 360 301
f 300 359 360
f 301 361 362
f 301 362 302
f 301 360 361
f 302 362 303
f 303 363 304
f 303 362 363
f 304 364 365
f 304 365 366
f 304 366 305
f 304 363 364
f 305 366 306
f 306 367 326
f 306 366 367
f 307 368 308
f 308 368 369
f 308 369 370
f 308 370 309
f 309 370 310
f 310 370 312
f 310 312 311
f 312 370 371
f 312 371 372
f 312 372 313
f 313 372 373
f 313 373 394
f 313 394 333
f 316 374 317
f 317 375 436
f 317 436 376
f 317 374 377
f 317 377 375
f 318 376 378
f 318 378 319
f 319 378 320
f 320 378 379
f 320 379 442
f 320 442 380
f 320 380 381
f 320 381 321
f 322 381 382
f 322 382 383
f 322 383 384
f 322 384 323
f 324 385 325
f 324 326 386
f 324 386 385
f 325 385 387
f 325 387 327
f 326 367 386
f 327 387 388
f 327 388 389
f 327 389 328
f 328 389 329
f 329 389 390
f 329 390 330
f 330 391 331
f 330 390 391
f 331 391 392
f 331 392 393
f 331 393 332
f 333 394 336
f 333 336 334
f 334 336 335
f 336 394 395
f 336 395 396
f 336 396 397
f 336 397 398
f 336 398 399
f 336 399 339
f 336 338 337
f 339 399 400
f 339 400 401
f 339 401 402
f 339 402 340
f 340 402 344
f 340 344 341
f 341 344 342
f 342 344 343
f 344 402 403
f 344 403 404
f 344 404 405
f 344 405 345
f 345 405 406
f 345 406 351
f 345 351 346
f 348 351 406
f 348 406 407
f 348 407 408
f 348 408 409
f 348 409 349
f 349 409 410
f 349 410 350
f 350 410 411
f 350 411 352
f 352 411 412
f 352 412 353
f 353 412 354
f 354 412 413
f 354 413 355
f 355 413 414
f 355 414 356
f 356 414 415
f 356 415 357
f 357 416 358
f 357 415 416
f 358 416 417
f 358 417 418
f 358 418 419
f 358 419 359
f 359 419 360
f 360 419 420
f 360 420 361
f 361 420 421
f 361 421 362
f 362 421 422
f 362 422 363
f 363 422 423
f 363 423 424
f 363 424 364
f 364 424 365
f 365 424 425
f 365 425 426
f 365 426 427
f 365 427 367
f 365 367 366
f 367 427 386
f 368 428 369
f 369 429 430
f 369 430 371
f 369 371 370
f 369 428 429
f 371 430 431
f 371 431 432
f 371 432 372
f 372 432 433
f 372 433 373
f 373 433 394
f 375 434 435
f 375 435 436
f 375 377 437
f 375 437 438
f 375 438 434
f 376 436 439
f 376 439 378
f 378 439 379
f 379 439 440
f 379 440 441
f 379 441 442
f 380 442 443
f 380 443 382
f 380 382 381
f 382 443 444
f 382 444 383
f 383 444 445
f 383 445 446
f 383 446 384
f 385 447 387
f 385 386 448
f 385 448 447
f 386 427 448
f 387 449 388
f 387 447 449
f 388 449 450
f 388 450 451
f 388 451 389
f 389 451 390
f 390 451 452
f 390 452 453
f 390 453 391
f 391 453 454
f 394 433 455
f 394 455 456
f 394 456 395
f 395 456 457
f 395 457 396
f 396 457 397
f 397 457 398
f 398 457 399
f 399 457 400
f 400 457 458
f 400 458 459
f 400 459 460
f 400 460 401
f 401 460 461
f 401 461 462
f 401 462 402
f 402 462 463
f 402 463 403
f 403 463 404
f 404 463 464
f 404 464 406
f 404 406 405
f 406 464 407
f 407 465 466
f 407 466 408
f 407 464 465
f 408 466 467
f 408 467 468
f 408 468 409
f 409 468 469
f 409 469 410
f 410 469 470
f 410 470 411
f 411 470 471
f 411 471 412
f 412 471 472
f 412 472 413
f 413 472 414
f 414 472 473
f 414 473 415
f 415 473 474
f 415 474 416
f 416 474 475
f 416 475 417
f 417 476 418
f 417 475 476
f 418 477 478
f 418 478 420
f 418 420 419
f 418 476 477
f 420 478 421
f 421 479 422
f 421 478 479
f 422 480 423
f 422 479 480
f 423 481 424
f 423 480 481
f 424 482 425
f 424 481 482
f 425 482 426
f 426 482 483
f 426 483 484
f 426 484 485
f 426 485 486
f 426 486 487
f 426 487 448
f 426 448 427
f 429 488 430
f 430 488 489
f 430 489 490
f 430 490 431
f 431 490 491
f 431 491 432
f 432 491 433
f 433 491 492
f 433 492 513
f 433 513 455
f 434 438 493
f 434 493 494
f 434 494 495
f 434 495 435
f 435 495 496
f 435 496 497
f 435 497 436
f 436 497 439
f 439 497 440
f 440 497 498
f 440 498 499
f 440 499 441
f 441 499 500
f 441 500 501
f 441 501 442
f 442 501 443
f 443 501 502
f 443 502 444
f 444 502 564
f 444 564 503
f 444 503 504
f 444 504 445
f 445 504 569
f 445 569 505
f 445 505 446
f 447 506 449
f 447 448 487
f 447 487 506
f 449 507 450
f 449 506 507
f 450 508 509
f 450 509 451
f 450 507 508
f 451 509 452
f 452 510 511
f 452 511 453
f 452 509 510
f 453 511 454
f 454 511 512
f 455 513 515
f 455 515 456
f 456 514 457
f 456 515 516
f 456 516 514
f 457 514 517
f 457 517 458
f 458 517 459
f 459 517 518
f 459 518 519
f 459 519 460
f 460 519 520
f 460 520 461
f 461 520 521
f 461 521 462
f 462 521 522
f 462 522 523
f 462 523 463
f 463 523 464
f 464 523 465
f 465 523 524
f 465 524 466
f 466 524 525
f 466 525 467
f 467 525 526
f 467 526 527
f 467 527 528
f 467 528 529
f 467 529 468
f 468 529 530
f 468 530 469
f 469 530 470
f 470 530 531
f 470 531 471
f 471 531 472
f 472 532 473
f 472 531 533
f 472 533 532
f 473 532 534
f 473 534 474
f 474 534 475
f 475 534 535
f 475 535 476
f 476 535 536
f 476 536 477
f 477 537 538
f 477 538 478
f 477 536 537
f 478 538 479
f 479 539 480
f 479 538 539
f 480 539 540
f 480 540 541
f 480 541 481
f 481 541 482
f 482 541 542
f 482 542 484
f 482 484 483
f 484 543 544
f 484 544 545
f 484 545 485
f 484 542 546
f 484 546 543
f 485 545 486
f 486 547 548
f 486 548 506
f 486 506 487
f 486 545 547
f 488 549 489
f 489 549 608
f 489 608 550
f 489 550 551
f 489 551 490
f 490 551 552
f 490 552 491
f 491 552 553
f 491 553 492
f 492 553 576
f 492 576 513
f 493 554 494
f 494 554 555
f 494 555 556
f 494 556 495
f 495 556 557
f 495 557 558
f 495 558 496
f 496 558 497
f 497 558 498
f 498 558 559
f 498 559 499
f 499 559 560
f 499 560 500
f 500 560 561
f 500 561 562
f 500 562 501
f 501 562 502
f 502 562 563
f 502 563 564
f 503 564 565
f 503 565 566
f 503 566 567
f 503 567 504
f 504 567 568
f 504 568 569
f 506 548 507
f 507 548 570
f 507 570 508
f 508 571 572
f 508 572 509
f 508 570 571
f 509 572 510
f 510 572 573
f 510 573 574
f 510 574 511
f 511 574 512
f 512 574 575
f 513 576 577
f 513 577 515
f 514 516 517
f 515 577 578
f 515 578 516
f 516 518 517
f 516 578 518
f 518 578 579
f 518 579 519
f 519 579 580
f 519 580 581
f 519 581 582
f 519 582 520
f 520 582 521
f 521 582 583
f 521 583 522
f 522 583 584
f 522 584 524
f 522 524 523
f 524 584 525
f 525 585 526
f 525 584 585
f 526 586 527
f 526 585 586
f 527 586 587
f 527 587 588
f 527 588 589
f 527 589 528
f 528 589 590
f 528 590 529
f 529 590 591
f 529 591 530
f 530 591 531
f 531 591 533
f 532 533 592
f 532 592 593
f 532 593 594
f 532 594 534
f 533 591 592
f 534 594 595
f 534 595 535
f 535 595 536
f 536 596 537
f 536 595 596
f 537 596 597
f 537 597 598
f 537 598 538
f 538 598 599
f 538 599 539
f 539 599 540
f 540 599 541
f 541 599 600
f 541 600 601
f 541 601 542
f 542 601 546
f 543 602 544
f 543 546 603
f 543 603 602
f 544 602 604
f 544 604 605
f 544 605 547
f 544 547 545
f 546 601 606
f 546 606 603
f 547 605 607
f 547 607 548
f 548 607 570
f 550 608 609
f 550 609 610
f 550 610 551
f 551 610 611
f 551 611 552
f 552 611 612
f 552 612 553
f 553 612 613
f 553 613 576
f 554 614 555
f 555 614 615
f 555 615 616
f 555 616 617
f 555 617 556
f 556 617 618
f 556 618 557
f 557 618 619
f 557 619 558
f 558 619 620
f 558 620 559
f 559 620 621
f 559 621 560
f 560 621 622
f 560 622 561
f 561 622 623
f 561 623 624
f 561 624 562
f 562 624 563
f 563 624 625
f 563 625 565
f 563 565 564
f 565 625 626
f 565 626 627
f 565 627 628
f 565 628 566
f 566 628 630
f 566 630 567
f 567 629 568
f 567 630 693
f 567 693 629
f 570 607 631
f 570 631 571
f 571 632 633
f 571 633 572
f 571 631 632
f 572 633 573
f 573 634 635
f 573 635 574
f 573 633 634
f 574 635 636
f 574 636 575
f 576 613 637
f 576 637 577
f 577 637 578
f 578 637 638
f 578 638 579
f 579 638 580
f 580 638 639
f 580 639 640
f 580 640 641
f 580 641 581
f 581 641 642
f 581 642 582
f 582 642 643
f 582 643 583
f 583 643 644
f 583 644 585
f 583 585 584
f 585 644 586
f 586 644 645
f 586 645 587
f 587 646 647
f 587 647 588
f 587 645 646
f 588 647 648
f 588 648 649
f 588 649 589
f 589 649 650
f 589 650 651
f 589 651 590
f 590 651 592
f 590 592 591
f 592 651 593
f 593 652 594
f 593 651 652
f 594 653 654
f 594 654 595
f 594 652 653
f 595 654 655
f 595 655 596
f 596 655 597
f 597 656 657
f 597 657 598
f 597 655 656
f 598 657 599
f 599 657 658
f 599 658 659
f 599 659 600
f 600 659 601
f 601 659 606
f 602 603 660
f 602 660 661
f 602 661 604
f 603 606 662
f 603 662 660
f 604 661 663
f 604 663 605
f 605 663 664
f 605 664 607
f 606 659 665
f 606 665 662
f 607 664 631
f 608 666 609
f 609 666 667
f 609 667 668
f 609 668 610
f 610 668 669
f 610 669 670
f 610 670 671
f 610 671 611
f 611 671 672
f 611 672 612
f 612 672 673
f 612 673 613
f 613 673 674
f 613 674 637
f 614 675 615
f 615 675 676
f 615 676 677
f 615 677 616
f 616 678 679
f 616 679 617
f 616 677 678
f 617 679 680
f 617 680 618
f 618 680 681
f 618 681 619
f 619 681 682
f 619 682 620
f 620 682 621
f 621 682 683
f 621 683 684
f 621 684 622
f 622 684 685
f 622 685 623
f 623 685 686
f 623 686 687
f 623 687 624
f 624 687 625
f 625 687 626
f 626 688 689
f 626 689 690
f 626 690 691
f 626 691 627
f 626 687 688
f 627 691 692
f 627 692 628
f 628 692 630
f 630 692 694
f 630 694 753
f 630 753 693
f 631 664 695
f 631 695 632
f 632 696 697
f 632 697 633
f 632 695 696
f 633 697 634
f 634 698 699
f 634 699 635
f 634 697 698
f 637 674 639
f 637 639 638
f 639 674 640
f 640 674 700
f 640 700 701
f 640 701 702
f 640 702 641
f 641 702 703
f 641 703 642
f 642 703 704
f 642 704 643
f 643 704 705
f 643 705 645
f 643 645 644
f 645 705 646
f 646 705 706
f 646 706 707
f 646 707 708
f 646 708 647
f 647 708 648
f 648 708 709
f 648 709 763
f 648 763 710
f 648 710 649
f 649 710 711
f 649 711 712
f 649 712 650
f 650 712 652
f 650 652 651
f 652 712 653
f 653 713 654
f 653 712 713
f 654 713 714
f 654 714 715
f 654 715 655
f 655 715 716
f 655 716 656
f 656 716 717
f 656 717 657
f 657 717 658
f 658 717 718
f 658 718 659
f 659 718 665
f 660 662 719
f 660 719 661
f 661 719 720
f 661 720 721
f 661 721 722
f 661 722 663
f 662 723 719
f 662 665 724
f 662 724 723
f 663 725 726
f 663 726 664
f 663 722 725
f 664 726 695
f 665 718 724
f 667 727 668
f 668 728 729
f 668 729 669
f 668 727 730
f 668 730 731
f 668 731 728
f 669 729 670
f 670 732 671
f 670 729 733
f 670 733 734
f 670 734 735
f 670 735 736
f 670 736 732
f 671 732 737
f 671 737 672
f 672 737 673
f 673 737 700
f 673 700 674
f 676 738 677
f 677 738 698
f 677 698 678
f 678 698 697
f 678 697 696
f 678 696 679
f 679 696 739
f 679 739 680
f 680 739 740
f 680 740 681
f 681 725 741
f 681 741 682
f 681 740 725
f 682 741 742
f 682 742 683
f 683 742 743
f 683 743 684
f 684 743 744
f 684 744 685
f 685 744 745
f 685 745 686
f 686 745 746
f 686 746 688
f 686 688 687
f 688 746 747
f 688 747 689
f 689 747 748
f 689 748 749
f 689 749 690
f 690 749 750
f 690 750 751
f 690 751 691
f 691 751 692
f 692 751 752
f 692 752 754
f 692 754 694
f 694 754 793
f 694 793 753
f 695 739 696
f 695 726 739
f 698 738 699
f 700 737 701
f 701 755 756
f 701 756 757
f 701 757 758
f 701 758 702
f 701 737 755
f 702 758 703
f 703 758 759
f 703 759 704
f 704 759 760
f 704 760 706
f 704 706 705
f 706 760 707
f 707 761 762
f 707 762 709
f 707 709 708
f 707 760 761
f 709 762 763
f 710 763 764
f 710 764 765
f 710 765 766
f 710 766 711
f 711 766 713
f 711 713 712
f 713 766 714
f 714 767 715
f 714 766 767
f 715 768 716
f 715 767 768
f 716 768 769
f 716 769 770
f 716 770 771
f 716 771 717
f 717 771 718
f 718 771 724
f 719 723 772
f 719 772 773
f 719 773 720
f 720 774 721
f 720 773 774
f 721 775 776
f 721 776 722
f 721 774 775
f 722 776 725
f 723 724 777
f 723 777 772
f 724 771 770
f 724 770 777
f 725 776 741
f 725 740 726
f 726 740 739
f 728 731 779
f 728 779 778
f 728 778 729
f 729 778 733
f 732 736 755
f 732 755 737
f 733 778 734
f 734 780 812
f 734 812 781
f 734 781 782
f 734 782 735
f 734 778 780
f 735 782 795
f 735 795 756
f 735 756 736
f 736 756 755
f 741 776 742
f 742 776 775
f 742 775 743
f 743 775 783
f 743 783 784
f 743 784 744
f 744 784 745
f 745 784 785
f 745 785 746
f 746 785 786
f 746 786 747
f 747 786 787
f 747 787 748
f 748 787 788
f 748 788 789
f 748 789 749
f 749 789 790
f 749 790 750
f 750 790 751
f 751 790 791
f 751 791 792
f 751 792 752
f 752 792 754
f 754 792 794
f 754 794 824
f 754 824 793
f 756 795 796
f 756 796 757
f 757 796 758
f 758 796 797
f 758 797 798
f 758 798 759
f 759 798 761
f 759 761 760
f 761 798 799
f 761 799 762
f 762 799 800
f 762 800 763
f 763 800 764
f 764 800 801
f 764 801 802
f 764 802 803
f 764 803 804
f 764 804 765
f 765 804 767
f 765 767 766
f 767 804 768
f 768 804 805
f 768 805 769
f 769 805 806
f 769 806 770
f 770 807 777
f 770 806 807
f 772 808 773
f 772 777 809
f 772 809 808
f 773 808 810
f 773 810 774
f 774 783 775
f 774 810 783
f 777 807 809
f 778 779 780
f 779 811 780
f 780 811 838
f 780 838 812
f 781 812 813
f 781 813 814
f 781 814 782
f 782 814 826
f 782 826 795
f 783 810 784
f 784 810 815
f 784 815 785
f 785 815 786
f 786 815 816
f 786 816 817
f 786 817 787
f 787 817 818
f 787 818 788
f 788 818 819
f 788 819 820
f 788 820 789
f 789 820 790
f 790 820 821
f 790 821 822
f 790 822 791
f 791 822 792
f 792 822 823
f 792 823 825
f 792 825 794
f 794 825 824
f 795 826 796
f 796 826 827
f 796 827 828
f 796 828 829
f 796 829 797
f 797 829 830
f 797 830 798
f 798 830 799
f 799 830 831
f 799 831 800
f 800 831 832
f 800 832 801
f 801 832 833
f 801 833 802
f 802 833 834
f 802 834 835
f 802 835 803
f 803 835 805
f 803 805 804
f 805 835 806
f 806 835 836
f 806 836 807
f 807 837 816
f 807 816 809
f 807 836 837
f 808 815 810
f 808 809 816
f 808 816 815
f 812 838 860
f 812 860 839
f 812 839 813
f 813 839 840
f 813 840 841
f 813 841 842
f 813 842 843
f 813 843 814
f 814 843 844
f 814 844 826
f 816 837 817
f 817 837 845
f 817 845 818
f 818 845 846
f 818 846 819
f 819 846 833
f 819 833 847
f 819 847 820
f 820 847 848
f 820 848 849
f 820 849 821
f 821 849 822
f 822 849 850
f 822 850 851
f 822 851 823
f 823 851 840
f 823 840 825
f 824 825 852
f 825 853 854
f 825 854 855
f 825 855 852
f 825 840 853
f 826 844 856
f 826 856 827
f 827 856 828
f 828 857 829
f 828 856 858
f 828 858 847
f 828 847 859
f 828 859 857
f 829 857 830
f 830 857 832
f 830 832 831
f 832 857 859
f 832 859 847
f 832 847 833
f 833 846 845
f 833 845 834
f 834 836 835
f 834 845 836
f 836 845 837
f 839 860 861
f 839 861 862
f 839 862 840
f 840 842 841
f 840 862 863
f 840 863 853
f 840 851 842
f 842 864 843
f 842 851 850
f 842 850 864
f 843 864 865
f 843 865 844
f 844 865 856
f 847 858 848
f 848 858 856
f 848 856 865
f 848 865 849
f 849 865 864
f 849 864 850
f 853 866 867
f 853 867 854
f 853 863 866
f 861 868 862
f 862 868 863
f 863 868 869
f 863 869 866
