v -0.95655131 0.10885674 -0.31396100
v -0.95655131 0.13118652 -0.31396100
v -0.95537221 0.10614948 -0.31396100
v -0.95963532 0.10104030 -0.29898283
v -0.95768517 0.10861248 -0.31058085
v -0.96144938 0.11437303 -0.30434769
v -0.96144938 0.12573129 -0.30434769
v -0.95768517 0.13143077 -0.31058085
v -0.95968068 0.13906401 -0.29910687
v -0.94698203 0.14608660 -0.31396100
v -0.94625634 0.08996701 -0.31396100
v -0.96172154 0.09753919 -0.28564823
v -0.98036134 0.09939152 -0.22173518
v -0.97877401 0.10443964 -0.23506978
v -0.97079200 0.10999664 -0.26998782
v -0.96403450 0.10861248 -0.29138520
v -0.98049736 0.11777236 -0.24198517
v -0.98049736 0.12214875 -0.24198517
v -0.97079200 0.12998554 -0.26998782
v -0.96403450 0.13143077 -0.29147825
v -0.97863793 0.13548148 -0.23488373
v -0.98031598 0.14046854 -0.22154912
v -0.96172154 0.14209697 -0.28577226
v -0.94770765 0.14653441 -0.30999163
v -0.94421554 0.14769466 -0.31396100
v -0.96403450 0.14433604 -0.26998782
v -0.94172114 0.08416575 -0.31396100
v -0.94680059 0.08882712 -0.30983657
v -0.96403450 0.09450625 -0.26998782
v -0.95423836 0.09051661 -0.29138520
v -0.95609784 0.08451179 -0.26998782
v -0.97364920 0.08766687 -0.20998213
v -0.98158586 0.09766132 -0.20998213
v -0.99931860 0.10250589 -0.11453121
v -0.99315071 0.10999664 -0.16997834
v -0.98965859 0.10999664 -0.18998024
v -0.98575830 0.10999664 -0.20998213
v -0.98176730 0.11064801 -0.22902270
v -0.96553111 0.08907138 -0.24840438
v -0.96017957 0.07978936 -0.24068272
v -0.97673315 0.11064801 -0.24917966
v -1.00004423 0.11968576 -0.14045615
v -0.98176730 0.12927312 -0.22892967
v -0.97664243 0.12927312 -0.24917966
v -1.00004423 0.12025571 -0.14045615
v -0.98952252 0.12998554 -0.18998024
v -0.98566759 0.12998554 -0.20998213
v -0.99292397 0.12998554 -0.16997834
v -0.98154050 0.14191376 -0.20998213
v -0.94997525 0.15262064 -0.26998782
v -0.92997485 0.15428978 -0.31396100
v -0.96671027 0.14622909 -0.24998593
v -0.94099545 0.07895479 -0.30307624
v -0.93573463 0.07777419 -0.31396100
v -0.95836544 0.08180454 -0.25401732
v -0.94308168 0.07691927 -0.28998971
v -0.97573543 0.08500032 -0.18998024
v -0.98353601 0.09499478 -0.18998024
v -1.00008965 0.09979863 -0.10119662
v -1.00158620 0.10950811 -0.10873221
v -1.00067925 0.11665282 -0.13000555
v -0.99836624 0.10663801 -0.13000555
v -0.99700564 0.11180826 -0.14827085
v -0.96140409 0.07850698 -0.22998403
v -0.94607496 0.07406952 -0.26998782
v -0.95101833 0.07311282 -0.24840438
v -0.93968028 0.06022792 -0.23888409
v -0.94879609 0.06694517 -0.23131749
v -1.00353634 0.10999664 -0.09000175
v -1.00521445 0.10999664 -0.07003087
v -1.00485158 0.12998554 -0.07003087
v -1.00067925 0.12292226 -0.13000555
v -0.99791270 0.13293707 -0.13000555
v -0.99668819 0.12815356 -0.14827085
v -0.99918258 0.13745594 -0.11000365
v -0.98339993 0.14394929 -0.18998024
v -0.99986285 0.13961360 -0.09887081
v -0.94997525 0.15455440 -0.24998593
v -0.92997485 0.15475795 -0.30999163
v -0.96997565 0.14983198 -0.20998213
v -0.96997565 0.15217283 -0.18998024
v -0.92602921 0.15469688 -0.31396100
v -0.92875034 0.07119942 -0.31396100
v -0.92956668 0.07028344 -0.30884421
v -0.93224251 0.06692481 -0.28998971
v -0.93532646 0.06407507 -0.26998782
v -0.97759485 0.08272053 -0.16997834
v -0.96367168 0.07626790 -0.20998213
v -0.98535013 0.09271498 -0.16997834
v -1.00063384 0.09898442 -0.09000175
v -0.98915970 0.08998737 -0.13000555
v -0.99324143 0.09186006 -0.10873221
v -0.99305999 0.08896960 -0.09000175
v -0.95310456 0.06627344 -0.20998213
v -0.93818367 0.06155101 -0.24998593
v -0.94131297 0.05882340 -0.22554950
v -0.92820609 0.05308320 -0.24998593
v -0.91841000 0.04131784 -0.23379835
v -0.92008805 0.03991332 -0.22046375
v -1.00643897 0.10999664 -0.05002896
v -1.00607610 0.12998554 -0.05002896
v -1.00049782 0.14067209 -0.08553621
v -1.00262928 0.13177681 -0.09133521
v -1.00185835 0.12744114 -0.11000365
v -0.98507798 0.14535379 -0.16997834
v -0.94997525 0.15526684 -0.22998403
v -0.96997565 0.15367913 -0.16997834
v -0.96997565 0.15455440 -0.15000744
v -0.92997485 0.15532790 -0.28998971
v -0.98657459 0.14631051 -0.15000744
v -0.90997446 0.15274277 -0.31396100
v -0.91940778 0.06260949 -0.31396100
v -0.92040551 0.05961725 -0.30127764
v -0.92221963 0.05807025 -0.28998971
v -0.92534894 0.05546477 -0.26998782
v -0.97900075 0.08111246 -0.15394580
v -0.96571255 0.07429343 -0.18998024
v -0.95523614 0.06429897 -0.18998024
v -0.98557687 0.08866428 -0.14836389
v -0.99392170 0.08774829 -0.07003087
v -1.00145018 0.09774274 -0.07003087
v -0.98008919 0.07989114 -0.14061120
v -0.98076952 0.07913800 -0.13000555
v -0.98199403 0.07783525 -0.11000365
v -0.98308247 0.07675642 -0.09000175
v -0.94308168 0.05727639 -0.20998213
v -0.93133545 0.04730229 -0.20998213
v -0.91623306 0.04310910 -0.24998593
v -0.90625560 0.03492627 -0.24998593
v -0.91101760 0.03415277 -0.22827844
v -0.92131257 0.03889555 -0.20998213
v -0.89850032 0.02116608 -0.21398251
v -0.90806967 0.02780191 -0.20840059
v -1.00725532 0.10999664 -0.03002706
v -1.00203979 0.09684711 -0.05002896
v -1.00689244 0.12998554 -0.03002706
v -1.00167692 0.14219874 -0.05002896
v -1.00108743 0.14146593 -0.07003087
v -0.98793519 0.14698222 -0.13000555
v -0.96997565 0.15498187 -0.13000555
v -0.96997565 0.15506329 -0.11000365
v -0.98997605 0.14936380 -0.07003087
v -0.98997605 0.15019837 -0.05002896
v -0.98997605 0.15070724 -0.03002706
v -0.96997565 0.15494116 -0.09000175
v -0.96997565 0.15400481 0.00284427
v -0.90589273 0.15099221 -0.31396100
v -0.91727620 0.06073680 -0.31396100
v -0.90952098 0.05424345 -0.31396100
v -0.91083616 0.05381599 -0.30875120
v -0.89904457 0.04076824 -0.29715317
v -0.90870464 0.04693590 -0.29026884
v -0.90122145 0.03901768 -0.28381860
v -0.91333055 0.04549067 -0.26998782
v -0.96757197 0.07256323 -0.16997834
v -0.95714092 0.06254842 -0.16997834
v -0.94521326 0.05544442 -0.18998024
v -0.99455661 0.08685265 -0.05002896
v -0.98389882 0.07588115 -0.07003087
v -0.97138155 0.07272607 -0.14836389
v -0.95981669 0.06014649 -0.13884360
v -0.96843368 0.06739298 -0.13130800
v -0.97174442 0.06782044 -0.11000365
v -0.97283286 0.06676197 -0.09000175
v -0.97373986 0.06588669 -0.07003087
v -0.93351233 0.04547032 -0.18998024
v -0.90335304 0.03728748 -0.26998782
v -0.89364761 0.02491146 -0.24998593
v -0.89641410 0.02275379 -0.22998403
v -0.92348945 0.03708393 -0.18998024
v -0.90013301 0.01988370 -0.20064792
v -0.91128969 0.02708947 -0.18998024
v -0.88643658 0.01514091 -0.22998403
v -0.89110792 0.01448954 -0.20840059
v -1.00761807 0.10999664 -0.01002517
v -1.00244796 0.09625681 -0.03002706
v -0.99501014 0.08626235 -0.03002706
v -1.00725532 0.12998554 -0.01002517
v -1.00208509 0.14264655 -0.03002706
v -0.98915970 0.14743005 -0.11000365
v -0.98997605 0.15093115 -0.01002517
v -0.98997605 0.15093115 0.00284427
v -1.00226653 0.14287046 -0.01002517
v -0.95147187 0.14594412 0.00284427
v -0.89314878 0.14435640 -0.31396100
v -0.89840961 0.04514463 -0.31396100
v -0.89673162 0.04257986 -0.30999163
v -0.88670874 0.03482449 -0.30999163
v -0.87723005 0.02210242 -0.28998971
v -0.89142537 0.03307393 -0.29026884
v -0.87927091 0.02053507 -0.27786455
v -0.88884026 0.02613278 -0.27073207
v -0.94711804 0.05377528 -0.16997834
v -0.95886433 0.06098106 -0.15000744
v -0.93550783 0.04378083 -0.16997834
v -0.98457909 0.07520942 -0.05002896
v -0.97446555 0.06521496 -0.05002896
v -0.94888681 0.05224863 -0.15000744
v -0.93732196 0.04225418 -0.15000744
v -0.93890929 0.04091073 -0.13000555
v -0.95188004 0.05228934 -0.13130800
v -0.96076912 0.05929157 -0.12550899
v -0.96176684 0.05839594 -0.11000365
v -0.96285534 0.05741888 -0.09000175
v -0.96376240 0.05660467 -0.07003087
v -0.88144785 0.01890664 -0.26456094
v -0.88362473 0.01723751 -0.24998593
v -0.92548501 0.03543515 -0.16997834
v -0.90126681 0.01898806 -0.18998024
v -0.87804639 0.00144179 -0.18998024
v -0.88997406 0.01041848 -0.18998024
v -0.90330768 0.01735964 -0.16997834
v -0.91328520 0.02544069 -0.16997834
v -0.87301230 0.00512610 -0.22998403
v -0.87564272 0.00321270 -0.20998213
v -1.00262928 0.09597183 -0.01002517
v -1.00766349 0.10999664 0.00284427
v -0.99523693 0.08595702 -0.01002517
v -0.98498726 0.07474124 -0.03002706
v -1.00725532 0.12998554 0.00284427
v -1.00408065 0.13827015 0.00284427
v -0.99786735 0.14576091 0.00284427
v -1.00226653 0.14287046 0.00284427
v -0.63327974 -0.05260155 0.00284427
v -0.54438913 -0.05260155 -0.31396100
v -0.89596057 0.04317017 -0.31396100
v -0.89401042 0.04162316 -0.31396100
v -0.88598305 0.03539444 -0.31396100
v -0.87360185 0.02483004 -0.30999163
v -0.86357903 0.01731893 -0.30999163
v -0.86720717 0.01463203 -0.28998971
v -0.87156105 0.01306467 -0.27073207
v -0.97491908 0.06474679 -0.03002706
v -0.96444267 0.05597365 -0.05002896
v -0.96494150 0.05554619 -0.03002706
v -0.92729908 0.03394921 -0.15000744
v -0.92888641 0.03264647 -0.13000555
v -0.93972564 0.04019829 -0.11822148
v -0.94834256 0.04685448 -0.11093397
v -0.94058728 0.03948586 -0.10488689
v -0.95142651 0.04744478 -0.09000175
v -0.95233357 0.04663057 -0.07003087
v -0.95305920 0.04599955 -0.05002896
v -0.85908914 0.00064793 -0.25708738
v -0.86865848 0.00616422 -0.25023401
v -0.91514462 0.02393440 -0.15000744
v -0.87945235 0.00040367 -0.17742090
v -0.88847744 0.00614386 -0.17044349
v -0.86561984 -0.00409485 -0.20998213
v -0.86802351 -0.00584541 -0.18998024
v -0.90516710 0.01589406 -0.15000744
v -0.88085824 -0.00063445 -0.16408630
v -0.89219636 0.00589960 -0.15000744
v -0.86108464 -0.00079729 -0.24375278
v -0.86303478 -0.00220181 -0.22998403
v -1.00262928 0.09595148 0.00284427
v -0.98521405 0.07453769 -0.01002517
v -0.99165404 0.08186560 0.00284427
v -0.99523693 0.08595702 0.00284427
v -0.97514582 0.06452288 -0.01002517
v -0.82534695 -0.05260155 0.00284427
v -0.75713700 -0.05260155 -0.31396100
v -0.87546134 0.02737445 -0.31396100
v -0.86285335 0.01788888 -0.31396100
v -0.84865808 0.00648991 -0.30971253
v -0.85346544 0.00463757 -0.28998971
v -0.85695755 0.00215422 -0.26998782
v -0.95351273 0.04557209 -0.03002706
v -0.96516830 0.05534264 -0.01002517
v -0.91673195 0.02263166 -0.13000555
v -0.91813791 0.02149177 -0.11000365
v -0.93183434 0.03289074 -0.11093397
v -0.91931707 0.02055542 -0.09000175
v -0.92997485 0.02934891 -0.09000175
v -0.94140363 0.03879378 -0.09000175
v -0.94231069 0.03802028 -0.07003087
v -0.94303632 0.03740961 -0.05002896
v -0.84693468 -0.00484800 -0.26998782
v -0.83573264 -0.01712225 -0.24998593
v -0.85142457 -0.00619145 -0.25023401
v -0.85641336 -0.01746829 -0.16997834
v -0.87165171 -0.00635429 -0.17044349
v -0.85160601 -0.01410966 -0.20998213
v -0.85414571 -0.01586022 -0.18998024
v -0.90675443 0.01461167 -0.13000555
v -0.89391971 0.00461722 -0.13000555
v -0.88217348 -0.00163186 -0.15000744
v -0.85849953 -0.01893387 -0.15000744
v -0.86997366 -0.01058820 -0.15000744
v -0.83822703 -0.01879138 -0.23395340
v -0.84806848 -0.01305119 -0.22837147
v -0.84017718 -0.02011448 -0.22061880
v -0.98521405 0.07453769 0.00284427
v -0.96516830 0.05534264 0.00284427
v -0.97514582 0.06454324 0.00284427
v -0.82997292 -0.04952790 0.00284427
v -0.84208196 -0.04140613 -0.01002517
v -0.82997292 -0.04944648 -0.01002517
v -0.82521093 -0.05260155 -0.01002517
v -0.75890577 -0.05260155 -0.30983657
v -0.76974499 -0.04476476 -0.31396100
v -0.85264909 0.01056097 -0.31396100
v -0.84915698 0.00805726 -0.31396100
v -0.84199131 0.00292772 -0.31396100
v -0.84108424 -0.00075658 -0.30285919
v -0.84344256 -0.00240536 -0.28998971
v -0.94353521 0.03702287 -0.03002706
v -0.95373952 0.04536854 -0.01002517
v -0.90816039 0.01347177 -0.11000365
v -0.90933955 0.01251508 -0.09000175
v -0.91986132 0.02008725 -0.07886891
v -0.92825150 0.02647882 -0.07133331
v -0.92045087 0.01961908 -0.06553432
v -0.93097264 0.02741516 -0.05002896
v -0.83233124 -0.01484246 -0.26998782
v -0.82235372 -0.02158006 -0.26998782
v -0.82570976 -0.02383950 -0.24998593
v -0.84643579 -0.02447052 -0.16997834
v -0.84158313 -0.02111189 -0.20998213
v -0.84412283 -0.02288280 -0.18998024
v -0.89541638 0.00347732 -0.11000365
v -0.88389689 -0.00291425 -0.13000555
v -0.85963333 -0.01974808 -0.13806833
v -0.84852201 -0.02593610 -0.15000744
v -0.81387281 -0.03591020 -0.22998403
v -0.83092529 -0.02479620 -0.22837147
v -0.81673002 -0.03782360 -0.20998213
v -0.82997292 -0.02894869 -0.20998213
v -0.95373952 0.04536854 0.00284427
v -0.84212732 -0.04144684 0.00284427
v -0.84171915 -0.04116186 -0.03002706
v -0.85205948 -0.03444462 -0.01002517
v -0.82448530 -0.05260155 -0.03002706
v -0.76348633 -0.05260155 -0.29861069
v -0.77096951 -0.04517186 -0.30949545
v -0.77609432 -0.04075476 -0.31396100
v -0.83591408 -0.00128582 -0.31396100
v -0.83106136 -0.00570292 -0.30971253
v -0.81487060 -0.01655230 -0.30999163
v -0.81790918 -0.01858784 -0.29439324
v -0.82820415 -0.01309190 -0.28862524
v -0.93147147 0.02702841 -0.03002706
v -0.93174362 0.02682486 -0.01002517
v -0.94376194 0.03681931 -0.01002517
v -0.95020199 0.04231524 0.00284427
v -0.89668626 0.00252062 -0.09000175
v -0.89768398 0.00174712 -0.07003087
v -0.91192460 0.01316645 -0.07133331
v -0.92099512 0.01919162 -0.05002896
v -0.89850032 0.00115681 -0.05002896
v -0.90997446 0.01031670 -0.05002896
v -0.82035822 -0.02025697 -0.28105864
v -0.80997252 -0.02982396 -0.26998782
v -0.79936004 -0.03959451 -0.25820377
v -0.80892944 -0.03483137 -0.25091624
v -0.80158234 -0.04103974 -0.24486917
v -0.83178699 -0.03448533 -0.16997834
v -0.83396393 -0.03595091 -0.15000744
v -0.81877089 -0.03916705 -0.19512801
v -0.82824951 -0.03381360 -0.18908092
v -0.88539350 -0.00403379 -0.11000365
v -0.86843169 -0.01419108 -0.13084283
v -0.86076719 -0.02056230 -0.12473373
v -0.87187850 -0.01402824 -0.11000365
v -0.85178739 -0.02611930 -0.13084283
v -0.83586872 -0.03723329 -0.13000555
v -0.80384994 -0.04256638 -0.22998403
v -0.80675250 -0.04447978 -0.20998213
v -0.85210484 -0.03446497 0.00284427
v -0.85169667 -0.03420036 -0.03002706
v -0.84108424 -0.04073440 -0.05002896
v -0.82997292 -0.04812338 -0.05002896
v -0.86602801 -0.02447052 0.00284427
v -0.86598265 -0.02442981 -0.01002517
v -0.86566520 -0.02418555 -0.03002706
v -0.82380497 -0.05260155 -0.04075677
v -0.76697850 -0.05260155 -0.28998971
v -0.78103769 -0.04065298 -0.30248702
v -0.78861153 -0.03395609 -0.30949545
v -0.78920114 -0.03236838 -0.31396100
v -0.81137842 -0.01783469 -0.31396100
v -0.80489308 -0.02326956 -0.30999163
v -0.81074351 -0.02481656 -0.28862524
v -0.92144859 0.01878451 -0.03002706
v -0.92172074 0.01858096 -0.01002517
v -0.92816079 0.02387334 0.00284427
v -0.93174362 0.02682486 0.00284427
v -0.93605208 0.03040739 0.00284427
v -0.94376194 0.03681931 0.00284427
v -0.88666338 -0.00499049 -0.09000175
v -0.88770646 -0.00576399 -0.07003087
v -0.90997446 0.00954320 -0.03002706
v -0.88847744 -0.00637465 -0.05002896
v -0.87568808 -0.01677621 -0.03002706
v -0.88897634 -0.00678176 -0.03002706
v -0.89899921 0.00077006 -0.03002706
v -0.79722852 -0.03823070 -0.26998782
v -0.78725100 -0.04460192 -0.26998782
v -0.77922362 -0.05260155 -0.25693232
v -0.78153658 -0.05260155 -0.25035805
v -0.79160482 -0.04610821 -0.25091624
v -0.78484732 -0.05260155 -0.24031059
v -0.78865689 -0.05260155 -0.22861956
v -0.82044894 -0.04028659 -0.18179341
v -0.82180947 -0.04122293 -0.16997834
v -0.82398641 -0.04266816 -0.15000744
v -0.81124240 -0.04517186 -0.18908092
v -0.87319374 -0.01498494 -0.09000175
v -0.86190099 -0.02137651 -0.11000365
v -0.84997332 -0.02974254 -0.11000365
v -0.86321616 -0.02235357 -0.09000175
v -0.83754677 -0.03835283 -0.11000365
v -0.82589120 -0.04395054 -0.13000555
v -0.78974539 -0.05260155 -0.22499131
v -0.79246652 -0.05260155 -0.21590517
v -0.79378170 -0.05260155 -0.21128458
v -0.79799950 -0.05260155 -0.19618237
v -0.85106176 -0.03377289 -0.05002896
v -0.86512101 -0.02375808 -0.05002896
v -0.84044933 -0.04032730 -0.06454197
v -0.82321543 -0.05260155 -0.05002896
v -0.87605089 -0.01704083 0.00284427
v -0.87600553 -0.01700012 -0.01002517
v -0.87509853 -0.01638946 -0.05002896
v -0.76788551 -0.05260155 -0.28772593
v -0.78348672 -0.04219999 -0.28998971
v -0.79346424 -0.03582878 -0.28998971
v -0.80407673 -0.02274031 -0.31396100
v -0.79251188 -0.03023107 -0.31396100
v -0.90997446 0.00913610 -0.01002517
v -0.91419226 0.01249472 0.00284427
v -0.92172074 0.01858096 0.00284427
v -0.87428218 -0.01577880 -0.07003087
v -0.89927131 0.00056651 -0.01002517
v -0.88924843 -0.00700566 -0.01002517
v -0.77418953 -0.05260155 -0.27107319
v -0.80462092 -0.05260155 -0.16997834
v -0.80997252 -0.04908008 -0.16997834
v -0.80906546 -0.05260155 -0.15000744
v -0.80974573 -0.05260155 -0.14656526
v -0.79972291 -0.05260155 -0.18967013
v -0.80267078 -0.05260155 -0.17791708
v -0.84997332 -0.03167629 -0.09000175
v -0.83899802 -0.03932989 -0.09000175
v -0.86425930 -0.02314742 -0.07003087
v -0.83976901 -0.03983878 -0.07787657
v -0.84824991 -0.03442426 -0.07074411
v -0.82756925 -0.04504973 -0.11000365
v -0.81260294 -0.05260155 -0.13152507
v -0.81546015 -0.05260155 -0.11443818
v -0.82135594 -0.05260155 -0.07027895
v -0.88929379 -0.00702602 0.00284427
v -0.90312624 0.00359945 0.00284427
v -0.89927131 0.00054615 0.00284427
v -0.80616289 -0.05260155 -0.16312498
v -0.82897514 -0.04598608 -0.09000175
v -0.81899762 -0.05260155 -0.09000175
v -0.81618577 -0.05260155 -0.11000365
v -0.81813592 -0.05260155 -0.09623490
f 1 2 10
f 1 10 25
f 1 25 51
f 1 51 82
f 1 82 111
f 1 111 147
f 1 147 185
f 1 185 225
f 1 225 262
f 1 262 301
f 1 301 336
f 1 336 380
f 1 380 429
f 1 429 428
f 1 428 381
f 1 381 337
f 1 337 304
f 1 304 303
f 1 303 302
f 1 302 264
f 1 264 263
f 1 263 228
f 1 228 227
f 1 227 226
f 1 226 186
f 1 186 149
f 1 149 148
f 1 148 112
f 1 112 83
f 1 83 54
f 1 54 27
f 1 27 11
f 1 11 3
f 1 3 4
f 1 4 5
f 1 5 6
f 1 6 7
f 1 7 2
f 2 7 8
f 2 8 9
f 2 9 10
f 3 11 4
f 4 11 12
f 4 12 13
f 4 13 14
f 4 14 15
f 4 15 16
f 4 16 6
f 4 6 5
f 6 16 15
f 6 15 17
f 6 17 18
f 6 18 7
f 7 18 19
f 7 19 20
f 7 20 9
f 7 9 8
f 9 20 19
f 9 19 21
f 9 21 22
f 9 22 23
f 9 23 10
f 10 24 25
f 10 23 26
f 10 26 24
f 11 27 28
f 11 28 12
f 12 29 13
f 12 28 30
f 12 30 31
f 12 31 29
f 13 32 33
f 13 33 34
f 13 34 35
f 13 35 36
f 13 36 37
f 13 37 38
f 13 38 14
f 13 29 39
f 13 39 40
f 13 40 32
f 14 38 17
f 14 17 41
f 14 41 15
f 15 41 17
f 17 38 37
f 17 37 36
f 17 36 42
f 17 42 45
f 17 45 18
f 18 43 21
f 18 21 44
f 18 44 19
f 18 45 46
f 18 46 47
f 18 47 43
f 19 44 21
f 21 43 22
f 22 43 47
f 22 47 46
f 22 46 48
f 22 48 49
f 22 49 26
f 22 26 23
f 24 50 25
f 24 26 50
f 25 50 51
f 26 49 52
f 26 52 50
f 27 53 30
f 27 30 28
f 27 54 53
f 29 31 55
f 29 55 39
f 30 53 31
f 31 53 56
f 31 56 55
f 32 57 33
f 32 40 57
f 33 57 58
f 33 58 34
f 34 59 60
f 34 60 61
f 34 61 62
f 34 62 35
f 34 58 59
f 35 62 63
f 35 63 42
f 35 42 36
f 39 55 40
f 40 64 57
f 40 55 65
f 40 65 66
f 40 66 67
f 40 67 68
f 40 68 64
f 42 63 62
f 42 62 61
f 42 61 69
f 42 69 70
f 42 70 45
f 45 70 71
f 45 71 72
f 45 72 73
f 45 73 74
f 45 74 48
f 45 48 46
f 48 74 73
f 48 73 75
f 48 75 49
f 49 76 52
f 49 75 77
f 49 77 76
f 50 78 79
f 50 79 51
f 50 52 80
f 50 80 81
f 50 81 78
f 51 79 82
f 52 76 80
f 53 54 83
f 53 83 84
f 53 84 85
f 53 85 56
f 55 56 65
f 56 85 86
f 56 86 65
f 57 87 58
f 57 64 88
f 57 88 87
f 58 87 89
f 58 89 59
f 59 90 70
f 59 70 69
f 59 69 60
f 59 89 91
f 59 91 92
f 59 92 93
f 59 93 90
f 60 69 61
f 64 68 94
f 64 94 88
f 65 86 95
f 65 95 66
f 66 95 67
f 67 96 68
f 67 95 97
f 67 97 98
f 67 98 99
f 67 99 96
f 68 96 94
f 70 100 101
f 70 101 71
f 70 90 100
f 71 101 102
f 71 102 77
f 71 77 103
f 71 103 104
f 71 104 72
f 72 104 75
f 72 75 73
f 75 104 77
f 76 77 105
f 76 105 80
f 77 104 103
f 77 102 105
f 78 106 79
f 78 81 107
f 78 107 108
f 78 108 106
f 79 109 82
f 79 106 109
f 80 105 81
f 81 105 110
f 81 110 107
f 82 109 111
f 83 112 84
f 84 112 113
f 84 113 85
f 85 113 114
f 85 114 86
f 86 114 115
f 86 115 95
f 87 116 89
f 87 88 117
f 87 117 116
f 88 94 118
f 88 118 117
f 89 119 91
f 89 116 119
f 90 93 120
f 90 120 121
f 90 121 100
f 91 119 122
f 91 122 92
f 92 122 123
f 92 123 124
f 92 124 93
f 93 124 125
f 93 125 120
f 94 96 126
f 94 126 118
f 95 115 97
f 96 99 127
f 96 127 126
f 97 115 128
f 97 128 98
f 98 128 129
f 98 129 130
f 98 130 99
f 99 131 127
f 99 130 132
f 99 132 133
f 99 133 131
f 100 134 136
f 100 136 101
f 100 121 135
f 100 135 134
f 101 136 137
f 101 137 138
f 101 138 102
f 102 138 139
f 102 139 110
f 102 110 105
f 106 108 140
f 106 140 141
f 106 141 109
f 107 110 139
f 107 139 142
f 107 142 108
f 108 142 143
f 108 143 144
f 108 144 140
f 109 141 145
f 109 145 146
f 109 146 111
f 111 146 147
f 112 148 113
f 113 148 149
f 113 149 150
f 113 150 151
f 113 151 114
f 114 151 152
f 114 152 153
f 114 153 115
f 115 153 154
f 115 154 128
f 116 117 155
f 116 155 122
f 116 122 119
f 117 118 156
f 117 156 155
f 118 126 157
f 118 157 156
f 120 158 121
f 120 125 159
f 120 159 158
f 121 158 135
f 122 155 160
f 122 160 161
f 122 161 162
f 122 162 123
f 123 162 163
f 123 163 124
f 124 163 125
f 125 163 164
f 125 164 165
f 125 165 159
f 126 127 166
f 126 166 157
f 127 131 166
f 128 154 167
f 128 167 129
f 129 167 168
f 129 168 169
f 129 169 130
f 130 169 132
f 131 170 166
f 131 133 171
f 131 171 172
f 131 172 170
f 132 171 133
f 132 169 173
f 132 173 174
f 132 174 171
f 134 175 178
f 134 178 136
f 134 135 176
f 134 176 175
f 135 158 177
f 135 177 176
f 136 178 179
f 136 179 137
f 137 179 143
f 137 143 142
f 137 142 138
f 138 142 180
f 138 180 139
f 139 180 142
f 140 144 181
f 140 181 141
f 141 181 182
f 141 182 145
f 143 179 144
f 144 179 183
f 144 183 181
f 145 182 146
f 146 182 222
f 146 222 223
f 146 223 221
f 146 221 220
f 146 220 217
f 146 217 256
f 146 256 259
f 146 259 258
f 146 258 293
f 146 293 295
f 146 295 294
f 146 294 329
f 146 329 345
f 146 345 389
f 146 389 388
f 146 388 387
f 146 387 386
f 146 386 432
f 146 432 431
f 146 431 453
f 146 453 454
f 146 454 452
f 146 452 422
f 146 422 373
f 146 373 369
f 146 369 330
f 146 330 296
f 146 296 261
f 146 261 224
f 146 224 184
f 146 184 147
f 147 184 185
f 149 186 187
f 149 187 150
f 150 187 151
f 151 153 152
f 151 187 188
f 151 188 189
f 151 189 190
f 151 190 153
f 153 167 154
f 153 190 191
f 153 191 192
f 153 192 167
f 155 156 160
f 156 157 193
f 156 193 194
f 156 194 160
f 157 166 195
f 157 195 193
f 158 159 196
f 158 196 177
f 159 165 197
f 159 197 196
f 160 194 161
f 161 194 198
f 161 198 199
f 161 199 200
f 161 200 201
f 161 201 202
f 161 202 162
f 162 202 163
f 163 202 203
f 163 203 164
f 164 203 204
f 164 204 165
f 165 204 205
f 165 205 197
f 166 170 195
f 167 192 168
f 168 192 206
f 168 206 207
f 168 207 169
f 169 207 173
f 170 208 195
f 170 172 213
f 170 213 208
f 171 209 172
f 171 174 210
f 171 210 211
f 171 211 209
f 172 209 212
f 172 212 213
f 173 207 214
f 173 214 215
f 173 215 174
f 174 215 210
f 175 176 216
f 175 216 217
f 175 217 178
f 176 177 218
f 176 218 216
f 177 196 219
f 177 219 218
f 178 220 221
f 178 221 183
f 178 183 179
f 178 217 220
f 181 183 222
f 181 222 182
f 183 221 223
f 183 223 222
f 184 224 225
f 184 225 185
f 186 226 187
f 187 226 227
f 187 227 228
f 187 228 188
f 188 228 229
f 188 229 189
f 189 191 190
f 189 229 230
f 189 230 231
f 189 231 191
f 191 206 192
f 191 231 232
f 191 232 206
f 193 198 194
f 193 195 199
f 193 199 198
f 195 208 199
f 196 197 233
f 196 233 219
f 197 205 234
f 197 234 235
f 197 235 233
f 199 208 236
f 199 236 200
f 200 236 237
f 200 237 238
f 200 238 201
f 201 238 202
f 202 238 203
f 203 238 239
f 203 239 240
f 203 240 241
f 203 241 204
f 204 241 242
f 204 242 205
f 205 242 243
f 205 243 234
f 206 232 244
f 206 244 245
f 206 245 207
f 207 245 214
f 208 213 246
f 208 246 236
f 209 211 247
f 209 247 248
f 209 248 212
f 210 247 211
f 210 215 249
f 210 249 250
f 210 250 247
f 212 251 246
f 212 246 213
f 212 248 252
f 212 252 253
f 212 253 251
f 214 245 254
f 214 254 255
f 214 255 215
f 215 255 249
f 216 256 217
f 216 218 256
f 218 219 257
f 218 257 258
f 218 258 259
f 218 259 256
f 219 233 260
f 219 260 257
f 224 261 299
f 224 299 333
f 224 333 376
f 224 376 421
f 224 421 451
f 224 451 457
f 224 457 459
f 224 459 458
f 224 458 450
f 224 450 449
f 224 449 440
f 224 440 439
f 224 439 455
f 224 455 437
f 224 437 442
f 224 442 441
f 224 441 417
f 224 417 416
f 224 416 415
f 224 415 414
f 224 414 403
f 224 403 402
f 224 402 400
f 224 400 399
f 224 399 436
f 224 436 425
f 224 425 377
f 224 377 334
f 224 334 300
f 224 300 262
f 224 262 225
f 228 263 229
f 229 263 264
f 229 264 230
f 230 264 265
f 230 265 266
f 230 266 231
f 231 266 267
f 231 267 232
f 232 267 244
f 233 235 260
f 234 243 235
f 235 243 268
f 235 268 308
f 235 308 269
f 235 269 260
f 236 246 270
f 236 270 237
f 237 270 238
f 238 240 239
f 238 270 271
f 238 271 272
f 238 272 240
f 240 272 271
f 240 271 273
f 240 273 274
f 240 274 275
f 240 275 241
f 241 275 242
f 242 275 276
f 242 276 243
f 243 276 277
f 243 277 268
f 244 254 245
f 244 267 278
f 244 278 279
f 244 279 280
f 244 280 254
f 246 251 270
f 247 252 248
f 247 250 281
f 247 281 282
f 247 282 252
f 249 255 283
f 249 283 284
f 249 284 250
f 250 284 281
f 251 285 270
f 251 253 286
f 251 286 285
f 252 287 253
f 252 282 281
f 252 281 288
f 252 288 289
f 252 289 287
f 253 287 322
f 253 322 286
f 254 280 290
f 254 290 291
f 254 291 255
f 255 291 292
f 255 292 283
f 257 260 293
f 257 293 258
f 260 269 294
f 260 294 295
f 260 295 293
f 261 296 297
f 261 297 298
f 261 298 299
f 262 300 301
f 264 302 265
f 265 302 303
f 265 303 304
f 265 304 305
f 265 305 266
f 266 305 306
f 266 306 267
f 267 306 278
f 268 277 307
f 268 307 344
f 268 344 308
f 269 308 329
f 269 329 294
f 270 285 309
f 270 309 271
f 271 309 310
f 271 310 273
f 273 310 311
f 273 311 274
f 274 311 275
f 275 311 276
f 276 311 312
f 276 312 313
f 276 313 277
f 277 313 314
f 277 314 342
f 277 342 307
f 278 306 315
f 278 315 279
f 279 315 316
f 279 316 317
f 279 317 290
f 279 290 280
f 281 284 318
f 281 318 324
f 281 324 288
f 283 292 319
f 283 319 320
f 283 320 284
f 284 320 318
f 285 286 321
f 285 321 309
f 286 322 321
f 287 289 323
f 287 323 322
f 288 324 323
f 288 323 289
f 290 292 291
f 290 317 325
f 290 325 326
f 290 326 292
f 292 326 325
f 292 325 327
f 292 327 328
f 292 328 319
f 296 330 297
f 297 331 298
f 297 330 332
f 297 332 370
f 297 370 331
f 298 333 299
f 298 331 333
f 300 334 335
f 300 335 301
f 301 335 336
f 304 337 305
f 305 337 338
f 305 338 339
f 305 339 340
f 305 340 341
f 305 341 306
f 306 341 315
f 307 342 343
f 307 343 344
f 308 344 345
f 308 345 329
f 309 321 346
f 309 346 310
f 310 346 347
f 310 347 348
f 310 348 311
f 311 313 312
f 311 348 313
f 313 349 314
f 313 348 350
f 313 350 351
f 313 351 349
f 314 349 342
f 315 341 352
f 315 352 316
f 316 352 353
f 316 353 354
f 316 354 317
f 317 354 355
f 317 355 356
f 317 356 325
f 318 320 357
f 318 357 358
f 318 358 324
f 319 328 359
f 319 359 360
f 319 360 320
f 320 360 357
f 321 322 361
f 321 361 390
f 321 390 346
f 322 323 362
f 322 362 363
f 322 363 364
f 322 364 361
f 323 363 362
f 323 324 365
f 323 365 363
f 324 358 366
f 324 366 365
f 325 356 367
f 325 367 368
f 325 368 327
f 327 368 359
f 327 359 328
f 330 369 332
f 331 370 418
f 331 418 371
f 331 371 372
f 331 372 333
f 332 369 373
f 332 373 374
f 332 374 375
f 332 375 370
f 333 372 376
f 334 377 335
f 335 377 378
f 335 378 336
f 336 378 379
f 336 379 380
f 337 381 339
f 337 339 338
f 339 381 382
f 339 382 340
f 340 382 383
f 340 383 352
f 340 352 341
f 342 349 384
f 342 384 385
f 342 385 343
f 343 385 386
f 343 386 387
f 343 387 388
f 343 388 344
f 344 389 345
f 344 388 389
f 346 390 391
f 346 391 347
f 347 350 348
f 347 391 350
f 349 351 392
f 349 392 384
f 350 391 393
f 350 393 394
f 350 394 395
f 350 395 396
f 350 396 351
f 351 396 392
f 352 383 353
f 353 383 397
f 353 397 354
f 354 356 355
f 354 397 398
f 354 398 399
f 354 399 400
f 354 400 401
f 354 401 356
f 356 401 402
f 356 402 403
f 356 403 367
f 357 360 404
f 357 404 405
f 357 405 358
f 358 405 406
f 358 406 413
f 358 413 366
f 359 404 360
f 359 368 407
f 359 407 404
f 361 364 408
f 361 408 390
f 363 409 364
f 363 365 410
f 363 410 409
f 364 409 411
f 364 411 408
f 365 366 412
f 365 412 410
f 366 413 412
f 367 403 414
f 367 414 415
f 367 415 368
f 368 415 416
f 368 416 417
f 368 417 407
f 370 375 419
f 370 419 418
f 371 420 372
f 371 418 420
f 372 421 376
f 372 420 421
f 373 422 423
f 373 423 374
f 374 423 394
f 374 394 375
f 375 394 424
f 375 424 419
f 377 425 378
f 378 426 427
f 378 427 379
f 378 425 426
f 379 427 382
f 379 382 428
f 379 428 429
f 379 429 380
f 381 428 382
f 382 427 383
f 383 427 397
f 384 392 385
f 385 392 430
f 385 430 431
f 385 431 432
f 385 432 386
f 390 408 433
f 390 433 391
f 391 433 424
f 391 424 393
f 392 396 434
f 392 434 430
f 393 424 394
f 394 423 395
f 395 423 396
f 396 423 435
f 396 435 434
f 397 427 426
f 397 426 398
f 398 426 436
f 398 436 399
f 400 402 401
f 404 407 437
f 404 437 438
f 404 438 405
f 405 438 439
f 405 439 406
f 406 439 440
f 406 440 413
f 407 417 441
f 407 441 442
f 407 442 437
f 408 411 433
f 409 410 443
f 409 443 411
f 410 412 444
f 410 444 443
f 411 445 433
f 411 443 446
f 411 446 447
f 411 447 445
f 412 413 448
f 412 448 444
f 413 440 449
f 413 449 450
f 413 450 448
f 418 447 420
f 418 419 445
f 418 445 447
f 419 424 433
f 419 433 445
f 420 447 446
f 420 446 451
f 420 451 421
f 422 452 434
f 422 434 435
f 422 435 423
f 425 436 426
f 430 434 453
f 430 453 431
f 434 452 454
f 434 454 453
f 437 455 438
f 438 455 439
f 443 444 446
f 444 448 456
f 444 456 446
f 446 456 457
f 446 457 451
f 448 450 458
f 448 458 459
f 448 459 456
f 456 459 457
