v 0.31570423 0.10939129 0.95526606
v 0.31570423 0.13048661 0.95504457
v 0.30321172 0.12447394 0.96106911
v 0.30321172 0.11526130 0.96106911
v 0.30990747 0.10914671 0.95725948
v 0.29831392 0.10193150 0.95943004
v 0.31570423 0.09053800 0.94578636
v 0.29806593 0.13782412 0.95929718
v 0.30990747 0.13069044 0.95703799
v 0.31570423 0.13448147 0.95318407
v 0.29084322 0.13069044 0.96337259
v 0.26998103 0.12999745 0.96966285
v 0.24053219 0.12064213 0.98011708
v 0.24053219 0.11929692 0.98011708
v 0.26998103 0.10998237 0.96984005
v 0.29099822 0.10914671 0.96341681
v 0.23402244 0.10596713 0.97852236
v 0.22069296 0.09973025 0.98011708
v 0.28498444 0.09777358 0.96146774
v 0.30978346 0.08888705 0.94653940
v 0.31570423 0.08218139 0.93945181
v 0.31570423 0.14567117 0.94618505
v 0.28473645 0.14175783 0.96137917
v 0.22053798 0.14016804 0.98011708
v 0.23389846 0.13397193 0.97838950
v 0.24831289 0.12838727 0.97604167
v 0.22831866 0.12838727 0.98118025
v 0.20999840 0.12999745 0.98490125
v 0.14149109 0.12107015 1.00022829
v 0.14149109 0.11886890 1.00022829
v 0.18997318 0.10998237 0.98919809
v 0.20999840 0.10998237 0.98498982
v 0.22841167 0.11157216 0.98118025
v 0.24831289 0.11157216 0.97621888
v 0.16997896 0.10998237 0.99305201
v 0.13002154 0.10539643 0.99858922
v 0.11635108 0.10164616 0.99951947
v 0.20999840 0.09797740 0.98131311
v 0.20999840 0.08799025 0.97391540
v 0.22841167 0.09184244 0.97240925
v 0.24859187 0.08911125 0.96532166
v 0.26998103 0.09473667 0.96368265
v 0.26998103 0.08474952 0.95610774
v 0.29099822 0.09066028 0.95411432
v 0.31570423 0.08136611 0.93878734
v 0.30299473 0.07894066 0.94100225
v 0.31570423 0.14801510 0.94228685
v 0.30996946 0.14638454 0.94720387
v 0.26998103 0.14395909 0.96354973
v 0.20999840 0.14155401 0.98122454
v 0.11563811 0.13817061 0.99943089
v 0.13002154 0.13442034 0.99841201
v 0.16997896 0.12999745 0.99283051
v 0.18997318 0.12999745 0.98897660
v 0.24998683 0.14611956 0.96625191
v 0.14889979 0.12863186 0.99695021
v 0.13002154 0.12443317 1.00102556
v 0.09000211 0.12999745 1.00412643
v 0.07000790 0.12999745 1.00572109
v 0.07000790 0.10998237 1.00594258
v 0.09000211 0.10998237 1.00430369
v 0.13002154 0.11540397 1.00102556
v 0.14889979 0.11132758 0.99708313
v 0.10981033 0.10898365 1.00204444
v 0.10299060 0.09944490 1.00031686
v 0.16997896 0.09241313 0.98529994
v 0.18997318 0.09496087 0.98339510
v 0.18997318 0.08495334 0.97608602
v 0.24099717 0.07969479 0.96022743
v 0.25432664 0.08187566 0.95841122
v 0.31570423 0.07139934 0.92855453
v 0.28997523 0.07684132 0.94303989
v 0.28997523 0.06683378 0.93258566
v 0.30907050 0.07021718 0.92966199
v 0.26998103 0.15229531 0.94999468
v 0.31570423 0.15400739 0.92997205
v 0.18997318 0.14377564 0.98317361
v 0.10230863 0.14033109 1.00022829
v 0.10940735 0.13089426 1.00200009
v 0.20999840 0.14966603 0.96997291
v 0.05001368 0.12999745 1.00687289
v 0.05001368 0.10998237 1.00713873
v 0.09000211 0.14108522 1.00080407
v 0.07000790 0.09728441 1.00177860
v 0.09000211 0.09848695 1.00093699
v 0.09000211 0.08847941 0.99349499
v 0.10981033 0.09165899 0.99367219
v 0.13002154 0.08998768 0.98977399
v 0.14939578 0.08849980 0.98583150
v 0.15565753 0.08083618 0.97927547
v 0.16997896 0.08240559 0.97803509
v 0.20999840 0.07582222 0.96390414
v 0.22999260 0.07826805 0.96160066
v 0.22999260 0.06826052 0.95141220
v 0.24037719 0.05988353 0.94007194
v 0.24735191 0.07064521 0.94924158
v 0.26998103 0.07384517 0.94609642
v 0.31570423 0.06194211 0.91854328
v 0.26998103 0.06385802 0.93573081
v 0.28997523 0.05772305 0.92257440
v 0.30181676 0.05941475 0.92062527
v 0.31517726 0.06151409 0.91827750
v 0.30996946 0.15476152 0.92997205
v 0.24998683 0.15459846 0.94999468
v 0.18997318 0.15219340 0.96997291
v 0.31570423 0.15482266 0.92425770
v 0.16997896 0.14540620 0.98507845
v 0.15001576 0.14652722 0.98685032
v 0.13002154 0.14726096 0.98840076
v 0.03001946 0.12999745 1.00762594
v 0.03001946 0.10998237 1.00793600
v 0.07000790 0.14204317 1.00155711
v 0.05001368 0.14269540 1.00208879
v 0.05001368 0.09638761 1.00235450
v 0.05001368 0.08640045 0.99500108
v 0.07000790 0.08727688 0.99433666
v 0.09000211 0.07620948 0.98352802
v 0.11002733 0.07733048 0.98242056
v 0.13002154 0.07867569 0.98118025
v 0.14229706 0.07959288 0.98033857
v 0.16997896 0.07182736 0.96802378
v 0.18997318 0.07368211 0.96607471
v 0.18997318 0.06369496 0.95601916
v 0.20999840 0.06581468 0.95380425
v 0.22968262 0.04749131 0.92842168
v 0.23616135 0.04082641 0.91898626
v 0.24821988 0.05389124 0.93090236
v 0.25370666 0.06161600 0.93816715
v 0.22999260 0.05872177 0.94140089
v 0.31570423 0.06159562 0.91814458
v 0.26998103 0.05499187 0.92571950
v 0.26998103 0.04500471 0.91402495
v 0.29099822 0.04647221 0.90897501
v 0.29831392 0.04045954 0.89940667
v 0.30910149 0.05340207 0.91096836
v 0.31570423 0.05397277 0.90924078
v 0.28997523 0.15559718 0.92997205
v 0.22999260 0.15565832 0.94999468
v 0.15001576 0.15498573 0.96997291
v 0.16997896 0.15390548 0.96997291
v 0.31570423 0.15359974 0.90999383
v 0.09000211 0.14905457 0.98999548
v 0.01002526 0.12999745 1.00793600
v 0.01002526 0.10998237 1.00829041
v 0.03001946 0.14306228 1.00244308
v 0.03001946 0.09581691 1.00275326
v 0.07000790 0.15017557 0.98999548
v 0.05001368 0.15090933 0.98999548
v 0.03001946 0.08580938 0.99539977
v 0.05001368 0.07470121 0.98498982
v 0.07000790 0.07533306 0.98436964
v 0.09000211 0.06620194 0.97360533
v 0.11002733 0.06732295 0.97254217
v 0.13002154 0.06866816 0.97125757
v 0.14242105 0.05963895 0.96036029
v 0.14902379 0.07011528 0.96984005
v 0.15575053 0.06063767 0.95925283
v 0.16997896 0.06184020 0.95796824
v 0.18997318 0.05464537 0.94600785
v 0.20999840 0.05658166 0.94379294
v 0.22283189 0.03939968 0.92071390
v 0.22968262 0.03324433 0.91136706
v 0.22999260 0.02201387 0.89741325
v 0.24998683 0.03424304 0.90702587
v 0.24998683 0.04247735 0.91703713
v 0.20999840 0.04659450 0.93223125
v 0.26998103 0.03672964 0.90401363
v 0.28498444 0.03866592 0.90162158
v 0.29099822 0.03234752 0.89165455
v 0.28997523 0.02144318 0.87814379
v 0.30996946 0.02421512 0.87459993
v 0.30996946 0.03422266 0.88726908
v 0.31570423 0.03505832 0.88620597
v 0.30996946 0.04219200 0.89728040
v 0.31570423 0.04592190 0.89962816
v -0.00097930 0.15465961 0.96997291
v 0.09000211 0.15549527 0.96997291
v 0.20999840 0.15565832 0.94999468
v 0.11002733 0.15559718 0.96997291
v 0.13002154 0.15549527 0.96997291
v 0.31570423 0.15103161 0.90383643
v -0.00097930 0.12999745 1.00798035
v 0.01002526 0.14322533 1.00262034
v -0.00097930 0.10998237 1.00833476
v 0.01002526 0.09553157 1.00297475
v 0.03001946 0.15131697 0.98999548
v 0.01002526 0.08554441 0.99562126
v 0.03001946 0.07427319 0.98543280
v 0.05001368 0.06471406 0.97502285
v 0.07000790 0.06534590 0.97444701
v 0.09000211 0.05664280 0.96359408
v 0.11002733 0.05764152 0.96253091
v 0.13002154 0.05882367 0.96124625
v 0.12995954 0.04732826 0.94826704
v 0.13659328 0.04043915 0.93949610
v 0.14945777 0.05287214 0.95154506
v 0.16997896 0.05291291 0.94800127
v 0.16997896 0.04292575 0.93652815
v 0.18997318 0.04467860 0.93449044
v 0.20999840 0.03811561 0.92226428
v 0.20993640 0.02688516 0.90844339
v 0.21653913 0.02064828 0.89914089
v 0.22999260 0.01430949 0.88740200
v 0.24998683 0.01646998 0.88456696
v 0.24998683 0.02425588 0.89457822
v 0.27184096 0.02541766 0.88921821
v 0.27974564 0.02007759 0.87991565
v 0.28997523 0.01375918 0.86813247
v 0.30996946 0.01646998 0.86458868
v 0.31570423 0.01728526 0.86352551
v 0.31570423 0.02472467 0.87309384
v 0.31570423 0.03736148 0.88908529
v 0.31570423 0.04306843 0.89621723
v -0.00097930 0.14640492 0.95096922
v -0.00097930 0.15148002 0.98999548
v 0.01002526 0.15145963 0.98999548
v 0.31570423 0.14505970 0.89205325
v -0.00097930 0.14322533 1.00262034
v -0.00097930 0.09553157 1.00297475
v -0.00097930 0.09004882 0.99894363
v -0.00097930 0.08554441 0.99562126
v -0.00097930 0.07924639 0.99012840
v 0.01002526 0.07406937 0.98561001
v 0.01002526 0.06406184 0.97568733
v 0.03001946 0.06428604 0.97546583
v 0.05001368 0.05537913 0.96505588
v 0.07000790 0.05590906 0.96443570
v 0.09000211 0.04667603 0.95243102
v 0.11002733 0.04765436 0.95127928
v 0.12326381 0.03962388 0.94042635
v 0.12995954 0.03320356 0.93165541
v 0.13002154 0.02181005 0.91770160
v 0.15001576 0.03310165 0.92837739
v 0.15001576 0.04137672 0.93834436
v 0.16997896 0.03458954 0.92651689
v 0.18997318 0.03624047 0.92452347
v 0.18997318 0.02625332 0.91220868
v 0.20320965 0.01940498 0.90073562
v 0.20993640 0.01355536 0.89147741
v 0.20999840 0.00238605 0.87681484
v 0.22999260 0.00430195 0.87428987
v 0.26641616 0.01842665 0.88204199
v 0.24657695 -0.00148652 0.86197513
v 0.25193974 0.00519876 0.86919564
v 0.27184096 0.01204710 0.87194210
v 0.26998103 0.00124466 0.85829842
v 0.28997523 0.00377202 0.85493177
v 0.31142640 0.00534144 0.84926164
v 0.31570423 -0.00020245 0.84026921
v 0.31570423 -0.05252292 0.55583370
v -0.00097930 -0.05252292 0.63610113
v -0.00097930 0.07406937 0.98561001
v -0.00097930 0.06408222 0.97568733
v -0.00097930 0.05898673 0.97019440
v -0.00097930 0.05480843 0.96567607
v 0.01002526 0.05480843 0.96567607
v 0.03001946 0.05501225 0.96545458
v 0.03001946 0.04502510 0.95429152
v 0.05001368 0.04539197 0.95384854
v 0.07000790 0.04594228 0.95322835
v 0.07000790 0.03719842 0.94326138
v 0.09000211 0.03793217 0.94241977
v 0.11002733 0.03889013 0.94131231
v 0.11002733 0.02959596 0.92997205
v 0.11002733 0.02070943 0.91907483
v 0.13002154 0.01396300 0.90773463
v 0.15001576 0.01522668 0.90609562
v 0.15001576 0.02311450 0.91610694
v 0.16997896 0.02458200 0.91429067
v 0.18997318 0.01824321 0.90224171
v 0.18857823 0.00717581 0.88811076
v 0.19431300 0.00097970 0.87867534
v 0.20999840 -0.00515527 0.86684787
v 0.22999260 -0.00323937 0.86427861
v 0.25990641 0.00002174 0.85993743
v 0.25193974 -0.00768263 0.85196382
v 0.23882726 -0.01974874 0.83964908
v 0.26998103 -0.00611322 0.84828711
v 0.28997523 -0.00362662 0.84492052
v 0.30572262 -0.00156805 0.84212977
v 0.29880989 -0.01968760 0.81953794
v 0.31570423 -0.00696926 0.83078951
v 0.31570423 -0.05252292 0.76545042
v -0.00097930 -0.05252292 0.82830888
v -0.00097930 0.04932569 0.95956296
v 0.01002526 0.04482127 0.95451301
v 0.03001946 0.03632200 0.94428027
v 0.05001368 0.03666849 0.94388157
v 0.07000790 0.02721127 0.93116814
v 0.08507331 0.01954766 0.92053670
v 0.09105607 0.02643675 0.92833304
v 0.09840278 0.02015911 0.91978359
v 0.11002733 0.01292352 0.90906358
v 0.11002733 0.00293636 0.89617294
v 0.13002154 0.00397585 0.89475542
v 0.15001576 0.00521914 0.89311641
v 0.16997896 0.01663304 0.90427941
v 0.16997896 0.00662550 0.89130020
v 0.18098353 -0.00016169 0.88022578
v 0.18857823 -0.00564444 0.87118906
v 0.18997318 -0.01691565 0.85586202
v 0.20999840 -0.01514242 0.85346997
v 0.22549778 -0.02109395 0.84146529
v 0.23129454 -0.01444944 0.84886301
v 0.24998683 -0.01848507 0.83787715
v 0.23129454 -0.02694358 0.83176410
v 0.22999260 -0.03784792 0.81692433
v 0.24998683 -0.03570781 0.81391209
v 0.24998683 -0.02570027 0.82791018
v 0.26998103 -0.01610038 0.83459914
v 0.26998103 -0.02333597 0.82463217
v 0.28548044 -0.02139969 0.82192999
v 0.29127720 -0.01471440 0.82915050
v 0.29127720 -0.02718816 0.81174153
v 0.28997523 -0.03790906 0.79703468
v 0.30996946 -0.02525188 0.80740035
v 0.31570423 -0.01449021 0.82024670
v 0.31570423 -0.04636757 0.77475291
v 0.30907050 -0.05252292 0.76828545
v 0.00711137 -0.05252292 0.82835317
v -0.00097930 -0.05138153 0.82999218
v -0.00097930 0.04482127 0.95451301
v 0.01002526 0.03611818 0.94450176
v 0.03001946 0.02631446 0.93223125
v 0.05001368 0.02668134 0.93178833
v 0.07000790 0.01905849 0.92120111
v 0.07000790 0.01033501 0.90999383
v 0.07000790 0.00128543 0.89829922
v 0.09000211 0.00201918 0.89732468
v 0.09105607 0.01335154 0.91185433
v 0.09000211 -0.00558329 0.88735771
v 0.11002733 -0.00468649 0.88616168
v 0.13002154 -0.00362662 0.88478845
v 0.14297903 -0.02038059 0.86051327
v 0.15001576 -0.00236294 0.88310510
v 0.16997896 -0.00097697 0.88128889
v 0.16997896 -0.00949663 0.86999297
v 0.16997896 -0.01850545 0.85798830
v 0.18997318 -0.02433469 0.84585077
v 0.20999840 -0.02258183 0.84345865
v 0.20950241 -0.03360847 0.82835317
v 0.21585716 -0.03923389 0.81891775
v 0.22999260 -0.04485931 0.80695736
v 0.24998683 -0.04273959 0.80390084
v 0.26446325 -0.04106827 0.80150872
v 0.27066302 -0.03434223 0.80890644
v 0.27779272 -0.03945809 0.79920524
v 0.28997523 -0.04485931 0.78702343
v 0.30996946 -0.04223004 0.78321379
v 0.30996946 -0.03523903 0.79322505
v 0.31570423 -0.02443660 0.80624861
v 0.31570423 -0.04143514 0.78206205
v 0.29366410 -0.05252292 0.77430993
v 0.01002526 -0.05252292 0.82835317
v 0.01002526 -0.05140192 0.82999218
v -0.00097930 -0.04220966 0.84306002
v -0.00097930 0.03611818 0.94450176
v -0.00097930 0.03063544 0.93790138
v 0.01002526 0.02611064 0.93245274
v 0.03001946 0.01820245 0.92226428
v 0.05001368 0.01856932 0.92182130
v 0.05001368 0.00933630 0.90999383
v 0.05001368 0.00079626 0.89896369
v 0.05001368 -0.01679337 0.87575167
v 0.07000790 -0.00629666 0.88828796
v 0.09000211 -0.02315253 0.86418998
v 0.11002733 -0.02225573 0.86299396
v 0.13002154 -0.02117549 0.86157644
v 0.13002154 -0.02977667 0.84997046
v 0.13002154 -0.03858167 0.83801007
v 0.15001576 -0.03731799 0.83628243
v 0.14979875 -0.02608753 0.85156512
v 0.15630850 -0.01948378 0.85931724
v 0.14979875 -0.01359339 0.86830968
v 0.16997896 -0.02590409 0.84797704
v 0.16997896 -0.03591163 0.83433336
v 0.18997318 -0.03434223 0.83211845
v 0.20252769 -0.04045681 0.82064533
v 0.20950241 -0.04565420 0.81134284
v 0.21703511 -0.05252292 0.79933816
v 0.22999260 -0.05252292 0.79579437
v 0.24927384 -0.05252292 0.78985846
v 0.25048280 -0.05252292 0.78945976
v 0.25234273 -0.05252292 0.78883958
v 0.27066302 -0.04646948 0.79154176
v 0.27760673 -0.05252292 0.78020155
v 0.28997523 -0.05252292 0.77572751
v 0.31570423 -0.03460719 0.79180753
v 0.02639261 -0.05252292 0.82795447
v 0.03001946 -0.05107580 0.82999218
v 0.01002526 -0.04223004 0.84306002
v -0.00097930 -0.03890778 0.84757835
v -0.00097930 0.02613102 0.93245274
v -0.00097930 0.02168776 0.92695987
v 0.01002526 0.01805977 0.92244148
v 0.01002526 0.00831720 0.90999383
v 0.03001946 0.00862293 0.90999383
v 0.03001946 0.00042938 0.89940667
v 0.03001946 -0.00715270 0.88943970
v 0.03001946 -0.01716024 0.87623894
v 0.05001368 -0.02435507 0.86574042
v 0.07000790 -0.02386590 0.86507595
v 0.09000211 -0.03316007 0.85076779
v 0.10116167 -0.04011032 0.84013635
v 0.10869437 -0.03348618 0.84806561
v 0.11449115 -0.03945809 0.83920610
v 0.13002154 -0.04567459 0.82804304
v 0.15001576 -0.04443129 0.82627118
v 0.16997896 -0.04306570 0.82432204
v 0.18997318 -0.04151667 0.82210720
v 0.18997318 -0.04993441 0.80996960
v 0.18997318 -0.05252292 0.80620432
v 0.20981240 -0.05252292 0.80128723
v 0.26325428 -0.05252292 0.78516287
v 0.27029103 -0.05252292 0.78277081
v 0.03001946 -0.05252292 0.82786590
v 0.05001368 -0.05252292 0.82689130
v 0.05001368 -0.05038282 0.82999218
v 0.03001946 -0.04204660 0.84283853
v 0.01002526 -0.03491292 0.85307127
v -0.00097930 -0.03489253 0.85307127
v -0.00097930 0.01805977 0.92244148
v -0.00097930 0.01271970 0.91561961
v -0.00097930 0.00831720 0.90999383
v 0.01002526 0.00026633 0.89962816
v 0.01002526 -0.02490538 0.86649346
v 0.03001946 -0.02472194 0.86622769
v 0.05001368 -0.03436260 0.85231823
v 0.07000790 -0.03385306 0.85165375
v 0.09000211 -0.04055872 0.84075654
v 0.09000211 -0.04814081 0.82999218
v 0.10869437 -0.04543000 0.83154261
v 0.10953134 -0.05252292 0.82122123
v 0.11759102 -0.05252292 0.82002521
v 0.13002154 -0.05252292 0.81816471
v 0.15001576 -0.05252292 0.81457657
v 0.16982397 -0.05252292 0.81067836
v 0.18628432 -0.05252292 0.80704594
v 0.07000790 -0.05252292 0.82551813
v 0.07000790 -0.04944525 0.82999218
v 0.07000790 -0.04121094 0.84168679
v 0.05001368 -0.04170011 0.84230691
v 0.03001946 -0.03472948 0.85280550
v -0.00097930 -0.02490538 0.86644918
v -0.00097930 0.00028671 0.89962816
v -0.00097930 -0.00389159 0.89413524
v -0.00097930 -0.01281888 0.88239634
v -0.00097930 -0.01732330 0.87646043
v 0.09000211 -0.05252292 0.82365757
f 1 2 3
f 1 3 4
f 1 4 5
f 1 5 6
f 1 6 7
f 1 7 21
f 1 21 45
f 1 45 71
f 1 71 98
f 1 98 130
f 1 130 136
f 1 136 175
f 1 175 213
f 1 213 212
f 1 212 173
f 1 173 211
f 1 211 210
f 1 210 249
f 1 249 282
f 1 282 317
f 1 317 351
f 1 351 388
f 1 388 352
f 1 352 318
f 1 318 283
f 1 283 250
f 1 250 217
f 1 217 181
f 1 181 141
f 1 141 106
f 1 106 76
f 1 76 47
f 1 47 22
f 1 22 10
f 1 10 2
f 2 8 9
f 2 9 3
f 2 10 8
f 3 9 8
f 3 8 11
f 3 11 12
f 3 12 13
f 3 13 14
f 3 14 4
f 4 6 5
f 4 14 15
f 4 15 16
f 4 16 6
f 6 16 15
f 6 15 17
f 6 17 18
f 6 18 19
f 6 19 7
f 7 20 21
f 7 19 20
f 8 10 22
f 8 22 23
f 8 23 24
f 8 24 12
f 8 12 11
f 12 24 25
f 12 25 26
f 12 26 13
f 13 26 25
f 13 25 27
f 13 27 28
f 13 28 29
f 13 29 30
f 13 30 14
f 14 30 31
f 14 31 32
f 14 32 33
f 14 33 17
f 14 17 34
f 14 34 15
f 15 34 17
f 17 33 18
f 18 33 32
f 18 32 31
f 18 31 35
f 18 35 36
f 18 36 37
f 18 37 38
f 18 38 39
f 18 39 40
f 18 40 41
f 18 41 42
f 18 42 19
f 19 42 43
f 19 43 44
f 19 44 20
f 20 44 21
f 21 44 46
f 21 46 45
f 22 47 48
f 22 48 49
f 22 49 23
f 23 49 24
f 24 50 51
f 24 51 52
f 24 52 53
f 24 53 54
f 24 54 28
f 24 28 27
f 24 27 25
f 24 49 55
f 24 55 50
f 28 54 29
f 29 54 53
f 29 53 56
f 29 56 52
f 29 52 57
f 29 57 58
f 29 58 59
f 29 59 60
f 29 60 30
f 30 60 61
f 30 61 62
f 30 62 36
f 30 36 63
f 30 63 35
f 30 35 31
f 35 63 36
f 36 62 37
f 37 62 64
f 37 64 65
f 37 65 66
f 37 66 67
f 37 67 38
f 38 67 68
f 38 68 39
f 39 68 69
f 39 69 40
f 40 69 41
f 41 69 70
f 41 70 42
f 42 70 43
f 43 70 46
f 43 46 44
f 45 46 71
f 46 70 72
f 46 72 73
f 46 73 74
f 46 74 71
f 47 75 48
f 47 76 75
f 48 75 55
f 48 55 49
f 50 55 77
f 50 77 51
f 51 78 79
f 51 79 57
f 51 57 52
f 51 77 78
f 52 56 53
f 55 80 77
f 55 75 80
f 57 79 58
f 58 79 78
f 58 78 59
f 59 81 82
f 59 82 60
f 59 78 83
f 59 83 81
f 60 82 84
f 60 84 85
f 60 85 65
f 60 65 61
f 61 65 64
f 61 64 62
f 65 85 86
f 65 86 87
f 65 87 88
f 65 88 89
f 65 89 66
f 66 89 90
f 66 90 91
f 66 91 67
f 67 91 68
f 68 91 92
f 68 92 93
f 68 93 69
f 69 94 95
f 69 95 96
f 69 96 97
f 69 97 70
f 69 93 94
f 70 97 72
f 71 74 98
f 72 97 99
f 72 99 73
f 73 99 100
f 73 100 101
f 73 101 74
f 74 101 102
f 74 102 98
f 75 76 103
f 75 103 104
f 75 104 105
f 75 105 80
f 76 106 103
f 77 80 107
f 77 107 78
f 78 107 108
f 78 108 109
f 78 109 83
f 80 105 107
f 81 110 111
f 81 111 82
f 81 83 112
f 81 112 113
f 81 113 110
f 82 111 114
f 82 114 84
f 83 109 112
f 84 114 115
f 84 115 116
f 84 116 86
f 84 86 85
f 86 116 117
f 86 117 118
f 86 118 119
f 86 119 87
f 87 119 120
f 87 120 88
f 88 120 89
f 89 120 90
f 90 120 121
f 90 121 122
f 90 122 91
f 91 122 92
f 92 122 123
f 92 123 124
f 92 124 93
f 93 124 94
f 94 124 95
f 95 125 126
f 95 126 127
f 95 127 128
f 95 128 96
f 95 124 129
f 95 129 125
f 96 128 97
f 97 128 99
f 98 102 130
f 99 128 131
f 99 131 100
f 100 131 132
f 100 132 133
f 100 133 101
f 101 133 134
f 101 134 135
f 101 135 102
f 102 135 136
f 102 136 130
f 103 106 137
f 103 137 138
f 103 138 104
f 104 138 139
f 104 139 140
f 104 140 105
f 105 140 108
f 105 108 107
f 106 141 137
f 108 140 109
f 109 142 112
f 109 140 142
f 110 143 144
f 110 144 111
f 110 113 145
f 110 145 143
f 111 144 146
f 111 146 114
f 112 142 147
f 112 147 113
f 113 147 148
f 113 148 145
f 114 146 149
f 114 149 115
f 115 149 150
f 115 150 151
f 115 151 116
f 116 151 117
f 117 151 152
f 117 152 153
f 117 153 118
f 118 153 119
f 119 153 154
f 119 154 120
f 120 154 155
f 120 155 156
f 120 156 121
f 121 156 157
f 121 157 158
f 121 158 123
f 121 123 122
f 123 158 159
f 123 159 160
f 123 160 124
f 124 160 129
f 125 129 161
f 125 161 126
f 126 162 163
f 126 163 164
f 126 164 165
f 126 165 127
f 126 161 162
f 127 131 128
f 127 165 131
f 129 160 166
f 129 166 161
f 131 165 132
f 132 165 167
f 132 167 168
f 132 168 133
f 133 168 134
f 134 168 169
f 134 169 170
f 134 170 171
f 134 171 172
f 134 172 173
f 134 173 174
f 134 174 135
f 135 174 136
f 136 174 175
f 137 176 177
f 137 177 178
f 137 178 138
f 137 141 176
f 138 178 179
f 138 179 180
f 138 180 139
f 139 180 148
f 139 148 147
f 139 147 140
f 140 147 142
f 141 181 176
f 143 182 184
f 143 184 144
f 143 145 183
f 143 183 182
f 144 184 185
f 144 185 146
f 145 148 186
f 145 186 183
f 146 185 149
f 148 180 186
f 149 187 188
f 149 188 150
f 149 185 187
f 150 188 225
f 150 225 189
f 150 189 190
f 150 190 151
f 151 190 152
f 152 190 191
f 152 191 192
f 152 192 153
f 153 192 193
f 153 193 154
f 154 193 155
f 155 194 195
f 155 195 196
f 155 196 157
f 155 157 156
f 155 193 194
f 157 196 197
f 157 197 158
f 158 197 159
f 159 197 198
f 159 198 199
f 159 199 160
f 160 199 166
f 161 166 200
f 161 200 201
f 161 201 202
f 161 202 163
f 161 163 162
f 163 202 203
f 163 203 204
f 163 204 205
f 163 205 164
f 164 167 165
f 164 205 167
f 166 199 200
f 167 205 206
f 167 206 168
f 168 206 207
f 168 207 169
f 169 207 170
f 170 207 208
f 170 208 209
f 170 209 171
f 171 209 210
f 171 210 211
f 171 211 173
f 171 173 172
f 173 212 174
f 174 212 213
f 174 213 175
f 176 214 251
f 176 251 284
f 176 284 321
f 176 321 356
f 176 356 392
f 176 392 421
f 176 421 444
f 176 444 448
f 176 448 447
f 176 447 446
f 176 446 445
f 176 445 424
f 176 424 423
f 176 423 422
f 176 422 394
f 176 394 393
f 176 393 358
f 176 358 357
f 176 357 322
f 176 322 285
f 176 285 255
f 176 255 254
f 176 254 253
f 176 253 252
f 176 252 222
f 176 222 221
f 176 221 220
f 176 220 219
f 176 219 184
f 176 184 182
f 176 182 218
f 176 218 215
f 176 215 177
f 176 181 214
f 177 215 179
f 177 179 178
f 179 215 216
f 179 216 180
f 180 216 186
f 181 217 214
f 182 183 218
f 183 186 216
f 183 216 215
f 183 215 218
f 184 219 185
f 185 219 220
f 185 220 187
f 187 220 221
f 187 221 222
f 187 222 223
f 187 223 188
f 188 223 224
f 188 224 225
f 189 225 226
f 189 226 227
f 189 227 190
f 190 227 191
f 191 227 228
f 191 228 192
f 192 228 229
f 192 229 193
f 193 229 194
f 194 229 230
f 194 230 195
f 195 231 232
f 195 232 233
f 195 233 234
f 195 234 196
f 195 230 231
f 196 234 197
f 197 234 198
f 198 234 235
f 198 235 236
f 198 236 199
f 199 236 200
f 200 236 201
f 201 237 238
f 201 238 202
f 201 236 237
f 202 238 239
f 202 239 240
f 202 240 241
f 202 241 203
f 203 241 204
f 204 242 205
f 204 241 243
f 204 243 244
f 204 244 242
f 205 242 206
f 206 242 207
f 207 245 246
f 207 246 247
f 207 247 208
f 207 242 245
f 208 247 209
f 209 247 248
f 209 248 210
f 210 248 249
f 214 217 250
f 214 250 251
f 222 252 223
f 223 252 224
f 224 253 254
f 224 254 255
f 224 255 256
f 224 256 257
f 224 257 225
f 224 252 253
f 225 257 226
f 226 257 258
f 226 258 259
f 226 259 227
f 227 259 260
f 227 260 228
f 228 260 261
f 228 261 262
f 228 262 263
f 228 263 229
f 229 263 230
f 230 263 264
f 230 264 231
f 231 264 232
f 232 265 266
f 232 266 267
f 232 267 268
f 232 268 233
f 232 264 265
f 233 235 234
f 233 268 269
f 233 269 235
f 235 269 236
f 236 269 237
f 237 269 270
f 237 270 238
f 238 270 271
f 238 271 272
f 238 272 239
f 239 272 240
f 240 272 273
f 240 273 241
f 241 273 274
f 241 274 243
f 242 244 275
f 242 275 245
f 243 276 275
f 243 275 244
f 243 274 277
f 243 277 276
f 245 275 246
f 246 275 278
f 246 278 279
f 246 279 247
f 247 279 280
f 247 280 248
f 248 280 249
f 249 281 282
f 249 280 281
f 250 283 319
f 250 319 353
f 250 353 387
f 250 387 386
f 250 386 415
f 250 415 414
f 250 414 384
f 250 384 383
f 250 383 382
f 250 382 381
f 250 381 380
f 250 380 413
f 250 413 412
f 250 412 438
f 250 438 437
f 250 437 436
f 250 436 435
f 250 435 434
f 250 434 433
f 250 433 449
f 250 449 439
f 250 439 417
f 250 417 416
f 250 416 389
f 250 389 354
f 250 354 320
f 250 320 284
f 250 284 251
f 255 285 256
f 256 285 286
f 256 286 258
f 256 258 257
f 258 286 323
f 258 323 287
f 258 287 288
f 258 288 259
f 259 288 261
f 259 261 260
f 261 288 325
f 261 325 289
f 261 289 262
f 262 289 290
f 262 290 291
f 262 291 263
f 263 291 264
f 264 291 292
f 264 292 265
f 265 293 266
f 265 292 293
f 266 293 294
f 266 294 295
f 266 295 296
f 266 296 267
f 267 297 268
f 267 296 298
f 267 298 297
f 268 297 269
f 269 297 270
f 270 297 298
f 270 298 299
f 270 299 271
f 271 299 272
f 272 300 301
f 272 301 273
f 272 299 300
f 273 301 302
f 273 302 274
f 274 302 303
f 274 303 304
f 274 304 277
f 275 276 305
f 275 305 278
f 276 277 305
f 277 306 307
f 277 307 308
f 277 308 309
f 277 309 305
f 277 304 303
f 277 303 306
f 278 305 310
f 278 310 279
f 279 310 311
f 279 311 312
f 279 312 313
f 279 313 280
f 280 313 281
f 281 312 314
f 281 314 315
f 281 315 316
f 281 316 282
f 281 313 312
f 282 316 317
f 283 318 319
f 284 320 321
f 285 322 286
f 286 322 357
f 286 357 323
f 287 323 359
f 287 359 324
f 287 324 288
f 288 324 325
f 289 325 326
f 289 326 290
f 290 292 291
f 290 326 327
f 290 327 328
f 290 328 329
f 290 329 330
f 290 330 292
f 292 330 294
f 292 294 293
f 294 329 331
f 294 331 332
f 294 332 333
f 294 333 295
f 294 330 329
f 295 333 296
f 296 333 334
f 296 334 335
f 296 335 336
f 296 336 298
f 298 336 299
f 299 336 337
f 299 337 338
f 299 338 301
f 299 301 300
f 301 338 339
f 301 339 340
f 301 340 302
f 302 340 303
f 303 340 341
f 303 341 342
f 303 342 306
f 305 309 311
f 305 311 310
f 306 342 307
f 307 342 343
f 307 343 308
f 308 343 344
f 308 344 345
f 308 345 346
f 308 346 311
f 308 311 309
f 311 346 312
f 312 346 347
f 312 347 314
f 314 347 315
f 315 347 348
f 315 348 349
f 315 349 350
f 315 350 316
f 316 351 317
f 316 350 351
f 318 352 349
f 318 349 319
f 319 349 353
f 320 354 355
f 320 355 321
f 321 355 391
f 321 391 356
f 323 357 358
f 323 358 359
f 324 359 360
f 324 360 361
f 324 361 325
f 325 361 326
f 326 361 362
f 326 362 327
f 327 362 363
f 327 363 328
f 328 363 364
f 328 364 365
f 328 365 366
f 328 366 331
f 328 331 329
f 331 366 367
f 331 367 332
f 332 367 333
f 333 367 368
f 333 368 334
f 334 368 369
f 334 369 370
f 334 370 371
f 334 371 372
f 334 372 373
f 334 373 374
f 334 374 335
f 335 374 336
f 336 374 373
f 336 373 337
f 337 373 338
f 338 373 375
f 338 375 339
f 339 375 376
f 339 376 377
f 339 377 340
f 340 377 378
f 340 378 341
f 341 378 342
f 342 378 379
f 342 379 343
f 343 379 380
f 343 380 381
f 343 381 344
f 344 381 382
f 344 382 383
f 344 383 384
f 344 384 345
f 345 384 385
f 345 385 347
f 345 347 346
f 347 385 348
f 348 386 387
f 348 387 353
f 348 353 349
f 348 385 386
f 349 352 350
f 350 352 388
f 350 388 351
f 354 389 390
f 354 390 355
f 355 390 391
f 356 391 392
f 358 393 359
f 359 393 394
f 359 394 395
f 359 395 360
f 360 395 396
f 360 396 397
f 360 397 361
f 361 397 362
f 362 397 363
f 363 397 398
f 363 398 399
f 363 399 400
f 363 400 364
f 364 400 427
f 364 427 401
f 364 401 402
f 364 402 365
f 365 402 366
f 366 402 403
f 366 403 404
f 366 404 367
f 367 405 406
f 367 406 368
f 367 404 405
f 368 406 369
f 369 406 370
f 370 406 407
f 370 407 371
f 371 407 408
f 371 408 409
f 371 409 376
f 371 376 375
f 371 375 373
f 371 373 372
f 376 409 410
f 376 410 377
f 377 410 378
f 378 410 411
f 378 411 412
f 378 412 413
f 378 413 379
f 379 413 380
f 384 414 385
f 385 414 415
f 385 415 386
f 389 416 390
f 390 416 417
f 390 417 418
f 390 418 419
f 390 419 391
f 391 419 420
f 391 420 392
f 392 420 421
f 394 422 395
f 395 422 423
f 395 423 396
f 396 424 425
f 396 425 397
f 396 423 424
f 397 425 398
f 398 425 399
f 399 425 426
f 399 426 400
f 400 426 427
f 401 427 443
f 401 443 428
f 401 428 402
f 402 428 429
f 402 429 403
f 403 429 430
f 403 430 404
f 404 431 432
f 404 432 406
f 404 406 405
f 404 430 431
f 406 432 407
f 407 432 433
f 407 433 434
f 407 434 435
f 407 435 408
f 408 435 436
f 408 436 409
f 409 436 437
f 409 437 438
f 409 438 411
f 409 411 410
f 411 438 412
f 417 439 440
f 417 440 418
f 418 440 441
f 418 441 442
f 418 442 419
f 419 442 428
f 419 428 443
f 419 443 420
f 420 443 427
f 420 427 426
f 420 426 421
f 421 426 444
f 424 445 425
f 425 445 446
f 425 446 447
f 425 447 426
f 426 448 444
f 426 447 448
f 428 442 441
f 428 441 429
f 429 441 430
f 430 441 431
f 431 441 440
f 431 440 449
f 431 449 433
f 431 433 432
f 439 449 440
