v 0.46581089 -0.05263995 -0.41836035
v 0.70473605 -0.05263995 -0.41836035
v 0.63131857 -0.05263995 0.00284427
v 0.95135307 0.14600098 0.00284427
v 0.84982049 0.14634643 -0.41836035
v 0.70956337 -0.04979496 -0.41836035
v 0.70882070 -0.05263995 -0.41122758
v 0.82281941 -0.05263995 0.00284427
v 0.95798403 0.14890692 0.00284427
v 0.96997273 0.15412951 0.00284427
v 0.86997849 0.15329632 -0.40999067
v 0.86997849 0.15396693 -0.41836035
v 0.72282523 -0.04174772 -0.41836035
v 0.70998776 -0.05263995 -0.40908363
v 0.82281941 -0.05263995 -0.00037165
v 0.82998079 -0.04760026 0.00284427
v 0.98997152 0.15091874 0.00284427
v 0.96997273 0.15486106 -0.09000545
v 0.88997734 0.15484075 -0.38999420
v 0.88997734 0.15349954 -0.40999067
v 0.89056087 0.15114227 -0.41836035
v 0.73247981 -0.03563100 -0.41836035
v 0.73502606 -0.03685028 -0.40999067
v 0.72500014 -0.04310925 -0.40999067
v 0.71980149 -0.05263995 -0.38999420
v 0.82276636 -0.05263995 -0.01001945
v 0.82998079 -0.04755962 -0.01001945
v 0.83666480 -0.04288571 0.00284427
v 1.00217247 0.14279020 0.00284427
v 0.98997152 0.15091874 -0.01001945
v 0.96997273 0.15496267 -0.11000195
v 0.92997503 0.15490171 -0.28997046
v 0.90997618 0.15469849 -0.34995997
v 0.90997618 0.15291023 -0.36999768
v 0.90610373 0.14543198 -0.40999067
v 0.90408790 0.14388755 -0.41836035
v 0.75857908 -0.01906913 -0.41836035
v 0.73836809 -0.03896370 -0.39671466
v 0.73104751 -0.04566973 -0.39003542
v 0.75125855 -0.02630351 -0.41056791
v 0.72881955 -0.05263995 -0.37152320
v 0.82244807 -0.05263995 -0.02061553
v 0.84016591 -0.04010169 -0.02444991
v 0.84032506 -0.04024395 -0.01001945
v 0.84032506 -0.04026426 0.00284427
v 1.00715888 0.12998778 0.00284427
v 1.00217247 0.14279020 -0.01001945
v 0.98997152 0.15069520 -0.03001595
v 0.96997273 0.15484075 -0.13003969
v 0.94997388 0.15488139 -0.22998096
v 0.92997503 0.15400758 -0.30996695
v 0.92997503 0.15116259 -0.32996345
v 0.92504162 0.14484265 -0.36999768
v 0.91135538 0.14730154 -0.39077756
v 0.92196488 0.14224154 -0.38463432
v 0.91899425 0.13687670 -0.39795154
v 0.90801346 0.13734409 -0.41836035
v 0.76924163 -0.01447651 -0.41056791
v 0.76208025 -0.02138576 -0.40425974
v 0.78329915 -0.00226339 -0.41836035
v 0.78542107 -0.00370621 -0.40999067
v 0.74165702 -0.04105680 -0.38339740
v 0.74897754 -0.03428980 -0.39003542
v 0.72998661 -0.05263995 -0.36909062
v 0.82212979 -0.05263995 -0.03026333
v 0.83194357 -0.04575102 -0.03067563
v 0.83990067 -0.03991880 -0.03776717
v 0.84806997 -0.03420851 -0.03067563
v 0.86377198 -0.02280825 -0.03001595
v 0.85035098 -0.03302988 -0.01001945
v 0.84393227 -0.03766313 0.00284427
v 1.00768936 0.10999160 0.00284427
v 1.00715888 0.12998778 -0.01001945
v 1.00201333 0.14258699 -0.03001595
v 0.98997152 0.15016684 -0.05001245
v 0.96997273 0.15435304 -0.15003619
v 0.94997388 0.15390596 -0.24997745
v 0.94997388 0.15160966 -0.26997396
v 0.93082380 0.14622450 -0.34930027
v 0.94663191 0.14598066 -0.30996695
v 0.94307768 0.14327791 -0.32996345
v 0.94079667 0.14104258 -0.34216750
v 0.92090392 0.12354591 -0.40199208
v 0.91109020 0.13029259 -0.41836035
v 0.93846262 0.12998778 -0.35647428
v 0.93283957 0.12998778 -0.36999768
v 0.92403370 0.13013002 -0.39077756
v 0.79857677 0.00096770 -0.39700326
v 0.79115015 -0.00626669 -0.39020032
v 0.77544814 -0.01695571 -0.38999420
v 0.76547527 -0.02364142 -0.38999420
v 0.79284769 0.00436136 -0.41836035
v 0.79539394 0.00318272 -0.40999067
v 0.74478680 -0.04304828 -0.36999768
v 0.75481272 -0.03666739 -0.36999768
v 0.73104751 -0.05263995 -0.36678177
v 0.82144022 -0.05263995 -0.04279722
v 0.83947629 -0.03963430 -0.05001245
v 0.84997964 -0.03203413 -0.05001245
v 0.86324149 -0.02240182 -0.05001245
v 0.82101583 -0.05263995 -0.05001245
v 0.82945031 -0.04670613 -0.05001245
v 0.87374485 -0.01530968 -0.03001595
v 0.87406313 -0.01551289 -0.01001945
v 0.86403722 -0.02301146 -0.01001945
v 0.85035098 -0.03302988 0.00284427
v 0.86409020 -0.02303179 0.00284427
v 1.00270295 0.09590891 0.00284427
v 1.00270295 0.09590891 -0.01001945
v 1.00763631 0.10999160 -0.01001945
v 1.00678754 0.12998778 -0.03001595
v 1.00158894 0.14213993 -0.05001245
v 0.98997152 0.14931336 -0.07000895
v 0.96997273 0.15335730 -0.17003268
v 0.96997273 0.15169095 -0.19002919
v 0.96859348 0.14705768 -0.22998096
v 0.96588808 0.14573680 -0.24997745
v 0.96312964 0.14354210 -0.26997396
v 0.96116686 0.14146933 -0.28378597
v 0.95893884 0.13655156 -0.29710323
v 0.94880682 0.12998778 -0.32996345
v 0.94254726 0.12998778 -0.34645540
v 0.92090392 0.11614895 -0.40199208
v 0.91135538 0.10942259 -0.41836035
v 0.91124928 0.11842494 -0.41836035
v 0.96074247 0.12322077 -0.30221573
v 0.80170655 -0.00116604 -0.38368601
v 0.81083071 0.01395302 -0.40966085
v 0.82133412 0.01903335 -0.40277547
v 0.82435781 0.01687929 -0.38999420
v 0.77852488 -0.01900816 -0.37671816
v 0.77109826 -0.02593774 -0.36999768
v 0.80812532 0.01515198 -0.41836035
v 0.75804865 -0.03876048 -0.35573214
v 0.75083417 -0.04518203 -0.34942397
v 0.73879242 -0.05263995 -0.34979504
v 0.84997964 -0.03077421 -0.07000895
v 0.82860160 -0.04609648 -0.07000895
v 0.83857447 -0.03900434 -0.07000895
v 0.86233968 -0.02175154 -0.07000895
v 0.87236559 -0.01425298 -0.07000895
v 0.87321436 -0.01488293 -0.05001245
v 0.81926525 -0.05263995 -0.07000895
v 0.88637012 -0.00488484 -0.05001245
v 0.88690060 -0.00529127 -0.03001595
v 0.87406313 -0.01553322 0.00284427
v 0.88716584 -0.00551480 -0.01001945
v 0.88249767 -0.00911168 0.00284427
v 0.99517024 0.08591083 0.00284427
v 0.99517024 0.08591083 -0.01001945
v 1.00249076 0.09621374 -0.03001595
v 1.00726497 0.10999160 -0.03001595
v 1.00599182 0.12998778 -0.05001245
v 1.00100541 0.14138803 -0.07000895
v 0.98906976 0.14740315 -0.11000195
v 0.98774356 0.14691544 -0.13003969
v 0.98631132 0.14618386 -0.15003619
v 0.98477292 0.14510684 -0.17003268
v 0.98302233 0.14356241 -0.19002919
v 0.98137790 0.14175382 -0.20660360
v 0.97994560 0.13992490 -0.21992086
v 0.96896482 0.12998778 -0.26997396
v 0.96286440 0.12992680 -0.29025906
v 0.95639259 0.12992680 -0.30930728
v 0.94249421 0.10999160 -0.34629050
v 0.93846262 0.10999160 -0.35626814
v 0.93283957 0.10999160 -0.36999768
v 0.92403370 0.10968678 -0.39090124
v 0.91915333 0.10281816 -0.39815772
v 0.91581142 0.10968678 -0.40916610
v 0.96074247 0.11692116 -0.30221573
v 0.90387571 0.09353133 -0.41836035
v 0.98164314 0.12659411 -0.22655888
v 0.81475621 0.00367044 -0.36999768
v 0.80478334 -0.00327946 -0.36999768
v 0.83067042 0.01458298 -0.36904940
v 0.81751466 0.02179705 -0.41836035
v 0.82881379 0.02681642 -0.40966085
v 0.83438373 0.02403240 -0.38999420
v 0.83777875 0.02157352 -0.37511021
v 0.78149557 -0.02099965 -0.36335969
v 0.76101929 -0.04069101 -0.34241489
v 0.74812877 -0.05263995 -0.32880902
v 0.83746046 -0.03821181 -0.09000545
v 0.84997964 -0.02916882 -0.09000545
v 0.86127871 -0.02095901 -0.09000545
v 0.82748759 -0.04528363 -0.09000545
v 0.87125164 -0.01344012 -0.09000545
v 0.88446045 -0.00344203 -0.09000545
v 0.88552135 -0.00425488 -0.07000895
v 0.81698424 -0.05263995 -0.09000545
v 0.89554727 0.00346722 -0.07000895
v 0.89634299 0.00283726 -0.05001245
v 0.89687347 0.00241051 -0.03001595
v 0.89719176 0.00218698 -0.01001945
v 0.89077306 -0.00277143 0.00284427
v 0.98519731 0.07479506 0.00284427
v 0.99495804 0.08621565 -0.03001595
v 0.98519731 0.07479506 -0.01001945
v 0.98493207 0.07503892 -0.03001595
v 1.00211942 0.09678273 -0.05001245
v 1.00646925 0.10999160 -0.05001245
v 1.00477171 0.12998778 -0.07000895
v 1.00042188 0.14063615 -0.08518156
v 0.99978530 0.13949814 -0.09849881
v 0.99909568 0.13716120 -0.11000195
v 0.99225259 0.12998778 -0.17003268
v 0.98864537 0.12998778 -0.19002919
v 0.98365891 0.13195893 -0.21192226
v 0.97883165 0.13195893 -0.23191875
v 0.97448170 0.12998778 -0.24997745
v 0.94069058 0.09891647 -0.34187889
v 0.94870073 0.10999160 -0.32996345
v 0.92201793 0.09718916 -0.38484043
v 0.98164314 0.11340557 -0.22655888
v 0.97453475 0.10999160 -0.24997745
v 0.96885872 0.10999160 -0.26997396
v 0.96281135 0.11015417 -0.29005292
v 0.95888579 0.10359038 -0.29673216
v 0.95633954 0.11015417 -0.30930728
v 0.90541410 0.08979219 -0.40863010
v 0.89724481 0.08300488 -0.41436106
v 0.89660823 0.08458994 -0.41836035
v 0.98875147 0.10999160 -0.19002919
v 0.81799209 0.00139445 -0.35531986
v 0.81077766 -0.00535223 -0.34917659
v 0.79438603 -0.01624446 -0.34995997
v 0.84074938 0.01943978 -0.36179292
v 0.84138596 0.03898889 -0.41836035
v 0.84340179 0.03750543 -0.40999067
v 0.85724711 0.04203709 -0.39395225
v 0.85029793 0.03508720 -0.38838622
v 0.86027086 0.03978142 -0.38063499
v 0.76367164 -0.04241832 -0.32996345
v 0.79767501 -0.01845948 -0.33449876
v 0.79061967 -0.02482006 -0.32868534
v 0.77364457 -0.03577325 -0.32996345
v 0.75603282 -0.05263995 -0.30996695
v 0.83608127 -0.03721607 -0.11000195
v 0.86048305 -0.02034937 -0.10336394
v 0.82605529 -0.04430821 -0.11000195
v 0.88318729 -0.00244628 -0.11000195
v 0.89321321 0.00521486 -0.11000195
v 0.89448637 0.00425975 -0.09000545
v 0.81465012 -0.05263995 -0.10633249
v 0.90727079 0.01425784 -0.09000545
v 0.94037229 0.03970014 -0.08361482
v 0.90827870 0.01346531 -0.07000895
v 0.90907437 0.01283535 -0.05001245
v 0.90960485 0.01240860 -0.03001595
v 0.89719176 0.00216665 0.00284427
v 0.92997503 0.02801538 -0.01001945
v 0.90992314 0.01216475 0.00284427
v 0.97453475 0.06479697 0.00284427
v 0.98450768 0.07546566 -0.05001245
v 0.99448061 0.08678465 -0.05001245
v 0.97453475 0.06479697 -0.01001945
v 0.97426951 0.06504083 -0.03001595
v 1.00148284 0.09767687 -0.07000895
v 1.00524914 0.10999160 -0.07000895
v 1.00079322 0.12338334 -0.12612283
v 1.00180113 0.12716311 -0.11000195
v 1.00259686 0.13169476 -0.09111866
v 0.99814081 0.13002841 -0.13168888
v 0.99543542 0.12998778 -0.15003619
v 0.96106076 0.09846941 -0.28341490
v 0.94291854 0.09601052 -0.32996345
v 0.93480235 0.08599211 -0.32996345
v 0.91941857 0.08058664 -0.35853577
v 0.91708452 0.08333002 -0.36999768
v 0.92504162 0.09334843 -0.36999768
v 0.91379559 0.09030023 -0.39090124
v 0.97994560 0.10007478 -0.21987963
v 0.97888470 0.10804074 -0.23191875
v 0.98371196 0.10804074 -0.21192226
v 0.90048069 0.07950961 -0.40104380
v 0.88716584 0.07514052 -0.41836035
v 1.00079322 0.11604735 -0.12612283
v 0.99246478 0.10999160 -0.17003268
v 0.82849550 0.00696249 -0.34917659
v 0.82080364 -0.00057672 -0.34200257
v 0.80828446 -0.01291177 -0.32868534
v 0.85326856 0.02496718 -0.34995997
v 0.84324265 0.01765150 -0.34995997
v 0.86255187 0.03807443 -0.36999768
v 0.85204852 0.04693453 -0.41836035
v 0.85342771 0.04484143 -0.40999067
v 0.87947398 0.06036692 -0.39889985
v 0.86987239 0.05006401 -0.38974681
v 0.88244462 0.05809093 -0.38554138
v 0.87252474 0.04557300 -0.36999768
v 0.76775628 -0.04510074 -0.30996695
v 0.80048651 -0.02030873 -0.32118148
v 0.77772921 -0.03849631 -0.30996695
v 0.76367164 -0.05263995 -0.29083627
v 0.82446390 -0.04314990 -0.13003969
v 0.83443677 -0.03607807 -0.13003969
v 0.84844130 -0.02607998 -0.13003969
v 0.85947514 -0.01963812 -0.11672243
v 0.85167718 -0.02597837 -0.11004318
v 0.86828101 -0.01374494 -0.11004318
v 0.81411964 -0.05263995 -0.11000195
v 0.88170195 -0.00130829 -0.13003969
v 0.89172792 0.00635285 -0.13003969
v 0.90610373 0.01521295 -0.11000195
v 0.93962967 0.04026914 -0.09693208
v 0.91729671 0.02212219 -0.09000545
v 0.94100887 0.03919210 -0.07000895
v 0.92997503 0.03051490 -0.07000895
v 0.94822329 0.04667035 -0.09017037
v 0.96217477 0.05813158 -0.09000545
v 0.95098174 0.04738160 -0.07000895
v 0.92997503 0.02927530 -0.05001245
v 0.94228202 0.03815572 -0.03001595
v 0.94254726 0.03795251 -0.01001945
v 0.92997503 0.02799506 0.00284427
v 0.96456188 0.05609944 0.00284427
v 0.98387110 0.07609563 -0.07000895
v 0.97379214 0.06546757 -0.05001245
v 0.99384403 0.08767878 -0.07000895
v 0.96456188 0.05611977 -0.01001945
v 0.96429664 0.05634330 -0.03001595
v 1.00063407 0.09893680 -0.09000545
v 1.00010359 0.09976996 -0.10121998
v 1.00355172 0.10999160 -0.09000545
v 0.96302354 0.09582763 -0.26997396
v 0.95485425 0.08582954 -0.26997396
v 0.94016010 0.07981443 -0.30048406
v 0.93777299 0.08239523 -0.31384256
v 0.94535875 0.08944674 -0.30827653
v 0.90705860 0.07349449 -0.36999768
v 0.90286785 0.07723362 -0.38999420
v 0.92196488 0.07806680 -0.34521854
v 0.98143095 0.09792073 -0.20656237
v 0.97437561 0.09074730 -0.21192226
v 0.95952237 0.08046471 -0.23826817
v 0.96588808 0.09233236 -0.24997745
v 0.88944685 0.06601625 -0.39131355
v 0.89034867 0.07373835 -0.40863010
v 0.87682164 0.06254131 -0.40999067
v 0.87406313 0.06376059 -0.41836035
v 1.00153589 0.10962581 -0.10872383
v 0.99930787 0.10271656 -0.11453724
v 0.99856520 0.10962581 -0.13168888
v 0.99580675 0.10999160 -0.15003619
v 0.83326972 0.00470682 -0.32996345
v 0.82329684 -0.00228371 -0.32996345
v 0.85730016 0.02197994 -0.32996345
v 0.86668956 0.03496527 -0.34995997
v 0.84732729 0.01470491 -0.32996345
v 0.86472678 0.05638395 -0.41836035
v 0.86679566 0.05481920 -0.40999067
v 0.89570642 0.06349640 -0.36999768
v 0.89851797 0.06115945 -0.35622692
v 0.88573354 0.05557109 -0.36999768
v 0.87666249 0.04250448 -0.34995997
v 0.77189398 -0.04709223 -0.29174334
v 0.77979803 -0.03987816 -0.29957703
v 0.81268740 -0.01502518 -0.30996695
v 0.80266142 -0.02181251 -0.30996695
v 0.78998309 -0.03032714 -0.30996695
v 0.76955992 -0.05263995 -0.27549875
v 0.82255417 -0.04182900 -0.15003619
v 0.83258015 -0.03475719 -0.15003619
v 0.81077766 -0.05263995 -0.13020460
v 0.80998194 -0.05056717 -0.15003619
v 0.84663767 -0.02475910 -0.15003619
v 0.85661054 -0.01754503 -0.15003619
v 0.85841417 -0.01884559 -0.13003969
v 0.86997849 -0.01016838 -0.13003969
v 0.88058794 -0.00047512 -0.14356309
v 0.90297395 0.01765150 -0.15003619
v 0.90461838 0.01635094 -0.13003969
v 0.91464436 0.02421529 -0.13003969
v 0.92880797 0.03307538 -0.11000195
v 0.93878090 0.04093974 -0.11000195
v 0.94997388 0.05002337 -0.11000195
v 0.96106076 0.05906636 -0.11000195
v 0.94175154 0.03856215 -0.05001245
v 0.95177746 0.04677196 -0.05001245
v 0.97220069 0.06693071 -0.09000545
v 0.97310251 0.06609754 -0.07000895
v 0.96307659 0.05735937 -0.07000895
v 0.95225489 0.04636553 -0.03001595
v 0.95252013 0.04614200 -0.01001945
v 0.94254726 0.03795251 0.00284427
v 0.95252013 0.04612168 0.00284427
v 0.96026504 0.05252289 0.00284427
v 0.98302233 0.07692880 -0.09000545
v 0.96376616 0.05674973 -0.05001245
v 0.99299526 0.08893870 -0.09000545
v 0.99310136 0.09186497 -0.10872383
v 0.98710704 0.08802424 -0.13177134
v 0.98673570 0.09105211 -0.15003619
v 0.98498511 0.09314521 -0.17003268
v 0.98312843 0.09558377 -0.19002919
v 0.95782489 0.08233427 -0.24997745
v 0.94180459 0.07824969 -0.28997046
v 0.92880797 0.06697135 -0.29054767
v 0.91920638 0.06063110 -0.29759800
v 0.91703147 0.06241938 -0.30996695
v 0.93066466 0.07383996 -0.30827653
v 0.92482942 0.07550631 -0.32996345
v 0.97517133 0.08558568 -0.19002919
v 0.96121991 0.07875772 -0.22495091
v 0.94785196 0.07282390 -0.24997745
v 0.94488132 0.07540470 -0.26997396
v 0.83724833 0.00192280 -0.30996695
v 0.82722235 -0.00502709 -0.30996695
v 0.85947514 0.02035424 -0.31870770
v 0.87146384 0.03281121 -0.33062315
v 0.87910265 0.04067556 -0.33771467
v 0.85167718 0.01265246 -0.31120384
v 0.90106422 0.05910700 -0.34286842
v 0.89109135 0.05345767 -0.34971258
v 0.91342425 0.06550822 -0.32996345
v 0.78239733 -0.04158515 -0.28625977
v 0.78939962 -0.03548875 -0.29174334
v 0.81650680 -0.01762632 -0.28997046
v 0.80653387 -0.02443396 -0.28997046
v 0.83942324 0.00037838 -0.29854628
v 0.78542107 -0.04361729 -0.26997396
v 0.77157569 -0.05263995 -0.27013886
v 0.82101583 -0.04073165 -0.16459033
v 0.84451580 -0.02323499 -0.17003268
v 0.80908018 -0.05263995 -0.13911027
v 0.80695826 -0.05263995 -0.15003619
v 0.80557907 -0.05263995 -0.15622067
v 0.81167948 -0.04621841 -0.17073359
v 0.85448867 -0.01602092 -0.17003268
v 0.86801577 -0.00602284 -0.17003268
v 0.87942094 0.00043934 -0.15688035
v 0.87162298 -0.00632766 -0.15015987
v 0.88833284 0.00637317 -0.15015987
v 0.90106422 0.01913496 -0.17003268
v 0.91299987 0.02551585 -0.15003619
v 0.93734860 0.04211837 -0.13003969
v 0.95156527 0.05351864 -0.12925631
v 0.96026504 0.05973696 -0.12204108
v 0.97103369 0.06800774 -0.11000195
v 0.98190838 0.07800583 -0.11000195
v 0.98084742 0.07908286 -0.12624654
v 0.97989255 0.08005828 -0.13960502
v 0.97899079 0.08105403 -0.15003619
v 0.97718716 0.08314712 -0.17003268
v 0.93363529 0.06540661 -0.26997396
v 0.91151452 0.05260418 -0.29054767
v 0.89788139 0.04163066 -0.28997046
v 0.90700555 0.05433149 -0.30996695
v 0.92138135 0.05884282 -0.28428072
v 0.90345132 0.05721712 -0.32996345
v 0.96297050 0.07707105 -0.20998445
v 0.95183051 0.06707296 -0.20998445
v 0.94997388 0.06991795 -0.23002219
v 0.93867481 0.06105785 -0.23509346
v 0.93660593 0.06282580 -0.24997745
v 0.88164890 0.03872471 -0.32439741
v 0.86918277 0.02555650 -0.31120384
v 0.86196834 0.01852532 -0.30539045
v 0.88896942 0.04618264 -0.33062315
v 0.79544699 -0.03695189 -0.26997396
v 0.81889391 -0.01925202 -0.27698302
v 0.83167833 -0.00687633 -0.29112488
v 0.84907782 0.00543839 -0.29112488
v 0.84181035 -0.00130829 -0.28518778
v 0.77900231 -0.05263995 -0.24964762
v 0.77306104 -0.05263995 -0.26605710
v 0.79815239 -0.03878081 -0.25480136
v 0.79088491 -0.04499913 -0.24886425
v 0.82860160 -0.03439140 -0.17073359
v 0.81947744 -0.03965463 -0.17790759
v 0.84218168 -0.02156865 -0.19002919
v 0.80239618 -0.05263995 -0.17032129
v 0.80796617 -0.04550716 -0.19002919
v 0.85215461 -0.01433425 -0.19002919
v 0.86584079 -0.00433617 -0.19002919
v 0.87804168 0.00147573 -0.17003268
v 0.88997734 0.01060000 -0.17003268
v 0.91109020 0.02699931 -0.17003268
v 0.90005636 0.01996813 -0.18029892
v 0.92567819 0.03551394 -0.15003619
v 0.93565106 0.04343926 -0.15003619
v 0.94801110 0.05341703 -0.15003619
v 0.95925713 0.06059046 -0.13539957
v 0.97007883 0.06983666 -0.13082305
v 0.96901786 0.07164526 -0.15003619
v 0.96716118 0.07325064 -0.17003268
v 0.96514541 0.07503892 -0.19002919
v 0.92360938 0.05701391 -0.26997396
v 0.89968503 0.04022849 -0.27912700
v 0.88785541 0.03398985 -0.28997046
v 0.88435435 0.03667226 -0.30996695
v 0.89432722 0.04435372 -0.30996695
v 0.90907437 0.04575589 -0.27145824
v 0.95411158 0.06504083 -0.19002919
v 0.94185764 0.05843640 -0.20998445
v 0.94042534 0.05961503 -0.22177620
v 0.93119514 0.05370153 -0.22907390
v 0.92663306 0.05461599 -0.24997745
v 0.87469971 0.02399176 -0.28997046
v 0.86467373 0.01651351 -0.28997046
v 0.82128108 -0.02087773 -0.26362455
v 0.82876074 -0.01409040 -0.27018011
v 0.85443562 0.00403622 -0.26997396
v 0.84440970 -0.00315753 -0.26997396
v 0.78568631 -0.05263995 -0.22998096
v 0.80828446 -0.03325341 -0.24886425
v 0.80048651 -0.04032523 -0.24148409
v 0.81793904 -0.03857759 -0.19002919
v 0.82998079 -0.03016457 -0.19002919
v 0.84064335 -0.02045097 -0.20239815
v 0.79746282 -0.05263995 -0.19002919
v 0.80526078 -0.04361729 -0.20998445
v 0.81523365 -0.03670803 -0.20998445
v 0.86334759 -0.00250725 -0.20998445
v 0.87337351 0.00499132 -0.20998445
v 0.87581372 0.00314208 -0.19002919
v 0.89114439 0.01448138 -0.18821506
v 0.92376852 0.03699740 -0.17003268
v 0.89857101 0.02110613 -0.19365741
v 0.90801346 0.02756831 -0.18821506
v 0.92169964 0.03864343 -0.19002919
v 0.93379444 0.04496336 -0.17003268
v 0.94615448 0.05494113 -0.17003268
v 0.95803708 0.06164717 -0.15003619
v 0.95612735 0.06325255 -0.17003268
v 0.89183402 0.03234382 -0.27145824
v 0.87804168 0.02147191 -0.26997396
v 0.90180689 0.03860279 -0.26576850
v 0.94408560 0.05658716 -0.19002919
v 0.93172562 0.04660939 -0.19002919
v 0.92042649 0.03965950 -0.20190339
v 0.92822444 0.04732063 -0.20911862
v 0.91878206 0.04093974 -0.21517941
v 0.91692537 0.04244352 -0.22998096
v 0.91411388 0.04463822 -0.24997745
v 0.86801577 0.01403431 -0.26997396
v 0.83353496 -0.01551289 -0.24997745
v 0.82356209 -0.02248311 -0.24997745
v 0.85767150 0.00167894 -0.24997745
v 0.84764558 -0.00551480 -0.24997745
v 0.78998309 -0.04979496 -0.22998096
v 0.78924048 -0.05263995 -0.21856028
v 0.81226301 -0.03467590 -0.22998096
v 0.80229008 -0.04156483 -0.22998096
v 0.83878666 -0.01915041 -0.21571541
v 0.84838825 -0.01348076 -0.20940724
v 0.79295379 -0.05263995 -0.20610884
v 0.79173368 -0.05263995 -0.21043798
v 0.82669187 -0.02467781 -0.22998096
v 0.86133176 -0.00100347 -0.22490968
v 0.86881149 0.00580417 -0.23092924
v 0.88398302 0.01698090 -0.22998096
v 0.88658231 0.01498941 -0.20998445
v 0.89655519 0.02260991 -0.20998445
v 0.91124928 0.03386792 -0.20911862
v 0.87973922 0.02017135 -0.25921294
v 0.90414095 0.03675355 -0.24997745
v 0.88902247 0.02551585 -0.25154418
v 0.90689945 0.03459949 -0.22998096
v 0.83666480 -0.01768728 -0.22998096
v 0.85947514 0.00037838 -0.23822694
v 0.87183517 0.01255085 -0.25154418
v 0.85167718 -0.00675441 -0.23092924
v 0.88175499 0.01868789 -0.24589570
v 0.89395589 0.02460140 -0.22998096
f 1 2 7
f 1 7 14
f 1 14 25
f 1 25 41
f 1 41 64
f 1 64 96
f 1 96 136
f 1 136 183
f 1 183 238
f 1 238 295
f 1 295 362
f 1 362 423
f 1 423 467
f 1 467 466
f 1 466 506
f 1 506 543
f 1 543 549
f 1 549 548
f 1 548 512
f 1 512 473
f 1 473 428
f 1 428 427
f 1 427 426
f 1 426 365
f 1 365 302
f 1 302 245
f 1 245 191
f 1 191 143
f 1 143 101
f 1 101 97
f 1 97 65
f 1 65 42
f 1 42 26
f 1 26 15
f 1 15 8
f 1 8 3
f 1 3 4
f 1 4 5
f 1 5 12
f 1 12 21
f 1 21 36
f 1 36 57
f 1 57 84
f 1 84 125
f 1 125 124
f 1 124 172
f 1 172 223
f 1 223 277
f 1 277 341
f 1 341 351
f 1 351 286
f 1 286 229
f 1 229 177
f 1 177 133
f 1 133 92
f 1 92 60
f 1 60 37
f 1 37 22
f 1 22 13
f 1 13 6
f 1 6 2
f 2 6 7
f 3 8 16
f 3 16 28
f 3 28 45
f 3 45 71
f 3 71 106
f 3 106 107
f 3 107 146
f 3 146 148
f 3 148 196
f 3 196 251
f 3 251 253
f 3 253 316
f 3 316 386
f 3 386 387
f 3 387 388
f 3 388 317
f 3 317 254
f 3 254 197
f 3 197 149
f 3 149 108
f 3 108 72
f 3 72 46
f 3 46 29
f 3 29 17
f 3 17 10
f 3 10 9
f 3 9 4
f 4 9 5
f 5 9 10
f 5 10 11
f 5 11 12
f 6 13 7
f 7 13 14
f 8 15 16
f 10 17 18
f 10 18 19
f 10 19 12
f 10 12 11
f 12 19 20
f 12 20 21
f 13 22 23
f 13 23 24
f 13 24 14
f 14 24 25
f 15 26 27
f 15 27 16
f 16 27 28
f 17 29 47
f 17 47 30
f 17 30 31
f 17 31 18
f 18 31 19
f 19 31 32
f 19 32 33
f 19 33 20
f 20 33 34
f 20 34 35
f 20 35 21
f 21 35 36
f 22 37 23
f 23 38 39
f 23 39 24
f 23 37 40
f 23 40 38
f 24 39 25
f 25 39 41
f 26 42 43
f 26 43 27
f 27 43 44
f 27 44 28
f 28 44 45
f 29 46 73
f 29 73 47
f 30 47 48
f 30 48 49
f 30 49 31
f 31 49 50
f 31 50 32
f 32 50 51
f 32 51 33
f 33 51 34
f 34 51 52
f 34 52 53
f 34 53 54
f 34 54 35
f 35 54 53
f 35 53 55
f 35 55 36
f 36 55 56
f 36 56 57
f 37 58 59
f 37 59 40
f 37 60 61
f 37 61 58
f 38 62 39
f 38 40 59
f 38 59 63
f 38 63 62
f 39 62 41
f 41 62 64
f 42 65 66
f 42 66 43
f 43 66 67
f 43 67 68
f 43 68 69
f 43 69 70
f 43 70 44
f 44 70 45
f 45 70 71
f 46 72 73
f 47 73 74
f 47 74 48
f 48 74 75
f 48 75 76
f 48 76 49
f 49 76 50
f 50 76 77
f 50 77 51
f 51 77 78
f 51 78 52
f 52 79 53
f 52 78 80
f 52 80 79
f 53 79 80
f 53 80 81
f 53 81 82
f 53 82 55
f 55 82 56
f 56 83 84
f 56 84 57
f 56 82 85
f 56 85 86
f 56 86 87
f 56 87 83
f 58 61 59
f 59 61 88
f 59 88 89
f 59 89 90
f 59 90 91
f 59 91 63
f 60 92 93
f 60 93 61
f 61 93 88
f 62 94 64
f 62 63 95
f 62 95 94
f 63 91 95
f 64 94 96
f 65 97 67
f 65 67 66
f 67 98 99
f 67 99 100
f 67 100 69
f 67 69 68
f 67 97 101
f 67 101 102
f 67 102 98
f 69 100 103
f 69 103 104
f 69 104 105
f 69 105 70
f 70 106 71
f 70 105 107
f 70 107 106
f 72 108 109
f 72 109 110
f 72 110 73
f 73 110 152
f 73 152 111
f 73 111 74
f 74 111 112
f 74 112 75
f 75 112 113
f 75 113 76
f 76 114 77
f 76 113 114
f 77 114 115
f 77 115 78
f 78 115 116
f 78 116 117
f 78 117 80
f 80 117 118
f 80 118 119
f 80 119 81
f 81 119 82
f 82 119 120
f 82 120 121
f 82 121 122
f 82 122 85
f 83 123 124
f 83 124 125
f 83 125 84
f 83 87 86
f 83 86 85
f 83 85 122
f 83 122 126
f 83 126 171
f 83 171 123
f 88 127 89
f 88 93 128
f 88 128 129
f 88 129 130
f 88 130 127
f 89 127 90
f 90 127 131
f 90 131 91
f 91 132 95
f 91 131 132
f 92 133 128
f 92 128 93
f 94 95 134
f 94 134 135
f 94 135 96
f 95 132 134
f 96 135 136
f 98 137 99
f 98 102 138
f 98 138 139
f 98 139 137
f 99 137 100
f 100 137 140
f 100 140 141
f 100 141 142
f 100 142 103
f 101 138 102
f 101 143 138
f 103 142 144
f 103 144 145
f 103 145 104
f 104 146 107
f 104 107 105
f 104 145 147
f 104 147 148
f 104 148 146
f 108 149 150
f 108 150 109
f 109 150 198
f 109 198 151
f 109 151 110
f 110 151 152
f 111 152 202
f 111 202 153
f 111 153 112
f 112 153 154
f 112 154 113
f 113 154 155
f 113 155 156
f 113 156 114
f 114 156 157
f 114 157 115
f 115 157 158
f 115 158 159
f 115 159 116
f 116 159 117
f 117 159 160
f 117 160 161
f 117 161 118
f 118 161 119
f 119 161 162
f 119 162 120
f 120 162 163
f 120 163 126
f 120 126 164
f 120 164 121
f 121 164 126
f 121 126 122
f 123 165 166
f 123 166 167
f 123 167 168
f 123 168 169
f 123 169 170
f 123 170 124
f 123 171 165
f 124 170 169
f 124 169 172
f 126 163 162
f 126 162 173
f 126 173 215
f 126 215 171
f 127 174 175
f 127 175 131
f 127 130 176
f 127 176 174
f 128 133 177
f 128 177 129
f 129 178 179
f 129 179 130
f 129 177 178
f 130 179 180
f 130 180 176
f 131 175 181
f 131 181 132
f 132 181 134
f 134 181 182
f 134 182 135
f 135 182 183
f 135 183 136
f 137 139 184
f 137 184 185
f 137 185 186
f 137 186 140
f 138 187 184
f 138 184 139
f 138 143 187
f 140 186 141
f 141 186 188
f 141 188 189
f 141 189 190
f 141 190 144
f 141 144 142
f 143 191 187
f 144 190 192
f 144 192 193
f 144 193 194
f 144 194 145
f 145 194 195
f 145 195 147
f 147 195 196
f 147 196 148
f 149 197 199
f 149 199 150
f 150 199 200
f 150 200 198
f 151 201 152
f 151 198 201
f 152 201 202
f 153 202 260
f 153 260 203
f 153 203 204
f 153 204 154
f 154 204 156
f 154 156 155
f 156 204 157
f 157 204 158
f 158 204 205
f 158 205 159
f 159 205 160
f 160 205 206
f 160 206 207
f 160 207 161
f 161 207 208
f 161 208 209
f 161 209 173
f 161 173 210
f 161 210 211
f 161 211 162
f 162 211 173
f 165 212 166
f 165 171 213
f 165 213 212
f 166 212 169
f 166 169 167
f 167 169 168
f 169 212 214
f 169 214 172
f 171 215 216
f 171 216 217
f 171 217 218
f 171 218 219
f 171 219 220
f 171 220 213
f 172 214 221
f 172 221 222
f 172 222 223
f 173 211 210
f 173 209 208
f 173 208 224
f 173 224 215
f 174 225 175
f 174 176 225
f 175 225 226
f 175 226 227
f 175 227 181
f 176 180 228
f 176 228 225
f 177 229 178
f 178 229 230
f 178 230 179
f 179 230 231
f 179 231 232
f 179 232 180
f 180 232 233
f 180 233 228
f 181 227 182
f 182 234 183
f 182 227 235
f 182 235 236
f 182 236 237
f 182 237 234
f 183 234 238
f 184 187 239
f 184 239 240
f 184 240 185
f 185 240 186
f 186 240 188
f 187 241 239
f 187 191 241
f 188 240 189
f 189 242 243
f 189 243 244
f 189 244 190
f 189 240 242
f 190 244 192
f 191 245 241
f 192 244 246
f 192 246 247
f 192 247 248
f 192 248 249
f 192 249 193
f 193 249 250
f 193 250 194
f 194 250 195
f 195 251 196
f 195 250 252
f 195 252 253
f 195 253 251
f 197 254 257
f 197 257 199
f 198 200 255
f 198 255 256
f 198 256 201
f 199 257 258
f 199 258 200
f 200 258 255
f 201 256 320
f 201 320 259
f 201 259 202
f 202 259 260
f 203 260 261
f 203 261 262
f 203 262 263
f 203 263 205
f 203 205 204
f 205 263 262
f 205 262 206
f 206 262 261
f 206 261 264
f 206 264 265
f 206 265 207
f 207 265 261
f 207 261 208
f 208 261 224
f 212 213 219
f 212 219 266
f 212 266 267
f 212 267 268
f 212 268 269
f 212 269 270
f 212 270 271
f 212 271 214
f 213 220 219
f 214 271 270
f 214 270 272
f 214 272 221
f 215 273 274
f 215 274 216
f 215 224 275
f 215 275 273
f 216 274 273
f 216 273 217
f 217 266 219
f 217 219 218
f 217 273 266
f 221 272 276
f 221 276 222
f 222 276 277
f 222 277 223
f 224 261 278
f 224 278 279
f 224 279 273
f 224 273 275
f 225 228 280
f 225 280 281
f 225 281 226
f 226 281 282
f 226 282 235
f 226 235 227
f 228 283 284
f 228 284 280
f 228 233 285
f 228 285 283
f 229 286 287
f 229 287 230
f 230 287 231
f 231 287 288
f 231 288 289
f 231 289 233
f 231 233 232
f 233 289 290
f 233 290 291
f 233 291 285
f 234 292 238
f 234 237 236
f 234 236 293
f 234 293 294
f 234 294 292
f 235 282 293
f 235 293 236
f 238 292 295
f 239 241 296
f 239 296 297
f 239 297 298
f 239 298 299
f 239 299 300
f 239 300 240
f 240 300 299
f 240 299 301
f 240 301 242
f 241 245 302
f 241 302 296
f 242 303 304
f 242 304 243
f 242 301 303
f 243 304 373
f 243 373 305
f 243 305 244
f 244 305 246
f 246 305 306
f 246 306 307
f 246 307 247
f 247 308 309
f 247 309 248
f 247 307 306
f 247 306 310
f 247 310 311
f 247 311 312
f 247 312 308
f 248 309 249
f 249 309 308
f 249 308 313
f 249 313 250
f 250 313 314
f 250 314 252
f 252 314 315
f 252 315 316
f 252 316 253
f 254 317 257
f 255 318 256
f 255 258 319
f 255 319 318
f 256 318 320
f 257 317 321
f 257 321 322
f 257 322 258
f 258 322 319
f 259 320 391
f 259 391 323
f 259 323 260
f 260 323 324
f 260 324 325
f 260 325 278
f 260 278 261
f 261 265 264
f 266 273 326
f 266 326 327
f 266 327 328
f 266 328 329
f 266 329 330
f 266 330 267
f 267 330 329
f 267 329 268
f 268 329 269
f 269 331 332
f 269 332 276
f 269 276 270
f 269 329 333
f 269 333 331
f 270 276 272
f 273 279 334
f 273 334 335
f 273 335 336
f 273 336 337
f 273 337 326
f 276 338 288
f 276 288 339
f 276 339 277
f 276 332 338
f 277 339 340
f 277 340 341
f 278 325 342
f 278 342 343
f 278 343 344
f 278 344 345
f 278 345 279
f 279 345 343
f 279 343 334
f 280 284 346
f 280 346 281
f 281 346 347
f 281 347 282
f 282 347 293
f 283 348 284
f 283 285 349
f 283 349 348
f 284 348 350
f 284 350 346
f 285 291 349
f 286 351 287
f 287 351 352
f 287 352 288
f 288 352 351
f 288 351 340
f 288 340 339
f 288 338 353
f 288 353 290
f 288 290 289
f 290 353 354
f 290 354 355
f 290 355 291
f 291 356 349
f 291 355 356
f 292 357 295
f 292 294 358
f 292 358 357
f 293 347 359
f 293 359 360
f 293 360 361
f 293 361 294
f 294 361 358
f 295 357 362
f 296 363 364
f 296 364 297
f 296 302 365
f 296 365 366
f 296 366 363
f 297 364 367
f 297 367 298
f 298 367 368
f 298 368 369
f 298 369 299
f 299 370 303
f 299 303 301
f 299 369 370
f 303 371 304
f 303 370 371
f 304 371 372
f 304 372 373
f 305 373 374
f 305 374 375
f 305 375 306
f 306 375 376
f 306 376 377
f 306 377 378
f 306 378 310
f 308 379 313
f 308 312 380
f 308 380 379
f 310 378 311
f 311 378 381
f 311 381 382
f 311 382 383
f 311 383 312
f 312 383 380
f 313 379 314
f 314 379 380
f 314 380 384
f 314 384 385
f 314 385 315
f 315 386 316
f 315 385 387
f 315 387 386
f 317 388 321
f 318 389 320
f 318 319 382
f 318 382 389
f 319 322 390
f 319 390 383
f 319 383 382
f 320 389 391
f 321 388 385
f 321 385 384
f 321 384 322
f 322 384 380
f 322 380 390
f 323 391 324
f 324 343 342
f 324 342 325
f 324 391 392
f 324 392 393
f 324 393 394
f 324 394 395
f 324 395 396
f 324 396 343
f 326 337 397
f 326 397 327
f 327 397 328
f 328 398 399
f 328 399 400
f 328 400 401
f 328 401 402
f 328 402 403
f 328 403 333
f 328 333 329
f 328 397 398
f 331 333 354
f 331 354 353
f 331 353 332
f 332 353 338
f 333 403 354
f 334 396 404
f 334 404 335
f 334 343 396
f 335 405 336
f 335 404 405
f 336 405 406
f 336 406 407
f 336 407 398
f 336 398 397
f 336 397 337
f 340 351 341
f 343 345 344
f 346 408 347
f 346 350 408
f 347 408 409
f 347 409 359
f 348 410 350
f 348 349 411
f 348 411 410
f 349 356 412
f 349 412 411
f 350 410 413
f 350 413 408
f 354 414 415
f 354 415 355
f 354 403 416
f 354 416 414
f 355 415 356
f 356 415 412
f 357 358 417
f 357 417 362
f 358 361 418
f 358 418 417
f 359 419 420
f 359 420 360
f 359 409 421
f 359 421 419
f 360 420 418
f 360 418 361
f 362 417 422
f 362 422 423
f 363 424 364
f 363 366 424
f 364 424 425
f 364 425 367
f 365 426 366
f 366 426 427
f 366 427 428
f 366 428 429
f 366 429 424
f 367 425 430
f 367 430 368
f 368 430 431
f 368 431 432
f 368 432 433
f 368 433 369
f 369 433 371
f 369 371 370
f 371 434 372
f 371 433 432
f 371 432 434
f 372 435 479
f 372 479 436
f 372 436 374
f 372 374 373
f 372 434 432
f 372 432 435
f 374 436 437
f 374 437 375
f 375 437 376
f 376 437 438
f 376 438 439
f 376 439 377
f 377 439 378
f 378 439 440
f 378 440 381
f 380 383 390
f 381 440 441
f 381 441 389
f 381 389 382
f 385 388 387
f 389 441 391
f 391 441 442
f 391 442 392
f 392 442 443
f 392 443 393
f 393 443 394
f 394 443 444
f 394 444 395
f 395 444 445
f 395 445 396
f 396 445 404
f 398 407 446
f 398 446 399
f 399 446 400
f 400 447 448
f 400 448 449
f 400 449 401
f 400 446 450
f 400 450 447
f 401 449 451
f 401 451 414
f 401 414 416
f 401 416 402
f 402 416 403
f 404 445 452
f 404 452 405
f 405 452 453
f 405 453 454
f 405 454 406
f 406 454 455
f 406 455 456
f 406 456 446
f 406 446 407
f 408 413 421
f 408 421 409
f 410 411 457
f 410 457 458
f 410 458 459
f 410 459 413
f 411 412 457
f 412 415 414
f 412 414 460
f 412 460 457
f 413 459 421
f 414 451 460
f 417 418 420
f 417 420 461
f 417 461 422
f 419 462 420
f 419 421 463
f 419 463 462
f 420 462 461
f 421 459 464
f 421 464 465
f 421 465 463
f 422 466 467
f 422 467 423
f 422 461 468
f 422 468 469
f 422 469 466
f 424 470 425
f 424 429 471
f 424 471 470
f 425 472 430
f 425 470 472
f 428 473 429
f 429 473 474
f 429 474 471
f 430 472 475
f 430 475 476
f 430 476 431
f 431 476 477
f 431 477 432
f 432 477 478
f 432 478 435
f 435 478 480
f 435 480 479
f 436 479 519
f 436 519 481
f 436 481 437
f 437 481 482
f 437 482 483
f 437 483 438
f 438 483 484
f 438 484 439
f 439 485 440
f 439 484 485
f 440 485 442
f 440 442 441
f 442 485 443
f 443 485 484
f 443 484 486
f 443 486 487
f 443 487 444
f 444 487 488
f 444 488 445
f 445 488 452
f 446 456 489
f 446 489 450
f 447 450 490
f 447 490 448
f 448 490 491
f 448 491 492
f 448 492 493
f 448 493 449
f 449 493 451
f 450 489 494
f 450 494 490
f 451 493 460
f 452 488 495
f 452 495 453
f 453 495 496
f 453 496 497
f 453 497 454
f 454 497 455
f 455 497 498
f 455 498 499
f 455 499 456
f 456 499 489
f 457 460 493
f 457 493 492
f 457 492 458
f 458 492 459
f 459 492 500
f 459 500 501
f 459 501 464
f 461 462 502
f 461 502 468
f 462 463 503
f 462 503 502
f 463 465 503
f 464 504 465
f 464 501 504
f 465 504 505
f 465 505 503
f 466 469 506
f 468 507 508
f 468 508 469
f 468 502 507
f 469 508 506
f 470 471 472
f 471 474 509
f 471 509 510
f 471 510 472
f 472 511 475
f 472 510 511
f 473 512 474
f 474 513 514
f 474 514 509
f 474 512 513
f 475 511 515
f 475 515 476
f 476 515 516
f 476 516 517
f 476 517 477
f 477 517 518
f 477 518 480
f 477 480 478
f 479 480 519
f 480 518 520
f 480 520 521
f 480 521 522
f 480 522 519
f 481 519 523
f 481 523 482
f 482 523 524
f 482 524 483
f 483 524 525
f 483 525 484
f 484 525 486
f 486 525 487
f 487 525 526
f 487 526 495
f 487 495 488
f 489 499 494
f 490 527 528
f 490 528 500
f 490 500 491
f 490 494 529
f 490 529 527
f 491 500 492
f 494 499 529
f 495 526 530
f 495 530 496
f 496 530 531
f 496 531 532
f 496 532 533
f 496 533 497
f 497 533 534
f 497 534 535
f 497 535 498
f 498 535 499
f 499 535 536
f 499 536 529
f 500 528 501
f 501 528 537
f 501 537 504
f 502 503 538
f 502 538 539
f 502 539 507
f 503 505 538
f 504 540 541
f 504 541 505
f 504 537 540
f 505 541 538
f 506 508 542
f 506 542 543
f 507 539 508
f 508 539 544
f 508 544 545
f 508 545 542
f 509 514 511
f 509 511 510
f 511 546 547
f 511 547 515
f 511 514 546
f 512 548 513
f 513 545 544
f 513 544 514
f 513 548 549
f 513 549 545
f 514 544 550
f 514 550 546
f 515 551 552
f 515 552 516
f 515 547 551
f 516 552 553
f 516 553 554
f 516 554 517
f 517 554 520
f 517 520 518
f 519 522 531
f 519 531 523
f 520 554 555
f 520 555 556
f 520 556 532
f 520 532 521
f 521 532 522
f 522 532 531
f 523 531 530
f 523 530 524
f 524 526 525
f 524 530 526
f 527 557 528
f 527 529 557
f 528 557 537
f 529 536 558
f 529 558 559
f 529 559 557
f 532 556 534
f 532 534 533
f 534 556 560
f 534 560 535
f 535 560 558
f 535 558 536
f 537 557 540
f 538 561 550
f 538 550 539
f 538 541 561
f 539 550 544
f 540 562 541
f 540 557 563
f 540 563 562
f 541 562 561
f 542 545 543
f 543 545 549
f 546 550 561
f 546 561 564
f 546 564 551
f 546 551 547
f 551 564 562
f 551 562 552
f 552 565 553
f 552 562 565
f 553 565 566
f 553 566 555
f 553 555 554
f 555 566 560
f 555 560 556
f 557 559 565
f 557 565 563
f 558 560 566
f 558 566 565
f 558 565 559
f 561 562 564
f 562 563 565
