v -0.00101897 0.10999607 1.00829506
v -0.00101897 0.11900499 1.00814331
v -0.01002117 0.10999607 1.00834560
v -0.00101897 0.10204702 1.00536168
v -0.01002117 0.12999099 1.00799155
v -0.00101897 0.12999099 1.00794101
v -0.03000844 0.12999099 1.00768816
v -0.03000844 0.10999607 1.00799155
v -0.03000844 0.09581007 1.00278234
v -0.01002117 0.09554511 1.00298464
v -0.00101897 0.09554511 1.00293398
v -0.00101897 0.13596296 1.00556397
v -0.00101897 0.14321902 1.00263059
v -0.01002117 0.14323941 1.00263059
v -0.03000844 0.14309673 1.00247884
v -0.05003537 0.12999099 1.00703061
v -0.05003537 0.14277062 1.00217545
v -0.05003537 0.10999607 1.00723290
v -0.05003537 0.09638077 1.00237775
v -0.03000844 0.08580242 0.99539834
v -0.01002117 0.08553746 0.99560064
v -0.00101897 0.09004192 0.99893862
v -0.00101897 0.15147381 0.98998678
v -0.01002117 0.15149418 0.98998678
v -0.03000844 0.15135151 0.98998678
v -0.05003537 0.15098463 0.98998678
v -0.07002264 0.12999099 1.00591803
v -0.07002264 0.14215915 1.00166965
v -0.07002264 0.15029164 0.98998678
v -0.07002264 0.10999607 1.00601912
v -0.09000992 0.09845976 1.00096154
v -0.07002264 0.09725721 1.00177085
v -0.05003537 0.08637312 0.99494314
v -0.05003537 0.07471452 0.98497987
v -0.03000844 0.07428649 0.98538446
v -0.00101897 0.08553746 0.99560064
v -0.01002117 0.07408267 0.98558676
v -0.00101897 0.07923936 0.99013853
v -0.00101897 0.15292093 0.98093385
v -0.09000992 0.15546870 0.96995902
v -0.11003685 0.15557063 0.96995902
v -0.13002412 0.15542795 0.96995902
v -0.15001139 0.15489802 0.96995902
v -0.09000992 0.12999099 1.00429964
v -0.09000992 0.14120118 1.00086045
v -0.10250197 0.14040628 1.00025356
v -0.09000992 0.14917061 0.98998678
v -0.17003833 0.15377699 0.96995902
v -0.09000992 0.10999607 1.00440073
v -0.10297785 0.09943810 1.00035477
v -0.09000992 0.08845211 0.99347651
v -0.07002264 0.08724956 0.99433625
v -0.07002264 0.07536675 0.98432237
v -0.07002264 0.06535910 0.97440964
v -0.05003537 0.06472725 0.97501653
v -0.03000844 0.06429923 0.97547174
v -0.01002117 0.06407502 0.97567403
v -0.00101897 0.06857948 0.98017520
v -0.00101897 0.07408267 0.98558676
v -0.00101897 0.15465343 0.96995902
v -0.38997763 0.15542795 0.88999957
v -0.28996196 0.15561140 0.92995399
v -0.22996049 0.15567252 0.94998181
v -0.24998741 0.15471457 0.94998181
v -0.10952130 0.13080627 1.00197315
v -0.13002412 0.12405977 1.00091100
v -0.14100918 0.12071709 1.00015235
v -0.13002412 0.14721394 0.98831779
v -0.15001139 0.14645979 0.98675001
v -0.11586647 0.13802156 0.99939382
v -0.17003833 0.14531839 0.98497987
v -0.19002560 0.14370820 0.98310858
v -0.20997322 0.14152730 0.98118669
v -0.19002560 0.15206489 0.96995902
v -0.14100918 0.11920881 1.00015235
v -0.13002412 0.11574385 1.00091100
v -0.10979890 0.10905848 1.00202370
v -0.11630270 0.10176167 0.99949491
v -0.17003833 0.09242663 0.98518217
v -0.14941654 0.08849287 0.98578906
v -0.13002412 0.08998077 0.98973393
v -0.10979890 0.09165211 0.99367881
v -0.13002412 0.07864828 0.98118669
v -0.11003685 0.07730305 0.98245108
v -0.09000992 0.07622280 0.98346257
v -0.09000992 0.06621515 0.97360039
v -0.09000992 0.05665591 0.96358651
v -0.07002264 0.05592215 0.96439576
v -0.05003537 0.05537183 0.96505320
v -0.03000844 0.05500495 0.96545780
v -0.01002117 0.05480113 0.96566010
v -0.00101897 0.05897948 0.97021186
v -0.00101897 0.06407502 0.97567403
v -0.00101897 0.15094388 0.96141177
v -0.40611815 0.15263559 0.86997175
v -0.40611815 0.15485725 0.88999957
v -0.34996343 0.15546870 0.90997678
v -0.30998889 0.15491839 0.92995399
v -0.26997468 0.15257445 0.94998181
v -0.13002412 0.13406742 0.99833173
v -0.14862339 0.12842156 0.99681443
v -0.17003833 0.12999099 0.99261671
v -0.19002560 0.12999099 0.98882353
v -0.24094555 0.12106359 0.98022580
v -0.22064102 0.14018208 0.98012459
v -0.20997322 0.14961903 0.96995902
v -0.24998741 0.14621520 0.96641874
v -0.24094555 0.11886232 0.98022580
v -0.19002560 0.10999607 0.98897529
v -0.17003833 0.10999607 0.99281901
v -0.14862339 0.11152473 0.99701673
v -0.13002412 0.10573620 0.99853402
v -0.22072034 0.09972345 0.98012459
v -0.20997322 0.09799097 0.98128784
v -0.19002560 0.09499478 0.98331088
v -0.17003833 0.08243936 0.97800046
v -0.15568238 0.08082917 0.97926486
v -0.14235753 0.07958586 0.98032689
v -0.13002412 0.06866101 0.97132456
v -0.11003685 0.06731579 0.97258890
v -0.11003685 0.05757311 0.96257502
v -0.09000992 0.04666864 0.95240939
v -0.07002264 0.04595527 0.95321858
v -0.05003537 0.04538456 0.95387608
v -0.03000844 0.04501769 0.95428067
v -0.00101897 0.05480113 0.96566010
v -0.01002117 0.04483424 0.95448297
v -0.00101897 0.04481386 0.95453358
v -0.00101897 0.14639863 0.95099330
v -0.40611815 0.14350438 0.85181528
v -0.40611815 0.14670438 0.90845954
v -0.36999035 0.15394005 0.90997678
v -0.32997614 0.15235025 0.92995399
v -0.30998889 0.14652094 0.94750357
v -0.26997468 0.14419737 0.96373826
v -0.20997322 0.12999099 0.98482811
v -0.22837418 0.12862538 0.98123729
v -0.23396587 0.13439354 0.97845566
v -0.24855974 0.12862538 0.97628093
v -0.26997468 0.12999099 0.97016132
v -0.30388168 0.12526232 0.96131063
v -0.28536171 0.14195532 0.96156353
v -0.29868656 0.13859227 0.95954049
v -0.22841385 0.11132091 0.98123729
v -0.20997322 0.10999607 0.98492926
v -0.30388168 0.11423557 0.96131063
v -0.26997468 0.10999607 0.97036362
v -0.24855974 0.11132091 0.97643262
v -0.23404518 0.10553238 0.97860736
v -0.29920211 0.10090562 0.95974278
v -0.28587726 0.09739988 0.96171522
v -0.26997468 0.09426103 0.96399111
v -0.24895632 0.08896166 0.96555895
v -0.22841385 0.09183554 0.97258890
v -0.20997322 0.08798332 0.97400498
v -0.19002560 0.08500752 0.97607863
v -0.20997322 0.07571325 0.96399111
v -0.19002560 0.07363427 0.96611530
v -0.17003833 0.07179987 0.96803713
v -0.14917859 0.07010815 0.96985787
v -0.14263514 0.05959094 0.96040028
v -0.13002412 0.05875527 0.96131063
v -0.11003685 0.04760622 0.95134735
v -0.11003685 0.03882150 0.94138402
v -0.09000992 0.03792469 0.94239551
v -0.07002264 0.03721131 0.94325531
v -0.05003537 0.03666099 0.94386220
v -0.03000844 0.03631449 0.94426680
v -0.01002117 0.03613105 0.94451964
v -0.00101897 0.03613105 0.94451964
v -0.00101897 -0.05255180 0.63611192
v -0.40611815 -0.05255180 0.49171963
v -0.40611815 0.13486233 0.91822052
v -0.39973333 0.13965213 0.91983896
v -0.38640848 0.14283176 0.92262059
v -0.36999035 0.14554259 0.92595857
v -0.32997614 0.14405468 0.94386220
v -0.29123098 0.13115278 0.96373826
v -0.31034580 0.13115278 0.95741636
v -0.32997614 0.12999099 0.95058870
v -0.36146402 0.12240881 0.94057477
v -0.34357861 0.14164959 0.94138402
v -0.35690346 0.13573876 0.93865293
v -0.36146402 0.11706869 0.94057477
v -0.32997614 0.10999607 0.95104384
v -0.31034580 0.10854894 0.95771980
v -0.29150859 0.10854894 0.96378881
v -0.35769659 0.10373874 0.93905753
v -0.34437174 0.09750180 0.94163686
v -0.32997614 0.09383300 0.94431734
v -0.31058374 0.08857440 0.94714957
v -0.29150859 0.09044956 0.95473588
v -0.26997468 0.08425338 0.95655656
v -0.25490493 0.08160369 0.95863014
v -0.24158007 0.07954510 0.96040028
v -0.22996049 0.07805720 0.96176583
v -0.20997322 0.06570560 0.95397723
v -0.19002560 0.06362662 0.95610142
v -0.17003833 0.06179222 0.95802325
v -0.15595999 0.06061005 0.95928764
v -0.14957516 0.05280368 0.95154965
v -0.15001139 0.04130813 0.93845063
v -0.13692449 0.04039093 0.93951273
v -0.13018274 0.04725973 0.94826221
v -0.12359964 0.03957564 0.94047368
v -0.13018274 0.03317564 0.93172413
v -0.11003685 0.02952723 0.92995399
v -0.09821898 0.02015143 0.91978836
v -0.09092204 0.02642914 0.92828500
v -0.08489413 0.01960111 0.92049646
v -0.07002264 0.02722404 0.93111724
v -0.05003537 0.02667372 0.93182528
v -0.03000844 0.02630685 0.93222988
v -0.01002117 0.02612341 0.93243217
v -0.00101897 0.03062787 0.93789428
v -0.00101897 -0.05255180 0.82829779
v -0.40611815 -0.05255180 0.72163463
v -0.40611815 0.12834004 0.91999066
v -0.40369904 0.12632219 0.92165965
v -0.39184153 0.13178462 0.92525053
v -0.35016173 0.12944067 0.94310355
v -0.35063761 0.11024065 0.94330585
v -0.40611815 0.10999607 0.91978836
v -0.40286624 0.10999607 0.92125505
v -0.38997763 0.10999607 0.92686892
v -0.36887997 0.11024065 0.93592191
v -0.40009025 0.09990689 0.92004126
v -0.38997763 0.09682918 0.92221600
v -0.36903858 0.08951198 0.92565513
v -0.35063761 0.09049033 0.93389887
v -0.32997614 0.08384573 0.93688279
v -0.31768239 0.08095147 0.93915868
v -0.30435756 0.07848522 0.94143456
v -0.28996196 0.07624318 0.94360930
v -0.26997468 0.07341006 0.94654268
v -0.24800456 0.07045464 0.94947600
v -0.22996049 0.06806993 0.95165074
v -0.24110419 0.05973362 0.94027138
v -0.22996049 0.05849031 0.94163686
v -0.20997322 0.05641132 0.94401389
v -0.19002560 0.05453616 0.94608748
v -0.17003833 0.05282406 0.94805992
v -0.17003833 0.04285717 0.93662989
v -0.17003833 0.03458201 0.92661601
v -0.15001139 0.03309411 0.92843676
v -0.13002412 0.02178200 0.91771477
v -0.11003685 0.02070175 0.91908032
v -0.11003685 0.01297690 0.90906644
v -0.11003685 0.00296925 0.89606857
v -0.09000992 0.00211320 0.89723182
v -0.07002264 0.01044951 0.90997678
v -0.07002264 0.01909155 0.92115390
v -0.07002264 0.00135906 0.89819276
v -0.05003537 0.01856162 0.92181140
v -0.03000844 0.01821512 0.92226654
v -0.00101897 0.02612341 0.93243217
v -0.01002117 0.01805206 0.92246884
v -0.00101897 -0.04221804 0.84306574
v -0.01002117 -0.05134925 0.82996678
v -0.01002117 -0.05255180 0.82824719
v -0.39279330 -0.05255180 0.72911978
v -0.40611815 -0.04721167 0.73048532
v -0.40611815 0.12202156 0.92034471
v -0.40611815 0.09332345 0.91210091
v -0.40611815 0.09161134 0.91078597
v -0.38997763 0.08684191 0.91447794
v -0.37506649 0.08254127 0.91781592
v -0.36174166 0.07921898 0.92069876
v -0.34996343 0.07689542 0.92302519
v -0.32997614 0.07324700 0.92686892
v -0.31657201 0.06103808 0.91877687
v -0.28996196 0.06623553 0.93319082
v -0.26997468 0.06340241 0.93622530
v -0.25442904 0.06136419 0.93845063
v -0.24863906 0.05355782 0.93106663
v -0.23674187 0.04067628 0.91918147
v -0.23003981 0.04721896 0.92848730
v -0.20997322 0.04642406 0.93238163
v -0.19002560 0.04454890 0.93460691
v -0.19002560 0.03623297 0.92459303
v -0.19002560 0.02622532 0.91220212
v -0.17003833 0.02459474 0.91422510
v -0.15001139 0.02310684 0.91604578
v -0.15001139 0.01528009 0.90608251
v -0.13002412 0.01401639 0.90770090
v -0.13002412 0.00400874 0.89470303
v -0.11003685 -0.02218235 0.86289126
v -0.09000992 -0.01547662 0.87401778
v -0.05003537 0.00938964 0.90997678
v -0.05003537 0.00082912 0.89890081
v -0.09000992 -0.02305879 0.86400390
v -0.07002264 -0.01621038 0.87497872
v -0.03000844 0.00046225 0.89940655
v -0.01002117 0.00832976 0.90997678
v -0.00101897 0.01805206 0.92246884
v -0.00101897 0.00390683 0.90431237
v -0.00101897 -0.03891613 0.84756696
v -0.01002117 -0.03490084 0.85302907
v -0.01002117 -0.04219765 0.84301519
v -0.03000844 -0.04199383 0.84276229
v -0.03000844 -0.05094161 0.82996678
v -0.03000844 -0.05255180 0.82764030
v -0.38946208 -0.05255180 0.73094046
v -0.40342146 -0.04119893 0.74191529
v -0.40611815 -0.04299256 0.73746467
v -0.40611815 0.09040879 0.90982509
v -0.40611815 0.08551708 0.90588021
v -0.40318352 0.07846484 0.90148014
v -0.38997763 0.07559095 0.90451467
v -0.36780921 0.07078076 0.90901583
v -0.36059159 0.05977438 0.90021574
v -0.34996343 0.06688777 0.91240442
v -0.32997614 0.06323935 0.91634929
v -0.30320749 0.05902024 0.92105275
v -0.32997614 0.05461769 0.90633535
v -0.30990958 0.05268138 0.91124117
v -0.28996196 0.05718585 0.92317688
v -0.26997468 0.05457693 0.92621142
v -0.24998741 0.04216418 0.91736078
v -0.24998741 0.03401131 0.90734684
v -0.24998741 0.02400366 0.89485478
v -0.22996049 0.02190430 0.89753526
v -0.23003981 0.03311449 0.91149402
v -0.22341703 0.03931068 0.92085046
v -0.20997322 0.03802660 0.92241830
v -0.20997322 0.02677564 0.90840894
v -0.20335044 0.01941767 0.90072155
v -0.19002560 0.01827627 0.90218818
v -0.17003833 0.01670684 0.90421122
v -0.17003833 0.00669919 0.89121336
v -0.15001139 0.00527244 0.89303410
v -0.15001139 -0.00230973 0.88302016
v -0.13002412 -0.02110210 0.86147511
v -0.13002412 -0.02960147 0.84999454
v -0.11368532 -0.03938492 0.83912086
v -0.10821261 -0.03337217 0.84802210
v -0.10036047 -0.04001676 0.84003127
v -0.05003537 -0.01674031 0.87568676
v -0.03000844 -0.00711993 0.88939267
v -0.09000992 -0.03304606 0.85055089
v -0.07002264 -0.02377217 0.86496484
v -0.01002117 -0.01731101 0.87644541
v -0.01002117 0.00027880 0.89960885
v -0.00101897 0.00027880 0.89960885
v -0.00101897 -0.03490084 0.85302907
v -0.00101897 -0.03039637 0.85909808
v -0.00101897 -0.02489319 0.86648208
v -0.01002117 -0.02489319 0.86643147
v -0.03000844 -0.02466898 0.86617863
v -0.03000844 -0.03467663 0.85272563
v -0.05003537 -0.04160658 0.84220600
v -0.05003537 -0.05020785 0.82996678
v -0.05003537 -0.05255180 0.82662880
v -0.05003537 -0.03428937 0.85221988
v -0.03421211 -0.05255180 0.82743800
v -0.37010932 -0.05255180 0.74100494
v -0.38997763 -0.04344097 0.74540496
v -0.38997763 -0.03697982 0.75536829
v -0.40611815 -0.02409828 0.76644427
v -0.40611815 -0.03832504 0.74484867
v -0.40611815 0.07446993 0.89566398
v -0.40611815 0.06951706 0.89020187
v -0.38997763 0.06560369 0.89359039
v -0.37391645 0.06232215 0.89728236
v -0.38997763 0.05700241 0.88362706
v -0.36832476 0.05451578 0.89035356
v -0.35698277 0.04104316 0.87867069
v -0.35016173 0.04697438 0.88888693
v -0.34996343 0.05791960 0.90244108
v -0.29963833 0.04010558 0.89986175
v -0.29178619 0.04581259 0.90916759
v -0.32997614 0.04463042 0.89424789
v -0.30998889 0.04161386 0.89799047
v -0.26997468 0.04458966 0.91447794
v -0.26997468 0.03635526 0.90446407
v -0.26997468 0.02634761 0.89182025
v -0.26997468 0.01858200 0.88185692
v -0.24998741 0.01627881 0.88484091
v -0.22996049 0.01419983 0.88752139
v -0.21667530 0.02062022 0.89920425
v -0.20997322 0.01350684 0.89151680
v -0.19414996 0.00097180 0.87872130
v -0.18851861 0.00720875 0.88807774
v -0.18082510 -0.00012884 0.88013738
v -0.17003833 -0.00092375 0.88119948
v -0.15592033 -0.01943076 0.85924983
v -0.14953551 -0.01349955 0.86825222
v -0.14255582 -0.02032758 0.86041307
v -0.14953551 -0.02599382 0.85151184
v -0.13002412 -0.03848810 0.83790708
v -0.13002412 -0.04558109 0.82789320
v -0.10821261 -0.04529575 0.83148402
v -0.10071739 -0.05255180 0.82197589
v -0.09000992 -0.04788429 0.82996678
v -0.09000992 -0.04042441 0.84058756
v -0.03000844 -0.01710720 0.87619251
v -0.05003537 -0.02430210 0.86567289
v -0.07002264 -0.03375943 0.85151184
v -0.00101897 -0.02148936 0.87098330
v -0.00101897 -0.00732375 0.88964552
v -0.00101897 -0.00389954 0.89414674
v -0.07002264 -0.04109702 0.84149790
v -0.07002264 -0.04920913 0.82996678
v -0.05590466 -0.05255180 0.82622421
v -0.35341361 -0.05255180 0.74924868
v -0.37026796 -0.04604989 0.75111997
v -0.37716833 -0.03907918 0.75860512
v -0.39029491 -0.02634032 0.77114779
v -0.39719528 -0.01906388 0.77858233
v -0.40611815 -0.02218235 0.76932704
v -0.40611815 0.06568521 0.88595355
v -0.40179551 0.05926483 0.88084543
v -0.39850396 0.04055399 0.85930037
v -0.39108804 0.04593488 0.86941546
v -0.36999035 0.04332596 0.87578791
v -0.36999035 0.03547883 0.86577404
v -0.36999035 0.02547118 0.85282677
v -0.35016173 0.03295144 0.87118560
v -0.34361827 0.03878074 0.88155353
v -0.30998889 0.03370558 0.88797653
v -0.30998889 0.02369793 0.87513041
v -0.29392767 0.02153742 0.87796265
v -0.29012060 0.02995525 0.88999957
v -0.28631347 0.03839348 0.90198588
v -0.32997614 0.03664061 0.88423395
v -0.28060284 0.01986608 0.88018799
v -0.26045692 -0.00010846 0.86010963
v -0.24998741 0.00627116 0.87164074
v -0.22996049 0.00419218 0.87442237
v -0.20997322 0.00233740 0.87690055
v -0.20997322 -0.00518362 0.86688668
v -0.19002560 -0.01688299 0.85581070
v -0.18851861 -0.00559126 0.87123615
v -0.17003833 -0.01843204 0.85788429
v -0.17003833 -0.02583077 0.84787041
v -0.15001139 -0.03722440 0.83613694
v -0.15001139 -0.04435816 0.82612306
v -0.13002412 -0.05255180 0.81787932
v -0.10936268 -0.05255180 0.82091379
v -0.09000992 -0.05255180 0.82324028
v -0.07811274 -0.05255180 0.82440352
v -0.07002264 -0.05255180 0.82516211
v -0.34972548 -0.05255180 0.75096828
v -0.34996343 -0.04335944 0.76502818
v -0.36384350 -0.04121931 0.76179135
v -0.37026796 -0.03426899 0.76907420
v -0.38387042 -0.02126516 0.78181916
v -0.40611815 -0.01747407 0.77630645
v -0.39029491 -0.01402949 0.78910196
v -0.40290591 -0.00104604 0.80144233
v -0.40611815 -0.00338999 0.79648596
v -0.40611815 0.05602406 0.87472582
v -0.40611815 0.04204189 0.85737854
v -0.40611815 0.03684443 0.85080373
v -0.39426062 0.02202659 0.83730018
v -0.38970006 0.03007755 0.84984285
v -0.38513947 0.03814889 0.86233491
v -0.38093579 0.01968264 0.84038526
v -0.34996343 0.02210812 0.85722685
v -0.36999035 0.01786862 0.84286344
v -0.33897835 0.02031448 0.85955328
v -0.33136415 0.02549156 0.86931431
v -0.32565352 0.01831703 0.86218321
v -0.30998889 0.01609537 0.86516714
v -0.28996196 0.00347881 0.85530496
v -0.28833601 0.01468901 0.87078094
v -0.27378178 0.00148135 0.85798544
v -0.26826942 -0.00510209 0.85075319
v -0.26997468 -0.01629191 0.83487254
v -0.24998741 -0.01859509 0.83805883
v -0.24998741 -0.00987152 0.84999454
v -0.24998741 -0.00124986 0.86167741
v -0.22996049 -0.00332884 0.86440849
v -0.20997322 -0.01519127 0.85348427
v -0.19002560 -0.02428172 0.84579682
v -0.17003833 -0.03583842 0.83421510
v -0.17003833 -0.04297218 0.82420117
v -0.15001139 -0.05255180 0.81433904
v -0.32981753 -0.05255180 0.76002121
v -0.32953992 -0.04547919 0.77094549
v -0.33588511 -0.03881422 0.77822828
v -0.34996343 -0.03665370 0.77504206
v -0.36999035 -0.02350720 0.78505599
v -0.36999035 -0.01653650 0.79501927
v -0.38997763 -0.00324731 0.80452740
v -0.40611815 0.00264314 0.80493200
v -0.38997763 0.00390683 0.81454134
v -0.40611815 0.01701257 0.82470691
v -0.40611815 0.00818709 0.81256890
v -0.40611815 0.02593997 0.83659214
v -0.40611815 0.02424825 0.83436680
v -0.40611815 0.01860238 0.82683110
v -0.38854998 0.01493359 0.83037138
v -0.37550271 0.00148135 0.81792986
v -0.36927652 0.00716798 0.82855064
v -0.34996343 0.01460747 0.84721291
v -0.34996343 0.00459982 0.83365875
v -0.32997614 0.00154250 0.83785653
v -0.33136415 0.01222276 0.85171413
v -0.31982389 0.00005460 0.83993006
v -0.31189245 0.00490556 0.84943825
v -0.30645940 -0.00175941 0.84240830
v -0.28996196 -0.00387916 0.84529108
v -0.28623417 -0.02153013 0.82212758
v -0.26997468 -0.02350720 0.82485867
v -0.23904200 -0.01979764 0.83972776
v -0.24998741 -0.02581038 0.82804489
v -0.23142780 -0.01453904 0.84888190
v -0.22571716 -0.02112249 0.84149790
v -0.20997322 -0.02256962 0.84347034
v -0.19002560 -0.03428937 0.83204037
v -0.19002560 -0.04144351 0.82202643
v -0.19002560 -0.04977982 0.80998957
v -0.16964175 -0.05255180 0.81044471
v -0.16658814 -0.05255180 0.81105161
v -0.30860087 -0.05255180 0.76892245
v -0.32256025 -0.04073014 0.78106052
v -0.32953992 -0.03347408 0.78859621
v -0.34274581 -0.02085751 0.80118948
v -0.34964618 -0.02585115 0.79092270
v -0.35607064 -0.01875815 0.79820549
v -0.36927652 -0.00565241 0.81074816
v -0.36213821 -0.00069954 0.82096440
v -0.34996343 -0.00261547 0.82364488
v -0.32997614 -0.00565241 0.82784259
v -0.32997614 -0.01566006 0.81388384
v -0.30998889 -0.01847280 0.81782871
v -0.29955903 -0.01987917 0.81985170
v -0.29174653 -0.01502821 0.82925874
v -0.29174653 -0.02742057 0.81191140
v -0.27092648 -0.03455434 0.80897802
v -0.24998741 -0.03579765 0.81403559
v -0.22996049 -0.03787664 0.81696892
v -0.23142780 -0.02697217 0.83183807
v -0.21568386 -0.03922186 0.81889081
v -0.20941801 -0.03359637 0.82834834
v -0.20239867 -0.04040402 0.82055980
v -0.19803637 -0.05255180 0.80402166
v -0.19002560 -0.05255180 0.80594355
v -0.30741116 -0.05255180 0.76937765
v -0.30998889 -0.04242186 0.78353870
v -0.30998889 -0.03555307 0.79355258
v -0.32997614 -0.02273268 0.80386996
v -0.34964618 -0.01335687 0.80872518
v -0.30998889 -0.02554542 0.80781484
v -0.28996196 -0.03812122 0.79729515
v -0.27818376 -0.03956836 0.79936874
v -0.26485890 -0.04113778 0.80164462
v -0.24998741 -0.04280912 0.80402166
v -0.22996049 -0.04482695 0.80695504
v -0.20977493 -0.05255180 0.80108833
v -0.20941801 -0.04558109 0.81130451
v -0.28996196 -0.05255180 0.77595240
v -0.28996196 -0.04496963 0.78728127
v -0.27092648 -0.04653906 0.79163074
v -0.24927358 -0.05255180 0.78996176
v -0.22996049 -0.05255180 0.79567677
v -0.22488435 -0.05255180 0.79704231
v -0.27041093 -0.05255180 0.78288126
f 1 2 3
f 1 3 4
f 1 4 11
f 1 11 22
f 1 22 36
f 1 36 38
f 1 38 59
f 1 59 58
f 1 58 93
f 1 93 92
f 1 92 126
f 1 126 128
f 1 128 170
f 1 170 215
f 1 215 256
f 1 256 295
f 1 295 296
f 1 296 344
f 1 344 401
f 1 401 400
f 1 400 399
f 1 399 347
f 1 347 346
f 1 346 345
f 1 345 297
f 1 297 258
f 1 258 216
f 1 216 171
f 1 171 129
f 1 129 94
f 1 94 60
f 1 60 39
f 1 39 23
f 1 23 13
f 1 13 12
f 1 12 6
f 1 6 2
f 2 5 3
f 2 6 5
f 3 5 7
f 3 7 8
f 3 8 9
f 3 9 10
f 3 10 4
f 4 10 11
f 5 6 12
f 5 12 13
f 5 13 14
f 5 14 15
f 5 15 7
f 7 16 8
f 7 15 17
f 7 17 16
f 8 16 18
f 8 18 19
f 8 19 9
f 9 19 20
f 9 20 21
f 9 21 10
f 10 21 22
f 10 22 11
f 13 23 24
f 13 24 14
f 14 24 25
f 14 25 15
f 15 25 26
f 15 26 17
f 16 27 18
f 16 17 28
f 16 28 27
f 17 26 29
f 17 29 28
f 18 27 30
f 18 30 31
f 18 31 32
f 18 32 19
f 19 32 52
f 19 52 33
f 19 33 20
f 20 33 34
f 20 34 35
f 20 35 21
f 21 36 22
f 21 35 37
f 21 37 38
f 21 38 36
f 23 39 40
f 23 40 41
f 23 41 24
f 24 41 42
f 24 42 25
f 25 42 26
f 26 42 43
f 26 43 29
f 27 44 49
f 27 49 30
f 27 28 45
f 27 45 46
f 27 46 44
f 28 29 47
f 28 47 45
f 29 43 48
f 29 48 47
f 30 49 50
f 30 50 31
f 31 50 51
f 31 51 52
f 31 52 32
f 33 52 53
f 33 53 34
f 34 53 54
f 34 54 55
f 34 55 56
f 34 56 35
f 35 56 57
f 35 57 37
f 37 57 58
f 37 58 59
f 37 59 38
f 39 60 40
f 40 60 61
f 40 61 41
f 41 61 62
f 41 62 63
f 41 63 42
f 42 63 43
f 43 63 64
f 43 64 48
f 44 46 65
f 44 65 66
f 44 66 67
f 44 67 49
f 45 47 68
f 45 68 69
f 45 69 46
f 46 70 65
f 46 69 71
f 46 71 72
f 46 72 73
f 46 73 70
f 47 48 68
f 48 74 69
f 48 69 68
f 48 64 74
f 49 67 75
f 49 75 76
f 49 76 77
f 49 77 78
f 49 78 50
f 50 78 79
f 50 79 80
f 50 80 81
f 50 81 82
f 50 82 51
f 51 82 83
f 51 83 84
f 51 84 85
f 51 85 52
f 52 85 53
f 53 85 86
f 53 86 54
f 54 86 87
f 54 87 88
f 54 88 55
f 55 88 89
f 55 89 56
f 56 89 90
f 56 90 57
f 57 90 91
f 57 91 92
f 57 92 93
f 57 93 58
f 60 94 95
f 60 95 61
f 61 95 96
f 61 96 97
f 61 97 62
f 62 97 98
f 62 98 63
f 63 98 64
f 64 99 74
f 64 98 99
f 65 70 66
f 66 70 100
f 66 100 67
f 67 100 101
f 67 101 102
f 67 102 103
f 67 103 104
f 67 104 108
f 67 108 75
f 69 74 71
f 70 73 105
f 70 105 100
f 71 74 106
f 71 106 72
f 72 106 107
f 72 107 73
f 73 107 105
f 74 99 106
f 75 108 109
f 75 109 110
f 75 110 111
f 75 111 112
f 75 112 76
f 76 112 78
f 76 78 77
f 78 112 113
f 78 113 114
f 78 114 115
f 78 115 79
f 79 115 116
f 79 116 117
f 79 117 80
f 80 117 118
f 80 118 81
f 81 118 82
f 82 118 83
f 83 118 119
f 83 119 120
f 83 120 84
f 84 120 86
f 84 86 85
f 86 120 121
f 86 121 87
f 87 121 122
f 87 122 88
f 88 122 123
f 88 123 124
f 88 124 89
f 89 124 125
f 89 125 90
f 90 125 91
f 91 126 92
f 91 125 127
f 91 127 128
f 91 128 126
f 94 129 95
f 95 130 172
f 95 172 217
f 95 217 262
f 95 262 305
f 95 305 360
f 95 360 359
f 95 359 410
f 95 410 448
f 95 448 451
f 95 451 486
f 95 486 489
f 95 489 488
f 95 488 492
f 95 492 491
f 95 491 490
f 95 490 454
f 95 454 453
f 95 453 452
f 95 452 411
f 95 411 362
f 95 362 361
f 95 361 307
f 95 307 306
f 95 306 265
f 95 265 264
f 95 264 223
f 95 223 263
f 95 263 218
f 95 218 173
f 95 173 131
f 95 131 96
f 95 129 130
f 96 131 132
f 96 132 98
f 96 98 97
f 98 133 99
f 98 132 133
f 99 133 134
f 99 134 135
f 99 135 107
f 99 107 106
f 100 105 102
f 100 102 101
f 102 105 103
f 103 105 136
f 103 136 104
f 104 136 137
f 104 137 105
f 104 105 138
f 104 138 139
f 104 139 140
f 104 140 141
f 104 141 146
f 104 146 108
f 105 137 136
f 105 107 135
f 105 135 142
f 105 142 143
f 105 143 138
f 108 144 145
f 108 145 109
f 108 146 147
f 108 147 148
f 108 148 149
f 108 149 144
f 109 145 113
f 109 113 110
f 110 112 111
f 110 113 112
f 113 149 150
f 113 150 151
f 113 151 152
f 113 152 153
f 113 153 154
f 113 154 155
f 113 155 114
f 113 145 144
f 113 144 149
f 114 155 156
f 114 156 115
f 115 156 116
f 116 156 157
f 116 157 158
f 116 158 117
f 117 158 159
f 117 159 118
f 118 159 160
f 118 160 161
f 118 161 119
f 119 161 162
f 119 162 120
f 120 162 121
f 121 162 163
f 121 163 122
f 122 163 164
f 122 164 165
f 122 165 166
f 122 166 123
f 123 166 124
f 124 166 167
f 124 167 125
f 125 167 168
f 125 168 169
f 125 169 127
f 127 169 128
f 128 169 170
f 129 171 172
f 129 172 130
f 131 173 174
f 131 174 175
f 131 175 176
f 131 176 133
f 131 133 132
f 133 176 134
f 134 176 177
f 134 177 142
f 134 142 135
f 138 143 140
f 138 140 139
f 140 143 178
f 140 178 141
f 141 178 143
f 141 143 179
f 141 179 180
f 141 180 181
f 141 181 184
f 141 184 146
f 142 177 182
f 142 182 143
f 143 180 179
f 143 182 183
f 143 183 180
f 146 184 185
f 146 185 186
f 146 186 150
f 146 150 187
f 146 187 147
f 147 149 148
f 147 187 150
f 147 150 149
f 150 186 185
f 150 185 188
f 150 188 189
f 150 189 190
f 150 190 191
f 150 191 151
f 151 191 192
f 151 192 193
f 151 193 152
f 152 193 194
f 152 194 153
f 153 194 195
f 153 195 154
f 154 195 155
f 155 195 156
f 156 195 196
f 156 196 157
f 157 196 197
f 157 197 198
f 157 198 158
f 158 198 199
f 158 199 159
f 159 199 200
f 159 200 160
f 160 200 161
f 161 200 201
f 161 201 202
f 161 202 203
f 161 203 162
f 162 203 204
f 162 204 205
f 162 205 163
f 163 205 164
f 164 205 206
f 164 206 207
f 164 207 208
f 164 208 209
f 164 209 165
f 165 209 210
f 165 210 211
f 165 211 166
f 166 211 212
f 166 212 167
f 167 212 213
f 167 213 168
f 168 213 169
f 169 213 214
f 169 214 215
f 169 215 170
f 171 216 260
f 171 260 302
f 171 302 355
f 171 355 353
f 171 353 404
f 171 404 442
f 171 442 441
f 171 441 440
f 171 440 393
f 171 393 439
f 171 439 438
f 171 438 478
f 171 478 515
f 171 515 514
f 171 514 539
f 171 539 538
f 171 538 551
f 171 551 558
f 171 558 557
f 171 557 556
f 171 556 559
f 171 559 553
f 171 553 540
f 171 540 516
f 171 516 479
f 171 479 443
f 171 443 405
f 171 405 356
f 171 356 303
f 171 303 261
f 171 261 217
f 171 217 172
f 173 218 219
f 173 219 174
f 174 219 220
f 174 220 181
f 174 181 183
f 174 183 182
f 174 182 175
f 175 182 176
f 176 182 177
f 180 183 221
f 180 221 181
f 181 221 183
f 181 220 219
f 181 219 184
f 184 222 185
f 184 219 223
f 184 223 224
f 184 224 225
f 184 225 226
f 184 226 188
f 184 188 222
f 185 222 188
f 188 226 227
f 188 227 189
f 189 227 228
f 189 228 229
f 189 229 230
f 189 230 231
f 189 231 190
f 190 231 232
f 190 232 191
f 191 232 192
f 192 232 233
f 192 233 193
f 193 233 194
f 194 233 234
f 194 234 235
f 194 235 195
f 195 235 236
f 195 236 237
f 195 237 196
f 196 237 197
f 197 237 238
f 197 238 239
f 197 239 240
f 197 240 198
f 198 240 241
f 198 241 199
f 199 241 242
f 199 242 200
f 200 242 201
f 201 242 202
f 202 242 243
f 202 243 244
f 202 244 245
f 202 245 203
f 203 205 204
f 203 245 206
f 203 206 205
f 206 245 246
f 206 246 207
f 207 246 247
f 207 247 208
f 208 210 209
f 208 247 248
f 208 248 249
f 208 249 250
f 208 250 210
f 210 251 252
f 210 252 211
f 210 250 253
f 210 253 251
f 211 252 212
f 212 252 254
f 212 254 255
f 212 255 213
f 213 255 214
f 214 256 215
f 214 255 257
f 214 257 295
f 214 295 256
f 216 258 259
f 216 259 260
f 217 261 262
f 218 263 219
f 219 263 223
f 223 227 224
f 223 264 227
f 224 227 225
f 225 227 226
f 227 264 265
f 227 265 266
f 227 266 228
f 228 266 267
f 228 267 229
f 229 267 268
f 229 268 230
f 230 268 231
f 231 268 232
f 232 268 269
f 232 269 270
f 232 270 233
f 233 270 271
f 233 271 272
f 233 272 234
f 234 272 273
f 234 273 235
f 235 273 274
f 235 274 236
f 236 274 238
f 236 238 237
f 238 274 275
f 238 275 276
f 238 276 239
f 239 276 277
f 239 277 278
f 239 278 240
f 240 278 279
f 240 279 241
f 241 279 243
f 241 243 242
f 243 279 280
f 243 280 244
f 244 280 281
f 244 281 282
f 244 282 283
f 244 283 245
f 245 283 246
f 246 283 284
f 246 284 285
f 246 285 247
f 247 285 248
f 248 285 286
f 248 286 249
f 249 286 287
f 249 287 250
f 250 287 288
f 250 288 253
f 251 289 252
f 251 253 290
f 251 290 289
f 252 289 254
f 253 288 291
f 253 291 292
f 253 292 338
f 253 338 290
f 254 289 293
f 254 293 255
f 255 294 257
f 255 293 294
f 257 294 296
f 257 296 295
f 258 297 298
f 258 298 299
f 258 299 259
f 259 299 300
f 259 300 260
f 260 300 301
f 260 301 302
f 261 303 304
f 261 304 305
f 261 305 262
f 265 306 266
f 266 306 307
f 266 307 308
f 266 308 267
f 267 308 268
f 268 308 309
f 268 309 310
f 268 310 311
f 268 311 312
f 268 312 269
f 269 312 313
f 269 313 270
f 270 313 271
f 271 314 272
f 271 313 315
f 271 315 316
f 271 316 314
f 272 314 317
f 272 317 273
f 273 317 318
f 273 318 274
f 274 318 275
f 275 318 319
f 275 319 276
f 276 319 320
f 276 320 321
f 276 321 322
f 276 322 323
f 276 323 324
f 276 324 277
f 277 324 278
f 278 324 325
f 278 325 279
f 279 325 280
f 280 325 281
f 281 325 326
f 281 326 327
f 281 327 328
f 281 328 282
f 282 328 329
f 282 329 283
f 283 329 284
f 284 329 330
f 284 330 331
f 284 331 286
f 284 286 285
f 286 331 332
f 286 332 333
f 286 333 287
f 287 333 334
f 287 334 335
f 287 335 336
f 287 336 337
f 287 337 291
f 287 291 288
f 289 290 293
f 290 338 339
f 290 339 293
f 291 337 340
f 291 340 398
f 291 398 341
f 291 341 292
f 292 341 397
f 292 397 338
f 293 339 348
f 293 348 342
f 293 342 343
f 293 343 294
f 294 343 296
f 296 343 344
f 297 345 298
f 298 345 346
f 298 346 347
f 298 347 348
f 298 348 349
f 298 349 350
f 298 350 300
f 298 300 299
f 300 351 352
f 300 352 353
f 300 353 301
f 300 350 354
f 300 354 351
f 301 353 355
f 301 355 302
f 303 356 357
f 303 357 304
f 304 357 358
f 304 358 359
f 304 359 360
f 304 360 305
f 307 361 308
f 308 361 362
f 308 362 363
f 308 363 309
f 309 363 364
f 309 364 310
f 310 364 311
f 311 364 365
f 311 365 366
f 311 366 367
f 311 367 368
f 311 368 369
f 311 369 312
f 312 369 313
f 313 369 315
f 314 316 370
f 314 370 371
f 314 371 317
f 315 369 372
f 315 372 373
f 315 373 316
f 316 373 370
f 317 371 374
f 317 374 318
f 318 374 319
f 319 374 375
f 319 375 320
f 320 375 321
f 321 375 376
f 321 376 377
f 321 377 378
f 321 378 322
f 322 378 379
f 322 379 380
f 322 380 324
f 322 324 323
f 324 380 325
f 325 380 326
f 326 380 327
f 327 380 381
f 327 381 382
f 327 382 328
f 328 382 383
f 328 383 384
f 328 384 330
f 328 330 329
f 330 384 385
f 330 385 331
f 331 385 332
f 332 385 386
f 332 386 387
f 332 387 388
f 332 388 333
f 333 388 334
f 334 388 389
f 334 389 390
f 334 390 335
f 335 390 391
f 335 391 392
f 335 392 337
f 335 337 336
f 337 392 393
f 337 393 394
f 337 394 395
f 337 395 340
f 338 396 339
f 338 397 349
f 338 349 396
f 339 396 348
f 340 395 398
f 341 398 354
f 341 354 397
f 342 399 400
f 342 400 343
f 342 348 399
f 343 400 401
f 343 401 344
f 347 399 348
f 348 396 349
f 349 397 350
f 350 397 354
f 351 402 403
f 351 403 404
f 351 404 352
f 351 354 402
f 352 404 353
f 354 398 402
f 356 405 406
f 356 406 357
f 357 406 407
f 357 407 358
f 358 407 408
f 358 408 409
f 358 409 410
f 358 410 359
f 362 411 363
f 363 411 412
f 363 412 364
f 364 412 365
f 365 412 413
f 365 413 414
f 365 414 415
f 365 415 366
f 366 415 367
f 367 415 416
f 367 416 417
f 367 417 418
f 367 418 419
f 367 419 368
f 368 419 369
f 369 419 372
f 370 373 420
f 370 420 421
f 370 421 422
f 370 422 423
f 370 423 424
f 370 424 371
f 371 424 374
f 372 419 425
f 372 425 373
f 373 425 420
f 374 424 375
f 375 424 376
f 376 424 426
f 376 426 377
f 377 426 427
f 377 427 378
f 378 427 428
f 378 428 429
f 378 429 379
f 379 429 380
f 380 429 430
f 380 430 381
f 381 430 382
f 382 384 383
f 382 430 431
f 382 431 432
f 382 432 433
f 382 433 384
f 384 433 434
f 384 434 385
f 385 434 386
f 386 434 435
f 386 435 436
f 386 436 389
f 386 389 388
f 386 388 387
f 389 436 390
f 390 436 437
f 390 437 391
f 391 437 438
f 391 438 439
f 391 439 392
f 392 439 393
f 393 440 394
f 394 403 395
f 394 440 441
f 394 441 403
f 395 403 402
f 395 402 398
f 403 441 442
f 403 442 404
f 405 443 444
f 405 444 445
f 405 445 407
f 405 407 406
f 407 445 446
f 407 446 447
f 407 447 408
f 408 447 409
f 409 448 410
f 409 447 449
f 409 449 450
f 409 450 451
f 409 451 448
f 411 452 412
f 412 452 413
f 413 453 454
f 413 454 455
f 413 455 456
f 413 456 457
f 413 457 415
f 413 415 414
f 413 452 453
f 415 457 416
f 416 457 456
f 416 456 458
f 416 458 417
f 417 459 418
f 417 458 460
f 417 460 459
f 418 459 419
f 419 459 461
f 419 461 462
f 419 462 425
f 420 425 421
f 421 425 462
f 421 462 463
f 421 463 464
f 421 464 422
f 422 464 465
f 422 465 466
f 422 466 426
f 422 426 423
f 423 426 424
f 426 466 467
f 426 467 427
f 427 467 468
f 427 468 469
f 427 469 470
f 427 470 471
f 427 471 472
f 427 472 428
f 428 472 429
f 429 472 473
f 429 473 431
f 429 431 430
f 431 473 474
f 431 474 432
f 432 434 433
f 432 474 475
f 432 475 435
f 432 435 434
f 435 475 476
f 435 476 436
f 436 476 477
f 436 477 437
f 437 477 478
f 437 478 438
f 443 479 444
f 444 479 480
f 444 480 481
f 444 481 482
f 444 482 445
f 445 482 446
f 446 482 483
f 446 483 447
f 447 483 484
f 447 484 449
f 449 484 485
f 449 485 450
f 450 486 451
f 450 485 487
f 450 487 488
f 450 488 489
f 450 489 486
f 454 490 455
f 455 490 491
f 455 491 492
f 455 492 488
f 455 488 493
f 455 493 458
f 455 458 456
f 458 493 494
f 458 494 495
f 458 495 460
f 459 460 496
f 459 496 461
f 460 495 497
f 460 497 496
f 461 496 497
f 461 497 498
f 461 498 499
f 461 499 463
f 461 463 462
f 463 499 500
f 463 500 464
f 464 500 501
f 464 501 502
f 464 502 465
f 465 467 466
f 465 502 503
f 465 503 467
f 467 503 469
f 467 469 468
f 469 503 504
f 469 504 505
f 469 505 507
f 469 507 470
f 470 506 471
f 470 507 506
f 471 506 472
f 472 506 473
f 473 506 508
f 473 508 509
f 473 509 474
f 474 509 510
f 474 510 475
f 475 510 511
f 475 511 476
f 476 511 512
f 476 512 477
f 477 512 513
f 477 513 514
f 477 514 515
f 477 515 478
f 479 516 480
f 480 516 517
f 480 517 481
f 481 517 518
f 481 518 519
f 481 519 520
f 481 520 482
f 482 520 483
f 483 520 521
f 483 521 484
f 484 521 522
f 484 522 485
f 485 522 494
f 485 494 487
f 487 494 493
f 487 493 488
f 494 522 523
f 494 523 495
f 495 523 497
f 497 523 524
f 497 524 498
f 498 500 499
f 498 524 525
f 498 525 500
f 500 502 501
f 500 525 526
f 500 526 527
f 500 527 528
f 500 528 502
f 502 528 503
f 503 528 529
f 503 529 504
f 504 528 530
f 504 530 531
f 504 531 505
f 504 529 528
f 505 531 532
f 505 532 507
f 506 507 532
f 506 532 533
f 506 533 534
f 506 534 509
f 506 509 508
f 509 534 535
f 509 535 536
f 509 536 510
f 510 536 511
f 511 536 537
f 511 537 512
f 512 537 513
f 513 537 538
f 513 538 539
f 513 539 514
f 516 540 541
f 516 541 517
f 517 541 542
f 517 542 543
f 517 543 518
f 518 543 519
f 519 543 526
f 519 526 524
f 519 524 544
f 519 544 521
f 519 521 520
f 521 544 523
f 521 523 522
f 523 544 524
f 524 526 525
f 526 543 545
f 526 545 527
f 527 545 528
f 528 545 542
f 528 542 546
f 528 546 530
f 530 546 547
f 530 547 531
f 531 547 548
f 531 548 532
f 532 548 549
f 532 549 533
f 533 549 550
f 533 550 535
f 533 535 534
f 535 550 551
f 535 551 552
f 535 552 537
f 535 537 536
f 537 552 538
f 538 552 551
f 540 553 554
f 540 554 541
f 541 554 546
f 541 546 542
f 542 545 543
f 546 554 547
f 547 554 555
f 547 555 548
f 548 555 556
f 548 556 549
f 549 556 557
f 549 557 550
f 550 557 558
f 550 558 551
f 553 559 554
f 554 559 555
f 555 559 556
